<svg xmlns="http://www.w3.org/2000/svg" width="300" height="300" viewBox="0 0 300 300">
<path d="M 150.30 68.61 L 150.19 69.58 C 150.08 70.56 150.79 71.45 151.77 71.57 C 152.76 71.68 153.64 70.97 153.76 69.99 L 153.87 69.01 C 153.98 68.03 153.27 67.14 152.29 67.03 C 151.30 66.92 150.42 67.62 150.30 68.61 Z M 150.19 69.59 L 150.08 70.57 C 149.98 71.56 150.69 72.44 151.68 72.55 C 152.67 72.65 153.56 71.94 153.66 70.95 L 153.76 69.97 C 153.87 68.98 153.15 68.10 152.16 67.99 C 151.18 67.89 150.29 68.61 150.19 69.59 Z M 150.07 70.60 L 149.99 71.58 C 149.90 72.58 150.63 73.45 151.62 73.54 C 152.61 73.63 153.49 72.90 153.58 71.91 L 153.67 70.92 C 153.76 69.93 153.02 69.05 152.03 68.96 C 151.04 68.87 150.16 69.61 150.07 70.60 Z M 149.98 71.63 L 149.91 72.62 C 149.85 73.62 150.60 74.48 151.60 74.55 C 152.60 74.61 153.46 73.86 153.52 72.86 L 153.59 71.86 C 153.65 70.87 152.90 70.01 151.90 69.94 C 150.90 69.87 150.04 70.63 149.98 71.63 Z M 149.90 72.68 L 149.87 73.70 C 149.83 74.70 150.62 75.54 151.62 75.57 C 152.62 75.61 153.46 74.82 153.49 73.82 L 153.53 72.81 C 153.57 71.81 152.78 70.96 151.78 70.93 C 150.78 70.89 149.94 71.68 149.90 72.68 Z M 149.86 73.76 L 149.86 74.79 C 149.86 75.80 150.68 76.61 151.69 76.61 C 152.69 76.61 153.50 75.79 153.50 74.79 L 153.50 73.76 C 153.50 72.75 152.68 71.94 151.68 71.94 C 150.67 71.94 149.86 72.76 149.86 73.76 Z M 149.86 74.86 L 149.90 75.86 C 149.95 76.87 150.79 77.65 151.80 77.61 C 152.80 77.57 153.58 76.72 153.54 75.71 L 153.50 74.72 C 153.46 73.71 152.61 72.93 151.61 72.97 C 150.61 73.01 149.82 73.86 149.86 74.86 Z M 149.91 75.92 L 149.99 76.93 C 150.06 77.93 150.93 78.68 151.93 78.61 C 152.93 78.53 153.68 77.66 153.61 76.66 L 153.53 75.65 C 153.46 74.65 152.59 73.90 151.59 73.98 C 150.59 74.05 149.84 74.92 149.91 75.92 Z M 150.00 76.98 L 150.10 78.00 C 150.20 78.99 151.09 79.71 152.09 79.61 C 153.08 79.51 153.81 78.62 153.71 77.62 L 153.60 76.61 C 153.50 75.62 152.61 74.89 151.61 74.99 C 150.62 75.10 149.89 75.99 150.00 76.98 Z M 150.11 78.04 L 150.24 79.04 C 150.37 80.04 151.27 80.73 152.27 80.61 C 153.26 80.48 153.95 79.57 153.83 78.58 L 153.70 77.58 C 153.57 76.59 152.66 75.89 151.67 76.02 C 150.68 76.14 149.98 77.05 150.11 78.04 Z M 150.25 79.09 L 150.40 80.07 C 150.55 81.06 151.47 81.73 152.46 81.58 C 153.44 81.43 154.12 80.51 153.97 79.52 L 153.82 78.54 C 153.67 77.55 152.74 76.88 151.76 77.03 C 150.77 77.18 150.10 78.10 150.25 79.09 Z M 150.41 80.11 L 150.58 81.06 C 150.75 82.04 151.68 82.70 152.66 82.53 C 153.64 82.36 154.30 81.42 154.13 80.44 L 153.96 79.49 C 153.79 78.51 152.85 77.85 151.87 78.02 C 150.89 78.19 150.24 79.13 150.41 80.11 Z M 150.59 81.10 L 150.80 82.13 C 150.99 83.11 151.93 83.74 152.90 83.55 C 153.87 83.36 154.50 82.41 154.31 81.44 L 154.11 80.41 C 153.92 79.44 152.98 78.80 152.01 79.00 C 151.03 79.19 150.40 80.13 150.59 81.10 Z M 150.82 82.17 L 151.04 83.18 C 151.25 84.14 152.19 84.75 153.15 84.54 C 154.11 84.33 154.72 83.38 154.51 82.42 L 154.29 81.41 C 154.08 80.45 153.14 79.84 152.18 80.05 C 151.22 80.26 150.61 81.21 150.82 82.17 Z M 151.06 83.21 L 151.29 84.18 C 151.51 85.13 152.46 85.71 153.41 85.49 C 154.36 85.27 154.94 84.32 154.72 83.37 L 154.49 82.40 C 154.27 81.45 153.32 80.86 152.37 81.09 C 151.42 81.31 150.84 82.26 151.06 83.21 Z M 151.31 84.20 L 151.55 85.15 C 151.78 86.08 152.73 86.65 153.67 86.42 C 154.60 86.18 155.17 85.23 154.94 84.30 L 154.70 83.35 C 154.46 82.42 153.52 81.85 152.58 82.08 C 151.65 82.32 151.08 83.27 151.31 84.20 Z M 151.57 85.16 L 151.81 86.08 C 152.05 87.01 153.00 87.56 153.92 87.32 C 154.85 87.08 155.40 86.14 155.16 85.21 L 154.92 84.29 C 154.68 83.36 153.73 82.81 152.81 83.05 C 151.88 83.29 151.33 84.23 151.57 85.16 Z M 151.83 86.09 L 152.07 87.01 C 152.31 87.92 153.25 88.47 154.17 88.22 C 155.09 87.98 155.63 87.04 155.39 86.12 L 155.14 85.21 C 154.90 84.29 153.96 83.75 153.04 83.99 C 152.13 84.23 151.58 85.17 151.83 86.09 Z M 152.09 87.01 L 152.34 87.93 C 152.58 88.84 153.52 89.38 154.42 89.13 C 155.33 88.89 155.87 87.95 155.62 87.05 L 155.37 86.12 C 155.12 85.22 154.19 84.68 153.28 84.92 C 152.38 85.17 151.84 86.10 152.09 87.01 Z M 152.35 87.94 L 152.61 88.87 C 152.86 89.77 153.79 90.30 154.69 90.05 C 155.59 89.80 156.11 88.87 155.86 87.97 L 155.60 87.04 C 155.35 86.14 154.42 85.62 153.53 85.87 C 152.63 86.12 152.10 87.05 152.35 87.94 Z M 152.63 88.89 L 152.91 89.84 C 153.17 90.73 154.10 91.24 154.98 90.98 C 155.87 90.72 156.38 89.79 156.12 88.91 L 155.84 87.95 C 155.59 87.07 154.66 86.56 153.77 86.82 C 152.88 87.07 152.37 88.00 152.63 88.89 Z M 152.93 89.86 L 153.23 90.84 C 153.50 91.72 154.43 92.21 155.30 91.94 C 156.18 91.67 156.67 90.75 156.40 89.87 L 156.10 88.89 C 155.83 88.01 154.90 87.52 154.03 87.79 C 153.15 88.06 152.66 88.98 152.93 89.86 Z M 153.25 90.86 L 153.58 91.88 C 153.86 92.75 154.79 93.22 155.65 92.94 C 156.52 92.66 156.99 91.73 156.71 90.87 L 156.38 89.85 C 156.10 88.99 155.17 88.51 154.31 88.79 C 153.45 89.07 152.97 90.00 153.25 90.86 Z M 153.60 91.90 L 153.91 92.79 C 154.20 93.65 155.13 94.10 155.98 93.81 C 156.83 93.52 157.29 92.59 157.00 91.74 L 156.69 90.85 C 156.40 90.00 155.47 89.54 154.62 89.83 C 153.77 90.12 153.31 91.05 153.60 91.90 Z M 153.92 92.81 L 154.25 93.73 C 154.54 94.57 155.47 95.02 156.31 94.72 C 157.16 94.42 157.60 93.50 157.31 92.65 L 156.98 91.73 C 156.69 90.89 155.76 90.44 154.91 90.74 C 154.07 91.04 153.63 91.96 153.92 92.81 Z M 154.26 93.73 L 154.60 94.68 C 154.90 95.52 155.82 95.95 156.66 95.65 C 157.50 95.36 157.93 94.43 157.63 93.59 L 157.30 92.65 C 157.00 91.81 156.07 91.37 155.23 91.67 C 154.40 91.97 153.96 92.90 154.26 93.73 Z M 154.61 94.68 L 154.95 95.64 C 155.25 96.47 156.17 96.90 157.00 96.61 C 157.83 96.31 158.27 95.39 157.97 94.56 L 157.62 93.60 C 157.32 92.76 156.41 92.33 155.57 92.63 C 154.74 92.93 154.31 93.84 154.61 94.68 Z M 154.96 95.63 L 155.30 96.60 C 155.60 97.43 156.51 97.86 157.34 97.56 C 158.17 97.27 158.60 96.36 158.30 95.53 L 157.96 94.56 C 157.66 93.73 156.75 93.30 155.92 93.60 C 155.10 93.89 154.66 94.80 154.96 95.63 Z M 155.31 96.59 L 155.64 97.55 C 155.93 98.38 156.84 98.81 157.66 98.53 C 158.49 98.24 158.92 97.33 158.64 96.51 L 158.30 95.54 C 158.01 94.72 157.11 94.28 156.28 94.57 C 155.46 94.86 155.02 95.76 155.31 96.59 Z M 155.65 97.53 L 155.97 98.50 C 156.25 99.33 157.15 99.77 157.97 99.49 C 158.80 99.22 159.24 98.32 158.96 97.50 L 158.63 96.53 C 158.35 95.70 157.46 95.26 156.64 95.54 C 155.81 95.82 155.37 96.71 155.65 97.53 Z M 155.97 98.49 L 156.29 99.45 C 156.56 100.28 157.44 100.73 158.27 100.46 C 159.10 100.19 159.55 99.31 159.28 98.48 L 158.96 97.51 C 158.69 96.69 157.81 96.24 156.98 96.50 C 156.15 96.77 155.70 97.66 155.97 98.49 Z M 156.29 99.44 L 156.59 100.40 C 156.85 101.23 157.73 101.68 158.56 101.42 C 159.39 101.16 159.84 100.28 159.58 99.45 L 159.28 98.49 C 159.02 97.67 158.14 97.21 157.31 97.47 C 156.48 97.73 156.02 98.61 156.29 99.44 Z M 156.59 100.39 L 156.88 101.34 C 157.13 102.17 158.01 102.63 158.84 102.38 C 159.67 102.12 160.13 101.24 159.88 100.42 L 159.58 99.46 C 159.33 98.64 158.45 98.17 157.62 98.43 C 156.80 98.68 156.33 99.56 156.59 100.39 Z M 156.88 101.33 L 157.17 102.28 C 157.42 103.11 158.29 103.57 159.12 103.32 C 159.94 103.07 160.41 102.20 160.16 101.37 L 159.88 100.43 C 159.63 99.60 158.75 99.13 157.93 99.38 C 157.10 99.63 156.63 100.50 156.88 101.33 Z M 157.17 102.27 L 157.45 103.22 C 157.69 104.04 158.56 104.52 159.39 104.27 C 160.22 104.02 160.69 103.15 160.44 102.32 L 160.16 101.38 C 159.92 100.55 159.05 100.08 158.22 100.33 C 157.39 100.57 156.92 101.44 157.17 102.27 Z M 157.45 103.21 L 157.64 103.87 C 157.89 104.70 158.76 105.17 159.58 104.92 C 160.41 104.68 160.88 103.81 160.64 102.98 L 160.44 102.33 C 160.20 101.50 159.33 101.03 158.50 101.27 C 157.68 101.52 157.20 102.39 157.45 103.21 Z"
      fill="black"
      fill-rule="nonzero" /><path d="M 121.00 115.79 L 120.08 116.19 C 119.24 116.55 118.85 117.53 119.21 118.37 C 119.57 119.22 120.55 119.60 121.40 119.24 L 122.32 118.84 C 123.16 118.48 123.55 117.50 123.18 116.66 C 122.82 115.82 121.84 115.43 121.00 115.79 Z M 120.04 116.17 L 119.13 116.58 C 118.27 116.96 117.89 117.96 118.27 118.82 C 118.66 119.67 119.66 120.06 120.52 119.67 L 121.43 119.26 C 122.29 118.88 122.67 117.88 122.29 117.02 C 121.90 116.17 120.90 115.78 120.04 116.17 Z M 119.07 116.56 L 118.17 117.00 C 117.31 117.41 116.95 118.45 117.36 119.31 C 117.78 120.17 118.81 120.53 119.67 120.12 L 120.57 119.68 C 121.44 119.27 121.80 118.23 121.38 117.37 C 120.97 116.51 119.93 116.15 119.07 116.56 Z M 118.09 117.00 L 117.21 117.47 C 116.35 117.93 116.03 119.00 116.49 119.86 C 116.95 120.72 118.02 121.05 118.88 120.59 L 119.76 120.12 C 120.62 119.66 120.94 118.59 120.48 117.73 C 120.02 116.87 118.95 116.54 118.09 117.00 Z M 117.11 117.49 L 116.25 118.01 C 115.41 118.53 115.14 119.64 115.66 120.49 C 116.17 121.33 117.28 121.60 118.13 121.09 L 118.98 120.57 C 119.83 120.05 120.10 118.94 119.58 118.09 C 119.06 117.24 117.96 116.97 117.11 117.49 Z M 116.12 118.07 L 115.07 118.84 C 114.25 119.43 114.07 120.57 114.67 121.38 C 115.26 122.20 116.40 122.38 117.22 121.79 L 118.27 121.02 C 119.08 120.43 119.26 119.29 118.67 118.47 C 118.08 117.66 116.93 117.48 116.12 118.07 Z M 114.89 118.97 L 114.05 119.74 C 113.31 120.44 113.27 121.60 113.96 122.34 C 114.65 123.09 115.81 123.13 116.56 122.44 L 117.40 121.66 C 118.14 120.97 118.18 119.80 117.49 119.06 C 116.80 118.32 115.63 118.27 114.89 118.97 Z M 113.76 120.07 L 113.30 120.76 C 112.74 121.61 112.97 122.76 113.83 123.33 C 114.68 123.89 115.83 123.66 116.39 122.80 L 116.85 122.11 C 117.41 121.26 117.18 120.11 116.33 119.55 C 115.47 118.98 114.33 119.22 113.76 120.07 Z M 113.00 122.03 L 113.06 122.52 C 113.20 123.54 114.13 124.26 115.16 124.12 C 116.18 123.99 116.90 123.05 116.76 122.03 L 116.70 121.54 C 116.56 120.52 115.62 119.80 114.60 119.93 C 113.58 120.07 112.86 121.00 113.00 122.03 Z M 114.10 123.97 L 114.59 124.21 C 115.53 124.66 116.65 124.26 117.10 123.33 C 117.55 122.39 117.16 121.27 116.22 120.82 L 115.73 120.58 C 114.79 120.13 113.67 120.52 113.22 121.46 C 112.77 122.39 113.16 123.52 114.10 123.97 Z M 115.20 124.40 L 116.04 124.49 C 117.08 124.61 118.02 123.86 118.14 122.82 C 118.25 121.78 117.50 120.84 116.46 120.72 L 115.62 120.63 C 114.58 120.51 113.64 121.26 113.52 122.30 C 113.41 123.34 114.16 124.28 115.20 124.40 Z M 116.30 124.52 L 117.42 124.49 C 118.47 124.46 119.31 123.58 119.28 122.53 C 119.25 121.47 118.37 120.64 117.32 120.66 L 116.20 120.69 C 115.14 120.72 114.31 121.60 114.34 122.66 C 114.36 123.71 115.24 124.55 116.30 124.52 Z M 117.56 124.50 L 118.88 124.37 C 119.94 124.26 120.71 123.32 120.61 122.26 C 120.50 121.19 119.56 120.42 118.50 120.52 L 117.18 120.66 C 116.11 120.76 115.34 121.71 115.44 122.77 C 115.55 123.83 116.50 124.60 117.56 124.50 Z M 118.96 124.37 L 120.13 124.21 C 121.19 124.06 121.93 123.07 121.78 122.01 C 121.63 120.94 120.64 120.20 119.58 120.35 L 118.41 120.52 C 117.35 120.67 116.61 121.66 116.76 122.72 C 116.91 123.78 117.90 124.52 118.96 124.37 Z M 120.17 124.21 L 121.12 124.05 C 122.18 123.87 122.90 122.87 122.73 121.80 C 122.55 120.74 121.54 120.02 120.48 120.20 L 119.53 120.35 C 118.47 120.53 117.75 121.54 117.93 122.60 C 118.10 123.66 119.11 124.38 120.17 124.21 Z M 121.15 124.05 L 122.12 123.88 C 123.19 123.69 123.89 122.67 123.70 121.60 C 123.51 120.54 122.49 119.83 121.42 120.02 L 120.45 120.20 C 119.39 120.39 118.68 121.41 118.87 122.47 C 119.06 123.54 120.08 124.24 121.15 124.05 Z M 122.14 123.88 L 123.13 123.69 C 124.20 123.49 124.90 122.46 124.70 121.39 C 124.49 120.33 123.46 119.63 122.40 119.83 L 121.41 120.02 C 120.34 120.22 119.64 121.25 119.84 122.32 C 120.04 123.38 121.07 124.08 122.14 123.88 Z M 123.14 123.70 L 124.14 123.50 C 125.21 123.29 125.91 122.26 125.70 121.19 C 125.49 120.12 124.46 119.42 123.39 119.63 L 122.39 119.82 C 121.32 120.03 120.62 121.07 120.83 122.14 C 121.04 123.21 122.07 123.90 123.14 123.70 Z M 124.15 123.51 L 125.15 123.31 C 126.23 123.10 126.93 122.06 126.72 120.99 C 126.51 119.92 125.47 119.22 124.40 119.43 L 123.39 119.62 C 122.32 119.83 121.62 120.87 121.83 121.94 C 122.04 123.02 123.08 123.72 124.15 123.51 Z M 125.15 123.32 L 126.15 123.12 C 127.23 122.92 127.93 121.88 127.73 120.80 C 127.52 119.72 126.48 119.02 125.40 119.23 L 124.40 119.42 C 123.32 119.63 122.62 120.67 122.83 121.74 C 123.03 122.82 124.07 123.52 125.15 123.32 Z M 126.14 123.13 L 127.13 122.95 C 128.21 122.75 128.93 121.71 128.73 120.63 C 128.53 119.55 127.49 118.84 126.41 119.03 L 125.42 119.22 C 124.34 119.42 123.62 120.45 123.82 121.54 C 124.02 122.62 125.06 123.33 126.14 123.13 Z M 127.11 122.96 L 128.14 122.78 C 129.22 122.59 129.95 121.56 129.76 120.48 C 129.57 119.39 128.54 118.66 127.46 118.85 L 126.43 119.03 C 125.35 119.21 124.62 120.25 124.80 121.33 C 124.99 122.42 126.02 123.14 127.11 122.96 Z M 128.11 122.79 L 129.12 122.62 C 130.21 122.45 130.95 121.43 130.78 120.34 C 130.60 119.25 129.58 118.51 128.49 118.68 L 127.48 118.84 C 126.39 119.02 125.65 120.04 125.83 121.13 C 126.00 122.22 127.02 122.96 128.11 122.79 Z M 129.10 122.63 L 130.09 122.48 C 131.18 122.32 131.94 121.30 131.77 120.21 C 131.61 119.12 130.60 118.37 129.50 118.53 L 128.51 118.68 C 127.42 118.84 126.67 119.86 126.83 120.95 C 126.99 122.04 128.01 122.79 129.10 122.63 Z M 130.07 122.49 L 131.06 122.35 C 132.15 122.20 132.91 121.19 132.76 120.09 C 132.61 119.00 131.60 118.24 130.51 118.39 L 129.52 118.52 C 128.43 118.67 127.67 119.68 127.82 120.78 C 127.97 121.87 128.98 122.64 130.07 122.49 Z M 131.04 122.35 L 132.01 122.23 C 133.11 122.09 133.88 121.08 133.74 119.99 C 133.60 118.89 132.60 118.12 131.50 118.26 L 130.52 118.38 C 129.43 118.52 128.65 119.53 128.80 120.63 C 128.94 121.72 129.94 122.50 131.04 122.35 Z M 132.00 122.23 L 132.97 122.11 C 134.07 121.98 134.85 120.98 134.72 119.88 C 134.59 118.78 133.59 118.00 132.49 118.14 L 131.52 118.25 C 130.42 118.39 129.63 119.38 129.77 120.48 C 129.90 121.58 130.90 122.37 132.00 122.23 Z M 132.96 122.12 L 133.93 122.01 C 135.03 121.88 135.82 120.89 135.70 119.79 C 135.57 118.68 134.57 117.89 133.47 118.02 L 132.50 118.13 C 131.40 118.26 130.61 119.25 130.74 120.35 C 130.86 121.45 131.86 122.24 132.96 122.12 Z M 133.92 122.01 L 134.94 121.90 C 136.04 121.78 136.83 120.79 136.71 119.68 C 136.59 118.58 135.60 117.79 134.50 117.91 L 133.48 118.02 C 132.38 118.14 131.59 119.13 131.71 120.23 C 131.83 121.33 132.82 122.13 133.92 122.01 Z M 134.93 121.90 L 135.95 121.79 C 137.06 121.67 137.85 120.68 137.74 119.58 C 137.62 118.48 136.63 117.68 135.53 117.80 L 134.51 117.91 C 133.40 118.02 132.60 119.01 132.72 120.12 C 132.84 121.22 133.83 122.02 134.93 121.90 Z M 135.95 121.79 L 136.97 121.68 C 138.07 121.56 138.87 120.58 138.75 119.47 C 138.64 118.37 137.65 117.57 136.54 117.69 L 135.53 117.80 C 134.42 117.91 133.63 118.90 133.74 120.01 C 133.86 121.11 134.85 121.91 135.95 121.79 Z M 136.97 121.68 L 137.98 121.57 C 139.08 121.45 139.88 120.46 139.76 119.36 C 139.64 118.26 138.65 117.46 137.54 117.58 L 136.54 117.69 C 135.44 117.81 134.64 118.80 134.76 119.90 C 134.88 121.01 135.87 121.80 136.97 121.68 Z M 137.99 121.57 L 138.98 121.46 C 140.08 121.33 140.87 120.34 140.74 119.24 C 140.62 118.13 139.62 117.34 138.52 117.47 L 137.53 117.58 C 136.43 117.71 135.64 118.70 135.76 119.80 C 135.89 120.91 136.89 121.70 137.99 121.57 Z M 138.99 121.46 L 139.96 121.34 C 141.06 121.20 141.84 120.20 141.71 119.10 C 141.57 118.00 140.57 117.22 139.47 117.35 L 138.50 117.47 C 137.40 117.60 136.62 118.61 136.75 119.71 C 136.89 120.81 137.89 121.59 138.99 121.46 Z M 139.98 121.34 L 140.93 121.21 C 142.02 121.06 142.80 120.05 142.65 118.95 C 142.50 117.85 141.49 117.08 140.39 117.23 L 139.44 117.35 C 138.35 117.50 137.57 118.51 137.72 119.61 C 137.87 120.71 138.88 121.48 139.98 121.34 Z M 140.96 121.20 L 141.98 121.05 C 143.08 120.88 143.83 119.86 143.67 118.76 C 143.50 117.67 142.48 116.91 141.38 117.08 L 140.36 117.23 C 139.26 117.40 138.51 118.42 138.67 119.52 C 138.84 120.62 139.86 121.37 140.96 121.20 Z M 142.02 121.04 L 143.01 120.87 C 144.10 120.68 144.84 119.64 144.65 118.55 C 144.46 117.46 143.42 116.72 142.33 116.91 L 141.34 117.08 C 140.24 117.27 139.51 118.31 139.70 119.41 C 139.89 120.50 140.93 121.23 142.02 121.04 Z M 143.06 120.86 L 144.03 120.67 C 145.12 120.46 145.82 119.40 145.61 118.31 C 145.39 117.22 144.34 116.52 143.25 116.73 L 142.28 116.92 C 141.19 117.14 140.48 118.19 140.70 119.28 C 140.91 120.37 141.97 121.08 143.06 120.86 Z M 144.08 120.66 L 145.04 120.44 C 146.12 120.20 146.80 119.13 146.55 118.04 C 146.31 116.96 145.24 116.28 144.15 116.53 L 143.20 116.74 C 142.11 116.99 141.44 118.06 141.68 119.14 C 141.92 120.23 143.00 120.90 144.08 120.66 Z M 145.09 120.43 L 146.05 120.19 C 147.12 119.91 147.77 118.82 147.50 117.74 C 147.22 116.67 146.13 116.02 145.05 116.30 L 144.10 116.54 C 143.02 116.81 142.37 117.91 142.65 118.98 C 142.93 120.06 144.02 120.71 145.09 120.43 Z M 146.11 120.17 L 147.07 119.89 C 148.13 119.59 148.75 118.48 148.44 117.41 C 148.14 116.34 147.02 115.73 145.96 116.03 L 145.00 116.31 C 143.93 116.62 143.31 117.73 143.62 118.80 C 143.93 119.86 145.04 120.48 146.11 120.17 Z M 147.12 119.88 L 148.03 119.59 C 149.09 119.25 149.67 118.12 149.33 117.07 C 149.00 116.01 147.87 115.43 146.81 115.76 L 145.90 116.05 C 144.85 116.39 144.26 117.52 144.60 118.57 C 144.94 119.63 146.06 120.21 147.12 119.88 Z M 148.08 119.57 L 149.00 119.25 C 150.05 118.89 150.60 117.75 150.24 116.70 C 149.88 115.65 148.74 115.10 147.69 115.46 L 146.77 115.78 C 145.72 116.14 145.17 117.28 145.53 118.33 C 145.89 119.38 147.03 119.93 148.08 119.57 Z M 149.04 119.23 L 149.98 118.88 C 151.01 118.50 151.54 117.34 151.15 116.31 C 150.77 115.27 149.61 114.75 148.58 115.13 L 147.65 115.48 C 146.61 115.87 146.08 117.02 146.47 118.05 C 146.86 119.09 148.01 119.62 149.04 119.23 Z M 150.02 118.86 L 150.96 118.49 C 151.98 118.08 152.48 116.92 152.07 115.89 C 151.66 114.87 150.50 114.37 149.47 114.78 L 148.54 115.15 C 147.51 115.56 147.01 116.72 147.42 117.75 C 147.83 118.77 148.99 119.27 150.02 118.86 Z M 151.00 118.47 L 151.94 118.07 C 152.95 117.64 153.42 116.47 152.99 115.45 C 152.56 114.44 151.39 113.97 150.37 114.40 L 149.43 114.80 C 148.42 115.23 147.95 116.40 148.38 117.41 C 148.81 118.43 149.98 118.90 151.00 118.47 Z M 151.97 118.05 L 152.91 117.63 C 153.92 117.18 154.37 116.00 153.91 114.99 C 153.46 113.99 152.28 113.54 151.28 113.99 L 150.34 114.42 C 149.33 114.87 148.88 116.05 149.34 117.05 C 149.79 118.06 150.97 118.51 151.97 118.05 Z M 152.95 117.61 L 153.85 117.18 C 154.85 116.71 155.27 115.52 154.80 114.53 C 154.33 113.53 153.14 113.11 152.15 113.58 L 151.24 114.01 C 150.25 114.48 149.82 115.67 150.29 116.67 C 150.77 117.66 151.95 118.08 152.95 117.61 Z M 153.89 117.17 L 154.77 116.73 C 155.75 116.24 156.15 115.04 155.67 114.06 C 155.18 113.07 153.98 112.67 153.00 113.16 L 152.12 113.60 C 151.13 114.09 150.73 115.28 151.22 116.27 C 151.71 117.25 152.90 117.65 153.89 117.17 Z M 154.79 116.72 L 155.67 116.26 C 156.65 115.76 157.03 114.56 156.53 113.58 C 156.03 112.60 154.83 112.22 153.85 112.72 L 152.97 113.17 C 151.99 113.68 151.61 114.88 152.11 115.86 C 152.61 116.83 153.82 117.22 154.79 116.72 Z M 155.69 116.25 L 156.57 115.79 C 157.54 115.27 157.91 114.07 157.40 113.09 C 156.88 112.12 155.68 111.75 154.71 112.27 L 153.83 112.73 C 152.86 113.25 152.49 114.45 153.00 115.42 C 153.52 116.40 154.72 116.77 155.69 116.25 Z M 156.59 115.78 L 157.47 115.30 C 158.44 114.78 158.80 113.57 158.27 112.60 C 157.75 111.64 156.54 111.28 155.58 111.80 L 154.69 112.28 C 153.73 112.80 153.37 114.01 153.89 114.97 C 154.41 115.94 155.62 116.30 156.59 115.78 Z M 157.48 115.29 L 158.37 114.81 C 159.33 114.28 159.68 113.07 159.15 112.11 C 158.62 111.14 157.42 110.79 156.45 111.32 L 155.57 111.81 C 154.60 112.33 154.25 113.54 154.78 114.51 C 155.31 115.47 156.52 115.82 157.48 115.29 Z M 158.37 114.80 L 159.27 114.31 C 160.23 113.78 160.57 112.57 160.04 111.61 C 159.51 110.65 158.30 110.30 157.34 110.83 L 156.45 111.32 C 155.49 111.85 155.14 113.06 155.67 114.02 C 156.20 114.98 157.41 115.33 158.37 114.80 Z M 159.27 114.31 L 160.16 113.81 C 161.12 113.28 161.47 112.07 160.94 111.11 C 160.41 110.15 159.20 109.80 158.24 110.33 L 157.34 110.83 C 156.38 111.36 156.03 112.57 156.56 113.53 C 157.10 114.49 158.31 114.84 159.27 114.31 Z M 160.16 113.81 L 161.06 113.32 C 162.02 112.78 162.36 111.58 161.83 110.62 C 161.30 109.65 160.09 109.31 159.13 109.84 L 158.24 110.33 C 157.27 110.87 156.93 112.08 157.46 113.04 C 157.99 114.00 159.20 114.34 160.16 113.81 Z M 161.06 113.32 L 161.95 112.82 C 162.91 112.29 163.26 111.08 162.73 110.12 C 162.19 109.16 160.99 108.81 160.02 109.34 L 159.13 109.84 C 158.17 110.37 157.82 111.58 158.36 112.54 C 158.89 113.50 160.10 113.85 161.06 113.32 Z M 161.95 112.82 L 162.84 112.33 C 163.80 111.79 164.15 110.58 163.61 109.62 C 163.08 108.66 161.87 108.32 160.91 108.85 L 160.02 109.34 C 159.06 109.88 158.72 111.09 159.25 112.05 C 159.78 113.01 160.99 113.35 161.95 112.82 Z M 162.84 112.32 L 163.72 111.84 C 164.68 111.30 165.02 110.09 164.49 109.13 C 163.95 108.17 162.74 107.83 161.78 108.36 L 160.91 108.85 C 159.95 109.39 159.61 110.60 160.14 111.56 C 160.68 112.52 161.89 112.86 162.84 112.32 Z M 163.72 111.83 L 164.58 111.35 C 165.54 110.82 165.88 109.61 165.34 108.65 C 164.80 107.69 163.59 107.35 162.63 107.89 L 161.78 108.37 C 160.82 108.90 160.48 110.12 161.02 111.07 C 161.55 112.03 162.77 112.37 163.72 111.83 Z M 164.58 111.35 L 165.42 110.88 C 166.37 110.34 166.71 109.13 166.17 108.17 C 165.63 107.22 164.42 106.88 163.46 107.42 L 162.63 107.89 C 161.67 108.43 161.34 109.64 161.88 110.60 C 162.42 111.55 163.63 111.89 164.58 111.35 Z M 165.42 110.88 L 166.34 110.36 C 167.29 109.81 167.62 108.60 167.08 107.64 C 166.54 106.69 165.32 106.36 164.37 106.90 L 163.45 107.42 C 162.50 107.97 162.17 109.18 162.71 110.14 C 163.26 111.09 164.47 111.42 165.42 110.88 Z M 166.34 110.35 L 167.25 109.83 C 168.20 109.29 168.53 108.07 167.99 107.12 C 167.44 106.17 166.22 105.84 165.27 106.38 L 164.36 106.91 C 163.41 107.45 163.08 108.67 163.63 109.62 C 164.17 110.57 165.39 110.90 166.34 110.35 Z M 167.25 109.83 L 168.13 109.33 C 169.08 108.79 169.41 107.57 168.86 106.62 C 168.32 105.67 167.11 105.34 166.15 105.88 L 165.27 106.38 C 164.32 106.93 163.99 108.14 164.54 109.09 C 165.08 110.05 166.30 110.38 167.25 109.83 Z M 168.12 109.34 L 168.97 108.85 C 169.93 108.31 170.26 107.10 169.72 106.15 C 169.18 105.19 167.97 104.85 167.01 105.39 L 166.16 105.88 C 165.21 106.42 164.87 107.63 165.41 108.58 C 165.95 109.54 167.16 109.88 168.12 109.34 Z M 168.95 108.86 L 169.79 108.40 C 170.75 107.87 171.10 106.66 170.57 105.70 C 170.04 104.74 168.83 104.39 167.87 104.92 L 167.03 105.38 C 166.07 105.92 165.72 107.12 166.25 108.09 C 166.78 109.05 167.99 109.39 168.95 108.86 Z M 169.77 108.41 L 170.60 107.97 C 171.57 107.45 171.93 106.25 171.41 105.28 C 170.89 104.31 169.69 103.95 168.72 104.46 L 167.89 104.91 C 166.93 105.43 166.56 106.63 167.08 107.60 C 167.60 108.57 168.80 108.93 169.77 108.41 Z M 170.56 107.99 L 171.44 107.54 C 172.42 107.04 172.80 105.84 172.30 104.87 C 171.81 103.89 170.61 103.50 169.63 104.00 L 168.76 104.45 C 167.78 104.95 167.39 106.14 167.89 107.12 C 168.39 108.10 169.59 108.49 170.56 107.99 Z M 171.38 107.57 L 172.27 107.15 C 173.26 106.68 173.69 105.49 173.22 104.50 C 172.75 103.51 171.57 103.09 170.57 103.55 L 169.69 103.97 C 168.69 104.44 168.27 105.63 168.74 106.62 C 169.21 107.61 170.39 108.04 171.38 107.57 Z M 172.19 107.18 L 173.10 106.80 C 174.11 106.37 174.59 105.21 174.16 104.20 C 173.73 103.19 172.57 102.71 171.56 103.14 L 170.65 103.52 C 169.64 103.95 169.16 105.11 169.59 106.12 C 170.02 107.13 171.18 107.61 172.19 107.18 Z M 173.00 106.84 L 173.94 106.50 C 174.97 106.13 175.51 104.99 175.14 103.96 C 174.76 102.92 173.63 102.39 172.59 102.76 L 171.66 103.10 C 170.62 103.47 170.09 104.61 170.46 105.64 C 170.83 106.68 171.97 107.21 173.00 106.84 Z M 173.82 106.54 L 174.80 106.25 C 175.86 105.94 176.46 104.84 176.15 103.79 C 175.85 102.73 174.74 102.13 173.69 102.44 L 172.71 102.72 C 171.66 103.03 171.05 104.13 171.36 105.19 C 171.67 106.24 172.77 106.85 173.82 106.54 Z M 174.67 106.29 L 175.72 106.06 C 176.79 105.82 177.47 104.76 177.24 103.69 C 177.00 102.62 175.94 101.94 174.87 102.17 L 173.82 102.40 C 172.75 102.64 172.07 103.70 172.31 104.77 C 172.54 105.84 173.60 106.52 174.67 106.29 Z M 175.57 106.08 L 176.68 105.93 C 177.77 105.77 178.53 104.77 178.37 103.68 C 178.22 102.60 177.22 101.84 176.13 101.99 L 175.02 102.15 C 173.93 102.30 173.18 103.30 173.33 104.39 C 173.48 105.48 174.48 106.23 175.57 106.08 Z M 176.50 105.94 L 177.59 105.89 C 178.69 105.84 179.53 104.91 179.48 103.81 C 179.43 102.72 178.50 101.87 177.40 101.93 L 176.31 101.98 C 175.22 102.03 174.37 102.96 174.43 104.05 C 174.48 105.15 175.41 105.99 176.50 105.94 Z M 177.35 105.88 L 178.36 105.96 C 179.45 106.04 180.40 105.22 180.48 104.13 C 180.57 103.04 179.75 102.09 178.65 102.01 L 177.65 101.93 C 176.55 101.85 175.60 102.67 175.52 103.76 C 175.44 104.85 176.26 105.80 177.35 105.88 Z M 178.00 105.90 L 178.87 106.13 C 179.92 106.41 181.01 105.77 181.29 104.72 C 181.56 103.66 180.93 102.57 179.87 102.30 L 179.01 102.07 C 177.95 101.79 176.87 102.42 176.59 103.48 C 176.31 104.54 176.94 105.62 178.00 105.90 Z M 178.34 105.90 L 179.00 106.30 C 179.93 106.87 181.15 106.58 181.72 105.64 C 182.29 104.71 181.99 103.49 181.06 102.92 L 180.40 102.52 C 179.47 101.95 178.25 102.25 177.68 103.18 C 177.11 104.11 177.41 105.33 178.34 105.90 Z M 178.41 105.76 L 178.81 106.32 C 179.44 107.21 180.68 107.42 181.57 106.79 C 182.46 106.16 182.67 104.92 182.04 104.03 L 181.64 103.47 C 181.01 102.58 179.78 102.36 178.88 103.00 C 177.99 103.63 177.78 104.86 178.41 105.76 Z M 178.50 105.65 L 178.68 106.39 C 178.94 107.45 180.01 108.10 181.08 107.84 C 182.14 107.58 182.79 106.51 182.53 105.45 L 182.35 104.71 C 182.09 103.64 181.02 102.99 179.96 103.25 C 178.89 103.51 178.24 104.58 178.50 105.65 Z M 178.62 105.87 L 178.60 106.79 C 178.58 107.88 179.45 108.79 180.54 108.82 C 181.64 108.84 182.55 107.97 182.57 106.88 L 182.59 105.96 C 182.62 104.87 181.75 103.96 180.65 103.93 C 179.56 103.91 178.65 104.78 178.62 105.87 Z M 178.64 106.46 L 178.43 107.55 C 178.23 108.63 178.93 109.67 180.01 109.87 C 181.09 110.07 182.13 109.37 182.33 108.29 L 182.54 107.20 C 182.74 106.12 182.03 105.08 180.96 104.88 C 179.88 104.68 178.84 105.38 178.64 106.46 Z M 178.48 107.35 L 178.10 108.61 C 177.79 109.66 178.39 110.77 179.44 111.08 C 180.49 111.39 181.60 110.79 181.91 109.74 L 182.29 108.49 C 182.60 107.43 182.00 106.33 180.95 106.01 C 179.90 105.70 178.79 106.30 178.48 107.35 Z M 178.14 108.50 L 177.75 109.56 C 177.38 110.59 177.91 111.73 178.95 112.11 C 179.98 112.48 181.12 111.94 181.50 110.91 L 181.88 109.85 C 182.25 108.82 181.72 107.68 180.69 107.30 C 179.65 106.93 178.51 107.46 178.14 108.50 Z M 177.77 109.50 L 177.44 110.34 C 177.03 111.36 177.53 112.52 178.56 112.93 C 179.58 113.33 180.74 112.83 181.14 111.81 L 181.48 110.97 C 181.88 109.95 181.38 108.79 180.36 108.38 C 179.34 107.98 178.18 108.48 177.77 109.50 Z M 177.45 110.31 L 177.08 111.19 C 176.66 112.20 177.14 113.37 178.15 113.79 C 179.16 114.22 180.33 113.74 180.76 112.73 L 181.13 111.85 C 181.55 110.83 181.07 109.67 180.06 109.24 C 179.05 108.81 177.88 109.29 177.45 110.31 Z M 177.10 111.16 L 176.70 112.07 C 176.26 113.08 176.72 114.25 177.73 114.69 C 178.73 115.13 179.91 114.67 180.35 113.67 L 180.75 112.75 C 181.19 111.75 180.73 110.57 179.72 110.13 C 178.71 109.69 177.54 110.15 177.10 111.16 Z M 176.71 112.05 L 176.29 112.99 C 175.83 113.99 176.28 115.17 177.28 115.62 C 178.29 116.07 179.46 115.62 179.92 114.62 L 180.34 113.69 C 180.79 112.69 180.34 111.51 179.34 111.05 C 178.34 110.60 177.16 111.05 176.71 112.05 Z M 176.29 112.97 L 175.86 113.92 C 175.40 114.92 175.83 116.10 176.83 116.56 C 177.83 117.02 179.01 116.58 179.47 115.58 L 179.91 114.64 C 180.37 113.64 179.93 112.46 178.94 112.00 C 177.94 111.53 176.75 111.97 176.29 112.97 Z M 175.86 113.91 L 175.42 114.86 C 174.95 115.85 175.38 117.04 176.37 117.50 C 177.37 117.97 178.55 117.54 179.02 116.55 L 179.47 115.60 C 179.93 114.60 179.51 113.41 178.51 112.95 C 177.51 112.48 176.33 112.91 175.86 113.91 Z M 175.42 114.85 L 174.97 115.80 C 174.50 116.79 174.92 117.98 175.92 118.45 C 176.91 118.92 178.10 118.50 178.57 117.50 L 179.02 116.55 C 179.49 115.56 179.06 114.37 178.07 113.90 C 177.08 113.43 175.89 113.86 175.42 114.85 Z M 174.97 115.79 L 174.53 116.73 C 174.05 117.72 174.47 118.91 175.47 119.38 C 176.46 119.86 177.65 119.44 178.12 118.44 L 178.57 117.51 C 179.04 116.51 178.62 115.33 177.63 114.85 C 176.63 114.38 175.44 114.80 174.97 115.79 Z M 174.53 116.73 L 174.09 117.65 C 173.62 118.64 174.04 119.83 175.03 120.30 C 176.02 120.77 177.21 120.35 177.68 119.36 L 178.12 118.44 C 178.59 117.45 178.17 116.26 177.18 115.79 C 176.19 115.32 175.00 115.74 174.53 116.73 Z M 174.09 117.65 L 173.67 118.54 C 173.20 119.53 173.62 120.72 174.61 121.19 C 175.61 121.66 176.79 121.24 177.26 120.24 L 177.68 119.36 C 178.16 118.36 177.73 117.18 176.74 116.70 C 175.75 116.23 174.56 116.66 174.09 117.65 Z M 173.66 118.54 L 173.26 119.40 C 172.79 120.40 173.21 121.58 174.21 122.05 C 175.20 122.52 176.39 122.10 176.86 121.10 L 177.27 120.24 C 177.74 119.24 177.31 118.06 176.31 117.59 C 175.32 117.12 174.13 117.55 173.66 118.54 Z M 173.26 119.40 L 172.86 120.25 C 172.39 121.25 172.82 122.43 173.81 122.90 C 174.81 123.37 175.99 122.94 176.46 121.95 L 176.86 121.10 C 177.33 120.10 176.90 118.92 175.91 118.45 C 174.91 117.98 173.72 118.41 173.26 119.40 Z M 172.86 120.25 L 172.46 121.09 C 171.99 122.09 172.42 123.28 173.42 123.74 C 174.41 124.21 175.60 123.78 176.07 122.79 L 176.46 121.95 C 176.93 120.95 176.50 119.76 175.51 119.30 C 174.51 118.83 173.33 119.26 172.86 120.25 Z M 172.46 121.09 L 172.06 121.94 C 171.59 122.94 172.02 124.12 173.02 124.59 C 174.01 125.06 175.20 124.63 175.67 123.64 L 176.07 122.79 C 176.53 121.80 176.11 120.61 175.11 120.14 C 174.12 119.67 172.93 120.10 172.46 121.09 Z M 172.06 121.94 L 171.65 122.81 C 171.18 123.80 171.61 124.99 172.60 125.46 C 173.60 125.93 174.78 125.50 175.25 124.51 L 175.66 123.64 C 176.13 122.65 175.71 121.46 174.72 120.99 C 173.72 120.52 172.53 120.95 172.06 121.94 Z M 171.66 122.80 L 171.23 123.69 C 170.76 124.69 171.18 125.87 172.17 126.35 C 173.17 126.82 174.35 126.40 174.83 125.41 L 175.25 124.51 C 175.73 123.52 175.30 122.33 174.31 121.86 C 173.32 121.39 172.13 121.81 171.66 122.80 Z M 171.23 123.69 L 170.79 124.62 C 170.31 125.61 170.73 126.80 171.72 127.27 C 172.71 127.75 173.90 127.33 174.38 126.34 L 174.82 125.41 C 175.30 124.42 174.88 123.23 173.89 122.75 C 172.90 122.28 171.71 122.70 171.23 123.69 Z M 170.79 124.61 L 170.32 125.59 C 169.84 126.57 170.25 127.77 171.24 128.25 C 172.23 128.73 173.42 128.31 173.90 127.33 L 174.37 126.35 C 174.85 125.36 174.44 124.17 173.45 123.69 C 172.46 123.21 171.27 123.62 170.79 124.61 Z M 170.32 125.58 L 169.81 126.61 C 169.33 127.60 169.74 128.79 170.72 129.28 C 171.71 129.76 172.90 129.35 173.39 128.37 L 173.90 127.33 C 174.38 126.35 173.97 125.15 172.99 124.67 C 172.00 124.18 170.81 124.59 170.32 125.58 Z M 169.82 126.61 L 169.39 127.47 C 168.90 128.45 169.30 129.65 170.29 130.14 C 171.27 130.62 172.47 130.22 172.96 129.24 L 173.38 128.37 C 173.87 127.39 173.47 126.19 172.49 125.71 C 171.50 125.22 170.31 125.62 169.82 126.61 Z M 169.39 127.46 L 168.98 128.30 C 168.48 129.28 168.88 130.48 169.87 130.97 C 170.85 131.46 172.04 131.06 172.54 130.08 L 172.95 129.24 C 173.44 128.26 173.05 127.06 172.06 126.57 C 171.08 126.08 169.88 126.48 169.39 127.46 Z M 168.98 128.29 L 168.54 129.16 C 168.05 130.14 168.45 131.33 169.43 131.83 C 170.41 132.32 171.61 131.93 172.10 130.94 L 172.53 130.08 C 173.03 129.10 172.63 127.90 171.65 127.41 C 170.67 126.92 169.47 127.31 168.98 128.29 Z M 168.55 129.15 L 168.10 130.04 C 167.60 131.02 167.99 132.22 168.97 132.71 C 169.96 133.21 171.15 132.82 171.65 131.84 L 172.10 130.95 C 172.59 129.97 172.20 128.77 171.22 128.28 C 170.24 127.78 169.04 128.17 168.55 129.15 Z M 168.10 130.04 L 167.64 130.94 C 167.14 131.92 167.53 133.12 168.51 133.62 C 169.49 134.11 170.69 133.72 171.19 132.74 L 171.65 131.84 C 172.14 130.86 171.75 129.66 170.77 129.16 C 169.80 128.67 168.60 129.06 168.10 130.04 Z M 167.64 130.94 L 167.17 131.86 C 166.67 132.83 167.06 134.03 168.04 134.53 C 169.02 135.03 170.21 134.64 170.71 133.67 L 171.18 132.75 C 171.68 131.77 171.30 130.57 170.32 130.07 C 169.34 129.57 168.14 129.96 167.64 130.94 Z M 167.18 131.85 L 166.70 132.78 C 166.20 133.76 166.58 134.95 167.56 135.46 C 168.54 135.96 169.74 135.57 170.24 134.59 L 170.71 133.67 C 171.21 132.69 170.83 131.49 169.85 130.99 C 168.87 130.49 167.68 130.88 167.18 131.85 Z M 166.70 132.78 L 166.22 133.71 C 165.72 134.68 166.10 135.88 167.08 136.38 C 168.05 136.89 169.25 136.50 169.76 135.53 L 170.23 134.60 C 170.74 133.62 170.35 132.42 169.38 131.92 C 168.40 131.42 167.20 131.80 166.70 132.78 Z M 166.23 133.70 L 165.75 134.63 C 165.24 135.60 165.62 136.80 166.60 137.31 C 167.57 137.81 168.77 137.43 169.27 136.46 L 169.75 135.53 C 170.26 134.55 169.88 133.36 168.90 132.85 C 167.93 132.35 166.73 132.73 166.23 133.70 Z M 165.75 134.63 L 165.27 135.55 C 164.76 136.52 165.14 137.72 166.12 138.22 C 167.09 138.73 168.29 138.35 168.79 137.38 L 169.27 136.46 C 169.78 135.49 169.40 134.29 168.43 133.78 C 167.45 133.27 166.25 133.65 165.75 134.63 Z M 165.27 135.54 L 164.80 136.45 C 164.29 137.42 164.67 138.62 165.64 139.13 C 166.61 139.64 167.81 139.26 168.32 138.29 L 168.79 137.38 C 169.30 136.41 168.92 135.21 167.95 134.70 C 166.98 134.19 165.78 134.57 165.27 135.54 Z M 164.80 136.45 L 164.33 137.34 C 163.83 138.31 164.20 139.51 165.17 140.02 C 166.14 140.53 167.34 140.15 167.85 139.18 L 168.32 138.29 C 168.83 137.32 168.45 136.12 167.48 135.61 C 166.51 135.10 165.31 135.48 164.80 136.45 Z M 164.34 137.33 L 163.88 138.20 C 163.37 139.17 163.74 140.37 164.71 140.88 C 165.68 141.39 166.88 141.02 167.39 140.05 L 167.85 139.18 C 168.36 138.21 167.99 137.01 167.02 136.50 C 166.05 135.99 164.85 136.36 164.34 137.33 Z M 163.88 138.20 L 163.41 139.10 C 162.90 140.06 163.27 141.26 164.23 141.78 C 165.20 142.29 166.40 141.92 166.91 140.95 L 167.39 140.05 C 167.90 139.08 167.53 137.88 166.56 137.37 C 165.60 136.86 164.39 137.23 163.88 138.20 Z M 163.41 139.09 L 162.87 140.10 C 162.36 141.07 162.73 142.27 163.69 142.78 C 164.66 143.30 165.86 142.93 166.37 141.97 L 166.91 140.95 C 167.42 139.99 167.06 138.79 166.09 138.27 C 165.13 137.76 163.93 138.13 163.41 139.09 Z M 162.88 140.10 L 162.36 141.07 C 161.85 142.03 162.21 143.23 163.17 143.75 C 164.13 144.26 165.33 143.90 165.85 142.94 L 166.37 141.97 C 166.88 141.01 166.52 139.81 165.56 139.29 C 164.59 138.78 163.40 139.14 162.88 140.10 Z M 162.37 141.07 L 161.87 142.00 C 161.35 142.96 161.71 144.15 162.67 144.67 C 163.63 145.19 164.82 144.83 165.34 143.87 L 165.84 142.94 C 166.36 141.98 166.00 140.78 165.04 140.27 C 164.08 139.75 162.88 140.11 162.37 141.07 Z M 161.87 141.99 L 161.39 142.89 C 160.87 143.85 161.22 145.04 162.18 145.56 C 163.13 146.08 164.33 145.72 164.85 144.77 L 165.33 143.87 C 165.85 142.92 165.50 141.72 164.54 141.20 C 163.59 140.68 162.39 141.04 161.87 141.99 Z M 161.39 142.89 L 160.92 143.75 C 160.40 144.71 160.75 145.90 161.70 146.42 C 162.65 146.94 163.85 146.59 164.37 145.64 L 164.84 144.77 C 165.36 143.82 165.01 142.62 164.06 142.10 C 163.11 141.58 161.91 141.93 161.39 142.89 Z M 160.92 143.75 L 160.46 144.60 C 159.94 145.55 160.29 146.74 161.23 147.26 C 162.18 147.78 163.38 147.43 163.90 146.49 L 164.36 145.64 C 164.88 144.69 164.54 143.50 163.59 142.98 C 162.64 142.46 161.45 142.80 160.92 143.75 Z M 160.47 144.59 L 160.01 145.42 C 159.49 146.37 159.83 147.56 160.78 148.08 C 161.72 148.60 162.91 148.26 163.43 147.31 L 163.89 146.49 C 164.41 145.54 164.07 144.35 163.13 143.83 C 162.18 143.31 160.99 143.65 160.47 144.59 Z M 160.02 145.42 L 159.56 146.23 C 159.04 147.17 159.38 148.36 160.32 148.89 C 161.26 149.41 162.45 149.07 162.98 148.13 L 163.43 147.32 C 163.95 146.37 163.61 145.18 162.67 144.66 C 161.73 144.14 160.54 144.48 160.02 145.42 Z M 159.57 146.23 L 159.12 147.03 C 158.59 147.97 158.93 149.16 159.87 149.68 C 160.81 150.21 162.00 149.87 162.52 148.94 L 162.97 148.13 C 163.50 147.19 163.16 146.00 162.22 145.48 C 161.28 144.95 160.09 145.29 159.57 146.23 Z M 159.12 147.03 L 158.68 147.83 C 158.15 148.77 158.48 149.95 159.42 150.48 C 160.35 151.01 161.54 150.67 162.07 149.74 L 162.52 148.94 C 163.04 148.00 162.71 146.81 161.77 146.29 C 160.84 145.76 159.65 146.09 159.12 147.03 Z M 158.68 147.83 L 158.19 148.70 C 157.66 149.63 157.99 150.82 158.93 151.34 C 159.86 151.87 161.04 151.54 161.57 150.61 L 162.06 149.74 C 162.59 148.80 162.26 147.62 161.32 147.09 C 160.39 146.57 159.21 146.90 158.68 147.83 Z M 158.20 148.70 L 157.67 149.63 C 157.15 150.56 157.47 151.74 158.40 152.26 C 159.33 152.79 160.51 152.46 161.04 151.53 L 161.56 150.61 C 162.09 149.68 161.76 148.50 160.83 147.97 C 159.90 147.44 158.72 147.77 158.20 148.70 Z M 157.68 149.63 L 157.15 150.55 C 156.63 151.47 156.95 152.65 157.88 153.18 C 158.80 153.71 159.98 153.38 160.51 152.45 L 161.03 151.53 C 161.56 150.61 161.24 149.43 160.31 148.90 C 159.38 148.37 158.21 148.70 157.68 149.63 Z M 157.16 150.55 L 156.64 151.46 C 156.11 152.38 156.43 153.56 157.36 154.09 C 158.28 154.61 159.46 154.29 159.98 153.37 L 160.50 152.45 C 161.03 151.53 160.71 150.36 159.79 149.83 C 158.86 149.30 157.69 149.62 157.16 150.55 Z M 156.65 151.46 L 156.13 152.36 C 155.60 153.28 155.92 154.45 156.84 154.98 C 157.76 155.50 158.94 155.19 159.46 154.27 L 159.98 153.37 C 160.50 152.45 160.18 151.27 159.26 150.75 C 158.34 150.22 157.17 150.54 156.65 151.46 Z M 156.14 152.36 L 155.63 153.24 C 155.11 154.15 155.42 155.32 156.34 155.85 C 157.26 156.38 158.43 156.06 158.95 155.14 L 159.46 154.26 C 159.98 153.35 159.67 152.18 158.75 151.65 C 157.83 151.13 156.66 151.44 156.14 152.36 Z M 155.64 153.24 L 155.15 154.09 C 154.62 155.01 154.94 156.17 155.85 156.70 C 156.76 157.22 157.93 156.91 158.45 156.00 L 158.95 155.14 C 159.47 154.23 159.16 153.06 158.24 152.54 C 157.33 152.01 156.16 152.33 155.64 153.24 Z M 155.15 154.09 L 154.68 154.92 C 154.15 155.83 154.47 156.99 155.38 157.52 C 156.29 158.04 157.45 157.73 157.97 156.82 L 158.45 156.00 C 158.97 155.09 158.66 153.92 157.75 153.40 C 156.84 152.87 155.68 153.18 155.15 154.09 Z M 154.68 154.92 L 154.23 155.70 C 153.70 156.61 154.01 157.77 154.92 158.30 C 155.83 158.82 156.99 158.51 157.51 157.60 L 157.97 156.82 C 158.49 155.91 158.18 154.75 157.28 154.23 C 156.37 153.70 155.21 154.01 154.68 154.92 Z M 154.24 155.70 L 153.77 156.51 C 153.25 157.41 153.55 158.57 154.46 159.09 C 155.36 159.61 156.52 159.31 157.04 158.40 L 157.51 157.60 C 158.03 156.70 157.72 155.54 156.82 155.02 C 155.92 154.49 154.76 154.80 154.24 155.70 Z M 153.78 156.51 L 153.24 157.42 C 152.72 158.32 153.02 159.48 153.92 160.00 C 154.82 160.52 155.97 160.22 156.50 159.32 L 157.03 158.40 C 157.56 157.50 157.25 156.35 156.35 155.83 C 155.46 155.30 154.30 155.61 153.78 156.51 Z M 153.26 157.42 L 152.75 158.29 C 152.23 159.18 152.52 160.33 153.42 160.85 C 154.31 161.37 155.46 161.08 155.98 160.18 L 156.49 159.32 C 157.01 158.43 156.71 157.28 155.82 156.76 C 154.93 156.23 153.78 156.53 153.26 157.42 Z M 152.76 158.28 L 152.27 159.11 C 151.75 160.00 152.04 161.14 152.92 161.67 C 153.80 162.19 154.95 161.90 155.47 161.02 L 155.97 160.19 C 156.49 159.30 156.20 158.16 155.32 157.63 C 154.43 157.11 153.29 157.40 152.76 158.28 Z M 152.29 159.11 L 151.79 159.92 C 151.27 160.80 151.55 161.94 152.42 162.46 C 153.30 162.99 154.44 162.71 154.97 161.83 L 155.46 161.02 C 155.99 160.14 155.70 159.01 154.83 158.48 C 153.95 157.95 152.81 158.23 152.29 159.11 Z M 151.81 159.91 L 151.31 160.73 C 150.78 161.60 151.05 162.74 151.92 163.27 C 152.78 163.80 153.92 163.53 154.45 162.66 L 154.95 161.84 C 155.48 160.97 155.21 159.84 154.34 159.31 C 153.48 158.78 152.34 159.05 151.81 159.91 Z M 151.32 160.73 L 150.80 161.57 C 150.26 162.43 150.52 163.56 151.38 164.10 C 152.24 164.63 153.37 164.37 153.91 163.51 L 154.43 162.67 C 154.97 161.81 154.71 160.68 153.85 160.14 C 152.99 159.61 151.86 159.87 151.32 160.73 Z M 150.81 161.57 L 150.27 162.42 C 149.73 163.27 149.98 164.40 150.83 164.94 C 151.68 165.48 152.81 165.22 153.35 164.37 L 153.89 163.52 C 154.43 162.67 154.18 161.54 153.33 161.00 C 152.48 160.46 151.35 160.72 150.81 161.57 Z M 150.28 162.41 L 149.80 163.17 C 149.26 164.01 149.50 165.13 150.34 165.68 C 151.19 166.22 152.31 165.97 152.85 165.13 L 153.34 164.38 C 153.88 163.54 153.64 162.41 152.79 161.87 C 151.95 161.33 150.82 161.57 150.28 162.41 Z M 149.81 163.16 L 149.30 163.94 C 148.75 164.78 148.99 165.91 149.83 166.45 C 150.66 167.00 151.79 166.76 152.33 165.92 L 152.84 165.14 C 153.39 164.30 153.15 163.18 152.31 162.63 C 151.48 162.08 150.35 162.32 149.81 163.16 Z M 149.30 163.94 L 148.77 164.75 C 148.22 165.58 148.45 166.71 149.29 167.25 C 150.12 167.80 151.24 167.57 151.79 166.74 L 152.32 165.93 C 152.87 165.09 152.64 163.97 151.81 163.42 C 150.98 162.87 149.85 163.10 149.30 163.94 Z M 148.78 164.75 L 148.22 165.58 C 147.67 166.41 147.90 167.53 148.72 168.08 C 149.55 168.63 150.67 168.41 151.22 167.58 L 151.78 166.74 C 152.33 165.92 152.11 164.80 151.28 164.24 C 150.45 163.69 149.33 163.92 148.78 164.75 Z M 148.23 165.57 L 147.66 166.43 C 147.10 167.25 147.32 168.37 148.14 168.92 C 148.97 169.48 150.09 169.26 150.64 168.44 L 151.22 167.58 C 151.77 166.76 151.55 165.64 150.73 165.09 C 149.91 164.53 148.79 164.75 148.23 165.57 Z M 147.67 166.42 L 147.08 167.28 C 146.52 168.10 146.73 169.22 147.55 169.78 C 148.37 170.33 149.49 170.12 150.05 169.30 L 150.63 168.44 C 151.19 167.62 150.98 166.51 150.16 165.95 C 149.34 165.39 148.23 165.60 147.67 166.42 Z M 147.09 167.28 L 146.49 168.14 C 145.93 168.96 146.13 170.07 146.95 170.63 C 147.76 171.20 148.87 170.99 149.44 170.18 L 150.04 169.31 C 150.60 168.50 150.39 167.38 149.58 166.82 C 148.77 166.26 147.65 166.46 147.09 167.28 Z M 146.50 168.14 L 145.89 169.01 C 145.33 169.81 145.52 170.93 146.33 171.49 C 147.14 172.06 148.25 171.86 148.82 171.05 L 149.43 170.18 C 149.99 169.38 149.80 168.26 148.99 167.70 C 148.18 167.13 147.06 167.33 146.50 168.14 Z M 145.90 169.00 L 145.30 169.85 C 144.73 170.65 144.92 171.77 145.72 172.33 C 146.52 172.90 147.64 172.71 148.21 171.91 L 148.81 171.06 C 149.38 170.26 149.19 169.15 148.39 168.58 C 147.58 168.01 146.47 168.20 145.90 169.00 Z M 145.31 169.85 L 144.72 170.67 C 144.15 171.46 144.33 172.57 145.12 173.15 C 145.92 173.72 147.03 173.54 147.60 172.74 L 148.19 171.92 C 148.76 171.12 148.58 170.01 147.79 169.44 C 146.99 168.87 145.88 169.05 145.31 169.85 Z M 144.73 170.66 L 144.14 171.48 C 143.56 172.27 143.74 173.37 144.53 173.95 C 145.31 174.52 146.42 174.35 146.99 173.56 L 147.59 172.74 C 148.16 171.96 147.99 170.85 147.20 170.28 C 146.41 169.70 145.31 169.88 144.73 170.66 Z M 144.15 171.48 L 143.55 172.29 C 142.98 173.07 143.14 174.17 143.92 174.74 C 144.70 175.32 145.81 175.16 146.38 174.37 L 146.98 173.57 C 147.56 172.78 147.39 171.68 146.61 171.11 C 145.83 170.53 144.73 170.70 144.15 171.48 Z M 143.57 172.28 L 142.97 173.08 C 142.39 173.86 142.55 174.95 143.32 175.53 C 144.09 176.11 145.19 175.95 145.77 175.18 L 146.37 174.38 C 146.95 173.60 146.79 172.51 146.02 171.93 C 145.24 171.35 144.15 171.51 143.57 172.28 Z M 142.98 173.08 L 142.38 173.88 C 141.80 174.64 141.95 175.74 142.71 176.32 C 143.48 176.90 144.57 176.75 145.15 175.98 L 145.76 175.18 C 146.34 174.42 146.19 173.32 145.42 172.74 C 144.65 172.16 143.56 172.31 142.98 173.08 Z M 142.39 173.87 L 141.78 174.66 C 141.20 175.42 141.35 176.51 142.10 177.09 C 142.86 177.68 143.95 177.53 144.54 176.77 L 145.14 175.98 C 145.72 175.22 145.58 174.13 144.82 173.55 C 144.06 172.97 142.97 173.11 142.39 173.87 Z M 141.80 174.66 L 141.19 175.44 C 140.60 176.19 140.74 177.28 141.49 177.86 C 142.25 178.45 143.33 178.31 143.92 177.56 L 144.52 176.77 C 145.11 176.02 144.97 174.94 144.22 174.35 C 143.47 173.77 142.38 173.91 141.80 174.66 Z M 141.20 175.44 L 140.59 176.22 C 140.01 176.96 140.13 178.04 140.88 178.63 C 141.63 179.21 142.71 179.08 143.29 178.34 L 143.90 177.56 C 144.49 176.81 144.36 175.74 143.61 175.15 C 142.87 174.56 141.79 174.69 141.20 175.44 Z M 140.60 176.21 L 139.98 177.00 C 139.39 177.74 139.51 178.81 140.25 179.40 C 140.99 179.99 142.07 179.87 142.66 179.13 L 143.28 178.34 C 143.87 177.60 143.74 176.53 143.00 175.94 C 142.27 175.35 141.19 175.48 140.60 176.21 Z M 139.99 177.00 L 139.33 177.83 C 138.74 178.56 138.85 179.63 139.59 180.22 C 140.32 180.81 141.39 180.69 141.98 179.96 L 142.64 179.13 C 143.23 178.40 143.11 177.33 142.38 176.74 C 141.65 176.15 140.58 176.27 139.99 177.00 Z M 139.34 177.83 L 138.67 178.64 C 138.08 179.37 138.19 180.43 138.92 181.02 C 139.64 181.61 140.71 181.50 141.30 180.78 L 141.96 179.96 C 142.55 179.24 142.44 178.17 141.72 177.58 C 140.99 176.99 139.93 177.10 139.34 177.83 Z M 138.69 178.64 L 138.02 179.45 C 137.43 180.16 137.54 181.22 138.25 181.81 C 138.97 182.40 140.03 182.30 140.62 181.58 L 141.28 180.78 C 141.87 180.06 141.77 179.00 141.05 178.41 C 140.34 177.82 139.28 177.93 138.69 178.64 Z M 138.04 179.44 L 137.38 180.23 C 136.79 180.94 136.89 181.99 137.59 182.58 C 138.30 183.18 139.36 183.08 139.95 182.37 L 140.60 181.59 C 141.20 180.88 141.10 179.82 140.39 179.23 C 139.68 178.64 138.63 178.74 138.04 179.44 Z M 137.40 180.23 L 136.75 180.99 C 136.16 181.69 136.24 182.74 136.94 183.34 C 137.65 183.93 138.69 183.84 139.29 183.14 L 139.93 182.38 C 140.53 181.67 140.44 180.63 139.74 180.03 C 139.04 179.44 137.99 179.53 137.40 180.23 Z M 136.76 180.99 L 136.13 181.73 C 135.54 182.42 135.62 183.47 136.31 184.06 C 137.00 184.65 138.04 184.57 138.64 183.88 L 139.27 183.14 C 139.87 182.45 139.79 181.41 139.09 180.81 C 138.40 180.22 137.36 180.30 136.76 180.99 Z M 136.15 181.73 L 135.53 182.44 C 134.93 183.12 135.00 184.16 135.68 184.75 C 136.37 185.35 137.40 185.28 138.00 184.60 L 138.62 183.89 C 139.22 183.20 139.15 182.17 138.46 181.57 C 137.78 180.97 136.74 181.04 136.15 181.73 Z M 135.54 182.43 L 134.94 183.11 C 134.34 183.79 134.40 184.82 135.08 185.42 C 135.75 186.01 136.78 185.95 137.38 185.28 L 137.98 184.60 C 138.58 183.93 138.52 182.89 137.85 182.30 C 137.17 181.70 136.14 181.76 135.54 182.43 Z M 134.96 183.10 L 134.23 183.91 C 133.62 184.57 133.67 185.60 134.34 186.20 C 135.00 186.81 136.03 186.76 136.63 186.09 L 137.36 185.29 C 137.97 184.62 137.92 183.60 137.25 182.99 C 136.59 182.39 135.56 182.44 134.96 183.10 Z M 134.25 183.90 L 133.51 184.70 C 132.90 185.35 132.93 186.37 133.58 186.98 C 134.23 187.59 135.26 187.55 135.87 186.90 L 136.61 186.10 C 137.22 185.45 137.18 184.43 136.53 183.82 C 135.88 183.21 134.86 183.25 134.25 183.90 Z M 133.53 184.68 L 132.81 185.42 C 132.20 186.06 132.21 187.08 132.85 187.69 C 133.49 188.31 134.51 188.29 135.12 187.66 L 135.84 186.92 C 136.46 186.28 136.44 185.26 135.80 184.64 C 135.16 184.03 134.15 184.04 133.53 184.68 Z M 132.84 185.40 L 132.15 186.10 C 131.52 186.72 131.52 187.73 132.14 188.36 C 132.76 188.98 133.78 188.99 134.40 188.36 L 135.10 187.67 C 135.72 187.05 135.73 186.04 135.10 185.41 C 134.48 184.78 133.47 184.78 132.84 185.40 Z M 132.18 186.08 L 131.50 186.73 C 130.86 187.33 130.84 188.34 131.45 188.97 C 132.05 189.61 133.06 189.63 133.69 189.03 L 134.37 188.38 C 135.01 187.77 135.03 186.77 134.43 186.13 C 133.82 185.50 132.81 185.47 132.18 186.08 Z M 131.53 186.71 L 130.86 187.32 C 130.21 187.91 130.17 188.91 130.76 189.55 C 131.35 190.20 132.35 190.25 132.99 189.66 L 133.66 189.05 C 134.31 188.46 134.36 187.46 133.77 186.81 C 133.18 186.16 132.18 186.12 131.53 186.71 Z M 130.89 187.30 L 130.17 187.92 C 129.51 188.50 129.44 189.49 130.01 190.15 C 130.58 190.81 131.58 190.88 132.24 190.31 L 132.96 189.68 C 133.62 189.11 133.69 188.11 133.12 187.45 C 132.55 186.80 131.55 186.73 130.89 187.30 Z M 130.20 187.90 L 129.41 188.55 C 128.74 189.10 128.65 190.10 129.20 190.77 C 129.75 191.44 130.75 191.53 131.42 190.98 L 132.20 190.33 C 132.87 189.78 132.97 188.78 132.42 188.11 C 131.86 187.45 130.87 187.35 130.20 187.90 Z M 129.44 188.53 L 128.65 189.15 C 127.97 189.69 127.86 190.68 128.39 191.36 C 128.93 192.04 129.92 192.16 130.60 191.62 L 131.39 191.00 C 132.07 190.46 132.18 189.47 131.65 188.79 C 131.11 188.11 130.12 188.00 129.44 188.53 Z M 128.68 189.14 L 127.89 189.74 C 127.20 190.27 127.07 191.25 127.59 191.94 C 128.12 192.63 129.10 192.76 129.79 192.23 L 130.58 191.63 C 131.27 191.11 131.40 190.12 130.87 189.44 C 130.35 188.75 129.36 188.62 128.68 189.14 Z M 127.90 189.73 L 127.12 190.32 C 126.42 190.84 126.28 191.82 126.80 192.51 C 127.31 193.20 128.29 193.35 128.99 192.83 L 129.77 192.24 C 130.47 191.73 130.61 190.75 130.09 190.05 C 129.58 189.36 128.60 189.22 127.90 189.73 Z M 127.12 190.32 L 126.46 190.81 C 125.77 191.32 125.62 192.30 126.13 192.99 C 126.65 193.68 127.62 193.83 128.32 193.32 L 128.98 192.83 C 129.67 192.32 129.82 191.34 129.31 190.65 C 128.80 189.95 127.82 189.81 127.12 190.32 Z"
      fill="black"
      fill-rule="nonzero" /><path d="M 76.87 207.36 L 77.85 207.12 C 78.75 206.89 79.29 205.98 79.07 205.08 C 78.85 204.18 77.93 203.63 77.03 203.86 L 76.05 204.10 C 75.15 204.33 74.60 205.24 74.83 206.14 C 75.05 207.04 75.96 207.59 76.87 207.36 Z M 77.85 207.15 L 78.83 206.90 C 79.74 206.68 80.30 205.76 80.08 204.84 C 79.85 203.93 78.93 203.37 78.01 203.59 L 77.03 203.83 C 76.12 204.06 75.56 204.98 75.78 205.89 C 76.01 206.81 76.93 207.37 77.85 207.15 Z M 78.82 206.93 L 79.80 206.70 C 80.73 206.48 81.30 205.55 81.08 204.62 C 80.86 203.69 79.93 203.11 79.00 203.33 L 78.02 203.56 C 77.09 203.78 76.51 204.72 76.73 205.65 C 76.95 206.58 77.89 207.15 78.82 206.93 Z M 79.78 206.73 L 80.75 206.51 C 81.70 206.30 82.29 205.36 82.08 204.41 C 81.87 203.46 80.93 202.87 79.98 203.08 L 79.01 203.30 C 78.06 203.52 77.47 204.46 77.68 205.40 C 77.90 206.35 78.84 206.94 79.78 206.73 Z M 80.73 206.54 L 81.70 206.34 C 82.66 206.14 83.28 205.19 83.08 204.23 C 82.88 203.27 81.93 202.65 80.97 202.85 L 80.00 203.05 C 79.04 203.25 78.42 204.20 78.62 205.16 C 78.83 206.12 79.77 206.74 80.73 206.54 Z M 81.67 206.36 L 82.64 206.18 C 83.62 206.00 84.26 205.05 84.07 204.08 C 83.89 203.10 82.95 202.46 81.97 202.64 L 81.00 202.82 C 80.02 203.01 79.38 203.95 79.56 204.93 C 79.75 205.91 80.69 206.55 81.67 206.36 Z M 82.60 206.20 L 83.58 206.04 C 84.56 205.87 85.23 204.94 85.06 203.95 C 84.90 202.96 83.96 202.29 82.98 202.46 L 82.00 202.62 C 81.02 202.79 80.35 203.72 80.52 204.71 C 80.68 205.70 81.62 206.36 82.60 206.20 Z M 83.54 206.05 L 84.52 205.90 C 85.51 205.76 86.20 204.83 86.05 203.84 C 85.91 202.84 84.98 202.16 83.99 202.30 L 83.01 202.45 C 82.02 202.59 81.33 203.52 81.48 204.51 C 81.62 205.51 82.55 206.20 83.54 206.05 Z M 84.49 205.92 L 85.48 205.79 C 86.48 205.66 87.18 204.74 87.05 203.74 C 86.92 202.74 86.01 202.03 85.00 202.16 L 84.02 202.29 C 83.02 202.42 82.31 203.34 82.44 204.34 C 82.57 205.34 83.49 206.05 84.49 205.92 Z M 85.45 205.80 L 86.46 205.68 C 87.46 205.57 88.19 204.66 88.07 203.65 C 87.95 202.64 87.04 201.92 86.04 202.04 L 85.03 202.15 C 84.02 202.27 83.30 203.18 83.42 204.18 C 83.53 205.19 84.44 205.91 85.45 205.80 Z M 86.43 205.69 L 87.43 205.59 C 88.44 205.49 89.18 204.58 89.08 203.57 C 88.97 202.56 88.07 201.82 87.06 201.92 L 86.06 202.03 C 85.05 202.13 84.31 203.04 84.41 204.05 C 84.52 205.06 85.42 205.80 86.43 205.69 Z M 87.41 205.60 L 88.35 205.51 C 89.37 205.42 90.12 204.52 90.02 203.50 C 89.93 202.48 89.03 201.74 88.01 201.83 L 87.07 201.92 C 86.06 202.01 85.31 202.91 85.40 203.93 C 85.49 204.95 86.40 205.69 87.41 205.60 Z M 88.33 205.52 L 89.30 205.44 C 90.32 205.36 91.08 204.46 91.00 203.44 C 90.91 202.42 90.01 201.66 88.99 201.74 L 88.03 201.82 C 87.01 201.90 86.25 202.80 86.33 203.82 C 86.41 204.85 87.31 205.61 88.33 205.52 Z M 89.28 205.45 L 90.27 205.38 C 91.29 205.31 92.07 204.42 91.99 203.39 C 91.92 202.36 91.03 201.59 90.00 201.66 L 89.01 201.73 C 87.99 201.81 87.21 202.70 87.29 203.72 C 87.36 204.75 88.25 205.52 89.28 205.45 Z M 90.25 205.39 L 91.27 205.33 C 92.30 205.27 93.08 204.38 93.02 203.35 C 92.96 202.32 92.07 201.53 91.04 201.59 L 90.02 201.65 C 88.99 201.72 88.21 202.60 88.27 203.63 C 88.33 204.66 89.22 205.45 90.25 205.39 Z M 91.24 205.34 L 92.29 205.28 C 93.33 205.23 94.13 204.35 94.08 203.32 C 94.03 202.28 93.15 201.48 92.11 201.53 L 91.06 201.59 C 90.03 201.64 89.23 202.52 89.28 203.55 C 89.33 204.59 90.21 205.39 91.24 205.34 Z M 92.27 205.29 L 93.30 205.25 C 94.34 205.22 95.15 204.34 95.11 203.30 C 95.07 202.26 94.20 201.45 93.16 201.49 L 92.13 201.53 C 91.09 201.57 90.28 202.44 90.32 203.48 C 90.36 204.52 91.23 205.33 92.27 205.29 Z M 93.28 205.26 L 94.21 205.24 C 95.25 205.21 96.07 204.34 96.05 203.30 C 96.02 202.25 95.15 201.43 94.11 201.46 L 93.18 201.48 C 92.13 201.51 91.31 202.38 91.34 203.42 C 91.37 204.46 92.23 205.29 93.28 205.26 Z M 94.19 205.24 L 95.14 205.22 C 96.19 205.21 97.02 204.34 97.00 203.30 C 96.98 202.25 96.12 201.42 95.08 201.44 L 94.12 201.45 C 93.08 201.47 92.24 202.34 92.26 203.38 C 92.28 204.43 93.15 205.26 94.19 205.24 Z M 95.13 205.23 L 96.11 205.22 C 97.16 205.21 98.00 204.35 97.99 203.30 C 97.97 202.25 97.11 201.41 96.07 201.42 L 95.09 201.43 C 94.04 201.44 93.20 202.30 93.21 203.35 C 93.22 204.40 94.08 205.24 95.13 205.23 Z M 96.10 205.22 L 97.10 205.22 C 98.16 205.21 99.00 204.35 99.00 203.30 C 98.99 202.25 98.13 201.40 97.08 201.41 L 96.07 201.41 C 95.02 201.42 94.18 202.28 94.18 203.33 C 94.19 204.38 95.05 205.23 96.10 205.22 Z M 97.10 205.22 L 98.13 205.22 C 99.18 205.21 100.03 204.36 100.03 203.30 C 100.03 202.25 99.17 201.40 98.11 201.40 L 97.08 201.40 C 96.03 201.41 95.18 202.26 95.18 203.32 C 95.18 204.37 96.04 205.22 97.10 205.22 Z M 98.12 205.22 L 99.18 205.22 C 100.24 205.22 101.09 204.36 101.09 203.31 C 101.09 202.25 100.23 201.39 99.18 201.39 L 98.12 201.39 C 97.06 201.40 96.21 202.25 96.21 203.31 C 96.21 204.37 97.07 205.22 98.12 205.22 Z M 99.18 205.23 L 100.24 205.23 C 101.30 205.23 102.16 204.37 102.16 203.31 C 102.16 202.25 101.30 201.39 100.24 201.39 L 99.18 201.39 C 98.12 201.39 97.26 202.25 97.26 203.31 C 97.26 204.37 98.12 205.23 99.18 205.23 Z M 100.24 205.23 L 101.19 205.23 C 102.25 205.23 103.11 204.37 103.11 203.31 C 103.11 202.25 102.25 201.38 101.19 201.38 L 100.24 201.38 C 99.18 201.38 98.32 202.25 98.32 203.31 C 98.32 204.37 99.18 205.23 100.24 205.23 Z M 101.19 205.23 L 102.16 205.23 C 103.22 205.23 104.08 204.37 104.08 203.31 C 104.08 202.24 103.22 201.38 102.16 201.38 L 101.19 201.38 C 100.12 201.38 99.26 202.24 99.26 203.31 C 99.26 204.37 100.12 205.23 101.19 205.23 Z M 102.16 205.24 L 103.14 205.24 C 104.21 205.24 105.07 204.37 105.07 203.31 C 105.07 202.24 104.21 201.38 103.14 201.38 L 102.16 201.38 C 101.09 201.38 100.23 202.24 100.23 203.31 C 100.23 204.37 101.09 205.24 102.16 205.24 Z M 103.14 205.24 L 104.14 205.24 C 105.21 205.24 106.07 204.38 106.07 203.31 C 106.07 202.24 105.21 201.37 104.14 201.37 L 103.14 201.37 C 102.07 201.37 101.21 202.24 101.21 203.31 C 101.21 204.38 102.07 205.24 103.14 205.24 Z M 104.14 205.25 L 105.15 205.25 C 106.22 205.25 107.09 204.38 107.09 203.31 C 107.09 202.24 106.22 201.37 105.15 201.37 L 104.14 201.37 C 103.07 201.37 102.20 202.24 102.20 203.31 C 102.20 204.38 103.07 205.25 104.14 205.25 Z M 105.15 205.25 L 106.18 205.25 C 107.25 205.25 108.12 204.38 108.12 203.31 C 108.12 202.24 107.25 201.37 106.18 201.37 L 105.15 201.37 C 104.08 201.37 103.21 202.24 103.21 203.31 C 103.21 204.38 104.08 205.25 105.15 205.25 Z M 106.18 205.25 L 107.21 205.25 C 108.28 205.25 109.15 204.38 109.15 203.31 C 109.15 202.23 108.28 201.36 107.21 201.36 L 106.18 201.36 C 105.10 201.36 104.23 202.23 104.23 203.31 C 104.23 204.38 105.10 205.25 106.18 205.25 Z M 107.21 205.26 L 108.24 205.26 C 109.32 205.26 110.19 204.38 110.19 203.31 C 110.19 202.23 109.32 201.36 108.24 201.36 L 107.21 201.36 C 106.13 201.36 105.26 202.23 105.26 203.31 C 105.26 204.38 106.13 205.26 107.21 205.26 Z M 108.24 205.26 L 109.24 205.26 C 110.32 205.26 111.19 204.39 111.19 203.31 C 111.19 202.23 110.32 201.36 109.24 201.36 L 108.24 201.36 C 107.16 201.36 106.29 202.23 106.29 203.31 C 106.29 204.39 107.16 205.26 108.24 205.26 Z M 109.24 205.26 L 110.23 205.26 C 111.31 205.26 112.18 204.39 112.18 203.31 C 112.18 202.23 111.31 201.35 110.23 201.35 L 109.24 201.35 C 108.16 201.35 107.28 202.23 107.28 203.31 C 107.28 204.39 108.16 205.26 109.24 205.26 Z M 110.23 205.26 L 111.22 205.26 C 112.30 205.26 113.17 204.39 113.17 203.31 C 113.17 202.23 112.30 201.35 111.22 201.35 L 110.23 201.35 C 109.14 201.35 108.27 202.23 108.27 203.31 C 108.27 204.39 109.14 205.26 110.23 205.26 Z M 111.22 205.27 L 112.21 205.27 C 113.29 205.27 114.17 204.39 114.17 203.31 C 114.17 202.22 113.29 201.35 112.21 201.35 L 111.22 201.35 C 110.13 201.35 109.26 202.22 109.26 203.31 C 109.26 204.39 110.13 205.27 111.22 205.27 Z M 112.21 205.27 L 113.21 205.27 C 114.29 205.27 115.17 204.39 115.17 203.31 C 115.17 202.22 114.29 201.34 113.21 201.34 L 112.21 201.34 C 111.13 201.34 110.25 202.22 110.25 203.31 C 110.25 204.39 111.13 205.27 112.21 205.27 Z M 113.21 205.27 L 114.21 205.27 C 115.30 205.27 116.18 204.39 116.18 203.31 C 116.18 202.22 115.30 201.34 114.21 201.34 L 113.21 201.34 C 112.12 201.34 111.24 202.22 111.24 203.31 C 111.24 204.39 112.12 205.27 113.21 205.27 Z M 114.21 205.27 L 115.22 205.27 C 116.31 205.27 117.19 204.39 117.19 203.31 C 117.19 202.22 116.31 201.34 115.22 201.34 L 114.21 201.34 C 113.13 201.34 112.24 202.22 112.24 203.31 C 112.24 204.39 113.13 205.27 114.21 205.27 Z M 115.22 205.28 L 116.23 205.28 C 117.32 205.28 118.20 204.40 118.20 203.31 C 118.20 202.22 117.32 201.34 116.23 201.34 L 115.22 201.34 C 114.13 201.34 113.25 202.22 113.25 203.31 C 113.25 204.40 114.13 205.28 115.22 205.28 Z M 116.23 205.28 L 117.25 205.28 C 118.34 205.28 119.22 204.40 119.22 203.31 C 119.22 202.22 118.34 201.33 117.25 201.33 L 116.23 201.33 C 115.14 201.33 114.26 202.22 114.26 203.31 C 114.26 204.40 115.14 205.28 116.23 205.28 Z M 117.25 205.28 L 118.31 205.28 C 119.40 205.28 120.29 204.40 120.29 203.31 C 120.29 202.22 119.40 201.33 118.31 201.33 L 117.25 201.33 C 116.16 201.33 115.27 202.22 115.27 203.31 C 115.27 204.40 116.16 205.28 117.25 205.28 Z M 118.31 205.29 L 119.38 205.29 C 120.47 205.29 121.36 204.40 121.36 203.31 C 121.36 202.22 120.47 201.33 119.38 201.33 L 118.31 201.33 C 117.22 201.33 116.33 202.21 116.33 203.31 C 116.33 204.40 117.22 205.29 118.31 205.29 Z M 119.37 205.29 L 120.43 205.29 C 121.53 205.29 122.41 204.41 122.42 203.31 C 122.42 202.22 121.53 201.33 120.44 201.33 L 119.38 201.33 C 118.29 201.32 117.40 202.21 117.40 203.30 C 117.39 204.40 118.28 205.29 119.37 205.29 Z M 120.43 205.29 L 121.47 205.30 C 122.56 205.30 123.46 204.42 123.46 203.32 C 123.46 202.23 122.58 201.34 121.48 201.33 L 120.44 201.33 C 119.35 201.32 118.46 202.21 118.45 203.30 C 118.45 204.40 119.33 205.29 120.43 205.29 Z M 121.46 205.30 L 122.48 205.31 C 123.58 205.32 124.47 204.43 124.48 203.34 C 124.49 202.24 123.60 201.34 122.51 201.33 L 121.49 201.33 C 120.39 201.32 119.50 202.20 119.49 203.30 C 119.48 204.40 120.37 205.29 121.46 205.30 Z M 122.47 205.31 L 123.46 205.32 C 124.56 205.33 125.46 204.45 125.47 203.35 C 125.48 202.26 124.60 201.35 123.50 201.34 L 122.52 201.33 C 121.42 201.32 120.52 202.20 120.50 203.30 C 120.49 204.40 121.37 205.30 122.47 205.31 Z M 123.45 205.32 L 124.40 205.34 C 125.50 205.36 126.40 204.48 126.42 203.38 C 126.44 202.28 125.56 201.37 124.46 201.35 L 123.51 201.34 C 122.41 201.32 121.50 202.20 121.49 203.30 C 121.47 204.40 122.35 205.31 123.45 205.32 Z M 124.38 205.34 L 125.28 205.36 C 126.39 205.39 127.30 204.51 127.32 203.41 C 127.35 202.31 126.47 201.40 125.37 201.37 L 124.47 201.35 C 123.37 201.33 122.46 202.20 122.43 203.30 C 122.41 204.40 123.28 205.32 124.38 205.34 Z M 125.27 205.36 L 126.20 205.39 C 127.30 205.43 128.22 204.56 128.26 203.46 C 128.29 202.35 127.43 201.43 126.32 201.40 L 125.39 201.37 C 124.29 201.34 123.37 202.20 123.33 203.31 C 123.30 204.41 124.16 205.33 125.27 205.36 Z M 126.17 205.39 L 127.15 205.44 C 128.25 205.48 129.19 204.63 129.23 203.53 C 129.28 202.42 128.43 201.49 127.32 201.44 L 126.35 201.40 C 125.24 201.35 124.31 202.21 124.26 203.31 C 124.22 204.41 125.07 205.35 126.17 205.39 Z M 127.12 205.44 L 128.05 205.49 C 129.15 205.56 130.10 204.72 130.17 203.62 C 130.23 202.51 129.40 201.57 128.29 201.50 L 127.36 201.44 C 126.26 201.37 125.31 202.21 125.24 203.32 C 125.17 204.42 126.01 205.37 127.12 205.44 Z M 128.01 205.49 L 128.93 205.57 C 130.04 205.65 131.00 204.83 131.09 203.73 C 131.18 202.63 130.36 201.66 129.26 201.57 L 128.33 201.50 C 127.23 201.41 126.26 202.23 126.17 203.33 C 126.09 204.44 126.91 205.40 128.01 205.49 Z M 128.89 205.56 L 129.84 205.66 C 130.94 205.77 131.93 204.97 132.04 203.87 C 132.15 202.76 131.35 201.78 130.24 201.67 L 129.30 201.58 C 128.20 201.47 127.21 202.27 127.10 203.37 C 126.99 204.47 127.79 205.45 128.89 205.56 Z M 129.81 205.66 L 130.81 205.78 C 131.91 205.91 132.91 205.12 133.04 204.02 C 133.17 202.92 132.39 201.93 131.29 201.79 L 130.28 201.67 C 129.18 201.54 128.18 202.33 128.05 203.43 C 127.92 204.53 128.71 205.52 129.81 205.66 Z M 130.78 205.77 L 131.87 205.92 C 132.97 206.07 133.98 205.30 134.13 204.20 C 134.28 203.10 133.51 202.09 132.41 201.95 L 131.32 201.80 C 130.22 201.65 129.21 202.42 129.06 203.52 C 128.91 204.61 129.68 205.62 130.78 205.77 Z M 131.85 205.92 L 132.83 206.06 C 133.92 206.22 134.94 205.46 135.10 204.37 C 135.26 203.27 134.50 202.25 133.41 202.09 L 132.43 201.95 C 131.34 201.79 130.32 202.55 130.16 203.64 C 130.00 204.74 130.75 205.76 131.85 205.92 Z M 132.81 206.06 L 133.68 206.19 C 134.78 206.36 135.80 205.61 135.97 204.52 C 136.14 203.42 135.39 202.39 134.29 202.22 L 133.42 202.09 C 132.33 201.92 131.30 202.67 131.13 203.77 C 130.96 204.87 131.71 205.89 132.81 206.06 Z M 133.67 206.19 L 134.58 206.34 C 135.68 206.52 136.71 205.77 136.89 204.68 C 137.06 203.58 136.32 202.55 135.22 202.37 L 134.30 202.22 C 133.21 202.05 132.18 202.79 132.00 203.89 C 131.82 204.99 132.57 206.02 133.67 206.19 Z M 134.57 206.34 L 135.53 206.50 C 136.63 206.68 137.66 205.94 137.84 204.85 C 138.03 203.75 137.29 202.71 136.19 202.53 L 135.23 202.37 C 134.14 202.19 133.10 202.93 132.92 204.03 C 132.74 205.12 133.48 206.16 134.57 206.34 Z M 135.52 206.50 L 136.51 206.67 C 137.60 206.86 138.65 206.13 138.83 205.03 C 139.02 203.94 138.29 202.89 137.19 202.70 L 136.20 202.53 C 135.11 202.34 134.07 203.08 133.88 204.17 C 133.69 205.27 134.42 206.31 135.52 206.50 Z M 136.49 206.67 L 137.51 206.85 C 138.61 207.05 139.65 206.32 139.85 205.23 C 140.05 204.13 139.32 203.08 138.22 202.89 L 137.21 202.70 C 136.11 202.51 135.06 203.24 134.87 204.33 C 134.67 205.43 135.40 206.47 136.49 206.67 Z M 137.50 206.85 L 138.53 207.05 C 139.63 207.25 140.68 206.53 140.88 205.43 C 141.09 204.34 140.37 203.28 139.27 203.08 L 138.24 202.89 C 137.14 202.68 136.09 203.41 135.89 204.50 C 135.68 205.60 136.40 206.65 137.50 206.85 Z M 138.52 207.04 L 139.56 207.25 C 140.66 207.46 141.71 206.74 141.93 205.65 C 142.14 204.55 141.42 203.50 140.33 203.28 L 139.28 203.08 C 138.19 202.87 137.13 203.59 136.92 204.68 C 136.71 205.77 137.42 206.83 138.52 207.04 Z M 139.55 207.25 L 140.59 207.46 C 141.69 207.68 142.75 206.97 142.97 205.87 C 143.19 204.78 142.48 203.72 141.39 203.50 L 140.34 203.29 C 139.25 203.06 138.19 203.77 137.96 204.87 C 137.74 205.96 138.45 207.02 139.55 207.25 Z M 140.57 207.45 L 141.61 207.67 C 142.71 207.90 143.78 207.20 144.01 206.11 C 144.24 205.02 143.54 203.95 142.44 203.72 L 141.41 203.50 C 140.31 203.27 139.24 203.97 139.01 205.06 C 138.78 206.15 139.48 207.22 140.57 207.45 Z M 141.60 207.67 L 142.63 207.90 C 143.72 208.14 144.80 207.44 145.04 206.35 C 145.28 205.26 144.59 204.18 143.50 203.94 L 142.46 203.72 C 141.37 203.48 140.29 204.17 140.05 205.26 C 139.81 206.35 140.50 207.43 141.60 207.67 Z M 142.61 207.89 L 143.63 208.13 C 144.72 208.38 145.81 207.70 146.06 206.61 C 146.31 205.52 145.63 204.43 144.54 204.18 L 143.51 203.95 C 142.43 203.70 141.34 204.38 141.09 205.47 C 140.84 206.56 141.52 207.64 142.61 207.89 Z M 143.61 208.12 L 144.62 208.37 C 145.71 208.63 146.80 207.96 147.06 206.87 C 147.32 205.78 146.65 204.69 145.57 204.43 L 144.56 204.19 C 143.47 203.93 142.38 204.60 142.12 205.68 C 141.86 206.77 142.53 207.86 143.61 208.12 Z M 144.60 208.36 L 145.59 208.61 C 146.68 208.88 147.78 208.22 148.05 207.14 C 148.32 206.05 147.66 204.95 146.58 204.68 L 145.59 204.43 C 144.50 204.16 143.40 204.82 143.13 205.90 C 142.86 206.99 143.52 208.09 144.60 208.36 Z M 145.57 208.61 L 146.55 208.86 C 147.63 209.15 148.74 208.50 149.02 207.41 C 149.30 206.33 148.66 205.22 147.57 204.94 L 146.60 204.69 C 145.51 204.40 144.41 205.05 144.12 206.13 C 143.84 207.22 144.49 208.32 145.57 208.61 Z M 146.53 208.86 L 147.49 209.12 C 148.57 209.41 149.68 208.78 149.98 207.70 C 150.27 206.62 149.63 205.50 148.55 205.21 L 147.59 204.95 C 146.51 204.65 145.40 205.29 145.10 206.37 C 144.81 207.45 145.45 208.56 146.53 208.86 Z M 147.47 209.12 L 148.42 209.38 C 149.50 209.69 150.62 209.06 150.92 207.98 C 151.23 206.91 150.60 205.79 149.52 205.48 L 148.57 205.21 C 147.50 204.91 146.38 205.53 146.07 206.61 C 145.77 207.69 146.39 208.81 147.47 209.12 Z M 148.40 209.38 L 149.34 209.65 C 150.41 209.97 151.54 209.35 151.86 208.28 C 152.17 207.20 151.55 206.07 150.48 205.76 L 149.54 205.48 C 148.47 205.17 147.34 205.79 147.02 206.86 C 146.71 207.94 147.32 209.06 148.40 209.38 Z M 149.32 209.65 L 150.25 209.93 C 151.32 210.26 152.45 209.65 152.78 208.58 C 153.10 207.50 152.50 206.37 151.42 206.05 L 150.50 205.76 C 149.42 205.44 148.29 206.04 147.97 207.12 C 147.64 208.19 148.25 209.32 149.32 209.65 Z M 150.23 209.93 L 151.15 210.21 C 152.22 210.55 153.36 209.95 153.69 208.88 C 154.03 207.81 153.43 206.67 152.36 206.34 L 151.44 206.05 C 150.37 205.71 149.23 206.31 148.90 207.38 C 148.56 208.45 149.16 209.59 150.23 209.93 Z M 151.13 210.21 L 152.08 210.51 C 153.14 210.86 154.29 210.27 154.63 209.21 C 154.98 208.14 154.39 206.99 153.33 206.65 L 152.38 206.34 C 151.31 206.00 150.17 206.58 149.82 207.65 C 149.48 208.72 150.06 209.86 151.13 210.21 Z M 152.06 210.51 L 153.09 210.85 C 154.16 211.21 155.31 210.63 155.66 209.57 C 156.02 208.50 155.44 207.35 154.38 207.00 L 153.34 206.65 C 152.28 206.30 151.13 206.88 150.77 207.94 C 150.42 209.00 150.99 210.16 152.06 210.51 Z M 153.08 210.85 L 154.10 211.20 C 155.16 211.56 156.31 210.99 156.68 209.93 C 157.04 208.87 156.47 207.71 155.41 207.35 L 154.39 207.00 C 153.33 206.64 152.17 207.21 151.81 208.27 C 151.45 209.33 152.02 210.49 153.08 210.85 Z M 154.09 211.19 L 155.09 211.54 C 156.15 211.91 157.30 211.35 157.67 210.29 C 158.04 209.23 157.48 208.07 156.42 207.70 L 155.42 207.35 C 154.36 206.99 153.20 207.55 152.83 208.61 C 152.47 209.67 153.03 210.83 154.09 211.19 Z M 155.08 211.54 L 156.06 211.88 C 157.11 212.25 158.28 211.70 158.65 210.64 C 159.02 209.58 158.46 208.42 157.40 208.05 L 156.43 207.70 C 155.37 207.33 154.21 207.89 153.84 208.95 C 153.46 210.01 154.02 211.17 155.08 211.54 Z M 156.05 211.88 L 157.00 212.22 C 158.06 212.59 159.22 212.04 159.59 210.98 C 159.97 209.92 159.41 208.76 158.36 208.38 L 157.41 208.05 C 156.35 207.67 155.19 208.23 154.81 209.29 C 154.44 210.35 154.99 211.51 156.05 211.88 Z M 157.00 212.22 L 157.92 212.54 C 158.98 212.91 160.14 212.36 160.51 211.30 C 160.88 210.24 160.33 209.08 159.27 208.71 L 158.35 208.38 C 157.30 208.01 156.13 208.56 155.76 209.62 C 155.39 210.68 155.94 211.84 157.00 212.22 Z M 157.92 212.54 L 158.80 212.85 C 159.86 213.22 161.02 212.66 161.39 211.60 C 161.76 210.54 161.20 209.38 160.14 209.01 L 159.26 208.70 C 158.20 208.33 157.05 208.89 156.67 209.95 C 156.30 211.01 156.86 212.17 157.92 212.54 Z M 158.81 212.85 L 159.65 213.14 C 160.71 213.50 161.87 212.94 162.23 211.88 C 162.60 210.81 162.03 209.66 160.97 209.29 L 160.13 209.01 C 159.07 208.64 157.91 209.21 157.55 210.27 C 157.19 211.33 157.75 212.49 158.81 212.85 Z M 159.67 213.15 L 160.60 213.46 C 161.67 213.81 162.82 213.23 163.17 212.17 C 163.53 211.10 162.95 209.95 161.88 209.60 L 160.95 209.29 C 159.89 208.93 158.73 209.51 158.38 210.58 C 158.03 211.64 158.60 212.79 159.67 213.15 Z M 160.63 213.47 L 161.65 213.78 C 162.72 214.12 163.86 213.52 164.19 212.45 C 164.53 211.38 163.93 210.24 162.86 209.90 L 161.85 209.59 C 160.78 209.25 159.64 209.85 159.30 210.92 C 158.97 211.99 159.56 213.13 160.63 213.47 Z M 161.69 213.80 L 162.65 214.07 C 163.73 214.39 164.85 213.76 165.17 212.68 C 165.48 211.61 164.86 210.48 163.78 210.17 L 162.82 209.89 C 161.74 209.58 160.61 210.20 160.30 211.28 C 159.99 212.36 160.61 213.49 161.69 213.80 Z M 162.70 214.09 L 163.63 214.33 C 164.72 214.61 165.83 213.96 166.11 212.87 C 166.39 211.78 165.74 210.67 164.65 210.39 L 163.72 210.15 C 162.63 209.87 161.53 210.52 161.24 211.61 C 160.96 212.70 161.62 213.81 162.70 214.09 Z M 163.69 214.34 L 164.62 214.55 C 165.72 214.80 166.80 214.11 167.05 213.02 C 167.30 211.92 166.61 210.84 165.52 210.59 L 164.59 210.38 C 163.49 210.13 162.41 210.82 162.16 211.91 C 161.91 213.01 162.60 214.10 163.69 214.34 Z M 164.68 214.57 L 165.63 214.75 C 166.73 214.96 167.80 214.24 168.01 213.14 C 168.23 212.04 167.50 210.97 166.40 210.76 L 165.45 210.58 C 164.35 210.36 163.29 211.08 163.07 212.18 C 162.86 213.29 163.58 214.35 164.68 214.57 Z M 165.69 214.76 L 166.67 214.92 C 167.78 215.10 168.82 214.35 169.01 213.24 C 169.19 212.13 168.44 211.09 167.33 210.91 L 166.34 210.75 C 165.24 210.57 164.19 211.32 164.01 212.43 C 163.83 213.53 164.58 214.58 165.69 214.76 Z M 166.72 214.93 L 167.66 215.06 C 168.77 215.21 169.80 214.44 169.95 213.32 C 170.11 212.21 169.33 211.19 168.22 211.03 L 167.28 210.90 C 166.17 210.75 165.14 211.52 164.99 212.63 C 164.83 213.75 165.61 214.77 166.72 214.93 Z M 167.70 215.06 L 168.68 215.18 C 169.79 215.31 170.80 214.52 170.94 213.40 C 171.07 212.29 170.28 211.28 169.16 211.15 L 168.18 211.03 C 167.07 210.90 166.06 211.69 165.92 212.80 C 165.79 213.92 166.58 214.93 167.70 215.06 Z M 168.71 215.18 L 169.72 215.29 C 170.83 215.40 171.83 214.59 171.95 213.48 C 172.06 212.36 171.25 211.37 170.14 211.25 L 169.13 211.14 C 168.02 211.03 167.02 211.84 166.90 212.95 C 166.79 214.07 167.60 215.07 168.71 215.18 Z M 169.75 215.29 L 170.77 215.38 C 171.89 215.48 172.87 214.66 172.97 213.54 C 173.07 212.43 172.25 211.44 171.13 211.34 L 170.11 211.25 C 168.99 211.15 168.01 211.97 167.91 213.09 C 167.81 214.20 168.63 215.19 169.75 215.29 Z M 170.80 215.38 L 171.82 215.46 C 172.94 215.55 173.91 214.71 174.00 213.59 C 174.08 212.48 173.25 211.50 172.13 211.42 L 171.11 211.34 C 169.99 211.25 169.02 212.09 168.93 213.20 C 168.85 214.32 169.68 215.29 170.80 215.38 Z M 171.84 215.46 L 172.86 215.53 C 173.97 215.60 174.94 214.75 175.01 213.64 C 175.08 212.52 174.24 211.56 173.12 211.48 L 172.11 211.42 C 170.99 211.34 170.03 212.19 169.96 213.31 C 169.88 214.42 170.73 215.39 171.84 215.46 Z M 172.88 215.53 L 173.87 215.58 C 174.99 215.64 175.94 214.78 176.00 213.67 C 176.06 212.55 175.20 211.60 174.09 211.54 L 173.10 211.48 C 171.98 211.42 171.03 212.28 170.97 213.40 C 170.91 214.51 171.76 215.47 172.88 215.53 Z M 173.89 215.58 L 174.95 215.62 C 176.07 215.67 177.01 214.80 177.06 213.69 C 177.11 212.57 176.24 211.63 175.12 211.58 L 174.06 211.54 C 172.95 211.49 172.00 212.36 171.96 213.47 C 171.91 214.59 172.78 215.53 173.89 215.58 Z M 174.98 215.62 L 176.00 215.65 C 177.12 215.69 178.05 214.81 178.08 213.69 C 178.12 212.58 177.24 211.65 176.13 211.61 L 175.10 211.58 C 173.98 211.55 173.05 212.43 173.02 213.54 C 172.99 214.66 173.86 215.59 174.98 215.62 Z M 176.02 215.65 L 177.02 215.67 C 178.14 215.69 179.06 214.81 179.08 213.69 C 179.10 212.58 178.22 211.66 177.10 211.64 L 176.10 211.62 C 174.99 211.59 174.07 212.48 174.05 213.59 C 174.03 214.71 174.91 215.63 176.02 215.65 Z M 177.04 215.67 L 178.02 215.68 C 179.13 215.69 180.04 214.80 180.06 213.69 C 180.07 212.57 179.18 211.66 178.06 211.65 L 177.09 211.64 C 175.97 211.63 175.06 212.52 175.05 213.63 C 175.04 214.74 175.93 215.65 177.04 215.67 Z M 178.03 215.68 L 179.00 215.68 C 180.11 215.69 181.02 214.79 181.02 213.68 C 181.03 212.57 180.13 211.66 179.02 211.66 L 178.05 211.65 C 176.94 211.65 176.04 212.54 176.03 213.65 C 176.02 214.76 176.92 215.67 178.03 215.68 Z M 179.01 215.68 L 179.98 215.68 C 181.09 215.68 181.99 214.78 181.99 213.67 C 181.99 212.56 181.10 211.66 179.99 211.66 L 179.01 211.66 C 177.91 211.66 177.00 212.56 177.00 213.67 C 177.00 214.78 177.90 215.68 179.01 215.68 Z M 179.98 215.68 L 180.97 215.68 C 182.08 215.68 182.98 214.78 182.98 213.67 C 182.98 212.56 182.08 211.66 180.97 211.66 L 179.98 211.66 C 178.88 211.66 177.98 212.56 177.98 213.67 C 177.98 214.78 178.88 215.68 179.98 215.68 Z M 180.97 215.67 L 181.97 215.67 C 183.08 215.67 183.98 214.78 183.98 213.67 C 183.98 212.56 183.08 211.67 181.97 211.67 L 180.97 211.67 C 179.86 211.67 178.97 212.56 178.97 213.67 C 178.97 214.78 179.86 215.67 180.97 215.67 Z M 181.97 215.67 L 182.98 215.67 C 184.09 215.67 184.98 214.78 184.98 213.67 C 184.98 212.57 184.09 211.67 182.98 211.67 L 181.97 211.67 C 180.87 211.67 179.97 212.57 179.97 213.67 C 179.97 214.78 180.87 215.67 181.97 215.67 Z M 182.98 215.67 L 183.99 215.67 C 185.10 215.67 185.99 214.77 185.99 213.67 C 185.99 212.57 185.10 211.67 183.99 211.67 L 182.98 211.67 C 181.88 211.67 180.98 212.57 180.98 213.67 C 180.98 214.77 181.88 215.67 182.98 215.67 Z M 183.99 215.67 L 185.00 215.67 C 186.10 215.67 186.99 214.77 186.99 213.67 C 186.99 212.57 186.10 211.67 185.00 211.67 L 183.99 211.67 C 182.89 211.67 182.00 212.57 182.00 213.67 C 182.00 214.77 182.89 215.67 183.99 215.67 Z M 185.00 215.66 L 185.99 215.66 C 187.09 215.66 187.98 214.77 187.98 213.67 C 187.98 212.57 187.09 211.68 185.99 211.68 L 185.00 211.68 C 183.90 211.68 183.00 212.57 183.00 213.67 C 183.00 214.77 183.90 215.66 185.00 215.66 Z M 185.99 215.66 L 186.99 215.66 C 188.09 215.66 188.98 214.77 188.98 213.67 C 188.98 212.57 188.09 211.68 186.99 211.68 L 185.99 211.68 C 184.89 211.68 184.00 212.57 184.00 213.67 C 184.00 214.77 184.89 215.66 185.99 215.66 Z M 186.99 215.66 L 188.03 215.66 C 189.13 215.66 190.02 214.77 190.02 213.67 C 190.02 212.57 189.13 211.68 188.03 211.68 L 186.99 211.68 C 185.89 211.68 185.00 212.57 185.00 213.67 C 185.00 214.77 185.89 215.66 186.99 215.66 Z M 188.03 215.65 L 189.05 215.65 C 190.15 215.65 191.04 214.77 191.04 213.67 C 191.04 212.57 190.15 211.69 189.05 211.69 L 188.03 211.69 C 186.94 211.69 186.05 212.57 186.05 213.67 C 186.05 214.77 186.94 215.65 188.03 215.65 Z M 189.05 215.65 L 190.06 215.65 C 191.15 215.65 192.03 214.76 192.03 213.67 C 192.03 212.58 191.15 211.69 190.06 211.69 L 189.05 211.69 C 187.96 211.69 187.08 212.58 187.08 213.67 C 187.08 214.76 187.96 215.65 189.05 215.65 Z M 190.06 215.64 L 191.04 215.64 C 192.13 215.64 193.01 214.76 193.01 213.67 C 193.01 212.58 192.13 211.70 191.04 211.70 L 190.06 211.70 C 188.97 211.70 188.08 212.58 188.08 213.67 C 188.08 214.76 188.97 215.64 190.06 215.64 Z M 191.04 215.64 L 192.00 215.64 C 193.09 215.64 193.97 214.76 193.97 213.67 C 193.97 212.58 193.09 211.70 192.00 211.70 L 191.04 211.70 C 189.95 211.70 189.07 212.58 189.07 213.67 C 189.07 214.76 189.95 215.64 191.04 215.64 Z M 192.00 215.64 L 192.99 215.64 C 194.07 215.64 194.95 214.76 194.95 213.67 C 194.95 212.58 194.07 211.70 192.99 211.70 L 192.00 211.70 C 190.92 211.70 190.04 212.58 190.04 213.67 C 190.04 214.76 190.92 215.64 192.00 215.64 Z M 192.99 215.63 L 194.01 215.63 C 195.09 215.63 195.97 214.75 195.97 213.67 C 195.97 212.58 195.09 211.71 194.01 211.71 L 192.98 211.71 C 191.90 211.71 191.03 212.59 191.03 213.67 C 191.03 214.75 191.91 215.63 192.99 215.63 Z M 194.02 215.62 L 195.03 215.61 C 196.10 215.61 196.97 214.73 196.97 213.65 C 196.96 212.58 196.08 211.71 195.01 211.71 L 194.00 211.72 C 192.92 211.72 192.05 212.60 192.06 213.68 C 192.06 214.76 192.94 215.63 194.02 215.62 Z M 195.04 215.61 L 196.04 215.59 C 197.11 215.58 197.97 214.70 197.95 213.63 C 197.94 212.55 197.06 211.70 195.99 211.71 L 194.99 211.72 C 193.92 211.73 193.06 212.61 193.07 213.69 C 193.09 214.76 193.97 215.62 195.04 215.61 Z M 196.05 215.59 L 197.04 215.56 C 198.11 215.54 198.95 214.65 198.93 213.59 C 198.91 212.52 198.02 211.67 196.95 211.69 L 195.97 211.72 C 194.90 211.74 194.05 212.63 194.08 213.69 C 194.10 214.76 194.99 215.61 196.05 215.59 Z M 197.07 215.55 L 198.04 215.52 C 199.10 215.48 199.94 214.59 199.90 213.52 C 199.86 212.46 198.97 211.63 197.90 211.67 L 196.93 211.70 C 195.86 211.74 195.03 212.63 195.07 213.70 C 195.11 214.76 196.00 215.59 197.07 215.55 Z M 198.07 215.51 L 199.04 215.46 C 200.10 215.40 200.91 214.50 200.86 213.44 C 200.80 212.39 199.90 211.57 198.84 211.63 L 197.87 211.68 C 196.82 211.74 196.00 212.64 196.06 213.69 C 196.11 214.75 197.02 215.56 198.07 215.51 Z M 199.08 215.44 L 200.05 215.37 C 201.10 215.30 201.89 214.39 201.81 213.34 C 201.74 212.29 200.83 211.50 199.78 211.58 L 198.81 211.65 C 197.76 211.72 196.97 212.63 197.05 213.68 C 197.12 214.73 198.03 215.51 199.08 215.44 Z M 200.09 215.35 L 201.07 215.26 C 202.11 215.17 202.88 214.25 202.78 213.21 C 202.68 212.17 201.76 211.41 200.73 211.50 L 199.74 211.59 C 198.70 211.69 197.94 212.61 198.04 213.65 C 198.13 214.69 199.05 215.45 200.09 215.35 Z M 201.11 215.24 L 202.12 215.13 C 203.15 215.01 203.88 214.08 203.76 213.05 C 203.65 212.02 202.72 211.29 201.69 211.41 L 200.69 211.52 C 199.66 211.64 198.92 212.57 199.04 213.60 C 199.16 214.63 200.09 215.36 201.11 215.24 Z M 202.16 215.11 L 203.19 214.97 C 204.21 214.82 204.92 213.88 204.77 212.87 C 204.63 211.85 203.69 211.14 202.68 211.28 L 201.65 211.42 C 200.63 211.57 199.92 212.51 200.06 213.52 C 200.20 214.54 201.14 215.25 202.16 215.11 Z M 203.23 214.95 L 204.16 214.80 C 205.16 214.63 205.85 213.69 205.69 212.68 C 205.52 211.67 204.58 210.99 203.57 211.15 L 202.64 211.30 C 201.63 211.46 200.95 212.41 201.11 213.42 C 201.27 214.42 202.22 215.11 203.23 214.95 Z M 204.19 214.77 L 205.10 214.61 C 206.10 214.43 206.76 213.48 206.58 212.48 C 206.40 211.49 205.45 210.83 204.45 211.01 L 203.54 211.17 C 202.55 211.35 201.88 212.30 202.06 213.30 C 202.24 214.29 203.19 214.95 204.19 214.77 Z M 205.13 214.59 L 206.08 214.40 C 207.06 214.21 207.70 213.25 207.50 212.27 C 207.31 211.29 206.36 210.65 205.37 210.84 L 204.43 211.03 C 203.45 211.22 202.81 212.18 203.00 213.16 C 203.19 214.14 204.15 214.78 205.13 214.59 Z M 206.10 214.38 L 207.08 214.17 C 208.05 213.97 208.67 213.01 208.46 212.04 C 208.25 211.07 207.30 210.45 206.33 210.66 L 205.35 210.86 C 204.38 211.07 203.76 212.03 203.97 213.00 C 204.17 213.97 205.13 214.59 206.10 214.38 Z M 207.10 214.15 L 208.11 213.92 C 209.07 213.70 209.67 212.75 209.45 211.79 C 209.23 210.83 208.28 210.23 207.32 210.45 L 206.31 210.68 C 205.35 210.89 204.75 211.85 204.96 212.81 C 205.18 213.77 206.14 214.37 207.10 214.15 Z M 208.12 213.90 L 209.17 213.65 C 210.12 213.42 210.70 212.47 210.47 211.52 C 210.25 210.57 209.29 209.99 208.34 210.21 L 207.30 210.47 C 206.35 210.69 205.77 211.65 205.99 212.60 C 206.22 213.55 207.18 214.13 208.12 213.90 Z M 209.18 213.63 L 210.20 213.37 C 211.13 213.14 211.70 212.19 211.47 211.25 C 211.23 210.31 210.28 209.74 209.34 209.98 L 208.33 210.24 C 207.39 210.47 206.82 211.42 207.06 212.36 C 207.30 213.30 208.25 213.87 209.18 213.63 Z M 210.21 213.35 L 211.13 213.11 C 212.05 212.87 212.61 211.93 212.36 211.00 C 212.12 210.07 211.18 209.52 210.25 209.76 L 209.33 210.00 C 208.41 210.24 207.85 211.19 208.09 212.11 C 208.34 213.04 209.28 213.59 210.21 213.35 Z M 211.13 213.09 L 212.07 212.84 C 212.98 212.59 213.53 211.66 213.28 210.74 C 213.04 209.83 212.10 209.29 211.18 209.53 L 210.24 209.78 C 209.33 210.03 208.79 210.97 209.03 211.88 C 209.28 212.79 210.22 213.34 211.13 213.09 Z M 212.07 212.82 L 213.03 212.56 C 213.93 212.31 214.46 211.38 214.22 210.48 C 213.97 209.57 213.04 209.04 212.14 209.29 L 211.18 209.55 C 210.28 209.80 209.75 210.73 210.00 211.63 C 210.24 212.53 211.17 213.06 212.07 212.82 Z M 213.03 212.53 L 214.01 212.26 C 214.90 212.02 215.42 211.09 215.17 210.20 C 214.92 209.31 214.00 208.79 213.11 209.04 L 212.14 209.31 C 211.25 209.56 210.73 210.48 210.97 211.37 C 211.22 212.26 212.14 212.78 213.03 212.53 Z M 214.01 212.24 L 214.99 211.97 C 215.87 211.72 216.38 210.81 216.13 209.93 C 215.88 209.05 214.97 208.54 214.09 208.78 L 213.11 209.06 C 212.23 209.31 211.72 210.22 211.97 211.10 C 212.21 211.98 213.13 212.49 214.01 212.24 Z M 214.99 211.95 L 215.98 211.67 C 216.85 211.42 217.35 210.52 217.10 209.65 C 216.86 208.78 215.95 208.28 215.09 208.52 L 214.09 208.80 C 213.23 209.05 212.72 209.95 212.97 210.82 C 213.22 211.69 214.12 212.19 214.99 211.95 Z M 215.97 211.65 L 216.97 211.36 C 217.83 211.12 218.32 210.22 218.08 209.37 C 217.83 208.51 216.94 208.01 216.08 208.26 L 215.09 208.54 C 214.23 208.79 213.74 209.68 213.98 210.54 C 214.22 211.39 215.12 211.89 215.97 211.65 Z M 216.97 211.35 L 217.35 211.24 C 218.20 211.00 218.69 210.11 218.45 209.26 C 218.20 208.41 217.32 207.92 216.47 208.16 L 216.09 208.27 C 215.24 208.51 214.75 209.40 214.99 210.25 C 215.23 211.10 216.12 211.59 216.97 211.35 Z"
      fill="black"
      fill-rule="nonzero" /></svg>