<svg xmlns="http://www.w3.org/2000/svg" width="300" height="300" viewBox="0 0 300 300">
<path d="M 143.48 79.62 L 143.48 80.60 C 143.48 81.70 144.38 82.58 145.48 82.58 C 146.57 82.58 147.46 81.69 147.46 80.59 L 147.46 79.61 C 147.46 78.51 146.57 77.62 145.47 77.63 C 144.37 77.63 143.48 78.52 143.48 79.62 Z M 143.48 80.62 L 143.49 81.60 C 143.51 82.70 144.41 83.58 145.51 83.57 C 146.61 83.55 147.49 82.65 147.48 81.55 L 147.47 80.57 C 147.45 79.47 146.55 78.59 145.45 78.60 C 144.35 78.61 143.47 79.52 143.48 80.62 Z M 143.49 81.64 L 143.52 82.63 C 143.56 83.73 144.49 84.59 145.59 84.56 C 146.69 84.52 147.55 83.59 147.51 82.49 L 147.48 81.51 C 147.44 80.40 146.52 79.54 145.42 79.58 C 144.31 79.62 143.45 80.54 143.49 81.64 Z M 143.52 82.69 L 143.59 83.69 C 143.66 84.79 144.62 85.63 145.72 85.55 C 146.82 85.48 147.65 84.53 147.58 83.42 L 147.51 82.43 C 147.44 81.33 146.49 80.49 145.39 80.57 C 144.28 80.64 143.45 81.59 143.52 82.69 Z M 143.59 83.77 L 143.70 84.78 C 143.82 85.88 144.81 86.67 145.91 86.56 C 147.01 86.44 147.80 85.45 147.69 84.35 L 147.58 83.34 C 147.46 82.24 146.47 81.45 145.37 81.57 C 144.27 81.68 143.47 82.67 143.59 83.77 Z M 143.71 84.88 L 143.88 85.90 C 144.05 87.00 145.08 87.74 146.17 87.57 C 147.27 87.39 148.01 86.36 147.84 85.27 L 147.68 84.25 C 147.50 83.15 146.47 82.41 145.38 82.58 C 144.28 82.76 143.54 83.79 143.71 84.88 Z M 143.89 86.01 L 144.10 86.97 C 144.33 88.06 145.40 88.75 146.49 88.52 C 147.57 88.28 148.26 87.22 148.03 86.13 L 147.82 85.17 C 147.59 84.08 146.52 83.39 145.44 83.62 C 144.35 83.85 143.66 84.92 143.89 86.01 Z M 144.12 87.06 L 144.37 88.03 C 144.65 89.10 145.75 89.74 146.82 89.46 C 147.90 89.18 148.54 88.09 148.26 87.01 L 148.01 86.05 C 147.73 84.97 146.63 84.33 145.56 84.61 C 144.48 84.89 143.84 85.99 144.12 87.06 Z M 144.39 88.09 L 144.68 89.06 C 145.00 90.13 146.12 90.73 147.18 90.41 C 148.24 90.10 148.85 88.98 148.53 87.92 L 148.24 86.95 C 147.92 85.88 146.81 85.28 145.74 85.60 C 144.68 85.91 144.08 87.03 144.39 88.09 Z M 144.70 89.11 L 145.01 90.08 C 145.36 91.13 146.49 91.71 147.55 91.36 C 148.60 91.02 149.17 89.88 148.83 88.83 L 148.51 87.87 C 148.17 86.81 147.04 86.24 145.98 86.58 C 144.93 86.93 144.35 88.06 144.70 89.11 Z M 145.03 90.12 L 145.36 91.07 C 145.72 92.12 146.87 92.67 147.92 92.30 C 148.96 91.94 149.51 90.79 149.15 89.75 L 148.82 88.79 C 148.45 87.75 147.31 87.19 146.26 87.56 C 145.21 87.93 144.66 89.07 145.03 90.12 Z M 145.37 91.09 L 145.71 92.03 C 146.09 93.07 147.24 93.61 148.28 93.23 C 149.32 92.85 149.86 91.70 149.48 90.66 L 149.14 89.72 C 148.76 88.68 147.61 88.14 146.57 88.52 C 145.53 88.90 144.99 90.05 145.37 91.09 Z M 145.71 92.04 L 146.06 92.98 C 146.45 94.02 147.60 94.55 148.64 94.17 C 149.68 93.79 150.21 92.63 149.82 91.59 L 149.47 90.65 C 149.09 89.61 147.94 89.08 146.90 89.46 C 145.86 89.85 145.33 91.00 145.71 92.04 Z M 146.07 92.98 L 146.44 93.98 C 146.82 95.01 147.97 95.54 149.01 95.15 C 150.04 94.77 150.57 93.62 150.19 92.58 L 149.82 91.59 C 149.43 90.56 148.28 90.03 147.25 90.41 C 146.21 90.80 145.68 91.95 146.07 92.98 Z M 146.44 93.97 L 146.80 94.93 C 147.18 95.96 148.33 96.49 149.36 96.11 C 150.39 95.72 150.92 94.58 150.54 93.54 L 150.18 92.58 C 149.80 91.55 148.65 91.03 147.62 91.41 C 146.59 91.79 146.06 92.94 146.44 93.97 Z M 146.81 94.93 L 147.15 95.86 C 147.53 96.89 148.67 97.41 149.70 97.03 C 150.73 96.65 151.26 95.51 150.87 94.48 L 150.53 93.55 C 150.15 92.52 149.01 91.99 147.98 92.38 C 146.95 92.76 146.42 93.90 146.81 94.93 Z M 147.16 95.85 L 147.49 96.77 C 147.87 97.79 149.01 98.32 150.03 97.94 C 151.06 97.56 151.58 96.42 151.21 95.40 L 150.87 94.49 C 150.49 93.46 149.35 92.94 148.33 93.31 C 147.30 93.69 146.78 94.83 147.16 95.85 Z M 147.50 96.76 L 147.83 97.66 C 148.20 98.68 149.33 99.20 150.35 98.83 C 151.38 98.46 151.90 97.32 151.53 96.30 L 151.20 95.41 C 150.83 94.38 149.69 93.86 148.67 94.23 C 147.65 94.61 147.12 95.74 147.50 96.76 Z M 147.83 97.65 L 148.14 98.49 C 148.51 99.51 149.63 100.04 150.65 99.67 C 151.67 99.30 152.20 98.18 151.83 97.16 L 151.52 96.31 C 151.15 95.29 150.03 94.77 149.01 95.13 C 147.99 95.50 147.46 96.63 147.83 97.65 Z M 148.15 98.48 L 148.44 99.29 C 148.80 100.31 149.92 100.83 150.93 100.47 C 151.95 100.11 152.47 98.99 152.11 97.98 L 151.82 97.17 C 151.46 96.15 150.34 95.63 149.33 95.99 C 148.31 96.35 147.78 97.47 148.15 98.48 Z M 148.44 99.28 L 148.74 100.12 C 149.10 101.13 150.21 101.66 151.22 101.30 C 152.23 100.94 152.76 99.83 152.40 98.82 L 152.10 97.98 C 151.74 96.97 150.63 96.45 149.62 96.80 C 148.61 97.16 148.09 98.27 148.44 99.28 Z M 148.75 100.11 L 149.07 101.00 C 149.42 102.00 150.52 102.53 151.53 102.17 C 152.53 101.82 153.06 100.72 152.70 99.71 L 152.39 98.83 C 152.03 97.82 150.93 97.29 149.93 97.65 C 148.92 98.01 148.40 99.11 148.75 100.11 Z M 149.08 101.00 L 149.42 101.96 C 149.77 102.96 150.86 103.48 151.86 103.13 C 152.86 102.77 153.39 101.68 153.03 100.68 L 152.69 99.72 C 152.34 98.72 151.24 98.19 150.24 98.55 C 149.25 98.90 148.72 100.00 149.08 101.00 Z M 149.43 101.95 L 149.80 103.01 C 150.15 104.00 151.24 104.52 152.24 104.17 C 153.23 103.82 153.75 102.73 153.40 101.74 L 153.02 100.68 C 152.67 99.69 151.58 99.17 150.59 99.52 C 149.59 99.87 149.07 100.96 149.43 101.95 Z M 149.81 103.01 L 150.23 104.18 C 150.58 105.17 151.66 105.68 152.65 105.33 C 153.64 104.98 154.15 103.90 153.80 102.91 L 153.38 101.74 C 153.03 100.75 151.95 100.24 150.96 100.59 C 149.98 100.94 149.46 102.02 149.81 103.01 Z M 150.24 104.18 L 150.55 105.05 C 150.90 106.03 151.98 106.54 152.96 106.19 C 153.94 105.84 154.45 104.77 154.10 103.79 L 153.79 102.91 C 153.44 101.93 152.36 101.42 151.38 101.77 C 150.40 102.12 149.89 103.20 150.24 104.18 Z M 150.56 105.05 L 150.89 105.97 C 151.24 106.95 152.31 107.45 153.28 107.11 C 154.26 106.76 154.77 105.69 154.42 104.71 L 154.09 103.79 C 153.74 102.81 152.67 102.31 151.70 102.65 C 150.72 103.00 150.21 104.07 150.56 105.05 Z M 150.90 105.97 L 151.24 106.93 C 151.59 107.90 152.65 108.40 153.62 108.06 C 154.59 107.71 155.10 106.65 154.75 105.68 L 154.41 104.72 C 154.07 103.75 153.00 103.24 152.03 103.59 C 151.06 103.93 150.55 105.00 150.90 105.97 Z M 151.25 106.92 L 151.60 107.91 C 151.94 108.87 153.00 109.37 153.97 109.03 C 154.93 108.69 155.44 107.63 155.09 106.67 L 154.74 105.68 C 154.40 104.72 153.34 104.21 152.38 104.55 C 151.41 104.90 150.91 105.96 151.25 106.92 Z M 151.61 107.90 L 151.96 108.89 C 152.30 109.85 153.35 110.36 154.31 110.02 C 155.27 109.68 155.77 108.63 155.44 107.67 L 155.08 106.67 C 154.74 105.71 153.69 105.21 152.73 105.55 C 151.77 105.89 151.27 106.94 151.61 107.90 Z M 151.97 108.89 L 152.32 109.88 C 152.65 110.83 153.70 111.34 154.65 111.00 C 155.61 110.67 156.11 109.62 155.77 108.67 L 155.43 107.67 C 155.09 106.72 154.05 106.22 153.09 106.55 C 152.14 106.89 151.63 107.93 151.97 108.89 Z M 152.32 109.87 L 152.66 110.84 C 152.99 111.79 154.03 112.30 154.98 111.97 C 155.93 111.64 156.43 110.60 156.10 109.65 L 155.77 108.67 C 155.44 107.72 154.40 107.22 153.45 107.55 C 152.50 107.88 151.99 108.92 152.32 109.87 Z M 152.67 110.83 L 152.99 111.78 C 153.32 112.72 154.35 113.23 155.30 112.90 C 156.24 112.58 156.75 111.55 156.42 110.60 L 156.10 109.66 C 155.77 108.71 154.74 108.21 153.80 108.53 C 152.85 108.86 152.35 109.89 152.67 110.83 Z M 153.00 111.77 L 153.30 112.67 C 153.62 113.61 154.64 114.12 155.59 113.80 C 156.53 113.48 157.04 112.46 156.72 111.52 L 156.41 110.62 C 156.10 109.67 155.08 109.17 154.13 109.48 C 153.19 109.80 152.68 110.82 153.00 111.77 Z M 153.32 112.65 L 153.65 113.67 C 153.96 114.61 154.97 115.12 155.90 114.81 C 156.84 114.51 157.35 113.50 157.04 112.56 L 156.71 111.54 C 156.40 110.60 155.39 110.09 154.45 110.40 C 153.52 110.70 153.01 111.71 153.32 112.65 Z M 153.67 113.65 L 154.03 114.79 C 154.33 115.72 155.31 116.23 156.24 115.94 C 157.16 115.65 157.68 114.66 157.39 113.73 L 157.02 112.59 C 156.73 111.66 155.74 111.15 154.82 111.44 C 153.89 111.73 153.38 112.72 153.67 113.65 Z M 154.06 114.76 L 154.37 115.79 C 154.65 116.70 155.61 117.22 156.52 116.94 C 157.43 116.67 157.94 115.71 157.67 114.80 L 157.36 113.77 C 157.08 112.86 156.12 112.34 155.21 112.62 C 154.30 112.89 153.79 113.85 154.06 114.76 Z M 154.40 115.76 L 154.67 116.70 C 154.93 117.59 155.86 118.11 156.76 117.85 C 157.65 117.60 158.17 116.66 157.91 115.77 L 157.64 114.83 C 157.38 113.93 156.45 113.42 155.55 113.67 C 154.66 113.93 154.14 114.86 154.40 115.76 Z M 154.70 116.67 L 154.94 117.54 C 155.18 118.42 156.09 118.94 156.97 118.70 C 157.85 118.45 158.36 117.55 158.12 116.67 L 157.88 115.80 C 157.64 114.92 156.73 114.40 155.85 114.64 C 154.97 114.88 154.46 115.79 154.70 116.67 Z M 154.97 117.52 L 155.19 118.35 C 155.42 119.21 156.30 119.72 157.17 119.49 C 158.03 119.26 158.54 118.38 158.31 117.51 L 158.09 116.69 C 157.86 115.83 156.98 115.31 156.11 115.54 C 155.25 115.77 154.74 116.66 154.97 117.52 Z M 155.22 118.33 L 155.40 119.04 C 155.62 119.89 156.49 120.39 157.34 120.17 C 158.18 119.95 158.69 119.09 158.47 118.24 L 158.28 117.53 C 158.06 116.68 157.20 116.18 156.35 116.40 C 155.50 116.62 155.00 117.48 155.22 118.33 Z"
      fill="black"
      fill-rule="nonzero" /><path d="M 115.09 120.35 L 113.77 120.68 C 112.89 120.89 112.35 121.78 112.56 122.66 C 112.78 123.54 113.67 124.08 114.55 123.87 L 115.87 123.54 C 116.76 123.33 117.30 122.44 117.08 121.56 C 116.86 120.68 115.97 120.14 115.09 120.35 Z M 113.75 120.66 L 112.48 120.98 C 111.59 121.20 111.05 122.11 111.27 123.00 C 111.49 123.89 112.40 124.43 113.29 124.20 L 114.56 123.89 C 115.45 123.66 115.99 122.76 115.77 121.87 C 115.55 120.98 114.64 120.44 113.75 120.66 Z M 112.45 120.97 L 111.28 121.27 C 110.38 121.51 109.84 122.43 110.08 123.33 C 110.32 124.23 111.24 124.77 112.14 124.53 L 113.31 124.22 C 114.21 123.98 114.75 123.06 114.51 122.16 C 114.27 121.26 113.35 120.73 112.45 120.97 Z M 111.24 121.27 L 110.21 121.56 C 109.31 121.82 108.79 122.76 109.05 123.67 C 109.31 124.57 110.25 125.09 111.15 124.83 L 112.18 124.54 C 113.08 124.28 113.60 123.33 113.34 122.43 C 113.08 121.53 112.14 121.01 111.24 121.27 Z M 110.14 121.56 L 109.31 121.84 C 108.41 122.14 107.93 123.12 108.23 124.02 C 108.53 124.92 109.51 125.41 110.41 125.11 L 111.23 124.83 C 112.13 124.53 112.62 123.55 112.32 122.65 C 112.02 121.75 111.04 121.26 110.14 121.56 Z M 109.16 121.88 L 108.59 122.13 C 107.71 122.51 107.31 123.54 107.69 124.42 C 108.08 125.30 109.11 125.71 109.99 125.32 L 110.56 125.07 C 111.44 124.68 111.84 123.65 111.46 122.77 C 111.07 121.89 110.04 121.49 109.16 121.88 Z M 108.13 122.40 L 107.85 122.64 C 107.12 123.28 107.04 124.40 107.69 125.13 C 108.33 125.86 109.44 125.93 110.17 125.29 L 110.45 125.05 C 111.18 124.41 111.26 123.29 110.62 122.56 C 109.97 121.83 108.86 121.75 108.13 122.40 Z M 107.69 125.17 L 107.94 125.43 C 108.60 126.16 109.73 126.22 110.45 125.55 C 111.18 124.89 111.24 123.76 110.58 123.04 L 110.33 122.77 C 109.67 122.04 108.54 121.98 107.81 122.65 C 107.08 123.31 107.03 124.44 107.69 125.17 Z M 108.82 125.98 L 109.62 126.19 C 110.59 126.43 111.57 125.84 111.81 124.88 C 112.05 123.91 111.47 122.93 110.50 122.69 L 109.70 122.48 C 108.73 122.24 107.75 122.83 107.51 123.79 C 107.26 124.76 107.85 125.74 108.82 125.98 Z M 109.84 126.25 L 111.02 126.40 C 112.02 126.52 112.93 125.81 113.05 124.81 C 113.18 123.81 112.47 122.90 111.47 122.77 L 110.29 122.63 C 109.29 122.50 108.37 123.21 108.25 124.21 C 108.13 125.21 108.84 126.12 109.84 126.25 Z M 111.11 126.42 L 112.48 126.53 C 113.50 126.60 114.39 125.84 114.46 124.82 C 114.54 123.81 113.77 122.92 112.76 122.85 L 111.38 122.74 C 110.36 122.67 109.48 123.43 109.40 124.45 C 109.33 125.46 110.09 126.35 111.11 126.42 Z M 112.53 126.54 L 113.63 126.60 C 114.66 126.65 115.53 125.86 115.58 124.83 C 115.63 123.81 114.84 122.93 113.82 122.88 L 112.71 122.83 C 111.69 122.78 110.81 123.57 110.76 124.59 C 110.71 125.62 111.50 126.49 112.53 126.54 Z M 113.66 126.61 L 114.66 126.64 C 115.69 126.67 116.56 125.87 116.59 124.84 C 116.63 123.81 115.82 122.94 114.79 122.91 L 113.79 122.87 C 112.76 122.84 111.89 123.65 111.86 124.68 C 111.82 125.71 112.63 126.57 113.66 126.61 Z M 114.68 126.65 L 115.68 126.67 C 116.71 126.69 117.57 125.87 117.59 124.84 C 117.61 123.80 116.79 122.95 115.76 122.92 L 114.77 122.90 C 113.73 122.88 112.88 123.70 112.85 124.73 C 112.83 125.77 113.65 126.62 114.68 126.65 Z M 115.70 126.67 L 116.69 126.68 C 117.72 126.70 118.57 125.87 118.59 124.83 C 118.60 123.79 117.77 122.94 116.73 122.93 L 115.74 122.92 C 114.70 122.91 113.85 123.74 113.84 124.77 C 113.83 125.81 114.66 126.66 115.70 126.67 Z M 116.70 126.69 L 117.69 126.69 C 118.73 126.70 119.58 125.86 119.59 124.82 C 119.59 123.78 118.75 122.94 117.71 122.93 L 116.72 122.93 C 115.68 122.92 114.83 123.76 114.83 124.80 C 114.82 125.84 115.66 126.68 116.70 126.69 Z M 117.70 126.70 L 118.71 126.70 C 119.75 126.70 120.59 125.86 120.60 124.82 C 120.60 123.77 119.75 122.93 118.71 122.93 L 117.71 122.93 C 116.66 122.92 115.82 123.77 115.82 124.81 C 115.82 125.85 116.66 126.70 117.70 126.70 Z M 118.71 126.71 L 119.69 126.71 C 120.74 126.71 121.59 125.86 121.59 124.81 C 121.59 123.77 120.74 122.92 119.69 122.92 L 118.71 122.92 C 117.66 122.92 116.82 123.77 116.82 124.81 C 116.82 125.86 117.66 126.71 118.71 126.71 Z M 119.69 126.71 L 120.67 126.71 C 121.72 126.71 122.57 125.86 122.57 124.81 C 122.57 123.77 121.72 122.92 120.67 122.92 L 119.69 122.92 C 118.65 122.92 117.80 123.77 117.80 124.81 C 117.80 125.86 118.65 126.71 119.69 126.71 Z M 120.67 126.72 L 121.66 126.72 C 122.71 126.72 123.56 125.86 123.56 124.81 C 123.56 123.76 122.71 122.91 121.66 122.91 L 120.67 122.91 C 119.62 122.91 118.77 123.76 118.77 124.81 C 118.77 125.86 119.62 126.72 120.67 126.72 Z M 121.66 126.72 L 122.66 126.72 C 123.71 126.72 124.57 125.87 124.57 124.81 C 124.57 123.76 123.71 122.91 122.66 122.91 L 121.66 122.91 C 120.61 122.91 119.75 123.76 119.75 124.81 C 119.75 125.87 120.61 126.72 121.66 126.72 Z M 122.66 126.72 L 123.67 126.72 C 124.73 126.72 125.58 125.87 125.58 124.81 C 125.58 123.76 124.73 122.90 123.67 122.90 L 122.66 122.90 C 121.61 122.90 120.75 123.76 120.75 124.81 C 120.75 125.87 121.61 126.72 122.66 126.72 Z M 123.67 126.73 L 124.69 126.73 C 125.75 126.73 126.60 125.87 126.60 124.81 C 126.60 123.76 125.75 122.90 124.69 122.90 L 123.67 122.90 C 122.61 122.90 121.76 123.76 121.76 124.81 C 121.76 125.87 122.61 126.73 123.67 126.73 Z M 124.69 126.73 L 125.71 126.73 C 126.77 126.73 127.63 125.87 127.63 124.81 C 127.63 123.75 126.77 122.90 125.71 122.90 L 124.69 122.90 C 123.63 122.90 122.77 123.75 122.77 124.81 C 122.77 125.87 123.63 126.73 124.69 126.73 Z M 125.71 126.74 L 126.70 126.74 C 127.76 126.74 128.62 125.87 128.62 124.81 C 128.62 123.75 127.76 122.89 126.70 122.89 L 125.71 122.89 C 124.65 122.89 123.79 123.75 123.79 124.82 C 123.79 125.88 124.65 126.74 125.71 126.74 Z M 126.71 126.74 L 127.70 126.73 C 128.76 126.73 129.62 125.86 129.61 124.80 C 129.61 123.74 128.74 122.88 127.68 122.88 L 126.69 122.89 C 125.63 122.89 124.77 123.76 124.77 124.82 C 124.78 125.89 125.64 126.74 126.71 126.74 Z M 127.71 126.74 L 128.71 126.73 C 129.77 126.71 130.62 125.84 130.61 124.78 C 130.60 123.71 129.73 122.86 128.66 122.87 L 127.67 122.88 C 126.60 122.89 125.75 123.77 125.76 124.83 C 125.77 125.90 126.65 126.75 127.71 126.74 Z M 128.73 126.73 L 129.73 126.71 C 130.79 126.68 131.64 125.80 131.61 124.73 C 131.59 123.67 130.71 122.82 129.64 122.85 L 128.64 122.87 C 127.58 122.89 126.73 123.77 126.75 124.84 C 126.78 125.91 127.66 126.75 128.73 126.73 Z M 129.75 126.71 L 130.76 126.67 C 131.83 126.63 132.66 125.74 132.62 124.67 C 132.58 123.60 131.69 122.77 130.62 122.81 L 129.62 122.84 C 128.55 122.88 127.71 123.78 127.75 124.85 C 127.79 125.91 128.69 126.75 129.75 126.71 Z M 130.79 126.67 L 131.80 126.62 C 132.87 126.56 133.69 125.65 133.63 124.59 C 133.58 123.52 132.66 122.70 131.60 122.75 L 130.59 122.81 C 129.52 122.86 128.70 123.77 128.76 124.84 C 128.81 125.91 129.72 126.73 130.79 126.67 Z M 131.84 126.62 L 132.85 126.55 C 133.92 126.47 134.72 125.54 134.64 124.47 C 134.57 123.40 133.64 122.60 132.57 122.68 L 131.56 122.75 C 130.49 122.83 129.69 123.76 129.77 124.83 C 129.84 125.90 130.77 126.70 131.84 126.62 Z M 132.89 126.54 L 133.90 126.45 C 134.97 126.35 135.75 125.40 135.65 124.33 C 135.55 123.27 134.60 122.49 133.53 122.59 L 132.53 122.68 C 131.46 122.78 130.68 123.73 130.78 124.80 C 130.88 125.86 131.83 126.65 132.89 126.54 Z M 133.94 126.45 L 134.95 126.33 C 136.01 126.21 136.78 125.24 136.65 124.18 C 136.53 123.11 135.57 122.35 134.50 122.47 L 133.49 122.59 C 132.43 122.71 131.67 123.68 131.79 124.74 C 131.91 125.81 132.88 126.57 133.94 126.45 Z M 134.98 126.33 L 135.99 126.19 C 137.05 126.05 137.79 125.07 137.65 124.01 C 137.51 122.94 136.53 122.20 135.47 122.34 L 134.47 122.48 C 133.40 122.62 132.66 123.60 132.80 124.66 C 132.94 125.72 133.92 126.47 134.98 126.33 Z M 136.02 126.19 L 137.01 126.04 C 138.07 125.87 138.80 124.88 138.64 123.82 C 138.48 122.76 137.49 122.03 136.43 122.19 L 135.43 122.35 C 134.37 122.51 133.64 123.50 133.81 124.56 C 133.97 125.62 134.96 126.35 136.02 126.19 Z M 137.05 126.03 L 138.03 125.87 C 139.09 125.69 139.80 124.68 139.62 123.62 C 139.44 122.57 138.44 121.85 137.38 122.03 L 136.40 122.20 C 135.34 122.38 134.63 123.38 134.80 124.44 C 134.98 125.50 135.99 126.21 137.05 126.03 Z M 138.06 125.86 L 139.02 125.68 C 140.08 125.49 140.78 124.47 140.58 123.42 C 140.39 122.36 139.37 121.66 138.31 121.86 L 137.35 122.04 C 136.29 122.23 135.59 123.25 135.79 124.30 C 135.99 125.36 137.00 126.06 138.06 125.86 Z M 139.05 125.68 L 140.03 125.48 C 141.08 125.27 141.76 124.25 141.55 123.19 C 141.34 122.14 140.31 121.46 139.26 121.67 L 138.29 121.86 C 137.23 122.07 136.55 123.10 136.76 124.15 C 136.97 125.21 138.00 125.89 139.05 125.68 Z M 140.05 125.48 L 141.07 125.26 C 142.12 125.03 142.79 124.00 142.56 122.94 C 142.33 121.89 141.30 121.23 140.25 121.45 L 139.23 121.67 C 138.18 121.90 137.51 122.94 137.74 123.99 C 137.97 125.04 139.00 125.70 140.05 125.48 Z M 141.10 125.25 L 142.09 125.02 C 143.13 124.78 143.79 123.74 143.54 122.69 C 143.30 121.64 142.26 120.99 141.21 121.23 L 140.22 121.46 C 139.17 121.70 138.52 122.75 138.76 123.79 C 139.00 124.84 140.05 125.50 141.10 125.25 Z M 142.11 125.02 L 143.08 124.78 C 144.13 124.52 144.77 123.47 144.51 122.42 C 144.25 121.38 143.20 120.74 142.15 121.00 L 141.18 121.24 C 140.14 121.49 139.50 122.55 139.76 123.59 C 140.01 124.64 141.07 125.27 142.11 125.02 Z M 143.10 124.77 L 144.06 124.53 C 145.10 124.26 145.73 123.20 145.46 122.15 C 145.19 121.11 144.13 120.49 143.09 120.76 L 142.13 121.00 C 141.09 121.27 140.46 122.33 140.73 123.38 C 141.00 124.42 142.06 125.04 143.10 124.77 Z M 144.08 124.52 L 145.02 124.27 C 146.06 123.99 146.68 122.92 146.40 121.88 C 146.12 120.84 145.05 120.23 144.01 120.51 L 143.07 120.76 C 142.03 121.04 141.41 122.11 141.69 123.15 C 141.97 124.19 143.04 124.80 144.08 124.52 Z M 145.04 124.26 L 145.97 124.00 C 147.01 123.72 147.61 122.64 147.32 121.60 C 147.04 120.57 145.96 119.96 144.92 120.25 L 143.99 120.51 C 142.95 120.80 142.35 121.88 142.64 122.91 C 142.93 123.95 144.00 124.55 145.04 124.26 Z M 145.99 124.00 L 146.95 123.72 C 147.99 123.43 148.58 122.35 148.29 121.31 C 147.99 120.28 146.91 119.68 145.88 119.98 L 144.91 120.25 C 143.88 120.55 143.28 121.63 143.58 122.67 C 143.87 123.70 144.95 124.30 145.99 124.00 Z M 146.96 123.72 L 147.93 123.44 C 148.96 123.13 149.55 122.05 149.24 121.02 C 148.94 119.98 147.85 119.39 146.82 119.70 L 145.86 119.98 C 144.83 120.29 144.24 121.37 144.54 122.40 C 144.85 123.43 145.93 124.02 146.96 123.72 Z M 147.94 123.43 L 148.89 123.14 C 149.92 122.83 150.51 121.74 150.19 120.71 C 149.88 119.68 148.80 119.10 147.77 119.41 L 146.81 119.70 C 145.78 120.01 145.20 121.10 145.51 122.13 C 145.82 123.16 146.91 123.74 147.94 123.43 Z M 148.91 123.14 L 149.86 122.84 C 150.89 122.52 151.46 121.43 151.14 120.41 C 150.83 119.38 149.73 118.80 148.71 119.12 L 147.75 119.42 C 146.73 119.74 146.15 120.83 146.47 121.85 C 146.79 122.88 147.88 123.46 148.91 123.14 Z M 149.87 122.84 L 150.82 122.54 C 151.85 122.21 152.42 121.12 152.09 120.09 C 151.77 119.07 150.67 118.50 149.65 118.82 L 148.70 119.13 C 147.67 119.45 147.10 120.55 147.43 121.57 C 147.75 122.60 148.85 123.16 149.87 122.84 Z M 150.83 122.53 L 151.78 122.23 C 152.81 121.90 153.37 120.80 153.04 119.77 C 152.71 118.75 151.61 118.19 150.59 118.52 L 149.64 118.83 C 148.61 119.16 148.05 120.26 148.38 121.28 C 148.71 122.30 149.81 122.87 150.83 122.53 Z M 151.80 122.22 L 152.76 121.90 C 153.78 121.57 154.34 120.46 154.00 119.44 C 153.66 118.42 152.56 117.87 151.54 118.21 L 150.58 118.53 C 149.55 118.86 149.00 119.96 149.34 120.98 C 149.67 122.00 150.77 122.56 151.80 122.22 Z M 152.77 121.90 L 153.74 121.57 C 154.76 121.23 155.30 120.13 154.96 119.11 C 154.62 118.09 153.51 117.54 152.50 117.89 L 151.53 118.21 C 150.52 118.56 149.97 119.66 150.31 120.67 C 150.65 121.69 151.76 122.24 152.77 121.90 Z M 153.75 121.56 L 154.71 121.24 C 155.72 120.89 156.26 119.78 155.91 118.77 C 155.56 117.75 154.45 117.22 153.44 117.57 L 152.49 117.89 C 151.47 118.24 150.93 119.35 151.28 120.36 C 151.63 121.37 152.74 121.91 153.75 121.56 Z M 154.72 121.23 L 155.66 120.90 C 156.67 120.54 157.20 119.43 156.84 118.42 C 156.49 117.41 155.38 116.88 154.37 117.24 L 153.43 117.57 C 152.42 117.93 151.89 119.03 152.25 120.04 C 152.60 121.05 153.71 121.58 154.72 121.23 Z M 155.67 120.89 L 156.60 120.55 C 157.60 120.19 158.13 119.08 157.76 118.08 C 157.40 117.07 156.29 116.55 155.29 116.91 L 154.36 117.25 C 153.35 117.61 152.83 118.72 153.20 119.72 C 153.56 120.73 154.67 121.25 155.67 120.89 Z M 156.61 120.55 L 157.51 120.21 C 158.52 119.84 159.03 118.73 158.66 117.73 C 158.28 116.73 157.17 116.22 156.17 116.59 L 155.27 116.92 C 154.27 117.29 153.76 118.40 154.13 119.40 C 154.50 120.41 155.61 120.92 156.61 120.55 Z M 157.53 120.20 L 158.36 119.89 C 159.35 119.51 159.85 118.39 159.47 117.40 C 159.09 116.40 157.98 115.90 156.98 116.28 L 156.16 116.60 C 155.16 116.98 154.66 118.09 155.04 119.09 C 155.42 120.08 156.53 120.58 157.53 120.20 Z M 158.38 119.88 L 159.21 119.55 C 160.20 119.16 160.69 118.04 160.29 117.05 C 159.90 116.06 158.78 115.57 157.79 115.96 L 156.96 116.29 C 155.97 116.68 155.48 117.80 155.88 118.79 C 156.27 119.78 157.39 120.27 158.38 119.88 Z M 159.23 119.54 L 160.09 119.19 C 161.07 118.79 161.54 117.66 161.14 116.68 C 160.74 115.69 159.61 115.22 158.63 115.62 L 157.77 115.97 C 156.78 116.38 156.31 117.50 156.72 118.49 C 157.12 119.47 158.24 119.95 159.23 119.54 Z M 160.11 119.18 L 161.01 118.80 C 161.99 118.38 162.45 117.25 162.03 116.27 C 161.62 115.29 160.49 114.83 159.51 115.25 L 158.60 115.63 C 157.62 116.05 157.17 117.18 157.58 118.16 C 158.00 119.14 159.13 119.60 160.11 119.18 Z M 161.04 118.79 L 162.01 118.35 C 162.99 117.93 163.43 116.79 163.00 115.82 C 162.57 114.84 161.44 114.40 160.46 114.83 L 159.49 115.26 C 158.51 115.69 158.07 116.82 158.50 117.80 C 158.93 118.77 160.06 119.21 161.04 118.79 Z M 162.03 118.34 L 163.11 117.86 C 164.08 117.42 164.51 116.28 164.07 115.31 C 163.63 114.34 162.49 113.91 161.52 114.35 L 160.44 114.84 C 159.48 115.28 159.05 116.42 159.49 117.39 C 159.93 118.35 161.07 118.78 162.03 118.34 Z M 163.12 117.85 L 164.05 117.42 C 165.01 116.98 165.43 115.83 164.98 114.87 C 164.53 113.90 163.39 113.48 162.43 113.93 L 161.50 114.36 C 160.54 114.81 160.12 115.95 160.57 116.91 C 161.02 117.88 162.16 118.30 163.12 117.85 Z M 164.05 117.42 L 164.93 117.01 C 165.90 116.56 166.31 115.41 165.86 114.45 C 165.40 113.48 164.26 113.07 163.30 113.52 L 162.42 113.93 C 161.45 114.39 161.04 115.53 161.49 116.50 C 161.94 117.46 163.09 117.87 164.05 117.42 Z M 164.94 117.01 L 165.85 116.57 C 166.82 116.12 167.23 114.97 166.77 114.01 C 166.32 113.05 165.17 112.63 164.21 113.09 L 163.29 113.52 C 162.33 113.98 161.92 115.13 162.37 116.09 C 162.83 117.05 163.98 117.46 164.94 117.01 Z M 165.86 116.57 L 166.80 116.13 C 167.76 115.67 168.17 114.52 167.72 113.56 C 167.26 112.60 166.11 112.19 165.15 112.64 L 164.21 113.09 C 163.24 113.54 162.83 114.69 163.29 115.66 C 163.74 116.62 164.89 117.03 165.86 116.57 Z M 166.80 116.13 L 167.75 115.68 C 168.71 115.23 169.12 114.08 168.67 113.11 C 168.21 112.15 167.06 111.74 166.10 112.19 L 165.15 112.64 C 164.18 113.10 163.77 114.25 164.23 115.21 C 164.68 116.17 165.83 116.59 166.80 116.13 Z M 167.74 115.69 L 168.69 115.24 C 169.66 114.79 170.08 113.64 169.62 112.67 C 169.17 111.71 168.02 111.29 167.05 111.74 L 166.10 112.19 C 165.14 112.64 164.72 113.79 165.17 114.76 C 165.63 115.72 166.78 116.14 167.74 115.69 Z M 168.69 115.25 L 169.62 114.81 C 170.59 114.36 171.01 113.21 170.56 112.25 C 170.11 111.28 168.96 110.86 167.99 111.30 L 167.06 111.74 C 166.09 112.19 165.67 113.34 166.12 114.30 C 166.57 115.27 167.72 115.69 168.69 115.25 Z M 169.61 114.82 L 170.51 114.41 C 171.49 113.96 171.92 112.82 171.47 111.84 C 171.03 110.87 169.88 110.44 168.91 110.89 L 168.00 111.30 C 167.03 111.74 166.60 112.89 167.05 113.86 C 167.49 114.83 168.64 115.26 169.61 114.82 Z M 170.50 114.42 L 171.36 114.03 C 172.34 113.60 172.78 112.45 172.34 111.48 C 171.91 110.50 170.76 110.06 169.78 110.49 L 168.92 110.88 C 167.95 111.31 167.51 112.46 167.94 113.43 C 168.38 114.41 169.52 114.85 170.50 114.42 Z M 171.33 114.05 L 172.51 113.55 C 173.49 113.13 173.95 111.99 173.53 111.00 C 173.11 110.02 171.97 109.56 170.99 109.98 L 169.81 110.48 C 168.82 110.90 168.36 112.04 168.78 113.02 C 169.20 114.01 170.35 114.47 171.33 114.05 Z M 172.44 113.59 L 173.65 113.13 C 174.66 112.75 175.17 111.62 174.78 110.61 C 174.40 109.60 173.27 109.09 172.26 109.48 L 171.05 109.94 C 170.04 110.32 169.53 111.45 169.92 112.46 C 170.30 113.47 171.43 113.97 172.44 113.59 Z M 173.50 113.20 L 174.53 112.90 C 175.57 112.60 176.17 111.50 175.87 110.46 C 175.57 109.41 174.48 108.81 173.43 109.12 L 172.41 109.41 C 171.36 109.72 170.76 110.81 171.06 111.85 C 171.37 112.90 172.46 113.50 173.50 113.20 Z M 174.24 112.98 L 175.08 112.87 C 176.16 112.72 176.93 111.72 176.79 110.64 C 176.64 109.55 175.64 108.79 174.56 108.93 L 173.72 109.04 C 172.63 109.18 171.87 110.18 172.01 111.27 C 172.15 112.35 173.15 113.12 174.24 112.98 Z M 174.52 112.88 L 175.18 112.97 C 176.27 113.14 177.29 112.39 177.45 111.29 C 177.62 110.20 176.86 109.18 175.77 109.02 L 175.12 108.92 C 174.02 108.76 173.00 109.51 172.84 110.60 C 172.68 111.69 173.43 112.71 174.52 112.88 Z M 174.28 112.62 L 174.79 112.99 C 175.69 113.65 176.95 113.46 177.61 112.57 C 178.27 111.67 178.08 110.41 177.18 109.76 L 176.67 109.38 C 175.77 108.72 174.51 108.91 173.85 109.80 C 173.19 110.70 173.38 111.96 174.28 112.62 Z M 174.15 112.21 L 174.48 112.94 C 174.94 113.95 176.13 114.40 177.15 113.94 C 178.17 113.48 178.62 112.29 178.16 111.27 L 177.83 110.54 C 177.37 109.53 176.17 109.08 175.15 109.54 C 174.14 110.00 173.69 111.19 174.15 112.21 Z M 174.31 112.33 L 174.42 113.30 C 174.54 114.41 175.55 115.21 176.66 115.09 C 177.77 114.96 178.56 113.96 178.44 112.85 L 178.33 111.87 C 178.20 110.76 177.20 109.97 176.09 110.09 C 174.98 110.22 174.18 111.22 174.31 112.33 Z M 174.40 112.94 L 174.33 114.08 C 174.26 115.19 175.11 116.16 176.22 116.23 C 177.34 116.30 178.30 115.46 178.38 114.34 L 178.45 113.21 C 178.52 112.09 177.68 111.12 176.56 111.05 C 175.44 110.98 174.48 111.83 174.40 112.94 Z M 174.36 113.85 L 174.15 114.99 C 173.95 116.09 174.68 117.14 175.79 117.34 C 176.89 117.54 177.95 116.81 178.15 115.71 L 178.35 114.57 C 178.55 113.47 177.82 112.41 176.72 112.21 C 175.61 112.01 174.56 112.74 174.36 113.85 Z M 174.18 114.83 L 173.95 115.73 C 173.66 116.81 174.31 117.93 175.40 118.21 C 176.48 118.49 177.59 117.84 177.88 116.76 L 178.11 115.86 C 178.40 114.78 177.75 113.67 176.66 113.38 C 175.58 113.10 174.47 113.75 174.18 114.83 Z M 173.98 115.62 L 173.69 116.53 C 173.34 117.60 173.93 118.74 175.00 119.09 C 176.06 119.43 177.21 118.85 177.55 117.78 L 177.85 116.87 C 178.19 115.80 177.61 114.65 176.54 114.31 C 175.47 113.96 174.32 114.55 173.98 115.62 Z M 173.71 116.44 L 173.37 117.37 C 172.98 118.42 173.51 119.59 174.56 119.98 C 175.61 120.38 176.79 119.84 177.18 118.79 L 177.53 117.86 C 177.92 116.81 177.38 115.64 176.33 115.25 C 175.28 114.85 174.11 115.39 173.71 116.44 Z M 173.39 117.30 L 173.00 118.24 C 172.57 119.28 173.06 120.47 174.10 120.90 C 175.14 121.33 176.33 120.84 176.76 119.80 L 177.15 118.86 C 177.58 117.82 177.09 116.63 176.05 116.20 C 175.02 115.77 173.83 116.26 173.39 117.30 Z M 173.02 118.19 L 172.59 119.17 C 172.13 120.19 172.59 121.40 173.62 121.85 C 174.64 122.31 175.85 121.85 176.30 120.83 L 176.74 119.86 C 177.20 118.83 176.74 117.62 175.71 117.17 C 174.69 116.71 173.48 117.17 173.02 118.19 Z M 172.60 119.13 L 172.17 120.05 C 171.69 121.07 172.13 122.28 173.15 122.76 C 174.17 123.24 175.38 122.80 175.86 121.78 L 176.29 120.86 C 176.77 119.84 176.33 118.63 175.31 118.15 C 174.29 117.67 173.08 118.11 172.60 119.13 Z M 172.18 120.03 L 171.78 120.85 C 171.29 121.87 171.72 123.09 172.73 123.58 C 173.74 124.07 174.96 123.64 175.45 122.63 L 175.85 121.80 C 176.34 120.79 175.92 119.57 174.90 119.08 C 173.89 118.59 172.67 119.02 172.18 120.03 Z M 171.79 120.83 L 171.37 121.68 C 170.87 122.69 171.28 123.91 172.29 124.41 C 173.29 124.91 174.52 124.50 175.02 123.50 L 175.44 122.65 C 175.94 121.64 175.53 120.42 174.52 119.92 C 173.52 119.42 172.29 119.83 171.79 120.83 Z M 171.38 121.66 L 170.93 122.53 C 170.42 123.53 170.82 124.76 171.82 125.27 C 172.83 125.79 174.05 125.39 174.57 124.38 L 175.01 123.52 C 175.52 122.51 175.12 121.28 174.12 120.77 C 173.12 120.26 171.89 120.66 171.38 121.66 Z M 170.94 122.51 L 170.48 123.41 C 169.96 124.40 170.34 125.64 171.34 126.16 C 172.34 126.68 173.57 126.29 174.09 125.30 L 174.56 124.40 C 175.08 123.40 174.69 122.17 173.70 121.65 C 172.70 121.13 171.47 121.51 170.94 122.51 Z M 170.49 123.39 L 170.00 124.30 C 169.46 125.30 169.84 126.53 170.83 127.06 C 171.83 127.60 173.06 127.22 173.59 126.23 L 174.08 125.31 C 174.61 124.32 174.24 123.08 173.25 122.55 C 172.25 122.02 171.02 122.39 170.49 123.39 Z M 170.00 124.29 L 169.49 125.23 C 168.95 126.22 169.31 127.46 170.30 128.00 C 171.29 128.54 172.53 128.17 173.07 127.19 L 173.58 126.25 C 174.13 125.26 173.76 124.02 172.77 123.48 C 171.78 122.93 170.54 123.30 170.00 124.29 Z M 169.50 125.21 L 168.98 126.14 C 168.43 127.12 168.78 128.37 169.77 128.92 C 170.75 129.47 171.99 129.11 172.54 128.13 L 173.06 127.20 C 173.61 126.22 173.26 124.97 172.28 124.42 C 171.29 123.87 170.05 124.23 169.50 125.21 Z M 168.99 126.13 L 168.56 126.88 C 168.00 127.86 168.35 129.10 169.33 129.66 C 170.31 130.22 171.55 129.87 172.11 128.89 L 172.54 128.14 C 173.09 127.16 172.75 125.92 171.77 125.36 C 170.79 124.80 169.54 125.15 168.99 126.13 Z M 168.57 126.86 L 168.12 127.63 C 167.56 128.61 167.90 129.86 168.87 130.42 C 169.85 130.98 171.10 130.65 171.66 129.67 L 172.10 128.90 C 172.67 127.93 172.33 126.68 171.35 126.11 C 170.38 125.55 169.13 125.89 168.57 126.86 Z M 168.13 127.62 L 167.67 128.41 C 167.10 129.39 167.43 130.64 168.40 131.20 C 169.38 131.77 170.63 131.44 171.20 130.47 L 171.66 129.68 C 172.22 128.71 171.90 127.46 170.92 126.89 C 169.95 126.32 168.70 126.65 168.13 127.62 Z M 167.67 128.40 L 167.19 129.22 C 166.62 130.19 166.94 131.44 167.91 132.01 C 168.88 132.59 170.14 132.27 170.71 131.29 L 171.19 130.48 C 171.76 129.51 171.44 128.26 170.47 127.68 C 169.50 127.11 168.25 127.43 167.67 128.40 Z M 167.20 129.21 L 166.70 130.05 C 166.12 131.02 166.43 132.27 167.40 132.85 C 168.37 133.43 169.62 133.11 170.20 132.15 L 170.70 131.30 C 171.28 130.33 170.97 129.08 170.00 128.50 C 169.03 127.93 167.78 128.24 167.20 129.21 Z M 166.70 130.05 L 166.17 130.92 C 165.59 131.89 165.90 133.14 166.87 133.72 C 167.84 134.30 169.09 133.99 169.67 133.03 L 170.20 132.15 C 170.78 131.19 170.47 129.93 169.50 129.35 C 168.54 128.77 167.28 129.08 166.70 130.05 Z M 166.18 130.91 L 165.63 131.82 C 165.04 132.79 165.35 134.04 166.31 134.63 C 167.27 135.21 168.53 134.91 169.12 133.94 L 169.67 133.03 C 170.25 132.07 169.95 130.81 168.98 130.23 C 168.02 129.64 166.76 129.95 166.18 130.91 Z M 165.63 131.82 L 165.05 132.77 C 164.46 133.73 164.76 134.98 165.73 135.57 C 166.69 136.16 167.94 135.86 168.53 134.90 L 169.11 133.95 C 169.70 132.99 169.40 131.73 168.44 131.14 C 167.47 130.55 166.22 130.86 165.63 131.82 Z M 165.05 132.76 L 164.44 133.75 C 163.85 134.71 164.15 135.97 165.11 136.56 C 166.07 137.15 167.33 136.85 167.92 135.89 L 168.53 134.90 C 169.12 133.94 168.82 132.68 167.86 132.09 C 166.90 131.50 165.64 131.80 165.05 132.76 Z M 164.45 133.75 L 163.90 134.63 C 163.31 135.58 163.61 136.84 164.57 137.44 C 165.52 138.03 166.78 137.73 167.38 136.77 L 167.92 135.89 C 168.51 134.93 168.22 133.68 167.26 133.08 C 166.30 132.49 165.04 132.79 164.45 133.75 Z M 163.90 134.62 L 163.40 135.43 C 162.81 136.39 163.10 137.65 164.06 138.24 C 165.02 138.84 166.28 138.54 166.87 137.58 L 167.37 136.77 C 167.97 135.82 167.67 134.56 166.72 133.96 C 165.76 133.37 164.50 133.66 163.90 134.62 Z M 163.40 135.43 L 162.89 136.26 C 162.29 137.22 162.58 138.48 163.54 139.07 C 164.50 139.67 165.76 139.37 166.35 138.42 L 166.87 137.59 C 167.47 136.63 167.17 135.37 166.21 134.78 C 165.26 134.18 164.00 134.47 163.40 135.43 Z M 162.89 136.26 L 162.36 137.11 C 161.76 138.06 162.06 139.32 163.01 139.92 C 163.97 140.51 165.23 140.22 165.82 139.27 L 166.35 138.42 C 166.95 137.46 166.66 136.20 165.70 135.61 C 164.74 135.01 163.48 135.30 162.89 136.26 Z M 162.36 137.10 L 161.82 137.96 C 161.23 138.92 161.52 140.18 162.47 140.78 C 163.43 141.37 164.69 141.08 165.29 140.13 L 165.82 139.27 C 166.42 138.31 166.13 137.05 165.17 136.46 C 164.22 135.86 162.96 136.15 162.36 137.10 Z M 161.82 137.96 L 161.28 138.83 C 160.68 139.79 160.97 141.05 161.93 141.64 C 162.88 142.24 164.14 141.95 164.74 141.00 L 165.28 140.13 C 165.88 139.17 165.59 137.91 164.64 137.32 C 163.68 136.72 162.42 137.01 161.82 137.96 Z M 161.28 138.83 L 160.74 139.70 C 160.14 140.66 160.43 141.92 161.38 142.52 C 162.34 143.11 163.59 142.83 164.19 141.87 L 164.74 141.00 C 165.34 140.04 165.05 138.78 164.10 138.18 C 163.14 137.59 161.88 137.87 161.28 138.83 Z M 160.74 139.70 L 160.19 140.57 C 159.59 141.53 159.88 142.79 160.83 143.39 C 161.79 143.99 163.04 143.70 163.64 142.74 L 164.19 141.87 C 164.79 140.92 164.50 139.66 163.55 139.06 C 162.60 138.46 161.34 138.75 160.74 139.70 Z M 160.19 140.57 L 159.64 141.44 C 159.04 142.40 159.33 143.66 160.28 144.26 C 161.24 144.86 162.50 144.57 163.10 143.62 L 163.64 142.75 C 164.24 141.79 163.96 140.53 163.00 139.93 C 162.05 139.33 160.79 139.62 160.19 140.57 Z M 159.64 141.44 L 159.10 142.31 C 158.50 143.26 158.79 144.52 159.74 145.12 C 160.69 145.72 161.95 145.43 162.55 144.48 L 163.10 143.62 C 163.70 142.66 163.41 141.40 162.46 140.80 C 161.50 140.20 160.24 140.49 159.64 141.44 Z M 159.10 142.31 L 158.56 143.16 C 157.96 144.11 158.25 145.37 159.20 145.97 C 160.16 146.57 161.42 146.29 162.02 145.33 L 162.55 144.48 C 163.15 143.53 162.87 142.27 161.91 141.67 C 160.96 141.07 159.70 141.35 159.10 142.31 Z M 158.56 143.16 L 158.04 143.99 C 157.43 144.95 157.72 146.21 158.67 146.81 C 159.63 147.41 160.89 147.12 161.49 146.17 L 162.02 145.33 C 162.62 144.38 162.33 143.12 161.38 142.52 C 160.42 141.92 159.16 142.20 158.56 143.16 Z M 158.04 143.99 L 157.51 144.83 C 156.91 145.78 157.19 147.04 158.15 147.64 C 159.10 148.25 160.36 147.96 160.96 147.01 L 161.49 146.17 C 162.09 145.22 161.80 143.96 160.85 143.36 C 159.90 142.75 158.64 143.04 158.04 143.99 Z M 157.51 144.83 L 156.87 145.84 C 156.27 146.79 156.56 148.05 157.51 148.65 C 158.46 149.25 159.72 148.97 160.32 148.01 L 160.96 147.01 C 161.56 146.05 161.28 144.79 160.32 144.19 C 159.37 143.59 158.11 143.88 157.51 144.83 Z M 156.88 145.84 L 156.26 146.81 C 155.66 147.76 155.95 149.02 156.90 149.62 C 157.85 150.22 159.11 149.94 159.71 148.98 L 160.32 148.01 C 160.92 147.06 160.64 145.80 159.69 145.20 C 158.73 144.60 157.48 144.89 156.88 145.84 Z M 156.26 146.81 L 155.67 147.74 C 155.07 148.70 155.36 149.95 156.31 150.55 C 157.26 151.15 158.52 150.87 159.12 149.92 L 159.71 148.98 C 160.31 148.03 160.03 146.77 159.07 146.17 C 158.12 145.57 156.86 145.86 156.26 146.81 Z M 155.68 147.75 L 155.11 148.64 C 154.51 149.59 154.79 150.85 155.75 151.45 C 156.70 152.05 157.95 151.77 158.55 150.81 L 159.12 149.92 C 159.72 148.97 159.43 147.71 158.48 147.11 C 157.53 146.51 156.28 146.79 155.68 147.75 Z M 155.11 148.64 L 154.57 149.50 C 153.97 150.45 154.25 151.71 155.20 152.31 C 156.16 152.91 157.41 152.62 158.01 151.67 L 158.55 150.81 C 159.15 149.86 158.87 148.61 157.92 148.01 C 156.97 147.41 155.71 147.69 155.11 148.64 Z M 154.57 149.50 L 154.05 150.33 C 153.45 151.28 153.74 152.53 154.69 153.13 C 155.64 153.73 156.89 153.44 157.49 152.49 L 158.01 151.67 C 158.61 150.72 158.32 149.47 157.37 148.87 C 156.42 148.27 155.17 148.55 154.57 149.50 Z M 154.05 150.33 L 153.56 151.11 C 152.96 152.06 153.24 153.32 154.19 153.91 C 155.14 154.51 156.40 154.23 157.00 153.28 L 157.49 152.49 C 158.09 151.54 157.80 150.29 156.85 149.69 C 155.90 149.09 154.65 149.38 154.05 150.33 Z M 153.56 151.11 L 153.09 151.86 C 152.49 152.81 152.78 154.06 153.73 154.66 C 154.67 155.26 155.93 154.97 156.53 154.02 L 157.00 153.28 C 157.59 152.33 157.31 151.07 156.36 150.48 C 155.41 149.88 154.16 150.17 153.56 151.11 Z M 153.09 151.86 L 152.64 152.57 C 152.05 153.52 152.33 154.77 153.28 155.37 C 154.23 155.97 155.48 155.68 156.08 154.73 L 156.53 154.02 C 157.12 153.07 156.84 151.82 155.89 151.22 C 154.94 150.63 153.69 150.91 153.09 151.86 Z M 152.64 152.57 L 152.18 153.31 C 151.59 154.26 151.87 155.51 152.82 156.11 C 153.77 156.70 155.02 156.41 155.62 155.47 L 156.08 154.73 C 156.67 153.78 156.39 152.53 155.44 151.93 C 154.49 151.34 153.24 151.63 152.64 152.57 Z M 152.18 153.31 L 151.61 154.22 C 151.02 155.17 151.31 156.42 152.26 157.01 C 153.20 157.61 154.45 157.32 155.05 156.37 L 155.62 155.46 C 156.21 154.51 155.92 153.26 154.97 152.67 C 154.03 152.08 152.78 152.36 152.18 153.31 Z M 151.62 154.22 L 151.08 155.08 C 150.49 156.02 150.78 157.27 151.73 157.86 C 152.67 158.46 153.92 158.17 154.51 157.22 L 155.05 156.37 C 155.64 155.42 155.35 154.17 154.40 153.58 C 153.46 152.99 152.21 153.28 151.62 154.22 Z M 151.09 155.08 L 150.57 155.90 C 149.98 156.84 150.27 158.09 151.22 158.68 C 152.16 159.27 153.41 158.98 154.00 158.04 L 154.51 157.22 C 155.10 156.27 154.81 155.03 153.87 154.44 C 152.92 153.85 151.68 154.13 151.09 155.08 Z M 150.58 155.90 L 150.07 156.70 C 149.48 157.64 149.77 158.89 150.71 159.48 C 151.65 160.07 152.90 159.79 153.49 158.84 L 153.99 158.04 C 154.59 157.09 154.30 155.85 153.36 155.26 C 152.41 154.67 151.17 154.95 150.58 155.90 Z M 150.08 156.70 L 149.57 157.51 C 148.97 158.45 149.26 159.70 150.20 160.29 C 151.14 160.88 152.38 160.60 152.97 159.66 L 153.49 158.84 C 154.08 157.90 153.79 156.66 152.85 156.07 C 151.91 155.48 150.67 155.76 150.08 156.70 Z M 149.57 157.51 L 149.04 158.35 C 148.45 159.29 148.72 160.53 149.66 161.13 C 150.60 161.72 151.84 161.44 152.44 160.50 L 152.97 159.66 C 153.56 158.72 153.28 157.48 152.34 156.89 C 151.41 156.29 150.16 156.57 149.57 157.51 Z M 149.04 158.35 L 148.53 159.17 C 147.93 160.10 148.21 161.34 149.14 161.94 C 150.08 162.53 151.32 162.25 151.91 161.32 L 152.43 160.50 C 153.03 159.57 152.75 158.33 151.81 157.73 C 150.88 157.14 149.64 157.41 149.04 158.35 Z M 148.53 159.16 L 148.04 159.93 C 147.44 160.86 147.72 162.10 148.65 162.70 C 149.58 163.29 150.82 163.02 151.42 162.09 L 151.91 161.32 C 152.50 160.39 152.23 159.15 151.30 158.55 C 150.37 157.96 149.13 158.23 148.53 159.16 Z M 148.04 159.93 L 147.53 160.73 C 146.93 161.66 147.20 162.90 148.13 163.49 C 149.06 164.09 150.30 163.82 150.90 162.89 L 151.41 162.09 C 152.01 161.16 151.74 159.92 150.81 159.32 C 149.88 158.73 148.64 159.00 148.04 159.93 Z M 147.53 160.72 L 147.00 161.55 C 146.40 162.48 146.67 163.72 147.60 164.32 C 148.53 164.92 149.77 164.65 150.36 163.72 L 150.90 162.89 C 151.50 161.96 151.23 160.73 150.30 160.13 C 149.37 159.53 148.13 159.80 147.53 160.72 Z M 147.00 161.55 L 146.45 162.40 C 145.86 163.33 146.12 164.56 147.05 165.16 C 147.97 165.76 149.21 165.50 149.81 164.57 L 150.36 163.72 C 150.96 162.79 150.69 161.56 149.77 160.96 C 148.84 160.36 147.60 160.62 147.00 161.55 Z M 146.46 162.40 L 145.89 163.27 C 145.29 164.19 145.56 165.43 146.48 166.03 C 147.41 166.63 148.64 166.37 149.24 165.44 L 149.81 164.57 C 150.41 163.65 150.14 162.41 149.22 161.81 C 148.29 161.21 147.06 161.48 146.46 162.40 Z M 145.90 163.27 L 145.32 164.15 C 144.72 165.07 144.98 166.30 145.91 166.91 C 146.83 167.51 148.06 167.25 148.67 166.32 L 149.24 165.44 C 149.84 164.52 149.58 163.28 148.66 162.68 C 147.73 162.08 146.50 162.34 145.90 163.27 Z M 145.33 164.15 L 144.75 165.03 C 144.15 165.95 144.41 167.19 145.33 167.79 C 146.25 168.39 147.48 168.13 148.08 167.21 L 148.66 166.32 C 149.26 165.40 149.01 164.17 148.08 163.57 C 147.16 162.97 145.93 163.22 145.33 164.15 Z M 144.75 165.03 L 144.17 165.91 C 143.57 166.83 143.83 168.06 144.75 168.67 C 145.66 169.27 146.90 169.01 147.50 168.09 L 148.08 167.21 C 148.68 166.29 148.42 165.06 147.51 164.46 C 146.59 163.86 145.35 164.11 144.75 165.03 Z M 144.18 165.91 L 143.63 166.75 C 143.03 167.66 143.28 168.89 144.20 169.50 C 145.11 170.10 146.34 169.85 146.94 168.93 L 147.49 168.09 C 148.10 167.18 147.84 165.95 146.93 165.35 C 146.01 164.74 144.78 165.00 144.18 165.91 Z M 143.64 166.75 L 143.08 167.58 C 142.48 168.49 142.73 169.72 143.64 170.32 C 144.56 170.93 145.78 170.68 146.39 169.76 L 146.94 168.93 C 147.54 168.02 147.29 166.79 146.38 166.19 C 145.47 165.59 144.24 165.84 143.64 166.75 Z M 143.09 167.58 L 142.54 168.41 C 141.94 169.32 142.18 170.55 143.09 171.15 C 144.00 171.75 145.22 171.50 145.83 170.60 L 146.38 169.77 C 146.98 168.86 146.74 167.63 145.83 167.03 C 144.92 166.43 143.70 166.67 143.09 167.58 Z M 142.55 168.41 L 141.99 169.24 C 141.39 170.14 141.63 171.37 142.54 171.97 C 143.44 172.57 144.66 172.33 145.26 171.43 L 145.82 170.60 C 146.42 169.69 146.18 168.47 145.28 167.87 C 144.37 167.27 143.15 167.51 142.55 168.41 Z M 142.00 169.24 L 141.44 170.07 C 140.84 170.97 141.08 172.19 141.98 172.79 C 142.88 173.39 144.09 173.16 144.70 172.26 L 145.26 171.43 C 145.86 170.53 145.62 169.31 144.72 168.71 C 143.82 168.10 142.61 168.34 142.00 169.24 Z M 141.45 170.07 L 140.89 170.89 C 140.29 171.79 140.52 173.00 141.41 173.61 C 142.31 174.21 143.52 173.98 144.13 173.09 L 144.69 172.26 C 145.30 171.37 145.06 170.15 144.17 169.54 C 143.27 168.94 142.06 169.17 141.45 170.07 Z M 140.90 170.89 L 140.34 171.72 C 139.73 172.60 139.96 173.82 140.85 174.43 C 141.74 175.03 142.95 174.80 143.56 173.92 L 144.12 173.09 C 144.73 172.20 144.50 170.99 143.61 170.38 C 142.72 169.77 141.51 170.00 140.90 170.89 Z M 140.35 171.71 L 139.78 172.54 C 139.17 173.42 139.39 174.63 140.27 175.24 C 141.16 175.85 142.37 175.63 142.98 174.74 L 143.55 173.92 C 144.16 173.03 143.93 171.82 143.05 171.21 C 142.17 170.61 140.96 170.83 140.35 171.71 Z M 139.79 172.53 L 139.21 173.36 C 138.60 174.24 138.82 175.45 139.69 176.06 C 140.57 176.67 141.78 176.46 142.39 175.58 L 142.97 174.75 C 143.58 173.87 143.36 172.66 142.48 172.05 C 141.61 171.44 140.40 171.66 139.79 172.53 Z M 139.22 173.36 L 138.63 174.19 C 138.02 175.07 138.23 176.27 139.10 176.88 C 139.98 177.50 141.18 177.29 141.80 176.41 L 142.38 175.58 C 143.00 174.71 142.78 173.50 141.91 172.89 C 141.04 172.28 139.83 172.49 139.22 173.36 Z M 138.64 174.19 L 138.06 175.02 C 137.44 175.89 137.64 177.09 138.51 177.71 C 139.38 178.32 140.58 178.12 141.20 177.25 L 141.78 176.42 C 142.40 175.55 142.20 174.35 141.33 173.73 C 140.46 173.12 139.26 173.32 138.64 174.19 Z M 138.07 175.02 L 137.47 175.85 C 136.86 176.71 137.06 177.91 137.92 178.52 C 138.78 179.14 139.98 178.94 140.59 178.08 L 141.18 177.25 C 141.80 176.39 141.60 175.19 140.74 174.58 C 139.88 173.96 138.68 174.16 138.07 175.02 Z M 137.48 175.85 L 136.89 176.67 C 136.27 177.52 136.47 178.72 137.32 179.33 C 138.18 179.95 139.37 179.76 139.99 178.90 L 140.58 178.08 C 141.20 177.23 141.01 176.03 140.15 175.41 C 139.30 174.80 138.10 174.99 137.48 175.85 Z M 136.90 176.66 L 136.31 177.48 C 135.69 178.33 135.88 179.52 136.73 180.13 C 137.58 180.75 138.77 180.57 139.39 179.72 L 139.98 178.90 C 140.60 178.05 140.41 176.86 139.56 176.24 C 138.71 175.63 137.52 175.81 136.90 176.66 Z M 136.32 177.47 L 135.73 178.28 C 135.11 179.12 135.30 180.31 136.14 180.93 C 136.99 181.55 138.17 181.36 138.79 180.52 L 139.38 179.72 C 140.00 178.87 139.82 177.69 138.97 177.07 C 138.13 176.45 136.94 176.63 136.32 177.47 Z M 135.74 178.27 L 135.16 179.06 C 134.54 179.90 134.72 181.08 135.56 181.71 C 136.40 182.33 137.58 182.15 138.20 181.31 L 138.78 180.52 C 139.40 179.68 139.22 178.50 138.39 177.88 C 137.55 177.26 136.36 177.44 135.74 178.27 Z M 135.17 179.06 L 134.59 179.84 C 133.97 180.67 134.15 181.85 134.98 182.47 C 135.81 183.09 136.99 182.92 137.61 182.08 L 138.19 181.31 C 138.81 180.48 138.64 179.30 137.80 178.68 C 136.97 178.06 135.79 178.23 135.17 179.06 Z M 134.60 179.83 L 134.01 180.62 C 133.39 181.45 133.56 182.62 134.39 183.24 C 135.22 183.87 136.39 183.70 137.01 182.87 L 137.60 182.09 C 138.22 181.26 138.06 180.08 137.23 179.46 C 136.40 178.84 135.23 179.01 134.60 179.83 Z M 134.03 180.62 L 133.43 181.40 C 132.81 182.23 132.97 183.40 133.79 184.02 C 134.61 184.64 135.78 184.48 136.41 183.66 L 137.00 182.87 C 137.62 182.05 137.46 180.88 136.64 180.26 C 135.82 179.63 134.65 179.80 134.03 180.62 Z M 133.44 181.40 L 132.85 182.18 C 132.23 182.99 132.38 184.16 133.20 184.78 C 134.01 185.41 135.18 185.25 135.80 184.44 L 136.39 183.66 C 137.02 182.85 136.86 181.68 136.05 181.06 C 135.23 180.43 134.07 180.59 133.44 181.40 Z M 132.86 182.18 L 132.27 182.95 C 131.64 183.75 131.79 184.92 132.60 185.54 C 133.40 186.17 134.57 186.02 135.19 185.21 L 135.79 184.44 C 136.41 183.63 136.26 182.47 135.46 181.85 C 134.65 181.22 133.49 181.37 132.86 182.18 Z M 132.28 182.94 L 131.68 183.72 C 131.05 184.52 131.19 185.67 131.99 186.30 C 132.79 186.93 133.95 186.78 134.57 185.98 L 135.18 185.21 C 135.80 184.41 135.66 183.26 134.86 182.63 C 134.06 182.00 132.91 182.14 132.28 182.94 Z M 131.69 183.71 L 131.07 184.49 C 130.44 185.28 130.58 186.43 131.37 187.06 C 132.16 187.69 133.32 187.56 133.94 186.76 L 134.56 185.99 C 135.19 185.19 135.05 184.04 134.26 183.41 C 133.47 182.79 132.32 182.92 131.69 183.71 Z M 131.09 184.49 L 130.45 185.28 C 129.82 186.06 129.95 187.21 130.74 187.84 C 131.52 188.47 132.67 188.34 133.30 187.56 L 133.93 186.77 C 134.56 185.98 134.43 184.84 133.65 184.21 C 132.86 183.58 131.72 183.70 131.09 184.49 Z M 130.47 185.27 L 129.81 186.08 C 129.18 186.86 129.30 188.00 130.08 188.63 C 130.86 189.26 132.00 189.14 132.63 188.37 L 133.28 187.56 C 133.92 186.78 133.80 185.64 133.02 185.01 C 132.24 184.38 131.10 184.50 130.47 185.27 Z M 129.83 186.08 L 129.18 186.87 C 128.54 187.64 128.66 188.77 129.43 189.41 C 130.20 190.04 131.34 189.93 131.97 189.16 L 132.62 188.37 C 133.25 187.60 133.14 186.46 132.37 185.83 C 131.60 185.19 130.46 185.31 129.83 186.08 Z M 129.19 186.86 L 128.57 187.61 C 127.94 188.37 128.04 189.51 128.81 190.14 C 129.57 190.78 130.70 190.67 131.34 189.91 L 131.96 189.16 C 132.59 188.40 132.49 187.26 131.72 186.63 C 130.96 185.99 129.82 186.10 129.19 186.86 Z M 128.58 187.61 L 127.94 188.37 C 127.31 189.13 127.41 190.26 128.17 190.89 C 128.92 191.53 130.05 191.43 130.69 190.67 L 131.33 189.91 C 131.96 189.15 131.86 188.02 131.10 187.39 C 130.35 186.75 129.22 186.85 128.58 187.61 Z M 127.95 188.37 L 127.30 189.14 C 126.67 189.89 126.76 191.01 127.51 191.65 C 128.27 192.29 129.39 192.19 130.03 191.44 L 130.68 190.67 C 131.32 189.92 131.22 188.79 130.47 188.16 C 129.72 187.52 128.59 187.61 127.95 188.37 Z M 127.31 189.13 L 126.65 189.91 C 126.02 190.66 126.11 191.78 126.85 192.41 C 127.60 193.05 128.72 192.96 129.36 192.22 L 130.02 191.44 C 130.66 190.69 130.57 189.57 129.82 188.94 C 129.07 188.30 127.95 188.39 127.31 189.13 Z M 126.66 189.91 L 126.00 190.68 C 125.36 191.42 125.44 192.54 126.18 193.18 C 126.92 193.82 128.04 193.73 128.68 192.99 L 129.35 192.22 C 129.99 191.48 129.90 190.36 129.16 189.72 C 128.42 189.08 127.30 189.17 126.66 189.91 Z M 126.01 190.68 L 125.34 191.45 C 124.70 192.18 124.78 193.30 125.51 193.94 C 126.25 194.58 127.36 194.50 128.00 193.76 L 128.67 192.99 C 129.31 192.26 129.23 191.14 128.50 190.51 C 127.76 189.87 126.65 189.94 126.01 190.68 Z M 125.35 191.45 L 124.68 192.21 C 124.04 192.94 124.11 194.05 124.84 194.69 C 125.57 195.33 126.68 195.25 127.32 194.53 L 127.99 193.76 C 128.63 193.04 128.56 191.93 127.83 191.29 C 127.10 190.65 125.99 190.72 125.35 191.45 Z M 124.69 192.21 L 124.03 192.95 C 123.39 193.68 123.46 194.78 124.18 195.42 C 124.90 196.06 126.01 196.00 126.65 195.27 L 127.31 194.53 C 127.95 193.80 127.89 192.70 127.16 192.06 C 126.44 191.42 125.33 191.48 124.69 192.21 Z M 124.04 192.95 L 123.39 193.68 C 122.74 194.40 122.80 195.50 123.52 196.14 C 124.24 196.79 125.34 196.73 125.98 196.01 L 126.64 195.28 C 127.28 194.56 127.22 193.46 126.50 192.82 C 125.79 192.17 124.69 192.23 124.04 192.95 Z M 123.40 193.68 L 122.64 194.52 C 121.99 195.23 122.04 196.32 122.75 196.97 C 123.46 197.61 124.56 197.56 125.20 196.85 L 125.96 196.01 C 126.61 195.31 126.56 194.21 125.85 193.56 C 125.14 192.92 124.05 192.97 123.40 193.68 Z M 122.66 194.51 L 121.91 195.31 C 121.26 196.00 121.30 197.09 122.00 197.74 C 122.69 198.39 123.78 198.36 124.43 197.66 L 125.18 196.86 C 125.83 196.17 125.79 195.08 125.10 194.43 C 124.40 193.78 123.31 193.81 122.66 194.51 Z M 121.95 195.29 L 121.21 196.05 C 120.55 196.72 120.56 197.81 121.24 198.47 C 121.92 199.13 123.00 199.11 123.66 198.44 L 124.40 197.68 C 125.06 197.00 125.04 195.92 124.37 195.26 C 123.69 194.60 122.60 194.61 121.95 195.29 Z M 121.25 196.02 L 120.52 196.73 C 119.85 197.38 119.83 198.46 120.49 199.13 C 121.14 199.81 122.22 199.82 122.89 199.17 L 123.62 198.46 C 124.30 197.81 124.31 196.73 123.66 196.05 C 123.00 195.38 121.92 195.36 121.25 196.02 Z M 120.57 196.69 L 119.85 197.35 C 119.16 197.97 119.10 199.04 119.73 199.74 C 120.36 200.43 121.43 200.48 122.12 199.86 L 122.84 199.20 C 123.54 198.58 123.59 197.51 122.96 196.81 C 122.34 196.12 121.27 196.07 120.57 196.69 Z M 119.92 197.30 L 119.19 197.90 C 118.48 198.49 118.38 199.55 118.97 200.26 C 119.56 200.98 120.62 201.08 121.33 200.49 L 122.05 199.90 C 122.77 199.31 122.87 198.25 122.28 197.53 C 121.69 196.82 120.63 196.71 119.92 197.30 Z M 119.28 197.85 L 118.55 198.38 C 117.81 198.92 117.65 199.97 118.19 200.71 C 118.74 201.46 119.78 201.62 120.53 201.07 L 121.25 200.54 C 121.99 200.00 122.16 198.95 121.61 198.21 C 121.07 197.46 120.02 197.30 119.28 197.85 Z M 118.66 198.32 L 117.90 198.80 C 117.12 199.29 116.89 200.31 117.37 201.09 C 117.86 201.86 118.89 202.10 119.66 201.61 L 120.42 201.13 C 121.20 200.64 121.43 199.62 120.95 198.84 C 120.46 198.07 119.43 197.83 118.66 198.32 Z M 118.03 198.73 L 117.10 199.21 C 116.29 199.62 115.97 200.62 116.38 201.43 C 116.80 202.24 117.79 202.56 118.60 202.15 L 119.53 201.67 C 120.34 201.26 120.66 200.26 120.25 199.45 C 119.83 198.64 118.84 198.32 118.03 198.73 Z M 117.24 199.16 L 116.30 199.53 C 115.46 199.87 115.05 200.83 115.39 201.67 C 115.73 202.51 116.68 202.91 117.52 202.57 L 118.46 202.20 C 119.30 201.86 119.71 200.91 119.37 200.07 C 119.03 199.23 118.08 198.82 117.24 199.16 Z M 116.42 199.50 L 115.48 199.80 C 114.62 200.07 114.14 200.99 114.41 201.84 C 114.69 202.70 115.60 203.18 116.46 202.91 L 117.40 202.61 C 118.26 202.34 118.73 201.42 118.46 200.56 C 118.19 199.71 117.28 199.23 116.42 199.50 Z M 115.57 199.79 L 114.62 200.03 C 113.75 200.25 113.23 201.13 113.45 201.99 C 113.67 202.86 114.54 203.38 115.41 203.16 L 116.36 202.92 C 117.23 202.70 117.75 201.82 117.53 200.96 C 117.31 200.09 116.44 199.57 115.57 199.79 Z M 114.68 200.02 L 113.73 200.22 C 112.86 200.41 112.30 201.26 112.49 202.13 C 112.67 202.99 113.52 203.55 114.39 203.37 L 115.34 203.17 C 116.21 202.98 116.77 202.13 116.59 201.26 C 116.40 200.40 115.55 199.84 114.68 200.02 Z M 113.76 200.23 L 112.81 200.41 C 111.94 200.57 111.37 201.41 111.53 202.27 C 111.70 203.14 112.53 203.71 113.40 203.54 L 114.35 203.36 C 115.22 203.20 115.79 202.36 115.63 201.50 C 115.46 200.63 114.63 200.06 113.76 200.23 Z"
      fill="black"
      fill-rule="nonzero" /><path d="M 74.45 204.17 L 75.40 203.92 C 76.24 203.69 76.74 202.82 76.51 201.98 C 76.28 201.13 75.41 200.63 74.57 200.86 L 73.62 201.12 C 72.78 201.35 72.28 202.21 72.51 203.06 C 72.73 203.90 73.60 204.40 74.45 204.17 Z M 75.38 203.96 L 76.34 203.72 C 77.21 203.50 77.73 202.61 77.51 201.75 C 77.29 200.88 76.41 200.35 75.54 200.57 L 74.58 200.82 C 73.71 201.04 73.19 201.92 73.41 202.79 C 73.63 203.66 74.51 204.18 75.38 203.96 Z M 76.30 203.77 L 77.27 203.55 C 78.17 203.35 78.74 202.46 78.53 201.57 C 78.33 200.67 77.44 200.10 76.55 200.30 L 75.58 200.52 C 74.68 200.72 74.11 201.61 74.31 202.51 C 74.52 203.41 75.41 203.97 76.30 203.77 Z M 77.21 203.61 L 78.20 203.43 C 79.13 203.27 79.75 202.38 79.58 201.45 C 79.41 200.52 78.53 199.91 77.60 200.07 L 76.61 200.25 C 75.68 200.42 75.06 201.30 75.23 202.23 C 75.40 203.16 76.28 203.78 77.21 203.61 Z M 78.11 203.49 L 79.13 203.36 C 80.09 203.25 80.77 202.37 80.65 201.41 C 80.53 200.46 79.66 199.77 78.70 199.89 L 77.69 200.02 C 76.73 200.13 76.05 201.01 76.16 201.96 C 76.28 202.92 77.15 203.60 78.11 203.49 Z M 79.03 203.40 L 79.93 203.34 C 80.91 203.28 81.65 202.44 81.59 201.46 C 81.53 200.48 80.69 199.74 79.71 199.80 L 78.80 199.85 C 77.83 199.92 77.08 200.76 77.14 201.74 C 77.20 202.72 78.05 203.46 79.03 203.40 Z M 79.84 203.36 L 80.76 203.35 C 81.74 203.34 82.54 202.53 82.52 201.54 C 82.51 200.55 81.70 199.76 80.71 199.77 L 79.80 199.78 C 78.81 199.79 78.02 200.60 78.03 201.59 C 78.04 202.58 78.85 203.37 79.84 203.36 Z M 80.68 203.36 L 81.64 203.38 C 82.63 203.41 83.46 202.63 83.49 201.64 C 83.52 200.65 82.74 199.82 81.75 199.79 L 80.79 199.76 C 79.80 199.73 78.97 200.51 78.94 201.51 C 78.91 202.50 79.69 203.33 80.68 203.36 Z M 81.58 203.39 L 82.59 203.45 C 83.58 203.52 84.44 202.76 84.50 201.76 C 84.56 200.76 83.80 199.91 82.81 199.84 L 81.80 199.78 C 80.81 199.72 79.95 200.48 79.89 201.48 C 79.83 202.47 80.58 203.33 81.58 203.39 Z M 82.54 203.46 L 83.60 203.55 C 84.60 203.64 85.48 202.90 85.57 201.90 C 85.65 200.89 84.91 200.01 83.91 199.93 L 82.85 199.84 C 81.85 199.75 80.97 200.49 80.89 201.49 C 80.80 202.49 81.54 203.38 82.54 203.46 Z M 83.57 203.56 L 84.69 203.67 C 85.70 203.78 86.59 203.04 86.70 202.04 C 86.80 201.04 86.07 200.14 85.06 200.04 L 83.94 199.92 C 82.94 199.82 82.04 200.55 81.94 201.55 C 81.83 202.56 82.57 203.46 83.57 203.56 Z M 84.67 203.68 L 85.67 203.79 C 86.68 203.90 87.59 203.18 87.70 202.17 C 87.81 201.16 87.09 200.25 86.08 200.14 L 85.08 200.03 C 84.07 199.92 83.16 200.64 83.05 201.65 C 82.94 202.66 83.67 203.57 84.67 203.68 Z M 85.66 203.80 L 86.66 203.91 C 87.67 204.03 88.59 203.31 88.71 202.30 C 88.82 201.29 88.10 200.37 87.09 200.25 L 86.09 200.13 C 85.08 200.02 84.16 200.74 84.04 201.75 C 83.92 202.76 84.65 203.68 85.66 203.80 Z M 86.65 203.92 L 87.67 204.04 C 88.69 204.17 89.61 203.44 89.73 202.43 C 89.85 201.41 89.13 200.49 88.12 200.37 L 87.10 200.24 C 86.08 200.12 85.16 200.85 85.04 201.86 C 84.91 202.88 85.64 203.80 86.65 203.92 Z M 87.67 204.05 L 88.70 204.18 C 89.71 204.30 90.64 203.58 90.77 202.56 C 90.89 201.54 90.17 200.61 89.15 200.49 L 88.12 200.36 C 87.10 200.24 86.17 200.96 86.05 201.98 C 85.92 203.00 86.65 203.93 87.67 204.05 Z M 88.69 204.18 L 89.71 204.31 C 90.74 204.43 91.67 203.71 91.79 202.68 C 91.92 201.66 91.19 200.73 90.17 200.60 L 89.15 200.48 C 88.13 200.35 87.20 201.08 87.07 202.10 C 86.94 203.13 87.67 204.06 88.69 204.18 Z M 89.71 204.32 L 90.71 204.44 C 91.74 204.56 92.67 203.83 92.80 202.80 C 92.92 201.78 92.19 200.84 91.16 200.72 L 90.17 200.60 C 89.14 200.47 88.21 201.20 88.08 202.23 C 87.96 203.26 88.69 204.19 89.71 204.32 Z M 90.71 204.44 L 91.67 204.56 C 92.71 204.68 93.64 203.95 93.76 202.92 C 93.89 201.88 93.15 200.95 92.12 200.83 L 91.16 200.71 C 90.13 200.59 89.19 201.32 89.07 202.35 C 88.95 203.39 89.68 204.32 90.71 204.44 Z M 91.68 204.57 L 92.69 204.68 C 93.72 204.80 94.66 204.06 94.78 203.02 C 94.90 201.99 94.16 201.05 93.12 200.93 L 92.11 200.82 C 91.08 200.70 90.14 201.44 90.02 202.48 C 89.90 203.51 90.65 204.45 91.68 204.57 Z M 92.70 204.69 L 93.78 204.81 C 94.81 204.92 95.75 204.17 95.86 203.13 C 95.97 202.09 95.22 201.16 94.18 201.04 L 93.11 200.93 C 92.07 200.82 91.14 201.57 91.02 202.61 C 90.91 203.64 91.66 204.58 92.70 204.69 Z M 93.79 204.81 L 94.80 204.91 C 95.84 205.02 96.77 204.26 96.87 203.22 C 96.98 202.17 96.22 201.24 95.18 201.14 L 94.17 201.04 C 93.13 200.93 92.20 201.69 92.09 202.73 C 91.99 203.78 92.75 204.71 93.79 204.81 Z M 94.81 204.92 L 95.78 205.01 C 96.82 205.10 97.75 204.34 97.85 203.29 C 97.94 202.25 97.17 201.32 96.13 201.22 L 95.16 201.13 C 94.12 201.04 93.19 201.80 93.10 202.85 C 93.00 203.89 93.77 204.82 94.81 204.92 Z M 95.79 205.01 L 96.73 205.09 C 97.78 205.19 98.70 204.41 98.79 203.36 C 98.89 202.32 98.11 201.39 97.06 201.30 L 96.12 201.22 C 95.07 201.13 94.15 201.90 94.06 202.95 C 93.97 204.00 94.74 204.92 95.79 205.01 Z M 96.74 205.10 L 97.69 205.18 C 98.74 205.26 99.66 204.48 99.74 203.43 C 99.83 202.38 99.05 201.46 98.00 201.37 L 97.05 201.30 C 96.00 201.21 95.08 201.99 95.00 203.04 C 94.91 204.09 95.69 205.01 96.74 205.10 Z M 97.69 205.18 L 98.63 205.25 C 99.69 205.34 100.61 204.55 100.69 203.50 C 100.77 202.45 99.98 201.53 98.93 201.44 L 97.99 201.37 C 96.94 201.29 96.02 202.07 95.94 203.13 C 95.85 204.18 96.64 205.10 97.69 205.18 Z M 98.64 205.26 L 99.59 205.33 C 100.64 205.41 101.56 204.62 101.64 203.56 C 101.72 202.51 100.93 201.59 99.88 201.51 L 98.93 201.44 C 97.87 201.36 96.95 202.15 96.87 203.20 C 96.79 204.26 97.58 205.18 98.64 205.26 Z M 99.60 205.33 L 100.57 205.40 C 101.63 205.48 102.55 204.68 102.62 203.63 C 102.70 202.57 101.90 201.65 100.85 201.58 L 99.87 201.51 C 98.81 201.43 97.89 202.23 97.82 203.28 C 97.74 204.34 98.54 205.26 99.60 205.33 Z M 100.58 205.41 L 101.58 205.48 C 102.64 205.55 103.56 204.75 103.63 203.69 C 103.70 202.63 102.90 201.71 101.84 201.64 L 100.84 201.57 C 99.78 201.50 98.86 202.30 98.79 203.36 C 98.72 204.42 99.52 205.34 100.58 205.41 Z M 101.59 205.48 L 102.61 205.54 C 103.68 205.61 104.59 204.80 104.66 203.74 C 104.72 202.68 103.92 201.77 102.85 201.70 L 101.83 201.64 C 100.77 201.57 99.85 202.38 99.79 203.44 C 99.72 204.50 100.53 205.41 101.59 205.48 Z M 102.62 205.55 L 103.67 205.61 C 104.73 205.67 105.64 204.86 105.71 203.79 C 105.77 202.73 104.95 201.82 103.89 201.75 L 102.84 201.69 C 101.78 201.63 100.87 202.45 100.81 203.51 C 100.75 204.58 101.56 205.49 102.62 205.55 Z M 103.68 205.61 L 104.69 205.66 C 105.76 205.72 106.67 204.90 106.72 203.83 C 106.77 202.77 105.95 201.86 104.89 201.80 L 103.88 201.75 C 102.81 201.70 101.90 202.52 101.85 203.58 C 101.79 204.65 102.61 205.56 103.68 205.61 Z M 104.70 205.67 L 105.66 205.71 C 106.73 205.76 107.64 204.94 107.69 203.87 C 107.74 202.80 106.91 201.89 105.84 201.84 L 104.88 201.80 C 103.81 201.75 102.90 202.58 102.85 203.64 C 102.81 204.71 103.63 205.62 104.70 205.67 Z M 105.67 205.71 L 106.65 205.76 C 107.72 205.80 108.62 204.97 108.67 203.90 C 108.71 202.83 107.88 201.93 106.81 201.88 L 105.84 201.84 C 104.77 201.80 103.86 202.63 103.82 203.70 C 103.77 204.76 104.60 205.67 105.67 205.71 Z M 106.65 205.76 L 107.65 205.80 C 108.72 205.84 109.62 205.01 109.66 203.94 C 109.71 202.87 108.87 201.96 107.80 201.92 L 106.81 201.88 C 105.74 201.84 104.84 202.67 104.79 203.74 C 104.75 204.81 105.58 205.72 106.65 205.76 Z M 107.65 205.80 L 108.65 205.84 C 109.73 205.89 110.63 205.05 110.67 203.98 C 110.72 202.91 109.88 202.00 108.81 201.96 L 107.80 201.92 C 106.73 201.87 105.83 202.71 105.78 203.78 C 105.74 204.85 106.57 205.76 107.65 205.80 Z M 108.65 205.85 L 109.67 205.89 C 110.75 205.93 111.65 205.10 111.70 204.02 C 111.74 202.95 110.91 202.04 109.83 202.00 L 108.81 201.96 C 107.74 201.91 106.83 202.75 106.79 203.82 C 106.74 204.89 107.58 205.80 108.65 205.85 Z M 109.67 205.89 L 110.70 205.93 C 111.78 205.98 112.69 205.15 112.73 204.07 C 112.78 203.00 111.95 202.09 110.87 202.04 L 109.84 202.00 C 108.76 201.95 107.85 202.78 107.80 203.86 C 107.76 204.93 108.59 205.84 109.67 205.89 Z M 110.70 205.94 L 111.69 205.98 C 112.77 206.03 113.68 205.20 113.73 204.12 C 113.78 203.05 112.95 202.13 111.87 202.08 L 110.88 202.04 C 109.80 201.99 108.89 202.82 108.84 203.90 C 108.79 204.97 109.62 205.89 110.70 205.94 Z M 111.69 205.99 L 112.66 206.03 C 113.74 206.09 114.66 205.26 114.71 204.18 C 114.77 203.10 113.93 202.18 112.86 202.13 L 111.88 202.08 C 110.80 202.03 109.89 202.86 109.83 203.94 C 109.78 205.02 110.61 205.93 111.69 205.99 Z M 112.66 206.04 L 113.65 206.09 C 114.73 206.14 115.65 205.31 115.70 204.23 C 115.76 203.15 114.93 202.23 113.85 202.18 L 112.86 202.13 C 111.78 202.07 110.86 202.90 110.81 203.98 C 110.75 205.06 111.58 205.98 112.66 206.04 Z M 113.65 206.09 L 114.64 206.14 C 115.72 206.20 116.64 205.37 116.70 204.29 C 116.76 203.21 115.93 202.28 114.85 202.23 L 113.85 202.18 C 112.77 202.12 111.85 202.95 111.79 204.03 C 111.74 205.11 112.57 206.03 113.65 206.09 Z M 114.64 206.14 L 115.65 206.19 C 116.73 206.25 117.65 205.42 117.71 204.34 C 117.76 203.26 116.93 202.33 115.85 202.28 L 114.85 202.23 C 113.76 202.17 112.84 203.00 112.79 204.08 C 112.73 205.17 113.56 206.09 114.64 206.14 Z M 115.65 206.20 L 116.66 206.25 C 117.74 206.30 118.67 205.47 118.72 204.39 C 118.78 203.30 117.94 202.38 116.86 202.33 L 115.85 202.27 C 114.76 202.22 113.84 203.05 113.79 204.14 C 113.73 205.22 114.57 206.14 115.65 206.20 Z M 116.67 206.25 L 117.68 206.30 C 118.77 206.35 119.69 205.51 119.74 204.43 C 119.79 203.34 118.96 202.42 117.87 202.37 L 116.85 202.32 C 115.77 202.27 114.85 203.11 114.80 204.19 C 114.74 205.28 115.58 206.20 116.67 206.25 Z M 117.69 206.30 L 118.70 206.35 C 119.79 206.40 120.71 205.55 120.76 204.47 C 120.81 203.38 119.96 202.46 118.88 202.41 L 117.86 202.37 C 116.78 202.32 115.86 203.16 115.81 204.25 C 115.76 205.33 116.60 206.25 117.69 206.30 Z M 118.71 206.35 L 119.69 206.39 C 120.78 206.43 121.69 205.59 121.74 204.50 C 121.78 203.41 120.94 202.50 119.85 202.45 L 118.87 202.41 C 117.78 202.37 116.87 203.21 116.82 204.30 C 116.78 205.39 117.62 206.31 118.71 206.35 Z M 119.69 206.39 L 120.68 206.43 C 121.77 206.47 122.68 205.62 122.72 204.53 C 122.76 203.44 121.91 202.53 120.83 202.49 L 119.84 202.45 C 118.75 202.41 117.84 203.26 117.80 204.35 C 117.76 205.44 118.61 206.35 119.69 206.39 Z M 120.68 206.43 L 121.67 206.46 C 122.76 206.50 123.68 205.65 123.71 204.56 C 123.75 203.47 122.90 202.56 121.81 202.52 L 120.82 202.49 C 119.73 202.45 118.82 203.30 118.78 204.39 C 118.74 205.48 119.59 206.39 120.68 206.43 Z M 121.68 206.47 L 122.67 206.50 C 123.76 206.53 124.68 205.68 124.71 204.59 C 124.75 203.50 123.89 202.59 122.80 202.55 L 121.81 202.52 C 120.72 202.48 119.80 203.34 119.77 204.43 C 119.73 205.52 120.59 206.43 121.68 206.47 Z M 122.68 206.50 L 123.68 206.53 C 124.77 206.56 125.68 205.71 125.72 204.62 C 125.75 203.52 124.89 202.61 123.80 202.58 L 122.80 202.55 C 121.71 202.52 120.80 203.37 120.76 204.46 C 120.73 205.56 121.59 206.47 122.68 206.50 Z M 123.68 206.53 L 124.69 206.56 C 125.79 206.59 126.70 205.73 126.73 204.64 C 126.76 203.55 125.90 202.64 124.81 202.61 L 123.80 202.58 C 122.71 202.55 121.80 203.41 121.76 204.50 C 121.73 205.59 122.59 206.50 123.68 206.53 Z M 124.70 206.56 L 125.72 206.59 C 126.81 206.62 127.72 205.76 127.75 204.67 C 127.78 203.58 126.92 202.67 125.83 202.64 L 124.81 202.61 C 123.71 202.58 122.80 203.44 122.77 204.53 C 122.74 205.62 123.60 206.53 124.70 206.56 Z M 125.72 206.59 L 126.74 206.62 C 127.83 206.65 128.74 205.79 128.77 204.70 C 128.80 203.60 127.94 202.69 126.85 202.66 L 125.83 202.63 C 124.73 202.60 123.82 203.47 123.79 204.56 C 123.76 205.65 124.63 206.56 125.72 206.59 Z M 126.74 206.62 L 127.75 206.65 C 128.84 206.68 129.75 205.82 129.78 204.72 C 129.81 203.63 128.95 202.72 127.86 202.69 L 126.85 202.66 C 125.75 202.63 124.84 203.49 124.81 204.59 C 124.78 205.68 125.65 206.59 126.74 206.62 Z M 127.75 206.65 L 128.77 206.68 C 129.86 206.71 130.77 205.84 130.80 204.75 C 130.83 203.66 129.97 202.74 128.87 202.71 L 127.86 202.69 C 126.76 202.66 125.85 203.52 125.82 204.61 C 125.79 205.71 126.66 206.62 127.75 206.65 Z M 128.77 206.68 L 129.78 206.71 C 130.88 206.74 131.79 205.87 131.82 204.78 C 131.85 203.68 130.98 202.77 129.89 202.74 L 128.87 202.71 C 127.78 202.68 126.87 203.55 126.84 204.64 C 126.81 205.74 127.67 206.65 128.77 206.68 Z M 129.78 206.71 L 130.79 206.74 C 131.89 206.76 132.80 205.90 132.83 204.80 C 132.86 203.71 132.00 202.80 130.90 202.77 L 129.89 202.74 C 128.79 202.71 127.88 203.57 127.85 204.67 C 127.82 205.77 128.69 206.68 129.78 206.71 Z M 130.79 206.74 L 131.80 206.76 C 132.89 206.79 133.81 205.93 133.84 204.83 C 133.87 203.74 133.00 202.82 131.91 202.79 L 130.90 202.77 C 129.81 202.74 128.89 203.60 128.86 204.70 C 128.83 205.79 129.70 206.71 130.79 206.74 Z M 131.80 206.76 L 132.79 206.79 C 133.88 206.82 134.80 205.96 134.83 204.86 C 134.86 203.76 133.99 202.85 132.90 202.82 L 131.91 202.79 C 130.81 202.76 129.90 203.63 129.86 204.72 C 129.83 205.82 130.70 206.73 131.80 206.76 Z M 132.78 206.79 L 133.76 206.82 C 134.86 206.85 135.77 205.99 135.80 204.89 C 135.83 203.79 134.97 202.88 133.87 202.85 L 132.90 202.82 C 131.80 202.79 130.88 203.65 130.85 204.75 C 130.82 205.85 131.69 206.76 132.78 206.79 Z M 133.76 206.82 L 134.76 206.85 C 135.86 206.88 136.77 206.02 136.80 204.92 C 136.83 203.82 135.97 202.91 134.87 202.87 L 133.87 202.85 C 132.77 202.81 131.86 203.68 131.83 204.78 C 131.79 205.87 132.66 206.79 133.76 206.82 Z M 134.76 206.85 L 135.81 206.88 C 136.91 206.92 137.82 206.05 137.86 204.95 C 137.89 203.85 137.02 202.94 135.93 202.90 L 134.87 202.87 C 133.77 202.84 132.86 203.70 132.82 204.80 C 132.79 205.90 133.66 206.82 134.76 206.85 Z M 135.81 206.88 L 136.83 206.92 C 137.93 206.95 138.85 206.08 138.88 204.99 C 138.92 203.89 138.05 202.97 136.95 202.93 L 135.93 202.90 C 134.83 202.87 133.91 203.73 133.88 204.83 C 133.84 205.93 134.71 206.85 135.81 206.88 Z M 136.83 206.92 L 137.83 206.95 C 138.93 206.98 139.85 206.12 139.89 205.02 C 139.92 203.92 139.06 203.00 137.96 202.96 L 136.95 202.93 C 135.85 202.90 134.94 203.76 134.90 204.86 C 134.87 205.96 135.73 206.88 136.83 206.92 Z M 137.83 206.95 L 138.82 206.98 C 139.92 207.01 140.84 206.15 140.88 205.05 C 140.91 203.95 140.05 203.03 138.95 202.99 L 137.96 202.96 C 136.86 202.93 135.94 203.79 135.90 204.89 C 135.87 205.99 136.73 206.91 137.83 206.95 Z M 138.82 206.98 L 139.79 207.01 C 140.89 207.05 141.81 206.18 141.85 205.08 C 141.88 203.98 141.02 203.06 139.92 203.03 L 138.95 202.99 C 137.85 202.96 136.92 203.82 136.89 204.92 C 136.85 206.02 137.72 206.95 138.82 206.98 Z M 139.79 207.01 L 140.75 207.04 C 141.85 207.08 142.77 206.22 142.81 205.11 C 142.85 204.01 141.98 203.09 140.88 203.06 L 139.92 203.02 C 138.82 202.99 137.90 203.85 137.86 204.95 C 137.82 206.06 138.69 206.98 139.79 207.01 Z M 140.75 207.05 L 141.73 207.08 C 142.83 207.11 143.75 206.25 143.79 205.15 C 143.82 204.05 142.96 203.12 141.86 203.09 L 140.88 203.05 C 139.78 203.02 138.86 203.88 138.82 204.98 C 138.78 206.09 139.65 207.01 140.75 207.05 Z M 141.73 207.08 L 142.75 207.11 C 143.85 207.15 144.77 206.28 144.81 205.18 C 144.85 204.08 143.98 203.16 142.88 203.12 L 141.86 203.09 C 140.76 203.05 139.83 203.91 139.80 205.02 C 139.76 206.12 140.62 207.04 141.73 207.08 Z M 142.75 207.11 L 143.76 207.15 C 144.86 207.19 145.79 206.32 145.83 205.22 C 145.87 204.12 145.00 203.19 143.90 203.15 L 142.88 203.12 C 141.78 203.08 140.86 203.94 140.82 205.05 C 140.78 206.15 141.64 207.08 142.75 207.11 Z M 143.76 207.15 L 144.76 207.19 C 145.87 207.23 146.79 206.36 146.83 205.26 C 146.88 204.16 146.01 203.23 144.91 203.19 L 143.90 203.15 C 142.80 203.11 141.87 203.97 141.83 205.08 C 141.79 206.18 142.65 207.11 143.76 207.15 Z M 144.76 207.19 L 145.75 207.23 C 146.86 207.27 147.79 206.41 147.83 205.31 C 147.88 204.20 147.02 203.27 145.91 203.23 L 144.92 203.19 C 143.81 203.15 142.88 204.00 142.84 205.11 C 142.79 206.21 143.65 207.14 144.76 207.19 Z M 145.75 207.23 L 146.73 207.27 C 147.83 207.32 148.77 206.46 148.82 205.36 C 148.86 204.25 148.01 203.32 146.90 203.27 L 145.92 203.23 C 144.82 203.18 143.88 204.04 143.83 205.14 C 143.78 206.24 144.64 207.18 145.75 207.23 Z M 146.72 207.27 L 147.69 207.32 C 148.80 207.37 149.73 206.52 149.79 205.41 C 149.84 204.31 148.99 203.37 147.88 203.32 L 146.91 203.27 C 145.81 203.22 144.87 204.07 144.82 205.17 C 144.76 206.28 145.62 207.22 146.72 207.27 Z M 147.68 207.32 L 148.69 207.37 C 149.79 207.43 150.74 206.59 150.80 205.48 C 150.86 204.38 150.01 203.43 148.91 203.37 L 147.90 203.32 C 146.79 203.26 145.85 204.10 145.79 205.21 C 145.73 206.31 146.57 207.26 147.68 207.32 Z M 148.68 207.37 L 149.69 207.44 C 150.79 207.50 151.74 206.66 151.81 205.56 C 151.88 204.45 151.04 203.50 149.94 203.43 L 148.92 203.37 C 147.82 203.30 146.87 204.14 146.80 205.25 C 146.73 206.35 147.57 207.30 148.68 207.37 Z M 149.67 207.43 L 150.67 207.51 C 151.78 207.58 152.73 206.75 152.81 205.65 C 152.89 204.54 152.06 203.58 150.95 203.51 L 149.95 203.44 C 148.85 203.36 147.89 204.19 147.81 205.29 C 147.73 206.40 148.57 207.36 149.67 207.43 Z M 150.65 207.50 L 151.64 207.58 C 152.75 207.67 153.71 206.85 153.80 205.74 C 153.89 204.64 153.07 203.67 151.96 203.59 L 150.97 203.51 C 149.87 203.42 148.90 204.24 148.81 205.35 C 148.72 206.45 149.55 207.42 150.65 207.50 Z M 151.62 207.58 L 152.61 207.67 C 153.71 207.77 154.68 206.96 154.78 205.85 C 154.88 204.75 154.07 203.78 152.97 203.68 L 151.98 203.59 C 150.88 203.49 149.90 204.30 149.80 205.40 C 149.70 206.51 150.52 207.48 151.62 207.58 Z M 152.58 207.67 L 153.56 207.77 C 154.67 207.88 155.65 207.08 155.76 205.98 C 155.87 204.87 155.07 203.89 153.97 203.78 L 152.99 203.68 C 151.89 203.57 150.90 204.37 150.79 205.47 C 150.68 206.57 151.48 207.56 152.58 207.67 Z M 153.54 207.77 L 154.53 207.88 C 155.63 208.00 156.62 207.21 156.75 206.11 C 156.87 205.01 156.08 204.02 154.98 203.89 L 153.99 203.78 C 152.89 203.65 151.90 204.45 151.77 205.55 C 151.65 206.65 152.44 207.64 153.54 207.77 Z M 154.50 207.88 L 155.49 208.00 C 156.59 208.14 157.60 207.36 157.73 206.26 C 157.87 205.16 157.09 204.15 155.99 204.02 L 155.00 203.89 C 153.90 203.76 152.90 204.54 152.76 205.64 C 152.62 206.74 153.40 207.74 154.50 207.88 Z M 155.47 208.00 L 156.46 208.13 C 157.56 208.28 158.57 207.51 158.72 206.41 C 158.87 205.31 158.10 204.30 157.00 204.15 L 156.01 204.02 C 154.91 203.87 153.90 204.64 153.75 205.74 C 153.60 206.84 154.37 207.85 155.47 208.00 Z M 156.44 208.13 L 157.43 208.27 C 158.53 208.43 159.55 207.67 159.71 206.57 C 159.87 205.48 159.11 204.46 158.01 204.30 L 157.02 204.16 C 155.92 204.00 154.90 204.76 154.74 205.85 C 154.58 206.95 155.35 207.97 156.44 208.13 Z M 157.42 208.27 L 158.41 208.42 C 159.50 208.59 160.53 207.84 160.70 206.74 C 160.87 205.65 160.11 204.62 159.02 204.45 L 158.03 204.30 C 156.93 204.13 155.90 204.88 155.74 205.98 C 155.57 207.08 156.32 208.10 157.42 208.27 Z M 158.39 208.42 L 159.38 208.58 C 160.48 208.76 161.51 208.01 161.69 206.92 C 161.86 205.82 161.12 204.79 160.02 204.61 L 159.03 204.45 C 157.94 204.28 156.90 205.02 156.73 206.12 C 156.55 207.21 157.30 208.25 158.39 208.42 Z M 159.37 208.58 L 160.34 208.74 C 161.43 208.93 162.47 208.19 162.65 207.09 C 162.84 206.00 162.10 204.96 161.00 204.78 L 160.03 204.62 C 158.94 204.43 157.90 205.17 157.72 206.27 C 157.54 207.36 158.27 208.40 159.37 208.58 Z M 160.33 208.74 L 161.29 208.91 C 162.38 209.10 163.42 208.37 163.61 207.27 C 163.80 206.18 163.07 205.14 161.98 204.95 L 161.02 204.78 C 159.92 204.59 158.88 205.32 158.69 206.42 C 158.50 207.51 159.23 208.55 160.33 208.74 Z M 161.28 208.91 L 162.24 209.08 C 163.34 209.28 164.38 208.55 164.58 207.46 C 164.78 206.37 164.05 205.32 162.96 205.12 L 161.99 204.95 C 160.90 204.75 159.85 205.48 159.65 206.57 C 159.46 207.66 160.18 208.71 161.28 208.91 Z M 162.23 209.08 L 163.21 209.26 C 164.30 209.47 165.35 208.75 165.56 207.65 C 165.76 206.56 165.04 205.51 163.95 205.31 L 162.97 205.13 C 161.88 204.92 160.83 205.64 160.62 206.73 C 160.42 207.83 161.14 208.88 162.23 209.08 Z M 163.20 209.26 L 164.19 209.45 C 165.28 209.66 166.34 208.95 166.55 207.86 C 166.76 206.77 166.04 205.71 164.95 205.50 L 163.96 205.31 C 162.87 205.10 161.82 205.81 161.60 206.90 C 161.39 207.99 162.11 209.05 163.20 209.26 Z M 164.18 209.45 L 165.18 209.65 C 166.27 209.87 167.33 209.16 167.55 208.07 C 167.77 206.98 167.06 205.92 165.97 205.71 L 164.97 205.50 C 163.88 205.29 162.82 205.99 162.60 207.08 C 162.38 208.17 163.09 209.23 164.18 209.45 Z M 165.17 209.65 L 166.17 209.86 C 167.26 210.08 168.32 209.38 168.55 208.29 C 168.77 207.20 168.07 206.14 166.99 205.91 L 165.99 205.71 C 164.90 205.48 163.83 206.18 163.61 207.27 C 163.38 208.36 164.08 209.43 165.17 209.65 Z M 166.16 209.85 L 167.14 210.06 C 168.23 210.29 169.30 209.60 169.53 208.51 C 169.76 207.42 169.07 206.36 167.98 206.12 L 167.00 205.92 C 165.91 205.68 164.84 206.38 164.61 207.47 C 164.38 208.55 165.07 209.62 166.16 209.85 Z M 167.13 210.06 L 168.12 210.28 C 169.21 210.51 170.28 209.82 170.52 208.74 C 170.75 207.65 170.06 206.58 168.98 206.34 L 167.99 206.13 C 166.90 205.89 165.83 206.58 165.59 207.67 C 165.36 208.75 166.04 209.83 167.13 210.06 Z M 168.11 210.28 L 169.10 210.49 C 170.19 210.74 171.27 210.05 171.51 208.96 C 171.75 207.88 171.06 206.80 169.98 206.56 L 168.98 206.34 C 167.90 206.10 166.82 206.79 166.58 207.87 C 166.34 208.96 167.03 210.03 168.11 210.28 Z M 169.10 210.49 L 170.08 210.72 C 171.17 210.96 172.25 210.28 172.49 209.19 C 172.73 208.11 172.05 207.03 170.97 206.78 L 169.98 206.56 C 168.90 206.32 167.82 207.00 167.57 208.09 C 167.33 209.17 168.01 210.25 169.10 210.49 Z M 170.08 210.71 L 171.05 210.94 C 172.13 211.18 173.21 210.50 173.46 209.42 C 173.71 208.33 173.03 207.25 171.94 207.01 L 170.97 206.78 C 169.89 206.54 168.81 207.22 168.56 208.30 C 168.31 209.39 168.99 210.47 170.08 210.71 Z M 171.04 210.94 L 171.99 211.15 C 173.08 211.40 174.16 210.73 174.41 209.64 C 174.66 208.56 173.98 207.48 172.90 207.23 L 171.95 207.01 C 170.86 206.76 169.78 207.43 169.53 208.52 C 169.28 209.60 169.96 210.69 171.04 210.94 Z M 171.99 211.15 L 173.00 211.39 C 174.08 211.64 175.17 210.97 175.42 209.88 C 175.67 208.80 175.00 207.71 173.91 207.46 L 172.90 207.23 C 171.82 206.97 170.73 207.65 170.48 208.73 C 170.23 209.82 170.90 210.90 171.99 211.15 Z M 172.99 211.39 L 173.99 211.62 C 175.07 211.88 176.16 211.21 176.41 210.13 C 176.67 209.04 176.00 207.96 174.92 207.70 L 173.92 207.46 C 172.84 207.21 171.75 207.88 171.49 208.96 C 171.24 210.04 171.91 211.13 172.99 211.39 Z M 173.98 211.62 L 174.95 211.86 C 176.03 212.12 177.12 211.45 177.38 210.37 C 177.65 209.29 176.98 208.20 175.90 207.94 L 174.93 207.70 C 173.84 207.44 172.75 208.10 172.49 209.19 C 172.23 210.27 172.89 211.36 173.98 211.62 Z M 174.93 211.86 L 175.89 212.09 C 176.97 212.36 178.07 211.70 178.34 210.62 C 178.60 209.54 177.95 208.45 176.86 208.18 L 175.91 207.94 C 174.83 207.67 173.73 208.33 173.46 209.41 C 173.19 210.49 173.85 211.59 174.93 211.86 Z M 175.87 212.09 L 176.82 212.33 C 177.90 212.61 179.00 211.96 179.28 210.88 C 179.56 209.80 178.91 208.70 177.83 208.42 L 176.88 208.18 C 175.80 207.90 174.70 208.55 174.42 209.63 C 174.14 210.71 174.79 211.81 175.87 212.09 Z M 176.80 212.33 L 177.74 212.58 C 178.82 212.87 179.93 212.23 180.22 211.15 C 180.51 210.08 179.87 208.97 178.79 208.68 L 177.84 208.43 C 176.77 208.14 175.66 208.78 175.37 209.86 C 175.08 210.93 175.72 212.04 176.80 212.33 Z M 177.72 212.58 L 178.67 212.84 C 179.75 213.14 180.86 212.51 181.16 211.44 C 181.46 210.36 180.83 209.25 179.76 208.95 L 178.81 208.68 C 177.73 208.38 176.62 209.01 176.32 210.09 C 176.02 211.16 176.65 212.28 177.72 212.58 Z M 178.66 212.84 L 179.61 213.11 C 180.69 213.42 181.81 212.80 182.11 211.73 C 182.42 210.66 181.80 209.54 180.73 209.23 L 179.77 208.95 C 178.70 208.64 177.58 209.26 177.27 210.34 C 176.96 211.41 177.58 212.53 178.66 212.84 Z M 179.60 213.11 L 180.56 213.39 C 181.63 213.71 182.76 213.09 183.07 212.02 C 183.39 210.95 182.77 209.82 181.70 209.51 L 180.74 209.23 C 179.67 208.92 178.54 209.53 178.23 210.60 C 177.92 211.67 178.53 212.80 179.60 213.11 Z M 180.56 213.39 L 181.52 213.68 C 182.59 213.99 183.72 213.38 184.03 212.31 C 184.35 211.24 183.74 210.11 182.67 209.80 L 181.70 209.51 C 180.63 209.19 179.51 209.81 179.19 210.88 C 178.87 211.95 179.49 213.08 180.56 213.39 Z M 181.52 213.68 L 182.49 213.96 C 183.56 214.28 184.68 213.66 185.00 212.59 C 185.32 211.52 184.70 210.39 183.63 210.08 L 182.67 209.79 C 181.59 209.48 180.47 210.09 180.15 211.16 C 179.84 212.24 180.45 213.36 181.52 213.68 Z M 182.49 213.96 L 183.46 214.25 C 184.53 214.56 185.66 213.94 185.97 212.87 C 186.28 211.79 185.67 210.67 184.59 210.36 L 183.63 210.08 C 182.55 209.76 181.43 210.38 181.12 211.45 C 180.80 212.53 181.42 213.65 182.49 213.96 Z M 183.47 214.25 L 184.44 214.53 C 185.51 214.83 186.64 214.21 186.94 213.13 C 187.25 212.06 186.63 210.94 185.55 210.63 L 184.58 210.35 C 183.51 210.05 182.39 210.67 182.08 211.75 C 181.77 212.82 182.39 213.94 183.47 214.25 Z M 184.45 214.53 L 185.42 214.80 C 186.49 215.10 187.61 214.47 187.91 213.40 C 188.22 212.32 187.59 211.20 186.51 210.90 L 185.54 210.63 C 184.46 210.33 183.35 210.95 183.04 212.03 C 182.74 213.11 183.37 214.23 184.45 214.53 Z M 185.42 214.80 L 186.39 215.07 C 187.47 215.37 188.58 214.74 188.88 213.66 C 189.18 212.58 188.55 211.46 187.47 211.17 L 186.50 210.90 C 185.43 210.60 184.31 211.23 184.01 212.31 C 183.71 213.39 184.35 214.50 185.42 214.80 Z M 186.39 215.07 L 187.36 215.34 C 188.44 215.63 189.55 215.00 189.85 213.92 C 190.14 212.84 189.51 211.73 188.43 211.43 L 187.47 211.16 C 186.39 210.87 185.27 211.50 184.98 212.58 C 184.68 213.66 185.32 214.78 186.39 215.07 Z M 187.36 215.34 L 188.32 215.60 C 189.40 215.89 190.51 215.26 190.81 214.18 C 191.10 213.10 190.47 211.99 189.39 211.69 L 188.43 211.43 C 187.35 211.13 186.23 211.77 185.94 212.85 C 185.64 213.93 186.28 215.04 187.36 215.34 Z M 188.32 215.60 L 189.27 215.86 C 190.35 216.16 191.47 215.52 191.76 214.44 C 192.06 213.36 191.42 212.25 190.34 211.95 L 189.39 211.69 C 188.31 211.40 187.19 212.03 186.90 213.11 C 186.60 214.19 187.24 215.30 188.32 215.60 Z M 189.27 215.86 L 190.25 216.13 C 191.33 216.43 192.44 215.79 192.74 214.71 C 193.04 213.64 192.40 212.52 191.33 212.22 L 190.35 211.95 C 189.27 211.66 188.15 212.29 187.86 213.37 C 187.56 214.45 188.19 215.56 189.27 215.86 Z M 190.25 216.13 L 191.22 216.40 C 192.30 216.69 193.42 216.06 193.71 214.98 C 194.01 213.91 193.38 212.79 192.30 212.49 L 191.33 212.22 C 190.25 211.93 189.13 212.56 188.84 213.64 C 188.54 214.72 189.17 215.83 190.25 216.13 Z M 191.22 216.40 L 192.19 216.66 C 193.27 216.96 194.38 216.33 194.68 215.25 C 194.98 214.17 194.34 213.06 193.27 212.76 L 192.30 212.49 C 191.22 212.20 190.11 212.83 189.81 213.91 C 189.51 214.99 190.15 216.10 191.22 216.40 Z M 192.19 216.66 L 193.15 216.93 C 194.23 217.22 195.35 216.59 195.64 215.51 C 195.94 214.43 195.30 213.32 194.22 213.02 L 193.26 212.76 C 192.18 212.46 191.07 213.10 190.77 214.18 C 190.48 215.26 191.12 216.37 192.19 216.66 Z M 193.16 216.93 L 194.11 217.19 C 195.19 217.48 196.30 216.84 196.60 215.76 C 196.89 214.68 196.25 213.57 195.17 213.28 L 194.22 213.02 C 193.14 212.73 192.03 213.36 191.73 214.44 C 191.44 215.52 192.08 216.64 193.16 216.93 Z M 194.12 217.19 L 195.04 217.43 C 196.12 217.72 197.23 217.08 197.52 216.00 C 197.80 214.92 197.16 213.81 196.08 213.52 L 195.16 213.27 C 194.08 212.99 192.97 213.63 192.68 214.71 C 192.40 215.79 193.04 216.90 194.12 217.19 Z M 195.05 217.43 L 195.92 217.66 C 197.00 217.94 198.10 217.30 198.39 216.21 C 198.67 215.13 198.02 214.03 196.94 213.74 L 196.07 213.52 C 194.99 213.23 193.88 213.88 193.60 214.96 C 193.32 216.05 193.97 217.15 195.05 217.43 Z M 195.93 217.66 L 196.81 217.89 C 197.90 218.17 199.00 217.51 199.28 216.43 C 199.55 215.35 198.90 214.25 197.82 213.97 L 196.93 213.74 C 195.85 213.46 194.74 214.12 194.47 215.20 C 194.19 216.28 194.84 217.39 195.93 217.66 Z M 196.82 217.89 L 197.75 218.12 C 198.83 218.39 199.93 217.74 200.20 216.65 C 200.47 215.57 199.82 214.47 198.73 214.20 L 197.81 213.97 C 196.72 213.69 195.62 214.35 195.35 215.44 C 195.08 216.52 195.74 217.62 196.82 217.89 Z M 197.76 218.13 L 198.74 218.37 C 199.83 218.63 200.92 217.97 201.19 216.88 C 201.46 215.80 200.79 214.70 199.71 214.44 L 198.72 214.20 C 197.64 213.93 196.54 214.59 196.28 215.68 C 196.01 216.76 196.67 217.86 197.76 218.13 Z M 198.75 218.37 L 199.81 218.62 C 200.90 218.88 201.99 218.22 202.25 217.13 C 202.51 216.04 201.84 214.95 200.76 214.69 L 199.70 214.44 C 198.61 214.17 197.52 214.84 197.26 215.93 C 197.00 217.01 197.67 218.11 198.75 218.37 Z M 199.82 218.62 L 200.94 218.89 C 202.03 219.15 203.12 218.47 203.37 217.39 C 203.63 216.30 202.96 215.21 201.87 214.96 L 200.75 214.69 C 199.66 214.43 198.58 215.11 198.32 216.19 C 198.06 217.28 198.73 218.37 199.82 218.62 Z M 200.95 218.89 L 201.80 219.09 C 202.89 219.34 203.98 218.67 204.23 217.58 C 204.49 216.50 203.81 215.41 202.72 215.16 L 201.87 214.95 C 200.78 214.70 199.69 215.38 199.44 216.46 C 199.18 217.55 199.86 218.64 200.95 218.89 Z M 201.81 219.09 L 202.72 219.30 C 203.80 219.55 204.89 218.87 205.14 217.79 C 205.39 216.70 204.71 215.61 203.62 215.36 L 202.72 215.15 C 201.63 214.90 200.55 215.58 200.30 216.67 C 200.05 217.76 200.72 218.84 201.81 219.09 Z M 202.72 219.30 L 203.67 219.52 C 204.76 219.76 205.84 219.08 206.08 217.99 C 206.33 216.90 205.65 215.82 204.56 215.58 L 203.62 215.36 C 202.53 215.12 201.45 215.80 201.20 216.89 C 200.95 217.97 201.64 219.06 202.72 219.30 Z M 203.68 219.52 L 204.65 219.73 C 205.74 219.97 206.82 219.29 207.06 218.20 C 207.30 217.11 206.62 216.03 205.53 215.79 L 204.55 215.57 C 203.46 215.33 202.38 216.02 202.14 217.11 C 201.90 218.20 202.59 219.28 203.68 219.52 Z M 204.67 219.73 L 205.67 219.95 C 206.76 220.19 207.83 219.49 208.07 218.40 C 208.30 217.31 207.61 216.24 206.52 216.00 L 205.52 215.79 C 204.43 215.55 203.35 216.25 203.12 217.34 C 202.88 218.43 203.58 219.50 204.67 219.73 Z M 205.68 219.95 L 206.70 220.17 C 207.79 220.39 208.86 219.69 209.09 218.60 C 209.32 217.51 208.62 216.44 207.53 216.22 L 206.51 216.00 C 205.41 215.77 204.35 216.47 204.12 217.57 C 203.89 218.66 204.59 219.73 205.68 219.95 Z M 206.72 220.17 L 207.75 220.38 C 208.84 220.60 209.91 219.89 210.13 218.79 C 210.35 217.70 209.64 216.64 208.55 216.42 L 207.51 216.21 C 206.42 215.99 205.36 216.70 205.14 217.79 C 204.92 218.89 205.63 219.95 206.72 220.17 Z M 207.77 220.38 L 208.81 220.58 C 209.90 220.79 210.96 220.07 211.17 218.98 C 211.38 217.88 210.66 216.83 209.57 216.62 L 208.53 216.42 C 207.44 216.21 206.38 216.92 206.17 218.02 C 205.96 219.11 206.68 220.17 207.77 220.38 Z M 208.83 220.58 L 209.87 220.77 C 210.96 220.97 212.01 220.24 212.21 219.15 C 212.41 218.05 211.68 217.00 210.59 216.80 L 209.55 216.61 C 208.45 216.41 207.40 217.14 207.20 218.24 C 207.01 219.33 207.73 220.38 208.83 220.58 Z M 209.89 220.77 L 210.97 220.95 C 212.06 221.14 213.10 220.40 213.29 219.31 C 213.48 218.21 212.74 217.17 211.64 216.98 L 210.57 216.80 C 209.47 216.61 208.43 217.35 208.24 218.45 C 208.06 219.55 208.79 220.59 209.89 220.77 Z M 210.99 220.95 L 212.05 221.12 C 213.15 221.30 214.18 220.55 214.35 219.45 C 214.52 218.35 213.78 217.32 212.68 217.15 L 211.62 216.98 C 210.52 216.81 209.49 217.56 209.32 218.65 C 209.14 219.75 209.89 220.78 210.99 220.95 Z M 212.07 221.12 L 213.12 221.28 C 214.22 221.44 215.23 220.68 215.40 219.58 C 215.56 218.49 214.80 217.47 213.70 217.30 L 212.66 217.15 C 211.56 216.99 210.54 217.75 210.38 218.85 C 210.22 219.94 210.98 220.96 212.07 221.12 Z M 213.14 221.28 L 214.16 221.41 C 215.26 221.56 216.27 220.79 216.42 219.70 C 216.57 218.60 215.80 217.59 214.70 217.44 L 213.68 217.30 C 212.58 217.16 211.57 217.92 211.42 219.02 C 211.28 220.12 212.04 221.13 213.14 221.28 Z M 214.19 221.41 L 215.19 221.54 C 216.28 221.67 217.28 220.90 217.42 219.80 C 217.55 218.70 216.78 217.70 215.68 217.57 L 214.68 217.44 C 213.58 217.31 212.58 218.09 212.45 219.18 C 212.31 220.28 213.09 221.28 214.19 221.41 Z M 215.21 221.54 L 216.18 221.65 C 217.27 221.77 218.26 220.98 218.39 219.89 C 218.51 218.79 217.72 217.80 216.63 217.68 L 215.66 217.57 C 214.56 217.44 213.57 218.23 213.45 219.33 C 213.32 220.43 214.11 221.41 215.21 221.54 Z M 216.20 221.65 L 217.14 221.74 C 218.23 221.85 219.21 221.05 219.32 219.96 C 219.43 218.86 218.63 217.88 217.54 217.77 L 216.60 217.68 C 215.51 217.57 214.53 218.37 214.42 219.46 C 214.31 220.56 215.10 221.54 216.20 221.65 Z M 217.16 221.74 L 218.06 221.82 C 219.15 221.92 220.12 221.11 220.22 220.01 C 220.32 218.92 219.51 217.95 218.41 217.85 L 217.51 217.77 C 216.42 217.68 215.45 218.49 215.35 219.58 C 215.26 220.68 216.07 221.64 217.16 221.74 Z M 218.09 221.82 L 219.09 221.89 C 220.18 221.97 221.13 221.15 221.21 220.06 C 221.30 218.97 220.48 218.02 219.39 217.93 L 218.38 217.86 C 217.29 217.78 216.34 218.60 216.26 219.69 C 216.18 220.78 217.00 221.73 218.09 221.82 Z M 219.14 221.88 L 220.31 221.94 C 221.39 221.99 222.32 221.16 222.37 220.07 C 222.43 218.99 221.59 218.06 220.51 218.01 L 219.34 217.95 C 218.25 217.89 217.33 218.73 217.27 219.81 C 217.22 220.90 218.05 221.82 219.14 221.88 Z M 220.39 221.91 L 221.47 221.92 C 222.54 221.93 223.42 221.07 223.43 219.99 C 223.43 218.92 222.57 218.05 221.50 218.04 L 220.42 218.03 C 219.35 218.02 218.47 218.89 218.47 219.96 C 218.46 221.03 219.32 221.91 220.39 221.91 Z M 221.60 221.89 L 222.59 221.83 C 223.65 221.77 224.45 220.86 224.39 219.80 C 224.32 218.75 223.41 217.94 222.36 218.01 L 221.37 218.07 C 220.31 218.13 219.51 219.04 219.57 220.10 C 219.64 221.15 220.54 221.96 221.60 221.89 Z M 222.77 221.79 L 223.67 221.65 C 224.70 221.48 225.41 220.52 225.24 219.48 C 225.08 218.45 224.11 217.75 223.08 217.91 L 222.18 218.05 C 221.15 218.21 220.44 219.18 220.60 220.21 C 220.77 221.25 221.74 221.95 222.77 221.79 Z M 223.90 221.57 L 224.72 221.33 C 225.71 221.04 226.27 220.00 225.98 219.01 C 225.69 218.02 224.65 217.45 223.66 217.75 L 222.85 217.99 C 221.86 218.28 221.29 219.31 221.58 220.30 C 221.87 221.29 222.91 221.86 223.90 221.57 Z M 225.00 221.19 L 225.79 220.80 C 226.71 220.35 227.08 219.25 226.64 218.34 C 226.19 217.43 225.09 217.05 224.18 217.50 L 223.38 217.89 C 222.47 218.33 222.09 219.44 222.54 220.35 C 222.98 221.26 224.09 221.64 225.00 221.19 Z M 226.06 220.59 L 226.84 220.02 C 227.63 219.42 227.80 218.29 227.20 217.49 C 226.61 216.69 225.48 216.53 224.68 217.13 L 223.91 217.70 C 223.11 218.30 222.95 219.43 223.54 220.23 C 224.14 221.02 225.27 221.19 226.06 220.59 Z M 227.01 219.81 L 227.70 219.11 C 228.38 218.42 228.38 217.30 227.69 216.62 C 226.99 215.94 225.88 215.94 225.20 216.64 L 224.51 217.33 C 223.82 218.03 223.83 219.14 224.52 219.82 C 225.21 220.51 226.33 220.50 227.01 219.81 Z M 227.79 218.95 L 228.42 218.16 C 229.01 217.42 228.90 216.34 228.16 215.75 C 227.42 215.15 226.33 215.27 225.74 216.01 L 225.11 216.80 C 224.51 217.54 224.63 218.62 225.37 219.21 C 226.11 219.81 227.19 219.69 227.79 218.95 Z M 228.44 218.06 L 229.04 217.22 C 229.58 216.47 229.40 215.42 228.65 214.88 C 227.89 214.35 226.85 214.52 226.31 215.28 L 225.71 216.11 C 225.18 216.87 225.35 217.91 226.11 218.45 C 226.86 218.99 227.91 218.81 228.44 218.06 Z M 229.03 217.18 L 229.29 216.81 C 229.80 216.06 229.61 215.03 228.86 214.52 C 228.11 214.00 227.09 214.19 226.58 214.94 L 226.32 215.32 C 225.80 216.07 225.99 217.09 226.74 217.61 C 227.49 218.12 228.52 217.93 229.03 217.18 Z"
      fill="black"
      fill-rule="nonzero" /></svg>