<svg xmlns="http://www.w3.org/2000/svg" width="300" height="300" viewBox="0 0 300 300">
<path d="M 152.63 75.95 L 151.56 75.34 C 150.61 74.80 149.40 75.13 148.85 76.08 C 148.31 77.03 148.64 78.24 149.59 78.78 L 150.66 79.40 C 151.61 79.94 152.82 79.61 153.37 78.66 C 153.91 77.71 153.58 76.50 152.63 75.95 Z M 151.55 75.31 L 150.50 74.72 C 149.53 74.18 148.31 74.53 147.77 75.50 C 147.23 76.47 147.58 77.70 148.55 78.24 L 149.60 78.82 C 150.57 79.36 151.79 79.01 152.33 78.04 C 152.87 77.07 152.52 75.85 151.55 75.31 Z M 150.47 74.67 L 149.46 74.15 C 148.47 73.63 147.24 74.02 146.72 75.02 C 146.20 76.02 146.59 77.25 147.59 77.77 L 148.59 78.29 C 149.59 78.81 150.82 78.42 151.34 77.42 C 151.85 76.42 151.47 75.19 150.47 74.67 Z M 149.39 74.08 L 148.45 73.65 C 147.41 73.18 146.19 73.63 145.71 74.67 C 145.24 75.70 145.69 76.93 146.73 77.40 L 147.66 77.83 C 148.70 78.31 149.92 77.86 150.40 76.82 C 150.88 75.78 150.42 74.56 149.39 74.08 Z M 148.30 73.56 L 147.45 73.26 C 146.37 72.86 145.17 73.42 144.77 74.51 C 144.38 75.59 144.94 76.79 146.02 77.18 L 146.87 77.49 C 147.96 77.89 149.16 77.33 149.55 76.24 C 149.95 75.16 149.39 73.96 148.30 73.56 Z M 147.18 73.15 L 146.43 72.99 C 145.29 72.75 144.17 73.48 143.93 74.62 C 143.68 75.77 144.41 76.89 145.56 77.13 L 146.30 77.29 C 147.44 77.53 148.57 76.80 148.81 75.66 C 149.05 74.51 148.32 73.39 147.18 73.15 Z M 145.86 72.93 L 145.19 72.97 C 144.01 73.04 143.11 74.06 143.19 75.24 C 143.26 76.42 144.28 77.31 145.46 77.24 L 146.13 77.20 C 147.31 77.13 148.21 76.11 148.13 74.93 C 148.06 73.75 147.04 72.85 145.86 72.93 Z M 144.10 73.33 L 143.46 73.78 C 142.48 74.45 142.23 75.79 142.91 76.77 C 143.58 77.75 144.92 78.00 145.90 77.32 L 146.54 76.88 C 147.52 76.20 147.77 74.86 147.09 73.88 C 146.42 72.91 145.08 72.66 144.10 73.33 Z M 142.73 74.63 L 142.35 75.43 C 141.84 76.50 142.30 77.79 143.37 78.30 C 144.45 78.81 145.73 78.35 146.24 77.28 L 146.62 76.48 C 147.13 75.40 146.67 74.12 145.60 73.61 C 144.53 73.10 143.24 73.55 142.73 74.63 Z M 142.18 75.97 L 141.99 77.01 C 141.78 78.18 142.56 79.30 143.73 79.51 C 144.90 79.72 146.02 78.94 146.23 77.77 L 146.41 76.73 C 146.62 75.56 145.85 74.44 144.68 74.23 C 143.51 74.02 142.39 74.80 142.18 75.97 Z M 141.96 77.27 L 141.89 78.43 C 141.82 79.61 142.73 80.63 143.92 80.70 C 145.10 80.77 146.12 79.86 146.19 78.68 L 146.26 77.51 C 146.33 76.33 145.42 75.31 144.23 75.24 C 143.05 75.17 142.03 76.08 141.96 77.27 Z M 141.89 78.53 L 141.88 79.56 C 141.87 80.75 142.82 81.72 144.00 81.74 C 145.19 81.75 146.17 80.80 146.18 79.61 L 146.19 78.58 C 146.21 77.39 145.25 76.42 144.07 76.40 C 142.88 76.39 141.91 77.34 141.89 78.53 Z M 141.88 79.64 L 141.91 80.64 C 141.94 81.83 142.93 82.76 144.11 82.73 C 145.30 82.70 146.23 81.72 146.20 80.53 L 146.17 79.53 C 146.14 78.35 145.16 77.41 143.97 77.44 C 142.79 77.47 141.85 78.46 141.88 79.64 Z M 141.92 80.76 L 142.00 81.75 C 142.09 82.92 143.12 83.80 144.30 83.71 C 145.48 83.62 146.36 82.59 146.27 81.41 L 146.19 80.42 C 146.10 79.24 145.07 78.36 143.89 78.45 C 142.71 78.55 141.83 79.58 141.92 80.76 Z M 142.02 81.89 L 142.17 82.87 C 142.34 84.04 143.43 84.84 144.59 84.67 C 145.76 84.50 146.56 83.41 146.39 82.25 L 146.25 81.27 C 146.07 80.10 144.99 79.29 143.82 79.47 C 142.66 79.64 141.85 80.72 142.02 81.89 Z M 142.21 83.04 L 142.43 84.02 C 142.70 85.16 143.84 85.88 144.99 85.61 C 146.13 85.34 146.85 84.20 146.58 83.05 L 146.35 82.08 C 146.09 80.93 144.94 80.22 143.80 80.49 C 142.65 80.75 141.94 81.90 142.21 83.04 Z M 142.49 84.20 L 142.79 85.10 C 143.16 86.21 144.36 86.82 145.47 86.45 C 146.58 86.08 147.18 84.88 146.82 83.77 L 146.52 82.87 C 146.15 81.76 144.95 81.16 143.84 81.52 C 142.73 81.89 142.13 83.09 142.49 84.20 Z M 142.86 85.25 L 143.23 86.12 C 143.68 87.20 144.91 87.70 145.99 87.25 C 147.06 86.80 147.56 85.57 147.11 84.49 L 146.74 83.62 C 146.29 82.55 145.06 82.05 143.99 82.50 C 142.92 82.95 142.41 84.18 142.86 85.25 Z M 143.30 86.24 L 143.74 87.11 C 144.25 88.14 145.50 88.57 146.53 88.05 C 147.57 87.54 147.99 86.29 147.47 85.25 L 147.04 84.38 C 146.53 83.35 145.27 82.93 144.24 83.44 C 143.21 83.95 142.79 85.21 143.30 86.24 Z M 143.80 87.20 L 144.29 88.08 C 144.85 89.07 146.12 89.43 147.11 88.87 C 148.11 88.31 148.46 87.05 147.90 86.05 L 147.41 85.17 C 146.85 84.17 145.59 83.82 144.59 84.38 C 143.59 84.94 143.24 86.20 143.80 87.20 Z M 144.35 88.13 L 144.89 89.03 C 145.48 89.99 146.75 90.30 147.72 89.71 C 148.68 89.11 148.99 87.85 148.40 86.88 L 147.85 85.99 C 147.26 85.02 145.99 84.72 145.03 85.31 C 144.06 85.90 143.75 87.17 144.35 88.13 Z M 144.93 89.06 L 145.52 89.96 C 146.13 90.91 147.39 91.18 148.33 90.56 C 149.28 89.95 149.55 88.69 148.94 87.75 L 148.35 86.85 C 147.74 85.90 146.48 85.63 145.54 86.24 C 144.59 86.86 144.32 88.12 144.93 89.06 Z M 145.55 89.98 L 146.09 90.78 C 146.71 91.70 147.96 91.95 148.89 91.33 C 149.81 90.71 150.06 89.46 149.44 88.54 L 148.90 87.73 C 148.28 86.81 147.03 86.56 146.11 87.18 C 145.18 87.80 144.93 89.05 145.55 89.98 Z M 146.12 90.78 L 146.68 91.60 C 147.30 92.51 148.54 92.74 149.45 92.12 C 150.35 91.50 150.59 90.26 149.97 89.35 L 149.41 88.54 C 148.79 87.63 147.55 87.40 146.64 88.02 C 145.74 88.64 145.50 89.87 146.12 90.78 Z M 146.71 91.59 L 147.28 92.42 C 147.90 93.31 149.12 93.53 150.01 92.92 C 150.90 92.30 151.13 91.08 150.51 90.19 L 149.94 89.36 C 149.32 88.47 148.10 88.24 147.21 88.86 C 146.32 89.48 146.09 90.70 146.71 91.59 Z M 147.30 92.41 L 147.88 93.24 C 148.49 94.12 149.70 94.34 150.58 93.73 C 151.46 93.12 151.67 91.91 151.06 91.03 L 150.49 90.20 C 149.88 89.32 148.67 89.10 147.79 89.71 C 146.91 90.32 146.69 91.53 147.30 92.41 Z M 147.90 93.22 L 148.48 94.06 C 149.08 94.92 150.27 95.14 151.14 94.54 C 152.00 93.94 152.22 92.75 151.62 91.88 L 151.04 91.05 C 150.44 90.18 149.25 89.96 148.38 90.56 C 147.52 91.16 147.30 92.35 147.90 93.22 Z M 148.49 94.03 L 149.07 94.87 C 149.65 95.73 150.83 95.95 151.69 95.36 C 152.54 94.77 152.76 93.60 152.18 92.74 L 151.60 91.90 C 151.02 91.04 149.84 90.83 148.98 91.41 C 148.13 92.00 147.91 93.17 148.49 94.03 Z M 149.08 94.84 L 149.65 95.69 C 150.23 96.54 151.38 96.77 152.23 96.20 C 153.08 95.63 153.31 94.47 152.74 93.62 L 152.16 92.77 C 151.59 91.92 150.44 91.69 149.58 92.26 C 148.73 92.83 148.51 93.99 149.08 94.84 Z M 149.67 95.66 L 150.23 96.52 C 150.79 97.37 151.92 97.60 152.76 97.05 C 153.60 96.50 153.84 95.37 153.29 94.53 L 152.72 93.66 C 152.17 92.81 151.04 92.58 150.20 93.13 C 149.35 93.68 149.12 94.81 149.67 95.66 Z M 150.24 96.48 L 150.79 97.34 C 151.31 98.18 152.42 98.43 153.26 97.91 C 154.10 97.38 154.35 96.27 153.82 95.44 L 153.28 94.57 C 152.75 93.73 151.65 93.48 150.81 94.01 C 149.97 94.53 149.72 95.64 150.24 96.48 Z M 150.79 97.29 L 151.31 98.15 C 151.81 98.98 152.89 99.26 153.72 98.76 C 154.55 98.26 154.83 97.18 154.33 96.35 L 153.81 95.49 C 153.32 94.65 152.24 94.38 151.40 94.88 C 150.57 95.38 150.30 96.46 150.79 97.29 Z M 151.31 98.09 L 151.79 98.95 C 152.26 99.78 153.31 100.08 154.14 99.61 C 154.97 99.15 155.27 98.10 154.80 97.26 L 154.32 96.41 C 153.86 95.58 152.81 95.28 151.98 95.74 C 151.14 96.21 150.85 97.26 151.31 98.09 Z M 151.79 98.88 L 152.24 99.74 C 152.66 100.57 153.68 100.89 154.51 100.47 C 155.34 100.04 155.67 99.02 155.24 98.19 L 154.80 97.33 C 154.37 96.50 153.35 96.17 152.52 96.60 C 151.69 97.03 151.37 98.05 151.79 98.88 Z M 152.23 99.66 L 152.64 100.55 C 153.03 101.38 154.02 101.74 154.85 101.36 C 155.68 100.97 156.05 99.98 155.66 99.15 L 155.25 98.26 C 154.86 97.43 153.87 97.07 153.04 97.46 C 152.21 97.84 151.85 98.83 152.23 99.66 Z M 152.63 100.47 L 153.02 101.42 C 153.37 102.26 154.33 102.66 155.16 102.31 C 156.00 101.97 156.40 101.01 156.06 100.17 L 155.67 99.23 C 155.32 98.39 154.37 97.99 153.53 98.33 C 152.69 98.68 152.29 99.64 152.63 100.47 Z M 153.01 101.35 L 153.36 102.30 C 153.67 103.14 154.60 103.57 155.44 103.26 C 156.29 102.95 156.72 102.02 156.41 101.18 L 156.06 100.24 C 155.76 99.39 154.82 98.96 153.98 99.27 C 153.14 99.58 152.71 100.51 153.01 101.35 Z M 153.36 102.24 L 153.67 103.19 C 153.95 104.03 154.86 104.49 155.70 104.21 C 156.55 103.93 157.00 103.02 156.72 102.18 L 156.41 101.23 C 156.13 100.39 155.22 99.93 154.38 100.21 C 153.54 100.49 153.08 101.40 153.36 102.24 Z M 153.68 103.15 L 153.97 104.09 C 154.23 104.93 155.12 105.40 155.96 105.15 C 156.80 104.89 157.27 104.00 157.01 103.16 L 156.72 102.21 C 156.46 101.37 155.57 100.90 154.73 101.16 C 153.89 101.42 153.42 102.31 153.68 103.15 Z M 153.98 104.07 L 154.26 105.01 C 154.50 105.85 155.38 106.33 156.21 106.08 C 157.05 105.83 157.52 104.96 157.28 104.12 L 157.00 103.18 C 156.75 102.35 155.88 101.87 155.04 102.11 C 154.21 102.36 153.73 103.24 153.98 104.07 Z M 154.26 105.01 L 154.33 105.23 C 154.57 106.06 155.44 106.54 156.27 106.30 C 157.10 106.06 157.58 105.19 157.34 104.36 L 157.27 104.13 C 157.03 103.30 156.16 102.82 155.33 103.07 C 154.50 103.31 154.02 104.18 154.26 105.01 Z"
      fill="black"
      fill-rule="nonzero" /><path d="M 110.03 128.05 L 108.77 127.66 C 107.86 127.39 106.88 127.91 106.61 128.83 C 106.33 129.74 106.85 130.72 107.77 130.99 L 109.03 131.38 C 109.95 131.65 110.92 131.13 111.20 130.21 C 111.47 129.29 110.95 128.32 110.03 128.05 Z M 108.85 127.65 L 107.71 127.25 C 106.78 126.93 105.77 127.43 105.45 128.36 C 105.13 129.29 105.62 130.30 106.55 130.62 L 107.69 131.01 C 108.62 131.33 109.63 130.84 109.95 129.91 C 110.27 128.98 109.78 127.97 108.85 127.65 Z M 107.89 127.28 L 107.00 126.87 C 106.08 126.45 105.00 126.85 104.58 127.76 C 104.16 128.67 104.56 129.75 105.47 130.18 L 106.37 130.59 C 107.28 131.01 108.36 130.61 108.78 129.70 C 109.21 128.79 108.81 127.70 107.89 127.28 Z M 107.42 127.09 L 106.89 126.65 C 106.10 125.99 104.93 126.10 104.27 126.89 C 103.61 127.67 103.72 128.85 104.51 129.51 L 105.04 129.95 C 105.83 130.61 107.00 130.50 107.66 129.71 C 108.32 128.92 108.21 127.75 107.42 127.09 Z M 107.57 127.81 L 107.51 127.34 C 107.36 126.31 106.40 125.59 105.36 125.74 C 104.33 125.89 103.61 126.85 103.76 127.88 L 103.82 128.34 C 103.97 129.38 104.93 130.10 105.96 129.95 C 107.00 129.80 107.72 128.84 107.57 127.81 Z M 107.15 128.76 L 107.49 128.31 C 108.13 127.47 107.96 126.28 107.12 125.64 C 106.28 125.00 105.08 125.17 104.45 126.01 L 104.11 126.46 C 103.47 127.30 103.64 128.50 104.48 129.14 C 105.32 129.77 106.52 129.60 107.15 128.76 Z M 107.08 128.72 L 107.74 128.25 C 108.60 127.64 108.80 126.44 108.19 125.58 C 107.58 124.72 106.39 124.52 105.53 125.13 L 104.86 125.61 C 104.00 126.22 103.80 127.41 104.41 128.27 C 105.02 129.13 106.22 129.33 107.08 128.72 Z M 107.52 128.39 L 108.46 127.90 C 109.39 127.41 109.75 126.25 109.26 125.31 C 108.77 124.38 107.62 124.01 106.68 124.51 L 105.75 124.99 C 104.81 125.48 104.45 126.64 104.94 127.58 C 105.43 128.52 106.59 128.88 107.52 128.39 Z M 108.33 127.96 L 109.47 127.47 C 110.44 127.05 110.89 125.92 110.47 124.95 C 110.05 123.98 108.92 123.53 107.95 123.95 L 106.81 124.44 C 105.83 124.86 105.39 125.99 105.81 126.96 C 106.23 127.93 107.35 128.38 108.33 127.96 Z M 109.39 127.51 L 110.68 127.02 C 111.68 126.64 112.18 125.53 111.80 124.54 C 111.43 123.55 110.32 123.05 109.33 123.42 L 108.03 123.91 C 107.04 124.29 106.54 125.39 106.91 126.39 C 107.29 127.38 108.40 127.88 109.39 127.51 Z M 110.64 127.04 L 111.63 126.69 C 112.64 126.34 113.17 125.25 112.82 124.25 C 112.47 123.24 111.38 122.71 110.38 123.06 L 109.38 123.40 C 108.37 123.75 107.84 124.84 108.19 125.85 C 108.54 126.85 109.63 127.38 110.64 127.04 Z M 111.60 126.70 L 112.57 126.38 C 113.58 126.05 114.13 124.97 113.80 123.96 C 113.47 122.95 112.38 122.40 111.37 122.73 L 110.41 123.05 C 109.40 123.38 108.85 124.46 109.18 125.47 C 109.51 126.48 110.59 127.03 111.60 126.70 Z M 112.55 126.39 L 113.53 126.08 C 114.54 125.76 115.11 124.69 114.79 123.67 C 114.47 122.66 113.39 122.10 112.38 122.42 L 111.40 122.72 C 110.38 123.04 109.82 124.12 110.14 125.13 C 110.46 126.15 111.53 126.71 112.55 126.39 Z M 113.51 126.09 L 114.50 125.79 C 115.52 125.48 116.09 124.40 115.78 123.39 C 115.48 122.37 114.40 121.80 113.39 122.11 L 112.40 122.41 C 111.38 122.72 110.81 123.79 111.12 124.81 C 111.43 125.82 112.50 126.40 113.51 126.09 Z M 114.49 125.79 L 115.48 125.50 C 116.49 125.19 117.07 124.12 116.77 123.11 C 116.47 122.09 115.40 121.51 114.38 121.81 L 113.40 122.11 C 112.38 122.41 111.80 123.48 112.11 124.50 C 112.41 125.51 113.48 126.09 114.49 125.79 Z M 115.47 125.50 L 116.44 125.21 C 117.46 124.91 118.04 123.85 117.74 122.83 C 117.44 121.81 116.37 121.23 115.36 121.53 L 114.39 121.81 C 113.37 122.11 112.79 123.18 113.09 124.20 C 113.39 125.21 114.46 125.80 115.47 125.50 Z M 116.44 125.21 L 117.37 124.94 C 118.39 124.64 118.97 123.57 118.68 122.56 C 118.38 121.54 117.31 120.96 116.29 121.25 L 115.36 121.53 C 114.34 121.83 113.76 122.89 114.06 123.91 C 114.36 124.93 115.42 125.51 116.44 125.21 Z M 117.38 124.93 L 118.27 124.67 C 119.29 124.37 119.87 123.30 119.57 122.28 C 119.27 121.27 118.20 120.69 117.18 120.99 L 116.29 121.26 C 115.27 121.56 114.69 122.63 115.00 123.64 C 115.30 124.66 116.36 125.24 117.38 124.93 Z M 118.29 124.66 L 119.33 124.35 C 120.34 124.04 120.91 122.97 120.60 121.95 C 120.30 120.94 119.23 120.37 118.21 120.68 L 117.17 121.00 C 116.16 121.31 115.59 122.38 115.90 123.39 C 116.20 124.40 117.27 124.97 118.29 124.66 Z M 119.35 124.34 L 120.37 124.01 C 121.38 123.70 121.94 122.62 121.62 121.62 C 121.31 120.61 120.23 120.05 119.23 120.36 L 118.20 120.69 C 117.19 121.00 116.63 122.08 116.95 123.09 C 117.26 124.09 118.34 124.65 119.35 124.34 Z M 120.39 124.01 L 121.35 123.70 C 122.35 123.37 122.90 122.29 122.58 121.29 C 122.25 120.29 121.18 119.74 120.17 120.06 L 119.21 120.37 C 118.21 120.70 117.66 121.77 117.98 122.78 C 118.31 123.78 119.38 124.33 120.39 124.01 Z M 121.36 123.69 L 122.27 123.39 C 123.27 123.06 123.82 121.98 123.49 120.98 C 123.16 119.98 122.08 119.44 121.08 119.77 L 120.17 120.07 C 119.17 120.40 118.62 121.47 118.95 122.47 C 119.28 123.47 120.36 124.02 121.36 123.69 Z M 122.28 123.38 L 123.16 123.09 C 124.16 122.76 124.70 121.68 124.37 120.68 C 124.04 119.69 122.96 119.15 121.96 119.48 L 121.08 119.77 C 120.08 120.10 119.54 121.18 119.87 122.18 C 120.20 123.17 121.28 123.71 122.28 123.38 Z M 123.16 123.09 L 124.04 122.80 C 125.03 122.47 125.57 121.39 125.24 120.40 C 124.91 119.40 123.84 118.86 122.84 119.19 L 121.97 119.48 C 120.97 119.81 120.43 120.88 120.76 121.88 C 121.09 122.88 122.16 123.42 123.16 123.09 Z M 124.03 122.80 L 124.95 122.50 C 125.94 122.17 126.49 121.10 126.16 120.11 C 125.84 119.11 124.77 118.57 123.77 118.89 L 122.85 119.19 C 121.86 119.51 121.31 120.58 121.64 121.58 C 121.96 122.58 123.03 123.12 124.03 122.80 Z M 124.94 122.50 L 125.89 122.19 C 126.88 121.87 127.43 120.81 127.11 119.81 C 126.79 118.82 125.73 118.27 124.73 118.59 L 123.78 118.89 C 122.79 119.21 122.24 120.28 122.56 121.27 C 122.88 122.27 123.94 122.82 124.94 122.50 Z M 125.88 122.19 L 126.84 121.89 C 127.84 121.57 128.39 120.51 128.07 119.51 C 127.76 118.52 126.69 117.97 125.70 118.28 L 124.74 118.59 C 123.74 118.90 123.19 119.97 123.51 120.96 C 123.83 121.96 124.89 122.51 125.88 122.19 Z M 126.84 121.88 L 127.80 121.58 C 128.80 121.26 129.35 120.20 129.03 119.21 C 128.72 118.22 127.66 117.67 126.66 117.98 L 125.70 118.28 C 124.71 118.60 124.16 119.66 124.47 120.65 C 124.79 121.65 125.85 122.20 126.84 121.88 Z M 127.80 121.58 L 128.76 121.27 C 129.75 120.95 130.30 119.89 129.98 118.90 C 129.67 117.91 128.61 117.36 127.62 117.68 L 126.66 117.98 C 125.67 118.30 125.12 119.36 125.44 120.35 C 125.75 121.34 126.81 121.89 127.80 121.58 Z M 128.77 121.27 L 129.71 120.96 C 130.70 120.64 131.24 119.58 130.92 118.59 C 130.60 117.60 129.54 117.06 128.55 117.38 L 127.61 117.68 C 126.62 118.00 126.08 119.06 126.40 120.05 C 126.72 121.04 127.78 121.58 128.77 121.27 Z M 129.72 120.96 L 130.69 120.64 C 131.68 120.31 132.21 119.25 131.89 118.26 C 131.57 117.28 130.50 116.74 129.52 117.06 L 128.55 117.38 C 127.56 117.71 127.02 118.77 127.35 119.76 C 127.67 120.74 128.73 121.28 129.72 120.96 Z M 130.70 120.63 L 131.66 120.31 C 132.64 119.98 133.17 118.91 132.84 117.93 C 132.52 116.95 131.45 116.42 130.47 116.75 L 129.51 117.07 C 128.53 117.40 128.00 118.46 128.33 119.45 C 128.65 120.43 129.72 120.96 130.70 120.63 Z M 131.67 120.30 L 132.62 119.98 C 133.60 119.65 134.12 118.58 133.79 117.60 C 133.45 116.62 132.39 116.10 131.41 116.43 L 130.46 116.75 C 129.48 117.09 128.96 118.15 129.29 119.13 C 129.62 120.11 130.69 120.64 131.67 120.30 Z M 132.62 119.98 L 133.56 119.65 C 134.53 119.32 135.05 118.25 134.72 117.27 C 134.38 116.30 133.32 115.78 132.34 116.11 L 131.40 116.44 C 130.42 116.77 129.91 117.84 130.24 118.82 C 130.58 119.79 131.64 120.31 132.62 119.98 Z M 133.56 119.65 L 134.49 119.33 C 135.46 118.99 135.98 117.92 135.64 116.95 C 135.30 115.97 134.24 115.46 133.26 115.80 L 132.33 116.12 C 131.36 116.46 130.84 117.52 131.18 118.50 C 131.52 119.47 132.58 119.99 133.56 119.65 Z M 134.49 119.32 L 135.35 119.03 C 136.32 118.69 136.84 117.62 136.50 116.65 C 136.16 115.68 135.09 115.16 134.12 115.50 L 133.26 115.80 C 132.29 116.14 131.77 117.20 132.11 118.17 C 132.45 119.15 133.52 119.66 134.49 119.32 Z M 135.35 119.02 L 136.11 118.76 C 137.08 118.42 137.59 117.36 137.25 116.39 C 136.91 115.41 135.85 114.90 134.88 115.24 L 134.12 115.50 C 133.15 115.84 132.63 116.90 132.97 117.88 C 133.31 118.85 134.38 119.36 135.35 119.02 Z M 136.11 118.76 L 136.90 118.48 C 137.87 118.14 138.38 117.08 138.04 116.11 C 137.70 115.13 136.64 114.62 135.67 114.96 L 134.88 115.24 C 133.91 115.58 133.39 116.64 133.73 117.61 C 134.07 118.58 135.14 119.10 136.11 118.76 Z M 136.90 118.48 L 137.76 118.17 C 138.73 117.83 139.24 116.77 138.89 115.80 C 138.55 114.83 137.49 114.32 136.52 114.66 L 135.67 114.97 C 134.70 115.31 134.19 116.37 134.53 117.34 C 134.87 118.31 135.94 118.82 136.90 118.48 Z M 137.76 118.17 L 138.70 117.84 C 139.67 117.49 140.17 116.43 139.83 115.46 C 139.49 114.49 138.42 113.99 137.46 114.33 L 136.52 114.67 C 135.55 115.01 135.04 116.08 135.39 117.04 C 135.73 118.01 136.80 118.51 137.76 118.17 Z M 138.71 117.83 L 139.76 117.45 C 140.72 117.11 141.22 116.04 140.88 115.08 C 140.53 114.11 139.47 113.61 138.50 113.96 L 137.45 114.34 C 136.49 114.68 135.99 115.75 136.33 116.71 C 136.68 117.68 137.74 118.18 138.71 117.83 Z M 139.76 117.45 L 140.95 117.02 C 141.91 116.67 142.41 115.61 142.06 114.64 C 141.71 113.68 140.65 113.18 139.68 113.53 L 138.50 113.96 C 137.53 114.31 137.04 115.38 137.39 116.34 C 137.74 117.30 138.80 117.80 139.76 117.45 Z M 140.95 117.02 L 141.96 116.65 C 142.92 116.30 143.41 115.23 143.06 114.27 C 142.71 113.31 141.65 112.82 140.68 113.17 L 139.68 113.54 C 138.72 113.89 138.23 114.95 138.58 115.91 C 138.93 116.87 139.99 117.37 140.95 117.02 Z M 141.96 116.64 L 142.81 116.33 C 143.77 115.98 144.26 114.92 143.91 113.96 C 143.55 113.00 142.49 112.51 141.53 112.86 L 140.68 113.17 C 139.72 113.52 139.23 114.59 139.58 115.55 C 139.94 116.51 141.00 117.00 141.96 116.64 Z M 142.81 116.33 L 143.70 116.00 C 144.66 115.65 145.15 114.59 144.80 113.63 C 144.44 112.67 143.38 112.18 142.42 112.53 L 141.53 112.86 C 140.57 113.22 140.08 114.28 140.44 115.24 C 140.79 116.19 141.85 116.68 142.81 116.33 Z M 143.70 116.00 L 144.63 115.65 C 145.59 115.30 146.08 114.24 145.73 113.28 C 145.37 112.33 144.31 111.84 143.36 112.19 L 142.42 112.54 C 141.47 112.89 140.98 113.95 141.33 114.91 C 141.69 115.86 142.75 116.35 143.70 116.00 Z M 144.63 115.65 L 145.59 115.30 C 146.55 114.94 147.03 113.88 146.68 112.93 C 146.33 111.98 145.27 111.49 144.32 111.84 L 143.36 112.20 C 142.40 112.55 141.91 113.61 142.27 114.56 C 142.62 115.52 143.68 116.00 144.63 115.65 Z M 145.59 115.29 L 146.57 114.93 C 147.52 114.58 148.01 113.52 147.66 112.57 C 147.31 111.62 146.25 111.13 145.30 111.48 L 144.32 111.84 C 143.36 112.20 142.88 113.25 143.23 114.21 C 143.58 115.16 144.64 115.65 145.59 115.29 Z M 146.57 114.93 L 147.56 114.56 C 148.51 114.21 149.00 113.15 148.65 112.20 C 148.29 111.25 147.24 110.77 146.29 111.12 L 145.30 111.48 C 144.35 111.84 143.86 112.89 144.21 113.84 C 144.56 114.79 145.62 115.28 146.57 114.93 Z M 147.56 114.56 L 148.55 114.19 C 149.50 113.84 149.99 112.79 149.63 111.84 C 149.28 110.89 148.23 110.40 147.28 110.75 L 146.29 111.12 C 145.34 111.47 144.85 112.53 145.20 113.48 C 145.55 114.43 146.61 114.91 147.56 114.56 Z M 148.55 114.19 L 149.53 113.83 C 150.48 113.48 150.97 112.43 150.62 111.48 C 150.27 110.53 149.21 110.04 148.26 110.39 L 147.28 110.76 C 146.33 111.11 145.85 112.16 146.20 113.11 C 146.55 114.06 147.60 114.54 148.55 114.19 Z M 149.53 113.83 L 150.50 113.47 C 151.45 113.12 151.93 112.07 151.58 111.12 C 151.23 110.18 150.18 109.69 149.23 110.04 L 148.27 110.40 C 147.32 110.74 146.83 111.80 147.18 112.74 C 147.53 113.69 148.58 114.18 149.53 113.83 Z M 150.50 113.47 L 151.44 113.12 C 152.38 112.77 152.87 111.73 152.52 110.78 C 152.17 109.83 151.12 109.35 150.18 109.69 L 149.24 110.04 C 148.29 110.39 147.80 111.44 148.15 112.38 C 148.50 113.33 149.55 113.82 150.50 113.47 Z M 151.43 113.12 L 152.38 112.77 C 153.33 112.43 153.81 111.38 153.47 110.44 C 153.12 109.49 152.07 109.00 151.13 109.35 L 150.18 109.70 C 149.24 110.04 148.75 111.09 149.10 112.04 C 149.44 112.98 150.49 113.47 151.43 113.12 Z M 152.38 112.77 L 153.54 112.35 C 154.49 112.01 154.97 110.96 154.63 110.02 C 154.29 109.07 153.24 108.58 152.30 108.93 L 151.13 109.35 C 150.19 109.69 149.70 110.74 150.04 111.68 C 150.39 112.63 151.43 113.12 152.38 112.77 Z M 153.54 112.35 L 154.63 111.95 C 155.57 111.61 156.06 110.57 155.72 109.63 C 155.38 108.68 154.34 108.19 153.40 108.53 L 152.30 108.93 C 151.36 109.27 150.87 110.31 151.21 111.25 C 151.55 112.20 152.59 112.69 153.54 112.35 Z M 154.62 111.96 L 155.65 111.59 C 156.59 111.26 157.09 110.22 156.75 109.27 C 156.42 108.33 155.38 107.83 154.43 108.17 L 153.41 108.53 C 152.46 108.87 151.97 109.91 152.30 110.85 C 152.64 111.80 153.68 112.29 154.62 111.96 Z M 155.64 111.59 L 156.60 111.26 C 157.55 110.93 158.05 109.89 157.72 108.95 C 157.39 108.00 156.36 107.50 155.41 107.83 L 154.44 108.17 C 153.50 108.50 153.00 109.53 153.33 110.48 C 153.66 111.42 154.69 111.92 155.64 111.59 Z M 156.59 111.26 L 157.50 110.95 C 158.45 110.63 158.95 109.60 158.63 108.65 C 158.31 107.71 157.28 107.20 156.34 107.52 L 155.43 107.83 C 154.48 108.15 153.97 109.18 154.29 110.12 C 154.61 111.07 155.64 111.58 156.59 111.26 Z M 157.48 110.95 L 158.34 110.67 C 159.29 110.36 159.81 109.34 159.50 108.39 C 159.19 107.44 158.16 106.92 157.21 107.23 L 156.35 107.52 C 155.41 107.83 154.89 108.85 155.20 109.80 C 155.51 110.75 156.53 111.26 157.48 110.95 Z M 158.32 110.68 L 159.13 110.42 C 160.08 110.12 160.61 109.11 160.31 108.16 C 160.02 107.21 159.00 106.68 158.05 106.97 L 157.24 107.23 C 156.28 107.53 155.75 108.54 156.05 109.49 C 156.35 110.45 157.37 110.98 158.32 110.68 Z M 159.10 110.43 L 159.88 110.20 C 160.83 109.91 161.38 108.91 161.09 107.96 C 160.81 107.00 159.81 106.46 158.85 106.74 L 158.08 106.97 C 157.12 107.25 156.58 108.26 156.86 109.21 C 157.14 110.17 158.15 110.71 159.10 110.43 Z M 159.84 110.21 L 160.80 109.94 C 161.76 109.68 162.33 108.69 162.07 107.73 C 161.80 106.77 160.81 106.20 159.85 106.47 L 158.89 106.73 C 157.93 106.99 157.36 107.98 157.62 108.95 C 157.89 109.91 158.88 110.47 159.84 110.21 Z M 160.75 109.96 L 161.78 109.71 C 162.75 109.47 163.34 108.50 163.11 107.53 C 162.87 106.56 161.90 105.97 160.93 106.20 L 159.90 106.45 C 158.94 106.69 158.34 107.66 158.58 108.63 C 158.81 109.60 159.78 110.19 160.75 109.96 Z M 161.71 109.72 L 162.69 109.52 C 163.67 109.32 164.30 108.37 164.10 107.39 C 163.90 106.42 162.95 105.79 161.97 105.99 L 160.99 106.19 C 160.02 106.39 159.39 107.34 159.58 108.32 C 159.78 109.29 160.74 109.92 161.71 109.72 Z M 162.62 109.54 L 163.58 109.38 C 164.56 109.22 165.23 108.29 165.07 107.31 C 164.91 106.32 163.98 105.66 163.00 105.82 L 162.04 105.97 C 161.06 106.13 160.39 107.06 160.55 108.05 C 160.71 109.03 161.64 109.70 162.62 109.54 Z M 163.50 109.39 L 164.45 109.28 C 165.44 109.16 166.14 108.26 166.02 107.27 C 165.90 106.28 165.00 105.57 164.01 105.69 L 163.07 105.81 C 162.08 105.93 161.37 106.83 161.49 107.82 C 161.61 108.81 162.51 109.51 163.50 109.39 Z M 164.38 109.29 L 165.33 109.21 C 166.32 109.13 167.06 108.26 166.98 107.26 C 166.90 106.27 166.03 105.53 165.04 105.61 L 164.08 105.68 C 163.09 105.76 162.35 106.64 162.43 107.63 C 162.51 108.63 163.38 109.37 164.38 109.29 Z M 165.25 109.22 L 166.30 109.18 C 167.31 109.14 168.09 108.30 168.05 107.30 C 168.01 106.30 167.17 105.52 166.17 105.56 L 165.11 105.59 C 164.11 105.63 163.33 106.47 163.37 107.48 C 163.41 108.48 164.25 109.26 165.25 109.22 Z M 166.17 109.19 L 167.21 109.24 C 168.22 109.28 169.07 108.49 169.11 107.48 C 169.15 106.47 168.36 105.62 167.36 105.58 L 166.31 105.54 C 165.30 105.50 164.45 106.29 164.41 107.30 C 164.37 108.31 165.16 109.16 166.17 109.19 Z M 166.98 109.23 L 167.98 109.39 C 168.98 109.56 169.93 108.88 170.09 107.87 C 170.26 106.87 169.58 105.92 168.58 105.76 L 167.59 105.59 C 166.58 105.43 165.63 106.11 165.47 107.11 C 165.30 108.11 165.98 109.06 166.98 109.23 Z M 167.63 109.31 L 168.52 109.64 C 169.48 110.00 170.55 109.51 170.90 108.55 C 171.26 107.59 170.77 106.52 169.81 106.17 L 168.92 105.84 C 167.96 105.48 166.89 105.97 166.54 106.93 C 166.18 107.89 166.67 108.96 167.63 109.31 Z M 168.06 109.41 L 168.80 109.95 C 169.64 110.56 170.81 110.38 171.41 109.54 C 172.02 108.71 171.84 107.54 171.00 106.93 L 170.27 106.39 C 169.43 105.79 168.26 105.97 167.66 106.80 C 167.05 107.64 167.23 108.81 168.06 109.41 Z M 168.38 109.55 L 168.88 110.23 C 169.49 111.07 170.67 111.26 171.51 110.65 C 172.35 110.04 172.53 108.86 171.92 108.02 L 171.43 107.34 C 170.82 106.50 169.64 106.31 168.80 106.92 C 167.96 107.53 167.77 108.71 168.38 109.55 Z M 168.65 109.84 L 168.97 110.65 C 169.37 111.62 170.47 112.09 171.44 111.70 C 172.41 111.31 172.88 110.20 172.49 109.23 L 172.16 108.42 C 171.77 107.45 170.66 106.98 169.69 107.37 C 168.72 107.76 168.25 108.87 168.65 109.84 Z M 168.87 110.35 L 169.08 111.29 C 169.30 112.32 170.32 112.97 171.35 112.74 C 172.38 112.52 173.03 111.50 172.80 110.47 L 172.59 109.53 C 172.37 108.50 171.35 107.85 170.32 108.08 C 169.29 108.31 168.64 109.32 168.87 110.35 Z M 169.03 111.07 L 169.13 112.09 C 169.23 113.15 170.16 113.92 171.22 113.82 C 172.28 113.72 173.05 112.78 172.95 111.73 L 172.85 110.70 C 172.75 109.64 171.81 108.87 170.75 108.97 C 169.70 109.07 168.93 110.01 169.03 111.07 Z M 169.10 111.92 L 169.11 113.00 C 169.11 114.07 169.98 114.93 171.05 114.92 C 172.12 114.92 172.98 114.05 172.97 112.98 L 172.97 111.90 C 172.96 110.83 172.09 109.97 171.03 109.98 C 169.96 109.98 169.10 110.85 169.10 111.92 Z M 169.10 112.86 L 169.03 113.96 C 168.96 115.03 169.77 115.96 170.84 116.03 C 171.91 116.10 172.84 115.29 172.91 114.22 L 172.98 113.12 C 173.05 112.05 172.24 111.12 171.17 111.05 C 170.10 110.98 169.17 111.79 169.10 112.86 Z M 169.03 113.84 L 168.90 114.89 C 168.76 115.96 169.52 116.94 170.59 117.07 C 171.66 117.21 172.64 116.45 172.77 115.38 L 172.91 114.33 C 173.04 113.26 172.29 112.28 171.22 112.15 C 170.14 112.01 169.17 112.77 169.03 113.84 Z M 168.91 114.78 L 168.73 115.76 C 168.53 116.83 169.24 117.85 170.30 118.04 C 171.37 118.24 172.39 117.53 172.58 116.47 L 172.76 115.49 C 172.96 114.42 172.25 113.40 171.19 113.21 C 170.12 113.01 169.10 113.72 168.91 114.78 Z M 168.75 115.66 L 168.52 116.62 C 168.27 117.68 168.92 118.73 169.98 118.98 C 171.03 119.23 172.09 118.58 172.34 117.52 L 172.57 116.57 C 172.82 115.51 172.16 114.45 171.11 114.20 C 170.05 113.96 168.99 114.61 168.75 115.66 Z M 168.54 116.53 L 168.27 117.47 C 167.97 118.51 168.57 119.60 169.61 119.90 C 170.65 120.20 171.74 119.60 172.04 118.56 L 172.32 117.62 C 172.62 116.58 172.02 115.49 170.97 115.18 C 169.93 114.88 168.84 115.48 168.54 116.53 Z M 168.29 117.38 L 167.98 118.32 C 167.63 119.35 168.18 120.47 169.21 120.82 C 170.24 121.16 171.36 120.61 171.70 119.58 L 172.02 118.65 C 172.37 117.62 171.82 116.50 170.79 116.15 C 169.76 115.80 168.64 116.35 168.29 117.38 Z M 168.00 118.24 L 167.64 119.18 C 167.25 120.20 167.76 121.34 168.77 121.73 C 169.79 122.12 170.93 121.61 171.32 120.60 L 171.68 119.66 C 172.07 118.64 171.56 117.50 170.55 117.11 C 169.53 116.72 168.39 117.23 168.00 118.24 Z M 167.66 119.12 L 167.26 120.07 C 166.84 121.07 167.31 122.23 168.31 122.65 C 169.31 123.08 170.47 122.61 170.89 121.61 L 171.30 120.66 C 171.72 119.66 171.25 118.50 170.25 118.07 C 169.25 117.65 168.09 118.12 167.66 119.12 Z M 167.28 120.02 L 166.89 120.87 C 166.44 121.86 166.88 123.03 167.87 123.49 C 168.86 123.94 170.04 123.50 170.49 122.51 L 170.88 121.66 C 171.33 120.66 170.89 119.49 169.90 119.04 C 168.90 118.59 167.73 119.03 167.28 120.02 Z M 166.91 120.83 L 166.51 121.67 C 166.04 122.65 166.45 123.83 167.43 124.31 C 168.42 124.78 169.60 124.36 170.07 123.38 L 170.47 122.54 C 170.94 121.56 170.53 120.38 169.55 119.91 C 168.56 119.43 167.38 119.85 166.91 120.83 Z M 166.52 121.64 L 166.09 122.49 C 165.61 123.47 166.00 124.66 166.98 125.15 C 167.95 125.63 169.14 125.24 169.63 124.26 L 170.06 123.41 C 170.55 122.43 170.15 121.25 169.17 120.76 C 168.20 120.27 167.01 120.66 166.52 121.64 Z M 166.10 122.47 L 165.65 123.34 C 165.15 124.31 165.53 125.51 166.50 126.01 C 167.47 126.51 168.67 126.13 169.17 125.16 L 169.62 124.29 C 170.12 123.32 169.74 122.12 168.77 121.62 C 167.80 121.12 166.61 121.50 166.10 122.47 Z M 165.66 123.32 L 165.19 124.22 C 164.68 125.18 165.05 126.38 166.01 126.89 C 166.98 127.40 168.17 127.03 168.69 126.07 L 169.16 125.18 C 169.67 124.21 169.30 123.01 168.34 122.50 C 167.37 121.99 166.17 122.36 165.66 123.32 Z M 165.20 124.20 L 164.70 125.11 C 164.18 126.08 164.54 127.28 165.50 127.80 C 166.47 128.32 167.67 127.96 168.19 127.00 L 168.68 126.08 C 169.20 125.12 168.84 123.92 167.88 123.40 C 166.92 122.88 165.72 123.24 165.20 124.20 Z M 164.71 125.11 L 164.20 126.04 C 163.67 127.00 164.02 128.20 164.98 128.73 C 165.94 129.25 167.15 128.90 167.67 127.94 L 168.18 127.00 C 168.71 126.04 168.35 124.84 167.39 124.32 C 166.43 123.79 165.23 124.15 164.71 125.11 Z M 164.20 126.03 L 163.67 126.99 C 163.14 127.95 163.49 129.16 164.45 129.68 C 165.41 130.21 166.62 129.86 167.14 128.90 L 167.67 127.94 C 168.20 126.99 167.85 125.78 166.89 125.25 C 165.93 124.73 164.73 125.08 164.20 126.03 Z M 163.67 126.99 L 163.18 127.88 C 162.65 128.84 163.00 130.05 163.96 130.58 C 164.92 131.10 166.12 130.76 166.65 129.80 L 167.14 128.90 C 167.67 127.95 167.32 126.74 166.36 126.21 C 165.40 125.68 164.20 126.03 163.67 126.99 Z M 163.18 127.88 L 162.68 128.79 C 162.15 129.75 162.50 130.95 163.46 131.48 C 164.42 132.01 165.63 131.66 166.15 130.70 L 166.65 129.80 C 167.18 128.84 166.83 127.63 165.87 127.11 C 164.91 126.58 163.71 126.93 163.18 127.88 Z M 162.68 128.79 L 162.18 129.70 C 161.65 130.66 162.00 131.86 162.96 132.39 C 163.92 132.92 165.12 132.57 165.65 131.61 L 166.15 130.70 C 166.68 129.74 166.33 128.54 165.37 128.01 C 164.42 127.48 163.21 127.83 162.68 128.79 Z M 162.18 129.70 L 161.68 130.60 C 161.15 131.56 161.50 132.77 162.46 133.30 C 163.42 133.82 164.63 133.47 165.15 132.52 L 165.65 131.61 C 166.18 130.65 165.83 129.44 164.87 128.92 C 163.91 128.39 162.71 128.74 162.18 129.70 Z M 161.68 130.61 L 161.19 131.50 C 160.66 132.46 161.01 133.67 161.97 134.20 C 162.93 134.72 164.13 134.37 164.66 133.41 L 165.16 132.51 C 165.68 131.56 165.33 130.35 164.37 129.82 C 163.41 129.30 162.21 129.65 161.68 130.61 Z M 161.19 131.50 L 160.70 132.39 C 160.18 133.35 160.53 134.55 161.49 135.08 C 162.45 135.60 163.65 135.25 164.18 134.29 L 164.66 133.41 C 165.19 132.45 164.84 131.25 163.88 130.72 C 162.92 130.19 161.71 130.54 161.19 131.50 Z M 160.70 132.39 L 160.23 133.25 C 159.71 134.21 160.06 135.41 161.02 135.94 C 161.98 136.46 163.19 136.11 163.71 135.15 L 164.18 134.29 C 164.71 133.33 164.35 132.12 163.39 131.60 C 162.43 131.07 161.23 131.43 160.70 132.39 Z M 160.23 133.25 L 159.78 134.07 C 159.26 135.04 159.61 136.24 160.58 136.76 C 161.54 137.29 162.74 136.93 163.27 135.97 L 163.71 135.14 C 164.24 134.18 163.88 132.98 162.92 132.45 C 161.96 131.93 160.75 132.29 160.23 133.25 Z M 159.78 134.08 L 159.30 134.96 C 158.78 135.92 159.14 137.12 160.10 137.65 C 161.07 138.17 162.27 137.81 162.79 136.85 L 163.27 135.97 C 163.79 135.00 163.43 133.80 162.47 133.28 C 161.50 132.76 160.30 133.11 159.78 134.08 Z M 159.30 134.96 L 158.76 135.97 C 158.24 136.93 158.60 138.14 159.57 138.65 C 160.53 139.17 161.73 138.81 162.25 137.85 L 162.79 136.84 C 163.31 135.88 162.95 134.67 161.98 134.16 C 161.02 133.64 159.82 134.00 159.30 134.96 Z M 158.76 135.98 L 158.26 136.91 C 157.74 137.88 158.11 139.08 159.08 139.59 C 160.04 140.11 161.24 139.74 161.76 138.78 L 162.25 137.84 C 162.77 136.87 162.40 135.67 161.44 135.16 C 160.47 134.65 159.27 135.01 158.76 135.98 Z M 158.26 136.92 L 157.79 137.80 C 157.28 138.77 157.65 139.96 158.62 140.48 C 159.58 140.99 160.78 140.62 161.29 139.65 L 161.76 138.77 C 162.27 137.80 161.90 136.61 160.93 136.10 C 159.97 135.58 158.77 135.95 158.26 136.92 Z M 157.79 137.80 L 157.35 138.64 C 156.84 139.61 157.21 140.80 158.18 141.31 C 159.15 141.82 160.34 141.45 160.85 140.48 L 161.29 139.65 C 161.80 138.68 161.43 137.48 160.46 136.97 C 159.50 136.47 158.30 136.84 157.79 137.80 Z M 157.35 138.64 L 156.93 139.44 C 156.42 140.41 156.80 141.61 157.77 142.11 C 158.73 142.62 159.93 142.25 160.43 141.28 L 160.85 140.48 C 161.36 139.51 160.99 138.32 160.02 137.81 C 159.05 137.30 157.86 137.68 157.35 138.64 Z M 156.93 139.45 L 156.52 140.23 C 156.02 141.20 156.39 142.39 157.36 142.90 C 158.32 143.40 159.52 143.03 160.02 142.06 L 160.43 141.28 C 160.94 140.31 160.56 139.12 159.60 138.61 C 158.63 138.11 157.44 138.48 156.93 139.45 Z M 156.52 140.23 L 156.06 141.12 C 155.56 142.08 155.93 143.28 156.89 143.78 C 157.86 144.29 159.05 143.91 159.56 142.95 L 160.02 142.06 C 160.53 141.10 160.15 139.90 159.19 139.40 C 158.22 138.89 157.03 139.27 156.52 140.23 Z M 156.06 141.12 L 155.60 141.99 C 155.10 142.96 155.47 144.15 156.43 144.65 C 157.40 145.16 158.59 144.79 159.10 143.82 L 159.56 142.95 C 160.06 141.98 159.69 140.79 158.72 140.29 C 157.76 139.78 156.57 140.15 156.06 141.12 Z M 155.61 141.99 L 155.15 142.87 C 154.64 143.83 155.01 145.02 155.97 145.53 C 156.94 146.03 158.13 145.66 158.63 144.70 L 159.09 143.83 C 159.60 142.86 159.23 141.67 158.27 141.16 C 157.30 140.66 156.11 141.03 155.61 141.99 Z M 155.15 142.87 L 154.68 143.75 C 154.18 144.71 154.54 145.90 155.50 146.41 C 156.47 146.91 157.66 146.55 158.16 145.59 L 158.63 144.70 C 159.14 143.74 158.77 142.55 157.81 142.04 C 156.85 141.54 155.66 141.90 155.15 142.87 Z M 154.69 143.74 L 154.21 144.64 C 153.70 145.60 154.07 146.79 155.03 147.30 C 155.99 147.81 157.18 147.44 157.69 146.48 L 158.16 145.59 C 158.67 144.63 158.30 143.44 157.35 142.93 C 156.39 142.42 155.20 142.79 154.69 143.74 Z M 154.22 144.64 L 153.75 145.50 C 153.24 146.46 153.60 147.65 154.56 148.16 C 155.52 148.67 156.71 148.31 157.22 147.35 L 157.68 146.49 C 158.19 145.53 157.83 144.34 156.87 143.83 C 155.92 143.32 154.73 143.68 154.22 144.64 Z M 153.76 145.50 L 153.30 146.36 C 152.79 147.31 153.14 148.50 154.10 149.01 C 155.05 149.53 156.24 149.17 156.76 148.21 L 157.22 147.36 C 157.73 146.40 157.37 145.21 156.41 144.70 C 155.46 144.19 154.27 144.55 153.76 145.50 Z M 153.30 146.35 L 152.83 147.22 C 152.32 148.18 152.67 149.37 153.63 149.88 C 154.58 150.39 155.77 150.04 156.28 149.09 L 156.75 148.21 C 157.27 147.26 156.91 146.07 155.96 145.56 C 155.00 145.04 153.82 145.40 153.30 146.35 Z M 152.84 147.22 L 152.36 148.10 C 151.84 149.06 152.19 150.24 153.14 150.76 C 154.09 151.28 155.28 150.92 155.80 149.97 L 156.28 149.09 C 156.79 148.14 156.44 146.95 155.49 146.43 C 154.54 145.92 153.35 146.27 152.84 147.22 Z M 152.36 148.10 L 151.87 149.00 C 151.35 149.94 151.70 151.13 152.65 151.65 C 153.60 152.17 154.79 151.82 155.31 150.87 L 155.80 149.98 C 156.31 149.03 155.96 147.84 155.01 147.32 C 154.07 146.80 152.88 147.15 152.36 148.10 Z M 151.88 148.99 L 151.38 149.90 C 150.86 150.84 151.21 152.03 152.15 152.55 C 153.10 153.07 154.29 152.72 154.81 151.78 L 155.30 150.87 C 155.82 149.93 155.48 148.74 154.53 148.22 C 153.58 147.70 152.39 148.05 151.88 148.99 Z M 151.38 149.89 L 150.90 150.77 C 150.38 151.71 150.73 152.90 151.67 153.42 C 152.61 153.94 153.80 153.60 154.32 152.65 L 154.80 151.78 C 155.32 150.84 154.98 149.65 154.04 149.13 C 153.09 148.61 151.90 148.95 151.38 149.89 Z M 150.91 150.76 L 150.43 151.62 C 149.91 152.56 150.25 153.75 151.19 154.27 C 152.14 154.79 153.32 154.45 153.84 153.51 L 154.32 152.65 C 154.84 151.71 154.50 150.52 153.56 150.00 C 152.62 149.48 151.43 149.82 150.91 150.76 Z M 150.44 151.62 L 149.96 152.48 C 149.43 153.42 149.77 154.61 150.71 155.13 C 151.65 155.65 152.84 155.32 153.36 154.38 L 153.84 153.51 C 154.36 152.57 154.02 151.39 153.08 150.86 C 152.14 150.34 150.96 150.68 150.44 151.62 Z M 149.96 152.48 L 149.47 153.36 C 148.95 154.29 149.29 155.48 150.23 156.00 C 151.16 156.52 152.35 156.19 152.87 155.25 L 153.36 154.38 C 153.88 153.44 153.54 152.26 152.60 151.73 C 151.67 151.21 150.48 151.55 149.96 152.48 Z M 149.48 153.36 L 148.98 154.24 C 148.46 155.17 148.80 156.36 149.73 156.88 C 150.67 157.40 151.85 157.07 152.37 156.13 L 152.87 155.25 C 153.39 154.31 153.05 153.13 152.12 152.61 C 151.18 152.09 150.00 152.42 149.48 153.36 Z M 148.99 154.24 L 148.49 155.13 C 147.97 156.07 148.30 157.25 149.24 157.77 C 150.17 158.29 151.35 157.95 151.87 157.02 L 152.37 156.13 C 152.89 155.19 152.56 154.01 151.62 153.49 C 150.69 152.97 149.51 153.31 148.99 154.24 Z M 148.49 155.13 L 148.00 156.01 C 147.48 156.94 147.82 158.12 148.75 158.64 C 149.68 159.16 150.86 158.83 151.38 157.89 L 151.87 157.02 C 152.39 156.08 152.06 154.91 151.13 154.39 C 150.19 153.86 149.01 154.20 148.49 155.13 Z M 148.01 156.01 L 147.54 156.85 C 147.02 157.78 147.35 158.96 148.29 159.48 C 149.22 160.00 150.39 159.66 150.91 158.73 L 151.38 157.89 C 151.90 156.96 151.57 155.78 150.63 155.26 C 149.70 154.75 148.53 155.08 148.01 156.01 Z M 147.54 156.85 L 147.07 157.70 C 146.55 158.63 146.88 159.80 147.81 160.32 C 148.74 160.84 149.92 160.51 150.44 159.58 L 150.91 158.73 C 151.43 157.80 151.10 156.62 150.17 156.11 C 149.24 155.59 148.06 155.92 147.54 156.85 Z M 147.07 157.70 L 146.59 158.56 C 146.07 159.49 146.40 160.66 147.33 161.18 C 148.26 161.70 149.43 161.37 149.95 160.44 L 150.43 159.58 C 150.95 158.65 150.62 157.48 149.69 156.96 C 148.76 156.44 147.59 156.77 147.07 157.70 Z M 146.59 158.56 L 146.10 159.43 C 145.59 160.36 145.92 161.53 146.84 162.05 C 147.77 162.57 148.94 162.24 149.46 161.31 L 149.95 160.44 C 150.47 159.51 150.14 158.34 149.21 157.82 C 148.29 157.30 147.11 157.63 146.59 158.56 Z M 146.11 159.43 L 145.61 160.32 C 145.09 161.25 145.42 162.42 146.34 162.94 C 147.26 163.46 148.43 163.13 148.95 162.21 L 149.46 161.32 C 149.98 160.39 149.65 159.22 148.72 158.70 C 147.80 158.18 146.63 158.51 146.11 159.43 Z M 145.61 160.32 L 145.10 161.23 C 144.58 162.15 144.90 163.32 145.83 163.84 C 146.75 164.36 147.92 164.04 148.44 163.11 L 148.95 162.21 C 149.47 161.29 149.15 160.12 148.22 159.60 C 147.30 159.07 146.13 159.40 145.61 160.32 Z M 145.11 161.22 L 144.61 162.10 C 144.09 163.02 144.41 164.18 145.33 164.71 C 146.25 165.23 147.41 164.91 147.94 163.99 L 148.43 163.12 C 148.96 162.20 148.63 161.03 147.72 160.51 C 146.80 159.98 145.63 160.31 145.11 161.22 Z M 144.61 162.09 L 144.15 162.91 C 143.62 163.83 143.94 164.99 144.86 165.52 C 145.77 166.04 146.94 165.72 147.47 164.81 L 147.93 163.99 C 148.46 163.07 148.14 161.91 147.22 161.38 C 146.30 160.86 145.14 161.18 144.61 162.09 Z M 144.15 162.91 L 143.68 163.74 C 143.15 164.65 143.47 165.82 144.38 166.34 C 145.29 166.87 146.46 166.55 146.98 165.64 L 147.46 164.81 C 147.99 163.89 147.67 162.73 146.76 162.20 C 145.84 161.68 144.68 162.00 144.15 162.91 Z M 143.68 163.74 L 143.19 164.59 C 142.67 165.50 142.98 166.66 143.89 167.19 C 144.81 167.71 145.97 167.40 146.49 166.48 L 146.98 165.64 C 147.50 164.73 147.19 163.56 146.28 163.04 C 145.37 162.51 144.20 162.83 143.68 163.74 Z M 143.20 164.59 L 142.70 165.45 C 142.18 166.36 142.49 167.52 143.40 168.05 C 144.31 168.57 145.47 168.26 145.99 167.35 L 146.49 166.48 C 147.01 165.57 146.70 164.41 145.79 163.89 C 144.88 163.37 143.72 163.68 143.20 164.59 Z M 142.70 165.45 L 142.19 166.33 C 141.67 167.24 141.98 168.40 142.89 168.92 C 143.80 169.45 144.96 169.14 145.48 168.23 L 145.99 167.35 C 146.51 166.44 146.20 165.28 145.29 164.76 C 144.39 164.23 143.23 164.54 142.70 165.45 Z M 142.20 166.34 L 141.68 167.24 C 141.16 168.14 141.47 169.30 142.37 169.82 C 143.28 170.34 144.44 170.03 144.96 169.13 L 145.48 168.23 C 146.00 167.32 145.69 166.16 144.78 165.64 C 143.88 165.12 142.72 165.43 142.20 166.34 Z M 141.68 167.24 L 141.15 168.16 C 140.63 169.06 140.94 170.22 141.85 170.74 C 142.75 171.26 143.91 170.95 144.43 170.04 L 144.96 169.12 C 145.48 168.22 145.17 167.06 144.26 166.54 C 143.36 166.02 142.20 166.33 141.68 167.24 Z M 141.15 168.16 L 140.64 169.05 C 140.12 169.96 140.44 171.11 141.34 171.63 C 142.24 172.15 143.40 171.84 143.92 170.93 L 144.43 170.04 C 144.95 169.14 144.63 167.98 143.73 167.46 C 142.83 166.95 141.67 167.26 141.15 168.16 Z M 140.64 169.06 L 140.16 169.91 C 139.64 170.81 139.95 171.96 140.86 172.48 C 141.76 172.99 142.91 172.68 143.43 171.78 L 143.91 170.93 C 144.43 170.03 144.12 168.88 143.22 168.36 C 142.31 167.84 141.16 168.15 140.64 169.06 Z M 140.16 169.91 L 139.67 170.77 C 139.15 171.67 139.46 172.82 140.36 173.33 C 141.27 173.85 142.41 173.54 142.93 172.64 L 143.42 171.78 C 143.94 170.88 143.63 169.73 142.73 169.21 C 141.83 168.69 140.68 169.01 140.16 169.91 Z M 139.67 170.77 L 139.17 171.64 C 138.66 172.53 138.97 173.68 139.87 174.20 C 140.76 174.72 141.91 174.41 142.43 173.51 L 142.93 172.64 C 143.44 171.74 143.13 170.59 142.23 170.07 C 141.34 169.56 140.19 169.87 139.67 170.77 Z M 139.18 171.63 L 138.67 172.51 C 138.16 173.40 138.46 174.55 139.36 175.07 C 140.26 175.59 141.40 175.28 141.92 174.38 L 142.42 173.51 C 142.94 172.61 142.63 171.47 141.74 170.95 C 140.84 170.43 139.69 170.74 139.18 171.63 Z M 138.68 172.51 L 138.17 173.38 C 137.65 174.27 137.96 175.42 138.85 175.94 C 139.74 176.46 140.89 176.15 141.41 175.26 L 141.91 174.38 C 142.43 173.49 142.13 172.35 141.24 171.83 C 140.34 171.31 139.20 171.61 138.68 172.51 Z M 138.18 173.38 L 137.67 174.25 C 137.14 175.14 137.44 176.28 138.33 176.80 C 139.22 177.33 140.37 177.03 140.89 176.14 L 141.40 175.26 C 141.92 174.37 141.62 173.23 140.73 172.71 C 139.84 172.19 138.70 172.49 138.18 173.38 Z M 137.67 174.24 L 137.16 175.11 C 136.63 176.00 136.93 177.14 137.81 177.67 C 138.70 178.19 139.84 177.90 140.37 177.01 L 140.88 176.14 C 141.40 175.26 141.11 174.11 140.23 173.59 C 139.34 173.07 138.20 173.36 137.67 174.24 Z M 137.17 175.11 L 136.65 175.96 C 136.12 176.85 136.41 177.99 137.29 178.52 C 138.17 179.05 139.31 178.76 139.84 177.88 L 140.36 177.02 C 140.89 176.14 140.60 174.99 139.72 174.47 C 138.84 173.94 137.69 174.22 137.17 175.11 Z M 136.66 175.96 L 136.13 176.82 C 135.60 177.70 135.88 178.84 136.75 179.38 C 137.63 179.91 138.77 179.63 139.31 178.75 L 139.83 177.89 C 140.37 177.01 140.09 175.87 139.21 175.34 C 138.34 174.80 137.19 175.08 136.66 175.96 Z M 136.14 176.81 L 135.60 177.69 C 135.06 178.56 135.33 179.70 136.20 180.24 C 137.07 180.78 138.21 180.51 138.75 179.64 L 139.29 178.76 C 139.83 177.89 139.56 176.75 138.69 176.21 C 137.82 175.67 136.68 175.94 136.14 176.81 Z M 135.61 177.68 L 135.07 178.54 C 134.53 179.41 134.79 180.55 135.65 181.09 C 136.52 181.63 137.66 181.37 138.20 180.51 L 138.74 179.65 C 139.29 178.78 139.03 177.64 138.16 177.10 C 137.30 176.56 136.16 176.82 135.61 177.68 Z M 135.08 178.53 L 134.54 179.38 C 133.99 180.24 134.24 181.38 135.10 181.93 C 135.96 182.48 137.10 182.23 137.65 181.37 L 138.19 180.52 C 138.74 179.66 138.49 178.52 137.63 177.97 C 136.77 177.42 135.63 177.68 135.08 178.53 Z M 134.55 179.37 L 134.01 180.21 C 133.45 181.06 133.69 182.20 134.55 182.76 C 135.40 183.31 136.54 183.07 137.09 182.21 L 137.63 181.38 C 138.19 180.53 137.95 179.39 137.09 178.83 C 136.24 178.28 135.10 178.52 134.55 179.37 Z M 134.02 180.20 L 133.47 181.03 C 132.91 181.88 133.15 183.01 133.99 183.57 C 134.84 184.13 135.98 183.90 136.53 183.05 L 137.08 182.22 C 137.64 181.38 137.40 180.24 136.56 179.68 C 135.71 179.12 134.57 179.36 134.02 180.20 Z M 133.48 181.02 L 132.93 181.84 C 132.37 182.68 132.60 183.82 133.44 184.38 C 134.28 184.94 135.41 184.72 135.98 183.88 L 136.52 183.06 C 137.09 182.22 136.86 181.08 136.02 180.52 C 135.18 179.96 134.04 180.18 133.48 181.02 Z M 132.94 181.83 L 132.39 182.64 C 131.83 183.48 132.05 184.61 132.88 185.18 C 133.71 185.75 134.85 185.53 135.42 184.69 L 135.97 183.88 C 136.53 183.05 136.31 181.92 135.48 181.35 C 134.65 180.78 133.51 181.00 132.94 181.83 Z M 132.41 182.64 L 131.85 183.44 C 131.28 184.27 131.49 185.40 132.32 185.97 C 133.15 186.54 134.28 186.33 134.85 185.50 L 135.40 184.70 C 135.97 183.87 135.77 182.74 134.94 182.17 C 134.11 181.60 132.98 181.81 132.41 182.64 Z M 131.86 183.43 L 131.29 184.25 C 130.72 185.08 130.92 186.21 131.74 186.78 C 132.56 187.36 133.70 187.15 134.27 186.33 L 134.84 185.51 C 135.42 184.69 135.21 183.56 134.39 182.98 C 133.57 182.41 132.44 182.61 131.86 183.43 Z M 131.30 184.25 L 130.72 185.06 C 130.15 185.88 130.34 187.01 131.16 187.59 C 131.97 188.17 133.11 187.97 133.68 187.15 L 134.26 186.34 C 134.84 185.52 134.64 184.39 133.83 183.81 C 133.01 183.24 131.88 183.43 131.30 184.25 Z M 130.73 185.06 L 130.15 185.87 C 129.57 186.68 129.76 187.81 130.57 188.39 C 131.38 188.97 132.51 188.78 133.09 187.97 L 133.67 187.16 C 134.25 186.35 134.07 185.22 133.25 184.64 C 132.44 184.06 131.32 184.25 130.73 185.06 Z M 130.16 185.86 L 129.58 186.67 C 128.99 187.48 129.17 188.60 129.98 189.19 C 130.78 189.77 131.91 189.59 132.50 188.79 L 133.08 187.98 C 133.66 187.17 133.48 186.05 132.68 185.46 C 131.87 184.88 130.75 185.06 130.16 185.86 Z M 129.59 186.67 L 129.00 187.47 C 128.41 188.27 128.58 189.39 129.38 189.98 C 130.18 190.57 131.31 190.40 131.89 189.60 L 132.48 188.79 C 133.07 187.99 132.90 186.87 132.10 186.28 C 131.30 185.69 130.18 185.87 129.59 186.67 Z M 129.01 187.46 L 128.41 188.27 C 127.82 189.06 127.99 190.18 128.78 190.77 C 129.58 191.36 130.70 191.20 131.29 190.40 L 131.88 189.60 C 132.47 188.81 132.31 187.68 131.51 187.09 C 130.72 186.50 129.60 186.67 129.01 187.46 Z M 128.42 188.26 L 127.82 189.06 C 127.23 189.85 127.39 190.97 128.18 191.56 C 128.97 192.16 130.09 192.00 130.68 191.21 L 131.28 190.41 C 131.87 189.62 131.71 188.50 130.92 187.91 C 130.14 187.31 129.02 187.47 128.42 188.26 Z M 127.83 189.06 L 127.22 189.86 C 126.63 190.64 126.78 191.76 127.57 192.35 C 128.35 192.95 129.47 192.79 130.06 192.01 L 130.67 191.21 C 131.26 190.43 131.11 189.31 130.33 188.72 C 129.54 188.12 128.43 188.27 127.83 189.06 Z M 127.23 189.85 L 126.62 190.64 C 126.03 191.42 126.17 192.54 126.95 193.14 C 127.73 193.73 128.85 193.59 129.44 192.81 L 130.05 192.02 C 130.65 191.24 130.50 190.12 129.73 189.52 C 128.95 188.93 127.83 189.07 127.23 189.85 Z M 126.63 190.64 L 126.02 191.43 C 125.42 192.20 125.56 193.32 126.33 193.92 C 127.11 194.52 128.22 194.38 128.82 193.60 L 129.43 192.81 C 130.03 192.04 129.89 190.93 129.12 190.33 C 128.35 189.73 127.23 189.87 126.63 190.64 Z M 126.03 191.43 L 125.41 192.21 C 124.81 192.98 124.94 194.09 125.71 194.70 C 126.48 195.30 127.59 195.16 128.19 194.40 L 128.81 193.61 C 129.41 192.84 129.28 191.73 128.51 191.13 C 127.74 190.52 126.63 190.66 126.03 191.43 Z M 125.42 192.21 L 124.80 192.99 C 124.19 193.76 124.32 194.86 125.08 195.47 C 125.84 196.08 126.95 195.95 127.56 195.19 L 128.18 194.40 C 128.79 193.64 128.66 192.53 127.90 191.93 C 127.14 191.32 126.03 191.45 125.42 192.21 Z M 124.81 192.99 L 124.18 193.77 C 123.57 194.53 123.69 195.63 124.45 196.24 C 125.20 196.85 126.31 196.73 126.92 195.97 L 127.55 195.19 C 128.15 194.44 128.04 193.33 127.28 192.72 C 126.52 192.11 125.42 192.23 124.81 192.99 Z M 124.19 193.76 L 123.56 194.54 C 122.95 195.29 123.06 196.39 123.81 197.00 C 124.56 197.62 125.66 197.51 126.27 196.76 L 126.91 195.98 C 127.52 195.23 127.41 194.13 126.66 193.51 C 125.91 192.90 124.80 193.01 124.19 193.76 Z M 123.57 194.53 L 122.93 195.30 C 122.32 196.05 122.42 197.15 123.16 197.76 C 123.90 198.38 125.01 198.28 125.62 197.53 L 126.26 196.76 C 126.88 196.02 126.77 194.92 126.03 194.30 C 125.29 193.69 124.19 193.79 123.57 194.53 Z M 122.94 195.30 L 122.30 196.06 C 121.68 196.79 121.78 197.89 122.51 198.51 C 123.25 199.13 124.35 199.04 124.97 198.30 L 125.61 197.54 C 126.23 196.80 126.13 195.70 125.40 195.09 C 124.66 194.47 123.56 194.56 122.94 195.30 Z M 122.32 196.05 L 121.66 196.81 C 121.04 197.54 121.12 198.64 121.85 199.26 C 122.58 199.88 123.68 199.80 124.30 199.07 L 124.95 198.31 C 125.58 197.58 125.49 196.48 124.76 195.86 C 124.04 195.24 122.94 195.32 122.32 196.05 Z M 121.68 196.80 L 121.01 197.57 C 120.38 198.30 120.45 199.39 121.17 200.02 C 121.89 200.65 122.99 200.57 123.62 199.85 L 124.29 199.08 C 124.92 198.36 124.84 197.26 124.12 196.63 C 123.40 196.01 122.31 196.08 121.68 196.80 Z M 121.02 197.57 L 120.34 198.33 C 119.71 199.04 119.78 200.13 120.49 200.77 C 121.21 201.40 122.30 201.33 122.93 200.62 L 123.60 199.86 C 124.24 199.14 124.17 198.05 123.46 197.42 C 122.74 196.79 121.65 196.85 121.02 197.57 Z M 120.36 198.32 L 119.68 199.07 C 119.04 199.78 119.10 200.87 119.81 201.50 C 120.52 202.14 121.60 202.08 122.24 201.38 L 122.92 200.62 C 123.55 199.92 123.50 198.83 122.79 198.19 C 122.08 197.56 120.99 197.61 120.36 198.32 Z M 119.69 199.07 L 119.02 199.81 C 118.38 200.51 118.43 201.59 119.13 202.23 C 119.83 202.87 120.91 202.82 121.55 202.12 L 122.23 201.38 C 122.87 200.68 122.82 199.60 122.12 198.96 C 121.42 198.32 120.33 198.37 119.69 199.07 Z M 119.03 199.80 L 118.35 200.53 C 117.71 201.23 117.75 202.31 118.44 202.95 C 119.14 203.59 120.22 203.55 120.86 202.86 L 121.54 202.13 C 122.18 201.43 122.14 200.35 121.45 199.71 C 120.75 199.07 119.67 199.11 119.03 199.80 Z M 118.36 200.53 L 117.69 201.25 C 117.04 201.94 117.08 203.02 117.77 203.66 C 118.45 204.31 119.53 204.27 120.18 203.58 L 120.85 202.86 C 121.50 202.18 121.46 201.10 120.77 200.45 C 120.09 199.81 119.01 199.84 118.36 200.53 Z M 117.70 201.25 L 117.02 201.96 C 116.38 202.64 116.41 203.71 117.09 204.36 C 117.77 205.01 118.85 204.98 119.49 204.30 L 120.17 203.59 C 120.81 202.90 120.78 201.83 120.10 201.18 C 119.42 200.53 118.34 200.56 117.70 201.25 Z M 117.03 201.95 L 116.35 202.66 C 115.71 203.34 115.73 204.41 116.41 205.06 C 117.08 205.71 118.16 205.69 118.80 205.01 L 119.48 204.30 C 120.13 203.62 120.11 202.55 119.43 201.90 C 118.76 201.25 117.68 201.28 117.03 201.95 Z M 116.36 202.66 L 115.66 203.39 C 115.01 204.06 115.03 205.13 115.70 205.78 C 116.37 206.43 117.44 206.41 118.09 205.74 L 118.80 205.01 C 119.44 204.34 119.43 203.27 118.76 202.62 C 118.08 201.97 117.01 201.99 116.36 202.66 Z M 115.67 203.39 L 114.96 204.11 C 114.31 204.77 114.32 205.84 114.99 206.49 C 115.65 207.14 116.72 207.13 117.37 206.47 L 118.08 205.75 C 118.73 205.08 118.72 204.01 118.05 203.36 C 117.39 202.71 116.32 202.72 115.67 203.39 Z M 114.97 204.10 L 114.27 204.81 C 113.62 205.47 113.62 206.54 114.28 207.19 C 114.94 207.84 116.00 207.84 116.66 207.18 L 117.36 206.47 C 118.01 205.81 118.01 204.75 117.35 204.09 C 116.69 203.44 115.63 203.44 114.97 204.10 Z M 114.28 204.81 L 113.57 205.51 C 112.92 206.17 112.92 207.23 113.57 207.88 C 114.22 208.54 115.28 208.54 115.94 207.89 L 116.65 207.18 C 117.30 206.53 117.30 205.47 116.65 204.81 C 116.00 204.16 114.94 204.16 114.28 204.81 Z M 113.59 205.51 L 112.88 206.20 C 112.22 206.85 112.21 207.91 112.86 208.57 C 113.50 209.23 114.56 209.23 115.22 208.59 L 115.93 207.89 C 116.59 207.25 116.60 206.19 115.95 205.53 C 115.30 204.87 114.24 204.86 113.59 205.51 Z M 112.89 206.20 L 112.18 206.89 C 111.52 207.53 111.50 208.58 112.14 209.24 C 112.78 209.90 113.83 209.92 114.50 209.28 L 115.21 208.59 C 115.87 207.95 115.88 206.90 115.25 206.24 C 114.61 205.58 113.55 205.56 112.89 206.20 Z M 112.19 206.88 L 111.47 207.57 C 110.81 208.20 110.79 209.25 111.42 209.92 C 112.05 210.58 113.10 210.60 113.76 209.97 L 114.48 209.29 C 115.15 208.65 115.17 207.60 114.54 206.94 C 113.91 206.28 112.85 206.25 112.19 206.88 Z M 111.49 207.56 L 110.74 208.26 C 110.07 208.89 110.04 209.94 110.67 210.60 C 111.29 211.27 112.34 211.30 113.00 210.68 L 113.75 209.98 C 114.42 209.35 114.45 208.30 113.83 207.64 C 113.20 206.97 112.15 206.94 111.49 207.56 Z M 110.75 208.26 L 109.99 208.97 C 109.32 209.59 109.27 210.63 109.89 211.30 C 110.51 211.97 111.55 212.01 112.22 211.39 L 112.99 210.68 C 113.66 210.07 113.70 209.02 113.08 208.35 C 112.47 207.68 111.42 207.64 110.75 208.26 Z M 110.00 208.96 L 109.23 209.66 C 108.56 210.27 108.51 211.31 109.12 211.99 C 109.73 212.66 110.77 212.71 111.44 212.10 L 112.21 211.40 C 112.88 210.79 112.93 209.75 112.32 209.07 C 111.71 208.40 110.67 208.35 110.00 208.96 Z M 109.24 209.66 L 108.48 210.34 C 107.81 210.94 107.75 211.98 108.35 212.66 C 108.96 213.33 109.99 213.39 110.67 212.78 L 111.43 212.10 C 112.11 211.50 112.16 210.46 111.56 209.78 C 110.95 209.11 109.92 209.05 109.24 209.66 Z M 108.49 210.34 L 107.74 211.00 C 107.06 211.60 107.00 212.63 107.60 213.31 C 108.19 213.99 109.23 214.05 109.90 213.45 L 110.66 212.79 C 111.33 212.19 111.40 211.16 110.80 210.48 C 110.20 209.80 109.17 209.74 108.49 210.34 Z M 107.75 211.00 L 107.01 211.64 C 106.34 212.23 106.26 213.26 106.86 213.94 C 107.45 214.62 108.48 214.69 109.16 214.10 L 109.89 213.46 C 110.57 212.86 110.64 211.83 110.05 211.16 C 109.46 210.48 108.43 210.41 107.75 211.00 Z M 107.03 211.63 L 106.31 212.25 C 105.63 212.83 105.55 213.86 106.14 214.54 C 106.72 215.22 107.75 215.30 108.43 214.72 L 109.14 214.10 C 109.83 213.52 109.90 212.49 109.32 211.81 C 108.73 211.13 107.71 211.05 107.03 211.63 Z M 106.32 212.24 L 105.60 212.86 C 104.91 213.44 104.83 214.46 105.40 215.14 C 105.98 215.83 107.01 215.91 107.69 215.34 L 108.42 214.72 C 109.10 214.14 109.19 213.12 108.61 212.44 C 108.03 211.75 107.01 211.67 106.32 212.24 Z M 105.61 212.85 L 104.84 213.49 C 104.16 214.06 104.06 215.08 104.63 215.77 C 105.20 216.45 106.22 216.55 106.91 215.98 L 107.67 215.34 C 108.36 214.77 108.46 213.75 107.89 213.07 C 107.32 212.38 106.30 212.28 105.61 212.85 Z M 104.86 213.48 L 104.11 214.09 C 103.42 214.65 103.31 215.66 103.86 216.35 C 104.42 217.05 105.44 217.16 106.13 216.60 L 106.88 215.99 C 107.58 215.43 107.69 214.42 107.13 213.72 C 106.57 213.03 105.56 212.92 104.86 213.48 Z M 104.13 214.07 L 103.37 214.66 C 102.67 215.21 102.55 216.22 103.09 216.92 C 103.63 217.62 104.64 217.75 105.34 217.20 L 106.10 216.61 C 106.81 216.07 106.93 215.06 106.39 214.36 C 105.84 213.66 104.83 213.53 104.13 214.07 Z M 103.40 214.65 L 102.62 215.23 C 101.91 215.76 101.76 216.77 102.29 217.48 C 102.82 218.18 103.82 218.33 104.53 217.80 L 105.32 217.22 C 106.03 216.69 106.17 215.68 105.64 214.98 C 105.11 214.27 104.11 214.12 103.40 214.65 Z M 102.65 215.22 L 101.82 215.81 C 101.10 216.32 100.94 217.32 101.45 218.04 C 101.96 218.75 102.96 218.92 103.68 218.41 L 104.50 217.82 C 105.22 217.31 105.39 216.31 104.88 215.59 C 104.36 214.87 103.37 214.70 102.65 215.22 Z M 101.85 215.79 L 100.98 216.39 C 100.25 216.89 100.06 217.88 100.56 218.60 C 101.06 219.33 102.05 219.52 102.78 219.02 L 103.65 218.42 C 104.37 217.93 104.56 216.93 104.06 216.21 C 103.57 215.48 102.57 215.30 101.85 215.79 Z M 101.00 216.38 L 100.21 216.90 C 99.48 217.38 99.28 218.37 99.76 219.10 C 100.25 219.83 101.23 220.03 101.96 219.55 L 102.75 219.03 C 103.48 218.55 103.69 217.56 103.20 216.83 C 102.72 216.10 101.73 215.89 101.00 216.38 Z M 100.23 216.89 L 99.40 217.42 C 98.67 217.89 98.45 218.88 98.92 219.61 C 99.40 220.35 100.38 220.56 101.12 220.09 L 101.95 219.56 C 102.68 219.09 102.90 218.11 102.42 217.37 C 101.95 216.63 100.97 216.42 100.23 216.89 Z M 99.42 217.41 L 98.56 217.95 C 97.82 218.41 97.59 219.39 98.06 220.13 C 98.52 220.87 99.50 221.10 100.24 220.64 L 101.10 220.10 C 101.84 219.64 102.07 218.66 101.60 217.92 C 101.14 217.17 100.16 216.95 99.42 217.41 Z M 98.58 217.94 L 97.70 218.48 C 96.95 218.93 96.72 219.91 97.17 220.65 C 97.63 221.40 98.60 221.63 99.35 221.18 L 100.22 220.64 C 100.97 220.19 101.21 219.22 100.75 218.47 C 100.30 217.72 99.32 217.49 98.58 217.94 Z M 97.71 218.47 L 96.83 219.00 C 96.08 219.45 95.83 220.42 96.28 221.16 C 96.73 221.91 97.69 222.16 98.44 221.71 L 99.33 221.19 C 100.08 220.74 100.33 219.77 99.88 219.02 C 99.43 218.27 98.46 218.03 97.71 218.47 Z M 96.84 218.99 L 95.96 219.51 C 95.21 219.94 94.95 220.91 95.39 221.66 C 95.83 222.41 96.79 222.67 97.55 222.23 L 98.43 221.72 C 99.18 221.28 99.44 220.32 99.00 219.56 C 98.56 218.81 97.60 218.56 96.84 218.99 Z M 95.98 219.50 L 95.11 219.99 C 94.35 220.42 94.09 221.38 94.52 222.14 C 94.94 222.89 95.90 223.16 96.66 222.73 L 97.53 222.24 C 98.29 221.81 98.55 220.85 98.12 220.09 C 97.69 219.34 96.73 219.07 95.98 219.50 Z M 95.13 219.99 L 94.21 220.49 C 93.45 220.91 93.17 221.86 93.59 222.62 C 94.01 223.38 94.97 223.66 95.73 223.24 L 96.64 222.74 C 97.40 222.32 97.68 221.36 97.26 220.60 C 96.84 219.84 95.89 219.57 95.13 219.99 Z M 94.23 220.48 L 93.29 220.98 C 92.52 221.39 92.23 222.34 92.64 223.11 C 93.05 223.87 94.00 224.16 94.76 223.75 L 95.71 223.25 C 96.47 222.84 96.76 221.89 96.35 221.13 C 95.95 220.36 95.00 220.07 94.23 220.48 Z M 93.31 220.98 L 92.40 221.45 C 91.63 221.84 91.32 222.79 91.72 223.56 C 92.12 224.33 93.07 224.63 93.83 224.23 L 94.75 223.76 C 95.52 223.36 95.82 222.42 95.42 221.65 C 95.02 220.88 94.08 220.58 93.31 220.98 Z M 92.41 221.44 L 91.53 221.89 C 90.75 222.27 90.44 223.22 90.83 223.99 C 91.22 224.76 92.16 225.07 92.93 224.68 L 93.82 224.24 C 94.59 223.85 94.90 222.91 94.51 222.14 C 94.13 221.36 93.18 221.05 92.41 221.44 Z M 91.54 221.88 L 90.67 222.31 C 89.90 222.69 89.58 223.63 89.96 224.40 C 90.34 225.18 91.28 225.50 92.05 225.12 L 92.92 224.69 C 93.70 224.31 94.01 223.37 93.63 222.59 C 93.25 221.82 92.31 221.50 91.54 221.88 Z M 90.68 222.30 L 89.83 222.72 C 89.05 223.09 88.73 224.03 89.10 224.81 C 89.48 225.58 90.41 225.91 91.19 225.53 L 92.04 225.12 C 92.82 224.74 93.15 223.81 92.77 223.03 C 92.39 222.25 91.46 221.93 90.68 222.30 Z M 89.83 222.72 L 89.01 223.11 C 88.23 223.49 87.91 224.42 88.28 225.20 C 88.65 225.97 89.59 226.30 90.36 225.93 L 91.19 225.53 C 91.96 225.16 92.29 224.23 91.92 223.45 C 91.54 222.67 90.61 222.34 89.83 222.72 Z"
      fill="black"
      fill-rule="nonzero" /><path d="M 75.34 200.51 L 76.16 199.85 C 76.90 199.25 77.02 198.16 76.42 197.42 C 75.82 196.67 74.73 196.56 73.99 197.16 L 73.17 197.82 C 72.43 198.41 72.31 199.50 72.91 200.25 C 73.50 200.99 74.59 201.11 75.34 200.51 Z M 76.16 199.91 L 76.99 199.27 C 77.76 198.67 77.91 197.55 77.30 196.78 C 76.70 196.00 75.59 195.86 74.81 196.46 L 73.99 197.10 C 73.21 197.70 73.07 198.81 73.67 199.59 C 74.27 200.37 75.39 200.51 76.16 199.91 Z M 76.96 199.35 L 77.79 198.76 C 78.61 198.18 78.80 197.04 78.21 196.21 C 77.63 195.39 76.49 195.20 75.67 195.79 L 74.84 196.38 C 74.01 196.96 73.82 198.10 74.41 198.93 C 75.00 199.75 76.14 199.94 76.96 199.35 Z M 77.72 198.87 L 78.55 198.35 C 79.43 197.80 79.70 196.64 79.16 195.76 C 78.61 194.88 77.45 194.61 76.57 195.16 L 75.73 195.68 C 74.85 196.23 74.58 197.39 75.13 198.27 C 75.68 199.15 76.84 199.42 77.72 198.87 Z M 78.43 198.47 L 79.28 198.05 C 80.23 197.57 80.61 196.41 80.13 195.46 C 79.65 194.51 78.49 194.13 77.54 194.61 L 76.69 195.04 C 75.74 195.52 75.36 196.67 75.84 197.62 C 76.32 198.57 77.48 198.95 78.43 198.47 Z M 79.08 198.18 L 79.93 197.87 C 80.95 197.50 81.48 196.37 81.11 195.35 C 80.74 194.33 79.61 193.80 78.59 194.17 L 77.74 194.48 C 76.72 194.85 76.19 195.98 76.56 197.00 C 76.93 198.02 78.06 198.55 79.08 198.18 Z M 79.67 197.96 L 80.54 197.78 C 81.61 197.56 82.30 196.50 82.08 195.43 C 81.85 194.36 80.80 193.67 79.73 193.89 L 78.86 194.07 C 77.78 194.30 77.09 195.35 77.32 196.42 C 77.54 197.50 78.59 198.19 79.67 197.96 Z M 80.26 197.82 L 81.17 197.76 C 82.27 197.69 83.10 196.75 83.03 195.65 C 82.96 194.55 82.01 193.72 80.91 193.79 L 80.00 193.85 C 78.91 193.92 78.08 194.87 78.15 195.96 C 78.22 197.06 79.16 197.89 80.26 197.82 Z M 80.92 197.77 L 81.88 197.83 C 82.98 197.90 83.93 197.06 83.99 195.96 C 84.06 194.86 83.22 193.91 82.12 193.84 L 81.16 193.78 C 80.06 193.72 79.12 194.55 79.05 195.65 C 78.98 196.75 79.82 197.70 80.92 197.77 Z M 81.67 197.81 L 82.70 197.98 C 83.79 198.17 84.82 197.43 85.00 196.34 C 85.19 195.25 84.45 194.22 83.36 194.04 L 82.33 193.86 C 81.24 193.68 80.21 194.42 80.03 195.51 C 79.84 196.60 80.58 197.63 81.67 197.81 Z M 82.54 197.95 L 83.66 198.24 C 84.73 198.51 85.82 197.85 86.09 196.78 C 86.36 195.71 85.71 194.62 84.64 194.34 L 83.52 194.06 C 82.45 193.79 81.36 194.45 81.09 195.52 C 80.82 196.59 81.47 197.68 82.54 197.95 Z M 83.55 198.21 L 84.52 198.51 C 85.58 198.84 86.71 198.24 87.03 197.18 C 87.36 196.12 86.77 195.00 85.71 194.67 L 84.74 194.37 C 83.68 194.04 82.56 194.64 82.23 195.70 C 81.90 196.76 82.49 197.88 83.55 198.21 Z M 84.46 198.49 L 85.35 198.80 C 86.40 199.16 87.55 198.61 87.91 197.56 C 88.27 196.51 87.72 195.36 86.67 195.00 L 85.77 194.69 C 84.72 194.33 83.58 194.88 83.22 195.93 C 82.85 196.98 83.41 198.13 84.46 198.49 Z M 85.31 198.78 L 86.24 199.13 C 87.28 199.52 88.44 198.99 88.82 197.95 C 89.21 196.91 88.68 195.75 87.64 195.36 L 86.71 195.02 C 85.67 194.63 84.52 195.16 84.13 196.20 C 83.74 197.24 84.27 198.40 85.31 198.78 Z M 86.20 199.12 L 87.15 199.49 C 88.19 199.90 89.35 199.39 89.76 198.36 C 90.17 197.33 89.66 196.16 88.63 195.75 L 87.68 195.38 C 86.64 194.97 85.48 195.48 85.07 196.51 C 84.66 197.54 85.17 198.71 86.20 199.12 Z M 87.13 199.48 L 88.09 199.88 C 89.11 200.30 90.29 199.81 90.71 198.78 C 91.14 197.76 90.64 196.58 89.62 196.16 L 88.66 195.76 C 87.63 195.34 86.45 195.83 86.03 196.86 C 85.61 197.88 86.10 199.06 87.13 199.48 Z M 88.06 199.87 L 89.02 200.28 C 90.05 200.71 91.23 200.23 91.66 199.21 C 92.10 198.19 91.62 197.01 90.60 196.57 L 89.64 196.17 C 88.61 195.73 87.43 196.21 87.00 197.23 C 86.56 198.25 87.04 199.44 88.06 199.87 Z M 89.01 200.27 L 89.95 200.68 C 90.97 201.12 92.16 200.66 92.60 199.64 C 93.04 198.62 92.58 197.43 91.56 196.99 L 90.61 196.58 C 89.59 196.13 88.41 196.60 87.96 197.62 C 87.52 198.64 87.99 199.83 89.01 200.27 Z M 89.94 200.68 L 90.86 201.08 C 91.88 201.53 93.06 201.07 93.51 200.05 C 93.96 199.04 93.50 197.85 92.49 197.40 L 91.57 196.99 C 90.55 196.54 89.36 197.00 88.91 198.02 C 88.46 199.04 88.92 200.23 89.94 200.68 Z M 90.85 201.08 L 91.81 201.51 C 92.82 201.96 94.01 201.50 94.47 200.49 C 94.92 199.47 94.46 198.28 93.45 197.83 L 92.49 197.40 C 91.48 196.95 90.29 197.40 89.83 198.42 C 89.38 199.44 89.84 200.63 90.85 201.08 Z M 91.80 201.50 L 92.77 201.94 C 93.78 202.40 94.98 201.94 95.43 200.93 C 95.89 199.92 95.44 198.72 94.42 198.27 L 93.45 197.83 C 92.44 197.37 91.25 197.83 90.79 198.84 C 90.33 199.85 90.79 201.05 91.80 201.50 Z M 92.76 201.94 L 93.69 202.36 C 94.70 202.82 95.90 202.37 96.36 201.36 C 96.82 200.35 96.37 199.15 95.36 198.69 L 94.43 198.27 C 93.42 197.81 92.22 198.26 91.76 199.27 C 91.30 200.28 91.75 201.48 92.76 201.94 Z M 93.68 202.35 L 94.58 202.77 C 95.59 203.23 96.78 202.79 97.25 201.78 C 97.71 200.77 97.27 199.57 96.26 199.11 L 95.36 198.69 C 94.35 198.23 93.16 198.67 92.69 199.68 C 92.23 200.69 92.67 201.89 93.68 202.35 Z M 94.57 202.76 L 95.45 203.17 C 96.45 203.64 97.65 203.20 98.12 202.19 C 98.59 201.19 98.15 199.99 97.14 199.52 L 96.27 199.11 C 95.26 198.64 94.06 199.08 93.59 200.09 C 93.12 201.10 93.56 202.29 94.57 202.76 Z M 95.44 203.17 L 96.30 203.57 C 97.31 204.05 98.51 203.62 98.98 202.61 C 99.46 201.60 99.03 200.40 98.02 199.93 L 97.15 199.52 C 96.15 199.05 94.95 199.48 94.47 200.49 C 94.00 201.49 94.43 202.69 95.44 203.17 Z M 96.30 203.57 L 97.17 203.99 C 98.17 204.46 99.37 204.04 99.85 203.03 C 100.33 202.03 99.90 200.83 98.90 200.35 L 98.03 199.93 C 97.03 199.46 95.82 199.88 95.34 200.89 C 94.87 201.89 95.29 203.09 96.30 203.57 Z M 97.16 203.98 L 98.02 204.40 C 99.02 204.88 100.22 204.46 100.71 203.46 C 101.19 202.45 100.77 201.25 99.77 200.77 L 98.91 200.35 C 97.91 199.87 96.70 200.29 96.22 201.29 C 95.74 202.29 96.16 203.50 97.16 203.98 Z M 98.01 204.39 L 98.87 204.81 C 99.87 205.30 101.07 204.88 101.56 203.88 C 102.05 202.88 101.63 201.68 100.63 201.19 L 99.77 200.77 C 98.77 200.28 97.57 200.70 97.08 201.70 C 96.59 202.70 97.01 203.90 98.01 204.39 Z M 98.86 204.81 L 99.73 205.24 C 100.73 205.73 101.94 205.32 102.43 204.32 C 102.92 203.32 102.51 202.11 101.51 201.62 L 100.64 201.19 C 99.64 200.70 98.43 201.11 97.94 202.11 C 97.45 203.11 97.86 204.32 98.86 204.81 Z M 99.73 205.23 L 100.61 205.67 C 101.61 206.17 102.82 205.76 103.31 204.76 C 103.81 203.77 103.40 202.56 102.40 202.06 L 101.52 201.62 C 100.52 201.13 99.31 201.54 98.82 202.53 C 98.32 203.53 98.73 204.74 99.73 205.23 Z M 100.61 205.67 L 101.51 206.12 C 102.51 206.62 103.72 206.21 104.21 205.22 C 104.71 204.22 104.31 203.01 103.31 202.52 L 102.41 202.07 C 101.41 201.57 100.20 201.97 99.71 202.97 C 99.21 203.96 99.61 205.17 100.61 205.67 Z M 101.51 206.12 L 102.42 206.58 C 103.42 207.08 104.63 206.68 105.13 205.68 C 105.62 204.69 105.22 203.48 104.23 202.98 L 103.31 202.52 C 102.32 202.02 101.11 202.42 100.61 203.41 C 100.11 204.41 100.51 205.62 101.51 206.12 Z M 102.42 206.58 L 103.35 207.04 C 104.34 207.55 105.55 207.15 106.05 206.16 C 106.55 205.16 106.16 203.95 105.16 203.45 L 104.23 202.98 C 103.24 202.48 102.03 202.88 101.53 203.87 C 101.03 204.86 101.43 206.07 102.42 206.58 Z M 103.34 207.04 L 104.27 207.51 C 105.26 208.01 106.47 207.62 106.97 206.63 C 107.48 205.63 107.08 204.42 106.09 203.92 L 105.17 203.45 C 104.17 202.95 102.96 203.35 102.46 204.34 C 101.96 205.33 102.35 206.54 103.34 207.04 Z M 104.27 207.51 L 105.12 207.95 C 106.11 208.45 107.33 208.06 107.83 207.07 C 108.33 206.07 107.94 204.86 106.95 204.36 L 106.09 203.92 C 105.10 203.42 103.89 203.81 103.38 204.80 C 102.88 205.79 103.27 207.01 104.27 207.51 Z M 105.12 207.94 L 105.99 208.39 C 106.98 208.89 108.19 208.50 108.70 207.51 C 109.20 206.52 108.81 205.31 107.82 204.80 L 106.95 204.36 C 105.96 203.85 104.75 204.25 104.24 205.24 C 103.74 206.23 104.13 207.44 105.12 207.94 Z M 105.99 208.39 L 106.86 208.83 C 107.85 209.34 109.07 208.95 109.57 207.96 C 110.08 206.97 109.68 205.76 108.70 205.25 L 107.82 204.80 C 106.83 204.30 105.62 204.69 105.11 205.68 C 104.61 206.67 105.00 207.88 105.99 208.39 Z M 106.86 208.83 L 107.75 209.29 C 108.74 209.79 109.95 209.40 110.46 208.41 C 110.96 207.42 110.57 206.21 109.58 205.71 L 108.70 205.25 C 107.71 204.75 106.50 205.14 105.99 206.13 C 105.48 207.12 105.88 208.33 106.86 208.83 Z M 107.75 209.29 L 108.65 209.74 C 109.64 210.25 110.85 209.86 111.35 208.87 C 111.86 207.88 111.47 206.67 110.48 206.16 L 109.58 205.71 C 108.59 205.20 107.38 205.59 106.88 206.58 C 106.37 207.57 106.76 208.78 107.75 209.29 Z M 108.65 209.74 L 109.56 210.21 C 110.55 210.71 111.76 210.32 112.26 209.33 C 112.77 208.34 112.37 207.13 111.38 206.63 L 110.48 206.16 C 109.49 205.66 108.28 206.05 107.77 207.04 C 107.27 208.03 107.66 209.24 108.65 209.74 Z M 109.56 210.21 L 110.48 210.68 C 111.46 211.18 112.67 210.79 113.18 209.80 C 113.68 208.81 113.29 207.60 112.30 207.09 L 111.38 206.63 C 110.39 206.12 109.18 206.52 108.68 207.51 C 108.18 208.49 108.57 209.70 109.56 210.21 Z M 110.48 210.68 L 111.40 211.15 C 112.39 211.65 113.60 211.25 114.10 210.26 C 114.60 209.28 114.21 208.07 113.22 207.56 L 112.30 207.09 C 111.31 206.59 110.10 206.99 109.60 207.98 C 109.09 208.96 109.49 210.17 110.48 210.68 Z M 111.40 211.15 L 112.26 211.58 C 113.25 212.08 114.46 211.69 114.96 210.70 C 115.46 209.71 115.06 208.50 114.08 208.00 L 113.22 207.56 C 112.23 207.06 111.02 207.46 110.52 208.45 C 110.02 209.44 110.42 210.64 111.40 211.15 Z M 112.26 211.58 L 113.13 212.02 C 114.12 212.52 115.33 212.12 115.83 211.13 C 116.33 210.14 115.93 208.93 114.94 208.43 L 114.07 208.00 C 113.08 207.50 111.88 207.89 111.38 208.88 C 110.88 209.87 111.27 211.08 112.26 211.58 Z M 113.13 212.02 L 114.01 212.46 C 115.00 212.96 116.20 212.56 116.70 211.57 C 117.20 210.58 116.80 209.37 115.81 208.87 L 114.94 208.43 C 113.95 207.94 112.74 208.33 112.24 209.32 C 111.74 210.31 112.14 211.52 113.13 212.02 Z M 114.01 212.46 L 114.89 212.90 C 115.88 213.40 117.09 213.00 117.58 212.01 C 118.08 211.02 117.68 209.82 116.69 209.32 L 115.81 208.87 C 114.82 208.38 113.61 208.78 113.12 209.77 C 112.62 210.76 113.02 211.96 114.01 212.46 Z M 114.89 212.90 L 115.79 213.35 C 116.78 213.85 117.98 213.45 118.48 212.46 C 118.97 211.47 118.57 210.26 117.58 209.77 L 116.69 209.32 C 115.70 208.82 114.50 209.22 114.00 210.21 C 113.50 211.20 113.90 212.41 114.89 212.90 Z M 115.79 213.35 L 116.69 213.80 C 117.68 214.30 118.88 213.90 119.38 212.91 C 119.88 211.92 119.48 210.71 118.49 210.22 L 117.58 209.77 C 116.59 209.27 115.39 209.67 114.89 210.66 C 114.40 211.65 114.80 212.85 115.79 213.35 Z M 116.69 213.80 L 117.61 214.26 C 118.59 214.75 119.80 214.35 120.29 213.36 C 120.79 212.37 120.39 211.17 119.40 210.68 L 118.48 210.22 C 117.50 209.72 116.29 210.12 115.80 211.11 C 115.30 212.10 115.70 213.31 116.69 213.80 Z M 117.61 214.26 L 118.53 214.72 C 119.52 215.21 120.72 214.81 121.22 213.83 C 121.71 212.84 121.31 211.63 120.32 211.14 L 119.40 210.68 C 118.41 210.18 117.21 210.58 116.71 211.57 C 116.22 212.56 116.62 213.76 117.61 214.26 Z M 118.53 214.72 L 119.46 215.18 C 120.45 215.68 121.65 215.28 122.14 214.29 C 122.64 213.30 122.24 212.10 121.25 211.60 L 120.32 211.14 C 119.33 210.65 118.13 211.05 117.64 212.03 C 117.14 213.02 117.54 214.23 118.53 214.72 Z M 119.46 215.18 L 120.35 215.63 C 121.34 216.12 122.54 215.72 123.04 214.74 C 123.53 213.75 123.13 212.55 122.14 212.05 L 121.25 211.61 C 120.26 211.11 119.06 211.51 118.57 212.50 C 118.07 213.49 118.47 214.69 119.46 215.18 Z M 120.35 215.63 L 121.25 216.08 C 122.24 216.57 123.44 216.17 123.94 215.19 C 124.43 214.20 124.03 213.00 123.04 212.50 L 122.14 212.05 C 121.16 211.56 119.95 211.96 119.46 212.95 C 118.97 213.93 119.37 215.13 120.35 215.63 Z M 121.25 216.08 L 122.16 216.53 C 123.14 217.03 124.34 216.63 124.84 215.64 C 125.33 214.65 124.93 213.45 123.95 212.96 L 123.04 212.51 C 122.06 212.01 120.86 212.41 120.36 213.40 C 119.87 214.38 120.27 215.58 121.25 216.08 Z M 122.16 216.53 L 123.06 216.98 C 124.05 217.48 125.25 217.08 125.74 216.10 C 126.24 215.11 125.84 213.91 124.85 213.42 L 123.95 212.96 C 122.96 212.47 121.76 212.86 121.27 213.85 C 120.77 214.83 121.17 216.03 122.16 216.53 Z M 123.06 216.98 L 123.96 217.44 C 124.95 217.93 126.15 217.54 126.64 216.56 C 127.14 215.57 126.74 214.37 125.76 213.87 L 124.86 213.42 C 123.87 212.92 122.67 213.32 122.18 214.30 C 121.68 215.29 122.07 216.49 123.06 216.98 Z M 123.96 217.44 L 124.86 217.89 C 125.84 218.39 127.04 218.00 127.54 217.01 C 128.04 216.03 127.64 214.83 126.66 214.33 L 125.76 213.88 C 124.78 213.38 123.58 213.77 123.08 214.75 C 122.58 215.74 122.98 216.94 123.96 217.44 Z M 124.85 217.89 L 125.74 218.34 C 126.72 218.84 127.93 218.45 128.43 217.47 C 128.93 216.49 128.54 215.29 127.55 214.79 L 126.66 214.33 C 125.68 213.83 124.48 214.22 123.98 215.21 C 123.48 216.19 123.87 217.39 124.85 217.89 Z M 125.74 218.34 L 126.62 218.79 C 127.60 219.29 128.80 218.91 129.30 217.93 C 129.80 216.95 129.42 215.75 128.44 215.24 L 127.56 214.79 C 126.58 214.29 125.38 214.68 124.88 215.66 C 124.37 216.63 124.76 217.84 125.74 218.34 Z M 126.61 218.79 L 127.48 219.23 C 128.46 219.74 129.66 219.36 130.16 218.38 C 130.67 217.40 130.29 216.20 129.31 215.69 L 128.44 215.25 C 127.47 214.74 126.26 215.12 125.76 216.10 C 125.25 217.08 125.64 218.28 126.61 218.79 Z M 127.47 219.23 L 128.39 219.71 C 129.36 220.21 130.57 219.84 131.07 218.86 C 131.58 217.89 131.20 216.68 130.23 216.18 L 129.32 215.70 C 128.34 215.19 127.14 215.57 126.63 216.54 C 126.12 217.52 126.50 218.72 127.47 219.23 Z M 128.38 219.70 L 129.31 220.19 C 130.28 220.70 131.48 220.33 131.99 219.35 C 132.51 218.38 132.13 217.18 131.16 216.67 L 130.24 216.18 C 129.26 215.67 128.06 216.04 127.55 217.01 C 127.04 217.99 127.41 219.19 128.38 219.70 Z M 129.30 220.18 L 130.21 220.66 C 131.18 221.18 132.38 220.81 132.90 219.84 C 133.41 218.87 133.04 217.67 132.07 217.15 L 131.16 216.67 C 130.19 216.16 128.99 216.53 128.48 217.50 C 127.96 218.47 128.33 219.67 129.30 220.18 Z M 130.21 220.66 L 131.10 221.14 C 132.07 221.65 133.27 221.28 133.79 220.32 C 134.30 219.35 133.93 218.14 132.97 217.63 L 132.07 217.15 C 131.11 216.64 129.90 217.01 129.39 217.97 C 128.87 218.94 129.24 220.15 130.21 220.66 Z M 131.10 221.13 L 131.98 221.60 C 132.94 222.12 134.15 221.75 134.66 220.78 C 135.18 219.82 134.81 218.62 133.85 218.10 L 132.97 217.63 C 132.00 217.12 130.80 217.48 130.28 218.45 C 129.77 219.42 130.13 220.62 131.10 221.13 Z M 131.98 221.60 L 132.85 222.06 C 133.81 222.58 135.01 222.21 135.53 221.25 C 136.04 220.28 135.68 219.08 134.71 218.56 L 133.84 218.10 C 132.88 217.59 131.68 217.95 131.16 218.92 C 130.65 219.88 131.01 221.09 131.98 221.60 Z M 132.85 222.06 L 133.71 222.52 C 134.67 223.03 135.87 222.67 136.39 221.70 C 136.90 220.73 136.53 219.53 135.57 219.02 L 134.71 218.56 C 133.74 218.05 132.54 218.42 132.03 219.38 C 131.51 220.35 131.88 221.55 132.85 222.06 Z M 133.71 222.52 L 134.56 222.97 C 135.53 223.48 136.73 223.11 137.24 222.14 C 137.75 221.18 137.38 219.98 136.41 219.47 L 135.56 219.02 C 134.60 218.51 133.40 218.88 132.89 219.84 C 132.37 220.81 132.74 222.01 133.71 222.52 Z M 134.57 222.97 L 135.43 223.42 C 136.39 223.93 137.59 223.56 138.10 222.59 C 138.61 221.62 138.23 220.42 137.27 219.92 L 136.41 219.47 C 135.44 218.96 134.24 219.33 133.73 220.30 C 133.23 221.27 133.60 222.46 134.57 222.97 Z M 135.43 223.42 L 136.35 223.90 C 137.32 224.40 138.51 224.02 139.01 223.05 C 139.52 222.08 139.14 220.89 138.17 220.39 L 137.26 219.91 C 136.29 219.41 135.09 219.79 134.59 220.76 C 134.09 221.73 134.47 222.92 135.43 223.42 Z M 136.35 223.90 L 137.26 224.37 C 138.23 224.87 139.42 224.48 139.92 223.51 C 140.42 222.54 140.04 221.35 139.07 220.85 L 138.16 220.39 C 137.19 219.89 136.00 220.27 135.50 221.24 C 135.00 222.21 135.38 223.40 136.35 223.90 Z M 137.27 224.37 L 138.17 224.83 C 139.14 225.32 140.33 224.94 140.82 223.97 C 141.32 223.00 140.93 221.81 139.96 221.31 L 139.06 220.85 C 138.09 220.36 136.90 220.74 136.41 221.71 C 135.91 222.68 136.29 223.87 137.27 224.37 Z M 138.17 224.83 L 139.07 225.28 C 140.04 225.78 141.22 225.39 141.72 224.42 C 142.21 223.45 141.82 222.26 140.85 221.77 L 139.96 221.31 C 138.99 220.82 137.80 221.21 137.31 222.18 C 136.81 223.15 137.20 224.33 138.17 224.83 Z M 139.07 225.28 L 139.96 225.73 C 140.93 226.22 142.11 225.84 142.60 224.86 C 143.10 223.89 142.71 222.71 141.74 222.22 L 140.85 221.77 C 139.88 221.27 138.69 221.66 138.20 222.63 C 137.71 223.60 138.10 224.79 139.07 225.28 Z M 139.96 225.73 L 140.84 226.18 C 141.81 226.67 142.99 226.28 143.48 225.31 C 143.97 224.34 143.58 223.15 142.61 222.66 L 141.74 222.22 C 140.77 221.73 139.58 222.12 139.09 223.09 C 138.60 224.06 138.99 225.24 139.96 225.73 Z M 140.84 226.17 L 141.71 226.61 C 142.68 227.11 143.86 226.72 144.35 225.75 C 144.84 224.78 144.45 223.60 143.48 223.10 L 142.61 222.66 C 141.65 222.17 140.46 222.56 139.97 223.53 C 139.48 224.50 139.87 225.68 140.84 226.17 Z M 141.71 226.61 L 142.59 227.06 C 143.56 227.55 144.74 227.17 145.23 226.20 C 145.72 225.23 145.34 224.05 144.37 223.56 L 143.49 223.11 C 142.52 222.62 141.33 223.00 140.84 223.97 C 140.35 224.94 140.74 226.12 141.71 226.61 Z M 142.59 227.06 L 143.51 227.53 C 144.48 228.02 145.66 227.64 146.15 226.67 C 146.65 225.71 146.26 224.52 145.30 224.03 L 144.37 223.56 C 143.41 223.07 142.22 223.45 141.73 224.42 C 141.24 225.38 141.62 226.57 142.59 227.06 Z M 143.51 227.53 L 144.42 227.99 C 145.38 228.49 146.57 228.11 147.06 227.14 C 147.55 226.18 147.17 225.00 146.21 224.50 L 145.30 224.04 C 144.34 223.54 143.15 223.92 142.66 224.89 C 142.16 225.85 142.55 227.03 143.51 227.53 Z M 144.42 227.99 L 145.32 228.45 C 146.28 228.95 147.46 228.57 147.95 227.61 C 148.45 226.65 148.07 225.46 147.11 224.97 L 146.21 224.51 C 145.25 224.01 144.07 224.39 143.57 225.35 C 143.08 226.31 143.46 227.49 144.42 227.99 Z M 145.31 228.45 L 146.20 228.91 C 147.16 229.40 148.34 229.03 148.84 228.07 C 149.33 227.11 148.96 225.93 148.00 225.43 L 147.11 224.97 C 146.15 224.47 144.97 224.85 144.47 225.81 C 143.98 226.77 144.35 227.95 145.31 228.45 Z M 146.19 228.90 L 147.07 229.36 C 148.02 229.86 149.21 229.48 149.70 228.53 C 150.20 227.57 149.83 226.39 148.87 225.89 L 148.00 225.43 C 147.04 224.94 145.86 225.31 145.36 226.27 C 144.86 227.22 145.24 228.40 146.19 228.90 Z M 147.06 229.35 L 147.92 229.80 C 148.88 230.30 150.06 229.93 150.56 228.98 C 151.06 228.02 150.69 226.84 149.74 226.34 L 148.88 225.89 C 147.92 225.39 146.74 225.76 146.24 226.72 C 145.74 227.67 146.11 228.85 147.06 229.35 Z M 147.92 229.80 L 148.78 230.25 C 149.73 230.75 150.91 230.39 151.42 229.43 C 151.92 228.48 151.55 227.30 150.60 226.80 L 149.74 226.35 C 148.78 225.84 147.60 226.21 147.10 227.16 C 146.60 228.12 146.97 229.30 147.92 229.80 Z M 148.78 230.25 L 149.69 230.73 C 150.64 231.23 151.82 230.87 152.33 229.92 C 152.83 228.97 152.47 227.79 151.51 227.28 L 150.60 226.80 C 149.65 226.30 148.47 226.66 147.97 227.61 C 147.46 228.57 147.83 229.74 148.78 230.25 Z M 149.70 230.73 L 150.60 231.21 C 151.55 231.71 152.73 231.34 153.23 230.39 C 153.73 229.44 153.36 228.26 152.41 227.76 L 151.51 227.29 C 150.56 226.78 149.38 227.15 148.88 228.10 C 148.38 229.05 148.74 230.23 149.70 230.73 Z M 150.61 231.21 L 151.50 231.67 C 152.45 232.17 153.63 231.80 154.12 230.85 C 154.62 229.90 154.25 228.72 153.30 228.23 L 152.41 227.76 C 151.45 227.26 150.28 227.63 149.78 228.58 C 149.29 229.54 149.65 230.71 150.61 231.21 Z M 151.51 231.68 L 152.40 232.13 C 153.35 232.62 154.52 232.24 155.01 231.29 C 155.50 230.33 155.12 229.16 154.17 228.67 L 153.28 228.22 C 152.33 227.73 151.16 228.11 150.67 229.06 C 150.18 230.02 150.56 231.19 151.51 231.68 Z M 152.42 232.14 L 153.29 232.58 C 154.25 233.05 155.42 232.67 155.90 231.71 C 156.37 230.75 155.99 229.58 155.03 229.10 L 154.15 228.67 C 153.19 228.19 152.02 228.58 151.55 229.54 C 151.07 230.50 151.46 231.66 152.42 232.14 Z M 153.32 232.59 L 154.20 233.01 C 155.16 233.47 156.32 233.07 156.78 232.10 C 157.25 231.14 156.84 229.98 155.88 229.52 L 155.00 229.09 C 154.04 228.63 152.88 229.04 152.41 230.00 C 151.95 230.96 152.36 232.12 153.32 232.59 Z M 154.23 233.02 L 155.12 233.43 C 156.09 233.88 157.24 233.45 157.69 232.48 C 158.13 231.51 157.71 230.36 156.73 229.91 L 155.84 229.50 C 154.87 229.06 153.72 229.48 153.28 230.45 C 152.83 231.43 153.26 232.57 154.23 233.02 Z M 155.15 233.44 L 156.06 233.84 C 157.04 234.26 158.18 233.82 158.60 232.84 C 159.03 231.86 158.58 230.72 157.61 230.30 L 156.70 229.90 C 155.72 229.47 154.58 229.92 154.16 230.90 C 153.73 231.87 154.18 233.01 155.15 233.44 Z M 156.09 233.85 L 157.00 234.23 C 157.98 234.64 159.11 234.17 159.52 233.19 C 159.94 232.21 159.47 231.08 158.49 230.67 L 157.58 230.29 C 156.59 229.87 155.46 230.34 155.05 231.32 C 154.64 232.31 155.10 233.44 156.09 233.85 Z M 157.02 234.24 L 157.94 234.61 C 158.93 235.00 160.05 234.52 160.45 233.54 C 160.85 232.55 160.37 231.43 159.38 231.03 L 158.46 230.66 C 157.47 230.26 156.35 230.74 155.95 231.73 C 155.56 232.72 156.04 233.84 157.02 234.24 Z M 157.96 234.61 L 158.90 234.97 C 159.89 235.36 161.00 234.87 161.39 233.88 C 161.77 232.89 161.29 231.77 160.29 231.39 L 159.36 231.02 C 158.37 230.64 157.26 231.13 156.87 232.12 C 156.48 233.11 156.97 234.22 157.96 234.61 Z M 158.91 234.98 L 159.86 235.34 C 160.85 235.72 161.96 235.22 162.34 234.23 C 162.72 233.23 162.22 232.12 161.23 231.75 L 160.28 231.38 C 159.29 231.01 158.18 231.50 157.80 232.50 C 157.42 233.49 157.92 234.60 158.91 234.98 Z M 159.87 235.34 L 160.82 235.70 C 161.82 236.07 162.92 235.57 163.30 234.58 C 163.67 233.58 163.17 232.48 162.17 232.10 L 161.22 231.74 C 160.23 231.37 159.12 231.87 158.75 232.87 C 158.37 233.86 158.87 234.97 159.87 235.34 Z M 160.83 235.70 L 161.77 236.05 C 162.76 236.42 163.87 235.91 164.24 234.92 C 164.61 233.93 164.10 232.82 163.11 232.45 L 162.17 232.10 C 161.18 231.74 160.07 232.24 159.70 233.23 C 159.33 234.23 159.84 235.33 160.83 235.70 Z M 161.78 236.05 L 162.74 236.40 C 163.73 236.76 164.83 236.25 165.19 235.26 C 165.55 234.27 165.04 233.17 164.05 232.80 L 163.10 232.45 C 162.11 232.09 161.01 232.60 160.64 233.59 C 160.28 234.59 160.79 235.69 161.78 236.05 Z M 162.75 236.40 L 163.71 236.74 C 164.70 237.10 165.79 236.58 166.15 235.58 C 166.50 234.59 165.99 233.50 164.99 233.14 L 164.04 232.80 C 163.04 232.45 161.95 232.96 161.59 233.96 C 161.24 234.95 161.76 236.04 162.75 236.40 Z M 163.73 236.75 L 164.68 237.07 C 165.68 237.42 166.77 236.89 167.11 235.89 C 167.45 234.90 166.92 233.81 165.93 233.47 L 164.97 233.14 C 163.98 232.80 162.89 233.32 162.55 234.32 C 162.20 235.32 162.73 236.40 163.73 236.75 Z M 164.71 237.08 L 165.66 237.39 C 166.65 237.72 167.73 237.18 168.06 236.18 C 168.39 235.18 167.85 234.11 166.85 233.78 L 165.90 233.46 C 164.90 233.13 163.83 233.68 163.50 234.68 C 163.17 235.67 163.71 236.75 164.71 237.08 Z M 165.69 237.40 L 166.62 237.69 C 167.62 238.00 168.69 237.44 169.00 236.44 C 169.31 235.44 168.75 234.37 167.75 234.06 L 166.82 233.77 C 165.82 233.46 164.75 234.02 164.44 235.02 C 164.13 236.02 164.69 237.09 165.69 237.40 Z M 166.66 237.70 L 167.64 237.98 C 168.64 238.27 169.69 237.69 169.98 236.68 C 170.27 235.67 169.69 234.62 168.68 234.33 L 167.71 234.05 C 166.70 233.76 165.65 234.34 165.36 235.35 C 165.07 236.36 165.65 237.41 166.66 237.70 Z M 167.68 237.99 L 168.68 238.25 C 169.69 238.51 170.72 237.91 170.99 236.89 C 171.25 235.88 170.65 234.85 169.63 234.58 L 168.64 234.32 C 167.63 234.06 166.59 234.67 166.33 235.68 C 166.06 236.69 166.67 237.72 167.68 237.99 Z M 168.72 238.25 L 169.70 238.48 C 170.71 238.72 171.73 238.10 171.97 237.08 C 172.21 236.07 171.58 235.05 170.57 234.81 L 169.59 234.58 C 168.58 234.34 167.56 234.97 167.32 235.98 C 167.08 237.00 167.71 238.01 168.72 238.25 Z M 169.74 238.49 L 170.70 238.70 C 171.72 238.91 172.72 238.27 172.94 237.25 C 173.16 236.23 172.51 235.23 171.49 235.01 L 170.53 234.80 C 169.51 234.59 168.51 235.23 168.29 236.25 C 168.07 237.27 168.72 238.27 169.74 238.49 Z M 170.73 238.70 L 171.69 238.89 C 172.71 239.09 173.70 238.42 173.90 237.40 C 174.10 236.38 173.44 235.40 172.42 235.20 L 171.46 235.01 C 170.44 234.81 169.45 235.47 169.25 236.49 C 169.05 237.51 169.71 238.50 170.73 238.70 Z M 171.72 238.89 L 172.68 239.06 C 173.70 239.25 174.68 238.57 174.86 237.55 C 175.05 236.53 174.37 235.56 173.35 235.37 L 172.39 235.20 C 171.37 235.01 170.39 235.69 170.21 236.71 C 170.02 237.73 170.70 238.70 171.72 238.89 Z M 172.70 239.06 L 173.65 239.22 C 174.67 239.40 175.64 238.71 175.81 237.70 C 175.99 236.68 175.30 235.71 174.29 235.54 L 173.33 235.37 C 172.31 235.20 171.35 235.88 171.17 236.90 C 171.00 237.92 171.68 238.89 172.70 239.06 Z M 173.67 239.22 L 174.63 239.38 C 175.64 239.54 176.60 238.85 176.77 237.83 C 176.93 236.82 176.24 235.86 175.22 235.69 L 174.27 235.54 C 173.25 235.37 172.29 236.06 172.13 237.08 C 171.96 238.10 172.65 239.06 173.67 239.22 Z M 174.65 239.37 L 175.62 239.52 C 176.64 239.68 177.58 238.98 177.74 237.96 C 177.89 236.95 177.19 236.00 176.18 235.84 L 175.21 235.70 C 174.19 235.54 173.24 236.24 173.09 237.26 C 172.93 238.27 173.63 239.22 174.65 239.37 Z M 175.64 239.52 L 176.63 239.66 C 177.64 239.80 178.58 239.10 178.73 238.08 C 178.87 237.07 178.16 236.13 177.15 235.98 L 176.16 235.85 C 175.14 235.70 174.20 236.41 174.06 237.42 C 173.92 238.44 174.63 239.38 175.64 239.52 Z M 176.65 239.66 L 177.66 239.79 C 178.67 239.92 179.60 239.20 179.73 238.19 C 179.86 237.17 179.15 236.25 178.13 236.12 L 177.12 235.99 C 176.11 235.86 175.18 236.57 175.05 237.59 C 174.92 238.60 175.64 239.53 176.65 239.66 Z M 177.69 239.78 L 178.71 239.90 C 179.73 240.02 180.64 239.29 180.76 238.28 C 180.88 237.27 180.15 236.35 179.14 236.24 L 178.11 236.12 C 177.10 236.00 176.18 236.73 176.06 237.74 C 175.95 238.75 176.67 239.67 177.69 239.78 Z M 178.74 239.90 L 179.73 240.00 C 180.74 240.11 181.64 239.37 181.75 238.36 C 181.85 237.35 181.11 236.45 180.10 236.34 L 179.11 236.24 C 178.10 236.14 177.20 236.87 177.10 237.88 C 176.99 238.89 177.73 239.80 178.74 239.90 Z M 179.75 240.00 L 180.71 240.09 C 181.72 240.18 182.61 239.44 182.71 238.43 C 182.80 237.42 182.05 236.52 181.04 236.43 L 180.08 236.34 C 179.07 236.25 178.18 237.00 178.09 238.01 C 178.00 239.02 178.74 239.91 179.75 240.00 Z M 180.73 240.08 L 181.71 240.16 C 182.72 240.24 183.60 239.49 183.68 238.49 C 183.76 237.48 183.01 236.60 182.01 236.51 L 181.03 236.44 C 180.02 236.35 179.14 237.10 179.05 238.11 C 178.97 239.12 179.72 240.00 180.73 240.08 Z M 181.73 240.16 L 182.72 240.23 C 183.73 240.30 184.60 239.55 184.67 238.54 C 184.75 237.53 183.99 236.66 182.98 236.59 L 181.99 236.52 C 180.98 236.45 180.11 237.20 180.04 238.21 C 179.97 239.21 180.72 240.09 181.73 240.16 Z M 182.74 240.23 L 183.75 240.29 C 184.75 240.35 185.62 239.59 185.68 238.59 C 185.74 237.59 184.98 236.72 183.98 236.66 L 182.97 236.59 C 181.97 236.53 181.10 237.29 181.04 238.29 C 180.97 239.30 181.74 240.16 182.74 240.23 Z M 183.76 240.29 L 184.78 240.34 C 185.78 240.40 186.64 239.64 186.70 238.63 C 186.76 237.63 185.99 236.78 184.99 236.72 L 183.97 236.66 C 182.97 236.61 182.11 237.37 182.05 238.37 C 181.99 239.37 182.76 240.23 183.76 240.29 Z M 184.79 240.34 L 185.83 240.39 C 186.83 240.44 187.68 239.67 187.73 238.68 C 187.78 237.68 187.01 236.83 186.01 236.78 L 184.98 236.72 C 183.98 236.67 183.13 237.44 183.08 238.44 C 183.03 239.44 183.80 240.29 184.79 240.34 Z M 185.84 240.39 L 186.83 240.43 C 187.82 240.48 188.67 239.71 188.71 238.71 C 188.76 237.72 187.99 236.87 186.99 236.83 L 186.00 236.78 C 185.01 236.74 184.16 237.51 184.12 238.50 C 184.07 239.50 184.84 240.34 185.84 240.39 Z M 186.84 240.43 L 187.82 240.47 C 188.81 240.51 189.65 239.74 189.69 238.74 C 189.73 237.75 188.96 236.91 187.97 236.87 L 186.98 236.83 C 185.99 236.79 185.15 237.56 185.11 238.56 C 185.07 239.55 185.84 240.39 186.84 240.43 Z M 187.83 240.46 L 188.82 240.50 C 189.81 240.54 190.64 239.76 190.68 238.77 C 190.72 237.78 189.94 236.95 188.95 236.91 L 187.96 236.87 C 186.97 236.84 186.14 237.61 186.10 238.60 C 186.06 239.60 186.84 240.43 187.83 240.46 Z M 188.83 240.50 L 189.83 240.53 C 190.82 240.56 191.64 239.78 191.67 238.79 C 191.71 237.81 190.93 236.98 189.94 236.95 L 188.94 236.92 C 187.95 236.88 187.13 237.66 187.10 238.65 C 187.06 239.64 187.84 240.46 188.83 240.50 Z M 189.84 240.52 L 190.84 240.55 C 191.83 240.58 192.65 239.80 192.68 238.81 C 192.70 237.83 191.92 237.01 190.94 236.98 L 189.93 236.95 C 188.95 236.92 188.13 237.70 188.10 238.69 C 188.07 239.67 188.85 240.50 189.84 240.52 Z M 190.85 240.55 L 191.86 240.57 C 192.84 240.59 193.66 239.81 193.68 238.83 C 193.70 237.85 192.92 237.03 191.94 237.01 L 190.93 236.98 C 189.95 236.96 189.13 237.74 189.11 238.72 C 189.09 239.71 189.86 240.52 190.85 240.55 Z M 191.87 240.56 L 192.88 240.58 C 193.86 240.60 194.67 239.82 194.69 238.84 C 194.71 237.86 193.93 237.05 192.95 237.03 L 191.93 237.01 C 190.95 236.99 190.14 237.77 190.12 238.75 C 190.11 239.74 190.89 240.55 191.87 240.56 Z M 192.89 240.58 L 193.88 240.59 C 194.86 240.61 195.67 239.83 195.68 238.85 C 195.69 237.87 194.91 237.06 193.93 237.05 L 192.94 237.04 C 191.96 237.02 191.16 237.80 191.14 238.78 C 191.13 239.76 191.91 240.56 192.89 240.58 Z M 193.89 240.59 L 194.86 240.60 C 195.84 240.61 196.64 239.83 196.65 238.85 C 196.66 237.88 195.88 237.08 194.90 237.07 L 193.93 237.05 C 192.95 237.04 192.15 237.83 192.14 238.80 C 192.13 239.78 192.91 240.58 193.89 240.59 Z M 194.87 240.60 L 195.85 240.60 C 196.82 240.61 197.62 239.83 197.63 238.86 C 197.64 237.88 196.86 237.09 195.88 237.08 L 194.90 237.07 C 193.93 237.06 193.13 237.84 193.12 238.82 C 193.11 239.79 193.89 240.59 194.87 240.60 Z M 195.85 240.60 L 196.84 240.61 C 197.81 240.61 198.61 239.83 198.61 238.86 C 198.62 237.89 197.84 237.10 196.87 237.09 L 195.88 237.08 C 194.91 237.08 194.12 237.86 194.11 238.83 C 194.10 239.80 194.88 240.59 195.85 240.60 Z M 196.84 240.60 L 197.84 240.61 C 198.81 240.62 199.60 239.84 199.61 238.87 C 199.62 237.90 198.84 237.11 197.87 237.10 L 196.87 237.10 C 195.90 237.09 195.11 237.87 195.10 238.84 C 195.10 239.80 195.87 240.60 196.84 240.60 Z M 197.84 240.61 L 198.85 240.61 C 199.82 240.62 200.61 239.84 200.61 238.88 C 200.62 237.91 199.84 237.12 198.88 237.12 L 197.87 237.11 C 196.90 237.10 196.11 237.88 196.11 238.84 C 196.10 239.81 196.87 240.60 197.84 240.61 Z M 198.85 240.61 L 199.87 240.62 C 200.83 240.63 201.62 239.85 201.63 238.89 C 201.64 237.93 200.87 237.14 199.90 237.13 L 198.88 237.12 C 197.92 237.11 197.13 237.88 197.12 238.85 C 197.11 239.81 197.88 240.60 198.85 240.61 Z M 199.87 240.61 L 200.90 240.63 C 201.86 240.64 202.65 239.87 202.66 238.91 C 202.67 237.95 201.90 237.16 200.94 237.15 L 199.91 237.13 C 198.95 237.12 198.16 237.89 198.15 238.85 C 198.13 239.81 198.90 240.60 199.87 240.61 Z M 200.90 240.62 L 201.91 240.64 C 202.87 240.65 203.66 239.89 203.67 238.93 C 203.69 237.97 202.92 237.18 201.96 237.17 L 200.95 237.15 C 199.99 237.14 199.20 237.90 199.19 238.86 C 199.17 239.82 199.94 240.61 200.90 240.62 Z M 201.91 240.63 L 202.93 240.65 C 203.89 240.67 204.67 239.91 204.69 238.95 C 204.71 238.00 203.95 237.21 202.99 237.19 L 201.97 237.17 C 201.01 237.16 200.22 237.92 200.21 238.87 C 200.19 239.83 200.95 240.62 201.91 240.63 Z M 202.93 240.65 L 203.95 240.67 C 204.90 240.68 205.69 239.93 205.71 238.97 C 205.73 238.02 204.97 237.23 204.02 237.22 L 202.99 237.20 C 202.04 237.18 201.25 237.93 201.24 238.89 C 201.22 239.84 201.97 240.63 202.93 240.65 Z M 203.95 240.66 L 204.97 240.68 C 205.92 240.70 206.71 239.95 206.73 239.00 C 206.75 238.05 205.99 237.26 205.04 237.24 L 204.02 237.22 C 203.07 237.20 202.28 237.96 202.27 238.91 C 202.25 239.86 203.00 240.64 203.95 240.66 Z M 204.97 240.68 L 205.98 240.70 C 206.93 240.72 207.71 239.97 207.73 239.02 C 207.75 238.07 207.00 237.29 206.05 237.27 L 205.04 237.25 C 204.09 237.23 203.31 237.98 203.29 238.93 C 203.27 239.87 204.02 240.66 204.97 240.68 Z M 205.98 240.69 L 206.97 240.71 C 207.92 240.73 208.70 239.98 208.72 239.04 C 208.74 238.09 207.99 237.31 207.04 237.29 L 206.05 237.27 C 205.10 237.25 204.32 238.00 204.30 238.95 C 204.29 239.89 205.04 240.67 205.98 240.69 Z M 206.98 240.71 L 207.94 240.73 C 208.89 240.74 209.66 239.99 209.68 239.05 C 209.70 238.11 208.95 237.33 208.01 237.31 L 207.04 237.30 C 206.10 237.28 205.32 238.03 205.30 238.97 C 205.28 239.91 206.03 240.69 206.98 240.71 Z M 207.95 240.72 L 208.89 240.74 C 209.83 240.75 210.61 240.00 210.62 239.06 C 210.64 238.12 209.89 237.35 208.95 237.34 L 208.00 237.32 C 207.06 237.30 206.29 238.05 206.28 238.99 C 206.26 239.93 207.01 240.71 207.95 240.72 Z M 208.90 240.73 L 209.88 240.74 C 210.82 240.76 211.59 240.01 211.60 239.07 C 211.61 238.13 210.86 237.37 209.93 237.35 L 208.94 237.34 C 208.01 237.33 207.24 238.08 207.23 239.01 C 207.21 239.95 207.96 240.72 208.90 240.73 Z M 209.89 240.74 L 210.85 240.75 C 211.78 240.76 212.55 240.01 212.56 239.07 C 212.57 238.14 211.82 237.38 210.88 237.37 L 209.92 237.36 C 208.99 237.35 208.22 238.10 208.22 239.03 C 208.21 239.97 208.96 240.73 209.89 240.74 Z M 210.85 240.74 L 211.81 240.75 C 212.74 240.76 213.50 240.01 213.50 239.08 C 213.51 238.14 212.76 237.39 211.83 237.38 L 210.88 237.37 C 209.95 237.37 209.19 238.12 209.18 239.05 C 209.17 239.98 209.92 240.74 210.85 240.74 Z M 211.81 240.74 L 212.78 240.75 C 213.70 240.75 214.46 240.00 214.46 239.07 C 214.47 238.15 213.72 237.39 212.79 237.39 L 211.83 237.38 C 210.90 237.38 210.14 238.13 210.14 239.06 C 210.14 239.99 210.88 240.74 211.81 240.74 Z M 212.78 240.74 L 213.77 240.75 C 214.69 240.75 215.45 240.00 215.45 239.07 C 215.45 238.15 214.70 237.40 213.78 237.40 L 212.79 237.39 C 211.86 237.39 211.11 238.14 211.11 239.06 C 211.11 239.99 211.85 240.74 212.78 240.74 Z M 213.77 240.74 L 214.81 240.74 C 215.73 240.74 216.48 239.99 216.48 239.07 C 216.48 238.15 215.73 237.40 214.81 237.40 L 213.77 237.40 C 212.85 237.40 212.10 238.15 212.10 239.07 C 212.10 239.99 212.85 240.74 213.77 240.74 Z M 214.81 240.74 L 215.90 240.74 C 216.82 240.74 217.57 239.99 217.57 239.07 C 217.57 238.15 216.82 237.41 215.90 237.41 L 214.81 237.41 C 213.89 237.41 213.14 238.15 213.14 239.07 C 213.14 239.99 213.89 240.74 214.81 240.74 Z M 215.90 240.73 L 216.84 240.73 C 217.75 240.73 218.50 239.99 218.50 239.07 C 218.50 238.15 217.75 237.41 216.84 237.41 L 215.90 237.41 C 214.99 237.41 214.24 238.15 214.24 239.07 C 214.24 239.99 214.99 240.73 215.90 240.73 Z M 216.84 240.73 L 217.78 240.73 C 218.69 240.73 219.43 239.99 219.43 239.07 C 219.43 238.16 218.69 237.42 217.78 237.42 L 216.84 237.42 C 215.92 237.42 215.18 238.16 215.18 239.07 C 215.18 239.99 215.92 240.73 216.84 240.73 Z M 217.78 240.72 L 218.75 240.72 C 219.66 240.72 220.40 239.98 220.40 239.07 C 220.40 238.16 219.66 237.42 218.75 237.42 L 217.78 237.42 C 216.87 237.42 216.13 238.16 216.13 239.07 C 216.13 239.98 216.87 240.72 217.78 240.72 Z M 218.75 240.72 L 219.75 240.72 C 220.66 240.72 221.40 239.98 221.40 239.07 C 221.40 238.16 220.66 237.42 219.75 237.42 L 218.75 237.42 C 217.84 237.42 217.10 238.16 217.10 239.07 C 217.10 239.98 217.84 240.72 218.75 240.72 Z M 219.75 240.72 L 220.77 240.72 C 221.68 240.72 222.42 239.98 222.42 239.07 C 222.42 238.16 221.68 237.43 220.77 237.43 L 219.75 237.43 C 218.85 237.43 218.11 238.16 218.11 239.07 C 218.11 239.98 218.85 240.72 219.75 240.72 Z M 220.77 240.71 L 221.81 240.71 C 222.71 240.71 223.45 239.98 223.45 239.07 C 223.45 238.17 222.71 237.43 221.81 237.43 L 220.77 237.43 C 219.87 237.43 219.13 238.17 219.13 239.07 C 219.13 239.98 219.87 240.71 220.77 240.71 Z M 221.81 240.71 L 222.85 240.71 C 223.75 240.71 224.48 239.98 224.48 239.07 C 224.48 238.17 223.75 237.43 222.85 237.43 L 221.81 237.43 C 220.90 237.43 220.17 238.17 220.17 239.07 C 220.17 239.98 220.90 240.71 221.81 240.71 Z M 222.85 240.70 L 223.89 240.70 C 224.79 240.70 225.52 239.97 225.52 239.07 C 225.52 238.17 224.79 237.44 223.89 237.44 L 222.85 237.44 C 221.95 237.44 221.22 238.17 221.22 239.07 C 221.22 239.97 221.95 240.70 222.85 240.70 Z M 223.89 240.70 L 224.91 240.70 C 225.81 240.70 226.54 239.97 226.54 239.07 C 226.54 238.17 225.81 237.44 224.91 237.44 L 223.89 237.44 C 222.99 237.44 222.26 238.17 222.26 239.07 C 222.26 239.97 222.99 240.70 223.89 240.70 Z M 224.91 240.70 L 225.95 240.70 C 226.84 240.70 227.57 239.97 227.57 239.07 C 227.57 238.17 226.84 237.45 225.95 237.45 L 224.91 237.45 C 224.02 237.45 223.29 238.17 223.29 239.07 C 223.29 239.97 224.02 240.70 224.91 240.70 Z M 225.95 240.69 L 226.98 240.69 C 227.88 240.69 228.60 239.97 228.60 239.07 C 228.60 238.18 227.88 237.45 226.99 237.45 L 225.95 237.45 C 225.05 237.45 224.33 238.18 224.33 239.07 C 224.33 239.96 225.05 240.69 225.95 240.69 Z M 226.98 240.69 L 228.00 240.69 C 228.89 240.69 229.62 239.97 229.62 239.08 C 229.62 238.19 228.90 237.46 228.01 237.46 L 226.99 237.46 C 226.10 237.46 225.37 238.18 225.37 239.07 C 225.37 239.96 226.09 240.68 226.98 240.69 Z M 227.99 240.68 L 229.00 240.69 C 229.89 240.69 230.61 239.98 230.62 239.09 C 230.62 238.20 229.91 237.48 229.02 237.47 L 228.01 237.47 C 227.12 237.46 226.40 238.18 226.40 239.07 C 226.39 239.95 227.11 240.68 227.99 240.68 Z M 228.99 240.68 L 229.99 240.69 C 230.87 240.70 231.60 239.99 231.61 239.11 C 231.61 238.22 230.90 237.50 230.02 237.49 L 229.02 237.48 C 228.14 237.47 227.42 238.18 227.41 239.06 C 227.40 239.95 228.11 240.67 228.99 240.68 Z M 229.98 240.69 L 230.96 240.70 C 231.85 240.72 232.57 240.01 232.59 239.13 C 232.60 238.25 231.90 237.52 231.01 237.51 L 230.03 237.49 C 229.15 237.48 228.42 238.18 228.41 239.06 C 228.39 239.95 229.10 240.67 229.98 240.69 Z M 230.95 240.70 L 231.93 240.72 C 232.81 240.74 233.54 240.04 233.56 239.16 C 233.58 238.28 232.88 237.56 232.01 237.54 L 231.02 237.51 C 230.15 237.49 229.42 238.19 229.40 239.07 C 229.38 239.95 230.07 240.68 230.95 240.70 Z M 231.92 240.71 L 232.90 240.74 C 233.78 240.77 234.51 240.08 234.53 239.21 C 234.56 238.33 233.87 237.60 233.00 237.57 L 232.02 237.54 C 231.14 237.52 230.41 238.20 230.39 239.08 C 230.36 239.95 231.05 240.68 231.92 240.71 Z M 232.89 240.74 L 233.86 240.77 C 234.74 240.81 235.47 240.13 235.51 239.26 C 235.54 238.39 234.86 237.65 233.99 237.62 L 233.01 237.58 C 232.14 237.54 231.40 238.22 231.37 239.09 C 231.34 239.97 232.01 240.70 232.89 240.74 Z M 233.85 240.77 L 234.83 240.82 C 235.70 240.86 236.44 240.19 236.48 239.32 C 236.53 238.46 235.86 237.72 234.99 237.67 L 234.01 237.62 C 233.14 237.58 232.40 238.25 232.35 239.12 C 232.31 239.99 232.98 240.73 233.85 240.77 Z M 234.82 240.81 L 235.80 240.87 C 236.67 240.93 237.41 240.27 237.47 239.40 C 237.52 238.53 236.86 237.79 235.99 237.73 L 235.00 237.68 C 234.14 237.62 233.39 238.28 233.34 239.15 C 233.29 240.02 233.95 240.76 234.82 240.81 Z M 235.79 240.87 L 236.78 240.94 C 237.64 241.00 238.39 240.35 238.45 239.48 C 238.51 238.62 237.86 237.87 236.99 237.81 L 236.00 237.74 C 235.14 237.68 234.39 238.33 234.33 239.20 C 234.27 240.06 234.92 240.81 235.79 240.87 Z M 236.76 240.94 L 237.76 241.01 C 238.62 241.08 239.38 240.43 239.44 239.57 C 239.51 238.71 238.86 237.95 238.00 237.88 L 237.01 237.81 C 236.14 237.74 235.39 238.39 235.32 239.25 C 235.25 240.12 235.90 240.87 236.76 240.94 Z M 237.75 241.01 L 238.75 241.10 C 239.61 241.17 240.37 240.53 240.44 239.66 C 240.51 238.80 239.87 238.04 239.01 237.97 L 238.01 237.89 C 237.15 237.81 236.39 238.46 236.32 239.32 C 236.24 240.18 236.89 240.94 237.75 241.01 Z M 238.74 241.09 L 239.74 241.18 C 240.60 241.26 241.36 240.62 241.44 239.76 C 241.51 238.90 240.88 238.14 240.01 238.06 L 239.01 237.97 C 238.15 237.90 237.39 238.53 237.32 239.39 C 237.24 240.26 237.88 241.02 238.74 241.09 Z M 239.73 241.18 L 240.73 241.27 C 241.59 241.35 242.36 240.72 242.44 239.86 C 242.52 239.00 241.88 238.23 241.02 238.15 L 240.02 238.06 C 239.16 237.98 238.40 238.62 238.32 239.48 C 238.24 240.34 238.87 241.10 239.73 241.18 Z M 240.73 241.27 L 241.73 241.37 C 242.59 241.45 243.36 240.82 243.44 239.96 C 243.52 239.10 242.89 238.33 242.03 238.25 L 241.03 238.16 C 240.17 238.07 239.40 238.71 239.32 239.56 C 239.24 240.42 239.87 241.19 240.73 241.27 Z M 241.73 241.36 L 242.74 241.46 C 243.59 241.55 244.36 240.92 244.44 240.06 C 244.52 239.20 243.90 238.43 243.04 238.35 L 242.03 238.25 C 241.17 238.17 240.41 238.80 240.33 239.66 C 240.24 240.52 240.87 241.28 241.73 241.36 Z M 242.73 241.46 L 243.21 241.51 C 244.07 241.59 244.84 240.96 244.92 240.10 C 245.00 239.25 244.38 238.48 243.52 238.40 L 243.04 238.35 C 242.18 238.27 241.42 238.90 241.33 239.75 C 241.25 240.61 241.88 241.38 242.73 241.46 Z"
      fill="black"
      fill-rule="nonzero" /></svg>