<svg xmlns="http://www.w3.org/2000/svg" width="300" height="300" viewBox="0 0 300 300">
<path d="M 139.36 85.40 L 139.86 86.31 C 140.38 87.25 141.56 87.59 142.50 87.07 C 143.44 86.56 143.78 85.38 143.26 84.44 L 142.76 83.53 C 142.24 82.59 141.06 82.25 140.12 82.77 C 139.19 83.28 138.84 84.46 139.36 85.40 Z M 139.84 86.31 L 140.33 87.22 C 140.85 88.17 142.04 88.52 142.99 88.00 C 143.95 87.48 144.30 86.29 143.78 85.34 L 143.28 84.43 C 142.77 83.48 141.57 83.13 140.62 83.65 C 139.67 84.17 139.32 85.36 139.84 86.31 Z M 140.30 87.21 L 140.78 88.12 C 141.30 89.08 142.50 89.45 143.47 88.93 C 144.44 88.42 144.80 87.22 144.29 86.25 L 143.81 85.34 C 143.29 84.38 142.09 84.01 141.12 84.53 C 140.15 85.04 139.79 86.25 140.30 87.21 Z M 140.75 88.10 L 141.21 89.00 C 141.72 89.98 142.93 90.37 143.92 89.86 C 144.90 89.36 145.29 88.14 144.78 87.16 L 144.32 86.26 C 143.81 85.28 142.60 84.89 141.62 85.40 C 140.63 85.90 140.24 87.12 140.75 88.10 Z M 141.18 88.97 L 141.61 89.86 C 142.11 90.87 143.32 91.28 144.33 90.79 C 145.34 90.30 145.75 89.08 145.26 88.07 L 144.82 87.18 C 144.33 86.18 143.11 85.76 142.10 86.26 C 141.10 86.75 140.68 87.97 141.18 88.97 Z M 141.57 89.83 L 141.97 90.71 C 142.45 91.74 143.67 92.19 144.70 91.71 C 145.73 91.24 146.18 90.02 145.71 88.99 L 145.30 88.11 C 144.83 87.08 143.61 86.63 142.58 87.10 C 141.55 87.58 141.10 88.80 141.57 89.83 Z M 141.93 90.66 L 142.30 91.52 C 142.74 92.58 143.96 93.07 145.02 92.63 C 146.07 92.18 146.57 90.96 146.12 89.91 L 145.75 89.04 C 145.31 87.98 144.09 87.49 143.03 87.93 C 141.98 88.38 141.48 89.60 141.93 90.66 Z M 142.26 91.45 L 142.63 92.44 C 143.04 93.51 144.24 94.06 145.31 93.65 C 146.39 93.25 146.93 92.05 146.53 90.97 L 146.16 89.98 C 145.75 88.91 144.55 88.36 143.47 88.77 C 142.40 89.17 141.86 90.37 142.26 91.45 Z M 142.62 92.35 L 142.94 93.33 C 143.30 94.41 144.47 95.00 145.55 94.65 C 146.63 94.29 147.22 93.12 146.87 92.04 L 146.54 91.06 C 146.19 89.97 145.02 89.38 143.93 89.74 C 142.85 90.10 142.26 91.27 142.62 92.35 Z M 142.93 93.26 L 143.21 94.22 C 143.53 95.31 144.67 95.93 145.76 95.62 C 146.84 95.30 147.47 94.16 147.15 93.07 L 146.87 92.11 C 146.56 91.02 145.42 90.40 144.33 90.71 C 143.24 91.03 142.62 92.17 142.93 93.26 Z M 143.21 94.16 L 143.46 95.11 C 143.74 96.20 144.85 96.85 145.94 96.57 C 147.03 96.29 147.69 95.18 147.40 94.09 L 147.16 93.14 C 146.87 92.05 145.76 91.39 144.67 91.67 C 143.58 91.96 142.93 93.07 143.21 94.16 Z M 143.46 95.06 L 143.68 96.01 C 143.94 97.09 145.03 97.77 146.12 97.51 C 147.20 97.26 147.88 96.17 147.62 95.08 L 147.40 94.14 C 147.14 93.05 146.05 92.37 144.97 92.63 C 143.88 92.89 143.20 93.98 143.46 95.06 Z M 143.69 95.97 L 143.90 96.91 C 144.13 97.99 145.21 98.68 146.29 98.44 C 147.37 98.20 148.06 97.13 147.82 96.04 L 147.61 95.11 C 147.37 94.03 146.30 93.34 145.22 93.58 C 144.14 93.82 143.45 94.89 143.69 95.97 Z M 143.91 96.89 L 144.12 97.89 C 144.35 98.96 145.41 99.65 146.49 99.42 C 147.56 99.19 148.25 98.13 148.02 97.05 L 147.80 96.06 C 147.57 94.98 146.52 94.30 145.44 94.53 C 144.37 94.76 143.68 95.82 143.91 96.89 Z M 144.14 97.88 L 144.35 98.87 C 144.58 99.93 145.62 100.61 146.69 100.39 C 147.75 100.17 148.43 99.12 148.21 98.06 L 148.00 97.06 C 147.77 96.00 146.73 95.32 145.66 95.54 C 144.60 95.77 143.92 96.81 144.14 97.88 Z M 144.37 98.86 L 144.58 99.85 C 144.80 100.90 145.84 101.57 146.89 101.35 C 147.94 101.13 148.61 100.10 148.39 99.04 L 148.18 98.06 C 147.96 97.01 146.93 96.34 145.88 96.56 C 144.83 96.78 144.15 97.81 144.37 98.86 Z M 144.60 99.85 L 144.81 100.82 C 145.03 101.86 146.06 102.52 147.09 102.30 C 148.13 102.08 148.80 101.06 148.58 100.02 L 148.37 99.04 C 148.15 98.01 147.12 97.34 146.09 97.56 C 145.05 97.79 144.38 98.81 144.60 99.85 Z M 144.83 100.83 L 145.04 101.79 C 145.27 102.81 146.28 103.46 147.31 103.24 C 148.34 103.01 148.99 102.00 148.76 100.97 L 148.55 100.01 C 148.33 98.99 147.31 98.34 146.29 98.56 C 145.26 98.78 144.61 99.80 144.83 100.83 Z M 145.07 101.80 L 145.29 102.75 C 145.52 103.76 146.52 104.39 147.54 104.16 C 148.55 103.93 149.18 102.93 148.95 101.91 L 148.74 100.96 C 148.51 99.95 147.50 99.32 146.49 99.55 C 145.48 99.78 144.84 100.78 145.07 101.80 Z M 145.32 102.76 L 145.55 103.71 C 145.79 104.70 146.78 105.32 147.78 105.08 C 148.77 104.84 149.38 103.85 149.15 102.85 L 148.92 101.90 C 148.68 100.91 147.68 100.29 146.69 100.53 C 145.70 100.77 145.08 101.77 145.32 102.76 Z M 145.59 103.73 L 145.82 104.67 C 146.07 105.65 147.06 106.24 148.03 105.99 C 149.00 105.75 149.59 104.76 149.35 103.78 L 149.11 102.84 C 148.86 101.86 147.88 101.27 146.90 101.52 C 145.93 101.77 145.34 102.75 145.59 103.73 Z M 145.86 104.69 L 146.12 105.65 C 146.37 106.60 147.35 107.16 148.30 106.91 C 149.26 106.65 149.82 105.67 149.57 104.72 L 149.31 103.77 C 149.06 102.82 148.08 102.25 147.12 102.51 C 146.17 102.76 145.61 103.74 145.86 104.69 Z M 146.16 105.66 L 146.43 106.63 C 146.70 107.56 147.67 108.10 148.60 107.84 C 149.53 107.58 150.07 106.61 149.80 105.68 L 149.53 104.70 C 149.26 103.77 148.29 103.23 147.36 103.50 C 146.43 103.76 145.89 104.73 146.16 105.66 Z M 146.47 106.65 L 146.77 107.65 C 147.05 108.56 148.01 109.07 148.92 108.80 C 149.82 108.52 150.34 107.56 150.07 106.65 L 149.76 105.66 C 149.49 104.75 148.53 104.23 147.62 104.51 C 146.71 104.78 146.20 105.74 146.47 106.65 Z M 146.81 107.66 L 147.10 108.59 C 147.38 109.48 148.33 109.97 149.22 109.69 C 150.12 109.40 150.61 108.45 150.32 107.56 L 150.03 106.64 C 149.75 105.75 148.80 105.25 147.91 105.54 C 147.02 105.82 146.52 106.77 146.81 107.66 Z M 147.12 108.60 L 147.43 109.52 C 147.72 110.39 148.66 110.87 149.54 110.58 C 150.42 110.29 150.89 109.34 150.60 108.47 L 150.30 107.55 C 150.01 106.67 149.06 106.20 148.19 106.49 C 147.31 106.78 146.83 107.72 147.12 108.60 Z M 147.45 109.52 L 147.77 110.46 C 148.07 111.33 149.00 111.79 149.87 111.50 C 150.73 111.20 151.19 110.26 150.90 109.40 L 150.58 108.46 C 150.29 107.60 149.35 107.13 148.48 107.43 C 147.62 107.72 147.16 108.66 147.45 109.52 Z M 147.79 110.47 L 148.13 111.42 C 148.42 112.27 149.35 112.72 150.20 112.43 C 151.06 112.13 151.51 111.20 151.21 110.35 L 150.88 109.39 C 150.58 108.54 149.65 108.09 148.80 108.39 C 147.95 108.69 147.50 109.62 147.79 110.47 Z M 148.15 111.42 L 148.49 112.39 C 148.78 113.23 149.70 113.67 150.55 113.37 C 151.39 113.08 151.83 112.15 151.53 111.31 L 151.19 110.35 C 150.89 109.51 149.97 109.07 149.13 109.36 C 148.29 109.66 147.85 110.58 148.15 111.42 Z M 148.51 112.39 L 148.85 113.36 C 149.15 114.19 150.06 114.62 150.89 114.32 C 151.72 114.03 152.15 113.12 151.86 112.29 L 151.51 111.32 C 151.21 110.49 150.30 110.05 149.47 110.35 C 148.64 110.64 148.21 111.56 148.51 112.39 Z M 148.87 113.35 L 149.05 113.88 C 149.35 114.70 150.25 115.13 151.07 114.84 C 151.89 114.54 152.32 113.64 152.03 112.82 L 151.84 112.29 C 151.55 111.47 150.64 111.04 149.82 111.34 C 149.00 111.63 148.57 112.53 148.87 113.35 Z"
      fill="black"
      fill-rule="nonzero" /><path d="M 107.12 137.18 L 106.31 138.15 C 105.71 138.88 105.81 139.95 106.54 140.55 C 107.26 141.15 108.33 141.05 108.93 140.32 L 109.74 139.35 C 110.34 138.63 110.24 137.56 109.51 136.96 C 108.79 136.36 107.72 136.46 107.12 137.18 Z M 106.24 138.21 L 105.55 139.13 C 104.98 139.89 105.14 140.97 105.90 141.54 C 106.66 142.11 107.74 141.96 108.31 141.19 L 109.00 140.27 C 109.57 139.51 109.41 138.43 108.65 137.86 C 107.89 137.29 106.81 137.45 106.24 138.21 Z M 105.41 139.31 L 104.95 140.13 C 104.48 140.97 104.78 142.04 105.62 142.51 C 106.46 142.97 107.52 142.67 107.99 141.83 L 108.45 141.01 C 108.92 140.17 108.62 139.11 107.78 138.64 C 106.94 138.17 105.88 138.47 105.41 139.31 Z M 104.73 140.70 L 104.62 141.37 C 104.46 142.33 105.12 143.24 106.08 143.39 C 107.05 143.55 107.95 142.89 108.11 141.93 L 108.22 141.26 C 108.37 140.30 107.72 139.39 106.75 139.24 C 105.79 139.08 104.88 139.74 104.73 140.70 Z M 104.88 142.64 L 105.16 143.06 C 105.71 143.88 106.81 144.10 107.63 143.55 C 108.45 143.01 108.67 141.90 108.13 141.08 L 107.85 140.66 C 107.30 139.84 106.19 139.62 105.38 140.17 C 104.56 140.71 104.33 141.82 104.88 142.64 Z M 105.97 143.72 L 106.56 143.97 C 107.48 144.34 108.52 143.90 108.90 142.99 C 109.27 142.07 108.83 141.03 107.91 140.66 L 107.32 140.41 C 106.40 140.04 105.36 140.48 104.99 141.39 C 104.61 142.31 105.05 143.35 105.97 143.72 Z M 107.05 144.09 L 107.94 144.19 C 108.93 144.29 109.81 143.57 109.91 142.59 C 110.01 141.60 109.30 140.72 108.31 140.62 L 107.42 140.53 C 106.44 140.43 105.56 141.14 105.46 142.13 C 105.36 143.11 106.07 143.99 107.05 144.09 Z M 108.22 144.20 L 109.37 144.14 C 110.36 144.09 111.13 143.24 111.07 142.25 C 111.02 141.26 110.18 140.50 109.19 140.55 L 108.04 140.61 C 107.05 140.66 106.28 141.51 106.34 142.50 C 106.39 143.49 107.23 144.25 108.22 144.20 Z M 109.55 144.12 L 110.94 143.91 C 111.92 143.76 112.60 142.85 112.45 141.86 C 112.30 140.88 111.38 140.21 110.40 140.36 L 109.01 140.57 C 108.03 140.71 107.35 141.63 107.50 142.61 C 107.65 143.60 108.57 144.27 109.55 144.12 Z M 111.05 143.89 L 112.15 143.65 C 113.12 143.44 113.74 142.49 113.53 141.51 C 113.32 140.54 112.36 139.92 111.39 140.14 L 110.29 140.37 C 109.32 140.58 108.70 141.54 108.91 142.52 C 109.12 143.49 110.08 144.10 111.05 143.89 Z M 112.21 143.64 L 113.08 143.42 C 114.04 143.17 114.63 142.19 114.38 141.23 C 114.13 140.27 113.15 139.68 112.19 139.93 L 111.32 140.15 C 110.36 140.40 109.78 141.38 110.02 142.34 C 110.27 143.30 111.25 143.89 112.21 143.64 Z M 113.12 143.41 L 114.03 143.15 C 114.99 142.88 115.54 141.89 115.27 140.93 C 115.00 139.97 114.01 139.42 113.05 139.69 L 112.15 139.94 C 111.19 140.21 110.63 141.21 110.90 142.16 C 111.17 143.12 112.17 143.67 113.12 143.41 Z M 114.07 143.14 L 115.00 142.85 C 115.95 142.56 116.49 141.56 116.20 140.61 C 115.91 139.66 114.91 139.12 113.96 139.41 L 113.02 139.70 C 112.07 139.99 111.53 140.99 111.82 141.94 C 112.11 142.89 113.12 143.43 114.07 143.14 Z M 115.03 142.84 L 116.00 142.53 C 116.94 142.22 117.46 141.21 117.15 140.27 C 116.85 139.32 115.83 138.81 114.89 139.11 L 113.93 139.42 C 112.98 139.73 112.47 140.74 112.77 141.69 C 113.08 142.63 114.09 143.15 115.03 142.84 Z M 116.02 142.52 L 117.00 142.18 C 117.94 141.86 118.44 140.84 118.12 139.90 C 117.80 138.97 116.78 138.47 115.84 138.79 L 114.86 139.12 C 113.93 139.44 113.42 140.46 113.75 141.40 C 114.07 142.34 115.09 142.84 116.02 142.52 Z M 117.03 142.17 L 118.02 141.82 C 118.95 141.49 119.44 140.46 119.10 139.53 C 118.77 138.60 117.74 138.11 116.81 138.44 L 115.82 138.80 C 114.89 139.13 114.40 140.16 114.74 141.09 C 115.07 142.02 116.09 142.51 117.03 142.17 Z M 118.04 141.81 L 119.03 141.44 C 119.96 141.10 120.43 140.07 120.08 139.14 C 119.74 138.21 118.71 137.74 117.78 138.08 L 116.79 138.45 C 115.86 138.80 115.39 139.83 115.73 140.76 C 116.08 141.68 117.11 142.16 118.04 141.81 Z M 119.05 141.43 L 120.04 141.05 C 120.96 140.70 121.42 139.66 121.06 138.74 C 120.71 137.82 119.67 137.36 118.75 137.71 L 117.76 138.09 C 116.84 138.45 116.38 139.48 116.73 140.41 C 117.09 141.33 118.13 141.79 119.05 141.43 Z M 120.05 141.04 L 121.03 140.66 C 121.94 140.29 122.39 139.25 122.03 138.33 C 121.66 137.42 120.62 136.97 119.70 137.33 L 118.73 137.72 C 117.81 138.09 117.36 139.13 117.73 140.04 C 118.09 140.96 119.13 141.41 120.05 141.04 Z M 121.04 140.65 L 122.07 140.23 C 122.99 139.85 123.42 138.81 123.05 137.89 C 122.67 136.98 121.63 136.55 120.72 136.92 L 119.69 137.34 C 118.78 137.72 118.34 138.76 118.71 139.67 C 119.09 140.59 120.13 141.02 121.04 140.65 Z M 122.09 140.21 L 123.12 139.78 C 124.03 139.40 124.45 138.35 124.07 137.44 C 123.69 136.54 122.64 136.11 121.73 136.50 L 120.70 136.93 C 119.80 137.31 119.37 138.36 119.75 139.27 C 120.14 140.17 121.18 140.60 122.09 140.21 Z M 123.14 139.77 L 124.14 139.33 C 125.04 138.94 125.45 137.89 125.06 136.99 C 124.67 136.09 123.62 135.68 122.72 136.07 L 121.72 136.51 C 120.82 136.90 120.41 137.95 120.80 138.85 C 121.19 139.75 122.24 140.16 123.14 139.77 Z M 124.15 139.32 L 125.11 138.89 C 126.01 138.49 126.41 137.44 126.01 136.55 C 125.61 135.65 124.56 135.25 123.67 135.65 L 122.70 136.08 C 121.81 136.48 121.41 137.53 121.81 138.43 C 122.21 139.32 123.25 139.72 124.15 139.32 Z M 125.13 138.88 L 126.05 138.46 C 126.94 138.05 127.33 137.00 126.93 136.11 C 126.52 135.22 125.47 134.83 124.58 135.24 L 123.65 135.66 C 122.77 136.07 122.37 137.12 122.78 138.01 C 123.19 138.90 124.24 139.29 125.13 138.88 Z M 126.06 138.45 L 126.95 138.03 C 127.83 137.62 128.22 136.57 127.80 135.69 C 127.39 134.80 126.34 134.42 125.46 134.83 L 124.57 135.25 C 123.69 135.66 123.30 136.71 123.72 137.60 C 124.13 138.48 125.18 138.86 126.06 138.45 Z M 126.96 138.02 L 127.81 137.62 C 128.68 137.20 129.06 136.15 128.64 135.27 C 128.22 134.40 127.17 134.02 126.29 134.44 L 125.45 134.84 C 124.57 135.26 124.20 136.31 124.61 137.19 C 125.03 138.07 126.08 138.44 126.96 138.02 Z M 127.82 137.61 L 128.62 137.22 C 129.49 136.80 129.85 135.75 129.43 134.87 C 129.00 134.00 127.95 133.64 127.08 134.06 L 126.28 134.45 C 125.41 134.88 125.04 135.93 125.47 136.80 C 125.89 137.67 126.94 138.04 127.82 137.61 Z M 128.63 137.21 L 129.38 136.84 C 130.24 136.41 130.60 135.36 130.17 134.49 C 129.74 133.63 128.69 133.27 127.82 133.70 L 127.07 134.07 C 126.20 134.50 125.85 135.55 126.28 136.42 C 126.71 137.29 127.76 137.64 128.63 137.21 Z M 129.39 136.83 L 130.40 136.32 C 131.26 135.89 131.60 134.84 131.17 133.97 C 130.73 133.11 129.68 132.77 128.82 133.20 L 127.81 133.71 C 126.95 134.14 126.60 135.20 127.04 136.06 C 127.47 136.92 128.53 137.27 129.39 136.83 Z M 130.41 136.31 L 131.38 135.81 C 132.23 135.37 132.57 134.32 132.13 133.46 C 131.69 132.61 130.63 132.27 129.78 132.71 L 128.81 133.21 C 127.95 133.65 127.62 134.71 128.06 135.56 C 128.50 136.42 129.55 136.75 130.41 136.31 Z M 131.39 135.80 L 132.28 135.34 C 133.13 134.89 133.45 133.84 133.01 132.98 C 132.56 132.13 131.51 131.81 130.66 132.25 L 129.77 132.72 C 128.92 133.17 128.59 134.22 129.04 135.07 C 129.48 135.92 130.54 136.25 131.39 135.80 Z M 132.28 135.33 L 133.12 134.88 C 133.96 134.43 134.28 133.38 133.83 132.53 C 133.38 131.69 132.33 131.37 131.48 131.82 L 130.65 132.26 C 129.80 132.71 129.48 133.77 129.93 134.61 C 130.39 135.46 131.44 135.78 132.28 135.33 Z M 133.12 134.88 L 133.92 134.45 C 134.76 133.99 135.07 132.94 134.62 132.10 C 134.17 131.26 133.12 130.94 132.27 131.40 L 131.48 131.82 C 130.63 132.28 130.32 133.33 130.77 134.17 C 131.23 135.01 132.28 135.33 133.12 134.88 Z M 133.91 134.44 L 134.70 134.02 C 135.54 133.57 135.85 132.52 135.40 131.68 C 134.95 130.84 133.90 130.53 133.06 130.98 L 132.28 131.40 C 131.44 131.85 131.12 132.90 131.57 133.74 C 132.03 134.58 133.07 134.90 133.91 134.44 Z M 134.69 134.02 L 135.48 133.60 C 136.32 133.15 136.63 132.11 136.18 131.27 C 135.73 130.43 134.69 130.11 133.85 130.56 L 133.06 130.98 C 132.22 131.43 131.91 132.48 132.36 133.32 C 132.81 134.16 133.85 134.47 134.69 134.02 Z M 135.48 133.60 L 136.28 133.17 C 137.12 132.72 137.44 131.67 136.98 130.83 C 136.53 129.99 135.48 129.68 134.64 130.13 L 133.84 130.56 C 133.00 131.02 132.69 132.06 133.14 132.90 C 133.59 133.74 134.64 134.05 135.48 133.60 Z M 136.30 133.16 L 137.13 132.70 C 137.97 132.24 138.27 131.19 137.81 130.35 C 137.35 129.52 136.30 129.22 135.47 129.68 L 134.63 130.14 C 133.80 130.60 133.49 131.65 133.95 132.48 C 134.41 133.32 135.46 133.62 136.30 133.16 Z M 137.15 132.69 L 138.04 132.19 C 138.87 131.72 139.16 130.66 138.69 129.83 C 138.22 129.00 137.16 128.71 136.33 129.18 L 135.45 129.69 C 134.62 130.16 134.33 131.21 134.80 132.04 C 135.27 132.87 136.32 133.16 137.15 132.69 Z M 138.06 132.17 L 139.01 131.62 C 139.83 131.13 140.10 130.07 139.62 129.25 C 139.14 128.43 138.08 128.16 137.26 128.64 L 136.31 129.20 C 135.49 129.68 135.21 130.74 135.70 131.56 C 136.18 132.38 137.24 132.66 138.06 132.17 Z M 139.03 131.60 L 139.98 131.02 C 140.79 130.53 141.05 129.46 140.55 128.65 C 140.05 127.84 138.99 127.58 138.18 128.08 L 137.23 128.66 C 136.42 129.15 136.16 130.22 136.66 131.03 C 137.16 131.84 138.22 132.10 139.03 131.60 Z M 140.00 131.01 L 140.76 130.53 C 141.57 130.02 141.81 128.95 141.31 128.15 C 140.80 127.34 139.73 127.10 138.92 127.61 L 138.16 128.09 C 137.35 128.60 137.11 129.66 137.62 130.47 C 138.12 131.28 139.19 131.52 140.00 131.01 Z M 140.78 130.52 L 141.58 130.00 C 142.38 129.49 142.61 128.42 142.10 127.62 C 141.58 126.82 140.52 126.58 139.71 127.10 L 138.91 127.61 C 138.11 128.13 137.88 129.20 138.39 130.00 C 138.91 130.80 139.98 131.03 140.78 130.52 Z M 141.59 130.00 L 142.42 129.46 C 143.22 128.94 143.44 127.87 142.92 127.07 C 142.40 126.27 141.33 126.04 140.54 126.56 L 139.71 127.11 C 138.91 127.63 138.68 128.69 139.20 129.49 C 139.72 130.29 140.79 130.52 141.59 130.00 Z M 142.43 129.45 L 143.28 128.89 C 144.07 128.37 144.29 127.30 143.77 126.50 C 143.25 125.71 142.18 125.49 141.38 126.01 L 140.53 126.57 C 139.73 127.09 139.51 128.16 140.03 128.96 C 140.56 129.76 141.63 129.98 142.43 129.45 Z M 143.28 128.89 L 144.14 128.32 C 144.94 127.80 145.16 126.72 144.63 125.93 C 144.11 125.13 143.04 124.92 142.24 125.44 L 141.38 126.01 C 140.58 126.54 140.36 127.61 140.89 128.40 C 141.41 129.20 142.48 129.42 143.28 128.89 Z M 144.15 128.32 L 145.02 127.74 C 145.81 127.22 146.03 126.15 145.50 125.35 C 144.98 124.56 143.91 124.34 143.11 124.86 L 142.24 125.44 C 141.44 125.97 141.23 127.04 141.75 127.83 C 142.28 128.63 143.35 128.85 144.15 128.32 Z M 145.02 127.74 L 145.89 127.17 C 146.68 126.64 146.90 125.57 146.37 124.78 C 145.85 123.98 144.78 123.76 143.98 124.29 L 143.11 124.86 C 142.32 125.39 142.10 126.46 142.62 127.26 C 143.15 128.05 144.22 128.27 145.02 127.74 Z M 145.88 127.17 L 146.75 126.60 C 147.55 126.08 147.77 125.01 147.24 124.21 C 146.72 123.41 145.65 123.19 144.85 123.72 L 143.99 124.29 C 143.19 124.81 142.97 125.88 143.49 126.68 C 144.02 127.47 145.09 127.69 145.88 127.17 Z M 146.74 126.60 L 147.59 126.05 C 148.39 125.53 148.61 124.46 148.09 123.66 C 147.57 122.86 146.50 122.64 145.70 123.16 L 144.85 123.71 C 144.06 124.23 143.83 125.30 144.35 126.10 C 144.88 126.90 145.95 127.13 146.74 126.60 Z M 147.59 126.06 L 148.42 125.51 C 149.23 125.00 149.45 123.93 148.94 123.12 C 148.42 122.32 147.35 122.09 146.55 122.61 L 145.71 123.15 C 144.91 123.67 144.68 124.74 145.20 125.54 C 145.71 126.35 146.78 126.58 147.59 126.06 Z M 148.42 125.52 L 149.25 124.99 C 150.06 124.47 150.29 123.40 149.78 122.60 C 149.26 121.79 148.19 121.56 147.39 122.07 L 146.55 122.61 C 145.75 123.12 145.51 124.19 146.03 124.99 C 146.54 125.80 147.61 126.03 148.42 125.52 Z M 149.24 124.99 L 150.08 124.47 C 150.89 123.96 151.13 122.89 150.62 122.08 C 150.11 121.27 149.04 121.03 148.23 121.54 L 147.40 122.07 C 146.59 122.58 146.35 123.64 146.86 124.45 C 147.37 125.26 148.43 125.50 149.24 124.99 Z M 150.07 124.47 L 150.91 123.95 C 151.72 123.45 151.97 122.38 151.46 121.57 C 150.96 120.76 149.89 120.51 149.08 121.01 L 148.24 121.53 C 147.43 122.04 147.18 123.11 147.68 123.92 C 148.19 124.73 149.26 124.98 150.07 124.47 Z M 150.90 123.96 L 151.74 123.44 C 152.56 122.94 152.82 121.88 152.32 121.06 C 151.82 120.24 150.75 119.99 149.94 120.49 L 149.09 121.00 C 148.27 121.50 148.01 122.57 148.51 123.39 C 149.01 124.20 150.08 124.46 150.90 123.96 Z M 151.73 123.45 L 152.59 122.93 C 153.42 122.44 153.68 121.37 153.19 120.55 C 152.69 119.73 151.63 119.47 150.81 119.96 L 149.95 120.48 C 149.13 120.97 148.86 122.04 149.35 122.86 C 149.85 123.68 150.91 123.94 151.73 123.45 Z M 152.58 122.94 L 153.46 122.42 C 154.29 121.94 154.56 120.87 154.07 120.05 C 153.59 119.22 152.52 118.95 151.70 119.43 L 150.82 119.95 C 149.99 120.44 149.72 121.50 150.21 122.33 C 150.69 123.15 151.76 123.43 152.58 122.94 Z M 153.45 122.43 L 154.33 121.92 C 155.16 121.44 155.44 120.38 154.96 119.55 C 154.48 118.72 153.42 118.44 152.59 118.92 L 151.71 119.42 C 150.88 119.91 150.59 120.97 151.08 121.80 C 151.56 122.63 152.62 122.91 153.45 122.43 Z M 154.31 121.94 L 155.20 121.43 C 156.04 120.96 156.33 119.90 155.86 119.06 C 155.39 118.22 154.33 117.93 153.49 118.40 L 152.60 118.90 C 151.76 119.38 151.47 120.44 151.94 121.28 C 152.41 122.11 153.48 122.41 154.31 121.94 Z M 155.18 121.45 L 156.09 120.95 C 156.93 120.49 157.24 119.43 156.78 118.58 C 156.31 117.74 155.25 117.43 154.41 117.89 L 153.51 118.39 C 152.66 118.85 152.35 119.91 152.82 120.76 C 153.28 121.60 154.34 121.91 155.18 121.45 Z M 156.06 120.97 L 156.97 120.49 C 157.83 120.04 158.15 118.98 157.70 118.13 C 157.25 117.27 156.19 116.95 155.34 117.40 L 154.43 117.88 C 153.58 118.33 153.25 119.39 153.70 120.24 C 154.15 121.09 155.21 121.42 156.06 120.97 Z M 156.94 120.51 L 157.85 120.05 C 158.72 119.62 159.07 118.56 158.63 117.70 C 158.20 116.83 157.14 116.48 156.28 116.92 L 155.37 117.38 C 154.50 117.81 154.15 118.87 154.59 119.73 C 155.02 120.60 156.08 120.94 156.94 120.51 Z M 157.82 120.07 L 158.73 119.64 C 159.61 119.23 159.98 118.18 159.56 117.30 C 159.15 116.42 158.10 116.05 157.22 116.47 L 156.31 116.90 C 155.44 117.31 155.06 118.36 155.48 119.24 C 155.89 120.12 156.94 120.49 157.82 120.07 Z M 158.69 119.67 L 159.59 119.27 C 160.48 118.88 160.88 117.84 160.49 116.95 C 160.10 116.06 159.06 115.65 158.17 116.05 L 157.26 116.44 C 156.37 116.83 155.97 117.87 156.36 118.76 C 156.76 119.65 157.80 120.06 158.69 119.67 Z M 159.53 119.30 L 160.42 118.94 C 161.33 118.58 161.77 117.55 161.40 116.64 C 161.04 115.74 160.01 115.30 159.11 115.66 L 158.22 116.02 C 157.31 116.38 156.87 117.41 157.24 118.31 C 157.60 119.22 158.63 119.66 159.53 119.30 Z M 160.35 118.97 L 161.31 118.63 C 162.23 118.31 162.71 117.29 162.39 116.37 C 162.06 115.45 161.05 114.97 160.13 115.29 L 159.17 115.63 C 158.25 115.96 157.77 116.97 158.10 117.89 C 158.42 118.81 159.43 119.29 160.35 118.97 Z M 161.21 118.67 L 162.39 118.34 C 163.33 118.07 163.88 117.08 163.61 116.14 C 163.34 115.19 162.35 114.65 161.41 114.92 L 160.23 115.25 C 159.29 115.52 158.74 116.51 159.01 117.45 C 159.28 118.40 160.26 118.94 161.21 118.67 Z M 162.24 118.38 L 163.34 118.17 C 164.31 117.98 164.95 117.04 164.76 116.07 C 164.57 115.10 163.64 114.47 162.67 114.66 L 161.56 114.87 C 160.59 115.06 159.95 116.00 160.14 116.97 C 160.33 117.94 161.27 118.57 162.24 118.38 Z M 163.14 118.21 L 164.16 118.13 C 165.15 118.06 165.89 117.19 165.82 116.20 C 165.74 115.21 164.88 114.47 163.89 114.54 L 162.87 114.62 C 161.88 114.69 161.14 115.55 161.21 116.54 C 161.28 117.54 162.15 118.28 163.14 118.21 Z M 163.86 118.14 L 164.77 118.22 C 165.77 118.31 166.65 117.57 166.73 116.57 C 166.82 115.58 166.08 114.70 165.09 114.61 L 164.18 114.53 C 163.19 114.45 162.31 115.18 162.22 116.18 C 162.13 117.17 162.87 118.05 163.86 118.14 Z M 164.37 118.15 L 165.14 118.40 C 166.10 118.71 167.12 118.19 167.43 117.23 C 167.75 116.28 167.22 115.25 166.27 114.94 L 165.49 114.69 C 164.54 114.37 163.51 114.90 163.20 115.85 C 162.89 116.81 163.41 117.84 164.37 118.15 Z M 164.64 118.16 L 165.26 118.60 C 166.08 119.19 167.23 119.00 167.82 118.18 C 168.40 117.36 168.22 116.21 167.39 115.63 L 166.77 115.18 C 165.95 114.59 164.80 114.78 164.21 115.60 C 163.63 116.42 163.82 117.57 164.64 118.16 Z M 164.82 118.17 L 165.29 118.85 C 165.88 119.68 167.02 119.89 167.86 119.30 C 168.69 118.72 168.89 117.58 168.31 116.74 L 167.84 116.06 C 167.25 115.23 166.11 115.02 165.27 115.61 C 164.44 116.19 164.24 117.33 164.82 118.17 Z M 165.06 118.42 L 165.37 119.28 C 165.72 120.24 166.78 120.74 167.74 120.39 C 168.70 120.04 169.20 118.99 168.85 118.03 L 168.54 117.17 C 168.19 116.21 167.14 115.71 166.18 116.06 C 165.22 116.40 164.72 117.46 165.06 118.42 Z M 165.28 118.97 L 165.45 119.95 C 165.63 120.97 166.59 121.64 167.60 121.47 C 168.61 121.30 169.29 120.34 169.11 119.33 L 168.94 118.34 C 168.77 117.33 167.81 116.65 166.80 116.82 C 165.79 117.00 165.11 117.96 165.28 118.97 Z M 165.42 119.74 L 165.48 120.81 C 165.53 121.84 166.41 122.63 167.44 122.57 C 168.46 122.52 169.25 121.64 169.20 120.61 L 169.14 119.54 C 169.09 118.51 168.21 117.72 167.19 117.78 C 166.16 117.83 165.37 118.71 165.42 119.74 Z M 165.47 120.66 L 165.44 121.77 C 165.41 122.80 166.22 123.66 167.25 123.69 C 168.29 123.72 169.15 122.91 169.18 121.87 L 169.21 120.77 C 169.24 119.73 168.43 118.87 167.39 118.84 C 166.36 118.81 165.50 119.62 165.47 120.66 Z M 165.43 121.66 L 165.35 122.72 C 165.26 123.76 166.03 124.67 167.06 124.75 C 168.09 124.84 169.00 124.07 169.09 123.04 L 169.18 121.98 C 169.27 120.94 168.50 120.04 167.46 119.95 C 166.43 119.86 165.52 120.63 165.43 121.66 Z M 165.35 122.64 L 165.22 123.63 C 165.09 124.66 165.82 125.60 166.85 125.74 C 167.88 125.87 168.83 125.14 168.96 124.11 L 169.09 123.12 C 169.22 122.09 168.49 121.15 167.46 121.01 C 166.43 120.88 165.48 121.61 165.35 122.64 Z M 165.23 123.55 L 165.07 124.52 C 164.89 125.55 165.58 126.52 166.61 126.70 C 167.63 126.87 168.61 126.18 168.78 125.16 L 168.95 124.19 C 169.13 123.16 168.44 122.19 167.41 122.01 C 166.38 121.83 165.41 122.52 165.23 123.55 Z M 165.08 124.44 L 164.87 125.40 C 164.65 126.42 165.30 127.43 166.32 127.65 C 167.34 127.87 168.35 127.22 168.56 126.20 L 168.77 125.23 C 168.99 124.22 168.34 123.21 167.32 122.99 C 166.30 122.77 165.30 123.42 165.08 124.44 Z M 164.89 125.33 L 164.64 126.29 C 164.38 127.31 164.99 128.34 166.00 128.59 C 167.01 128.85 168.04 128.24 168.30 127.23 L 168.55 126.27 C 168.81 125.26 168.20 124.23 167.19 123.97 C 166.18 123.71 165.15 124.32 164.89 125.33 Z M 164.66 126.23 L 164.37 127.20 C 164.07 128.20 164.65 129.25 165.65 129.55 C 166.65 129.84 167.71 129.27 168.00 128.27 L 168.29 127.30 C 168.58 126.30 168.01 125.24 167.01 124.95 C 166.00 124.65 164.95 125.23 164.66 126.23 Z M 164.39 127.14 L 164.08 128.07 C 163.75 129.07 164.29 130.14 165.29 130.47 C 166.28 130.79 167.35 130.25 167.68 129.26 L 167.99 128.33 C 168.31 127.33 167.77 126.26 166.78 125.93 C 165.78 125.61 164.71 126.15 164.39 127.14 Z M 164.09 128.03 L 163.82 128.80 C 163.47 129.78 163.98 130.87 164.97 131.22 C 165.95 131.57 167.04 131.06 167.39 130.07 L 167.66 129.30 C 168.02 128.32 167.50 127.23 166.52 126.88 C 165.53 126.53 164.44 127.04 164.09 128.03 Z M 163.83 128.76 L 163.53 129.56 C 163.16 130.54 163.65 131.63 164.63 132.00 C 165.61 132.38 166.71 131.88 167.08 130.90 L 167.38 130.11 C 167.75 129.13 167.26 128.03 166.28 127.66 C 165.30 127.29 164.20 127.78 163.83 128.76 Z M 163.54 129.53 L 163.21 130.36 C 162.82 131.33 163.30 132.44 164.27 132.82 C 165.24 133.21 166.35 132.74 166.74 131.76 L 167.07 130.93 C 167.45 129.96 166.98 128.85 166.00 128.47 C 165.03 128.08 163.93 128.55 163.54 129.53 Z M 163.22 130.34 L 162.85 131.21 C 162.45 132.18 162.91 133.29 163.88 133.69 C 164.85 134.09 165.96 133.63 166.36 132.66 L 166.73 131.79 C 167.13 130.82 166.67 129.71 165.70 129.31 C 164.73 128.91 163.62 129.37 163.22 130.34 Z M 162.86 131.19 L 162.46 132.13 C 162.05 133.09 162.50 134.21 163.46 134.62 C 164.43 135.03 165.55 134.58 165.96 133.62 L 166.36 132.68 C 166.77 131.72 166.32 130.60 165.35 130.19 C 164.39 129.78 163.27 130.23 162.86 131.19 Z M 162.47 132.11 L 162.03 133.11 C 161.61 134.07 162.05 135.19 163.01 135.61 C 163.98 136.03 165.10 135.59 165.51 134.63 L 165.95 133.63 C 166.37 132.67 165.93 131.55 164.97 131.13 C 164.01 130.71 162.89 131.15 162.47 132.11 Z M 162.04 133.10 L 161.56 134.18 C 161.13 135.14 161.57 136.26 162.53 136.69 C 163.49 137.11 164.61 136.68 165.03 135.72 L 165.51 134.64 C 165.94 133.68 165.50 132.56 164.54 132.14 C 163.58 131.71 162.46 132.14 162.04 133.10 Z M 161.56 134.17 L 161.05 135.31 C 160.62 136.27 161.05 137.39 162.01 137.82 C 162.97 138.25 164.09 137.82 164.52 136.86 L 165.03 135.73 C 165.46 134.77 165.03 133.64 164.07 133.21 C 163.12 132.78 161.99 133.21 161.56 134.17 Z M 161.05 135.30 L 160.67 136.16 C 160.24 137.12 160.66 138.25 161.62 138.68 C 162.58 139.11 163.70 138.68 164.13 137.73 L 164.52 136.87 C 164.95 135.91 164.53 134.78 163.57 134.35 C 162.61 133.92 161.49 134.35 161.05 135.30 Z M 160.67 136.16 L 160.26 137.06 C 159.83 138.02 160.26 139.14 161.21 139.57 C 162.17 140.01 163.29 139.58 163.73 138.62 L 164.13 137.73 C 164.56 136.77 164.14 135.64 163.18 135.21 C 162.23 134.78 161.10 135.21 160.67 136.16 Z M 160.26 137.06 L 159.84 137.98 C 159.41 138.94 159.83 140.07 160.79 140.50 C 161.75 140.93 162.87 140.51 163.31 139.55 L 163.73 138.63 C 164.16 137.67 163.73 136.54 162.78 136.11 C 161.82 135.68 160.70 136.10 160.26 137.06 Z M 159.84 137.98 L 159.42 138.93 C 158.98 139.89 159.40 141.01 160.36 141.45 C 161.32 141.88 162.44 141.46 162.88 140.50 L 163.31 139.55 C 163.74 138.60 163.32 137.47 162.36 137.04 C 161.40 136.60 160.28 137.03 159.84 137.98 Z M 159.42 138.93 L 158.98 139.89 C 158.55 140.84 158.97 141.97 159.92 142.40 C 160.88 142.84 162.01 142.41 162.44 141.46 L 162.88 140.50 C 163.31 139.55 162.89 138.42 161.93 137.98 C 160.98 137.55 159.85 137.97 159.42 138.93 Z M 158.98 139.89 L 158.54 140.85 C 158.11 141.80 158.53 142.93 159.49 143.36 C 160.44 143.80 161.57 143.37 162.00 142.42 L 162.44 141.46 C 162.87 140.50 162.45 139.38 161.50 138.94 C 160.54 138.51 159.42 138.93 158.98 139.89 Z M 158.54 140.85 L 158.11 141.80 C 157.68 142.76 158.10 143.88 159.05 144.32 C 160.01 144.75 161.13 144.33 161.57 143.37 L 162.00 142.42 C 162.44 141.46 162.02 140.34 161.06 139.90 C 160.11 139.47 158.98 139.89 158.54 140.85 Z M 158.11 141.80 L 157.68 142.74 C 157.25 143.70 157.67 144.82 158.63 145.26 C 159.58 145.69 160.71 145.27 161.14 144.31 L 161.57 143.37 C 162.00 142.42 161.58 141.29 160.63 140.86 C 159.67 140.42 158.55 140.85 158.11 141.80 Z M 157.68 142.74 L 157.27 143.66 C 156.83 144.61 157.25 145.74 158.21 146.17 C 159.16 146.61 160.29 146.19 160.72 145.23 L 161.14 144.31 C 161.58 143.36 161.15 142.23 160.20 141.80 C 159.24 141.36 158.12 141.79 157.68 142.74 Z M 157.27 143.66 L 156.86 144.55 C 156.43 145.50 156.85 146.63 157.81 147.06 C 158.76 147.49 159.89 147.07 160.32 146.12 L 160.72 145.23 C 161.16 144.28 160.74 143.15 159.78 142.72 C 158.83 142.28 157.70 142.70 157.27 143.66 Z M 156.86 144.55 L 156.48 145.39 C 156.05 146.35 156.47 147.47 157.42 147.91 C 158.38 148.34 159.50 147.92 159.94 146.96 L 160.32 146.12 C 160.75 145.16 160.33 144.04 159.38 143.60 C 158.42 143.17 157.30 143.59 156.86 144.55 Z M 156.48 145.39 L 156.05 146.34 C 155.62 147.30 156.04 148.42 157.00 148.85 C 157.95 149.28 159.08 148.86 159.51 147.91 L 159.94 146.96 C 160.37 146.00 159.95 144.88 158.99 144.45 C 158.04 144.02 156.91 144.44 156.48 145.39 Z M 156.05 146.35 L 155.54 147.49 C 155.11 148.44 155.53 149.56 156.49 149.99 C 157.44 150.42 158.56 150.00 158.99 149.05 L 159.51 147.90 C 159.94 146.95 159.51 145.83 158.56 145.40 C 157.61 144.97 156.48 145.39 156.05 146.35 Z M 155.54 147.50 L 155.08 148.53 C 154.65 149.48 155.08 150.60 156.03 151.02 C 156.98 151.45 158.10 151.02 158.52 150.07 L 158.99 149.04 C 159.41 148.09 158.99 146.97 158.04 146.55 C 157.09 146.12 155.97 146.54 155.54 147.50 Z M 155.08 148.53 L 154.67 149.47 C 154.24 150.42 154.67 151.53 155.62 151.96 C 156.56 152.38 157.68 151.95 158.10 151.00 L 158.52 150.07 C 158.94 149.12 158.52 148.01 157.57 147.58 C 156.62 147.16 155.51 147.58 155.08 148.53 Z M 154.67 149.48 L 154.29 150.34 C 153.87 151.29 154.29 152.39 155.24 152.81 C 156.18 153.23 157.29 152.81 157.71 151.86 L 158.10 151.00 C 158.52 150.05 158.09 148.95 157.14 148.53 C 156.20 148.11 155.09 148.53 154.67 149.48 Z M 154.29 150.35 L 153.93 151.15 C 153.52 152.10 153.94 153.20 154.89 153.62 C 155.83 154.03 156.93 153.61 157.35 152.66 L 157.71 151.86 C 158.13 150.91 157.70 149.81 156.76 149.39 C 155.81 148.98 154.71 149.40 154.29 150.35 Z M 153.94 151.16 L 153.60 151.93 C 153.19 152.87 153.61 153.96 154.55 154.38 C 155.49 154.79 156.59 154.37 157.01 153.43 L 157.35 152.66 C 157.76 151.72 157.33 150.62 156.39 150.20 C 155.45 149.79 154.35 150.22 153.94 151.16 Z M 153.61 151.93 L 153.28 152.68 C 152.86 153.62 153.29 154.71 154.23 155.12 C 155.17 155.54 156.26 155.11 156.67 154.17 L 157.00 153.42 C 157.41 152.49 156.99 151.39 156.05 150.98 C 155.11 150.57 154.02 150.99 153.61 151.93 Z M 153.28 152.68 L 152.89 153.58 C 152.47 154.52 152.90 155.61 153.83 156.02 C 154.77 156.43 155.86 156.01 156.27 155.07 L 156.67 154.17 C 157.08 153.23 156.65 152.14 155.72 151.73 C 154.78 151.32 153.69 151.74 153.28 152.68 Z M 152.89 153.58 L 152.49 154.49 C 152.08 155.43 152.50 156.51 153.43 156.93 C 154.36 157.34 155.45 156.91 155.86 155.98 L 156.26 155.07 C 156.68 154.14 156.25 153.05 155.32 152.64 C 154.39 152.23 153.30 152.65 152.89 153.58 Z M 152.49 154.49 L 152.09 155.41 C 151.68 156.33 152.10 157.42 153.03 157.83 C 153.95 158.24 155.04 157.82 155.45 156.90 L 155.86 155.98 C 156.27 155.06 155.85 153.97 154.92 153.56 C 153.99 153.15 152.91 153.57 152.49 154.49 Z M 152.10 155.40 L 151.69 156.32 C 151.28 157.24 151.69 158.33 152.62 158.74 C 153.54 159.15 154.62 158.74 155.04 157.81 L 155.44 156.90 C 155.86 155.97 155.44 154.89 154.52 154.48 C 153.59 154.07 152.51 154.48 152.10 155.40 Z M 151.70 156.31 L 151.29 157.23 C 150.87 158.15 151.28 159.23 152.20 159.64 C 153.12 160.06 154.20 159.65 154.62 158.73 L 155.03 157.82 C 155.44 156.90 155.03 155.81 154.11 155.40 C 153.19 154.98 152.11 155.39 151.70 156.31 Z M 151.29 157.22 L 150.88 158.13 C 150.46 159.05 150.86 160.13 151.78 160.55 C 152.69 160.97 153.77 160.56 154.19 159.65 L 154.61 158.73 C 155.03 157.82 154.62 156.74 153.71 156.32 C 152.79 155.90 151.71 156.31 151.29 157.22 Z M 150.89 158.13 L 150.48 159.02 C 150.06 159.93 150.45 161.01 151.36 161.43 C 152.27 161.85 153.35 161.45 153.77 160.54 L 154.18 159.65 C 154.60 158.74 154.21 157.66 153.30 157.24 C 152.39 156.82 151.31 157.22 150.89 158.13 Z M 150.49 159.02 L 150.07 159.91 C 149.65 160.81 150.04 161.89 150.94 162.31 C 151.85 162.73 152.92 162.34 153.34 161.44 L 153.76 160.55 C 154.18 159.64 153.79 158.57 152.89 158.14 C 151.98 157.72 150.91 158.11 150.49 159.02 Z M 150.08 159.90 L 149.66 160.80 C 149.23 161.70 149.62 162.77 150.52 163.19 C 151.42 163.62 152.49 163.23 152.91 162.33 L 153.33 161.44 C 153.76 160.54 153.37 159.47 152.47 159.04 C 151.58 158.62 150.50 159.01 150.08 159.90 Z M 149.67 160.80 L 149.24 161.70 C 148.82 162.60 149.20 163.66 150.09 164.09 C 150.99 164.51 152.05 164.13 152.48 163.24 L 152.90 162.33 C 153.33 161.44 152.95 160.37 152.05 159.95 C 151.16 159.52 150.09 159.91 149.67 160.80 Z M 149.25 161.71 L 148.81 162.62 C 148.39 163.51 148.77 164.57 149.66 164.99 C 150.55 165.42 151.61 165.04 152.04 164.15 L 152.47 163.23 C 152.89 162.34 152.51 161.28 151.62 160.86 C 150.73 160.44 149.67 160.82 149.25 161.71 Z M 148.82 162.62 L 148.38 163.55 C 147.96 164.44 148.34 165.49 149.23 165.91 C 150.11 166.33 151.17 165.96 151.59 165.07 L 152.03 164.14 C 152.45 163.26 152.07 162.20 151.18 161.78 C 150.30 161.36 149.24 161.74 148.82 162.62 Z M 148.39 163.56 L 147.96 164.46 C 147.55 165.34 147.93 166.39 148.81 166.81 C 149.69 167.22 150.74 166.85 151.16 165.96 L 151.58 165.06 C 152.00 164.18 151.62 163.13 150.74 162.71 C 149.86 162.30 148.80 162.67 148.39 163.56 Z M 147.97 164.46 L 147.55 165.36 C 147.14 166.24 147.52 167.28 148.40 167.69 C 149.27 168.11 150.32 167.73 150.73 166.85 L 151.15 165.96 C 151.57 165.08 151.19 164.03 150.31 163.62 C 149.43 163.21 148.38 163.58 147.97 164.46 Z M 147.56 165.36 L 147.13 166.26 C 146.72 167.14 147.10 168.18 147.98 168.59 C 148.85 169.00 149.89 168.62 150.30 167.75 L 150.73 166.85 C 151.14 165.97 150.76 164.93 149.88 164.52 C 149.01 164.11 147.97 164.49 147.56 165.36 Z M 147.14 166.27 L 146.72 167.18 C 146.31 168.05 146.68 169.09 147.56 169.49 C 148.43 169.90 149.46 169.53 149.87 168.65 L 150.30 167.74 C 150.70 166.87 150.33 165.84 149.46 165.43 C 148.59 165.02 147.55 165.40 147.14 166.27 Z M 146.72 167.18 L 146.30 168.09 C 145.89 168.96 146.26 169.99 147.13 170.40 C 148.00 170.81 149.03 170.43 149.43 169.57 L 149.86 168.65 C 150.27 167.78 149.90 166.75 149.03 166.35 C 148.16 165.94 147.13 166.31 146.72 167.18 Z M 146.30 168.10 L 145.87 169.01 C 145.47 169.87 145.84 170.90 146.70 171.31 C 147.56 171.71 148.59 171.34 149.00 170.48 L 149.43 169.56 C 149.83 168.70 149.46 167.67 148.60 167.27 C 147.74 166.86 146.71 167.23 146.30 168.10 Z M 145.88 169.01 L 145.45 169.92 C 145.05 170.78 145.42 171.80 146.27 172.21 C 147.13 172.61 148.15 172.25 148.56 171.39 L 148.99 170.48 C 149.39 169.62 149.02 168.60 148.17 168.19 C 147.31 167.79 146.29 168.16 145.88 169.01 Z M 145.46 169.93 L 145.03 170.83 C 144.63 171.68 144.99 172.70 145.85 173.10 C 146.70 173.51 147.72 173.14 148.12 172.29 L 148.55 171.39 C 148.95 170.54 148.59 169.52 147.74 169.11 C 146.88 168.71 145.87 169.07 145.46 169.93 Z M 145.04 170.83 L 144.61 171.73 C 144.21 172.58 144.57 173.59 145.42 173.99 C 146.26 174.40 147.28 174.04 147.68 173.19 L 148.11 172.29 C 148.51 171.45 148.15 170.43 147.31 170.03 C 146.46 169.62 145.45 169.98 145.04 170.83 Z M 144.62 171.73 L 144.19 172.63 C 143.79 173.47 144.14 174.48 144.99 174.88 C 145.83 175.29 146.84 174.93 147.24 174.09 L 147.67 173.19 C 148.07 172.35 147.72 171.34 146.88 170.94 C 146.04 170.53 145.03 170.89 144.62 171.73 Z M 144.20 172.63 L 143.77 173.53 C 143.37 174.36 143.72 175.37 144.55 175.77 C 145.39 176.18 146.39 175.82 146.80 174.99 L 147.23 174.09 C 147.63 173.25 147.28 172.25 146.45 171.85 C 145.61 171.44 144.61 171.79 144.20 172.63 Z M 143.78 173.53 L 143.34 174.43 C 142.94 175.26 143.29 176.26 144.12 176.66 C 144.95 177.06 145.95 176.72 146.35 175.89 L 146.79 174.99 C 147.19 174.16 146.84 173.16 146.01 172.75 C 145.18 172.35 144.18 172.70 143.78 173.53 Z M 143.35 174.43 L 142.91 175.33 C 142.51 176.16 142.85 177.15 143.68 177.55 C 144.50 177.96 145.50 177.61 145.90 176.79 L 146.34 175.89 C 146.74 175.06 146.40 174.07 145.58 173.66 C 144.75 173.26 143.76 173.60 143.35 174.43 Z M 142.92 175.33 L 142.48 176.23 C 142.08 177.05 142.42 178.04 143.24 178.44 C 144.06 178.84 145.05 178.50 145.45 177.68 L 145.89 176.79 C 146.29 175.97 145.96 174.98 145.14 174.57 C 144.32 174.17 143.32 174.51 142.92 175.33 Z M 142.49 176.23 L 142.06 177.11 C 141.66 177.92 141.99 178.91 142.81 179.31 C 143.62 179.71 144.61 179.38 145.01 178.56 L 145.45 177.68 C 145.85 176.87 145.51 175.88 144.70 175.48 C 143.88 175.08 142.89 175.41 142.49 176.23 Z M 142.06 177.11 L 141.63 178.00 C 141.23 178.81 141.56 179.79 142.37 180.19 C 143.18 180.59 144.17 180.26 144.57 179.45 L 145.00 178.56 C 145.41 177.75 145.07 176.77 144.26 176.37 C 143.45 175.97 142.47 176.30 142.06 177.11 Z M 141.63 178.00 L 141.19 178.89 C 140.79 179.70 141.13 180.68 141.93 181.08 C 142.74 181.48 143.72 181.14 144.12 180.34 L 144.56 179.44 C 144.96 178.64 144.63 177.66 143.82 177.26 C 143.01 176.86 142.03 177.19 141.63 178.00 Z M 141.20 178.90 L 140.76 179.79 C 140.36 180.60 140.69 181.57 141.50 181.97 C 142.30 182.37 143.27 182.04 143.67 181.23 L 144.11 180.33 C 144.51 179.53 144.18 178.55 143.37 178.16 C 142.57 177.76 141.60 178.09 141.20 178.90 Z M 140.76 179.80 L 140.32 180.71 C 139.92 181.51 140.25 182.48 141.06 182.87 C 141.86 183.26 142.83 182.93 143.22 182.13 L 143.67 181.23 C 144.06 180.42 143.73 179.45 142.93 179.06 C 142.12 178.67 141.15 179.00 140.76 179.80 Z M 140.32 180.71 L 139.88 181.63 C 139.49 182.43 139.82 183.39 140.62 183.78 C 141.42 184.17 142.38 183.84 142.77 183.04 L 143.22 182.12 C 143.61 181.33 143.27 180.36 142.47 179.97 C 141.67 179.58 140.71 179.91 140.32 180.71 Z M 139.88 181.64 L 139.45 182.52 C 139.07 183.32 139.40 184.27 140.20 184.66 C 141.00 185.04 141.96 184.71 142.34 183.91 L 142.77 183.03 C 143.15 182.23 142.82 181.28 142.02 180.89 C 141.22 180.50 140.26 180.84 139.88 181.64 Z M 139.46 182.52 L 139.06 183.36 C 138.67 184.15 139.01 185.11 139.81 185.49 C 140.60 185.87 141.56 185.54 141.94 184.74 L 142.34 183.91 C 142.72 183.11 142.38 182.16 141.59 181.77 C 140.79 181.39 139.84 181.73 139.46 182.52 Z M 139.06 183.36 L 138.65 184.21 C 138.27 185.00 138.61 185.95 139.40 186.33 C 140.20 186.71 141.15 186.38 141.53 185.58 L 141.94 184.74 C 142.32 183.94 141.98 182.99 141.18 182.61 C 140.39 182.23 139.44 182.57 139.06 183.36 Z M 138.66 184.21 L 138.24 185.08 C 137.86 185.87 138.20 186.82 138.99 187.20 C 139.78 187.57 140.73 187.24 141.11 186.45 L 141.53 185.58 C 141.91 184.79 141.57 183.84 140.78 183.46 C 139.99 183.08 139.04 183.42 138.66 184.21 Z M 138.25 185.08 L 137.82 185.96 C 137.44 186.75 137.78 187.70 138.56 188.08 C 139.35 188.46 140.30 188.13 140.68 187.34 L 141.11 186.45 C 141.49 185.66 141.15 184.71 140.36 184.33 C 139.58 183.95 138.63 184.29 138.25 185.08 Z M 137.83 185.96 L 137.38 186.88 C 137.00 187.67 137.33 188.61 138.12 188.99 C 138.91 189.37 139.85 189.04 140.23 188.26 L 140.68 187.34 C 141.06 186.55 140.73 185.61 139.94 185.23 C 139.15 184.85 138.21 185.18 137.83 185.96 Z M 137.39 186.88 L 136.93 187.83 C 136.54 188.61 136.87 189.55 137.65 189.94 C 138.43 190.32 139.38 189.99 139.76 189.21 L 140.23 188.26 C 140.61 187.48 140.28 186.53 139.50 186.15 C 138.72 185.77 137.77 186.09 137.39 186.88 Z M 136.93 187.82 L 136.45 188.81 C 136.06 189.59 136.38 190.53 137.16 190.92 C 137.94 191.30 138.88 190.98 139.27 190.20 L 139.75 189.22 C 140.14 188.44 139.82 187.49 139.04 187.11 C 138.26 186.72 137.32 187.04 136.93 187.82 Z M 136.45 188.80 L 135.99 189.72 C 135.61 190.49 135.92 191.43 136.70 191.82 C 137.47 192.21 138.41 191.90 138.80 191.12 L 139.26 190.21 C 139.65 189.43 139.33 188.49 138.56 188.10 C 137.78 187.71 136.84 188.03 136.45 188.80 Z M 136.00 189.71 L 135.55 190.59 C 135.16 191.36 135.47 192.30 136.24 192.70 C 137.02 193.09 137.96 192.78 138.35 192.01 L 138.80 191.13 C 139.19 190.35 138.88 189.41 138.11 189.02 C 137.33 188.63 136.39 188.94 136.00 189.71 Z M 135.56 190.58 L 135.10 191.48 C 134.70 192.25 135.01 193.19 135.78 193.59 C 136.55 193.98 137.49 193.68 137.89 192.91 L 138.35 192.01 C 138.74 191.24 138.44 190.30 137.67 189.90 C 136.90 189.51 135.95 189.81 135.56 190.58 Z M 135.10 191.47 L 134.63 192.38 C 134.23 193.15 134.53 194.09 135.30 194.49 C 136.07 194.89 137.02 194.59 137.41 193.82 L 137.88 192.91 C 138.28 192.15 137.98 191.20 137.21 190.80 C 136.45 190.40 135.50 190.70 135.10 191.47 Z M 134.64 192.37 L 134.16 193.28 C 133.76 194.05 134.05 195.00 134.82 195.40 C 135.58 195.80 136.53 195.50 136.93 194.74 L 137.41 193.83 C 137.81 193.06 137.52 192.12 136.75 191.71 C 135.98 191.31 135.04 191.61 134.64 192.37 Z M 134.16 193.28 L 133.68 194.19 C 133.28 194.95 133.57 195.90 134.33 196.30 C 135.09 196.71 136.04 196.42 136.45 195.65 L 136.93 194.75 C 137.33 193.98 137.04 193.03 136.28 192.63 C 135.52 192.22 134.57 192.51 134.16 193.28 Z M 133.69 194.18 L 133.20 195.08 C 132.80 195.84 133.08 196.78 133.84 197.19 C 134.60 197.60 135.55 197.32 135.96 196.56 L 136.44 195.66 C 136.85 194.90 136.57 193.95 135.80 193.54 C 135.04 193.13 134.10 193.42 133.69 194.18 Z M 133.21 195.07 L 132.73 195.95 C 132.32 196.70 132.60 197.65 133.36 198.07 C 134.11 198.48 135.06 198.20 135.48 197.44 L 135.96 196.56 C 136.37 195.81 136.09 194.86 135.33 194.44 C 134.57 194.03 133.62 194.31 133.21 195.07 Z M 132.74 195.94 L 132.26 196.79 C 131.85 197.55 132.12 198.50 132.88 198.91 C 133.63 199.33 134.58 199.06 135.00 198.30 L 135.47 197.45 C 135.89 196.70 135.62 195.75 134.86 195.33 C 134.11 194.91 133.15 195.18 132.74 195.94 Z M 132.27 196.78 L 131.78 197.66 C 131.35 198.41 131.62 199.36 132.37 199.78 C 133.12 200.21 134.08 199.94 134.50 199.19 L 134.99 198.31 C 135.42 197.56 135.15 196.61 134.40 196.19 C 133.65 195.76 132.69 196.03 132.27 196.78 Z M 131.79 197.64 L 131.23 198.60 C 130.80 199.35 131.06 200.30 131.81 200.73 C 132.56 201.16 133.51 200.91 133.94 200.16 L 134.49 199.20 C 134.92 198.45 134.66 197.50 133.92 197.07 C 133.17 196.64 132.22 196.90 131.79 197.64 Z M 131.24 198.59 L 130.71 199.50 C 130.27 200.24 130.52 201.20 131.26 201.64 C 132.00 202.07 132.96 201.83 133.40 201.08 L 133.93 200.17 C 134.37 199.43 134.12 198.47 133.38 198.04 C 132.64 197.60 131.68 197.85 131.24 198.59 Z M 130.71 199.49 L 130.19 200.36 C 129.75 201.10 129.99 202.06 130.73 202.50 C 131.47 202.94 132.42 202.70 132.87 201.96 L 133.39 201.09 C 133.83 200.35 133.59 199.40 132.85 198.95 C 132.12 198.51 131.16 198.75 130.71 199.49 Z M 130.20 200.35 L 129.69 201.19 C 129.24 201.92 129.47 202.88 130.20 203.33 C 130.94 203.78 131.90 203.55 132.35 202.81 L 132.86 201.97 C 133.31 201.24 133.08 200.28 132.34 199.83 C 131.61 199.38 130.65 199.61 130.20 200.35 Z M 129.69 201.18 L 129.19 201.99 C 128.73 202.72 128.96 203.69 129.69 204.14 C 130.43 204.59 131.39 204.37 131.84 203.63 L 132.35 202.82 C 132.80 202.09 132.57 201.13 131.84 200.67 C 131.11 200.22 130.14 200.44 129.69 201.18 Z M 129.19 201.98 L 128.69 202.78 C 128.24 203.51 128.46 204.47 129.19 204.93 C 129.92 205.39 130.88 205.17 131.34 204.44 L 131.84 203.64 C 132.30 202.91 132.07 201.95 131.34 201.49 C 130.61 201.03 129.65 201.25 129.19 201.98 Z M 128.70 202.78 L 128.20 203.56 C 127.74 204.29 127.96 205.26 128.69 205.72 C 129.42 206.17 130.39 205.95 130.85 205.22 L 131.34 204.44 C 131.80 203.71 131.58 202.75 130.85 202.29 C 130.12 201.83 129.16 202.05 128.70 202.78 Z M 128.20 203.56 L 128.05 203.80 C 127.59 204.53 127.81 205.49 128.54 205.95 C 129.27 206.41 130.24 206.19 130.70 205.46 L 130.84 205.23 C 131.30 204.50 131.08 203.53 130.36 203.07 C 129.63 202.61 128.66 202.83 128.20 203.56 Z"
      fill="black"
      fill-rule="nonzero" /><path d="M 82.85 215.55 L 83.81 215.55 C 84.73 215.55 85.48 214.81 85.47 213.89 C 85.47 212.97 84.73 212.23 83.81 212.23 L 82.85 212.23 C 81.93 212.23 81.19 212.97 81.19 213.89 C 81.19 214.81 81.93 215.56 82.85 215.55 Z M 83.82 215.58 L 84.78 215.58 C 85.72 215.58 86.47 214.82 86.47 213.88 C 86.47 212.94 85.70 212.19 84.77 212.19 L 83.80 212.20 C 82.87 212.20 82.11 212.96 82.12 213.90 C 82.12 214.83 82.88 215.59 83.82 215.58 Z M 84.79 215.61 L 85.77 215.60 C 86.72 215.59 87.49 214.81 87.48 213.86 C 87.47 212.91 86.69 212.14 85.74 212.15 L 84.76 212.16 C 83.81 212.17 83.04 212.95 83.05 213.90 C 83.06 214.86 83.84 215.62 84.79 215.61 Z M 85.79 215.63 L 86.79 215.61 C 87.76 215.59 88.53 214.79 88.51 213.82 C 88.49 212.86 87.69 212.09 86.72 212.10 L 85.72 212.12 C 84.75 212.14 83.98 212.94 84.00 213.91 C 84.02 214.88 84.82 215.65 85.79 215.63 Z M 86.81 215.64 L 87.84 215.61 C 88.82 215.58 89.60 214.76 89.57 213.77 C 89.54 212.79 88.72 212.01 87.73 212.04 L 86.70 212.07 C 85.72 212.10 84.94 212.93 84.97 213.91 C 85.00 214.90 85.83 215.67 86.81 215.64 Z M 87.87 215.64 L 88.93 215.59 C 89.93 215.55 90.71 214.70 90.66 213.70 C 90.62 212.70 89.77 211.92 88.77 211.97 L 87.71 212.01 C 86.71 212.06 85.93 212.91 85.97 213.91 C 86.02 214.91 86.86 215.68 87.87 215.64 Z M 88.95 215.61 L 89.93 215.55 C 90.95 215.50 91.72 214.63 91.66 213.62 C 91.60 212.61 90.74 211.84 89.73 211.89 L 88.75 211.95 C 87.74 212.01 86.96 212.87 87.02 213.88 C 87.08 214.89 87.94 215.67 88.95 215.61 Z M 89.95 215.56 L 90.96 215.49 C 91.97 215.43 92.74 214.55 92.67 213.54 C 92.60 212.52 91.73 211.75 90.71 211.82 L 89.71 211.89 C 88.69 211.96 87.93 212.83 88.00 213.85 C 88.06 214.86 88.94 215.63 89.95 215.56 Z M 90.97 215.50 L 91.98 215.42 C 93.00 215.35 93.76 214.47 93.69 213.45 C 93.62 212.43 92.73 211.67 91.71 211.74 L 90.70 211.82 C 89.68 211.89 88.92 212.77 88.99 213.79 C 89.07 214.81 89.95 215.57 90.97 215.50 Z M 91.99 215.43 L 93.01 215.35 C 94.03 215.28 94.79 214.38 94.71 213.36 C 94.64 212.34 93.75 211.58 92.72 211.66 L 91.71 211.74 C 90.69 211.81 89.92 212.70 90.00 213.72 C 90.08 214.75 90.97 215.51 91.99 215.43 Z M 93.01 215.36 L 94.02 215.28 C 95.04 215.20 95.81 214.31 95.73 213.28 C 95.65 212.26 94.75 211.49 93.73 211.57 L 92.72 211.65 C 91.70 211.73 90.93 212.62 91.01 213.65 C 91.09 214.67 91.99 215.44 93.01 215.36 Z M 94.01 215.29 L 95.00 215.22 C 96.03 215.14 96.80 214.24 96.72 213.21 C 96.65 212.18 95.75 211.41 94.72 211.49 L 93.73 211.57 C 92.70 211.64 91.93 212.54 92.01 213.57 C 92.09 214.60 92.99 215.37 94.01 215.29 Z M 94.99 215.22 L 95.98 215.15 C 97.01 215.08 97.79 214.18 97.72 213.15 C 97.64 212.12 96.75 211.34 95.72 211.41 L 94.73 211.48 C 93.70 211.56 92.92 212.45 92.99 213.48 C 93.06 214.52 93.96 215.30 94.99 215.22 Z M 95.96 215.16 L 96.99 215.10 C 98.03 215.03 98.82 214.14 98.75 213.10 C 98.69 212.07 97.79 211.28 96.76 211.34 L 95.73 211.41 C 94.69 211.47 93.91 212.36 93.97 213.40 C 94.04 214.44 94.93 215.22 95.96 215.16 Z M 96.98 215.10 L 97.97 215.05 C 99.01 214.99 99.81 214.10 99.75 213.07 C 99.70 212.03 98.81 211.23 97.77 211.29 L 96.77 211.34 C 95.74 211.39 94.94 212.28 94.99 213.32 C 95.05 214.36 95.94 215.16 96.98 215.10 Z M 97.96 215.05 L 98.94 215.01 C 99.98 214.96 100.78 214.08 100.74 213.04 C 100.69 212.00 99.81 211.19 98.77 211.24 L 97.79 211.28 C 96.75 211.33 95.94 212.21 95.99 213.25 C 96.03 214.29 96.91 215.10 97.96 215.05 Z M 98.92 215.01 L 99.90 214.98 C 100.94 214.94 101.76 214.06 101.72 213.02 C 101.68 211.98 100.81 211.16 99.76 211.20 L 98.79 211.23 C 97.74 211.27 96.93 212.15 96.96 213.19 C 97.00 214.23 97.88 215.05 98.92 215.01 Z M 99.88 214.98 L 100.87 214.96 C 101.92 214.93 102.74 214.06 102.71 213.01 C 102.68 211.96 101.81 211.14 100.77 211.17 L 99.78 211.19 C 98.73 211.22 97.91 212.09 97.94 213.14 C 97.96 214.19 98.83 215.01 99.88 214.98 Z M 100.86 214.96 L 101.84 214.94 C 102.89 214.92 103.72 214.05 103.70 213.00 C 103.68 211.96 102.81 211.12 101.77 211.14 L 100.78 211.16 C 99.73 211.18 98.90 212.05 98.92 213.10 C 98.94 214.15 99.81 214.98 100.86 214.96 Z M 101.83 214.94 L 102.75 214.93 C 103.80 214.92 104.64 214.05 104.62 213.00 C 104.61 211.95 103.75 211.11 102.70 211.13 L 101.78 211.14 C 100.73 211.16 99.89 212.02 99.90 213.07 C 99.92 214.12 100.78 214.96 101.83 214.94 Z M 102.74 214.93 L 103.69 214.92 C 104.74 214.91 105.59 214.05 105.58 213.00 C 105.57 211.95 104.70 211.11 103.65 211.12 L 102.71 211.12 C 101.65 211.13 100.81 212.00 100.82 213.05 C 100.83 214.10 101.69 214.94 102.74 214.93 Z M 103.68 214.93 L 104.66 214.92 C 105.71 214.91 106.56 214.06 106.56 213.00 C 106.55 211.95 105.69 211.10 104.64 211.11 L 103.66 211.11 C 102.61 211.12 101.76 211.98 101.76 213.03 C 101.77 214.08 102.63 214.93 103.68 214.93 Z M 104.66 214.92 L 105.66 214.92 C 106.72 214.92 107.57 214.06 107.57 213.00 C 107.56 211.95 106.70 211.10 105.65 211.10 L 104.64 211.10 C 103.59 211.11 102.74 211.97 102.74 213.02 C 102.74 214.08 103.60 214.93 104.66 214.92 Z M 105.66 214.92 L 106.70 214.92 C 107.75 214.92 108.61 214.06 108.61 213.01 C 108.61 211.95 107.75 211.10 106.69 211.10 L 105.65 211.10 C 104.60 211.10 103.74 211.96 103.74 213.01 C 103.75 214.07 104.60 214.92 105.66 214.92 Z M 106.70 214.92 L 107.77 214.92 C 108.82 214.92 109.68 214.07 109.68 213.01 C 109.68 211.95 108.82 211.09 107.76 211.09 L 106.69 211.09 C 105.64 211.09 104.78 211.95 104.78 213.01 C 104.78 214.07 105.64 214.92 106.70 214.92 Z M 107.77 214.93 L 108.81 214.93 C 109.87 214.93 110.72 214.07 110.72 213.01 C 110.72 211.95 109.87 211.09 108.81 211.09 L 107.77 211.09 C 106.71 211.09 105.85 211.95 105.85 213.01 C 105.85 214.07 106.71 214.93 107.77 214.93 Z M 108.81 214.93 L 109.77 214.93 C 110.83 214.93 111.69 214.07 111.69 213.01 C 111.69 211.95 110.83 211.09 109.77 211.09 L 108.81 211.09 C 107.75 211.09 106.89 211.95 106.89 213.01 C 106.89 214.07 107.75 214.93 108.81 214.93 Z M 109.77 214.93 L 110.74 214.93 C 111.81 214.93 112.67 214.07 112.67 213.01 C 112.67 211.95 111.81 211.09 110.75 211.09 L 109.77 211.09 C 108.71 211.09 107.85 211.95 107.84 213.01 C 107.84 214.07 108.70 214.93 109.77 214.93 Z M 110.74 214.93 L 111.74 214.94 C 112.80 214.94 113.66 214.08 113.67 213.01 C 113.67 211.95 112.81 211.09 111.74 211.09 L 110.75 211.08 C 109.69 211.08 108.82 211.94 108.82 213.01 C 108.82 214.07 109.68 214.93 110.74 214.93 Z M 111.73 214.94 L 112.74 214.94 C 113.81 214.95 114.67 214.09 114.68 213.02 C 114.68 211.96 113.82 211.09 112.75 211.09 L 111.75 211.08 C 110.68 211.08 109.82 211.94 109.81 213.01 C 109.81 214.07 110.67 214.94 111.73 214.94 Z M 112.74 214.94 L 113.75 214.95 C 114.82 214.96 115.69 214.10 115.69 213.03 C 115.70 211.96 114.84 211.09 113.77 211.09 L 112.76 211.08 C 111.69 211.08 110.82 211.94 110.82 213.01 C 110.81 214.07 111.67 214.94 112.74 214.94 Z M 113.75 214.95 L 114.77 214.96 C 115.84 214.97 116.71 214.11 116.72 213.04 C 116.73 211.97 115.87 211.10 114.80 211.09 L 113.78 211.09 C 112.71 211.08 111.84 211.94 111.83 213.01 C 111.82 214.07 112.68 214.94 113.75 214.95 Z M 114.77 214.96 L 115.79 214.97 C 116.86 214.98 117.73 214.12 117.75 213.06 C 117.76 211.99 116.90 211.11 115.83 211.10 L 114.80 211.09 C 113.74 211.08 112.86 211.94 112.85 213.01 C 112.84 214.08 113.70 214.95 114.77 214.96 Z M 115.79 214.97 L 116.80 214.99 C 117.87 215.00 118.75 214.14 118.77 213.07 C 118.78 212.00 117.92 211.13 116.85 211.11 L 115.83 211.10 C 114.76 211.09 113.89 211.94 113.87 213.01 C 113.86 214.08 114.71 214.96 115.79 214.97 Z M 116.80 214.99 L 117.80 215.01 C 118.87 215.02 119.75 214.17 119.77 213.10 C 119.79 212.03 118.93 211.14 117.86 211.13 L 116.86 211.11 C 115.79 211.09 114.91 211.95 114.89 213.02 C 114.87 214.09 115.72 214.97 116.80 214.99 Z M 117.79 215.01 L 118.78 215.03 C 119.86 215.05 120.75 214.20 120.77 213.13 C 120.79 212.06 119.94 211.17 118.87 211.15 L 117.87 211.12 C 116.80 211.10 115.91 211.95 115.89 213.02 C 115.86 214.10 116.71 214.98 117.79 215.01 Z M 118.77 215.03 L 119.77 215.06 C 120.84 215.09 121.74 214.24 121.77 213.17 C 121.80 212.10 120.95 211.20 119.88 211.17 L 118.88 211.14 C 117.81 211.11 116.91 211.96 116.88 213.03 C 116.85 214.11 117.70 215.00 118.77 215.03 Z M 119.75 215.06 L 120.75 215.10 C 121.82 215.14 122.73 214.30 122.77 213.22 C 122.80 212.15 121.97 211.25 120.89 211.21 L 119.90 211.17 C 118.82 211.13 117.92 211.97 117.88 213.04 C 117.84 214.12 118.68 215.02 119.75 215.06 Z M 120.73 215.10 L 121.73 215.15 C 122.80 215.20 123.71 214.37 123.76 213.29 C 123.81 212.22 122.98 211.30 121.91 211.25 L 120.91 211.21 C 119.84 211.16 118.93 211.99 118.88 213.06 C 118.82 214.14 119.65 215.05 120.73 215.10 Z M 121.70 215.15 L 122.70 215.20 C 123.78 215.27 124.70 214.45 124.76 213.37 C 124.82 212.30 124.00 211.38 122.93 211.31 L 121.93 211.25 C 120.86 211.19 119.93 212.01 119.87 213.09 C 119.81 214.16 120.63 215.08 121.70 215.15 Z M 122.68 215.20 L 123.67 215.28 C 124.75 215.35 125.68 214.54 125.76 213.47 C 125.84 212.39 125.03 211.46 123.95 211.38 L 122.95 211.31 C 121.88 211.23 120.95 212.04 120.87 213.12 C 120.79 214.19 121.60 215.13 122.68 215.20 Z M 123.65 215.28 L 124.65 215.36 C 125.72 215.45 126.67 214.66 126.76 213.58 C 126.85 212.51 126.06 211.56 124.98 211.47 L 123.98 211.38 C 122.91 211.29 121.96 212.09 121.87 213.16 C 121.78 214.24 122.57 215.18 123.65 215.28 Z M 124.62 215.36 L 125.61 215.46 C 126.68 215.57 127.64 214.79 127.75 213.71 C 127.86 212.64 127.07 211.68 126.00 211.57 L 125.01 211.47 C 123.94 211.36 122.98 212.14 122.87 213.22 C 122.76 214.29 123.54 215.25 124.62 215.36 Z M 125.58 215.46 L 126.57 215.57 C 127.64 215.70 128.61 214.93 128.74 213.85 C 128.86 212.78 128.09 211.81 127.02 211.69 L 126.03 211.57 C 124.95 211.45 123.98 212.22 123.86 213.29 C 123.74 214.37 124.50 215.34 125.58 215.46 Z M 126.54 215.57 L 127.53 215.70 C 128.61 215.84 129.59 215.08 129.72 214.01 C 129.86 212.93 129.10 211.95 128.03 211.82 L 127.04 211.69 C 125.97 211.55 124.99 212.31 124.85 213.38 C 124.71 214.45 125.47 215.44 126.54 215.57 Z M 127.51 215.70 L 128.50 215.84 C 129.58 215.98 130.57 215.24 130.72 214.17 C 130.86 213.09 130.12 212.10 129.04 211.95 L 128.05 211.82 C 126.98 211.67 125.99 212.42 125.84 213.49 C 125.69 214.56 126.44 215.55 127.51 215.70 Z M 128.49 215.83 L 129.48 215.98 C 130.55 216.14 131.55 215.40 131.71 214.33 C 131.87 213.26 131.13 212.26 130.06 212.10 L 129.06 211.96 C 127.99 211.80 126.99 212.54 126.84 213.61 C 126.68 214.68 127.42 215.68 128.49 215.83 Z M 129.46 215.98 L 130.45 216.14 C 131.52 216.31 132.53 215.57 132.70 214.50 C 132.86 213.43 132.13 212.43 131.06 212.26 L 130.07 212.10 C 129.00 211.94 128.00 212.67 127.83 213.74 C 127.66 214.81 128.39 215.81 129.46 215.98 Z M 130.44 216.14 L 131.43 216.30 C 132.50 216.47 133.51 215.75 133.69 214.68 C 133.86 213.61 133.14 212.60 132.07 212.42 L 131.08 212.26 C 130.01 212.08 129.00 212.81 128.82 213.88 C 128.64 214.95 129.37 215.96 130.44 216.14 Z M 131.42 216.30 L 132.41 216.47 C 133.48 216.65 134.49 215.93 134.67 214.86 C 134.85 213.79 134.13 212.77 133.06 212.59 L 132.08 212.42 C 131.01 212.24 129.99 212.96 129.81 214.03 C 129.63 215.10 130.35 216.12 131.42 216.30 Z M 132.40 216.47 L 133.39 216.64 C 134.46 216.82 135.48 216.11 135.67 215.04 C 135.85 213.97 135.13 212.95 134.06 212.76 L 133.07 212.59 C 132.00 212.40 130.98 213.12 130.80 214.19 C 130.61 215.26 131.33 216.28 132.40 216.47 Z M 133.38 216.64 L 134.38 216.81 C 135.45 217.00 136.47 216.29 136.66 215.22 C 136.85 214.15 136.13 213.13 135.06 212.94 L 134.07 212.76 C 133.00 212.57 131.98 213.29 131.79 214.36 C 131.60 215.43 132.31 216.45 133.38 216.64 Z M 134.37 216.81 L 135.36 216.99 C 136.43 217.19 137.45 216.48 137.65 215.41 C 137.84 214.34 137.13 213.31 136.06 213.12 L 135.07 212.94 C 134.00 212.75 132.98 213.46 132.78 214.53 C 132.59 215.60 133.30 216.62 134.37 216.81 Z M 135.36 216.99 L 136.34 217.17 C 137.41 217.37 138.44 216.66 138.63 215.59 C 138.83 214.52 138.12 213.50 137.05 213.30 L 136.07 213.12 C 135.00 212.92 133.97 213.63 133.77 214.70 C 133.58 215.77 134.29 216.80 135.36 216.99 Z M 136.34 217.17 L 137.32 217.36 C 138.39 217.56 139.42 216.85 139.62 215.78 C 139.82 214.71 139.11 213.68 138.04 213.48 L 137.06 213.30 C 135.99 213.10 134.96 213.81 134.76 214.88 C 134.56 215.95 135.27 216.98 136.34 217.17 Z M 137.32 217.36 L 138.30 217.54 C 139.37 217.74 140.40 217.04 140.60 215.97 C 140.80 214.90 140.10 213.87 139.02 213.67 L 138.04 213.48 C 136.97 213.28 135.94 213.98 135.74 215.06 C 135.54 216.13 136.25 217.16 137.32 217.36 Z M 138.29 217.54 L 139.27 217.73 C 140.34 217.93 141.37 217.23 141.58 216.16 C 141.78 215.09 141.08 214.05 140.01 213.85 L 139.03 213.66 C 137.96 213.46 136.93 214.17 136.72 215.24 C 136.52 216.31 137.22 217.34 138.29 217.54 Z M 139.27 217.73 L 140.24 217.91 C 141.31 218.12 142.35 217.42 142.55 216.34 C 142.75 215.27 142.05 214.24 140.98 214.04 L 140.01 213.85 C 138.94 213.65 137.90 214.35 137.70 215.42 C 137.49 216.49 138.20 217.52 139.27 217.73 Z M 140.24 217.91 L 141.22 218.10 C 142.29 218.31 143.33 217.61 143.53 216.53 C 143.74 215.46 143.04 214.43 141.96 214.22 L 140.98 214.03 C 139.91 213.83 138.88 214.53 138.67 215.60 C 138.47 216.67 139.17 217.71 140.24 217.91 Z M 141.22 218.10 L 142.22 218.29 C 143.29 218.50 144.32 217.80 144.53 216.73 C 144.73 215.66 144.03 214.62 142.96 214.41 L 141.97 214.22 C 140.89 214.02 139.86 214.72 139.65 215.79 C 139.45 216.86 140.15 217.90 141.22 218.10 Z M 142.21 218.29 L 143.21 218.49 C 144.28 218.69 145.31 217.99 145.52 216.92 C 145.73 215.85 145.03 214.81 143.96 214.61 L 142.96 214.41 C 141.89 214.21 140.86 214.91 140.65 215.98 C 140.44 217.05 141.14 218.09 142.21 218.29 Z M 143.21 218.49 L 144.19 218.68 C 145.26 218.88 146.30 218.19 146.51 217.11 C 146.72 216.04 146.02 215.01 144.95 214.80 L 143.96 214.61 C 142.89 214.40 141.85 215.10 141.64 216.17 C 141.43 217.24 142.13 218.28 143.21 218.49 Z M 144.19 218.68 L 145.18 218.87 C 146.25 219.08 147.28 218.38 147.49 217.31 C 147.70 216.24 147.00 215.20 145.93 214.99 L 144.95 214.80 C 143.88 214.59 142.84 215.29 142.63 216.36 C 142.42 217.43 143.12 218.47 144.19 218.68 Z M 145.17 218.87 L 146.15 219.06 C 147.22 219.27 148.26 218.57 148.47 217.50 C 148.68 216.43 147.98 215.39 146.91 215.18 L 145.93 214.99 C 144.86 214.78 143.82 215.48 143.61 216.55 C 143.40 217.62 144.10 218.66 145.17 218.87 Z M 146.15 219.06 L 147.12 219.25 C 148.19 219.46 149.23 218.77 149.44 217.69 C 149.65 216.62 148.96 215.58 147.89 215.37 L 146.91 215.18 C 145.84 214.97 144.80 215.67 144.59 216.74 C 144.38 217.81 145.08 218.85 146.15 219.06 Z M 147.12 219.25 L 148.09 219.44 C 149.16 219.66 150.20 218.96 150.41 217.89 C 150.62 216.82 149.93 215.78 148.86 215.57 L 147.89 215.37 C 146.82 215.16 145.78 215.86 145.57 216.93 C 145.35 218.00 146.05 219.04 147.12 219.25 Z M 148.08 219.44 L 149.05 219.64 C 150.12 219.85 151.16 219.16 151.37 218.08 C 151.59 217.01 150.89 215.97 149.82 215.76 L 148.86 215.57 C 147.79 215.35 146.75 216.05 146.53 217.12 C 146.32 218.19 147.01 219.23 148.08 219.44 Z M 149.05 219.64 L 150.02 219.83 C 151.09 220.05 152.13 219.35 152.35 218.28 C 152.56 217.21 151.87 216.17 150.80 215.95 L 149.83 215.76 C 148.75 215.54 147.71 216.24 147.50 217.31 C 147.28 218.38 147.98 219.42 149.05 219.64 Z M 150.02 219.83 L 150.99 220.02 C 152.06 220.24 153.10 219.55 153.32 218.48 C 153.53 217.41 152.84 216.36 151.77 216.15 L 150.80 215.95 C 149.73 215.74 148.69 216.43 148.47 217.50 C 148.26 218.57 148.95 219.62 150.02 219.83 Z M 150.99 220.02 L 151.96 220.22 C 153.03 220.43 154.07 219.74 154.29 218.67 C 154.50 217.60 153.80 216.56 152.73 216.34 L 151.77 216.15 C 150.69 215.94 149.65 216.63 149.44 217.70 C 149.23 218.77 149.92 219.81 150.99 220.02 Z M 151.96 220.22 L 152.94 220.41 C 154.01 220.62 155.05 219.93 155.26 218.86 C 155.47 217.79 154.77 216.75 153.70 216.53 L 152.73 216.34 C 151.66 216.13 150.62 216.83 150.41 217.90 C 150.20 218.97 150.89 220.01 151.96 220.22 Z M 152.94 220.41 L 153.92 220.60 C 154.99 220.81 156.03 220.11 156.24 219.04 C 156.45 217.97 155.75 216.93 154.68 216.72 L 153.70 216.53 C 152.63 216.33 151.59 217.03 151.38 218.10 C 151.17 219.17 151.87 220.20 152.94 220.41 Z M 153.93 220.60 L 154.92 220.79 C 155.99 220.99 157.02 220.29 157.23 219.22 C 157.43 218.15 156.73 217.11 155.66 216.91 L 154.67 216.72 C 153.60 216.52 152.56 217.22 152.36 218.29 C 152.16 219.37 152.86 220.40 153.93 220.60 Z M 154.93 220.79 L 155.93 220.98 C 157.00 221.18 158.03 220.47 158.23 219.39 C 158.43 218.32 157.72 217.29 156.65 217.09 L 155.65 216.91 C 154.57 216.71 153.55 217.42 153.35 218.49 C 153.15 219.56 153.86 220.59 154.93 220.79 Z M 155.94 220.98 L 156.94 221.16 C 158.01 221.35 159.04 220.63 159.23 219.56 C 159.42 218.49 158.71 217.46 157.63 217.27 L 156.64 217.09 C 155.56 216.90 154.54 217.62 154.35 218.69 C 154.16 219.76 154.87 220.79 155.94 220.98 Z M 156.95 221.16 L 157.93 221.33 C 159.00 221.51 160.02 220.79 160.21 219.72 C 160.39 218.65 159.67 217.62 158.60 217.44 L 157.62 217.27 C 156.55 217.09 155.53 217.80 155.34 218.88 C 155.16 219.95 155.88 220.97 156.95 221.16 Z M 157.94 221.33 L 158.93 221.49 C 160.00 221.67 161.02 220.95 161.20 219.87 C 161.38 218.80 160.65 217.78 159.58 217.60 L 158.59 217.44 C 157.52 217.26 156.50 217.98 156.32 219.06 C 156.14 220.13 156.87 221.15 157.94 221.33 Z M 158.94 221.49 L 159.93 221.65 C 161.01 221.83 162.02 221.10 162.19 220.02 C 162.37 218.95 161.64 217.94 160.56 217.77 L 159.57 217.61 C 158.49 217.43 157.48 218.16 157.31 219.23 C 157.14 220.31 157.87 221.32 158.94 221.49 Z M 159.94 221.65 L 160.94 221.81 C 162.02 221.98 163.02 221.24 163.19 220.17 C 163.36 219.10 162.63 218.09 161.55 217.92 L 160.55 217.77 C 159.48 217.60 158.47 218.33 158.31 219.40 C 158.14 220.48 158.87 221.48 159.94 221.65 Z M 160.95 221.81 L 161.95 221.96 C 163.02 222.12 164.02 221.39 164.19 220.31 C 164.35 219.24 163.61 218.24 162.54 218.08 L 161.54 217.92 C 160.47 217.76 159.47 218.50 159.31 219.57 C 159.14 220.64 159.88 221.65 160.95 221.81 Z M 161.96 221.96 L 162.95 222.11 C 164.02 222.26 165.02 221.52 165.18 220.45 C 165.34 219.38 164.60 218.38 163.53 218.22 L 162.53 218.08 C 161.46 217.92 160.46 218.66 160.30 219.73 C 160.15 220.80 160.89 221.80 161.96 221.96 Z M 162.96 222.11 L 163.95 222.25 C 165.02 222.40 166.01 221.66 166.16 220.58 C 166.32 219.51 165.57 218.52 164.50 218.36 L 163.52 218.22 C 162.44 218.07 161.45 218.81 161.30 219.89 C 161.14 220.96 161.89 221.95 162.96 222.11 Z M 163.95 222.25 L 164.93 222.38 C 166.00 222.53 166.99 221.78 167.14 220.71 C 167.29 219.64 166.54 218.65 165.47 218.50 L 164.49 218.37 C 163.42 218.22 162.43 218.96 162.28 220.04 C 162.13 221.11 162.88 222.10 163.95 222.25 Z M 164.94 222.38 L 165.95 222.52 C 167.02 222.66 168.01 221.91 168.15 220.84 C 168.29 219.77 167.54 218.78 166.47 218.64 L 165.46 218.50 C 164.39 218.36 163.40 219.11 163.26 220.18 C 163.12 221.25 163.87 222.24 164.94 222.38 Z M 165.96 222.51 L 166.96 222.64 C 168.03 222.78 169.01 222.03 169.15 220.96 C 169.29 219.89 168.53 218.91 167.46 218.77 L 166.46 218.64 C 165.39 218.50 164.41 219.26 164.27 220.33 C 164.14 221.40 164.89 222.38 165.96 222.51 Z M 166.97 222.64 L 167.96 222.76 C 169.03 222.89 170.00 222.13 170.14 221.07 C 170.27 220.00 169.51 219.02 168.44 218.89 L 167.45 218.77 C 166.38 218.64 165.41 219.40 165.27 220.47 C 165.14 221.54 165.90 222.51 166.97 222.64 Z M 167.97 222.76 L 168.96 222.88 C 170.03 223.00 170.99 222.24 171.12 221.17 C 171.24 220.10 170.48 219.13 169.41 219.01 L 168.42 218.89 C 167.36 218.77 166.39 219.53 166.27 220.60 C 166.14 221.67 166.91 222.64 167.97 222.76 Z M 168.97 222.87 L 169.96 222.98 C 171.02 223.10 171.98 222.33 172.10 221.26 C 172.22 220.19 171.45 219.23 170.38 219.12 L 169.40 219.01 C 168.33 218.89 167.37 219.66 167.25 220.73 C 167.14 221.80 167.91 222.76 168.97 222.87 Z M 169.97 222.98 L 170.96 223.08 C 172.02 223.19 172.97 222.41 173.08 221.35 C 173.19 220.28 172.42 219.33 171.35 219.22 L 170.36 219.12 C 169.30 219.01 168.35 219.79 168.24 220.85 C 168.13 221.92 168.90 222.87 169.97 222.98 Z M 170.97 223.08 L 171.96 223.17 C 173.03 223.27 173.97 222.49 174.07 221.42 C 174.17 220.36 173.39 219.41 172.33 219.31 L 171.33 219.22 C 170.27 219.12 169.32 219.90 169.22 220.97 C 169.12 222.03 169.91 222.98 170.97 223.08 Z M 171.98 223.17 L 172.97 223.26 C 174.04 223.35 174.97 222.56 175.07 221.49 C 175.16 220.43 174.37 219.49 173.30 219.40 L 172.31 219.32 C 171.25 219.23 170.31 220.01 170.22 221.08 C 170.13 222.14 170.92 223.08 171.98 223.17 Z M 172.99 223.25 L 173.96 223.33 C 175.02 223.41 175.95 222.62 176.03 221.55 C 176.11 220.49 175.32 219.56 174.26 219.48 L 173.29 219.40 C 172.23 219.32 171.30 220.12 171.21 221.18 C 171.13 222.24 171.93 223.17 172.99 223.25 Z M 173.97 223.33 L 174.95 223.40 C 176.01 223.47 176.93 222.67 177.01 221.61 C 177.08 220.55 176.28 219.63 175.22 219.55 L 174.24 219.48 C 173.18 219.41 172.26 220.21 172.18 221.27 C 172.11 222.33 172.91 223.25 173.97 223.33 Z M 174.96 223.39 L 175.95 223.46 C 177.01 223.53 177.92 222.72 177.99 221.66 C 178.06 220.60 177.26 219.69 176.20 219.62 L 175.21 219.55 C 174.15 219.49 173.23 220.29 173.17 221.35 C 173.10 222.41 173.90 223.32 174.96 223.39 Z M 175.96 223.45 L 176.96 223.51 C 178.02 223.58 178.93 222.77 178.99 221.71 C 179.05 220.65 178.24 219.74 177.18 219.68 L 176.19 219.62 C 175.13 219.56 174.22 220.37 174.16 221.42 C 174.09 222.48 174.90 223.39 175.96 223.45 Z M 176.97 223.51 L 177.97 223.56 C 179.03 223.62 179.93 222.81 179.99 221.75 C 180.05 220.70 179.24 219.79 178.18 219.74 L 177.17 219.68 C 176.12 219.63 175.21 220.44 175.16 221.49 C 175.10 222.55 175.91 223.45 176.97 223.51 Z M 177.98 223.56 L 179.00 223.61 C 180.05 223.66 180.95 222.85 181.00 221.79 C 181.05 220.74 180.24 219.84 179.18 219.79 L 178.17 219.74 C 177.12 219.69 176.22 220.50 176.17 221.56 C 176.11 222.61 176.93 223.51 177.98 223.56 Z M 179.00 223.61 L 180.02 223.65 C 181.08 223.70 181.97 222.88 182.01 221.83 C 182.06 220.78 181.25 219.89 180.19 219.84 L 179.17 219.79 C 178.12 219.75 177.23 220.56 177.18 221.61 C 177.13 222.67 177.95 223.56 179.00 223.61 Z M 180.03 223.65 L 181.05 223.69 C 182.10 223.73 182.99 222.92 183.03 221.87 C 183.08 220.81 182.26 219.93 181.21 219.88 L 180.19 219.84 C 179.13 219.80 178.25 220.62 178.20 221.67 C 178.16 222.72 178.98 223.61 180.03 223.65 Z M 181.06 223.69 L 182.04 223.73 C 183.09 223.77 183.98 222.95 184.02 221.90 C 184.05 220.85 183.24 219.96 182.19 219.92 L 181.20 219.89 C 180.15 219.85 179.27 220.67 179.23 221.72 C 179.19 222.77 180.01 223.65 181.06 223.69 Z M 182.05 223.72 L 183.03 223.76 C 184.08 223.79 184.96 222.97 185.00 221.92 C 185.03 220.88 184.21 220.00 183.16 219.96 L 182.18 219.93 C 181.13 219.89 180.25 220.71 180.22 221.76 C 180.18 222.81 181.00 223.69 182.05 223.72 Z M 183.04 223.75 L 184.03 223.78 C 185.07 223.82 185.95 223.00 185.98 221.95 C 186.01 220.90 185.19 220.03 184.14 220.00 L 183.16 219.96 C 182.11 219.93 181.24 220.75 181.20 221.80 C 181.17 222.85 181.99 223.72 183.04 223.75 Z M 184.03 223.78 L 185.02 223.81 C 186.07 223.84 186.94 223.02 186.97 221.97 C 187.00 220.93 186.18 220.06 185.13 220.03 L 184.14 220.00 C 183.09 219.97 182.22 220.79 182.19 221.84 C 182.17 222.88 182.99 223.75 184.03 223.78 Z M 185.03 223.80 L 186.03 223.83 C 187.07 223.86 187.94 223.03 187.96 221.99 C 187.99 220.95 187.17 220.08 186.12 220.06 L 185.13 220.03 C 184.08 220.00 183.22 220.83 183.19 221.87 C 183.16 222.91 183.99 223.78 185.03 223.80 Z M 186.03 223.83 L 187.04 223.85 C 188.08 223.87 188.94 223.05 188.96 222.01 C 188.99 220.97 188.16 220.11 187.12 220.08 L 186.12 220.06 C 185.08 220.04 184.22 220.86 184.19 221.90 C 184.17 222.94 184.99 223.80 186.03 223.83 Z M 187.04 223.85 L 188.05 223.86 C 189.09 223.88 189.95 223.06 189.97 222.02 C 189.99 220.98 189.16 220.12 188.13 220.11 L 187.12 220.09 C 186.08 220.07 185.22 220.89 185.20 221.93 C 185.18 222.97 186.01 223.83 187.04 223.85 Z M 188.06 223.86 L 189.08 223.88 C 190.12 223.89 190.97 223.07 190.99 222.03 C 191.00 221.00 190.18 220.14 189.14 220.13 L 188.12 220.11 C 187.08 220.09 186.23 220.92 186.21 221.95 C 186.20 222.99 187.02 223.84 188.06 223.86 Z M 189.08 223.87 L 190.10 223.89 C 191.14 223.90 191.98 223.07 192.00 222.04 C 192.01 221.01 191.18 220.16 190.15 220.14 L 189.13 220.13 C 188.10 220.12 187.25 220.94 187.24 221.98 C 187.22 223.01 188.05 223.86 189.08 223.87 Z M 190.11 223.88 L 191.10 223.89 C 192.13 223.90 192.97 223.08 192.98 222.04 C 192.99 221.01 192.17 220.17 191.13 220.16 L 190.15 220.15 C 189.11 220.14 188.27 220.96 188.26 222.00 C 188.25 223.03 189.08 223.87 190.11 223.88 Z M 191.10 223.89 L 192.10 223.89 C 193.12 223.90 193.96 223.08 193.97 222.05 C 193.98 221.02 193.15 220.18 192.13 220.17 L 191.13 220.16 C 190.10 220.16 189.26 220.98 189.25 222.01 C 189.25 223.04 190.07 223.88 191.10 223.89 Z M 192.10 223.89 L 193.10 223.89 C 194.12 223.90 194.96 223.07 194.97 222.05 C 194.97 221.03 194.15 220.19 193.12 220.18 L 192.12 220.18 C 191.10 220.17 190.26 221.00 190.26 222.02 C 190.25 223.05 191.08 223.88 192.10 223.89 Z M 193.10 223.89 L 194.11 223.89 C 195.13 223.90 195.96 223.07 195.96 222.05 C 195.97 221.03 195.14 220.20 194.12 220.19 L 193.12 220.19 C 192.10 220.19 191.27 221.01 191.26 222.03 C 191.26 223.05 192.08 223.88 193.10 223.89 Z M 194.11 223.89 L 195.11 223.89 C 196.13 223.89 196.96 223.07 196.96 222.05 C 196.96 221.03 196.14 220.21 195.12 220.20 L 194.12 220.20 C 193.10 220.20 192.27 221.02 192.27 222.04 C 192.27 223.06 193.09 223.88 194.11 223.89 Z M 195.12 223.88 L 196.12 223.88 C 197.14 223.89 197.96 223.06 197.96 222.05 C 197.96 221.04 197.14 220.21 196.13 220.21 L 195.12 220.21 C 194.11 220.21 193.28 221.03 193.28 222.04 C 193.28 223.06 194.10 223.88 195.12 223.88 Z M 196.12 223.88 L 197.13 223.88 C 198.14 223.88 198.96 223.06 198.96 222.05 C 198.96 221.04 198.14 220.22 197.13 220.22 L 196.13 220.22 C 195.12 220.22 194.30 221.04 194.29 222.05 C 194.29 223.06 195.11 223.88 196.12 223.88 Z M 197.13 223.87 L 198.13 223.87 C 199.14 223.87 199.96 223.06 199.96 222.05 C 199.96 221.04 199.14 220.22 198.13 220.22 L 197.13 220.22 C 196.12 220.22 195.31 221.04 195.31 222.05 C 195.30 223.06 196.12 223.87 197.13 223.87 Z M 198.13 223.87 L 199.13 223.87 C 200.13 223.87 200.95 223.05 200.95 222.05 C 200.95 221.04 200.13 220.23 199.13 220.23 L 198.13 220.23 C 197.13 220.23 196.31 221.04 196.31 222.05 C 196.31 223.05 197.13 223.87 198.13 223.87 Z M 199.13 223.86 L 200.14 223.86 C 201.14 223.86 201.95 223.05 201.95 222.05 C 201.95 221.05 201.14 220.24 200.14 220.24 L 199.13 220.24 C 198.13 220.24 197.32 221.05 197.32 222.05 C 197.32 223.05 198.13 223.86 199.13 223.86 Z M 200.14 223.85 L 201.14 223.85 C 202.13 223.85 202.94 223.04 202.94 222.05 C 202.94 221.05 202.13 220.24 201.14 220.24 L 200.14 220.24 C 199.14 220.24 198.33 221.05 198.33 222.05 C 198.33 223.04 199.14 223.85 200.14 223.85 Z M 201.14 223.84 L 202.13 223.84 C 203.13 223.84 203.93 223.04 203.93 222.05 C 203.93 221.06 203.13 220.25 202.13 220.25 L 201.14 220.25 C 200.14 220.25 199.34 221.06 199.34 222.05 C 199.34 223.04 200.14 223.84 201.14 223.84 Z M 202.13 223.84 L 203.13 223.84 C 204.12 223.84 204.92 223.04 204.92 222.05 C 204.92 221.06 204.12 220.26 203.13 220.26 L 202.13 220.26 C 201.15 220.26 200.35 221.06 200.35 222.05 C 200.35 223.04 201.15 223.84 202.13 223.84 Z M 203.13 223.83 L 204.13 223.83 C 205.11 223.83 205.91 223.03 205.91 222.05 C 205.91 221.06 205.11 220.27 204.13 220.27 L 203.13 220.27 C 202.15 220.27 201.35 221.06 201.35 222.05 C 201.35 223.03 202.15 223.83 203.13 223.83 Z M 204.13 223.82 L 205.12 223.82 C 206.10 223.82 206.90 223.03 206.90 222.05 C 206.90 221.07 206.10 220.27 205.12 220.27 L 204.13 220.27 C 203.15 220.27 202.35 221.07 202.35 222.05 C 202.35 223.03 203.15 223.82 204.13 223.82 Z M 205.12 223.82 L 206.12 223.82 C 207.10 223.82 207.89 223.02 207.89 222.05 C 207.89 221.07 207.10 220.28 206.12 220.28 L 205.12 220.28 C 204.15 220.28 203.36 221.07 203.36 222.05 C 203.36 223.02 204.15 223.82 205.12 223.82 Z M 206.12 223.81 L 207.12 223.81 C 208.10 223.81 208.88 223.02 208.88 222.05 C 208.88 221.08 208.10 220.29 207.12 220.29 L 206.12 220.29 C 205.15 220.29 204.36 221.08 204.36 222.05 C 204.36 223.02 205.15 223.81 206.12 223.81 Z M 207.12 223.80 L 208.14 223.80 C 209.10 223.80 209.89 223.02 209.89 222.05 C 209.89 221.08 209.10 220.30 208.14 220.30 L 207.12 220.30 C 206.16 220.30 205.37 221.08 205.37 222.05 C 205.37 223.02 206.16 223.80 207.12 223.80 Z M 208.14 223.79 L 209.18 223.79 C 210.14 223.79 210.92 223.01 210.92 222.05 C 210.92 221.09 210.14 220.31 209.18 220.31 L 208.14 220.31 C 207.17 220.31 206.39 221.09 206.39 222.05 C 206.39 223.01 207.17 223.79 208.14 223.79 Z M 209.18 223.78 L 210.22 223.78 C 211.17 223.78 211.95 223.01 211.95 222.05 C 211.95 221.09 211.17 220.32 210.22 220.32 L 209.18 220.32 C 208.22 220.32 207.44 221.09 207.44 222.05 C 207.44 223.01 208.22 223.78 209.18 223.78 Z M 210.22 223.77 L 211.25 223.77 C 212.20 223.77 212.98 223.00 212.98 222.05 C 212.98 221.10 212.20 220.33 211.25 220.33 L 210.22 220.33 C 209.27 220.33 208.49 221.10 208.49 222.05 C 208.49 223.00 209.27 223.77 210.22 223.77 Z M 211.25 223.76 L 212.28 223.76 C 213.22 223.76 213.99 222.99 213.99 222.05 C 213.99 221.10 213.22 220.34 212.28 220.34 L 211.25 220.34 C 210.31 220.34 209.54 221.10 209.54 222.05 C 209.54 222.99 210.31 223.76 211.25 223.76 Z M 212.28 223.75 L 213.29 223.75 C 214.23 223.75 214.99 222.99 214.99 222.05 C 214.99 221.11 214.23 220.35 213.29 220.35 L 212.28 220.35 C 211.34 220.35 210.57 221.11 210.57 222.05 C 210.57 222.99 211.34 223.75 212.28 223.75 Z M 213.29 223.74 L 214.28 223.74 C 215.21 223.74 215.97 222.98 215.97 222.05 C 215.97 221.11 215.21 220.36 214.28 220.36 L 213.29 220.36 C 212.35 220.36 211.59 221.11 211.59 222.05 C 211.59 222.98 212.35 223.74 213.29 223.74 Z M 214.28 223.73 L 215.24 223.73 C 216.17 223.73 216.93 222.98 216.93 222.05 C 216.93 221.12 216.17 220.36 215.24 220.36 L 214.28 220.36 C 213.35 220.36 212.59 221.12 212.59 222.05 C 212.59 222.98 213.35 223.73 214.28 223.73 Z M 215.24 223.72 L 216.18 223.72 C 217.10 223.72 217.85 222.97 217.85 222.05 C 217.85 221.12 217.10 220.37 216.18 220.37 L 215.24 220.37 C 214.32 220.37 213.57 221.12 213.57 222.05 C 213.57 222.97 214.32 223.72 215.24 223.72 Z M 216.18 223.71 L 217.20 223.71 C 218.12 223.71 218.86 222.97 218.86 222.05 C 218.86 221.13 218.12 220.38 217.20 220.38 L 216.18 220.38 C 215.26 220.38 214.51 221.13 214.51 222.05 C 214.51 222.97 215.26 223.71 216.18 223.71 Z M 217.20 223.70 L 218.31 223.70 C 219.22 223.70 219.96 222.96 219.96 222.05 C 219.96 221.14 219.22 220.40 218.31 220.40 L 217.20 220.40 C 216.29 220.40 215.55 221.14 215.55 222.05 C 215.55 222.96 216.29 223.70 217.20 223.70 Z M 218.31 223.69 L 219.36 223.69 C 220.26 223.69 221.00 222.96 221.00 222.05 C 221.00 221.14 220.26 220.41 219.36 220.41 L 218.31 220.41 C 217.40 220.41 216.66 221.14 216.66 222.05 C 216.66 222.96 217.40 223.69 218.31 223.69 Z M 219.36 223.68 L 220.36 223.68 C 221.26 223.68 221.99 222.95 221.99 222.05 C 221.99 221.15 221.26 220.42 220.36 220.42 L 219.36 220.42 C 218.46 220.42 217.73 221.15 217.73 222.05 C 217.73 222.95 218.46 223.68 219.36 223.68 Z M 220.36 223.67 L 221.33 223.67 C 222.22 223.67 222.95 222.94 222.95 222.05 C 222.95 221.15 222.22 220.43 221.33 220.43 L 220.36 220.43 C 219.47 220.43 218.74 221.15 218.74 222.05 C 218.74 222.94 219.47 223.67 220.36 223.67 Z M 221.33 223.66 L 222.26 223.66 C 223.14 223.66 223.86 222.94 223.86 222.05 C 223.86 221.16 223.14 220.44 222.26 220.44 L 221.33 220.44 C 220.44 220.44 219.72 221.16 219.72 222.05 C 219.72 222.94 220.44 223.66 221.33 223.66 Z M 222.26 223.65 L 223.16 223.65 C 224.04 223.65 224.76 222.93 224.76 222.05 C 224.76 221.17 224.04 220.45 223.16 220.45 L 222.26 220.45 C 221.37 220.45 220.66 221.17 220.66 222.05 C 220.66 222.93 221.37 223.65 222.26 223.65 Z M 223.16 223.64 L 224.08 223.64 C 224.96 223.64 225.68 222.93 225.68 222.05 C 225.68 221.17 224.96 220.46 224.08 220.46 L 223.16 220.46 C 222.28 220.46 221.57 221.17 221.57 222.05 C 221.57 222.93 222.28 223.64 223.16 223.64 Z M 224.08 223.63 L 225.02 223.63 C 225.90 223.63 226.61 222.92 226.61 222.05 C 226.61 221.17 225.90 220.46 225.02 220.46 L 224.08 220.46 C 223.21 220.46 222.50 221.17 222.50 222.05 C 222.50 222.92 223.21 223.63 224.08 223.63 Z M 225.02 223.63 L 225.96 223.63 C 226.84 223.63 227.55 222.92 227.55 222.05 C 227.55 221.17 226.84 220.47 225.96 220.47 L 225.02 220.47 C 224.15 220.47 223.44 221.17 223.44 222.05 C 223.44 222.92 224.15 223.63 225.02 223.63 Z M 225.96 223.63 L 226.94 223.63 C 227.81 223.63 228.52 222.92 228.52 222.05 C 228.52 221.18 227.81 220.47 226.94 220.47 L 225.96 220.47 C 225.09 220.47 224.39 221.18 224.39 222.05 C 224.39 222.92 225.09 223.63 225.96 223.63 Z M 226.94 223.62 L 227.96 223.62 C 228.83 223.62 229.54 222.92 229.54 222.05 C 229.54 221.18 228.83 220.47 227.96 220.47 L 226.94 220.47 C 226.07 220.47 225.36 221.18 225.36 222.05 C 225.36 222.92 226.07 223.62 226.94 223.62 Z M 227.96 223.62 L 229.05 223.62 C 229.92 223.62 230.62 222.92 230.62 222.05 C 230.62 221.18 229.92 220.48 229.05 220.48 L 227.96 220.48 C 227.09 220.48 226.39 221.18 226.39 222.05 C 226.39 222.92 227.09 223.62 227.96 223.62 Z M 229.05 223.62 L 230.07 223.62 C 230.93 223.62 231.63 222.91 231.63 222.05 C 231.63 221.18 230.93 220.48 230.07 220.48 L 229.05 220.48 C 228.18 220.48 227.48 221.18 227.48 222.05 C 227.48 222.91 228.18 223.62 229.05 223.62 Z M 230.07 223.62 L 230.97 223.62 C 231.83 223.62 232.53 222.91 232.53 222.05 C 232.53 221.18 231.83 220.48 230.97 220.48 L 230.07 220.48 C 229.20 220.48 228.50 221.18 228.50 222.05 C 228.50 222.91 229.20 223.62 230.07 223.62 Z M 230.97 223.61 L 231.91 223.61 C 232.78 223.61 233.48 222.91 233.48 222.05 C 233.48 221.18 232.78 220.48 231.91 220.48 L 230.97 220.48 C 230.10 220.48 229.40 221.18 229.40 222.05 C 229.40 222.91 230.10 223.61 230.97 223.61 Z M 231.91 223.61 L 232.89 223.61 C 233.75 223.61 234.45 222.91 234.45 222.05 C 234.45 221.18 233.75 220.48 232.89 220.48 L 231.91 220.48 C 231.05 220.48 230.35 221.18 230.35 222.05 C 230.35 222.91 231.05 223.61 231.91 223.61 Z M 232.89 223.61 L 233.90 223.61 C 234.76 223.61 235.46 222.91 235.46 222.05 C 235.46 221.18 234.76 220.48 233.90 220.48 L 232.89 220.48 C 232.03 220.48 231.33 221.18 231.33 222.05 C 231.33 222.91 232.03 223.61 232.89 223.61 Z M 233.90 223.61 L 234.93 223.61 C 235.79 223.61 236.49 222.91 236.49 222.05 C 236.49 221.18 235.79 220.48 234.93 220.48 L 233.90 220.48 C 233.03 220.48 232.33 221.18 232.33 222.05 C 232.33 222.91 233.03 223.61 233.90 223.61 Z M 234.93 223.61 L 235.98 223.61 C 236.85 223.61 237.55 222.91 237.55 222.05 C 237.55 221.19 236.85 220.49 235.98 220.49 L 234.93 220.49 C 234.07 220.49 233.37 221.19 233.37 222.05 C 233.37 222.91 234.07 223.61 234.93 223.61 Z M 235.98 223.61 L 237.05 223.61 C 237.91 223.61 238.61 222.91 238.61 222.05 C 238.61 221.19 237.91 220.49 237.05 220.49 L 235.98 220.49 C 235.12 220.49 234.42 221.19 234.42 222.05 C 234.42 222.91 235.12 223.61 235.98 223.61 Z M 237.05 223.61 L 238.12 223.61 C 238.98 223.61 239.68 222.91 239.68 222.05 C 239.68 221.19 238.98 220.49 238.12 220.49 L 237.05 220.49 C 236.18 220.49 235.49 221.19 235.49 222.05 C 235.49 222.91 236.18 223.61 237.05 223.61 Z M 238.12 223.61 L 238.30 223.61 C 239.16 223.61 239.86 222.91 239.86 222.05 C 239.86 221.19 239.16 220.49 238.30 220.49 L 238.12 220.49 C 237.26 220.49 236.56 221.19 236.56 222.05 C 236.56 222.91 237.26 223.61 238.12 223.61 Z"
      fill="black"
      fill-rule="nonzero" /></svg>