<svg xmlns="http://www.w3.org/2000/svg" width="300" height="300" viewBox="0 0 300 300">
<path d="M 111.60 134.55 L 111.95 133.24 C 112.19 132.34 111.65 131.41 110.75 131.18 C 109.85 130.94 108.93 131.48 108.69 132.38 L 108.34 133.69 C 108.10 134.59 108.64 135.51 109.54 135.75 C 110.44 135.99 111.36 135.45 111.60 134.55 Z M 112.00 133.31 L 112.36 132.14 C 112.64 131.21 112.11 130.23 111.18 129.95 C 110.25 129.67 109.27 130.20 108.99 131.13 L 108.64 132.30 C 108.36 133.23 108.88 134.21 109.81 134.49 C 110.74 134.77 111.72 134.24 112.00 133.31 Z M 112.37 132.32 L 112.73 131.43 C 113.11 130.49 112.66 129.42 111.72 129.04 C 110.78 128.66 109.72 129.11 109.34 130.05 L 108.97 130.95 C 108.60 131.88 109.05 132.95 109.98 133.33 C 110.92 133.71 111.99 133.26 112.37 132.32 Z M 112.52 131.92 L 112.90 131.45 C 113.56 130.62 113.42 129.43 112.59 128.77 C 111.77 128.12 110.57 128.26 109.92 129.08 L 109.54 129.56 C 108.89 130.38 109.03 131.58 109.85 132.23 C 110.67 132.88 111.87 132.75 112.52 131.92 Z M 111.10 132.20 L 111.48 132.26 C 112.55 132.43 113.55 131.71 113.73 130.64 C 113.90 129.57 113.17 128.56 112.10 128.39 L 111.72 128.33 C 110.65 128.16 109.65 128.88 109.48 129.95 C 109.30 131.02 110.03 132.03 111.10 132.20 Z M 110.16 131.46 L 110.54 132.00 C 111.17 132.90 112.41 133.12 113.31 132.49 C 114.20 131.86 114.42 130.62 113.79 129.72 L 113.42 129.19 C 112.79 128.29 111.55 128.07 110.65 128.70 C 109.75 129.33 109.53 130.57 110.16 131.46 Z M 110.31 131.62 L 110.68 132.52 C 111.10 133.54 112.27 134.03 113.29 133.61 C 114.31 133.19 114.80 132.03 114.39 131.00 L 114.02 130.11 C 113.60 129.08 112.43 128.59 111.41 129.01 C 110.39 129.43 109.90 130.60 110.31 131.62 Z M 110.60 132.33 L 110.94 133.48 C 111.26 134.55 112.38 135.16 113.45 134.84 C 114.51 134.52 115.12 133.40 114.81 132.34 L 114.47 131.19 C 114.15 130.12 113.03 129.51 111.96 129.83 C 110.89 130.15 110.29 131.27 110.60 132.33 Z M 110.90 133.37 L 111.19 134.66 C 111.45 135.75 112.54 136.43 113.63 136.18 C 114.72 135.93 115.40 134.84 115.15 133.74 L 114.85 132.45 C 114.60 131.36 113.51 130.68 112.42 130.93 C 111.33 131.18 110.65 132.27 110.90 133.37 Z M 111.17 134.57 L 111.36 135.62 C 111.56 136.73 112.63 137.46 113.73 137.26 C 114.84 137.05 115.57 135.99 115.37 134.89 L 115.18 133.83 C 114.97 132.72 113.91 131.99 112.80 132.20 C 111.70 132.40 110.96 133.46 111.17 134.57 Z M 111.35 135.55 L 111.49 136.51 C 111.65 137.62 112.69 138.39 113.80 138.23 C 114.92 138.06 115.69 137.02 115.52 135.91 L 115.38 134.95 C 115.22 133.84 114.18 133.07 113.07 133.24 C 111.95 133.40 111.18 134.44 111.35 135.55 Z M 111.48 136.45 L 111.59 137.41 C 111.73 138.53 112.74 139.33 113.86 139.20 C 114.98 139.07 115.78 138.05 115.65 136.94 L 115.53 135.97 C 115.40 134.85 114.39 134.05 113.27 134.18 C 112.15 134.31 111.35 135.33 111.48 136.45 Z M 111.59 137.36 L 111.68 138.34 C 111.78 139.46 112.77 140.29 113.89 140.19 C 115.02 140.08 115.84 139.09 115.74 137.97 L 115.65 136.99 C 115.55 135.87 114.56 135.04 113.44 135.14 C 112.31 135.24 111.49 136.24 111.59 137.36 Z M 111.67 138.29 L 111.74 139.30 C 111.82 140.42 112.79 141.27 113.92 141.19 C 115.04 141.12 115.89 140.14 115.81 139.02 L 115.74 138.02 C 115.67 136.89 114.69 136.04 113.57 136.12 C 112.45 136.20 111.60 137.17 111.67 138.29 Z M 111.74 139.26 L 111.79 140.29 C 111.85 141.42 112.81 142.28 113.93 142.23 C 115.06 142.17 115.92 141.21 115.87 140.09 L 115.81 139.06 C 115.76 137.93 114.80 137.06 113.68 137.12 C 112.55 137.18 111.68 138.14 111.74 139.26 Z M 111.79 140.26 L 111.83 141.32 C 111.87 142.45 112.81 143.33 113.94 143.29 C 115.07 143.25 115.95 142.30 115.91 141.18 L 115.87 140.12 C 115.83 138.99 114.88 138.11 113.76 138.15 C 112.63 138.19 111.75 139.14 111.79 140.26 Z M 111.83 141.30 L 111.85 142.24 C 111.88 143.37 112.82 144.25 113.95 144.23 C 115.07 144.20 115.96 143.26 115.93 142.13 L 115.91 141.20 C 115.88 140.07 114.94 139.18 113.81 139.21 C 112.69 139.24 111.80 140.18 111.83 141.30 Z M 111.85 142.22 L 111.87 143.18 C 111.89 144.31 112.82 145.21 113.95 145.18 C 115.07 145.16 115.97 144.23 115.95 143.11 L 115.93 142.15 C 115.91 141.02 114.98 140.13 113.85 140.15 C 112.73 140.17 111.83 141.10 111.85 142.22 Z M 111.87 143.17 L 111.88 144.15 C 111.90 145.28 112.82 146.18 113.95 146.17 C 115.07 146.15 115.97 145.23 115.96 144.10 L 115.95 143.12 C 115.94 142.00 115.01 141.09 113.89 141.11 C 112.76 141.12 111.86 142.04 111.87 143.17 Z M 111.88 144.14 L 111.89 145.14 C 111.90 146.27 112.81 147.17 113.94 147.17 C 115.07 147.16 115.97 146.24 115.97 145.12 L 115.96 144.12 C 115.95 142.99 115.04 142.08 113.91 142.09 C 112.78 142.10 111.88 143.01 111.88 144.14 Z M 111.89 145.13 L 111.89 146.15 C 111.89 147.27 112.80 148.18 113.93 148.18 C 115.05 148.18 115.97 147.27 115.97 146.14 L 115.97 145.13 C 115.96 144.00 115.05 143.09 113.93 143.09 C 112.80 143.09 111.89 144.00 111.89 145.13 Z M 111.89 146.14 L 111.89 147.16 C 111.88 148.29 112.79 149.21 113.92 149.21 C 115.04 149.22 115.96 148.31 115.96 147.18 L 115.97 146.15 C 115.97 145.03 115.06 144.11 113.94 144.11 C 112.81 144.10 111.89 145.01 111.89 146.14 Z M 111.89 147.16 L 111.88 148.19 C 111.87 149.32 112.77 150.24 113.90 150.25 C 115.02 150.26 115.94 149.35 115.95 148.23 L 115.96 147.19 C 115.97 146.06 115.07 145.15 113.94 145.14 C 112.82 145.13 111.90 146.03 111.89 147.16 Z M 111.88 148.19 L 111.87 149.22 C 111.85 150.35 112.75 151.27 113.88 151.28 C 115.00 151.30 115.93 150.40 115.94 149.27 L 115.95 148.24 C 115.97 147.11 115.06 146.19 113.94 146.17 C 112.81 146.16 111.89 147.06 111.88 148.19 Z M 111.87 149.22 L 111.85 150.19 C 111.83 151.31 112.73 152.24 113.86 152.26 C 114.98 152.27 115.90 151.38 115.92 150.25 L 115.94 149.28 C 115.96 148.16 115.06 147.23 113.94 147.21 C 112.81 147.20 111.89 148.09 111.87 149.22 Z M 111.85 150.18 L 111.83 151.15 C 111.81 152.28 112.70 153.21 113.82 153.23 C 114.94 153.26 115.87 152.37 115.90 151.24 L 115.92 150.27 C 115.95 149.14 115.06 148.21 113.93 148.19 C 112.81 148.16 111.88 149.05 111.85 150.18 Z M 111.84 151.14 L 111.80 152.12 C 111.77 153.24 112.65 154.18 113.77 154.21 C 114.89 154.25 115.83 153.37 115.87 152.25 L 115.90 151.26 C 115.93 150.14 115.05 149.20 113.93 149.17 C 112.81 149.13 111.87 150.01 111.84 151.14 Z M 111.81 152.10 L 111.76 153.08 C 111.72 154.20 112.59 155.15 113.71 155.20 C 114.83 155.25 115.77 154.38 115.82 153.26 L 115.86 152.27 C 115.91 151.15 115.04 150.20 113.92 150.15 C 112.80 150.11 111.86 150.98 111.81 152.10 Z M 111.77 153.06 L 111.71 154.05 C 111.65 155.17 112.50 156.13 113.62 156.19 C 114.74 156.26 115.70 155.40 115.76 154.29 L 115.82 153.29 C 115.88 152.17 115.03 151.21 113.91 151.15 C 112.79 151.08 111.83 151.94 111.77 153.06 Z M 111.72 154.02 L 111.64 155.02 C 111.56 156.14 112.39 157.11 113.51 157.19 C 114.63 157.28 115.60 156.44 115.68 155.33 L 115.76 154.32 C 115.84 153.20 115.00 152.23 113.89 152.15 C 112.77 152.07 111.80 152.90 111.72 154.02 Z M 111.65 154.98 L 111.55 156.00 C 111.45 157.11 112.26 158.10 113.38 158.20 C 114.49 158.31 115.48 157.49 115.58 156.38 L 115.68 155.36 C 115.78 154.25 114.96 153.26 113.85 153.16 C 112.74 153.05 111.75 153.87 111.65 154.98 Z M 111.56 155.96 L 111.44 156.98 C 111.31 158.09 112.10 159.10 113.21 159.22 C 114.32 159.35 115.33 158.56 115.45 157.45 L 115.57 156.42 C 115.70 155.31 114.91 154.31 113.80 154.18 C 112.69 154.05 111.68 154.85 111.56 155.96 Z M 111.45 156.94 L 111.30 157.97 C 111.15 159.07 111.92 160.09 113.02 160.25 C 114.13 160.40 115.15 159.63 115.30 158.53 L 115.45 157.49 C 115.60 156.39 114.83 155.37 113.73 155.21 C 112.62 155.06 111.60 155.83 111.45 156.94 Z M 111.31 157.92 L 111.14 158.96 C 110.96 160.06 111.71 161.10 112.81 161.28 C 113.91 161.45 114.95 160.71 115.12 159.61 L 115.29 158.57 C 115.47 157.47 114.72 156.44 113.62 156.26 C 112.53 156.08 111.49 156.83 111.31 157.92 Z M 111.15 158.92 L 110.96 159.96 C 110.76 161.05 111.49 162.10 112.58 162.30 C 113.68 162.50 114.73 161.78 114.93 160.68 L 115.11 159.65 C 115.31 158.55 114.59 157.50 113.49 157.30 C 112.40 157.10 111.35 157.83 111.15 158.92 Z M 110.97 159.93 L 110.77 160.95 C 110.55 162.04 111.26 163.10 112.35 163.32 C 113.44 163.54 114.49 162.83 114.71 161.74 L 114.92 160.71 C 115.13 159.63 114.43 158.57 113.34 158.35 C 112.25 158.13 111.19 158.84 110.97 159.93 Z M 110.78 160.92 L 110.56 161.93 C 110.33 163.02 111.02 164.08 112.10 164.32 C 113.18 164.55 114.25 163.86 114.49 162.78 L 114.70 161.77 C 114.94 160.69 114.25 159.62 113.16 159.38 C 112.08 159.15 111.01 159.84 110.78 160.92 Z M 110.57 161.91 L 110.35 162.89 C 110.10 163.97 110.77 165.04 111.85 165.29 C 112.93 165.54 114.01 164.86 114.25 163.78 L 114.48 162.80 C 114.72 161.72 114.05 160.65 112.97 160.40 C 111.89 160.15 110.82 160.83 110.57 161.91 Z M 110.35 162.87 L 110.13 163.81 C 109.87 164.89 110.53 165.97 111.60 166.23 C 112.68 166.49 113.76 165.82 114.02 164.75 L 114.24 163.80 C 114.50 162.73 113.84 161.65 112.77 161.39 C 111.69 161.13 110.61 161.79 110.35 162.87 Z M 110.13 163.79 L 109.91 164.70 C 109.64 165.77 110.29 166.85 111.36 167.12 C 112.43 167.39 113.51 166.74 113.78 165.67 L 114.01 164.77 C 114.28 163.70 113.63 162.61 112.56 162.34 C 111.49 162.08 110.40 162.72 110.13 163.79 Z M 109.91 164.68 L 109.69 165.54 C 109.41 166.60 110.05 167.69 111.11 167.97 C 112.18 168.25 113.27 167.61 113.55 166.55 L 113.77 165.69 C 114.05 164.62 113.41 163.53 112.35 163.25 C 111.28 162.98 110.19 163.61 109.91 164.68 Z M 109.70 165.52 L 109.39 166.65 C 109.10 167.71 109.73 168.80 110.79 169.09 C 111.85 169.38 112.94 168.75 113.23 167.69 L 113.54 166.57 C 113.83 165.51 113.20 164.41 112.14 164.12 C 111.08 163.83 109.99 164.46 109.70 165.52 Z M 109.40 166.63 L 109.11 167.65 C 108.81 168.71 109.42 169.81 110.48 170.11 C 111.53 170.41 112.63 169.79 112.93 168.74 L 113.22 167.71 C 113.52 166.66 112.91 165.56 111.86 165.26 C 110.80 164.96 109.70 165.57 109.40 166.63 Z M 109.12 167.63 L 108.84 168.58 C 108.53 169.63 109.13 170.73 110.18 171.05 C 111.22 171.36 112.33 170.76 112.64 169.71 L 112.92 168.76 C 113.23 167.71 112.63 166.61 111.58 166.30 C 110.53 165.99 109.43 166.58 109.12 167.63 Z M 108.85 168.57 L 108.57 169.47 C 108.25 170.51 108.84 171.61 109.88 171.93 C 110.93 172.25 112.03 171.67 112.35 170.62 L 112.63 169.73 C 112.95 168.68 112.36 167.58 111.32 167.26 C 110.28 166.94 109.17 167.52 108.85 168.57 Z M 108.58 169.45 L 108.31 170.32 C 107.98 171.36 108.56 172.47 109.60 172.80 C 110.64 173.12 111.74 172.54 112.07 171.51 L 112.34 170.64 C 112.67 169.60 112.09 168.49 111.05 168.16 C 110.02 167.84 108.91 168.42 108.58 169.45 Z M 108.32 170.32 L 108.04 171.18 C 107.71 172.22 108.28 173.32 109.32 173.65 C 110.35 173.98 111.46 173.41 111.79 172.37 L 112.06 171.51 C 112.39 170.48 111.82 169.37 110.79 169.04 C 109.75 168.71 108.65 169.28 108.32 170.32 Z M 108.05 171.18 L 107.78 172.01 C 107.45 173.04 108.02 174.15 109.05 174.48 C 110.08 174.81 111.19 174.24 111.52 173.21 L 111.78 172.38 C 112.11 171.34 111.54 170.24 110.51 169.91 C 109.48 169.58 108.38 170.15 108.05 171.18 Z M 107.78 172.00 L 107.51 172.86 C 107.17 173.89 107.74 175.00 108.77 175.33 C 109.79 175.67 110.90 175.10 111.23 174.07 L 111.51 173.21 C 111.85 172.18 111.28 171.08 110.25 170.74 C 109.22 170.41 108.12 170.97 107.78 172.00 Z M 107.51 172.85 L 107.21 173.75 C 106.87 174.77 107.43 175.88 108.45 176.22 C 109.48 176.56 110.59 176.01 110.93 174.98 L 111.23 174.08 C 111.57 173.06 111.01 171.95 109.99 171.61 C 108.96 171.27 107.85 171.82 107.51 172.85 Z M 107.22 173.73 L 106.90 174.68 C 106.55 175.70 107.09 176.81 108.11 177.16 C 109.13 177.51 110.25 176.97 110.60 175.95 L 110.92 175.00 C 111.27 173.98 110.73 172.87 109.71 172.52 C 108.68 172.17 107.57 172.71 107.22 173.73 Z M 106.91 174.66 L 106.55 175.67 C 106.19 176.69 106.72 177.81 107.73 178.17 C 108.75 178.53 109.87 178.00 110.23 176.98 L 110.59 175.97 C 110.95 174.95 110.42 173.84 109.40 173.47 C 108.38 173.11 107.27 173.65 106.91 174.66 Z M 106.56 175.65 L 106.16 176.74 C 105.78 177.75 106.30 178.87 107.31 179.24 C 108.32 179.62 109.44 179.10 109.82 178.09 L 110.22 177.00 C 110.59 175.99 110.07 174.87 109.06 174.50 C 108.05 174.12 106.93 174.64 106.56 175.65 Z M 106.17 176.72 L 105.82 177.63 C 105.44 178.63 105.94 179.76 106.95 180.14 C 107.95 180.52 109.08 180.02 109.46 179.01 L 109.81 178.11 C 110.19 177.10 109.69 175.98 108.68 175.59 C 107.67 175.21 106.55 175.71 106.17 176.72 Z M 105.83 177.61 L 105.49 178.47 C 105.10 179.47 105.60 180.60 106.60 180.99 C 107.60 181.38 108.72 180.89 109.12 179.89 L 109.45 179.03 C 109.84 178.03 109.35 176.90 108.35 176.51 C 107.35 176.12 106.22 176.61 105.83 177.61 Z M 105.50 178.46 L 105.14 179.35 C 104.74 180.35 105.23 181.48 106.22 181.88 C 107.22 182.28 108.35 181.79 108.75 180.80 L 109.11 179.90 C 109.51 178.91 109.02 177.78 108.03 177.38 C 107.03 176.98 105.90 177.46 105.50 178.46 Z M 105.15 179.34 L 104.77 180.26 C 104.37 181.25 104.84 182.38 105.83 182.79 C 106.82 183.19 107.95 182.72 108.36 181.73 L 108.74 180.81 C 109.15 179.82 108.67 178.69 107.68 178.28 C 106.69 177.87 105.56 178.35 105.15 179.34 Z M 104.78 180.24 L 104.39 181.18 C 103.97 182.16 104.43 183.30 105.42 183.72 C 106.40 184.13 107.54 183.67 107.96 182.68 L 108.35 181.75 C 108.77 180.76 108.31 179.63 107.32 179.21 C 106.34 178.79 105.20 179.26 104.78 180.24 Z M 104.40 181.16 L 103.99 182.11 C 103.56 183.09 104.01 184.23 104.99 184.65 C 105.97 185.08 107.11 184.63 107.53 183.65 L 107.95 182.70 C 108.37 181.72 107.92 180.58 106.94 180.16 C 105.96 179.73 104.82 180.18 104.40 181.16 Z M 104.00 182.09 L 103.57 183.05 C 103.14 184.02 103.57 185.16 104.55 185.60 C 105.52 186.03 106.66 185.60 107.10 184.62 L 107.52 183.67 C 107.96 182.69 107.52 181.55 106.55 181.12 C 105.57 180.68 104.43 181.12 104.00 182.09 Z M 103.58 183.03 L 103.14 183.98 C 102.70 184.95 103.12 186.10 104.09 186.54 C 105.06 186.99 106.20 186.56 106.65 185.59 L 107.09 184.64 C 107.53 183.67 107.11 182.53 106.14 182.08 C 105.17 181.64 104.03 182.06 103.58 183.03 Z M 103.16 183.96 L 102.71 184.91 C 102.25 185.87 102.66 187.02 103.62 187.47 C 104.58 187.93 105.73 187.52 106.19 186.56 L 106.63 185.62 C 107.09 184.66 106.68 183.51 105.72 183.05 C 104.76 182.59 103.61 183.00 103.16 183.96 Z M 102.72 184.89 L 102.26 185.82 C 101.79 186.77 102.19 187.92 103.14 188.39 C 104.09 188.86 105.24 188.47 105.71 187.52 L 106.17 186.58 C 106.64 185.63 106.25 184.48 105.29 184.01 C 104.34 183.54 103.19 183.93 102.72 184.89 Z M 102.28 185.80 L 101.81 186.72 C 101.33 187.66 101.70 188.82 102.65 189.30 C 103.59 189.78 104.75 189.40 105.23 188.46 L 105.70 187.54 C 106.18 186.59 105.80 185.44 104.86 184.96 C 103.91 184.48 102.76 184.85 102.28 185.80 Z M 101.82 186.69 L 101.35 187.60 C 100.86 188.53 101.22 189.69 102.15 190.19 C 103.09 190.68 104.25 190.32 104.74 189.38 L 105.22 188.48 C 105.71 187.54 105.35 186.38 104.41 185.89 C 103.47 185.40 102.32 185.76 101.82 186.69 Z M 101.36 187.58 L 100.88 188.46 C 100.38 189.39 100.72 190.56 101.65 191.06 C 102.58 191.57 103.74 191.22 104.25 190.29 L 104.73 189.40 C 105.23 188.47 104.89 187.31 103.96 186.81 C 103.03 186.30 101.87 186.65 101.36 187.58 Z M 100.89 188.45 L 100.41 189.32 C 99.89 190.24 100.22 191.41 101.15 191.92 C 102.07 192.44 103.23 192.11 103.75 191.18 L 104.23 190.31 C 104.75 189.39 104.42 188.22 103.50 187.71 C 102.57 187.19 101.41 187.52 100.89 188.45 Z M 100.42 189.30 L 99.93 190.16 C 99.40 191.08 99.72 192.25 100.63 192.77 C 101.55 193.29 102.72 192.98 103.24 192.06 L 103.73 191.20 C 104.26 190.28 103.94 189.12 103.03 188.59 C 102.11 188.07 100.94 188.39 100.42 189.30 Z M 99.94 190.15 L 99.44 190.99 C 98.91 191.90 99.21 193.07 100.12 193.60 C 101.03 194.14 102.20 193.83 102.73 192.92 L 103.23 192.08 C 103.76 191.17 103.46 190.00 102.55 189.47 C 101.64 188.93 100.47 189.24 99.94 190.15 Z M 99.45 190.98 L 98.95 191.81 C 98.41 192.71 98.70 193.89 99.60 194.43 C 100.51 194.97 101.68 194.68 102.22 193.77 L 102.72 192.94 C 103.26 192.04 102.97 190.87 102.07 190.32 C 101.17 189.78 100.00 190.07 99.45 190.98 Z M 98.96 191.80 L 98.46 192.62 C 97.91 193.52 98.19 194.69 99.09 195.24 C 99.98 195.79 101.15 195.51 101.70 194.61 L 102.21 193.79 C 102.76 192.89 102.48 191.72 101.58 191.17 C 100.69 190.62 99.51 190.90 98.96 191.80 Z M 98.47 192.61 L 97.92 193.48 C 97.37 194.37 97.64 195.54 98.53 196.10 C 99.42 196.66 100.59 196.39 101.15 195.50 L 101.69 194.63 C 102.25 193.74 101.98 192.56 101.09 192.00 C 100.20 191.45 99.03 191.72 98.47 192.61 Z M 97.94 193.46 L 97.38 194.32 C 96.81 195.21 97.07 196.38 97.95 196.95 C 98.83 197.52 100.01 197.26 100.58 196.38 L 101.13 195.51 C 101.70 194.63 101.45 193.45 100.56 192.89 C 99.68 192.32 98.50 192.58 97.94 193.46 Z M 97.40 194.30 L 96.83 195.15 C 96.25 196.02 96.49 197.20 97.37 197.78 C 98.24 198.36 99.42 198.13 100.00 197.25 L 100.56 196.40 C 101.14 195.53 100.90 194.35 100.03 193.77 C 99.16 193.19 97.98 193.43 97.40 194.30 Z M 96.85 195.12 L 96.28 195.95 C 95.69 196.82 95.90 198.00 96.77 198.59 C 97.63 199.19 98.81 198.97 99.41 198.11 L 99.98 197.28 C 100.58 196.41 100.36 195.23 99.49 194.64 C 98.63 194.04 97.45 194.26 96.85 195.12 Z M 96.30 195.92 L 95.72 196.73 C 95.11 197.58 95.30 198.77 96.15 199.38 C 97.00 199.99 98.19 199.80 98.80 198.95 L 99.38 198.14 C 100.00 197.29 99.80 196.10 98.95 195.49 C 98.10 194.88 96.92 195.07 96.30 195.92 Z M 95.75 196.69 L 95.15 197.48 C 94.52 198.31 94.68 199.50 95.52 200.14 C 96.35 200.77 97.55 200.61 98.18 199.77 L 98.77 198.98 C 99.41 198.15 99.24 196.96 98.41 196.33 C 97.57 195.69 96.38 195.86 95.75 196.69 Z M 95.19 197.44 L 94.58 198.20 C 93.92 199.02 94.05 200.21 94.87 200.87 C 95.69 201.52 96.88 201.39 97.53 200.57 L 98.15 199.81 C 98.80 198.99 98.67 197.80 97.85 197.15 C 97.04 196.49 95.84 196.62 95.19 197.44 Z M 94.61 198.16 L 93.99 198.89 C 93.31 199.69 93.40 200.88 94.20 201.56 C 94.99 202.24 96.19 202.15 96.87 201.35 L 97.50 200.62 C 98.18 199.82 98.08 198.62 97.29 197.95 C 96.49 197.27 95.29 197.36 94.61 198.16 Z M 94.03 198.84 L 93.33 199.60 C 92.63 200.37 92.68 201.57 93.45 202.28 C 94.22 202.98 95.42 202.93 96.13 202.16 L 96.82 201.40 C 97.53 200.63 97.48 199.43 96.71 198.73 C 95.94 198.02 94.74 198.07 94.03 198.84 Z M 93.39 199.54 L 92.64 200.29 C 91.90 201.03 91.90 202.23 92.64 202.97 C 93.39 203.71 94.59 203.71 95.33 202.97 L 96.07 202.22 C 96.81 201.48 96.81 200.28 96.07 199.54 C 95.33 198.80 94.13 198.80 93.39 199.54 Z M 92.70 200.23 L 91.93 200.93 C 91.16 201.64 91.11 202.84 91.82 203.62 C 92.52 204.39 93.72 204.44 94.50 203.73 L 95.26 203.03 C 96.04 202.32 96.09 201.12 95.38 200.35 C 94.67 199.58 93.47 199.52 92.70 200.23 Z M 92.00 200.87 L 91.22 201.52 C 90.41 202.19 90.30 203.39 90.97 204.19 C 91.64 205.00 92.84 205.12 93.64 204.45 L 94.43 203.80 C 95.24 203.13 95.35 201.93 94.68 201.12 C 94.01 200.31 92.81 200.20 92.00 200.87 Z M 91.30 201.45 L 90.50 202.05 C 89.66 202.67 89.48 203.86 90.10 204.70 C 90.73 205.55 91.92 205.73 92.76 205.10 L 93.56 204.51 C 94.41 203.89 94.58 202.70 93.96 201.85 C 93.34 201.01 92.15 200.83 91.30 201.45 Z M 90.60 201.98 L 89.79 202.50 C 88.91 203.07 88.65 204.25 89.23 205.13 C 89.80 206.02 90.97 206.27 91.86 205.70 L 92.67 205.17 C 93.55 204.60 93.80 203.42 93.23 202.54 C 92.66 201.66 91.48 201.41 90.60 201.98 Z M 89.90 202.43 L 89.08 202.89 C 88.16 203.40 87.83 204.56 88.34 205.48 C 88.85 206.40 90.01 206.73 90.93 206.22 L 91.74 205.76 C 92.66 205.26 93.00 204.10 92.49 203.18 C 91.98 202.26 90.82 201.92 89.90 202.43 Z M 89.22 202.81 L 88.24 203.25 C 87.28 203.68 86.84 204.81 87.27 205.77 C 87.70 206.73 88.83 207.17 89.80 206.74 L 90.78 206.30 C 91.74 205.87 92.18 204.74 91.75 203.77 C 91.32 202.81 90.19 202.38 89.22 202.81 Z M 88.43 203.15 L 87.12 203.57 C 86.11 203.89 85.55 204.98 85.87 205.99 C 86.19 207.01 87.27 207.57 88.29 207.25 L 89.60 206.83 C 90.62 206.51 91.18 205.42 90.86 204.41 C 90.53 203.39 89.45 202.83 88.43 203.15 Z M 87.36 203.48 L 86.21 203.69 C 85.15 203.88 84.44 204.90 84.63 205.96 C 84.82 207.03 85.84 207.73 86.90 207.54 L 88.05 207.34 C 89.12 207.14 89.83 206.13 89.63 205.06 C 89.44 204.00 88.43 203.29 87.36 203.48 Z M 86.55 203.63 L 85.69 203.63 C 84.59 203.64 83.71 204.53 83.71 205.63 C 83.72 206.73 84.61 207.61 85.71 207.61 L 86.57 207.60 C 87.67 207.60 88.55 206.70 88.54 205.60 C 88.54 204.51 87.64 203.62 86.55 203.63 Z M 86.51 203.77 L 86.07 203.58 C 85.05 203.14 83.86 203.60 83.42 204.62 C 82.97 205.64 83.44 206.83 84.46 207.28 L 84.89 207.47 C 85.91 207.91 87.10 207.45 87.55 206.43 C 87.99 205.41 87.53 204.22 86.51 203.77 Z M 87.23 205.97 L 87.33 205.59 C 87.63 204.50 86.99 203.38 85.91 203.08 C 84.83 202.79 83.71 203.42 83.41 204.51 L 83.30 204.89 C 83.00 205.97 83.64 207.09 84.72 207.39 C 85.81 207.69 86.93 207.05 87.23 205.97 Z M 86.70 206.60 L 87.30 206.08 C 88.16 205.34 88.26 204.05 87.52 203.20 C 86.78 202.34 85.49 202.24 84.64 202.98 L 84.04 203.50 C 83.18 204.24 83.08 205.53 83.82 206.38 C 84.56 207.24 85.85 207.33 86.70 206.60 Z M 87.03 206.29 L 87.98 205.71 C 88.95 205.13 89.27 203.87 88.68 202.90 C 88.10 201.93 86.84 201.61 85.87 202.20 L 84.91 202.77 C 83.94 203.36 83.63 204.62 84.21 205.59 C 84.80 206.56 86.06 206.87 87.03 206.29 Z M 87.81 205.81 L 88.97 205.26 C 90.00 204.77 90.44 203.54 89.95 202.52 C 89.46 201.49 88.23 201.05 87.20 201.54 L 86.04 202.10 C 85.01 202.59 84.58 203.82 85.07 204.84 C 85.56 205.87 86.78 206.30 87.81 205.81 Z M 88.82 205.33 L 89.87 204.93 C 90.94 204.53 91.47 203.33 91.06 202.27 C 90.66 201.20 89.47 200.67 88.40 201.07 L 87.35 201.47 C 86.29 201.88 85.76 203.07 86.16 204.14 C 86.57 205.20 87.76 205.74 88.82 205.33 Z M 89.73 204.98 L 90.56 204.73 C 91.65 204.40 92.27 203.25 91.94 202.16 C 91.61 201.07 90.46 200.45 89.37 200.78 L 88.54 201.03 C 87.45 201.35 86.83 202.51 87.16 203.60 C 87.49 204.69 88.64 205.31 89.73 204.98 Z M 90.44 204.76 L 91.30 204.56 C 92.41 204.30 93.09 203.18 92.83 202.07 C 92.57 200.97 91.45 200.28 90.34 200.54 L 89.49 200.75 C 88.38 201.01 87.69 202.12 87.95 203.23 C 88.22 204.34 89.33 205.03 90.44 204.76 Z M 91.20 204.58 L 92.11 204.41 C 93.23 204.21 93.97 203.13 93.76 202.01 C 93.55 200.89 92.48 200.14 91.36 200.35 L 90.44 200.52 C 89.32 200.73 88.58 201.81 88.79 202.93 C 89.00 204.05 90.07 204.79 91.20 204.58 Z M 92.03 204.43 L 93.02 204.28 C 94.15 204.12 94.93 203.07 94.77 201.94 C 94.60 200.81 93.55 200.03 92.43 200.19 L 91.43 200.34 C 90.31 200.50 89.52 201.55 89.69 202.68 C 89.85 203.81 90.90 204.59 92.03 204.43 Z M 92.97 204.29 L 94.07 204.15 C 95.20 204.02 96.01 202.99 95.87 201.86 C 95.73 200.73 94.71 199.92 93.57 200.06 L 92.48 200.19 C 91.35 200.32 90.54 201.35 90.67 202.48 C 90.81 203.62 91.84 204.42 92.97 204.29 Z M 94.04 204.16 L 95.26 204.03 C 96.40 203.91 97.22 202.89 97.10 201.76 C 96.98 200.62 95.96 199.80 94.83 199.92 L 93.60 200.05 C 92.47 200.17 91.65 201.19 91.77 202.32 C 91.89 203.46 92.90 204.28 94.04 204.16 Z M 95.25 204.03 L 96.21 203.93 C 97.35 203.82 98.17 202.81 98.06 201.67 C 97.95 200.54 96.94 199.71 95.80 199.83 L 94.84 199.92 C 93.71 200.04 92.88 201.05 92.99 202.18 C 93.11 203.32 94.12 204.14 95.25 204.03 Z M 96.21 203.93 L 97.16 203.84 C 98.30 203.73 99.13 202.72 99.02 201.58 C 98.90 200.45 97.89 199.62 96.76 199.73 L 95.81 199.83 C 94.67 199.94 93.84 200.95 93.95 202.08 C 94.06 203.21 95.07 204.04 96.21 203.93 Z M 97.16 203.84 L 98.16 203.74 C 99.29 203.63 100.12 202.63 100.01 201.49 C 99.90 200.36 98.90 199.53 97.76 199.64 L 96.76 199.73 C 95.63 199.84 94.80 200.85 94.91 201.98 C 95.02 203.12 96.02 203.95 97.16 203.84 Z M 98.15 203.74 L 99.18 203.65 C 100.32 203.54 101.15 202.53 101.04 201.40 C 100.94 200.26 99.93 199.43 98.80 199.54 L 97.77 199.64 C 96.63 199.74 95.80 200.75 95.91 201.88 C 96.01 203.02 97.02 203.85 98.15 203.74 Z M 99.18 203.65 L 100.23 203.55 C 101.36 203.44 102.19 202.44 102.09 201.30 C 101.98 200.17 100.98 199.34 99.85 199.44 L 98.80 199.54 C 97.67 199.64 96.83 200.65 96.94 201.78 C 97.04 202.92 98.05 203.75 99.18 203.65 Z M 100.22 203.55 L 101.27 203.45 C 102.41 203.35 103.24 202.34 103.14 201.21 C 103.03 200.08 102.03 199.24 100.90 199.35 L 99.85 199.44 C 98.71 199.55 97.88 200.55 97.98 201.68 C 98.09 202.82 99.09 203.65 100.22 203.55 Z M 101.27 203.45 L 102.31 203.36 C 103.45 203.25 104.28 202.25 104.18 201.12 C 104.08 199.99 103.07 199.15 101.94 199.25 L 100.90 199.35 C 99.77 199.45 98.93 200.45 99.03 201.58 C 99.14 202.72 100.14 203.55 101.27 203.45 Z M 102.31 203.36 L 103.33 203.27 C 104.46 203.16 105.30 202.16 105.20 201.03 C 105.10 199.90 104.10 199.06 102.96 199.16 L 101.94 199.25 C 100.81 199.35 99.97 200.35 100.08 201.49 C 100.18 202.62 101.18 203.46 102.31 203.36 Z M 103.33 203.27 L 104.31 203.18 C 105.44 203.08 106.28 202.08 106.18 200.95 C 106.08 199.81 105.08 198.98 103.95 199.08 L 102.96 199.16 C 101.83 199.26 100.99 200.26 101.09 201.39 C 101.19 202.53 102.19 203.37 103.33 203.27 Z M 104.31 203.18 L 105.24 203.10 C 106.37 203.00 107.21 202.00 107.11 200.87 C 107.01 199.73 106.01 198.90 104.88 198.99 L 103.95 199.08 C 102.82 199.17 101.98 200.17 102.08 201.31 C 102.18 202.44 103.17 203.28 104.31 203.18 Z M 105.24 203.10 L 106.45 202.99 C 107.58 202.89 108.42 201.90 108.32 200.77 C 108.22 199.63 107.23 198.80 106.10 198.89 L 104.88 199.00 C 103.75 199.09 102.91 200.09 103.01 201.22 C 103.11 202.35 104.10 203.19 105.24 203.10 Z M 106.44 202.99 L 107.58 202.89 C 108.71 202.80 109.55 201.80 109.46 200.67 C 109.36 199.54 108.37 198.70 107.24 198.80 L 106.10 198.90 C 104.97 198.99 104.13 199.98 104.23 201.11 C 104.32 202.24 105.31 203.08 106.44 202.99 Z M 107.58 202.89 L 108.62 202.80 C 109.75 202.71 110.59 201.72 110.49 200.59 C 110.40 199.46 109.40 198.62 108.28 198.72 L 107.24 198.80 C 106.11 198.90 105.27 199.89 105.37 201.02 C 105.46 202.15 106.45 202.98 107.58 202.89 Z M 108.62 202.80 L 109.58 202.72 C 110.71 202.62 111.54 201.63 111.45 200.51 C 111.35 199.38 110.36 198.54 109.24 198.64 L 108.28 198.72 C 107.15 198.81 106.31 199.80 106.41 200.93 C 106.50 202.06 107.49 202.89 108.62 202.80 Z M 109.58 202.71 L 110.48 202.64 C 111.61 202.54 112.44 201.55 112.34 200.42 C 112.25 199.30 111.26 198.47 110.13 198.56 L 109.23 198.64 C 108.11 198.74 107.28 199.73 107.37 200.85 C 107.47 201.98 108.46 202.81 109.58 202.71 Z M 110.49 202.63 L 111.35 202.55 C 112.47 202.45 113.30 201.46 113.20 200.34 C 113.10 199.22 112.11 198.39 110.99 198.49 L 110.13 198.57 C 109.01 198.67 108.18 199.66 108.28 200.78 C 108.38 201.90 109.37 202.73 110.49 202.63 Z M 111.36 202.55 L 112.21 202.47 C 113.33 202.36 114.15 201.37 114.05 200.25 C 113.94 199.13 112.95 198.31 111.83 198.42 L 110.98 198.50 C 109.86 198.60 109.04 199.59 109.14 200.71 C 109.25 201.83 110.24 202.65 111.36 202.55 Z M 112.22 202.47 L 113.20 202.37 C 114.32 202.26 115.13 201.26 115.02 200.15 C 114.91 199.03 113.91 198.21 112.80 198.32 L 111.82 198.42 C 110.70 198.53 109.89 199.53 110.00 200.64 C 110.11 201.76 111.11 202.58 112.22 202.47 Z M 113.21 202.36 L 114.19 202.26 C 115.30 202.15 116.11 201.15 116.00 200.04 C 115.88 198.92 114.89 198.11 113.77 198.23 L 112.79 198.33 C 111.68 198.44 110.86 199.44 110.98 200.55 C 111.09 201.67 112.09 202.48 113.21 202.36 Z M 114.19 202.26 L 115.18 202.16 C 116.29 202.04 117.10 201.04 116.98 199.93 C 116.87 198.82 115.87 198.01 114.76 198.13 L 113.77 198.23 C 112.66 198.35 111.85 199.34 111.96 200.46 C 112.08 201.57 113.08 202.38 114.19 202.26 Z M 115.17 202.15 L 116.17 202.05 C 117.28 201.94 118.09 200.94 117.98 199.83 C 117.86 198.72 116.87 197.91 115.76 198.03 L 114.76 198.13 C 113.65 198.24 112.84 199.24 112.95 200.35 C 113.07 201.46 114.06 202.27 115.17 202.15 Z M 116.16 202.05 L 117.17 201.95 C 118.28 201.84 119.09 200.85 118.98 199.74 C 118.87 198.63 117.88 197.82 116.77 197.93 L 115.76 198.03 C 114.65 198.14 113.84 199.13 113.95 200.24 C 114.06 201.35 115.05 202.16 116.16 202.05 Z M 117.16 201.95 L 118.17 201.85 C 119.28 201.75 120.10 200.77 119.99 199.66 C 119.89 198.55 118.91 197.73 117.80 197.84 L 116.79 197.93 C 115.68 198.03 114.86 199.02 114.96 200.13 C 115.07 201.24 116.05 202.05 117.16 201.95 Z M 118.16 201.85 L 119.13 201.77 C 120.23 201.67 121.05 200.70 120.96 199.59 C 120.86 198.48 119.89 197.66 118.78 197.75 L 117.81 197.84 C 116.70 197.93 115.88 198.91 115.98 200.02 C 116.07 201.13 117.05 201.95 118.16 201.85 Z M 119.12 201.77 L 120.10 201.68 C 121.21 201.59 122.03 200.62 121.94 199.51 C 121.85 198.41 120.87 197.58 119.77 197.67 L 118.79 197.76 C 117.68 197.85 116.86 198.82 116.95 199.93 C 117.04 201.03 118.01 201.86 119.12 201.77 Z M 120.10 201.68 L 121.09 201.60 C 122.20 201.51 123.02 200.54 122.93 199.43 C 122.84 198.33 121.87 197.51 120.76 197.60 L 119.77 197.68 C 118.66 197.77 117.84 198.74 117.93 199.84 C 118.02 200.95 118.99 201.77 120.10 201.68 Z M 121.09 201.60 L 122.10 201.51 C 123.20 201.42 124.02 200.45 123.93 199.35 C 123.84 198.24 122.87 197.42 121.76 197.52 L 120.76 197.60 C 119.65 197.69 118.84 198.66 118.93 199.77 C 119.02 200.87 119.99 201.69 121.09 201.60 Z M 122.11 201.51 L 123.12 201.42 C 124.22 201.32 125.04 200.35 124.94 199.25 C 124.84 198.15 123.87 197.33 122.77 197.43 L 121.75 197.52 C 120.65 197.62 119.84 198.59 119.94 199.69 C 120.03 200.79 121.01 201.61 122.11 201.51 Z M 123.14 201.41 L 124.16 201.32 C 125.26 201.21 126.06 200.23 125.96 199.14 C 125.85 198.04 124.87 197.23 123.78 197.34 L 122.75 197.43 C 121.65 197.54 120.85 198.52 120.95 199.61 C 121.06 200.71 122.04 201.52 123.14 201.41 Z M 124.17 201.31 L 125.17 201.21 C 126.26 201.09 127.06 200.11 126.94 199.01 C 126.83 197.92 125.85 197.12 124.75 197.24 L 123.76 197.34 C 122.66 197.46 121.87 198.44 121.98 199.53 C 122.10 200.63 123.08 201.43 124.17 201.31 Z M 125.18 201.20 L 126.18 201.09 C 127.27 200.96 128.05 199.98 127.93 198.88 C 127.81 197.79 126.82 197.01 125.73 197.13 L 124.74 197.24 C 123.64 197.37 122.86 198.35 122.98 199.45 C 123.11 200.54 124.09 201.32 125.18 201.20 Z M 126.19 201.08 L 127.18 200.96 C 128.27 200.83 129.05 199.84 128.92 198.75 C 128.79 197.66 127.80 196.89 126.71 197.02 L 125.71 197.14 C 124.63 197.27 123.85 198.26 123.98 199.35 C 124.11 200.44 125.10 201.21 126.19 201.08 Z M 127.19 200.95 L 128.19 200.83 C 129.27 200.69 130.04 199.70 129.91 198.62 C 129.77 197.53 128.78 196.76 127.69 196.90 L 126.70 197.02 C 125.61 197.16 124.84 198.15 124.98 199.24 C 125.12 200.32 126.11 201.09 127.19 200.95 Z M 128.20 200.82 L 129.19 200.69 C 130.27 200.55 131.04 199.56 130.89 198.48 C 130.75 197.40 129.76 196.63 128.68 196.77 L 127.69 196.90 C 126.60 197.05 125.84 198.04 125.98 199.12 C 126.12 200.20 127.12 200.96 128.20 200.82 Z M 129.20 200.69 L 130.19 200.55 C 131.27 200.41 132.02 199.42 131.88 198.34 C 131.74 197.26 130.75 196.50 129.67 196.65 L 128.67 196.78 C 127.60 196.92 126.84 197.92 126.98 198.99 C 127.13 200.07 128.12 200.83 129.20 200.69 Z M 130.19 200.55 L 131.18 200.41 C 132.26 200.27 133.01 199.28 132.87 198.20 C 132.72 197.13 131.73 196.37 130.66 196.52 L 129.66 196.65 C 128.59 196.80 127.83 197.79 127.98 198.86 C 128.13 199.94 129.12 200.69 130.19 200.55 Z M 131.19 200.41 L 132.19 200.27 C 133.26 200.13 134.01 199.14 133.87 198.07 C 133.72 196.99 132.73 196.24 131.66 196.39 L 130.66 196.52 C 129.58 196.67 128.83 197.66 128.98 198.73 C 129.12 199.80 130.11 200.55 131.19 200.41 Z M 132.19 200.27 L 133.19 200.13 C 134.26 199.98 135.01 199.00 134.86 197.93 C 134.71 196.86 133.73 196.11 132.66 196.26 L 131.66 196.39 C 130.59 196.54 129.84 197.53 129.99 198.59 C 130.13 199.66 131.12 200.41 132.19 200.27 Z M 133.19 200.12 L 134.18 199.99 C 135.25 199.84 135.99 198.86 135.85 197.79 C 135.70 196.72 134.72 195.98 133.65 196.13 L 132.66 196.26 C 131.59 196.41 130.85 197.39 130.99 198.46 C 131.14 199.53 132.12 200.27 133.19 200.12 Z M 134.18 199.98 L 135.17 199.84 C 136.23 199.70 136.98 198.72 136.83 197.65 C 136.68 196.59 135.70 195.85 134.64 195.99 L 133.65 196.13 C 132.59 196.28 131.84 197.26 131.99 198.32 C 132.14 199.39 133.12 200.13 134.18 199.98 Z M 135.17 199.84 L 136.15 199.70 C 137.21 199.56 137.95 198.58 137.81 197.52 C 137.66 196.46 136.68 195.72 135.62 195.86 L 134.64 196.00 C 133.58 196.15 132.84 197.13 132.98 198.19 C 133.13 199.25 134.11 199.99 135.17 199.84 Z M 136.15 199.70 L 137.13 199.56 C 138.19 199.41 138.93 198.44 138.78 197.38 C 138.63 196.32 137.65 195.59 136.60 195.73 L 135.62 195.87 C 134.56 196.02 133.83 196.99 133.97 198.05 C 134.12 199.11 135.10 199.84 136.15 199.70 Z M 137.13 199.55 L 138.03 199.43 C 139.08 199.28 139.81 198.31 139.67 197.25 C 139.52 196.20 138.54 195.46 137.49 195.61 L 136.60 195.74 C 135.54 195.89 134.81 196.86 134.96 197.91 C 135.10 198.97 136.08 199.70 137.13 199.55 Z M 138.03 199.42 L 138.91 199.30 C 139.96 199.15 140.69 198.17 140.54 197.12 C 140.40 196.07 139.42 195.34 138.37 195.49 L 137.49 195.62 C 136.44 195.77 135.71 196.74 135.86 197.79 C 136.01 198.84 136.98 199.57 138.03 199.42 Z M 138.92 199.29 L 139.82 199.16 C 140.87 199.01 141.60 198.04 141.44 196.99 C 141.29 195.94 140.32 195.22 139.28 195.37 L 138.37 195.50 C 137.32 195.65 136.60 196.62 136.75 197.67 C 136.90 198.72 137.87 199.44 138.92 199.29 Z M 139.83 199.15 L 140.77 199.01 C 141.82 198.86 142.54 197.89 142.38 196.85 C 142.23 195.80 141.26 195.08 140.21 195.24 L 139.27 195.38 C 138.23 195.53 137.51 196.50 137.66 197.54 C 137.82 198.59 138.79 199.31 139.83 199.15 Z M 140.78 199.01 L 141.77 198.86 C 142.81 198.70 143.53 197.73 143.37 196.69 C 143.21 195.65 142.24 194.94 141.21 195.09 L 140.21 195.24 C 139.17 195.40 138.46 196.37 138.61 197.41 C 138.77 198.45 139.74 199.16 140.78 199.01 Z M 141.78 198.85 L 142.85 198.68 C 143.88 198.52 144.59 197.55 144.43 196.52 C 144.27 195.48 143.30 194.77 142.26 194.93 L 141.20 195.10 C 140.16 195.26 139.46 196.23 139.62 197.26 C 139.78 198.30 140.75 199.01 141.78 198.85 Z M 142.85 198.68 L 144.00 198.49 C 145.03 198.33 145.73 197.36 145.57 196.33 C 145.40 195.30 144.44 194.60 143.40 194.76 L 142.26 194.94 C 141.23 195.11 140.52 196.07 140.69 197.11 C 140.85 198.14 141.82 198.84 142.85 198.68 Z M 144.00 198.49 L 145.00 198.32 C 146.03 198.16 146.73 197.19 146.56 196.16 C 146.40 195.13 145.43 194.44 144.40 194.60 L 143.40 194.77 C 142.37 194.93 141.67 195.90 141.84 196.93 C 142.01 197.96 142.98 198.65 144.00 198.49 Z M 145.01 198.32 L 145.92 198.17 C 146.95 198.00 147.64 197.03 147.47 196.01 C 147.30 194.98 146.33 194.29 145.31 194.46 L 144.40 194.61 C 143.37 194.78 142.68 195.75 142.85 196.77 C 143.02 197.79 143.98 198.49 145.01 198.32 Z M 145.93 198.16 L 146.88 198.00 C 147.90 197.83 148.59 196.86 148.42 195.84 C 148.25 194.82 147.28 194.13 146.26 194.30 L 145.31 194.46 C 144.28 194.63 143.60 195.60 143.77 196.62 C 143.94 197.64 144.91 198.33 145.93 198.16 Z M 146.88 198.00 L 147.87 197.83 C 148.88 197.66 149.57 196.69 149.40 195.67 C 149.22 194.65 148.26 193.97 147.24 194.14 L 146.26 194.31 C 145.24 194.48 144.55 195.45 144.72 196.47 C 144.90 197.49 145.86 198.17 146.88 198.00 Z M 147.87 197.83 L 148.87 197.65 C 149.89 197.48 150.57 196.51 150.40 195.50 C 150.22 194.48 149.26 193.80 148.24 193.97 L 147.23 194.15 C 146.22 194.32 145.54 195.29 145.71 196.30 C 145.89 197.32 146.85 198.00 147.87 197.83 Z M 148.88 197.65 L 149.90 197.47 C 150.91 197.29 151.59 196.33 151.41 195.31 C 151.23 194.30 150.27 193.62 149.25 193.80 L 148.24 193.98 C 147.22 194.15 146.54 195.12 146.72 196.13 C 146.90 197.15 147.86 197.82 148.88 197.65 Z M 149.90 197.46 L 150.92 197.28 C 151.94 197.10 152.61 196.14 152.43 195.13 C 152.25 194.12 151.29 193.44 150.28 193.62 L 149.25 193.80 C 148.24 193.98 147.57 194.95 147.75 195.96 C 147.92 196.97 148.89 197.64 149.90 197.46 Z M 150.93 197.28 L 151.95 197.09 C 152.96 196.91 153.63 195.95 153.45 194.94 C 153.27 193.93 152.31 193.26 151.30 193.44 L 150.27 193.63 C 149.27 193.81 148.59 194.77 148.78 195.78 C 148.96 196.79 149.92 197.46 150.93 197.28 Z M 151.96 197.09 L 152.97 196.90 C 153.98 196.72 154.64 195.76 154.46 194.75 C 154.28 193.75 153.31 193.08 152.31 193.26 L 151.29 193.45 C 150.29 193.63 149.62 194.60 149.81 195.60 C 149.99 196.61 150.95 197.27 151.96 197.09 Z M 152.98 196.90 L 153.97 196.71 C 154.98 196.53 155.64 195.56 155.45 194.56 C 155.27 193.56 154.30 192.90 153.30 193.08 L 152.30 193.27 C 151.30 193.45 150.64 194.42 150.83 195.42 C 151.01 196.42 151.97 197.08 152.98 196.90 Z M 153.98 196.71 L 154.99 196.52 C 155.98 196.33 156.64 195.37 156.45 194.37 C 156.26 193.37 155.30 192.71 154.30 192.90 L 153.30 193.09 C 152.30 193.28 151.64 194.24 151.83 195.24 C 152.02 196.24 152.98 196.90 153.98 196.71 Z M 154.99 196.51 L 156.02 196.31 C 157.01 196.12 157.66 195.16 157.47 194.17 C 157.28 193.17 156.32 192.52 155.33 192.71 L 154.30 192.91 C 153.31 193.10 152.66 194.06 152.85 195.05 C 153.04 196.05 154.00 196.70 154.99 196.51 Z M 156.02 196.30 L 157.02 196.10 C 158.01 195.91 158.65 194.95 158.46 193.97 C 158.27 192.98 157.31 192.34 156.32 192.53 L 155.32 192.72 C 154.33 192.92 153.69 193.87 153.88 194.86 C 154.08 195.85 155.03 196.49 156.02 196.30 Z M 157.02 196.09 L 158.00 195.90 C 158.98 195.70 159.62 194.75 159.43 193.77 C 159.23 192.79 158.28 192.15 157.30 192.34 L 156.32 192.54 C 155.34 192.73 154.70 193.69 154.89 194.67 C 155.09 195.65 156.04 196.29 157.02 196.09 Z M 158.00 195.89 L 158.97 195.70 C 159.95 195.50 160.58 194.55 160.38 193.57 C 160.19 192.60 159.24 191.97 158.26 192.16 L 157.30 192.35 C 156.32 192.55 155.69 193.50 155.88 194.48 C 156.08 195.45 157.03 196.08 158.00 195.89 Z M 158.97 195.69 L 159.93 195.49 C 160.90 195.30 161.53 194.35 161.33 193.38 C 161.13 192.41 160.19 191.78 159.22 191.98 L 158.26 192.17 C 157.29 192.37 156.66 193.31 156.86 194.28 C 157.05 195.25 158.00 195.88 158.97 195.69 Z M 159.93 195.48 L 160.88 195.29 C 161.85 195.09 162.47 194.15 162.28 193.19 C 162.08 192.22 161.14 191.60 160.17 191.79 L 159.22 191.99 C 158.25 192.18 157.63 193.12 157.83 194.09 C 158.02 195.05 158.96 195.68 159.93 195.48 Z M 160.88 195.28 L 161.84 195.08 C 162.80 194.89 163.42 193.95 163.23 192.99 C 163.03 192.03 162.09 191.41 161.14 191.61 L 160.18 191.80 C 159.22 192.00 158.60 192.93 158.79 193.89 C 158.99 194.85 159.92 195.47 160.88 195.28 Z M 161.84 195.07 L 162.81 194.88 C 163.76 194.69 164.38 193.76 164.19 192.80 C 163.99 191.85 163.06 191.23 162.11 191.42 L 161.14 191.62 C 160.18 191.81 159.57 192.74 159.76 193.70 C 159.95 194.65 160.88 195.27 161.84 195.07 Z M 162.80 194.87 L 163.79 194.67 C 164.74 194.48 165.35 193.56 165.16 192.61 C 164.97 191.66 164.05 191.04 163.10 191.23 L 162.11 191.43 C 161.16 191.62 160.55 192.55 160.74 193.50 C 160.93 194.44 161.85 195.06 162.80 194.87 Z M 163.78 194.66 L 164.77 194.47 C 165.72 194.28 166.33 193.36 166.14 192.42 C 165.95 191.47 165.04 190.86 164.09 191.04 L 163.10 191.24 C 162.16 191.43 161.54 192.35 161.73 193.29 C 161.92 194.24 162.84 194.85 163.78 194.66 Z M 164.77 194.46 L 165.77 194.26 C 166.71 194.08 167.32 193.16 167.14 192.22 C 166.95 191.28 166.04 190.67 165.10 190.85 L 164.09 191.05 C 163.15 191.24 162.54 192.15 162.73 193.09 C 162.91 194.03 163.83 194.65 164.77 194.46 Z M 165.77 194.25 L 166.78 194.06 C 167.71 193.87 168.32 192.96 168.14 192.03 C 167.96 191.09 167.05 190.48 166.11 190.66 L 165.10 190.86 C 164.16 191.05 163.55 191.95 163.74 192.89 C 163.92 193.83 164.83 194.44 165.77 194.25 Z M 166.77 194.05 L 167.79 193.85 C 168.72 193.67 169.33 192.76 169.15 191.83 C 168.96 190.90 168.06 190.29 167.13 190.47 L 166.11 190.67 C 165.18 190.85 164.57 191.76 164.76 192.69 C 164.94 193.62 165.84 194.23 166.77 194.05 Z M 167.78 193.84 L 168.79 193.65 C 169.72 193.47 170.33 192.57 170.15 191.64 C 169.97 190.71 169.07 190.10 168.14 190.28 L 167.13 190.48 C 166.20 190.66 165.60 191.56 165.78 192.49 C 165.96 193.42 166.86 194.02 167.78 193.84 Z M 168.79 193.64 L 169.79 193.45 C 170.71 193.27 171.32 192.37 171.14 191.45 C 170.96 190.52 170.06 189.92 169.14 190.10 L 168.14 190.29 C 167.22 190.47 166.61 191.37 166.79 192.29 C 166.97 193.21 167.87 193.82 168.79 193.64 Z M 169.79 193.44 L 170.77 193.25 C 171.69 193.07 172.29 192.18 172.11 191.26 C 171.93 190.34 171.04 189.74 170.12 189.92 L 169.14 190.11 C 168.22 190.28 167.62 191.17 167.80 192.09 C 167.98 193.02 168.87 193.62 169.79 193.44 Z M 170.77 193.24 L 171.72 193.06 C 172.64 192.88 173.24 191.99 173.06 191.08 C 172.88 190.16 171.99 189.56 171.08 189.74 L 170.12 189.92 C 169.21 190.10 168.61 190.99 168.79 191.90 C 168.96 192.82 169.85 193.42 170.77 193.24 Z M 171.72 193.05 L 172.65 192.87 C 173.56 192.69 174.15 191.81 173.98 190.90 C 173.80 189.98 172.92 189.39 172.01 189.57 L 171.08 189.75 C 170.17 189.92 169.57 190.81 169.75 191.72 C 169.93 192.63 170.81 193.22 171.72 193.05 Z M 172.65 192.86 L 173.64 192.67 C 174.55 192.49 175.14 191.61 174.97 190.70 C 174.79 189.80 173.91 189.20 173.00 189.38 L 172.01 189.57 C 171.10 189.75 170.51 190.63 170.68 191.54 C 170.86 192.44 171.74 193.04 172.65 192.86 Z M 173.64 192.65 L 174.73 192.44 C 175.64 192.26 176.22 191.39 176.05 190.49 C 175.87 189.59 175.00 189.00 174.09 189.18 L 173.00 189.39 C 172.10 189.57 171.51 190.44 171.69 191.34 C 171.87 192.24 172.74 192.83 173.64 192.65 Z M 174.73 192.43 L 175.77 192.23 C 176.66 192.05 177.25 191.18 177.07 190.29 C 176.90 189.39 176.03 188.81 175.13 188.98 L 174.10 189.19 C 173.20 189.36 172.62 190.23 172.79 191.13 C 172.97 192.02 173.84 192.61 174.73 192.43 Z M 175.77 192.22 L 176.76 192.02 C 177.65 191.84 178.23 190.98 178.05 190.09 C 177.87 189.20 177.01 188.62 176.12 188.80 L 175.13 188.99 C 174.24 189.17 173.66 190.03 173.84 190.92 C 174.02 191.81 174.88 192.39 175.77 192.22 Z M 176.76 192.01 L 177.71 191.82 C 178.59 191.64 179.17 190.79 178.99 189.90 C 178.82 189.02 177.96 188.45 177.07 188.62 L 176.12 188.81 C 175.24 188.99 174.66 189.84 174.84 190.73 C 175.02 191.61 175.87 192.18 176.76 192.01 Z M 177.71 191.81 L 178.63 191.62 C 179.51 191.45 180.08 190.60 179.91 189.72 C 179.73 188.84 178.88 188.27 178.00 188.45 L 177.08 188.63 C 176.20 188.81 175.63 189.66 175.80 190.54 C 175.98 191.41 176.83 191.98 177.71 191.81 Z M 178.63 191.61 L 179.54 191.43 C 180.41 191.26 180.98 190.41 180.80 189.54 C 180.63 188.67 179.78 188.10 178.91 188.28 L 178.00 188.46 C 177.13 188.63 176.57 189.48 176.74 190.35 C 176.91 191.22 177.76 191.79 178.63 191.61 Z M 179.54 191.42 L 180.40 191.25 C 181.27 191.08 181.83 190.23 181.65 189.37 C 181.48 188.50 180.64 187.94 179.77 188.12 L 178.91 188.29 C 178.04 188.46 177.48 189.30 177.66 190.17 C 177.83 191.03 178.67 191.60 179.54 191.42 Z"
      fill="black"
      fill-rule="nonzero" /><path d="M 195.23 141.10 L 194.98 139.67 C 194.82 138.73 193.93 138.10 193.00 138.26 C 192.06 138.42 191.43 139.31 191.59 140.25 L 191.84 141.69 C 192.00 142.62 192.89 143.25 193.83 143.09 C 194.76 142.93 195.39 142.04 195.23 141.10 Z M 195.03 139.65 L 194.79 138.29 C 194.62 137.33 193.70 136.68 192.74 136.86 C 191.78 137.03 191.13 137.95 191.31 138.91 L 191.55 140.27 C 191.72 141.23 192.64 141.87 193.60 141.70 C 194.56 141.53 195.20 140.61 195.03 139.65 Z M 194.83 138.25 L 194.60 137.05 C 194.41 136.07 193.46 135.42 192.47 135.61 C 191.49 135.80 190.84 136.75 191.03 137.74 L 191.26 138.94 C 191.45 139.93 192.40 140.57 193.39 140.38 C 194.38 140.19 195.02 139.24 194.83 138.25 Z M 194.64 136.99 L 194.43 136.03 C 194.20 135.02 193.20 134.39 192.20 134.61 C 191.19 134.84 190.56 135.83 190.78 136.84 L 190.99 137.80 C 191.22 138.81 192.22 139.45 193.22 139.22 C 194.23 139.00 194.87 138.00 194.64 136.99 Z M 194.44 135.89 L 194.25 135.24 C 193.95 134.23 192.88 133.65 191.86 133.95 C 190.85 134.26 190.27 135.33 190.57 136.34 L 190.77 136.98 C 191.07 138.00 192.14 138.58 193.15 138.27 C 194.17 137.97 194.74 136.90 194.44 135.89 Z M 194.05 134.70 L 193.88 134.45 C 193.28 133.55 192.06 133.31 191.15 133.91 C 190.25 134.51 190.01 135.74 190.61 136.64 L 190.78 136.89 C 191.38 137.79 192.60 138.03 193.50 137.43 C 194.41 136.82 194.65 135.60 194.05 134.70 Z M 190.58 134.45 L 190.45 134.64 C 189.84 135.56 190.10 136.80 191.02 137.40 C 191.94 138.01 193.18 137.76 193.79 136.83 L 193.92 136.65 C 194.52 135.72 194.27 134.48 193.35 133.88 C 192.42 133.27 191.18 133.52 190.58 134.45 Z M 190.14 135.40 L 190.05 135.95 C 189.86 137.05 190.60 138.08 191.69 138.27 C 192.79 138.45 193.82 137.72 194.01 136.62 L 194.10 136.07 C 194.29 134.98 193.55 133.94 192.46 133.75 C 191.36 133.57 190.33 134.30 190.14 135.40 Z M 190.02 136.13 L 189.95 136.98 C 189.87 138.09 190.69 139.06 191.80 139.15 C 192.91 139.23 193.88 138.41 193.97 137.30 L 194.04 136.44 C 194.12 135.33 193.29 134.36 192.18 134.28 C 191.08 134.19 190.11 135.02 190.02 136.13 Z M 189.94 137.06 L 189.90 138.15 C 189.86 139.26 190.73 140.20 191.85 140.24 C 192.96 140.28 193.90 139.41 193.94 138.30 L 193.98 137.21 C 194.02 136.10 193.15 135.16 192.04 135.12 C 190.92 135.08 189.98 135.95 189.94 137.06 Z M 189.89 138.20 L 189.88 139.45 C 189.87 140.57 190.77 141.49 191.89 141.50 C 193.00 141.52 193.92 140.62 193.93 139.50 L 193.95 138.25 C 193.96 137.13 193.06 136.21 191.94 136.20 C 190.82 136.18 189.91 137.08 189.89 138.20 Z M 189.87 139.49 L 189.89 140.85 C 189.90 141.97 190.81 142.87 191.94 142.87 C 193.06 142.86 193.96 141.94 193.95 140.82 L 193.94 139.46 C 193.93 138.34 193.01 137.43 191.89 137.44 C 190.77 137.45 189.87 138.37 189.87 139.49 Z M 189.88 140.88 L 189.92 142.28 C 189.95 143.41 190.88 144.29 192.01 144.27 C 193.13 144.24 194.02 143.30 193.99 142.18 L 193.96 140.78 C 193.93 139.65 192.99 138.77 191.87 138.79 C 190.74 138.82 189.85 139.76 189.88 140.88 Z M 189.92 142.31 L 189.96 143.34 C 190.00 144.46 190.95 145.34 192.08 145.29 C 193.21 145.25 194.08 144.30 194.04 143.17 L 193.99 142.15 C 193.95 141.02 193.00 140.14 191.87 140.19 C 190.75 140.23 189.87 141.18 189.92 142.31 Z M 189.96 143.36 L 190.01 144.36 C 190.07 145.49 191.03 146.35 192.15 146.29 C 193.28 146.24 194.14 145.28 194.08 144.15 L 194.03 143.15 C 193.97 142.03 193.01 141.16 191.89 141.22 C 190.77 141.28 189.90 142.24 189.96 143.36 Z M 190.02 144.38 L 190.08 145.38 C 190.15 146.50 191.11 147.35 192.24 147.28 C 193.36 147.22 194.21 146.25 194.14 145.13 L 194.08 144.13 C 194.01 143.01 193.05 142.16 191.92 142.23 C 190.80 142.30 189.95 143.26 190.02 144.38 Z M 190.08 145.39 L 190.15 146.38 C 190.23 147.50 191.20 148.35 192.32 148.27 C 193.44 148.19 194.28 147.22 194.21 146.10 L 194.14 145.11 C 194.06 143.99 193.09 143.15 191.97 143.22 C 190.85 143.30 190.00 144.27 190.08 145.39 Z M 190.15 146.39 L 190.23 147.38 C 190.31 148.50 191.28 149.34 192.40 149.25 C 193.52 149.17 194.36 148.19 194.28 147.08 L 194.20 146.09 C 194.12 144.97 193.15 144.13 192.03 144.21 C 190.91 144.30 190.07 145.27 190.15 146.39 Z M 190.23 147.38 L 190.30 148.37 C 190.39 149.49 191.37 150.32 192.49 150.24 C 193.60 150.15 194.44 149.17 194.35 148.06 L 194.28 147.07 C 194.19 145.95 193.21 145.12 192.09 145.20 C 190.98 145.29 190.14 146.27 190.23 147.38 Z M 190.31 148.37 L 190.38 149.36 C 190.47 150.48 191.45 151.31 192.57 151.23 C 193.68 151.14 194.52 150.16 194.43 149.05 L 194.35 148.05 C 194.26 146.94 193.29 146.10 192.17 146.19 C 191.05 146.28 190.22 147.26 190.31 148.37 Z M 190.39 149.36 L 190.46 150.36 C 190.55 151.47 191.52 152.31 192.64 152.22 C 193.75 152.14 194.59 151.16 194.50 150.05 L 194.43 149.05 C 194.34 147.93 193.37 147.10 192.25 147.19 C 191.13 147.27 190.30 148.25 190.39 149.36 Z M 190.47 150.35 L 190.54 151.36 C 190.62 152.48 191.59 153.31 192.71 153.23 C 193.82 153.15 194.66 152.18 194.58 151.06 L 194.50 150.05 C 194.42 148.94 193.45 148.10 192.33 148.19 C 191.22 148.27 190.38 149.24 190.47 150.35 Z M 190.54 151.35 L 190.61 152.38 C 190.69 153.49 191.65 154.33 192.77 154.25 C 193.88 154.18 194.72 153.21 194.64 152.10 L 194.57 151.07 C 194.50 149.96 193.53 149.12 192.42 149.20 C 191.31 149.27 190.47 150.24 190.54 151.35 Z M 190.62 152.37 L 190.68 153.40 C 190.75 154.51 191.71 155.36 192.82 155.29 C 193.93 155.22 194.78 154.26 194.71 153.15 L 194.64 152.11 C 194.57 151.00 193.61 150.15 192.50 150.22 C 191.39 150.30 190.55 151.25 190.62 152.37 Z M 190.68 153.39 L 190.74 154.43 C 190.81 155.54 191.76 156.39 192.87 156.32 C 193.98 156.26 194.83 155.31 194.76 154.20 L 194.70 153.16 C 194.64 152.05 193.69 151.20 192.58 151.26 C 191.47 151.33 190.62 152.28 190.68 153.39 Z M 190.75 154.42 L 190.80 155.46 C 190.86 156.57 191.81 157.42 192.92 157.36 C 194.03 157.30 194.88 156.35 194.82 155.24 L 194.76 154.20 C 194.70 153.10 193.75 152.25 192.65 152.31 C 191.54 152.37 190.69 153.31 190.75 154.42 Z M 190.81 155.45 L 190.86 156.48 C 190.92 157.59 191.86 158.44 192.97 158.38 C 194.07 158.33 194.92 157.38 194.87 156.28 L 194.82 155.25 C 194.76 154.14 193.82 153.29 192.71 153.35 C 191.60 153.40 190.75 154.35 190.81 155.45 Z M 190.86 156.48 L 190.91 157.49 C 190.96 158.59 191.90 159.45 193.01 159.39 C 194.11 159.34 194.97 158.40 194.91 157.30 L 194.86 156.28 C 194.81 155.18 193.87 154.33 192.77 154.38 C 191.66 154.43 190.81 155.37 190.86 156.48 Z M 190.91 157.48 L 190.96 158.47 C 191.01 159.58 191.94 160.43 193.05 160.38 C 194.15 160.33 195.00 159.40 194.95 158.29 L 194.91 157.30 C 194.86 156.20 193.92 155.35 192.82 155.40 C 191.72 155.45 190.86 156.38 190.91 157.48 Z M 190.96 158.47 L 191.00 159.43 C 191.05 160.53 191.98 161.39 193.08 161.34 C 194.19 161.29 195.04 160.36 194.99 159.26 L 194.95 158.30 C 194.90 157.20 193.97 156.34 192.87 156.39 C 191.77 156.44 190.92 157.37 190.96 158.47 Z M 191.01 159.43 L 191.05 160.35 C 191.09 161.45 192.02 162.31 193.12 162.26 C 194.22 162.21 195.07 161.29 195.03 160.19 L 194.99 159.26 C 194.94 158.16 194.01 157.31 192.92 157.35 C 191.82 157.40 190.96 158.33 191.01 159.43 Z M 191.05 160.35 L 191.09 161.37 C 191.14 162.46 192.06 163.32 193.16 163.27 C 194.26 163.23 195.11 162.30 195.06 161.21 L 195.02 160.19 C 194.98 159.09 194.05 158.24 192.96 158.28 C 191.86 158.33 191.01 159.25 191.05 160.35 Z M 191.10 161.36 L 191.14 162.50 C 191.19 163.60 192.11 164.45 193.20 164.40 C 194.30 164.36 195.15 163.44 195.10 162.35 L 195.06 161.21 C 195.01 160.11 194.09 159.26 193.00 159.31 C 191.91 159.35 191.06 160.27 191.10 161.36 Z M 191.15 162.50 L 191.19 163.57 C 191.24 164.65 192.15 165.50 193.24 165.46 C 194.33 165.42 195.18 164.50 195.14 163.41 L 195.10 162.35 C 195.05 161.26 194.14 160.41 193.05 160.45 C 191.96 160.49 191.11 161.41 191.15 162.50 Z M 191.20 163.56 L 191.24 164.57 C 191.28 165.65 192.19 166.50 193.28 166.46 C 194.36 166.42 195.21 165.50 195.17 164.42 L 195.13 163.41 C 195.09 162.33 194.17 161.48 193.09 161.53 C 192.01 161.57 191.16 162.48 191.20 163.56 Z M 191.25 164.57 L 191.28 165.52 C 191.32 166.60 192.23 167.44 193.31 167.40 C 194.39 167.36 195.24 166.45 195.19 165.37 L 195.16 164.42 C 195.12 163.34 194.21 162.50 193.13 162.54 C 192.05 162.58 191.21 163.49 191.25 164.57 Z M 191.29 165.52 L 191.32 166.43 C 191.36 167.51 192.27 168.35 193.34 168.31 C 194.42 168.27 195.26 167.36 195.22 166.29 L 195.19 165.37 C 195.15 164.30 194.24 163.46 193.17 163.50 C 192.09 163.54 191.25 164.44 191.29 165.52 Z M 191.33 166.43 L 191.36 167.32 C 191.41 168.39 192.31 169.22 193.38 169.18 C 194.45 169.14 195.29 168.24 195.25 167.17 L 195.21 166.29 C 195.17 165.21 194.27 164.38 193.20 164.42 C 192.13 164.46 191.29 165.36 191.33 166.43 Z M 191.37 167.32 L 191.41 168.29 C 191.45 169.36 192.35 170.19 193.42 170.15 C 194.48 170.11 195.32 169.21 195.28 168.15 L 195.24 167.17 C 195.20 166.10 194.30 165.27 193.23 165.31 C 192.16 165.35 191.33 166.25 191.37 167.32 Z M 191.42 168.29 L 191.45 169.30 C 191.49 170.37 192.39 171.20 193.45 171.16 C 194.52 171.12 195.35 170.22 195.31 169.16 L 195.27 168.15 C 195.23 167.08 194.33 166.25 193.27 166.29 C 192.21 166.33 191.38 167.23 191.42 168.29 Z M 191.46 169.30 L 191.50 170.30 C 191.53 171.36 192.42 172.19 193.49 172.15 C 194.55 172.11 195.38 171.22 195.34 170.16 L 195.30 169.16 C 195.26 168.10 194.37 167.27 193.31 167.31 C 192.25 167.35 191.42 168.24 191.46 169.30 Z M 191.50 170.29 L 191.53 171.28 C 191.57 172.34 192.45 173.17 193.51 173.13 C 194.57 173.10 195.40 172.21 195.36 171.16 L 195.33 170.17 C 195.30 169.11 194.41 168.28 193.35 168.31 C 192.30 168.35 191.47 169.23 191.50 170.29 Z M 191.54 171.27 L 191.57 172.26 C 191.60 173.32 192.48 174.15 193.53 174.12 C 194.59 174.09 195.42 173.21 195.39 172.15 L 195.36 171.17 C 195.33 170.11 194.45 169.28 193.39 169.31 C 192.34 169.34 191.51 170.22 191.54 171.27 Z M 191.57 172.25 L 191.60 173.24 C 191.62 174.29 192.49 175.13 193.54 175.10 C 194.59 175.08 195.43 174.21 195.40 173.16 L 195.38 172.16 C 195.36 171.11 194.49 170.28 193.43 170.30 C 192.38 170.33 191.55 171.20 191.57 172.25 Z M 191.60 173.23 L 191.62 174.22 C 191.64 175.27 192.50 176.10 193.55 176.09 C 194.59 176.07 195.43 175.21 195.41 174.16 L 195.40 173.17 C 195.38 172.12 194.52 171.28 193.47 171.30 C 192.42 171.32 191.59 172.18 191.60 173.23 Z M 191.63 174.21 L 191.64 175.20 C 191.65 176.25 192.50 177.09 193.55 177.07 C 194.59 177.06 195.43 176.21 195.42 175.16 L 195.41 174.17 C 195.39 173.13 194.54 172.29 193.50 172.30 C 192.45 172.31 191.62 173.17 191.63 174.21 Z M 191.64 175.20 L 191.65 176.20 C 191.66 177.24 192.50 178.07 193.54 178.07 C 194.58 178.06 195.42 177.21 195.41 176.17 L 195.41 175.17 C 195.40 174.13 194.55 173.30 193.52 173.30 C 192.48 173.31 191.64 174.16 191.64 175.20 Z M 191.66 176.19 L 191.66 177.19 C 191.66 178.23 192.51 179.07 193.54 179.06 C 194.58 179.06 195.41 178.22 195.41 177.18 L 195.41 176.18 C 195.40 175.14 194.56 174.31 193.53 174.31 C 192.49 174.31 191.66 175.16 191.66 176.19 Z M 191.67 177.19 L 191.67 178.20 C 191.67 179.23 192.51 180.06 193.54 180.06 C 194.57 180.06 195.40 179.22 195.40 178.19 L 195.40 177.19 C 195.40 176.16 194.56 175.32 193.53 175.32 C 192.50 175.32 191.67 176.16 191.67 177.19 Z M 191.68 178.19 L 191.68 179.20 C 191.68 180.23 192.51 181.06 193.54 181.06 C 194.56 181.06 195.40 180.23 195.40 179.20 L 195.40 178.19 C 195.40 177.17 194.56 176.33 193.54 176.33 C 192.51 176.33 191.68 177.17 191.68 178.19 Z M 191.69 179.20 L 191.69 180.20 C 191.69 181.22 192.51 182.05 193.54 182.05 C 194.56 182.05 195.39 181.22 195.39 180.20 L 195.39 179.20 C 195.39 178.18 194.56 177.35 193.54 177.35 C 192.51 177.35 191.69 178.18 191.69 179.20 Z M 191.69 180.20 L 191.69 181.20 C 191.69 182.22 192.52 183.04 193.54 183.04 C 194.55 183.04 195.38 182.22 195.38 181.20 L 195.38 180.20 C 195.38 179.18 194.55 178.36 193.54 178.36 C 192.52 178.36 191.69 179.18 191.69 180.20 Z M 191.70 181.20 L 191.70 182.20 C 191.70 183.21 192.52 184.03 193.54 184.03 C 194.55 184.03 195.37 183.21 195.37 182.20 L 195.37 181.20 C 195.37 180.18 194.55 179.36 193.54 179.36 C 192.52 179.36 191.70 180.18 191.70 181.20 Z M 191.71 182.20 L 191.71 183.20 C 191.71 184.21 192.53 185.03 193.54 185.03 C 194.55 185.03 195.36 184.21 195.36 183.20 L 195.36 182.20 C 195.36 181.19 194.55 180.37 193.54 180.37 C 192.53 180.37 191.71 181.19 191.71 182.20 Z M 191.72 183.20 L 191.72 184.20 C 191.72 185.20 192.53 186.02 193.54 186.02 C 194.54 186.02 195.36 185.20 195.36 184.20 L 195.36 183.20 C 195.36 182.19 194.54 181.38 193.54 181.38 C 192.53 181.38 191.72 182.19 191.72 183.20 Z M 191.73 184.20 L 191.73 185.20 C 191.73 186.20 192.54 187.01 193.54 187.01 C 194.54 187.01 195.35 186.20 195.35 185.20 L 195.35 184.20 C 195.35 183.20 194.54 182.39 193.54 182.39 C 192.54 182.39 191.73 183.20 191.73 184.20 Z M 191.74 185.20 L 191.74 186.21 C 191.74 187.20 192.54 188.01 193.54 188.01 C 194.53 188.01 195.34 187.20 195.34 186.21 L 195.34 185.20 C 195.34 184.21 194.53 183.40 193.54 183.40 C 192.54 183.40 191.74 184.21 191.74 185.20 Z M 191.75 186.21 L 191.75 187.21 C 191.75 188.20 192.55 189.00 193.54 189.00 C 194.53 189.00 195.33 188.20 195.33 187.21 L 195.33 186.21 C 195.33 185.22 194.53 184.42 193.54 184.42 C 192.55 184.42 191.75 185.22 191.75 186.21 Z M 191.76 187.21 L 191.76 188.21 C 191.76 189.20 192.55 189.99 193.54 189.99 C 194.52 189.99 195.32 189.20 195.32 188.21 L 195.32 187.21 C 195.32 186.23 194.52 185.43 193.54 185.43 C 192.55 185.43 191.76 186.23 191.76 187.21 Z M 191.76 188.21 L 191.76 189.21 C 191.76 190.19 192.56 190.98 193.54 190.98 C 194.51 190.98 195.31 190.19 195.31 189.21 L 195.31 188.21 C 195.31 187.23 194.51 186.44 193.54 186.44 C 192.56 186.44 191.76 187.23 191.76 188.21 Z M 191.77 189.21 L 191.77 190.20 C 191.77 191.17 192.56 191.96 193.54 191.96 C 194.51 191.96 195.30 191.17 195.30 190.20 L 195.30 189.21 C 195.30 188.24 194.51 187.45 193.54 187.45 C 192.56 187.45 191.77 188.24 191.77 189.21 Z M 191.78 190.20 L 191.78 191.10 C 191.78 192.07 192.57 192.85 193.54 192.85 C 194.50 192.85 195.29 192.07 195.29 191.10 L 195.29 190.20 C 195.29 189.23 194.50 188.45 193.54 188.45 C 192.57 188.45 191.78 189.23 191.78 190.20 Z M 191.79 191.10 L 191.79 192.00 C 191.79 192.96 192.57 193.74 193.53 193.74 C 194.49 193.75 195.28 192.97 195.28 192.00 L 195.28 191.10 C 195.28 190.14 194.50 189.36 193.54 189.36 C 192.58 189.35 191.79 190.13 191.79 191.10 Z M 191.80 191.99 L 191.79 192.92 C 191.79 193.88 192.56 194.66 193.52 194.67 C 194.48 194.67 195.26 193.90 195.26 192.94 L 195.27 192.01 C 195.27 191.05 194.50 190.27 193.54 190.27 C 192.59 190.26 191.80 191.03 191.80 191.99 Z M 191.80 192.92 L 191.79 193.90 C 191.78 194.85 192.55 195.63 193.50 195.64 C 194.45 195.65 195.24 194.89 195.25 193.93 L 195.26 192.95 C 195.26 192.00 194.50 191.22 193.55 191.21 C 192.59 191.20 191.81 191.96 191.80 192.92 Z M 191.80 193.89 L 191.79 194.94 C 191.77 195.89 192.53 196.67 193.47 196.68 C 194.42 196.70 195.20 195.94 195.22 194.99 L 195.24 193.94 C 195.25 192.99 194.50 192.21 193.55 192.20 C 192.60 192.18 191.82 192.94 191.80 193.89 Z M 191.79 194.93 L 191.77 196.07 C 191.75 197.01 192.50 197.79 193.44 197.81 C 194.38 197.83 195.16 197.09 195.18 196.14 L 195.21 195.00 C 195.23 194.06 194.48 193.28 193.54 193.26 C 192.60 193.24 191.82 193.99 191.79 194.93 Z M 191.78 196.06 L 191.75 197.07 C 191.72 198.01 192.46 198.79 193.40 198.82 C 194.34 198.85 195.12 198.11 195.15 197.17 L 195.18 196.15 C 195.20 195.22 194.46 194.43 193.52 194.41 C 192.59 194.38 191.80 195.12 191.78 196.06 Z M 191.76 197.07 L 191.73 197.97 C 191.70 198.90 192.43 199.69 193.36 199.72 C 194.30 199.75 195.08 199.02 195.11 198.08 L 195.14 197.18 C 195.17 196.24 194.44 195.46 193.50 195.43 C 192.57 195.40 191.79 196.13 191.76 197.07 Z M 191.73 197.96 L 191.70 198.91 C 191.66 199.84 192.39 200.62 193.32 200.66 C 194.25 200.69 195.03 199.97 195.07 199.04 L 195.10 198.09 C 195.14 197.16 194.41 196.38 193.48 196.34 C 192.55 196.31 191.77 197.03 191.73 197.96 Z M 191.70 198.90 L 191.66 199.89 C 191.62 200.81 192.34 201.60 193.27 201.64 C 194.20 201.68 194.98 200.96 195.02 200.03 L 195.06 199.04 C 195.10 198.12 194.38 197.33 193.45 197.30 C 192.53 197.26 191.74 197.98 191.70 198.90 Z M 191.67 199.88 L 191.62 200.89 C 191.58 201.81 192.29 202.60 193.22 202.64 C 194.14 202.69 194.92 201.97 194.97 201.05 L 195.01 200.04 C 195.06 199.11 194.34 198.33 193.42 198.29 C 192.50 198.24 191.71 198.96 191.67 199.88 Z M 191.63 200.88 L 191.58 201.92 C 191.53 202.84 192.23 203.62 193.15 203.67 C 194.07 203.72 194.86 203.01 194.91 202.09 L 194.96 201.06 C 195.01 200.14 194.30 199.35 193.38 199.30 C 192.46 199.26 191.68 199.96 191.63 200.88 Z M 191.58 201.91 L 191.52 202.95 C 191.47 203.87 192.17 204.66 193.08 204.71 C 194.00 204.76 194.79 204.06 194.84 203.15 L 194.90 202.10 C 194.95 201.18 194.25 200.40 193.34 200.34 C 192.42 200.29 191.64 200.99 191.58 201.91 Z M 191.53 202.94 L 191.46 204.00 C 191.40 204.91 192.09 205.70 193.01 205.75 C 193.92 205.81 194.70 205.12 194.76 204.21 L 194.83 203.16 C 194.89 202.24 194.20 201.46 193.29 201.40 C 192.37 201.34 191.59 202.03 191.53 202.94 Z M 191.47 203.99 L 191.39 205.04 C 191.33 205.95 192.01 206.73 192.92 206.80 C 193.83 206.86 194.62 206.18 194.68 205.27 L 194.76 204.22 C 194.82 203.31 194.14 202.52 193.23 202.46 C 192.32 202.39 191.53 203.08 191.47 203.99 Z M 191.40 205.03 L 191.32 206.07 C 191.25 206.97 191.92 207.76 192.82 207.83 C 193.73 207.90 194.52 207.23 194.59 206.33 L 194.67 205.29 C 194.75 204.38 194.07 203.59 193.17 203.52 C 192.26 203.45 191.47 204.12 191.40 205.03 Z M 191.33 206.05 L 191.24 207.08 C 191.16 207.98 191.82 208.77 192.72 208.85 C 193.62 208.93 194.41 208.26 194.49 207.36 L 194.58 206.34 C 194.66 205.44 194.00 204.65 193.10 204.57 C 192.20 204.49 191.40 205.15 191.33 206.05 Z M 191.24 207.07 L 191.15 208.08 C 191.06 208.97 191.72 209.77 192.61 209.85 C 193.51 209.94 194.30 209.28 194.39 208.39 L 194.48 207.37 C 194.57 206.48 193.91 205.68 193.02 205.60 C 192.12 205.51 191.33 206.17 191.24 207.07 Z M 191.16 208.07 L 191.06 209.07 C 190.96 209.96 191.61 210.76 192.50 210.85 C 193.39 210.94 194.19 210.29 194.28 209.40 L 194.38 208.39 C 194.47 207.50 193.82 206.71 192.93 206.62 C 192.04 206.53 191.25 207.18 191.16 208.07 Z M 191.06 209.06 L 190.96 210.06 C 190.86 210.94 191.50 211.74 192.39 211.83 C 193.27 211.93 194.07 211.29 194.16 210.40 L 194.27 209.41 C 194.36 208.52 193.72 207.73 192.84 207.63 C 191.95 207.54 191.16 208.18 191.06 209.06 Z M 190.97 210.05 L 190.85 211.04 C 190.76 211.92 191.39 212.71 192.27 212.81 C 193.15 212.91 193.95 212.28 194.04 211.40 L 194.15 210.41 C 194.25 209.53 193.62 208.73 192.74 208.63 C 191.86 208.54 191.06 209.17 190.97 210.05 Z M 190.86 211.03 L 190.75 212.01 C 190.65 212.89 191.28 213.68 192.15 213.79 C 193.03 213.89 193.82 213.26 193.92 212.38 L 194.04 211.40 C 194.14 210.52 193.51 209.73 192.63 209.63 C 191.76 209.53 190.96 210.16 190.86 211.03 Z M 190.76 212.01 L 190.64 212.99 C 190.54 213.86 191.16 214.65 192.03 214.76 C 192.90 214.86 193.69 214.24 193.80 213.37 L 193.91 212.39 C 194.02 211.52 193.39 210.72 192.52 210.62 C 191.65 210.52 190.86 211.14 190.76 212.01 Z M 190.65 212.99 L 190.53 213.96 C 190.43 214.83 191.04 215.62 191.91 215.72 C 192.78 215.83 193.57 215.21 193.67 214.34 L 193.79 213.37 C 193.89 212.50 193.28 211.71 192.41 211.61 C 191.54 211.50 190.75 212.12 190.65 212.99 Z M 190.54 213.96 L 190.43 214.85 C 190.33 215.71 190.94 216.50 191.80 216.60 C 192.67 216.71 193.45 216.09 193.56 215.23 L 193.66 214.34 C 193.77 213.48 193.15 212.70 192.29 212.59 C 191.43 212.49 190.64 213.10 190.54 213.96 Z"
      fill="black"
      fill-rule="nonzero" /><path d="M 154.79 76.54 L 153.74 76.06 C 152.87 75.67 151.84 76.05 151.44 76.92 C 151.05 77.80 151.43 78.82 152.30 79.22 L 153.35 79.69 C 154.22 80.09 155.25 79.70 155.65 78.83 C 156.04 77.96 155.66 76.93 154.79 76.54 Z M 153.69 76.00 L 152.66 75.58 C 151.76 75.21 150.72 75.65 150.35 76.56 C 149.99 77.46 150.42 78.50 151.33 78.86 L 152.35 79.28 C 153.26 79.65 154.29 79.21 154.66 78.31 C 155.03 77.40 154.59 76.37 153.69 76.00 Z M 152.53 75.49 L 151.55 75.19 C 150.59 74.90 149.58 75.44 149.29 76.39 C 148.99 77.35 149.53 78.36 150.49 78.65 L 151.46 78.95 C 152.42 79.25 153.43 78.71 153.73 77.75 C 154.02 76.80 153.48 75.78 152.53 75.49 Z M 151.26 75.09 L 150.36 74.97 C 149.34 74.83 148.41 75.54 148.27 76.55 C 148.14 77.56 148.85 78.49 149.86 78.63 L 150.77 78.75 C 151.78 78.89 152.71 78.18 152.85 77.17 C 152.98 76.16 152.28 75.23 151.26 75.09 Z M 149.85 74.93 L 149.04 75.04 C 148.00 75.18 147.28 76.13 147.42 77.16 C 147.56 78.20 148.51 78.92 149.54 78.78 L 150.36 78.67 C 151.39 78.53 152.12 77.58 151.98 76.54 C 151.84 75.51 150.88 74.79 149.85 74.93 Z M 148.37 75.23 L 147.72 75.58 C 146.80 76.09 146.46 77.26 146.97 78.19 C 147.47 79.11 148.64 79.45 149.57 78.94 L 150.21 78.59 C 151.14 78.08 151.48 76.92 150.97 75.99 C 150.46 75.06 149.30 74.72 148.37 75.23 Z M 147.23 75.96 L 146.73 76.50 C 146.00 77.28 146.05 78.50 146.83 79.22 C 147.61 79.95 148.83 79.90 149.55 79.12 L 150.06 78.57 C 150.78 77.79 150.73 76.57 149.95 75.85 C 149.17 75.13 147.95 75.17 147.23 75.96 Z M 146.47 76.84 L 146.04 77.57 C 145.50 78.49 145.81 79.68 146.73 80.21 C 147.65 80.75 148.84 80.44 149.37 79.52 L 149.80 78.78 C 150.34 77.86 150.03 76.68 149.11 76.14 C 148.19 75.61 147.01 75.92 146.47 76.84 Z M 145.92 77.82 L 145.55 78.73 C 145.15 79.72 145.63 80.84 146.62 81.24 C 147.61 81.64 148.74 81.16 149.14 80.17 L 149.50 79.27 C 149.90 78.28 149.42 77.15 148.43 76.75 C 147.44 76.36 146.31 76.83 145.92 77.82 Z M 145.49 78.91 L 145.18 79.96 C 144.88 80.98 145.47 82.06 146.49 82.36 C 147.52 82.66 148.59 82.07 148.89 81.04 L 149.20 80.00 C 149.50 78.97 148.91 77.89 147.89 77.59 C 146.86 77.29 145.79 77.88 145.49 78.91 Z M 145.14 80.08 L 144.88 81.25 C 144.65 82.30 145.31 83.33 146.36 83.57 C 147.41 83.80 148.44 83.14 148.67 82.09 L 148.93 80.92 C 149.16 79.87 148.50 78.84 147.45 78.61 C 146.41 78.38 145.37 79.04 145.14 80.08 Z M 144.86 81.34 L 144.65 82.59 C 144.47 83.65 145.18 84.65 146.23 84.83 C 147.29 85.01 148.29 84.31 148.48 83.25 L 148.69 82.00 C 148.87 80.94 148.17 79.94 147.11 79.76 C 146.05 79.58 145.05 80.28 144.86 81.34 Z M 144.64 82.64 L 144.50 83.60 C 144.35 84.67 145.09 85.65 146.15 85.80 C 147.21 85.95 148.20 85.22 148.35 84.15 L 148.49 83.19 C 148.64 82.13 147.90 81.15 146.84 80.99 C 145.78 80.84 144.79 81.58 144.64 82.64 Z M 144.50 83.64 L 144.38 84.63 C 144.24 85.70 145.00 86.67 146.07 86.80 C 147.13 86.93 148.10 86.17 148.23 85.11 L 148.35 84.12 C 148.49 83.05 147.73 82.08 146.66 81.95 C 145.60 81.82 144.63 82.58 144.50 83.64 Z M 144.37 84.66 L 144.26 85.67 C 144.15 86.74 144.92 87.70 145.99 87.81 C 147.06 87.93 148.01 87.15 148.13 86.09 L 148.24 85.07 C 148.35 84.01 147.58 83.05 146.51 82.94 C 145.44 82.82 144.49 83.60 144.37 84.66 Z M 144.26 85.70 L 144.17 86.73 C 144.07 87.79 144.85 88.74 145.92 88.84 C 146.99 88.94 147.94 88.15 148.04 87.08 L 148.13 86.06 C 148.23 84.99 147.44 84.04 146.37 83.95 C 145.31 83.85 144.36 84.63 144.26 85.70 Z M 144.17 86.75 L 144.08 87.78 C 144.00 88.85 144.80 89.78 145.87 89.87 C 146.94 89.95 147.87 89.16 147.96 88.09 L 148.04 87.06 C 148.12 85.99 147.33 85.05 146.26 84.97 C 145.19 84.88 144.25 85.68 144.17 86.75 Z M 144.08 87.80 L 144.01 88.82 C 143.94 89.89 144.75 90.82 145.82 90.89 C 146.89 90.96 147.81 90.16 147.89 89.09 L 147.96 88.06 C 148.03 86.99 147.22 86.07 146.15 85.99 C 145.08 85.92 144.16 86.73 144.08 87.80 Z M 144.01 88.84 L 143.95 89.84 C 143.89 90.91 144.71 91.83 145.78 91.90 C 146.85 91.96 147.77 91.14 147.83 90.07 L 147.89 89.07 C 147.95 88.00 147.14 87.08 146.06 87.01 C 144.99 86.95 144.07 87.77 144.01 88.84 Z M 143.95 89.86 L 143.90 90.84 C 143.85 91.91 144.67 92.82 145.74 92.88 C 146.81 92.93 147.73 92.11 147.78 91.03 L 147.83 90.05 C 147.88 88.98 147.06 88.07 145.99 88.02 C 144.92 87.96 144.01 88.79 143.95 89.86 Z M 143.90 90.85 L 143.86 91.80 C 143.81 92.88 144.65 93.78 145.72 93.83 C 146.79 93.87 147.69 93.04 147.74 91.97 L 147.78 91.02 C 147.83 89.95 147.00 89.04 145.92 89.00 C 144.85 88.95 143.95 89.78 143.90 90.85 Z M 143.86 91.82 L 143.82 92.92 C 143.79 93.99 144.62 94.89 145.69 94.93 C 146.76 94.97 147.66 94.13 147.70 93.06 L 147.74 91.96 C 147.78 90.88 146.94 89.99 145.87 89.95 C 144.80 89.91 143.90 90.75 143.86 91.82 Z M 143.83 92.94 L 143.80 93.99 C 143.77 95.06 144.61 95.95 145.68 95.97 C 146.75 96.00 147.64 95.16 147.67 94.09 L 147.70 93.04 C 147.72 91.97 146.88 91.08 145.81 91.05 C 144.74 91.03 143.86 91.87 143.83 92.94 Z M 143.80 94.00 L 143.78 95.01 C 143.76 96.08 144.61 96.96 145.68 96.98 C 146.74 97.00 147.62 96.15 147.64 95.08 L 147.66 94.08 C 147.68 93.01 146.84 92.13 145.77 92.11 C 144.70 92.09 143.82 92.94 143.80 94.00 Z M 143.79 95.02 L 143.77 96.00 C 143.76 97.07 144.61 97.94 145.68 97.95 C 146.74 97.97 147.62 97.11 147.63 96.05 L 147.64 95.07 C 147.65 94.01 146.80 93.13 145.74 93.12 C 144.67 93.11 143.80 93.96 143.79 95.02 Z M 143.78 96.01 L 143.77 96.97 C 143.76 98.03 144.62 98.90 145.68 98.91 C 146.74 98.92 147.61 98.06 147.62 97.00 L 147.62 96.04 C 147.63 94.98 146.78 94.11 145.71 94.10 C 144.65 94.09 143.79 94.95 143.78 96.01 Z M 143.78 96.98 L 143.77 97.93 C 143.77 98.99 144.63 99.85 145.69 99.86 C 146.75 99.86 147.61 99.00 147.61 97.94 L 147.61 96.99 C 147.62 95.93 146.76 95.07 145.70 95.07 C 144.64 95.06 143.78 95.92 143.78 96.98 Z M 143.78 97.94 L 143.78 98.89 C 143.78 99.95 144.63 100.81 145.69 100.81 C 146.75 100.81 147.61 99.95 147.61 98.90 L 147.61 97.94 C 147.61 96.88 146.75 96.02 145.69 96.02 C 144.64 96.02 143.78 96.88 143.78 97.94 Z M 143.78 98.89 L 143.78 99.84 C 143.78 100.90 144.64 101.75 145.69 101.75 C 146.75 101.75 147.60 100.90 147.60 99.84 L 147.60 98.89 C 147.60 97.84 146.75 96.98 145.69 96.98 C 144.64 96.98 143.78 97.84 143.78 98.89 Z M 143.78 99.84 L 143.78 100.80 C 143.78 101.85 144.64 102.71 145.69 102.71 C 146.74 102.71 147.60 101.85 147.60 100.80 L 147.60 99.84 C 147.60 98.79 146.74 97.94 145.69 97.94 C 144.64 97.94 143.78 98.79 143.78 99.84 Z M 143.79 100.80 L 143.79 101.77 C 143.79 102.82 144.64 103.67 145.69 103.67 C 146.74 103.67 147.60 102.82 147.60 101.77 L 147.60 100.80 C 147.60 99.75 146.74 98.89 145.69 98.89 C 144.64 98.89 143.79 99.75 143.79 100.80 Z M 143.79 101.77 L 143.79 102.76 C 143.79 103.81 144.64 104.66 145.69 104.66 C 146.74 104.66 147.59 103.81 147.59 102.76 L 147.59 101.77 C 147.59 100.72 146.74 99.87 145.69 99.87 C 144.64 99.87 143.79 100.72 143.79 101.77 Z M 143.79 102.76 L 143.79 103.76 C 143.79 104.81 144.64 105.66 145.69 105.66 C 146.74 105.66 147.59 104.81 147.59 103.76 L 147.59 102.76 C 147.59 101.71 146.74 100.86 145.69 100.86 C 144.64 100.86 143.79 101.71 143.79 102.76 Z M 143.80 103.76 L 143.80 104.79 C 143.80 105.83 144.65 106.68 145.69 106.68 C 146.74 106.68 147.58 105.83 147.58 104.79 L 147.58 103.76 C 147.58 102.72 146.74 101.87 145.69 101.87 C 144.65 101.87 143.80 102.72 143.80 103.76 Z M 143.80 104.79 L 143.80 105.83 C 143.80 106.87 144.65 107.72 145.69 107.72 C 146.74 107.72 147.58 106.87 147.58 105.83 L 147.58 104.79 C 147.58 103.74 146.74 102.90 145.69 102.90 C 144.65 102.90 143.80 103.74 143.80 104.79 Z M 143.80 105.83 L 143.80 106.88 C 143.80 107.92 144.65 108.77 145.69 108.77 C 146.73 108.77 147.58 107.92 147.58 106.88 L 147.58 105.83 C 147.58 104.78 146.73 103.94 145.69 103.94 C 144.65 103.94 143.80 104.78 143.80 105.83 Z M 143.81 106.88 L 143.81 107.84 C 143.81 108.88 144.65 109.73 145.69 109.73 C 146.73 109.73 147.57 108.88 147.57 107.84 L 147.57 106.88 C 147.57 105.84 146.73 105.00 145.69 105.00 C 144.65 105.00 143.81 105.84 143.81 106.88 Z M 143.81 107.84 L 143.81 108.81 C 143.81 109.85 144.65 110.69 145.69 110.69 C 146.73 110.69 147.57 109.85 147.57 108.81 L 147.57 107.84 C 147.57 106.81 146.73 105.96 145.69 105.96 C 144.65 105.96 143.81 106.81 143.81 107.84 Z M 143.82 108.81 L 143.82 109.79 C 143.82 110.83 144.66 111.67 145.69 111.67 C 146.73 111.67 147.57 110.83 147.57 109.79 L 147.57 108.81 C 147.57 107.78 146.73 106.94 145.69 106.94 C 144.66 106.94 143.82 107.78 143.82 108.81 Z M 143.82 109.79 L 143.82 110.79 C 143.82 111.82 144.66 112.66 145.69 112.66 C 146.72 112.66 147.56 111.82 147.56 110.79 L 147.56 109.79 C 147.56 108.76 146.72 107.92 145.69 107.92 C 144.66 107.92 143.82 108.76 143.82 109.79 Z M 143.82 110.79 L 143.82 111.79 C 143.82 112.82 144.66 113.66 145.69 113.66 C 146.72 113.66 147.56 112.82 147.56 111.79 L 147.56 110.79 C 147.56 109.76 146.72 108.92 145.69 108.92 C 144.66 108.92 143.82 109.76 143.82 110.79 Z M 143.83 111.79 L 143.83 112.80 C 143.83 113.83 144.66 114.67 145.69 114.67 C 146.72 114.67 147.55 113.83 147.55 112.80 L 147.55 111.79 C 147.55 110.76 146.72 109.93 145.69 109.93 C 144.66 109.93 143.83 110.76 143.83 111.79 Z M 143.83 112.80 L 143.83 113.83 C 143.83 114.85 144.66 115.68 145.69 115.68 C 146.72 115.68 147.55 114.85 147.55 113.83 L 147.55 112.80 C 147.55 111.78 146.72 110.94 145.69 110.94 C 144.66 110.94 143.83 111.78 143.83 112.80 Z M 143.84 113.83 L 143.84 114.86 C 143.84 115.88 144.67 116.71 145.69 116.71 C 146.72 116.71 147.55 115.88 147.55 114.86 L 147.55 113.83 C 147.55 112.80 146.72 111.97 145.69 111.97 C 144.67 111.97 143.84 112.80 143.84 113.83 Z M 143.84 114.86 L 143.84 115.86 C 143.84 116.89 144.67 117.72 145.69 117.72 C 146.71 117.72 147.54 116.89 147.54 115.86 L 147.54 114.86 C 147.54 113.84 146.71 113.01 145.69 113.01 C 144.67 113.01 143.84 113.84 143.84 114.86 Z M 143.84 115.86 L 143.84 116.82 C 143.84 117.84 144.67 118.67 145.69 118.67 C 146.71 118.67 147.54 117.84 147.54 116.82 L 147.54 115.86 C 147.54 114.84 146.71 114.02 145.69 114.02 C 144.67 114.02 143.84 114.84 143.84 115.86 Z M 143.85 116.82 L 143.85 117.79 C 143.85 118.81 144.67 119.64 145.69 119.64 C 146.71 119.64 147.53 118.81 147.53 117.79 L 147.53 116.82 C 147.53 115.81 146.71 114.98 145.69 114.98 C 144.67 114.98 143.85 115.81 143.85 116.82 Z M 143.85 117.79 L 143.85 118.77 C 143.85 119.79 144.68 120.61 145.69 120.61 C 146.71 120.61 147.53 119.79 147.53 118.77 L 147.53 117.79 C 147.53 116.78 146.71 115.96 145.69 115.96 C 144.68 115.96 143.85 116.78 143.85 117.79 Z M 143.86 118.77 L 143.86 119.76 C 143.86 120.77 144.68 121.59 145.69 121.59 C 146.70 121.59 147.52 120.77 147.52 119.76 L 147.52 118.77 C 147.52 117.76 146.70 116.94 145.69 116.94 C 144.68 116.94 143.86 117.76 143.86 118.77 Z M 143.86 119.76 L 143.86 120.76 C 143.86 121.77 144.68 122.59 145.69 122.59 C 146.70 122.59 147.52 121.77 147.52 120.76 L 147.52 119.76 C 147.52 118.75 146.70 117.93 145.69 117.93 C 144.68 117.93 143.86 118.75 143.86 119.76 Z M 143.87 120.76 L 143.87 121.77 C 143.87 122.78 144.68 123.59 145.69 123.59 C 146.70 123.59 147.52 122.78 147.52 121.77 L 147.52 120.76 C 147.52 119.75 146.70 118.94 145.69 118.94 C 144.68 118.94 143.87 119.75 143.87 120.76 Z M 143.87 121.77 L 143.87 122.79 C 143.87 123.80 144.69 124.61 145.69 124.61 C 146.70 124.61 147.51 123.80 147.51 122.79 L 147.51 121.77 C 147.51 120.77 146.70 119.95 145.69 119.95 C 144.69 119.95 143.87 120.77 143.87 121.77 Z M 143.88 122.79 L 143.88 123.83 C 143.88 124.83 144.69 125.65 145.69 125.65 C 146.69 125.65 147.51 124.83 147.51 123.83 L 147.51 122.79 C 147.51 121.79 146.69 120.98 145.69 120.98 C 144.69 120.98 143.88 121.79 143.88 122.79 Z M 143.88 123.83 L 143.88 124.88 C 143.88 125.88 144.69 126.69 145.69 126.69 C 146.69 126.69 147.50 125.88 147.50 124.88 L 147.50 123.83 C 147.50 122.83 146.69 122.02 145.69 122.02 C 144.69 122.02 143.88 122.83 143.88 123.83 Z M 143.89 124.88 L 143.89 125.86 C 143.89 126.86 144.69 127.67 145.69 127.67 C 146.69 127.67 147.50 126.86 147.50 125.86 L 147.50 124.88 C 147.50 123.88 146.69 123.08 145.69 123.08 C 144.69 123.08 143.89 123.88 143.89 124.88 Z M 143.89 125.86 L 143.89 126.85 C 143.89 127.84 144.70 128.65 145.69 128.65 C 146.69 128.65 147.49 127.84 147.49 126.85 L 147.49 125.86 C 147.49 124.86 146.68 124.06 145.69 124.06 C 144.70 124.06 143.89 124.87 143.89 125.86 Z M 143.90 126.85 L 143.90 127.85 C 143.90 128.84 144.70 129.64 145.70 129.64 C 146.69 129.64 147.49 128.83 147.49 127.84 L 147.49 126.85 C 147.49 125.85 146.68 125.05 145.69 125.05 C 144.70 125.05 143.89 125.86 143.90 126.85 Z M 143.90 127.85 L 143.91 128.85 C 143.91 129.84 144.71 130.64 145.70 130.64 C 146.69 130.63 147.49 129.83 147.49 128.84 L 147.48 127.84 C 147.48 126.85 146.68 126.05 145.69 126.05 C 144.70 126.06 143.90 126.86 143.90 127.85 Z M 143.91 128.85 L 143.91 129.86 C 143.92 130.85 144.72 131.64 145.71 131.64 C 146.69 131.63 147.49 130.83 147.48 129.85 L 147.48 128.84 C 147.48 127.85 146.67 127.06 145.69 127.06 C 144.70 127.07 143.91 127.87 143.91 128.85 Z M 143.92 129.87 L 143.93 130.87 C 143.93 131.86 144.73 132.65 145.72 132.64 C 146.70 132.64 147.49 131.84 147.49 130.85 L 147.48 129.84 C 147.47 128.86 146.67 128.07 145.69 128.07 C 144.71 128.08 143.91 128.88 143.92 129.87 Z M 143.93 130.88 L 143.94 131.89 C 143.95 132.87 144.75 133.66 145.73 133.65 C 146.71 133.64 147.50 132.84 147.49 131.86 L 147.48 130.85 C 147.47 129.87 146.67 129.08 145.69 129.09 C 144.71 129.10 143.92 129.90 143.93 130.88 Z M 143.95 131.89 L 143.96 132.90 C 143.97 133.88 144.77 134.66 145.75 134.65 C 146.72 134.64 147.51 133.84 147.50 132.86 L 147.48 131.85 C 147.47 130.88 146.67 130.09 145.69 130.10 C 144.72 130.12 143.93 130.92 143.95 131.89 Z M 143.96 132.91 L 143.98 133.91 C 143.99 134.89 144.79 135.66 145.77 135.65 C 146.74 135.63 147.52 134.83 147.51 133.86 L 147.49 132.85 C 147.48 131.88 146.67 131.10 145.70 131.12 C 144.73 131.13 143.95 131.93 143.96 132.91 Z M 143.98 133.92 L 144.00 134.92 C 144.02 135.89 144.82 136.66 145.79 136.64 C 146.76 136.62 147.54 135.82 147.52 134.85 L 147.50 133.85 C 147.48 132.88 146.68 132.11 145.71 132.13 C 144.74 132.14 143.96 132.95 143.98 133.92 Z M 144.01 134.92 L 144.03 135.94 C 144.05 136.91 144.86 137.68 145.82 137.66 C 146.79 137.63 147.56 136.83 147.54 135.86 L 147.51 134.84 C 147.49 133.87 146.69 133.11 145.72 133.13 C 144.75 133.15 143.98 133.96 144.01 134.92 Z M 144.04 135.95 L 144.06 136.97 C 144.09 137.93 144.89 138.69 145.86 138.67 C 146.82 138.64 147.59 137.84 147.56 136.87 L 147.53 135.86 C 147.51 134.89 146.70 134.13 145.74 134.16 C 144.77 134.18 144.01 134.99 144.04 135.95 Z M 144.07 136.97 L 144.10 137.99 C 144.13 138.95 144.93 139.70 145.90 139.67 C 146.86 139.64 147.61 138.84 147.58 137.88 L 147.55 136.87 C 147.52 135.91 146.72 135.15 145.76 135.18 C 144.80 135.21 144.04 136.01 144.07 136.97 Z M 144.11 137.99 L 144.14 138.99 C 144.17 139.95 144.98 140.70 145.93 140.67 C 146.89 140.64 147.64 139.84 147.61 138.88 L 147.58 137.87 C 147.55 136.92 146.74 136.16 145.78 136.20 C 144.83 136.23 144.08 137.03 144.11 137.99 Z M 144.15 139.00 L 144.18 140.00 C 144.22 140.95 145.02 141.70 145.97 141.66 C 146.93 141.63 147.68 140.83 147.64 139.87 L 147.61 138.87 C 147.57 137.92 146.77 137.17 145.81 137.21 C 144.86 137.24 144.11 138.04 144.15 139.00 Z M 144.19 140.00 L 144.22 140.99 C 144.26 141.94 145.06 142.69 146.01 142.65 C 146.96 142.62 147.71 141.82 147.67 140.87 L 147.64 139.87 C 147.60 138.92 146.80 138.18 145.85 138.21 C 144.90 138.25 144.15 139.05 144.19 140.00 Z M 144.23 140.99 L 144.27 141.98 C 144.30 142.93 145.10 143.67 146.05 143.64 C 147.00 143.60 147.74 142.80 147.70 141.85 L 147.67 140.86 C 147.63 139.92 146.83 139.18 145.88 139.21 C 144.93 139.25 144.19 140.04 144.23 140.99 Z M 144.27 141.98 L 144.31 142.97 C 144.35 143.92 145.14 144.65 146.09 144.62 C 147.03 144.58 147.77 143.79 147.74 142.84 L 147.70 141.85 C 147.66 140.91 146.87 140.17 145.92 140.21 C 144.98 140.24 144.24 141.04 144.27 141.98 Z M 144.32 142.97 L 144.35 143.96 C 144.39 144.90 145.18 145.63 146.12 145.60 C 147.06 145.56 147.80 144.77 147.77 143.83 L 147.73 142.84 C 147.70 141.90 146.90 141.17 145.96 141.20 C 145.02 141.23 144.28 142.03 144.32 142.97 Z M 144.36 143.95 L 144.39 144.94 C 144.43 145.88 145.21 146.61 146.15 146.58 C 147.09 146.55 147.83 145.76 147.80 144.82 L 147.76 143.83 C 147.73 142.89 146.94 142.16 146.00 142.19 C 145.06 142.22 144.32 143.01 144.36 143.95 Z M 144.40 144.93 L 144.43 145.93 C 144.46 146.87 145.25 147.60 146.18 147.57 C 147.12 147.54 147.85 146.75 147.82 145.82 L 147.79 144.82 C 147.76 143.88 146.97 143.15 146.04 143.18 C 145.10 143.21 144.37 144.00 144.40 144.93 Z M 144.44 145.92 L 144.47 146.92 C 144.50 147.85 145.28 148.59 146.21 148.56 C 147.14 148.53 147.88 147.75 147.85 146.82 L 147.82 145.82 C 147.79 144.89 147.01 144.15 146.07 144.18 C 145.14 144.21 144.41 144.99 144.44 145.92 Z M 144.47 146.92 L 144.50 147.91 C 144.53 148.84 145.31 149.58 146.24 149.55 C 147.17 149.52 147.90 148.75 147.87 147.82 L 147.84 146.82 C 147.81 145.89 147.04 145.16 146.11 145.18 C 145.18 145.21 144.45 145.99 144.47 146.92 Z M 144.51 147.91 L 144.53 148.91 C 144.56 149.84 145.33 150.57 146.26 150.54 C 147.19 150.52 147.92 149.74 147.89 148.82 L 147.87 147.82 C 147.84 146.89 147.07 146.16 146.14 146.19 C 145.21 146.21 144.48 146.98 144.51 147.91 Z M 144.54 148.91 L 144.57 149.90 C 144.59 150.83 145.36 151.56 146.28 151.53 C 147.21 151.51 147.94 150.74 147.91 149.82 L 147.89 148.82 C 147.86 147.89 147.09 147.17 146.17 147.19 C 145.25 147.21 144.52 147.98 144.54 148.91 Z M 144.57 149.90 L 144.60 150.90 C 144.62 151.82 145.39 152.55 146.31 152.53 C 147.23 152.50 147.95 151.74 147.93 150.82 L 147.91 149.82 C 147.88 148.90 147.12 148.17 146.20 148.19 C 145.28 148.22 144.55 148.98 144.57 149.90 Z M 144.60 150.90 L 144.63 151.90 C 144.65 152.82 145.41 153.54 146.33 153.52 C 147.25 153.50 147.97 152.74 147.95 151.82 L 147.93 150.82 C 147.90 149.90 147.14 149.18 146.22 149.20 C 145.31 149.22 144.58 149.98 144.60 150.90 Z M 144.63 151.90 L 144.66 152.90 C 144.68 153.82 145.44 154.54 146.35 154.52 C 147.26 154.50 147.99 153.74 147.97 152.83 L 147.94 151.82 C 147.92 150.91 147.16 150.18 146.25 150.21 C 145.34 150.23 144.61 150.98 144.63 151.90 Z M 144.66 152.90 L 144.68 153.91 C 144.71 154.82 145.46 155.54 146.37 155.52 C 147.28 155.50 148.01 154.74 147.98 153.83 L 147.96 152.83 C 147.94 151.91 147.19 151.19 146.27 151.21 C 145.36 151.23 144.64 151.99 144.66 152.90 Z M 144.69 153.90 L 144.71 154.91 C 144.73 155.82 145.49 156.54 146.39 156.52 C 147.30 156.49 148.02 155.74 148.00 154.83 L 147.98 153.83 C 147.96 152.92 147.21 152.20 146.30 152.22 C 145.39 152.24 144.67 153.00 144.69 153.90 Z M 144.72 154.91 L 144.74 155.90 C 144.76 156.80 145.51 157.52 146.42 157.50 C 147.32 157.48 148.04 156.73 148.02 155.82 L 148.00 154.83 C 147.98 153.93 147.23 153.21 146.32 153.23 C 145.41 153.25 144.70 154.00 144.72 154.91 Z M 144.74 155.90 L 144.77 156.89 C 144.79 157.79 145.53 158.51 146.44 158.49 C 147.34 158.47 148.06 157.72 148.04 156.82 L 148.01 155.82 C 147.99 154.92 147.25 154.21 146.34 154.23 C 145.44 154.25 144.72 154.99 144.74 155.90 Z M 144.77 156.89 L 144.79 157.88 C 144.81 158.78 145.56 159.50 146.46 159.48 C 147.36 159.46 148.07 158.71 148.05 157.81 L 148.03 156.82 C 148.01 155.92 147.27 155.20 146.37 155.22 C 145.47 155.24 144.75 155.99 144.77 156.89 Z M 144.80 157.88 L 144.82 158.88 C 144.84 159.78 145.58 160.49 146.48 160.47 C 147.37 160.45 148.09 159.71 148.07 158.81 L 148.05 157.81 C 148.03 156.92 147.29 156.20 146.39 156.22 C 145.49 156.24 144.78 156.98 144.80 157.88 Z M 144.82 158.88 L 144.84 159.88 C 144.86 160.77 145.60 161.48 146.49 161.47 C 147.39 161.45 148.10 160.71 148.08 159.81 L 148.06 158.81 C 148.05 157.92 147.31 157.21 146.41 157.22 C 145.52 157.24 144.80 157.98 144.82 158.88 Z M 144.85 159.87 L 144.87 160.88 C 144.88 161.77 145.62 162.48 146.51 162.46 C 147.40 162.45 148.11 161.71 148.10 160.82 L 148.08 159.81 C 148.06 158.92 147.33 158.21 146.43 158.23 C 145.54 158.24 144.83 158.98 144.85 159.87 Z M 144.87 160.87 L 144.89 161.88 C 144.90 162.77 145.64 163.48 146.53 163.46 C 147.42 163.45 148.13 162.71 148.11 161.82 L 148.09 160.82 C 148.08 159.93 147.34 159.22 146.45 159.23 C 145.56 159.25 144.85 159.98 144.87 160.87 Z M 144.89 161.87 L 144.91 162.88 C 144.92 163.77 145.65 164.48 146.54 164.46 C 147.43 164.45 148.13 163.72 148.12 162.83 L 148.11 161.82 C 148.09 160.94 147.36 160.23 146.47 160.24 C 145.59 160.26 144.88 160.99 144.89 161.87 Z M 144.91 162.88 L 144.93 163.89 C 144.94 164.77 145.66 165.48 146.55 165.47 C 147.43 165.45 148.14 164.73 148.13 163.84 L 148.12 162.83 C 148.10 161.95 147.38 161.24 146.49 161.25 C 145.61 161.27 144.90 161.99 144.91 162.88 Z M 144.93 163.88 L 144.94 164.89 C 144.95 165.77 145.68 166.48 146.56 166.47 C 147.44 166.46 148.15 165.73 148.14 164.85 L 148.13 163.85 C 148.12 162.96 147.39 162.26 146.51 162.27 C 145.63 162.28 144.92 163.00 144.93 163.88 Z M 144.94 164.89 L 144.95 165.88 C 144.96 166.76 145.68 167.47 146.56 167.46 C 147.44 167.45 148.15 166.73 148.14 165.85 L 148.13 164.86 C 148.13 163.97 147.41 163.27 146.52 163.28 C 145.64 163.28 144.94 164.00 144.94 164.89 Z M 144.96 165.88 L 144.96 166.88 C 144.97 167.76 145.69 168.47 146.57 168.46 C 147.45 168.45 148.15 167.73 148.15 166.86 L 148.14 165.86 C 148.13 164.98 147.42 164.27 146.54 164.28 C 145.66 164.28 144.95 165.00 144.96 165.88 Z M 144.97 166.88 L 144.97 167.88 C 144.98 168.75 145.69 169.46 146.57 169.46 C 147.45 169.45 148.16 168.74 148.15 167.86 L 148.14 166.86 C 148.14 165.98 147.42 165.27 146.55 165.28 C 145.67 165.28 144.96 166.00 144.97 166.88 Z M 144.98 167.88 L 144.98 168.88 C 144.98 169.75 145.70 170.46 146.57 170.46 C 147.45 170.45 148.16 169.74 148.15 168.86 L 148.15 167.86 C 148.14 166.99 147.43 166.28 146.56 166.28 C 145.68 166.29 144.97 167.00 144.98 167.88 Z M 144.98 168.87 L 144.99 169.88 C 144.99 170.75 145.70 171.46 146.57 171.45 C 147.45 171.45 148.15 170.74 148.15 169.87 L 148.15 168.86 C 148.15 167.99 147.44 167.28 146.56 167.29 C 145.69 167.29 144.98 168.00 144.98 168.87 Z M 144.99 169.87 L 144.99 170.88 C 144.99 171.75 145.70 172.45 146.57 172.45 C 147.45 172.45 148.15 171.74 148.15 170.87 L 148.15 169.87 C 148.15 169.00 147.44 168.29 146.57 168.29 C 145.69 168.29 144.99 169.00 144.99 169.87 Z M 144.99 170.88 L 145.00 171.88 C 145.00 172.75 145.70 173.45 146.57 173.45 C 147.44 173.45 148.15 172.74 148.15 171.87 L 148.15 170.87 C 148.15 170.00 147.44 169.30 146.57 169.30 C 145.70 169.30 144.99 170.00 144.99 170.88 Z M 145.00 171.88 L 145.00 172.88 C 145.00 173.74 145.70 174.45 146.57 174.45 C 147.44 174.45 148.15 173.74 148.15 172.87 L 148.15 171.87 C 148.15 171.00 147.44 170.30 146.57 170.30 C 145.70 170.30 145.00 171.01 145.00 171.88 Z M 145.00 172.87 L 145.00 173.87 C 145.00 174.74 145.71 175.44 146.57 175.44 C 147.44 175.44 148.14 174.74 148.14 173.87 L 148.14 172.87 C 148.14 172.01 147.44 171.30 146.57 171.30 C 145.71 171.30 145.00 172.01 145.00 172.87 Z M 145.01 173.87 L 145.01 174.87 C 145.01 175.74 145.71 176.44 146.57 176.44 C 147.44 176.44 148.14 175.74 148.14 174.87 L 148.14 173.87 C 148.14 173.01 147.44 172.31 146.57 172.31 C 145.71 172.31 145.01 173.01 145.01 173.87 Z M 145.01 174.87 L 145.01 175.87 C 145.01 176.74 145.71 177.44 146.57 177.44 C 147.44 177.44 148.14 176.74 148.14 175.87 L 148.14 174.87 C 148.14 174.01 147.44 173.31 146.57 173.31 C 145.71 173.31 145.01 174.01 145.01 174.87 Z M 145.01 175.87 L 145.01 176.87 C 145.01 177.74 145.71 178.44 146.57 178.44 C 147.44 178.44 148.14 177.74 148.14 176.87 L 148.14 175.87 C 148.14 175.01 147.44 174.31 146.57 174.31 C 145.71 174.31 145.01 175.01 145.01 175.87 Z M 145.01 176.87 L 145.01 177.87 C 145.01 178.74 145.71 179.44 146.57 179.44 C 147.44 179.44 148.14 178.74 148.14 177.87 L 148.14 176.87 C 148.14 176.01 147.44 175.31 146.57 175.31 C 145.71 175.31 145.01 176.01 145.01 176.87 Z M 145.01 177.87 L 145.01 178.87 C 145.01 179.74 145.71 180.44 146.57 180.44 C 147.44 180.44 148.14 179.74 148.14 178.87 L 148.14 177.87 C 148.14 177.01 147.44 176.31 146.57 176.31 C 145.71 176.31 145.01 177.01 145.01 177.87 Z M 145.01 178.87 L 145.01 179.87 C 145.01 180.73 145.71 181.43 146.57 181.43 C 147.44 181.43 148.14 180.73 148.14 179.87 L 148.14 178.87 C 148.14 178.01 147.44 177.31 146.57 177.31 C 145.71 177.31 145.01 178.01 145.01 178.87 Z M 145.01 179.87 L 145.01 180.87 C 145.01 181.73 145.71 182.43 146.57 182.43 C 147.44 182.43 148.14 181.73 148.14 180.87 L 148.14 179.87 C 148.14 179.01 147.44 178.31 146.57 178.31 C 145.71 178.31 145.01 179.01 145.01 179.87 Z M 145.01 180.87 L 145.01 181.87 C 145.01 182.73 145.71 183.43 146.57 183.43 C 147.44 183.43 148.14 182.73 148.14 181.87 L 148.14 180.87 C 148.14 180.01 147.44 179.31 146.57 179.31 C 145.71 179.31 145.01 180.01 145.01 180.87 Z M 145.01 181.87 L 145.01 182.87 C 145.01 183.73 145.71 184.43 146.57 184.43 C 147.44 184.43 148.14 183.73 148.14 182.87 L 148.14 181.87 C 148.14 181.00 147.44 180.31 146.57 180.31 C 145.71 180.31 145.01 181.00 145.01 181.87 Z M 145.01 182.87 L 145.01 183.87 C 145.01 184.73 145.71 185.43 146.57 185.43 C 147.44 185.43 148.13 184.73 148.13 183.87 L 148.13 182.87 C 148.13 182.01 147.44 181.31 146.57 181.31 C 145.71 181.31 145.01 182.01 145.01 182.87 Z M 145.01 183.87 L 145.01 184.87 C 145.01 185.73 145.71 186.43 146.57 186.43 C 147.44 186.43 148.13 185.73 148.13 184.87 L 148.13 183.87 C 148.13 183.01 147.44 182.31 146.57 182.31 C 145.71 182.31 145.01 183.01 145.01 183.87 Z M 145.01 184.87 L 145.01 185.86 C 145.01 186.73 145.71 187.43 146.57 187.43 C 147.44 187.43 148.14 186.73 148.14 185.86 L 148.14 184.87 C 148.14 184.01 147.44 183.31 146.57 183.31 C 145.71 183.31 145.01 184.01 145.01 184.87 Z M 145.01 185.86 L 145.01 186.86 C 145.01 187.72 145.71 188.42 146.57 188.42 C 147.44 188.42 148.14 187.72 148.14 186.86 L 148.14 185.86 C 148.14 185.00 147.44 184.30 146.57 184.30 C 145.71 184.30 145.01 185.00 145.01 185.86 Z M 145.01 186.86 L 145.01 187.86 C 145.01 188.72 145.71 189.42 146.57 189.42 C 147.44 189.42 148.14 188.72 148.14 187.86 L 148.14 186.86 C 148.14 186.00 147.44 185.29 146.57 185.29 C 145.71 185.29 145.01 186.00 145.01 186.86 Z M 145.01 187.86 L 145.01 188.86 C 145.01 189.72 145.71 190.42 146.57 190.42 C 147.44 190.42 148.14 189.72 148.14 188.86 L 148.14 187.86 C 148.14 186.99 147.44 186.29 146.57 186.29 C 145.71 186.29 145.01 186.99 145.01 187.86 Z M 145.00 188.86 L 145.00 189.86 C 145.00 190.72 145.71 191.43 146.57 191.43 C 147.44 191.43 148.14 190.72 148.14 189.86 L 148.14 188.86 C 148.14 187.99 147.44 187.29 146.57 187.29 C 145.71 187.29 145.00 187.99 145.00 188.86 Z M 145.00 189.86 L 145.00 190.86 C 145.00 191.73 145.71 192.43 146.57 192.43 C 147.44 192.43 148.14 191.73 148.14 190.86 L 148.14 189.86 C 148.14 188.99 147.44 188.29 146.57 188.29 C 145.71 188.29 145.00 188.99 145.00 189.86 Z M 145.00 190.86 L 145.00 191.86 C 145.00 192.73 145.71 193.43 146.57 193.43 C 147.44 193.43 148.14 192.73 148.14 191.86 L 148.14 190.86 C 148.14 189.99 147.44 189.29 146.57 189.29 C 145.71 189.29 145.00 189.99 145.00 190.86 Z M 145.00 191.86 L 145.00 192.86 C 145.00 193.73 145.70 194.44 146.57 194.44 C 147.44 194.44 148.15 193.73 148.15 192.86 L 148.15 191.86 C 148.15 190.99 147.44 190.29 146.57 190.29 C 145.70 190.29 145.00 190.99 145.00 191.86 Z M 145.00 192.86 L 145.00 193.87 C 145.00 194.74 145.70 195.44 146.57 195.44 C 147.44 195.44 148.15 194.74 148.15 193.87 L 148.15 192.86 C 148.15 191.99 147.44 191.29 146.57 191.29 C 145.70 191.29 145.00 191.99 145.00 192.86 Z M 145.00 193.87 L 145.00 194.75 C 145.00 195.62 145.70 196.33 146.57 196.33 C 147.44 196.33 148.15 195.62 148.15 194.75 L 148.15 193.87 C 148.15 193.00 147.44 192.29 146.57 192.29 C 145.70 192.29 145.00 193.00 145.00 193.87 Z"
      fill="black"
      fill-rule="nonzero" /></svg>