<svg xmlns="http://www.w3.org/2000/svg" width="300" height="300" viewBox="0 0 300 300">
<path d="M 99.71 125.01 L 98.74 124.68 C 97.84 124.39 96.88 124.87 96.58 125.76 C 96.28 126.65 96.77 127.62 97.66 127.92 L 98.63 128.24 C 99.52 128.54 100.49 128.05 100.79 127.16 C 101.08 126.27 100.60 125.30 99.71 125.01 Z M 98.74 124.67 L 97.77 124.35 C 96.87 124.05 95.89 124.54 95.60 125.44 C 95.30 126.34 95.79 127.32 96.69 127.61 L 97.66 127.93 C 98.56 128.23 99.53 127.74 99.83 126.84 C 100.13 125.94 99.64 124.96 98.74 124.67 Z M 97.76 124.33 L 96.80 124.02 C 95.89 123.72 94.91 124.22 94.62 125.13 C 94.32 126.05 94.82 127.02 95.73 127.32 L 96.69 127.63 C 97.61 127.93 98.58 127.43 98.88 126.51 C 99.17 125.60 98.67 124.63 97.76 124.33 Z M 96.79 124.00 L 95.84 123.70 C 94.92 123.41 93.93 123.92 93.64 124.84 C 93.35 125.76 93.87 126.75 94.79 127.04 L 95.74 127.34 C 96.66 127.63 97.64 127.12 97.93 126.19 C 98.22 125.27 97.71 124.29 96.79 124.00 Z M 95.82 123.68 L 94.88 123.39 C 93.95 123.11 92.96 123.64 92.68 124.57 C 92.40 125.51 92.93 126.49 93.86 126.77 L 94.80 127.06 C 95.73 127.34 96.72 126.81 97.00 125.88 C 97.28 124.95 96.76 123.96 95.82 123.68 Z M 94.86 123.37 L 93.93 123.11 C 92.99 122.84 92.00 123.38 91.73 124.33 C 91.46 125.27 92.01 126.26 92.95 126.53 L 93.88 126.79 C 94.82 127.06 95.81 126.52 96.08 125.57 C 96.35 124.63 95.80 123.64 94.86 123.37 Z M 93.89 123.07 L 92.56 122.72 C 91.59 122.47 90.61 123.05 90.36 124.02 C 90.11 124.98 90.69 125.97 91.65 126.22 L 92.99 126.56 C 93.95 126.81 94.94 126.24 95.19 125.27 C 95.44 124.31 94.86 123.32 93.89 123.07 Z M 92.47 122.67 L 91.26 122.42 C 90.27 122.22 89.30 122.86 89.09 123.86 C 88.89 124.85 89.53 125.82 90.53 126.03 L 91.74 126.27 C 92.73 126.47 93.70 125.83 93.91 124.84 C 94.11 123.84 93.47 122.87 92.47 122.67 Z M 91.02 122.35 L 90.18 122.30 C 89.15 122.23 88.26 123.01 88.19 124.04 C 88.12 125.07 88.90 125.97 89.93 126.04 L 90.77 126.09 C 91.80 126.16 92.70 125.38 92.77 124.35 C 92.84 123.32 92.06 122.42 91.02 122.35 Z M 88.98 122.59 L 88.68 122.79 C 87.81 123.38 87.59 124.57 88.18 125.44 C 88.77 126.32 89.96 126.54 90.83 125.95 L 91.13 125.75 C 92.00 125.15 92.23 123.96 91.64 123.09 C 91.04 122.22 89.85 121.99 88.98 122.59 Z M 88.13 125.40 L 88.38 125.79 C 88.95 126.69 90.14 126.96 91.04 126.39 C 91.94 125.82 92.21 124.63 91.64 123.73 L 91.39 123.34 C 90.82 122.44 89.63 122.17 88.73 122.74 C 87.83 123.31 87.56 124.50 88.13 125.40 Z M 88.71 126.19 L 89.32 126.74 C 90.10 127.46 91.32 127.40 92.04 126.61 C 92.76 125.82 92.70 124.60 91.91 123.89 L 91.30 123.33 C 90.52 122.61 89.30 122.67 88.58 123.46 C 87.86 124.25 87.92 125.47 88.71 126.19 Z M 89.43 126.84 L 90.30 127.51 C 91.14 128.16 92.35 128.01 93.01 127.17 C 93.66 126.33 93.51 125.12 92.67 124.46 L 91.80 123.79 C 90.96 123.14 89.75 123.29 89.09 124.13 C 88.44 124.97 88.59 126.18 89.43 126.84 Z M 90.34 127.54 L 91.36 128.29 C 92.22 128.92 93.43 128.73 94.06 127.87 C 94.69 127.01 94.50 125.80 93.64 125.18 L 92.62 124.43 C 91.76 123.80 90.55 123.99 89.92 124.85 C 89.30 125.71 89.48 126.92 90.34 127.54 Z M 91.38 128.30 L 92.42 129.05 C 93.29 129.68 94.49 129.48 95.12 128.62 C 95.74 127.75 95.54 126.55 94.68 125.93 L 93.63 125.17 C 92.77 124.55 91.56 124.74 90.94 125.61 C 90.32 126.47 90.51 127.67 91.38 128.30 Z M 92.42 129.04 L 93.25 129.65 C 94.11 130.28 95.31 130.09 95.94 129.24 C 96.57 128.38 96.38 127.17 95.52 126.54 L 94.69 125.94 C 93.83 125.31 92.63 125.50 92.00 126.35 C 91.37 127.21 91.56 128.42 92.42 129.04 Z M 93.24 129.63 L 94.04 130.24 C 94.89 130.87 96.09 130.70 96.73 129.85 C 97.36 129.01 97.19 127.80 96.34 127.17 L 95.54 126.56 C 94.69 125.93 93.48 126.10 92.85 126.95 C 92.21 127.80 92.39 129.00 93.24 129.63 Z M 94.02 130.22 L 94.81 130.82 C 95.65 131.47 96.85 131.32 97.49 130.48 C 98.14 129.64 97.98 128.44 97.15 127.80 L 96.36 127.19 C 95.53 126.54 94.33 126.70 93.68 127.53 C 93.03 128.37 93.19 129.57 94.02 130.22 Z M 94.79 130.80 L 95.56 131.41 C 96.38 132.07 97.58 131.94 98.23 131.12 C 98.89 130.30 98.76 129.10 97.94 128.44 L 97.17 127.82 C 96.35 127.17 95.15 127.30 94.49 128.12 C 93.83 128.94 93.97 130.14 94.79 130.80 Z M 95.53 131.38 L 96.28 132.01 C 97.09 132.69 98.28 132.58 98.96 131.78 C 99.63 130.97 99.53 129.78 98.72 129.10 L 97.97 128.47 C 97.16 127.80 95.97 127.90 95.29 128.71 C 94.62 129.51 94.72 130.71 95.53 131.38 Z M 96.25 131.98 L 97.00 132.64 C 97.78 133.33 98.98 133.25 99.67 132.46 C 100.36 131.68 100.28 130.48 99.50 129.79 L 98.75 129.14 C 97.97 128.45 96.77 128.52 96.08 129.31 C 95.39 130.09 95.47 131.29 96.25 131.98 Z M 96.97 132.60 L 97.69 133.27 C 98.45 133.97 99.65 133.93 100.35 133.16 C 101.06 132.40 101.01 131.20 100.25 130.50 L 99.53 129.83 C 98.76 129.12 97.57 129.17 96.86 129.93 C 96.16 130.70 96.20 131.89 96.97 132.60 Z M 97.66 133.23 L 98.38 133.92 C 99.12 134.64 100.31 134.62 101.03 133.88 C 101.75 133.13 101.73 131.94 100.99 131.22 L 100.27 130.53 C 99.53 129.81 98.34 129.83 97.62 130.58 C 96.90 131.32 96.92 132.51 97.66 133.23 Z M 98.36 133.89 L 99.07 134.60 C 99.79 135.33 100.98 135.34 101.71 134.61 C 102.44 133.88 102.44 132.69 101.72 131.96 L 101.01 131.25 C 100.28 130.52 99.10 130.52 98.36 131.25 C 97.63 131.98 97.63 133.16 98.36 133.89 Z M 99.05 134.57 L 99.75 135.30 C 100.46 136.04 101.64 136.06 102.38 135.35 C 103.12 134.63 103.14 133.45 102.43 132.71 L 101.73 131.99 C 101.02 131.25 99.84 131.23 99.10 131.94 C 98.36 132.66 98.34 133.83 99.05 134.57 Z M 99.74 135.28 L 100.43 136.01 C 101.13 136.76 102.30 136.80 103.05 136.09 C 103.80 135.39 103.83 134.22 103.13 133.47 L 102.44 132.74 C 101.74 131.99 100.57 131.95 99.82 132.65 C 99.07 133.36 99.04 134.53 99.74 135.28 Z M 100.42 135.99 L 101.10 136.73 C 101.79 137.48 102.96 137.53 103.71 136.84 C 104.46 136.15 104.51 134.99 103.82 134.23 L 103.14 133.49 C 102.45 132.74 101.28 132.69 100.53 133.38 C 99.78 134.07 99.73 135.24 100.42 135.99 Z M 101.09 136.71 L 101.73 137.42 C 102.41 138.17 103.57 138.23 104.32 137.55 C 105.08 136.87 105.14 135.71 104.46 134.96 L 103.83 134.25 C 103.15 133.50 101.98 133.44 101.23 134.12 C 100.47 134.80 100.41 135.96 101.09 136.71 Z M 101.72 137.40 L 102.34 138.10 C 103.00 138.86 104.16 138.93 104.92 138.26 C 105.68 137.59 105.75 136.44 105.08 135.68 L 104.47 134.98 C 103.80 134.22 102.64 134.15 101.89 134.81 C 101.13 135.48 101.05 136.64 101.72 137.40 Z M 102.32 138.07 L 102.94 138.79 C 103.59 139.56 104.74 139.65 105.51 139.00 C 106.27 138.34 106.36 137.20 105.71 136.43 L 105.10 135.71 C 104.44 134.94 103.30 134.85 102.53 135.50 C 101.76 136.15 101.67 137.30 102.32 138.07 Z M 102.92 138.76 L 103.54 139.51 C 104.17 140.28 105.31 140.40 106.09 139.77 C 106.86 139.13 106.98 137.99 106.34 137.22 L 105.73 136.46 C 105.09 135.69 103.95 135.58 103.18 136.21 C 102.40 136.84 102.29 137.98 102.92 138.76 Z M 103.52 139.47 L 104.15 140.27 C 104.76 141.06 105.89 141.19 106.68 140.58 C 107.46 139.97 107.60 138.84 106.99 138.05 L 106.36 137.25 C 105.75 136.47 104.62 136.33 103.83 136.94 C 103.05 137.56 102.91 138.69 103.52 139.47 Z M 104.13 140.23 L 104.76 141.09 C 105.35 141.88 106.48 142.05 107.27 141.45 C 108.06 140.86 108.23 139.74 107.64 138.95 L 107.00 138.09 C 106.41 137.30 105.29 137.13 104.50 137.72 C 103.70 138.31 103.54 139.44 104.13 140.23 Z M 104.74 141.04 L 105.39 141.95 C 105.95 142.76 107.07 142.95 107.87 142.38 C 108.67 141.81 108.87 140.70 108.30 139.90 L 107.66 138.99 C 107.09 138.18 105.98 137.99 105.17 138.56 C 104.37 139.13 104.18 140.24 104.74 141.04 Z M 105.37 141.92 L 105.89 142.68 C 106.44 143.49 107.54 143.71 108.35 143.16 C 109.16 142.61 109.38 141.51 108.83 140.70 L 108.31 139.93 C 107.76 139.12 106.66 138.91 105.85 139.45 C 105.04 140.00 104.82 141.11 105.37 141.92 Z M 105.88 142.65 L 106.40 143.46 C 106.93 144.28 108.03 144.51 108.84 143.98 C 109.66 143.44 109.89 142.35 109.36 141.53 L 108.84 140.73 C 108.31 139.91 107.21 139.68 106.40 140.21 C 105.58 140.74 105.35 141.84 105.88 142.65 Z M 106.39 143.43 L 106.92 144.27 C 107.44 145.09 108.52 145.34 109.34 144.82 C 110.17 144.31 110.41 143.22 109.90 142.40 L 109.37 141.56 C 108.85 140.74 107.77 140.49 106.95 141.01 C 106.13 141.52 105.88 142.61 106.39 143.43 Z M 106.92 144.24 L 107.44 145.11 C 107.94 145.93 109.02 146.20 109.84 145.69 C 110.67 145.19 110.93 144.11 110.43 143.29 L 109.90 142.42 C 109.40 141.60 108.32 141.34 107.50 141.84 C 106.67 142.34 106.41 143.42 106.92 144.24 Z M 107.44 145.08 L 107.96 145.97 C 108.45 146.80 109.51 147.07 110.34 146.58 C 111.17 146.09 111.44 145.03 110.96 144.20 L 110.43 143.31 C 109.95 142.49 108.88 142.21 108.05 142.70 C 107.22 143.19 106.95 144.25 107.44 145.08 Z M 107.95 145.94 L 108.47 146.84 C 108.94 147.67 110.00 147.96 110.83 147.48 C 111.66 147.01 111.95 145.95 111.47 145.12 L 110.96 144.22 C 110.49 143.39 109.43 143.10 108.60 143.58 C 107.77 144.05 107.48 145.11 107.95 145.94 Z M 108.46 146.81 L 108.96 147.72 C 109.42 148.55 110.47 148.85 111.30 148.39 C 112.14 147.93 112.44 146.88 111.98 146.05 L 111.48 145.15 C 111.02 144.31 109.97 144.01 109.13 144.47 C 108.30 144.93 108.00 145.98 108.46 146.81 Z M 108.96 147.69 L 109.44 148.59 C 109.89 149.43 110.92 149.74 111.76 149.30 C 112.60 148.85 112.91 147.81 112.46 146.97 L 111.98 146.07 C 111.54 145.24 110.50 144.92 109.66 145.37 C 108.82 145.82 108.51 146.86 108.96 147.69 Z M 109.43 148.57 L 109.91 149.49 C 110.34 150.33 111.37 150.66 112.21 150.23 C 113.05 149.80 113.38 148.77 112.95 147.93 L 112.47 147.00 C 112.04 146.16 111.01 145.84 110.17 146.27 C 109.33 146.70 109.00 147.73 109.43 148.57 Z M 109.91 149.46 L 110.39 150.43 C 110.80 151.27 111.82 151.61 112.66 151.20 C 113.50 150.78 113.84 149.76 113.43 148.92 L 112.95 147.96 C 112.53 147.12 111.52 146.78 110.68 147.19 C 109.84 147.61 109.50 148.63 109.91 149.46 Z M 110.39 150.40 L 110.84 151.34 C 111.23 152.18 112.24 152.54 113.08 152.14 C 113.92 151.75 114.27 150.74 113.88 149.90 L 113.43 148.96 C 113.03 148.12 112.03 147.76 111.19 148.16 C 110.35 148.55 109.99 149.56 110.39 150.40 Z M 110.84 151.31 L 111.26 152.25 C 111.64 153.09 112.63 153.46 113.47 153.08 C 114.31 152.70 114.68 151.71 114.30 150.87 L 113.88 149.93 C 113.50 149.09 112.51 148.72 111.67 149.10 C 110.83 149.48 110.45 150.47 110.84 151.31 Z M 111.26 152.22 L 111.66 153.13 C 112.02 153.97 113.00 154.36 113.84 153.99 C 114.68 153.63 115.06 152.65 114.70 151.81 L 114.30 150.90 C 113.93 150.06 112.96 149.67 112.12 150.04 C 111.28 150.40 110.90 151.38 111.26 152.22 Z M 111.66 153.11 L 112.03 154.01 C 112.38 154.85 113.34 155.24 114.18 154.89 C 115.02 154.55 115.42 153.58 115.07 152.75 L 114.70 151.84 C 114.35 151.01 113.39 150.61 112.55 150.96 C 111.71 151.30 111.31 152.27 111.66 153.11 Z M 112.04 153.98 L 112.39 154.86 C 112.72 155.70 113.67 156.11 114.50 155.78 C 115.34 155.45 115.75 154.50 115.42 153.66 L 115.07 152.78 C 114.74 151.94 113.79 151.53 112.95 151.86 C 112.11 152.19 111.70 153.14 112.04 153.98 Z M 112.39 154.83 L 112.72 155.70 C 113.03 156.54 113.97 156.96 114.80 156.64 C 115.64 156.33 116.06 155.39 115.74 154.56 L 115.42 153.69 C 115.10 152.85 114.17 152.43 113.33 152.75 C 112.49 153.06 112.07 154.00 112.39 154.83 Z M 112.72 155.67 L 113.05 156.60 C 113.35 157.44 114.27 157.87 115.11 157.57 C 115.95 157.27 116.38 156.35 116.08 155.52 L 115.74 154.58 C 115.44 153.75 114.52 153.32 113.69 153.62 C 112.85 153.92 112.42 154.84 112.72 155.67 Z M 113.05 156.58 L 113.39 157.56 C 113.67 158.40 114.58 158.85 115.42 158.56 C 116.25 158.28 116.70 157.37 116.42 156.53 L 116.08 155.54 C 115.79 154.71 114.89 154.26 114.05 154.55 C 113.21 154.83 112.77 155.74 113.05 156.58 Z M 113.39 157.54 L 113.70 158.50 C 113.97 159.34 114.87 159.80 115.71 159.53 C 116.54 159.26 117.00 158.36 116.73 157.52 L 116.42 156.56 C 116.15 155.72 115.25 155.26 114.41 155.53 C 113.57 155.80 113.12 156.70 113.39 157.54 Z M 113.70 158.48 L 113.99 159.43 C 114.25 160.27 115.14 160.74 115.98 160.48 C 116.82 160.22 117.28 159.33 117.03 158.50 L 116.73 157.54 C 116.47 156.71 115.58 156.24 114.75 156.50 C 113.91 156.76 113.44 157.65 113.70 158.48 Z M 114.00 159.42 L 114.28 160.36 C 114.53 161.19 115.41 161.67 116.24 161.42 C 117.08 161.17 117.55 160.29 117.30 159.45 L 117.02 158.51 C 116.77 157.68 115.89 157.20 115.06 157.45 C 114.22 157.70 113.75 158.58 114.00 159.42 Z M 114.28 160.34 L 114.55 161.28 C 114.79 162.11 115.67 162.59 116.50 162.35 C 117.34 162.11 117.81 161.23 117.57 160.40 L 117.30 159.47 C 117.06 158.63 116.19 158.15 115.35 158.40 C 114.52 158.64 114.04 159.51 114.28 160.34 Z M 114.56 161.27 L 114.82 162.20 C 115.06 163.03 115.93 163.51 116.76 163.27 C 117.59 163.03 118.07 162.17 117.83 161.33 L 117.57 160.41 C 117.33 159.57 116.46 159.09 115.63 159.33 C 114.80 159.57 114.32 160.44 114.56 161.27 Z M 114.83 162.19 L 114.86 162.33 C 115.10 163.16 115.97 163.64 116.80 163.40 C 117.63 163.17 118.11 162.30 117.87 161.47 L 117.83 161.34 C 117.59 160.51 116.73 160.03 115.90 160.26 C 115.07 160.50 114.59 161.36 114.83 162.19 Z"
      fill="black"
      fill-rule="nonzero" /><path d="M 124.49 136.25 L 124.31 135.20 C 124.15 134.24 123.24 133.60 122.28 133.76 C 121.32 133.93 120.68 134.84 120.85 135.79 L 121.03 136.84 C 121.19 137.80 122.10 138.44 123.06 138.28 C 124.02 138.11 124.66 137.20 124.49 136.25 Z M 124.35 135.24 L 124.19 134.20 C 124.05 133.22 123.15 132.55 122.17 132.69 C 121.20 132.83 120.52 133.74 120.66 134.71 L 120.81 135.75 C 120.96 136.73 121.86 137.40 122.84 137.26 C 123.81 137.12 124.49 136.21 124.35 135.24 Z M 124.23 134.29 L 124.14 133.27 C 124.05 132.28 123.17 131.54 122.17 131.63 C 121.18 131.72 120.44 132.61 120.53 133.60 L 120.63 134.62 C 120.72 135.62 121.60 136.35 122.59 136.26 C 123.59 136.17 124.32 135.29 124.23 134.29 Z M 124.17 133.43 L 124.17 132.44 C 124.16 131.42 123.33 130.61 122.32 130.61 C 121.31 130.62 120.49 131.44 120.49 132.46 L 120.50 133.45 C 120.50 134.46 121.33 135.28 122.35 135.27 C 123.36 135.27 124.18 134.44 124.17 133.43 Z M 124.18 132.67 L 124.29 131.72 C 124.41 130.70 123.68 129.77 122.66 129.65 C 121.64 129.53 120.71 130.26 120.59 131.28 L 120.48 132.23 C 120.36 133.25 121.09 134.18 122.11 134.30 C 123.13 134.42 124.06 133.69 124.18 132.67 Z M 124.26 132.02 L 124.51 131.13 C 124.80 130.13 124.22 129.08 123.22 128.79 C 122.22 128.50 121.17 129.08 120.88 130.08 L 120.63 130.98 C 120.34 131.98 120.92 133.03 121.92 133.32 C 122.92 133.61 123.97 133.03 124.26 132.02 Z M 124.40 131.49 L 124.83 130.66 C 125.32 129.72 124.95 128.56 124.02 128.08 C 123.08 127.59 121.92 127.95 121.43 128.89 L 121.00 129.72 C 120.51 130.66 120.88 131.82 121.82 132.31 C 122.75 132.79 123.91 132.43 124.40 131.49 Z M 124.63 130.99 L 125.18 130.31 C 125.85 129.48 125.72 128.27 124.89 127.60 C 124.06 126.93 122.85 127.06 122.18 127.89 L 121.63 128.56 C 120.96 129.39 121.09 130.61 121.92 131.28 C 122.75 131.95 123.96 131.82 124.63 130.99 Z M 124.98 130.53 L 125.65 129.92 C 126.44 129.21 126.50 127.98 125.78 127.19 C 125.07 126.40 123.84 126.34 123.05 127.06 L 122.38 127.67 C 121.59 128.38 121.53 129.61 122.24 130.40 C 122.96 131.19 124.19 131.25 124.98 130.53 Z M 125.47 130.07 L 126.26 129.51 C 127.13 128.89 127.33 127.68 126.71 126.81 C 126.09 125.94 124.88 125.73 124.01 126.35 L 123.23 126.91 C 122.35 127.53 122.15 128.74 122.77 129.62 C 123.39 130.49 124.60 130.69 125.47 130.07 Z M 126.11 129.61 L 126.98 129.10 C 127.91 128.56 128.22 127.37 127.68 126.44 C 127.14 125.52 125.95 125.21 125.02 125.75 L 124.15 126.26 C 123.23 126.80 122.92 127.99 123.46 128.91 C 124.00 129.84 125.19 130.15 126.11 129.61 Z M 126.87 129.17 L 127.80 128.70 C 128.76 128.23 129.16 127.06 128.68 126.10 C 128.20 125.14 127.04 124.74 126.08 125.22 L 125.14 125.68 C 124.18 126.16 123.79 127.33 124.26 128.29 C 124.74 129.25 125.90 129.64 126.87 129.17 Z M 127.71 128.75 L 128.68 128.33 C 129.67 127.90 130.13 126.76 129.70 125.77 C 129.28 124.78 128.13 124.33 127.14 124.75 L 126.17 125.17 C 125.18 125.60 124.73 126.74 125.15 127.73 C 125.57 128.72 126.72 129.17 127.71 128.75 Z M 128.61 128.36 L 129.60 127.98 C 130.61 127.60 131.11 126.47 130.73 125.47 C 130.34 124.46 129.22 123.96 128.21 124.34 L 127.22 124.72 C 126.21 125.10 125.71 126.23 126.09 127.24 C 126.48 128.24 127.60 128.75 128.61 128.36 Z M 129.54 128.01 L 130.53 127.67 C 131.55 127.32 132.09 126.21 131.74 125.19 C 131.39 124.17 130.28 123.63 129.26 123.98 L 128.27 124.32 C 127.25 124.67 126.71 125.78 127.06 126.80 C 127.41 127.82 128.52 128.36 129.54 128.01 Z M 130.48 127.69 L 131.52 127.36 C 132.55 127.03 133.12 125.94 132.79 124.91 C 132.47 123.88 131.37 123.31 130.34 123.63 L 129.30 123.96 C 128.28 124.28 127.70 125.38 128.03 126.41 C 128.35 127.44 129.45 128.01 130.48 127.69 Z M 131.47 127.37 L 132.51 127.07 C 133.55 126.77 134.14 125.69 133.84 124.65 C 133.55 123.62 132.46 123.02 131.42 123.32 L 130.39 123.62 C 129.35 123.92 128.75 125.00 129.05 126.04 C 129.35 127.08 130.43 127.67 131.47 127.37 Z M 132.46 127.09 L 133.46 126.83 C 134.51 126.55 135.13 125.48 134.86 124.44 C 134.59 123.40 133.52 122.77 132.47 123.04 L 131.47 123.31 C 130.43 123.58 129.80 124.65 130.08 125.69 C 130.35 126.73 131.42 127.36 132.46 127.09 Z M 133.41 126.84 L 134.38 126.61 C 135.44 126.36 136.09 125.31 135.84 124.26 C 135.59 123.21 134.54 122.56 133.49 122.80 L 132.52 123.03 C 131.47 123.28 130.82 124.33 131.07 125.38 C 131.31 126.43 132.36 127.08 133.41 126.84 Z M 134.34 126.62 L 135.29 126.42 C 136.34 126.20 137.02 125.16 136.80 124.11 C 136.58 123.05 135.54 122.37 134.48 122.60 L 133.54 122.79 C 132.48 123.02 131.80 124.05 132.03 125.11 C 132.25 126.16 133.28 126.84 134.34 126.62 Z M 135.24 126.43 L 136.18 126.25 C 137.24 126.06 137.94 125.04 137.74 123.98 C 137.54 122.92 136.52 122.22 135.46 122.41 L 134.53 122.59 C 133.47 122.79 132.77 123.81 132.97 124.87 C 133.16 125.93 134.18 126.63 135.24 126.43 Z M 136.14 126.26 L 137.06 126.11 C 138.13 125.93 138.85 124.92 138.67 123.86 C 138.49 122.79 137.48 122.08 136.42 122.25 L 135.50 122.41 C 134.43 122.58 133.71 123.59 133.89 124.66 C 134.07 125.72 135.07 126.44 136.14 126.26 Z M 137.03 126.11 L 137.97 125.97 C 139.03 125.81 139.77 124.82 139.61 123.75 C 139.45 122.68 138.46 121.95 137.39 122.11 L 136.45 122.25 C 135.39 122.41 134.65 123.40 134.81 124.47 C 134.97 125.54 135.96 126.27 137.03 126.11 Z M 137.94 125.97 L 138.91 125.84 C 139.98 125.70 140.72 124.71 140.58 123.65 C 140.43 122.58 139.45 121.83 138.38 121.97 L 137.42 122.11 C 136.35 122.25 135.60 123.23 135.74 124.30 C 135.89 125.37 136.87 126.12 137.94 125.97 Z M 138.88 125.85 L 139.86 125.73 C 140.93 125.59 141.69 124.62 141.56 123.55 C 141.42 122.48 140.45 121.72 139.38 121.85 L 138.41 121.97 C 137.34 122.10 136.58 123.08 136.71 124.15 C 136.84 125.22 137.81 125.98 138.88 125.85 Z M 139.83 125.73 L 140.82 125.62 C 141.89 125.50 142.66 124.54 142.54 123.47 C 142.42 122.40 141.46 121.63 140.39 121.74 L 139.41 121.85 C 138.34 121.97 137.56 122.93 137.68 124.00 C 137.80 125.07 138.76 125.85 139.83 125.73 Z M 140.80 125.62 L 141.79 125.52 C 142.86 125.41 143.64 124.46 143.54 123.39 C 143.43 122.32 142.47 121.54 141.40 121.64 L 140.41 121.74 C 139.34 121.85 138.56 122.80 138.67 123.87 C 138.77 124.95 139.73 125.73 140.80 125.62 Z M 141.77 125.52 L 142.78 125.43 C 143.85 125.33 144.64 124.38 144.54 123.31 C 144.45 122.24 143.50 121.45 142.43 121.55 L 141.42 121.64 C 140.35 121.74 139.56 122.69 139.66 123.76 C 139.76 124.83 140.70 125.62 141.77 125.52 Z M 142.77 125.43 L 143.79 125.34 C 144.86 125.25 145.65 124.31 145.57 123.24 C 145.48 122.17 144.54 121.38 143.47 121.47 L 142.44 121.55 C 141.37 121.64 140.58 122.58 140.67 123.65 C 140.76 124.72 141.70 125.52 142.77 125.43 Z M 143.78 125.34 L 144.76 125.27 C 145.83 125.18 146.63 124.25 146.55 123.18 C 146.47 122.11 145.54 121.31 144.47 121.39 L 143.48 121.47 C 142.41 121.55 141.61 122.48 141.69 123.55 C 141.77 124.62 142.71 125.42 143.78 125.34 Z M 144.75 125.26 L 145.67 125.20 C 146.73 125.12 147.54 124.19 147.46 123.13 C 147.39 122.06 146.46 121.25 145.39 121.33 L 144.48 121.39 C 143.41 121.47 142.60 122.40 142.68 123.47 C 142.76 124.54 143.68 125.34 144.75 125.26 Z M 145.65 125.20 L 146.58 125.14 C 147.65 125.07 148.46 124.14 148.39 123.08 C 148.32 122.01 147.40 121.20 146.33 121.27 L 145.40 121.33 C 144.33 121.40 143.52 122.32 143.59 123.39 C 143.66 124.46 144.59 125.27 145.65 125.20 Z M 146.57 125.13 L 147.53 125.08 C 148.59 125.01 149.41 124.10 149.34 123.03 C 149.28 121.96 148.36 121.15 147.30 121.22 L 146.34 121.27 C 145.28 121.34 144.46 122.25 144.53 123.32 C 144.59 124.38 145.51 125.20 146.57 125.13 Z M 147.51 125.07 L 148.50 125.02 C 149.56 124.97 150.38 124.06 150.32 122.99 C 150.27 121.93 149.36 121.11 148.29 121.17 L 147.31 121.22 C 146.25 121.27 145.43 122.18 145.48 123.25 C 145.54 124.31 146.45 125.13 147.51 125.07 Z M 148.48 125.02 L 149.50 124.97 C 150.56 124.92 151.38 124.02 151.33 122.96 C 151.28 121.89 150.38 121.07 149.32 121.12 L 148.31 121.17 C 147.24 121.22 146.42 122.12 146.47 123.18 C 146.52 124.25 147.42 125.07 148.48 125.02 Z M 149.48 124.97 L 150.53 124.93 C 151.59 124.89 152.42 123.99 152.38 122.93 C 152.34 121.87 151.44 121.04 150.38 121.08 L 149.33 121.12 C 148.27 121.17 147.44 122.06 147.48 123.12 C 147.53 124.18 148.42 125.01 149.48 124.97 Z M 150.52 124.93 L 151.61 124.89 C 152.67 124.86 153.50 123.97 153.47 122.91 C 153.43 121.85 152.54 121.02 151.48 121.05 L 150.39 121.09 C 149.33 121.12 148.50 122.01 148.54 123.07 C 148.57 124.13 149.46 124.96 150.52 124.93 Z M 151.59 124.89 L 152.68 124.86 C 153.74 124.83 154.57 123.95 154.55 122.89 C 154.52 121.83 153.64 121.00 152.58 121.03 L 151.50 121.05 C 150.44 121.08 149.60 121.96 149.63 123.02 C 149.65 124.08 150.54 124.92 151.59 124.89 Z M 152.67 124.86 L 153.65 124.84 C 154.71 124.82 155.55 123.94 155.53 122.89 C 155.50 121.83 154.63 120.99 153.57 121.01 L 152.59 121.03 C 151.53 121.05 150.69 121.92 150.71 122.98 C 150.74 124.04 151.61 124.88 152.67 124.86 Z M 153.64 124.84 L 154.64 124.82 C 155.70 124.80 156.54 123.94 156.53 122.88 C 156.51 121.82 155.64 120.98 154.59 121.00 L 153.58 121.01 C 152.52 121.03 151.68 121.90 151.70 122.95 C 151.71 124.01 152.58 124.85 153.64 124.84 Z M 154.64 124.82 L 155.66 124.81 C 156.71 124.79 157.56 123.93 157.54 122.87 C 157.53 121.82 156.67 120.97 155.61 120.99 L 154.59 121.00 C 153.54 121.01 152.69 121.87 152.70 122.93 C 152.72 123.98 153.58 124.83 154.64 124.82 Z M 155.65 124.80 L 156.68 124.80 C 157.73 124.79 158.58 123.93 158.57 122.87 C 158.56 121.82 157.70 120.97 156.65 120.98 L 155.62 120.99 C 154.57 121.00 153.72 121.86 153.73 122.91 C 153.74 123.97 154.60 124.81 155.65 124.80 Z M 156.67 124.79 L 157.70 124.79 C 158.76 124.78 159.60 123.92 159.60 122.87 C 159.59 121.82 158.73 120.97 157.68 120.98 L 156.65 120.98 C 155.60 120.99 154.75 121.85 154.76 122.90 C 154.76 123.95 155.62 124.80 156.67 124.79 Z M 157.70 124.78 L 158.72 124.78 C 159.77 124.78 160.62 123.92 160.62 122.87 C 160.61 121.82 159.76 120.97 158.71 120.98 L 157.69 120.98 C 156.63 120.98 155.79 121.84 155.79 122.89 C 155.79 123.94 156.65 124.79 157.70 124.78 Z M 158.72 124.78 L 159.73 124.78 C 160.78 124.77 161.63 123.92 161.62 122.87 C 161.62 121.82 160.77 120.97 159.72 120.98 L 158.71 120.98 C 157.66 120.98 156.81 121.83 156.81 122.88 C 156.82 123.93 157.67 124.78 158.72 124.78 Z M 159.72 124.77 L 160.71 124.77 C 161.76 124.77 162.61 123.92 162.61 122.87 C 162.61 121.83 161.76 120.98 160.71 120.98 L 159.72 120.98 C 158.67 120.98 157.82 121.83 157.83 122.88 C 157.83 123.93 158.68 124.77 159.72 124.77 Z M 160.71 124.77 L 161.67 124.77 C 162.71 124.77 163.56 123.92 163.56 122.87 C 163.56 121.83 162.71 120.98 161.67 120.98 L 160.71 120.98 C 159.66 120.98 158.81 121.83 158.81 122.88 C 158.81 123.92 159.66 124.77 160.71 124.77 Z M 161.67 124.77 L 162.72 124.77 C 163.77 124.77 164.62 123.92 164.62 122.88 C 164.62 121.83 163.77 120.98 162.72 120.98 L 161.67 120.98 C 160.62 120.98 159.77 121.83 159.77 122.88 C 159.77 123.92 160.62 124.77 161.67 124.77 Z M 162.72 124.76 L 163.82 124.76 C 164.87 124.76 165.71 123.92 165.71 122.88 C 165.71 121.83 164.87 120.99 163.82 120.99 L 162.72 120.99 C 161.68 120.99 160.83 121.83 160.83 122.88 C 160.83 123.92 161.68 124.76 162.72 124.76 Z M 163.82 124.76 L 164.87 124.76 C 165.91 124.76 166.76 123.92 166.76 122.88 C 166.76 121.83 165.91 120.99 164.87 120.99 L 163.82 120.99 C 162.78 120.99 161.94 121.83 161.94 122.88 C 161.94 123.92 162.78 124.76 163.82 124.76 Z M 164.87 124.76 L 165.88 124.76 C 166.92 124.76 167.76 123.92 167.76 122.88 C 167.76 121.83 166.92 120.99 165.88 120.99 L 164.87 120.99 C 163.83 120.99 162.99 121.83 162.99 122.88 C 162.99 123.92 163.83 124.76 164.87 124.76 Z M 165.88 124.76 L 166.85 124.76 C 167.89 124.76 168.73 123.91 168.73 122.88 C 168.73 121.84 167.89 120.99 166.85 120.99 L 165.88 120.99 C 164.84 120.99 163.99 121.84 163.99 122.88 C 163.99 123.91 164.84 124.76 165.88 124.76 Z M 166.85 124.75 L 167.80 124.75 C 168.83 124.75 169.68 123.91 169.68 122.88 C 169.68 121.84 168.83 121.00 167.80 121.00 L 166.85 121.00 C 165.81 121.00 164.97 121.84 164.97 122.88 C 164.97 123.91 165.81 124.75 166.85 124.75 Z M 167.80 124.75 L 168.73 124.75 C 169.76 124.75 170.60 123.91 170.60 122.88 C 170.60 121.84 169.76 121.00 168.73 121.00 L 167.80 121.00 C 166.76 121.00 165.92 121.84 165.92 122.88 C 165.92 123.91 166.76 124.75 167.80 124.75 Z M 168.73 124.75 L 169.65 124.75 C 170.68 124.75 171.52 123.91 171.52 122.88 C 171.52 121.84 170.68 121.00 169.65 121.00 L 168.73 121.00 C 167.69 121.00 166.85 121.84 166.85 122.88 C 166.85 123.91 167.69 124.75 168.73 124.75 Z M 169.65 124.75 L 170.58 124.75 C 171.62 124.75 172.45 123.91 172.45 122.88 C 172.45 121.84 171.62 121.00 170.58 121.00 L 169.65 121.00 C 168.61 121.00 167.77 121.84 167.77 122.87 C 167.77 123.91 168.61 124.75 169.65 124.75 Z M 170.58 124.75 L 171.52 124.75 C 172.56 124.75 173.40 123.91 173.40 122.88 C 173.40 121.84 172.56 121.00 171.53 121.00 L 170.58 121.00 C 169.55 121.00 168.71 121.84 168.71 122.87 C 168.71 123.91 169.55 124.75 170.58 124.75 Z M 171.52 124.75 L 172.48 124.75 C 173.51 124.75 174.35 123.91 174.35 122.88 C 174.36 121.85 173.52 121.01 172.48 121.00 L 171.53 121.00 C 170.49 121.00 169.65 121.84 169.65 122.87 C 169.65 123.91 170.49 124.75 171.52 124.75 Z M 172.48 124.75 L 173.45 124.75 C 174.49 124.76 175.33 123.92 175.33 122.89 C 175.33 121.85 174.50 121.01 173.46 121.01 L 172.49 121.00 C 171.45 121.00 170.61 121.84 170.61 122.87 C 170.61 123.91 171.44 124.75 172.48 124.75 Z M 173.45 124.75 L 174.45 124.76 C 175.48 124.76 176.33 123.93 176.33 122.89 C 176.34 121.86 175.50 121.02 174.47 121.01 L 173.47 121.01 C 172.43 121.00 171.59 121.84 171.58 122.87 C 171.58 123.90 172.41 124.75 173.45 124.75 Z M 174.45 124.76 L 175.48 124.77 C 176.51 124.77 177.36 123.94 177.37 122.91 C 177.37 121.87 176.54 121.03 175.51 121.02 L 174.47 121.01 C 173.44 121.01 172.59 121.84 172.59 122.87 C 172.58 123.91 173.41 124.75 174.45 124.76 Z M 175.48 124.76 L 176.55 124.78 C 177.58 124.79 178.43 123.96 178.44 122.92 C 178.45 121.89 177.62 121.04 176.59 121.03 L 175.51 121.02 C 174.48 121.01 173.63 121.84 173.62 122.87 C 173.61 123.91 174.44 124.75 175.48 124.76 Z M 176.55 124.78 L 177.61 124.79 C 178.65 124.80 179.49 123.97 179.51 122.94 C 179.52 121.91 178.69 121.06 177.66 121.04 L 176.59 121.03 C 175.56 121.02 174.71 121.85 174.70 122.88 C 174.68 123.91 175.51 124.76 176.55 124.78 Z M 177.60 124.79 L 178.62 124.81 C 179.65 124.83 180.50 124.00 180.52 122.97 C 180.54 121.93 179.72 121.08 178.68 121.06 L 177.67 121.04 C 176.63 121.03 175.78 121.85 175.76 122.88 C 175.74 123.92 176.57 124.77 177.60 124.79 Z M 178.60 124.81 L 179.63 124.84 C 180.67 124.86 181.53 124.05 181.56 123.01 C 181.58 121.98 180.77 121.12 179.73 121.09 L 178.70 121.06 C 177.66 121.03 176.80 121.85 176.78 122.89 C 176.75 123.92 177.56 124.78 178.60 124.81 Z M 179.61 124.84 L 180.65 124.88 C 181.69 124.92 182.56 124.11 182.60 123.08 C 182.64 122.04 181.84 121.17 180.80 121.13 L 179.76 121.09 C 178.72 121.05 177.85 121.85 177.81 122.89 C 177.77 123.92 178.57 124.79 179.61 124.84 Z M 180.62 124.88 L 181.65 124.94 C 182.69 125.00 183.58 124.21 183.64 123.17 C 183.70 122.14 182.91 121.25 181.87 121.19 L 180.84 121.13 C 179.80 121.07 178.91 121.86 178.85 122.89 C 178.79 123.93 179.58 124.82 180.62 124.88 Z M 181.61 124.94 L 182.63 125.02 C 183.66 125.11 184.57 124.34 184.66 123.30 C 184.74 122.27 183.97 121.36 182.94 121.28 L 181.92 121.19 C 180.89 121.11 179.98 121.87 179.89 122.91 C 179.81 123.94 180.58 124.85 181.61 124.94 Z M 182.57 125.02 L 183.56 125.13 C 184.59 125.25 185.52 124.51 185.64 123.48 C 185.76 122.45 185.02 121.51 183.99 121.40 L 183.00 121.28 C 181.97 121.16 181.04 121.90 180.92 122.93 C 180.80 123.97 181.54 124.90 182.57 125.02 Z M 183.49 125.12 L 184.44 125.27 C 185.46 125.43 186.42 124.73 186.58 123.70 C 186.74 122.67 186.04 121.71 185.01 121.55 L 184.07 121.41 C 183.04 121.25 182.08 121.95 181.92 122.97 C 181.76 124.00 182.46 124.96 183.49 125.12 Z M 184.34 125.25 L 185.23 125.44 C 186.25 125.65 187.25 125.00 187.46 123.98 C 187.67 122.96 187.02 121.97 186.00 121.76 L 185.11 121.57 C 184.09 121.36 183.10 122.01 182.88 123.03 C 182.67 124.04 183.32 125.04 184.34 125.25 Z M 185.09 125.40 L 186.17 125.72 C 187.16 126.01 188.21 125.43 188.50 124.43 C 188.79 123.43 188.21 122.39 187.21 122.10 L 186.14 121.79 C 185.14 121.50 184.10 122.07 183.81 123.07 C 183.52 124.07 184.09 125.12 185.09 125.40 Z M 185.97 125.65 L 186.99 126.07 C 187.95 126.47 189.06 126.01 189.45 125.04 C 189.85 124.08 189.39 122.98 188.42 122.58 L 187.41 122.16 C 186.44 121.77 185.34 122.23 184.95 123.19 C 184.55 124.15 185.01 125.26 185.97 125.65 Z M 186.77 125.97 L 187.65 126.47 C 188.56 126.99 189.71 126.67 190.23 125.77 C 190.75 124.86 190.43 123.71 189.53 123.19 L 188.65 122.69 C 187.74 122.17 186.59 122.48 186.07 123.39 C 185.55 124.29 185.86 125.45 186.77 125.97 Z M 187.42 126.32 L 188.17 126.91 C 188.99 127.55 190.18 127.41 190.83 126.59 C 191.47 125.76 191.33 124.57 190.51 123.93 L 189.76 123.34 C 188.93 122.70 187.75 122.84 187.10 123.66 C 186.46 124.49 186.60 125.67 187.42 126.32 Z M 187.95 126.71 L 188.57 127.38 C 189.29 128.14 190.48 128.19 191.25 127.48 C 192.02 126.76 192.06 125.57 191.35 124.80 L 190.73 124.13 C 190.02 123.36 188.82 123.32 188.05 124.03 C 187.28 124.74 187.24 125.94 187.95 126.71 Z M 188.38 127.14 L 188.88 127.89 C 189.46 128.76 190.64 129.00 191.51 128.42 C 192.38 127.84 192.62 126.66 192.04 125.79 L 191.54 125.04 C 190.96 124.17 189.78 123.93 188.91 124.51 C 188.04 125.09 187.80 126.27 188.38 127.14 Z M 188.73 127.62 L 189.12 128.48 C 189.55 129.44 190.68 129.86 191.63 129.43 C 192.59 128.99 193.01 127.87 192.58 126.91 L 192.19 126.05 C 191.76 125.10 190.63 124.68 189.67 125.11 C 188.72 125.54 188.30 126.67 188.73 127.62 Z M 189.02 128.22 L 189.29 129.16 C 189.58 130.17 190.64 130.75 191.64 130.46 C 192.65 130.17 193.24 129.12 192.95 128.11 L 192.67 127.17 C 192.39 126.16 191.33 125.58 190.32 125.87 C 189.32 126.16 188.73 127.21 189.02 128.22 Z M 189.24 128.93 L 189.39 129.92 C 189.55 130.95 190.52 131.66 191.56 131.50 C 192.60 131.34 193.31 130.37 193.15 129.34 L 193.00 128.35 C 192.84 127.31 191.87 126.60 190.83 126.76 C 189.79 126.92 189.08 127.89 189.24 128.93 Z M 189.37 129.70 L 189.42 130.72 C 189.46 131.77 190.34 132.58 191.39 132.54 C 192.44 132.49 193.25 131.61 193.21 130.56 L 193.17 129.55 C 193.13 128.50 192.24 127.69 191.19 127.73 C 190.15 127.77 189.33 128.66 189.37 129.70 Z M 189.42 130.53 L 189.36 131.54 C 189.29 132.59 190.09 133.49 191.14 133.55 C 192.19 133.61 193.09 132.82 193.15 131.77 L 193.21 130.75 C 193.27 129.71 192.47 128.81 191.43 128.74 C 190.38 128.68 189.48 129.48 189.42 130.53 Z M 189.38 131.36 L 189.22 132.36 C 189.06 133.39 189.77 134.37 190.80 134.53 C 191.84 134.69 192.81 133.98 192.97 132.94 L 193.13 131.95 C 193.29 130.91 192.58 129.94 191.55 129.78 C 190.51 129.62 189.54 130.33 189.38 131.36 Z M 189.26 132.18 L 189.02 133.15 C 188.76 134.17 189.37 135.20 190.39 135.45 C 191.40 135.71 192.43 135.10 192.69 134.08 L 192.93 133.12 C 193.19 132.10 192.58 131.07 191.56 130.81 C 190.55 130.56 189.52 131.17 189.26 132.18 Z M 189.07 133.00 L 188.75 133.93 C 188.40 134.91 188.92 135.99 189.91 136.33 C 190.89 136.67 191.97 136.15 192.31 135.17 L 192.63 134.24 C 192.98 133.25 192.46 132.18 191.47 131.84 C 190.49 131.49 189.41 132.01 189.07 133.00 Z M 188.81 133.80 L 188.41 134.70 C 188.00 135.65 188.44 136.76 189.39 137.17 C 190.34 137.59 191.45 137.15 191.86 136.20 L 192.25 135.30 C 192.66 134.34 192.23 133.24 191.28 132.83 C 190.32 132.41 189.22 132.85 188.81 133.80 Z M 188.47 134.61 L 188.02 135.49 C 187.55 136.41 187.92 137.54 188.84 138.00 C 189.76 138.47 190.89 138.10 191.35 137.18 L 191.80 136.29 C 192.27 135.37 191.90 134.25 190.98 133.78 C 190.06 133.32 188.94 133.69 188.47 134.61 Z M 188.07 135.43 L 187.57 136.31 C 187.07 137.20 187.39 138.33 188.28 138.84 C 189.18 139.34 190.31 139.02 190.81 138.13 L 191.31 137.25 C 191.81 136.35 191.49 135.22 190.60 134.72 C 189.70 134.21 188.57 134.53 188.07 135.43 Z M 187.61 136.27 L 187.09 137.13 C 186.56 138.00 186.85 139.14 187.72 139.67 C 188.60 140.19 189.74 139.91 190.26 139.03 L 190.78 138.17 C 191.30 137.29 191.02 136.16 190.14 135.63 C 189.27 135.11 188.13 135.39 187.61 136.27 Z M 187.11 137.11 L 186.64 137.87 C 186.10 138.74 186.37 139.87 187.23 140.40 C 188.10 140.94 189.23 140.67 189.76 139.81 L 190.24 139.05 C 190.77 138.19 190.51 137.05 189.65 136.52 C 188.78 135.98 187.65 136.25 187.11 137.11 Z M 186.66 137.86 L 186.16 138.64 C 185.62 139.49 185.87 140.62 186.73 141.16 C 187.58 141.70 188.71 141.45 189.25 140.60 L 189.74 139.82 C 190.28 138.97 190.03 137.84 189.18 137.30 C 188.33 136.76 187.20 137.01 186.66 137.86 Z M 186.18 138.64 L 185.66 139.44 C 185.12 140.28 185.36 141.40 186.20 141.95 C 187.04 142.49 188.16 142.25 188.70 141.41 L 189.23 140.61 C 189.77 139.77 189.53 138.65 188.69 138.10 C 187.85 137.56 186.73 137.80 186.18 138.64 Z M 185.68 139.44 L 185.13 140.27 C 184.58 141.10 184.81 142.22 185.64 142.77 C 186.47 143.31 187.59 143.08 188.13 142.25 L 188.69 141.42 C 189.23 140.59 189.00 139.47 188.17 138.93 C 187.34 138.38 186.23 138.61 185.68 139.44 Z M 185.15 140.27 L 184.56 141.14 C 184.01 141.96 184.23 143.07 185.06 143.62 C 185.88 144.17 186.99 143.95 187.53 143.13 L 188.12 142.26 C 188.67 141.44 188.45 140.33 187.62 139.78 C 186.80 139.23 185.69 139.45 185.15 140.27 Z M 184.58 141.14 L 183.96 142.06 C 183.41 142.87 183.63 143.98 184.44 144.52 C 185.25 145.07 186.35 144.86 186.90 144.04 L 187.52 143.13 C 188.07 142.32 187.85 141.21 187.04 140.66 C 186.23 140.12 185.12 140.33 184.58 141.14 Z M 183.97 142.06 L 183.38 142.93 C 182.84 143.74 183.05 144.83 183.85 145.38 C 184.66 145.93 185.75 145.72 186.30 144.91 L 186.89 144.04 C 187.43 143.24 187.22 142.14 186.42 141.59 C 185.61 141.05 184.52 141.26 183.97 142.06 Z M 183.40 142.94 L 182.86 143.73 C 182.31 144.53 182.52 145.62 183.32 146.16 C 184.12 146.70 185.21 146.50 185.75 145.70 L 186.29 144.90 C 186.83 144.11 186.62 143.02 185.82 142.48 C 185.03 141.93 183.94 142.14 183.40 142.94 Z M 182.87 143.74 L 182.31 144.55 C 181.77 145.35 181.98 146.43 182.77 146.96 C 183.56 147.50 184.64 147.30 185.18 146.51 L 185.74 145.69 C 186.28 144.90 186.07 143.82 185.28 143.28 C 184.49 142.74 183.41 142.95 182.87 143.74 Z M 182.32 144.56 L 181.75 145.39 C 181.22 146.18 181.42 147.25 182.20 147.79 C 182.99 148.32 184.06 148.12 184.60 147.34 L 185.17 146.50 C 185.70 145.72 185.50 144.65 184.72 144.11 C 183.93 143.57 182.86 143.78 182.32 144.56 Z M 181.77 145.40 L 181.19 146.24 C 180.66 147.02 180.85 148.08 181.63 148.62 C 182.41 149.15 183.47 148.95 184.01 148.17 L 184.58 147.33 C 185.12 146.55 184.92 145.49 184.14 144.96 C 183.36 144.42 182.30 144.62 181.77 145.40 Z M 181.20 146.25 L 180.62 147.09 C 180.09 147.87 180.29 148.92 181.06 149.45 C 181.83 149.98 182.88 149.79 183.41 149.01 L 183.99 148.17 C 184.52 147.40 184.33 146.34 183.56 145.81 C 182.79 145.28 181.73 145.48 181.20 146.25 Z M 180.63 147.10 L 180.05 147.94 C 179.52 148.71 179.72 149.76 180.48 150.28 C 181.25 150.81 182.29 150.62 182.82 149.85 L 183.40 149.01 C 183.93 148.24 183.73 147.20 182.97 146.67 C 182.21 146.14 181.16 146.34 180.63 147.10 Z M 180.06 147.95 L 179.49 148.78 C 178.97 149.54 179.16 150.58 179.91 151.10 C 180.67 151.63 181.71 151.44 182.23 150.68 L 182.81 149.84 C 183.33 149.09 183.14 148.05 182.38 147.52 C 181.63 147.00 180.59 147.19 180.06 147.95 Z M 179.50 148.79 L 178.94 149.60 C 178.42 150.35 178.60 151.38 179.36 151.90 C 180.11 152.42 181.14 152.24 181.66 151.49 L 182.22 150.67 C 182.74 149.92 182.55 148.89 181.80 148.37 C 181.05 147.85 180.02 148.04 179.50 148.79 Z M 178.94 149.60 L 178.33 150.48 C 177.81 151.23 178.00 152.26 178.75 152.78 C 179.49 153.30 180.52 153.11 181.04 152.36 L 181.65 151.49 C 182.17 150.74 181.99 149.71 181.24 149.19 C 180.49 148.67 179.46 148.86 178.94 149.60 Z M 178.33 150.48 L 177.73 151.34 C 177.21 152.08 177.40 153.11 178.15 153.64 C 178.89 154.16 179.92 153.97 180.44 153.22 L 181.04 152.37 C 181.56 151.62 181.38 150.59 180.63 150.07 C 179.88 149.55 178.85 149.73 178.33 150.48 Z M 177.73 151.33 L 177.15 152.17 C 176.63 152.92 176.81 153.95 177.56 154.47 C 178.31 154.99 179.34 154.81 179.86 154.06 L 180.45 153.23 C 180.97 152.48 180.79 151.45 180.04 150.92 C 179.29 150.40 178.26 150.58 177.73 151.33 Z M 177.15 152.16 L 176.58 152.98 C 176.05 153.73 176.24 154.76 176.99 155.29 C 177.73 155.81 178.77 155.63 179.29 154.88 L 179.86 154.06 C 180.39 153.32 180.21 152.28 179.46 151.76 C 178.71 151.23 177.67 151.41 177.15 152.16 Z M 176.58 152.98 L 176.01 153.78 C 175.49 154.53 175.67 155.56 176.42 156.09 C 177.17 156.62 178.21 156.43 178.73 155.68 L 179.30 154.88 C 179.82 154.13 179.64 153.10 178.89 152.57 C 178.14 152.04 177.10 152.23 176.58 152.98 Z M 176.01 153.77 L 175.46 154.56 C 174.93 155.32 175.11 156.35 175.86 156.88 C 176.61 157.41 177.65 157.23 178.18 156.48 L 178.73 155.69 C 179.26 154.94 179.08 153.90 178.33 153.37 C 177.58 152.84 176.54 153.02 176.01 153.77 Z M 175.46 154.56 L 174.90 155.35 C 174.37 156.10 174.56 157.14 175.31 157.67 C 176.06 158.20 177.10 158.02 177.63 157.26 L 178.18 156.48 C 178.71 155.73 178.53 154.69 177.78 154.16 C 177.02 153.63 175.98 153.81 175.46 154.56 Z M 174.90 155.34 L 174.53 155.87 C 174.00 156.62 174.18 157.66 174.94 158.19 C 175.69 158.73 176.73 158.54 177.26 157.79 L 177.63 157.26 C 178.16 156.51 177.98 155.47 177.23 154.94 C 176.47 154.41 175.43 154.59 174.90 155.34 Z"
      fill="black"
      fill-rule="nonzero" /><path d="M 119.41 174.50 L 118.40 174.39 C 117.44 174.29 116.59 174.99 116.49 175.95 C 116.39 176.91 117.08 177.76 118.04 177.86 L 119.05 177.97 C 120.01 178.07 120.87 177.37 120.97 176.41 C 121.07 175.45 120.37 174.60 119.41 174.50 Z M 118.40 174.38 L 117.40 174.27 C 116.43 174.17 115.57 174.87 115.47 175.84 C 115.36 176.80 116.07 177.67 117.03 177.77 L 118.04 177.88 C 119.00 177.98 119.87 177.28 119.97 176.31 C 120.07 175.35 119.37 174.48 118.40 174.38 Z M 117.40 174.26 L 116.40 174.16 C 115.43 174.05 114.56 174.75 114.45 175.73 C 114.35 176.70 115.05 177.57 116.02 177.67 L 117.03 177.78 C 118.00 177.89 118.87 177.18 118.97 176.21 C 119.08 175.24 118.37 174.37 117.40 174.26 Z M 116.41 174.14 L 115.41 174.03 C 114.43 173.93 113.55 174.63 113.44 175.61 C 113.34 176.59 114.04 177.47 115.02 177.58 L 116.01 177.69 C 116.99 177.79 117.87 177.09 117.98 176.11 C 118.09 175.13 117.38 174.25 116.41 174.14 Z M 115.42 174.02 L 114.44 173.91 C 113.45 173.80 112.56 174.50 112.45 175.49 C 112.34 176.47 113.04 177.36 114.03 177.47 L 115.01 177.59 C 115.99 177.70 116.88 176.99 117.00 176.01 C 117.11 175.03 116.41 174.14 115.42 174.02 Z M 114.45 173.90 L 113.48 173.78 C 112.49 173.66 111.59 174.37 111.47 175.36 C 111.35 176.35 112.05 177.25 113.04 177.37 L 114.01 177.48 C 115.00 177.60 115.90 176.90 116.02 175.91 C 116.14 174.92 115.44 174.02 114.45 173.90 Z M 113.50 173.76 L 112.18 173.59 C 111.18 173.46 110.26 174.16 110.13 175.16 C 110.00 176.17 110.70 177.08 111.71 177.21 L 113.02 177.39 C 114.02 177.52 114.94 176.81 115.07 175.81 C 115.20 174.81 114.50 173.89 113.50 173.76 Z M 112.22 173.56 L 110.91 173.36 C 109.89 173.21 108.94 173.91 108.79 174.93 C 108.64 175.95 109.34 176.90 110.36 177.05 L 111.66 177.25 C 112.68 177.40 113.63 176.70 113.79 175.68 C 113.94 174.66 113.24 173.71 112.22 173.56 Z M 111.02 173.33 L 110.12 173.15 C 109.09 172.94 108.08 173.61 107.87 174.64 C 107.66 175.68 108.33 176.68 109.36 176.89 L 110.26 177.08 C 111.29 177.29 112.30 176.62 112.51 175.58 C 112.72 174.55 112.05 173.54 111.02 173.33 Z M 110.71 173.33 L 110.45 173.18 C 109.51 172.64 108.32 172.97 107.79 173.91 C 107.25 174.84 107.58 176.03 108.51 176.57 L 108.77 176.72 C 109.71 177.25 110.90 176.93 111.44 175.99 C 111.97 175.06 111.65 173.86 110.71 173.33 Z M 109.94 176.80 L 110.27 176.72 C 111.34 176.47 111.99 175.40 111.74 174.34 C 111.49 173.27 110.42 172.62 109.36 172.87 L 109.02 172.95 C 107.96 173.20 107.30 174.27 107.55 175.33 C 107.81 176.40 108.88 177.05 109.94 176.80 Z M 109.96 176.78 L 110.57 176.73 C 111.66 176.65 112.49 175.70 112.41 174.60 C 112.33 173.51 111.37 172.69 110.28 172.77 L 109.67 172.81 C 108.57 172.89 107.75 173.85 107.83 174.94 C 107.91 176.04 108.86 176.86 109.96 176.78 Z M 110.49 176.74 L 111.36 176.71 C 112.45 176.67 113.31 175.75 113.27 174.65 C 113.24 173.55 112.31 172.69 111.22 172.73 L 110.35 172.76 C 109.26 172.80 108.40 173.72 108.44 174.82 C 108.47 175.92 109.39 176.78 110.49 176.74 Z M 111.32 176.71 L 112.38 176.69 C 113.48 176.67 114.36 175.77 114.34 174.67 C 114.32 173.57 113.42 172.69 112.32 172.71 L 111.25 172.73 C 110.15 172.75 109.28 173.66 109.30 174.75 C 109.31 175.85 110.22 176.73 111.32 176.71 Z M 112.37 176.69 L 113.58 176.68 C 114.68 176.68 115.57 175.78 115.56 174.68 C 115.55 173.58 114.65 172.69 113.55 172.70 L 112.34 172.71 C 111.24 172.72 110.35 173.62 110.36 174.72 C 110.37 175.82 111.27 176.70 112.37 176.69 Z M 113.57 176.68 L 114.89 176.68 C 115.99 176.68 116.88 175.78 116.88 174.68 C 116.88 173.58 115.98 172.70 114.88 172.70 L 113.56 172.70 C 112.46 172.70 111.57 173.60 111.58 174.70 C 111.58 175.80 112.47 176.69 113.57 176.68 Z M 114.89 176.68 L 116.24 176.68 C 117.34 176.68 118.24 175.79 118.23 174.69 C 118.23 173.59 117.34 172.70 116.24 172.70 L 114.89 172.70 C 113.79 172.70 112.89 173.59 112.89 174.69 C 112.90 175.79 113.79 176.68 114.89 176.68 Z M 116.24 176.68 L 117.32 176.68 C 118.42 176.68 119.31 175.79 119.31 174.69 C 119.31 173.59 118.42 172.70 117.32 172.70 L 116.24 172.70 C 115.14 172.70 114.25 173.59 114.25 174.69 C 114.25 175.79 115.14 176.68 116.24 176.68 Z M 117.32 176.68 L 118.39 176.68 C 119.49 176.68 120.38 175.79 120.38 174.69 C 120.38 173.59 119.48 172.70 118.38 172.70 L 117.31 172.70 C 116.21 172.70 115.32 173.59 115.32 174.69 C 115.32 175.79 116.22 176.68 117.32 176.68 Z M 118.39 176.68 L 119.44 176.68 C 120.54 176.68 121.43 175.78 121.43 174.69 C 121.43 173.59 120.54 172.70 119.44 172.70 L 118.38 172.70 C 117.28 172.70 116.39 173.59 116.39 174.69 C 116.40 175.79 117.29 176.68 118.39 176.68 Z M 119.45 176.68 L 120.49 176.68 C 121.58 176.67 122.47 175.78 122.47 174.68 C 122.47 173.58 121.58 172.69 120.48 172.70 L 119.44 172.70 C 118.34 172.70 117.45 173.59 117.45 174.69 C 117.45 175.79 118.35 176.68 119.45 176.68 Z M 120.49 176.67 L 121.50 176.67 C 122.60 176.67 123.49 175.77 123.48 174.67 C 123.48 173.58 122.59 172.69 121.49 172.69 L 120.47 172.70 C 119.38 172.70 118.49 173.59 118.49 174.69 C 118.50 175.79 119.39 176.68 120.49 176.67 Z M 121.51 176.67 L 122.49 176.66 C 123.58 176.66 124.47 175.76 124.46 174.66 C 124.46 173.57 123.56 172.68 122.46 172.69 L 121.48 172.69 C 120.38 172.70 119.50 173.59 119.51 174.69 C 119.51 175.79 120.41 176.68 121.51 176.67 Z M 122.49 176.66 L 123.43 176.66 C 124.53 176.65 125.41 175.75 125.40 174.65 C 125.39 173.55 124.50 172.67 123.40 172.68 L 122.46 172.69 C 121.36 172.70 120.48 173.59 120.49 174.69 C 120.50 175.79 121.39 176.67 122.49 176.66 Z M 123.44 176.66 L 124.33 176.65 C 125.43 176.63 126.31 175.73 126.29 174.64 C 126.28 173.54 125.38 172.66 124.28 172.67 L 123.39 172.68 C 122.29 172.69 121.41 173.59 121.43 174.69 C 121.44 175.79 122.34 176.67 123.44 176.66 Z M 124.34 176.64 L 125.37 176.63 C 126.47 176.61 127.34 175.71 127.33 174.61 C 127.31 173.51 126.41 172.64 125.31 172.66 L 124.27 172.67 C 123.18 172.69 122.30 173.59 122.32 174.69 C 122.34 175.79 123.24 176.66 124.34 176.64 Z M 125.39 176.62 L 126.50 176.60 C 127.59 176.57 128.46 175.67 128.44 174.57 C 128.41 173.48 127.50 172.61 126.41 172.63 L 125.30 172.66 C 124.20 172.68 123.33 173.59 123.36 174.69 C 123.38 175.78 124.29 176.65 125.39 176.62 Z M 126.51 176.59 L 127.54 176.56 C 128.63 176.53 129.49 175.61 129.46 174.52 C 129.42 173.43 128.51 172.57 127.42 172.61 L 126.39 172.64 C 125.30 172.67 124.44 173.59 124.48 174.68 C 124.51 175.77 125.42 176.63 126.51 176.59 Z M 127.56 176.56 L 128.52 176.52 C 129.61 176.48 130.46 175.56 130.41 174.47 C 130.37 173.38 129.45 172.53 128.36 172.57 L 127.40 172.61 C 126.31 172.65 125.46 173.57 125.51 174.66 C 125.55 175.75 126.47 176.60 127.56 176.56 Z M 128.54 176.51 L 129.46 176.47 C 130.54 176.42 131.38 175.49 131.33 174.41 C 131.28 173.32 130.35 172.48 129.26 172.53 L 128.34 172.58 C 127.26 172.63 126.42 173.55 126.47 174.64 C 126.52 175.73 127.45 176.57 128.54 176.51 Z M 129.47 176.47 L 130.38 176.41 C 131.46 176.35 132.29 175.42 132.23 174.34 C 132.17 173.25 131.24 172.42 130.15 172.49 L 129.25 172.54 C 128.16 172.60 127.33 173.53 127.40 174.61 C 127.46 175.70 128.39 176.53 129.47 176.47 Z M 130.39 176.41 L 131.27 176.35 C 132.35 176.28 133.18 175.35 133.11 174.27 C 133.04 173.19 132.11 172.36 131.02 172.43 L 130.14 172.49 C 129.06 172.56 128.23 173.49 128.30 174.57 C 128.37 175.66 129.31 176.48 130.39 176.41 Z M 131.29 176.35 L 132.18 176.29 C 133.26 176.21 134.07 175.27 134.00 174.19 C 133.92 173.11 132.98 172.30 131.90 172.37 L 131.01 172.44 C 129.93 172.51 129.11 173.45 129.19 174.53 C 129.27 175.61 130.21 176.43 131.29 176.35 Z M 132.20 176.28 L 133.13 176.21 C 134.21 176.12 135.01 175.18 134.92 174.10 C 134.84 173.02 133.89 172.22 132.82 172.30 L 131.89 172.38 C 130.81 172.46 130.00 173.41 130.09 174.49 C 130.18 175.56 131.12 176.37 132.20 176.28 Z M 133.15 176.20 L 134.13 176.11 C 135.20 176.02 136.00 175.07 135.90 173.99 C 135.80 172.92 134.85 172.12 133.78 172.22 L 132.80 172.31 C 131.72 172.40 130.93 173.35 131.02 174.43 C 131.12 175.51 132.07 176.30 133.15 176.20 Z M 134.15 176.11 L 135.20 176.01 C 136.27 175.90 137.05 174.94 136.94 173.87 C 136.84 172.79 135.88 172.01 134.81 172.12 L 133.76 172.22 C 132.69 172.33 131.90 173.29 132.01 174.36 C 132.12 175.44 133.07 176.22 134.15 176.11 Z M 135.21 176.00 L 136.34 175.88 C 137.41 175.76 138.19 174.79 138.07 173.72 C 137.95 172.65 136.99 171.88 135.91 172.00 L 134.79 172.12 C 133.72 172.24 132.94 173.21 133.06 174.28 C 133.18 175.35 134.14 176.12 135.21 176.00 Z M 136.36 175.87 L 137.36 175.75 C 138.43 175.62 139.19 174.66 139.06 173.59 C 138.93 172.52 137.97 171.76 136.90 171.88 L 135.90 172.00 C 134.83 172.13 134.07 173.10 134.20 174.17 C 134.32 175.24 135.29 176.00 136.36 175.87 Z M 137.37 175.75 L 138.28 175.63 C 139.34 175.50 140.10 174.53 139.96 173.46 C 139.83 172.39 138.85 171.64 137.79 171.77 L 136.89 171.89 C 135.82 172.02 135.07 173.00 135.20 174.06 C 135.33 175.13 136.31 175.88 137.37 175.75 Z M 138.29 175.63 L 139.23 175.50 C 140.30 175.36 141.04 174.39 140.90 173.32 C 140.76 172.26 139.79 171.51 138.72 171.65 L 137.78 171.78 C 136.72 171.92 135.97 172.90 136.11 173.96 C 136.25 175.02 137.23 175.77 138.29 175.63 Z M 139.24 175.50 L 140.22 175.36 C 141.28 175.22 142.02 174.24 141.87 173.18 C 141.73 172.12 140.75 171.38 139.69 171.52 L 138.71 171.66 C 137.65 171.80 136.91 172.78 137.06 173.84 C 137.20 174.91 138.18 175.65 139.24 175.50 Z M 140.23 175.36 L 141.23 175.22 C 142.29 175.06 143.03 174.08 142.87 173.02 C 142.72 171.97 141.74 171.23 140.68 171.38 L 139.68 171.53 C 138.62 171.68 137.89 172.66 138.04 173.72 C 138.19 174.78 139.17 175.51 140.23 175.36 Z M 141.24 175.21 L 142.27 175.06 C 143.32 174.90 144.05 173.92 143.89 172.86 C 143.74 171.80 142.75 171.08 141.70 171.23 L 140.67 171.39 C 139.62 171.54 138.89 172.53 139.05 173.59 C 139.20 174.64 140.19 175.37 141.24 175.21 Z M 142.28 175.05 L 143.32 174.89 C 144.37 174.73 145.09 173.74 144.93 172.69 C 144.77 171.64 143.78 170.91 142.72 171.08 L 141.69 171.24 C 140.63 171.40 139.91 172.39 140.07 173.44 C 140.24 174.50 141.22 175.22 142.28 175.05 Z M 143.33 174.89 L 144.37 174.72 C 145.42 174.55 146.14 173.56 145.97 172.51 C 145.80 171.46 144.81 170.74 143.76 170.91 L 142.71 171.08 C 141.66 171.25 140.95 172.24 141.12 173.29 C 141.29 174.34 142.28 175.06 143.33 174.89 Z M 144.38 174.72 L 145.43 174.54 C 146.48 174.37 147.19 173.37 147.01 172.32 C 146.84 171.28 145.84 170.57 144.80 170.74 L 143.75 170.92 C 142.70 171.09 141.99 172.09 142.17 173.13 C 142.34 174.18 143.33 174.89 144.38 174.72 Z M 145.44 174.54 L 146.35 174.38 C 147.40 174.20 148.10 173.20 147.92 172.16 C 147.74 171.11 146.74 170.41 145.70 170.59 L 144.79 170.75 C 143.74 170.93 143.04 171.92 143.22 172.97 C 143.40 174.02 144.40 174.72 145.44 174.54 Z M 146.36 174.37 L 147.27 174.21 C 148.31 174.02 149.00 173.03 148.81 171.99 C 148.63 170.94 147.63 170.25 146.59 170.44 L 145.69 170.60 C 144.65 170.79 143.95 171.78 144.14 172.82 C 144.33 173.86 145.32 174.56 146.36 174.37 Z M 147.27 174.20 L 148.19 174.03 C 149.22 173.84 149.91 172.84 149.72 171.81 C 149.52 170.77 148.53 170.09 147.49 170.28 L 146.58 170.45 C 145.54 170.64 144.86 171.63 145.05 172.67 C 145.24 173.71 146.24 174.39 147.27 174.20 Z M 148.19 174.02 L 149.12 173.85 C 150.15 173.65 150.83 172.65 150.63 171.62 C 150.43 170.59 149.44 169.91 148.41 170.11 L 147.48 170.29 C 146.45 170.48 145.77 171.48 145.97 172.51 C 146.17 173.54 147.16 174.22 148.19 174.02 Z M 149.13 173.84 L 150.07 173.65 C 151.10 173.45 151.77 172.46 151.57 171.43 C 151.36 170.40 150.37 169.73 149.34 169.93 L 148.40 170.12 C 147.37 170.32 146.70 171.32 146.90 172.34 C 147.10 173.37 148.10 174.04 149.13 173.84 Z M 150.08 173.65 L 151.05 173.45 C 152.07 173.25 152.73 172.25 152.53 171.23 C 152.32 170.20 151.32 169.54 150.30 169.75 L 149.33 169.94 C 148.31 170.15 147.65 171.14 147.85 172.17 C 148.06 173.19 149.05 173.85 150.08 173.65 Z M 151.05 173.44 L 152.05 173.24 C 153.07 173.03 153.73 172.03 153.52 171.01 C 153.31 169.99 152.31 169.34 151.29 169.55 L 150.29 169.75 C 149.27 169.96 148.62 170.96 148.83 171.98 C 149.04 173.00 150.03 173.65 151.05 173.44 Z M 152.06 173.23 L 153.09 173.01 C 154.11 172.80 154.76 171.80 154.54 170.79 C 154.33 169.78 153.34 169.13 152.32 169.34 L 151.29 169.56 C 150.27 169.77 149.62 170.76 149.83 171.78 C 150.05 172.79 151.04 173.44 152.06 173.23 Z M 153.10 173.01 L 154.18 172.77 C 155.19 172.56 155.83 171.56 155.62 170.55 C 155.40 169.54 154.41 168.90 153.39 169.12 L 152.32 169.35 C 151.31 169.56 150.66 170.56 150.88 171.57 C 151.09 172.58 152.09 173.22 153.10 173.01 Z M 154.18 172.77 L 155.31 172.52 C 156.32 172.30 156.95 171.31 156.74 170.30 C 156.52 169.30 155.52 168.66 154.52 168.88 L 153.39 169.12 C 152.38 169.34 151.75 170.33 151.96 171.34 C 152.18 172.35 153.18 172.99 154.18 172.77 Z M 155.31 172.52 L 156.24 172.31 C 157.25 172.09 157.88 171.10 157.66 170.10 C 157.44 169.09 156.45 168.46 155.45 168.68 L 154.51 168.89 C 153.51 169.11 152.88 170.10 153.10 171.10 C 153.32 172.10 154.31 172.74 155.31 172.52 Z M 156.25 172.30 L 157.19 172.09 C 158.19 171.87 158.82 170.88 158.59 169.88 C 158.37 168.89 157.38 168.26 156.39 168.48 L 155.44 168.69 C 154.44 168.91 153.81 169.90 154.04 170.90 C 154.26 171.90 155.25 172.52 156.25 172.30 Z M 157.19 172.09 L 158.16 171.87 C 159.15 171.65 159.78 170.66 159.55 169.67 C 159.33 168.67 158.35 168.05 157.35 168.27 L 156.38 168.49 C 155.39 168.71 154.76 169.69 154.99 170.69 C 155.21 171.68 156.20 172.31 157.19 172.09 Z M 158.16 171.86 L 159.14 171.64 C 160.13 171.42 160.76 170.43 160.53 169.44 C 160.31 168.45 159.32 167.83 158.33 168.05 L 157.35 168.28 C 156.36 168.50 155.74 169.48 155.96 170.47 C 156.18 171.46 157.17 172.09 158.16 171.86 Z M 159.14 171.63 L 160.14 171.41 C 161.13 171.18 161.75 170.20 161.52 169.22 C 161.30 168.23 160.32 167.61 159.33 167.83 L 158.33 168.06 C 157.35 168.28 156.73 169.27 156.95 170.25 C 157.18 171.24 158.16 171.86 159.14 171.63 Z M 160.14 171.40 L 161.15 171.17 C 162.13 170.95 162.75 169.97 162.52 168.99 C 162.30 168.00 161.32 167.39 160.34 167.61 L 159.33 167.84 C 158.35 168.07 157.73 169.04 157.96 170.03 C 158.18 171.01 159.16 171.63 160.14 171.40 Z M 161.15 171.17 L 162.16 170.93 C 163.14 170.71 163.75 169.73 163.53 168.75 C 163.30 167.77 162.33 167.16 161.35 167.39 L 160.34 167.62 C 159.36 167.84 158.75 168.82 158.97 169.80 C 159.19 170.78 160.17 171.39 161.15 171.17 Z M 162.16 170.93 L 163.17 170.69 C 164.14 170.47 164.75 169.50 164.53 168.52 C 164.30 167.55 163.33 166.94 162.35 167.16 L 161.35 167.39 C 160.37 167.62 159.76 168.59 159.99 169.57 C 160.21 170.54 161.18 171.15 162.16 170.93 Z M 163.17 170.69 L 164.17 170.46 C 165.14 170.23 165.75 169.26 165.52 168.29 C 165.30 167.32 164.33 166.71 163.35 166.94 L 162.35 167.17 C 161.38 167.39 160.78 168.36 161.00 169.34 C 161.23 170.31 162.20 170.91 163.17 170.69 Z M 164.17 170.45 L 165.16 170.22 C 166.13 169.99 166.73 169.03 166.50 168.06 C 166.28 167.09 165.31 166.49 164.34 166.71 L 163.35 166.94 C 162.39 167.17 161.78 168.14 162.01 169.10 C 162.23 170.07 163.20 170.67 164.17 170.45 Z M 165.16 170.21 L 166.13 169.99 C 167.09 169.76 167.69 168.80 167.47 167.83 C 167.24 166.87 166.28 166.27 165.31 166.49 L 164.34 166.72 C 163.38 166.95 162.78 167.91 163.00 168.87 C 163.23 169.84 164.19 170.44 165.16 170.21 Z M 166.13 169.98 L 167.08 169.76 C 168.04 169.53 168.63 168.57 168.41 167.61 C 168.18 166.65 167.22 166.05 166.26 166.28 L 165.31 166.50 C 164.35 166.73 163.76 167.69 163.98 168.65 C 164.21 169.61 165.17 170.20 166.13 169.98 Z M 167.08 169.75 L 168.02 169.53 C 168.98 169.30 169.57 168.34 169.34 167.39 C 169.12 166.43 168.16 165.84 167.20 166.06 L 166.26 166.28 C 165.31 166.51 164.71 167.47 164.94 168.43 C 165.16 169.38 166.12 169.97 167.08 169.75 Z M 168.02 169.52 L 169.14 169.25 C 170.09 169.03 170.68 168.07 170.46 167.12 C 170.23 166.17 169.28 165.58 168.33 165.81 L 167.20 166.07 C 166.25 166.30 165.66 167.25 165.89 168.20 C 166.11 169.15 167.07 169.74 168.02 169.52 Z M 169.14 169.24 L 170.22 168.99 C 171.16 168.76 171.75 167.81 171.52 166.87 C 171.30 165.92 170.35 165.34 169.41 165.56 L 168.33 165.82 C 167.38 166.04 166.80 166.99 167.02 167.94 C 167.25 168.88 168.20 169.46 169.14 169.24 Z M 170.21 168.97 L 171.25 168.73 C 172.19 168.51 172.77 167.56 172.55 166.63 C 172.32 165.69 171.38 165.11 170.44 165.33 L 169.41 165.58 C 168.47 165.80 167.89 166.74 168.11 167.68 C 168.34 168.62 169.28 169.20 170.21 168.97 Z M 171.25 168.72 L 172.25 168.48 C 173.18 168.26 173.75 167.33 173.53 166.39 C 173.31 165.46 172.38 164.89 171.45 165.11 L 170.45 165.34 C 169.52 165.56 168.94 166.50 169.16 167.43 C 169.38 168.36 170.31 168.94 171.25 168.72 Z M 172.24 168.47 L 173.21 168.24 C 174.13 168.02 174.71 167.10 174.49 166.17 C 174.27 165.25 173.35 164.67 172.42 164.89 L 171.45 165.12 C 170.53 165.33 169.95 166.26 170.17 167.19 C 170.39 168.11 171.31 168.69 172.24 168.47 Z M 173.20 168.23 L 174.14 168.01 C 175.06 167.80 175.63 166.88 175.42 165.96 C 175.21 165.04 174.29 164.47 173.37 164.68 L 172.43 164.90 C 171.51 165.11 170.94 166.03 171.15 166.95 C 171.36 167.87 172.28 168.44 173.20 168.23 Z M 174.13 168.00 L 175.05 167.79 C 175.97 167.58 176.54 166.67 176.33 165.76 C 176.12 164.85 175.21 164.27 174.29 164.48 L 173.38 164.69 C 172.46 164.90 171.89 165.81 172.10 166.73 C 172.31 167.64 173.22 168.21 174.13 168.00 Z M 175.04 167.78 L 175.94 167.58 C 176.85 167.37 177.42 166.47 177.22 165.57 C 177.02 164.66 176.11 164.09 175.21 164.29 L 174.30 164.49 C 173.40 164.70 172.83 165.60 173.03 166.51 C 173.23 167.41 174.14 167.99 175.04 167.78 Z M 175.93 167.57 L 176.82 167.37 C 177.73 167.18 178.30 166.28 178.10 165.38 C 177.90 164.48 177.01 163.91 176.11 164.11 L 175.22 164.30 C 174.31 164.50 173.74 165.39 173.94 166.29 C 174.14 167.20 175.03 167.77 175.93 167.57 Z M 176.81 167.36 L 177.69 167.17 C 178.59 166.98 179.16 166.10 178.97 165.20 C 178.78 164.31 177.90 163.74 177.00 163.93 L 176.12 164.12 C 175.22 164.31 174.65 165.19 174.84 166.09 C 175.03 166.98 175.92 167.55 176.81 167.36 Z M 177.68 167.17 L 178.69 166.96 C 179.58 166.78 180.15 165.90 179.97 165.01 C 179.78 164.12 178.91 163.54 178.02 163.73 L 177.01 163.93 C 176.12 164.12 175.55 164.99 175.73 165.88 C 175.92 166.78 176.79 167.35 177.68 167.17 Z M 178.67 166.96 L 179.68 166.76 C 180.57 166.58 181.15 165.71 180.97 164.82 C 180.80 163.93 179.93 163.35 179.04 163.53 L 178.03 163.73 C 177.14 163.91 176.56 164.77 176.74 165.66 C 176.92 166.55 177.78 167.13 178.67 166.96 Z M 179.67 166.75 L 180.67 166.56 C 181.56 166.39 182.14 165.53 181.97 164.65 C 181.80 163.76 180.95 163.17 180.06 163.34 L 179.05 163.53 C 178.17 163.70 177.58 164.56 177.75 165.45 C 177.92 166.34 178.78 166.92 179.67 166.75 Z M 180.66 166.56 L 181.65 166.38 C 182.54 166.21 183.13 165.36 182.97 164.48 C 182.80 163.59 181.95 163.00 181.07 163.17 L 180.07 163.35 C 179.19 163.51 178.60 164.36 178.76 165.24 C 178.92 166.13 179.77 166.72 180.66 166.56 Z M 181.64 166.37 L 182.63 166.20 C 183.51 166.05 184.10 165.21 183.95 164.32 C 183.80 163.44 182.96 162.84 182.07 163.00 L 181.08 163.17 C 180.20 163.32 179.61 164.16 179.76 165.05 C 179.91 165.93 180.75 166.53 181.64 166.37 Z M 182.61 166.20 L 183.59 166.03 C 184.48 165.89 185.07 165.06 184.93 164.17 C 184.78 163.29 183.95 162.69 183.07 162.84 L 182.09 163.00 C 181.20 163.15 180.61 163.98 180.75 164.86 C 180.90 165.74 181.73 166.34 182.61 166.20 Z M 183.58 166.03 L 184.55 165.88 C 185.43 165.74 186.03 164.92 185.89 164.04 C 185.75 163.16 184.93 162.56 184.05 162.69 L 183.08 162.84 C 182.20 162.98 181.60 163.81 181.74 164.69 C 181.87 165.57 182.70 166.17 183.58 166.03 Z M 184.53 165.88 L 185.49 165.73 C 186.37 165.61 186.97 164.79 186.84 163.91 C 186.72 163.03 185.90 162.43 185.02 162.56 L 184.07 162.70 C 183.19 162.83 182.58 163.64 182.71 164.52 C 182.84 165.40 183.65 166.00 184.53 165.88 Z M 185.47 165.73 L 186.44 165.60 C 187.31 165.48 187.92 164.67 187.80 163.80 C 187.68 162.92 186.88 162.31 186.00 162.43 L 185.04 162.56 C 184.16 162.68 183.55 163.49 183.67 164.36 C 183.79 165.24 184.60 165.85 185.47 165.73 Z M 186.42 165.60 L 187.48 165.46 C 188.36 165.35 188.98 164.55 188.87 163.68 C 188.76 162.81 187.96 162.19 187.08 162.30 L 186.02 162.43 C 185.14 162.54 184.53 163.34 184.64 164.21 C 184.75 165.09 185.54 165.71 186.42 165.60 Z M 187.46 165.46 L 188.51 165.34 C 189.38 165.24 190.01 164.45 189.91 163.58 C 189.81 162.71 189.02 162.08 188.15 162.18 L 187.10 162.30 C 186.23 162.40 185.60 163.19 185.70 164.06 C 185.80 164.93 186.59 165.56 187.46 165.46 Z M 188.49 165.34 L 189.51 165.24 C 190.39 165.15 191.02 164.37 190.93 163.50 C 190.84 162.62 190.07 161.99 189.19 162.08 L 188.17 162.18 C 187.30 162.27 186.66 163.05 186.75 163.92 C 186.84 164.79 187.62 165.43 188.49 165.34 Z M 189.49 165.23 L 190.50 165.14 C 191.37 165.07 192.01 164.30 191.93 163.43 C 191.86 162.55 191.09 161.91 190.22 161.99 L 189.21 162.08 C 188.34 162.16 187.70 162.93 187.78 163.80 C 187.85 164.67 188.62 165.31 189.49 165.23 Z M 190.48 165.14 L 191.46 165.07 C 192.33 165.00 192.98 164.24 192.91 163.37 C 192.85 162.50 192.09 161.85 191.22 161.92 L 190.24 161.99 C 189.37 162.06 188.71 162.82 188.78 163.69 C 188.85 164.56 189.61 165.21 190.48 165.14 Z M 191.43 165.07 L 192.39 165.01 C 193.26 164.95 193.92 164.20 193.87 163.34 C 193.81 162.47 193.06 161.81 192.19 161.86 L 191.24 161.92 C 190.37 161.97 189.71 162.72 189.76 163.59 C 189.82 164.46 190.56 165.12 191.43 165.07 Z M 192.37 165.00 L 193.30 164.96 C 194.17 164.92 194.84 164.18 194.80 163.31 C 194.75 162.45 194.02 161.78 193.15 161.82 L 192.22 161.86 C 191.35 161.90 190.68 162.64 190.72 163.51 C 190.76 164.38 191.50 165.05 192.37 165.00 Z M 193.27 164.96 L 194.26 164.93 C 195.13 164.90 195.81 164.17 195.78 163.31 C 195.75 162.44 195.03 161.76 194.16 161.79 L 193.17 161.82 C 192.31 161.85 191.63 162.57 191.65 163.44 C 191.68 164.31 192.41 164.99 193.27 164.96 Z M 194.23 164.93 L 195.28 164.91 C 196.15 164.90 196.84 164.18 196.82 163.32 C 196.81 162.45 196.10 161.76 195.23 161.77 L 194.19 161.79 C 193.32 161.80 192.63 162.51 192.64 163.38 C 192.65 164.25 193.37 164.94 194.23 164.93 Z M 195.25 164.91 L 196.27 164.91 C 197.14 164.91 197.84 164.21 197.84 163.34 C 197.84 162.48 197.14 161.78 196.28 161.78 L 195.26 161.78 C 194.39 161.77 193.69 162.48 193.69 163.34 C 193.69 164.21 194.39 164.91 195.25 164.91 Z M 196.25 164.91 L 197.25 164.92 C 198.11 164.93 198.82 164.24 198.83 163.38 C 198.85 162.51 198.16 161.80 197.29 161.79 L 196.30 161.78 C 195.43 161.77 194.72 162.46 194.71 163.32 C 194.70 164.19 195.39 164.90 196.25 164.91 Z M 197.23 164.92 L 198.21 164.94 C 199.07 164.97 199.79 164.28 199.81 163.42 C 199.83 162.56 199.15 161.84 198.28 161.82 L 197.31 161.79 C 196.44 161.77 195.73 162.46 195.71 163.32 C 195.68 164.18 196.37 164.90 197.23 164.92 Z M 198.20 164.94 L 199.16 164.97 C 200.03 165.00 200.75 164.32 200.77 163.46 C 200.80 162.60 200.12 161.88 199.26 161.85 L 198.30 161.82 C 197.43 161.79 196.71 162.47 196.68 163.33 C 196.66 164.19 197.33 164.92 198.20 164.94 Z M 199.16 164.97 L 200.10 165.00 C 200.96 165.04 201.68 164.36 201.71 163.50 C 201.74 162.64 201.07 161.91 200.21 161.88 L 199.27 161.85 C 198.41 161.82 197.68 162.49 197.65 163.36 C 197.62 164.22 198.30 164.94 199.16 164.97 Z"
      fill="black"
      fill-rule="nonzero" /><path d="M 155.68 72.16 L 155.06 72.85 C 154.45 73.55 154.52 74.61 155.22 75.22 C 155.91 75.83 156.97 75.76 157.59 75.07 L 158.20 74.37 C 158.81 73.68 158.74 72.62 158.04 72.01 C 157.35 71.39 156.29 71.46 155.68 72.16 Z M 155.00 72.87 L 154.41 73.60 C 153.80 74.33 153.91 75.41 154.65 76.01 C 155.38 76.61 156.46 76.50 157.06 75.77 L 157.65 75.05 C 158.25 74.31 158.15 73.23 157.41 72.63 C 156.68 72.03 155.60 72.14 155.00 72.87 Z M 154.30 73.67 L 153.75 74.44 C 153.19 75.23 153.37 76.33 154.16 76.89 C 154.95 77.45 156.04 77.27 156.61 76.48 L 157.16 75.70 C 157.72 74.91 157.54 73.82 156.75 73.26 C 155.96 72.69 154.87 72.88 154.30 73.67 Z M 153.63 74.56 L 153.13 75.43 C 152.63 76.28 152.92 77.38 153.78 77.88 C 154.64 78.37 155.73 78.08 156.23 77.22 L 156.73 76.36 C 157.23 75.50 156.93 74.41 156.08 73.91 C 155.22 73.42 154.12 73.71 153.63 74.56 Z M 153.00 75.59 L 152.58 76.57 C 152.17 77.49 152.59 78.57 153.52 78.98 C 154.45 79.38 155.53 78.96 155.93 78.03 L 156.36 77.06 C 156.76 76.13 156.34 75.05 155.41 74.65 C 154.48 74.24 153.40 74.67 153.00 75.59 Z M 152.47 76.76 L 152.16 77.79 C 151.86 78.77 152.42 79.81 153.40 80.11 C 154.39 80.41 155.43 79.85 155.73 78.87 L 156.04 77.84 C 156.34 76.85 155.78 75.81 154.79 75.52 C 153.81 75.22 152.77 75.77 152.47 76.76 Z M 152.10 77.95 L 151.92 78.84 C 151.71 79.85 152.37 80.85 153.38 81.06 C 154.40 81.26 155.39 80.61 155.60 79.59 L 155.78 78.71 C 155.99 77.69 155.34 76.70 154.32 76.49 C 153.30 76.28 152.31 76.93 152.10 77.95 Z M 151.90 78.95 L 151.76 79.90 C 151.62 80.93 152.33 81.88 153.36 82.03 C 154.39 82.17 155.34 81.46 155.49 80.43 L 155.62 79.48 C 155.77 78.45 155.05 77.50 154.02 77.35 C 153.00 77.21 152.04 77.92 151.90 78.95 Z M 151.75 79.98 L 151.66 80.98 C 151.56 82.02 152.32 82.93 153.35 83.03 C 154.39 83.13 155.31 82.37 155.40 81.34 L 155.50 80.34 C 155.60 79.31 154.84 78.39 153.80 78.29 C 152.77 78.19 151.85 78.95 151.75 79.98 Z M 151.65 81.05 L 151.59 82.08 C 151.53 83.11 152.32 84.01 153.35 84.07 C 154.39 84.13 155.28 83.34 155.35 82.30 L 155.41 81.27 C 155.47 80.24 154.68 79.34 153.64 79.28 C 152.61 79.22 151.71 80.01 151.65 81.05 Z M 151.58 82.12 L 151.55 83.17 C 151.51 84.21 152.33 85.08 153.37 85.12 C 154.41 85.15 155.28 84.34 155.31 83.30 L 155.35 82.25 C 155.39 81.21 154.57 80.34 153.53 80.31 C 152.49 80.27 151.62 81.08 151.58 82.12 Z M 151.55 83.20 L 151.53 84.25 C 151.51 85.29 152.34 86.15 153.38 86.17 C 154.42 86.18 155.28 85.35 155.30 84.31 L 155.32 83.27 C 155.33 82.23 154.50 81.37 153.46 81.35 C 152.42 81.33 151.56 82.16 151.55 83.20 Z M 151.53 84.27 L 151.52 85.30 C 151.52 86.35 152.36 87.20 153.40 87.20 C 154.44 87.21 155.29 86.37 155.30 85.32 L 155.30 84.29 C 155.31 83.25 154.47 82.40 153.42 82.40 C 152.38 82.39 151.53 83.23 151.53 84.27 Z M 151.52 85.31 L 151.52 86.34 C 151.52 87.38 152.36 88.23 153.41 88.23 C 154.45 88.23 155.30 87.38 155.30 86.34 L 155.30 85.32 C 155.30 84.27 154.45 83.43 153.41 83.43 C 152.37 83.43 151.52 84.27 151.52 85.31 Z M 151.52 86.34 L 151.52 87.39 C 151.52 88.43 152.37 89.27 153.41 89.27 C 154.45 89.27 155.30 88.43 155.30 87.39 L 155.30 86.34 C 155.30 85.30 154.45 84.45 153.41 84.45 C 152.37 84.45 151.52 85.30 151.52 86.34 Z M 151.52 87.39 L 151.52 88.40 C 151.52 89.44 152.37 90.29 153.41 90.29 C 154.45 90.29 155.30 89.44 155.30 88.40 L 155.30 87.39 C 155.30 86.34 154.45 85.50 153.41 85.50 C 152.37 85.50 151.52 86.34 151.52 87.39 Z M 151.52 88.40 L 151.52 89.38 C 151.52 90.43 152.37 91.27 153.41 91.27 C 154.45 91.27 155.30 90.43 155.30 89.38 L 155.30 88.40 C 155.30 87.35 154.45 86.51 153.41 86.51 C 152.37 86.51 151.52 87.35 151.52 88.40 Z M 151.52 89.38 L 151.52 90.36 C 151.52 91.40 152.37 92.25 153.41 92.25 C 154.45 92.25 155.30 91.40 155.30 90.36 L 155.30 89.38 C 155.30 88.34 154.45 87.50 153.41 87.50 C 152.37 87.50 151.52 88.34 151.52 89.38 Z M 151.52 90.36 L 151.52 91.33 C 151.52 92.38 152.37 93.22 153.41 93.22 C 154.45 93.22 155.30 92.38 155.30 91.33 L 155.30 90.36 C 155.30 89.32 154.45 88.47 153.41 88.47 C 152.37 88.47 151.52 89.32 151.52 90.36 Z M 151.52 91.33 L 151.52 92.32 C 151.52 93.36 152.37 94.20 153.41 94.20 C 154.45 94.20 155.30 93.36 155.30 92.32 L 155.30 91.33 C 155.30 90.29 154.45 89.44 153.41 89.44 C 152.37 89.44 151.52 90.29 151.52 91.33 Z M 151.52 92.32 L 151.52 93.32 C 151.52 94.36 152.37 95.21 153.41 95.21 C 154.45 95.21 155.30 94.36 155.30 93.32 L 155.30 92.32 C 155.30 91.27 154.45 90.43 153.41 90.43 C 152.37 90.43 151.52 91.27 151.52 92.32 Z M 151.52 93.32 L 151.52 94.25 C 151.52 95.29 152.37 96.14 153.41 96.14 C 154.45 96.14 155.30 95.29 155.30 94.25 L 155.30 93.32 C 155.30 92.28 154.45 91.43 153.41 91.43 C 152.37 91.43 151.52 92.28 151.52 93.32 Z M 151.52 94.25 L 151.52 95.19 C 151.52 96.24 152.37 97.08 153.41 97.08 C 154.45 97.08 155.30 96.24 155.30 95.19 L 155.30 94.25 C 155.30 93.21 154.45 92.36 153.41 92.36 C 152.37 92.36 151.52 93.21 151.52 94.25 Z M 151.52 95.19 L 151.52 96.16 C 151.52 97.21 152.37 98.05 153.41 98.05 C 154.45 98.05 155.29 97.21 155.29 96.16 L 155.29 95.19 C 155.29 94.15 154.45 93.31 153.41 93.31 C 152.37 93.31 151.52 94.15 151.52 95.19 Z M 151.52 96.16 L 151.52 97.15 C 151.52 98.20 152.37 99.04 153.41 99.04 C 154.45 99.04 155.29 98.20 155.29 97.15 L 155.29 96.16 C 155.29 95.12 154.45 94.28 153.41 94.28 C 152.37 94.28 151.52 95.12 151.52 96.16 Z M 151.52 97.15 L 151.52 98.16 C 151.52 99.21 152.37 100.05 153.41 100.05 C 154.45 100.05 155.29 99.21 155.29 98.16 L 155.29 97.15 C 155.29 96.11 154.45 95.27 153.41 95.27 C 152.37 95.27 151.52 96.11 151.52 97.15 Z M 151.52 98.16 L 151.52 99.19 C 151.52 100.23 152.37 101.08 153.41 101.08 C 154.45 101.08 155.29 100.23 155.29 99.19 L 155.29 98.16 C 155.29 97.12 154.45 96.28 153.41 96.28 C 152.37 96.28 151.52 97.12 151.52 98.16 Z M 151.52 99.19 L 151.52 100.24 C 151.52 101.28 152.37 102.12 153.41 102.12 C 154.45 102.12 155.29 101.28 155.29 100.24 L 155.29 99.19 C 155.29 98.15 154.45 97.31 153.41 97.31 C 152.37 97.31 151.52 98.15 151.52 99.19 Z M 151.53 100.24 L 151.53 101.30 C 151.53 102.34 152.37 103.18 153.41 103.18 C 154.45 103.18 155.29 102.34 155.29 101.30 L 155.29 100.24 C 155.29 99.20 154.45 98.36 153.41 98.36 C 152.37 98.36 151.53 99.20 151.53 100.24 Z M 151.53 101.30 L 151.53 102.29 C 151.53 103.33 152.37 104.17 153.41 104.17 C 154.45 104.17 155.29 103.33 155.29 102.29 L 155.29 101.30 C 155.29 100.26 154.45 99.42 153.41 99.42 C 152.37 99.42 151.53 100.26 151.53 101.30 Z M 151.53 102.29 L 151.53 103.25 C 151.53 104.29 152.37 105.13 153.41 105.13 C 154.45 105.13 155.29 104.29 155.29 103.25 L 155.29 102.29 C 155.29 101.25 154.45 100.41 153.41 100.41 C 152.37 100.41 151.53 101.25 151.53 102.29 Z M 151.53 103.25 L 151.53 104.22 C 151.53 105.26 152.37 106.10 153.41 106.10 C 154.45 106.10 155.29 105.26 155.29 104.22 L 155.29 103.25 C 155.29 102.21 154.45 101.37 153.41 101.37 C 152.37 101.37 151.53 102.21 151.53 103.25 Z M 151.53 104.22 L 151.53 105.20 C 151.53 106.24 152.37 107.08 153.41 107.08 C 154.45 107.08 155.29 106.24 155.29 105.20 L 155.29 104.22 C 155.29 103.18 154.44 102.34 153.41 102.34 C 152.37 102.34 151.53 103.18 151.53 104.22 Z M 151.53 105.21 L 151.53 106.20 C 151.54 107.24 152.38 108.08 153.42 108.07 C 154.45 108.07 155.29 107.23 155.29 106.19 L 155.29 105.20 C 155.29 104.16 154.44 103.32 153.41 103.32 C 152.37 103.33 151.53 104.17 151.53 105.21 Z M 151.53 106.20 L 151.54 107.21 C 151.54 108.25 152.39 109.08 153.42 109.08 C 154.46 109.08 155.30 108.23 155.29 107.19 L 155.29 106.19 C 155.29 105.15 154.44 104.31 153.41 104.32 C 152.37 104.32 151.53 105.17 151.53 106.20 Z M 151.54 107.21 L 151.54 108.23 C 151.55 109.26 152.39 110.10 153.43 110.10 C 154.47 110.09 155.30 109.25 155.30 108.21 L 155.29 107.19 C 155.29 106.15 154.44 105.32 153.41 105.32 C 152.37 105.33 151.53 106.17 151.54 107.21 Z M 151.55 108.23 L 151.55 109.26 C 151.56 110.30 152.41 111.13 153.44 111.12 C 154.48 111.12 155.31 110.27 155.31 109.23 L 155.30 108.21 C 155.29 107.17 154.45 106.33 153.41 106.34 C 152.37 106.35 151.54 107.19 151.55 108.23 Z M 151.55 109.26 L 151.56 110.30 C 151.57 111.34 152.42 112.17 153.45 112.16 C 154.49 112.16 155.32 111.31 155.31 110.27 L 155.30 109.23 C 155.30 108.19 154.45 107.36 153.41 107.37 C 152.38 107.38 151.54 108.23 151.55 109.26 Z M 151.56 110.31 L 151.57 111.32 C 151.59 112.36 152.43 113.19 153.47 113.18 C 154.50 113.16 155.34 112.32 155.32 111.28 L 155.31 110.27 C 155.30 109.23 154.45 108.40 153.42 108.41 C 152.38 108.42 151.55 109.27 151.56 110.31 Z M 151.58 111.33 L 151.59 112.28 C 151.60 113.32 152.45 114.15 153.49 114.13 C 154.52 114.12 155.35 113.27 155.33 112.24 L 155.32 111.28 C 155.31 110.24 154.46 109.41 153.42 109.43 C 152.39 109.44 151.56 110.29 151.58 111.33 Z M 151.59 112.29 L 151.60 113.26 C 151.62 114.29 152.47 115.12 153.50 115.10 C 154.54 115.09 155.36 114.24 155.35 113.20 L 155.33 112.23 C 155.32 111.20 154.47 110.37 153.43 110.39 C 152.40 110.40 151.57 111.25 151.59 112.29 Z M 151.60 113.26 L 151.62 114.24 C 151.64 115.27 152.49 116.10 153.52 116.08 C 154.55 116.06 155.38 115.21 155.36 114.18 L 155.35 113.20 C 155.33 112.17 154.48 111.34 153.45 111.36 C 152.41 111.37 151.59 112.23 151.60 113.26 Z M 151.62 114.24 L 151.64 115.23 C 151.65 116.26 152.50 117.08 153.54 117.07 C 154.57 117.05 155.39 116.20 155.38 115.17 L 155.36 114.18 C 155.34 113.15 154.49 112.32 153.46 112.34 C 152.43 112.36 151.60 113.21 151.62 114.24 Z M 151.64 115.23 L 151.65 116.23 C 151.67 117.26 152.52 118.08 153.55 118.06 C 154.58 118.05 155.41 117.20 155.39 116.17 L 155.37 115.17 C 155.36 114.14 154.51 113.31 153.48 113.33 C 152.44 113.35 151.62 114.20 151.64 115.23 Z M 151.66 116.23 L 151.67 117.23 C 151.69 118.26 152.54 119.09 153.57 119.07 C 154.60 119.05 155.42 118.20 155.40 117.17 L 155.39 116.17 C 155.37 115.14 154.52 114.31 153.49 114.33 C 152.46 114.35 151.64 115.19 151.66 116.23 Z M 151.67 117.23 L 151.69 118.25 C 151.70 119.28 152.55 120.10 153.58 120.08 C 154.61 120.07 155.43 119.22 155.42 118.19 L 155.40 117.17 C 155.39 116.14 154.54 115.32 153.51 115.34 C 152.48 115.35 151.66 116.20 151.67 117.23 Z M 151.69 118.25 L 151.70 119.27 C 151.72 120.30 152.56 121.12 153.59 121.11 C 154.62 121.09 155.45 120.25 155.43 119.22 L 155.42 118.19 C 155.40 117.16 154.56 116.34 153.53 116.36 C 152.50 116.37 151.67 117.22 151.69 118.25 Z M 151.71 119.27 L 151.72 120.30 C 151.73 121.33 152.58 122.15 153.60 122.14 C 154.63 122.13 155.46 121.28 155.44 120.26 L 155.43 119.22 C 155.42 118.19 154.57 117.37 153.54 117.38 C 152.52 117.40 151.69 118.24 151.71 119.27 Z M 151.72 120.30 L 151.73 121.34 C 151.74 122.37 152.59 123.19 153.61 123.18 C 154.64 123.17 155.46 122.32 155.45 121.30 L 155.44 120.26 C 155.43 119.23 154.59 118.41 153.56 118.42 C 152.53 118.43 151.71 119.27 151.72 120.30 Z M 151.73 121.33 L 151.74 122.30 C 151.75 123.33 152.59 124.16 153.62 124.15 C 154.65 124.14 155.47 123.30 155.46 122.27 L 155.45 121.30 C 155.44 120.27 154.60 119.45 153.58 119.46 C 152.55 119.47 151.72 120.31 151.73 121.33 Z M 151.74 122.30 L 151.75 123.28 C 151.76 124.31 152.60 125.13 153.62 125.12 C 154.65 125.12 155.47 124.28 155.47 123.25 L 155.46 122.27 C 155.45 121.25 154.61 120.42 153.59 120.43 C 152.56 120.44 151.74 121.28 151.74 122.30 Z M 151.75 123.28 L 151.76 124.26 C 151.76 125.29 152.60 126.11 153.63 126.11 C 154.65 126.10 155.48 125.26 155.47 124.24 L 155.47 123.25 C 155.46 122.23 154.62 121.40 153.60 121.41 C 152.57 121.41 151.75 122.25 151.75 123.28 Z M 151.76 124.26 L 151.76 125.25 C 151.77 126.27 152.60 127.10 153.63 127.10 C 154.65 127.09 155.48 126.26 155.47 125.23 L 155.47 124.24 C 155.46 123.22 154.63 122.39 153.61 122.39 C 152.58 122.40 151.75 123.23 151.76 124.26 Z M 151.77 125.25 L 151.77 126.24 C 151.77 127.27 152.61 128.09 153.63 128.09 C 154.65 128.09 155.48 127.25 155.48 126.23 L 155.47 125.23 C 155.47 124.21 154.64 123.38 153.61 123.39 C 152.59 123.39 151.76 124.22 151.77 125.25 Z M 151.77 126.24 L 151.77 127.24 C 151.78 128.26 152.61 129.09 153.63 129.09 C 154.65 129.09 155.48 128.26 155.48 127.23 L 155.47 126.23 C 155.47 125.21 154.64 124.38 153.62 124.38 C 152.59 124.39 151.77 125.22 151.77 126.24 Z M 151.77 127.24 L 151.78 128.25 C 151.78 129.27 152.61 130.10 153.63 130.09 C 154.65 130.09 155.48 129.26 155.48 128.24 L 155.48 127.23 C 155.47 126.21 154.64 125.39 153.62 125.39 C 152.60 125.39 151.77 126.22 151.77 127.24 Z M 151.78 128.25 L 151.78 129.26 C 151.78 130.28 152.61 131.11 153.63 131.10 C 154.65 131.10 155.48 130.27 155.48 129.25 L 155.48 128.24 C 155.47 127.22 154.65 126.39 153.62 126.39 C 152.60 126.40 151.78 127.22 151.78 128.25 Z M 151.78 129.26 L 151.78 130.27 C 151.78 131.29 152.61 132.12 153.63 132.12 C 154.65 132.12 155.48 131.29 155.48 130.27 L 155.48 129.25 C 155.47 128.23 154.65 127.41 153.63 127.41 C 152.61 127.41 151.78 128.24 151.78 129.26 Z M 151.78 130.27 L 151.78 131.29 C 151.78 132.31 152.61 133.14 153.63 133.14 C 154.65 133.14 155.47 132.31 155.47 131.29 L 155.47 130.27 C 155.47 129.25 154.65 128.43 153.63 128.43 C 152.61 128.43 151.78 129.25 151.78 130.27 Z M 151.78 131.29 L 151.78 132.32 C 151.78 133.33 152.61 134.16 153.63 134.16 C 154.65 134.16 155.47 133.33 155.47 132.32 L 155.47 131.29 C 155.47 130.27 154.65 129.45 153.63 129.45 C 152.61 129.45 151.78 130.27 151.78 131.29 Z M 151.79 132.32 L 151.79 133.31 C 151.79 134.32 152.61 135.15 153.63 135.15 C 154.65 135.15 155.47 134.32 155.47 133.31 L 155.47 132.32 C 155.47 131.30 154.65 130.47 153.63 130.47 C 152.61 130.47 151.79 131.30 151.79 132.32 Z M 151.79 133.31 L 151.79 134.29 C 151.79 135.31 152.61 136.14 153.63 136.14 C 154.65 136.14 155.47 135.31 155.47 134.29 L 155.47 133.31 C 155.47 132.29 154.65 131.46 153.63 131.46 C 152.61 131.46 151.79 132.29 151.79 133.31 Z M 151.79 134.29 L 151.79 135.29 C 151.79 136.30 152.61 137.13 153.63 137.13 C 154.64 137.13 155.47 136.30 155.47 135.29 L 155.47 134.29 C 155.47 133.28 154.64 132.46 153.63 132.46 C 152.61 132.46 151.79 133.28 151.79 134.29 Z M 151.79 135.29 L 151.79 136.28 C 151.79 137.30 152.61 138.12 153.63 138.12 C 154.64 138.12 155.47 137.30 155.47 136.28 L 155.47 135.29 C 155.47 134.27 154.64 133.45 153.63 133.45 C 152.61 133.45 151.79 134.27 151.79 135.29 Z M 151.79 136.28 L 151.79 137.28 C 151.79 138.29 152.61 139.11 153.63 139.11 C 154.64 139.11 155.46 138.29 155.46 137.28 L 155.46 136.28 C 155.46 135.27 154.64 134.44 153.63 134.44 C 152.61 134.44 151.79 135.27 151.79 136.28 Z M 151.79 137.28 L 151.79 138.28 C 151.79 139.29 152.62 140.11 153.63 140.11 C 154.64 140.11 155.46 139.29 155.46 138.28 L 155.46 137.28 C 155.46 136.26 154.64 135.44 153.63 135.44 C 152.62 135.44 151.79 136.26 151.79 137.28 Z M 151.80 138.28 L 151.80 139.28 C 151.80 140.29 152.62 141.11 153.63 141.11 C 154.64 141.11 155.46 140.29 155.46 139.28 L 155.46 138.28 C 155.46 137.27 154.64 136.44 153.63 136.44 C 152.62 136.44 151.80 137.27 151.80 138.28 Z M 151.80 139.28 L 151.80 140.28 C 151.80 141.30 152.62 142.11 153.63 142.11 C 154.64 142.11 155.46 141.30 155.46 140.28 L 155.46 139.28 C 155.46 138.27 154.64 137.45 153.63 137.45 C 152.62 137.45 151.80 138.27 151.80 139.28 Z M 151.80 140.28 L 151.80 141.29 C 151.80 142.30 152.62 143.12 153.63 143.12 C 154.64 143.12 155.46 142.30 155.46 141.29 L 155.46 140.28 C 155.46 139.27 154.64 138.45 153.63 138.45 C 152.62 138.45 151.80 139.27 151.80 140.28 Z M 151.80 141.29 L 151.80 142.30 C 151.80 143.31 152.62 144.13 153.63 144.13 C 154.64 144.13 155.46 143.31 155.46 142.30 L 155.46 141.29 C 155.46 140.28 154.64 139.46 153.63 139.46 C 152.62 139.46 151.80 140.28 151.80 141.29 Z M 151.80 142.30 L 151.80 143.31 C 151.80 144.32 152.62 145.14 153.63 145.14 C 154.64 145.14 155.45 144.32 155.45 143.31 L 155.45 142.30 C 155.45 141.29 154.64 140.47 153.63 140.47 C 152.62 140.47 151.80 141.29 151.80 142.30 Z M 151.80 143.31 L 151.80 144.31 C 151.80 145.32 152.62 146.14 153.63 146.14 C 154.64 146.14 155.45 145.32 155.45 144.31 L 155.45 143.31 C 155.45 142.30 154.64 141.49 153.63 141.49 C 152.62 141.49 151.80 142.30 151.80 143.31 Z M 151.81 144.31 L 151.81 145.29 C 151.81 146.29 152.62 147.11 153.63 147.11 C 154.63 147.11 155.45 146.29 155.45 145.29 L 155.45 144.31 C 155.45 143.31 154.63 142.49 153.63 142.49 C 152.62 142.49 151.81 143.31 151.81 144.31 Z M 151.81 145.29 L 151.81 146.26 C 151.81 147.27 152.62 148.08 153.63 148.08 C 154.63 148.08 155.45 147.27 155.45 146.26 L 155.45 145.29 C 155.45 144.28 154.63 143.47 153.63 143.47 C 152.62 143.47 151.81 144.28 151.81 145.29 Z M 151.81 146.26 L 151.81 147.24 C 151.81 148.25 152.62 149.06 153.63 149.06 C 154.63 149.06 155.45 148.25 155.45 147.24 L 155.45 146.26 C 155.45 145.26 154.63 144.44 153.63 144.44 C 152.62 144.44 151.81 145.26 151.81 146.26 Z M 151.81 147.24 L 151.81 148.23 C 151.81 149.23 152.63 150.04 153.63 150.04 C 154.63 150.04 155.45 149.23 155.45 148.23 L 155.45 147.24 C 155.45 146.24 154.63 145.43 153.63 145.43 C 152.63 145.43 151.81 146.24 151.81 147.24 Z M 151.81 148.23 L 151.81 149.21 C 151.81 150.22 152.63 151.03 153.63 151.03 C 154.63 151.03 155.44 150.22 155.44 149.21 L 155.44 148.23 C 155.44 147.22 154.63 146.41 153.63 146.41 C 152.63 146.41 151.81 147.22 151.81 148.23 Z M 151.82 149.21 L 151.82 150.21 C 151.82 151.21 152.63 152.02 153.63 152.02 C 154.63 152.02 155.44 151.21 155.44 150.21 L 155.44 149.21 C 155.44 148.21 154.63 147.40 153.63 147.40 C 152.63 147.40 151.82 148.21 151.82 149.21 Z M 151.82 150.21 L 151.82 151.21 C 151.82 152.21 152.63 153.02 153.63 153.02 C 154.63 153.02 155.44 152.21 155.44 151.21 L 155.44 150.21 C 155.44 149.21 154.63 148.40 153.63 148.40 C 152.63 148.40 151.82 149.21 151.82 150.21 Z M 151.82 151.21 L 151.82 152.21 C 151.82 153.21 152.63 154.02 153.63 154.02 C 154.63 154.02 155.44 153.21 155.44 152.21 L 155.44 151.21 C 155.44 150.21 154.63 149.40 153.63 149.40 C 152.63 149.40 151.82 150.21 151.82 151.21 Z M 151.82 152.21 L 151.82 153.23 C 151.82 154.23 152.63 155.04 153.63 155.04 C 154.63 155.04 155.44 154.23 155.44 153.23 L 155.44 152.21 C 155.44 151.22 154.63 150.41 153.63 150.41 C 152.63 150.41 151.82 151.22 151.82 152.21 Z M 151.82 153.23 L 151.82 154.25 C 151.82 155.25 152.63 156.06 153.63 156.06 C 154.63 156.06 155.43 155.25 155.43 154.25 L 155.43 153.23 C 155.43 152.23 154.63 151.42 153.63 151.42 C 152.63 151.42 151.82 152.23 151.82 153.23 Z M 151.82 154.25 L 151.82 155.28 C 151.82 156.28 152.63 157.09 153.63 157.09 C 154.62 157.09 155.43 156.28 155.43 155.28 L 155.43 154.25 C 155.43 153.25 154.62 152.45 153.63 152.45 C 152.63 152.45 151.82 153.25 151.82 154.25 Z M 151.83 155.28 L 151.83 156.32 C 151.83 157.31 152.63 158.12 153.63 158.12 C 154.62 158.12 155.43 157.31 155.43 156.32 L 155.43 155.28 C 155.43 154.29 154.62 153.48 153.63 153.48 C 152.63 153.48 151.83 154.29 151.83 155.28 Z M 151.83 156.32 L 151.83 157.31 C 151.83 158.30 152.63 159.11 153.63 159.11 C 154.62 159.11 155.43 158.30 155.43 157.31 L 155.43 156.32 C 155.43 155.32 154.62 154.52 153.63 154.52 C 152.63 154.52 151.83 155.32 151.83 156.32 Z M 151.83 157.31 L 151.83 158.31 C 151.83 159.30 152.64 160.10 153.63 160.10 C 154.62 160.10 155.43 159.30 155.43 158.31 L 155.43 157.31 C 155.43 156.32 154.62 155.51 153.63 155.51 C 152.64 155.51 151.83 156.32 151.83 157.31 Z M 151.83 158.31 L 151.83 159.31 C 151.83 160.30 152.64 161.11 153.63 161.11 C 154.62 161.11 155.42 160.30 155.42 159.31 L 155.42 158.31 C 155.42 157.32 154.62 156.51 153.63 156.51 C 152.64 156.51 151.83 157.32 151.83 158.31 Z M 151.84 159.31 L 151.84 160.32 C 151.84 161.31 152.64 162.11 153.63 162.11 C 154.62 162.11 155.42 161.31 155.42 160.32 L 155.42 159.31 C 155.42 158.32 154.62 157.52 153.63 157.52 C 152.64 157.52 151.84 158.32 151.84 159.31 Z M 151.84 160.32 L 151.84 161.33 C 151.84 162.32 152.64 163.12 153.63 163.12 C 154.62 163.12 155.42 162.32 155.42 161.33 L 155.42 160.32 C 155.42 159.33 154.62 158.53 153.63 158.53 C 152.64 158.53 151.84 159.33 151.84 160.32 Z M 151.84 161.33 L 151.84 162.34 C 151.84 163.33 152.64 164.13 153.63 164.13 C 154.62 164.13 155.42 163.33 155.42 162.34 L 155.42 161.33 C 155.42 160.34 154.62 159.54 153.63 159.54 C 152.64 159.54 151.84 160.34 151.84 161.33 Z M 151.84 162.34 L 151.84 163.35 C 151.84 164.34 152.64 165.14 153.63 165.14 C 154.61 165.14 155.41 164.34 155.41 163.35 L 155.41 162.34 C 155.41 161.36 154.61 160.56 153.63 160.56 C 152.64 160.56 151.84 161.36 151.84 162.34 Z M 151.85 163.35 L 151.85 164.36 C 151.85 165.35 152.64 166.15 153.63 166.15 C 154.61 166.15 155.41 165.35 155.41 164.36 L 155.41 163.35 C 155.41 162.37 154.61 161.57 153.63 161.57 C 152.64 161.57 151.85 162.37 151.85 163.35 Z M 151.85 164.36 L 151.85 165.37 C 151.85 166.35 152.65 167.15 153.63 167.15 C 154.61 167.15 155.41 166.35 155.41 165.37 L 155.41 164.36 C 155.41 163.38 154.61 162.58 153.63 162.58 C 152.65 162.58 151.85 163.38 151.85 164.36 Z M 151.85 165.37 L 151.85 166.37 C 151.85 167.35 152.65 168.14 153.63 168.14 C 154.61 168.14 155.41 167.35 155.41 166.37 L 155.41 165.37 C 155.41 164.38 154.61 163.59 153.63 163.59 C 152.65 163.59 151.85 164.38 151.85 165.37 Z M 151.85 166.37 L 151.85 167.36 C 151.85 168.34 152.65 169.13 153.63 169.13 C 154.61 169.13 155.40 168.34 155.40 167.36 L 155.40 166.37 C 155.40 165.38 154.61 164.59 153.63 164.59 C 152.65 164.59 151.85 165.38 151.85 166.37 Z M 151.86 167.36 L 151.86 168.34 C 151.86 169.32 152.65 170.11 153.63 170.11 C 154.61 170.11 155.40 169.32 155.40 168.34 L 155.40 167.36 C 155.40 166.38 154.61 165.58 153.63 165.58 C 152.65 165.58 151.86 166.38 151.86 167.36 Z M 151.86 168.34 L 151.86 169.33 C 151.86 170.31 152.65 171.11 153.63 171.11 C 154.61 171.11 155.40 170.31 155.40 169.33 L 155.40 168.34 C 155.40 167.36 154.61 166.57 153.63 166.57 C 152.65 166.57 151.86 167.36 151.86 168.34 Z M 151.86 169.33 L 151.86 170.39 C 151.86 171.37 152.65 172.16 153.63 172.16 C 154.60 172.16 155.40 171.37 155.40 170.39 L 155.40 169.33 C 155.40 168.36 154.60 167.57 153.63 167.57 C 152.65 167.57 151.86 168.36 151.86 169.33 Z M 151.86 170.39 L 151.86 171.43 C 151.86 172.41 152.65 173.20 153.63 173.20 C 154.60 173.20 155.39 172.41 155.39 171.43 L 155.39 170.39 C 155.39 169.42 154.60 168.63 153.63 168.63 C 152.65 168.62 151.86 169.42 151.86 170.39 Z M 151.87 171.43 L 151.87 172.46 C 151.86 173.43 152.65 174.22 153.63 174.22 C 154.60 174.22 155.39 173.44 155.39 172.46 L 155.39 171.43 C 155.39 170.46 154.60 169.67 153.63 169.67 C 152.66 169.67 151.87 170.46 151.87 171.43 Z M 151.87 172.46 L 151.87 173.48 C 151.87 174.45 152.65 175.24 153.62 175.24 C 154.60 175.24 155.39 174.45 155.39 173.48 L 155.39 172.46 C 155.39 171.49 154.60 170.70 153.63 170.70 C 152.66 170.70 151.87 171.49 151.87 172.46 Z M 151.87 173.48 L 151.87 174.48 C 151.87 175.45 152.65 176.24 153.62 176.24 C 154.59 176.24 155.38 175.46 155.38 174.49 L 155.38 173.48 C 155.38 172.51 154.60 171.72 153.63 171.72 C 152.66 171.72 151.87 172.51 151.87 173.48 Z M 151.87 174.48 L 151.87 175.48 C 151.87 176.45 152.65 177.23 153.62 177.23 C 154.59 177.24 155.37 176.45 155.38 175.49 L 155.38 174.49 C 155.38 173.52 154.60 172.73 153.63 172.73 C 152.66 172.73 151.87 173.51 151.87 174.48 Z M 151.87 175.48 L 151.87 176.46 C 151.87 177.43 152.65 178.22 153.61 178.22 C 154.58 178.22 155.37 177.44 155.37 176.47 L 155.37 175.49 C 155.38 174.52 154.60 173.73 153.63 173.73 C 152.66 173.73 151.88 174.51 151.87 175.48 Z M 151.87 176.46 L 151.87 177.44 C 151.86 178.40 152.64 179.19 153.61 179.19 C 154.57 179.20 155.36 178.42 155.36 177.45 L 155.37 176.48 C 155.37 175.51 154.59 174.72 153.63 174.72 C 152.66 174.72 151.88 175.50 151.87 176.46 Z M 151.87 177.44 L 151.87 178.41 C 151.86 179.37 152.64 180.16 153.60 180.16 C 154.56 180.17 155.35 179.39 155.35 178.43 L 155.36 177.46 C 155.37 176.49 154.59 175.71 153.63 175.70 C 152.66 175.70 151.88 176.47 151.87 177.44 Z M 151.87 178.41 L 151.86 179.37 C 151.86 180.33 152.63 181.12 153.59 181.12 C 154.55 181.13 155.34 180.35 155.35 179.39 L 155.35 178.43 C 155.36 177.47 154.58 176.68 153.62 176.68 C 152.66 176.67 151.87 177.44 151.87 178.41 Z M 151.86 179.37 L 151.86 180.32 C 151.85 181.28 152.62 182.07 153.58 182.08 C 154.54 182.09 155.33 181.31 155.33 180.35 L 155.34 179.40 C 155.35 178.43 154.58 177.65 153.62 177.64 C 152.66 177.63 151.87 178.41 151.86 179.37 Z M 151.86 180.32 L 151.85 181.32 C 151.84 182.28 152.61 183.06 153.57 183.07 C 154.53 183.08 155.31 182.31 155.32 181.35 L 155.33 180.36 C 155.34 179.40 154.57 178.61 153.61 178.60 C 152.65 178.59 151.87 179.36 151.86 180.32 Z M 151.85 181.32 L 151.84 182.34 C 151.83 183.30 152.59 184.09 153.55 184.10 C 154.51 184.11 155.30 183.34 155.31 182.39 L 155.32 181.36 C 155.33 180.40 154.56 179.61 153.61 179.60 C 152.65 179.59 151.86 180.36 151.85 181.32 Z M 151.84 182.34 L 151.83 183.36 C 151.81 184.32 152.58 185.10 153.53 185.12 C 154.49 185.13 155.28 184.37 155.29 183.41 L 155.30 182.39 C 155.32 181.43 154.55 180.65 153.60 180.63 C 152.64 180.62 151.86 181.38 151.84 182.34 Z M 151.83 183.36 L 151.81 184.37 C 151.80 185.33 152.56 186.11 153.51 186.13 C 154.47 186.15 155.26 185.39 155.27 184.43 L 155.29 183.41 C 155.30 182.46 154.54 181.67 153.59 181.66 C 152.63 181.64 151.85 182.40 151.83 183.36 Z M 151.81 184.37 L 151.80 185.38 C 151.78 186.33 152.54 187.12 153.49 187.14 C 154.44 187.16 155.23 186.40 155.25 185.44 L 155.27 184.43 C 155.29 183.48 154.53 182.69 153.58 182.67 C 152.62 182.66 151.83 183.41 151.81 184.37 Z M 151.80 185.37 L 151.78 186.38 C 151.75 187.33 152.51 188.12 153.46 188.14 C 154.41 188.16 155.20 187.40 155.22 186.45 L 155.25 185.45 C 155.27 184.50 154.51 183.71 153.56 183.69 C 152.61 183.67 151.82 184.42 151.80 185.37 Z M 151.78 186.37 L 151.75 187.37 C 151.73 188.32 152.48 189.11 153.43 189.13 C 154.38 189.16 155.17 188.40 155.20 187.45 L 155.22 186.46 C 155.25 185.51 154.49 184.71 153.54 184.69 C 152.59 184.67 151.80 185.42 151.78 186.37 Z M 151.76 187.36 L 151.73 188.35 C 151.70 189.30 152.45 190.09 153.40 190.12 C 154.35 190.15 155.14 189.40 155.17 188.45 L 155.20 187.46 C 155.22 186.51 154.47 185.72 153.52 185.69 C 152.57 185.66 151.78 186.41 151.76 187.36 Z M 151.73 188.34 L 151.70 189.33 C 151.67 190.27 152.41 191.07 153.36 191.10 C 154.31 191.13 155.10 190.38 155.13 189.44 L 155.16 188.45 C 155.19 187.50 154.45 186.71 153.50 186.68 C 152.55 186.65 151.76 187.40 151.73 188.34 Z M 151.70 189.32 L 151.67 190.29 C 151.63 191.24 152.37 192.04 153.32 192.07 C 154.27 192.10 155.06 191.36 155.10 190.42 L 155.13 189.44 C 155.16 188.49 154.42 187.70 153.48 187.67 C 152.53 187.63 151.73 188.37 151.70 189.32 Z M 151.67 190.29 L 151.63 191.25 C 151.59 192.20 152.33 193.00 153.27 193.04 C 154.22 193.07 155.02 192.34 155.06 191.39 L 155.09 190.42 C 155.13 189.48 154.39 188.68 153.45 188.64 C 152.50 188.61 151.71 189.34 151.67 190.29 Z M 151.63 191.25 L 151.59 192.27 C 151.55 193.22 152.28 194.02 153.22 194.06 C 154.17 194.10 154.97 193.37 155.01 192.42 L 155.05 191.40 C 155.10 190.45 154.36 189.65 153.42 189.61 C 152.47 189.57 151.67 190.30 151.63 191.25 Z M 151.59 192.27 L 151.54 193.30 C 151.49 194.25 152.22 195.05 153.17 195.09 C 154.11 195.14 154.91 194.41 154.96 193.47 L 155.01 192.43 C 155.05 191.49 154.32 190.68 153.38 190.64 C 152.44 190.59 151.63 191.32 151.59 192.27 Z M 151.54 193.30 L 151.48 194.32 C 151.44 195.27 152.16 196.07 153.11 196.12 C 154.05 196.17 154.86 195.44 154.91 194.50 L 154.96 193.47 C 155.01 192.53 154.28 191.72 153.34 191.67 C 152.39 191.62 151.59 192.35 151.54 193.30 Z M 151.48 194.32 L 151.43 195.33 C 151.38 196.28 152.10 197.08 153.05 197.14 C 153.99 197.19 154.80 196.46 154.85 195.52 L 154.91 194.50 C 154.96 193.56 154.23 192.75 153.29 192.70 C 152.34 192.65 151.54 193.37 151.48 194.32 Z M 151.43 195.33 L 151.37 196.33 C 151.32 197.28 152.04 198.09 152.98 198.14 C 153.93 198.20 154.74 197.47 154.79 196.53 L 154.85 195.52 C 154.90 194.58 154.18 193.77 153.24 193.71 C 152.29 193.66 151.48 194.38 151.43 195.33 Z M 151.37 196.33 L 151.31 197.33 C 151.26 198.27 151.98 199.08 152.92 199.14 C 153.87 199.19 154.68 198.47 154.73 197.53 L 154.79 196.53 C 154.85 195.59 154.13 194.78 153.18 194.72 C 152.24 194.66 151.43 195.39 151.37 196.33 Z M 151.31 197.32 L 151.25 198.31 C 151.20 199.25 151.92 200.07 152.86 200.12 C 153.81 200.18 154.62 199.46 154.68 198.52 L 154.73 197.53 C 154.79 196.58 154.07 195.77 153.13 195.72 C 152.18 195.66 151.37 196.38 151.31 197.32 Z M 151.25 198.31 L 151.19 199.28 C 151.14 200.23 151.86 201.04 152.80 201.10 C 153.75 201.16 154.56 200.44 154.62 199.49 L 154.68 198.52 C 154.73 197.57 154.01 196.76 153.07 196.70 C 152.12 196.64 151.31 197.36 151.25 198.31 Z M 151.19 199.28 L 151.13 200.25 C 151.08 201.19 151.80 202.01 152.74 202.06 C 153.69 202.12 154.50 201.40 154.56 200.46 L 154.62 199.49 C 154.67 198.55 153.95 197.73 153.01 197.68 C 152.06 197.62 151.25 198.34 151.19 199.28 Z M 151.13 200.25 L 151.08 201.20 C 151.02 202.15 151.74 202.96 152.69 203.02 C 153.63 203.07 154.45 202.35 154.50 201.41 L 154.56 200.45 C 154.62 199.51 153.89 198.70 152.95 198.64 C 152.00 198.58 151.19 199.30 151.13 200.25 Z M 151.08 201.21 L 151.02 202.26 C 150.96 203.21 151.68 204.02 152.63 204.07 C 153.57 204.13 154.39 203.41 154.44 202.46 L 154.50 201.40 C 154.56 200.46 153.83 199.65 152.89 199.59 C 151.94 199.54 151.13 200.26 151.08 201.21 Z M 151.02 202.26 L 150.96 203.32 C 150.90 204.26 151.63 205.07 152.57 205.13 C 153.52 205.18 154.33 204.45 154.38 203.51 L 154.44 202.46 C 154.49 201.51 153.77 200.70 152.82 200.65 C 151.88 200.60 151.07 201.32 151.02 202.26 Z M 150.96 203.32 L 150.90 204.36 C 150.85 205.30 151.58 206.11 152.52 206.16 C 153.46 206.21 154.27 205.49 154.32 204.54 L 154.38 203.51 C 154.43 202.56 153.71 201.75 152.76 201.70 C 151.82 201.65 151.01 202.38 150.96 203.32 Z M 150.90 204.36 L 150.85 205.38 C 150.80 206.32 151.53 207.13 152.47 207.18 C 153.41 207.23 154.22 206.50 154.27 205.56 L 154.32 204.54 C 154.37 203.60 153.65 202.79 152.70 202.74 C 151.76 202.69 150.95 203.42 150.90 204.36 Z M 150.85 205.38 L 150.80 206.39 C 150.75 207.33 151.48 208.13 152.42 208.18 C 153.37 208.23 154.17 207.50 154.22 206.56 L 154.27 205.56 C 154.31 204.61 153.59 203.81 152.65 203.76 C 151.70 203.71 150.90 204.44 150.85 205.38 Z M 150.80 206.39 L 150.75 207.37 C 150.71 208.31 151.44 209.11 152.38 209.16 C 153.32 209.21 154.12 208.48 154.17 207.54 L 154.22 206.55 C 154.26 205.61 153.53 204.81 152.59 204.76 C 151.65 204.72 150.85 205.45 150.80 206.39 Z M 150.76 207.37 L 150.71 208.34 C 150.67 209.28 151.40 210.08 152.34 210.12 C 153.28 210.16 154.08 209.44 154.12 208.49 L 154.17 207.53 C 154.21 206.59 153.48 205.79 152.54 205.75 C 151.60 205.70 150.80 206.43 150.76 207.37 Z M 150.71 208.34 L 150.67 209.28 C 150.63 210.22 151.36 211.02 152.30 211.06 C 153.24 211.10 154.04 210.37 154.08 209.43 L 154.12 208.49 C 154.16 207.55 153.43 206.75 152.49 206.71 C 151.55 206.67 150.75 207.40 150.71 208.34 Z M 150.67 209.28 L 150.63 210.23 C 150.59 211.17 151.32 211.97 152.26 212.01 C 153.20 212.05 154.00 211.32 154.04 210.37 L 154.08 209.43 C 154.12 208.49 153.39 207.69 152.45 207.65 C 151.51 207.61 150.71 208.34 150.67 209.28 Z M 150.63 210.23 L 150.59 211.30 C 150.55 212.24 151.28 213.03 152.22 213.07 C 153.16 213.11 153.96 212.37 154.00 211.43 L 154.04 210.37 C 154.08 209.43 153.34 208.64 152.40 208.60 C 151.46 208.56 150.67 209.29 150.63 210.23 Z M 150.59 211.30 L 150.55 212.34 C 150.51 213.28 151.25 214.07 152.19 214.10 C 153.13 214.14 153.92 213.41 153.96 212.47 L 154.00 211.43 C 154.03 210.49 153.30 209.70 152.36 209.66 C 151.42 209.63 150.62 210.36 150.59 211.30 Z M 150.55 212.34 L 150.51 213.35 C 150.48 214.29 151.21 215.08 152.16 215.12 C 153.10 215.15 153.89 214.41 153.92 213.47 L 153.96 212.46 C 153.99 211.52 153.25 210.73 152.31 210.70 C 151.37 210.66 150.58 211.40 150.55 212.34 Z M 150.51 213.35 L 150.48 214.34 C 150.45 215.29 151.18 216.07 152.12 216.11 C 153.07 216.14 153.85 215.40 153.89 214.46 L 153.92 213.47 C 153.95 212.53 153.22 211.74 152.27 211.71 C 151.33 211.68 150.54 212.41 150.51 213.35 Z M 150.48 214.35 L 150.45 215.32 C 150.42 216.26 151.15 217.05 152.09 217.08 C 153.04 217.11 153.82 216.37 153.85 215.43 L 153.89 214.46 C 153.92 213.52 153.18 212.73 152.24 212.70 C 151.30 212.67 150.51 213.41 150.48 214.35 Z M 150.45 215.32 L 150.42 216.28 C 150.39 217.22 151.12 218.01 152.07 218.04 C 153.01 218.07 153.79 217.33 153.82 216.39 L 153.86 215.43 C 153.89 214.49 153.15 213.70 152.21 213.67 C 151.26 213.64 150.48 214.38 150.45 215.32 Z M 150.42 216.28 L 150.38 217.24 C 150.35 218.18 151.09 218.97 152.04 219.00 C 152.98 219.03 153.76 218.29 153.79 217.34 L 153.82 216.39 C 153.85 215.45 153.12 214.66 152.17 214.63 C 151.23 214.60 150.45 215.34 150.42 216.28 Z M 150.39 217.24 L 150.35 218.26 C 150.32 219.21 151.06 219.99 152.00 220.02 C 152.94 220.05 153.73 219.31 153.76 218.37 L 153.79 217.34 C 153.82 216.40 153.08 215.62 152.14 215.59 C 151.20 215.56 150.42 216.30 150.39 217.24 Z M 150.35 218.27 L 150.32 219.30 C 150.29 220.24 151.03 221.03 151.97 221.06 C 152.91 221.08 153.70 220.35 153.73 219.41 L 153.76 218.37 C 153.79 217.43 153.05 216.65 152.11 216.62 C 151.17 216.59 150.38 217.32 150.35 218.27 Z M 150.32 219.30 L 150.29 220.32 C 150.26 221.26 151.00 222.05 151.94 222.08 C 152.88 222.10 153.67 221.37 153.70 220.43 L 153.73 219.40 C 153.75 218.46 153.02 217.68 152.08 217.65 C 151.14 217.62 150.35 218.36 150.32 219.30 Z M 150.29 220.32 L 150.26 221.33 C 150.24 222.27 150.98 223.05 151.92 223.08 C 152.85 223.11 153.64 222.37 153.66 221.43 L 153.69 220.42 C 153.72 219.48 152.98 218.70 152.04 218.67 C 151.10 218.65 150.32 219.39 150.29 220.32 Z M 150.27 221.33 L 150.24 222.32 C 150.21 223.26 150.96 224.04 151.89 224.07 C 152.83 224.09 153.61 223.35 153.64 222.41 L 153.66 221.42 C 153.69 220.49 152.95 219.71 152.01 219.68 C 151.07 219.66 150.29 220.40 150.27 221.33 Z M 150.24 222.33 L 150.22 223.29 C 150.20 224.23 150.94 225.01 151.88 225.03 C 152.81 225.05 153.59 224.31 153.61 223.37 L 153.64 222.41 C 153.66 221.47 152.92 220.69 151.98 220.67 C 151.04 220.65 150.26 221.39 150.24 222.33 Z M 150.22 223.30 L 150.20 224.26 C 150.18 225.20 150.93 225.97 151.87 225.99 C 152.80 226.01 153.58 225.27 153.59 224.33 L 153.61 223.36 C 153.63 222.42 152.89 221.65 151.95 221.63 C 151.01 221.61 150.24 222.36 150.22 223.30 Z M 150.20 224.27 L 150.19 225.32 C 150.17 226.26 150.92 227.03 151.86 227.04 C 152.80 227.06 153.57 226.31 153.58 225.37 L 153.59 224.32 C 153.61 223.38 152.86 222.61 151.92 222.60 C 150.98 222.59 150.21 223.33 150.20 224.27 Z M 150.19 225.33 L 150.18 226.35 C 150.17 227.29 150.92 228.05 151.86 228.06 C 152.79 228.07 153.56 227.32 153.57 226.38 L 153.58 225.36 C 153.59 224.43 152.84 223.66 151.90 223.65 C 150.96 223.64 150.20 224.39 150.19 225.33 Z M 150.18 226.36 L 150.17 227.35 C 150.17 228.29 150.92 229.05 151.86 229.05 C 152.79 229.06 153.56 228.30 153.56 227.37 L 153.57 226.37 C 153.57 225.44 152.82 224.67 151.88 224.67 C 150.95 224.66 150.18 225.42 150.18 226.36 Z M 150.17 227.35 L 150.17 228.33 C 150.17 229.27 150.92 230.03 151.86 230.03 C 152.80 230.03 153.56 229.28 153.56 228.34 L 153.56 227.36 C 153.57 226.43 152.81 225.67 151.87 225.66 C 150.94 225.66 150.17 226.42 150.17 227.35 Z M 150.17 228.33 L 150.17 229.30 C 150.17 230.24 150.93 231.00 151.86 231.00 C 152.80 231.00 153.56 230.24 153.56 229.30 L 153.56 228.34 C 153.56 227.40 152.80 226.64 151.87 226.64 C 150.93 226.64 150.17 227.40 150.17 228.33 Z M 150.17 229.30 L 150.17 229.81 C 150.17 230.75 150.93 231.51 151.86 231.51 C 152.80 231.51 153.56 230.75 153.56 229.81 L 153.56 229.30 C 153.56 228.37 152.80 227.61 151.86 227.61 C 150.93 227.61 150.17 228.37 150.17 229.30 Z"
      fill="black"
      fill-rule="nonzero" /></svg>