<svg xmlns="http://www.w3.org/2000/svg" width="300" height="300" viewBox="0 0 300 300">
<path d="M 103.01 126.12 L 102.48 125.33 C 101.95 124.55 100.90 124.34 100.12 124.86 C 99.34 125.38 99.13 126.44 99.65 127.22 L 100.18 128.01 C 100.70 128.79 101.76 129.00 102.54 128.48 C 103.32 127.96 103.53 126.90 103.01 126.12 Z M 102.49 125.30 L 101.95 124.50 C 101.41 123.71 100.34 123.51 99.55 124.05 C 98.76 124.58 98.55 125.66 99.09 126.45 L 99.63 127.25 C 100.17 128.04 101.25 128.24 102.04 127.70 C 102.83 127.16 103.03 126.09 102.49 125.30 Z M 101.96 124.46 L 101.40 123.66 C 100.84 122.87 99.74 122.68 98.94 123.24 C 98.15 123.80 97.96 124.90 98.52 125.69 L 99.08 126.49 C 99.64 127.29 100.74 127.48 101.54 126.92 C 102.33 126.36 102.52 125.26 101.96 124.46 Z M 101.40 123.61 L 100.80 122.80 C 100.21 122.01 99.09 121.84 98.29 122.43 C 97.50 123.02 97.33 124.14 97.92 124.94 L 98.52 125.74 C 99.11 126.54 100.23 126.71 101.03 126.12 C 101.82 125.53 101.99 124.41 101.40 123.61 Z M 100.80 122.74 L 100.16 121.93 C 99.53 121.13 98.39 121.00 97.59 121.62 C 96.80 122.24 96.66 123.39 97.29 124.18 L 97.93 125.00 C 98.55 125.79 99.70 125.93 100.49 125.30 C 101.28 124.68 101.42 123.53 100.80 122.74 Z M 100.14 121.86 L 99.41 121.00 C 98.75 120.21 97.58 120.11 96.80 120.77 C 96.01 121.44 95.91 122.61 96.57 123.39 L 97.30 124.25 C 97.96 125.04 99.13 125.14 99.92 124.47 C 100.70 123.81 100.80 122.64 100.14 121.86 Z M 99.39 120.92 L 98.45 119.89 C 97.75 119.11 96.55 119.06 95.78 119.77 C 95.00 120.47 94.95 121.67 95.66 122.44 L 96.60 123.47 C 97.30 124.24 98.50 124.30 99.27 123.59 C 100.04 122.89 100.10 121.69 99.39 120.92 Z M 98.43 119.80 L 97.54 118.91 C 96.79 118.15 95.56 118.14 94.80 118.90 C 94.04 119.65 94.04 120.88 94.79 121.63 L 95.68 122.53 C 96.43 123.29 97.66 123.29 98.42 122.54 C 99.18 121.78 99.18 120.56 98.43 119.80 Z M 97.48 118.80 L 96.78 118.17 C 95.96 117.44 94.71 117.52 93.99 118.33 C 93.26 119.15 93.34 120.39 94.15 121.12 L 94.85 121.75 C 95.67 122.47 96.92 122.40 97.64 121.58 C 98.37 120.77 98.30 119.52 97.48 118.80 Z M 96.48 117.90 L 96.10 117.68 C 95.14 117.12 93.90 117.45 93.34 118.41 C 92.78 119.37 93.11 120.61 94.07 121.17 L 94.45 121.39 C 95.41 121.95 96.65 121.62 97.21 120.66 C 97.77 119.70 97.44 118.46 96.48 117.90 Z M 93.05 119.68 L 93.08 119.91 C 93.22 121.04 94.25 121.83 95.37 121.69 C 96.49 121.55 97.29 120.52 97.14 119.40 L 97.11 119.17 C 96.97 118.05 95.95 117.25 94.83 117.39 C 93.70 117.54 92.91 118.56 93.05 119.68 Z M 93.33 120.69 L 93.64 121.22 C 94.21 122.20 95.47 122.53 96.45 121.96 C 97.43 121.39 97.77 120.13 97.20 119.15 L 96.89 118.63 C 96.32 117.64 95.06 117.31 94.08 117.88 C 93.10 118.45 92.76 119.71 93.33 120.69 Z M 93.71 121.33 L 94.22 122.09 C 94.85 123.03 96.13 123.28 97.07 122.65 C 98.01 122.02 98.27 120.74 97.63 119.80 L 97.13 119.04 C 96.49 118.10 95.22 117.84 94.27 118.48 C 93.33 119.11 93.08 120.38 93.71 121.33 Z M 94.25 122.13 L 94.90 123.05 C 95.56 123.98 96.84 124.20 97.77 123.54 C 98.69 122.88 98.91 121.60 98.26 120.67 L 97.60 119.75 C 96.95 118.83 95.66 118.61 94.74 119.26 C 93.81 119.92 93.59 121.20 94.25 122.13 Z M 94.92 123.07 L 95.66 124.09 C 96.33 125.00 97.61 125.21 98.53 124.54 C 99.45 123.87 99.65 122.58 98.98 121.66 L 98.24 120.65 C 97.57 119.73 96.28 119.53 95.37 120.20 C 94.45 120.87 94.25 122.16 94.92 123.07 Z M 95.67 124.10 L 96.43 125.14 C 97.11 126.05 98.40 126.24 99.31 125.57 C 100.22 124.89 100.41 123.60 99.74 122.69 L 98.97 121.65 C 98.29 120.74 97.01 120.55 96.09 121.22 C 95.18 121.90 94.99 123.19 95.67 124.10 Z M 96.44 125.14 L 97.17 126.13 C 97.85 127.04 99.14 127.23 100.05 126.55 C 100.96 125.87 101.15 124.58 100.47 123.67 L 99.73 122.69 C 99.05 121.78 97.77 121.59 96.86 122.27 C 95.95 122.94 95.76 124.23 96.44 125.14 Z M 97.18 126.12 L 97.85 127.03 C 98.53 127.93 99.81 128.12 100.71 127.44 C 101.62 126.77 101.81 125.49 101.13 124.58 L 100.46 123.68 C 99.79 122.77 98.51 122.59 97.60 123.26 C 96.69 123.94 96.51 125.22 97.18 126.12 Z M 97.86 127.01 L 98.48 127.85 C 99.15 128.75 100.42 128.95 101.32 128.28 C 102.23 127.61 102.42 126.34 101.75 125.44 L 101.13 124.60 C 100.46 123.69 99.19 123.50 98.29 124.17 C 97.38 124.84 97.19 126.11 97.86 127.01 Z M 98.48 127.83 L 99.06 128.63 C 99.72 129.53 100.98 129.73 101.88 129.07 C 102.78 128.42 102.98 127.15 102.33 126.25 L 101.75 125.46 C 101.09 124.56 99.83 124.36 98.93 125.01 C 98.03 125.67 97.83 126.93 98.48 127.83 Z M 99.06 128.60 L 99.60 129.37 C 100.24 130.27 101.50 130.48 102.40 129.84 C 103.30 129.20 103.51 127.95 102.87 127.04 L 102.33 126.28 C 101.69 125.37 100.43 125.16 99.53 125.80 C 98.63 126.45 98.42 127.70 99.06 128.60 Z M 99.60 129.33 L 100.11 130.09 C 100.74 130.99 101.98 131.22 102.89 130.60 C 103.79 129.97 104.02 128.73 103.40 127.83 L 102.88 127.07 C 102.26 126.17 101.01 125.94 100.11 126.56 C 99.20 127.19 98.97 128.43 99.60 129.33 Z M 100.10 130.05 L 100.61 130.81 C 101.21 131.73 102.44 131.98 103.35 131.37 C 104.26 130.77 104.52 129.54 103.91 128.63 L 103.41 127.86 C 102.80 126.95 101.58 126.70 100.66 127.30 C 99.75 127.91 99.50 129.14 100.10 130.05 Z M 100.60 130.77 L 101.12 131.60 C 101.70 132.52 102.92 132.79 103.83 132.21 C 104.75 131.63 105.03 130.42 104.45 129.50 L 103.92 128.67 C 103.34 127.75 102.13 127.48 101.21 128.06 C 100.29 128.64 100.02 129.85 100.60 130.77 Z M 101.12 131.56 L 101.63 132.41 C 102.19 133.33 103.39 133.62 104.31 133.06 C 105.23 132.51 105.53 131.31 104.97 130.38 L 104.45 129.54 C 103.89 128.62 102.69 128.32 101.77 128.88 C 100.85 129.44 100.56 130.64 101.12 131.56 Z M 101.63 132.38 L 102.13 133.24 C 102.68 134.16 103.86 134.47 104.78 133.93 C 105.71 133.39 106.01 132.20 105.47 131.28 L 104.97 130.42 C 104.43 129.49 103.24 129.19 102.32 129.73 C 101.40 130.27 101.09 131.45 101.63 132.38 Z M 102.14 133.21 L 102.64 134.09 C 103.16 135.01 104.34 135.33 105.26 134.80 C 106.18 134.27 106.50 133.10 105.97 132.18 L 105.47 131.30 C 104.94 130.38 103.77 130.06 102.85 130.59 C 101.93 131.12 101.61 132.29 102.14 133.21 Z M 102.64 134.06 L 103.14 134.95 C 103.65 135.87 104.81 136.19 105.73 135.68 C 106.65 135.16 106.98 134.00 106.46 133.08 L 105.97 132.20 C 105.45 131.28 104.29 130.95 103.37 131.47 C 102.45 131.98 102.13 133.15 102.64 134.06 Z M 103.15 134.93 L 103.62 135.78 C 104.12 136.70 105.27 137.03 106.19 136.52 C 107.10 136.01 107.43 134.86 106.92 133.95 L 106.45 133.10 C 105.95 132.19 104.80 131.86 103.88 132.36 C 102.97 132.87 102.64 134.02 103.15 134.93 Z M 103.63 135.77 L 104.06 136.55 C 104.56 137.46 105.69 137.79 106.60 137.29 C 107.51 136.80 107.84 135.66 107.34 134.75 L 106.91 133.97 C 106.42 133.06 105.28 132.73 104.37 133.22 C 103.46 133.72 103.13 134.86 103.63 135.77 Z M 104.07 136.53 L 104.50 137.34 C 104.99 138.24 106.11 138.58 107.02 138.09 C 107.92 137.61 108.26 136.48 107.77 135.58 L 107.33 134.77 C 106.85 133.87 105.72 133.53 104.82 134.02 C 103.92 134.50 103.58 135.63 104.07 136.53 Z M 104.51 137.31 L 104.95 138.16 C 105.42 139.06 106.54 139.40 107.44 138.93 C 108.33 138.46 108.68 137.34 108.21 136.44 L 107.76 135.60 C 107.29 134.70 106.18 134.36 105.28 134.83 C 104.38 135.30 104.03 136.42 104.51 137.31 Z M 104.96 138.13 L 105.41 139.02 C 105.87 139.92 106.97 140.27 107.86 139.82 C 108.76 139.36 109.12 138.26 108.66 137.36 L 108.20 136.47 C 107.74 135.58 106.65 135.22 105.75 135.68 C 104.85 136.14 104.50 137.23 104.96 138.13 Z M 105.42 138.99 L 105.89 139.95 C 106.33 140.84 107.41 141.21 108.31 140.77 C 109.20 140.32 109.57 139.24 109.12 138.35 L 108.65 137.39 C 108.21 136.50 107.13 136.13 106.23 136.57 C 105.34 137.02 104.97 138.10 105.42 138.99 Z M 105.89 139.92 L 106.38 140.95 C 106.81 141.84 107.88 142.22 108.77 141.79 C 109.66 141.37 110.04 140.30 109.61 139.41 L 109.12 138.38 C 108.70 137.49 107.63 137.11 106.74 137.53 C 105.85 137.96 105.47 139.03 105.89 139.92 Z M 106.39 140.92 L 106.81 141.84 C 107.22 142.73 108.28 143.12 109.17 142.71 C 110.06 142.30 110.44 141.25 110.03 140.36 L 109.61 139.43 C 109.20 138.55 108.14 138.16 107.26 138.57 C 106.37 138.98 105.98 140.03 106.39 140.92 Z M 106.82 141.82 L 107.21 142.70 C 107.61 143.58 108.65 143.98 109.54 143.58 C 110.43 143.18 110.82 142.14 110.42 141.25 L 110.03 140.38 C 109.63 139.49 108.59 139.10 107.70 139.50 C 106.82 139.89 106.42 140.94 106.82 141.82 Z M 107.22 142.68 L 107.62 143.59 C 108.01 144.47 109.04 144.87 109.92 144.48 C 110.81 144.10 111.21 143.06 110.82 142.18 L 110.42 141.27 C 110.03 140.39 109.00 139.99 108.11 140.38 C 107.23 140.77 106.83 141.80 107.22 142.68 Z M 107.63 143.58 L 108.03 144.51 C 108.41 145.39 109.43 145.79 110.31 145.41 C 111.19 145.03 111.60 144.01 111.22 143.13 L 110.81 142.20 C 110.43 141.32 109.41 140.91 108.53 141.29 C 107.65 141.67 107.24 142.70 107.63 143.58 Z M 108.04 144.50 L 108.44 145.45 C 108.82 146.32 109.83 146.73 110.70 146.36 C 111.58 145.98 111.99 144.97 111.61 144.09 L 111.21 143.14 C 110.84 142.27 109.82 141.86 108.95 142.23 C 108.07 142.61 107.66 143.62 108.04 144.50 Z M 108.45 145.43 L 108.85 146.39 C 109.22 147.26 110.22 147.67 111.09 147.30 C 111.97 146.94 112.38 145.93 112.01 145.06 L 111.61 144.11 C 111.24 143.23 110.24 142.82 109.36 143.19 C 108.49 143.56 108.08 144.56 108.45 145.43 Z M 108.86 146.38 L 109.25 147.33 C 109.62 148.20 110.61 148.61 111.48 148.25 C 112.35 147.89 112.76 146.89 112.40 146.02 L 112.00 145.07 C 111.64 144.21 110.65 143.79 109.78 144.16 C 108.91 144.52 108.50 145.51 108.86 146.38 Z M 109.26 147.32 L 109.65 148.25 C 110.00 149.12 110.99 149.53 111.85 149.17 C 112.71 148.82 113.13 147.83 112.77 146.97 L 112.39 146.03 C 112.03 145.17 111.05 144.76 110.18 145.11 C 109.32 145.47 108.91 146.45 109.26 147.32 Z M 109.66 148.24 L 110.03 149.15 C 110.37 150.01 111.35 150.42 112.21 150.08 C 113.07 149.73 113.48 148.75 113.13 147.89 L 112.76 146.98 C 112.41 146.12 111.44 145.71 110.58 146.06 C 109.72 146.41 109.31 147.38 109.66 148.24 Z M 110.04 149.14 L 110.44 150.14 C 110.78 150.99 111.75 151.41 112.60 151.07 C 113.45 150.72 113.87 149.75 113.53 148.90 L 113.12 147.90 C 112.78 147.05 111.81 146.64 110.96 146.98 C 110.11 147.32 109.69 148.29 110.04 149.14 Z M 110.45 150.13 L 110.85 151.14 C 111.18 151.99 112.14 152.40 112.99 152.07 C 113.84 151.73 114.25 150.77 113.92 149.92 L 113.52 148.91 C 113.18 148.06 112.22 147.65 111.37 147.99 C 110.52 148.32 110.11 149.28 110.45 150.13 Z M 110.86 151.13 L 111.24 152.10 C 111.57 152.94 112.52 153.35 113.36 153.02 C 114.20 152.69 114.62 151.74 114.29 150.90 L 113.91 149.93 C 113.58 149.09 112.63 148.68 111.78 149.01 C 110.94 149.34 110.53 150.29 110.86 151.13 Z M 111.25 152.09 L 111.61 153.02 C 111.93 153.85 112.88 154.27 113.71 153.94 C 114.55 153.62 114.96 152.68 114.64 151.84 L 114.27 150.91 C 113.95 150.08 113.01 149.66 112.17 149.99 C 111.34 150.31 110.92 151.25 111.25 152.09 Z M 111.62 153.01 L 111.97 153.91 C 112.29 154.74 113.22 155.15 114.05 154.83 C 114.88 154.52 115.29 153.58 114.97 152.76 L 114.62 151.85 C 114.31 151.02 113.37 150.61 112.55 150.93 C 111.72 151.25 111.30 152.18 111.62 153.01 Z M 111.98 153.90 L 112.32 154.78 C 112.63 155.61 113.55 156.02 114.38 155.71 C 115.20 155.39 115.61 154.47 115.30 153.65 L 114.96 152.76 C 114.65 151.94 113.72 151.53 112.90 151.84 C 112.08 152.16 111.67 153.08 111.98 153.90 Z M 112.33 154.78 L 112.66 155.65 C 112.97 156.46 113.88 156.87 114.70 156.56 C 115.52 156.25 115.93 155.34 115.62 154.52 L 115.29 153.65 C 114.98 152.84 114.06 152.43 113.25 152.74 C 112.43 153.05 112.02 153.96 112.33 154.78 Z M 112.67 155.64 L 112.92 156.28 C 113.22 157.09 114.13 157.50 114.94 157.19 C 115.75 156.89 116.16 155.98 115.85 155.17 L 115.60 154.53 C 115.30 153.72 114.39 153.31 113.58 153.62 C 112.77 153.93 112.36 154.83 112.67 155.64 Z"
      fill="black"
      fill-rule="nonzero" /><path d="M 120.70 137.87 L 120.70 136.78 C 120.71 135.85 119.95 135.09 119.02 135.09 C 118.09 135.09 117.33 135.84 117.33 136.77 L 117.33 137.86 C 117.32 138.79 118.08 139.55 119.01 139.55 C 119.94 139.56 120.70 138.80 120.70 137.87 Z M 120.74 136.81 L 120.76 135.74 C 120.79 134.79 120.03 134.00 119.08 133.98 C 118.13 133.96 117.34 134.71 117.32 135.66 L 117.29 136.74 C 117.27 137.69 118.02 138.48 118.98 138.50 C 119.93 138.52 120.72 137.77 120.74 136.81 Z M 120.80 135.81 L 120.87 134.78 C 120.93 133.81 120.19 132.97 119.22 132.91 C 118.25 132.84 117.41 133.58 117.35 134.55 L 117.28 135.59 C 117.22 136.56 117.96 137.40 118.93 137.46 C 119.90 137.52 120.74 136.79 120.80 135.81 Z M 120.89 134.90 L 121.02 133.92 C 121.15 132.94 120.46 132.03 119.47 131.90 C 118.49 131.77 117.58 132.46 117.45 133.45 L 117.32 134.43 C 117.19 135.41 117.89 136.32 118.87 136.45 C 119.86 136.58 120.76 135.89 120.89 134.90 Z M 121.02 134.11 L 121.24 133.21 C 121.47 132.22 120.86 131.23 119.88 131.00 C 118.89 130.76 117.90 131.37 117.66 132.36 L 117.45 133.26 C 117.22 134.25 117.83 135.24 118.81 135.47 C 119.80 135.71 120.79 135.10 121.02 134.11 Z M 121.19 133.47 L 121.51 132.67 C 121.90 131.71 121.42 130.62 120.46 130.23 C 119.50 129.85 118.41 130.32 118.03 131.29 L 117.71 132.09 C 117.33 133.06 117.80 134.15 118.76 134.53 C 119.72 134.91 120.81 134.44 121.19 133.47 Z M 121.36 133.02 L 121.89 132.21 C 122.46 131.33 122.21 130.16 121.34 129.58 C 120.46 129.01 119.28 129.26 118.71 130.13 L 118.18 130.94 C 117.61 131.82 117.85 132.99 118.73 133.57 C 119.61 134.14 120.79 133.89 121.36 133.02 Z M 121.64 132.53 L 122.32 131.86 C 123.07 131.11 123.08 129.90 122.33 129.16 C 121.59 128.41 120.38 128.40 119.63 129.14 L 118.95 129.82 C 118.20 130.56 118.20 131.77 118.94 132.52 C 119.68 133.27 120.89 133.27 121.64 132.53 Z M 122.07 132.08 L 122.88 131.52 C 123.75 130.91 123.96 129.72 123.36 128.84 C 122.75 127.97 121.55 127.76 120.68 128.36 L 119.88 128.92 C 119.01 129.53 118.79 130.73 119.40 131.60 C 120.01 132.47 121.20 132.68 122.07 132.08 Z M 122.67 131.66 L 123.57 131.19 C 124.52 130.70 124.89 129.53 124.40 128.58 C 123.91 127.64 122.74 127.27 121.79 127.76 L 120.89 128.23 C 119.94 128.72 119.57 129.88 120.07 130.83 C 120.56 131.78 121.72 132.15 122.67 131.66 Z M 123.42 131.27 L 124.39 130.87 C 125.38 130.46 125.86 129.33 125.45 128.34 C 125.05 127.35 123.91 126.87 122.92 127.28 L 121.95 127.68 C 120.95 128.08 120.48 129.22 120.88 130.21 C 121.29 131.20 122.43 131.68 123.42 131.27 Z M 124.29 130.92 L 125.19 130.60 C 126.21 130.25 126.75 129.14 126.39 128.12 C 126.04 127.11 124.93 126.57 123.91 126.92 L 123.02 127.23 C 122.00 127.59 121.46 128.70 121.81 129.71 C 122.17 130.73 123.28 131.27 124.29 130.92 Z M 125.12 130.63 L 126.03 130.35 C 127.06 130.04 127.64 128.95 127.32 127.91 C 127.01 126.88 125.92 126.30 124.89 126.62 L 123.98 126.90 C 122.95 127.21 122.37 128.30 122.69 129.33 C 123.00 130.36 124.09 130.94 125.12 130.63 Z M 125.97 130.37 L 126.91 130.11 C 127.95 129.83 128.56 128.75 128.28 127.71 C 127.99 126.67 126.92 126.06 125.88 126.34 L 124.94 126.60 C 123.90 126.89 123.29 127.96 123.57 129.00 C 123.86 130.04 124.93 130.66 125.97 130.37 Z M 126.87 130.13 L 127.84 129.88 C 128.89 129.62 129.53 128.56 129.27 127.51 C 129.00 126.46 127.94 125.82 126.89 126.09 L 125.92 126.33 C 124.87 126.59 124.24 127.66 124.50 128.70 C 124.76 129.75 125.82 130.39 126.87 130.13 Z M 127.82 129.89 L 128.83 129.65 C 129.88 129.41 130.54 128.35 130.29 127.30 C 130.04 126.25 128.99 125.59 127.94 125.84 L 126.92 126.08 C 125.87 126.32 125.22 127.38 125.46 128.43 C 125.71 129.48 126.76 130.14 127.82 129.89 Z M 128.81 129.66 L 129.86 129.42 C 130.92 129.19 131.59 128.14 131.35 127.08 C 131.11 126.03 130.06 125.36 129.01 125.60 L 127.95 125.83 C 126.90 126.07 126.23 127.12 126.47 128.18 C 126.71 129.23 127.75 129.90 128.81 129.66 Z M 129.86 129.43 L 130.78 129.23 C 131.84 128.99 132.51 127.95 132.27 126.89 C 132.04 125.83 130.99 125.16 129.94 125.39 L 129.01 125.60 C 127.96 125.83 127.29 126.87 127.52 127.93 C 127.75 128.99 128.80 129.66 129.86 129.43 Z M 130.78 129.23 L 131.69 129.03 C 132.75 128.79 133.42 127.75 133.19 126.69 C 132.95 125.63 131.91 124.96 130.85 125.19 L 129.94 125.39 C 128.88 125.62 128.21 126.67 128.44 127.73 C 128.67 128.79 129.72 129.46 130.78 129.23 Z M 131.69 129.03 L 132.63 128.82 C 133.69 128.59 134.36 127.54 134.13 126.48 C 133.89 125.42 132.85 124.75 131.79 124.99 L 130.85 125.19 C 129.79 125.43 129.12 126.47 129.35 127.53 C 129.59 128.59 130.63 129.26 131.69 129.03 Z M 132.64 128.82 L 133.60 128.60 C 134.66 128.37 135.33 127.32 135.09 126.26 C 134.85 125.20 133.81 124.54 132.75 124.77 L 131.78 124.99 C 130.72 125.22 130.06 126.27 130.29 127.33 C 130.53 128.39 131.58 129.05 132.64 128.82 Z M 133.61 128.60 L 134.60 128.38 C 135.66 128.14 136.32 127.08 136.08 126.03 C 135.84 124.97 134.79 124.31 133.73 124.55 L 132.74 124.77 C 131.68 125.01 131.02 126.07 131.26 127.12 C 131.50 128.18 132.55 128.84 133.61 128.60 Z M 134.61 128.37 L 135.63 128.14 C 136.69 127.89 137.34 126.84 137.10 125.78 C 136.85 124.72 135.79 124.07 134.74 124.31 L 133.72 124.55 C 132.66 124.80 132.01 125.85 132.25 126.91 C 132.50 127.96 133.56 128.62 134.61 128.37 Z M 135.64 128.13 L 136.68 127.88 C 137.74 127.63 138.39 126.57 138.13 125.52 C 137.88 124.46 136.82 123.81 135.77 124.07 L 134.72 124.32 C 133.67 124.57 133.02 125.63 133.27 126.68 C 133.53 127.74 134.59 128.39 135.64 128.13 Z M 136.70 127.88 L 137.71 127.63 C 138.76 127.37 139.40 126.30 139.14 125.25 C 138.88 124.20 137.81 123.56 136.76 123.82 L 135.75 124.07 C 134.70 124.33 134.06 125.40 134.32 126.45 C 134.58 127.50 135.65 128.14 136.70 127.88 Z M 137.72 127.63 L 138.66 127.38 C 139.71 127.11 140.35 126.04 140.08 124.99 C 139.81 123.94 138.74 123.31 137.69 123.58 L 136.75 123.82 C 135.70 124.09 135.06 125.16 135.33 126.21 C 135.60 127.26 136.67 127.90 137.72 127.63 Z M 138.68 127.38 L 139.63 127.13 C 140.68 126.85 141.30 125.78 141.03 124.73 C 140.75 123.68 139.68 123.05 138.63 123.33 L 137.67 123.58 C 136.63 123.86 136.00 124.93 136.28 125.98 C 136.55 127.03 137.63 127.66 138.68 127.38 Z M 139.64 127.13 L 140.60 126.87 C 141.65 126.58 142.27 125.51 141.99 124.46 C 141.71 123.41 140.63 122.79 139.58 123.07 L 138.62 123.33 C 137.57 123.62 136.95 124.69 137.23 125.74 C 137.52 126.79 138.59 127.41 139.64 127.13 Z M 140.61 126.86 L 141.59 126.60 C 142.63 126.31 143.25 125.23 142.96 124.18 C 142.67 123.14 141.59 122.52 140.54 122.81 L 139.57 123.08 C 138.53 123.36 137.91 124.45 138.20 125.49 C 138.49 126.54 139.57 127.15 140.61 126.86 Z M 141.59 126.59 L 142.57 126.32 C 143.61 126.03 144.22 124.94 143.93 123.90 C 143.64 122.86 142.56 122.25 141.51 122.54 L 140.54 122.81 C 139.49 123.10 138.88 124.19 139.17 125.23 C 139.47 126.28 140.55 126.89 141.59 126.59 Z M 142.58 126.32 L 143.55 126.04 C 144.60 125.74 145.20 124.66 144.91 123.62 C 144.61 122.57 143.52 121.97 142.48 122.26 L 141.50 122.54 C 140.46 122.84 139.85 123.92 140.15 124.97 C 140.45 126.01 141.53 126.62 142.58 126.32 Z M 143.56 126.04 L 144.54 125.76 C 145.58 125.46 146.18 124.37 145.88 123.33 C 145.58 122.29 144.49 121.68 143.45 121.98 L 142.47 122.27 C 141.43 122.57 140.83 123.65 141.13 124.70 C 141.43 125.74 142.52 126.34 143.56 126.04 Z M 144.54 125.76 L 145.51 125.47 C 146.55 125.17 147.15 124.08 146.85 123.04 C 146.54 122.00 145.45 121.40 144.41 121.70 L 143.44 121.99 C 142.40 122.29 141.80 123.38 142.11 124.42 C 142.41 125.46 143.50 126.06 144.54 125.76 Z M 145.51 125.47 L 146.49 125.19 C 147.53 124.88 148.12 123.79 147.82 122.75 C 147.51 121.71 146.42 121.11 145.38 121.42 L 144.41 121.71 C 143.37 122.01 142.77 123.10 143.08 124.14 C 143.38 125.18 144.47 125.78 145.51 125.47 Z M 146.49 125.18 L 147.46 124.90 C 148.50 124.59 149.09 123.50 148.79 122.46 C 148.48 121.42 147.39 120.83 146.35 121.13 L 145.38 121.42 C 144.34 121.73 143.75 122.82 144.06 123.86 C 144.36 124.90 145.45 125.49 146.49 125.18 Z M 147.46 124.89 L 148.43 124.61 C 149.47 124.30 150.06 123.21 149.75 122.17 C 149.44 121.13 148.35 120.54 147.31 120.85 L 146.35 121.14 C 145.31 121.45 144.72 122.54 145.03 123.57 C 145.34 124.61 146.43 125.20 147.46 124.89 Z M 148.43 124.60 L 149.39 124.32 C 150.42 124.01 151.01 122.92 150.70 121.88 C 150.39 120.85 149.30 120.26 148.27 120.57 L 147.31 120.85 C 146.27 121.16 145.68 122.25 145.99 123.29 C 146.30 124.32 147.39 124.91 148.43 124.60 Z M 149.39 124.32 L 150.34 124.03 C 151.38 123.72 151.96 122.64 151.66 121.60 C 151.35 120.56 150.26 119.97 149.22 120.28 L 148.27 120.57 C 147.23 120.88 146.64 121.97 146.95 123.00 C 147.26 124.04 148.35 124.63 149.39 124.32 Z M 150.34 124.03 L 151.29 123.75 C 152.32 123.44 152.91 122.35 152.61 121.32 C 152.30 120.28 151.21 119.69 150.18 120.00 L 149.23 120.28 C 148.19 120.59 147.60 121.68 147.91 122.71 C 148.21 123.75 149.30 124.34 150.34 124.03 Z M 151.29 123.75 L 152.24 123.47 C 153.27 123.16 153.86 122.08 153.56 121.04 C 153.25 120.01 152.17 119.42 151.13 119.72 L 150.18 120.00 C 149.15 120.31 148.56 121.39 148.86 122.43 C 149.17 123.46 150.25 124.05 151.29 123.75 Z M 152.23 123.47 L 153.18 123.19 C 154.22 122.89 154.81 121.81 154.51 120.77 C 154.21 119.74 153.13 119.14 152.09 119.44 L 151.14 119.72 C 150.10 120.02 149.51 121.11 149.81 122.14 C 150.11 123.18 151.20 123.77 152.23 123.47 Z M 153.18 123.19 L 154.13 122.92 C 155.16 122.62 155.76 121.54 155.46 120.50 C 155.16 119.47 154.08 118.87 153.05 119.17 L 152.10 119.44 C 151.06 119.74 150.47 120.82 150.76 121.86 C 151.06 122.89 152.14 123.49 153.18 123.19 Z M 154.12 122.92 L 155.06 122.65 C 156.10 122.36 156.70 121.28 156.41 120.24 C 156.11 119.21 155.03 118.61 154.00 118.90 L 153.05 119.17 C 152.02 119.46 151.42 120.54 151.71 121.58 C 152.01 122.61 153.08 123.21 154.12 122.92 Z M 155.06 122.65 L 156.01 122.38 C 157.04 122.09 157.65 121.02 157.36 119.98 C 157.07 118.95 155.99 118.34 154.95 118.63 L 154.01 118.90 C 152.97 119.19 152.37 120.27 152.66 121.30 C 152.95 122.34 154.02 122.94 155.06 122.65 Z M 156.00 122.38 L 156.96 122.12 C 157.99 121.83 158.60 120.76 158.31 119.72 C 158.02 118.69 156.95 118.08 155.91 118.37 L 154.96 118.63 C 153.92 118.92 153.32 119.99 153.61 121.03 C 153.89 122.07 154.97 122.67 156.00 122.38 Z M 156.95 122.12 L 157.91 121.85 C 158.95 121.57 159.56 120.50 159.27 119.46 C 158.98 118.43 157.91 117.82 156.88 118.10 L 155.92 118.37 C 154.88 118.65 154.27 119.72 154.56 120.76 C 154.85 121.80 155.92 122.40 156.95 122.12 Z M 157.91 121.85 L 158.87 121.59 C 159.91 121.30 160.52 120.24 160.23 119.20 C 159.95 118.16 158.88 117.55 157.85 117.84 L 156.88 118.10 C 155.84 118.39 155.24 119.46 155.52 120.49 C 155.80 121.53 156.87 122.14 157.91 121.85 Z M 158.87 121.59 L 159.84 121.32 C 160.88 121.04 161.49 119.97 161.21 118.94 C 160.92 117.90 159.86 117.29 158.82 117.57 L 157.85 117.84 C 156.81 118.12 156.20 119.19 156.49 120.23 C 156.77 121.26 157.84 121.87 158.87 121.59 Z M 159.84 121.32 L 160.82 121.05 C 161.86 120.77 162.47 119.71 162.19 118.67 C 161.90 117.64 160.84 117.03 159.80 117.31 L 158.82 117.57 C 157.79 117.86 157.18 118.92 157.46 119.96 C 157.74 120.99 158.81 121.60 159.84 121.32 Z M 160.82 121.05 L 161.81 120.78 C 162.84 120.50 163.45 119.44 163.17 118.40 C 162.89 117.37 161.82 116.76 160.79 117.04 L 159.80 117.31 C 158.77 117.59 158.16 118.66 158.44 119.69 C 158.72 120.73 159.79 121.34 160.82 121.05 Z M 161.81 120.78 L 162.79 120.52 C 163.82 120.23 164.43 119.17 164.15 118.13 C 163.87 117.10 162.80 116.49 161.77 116.77 L 160.79 117.04 C 159.76 117.32 159.15 118.39 159.43 119.42 C 159.71 120.46 160.78 121.07 161.81 120.78 Z M 162.79 120.52 L 163.77 120.25 C 164.80 119.97 165.41 118.90 165.13 117.87 C 164.85 116.84 163.78 116.23 162.75 116.51 L 161.77 116.77 C 160.74 117.06 160.13 118.12 160.41 119.15 C 160.69 120.19 161.75 120.80 162.79 120.52 Z M 163.77 120.25 L 164.75 119.98 C 165.78 119.70 166.39 118.64 166.11 117.61 C 165.84 116.57 164.77 115.96 163.74 116.24 L 162.76 116.51 C 161.72 116.79 161.11 117.85 161.39 118.88 C 161.67 119.92 162.73 120.53 163.77 120.25 Z M 164.74 119.98 L 165.73 119.72 C 166.76 119.45 167.37 118.39 167.10 117.35 C 166.82 116.32 165.76 115.70 164.73 115.98 L 163.75 116.24 C 162.71 116.52 162.10 117.58 162.37 118.61 C 162.65 119.64 163.71 120.26 164.74 119.98 Z M 165.72 119.72 L 166.70 119.47 C 167.73 119.20 168.35 118.14 168.08 117.11 C 167.81 116.07 166.75 115.45 165.72 115.72 L 164.74 115.98 C 163.70 116.25 163.08 117.31 163.35 118.34 C 163.62 119.37 164.68 119.99 165.72 119.72 Z M 166.68 119.47 L 167.66 119.22 C 168.69 118.96 169.32 117.90 169.05 116.87 C 168.79 115.83 167.74 115.21 166.70 115.47 L 165.73 115.72 C 164.69 115.98 164.07 117.04 164.33 118.07 C 164.60 119.11 165.65 119.73 166.68 119.47 Z M 167.64 119.22 L 168.60 118.99 C 169.64 118.73 170.27 117.68 170.02 116.65 C 169.76 115.61 168.71 114.98 167.68 115.23 L 166.72 115.47 C 165.68 115.73 165.05 116.77 165.30 117.81 C 165.56 118.85 166.60 119.48 167.64 119.22 Z M 168.58 118.99 L 169.53 118.77 C 170.57 118.52 171.21 117.48 170.97 116.44 C 170.72 115.40 169.68 114.76 168.64 115.01 L 167.69 115.23 C 166.66 115.48 166.01 116.52 166.26 117.55 C 166.50 118.59 167.54 119.24 168.58 118.99 Z M 169.51 118.77 L 170.45 118.56 C 171.50 118.33 172.15 117.29 171.92 116.25 C 171.68 115.21 170.65 114.56 169.61 114.79 L 168.66 115.00 C 167.62 115.24 166.97 116.27 167.20 117.31 C 167.43 118.35 168.47 119.00 169.51 118.77 Z M 170.43 118.56 L 171.48 118.34 C 172.52 118.12 173.19 117.10 172.97 116.06 C 172.76 115.02 171.73 114.35 170.69 114.57 L 169.64 114.79 C 168.59 115.00 167.93 116.03 168.14 117.07 C 168.36 118.11 169.38 118.78 170.43 118.56 Z M 171.45 118.35 L 172.48 118.15 C 173.53 117.95 174.21 116.94 174.01 115.89 C 173.81 114.85 172.80 114.16 171.75 114.36 L 170.72 114.56 C 169.68 114.76 168.99 115.77 169.19 116.82 C 169.39 117.86 170.40 118.55 171.45 118.35 Z M 172.45 118.15 L 173.45 117.98 C 174.50 117.79 175.20 116.79 175.02 115.74 C 174.83 114.70 173.84 114.00 172.79 114.18 L 171.78 114.36 C 170.73 114.54 170.03 115.54 170.22 116.59 C 170.40 117.64 171.40 118.34 172.45 118.15 Z M 173.42 117.98 L 174.41 117.82 C 175.46 117.66 176.17 116.67 176.01 115.62 C 175.84 114.57 174.85 113.85 173.80 114.02 L 172.82 114.18 C 171.77 114.34 171.05 115.33 171.22 116.38 C 171.39 117.43 172.37 118.15 173.42 117.98 Z M 174.38 117.83 L 175.34 117.69 C 176.40 117.54 177.13 116.57 176.98 115.51 C 176.83 114.46 175.85 113.73 174.80 113.88 L 173.83 114.02 C 172.78 114.17 172.05 115.14 172.20 116.19 C 172.35 117.25 173.32 117.98 174.38 117.83 Z M 175.31 117.69 L 176.26 117.57 C 177.32 117.44 178.06 116.48 177.93 115.42 C 177.80 114.37 176.84 113.62 175.78 113.76 L 174.83 113.88 C 173.78 114.01 173.03 114.97 173.16 116.02 C 173.30 117.08 174.26 117.83 175.31 117.69 Z M 176.23 117.58 L 177.17 117.47 C 178.22 117.36 178.98 116.41 178.87 115.35 C 178.75 114.30 177.80 113.54 176.75 113.65 L 175.81 113.75 C 174.76 113.87 174.00 114.82 174.11 115.87 C 174.23 116.93 175.18 117.69 176.23 117.58 Z M 177.14 117.48 L 178.13 117.38 C 179.19 117.28 179.96 116.35 179.87 115.29 C 179.77 114.23 178.83 113.46 177.77 113.56 L 176.78 113.65 C 175.72 113.75 174.95 114.68 175.04 115.74 C 175.14 116.80 176.08 117.57 177.14 117.48 Z M 178.10 117.38 L 179.13 117.30 C 180.19 117.22 180.98 116.30 180.90 115.24 C 180.82 114.19 179.90 113.39 178.84 113.48 L 177.81 113.55 C 176.75 113.64 175.96 114.56 176.04 115.62 C 176.12 116.67 177.04 117.47 178.10 117.38 Z M 179.10 117.31 L 180.12 117.24 C 181.18 117.18 181.98 116.27 181.92 115.21 C 181.85 114.15 180.94 113.35 179.88 113.41 L 178.87 113.47 C 177.81 113.54 177.00 114.45 177.07 115.51 C 177.13 116.57 178.05 117.37 179.10 117.31 Z M 180.09 117.24 L 181.10 117.20 C 182.16 117.14 182.97 116.24 182.92 115.19 C 182.87 114.13 181.97 113.31 180.91 113.36 L 179.91 113.41 C 178.85 113.46 178.03 114.36 178.08 115.42 C 178.14 116.48 179.04 117.30 180.09 117.24 Z M 181.07 117.20 L 182.06 117.16 C 183.12 117.12 183.95 116.23 183.91 115.17 C 183.87 114.11 182.98 113.28 181.92 113.32 L 180.93 113.36 C 179.87 113.40 179.05 114.29 179.09 115.35 C 179.13 116.41 180.02 117.24 181.07 117.20 Z M 182.04 117.16 L 183.02 117.13 C 184.07 117.10 184.91 116.22 184.88 115.16 C 184.85 114.10 183.97 113.27 182.91 113.30 L 181.94 113.32 C 180.88 113.35 180.04 114.24 180.07 115.30 C 180.10 116.35 180.98 117.19 182.04 117.16 Z M 183.00 117.13 L 183.96 117.11 C 185.02 117.09 185.86 116.21 185.84 115.16 C 185.81 114.10 184.94 113.26 183.88 113.28 L 182.92 113.30 C 181.86 113.32 181.02 114.20 181.04 115.25 C 181.07 116.31 181.94 117.15 183.00 117.13 Z M 183.95 117.11 L 184.97 117.10 C 186.03 117.08 186.88 116.21 186.86 115.15 C 186.85 114.09 185.97 113.25 184.92 113.26 L 183.89 113.28 C 182.83 113.29 181.98 114.16 182.00 115.22 C 182.02 116.28 182.89 117.13 183.95 117.11 Z M 184.96 117.10 L 185.98 117.09 C 187.03 117.08 187.88 116.21 187.88 115.15 C 187.87 114.09 187.00 113.24 185.94 113.25 L 184.93 113.26 C 183.87 113.27 183.02 114.14 183.03 115.20 C 183.04 116.26 183.90 117.11 184.96 117.10 Z M 185.96 117.09 L 186.96 117.09 C 188.02 117.08 188.88 116.22 188.88 115.16 C 188.87 114.10 188.01 113.25 186.95 113.25 L 185.95 113.25 C 184.89 113.26 184.04 114.12 184.04 115.18 C 184.04 116.24 184.90 117.09 185.96 117.09 Z M 186.95 117.09 L 187.95 117.09 C 189.00 117.09 189.87 116.23 189.87 115.17 C 189.87 114.12 189.01 113.25 187.96 113.25 L 186.96 113.25 C 185.90 113.25 185.04 114.10 185.04 115.16 C 185.04 116.22 185.89 117.08 186.95 117.09 Z M 187.93 117.09 L 188.92 117.10 C 189.98 117.11 190.84 116.25 190.85 115.20 C 190.86 114.14 190.01 113.27 188.95 113.26 L 187.97 113.25 C 186.91 113.24 186.04 114.09 186.03 115.15 C 186.02 116.21 186.87 117.08 187.93 117.09 Z M 188.91 117.10 L 189.89 117.11 C 190.95 117.13 191.82 116.28 191.84 115.22 C 191.85 114.16 191.01 113.29 189.95 113.28 L 188.96 113.26 C 187.91 113.24 187.03 114.09 187.02 115.15 C 187.00 116.21 187.85 117.08 188.91 117.10 Z M 189.87 117.11 L 190.90 117.13 C 191.96 117.16 192.84 116.32 192.86 115.26 C 192.88 114.20 192.05 113.32 190.99 113.30 L 189.96 113.28 C 188.90 113.25 188.02 114.09 188.00 115.15 C 187.98 116.21 188.82 117.09 189.87 117.11 Z M 190.87 117.13 L 191.89 117.17 C 192.95 117.22 193.84 116.39 193.88 115.33 C 193.92 114.27 193.10 113.38 192.04 113.34 L 191.02 113.30 C 189.96 113.26 189.07 114.08 189.03 115.14 C 188.98 116.20 189.81 117.09 190.87 117.13 Z M 191.84 117.17 L 192.85 117.24 C 193.90 117.31 194.82 116.51 194.89 115.45 C 194.96 114.40 194.16 113.48 193.11 113.41 L 192.10 113.34 C 191.04 113.27 190.12 114.07 190.05 115.13 C 189.98 116.18 190.78 117.10 191.84 117.17 Z M 192.77 117.23 L 193.76 117.34 C 194.81 117.46 195.76 116.70 195.87 115.64 C 195.99 114.59 195.23 113.64 194.17 113.52 L 193.18 113.42 C 192.13 113.30 191.18 114.06 191.07 115.12 C 190.95 116.17 191.71 117.12 192.77 117.23 Z M 193.65 117.33 L 194.61 117.49 C 195.66 117.66 196.65 116.95 196.82 115.91 C 197.00 114.86 196.29 113.87 195.24 113.70 L 194.28 113.54 C 193.23 113.36 192.24 114.07 192.07 115.12 C 191.90 116.17 192.60 117.15 193.65 117.33 Z M 194.48 117.46 L 195.43 117.69 C 196.46 117.94 197.50 117.30 197.74 116.27 C 197.99 115.24 197.35 114.20 196.32 113.95 L 195.38 113.72 C 194.34 113.48 193.31 114.11 193.06 115.14 C 192.81 116.18 193.45 117.21 194.48 117.46 Z M 195.25 117.64 L 196.26 117.98 C 197.27 118.32 198.36 117.79 198.70 116.78 C 199.04 115.78 198.51 114.69 197.50 114.34 L 196.49 114.00 C 195.49 113.66 194.40 114.20 194.05 115.20 C 193.71 116.21 194.25 117.30 195.25 117.64 Z M 196.06 117.90 L 196.99 118.34 C 197.95 118.80 199.10 118.38 199.55 117.42 C 200.01 116.46 199.60 115.32 198.64 114.86 L 197.70 114.42 C 196.74 113.97 195.60 114.38 195.14 115.34 C 194.69 116.30 195.10 117.45 196.06 117.90 Z M 196.77 118.22 L 197.60 118.76 C 198.49 119.33 199.69 119.08 200.26 118.19 C 200.84 117.29 200.58 116.10 199.69 115.52 L 198.86 114.99 C 197.97 114.41 196.77 114.67 196.20 115.56 C 195.62 116.45 195.88 117.64 196.77 118.22 Z M 197.36 118.57 L 198.07 119.21 C 198.87 119.92 200.08 119.86 200.79 119.06 C 201.50 118.27 201.44 117.06 200.64 116.35 L 199.93 115.71 C 199.14 115.00 197.92 115.06 197.21 115.86 C 196.50 116.65 196.57 117.86 197.36 118.57 Z M 197.83 118.95 L 198.40 119.69 C 199.05 120.54 200.26 120.70 201.10 120.05 C 201.95 119.40 202.10 118.19 201.46 117.35 L 200.89 116.61 C 200.24 115.76 199.03 115.60 198.19 116.25 C 197.34 116.90 197.18 118.11 197.83 118.95 Z M 198.19 119.36 L 198.61 120.22 C 199.07 121.17 200.22 121.57 201.18 121.11 C 202.14 120.65 202.54 119.50 202.08 118.54 L 201.66 117.68 C 201.20 116.72 200.05 116.32 199.09 116.79 C 198.13 117.25 197.73 118.40 198.19 119.36 Z M 198.48 119.86 L 198.72 120.80 C 198.99 121.83 200.04 122.45 201.07 122.18 C 202.10 121.91 202.72 120.86 202.45 119.83 L 202.21 118.89 C 201.94 117.86 200.89 117.24 199.86 117.51 C 198.83 117.78 198.21 118.83 198.48 119.86 Z M 198.67 120.46 L 198.74 121.45 C 198.82 122.51 199.74 123.31 200.80 123.23 C 201.86 123.15 202.66 122.22 202.58 121.16 L 202.51 120.17 C 202.43 119.11 201.51 118.31 200.44 118.39 C 199.38 118.47 198.59 119.40 198.67 120.46 Z M 198.74 121.12 L 198.65 122.15 C 198.55 123.21 199.32 124.15 200.38 124.25 C 201.44 124.35 202.38 123.57 202.48 122.51 L 202.58 121.49 C 202.68 120.43 201.90 119.49 200.84 119.39 C 199.78 119.29 198.84 120.07 198.74 121.12 Z M 198.70 121.85 L 198.44 122.85 C 198.18 123.88 198.80 124.93 199.83 125.19 C 200.86 125.46 201.91 124.84 202.17 123.81 L 202.43 122.81 C 202.69 121.78 202.08 120.73 201.05 120.46 C 200.01 120.20 198.96 120.82 198.70 121.85 Z M 198.53 122.61 L 198.21 123.38 C 197.82 124.36 198.29 125.48 199.27 125.88 C 200.26 126.28 201.38 125.80 201.77 124.82 L 202.09 124.05 C 202.48 123.07 202.01 121.95 201.03 121.55 C 200.04 121.15 198.92 121.63 198.53 122.61 Z M 198.31 123.21 L 197.90 123.99 C 197.41 124.92 197.76 126.07 198.70 126.56 C 199.63 127.05 200.78 126.70 201.27 125.76 L 201.68 124.99 C 202.17 124.06 201.81 122.90 200.88 122.41 C 199.95 121.92 198.80 122.28 198.31 123.21 Z M 197.99 123.86 L 197.48 124.65 C 196.92 125.53 197.18 126.70 198.07 127.26 C 198.95 127.82 200.12 127.56 200.68 126.68 L 201.18 125.89 C 201.75 125.01 201.49 123.84 200.60 123.28 C 199.72 122.71 198.55 122.97 197.99 123.86 Z M 197.56 124.55 L 196.97 125.37 C 196.36 126.21 196.54 127.38 197.38 128.00 C 198.22 128.61 199.40 128.43 200.01 127.59 L 200.61 126.77 C 201.22 125.93 201.03 124.75 200.19 124.14 C 199.35 123.53 198.18 123.71 197.56 124.55 Z M 197.03 125.30 L 196.35 126.15 C 195.70 126.96 195.83 128.13 196.64 128.78 C 197.44 129.43 198.62 129.30 199.27 128.49 L 199.95 127.65 C 200.60 126.84 200.47 125.66 199.66 125.02 C 198.86 124.37 197.68 124.50 197.03 125.30 Z M 196.40 126.11 L 195.63 127.00 C 194.96 127.78 195.05 128.96 195.83 129.63 C 196.61 130.30 197.79 130.21 198.46 129.43 L 199.22 128.53 C 199.89 127.75 199.80 126.58 199.02 125.91 C 198.24 125.24 197.07 125.33 196.40 126.11 Z M 195.67 126.99 L 194.96 127.78 C 194.28 128.54 194.35 129.70 195.11 130.38 C 195.87 131.06 197.04 131.00 197.72 130.24 L 198.42 129.45 C 199.10 128.68 199.03 127.52 198.27 126.84 C 197.51 126.16 196.35 126.22 195.67 126.99 Z M 194.99 127.77 L 194.34 128.48 C 193.66 129.23 193.71 130.39 194.46 131.07 C 195.20 131.75 196.36 131.70 197.05 130.95 L 197.69 130.24 C 198.37 129.49 198.32 128.33 197.57 127.65 C 196.83 126.97 195.67 127.02 194.99 127.77 Z M 194.36 128.48 L 193.68 129.21 C 193.00 129.94 193.04 131.09 193.78 131.78 C 194.52 132.46 195.67 132.42 196.35 131.68 L 197.03 130.95 C 197.71 130.21 197.66 129.06 196.93 128.38 C 196.19 127.70 195.04 127.74 194.36 128.48 Z M 193.70 129.21 L 193.00 129.95 C 192.32 130.68 192.36 131.82 193.08 132.50 C 193.81 133.18 194.95 133.15 195.63 132.42 L 196.33 131.68 C 197.01 130.95 196.98 129.81 196.25 129.13 C 195.52 128.45 194.38 128.48 193.70 129.21 Z M 193.02 129.96 L 192.31 130.71 C 191.63 131.42 191.66 132.56 192.38 133.24 C 193.09 133.91 194.23 133.88 194.90 133.17 L 195.62 132.42 C 196.30 131.70 196.27 130.57 195.55 129.89 C 194.83 129.21 193.70 129.24 193.02 129.96 Z M 192.32 130.71 L 191.61 131.46 C 190.93 132.17 190.96 133.29 191.67 133.97 C 192.37 134.65 193.50 134.62 194.17 133.91 L 194.89 133.16 C 195.57 132.45 195.54 131.33 194.83 130.65 C 194.12 129.98 193.00 130.00 192.32 130.71 Z M 191.62 131.47 L 190.91 132.21 C 190.24 132.91 190.26 134.03 190.96 134.70 C 191.66 135.37 192.77 135.35 193.45 134.65 L 194.16 133.91 C 194.83 133.20 194.81 132.09 194.11 131.42 C 193.41 130.75 192.29 130.77 191.62 131.47 Z M 190.92 132.22 L 190.22 132.95 C 189.55 133.64 189.57 134.75 190.27 135.41 C 190.96 136.08 192.06 136.06 192.73 135.37 L 193.43 134.64 C 194.10 133.95 194.08 132.84 193.39 132.17 C 192.69 131.51 191.59 131.53 190.92 132.22 Z M 190.23 132.96 L 189.55 133.66 C 188.89 134.35 188.91 135.45 189.59 136.11 C 190.28 136.77 191.38 136.75 192.04 136.07 L 192.72 135.36 C 193.38 134.67 193.36 133.58 192.68 132.91 C 191.99 132.25 190.89 132.27 190.23 132.96 Z M 189.56 133.68 L 188.87 134.39 C 188.21 135.08 188.23 136.16 188.91 136.82 C 189.59 137.48 190.68 137.46 191.33 136.77 L 192.03 136.06 C 192.69 135.37 192.67 134.29 191.98 133.63 C 191.30 132.97 190.22 132.99 189.56 133.68 Z M 188.88 134.41 L 188.17 135.14 C 187.52 135.81 187.54 136.89 188.22 137.54 C 188.90 138.19 189.97 138.17 190.62 137.49 L 191.33 136.76 C 191.98 136.09 191.96 135.01 191.28 134.36 C 190.60 133.71 189.53 133.73 188.88 134.41 Z M 188.18 135.15 L 187.50 135.86 C 186.86 136.53 186.89 137.60 187.56 138.24 C 188.23 138.88 189.30 138.86 189.94 138.19 L 190.62 137.48 C 191.26 136.81 191.24 135.74 190.56 135.10 C 189.89 134.45 188.82 134.48 188.18 135.15 Z M 187.51 135.87 L 186.85 136.57 C 186.22 137.24 186.24 138.30 186.91 138.93 C 187.58 139.57 188.64 139.54 189.27 138.87 L 189.93 138.17 C 190.57 137.50 190.54 136.44 189.87 135.81 C 189.20 135.18 188.14 135.20 187.51 135.87 Z M 186.85 136.59 L 186.20 137.29 C 185.58 137.95 185.61 139.00 186.28 139.63 C 186.94 140.25 187.99 140.22 188.61 139.55 L 189.27 138.85 C 189.89 138.18 189.86 137.14 189.19 136.51 C 188.53 135.89 187.48 135.92 186.85 136.59 Z M 186.20 137.30 L 185.54 138.02 C 184.93 138.68 184.97 139.72 185.63 140.33 C 186.30 140.95 187.34 140.91 187.95 140.24 L 188.61 139.53 C 189.23 138.87 189.19 137.83 188.52 137.21 C 187.86 136.60 186.82 136.64 186.20 137.30 Z M 185.55 138.03 L 184.87 138.77 C 184.27 139.44 184.32 140.46 184.98 141.07 C 185.64 141.67 186.67 141.63 187.28 140.96 L 187.95 140.23 C 188.55 139.56 188.51 138.53 187.84 137.93 C 187.18 137.32 186.15 137.37 185.55 138.03 Z M 184.88 138.79 L 184.18 139.57 C 183.59 140.23 183.64 141.25 184.30 141.84 C 184.96 142.44 185.98 142.38 186.57 141.72 L 187.27 140.94 C 187.87 140.28 187.81 139.27 187.15 138.67 C 186.49 138.08 185.47 138.13 184.88 138.79 Z M 184.18 139.58 L 183.50 140.35 C 182.92 141.01 182.98 142.02 183.64 142.60 C 184.30 143.19 185.31 143.13 185.89 142.47 L 186.57 141.70 C 187.16 141.04 187.10 140.03 186.44 139.45 C 185.78 138.86 184.77 138.92 184.18 139.58 Z M 183.50 140.36 L 182.88 141.07 C 182.30 141.73 182.37 142.73 183.03 143.31 C 183.69 143.89 184.69 143.83 185.27 143.17 L 185.90 142.46 C 186.48 141.80 186.41 140.79 185.75 140.21 C 185.09 139.63 184.08 139.70 183.50 140.36 Z M 182.88 141.07 L 182.24 141.81 C 181.66 142.47 181.73 143.48 182.39 144.05 C 183.05 144.63 184.06 144.56 184.63 143.90 L 185.28 143.16 C 185.85 142.50 185.78 141.49 185.12 140.92 C 184.46 140.34 183.46 140.41 182.88 141.07 Z M 182.24 141.82 L 181.58 142.57 C 181.01 143.24 181.08 144.24 181.74 144.81 C 182.40 145.38 183.40 145.31 183.98 144.65 L 184.63 143.89 C 185.21 143.23 185.14 142.23 184.47 141.66 C 183.81 141.08 182.81 141.15 182.24 141.82 Z M 181.58 142.58 L 180.91 143.35 C 180.34 144.01 180.41 145.01 181.08 145.58 C 181.74 146.16 182.74 146.08 183.31 145.42 L 183.98 144.65 C 184.55 143.99 184.47 142.99 183.81 142.41 C 183.15 141.84 182.15 141.92 181.58 142.58 Z M 180.91 143.36 L 180.24 144.14 C 179.67 144.80 179.74 145.80 180.40 146.37 C 181.07 146.94 182.06 146.86 182.63 146.20 L 183.31 145.42 C 183.88 144.76 183.80 143.76 183.14 143.19 C 182.48 142.62 181.48 142.69 180.91 143.36 Z M 180.24 144.14 L 179.57 144.92 C 179.00 145.58 179.07 146.58 179.73 147.15 C 180.39 147.72 181.39 147.64 181.95 146.98 L 182.63 146.20 C 183.20 145.54 183.13 144.54 182.47 143.97 C 181.81 143.41 180.81 143.48 180.24 144.14 Z M 179.57 144.92 L 178.90 145.70 C 178.33 146.36 178.40 147.36 179.06 147.92 C 179.72 148.49 180.71 148.42 181.28 147.76 L 181.95 146.98 C 182.52 146.32 182.45 145.33 181.79 144.76 C 181.13 144.19 180.14 144.27 179.57 144.92 Z M 178.90 145.70 L 178.24 146.47 C 177.67 147.13 177.74 148.12 178.39 148.69 C 179.05 149.26 180.04 149.18 180.61 148.53 L 181.28 147.76 C 181.84 147.10 181.77 146.11 181.12 145.54 C 180.46 144.98 179.47 145.05 178.90 145.70 Z M 178.24 146.47 L 177.59 147.22 C 177.02 147.87 177.09 148.86 177.74 149.43 C 178.40 150.00 179.39 149.93 179.96 149.28 L 180.61 148.53 C 181.18 147.88 181.11 146.88 180.45 146.32 C 179.80 145.75 178.81 145.82 178.24 146.47 Z M 177.59 147.21 L 176.91 148.00 C 176.34 148.65 176.40 149.64 177.05 150.21 C 177.70 150.78 178.69 150.71 179.26 150.06 L 179.95 149.28 C 180.52 148.63 180.46 147.64 179.81 147.07 C 179.15 146.50 178.17 146.56 177.59 147.21 Z M 176.91 147.99 L 176.19 148.81 C 175.62 149.46 175.68 150.45 176.32 151.02 C 176.97 151.59 177.96 151.53 178.53 150.89 L 179.26 150.07 C 179.83 149.42 179.77 148.43 179.12 147.86 C 178.48 147.29 177.49 147.35 176.91 147.99 Z M 176.19 148.81 L 175.49 149.59 C 174.92 150.24 174.97 151.23 175.62 151.80 C 176.26 152.38 177.25 152.32 177.83 151.68 L 178.53 150.89 C 179.10 150.25 179.05 149.26 178.40 148.68 C 177.76 148.11 176.77 148.16 176.19 148.81 Z M 175.50 149.59 L 174.82 150.34 C 174.24 150.98 174.29 151.97 174.93 152.55 C 175.57 153.13 176.56 153.08 177.14 152.44 L 177.82 151.68 C 178.40 151.04 178.35 150.05 177.71 149.47 C 177.06 148.89 176.08 148.95 175.50 149.59 Z M 174.82 150.34 L 174.16 151.07 C 173.58 151.71 173.62 152.70 174.26 153.28 C 174.90 153.86 175.89 153.81 176.47 153.17 L 177.14 152.44 C 177.72 151.80 177.67 150.81 177.03 150.23 C 176.39 149.65 175.40 149.70 174.82 150.34 Z M 174.16 151.07 L 173.51 151.78 C 172.93 152.42 172.97 153.41 173.61 153.99 C 174.25 154.57 175.23 154.53 175.82 153.89 L 176.47 153.18 C 177.05 152.54 177.01 151.55 176.37 150.97 C 175.73 150.39 174.74 150.43 174.16 151.07 Z M 173.51 151.78 L 172.87 152.48 C 172.29 153.11 172.33 154.10 172.96 154.68 C 173.60 155.27 174.59 155.23 175.17 154.59 L 175.81 153.89 C 176.40 153.26 176.35 152.27 175.72 151.68 C 175.08 151.10 174.10 151.14 173.51 151.78 Z M 172.87 152.48 L 172.24 153.16 C 171.65 153.80 171.69 154.79 172.33 155.37 C 172.96 155.96 173.95 155.92 174.53 155.28 L 175.17 154.59 C 175.75 153.96 175.71 152.97 175.08 152.38 C 174.44 151.80 173.46 151.84 172.87 152.48 Z M 172.24 153.16 L 171.66 153.79 C 171.08 154.42 171.12 155.41 171.75 155.99 C 172.39 156.58 173.37 156.54 173.96 155.90 L 174.53 155.28 C 175.12 154.65 175.08 153.66 174.44 153.08 C 173.81 152.49 172.82 152.53 172.24 153.16 Z"
      fill="black"
      fill-rule="nonzero" /><path d="M 122.72 182.54 L 122.22 181.53 C 121.81 180.70 120.80 180.36 119.97 180.77 C 119.14 181.19 118.80 182.20 119.21 183.03 L 119.71 184.04 C 120.12 184.87 121.13 185.21 121.96 184.79 C 122.80 184.38 123.14 183.37 122.72 182.54 Z M 122.26 181.54 L 121.79 180.55 C 121.38 179.69 120.36 179.33 119.51 179.74 C 118.65 180.14 118.29 181.16 118.70 182.02 L 119.17 183.02 C 119.58 183.87 120.60 184.23 121.45 183.83 C 122.31 183.42 122.67 182.40 122.26 181.54 Z M 121.84 180.59 L 121.41 179.61 C 121.03 178.73 120.01 178.32 119.12 178.70 C 118.24 179.09 117.84 180.11 118.22 180.99 L 118.64 181.97 C 119.03 182.86 120.05 183.26 120.93 182.88 C 121.82 182.50 122.22 181.47 121.84 180.59 Z M 121.48 179.69 L 121.13 178.74 C 120.79 177.82 119.78 177.35 118.86 177.68 C 117.94 178.02 117.47 179.04 117.80 179.96 L 118.15 180.91 C 118.49 181.83 119.51 182.30 120.43 181.96 C 121.34 181.63 121.82 180.61 121.48 179.69 Z M 121.21 178.88 L 120.96 177.96 C 120.70 177.00 119.71 176.43 118.75 176.69 C 117.79 176.95 117.22 177.94 117.48 178.90 L 117.73 179.82 C 117.99 180.78 118.98 181.35 119.94 181.09 C 120.90 180.83 121.47 179.84 121.21 178.88 Z M 121.03 178.17 L 120.91 177.30 C 120.77 176.30 119.84 175.60 118.84 175.74 C 117.84 175.89 117.14 176.81 117.28 177.81 L 117.40 178.69 C 117.55 179.69 118.47 180.39 119.47 180.24 C 120.48 180.10 121.17 179.18 121.03 178.17 Z M 120.96 177.62 L 120.98 176.80 C 121.02 175.78 120.22 174.91 119.19 174.88 C 118.16 174.84 117.30 175.65 117.26 176.67 L 117.24 177.49 C 117.20 178.52 118.00 179.38 119.03 179.42 C 120.06 179.45 120.92 178.65 120.96 177.62 Z M 120.93 177.25 L 121.19 176.36 C 121.47 175.36 120.89 174.32 119.89 174.03 C 118.89 173.75 117.85 174.33 117.57 175.33 L 117.31 176.23 C 117.03 177.23 117.61 178.27 118.61 178.55 C 119.61 178.83 120.65 178.25 120.93 177.25 Z M 121.01 176.79 L 121.48 175.98 C 122.00 175.08 121.69 173.92 120.79 173.40 C 119.88 172.88 118.73 173.19 118.20 174.09 L 117.74 174.90 C 117.22 175.81 117.53 176.96 118.43 177.48 C 119.34 178.00 120.49 177.69 121.01 176.79 Z M 121.26 176.30 L 121.91 175.57 C 122.60 174.79 122.53 173.59 121.74 172.89 C 120.96 172.20 119.76 172.27 119.06 173.05 L 118.42 173.78 C 117.73 174.56 117.80 175.76 118.58 176.46 C 119.37 177.15 120.57 177.08 121.26 176.30 Z M 121.70 175.79 L 122.48 175.14 C 123.29 174.47 123.41 173.27 122.74 172.46 C 122.07 171.64 120.87 171.52 120.06 172.19 L 119.27 172.84 C 118.46 173.51 118.34 174.71 119.01 175.52 C 119.68 176.34 120.88 176.45 121.70 175.79 Z M 122.30 175.28 L 123.19 174.71 C 124.08 174.14 124.34 172.96 123.77 172.07 C 123.20 171.17 122.02 170.91 121.13 171.48 L 120.24 172.05 C 119.35 172.62 119.08 173.81 119.65 174.70 C 120.22 175.59 121.41 175.85 122.30 175.28 Z M 123.04 174.81 L 123.98 174.33 C 124.92 173.84 125.29 172.68 124.80 171.73 C 124.31 170.79 123.15 170.42 122.20 170.91 L 121.27 171.39 C 120.33 171.88 119.96 173.04 120.45 173.98 C 120.94 174.93 122.10 175.30 123.04 174.81 Z M 123.86 174.38 L 124.66 174.04 C 125.63 173.61 126.08 172.47 125.65 171.50 C 125.23 170.52 124.09 170.07 123.11 170.50 L 122.32 170.85 C 121.34 171.27 120.90 172.41 121.32 173.39 C 121.75 174.36 122.89 174.81 123.86 174.38 Z M 124.56 174.08 L 125.39 173.76 C 126.39 173.39 126.90 172.28 126.52 171.28 C 126.15 170.28 125.03 169.78 124.04 170.15 L 123.21 170.46 C 122.21 170.84 121.70 171.95 122.08 172.95 C 122.45 173.95 123.57 174.45 124.56 174.08 Z M 125.31 173.79 L 126.19 173.51 C 127.20 173.18 127.76 172.09 127.43 171.08 C 127.10 170.06 126.01 169.51 124.99 169.84 L 124.12 170.12 C 123.10 170.45 122.55 171.54 122.88 172.55 C 123.21 173.57 124.30 174.12 125.31 173.79 Z M 126.12 173.53 L 127.05 173.26 C 128.08 172.97 128.67 171.90 128.38 170.88 C 128.09 169.85 127.02 169.26 125.99 169.55 L 125.06 169.82 C 124.04 170.11 123.44 171.18 123.74 172.20 C 124.03 173.23 125.10 173.82 126.12 173.53 Z M 127.00 173.28 L 128.00 173.02 C 129.03 172.76 129.65 171.70 129.39 170.67 C 129.12 169.64 128.07 169.02 127.04 169.28 L 126.04 169.54 C 125.01 169.80 124.39 170.85 124.65 171.89 C 124.92 172.92 125.97 173.54 127.00 173.28 Z M 127.96 173.03 L 129.04 172.78 C 130.07 172.53 130.72 171.49 130.47 170.45 C 130.22 169.41 129.18 168.77 128.15 169.02 L 127.07 169.27 C 126.04 169.52 125.39 170.56 125.64 171.60 C 125.89 172.63 126.93 173.28 127.96 173.03 Z M 129.01 172.78 L 130.17 172.52 C 131.21 172.29 131.87 171.26 131.63 170.21 C 131.40 169.17 130.36 168.52 129.32 168.75 L 128.17 169.01 C 127.13 169.25 126.47 170.28 126.71 171.32 C 126.94 172.36 127.97 173.01 129.01 172.78 Z M 130.16 172.52 L 131.12 172.31 C 132.16 172.09 132.82 171.06 132.59 170.01 C 132.36 168.97 131.33 168.31 130.29 168.54 L 129.33 168.75 C 128.29 168.98 127.63 170.01 127.86 171.05 C 128.09 172.09 129.12 172.75 130.16 172.52 Z M 131.11 172.31 L 132.03 172.12 C 133.07 171.89 133.73 170.86 133.51 169.82 C 133.28 168.78 132.25 168.12 131.21 168.34 L 130.30 168.54 C 129.25 168.77 128.59 169.79 128.82 170.84 C 129.04 171.88 130.07 172.54 131.11 172.31 Z M 132.03 172.12 L 132.98 171.91 C 134.02 171.69 134.68 170.66 134.46 169.62 C 134.23 168.57 133.20 167.91 132.16 168.14 L 131.21 168.34 C 130.17 168.57 129.51 169.59 129.73 170.64 C 129.96 171.68 130.99 172.34 132.03 172.12 Z M 132.98 171.91 L 133.95 171.70 C 135.00 171.47 135.66 170.45 135.43 169.41 C 135.21 168.36 134.18 167.70 133.14 167.93 L 132.16 168.14 C 131.12 168.36 130.46 169.39 130.68 170.43 C 130.91 171.47 131.94 172.14 132.98 171.91 Z M 133.96 171.70 L 134.95 171.48 C 135.99 171.26 136.66 170.23 136.43 169.19 C 136.20 168.15 135.18 167.49 134.14 167.71 L 133.14 167.93 C 132.10 168.15 131.44 169.18 131.66 170.22 C 131.89 171.26 132.91 171.92 133.96 171.70 Z M 134.96 171.48 L 135.97 171.26 C 137.01 171.03 137.67 170.01 137.44 168.97 C 137.21 167.92 136.18 167.27 135.14 167.49 L 134.13 167.71 C 133.09 167.94 132.43 168.97 132.66 170.01 C 132.89 171.05 133.92 171.71 134.96 171.48 Z M 135.97 171.26 L 136.99 171.04 C 138.03 170.81 138.68 169.78 138.45 168.74 C 138.22 167.70 137.19 167.04 136.15 167.27 L 135.14 167.49 C 134.10 167.72 133.44 168.75 133.67 169.79 C 133.90 170.83 134.93 171.49 135.97 171.26 Z M 136.99 171.03 L 138.00 170.81 C 139.04 170.57 139.70 169.54 139.46 168.50 C 139.23 167.47 138.20 166.81 137.16 167.04 L 136.15 167.27 C 135.11 167.50 134.46 168.54 134.69 169.57 C 134.92 170.61 135.95 171.27 136.99 171.03 Z M 138.01 170.80 L 139.02 170.58 C 140.05 170.34 140.70 169.31 140.47 168.27 C 140.23 167.23 139.20 166.58 138.16 166.82 L 137.15 167.05 C 136.12 167.28 135.47 168.32 135.70 169.35 C 135.94 170.39 136.97 171.04 138.01 170.80 Z M 139.02 170.57 L 140.01 170.34 C 141.05 170.10 141.69 169.06 141.45 168.03 C 141.21 166.99 140.17 166.35 139.13 166.59 L 138.15 166.82 C 137.11 167.06 136.47 168.10 136.71 169.13 C 136.95 170.17 137.99 170.81 139.02 170.57 Z M 140.02 170.34 L 140.99 170.11 C 142.03 169.86 142.66 168.82 142.41 167.78 C 142.17 166.75 141.13 166.11 140.09 166.36 L 139.12 166.59 C 138.09 166.84 137.45 167.88 137.70 168.92 C 137.95 169.95 138.99 170.59 140.02 170.34 Z M 141.00 170.10 L 141.97 169.86 C 143.00 169.61 143.63 168.56 143.37 167.53 C 143.11 166.50 142.07 165.87 141.04 166.13 L 140.08 166.37 C 139.05 166.62 138.42 167.67 138.68 168.70 C 138.93 169.73 139.97 170.36 141.00 170.10 Z M 141.98 169.85 L 142.92 169.61 C 143.95 169.35 144.57 168.30 144.30 167.28 C 144.04 166.25 142.99 165.63 141.97 165.90 L 141.03 166.14 C 140.00 166.40 139.38 167.45 139.65 168.47 C 139.91 169.50 140.95 170.12 141.98 169.85 Z M 142.93 169.61 L 143.86 169.36 C 144.88 169.09 145.49 168.04 145.22 167.02 C 144.95 166.00 143.90 165.39 142.88 165.66 L 141.95 165.90 C 140.93 166.17 140.32 167.22 140.59 168.25 C 140.86 169.27 141.91 169.88 142.93 169.61 Z M 143.88 169.35 L 144.80 169.10 C 145.81 168.82 146.41 167.77 146.13 166.75 C 145.86 165.73 144.80 165.13 143.79 165.41 L 142.87 165.67 C 141.85 165.94 141.25 167.00 141.53 168.01 C 141.81 169.03 142.86 169.63 143.88 169.35 Z M 144.81 169.09 L 145.73 168.83 C 146.75 168.54 147.34 167.49 147.05 166.48 C 146.76 165.46 145.71 164.87 144.70 165.16 L 143.77 165.42 C 142.76 165.71 142.17 166.76 142.46 167.78 C 142.74 168.79 143.80 169.38 144.81 169.09 Z M 145.75 168.82 L 146.68 168.55 C 147.69 168.26 148.27 167.20 147.98 166.19 C 147.68 165.18 146.63 164.60 145.62 164.90 L 144.68 165.17 C 143.68 165.46 143.10 166.52 143.39 167.53 C 143.68 168.54 144.74 169.12 145.75 168.82 Z M 146.69 168.54 L 147.65 168.26 C 148.65 167.96 149.22 166.90 148.92 165.89 C 148.62 164.89 147.56 164.32 146.56 164.62 L 145.61 164.90 C 144.60 165.20 144.03 166.26 144.33 167.27 C 144.63 168.27 145.69 168.84 146.69 168.54 Z M 147.66 168.25 L 148.64 167.95 C 149.64 167.64 150.20 166.58 149.90 165.58 C 149.59 164.58 148.53 164.02 147.53 164.33 L 146.55 164.63 C 145.55 164.93 144.99 165.99 145.29 166.99 C 145.60 167.99 146.66 168.56 147.66 168.25 Z M 148.65 167.94 L 149.66 167.62 C 150.66 167.31 151.22 166.25 150.91 165.26 C 150.59 164.26 149.53 163.70 148.54 164.02 L 147.52 164.33 C 146.52 164.64 145.97 165.70 146.28 166.70 C 146.59 167.70 147.65 168.25 148.65 167.94 Z M 149.67 167.62 L 150.72 167.28 C 151.72 166.97 152.26 165.91 151.95 164.91 C 151.63 163.92 150.57 163.37 149.58 163.69 L 148.53 164.02 C 147.54 164.34 146.99 165.40 147.30 166.39 C 147.62 167.38 148.68 167.93 149.67 167.62 Z M 150.73 167.28 L 151.67 166.97 C 152.66 166.66 153.21 165.59 152.89 164.61 C 152.57 163.62 151.51 163.07 150.52 163.39 L 149.57 163.69 C 148.58 164.01 148.04 165.07 148.36 166.06 C 148.68 167.05 149.74 167.60 150.73 167.28 Z M 151.68 166.97 L 152.65 166.65 C 153.64 166.33 154.18 165.27 153.85 164.28 C 153.53 163.30 152.47 162.76 151.49 163.08 L 150.51 163.39 C 149.53 163.72 148.99 164.78 149.31 165.76 C 149.63 166.75 150.69 167.29 151.68 166.97 Z M 152.65 166.65 L 153.64 166.32 C 154.63 166.00 155.16 164.94 154.84 163.96 C 154.52 162.97 153.46 162.44 152.47 162.76 L 151.48 163.08 C 150.50 163.41 149.96 164.47 150.28 165.45 C 150.61 166.44 151.67 166.97 152.65 166.65 Z M 153.65 166.32 L 154.65 165.99 C 155.63 165.66 156.17 164.61 155.84 163.62 C 155.52 162.64 154.46 162.11 153.48 162.43 L 152.47 162.76 C 151.49 163.09 150.96 164.15 151.28 165.13 C 151.60 166.11 152.66 166.64 153.65 166.32 Z M 154.65 165.98 L 155.66 165.65 C 156.64 165.33 157.17 164.27 156.85 163.29 C 156.52 162.31 155.46 161.78 154.48 162.10 L 153.47 162.44 C 152.49 162.76 151.96 163.82 152.29 164.80 C 152.61 165.78 153.67 166.31 154.65 165.98 Z M 155.66 165.65 L 156.66 165.31 C 157.64 164.99 158.17 163.93 157.84 162.95 C 157.52 161.97 156.46 161.45 155.48 161.77 L 154.48 162.11 C 153.50 162.43 152.97 163.49 153.30 164.47 C 153.63 165.44 154.68 165.97 155.66 165.65 Z M 156.66 165.31 L 157.65 164.98 C 158.63 164.65 159.16 163.60 158.83 162.62 C 158.50 161.65 157.45 161.12 156.47 161.44 L 155.48 161.78 C 154.51 162.10 153.98 163.16 154.31 164.13 C 154.63 165.11 155.69 165.63 156.66 165.31 Z M 157.65 164.98 L 158.62 164.65 C 159.59 164.33 160.12 163.27 159.79 162.30 C 159.47 161.32 158.41 160.80 157.44 161.12 L 156.47 161.45 C 155.50 161.77 154.97 162.83 155.30 163.80 C 155.62 164.78 156.68 165.30 157.65 164.98 Z M 158.62 164.65 L 159.56 164.33 C 160.53 164.01 161.05 162.96 160.73 161.98 C 160.40 161.01 159.35 160.49 158.38 160.81 L 157.44 161.13 C 156.47 161.45 155.94 162.51 156.27 163.48 C 156.60 164.45 157.65 164.97 158.62 164.65 Z M 159.56 164.33 L 160.46 164.03 C 161.43 163.70 161.95 162.65 161.63 161.68 C 161.30 160.71 160.25 160.19 159.28 160.52 L 158.38 160.82 C 157.41 161.14 156.89 162.19 157.21 163.16 C 157.54 164.13 158.59 164.66 159.56 164.33 Z M 160.46 164.03 L 161.31 163.74 C 162.28 163.42 162.80 162.37 162.48 161.40 C 162.15 160.43 161.10 159.91 160.14 160.23 L 159.28 160.52 C 158.31 160.84 157.79 161.89 158.11 162.86 C 158.44 163.83 159.49 164.35 160.46 164.03 Z M 161.31 163.74 L 162.18 163.44 C 163.15 163.12 163.67 162.08 163.35 161.11 C 163.03 160.14 161.98 159.62 161.01 159.94 L 160.14 160.24 C 159.17 160.56 158.65 161.60 158.97 162.57 C 159.29 163.54 160.34 164.06 161.31 163.74 Z M 162.18 163.44 L 163.43 163.02 C 164.39 162.70 164.91 161.66 164.59 160.70 C 164.27 159.74 163.24 159.22 162.27 159.54 L 161.02 159.95 C 160.06 160.27 159.54 161.31 159.86 162.27 C 160.18 163.23 161.21 163.75 162.18 163.44 Z M 163.42 163.00 L 164.52 162.64 C 165.47 162.33 165.99 161.30 165.68 160.35 C 165.36 159.40 164.33 158.88 163.38 159.19 L 162.28 159.55 C 161.33 159.87 160.81 160.89 161.13 161.85 C 161.44 162.80 162.47 163.32 163.42 163.00 Z M 164.51 162.63 L 165.48 162.31 C 166.42 162.00 166.94 160.99 166.63 160.04 C 166.32 159.10 165.30 158.58 164.36 158.89 L 163.39 159.21 C 162.44 159.51 161.93 160.53 162.24 161.48 C 162.55 162.42 163.56 162.94 164.51 162.63 Z M 165.47 162.30 L 166.34 162.02 C 167.28 161.71 167.79 160.71 167.49 159.77 C 167.18 158.83 166.18 158.32 165.24 158.62 L 164.37 158.90 C 163.43 159.21 162.92 160.21 163.22 161.15 C 163.52 162.09 164.53 162.60 165.47 162.30 Z M 166.33 162.00 L 167.14 161.74 C 168.07 161.44 168.58 160.45 168.28 159.52 C 167.98 158.59 166.99 158.08 166.06 158.38 L 165.25 158.64 C 164.32 158.93 163.81 159.93 164.11 160.86 C 164.41 161.79 165.40 162.30 166.33 162.00 Z M 167.13 161.73 L 167.90 161.48 C 168.82 161.19 169.33 160.20 169.03 159.28 C 168.74 158.36 167.76 157.85 166.83 158.15 L 166.06 158.39 C 165.14 158.69 164.63 159.67 164.93 160.59 C 165.22 161.51 166.21 162.02 167.13 161.73 Z M 167.90 161.47 L 168.69 161.21 C 169.60 160.92 170.11 159.95 169.81 159.03 C 169.52 158.12 168.55 157.61 167.63 157.91 L 166.84 158.16 C 165.93 158.45 165.42 159.43 165.71 160.34 C 166.01 161.25 166.98 161.76 167.90 161.47 Z M 168.68 161.20 L 169.55 160.93 C 170.45 160.64 170.96 159.67 170.67 158.76 C 170.38 157.85 169.41 157.35 168.50 157.64 L 167.64 157.92 C 166.73 158.20 166.23 159.18 166.52 160.08 C 166.81 160.99 167.78 161.49 168.68 161.20 Z M 169.54 160.93 L 170.43 160.64 C 171.34 160.36 171.84 159.39 171.55 158.49 C 171.27 157.58 170.30 157.08 169.40 157.36 L 168.51 157.65 C 167.60 157.93 167.10 158.90 167.38 159.80 C 167.67 160.71 168.63 161.21 169.54 160.93 Z M 170.42 160.64 L 171.36 160.35 C 172.26 160.07 172.76 159.11 172.48 158.21 C 172.20 157.30 171.24 156.80 170.34 157.08 L 169.41 157.37 C 168.50 157.65 168.00 158.61 168.28 159.51 C 168.56 160.42 169.52 160.92 170.42 160.64 Z M 171.34 160.35 L 172.33 160.05 C 173.23 159.77 173.74 158.82 173.46 157.92 C 173.19 157.02 172.23 156.51 171.33 156.78 L 170.35 157.08 C 169.45 157.36 168.94 158.31 169.22 159.21 C 169.49 160.11 170.44 160.62 171.34 160.35 Z M 172.31 160.05 L 173.35 159.74 C 174.25 159.47 174.77 158.52 174.50 157.62 C 174.23 156.72 173.29 156.21 172.39 156.48 L 171.35 156.79 C 170.45 157.05 169.93 158.00 170.20 158.90 C 170.47 159.80 171.41 160.31 172.31 160.05 Z M 173.34 159.73 L 174.39 159.43 C 175.29 159.17 175.81 158.23 175.55 157.33 C 175.29 156.44 174.35 155.92 173.45 156.18 L 172.40 156.48 C 171.50 156.74 170.98 157.68 171.24 158.58 C 171.50 159.47 172.44 159.99 173.34 159.73 Z M 174.38 159.43 L 175.29 159.17 C 176.19 158.92 176.72 157.99 176.46 157.09 C 176.21 156.19 175.28 155.67 174.38 155.92 L 173.47 156.18 C 172.57 156.43 172.05 157.36 172.30 158.26 C 172.55 159.16 173.48 159.68 174.38 159.43 Z M 175.28 159.17 L 176.23 158.91 C 177.13 158.66 177.66 157.74 177.41 156.84 C 177.17 155.94 176.24 155.42 175.34 155.66 L 174.39 155.92 C 173.50 156.17 172.97 157.09 173.21 157.99 C 173.46 158.89 174.39 159.42 175.28 159.17 Z M 176.22 158.91 L 177.20 158.65 C 178.09 158.41 178.63 157.49 178.39 156.59 C 178.15 155.70 177.23 155.16 176.33 155.40 L 175.36 155.66 C 174.46 155.90 173.93 156.82 174.17 157.72 C 174.40 158.62 175.33 159.15 176.22 158.91 Z M 177.18 158.65 L 178.18 158.39 C 179.07 158.16 179.61 157.24 179.38 156.35 C 179.14 155.45 178.23 154.91 177.33 155.15 L 176.34 155.40 C 175.45 155.64 174.91 156.55 175.14 157.45 C 175.37 158.34 176.29 158.88 177.18 158.65 Z M 178.16 158.39 L 179.16 158.14 C 180.05 157.91 180.60 157.01 180.37 156.11 C 180.15 155.21 179.24 154.67 178.34 154.90 L 177.35 155.15 C 176.45 155.37 175.91 156.28 176.13 157.18 C 176.36 158.07 177.27 158.62 178.16 158.39 Z M 179.14 158.14 L 180.14 157.90 C 181.03 157.68 181.58 156.78 181.37 155.88 C 181.15 154.99 180.25 154.44 179.35 154.66 L 178.36 154.90 C 177.46 155.11 176.91 156.02 177.13 156.91 C 177.35 157.81 178.25 158.36 179.14 158.14 Z M 180.12 157.90 L 181.10 157.67 C 182.00 157.46 182.55 156.57 182.35 155.67 C 182.14 154.77 181.24 154.22 180.35 154.43 L 179.37 154.66 C 178.47 154.86 177.91 155.76 178.12 156.66 C 178.33 157.55 179.23 158.11 180.12 157.90 Z M 181.08 157.67 L 182.08 157.45 C 182.97 157.25 183.54 156.36 183.34 155.47 C 183.14 154.57 182.25 154.01 181.36 154.21 L 180.37 154.43 C 179.47 154.63 178.91 155.51 179.10 156.41 C 179.30 157.30 180.19 157.87 181.08 157.67 Z M 182.06 157.45 L 183.08 157.23 C 183.98 157.05 184.55 156.17 184.36 155.28 C 184.18 154.38 183.30 153.81 182.41 153.99 L 181.38 154.21 C 180.49 154.40 179.91 155.27 180.10 156.17 C 180.29 157.06 181.16 157.63 182.06 157.45 Z M 183.06 157.23 L 184.06 157.04 C 184.95 156.86 185.53 156.00 185.36 155.11 C 185.19 154.21 184.32 153.63 183.43 153.80 L 182.43 154.00 C 181.54 154.17 180.95 155.03 181.13 155.93 C 181.30 156.82 182.16 157.40 183.06 157.23 Z M 184.03 157.03 L 185.01 156.86 C 185.90 156.70 186.50 155.85 186.34 154.96 C 186.18 154.07 185.33 153.47 184.44 153.63 L 183.46 153.81 C 182.56 153.97 181.97 154.82 182.13 155.71 C 182.29 156.60 183.14 157.19 184.03 157.03 Z M 184.99 156.86 L 185.96 156.70 C 186.85 156.55 187.45 155.72 187.30 154.83 C 187.16 153.94 186.32 153.33 185.43 153.48 L 184.46 153.63 C 183.57 153.78 182.97 154.62 183.11 155.51 C 183.26 156.40 184.10 157.00 184.99 156.86 Z M 185.93 156.70 L 186.89 156.55 C 187.78 156.42 188.39 155.60 188.27 154.71 C 188.14 153.82 187.31 153.21 186.42 153.34 L 185.46 153.48 C 184.57 153.61 183.96 154.43 184.09 155.32 C 184.22 156.21 185.04 156.83 185.93 156.70 Z M 186.87 156.55 L 187.83 156.43 C 188.72 156.31 189.34 155.50 189.23 154.61 C 189.11 153.73 188.30 153.10 187.41 153.22 L 186.45 153.34 C 185.56 153.46 184.94 154.27 185.05 155.16 C 185.17 156.04 185.98 156.67 186.87 156.55 Z M 187.81 156.42 L 188.78 156.31 C 189.66 156.21 190.29 155.41 190.19 154.53 C 190.09 153.64 189.29 153.01 188.41 153.11 L 187.44 153.22 C 186.55 153.32 185.92 154.12 186.02 155.00 C 186.12 155.89 186.92 156.52 187.81 156.42 Z M 188.75 156.31 L 189.73 156.21 C 190.61 156.12 191.25 155.33 191.16 154.45 C 191.08 153.57 190.29 152.92 189.41 153.01 L 188.43 153.11 C 187.55 153.20 186.91 153.99 187.00 154.87 C 187.08 155.75 187.87 156.40 188.75 156.31 Z M 189.71 156.20 L 190.70 156.12 C 191.58 156.04 192.23 155.26 192.15 154.38 C 192.07 153.50 191.29 152.85 190.41 152.93 L 189.43 153.02 C 188.55 153.10 187.90 153.87 187.97 154.75 C 188.05 155.63 188.83 156.28 189.71 156.20 Z M 190.68 156.11 L 191.67 156.03 C 192.55 155.96 193.21 155.20 193.14 154.32 C 193.07 153.44 192.30 152.78 191.42 152.85 L 190.43 152.93 C 189.55 153.00 188.89 153.77 188.96 154.65 C 189.03 155.53 189.80 156.18 190.68 156.11 Z M 191.66 156.03 L 192.66 155.96 C 193.54 155.90 194.20 155.13 194.14 154.26 C 194.07 153.38 193.31 152.72 192.44 152.79 L 191.43 152.86 C 190.56 152.92 189.90 153.68 189.96 154.56 C 190.02 155.43 190.79 156.09 191.66 156.03 Z M 192.65 155.95 L 193.66 155.89 C 194.54 155.83 195.20 155.07 195.14 154.20 C 195.08 153.33 194.33 152.67 193.45 152.72 L 192.44 152.79 C 191.57 152.85 190.91 153.60 190.97 154.48 C 191.02 155.35 191.78 156.01 192.65 155.95 Z M 193.66 155.88 L 194.67 155.82 C 195.54 155.77 196.20 155.01 196.14 154.14 C 196.09 153.27 195.34 152.61 194.47 152.66 L 193.46 152.73 C 192.59 152.78 191.92 153.53 191.98 154.40 C 192.03 155.28 192.78 155.94 193.66 155.88 Z M 194.66 155.82 L 195.62 155.76 C 196.49 155.70 197.15 154.96 197.09 154.09 C 197.04 153.22 196.29 152.56 195.42 152.61 L 194.47 152.67 C 193.60 152.72 192.94 153.47 192.99 154.34 C 193.05 155.21 193.79 155.87 194.66 155.82 Z"
      fill="black"
      fill-rule="nonzero" /><path d="M 153.47 75.32 L 152.43 75.42 C 151.49 75.50 150.80 76.33 150.89 77.27 C 150.98 78.20 151.80 78.89 152.74 78.80 L 153.78 78.71 C 154.72 78.62 155.41 77.79 155.32 76.86 C 155.24 75.92 154.41 75.23 153.47 75.32 Z M 152.33 75.40 L 151.32 75.54 C 150.37 75.68 149.72 76.56 149.86 77.51 C 149.99 78.45 150.87 79.11 151.82 78.97 L 152.83 78.82 C 153.78 78.69 154.44 77.81 154.30 76.86 C 154.16 75.91 153.28 75.26 152.33 75.40 Z M 151.12 75.55 L 150.17 75.80 C 149.23 76.05 148.66 77.02 148.91 77.96 C 149.16 78.90 150.13 79.46 151.07 79.22 L 152.02 78.96 C 152.96 78.72 153.53 77.75 153.28 76.81 C 153.03 75.87 152.06 75.30 151.12 75.55 Z M 149.85 75.88 L 148.99 76.29 C 148.10 76.71 147.71 77.78 148.14 78.68 C 148.56 79.58 149.63 79.96 150.53 79.54 L 151.39 79.13 C 152.29 78.71 152.67 77.64 152.25 76.74 C 151.82 75.84 150.75 75.46 149.85 75.88 Z M 148.59 76.51 L 147.86 77.12 C 147.08 77.77 146.97 78.92 147.62 79.70 C 148.27 80.47 149.42 80.58 150.20 79.93 L 150.93 79.32 C 151.71 78.67 151.81 77.52 151.17 76.74 C 150.52 75.97 149.37 75.86 148.59 76.51 Z M 147.53 77.44 L 147.06 78.08 C 146.46 78.91 146.64 80.07 147.47 80.67 C 148.30 81.27 149.45 81.09 150.05 80.26 L 150.52 79.61 C 151.12 78.79 150.94 77.63 150.12 77.03 C 149.29 76.43 148.13 76.61 147.53 77.44 Z M 146.89 78.35 L 146.51 79.13 C 146.05 80.05 146.44 81.16 147.36 81.62 C 148.28 82.07 149.40 81.69 149.85 80.76 L 150.23 79.99 C 150.68 79.07 150.30 77.95 149.38 77.50 C 148.45 77.05 147.34 77.43 146.89 78.35 Z M 146.41 79.34 L 146.10 80.23 C 145.77 81.21 146.29 82.27 147.26 82.61 C 148.24 82.94 149.31 82.42 149.64 81.44 L 149.95 80.55 C 150.28 79.57 149.76 78.51 148.78 78.18 C 147.81 77.84 146.74 78.36 146.41 79.34 Z M 146.04 80.39 L 145.80 81.39 C 145.56 82.40 146.18 83.41 147.19 83.66 C 148.19 83.90 149.21 83.28 149.46 82.28 L 149.70 81.28 C 149.94 80.27 149.32 79.26 148.32 79.01 C 147.31 78.77 146.29 79.38 146.04 80.39 Z M 145.77 81.51 L 145.58 82.58 C 145.40 83.61 146.09 84.59 147.12 84.77 C 148.15 84.95 149.13 84.26 149.30 83.23 L 149.49 82.15 C 149.67 81.13 148.98 80.15 147.95 79.97 C 146.92 79.79 145.95 80.48 145.77 81.51 Z M 145.56 82.67 L 145.42 83.81 C 145.29 84.86 146.03 85.80 147.07 85.93 C 148.11 86.06 149.06 85.32 149.19 84.28 L 149.33 83.14 C 149.46 82.10 148.72 81.15 147.68 81.02 C 146.64 80.89 145.69 81.63 145.56 82.67 Z M 145.40 83.88 L 145.30 84.98 C 145.21 86.03 145.99 86.96 147.03 87.05 C 148.08 87.15 149.01 86.37 149.10 85.32 L 149.20 84.22 C 149.29 83.17 148.52 82.24 147.47 82.15 C 146.42 82.06 145.50 82.83 145.40 83.88 Z M 145.30 85.03 L 145.23 86.03 C 145.16 87.09 145.96 88.00 147.01 88.06 C 148.07 88.13 148.98 87.34 149.05 86.28 L 149.11 85.28 C 149.18 84.22 148.38 83.32 147.33 83.25 C 146.27 83.18 145.37 83.98 145.30 85.03 Z M 145.23 86.07 L 145.18 87.08 C 145.13 88.14 145.95 89.04 147.00 89.09 C 148.06 89.13 148.95 88.32 149.00 87.26 L 149.05 86.25 C 149.10 85.19 148.28 84.30 147.23 84.25 C 146.17 84.20 145.28 85.01 145.23 86.07 Z M 145.18 87.11 L 145.14 88.14 C 145.11 89.19 145.94 90.08 147.00 90.11 C 148.06 90.14 148.94 89.31 148.97 88.26 L 149.00 87.23 C 149.04 86.18 148.21 85.29 147.15 85.26 C 146.09 85.23 145.21 86.06 145.18 87.11 Z M 145.14 88.16 L 145.12 89.18 C 145.10 90.24 145.95 91.12 147.01 91.13 C 148.06 91.15 148.94 90.31 148.96 89.25 L 148.98 88.23 C 148.99 87.17 148.15 86.30 147.09 86.28 C 146.03 86.26 145.16 87.10 145.14 88.16 Z M 145.12 89.20 L 145.11 90.21 C 145.11 91.27 145.96 92.14 147.02 92.15 C 148.08 92.15 148.94 91.30 148.95 90.24 L 148.96 89.23 C 148.97 88.17 148.11 87.31 147.05 87.30 C 145.99 87.29 145.13 88.14 145.12 89.20 Z M 145.11 90.23 L 145.11 91.22 C 145.12 92.28 145.98 93.14 147.04 93.14 C 148.10 93.14 148.96 92.28 148.96 91.22 L 148.95 90.22 C 148.95 89.16 148.09 88.30 147.03 88.31 C 145.97 88.31 145.11 89.17 145.11 90.23 Z M 145.11 91.24 L 145.12 92.20 C 145.13 93.26 146.00 94.12 147.06 94.11 C 148.12 94.10 148.98 93.23 148.97 92.17 L 148.96 91.20 C 148.95 90.14 148.08 89.29 147.02 89.30 C 145.95 89.31 145.10 90.17 145.11 91.24 Z M 145.12 92.21 L 145.13 93.21 C 145.15 94.28 146.02 95.13 147.09 95.11 C 148.15 95.09 149.00 94.22 148.98 93.16 L 148.97 92.16 C 148.95 91.09 148.08 90.24 147.02 90.26 C 145.95 90.28 145.10 91.15 145.12 92.21 Z M 145.13 93.22 L 145.15 94.27 C 145.18 95.33 146.06 96.17 147.12 96.15 C 148.18 96.13 149.03 95.25 149.01 94.19 L 148.98 93.15 C 148.96 92.08 148.08 91.24 147.02 91.26 C 145.96 91.28 145.11 92.16 145.13 93.22 Z M 145.15 94.28 L 145.18 95.29 C 145.21 96.35 146.10 97.19 147.16 97.16 C 148.23 97.13 149.06 96.24 149.03 95.18 L 149.01 94.17 C 148.98 93.11 148.09 92.27 147.03 92.30 C 145.96 92.33 145.12 93.22 145.15 94.28 Z M 145.18 95.30 L 145.22 96.29 C 145.26 97.35 146.15 98.18 147.22 98.14 C 148.28 98.10 149.11 97.21 149.07 96.14 L 149.03 95.16 C 148.99 94.10 148.10 93.27 147.04 93.31 C 145.97 93.35 145.14 94.24 145.18 95.30 Z M 145.22 96.31 L 145.26 97.28 C 145.31 98.34 146.22 99.16 147.28 99.11 C 148.34 99.06 149.17 98.16 149.12 97.10 L 149.07 96.12 C 149.02 95.06 148.12 94.24 147.05 94.29 C 145.99 94.34 145.17 95.24 145.22 96.31 Z M 145.27 97.30 L 145.32 98.27 C 145.38 99.34 146.30 100.15 147.36 100.08 C 148.42 100.02 149.23 99.11 149.17 98.05 L 149.12 97.07 C 149.05 96.01 148.14 95.20 147.08 95.26 C 146.01 95.32 145.20 96.24 145.27 97.30 Z M 145.32 98.30 L 145.39 99.28 C 145.47 100.34 146.39 101.14 147.45 101.07 C 148.51 100.99 149.32 100.07 149.24 99.01 L 149.17 98.02 C 149.10 96.96 148.17 96.16 147.11 96.24 C 146.05 96.31 145.25 97.23 145.32 98.30 Z M 145.39 99.30 L 145.47 100.25 C 145.56 101.31 146.49 102.10 147.55 102.01 C 148.61 101.93 149.40 100.99 149.32 99.93 L 149.24 98.99 C 149.15 97.92 148.22 97.13 147.16 97.22 C 146.10 97.31 145.31 98.24 145.39 99.30 Z M 145.47 100.26 L 145.56 101.20 C 145.65 102.26 146.59 103.04 147.65 102.94 C 148.72 102.85 149.50 101.91 149.40 100.85 L 149.32 99.91 C 149.22 98.85 148.28 98.07 147.22 98.17 C 146.16 98.26 145.37 99.20 145.47 100.26 Z M 145.56 101.21 L 145.65 102.17 C 145.76 103.23 146.70 104.01 147.76 103.90 C 148.82 103.80 149.60 102.85 149.49 101.79 L 149.40 100.83 C 149.30 99.77 148.35 99.00 147.29 99.10 C 146.23 99.21 145.45 100.15 145.56 101.21 Z M 145.65 102.18 L 145.76 103.16 C 145.87 104.22 146.82 104.99 147.88 104.88 C 148.94 104.77 149.71 103.82 149.60 102.76 L 149.49 101.78 C 149.38 100.72 148.43 99.95 147.37 100.06 C 146.31 100.17 145.54 101.12 145.65 102.18 Z M 145.76 103.17 L 145.86 104.17 C 145.98 105.23 146.93 106.00 147.99 105.88 C 149.05 105.77 149.82 104.82 149.70 103.76 L 149.60 102.75 C 149.48 101.69 148.53 100.93 147.47 101.04 C 146.41 101.15 145.64 102.11 145.76 103.17 Z M 145.86 104.17 L 145.98 105.20 C 146.09 106.26 147.05 107.03 148.11 106.91 C 149.17 106.79 149.93 105.84 149.82 104.78 L 149.70 103.75 C 149.59 102.69 148.63 101.93 147.57 102.04 C 146.51 102.16 145.75 103.11 145.86 104.17 Z M 145.98 105.20 L 146.09 106.25 C 146.21 107.31 147.16 108.08 148.22 107.96 C 149.28 107.84 150.05 106.89 149.93 105.83 L 149.82 104.78 C 149.70 103.72 148.75 102.95 147.69 103.07 C 146.62 103.19 145.86 104.14 145.98 105.20 Z M 146.09 106.25 L 146.21 107.31 C 146.32 108.37 147.28 109.13 148.34 109.02 C 149.40 108.90 150.16 107.95 150.05 106.89 L 149.93 105.83 C 149.82 104.77 148.86 104.00 147.80 104.12 C 146.74 104.23 145.98 105.19 146.09 106.25 Z M 146.21 107.30 L 146.31 108.26 C 146.42 109.32 147.37 110.09 148.43 109.97 C 149.50 109.86 150.26 108.91 150.15 107.85 L 150.05 106.89 C 149.93 105.83 148.98 105.06 147.92 105.18 C 146.86 105.29 146.09 106.24 146.21 107.30 Z M 146.31 108.25 L 146.41 109.22 C 146.52 110.29 147.47 111.06 148.53 110.95 C 149.59 110.83 150.36 109.88 150.25 108.82 L 150.15 107.85 C 150.04 106.79 149.09 106.02 148.03 106.13 C 146.97 106.24 146.20 107.19 146.31 108.25 Z M 146.41 109.22 L 146.51 110.20 C 146.62 111.26 147.56 112.04 148.62 111.93 C 149.69 111.82 150.46 110.87 150.35 109.81 L 150.25 108.83 C 150.15 107.77 149.20 106.99 148.14 107.10 C 147.07 107.21 146.30 108.16 146.41 109.22 Z M 146.51 110.20 L 146.60 111.19 C 146.71 112.25 147.65 113.03 148.72 112.93 C 149.78 112.82 150.56 111.88 150.45 110.81 L 150.35 109.82 C 150.25 108.76 149.30 107.98 148.24 108.08 C 147.18 108.19 146.40 109.13 146.51 110.20 Z M 146.60 111.18 L 146.70 112.19 C 146.80 113.25 147.74 114.03 148.80 113.93 C 149.87 113.83 150.65 112.89 150.55 111.82 L 150.45 110.82 C 150.35 109.76 149.41 108.98 148.35 109.08 C 147.28 109.18 146.50 110.12 146.60 111.18 Z M 146.70 112.18 L 146.79 113.19 C 146.88 114.25 147.82 115.04 148.89 114.94 C 149.95 114.85 150.73 113.91 150.64 112.84 L 150.55 111.83 C 150.45 110.77 149.51 109.99 148.45 110.08 C 147.39 110.18 146.60 111.12 146.70 112.18 Z M 146.79 113.18 L 146.88 114.20 C 146.97 115.26 147.90 116.05 148.97 115.96 C 150.03 115.87 150.82 114.93 150.73 113.87 L 150.64 112.85 C 150.55 111.79 149.61 111.00 148.55 111.09 C 147.49 111.18 146.70 112.12 146.79 113.18 Z M 146.87 114.19 L 146.96 115.21 C 147.04 116.27 147.97 117.07 149.04 116.98 C 150.10 116.90 150.90 115.96 150.81 114.90 L 150.73 113.88 C 150.64 112.82 149.71 112.02 148.65 112.11 C 147.58 112.19 146.79 113.13 146.87 114.19 Z M 146.96 115.20 L 147.03 116.20 C 147.11 117.27 148.04 118.07 149.10 117.99 C 150.17 117.91 150.97 116.98 150.89 115.91 L 150.81 114.91 C 150.73 113.84 149.80 113.05 148.74 113.13 C 147.67 113.21 146.88 114.13 146.96 115.20 Z M 147.03 116.19 L 147.10 117.18 C 147.17 118.25 148.10 119.05 149.16 118.97 C 150.23 118.90 151.03 117.98 150.96 116.91 L 150.89 115.92 C 150.81 114.86 149.89 114.06 148.82 114.13 C 147.76 114.21 146.96 115.13 147.03 116.19 Z M 147.10 117.17 L 147.16 118.16 C 147.23 119.22 148.15 120.03 149.22 119.96 C 150.28 119.89 151.09 118.97 151.02 117.91 L 150.96 116.92 C 150.89 115.85 149.97 115.05 148.90 115.12 C 147.84 115.19 147.03 116.11 147.10 117.17 Z M 147.16 118.15 L 147.22 119.14 C 147.29 120.21 148.20 121.02 149.27 120.95 C 150.34 120.89 151.15 119.97 151.08 118.91 L 151.02 117.92 C 150.96 116.85 150.04 116.04 148.97 116.10 C 147.91 116.17 147.10 117.09 147.16 118.15 Z M 147.22 119.13 L 147.28 120.13 C 147.34 121.19 148.25 122.01 149.32 121.95 C 150.39 121.89 151.20 120.97 151.14 119.91 L 151.08 118.91 C 151.02 117.85 150.11 117.03 149.04 117.09 C 147.98 117.16 147.16 118.07 147.22 119.13 Z M 147.28 120.12 L 147.33 121.12 C 147.39 122.18 148.30 123.00 149.37 122.94 C 150.43 122.89 151.25 121.98 151.19 120.91 L 151.14 119.91 C 151.08 118.85 150.17 118.03 149.10 118.09 C 148.04 118.15 147.22 119.06 147.28 120.12 Z M 147.33 121.11 L 147.39 122.12 C 147.44 123.18 148.35 124.00 149.42 123.95 C 150.48 123.89 151.30 122.98 151.25 121.92 L 151.19 120.91 C 151.14 119.85 150.23 119.03 149.16 119.08 C 148.10 119.14 147.28 120.05 147.33 121.11 Z M 147.39 122.11 L 147.44 123.12 C 147.49 124.19 148.40 125.01 149.46 124.95 C 150.53 124.90 151.35 123.99 151.30 122.93 L 151.25 121.92 C 151.19 120.85 150.28 120.03 149.22 120.09 C 148.15 120.14 147.33 121.05 147.39 122.11 Z M 147.44 123.12 L 147.49 124.13 C 147.54 125.20 148.44 126.02 149.51 125.97 C 150.58 125.92 151.40 125.01 151.35 123.95 L 151.30 122.93 C 151.24 121.86 150.34 121.04 149.27 121.10 C 148.21 121.15 147.38 122.05 147.44 123.12 Z M 147.49 124.13 L 147.53 125.13 C 147.59 126.19 148.49 127.02 149.56 126.96 C 150.62 126.91 151.44 126.01 151.39 124.94 L 151.35 123.95 C 151.29 122.88 150.39 122.06 149.32 122.11 C 148.26 122.16 147.43 123.07 147.49 124.13 Z M 147.53 125.13 L 147.58 126.10 C 147.63 127.17 148.54 127.99 149.60 127.94 C 150.67 127.89 151.49 126.98 151.44 125.92 L 151.39 124.94 C 151.34 123.88 150.44 123.06 149.37 123.11 C 148.31 123.16 147.48 124.06 147.53 125.13 Z M 147.58 126.10 L 147.63 127.08 C 147.68 128.15 148.58 128.97 149.65 128.92 C 150.71 128.87 151.53 127.97 151.48 126.90 L 151.44 125.92 C 151.39 124.85 150.48 124.03 149.42 124.08 C 148.35 124.13 147.53 125.04 147.58 126.10 Z M 147.63 127.08 L 147.67 128.07 C 147.72 129.13 148.63 129.96 149.69 129.91 C 150.75 129.86 151.58 128.96 151.53 127.89 L 151.48 126.90 C 151.43 125.84 150.53 125.02 149.47 125.07 C 148.40 125.11 147.58 126.02 147.63 127.08 Z M 147.68 128.07 L 147.72 129.06 C 147.77 130.13 148.67 130.95 149.73 130.90 C 150.80 130.86 151.62 129.96 151.57 128.89 L 151.53 127.90 C 151.48 126.83 150.58 126.01 149.52 126.06 C 148.45 126.10 147.63 127.00 147.68 128.07 Z M 147.72 129.06 L 147.76 130.06 C 147.81 131.13 148.71 131.95 149.77 131.90 C 150.84 131.86 151.66 130.96 151.62 129.90 L 151.57 128.89 C 151.53 127.83 150.63 127.01 149.56 127.05 C 148.50 127.10 147.67 128.00 147.72 129.06 Z M 147.76 130.06 L 147.81 131.07 C 147.85 132.13 148.75 132.96 149.81 132.91 C 150.87 132.87 151.70 131.97 151.66 130.91 L 151.61 129.90 C 151.57 128.84 150.67 128.01 149.61 128.05 C 148.55 128.10 147.72 129.00 147.76 130.06 Z M 147.81 131.06 L 147.85 132.08 C 147.89 133.14 148.79 133.97 149.85 133.92 C 150.91 133.88 151.74 132.99 151.70 131.92 L 151.66 130.91 C 151.61 129.85 150.72 129.02 149.66 129.06 C 148.59 129.11 147.77 130.00 147.81 131.06 Z M 147.85 132.07 L 147.89 133.09 C 147.93 134.15 148.82 134.98 149.88 134.94 C 150.94 134.90 151.77 134.01 151.73 132.95 L 151.69 131.93 C 151.65 130.87 150.76 130.04 149.70 130.08 C 148.64 130.12 147.81 131.01 147.85 132.07 Z M 147.89 133.09 L 147.92 134.11 C 147.96 135.17 148.85 136.00 149.91 135.96 C 150.98 135.93 151.81 135.03 151.77 133.97 L 151.73 132.95 C 151.69 131.89 150.80 131.06 149.74 131.10 C 148.68 131.13 147.85 132.03 147.89 133.09 Z M 147.92 134.10 L 147.96 135.09 C 147.99 136.15 148.88 136.98 149.94 136.95 C 151.00 136.91 151.83 136.02 151.80 134.96 L 151.77 133.98 C 151.73 132.92 150.84 132.08 149.78 132.12 C 148.72 132.15 147.89 133.04 147.92 134.10 Z M 147.96 135.08 L 147.99 136.07 C 148.02 137.13 148.91 137.96 149.97 137.93 C 151.03 137.90 151.86 137.01 151.83 135.95 L 151.80 134.97 C 151.77 133.91 150.88 133.07 149.82 133.10 C 148.76 133.14 147.93 134.02 147.96 135.08 Z M 147.99 136.07 L 148.02 137.06 C 148.05 138.12 148.93 138.95 149.99 138.92 C 151.05 138.89 151.88 138.01 151.85 136.95 L 151.83 135.96 C 151.80 134.90 150.91 134.06 149.85 134.09 C 148.79 134.12 147.96 135.01 147.99 136.07 Z M 148.02 137.05 L 148.04 138.05 C 148.07 139.11 148.95 139.94 150.01 139.92 C 151.07 139.89 151.90 139.01 151.88 137.95 L 151.85 136.96 C 151.83 135.90 150.95 135.06 149.89 135.09 C 148.83 135.11 147.99 135.99 148.02 137.05 Z M 148.05 138.04 L 148.07 139.04 C 148.09 140.10 148.97 140.94 150.03 140.91 C 151.09 140.89 151.92 140.01 151.90 138.95 L 151.88 137.96 C 151.85 136.90 150.97 136.06 149.92 136.08 C 148.86 136.11 148.02 136.99 148.05 138.04 Z M 148.07 139.04 L 148.09 140.04 C 148.11 141.10 148.99 141.94 150.04 141.92 C 151.10 141.89 151.94 141.02 151.92 139.96 L 151.90 138.96 C 151.88 137.90 151.00 137.06 149.94 137.09 C 148.89 137.11 148.05 137.98 148.07 139.04 Z M 148.09 140.04 L 148.11 141.04 C 148.13 142.10 149.00 142.94 150.06 142.92 C 151.12 142.90 151.96 142.03 151.94 140.97 L 151.92 139.97 C 151.90 138.91 151.03 138.07 149.97 138.09 C 148.91 138.11 148.07 138.98 148.09 140.04 Z M 148.11 141.04 L 148.13 142.05 C 148.15 143.10 149.02 143.94 150.07 143.93 C 151.13 143.91 151.97 143.04 151.95 141.99 L 151.93 140.98 C 151.92 139.92 151.05 139.08 149.99 139.10 C 148.94 139.11 148.10 139.98 148.11 141.04 Z M 148.13 142.04 L 148.14 143.05 C 148.16 144.11 149.03 144.95 150.08 144.94 C 151.14 144.92 151.98 144.06 151.96 143.00 L 151.95 141.99 C 151.93 140.94 151.07 140.09 150.01 140.11 C 148.96 140.12 148.12 140.99 148.13 142.04 Z M 148.15 143.05 L 148.16 144.06 C 148.17 145.11 149.03 145.96 150.09 145.95 C 151.14 145.93 151.99 145.07 151.97 144.01 L 151.96 143.01 C 151.95 141.95 151.09 141.11 150.03 141.12 C 148.98 141.13 148.13 142.00 148.15 143.05 Z M 148.16 144.06 L 148.17 145.05 C 148.18 146.10 149.04 146.94 150.09 146.93 C 151.15 146.92 151.99 146.06 151.98 145.01 L 151.97 144.02 C 151.96 142.97 151.10 142.12 150.05 142.13 C 149.00 142.14 148.15 143.00 148.16 144.06 Z M 148.17 145.04 L 148.18 146.03 C 148.19 147.09 149.05 147.93 150.10 147.92 C 151.15 147.92 151.99 147.06 151.99 146.01 L 151.98 145.01 C 151.97 143.96 151.11 143.12 150.06 143.12 C 149.01 143.13 148.16 143.99 148.17 145.04 Z M 148.18 146.03 L 148.19 147.03 C 148.19 148.08 149.05 148.92 150.10 148.92 C 151.15 148.91 152.00 148.05 151.99 147.00 L 151.98 146.01 C 151.98 144.96 151.12 144.11 150.07 144.12 C 149.02 144.13 148.18 144.98 148.18 146.03 Z M 148.19 147.02 L 148.19 148.02 C 148.20 149.07 149.05 149.92 150.10 149.91 C 151.15 149.91 152.00 149.05 151.99 148.00 L 151.99 147.01 C 151.98 145.96 151.13 145.11 150.08 145.12 C 149.03 145.12 148.19 145.98 148.19 147.02 Z M 148.20 148.02 L 148.20 149.02 C 148.20 150.06 149.06 150.91 150.10 150.91 C 151.15 150.90 152.00 150.05 151.99 149.01 L 151.99 148.01 C 151.99 146.96 151.13 146.11 150.09 146.12 C 149.04 146.12 148.19 146.97 148.20 148.02 Z M 148.20 149.02 L 148.21 150.02 C 148.21 151.06 149.06 151.91 150.10 151.91 C 151.15 151.90 151.99 151.05 151.99 150.01 L 151.99 149.01 C 151.99 147.96 151.14 147.12 150.09 147.12 C 149.05 147.12 148.20 147.97 148.20 149.02 Z M 148.21 150.02 L 148.21 151.02 C 148.21 152.06 149.06 152.91 150.10 152.91 C 151.15 152.91 151.99 152.06 151.99 151.01 L 151.99 150.01 C 151.99 148.97 151.14 148.12 150.10 148.12 C 149.05 148.12 148.21 148.97 148.21 150.02 Z M 148.21 151.02 L 148.21 152.02 C 148.21 153.07 149.06 153.91 150.10 153.91 C 151.14 153.91 151.99 153.06 151.99 152.02 L 151.99 151.01 C 151.99 149.97 151.14 149.13 150.10 149.13 C 149.06 149.13 148.21 149.97 148.21 151.02 Z M 148.21 152.02 L 148.21 153.03 C 148.21 154.07 149.06 154.92 150.10 154.92 C 151.14 154.92 151.99 154.07 151.99 153.03 L 151.99 152.02 C 151.99 150.98 151.14 150.14 150.10 150.14 C 149.06 150.14 148.21 150.98 148.21 152.02 Z M 148.22 153.03 L 148.22 154.04 C 148.22 155.08 149.06 155.92 150.10 155.92 C 151.14 155.92 151.98 155.08 151.98 154.04 L 151.98 153.03 C 151.98 151.99 151.14 151.15 150.10 151.15 C 149.06 151.15 148.22 151.99 148.22 153.03 Z M 148.22 154.04 L 148.22 155.01 C 148.22 156.05 149.06 156.89 150.10 156.89 C 151.14 156.89 151.98 156.05 151.98 155.01 L 151.98 154.04 C 151.98 153.00 151.14 152.16 150.10 152.16 C 149.06 152.16 148.22 153.00 148.22 154.04 Z M 148.22 155.01 L 148.22 155.99 C 148.22 157.02 149.06 157.86 150.10 157.86 C 151.14 157.87 151.98 157.02 151.98 155.99 L 151.98 155.01 C 151.98 153.97 151.14 153.13 150.10 153.13 C 149.06 153.13 148.22 153.97 148.22 155.01 Z M 148.23 155.99 L 148.23 156.97 C 148.23 158.00 149.06 158.84 150.10 158.84 C 151.13 158.84 151.97 158.00 151.97 156.97 L 151.97 155.99 C 151.98 154.95 151.14 154.11 150.10 154.11 C 149.07 154.11 148.23 154.95 148.23 155.99 Z M 148.23 156.97 L 148.23 157.95 C 148.23 158.98 149.06 159.82 150.10 159.82 C 151.13 159.82 151.97 158.99 151.97 157.96 L 151.97 156.97 C 151.97 155.94 151.14 155.10 150.10 155.10 C 149.07 155.10 148.23 155.93 148.23 156.97 Z M 148.23 157.95 L 148.23 158.94 C 148.23 159.97 149.06 160.81 150.09 160.81 C 151.12 160.81 151.96 159.98 151.96 158.95 L 151.97 157.96 C 151.97 156.93 151.13 156.09 150.10 156.09 C 149.07 156.08 148.23 156.92 148.23 157.95 Z M 148.23 158.94 L 148.23 159.94 C 148.23 160.97 149.06 161.80 150.09 161.81 C 151.12 161.81 151.96 160.98 151.96 159.95 L 151.96 158.95 C 151.96 157.92 151.13 157.08 150.10 157.08 C 149.07 157.08 148.24 157.91 148.23 158.94 Z M 148.23 159.93 L 148.23 160.94 C 148.22 161.97 149.05 162.80 150.08 162.81 C 151.11 162.81 151.95 161.98 151.95 160.95 L 151.95 159.95 C 151.96 158.92 151.13 158.08 150.10 158.08 C 149.07 158.08 148.24 158.91 148.23 159.93 Z M 148.23 160.94 L 148.23 161.95 C 148.22 162.98 149.05 163.81 150.07 163.82 C 151.10 163.82 151.94 163.00 151.94 161.97 L 151.95 160.96 C 151.95 159.93 151.13 159.09 150.10 159.09 C 149.07 159.08 148.24 159.91 148.23 160.94 Z M 148.23 161.95 L 148.22 162.97 C 148.22 164.00 149.04 164.83 150.07 164.84 C 151.09 164.84 151.93 164.02 151.93 163.00 L 151.94 161.97 C 151.95 160.95 151.12 160.11 150.10 160.11 C 149.07 160.10 148.24 160.92 148.23 161.95 Z M 148.23 162.97 L 148.22 164.00 C 148.21 165.02 149.03 165.86 150.05 165.87 C 151.08 165.88 151.91 165.06 151.92 164.03 L 151.93 163.00 C 151.94 161.98 151.12 161.14 150.09 161.13 C 149.07 161.12 148.23 161.95 148.23 162.97 Z M 148.22 164.00 L 148.21 165.02 C 148.20 166.04 149.02 166.88 150.04 166.89 C 151.06 166.90 151.90 166.08 151.91 165.06 L 151.92 164.04 C 151.93 163.02 151.11 162.18 150.09 162.17 C 149.07 162.16 148.23 162.98 148.22 164.00 Z M 148.21 165.02 L 148.20 166.02 C 148.19 167.04 149.01 167.88 150.03 167.89 C 151.04 167.90 151.88 167.08 151.89 166.07 L 151.90 165.06 C 151.92 164.04 151.10 163.21 150.08 163.19 C 149.06 163.18 148.23 164.00 148.21 165.02 Z M 148.21 166.02 L 148.19 167.03 C 148.18 168.05 148.99 168.88 150.01 168.90 C 151.03 168.91 151.86 168.10 151.87 167.08 L 151.89 166.07 C 151.90 165.05 151.09 164.22 150.07 164.20 C 149.05 164.19 148.22 165.00 148.21 166.02 Z M 148.20 167.03 L 148.18 168.04 C 148.17 169.06 148.98 169.90 149.99 169.91 C 151.01 169.93 151.84 169.12 151.86 168.10 L 151.87 167.08 C 151.89 166.07 151.08 165.23 150.06 165.22 C 149.05 165.20 148.21 166.01 148.20 167.03 Z M 148.18 168.04 L 148.17 169.06 C 148.15 170.07 148.96 170.91 149.97 170.92 C 150.98 170.94 151.82 170.13 151.84 169.12 L 151.85 168.10 C 151.87 167.09 151.06 166.26 150.05 166.24 C 149.04 166.22 148.20 167.03 148.18 168.04 Z M 148.17 169.06 L 148.15 170.07 C 148.13 171.08 148.94 171.92 149.95 171.94 C 150.96 171.96 151.79 171.15 151.81 170.14 L 151.83 169.12 C 151.85 168.11 151.05 167.28 150.04 167.26 C 149.02 167.24 148.19 168.04 148.17 169.06 Z M 148.15 170.07 L 148.13 171.08 C 148.11 172.09 148.91 172.92 149.92 172.94 C 150.93 172.97 151.77 172.16 151.79 171.15 L 151.81 170.14 C 151.83 169.13 151.03 168.30 150.02 168.28 C 149.01 168.26 148.18 169.06 148.15 170.07 Z M 148.14 171.08 L 148.11 172.08 C 148.09 173.09 148.89 173.92 149.90 173.95 C 150.91 173.97 151.74 173.17 151.76 172.16 L 151.79 171.16 C 151.81 170.15 151.01 169.32 150.00 169.29 C 148.99 169.27 148.16 170.07 148.14 171.08 Z M 148.12 172.08 L 148.09 173.07 C 148.07 174.08 148.86 174.91 149.87 174.94 C 150.88 174.96 151.71 174.17 151.73 173.16 L 151.76 172.17 C 151.78 171.16 150.99 170.33 149.98 170.30 C 148.98 170.28 148.14 171.07 148.12 172.08 Z M 148.10 173.07 L 148.07 174.05 C 148.04 175.05 148.84 175.89 149.84 175.91 C 150.84 175.94 151.68 175.15 151.71 174.15 L 151.73 173.16 C 151.76 172.16 150.97 171.33 149.96 171.30 C 148.96 171.27 148.12 172.06 148.10 173.07 Z M 148.07 174.05 L 148.05 175.01 C 148.02 176.01 148.81 176.85 149.81 176.88 C 150.81 176.91 151.64 176.12 151.67 175.12 L 151.70 174.15 C 151.73 173.15 150.94 172.31 149.94 172.28 C 148.94 172.26 148.10 173.04 148.07 174.05 Z M 148.05 175.01 L 148.02 176.02 C 147.99 177.02 148.77 177.85 149.77 177.89 C 150.77 177.92 151.61 177.13 151.64 176.13 L 151.67 175.12 C 151.70 174.12 150.92 173.29 149.92 173.25 C 148.92 173.22 148.08 174.01 148.05 175.01 Z M 148.02 176.01 L 147.99 177.09 C 147.95 178.09 148.73 178.92 149.73 178.96 C 150.73 178.99 151.56 178.21 151.60 177.21 L 151.63 176.14 C 151.67 175.14 150.89 174.31 149.89 174.27 C 148.89 174.24 148.06 175.02 148.02 176.01 Z M 147.99 177.08 L 147.95 178.14 C 147.91 179.13 148.69 179.97 149.68 180.00 C 150.68 180.04 151.52 179.27 151.55 178.27 L 151.59 177.22 C 151.63 176.22 150.85 175.39 149.86 175.35 C 148.86 175.31 148.03 176.09 147.99 177.08 Z M 147.95 178.13 L 147.91 179.16 C 147.87 180.15 148.64 180.99 149.64 181.03 C 150.63 181.07 151.47 180.30 151.51 179.30 L 151.55 178.28 C 151.59 177.28 150.82 176.45 149.83 176.41 C 148.83 176.37 148.00 177.14 147.95 178.13 Z M 147.92 179.15 L 147.87 180.16 C 147.83 181.15 148.60 181.99 149.59 182.03 C 150.58 182.08 151.42 181.31 151.46 180.32 L 151.50 179.31 C 151.55 178.32 150.78 177.48 149.79 177.44 C 148.80 177.40 147.96 178.16 147.92 179.15 Z M 147.88 180.16 L 147.83 181.14 C 147.78 182.13 148.55 182.97 149.53 183.02 C 150.52 183.06 151.36 182.30 151.41 181.31 L 151.45 180.32 C 151.50 179.34 150.74 178.50 149.75 178.45 C 148.76 178.40 147.92 179.17 147.88 180.16 Z M 147.84 181.14 L 147.79 182.11 C 147.74 183.10 148.49 183.94 149.48 183.98 C 150.47 184.03 151.30 183.28 151.35 182.29 L 151.40 181.32 C 151.45 180.33 150.69 179.49 149.71 179.44 C 148.72 179.39 147.89 180.15 147.84 181.14 Z M 147.79 182.11 L 147.74 183.06 C 147.69 184.04 148.44 184.88 149.42 184.94 C 150.41 184.99 151.25 184.24 151.30 183.25 L 151.35 182.30 C 151.40 181.31 150.65 180.47 149.67 180.42 C 148.68 180.37 147.84 181.12 147.79 182.11 Z M 147.74 183.06 L 147.69 184.00 C 147.63 184.98 148.38 185.82 149.36 185.88 C 150.34 185.93 151.18 185.18 151.24 184.20 L 151.29 183.26 C 151.35 182.28 150.60 181.44 149.62 181.38 C 148.64 181.33 147.80 182.08 147.74 183.06 Z M 147.69 183.99 L 147.64 184.93 C 147.58 185.90 148.32 186.74 149.30 186.80 C 150.28 186.86 151.12 186.12 151.18 185.14 L 151.24 184.21 C 151.29 183.23 150.55 182.39 149.57 182.33 C 148.59 182.27 147.75 183.02 147.69 183.99 Z M 147.64 184.92 L 147.58 185.97 C 147.51 186.94 148.25 187.78 149.23 187.84 C 150.20 187.91 151.04 187.17 151.11 186.19 L 151.17 185.15 C 151.24 184.17 150.50 183.33 149.52 183.27 C 148.55 183.21 147.70 183.95 147.64 184.92 Z M 147.58 185.96 L 147.51 187.00 C 147.45 187.98 148.18 188.82 149.15 188.88 C 150.13 188.95 150.97 188.21 151.03 187.24 L 151.10 186.20 C 151.17 185.22 150.43 184.38 149.46 184.32 C 148.49 184.25 147.65 184.99 147.58 185.96 Z M 147.52 187.00 L 147.44 188.03 C 147.38 189.00 148.11 189.84 149.08 189.91 C 150.05 189.97 150.89 189.24 150.95 188.28 L 151.03 187.25 C 151.09 186.28 150.36 185.44 149.39 185.37 C 148.42 185.30 147.58 186.03 147.52 187.00 Z M 147.45 188.03 L 147.38 189.04 C 147.31 190.01 148.03 190.85 149.00 190.92 C 149.97 190.98 150.81 190.26 150.88 189.29 L 150.95 188.28 C 151.02 187.31 150.29 186.47 149.33 186.40 C 148.36 186.33 147.52 187.06 147.45 188.03 Z M 147.38 189.04 L 147.31 190.03 C 147.24 191.00 147.96 191.84 148.93 191.91 C 149.89 191.98 150.73 191.25 150.80 190.29 L 150.87 189.29 C 150.94 188.33 150.22 187.49 149.25 187.42 C 148.29 187.35 147.45 188.08 147.38 189.04 Z M 147.32 190.03 L 147.24 191.01 C 147.17 191.97 147.89 192.81 148.85 192.88 C 149.81 192.95 150.65 192.23 150.72 191.27 L 150.79 190.29 C 150.86 189.33 150.14 188.50 149.18 188.42 C 148.22 188.35 147.39 189.07 147.32 190.03 Z M 147.25 191.01 L 147.18 191.97 C 147.11 192.93 147.82 193.76 148.78 193.83 C 149.74 193.90 150.57 193.18 150.64 192.23 L 150.71 191.27 C 150.78 190.31 150.07 189.48 149.11 189.41 C 148.15 189.34 147.32 190.05 147.25 191.01 Z M 147.18 191.97 L 147.11 192.91 C 147.04 193.86 147.76 194.69 148.71 194.76 C 149.67 194.83 150.50 194.12 150.57 193.16 L 150.64 192.23 C 150.71 191.27 149.99 190.44 149.04 190.37 C 148.08 190.30 147.25 191.02 147.18 191.97 Z M 147.12 192.91 L 147.05 193.88 C 146.98 194.83 147.70 195.66 148.65 195.72 C 149.60 195.79 150.42 195.08 150.49 194.13 L 150.56 193.16 C 150.63 192.21 149.92 191.38 148.97 191.31 C 148.01 191.24 147.19 191.96 147.12 192.91 Z M 147.05 193.88 L 146.99 194.86 C 146.92 195.81 147.63 196.63 148.58 196.70 C 149.53 196.77 150.35 196.05 150.42 195.10 L 150.49 194.12 C 150.55 193.17 149.84 192.35 148.89 192.28 C 147.94 192.22 147.12 192.93 147.05 193.88 Z M 146.99 194.87 L 146.93 195.84 C 146.86 196.78 147.58 197.60 148.52 197.66 C 149.47 197.73 150.29 197.01 150.35 196.07 L 150.41 195.10 C 150.48 194.15 149.76 193.33 148.82 193.27 C 147.87 193.21 147.05 193.92 146.99 194.87 Z M 146.93 195.84 L 146.87 196.81 C 146.81 197.76 147.53 198.57 148.47 198.63 C 149.41 198.69 150.22 197.97 150.28 197.03 L 150.34 196.06 C 150.40 195.12 149.69 194.30 148.74 194.25 C 147.80 194.19 146.99 194.90 146.93 195.84 Z M 146.88 196.82 L 146.82 197.80 C 146.76 198.74 147.48 199.55 148.42 199.60 C 149.36 199.65 150.17 198.94 150.22 198.00 L 150.28 197.02 C 150.33 196.08 149.62 195.27 148.68 195.22 C 147.74 195.17 146.93 195.88 146.88 196.82 Z M 146.82 197.81 L 146.77 198.81 C 146.72 199.74 147.44 200.54 148.38 200.59 C 149.31 200.64 150.11 199.92 150.16 198.99 L 150.22 197.99 C 150.27 197.05 149.55 196.25 148.61 196.20 C 147.67 196.15 146.87 196.87 146.82 197.81 Z M 146.78 198.82 L 146.73 199.84 C 146.68 200.78 147.40 201.57 148.34 201.62 C 149.27 201.66 150.06 200.94 150.11 200.01 L 150.16 198.98 C 150.20 198.05 149.48 197.25 148.55 197.21 C 147.61 197.16 146.82 197.88 146.78 198.82 Z M 146.73 199.85 L 146.69 200.92 C 146.65 201.85 147.37 202.64 148.30 202.67 C 149.23 202.71 150.02 201.99 150.06 201.06 L 150.10 200.00 C 150.14 199.07 149.42 198.28 148.49 198.24 C 147.56 198.20 146.77 198.92 146.73 199.85 Z M 146.69 200.93 L 146.66 201.90 C 146.62 202.83 147.35 203.61 148.27 203.64 C 149.20 203.68 149.98 202.95 150.02 202.02 L 150.05 201.05 C 150.09 200.13 149.36 199.35 148.44 199.31 C 147.51 199.28 146.73 200.00 146.69 200.93 Z M 146.66 201.91 L 146.63 202.91 C 146.60 203.83 147.32 204.61 148.25 204.64 C 149.17 204.67 149.95 203.94 149.98 203.02 L 150.01 202.02 C 150.04 201.09 149.32 200.32 148.39 200.29 C 147.47 200.26 146.69 200.98 146.66 201.91 Z M 146.63 202.91 L 146.60 203.93 C 146.58 204.86 147.31 205.63 148.23 205.65 C 149.15 205.68 149.92 204.95 149.95 204.03 L 149.97 203.01 C 150.00 202.09 149.27 201.32 148.35 201.29 C 147.43 201.27 146.66 201.99 146.63 202.91 Z M 146.61 203.94 L 146.58 204.97 C 146.56 205.89 147.29 206.65 148.21 206.68 C 149.13 206.70 149.90 205.97 149.92 205.05 L 149.94 204.02 C 149.96 203.10 149.23 202.34 148.31 202.31 C 147.39 202.29 146.63 203.02 146.61 203.94 Z M 146.59 204.98 L 146.57 206.01 C 146.56 206.93 147.29 207.68 148.20 207.70 C 149.12 207.72 149.88 206.98 149.90 206.07 L 149.91 205.04 C 149.93 204.12 149.20 203.36 148.28 203.35 C 147.36 203.33 146.60 204.06 146.59 204.98 Z M 146.58 206.02 L 146.56 207.04 C 146.55 207.95 147.29 208.70 148.20 208.71 C 149.12 208.72 149.87 207.99 149.88 207.07 L 149.89 206.06 C 149.90 205.14 149.17 204.39 148.25 204.38 C 147.34 204.37 146.59 205.10 146.58 206.02 Z M 146.57 207.05 L 146.56 208.05 C 146.56 208.96 147.30 209.71 148.21 209.71 C 149.12 209.71 149.87 208.98 149.87 208.06 L 149.88 207.06 C 149.88 206.15 149.14 205.41 148.23 205.40 C 147.32 205.40 146.57 206.14 146.57 207.05 Z M 146.57 208.06 L 146.57 209.03 C 146.57 209.94 147.31 210.68 148.23 210.68 C 149.14 210.67 149.87 209.93 149.87 209.02 L 149.87 208.05 C 149.86 207.14 149.12 206.40 148.21 206.41 C 147.30 206.41 146.57 207.15 146.57 208.06 Z M 146.58 209.05 L 146.59 210.06 C 146.60 210.97 147.35 211.70 148.25 211.68 C 149.16 211.67 149.89 210.93 149.88 210.02 L 149.86 209.01 C 149.85 208.10 149.11 207.37 148.20 207.38 C 147.29 207.40 146.57 208.14 146.58 209.05 Z M 146.60 210.08 L 146.62 211.18 C 146.65 212.09 147.40 212.80 148.30 212.78 C 149.20 212.76 149.92 212.01 149.90 211.10 L 149.87 210.00 C 149.85 209.10 149.10 208.38 148.19 208.41 C 147.29 208.43 146.58 209.18 146.60 210.08 Z M 146.63 211.20 L 146.67 212.25 C 146.70 213.15 147.46 213.85 148.36 213.82 C 149.25 213.79 149.96 213.03 149.92 212.13 L 149.89 211.08 C 149.85 210.19 149.10 209.49 148.20 209.52 C 147.30 209.55 146.60 210.30 146.63 211.20 Z M 146.68 212.27 L 146.73 213.27 C 146.77 214.16 147.53 214.85 148.42 214.81 C 149.31 214.77 150.00 214.01 149.96 213.12 L 149.91 212.12 C 149.87 211.22 149.11 210.53 148.22 210.57 C 147.33 210.62 146.64 211.37 146.68 212.27 Z M 146.74 213.28 L 146.79 214.25 C 146.84 215.14 147.60 215.82 148.49 215.77 C 149.38 215.72 150.05 214.96 150.00 214.07 L 149.95 213.10 C 149.90 212.22 149.14 211.54 148.25 211.59 C 147.37 211.64 146.69 212.40 146.74 213.28 Z M 146.80 214.26 L 146.86 215.20 C 146.92 216.08 147.68 216.76 148.56 216.70 C 149.44 216.64 150.11 215.88 150.05 215.00 L 150.00 214.06 C 149.94 213.18 149.18 212.51 148.30 212.56 C 147.42 212.62 146.75 213.38 146.80 214.26 Z M 146.87 215.21 L 146.93 216.13 C 146.99 217.01 147.75 217.68 148.63 217.62 C 149.50 217.56 150.17 216.80 150.11 215.92 L 150.05 215.00 C 149.99 214.12 149.23 213.46 148.35 213.51 C 147.47 213.57 146.81 214.33 146.87 215.21 Z M 146.94 216.14 L 146.98 216.69 C 147.04 217.56 147.79 218.22 148.67 218.16 C 149.54 218.10 150.20 217.35 150.14 216.47 L 150.10 215.92 C 150.04 215.05 149.28 214.39 148.41 214.45 C 147.54 214.51 146.88 215.26 146.94 216.14 Z"
      fill="black"
      fill-rule="nonzero" /></svg>