<svg xmlns="http://www.w3.org/2000/svg" width="300" height="300" viewBox="0 0 300 300">
<path d="M 161.10 72.30 L 160.77 73.25 C 160.45 74.17 160.94 75.17 161.86 75.49 C 162.78 75.80 163.78 75.31 164.09 74.40 L 164.42 73.44 C 164.74 72.53 164.25 71.52 163.33 71.21 C 162.42 70.89 161.41 71.38 161.10 72.30 Z M 160.69 73.21 L 160.36 74.16 C 160.02 75.12 160.52 76.17 161.48 76.51 C 162.44 76.85 163.50 76.35 163.84 75.38 L 164.17 74.44 C 164.51 73.48 164.01 72.42 163.05 72.08 C 162.09 71.74 161.03 72.25 160.69 73.21 Z M 160.29 74.10 L 159.94 75.04 C 159.57 76.04 160.08 77.15 161.08 77.52 C 162.08 77.89 163.19 77.38 163.56 76.38 L 163.91 75.44 C 164.28 74.44 163.77 73.33 162.77 72.96 C 161.77 72.59 160.65 73.10 160.29 74.10 Z M 159.87 74.97 L 159.51 75.89 C 159.10 76.93 159.61 78.10 160.65 78.51 C 161.68 78.92 162.86 78.41 163.26 77.37 L 163.63 76.45 C 164.04 75.41 163.53 74.24 162.49 73.83 C 161.45 73.42 160.28 73.93 159.87 74.97 Z M 159.47 75.81 L 159.09 76.71 C 158.63 77.77 159.12 78.99 160.18 79.45 C 161.24 79.90 162.46 79.41 162.91 78.35 L 163.30 77.45 C 163.75 76.40 163.26 75.17 162.21 74.72 C 161.15 74.27 159.93 74.76 159.47 75.81 Z M 159.10 76.64 L 158.68 77.53 C 158.19 78.58 158.65 79.83 159.70 80.32 C 160.75 80.81 162.00 80.36 162.49 79.31 L 162.90 78.42 C 163.39 77.37 162.94 76.12 161.89 75.63 C 160.84 75.14 159.59 75.59 159.10 76.64 Z M 158.71 77.47 L 158.27 78.35 C 157.74 79.38 158.16 80.65 159.19 81.17 C 160.23 81.70 161.49 81.28 162.01 80.25 L 162.46 79.37 C 162.98 78.33 162.57 77.07 161.54 76.54 C 160.50 76.02 159.24 76.43 158.71 77.47 Z M 158.30 78.29 L 157.81 79.18 C 157.26 80.20 157.63 81.47 158.65 82.03 C 159.67 82.58 160.94 82.21 161.50 81.19 L 161.98 80.30 C 162.54 79.29 162.17 78.01 161.15 77.45 C 160.13 76.90 158.85 77.27 158.30 78.29 Z M 157.84 79.13 L 157.32 80.03 C 156.73 81.03 157.07 82.32 158.08 82.90 C 159.08 83.48 160.37 83.14 160.95 82.14 L 161.47 81.24 C 162.06 80.24 161.72 78.95 160.71 78.37 C 159.71 77.79 158.42 78.13 157.84 79.13 Z M 157.34 79.99 L 156.81 80.86 C 156.20 81.85 156.51 83.14 157.50 83.75 C 158.49 84.35 159.78 84.04 160.39 83.05 L 160.92 82.18 C 161.53 81.19 161.22 79.90 160.23 79.29 C 159.24 78.69 157.95 79.00 157.34 79.99 Z M 156.83 80.83 L 156.27 81.70 C 155.65 82.68 155.94 83.98 156.92 84.60 C 157.89 85.22 159.19 84.93 159.81 83.96 L 160.37 83.08 C 160.99 82.11 160.70 80.81 159.73 80.19 C 158.75 79.56 157.45 79.85 156.83 80.83 Z M 156.29 81.68 L 155.73 82.53 C 155.09 83.50 155.37 84.80 156.34 85.44 C 157.30 86.07 158.61 85.80 159.24 84.83 L 159.80 83.98 C 160.43 83.01 160.16 81.71 159.19 81.07 C 158.22 80.44 156.92 80.71 156.29 81.68 Z M 155.74 82.52 L 155.20 83.33 C 154.55 84.29 154.81 85.60 155.78 86.24 C 156.74 86.88 158.04 86.62 158.69 85.66 L 159.23 84.85 C 159.87 83.88 159.61 82.58 158.65 81.94 C 157.69 81.30 156.38 81.55 155.74 82.52 Z M 155.21 83.32 L 154.65 84.14 C 154.00 85.10 154.25 86.41 155.21 87.06 C 156.16 87.70 157.47 87.45 158.12 86.50 L 158.68 85.67 C 159.33 84.71 159.08 83.41 158.12 82.76 C 157.16 82.11 155.86 82.36 155.21 83.32 Z M 154.66 84.13 L 154.05 85.02 C 153.39 85.97 153.63 87.27 154.58 87.93 C 155.53 88.59 156.83 88.35 157.49 87.40 L 158.10 86.51 C 158.76 85.56 158.52 84.26 157.57 83.60 C 156.62 82.94 155.32 83.18 154.66 84.13 Z M 154.07 84.99 L 153.50 85.79 C 152.83 86.73 153.05 88.03 153.99 88.70 C 154.93 89.37 156.23 89.15 156.90 88.22 L 157.47 87.42 C 158.14 86.48 157.92 85.18 156.98 84.51 C 156.05 83.84 154.74 84.06 154.07 84.99 Z M 153.54 85.75 L 152.99 86.48 C 152.29 87.40 152.48 88.71 153.40 89.40 C 154.32 90.09 155.62 89.91 156.31 88.99 L 156.87 88.26 C 157.56 87.34 157.37 86.03 156.45 85.34 C 155.54 84.65 154.23 84.83 153.54 85.75 Z M 153.03 86.43 L 152.43 87.18 C 151.71 88.08 151.85 89.39 152.74 90.11 C 153.64 90.83 154.95 90.68 155.66 89.79 L 156.27 89.04 C 156.99 88.14 156.85 86.83 155.95 86.12 C 155.06 85.40 153.75 85.54 153.03 86.43 Z M 152.47 87.14 L 151.83 87.89 C 151.08 88.76 151.18 90.06 152.05 90.81 C 152.92 91.56 154.23 91.46 154.97 90.59 L 155.62 89.84 C 156.37 88.97 156.27 87.66 155.40 86.91 C 154.53 86.17 153.22 86.27 152.47 87.14 Z M 151.87 87.85 L 151.19 88.59 C 150.42 89.44 150.49 90.75 151.33 91.52 C 152.18 92.28 153.49 92.22 154.26 91.37 L 154.93 90.63 C 155.70 89.78 155.64 88.47 154.79 87.70 C 153.94 86.94 152.63 87.00 151.87 87.85 Z M 151.22 88.57 L 150.54 89.29 C 149.76 90.12 149.79 91.42 150.62 92.21 C 151.45 92.99 152.76 92.95 153.54 92.13 L 154.22 91.40 C 155.01 90.57 154.97 89.27 154.14 88.48 C 153.31 87.70 152.01 87.74 151.22 88.57 Z M 150.57 89.27 L 149.88 89.97 C 149.09 90.78 149.10 92.08 149.91 92.88 C 150.72 93.67 152.02 93.66 152.82 92.85 L 153.51 92.15 C 154.30 91.34 154.29 90.03 153.48 89.24 C 152.67 88.44 151.37 88.45 150.57 89.27 Z M 149.92 89.94 L 149.20 90.64 C 148.39 91.44 148.37 92.73 149.16 93.54 C 149.95 94.35 151.25 94.37 152.06 93.58 L 152.78 92.88 C 153.59 92.09 153.61 90.79 152.82 89.98 C 152.03 89.17 150.73 89.15 149.92 89.94 Z M 149.24 90.62 L 148.49 91.31 C 147.66 92.08 147.61 93.37 148.38 94.20 C 149.15 95.03 150.44 95.08 151.27 94.31 L 152.02 93.61 C 152.85 92.84 152.89 91.55 152.13 90.72 C 151.36 89.90 150.07 89.85 149.24 90.62 Z M 148.53 91.28 L 147.80 91.92 C 146.96 92.67 146.88 93.95 147.62 94.80 C 148.36 95.64 149.65 95.72 150.49 94.98 L 151.22 94.34 C 152.06 93.60 152.15 92.31 151.41 91.47 C 150.66 90.62 149.38 90.54 148.53 91.28 Z M 147.85 91.89 L 147.09 92.52 C 146.23 93.24 146.11 94.52 146.83 95.38 C 147.54 96.24 148.82 96.36 149.68 95.64 L 150.44 95.01 C 151.30 94.30 151.42 93.02 150.71 92.16 C 149.99 91.30 148.72 91.18 147.85 91.89 Z M 147.15 92.49 L 146.35 93.11 C 145.47 93.80 145.31 95.07 146.00 95.95 C 146.68 96.83 147.95 96.98 148.83 96.30 L 149.63 95.68 C 150.51 94.99 150.66 93.72 149.98 92.84 C 149.29 91.96 148.03 91.81 147.15 92.49 Z M 146.40 93.08 L 145.58 93.68 C 144.68 94.34 144.49 95.60 145.14 96.49 C 145.80 97.39 147.05 97.59 147.95 96.93 L 148.78 96.33 C 149.67 95.67 149.87 94.42 149.21 93.52 C 148.56 92.62 147.30 92.43 146.40 93.08 Z M 145.63 93.66 L 144.84 94.20 C 143.92 94.83 143.69 96.08 144.32 96.99 C 144.94 97.90 146.19 98.13 147.10 97.50 L 147.90 96.96 C 148.81 96.33 149.04 95.09 148.42 94.17 C 147.79 93.26 146.54 93.03 145.63 93.66 Z M 144.88 94.19 L 144.05 94.73 C 143.13 95.33 142.87 96.56 143.47 97.48 C 144.07 98.41 145.30 98.66 146.23 98.06 L 147.06 97.52 C 147.98 96.92 148.24 95.69 147.64 94.77 C 147.04 93.84 145.80 93.59 144.88 94.19 Z M 144.09 94.72 L 143.23 95.25 C 142.30 95.83 142.02 97.06 142.60 97.98 C 143.18 98.91 144.40 99.19 145.33 98.61 L 146.19 98.08 C 147.12 97.50 147.40 96.27 146.82 95.34 C 146.24 94.42 145.01 94.13 144.09 94.72 Z M 143.26 95.25 L 142.37 95.78 C 141.44 96.35 141.14 97.56 141.70 98.49 C 142.27 99.42 143.48 99.72 144.41 99.16 L 145.30 98.62 C 146.23 98.06 146.53 96.84 145.97 95.91 C 145.40 94.98 144.19 94.68 143.26 95.25 Z M 142.39 95.78 L 141.57 96.26 C 140.64 96.81 140.33 98.02 140.88 98.95 C 141.43 99.89 142.63 100.20 143.57 99.65 L 144.39 99.16 C 145.32 98.61 145.63 97.41 145.08 96.47 C 144.53 95.54 143.33 95.23 142.39 95.78 Z M 141.60 96.26 L 140.75 96.75 C 139.82 97.28 139.49 98.48 140.03 99.41 C 140.57 100.35 141.76 100.67 142.70 100.13 L 143.54 99.65 C 144.48 99.11 144.80 97.92 144.26 96.98 C 143.73 96.05 142.53 95.72 141.60 96.26 Z M 140.78 96.74 L 139.90 97.23 C 138.97 97.75 138.63 98.94 139.16 99.88 C 139.68 100.81 140.86 101.15 141.80 100.62 L 142.67 100.14 C 143.61 99.61 143.95 98.43 143.42 97.49 C 142.90 96.55 141.71 96.22 140.78 96.74 Z M 139.93 97.23 L 139.02 97.72 C 138.08 98.23 137.74 99.40 138.25 100.34 C 138.75 101.28 139.93 101.63 140.87 101.12 L 141.77 100.63 C 142.71 100.12 143.06 98.94 142.55 98.01 C 142.04 97.07 140.87 96.72 139.93 97.23 Z M 139.05 97.72 L 138.14 98.19 C 137.20 98.69 136.84 99.85 137.33 100.79 C 137.82 101.73 138.99 102.10 139.93 101.60 L 140.84 101.12 C 141.78 100.63 142.14 99.46 141.65 98.52 C 141.16 97.58 139.99 97.22 139.05 97.72 Z M 138.17 98.19 L 137.29 98.64 C 136.35 99.12 135.97 100.27 136.45 101.21 C 136.93 102.16 138.09 102.53 139.03 102.05 L 139.90 101.60 C 140.85 101.12 141.22 99.97 140.74 99.03 C 140.26 98.09 139.11 97.71 138.17 98.19 Z M 137.31 98.64 L 136.42 99.08 C 135.47 99.54 135.08 100.69 135.55 101.63 C 136.02 102.58 137.16 102.96 138.10 102.50 L 139.00 102.05 C 139.95 101.59 140.33 100.44 139.87 99.50 C 139.40 98.56 138.26 98.17 137.31 98.64 Z M 136.44 99.08 L 135.53 99.51 C 134.58 99.96 134.18 101.09 134.63 102.04 C 135.08 102.99 136.22 103.39 137.16 102.94 L 138.08 102.50 C 139.02 102.05 139.42 100.92 138.97 99.97 C 138.52 99.03 137.39 98.63 136.44 99.08 Z M 135.56 99.51 L 134.64 99.93 C 133.69 100.36 133.28 101.48 133.71 102.43 C 134.15 103.38 135.27 103.79 136.21 103.36 L 137.13 102.94 C 138.08 102.50 138.50 101.38 138.06 100.44 C 137.63 99.49 136.51 99.07 135.56 99.51 Z M 134.67 99.93 L 133.75 100.33 C 132.80 100.75 132.37 101.85 132.78 102.80 C 133.20 103.75 134.31 104.19 135.26 103.77 L 136.18 103.36 C 137.13 102.95 137.56 101.84 137.15 100.89 C 136.73 99.94 135.62 99.51 134.67 99.93 Z M 133.79 100.33 L 132.84 100.72 C 131.88 101.12 131.43 102.21 131.83 103.16 C 132.23 104.12 133.32 104.57 134.27 104.17 L 135.22 103.77 C 136.17 103.38 136.62 102.28 136.23 101.33 C 135.83 100.38 134.74 99.93 133.79 100.33 Z M 132.87 100.72 L 131.93 101.09 C 130.98 101.47 130.51 102.55 130.89 103.50 C 131.27 104.45 132.35 104.92 133.30 104.54 L 134.24 104.17 C 135.19 103.79 135.66 102.71 135.28 101.76 C 134.90 100.81 133.82 100.34 132.87 100.72 Z M 131.96 101.09 L 131.03 101.44 C 130.08 101.80 129.60 102.87 129.96 103.82 C 130.32 104.78 131.38 105.26 132.34 104.90 L 133.27 104.54 C 134.22 104.18 134.70 103.12 134.34 102.16 C 133.98 101.21 132.91 100.73 131.96 101.09 Z M 131.06 101.45 L 130.13 101.78 C 129.18 102.13 128.69 103.18 129.04 104.13 C 129.38 105.09 130.43 105.58 131.39 105.23 L 132.31 104.89 C 133.26 104.55 133.75 103.50 133.41 102.54 C 133.06 101.59 132.01 101.10 131.06 101.45 Z M 130.16 101.79 L 129.23 102.11 C 128.28 102.44 127.78 103.49 128.11 104.44 C 128.45 105.39 129.49 105.89 130.44 105.55 L 131.37 105.23 C 132.32 104.89 132.82 103.85 132.48 102.90 C 132.15 101.95 131.11 101.45 130.16 101.79 Z M 129.25 102.12 L 128.29 102.44 C 127.34 102.77 126.84 103.80 127.16 104.74 C 127.48 105.69 128.51 106.20 129.46 105.87 L 130.42 105.55 C 131.37 105.22 131.87 104.19 131.55 103.25 C 131.23 102.30 130.20 101.79 129.25 102.12 Z M 128.31 102.45 L 127.35 102.77 C 126.41 103.08 125.90 104.10 126.21 105.05 C 126.53 105.99 127.55 106.50 128.49 106.18 L 129.44 105.87 C 130.39 105.55 130.90 104.53 130.58 103.59 C 130.27 102.65 129.25 102.14 128.31 102.45 Z M 127.37 102.78 L 126.42 103.09 C 125.48 103.39 124.97 104.40 125.27 105.34 C 125.58 106.28 126.59 106.79 127.53 106.48 L 128.47 106.18 C 129.41 105.87 129.93 104.86 129.62 103.92 C 129.32 102.99 128.31 102.47 127.37 102.78 Z M 126.43 103.09 L 125.49 103.40 C 124.56 103.69 124.04 104.69 124.34 105.63 C 124.64 106.56 125.64 107.07 126.57 106.78 L 127.51 106.48 C 128.45 106.18 128.96 105.18 128.66 104.25 C 128.37 103.31 127.37 102.80 126.43 103.09 Z M 125.50 103.40 L 124.55 103.70 C 123.62 104.00 123.10 104.98 123.39 105.91 C 123.69 106.84 124.67 107.36 125.60 107.07 L 126.56 106.77 C 127.49 106.48 128.00 105.49 127.71 104.56 C 127.42 103.63 126.43 103.11 125.50 103.40 Z M 124.56 103.71 L 123.58 104.02 C 122.66 104.30 122.15 105.28 122.43 106.20 C 122.72 107.13 123.70 107.64 124.62 107.36 L 125.59 107.06 C 126.52 106.77 127.03 105.79 126.75 104.87 C 126.46 103.95 125.48 103.43 124.56 103.71 Z M 123.59 104.03 L 122.63 104.32 C 121.71 104.60 121.20 105.57 121.48 106.49 C 121.76 107.41 122.73 107.92 123.65 107.64 L 124.61 107.35 C 125.53 107.07 126.04 106.10 125.76 105.18 C 125.48 104.26 124.51 103.75 123.59 104.03 Z M 122.64 104.33 L 121.69 104.62 C 120.78 104.90 120.26 105.86 120.54 106.77 C 120.82 107.68 121.78 108.20 122.69 107.92 L 123.64 107.63 C 124.55 107.35 125.06 106.39 124.79 105.48 C 124.51 104.57 123.55 104.06 122.64 104.33 Z M 121.70 104.63 L 120.76 104.92 C 119.86 105.19 119.35 106.14 119.62 107.05 C 119.89 107.95 120.85 108.46 121.75 108.19 L 122.68 107.91 C 123.59 107.63 124.10 106.68 123.83 105.78 C 123.55 104.87 122.60 104.36 121.70 104.63 Z M 120.77 104.93 L 119.78 105.23 C 118.88 105.50 118.37 106.44 118.64 107.34 C 118.91 108.24 119.86 108.75 120.75 108.48 L 121.75 108.18 C 122.64 107.91 123.15 106.96 122.88 106.06 C 122.61 105.17 121.66 104.66 120.77 104.93 Z M 119.78 105.24 L 118.80 105.53 C 117.91 105.80 117.41 106.74 117.68 107.63 C 117.94 108.52 118.88 109.02 119.77 108.76 L 120.75 108.46 C 121.64 108.19 122.14 107.26 121.88 106.37 C 121.61 105.48 120.67 104.97 119.78 105.24 Z M 118.81 105.55 L 117.86 105.83 C 116.97 106.10 116.47 107.03 116.74 107.91 C 117.01 108.80 117.94 109.30 118.82 109.03 L 119.77 108.74 C 120.65 108.48 121.15 107.55 120.89 106.66 C 120.62 105.78 119.69 105.28 118.81 105.55 Z M 117.86 105.85 L 116.94 106.13 C 116.06 106.39 115.57 107.31 115.83 108.19 C 116.10 109.06 117.02 109.56 117.90 109.29 L 118.82 109.02 C 119.69 108.75 120.19 107.83 119.92 106.95 C 119.66 106.08 118.73 105.58 117.86 105.85 Z M 116.94 106.14 L 115.96 106.44 C 115.09 106.70 114.60 107.62 114.87 108.49 C 115.13 109.35 116.05 109.84 116.92 109.58 L 117.90 109.28 C 118.76 109.02 119.25 108.10 118.99 107.23 C 118.72 106.36 117.81 105.88 116.94 106.14 Z M 115.96 106.45 L 114.99 106.75 C 114.13 107.01 113.65 107.92 113.91 108.78 C 114.18 109.65 115.09 110.13 115.95 109.86 L 116.92 109.57 C 117.78 109.30 118.26 108.39 118.00 107.53 C 117.73 106.67 116.82 106.19 115.96 106.45 Z M 114.99 106.76 L 114.05 107.05 C 113.20 107.32 112.72 108.23 112.99 109.08 C 113.25 109.93 114.16 110.41 115.01 110.14 L 115.95 109.85 C 116.80 109.58 117.28 108.68 117.01 107.82 C 116.75 106.97 115.84 106.49 114.99 106.76 Z M 114.04 107.07 L 113.12 107.36 C 112.27 107.63 111.81 108.53 112.08 109.38 C 112.34 110.22 113.25 110.69 114.09 110.42 L 115.02 110.13 C 115.86 109.86 116.33 108.96 116.06 108.11 C 115.79 107.27 114.89 106.80 114.04 107.07 Z M 113.11 107.37 L 112.14 107.69 C 111.30 107.97 110.85 108.87 111.12 109.71 C 111.40 110.54 112.30 111.00 113.14 110.73 L 114.10 110.41 C 114.94 110.13 115.40 109.23 115.12 108.40 C 114.85 107.56 113.95 107.10 113.11 107.37 Z M 112.12 107.71 L 111.17 108.04 C 110.35 108.32 109.91 109.23 110.20 110.06 C 110.48 110.89 111.39 111.32 112.22 111.04 L 113.16 110.71 C 113.99 110.42 114.43 109.52 114.14 108.69 C 113.85 107.86 112.95 107.42 112.12 107.71 Z M 111.13 108.06 L 110.21 108.41 C 109.40 108.72 108.99 109.63 109.30 110.45 C 109.61 111.26 110.52 111.67 111.34 111.36 L 112.26 111.01 C 113.07 110.70 113.48 109.79 113.17 108.97 C 112.86 108.16 111.95 107.75 111.13 108.06 Z M 110.16 108.44 L 109.24 108.83 C 108.44 109.17 108.07 110.09 108.41 110.89 C 108.75 111.69 109.67 112.07 110.47 111.73 L 111.39 111.33 C 112.19 110.99 112.56 110.07 112.22 109.27 C 111.88 108.47 110.96 108.10 110.16 108.44 Z M 109.19 108.85 L 108.29 109.28 C 107.50 109.64 107.16 110.58 107.53 111.36 C 107.89 112.15 108.83 112.49 109.61 112.12 L 110.52 111.70 C 111.30 111.33 111.64 110.40 111.28 109.62 C 110.91 108.83 109.98 108.49 109.19 108.85 Z M 108.26 109.29 L 107.36 109.73 C 106.59 110.11 106.27 111.05 106.65 111.83 C 107.03 112.60 107.97 112.93 108.74 112.54 L 109.64 112.11 C 110.42 111.72 110.74 110.79 110.36 110.01 C 109.97 109.23 109.04 108.91 108.26 109.29 Z M 107.36 109.74 L 106.90 109.97 C 106.12 110.35 105.81 111.29 106.20 112.07 C 106.58 112.84 107.52 113.15 108.29 112.77 L 108.75 112.54 C 109.53 112.15 109.84 111.21 109.45 110.44 C 109.07 109.67 108.13 109.35 107.36 109.74 Z"
      fill="black"
      fill-rule="nonzero" /><path d="M 63.20 170.29 L 62.01 169.78 C 61.09 169.39 60.02 169.81 59.63 170.73 C 59.23 171.65 59.66 172.71 60.58 173.11 L 61.77 173.62 C 62.69 174.02 63.75 173.59 64.15 172.67 C 64.54 171.75 64.12 170.69 63.20 170.29 Z M 62.29 169.89 L 61.49 169.37 C 60.63 168.82 59.48 169.07 58.93 169.93 C 58.38 170.79 58.63 171.94 59.49 172.49 L 60.29 173.00 C 61.15 173.56 62.30 173.30 62.85 172.44 C 63.40 171.58 63.15 170.44 62.29 169.89 Z M 62.38 170.80 L 62.34 170.31 C 62.27 169.26 61.36 168.48 60.32 168.55 C 59.28 168.63 58.49 169.53 58.57 170.58 L 58.60 171.07 C 58.68 172.11 59.58 172.89 60.63 172.82 C 61.67 172.75 62.45 171.84 62.38 170.80 Z M 61.50 172.07 L 62.08 171.70 C 62.98 171.13 63.24 169.93 62.67 169.03 C 62.09 168.13 60.89 167.86 59.99 168.44 L 59.41 168.81 C 58.51 169.39 58.25 170.58 58.82 171.48 C 59.40 172.39 60.60 172.65 61.50 172.07 Z M 61.73 171.93 L 62.68 171.57 C 63.71 171.19 64.23 170.05 63.85 169.02 C 63.46 168.00 62.32 167.48 61.30 167.86 L 60.34 168.22 C 59.32 168.60 58.80 169.74 59.18 170.77 C 59.56 171.79 60.70 172.31 61.73 171.93 Z M 62.56 171.66 L 63.70 171.33 C 64.78 171.02 65.40 169.89 65.08 168.82 C 64.77 167.74 63.65 167.12 62.57 167.44 L 61.43 167.77 C 60.35 168.08 59.73 169.21 60.04 170.28 C 60.36 171.36 61.48 171.98 62.56 171.66 Z M 63.66 171.39 L 64.80 171.10 C 65.90 170.81 66.57 169.68 66.28 168.57 C 66.00 167.46 64.87 166.80 63.76 167.08 L 62.62 167.38 C 61.51 167.66 60.84 168.79 61.13 169.90 C 61.42 171.01 62.55 171.68 63.66 171.39 Z M 64.79 171.14 L 65.79 170.89 C 66.93 170.61 67.62 169.47 67.34 168.33 C 67.06 167.20 65.91 166.51 64.78 166.79 L 63.77 167.04 C 62.64 167.32 61.95 168.46 62.23 169.60 C 62.51 170.73 63.65 171.42 64.79 171.14 Z M 65.78 170.93 L 66.73 170.71 C 67.89 170.43 68.61 169.27 68.33 168.11 C 68.05 166.96 66.89 166.24 65.73 166.52 L 64.79 166.74 C 63.63 167.02 62.91 168.18 63.19 169.34 C 63.47 170.50 64.63 171.21 65.78 170.93 Z M 66.73 170.75 L 67.67 170.53 C 68.85 170.26 69.58 169.08 69.31 167.90 C 69.04 166.72 67.86 165.99 66.68 166.26 L 65.74 166.48 C 64.56 166.75 63.82 167.93 64.10 169.11 C 64.37 170.29 65.55 171.02 66.73 170.75 Z M 67.67 170.57 L 68.62 170.36 C 69.82 170.08 70.57 168.89 70.30 167.69 C 70.03 166.48 68.83 165.73 67.63 166.00 L 66.68 166.22 C 65.48 166.49 64.72 167.69 65.00 168.89 C 65.27 170.09 66.47 170.84 67.67 170.57 Z M 68.62 170.38 L 69.49 170.18 C 70.71 169.91 71.47 168.70 71.20 167.49 C 70.93 166.27 69.72 165.51 68.50 165.78 L 67.63 165.98 C 66.42 166.25 65.65 167.46 65.92 168.67 C 66.20 169.89 67.40 170.65 68.62 170.38 Z M 69.49 170.20 L 70.42 169.99 C 71.64 169.72 72.41 168.51 72.14 167.28 C 71.87 166.06 70.66 165.29 69.43 165.56 L 68.51 165.77 C 67.28 166.04 66.51 167.25 66.78 168.48 C 67.06 169.70 68.27 170.47 69.49 170.20 Z M 70.42 170.00 L 71.41 169.79 C 72.64 169.51 73.41 168.30 73.14 167.07 C 72.87 165.84 71.65 165.06 70.42 165.33 L 69.44 165.55 C 68.21 165.82 67.43 167.04 67.70 168.27 C 67.97 169.50 69.19 170.28 70.42 170.00 Z M 71.41 169.80 L 72.45 169.57 C 73.69 169.30 74.47 168.08 74.20 166.84 C 73.93 165.60 72.71 164.82 71.47 165.09 L 70.42 165.32 C 69.19 165.59 68.40 166.81 68.68 168.05 C 68.95 169.29 70.17 170.07 71.41 169.80 Z M 72.45 169.58 L 73.49 169.36 C 74.74 169.09 75.53 167.86 75.26 166.61 C 74.99 165.37 73.76 164.58 72.51 164.85 L 71.47 165.08 C 70.23 165.35 69.44 166.57 69.71 167.82 C 69.98 169.06 71.21 169.85 72.45 169.58 Z M 73.49 169.37 L 74.39 169.17 C 75.64 168.90 76.43 167.67 76.16 166.42 C 75.89 165.17 74.66 164.38 73.41 164.65 L 72.51 164.84 C 71.26 165.11 70.47 166.34 70.74 167.59 C 71.01 168.84 72.24 169.64 73.49 169.37 Z M 74.39 169.18 L 75.32 168.98 C 76.57 168.71 77.37 167.48 77.10 166.22 C 76.84 164.97 75.60 164.17 74.35 164.44 L 73.41 164.64 C 72.16 164.91 71.36 166.14 71.63 167.40 C 71.90 168.65 73.13 169.45 74.39 169.18 Z M 75.32 168.99 L 76.28 168.79 C 77.54 168.52 78.35 167.28 78.08 166.02 C 77.81 164.76 76.58 163.96 75.32 164.22 L 74.35 164.43 C 73.09 164.70 72.28 165.93 72.55 167.19 C 72.82 168.45 74.06 169.26 75.32 168.99 Z M 76.28 168.79 L 77.28 168.58 C 78.54 168.32 79.35 167.08 79.09 165.81 C 78.82 164.55 77.58 163.74 76.32 164.01 L 75.32 164.22 C 74.05 164.48 73.24 165.72 73.51 166.99 C 73.78 168.25 75.02 169.06 76.28 168.79 Z M 77.28 168.59 L 78.31 168.38 C 79.58 168.11 80.39 166.87 80.13 165.60 C 79.87 164.33 78.62 163.52 77.35 163.78 L 76.32 164.00 C 75.05 164.26 74.24 165.50 74.50 166.77 C 74.76 168.04 76.01 168.86 77.28 168.59 Z M 78.30 168.39 L 79.37 168.17 C 80.64 167.91 81.46 166.66 81.20 165.39 C 80.94 164.11 79.69 163.29 78.42 163.55 L 77.36 163.77 C 76.08 164.03 75.26 165.28 75.52 166.55 C 75.79 167.83 77.03 168.65 78.30 168.39 Z M 79.36 168.18 L 80.29 167.99 C 81.57 167.73 82.39 166.48 82.13 165.20 C 81.88 163.93 80.63 163.10 79.35 163.36 L 78.42 163.55 C 77.15 163.81 76.32 165.05 76.58 166.33 C 76.84 167.61 78.09 168.44 79.36 168.18 Z M 80.29 167.99 L 81.22 167.80 C 82.50 167.55 83.33 166.30 83.08 165.02 C 82.82 163.74 81.57 162.91 80.29 163.17 L 79.35 163.36 C 78.07 163.61 77.25 164.86 77.50 166.14 C 77.76 167.42 79.01 168.25 80.29 167.99 Z M 81.22 167.81 L 82.18 167.62 C 83.46 167.36 84.29 166.11 84.04 164.83 C 83.78 163.55 82.54 162.72 81.25 162.97 L 80.30 163.16 C 79.01 163.42 78.18 164.67 78.44 165.95 C 78.69 167.23 79.94 168.06 81.22 167.81 Z M 82.18 167.62 L 83.15 167.43 C 84.44 167.17 85.27 165.93 85.02 164.64 C 84.76 163.36 83.52 162.52 82.23 162.78 L 81.26 162.97 C 79.97 163.22 79.14 164.47 79.39 165.75 C 79.64 167.04 80.89 167.87 82.18 167.62 Z M 83.15 167.43 L 84.15 167.24 C 85.43 166.98 86.27 165.74 86.02 164.45 C 85.76 163.16 84.52 162.32 83.23 162.58 L 82.23 162.77 C 80.95 163.02 80.11 164.27 80.36 165.56 C 80.62 166.85 81.86 167.68 83.15 167.43 Z M 84.14 167.24 L 85.16 167.04 C 86.45 166.79 87.29 165.54 87.03 164.25 C 86.78 162.96 85.53 162.12 84.25 162.37 L 83.23 162.57 C 81.94 162.82 81.10 164.07 81.35 165.36 C 81.61 166.65 82.85 167.49 84.14 167.24 Z M 85.15 167.05 L 86.19 166.85 C 87.48 166.59 88.32 165.35 88.07 164.05 C 87.82 162.76 86.57 161.92 85.28 162.17 L 84.25 162.37 C 82.96 162.62 82.11 163.87 82.36 165.16 C 82.61 166.45 83.86 167.30 85.15 167.05 Z M 86.18 166.85 L 87.18 166.66 C 88.47 166.41 89.32 165.16 89.07 163.86 C 88.82 162.57 87.56 161.72 86.27 161.97 L 85.28 162.17 C 83.99 162.42 83.14 163.67 83.39 164.96 C 83.64 166.25 84.89 167.10 86.18 166.85 Z M 87.18 166.66 L 88.11 166.48 C 89.41 166.23 90.26 164.98 90.01 163.68 C 89.76 162.39 88.51 161.54 87.21 161.79 L 86.27 161.97 C 84.98 162.22 84.13 163.47 84.38 164.77 C 84.63 166.06 85.88 166.91 87.18 166.66 Z M 88.11 166.49 L 89.06 166.30 C 90.36 166.06 91.21 164.80 90.96 163.50 C 90.71 162.20 89.46 161.35 88.16 161.60 L 87.21 161.78 C 85.91 162.03 85.06 163.29 85.31 164.59 C 85.56 165.89 86.81 166.74 88.11 166.49 Z M 89.06 166.31 L 90.03 166.13 C 91.33 165.88 92.18 164.62 91.93 163.31 C 91.68 162.01 90.42 161.16 89.12 161.41 L 88.16 161.60 C 86.86 161.85 86.00 163.10 86.25 164.41 C 86.50 165.71 87.76 166.56 89.06 166.31 Z M 90.03 166.13 L 91.01 165.94 C 92.31 165.69 93.17 164.43 92.92 163.13 C 92.66 161.82 91.40 160.97 90.10 161.22 L 89.12 161.40 C 87.82 161.66 86.96 162.92 87.21 164.22 C 87.46 165.53 88.72 166.38 90.03 166.13 Z M 91.01 165.95 L 92.00 165.76 C 93.31 165.51 94.16 164.24 93.91 162.93 C 93.66 161.63 92.40 160.77 91.09 161.02 L 90.10 161.21 C 88.79 161.46 87.93 162.73 88.18 164.04 C 88.44 165.34 89.70 166.20 91.01 165.95 Z M 92.00 165.76 L 93.00 165.57 C 94.32 165.32 95.17 164.05 94.92 162.74 C 94.67 161.43 93.40 160.57 92.09 160.82 L 91.09 161.02 C 89.77 161.27 88.92 162.54 89.17 163.85 C 89.42 165.16 90.69 166.02 92.00 165.76 Z M 93.01 165.58 L 94.03 165.38 C 95.34 165.13 96.20 163.85 95.95 162.54 C 95.69 161.23 94.42 160.37 93.11 160.62 L 92.09 160.82 C 90.77 161.07 89.91 162.34 90.17 163.66 C 90.42 164.97 91.69 165.83 93.01 165.58 Z M 94.03 165.38 L 95.06 165.18 C 96.38 164.93 97.24 163.65 96.98 162.34 C 96.73 161.02 95.45 160.16 94.14 160.42 L 93.10 160.62 C 91.79 160.87 90.93 162.14 91.18 163.46 C 91.44 164.78 92.71 165.64 94.03 165.38 Z M 95.06 165.19 L 96.02 165.00 C 97.34 164.75 98.21 163.47 97.95 162.15 C 97.69 160.83 96.42 159.97 95.10 160.22 L 94.14 160.41 C 92.82 160.67 91.95 161.94 92.21 163.26 C 92.47 164.58 93.74 165.45 95.06 165.19 Z M 96.03 165.01 L 96.99 164.82 C 98.31 164.56 99.18 163.28 98.92 161.96 C 98.66 160.64 97.38 159.77 96.06 160.03 L 95.09 160.22 C 93.77 160.48 92.91 161.76 93.17 163.08 C 93.42 164.40 94.70 165.26 96.03 165.01 Z M 96.99 164.82 L 97.97 164.63 C 99.29 164.38 100.16 163.09 99.90 161.77 C 99.64 160.44 98.36 159.58 97.03 159.84 L 96.06 160.03 C 94.73 160.28 93.87 161.57 94.13 162.89 C 94.38 164.22 95.67 165.08 96.99 164.82 Z M 97.97 164.64 L 98.95 164.45 C 100.27 164.19 101.14 162.91 100.88 161.58 C 100.63 160.25 99.34 159.38 98.01 159.64 L 97.03 159.83 C 95.70 160.09 94.84 161.38 95.09 162.70 C 95.35 164.03 96.64 164.90 97.97 164.64 Z M 98.95 164.45 L 99.93 164.26 C 101.26 164.01 102.13 162.72 101.88 161.39 C 101.62 160.06 100.33 159.19 99.00 159.44 L 98.01 159.64 C 96.68 159.89 95.81 161.18 96.07 162.51 C 96.33 163.84 97.62 164.71 98.95 164.45 Z M 99.93 164.27 L 100.92 164.08 C 102.26 163.82 103.13 162.53 102.87 161.20 C 102.62 159.86 101.33 158.99 99.99 159.25 L 99.00 159.44 C 97.67 159.70 96.79 160.99 97.05 162.32 C 97.31 163.65 98.60 164.53 99.93 164.27 Z M 100.92 164.08 L 101.91 163.89 C 103.25 163.64 104.13 162.35 103.87 161.01 C 103.62 159.67 102.32 158.80 100.99 159.05 L 99.99 159.24 C 98.66 159.50 97.78 160.79 98.04 162.13 C 98.29 163.46 99.58 164.34 100.92 164.08 Z M 101.91 163.90 L 102.90 163.71 C 104.25 163.46 105.13 162.16 104.87 160.82 C 104.62 159.48 103.32 158.60 101.98 158.86 L 100.99 159.05 C 99.65 159.30 98.77 160.59 99.02 161.93 C 99.28 163.27 100.57 164.15 101.91 163.90 Z M 102.90 163.72 L 103.89 163.53 C 105.24 163.28 106.12 161.98 105.87 160.64 C 105.62 159.30 104.32 158.41 102.98 158.66 L 101.99 158.85 C 100.64 159.10 99.76 160.40 100.01 161.74 C 100.26 163.08 101.56 163.97 102.90 163.72 Z M 103.89 163.54 L 104.87 163.35 C 106.22 163.10 107.10 161.81 106.85 160.46 C 106.60 159.12 105.31 158.23 103.96 158.48 L 102.99 158.66 C 101.64 158.91 100.75 160.20 101.00 161.55 C 101.25 162.90 102.54 163.79 103.89 163.54 Z M 104.86 163.36 L 105.83 163.18 C 107.18 162.94 108.07 161.64 107.83 160.29 C 107.58 158.94 106.28 158.05 104.94 158.30 L 103.97 158.47 C 102.62 158.72 101.72 160.01 101.97 161.36 C 102.22 162.71 103.51 163.61 104.86 163.36 Z M 105.83 163.19 L 106.79 163.01 C 108.14 162.77 109.04 161.47 108.80 160.12 C 108.55 158.77 107.26 157.87 105.91 158.12 L 104.94 158.29 C 103.59 158.53 102.69 159.83 102.93 161.18 C 103.18 162.53 104.47 163.43 105.83 163.19 Z M 106.79 163.02 L 107.76 162.84 C 109.11 162.60 110.01 161.31 109.77 159.95 C 109.53 158.60 108.24 157.70 106.88 157.94 L 105.91 158.11 C 104.56 158.35 103.65 159.65 103.90 161.00 C 104.14 162.36 105.43 163.26 106.79 163.02 Z M 107.75 162.85 L 108.73 162.68 C 110.08 162.44 110.99 161.14 110.75 159.78 C 110.51 158.43 109.22 157.52 107.86 157.76 L 106.88 157.93 C 105.53 158.17 104.62 159.47 104.86 160.82 C 105.10 162.18 106.40 163.09 107.75 162.85 Z M 108.72 162.68 L 109.70 162.51 C 111.06 162.27 111.97 160.98 111.73 159.62 C 111.50 158.26 110.20 157.35 108.84 157.59 L 107.86 157.76 C 106.50 157.99 105.59 159.29 105.83 160.65 C 106.07 162.01 107.36 162.92 108.72 162.68 Z M 109.70 162.51 L 110.69 162.34 C 112.05 162.11 112.96 160.81 112.73 159.45 C 112.49 158.09 111.20 157.18 109.83 157.41 L 108.85 157.58 C 107.48 157.82 106.57 159.11 106.81 160.47 C 107.04 161.84 108.34 162.75 109.70 162.51 Z M 110.68 162.35 L 111.68 162.18 C 113.05 161.94 113.96 160.65 113.73 159.28 C 113.49 157.92 112.20 157.00 110.83 157.24 L 109.84 157.41 C 108.47 157.64 107.56 158.94 107.79 160.30 C 108.02 161.66 109.32 162.58 110.68 162.35 Z M 111.68 162.18 L 112.69 162.01 C 114.05 161.78 114.97 160.48 114.74 159.11 C 114.51 157.75 113.21 156.83 111.85 157.06 L 110.84 157.23 C 109.47 157.46 108.55 158.76 108.78 160.13 C 109.01 161.49 110.31 162.41 111.68 162.18 Z M 112.68 162.01 L 113.71 161.84 C 115.07 161.61 116.00 160.31 115.77 158.95 C 115.54 157.58 114.24 156.65 112.87 156.88 L 111.85 157.06 C 110.48 157.29 109.56 158.58 109.79 159.95 C 110.02 161.32 111.32 162.24 112.68 162.01 Z M 113.70 161.85 L 114.63 161.69 C 116.01 161.46 116.93 160.16 116.70 158.79 C 116.47 157.42 115.17 156.50 113.80 156.72 L 112.87 156.88 C 111.50 157.11 110.58 158.41 110.80 159.78 C 111.03 161.15 112.33 162.08 113.70 161.85 Z M 114.63 161.69 L 115.57 161.54 C 116.95 161.31 117.88 160.01 117.65 158.64 C 117.42 157.27 116.12 156.34 114.75 156.56 L 113.81 156.72 C 112.43 156.95 111.50 158.25 111.73 159.62 C 111.96 160.99 113.26 161.92 114.63 161.69 Z M 115.57 161.54 L 116.53 161.38 C 117.90 161.16 118.83 159.86 118.61 158.49 C 118.38 157.11 117.08 156.18 115.71 156.40 L 114.75 156.56 C 113.38 156.79 112.45 158.08 112.67 159.46 C 112.90 160.84 114.20 161.77 115.57 161.54 Z M 116.52 161.39 L 117.49 161.23 C 118.87 161.01 119.80 159.71 119.58 158.33 C 119.36 156.95 118.06 156.02 116.68 156.24 L 115.71 156.40 C 114.33 156.62 113.40 157.92 113.62 159.30 C 113.85 160.68 115.14 161.61 116.52 161.39 Z M 117.48 161.24 L 118.46 161.08 C 119.84 160.86 120.78 159.56 120.56 158.18 C 120.34 156.80 119.04 155.86 117.66 156.08 L 116.68 156.24 C 115.30 156.46 114.37 157.76 114.59 159.14 C 114.81 160.52 116.11 161.46 117.48 161.24 Z M 118.46 161.08 L 119.45 160.93 C 120.83 160.71 121.78 159.41 121.56 158.03 C 121.34 156.65 120.04 155.70 118.66 155.92 L 117.67 156.08 C 116.29 156.30 115.34 157.59 115.56 158.98 C 115.78 160.36 117.08 161.30 118.46 161.08 Z M 119.44 160.93 L 120.45 160.77 C 121.83 160.56 122.78 159.26 122.56 157.88 C 122.35 156.50 121.05 155.55 119.67 155.76 L 118.67 155.92 C 117.28 156.13 116.33 157.43 116.55 158.81 C 116.76 160.20 118.06 161.14 119.44 160.93 Z M 120.44 160.78 L 121.45 160.62 C 122.84 160.41 123.79 159.12 123.58 157.73 C 123.37 156.35 122.08 155.39 120.69 155.60 L 119.68 155.76 C 118.29 155.97 117.34 157.26 117.55 158.65 C 117.76 160.04 119.05 160.99 120.44 160.78 Z M 121.45 160.63 L 122.47 160.48 C 123.86 160.27 124.82 158.97 124.61 157.59 C 124.40 156.20 123.11 155.24 121.72 155.45 L 120.70 155.60 C 119.31 155.81 118.35 157.10 118.56 158.49 C 118.76 159.88 120.06 160.84 121.45 160.63 Z M 122.46 160.48 L 123.50 160.33 C 124.89 160.13 125.85 158.83 125.65 157.44 C 125.45 156.05 124.16 155.09 122.76 155.29 L 121.73 155.44 C 120.34 155.65 119.38 156.94 119.58 158.33 C 119.78 159.72 121.07 160.68 122.46 160.48 Z M 123.49 160.33 L 124.51 160.19 C 125.90 159.99 126.87 158.70 126.67 157.30 C 126.47 155.91 125.18 154.94 123.79 155.14 L 122.77 155.29 C 121.38 155.49 120.41 156.78 120.61 158.17 C 120.81 159.56 122.10 160.53 123.49 160.33 Z M 124.50 160.19 L 125.48 160.05 C 126.87 159.86 127.85 158.57 127.65 157.18 C 127.46 155.78 126.17 154.81 124.77 155.00 L 123.80 155.14 C 122.40 155.33 121.43 156.62 121.62 158.02 C 121.82 159.41 123.11 160.39 124.50 160.19 Z M 125.47 160.06 L 126.45 159.92 C 127.85 159.73 128.83 158.45 128.64 157.05 C 128.45 155.65 127.16 154.67 125.76 154.86 L 124.78 155.00 C 123.38 155.19 122.41 156.48 122.60 157.87 C 122.79 159.27 124.07 160.25 125.47 160.06 Z M 126.45 159.93 L 127.44 159.79 C 128.84 159.61 129.82 158.32 129.63 156.92 C 129.44 155.52 128.16 154.54 126.76 154.73 L 125.77 154.86 C 124.37 155.05 123.39 156.34 123.58 157.73 C 123.76 159.13 125.05 160.11 126.45 159.93 Z M 127.43 159.80 L 128.43 159.67 C 129.83 159.48 130.81 158.20 130.63 156.80 C 130.44 155.40 129.16 154.41 127.76 154.59 L 126.76 154.73 C 125.36 154.91 124.38 156.20 124.56 157.60 C 124.75 159.00 126.03 159.98 127.43 159.80 Z M 128.42 159.67 L 129.42 159.54 C 130.82 159.36 131.81 158.07 131.63 156.67 C 131.44 155.27 130.16 154.28 128.76 154.46 L 127.76 154.59 C 126.36 154.77 125.37 156.06 125.55 157.46 C 125.73 158.86 127.02 159.85 128.42 159.67 Z M 129.42 159.54 L 130.41 159.41 C 131.82 159.23 132.81 157.95 132.63 156.54 C 132.45 155.14 131.16 154.15 129.76 154.33 L 128.76 154.46 C 127.36 154.64 126.36 155.92 126.55 157.33 C 126.73 158.73 128.01 159.72 129.42 159.54 Z M 130.41 159.42 L 131.41 159.29 C 132.82 159.11 133.81 157.82 133.63 156.42 C 133.45 155.01 132.17 154.02 130.76 154.20 L 129.76 154.33 C 128.36 154.51 127.36 155.79 127.54 157.20 C 127.72 158.60 129.01 159.60 130.41 159.42 Z M 131.41 159.29 L 132.41 159.16 C 133.82 158.98 134.81 157.70 134.63 156.29 C 134.45 154.89 133.17 153.89 131.76 154.07 L 130.76 154.20 C 129.35 154.38 128.36 155.66 128.54 157.07 C 128.72 158.48 130.00 159.47 131.41 159.29 Z M 132.41 159.17 L 133.41 159.04 C 134.81 158.86 135.81 157.57 135.63 156.17 C 135.45 154.76 134.17 153.76 132.76 153.94 L 131.76 154.07 C 130.35 154.25 129.36 155.53 129.54 156.94 C 129.71 158.35 131.00 159.35 132.41 159.17 Z M 133.41 159.04 L 134.40 158.92 C 135.81 158.74 136.81 157.45 136.63 156.04 C 136.45 154.63 135.16 153.63 133.75 153.81 L 132.76 153.94 C 131.35 154.12 130.35 155.40 130.53 156.81 C 130.71 158.22 132.00 159.22 133.41 159.04 Z M 134.40 158.92 L 135.39 158.79 C 136.80 158.61 137.80 157.32 137.62 155.91 C 137.44 154.50 136.15 153.50 134.74 153.68 L 133.75 153.81 C 132.34 153.99 131.34 155.28 131.52 156.69 C 131.70 158.10 132.99 159.10 134.40 158.92 Z M 135.39 158.79 L 136.42 158.66 C 137.83 158.48 138.83 157.19 138.65 155.78 C 138.47 154.37 137.18 153.37 135.76 153.55 L 134.74 153.68 C 133.33 153.86 132.33 155.15 132.51 156.56 C 132.69 157.98 133.98 158.97 135.39 158.79 Z M 136.42 158.66 L 137.45 158.53 C 138.86 158.35 139.86 157.06 139.68 155.64 C 139.50 154.23 138.20 153.23 136.79 153.42 L 135.76 153.55 C 134.35 153.73 133.35 155.02 133.54 156.44 C 133.72 157.85 135.01 158.84 136.42 158.66 Z M 137.45 158.53 L 138.47 158.40 C 139.89 158.22 140.88 156.92 140.70 155.51 C 140.52 154.10 139.22 153.10 137.81 153.28 L 136.79 153.42 C 135.38 153.60 134.38 154.89 134.56 156.30 C 134.75 157.72 136.04 158.71 137.45 158.53 Z M 138.47 158.40 L 139.49 158.27 C 140.90 158.08 141.90 156.79 141.71 155.38 C 141.53 153.96 140.24 152.97 138.82 153.15 L 137.81 153.28 C 136.40 153.47 135.40 154.76 135.58 156.17 C 135.77 157.59 137.06 158.58 138.47 158.40 Z M 139.49 158.27 L 140.49 158.14 C 141.91 157.95 142.90 156.66 142.72 155.25 C 142.53 153.83 141.24 152.84 139.83 153.02 L 138.82 153.15 C 137.41 153.33 136.41 154.63 136.60 156.04 C 136.78 157.46 138.08 158.45 139.49 158.27 Z M 140.49 158.14 L 141.49 158.01 C 142.90 157.82 143.90 156.53 143.72 155.11 C 143.53 153.70 142.24 152.70 140.82 152.89 L 139.83 153.02 C 138.41 153.20 137.42 154.50 137.60 155.91 C 137.78 157.33 139.08 158.32 140.49 158.14 Z M 141.49 158.01 L 142.48 157.88 C 143.89 157.70 144.89 156.40 144.70 154.99 C 144.52 153.57 143.22 152.57 141.81 152.76 L 140.82 152.89 C 139.41 153.07 138.41 154.37 138.59 155.78 C 138.78 157.20 140.08 158.19 141.49 158.01 Z M 142.48 157.88 L 143.45 157.75 C 144.87 157.57 145.86 156.27 145.68 154.86 C 145.50 153.44 144.20 152.45 142.78 152.63 L 141.81 152.76 C 140.39 152.94 139.39 154.24 139.58 155.65 C 139.76 157.07 141.06 158.07 142.48 157.88 Z M 143.45 157.76 L 144.42 157.63 C 145.83 157.45 146.83 156.15 146.65 154.73 C 146.46 153.32 145.17 152.32 143.75 152.50 L 142.78 152.63 C 141.37 152.81 140.37 154.11 140.55 155.53 C 140.74 156.94 142.04 157.94 143.45 157.76 Z M 144.42 157.63 L 145.37 157.51 C 146.79 157.32 147.79 156.03 147.60 154.61 C 147.42 153.19 146.12 152.19 144.70 152.38 L 143.75 152.50 C 142.33 152.69 141.33 153.98 141.52 155.40 C 141.70 156.82 143.00 157.82 144.42 157.63 Z M 145.37 157.51 L 146.31 157.39 C 147.73 157.20 148.73 155.91 148.55 154.49 C 148.36 153.07 147.07 152.07 145.65 152.26 L 144.71 152.38 C 143.29 152.56 142.29 153.86 142.47 155.27 C 142.66 156.69 143.95 157.69 145.37 157.51 Z M 146.31 157.39 L 147.32 157.26 C 148.73 157.08 149.74 155.78 149.55 154.36 C 149.37 152.94 148.07 151.94 146.66 152.12 L 145.65 152.25 C 144.23 152.44 143.23 153.73 143.41 155.15 C 143.60 156.57 144.89 157.57 146.31 157.39 Z M 147.32 157.26 L 148.32 157.13 C 149.74 156.95 150.74 155.65 150.56 154.23 C 150.38 152.81 149.08 151.81 147.66 151.99 L 146.66 152.12 C 145.24 152.30 144.24 153.60 144.42 155.02 C 144.60 156.44 145.90 157.44 147.32 157.26 Z M 148.32 157.13 L 149.32 157.01 C 150.74 156.83 151.74 155.53 151.56 154.11 C 151.38 152.69 150.08 151.68 148.66 151.86 L 147.66 151.99 C 146.24 152.17 145.24 153.47 145.42 154.89 C 145.60 156.31 146.90 157.31 148.32 157.13 Z M 149.31 157.01 L 150.30 156.88 C 151.72 156.70 152.73 155.40 152.55 153.98 C 152.37 152.56 151.07 151.56 149.65 151.74 L 148.66 151.86 C 147.24 152.04 146.23 153.34 146.41 154.76 C 146.60 156.18 147.89 157.19 149.31 157.01 Z M 150.30 156.89 L 151.29 156.76 C 152.71 156.58 153.71 155.28 153.53 153.86 C 153.36 152.44 152.06 151.43 150.63 151.61 L 149.65 151.74 C 148.23 151.91 147.22 153.21 147.40 154.64 C 147.58 156.06 148.88 157.06 150.30 156.89 Z M 151.28 156.76 L 152.27 156.64 C 153.69 156.46 154.70 155.16 154.52 153.74 C 154.34 152.31 153.04 151.31 151.62 151.49 L 150.64 151.61 C 149.21 151.79 148.20 153.09 148.38 154.51 C 148.56 155.93 149.86 156.94 151.28 156.76 Z M 152.26 156.64 L 153.25 156.52 C 154.67 156.34 155.68 155.04 155.50 153.62 C 155.32 152.19 154.02 151.18 152.60 151.36 L 151.62 151.48 C 150.19 151.66 149.18 152.96 149.36 154.39 C 149.54 155.81 150.84 156.82 152.26 156.64 Z M 153.25 156.52 L 154.23 156.40 C 155.66 156.22 156.67 154.92 156.49 153.49 C 156.31 152.07 155.01 151.06 153.58 151.24 L 152.60 151.36 C 151.17 151.54 150.16 152.84 150.34 154.26 C 150.52 155.69 151.82 156.70 153.25 156.52 Z M 154.23 156.40 L 155.22 156.27 C 156.64 156.10 157.66 154.80 157.48 153.37 C 157.30 151.94 156.00 150.93 154.57 151.11 L 153.58 151.23 C 152.16 151.41 151.15 152.71 151.32 154.14 C 151.50 155.57 152.80 156.58 154.23 156.40 Z M 155.22 156.28 L 156.22 156.15 C 157.64 155.97 158.66 154.67 158.48 153.24 C 158.30 151.82 157.00 150.80 155.57 150.98 L 154.57 151.11 C 153.15 151.29 152.13 152.59 152.31 154.02 C 152.49 155.44 153.79 156.45 155.22 156.28 Z M 156.22 156.15 L 157.20 156.03 C 158.63 155.85 159.64 154.55 159.47 153.12 C 159.29 151.69 157.98 150.68 156.56 150.86 L 155.57 150.98 C 154.14 151.16 153.13 152.46 153.31 153.89 C 153.49 155.32 154.79 156.33 156.22 156.15 Z M 157.20 156.03 L 158.19 155.91 C 159.62 155.73 160.64 154.43 160.46 153.00 C 160.28 151.57 158.98 150.56 157.55 150.73 L 156.56 150.86 C 155.13 151.04 154.11 152.34 154.29 153.77 C 154.47 155.19 155.77 156.21 157.20 156.03 Z M 158.19 155.91 L 159.19 155.79 C 160.62 155.61 161.63 154.31 161.46 152.88 C 161.28 151.45 159.98 150.43 158.55 150.61 L 157.55 150.73 C 156.12 150.91 155.11 152.21 155.28 153.64 C 155.46 155.07 156.76 156.09 158.19 155.91 Z M 159.19 155.79 L 160.19 155.66 C 161.62 155.49 162.63 154.19 162.46 152.76 C 162.28 151.33 160.98 150.31 159.55 150.49 L 158.55 150.61 C 157.12 150.78 156.10 152.08 156.28 153.51 C 156.45 154.94 157.76 155.96 159.19 155.79 Z M 160.18 155.67 L 161.19 155.54 C 162.62 155.37 163.64 154.07 163.46 152.64 C 163.29 151.21 161.99 150.19 160.56 150.36 L 159.56 150.48 C 158.13 150.66 157.11 151.96 157.28 153.39 C 157.45 154.82 158.75 155.84 160.18 155.67 Z M 161.18 155.55 L 162.18 155.43 C 163.61 155.26 164.64 153.96 164.47 152.53 C 164.30 151.10 163.00 150.07 161.57 150.24 L 160.57 150.36 C 159.13 150.53 158.11 151.83 158.28 153.26 C 158.45 154.69 159.75 155.72 161.18 155.55 Z M 162.18 155.43 L 163.18 155.31 C 164.61 155.15 165.64 153.85 165.47 152.42 C 165.30 150.99 164.01 149.96 162.58 150.12 L 161.58 150.24 C 160.14 150.41 159.12 151.70 159.28 153.13 C 159.45 154.57 160.74 155.59 162.18 155.43 Z M 163.17 155.31 L 164.16 155.20 C 165.60 155.04 166.63 153.75 166.47 152.31 C 166.30 150.88 165.01 149.85 163.58 150.01 L 162.58 150.12 C 161.15 150.28 160.12 151.58 160.28 153.01 C 160.44 154.44 161.73 155.48 163.17 155.31 Z M 164.15 155.21 L 165.14 155.10 C 166.58 154.94 167.61 153.65 167.46 152.22 C 167.30 150.78 166.01 149.75 164.57 149.90 L 163.59 150.01 C 162.15 150.17 161.12 151.45 161.27 152.89 C 161.43 154.32 162.72 155.36 164.15 155.21 Z M 165.13 155.10 L 166.11 155.00 C 167.54 154.85 168.59 153.56 168.44 152.13 C 168.29 150.69 167.00 149.65 165.56 149.80 L 164.59 149.90 C 163.15 150.05 162.11 151.34 162.26 152.77 C 162.41 154.21 163.69 155.25 165.13 155.10 Z M 166.09 155.00 L 167.11 154.90 C 168.54 154.76 169.59 153.47 169.45 152.04 C 169.31 150.60 168.02 149.55 166.59 149.70 L 165.58 149.80 C 164.14 149.94 163.09 151.22 163.23 152.66 C 163.38 154.09 164.66 155.14 166.09 155.00 Z M 167.09 154.90 L 168.12 154.80 C 169.56 154.67 170.61 153.39 170.48 151.95 C 170.34 150.52 169.07 149.46 167.63 149.60 L 166.60 149.70 C 165.17 149.83 164.11 151.11 164.25 152.54 C 164.38 153.98 165.66 155.03 167.09 154.90 Z M 168.11 154.80 L 169.13 154.71 C 170.56 154.58 171.62 153.31 171.49 151.88 C 171.37 150.44 170.10 149.38 168.66 149.51 L 167.64 149.60 C 166.21 149.73 165.15 151.00 165.28 152.43 C 165.41 153.87 166.67 154.93 168.11 154.80 Z M 169.12 154.71 L 170.12 154.62 C 171.56 154.50 172.62 153.24 172.50 151.80 C 172.38 150.37 171.12 149.30 169.68 149.43 L 168.67 149.51 C 167.24 149.63 166.18 150.89 166.30 152.33 C 166.42 153.76 167.68 154.83 169.12 154.71 Z M 170.11 154.62 L 171.11 154.54 C 172.54 154.42 173.61 153.16 173.50 151.73 C 173.38 150.30 172.12 149.23 170.69 149.35 L 169.69 149.43 C 168.26 149.54 167.19 150.80 167.31 152.23 C 167.42 153.67 168.68 154.74 170.11 154.62 Z M 171.10 154.54 L 172.09 154.46 C 173.52 154.35 174.59 153.09 174.48 151.66 C 174.37 150.23 173.12 149.16 171.69 149.27 L 170.70 149.35 C 169.26 149.46 168.19 150.71 168.31 152.14 C 168.42 153.58 169.67 154.65 171.10 154.54 Z M 172.08 154.46 L 173.07 154.38 C 174.50 154.27 175.57 153.03 175.46 151.59 C 175.35 150.16 174.11 149.09 172.67 149.20 L 171.69 149.27 C 170.26 149.38 169.19 150.63 169.30 152.06 C 169.40 153.49 170.65 154.56 172.08 154.46 Z M 173.06 154.38 L 174.04 154.31 C 175.47 154.20 176.54 152.96 176.44 151.53 C 176.33 150.10 175.09 149.02 173.66 149.13 L 172.68 149.20 C 171.25 149.31 170.18 150.55 170.28 151.98 C 170.39 153.41 171.63 154.49 173.06 154.38 Z M 174.03 154.31 L 175.01 154.24 C 176.44 154.13 177.51 152.89 177.41 151.46 C 177.30 150.03 176.06 148.96 174.63 149.06 L 173.66 149.13 C 172.23 149.24 171.16 150.48 171.26 151.91 C 171.36 153.33 172.61 154.41 174.03 154.31 Z M 175.00 154.23 L 175.98 154.16 C 177.41 154.06 178.48 152.82 178.38 151.39 C 178.28 149.96 177.04 148.89 175.61 148.99 L 174.63 149.06 C 173.21 149.17 172.13 150.41 172.23 151.83 C 172.34 153.26 173.58 154.34 175.00 154.23 Z M 175.98 154.16 L 177.01 154.08 C 178.43 153.98 179.50 152.74 179.40 151.32 C 179.30 149.89 178.06 148.82 176.64 148.92 L 175.61 149.00 C 174.18 149.10 173.11 150.34 173.21 151.76 C 173.32 153.19 174.55 154.26 175.98 154.16 Z M 177.01 154.08 L 178.03 154.00 C 179.45 153.90 180.52 152.67 180.42 151.25 C 180.32 149.83 179.08 148.76 177.66 148.86 L 176.64 148.93 C 175.22 149.03 174.15 150.27 174.25 151.69 C 174.35 153.11 175.59 154.18 177.01 154.08 Z M 178.03 154.00 L 179.05 153.93 C 180.47 153.83 181.53 152.59 181.43 151.18 C 181.33 149.76 180.10 148.69 178.68 148.79 L 177.67 148.86 C 176.25 148.96 175.18 150.19 175.28 151.61 C 175.38 153.03 176.61 154.10 178.03 154.00 Z M 179.04 153.92 L 180.06 153.85 C 181.47 153.75 182.54 152.52 182.44 151.11 C 182.34 149.70 181.11 148.63 179.70 148.73 L 178.69 148.80 C 177.27 148.90 176.21 150.12 176.31 151.54 C 176.40 152.95 177.63 154.02 179.04 153.92 Z M 180.05 153.84 L 181.05 153.77 C 182.47 153.68 183.53 152.46 183.44 151.05 C 183.34 149.63 182.12 148.57 180.71 148.66 L 179.70 148.73 C 178.29 148.83 177.23 150.05 177.32 151.46 C 177.42 152.87 178.64 153.94 180.05 153.84 Z M 181.05 153.77 L 182.04 153.70 C 183.45 153.61 184.51 152.39 184.42 150.99 C 184.33 149.58 183.11 148.51 181.70 148.61 L 180.71 148.67 C 179.31 148.76 178.24 149.98 178.33 151.39 C 178.42 152.80 179.64 153.86 181.05 153.77 Z M 182.03 153.70 L 183.01 153.64 C 184.42 153.55 185.48 152.34 185.39 150.93 C 185.30 149.53 184.09 148.46 182.69 148.55 L 181.71 148.61 C 180.31 148.70 179.24 149.91 179.33 151.32 C 179.42 152.72 180.63 153.79 182.03 153.70 Z M 183.00 153.63 L 183.97 153.57 C 185.37 153.49 186.44 152.28 186.35 150.88 C 186.27 149.48 185.06 148.41 183.66 148.50 L 182.70 148.56 C 181.30 148.64 180.23 149.84 180.31 151.25 C 180.40 152.65 181.60 153.71 183.00 153.63 Z M 183.96 153.57 L 184.93 153.51 C 186.33 153.43 187.40 152.23 187.32 150.84 C 187.24 149.44 186.04 148.37 184.64 148.45 L 183.67 148.50 C 182.27 148.58 181.20 149.78 181.28 151.18 C 181.36 152.58 182.56 153.64 183.96 153.57 Z M 184.92 153.50 L 186.00 153.45 C 187.39 153.37 188.46 152.19 188.39 150.79 C 188.32 149.40 187.13 148.33 185.74 148.40 L 184.66 148.46 C 183.26 148.53 182.19 149.72 182.26 151.11 C 182.34 152.50 183.52 153.58 184.92 153.50 Z M 185.99 153.44 L 187.04 153.39 C 188.43 153.32 189.50 152.14 189.44 150.75 C 189.37 149.37 188.19 148.29 186.80 148.36 L 185.75 148.41 C 184.36 148.47 183.29 149.65 183.35 151.04 C 183.42 152.43 184.60 153.50 185.99 153.44 Z M 187.03 153.38 L 188.06 153.33 C 189.44 153.27 190.52 152.10 190.46 150.72 C 190.40 149.34 189.23 148.26 187.84 148.32 L 186.81 148.37 C 185.43 148.43 184.36 149.60 184.42 150.98 C 184.48 152.37 185.65 153.44 187.03 153.38 Z M 188.05 153.33 L 189.06 153.29 C 190.43 153.23 191.51 152.07 191.45 150.69 C 191.40 149.31 190.24 148.24 188.86 148.29 L 187.85 148.33 C 186.47 148.39 185.40 149.55 185.46 150.93 C 185.51 152.31 186.67 153.38 188.05 153.33 Z M 189.05 153.28 L 190.02 153.24 C 191.40 153.19 192.47 152.04 192.42 150.66 C 192.37 149.29 191.22 148.22 189.84 148.27 L 188.87 148.30 C 187.49 148.35 186.42 149.50 186.47 150.88 C 186.52 152.25 187.67 153.33 189.05 153.28 Z M 190.02 153.23 L 190.97 153.20 C 192.34 153.16 193.41 152.01 193.37 150.64 C 193.32 149.27 192.17 148.20 190.80 148.24 L 189.85 148.27 C 188.48 148.32 187.41 149.47 187.46 150.84 C 187.50 152.21 188.65 153.28 190.02 153.23 Z M 190.96 153.19 L 191.89 153.16 C 193.25 153.12 194.32 151.98 194.28 150.62 C 194.24 149.25 193.10 148.18 191.74 148.22 L 190.81 148.25 C 189.45 148.29 188.38 149.43 188.42 150.80 C 188.46 152.16 189.60 153.23 190.96 153.19 Z M 191.88 153.15 L 192.88 153.12 C 194.24 153.09 195.31 151.95 195.27 150.59 C 195.23 149.24 194.10 148.17 192.74 148.21 L 191.74 148.23 C 190.38 148.27 189.31 149.41 189.35 150.76 C 189.39 152.12 190.52 153.19 191.88 153.15 Z M 192.88 153.11 L 193.94 153.08 C 195.30 153.05 196.36 151.92 196.33 150.57 C 196.29 149.22 195.17 148.15 193.81 148.19 L 192.75 148.22 C 191.40 148.25 190.33 149.38 190.37 150.73 C 190.40 152.08 191.53 153.15 192.88 153.11 Z M 193.94 153.07 L 194.97 153.05 C 196.31 153.01 197.38 151.90 197.34 150.55 C 197.31 149.21 196.20 148.14 194.85 148.18 L 193.82 148.20 C 192.48 148.24 191.41 149.35 191.45 150.70 C 191.48 152.04 192.59 153.10 193.94 153.07 Z M 194.96 153.03 L 195.96 153.01 C 197.30 152.98 198.36 151.87 198.33 150.54 C 198.30 149.20 197.19 148.14 195.86 148.17 L 194.86 148.19 C 193.52 148.22 192.46 149.33 192.49 150.66 C 192.52 152.00 193.63 153.06 194.96 153.03 Z M 195.95 153.00 L 196.92 152.98 C 198.25 152.95 199.31 151.86 199.28 150.53 C 199.26 149.20 198.16 148.14 196.83 148.16 L 195.86 148.18 C 194.53 148.21 193.48 149.31 193.50 150.63 C 193.53 151.96 194.62 153.02 195.95 153.00 Z M 196.91 152.97 L 197.86 152.95 C 199.18 152.93 200.23 151.84 200.21 150.52 C 200.19 149.20 199.10 148.14 197.78 148.16 L 196.84 148.18 C 195.52 148.20 194.46 149.29 194.48 150.61 C 194.50 151.93 195.59 152.99 196.91 152.97 Z M 197.85 152.94 L 198.80 152.93 C 200.11 152.91 201.17 151.83 201.15 150.52 C 201.13 149.20 200.05 148.15 198.74 148.16 L 197.79 148.18 C 196.47 148.19 195.42 149.27 195.44 150.59 C 195.45 151.90 196.53 152.95 197.85 152.94 Z M 198.79 152.92 L 199.80 152.91 C 201.11 152.90 202.16 151.82 202.15 150.52 C 202.13 149.21 201.06 148.15 199.76 148.17 L 198.75 148.17 C 197.44 148.19 196.39 149.26 196.40 150.57 C 196.41 151.87 197.48 152.93 198.79 152.92 Z M 199.79 152.90 L 200.78 152.89 C 202.09 152.88 203.14 151.82 203.13 150.52 C 203.12 149.21 202.06 148.16 200.76 148.17 L 199.76 148.17 C 198.46 148.18 197.41 149.25 197.41 150.55 C 197.42 151.85 198.48 152.90 199.79 152.90 Z M 200.78 152.88 L 201.76 152.88 C 203.06 152.88 204.11 151.82 204.11 150.52 C 204.10 149.22 203.05 148.17 201.75 148.18 L 200.76 148.18 C 199.46 148.18 198.41 149.24 198.42 150.54 C 198.42 151.84 199.48 152.89 200.78 152.88 Z M 201.76 152.87 L 202.75 152.87 C 204.05 152.87 205.09 151.82 205.09 150.52 C 205.09 149.23 204.04 148.18 202.75 148.18 L 201.75 148.19 C 200.46 148.19 199.41 149.24 199.42 150.53 C 199.42 151.82 200.47 152.87 201.76 152.87 Z M 202.75 152.86 L 203.76 152.86 C 205.05 152.86 206.09 151.81 206.09 150.53 C 206.09 149.24 205.05 148.19 203.76 148.19 L 202.75 148.19 C 201.46 148.19 200.42 149.24 200.42 150.53 C 200.42 151.82 201.46 152.86 202.75 152.86 Z M 203.76 152.85 L 204.76 152.85 C 206.04 152.85 207.08 151.81 207.08 150.53 C 207.08 149.24 206.04 148.20 204.76 148.20 L 203.76 148.20 C 202.48 148.20 201.44 149.24 201.44 150.53 C 201.44 151.81 202.48 152.85 203.76 152.85 Z M 204.76 152.84 L 205.76 152.84 C 207.04 152.84 208.07 151.80 208.07 150.53 C 208.07 149.25 207.04 148.22 205.76 148.22 L 204.76 148.22 C 203.48 148.22 202.45 149.25 202.45 150.53 C 202.45 151.80 203.48 152.84 204.76 152.84 Z M 205.76 152.82 L 206.78 152.82 C 208.05 152.82 209.08 151.80 209.08 150.53 C 209.08 149.26 208.05 148.23 206.78 148.23 L 205.76 148.23 C 204.49 148.23 203.47 149.26 203.47 150.53 C 203.47 151.80 204.49 152.82 205.76 152.82 Z M 206.78 152.81 L 207.79 152.81 C 209.05 152.81 210.08 151.79 210.08 150.53 C 210.08 149.26 209.05 148.24 207.79 148.24 L 206.78 148.24 C 205.51 148.24 204.49 149.26 204.49 150.53 C 204.49 151.79 205.51 152.81 206.78 152.81 Z M 207.79 152.80 L 208.79 152.80 C 210.04 152.80 211.06 151.78 211.06 150.53 C 211.06 149.27 210.04 148.25 208.79 148.25 L 207.79 148.25 C 206.53 148.25 205.51 149.27 205.51 150.53 C 205.51 151.78 206.53 152.80 207.79 152.80 Z M 208.79 152.79 L 209.76 152.79 C 211.01 152.79 212.03 151.78 212.03 150.53 C 212.03 149.28 211.01 148.26 209.76 148.26 L 208.79 148.26 C 207.54 148.26 206.52 149.28 206.52 150.53 C 206.52 151.78 207.54 152.79 208.79 152.79 Z M 209.76 152.78 L 210.81 152.78 C 212.05 152.78 213.06 151.77 213.06 150.53 C 213.06 149.28 212.05 148.28 210.81 148.28 L 209.77 148.28 C 208.52 148.28 207.52 149.28 207.52 150.53 C 207.52 151.77 208.52 152.78 209.76 152.78 Z M 210.81 152.76 L 211.83 152.76 C 213.06 152.76 214.06 151.76 214.06 150.53 C 214.07 149.30 213.07 148.29 211.83 148.29 L 210.81 148.29 C 209.58 148.29 208.58 149.29 208.58 150.52 C 208.58 151.76 209.57 152.76 210.81 152.76 Z M 211.82 152.75 L 212.82 152.75 C 214.04 152.75 215.04 151.76 215.04 150.54 C 215.05 149.31 214.06 148.31 212.83 148.31 L 211.84 148.31 C 210.61 148.30 209.61 149.30 209.61 150.52 C 209.61 151.75 210.60 152.74 211.82 152.75 Z M 212.81 152.73 L 213.79 152.74 C 215.01 152.75 216.00 151.77 216.01 150.55 C 216.01 149.33 215.03 148.34 213.82 148.33 L 212.84 148.33 C 211.62 148.32 210.63 149.30 210.62 150.52 C 210.61 151.73 211.60 152.73 212.81 152.73 Z M 213.78 152.72 L 214.75 152.73 C 215.96 152.75 216.95 151.77 216.96 150.57 C 216.97 149.36 216.00 148.37 214.79 148.36 L 213.82 148.35 C 212.62 148.34 211.63 149.31 211.61 150.51 C 211.60 151.72 212.57 152.71 213.78 152.72 Z M 214.74 152.72 L 215.74 152.73 C 216.94 152.75 217.93 151.79 217.94 150.59 C 217.96 149.39 217.00 148.41 215.80 148.39 L 214.80 148.37 C 213.60 148.36 212.62 149.31 212.60 150.51 C 212.58 151.71 213.54 152.70 214.74 152.72 Z M 215.72 152.71 L 216.73 152.74 C 217.92 152.76 218.91 151.82 218.93 150.63 C 218.96 149.44 218.02 148.46 216.83 148.43 L 215.82 148.41 C 214.63 148.38 213.65 149.32 213.62 150.51 C 213.59 151.70 214.53 152.69 215.72 152.71 Z M 216.71 152.72 L 217.71 152.75 C 218.89 152.79 219.88 151.87 219.92 150.69 C 219.96 149.51 219.04 148.52 217.86 148.48 L 216.85 148.45 C 215.67 148.41 214.69 149.33 214.65 150.51 C 214.61 151.69 215.53 152.68 216.71 152.72 Z M 217.68 152.73 L 218.68 152.78 C 219.85 152.83 220.84 151.93 220.89 150.77 C 220.95 149.60 220.05 148.61 218.88 148.55 L 217.89 148.50 C 216.72 148.45 215.73 149.35 215.67 150.51 C 215.62 151.68 216.52 152.67 217.68 152.73 Z M 218.64 152.76 L 219.62 152.82 C 220.78 152.90 221.78 152.03 221.86 150.87 C 221.93 149.71 221.06 148.71 219.90 148.64 L 218.92 148.57 C 217.76 148.49 216.76 149.37 216.69 150.52 C 216.61 151.68 217.49 152.68 218.64 152.76 Z M 219.58 152.80 L 220.61 152.89 C 221.75 152.99 222.76 152.15 222.86 151.01 C 222.96 149.86 222.12 148.85 220.98 148.75 L 219.95 148.66 C 218.81 148.56 217.80 149.40 217.69 150.55 C 217.59 151.69 218.44 152.70 219.58 152.80 Z M 220.56 152.86 L 221.59 152.98 C 222.71 153.10 223.73 152.29 223.85 151.16 C 223.98 150.03 223.17 149.02 222.04 148.89 L 221.02 148.78 C 219.89 148.65 218.87 149.47 218.75 150.59 C 218.62 151.72 219.44 152.74 220.56 152.86 Z M 221.55 152.95 L 222.55 153.08 C 223.66 153.22 224.68 152.44 224.82 151.32 C 224.97 150.21 224.18 149.19 223.07 149.05 L 222.07 148.92 C 220.96 148.78 219.94 149.56 219.80 150.67 C 219.65 151.79 220.44 152.81 221.55 152.95 Z M 222.52 153.05 L 223.49 153.19 C 224.59 153.35 225.60 152.59 225.76 151.49 C 225.92 150.39 225.16 149.37 224.06 149.21 L 223.09 149.08 C 222.00 148.92 220.98 149.68 220.82 150.78 C 220.66 151.88 221.42 152.89 222.52 153.05 Z M 223.47 153.16 L 224.41 153.31 C 225.50 153.48 226.51 152.73 226.68 151.65 C 226.84 150.57 226.10 149.55 225.02 149.39 L 224.08 149.24 C 222.99 149.07 221.98 149.82 221.81 150.90 C 221.65 151.98 222.39 153.00 223.47 153.16 Z M 224.40 153.28 L 225.35 153.43 C 226.42 153.61 227.42 152.88 227.59 151.82 C 227.77 150.75 227.04 149.74 225.98 149.57 L 225.03 149.41 C 223.96 149.24 222.96 149.97 222.78 151.03 C 222.61 152.10 223.33 153.11 224.40 153.28 Z M 225.33 153.40 L 226.27 153.57 C 227.32 153.75 228.32 153.05 228.51 152.00 C 228.69 150.96 227.99 149.95 226.94 149.77 L 226.00 149.60 C 224.95 149.42 223.95 150.12 223.76 151.17 C 223.58 152.21 224.28 153.21 225.33 153.40 Z M 226.24 153.53 L 227.22 153.72 C 228.25 153.92 229.25 153.25 229.45 152.22 C 229.65 151.20 228.98 150.20 227.95 150.00 L 226.97 149.80 C 225.94 149.60 224.95 150.27 224.74 151.30 C 224.54 152.33 225.21 153.33 226.24 153.53 Z M 227.19 153.69 L 228.23 153.91 C 229.24 154.13 230.23 153.49 230.45 152.48 C 230.67 151.47 230.03 150.48 229.02 150.26 L 227.98 150.03 C 226.97 149.81 225.98 150.45 225.76 151.46 C 225.54 152.47 226.18 153.47 227.19 153.69 Z M 228.20 153.88 L 229.18 154.11 C 230.17 154.35 231.17 153.74 231.40 152.75 C 231.64 151.76 231.03 150.76 230.04 150.53 L 229.05 150.29 C 228.06 150.06 227.07 150.67 226.83 151.66 C 226.59 152.65 227.21 153.64 228.20 153.88 Z M 229.14 154.09 L 230.14 154.35 C 231.11 154.60 232.11 154.02 232.37 153.04 C 232.62 152.07 232.04 151.07 231.06 150.81 L 230.07 150.55 C 229.10 150.30 228.10 150.88 227.84 151.86 C 227.59 152.83 228.17 153.83 229.14 154.09 Z M 230.09 154.32 L 231.09 154.61 C 232.05 154.89 233.05 154.34 233.33 153.38 C 233.61 152.43 233.07 151.42 232.11 151.14 L 231.11 150.85 C 230.15 150.56 229.15 151.11 228.86 152.07 C 228.58 153.03 229.13 154.03 230.09 154.32 Z M 231.03 154.57 L 231.99 154.90 C 232.93 155.21 233.94 154.71 234.26 153.77 C 234.58 152.83 234.07 151.82 233.13 151.50 L 232.17 151.18 C 231.23 150.86 230.22 151.37 229.90 152.30 C 229.58 153.24 230.09 154.26 231.03 154.57 Z M 231.91 154.85 L 232.80 155.20 C 233.71 155.56 234.74 155.12 235.11 154.21 C 235.47 153.30 235.02 152.27 234.11 151.91 L 233.22 151.55 C 232.31 151.19 231.28 151.63 230.91 152.54 C 230.55 153.45 231.00 154.49 231.91 154.85 Z M 232.67 155.12 L 233.66 155.62 C 234.52 156.06 235.58 155.71 236.02 154.85 C 236.45 153.98 236.11 152.93 235.24 152.49 L 234.25 151.99 C 233.38 151.55 232.33 151.90 231.89 152.76 C 231.46 153.63 231.80 154.68 232.67 155.12 Z M 233.45 155.46 L 234.33 156.09 C 235.11 156.65 236.19 156.47 236.74 155.69 C 237.30 154.91 237.12 153.83 236.34 153.28 L 235.46 152.65 C 234.68 152.09 233.60 152.27 233.04 153.05 C 232.49 153.83 232.67 154.91 233.45 155.46 Z M 234.06 155.82 L 234.67 156.51 C 235.30 157.21 236.38 157.28 237.08 156.65 C 237.78 156.02 237.85 154.95 237.22 154.24 L 236.61 153.55 C 235.98 152.85 234.90 152.79 234.20 153.41 C 233.50 154.04 233.43 155.12 234.06 155.82 Z M 234.42 156.07 L 234.76 156.83 C 235.14 157.67 236.14 158.04 236.98 157.66 C 237.83 157.28 238.20 156.28 237.82 155.44 L 237.48 154.68 C 237.09 153.84 236.10 153.46 235.25 153.85 C 234.41 154.23 234.03 155.23 234.42 156.07 Z M 234.64 156.25 L 234.71 157.19 C 234.78 158.11 235.57 158.79 236.48 158.72 C 237.40 158.65 238.08 157.86 238.01 156.95 L 237.94 156.01 C 237.87 155.10 237.08 154.41 236.17 154.48 C 235.25 154.55 234.57 155.34 234.64 156.25 Z M 234.76 156.79 L 234.58 157.77 C 234.43 158.66 235.02 159.50 235.90 159.66 C 236.79 159.82 237.64 159.22 237.79 158.34 L 237.97 157.35 C 238.12 156.47 237.53 155.62 236.64 155.46 C 235.76 155.31 234.91 155.90 234.76 156.79 Z M 234.64 157.61 L 234.37 158.55 C 234.13 159.40 234.62 160.29 235.47 160.54 C 236.33 160.78 237.22 160.29 237.46 159.44 L 237.73 158.50 C 237.98 157.65 237.48 156.76 236.63 156.51 C 235.78 156.27 234.89 156.76 234.64 157.61 Z"
      fill="black"
      fill-rule="nonzero" /><path d="M 162.15 101.57 L 161.53 100.67 C 161.02 99.91 159.99 99.71 159.23 100.23 C 158.47 100.74 158.28 101.77 158.79 102.52 L 159.41 103.43 C 159.92 104.19 160.95 104.39 161.71 103.87 C 162.46 103.36 162.66 102.33 162.15 101.57 Z M 161.52 100.64 L 160.91 99.76 C 160.38 99.01 159.34 98.82 158.59 99.35 C 157.84 99.88 157.65 100.91 158.18 101.66 L 158.80 102.55 C 159.32 103.30 160.36 103.48 161.11 102.96 C 161.86 102.43 162.05 101.40 161.52 100.64 Z M 160.89 99.72 L 160.27 98.89 C 159.72 98.15 158.67 97.99 157.93 98.54 C 157.19 99.09 157.04 100.14 157.59 100.88 L 158.20 101.71 C 158.75 102.45 159.80 102.60 160.54 102.06 C 161.28 101.51 161.43 100.46 160.89 99.72 Z M 160.23 98.82 L 159.62 98.07 C 159.03 97.35 157.97 97.25 157.25 97.83 C 156.54 98.42 156.43 99.48 157.02 100.20 L 157.63 100.95 C 158.21 101.66 159.27 101.77 159.99 101.18 C 160.71 100.60 160.81 99.54 160.23 98.82 Z M 159.54 97.98 L 158.93 97.33 C 158.29 96.66 157.22 96.63 156.55 97.27 C 155.87 97.91 155.84 98.98 156.48 99.65 L 157.09 100.29 C 157.73 100.97 158.80 101.00 159.48 100.36 C 160.15 99.72 160.18 98.65 159.54 97.98 Z M 158.77 97.15 L 157.89 96.45 C 157.15 95.86 156.07 95.99 155.48 96.73 C 154.90 97.47 155.02 98.54 155.76 99.13 L 156.64 99.83 C 157.38 100.42 158.46 100.30 159.05 99.56 C 159.64 98.82 159.51 97.74 158.77 97.15 Z M 157.53 96.18 L 156.56 95.75 C 155.67 95.36 154.63 95.76 154.23 96.65 C 153.84 97.54 154.25 98.58 155.14 98.97 L 156.11 99.40 C 157.00 99.80 158.05 99.39 158.44 98.50 C 158.83 97.61 158.43 96.57 157.53 96.18 Z M 155.85 95.54 L 155.02 95.54 C 154.01 95.54 153.20 96.35 153.19 97.36 C 153.19 98.36 154.01 99.18 155.01 99.18 L 155.85 99.18 C 156.85 99.18 157.67 98.37 157.67 97.36 C 157.67 96.36 156.86 95.54 155.85 95.54 Z M 153.96 95.81 L 153.37 96.22 C 152.51 96.80 152.30 97.97 152.88 98.82 C 153.47 99.68 154.63 99.89 155.48 99.31 L 156.08 98.90 C 156.93 98.32 157.15 97.15 156.56 96.30 C 155.98 95.45 154.81 95.23 153.96 95.81 Z M 152.72 96.91 L 152.35 97.66 C 151.88 98.60 152.26 99.74 153.20 100.22 C 154.14 100.69 155.28 100.31 155.75 99.37 L 156.13 98.62 C 156.60 97.68 156.22 96.54 155.28 96.06 C 154.34 95.59 153.20 95.97 152.72 96.91 Z M 152.17 98.08 L 151.93 99.14 C 151.69 100.17 152.34 101.20 153.38 101.44 C 154.41 101.68 155.44 101.03 155.68 100.00 L 155.93 98.95 C 156.16 97.91 155.52 96.88 154.48 96.64 C 153.45 96.40 152.41 97.05 152.17 98.08 Z M 151.88 99.31 L 151.72 100.49 C 151.58 101.56 152.33 102.54 153.39 102.68 C 154.46 102.82 155.44 102.07 155.58 101.01 L 155.74 99.82 C 155.88 98.76 155.13 97.78 154.06 97.64 C 153.00 97.50 152.02 98.25 151.88 99.31 Z M 151.70 100.55 L 151.60 101.51 C 151.49 102.59 152.28 103.55 153.35 103.66 C 154.43 103.77 155.39 102.98 155.50 101.91 L 155.60 100.95 C 155.71 99.87 154.92 98.91 153.85 98.80 C 152.77 98.69 151.81 99.48 151.70 100.55 Z M 151.59 101.54 L 151.50 102.55 C 151.41 103.64 152.22 104.59 153.30 104.68 C 154.39 104.77 155.34 103.97 155.43 102.88 L 155.52 101.87 C 155.61 100.79 154.80 99.84 153.72 99.74 C 152.63 99.65 151.68 100.46 151.59 101.54 Z M 151.49 102.58 L 151.42 103.61 C 151.34 104.70 152.17 105.65 153.26 105.72 C 154.35 105.80 155.29 104.98 155.37 103.89 L 155.44 102.86 C 155.52 101.77 154.70 100.82 153.61 100.74 C 152.52 100.67 151.57 101.49 151.49 102.58 Z M 151.41 103.64 L 151.35 104.66 C 151.29 105.75 152.13 106.69 153.22 106.76 C 154.32 106.82 155.26 105.98 155.32 104.88 L 155.38 103.86 C 155.44 102.77 154.61 101.83 153.51 101.76 C 152.41 101.70 151.47 102.54 151.41 103.64 Z M 151.34 104.68 L 151.29 105.70 C 151.25 106.80 152.10 107.73 153.20 107.78 C 154.31 107.83 155.24 106.98 155.29 105.87 L 155.33 104.86 C 155.38 103.76 154.53 102.82 153.43 102.77 C 152.32 102.72 151.39 103.58 151.34 104.68 Z M 151.29 105.72 L 151.25 106.78 C 151.22 107.89 152.09 108.81 153.20 108.85 C 154.31 108.88 155.23 108.01 155.26 106.90 L 155.30 105.84 C 155.33 104.74 154.46 103.81 153.35 103.78 C 152.24 103.75 151.32 104.62 151.29 105.72 Z M 151.25 106.81 L 151.23 107.81 C 151.21 108.92 152.10 109.83 153.21 109.85 C 154.32 109.87 155.24 108.98 155.25 107.87 L 155.27 106.88 C 155.29 105.77 154.40 104.85 153.29 104.83 C 152.18 104.81 151.27 105.70 151.25 106.81 Z M 151.23 107.83 L 151.22 108.79 C 151.21 109.90 152.11 110.81 153.22 110.82 C 154.34 110.83 155.25 109.93 155.25 108.82 L 155.26 107.85 C 155.27 106.74 154.37 105.83 153.26 105.82 C 152.14 105.82 151.23 106.71 151.23 107.83 Z M 151.22 108.80 L 151.21 109.76 C 151.21 110.88 152.12 111.78 153.23 111.78 C 154.35 111.78 155.26 110.88 155.26 109.76 L 155.26 108.81 C 155.26 107.69 154.35 106.78 153.24 106.78 C 152.12 106.78 151.22 107.69 151.22 108.80 Z M 151.21 109.76 L 151.21 110.70 C 151.21 111.82 152.12 112.73 153.24 112.73 C 154.35 112.73 155.26 111.82 155.26 110.70 L 155.26 109.76 C 155.26 108.64 154.35 107.74 153.24 107.74 C 152.12 107.74 151.21 108.64 151.21 109.76 Z M 151.21 110.70 L 151.21 111.66 C 151.21 112.78 152.11 113.69 153.24 113.69 C 154.36 113.69 155.26 112.78 155.26 111.66 L 155.26 110.70 C 155.26 109.58 154.36 108.67 153.24 108.67 C 152.11 108.67 151.21 109.58 151.21 110.70 Z M 151.20 111.66 L 151.20 112.66 C 151.20 113.79 152.11 114.70 153.24 114.70 C 154.36 114.70 155.27 113.79 155.27 112.66 L 155.27 111.66 C 155.27 110.54 154.36 109.63 153.24 109.63 C 152.11 109.63 151.20 110.54 151.20 111.66 Z M 151.20 112.66 L 151.20 113.71 C 151.20 114.83 152.11 115.74 153.24 115.74 C 154.36 115.74 155.27 114.83 155.27 113.71 L 155.27 112.66 C 155.27 111.54 154.36 110.63 153.24 110.63 C 152.11 110.63 151.20 111.54 151.20 112.66 Z M 151.20 113.71 L 151.20 114.72 C 151.20 115.85 152.11 116.76 153.24 116.76 C 154.36 116.76 155.28 115.85 155.28 114.72 L 155.28 113.71 C 155.28 112.58 154.36 111.67 153.24 111.67 C 152.11 111.67 151.20 112.58 151.20 113.71 Z M 151.19 114.72 L 151.19 115.67 C 151.19 116.79 152.11 117.71 153.24 117.71 C 154.36 117.71 155.28 116.79 155.28 115.66 L 155.28 114.72 C 155.28 113.59 154.36 112.68 153.23 112.68 C 152.11 112.68 151.19 113.60 151.19 114.72 Z M 151.19 115.67 L 151.19 116.65 C 151.19 117.78 152.11 118.69 153.24 118.69 C 154.37 118.69 155.28 117.77 155.28 116.64 L 155.28 115.66 C 155.28 114.53 154.36 113.62 153.23 113.62 C 152.10 113.62 151.19 114.54 151.19 115.67 Z M 151.19 116.65 L 151.19 117.66 C 151.20 118.79 152.12 119.70 153.25 119.70 C 154.38 119.69 155.29 118.78 155.29 117.65 L 155.28 116.64 C 155.28 115.51 154.36 114.59 153.23 114.60 C 152.10 114.60 151.19 115.52 151.19 116.65 Z M 151.19 117.66 L 151.20 118.70 C 151.21 119.83 152.13 120.75 153.26 120.74 C 154.39 120.73 155.30 119.81 155.30 118.68 L 155.29 117.64 C 155.28 116.51 154.36 115.60 153.23 115.60 C 152.10 115.61 151.19 116.53 151.19 117.66 Z M 151.20 118.71 L 151.21 119.77 C 151.22 120.91 152.14 121.81 153.28 121.80 C 154.41 121.79 155.32 120.87 155.31 119.74 L 155.30 118.67 C 155.29 117.54 154.36 116.63 153.23 116.64 C 152.10 116.65 151.19 117.58 151.20 118.71 Z M 151.21 119.78 L 151.22 120.74 C 151.23 121.87 152.16 122.78 153.30 122.77 C 154.43 122.75 155.34 121.82 155.32 120.69 L 155.31 119.73 C 155.29 118.59 154.36 117.69 153.23 117.70 C 152.10 117.72 151.19 118.65 151.21 119.78 Z M 151.22 120.75 L 151.23 121.72 C 151.25 122.86 152.19 123.76 153.32 123.74 C 154.45 123.72 155.36 122.78 155.34 121.65 L 155.32 120.68 C 155.30 119.55 154.37 118.64 153.23 118.66 C 152.10 118.68 151.20 119.62 151.22 120.75 Z M 151.23 121.73 L 151.26 122.72 C 151.28 123.85 152.22 124.75 153.35 124.73 C 154.49 124.70 155.39 123.76 155.36 122.63 L 155.34 121.64 C 155.31 120.51 154.37 119.61 153.24 119.63 C 152.11 119.66 151.21 120.60 151.23 121.73 Z M 151.25 122.73 L 151.28 123.74 C 151.32 124.87 152.26 125.77 153.40 125.73 C 154.53 125.70 155.42 124.75 155.39 123.62 L 155.36 122.62 C 155.33 121.48 154.38 120.59 153.25 120.62 C 152.11 120.65 151.22 121.60 151.25 122.73 Z M 151.28 123.75 L 151.32 124.78 C 151.36 125.91 152.31 126.80 153.45 126.76 C 154.58 126.72 155.47 125.76 155.43 124.63 L 155.39 123.61 C 155.35 122.47 154.40 121.58 153.26 121.63 C 152.13 121.67 151.24 122.62 151.28 123.75 Z M 151.32 124.79 L 151.37 125.83 C 151.42 126.97 152.38 127.85 153.51 127.80 C 154.64 127.75 155.52 126.79 155.47 125.65 L 155.43 124.61 C 155.38 123.48 154.42 122.60 153.28 122.65 C 152.15 122.70 151.27 123.66 151.32 124.79 Z M 151.36 125.85 L 151.42 126.83 C 151.48 127.96 152.44 128.84 153.58 128.78 C 154.71 128.72 155.58 127.75 155.53 126.62 L 155.47 125.63 C 155.42 124.50 154.45 123.63 153.31 123.69 C 152.18 123.75 151.31 124.71 151.36 125.85 Z M 151.42 126.84 L 151.47 127.81 C 151.54 128.95 152.52 129.81 153.65 129.74 C 154.79 129.68 155.65 128.70 155.58 127.57 L 155.53 126.60 C 155.46 125.46 154.48 124.60 153.35 124.67 C 152.21 124.73 151.35 125.71 151.42 126.84 Z M 151.47 127.82 L 151.54 128.80 C 151.61 129.94 152.59 130.80 153.73 130.73 C 154.86 130.65 155.72 129.67 155.65 128.53 L 155.58 127.55 C 155.51 126.42 154.53 125.56 153.39 125.63 C 152.26 125.71 151.40 126.69 151.47 127.82 Z M 151.54 128.82 L 151.61 129.81 C 151.69 130.95 152.67 131.80 153.81 131.72 C 154.95 131.64 155.80 130.65 155.72 129.52 L 155.65 128.52 C 155.57 127.39 154.58 126.53 153.45 126.61 C 152.31 126.69 151.46 127.68 151.54 128.82 Z M 151.61 129.82 L 151.68 130.83 C 151.77 131.96 152.76 132.82 153.89 132.73 C 155.03 132.64 155.88 131.65 155.80 130.52 L 155.72 129.51 C 155.64 128.37 154.64 127.52 153.51 127.61 C 152.37 127.69 151.52 128.68 151.61 129.82 Z M 151.68 130.83 L 151.76 131.86 C 151.85 132.99 152.85 133.84 153.98 133.75 C 155.12 133.66 155.97 132.67 155.88 131.53 L 155.80 130.51 C 155.71 129.37 154.71 128.52 153.58 128.61 C 152.44 128.70 151.59 129.70 151.68 130.83 Z M 151.76 131.86 L 151.84 132.90 C 151.94 134.04 152.93 134.88 154.07 134.79 C 155.21 134.70 156.06 133.70 155.96 132.56 L 155.88 131.53 C 155.79 130.39 154.79 129.54 153.65 129.63 C 152.51 129.73 151.67 130.72 151.76 131.86 Z M 151.84 132.90 L 151.92 133.86 C 152.02 135.00 153.02 135.85 154.16 135.76 C 155.29 135.66 156.14 134.66 156.05 133.52 L 155.97 132.56 C 155.87 131.42 154.87 130.57 153.73 130.67 C 152.59 130.76 151.75 131.76 151.84 132.90 Z M 151.92 133.87 L 152.00 134.82 C 152.10 135.97 153.10 136.81 154.24 136.72 C 155.38 136.62 156.22 135.62 156.13 134.48 L 156.05 133.52 C 155.95 132.38 154.95 131.53 153.81 131.63 C 152.67 131.72 151.82 132.73 151.92 133.87 Z M 152.00 134.83 L 152.08 135.80 C 152.17 136.94 153.18 137.79 154.32 137.69 C 155.46 137.60 156.31 136.59 156.21 135.45 L 156.13 134.48 C 156.04 133.34 155.03 132.49 153.89 132.58 C 152.75 132.68 151.90 133.68 152.00 134.83 Z M 152.08 135.80 L 152.16 136.78 C 152.25 137.93 153.26 138.78 154.40 138.68 C 155.54 138.58 156.39 137.58 156.30 136.44 L 156.22 135.45 C 156.12 134.31 155.12 133.46 153.97 133.55 C 152.83 133.65 151.98 134.65 152.08 135.80 Z M 152.15 136.78 L 152.24 137.78 C 152.33 138.93 153.33 139.78 154.48 139.69 C 155.62 139.59 156.48 138.59 156.38 137.44 L 156.30 136.44 C 156.21 135.29 155.20 134.44 154.06 134.54 C 152.91 134.63 152.06 135.63 152.15 136.78 Z M 152.23 137.78 L 152.31 138.80 C 152.41 139.94 153.41 140.80 154.56 140.71 C 155.70 140.62 156.56 139.61 156.47 138.46 L 156.39 137.45 C 156.29 136.30 155.29 135.44 154.14 135.54 C 153.00 135.63 152.14 136.63 152.23 137.78 Z M 152.31 138.79 L 152.39 139.83 C 152.48 140.98 153.48 141.84 154.63 141.75 C 155.78 141.66 156.64 140.66 156.55 139.51 L 156.47 138.47 C 156.38 137.32 155.38 136.46 154.23 136.55 C 153.08 136.64 152.22 137.64 152.31 138.79 Z M 152.39 139.82 L 152.47 140.86 C 152.55 142.01 153.55 142.88 154.70 142.79 C 155.85 142.70 156.72 141.70 156.63 140.55 L 156.55 139.51 C 156.47 138.36 155.47 137.50 154.32 137.58 C 153.17 137.67 152.30 138.67 152.39 139.82 Z M 152.46 140.86 L 152.53 141.83 C 152.61 142.98 153.61 143.85 154.77 143.77 C 155.92 143.69 156.79 142.68 156.70 141.53 L 156.63 140.56 C 156.55 139.41 155.55 138.54 154.40 138.62 C 153.25 138.70 152.38 139.70 152.46 140.86 Z M 152.53 141.83 L 152.60 142.81 C 152.68 143.97 153.68 144.84 154.83 144.76 C 155.98 144.68 156.85 143.68 156.77 142.52 L 156.71 141.54 C 156.63 140.38 155.63 139.51 154.47 139.59 C 153.32 139.67 152.45 140.67 152.53 141.83 Z M 152.59 142.81 L 152.66 143.81 C 152.74 144.96 153.74 145.83 154.89 145.76 C 156.05 145.68 156.92 144.68 156.84 143.52 L 156.78 142.53 C 156.70 141.37 155.70 140.50 154.55 140.58 C 153.39 140.65 152.52 141.65 152.59 142.81 Z M 152.66 143.80 L 152.73 144.81 C 152.80 145.97 153.80 146.84 154.96 146.76 C 156.12 146.69 156.99 145.69 156.91 144.53 L 156.85 143.53 C 156.77 142.37 155.77 141.50 154.61 141.57 C 153.46 141.65 152.58 142.65 152.66 143.80 Z M 152.72 144.81 L 152.79 145.82 C 152.87 146.97 153.87 147.85 155.03 147.77 C 156.18 147.70 157.06 146.70 156.98 145.54 L 156.92 144.53 C 156.84 143.37 155.84 142.50 154.68 142.57 C 153.52 142.65 152.65 143.65 152.72 144.81 Z M 152.79 145.82 L 152.86 146.83 C 152.93 147.99 153.93 148.86 155.09 148.79 C 156.25 148.71 157.13 147.71 157.05 146.55 L 156.98 145.54 C 156.91 144.38 155.91 143.50 154.75 143.58 C 153.59 143.66 152.71 144.66 152.79 145.82 Z M 152.85 146.83 L 152.92 147.84 C 153.00 149.00 154.00 149.87 155.16 149.79 C 156.32 149.72 157.20 148.71 157.12 147.55 L 157.05 146.54 C 156.98 145.38 155.97 144.51 154.81 144.59 C 153.65 144.66 152.77 145.67 152.85 146.83 Z M 152.92 147.84 L 152.99 148.84 C 153.07 150.00 154.08 150.88 155.24 150.80 C 156.40 150.72 157.27 149.71 157.19 148.55 L 157.12 147.55 C 157.04 146.39 156.04 145.51 154.88 145.59 C 153.71 145.67 152.84 146.68 152.92 147.84 Z M 152.99 148.84 L 153.06 149.85 C 153.14 151.01 154.15 151.89 155.31 151.80 C 156.47 151.72 157.35 150.71 157.27 149.55 L 157.20 148.54 C 157.11 147.38 156.10 146.51 154.94 146.59 C 153.78 146.67 152.90 147.68 152.99 148.84 Z M 153.06 149.85 L 153.13 150.85 C 153.22 152.02 154.23 152.89 155.39 152.81 C 156.55 152.72 157.43 151.71 157.34 150.55 L 157.27 149.54 C 157.18 148.38 156.17 147.51 155.01 147.59 C 153.84 147.68 152.97 148.69 153.06 149.85 Z M 153.13 150.86 L 153.20 151.85 C 153.29 153.02 154.30 153.89 155.47 153.80 C 156.63 153.72 157.50 152.70 157.42 151.54 L 157.34 150.54 C 157.26 149.38 156.24 148.51 155.08 148.59 C 153.91 148.68 153.04 149.69 153.13 150.86 Z M 153.20 151.85 L 153.27 152.84 C 153.36 154.01 154.38 154.88 155.54 154.80 C 156.71 154.71 157.58 153.69 157.49 152.53 L 157.42 151.54 C 157.33 150.37 156.32 149.50 155.15 149.59 C 153.99 149.67 153.11 150.69 153.20 151.85 Z M 153.27 152.84 L 153.35 153.83 C 153.43 155.00 154.45 155.88 155.61 155.79 C 156.78 155.70 157.66 154.69 157.57 153.52 L 157.50 152.53 C 157.41 151.36 156.39 150.49 155.23 150.57 C 154.06 150.66 153.19 151.68 153.27 152.84 Z M 153.34 153.83 L 153.42 154.82 C 153.50 155.99 154.52 156.87 155.68 156.78 C 156.85 156.70 157.73 155.68 157.64 154.52 L 157.57 153.52 C 157.49 152.36 156.47 151.48 155.30 151.56 C 154.14 151.65 153.26 152.66 153.34 153.83 Z M 153.41 154.82 L 153.48 155.81 C 153.57 156.98 154.58 157.86 155.75 157.78 C 156.92 157.70 157.80 156.69 157.72 155.52 L 157.65 154.52 C 157.56 153.35 156.55 152.47 155.38 152.55 C 154.21 152.64 153.33 153.65 153.41 154.82 Z M 153.48 155.81 L 153.55 156.81 C 153.63 157.98 154.64 158.86 155.81 158.79 C 156.98 158.71 157.86 157.69 157.79 156.52 L 157.72 155.52 C 157.64 154.35 156.63 153.47 155.46 153.55 C 154.29 153.63 153.40 154.64 153.48 155.81 Z M 153.55 156.80 L 153.61 157.80 C 153.68 158.97 154.69 159.86 155.86 159.78 C 157.04 159.71 157.93 158.70 157.85 157.53 L 157.79 156.53 C 157.71 155.36 156.70 154.47 155.53 154.55 C 154.36 154.62 153.47 155.63 153.55 156.80 Z M 153.61 157.79 L 153.67 158.77 C 153.74 159.94 154.74 160.84 155.91 160.77 C 157.09 160.70 157.98 159.69 157.91 158.52 L 157.85 157.54 C 157.78 156.36 156.78 155.47 155.60 155.54 C 154.43 155.61 153.54 156.62 153.61 157.79 Z M 153.67 158.76 L 153.72 159.75 C 153.79 160.93 154.79 161.82 155.96 161.76 C 157.14 161.69 158.03 160.69 157.97 159.52 L 157.91 158.53 C 157.85 157.35 156.84 156.46 155.67 156.52 C 154.50 156.59 153.60 157.59 153.67 158.76 Z M 153.72 159.75 L 153.77 160.75 C 153.84 161.92 154.84 162.82 156.01 162.76 C 157.18 162.69 158.08 161.69 158.02 160.52 L 157.97 159.52 C 157.91 158.35 156.90 157.45 155.73 157.51 C 154.56 157.57 153.66 158.58 153.72 159.75 Z M 153.77 160.74 L 153.82 161.74 C 153.88 162.91 154.88 163.82 156.06 163.76 C 157.23 163.70 158.13 162.70 158.07 161.53 L 158.02 160.52 C 157.96 159.35 156.96 158.45 155.79 158.51 C 154.62 158.57 153.71 159.57 153.77 160.74 Z M 153.82 161.74 L 153.87 162.74 C 153.93 163.92 154.93 164.82 156.10 164.76 C 157.27 164.71 158.18 163.71 158.12 162.53 L 158.07 161.53 C 158.02 160.36 157.02 159.45 155.84 159.51 C 154.67 159.57 153.76 160.56 153.82 161.74 Z M 153.87 162.74 L 153.92 163.75 C 153.97 164.92 154.97 165.83 156.14 165.77 C 157.32 165.72 158.23 164.72 158.17 163.54 L 158.12 162.54 C 158.07 161.36 157.07 160.46 155.90 160.51 C 154.72 160.57 153.81 161.56 153.87 162.74 Z M 153.92 163.74 L 153.96 164.75 C 154.02 165.93 155.01 166.83 156.19 166.78 C 157.36 166.72 158.27 165.73 158.22 164.55 L 158.17 163.55 C 158.12 162.37 157.12 161.46 155.95 161.52 C 154.77 161.57 153.86 162.57 153.92 163.74 Z M 153.96 164.75 L 154.01 165.76 C 154.06 166.93 155.06 167.84 156.23 167.79 C 157.41 167.73 158.32 166.74 158.26 165.56 L 158.22 164.55 C 158.16 163.38 157.17 162.47 155.99 162.52 C 154.82 162.58 153.91 163.57 153.96 164.75 Z M 154.01 165.76 L 154.06 166.77 C 154.11 167.94 155.11 168.85 156.28 168.80 C 157.46 168.74 158.37 167.75 158.31 166.57 L 158.26 165.56 C 158.21 164.39 157.21 163.48 156.04 163.53 C 154.86 163.59 153.96 164.58 154.01 165.76 Z M 154.06 166.77 L 154.10 167.78 C 154.16 168.95 155.15 169.86 156.33 169.81 C 157.50 169.75 158.41 168.76 158.36 167.58 L 158.31 166.57 C 158.26 165.40 157.26 164.49 156.09 164.54 C 154.91 164.60 154.00 165.59 154.06 166.77 Z M 154.10 167.78 L 154.15 168.78 C 154.20 169.96 155.20 170.87 156.37 170.81 C 157.55 170.76 158.46 169.76 158.40 168.59 L 158.36 167.58 C 158.30 166.41 157.31 165.50 156.13 165.55 C 154.96 165.60 154.05 166.60 154.10 167.78 Z M 154.15 168.78 L 154.19 169.78 C 154.25 170.96 155.24 171.87 156.42 171.82 C 157.59 171.76 158.50 170.77 158.45 169.59 L 158.40 168.59 C 158.35 167.41 157.35 166.50 156.18 166.56 C 155.00 166.61 154.09 167.61 154.15 168.78 Z M 154.19 169.78 L 154.24 170.78 C 154.29 171.96 155.28 172.87 156.46 172.82 C 157.63 172.77 158.55 171.77 158.49 170.59 L 158.45 169.59 C 158.40 168.42 157.40 167.51 156.23 167.56 C 155.05 167.61 154.14 168.61 154.19 169.78 Z M 154.24 170.78 L 154.28 171.78 C 154.33 172.95 155.33 173.87 156.50 173.81 C 157.68 173.76 158.59 172.77 158.54 171.59 L 158.49 170.60 C 158.44 169.42 157.45 168.51 156.27 168.56 C 155.10 168.61 154.19 169.61 154.24 170.78 Z M 154.28 171.78 L 154.32 172.77 C 154.37 173.94 155.37 174.86 156.54 174.81 C 157.72 174.76 158.63 173.76 158.58 172.59 L 158.54 171.60 C 158.49 170.42 157.49 169.51 156.32 169.56 C 155.14 169.61 154.23 170.60 154.28 171.78 Z M 154.32 172.77 L 154.36 173.75 C 154.41 174.93 155.40 175.84 156.58 175.79 C 157.75 175.75 158.67 174.75 158.62 173.58 L 158.58 172.59 C 158.53 171.41 157.54 170.50 156.36 170.55 C 155.19 170.60 154.27 171.59 154.32 172.77 Z M 154.36 173.75 L 154.40 174.74 C 154.45 175.92 155.44 176.84 156.62 176.79 C 157.79 176.74 158.71 175.75 158.66 174.57 L 158.62 173.58 C 158.57 172.40 157.58 171.49 156.41 171.54 C 155.23 171.58 154.31 172.57 154.36 173.75 Z M 154.40 174.74 L 154.44 175.77 C 154.48 176.94 155.47 177.86 156.65 177.81 C 157.83 177.77 158.74 176.78 158.70 175.60 L 158.66 174.58 C 158.62 173.40 157.63 172.48 156.45 172.53 C 155.27 172.57 154.36 173.56 154.40 174.74 Z M 154.44 175.76 L 154.48 176.78 C 154.52 177.96 155.51 178.87 156.68 178.83 C 157.86 178.79 158.78 177.80 158.74 176.62 L 158.70 175.61 C 158.66 174.43 157.67 173.51 156.49 173.55 C 155.32 173.60 154.40 174.59 154.44 175.76 Z M 154.48 176.78 L 154.51 177.79 C 154.55 178.96 155.54 179.88 156.72 179.84 C 157.89 179.80 158.81 178.82 158.77 177.64 L 158.74 176.63 C 158.70 175.45 157.71 174.53 156.53 174.57 C 155.36 174.61 154.44 175.60 154.48 176.78 Z M 154.51 177.78 L 154.54 178.79 C 154.58 179.96 155.57 180.88 156.75 180.85 C 157.92 180.81 158.84 179.82 158.80 178.65 L 158.77 177.64 C 158.73 176.47 157.75 175.54 156.57 175.58 C 155.40 175.62 154.47 176.61 154.51 177.78 Z M 154.54 178.78 L 154.58 179.78 C 154.61 180.95 155.60 181.88 156.77 181.84 C 157.95 181.80 158.87 180.82 158.84 179.65 L 158.80 178.65 C 158.77 177.47 157.78 176.55 156.61 176.59 C 155.43 176.62 154.51 177.61 154.54 178.78 Z M 154.58 179.77 L 154.60 180.76 C 154.64 181.94 155.62 182.86 156.80 182.83 C 157.97 182.79 158.90 181.81 158.87 180.64 L 158.84 179.65 C 158.80 178.47 157.82 177.55 156.64 177.58 C 155.47 177.62 154.54 178.60 154.58 179.77 Z M 154.60 180.76 L 154.63 181.74 C 154.66 182.91 155.64 183.84 156.82 183.81 C 158.00 183.77 158.92 182.79 158.89 181.62 L 158.87 180.64 C 158.83 179.46 157.85 178.54 156.68 178.57 C 155.50 178.60 154.57 179.58 154.60 180.76 Z M 154.63 181.73 L 154.66 182.71 C 154.69 183.88 155.67 184.81 156.84 184.78 C 158.02 184.75 158.95 183.77 158.92 182.59 L 158.89 181.62 C 158.86 180.44 157.88 179.52 156.71 179.55 C 155.53 179.58 154.60 180.56 154.63 181.73 Z M 154.66 182.70 L 154.68 183.72 C 154.71 184.89 155.69 185.83 156.86 185.80 C 158.04 185.77 158.97 184.79 158.94 183.62 L 158.92 182.60 C 158.89 181.42 157.91 180.49 156.74 180.52 C 155.56 180.55 154.63 181.52 154.66 182.70 Z M 154.68 183.71 L 154.70 184.72 C 154.73 185.90 155.71 186.83 156.88 186.80 C 158.06 186.78 158.99 185.80 158.96 184.63 L 158.94 183.62 C 158.92 182.44 157.94 181.51 156.76 181.54 C 155.59 181.56 154.66 182.54 154.68 183.71 Z M 154.70 184.72 L 154.73 185.72 C 154.75 186.90 155.72 187.83 156.90 187.81 C 158.08 187.78 159.01 186.81 158.99 185.63 L 158.97 184.63 C 158.94 183.45 157.97 182.52 156.79 182.54 C 155.61 182.57 154.68 183.54 154.70 184.72 Z M 154.73 185.72 L 154.74 186.71 C 154.77 187.89 155.74 188.82 156.92 188.80 C 158.09 188.78 159.03 187.81 159.01 186.63 L 158.99 185.63 C 158.96 184.46 157.99 183.52 156.81 183.54 C 155.64 183.57 154.70 184.54 154.73 185.72 Z M 154.74 186.71 L 154.76 187.70 C 154.79 188.88 155.76 189.82 156.93 189.79 C 158.11 189.77 159.05 188.80 159.02 187.62 L 159.01 186.63 C 158.98 185.45 158.01 184.52 156.84 184.54 C 155.66 184.56 154.72 185.53 154.74 186.71 Z M 154.76 187.70 L 154.78 188.69 C 154.80 189.87 155.77 190.81 156.95 190.79 C 158.13 190.77 159.06 189.79 159.04 188.62 L 159.02 187.63 C 159.00 186.45 158.03 185.51 156.86 185.53 C 155.68 185.55 154.74 186.53 154.76 187.70 Z M 154.78 188.69 L 154.80 189.69 C 154.82 190.86 155.79 191.80 156.97 191.78 C 158.14 191.76 159.08 190.79 159.06 189.61 L 159.04 188.62 C 159.02 187.44 158.05 186.50 156.87 186.53 C 155.70 186.55 154.76 187.52 154.78 188.69 Z M 154.80 189.69 L 154.82 190.70 C 154.84 191.88 155.81 192.81 156.98 192.79 C 158.16 192.77 159.10 191.80 159.08 190.62 L 159.06 189.61 C 159.04 188.44 158.07 187.50 156.89 187.52 C 155.72 187.54 154.78 188.51 154.80 189.69 Z M 154.82 190.70 L 154.84 191.74 C 154.86 192.91 155.83 193.85 157.00 193.83 C 158.18 193.81 159.11 192.84 159.09 191.67 L 159.08 190.63 C 159.06 189.45 158.09 188.51 156.91 188.53 C 155.73 188.55 154.80 189.52 154.82 190.70 Z M 154.84 191.74 L 154.85 192.78 C 154.87 193.95 155.84 194.89 157.02 194.87 C 158.19 194.85 159.13 193.88 159.11 192.70 L 159.09 191.67 C 159.07 190.49 158.10 189.55 156.93 189.57 C 155.75 189.59 154.82 190.56 154.84 191.74 Z M 154.86 192.78 L 154.87 193.80 C 154.89 194.98 155.86 195.91 157.04 195.89 C 158.21 195.87 159.15 194.90 159.13 193.73 L 159.11 192.70 C 159.09 191.53 158.12 190.59 156.95 190.61 C 155.77 190.63 154.84 191.60 154.86 192.78 Z M 154.88 193.80 L 154.89 194.81 C 154.91 195.99 155.88 196.92 157.06 196.90 C 158.23 196.88 159.16 195.91 159.14 194.74 L 159.13 193.73 C 159.10 192.55 158.14 191.62 156.96 191.64 C 155.79 191.66 154.85 192.63 154.88 193.80 Z M 154.89 194.81 L 154.91 195.80 C 154.93 196.97 155.90 197.91 157.07 197.89 C 158.25 197.86 159.18 196.90 159.16 195.72 L 159.14 194.74 C 159.12 193.56 158.15 192.63 156.98 192.65 C 155.81 192.67 154.87 193.64 154.89 194.81 Z M 154.91 195.80 L 154.93 196.76 C 154.95 197.93 155.92 198.87 157.09 198.84 C 158.27 198.82 159.20 197.85 159.18 196.68 L 159.16 195.72 C 159.14 194.55 158.17 193.62 157.00 193.64 C 155.82 193.66 154.89 194.63 154.91 195.80 Z M 154.93 196.76 L 154.95 197.69 C 154.97 198.86 155.94 199.79 157.11 199.77 C 158.28 199.74 159.22 198.78 159.19 197.60 L 159.17 196.68 C 159.15 195.51 158.18 194.58 157.01 194.60 C 155.84 194.62 154.91 195.59 154.93 196.76 Z M 154.95 197.69 L 154.98 198.79 C 155.00 199.96 155.97 200.89 157.14 200.87 C 158.31 200.84 159.24 199.88 159.21 198.71 L 159.19 197.60 C 159.17 196.43 158.20 195.50 157.03 195.53 C 155.86 195.55 154.93 196.52 154.95 197.69 Z M 154.98 198.79 L 155.01 199.84 C 155.03 201.01 156.00 201.93 157.16 201.91 C 158.33 201.88 159.25 200.92 159.23 199.75 L 159.21 198.70 C 159.18 197.54 158.22 196.61 157.05 196.64 C 155.88 196.66 154.96 197.63 154.98 198.79 Z M 155.01 199.84 L 155.03 200.85 C 155.06 202.01 156.02 202.93 157.19 202.91 C 158.35 202.88 159.27 201.92 159.24 200.75 L 159.22 199.75 C 159.20 198.59 158.23 197.67 157.07 197.69 C 155.91 197.72 154.99 198.68 155.01 199.84 Z M 155.04 200.85 L 155.06 201.82 C 155.09 202.98 156.05 203.89 157.21 203.87 C 158.37 203.84 159.29 202.88 159.26 201.72 L 159.24 200.75 C 159.21 199.59 158.25 198.67 157.09 198.70 C 155.93 198.73 155.01 199.69 155.04 200.85 Z M 155.07 201.82 L 155.09 202.76 C 155.12 203.92 156.08 204.83 157.23 204.80 C 158.39 204.77 159.30 203.82 159.28 202.66 L 159.25 201.72 C 159.23 200.56 158.27 199.65 157.11 199.68 C 155.96 199.70 155.04 200.66 155.07 201.82 Z M 155.10 202.76 L 155.12 203.70 C 155.15 204.85 156.11 205.76 157.26 205.73 C 158.41 205.70 159.32 204.75 159.29 203.60 L 159.27 202.66 C 159.24 201.51 158.29 200.59 157.13 200.62 C 155.98 200.65 155.07 201.61 155.10 202.76 Z M 155.13 203.70 L 155.15 204.71 C 155.18 205.86 156.14 206.77 157.28 206.74 C 158.43 206.71 159.34 205.76 159.31 204.61 L 159.29 203.59 C 159.26 202.45 158.30 201.54 157.16 201.57 C 156.01 201.60 155.10 202.55 155.13 203.70 Z M 155.16 204.71 L 155.19 205.72 C 155.22 206.86 156.17 207.77 157.31 207.74 C 158.45 207.71 159.36 206.76 159.33 205.61 L 159.30 204.61 C 159.27 203.46 158.32 202.56 157.18 202.59 C 156.04 202.62 155.13 203.57 155.16 204.71 Z M 155.20 205.72 L 155.23 206.72 C 155.26 207.86 156.21 208.76 157.34 208.73 C 158.48 208.69 159.38 207.75 159.35 206.61 L 159.32 205.61 C 159.29 204.47 158.34 203.58 157.20 203.61 C 156.06 203.64 155.17 204.59 155.20 205.72 Z M 155.24 206.73 L 155.27 207.72 C 155.30 208.85 156.25 209.74 157.38 209.71 C 158.51 209.67 159.40 208.73 159.37 207.59 L 159.34 206.60 C 159.30 205.47 158.35 204.58 157.22 204.62 C 156.09 204.65 155.20 205.60 155.24 206.73 Z M 155.28 207.73 L 155.31 208.72 C 155.35 209.84 156.30 210.72 157.42 210.68 C 158.55 210.65 159.43 209.70 159.39 208.57 L 159.36 207.59 C 159.32 206.46 158.37 205.58 157.25 205.62 C 156.12 205.66 155.24 206.60 155.28 207.73 Z M 155.32 208.72 L 155.36 209.74 C 155.41 210.86 156.35 211.73 157.47 211.69 C 158.59 211.64 159.46 210.70 159.42 209.58 L 159.38 208.56 C 159.34 207.44 158.39 206.57 157.27 206.62 C 156.15 206.66 155.28 207.60 155.32 208.72 Z M 155.38 209.75 L 155.42 210.76 C 155.47 211.88 156.41 212.74 157.53 212.69 C 158.64 212.64 159.50 211.70 159.45 210.58 L 159.41 209.57 C 159.36 208.46 158.41 207.59 157.30 207.64 C 156.19 207.69 155.33 208.64 155.38 209.75 Z M 155.43 210.78 L 155.48 211.78 C 155.54 212.89 156.48 213.74 157.59 213.68 C 158.69 213.63 159.55 212.68 159.49 211.58 L 159.44 210.57 C 159.38 209.47 158.44 208.62 157.34 208.67 C 156.23 208.73 155.38 209.67 155.43 210.78 Z M 155.50 211.79 L 155.55 212.78 C 155.62 213.88 156.56 214.72 157.65 214.66 C 158.75 214.60 159.59 213.66 159.53 212.56 L 159.48 211.57 C 159.42 210.47 158.47 209.63 157.38 209.69 C 156.28 209.75 155.44 210.69 155.50 211.79 Z M 155.57 212.79 L 155.63 213.77 C 155.70 214.86 156.64 215.69 157.73 215.62 C 158.82 215.55 159.65 214.61 159.58 213.52 L 159.52 212.55 C 159.45 211.46 158.51 210.63 157.42 210.69 C 156.33 210.76 155.50 211.70 155.57 212.79 Z M 155.64 213.78 L 155.71 214.81 C 155.79 215.89 156.73 216.71 157.81 216.63 C 158.89 216.56 159.71 215.62 159.64 214.54 L 159.56 213.51 C 159.49 212.43 158.55 211.61 157.47 211.68 C 156.38 211.76 155.57 212.70 155.64 213.78 Z M 155.73 214.82 L 155.81 215.85 C 155.89 216.93 156.83 217.73 157.90 217.65 C 158.97 217.57 159.78 216.63 159.70 215.56 L 159.62 214.52 C 159.54 213.45 158.60 212.65 157.53 212.73 C 156.45 212.81 155.65 213.75 155.73 214.82 Z M 155.83 215.86 L 155.91 216.86 C 156.00 217.93 156.93 218.72 157.99 218.63 C 159.06 218.55 159.85 217.61 159.76 216.55 L 159.68 215.55 C 159.59 214.48 158.66 213.69 157.59 213.78 C 156.53 213.87 155.74 214.80 155.83 215.86 Z M 155.93 216.87 L 156.01 217.84 C 156.10 218.90 157.03 219.68 158.09 219.59 C 159.14 219.49 159.92 218.56 159.83 217.51 L 159.74 216.54 C 159.65 215.49 158.72 214.71 157.67 214.80 C 156.61 214.89 155.83 215.82 155.93 216.87 Z M 156.03 217.85 L 156.12 218.79 C 156.21 219.83 157.14 220.60 158.18 220.51 C 159.23 220.41 159.99 219.49 159.90 218.44 L 159.81 217.50 C 159.72 216.46 158.79 215.69 157.75 215.79 C 156.70 215.88 155.93 216.81 156.03 217.85 Z M 156.13 218.80 L 156.22 219.74 C 156.33 220.77 157.25 221.53 158.28 221.43 C 159.31 221.33 160.07 220.41 159.97 219.38 L 159.88 218.43 C 159.78 217.40 158.86 216.64 157.82 216.74 C 156.79 216.84 156.03 217.76 156.13 218.80 Z M 156.24 219.75 L 156.34 220.70 C 156.45 221.72 157.37 222.46 158.39 222.36 C 159.42 222.25 160.16 221.33 160.05 220.30 L 159.95 219.36 C 159.84 218.34 158.93 217.60 157.90 217.70 C 156.88 217.81 156.14 218.73 156.24 219.75 Z M 156.36 220.72 L 156.48 221.70 C 156.60 222.71 157.52 223.44 158.53 223.32 C 159.54 223.20 160.27 222.28 160.15 221.27 L 160.03 220.28 C 159.91 219.27 158.99 218.55 157.98 218.67 C 156.97 218.79 156.24 219.70 156.36 220.72 Z M 156.50 221.72 L 156.64 222.78 C 156.77 223.79 157.69 224.49 158.69 224.36 C 159.69 224.23 160.40 223.31 160.27 222.31 L 160.13 221.25 C 160.00 220.24 159.08 219.54 158.08 219.67 C 157.07 219.80 156.37 220.72 156.50 221.72 Z M 156.66 222.81 L 156.81 223.81 C 156.95 224.80 157.87 225.49 158.86 225.35 C 159.85 225.20 160.54 224.28 160.39 223.29 L 160.25 222.29 C 160.10 221.30 159.19 220.61 158.19 220.75 C 157.20 220.90 156.52 221.81 156.66 222.81 Z M 156.82 223.83 L 156.98 224.82 C 157.13 225.80 158.05 226.47 159.03 226.32 C 160.01 226.17 160.68 225.25 160.53 224.27 L 160.37 223.28 C 160.22 222.30 159.30 221.62 158.32 221.78 C 157.34 221.93 156.67 222.85 156.82 223.83 Z M 156.99 224.84 L 157.17 225.86 C 157.33 226.83 158.25 227.49 159.22 227.33 C 160.19 227.16 160.85 226.25 160.68 225.27 L 160.51 224.25 C 160.35 223.28 159.43 222.62 158.46 222.79 C 157.49 222.95 156.83 223.87 156.99 224.84 Z M 157.18 225.88 L 157.37 226.90 C 157.54 227.86 158.46 228.50 159.42 228.33 C 160.39 228.15 161.02 227.23 160.85 226.27 L 160.67 225.25 C 160.49 224.29 159.57 223.65 158.61 223.83 C 157.65 224.00 157.01 224.92 157.18 225.88 Z M 157.39 226.93 L 157.58 227.91 C 157.77 228.86 158.69 229.48 159.64 229.29 C 160.59 229.10 161.21 228.18 161.02 227.23 L 160.83 226.25 C 160.64 225.30 159.72 224.68 158.77 224.87 C 157.82 225.05 157.20 225.98 157.39 226.93 Z M 157.60 227.94 L 157.82 228.90 C 158.02 229.84 158.95 230.43 159.89 230.23 C 160.83 230.02 161.42 229.09 161.21 228.15 L 161.00 227.19 C 160.79 226.26 159.87 225.66 158.93 225.87 C 157.99 226.08 157.40 227.01 157.60 227.94 Z M 157.85 228.95 L 158.13 230.05 C 158.36 230.97 159.30 231.52 160.22 231.29 C 161.14 231.05 161.70 230.12 161.46 229.20 L 161.18 228.10 C 160.95 227.18 160.01 226.63 159.09 226.86 C 158.17 227.10 157.61 228.03 157.85 228.95 Z M 158.17 230.10 L 158.45 231.07 C 158.71 231.97 159.66 232.48 160.56 232.22 C 161.46 231.95 161.97 231.01 161.71 230.11 L 161.42 229.14 C 161.16 228.24 160.21 227.73 159.32 227.99 C 158.42 228.26 157.90 229.20 158.17 230.10 Z M 158.49 231.11 L 158.77 231.99 C 159.06 232.87 160.01 233.35 160.89 233.07 C 161.76 232.78 162.25 231.84 161.96 230.96 L 161.67 230.07 C 161.38 229.19 160.44 228.71 159.56 229.00 C 158.68 229.28 158.20 230.23 158.49 231.11 Z M 158.80 232.01 L 159.08 232.82 C 159.38 233.68 160.32 234.14 161.18 233.84 C 162.04 233.55 162.50 232.61 162.21 231.75 L 161.93 230.94 C 161.63 230.08 160.69 229.62 159.83 229.91 C 158.97 230.21 158.51 231.15 158.80 232.01 Z"
      fill="black"
      fill-rule="nonzero" /></svg>