<svg xmlns="http://www.w3.org/2000/svg" width="300" height="300" viewBox="0 0 300 300">
<path d="M 81.72 141.13 L 80.89 140.19 C 80.26 139.48 79.17 139.41 78.45 140.04 C 77.73 140.68 77.67 141.77 78.30 142.49 L 79.13 143.42 C 79.76 144.14 80.86 144.21 81.57 143.57 C 82.29 142.94 82.36 141.85 81.72 141.13 Z M 80.94 140.18 L 80.16 139.27 C 79.52 138.52 78.40 138.44 77.66 139.07 C 76.91 139.71 76.83 140.83 77.46 141.57 L 78.25 142.49 C 78.89 143.24 80.01 143.32 80.75 142.69 C 81.49 142.05 81.58 140.93 80.94 140.18 Z M 80.23 139.29 L 79.53 138.41 C 78.90 137.62 77.76 137.50 76.97 138.12 C 76.19 138.75 76.06 139.89 76.69 140.68 L 77.39 141.55 C 78.02 142.34 79.16 142.46 79.94 141.84 C 80.73 141.21 80.85 140.07 80.23 139.29 Z M 79.63 138.47 L 79.06 137.66 C 78.47 136.82 77.31 136.61 76.47 137.20 C 75.63 137.79 75.42 138.95 76.01 139.79 L 76.59 140.61 C 77.17 141.45 78.33 141.65 79.17 141.06 C 80.01 140.47 80.22 139.32 79.63 138.47 Z M 79.20 137.81 L 78.80 137.08 C 78.30 136.15 77.14 135.81 76.22 136.32 C 75.30 136.82 74.96 137.97 75.46 138.90 L 75.86 139.63 C 76.37 140.56 77.52 140.90 78.44 140.39 C 79.37 139.89 79.71 138.74 79.20 137.81 Z M 79.00 137.44 L 78.81 136.80 C 78.51 135.77 77.42 135.18 76.39 135.48 C 75.36 135.79 74.78 136.87 75.08 137.90 L 75.27 138.54 C 75.57 139.57 76.65 140.15 77.68 139.85 C 78.71 139.55 79.30 138.47 79.00 137.44 Z M 78.90 137.67 L 78.99 137.09 C 79.17 136.01 78.43 134.99 77.35 134.82 C 76.28 134.64 75.26 135.37 75.08 136.45 L 74.99 137.03 C 74.81 138.11 75.55 139.13 76.63 139.30 C 77.71 139.48 78.72 138.74 78.90 137.67 Z M 78.46 138.18 L 78.91 137.73 C 79.69 136.94 79.68 135.67 78.89 134.89 C 78.11 134.11 76.84 134.12 76.06 134.91 L 75.61 135.36 C 74.83 136.15 74.84 137.42 75.63 138.20 C 76.42 138.97 77.69 138.97 78.46 138.18 Z M 78.27 138.18 L 79.04 137.86 C 80.07 137.43 80.56 136.24 80.12 135.21 C 79.69 134.18 78.51 133.70 77.48 134.13 L 76.70 134.45 C 75.67 134.88 75.19 136.07 75.62 137.10 C 76.05 138.13 77.24 138.62 78.27 138.18 Z M 78.68 138.00 L 79.73 137.77 C 80.84 137.54 81.55 136.46 81.31 135.35 C 81.08 134.25 80.00 133.54 78.89 133.77 L 77.84 133.99 C 76.73 134.22 76.02 135.31 76.26 136.41 C 76.49 137.52 77.57 138.23 78.68 138.00 Z M 79.55 137.83 L 80.85 137.68 C 81.99 137.54 82.80 136.52 82.67 135.39 C 82.54 134.25 81.52 133.44 80.38 133.57 L 79.08 133.72 C 77.94 133.85 77.13 134.88 77.26 136.01 C 77.39 137.14 78.42 137.96 79.55 137.83 Z M 80.77 137.70 L 82.03 137.61 C 83.18 137.52 84.04 136.53 83.96 135.38 C 83.87 134.23 82.88 133.37 81.73 133.45 L 80.47 133.55 C 79.32 133.63 78.46 134.63 78.54 135.77 C 78.62 136.92 79.62 137.78 80.77 137.70 Z M 82.00 137.62 L 82.96 137.56 C 84.11 137.50 84.99 136.51 84.92 135.36 C 84.86 134.20 83.87 133.32 82.72 133.39 L 81.76 133.44 C 80.61 133.51 79.73 134.50 79.80 135.65 C 79.86 136.80 80.85 137.68 82.00 137.62 Z M 82.94 137.56 L 83.94 137.52 C 85.09 137.46 85.98 136.48 85.93 135.33 C 85.87 134.17 84.89 133.28 83.74 133.34 L 82.74 133.39 C 81.58 133.44 80.69 134.42 80.75 135.58 C 80.80 136.73 81.78 137.62 82.94 137.56 Z M 83.93 137.52 L 84.96 137.48 C 86.11 137.43 87.01 136.45 86.96 135.30 C 86.91 134.14 85.94 133.25 84.78 133.29 L 83.75 133.34 C 82.60 133.38 81.70 134.36 81.75 135.51 C 81.80 136.67 82.77 137.57 83.93 137.52 Z M 84.95 137.48 L 85.99 137.44 C 87.15 137.40 88.05 136.42 88.01 135.27 C 87.97 134.11 87.00 133.21 85.84 133.25 L 84.79 133.29 C 83.64 133.33 82.74 134.31 82.78 135.46 C 82.82 136.62 83.79 137.52 84.95 137.48 Z M 85.99 137.44 L 87.04 137.40 C 88.19 137.36 89.10 136.40 89.06 135.24 C 89.02 134.08 88.05 133.18 86.89 133.22 L 85.85 133.25 C 84.69 133.29 83.78 134.26 83.82 135.42 C 83.86 136.57 84.83 137.48 85.99 137.44 Z M 87.03 137.41 L 88.07 137.37 C 89.22 137.33 90.13 136.36 90.09 135.21 C 90.05 134.05 89.08 133.14 87.93 133.18 L 86.89 133.21 C 85.74 133.25 84.83 134.22 84.87 135.38 C 84.91 136.54 85.88 137.44 87.03 137.41 Z M 88.07 137.37 L 89.07 137.34 C 90.23 137.30 91.14 136.33 91.10 135.17 C 91.06 134.01 90.09 133.11 88.93 133.15 L 87.93 133.18 C 86.77 133.22 85.86 134.19 85.90 135.35 C 85.94 136.50 86.91 137.41 88.07 137.37 Z M 89.08 137.34 L 90.03 137.31 C 91.19 137.26 92.10 136.29 92.06 135.13 C 92.02 133.97 91.04 133.07 89.88 133.11 L 88.92 133.14 C 87.77 133.19 86.86 134.16 86.90 135.32 C 86.94 136.48 87.92 137.38 89.08 137.34 Z M 90.05 137.31 L 91.08 137.26 C 92.24 137.22 93.14 136.24 93.10 135.08 C 93.05 133.92 92.07 133.02 90.91 133.07 L 89.87 133.11 C 88.71 133.16 87.81 134.13 87.86 135.29 C 87.91 136.45 88.89 137.35 90.05 137.31 Z M 91.10 137.26 L 92.26 137.21 C 93.42 137.15 94.31 136.17 94.26 135.01 C 94.20 133.85 93.21 132.95 92.06 133.01 L 90.89 133.07 C 89.74 133.12 88.84 134.11 88.90 135.27 C 88.95 136.43 89.94 137.32 91.10 137.26 Z M 92.28 137.21 L 93.34 137.15 C 94.49 137.08 95.38 136.09 95.31 134.93 C 95.24 133.77 94.25 132.88 93.09 132.95 L 92.04 133.01 C 90.88 133.08 89.99 134.07 90.06 135.23 C 90.13 136.39 91.12 137.27 92.28 137.21 Z M 93.35 137.14 L 94.33 137.08 C 95.49 137.00 96.36 136.00 96.29 134.85 C 96.21 133.69 95.21 132.81 94.05 132.89 L 93.08 132.95 C 91.92 133.03 91.04 134.03 91.12 135.19 C 91.19 136.34 92.19 137.22 93.35 137.14 Z M 94.34 137.08 L 95.27 137.01 C 96.42 136.93 97.29 135.92 97.21 134.76 C 97.12 133.61 96.12 132.74 94.96 132.82 L 94.04 132.89 C 92.88 132.97 92.01 133.98 92.10 135.14 C 92.18 136.29 93.19 137.16 94.34 137.08 Z M 95.27 137.01 L 96.17 136.94 C 97.32 136.85 98.19 135.84 98.10 134.69 C 98.01 133.53 97.00 132.66 95.84 132.75 L 94.95 132.82 C 93.79 132.91 92.93 133.92 93.02 135.08 C 93.11 136.24 94.12 137.10 95.27 137.01 Z M 96.17 136.94 L 97.05 136.87 C 98.21 136.78 99.07 135.77 98.98 134.61 C 98.89 133.46 97.88 132.59 96.72 132.68 L 95.84 132.75 C 94.68 132.84 93.82 133.86 93.91 135.01 C 94.00 136.17 95.01 137.03 96.17 136.94 Z M 97.05 136.87 L 98.01 136.80 C 99.17 136.71 100.03 135.70 99.94 134.54 C 99.85 133.38 98.84 132.52 97.68 132.61 L 96.73 132.68 C 95.57 132.77 94.71 133.78 94.80 134.94 C 94.89 136.10 95.90 136.96 97.05 136.87 Z M 98.01 136.80 L 98.98 136.72 C 100.14 136.63 101.00 135.62 100.92 134.47 C 100.83 133.31 99.82 132.45 98.66 132.53 L 97.68 132.61 C 96.53 132.70 95.66 133.71 95.75 134.87 C 95.84 136.02 96.85 136.89 98.01 136.80 Z M 98.99 136.72 L 99.98 136.64 C 101.13 136.55 102.00 135.54 101.91 134.39 C 101.82 133.23 100.80 132.37 99.65 132.46 L 98.66 132.54 C 97.50 132.63 96.64 133.64 96.73 134.79 C 96.82 135.95 97.83 136.81 98.99 136.72 Z M 99.98 136.64 L 100.99 136.56 C 102.14 136.47 103.00 135.46 102.91 134.30 C 102.82 133.15 101.81 132.28 100.65 132.38 L 99.64 132.46 C 98.49 132.55 97.63 133.56 97.72 134.72 C 97.81 135.87 98.83 136.74 99.98 136.64 Z M 100.99 136.56 L 102.02 136.48 C 103.17 136.38 104.03 135.36 103.93 134.21 C 103.84 133.06 102.82 132.20 101.67 132.29 L 100.65 132.38 C 99.49 132.47 98.63 133.49 98.73 134.64 C 98.83 135.80 99.84 136.66 100.99 136.56 Z M 102.02 136.47 L 103.05 136.38 C 104.20 136.28 105.06 135.27 104.96 134.11 C 104.86 132.96 103.84 132.10 102.68 132.21 L 101.66 132.29 C 100.50 132.40 99.65 133.41 99.75 134.57 C 99.85 135.72 100.87 136.58 102.02 136.47 Z M 103.06 136.38 L 104.02 136.29 C 105.17 136.19 106.02 135.17 105.91 134.01 C 105.80 132.86 104.78 132.01 103.63 132.12 L 102.67 132.21 C 101.52 132.31 100.67 133.33 100.78 134.49 C 100.89 135.64 101.91 136.49 103.06 136.38 Z M 104.03 136.29 L 104.99 136.20 C 106.15 136.09 106.99 135.06 106.88 133.91 C 106.76 132.76 105.74 131.91 104.59 132.03 L 103.62 132.12 C 102.47 132.23 101.62 133.26 101.74 134.41 C 101.85 135.56 102.87 136.40 104.03 136.29 Z M 105.00 136.20 L 105.99 136.10 C 107.14 135.98 107.97 134.95 107.86 133.80 C 107.74 132.65 106.71 131.81 105.56 131.93 L 104.58 132.03 C 103.43 132.15 102.59 133.18 102.71 134.33 C 102.83 135.48 103.85 136.31 105.00 136.20 Z M 106.00 136.09 L 107.00 135.98 C 108.15 135.86 108.98 134.83 108.85 133.68 C 108.72 132.53 107.69 131.70 106.54 131.82 L 105.55 131.93 C 104.40 132.06 103.57 133.09 103.69 134.24 C 103.82 135.39 104.85 136.22 106.00 136.09 Z M 107.01 135.98 L 108.02 135.86 C 109.17 135.73 109.99 134.69 109.86 133.55 C 109.73 132.40 108.69 131.57 107.54 131.71 L 106.53 131.82 C 105.38 131.96 104.56 133.00 104.69 134.14 C 104.82 135.29 105.86 136.11 107.01 135.98 Z M 108.04 135.86 L 109.07 135.73 C 110.22 135.59 111.03 134.55 110.89 133.40 C 110.75 132.26 109.71 131.44 108.56 131.58 L 107.53 131.71 C 106.38 131.85 105.57 132.89 105.71 134.04 C 105.85 135.19 106.89 136.00 108.04 135.86 Z M 109.08 135.73 L 110.07 135.60 C 111.21 135.46 112.02 134.41 111.87 133.26 C 111.72 132.12 110.67 131.31 109.53 131.46 L 108.55 131.59 C 107.40 131.73 106.59 132.78 106.74 133.93 C 106.89 135.07 107.94 135.88 109.08 135.73 Z M 110.08 135.60 L 111.03 135.47 C 112.17 135.32 112.97 134.27 112.82 133.12 C 112.67 131.98 111.61 131.18 110.47 131.33 L 109.52 131.46 C 108.38 131.62 107.57 132.67 107.73 133.81 C 107.88 134.95 108.94 135.76 110.08 135.60 Z M 111.04 135.47 L 112.01 135.33 C 113.15 135.17 113.94 134.12 113.78 132.98 C 113.62 131.84 112.57 131.04 111.43 131.20 L 110.46 131.34 C 109.32 131.50 108.53 132.55 108.69 133.69 C 108.84 134.83 109.90 135.63 111.04 135.47 Z M 112.01 135.33 L 113.00 135.19 C 114.14 135.03 114.93 133.97 114.76 132.83 C 114.60 131.69 113.55 130.90 112.41 131.06 L 111.42 131.20 C 110.28 131.37 109.49 132.42 109.66 133.56 C 109.82 134.70 110.87 135.49 112.01 135.33 Z M 113.00 135.19 L 114.00 135.04 C 115.14 134.88 115.92 133.82 115.76 132.68 C 115.59 131.55 114.54 130.76 113.40 130.92 L 112.40 131.07 C 111.27 131.23 110.48 132.29 110.64 133.43 C 110.81 134.56 111.86 135.35 113.00 135.19 Z M 114.00 135.04 L 115.01 134.89 C 116.15 134.73 116.93 133.67 116.77 132.53 C 116.60 131.40 115.55 130.61 114.41 130.78 L 113.40 130.92 C 112.26 131.09 111.48 132.15 111.64 133.28 C 111.81 134.42 112.86 135.21 114.00 135.04 Z M 115.01 134.89 L 116.04 134.74 C 117.17 134.57 117.96 133.52 117.79 132.38 C 117.63 131.25 116.57 130.46 115.44 130.63 L 114.41 130.78 C 113.28 130.94 112.49 132.00 112.66 133.13 C 112.82 134.27 113.88 135.06 115.01 134.89 Z M 116.03 134.74 L 117.05 134.59 C 118.18 134.43 118.97 133.37 118.80 132.24 C 118.64 131.10 117.59 130.32 116.45 130.48 L 115.44 130.63 C 114.30 130.80 113.52 131.85 113.68 132.98 C 113.85 134.12 114.90 134.90 116.03 134.74 Z M 117.05 134.59 L 118.01 134.45 C 119.15 134.29 119.93 133.23 119.77 132.10 C 119.61 130.97 118.56 130.18 117.42 130.35 L 116.45 130.49 C 115.32 130.65 114.54 131.70 114.70 132.83 C 114.86 133.97 115.91 134.75 117.05 134.59 Z M 118.02 134.45 L 118.99 134.30 C 120.12 134.14 120.91 133.09 120.74 131.96 C 120.58 130.83 119.53 130.04 118.40 130.21 L 117.42 130.35 C 116.29 130.51 115.51 131.56 115.67 132.69 C 115.83 133.83 116.88 134.61 118.02 134.45 Z M 119.00 134.30 L 119.98 134.16 C 121.11 133.99 121.89 132.94 121.73 131.81 C 121.56 130.68 120.51 129.90 119.38 130.07 L 118.40 130.21 C 117.27 130.38 116.48 131.43 116.65 132.56 C 116.82 133.69 117.87 134.47 119.00 134.30 Z M 119.99 134.15 L 120.98 134.01 C 122.11 133.84 122.88 132.78 122.71 131.66 C 122.54 130.53 121.49 129.75 120.36 129.92 L 119.37 130.07 C 118.24 130.24 117.47 131.29 117.64 132.42 C 117.81 133.55 118.86 134.32 119.99 134.15 Z M 120.99 134.00 L 121.98 133.85 C 123.11 133.67 123.88 132.62 123.70 131.49 C 123.53 130.37 122.48 129.59 121.35 129.77 L 120.35 129.92 C 119.23 130.10 118.46 131.15 118.63 132.28 C 118.81 133.41 119.86 134.18 120.99 134.00 Z M 121.99 133.84 L 122.99 133.68 C 124.12 133.50 124.88 132.44 124.70 131.32 C 124.52 130.19 123.46 129.43 122.34 129.61 L 121.34 129.77 C 120.21 129.96 119.45 131.01 119.63 132.14 C 119.81 133.26 120.87 134.02 121.99 133.84 Z M 123.01 133.68 L 124.01 133.51 C 125.13 133.32 125.89 132.25 125.70 131.13 C 125.51 130.01 124.44 129.26 123.32 129.45 L 122.32 129.62 C 121.20 129.81 120.45 130.87 120.64 131.99 C 120.83 133.11 121.89 133.87 123.01 133.68 Z M 124.03 133.50 L 125.02 133.32 C 126.13 133.12 126.88 132.06 126.68 130.94 C 126.48 129.82 125.41 129.08 124.29 129.28 L 123.30 129.45 C 122.19 129.65 121.44 130.72 121.64 131.84 C 121.84 132.96 122.91 133.70 124.03 133.50 Z M 125.03 133.32 L 126.00 133.14 C 127.11 132.93 127.84 131.85 127.63 130.74 C 127.42 129.62 126.35 128.89 125.23 129.10 L 124.27 129.28 C 123.16 129.49 122.43 130.57 122.64 131.68 C 122.85 132.80 123.92 133.53 125.03 133.32 Z M 126.01 133.13 L 126.98 132.94 C 128.09 132.72 128.81 131.64 128.59 130.53 C 128.37 129.42 127.29 128.70 126.18 128.92 L 125.22 129.11 C 124.11 129.33 123.38 130.40 123.60 131.52 C 123.82 132.63 124.90 133.35 126.01 133.13 Z M 126.99 132.93 L 127.96 132.74 C 129.06 132.51 129.78 131.43 129.55 130.32 C 129.32 129.21 128.24 128.50 127.14 128.72 L 126.17 128.92 C 125.06 129.15 124.35 130.23 124.57 131.34 C 124.80 132.45 125.88 133.16 126.99 132.93 Z M 127.97 132.73 L 128.94 132.53 C 130.04 132.29 130.75 131.21 130.52 130.10 C 130.29 129.00 129.20 128.29 128.10 128.53 L 127.12 128.73 C 126.02 128.96 125.31 130.05 125.55 131.15 C 125.78 132.26 126.86 132.96 127.97 132.73 Z M 128.95 132.52 L 129.93 132.31 C 131.03 132.07 131.73 130.99 131.49 129.88 C 131.26 128.78 130.17 128.08 129.07 128.32 L 128.09 128.53 C 126.99 128.77 126.29 129.85 126.52 130.96 C 126.76 132.06 127.85 132.76 128.95 132.52 Z M 129.94 132.30 L 130.92 132.09 C 132.02 131.85 132.72 130.76 132.48 129.66 C 132.24 128.56 131.15 127.87 130.05 128.11 L 129.06 128.32 C 127.96 128.56 127.27 129.65 127.51 130.75 C 127.75 131.85 128.84 132.55 129.94 132.30 Z M 130.93 132.08 L 131.93 131.86 C 133.02 131.62 133.71 130.53 133.47 129.43 C 133.23 128.34 132.14 127.65 131.04 127.89 L 130.04 128.11 C 128.95 128.35 128.26 129.44 128.50 130.54 C 128.74 131.64 129.83 132.33 130.93 132.08 Z M 131.93 131.86 L 132.93 131.63 C 134.03 131.39 134.72 130.30 134.47 129.21 C 134.23 128.11 133.14 127.42 132.05 127.67 L 131.04 127.89 C 129.95 128.14 129.26 129.22 129.50 130.32 C 129.75 131.41 130.83 132.10 131.93 131.86 Z M 132.93 131.63 L 133.92 131.41 C 135.02 131.16 135.70 130.08 135.46 128.99 C 135.21 127.89 134.13 127.20 133.04 127.45 L 132.05 127.67 C 130.95 127.92 130.27 129.00 130.51 130.09 C 130.76 131.19 131.84 131.87 132.93 131.63 Z M 133.92 131.40 L 134.92 131.18 C 136.01 130.94 136.70 129.85 136.45 128.76 C 136.21 127.67 135.12 126.98 134.03 127.23 L 133.04 127.45 C 131.94 127.70 131.26 128.78 131.50 129.87 C 131.75 130.96 132.83 131.65 133.92 131.40 Z M 134.92 131.18 L 135.92 130.95 C 137.01 130.71 137.69 129.62 137.45 128.53 C 137.20 127.45 136.12 126.76 135.03 127.01 L 134.03 127.23 C 132.94 127.48 132.26 128.56 132.50 129.65 C 132.75 130.74 133.83 131.42 134.92 131.18 Z M 135.92 130.95 L 136.92 130.72 C 138.00 130.47 138.68 129.39 138.44 128.31 C 138.19 127.22 137.11 126.54 136.02 126.79 L 135.03 127.01 C 133.94 127.26 133.26 128.34 133.50 129.43 C 133.75 130.51 134.83 131.20 135.92 130.95 Z M 136.92 130.72 L 137.90 130.49 C 138.99 130.24 139.67 129.16 139.42 128.08 C 139.17 126.99 138.09 126.31 137.00 126.56 L 136.02 126.79 C 134.93 127.04 134.25 128.12 134.50 129.20 C 134.75 130.29 135.83 130.97 136.92 130.72 Z M 137.91 130.49 L 138.88 130.26 C 139.96 130.01 140.64 128.93 140.39 127.85 C 140.13 126.76 139.05 126.09 137.97 126.34 L 137.00 126.57 C 135.92 126.82 135.24 127.90 135.49 128.98 C 135.74 130.06 136.83 130.74 137.91 130.49 Z M 138.89 130.26 L 139.84 130.03 C 140.92 129.78 141.59 128.70 141.34 127.62 C 141.08 126.54 140.00 125.87 138.92 126.12 L 137.97 126.35 C 136.89 126.60 136.22 127.68 136.47 128.76 C 136.72 129.84 137.81 130.51 138.89 130.26 Z M 139.85 130.03 L 140.78 129.80 C 141.85 129.55 142.52 128.47 142.26 127.39 C 142.00 126.31 140.92 125.65 139.85 125.90 L 138.91 126.13 C 137.84 126.38 137.17 127.47 137.43 128.54 C 137.69 129.62 138.77 130.28 139.85 130.03 Z M 140.79 129.80 L 141.79 129.56 C 142.86 129.29 143.52 128.21 143.26 127.14 C 143.00 126.06 141.91 125.40 140.84 125.67 L 139.84 125.91 C 138.76 126.17 138.11 127.25 138.37 128.33 C 138.63 129.40 139.71 130.06 140.79 129.80 Z M 141.80 129.55 L 142.83 129.29 C 143.90 129.02 144.55 127.94 144.29 126.87 C 144.02 125.80 142.94 125.15 141.87 125.42 L 140.83 125.67 C 139.76 125.94 139.11 127.02 139.38 128.09 C 139.64 129.16 140.73 129.81 141.80 129.55 Z M 142.84 129.28 L 143.84 129.03 C 144.91 128.75 145.55 127.67 145.28 126.60 C 145.01 125.54 143.92 124.89 142.86 125.17 L 141.86 125.42 C 140.79 125.70 140.15 126.78 140.42 127.85 C 140.69 128.91 141.78 129.55 142.84 129.28 Z M 143.85 129.02 L 144.82 128.76 C 145.89 128.49 146.52 127.40 146.24 126.34 C 145.96 125.28 144.88 124.64 143.81 124.92 L 142.84 125.17 C 141.78 125.45 141.15 126.54 141.43 127.60 C 141.71 128.66 142.79 129.30 143.85 129.02 Z M 144.84 128.76 L 145.78 128.50 C 146.84 128.22 147.46 127.13 147.18 126.07 C 146.89 125.01 145.80 124.39 144.75 124.67 L 143.80 124.93 C 142.75 125.21 142.12 126.30 142.41 127.36 C 142.69 128.42 143.78 129.04 144.84 128.76 Z M 145.79 128.49 L 146.71 128.24 C 147.77 127.95 148.38 126.86 148.09 125.80 C 147.80 124.75 146.71 124.13 145.66 124.43 L 144.73 124.68 C 143.68 124.97 143.07 126.06 143.36 127.12 C 143.65 128.17 144.74 128.78 145.79 128.49 Z M 146.73 128.23 L 147.63 127.97 C 148.68 127.67 149.29 126.58 148.99 125.53 C 148.69 124.49 147.60 123.88 146.55 124.18 L 145.65 124.43 C 144.60 124.73 143.99 125.82 144.29 126.87 C 144.59 127.92 145.68 128.53 146.73 128.23 Z M 147.65 127.96 L 148.58 127.69 C 149.63 127.38 150.22 126.29 149.92 125.25 C 149.61 124.20 148.52 123.60 147.48 123.91 L 146.54 124.18 C 145.50 124.49 144.90 125.58 145.20 126.63 C 145.51 127.67 146.60 128.27 147.65 127.96 Z M 148.60 127.68 L 149.58 127.38 C 150.62 127.07 151.21 125.98 150.89 124.94 C 150.58 123.90 149.49 123.31 148.45 123.62 L 147.47 123.92 C 146.43 124.23 145.84 125.33 146.15 126.36 C 146.46 127.40 147.56 127.99 148.60 127.68 Z M 149.59 127.37 L 150.56 127.07 C 151.59 126.76 152.18 125.66 151.86 124.63 C 151.54 123.60 150.45 123.02 149.41 123.33 L 148.44 123.63 C 147.41 123.95 146.83 125.04 147.14 126.08 C 147.46 127.11 148.56 127.69 149.59 127.37 Z M 150.57 127.07 L 151.53 126.77 C 152.56 126.44 153.13 125.35 152.81 124.32 C 152.49 123.29 151.39 122.72 150.37 123.04 L 149.41 123.34 C 148.38 123.66 147.80 124.76 148.13 125.79 C 148.45 126.81 149.54 127.39 150.57 127.07 Z M 151.53 126.76 L 152.48 126.46 C 153.51 126.13 154.07 125.04 153.75 124.02 C 153.42 122.99 152.33 122.43 151.31 122.75 L 150.36 123.05 C 149.34 123.37 148.77 124.47 149.09 125.49 C 149.42 126.52 150.51 127.08 151.53 126.76 Z M 152.48 126.45 L 153.42 126.15 C 154.44 125.83 155.00 124.74 154.67 123.72 C 154.35 122.70 153.26 122.13 152.24 122.46 L 151.30 122.76 C 150.28 123.08 149.72 124.17 150.05 125.19 C 150.37 126.22 151.46 126.78 152.48 126.45 Z M 153.42 126.15 L 154.33 125.85 C 155.35 125.53 155.91 124.44 155.58 123.42 C 155.26 122.41 154.17 121.84 153.15 122.17 L 152.24 122.47 C 151.22 122.79 150.66 123.88 150.98 124.90 C 151.31 125.91 152.40 126.47 153.42 126.15 Z M 154.33 125.85 L 155.32 125.53 C 156.34 125.21 156.90 124.12 156.57 123.11 C 156.25 122.09 155.16 121.53 154.15 121.86 L 153.15 122.18 C 152.14 122.50 151.58 123.59 151.91 124.60 C 152.23 125.62 153.32 126.17 154.33 125.85 Z M 155.32 125.52 L 156.30 125.21 C 157.31 124.89 157.86 123.80 157.54 122.79 C 157.21 121.78 156.13 121.23 155.12 121.55 L 154.15 121.87 C 153.14 122.19 152.58 123.27 152.91 124.28 C 153.23 125.29 154.31 125.85 155.32 125.52 Z M 156.30 125.20 L 157.25 124.90 C 158.26 124.57 158.81 123.49 158.49 122.49 C 158.16 121.48 157.08 120.93 156.08 121.25 L 155.12 121.56 C 154.11 121.88 153.56 122.96 153.89 123.97 C 154.21 124.98 155.29 125.53 156.30 125.20 Z M 157.25 124.89 L 158.19 124.58 C 159.20 124.26 159.75 123.18 159.42 122.18 C 159.09 121.18 158.02 120.63 157.02 120.95 L 156.08 121.26 C 155.07 121.58 154.52 122.66 154.85 123.66 C 155.18 124.67 156.25 125.21 157.25 124.89 Z M 158.20 124.58 L 159.12 124.27 C 160.12 123.94 160.67 122.87 160.34 121.87 C 160.01 120.87 158.94 120.33 157.94 120.66 L 157.01 120.96 C 156.01 121.29 155.47 122.36 155.80 123.36 C 156.13 124.36 157.20 124.90 158.20 124.58 Z M 159.13 124.26 L 160.03 123.96 C 161.02 123.63 161.56 122.56 161.23 121.57 C 160.90 120.57 159.83 120.04 158.84 120.37 L 157.93 120.67 C 156.94 121.00 156.40 122.07 156.73 123.06 C 157.06 124.06 158.13 124.59 159.13 124.26 Z M 160.04 123.96 L 160.89 123.67 C 161.88 123.34 162.42 122.27 162.08 121.28 C 161.75 120.29 160.68 119.75 159.69 120.09 L 158.83 120.37 C 157.84 120.71 157.31 121.78 157.64 122.77 C 157.97 123.75 159.05 124.29 160.04 123.96 Z M 160.89 123.66 L 161.76 123.37 C 162.75 123.04 163.28 121.97 162.95 120.98 C 162.62 120.00 161.55 119.47 160.56 119.80 L 159.69 120.09 C 158.71 120.42 158.18 121.49 158.51 122.48 C 158.84 123.46 159.91 123.99 160.89 123.66 Z M 161.76 123.36 L 162.66 123.06 C 163.64 122.74 164.17 121.67 163.84 120.69 C 163.52 119.71 162.45 119.18 161.47 119.50 L 160.57 119.80 C 159.59 120.13 159.05 121.19 159.38 122.18 C 159.71 123.16 160.77 123.69 161.76 123.36 Z M 162.65 123.06 L 163.60 122.75 C 164.58 122.43 165.12 121.37 164.79 120.39 C 164.47 119.41 163.42 118.87 162.43 119.19 L 161.48 119.51 C 160.50 119.83 159.96 120.89 160.29 121.87 C 160.61 122.85 161.67 123.38 162.65 123.06 Z M 163.59 122.75 L 164.61 122.42 C 165.59 122.10 166.13 121.05 165.82 120.07 C 165.50 119.09 164.45 118.55 163.47 118.87 L 162.45 119.20 C 161.47 119.51 160.93 120.56 161.24 121.54 C 161.56 122.52 162.61 123.06 163.59 122.75 Z M 164.59 122.42 L 165.70 122.07 C 166.68 121.76 167.23 120.72 166.92 119.74 C 166.62 118.76 165.58 118.22 164.60 118.52 L 163.49 118.87 C 162.51 119.17 161.96 120.22 162.27 121.20 C 162.57 122.18 163.61 122.72 164.59 122.42 Z M 165.69 122.07 L 166.59 121.80 C 167.57 121.50 168.12 120.46 167.82 119.48 C 167.52 118.50 166.49 117.95 165.51 118.25 L 164.61 118.52 C 163.63 118.82 163.08 119.86 163.38 120.84 C 163.68 121.81 164.71 122.37 165.69 122.07 Z M 166.58 121.79 L 167.52 121.51 C 168.50 121.22 169.06 120.19 168.77 119.21 C 168.48 118.24 167.45 117.68 166.47 117.97 L 165.52 118.25 C 164.54 118.54 163.99 119.57 164.28 120.55 C 164.57 121.53 165.60 122.09 166.58 121.79 Z M 167.51 121.51 L 168.49 121.23 C 169.47 120.94 170.03 119.92 169.75 118.94 C 169.46 117.96 168.44 117.40 167.46 117.69 L 166.48 117.97 C 165.50 118.26 164.94 119.28 165.23 120.26 C 165.51 121.23 166.53 121.80 167.51 121.51 Z M 168.48 121.23 L 169.48 120.94 C 170.45 120.66 171.02 119.65 170.74 118.67 C 170.47 117.69 169.45 117.13 168.47 117.40 L 167.47 117.69 C 166.50 117.96 165.93 118.98 166.21 119.96 C 166.48 120.94 167.50 121.50 168.48 121.23 Z M 169.46 120.94 L 170.47 120.66 C 171.44 120.39 172.02 119.38 171.75 118.41 C 171.48 117.43 170.46 116.86 169.49 117.13 L 168.48 117.40 C 167.51 117.67 166.94 118.69 167.21 119.66 C 167.48 120.64 168.49 121.21 169.46 120.94 Z M 170.45 120.66 L 171.45 120.40 C 172.42 120.13 173.00 119.13 172.74 118.15 C 172.48 117.18 171.47 116.60 170.50 116.86 L 169.50 117.13 C 168.53 117.39 167.95 118.39 168.21 119.37 C 168.47 120.35 169.48 120.92 170.45 120.66 Z M 171.43 120.39 L 172.40 120.14 C 173.37 119.89 173.96 118.89 173.71 117.92 C 173.45 116.94 172.46 116.36 171.48 116.61 L 170.51 116.86 C 169.54 117.11 168.95 118.11 169.20 119.09 C 169.46 120.06 170.45 120.65 171.43 120.39 Z M 172.38 120.14 L 173.31 119.91 C 174.29 119.67 174.88 118.68 174.64 117.71 C 174.40 116.73 173.41 116.14 172.43 116.38 L 171.50 116.61 C 170.53 116.85 169.93 117.84 170.17 118.81 C 170.42 119.79 171.40 120.39 172.38 120.14 Z M 173.28 119.91 L 174.39 119.65 C 175.37 119.43 175.97 118.45 175.75 117.48 C 175.52 116.50 174.54 115.89 173.57 116.12 L 172.46 116.38 C 171.49 116.61 170.88 117.58 171.11 118.56 C 171.33 119.53 172.31 120.14 173.28 119.91 Z M 174.35 119.65 L 175.44 119.42 C 176.41 119.22 177.03 118.26 176.83 117.29 C 176.63 116.32 175.67 115.69 174.70 115.90 L 173.61 116.12 C 172.64 116.33 172.01 117.28 172.22 118.26 C 172.42 119.23 173.38 119.85 174.35 119.65 Z M 175.39 119.42 L 176.40 119.24 C 177.37 119.06 178.02 118.13 177.84 117.16 C 177.67 116.19 176.74 115.54 175.76 115.72 L 174.75 115.90 C 173.78 116.07 173.13 117.00 173.31 117.98 C 173.48 118.95 174.41 119.60 175.39 119.42 Z M 176.34 119.23 L 177.29 119.10 C 178.26 118.95 178.93 118.05 178.79 117.08 C 178.65 116.11 177.75 115.44 176.78 115.58 L 175.82 115.72 C 174.85 115.86 174.18 116.76 174.32 117.73 C 174.46 118.70 175.37 119.38 176.34 119.23 Z M 177.22 119.09 L 178.13 119.00 C 179.10 118.89 179.80 118.03 179.70 117.06 C 179.59 116.09 178.73 115.38 177.76 115.49 L 176.85 115.58 C 175.88 115.68 175.18 116.55 175.28 117.52 C 175.38 118.49 176.25 119.19 177.22 119.09 Z M 178.05 118.99 L 178.93 118.94 C 179.89 118.88 180.63 118.05 180.57 117.08 C 180.51 116.12 179.68 115.38 178.71 115.44 L 177.84 115.49 C 176.87 115.55 176.13 116.38 176.19 117.35 C 176.25 118.31 177.08 119.05 178.05 118.99 Z M 178.83 118.93 L 180.01 118.92 C 180.97 118.92 181.74 118.14 181.74 117.18 C 181.74 116.22 180.95 115.44 179.99 115.44 L 178.81 115.45 C 177.85 115.45 177.08 116.24 177.08 117.20 C 177.08 118.16 177.87 118.93 178.83 118.93 Z M 179.85 118.90 L 181.06 119.01 C 182.01 119.10 182.85 118.40 182.93 117.45 C 183.02 116.50 182.32 115.66 181.37 115.58 L 180.16 115.47 C 179.21 115.38 178.37 116.08 178.28 117.03 C 178.20 117.98 178.90 118.81 179.85 118.90 Z M 180.73 118.93 L 181.61 119.19 C 182.52 119.46 183.47 118.94 183.73 118.04 C 184.00 117.14 183.49 116.19 182.58 115.92 L 181.70 115.66 C 180.80 115.39 179.85 115.90 179.58 116.81 C 179.31 117.71 179.83 118.66 180.73 118.93 Z M 180.78 118.61 L 181.12 119.05 C 181.71 119.78 182.77 119.90 183.50 119.32 C 184.23 118.73 184.35 117.67 183.77 116.94 L 183.42 116.50 C 182.84 115.77 181.78 115.65 181.04 116.23 C 180.31 116.81 180.19 117.88 180.78 118.61 Z M 180.90 117.35 L 180.71 117.83 C 180.35 118.68 180.75 119.66 181.61 120.01 C 182.46 120.37 183.44 119.96 183.79 119.11 L 183.99 118.64 C 184.35 117.78 183.94 116.81 183.09 116.45 C 182.24 116.10 181.26 116.50 180.90 117.35 Z M 181.07 117.31 L 180.54 117.85 C 179.91 118.50 179.92 119.55 180.57 120.19 C 181.22 120.82 182.27 120.81 182.91 120.16 L 183.43 119.62 C 184.07 118.97 184.06 117.92 183.41 117.29 C 182.75 116.65 181.71 116.66 181.07 117.31 Z M 180.72 117.72 L 179.94 118.33 C 179.23 118.88 179.10 119.91 179.66 120.62 C 180.21 121.33 181.24 121.45 181.95 120.90 L 182.73 120.29 C 183.44 119.74 183.56 118.71 183.01 118.00 C 182.46 117.29 181.43 117.16 180.72 117.72 Z M 180.03 118.28 L 179.07 118.94 C 178.34 119.45 178.15 120.45 178.65 121.18 C 179.15 121.92 180.16 122.10 180.89 121.60 L 181.85 120.94 C 182.59 120.44 182.77 119.44 182.27 118.70 C 181.77 117.97 180.77 117.78 180.03 118.28 Z M 179.12 118.94 L 178.05 119.63 C 177.31 120.10 177.09 121.09 177.57 121.82 C 178.04 122.56 179.03 122.78 179.76 122.30 L 180.84 121.61 C 181.58 121.14 181.79 120.15 181.32 119.41 C 180.84 118.68 179.86 118.46 179.12 118.94 Z M 178.07 119.63 L 177.48 120.00 C 176.75 120.46 176.53 121.44 176.99 122.17 C 177.46 122.91 178.43 123.13 179.16 122.66 L 179.74 122.30 C 180.48 121.83 180.70 120.86 180.24 120.12 C 179.77 119.39 178.80 119.17 178.07 119.63 Z"
      fill="black"
      fill-rule="nonzero" /><path d="M 147.76 76.99 L 146.75 77.36 C 145.89 77.67 145.44 78.63 145.76 79.50 C 146.07 80.37 147.03 80.81 147.90 80.50 L 148.91 80.13 C 149.78 79.81 150.22 78.85 149.91 77.98 C 149.59 77.12 148.63 76.67 147.76 76.99 Z M 146.70 77.35 L 145.72 77.74 C 144.84 78.08 144.42 79.07 144.76 79.95 C 145.11 80.82 146.10 81.24 146.97 80.90 L 147.95 80.51 C 148.83 80.16 149.25 79.17 148.90 78.30 C 148.56 77.43 147.57 77.00 146.70 77.35 Z M 145.61 77.75 L 144.69 78.18 C 143.82 78.59 143.45 79.62 143.86 80.48 C 144.26 81.35 145.29 81.72 146.16 81.31 L 147.08 80.88 C 147.94 80.48 148.31 79.45 147.91 78.58 C 147.50 77.72 146.47 77.35 145.61 77.75 Z M 144.52 78.24 L 143.69 78.73 C 142.86 79.23 142.59 80.31 143.08 81.14 C 143.58 81.98 144.66 82.25 145.49 81.75 L 146.32 81.26 C 147.16 80.76 147.43 79.68 146.93 78.85 C 146.44 78.01 145.36 77.74 144.52 78.24 Z M 143.46 78.86 L 142.76 79.44 C 141.99 80.06 141.88 81.19 142.50 81.95 C 143.13 82.72 144.25 82.83 145.02 82.21 L 145.72 81.63 C 146.49 81.00 146.60 79.88 145.98 79.11 C 145.35 78.35 144.23 78.23 143.46 78.86 Z M 142.49 79.67 L 141.94 80.33 C 141.31 81.10 141.42 82.24 142.19 82.88 C 142.96 83.51 144.11 83.40 144.74 82.63 L 145.28 81.97 C 145.92 81.20 145.81 80.06 145.04 79.42 C 144.27 78.79 143.12 78.90 142.49 79.67 Z M 141.73 80.63 L 141.34 81.38 C 140.87 82.27 141.21 83.37 142.10 83.84 C 142.99 84.31 144.09 83.97 144.56 83.08 L 144.95 82.33 C 145.42 81.44 145.08 80.34 144.19 79.87 C 143.30 79.40 142.20 79.74 141.73 80.63 Z M 141.21 81.65 L 140.93 82.51 C 140.61 83.47 141.13 84.51 142.08 84.82 C 143.04 85.14 144.08 84.63 144.39 83.67 L 144.68 82.81 C 145.00 81.85 144.48 80.82 143.52 80.50 C 142.57 80.18 141.53 80.70 141.21 81.65 Z M 140.87 82.72 L 140.66 83.69 C 140.46 84.68 141.10 85.65 142.09 85.86 C 143.08 86.06 144.05 85.42 144.25 84.43 L 144.46 83.46 C 144.66 82.47 144.02 81.50 143.03 81.30 C 142.04 81.09 141.07 81.73 140.87 82.72 Z M 140.64 83.82 L 140.49 84.91 C 140.36 85.92 141.07 86.84 142.08 86.97 C 143.09 87.10 144.01 86.39 144.14 85.38 L 144.28 84.30 C 144.41 83.29 143.70 82.37 142.70 82.24 C 141.69 82.11 140.77 82.82 140.64 83.82 Z M 140.48 84.98 L 140.37 86.19 C 140.28 87.20 141.03 88.10 142.05 88.19 C 143.06 88.28 143.96 87.53 144.05 86.51 L 144.15 85.31 C 144.24 84.29 143.50 83.40 142.48 83.31 C 141.47 83.22 140.57 83.97 140.48 84.98 Z M 140.37 86.22 L 140.30 87.17 C 140.22 88.19 140.99 89.07 142.01 89.14 C 143.03 89.22 143.91 88.45 143.99 87.44 L 144.05 86.48 C 144.13 85.47 143.36 84.58 142.35 84.51 C 141.33 84.43 140.44 85.20 140.37 86.22 Z M 140.30 87.18 L 140.23 88.14 C 140.17 89.16 140.94 90.04 141.96 90.10 C 142.98 90.17 143.86 89.40 143.93 88.38 L 143.99 87.42 C 144.06 86.40 143.28 85.52 142.26 85.46 C 141.24 85.39 140.36 86.16 140.30 87.18 Z M 140.23 88.15 L 140.17 89.14 C 140.11 90.16 140.88 91.04 141.91 91.10 C 142.93 91.16 143.81 90.39 143.87 89.36 L 143.93 88.37 C 143.99 87.35 143.21 86.47 142.19 86.41 C 141.17 86.35 140.29 87.12 140.23 88.15 Z M 140.17 89.15 L 140.11 90.16 C 140.05 91.19 140.83 92.06 141.85 92.12 C 142.88 92.18 143.75 91.40 143.81 90.38 L 143.87 89.36 C 143.93 88.33 143.15 87.46 142.12 87.40 C 141.10 87.34 140.23 88.12 140.17 89.15 Z M 140.11 90.17 L 140.05 91.20 C 139.99 92.23 140.78 93.10 141.80 93.16 C 142.83 93.21 143.70 92.43 143.76 91.41 L 143.81 90.37 C 143.87 89.35 143.09 88.47 142.06 88.42 C 141.04 88.36 140.16 89.14 140.11 90.17 Z M 140.05 91.20 L 139.99 92.24 C 139.94 93.26 140.72 94.14 141.75 94.19 C 142.77 94.25 143.65 93.46 143.70 92.44 L 143.76 91.40 C 143.81 90.38 143.03 89.50 142.00 89.45 C 140.98 89.39 140.10 90.18 140.05 91.20 Z M 139.99 92.24 L 139.94 93.27 C 139.88 94.29 140.67 95.17 141.70 95.22 C 142.72 95.28 143.60 94.49 143.65 93.46 L 143.71 92.44 C 143.76 91.41 142.97 90.54 141.95 90.48 C 140.92 90.43 140.04 91.21 139.99 92.24 Z M 139.93 93.27 L 139.88 94.27 C 139.82 95.30 140.61 96.18 141.64 96.23 C 142.67 96.29 143.54 95.50 143.60 94.47 L 143.65 93.46 C 143.71 92.44 142.92 91.56 141.89 91.50 C 140.87 91.45 139.99 92.24 139.93 93.27 Z M 139.88 94.27 L 139.82 95.32 C 139.76 96.35 140.55 97.23 141.58 97.28 C 142.61 97.34 143.49 96.55 143.54 95.53 L 143.60 94.47 C 143.66 93.45 142.87 92.57 141.84 92.51 C 140.81 92.45 139.93 93.24 139.88 94.27 Z M 139.82 95.32 L 139.76 96.37 C 139.70 97.39 140.49 98.28 141.51 98.33 C 142.54 98.39 143.42 97.61 143.48 96.58 L 143.54 95.53 C 143.60 94.50 142.82 93.62 141.79 93.56 C 140.76 93.50 139.88 94.29 139.82 95.32 Z M 139.76 96.36 L 139.70 97.38 C 139.64 98.41 140.42 99.29 141.45 99.35 C 142.48 99.41 143.36 98.63 143.42 97.60 L 143.48 96.59 C 143.54 95.56 142.76 94.67 141.73 94.61 C 140.71 94.55 139.82 95.33 139.76 96.36 Z M 139.70 97.37 L 139.63 98.36 C 139.57 99.39 140.35 100.28 141.38 100.34 C 142.41 100.41 143.29 99.63 143.36 98.60 L 143.42 97.61 C 143.49 96.58 142.71 95.69 141.68 95.63 C 140.65 95.56 139.76 96.34 139.70 97.37 Z M 139.63 98.36 L 139.57 99.33 C 139.50 100.36 140.28 101.25 141.31 101.32 C 142.33 101.39 143.22 100.61 143.29 99.58 L 143.36 98.61 C 143.43 97.58 142.65 96.69 141.62 96.62 C 140.59 96.55 139.70 97.33 139.63 98.36 Z M 139.57 99.32 L 139.50 100.29 C 139.43 101.31 140.20 102.21 141.23 102.28 C 142.26 102.35 143.15 101.58 143.23 100.55 L 143.29 99.59 C 143.37 98.56 142.59 97.67 141.56 97.59 C 140.53 97.52 139.64 98.30 139.57 99.32 Z M 139.50 100.28 L 139.43 101.24 C 139.36 102.27 140.13 103.16 141.16 103.24 C 142.18 103.31 143.08 102.54 143.15 101.51 L 143.22 100.56 C 143.30 99.53 142.53 98.63 141.50 98.56 C 140.47 98.48 139.58 99.25 139.50 100.28 Z M 139.43 101.23 L 139.36 102.19 C 139.28 103.22 140.05 104.12 141.07 104.20 C 142.10 104.28 143.00 103.51 143.08 102.48 L 143.15 101.52 C 143.23 100.49 142.47 99.59 141.44 99.51 C 140.41 99.44 139.51 100.20 139.43 101.23 Z M 139.36 102.19 L 139.28 103.15 C 139.19 104.18 139.96 105.08 140.99 105.17 C 142.02 105.25 142.92 104.48 143.00 103.46 L 143.08 102.49 C 143.16 101.46 142.40 100.56 141.37 100.48 C 140.34 100.39 139.44 101.16 139.36 102.19 Z M 139.28 103.15 L 139.19 104.12 C 139.11 105.15 139.87 106.05 140.90 106.14 C 141.92 106.23 142.83 105.47 142.92 104.44 L 143.00 103.46 C 143.09 102.44 142.33 101.53 141.30 101.44 C 140.27 101.36 139.37 102.12 139.28 103.15 Z M 139.19 104.11 L 139.11 105.10 C 139.01 106.13 139.77 107.04 140.80 107.13 C 141.83 107.22 142.74 106.46 142.83 105.44 L 142.92 104.45 C 143.01 103.42 142.25 102.51 141.22 102.42 C 140.20 102.33 139.29 103.08 139.19 104.11 Z M 139.10 105.09 L 139.01 106.09 C 138.91 107.11 139.67 108.03 140.69 108.13 C 141.72 108.22 142.64 107.47 142.73 106.44 L 142.83 105.44 C 142.93 104.42 142.17 103.50 141.14 103.41 C 140.12 103.31 139.20 104.06 139.10 105.09 Z M 139.01 106.08 L 138.91 107.08 C 138.81 108.11 139.55 109.03 140.58 109.13 C 141.61 109.24 142.53 108.49 142.63 107.46 L 142.73 106.45 C 142.84 105.42 142.09 104.50 141.06 104.40 C 140.03 104.30 139.11 105.05 139.01 106.08 Z M 138.91 107.07 L 138.80 108.09 C 138.69 109.12 139.44 110.04 140.46 110.15 C 141.49 110.26 142.41 109.51 142.52 108.49 L 142.63 107.47 C 142.74 106.44 142.00 105.52 140.97 105.41 C 139.94 105.30 139.02 106.04 138.91 107.07 Z M 138.80 108.08 L 138.68 109.11 C 138.57 110.13 139.31 111.06 140.34 111.18 C 141.36 111.29 142.29 110.55 142.41 109.53 L 142.52 108.50 C 142.64 107.47 141.90 106.54 140.87 106.43 C 139.84 106.31 138.92 107.05 138.80 108.08 Z M 138.69 109.10 L 138.57 110.06 C 138.45 111.09 139.18 112.02 140.21 112.14 C 141.24 112.26 142.17 111.53 142.29 110.50 L 142.41 109.54 C 142.53 108.51 141.80 107.58 140.77 107.46 C 139.74 107.33 138.81 108.07 138.69 109.10 Z M 138.57 110.05 L 138.45 111.02 C 138.32 112.05 139.05 112.98 140.08 113.11 C 141.11 113.24 142.04 112.51 142.17 111.48 L 142.29 110.51 C 142.42 109.48 141.69 108.55 140.66 108.42 C 139.64 108.29 138.70 109.02 138.57 110.05 Z M 138.45 111.01 L 138.32 111.99 C 138.19 113.02 138.91 113.96 139.94 114.09 C 140.97 114.23 141.91 113.50 142.04 112.48 L 142.17 111.50 C 142.30 110.47 141.58 109.53 140.55 109.39 C 139.53 109.26 138.58 109.98 138.45 111.01 Z M 138.32 111.98 L 138.19 112.97 C 138.05 113.99 138.76 114.94 139.79 115.08 C 140.82 115.22 141.76 114.50 141.91 113.48 L 142.04 112.49 C 142.18 111.46 141.46 110.51 140.44 110.37 C 139.41 110.23 138.46 110.95 138.32 111.98 Z M 138.19 112.96 L 138.04 113.95 C 137.90 114.98 138.61 115.93 139.64 116.08 C 140.66 116.22 141.62 115.51 141.76 114.48 L 141.90 113.49 C 142.05 112.46 141.34 111.51 140.31 111.36 C 139.29 111.22 138.33 111.93 138.19 112.96 Z M 138.05 113.94 L 137.90 114.94 C 137.74 115.97 138.45 116.93 139.48 117.08 C 140.50 117.23 141.46 116.52 141.61 115.50 L 141.76 114.50 C 141.91 113.47 141.21 112.51 140.18 112.36 C 139.15 112.21 138.20 112.92 138.05 113.94 Z M 137.90 114.93 L 137.74 115.94 C 137.58 116.97 138.28 117.93 139.31 118.09 C 140.33 118.25 141.30 117.54 141.45 116.52 L 141.61 115.51 C 141.77 114.48 141.07 113.52 140.04 113.36 C 139.02 113.20 138.06 113.91 137.90 114.93 Z M 137.74 115.93 L 137.58 116.94 C 137.41 117.96 138.11 118.93 139.13 119.09 C 140.16 119.26 141.13 118.56 141.29 117.54 L 141.45 116.53 C 141.62 115.50 140.92 114.54 139.90 114.37 C 138.87 114.21 137.91 114.90 137.74 115.93 Z M 137.58 116.93 L 137.42 117.89 C 137.24 118.92 137.94 119.89 138.96 120.06 C 139.99 120.23 140.96 119.54 141.13 118.51 L 141.29 117.55 C 141.46 116.52 140.77 115.55 139.75 115.38 C 138.72 115.21 137.75 115.90 137.58 116.93 Z M 137.42 117.88 L 137.25 118.85 C 137.07 119.87 137.76 120.85 138.78 121.03 C 139.80 121.20 140.78 120.52 140.96 119.49 L 141.13 118.53 C 141.31 117.50 140.62 116.53 139.60 116.35 C 138.57 116.17 137.60 116.85 137.42 117.88 Z M 137.25 118.83 L 137.07 119.81 C 136.89 120.83 137.57 121.81 138.59 122.00 C 139.61 122.18 140.59 121.50 140.78 120.48 L 140.96 119.51 C 141.14 118.48 140.46 117.50 139.44 117.32 C 138.42 117.13 137.44 117.81 137.25 118.83 Z M 137.08 119.79 L 136.89 120.77 C 136.70 121.79 137.37 122.78 138.39 122.97 C 139.41 123.17 140.40 122.49 140.59 121.47 L 140.78 120.50 C 140.97 119.47 140.30 118.49 139.28 118.29 C 138.26 118.10 137.27 118.77 137.08 119.79 Z M 136.89 120.75 L 136.70 121.73 C 136.49 122.76 137.16 123.75 138.18 123.95 C 139.20 124.15 140.19 123.49 140.39 122.47 L 140.59 121.49 C 140.79 120.47 140.13 119.47 139.11 119.27 C 138.09 119.07 137.09 119.73 136.89 120.75 Z M 136.70 121.72 L 136.49 122.70 C 136.28 123.72 136.94 124.72 137.96 124.94 C 138.98 125.15 139.97 124.49 140.19 123.47 L 140.39 122.49 C 140.60 121.47 139.95 120.47 138.93 120.26 C 137.91 120.04 136.91 120.70 136.70 121.72 Z M 136.50 122.69 L 136.28 123.68 C 136.06 124.70 136.70 125.70 137.72 125.92 C 138.74 126.15 139.75 125.50 139.97 124.48 L 140.18 123.49 C 140.41 122.47 139.76 121.47 138.74 121.24 C 137.72 121.02 136.72 121.67 136.50 122.69 Z M 136.28 123.66 L 136.06 124.66 C 135.82 125.68 136.46 126.69 137.48 126.92 C 138.49 127.15 139.50 126.52 139.74 125.50 L 139.96 124.50 C 140.20 123.48 139.56 122.47 138.54 122.24 C 137.53 122.01 136.52 122.64 136.28 123.66 Z M 136.06 124.64 L 135.83 125.60 C 135.59 126.62 136.21 127.64 137.23 127.88 C 138.24 128.12 139.26 127.50 139.50 126.48 L 139.73 125.52 C 139.98 124.50 139.35 123.48 138.34 123.24 C 137.32 123.00 136.30 123.63 136.06 124.64 Z M 135.83 125.59 L 135.60 126.54 C 135.34 127.55 135.96 128.58 136.97 128.83 C 137.98 129.08 139.01 128.46 139.26 127.45 L 139.50 126.50 C 139.75 125.49 139.13 124.46 138.12 124.21 C 137.11 123.96 136.09 124.57 135.83 125.59 Z M 135.60 126.52 L 135.35 127.48 C 135.09 128.49 135.70 129.52 136.71 129.78 C 137.72 130.04 138.75 129.44 139.01 128.43 L 139.26 127.47 C 139.52 126.46 138.91 125.43 137.90 125.17 C 136.89 124.91 135.86 125.51 135.60 126.52 Z M 135.36 127.46 L 135.10 128.42 C 134.83 129.43 135.42 130.47 136.43 130.74 C 137.44 131.01 138.48 130.41 138.75 129.40 L 139.00 128.44 C 139.28 127.44 138.68 126.40 137.67 126.13 C 136.66 125.86 135.63 126.45 135.36 127.46 Z M 135.10 128.41 L 134.83 129.37 C 134.55 130.37 135.14 131.42 136.15 131.70 C 137.15 131.98 138.19 131.39 138.47 130.38 L 138.74 129.42 C 139.02 128.41 138.43 127.37 137.43 127.09 C 136.42 126.81 135.38 127.40 135.10 128.41 Z M 134.84 129.35 L 134.56 130.32 C 134.27 131.32 134.85 132.37 135.85 132.66 C 136.86 132.95 137.90 132.37 138.19 131.37 L 138.47 130.40 C 138.76 129.40 138.18 128.35 137.18 128.06 C 136.17 127.77 135.13 128.35 134.84 129.35 Z M 134.56 130.31 L 134.28 131.27 C 133.98 132.27 134.55 133.33 135.55 133.62 C 136.55 133.92 137.60 133.35 137.90 132.35 L 138.19 131.38 C 138.48 130.38 137.91 129.33 136.91 129.03 C 135.91 128.74 134.86 129.31 134.56 130.31 Z M 134.28 131.26 L 133.98 132.23 C 133.68 133.23 134.24 134.28 135.24 134.59 C 136.24 134.89 137.29 134.33 137.60 133.34 L 137.89 132.37 C 138.20 131.37 137.64 130.31 136.64 130.01 C 135.64 129.70 134.59 130.26 134.28 131.26 Z M 133.99 132.22 L 133.68 133.19 C 133.37 134.18 133.92 135.24 134.92 135.56 C 135.91 135.87 136.97 135.32 137.29 134.32 L 137.59 133.35 C 137.91 132.35 137.35 131.29 136.36 130.98 C 135.36 130.67 134.30 131.22 133.99 132.22 Z M 133.69 133.17 L 133.39 134.10 C 133.07 135.09 133.61 136.16 134.60 136.48 C 135.60 136.80 136.66 136.25 136.98 135.26 L 137.28 134.33 C 137.60 133.34 137.06 132.28 136.07 131.96 C 135.07 131.63 134.01 132.18 133.69 133.17 Z M 133.39 134.09 L 133.09 135.01 C 132.76 136.00 133.29 137.07 134.28 137.40 C 135.27 137.72 136.34 137.19 136.67 136.20 L 136.98 135.28 C 137.31 134.29 136.77 133.22 135.78 132.89 C 134.79 132.56 133.72 133.10 133.39 134.09 Z M 133.09 134.99 L 132.78 135.92 C 132.44 136.90 132.97 137.98 133.95 138.31 C 134.94 138.65 136.02 138.12 136.35 137.14 L 136.67 136.21 C 137.00 135.22 136.48 134.15 135.49 133.81 C 134.50 133.48 133.43 134.00 133.09 134.99 Z M 132.78 135.90 L 132.46 136.83 C 132.11 137.81 132.63 138.89 133.62 139.24 C 134.60 139.58 135.68 139.06 136.02 138.08 L 136.35 137.15 C 136.69 136.17 136.17 135.09 135.19 134.74 C 134.20 134.40 133.13 134.92 132.78 135.90 Z M 132.46 136.81 L 132.13 137.75 C 131.77 138.73 132.28 139.81 133.27 140.16 C 134.25 140.52 135.33 140.01 135.68 139.02 L 136.02 138.09 C 136.37 137.11 135.86 136.03 134.88 135.67 C 133.90 135.32 132.82 135.83 132.46 136.81 Z M 132.13 137.73 L 131.79 138.67 C 131.42 139.65 131.92 140.74 132.90 141.10 C 133.88 141.46 134.97 140.96 135.33 139.98 L 135.68 139.04 C 136.04 138.06 135.54 136.97 134.56 136.61 C 133.58 136.25 132.49 136.75 132.13 137.73 Z M 131.79 138.65 L 131.43 139.60 C 131.06 140.58 131.55 141.67 132.53 142.04 C 133.50 142.41 134.60 141.92 134.97 140.94 L 135.32 139.99 C 135.69 139.02 135.20 137.93 134.23 137.56 C 133.25 137.19 132.16 137.68 131.79 138.65 Z M 131.44 139.59 L 131.07 140.54 C 130.69 141.51 131.17 142.61 132.14 142.99 C 133.11 143.37 134.21 142.89 134.59 141.91 L 134.96 140.96 C 135.34 139.98 134.86 138.89 133.88 138.51 C 132.91 138.13 131.82 138.61 131.44 139.59 Z M 131.07 140.53 L 130.68 141.49 C 130.30 142.46 130.77 143.56 131.74 143.95 C 132.71 144.34 133.81 143.87 134.19 142.90 L 134.58 141.93 C 134.97 140.96 134.50 139.86 133.53 139.47 C 132.56 139.09 131.46 139.56 131.07 140.53 Z M 130.69 141.48 L 130.31 142.42 C 129.91 143.38 130.37 144.49 131.34 144.88 C 132.31 145.28 133.41 144.81 133.80 143.85 L 134.19 142.91 C 134.58 141.95 134.12 140.84 133.16 140.45 C 132.19 140.05 131.09 140.51 130.69 141.48 Z M 130.31 142.40 L 129.93 143.31 C 129.53 144.27 129.98 145.38 130.95 145.78 C 131.91 146.18 133.02 145.73 133.42 144.77 L 133.80 143.86 C 134.20 142.90 133.75 141.79 132.79 141.39 C 131.82 140.99 130.72 141.44 130.31 142.40 Z M 129.94 143.30 L 129.55 144.21 C 129.14 145.17 129.58 146.28 130.54 146.69 C 131.50 147.10 132.61 146.65 133.02 145.70 L 133.41 144.78 C 133.82 143.82 133.38 142.71 132.42 142.30 C 131.46 141.89 130.35 142.34 129.94 143.30 Z M 129.56 144.19 L 129.15 145.11 C 128.73 146.07 129.17 147.18 130.13 147.60 C 131.08 148.02 132.19 147.58 132.61 146.63 L 133.01 145.71 C 133.43 144.75 133.00 143.64 132.04 143.22 C 131.09 142.80 129.97 143.24 129.56 144.19 Z M 129.16 145.10 L 128.75 146.02 C 128.32 146.97 128.75 148.09 129.70 148.51 C 130.65 148.94 131.77 148.51 132.19 147.56 L 132.61 146.64 C 133.03 145.69 132.61 144.57 131.65 144.15 C 130.70 143.72 129.59 144.15 129.16 145.10 Z M 128.76 146.00 L 128.33 146.92 C 127.90 147.87 128.32 148.99 129.26 149.42 C 130.21 149.86 131.33 149.44 131.77 148.49 L 132.19 147.58 C 132.62 146.63 132.20 145.51 131.26 145.07 C 130.31 144.64 129.19 145.06 128.76 146.00 Z M 128.34 146.91 L 127.91 147.82 C 127.47 148.77 127.88 149.89 128.82 150.33 C 129.76 150.77 130.89 150.37 131.33 149.42 L 131.76 148.51 C 132.20 147.57 131.79 146.44 130.85 146.00 C 129.91 145.56 128.78 145.97 128.34 146.91 Z M 127.92 147.81 L 127.48 148.72 C 127.03 149.66 127.43 150.79 128.37 151.24 C 129.31 151.69 130.44 151.29 130.89 150.35 L 131.32 149.44 C 131.77 148.50 131.38 147.37 130.44 146.92 C 129.50 146.47 128.37 146.87 127.92 147.81 Z M 127.49 148.70 L 127.05 149.61 C 126.59 150.54 126.98 151.67 127.91 152.13 C 128.85 152.59 129.98 152.20 130.43 151.27 L 130.88 150.37 C 131.34 149.43 130.95 148.30 130.02 147.84 C 129.08 147.38 127.95 147.77 127.49 148.70 Z M 127.06 149.59 L 126.61 150.48 C 126.14 151.41 126.52 152.54 127.45 153.01 C 128.38 153.48 129.51 153.11 129.98 152.18 L 130.43 151.28 C 130.89 150.35 130.52 149.22 129.59 148.75 C 128.66 148.29 127.53 148.66 127.06 149.59 Z M 126.62 150.46 L 126.16 151.35 C 125.68 152.28 126.05 153.41 126.97 153.89 C 127.90 154.37 129.03 154.01 129.51 153.08 L 129.97 152.19 C 130.45 151.27 130.08 150.13 129.16 149.65 C 128.23 149.18 127.10 149.54 126.62 150.46 Z M 126.17 151.34 L 125.69 152.23 C 125.21 153.15 125.56 154.29 126.48 154.78 C 127.40 155.27 128.54 154.92 129.02 154.00 L 129.50 153.10 C 129.99 152.18 129.64 151.04 128.72 150.55 C 127.80 150.07 126.66 150.42 126.17 151.34 Z M 125.71 152.22 L 125.22 153.10 C 124.73 154.01 125.06 155.16 125.98 155.65 C 126.89 156.15 128.03 155.81 128.53 154.90 L 129.01 154.02 C 129.51 153.10 129.17 151.96 128.26 151.46 C 127.35 150.96 126.20 151.30 125.71 152.22 Z M 125.23 153.08 L 124.75 153.96 C 124.24 154.86 124.56 156.01 125.47 156.52 C 126.38 157.02 127.53 156.70 128.03 155.79 L 128.52 154.92 C 129.03 154.01 128.70 152.86 127.80 152.36 C 126.89 151.85 125.74 152.18 125.23 153.08 Z M 124.76 153.94 L 124.26 154.80 C 123.75 155.70 124.06 156.85 124.96 157.37 C 125.86 157.89 127.01 157.57 127.53 156.67 L 128.02 155.81 C 128.54 154.91 128.23 153.76 127.33 153.24 C 126.42 152.72 125.27 153.04 124.76 153.94 Z M 124.27 154.78 L 123.77 155.64 C 123.24 156.54 123.54 157.69 124.44 158.21 C 125.34 158.74 126.49 158.44 127.01 157.55 L 127.52 156.69 C 128.04 155.79 127.74 154.64 126.85 154.12 C 125.95 153.59 124.80 153.89 124.27 154.78 Z M 123.78 155.62 L 123.27 156.47 C 122.73 157.36 123.02 158.52 123.91 159.05 C 124.80 159.59 125.96 159.30 126.49 158.41 L 127.00 157.56 C 127.54 156.67 127.25 155.52 126.36 154.98 C 125.47 154.45 124.32 154.73 123.78 155.62 Z M 123.28 156.46 L 122.76 157.30 C 122.22 158.19 122.49 159.34 123.38 159.89 C 124.26 160.43 125.42 160.16 125.96 159.27 L 126.48 158.43 C 127.03 157.54 126.75 156.38 125.87 155.84 C 124.98 155.30 123.82 155.57 123.28 156.46 Z M 122.77 157.29 L 122.24 158.13 C 121.69 159.01 121.95 160.17 122.83 160.72 C 123.71 161.27 124.87 161.01 125.42 160.13 L 125.95 159.29 C 126.51 158.41 126.24 157.25 125.36 156.70 C 124.48 156.14 123.32 156.41 122.77 157.29 Z M 122.25 158.12 L 121.71 158.96 C 121.15 159.83 121.41 160.99 122.28 161.55 C 123.15 162.11 124.31 161.86 124.87 160.99 L 125.41 160.14 C 125.97 159.27 125.72 158.11 124.85 157.55 C 123.97 156.99 122.81 157.24 122.25 158.12 Z M 121.72 158.94 L 121.18 159.77 C 120.61 160.64 120.86 161.80 121.73 162.37 C 122.60 162.94 123.76 162.69 124.33 161.82 L 124.87 161.00 C 125.43 160.13 125.19 158.97 124.32 158.40 C 123.45 157.83 122.29 158.08 121.72 158.94 Z M 121.19 159.76 L 120.65 160.56 C 120.08 161.43 120.32 162.59 121.18 163.17 C 122.04 163.74 123.21 163.50 123.78 162.64 L 124.32 161.83 C 124.89 160.97 124.66 159.81 123.79 159.23 C 122.93 158.66 121.76 158.89 121.19 159.76 Z M 120.66 160.55 L 120.12 161.36 C 119.54 162.22 119.77 163.39 120.63 163.97 C 121.48 164.55 122.65 164.32 123.23 163.46 L 123.77 162.65 C 124.35 161.79 124.13 160.63 123.27 160.05 C 122.41 159.47 121.24 159.69 120.66 160.55 Z M 120.12 161.36 L 119.57 162.17 C 118.99 163.02 119.21 164.19 120.06 164.77 C 120.92 165.36 122.09 165.14 122.67 164.28 L 123.22 163.47 C 123.81 162.61 123.59 161.45 122.73 160.86 C 121.87 160.28 120.71 160.50 120.12 161.36 Z M 119.58 162.16 L 119.01 162.98 C 118.43 163.83 118.64 165.00 119.49 165.58 C 120.35 166.17 121.51 165.96 122.10 165.10 L 122.66 164.29 C 123.25 163.44 123.04 162.27 122.18 161.68 C 121.33 161.09 120.16 161.31 119.58 162.16 Z M 119.02 162.97 L 118.45 163.79 C 117.86 164.64 118.07 165.81 118.92 166.40 C 119.77 166.99 120.93 166.78 121.52 165.93 L 122.09 165.11 C 122.69 164.26 122.48 163.09 121.63 162.50 C 120.78 161.91 119.61 162.12 119.02 162.97 Z M 118.45 163.79 L 117.88 164.61 C 117.28 165.46 117.49 166.63 118.34 167.22 C 119.18 167.81 120.35 167.61 120.94 166.76 L 121.52 165.94 C 122.11 165.09 121.91 163.92 121.06 163.33 C 120.21 162.73 119.05 162.94 118.45 163.79 Z M 117.88 164.61 L 117.29 165.44 C 116.70 166.28 116.90 167.45 117.75 168.05 C 118.59 168.64 119.76 168.44 120.36 167.59 L 120.94 166.76 C 121.53 165.92 121.33 164.75 120.49 164.16 C 119.64 163.56 118.47 163.76 117.88 164.61 Z M 117.30 165.44 L 116.71 166.27 C 116.11 167.11 116.31 168.28 117.16 168.88 C 118.00 169.47 119.17 169.27 119.76 168.43 L 120.35 167.59 C 120.95 166.75 120.75 165.58 119.90 164.99 C 119.06 164.39 117.89 164.59 117.30 165.44 Z M 116.71 166.27 L 116.12 167.11 C 115.52 167.95 115.72 169.12 116.56 169.71 C 117.40 170.31 118.57 170.11 119.17 169.27 L 119.76 168.43 C 120.36 167.59 120.16 166.42 119.32 165.82 C 118.47 165.23 117.31 165.43 116.71 166.27 Z M 116.12 167.11 L 115.52 167.94 C 114.93 168.79 115.13 169.95 115.97 170.55 C 116.81 171.15 117.98 170.95 118.57 170.11 L 119.17 169.27 C 119.76 168.43 119.56 167.26 118.72 166.66 C 117.88 166.07 116.71 166.27 116.12 167.11 Z M 115.52 167.94 L 114.95 168.75 C 114.36 169.59 114.56 170.76 115.40 171.35 C 116.24 171.95 117.41 171.75 118.00 170.91 L 118.57 170.10 C 119.17 169.26 118.97 168.10 118.13 167.50 C 117.29 166.90 116.12 167.10 115.52 167.94 Z M 114.96 168.75 L 114.38 169.56 C 113.79 170.40 113.98 171.56 114.83 172.16 C 115.67 172.76 116.83 172.56 117.43 171.72 L 118.00 170.91 C 118.60 170.07 118.40 168.90 117.56 168.31 C 116.72 167.71 115.55 167.91 114.96 168.75 Z M 114.38 169.56 L 113.81 170.37 C 113.21 171.21 113.41 172.38 114.25 172.97 C 115.09 173.57 116.25 173.37 116.85 172.53 L 117.43 171.72 C 118.02 170.88 117.83 169.71 116.98 169.12 C 116.14 168.52 114.98 168.72 114.38 169.56 Z M 113.81 170.37 L 113.23 171.19 C 112.63 172.03 112.83 173.19 113.67 173.79 C 114.51 174.38 115.67 174.18 116.27 173.34 L 116.85 172.53 C 117.45 171.69 117.25 170.53 116.41 169.93 C 115.57 169.33 114.40 169.53 113.81 170.37 Z M 113.23 171.19 L 112.65 172.00 C 112.05 172.84 112.25 174.01 113.09 174.60 C 113.93 175.20 115.09 175.00 115.69 174.16 L 116.27 173.35 C 116.87 172.51 116.67 171.34 115.83 170.75 C 114.99 170.15 113.83 170.35 113.23 171.19 Z M 112.65 172.00 L 112.07 172.82 C 111.47 173.66 111.67 174.82 112.50 175.42 C 113.34 176.02 114.51 175.82 115.10 174.98 L 115.69 174.16 C 116.28 173.33 116.09 172.16 115.25 171.57 C 114.41 170.97 113.25 171.16 112.65 172.00 Z M 112.07 172.82 L 111.49 173.64 C 110.89 174.47 111.08 175.64 111.92 176.23 C 112.76 176.83 113.92 176.64 114.52 175.80 L 115.10 174.98 C 115.70 174.15 115.51 172.98 114.67 172.39 C 113.83 171.79 112.67 171.98 112.07 172.82 Z M 111.49 173.64 L 110.90 174.45 C 110.30 175.29 110.50 176.45 111.33 177.05 C 112.17 177.65 113.33 177.46 113.93 176.62 L 114.51 175.80 C 115.11 174.97 114.92 173.80 114.09 173.21 C 113.25 172.61 112.09 172.80 111.49 173.64 Z M 110.90 174.45 L 110.32 175.27 C 109.72 176.10 109.91 177.27 110.74 177.86 C 111.58 178.46 112.74 178.27 113.34 177.44 L 113.93 176.62 C 114.53 175.79 114.34 174.63 113.50 174.03 C 112.67 173.43 111.50 173.62 110.90 174.45 Z M 110.32 175.27 L 109.73 176.08 C 109.13 176.91 109.32 178.08 110.15 178.68 C 110.99 179.28 112.15 179.09 112.75 178.26 L 113.34 177.44 C 113.94 176.61 113.75 175.45 112.92 174.85 C 112.08 174.25 110.92 174.43 110.32 175.27 Z M 109.74 176.08 L 109.14 176.90 C 108.54 177.73 108.73 178.89 109.56 179.49 C 110.39 180.09 111.55 179.91 112.15 179.08 L 112.75 178.26 C 113.35 177.43 113.16 176.27 112.33 175.66 C 111.50 175.06 110.34 175.25 109.74 176.08 Z M 109.15 176.89 L 108.54 177.72 C 107.94 178.55 108.12 179.72 108.95 180.32 C 109.78 180.92 110.94 180.74 111.55 179.91 L 112.15 179.08 C 112.75 178.25 112.57 177.09 111.74 176.49 C 110.91 175.88 109.75 176.06 109.15 176.89 Z M 108.55 177.72 L 107.94 178.55 C 107.34 179.37 107.52 180.54 108.34 181.14 C 109.17 181.75 110.33 181.57 110.94 180.74 L 111.54 179.91 C 112.15 179.09 111.97 177.92 111.14 177.32 C 110.31 176.71 109.15 176.89 108.55 177.72 Z M 107.94 178.54 L 107.34 179.36 C 106.74 180.19 106.91 181.35 107.74 181.96 C 108.56 182.56 109.73 182.39 110.33 181.56 L 110.94 180.74 C 111.54 179.92 111.37 178.75 110.54 178.15 C 109.71 177.54 108.55 177.72 107.94 178.54 Z M 107.35 179.36 L 106.74 180.17 C 106.14 181.00 106.31 182.16 107.13 182.77 C 107.96 183.38 109.12 183.20 109.73 182.38 L 110.33 181.56 C 110.94 180.74 110.76 179.58 109.94 178.97 C 109.12 178.36 107.95 178.54 107.35 179.36 Z M 106.75 180.17 L 106.15 180.98 C 105.54 181.80 105.71 182.96 106.53 183.57 C 107.35 184.18 108.51 184.01 109.12 183.19 L 109.72 182.38 C 110.33 181.56 110.16 180.40 109.34 179.79 C 108.52 179.18 107.36 179.35 106.75 180.17 Z M 106.15 180.98 L 105.55 181.78 C 104.94 182.60 105.11 183.76 105.93 184.37 C 106.75 184.98 107.91 184.81 108.52 183.99 L 109.12 183.19 C 109.73 182.37 109.56 181.21 108.74 180.60 C 107.92 179.99 106.76 180.16 106.15 180.98 Z M 105.56 181.77 L 104.96 182.57 C 104.35 183.38 104.51 184.54 105.33 185.16 C 106.15 185.77 107.31 185.61 107.92 184.79 L 108.52 184.00 C 109.13 183.18 108.97 182.02 108.15 181.40 C 107.33 180.79 106.17 180.95 105.56 181.77 Z M 104.97 182.56 L 104.37 183.35 C 103.76 184.16 103.92 185.32 104.74 185.94 C 105.55 186.56 106.71 186.39 107.33 185.58 L 107.92 184.79 C 108.54 183.98 108.37 182.82 107.56 182.20 C 106.74 181.58 105.58 181.75 104.97 182.56 Z M 104.38 183.34 L 103.79 184.12 C 103.17 184.93 103.33 186.10 104.14 186.71 C 104.96 187.33 106.12 187.17 106.73 186.36 L 107.32 185.58 C 107.94 184.77 107.78 183.61 106.97 182.99 C 106.16 182.37 104.99 182.53 104.38 183.34 Z M 103.79 184.12 L 103.20 184.88 C 102.59 185.70 102.74 186.86 103.55 187.48 C 104.36 188.10 105.52 187.94 106.14 187.13 L 106.73 186.36 C 107.35 185.55 107.19 184.39 106.38 183.77 C 105.57 183.15 104.41 183.31 103.79 184.12 Z M 103.21 184.88 L 102.59 185.69 C 101.97 186.50 102.12 187.66 102.93 188.28 C 103.74 188.90 104.90 188.75 105.52 187.94 L 106.14 187.13 C 106.76 186.32 106.61 185.16 105.80 184.54 C 104.99 183.92 103.83 184.07 103.21 184.88 Z M 102.59 185.68 L 101.97 186.49 C 101.34 187.30 101.49 188.46 102.30 189.09 C 103.10 189.71 104.26 189.56 104.89 188.75 L 105.52 187.94 C 106.14 187.14 105.99 185.98 105.19 185.35 C 104.38 184.73 103.22 184.88 102.59 185.68 Z M 101.97 186.49 L 101.35 187.29 C 100.72 188.10 100.86 189.26 101.67 189.88 C 102.47 190.51 103.63 190.36 104.26 189.56 L 104.88 188.76 C 105.51 187.95 105.37 186.79 104.56 186.17 C 103.76 185.54 102.60 185.69 101.97 186.49 Z M 101.35 187.29 L 100.73 188.08 C 100.10 188.88 100.24 190.04 101.04 190.67 C 101.84 191.30 103.00 191.16 103.63 190.36 L 104.26 189.56 C 104.88 188.76 104.74 187.60 103.94 186.97 C 103.14 186.34 101.98 186.48 101.35 187.29 Z M 100.73 188.07 L 100.12 188.86 C 99.48 189.66 99.62 190.82 100.42 191.45 C 101.22 192.08 102.38 191.94 103.01 191.15 L 103.63 190.36 C 104.26 189.56 104.12 188.40 103.33 187.77 C 102.53 187.14 101.37 187.28 100.73 188.07 Z M 100.12 188.85 L 99.50 189.63 C 98.87 190.43 99.00 191.59 99.80 192.22 C 100.59 192.86 101.75 192.72 102.39 191.93 L 103.00 191.15 C 103.64 190.35 103.51 189.19 102.71 188.56 C 101.91 187.93 100.75 188.06 100.12 188.85 Z M 99.51 189.63 L 98.89 190.40 C 98.25 191.19 98.38 192.35 99.17 192.99 C 99.97 193.62 101.13 193.50 101.76 192.70 L 102.38 191.93 C 103.02 191.14 102.89 189.98 102.10 189.34 C 101.30 188.71 100.14 188.83 99.51 189.63 Z M 98.89 190.39 L 98.28 191.16 C 97.64 191.95 97.76 193.11 98.55 193.75 C 99.34 194.39 100.50 194.26 101.14 193.47 L 101.76 192.71 C 102.40 191.91 102.27 190.76 101.48 190.12 C 100.69 189.48 99.53 189.60 98.89 190.39 Z M 98.28 191.16 L 97.66 191.92 C 97.02 192.71 97.14 193.86 97.93 194.51 C 98.72 195.15 99.88 195.03 100.52 194.24 L 101.14 193.48 C 101.78 192.69 101.66 191.53 100.87 190.89 C 100.08 190.25 98.92 190.37 98.28 191.16 Z M 97.67 191.91 L 97.05 192.67 C 96.40 193.46 96.52 194.62 97.30 195.26 C 98.09 195.90 99.25 195.79 99.89 195.00 L 100.51 194.24 C 101.16 193.46 101.04 192.30 100.25 191.65 C 99.47 191.01 98.31 191.13 97.67 191.91 Z M 97.05 192.67 L 96.43 193.43 C 95.78 194.21 95.89 195.37 96.68 196.01 C 97.46 196.66 98.62 196.55 99.26 195.76 L 99.89 195.00 C 100.53 194.22 100.42 193.06 99.64 192.42 C 98.85 191.77 97.70 191.88 97.05 192.67 Z M 96.43 193.42 L 95.80 194.18 C 95.15 194.96 95.26 196.12 96.04 196.76 C 96.82 197.41 97.98 197.31 98.63 196.53 L 99.26 195.77 C 99.91 194.99 99.80 193.83 99.02 193.18 C 98.24 192.53 97.08 192.64 96.43 193.42 Z M 95.81 194.17 L 95.18 194.93 C 94.52 195.70 94.63 196.86 95.40 197.51 C 96.18 198.17 97.34 198.06 97.99 197.29 L 98.62 196.53 C 99.27 195.75 99.17 194.60 98.39 193.94 C 97.62 193.29 96.46 193.40 95.81 194.17 Z M 95.18 194.92 L 94.54 195.68 C 93.89 196.45 93.98 197.61 94.76 198.26 C 95.53 198.92 96.69 198.82 97.34 198.05 L 97.98 197.29 C 98.64 196.52 98.54 195.36 97.77 194.71 C 96.99 194.05 95.84 194.15 95.18 194.92 Z M 94.55 195.67 L 93.90 196.42 C 93.24 197.19 93.33 198.35 94.10 199.01 C 94.87 199.67 96.03 199.58 96.69 198.81 L 97.33 198.06 C 97.99 197.29 97.90 196.13 97.14 195.47 C 96.37 194.81 95.21 194.90 94.55 195.67 Z M 93.91 196.42 L 93.26 197.17 C 92.59 197.93 92.68 199.09 93.44 199.75 C 94.20 200.42 95.36 200.34 96.02 199.57 L 96.68 198.82 C 97.34 198.05 97.26 196.90 96.50 196.23 C 95.73 195.57 94.58 195.65 93.91 196.42 Z M 93.27 197.16 L 92.60 197.92 C 91.93 198.68 92.01 199.83 92.77 200.50 C 93.53 201.17 94.68 201.09 95.35 200.34 L 96.02 199.58 C 96.68 198.82 96.61 197.66 95.85 197.00 C 95.09 196.33 93.93 196.40 93.27 197.16 Z M 92.61 197.91 L 91.94 198.66 C 91.26 199.42 91.33 200.57 92.08 201.25 C 92.84 201.92 93.99 201.85 94.67 201.10 L 95.34 200.34 C 96.01 199.59 95.95 198.43 95.20 197.76 C 94.44 197.09 93.28 197.15 92.61 197.91 Z M 91.95 198.65 L 91.26 199.41 C 90.58 200.16 90.64 201.32 91.39 201.99 C 92.13 202.67 93.29 202.62 93.97 201.87 L 94.66 201.11 C 95.33 200.36 95.28 199.21 94.53 198.53 C 93.78 197.85 92.63 197.91 91.95 198.65 Z M 91.27 199.40 L 90.57 200.16 C 89.89 200.90 89.93 202.06 90.67 202.74 C 91.42 203.43 92.57 203.38 93.26 202.64 L 93.96 201.88 C 94.64 201.14 94.59 199.98 93.85 199.30 C 93.11 198.61 91.95 198.66 91.27 199.40 Z M 90.58 200.15 L 89.86 200.91 C 89.17 201.65 89.21 202.81 89.95 203.50 C 90.68 204.19 91.84 204.15 92.53 203.41 L 93.24 202.65 C 93.93 201.91 93.90 200.76 93.16 200.07 C 92.43 199.38 91.27 199.42 90.58 200.15 Z M 89.88 200.90 L 89.15 201.66 C 88.45 202.39 88.48 203.55 89.21 204.25 C 89.94 204.94 91.10 204.91 91.79 204.18 L 92.52 203.42 C 93.21 202.69 93.19 201.54 92.46 200.84 C 91.73 200.15 90.57 200.18 89.88 200.90 Z M 89.16 201.65 L 88.43 202.41 C 87.73 203.13 87.75 204.28 88.47 204.99 C 89.19 205.69 90.35 205.67 91.05 204.95 L 91.78 204.19 C 92.48 203.47 92.46 202.32 91.74 201.62 C 91.02 200.91 89.86 200.93 89.16 201.65 Z M 88.44 202.40 L 87.71 203.14 C 87.01 203.85 87.01 205.01 87.73 205.71 C 88.45 206.42 89.60 206.41 90.31 205.70 L 91.04 204.96 C 91.75 204.24 91.74 203.09 91.02 202.38 C 90.31 201.67 89.15 201.68 88.44 202.40 Z M 87.73 203.12 L 87.00 203.85 C 86.29 204.55 86.28 205.71 86.99 206.42 C 87.70 207.13 88.85 207.14 89.57 206.43 L 90.29 205.71 C 91.01 205.00 91.01 203.85 90.30 203.13 C 89.59 202.42 88.44 202.42 87.73 203.12 Z M 87.01 203.83 L 86.30 204.53 C 85.58 205.23 85.56 206.39 86.26 207.11 C 86.96 207.83 88.11 207.84 88.83 207.14 L 89.55 206.44 C 90.27 205.74 90.29 204.59 89.59 203.87 C 88.89 203.15 87.73 203.13 87.01 203.83 Z M 86.31 204.52 L 85.60 205.19 C 84.88 205.89 84.85 207.04 85.54 207.76 C 86.23 208.49 87.38 208.52 88.11 207.83 L 88.82 207.16 C 89.55 206.46 89.57 205.31 88.88 204.58 C 88.19 203.86 87.04 203.83 86.31 204.52 Z M 85.62 205.18 L 84.93 205.82 C 84.19 206.50 84.15 207.65 84.83 208.39 C 85.52 209.12 86.67 209.17 87.40 208.48 L 88.09 207.84 C 88.83 207.16 88.87 206.01 88.19 205.27 C 87.51 204.54 86.36 204.50 85.62 205.18 Z M 84.95 205.80 L 84.28 206.41 C 83.53 207.08 83.47 208.23 84.15 208.98 C 84.82 209.72 85.97 209.78 86.71 209.11 L 87.38 208.50 C 88.13 207.83 88.19 206.68 87.51 205.94 C 86.84 205.19 85.69 205.13 84.95 205.80 Z M 84.30 206.39 L 83.50 207.09 C 82.75 207.75 82.67 208.89 83.32 209.65 C 83.98 210.40 85.13 210.48 85.88 209.83 L 86.69 209.13 C 87.44 208.47 87.52 207.32 86.86 206.57 C 86.21 205.81 85.06 205.73 84.30 206.39 Z M 83.54 207.06 L 82.68 207.78 C 81.91 208.41 81.80 209.55 82.43 210.32 C 83.07 211.09 84.21 211.20 84.98 210.57 L 85.84 209.85 C 86.61 209.22 86.72 208.08 86.09 207.31 C 85.45 206.53 84.31 206.43 83.54 207.06 Z M 82.72 207.74 L 81.90 208.38 C 81.11 208.99 80.96 210.13 81.57 210.92 C 82.18 211.70 83.32 211.85 84.10 211.24 L 84.93 210.60 C 85.72 209.99 85.87 208.85 85.26 208.07 C 84.65 207.28 83.51 207.13 82.72 207.74 Z M 81.95 208.35 L 81.15 208.93 C 80.34 209.51 80.16 210.63 80.74 211.44 C 81.31 212.24 82.44 212.43 83.25 211.85 L 84.05 211.27 C 84.86 210.69 85.04 209.57 84.46 208.76 C 83.88 207.95 82.76 207.77 81.95 208.35 Z M 81.21 208.89 L 80.42 209.41 C 79.59 209.95 79.36 211.07 79.91 211.89 C 80.45 212.72 81.57 212.95 82.39 212.41 L 83.18 211.89 C 84.01 211.34 84.24 210.23 83.70 209.40 C 83.15 208.57 82.04 208.34 81.21 208.89 Z M 80.49 209.37 L 79.70 209.84 C 78.86 210.35 78.58 211.45 79.09 212.30 C 79.60 213.15 80.70 213.42 81.54 212.91 L 82.33 212.44 C 83.18 211.93 83.45 210.84 82.94 209.99 C 82.43 209.14 81.34 208.86 80.49 209.37 Z M 79.77 209.81 L 78.98 210.24 C 78.12 210.71 77.80 211.79 78.26 212.66 C 78.73 213.52 79.82 213.84 80.68 213.37 L 81.47 212.95 C 82.34 212.48 82.66 211.39 82.19 210.53 C 81.72 209.66 80.64 209.34 79.77 209.81 Z M 79.07 210.20 L 78.00 210.71 C 77.12 211.14 76.74 212.20 77.17 213.08 C 77.59 213.97 78.65 214.34 79.54 213.92 L 80.60 213.41 C 81.49 212.98 81.86 211.92 81.44 211.04 C 81.01 210.15 79.95 209.78 79.07 210.20 Z M 78.11 210.67 L 76.98 211.13 C 76.07 211.49 75.63 212.52 75.99 213.43 C 76.36 214.34 77.39 214.78 78.29 214.41 L 79.43 213.96 C 80.34 213.59 80.78 212.56 80.41 211.66 C 80.05 210.75 79.02 210.31 78.11 210.67 Z M 77.13 211.09 L 76.10 211.39 C 75.17 211.67 74.64 212.65 74.92 213.58 C 75.19 214.51 76.17 215.04 77.10 214.76 L 78.14 214.46 C 79.07 214.18 79.60 213.20 79.32 212.27 C 79.04 211.34 78.06 210.81 77.13 211.09 Z M 76.37 211.35 L 75.52 211.46 C 74.56 211.59 73.89 212.47 74.02 213.43 C 74.14 214.38 75.02 215.05 75.98 214.93 L 76.83 214.81 C 77.79 214.68 78.46 213.80 78.33 212.85 C 78.20 211.89 77.33 211.22 76.37 211.35 Z M 76.11 211.49 L 75.52 211.37 C 74.58 211.17 73.66 211.77 73.46 212.71 C 73.26 213.64 73.86 214.57 74.79 214.77 L 75.39 214.89 C 76.32 215.09 77.25 214.50 77.45 213.56 C 77.65 212.62 77.05 211.69 76.11 211.49 Z M 76.65 212.24 L 76.36 211.72 C 75.90 210.89 74.86 210.59 74.04 211.05 C 73.21 211.51 72.91 212.55 73.37 213.38 L 73.66 213.90 C 74.12 214.73 75.16 215.02 75.99 214.56 C 76.82 214.10 77.11 213.06 76.65 212.24 Z M 76.52 212.75 L 76.63 211.89 C 76.74 210.98 76.09 210.15 75.18 210.03 C 74.26 209.92 73.43 210.57 73.32 211.49 L 73.21 212.34 C 73.10 213.26 73.75 214.09 74.66 214.20 C 75.58 214.32 76.41 213.67 76.52 212.75 Z M 76.51 212.22 L 76.88 211.14 C 77.17 210.29 76.72 209.37 75.87 209.08 C 75.02 208.79 74.09 209.24 73.80 210.09 L 73.44 211.16 C 73.14 212.01 73.60 212.94 74.45 213.23 C 75.30 213.52 76.22 213.07 76.51 212.22 Z M 76.80 211.23 L 77.26 210.14 C 77.60 209.33 77.21 208.40 76.41 208.06 C 75.60 207.73 74.67 208.11 74.34 208.92 L 73.88 210.00 C 73.54 210.81 73.92 211.74 74.73 212.08 C 75.54 212.41 76.47 212.03 76.80 211.23 Z"
      fill="black"
      fill-rule="nonzero" /><path d="M 140.73 133.68 L 140.73 134.76 C 140.73 135.67 141.47 136.41 142.38 136.41 C 143.30 136.41 144.04 135.67 144.04 134.75 L 144.04 133.68 C 144.04 132.76 143.30 132.02 142.38 132.02 C 141.47 132.02 140.73 132.76 140.73 133.68 Z M 140.70 134.76 L 140.70 135.83 C 140.70 136.76 141.46 137.52 142.39 137.51 C 143.32 137.51 144.08 136.75 144.08 135.82 L 144.07 134.75 C 144.07 133.82 143.31 133.06 142.38 133.07 C 141.45 133.07 140.69 133.83 140.70 134.76 Z M 140.67 135.84 L 140.68 136.90 C 140.68 137.85 141.46 138.61 142.41 138.60 C 143.36 138.59 144.12 137.82 144.12 136.87 L 144.11 135.81 C 144.10 134.86 143.32 134.10 142.37 134.10 C 141.42 134.11 140.66 134.89 140.67 135.84 Z M 140.64 136.91 L 140.66 137.95 C 140.67 138.91 141.47 139.69 142.44 139.67 C 143.41 139.66 144.18 138.86 144.16 137.89 L 144.15 136.85 C 144.13 135.89 143.34 135.11 142.37 135.13 C 141.40 135.14 140.63 135.94 140.64 136.91 Z M 140.63 137.97 L 140.65 138.97 C 140.68 139.96 141.50 140.74 142.49 140.71 C 143.47 140.69 144.25 139.87 144.22 138.88 L 144.19 137.87 C 144.17 136.89 143.35 136.11 142.36 136.13 C 141.38 136.16 140.60 136.98 140.63 137.97 Z M 140.62 139.00 L 140.66 139.98 C 140.70 140.98 141.55 141.76 142.55 141.72 C 143.55 141.68 144.33 140.83 144.29 139.83 L 144.25 138.85 C 144.21 137.85 143.37 137.07 142.36 137.11 C 141.36 137.15 140.58 138.00 140.62 139.00 Z M 140.63 140.01 L 140.69 140.95 C 140.75 141.97 141.62 142.74 142.64 142.68 C 143.66 142.62 144.44 141.75 144.38 140.73 L 144.32 139.79 C 144.26 138.78 143.39 138.00 142.37 138.06 C 141.35 138.12 140.57 138.99 140.63 140.01 Z M 140.66 140.99 L 140.73 141.88 C 140.82 142.92 141.73 143.69 142.76 143.60 C 143.80 143.51 144.57 142.61 144.48 141.57 L 144.41 140.68 C 144.32 139.65 143.41 138.88 142.38 138.97 C 141.34 139.05 140.57 139.96 140.66 140.99 Z M 140.72 141.95 L 140.84 142.97 C 140.96 144.01 141.90 144.76 142.95 144.64 C 143.99 144.52 144.74 143.57 144.62 142.53 L 144.50 141.51 C 144.37 140.46 143.43 139.72 142.39 139.84 C 141.34 139.96 140.60 140.91 140.72 141.95 Z M 140.84 143.06 L 141.02 144.11 C 141.19 145.15 142.17 145.86 143.21 145.69 C 144.25 145.52 144.96 144.53 144.78 143.49 L 144.61 142.44 C 144.44 141.40 143.46 140.69 142.42 140.86 C 141.38 141.04 140.67 142.02 140.84 143.06 Z M 141.03 144.22 L 141.25 145.20 C 141.48 146.23 142.50 146.88 143.53 146.65 C 144.56 146.42 145.21 145.40 144.98 144.37 L 144.77 143.39 C 144.54 142.36 143.52 141.71 142.49 141.94 C 141.46 142.17 140.81 143.19 141.03 144.22 Z M 141.28 145.30 L 141.54 146.23 C 141.83 147.25 142.88 147.84 143.90 147.55 C 144.92 147.27 145.51 146.21 145.22 145.19 L 144.96 144.26 C 144.67 143.25 143.62 142.66 142.60 142.94 C 141.58 143.23 140.99 144.29 141.28 145.30 Z M 141.57 146.33 L 141.88 147.23 C 142.22 148.23 143.31 148.76 144.31 148.42 C 145.31 148.07 145.84 146.98 145.50 145.98 L 145.19 145.09 C 144.85 144.09 143.76 143.56 142.76 143.90 C 141.76 144.24 141.22 145.33 141.57 146.33 Z M 141.91 147.32 L 142.26 148.20 C 142.65 149.18 143.77 149.66 144.75 149.27 C 145.74 148.87 146.21 147.76 145.82 146.77 L 145.47 145.89 C 145.07 144.91 143.96 144.43 142.97 144.83 C 141.99 145.22 141.51 146.34 141.91 147.32 Z M 142.29 148.27 L 142.67 149.13 C 143.11 150.09 144.24 150.52 145.21 150.09 C 146.18 149.66 146.61 148.52 146.17 147.55 L 145.79 146.70 C 145.36 145.73 144.22 145.30 143.25 145.74 C 142.29 146.17 141.86 147.31 142.29 148.27 Z M 142.70 149.18 L 143.11 150.02 C 143.58 150.97 144.72 151.37 145.68 150.90 C 146.63 150.44 147.02 149.29 146.56 148.34 L 146.15 147.50 C 145.68 146.55 144.53 146.15 143.58 146.62 C 142.63 147.08 142.23 148.23 142.70 149.18 Z M 143.13 150.07 L 143.58 150.92 C 144.07 151.86 145.23 152.22 146.17 151.73 C 147.11 151.24 147.47 150.08 146.98 149.14 L 146.53 148.29 C 146.04 147.35 144.88 146.99 143.94 147.48 C 143.00 147.97 142.64 149.13 143.13 150.07 Z M 143.60 150.96 L 144.09 151.83 C 144.60 152.76 145.77 153.09 146.69 152.58 C 147.62 152.06 147.96 150.90 147.44 149.97 L 146.96 149.10 C 146.44 148.17 145.28 147.84 144.35 148.35 C 143.42 148.87 143.09 150.04 143.60 150.96 Z M 144.10 151.87 L 144.62 152.75 C 145.15 153.67 146.33 153.98 147.24 153.44 C 148.16 152.91 148.47 151.73 147.94 150.82 L 147.42 149.93 C 146.89 149.02 145.71 148.71 144.80 149.24 C 143.88 149.78 143.57 150.95 144.10 151.87 Z M 144.64 152.78 L 145.18 153.68 C 145.73 154.59 146.91 154.88 147.82 154.33 C 148.72 153.78 149.01 152.60 148.46 151.69 L 147.92 150.79 C 147.37 149.88 146.19 149.59 145.28 150.14 C 144.38 150.69 144.09 151.87 144.64 152.78 Z M 145.20 153.70 L 145.77 154.62 C 146.33 155.52 147.52 155.79 148.42 155.23 C 149.31 154.66 149.59 153.48 149.02 152.58 L 148.45 151.66 C 147.89 150.77 146.70 150.49 145.80 151.06 C 144.91 151.62 144.63 152.81 145.20 153.70 Z M 145.78 154.64 L 146.34 155.50 C 146.91 156.39 148.10 156.65 148.99 156.07 C 149.88 155.50 150.14 154.31 149.56 153.42 L 149.01 152.56 C 148.44 151.67 147.25 151.41 146.36 151.98 C 145.47 152.56 145.21 153.75 145.78 154.64 Z M 146.35 155.51 L 146.91 156.37 C 147.49 157.26 148.69 157.51 149.57 156.92 C 150.46 156.34 150.70 155.15 150.12 154.27 L 149.55 153.40 C 148.97 152.52 147.78 152.27 146.89 152.85 C 146.01 153.44 145.76 154.63 146.35 155.51 Z M 146.92 156.39 L 147.50 157.25 C 148.09 158.13 149.28 158.36 150.16 157.77 C 151.04 157.18 151.28 155.99 150.69 155.11 L 150.11 154.25 C 149.52 153.37 148.33 153.14 147.45 153.73 C 146.57 154.32 146.33 155.51 146.92 156.39 Z M 147.51 157.26 L 148.08 158.11 C 148.68 158.98 149.87 159.21 150.75 158.61 C 151.63 158.01 151.85 156.82 151.25 155.94 L 150.68 155.10 C 150.08 154.22 148.89 153.99 148.01 154.59 C 147.13 155.19 146.91 156.38 147.51 157.26 Z M 148.09 158.12 L 148.66 158.94 C 149.27 159.81 150.46 160.03 151.33 159.43 C 152.21 158.82 152.42 157.63 151.82 156.75 L 151.25 155.93 C 150.64 155.06 149.45 154.84 148.57 155.45 C 147.70 156.05 147.49 157.25 148.09 158.12 Z M 148.67 158.95 L 149.23 159.75 C 149.84 160.62 151.04 160.82 151.91 160.21 C 152.77 159.60 152.98 158.40 152.37 157.54 L 151.81 156.74 C 151.20 155.88 150.00 155.67 149.13 156.28 C 148.27 156.89 148.06 158.09 148.67 158.95 Z M 149.24 159.76 L 149.78 160.52 C 150.40 161.38 151.60 161.58 152.46 160.96 C 153.32 160.34 153.52 159.15 152.90 158.28 L 152.36 157.53 C 151.74 156.66 150.55 156.47 149.68 157.08 C 148.82 157.70 148.62 158.90 149.24 159.76 Z M 149.79 160.53 L 150.37 161.32 C 150.99 162.18 152.19 162.37 153.05 161.74 C 153.91 161.12 154.09 159.92 153.47 159.06 L 152.89 158.27 C 152.27 157.41 151.07 157.23 150.21 157.85 C 149.36 158.47 149.17 159.67 149.79 160.53 Z M 150.38 161.34 L 150.95 162.10 C 151.58 162.95 152.78 163.13 153.63 162.49 C 154.48 161.86 154.66 160.66 154.03 159.81 L 153.46 159.05 C 152.83 158.20 151.62 158.02 150.77 158.65 C 149.92 159.29 149.75 160.49 150.38 161.34 Z M 150.96 162.12 L 151.53 162.87 C 152.18 163.71 153.38 163.87 154.22 163.23 C 155.06 162.59 155.22 161.38 154.58 160.54 L 154.01 159.79 C 153.37 158.95 152.17 158.79 151.33 159.43 C 150.48 160.07 150.32 161.28 150.96 162.12 Z M 151.55 162.88 L 152.14 163.64 C 152.79 164.47 153.99 164.62 154.83 163.97 C 155.66 163.32 155.81 162.11 155.16 161.28 L 154.57 160.52 C 153.92 159.69 152.71 159.54 151.88 160.19 C 151.04 160.85 150.90 162.05 151.55 162.88 Z M 152.15 163.65 L 152.78 164.44 C 153.44 165.26 154.64 165.40 155.47 164.74 C 156.30 164.08 156.43 162.87 155.77 162.05 L 155.14 161.26 C 154.48 160.43 153.28 160.30 152.45 160.96 C 151.62 161.62 151.49 162.83 152.15 163.65 Z M 152.79 164.45 L 153.48 165.29 C 154.14 166.11 155.35 166.23 156.17 165.57 C 156.99 164.90 157.11 163.69 156.44 162.87 L 155.76 162.03 C 155.09 161.21 153.88 161.09 153.06 161.76 C 152.25 162.43 152.12 163.63 152.79 164.45 Z M 153.48 165.30 L 154.14 166.09 C 154.81 166.91 156.02 167.02 156.83 166.35 C 157.65 165.67 157.76 164.47 157.09 163.65 L 156.43 162.86 C 155.76 162.05 154.55 161.93 153.74 162.61 C 152.93 163.28 152.81 164.49 153.48 165.30 Z M 154.14 166.10 L 154.76 166.84 C 155.44 167.65 156.65 167.76 157.46 167.08 C 158.27 166.40 158.38 165.20 157.70 164.39 L 157.08 163.64 C 156.40 162.83 155.20 162.72 154.39 163.40 C 153.57 164.08 153.47 165.29 154.14 166.10 Z M 154.77 166.84 L 155.42 167.62 C 156.10 168.42 157.30 168.53 158.11 167.85 C 158.92 167.17 159.02 165.96 158.34 165.15 L 157.69 164.38 C 157.01 163.57 155.81 163.47 155.00 164.15 C 154.19 164.83 154.09 166.03 154.77 166.84 Z M 155.42 167.62 L 156.09 168.41 C 156.77 169.22 157.98 169.32 158.79 168.63 C 159.59 167.95 159.69 166.74 159.01 165.94 L 158.34 165.15 C 157.66 164.34 156.45 164.24 155.64 164.93 C 154.84 165.61 154.74 166.81 155.42 167.62 Z M 156.10 168.42 L 156.78 169.21 C 157.46 170.02 158.67 170.11 159.47 169.43 C 160.27 168.74 160.37 167.53 159.68 166.73 L 159.00 165.93 C 158.32 165.13 157.11 165.04 156.31 165.72 C 155.51 166.41 155.41 167.61 156.10 168.42 Z M 156.78 169.22 L 157.46 170.01 C 158.15 170.81 159.35 170.90 160.15 170.21 C 160.95 169.52 161.05 168.32 160.36 167.52 L 159.68 166.73 C 158.99 165.93 157.79 165.83 156.98 166.52 C 156.18 167.21 156.09 168.42 156.78 169.22 Z M 157.46 170.01 L 158.13 170.78 C 158.82 171.58 160.03 171.67 160.82 170.98 C 161.62 170.29 161.71 169.08 161.02 168.28 L 160.35 167.51 C 159.66 166.71 158.46 166.63 157.66 167.32 C 156.86 168.01 156.77 169.21 157.46 170.01 Z M 158.13 170.79 L 158.78 171.52 C 159.47 172.32 160.68 172.40 161.47 171.71 C 162.27 171.01 162.35 169.81 161.66 169.01 L 161.01 168.27 C 160.32 167.48 159.11 167.40 158.32 168.09 C 157.52 168.78 157.44 169.99 158.13 170.79 Z M 158.78 171.53 L 159.46 172.30 C 160.16 173.09 161.36 173.17 162.16 172.47 C 162.95 171.77 163.02 170.56 162.33 169.77 L 161.65 169.00 C 160.95 168.21 159.75 168.14 158.95 168.83 C 158.16 169.53 158.09 170.74 158.78 171.53 Z M 159.47 172.31 L 160.24 173.17 C 160.95 173.96 162.15 174.03 162.94 173.32 C 163.72 172.62 163.79 171.42 163.09 170.63 L 162.32 169.76 C 161.61 168.98 160.41 168.91 159.62 169.61 C 158.83 170.31 158.77 171.52 159.47 172.31 Z M 160.25 173.18 L 160.97 173.97 C 161.67 174.75 162.88 174.80 163.66 174.10 C 164.44 173.39 164.50 172.18 163.79 171.40 L 163.08 170.62 C 162.37 169.84 161.16 169.78 160.38 170.49 C 159.60 171.20 159.55 172.40 160.25 173.18 Z M 160.98 173.98 L 161.64 174.70 C 162.36 175.47 163.56 175.52 164.34 174.80 C 165.11 174.09 165.16 172.88 164.44 172.11 L 163.78 171.39 C 163.06 170.62 161.86 170.57 161.08 171.28 C 160.31 172.00 160.26 173.21 160.98 173.98 Z M 161.66 174.71 L 162.29 175.38 C 163.01 176.15 164.21 176.18 164.98 175.46 C 165.75 174.74 165.78 173.53 165.06 172.77 L 164.43 172.10 C 163.71 171.33 162.50 171.29 161.74 172.02 C 160.97 172.74 160.94 173.94 161.66 174.71 Z M 162.30 175.39 L 162.91 176.03 C 163.64 176.79 164.84 176.82 165.60 176.09 C 166.36 175.36 166.39 174.16 165.66 173.40 L 165.05 172.76 C 164.32 172.00 163.12 171.97 162.36 172.70 C 161.60 173.43 161.57 174.63 162.30 175.39 Z M 162.92 176.04 L 163.56 176.70 C 164.29 177.45 165.50 177.47 166.25 176.74 C 167.00 176.01 167.02 174.80 166.29 174.05 L 165.65 173.39 C 164.92 172.64 163.72 172.62 162.97 173.35 C 162.21 174.08 162.19 175.29 162.92 176.04 Z M 163.57 176.70 L 164.26 177.41 C 165.00 178.16 166.20 178.18 166.95 177.44 C 167.70 176.71 167.71 175.50 166.98 174.75 L 166.28 174.04 C 165.55 173.29 164.35 173.28 163.60 174.02 C 162.85 174.75 162.83 175.95 163.57 176.70 Z M 164.27 177.42 L 164.97 178.13 C 165.71 178.88 166.91 178.88 167.66 178.15 C 168.40 177.41 168.41 176.21 167.68 175.46 L 166.97 174.75 C 166.24 174.00 165.03 174.00 164.29 174.73 C 163.54 175.47 163.53 176.67 164.27 177.42 Z M 164.98 178.13 L 165.68 178.84 C 166.42 179.59 167.62 179.59 168.37 178.85 C 169.11 178.11 169.12 176.91 168.38 176.17 L 167.67 175.46 C 166.93 174.71 165.73 174.71 164.99 175.45 C 164.24 176.19 164.24 177.39 164.98 178.13 Z M 165.69 178.85 L 166.40 179.56 C 167.14 180.30 168.34 180.30 169.08 179.56 C 169.82 178.82 169.82 177.62 169.08 176.88 L 168.37 176.17 C 167.63 175.42 166.43 175.42 165.69 176.16 C 164.95 176.90 164.95 178.10 165.69 178.85 Z M 166.40 179.56 L 167.11 180.27 C 167.85 181.01 169.05 181.01 169.79 180.27 C 170.53 179.53 170.53 178.33 169.79 177.59 L 169.08 176.88 C 168.34 176.14 167.14 176.14 166.40 176.88 C 165.66 177.62 165.66 178.82 166.40 179.56 Z M 167.11 180.27 L 167.81 180.96 C 168.55 181.70 169.75 181.70 170.49 180.96 C 171.23 180.22 171.23 179.02 170.49 178.28 L 169.79 177.59 C 169.05 176.85 167.85 176.85 167.11 177.59 C 166.37 178.33 166.37 179.53 167.11 180.27 Z M 167.81 180.96 L 168.51 181.66 C 169.25 182.40 170.45 182.40 171.19 181.66 C 171.93 180.92 171.92 179.72 171.18 178.98 L 170.48 178.28 C 169.74 177.54 168.54 177.55 167.81 178.29 C 167.07 179.03 167.07 180.23 167.81 180.96 Z M 168.51 181.66 L 169.22 182.37 C 169.96 183.10 171.16 183.10 171.90 182.36 C 172.63 181.62 172.63 180.42 171.89 179.68 L 171.18 178.98 C 170.44 178.24 169.24 178.25 168.50 178.99 C 167.77 179.73 167.77 180.93 168.51 181.66 Z M 169.22 182.37 L 169.94 183.07 C 170.68 183.81 171.88 183.80 172.61 183.06 C 173.35 182.31 173.34 181.12 172.60 180.38 L 171.88 179.68 C 171.14 178.94 169.94 178.95 169.21 179.69 C 168.47 180.44 168.48 181.64 169.22 182.37 Z M 169.95 183.08 L 170.67 183.79 C 171.42 184.52 172.61 184.51 173.34 183.76 C 174.07 183.02 174.06 181.82 173.32 181.09 L 172.59 180.38 C 171.84 179.65 170.65 179.66 169.92 180.41 C 169.19 181.15 169.20 182.35 169.95 183.08 Z M 170.68 183.80 L 171.31 184.41 C 172.06 185.13 173.25 185.12 173.98 184.37 C 174.71 183.62 174.69 182.42 173.94 181.70 L 173.31 181.09 C 172.56 180.36 171.37 180.38 170.64 181.13 C 169.91 181.87 169.93 183.07 170.68 183.80 Z M 171.32 184.41 L 171.92 184.99 C 172.67 185.71 173.86 185.69 174.59 184.94 C 175.31 184.19 175.28 182.99 174.53 182.27 L 173.93 181.69 C 173.18 180.97 171.99 180.99 171.26 181.74 C 170.54 182.50 170.56 183.69 171.32 184.41 Z M 171.93 185.00 L 172.56 185.60 C 173.32 186.32 174.51 186.29 175.23 185.53 C 175.95 184.78 175.92 183.58 175.16 182.86 L 174.52 182.26 C 173.77 181.54 172.57 181.58 171.86 182.33 C 171.14 183.09 171.17 184.28 171.93 185.00 Z M 172.57 185.61 L 173.26 186.25 C 174.02 186.97 175.22 186.93 175.93 186.16 C 176.64 185.40 176.60 184.21 175.84 183.50 L 175.15 182.86 C 174.39 182.15 173.20 182.19 172.48 182.95 C 171.77 183.71 171.81 184.90 172.57 185.61 Z M 173.27 186.26 L 174.03 186.96 C 174.79 187.66 175.99 187.62 176.69 186.85 C 177.40 186.08 177.35 184.89 176.58 184.19 L 175.83 183.49 C 175.06 182.79 173.87 182.83 173.16 183.60 C 172.46 184.37 172.51 185.56 173.27 186.26 Z M 174.04 186.97 L 174.88 187.73 C 175.65 188.43 176.84 188.37 177.54 187.60 C 178.24 186.83 178.18 185.64 177.41 184.94 L 176.57 184.18 C 175.80 183.48 174.61 183.54 173.91 184.31 C 173.21 185.08 173.27 186.27 174.04 186.97 Z M 174.89 187.74 L 175.82 188.58 C 176.60 189.27 177.79 189.20 178.48 188.43 C 179.18 187.66 179.11 186.47 178.34 185.77 L 177.40 184.93 C 176.63 184.24 175.44 184.30 174.74 185.08 C 174.05 185.85 174.11 187.04 174.89 187.74 Z M 175.83 188.58 L 176.56 189.23 C 177.34 189.92 178.53 189.85 179.22 189.07 C 179.91 188.29 179.84 187.10 179.06 186.41 L 178.33 185.77 C 177.55 185.08 176.36 185.15 175.67 185.92 C 174.98 186.70 175.05 187.89 175.83 188.58 Z M 176.57 189.23 L 177.28 189.86 C 178.06 190.55 179.25 190.47 179.93 189.69 C 180.62 188.91 180.54 187.72 179.77 187.04 L 179.05 186.41 C 178.28 185.72 177.09 185.80 176.40 186.58 C 175.71 187.36 175.79 188.55 176.57 189.23 Z M 177.28 189.86 L 178.03 190.51 C 178.81 191.20 179.99 191.12 180.68 190.34 C 181.36 189.56 181.29 188.37 180.51 187.69 L 179.76 187.03 C 178.98 186.35 177.79 186.43 177.11 187.21 C 176.42 187.99 176.50 189.18 177.28 189.86 Z M 178.03 190.51 L 178.80 191.19 C 179.58 191.87 180.77 191.79 181.45 191.01 C 182.13 190.23 182.05 189.04 181.27 188.36 L 180.50 187.69 C 179.72 187.00 178.53 187.08 177.85 187.86 C 177.17 188.65 177.25 189.83 178.03 190.51 Z M 178.80 191.19 L 179.59 191.87 C 180.37 192.55 181.55 192.47 182.24 191.69 C 182.92 190.91 182.83 189.72 182.05 189.04 L 181.27 188.36 C 180.49 187.68 179.30 187.76 178.62 188.54 C 177.94 189.32 178.02 190.51 178.80 191.19 Z M 179.59 191.87 L 180.38 192.56 C 181.16 193.24 182.35 193.16 183.03 192.38 C 183.71 191.59 183.63 190.41 182.84 189.73 L 182.05 189.04 C 181.27 188.36 180.08 188.44 179.40 189.23 C 178.72 190.01 178.81 191.19 179.59 191.87 Z M 180.38 192.56 L 181.18 193.25 C 181.96 193.93 183.14 193.85 183.82 193.06 C 184.50 192.28 184.42 191.10 183.63 190.42 L 182.84 189.73 C 182.06 189.05 180.88 189.13 180.20 189.92 C 179.52 190.70 179.60 191.88 180.38 192.56 Z M 181.18 193.25 L 181.96 193.93 C 182.74 194.61 183.93 194.52 184.61 193.74 C 185.28 192.96 185.20 191.77 184.42 191.10 L 183.63 190.42 C 182.85 189.74 181.67 189.82 180.99 190.61 C 180.31 191.39 180.40 192.57 181.18 193.25 Z M 181.96 193.93 L 182.73 194.59 C 183.51 195.27 184.70 195.19 185.37 194.40 C 186.05 193.62 185.96 192.44 185.18 191.76 L 184.42 191.10 C 183.63 190.42 182.45 190.51 181.77 191.29 C 181.10 192.07 181.18 193.25 181.96 193.93 Z M 182.73 194.59 L 183.47 195.23 C 184.25 195.91 185.44 195.83 186.11 195.04 C 186.79 194.26 186.70 193.08 185.92 192.40 L 185.18 191.76 C 184.40 191.08 183.22 191.17 182.54 191.95 C 181.86 192.73 181.95 193.92 182.73 194.59 Z M 183.47 195.23 L 184.23 195.89 C 185.02 196.57 186.20 196.48 186.87 195.70 C 187.55 194.92 187.46 193.74 186.68 193.06 L 185.92 192.40 C 185.14 191.73 183.96 191.81 183.28 192.59 C 182.61 193.38 182.69 194.56 183.47 195.23 Z M 184.24 195.89 L 185.16 196.69 C 185.94 197.36 187.12 197.28 187.79 196.50 C 188.47 195.72 188.39 194.54 187.61 193.87 L 186.68 193.07 C 185.90 192.39 184.72 192.48 184.05 193.26 C 183.37 194.03 183.46 195.21 184.24 195.89 Z M 185.16 196.68 L 186.01 197.42 C 186.79 198.10 187.96 198.02 188.64 197.24 C 189.31 196.47 189.23 195.29 188.46 194.62 L 187.61 193.88 C 186.83 193.20 185.65 193.28 184.98 194.06 C 184.31 194.83 184.39 196.01 185.16 196.68 Z M 186.01 197.42 L 186.80 198.11 C 187.57 198.78 188.74 198.71 189.42 197.94 C 190.09 197.17 190.02 195.99 189.25 195.32 L 188.46 194.63 C 187.69 193.95 186.52 194.03 185.84 194.80 C 185.17 195.57 185.24 196.74 186.01 197.42 Z M 186.79 198.09 L 187.53 198.74 C 188.29 199.42 189.46 199.35 190.14 198.59 C 190.81 197.83 190.75 196.66 189.98 195.98 L 189.25 195.33 C 188.49 194.65 187.32 194.72 186.64 195.48 C 185.96 196.25 186.03 197.42 186.79 198.09 Z M 187.52 198.73 L 188.20 199.35 C 188.96 200.03 190.12 199.97 190.80 199.21 C 191.49 198.46 191.43 197.29 190.67 196.61 L 189.99 195.99 C 189.23 195.31 188.07 195.37 187.39 196.13 C 186.70 196.88 186.76 198.05 187.52 198.73 Z M 188.19 199.33 L 188.83 199.92 C 189.58 200.61 190.74 200.56 191.43 199.82 C 192.11 199.07 192.07 197.91 191.32 197.22 L 190.68 196.63 C 189.94 195.94 188.78 195.99 188.09 196.73 C 187.40 197.48 187.44 198.64 188.19 199.33 Z M 188.82 199.90 L 189.42 200.47 C 190.16 201.17 191.32 201.14 192.01 200.41 C 192.71 199.67 192.68 198.51 191.94 197.82 L 191.34 197.24 C 190.60 196.55 189.45 196.58 188.75 197.31 C 188.05 198.04 188.08 199.20 188.82 199.90 Z M 189.40 200.45 L 190.14 201.17 C 190.86 201.88 192.01 201.87 192.72 201.15 C 193.43 200.43 193.42 199.28 192.70 198.57 L 191.97 197.85 C 191.25 197.14 190.09 197.15 189.38 197.87 C 188.68 198.58 188.68 199.74 189.40 200.45 Z M 190.10 201.12 L 190.86 201.93 C 191.55 202.65 192.70 202.68 193.43 201.99 C 194.16 201.30 194.19 200.15 193.50 199.42 L 192.74 198.62 C 192.05 197.89 190.90 197.86 190.17 198.55 C 189.44 199.24 189.41 200.39 190.10 201.12 Z M 190.80 201.85 L 191.47 202.64 C 192.12 203.40 193.27 203.50 194.03 202.85 C 194.79 202.20 194.88 201.06 194.24 200.29 L 193.56 199.50 C 192.91 198.74 191.77 198.64 191.01 199.29 C 190.24 199.94 190.15 201.08 190.80 201.85 Z M 191.39 202.52 L 191.95 203.31 C 192.54 204.12 193.66 204.30 194.47 203.72 C 195.28 203.14 195.47 202.01 194.89 201.20 L 194.32 200.41 C 193.74 199.60 192.61 199.42 191.80 200.00 C 190.99 200.58 190.81 201.71 191.39 202.52 Z M 191.85 203.13 L 192.28 203.91 C 192.76 204.77 193.86 205.09 194.73 204.61 C 195.59 204.12 195.91 203.03 195.43 202.16 L 194.99 201.38 C 194.51 200.51 193.42 200.20 192.55 200.68 C 191.68 201.16 191.36 202.26 191.85 203.13 Z M 192.16 203.62 L 192.45 204.47 C 192.78 205.40 193.80 205.90 194.73 205.58 C 195.67 205.25 196.16 204.23 195.84 203.29 L 195.55 202.45 C 195.22 201.51 194.20 201.01 193.27 201.34 C 192.33 201.66 191.83 202.68 192.16 203.62 Z M 192.37 204.07 L 192.48 205.06 C 192.58 206.04 193.46 206.75 194.44 206.64 C 195.42 206.53 196.13 205.65 196.03 204.68 L 195.92 203.69 C 195.81 202.71 194.93 202.00 193.95 202.11 C 192.98 202.21 192.27 203.09 192.37 204.07 Z M 192.49 204.71 L 192.40 205.69 C 192.31 206.66 193.03 207.52 194.01 207.61 C 194.98 207.70 195.84 206.98 195.93 206.00 L 196.02 205.03 C 196.11 204.05 195.39 203.19 194.41 203.10 C 193.44 203.01 192.57 203.73 192.49 204.71 Z M 192.44 205.47 L 192.23 206.44 C 192.02 207.39 192.63 208.33 193.58 208.54 C 194.53 208.74 195.47 208.14 195.68 207.19 L 195.89 206.22 C 196.09 205.27 195.49 204.33 194.54 204.12 C 193.59 203.91 192.65 204.52 192.44 205.47 Z M 192.26 206.36 L 192.06 207.08 C 191.81 208.02 192.36 208.98 193.30 209.23 C 194.23 209.49 195.20 208.93 195.45 208.00 L 195.65 207.27 C 195.90 206.34 195.35 205.38 194.41 205.12 C 193.48 204.87 192.51 205.42 192.26 206.36 Z"
      fill="black"
      fill-rule="nonzero" /><path d="M 119.62 176.09 L 118.37 175.64 C 117.44 175.31 116.41 175.79 116.08 176.73 C 115.74 177.66 116.23 178.68 117.16 179.02 L 118.41 179.46 C 119.34 179.80 120.37 179.31 120.70 178.38 C 121.03 177.45 120.55 176.42 119.62 176.09 Z M 118.36 175.62 L 117.16 175.19 C 116.21 174.86 115.17 175.36 114.84 176.31 C 114.51 177.25 115.01 178.29 115.96 178.62 L 117.17 179.04 C 118.11 179.37 119.15 178.88 119.48 177.93 C 119.81 176.98 119.31 175.95 118.36 175.62 Z M 117.14 175.16 L 116.00 174.79 C 115.04 174.47 114.00 174.99 113.68 175.95 C 113.36 176.91 113.88 177.95 114.84 178.27 L 115.98 178.65 C 116.94 178.97 117.98 178.45 118.30 177.49 C 118.62 176.52 118.10 175.48 117.14 175.16 Z M 115.96 174.75 L 114.94 174.44 C 113.96 174.15 112.92 174.70 112.63 175.69 C 112.33 176.67 112.89 177.71 113.87 178.00 L 114.89 178.31 C 115.87 178.61 116.91 178.05 117.21 177.07 C 117.50 176.08 116.94 175.05 115.96 174.75 Z M 114.86 174.40 L 113.99 174.18 C 112.99 173.93 111.97 174.55 111.72 175.56 C 111.47 176.57 112.08 177.59 113.09 177.84 L 113.96 178.05 C 114.96 178.30 115.98 177.69 116.23 176.68 C 116.48 175.67 115.87 174.65 114.86 174.40 Z M 113.82 174.13 L 113.14 174.03 C 112.10 173.88 111.14 174.60 110.98 175.64 C 110.83 176.68 111.55 177.65 112.59 177.80 L 113.27 177.89 C 114.31 178.05 115.28 177.32 115.43 176.28 C 115.58 175.24 114.86 174.28 113.82 174.13 Z M 112.65 174.00 L 112.18 174.05 C 111.12 174.17 110.36 175.12 110.48 176.18 C 110.60 177.24 111.55 178.00 112.61 177.88 L 113.08 177.82 C 114.14 177.71 114.90 176.75 114.78 175.70 C 114.66 174.64 113.71 173.88 112.65 174.00 Z M 110.59 175.26 L 110.43 175.68 C 110.04 176.68 110.53 177.80 111.53 178.19 C 112.52 178.58 113.64 178.08 114.03 177.09 L 114.20 176.67 C 114.58 175.67 114.09 174.55 113.10 174.16 C 112.10 173.78 110.98 174.27 110.59 175.26 Z M 110.51 177.27 L 110.89 178.00 C 111.37 178.95 112.54 179.33 113.49 178.84 C 114.44 178.36 114.81 177.19 114.33 176.24 L 113.95 175.51 C 113.47 174.56 112.30 174.18 111.35 174.67 C 110.40 175.15 110.03 176.32 110.51 177.27 Z M 111.09 178.32 L 111.83 179.25 C 112.49 180.09 113.71 180.23 114.54 179.57 C 115.38 178.90 115.52 177.69 114.86 176.85 L 114.12 175.92 C 113.46 175.09 112.24 174.95 111.41 175.61 C 110.57 176.27 110.43 177.49 111.09 178.32 Z M 111.92 179.35 L 112.82 180.34 C 113.54 181.12 114.76 181.18 115.55 180.46 C 116.33 179.74 116.39 178.52 115.67 177.74 L 114.77 176.75 C 114.05 175.97 112.83 175.91 112.04 176.63 C 111.26 177.35 111.20 178.57 111.92 179.35 Z M 112.86 180.37 L 113.56 181.10 C 114.30 181.86 115.52 181.88 116.28 181.15 C 117.04 180.41 117.06 179.19 116.33 178.43 L 115.63 177.70 C 114.89 176.94 113.67 176.92 112.91 177.66 C 112.15 178.39 112.13 179.61 112.86 180.37 Z M 113.59 181.11 L 114.29 181.82 C 115.04 182.57 116.24 182.57 116.99 181.83 C 117.74 181.09 117.75 179.88 117.01 179.13 L 116.30 178.42 C 115.56 177.67 114.35 177.67 113.60 178.41 C 112.85 179.15 112.85 180.36 113.59 181.11 Z M 114.31 181.82 L 115.02 182.52 C 115.76 183.26 116.96 183.26 117.70 182.52 C 118.44 181.77 118.44 180.57 117.69 179.83 L 116.99 179.13 C 116.24 178.39 115.04 178.40 114.31 179.14 C 113.57 179.88 113.57 181.08 114.31 181.82 Z M 115.03 182.51 L 115.74 183.22 C 116.47 183.95 117.67 183.95 118.40 183.21 C 119.13 182.47 119.13 181.28 118.39 180.54 L 117.68 179.84 C 116.95 179.11 115.75 179.11 115.02 179.85 C 114.29 180.59 114.29 181.78 115.03 182.51 Z M 115.74 183.20 L 116.44 183.91 C 117.17 184.64 118.35 184.64 119.09 183.91 C 119.82 183.18 119.82 182.00 119.09 181.27 L 118.39 180.56 C 117.66 179.83 116.48 179.82 115.74 180.55 C 115.01 181.28 115.01 182.47 115.74 183.20 Z M 116.43 183.88 L 117.12 184.59 C 117.84 185.33 119.01 185.34 119.75 184.63 C 120.49 183.91 120.50 182.74 119.79 182.00 L 119.10 181.29 C 118.38 180.55 117.21 180.54 116.47 181.25 C 115.73 181.97 115.72 183.14 116.43 183.88 Z M 117.11 184.56 L 117.79 185.28 C 118.49 186.02 119.66 186.06 120.40 185.36 C 121.14 184.66 121.18 183.49 120.48 182.75 L 119.80 182.03 C 119.10 181.29 117.93 181.25 117.19 181.95 C 116.45 182.65 116.41 183.82 117.11 184.56 Z M 117.78 185.25 L 118.45 185.99 C 119.14 186.73 120.30 186.78 121.05 186.09 C 121.79 185.41 121.84 184.25 121.15 183.50 L 120.48 182.77 C 119.80 182.03 118.64 181.98 117.89 182.66 C 117.15 183.35 117.10 184.51 117.78 185.25 Z M 118.45 185.96 L 119.12 186.70 C 119.79 187.45 120.94 187.52 121.69 186.84 C 122.44 186.17 122.50 185.02 121.83 184.27 L 121.16 183.53 C 120.49 182.78 119.34 182.72 118.59 183.39 C 117.84 184.06 117.78 185.21 118.45 185.96 Z M 119.11 186.68 L 119.78 187.44 C 120.44 188.19 121.58 188.27 122.33 187.61 C 123.08 186.95 123.16 185.81 122.50 185.05 L 121.83 184.30 C 121.17 183.54 120.03 183.47 119.28 184.13 C 118.53 184.79 118.45 185.93 119.11 186.68 Z M 119.78 187.42 L 120.44 188.19 C 121.09 188.94 122.22 189.03 122.97 188.38 C 123.73 187.73 123.81 186.60 123.16 185.85 L 122.50 185.08 C 121.85 184.32 120.72 184.24 119.97 184.88 C 119.21 185.53 119.13 186.67 119.78 187.42 Z M 120.44 188.17 L 121.07 188.92 C 121.71 189.67 122.83 189.76 123.58 189.13 C 124.33 188.49 124.43 187.37 123.79 186.62 L 123.16 185.87 C 122.53 185.12 121.40 185.02 120.65 185.66 C 119.90 186.29 119.80 187.42 120.44 188.17 Z M 121.07 188.89 L 121.70 189.65 C 122.32 190.40 123.44 190.50 124.19 189.88 C 124.94 189.26 125.04 188.14 124.42 187.39 L 123.79 186.64 C 123.17 185.89 122.05 185.78 121.30 186.41 C 120.55 187.03 120.45 188.14 121.07 188.89 Z M 121.70 189.63 L 122.33 190.40 C 122.94 191.15 124.04 191.26 124.79 190.65 C 125.54 190.04 125.65 188.93 125.04 188.18 L 124.42 187.41 C 123.81 186.66 122.70 186.55 121.95 187.16 C 121.20 187.77 121.09 188.88 121.70 189.63 Z M 122.33 190.37 L 122.95 191.16 C 123.55 191.91 124.64 192.03 125.39 191.43 C 126.14 190.83 126.27 189.74 125.67 188.99 L 125.04 188.21 C 124.44 187.46 123.35 187.33 122.60 187.93 C 121.85 188.53 121.73 189.62 122.33 190.37 Z M 122.95 191.13 L 123.58 191.94 C 124.17 192.68 125.25 192.82 126.00 192.23 C 126.75 191.64 126.88 190.56 126.29 189.81 L 125.67 189.01 C 125.08 188.26 124.00 188.13 123.25 188.72 C 122.50 189.30 122.37 190.39 122.95 191.13 Z M 123.58 191.91 L 124.21 192.73 C 124.78 193.48 125.85 193.62 126.60 193.05 C 127.35 192.47 127.49 191.40 126.92 190.65 L 126.29 189.84 C 125.72 189.09 124.65 188.95 123.90 189.52 C 123.15 190.09 123.01 191.16 123.58 191.91 Z M 124.21 192.71 L 124.80 193.50 C 125.37 194.25 126.43 194.40 127.17 193.84 C 127.92 193.28 128.07 192.22 127.51 191.47 L 126.92 190.68 C 126.36 189.93 125.30 189.78 124.55 190.34 C 123.80 190.90 123.65 191.96 124.21 192.71 Z M 124.81 193.48 L 125.40 194.28 C 125.95 195.03 127.00 195.19 127.74 194.64 C 128.49 194.09 128.65 193.04 128.10 192.30 L 127.51 191.49 C 126.96 190.75 125.91 190.59 125.17 191.14 C 124.42 191.68 124.26 192.73 124.81 193.48 Z M 125.40 194.26 L 125.99 195.08 C 126.53 195.82 127.57 195.99 128.31 195.45 C 129.05 194.92 129.22 193.88 128.68 193.13 L 128.10 192.32 C 127.56 191.58 126.52 191.41 125.78 191.94 C 125.03 192.48 124.87 193.52 125.40 194.26 Z M 126.00 195.06 L 126.58 195.88 C 127.10 196.62 128.13 196.79 128.87 196.27 C 129.61 195.74 129.79 194.71 129.26 193.97 L 128.68 193.15 C 128.15 192.41 127.13 192.24 126.38 192.76 C 125.64 193.29 125.47 194.32 126.00 195.06 Z M 126.58 195.86 L 127.16 196.68 C 127.68 197.42 128.69 197.60 129.43 197.09 C 130.17 196.57 130.35 195.55 129.83 194.81 L 129.26 193.99 C 128.74 193.25 127.72 193.07 126.99 193.59 C 126.25 194.11 126.07 195.12 126.58 195.86 Z M 127.17 196.67 L 127.73 197.49 C 128.24 198.22 129.25 198.41 129.98 197.90 C 130.71 197.40 130.90 196.39 130.39 195.66 L 129.83 194.83 C 129.32 194.10 128.31 193.91 127.58 194.42 C 126.84 194.93 126.66 195.93 127.17 196.67 Z M 127.74 197.47 L 128.30 198.31 C 128.80 199.04 129.80 199.23 130.53 198.73 C 131.26 198.23 131.45 197.24 130.96 196.51 L 130.39 195.67 C 129.89 194.94 128.89 194.75 128.16 195.25 C 127.43 195.74 127.24 196.74 127.74 197.47 Z M 128.31 198.30 L 128.87 199.14 C 129.36 199.87 130.35 200.06 131.08 199.57 C 131.82 199.08 132.01 198.09 131.52 197.36 L 130.95 196.52 C 130.46 195.79 129.47 195.59 128.74 196.08 C 128.01 196.57 127.82 197.56 128.31 198.30 Z M 128.87 199.13 L 129.43 199.96 C 129.91 200.69 130.90 200.89 131.63 200.41 C 132.36 199.92 132.56 198.93 132.07 198.20 L 131.52 197.37 C 131.03 196.64 130.05 196.44 129.32 196.92 C 128.58 197.41 128.39 198.40 128.87 199.13 Z M 129.43 199.95 L 129.98 200.79 C 130.46 201.52 131.44 201.72 132.17 201.24 C 132.90 200.75 133.10 199.77 132.62 199.04 L 132.07 198.21 C 131.59 197.48 130.61 197.28 129.88 197.76 C 129.15 198.24 128.95 199.22 129.43 199.95 Z M 129.98 200.78 L 130.53 201.61 C 131.00 202.34 131.98 202.54 132.71 202.06 C 133.44 201.59 133.64 200.61 133.16 199.88 L 132.62 199.05 C 132.14 198.32 131.16 198.12 130.44 198.60 C 129.71 199.07 129.50 200.05 129.98 200.78 Z M 130.53 201.60 L 131.07 202.43 C 131.54 203.16 132.52 203.36 133.24 202.89 C 133.97 202.41 134.17 201.44 133.70 200.71 L 133.16 199.89 C 132.68 199.16 131.71 198.96 130.99 199.43 C 130.26 199.90 130.06 200.88 130.53 201.60 Z M 131.07 202.43 L 131.37 202.88 C 131.84 203.61 132.81 203.81 133.54 203.34 C 134.26 202.87 134.47 201.90 133.99 201.17 L 133.70 200.72 C 133.22 199.99 132.25 199.79 131.53 200.26 C 130.81 200.73 130.60 201.70 131.07 202.43 Z"
      fill="black"
      fill-rule="nonzero" /></svg>