<svg xmlns="http://www.w3.org/2000/svg" width="300" height="300" viewBox="0 0 300 300">
<path d="M 96.79 116.85 L 95.64 116.52 C 94.70 116.25 93.72 116.80 93.45 117.74 C 93.18 118.68 93.72 119.67 94.66 119.93 L 95.81 120.26 C 96.76 120.53 97.74 119.99 98.01 119.04 C 98.28 118.10 97.73 117.12 96.79 116.85 Z M 95.60 116.48 L 94.49 116.19 C 93.52 115.94 92.54 116.52 92.29 117.49 C 92.04 118.45 92.62 119.44 93.58 119.69 L 94.70 119.98 C 95.67 120.23 96.65 119.65 96.90 118.68 C 97.15 117.71 96.57 116.73 95.60 116.48 Z M 94.39 116.14 L 93.34 115.93 C 92.34 115.73 91.38 116.38 91.18 117.38 C 90.98 118.37 91.63 119.34 92.63 119.54 L 93.68 119.74 C 94.67 119.94 95.64 119.29 95.84 118.30 C 96.03 117.30 95.39 116.33 94.39 116.14 Z M 93.15 115.87 L 92.20 115.79 C 91.17 115.69 90.26 116.45 90.17 117.48 C 90.08 118.51 90.84 119.42 91.86 119.51 L 92.82 119.59 C 93.84 119.69 94.75 118.93 94.84 117.90 C 94.94 116.87 94.18 115.96 93.15 115.87 Z M 91.85 115.76 L 91.04 115.83 C 89.99 115.93 89.22 116.86 89.32 117.90 C 89.42 118.94 90.34 119.71 91.39 119.62 L 92.21 119.54 C 93.25 119.44 94.02 118.52 93.92 117.47 C 93.83 116.43 92.90 115.66 91.85 115.76 Z M 90.45 115.95 L 89.79 116.23 C 88.81 116.65 88.36 117.79 88.78 118.77 C 89.20 119.75 90.33 120.20 91.31 119.78 L 91.97 119.50 C 92.95 119.08 93.41 117.94 92.99 116.96 C 92.57 115.98 91.43 115.53 90.45 115.95 Z M 89.09 116.72 L 88.59 117.29 C 87.87 118.09 87.95 119.32 88.76 120.04 C 89.56 120.75 90.79 120.67 91.51 119.87 L 92.01 119.30 C 92.72 118.49 92.65 117.26 91.84 116.55 C 91.04 115.83 89.81 115.91 89.09 116.72 Z M 88.22 117.89 L 87.91 118.69 C 87.53 119.70 88.04 120.83 89.05 121.21 C 90.06 121.59 91.19 121.08 91.57 120.07 L 91.88 119.27 C 92.26 118.26 91.75 117.13 90.73 116.75 C 89.72 116.37 88.60 116.88 88.22 117.89 Z M 87.80 119.12 L 87.67 120.10 C 87.52 121.17 88.27 122.16 89.35 122.31 C 90.42 122.45 91.41 121.70 91.55 120.63 L 91.69 119.65 C 91.83 118.57 91.08 117.59 90.01 117.44 C 88.93 117.29 87.95 118.05 87.80 119.12 Z M 87.64 120.37 L 87.65 121.48 C 87.65 122.56 88.53 123.44 89.62 123.44 C 90.70 123.44 91.58 122.55 91.58 121.47 L 91.58 120.36 C 91.57 119.27 90.69 118.40 89.60 118.40 C 88.52 118.40 87.64 119.28 87.64 120.37 Z M 87.65 121.65 L 87.75 122.83 C 87.85 123.91 88.81 124.71 89.90 124.61 C 90.98 124.52 91.78 123.56 91.69 122.47 L 91.58 121.29 C 91.48 120.21 90.52 119.41 89.44 119.51 C 88.35 119.60 87.55 120.56 87.65 121.65 Z M 87.76 122.93 L 87.89 123.82 C 88.04 124.90 89.05 125.65 90.13 125.49 C 91.21 125.34 91.96 124.34 91.80 123.26 L 91.68 122.37 C 91.52 121.29 90.52 120.54 89.44 120.69 C 88.36 120.85 87.61 121.85 87.76 122.93 Z M 87.90 123.88 L 88.04 124.67 C 88.23 125.75 89.26 126.46 90.33 126.27 C 91.41 126.08 92.13 125.05 91.93 123.98 L 91.79 123.19 C 91.60 122.11 90.57 121.40 89.50 121.59 C 88.42 121.78 87.71 122.81 87.90 123.88 Z M 88.05 124.73 L 88.22 125.54 C 88.44 126.61 89.49 127.30 90.56 127.08 C 91.63 126.85 92.32 125.81 92.09 124.74 L 91.92 123.92 C 91.70 122.85 90.65 122.16 89.58 122.39 C 88.51 122.61 87.83 123.66 88.05 124.73 Z M 88.23 125.59 L 88.44 126.46 C 88.68 127.52 89.75 128.18 90.81 127.93 C 91.87 127.68 92.53 126.62 92.28 125.55 L 92.08 124.69 C 91.83 123.63 90.77 122.97 89.71 123.22 C 88.64 123.47 87.98 124.53 88.23 125.59 Z M 88.45 126.49 L 88.68 127.42 C 88.95 128.48 90.03 129.12 91.09 128.85 C 92.14 128.58 92.78 127.50 92.51 126.45 L 92.27 125.52 C 92.00 124.46 90.93 123.82 89.87 124.09 C 88.81 124.36 88.18 125.44 88.45 126.49 Z M 88.69 127.45 L 88.97 128.46 C 89.25 129.51 90.34 130.14 91.39 129.85 C 92.44 129.56 93.06 128.48 92.78 127.43 L 92.50 126.42 C 92.22 125.36 91.13 124.74 90.08 125.03 C 89.03 125.31 88.41 126.40 88.69 127.45 Z M 88.97 128.48 L 89.29 129.59 C 89.58 130.64 90.67 131.25 91.72 130.95 C 92.77 130.66 93.38 129.57 93.08 128.52 L 92.77 127.41 C 92.47 126.36 91.38 125.75 90.33 126.04 C 89.29 126.34 88.68 127.43 88.97 128.48 Z M 89.29 129.60 L 89.64 130.83 C 89.95 131.87 91.04 132.48 92.09 132.17 C 93.14 131.87 93.74 130.78 93.44 129.73 L 93.08 128.50 C 92.78 127.46 91.68 126.85 90.64 127.16 C 89.59 127.46 88.99 128.56 89.29 129.60 Z M 89.65 130.83 L 89.97 131.94 C 90.28 132.99 91.38 133.58 92.42 133.28 C 93.47 132.97 94.06 131.87 93.76 130.83 L 93.43 129.72 C 93.13 128.68 92.03 128.08 90.98 128.39 C 89.94 128.69 89.34 129.79 89.65 130.83 Z M 89.98 131.94 L 90.24 132.84 C 90.55 133.89 91.65 134.48 92.69 134.18 C 93.73 133.87 94.33 132.77 94.02 131.73 L 93.76 130.83 C 93.45 129.78 92.35 129.19 91.31 129.50 C 90.26 129.80 89.67 130.90 89.98 131.94 Z M 90.24 132.84 L 90.52 133.79 C 90.83 134.83 91.93 135.42 92.97 135.11 C 94.01 134.81 94.61 133.71 94.30 132.67 L 94.02 131.73 C 93.71 130.68 92.61 130.09 91.57 130.40 C 90.53 130.71 89.94 131.80 90.24 132.84 Z M 90.53 133.79 L 90.82 134.76 C 91.12 135.80 92.22 136.40 93.26 136.09 C 94.30 135.78 94.89 134.68 94.59 133.64 L 94.30 132.67 C 93.99 131.63 92.89 131.03 91.85 131.34 C 90.81 131.65 90.22 132.75 90.53 133.79 Z M 90.82 134.76 L 91.12 135.76 C 91.42 136.80 92.52 137.40 93.56 137.09 C 94.60 136.78 95.19 135.68 94.88 134.64 L 94.58 133.64 C 94.27 132.60 93.18 132.01 92.14 132.32 C 91.10 132.63 90.51 133.72 90.82 134.76 Z M 91.12 135.76 L 91.42 136.78 C 91.73 137.82 92.82 138.41 93.86 138.10 C 94.90 137.79 95.49 136.70 95.18 135.66 L 94.88 134.64 C 94.57 133.61 93.48 133.01 92.44 133.32 C 91.40 133.63 90.81 134.73 91.12 135.76 Z M 91.42 136.78 L 91.73 137.80 C 92.04 138.84 93.13 139.43 94.16 139.12 C 95.20 138.81 95.79 137.72 95.48 136.69 L 95.18 135.66 C 94.87 134.62 93.78 134.03 92.74 134.34 C 91.70 134.65 91.11 135.74 91.42 136.78 Z M 91.73 137.80 L 92.03 138.82 C 92.34 139.86 93.43 140.45 94.47 140.14 C 95.50 139.83 96.09 138.74 95.78 137.71 L 95.48 136.69 C 95.17 135.65 94.08 135.06 93.05 135.37 C 92.01 135.68 91.42 136.77 91.73 137.80 Z M 92.03 138.82 L 92.33 139.83 C 92.64 140.87 93.73 141.46 94.76 141.15 C 95.80 140.84 96.39 139.76 96.08 138.72 L 95.78 137.71 C 95.48 136.67 94.39 136.08 93.35 136.39 C 92.32 136.70 91.73 137.79 92.03 138.82 Z M 92.34 139.83 L 92.63 140.82 C 92.94 141.86 94.02 142.45 95.06 142.14 C 96.09 141.83 96.68 140.75 96.37 139.71 L 96.08 138.72 C 95.77 137.69 94.69 137.10 93.65 137.40 C 92.62 137.71 92.03 138.80 92.34 139.83 Z M 92.63 140.82 L 92.91 141.78 C 93.22 142.81 94.30 143.41 95.34 143.10 C 96.37 142.80 96.96 141.71 96.66 140.68 L 96.37 139.72 C 96.07 138.68 94.98 138.09 93.95 138.40 C 92.92 138.70 92.33 139.79 92.63 140.82 Z M 92.92 141.78 L 93.19 142.70 C 93.49 143.74 94.57 144.33 95.61 144.02 C 96.64 143.72 97.23 142.64 96.93 141.61 L 96.66 140.68 C 96.35 139.65 95.27 139.06 94.24 139.36 C 93.20 139.66 92.61 140.75 92.92 141.78 Z M 93.19 142.70 L 93.45 143.58 C 93.75 144.61 94.83 145.20 95.86 144.90 C 96.89 144.60 97.48 143.52 97.18 142.49 L 96.93 141.61 C 96.62 140.58 95.54 139.99 94.51 140.29 C 93.48 140.59 92.89 141.67 93.19 142.70 Z M 93.45 143.57 L 93.72 144.53 C 94.02 145.56 95.10 146.15 96.13 145.85 C 97.16 145.56 97.75 144.48 97.46 143.45 L 97.18 142.49 C 96.88 141.46 95.80 140.87 94.77 141.17 C 93.74 141.47 93.15 142.54 93.45 143.57 Z M 93.73 144.52 L 94.08 145.75 C 94.38 146.77 95.44 147.36 96.47 147.07 C 97.49 146.78 98.09 145.71 97.79 144.69 L 97.45 143.46 C 97.15 142.44 96.09 141.84 95.06 142.13 C 94.04 142.43 93.44 143.49 93.73 144.52 Z M 94.10 145.73 L 94.40 146.82 C 94.68 147.84 95.74 148.43 96.75 148.15 C 97.77 147.87 98.37 146.82 98.08 145.80 L 97.78 144.71 C 97.50 143.69 96.44 143.09 95.43 143.38 C 94.41 143.66 93.82 144.71 94.10 145.73 Z M 94.42 146.80 L 94.68 147.79 C 94.95 148.80 95.99 149.39 97.00 149.12 C 98.01 148.85 98.61 147.81 98.34 146.80 L 98.07 145.82 C 97.80 144.81 96.76 144.21 95.75 144.48 C 94.74 144.75 94.14 145.79 94.42 146.80 Z M 94.69 147.77 L 94.93 148.67 C 95.19 149.67 96.21 150.28 97.21 150.02 C 98.21 149.76 98.82 148.73 98.56 147.73 L 98.32 146.83 C 98.06 145.82 97.04 145.22 96.04 145.48 C 95.04 145.74 94.43 146.76 94.69 147.77 Z M 94.94 148.65 L 95.16 149.51 C 95.40 150.50 96.41 151.11 97.40 150.86 C 98.40 150.61 99.00 149.61 98.76 148.61 L 98.54 147.76 C 98.30 146.76 97.29 146.16 96.30 146.40 C 95.30 146.65 94.70 147.65 94.94 148.65 Z M 95.17 149.48 L 95.37 150.32 C 95.60 151.31 96.59 151.92 97.58 151.68 C 98.57 151.45 99.18 150.46 98.94 149.47 L 98.74 148.64 C 98.51 147.65 97.52 147.04 96.53 147.27 C 95.55 147.51 94.93 148.50 95.17 149.48 Z M 95.38 150.30 L 95.57 151.14 C 95.80 152.12 96.77 152.74 97.75 152.51 C 98.73 152.29 99.34 151.32 99.12 150.34 L 98.93 149.49 C 98.70 148.51 97.73 147.90 96.75 148.12 C 95.77 148.35 95.16 149.32 95.38 150.30 Z M 95.59 151.13 L 95.78 152.00 C 95.99 152.97 96.95 153.58 97.92 153.37 C 98.90 153.15 99.51 152.19 99.30 151.22 L 99.11 150.35 C 98.89 149.38 97.93 148.77 96.96 148.98 C 95.99 149.20 95.37 150.16 95.59 151.13 Z M 95.79 151.98 L 95.98 152.87 C 96.18 153.84 97.14 154.45 98.10 154.25 C 99.07 154.04 99.69 153.09 99.48 152.12 L 99.29 151.23 C 99.08 150.27 98.13 149.65 97.16 149.86 C 96.19 150.06 95.58 151.02 95.79 151.98 Z M 95.98 152.86 L 96.17 153.79 C 96.37 154.76 97.32 155.38 98.29 155.17 C 99.25 154.97 99.87 154.03 99.67 153.06 L 99.48 152.13 C 99.27 151.17 98.33 150.55 97.36 150.75 C 96.40 150.95 95.78 151.90 95.98 152.86 Z M 96.18 153.78 L 96.37 154.75 C 96.57 155.71 97.51 156.33 98.47 156.14 C 99.44 155.94 100.06 155.00 99.86 154.04 L 99.67 153.07 C 99.47 152.11 98.53 151.49 97.57 151.68 C 96.60 151.88 95.98 152.82 96.18 153.78 Z M 96.38 154.74 L 96.57 155.73 C 96.76 156.69 97.70 157.32 98.66 157.13 C 99.62 156.94 100.24 156.00 100.05 155.04 L 99.86 154.05 C 99.67 153.09 98.74 152.46 97.77 152.65 C 96.81 152.84 96.19 153.77 96.38 154.74 Z M 96.58 155.72 L 96.77 156.73 C 96.95 157.69 97.88 158.32 98.84 158.14 C 99.80 157.95 100.43 157.03 100.25 156.07 L 100.05 155.05 C 99.87 154.09 98.94 153.46 97.98 153.65 C 97.02 153.83 96.39 154.76 96.58 155.72 Z M 96.77 156.72 L 96.96 157.75 C 97.14 158.71 98.06 159.34 99.02 159.16 C 99.98 158.99 100.61 158.07 100.43 157.11 L 100.24 156.08 C 100.07 155.12 99.14 154.49 98.19 154.66 C 97.23 154.84 96.60 155.76 96.77 156.72 Z M 96.97 157.74 L 97.15 158.77 C 97.32 159.73 98.23 160.37 99.19 160.20 C 100.15 160.03 100.78 159.11 100.61 158.16 L 100.43 157.12 C 100.26 156.16 99.35 155.53 98.39 155.70 C 97.43 155.87 96.80 156.78 96.97 157.74 Z M 97.15 158.76 L 97.33 159.80 C 97.49 160.75 98.40 161.39 99.35 161.23 C 100.31 161.07 100.95 160.16 100.79 159.21 L 100.61 158.17 C 100.45 157.22 99.54 156.57 98.59 156.74 C 97.63 156.90 96.99 157.80 97.15 158.76 Z M 97.34 159.78 L 97.50 160.80 C 97.66 161.75 98.55 162.40 99.50 162.24 C 100.46 162.09 101.10 161.19 100.95 160.24 L 100.78 159.22 C 100.63 158.27 99.73 157.62 98.78 157.78 C 97.83 157.93 97.18 158.83 97.34 159.78 Z M 97.51 160.78 L 97.67 161.80 C 97.82 162.74 98.70 163.39 99.65 163.24 C 100.59 163.10 101.24 162.21 101.09 161.27 L 100.94 160.25 C 100.79 159.31 99.91 158.66 98.96 158.81 C 98.01 158.95 97.37 159.84 97.51 160.78 Z M 97.68 161.78 L 97.83 162.79 C 97.97 163.73 98.84 164.38 99.78 164.24 C 100.72 164.10 101.37 163.22 101.23 162.28 L 101.08 161.28 C 100.95 160.34 100.07 159.69 99.13 159.83 C 98.19 159.97 97.54 160.84 97.68 161.78 Z M 97.84 162.77 L 97.98 163.77 C 98.11 164.70 98.97 165.36 99.91 165.22 C 100.84 165.09 101.49 164.23 101.36 163.29 L 101.22 162.30 C 101.09 161.36 100.23 160.71 99.29 160.84 C 98.36 160.97 97.71 161.84 97.84 162.77 Z M 97.99 163.76 L 98.12 164.75 C 98.24 165.67 99.10 166.33 100.03 166.20 C 100.95 166.08 101.61 165.23 101.48 164.30 L 101.35 163.31 C 101.23 162.38 100.37 161.73 99.44 161.85 C 98.52 161.97 97.86 162.83 97.99 163.76 Z M 98.13 164.73 L 98.25 165.71 C 98.37 166.64 99.21 167.29 100.14 167.17 C 101.06 167.06 101.71 166.21 101.60 165.29 L 101.47 164.31 C 101.36 163.39 100.51 162.73 99.59 162.85 C 98.67 162.97 98.01 163.81 98.13 164.73 Z M 98.26 165.70 L 98.38 166.68 C 98.49 167.59 99.33 168.25 100.24 168.14 C 101.16 168.03 101.81 167.19 101.70 166.28 L 101.59 165.30 C 101.48 164.38 100.64 163.73 99.73 163.84 C 98.81 163.95 98.15 164.79 98.26 165.70 Z M 98.39 166.67 L 98.50 167.63 C 98.61 168.54 99.43 169.20 100.34 169.09 C 101.25 168.99 101.91 168.16 101.80 167.25 L 101.69 166.29 C 101.59 165.37 100.77 164.72 99.85 164.83 C 98.94 164.93 98.29 165.75 98.39 166.67 Z M 98.51 167.62 L 98.62 168.65 C 98.72 169.55 99.54 170.21 100.44 170.11 C 101.35 170.01 102.00 169.19 101.91 168.29 L 101.79 167.26 C 101.70 166.36 100.88 165.70 99.97 165.80 C 99.07 165.90 98.41 166.71 98.51 167.62 Z M 98.63 168.63 L 98.74 169.70 C 98.84 170.60 99.64 171.26 100.54 171.16 C 101.44 171.07 102.10 170.27 102.01 169.36 L 101.90 168.30 C 101.80 167.40 101.00 166.74 100.10 166.84 C 99.20 166.93 98.54 167.73 98.63 168.63 Z M 98.75 169.69 L 98.85 170.73 C 98.94 171.63 99.74 172.29 100.63 172.20 C 101.53 172.11 102.18 171.32 102.10 170.42 L 102.00 169.38 C 101.91 168.48 101.11 167.82 100.22 167.91 C 99.32 168.00 98.67 168.79 98.75 169.69 Z M 98.86 170.72 L 98.95 171.74 C 99.03 172.64 99.82 173.29 100.71 173.21 C 101.60 173.14 102.26 172.35 102.18 171.46 L 102.09 170.43 C 102.01 169.54 101.22 168.88 100.33 168.96 C 99.44 169.04 98.78 169.83 98.86 170.72 Z M 98.96 171.73 L 99.04 172.73 C 99.12 173.61 99.89 174.27 100.78 174.20 C 101.67 174.13 102.33 173.35 102.25 172.46 L 102.17 171.47 C 102.10 170.58 101.32 169.92 100.44 170.00 C 99.55 170.07 98.89 170.85 98.96 171.73 Z M 99.05 172.71 L 99.12 173.68 C 99.19 174.56 99.96 175.22 100.84 175.16 C 101.72 175.09 102.38 174.32 102.32 173.44 L 102.24 172.48 C 102.18 171.60 101.41 170.93 100.53 171.00 C 99.65 171.06 98.99 171.83 99.05 172.71 Z M 99.13 173.66 L 99.19 174.59 C 99.25 175.47 100.01 176.13 100.88 176.08 C 101.76 176.02 102.42 175.26 102.37 174.39 L 102.31 173.46 C 102.25 172.58 101.49 171.92 100.62 171.97 C 99.74 172.03 99.07 172.79 99.13 173.66 Z M 99.20 174.58 L 99.25 175.50 C 99.30 176.37 100.04 177.04 100.92 176.99 C 101.79 176.95 102.46 176.20 102.41 175.33 L 102.36 174.40 C 102.31 173.53 101.57 172.86 100.69 172.91 C 99.82 172.96 99.15 173.70 99.20 174.58 Z M 99.26 175.48 L 99.30 176.58 C 99.34 177.45 100.07 178.12 100.94 178.09 C 101.81 178.05 102.49 177.31 102.45 176.44 L 102.40 175.35 C 102.37 174.48 101.63 173.80 100.76 173.84 C 99.89 173.88 99.22 174.61 99.26 175.48 Z M 99.30 176.56 L 99.33 177.59 C 99.36 178.46 100.08 179.15 100.95 179.12 C 101.82 179.10 102.50 178.37 102.48 177.50 L 102.45 176.47 C 102.42 175.60 101.70 174.91 100.83 174.94 C 99.96 174.96 99.28 175.69 99.30 176.56 Z M 99.34 177.58 L 99.35 178.57 C 99.37 179.43 100.08 180.12 100.95 180.11 C 101.82 180.09 102.51 179.38 102.49 178.51 L 102.48 177.52 C 102.46 176.65 101.75 175.96 100.88 175.98 C 100.01 175.99 99.32 176.71 99.34 177.58 Z M 99.36 178.55 L 99.36 179.51 C 99.37 180.37 100.08 181.07 100.94 181.06 C 101.81 181.06 102.50 180.35 102.50 179.48 L 102.49 178.53 C 102.48 177.66 101.78 176.97 100.91 176.97 C 100.04 176.98 99.35 177.69 99.36 178.55 Z M 99.37 179.50 L 99.37 180.44 C 99.37 181.30 100.07 182.00 100.94 182.00 C 101.80 181.99 102.50 181.29 102.50 180.43 L 102.49 179.49 C 102.49 178.63 101.79 177.93 100.93 177.93 C 100.06 177.93 99.36 178.64 99.37 179.50 Z M 99.37 180.43 L 99.37 180.96 C 99.37 181.82 100.07 182.52 100.93 182.52 C 101.80 182.52 102.49 181.82 102.49 180.95 L 102.49 180.43 C 102.49 179.57 101.79 178.87 100.93 178.87 C 100.07 178.87 99.37 179.57 99.37 180.43 Z"
      fill="black"
      fill-rule="nonzero" /><path d="M 120.22 129.25 L 120.92 128.56 C 121.59 127.89 121.59 126.80 120.92 126.13 C 120.25 125.46 119.17 125.46 118.50 126.13 L 117.80 126.82 C 117.13 127.49 117.13 128.58 117.80 129.25 C 118.47 129.92 119.55 129.92 120.22 129.25 Z M 120.92 128.57 L 121.62 127.88 C 122.30 127.21 122.31 126.12 121.64 125.44 C 120.97 124.76 119.87 124.75 119.20 125.42 L 118.49 126.11 C 117.81 126.78 117.81 127.88 118.48 128.56 C 119.15 129.24 120.24 129.24 120.92 128.57 Z M 121.62 127.91 L 122.33 127.22 C 123.02 126.55 123.04 125.45 122.37 124.76 C 121.71 124.06 120.61 124.04 119.91 124.71 L 119.20 125.40 C 118.51 126.07 118.49 127.17 119.16 127.86 C 119.82 128.55 120.92 128.57 121.62 127.91 Z M 122.32 127.25 L 123.05 126.57 C 123.76 125.91 123.80 124.80 123.14 124.09 C 122.48 123.38 121.37 123.34 120.66 124.00 L 119.93 124.68 C 119.22 125.34 119.18 126.45 119.84 127.16 C 120.50 127.87 121.61 127.91 122.32 127.25 Z M 123.03 126.60 L 123.78 125.93 C 124.51 125.28 124.58 124.16 123.93 123.43 C 123.28 122.70 122.16 122.64 121.43 123.29 L 120.68 123.96 C 119.95 124.61 119.88 125.73 120.53 126.46 C 121.18 127.19 122.30 127.25 123.03 126.60 Z M 123.76 125.97 L 124.54 125.31 C 125.29 124.67 125.39 123.55 124.75 122.80 C 124.12 122.05 123.00 121.95 122.24 122.59 L 121.46 123.25 C 120.71 123.88 120.61 125.01 121.25 125.76 C 121.88 126.51 123.01 126.60 123.76 125.97 Z M 124.51 125.35 L 125.20 124.80 C 125.97 124.18 126.10 123.06 125.48 122.28 C 124.86 121.51 123.73 121.38 122.96 122.00 L 122.28 122.55 C 121.50 123.16 121.38 124.29 121.99 125.06 C 122.61 125.84 123.74 125.96 124.51 125.35 Z M 125.16 124.84 L 125.87 124.30 C 126.67 123.70 126.83 122.58 126.23 121.78 C 125.63 120.99 124.51 120.83 123.71 121.42 L 123.00 121.96 C 122.20 122.56 122.04 123.69 122.64 124.48 C 123.24 125.28 124.37 125.44 125.16 124.84 Z M 125.84 124.34 L 126.59 123.81 C 127.41 123.23 127.60 122.10 127.03 121.29 C 126.45 120.47 125.32 120.27 124.51 120.85 L 123.75 121.38 C 122.93 121.96 122.74 123.09 123.31 123.91 C 123.89 124.72 125.02 124.92 125.84 124.34 Z M 126.55 123.85 L 127.36 123.31 C 128.20 122.76 128.43 121.63 127.88 120.79 C 127.32 119.95 126.19 119.72 125.36 120.28 L 124.55 120.81 C 123.71 121.36 123.48 122.49 124.03 123.33 C 124.58 124.17 125.71 124.40 126.55 123.85 Z M 127.32 123.35 L 128.19 122.81 C 129.05 122.28 129.32 121.16 128.79 120.30 C 128.25 119.44 127.13 119.17 126.27 119.70 L 125.40 120.24 C 124.54 120.77 124.27 121.90 124.80 122.75 C 125.33 123.61 126.46 123.88 127.32 123.35 Z M 128.15 122.85 L 129.09 122.31 C 129.97 121.80 130.27 120.67 129.76 119.80 C 129.25 118.92 128.13 118.61 127.25 119.12 L 126.31 119.67 C 125.43 120.17 125.13 121.30 125.64 122.18 C 126.14 123.05 127.27 123.36 128.15 122.85 Z M 129.05 122.34 L 130.07 121.79 C 130.97 121.30 131.30 120.18 130.82 119.28 C 130.33 118.39 129.21 118.05 128.31 118.54 L 127.29 119.09 C 126.39 119.57 126.06 120.70 126.55 121.59 C 127.03 122.49 128.15 122.82 129.05 122.34 Z M 130.03 121.81 L 130.93 121.35 C 131.84 120.89 132.21 119.77 131.74 118.86 C 131.27 117.95 130.16 117.59 129.25 118.05 L 128.35 118.51 C 127.44 118.98 127.07 120.09 127.54 121.01 C 128.01 121.92 129.12 122.28 130.03 121.81 Z M 130.90 121.37 L 131.76 120.95 C 132.68 120.50 133.06 119.39 132.61 118.47 C 132.16 117.55 131.05 117.17 130.13 117.62 L 129.27 118.03 C 128.35 118.49 127.97 119.60 128.42 120.52 C 128.87 121.44 129.98 121.82 130.90 121.37 Z M 131.74 120.97 L 132.63 120.55 C 133.56 120.11 133.96 119.00 133.52 118.07 C 133.08 117.14 131.97 116.75 131.04 117.18 L 130.15 117.60 C 129.22 118.04 128.82 119.15 129.26 120.08 C 129.70 121.01 130.81 121.41 131.74 120.97 Z M 132.61 120.56 L 133.53 120.14 C 134.46 119.72 134.88 118.61 134.45 117.68 C 134.02 116.74 132.92 116.33 131.98 116.75 L 131.06 117.17 C 130.13 117.60 129.71 118.70 130.14 119.64 C 130.57 120.57 131.67 120.99 132.61 120.56 Z M 133.51 120.15 L 134.45 119.74 C 135.39 119.32 135.82 118.22 135.40 117.28 C 134.98 116.34 133.88 115.91 132.94 116.33 L 132.00 116.74 C 131.06 117.16 130.63 118.26 131.05 119.20 C 131.46 120.14 132.56 120.57 133.51 120.15 Z M 134.43 119.75 L 135.38 119.34 C 136.33 118.94 136.77 117.84 136.36 116.89 C 135.96 115.94 134.86 115.50 133.91 115.91 L 132.96 116.32 C 132.01 116.72 131.57 117.82 131.98 118.77 C 132.38 119.72 133.48 120.16 134.43 119.75 Z M 135.36 119.35 L 136.32 118.96 C 137.27 118.56 137.72 117.46 137.33 116.51 C 136.93 115.56 135.84 115.11 134.88 115.50 L 133.93 115.90 C 132.97 116.30 132.52 117.39 132.92 118.34 C 133.31 119.30 134.41 119.75 135.36 119.35 Z M 136.30 118.97 L 137.25 118.58 C 138.21 118.19 138.68 117.10 138.29 116.14 C 137.90 115.18 136.81 114.72 135.85 115.11 L 134.90 115.49 C 133.94 115.88 133.48 116.97 133.86 117.93 C 134.25 118.89 135.34 119.35 136.30 118.97 Z M 137.24 118.59 L 138.18 118.22 C 139.14 117.84 139.62 116.76 139.24 115.79 C 138.86 114.83 137.77 114.35 136.81 114.73 L 135.87 115.10 C 134.91 115.48 134.43 116.56 134.81 117.53 C 135.18 118.49 136.27 118.97 137.24 118.59 Z M 138.16 118.23 L 139.08 117.88 C 140.05 117.51 140.54 116.43 140.17 115.46 C 139.80 114.49 138.72 114.00 137.75 114.37 L 136.83 114.72 C 135.86 115.09 135.37 116.17 135.74 117.14 C 136.11 118.11 137.19 118.60 138.16 118.23 Z M 139.06 117.89 L 140.08 117.52 C 141.06 117.16 141.56 116.08 141.20 115.11 C 140.85 114.13 139.77 113.63 138.79 113.99 L 137.77 114.36 C 136.79 114.72 136.29 115.80 136.65 116.77 C 137.01 117.75 138.08 118.25 139.06 117.89 Z M 140.06 117.53 L 141.08 117.17 C 142.06 116.82 142.58 115.75 142.23 114.77 C 141.89 113.79 140.82 113.28 139.84 113.62 L 138.82 113.98 C 137.84 114.32 137.32 115.40 137.67 116.37 C 138.01 117.35 139.08 117.87 140.06 117.53 Z M 141.06 117.17 L 142.05 116.84 C 143.03 116.51 143.56 115.44 143.23 114.46 C 142.90 113.48 141.83 112.95 140.85 113.28 L 139.86 113.61 C 138.88 113.94 138.35 115.01 138.68 115.99 C 139.01 116.98 140.08 117.51 141.06 117.17 Z M 142.03 116.85 L 142.99 116.54 C 143.98 116.22 144.52 115.16 144.20 114.17 C 143.88 113.18 142.82 112.64 141.83 112.96 L 140.87 113.27 C 139.88 113.59 139.34 114.65 139.66 115.64 C 139.98 116.63 141.04 117.17 142.03 116.85 Z M 142.97 116.54 L 143.91 116.25 C 144.90 115.94 145.45 114.89 145.14 113.90 C 144.83 112.91 143.78 112.35 142.79 112.66 L 141.85 112.96 C 140.86 113.27 140.31 114.32 140.62 115.31 C 140.92 116.30 141.98 116.85 142.97 116.54 Z M 143.89 116.26 L 144.81 115.98 C 145.80 115.68 146.36 114.63 146.06 113.64 C 145.76 112.64 144.71 112.08 143.72 112.38 L 142.80 112.66 C 141.81 112.96 141.25 114.01 141.55 115.00 C 141.85 115.99 142.90 116.56 143.89 116.26 Z M 144.79 115.98 L 145.69 115.72 C 146.69 115.43 147.26 114.38 146.97 113.39 C 146.68 112.39 145.63 111.82 144.64 112.11 L 143.73 112.38 C 142.74 112.67 142.17 113.71 142.46 114.71 C 142.75 115.71 143.80 116.28 144.79 115.98 Z M 145.68 115.72 L 146.58 115.47 C 147.57 115.18 148.15 114.14 147.86 113.14 C 147.58 112.14 146.54 111.57 145.54 111.85 L 144.65 112.11 C 143.65 112.40 143.07 113.44 143.36 114.44 C 143.65 115.43 144.69 116.01 145.68 115.72 Z M 146.57 115.47 L 147.51 115.20 C 148.51 114.92 149.09 113.88 148.81 112.88 C 148.52 111.88 147.48 111.30 146.49 111.58 L 145.54 111.85 C 144.55 112.13 143.97 113.17 144.25 114.17 C 144.53 115.17 145.57 115.75 146.57 115.47 Z M 147.50 115.20 L 148.50 114.92 C 149.50 114.64 150.08 113.61 149.80 112.61 C 149.53 111.61 148.49 111.03 147.49 111.31 L 146.49 111.58 C 145.49 111.86 144.91 112.90 145.19 113.90 C 145.47 114.90 146.51 115.48 147.50 115.20 Z M 148.49 114.92 L 149.48 114.65 C 150.48 114.38 151.07 113.35 150.80 112.35 C 150.52 111.35 149.49 110.76 148.49 111.03 L 147.50 111.30 C 146.50 111.58 145.92 112.61 146.19 113.61 C 146.46 114.61 147.49 115.19 148.49 114.92 Z M 149.47 114.65 L 150.45 114.39 C 151.45 114.13 152.05 113.10 151.78 112.10 C 151.52 111.10 150.49 110.51 149.49 110.77 L 148.51 111.03 C 147.51 111.30 146.91 112.32 147.18 113.32 C 147.44 114.32 148.47 114.92 149.47 114.65 Z M 150.43 114.39 L 151.40 114.15 C 152.40 113.89 153.01 112.87 152.76 111.87 C 152.50 110.87 151.48 110.27 150.48 110.52 L 149.51 110.77 C 148.51 111.02 147.90 112.04 148.16 113.04 C 148.41 114.04 149.43 114.65 150.43 114.39 Z M 151.38 114.15 L 152.34 113.92 C 153.34 113.68 153.96 112.67 153.72 111.67 C 153.47 110.66 152.46 110.05 151.46 110.29 L 150.50 110.52 C 149.50 110.76 148.88 111.77 149.13 112.77 C 149.37 113.78 150.38 114.39 151.38 114.15 Z M 152.31 113.93 L 153.25 113.71 C 154.25 113.49 154.89 112.49 154.66 111.48 C 154.43 110.48 153.44 109.85 152.43 110.07 L 151.49 110.28 C 150.48 110.51 149.85 111.51 150.08 112.51 C 150.30 113.52 151.30 114.15 152.31 113.93 Z M 153.21 113.72 L 154.15 113.53 C 155.16 113.32 155.81 112.34 155.60 111.33 C 155.40 110.32 154.41 109.67 153.40 109.87 L 152.46 110.07 C 151.46 110.27 150.81 111.26 151.01 112.27 C 151.22 113.28 152.20 113.93 153.21 113.72 Z M 154.11 113.53 L 155.14 113.34 C 156.15 113.16 156.82 112.19 156.64 111.18 C 156.46 110.17 155.49 109.50 154.48 109.68 L 153.44 109.87 C 152.43 110.05 151.76 111.02 151.94 112.03 C 152.13 113.04 153.10 113.71 154.11 113.53 Z M 155.10 113.35 L 156.11 113.19 C 157.12 113.03 157.81 112.08 157.65 111.07 C 157.50 110.06 156.55 109.36 155.53 109.52 L 154.52 109.68 C 153.51 109.84 152.82 110.79 152.98 111.80 C 153.13 112.81 154.08 113.50 155.10 113.35 Z M 156.06 113.19 L 157.06 113.06 C 158.07 112.92 158.78 111.99 158.65 110.98 C 158.51 109.97 157.59 109.26 156.57 109.39 L 155.58 109.52 C 154.57 109.66 153.85 110.58 153.99 111.60 C 154.12 112.61 155.05 113.32 156.06 113.19 Z M 157.01 113.06 L 157.99 112.95 C 159.01 112.84 159.74 111.93 159.63 110.92 C 159.52 109.91 158.61 109.17 157.59 109.28 L 156.61 109.39 C 155.60 109.50 154.87 110.41 154.98 111.42 C 155.09 112.44 156.00 113.17 157.01 113.06 Z M 157.95 112.95 L 158.92 112.86 C 159.94 112.78 160.68 111.88 160.60 110.87 C 160.51 109.86 159.62 109.11 158.60 109.20 L 157.63 109.29 C 156.62 109.37 155.87 110.27 155.96 111.28 C 156.05 112.29 156.94 113.04 157.95 112.95 Z M 158.89 112.86 L 159.85 112.80 C 160.86 112.73 161.63 111.85 161.56 110.84 C 161.49 109.83 160.62 109.07 159.61 109.14 L 158.64 109.20 C 157.63 109.27 156.87 110.15 156.94 111.16 C 157.00 112.17 157.88 112.93 158.89 112.86 Z M 159.82 112.79 L 160.81 112.74 C 161.81 112.69 162.59 111.83 162.54 110.83 C 162.49 109.82 161.63 109.04 160.62 109.09 L 159.64 109.14 C 158.63 109.19 157.85 110.05 157.91 111.06 C 157.96 112.07 158.81 112.84 159.82 112.79 Z M 160.78 112.74 L 161.77 112.70 C 162.77 112.67 163.56 111.83 163.53 110.82 C 163.49 109.82 162.65 109.03 161.65 109.07 L 160.65 109.10 C 159.65 109.13 158.86 109.98 158.90 110.98 C 158.93 111.98 159.77 112.77 160.78 112.74 Z M 161.74 112.69 L 162.74 112.67 C 163.74 112.65 164.54 111.83 164.52 110.83 C 164.49 109.83 163.67 109.03 162.67 109.05 L 161.67 109.07 C 160.67 109.09 159.88 109.92 159.90 110.92 C 159.92 111.92 160.74 112.71 161.74 112.69 Z M 162.72 112.67 L 163.72 112.66 C 164.71 112.65 165.51 111.84 165.51 110.84 C 165.50 109.85 164.68 109.04 163.69 109.05 L 162.69 109.06 C 161.69 109.07 160.89 109.88 160.90 110.88 C 160.91 111.87 161.72 112.67 162.72 112.67 Z M 163.70 112.65 L 164.70 112.65 C 165.69 112.66 166.50 111.85 166.50 110.86 C 166.50 109.87 165.70 109.06 164.71 109.06 L 163.71 109.06 C 162.72 109.06 161.91 109.86 161.91 110.85 C 161.91 111.84 162.71 112.65 163.70 112.65 Z M 164.69 112.65 L 165.69 112.66 C 166.68 112.67 167.49 111.88 167.50 110.89 C 167.51 109.90 166.72 109.09 165.73 109.08 L 164.72 109.07 C 163.74 109.06 162.93 109.85 162.92 110.84 C 162.91 111.83 163.70 112.63 164.69 112.65 Z M 165.68 112.65 L 166.70 112.67 C 167.68 112.68 168.49 111.90 168.51 110.92 C 168.53 109.94 167.74 109.12 166.76 109.11 L 165.74 109.09 C 164.76 109.07 163.95 109.85 163.93 110.84 C 163.91 111.82 164.70 112.63 165.68 112.65 Z M 166.68 112.66 L 167.71 112.68 C 168.68 112.71 169.50 111.94 169.53 110.96 C 169.55 109.98 168.78 109.17 167.80 109.14 L 166.78 109.12 C 165.80 109.09 164.98 109.86 164.96 110.84 C 164.93 111.82 165.70 112.63 166.68 112.66 Z M 167.68 112.67 L 168.70 112.72 C 169.67 112.76 170.49 112.01 170.54 111.04 C 170.58 110.06 169.83 109.24 168.85 109.20 L 167.83 109.15 C 166.86 109.11 166.04 109.86 165.99 110.84 C 165.95 111.81 166.71 112.63 167.68 112.67 Z M 168.65 112.71 L 169.66 112.78 C 170.63 112.84 171.47 112.12 171.53 111.15 C 171.60 110.18 170.87 109.35 169.90 109.28 L 168.90 109.21 C 167.93 109.14 167.09 109.87 167.03 110.84 C 166.96 111.80 167.69 112.64 168.65 112.71 Z M 169.60 112.76 L 170.59 112.87 C 171.55 112.97 172.41 112.27 172.51 111.31 C 172.60 110.35 171.91 109.50 170.95 109.40 L 169.96 109.29 C 169.01 109.20 168.15 109.89 168.05 110.85 C 167.95 111.81 168.65 112.66 169.60 112.76 Z M 170.52 112.85 L 171.47 112.99 C 172.42 113.13 173.30 112.48 173.45 111.53 C 173.59 110.58 172.93 109.70 171.98 109.56 L 171.03 109.42 C 170.08 109.27 169.19 109.93 169.05 110.88 C 168.91 111.82 169.57 112.71 170.52 112.85 Z M 171.38 112.97 L 172.32 113.16 C 173.26 113.35 174.17 112.75 174.36 111.82 C 174.56 110.88 173.96 109.97 173.02 109.78 L 172.08 109.58 C 171.14 109.39 170.23 109.99 170.04 110.92 C 169.84 111.86 170.44 112.77 171.38 112.97 Z M 172.21 113.13 L 173.15 113.39 C 174.07 113.65 175.02 113.11 175.27 112.20 C 175.53 111.28 174.99 110.33 174.08 110.07 L 173.14 109.81 C 172.22 109.55 171.27 110.09 171.01 111.00 C 170.76 111.92 171.29 112.87 172.21 113.13 Z M 173.03 113.35 L 173.94 113.68 C 174.83 114.00 175.82 113.54 176.14 112.65 C 176.47 111.75 176.00 110.76 175.11 110.44 L 174.20 110.11 C 173.30 109.79 172.32 110.25 171.99 111.15 C 171.67 112.04 172.13 113.03 173.03 113.35 Z M 173.82 113.63 L 174.71 114.03 C 175.57 114.42 176.59 114.03 176.98 113.17 C 177.37 112.30 176.98 111.28 176.12 110.89 L 175.23 110.49 C 174.36 110.10 173.34 110.49 172.95 111.36 C 172.56 112.22 172.95 113.24 173.82 113.63 Z M 174.60 113.98 L 175.48 114.45 C 176.32 114.90 177.36 114.59 177.81 113.75 C 178.26 112.91 177.95 111.87 177.11 111.42 L 176.23 110.95 C 175.39 110.50 174.35 110.81 173.90 111.65 C 173.45 112.48 173.76 113.53 174.60 113.98 Z M 175.38 114.39 L 176.27 114.95 C 177.07 115.45 178.13 115.21 178.64 114.40 C 179.14 113.60 178.90 112.54 178.09 112.03 L 177.21 111.48 C 176.40 110.97 175.34 111.22 174.84 112.02 C 174.33 112.83 174.58 113.89 175.38 114.39 Z M 176.19 114.89 L 177.01 115.47 C 177.78 116.02 178.86 115.83 179.40 115.06 C 179.95 114.28 179.77 113.21 178.99 112.66 L 178.17 112.09 C 177.40 111.54 176.32 111.72 175.78 112.50 C 175.23 113.27 175.41 114.35 176.19 114.89 Z M 176.94 115.42 L 177.71 116.02 C 178.46 116.60 179.54 116.47 180.12 115.72 C 180.71 114.97 180.57 113.89 179.82 113.31 L 179.05 112.71 C 178.30 112.13 177.22 112.26 176.64 113.01 C 176.06 113.76 176.19 114.84 176.94 115.42 Z M 177.65 115.97 L 178.41 116.62 C 179.14 117.24 180.22 117.15 180.84 116.43 C 181.45 115.70 181.37 114.62 180.64 114.00 L 179.88 113.35 C 179.16 112.74 178.07 112.83 177.46 113.55 C 176.84 114.27 176.93 115.36 177.65 115.97 Z M 178.36 116.57 L 179.10 117.26 C 179.79 117.91 180.88 117.87 181.53 117.18 C 182.18 116.48 182.14 115.40 181.45 114.75 L 180.70 114.05 C 180.01 113.41 178.92 113.44 178.27 114.14 C 177.62 114.83 177.66 115.92 178.36 116.57 Z M 179.04 117.21 L 179.75 117.94 C 180.41 118.62 181.50 118.64 182.19 117.97 C 182.87 117.31 182.88 116.22 182.22 115.54 L 181.51 114.81 C 180.84 114.12 179.75 114.11 179.07 114.77 C 178.39 115.44 178.38 116.52 179.04 117.21 Z M 179.69 117.87 L 180.36 118.64 C 180.99 119.35 182.07 119.43 182.79 118.80 C 183.50 118.18 183.58 117.09 182.95 116.37 L 182.28 115.61 C 181.66 114.89 180.57 114.82 179.85 115.44 C 179.14 116.07 179.06 117.16 179.69 117.87 Z M 180.29 118.56 L 180.91 119.35 C 181.49 120.11 182.57 120.24 183.32 119.66 C 184.08 119.08 184.21 118.00 183.63 117.24 L 183.02 116.45 C 182.44 115.70 181.35 115.56 180.60 116.14 C 179.85 116.73 179.71 117.81 180.29 118.56 Z M 180.84 119.26 L 181.40 120.10 C 181.93 120.89 183.00 121.10 183.79 120.57 C 184.58 120.04 184.80 118.97 184.26 118.18 L 183.70 117.34 C 183.17 116.55 182.10 116.34 181.31 116.87 C 180.52 117.40 180.31 118.47 180.84 119.26 Z M 181.33 119.99 L 181.83 120.86 C 182.30 121.69 183.36 121.98 184.18 121.51 C 185.01 121.03 185.30 119.98 184.83 119.15 L 184.33 118.28 C 183.86 117.45 182.81 117.16 181.98 117.64 C 181.15 118.11 180.86 119.16 181.33 119.99 Z M 181.77 120.76 L 182.19 121.65 C 182.61 122.51 183.64 122.87 184.51 122.46 C 185.37 122.04 185.73 121.01 185.32 120.15 L 184.89 119.26 C 184.48 118.39 183.44 118.03 182.58 118.44 C 181.72 118.86 181.35 119.89 181.77 120.76 Z M 182.14 121.54 L 182.51 122.46 C 182.87 123.35 183.88 123.78 184.77 123.42 C 185.66 123.07 186.09 122.06 185.73 121.17 L 185.37 120.25 C 185.01 119.36 184.00 118.93 183.11 119.28 C 182.22 119.64 181.79 120.65 182.14 121.54 Z M 182.47 122.36 L 182.78 123.30 C 183.08 124.21 184.06 124.71 184.98 124.41 C 185.89 124.11 186.39 123.12 186.09 122.21 L 185.78 121.27 C 185.47 120.36 184.49 119.86 183.58 120.16 C 182.67 120.46 182.17 121.44 182.47 122.36 Z M 182.75 123.20 L 183.01 124.17 C 183.26 125.11 184.21 125.66 185.14 125.41 C 186.07 125.16 186.63 124.20 186.38 123.27 L 186.12 122.30 C 185.87 121.37 184.91 120.82 183.98 121.07 C 183.05 121.32 182.50 122.27 182.75 123.20 Z M 182.98 124.09 L 183.19 125.07 C 183.40 126.01 184.32 126.62 185.27 126.41 C 186.21 126.21 186.81 125.28 186.61 124.34 L 186.40 123.36 C 186.20 122.41 185.27 121.81 184.33 122.02 C 183.38 122.22 182.78 123.15 182.98 124.09 Z M 183.18 125.00 L 183.33 125.93 C 183.50 126.88 184.40 127.53 185.36 127.36 C 186.31 127.20 186.95 126.29 186.79 125.34 L 186.63 124.41 C 186.46 123.45 185.56 122.81 184.61 122.98 C 183.65 123.14 183.01 124.05 183.18 125.00 Z M 183.32 125.87 L 183.45 126.83 C 183.58 127.79 184.47 128.46 185.43 128.33 C 186.39 128.20 187.06 127.31 186.93 126.35 L 186.80 125.40 C 186.67 124.44 185.78 123.76 184.82 123.90 C 183.86 124.03 183.19 124.91 183.32 125.87 Z M 183.44 126.78 L 183.55 127.75 C 183.65 128.72 184.52 129.42 185.48 129.32 C 186.45 129.21 187.15 128.35 187.05 127.38 L 186.94 126.40 C 186.84 125.44 185.97 124.74 185.01 124.84 C 184.04 124.94 183.34 125.81 183.44 126.78 Z M 183.54 127.71 L 183.62 128.71 C 183.70 129.68 184.55 130.40 185.52 130.32 C 186.49 130.24 187.21 129.39 187.14 128.42 L 187.05 127.42 C 186.97 126.45 186.12 125.73 185.15 125.81 C 184.18 125.89 183.46 126.74 183.54 127.71 Z M 183.62 128.68 L 183.68 129.69 C 183.74 130.67 184.58 131.41 185.55 131.35 C 186.52 131.29 187.26 130.45 187.20 129.48 L 187.14 128.46 C 187.08 127.48 186.24 126.74 185.27 126.80 C 184.30 126.86 183.56 127.70 183.62 128.68 Z M 183.67 129.67 L 183.72 130.70 C 183.77 131.68 184.59 132.44 185.57 132.39 C 186.55 132.35 187.30 131.52 187.26 130.54 L 187.21 129.50 C 187.16 128.53 186.34 127.77 185.36 127.82 C 184.38 127.86 183.63 128.69 183.67 129.67 Z M 183.72 130.68 L 183.75 131.74 C 183.79 132.72 184.61 133.49 185.58 133.45 C 186.56 133.42 187.33 132.60 187.30 131.62 L 187.26 130.56 C 187.23 129.59 186.41 128.82 185.43 128.85 C 184.45 128.88 183.68 129.70 183.72 130.68 Z M 183.75 131.72 L 183.77 132.61 C 183.80 133.59 184.61 134.36 185.59 134.34 C 186.57 134.31 187.35 133.50 187.32 132.52 L 187.30 131.64 C 187.28 130.66 186.46 129.88 185.48 129.90 C 184.50 129.93 183.72 130.74 183.75 131.72 Z M 183.77 132.59 L 183.78 133.48 C 183.80 134.46 184.60 135.24 185.58 135.23 C 186.56 135.22 187.35 134.41 187.34 133.43 L 187.32 132.54 C 187.31 131.56 186.50 130.77 185.52 130.78 C 184.54 130.80 183.76 131.60 183.77 132.59 Z M 183.78 133.45 L 183.78 134.37 C 183.78 135.35 184.57 136.15 185.56 136.15 C 186.54 136.15 187.34 135.35 187.34 134.37 L 187.34 133.45 C 187.34 132.47 186.54 131.68 185.56 131.67 C 184.58 131.67 183.78 132.47 183.78 133.45 Z M 183.78 134.34 L 183.76 135.28 C 183.74 136.26 184.52 137.07 185.51 137.09 C 186.49 137.11 187.30 136.33 187.32 135.35 L 187.34 134.40 C 187.36 133.42 186.57 132.61 185.59 132.59 C 184.61 132.57 183.80 133.35 183.78 134.34 Z M 183.76 135.24 L 183.72 136.22 C 183.68 137.21 184.45 138.03 185.43 138.07 C 186.42 138.11 187.24 137.34 187.28 136.36 L 187.32 135.38 C 187.36 134.40 186.59 133.57 185.61 133.53 C 184.63 133.49 183.80 134.26 183.76 135.24 Z M 183.72 136.18 L 183.66 137.20 C 183.60 138.19 184.35 139.03 185.33 139.09 C 186.31 139.15 187.16 138.40 187.22 137.42 L 187.28 136.40 C 187.34 135.42 186.59 134.57 185.61 134.51 C 184.63 134.45 183.78 135.20 183.72 136.18 Z M 183.66 137.16 L 183.57 138.23 C 183.49 139.21 184.22 140.07 185.20 140.16 C 186.18 140.24 187.04 139.51 187.13 138.53 L 187.22 137.46 C 187.30 136.48 186.57 135.62 185.59 135.53 C 184.61 135.45 183.74 136.18 183.66 137.16 Z M 183.57 138.18 L 183.45 139.30 C 183.34 140.28 184.05 141.17 185.03 141.27 C 186.01 141.38 186.90 140.67 187.00 139.69 L 187.13 138.57 C 187.23 137.59 186.52 136.71 185.54 136.60 C 184.56 136.49 183.68 137.20 183.57 138.18 Z M 183.46 139.26 L 183.30 140.41 C 183.17 141.39 183.86 142.29 184.84 142.42 C 185.81 142.55 186.71 141.87 186.84 140.89 L 187.00 139.73 C 187.13 138.76 186.44 137.86 185.46 137.73 C 184.49 137.59 183.59 138.28 183.46 139.26 Z M 183.31 140.38 L 183.16 141.33 C 183.01 142.30 183.68 143.22 184.65 143.37 C 185.63 143.52 186.54 142.85 186.69 141.87 L 186.84 140.93 C 186.99 139.95 186.32 139.04 185.35 138.88 C 184.37 138.73 183.46 139.40 183.31 140.38 Z M 183.16 141.30 L 183.00 142.28 C 182.83 143.25 183.48 144.17 184.46 144.34 C 185.43 144.51 186.36 143.85 186.52 142.88 L 186.69 141.90 C 186.85 140.93 186.20 140.00 185.23 139.84 C 184.25 139.67 183.33 140.33 183.16 141.30 Z M 183.00 142.25 L 182.82 143.25 C 182.64 144.23 183.28 145.16 184.25 145.34 C 185.22 145.52 186.15 144.87 186.33 143.90 L 186.52 142.90 C 186.70 141.93 186.05 141.00 185.08 140.82 C 184.11 140.64 183.18 141.28 183.00 142.25 Z M 182.82 143.23 L 182.62 144.25 C 182.43 145.22 183.06 146.16 184.03 146.35 C 185.00 146.54 185.94 145.91 186.13 144.94 L 186.33 143.92 C 186.52 142.95 185.89 142.01 184.92 141.82 C 183.95 141.63 183.01 142.27 182.82 143.23 Z M 182.62 144.23 L 182.41 145.26 C 182.22 146.22 182.84 147.17 183.81 147.37 C 184.77 147.57 185.72 146.94 185.92 145.98 L 186.13 144.95 C 186.33 143.99 185.70 143.04 184.74 142.84 C 183.77 142.64 182.82 143.27 182.62 144.23 Z M 182.42 145.24 L 182.20 146.26 C 181.99 147.23 182.61 148.18 183.57 148.39 C 184.54 148.59 185.49 147.98 185.70 147.01 L 185.91 145.99 C 186.12 145.02 185.51 144.07 184.54 143.87 C 183.57 143.66 182.62 144.28 182.42 145.24 Z M 182.20 146.25 L 181.98 147.26 C 181.76 148.23 182.37 149.18 183.34 149.40 C 184.30 149.61 185.26 149.00 185.47 148.04 L 185.69 147.02 C 185.91 146.06 185.30 145.10 184.33 144.89 C 183.37 144.68 182.41 145.29 182.20 146.25 Z M 181.98 147.25 L 181.75 148.25 C 181.53 149.21 182.14 150.17 183.10 150.39 C 184.06 150.61 185.02 150.01 185.24 149.04 L 185.47 148.05 C 185.69 147.08 185.08 146.13 184.12 145.91 C 183.16 145.69 182.20 146.29 181.98 147.25 Z M 181.75 148.24 L 181.53 149.21 C 181.30 150.18 181.90 151.14 182.86 151.36 C 183.82 151.59 184.79 150.99 185.01 150.03 L 185.24 149.05 C 185.46 148.09 184.86 147.13 183.90 146.91 C 182.94 146.68 181.98 147.28 181.75 148.24 Z M 181.53 149.21 L 181.30 150.15 C 181.08 151.11 181.67 152.07 182.63 152.30 C 183.59 152.53 184.56 151.94 184.78 150.98 L 185.01 150.03 C 185.24 149.07 184.64 148.11 183.68 147.88 C 182.72 147.65 181.76 148.25 181.53 149.21 Z M 181.31 150.14 L 181.09 151.05 C 180.86 152.01 181.45 152.97 182.41 153.21 C 183.37 153.44 184.33 152.85 184.56 151.89 L 184.78 150.98 C 185.02 150.02 184.42 149.06 183.46 148.82 C 182.50 148.59 181.54 149.18 181.31 150.14 Z M 181.09 151.04 L 180.83 152.11 C 180.59 153.06 181.18 154.03 182.14 154.27 C 183.10 154.50 184.07 153.92 184.30 152.96 L 184.56 151.89 C 184.80 150.93 184.21 149.97 183.25 149.73 C 182.29 149.50 181.33 150.08 181.09 151.04 Z M 180.83 152.10 L 180.55 153.24 C 180.31 154.20 180.90 155.17 181.85 155.40 C 182.81 155.64 183.78 155.06 184.01 154.10 L 184.30 152.96 C 184.53 152.01 183.95 151.04 183.00 150.80 C 182.04 150.56 181.07 151.15 180.83 152.10 Z M 180.56 153.24 L 180.29 154.30 C 180.05 155.25 180.63 156.22 181.58 156.46 C 182.53 156.70 183.50 156.12 183.74 155.17 L 184.01 154.11 C 184.25 153.16 183.67 152.19 182.72 151.95 C 181.76 151.71 180.80 152.29 180.56 153.24 Z M 180.30 154.29 L 180.04 155.28 C 179.80 156.23 180.37 157.20 181.32 157.44 C 182.27 157.68 183.24 157.11 183.48 156.16 L 183.73 155.17 C 183.98 154.22 183.40 153.26 182.45 153.01 C 181.51 152.77 180.54 153.34 180.30 154.29 Z M 180.05 155.28 L 179.81 156.21 C 179.56 157.15 180.13 158.12 181.08 158.36 C 182.02 158.61 182.99 158.04 183.23 157.10 L 183.47 156.17 C 183.72 155.22 183.15 154.25 182.21 154.01 C 181.26 153.76 180.29 154.33 180.05 155.28 Z M 179.81 156.20 L 179.58 157.09 C 179.33 158.03 179.90 159.00 180.84 159.24 C 181.78 159.49 182.75 158.93 182.99 157.99 L 183.23 157.10 C 183.47 156.16 182.91 155.19 181.97 154.94 C 181.03 154.70 180.06 155.26 179.81 156.20 Z M 179.59 157.09 L 179.36 157.94 C 179.11 158.88 179.67 159.84 180.61 160.09 C 181.55 160.34 182.51 159.78 182.76 158.84 L 182.99 157.99 C 183.24 157.05 182.68 156.09 181.74 155.84 C 180.80 155.59 179.84 156.15 179.59 157.09 Z M 179.37 157.94 L 179.14 158.78 C 178.89 159.71 179.45 160.67 180.39 160.92 C 181.32 161.17 182.29 160.62 182.53 159.68 L 182.76 158.84 C 183.01 157.91 182.45 156.95 181.51 156.70 C 180.58 156.45 179.61 157.00 179.37 157.94 Z M 179.15 158.78 L 178.92 159.64 C 178.67 160.58 179.22 161.54 180.16 161.78 C 181.09 162.03 182.05 161.48 182.30 160.54 L 182.53 159.68 C 182.78 158.75 182.22 157.79 181.29 157.54 C 180.36 157.29 179.40 157.84 179.15 158.78 Z M 178.92 159.64 L 178.68 160.54 C 178.44 161.47 178.99 162.42 179.92 162.67 C 180.85 162.92 181.80 162.37 182.05 161.44 L 182.29 160.54 C 182.54 159.61 181.99 158.66 181.06 158.41 C 180.13 158.16 179.17 158.71 178.92 159.64 Z M 178.69 160.54 L 178.45 161.44 C 178.20 162.37 178.75 163.32 179.67 163.57 C 180.60 163.82 181.55 163.27 181.80 162.35 L 182.05 161.44 C 182.30 160.51 181.75 159.56 180.82 159.31 C 179.89 159.06 178.94 159.61 178.69 160.54 Z M 178.45 161.44 L 178.20 162.37 C 177.95 163.29 178.49 164.24 179.42 164.50 C 180.34 164.75 181.29 164.20 181.54 163.28 L 181.80 162.35 C 182.05 161.43 181.50 160.48 180.58 160.23 C 179.66 159.97 178.70 160.52 178.45 161.44 Z M 178.21 162.37 L 177.94 163.32 C 177.69 164.24 178.23 165.19 179.15 165.44 C 180.07 165.70 181.02 165.16 181.27 164.24 L 181.53 163.28 C 181.79 162.36 181.25 161.41 180.33 161.16 C 179.41 160.91 178.46 161.45 178.21 162.37 Z M 177.95 163.32 L 177.67 164.31 C 177.42 165.23 177.95 166.17 178.86 166.43 C 179.78 166.69 180.73 166.15 180.98 165.24 L 181.26 164.25 C 181.52 163.33 180.99 162.38 180.07 162.13 C 179.16 161.87 178.21 162.40 177.95 163.32 Z M 177.68 164.30 L 177.38 165.34 C 177.12 166.25 177.65 167.20 178.56 167.46 C 179.47 167.72 180.42 167.20 180.68 166.29 L 180.98 165.25 C 181.24 164.34 180.71 163.39 179.80 163.13 C 178.89 162.87 177.94 163.39 177.68 164.30 Z M 177.39 165.34 L 177.08 166.40 C 176.82 167.30 177.34 168.25 178.24 168.52 C 179.15 168.78 180.10 168.26 180.36 167.35 L 180.67 166.29 C 180.93 165.39 180.41 164.44 179.51 164.18 C 178.60 163.91 177.66 164.43 177.39 165.34 Z M 177.09 166.39 L 176.81 167.33 C 176.55 168.23 177.06 169.18 177.96 169.45 C 178.86 169.71 179.81 169.20 180.07 168.30 L 180.35 167.36 C 180.62 166.46 180.11 165.51 179.21 165.25 C 178.30 164.98 177.36 165.49 177.09 166.39 Z M 176.82 167.33 L 176.53 168.30 C 176.26 169.19 176.77 170.14 177.67 170.41 C 178.56 170.68 179.51 170.17 179.78 169.27 L 180.07 168.30 C 180.34 167.41 179.83 166.46 178.93 166.19 C 178.03 165.92 177.09 166.43 176.82 167.33 Z M 176.54 168.29 L 176.24 169.28 C 175.97 170.17 176.47 171.11 177.36 171.38 C 178.26 171.66 179.20 171.15 179.47 170.26 L 179.77 169.27 C 180.04 168.38 179.54 167.44 178.64 167.17 C 177.75 166.90 176.81 167.40 176.54 168.29 Z M 176.25 169.28 L 175.94 170.27 C 175.67 171.16 176.17 172.10 177.06 172.37 C 177.95 172.64 178.89 172.14 179.16 171.25 L 179.46 170.26 C 179.73 169.37 179.23 168.43 178.35 168.16 C 177.46 167.89 176.52 168.39 176.25 169.28 Z M 175.95 170.27 L 175.64 171.26 C 175.37 172.14 175.87 173.08 176.75 173.35 C 177.64 173.63 178.58 173.13 178.85 172.25 L 179.15 171.26 C 179.42 170.37 178.93 169.43 178.04 169.16 C 177.16 168.89 176.22 169.38 175.95 170.27 Z M 175.65 171.26 L 175.35 172.24 C 175.08 173.12 175.57 174.05 176.45 174.32 C 177.33 174.60 178.27 174.10 178.54 173.22 L 178.84 172.25 C 179.11 171.37 178.62 170.43 177.74 170.16 C 176.86 169.88 175.92 170.38 175.65 171.26 Z M 175.36 172.23 L 175.06 173.19 C 174.79 174.06 175.28 175.00 176.15 175.27 C 177.03 175.54 177.96 175.05 178.23 174.18 L 178.53 173.22 C 178.80 172.35 178.31 171.41 177.44 171.14 C 176.56 170.87 175.63 171.36 175.36 172.23 Z M 175.07 173.19 L 174.78 174.11 C 174.51 174.98 174.99 175.91 175.86 176.18 C 176.74 176.45 177.67 175.97 177.94 175.10 L 178.23 174.18 C 178.50 173.30 178.01 172.37 177.14 172.10 C 176.27 171.83 175.34 172.31 175.07 173.19 Z M 174.79 174.11 L 174.50 175.02 C 174.22 175.89 174.71 176.82 175.58 177.09 C 176.45 177.36 177.37 176.88 177.65 176.01 L 177.93 175.09 C 178.21 174.23 177.72 173.30 176.85 173.03 C 175.98 172.75 175.06 173.24 174.79 174.11 Z M 174.51 175.02 L 174.15 176.16 C 173.88 177.02 174.36 177.94 175.22 178.21 C 176.09 178.49 177.01 178.01 177.28 177.14 L 177.64 176.01 C 177.91 175.14 177.43 174.22 176.57 173.95 C 175.70 173.68 174.78 174.16 174.51 175.02 Z M 174.16 176.16 L 173.83 177.20 C 173.56 178.06 174.03 178.97 174.89 179.25 C 175.75 179.52 176.66 179.04 176.94 178.19 L 177.27 177.14 C 177.54 176.28 177.06 175.37 176.21 175.10 C 175.35 174.83 174.43 175.30 174.16 176.16 Z M 173.84 177.20 L 173.53 178.17 C 173.26 179.02 173.73 179.93 174.58 180.20 C 175.43 180.47 176.34 180.00 176.61 179.15 L 176.92 178.19 C 177.20 177.34 176.73 176.43 175.88 176.15 C 175.03 175.88 174.12 176.35 173.84 177.20 Z M 173.55 178.17 L 173.25 179.07 C 172.98 179.91 173.44 180.82 174.29 181.09 C 175.13 181.36 176.03 180.90 176.31 180.06 L 176.60 179.15 C 176.87 178.31 176.41 177.41 175.57 177.13 C 174.73 176.86 173.82 177.32 173.55 178.17 Z M 173.27 179.07 L 172.99 179.92 C 172.71 180.76 173.17 181.66 174.00 181.93 C 174.84 182.21 175.74 181.75 176.01 180.92 L 176.29 180.06 C 176.57 179.23 176.11 178.33 175.28 178.05 C 174.44 177.78 173.54 178.23 173.27 179.07 Z M 173.00 179.92 L 172.72 180.74 C 172.45 181.57 172.89 182.46 173.72 182.74 C 174.55 183.02 175.44 182.57 175.72 181.74 L 176.00 180.92 C 176.27 180.10 175.83 179.20 175.00 178.92 C 174.17 178.65 173.28 179.09 173.00 179.92 Z M 172.74 180.73 L 172.42 181.65 C 172.14 182.48 172.58 183.37 173.40 183.65 C 174.22 183.93 175.11 183.49 175.40 182.67 L 175.71 181.75 C 175.99 180.93 175.55 180.04 174.73 179.76 C 173.91 179.47 173.02 179.91 172.74 180.73 Z M 172.43 181.65 L 172.09 182.61 C 171.81 183.42 172.24 184.32 173.06 184.60 C 173.87 184.89 174.77 184.46 175.05 183.64 L 175.39 182.68 C 175.67 181.86 175.24 180.97 174.43 180.68 C 173.61 180.40 172.71 180.83 172.43 181.65 Z M 172.10 182.60 L 171.76 183.54 C 171.47 184.36 171.90 185.25 172.71 185.54 C 173.53 185.83 174.42 185.41 174.71 184.59 L 175.05 183.65 C 175.34 182.83 174.91 181.94 174.10 181.65 C 173.28 181.36 172.39 181.78 172.10 182.60 Z M 171.77 183.54 L 171.43 184.47 C 171.14 185.28 171.56 186.18 172.37 186.47 C 173.19 186.76 174.08 186.34 174.38 185.53 L 174.71 184.60 C 175.00 183.78 174.58 182.89 173.77 182.59 C 172.95 182.30 172.06 182.72 171.77 183.54 Z M 171.43 184.46 L 171.10 185.39 C 170.80 186.20 171.22 187.10 172.04 187.39 C 172.85 187.68 173.74 187.27 174.04 186.45 L 174.37 185.53 C 174.67 184.72 174.25 183.82 173.44 183.53 C 172.62 183.23 171.73 183.65 171.43 184.46 Z M 171.10 185.39 L 170.90 185.93 C 170.61 186.74 171.03 187.64 171.84 187.93 C 172.65 188.23 173.54 187.81 173.84 187.00 L 174.04 186.45 C 174.33 185.64 173.91 184.75 173.10 184.45 C 172.29 184.16 171.40 184.58 171.10 185.39 Z"
      fill="black"
      fill-rule="nonzero" /><path d="M 120.56 152.94 L 119.10 152.94 C 118.12 152.94 117.32 153.73 117.32 154.72 C 117.32 155.70 118.12 156.50 119.10 156.50 L 120.56 156.50 C 121.54 156.50 122.34 155.70 122.34 154.72 C 122.34 153.73 121.54 152.94 120.56 152.94 Z M 119.10 152.88 L 117.94 152.88 C 116.92 152.88 116.10 153.70 116.10 154.72 C 116.10 155.73 116.92 156.55 117.94 156.55 L 119.10 156.55 C 120.12 156.55 120.94 155.73 120.94 154.72 C 120.94 153.70 120.12 152.88 119.10 152.88 Z M 117.94 152.83 L 117.34 152.83 C 116.30 152.83 115.45 153.67 115.45 154.72 C 115.45 155.76 116.30 156.61 117.34 156.61 L 117.94 156.61 C 118.98 156.61 119.83 155.76 119.83 154.72 C 119.83 153.67 118.98 152.83 117.94 152.83 Z M 117.34 156.65 L 117.50 156.65 C 118.57 156.65 119.43 155.78 119.43 154.72 C 119.43 153.65 118.57 152.78 117.50 152.78 L 117.34 152.78 C 116.28 152.78 115.41 153.65 115.41 154.72 C 115.41 155.79 116.28 156.65 117.34 156.65 Z M 117.50 156.67 L 118.10 156.67 C 119.18 156.66 120.05 155.79 120.05 154.71 C 120.05 153.64 119.17 152.77 118.10 152.77 L 117.50 152.77 C 116.42 152.77 115.55 153.64 115.55 154.72 C 115.55 155.80 116.43 156.67 117.50 156.67 Z M 118.11 156.67 L 119.04 156.66 C 120.12 156.66 120.99 155.78 120.98 154.71 C 120.98 153.63 120.10 152.76 119.03 152.76 L 118.09 152.77 C 117.02 152.77 116.15 153.65 116.15 154.72 C 116.15 155.80 117.03 156.67 118.11 156.67 Z M 119.05 156.66 L 120.23 156.66 C 121.30 156.65 122.17 155.77 122.16 154.69 C 122.16 153.62 121.28 152.75 120.20 152.76 L 119.02 152.76 C 117.95 152.77 117.08 153.65 117.08 154.72 C 117.09 155.80 117.97 156.67 119.05 156.66 Z M 120.23 156.66 L 121.57 156.64 C 122.64 156.63 123.51 155.75 123.50 154.68 C 123.49 153.60 122.61 152.73 121.53 152.74 L 120.20 152.76 C 119.12 152.77 118.25 153.65 118.26 154.72 C 118.27 155.80 119.16 156.67 120.23 156.66 Z M 121.58 156.64 L 122.85 156.63 C 123.93 156.61 124.79 155.73 124.78 154.65 C 124.76 153.57 123.88 152.71 122.80 152.73 L 121.52 152.74 C 120.45 152.76 119.58 153.64 119.60 154.72 C 119.61 155.80 120.50 156.66 121.58 156.64 Z M 122.87 156.62 L 123.85 156.60 C 124.93 156.58 125.78 155.69 125.76 154.62 C 125.73 153.54 124.85 152.69 123.77 152.71 L 122.79 152.73 C 121.71 152.75 120.86 153.64 120.88 154.71 C 120.91 155.79 121.79 156.64 122.87 156.62 Z M 123.87 156.59 L 124.86 156.56 C 125.93 156.53 126.77 155.64 126.73 154.57 C 126.70 153.50 125.81 152.66 124.74 152.70 L 123.76 152.72 C 122.69 152.76 121.85 153.65 121.88 154.71 C 121.91 155.78 122.80 156.62 123.87 156.59 Z M 124.89 156.55 L 125.88 156.50 C 126.94 156.46 127.76 155.56 127.71 154.50 C 127.67 153.44 126.77 152.62 125.71 152.66 L 124.72 152.71 C 123.66 152.75 122.84 153.65 122.88 154.71 C 122.93 155.77 123.83 156.59 124.89 156.55 Z M 125.91 156.49 L 126.91 156.43 C 127.96 156.36 128.76 155.46 128.69 154.40 C 128.63 153.35 127.72 152.55 126.67 152.61 L 125.67 152.68 C 124.62 152.74 123.82 153.65 123.89 154.70 C 123.95 155.76 124.86 156.56 125.91 156.49 Z M 126.95 156.41 L 127.95 156.33 C 128.99 156.24 129.77 155.32 129.68 154.27 C 129.59 153.23 128.67 152.45 127.63 152.54 L 126.63 152.63 C 125.58 152.72 124.80 153.64 124.89 154.68 C 124.98 155.73 125.90 156.50 126.95 156.41 Z M 128.00 156.31 L 129.00 156.20 C 130.04 156.09 130.79 155.15 130.67 154.11 C 130.55 153.08 129.62 152.33 128.58 152.45 L 127.58 152.56 C 126.54 152.67 125.79 153.61 125.91 154.65 C 126.02 155.68 126.96 156.43 128.00 156.31 Z M 129.06 156.18 L 130.07 156.04 C 131.10 155.89 131.81 154.94 131.66 153.91 C 131.52 152.89 130.57 152.17 129.54 152.32 L 128.53 152.46 C 127.50 152.61 126.78 153.56 126.93 154.59 C 127.08 155.62 128.03 156.33 129.06 156.18 Z M 130.12 156.02 L 131.08 155.85 C 132.10 155.67 132.77 154.71 132.60 153.69 C 132.42 152.68 131.45 152.00 130.44 152.17 L 129.48 152.34 C 128.47 152.52 127.79 153.49 127.96 154.50 C 128.14 155.52 129.11 156.20 130.12 156.02 Z M 131.13 155.83 L 132.09 155.63 C 133.09 155.43 133.73 154.45 133.53 153.45 C 133.32 152.44 132.35 151.80 131.34 152.00 L 130.39 152.20 C 129.39 152.40 128.74 153.38 128.94 154.38 C 129.15 155.39 130.13 156.03 131.13 155.83 Z M 132.13 155.61 L 133.09 155.38 C 134.08 155.15 134.70 154.17 134.47 153.18 C 134.24 152.19 133.25 151.57 132.26 151.80 L 131.30 152.03 C 130.31 152.26 129.69 153.24 129.92 154.23 C 130.15 155.22 131.14 155.84 132.13 155.61 Z M 133.13 155.36 L 134.10 155.11 C 135.07 154.86 135.66 153.87 135.41 152.89 C 135.16 151.92 134.16 151.33 133.19 151.58 L 132.22 151.83 C 131.25 152.08 130.66 153.07 130.91 154.05 C 131.16 155.02 132.15 155.61 133.13 155.36 Z M 134.13 155.09 L 135.10 154.82 C 136.06 154.55 136.62 153.55 136.35 152.59 C 136.08 151.62 135.09 151.06 134.12 151.33 L 133.15 151.60 C 132.19 151.87 131.63 152.87 131.90 153.83 C 132.17 154.80 133.17 155.36 134.13 155.09 Z M 135.13 154.79 L 136.10 154.50 C 137.05 154.22 137.59 153.22 137.30 152.27 C 137.02 151.32 136.02 150.78 135.07 151.06 L 134.09 151.36 C 133.15 151.64 132.61 152.64 132.89 153.59 C 133.18 154.54 134.18 155.08 135.13 154.79 Z M 136.12 154.48 L 137.10 154.17 C 138.04 153.87 138.55 152.87 138.25 151.93 C 137.96 150.99 136.95 150.48 136.02 150.78 L 135.04 151.09 C 134.11 151.38 133.59 152.39 133.89 153.32 C 134.19 154.26 135.19 154.78 136.12 154.48 Z M 137.12 154.15 L 138.09 153.82 C 139.02 153.51 139.52 152.51 139.21 151.58 C 138.90 150.66 137.90 150.16 136.97 150.47 L 136.00 150.80 C 135.07 151.11 134.57 152.11 134.88 153.03 C 135.19 153.96 136.19 154.46 137.12 154.15 Z M 138.11 153.80 L 139.01 153.48 C 139.92 153.17 140.40 152.17 140.08 151.25 C 139.77 150.34 138.77 149.86 137.85 150.18 L 136.95 150.49 C 136.04 150.81 135.56 151.81 135.88 152.72 C 136.20 153.64 137.20 154.12 138.11 153.80 Z M 139.03 153.46 L 139.93 153.14 C 140.83 152.81 141.29 151.81 140.96 150.91 C 140.64 150.01 139.64 149.54 138.74 149.87 L 137.84 150.20 C 136.93 150.53 136.47 151.52 136.80 152.43 C 137.13 153.33 138.12 153.79 139.03 153.46 Z M 139.94 153.11 L 140.85 152.77 C 141.74 152.43 142.19 151.44 141.85 150.55 C 141.51 149.66 140.51 149.21 139.62 149.55 L 138.72 149.89 C 137.83 150.23 137.38 151.22 137.72 152.11 C 138.06 153.00 139.05 153.45 139.94 153.11 Z M 140.87 152.75 L 141.78 152.39 C 142.65 152.04 143.08 151.05 142.74 150.17 C 142.39 149.29 141.40 148.86 140.52 149.21 L 139.61 149.57 C 138.73 149.92 138.30 150.91 138.65 151.79 C 138.99 152.67 139.99 153.10 140.87 152.75 Z M 141.79 152.37 L 142.71 151.99 C 143.58 151.63 143.99 150.64 143.63 149.77 C 143.28 148.91 142.29 148.50 141.42 148.85 L 140.50 149.23 C 139.64 149.59 139.22 150.58 139.58 151.45 C 139.94 152.31 140.93 152.72 141.79 152.37 Z M 142.73 151.96 L 143.66 151.56 C 144.51 151.20 144.91 150.21 144.54 149.36 C 144.17 148.50 143.19 148.11 142.33 148.48 L 141.40 148.88 C 140.55 149.24 140.16 150.23 140.52 151.08 C 140.89 151.94 141.88 152.33 142.73 151.96 Z M 143.68 151.54 L 144.62 151.12 C 145.46 150.74 145.84 149.76 145.46 148.92 C 145.08 148.08 144.10 147.70 143.26 148.08 L 142.32 148.50 C 141.48 148.88 141.10 149.86 141.48 150.70 C 141.85 151.54 142.84 151.92 143.68 151.54 Z M 144.64 151.09 L 145.59 150.65 C 146.42 150.26 146.78 149.28 146.39 148.45 C 146.01 147.63 145.02 147.27 144.20 147.65 L 143.24 148.10 C 142.41 148.49 142.06 149.47 142.44 150.30 C 142.83 151.12 143.81 151.48 144.64 151.09 Z M 145.61 150.63 L 146.53 150.18 C 147.34 149.79 147.68 148.81 147.29 147.99 C 146.89 147.18 145.91 146.84 145.10 147.23 L 144.18 147.68 C 143.37 148.07 143.03 149.05 143.42 149.87 C 143.82 150.68 144.80 151.02 145.61 150.63 Z M 146.54 150.16 L 147.39 149.74 C 148.20 149.34 148.52 148.36 148.12 147.55 C 147.72 146.75 146.74 146.42 145.93 146.82 L 145.08 147.25 C 144.28 147.65 143.95 148.63 144.36 149.44 C 144.76 150.24 145.74 150.57 146.54 150.16 Z M 147.40 149.73 L 148.26 149.28 C 149.06 148.87 149.37 147.90 148.96 147.10 C 148.55 146.30 147.58 145.99 146.78 146.40 L 145.92 146.84 C 145.12 147.25 144.81 148.23 145.22 149.02 C 145.63 149.82 146.61 150.13 147.40 149.73 Z M 148.27 149.27 L 149.14 148.81 C 149.93 148.40 150.24 147.42 149.82 146.63 C 149.41 145.84 148.43 145.54 147.64 145.95 L 146.77 146.41 C 145.98 146.82 145.68 147.80 146.09 148.59 C 146.50 149.38 147.48 149.69 148.27 149.27 Z M 149.15 148.80 L 150.03 148.33 C 150.81 147.91 151.11 146.94 150.69 146.16 C 150.27 145.37 149.29 145.08 148.51 145.50 L 147.63 145.97 C 146.85 146.38 146.55 147.36 146.97 148.14 C 147.39 148.93 148.37 149.22 149.15 148.80 Z M 150.03 148.32 L 150.92 147.84 C 151.70 147.42 151.98 146.45 151.56 145.67 C 151.14 144.89 150.17 144.60 149.39 145.03 L 148.50 145.51 C 147.73 145.93 147.44 146.90 147.86 147.68 C 148.28 148.46 149.25 148.74 150.03 148.32 Z M 150.92 147.83 L 151.81 147.34 C 152.59 146.92 152.87 145.95 152.44 145.18 C 152.02 144.40 151.05 144.12 150.28 144.55 L 149.39 145.04 C 148.61 145.46 148.33 146.43 148.76 147.20 C 149.18 147.97 150.15 148.26 150.92 147.83 Z M 151.81 147.33 L 152.71 146.84 C 153.48 146.41 153.76 145.44 153.33 144.68 C 152.91 143.91 151.94 143.63 151.17 144.06 L 150.28 144.56 C 149.51 144.98 149.23 145.95 149.66 146.71 C 150.08 147.48 151.05 147.76 151.81 147.33 Z M 152.71 146.83 L 153.61 146.33 C 154.37 145.90 154.65 144.94 154.22 144.18 C 153.80 143.41 152.83 143.14 152.07 143.56 L 151.17 144.07 C 150.41 144.49 150.14 145.46 150.56 146.22 C 150.99 146.98 151.95 147.25 152.71 146.83 Z M 153.61 146.32 L 154.51 145.81 C 155.27 145.39 155.54 144.43 155.12 143.67 C 154.69 142.91 153.73 142.64 152.97 143.07 L 152.07 143.57 C 151.31 144.00 151.04 144.96 151.47 145.71 C 151.89 146.47 152.85 146.74 153.61 146.32 Z M 154.51 145.81 L 155.06 145.50 C 155.81 145.08 156.08 144.12 155.66 143.37 C 155.23 142.61 154.28 142.34 153.52 142.77 L 152.98 143.07 C 152.22 143.50 151.95 144.45 152.37 145.21 C 152.80 145.96 153.75 146.23 154.51 145.81 Z"
      fill="black"
      fill-rule="nonzero" /><path d="M 150.27 119.30 L 149.21 119.47 C 148.29 119.62 147.65 120.49 147.80 121.42 C 147.95 122.35 148.82 122.98 149.75 122.83 L 150.81 122.67 C 151.74 122.52 152.37 121.64 152.22 120.71 C 152.08 119.78 151.20 119.15 150.27 119.30 Z M 149.14 119.46 L 148.12 119.66 C 147.18 119.85 146.57 120.76 146.76 121.70 C 146.95 122.63 147.86 123.24 148.80 123.05 L 149.82 122.85 C 150.76 122.66 151.37 121.75 151.18 120.81 C 150.99 119.88 150.08 119.27 149.14 119.46 Z M 147.97 119.67 L 147.01 119.95 C 146.08 120.22 145.54 121.19 145.81 122.12 C 146.08 123.06 147.05 123.59 147.98 123.32 L 148.94 123.04 C 149.88 122.77 150.41 121.80 150.14 120.87 C 149.87 119.94 148.90 119.40 147.97 119.67 Z M 146.77 120.01 L 145.90 120.40 C 145.00 120.80 144.60 121.85 145.00 122.75 C 145.40 123.65 146.45 124.05 147.34 123.65 L 148.22 123.26 C 149.11 122.86 149.52 121.81 149.12 120.91 C 148.72 120.02 147.67 119.61 146.77 120.01 Z M 145.57 120.56 L 144.82 121.09 C 144.01 121.67 143.83 122.80 144.40 123.61 C 144.98 124.42 146.11 124.61 146.92 124.03 L 147.67 123.49 C 148.48 122.91 148.67 121.79 148.09 120.98 C 147.51 120.17 146.38 119.98 145.57 120.56 Z M 144.49 121.37 L 143.96 121.99 C 143.31 122.75 143.39 123.90 144.15 124.55 C 144.92 125.21 146.07 125.13 146.72 124.36 L 147.25 123.75 C 147.91 122.99 147.82 121.84 147.06 121.18 C 146.30 120.53 145.15 120.61 144.49 121.37 Z M 143.74 122.29 L 143.37 122.98 C 142.88 123.86 143.20 124.97 144.08 125.46 C 144.97 125.95 146.08 125.63 146.56 124.74 L 146.94 124.06 C 147.43 123.17 147.11 122.06 146.22 121.58 C 145.34 121.09 144.23 121.41 143.74 122.29 Z M 143.25 123.23 L 142.95 124.04 C 142.61 124.99 143.10 126.04 144.04 126.38 C 144.99 126.73 146.04 126.24 146.39 125.29 L 146.68 124.49 C 147.03 123.54 146.54 122.49 145.59 122.14 C 144.64 121.80 143.59 122.29 143.25 123.23 Z M 142.89 124.24 L 142.67 125.16 C 142.44 126.14 143.04 127.13 144.02 127.37 C 145.00 127.60 145.99 127.00 146.22 126.02 L 146.45 125.09 C 146.68 124.11 146.08 123.13 145.10 122.89 C 144.12 122.65 143.13 123.26 142.89 124.24 Z M 142.64 125.31 L 142.48 126.35 C 142.32 127.34 143.01 128.28 144.00 128.43 C 145.00 128.59 145.94 127.91 146.09 126.91 L 146.25 125.87 C 146.41 124.87 145.73 123.94 144.73 123.78 C 143.73 123.63 142.80 124.31 142.64 125.31 Z M 142.47 126.45 L 142.35 127.60 C 142.25 128.60 142.98 129.50 143.99 129.60 C 144.99 129.70 145.89 128.97 145.99 127.96 L 146.10 126.81 C 146.21 125.81 145.47 124.91 144.47 124.81 C 143.46 124.71 142.57 125.44 142.47 126.45 Z M 142.35 127.66 L 142.26 128.93 C 142.20 129.94 142.96 130.81 143.97 130.87 C 144.98 130.94 145.85 130.17 145.91 129.16 L 145.99 127.90 C 146.06 126.89 145.30 126.02 144.29 125.96 C 143.28 125.89 142.41 126.66 142.35 127.66 Z M 142.26 128.96 L 142.22 129.99 C 142.17 131.00 142.95 131.86 143.96 131.90 C 144.97 131.95 145.82 131.17 145.87 130.16 L 145.91 129.13 C 145.96 128.12 145.18 127.27 144.17 127.22 C 143.16 127.18 142.31 127.96 142.26 128.96 Z M 142.22 130.01 L 142.19 131.00 C 142.15 132.01 142.94 132.85 143.95 132.89 C 144.95 132.92 145.79 132.13 145.83 131.13 L 145.86 130.14 C 145.90 129.13 145.11 128.29 144.10 128.26 C 143.10 128.22 142.26 129.01 142.22 130.01 Z M 142.19 131.02 L 142.17 132.04 C 142.14 133.04 142.93 133.88 143.93 133.90 C 144.94 133.93 145.77 133.14 145.80 132.14 L 145.82 131.11 C 145.85 130.11 145.06 129.28 144.05 129.25 C 143.05 129.23 142.22 130.02 142.19 131.02 Z M 142.17 132.05 L 142.15 133.09 C 142.13 134.09 142.93 134.92 143.93 134.94 C 144.93 134.96 145.75 134.16 145.77 133.16 L 145.79 132.12 C 145.81 131.12 145.01 130.30 144.02 130.28 C 143.02 130.26 142.19 131.05 142.17 132.05 Z M 142.16 133.10 L 142.14 134.15 C 142.13 135.15 142.93 135.97 143.92 135.98 C 144.92 135.99 145.74 135.20 145.75 134.20 L 145.76 133.15 C 145.78 132.16 144.98 131.34 143.99 131.33 C 142.99 131.31 142.17 132.11 142.16 133.10 Z M 142.15 134.16 L 142.14 135.20 C 142.13 136.20 142.93 137.01 143.92 137.02 C 144.91 137.03 145.73 136.23 145.73 135.24 L 145.74 134.19 C 145.75 133.20 144.96 132.39 143.96 132.38 C 142.97 132.37 142.16 133.17 142.15 134.16 Z M 142.15 135.21 L 142.14 136.24 C 142.13 137.23 142.93 138.03 143.92 138.04 C 144.91 138.05 145.72 137.25 145.72 136.26 L 145.73 135.23 C 145.73 134.24 144.94 133.44 143.95 133.43 C 142.96 133.42 142.15 134.22 142.15 135.21 Z M 142.15 136.24 L 142.14 137.24 C 142.14 138.23 142.94 139.03 143.92 139.03 C 144.91 139.04 145.71 138.24 145.71 137.25 L 145.72 136.25 C 145.72 135.27 144.92 134.47 143.94 134.46 C 142.95 134.46 142.15 135.26 142.15 136.24 Z M 142.15 137.25 L 142.15 138.21 C 142.15 139.19 142.94 139.99 143.93 139.99 C 144.91 139.99 145.71 139.19 145.71 138.21 L 145.71 137.25 C 145.71 136.27 144.91 135.47 143.93 135.47 C 142.95 135.47 142.15 136.26 142.15 137.25 Z M 142.15 138.21 L 142.15 139.12 C 142.15 140.09 142.95 140.89 143.93 140.89 C 144.91 140.89 145.70 140.10 145.70 139.12 L 145.70 138.21 C 145.70 137.23 144.91 136.44 143.93 136.43 C 142.95 136.43 142.15 137.23 142.15 138.21 Z M 142.17 139.12 L 142.17 140.34 C 142.17 141.31 142.95 142.10 143.93 142.10 C 144.90 142.10 145.69 141.31 145.69 140.34 L 145.69 139.12 C 145.69 138.14 144.90 137.35 143.93 137.35 C 142.95 137.35 142.17 138.14 142.17 139.12 Z M 142.18 140.34 L 142.18 141.45 C 142.18 142.41 142.96 143.19 143.93 143.19 C 144.89 143.19 145.67 142.41 145.67 141.45 L 145.67 140.34 C 145.67 139.37 144.89 138.59 143.93 138.59 C 142.96 138.59 142.18 139.37 142.18 140.34 Z M 142.20 141.45 L 142.20 142.47 C 142.20 143.42 142.97 144.20 143.93 144.20 C 144.88 144.20 145.66 143.42 145.66 142.47 L 145.66 141.45 C 145.66 140.49 144.88 139.72 143.93 139.72 C 142.97 139.72 142.20 140.49 142.20 141.45 Z M 142.22 142.47 L 142.22 143.42 C 142.22 144.36 142.98 145.13 143.93 145.13 C 144.87 145.13 145.64 144.36 145.64 143.42 L 145.64 142.47 C 145.64 141.52 144.87 140.76 143.93 140.76 C 142.98 140.76 142.22 141.52 142.22 142.47 Z M 142.23 143.42 L 142.23 144.32 C 142.23 145.25 142.99 146.01 143.93 146.01 C 144.86 146.01 145.62 145.25 145.62 144.32 L 145.62 143.42 C 145.62 142.48 144.86 141.72 143.93 141.72 C 142.99 141.72 142.23 142.48 142.23 143.42 Z M 142.25 144.32 L 142.25 145.20 C 142.25 146.12 143.00 146.87 143.93 146.87 C 144.85 146.87 145.60 146.12 145.60 145.20 L 145.60 144.32 C 145.60 143.39 144.85 142.64 143.93 142.64 C 143.00 142.64 142.25 143.39 142.25 144.32 Z M 142.26 145.20 L 142.26 146.10 C 142.26 147.02 143.01 147.76 143.93 147.76 C 144.85 147.76 145.59 147.02 145.59 146.10 L 145.59 145.20 C 145.59 144.28 144.85 143.53 143.93 143.53 C 143.01 143.53 142.26 144.28 142.26 145.20 Z M 142.28 146.10 L 142.28 147.07 C 142.28 147.98 143.01 148.72 143.93 148.72 C 144.84 148.72 145.58 147.98 145.58 147.07 L 145.58 146.10 C 145.58 145.19 144.84 144.45 143.93 144.45 C 143.01 144.45 142.28 145.19 142.28 146.10 Z M 142.28 147.07 L 142.28 148.06 C 142.28 148.97 143.02 149.70 143.93 149.70 C 144.84 149.70 145.57 148.97 145.57 148.06 L 145.57 147.07 C 145.57 146.16 144.84 145.43 143.93 145.43 C 143.02 145.43 142.28 146.16 142.28 147.07 Z M 142.29 148.06 L 142.29 149.06 C 142.29 149.96 143.02 150.70 143.93 150.70 C 144.83 150.70 145.57 149.96 145.57 149.06 L 145.57 148.06 C 145.57 147.15 144.83 146.42 143.93 146.42 C 143.02 146.42 142.29 147.15 142.29 148.06 Z M 142.30 149.06 L 142.30 150.07 C 142.30 150.97 143.03 151.70 143.93 151.70 C 144.83 151.70 145.56 150.97 145.56 150.07 L 145.56 149.06 C 145.56 148.16 144.83 147.43 143.93 147.43 C 143.03 147.43 142.30 148.16 142.30 149.06 Z M 142.30 150.07 L 142.30 151.09 C 142.30 151.99 143.03 152.72 143.93 152.72 C 144.82 152.72 145.55 151.99 145.55 151.09 L 145.55 150.07 C 145.55 149.17 144.82 148.45 143.93 148.45 C 143.03 148.45 142.30 149.17 142.30 150.07 Z M 142.31 151.09 L 142.31 152.11 C 142.31 153.00 143.03 153.72 143.93 153.72 C 144.82 153.72 145.55 153.00 145.55 152.11 L 145.55 151.09 C 145.55 150.20 144.82 149.47 143.93 149.47 C 143.03 149.47 142.31 150.20 142.31 151.09 Z M 142.31 152.11 L 142.31 153.08 C 142.31 153.97 143.04 154.69 143.93 154.69 C 144.82 154.69 145.54 153.97 145.54 153.08 L 145.54 152.11 C 145.54 151.21 144.82 150.49 143.93 150.49 C 143.04 150.49 142.31 151.21 142.31 152.11 Z M 142.32 153.08 L 142.32 154.05 C 142.32 154.94 143.04 155.66 143.93 155.66 C 144.82 155.66 145.54 154.94 145.54 154.05 L 145.54 153.08 C 145.54 152.19 144.82 151.47 143.93 151.47 C 143.04 151.47 142.32 152.19 142.32 153.08 Z M 142.32 154.05 L 142.32 155.04 C 142.32 155.93 143.04 156.65 143.93 156.65 C 144.81 156.65 145.53 155.93 145.53 155.04 L 145.53 154.05 C 145.53 153.17 144.81 152.45 143.93 152.45 C 143.04 152.45 142.32 153.17 142.32 154.05 Z M 142.33 155.04 L 142.33 156.05 C 142.33 156.93 143.04 157.64 143.93 157.64 C 144.81 157.64 145.52 156.93 145.52 156.05 L 145.52 155.04 C 145.52 154.16 144.81 153.45 143.93 153.45 C 143.04 153.45 142.33 154.16 142.33 155.04 Z M 142.33 156.05 L 142.33 157.06 C 142.33 157.94 143.05 158.66 143.93 158.66 C 144.81 158.66 145.52 157.94 145.52 157.06 L 145.52 156.05 C 145.52 155.17 144.81 154.45 143.93 154.45 C 143.05 154.45 142.33 155.17 142.33 156.05 Z M 142.34 157.06 L 142.34 158.10 C 142.34 158.98 143.05 159.69 143.93 159.69 C 144.80 159.69 145.51 158.98 145.51 158.10 L 145.51 157.06 C 145.51 156.19 144.80 155.48 143.93 155.48 C 143.05 155.48 142.34 156.19 142.34 157.06 Z M 142.34 158.10 L 142.34 159.11 C 142.34 159.98 143.05 160.69 143.93 160.69 C 144.80 160.69 145.51 159.98 145.51 159.11 L 145.51 158.10 C 145.51 157.23 144.80 156.52 143.93 156.52 C 143.05 156.52 142.34 157.23 142.34 158.10 Z M 142.35 159.11 L 142.35 160.11 C 142.35 160.98 143.05 161.69 143.93 161.69 C 144.80 161.69 145.51 160.98 145.51 160.11 L 145.51 159.11 C 145.51 158.23 144.80 157.53 143.93 157.53 C 143.05 157.53 142.35 158.23 142.35 159.11 Z M 142.35 160.11 L 142.35 161.12 C 142.35 161.99 143.06 162.70 143.93 162.70 C 144.80 162.70 145.51 161.99 145.51 161.12 L 145.51 160.11 C 145.51 159.24 144.80 158.53 143.93 158.53 C 143.06 158.53 142.35 159.24 142.35 160.11 Z M 142.35 161.12 L 142.35 162.13 C 142.35 163.00 143.06 163.71 143.93 163.71 C 144.80 163.71 145.50 163.00 145.50 162.13 L 145.50 161.12 C 145.50 160.25 144.80 159.54 143.93 159.54 C 143.06 159.54 142.35 160.25 142.35 161.12 Z M 142.35 162.13 L 142.35 163.14 C 142.35 164.01 143.06 164.71 143.93 164.71 C 144.80 164.71 145.50 164.01 145.50 163.14 L 145.50 162.13 C 145.50 161.26 144.80 160.56 143.93 160.56 C 143.06 160.56 142.35 161.26 142.35 162.13 Z M 142.36 163.14 L 142.36 164.14 C 142.36 165.00 143.06 165.71 143.93 165.71 C 144.79 165.71 145.50 165.00 145.50 164.14 L 145.50 163.14 C 145.50 162.27 144.79 161.57 143.93 161.57 C 143.06 161.57 142.36 162.27 142.36 163.14 Z M 142.36 164.14 L 142.36 165.12 C 142.36 165.99 143.06 166.69 143.93 166.69 C 144.79 166.69 145.50 165.99 145.50 165.12 L 145.50 164.14 C 145.50 163.27 144.79 162.57 143.93 162.57 C 143.06 162.57 142.36 163.27 142.36 164.14 Z M 142.36 165.12 L 142.36 166.15 C 142.36 167.02 143.06 167.72 143.93 167.72 C 144.79 167.72 145.49 167.02 145.49 166.15 L 145.49 165.12 C 145.49 164.25 144.79 163.55 143.93 163.55 C 143.06 163.55 142.36 164.25 142.36 165.12 Z M 142.36 166.15 L 142.36 167.18 C 142.36 168.04 143.06 168.74 143.93 168.74 C 144.79 168.74 145.49 168.04 145.49 167.18 L 145.49 166.15 C 145.49 165.29 144.79 164.58 143.93 164.58 C 143.06 164.58 142.36 165.28 142.36 166.15 Z M 142.36 167.17 L 142.36 168.18 C 142.36 169.04 143.06 169.75 143.92 169.75 C 144.79 169.75 145.49 169.05 145.49 168.19 L 145.49 167.18 C 145.49 166.32 144.79 165.61 143.93 165.61 C 143.07 165.61 142.36 166.31 142.36 167.17 Z M 142.36 168.18 L 142.36 169.17 C 142.35 170.03 143.05 170.74 143.91 170.74 C 144.78 170.74 145.48 170.05 145.48 169.18 L 145.49 168.19 C 145.49 167.33 144.80 166.62 143.93 166.62 C 143.07 166.62 142.36 167.31 142.36 168.18 Z M 142.36 169.16 L 142.35 170.14 C 142.34 171.01 143.04 171.71 143.90 171.72 C 144.76 171.73 145.47 171.03 145.47 170.17 L 145.48 169.19 C 145.49 168.32 144.80 167.62 143.93 167.61 C 143.07 167.60 142.36 168.30 142.36 169.16 Z M 142.35 170.14 L 142.34 171.11 C 142.33 171.97 143.02 172.68 143.88 172.69 C 144.74 172.70 145.45 172.01 145.46 171.15 L 145.47 170.17 C 145.48 169.31 144.79 168.60 143.93 168.59 C 143.07 168.58 142.36 169.27 142.35 170.14 Z M 142.34 171.10 L 142.32 172.09 C 142.31 172.95 142.99 173.66 143.86 173.67 C 144.72 173.69 145.43 173.00 145.44 172.14 L 145.46 171.16 C 145.48 170.29 144.79 169.58 143.93 169.57 C 143.06 169.55 142.35 170.24 142.34 171.10 Z M 142.32 172.08 L 142.30 173.08 C 142.28 173.94 142.96 174.65 143.82 174.67 C 144.69 174.69 145.40 174.01 145.42 173.15 L 145.44 172.15 C 145.46 171.29 144.78 170.57 143.92 170.55 C 143.06 170.53 142.34 171.21 142.32 172.08 Z M 142.30 173.07 L 142.27 174.07 C 142.25 174.93 142.93 175.65 143.79 175.67 C 144.65 175.70 145.37 175.02 145.39 174.15 L 145.42 173.15 C 145.44 172.29 144.76 171.57 143.90 171.55 C 143.04 171.53 142.32 172.21 142.30 173.07 Z M 142.27 174.06 L 142.24 175.06 C 142.22 175.92 142.89 176.64 143.75 176.67 C 144.62 176.70 145.34 176.02 145.36 175.16 L 145.39 174.16 C 145.42 173.30 144.74 172.58 143.88 172.55 C 143.02 172.52 142.30 173.20 142.27 174.06 Z M 142.24 175.06 L 142.21 176.06 C 142.18 176.92 142.86 177.64 143.72 177.67 C 144.58 177.70 145.30 177.02 145.33 176.16 L 145.36 175.16 C 145.39 174.30 144.72 173.58 143.85 173.55 C 142.99 173.52 142.27 174.20 142.24 175.06 Z M 142.21 176.06 L 142.17 177.06 C 142.14 177.92 142.82 178.64 143.68 178.67 C 144.54 178.70 145.26 178.03 145.29 177.16 L 145.33 176.17 C 145.36 175.30 144.68 174.58 143.82 174.55 C 142.96 174.52 142.24 175.19 142.21 176.06 Z M 142.17 177.05 L 142.15 177.81 C 142.12 178.67 142.79 179.40 143.65 179.43 C 144.51 179.46 145.24 178.79 145.27 177.92 L 145.29 177.17 C 145.32 176.30 144.65 175.58 143.79 175.55 C 142.93 175.52 142.20 176.19 142.17 177.05 Z"
      fill="black"
      fill-rule="nonzero" /><path d="M 111.13 206.98 L 109.77 206.77 C 108.80 206.62 107.89 207.29 107.74 208.25 C 107.59 209.22 108.25 210.13 109.22 210.28 L 110.58 210.49 C 111.55 210.64 112.46 209.98 112.61 209.01 C 112.76 208.04 112.09 207.13 111.13 206.98 Z M 109.79 206.72 L 108.49 206.51 C 107.49 206.35 106.56 207.03 106.40 208.02 C 106.23 209.02 106.91 209.95 107.90 210.12 L 109.20 210.33 C 110.20 210.49 111.14 209.81 111.30 208.82 C 111.46 207.82 110.78 206.89 109.79 206.72 Z M 108.53 206.47 L 107.35 206.26 C 106.33 206.07 105.36 206.75 105.18 207.77 C 104.99 208.79 105.67 209.77 106.69 209.95 L 107.87 210.16 C 108.89 210.34 109.86 209.67 110.04 208.65 C 110.23 207.63 109.55 206.65 108.53 206.47 Z M 107.42 206.22 L 106.43 206.01 C 105.39 205.79 104.37 206.45 104.15 207.49 C 103.92 208.53 104.59 209.56 105.63 209.78 L 106.62 209.99 C 107.66 210.21 108.69 209.55 108.91 208.51 C 109.13 207.46 108.46 206.44 107.42 206.22 Z M 106.57 205.99 L 105.83 205.78 C 104.77 205.48 103.68 206.09 103.38 207.14 C 103.09 208.20 103.70 209.29 104.75 209.59 L 105.49 209.80 C 106.54 210.09 107.64 209.48 107.94 208.43 C 108.23 207.38 107.62 206.29 106.57 205.99 Z M 106.17 205.85 L 105.73 205.64 C 104.72 205.16 103.51 205.58 103.02 206.59 C 102.53 207.60 102.96 208.81 103.97 209.30 L 104.41 209.51 C 105.42 210.00 106.63 209.57 107.12 208.56 C 107.60 207.55 107.18 206.34 106.17 205.85 Z M 106.87 207.04 L 106.82 206.80 C 106.58 205.68 105.48 204.97 104.37 205.20 C 103.25 205.44 102.54 206.54 102.78 207.66 L 102.83 207.90 C 103.07 209.02 104.16 209.73 105.28 209.49 C 106.40 209.26 107.11 208.16 106.87 207.04 Z M 105.84 209.03 L 106.28 208.78 C 107.28 208.20 107.63 206.93 107.05 205.93 C 106.48 204.93 105.21 204.59 104.21 205.16 L 103.76 205.42 C 102.76 205.99 102.42 207.26 102.99 208.26 C 103.56 209.26 104.84 209.61 105.84 209.03 Z M 105.83 208.98 L 106.70 208.73 C 107.81 208.41 108.46 207.25 108.14 206.13 C 107.81 205.02 106.65 204.38 105.54 204.70 L 104.67 204.95 C 103.55 205.27 102.91 206.44 103.23 207.55 C 103.55 208.66 104.71 209.30 105.83 208.98 Z M 106.54 208.78 L 107.74 208.54 C 108.88 208.31 109.62 207.20 109.39 206.06 C 109.16 204.91 108.05 204.17 106.90 204.41 L 105.70 204.65 C 104.56 204.88 103.82 205.99 104.05 207.13 C 104.28 208.28 105.40 209.01 106.54 208.78 Z M 107.66 208.57 L 109.09 208.34 C 110.25 208.15 111.04 207.06 110.85 205.91 C 110.67 204.75 109.58 203.96 108.42 204.15 L 106.99 204.38 C 105.83 204.56 105.04 205.65 105.23 206.81 C 105.41 207.97 106.50 208.75 107.66 208.57 Z M 109.05 208.35 L 110.23 208.19 C 111.39 208.03 112.21 206.95 112.04 205.79 C 111.88 204.62 110.81 203.81 109.64 203.97 L 108.46 204.13 C 107.30 204.30 106.49 205.37 106.65 206.54 C 106.81 207.70 107.88 208.51 109.05 208.35 Z M 110.20 208.19 L 111.20 208.07 C 112.37 207.92 113.19 206.85 113.05 205.68 C 112.90 204.52 111.83 203.69 110.67 203.84 L 109.67 203.97 C 108.50 204.11 107.67 205.18 107.82 206.35 C 107.97 207.51 109.04 208.34 110.20 208.19 Z M 111.19 208.06 L 112.20 207.94 C 113.37 207.80 114.20 206.75 114.06 205.58 C 113.93 204.41 112.87 203.58 111.70 203.72 L 110.68 203.84 C 109.51 203.98 108.68 205.04 108.82 206.20 C 108.96 207.37 110.02 208.20 111.19 208.06 Z M 112.19 207.94 L 113.22 207.82 C 114.39 207.69 115.22 206.64 115.09 205.47 C 114.96 204.31 113.90 203.47 112.74 203.60 L 111.71 203.72 C 110.55 203.85 109.71 204.91 109.84 206.07 C 109.97 207.24 111.03 208.08 112.19 207.94 Z M 113.21 207.82 L 114.24 207.71 C 115.40 207.58 116.24 206.53 116.11 205.37 C 115.98 204.20 114.94 203.36 113.77 203.49 L 112.75 203.60 C 111.58 203.73 110.74 204.78 110.87 205.95 C 111.00 207.11 112.05 207.95 113.21 207.82 Z M 114.24 207.71 L 115.25 207.60 C 116.41 207.47 117.25 206.42 117.12 205.26 C 117.00 204.10 115.95 203.25 114.78 203.38 L 113.77 203.49 C 112.61 203.62 111.77 204.67 111.90 205.83 C 112.02 206.99 113.07 207.84 114.24 207.71 Z M 115.25 207.59 L 116.23 207.49 C 117.40 207.36 118.23 206.31 118.11 205.15 C 117.98 203.99 116.93 203.15 115.77 203.28 L 114.78 203.38 C 113.62 203.51 112.78 204.56 112.91 205.72 C 113.04 206.88 114.08 207.72 115.25 207.59 Z M 116.24 207.48 L 117.19 207.38 C 118.35 207.24 119.18 206.20 119.05 205.04 C 118.92 203.87 117.87 203.04 116.71 203.17 L 115.76 203.28 C 114.60 203.41 113.77 204.46 113.90 205.62 C 114.03 206.78 115.08 207.61 116.24 207.48 Z M 117.20 207.37 L 118.21 207.25 C 119.36 207.11 120.19 206.06 120.05 204.90 C 119.92 203.75 118.87 202.92 117.71 203.06 L 116.70 203.18 C 115.54 203.32 114.72 204.37 114.85 205.52 C 114.99 206.68 116.04 207.51 117.20 207.37 Z M 118.22 207.24 L 119.32 207.10 C 120.48 206.95 121.29 205.90 121.14 204.75 C 120.99 203.59 119.94 202.78 118.79 202.93 L 117.69 203.07 C 116.54 203.22 115.73 204.27 115.87 205.42 C 116.02 206.57 117.07 207.39 118.22 207.24 Z M 119.34 207.08 L 120.37 206.94 C 121.51 206.78 122.31 205.73 122.15 204.58 C 122.00 203.44 120.94 202.64 119.80 202.80 L 118.77 202.94 C 117.63 203.10 116.83 204.16 116.99 205.30 C 117.14 206.44 118.20 207.24 119.34 207.08 Z M 120.39 206.93 L 121.36 206.78 C 122.50 206.61 123.28 205.56 123.11 204.42 C 122.94 203.29 121.89 202.50 120.75 202.67 L 119.78 202.82 C 118.64 202.98 117.86 204.04 118.03 205.18 C 118.20 206.31 119.25 207.09 120.39 206.93 Z M 121.38 206.77 L 122.31 206.62 C 123.44 206.44 124.21 205.38 124.03 204.26 C 123.86 203.13 122.80 202.36 121.67 202.54 L 120.74 202.69 C 119.61 202.86 118.84 203.92 119.02 205.05 C 119.19 206.17 120.25 206.94 121.38 206.77 Z M 122.33 206.61 L 123.24 206.45 C 124.36 206.27 125.12 205.21 124.93 204.09 C 124.75 202.97 123.69 202.22 122.57 202.40 L 121.66 202.55 C 120.54 202.74 119.78 203.79 119.97 204.91 C 120.15 206.03 121.21 206.79 122.33 206.61 Z M 123.25 206.44 L 124.17 206.28 C 125.28 206.09 126.03 205.04 125.84 203.93 C 125.65 202.81 124.59 202.07 123.48 202.26 L 122.56 202.42 C 121.45 202.61 120.70 203.66 120.89 204.77 C 121.08 205.88 122.14 206.63 123.25 206.44 Z M 124.17 206.27 L 125.14 206.10 C 126.24 205.91 126.98 204.85 126.79 203.75 C 126.59 202.65 125.54 201.91 124.44 202.10 L 123.47 202.27 C 122.37 202.47 121.63 203.52 121.82 204.62 C 122.02 205.73 123.07 206.46 124.17 206.27 Z M 125.14 206.09 L 126.12 205.91 C 127.22 205.72 127.95 204.67 127.75 203.57 C 127.55 202.48 126.51 201.75 125.41 201.94 L 124.43 202.12 C 123.34 202.31 122.61 203.36 122.80 204.46 C 123.00 205.55 124.05 206.28 125.14 206.09 Z M 126.12 205.90 L 127.11 205.72 C 128.20 205.52 128.92 204.48 128.72 203.39 C 128.52 202.30 127.48 201.58 126.39 201.78 L 125.41 201.96 C 124.32 202.15 123.60 203.20 123.79 204.28 C 123.99 205.37 125.03 206.10 126.12 205.90 Z M 127.11 205.71 L 128.10 205.52 C 129.18 205.33 129.90 204.29 129.70 203.21 C 129.50 202.13 128.46 201.41 127.38 201.61 L 126.39 201.79 C 125.31 201.99 124.59 203.03 124.79 204.11 C 124.99 205.19 126.03 205.90 127.11 205.71 Z M 128.10 205.51 L 129.09 205.33 C 130.17 205.13 130.88 204.10 130.68 203.02 C 130.48 201.95 129.45 201.24 128.38 201.44 L 127.38 201.62 C 126.31 201.82 125.60 202.85 125.80 203.93 C 125.99 205.00 127.03 205.71 128.10 205.51 Z M 129.09 205.32 L 130.08 205.13 C 131.15 204.93 131.86 203.91 131.66 202.84 C 131.46 201.78 130.44 201.07 129.37 201.27 L 128.38 201.45 C 127.31 201.65 126.61 202.67 126.80 203.74 C 127.00 204.81 128.03 205.51 129.09 205.32 Z M 130.08 205.12 L 131.05 204.94 C 132.11 204.74 132.81 203.72 132.61 202.66 C 132.42 201.60 131.40 200.90 130.34 201.10 L 129.37 201.28 C 128.31 201.48 127.61 202.50 127.81 203.56 C 128.01 204.62 129.02 205.31 130.08 205.12 Z M 131.06 204.92 L 132.03 204.74 C 133.08 204.54 133.77 203.53 133.57 202.48 C 133.37 201.43 132.36 200.73 131.31 200.93 L 130.34 201.12 C 129.29 201.31 128.59 202.33 128.79 203.38 C 128.99 204.43 130.00 205.12 131.06 204.92 Z M 132.03 204.72 L 133.01 204.54 C 134.05 204.33 134.73 203.32 134.53 202.28 C 134.33 201.24 133.32 200.56 132.28 200.76 L 131.30 200.95 C 130.26 201.15 129.58 202.16 129.78 203.20 C 129.98 204.25 130.99 204.93 132.03 204.72 Z M 133.02 204.52 L 134.00 204.32 C 135.03 204.11 135.70 203.10 135.49 202.07 C 135.29 201.04 134.28 200.37 133.24 200.58 L 132.26 200.78 C 131.23 200.98 130.56 201.99 130.77 203.03 C 130.98 204.06 131.99 204.73 133.02 204.52 Z M 134.02 204.30 L 135.01 204.09 C 136.03 203.88 136.68 202.87 136.47 201.84 C 136.25 200.82 135.24 200.17 134.22 200.38 L 133.23 200.59 C 132.20 200.81 131.55 201.82 131.77 202.84 C 131.99 203.87 132.99 204.52 134.02 204.30 Z M 135.02 204.07 L 136.02 203.85 C 137.04 203.62 137.67 202.62 137.45 201.60 C 137.22 200.59 136.21 199.95 135.20 200.18 L 134.20 200.40 C 133.18 200.63 132.55 201.64 132.78 202.65 C 133.00 203.67 134.01 204.30 135.02 204.07 Z M 136.04 203.83 L 137.02 203.60 C 138.02 203.36 138.64 202.35 138.40 201.35 C 138.16 200.35 137.16 199.73 136.15 199.97 L 135.18 200.20 C 134.17 200.44 133.56 201.45 133.79 202.45 C 134.03 203.45 135.04 204.07 136.04 203.83 Z M 137.04 203.57 L 138.02 203.33 C 139.01 203.08 139.61 202.07 139.36 201.09 C 139.11 200.10 138.11 199.49 137.12 199.74 L 136.14 199.99 C 135.15 200.24 134.55 201.24 134.79 202.23 C 135.04 203.22 136.05 203.82 137.04 203.57 Z M 138.03 203.31 L 139.01 203.05 C 139.99 202.79 140.58 201.79 140.32 200.82 C 140.07 199.84 139.07 199.25 138.09 199.51 L 137.11 199.76 C 136.13 200.02 135.54 201.02 135.80 202.00 C 136.05 202.97 137.05 203.56 138.03 203.31 Z M 139.02 203.03 L 139.99 202.77 C 140.96 202.51 141.53 201.51 141.27 200.55 C 141.01 199.58 140.02 199.01 139.05 199.27 L 138.08 199.53 C 137.11 199.79 136.54 200.78 136.80 201.75 C 137.06 202.72 138.05 203.29 139.02 203.03 Z M 140.00 202.75 L 140.96 202.48 C 141.92 202.22 142.48 201.23 142.21 200.28 C 141.95 199.32 140.96 198.76 140.01 199.02 L 139.05 199.29 C 138.09 199.55 137.53 200.54 137.79 201.49 C 138.06 202.45 139.05 203.01 140.00 202.75 Z M 140.96 202.46 L 141.91 202.20 C 142.85 201.93 143.40 200.95 143.14 200.01 C 142.87 199.06 141.89 198.51 140.95 198.78 L 140.01 199.04 C 139.06 199.31 138.51 200.29 138.77 201.23 C 139.04 202.18 140.02 202.73 140.96 202.46 Z M 141.91 202.18 L 142.89 201.90 C 143.82 201.64 144.37 200.66 144.10 199.73 C 143.84 198.80 142.86 198.25 141.93 198.52 L 140.95 198.80 C 140.01 199.06 139.47 200.03 139.74 200.97 C 140.00 201.90 140.97 202.44 141.91 202.18 Z M 142.89 201.88 L 143.88 201.60 C 144.80 201.34 145.34 200.37 145.07 199.45 C 144.81 198.52 143.85 197.99 142.92 198.25 L 141.93 198.54 C 141.01 198.80 140.47 199.76 140.74 200.69 C 141.00 201.61 141.96 202.15 142.89 201.88 Z M 143.88 201.58 L 144.84 201.30 C 145.76 201.04 146.29 200.09 146.02 199.17 C 145.76 198.26 144.80 197.73 143.89 197.99 L 142.92 198.27 C 142.01 198.53 141.48 199.49 141.74 200.40 C 142.01 201.32 142.96 201.85 143.88 201.58 Z M 144.84 201.29 L 145.79 201.01 C 146.69 200.75 147.21 199.80 146.95 198.90 C 146.69 197.99 145.74 197.47 144.84 197.74 L 143.89 198.01 C 142.99 198.27 142.47 199.22 142.73 200.12 C 142.99 201.03 143.94 201.55 144.84 201.29 Z M 145.79 200.99 L 146.72 200.72 C 147.62 200.46 148.13 199.52 147.87 198.63 C 147.61 197.73 146.67 197.22 145.78 197.48 L 144.84 197.75 C 143.95 198.01 143.43 198.95 143.69 199.84 C 143.95 200.74 144.89 201.25 145.79 200.99 Z M 146.72 200.70 L 147.65 200.43 C 148.53 200.18 149.04 199.25 148.78 198.36 C 148.53 197.48 147.60 196.97 146.71 197.23 L 145.78 197.50 C 144.90 197.76 144.39 198.68 144.65 199.57 C 144.91 200.45 145.83 200.96 146.72 200.70 Z M 147.64 200.42 L 148.60 200.14 C 149.48 199.88 149.98 198.96 149.73 198.09 C 149.47 197.21 148.55 196.71 147.67 196.96 L 146.72 197.24 C 145.84 197.50 145.34 198.42 145.59 199.29 C 145.85 200.17 146.77 200.67 147.64 200.42 Z M 148.60 200.13 L 149.56 199.84 C 150.43 199.59 150.92 198.68 150.67 197.81 C 150.41 196.94 149.50 196.44 148.63 196.70 L 147.68 196.98 C 146.81 197.23 146.31 198.14 146.56 199.01 C 146.82 199.88 147.73 200.38 148.60 200.13 Z M 149.56 199.83 L 150.51 199.55 C 151.38 199.29 151.87 198.39 151.61 197.53 C 151.36 196.66 150.45 196.17 149.59 196.43 L 148.63 196.71 C 147.77 196.96 147.28 197.87 147.53 198.73 C 147.79 199.59 148.69 200.09 149.56 199.83 Z M 150.52 199.53 L 151.47 199.25 C 152.33 198.99 152.81 198.09 152.56 197.24 C 152.30 196.38 151.40 195.90 150.55 196.15 L 149.59 196.44 C 148.74 196.70 148.25 197.60 148.51 198.45 C 148.76 199.30 149.66 199.79 150.52 199.53 Z M 151.48 199.23 L 152.44 198.94 C 153.28 198.68 153.76 197.79 153.50 196.94 C 153.24 196.09 152.35 195.62 151.50 195.88 L 150.54 196.17 C 149.70 196.43 149.22 197.32 149.48 198.17 C 149.74 199.01 150.63 199.49 151.48 199.23 Z M 152.44 198.92 L 153.40 198.62 C 154.24 198.36 154.71 197.47 154.44 196.64 C 154.18 195.80 153.29 195.33 152.45 195.59 L 151.50 195.89 C 150.66 196.15 150.19 197.04 150.45 197.88 C 150.71 198.72 151.61 199.18 152.44 198.92 Z M 153.41 198.61 L 154.37 198.31 C 155.20 198.04 155.66 197.16 155.39 196.32 C 155.13 195.49 154.24 195.03 153.41 195.30 L 152.45 195.60 C 151.62 195.87 151.16 196.76 151.42 197.59 C 151.69 198.42 152.58 198.88 153.41 198.61 Z M 154.37 198.30 L 155.33 198.00 C 156.16 197.73 156.61 196.84 156.34 196.01 C 156.08 195.18 155.19 194.73 154.36 194.99 L 153.40 195.30 C 152.57 195.57 152.12 196.46 152.39 197.29 C 152.65 198.12 153.54 198.57 154.37 198.30 Z M 155.33 197.99 L 156.28 197.68 C 157.11 197.41 157.56 196.53 157.29 195.70 C 157.02 194.87 156.14 194.42 155.31 194.69 L 154.36 195.00 C 153.53 195.27 153.08 196.15 153.35 196.98 C 153.61 197.81 154.50 198.26 155.33 197.99 Z M 156.28 197.68 L 157.23 197.37 C 158.05 197.10 158.50 196.22 158.23 195.39 C 157.97 194.57 157.08 194.12 156.26 194.39 L 155.31 194.69 C 154.49 194.96 154.04 195.85 154.30 196.67 C 154.57 197.49 155.46 197.94 156.28 197.68 Z M 157.22 197.37 L 158.17 197.06 C 158.99 196.80 159.44 195.92 159.17 195.10 C 158.91 194.27 158.03 193.82 157.21 194.09 L 156.26 194.39 C 155.44 194.65 154.99 195.53 155.26 196.36 C 155.52 197.18 156.40 197.63 157.22 197.37 Z M 158.16 197.06 L 159.12 196.76 C 159.94 196.50 160.40 195.62 160.14 194.80 C 159.88 193.98 159.00 193.52 158.18 193.78 L 157.21 194.09 C 156.39 194.35 155.94 195.22 156.20 196.05 C 156.46 196.87 157.34 197.32 158.16 197.06 Z M 159.11 196.76 L 160.07 196.46 C 160.90 196.20 161.36 195.33 161.10 194.50 C 160.84 193.68 159.97 193.22 159.14 193.48 L 158.18 193.78 C 157.36 194.04 156.90 194.91 157.16 195.73 C 157.42 196.56 158.29 197.02 159.11 196.76 Z M 160.07 196.46 L 161.02 196.16 C 161.85 195.91 162.31 195.04 162.06 194.21 C 161.80 193.39 160.93 192.93 160.10 193.18 L 159.15 193.48 C 158.32 193.73 157.86 194.61 158.12 195.43 C 158.37 196.25 159.25 196.71 160.07 196.46 Z M 161.02 196.17 L 161.97 195.87 C 162.80 195.62 163.26 194.75 163.01 193.92 C 162.75 193.10 161.88 192.64 161.06 192.89 L 160.11 193.18 C 159.28 193.43 158.82 194.31 159.07 195.13 C 159.32 195.96 160.20 196.42 161.02 196.17 Z M 161.97 195.88 L 162.92 195.59 C 163.74 195.33 164.21 194.46 163.96 193.64 C 163.71 192.81 162.83 192.35 162.01 192.60 L 161.06 192.89 C 160.24 193.14 159.77 194.01 160.02 194.84 C 160.27 195.66 161.15 196.13 161.97 195.88 Z M 162.92 195.59 L 163.34 195.46 C 164.17 195.21 164.63 194.33 164.38 193.51 C 164.13 192.68 163.26 192.22 162.43 192.47 L 162.01 192.60 C 161.19 192.85 160.72 193.72 160.97 194.55 C 161.22 195.37 162.09 195.84 162.92 195.59 Z"
      fill="black"
      fill-rule="nonzero" /></svg>