<svg xmlns="http://www.w3.org/2000/svg" width="300" height="300" viewBox="0 0 300 300">
<path d="M 150.22 136.07 L 149.17 135.96 C 148.27 135.87 147.47 136.53 147.38 137.43 C 147.29 138.33 147.94 139.13 148.84 139.22 L 149.90 139.32 C 150.80 139.41 151.60 138.76 151.69 137.86 C 151.78 136.96 151.12 136.15 150.22 136.07 Z M 149.16 135.95 L 148.12 135.85 C 147.22 135.76 146.41 136.42 146.32 137.33 C 146.23 138.24 146.90 139.04 147.81 139.13 L 148.85 139.23 C 149.75 139.32 150.56 138.65 150.65 137.75 C 150.74 136.84 150.07 136.03 149.16 135.95 Z M 148.12 135.83 L 147.11 135.74 C 146.19 135.66 145.38 136.33 145.30 137.24 C 145.21 138.16 145.89 138.97 146.80 139.05 L 147.81 139.14 C 148.73 139.23 149.54 138.55 149.62 137.64 C 149.70 136.72 149.03 135.92 148.12 135.83 Z M 147.09 135.73 L 146.13 135.65 C 145.20 135.57 144.39 136.26 144.32 137.18 C 144.24 138.10 144.93 138.91 145.85 138.99 L 146.82 139.07 C 147.74 139.14 148.55 138.46 148.62 137.53 C 148.70 136.61 148.01 135.80 147.09 135.73 Z M 146.10 135.63 L 145.20 135.57 C 144.27 135.50 143.46 136.21 143.40 137.14 C 143.33 138.07 144.03 138.87 144.96 138.94 L 145.87 139.00 C 146.80 139.07 147.61 138.36 147.67 137.43 C 147.74 136.50 147.03 135.70 146.10 135.63 Z M 145.15 135.55 L 144.02 135.50 C 143.08 135.46 142.29 136.19 142.25 137.13 C 142.21 138.07 142.93 138.86 143.87 138.90 L 145.01 138.95 C 145.94 138.99 146.74 138.27 146.78 137.33 C 146.82 136.39 146.09 135.59 145.15 135.55 Z M 143.93 135.49 L 142.91 135.50 C 141.97 135.51 141.21 136.28 141.22 137.23 C 141.23 138.17 142.00 138.93 142.94 138.92 L 143.96 138.91 C 144.91 138.91 145.67 138.13 145.66 137.19 C 145.65 136.24 144.87 135.48 143.93 135.49 Z M 142.76 135.50 L 141.84 135.59 C 140.90 135.68 140.20 136.52 140.29 137.47 C 140.38 138.41 141.22 139.11 142.17 139.02 L 143.09 138.93 C 144.04 138.84 144.73 138.00 144.64 137.05 C 144.55 136.10 143.71 135.41 142.76 135.50 Z M 141.63 135.61 L 140.73 135.81 C 139.79 136.02 139.21 136.95 139.42 137.88 C 139.63 138.82 140.55 139.40 141.48 139.19 L 142.39 138.99 C 143.32 138.78 143.91 137.86 143.70 136.92 C 143.49 135.99 142.56 135.40 141.63 135.61 Z M 140.47 135.89 L 139.54 136.25 C 138.65 136.60 138.21 137.61 138.56 138.50 C 138.91 139.40 139.92 139.84 140.81 139.49 L 141.74 139.12 C 142.63 138.77 143.07 137.76 142.72 136.87 C 142.37 135.97 141.36 135.53 140.47 135.89 Z M 139.31 136.36 L 138.45 136.85 C 137.62 137.33 137.33 138.40 137.81 139.23 C 138.29 140.06 139.35 140.35 140.19 139.87 L 141.05 139.38 C 141.88 138.90 142.17 137.83 141.69 137.00 C 141.21 136.17 140.15 135.88 139.31 136.36 Z M 138.27 136.96 L 137.48 137.55 C 136.71 138.13 136.55 139.23 137.13 140.00 C 137.71 140.77 138.80 140.93 139.57 140.35 L 140.36 139.76 C 141.14 139.18 141.30 138.09 140.72 137.32 C 140.14 136.54 139.04 136.38 138.27 136.96 Z M 137.35 137.66 L 136.63 138.31 C 135.92 138.96 135.87 140.07 136.52 140.78 C 137.17 141.50 138.28 141.55 139.00 140.90 L 139.71 140.25 C 140.42 139.59 140.47 138.49 139.82 137.77 C 139.17 137.06 138.06 137.01 137.35 137.66 Z M 136.52 138.42 L 135.85 139.16 C 135.19 139.88 135.24 140.99 135.96 141.64 C 136.67 142.29 137.78 142.24 138.43 141.53 L 139.11 140.79 C 139.76 140.07 139.71 138.96 139.00 138.31 C 138.28 137.66 137.17 137.71 136.52 138.42 Z M 135.75 139.27 L 135.11 140.11 C 134.52 140.88 134.66 141.98 135.43 142.57 C 136.20 143.16 137.30 143.02 137.89 142.25 L 138.53 141.41 C 139.12 140.64 138.98 139.54 138.21 138.95 C 137.44 138.36 136.34 138.51 135.75 139.27 Z M 135.03 140.21 L 134.52 141.00 C 133.98 141.81 134.21 142.90 135.02 143.43 C 135.83 143.96 136.92 143.74 137.46 142.93 L 137.97 142.14 C 138.50 141.33 138.28 140.24 137.47 139.71 C 136.65 139.17 135.56 139.40 135.03 140.21 Z M 134.46 141.09 L 133.97 141.94 C 133.49 142.78 133.79 143.86 134.63 144.34 C 135.47 144.82 136.55 144.53 137.03 143.68 L 137.51 142.83 C 138.00 141.99 137.70 140.91 136.86 140.43 C 136.01 139.95 134.94 140.24 134.46 141.09 Z M 133.92 142.03 L 133.47 142.95 C 133.04 143.82 133.39 144.87 134.26 145.31 C 135.13 145.74 136.19 145.38 136.62 144.51 L 137.08 143.59 C 137.51 142.72 137.15 141.67 136.28 141.24 C 135.41 140.80 134.36 141.16 133.92 142.03 Z M 133.43 143.03 L 133.01 144.00 C 132.63 144.89 133.04 145.93 133.93 146.31 C 134.83 146.70 135.86 146.29 136.25 145.39 L 136.66 144.43 C 137.05 143.53 136.64 142.50 135.74 142.11 C 134.85 141.73 133.81 142.14 133.43 143.03 Z M 132.98 144.08 L 132.64 144.98 C 132.30 145.89 132.76 146.91 133.67 147.25 C 134.58 147.59 135.60 147.13 135.94 146.22 L 136.28 145.31 C 136.62 144.40 136.16 143.39 135.25 143.04 C 134.34 142.70 133.32 143.16 132.98 144.08 Z M 132.61 145.05 L 132.31 146.00 C 132.01 146.92 132.52 147.92 133.44 148.22 C 134.37 148.52 135.36 148.01 135.66 147.08 L 135.97 146.14 C 136.27 145.21 135.76 144.22 134.83 143.92 C 133.91 143.62 132.91 144.13 132.61 145.05 Z M 132.28 146.08 L 132.02 147.05 C 131.76 147.99 132.32 148.96 133.26 149.22 C 134.20 149.47 135.17 148.92 135.42 147.98 L 135.69 147.00 C 135.94 146.06 135.39 145.09 134.45 144.84 C 133.51 144.58 132.54 145.14 132.28 146.08 Z M 132.00 147.14 L 131.78 148.14 C 131.57 149.09 132.17 150.03 133.12 150.24 C 134.07 150.45 135.02 149.85 135.22 148.90 L 135.44 147.89 C 135.65 146.94 135.05 146.00 134.10 145.79 C 133.15 145.58 132.21 146.18 132.00 147.14 Z M 131.76 148.23 L 131.59 149.22 C 131.43 150.18 132.08 151.09 133.05 151.25 C 134.01 151.41 134.92 150.76 135.08 149.80 L 135.24 148.81 C 135.40 147.85 134.75 146.94 133.79 146.78 C 132.83 146.62 131.92 147.27 131.76 148.23 Z M 131.58 149.30 L 131.47 150.28 C 131.36 151.25 132.05 152.13 133.02 152.24 C 133.99 152.35 134.86 151.66 134.98 150.69 L 135.09 149.71 C 135.20 148.74 134.51 147.86 133.54 147.75 C 132.57 147.64 131.70 148.33 131.58 149.30 Z M 131.46 150.37 L 131.39 151.36 C 131.32 152.33 132.06 153.18 133.03 153.25 C 134.00 153.31 134.85 152.58 134.91 151.61 L 134.98 150.61 C 135.05 149.64 134.32 148.79 133.34 148.73 C 132.37 148.66 131.53 149.39 131.46 150.37 Z M 131.39 151.44 L 131.36 152.45 C 131.34 153.42 132.11 154.23 133.08 154.26 C 134.06 154.28 134.87 153.51 134.89 152.54 L 134.92 151.53 C 134.94 150.55 134.17 149.74 133.20 149.72 C 132.22 149.70 131.41 150.47 131.39 151.44 Z M 131.36 152.52 L 131.38 153.54 C 131.40 154.51 132.20 155.29 133.18 155.27 C 134.15 155.25 134.93 154.45 134.91 153.48 L 134.89 152.46 C 134.88 151.49 134.07 150.71 133.10 150.73 C 132.12 150.74 131.35 151.55 131.36 152.52 Z M 131.38 153.61 L 131.44 154.59 C 131.50 155.57 132.33 156.31 133.31 156.25 C 134.28 156.20 135.02 155.36 134.97 154.39 L 134.91 153.40 C 134.85 152.43 134.02 151.69 133.04 151.74 C 132.07 151.80 131.33 152.64 131.38 153.61 Z M 131.45 154.68 L 131.55 155.66 C 131.66 156.63 132.53 157.33 133.50 157.23 C 134.47 157.13 135.17 156.26 135.06 155.29 L 134.96 154.30 C 134.85 153.33 133.98 152.63 133.01 152.74 C 132.05 152.84 131.34 153.71 131.45 154.68 Z M 131.57 155.77 L 131.73 156.75 C 131.89 157.71 132.81 158.36 133.77 158.20 C 134.73 158.04 135.38 157.13 135.22 156.17 L 135.05 155.18 C 134.89 154.22 133.98 153.57 133.02 153.73 C 132.06 153.90 131.41 154.81 131.57 155.77 Z M 131.76 156.87 L 131.99 157.85 C 132.22 158.80 133.17 159.38 134.12 159.15 C 135.07 158.92 135.65 157.97 135.43 157.02 L 135.19 156.04 C 134.96 155.10 134.01 154.51 133.06 154.74 C 132.11 154.97 131.53 155.92 131.76 156.87 Z M 132.03 157.98 L 132.35 158.95 C 132.65 159.88 133.65 160.39 134.57 160.09 C 135.50 159.78 136.01 158.79 135.70 157.86 L 135.39 156.89 C 135.09 155.96 134.09 155.46 133.16 155.76 C 132.24 156.06 131.73 157.06 132.03 157.98 Z M 132.40 159.09 L 132.78 160.00 C 133.16 160.90 134.19 161.32 135.09 160.94 C 135.99 160.56 136.41 159.53 136.03 158.63 L 135.65 157.72 C 135.28 156.82 134.24 156.40 133.34 156.78 C 132.44 157.16 132.02 158.19 132.40 159.09 Z M 132.84 160.12 L 133.29 161.01 C 133.74 161.87 134.80 162.22 135.67 161.77 C 136.53 161.33 136.88 160.26 136.43 159.40 L 135.98 158.51 C 135.53 157.64 134.47 157.30 133.60 157.74 C 132.73 158.19 132.39 159.25 132.84 160.12 Z M 133.35 161.11 L 133.87 161.98 C 134.38 162.81 135.46 163.08 136.30 162.57 C 137.13 162.07 137.40 160.98 136.89 160.15 L 136.37 159.29 C 135.87 158.45 134.78 158.19 133.95 158.69 C 133.11 159.19 132.85 160.28 133.35 161.11 Z M 133.94 162.07 L 134.51 162.90 C 135.07 163.70 136.17 163.89 136.97 163.34 C 137.77 162.78 137.97 161.68 137.41 160.88 L 136.83 160.05 C 136.27 159.25 135.17 159.06 134.37 159.62 C 133.57 160.17 133.38 161.27 133.94 162.07 Z M 134.58 162.99 L 135.21 163.78 C 135.82 164.54 136.93 164.66 137.69 164.05 C 138.45 163.44 138.58 162.33 137.97 161.57 L 137.34 160.79 C 136.73 160.02 135.62 159.90 134.86 160.51 C 134.10 161.12 133.97 162.23 134.58 162.99 Z M 135.28 163.86 L 135.97 164.62 C 136.63 165.34 137.75 165.39 138.47 164.73 C 139.19 164.07 139.24 162.96 138.58 162.24 L 137.89 161.48 C 137.23 160.76 136.12 160.71 135.40 161.37 C 134.68 162.03 134.63 163.14 135.28 163.86 Z M 136.05 164.70 L 136.78 165.40 C 137.49 166.08 138.61 166.06 139.28 165.35 C 139.96 164.65 139.93 163.53 139.23 162.86 L 138.50 162.15 C 137.80 161.48 136.68 161.50 136.00 162.20 C 135.33 162.91 135.35 164.02 136.05 164.70 Z M 136.87 165.48 L 137.63 166.13 C 138.38 166.76 139.49 166.66 140.12 165.92 C 140.75 165.18 140.66 164.06 139.91 163.43 L 139.15 162.78 C 138.41 162.15 137.29 162.25 136.66 162.99 C 136.03 163.73 136.12 164.85 136.87 165.48 Z M 137.71 166.19 L 138.51 166.79 C 139.29 167.37 140.39 167.21 140.98 166.43 C 141.56 165.65 141.40 164.54 140.62 163.96 L 139.83 163.37 C 139.05 162.78 137.95 162.94 137.36 163.72 C 136.78 164.50 136.93 165.61 137.71 166.19 Z M 138.59 166.84 L 139.40 167.38 C 140.22 167.92 141.31 167.70 141.85 166.89 C 142.39 166.08 142.17 164.98 141.36 164.44 L 140.54 163.90 C 139.73 163.36 138.63 163.58 138.09 164.40 C 137.56 165.21 137.78 166.30 138.59 166.84 Z M 139.49 167.44 L 140.36 167.95 C 141.20 168.44 142.28 168.15 142.78 167.31 C 143.27 166.47 142.98 165.39 142.14 164.90 L 141.27 164.39 C 140.43 163.90 139.35 164.18 138.86 165.02 C 138.36 165.86 138.65 166.94 139.49 167.44 Z M 140.45 167.99 L 141.35 168.45 C 142.22 168.90 143.28 168.55 143.73 167.68 C 144.17 166.82 143.82 165.75 142.96 165.31 L 142.05 164.85 C 141.19 164.41 140.12 164.75 139.68 165.62 C 139.24 166.49 139.58 167.55 140.45 167.99 Z M 141.44 168.50 L 142.36 168.90 C 143.25 169.29 144.29 168.89 144.69 168.00 C 145.08 167.10 144.67 166.06 143.78 165.67 L 142.87 165.27 C 141.97 164.87 140.93 165.28 140.54 166.17 C 140.15 167.06 140.55 168.11 141.44 168.50 Z M 142.45 168.94 L 143.38 169.29 C 144.29 169.63 145.31 169.16 145.65 168.25 C 145.99 167.34 145.53 166.32 144.61 165.98 L 143.69 165.63 C 142.78 165.29 141.76 165.75 141.42 166.67 C 141.07 167.58 141.54 168.60 142.45 168.94 Z M 143.47 169.32 L 144.40 169.61 C 145.33 169.90 146.32 169.38 146.62 168.45 C 146.91 167.52 146.39 166.53 145.46 166.24 L 144.52 165.95 C 143.59 165.66 142.60 166.17 142.31 167.10 C 142.02 168.04 142.54 169.03 143.47 169.32 Z M 144.50 169.64 L 145.50 169.89 C 146.45 170.13 147.41 169.56 147.65 168.61 C 147.89 167.67 147.32 166.71 146.37 166.47 L 145.36 166.21 C 144.42 165.97 143.46 166.55 143.22 167.49 C 142.98 168.44 143.55 169.40 144.50 169.64 Z M 145.59 169.91 L 146.60 170.11 C 147.55 170.30 148.48 169.68 148.67 168.72 C 148.86 167.76 148.24 166.83 147.28 166.65 L 146.28 166.45 C 145.32 166.26 144.39 166.88 144.21 167.84 C 144.02 168.79 144.64 169.72 145.59 169.91 Z M 146.68 170.12 L 147.67 170.27 C 148.63 170.41 149.53 169.75 149.67 168.78 C 149.81 167.82 149.15 166.92 148.18 166.78 L 147.20 166.63 C 146.23 166.49 145.34 167.15 145.19 168.12 C 145.05 169.08 145.72 169.98 146.68 170.12 Z M 147.75 170.28 L 148.71 170.38 C 149.68 170.48 150.54 169.77 150.64 168.80 C 150.74 167.83 150.04 166.97 149.07 166.87 L 148.11 166.77 C 147.14 166.67 146.27 167.37 146.17 168.34 C 146.07 169.31 146.78 170.18 147.75 170.28 Z M 148.79 170.38 L 149.79 170.44 C 150.76 170.50 151.60 169.76 151.65 168.78 C 151.71 167.81 150.97 166.98 149.99 166.92 L 148.99 166.86 C 148.02 166.80 147.18 167.55 147.13 168.52 C 147.07 169.49 147.81 170.33 148.79 170.38 Z M 149.90 170.44 L 150.91 170.44 C 151.89 170.43 152.67 169.64 152.67 168.67 C 152.66 167.69 151.87 166.91 150.90 166.91 L 149.88 166.92 C 148.91 166.92 148.12 167.71 148.13 168.69 C 148.13 169.66 148.92 170.45 149.90 170.44 Z M 151.07 170.43 L 152.05 170.33 C 153.02 170.24 153.73 169.38 153.63 168.41 C 153.54 167.44 152.68 166.73 151.71 166.83 L 150.73 166.92 C 149.76 167.02 149.06 167.88 149.15 168.85 C 149.24 169.81 150.10 170.52 151.07 170.43 Z M 152.26 170.30 L 153.21 170.09 C 154.16 169.89 154.76 168.95 154.55 168.00 C 154.35 167.05 153.41 166.45 152.46 166.65 L 151.51 166.86 C 150.56 167.07 149.95 168.01 150.16 168.96 C 150.37 169.91 151.31 170.51 152.26 170.30 Z M 153.43 170.03 L 154.31 169.71 C 155.23 169.38 155.70 168.38 155.37 167.46 C 155.05 166.55 154.04 166.07 153.13 166.40 L 152.24 166.72 C 151.33 167.04 150.85 168.05 151.18 168.97 C 151.51 169.88 152.51 170.36 153.43 170.03 Z M 154.49 169.64 L 155.35 169.22 C 156.22 168.79 156.58 167.74 156.16 166.87 C 155.73 165.99 154.68 165.63 153.81 166.06 L 152.95 166.48 C 152.08 166.90 151.71 167.95 152.14 168.83 C 152.57 169.70 153.62 170.06 154.49 169.64 Z M 155.48 169.14 L 156.34 168.63 C 157.17 168.13 157.44 167.05 156.95 166.22 C 156.45 165.39 155.37 165.12 154.54 165.62 L 153.68 166.13 C 152.85 166.63 152.57 167.70 153.07 168.54 C 153.57 169.37 154.65 169.64 155.48 169.14 Z M 156.43 168.57 L 157.30 167.97 C 158.10 167.43 158.30 166.33 157.76 165.54 C 157.21 164.74 156.12 164.53 155.32 165.08 L 154.45 165.68 C 153.65 166.22 153.45 167.31 153.99 168.11 C 154.54 168.91 155.63 169.12 156.43 168.57 Z M 157.36 167.93 L 158.17 167.32 C 158.95 166.74 159.10 165.64 158.52 164.87 C 157.94 164.09 156.85 163.94 156.07 164.52 L 155.26 165.12 C 154.48 165.71 154.33 166.80 154.91 167.58 C 155.49 168.35 156.59 168.51 157.36 167.93 Z M 158.22 167.28 L 158.98 166.67 C 159.73 166.07 159.85 164.97 159.25 164.21 C 158.64 163.46 157.54 163.34 156.79 163.94 L 156.03 164.55 C 155.27 165.16 155.15 166.26 155.76 167.01 C 156.36 167.77 157.46 167.89 158.22 167.28 Z M 159.02 166.64 L 159.78 165.99 C 160.51 165.36 160.60 164.25 159.97 163.52 C 159.34 162.78 158.23 162.70 157.50 163.33 L 156.74 163.98 C 156.01 164.61 155.93 165.71 156.55 166.45 C 157.18 167.18 158.29 167.26 159.02 166.64 Z M 159.83 165.94 L 160.57 165.25 C 161.28 164.60 161.33 163.49 160.67 162.78 C 160.02 162.07 158.91 162.03 158.20 162.68 L 157.45 163.37 C 156.74 164.03 156.70 165.13 157.35 165.84 C 158.01 166.55 159.12 166.60 159.83 165.94 Z M 160.62 165.21 L 161.35 164.48 C 162.03 163.80 162.03 162.69 161.35 162.01 C 160.67 161.32 159.56 161.32 158.88 162.01 L 158.15 162.73 C 157.47 163.41 157.47 164.52 158.15 165.20 C 158.83 165.89 159.94 165.89 160.62 165.21 Z M 161.40 164.43 L 162.08 163.68 C 162.74 162.97 162.69 161.87 161.98 161.21 C 161.27 160.56 160.16 160.61 159.51 161.32 L 158.83 162.06 C 158.17 162.77 158.22 163.88 158.93 164.53 C 159.64 165.18 160.75 165.14 161.40 164.43 Z M 162.13 163.63 L 162.77 162.87 C 163.40 162.13 163.30 161.03 162.57 160.40 C 161.83 159.78 160.73 159.87 160.10 160.61 L 159.46 161.37 C 158.84 162.11 158.93 163.21 159.67 163.84 C 160.40 164.46 161.51 164.37 162.13 163.63 Z M 162.82 162.81 L 163.43 162.03 C 164.03 161.26 163.89 160.17 163.13 159.57 C 162.37 158.98 161.27 159.11 160.68 159.88 L 160.06 160.66 C 159.47 161.43 159.60 162.52 160.36 163.12 C 161.13 163.71 162.22 163.58 162.82 162.81 Z M 163.47 161.97 L 164.06 161.16 C 164.62 160.38 164.45 159.29 163.66 158.72 C 162.88 158.16 161.79 158.33 161.22 159.11 L 160.64 159.93 C 160.07 160.71 160.25 161.80 161.03 162.37 C 161.81 162.93 162.91 162.76 163.47 161.97 Z M 164.09 161.12 L 164.65 160.28 C 165.19 159.48 164.98 158.40 164.18 157.86 C 163.38 157.32 162.29 157.53 161.75 158.33 L 161.19 159.16 C 160.65 159.96 160.86 161.05 161.66 161.59 C 162.47 162.13 163.55 161.92 164.09 161.12 Z M 164.68 160.24 L 165.21 159.39 C 165.73 158.57 165.48 157.49 164.66 156.98 C 163.85 156.47 162.77 156.71 162.25 157.53 L 161.72 158.38 C 161.21 159.19 161.45 160.27 162.27 160.79 C 163.09 161.30 164.17 161.06 164.68 160.24 Z M 165.24 159.35 L 165.75 158.49 C 166.24 157.65 165.96 156.58 165.13 156.09 C 164.30 155.60 163.22 155.88 162.73 156.71 L 162.23 157.57 C 161.74 158.41 162.01 159.48 162.84 159.97 C 163.68 160.46 164.75 160.18 165.24 159.35 Z M 165.77 158.45 L 166.25 157.57 C 166.72 156.72 166.41 155.66 165.57 155.19 C 164.72 154.73 163.66 155.03 163.19 155.88 L 162.71 156.75 C 162.24 157.60 162.55 158.66 163.39 159.13 C 164.24 159.60 165.30 159.29 165.77 158.45 Z M 166.28 157.53 L 166.74 156.64 C 167.18 155.78 166.85 154.73 165.99 154.28 C 165.13 153.84 164.07 154.17 163.63 155.03 L 163.17 155.92 C 162.72 156.78 163.06 157.83 163.92 158.28 C 164.78 158.72 165.83 158.39 166.28 157.53 Z M 166.76 156.60 L 167.20 155.70 C 167.62 154.83 167.26 153.79 166.39 153.36 C 165.52 152.94 164.47 153.30 164.05 154.17 L 163.61 155.07 C 163.18 155.94 163.55 156.99 164.42 157.41 C 165.29 157.84 166.33 157.47 166.76 156.60 Z M 167.21 155.67 L 167.64 154.74 C 168.04 153.86 167.65 152.82 166.77 152.42 C 165.89 152.02 164.85 152.40 164.45 153.28 L 164.03 154.21 C 163.62 155.09 164.01 156.13 164.89 156.53 C 165.77 156.93 166.81 156.55 167.21 155.67 Z M 167.66 154.70 L 168.06 153.75 C 168.45 152.86 168.03 151.83 167.14 151.45 C 166.25 151.07 165.22 151.48 164.84 152.37 L 164.43 153.32 C 164.05 154.21 164.46 155.25 165.35 155.63 C 166.25 156.01 167.28 155.59 167.66 154.70 Z M 168.09 153.71 L 168.46 152.76 C 168.81 151.86 168.37 150.83 167.46 150.48 C 166.56 150.12 165.54 150.57 165.18 151.47 L 164.81 152.42 C 164.46 153.33 164.90 154.35 165.81 154.70 C 166.71 155.06 167.73 154.61 168.09 153.71 Z M 168.48 152.70 L 168.82 151.76 C 169.14 150.85 168.66 149.84 167.74 149.52 C 166.82 149.19 165.81 149.67 165.49 150.59 L 165.16 151.53 C 164.84 152.45 165.32 153.46 166.24 153.78 C 167.15 154.10 168.16 153.62 168.48 152.70 Z M 168.84 151.69 L 169.12 150.77 C 169.41 149.84 168.88 148.85 167.95 148.57 C 167.02 148.28 166.03 148.81 165.75 149.74 L 165.46 150.66 C 165.18 151.59 165.70 152.58 166.64 152.87 C 167.57 153.15 168.56 152.63 168.84 151.69 Z M 169.15 150.68 L 169.40 149.70 C 169.63 148.75 169.05 147.79 168.11 147.55 C 167.16 147.32 166.20 147.90 165.96 148.84 L 165.72 149.83 C 165.48 150.78 166.06 151.74 167.01 151.97 C 167.96 152.21 168.92 151.63 169.15 150.68 Z M 169.42 149.60 L 169.61 148.58 C 169.79 147.61 169.16 146.69 168.19 146.51 C 167.23 146.33 166.31 146.96 166.13 147.93 L 165.94 148.95 C 165.76 149.91 166.39 150.83 167.35 151.01 C 168.32 151.19 169.24 150.56 169.42 149.60 Z M 169.63 148.48 L 169.76 147.49 C 169.89 146.52 169.20 145.63 168.23 145.50 C 167.26 145.37 166.36 146.06 166.24 147.03 L 166.11 148.02 C 165.98 148.99 166.67 149.89 167.64 150.01 C 168.61 150.14 169.50 149.45 169.63 148.48 Z M 169.77 147.42 L 169.86 146.46 C 169.94 145.48 169.22 144.61 168.24 144.53 C 167.26 144.44 166.39 145.17 166.31 146.15 L 166.22 147.11 C 166.14 148.09 166.86 148.95 167.85 149.04 C 168.83 149.12 169.69 148.40 169.77 147.42 Z M 169.87 146.40 L 169.92 145.42 C 169.97 144.44 169.22 143.60 168.23 143.55 C 167.25 143.49 166.41 144.25 166.35 145.23 L 166.30 146.21 C 166.25 147.19 167.00 148.03 167.99 148.09 C 168.97 148.14 169.81 147.38 169.87 146.40 Z M 169.92 145.35 L 169.94 144.33 C 169.95 143.34 169.16 142.53 168.17 142.52 C 167.18 142.50 166.37 143.29 166.36 144.28 L 166.35 145.30 C 166.33 146.29 167.12 147.10 168.11 147.12 C 169.10 147.13 169.91 146.34 169.92 145.35 Z M 169.94 144.18 L 169.87 143.19 C 169.80 142.21 168.95 141.46 167.96 141.53 C 166.97 141.59 166.23 142.45 166.29 143.44 L 166.36 144.43 C 166.43 145.41 167.28 146.16 168.27 146.09 C 169.26 146.03 170.00 145.17 169.94 144.18 Z M 169.84 142.97 L 169.66 142.02 C 169.47 141.04 168.52 140.41 167.55 140.60 C 166.58 140.79 165.94 141.73 166.13 142.70 L 166.32 143.66 C 166.51 144.63 167.45 145.27 168.42 145.08 C 169.40 144.89 170.03 143.94 169.84 142.97 Z M 169.58 141.73 L 169.24 140.83 C 168.90 139.90 167.86 139.42 166.93 139.77 C 166.00 140.11 165.53 141.15 165.87 142.08 L 166.21 142.98 C 166.55 143.92 167.59 144.39 168.52 144.05 C 169.45 143.70 169.93 142.67 169.58 141.73 Z M 169.12 140.56 L 168.64 139.71 C 168.14 138.85 167.05 138.54 166.18 139.04 C 165.32 139.53 165.02 140.63 165.51 141.49 L 165.99 142.34 C 166.49 143.21 167.59 143.51 168.45 143.02 C 169.31 142.53 169.61 141.43 169.12 140.56 Z M 168.49 139.49 L 167.87 138.70 C 167.26 137.91 166.13 137.78 165.34 138.39 C 164.56 139.00 164.42 140.13 165.03 140.92 L 165.65 141.71 C 166.26 142.49 167.40 142.63 168.18 142.02 C 168.97 141.41 169.10 140.28 168.49 139.49 Z M 167.72 138.52 L 166.98 137.80 C 166.27 137.10 165.13 137.12 164.43 137.83 C 163.74 138.54 163.75 139.68 164.46 140.38 L 165.19 141.10 C 165.90 141.79 167.04 141.78 167.74 141.07 C 168.44 140.36 168.43 139.22 167.72 138.52 Z M 166.82 137.66 L 166.04 137.06 C 165.25 136.46 164.12 136.60 163.51 137.39 C 162.91 138.18 163.06 139.32 163.85 139.92 L 164.62 140.52 C 165.41 141.13 166.54 140.98 167.15 140.19 C 167.76 139.40 167.61 138.27 166.82 137.66 Z M 165.89 136.96 L 165.05 136.44 C 164.21 135.92 163.09 136.18 162.57 137.03 C 162.05 137.88 162.31 138.99 163.16 139.51 L 164.00 140.03 C 164.85 140.55 165.96 140.29 166.48 139.44 C 167.00 138.59 166.74 137.48 165.89 136.96 Z M 164.92 136.37 L 164.02 135.91 C 163.13 135.47 162.05 135.83 161.60 136.72 C 161.15 137.61 161.51 138.69 162.40 139.14 L 163.30 139.59 C 164.19 140.04 165.27 139.68 165.72 138.79 C 166.17 137.90 165.81 136.81 164.92 136.37 Z M 163.90 135.86 L 162.95 135.47 C 162.03 135.09 160.98 135.52 160.60 136.44 C 160.21 137.36 160.65 138.42 161.57 138.80 L 162.52 139.19 C 163.44 139.58 164.50 139.14 164.88 138.22 C 165.26 137.30 164.82 136.24 163.90 135.86 Z M 162.86 135.43 L 161.92 135.10 C 160.98 134.78 159.95 135.27 159.62 136.21 C 159.29 137.15 159.79 138.18 160.73 138.51 L 161.67 138.84 C 162.61 139.16 163.64 138.67 163.96 137.73 C 164.29 136.79 163.80 135.76 162.86 135.43 Z M 161.84 135.08 L 160.89 134.80 C 159.94 134.51 158.94 135.06 158.65 136.01 C 158.37 136.97 158.91 137.97 159.87 138.25 L 160.81 138.53 C 161.77 138.82 162.77 138.27 163.05 137.32 C 163.34 136.37 162.79 135.36 161.84 135.08 Z M 160.82 134.78 L 159.85 134.53 C 158.89 134.29 157.91 134.87 157.66 135.84 C 157.42 136.80 158.00 137.78 158.97 138.03 L 159.94 138.27 C 160.90 138.52 161.88 137.93 162.13 136.97 C 162.37 136.00 161.79 135.02 160.82 134.78 Z M 159.79 134.52 L 158.80 134.31 C 157.82 134.10 156.87 134.71 156.66 135.69 C 156.45 136.66 157.07 137.62 158.04 137.83 L 159.03 138.04 C 160.00 138.25 160.96 137.63 161.17 136.66 C 161.38 135.69 160.76 134.73 159.79 134.52 Z M 158.74 134.30 L 157.76 134.12 C 156.78 133.94 155.84 134.58 155.66 135.56 C 155.48 136.54 156.13 137.48 157.11 137.66 L 158.09 137.84 C 159.07 138.02 160.01 137.37 160.19 136.39 C 160.37 135.41 159.72 134.48 158.74 134.30 Z M 157.71 134.11 L 156.76 133.96 C 155.78 133.81 154.86 134.48 154.71 135.46 C 154.56 136.44 155.23 137.36 156.21 137.51 L 157.15 137.66 C 158.13 137.81 159.05 137.14 159.21 136.16 C 159.36 135.18 158.69 134.26 157.71 134.11 Z M 156.71 133.96 L 155.75 133.84 C 154.76 133.71 153.86 134.40 153.74 135.39 C 153.61 136.37 154.31 137.27 155.29 137.39 L 156.26 137.52 C 157.24 137.64 158.14 136.95 158.26 135.97 C 158.39 134.98 157.70 134.09 156.71 133.96 Z M 155.70 133.83 L 154.70 133.73 C 153.72 133.63 152.84 134.35 152.74 135.33 C 152.64 136.31 153.36 137.19 154.34 137.29 L 155.34 137.39 C 156.32 137.49 157.20 136.78 157.30 135.79 C 157.40 134.81 156.68 133.93 155.70 133.83 Z M 154.66 133.73 L 153.62 133.65 C 152.63 133.58 151.78 134.31 151.70 135.30 C 151.63 136.28 152.36 137.14 153.35 137.22 L 154.38 137.29 C 155.37 137.37 156.23 136.63 156.30 135.65 C 156.38 134.66 155.64 133.81 154.66 133.73 Z M 153.58 133.65 L 152.54 133.60 C 151.55 133.55 150.72 134.30 150.66 135.29 C 150.61 136.27 151.37 137.11 152.35 137.16 L 153.39 137.21 C 154.37 137.27 155.21 136.51 155.26 135.53 C 155.31 134.54 154.56 133.70 153.58 133.65 Z M 152.50 133.60 L 151.48 133.57 C 150.50 133.54 149.68 134.31 149.65 135.29 C 149.61 136.27 150.38 137.09 151.36 137.12 L 152.39 137.16 C 153.37 137.19 154.19 136.42 154.22 135.44 C 154.25 134.46 153.48 133.64 152.50 133.60 Z M 151.46 133.57 L 150.43 133.56 C 149.45 133.54 148.64 134.31 148.62 135.29 C 148.60 136.27 149.38 137.08 150.36 137.10 L 151.39 137.12 C 152.37 137.14 153.18 136.36 153.19 135.38 C 153.21 134.40 152.44 133.59 151.46 133.57 Z M 150.41 133.56 L 149.39 133.55 C 148.42 133.54 147.62 134.32 147.61 135.30 C 147.60 136.27 148.38 137.07 149.36 137.08 L 150.38 137.09 C 151.35 137.10 152.15 136.32 152.16 135.34 C 152.17 134.37 151.38 133.57 150.41 133.56 Z M 149.38 133.56 L 148.40 133.55 C 147.43 133.55 146.64 134.34 146.63 135.31 C 146.63 136.28 147.41 137.07 148.39 137.07 L 149.37 137.08 C 150.34 137.08 151.13 136.29 151.13 135.32 C 151.14 134.35 150.35 133.56 149.38 133.56 Z M 148.39 133.56 L 147.42 133.56 C 146.45 133.56 145.66 134.34 145.66 135.31 C 145.66 136.28 146.45 137.06 147.42 137.06 L 148.39 137.06 C 149.36 137.06 150.14 136.28 150.14 135.31 C 150.14 134.35 149.36 133.56 148.39 133.56 Z M 147.41 133.58 L 146.32 133.58 C 145.36 133.58 144.58 134.36 144.59 135.32 C 144.59 136.27 145.36 137.05 146.32 137.05 L 147.42 137.05 C 148.38 137.05 149.15 136.27 149.15 135.31 C 149.15 134.35 148.37 133.57 147.41 133.58 Z M 146.31 133.60 L 145.31 133.60 C 144.36 133.61 143.60 134.38 143.60 135.33 C 143.61 136.28 144.38 137.04 145.33 137.03 L 146.33 137.03 C 147.28 137.02 148.04 136.25 148.04 135.30 C 148.03 134.36 147.26 133.59 146.31 133.60 Z M 145.29 133.63 L 144.35 133.64 C 143.41 133.65 142.67 134.42 142.68 135.36 C 142.70 136.30 143.47 137.04 144.40 137.03 L 145.34 137.01 C 146.28 137.00 147.03 136.23 147.01 135.29 C 147.00 134.36 146.23 133.61 145.29 133.63 Z M 144.33 133.66 L 143.39 133.69 C 142.47 133.72 141.74 134.49 141.77 135.41 C 141.80 136.33 142.57 137.06 143.49 137.03 L 144.42 137.01 C 145.35 136.98 146.07 136.21 146.05 135.28 C 146.02 134.36 145.25 133.63 144.33 133.66 Z M 143.36 133.71 L 142.34 133.76 C 141.43 133.81 140.73 134.59 140.78 135.50 C 140.82 136.41 141.60 137.11 142.51 137.06 L 143.53 137.01 C 144.44 136.97 145.14 136.19 145.10 135.28 C 145.05 134.37 144.27 133.66 143.36 133.71 Z M 142.29 133.79 L 141.29 133.87 C 140.39 133.95 139.72 134.73 139.80 135.63 C 139.87 136.53 140.66 137.20 141.56 137.12 L 142.57 137.04 C 143.46 136.97 144.13 136.18 144.06 135.28 C 143.98 134.38 143.19 133.71 142.29 133.79 Z M 141.22 133.90 L 140.24 134.02 C 139.35 134.14 138.73 134.95 138.85 135.83 C 138.96 136.72 139.77 137.34 140.65 137.22 L 141.63 137.10 C 142.52 136.98 143.14 136.17 143.03 135.29 C 142.91 134.41 142.10 133.78 141.22 133.90 Z M 140.14 134.06 L 139.16 134.25 C 138.30 134.41 137.73 135.25 137.90 136.12 C 138.07 136.98 138.90 137.55 139.77 137.38 L 140.75 137.19 C 141.61 137.03 142.18 136.19 142.01 135.32 C 141.85 134.46 141.01 133.89 140.14 134.06 Z M 139.07 134.28 L 138.10 134.53 C 137.25 134.75 136.74 135.62 136.96 136.46 C 137.18 137.31 138.04 137.82 138.89 137.60 L 139.86 137.35 C 140.71 137.13 141.22 136.26 141.00 135.42 C 140.78 134.57 139.92 134.06 139.07 134.28 Z M 138.03 134.56 L 137.08 134.85 C 136.25 135.11 135.78 135.99 136.04 136.82 C 136.29 137.65 137.17 138.12 138.01 137.86 L 138.95 137.57 C 139.79 137.32 140.25 136.44 140.00 135.60 C 139.74 134.77 138.86 134.30 138.03 134.56 Z M 137.05 134.87 L 136.21 135.15 C 135.39 135.42 134.94 136.30 135.21 137.13 C 135.48 137.95 136.37 138.39 137.19 138.12 L 138.03 137.84 C 138.86 137.57 139.30 136.69 139.03 135.87 C 138.76 135.04 137.87 134.60 137.05 134.87 Z"
      fill="black"
      fill-rule="nonzero" /></svg>