<svg xmlns="http://www.w3.org/2000/svg" width="300" height="300" viewBox="0 0 300 300">
<path d="M 159.60 142.77 L 158.98 141.95 C 158.42 141.21 157.38 141.06 156.64 141.62 C 155.90 142.17 155.75 143.22 156.31 143.96 L 156.93 144.78 C 157.48 145.52 158.53 145.67 159.27 145.12 C 160.01 144.56 160.15 143.51 159.60 142.77 Z M 158.97 141.94 L 158.35 141.13 C 157.80 140.39 156.75 140.25 156.01 140.81 C 155.28 141.37 155.13 142.42 155.69 143.15 L 156.31 143.97 C 156.87 144.70 157.92 144.84 158.65 144.28 C 159.39 143.73 159.53 142.68 158.97 141.94 Z M 158.34 141.11 L 157.73 140.32 C 157.16 139.59 156.11 139.46 155.38 140.03 C 154.65 140.60 154.52 141.65 155.09 142.38 L 155.70 143.17 C 156.27 143.90 157.32 144.03 158.05 143.46 C 158.78 142.89 158.91 141.84 158.34 141.11 Z M 157.71 140.30 L 157.10 139.54 C 156.51 138.83 155.46 138.72 154.74 139.30 C 154.03 139.88 153.92 140.93 154.50 141.65 L 155.11 142.40 C 155.69 143.12 156.74 143.23 157.46 142.65 C 158.18 142.07 158.29 141.02 157.71 140.30 Z M 157.07 139.51 L 156.42 138.75 C 155.82 138.05 154.76 137.97 154.06 138.57 C 153.36 139.17 153.28 140.23 153.88 140.93 L 154.53 141.69 C 155.13 142.39 156.18 142.47 156.89 141.87 C 157.59 141.26 157.67 140.21 157.07 139.51 Z M 156.38 138.70 L 155.69 137.96 C 155.05 137.28 153.99 137.25 153.31 137.88 C 152.64 138.51 152.60 139.57 153.23 140.25 L 153.92 140.99 C 154.56 141.66 155.62 141.70 156.30 141.07 C 156.97 140.43 157.01 139.37 156.38 138.70 Z M 155.62 137.88 L 154.91 137.21 C 154.24 136.56 153.17 136.59 152.53 137.26 C 151.89 137.94 151.91 139.00 152.59 139.65 L 153.30 140.32 C 153.97 140.97 155.04 140.94 155.68 140.27 C 156.32 139.59 156.30 138.53 155.62 137.88 Z M 154.83 137.12 L 154.07 136.49 C 153.35 135.90 152.28 136.00 151.69 136.72 C 151.09 137.44 151.19 138.50 151.91 139.10 L 152.67 139.73 C 153.39 140.32 154.45 140.22 155.05 139.50 C 155.65 138.78 155.54 137.72 154.83 137.12 Z M 153.97 136.41 L 153.15 135.83 C 152.38 135.29 151.33 135.47 150.78 136.24 C 150.24 137.00 150.42 138.06 151.19 138.60 L 152.01 139.18 C 152.77 139.73 153.83 139.54 154.38 138.78 C 154.92 138.01 154.73 136.95 153.97 136.41 Z M 153.05 135.76 L 152.18 135.23 C 151.37 134.74 150.33 135.00 149.84 135.81 C 149.35 136.61 149.61 137.66 150.42 138.15 L 151.29 138.68 C 152.09 139.17 153.14 138.91 153.63 138.10 C 154.12 137.29 153.86 136.25 153.05 135.76 Z M 152.09 135.17 L 151.18 134.70 C 150.34 134.27 149.31 134.60 148.87 135.44 C 148.44 136.28 148.77 137.31 149.61 137.75 L 150.51 138.21 C 151.35 138.65 152.38 138.32 152.82 137.48 C 153.25 136.64 152.93 135.60 152.09 135.17 Z M 151.08 134.65 L 150.18 134.25 C 149.31 133.87 148.30 134.27 147.91 135.14 C 147.53 136.01 147.93 137.03 148.81 137.41 L 149.71 137.80 C 150.58 138.18 151.59 137.78 151.97 136.91 C 152.35 136.04 151.96 135.03 151.08 134.65 Z M 150.07 134.20 L 149.17 133.88 C 148.27 133.57 147.28 134.04 146.96 134.94 C 146.65 135.84 147.12 136.83 148.02 137.15 L 148.92 137.46 C 149.82 137.78 150.81 137.31 151.13 136.40 C 151.44 135.50 150.97 134.51 150.07 134.20 Z M 149.03 133.83 L 148.12 133.60 C 147.19 133.36 146.24 133.92 146.00 134.85 C 145.76 135.79 146.33 136.73 147.26 136.97 L 148.17 137.20 C 149.10 137.44 150.04 136.88 150.28 135.95 C 150.52 135.01 149.96 134.07 149.03 133.83 Z M 147.97 133.56 L 147.01 133.40 C 146.05 133.25 145.16 133.90 145.00 134.85 C 144.85 135.81 145.50 136.71 146.45 136.86 L 147.41 137.01 C 148.37 137.17 149.26 136.52 149.42 135.56 C 149.57 134.61 148.92 133.71 147.97 133.56 Z M 146.88 133.38 L 145.81 133.29 C 144.84 133.20 143.99 133.92 143.91 134.89 C 143.82 135.86 144.54 136.71 145.51 136.79 L 146.58 136.88 C 147.55 136.97 148.40 136.25 148.48 135.28 C 148.57 134.31 147.85 133.46 146.88 133.38 Z M 145.72 133.27 L 144.76 133.24 C 143.78 133.20 142.96 133.96 142.92 134.94 C 142.89 135.92 143.65 136.74 144.63 136.77 L 145.60 136.81 C 146.57 136.84 147.39 136.08 147.43 135.10 C 147.46 134.13 146.70 133.31 145.72 133.27 Z M 144.69 133.23 L 143.73 133.23 C 142.74 133.23 141.95 134.03 141.95 135.01 C 141.95 135.99 142.75 136.78 143.73 136.78 L 144.69 136.78 C 145.68 136.78 146.47 135.99 146.47 135.00 C 146.47 134.02 145.67 133.23 144.69 133.23 Z M 143.65 133.22 L 142.64 133.27 C 141.65 133.31 140.89 134.14 140.93 135.13 C 140.97 136.11 141.80 136.87 142.79 136.83 L 143.80 136.79 C 144.79 136.75 145.55 135.91 145.51 134.93 C 145.47 133.94 144.64 133.18 143.65 133.22 Z M 142.55 133.26 L 141.51 133.36 C 140.53 133.45 139.80 134.33 139.89 135.31 C 139.99 136.30 140.86 137.02 141.84 136.93 L 142.88 136.83 C 143.87 136.74 144.59 135.87 144.50 134.88 C 144.41 133.90 143.53 133.17 142.55 133.26 Z M 141.40 133.37 L 140.37 133.53 C 139.39 133.68 138.72 134.60 138.87 135.59 C 139.03 136.57 139.95 137.24 140.93 137.09 L 141.96 136.92 C 142.94 136.77 143.61 135.85 143.46 134.87 C 143.30 133.89 142.38 133.21 141.40 133.37 Z M 140.23 133.55 L 139.20 133.80 C 138.23 134.03 137.63 135.00 137.86 135.98 C 138.09 136.95 139.07 137.54 140.04 137.31 L 141.07 137.06 C 142.04 136.83 142.64 135.86 142.41 134.89 C 142.18 133.92 141.20 133.32 140.23 133.55 Z M 139.04 133.84 L 138.02 134.18 C 137.07 134.50 136.56 135.52 136.88 136.47 C 137.20 137.42 138.22 137.93 139.17 137.61 L 140.19 137.27 C 141.14 136.95 141.65 135.93 141.34 134.98 C 141.02 134.03 139.99 133.52 139.04 133.84 Z M 137.89 134.23 L 136.94 134.63 C 136.02 135.02 135.59 136.09 135.98 137.01 C 136.37 137.93 137.44 138.36 138.36 137.97 L 139.31 137.57 C 140.23 137.17 140.66 136.11 140.27 135.19 C 139.87 134.26 138.81 133.83 137.89 134.23 Z M 136.83 134.68 L 135.95 135.12 C 135.06 135.58 134.70 136.67 135.16 137.57 C 135.61 138.46 136.70 138.82 137.60 138.36 L 138.47 137.92 C 139.37 137.47 139.72 136.37 139.27 135.48 C 138.81 134.58 137.72 134.23 136.83 134.68 Z M 135.86 135.17 L 135.07 135.63 C 134.20 136.13 133.91 137.25 134.41 138.12 C 134.92 138.99 136.03 139.28 136.90 138.78 L 137.69 138.32 C 138.56 137.81 138.86 136.70 138.35 135.83 C 137.85 134.96 136.73 134.66 135.86 135.17 Z M 135.00 135.67 L 134.14 136.23 C 133.30 136.77 133.06 137.90 133.60 138.75 C 134.15 139.59 135.28 139.83 136.13 139.29 L 136.98 138.73 C 137.83 138.18 138.07 137.05 137.52 136.21 C 136.97 135.36 135.84 135.12 135.00 135.67 Z M 134.06 136.28 L 133.24 136.87 C 132.43 137.46 132.24 138.60 132.83 139.42 C 133.42 140.24 134.56 140.42 135.38 139.83 L 136.20 139.23 C 137.02 138.64 137.20 137.50 136.61 136.69 C 136.02 135.87 134.88 135.69 134.06 136.28 Z M 133.18 136.92 L 132.43 137.51 C 131.64 138.13 131.50 139.28 132.13 140.07 C 132.75 140.87 133.90 141.00 134.69 140.38 L 135.44 139.78 C 136.23 139.16 136.37 138.01 135.75 137.22 C 135.12 136.43 133.97 136.29 133.18 136.92 Z M 132.40 137.53 L 131.66 138.14 C 130.88 138.78 130.77 139.93 131.41 140.71 C 132.05 141.49 133.20 141.60 133.98 140.96 L 134.72 140.35 C 135.50 139.71 135.61 138.56 134.97 137.78 C 134.33 137.00 133.18 136.89 132.40 137.53 Z M 131.66 138.14 L 130.90 138.77 C 130.12 139.41 130.01 140.56 130.66 141.34 C 131.30 142.12 132.46 142.23 133.23 141.58 L 133.99 140.96 C 134.77 140.31 134.88 139.16 134.23 138.38 C 133.59 137.60 132.43 137.50 131.66 138.14 Z M 130.88 138.78 L 130.11 139.43 C 129.35 140.09 129.25 141.24 129.91 142.01 C 130.56 142.78 131.72 142.88 132.49 142.22 L 133.25 141.57 C 134.02 140.91 134.12 139.76 133.46 138.99 C 132.81 138.22 131.65 138.13 130.88 138.78 Z M 130.08 139.47 L 129.32 140.14 C 128.57 140.82 128.51 141.98 129.18 142.73 C 129.86 143.48 131.02 143.54 131.77 142.87 L 132.52 142.19 C 133.28 141.51 133.34 140.36 132.66 139.60 C 131.99 138.85 130.83 138.79 130.08 139.47 Z M 129.27 140.19 L 128.55 140.90 C 127.82 141.60 127.81 142.76 128.52 143.49 C 129.22 144.21 130.38 144.22 131.11 143.52 L 131.83 142.81 C 132.55 142.11 132.56 140.95 131.86 140.22 C 131.15 139.50 129.99 139.49 129.27 140.19 Z M 128.49 140.96 L 127.81 141.69 C 127.12 142.43 127.16 143.59 127.90 144.28 C 128.64 144.97 129.80 144.92 130.49 144.18 L 131.17 143.46 C 131.86 142.72 131.82 141.56 131.08 140.87 C 130.34 140.18 129.18 140.22 128.49 140.96 Z M 127.76 141.74 L 127.11 142.49 C 126.45 143.26 126.53 144.42 127.30 145.08 C 128.07 145.74 129.23 145.65 129.89 144.89 L 130.54 144.13 C 131.20 143.36 131.11 142.21 130.34 141.55 C 129.58 140.89 128.42 140.97 127.76 141.74 Z M 127.07 142.53 L 126.44 143.31 C 125.80 144.10 125.92 145.26 126.71 145.89 C 127.50 146.53 128.65 146.41 129.29 145.63 L 129.92 144.84 C 130.56 144.06 130.44 142.90 129.65 142.26 C 128.87 141.63 127.71 141.75 127.07 142.53 Z M 126.42 143.34 L 125.81 144.12 C 125.19 144.92 125.34 146.07 126.14 146.70 C 126.94 147.32 128.09 147.17 128.71 146.37 L 129.31 145.60 C 129.94 144.79 129.79 143.64 128.99 143.02 C 128.19 142.40 127.04 142.54 126.42 143.34 Z M 125.79 144.15 L 125.19 144.95 C 124.59 145.77 124.76 146.92 125.57 147.52 C 126.39 148.13 127.54 147.96 128.14 147.14 L 128.74 146.34 C 129.34 145.53 129.17 144.38 128.36 143.77 C 127.54 143.17 126.39 143.34 125.79 144.15 Z M 125.16 144.99 L 124.58 145.82 C 124.00 146.65 124.20 147.79 125.03 148.38 C 125.86 148.96 127.01 148.76 127.59 147.93 L 128.17 147.10 C 128.75 146.27 128.55 145.13 127.72 144.55 C 126.89 143.96 125.75 144.16 125.16 144.99 Z M 124.55 145.86 L 124.00 146.71 C 123.44 147.55 123.67 148.69 124.52 149.25 C 125.37 149.81 126.51 149.57 127.07 148.73 L 127.62 147.88 C 128.18 147.04 127.94 145.90 127.10 145.34 C 126.25 144.78 125.11 145.02 124.55 145.86 Z M 123.96 146.76 L 123.44 147.60 C 122.91 148.47 123.19 149.60 124.05 150.13 C 124.92 150.66 126.05 150.39 126.58 149.53 L 127.10 148.68 C 127.63 147.81 127.36 146.68 126.49 146.15 C 125.63 145.62 124.50 145.89 123.96 146.76 Z M 123.42 147.65 L 122.92 148.52 C 122.42 149.40 122.72 150.52 123.60 151.03 C 124.48 151.53 125.61 151.23 126.11 150.34 L 126.61 149.48 C 127.11 148.60 126.81 147.47 125.92 146.97 C 125.04 146.46 123.92 146.77 123.42 147.65 Z M 122.89 148.56 L 122.42 149.45 C 121.94 150.34 122.28 151.46 123.17 151.94 C 124.07 152.42 125.19 152.08 125.67 151.18 L 126.14 150.30 C 126.62 149.40 126.28 148.29 125.38 147.81 C 124.49 147.33 123.37 147.67 122.89 148.56 Z M 122.40 149.49 L 121.95 150.38 C 121.49 151.29 121.86 152.40 122.77 152.86 C 123.68 153.31 124.78 152.95 125.24 152.04 L 125.69 151.14 C 126.14 150.23 125.78 149.13 124.87 148.67 C 123.96 148.21 122.85 148.58 122.40 149.49 Z M 121.93 150.42 L 121.50 151.32 C 121.07 152.24 121.46 153.34 122.38 153.77 C 123.30 154.21 124.40 153.82 124.83 152.90 L 125.26 152.00 C 125.69 151.08 125.30 149.98 124.38 149.54 C 123.46 149.11 122.36 149.50 121.93 150.42 Z M 121.48 151.36 L 121.08 152.27 C 120.66 153.20 121.08 154.29 122.01 154.71 C 122.94 155.12 124.03 154.70 124.44 153.78 L 124.85 152.86 C 125.27 151.93 124.85 150.84 123.92 150.43 C 122.99 150.01 121.90 150.43 121.48 151.36 Z M 121.06 152.30 L 120.67 153.23 C 120.27 154.17 120.71 155.25 121.65 155.65 C 122.59 156.04 123.67 155.60 124.07 154.67 L 124.46 153.74 C 124.85 152.80 124.42 151.72 123.48 151.32 C 122.54 150.93 121.46 151.37 121.06 152.30 Z M 120.65 153.26 L 120.29 154.18 C 119.91 155.13 120.37 156.20 121.32 156.58 C 122.26 156.96 123.34 156.50 123.71 155.55 L 124.08 154.63 C 124.46 153.69 124.00 152.61 123.05 152.23 C 122.11 151.86 121.03 152.32 120.65 153.26 Z M 120.27 154.22 L 119.93 155.13 C 119.57 156.09 120.05 157.15 121.00 157.51 C 121.96 157.87 123.02 157.39 123.38 156.44 L 123.73 155.52 C 124.09 154.56 123.61 153.50 122.65 153.14 C 121.70 152.78 120.63 153.26 120.27 154.22 Z M 119.91 155.17 L 119.58 156.10 C 119.24 157.07 119.74 158.12 120.70 158.46 C 121.67 158.80 122.72 158.30 123.06 157.34 L 123.40 156.40 C 123.74 155.44 123.23 154.38 122.27 154.04 C 121.31 153.70 120.26 154.21 119.91 155.17 Z M 119.57 156.14 L 119.25 157.11 C 118.93 158.07 119.45 159.12 120.42 159.44 C 121.39 159.76 122.43 159.24 122.75 158.27 L 123.07 157.30 C 123.40 156.34 122.87 155.29 121.91 154.97 C 120.94 154.65 119.89 155.17 119.57 156.14 Z M 119.24 157.14 L 118.94 158.11 C 118.63 159.08 119.18 160.12 120.15 160.42 C 121.12 160.72 122.16 160.18 122.46 159.21 L 122.76 158.24 C 123.07 157.26 122.52 156.23 121.55 155.92 C 120.58 155.62 119.54 156.16 119.24 157.14 Z M 118.92 158.14 L 118.64 159.11 C 118.36 160.09 118.93 161.11 119.91 161.40 C 120.89 161.68 121.91 161.12 122.19 160.14 L 122.47 159.17 C 122.76 158.19 122.19 157.17 121.21 156.88 C 120.23 156.60 119.21 157.16 118.92 158.14 Z M 118.63 159.15 L 118.38 160.13 C 118.12 161.12 118.71 162.13 119.69 162.39 C 120.68 162.65 121.69 162.06 121.95 161.07 L 122.21 160.09 C 122.47 159.11 121.88 158.10 120.89 157.84 C 119.90 157.58 118.89 158.17 118.63 159.15 Z M 118.36 160.19 L 118.14 161.16 C 117.91 162.16 118.53 163.15 119.52 163.38 C 120.52 163.61 121.51 162.99 121.74 161.99 L 121.96 161.02 C 122.19 160.02 121.57 159.03 120.58 158.80 C 119.58 158.57 118.59 159.19 118.36 160.19 Z M 118.12 161.23 L 117.94 162.21 C 117.75 163.21 118.40 164.18 119.41 164.37 C 120.41 164.56 121.38 163.90 121.57 162.90 L 121.75 161.92 C 121.94 160.92 121.28 159.95 120.28 159.76 C 119.28 159.57 118.31 160.23 118.12 161.23 Z M 117.92 162.30 L 117.78 163.31 C 117.63 164.32 118.33 165.26 119.34 165.40 C 120.35 165.55 121.29 164.85 121.43 163.84 L 121.58 162.82 C 121.72 161.81 121.02 160.87 120.01 160.73 C 119.00 160.58 118.07 161.28 117.92 162.30 Z M 117.77 163.39 L 117.67 164.39 C 117.57 165.40 118.31 166.31 119.32 166.41 C 120.34 166.51 121.24 165.77 121.35 164.75 L 121.44 163.76 C 121.55 162.74 120.80 161.84 119.79 161.74 C 118.77 161.63 117.87 162.38 117.77 163.39 Z M 117.66 164.45 L 117.60 165.43 C 117.53 166.45 118.31 167.33 119.32 167.39 C 120.34 167.46 121.22 166.69 121.29 165.67 L 121.35 164.69 C 121.42 163.67 120.64 162.79 119.63 162.72 C 118.61 162.66 117.73 163.43 117.66 164.45 Z M 117.60 165.48 L 117.56 166.46 C 117.52 167.48 118.31 168.34 119.33 168.38 C 120.35 168.42 121.21 167.62 121.25 166.60 L 121.29 165.62 C 121.33 164.60 120.54 163.74 119.52 163.70 C 118.50 163.66 117.64 164.46 117.60 165.48 Z M 117.56 166.49 L 117.53 167.49 C 117.51 168.51 118.32 169.36 119.34 169.38 C 120.36 169.40 121.21 168.60 121.23 167.58 L 121.25 166.57 C 121.27 165.55 120.47 164.70 119.45 164.68 C 118.43 164.66 117.58 165.47 117.56 166.49 Z M 117.53 167.52 L 117.52 168.52 C 117.51 169.54 118.33 170.37 119.35 170.38 C 120.37 170.39 121.21 169.58 121.22 168.55 L 121.23 167.55 C 121.24 166.53 120.42 165.70 119.40 165.69 C 118.38 165.68 117.54 166.49 117.53 167.52 Z M 117.52 168.53 L 117.52 169.53 C 117.52 170.55 118.34 171.38 119.36 171.38 C 120.38 171.38 121.21 170.56 121.22 169.54 L 121.22 168.54 C 121.22 167.52 120.40 166.69 119.38 166.69 C 118.36 166.69 117.53 167.51 117.52 168.53 Z M 117.52 169.53 L 117.52 170.54 C 117.52 171.56 118.35 172.39 119.37 172.39 C 120.39 172.39 121.22 171.56 121.22 170.54 L 121.22 169.53 C 121.22 168.51 120.39 167.68 119.37 167.68 C 118.35 167.68 117.52 168.51 117.52 169.53 Z M 117.52 170.57 L 117.54 171.58 C 117.55 172.61 118.39 173.42 119.41 173.41 C 120.43 173.39 121.25 172.55 121.23 171.53 L 121.22 170.51 C 121.20 169.49 120.36 168.68 119.34 168.69 C 118.32 168.71 117.51 169.55 117.52 170.57 Z M 117.54 171.67 L 117.60 172.66 C 117.66 173.68 118.53 174.46 119.55 174.40 C 120.57 174.34 121.35 173.47 121.29 172.45 L 121.23 171.45 C 121.17 170.43 120.30 169.65 119.28 169.71 C 118.26 169.77 117.48 170.65 117.54 171.67 Z M 117.61 172.80 L 117.74 173.77 C 117.88 174.78 118.81 175.49 119.82 175.35 C 120.83 175.22 121.54 174.29 121.40 173.28 L 121.27 172.31 C 121.14 171.30 120.21 170.59 119.19 170.72 C 118.18 170.86 117.47 171.79 117.61 172.80 Z M 117.78 173.97 L 118.02 174.94 C 118.27 175.93 119.27 176.53 120.26 176.29 C 121.25 176.04 121.85 175.04 121.61 174.05 L 121.37 173.08 C 121.12 172.09 120.12 171.48 119.13 171.73 C 118.14 171.98 117.53 172.98 117.78 173.97 Z M 118.08 175.13 L 118.42 176.07 C 118.77 177.03 119.84 177.52 120.79 177.17 C 121.75 176.82 122.24 175.76 121.89 174.80 L 121.55 173.86 C 121.20 172.90 120.13 172.41 119.18 172.76 C 118.22 173.11 117.73 174.17 118.08 175.13 Z M 118.48 176.22 L 118.90 177.12 C 119.34 178.04 120.44 178.44 121.36 178.01 C 122.29 177.58 122.69 176.48 122.25 175.55 L 121.83 174.65 C 121.40 173.73 120.30 173.33 119.38 173.76 C 118.45 174.19 118.05 175.29 118.48 176.22 Z M 118.96 177.22 L 119.43 178.09 C 119.92 178.99 121.04 179.32 121.94 178.83 C 122.83 178.34 123.16 177.22 122.68 176.32 L 122.20 175.45 C 121.71 174.56 120.59 174.22 119.70 174.71 C 118.80 175.20 118.47 176.32 118.96 177.22 Z M 119.48 178.17 L 119.99 179.01 C 120.52 179.89 121.66 180.16 122.53 179.63 C 123.40 179.10 123.68 177.96 123.15 177.09 L 122.63 176.24 C 122.10 175.37 120.96 175.10 120.09 175.63 C 119.22 176.16 118.94 177.30 119.48 178.17 Z M 120.05 179.10 L 120.61 179.92 C 121.19 180.76 122.34 180.97 123.18 180.39 C 124.02 179.82 124.23 178.67 123.66 177.83 L 123.09 177.00 C 122.51 176.16 121.36 175.95 120.52 176.53 C 119.68 177.11 119.47 178.26 120.05 179.10 Z M 120.67 180.00 L 121.29 180.80 C 121.92 181.61 123.08 181.76 123.88 181.13 C 124.69 180.51 124.84 179.35 124.21 178.54 L 123.59 177.74 C 122.97 176.93 121.81 176.79 121.00 177.41 C 120.19 178.03 120.05 179.20 120.67 180.00 Z M 121.36 180.89 L 122.02 181.64 C 122.69 182.41 123.85 182.49 124.62 181.82 C 125.39 181.15 125.47 179.99 124.80 179.22 L 124.15 178.46 C 123.48 177.69 122.31 177.61 121.54 178.28 C 120.77 178.95 120.69 180.12 121.36 180.89 Z M 122.09 181.72 L 122.80 182.44 C 123.51 183.17 124.68 183.19 125.41 182.47 C 126.14 181.76 126.15 180.59 125.44 179.86 L 124.73 179.14 C 124.02 178.41 122.85 178.40 122.12 179.11 C 121.39 179.82 121.38 180.99 122.09 181.72 Z M 122.89 182.53 L 123.63 183.20 C 124.40 183.88 125.56 183.81 126.24 183.05 C 126.92 182.29 126.86 181.12 126.09 180.44 L 125.35 179.77 C 124.59 179.09 123.42 179.16 122.74 179.92 C 122.06 180.68 122.13 181.85 122.89 182.53 Z M 123.75 183.29 L 124.54 183.89 C 125.36 184.51 126.52 184.35 127.13 183.53 C 127.75 182.72 127.59 181.56 126.77 180.95 L 125.98 180.34 C 125.17 179.73 124.01 179.89 123.39 180.70 C 122.78 181.52 122.94 182.68 123.75 183.29 Z M 124.68 183.99 L 125.54 184.52 C 126.41 185.06 127.55 184.79 128.08 183.93 C 128.62 183.06 128.36 181.92 127.49 181.38 L 126.63 180.85 C 125.77 180.31 124.63 180.58 124.09 181.44 C 123.55 182.31 123.82 183.45 124.68 183.99 Z M 125.68 184.60 L 126.56 185.05 C 127.47 185.51 128.58 185.14 129.05 184.23 C 129.51 183.32 129.14 182.21 128.23 181.75 L 127.35 181.30 C 126.44 180.84 125.33 181.20 124.87 182.11 C 124.40 183.02 124.77 184.14 125.68 184.60 Z M 126.68 185.10 L 127.60 185.49 C 128.54 185.88 129.62 185.44 130.02 184.49 C 130.41 183.55 129.97 182.47 129.03 182.08 L 128.11 181.69 C 127.17 181.30 126.09 181.74 125.69 182.69 C 125.30 183.63 125.74 184.71 126.68 185.10 Z M 127.70 185.52 L 128.63 185.85 C 129.59 186.19 130.65 185.68 130.99 184.72 C 131.32 183.76 130.82 182.70 129.86 182.36 L 128.93 182.04 C 127.96 181.70 126.91 182.20 126.57 183.17 C 126.23 184.13 126.74 185.19 127.70 185.52 Z M 128.71 185.88 L 129.66 186.17 C 130.64 186.46 131.67 185.91 131.97 184.93 C 132.26 183.95 131.71 182.92 130.73 182.63 L 129.78 182.34 C 128.80 182.04 127.77 182.60 127.47 183.57 C 127.18 184.55 127.73 185.58 128.71 185.88 Z M 129.73 186.18 L 130.71 186.44 C 131.69 186.70 132.70 186.11 132.96 185.12 C 133.22 184.13 132.63 183.12 131.64 182.86 L 130.67 182.61 C 129.68 182.35 128.67 182.94 128.41 183.93 C 128.15 184.91 128.74 185.93 129.73 186.18 Z M 130.76 186.45 L 131.73 186.68 C 132.72 186.91 133.72 186.29 133.95 185.30 C 134.18 184.30 133.56 183.31 132.57 183.08 L 131.59 182.85 C 130.60 182.62 129.61 183.24 129.38 184.23 C 129.14 185.23 129.76 186.22 130.76 186.45 Z M 131.78 186.69 L 132.75 186.89 C 133.75 187.09 134.73 186.45 134.93 185.45 C 135.14 184.44 134.49 183.47 133.49 183.26 L 132.52 183.07 C 131.52 182.86 130.54 183.51 130.34 184.51 C 130.13 185.51 130.78 186.49 131.78 186.69 Z M 132.81 186.90 L 133.80 187.07 C 134.81 187.24 135.76 186.56 135.93 185.55 C 136.10 184.54 135.42 183.59 134.42 183.42 L 133.43 183.25 C 132.42 183.08 131.47 183.76 131.30 184.77 C 131.13 185.78 131.81 186.73 132.81 186.90 Z M 133.87 187.08 L 134.88 187.21 C 135.89 187.34 136.82 186.62 136.95 185.61 C 137.08 184.60 136.36 183.67 135.35 183.54 L 134.34 183.41 C 133.33 183.28 132.40 183.99 132.27 185.01 C 132.14 186.02 132.86 186.95 133.87 187.08 Z M 134.95 187.22 L 135.94 187.30 C 136.96 187.39 137.86 186.64 137.95 185.62 C 138.04 184.60 137.28 183.71 136.26 183.62 L 135.27 183.53 C 134.26 183.44 133.36 184.19 133.27 185.21 C 133.18 186.23 133.93 187.13 134.95 187.22 Z M 136.00 187.31 L 137.00 187.36 C 138.02 187.42 138.89 186.64 138.95 185.62 C 139.01 184.60 138.23 183.73 137.21 183.67 L 136.21 183.61 C 135.19 183.55 134.31 184.34 134.25 185.36 C 134.20 186.38 134.98 187.25 136.00 187.31 Z M 137.04 187.37 L 138.04 187.40 C 139.07 187.43 139.92 186.63 139.96 185.61 C 139.99 184.59 139.19 183.73 138.17 183.70 L 137.16 183.67 C 136.14 183.63 135.29 184.43 135.25 185.45 C 135.22 186.48 136.02 187.33 137.04 187.37 Z M 138.07 187.40 L 139.07 187.42 C 140.09 187.44 140.94 186.63 140.96 185.60 C 140.98 184.58 140.16 183.74 139.14 183.72 L 138.14 183.70 C 137.12 183.68 136.27 184.49 136.25 185.51 C 136.24 186.54 137.05 187.38 138.07 187.40 Z M 139.09 187.42 L 140.08 187.43 C 141.11 187.44 141.94 186.62 141.95 185.60 C 141.96 184.57 141.14 183.74 140.12 183.73 L 139.12 183.72 C 138.10 183.71 137.26 184.53 137.25 185.55 C 137.24 186.57 138.06 187.41 139.09 187.42 Z M 140.09 187.43 L 141.09 187.44 C 142.11 187.44 142.95 186.61 142.95 185.59 C 142.95 184.57 142.13 183.73 141.10 183.73 L 140.11 183.73 C 139.08 183.72 138.25 184.55 138.25 185.57 C 138.24 186.59 139.07 187.43 140.09 187.43 Z M 141.10 187.44 L 142.10 187.44 C 143.13 187.44 143.96 186.61 143.96 185.58 C 143.96 184.56 143.13 183.73 142.11 183.73 L 141.10 183.73 C 140.07 183.73 139.24 184.56 139.24 185.58 C 139.24 186.60 140.07 187.44 141.10 187.44 Z M 142.10 187.44 L 143.12 187.44 C 144.15 187.44 144.98 186.61 144.97 185.58 C 144.97 184.56 144.14 183.73 143.12 183.73 L 142.10 183.73 C 141.08 183.73 140.25 184.56 140.25 185.58 C 140.25 186.61 141.08 187.44 142.10 187.44 Z M 143.13 187.44 L 144.15 187.43 C 145.17 187.43 146.00 186.59 145.99 185.57 C 145.99 184.55 145.15 183.72 144.13 183.72 L 143.11 183.73 C 142.09 183.73 141.26 184.57 141.27 185.59 C 141.27 186.62 142.11 187.44 143.13 187.44 Z M 144.17 187.43 L 145.17 187.42 C 146.19 187.40 147.01 186.56 146.99 185.54 C 146.98 184.51 146.14 183.69 145.11 183.71 L 144.11 183.72 C 143.09 183.74 142.27 184.58 142.29 185.61 C 142.30 186.63 143.14 187.45 144.17 187.43 Z M 145.20 187.42 L 146.18 187.39 C 147.20 187.35 148.00 186.50 147.97 185.47 C 147.94 184.45 147.08 183.65 146.06 183.68 L 145.08 183.71 C 144.06 183.74 143.25 184.60 143.28 185.62 C 143.32 186.65 144.17 187.45 145.20 187.42 Z M 146.23 187.38 L 147.27 187.32 C 148.29 187.26 149.07 186.38 149.00 185.36 C 148.94 184.33 148.06 183.55 147.04 183.62 L 146.00 183.68 C 144.98 183.74 144.20 184.62 144.27 185.65 C 144.33 186.67 145.21 187.45 146.23 187.38 Z M 147.37 187.31 L 148.35 187.20 C 149.36 187.08 150.09 186.16 149.98 185.14 C 149.86 184.12 148.94 183.40 147.92 183.51 L 146.94 183.63 C 145.92 183.74 145.19 184.66 145.31 185.68 C 145.43 186.70 146.35 187.43 147.37 187.31 Z M 148.49 187.18 L 149.43 186.99 C 150.44 186.80 151.10 185.82 150.90 184.82 C 150.71 183.81 149.73 183.16 148.73 183.35 L 147.78 183.53 C 146.77 183.73 146.12 184.70 146.31 185.71 C 146.51 186.72 147.48 187.37 148.49 187.18 Z M 149.60 186.96 L 150.55 186.68 C 151.53 186.40 152.10 185.37 151.82 184.38 C 151.53 183.40 150.50 182.83 149.52 183.11 L 148.57 183.39 C 147.58 183.67 147.01 184.70 147.30 185.69 C 147.58 186.67 148.61 187.24 149.60 186.96 Z M 150.67 186.64 L 151.61 186.29 C 152.58 185.94 153.07 184.87 152.71 183.91 C 152.36 182.95 151.29 182.45 150.33 182.81 L 149.39 183.16 C 148.43 183.51 147.94 184.58 148.29 185.54 C 148.65 186.50 149.71 186.99 150.67 186.64 Z M 151.69 186.26 L 152.62 185.87 C 153.56 185.47 154.01 184.39 153.61 183.44 C 153.21 182.50 152.12 182.05 151.18 182.45 L 150.25 182.84 C 149.31 183.24 148.86 184.33 149.26 185.27 C 149.66 186.22 150.75 186.66 151.69 186.26 Z M 152.66 185.85 L 153.57 185.44 C 154.50 185.02 154.92 183.92 154.50 182.99 C 154.08 182.05 152.98 181.64 152.04 182.06 L 151.14 182.47 C 150.20 182.89 149.78 183.99 150.21 184.92 C 150.63 185.86 151.73 186.28 152.66 185.85 Z M 153.61 185.43 L 154.51 185.00 C 155.43 184.55 155.82 183.44 155.38 182.52 C 154.94 181.59 153.83 181.20 152.90 181.65 L 152.00 182.08 C 151.08 182.52 150.69 183.63 151.13 184.55 C 151.57 185.48 152.68 185.87 153.61 185.43 Z M 154.56 184.97 L 155.45 184.51 C 156.36 184.04 156.72 182.92 156.25 182.01 C 155.78 181.10 154.66 180.74 153.75 181.21 L 152.85 181.67 C 151.94 182.14 151.58 183.26 152.05 184.17 C 152.52 185.08 153.64 185.44 154.56 184.97 Z M 155.50 184.48 L 156.36 184.00 C 157.26 183.50 157.58 182.37 157.08 181.48 C 156.58 180.58 155.45 180.26 154.55 180.76 L 153.69 181.24 C 152.80 181.74 152.47 182.87 152.98 183.77 C 153.48 184.66 154.61 184.98 155.50 184.48 Z M 156.42 183.97 L 157.27 183.46 C 158.15 182.93 158.43 181.79 157.90 180.91 C 157.37 180.03 156.23 179.75 155.35 180.28 L 154.50 180.79 C 153.62 181.32 153.34 182.46 153.87 183.34 C 154.40 184.22 155.54 184.50 156.42 183.97 Z M 157.32 183.43 L 158.17 182.88 C 159.03 182.33 159.28 181.17 158.72 180.31 C 158.16 179.45 157.01 179.20 156.15 179.76 L 155.30 180.31 C 154.44 180.86 154.19 182.02 154.75 182.88 C 155.30 183.74 156.45 183.99 157.32 183.43 Z M 158.21 182.85 L 159.03 182.29 C 159.88 181.71 160.09 180.55 159.51 179.70 C 158.93 178.85 157.77 178.64 156.92 179.22 L 156.10 179.79 C 155.26 180.37 155.04 181.53 155.63 182.38 C 156.21 183.22 157.37 183.43 158.21 182.85 Z M 159.07 182.26 L 159.86 181.69 C 160.69 181.09 160.88 179.92 160.28 179.09 C 159.67 178.26 158.51 178.07 157.68 178.68 L 156.89 179.25 C 156.05 179.85 155.87 181.01 156.47 181.85 C 157.07 182.68 158.24 182.86 159.07 182.26 Z M 159.88 181.67 L 160.69 181.07 C 161.51 180.46 161.68 179.29 161.06 178.47 C 160.45 177.65 159.28 177.48 158.46 178.09 L 157.66 178.69 C 156.83 179.31 156.66 180.47 157.28 181.30 C 157.89 182.12 159.06 182.29 159.88 181.67 Z M 160.69 181.07 L 161.52 180.44 C 162.34 179.82 162.50 178.66 161.88 177.84 C 161.27 177.02 160.10 176.86 159.28 177.47 L 158.45 178.10 C 157.63 178.72 157.47 179.88 158.09 180.70 C 158.71 181.52 159.87 181.69 160.69 181.07 Z M 161.52 180.44 L 162.32 179.84 C 163.14 179.22 163.30 178.05 162.68 177.23 C 162.06 176.42 160.89 176.25 160.07 176.87 L 159.28 177.48 C 158.46 178.10 158.30 179.26 158.92 180.08 C 159.54 180.90 160.70 181.06 161.52 180.44 Z M 162.33 179.83 L 163.13 179.21 C 163.94 178.59 164.10 177.42 163.47 176.61 C 162.84 175.79 161.67 175.64 160.86 176.27 L 160.06 176.88 C 159.25 177.51 159.09 178.68 159.72 179.49 C 160.35 180.31 161.52 180.46 162.33 179.83 Z M 163.16 179.19 L 163.94 178.56 C 164.75 177.92 164.87 176.75 164.23 175.95 C 163.59 175.15 162.42 175.02 161.62 175.66 L 160.83 176.29 C 160.03 176.93 159.90 178.10 160.54 178.90 C 161.19 179.71 162.36 179.83 163.16 179.19 Z M 163.99 178.52 L 164.75 177.88 C 165.53 177.21 165.62 176.03 164.95 175.25 C 164.28 174.47 163.11 174.38 162.33 175.05 L 161.57 175.70 C 160.79 176.37 160.70 177.54 161.37 178.32 C 162.04 179.10 163.21 179.19 163.99 178.52 Z M 164.80 177.82 L 165.55 177.13 C 166.30 176.43 166.34 175.25 165.64 174.50 C 164.94 173.75 163.76 173.71 163.01 174.41 L 162.27 175.10 C 161.52 175.80 161.47 176.98 162.18 177.73 C 162.88 178.48 164.05 178.53 164.80 177.82 Z M 165.60 177.08 L 166.30 176.38 C 167.03 175.65 167.02 174.47 166.30 173.75 C 165.57 173.02 164.39 173.02 163.66 173.75 L 162.96 174.46 C 162.24 175.18 162.24 176.36 162.97 177.09 C 163.70 177.81 164.87 177.81 165.60 177.08 Z M 166.33 176.34 L 167.01 175.63 C 167.72 174.88 167.69 173.70 166.94 173.00 C 166.19 172.29 165.02 172.32 164.31 173.07 L 163.63 173.78 C 162.92 174.53 162.96 175.71 163.70 176.42 C 164.45 177.12 165.63 177.09 166.33 176.34 Z M 167.03 175.61 L 167.70 174.88 C 168.40 174.12 168.35 172.95 167.59 172.25 C 166.84 171.55 165.66 171.60 164.96 172.36 L 164.29 173.09 C 163.59 173.84 163.64 175.02 164.40 175.72 C 165.16 176.41 166.33 176.37 167.03 175.61 Z M 167.72 174.86 L 168.39 174.12 C 169.07 173.36 169.01 172.18 168.25 171.49 C 167.48 170.80 166.30 170.87 165.62 171.63 L 164.95 172.37 C 164.26 173.14 164.32 174.32 165.09 175.00 C 165.85 175.69 167.03 175.63 167.72 174.86 Z M 168.41 174.09 L 169.07 173.33 C 169.74 172.55 169.65 171.38 168.87 170.71 C 168.09 170.03 166.92 170.12 166.24 170.90 L 165.59 171.66 C 164.92 172.44 165.01 173.62 165.79 174.29 C 166.56 174.96 167.74 174.87 168.41 174.09 Z M 169.10 173.29 L 169.73 172.52 C 170.38 171.72 170.25 170.55 169.46 169.90 C 168.66 169.25 167.48 169.37 166.83 170.17 L 166.21 170.94 C 165.56 171.74 165.68 172.92 166.48 173.56 C 167.28 174.21 168.45 174.09 169.10 173.29 Z M 169.77 172.47 L 170.31 171.75 C 170.93 170.93 170.77 169.76 169.94 169.14 C 169.12 168.52 167.95 168.69 167.33 169.51 L 166.79 170.22 C 166.17 171.04 166.34 172.21 167.16 172.83 C 167.98 173.45 169.15 173.29 169.77 172.47 Z M 170.35 171.70 L 170.89 170.94 C 171.48 170.09 171.28 168.93 170.43 168.34 C 169.59 167.74 168.43 167.95 167.84 168.79 L 167.30 169.56 C 166.70 170.40 166.90 171.56 167.75 172.16 C 168.59 172.75 169.75 172.55 170.35 171.70 Z M 170.92 170.89 L 171.49 170.03 C 172.05 169.17 171.82 168.02 170.96 167.45 C 170.10 166.88 168.94 167.12 168.37 167.98 L 167.80 168.83 C 167.24 169.69 167.47 170.85 168.33 171.42 C 169.19 171.99 170.35 171.75 170.92 170.89 Z M 171.51 170.00 L 172.12 169.04 C 172.67 168.16 172.40 167.01 171.53 166.46 C 170.66 165.91 169.50 166.17 168.95 167.05 L 168.35 168.01 C 167.80 168.88 168.06 170.04 168.93 170.59 C 169.81 171.14 170.96 170.87 171.51 170.00 Z M 172.13 169.01 L 172.64 168.18 C 173.18 167.30 172.90 166.15 172.02 165.61 C 171.13 165.08 169.98 165.35 169.45 166.24 L 168.94 167.07 C 168.40 167.95 168.68 169.10 169.56 169.64 C 170.44 170.17 171.59 169.90 172.13 169.01 Z M 172.65 168.17 L 173.18 167.28 C 173.71 166.39 173.41 165.25 172.53 164.72 C 171.64 164.19 170.49 164.48 169.96 165.37 L 169.43 166.25 C 168.91 167.14 169.20 168.29 170.09 168.82 C 170.97 169.35 172.12 169.05 172.65 168.17 Z M 173.19 167.27 L 173.71 166.36 C 174.23 165.47 173.93 164.32 173.03 163.80 C 172.14 163.28 170.99 163.59 170.47 164.48 L 169.95 165.39 C 169.43 166.28 169.73 167.43 170.63 167.94 C 171.52 168.46 172.67 168.16 173.19 167.27 Z M 173.73 166.34 L 174.23 165.45 C 174.74 164.55 174.42 163.41 173.52 162.90 C 172.61 162.39 171.47 162.71 170.96 163.61 L 170.46 164.50 C 169.95 165.40 170.27 166.55 171.17 167.05 C 172.08 167.56 173.22 167.24 173.73 166.34 Z M 174.24 165.43 L 174.70 164.58 C 175.19 163.67 174.86 162.54 173.95 162.04 C 173.04 161.55 171.90 161.88 171.40 162.80 L 170.95 163.64 C 170.45 164.55 170.79 165.69 171.70 166.18 C 172.61 166.67 173.75 166.34 174.24 165.43 Z M 174.72 164.54 L 175.23 163.56 C 175.70 162.63 175.33 161.50 174.40 161.03 C 173.48 160.56 172.35 160.93 171.88 161.86 L 171.38 162.84 C 170.91 163.76 171.28 164.89 172.20 165.36 C 173.12 165.83 174.25 165.47 174.72 164.54 Z M 175.27 163.47 L 175.68 162.54 C 176.11 161.59 175.68 160.48 174.73 160.06 C 173.78 159.64 172.67 160.06 172.25 161.01 L 171.84 161.94 C 171.42 162.89 171.84 164.00 172.79 164.42 C 173.74 164.84 174.85 164.42 175.27 163.47 Z M 175.74 162.40 L 176.05 161.52 C 176.40 160.55 175.89 159.47 174.91 159.13 C 173.93 158.78 172.86 159.29 172.51 160.27 L 172.20 161.14 C 171.85 162.12 172.36 163.20 173.34 163.54 C 174.32 163.89 175.39 163.38 175.74 162.40 Z M 176.10 161.36 L 176.33 160.47 C 176.59 159.46 175.98 158.44 174.97 158.18 C 173.97 157.92 172.95 158.53 172.69 159.54 L 172.46 160.43 C 172.20 161.43 172.81 162.46 173.81 162.72 C 174.82 162.97 175.84 162.37 176.10 161.36 Z M 176.36 160.31 L 176.52 159.34 C 176.69 158.32 176.00 157.35 174.97 157.19 C 173.95 157.02 172.98 157.71 172.81 158.74 L 172.65 159.70 C 172.49 160.72 173.18 161.69 174.20 161.86 C 175.23 162.03 176.20 161.33 176.36 160.31 Z M 176.54 159.17 L 176.61 158.17 C 176.69 157.13 175.91 156.23 174.87 156.16 C 173.83 156.08 172.93 156.86 172.86 157.90 L 172.79 158.91 C 172.72 159.94 173.50 160.84 174.53 160.92 C 175.57 160.99 176.47 160.21 176.54 159.17 Z M 176.62 157.96 L 176.58 156.95 C 176.54 155.91 175.67 155.10 174.63 155.14 C 173.59 155.18 172.78 156.05 172.82 157.09 L 172.86 158.10 C 172.90 159.14 173.77 159.95 174.81 159.91 C 175.85 159.88 176.66 159.00 176.62 157.96 Z M 176.56 156.70 L 176.39 155.73 C 176.21 154.70 175.24 154.01 174.22 154.19 C 173.19 154.36 172.50 155.34 172.68 156.36 L 172.84 157.34 C 173.02 158.36 173.99 159.05 175.02 158.88 C 176.04 158.70 176.73 157.73 176.56 156.70 Z M 176.32 155.44 L 176.01 154.53 C 175.67 153.55 174.60 153.02 173.61 153.36 C 172.63 153.70 172.11 154.77 172.44 155.75 L 172.75 156.66 C 173.09 157.64 174.16 158.16 175.14 157.83 C 176.13 157.49 176.65 156.42 176.32 155.44 Z M 175.88 154.24 L 175.42 153.39 C 174.92 152.48 173.78 152.14 172.86 152.64 C 171.95 153.13 171.61 154.28 172.11 155.19 L 172.57 156.04 C 173.07 156.96 174.21 157.30 175.12 156.80 C 176.04 156.30 176.38 155.16 175.88 154.24 Z M 175.25 153.14 L 174.63 152.33 C 173.99 151.51 172.81 151.36 171.99 151.99 C 171.16 152.63 171.01 153.81 171.65 154.64 L 172.27 155.44 C 172.91 156.27 174.09 156.42 174.91 155.78 C 175.74 155.15 175.89 153.96 175.25 153.14 Z M 174.46 152.14 L 173.73 151.42 C 172.99 150.69 171.80 150.70 171.07 151.44 C 170.34 152.19 170.35 153.38 171.09 154.11 L 171.82 154.83 C 172.56 155.56 173.75 155.55 174.48 154.81 C 175.21 154.06 175.20 152.87 174.46 152.14 Z M 173.59 151.30 L 172.87 150.72 C 172.06 150.06 170.87 150.19 170.22 151.00 C 169.56 151.81 169.69 153.00 170.50 153.65 L 171.23 154.23 C 172.04 154.89 173.23 154.76 173.88 153.95 C 174.53 153.14 174.40 151.95 173.59 151.30 Z M 172.75 150.63 L 171.94 150.07 C 171.08 149.48 169.91 149.70 169.32 150.56 C 168.73 151.42 168.95 152.59 169.81 153.18 L 170.62 153.74 C 171.48 154.33 172.65 154.11 173.24 153.25 C 173.83 152.39 173.61 151.22 172.75 150.63 Z M 171.83 150.01 L 170.95 149.48 C 170.06 148.95 168.90 149.25 168.37 150.14 C 167.84 151.04 168.14 152.20 169.03 152.73 L 169.91 153.25 C 170.81 153.78 171.97 153.48 172.50 152.59 C 173.03 151.69 172.73 150.54 171.83 150.01 Z M 170.85 149.43 L 169.91 148.95 C 168.99 148.47 167.85 148.84 167.38 149.76 C 166.90 150.69 167.27 151.83 168.19 152.30 L 169.13 152.78 C 170.06 153.26 171.20 152.89 171.67 151.96 C 172.14 151.04 171.78 149.90 170.85 149.43 Z M 169.81 148.90 L 168.87 148.48 C 167.92 148.06 166.80 148.49 166.38 149.44 C 165.96 150.40 166.39 151.51 167.34 151.93 L 168.29 152.35 C 169.24 152.77 170.36 152.34 170.78 151.39 C 171.20 150.43 170.77 149.32 169.81 148.90 Z M 168.78 148.45 L 167.86 148.09 C 166.89 147.72 165.80 148.21 165.43 149.18 C 165.05 150.15 165.54 151.24 166.51 151.61 L 167.43 151.97 C 168.41 152.34 169.49 151.85 169.87 150.88 C 170.24 149.91 169.75 148.82 168.78 148.45 Z M 167.78 148.07 L 166.84 147.75 C 165.86 147.42 164.79 147.96 164.46 148.94 C 164.13 149.93 164.66 151.00 165.65 151.33 L 166.59 151.64 C 167.58 151.97 168.64 151.44 168.97 150.45 C 169.30 149.46 168.77 148.40 167.78 148.07 Z M 166.78 147.73 L 165.82 147.45 C 164.82 147.15 163.77 147.72 163.48 148.72 C 163.18 149.72 163.75 150.77 164.75 151.06 L 165.71 151.34 C 166.71 151.64 167.76 151.07 168.05 150.07 C 168.34 149.08 167.78 148.03 166.78 147.73 Z M 165.77 147.44 L 164.79 147.18 C 163.79 146.91 162.75 147.51 162.49 148.51 C 162.22 149.52 162.82 150.55 163.83 150.82 L 164.80 151.07 C 165.81 151.34 166.84 150.74 167.10 149.74 C 167.37 148.73 166.77 147.70 165.77 147.44 Z M 164.75 147.17 L 163.76 146.93 C 162.75 146.68 161.74 147.30 161.49 148.31 C 161.25 149.32 161.87 150.34 162.88 150.59 L 163.87 150.83 C 164.88 151.07 165.89 150.45 166.14 149.44 C 166.38 148.43 165.76 147.41 164.75 147.17 Z M 163.73 146.92 L 162.75 146.70 C 161.74 146.47 160.73 147.11 160.51 148.12 C 160.28 149.14 160.91 150.14 161.93 150.37 L 162.91 150.59 C 163.92 150.82 164.92 150.18 165.15 149.17 C 165.38 148.16 164.75 147.15 163.73 146.92 Z M 162.73 146.70 L 161.74 146.49 C 160.73 146.28 159.73 146.93 159.52 147.94 C 159.31 148.96 159.96 149.95 160.97 150.17 L 161.95 150.37 C 162.97 150.59 163.96 149.94 164.18 148.92 C 164.39 147.91 163.74 146.91 162.73 146.70 Z M 161.72 146.49 L 160.73 146.30 C 159.71 146.10 158.73 146.76 158.53 147.78 C 158.33 148.79 159.00 149.78 160.01 149.98 L 161.00 150.17 C 162.01 150.37 163.00 149.70 163.20 148.69 C 163.39 147.67 162.73 146.69 161.72 146.49 Z M 160.70 146.30 L 159.72 146.12 C 158.70 145.94 157.73 146.61 157.54 147.63 C 157.36 148.65 158.04 149.62 159.05 149.80 L 160.04 149.98 C 161.06 150.16 162.03 149.49 162.21 148.47 C 162.40 147.45 161.72 146.48 160.70 146.30 Z M 159.69 146.12 L 158.71 145.96 C 157.69 145.79 156.73 146.48 156.56 147.50 C 156.39 148.51 157.08 149.47 158.10 149.64 L 159.08 149.80 C 160.10 149.97 161.06 149.28 161.23 148.26 C 161.40 147.25 160.71 146.28 159.69 146.12 Z M 158.68 145.95 L 157.68 145.81 C 156.66 145.65 155.71 146.36 155.56 147.38 C 155.41 148.40 156.11 149.34 157.13 149.49 L 158.13 149.64 C 159.15 149.79 160.10 149.09 160.25 148.07 C 160.40 147.05 159.70 146.11 158.68 145.95 Z M 157.64 145.81 L 156.61 145.67 C 155.59 145.53 154.65 146.25 154.52 147.27 C 154.39 148.29 155.10 149.22 156.12 149.36 L 157.16 149.49 C 158.18 149.63 159.11 148.91 159.25 147.89 C 159.38 146.87 158.66 145.94 157.64 145.81 Z M 156.58 145.67 L 155.56 145.55 C 154.54 145.44 153.62 146.16 153.50 147.18 C 153.38 148.20 154.11 149.12 155.13 149.24 L 156.15 149.35 C 157.17 149.47 158.09 148.74 158.20 147.73 C 158.32 146.71 157.59 145.79 156.58 145.67 Z M 155.53 145.56 L 154.54 145.46 C 153.52 145.35 152.62 146.09 152.51 147.11 C 152.41 148.12 153.15 149.03 154.16 149.13 L 155.16 149.23 C 156.17 149.34 157.08 148.60 157.18 147.58 C 157.28 146.57 156.55 145.66 155.53 145.56 Z M 154.51 145.46 L 153.55 145.38 C 152.54 145.29 151.64 146.04 151.56 147.05 C 151.47 148.06 152.22 148.95 153.23 149.04 L 154.19 149.13 C 155.20 149.22 156.10 148.47 156.18 147.45 C 156.27 146.44 155.52 145.55 154.51 145.46 Z M 153.53 145.38 L 152.58 145.31 C 151.57 145.24 150.69 145.99 150.61 147.00 C 150.54 148.01 151.30 148.89 152.31 148.97 L 153.25 149.04 C 154.26 149.11 155.14 148.36 155.22 147.35 C 155.29 146.34 154.54 145.46 153.53 145.38 Z M 152.55 145.32 L 151.54 145.26 C 150.54 145.20 149.67 145.96 149.61 146.97 C 149.55 147.97 150.32 148.84 151.32 148.90 L 152.33 148.96 C 153.34 149.02 154.20 148.25 154.26 147.25 C 154.32 146.24 153.56 145.38 152.55 145.32 Z M 151.51 145.27 L 150.53 145.22 C 149.53 145.18 148.69 145.95 148.64 146.95 C 148.60 147.95 149.37 148.80 150.37 148.84 L 151.35 148.89 C 152.35 148.93 153.20 148.16 153.24 147.16 C 153.29 146.16 152.51 145.31 151.51 145.27 Z M 150.51 145.24 L 149.53 145.20 C 148.53 145.17 147.70 145.95 147.67 146.94 C 147.64 147.94 148.42 148.77 149.41 148.80 L 150.39 148.83 C 151.39 148.86 152.22 148.08 152.25 147.09 C 152.28 146.10 151.50 145.27 150.51 145.24 Z M 149.51 145.22 L 148.50 145.19 C 147.52 145.17 146.70 145.96 146.68 146.94 C 146.66 147.93 147.44 148.75 148.43 148.77 L 149.43 148.79 C 150.42 148.81 151.23 148.03 151.26 147.04 C 151.28 146.05 150.49 145.24 149.51 145.22 Z M 148.49 145.21 L 147.50 145.20 C 146.52 145.18 145.72 145.97 145.71 146.95 C 145.70 147.93 146.48 148.73 147.46 148.74 L 148.44 148.75 C 149.42 148.77 150.22 147.98 150.24 147.00 C 150.25 146.02 149.47 145.22 148.49 145.21 Z M 147.48 145.21 L 146.49 145.21 C 145.52 145.21 144.73 145.99 144.73 146.96 C 144.73 147.93 145.52 148.72 146.49 148.72 L 147.48 148.73 C 148.45 148.73 149.24 147.94 149.24 146.97 C 149.24 146.00 148.45 145.21 147.48 145.21 Z M 146.46 145.23 L 145.45 145.24 C 144.49 145.25 143.72 146.04 143.74 147.01 C 143.75 147.97 144.54 148.73 145.50 148.72 L 146.51 148.71 C 147.47 148.69 148.24 147.90 148.23 146.94 C 148.22 145.98 147.43 145.21 146.46 145.23 Z M 145.41 145.26 L 144.40 145.29 C 143.45 145.33 142.70 146.13 142.74 147.08 C 142.77 148.03 143.57 148.78 144.52 148.74 L 145.54 148.70 C 146.49 148.67 147.23 147.87 147.20 146.92 C 147.17 145.97 146.37 145.22 145.41 145.26 Z M 144.35 145.31 L 143.34 145.38 C 142.40 145.44 141.69 146.26 141.75 147.20 C 141.81 148.14 142.63 148.85 143.57 148.79 L 144.57 148.72 C 145.51 148.66 146.23 147.85 146.16 146.91 C 146.10 145.96 145.29 145.25 144.35 145.31 Z M 143.28 145.40 L 142.26 145.51 C 141.33 145.61 140.66 146.44 140.76 147.37 C 140.85 148.29 141.68 148.97 142.61 148.87 L 143.63 148.76 C 144.56 148.67 145.23 147.84 145.13 146.91 C 145.04 145.98 144.21 145.31 143.28 145.40 Z M 142.20 145.54 L 141.20 145.68 C 140.29 145.81 139.65 146.66 139.78 147.57 C 139.91 148.48 140.76 149.11 141.67 148.98 L 142.67 148.84 C 143.58 148.71 144.21 147.87 144.08 146.96 C 143.96 146.05 143.11 145.41 142.20 145.54 Z M 141.15 145.72 L 140.17 145.89 C 139.28 146.04 138.68 146.89 138.83 147.78 C 138.99 148.67 139.84 149.27 140.73 149.12 L 141.71 148.95 C 142.60 148.80 143.20 147.95 143.05 147.05 C 142.89 146.16 142.05 145.56 141.15 145.72 Z M 140.14 145.92 L 139.18 146.10 C 138.30 146.27 137.73 147.12 137.90 148.00 C 138.07 148.87 138.92 149.45 139.79 149.28 L 140.76 149.09 C 141.63 148.92 142.21 148.07 142.04 147.20 C 141.87 146.32 141.02 145.75 140.14 145.92 Z M 139.17 146.13 L 138.23 146.32 C 137.37 146.50 136.82 147.34 136.99 148.20 C 137.17 149.06 138.01 149.62 138.87 149.44 L 139.80 149.25 C 140.66 149.07 141.22 148.23 141.04 147.37 C 140.87 146.51 140.03 145.95 139.17 146.13 Z"
      fill="black"
      fill-rule="nonzero" /></svg>