<svg xmlns="http://www.w3.org/2000/svg" width="300" height="300" viewBox="0 0 300 300">
<path d="M 165.48 139.97 L 165.25 139.03 C 165.05 138.19 164.20 137.67 163.35 137.88 C 162.51 138.08 161.99 138.93 162.20 139.78 L 162.42 140.71 C 162.63 141.56 163.48 142.07 164.32 141.87 C 165.17 141.66 165.69 140.81 165.48 139.97 Z M 165.25 139.01 L 165.00 138.06 C 164.78 137.22 163.92 136.71 163.08 136.93 C 162.24 137.15 161.73 138.01 161.95 138.85 L 162.20 139.80 C 162.42 140.64 163.28 141.15 164.12 140.93 C 164.96 140.71 165.47 139.85 165.25 139.01 Z M 164.98 138.01 L 164.70 137.03 C 164.45 136.20 163.57 135.72 162.74 135.97 C 161.91 136.21 161.43 137.09 161.68 137.92 L 161.97 138.90 C 162.21 139.74 163.09 140.21 163.92 139.96 C 164.76 139.72 165.23 138.84 164.98 138.01 Z M 164.68 136.97 L 164.36 136.04 C 164.08 135.22 163.18 134.78 162.36 135.06 C 161.54 135.34 161.10 136.23 161.38 137.05 L 161.70 137.98 C 161.98 138.81 162.87 139.25 163.69 138.97 C 164.52 138.69 164.96 137.79 164.68 136.97 Z M 164.34 135.98 L 164.01 135.12 C 163.69 134.31 162.78 133.91 161.97 134.22 C 161.16 134.53 160.76 135.45 161.07 136.26 L 161.40 137.11 C 161.72 137.92 162.63 138.33 163.44 138.01 C 164.25 137.70 164.65 136.79 164.34 135.98 Z M 163.98 135.07 L 163.60 134.17 C 163.25 133.37 162.33 133.00 161.53 133.34 C 160.73 133.69 160.36 134.61 160.71 135.41 L 161.09 136.31 C 161.43 137.11 162.36 137.48 163.16 137.13 C 163.96 136.79 164.33 135.87 163.98 135.07 Z M 163.58 134.12 L 163.13 133.17 C 162.76 132.39 161.82 132.05 161.04 132.42 C 160.25 132.79 159.91 133.73 160.28 134.52 L 160.73 135.46 C 161.10 136.25 162.04 136.58 162.82 136.21 C 163.61 135.84 163.95 134.91 163.58 134.12 Z M 163.11 133.13 L 162.60 132.14 C 162.21 131.37 161.26 131.06 160.48 131.46 C 159.71 131.85 159.40 132.80 159.80 133.57 L 160.30 134.56 C 160.70 135.34 161.65 135.64 162.42 135.25 C 163.20 134.85 163.50 133.90 163.11 133.13 Z M 162.59 132.10 L 162.12 131.24 C 161.70 130.47 160.74 130.19 159.97 130.61 C 159.21 131.03 158.92 131.99 159.34 132.75 L 159.81 133.62 C 160.23 134.38 161.19 134.66 161.96 134.24 C 162.72 133.83 163.01 132.87 162.59 132.10 Z M 162.11 131.20 L 161.60 130.32 C 161.16 129.56 160.18 129.30 159.42 129.74 C 158.66 130.18 158.40 131.15 158.84 131.91 L 159.35 132.79 C 159.79 133.55 160.77 133.81 161.53 133.37 C 162.29 132.93 162.55 131.96 162.11 131.20 Z M 161.58 130.28 L 161.05 129.40 C 160.59 128.65 159.60 128.41 158.85 128.88 C 158.09 129.34 157.86 130.32 158.32 131.08 L 158.86 131.95 C 159.32 132.70 160.30 132.94 161.06 132.48 C 161.81 132.02 162.05 131.03 161.58 130.28 Z M 161.03 129.36 L 160.48 128.51 C 159.99 127.77 158.99 127.56 158.25 128.04 C 157.50 128.53 157.29 129.53 157.78 130.27 L 158.33 131.12 C 158.82 131.87 159.82 132.08 160.57 131.59 C 161.31 131.10 161.52 130.10 161.03 129.36 Z M 160.46 128.46 L 159.89 127.66 C 159.38 126.93 158.37 126.75 157.64 127.27 C 156.90 127.78 156.73 128.79 157.24 129.53 L 157.80 130.32 C 158.32 131.06 159.33 131.23 160.06 130.72 C 160.79 130.20 160.97 129.19 160.46 128.46 Z M 159.86 127.59 L 159.20 126.74 C 158.64 126.02 157.62 125.89 156.91 126.44 C 156.19 126.99 156.06 128.02 156.61 128.73 L 157.28 129.59 C 157.83 130.31 158.85 130.44 159.57 129.88 C 160.28 129.33 160.41 128.31 159.86 127.59 Z M 159.14 126.65 L 158.44 125.85 C 157.85 125.17 156.81 125.10 156.12 125.70 C 155.44 126.29 155.37 127.33 155.97 128.02 L 156.67 128.82 C 157.26 129.50 158.30 129.57 158.99 128.97 C 159.67 128.37 159.74 127.34 159.14 126.65 Z M 158.37 125.76 L 157.68 125.07 C 157.03 124.42 155.98 124.43 155.33 125.08 C 154.69 125.72 154.69 126.77 155.34 127.42 L 156.04 128.11 C 156.69 128.75 157.74 128.75 158.38 128.10 C 159.03 127.45 159.02 126.41 158.37 125.76 Z M 157.59 124.97 L 156.89 124.38 C 156.19 123.78 155.13 123.87 154.54 124.57 C 153.94 125.27 154.03 126.33 154.73 126.92 L 155.43 127.51 C 156.13 128.11 157.18 128.02 157.78 127.32 C 158.38 126.62 158.29 125.57 157.59 124.97 Z M 156.78 124.28 L 155.99 123.72 C 155.23 123.19 154.18 123.37 153.65 124.13 C 153.11 124.89 153.30 125.94 154.06 126.47 L 154.84 127.02 C 155.60 127.56 156.65 127.37 157.18 126.62 C 157.72 125.86 157.53 124.81 156.78 124.28 Z M 155.84 123.62 L 154.95 123.13 C 154.14 122.67 153.11 122.97 152.66 123.79 C 152.20 124.60 152.50 125.63 153.32 126.08 L 154.20 126.57 C 155.02 127.03 156.05 126.73 156.50 125.91 C 156.95 125.10 156.66 124.07 155.84 123.62 Z M 154.78 123.03 L 153.87 122.66 C 153.01 122.30 152.01 122.71 151.65 123.58 C 151.30 124.45 151.71 125.44 152.58 125.80 L 153.49 126.18 C 154.35 126.53 155.35 126.12 155.71 125.25 C 156.06 124.38 155.65 123.39 154.78 123.03 Z M 153.70 122.59 L 152.77 122.32 C 151.86 122.05 150.91 122.58 150.65 123.48 C 150.39 124.39 150.91 125.34 151.82 125.60 L 152.75 125.87 C 153.66 126.14 154.61 125.61 154.87 124.71 C 155.13 123.80 154.61 122.85 153.70 122.59 Z M 152.61 122.26 L 151.68 122.09 C 150.74 121.91 149.84 122.52 149.66 123.46 C 149.48 124.40 150.10 125.30 151.03 125.48 L 151.97 125.65 C 152.91 125.83 153.81 125.22 153.99 124.28 C 154.17 123.35 153.55 122.44 152.61 122.26 Z M 151.55 122.05 L 150.57 121.94 C 149.61 121.83 148.75 122.52 148.64 123.48 C 148.54 124.44 149.22 125.30 150.18 125.41 L 151.16 125.52 C 152.12 125.62 152.98 124.93 153.09 123.98 C 153.20 123.02 152.51 122.16 151.55 122.05 Z M 150.47 121.91 L 149.44 121.86 C 148.47 121.80 147.64 122.55 147.59 123.52 C 147.53 124.49 148.28 125.32 149.25 125.38 L 150.28 125.43 C 151.25 125.49 152.08 124.74 152.14 123.77 C 152.19 122.80 151.44 121.96 150.47 121.91 Z M 149.37 121.84 L 148.39 121.82 C 147.41 121.80 146.60 122.59 146.58 123.57 C 146.57 124.55 147.35 125.36 148.33 125.38 L 149.32 125.40 C 150.30 125.41 151.11 124.63 151.13 123.65 C 151.14 122.66 150.36 121.85 149.37 121.84 Z M 148.31 121.81 L 147.36 121.84 C 146.37 121.86 145.59 122.69 145.62 123.68 C 145.65 124.67 146.48 125.45 147.47 125.42 L 148.41 125.39 C 149.40 125.36 150.18 124.54 150.15 123.55 C 150.13 122.56 149.30 121.78 148.31 121.81 Z M 147.23 121.83 L 146.25 121.93 C 145.26 122.03 144.53 122.92 144.63 123.91 C 144.73 124.90 145.62 125.62 146.61 125.52 L 147.60 125.42 C 148.59 125.32 149.31 124.44 149.21 123.45 C 149.11 122.45 148.22 121.73 147.23 121.83 Z M 146.07 121.95 L 145.05 122.15 C 144.07 122.35 143.43 123.31 143.63 124.29 C 143.83 125.28 144.79 125.91 145.77 125.71 L 146.79 125.51 C 147.77 125.31 148.41 124.35 148.21 123.37 C 148.01 122.39 147.06 121.75 146.07 121.95 Z M 144.85 122.19 L 143.84 122.52 C 142.88 122.83 142.36 123.86 142.67 124.82 C 142.98 125.78 144.01 126.31 144.97 126.00 L 145.97 125.67 C 146.93 125.36 147.46 124.33 147.15 123.37 C 146.84 122.41 145.81 121.88 144.85 122.19 Z M 143.67 122.57 L 142.76 122.97 C 141.83 123.38 141.41 124.47 141.81 125.40 C 142.22 126.33 143.31 126.75 144.24 126.34 L 145.15 125.94 C 146.08 125.53 146.50 124.45 146.09 123.52 C 145.68 122.59 144.60 122.17 143.67 122.57 Z M 142.64 123.02 L 141.73 123.50 C 140.83 123.97 140.48 125.09 140.96 125.99 C 141.43 126.90 142.55 127.24 143.45 126.77 L 144.36 126.29 C 145.26 125.82 145.61 124.70 145.13 123.80 C 144.66 122.89 143.54 122.55 142.64 123.02 Z M 141.65 123.54 L 140.76 124.06 C 139.88 124.58 139.59 125.72 140.11 126.60 C 140.63 127.48 141.77 127.78 142.65 127.25 L 143.54 126.73 C 144.42 126.21 144.71 125.07 144.19 124.19 C 143.67 123.31 142.53 123.01 141.65 123.54 Z M 140.70 124.08 L 139.86 124.62 C 138.99 125.17 138.74 126.33 139.29 127.20 C 139.85 128.07 141.00 128.32 141.87 127.77 L 142.71 127.23 C 143.58 126.67 143.83 125.52 143.28 124.65 C 142.73 123.78 141.57 123.53 140.70 124.08 Z M 139.82 124.64 L 138.99 125.20 C 138.13 125.77 137.89 126.93 138.47 127.80 C 139.04 128.66 140.21 128.89 141.07 128.31 L 141.91 127.75 C 142.77 127.18 143.00 126.01 142.42 125.15 C 141.85 124.29 140.68 124.06 139.82 124.64 Z M 138.96 125.21 L 138.08 125.81 C 137.22 126.40 137.01 127.57 137.60 128.43 C 138.19 129.28 139.36 129.50 140.21 128.91 L 141.09 128.30 C 141.95 127.71 142.16 126.54 141.57 125.69 C 140.99 124.83 139.81 124.62 138.96 125.21 Z M 138.05 125.83 L 137.25 126.40 C 136.40 127.00 136.20 128.18 136.81 129.03 C 137.41 129.88 138.59 130.07 139.44 129.47 L 140.24 128.90 C 141.09 128.29 141.29 127.11 140.68 126.27 C 140.08 125.42 138.90 125.22 138.05 125.83 Z M 137.22 126.41 L 136.46 126.97 C 135.62 127.59 135.44 128.77 136.06 129.61 C 136.68 130.45 137.86 130.63 138.70 130.02 L 139.46 129.46 C 140.30 128.84 140.48 127.66 139.86 126.82 C 139.25 125.98 138.06 125.80 137.22 126.41 Z M 136.44 126.98 L 135.69 127.55 C 134.85 128.18 134.69 129.37 135.31 130.20 C 135.94 131.04 137.13 131.20 137.96 130.57 L 138.72 130.01 C 139.55 129.38 139.72 128.19 139.09 127.36 C 138.46 126.52 137.28 126.35 136.44 126.98 Z M 135.67 127.56 L 134.89 128.15 C 134.06 128.79 133.91 129.98 134.54 130.81 C 135.18 131.64 136.37 131.80 137.20 131.16 L 137.98 130.57 C 138.81 129.93 138.97 128.74 138.33 127.91 C 137.69 127.08 136.50 126.92 135.67 127.56 Z M 134.88 128.16 L 134.09 128.78 C 133.27 129.42 133.12 130.62 133.76 131.44 C 134.41 132.27 135.60 132.42 136.43 131.77 L 137.22 131.16 C 138.05 130.51 138.19 129.32 137.55 128.49 C 136.90 127.66 135.71 127.51 134.88 128.16 Z M 134.08 128.78 L 133.28 129.41 C 132.46 130.07 132.32 131.27 132.98 132.09 C 133.63 132.91 134.83 133.05 135.65 132.40 L 136.45 131.76 C 137.27 131.11 137.41 129.91 136.75 129.09 C 136.10 128.27 134.90 128.13 134.08 128.78 Z M 133.27 129.42 L 132.49 130.05 C 131.67 130.71 131.54 131.91 132.20 132.73 C 132.87 133.55 134.07 133.68 134.89 133.02 L 135.67 132.39 C 136.48 131.73 136.61 130.53 135.95 129.71 C 135.29 128.89 134.09 128.76 133.27 129.42 Z M 132.48 130.06 L 131.72 130.68 C 130.90 131.35 130.79 132.55 131.46 133.37 C 132.12 134.18 133.33 134.30 134.14 133.63 L 134.90 133.01 C 135.72 132.34 135.83 131.14 135.16 130.32 C 134.49 129.51 133.29 129.39 132.48 130.06 Z M 131.70 130.69 L 130.94 131.33 C 130.13 132.01 130.02 133.21 130.70 134.02 C 131.38 134.83 132.58 134.94 133.39 134.26 L 134.16 133.62 C 134.97 132.94 135.08 131.74 134.40 130.93 C 133.72 130.12 132.51 130.01 131.70 130.69 Z M 130.92 131.34 L 130.15 132.00 C 129.35 132.69 129.25 133.89 129.94 134.70 C 130.63 135.50 131.83 135.60 132.64 134.91 L 133.41 134.25 C 134.21 133.56 134.31 132.36 133.62 131.55 C 132.94 130.75 131.73 130.65 130.92 131.34 Z M 130.13 132.01 L 129.36 132.69 C 128.56 133.38 128.48 134.59 129.18 135.39 C 129.88 136.19 131.09 136.27 131.88 135.57 L 132.66 134.90 C 133.45 134.20 133.53 132.99 132.84 132.19 C 132.14 131.40 130.93 131.32 130.13 132.01 Z M 129.34 132.70 L 128.59 133.37 C 127.80 134.08 127.73 135.29 128.44 136.08 C 129.15 136.87 130.36 136.94 131.15 136.23 L 131.90 135.56 C 132.69 134.85 132.76 133.64 132.05 132.85 C 131.35 132.06 130.13 131.99 129.34 132.70 Z M 128.57 133.39 L 127.82 134.07 C 127.04 134.79 126.99 136.01 127.71 136.79 C 128.43 137.57 129.64 137.62 130.42 136.90 L 131.17 136.22 C 131.95 135.50 132.00 134.29 131.28 133.50 C 130.57 132.72 129.35 132.67 128.57 133.39 Z M 127.80 134.09 L 127.08 134.78 C 126.30 135.51 126.27 136.73 127.00 137.50 C 127.73 138.27 128.95 138.30 129.72 137.57 L 130.44 136.88 C 131.21 136.15 131.25 134.94 130.52 134.17 C 129.79 133.40 128.57 133.36 127.80 134.09 Z M 127.05 134.80 L 126.35 135.48 C 125.60 136.23 125.58 137.45 126.33 138.20 C 127.07 138.96 128.29 138.98 129.05 138.23 L 129.74 137.55 C 130.50 136.81 130.51 135.59 129.77 134.83 C 129.03 134.07 127.81 134.06 127.05 134.80 Z M 126.32 135.51 L 125.59 136.27 C 124.84 137.03 124.86 138.25 125.62 138.99 C 126.38 139.73 127.60 139.72 128.34 138.96 L 129.08 138.20 C 129.82 137.44 129.81 136.22 129.05 135.48 C 128.28 134.74 127.07 134.75 126.32 135.51 Z M 125.55 136.30 L 124.86 137.05 C 124.14 137.83 124.19 139.05 124.97 139.77 C 125.75 140.49 126.97 140.44 127.69 139.66 L 128.38 138.92 C 129.10 138.14 129.05 136.92 128.27 136.20 C 127.49 135.48 126.27 135.52 125.55 136.30 Z M 124.83 137.09 L 124.18 137.82 C 123.48 138.62 123.56 139.84 124.37 140.54 C 125.17 141.24 126.38 141.16 127.08 140.36 L 127.73 139.62 C 128.43 138.82 128.35 137.61 127.55 136.91 C 126.75 136.20 125.53 136.29 124.83 137.09 Z M 124.15 137.86 L 123.55 138.59 C 122.87 139.41 122.99 140.63 123.81 141.30 C 124.63 141.98 125.84 141.86 126.52 141.04 L 127.12 140.32 C 127.80 139.49 127.68 138.28 126.86 137.60 C 126.04 136.92 124.83 137.04 124.15 137.86 Z M 123.51 138.64 L 122.95 139.37 C 122.29 140.21 122.45 141.42 123.30 142.07 C 124.14 142.72 125.35 142.57 126.00 141.72 L 126.56 140.99 C 127.21 140.15 127.06 138.94 126.21 138.29 C 125.37 137.64 124.16 137.79 123.51 138.64 Z M 122.90 139.43 L 122.35 140.21 C 121.73 141.08 121.94 142.29 122.81 142.90 C 123.68 143.52 124.88 143.31 125.50 142.44 L 126.05 141.66 C 126.66 140.79 126.46 139.58 125.59 138.97 C 124.71 138.35 123.51 138.56 122.90 139.43 Z M 122.30 140.28 L 121.74 141.16 C 121.16 142.06 121.42 143.25 122.32 143.83 C 123.22 144.40 124.41 144.14 124.99 143.24 L 125.55 142.37 C 126.12 141.47 125.86 140.27 124.96 139.70 C 124.07 139.13 122.87 139.39 122.30 140.28 Z M 121.70 141.23 L 121.16 142.14 C 120.62 143.06 120.93 144.25 121.85 144.79 C 122.77 145.32 123.95 145.01 124.49 144.09 L 125.03 143.18 C 125.57 142.26 125.26 141.07 124.34 140.53 C 123.42 140.00 122.23 140.31 121.70 141.23 Z M 121.13 142.20 L 120.68 143.02 C 120.17 143.96 120.52 145.13 121.45 145.64 C 122.39 146.15 123.56 145.80 124.07 144.86 L 124.52 144.04 C 125.03 143.10 124.68 141.93 123.75 141.42 C 122.81 140.91 121.64 141.26 121.13 142.20 Z M 120.65 143.07 L 120.20 143.96 C 119.72 144.91 120.10 146.07 121.06 146.55 C 122.01 147.03 123.17 146.65 123.65 145.70 L 124.10 144.81 C 124.58 143.86 124.20 142.70 123.25 142.22 C 122.30 141.74 121.13 142.12 120.65 143.07 Z M 120.18 144.02 L 119.74 144.95 C 119.29 145.92 119.71 147.06 120.68 147.51 C 121.65 147.96 122.80 147.54 123.25 146.58 L 123.68 145.64 C 124.13 144.68 123.71 143.53 122.74 143.08 C 121.77 142.63 120.63 143.05 120.18 144.02 Z M 119.71 145.02 L 119.31 145.98 C 118.90 146.96 119.36 148.09 120.35 148.51 C 121.33 148.92 122.46 148.45 122.87 147.47 L 123.28 146.51 C 123.69 145.52 123.22 144.39 122.24 143.98 C 121.26 143.57 120.12 144.03 119.71 145.02 Z M 119.28 146.06 L 118.92 147.03 C 118.56 148.04 119.08 149.14 120.08 149.51 C 121.08 149.87 122.19 149.36 122.55 148.36 L 122.91 147.38 C 123.27 146.38 122.76 145.27 121.75 144.91 C 120.75 144.54 119.64 145.06 119.28 146.06 Z M 118.89 147.14 L 118.58 148.18 C 118.27 149.20 118.85 150.28 119.87 150.59 C 120.89 150.89 121.97 150.31 122.28 149.29 L 122.59 148.25 C 122.90 147.23 122.32 146.15 121.29 145.84 C 120.27 145.54 119.20 146.12 118.89 147.14 Z M 118.55 148.30 L 118.31 149.32 C 118.07 150.36 118.71 151.39 119.75 151.64 C 120.79 151.88 121.83 151.23 122.07 150.19 L 122.31 149.17 C 122.55 148.13 121.90 147.10 120.87 146.85 C 119.83 146.61 118.79 147.26 118.55 148.30 Z M 118.28 149.44 L 118.12 150.43 C 117.94 151.48 118.65 152.47 119.70 152.65 C 120.76 152.83 121.75 152.12 121.93 151.06 L 122.09 150.07 C 122.27 149.02 121.56 148.03 120.51 147.85 C 119.46 147.67 118.46 148.38 118.28 149.44 Z M 118.10 150.55 L 118.00 151.50 C 117.90 152.56 118.67 153.51 119.73 153.62 C 120.79 153.72 121.74 152.95 121.85 151.89 L 121.94 150.94 C 122.05 149.88 121.28 148.93 120.22 148.82 C 119.16 148.72 118.21 149.49 118.10 150.55 Z M 118.00 151.63 L 117.97 152.55 C 117.93 153.61 118.77 154.51 119.84 154.54 C 120.90 154.57 121.80 153.73 121.83 152.67 L 121.86 151.75 C 121.89 150.69 121.05 149.80 119.99 149.76 C 118.92 149.73 118.03 150.57 118.00 151.63 Z M 117.97 152.73 L 118.04 153.79 C 118.10 154.85 119.02 155.66 120.09 155.59 C 121.15 155.52 121.96 154.61 121.89 153.54 L 121.83 152.49 C 121.76 151.42 120.84 150.61 119.78 150.68 C 118.71 150.75 117.90 151.67 117.97 152.73 Z M 118.08 154.07 L 118.28 155.04 C 118.51 156.08 119.54 156.74 120.58 156.52 C 121.63 156.29 122.29 155.26 122.06 154.22 L 121.85 153.25 C 121.63 152.21 120.60 151.55 119.56 151.77 C 118.51 152.00 117.85 153.03 118.08 154.07 Z M 118.40 155.41 L 118.79 156.28 C 119.22 157.26 120.36 157.70 121.34 157.27 C 122.32 156.84 122.76 155.70 122.33 154.72 L 121.94 153.85 C 121.51 152.87 120.37 152.43 119.40 152.86 C 118.42 153.29 117.97 154.43 118.40 155.41 Z M 119.01 156.66 L 119.59 157.44 C 120.23 158.30 121.45 158.47 122.30 157.83 C 123.16 157.19 123.33 155.98 122.69 155.12 L 122.11 154.34 C 121.47 153.49 120.26 153.31 119.40 153.95 C 118.54 154.59 118.37 155.80 119.01 156.66 Z M 119.85 157.72 L 120.57 158.37 C 121.36 159.09 122.59 159.02 123.30 158.23 C 124.02 157.43 123.96 156.21 123.16 155.49 L 122.44 154.84 C 121.64 154.13 120.42 154.19 119.70 154.99 C 118.99 155.78 119.05 157.01 119.85 157.72 Z M 120.77 158.53 L 121.62 159.11 C 122.50 159.71 123.70 159.49 124.31 158.60 C 124.91 157.72 124.69 156.51 123.80 155.91 L 122.96 155.33 C 122.08 154.73 120.87 154.95 120.27 155.84 C 119.66 156.72 119.89 157.93 120.77 158.53 Z M 121.77 159.21 L 122.68 159.70 C 123.61 160.22 124.79 159.88 125.31 158.94 C 125.83 158.00 125.48 156.82 124.55 156.31 L 123.64 155.81 C 122.71 155.29 121.53 155.64 121.01 156.57 C 120.49 157.51 120.84 158.69 121.77 159.21 Z M 122.81 159.77 L 123.70 160.18 C 124.68 160.63 125.83 160.20 126.27 159.22 C 126.72 158.25 126.29 157.09 125.31 156.65 L 124.42 156.24 C 123.44 155.79 122.29 156.22 121.85 157.20 C 121.40 158.17 121.83 159.33 122.81 159.77 Z M 123.83 160.23 L 124.84 160.61 C 125.85 160.99 126.97 160.47 127.34 159.47 C 127.72 158.46 127.20 157.35 126.20 156.97 L 125.19 156.60 C 124.18 156.22 123.06 156.73 122.69 157.74 C 122.31 158.74 122.83 159.86 123.83 160.23 Z M 124.98 160.66 L 125.94 160.93 C 126.97 161.23 128.05 160.64 128.34 159.60 C 128.64 158.57 128.05 157.50 127.01 157.20 L 126.06 156.93 C 125.03 156.63 123.95 157.22 123.65 158.25 C 123.36 159.29 123.95 160.36 124.98 160.66 Z M 126.06 160.96 L 126.98 161.17 C 128.03 161.40 129.07 160.74 129.30 159.69 C 129.53 158.65 128.87 157.61 127.82 157.38 L 126.90 157.17 C 125.85 156.94 124.81 157.60 124.58 158.65 C 124.35 159.69 125.01 160.73 126.06 160.96 Z M 127.05 161.18 L 127.99 161.36 C 129.05 161.55 130.06 160.86 130.26 159.80 C 130.45 158.74 129.76 157.73 128.70 157.54 L 127.76 157.36 C 126.70 157.17 125.69 157.86 125.49 158.92 C 125.30 159.97 125.99 160.99 127.05 161.18 Z M 128.03 161.37 L 129.01 161.53 C 130.07 161.70 131.07 160.98 131.24 159.92 C 131.42 158.86 130.70 157.86 129.64 157.69 L 128.66 157.53 C 127.60 157.36 126.60 158.08 126.43 159.14 C 126.25 160.20 126.97 161.20 128.03 161.37 Z M 129.07 161.53 L 130.07 161.67 C 131.13 161.81 132.11 161.06 132.25 159.99 C 132.39 158.93 131.64 157.95 130.58 157.81 L 129.58 157.68 C 128.52 157.54 127.54 158.28 127.40 159.35 C 127.25 160.41 128.00 161.39 129.07 161.53 Z M 130.14 161.68 L 131.15 161.77 C 132.22 161.87 133.17 161.09 133.27 160.02 C 133.37 158.95 132.59 158.00 131.52 157.90 L 130.51 157.80 C 129.44 157.70 128.49 158.48 128.39 159.55 C 128.28 160.62 129.07 161.57 130.14 161.68 Z M 131.22 161.78 L 132.22 161.83 C 133.29 161.89 134.21 161.07 134.27 160.00 C 134.33 158.92 133.50 158.00 132.43 157.95 L 131.44 157.89 C 130.36 157.83 129.45 158.65 129.39 159.73 C 129.33 160.80 130.15 161.72 131.22 161.78 Z M 132.28 161.84 L 133.28 161.86 C 134.35 161.88 135.24 161.03 135.27 159.96 C 135.29 158.88 134.44 157.99 133.37 157.97 L 132.37 157.94 C 131.30 157.92 130.40 158.77 130.38 159.84 C 130.35 160.92 131.20 161.81 132.28 161.84 Z M 133.31 161.86 L 134.31 161.87 C 135.39 161.87 136.27 161.01 136.27 159.93 C 136.28 158.85 135.41 157.98 134.34 157.97 L 133.33 157.97 C 132.26 157.96 131.38 158.83 131.37 159.90 C 131.37 160.98 132.23 161.85 133.31 161.86 Z M 134.33 161.87 L 135.32 161.87 C 136.40 161.87 137.27 160.99 137.27 159.92 C 137.27 158.84 136.40 157.97 135.32 157.97 L 134.32 157.97 C 133.25 157.97 132.38 158.84 132.38 159.92 C 132.38 160.99 133.25 161.87 134.33 161.87 Z M 135.33 161.87 L 136.33 161.86 C 137.40 161.86 138.27 160.98 138.27 159.91 C 138.26 158.83 137.39 157.96 136.31 157.97 L 135.32 157.97 C 134.24 157.97 133.37 158.85 133.38 159.93 C 133.38 161.00 134.26 161.87 135.33 161.87 Z M 136.35 161.86 L 137.35 161.85 C 138.42 161.84 139.28 160.95 139.27 159.88 C 139.26 158.80 138.37 157.94 137.30 157.95 L 136.29 157.97 C 135.22 157.98 134.36 158.86 134.37 159.94 C 134.39 161.02 135.27 161.88 136.35 161.86 Z M 137.38 161.85 L 138.38 161.82 C 139.46 161.79 140.31 160.89 140.28 159.82 C 140.25 158.74 139.35 157.90 138.27 157.93 L 137.27 157.95 C 136.19 157.99 135.35 158.88 135.38 159.96 C 135.41 161.03 136.30 161.88 137.38 161.85 Z M 138.43 161.82 L 139.43 161.77 C 140.51 161.71 141.33 160.80 141.28 159.73 C 141.23 158.65 140.31 157.82 139.24 157.88 L 138.23 157.93 C 137.16 157.98 136.33 158.90 136.38 159.97 C 136.44 161.04 137.35 161.87 138.43 161.82 Z M 139.49 161.76 L 140.49 161.68 C 141.56 161.60 142.36 160.66 142.28 159.59 C 142.19 158.51 141.25 157.71 140.18 157.80 L 139.18 157.88 C 138.11 157.97 137.31 158.91 137.39 159.98 C 137.48 161.05 138.42 161.85 139.49 161.76 Z M 140.57 161.67 L 141.56 161.55 C 142.62 161.43 143.39 160.45 143.26 159.39 C 143.13 158.32 142.16 157.56 141.09 157.69 L 140.10 157.81 C 139.03 157.94 138.27 158.91 138.40 159.98 C 138.53 161.04 139.50 161.80 140.57 161.67 Z M 141.66 161.54 L 142.64 161.37 C 143.70 161.19 144.41 160.18 144.23 159.12 C 144.04 158.06 143.04 157.35 141.98 157.53 L 140.99 157.70 C 139.93 157.89 139.22 158.90 139.40 159.95 C 139.59 161.01 140.60 161.72 141.66 161.54 Z M 142.75 161.35 L 143.73 161.12 C 144.78 160.88 145.43 159.83 145.19 158.79 C 144.95 157.74 143.90 157.09 142.85 157.33 L 141.87 157.55 C 140.82 157.80 140.17 158.84 140.41 159.89 C 140.65 160.94 141.70 161.59 142.75 161.35 Z M 143.82 161.10 L 144.78 160.82 C 145.82 160.53 146.41 159.45 146.12 158.42 C 145.83 157.39 144.75 156.79 143.72 157.08 L 142.76 157.35 C 141.72 157.65 141.13 158.72 141.42 159.76 C 141.71 160.79 142.79 161.39 143.82 161.10 Z M 144.87 160.80 L 145.80 160.48 C 146.82 160.14 147.37 159.04 147.03 158.02 C 146.69 157.00 145.59 156.45 144.57 156.79 L 143.63 157.11 C 142.61 157.45 142.06 158.55 142.40 159.57 C 142.74 160.59 143.85 161.14 144.87 160.80 Z M 145.87 160.46 L 146.80 160.11 C 147.81 159.73 148.31 158.61 147.94 157.60 C 147.56 156.60 146.44 156.09 145.43 156.47 L 144.50 156.82 C 143.50 157.20 142.99 158.32 143.37 159.32 C 143.75 160.33 144.87 160.84 145.87 160.46 Z M 146.85 160.09 L 147.77 159.71 C 148.76 159.31 149.24 158.18 148.84 157.18 C 148.43 156.19 147.30 155.71 146.31 156.11 L 145.39 156.49 C 144.39 156.89 143.91 158.03 144.32 159.02 C 144.72 160.01 145.85 160.49 146.85 160.09 Z M 147.79 159.70 L 148.72 159.32 C 149.70 158.90 150.17 157.76 149.76 156.78 C 149.34 155.79 148.21 155.32 147.22 155.73 L 146.29 156.12 C 145.30 156.54 144.83 157.67 145.25 158.66 C 145.66 159.65 146.80 160.12 147.79 159.70 Z M 148.71 159.32 L 149.57 158.96 C 150.56 158.55 151.03 157.41 150.62 156.42 C 150.20 155.43 149.07 154.96 148.08 155.38 L 147.22 155.73 C 146.23 156.15 145.76 157.28 146.18 158.27 C 146.59 159.26 147.72 159.73 148.71 159.32 Z M 149.58 158.95 L 150.44 158.59 C 151.42 158.17 151.88 157.03 151.46 156.04 C 151.04 155.06 149.90 154.60 148.92 155.02 L 148.07 155.38 C 147.08 155.80 146.62 156.94 147.04 157.93 C 147.46 158.91 148.60 159.37 149.58 158.95 Z M 150.49 158.56 L 151.40 158.15 C 152.37 157.70 152.79 156.55 152.35 155.58 C 151.90 154.61 150.75 154.18 149.78 154.63 L 148.87 155.04 C 147.90 155.49 147.47 156.64 147.92 157.61 C 148.36 158.58 149.51 159.01 150.49 158.56 Z M 151.47 158.11 L 152.45 157.61 C 153.41 157.13 153.79 155.96 153.30 155.01 C 152.82 154.06 151.65 153.68 150.70 154.16 L 149.71 154.66 C 148.76 155.15 148.38 156.31 148.86 157.26 C 149.35 158.22 150.51 158.60 151.47 158.11 Z M 152.52 157.57 L 153.36 157.10 C 154.29 156.58 154.62 155.40 154.10 154.47 C 153.58 153.54 152.40 153.21 151.47 153.73 L 150.63 154.20 C 149.70 154.72 149.37 155.90 149.89 156.83 C 150.41 157.76 151.59 158.09 152.52 157.57 Z M 153.41 157.07 L 154.23 156.58 C 155.14 156.03 155.44 154.84 154.89 153.93 C 154.34 153.01 153.15 152.72 152.24 153.27 L 151.42 153.76 C 150.50 154.31 150.20 155.50 150.75 156.41 C 151.30 157.33 152.49 157.62 153.41 157.07 Z M 154.27 156.55 L 155.12 156.01 C 156.02 155.44 156.28 154.24 155.71 153.34 C 155.14 152.44 153.94 152.18 153.04 152.75 L 152.19 153.30 C 151.29 153.87 151.03 155.06 151.60 155.96 C 152.18 156.86 153.37 157.12 154.27 156.55 Z M 155.16 155.98 L 156.02 155.40 C 156.90 154.81 157.14 153.61 156.54 152.73 C 155.95 151.84 154.75 151.61 153.86 152.20 L 153.00 152.78 C 152.12 153.38 151.88 154.58 152.48 155.46 C 153.07 156.34 154.27 156.58 155.16 155.98 Z M 156.06 155.38 L 156.91 154.77 C 157.78 154.15 157.99 152.95 157.37 152.08 C 156.76 151.21 155.55 151.01 154.68 151.62 L 153.83 152.23 C 152.96 152.85 152.75 154.05 153.37 154.92 C 153.98 155.79 155.19 155.99 156.06 155.38 Z M 156.95 154.74 L 157.78 154.12 C 158.63 153.48 158.81 152.28 158.17 151.42 C 157.53 150.57 156.33 150.40 155.47 151.03 L 154.64 151.65 C 153.79 152.29 153.62 153.50 154.25 154.35 C 154.89 155.20 156.10 155.38 156.95 154.74 Z M 157.82 154.09 L 158.61 153.46 C 159.45 152.80 159.59 151.59 158.93 150.76 C 158.27 149.92 157.06 149.78 156.23 150.44 L 155.44 151.06 C 154.60 151.72 154.46 152.93 155.12 153.77 C 155.77 154.60 156.98 154.75 157.82 154.09 Z M 158.65 153.43 L 159.42 152.79 C 160.24 152.11 160.35 150.89 159.67 150.08 C 158.99 149.26 157.78 149.15 156.96 149.83 L 156.19 150.47 C 155.37 151.15 155.26 152.37 155.94 153.18 C 156.62 154.00 157.84 154.11 158.65 153.43 Z M 159.46 152.75 L 160.21 152.09 C 161.00 151.39 161.08 150.18 160.38 149.38 C 159.68 148.59 158.46 148.51 157.67 149.21 L 156.92 149.87 C 156.13 150.57 156.05 151.78 156.75 152.58 C 157.45 153.37 158.66 153.45 159.46 152.75 Z M 160.24 152.05 L 160.97 151.38 C 161.75 150.66 161.79 149.44 161.07 148.67 C 160.35 147.89 159.13 147.85 158.36 148.57 L 157.63 149.25 C 156.86 149.97 156.81 151.18 157.53 151.96 C 158.26 152.73 159.47 152.78 160.24 152.05 Z M 161.01 151.34 L 161.71 150.64 C 162.47 149.90 162.48 148.69 161.74 147.93 C 160.99 147.18 159.78 147.17 159.03 147.91 L 158.32 148.61 C 157.57 149.35 157.56 150.57 158.30 151.32 C 159.04 152.07 160.25 152.08 161.01 151.34 Z M 161.75 150.60 L 162.47 149.85 C 163.20 149.09 163.18 147.88 162.41 147.15 C 161.65 146.42 160.44 146.44 159.71 147.20 L 158.99 147.95 C 158.26 148.72 158.29 149.93 159.05 150.66 C 159.81 151.39 161.02 151.36 161.75 150.60 Z M 162.51 149.81 L 163.20 149.03 C 163.91 148.25 163.85 147.04 163.06 146.34 C 162.28 145.63 161.07 145.69 160.37 146.48 L 159.67 147.25 C 158.97 148.03 159.03 149.24 159.81 149.95 C 160.60 150.65 161.80 150.59 162.51 149.81 Z M 163.24 148.98 L 163.90 148.21 C 164.58 147.40 164.47 146.20 163.67 145.52 C 162.86 144.84 161.66 144.94 160.98 145.75 L 160.33 146.53 C 159.65 147.33 159.75 148.54 160.56 149.22 C 161.36 149.89 162.57 149.79 163.24 148.98 Z M 163.94 148.15 L 164.55 147.37 C 165.20 146.54 165.05 145.34 164.22 144.70 C 163.39 144.05 162.19 144.20 161.54 145.03 L 160.94 145.81 C 160.29 146.64 160.44 147.83 161.27 148.48 C 162.10 149.13 163.30 148.98 163.94 148.15 Z M 164.60 147.30 L 165.14 146.53 C 165.75 145.68 165.55 144.49 164.70 143.88 C 163.84 143.27 162.65 143.47 162.04 144.33 L 161.50 145.10 C 160.89 145.95 161.09 147.14 161.95 147.75 C 162.80 148.36 163.99 148.16 164.60 147.30 Z M 165.20 146.44 L 165.74 145.59 C 166.30 144.70 166.03 143.53 165.14 142.97 C 164.26 142.41 163.08 142.68 162.52 143.57 L 161.99 144.42 C 161.43 145.31 161.70 146.48 162.58 147.04 C 163.47 147.59 164.64 147.33 165.20 146.44 Z M 165.81 145.46 L 166.28 144.57 C 166.76 143.65 166.41 142.50 165.48 142.01 C 164.56 141.52 163.41 141.88 162.92 142.80 L 162.46 143.69 C 161.97 144.62 162.32 145.76 163.25 146.25 C 164.17 146.74 165.32 146.39 165.81 145.46 Z M 166.35 144.41 L 166.72 143.51 C 167.12 142.55 166.66 141.44 165.70 141.04 C 164.73 140.64 163.63 141.10 163.23 142.06 L 162.85 142.96 C 162.45 143.93 162.91 145.03 163.87 145.43 C 164.84 145.84 165.95 145.38 166.35 144.41 Z M 166.78 143.33 L 167.07 142.40 C 167.37 141.40 166.80 140.35 165.81 140.04 C 164.81 139.74 163.75 140.30 163.45 141.30 L 163.17 142.24 C 162.86 143.24 163.43 144.29 164.43 144.59 C 165.42 144.90 166.48 144.33 166.78 143.33 Z M 167.11 142.22 L 167.30 141.24 C 167.51 140.22 166.84 139.22 165.82 139.02 C 164.80 138.82 163.81 139.48 163.61 140.50 L 163.41 141.48 C 163.21 142.50 163.87 143.50 164.89 143.70 C 165.91 143.90 166.90 143.24 167.11 142.22 Z M 167.32 141.07 L 167.43 140.06 C 167.55 139.03 166.80 138.10 165.77 137.99 C 164.73 137.87 163.80 138.62 163.69 139.65 L 163.58 140.67 C 163.47 141.70 164.22 142.63 165.25 142.74 C 166.28 142.85 167.21 142.10 167.32 141.07 Z M 167.44 139.89 L 167.46 138.86 C 167.48 137.83 166.65 136.97 165.62 136.95 C 164.58 136.93 163.72 137.76 163.71 138.79 L 163.69 139.82 C 163.67 140.86 164.49 141.71 165.53 141.73 C 166.57 141.75 167.42 140.93 167.44 139.89 Z M 167.45 138.67 L 167.37 137.67 C 167.28 136.64 166.38 135.87 165.35 135.96 C 164.32 136.04 163.55 136.94 163.63 137.98 L 163.72 138.98 C 163.80 140.01 164.70 140.78 165.74 140.69 C 166.77 140.61 167.53 139.71 167.45 138.67 Z M 167.33 137.44 L 167.13 136.50 C 166.93 135.49 165.94 134.84 164.93 135.05 C 163.92 135.26 163.27 136.25 163.47 137.26 L 163.67 138.20 C 163.88 139.21 164.87 139.86 165.88 139.65 C 166.89 139.44 167.54 138.45 167.33 137.44 Z M 167.04 136.21 L 166.68 135.27 C 166.31 134.32 165.23 133.84 164.27 134.21 C 163.31 134.58 162.84 135.66 163.21 136.62 L 163.57 137.55 C 163.94 138.51 165.02 138.98 165.98 138.61 C 166.93 138.24 167.41 137.17 167.04 136.21 Z M 166.51 134.97 L 165.99 134.13 C 165.45 133.26 164.31 133.00 163.45 133.54 C 162.58 134.07 162.31 135.21 162.85 136.08 L 163.38 136.92 C 163.91 137.79 165.05 138.05 165.92 137.51 C 166.79 136.97 167.05 135.84 166.51 134.97 Z M 165.79 133.89 L 165.15 133.16 C 164.48 132.40 163.32 132.33 162.56 132.99 C 161.80 133.66 161.73 134.82 162.40 135.58 L 163.05 136.31 C 163.72 137.07 164.87 137.15 165.63 136.48 C 166.39 135.81 166.46 134.65 165.79 133.89 Z M 164.97 133.01 L 164.23 132.35 C 163.47 131.68 162.33 131.76 161.66 132.51 C 161.00 133.26 161.07 134.41 161.82 135.07 L 162.57 135.73 C 163.32 136.39 164.47 136.32 165.13 135.57 C 165.80 134.82 165.73 133.67 164.97 133.01 Z M 164.10 132.26 L 163.37 131.72 C 162.57 131.12 161.44 131.29 160.85 132.09 C 160.25 132.88 160.42 134.01 161.21 134.61 L 161.95 135.15 C 162.75 135.75 163.87 135.58 164.47 134.79 C 165.06 133.99 164.90 132.86 164.10 132.26 Z M 163.27 131.67 L 162.50 131.16 C 161.68 130.62 160.57 130.85 160.03 131.67 C 159.48 132.50 159.71 133.61 160.54 134.15 L 161.31 134.66 C 162.13 135.20 163.24 134.97 163.79 134.14 C 164.33 133.32 164.10 132.21 163.27 131.67 Z M 162.42 131.13 L 161.58 130.63 C 160.73 130.13 159.65 130.41 159.15 131.25 C 158.65 132.10 158.93 133.19 159.77 133.68 L 160.62 134.18 C 161.46 134.68 162.55 134.40 163.05 133.56 C 163.55 132.71 163.27 131.63 162.42 131.13 Z M 161.51 130.61 L 160.58 130.10 C 159.72 129.64 158.65 129.96 158.19 130.81 C 157.73 131.67 158.05 132.74 158.90 133.20 L 159.84 133.71 C 160.69 134.17 161.76 133.85 162.22 133.00 C 162.69 132.14 162.37 131.07 161.51 130.61 Z M 160.53 130.09 L 159.55 129.59 C 158.69 129.15 157.64 129.50 157.20 130.36 C 156.76 131.22 157.10 132.27 157.96 132.71 L 158.95 133.21 C 159.81 133.65 160.86 133.30 161.30 132.44 C 161.74 131.58 161.39 130.53 160.53 130.09 Z M 159.52 129.59 L 158.66 129.17 C 157.80 128.75 156.76 129.11 156.34 129.97 C 155.92 130.83 156.28 131.87 157.14 132.29 L 158.00 132.71 C 158.86 133.13 159.90 132.77 160.32 131.91 C 160.74 131.05 160.38 130.01 159.52 129.59 Z M 158.64 129.18 L 157.74 128.75 C 156.88 128.34 155.85 128.71 155.44 129.57 C 155.04 130.43 155.40 131.46 156.26 131.86 L 157.16 132.29 C 158.02 132.70 159.05 132.33 159.46 131.47 C 159.86 130.61 159.50 129.58 158.64 129.18 Z M 157.71 128.75 L 156.78 128.33 C 155.93 127.93 154.91 128.31 154.52 129.16 C 154.12 130.02 154.50 131.04 155.36 131.43 L 156.29 131.86 C 157.14 132.25 158.16 131.88 158.55 131.02 C 158.95 130.16 158.57 129.15 157.71 128.75 Z M 156.76 128.33 L 155.82 127.91 C 154.97 127.53 153.96 127.91 153.58 128.77 C 153.20 129.62 153.58 130.62 154.44 131.01 L 155.38 131.43 C 156.23 131.81 157.24 131.43 157.62 130.57 C 158.00 129.71 157.62 128.71 156.76 128.33 Z M 155.80 127.91 L 154.86 127.51 C 154.01 127.14 153.02 127.53 152.65 128.38 C 152.28 129.24 152.67 130.23 153.52 130.60 L 154.46 131.00 C 155.31 131.37 156.30 130.98 156.67 130.13 C 157.04 129.27 156.65 128.28 155.80 127.91 Z M 154.84 127.51 L 153.90 127.12 C 153.05 126.76 152.08 127.17 151.72 128.02 C 151.36 128.87 151.76 129.84 152.61 130.20 L 153.55 130.59 C 154.40 130.95 155.38 130.55 155.73 129.70 C 156.09 128.85 155.69 127.87 154.84 127.51 Z M 153.88 127.13 L 152.89 126.73 C 152.04 126.39 151.08 126.80 150.74 127.65 C 150.40 128.49 150.81 129.46 151.65 129.80 L 152.64 130.19 C 153.49 130.54 154.45 130.13 154.79 129.28 C 155.13 128.43 154.72 127.47 153.88 127.13 Z M 152.86 126.74 L 151.91 126.37 C 151.07 126.04 150.12 126.46 149.80 127.30 C 149.47 128.14 149.89 129.09 150.73 129.42 L 151.68 129.79 C 152.52 130.11 153.47 129.70 153.80 128.85 C 154.12 128.01 153.71 127.07 152.86 126.74 Z M 151.89 126.38 L 150.97 126.03 C 150.13 125.72 149.20 126.14 148.88 126.98 C 148.57 127.81 148.99 128.75 149.83 129.06 L 150.75 129.41 C 151.59 129.72 152.52 129.30 152.83 128.46 C 153.15 127.63 152.73 126.69 151.89 126.38 Z M 150.95 126.05 L 150.04 125.71 C 149.21 125.41 148.29 125.84 147.99 126.66 C 147.69 127.49 148.11 128.41 148.94 128.72 L 149.85 129.05 C 150.67 129.35 151.59 128.93 151.90 128.10 C 152.20 127.27 151.78 126.35 150.95 126.05 Z M 150.03 125.73 L 149.13 125.40 C 148.31 125.11 147.41 125.53 147.11 126.35 C 146.81 127.17 147.24 128.08 148.06 128.38 L 148.95 128.70 C 149.77 129.00 150.68 128.57 150.98 127.75 C 151.27 126.93 150.85 126.03 150.03 125.73 Z M 149.13 125.41 L 149.01 125.37 C 148.19 125.07 147.29 125.50 147.00 126.31 C 146.70 127.13 147.12 128.03 147.94 128.32 L 148.06 128.37 C 148.88 128.66 149.78 128.24 150.07 127.42 C 150.37 126.61 149.95 125.71 149.13 125.41 Z"
      fill="black"
      fill-rule="nonzero" /></svg>