<svg xmlns="http://www.w3.org/2000/svg" width="300" height="300" viewBox="0 0 300 300">
<path d="M 92.72 149.63 L 91.66 149.63 C 90.79 149.63 90.08 150.34 90.08 151.21 C 90.08 152.08 90.79 152.79 91.66 152.79 L 92.72 152.79 C 93.60 152.79 94.31 152.08 94.31 151.21 C 94.31 150.34 93.60 149.63 92.72 149.63 Z M 91.66 149.63 L 90.61 149.63 C 89.74 149.63 89.03 150.34 89.03 151.21 C 89.03 152.08 89.74 152.79 90.61 152.79 L 91.66 152.79 C 92.53 152.79 93.24 152.08 93.24 151.21 C 93.24 150.34 92.53 149.63 91.66 149.63 Z M 90.61 149.63 L 89.59 149.63 C 88.72 149.63 88.01 150.34 88.01 151.21 C 88.01 152.08 88.72 152.79 89.59 152.79 L 90.61 152.79 C 91.48 152.79 92.19 152.08 92.19 151.21 C 92.19 150.34 91.48 149.63 90.61 149.63 Z M 89.59 149.63 L 88.62 149.63 C 87.74 149.63 87.04 150.34 87.04 151.21 C 87.04 152.08 87.74 152.79 88.62 152.79 L 89.59 152.79 C 90.46 152.79 91.17 152.08 91.17 151.21 C 91.17 150.34 90.46 149.63 89.59 149.63 Z M 88.62 149.63 L 87.70 149.63 C 86.83 149.63 86.12 150.34 86.12 151.21 C 86.12 152.08 86.83 152.79 87.70 152.79 L 88.62 152.79 C 89.49 152.79 90.20 152.08 90.20 151.21 C 90.20 150.34 89.49 149.63 88.62 149.63 Z M 87.70 149.63 L 86.60 149.63 C 85.73 149.63 85.03 150.34 85.03 151.21 C 85.03 152.08 85.73 152.79 86.60 152.79 L 87.70 152.79 C 88.57 152.79 89.28 152.08 89.28 151.21 C 89.28 150.34 88.57 149.63 87.70 149.63 Z M 86.60 149.63 L 85.57 149.63 C 84.70 149.63 83.99 150.34 83.99 151.21 C 83.99 152.08 84.70 152.79 85.57 152.79 L 86.60 152.79 C 87.48 152.79 88.18 152.08 88.18 151.21 C 88.18 150.34 87.48 149.63 86.60 149.63 Z M 85.57 149.63 L 84.63 149.63 C 83.76 149.63 83.05 150.34 83.05 151.21 C 83.05 152.08 83.76 152.79 84.63 152.79 L 85.57 152.79 C 86.44 152.79 87.15 152.08 87.15 151.21 C 87.15 150.34 86.44 149.63 85.57 149.63 Z M 84.63 149.63 L 83.72 149.63 C 82.85 149.63 82.14 150.34 82.14 151.21 C 82.14 152.08 82.85 152.79 83.72 152.79 L 84.63 152.79 C 85.50 152.79 86.21 152.08 86.21 151.21 C 86.21 150.34 85.50 149.63 84.63 149.63 Z M 83.72 149.63 L 82.71 149.63 C 81.83 149.63 81.13 150.34 81.13 151.21 C 81.13 152.09 81.84 152.79 82.71 152.79 L 83.72 152.79 C 84.60 152.79 85.30 152.08 85.30 151.21 C 85.30 150.33 84.59 149.63 83.72 149.63 Z M 82.69 149.63 L 81.70 149.64 C 80.82 149.64 80.12 150.36 80.13 151.24 C 80.14 152.11 80.85 152.81 81.73 152.81 L 82.72 152.80 C 83.60 152.79 84.30 152.07 84.29 151.20 C 84.29 150.32 83.57 149.62 82.69 149.63 Z M 81.68 149.63 L 80.69 149.66 C 79.81 149.68 79.11 150.41 79.13 151.28 C 79.16 152.16 79.89 152.86 80.76 152.84 L 81.75 152.81 C 82.63 152.79 83.33 152.06 83.30 151.18 C 83.28 150.30 82.55 149.61 81.68 149.63 Z M 80.66 149.64 L 79.66 149.69 C 78.77 149.73 78.09 150.47 78.13 151.36 C 78.16 152.24 78.91 152.93 79.80 152.89 L 80.79 152.85 C 81.68 152.81 82.36 152.06 82.32 151.18 C 82.29 150.29 81.54 149.61 80.66 149.64 Z M 79.64 149.67 L 78.64 149.72 C 77.75 149.77 77.06 150.53 77.11 151.42 C 77.15 152.32 77.91 153.01 78.81 152.96 L 79.81 152.91 C 80.70 152.86 81.39 152.10 81.35 151.21 C 81.30 150.31 80.54 149.62 79.64 149.67 Z M 78.65 149.70 L 77.65 149.75 C 76.75 149.79 76.05 150.56 76.09 151.46 C 76.13 152.37 76.90 153.07 77.80 153.03 L 78.80 152.98 C 79.71 152.94 80.41 152.17 80.37 151.26 C 80.32 150.36 79.56 149.66 78.65 149.70 Z M 77.68 149.69 L 76.37 149.72 C 75.43 149.74 74.69 150.52 74.71 151.46 C 74.73 152.40 75.51 153.14 76.45 153.12 L 77.77 153.09 C 78.71 153.06 79.45 152.28 79.43 151.34 C 79.40 150.40 78.62 149.66 77.68 149.69 Z M 76.43 149.61 L 75.51 149.60 C 74.51 149.59 73.69 150.39 73.68 151.39 C 73.67 152.39 74.47 153.21 75.47 153.22 L 76.39 153.23 C 77.39 153.24 78.21 152.44 78.22 151.44 C 78.23 150.44 77.43 149.62 76.43 149.61 Z M 76.30 153.13 L 76.43 153.08 C 77.38 152.63 77.79 151.49 77.34 150.54 C 76.89 149.59 75.76 149.18 74.81 149.62 L 74.68 149.68 C 73.73 150.13 73.32 151.27 73.77 152.22 C 74.21 153.17 75.35 153.58 76.30 153.13 Z M 75.75 153.31 L 76.88 153.23 C 77.97 153.16 78.78 152.22 78.71 151.14 C 78.64 150.06 77.70 149.24 76.62 149.31 L 75.48 149.39 C 74.40 149.46 73.58 150.40 73.66 151.48 C 73.73 152.57 74.67 153.38 75.75 153.31 Z M 76.82 153.27 L 78.03 153.23 C 79.14 153.19 80.00 152.27 79.96 151.17 C 79.93 150.06 79.00 149.20 77.90 149.24 L 76.68 149.28 C 75.58 149.31 74.72 150.24 74.75 151.34 C 74.79 152.44 75.71 153.31 76.82 153.27 Z M 78.00 153.24 L 79.00 153.23 C 80.11 153.21 80.99 152.30 80.98 151.19 C 80.96 150.08 80.05 149.19 78.94 149.21 L 77.94 149.22 C 76.83 149.24 75.94 150.15 75.96 151.26 C 75.97 152.37 76.89 153.26 78.00 153.24 Z M 78.98 153.23 L 80.01 153.22 C 81.12 153.22 82.01 152.31 82.01 151.20 C 82.00 150.09 81.09 149.19 79.98 149.20 L 78.96 149.20 C 77.84 149.21 76.95 150.12 76.95 151.23 C 76.96 152.34 77.87 153.24 78.98 153.23 Z M 80.00 153.23 L 81.00 153.23 C 82.12 153.23 83.02 152.32 83.02 151.21 C 83.02 150.09 82.11 149.19 81.00 149.19 L 79.99 149.19 C 78.88 149.20 77.98 150.10 77.98 151.21 C 77.98 152.33 78.88 153.23 80.00 153.23 Z M 81.00 153.23 L 82.02 153.23 C 83.13 153.23 84.04 152.33 84.04 151.21 C 84.04 150.09 83.13 149.19 82.02 149.19 L 81.00 149.19 C 79.89 149.19 78.98 150.09 78.98 151.21 C 78.98 152.33 79.89 153.23 81.00 153.23 Z M 82.02 153.23 L 83.00 153.23 C 84.12 153.23 85.02 152.33 85.02 151.21 C 85.02 150.09 84.12 149.19 83.00 149.19 L 82.02 149.19 C 80.90 149.19 80.00 150.09 80.00 151.21 C 80.00 152.33 80.90 153.23 82.02 153.23 Z M 83.00 153.23 L 83.98 153.23 C 85.10 153.23 86.00 152.33 86.00 151.21 C 86.00 150.09 85.10 149.19 83.98 149.19 L 83.00 149.19 C 81.88 149.19 80.98 150.09 80.98 151.21 C 80.98 152.33 81.88 153.23 83.00 153.23 Z M 83.98 153.23 L 84.96 153.23 C 86.08 153.23 86.98 152.33 86.98 151.21 C 86.98 150.09 86.08 149.19 84.96 149.19 L 83.98 149.19 C 82.87 149.19 81.96 150.09 81.96 151.21 C 81.96 152.33 82.87 153.23 83.98 153.23 Z M 84.96 153.24 L 85.89 153.25 C 87.02 153.25 87.93 152.34 87.93 151.21 C 87.93 150.09 87.02 149.18 85.90 149.18 L 84.96 149.18 C 83.84 149.17 82.92 150.08 82.92 151.21 C 82.92 152.33 83.83 153.24 84.96 153.24 Z M 85.89 153.26 L 86.88 153.26 C 88.01 153.27 88.94 152.35 88.94 151.22 C 88.94 150.09 88.03 149.17 86.90 149.16 L 85.90 149.16 C 84.77 149.16 83.85 150.07 83.85 151.20 C 83.84 152.34 84.76 153.26 85.89 153.26 Z M 86.88 153.28 L 87.92 153.28 C 89.06 153.29 89.99 152.37 90.00 151.23 C 90.01 150.09 89.09 149.16 87.95 149.16 L 86.90 149.15 C 85.76 149.14 84.83 150.06 84.83 151.20 C 84.82 152.34 85.74 153.27 86.88 153.28 Z M 87.91 153.30 L 88.95 153.31 C 90.10 153.32 91.04 152.40 91.05 151.26 C 91.06 150.11 90.14 149.17 89.00 149.15 L 87.96 149.14 C 86.81 149.13 85.87 150.05 85.86 151.20 C 85.84 152.35 86.76 153.29 87.91 153.30 Z M 88.94 153.33 L 89.89 153.34 C 91.05 153.36 92.00 152.44 92.02 151.28 C 92.04 150.12 91.11 149.17 89.96 149.15 L 89.00 149.14 C 87.85 149.12 86.89 150.04 86.88 151.20 C 86.86 152.36 87.78 153.31 88.94 153.33 Z M 89.88 153.36 L 90.87 153.38 C 92.03 153.40 93.00 152.47 93.02 151.31 C 93.04 150.14 92.11 149.17 90.94 149.15 L 89.96 149.13 C 88.79 149.11 87.83 150.04 87.81 151.21 C 87.79 152.38 88.71 153.34 89.88 153.36 Z M 90.86 153.40 L 91.87 153.42 C 93.05 153.44 94.03 152.51 94.05 151.33 C 94.08 150.15 93.14 149.18 91.96 149.15 L 90.95 149.13 C 89.77 149.11 88.80 150.04 88.77 151.22 C 88.75 152.40 89.68 153.38 90.86 153.40 Z M 91.87 153.44 L 92.92 153.46 C 94.10 153.49 95.09 152.54 95.11 151.35 C 95.14 150.17 94.20 149.18 93.01 149.16 L 91.96 149.13 C 90.78 149.11 89.79 150.05 89.77 151.24 C 89.74 152.43 90.68 153.41 91.87 153.44 Z M 92.92 153.48 L 93.93 153.50 C 95.13 153.52 96.12 152.57 96.14 151.38 C 96.17 150.18 95.22 149.19 94.02 149.16 L 93.01 149.14 C 91.81 149.11 90.82 150.06 90.79 151.26 C 90.77 152.46 91.72 153.45 92.92 153.48 Z M 93.93 153.51 L 94.90 153.53 C 96.11 153.56 97.10 152.60 97.13 151.40 C 97.15 150.19 96.20 149.20 94.99 149.17 L 94.02 149.15 C 92.82 149.13 91.82 150.08 91.79 151.29 C 91.77 152.49 92.72 153.48 93.93 153.51 Z M 94.90 153.54 L 95.89 153.56 C 97.10 153.58 98.10 152.62 98.13 151.42 C 98.15 150.21 97.19 149.21 95.98 149.18 L 94.99 149.16 C 93.78 149.14 92.78 150.10 92.76 151.31 C 92.73 152.51 93.69 153.51 94.90 153.54 Z M 95.89 153.57 L 96.90 153.59 C 98.11 153.61 99.12 152.65 99.14 151.44 C 99.17 150.22 98.20 149.22 96.99 149.20 L 95.98 149.18 C 94.77 149.15 93.77 150.11 93.74 151.33 C 93.72 152.54 94.68 153.54 95.89 153.57 Z M 96.90 153.59 L 97.92 153.61 C 99.14 153.64 100.14 152.67 100.17 151.46 C 100.19 150.24 99.23 149.23 98.01 149.21 L 96.99 149.19 C 95.77 149.16 94.77 150.13 94.74 151.35 C 94.72 152.56 95.69 153.57 96.90 153.59 Z M 97.92 153.62 L 98.95 153.64 C 100.17 153.67 101.18 152.70 101.20 151.48 C 101.23 150.25 100.26 149.24 99.03 149.22 L 98.01 149.20 C 96.79 149.18 95.78 150.15 95.75 151.37 C 95.73 152.59 96.70 153.60 97.92 153.62 Z M 98.95 153.65 L 99.92 153.67 C 101.15 153.69 102.16 152.72 102.18 151.49 C 102.21 150.27 101.23 149.25 100.01 149.23 L 99.03 149.21 C 97.81 149.19 96.80 150.16 96.77 151.39 C 96.75 152.61 97.72 153.63 98.95 153.65 Z M 99.92 153.68 L 100.90 153.70 C 102.14 153.72 103.15 152.74 103.18 151.51 C 103.20 150.28 102.22 149.26 100.99 149.24 L 100.01 149.22 C 98.77 149.20 97.76 150.18 97.73 151.41 C 97.71 152.64 98.69 153.66 99.92 153.68 Z M 100.91 153.71 L 101.90 153.73 C 103.14 153.75 104.16 152.76 104.18 151.52 C 104.20 150.29 103.21 149.27 101.98 149.25 L 100.98 149.23 C 99.75 149.21 98.73 150.19 98.70 151.43 C 98.68 152.67 99.67 153.69 100.91 153.71 Z M 101.90 153.74 L 102.91 153.75 C 104.15 153.77 105.18 152.78 105.19 151.54 C 105.21 150.29 104.22 149.27 102.98 149.25 L 101.97 149.24 C 100.73 149.22 99.71 150.21 99.69 151.45 C 99.67 152.69 100.66 153.72 101.90 153.74 Z M 102.91 153.76 L 103.94 153.78 C 105.18 153.79 106.21 152.79 106.23 151.54 C 106.24 150.29 105.24 149.27 103.99 149.25 L 102.97 149.24 C 101.72 149.22 100.70 150.22 100.68 151.47 C 100.67 152.72 101.67 153.75 102.91 153.76 Z M 103.94 153.79 L 104.96 153.80 C 106.22 153.81 107.25 152.80 107.26 151.55 C 107.27 150.29 106.26 149.27 105.01 149.25 L 103.99 149.24 C 102.73 149.23 101.71 150.24 101.69 151.49 C 101.68 152.75 102.69 153.77 103.94 153.79 Z M 104.97 153.81 L 105.96 153.81 C 107.22 153.82 108.24 152.81 108.25 151.55 C 108.26 150.29 107.25 149.26 105.99 149.25 L 105.00 149.24 C 103.74 149.23 102.71 150.25 102.70 151.51 C 102.70 152.77 103.71 153.80 104.97 153.81 Z M 105.96 153.82 L 106.96 153.83 C 108.22 153.83 109.25 152.81 109.26 151.55 C 109.27 150.28 108.24 149.25 106.98 149.24 L 105.98 149.24 C 104.72 149.23 103.68 150.25 103.68 151.52 C 103.67 152.79 104.69 153.82 105.96 153.82 Z M 106.96 153.84 L 107.97 153.84 C 109.24 153.85 110.27 152.82 110.28 151.55 C 110.28 150.27 109.25 149.24 107.98 149.24 L 106.97 149.23 C 105.70 149.23 104.67 150.26 104.67 151.53 C 104.66 152.80 105.69 153.84 106.96 153.84 Z M 107.97 153.85 L 108.98 153.85 C 110.26 153.86 111.29 152.82 111.29 151.54 C 111.30 150.27 110.26 149.23 108.98 149.23 L 107.98 149.23 C 106.70 149.22 105.66 150.26 105.66 151.54 C 105.66 152.81 106.69 153.85 107.97 153.85 Z M 108.98 153.86 L 109.99 153.86 C 111.27 153.87 112.31 152.83 112.31 151.54 C 112.31 150.26 111.27 149.22 109.99 149.22 L 108.98 149.22 C 107.70 149.22 106.66 150.26 106.66 151.54 C 106.66 152.82 107.70 153.86 108.98 153.86 Z M 109.99 153.88 L 110.99 153.88 C 112.28 153.88 113.33 152.83 113.33 151.54 C 113.33 150.25 112.28 149.21 110.99 149.21 L 109.99 149.21 C 108.70 149.21 107.65 150.25 107.65 151.54 C 107.65 152.83 108.70 153.87 109.99 153.88 Z M 110.99 153.88 L 111.97 153.88 C 113.27 153.88 114.31 152.83 114.31 151.54 C 114.31 150.25 113.27 149.20 111.97 149.20 L 110.99 149.20 C 109.70 149.20 108.65 150.25 108.65 151.54 C 108.65 152.83 109.70 153.88 110.99 153.88 Z M 111.97 153.89 L 112.95 153.89 C 114.25 153.89 115.30 152.84 115.30 151.54 C 115.30 150.24 114.25 149.19 112.95 149.19 L 111.97 149.19 C 110.67 149.19 109.62 150.24 109.62 151.54 C 109.62 152.84 110.67 153.89 111.97 153.89 Z M 112.95 153.90 L 113.93 153.90 C 115.23 153.90 116.29 152.84 116.29 151.54 C 116.29 150.24 115.23 149.19 113.93 149.19 L 112.95 149.19 C 111.65 149.19 110.59 150.24 110.59 151.54 C 110.59 152.84 111.65 153.90 112.95 153.90 Z M 113.93 153.90 L 114.93 153.90 C 116.23 153.90 117.29 152.84 117.29 151.54 C 117.29 150.24 116.23 149.18 114.93 149.18 L 113.93 149.18 C 112.63 149.18 111.57 150.24 111.57 151.54 C 111.57 152.84 112.63 153.90 113.93 153.90 Z M 114.93 153.91 L 115.94 153.91 C 117.25 153.91 118.31 152.85 118.31 151.54 C 118.31 150.23 117.25 149.17 115.94 149.17 L 114.93 149.17 C 113.62 149.17 112.56 150.23 112.56 151.54 C 112.56 152.85 113.62 153.91 114.93 153.91 Z M 115.94 153.91 L 116.97 153.91 C 118.29 153.91 119.35 152.85 119.35 151.54 C 119.35 150.23 118.29 149.17 116.97 149.17 L 115.94 149.17 C 114.63 149.17 113.56 150.23 113.56 151.54 C 113.56 152.85 114.63 153.91 115.94 153.91 Z M 116.97 153.92 L 117.94 153.92 C 119.25 153.92 120.32 152.85 120.32 151.54 C 120.32 150.23 119.25 149.16 117.94 149.16 L 116.97 149.16 C 115.66 149.16 114.60 150.23 114.60 151.54 C 114.60 152.85 115.66 153.92 116.97 153.92 Z M 117.94 153.92 L 118.88 153.92 C 120.19 153.92 121.26 152.86 121.26 151.54 C 121.26 150.22 120.19 149.16 118.88 149.16 L 117.94 149.16 C 116.62 149.16 115.55 150.22 115.55 151.54 C 115.55 152.86 116.62 153.92 117.94 153.92 Z M 118.88 153.93 L 119.84 153.93 C 121.16 153.93 122.23 152.86 122.23 151.54 C 122.23 150.22 121.16 149.15 119.84 149.15 L 118.88 149.15 C 117.56 149.15 116.49 150.22 116.49 151.54 C 116.49 152.86 117.56 153.93 118.88 153.93 Z M 119.84 153.93 L 120.83 153.93 C 122.15 153.93 123.22 152.86 123.22 151.54 C 123.22 150.22 122.15 149.15 120.83 149.15 L 119.84 149.15 C 118.52 149.15 117.45 150.22 117.45 151.54 C 117.45 152.86 118.52 153.93 119.84 153.93 Z M 120.83 153.94 L 121.84 153.94 C 123.16 153.94 124.24 152.87 124.24 151.54 C 124.24 150.22 123.16 149.14 121.84 149.14 L 120.83 149.14 C 119.50 149.14 118.43 150.22 118.43 151.54 C 118.43 152.87 119.50 153.94 120.83 153.94 Z M 121.84 153.94 L 122.88 153.94 C 124.20 153.94 125.28 152.87 125.28 151.54 C 125.28 150.21 124.20 149.14 122.88 149.14 L 121.84 149.14 C 120.51 149.14 119.44 150.21 119.44 151.54 C 119.44 152.87 120.51 153.94 121.84 153.94 Z M 122.88 153.95 L 123.94 153.95 C 125.27 153.95 126.34 152.87 126.34 151.54 C 126.34 150.21 125.27 149.13 123.94 149.13 L 122.88 149.13 C 121.55 149.13 120.47 150.21 120.47 151.54 C 120.47 152.87 121.55 153.95 122.88 153.95 Z M 123.94 153.95 L 124.98 153.95 C 126.31 153.95 127.39 152.87 127.39 151.54 C 127.39 150.21 126.31 149.13 124.98 149.13 L 123.94 149.13 C 122.60 149.13 121.52 150.21 121.52 151.54 C 121.52 152.87 122.60 153.95 123.94 153.95 Z M 124.98 153.96 L 125.93 153.96 C 127.27 153.96 128.35 152.87 128.35 151.54 C 128.35 150.21 127.27 149.13 125.93 149.13 L 124.98 149.13 C 123.64 149.13 122.56 150.21 122.56 151.54 C 122.56 152.87 123.64 153.96 124.98 153.96 Z M 125.93 153.96 L 126.91 153.96 C 128.24 153.96 129.32 152.87 129.32 151.54 C 129.32 150.20 128.24 149.12 126.90 149.12 L 125.93 149.12 C 124.59 149.12 123.51 150.21 123.51 151.54 C 123.51 152.88 124.60 153.96 125.93 153.96 Z M 126.91 153.96 L 127.89 153.96 C 129.23 153.96 130.31 152.87 130.31 151.54 C 130.31 150.20 129.22 149.12 127.89 149.12 L 126.90 149.12 C 125.56 149.12 124.48 150.21 124.48 151.54 C 124.48 152.88 125.57 153.96 126.91 153.96 Z M 127.90 153.96 L 128.90 153.96 C 130.23 153.96 131.32 152.87 131.31 151.53 C 131.31 150.19 130.22 149.11 128.88 149.11 L 127.88 149.11 C 126.55 149.12 125.46 150.21 125.47 151.54 C 125.47 152.88 126.56 153.97 127.90 153.96 Z M 128.90 153.96 L 129.91 153.96 C 131.25 153.95 132.33 152.86 132.33 151.52 C 132.32 150.18 131.23 149.10 129.89 149.11 L 128.88 149.11 C 127.54 149.11 126.46 150.21 126.46 151.55 C 126.47 152.89 127.56 153.97 128.90 153.96 Z M 129.91 153.96 L 130.93 153.96 C 132.28 153.95 133.36 152.85 133.35 151.51 C 133.34 150.17 132.25 149.09 130.91 149.10 L 129.89 149.10 C 128.54 149.11 127.46 150.20 127.47 151.55 C 127.48 152.89 128.57 153.97 129.91 153.96 Z M 130.94 153.96 L 131.97 153.95 C 133.31 153.94 134.39 152.84 134.38 151.50 C 134.37 150.16 133.27 149.07 131.93 149.09 L 130.90 149.09 C 129.56 149.10 128.48 150.20 128.49 151.55 C 128.50 152.89 129.60 153.97 130.94 153.96 Z M 131.97 153.95 L 133.01 153.94 C 134.35 153.93 135.43 152.83 135.42 151.48 C 135.40 150.14 134.30 149.06 132.96 149.07 L 131.92 149.08 C 130.58 149.10 129.50 150.20 129.51 151.54 C 129.53 152.89 130.63 153.97 131.97 153.95 Z M 133.01 153.95 L 134.01 153.93 C 135.36 153.91 136.44 152.81 136.42 151.46 C 136.40 150.12 135.30 149.04 133.95 149.06 L 132.95 149.07 C 131.60 149.09 130.53 150.19 130.54 151.54 C 130.56 152.89 131.67 153.96 133.01 153.95 Z M 134.02 153.94 L 135.01 153.92 C 136.36 153.90 137.43 152.79 137.41 151.44 C 137.39 150.09 136.28 149.02 134.93 149.04 L 133.94 149.05 C 132.59 149.07 131.52 150.18 131.54 151.53 C 131.56 152.88 132.67 153.96 134.02 153.94 Z M 135.02 153.92 L 136.01 153.90 C 137.36 153.88 138.43 152.76 138.41 151.41 C 138.38 150.06 137.27 148.99 135.92 149.01 L 134.92 149.03 C 133.57 149.06 132.50 150.17 132.52 151.52 C 132.55 152.87 133.67 153.95 135.02 153.92 Z M 136.01 153.91 L 137.01 153.89 C 138.36 153.86 139.43 152.74 139.40 151.38 C 139.38 150.03 138.26 148.96 136.90 148.99 L 135.91 149.01 C 134.56 149.04 133.48 150.16 133.51 151.51 C 133.54 152.87 134.66 153.94 136.01 153.91 Z M 137.02 153.89 L 138.02 153.86 C 139.37 153.83 140.44 152.70 140.41 151.35 C 140.37 150.00 139.25 148.93 137.89 148.96 L 136.90 148.99 C 135.54 149.02 134.47 150.15 134.51 151.50 C 134.54 152.85 135.66 153.92 137.02 153.89 Z M 138.03 153.87 L 139.03 153.84 C 140.38 153.80 141.45 152.67 141.41 151.31 C 141.37 149.96 140.24 148.89 138.89 148.93 L 137.89 148.96 C 136.53 149.00 135.46 150.13 135.50 151.48 C 135.54 152.84 136.67 153.91 138.03 153.87 Z M 139.04 153.84 L 140.04 153.81 C 141.40 153.77 142.47 152.63 142.42 151.27 C 142.38 149.92 141.24 148.85 139.89 148.89 L 138.88 148.93 C 137.52 148.97 136.46 150.11 136.50 151.46 C 136.55 152.82 137.68 153.88 139.04 153.84 Z M 140.05 153.81 L 141.06 153.78 C 142.42 153.73 143.48 152.59 143.43 151.23 C 143.39 149.87 142.24 148.81 140.89 148.86 L 139.88 148.89 C 138.52 148.94 137.46 150.08 137.50 151.44 C 137.55 152.80 138.69 153.86 140.05 153.81 Z M 141.07 153.78 L 142.08 153.74 C 143.44 153.69 144.50 152.54 144.45 151.18 C 144.39 149.82 143.25 148.76 141.89 148.81 L 140.88 148.85 C 139.52 148.91 138.46 150.05 138.51 151.41 C 138.56 152.77 139.71 153.83 141.07 153.78 Z M 142.09 153.74 L 143.07 153.70 C 144.43 153.64 145.49 152.49 145.43 151.13 C 145.37 149.77 144.22 148.71 142.86 148.77 L 141.88 148.81 C 140.52 148.87 139.46 150.02 139.52 151.38 C 139.58 152.74 140.73 153.80 142.09 153.74 Z M 143.08 153.70 L 144.04 153.66 C 145.40 153.59 146.46 152.44 146.39 151.08 C 146.33 149.71 145.18 148.66 143.81 148.72 L 142.85 148.77 C 141.49 148.83 140.43 149.99 140.50 151.35 C 140.56 152.71 141.71 153.76 143.08 153.70 Z M 144.05 153.66 L 145.02 153.61 C 146.38 153.54 147.43 152.38 147.37 151.02 C 147.30 149.66 146.14 148.61 144.78 148.68 L 143.81 148.72 C 142.44 148.79 141.39 149.95 141.46 151.31 C 141.53 152.67 142.69 153.72 144.05 153.66 Z M 145.03 153.61 L 146.01 153.56 C 147.37 153.49 148.42 152.33 148.35 150.96 C 148.28 149.60 147.11 148.55 145.75 148.62 L 144.77 148.67 C 143.41 148.74 142.36 149.91 142.43 151.27 C 142.50 152.63 143.66 153.68 145.03 153.61 Z M 146.01 153.56 L 147.00 153.51 C 148.36 153.43 149.41 152.27 149.33 150.91 C 149.26 149.54 148.10 148.50 146.73 148.57 L 145.75 148.62 C 144.38 148.70 143.34 149.86 143.41 151.22 C 143.48 152.59 144.65 153.63 146.01 153.56 Z M 147.00 153.51 L 148.00 153.45 C 149.36 153.38 150.41 152.21 150.33 150.85 C 150.26 149.49 149.09 148.44 147.73 148.52 L 146.73 148.57 C 145.37 148.64 144.32 149.81 144.40 151.17 C 144.47 152.54 145.64 153.58 147.00 153.51 Z M 148.00 153.45 L 149.01 153.40 C 150.37 153.32 151.42 152.16 151.34 150.79 C 151.27 149.43 150.10 148.38 148.74 148.46 L 147.73 148.51 C 146.36 148.59 145.32 149.76 145.39 151.12 C 145.47 152.49 146.64 153.53 148.00 153.45 Z M 149.01 153.40 L 150.03 153.34 C 151.40 153.27 152.44 152.10 152.37 150.73 C 152.29 149.37 151.12 148.33 149.76 148.40 L 148.73 148.46 C 147.37 148.53 146.33 149.70 146.40 151.07 C 146.48 152.43 147.65 153.48 149.01 153.40 Z M 150.03 153.34 L 151.07 153.29 C 152.44 153.21 153.48 152.04 153.41 150.68 C 153.33 149.31 152.16 148.27 150.80 148.34 L 149.76 148.40 C 148.39 148.48 147.35 149.64 147.42 151.01 C 147.50 152.37 148.67 153.42 150.03 153.34 Z M 151.07 153.29 L 152.10 153.23 C 153.47 153.16 154.52 151.99 154.44 150.62 C 154.37 149.26 153.20 148.21 151.83 148.28 L 150.80 148.34 C 149.43 148.42 148.39 149.58 148.46 150.95 C 148.54 152.32 149.70 153.36 151.07 153.29 Z M 152.10 153.23 L 153.07 153.18 C 154.44 153.10 155.49 151.94 155.41 150.57 C 155.34 149.21 154.17 148.16 152.81 148.23 L 151.83 148.28 C 150.47 148.36 149.42 149.53 149.49 150.89 C 149.57 152.26 150.74 153.30 152.10 153.23 Z M 153.07 153.18 L 154.06 153.13 C 155.42 153.05 156.47 151.89 156.40 150.52 C 156.32 149.15 155.16 148.11 153.79 148.18 L 152.81 148.23 C 151.44 148.30 150.39 149.47 150.47 150.84 C 150.54 152.20 151.71 153.25 153.07 153.18 Z M 154.05 153.13 L 155.05 153.07 C 156.41 153.00 157.46 151.84 157.39 150.47 C 157.32 149.10 156.15 148.05 154.79 148.13 L 153.79 148.18 C 152.43 148.25 151.38 149.42 151.45 150.78 C 151.52 152.15 152.69 153.20 154.05 153.13 Z M 155.05 153.07 L 156.05 153.02 C 157.42 152.95 158.46 151.78 158.39 150.42 C 158.32 149.05 157.16 148.00 155.79 148.07 L 154.79 148.13 C 153.42 148.20 152.37 149.36 152.44 150.73 C 152.52 152.10 153.68 153.14 155.05 153.07 Z M 156.05 153.02 L 157.06 152.97 C 158.42 152.90 159.47 151.73 159.40 150.37 C 159.33 149.00 158.16 147.95 156.80 148.02 L 155.79 148.07 C 154.42 148.15 153.38 149.31 153.45 150.68 C 153.52 152.04 154.68 153.09 156.05 153.02 Z M 157.06 152.97 L 158.07 152.92 C 159.43 152.84 160.48 151.68 160.41 150.31 C 160.34 148.95 159.17 147.90 157.81 147.97 L 156.80 148.02 C 155.43 148.09 154.38 149.26 154.45 150.62 C 154.53 151.99 155.69 153.04 157.06 152.97 Z M 158.07 152.92 L 159.08 152.86 C 160.44 152.79 161.49 151.63 161.42 150.26 C 161.35 148.90 160.19 147.85 158.82 147.92 L 157.81 147.97 C 156.44 148.04 155.39 149.21 155.46 150.57 C 155.54 151.94 156.70 152.99 158.07 152.92 Z M 159.08 152.86 L 160.09 152.81 C 161.45 152.74 162.50 151.57 162.43 150.21 C 162.36 148.84 161.19 147.79 159.83 147.86 L 158.82 147.92 C 157.45 147.99 156.40 149.15 156.48 150.52 C 156.55 151.88 157.71 152.93 159.08 152.86 Z M 160.09 152.81 L 161.09 152.76 C 162.46 152.69 163.51 151.52 163.44 150.16 C 163.36 148.79 162.20 147.74 160.83 147.81 L 159.83 147.86 C 158.46 147.94 157.41 149.10 157.48 150.47 C 157.56 151.83 158.72 152.88 160.09 152.81 Z M 161.09 152.76 L 162.09 152.70 C 163.46 152.63 164.51 151.47 164.44 150.10 C 164.36 148.74 163.20 147.69 161.83 147.76 L 160.83 147.81 C 159.47 147.88 158.42 149.05 158.49 150.41 C 158.56 151.78 159.73 152.83 161.09 152.76 Z M 162.09 152.70 L 163.12 152.65 C 164.48 152.58 165.53 151.41 165.46 150.05 C 165.39 148.68 164.22 147.63 162.86 147.71 L 161.83 147.76 C 160.47 147.83 159.42 149.00 159.49 150.36 C 159.56 151.73 160.73 152.78 162.09 152.70 Z M 163.12 152.65 L 164.15 152.59 C 165.51 152.52 166.56 151.36 166.49 149.99 C 166.42 148.63 165.25 147.58 163.88 147.65 L 162.86 147.71 C 161.49 147.78 160.44 148.94 160.52 150.31 C 160.59 151.68 161.76 152.72 163.12 152.65 Z M 164.15 152.59 L 165.17 152.54 C 166.54 152.47 167.58 151.30 167.51 149.93 C 167.44 148.57 166.27 147.52 164.90 147.60 L 163.88 147.65 C 162.52 147.72 161.47 148.89 161.55 150.26 C 161.62 151.62 162.79 152.67 164.15 152.59 Z M 165.17 152.54 L 166.18 152.48 C 167.55 152.41 168.59 151.24 168.52 149.88 C 168.45 148.51 167.28 147.47 165.91 147.54 L 164.90 147.60 C 163.54 147.67 162.49 148.84 162.57 150.20 C 162.64 151.57 163.81 152.61 165.17 152.54 Z M 166.18 152.48 L 167.19 152.43 C 168.55 152.35 169.60 151.19 169.52 149.82 C 169.45 148.46 168.28 147.41 166.92 147.49 L 165.91 147.54 C 164.55 147.62 163.50 148.78 163.58 150.15 C 163.65 151.51 164.82 152.56 166.18 152.48 Z M 167.19 152.43 L 168.18 152.37 C 169.55 152.30 170.59 151.13 170.52 149.77 C 170.44 148.40 169.27 147.36 167.91 147.43 L 166.91 147.49 C 165.55 147.56 164.50 148.73 164.58 150.09 C 164.66 151.46 165.82 152.50 167.19 152.43 Z M 168.18 152.37 L 169.17 152.32 C 170.54 152.24 171.58 151.07 171.50 149.71 C 171.43 148.34 170.26 147.30 168.90 147.38 L 167.91 147.43 C 166.54 147.51 165.50 148.68 165.57 150.04 C 165.65 151.40 166.82 152.45 168.18 152.37 Z M 169.17 152.32 L 170.15 152.26 C 171.52 152.19 172.56 151.02 172.48 149.65 C 172.41 148.29 171.24 147.25 169.88 147.32 L 168.89 147.38 C 167.53 147.45 166.49 148.62 166.56 149.99 C 166.64 151.35 167.81 152.39 169.17 152.32 Z M 170.15 152.26 L 171.13 152.21 C 172.49 152.13 173.54 150.96 173.46 149.60 C 173.38 148.23 172.21 147.19 170.85 147.27 L 169.87 147.32 C 168.51 147.40 167.47 148.57 167.54 149.93 C 167.62 151.30 168.79 152.34 170.15 152.26 Z M 171.13 152.21 L 172.10 152.15 C 173.46 152.07 174.50 150.91 174.43 149.54 C 174.35 148.18 173.18 147.13 171.82 147.21 L 170.85 147.27 C 169.48 147.34 168.44 148.51 168.52 149.88 C 168.60 151.24 169.76 152.29 171.13 152.21 Z M 172.10 152.15 L 173.12 152.09 C 174.48 152.01 175.52 150.85 175.45 149.48 C 175.37 148.12 174.20 147.08 172.84 147.16 L 171.81 147.21 C 170.45 147.29 169.41 148.46 169.49 149.82 C 169.57 151.19 170.73 152.23 172.10 152.15 Z M 173.12 152.09 L 174.16 152.03 C 175.52 151.95 176.56 150.78 176.48 149.42 C 176.40 148.06 175.23 147.02 173.87 147.10 L 172.84 147.16 C 171.48 147.24 170.44 148.40 170.51 149.76 C 170.59 151.13 171.76 152.17 173.12 152.09 Z M 174.16 152.02 L 175.18 151.97 C 176.54 151.89 177.58 150.72 177.50 149.37 C 177.43 148.01 176.26 146.97 174.90 147.05 L 173.87 147.10 C 172.52 147.18 171.48 148.35 171.56 149.70 C 171.63 151.06 172.80 152.10 174.16 152.02 Z M 175.18 151.96 L 176.20 151.90 C 177.56 151.83 178.59 150.67 178.52 149.31 C 178.44 147.95 177.28 146.92 175.92 146.99 L 174.91 147.05 C 173.55 147.13 172.51 148.29 172.59 149.64 C 172.67 151.00 173.83 152.04 175.18 151.96 Z M 176.20 151.90 L 177.21 151.84 C 178.56 151.77 179.60 150.61 179.52 149.26 C 179.45 147.90 178.29 146.87 176.93 146.94 L 175.93 147.00 C 174.57 147.07 173.54 148.23 173.61 149.58 C 173.69 150.94 174.85 151.97 176.20 151.90 Z M 177.20 151.84 L 178.20 151.78 C 179.55 151.71 180.58 150.56 180.51 149.21 C 180.44 147.85 179.28 146.82 177.93 146.89 L 176.94 146.95 C 175.59 147.02 174.55 148.17 174.62 149.52 C 174.70 150.88 175.85 151.91 177.20 151.84 Z M 178.19 151.78 L 179.18 151.73 C 180.52 151.66 181.56 150.51 181.49 149.16 C 181.42 147.81 180.27 146.77 178.92 146.85 L 177.94 146.90 C 176.59 146.97 175.55 148.12 175.62 149.47 C 175.70 150.81 176.85 151.85 178.19 151.78 Z M 179.17 151.72 L 180.14 151.67 C 181.48 151.61 182.52 150.46 182.45 149.11 C 182.38 147.77 181.24 146.73 179.89 146.80 L 178.92 146.85 C 177.58 146.92 176.54 148.06 176.61 149.41 C 176.68 150.76 177.82 151.79 179.17 151.72 Z M 180.13 151.67 L 181.08 151.62 C 182.42 151.56 183.46 150.42 183.40 149.08 C 183.33 147.73 182.19 146.70 180.85 146.76 L 179.90 146.81 C 178.55 146.87 177.52 148.01 177.58 149.35 C 177.65 150.70 178.79 151.73 180.13 151.67 Z M 181.07 151.62 L 182.08 151.57 C 183.42 151.51 184.46 150.38 184.40 149.04 C 184.34 147.70 183.20 146.66 181.86 146.72 L 180.86 146.76 C 179.51 146.82 178.48 147.96 178.54 149.30 C 178.60 150.64 179.73 151.68 181.07 151.62 Z M 182.07 151.57 L 183.13 151.52 C 184.47 151.47 185.51 150.34 185.46 149.00 C 185.40 147.67 184.27 146.63 182.93 146.68 L 181.87 146.73 C 180.54 146.78 179.50 147.91 179.55 149.25 C 179.61 150.58 180.73 151.62 182.07 151.57 Z M 183.12 151.52 L 184.16 151.48 C 185.50 151.43 186.54 150.31 186.49 148.97 C 186.44 147.64 185.31 146.60 183.98 146.65 L 182.94 146.69 C 181.61 146.74 180.57 147.86 180.62 149.19 C 180.67 150.53 181.79 151.57 183.12 151.52 Z M 184.15 151.47 L 185.17 151.44 C 186.50 151.39 187.54 150.28 187.50 148.95 C 187.45 147.62 186.34 146.57 185.01 146.62 L 183.99 146.66 C 182.66 146.70 181.62 147.82 181.66 149.15 C 181.71 150.48 182.82 151.52 184.15 151.47 Z M 185.16 151.43 L 186.16 151.40 C 187.49 151.36 188.53 150.25 188.49 148.92 C 188.45 147.60 187.34 146.55 186.01 146.60 L 185.01 146.63 C 183.69 146.67 182.64 147.78 182.69 149.10 C 182.73 150.43 183.84 151.47 185.16 151.43 Z M 186.15 151.39 L 187.13 151.37 C 188.45 151.33 189.49 150.22 189.46 148.90 C 189.42 147.58 188.32 146.54 186.99 146.57 L 186.02 146.60 C 184.69 146.64 183.65 147.74 183.69 149.07 C 183.73 150.39 184.83 151.43 186.15 151.39 Z M 187.12 151.36 L 188.08 151.33 C 189.40 151.30 190.44 150.20 190.41 148.88 C 190.37 147.56 189.28 146.52 187.96 146.56 L 187.00 146.58 C 185.68 146.62 184.64 147.71 184.67 149.03 C 184.71 150.35 185.80 151.39 187.12 151.36 Z M 188.08 151.33 L 189.02 151.31 C 190.33 151.27 191.37 150.18 191.34 148.86 C 191.31 147.55 190.22 146.51 188.90 146.54 L 187.96 146.56 C 186.64 146.59 185.60 147.69 185.64 149.00 C 185.67 150.32 186.76 151.36 188.08 151.33 Z M 189.01 151.30 L 190.01 151.28 C 191.32 151.25 192.36 150.16 192.33 148.85 C 192.30 147.53 191.21 146.50 189.90 146.52 L 188.91 146.55 C 187.59 146.58 186.55 147.66 186.58 148.98 C 186.61 150.29 187.70 151.33 189.01 151.30 Z M 190.00 151.27 L 191.04 151.25 C 192.34 151.22 193.38 150.14 193.35 148.83 C 193.33 147.52 192.25 146.48 190.94 146.51 L 189.91 146.53 C 188.60 146.56 187.56 147.64 187.59 148.95 C 187.62 150.26 188.70 151.29 190.00 151.27 Z M 191.03 151.24 L 192.05 151.22 C 193.35 151.19 194.38 150.12 194.36 148.82 C 194.34 147.51 193.26 146.48 191.96 146.50 L 190.94 146.52 C 189.64 146.55 188.60 147.62 188.63 148.92 C 188.65 150.23 189.73 151.26 191.03 151.24 Z M 192.04 151.21 L 193.04 151.19 C 194.34 151.17 195.37 150.10 195.35 148.80 C 195.33 147.51 194.26 146.47 192.96 146.49 L 191.96 146.51 C 190.67 146.53 189.63 147.60 189.65 148.90 C 189.68 150.20 190.74 151.23 192.04 151.21 Z M 193.04 151.18 L 194.03 151.17 C 195.32 151.15 196.35 150.09 196.33 148.79 C 196.31 147.50 195.25 146.47 193.96 146.49 L 192.97 146.50 C 191.68 146.52 190.64 147.58 190.66 148.88 C 190.68 150.17 191.75 151.20 193.04 151.18 Z M 194.02 151.16 L 195.00 151.15 C 196.29 151.13 197.32 150.07 197.30 148.79 C 197.28 147.50 196.23 146.47 194.94 146.49 L 193.96 146.50 C 192.67 146.51 191.64 147.57 191.66 148.86 C 191.68 150.14 192.73 151.18 194.02 151.16 Z M 194.99 151.14 L 195.96 151.13 C 197.25 151.12 198.28 150.06 198.26 148.78 C 198.25 147.50 197.20 146.47 195.92 146.48 L 194.95 146.49 C 193.66 146.51 192.63 147.56 192.65 148.84 C 192.66 150.12 193.71 151.15 194.99 151.14 Z M 195.96 151.12 L 196.94 151.11 C 198.22 151.10 199.25 150.06 199.24 148.78 C 199.23 147.50 198.18 146.48 196.91 146.49 L 195.92 146.49 C 194.65 146.50 193.62 147.55 193.63 148.82 C 193.64 150.10 194.68 151.13 195.96 151.12 Z M 196.94 151.10 L 197.93 151.09 C 199.20 151.09 200.23 150.05 200.22 148.78 C 200.21 147.51 199.18 146.48 197.91 146.49 L 196.91 146.50 C 195.64 146.50 194.62 147.54 194.62 148.81 C 194.63 150.08 195.67 151.11 196.94 151.10 Z M 197.93 151.08 L 198.92 151.08 C 200.18 151.07 201.21 150.04 201.20 148.78 C 201.20 147.52 200.17 146.49 198.90 146.50 L 197.91 146.50 C 196.65 146.51 195.62 147.54 195.63 148.80 C 195.63 150.07 196.66 151.09 197.93 151.08 Z M 198.92 151.07 L 199.91 151.06 C 201.17 151.06 202.19 150.04 202.18 148.78 C 202.18 147.52 201.16 146.51 199.90 146.51 L 198.91 146.51 C 197.65 146.51 196.63 147.54 196.63 148.79 C 196.64 150.05 197.66 151.07 198.92 151.07 Z M 199.91 151.05 L 200.91 151.05 C 202.16 151.05 203.17 150.03 203.17 148.78 C 203.17 147.53 202.15 146.52 200.90 146.52 L 199.90 146.52 C 198.65 146.52 197.64 147.54 197.64 148.79 C 197.64 150.04 198.66 151.05 199.91 151.05 Z M 200.91 151.04 L 201.91 151.04 C 203.16 151.04 204.16 150.03 204.16 148.78 C 204.16 147.54 203.15 146.53 201.91 146.53 L 200.90 146.53 C 199.66 146.53 198.65 147.54 198.65 148.79 C 198.65 150.03 199.66 151.04 200.91 151.04 Z M 201.91 151.03 L 202.92 151.03 C 204.16 151.03 205.17 150.02 205.17 148.78 C 205.17 147.55 204.16 146.54 202.92 146.54 L 201.91 146.54 C 200.67 146.54 199.67 147.55 199.67 148.79 C 199.67 150.02 200.67 151.03 201.91 151.03 Z M 202.92 151.01 L 203.96 151.02 C 205.19 151.02 206.19 150.02 206.19 148.79 C 206.19 147.55 205.19 146.55 203.96 146.55 L 202.92 146.55 C 201.69 146.55 200.69 147.55 200.69 148.78 C 200.69 150.02 201.69 151.01 202.92 151.01 Z M 203.96 151.00 L 205.00 151.00 C 206.22 151.00 207.22 150.01 207.22 148.79 C 207.22 147.56 206.23 146.57 205.00 146.57 L 203.96 146.57 C 202.74 146.57 201.74 147.56 201.74 148.78 C 201.74 150.01 202.73 151.00 203.96 151.00 Z M 204.99 150.99 L 206.03 150.99 C 207.24 151.00 208.23 150.01 208.24 148.80 C 208.24 147.58 207.26 146.59 206.04 146.59 L 205.01 146.58 C 203.79 146.58 202.80 147.56 202.80 148.78 C 202.79 150.00 203.78 150.99 204.99 150.99 Z M 206.02 150.98 L 207.04 150.98 C 208.25 150.99 209.23 150.02 209.24 148.81 C 209.25 147.60 208.27 146.61 207.06 146.61 L 206.05 146.60 C 204.84 146.59 203.85 147.57 203.84 148.78 C 203.84 149.98 204.81 150.97 206.02 150.98 Z M 207.03 150.97 L 208.02 150.98 C 209.22 150.99 210.20 150.03 210.22 148.83 C 210.23 147.63 209.27 146.64 208.07 146.63 L 207.07 146.62 C 205.87 146.61 204.89 147.57 204.88 148.77 C 204.86 149.97 205.83 150.96 207.03 150.97 Z M 208.01 150.97 L 208.96 150.98 C 210.15 151.00 211.14 150.05 211.16 148.86 C 211.18 147.66 210.23 146.68 209.03 146.66 L 208.08 146.64 C 206.88 146.62 205.90 147.58 205.88 148.77 C 205.86 149.96 206.81 150.95 208.01 150.97 Z M 208.94 150.97 L 209.91 150.99 C 211.09 151.02 212.08 150.09 212.11 148.90 C 212.14 147.71 211.20 146.73 210.02 146.70 L 209.05 146.67 C 207.86 146.64 206.88 147.58 206.85 148.77 C 206.82 149.95 207.76 150.94 208.94 150.97 Z M 209.88 150.98 L 211.00 151.02 C 212.18 151.06 213.17 150.15 213.21 148.97 C 213.26 147.79 212.34 146.80 211.16 146.76 L 210.04 146.72 C 208.87 146.67 207.87 147.59 207.83 148.77 C 207.79 149.94 208.70 150.93 209.88 150.98 Z M 210.96 151.00 L 212.00 151.06 C 213.17 151.12 214.17 150.23 214.23 149.06 C 214.30 147.90 213.40 146.90 212.24 146.83 L 211.20 146.78 C 210.03 146.71 209.03 147.61 208.97 148.77 C 208.90 149.94 209.80 150.94 210.96 151.00 Z M 211.96 151.04 L 212.93 151.11 C 214.09 151.20 215.10 150.34 215.19 149.18 C 215.27 148.03 214.41 147.02 213.25 146.93 L 212.28 146.85 C 211.13 146.77 210.12 147.63 210.03 148.79 C 209.94 149.94 210.80 150.95 211.96 151.04 Z M 212.88 151.09 L 213.80 151.19 C 214.95 151.30 215.97 150.47 216.08 149.32 C 216.20 148.18 215.37 147.16 214.22 147.04 L 213.30 146.95 C 212.16 146.83 211.14 147.67 211.02 148.81 C 210.91 149.96 211.74 150.98 212.88 151.09 Z M 213.75 151.16 L 214.64 151.28 C 215.78 151.43 216.81 150.63 216.96 149.50 C 217.11 148.37 216.31 147.33 215.18 147.18 L 214.28 147.07 C 213.15 146.92 212.11 147.72 211.96 148.85 C 211.82 149.98 212.61 151.02 213.75 151.16 Z M 214.58 151.25 L 215.56 151.41 C 216.67 151.60 217.73 150.84 217.91 149.72 C 218.10 148.61 217.34 147.55 216.22 147.37 L 215.24 147.21 C 214.13 147.02 213.07 147.78 212.89 148.90 C 212.70 150.02 213.46 151.07 214.58 151.25 Z M 215.48 151.39 L 216.44 151.59 C 217.54 151.81 218.62 151.11 218.84 150.01 C 219.07 148.90 218.37 147.83 217.26 147.60 L 216.30 147.40 C 215.20 147.17 214.12 147.88 213.90 148.98 C 213.67 150.08 214.37 151.16 215.48 151.39 Z M 216.35 151.55 L 217.31 151.80 C 218.39 152.07 219.49 151.42 219.77 150.34 C 220.05 149.26 219.40 148.16 218.31 147.88 L 217.35 147.63 C 216.27 147.35 215.17 148.01 214.89 149.09 C 214.61 150.17 215.27 151.27 216.35 151.55 Z M 217.22 151.76 L 218.20 152.06 C 219.26 152.39 220.38 151.79 220.71 150.73 C 221.04 149.67 220.44 148.54 219.38 148.22 L 218.40 147.92 C 217.34 147.59 216.22 148.19 215.89 149.25 C 215.56 150.31 216.16 151.43 217.22 151.76 Z M 218.12 152.02 L 219.08 152.36 C 220.12 152.73 221.26 152.19 221.63 151.15 C 222.00 150.11 221.46 148.97 220.42 148.60 L 219.46 148.26 C 218.42 147.89 217.28 148.43 216.91 149.47 C 216.54 150.51 217.08 151.65 218.12 152.02 Z M 219.01 152.32 L 219.97 152.71 C 220.98 153.12 222.13 152.63 222.55 151.62 C 222.96 150.60 222.47 149.45 221.46 149.04 L 220.50 148.65 C 219.48 148.24 218.33 148.72 217.92 149.74 C 217.51 150.75 217.99 151.91 219.01 152.32 Z M 219.89 152.65 L 220.82 153.08 C 221.81 153.54 222.97 153.11 223.43 152.12 C 223.88 151.14 223.45 149.97 222.47 149.52 L 221.53 149.09 C 220.55 148.63 219.38 149.06 218.93 150.05 C 218.47 151.03 218.90 152.20 219.89 152.65 Z M 220.73 153.02 L 221.60 153.48 C 222.55 153.99 223.73 153.63 224.24 152.68 C 224.74 151.72 224.38 150.54 223.43 150.04 L 222.56 149.58 C 221.61 149.08 220.43 149.44 219.92 150.39 C 219.42 151.34 219.78 152.52 220.73 153.02 Z M 221.49 153.40 L 222.32 153.92 C 223.22 154.49 224.41 154.22 224.98 153.31 C 225.54 152.41 225.27 151.22 224.37 150.65 L 223.54 150.13 C 222.64 149.56 221.45 149.83 220.88 150.73 C 220.31 151.64 220.58 152.83 221.49 153.40 Z M 222.15 153.76 L 223.01 154.46 C 223.83 155.11 225.02 154.99 225.68 154.17 C 226.34 153.36 226.21 152.17 225.40 151.51 L 224.54 150.81 C 223.72 150.15 222.53 150.28 221.87 151.09 C 221.21 151.91 221.34 153.10 222.15 153.76 Z M 222.82 154.21 L 223.47 154.94 C 224.15 155.70 225.32 155.77 226.08 155.09 C 226.85 154.41 226.92 153.24 226.24 152.48 L 225.59 151.75 C 224.91 150.99 223.74 150.92 222.97 151.60 C 222.21 152.28 222.14 153.45 222.82 154.21 Z M 223.30 154.64 L 223.76 155.40 C 224.28 156.26 225.39 156.54 226.24 156.02 C 227.10 155.51 227.37 154.40 226.86 153.55 L 226.40 152.78 C 225.89 151.93 224.78 151.65 223.92 152.16 C 223.07 152.67 222.79 153.78 223.30 154.64 Z M 223.64 155.05 L 223.96 155.99 C 224.28 156.91 225.29 157.41 226.21 157.09 C 227.14 156.77 227.63 155.76 227.31 154.84 L 226.98 153.90 C 226.67 152.98 225.66 152.48 224.74 152.80 C 223.81 153.12 223.32 154.13 223.64 155.05 Z M 223.91 155.66 L 224.05 156.64 C 224.18 157.60 225.06 158.26 226.01 158.13 C 226.96 157.99 227.63 157.12 227.50 156.16 L 227.36 155.18 C 227.23 154.22 226.35 153.56 225.40 153.69 C 224.44 153.83 223.78 154.70 223.91 155.66 Z M 224.06 156.39 L 224.05 157.37 C 224.05 158.32 224.81 159.09 225.75 159.10 C 226.69 159.11 227.47 158.35 227.48 157.40 L 227.48 156.42 C 227.49 155.47 226.73 154.70 225.79 154.69 C 224.84 154.69 224.07 155.44 224.06 156.39 Z M 224.10 157.16 L 223.96 158.17 C 223.83 159.09 224.48 159.94 225.39 160.07 C 226.31 160.19 227.16 159.55 227.29 158.63 L 227.43 157.62 C 227.56 156.70 226.91 155.85 226.00 155.73 C 225.08 155.60 224.23 156.24 224.10 157.16 Z M 224.07 157.87 L 223.75 158.80 C 223.46 159.66 223.92 160.59 224.78 160.89 C 225.64 161.18 226.57 160.72 226.86 159.86 L 227.18 158.93 C 227.48 158.07 227.02 157.14 226.16 156.84 C 225.30 156.55 224.36 157.01 224.07 157.87 Z M 223.96 158.43 L 223.43 159.23 C 222.94 159.97 223.14 160.97 223.88 161.47 C 224.62 161.97 225.62 161.77 226.12 161.02 L 226.65 160.23 C 227.15 159.49 226.95 158.48 226.21 157.99 C 225.46 157.49 224.46 157.69 223.96 158.43 Z M 223.68 158.97 L 222.97 159.65 C 222.33 160.25 222.30 161.26 222.91 161.90 C 223.51 162.54 224.52 162.56 225.16 161.96 L 225.87 161.28 C 226.51 160.68 226.54 159.67 225.93 159.03 C 225.33 158.39 224.32 158.37 223.68 158.97 Z M 223.11 159.55 L 222.29 160.17 C 221.60 160.69 221.46 161.68 221.98 162.37 C 222.51 163.07 223.50 163.20 224.19 162.68 L 225.01 162.06 C 225.71 161.53 225.84 160.55 225.32 159.85 C 224.79 159.16 223.81 159.02 223.11 159.55 Z M 222.33 160.15 L 222.12 160.30 C 221.42 160.80 221.26 161.78 221.76 162.48 C 222.26 163.19 223.24 163.35 223.94 162.84 L 224.15 162.69 C 224.85 162.19 225.02 161.22 224.51 160.51 C 224.01 159.81 223.03 159.65 222.33 160.15 Z"
      fill="black"
      fill-rule="nonzero" /></svg>