<svg xmlns="http://www.w3.org/2000/svg" width="300" height="300" viewBox="0 0 300 300">
<path d="M 144.05 91.67 L 143.14 91.03 C 142.36 90.47 141.28 90.66 140.73 91.44 C 140.17 92.22 140.36 93.30 141.14 93.86 L 142.05 94.50 C 142.83 95.05 143.91 94.87 144.46 94.09 C 145.02 93.30 144.83 92.22 144.05 91.67 Z M 143.13 91.01 L 142.23 90.39 C 141.44 89.85 140.36 90.05 139.81 90.84 C 139.27 91.63 139.47 92.71 140.26 93.26 L 141.15 93.87 C 141.95 94.42 143.03 94.22 143.57 93.43 C 144.12 92.64 143.92 91.55 143.13 91.01 Z M 142.19 90.36 L 141.32 89.79 C 140.51 89.27 139.43 89.50 138.91 90.31 C 138.38 91.11 138.61 92.19 139.42 92.72 L 140.29 93.29 C 141.10 93.81 142.18 93.58 142.71 92.77 C 143.23 91.97 143.00 90.89 142.19 90.36 Z M 141.26 89.75 L 140.42 89.26 C 139.59 88.77 138.51 89.05 138.03 89.88 C 137.54 90.71 137.82 91.78 138.65 92.27 L 139.49 92.76 C 140.32 93.25 141.39 92.97 141.88 92.14 C 142.37 91.31 142.09 90.24 141.26 89.75 Z M 140.31 89.19 L 139.52 88.80 C 138.65 88.37 137.60 88.73 137.17 89.60 C 136.74 90.46 137.10 91.52 137.96 91.95 L 138.76 92.34 C 139.62 92.77 140.67 92.41 141.10 91.54 C 141.53 90.67 141.18 89.62 140.31 89.19 Z M 139.31 88.70 L 138.35 88.38 C 137.43 88.07 136.43 88.56 136.11 89.49 C 135.80 90.41 136.30 91.41 137.22 91.72 L 138.18 92.04 C 139.10 92.36 140.10 91.86 140.41 90.94 C 140.73 90.02 140.23 89.01 139.31 88.70 Z M 137.92 88.27 L 136.87 88.19 C 135.88 88.12 135.02 88.85 134.95 89.84 C 134.88 90.82 135.62 91.68 136.60 91.76 L 137.65 91.83 C 138.64 91.91 139.50 91.17 139.57 90.18 C 139.64 89.20 138.90 88.34 137.92 88.27 Z M 136.22 88.23 L 135.34 88.49 C 134.38 88.77 133.83 89.79 134.12 90.75 C 134.40 91.71 135.42 92.26 136.38 91.98 L 137.25 91.72 C 138.22 91.43 138.76 90.42 138.48 89.45 C 138.19 88.49 137.18 87.94 136.22 88.23 Z M 134.71 88.78 L 134.04 89.31 C 133.24 89.95 133.11 91.11 133.74 91.91 C 134.37 92.71 135.53 92.85 136.33 92.21 L 137.01 91.68 C 137.81 91.05 137.94 89.89 137.31 89.09 C 136.68 88.28 135.52 88.15 134.71 88.78 Z M 133.65 89.70 L 133.21 90.34 C 132.62 91.19 132.84 92.35 133.69 92.94 C 134.53 93.53 135.70 93.31 136.28 92.46 L 136.72 91.82 C 137.31 90.98 137.10 89.81 136.25 89.23 C 135.40 88.64 134.24 88.86 133.65 89.70 Z M 133.01 90.68 L 132.67 91.52 C 132.27 92.48 132.72 93.58 133.68 93.97 C 134.63 94.37 135.73 93.92 136.13 92.96 L 136.48 92.13 C 136.88 91.17 136.42 90.07 135.47 89.67 C 134.51 89.27 133.41 89.73 133.01 90.68 Z M 132.57 91.78 L 132.30 92.83 C 132.04 93.84 132.65 94.87 133.66 95.12 C 134.67 95.38 135.70 94.77 135.96 93.76 L 136.23 92.71 C 136.48 91.70 135.87 90.67 134.86 90.41 C 133.85 90.16 132.83 90.77 132.57 91.78 Z M 132.26 93.00 L 132.06 94.25 C 131.90 95.29 132.60 96.26 133.64 96.42 C 134.68 96.58 135.65 95.88 135.81 94.84 L 136.00 93.59 C 136.17 92.55 135.46 91.58 134.42 91.42 C 133.39 91.26 132.42 91.97 132.26 93.00 Z M 132.04 94.35 L 131.94 95.30 C 131.83 96.35 132.58 97.29 133.63 97.40 C 134.68 97.51 135.62 96.75 135.73 95.70 L 135.83 94.75 C 135.94 93.70 135.18 92.76 134.13 92.65 C 133.09 92.54 132.15 93.30 132.04 94.35 Z M 131.92 95.35 L 131.84 96.37 C 131.76 97.43 132.55 98.35 133.61 98.43 C 134.66 98.51 135.58 97.73 135.66 96.67 L 135.74 95.65 C 135.83 94.59 135.04 93.67 133.98 93.59 C 132.93 93.51 132.00 94.30 131.92 95.35 Z M 131.83 96.41 L 131.77 97.47 C 131.71 98.53 132.53 99.44 133.59 99.50 C 134.65 99.56 135.56 98.74 135.62 97.68 L 135.68 96.63 C 135.74 95.57 134.92 94.66 133.86 94.60 C 132.80 94.54 131.89 95.35 131.83 96.41 Z M 131.76 97.50 L 131.72 98.56 C 131.68 99.62 132.52 100.52 133.58 100.56 C 134.65 100.60 135.55 99.77 135.59 98.70 L 135.63 97.65 C 135.67 96.58 134.84 95.68 133.77 95.64 C 132.70 95.60 131.80 96.44 131.76 97.50 Z M 131.71 98.59 L 131.69 99.60 C 131.67 100.68 132.52 101.56 133.60 101.59 C 134.67 101.61 135.56 100.76 135.58 99.68 L 135.60 98.67 C 135.62 97.59 134.77 96.71 133.70 96.68 C 132.62 96.66 131.73 97.51 131.71 98.59 Z M 131.68 99.63 L 131.68 100.58 C 131.67 101.66 132.55 102.53 133.62 102.54 C 134.70 102.54 135.58 101.67 135.59 100.59 L 135.59 99.65 C 135.59 98.57 134.72 97.69 133.64 97.69 C 132.56 97.68 131.68 98.56 131.68 99.63 Z M 131.67 100.62 L 131.69 101.79 C 131.72 102.87 132.61 103.73 133.70 103.71 C 134.78 103.69 135.64 102.79 135.62 101.71 L 135.59 100.54 C 135.57 99.46 134.67 98.60 133.59 98.62 C 132.51 98.64 131.65 99.54 131.67 100.62 Z M 131.69 101.87 L 131.76 102.96 C 131.83 104.04 132.76 104.87 133.84 104.80 C 134.92 104.73 135.75 103.80 135.68 102.72 L 135.62 101.63 C 135.55 100.55 134.62 99.72 133.54 99.79 C 132.45 99.85 131.63 100.78 131.69 101.87 Z M 131.77 103.07 L 131.87 103.98 C 132.00 105.06 132.98 105.83 134.06 105.71 C 135.14 105.58 135.91 104.60 135.78 103.52 L 135.68 102.61 C 135.55 101.53 134.57 100.76 133.49 100.88 C 132.41 101.01 131.64 101.99 131.77 103.07 Z M 131.89 104.09 L 132.03 104.91 C 132.22 105.98 133.24 106.70 134.31 106.51 C 135.39 106.32 136.10 105.30 135.91 104.22 L 135.77 103.41 C 135.58 102.34 134.56 101.62 133.49 101.81 C 132.41 102.00 131.70 103.02 131.89 104.09 Z M 132.04 105.00 L 132.25 105.90 C 132.49 106.97 133.55 107.64 134.61 107.40 C 135.67 107.16 136.34 106.10 136.10 105.03 L 135.90 104.13 C 135.66 103.07 134.60 102.40 133.54 102.64 C 132.47 102.88 131.80 103.94 132.04 105.00 Z M 132.26 105.98 L 132.52 106.93 C 132.80 107.98 133.88 108.61 134.93 108.33 C 135.99 108.05 136.62 106.97 136.34 105.91 L 136.09 104.96 C 135.81 103.91 134.72 103.28 133.67 103.56 C 132.61 103.84 131.98 104.92 132.26 105.98 Z M 132.53 106.98 L 132.82 107.96 C 133.12 109.01 134.22 109.61 135.27 109.30 C 136.32 108.99 136.92 107.89 136.61 106.84 L 136.33 105.86 C 136.02 104.81 134.92 104.21 133.87 104.52 C 132.82 104.83 132.22 105.93 132.53 106.98 Z M 132.82 107.99 L 133.12 108.94 C 133.45 109.99 134.56 110.57 135.60 110.25 C 136.65 109.92 137.23 108.81 136.90 107.76 L 136.61 106.81 C 136.28 105.76 135.17 105.18 134.12 105.51 C 133.08 105.83 132.50 106.94 132.82 107.99 Z M 133.13 108.96 L 133.42 109.88 C 133.76 110.92 134.88 111.50 135.92 111.16 C 136.96 110.82 137.53 109.70 137.20 108.66 L 136.90 107.74 C 136.56 106.70 135.45 106.13 134.40 106.47 C 133.36 106.80 132.79 107.92 133.13 108.96 Z M 133.43 109.90 L 133.74 110.85 C 134.09 111.89 135.21 112.45 136.25 112.10 C 137.29 111.76 137.85 110.64 137.51 109.60 L 137.19 108.65 C 136.85 107.61 135.72 107.04 134.68 107.39 C 133.64 107.73 133.08 108.86 133.43 109.90 Z M 133.74 110.86 L 134.08 111.84 C 134.43 112.88 135.56 113.44 136.60 113.08 C 137.64 112.73 138.19 111.60 137.84 110.57 L 137.51 109.58 C 137.15 108.54 136.03 107.99 134.99 108.34 C 133.95 108.69 133.39 109.82 133.74 110.86 Z M 134.08 111.85 L 134.41 112.80 C 134.77 113.84 135.90 114.39 136.93 114.03 C 137.97 113.67 138.52 112.54 138.16 111.50 L 137.84 110.55 C 137.48 109.52 136.35 108.97 135.31 109.33 C 134.27 109.68 133.72 110.82 134.08 111.85 Z M 134.41 112.81 L 134.74 113.74 C 135.10 114.78 136.24 115.32 137.27 114.96 C 138.31 114.59 138.85 113.46 138.49 112.42 L 138.16 111.49 C 137.80 110.46 136.66 109.91 135.63 110.28 C 134.59 110.64 134.05 111.77 134.41 112.81 Z M 134.74 113.75 L 135.08 114.70 C 135.45 115.73 136.59 116.27 137.62 115.90 C 138.66 115.53 139.19 114.39 138.82 113.36 L 138.48 112.41 C 138.11 111.38 136.98 110.84 135.94 111.21 C 134.91 111.58 134.37 112.72 134.74 113.75 Z M 135.09 114.71 L 135.44 115.67 C 135.81 116.70 136.96 117.23 137.99 116.85 C 139.02 116.47 139.55 115.33 139.17 114.30 L 138.82 113.35 C 138.44 112.32 137.30 111.79 136.27 112.16 C 135.24 112.54 134.71 113.68 135.09 114.71 Z M 135.44 115.68 L 135.79 116.62 C 136.18 117.65 137.33 118.17 138.36 117.79 C 139.38 117.40 139.90 116.25 139.52 115.22 L 139.16 114.28 C 138.78 113.26 137.63 112.74 136.60 113.12 C 135.57 113.51 135.06 114.66 135.44 115.68 Z M 135.80 116.64 L 136.15 117.56 C 136.55 118.58 137.70 119.09 138.72 118.70 C 139.75 118.30 140.26 117.15 139.87 116.13 L 139.51 115.21 C 139.12 114.19 137.97 113.67 136.94 114.07 C 135.92 114.46 135.41 115.61 135.80 116.64 Z M 136.16 117.57 L 136.52 118.49 C 136.92 119.51 138.07 120.02 139.09 119.62 C 140.12 119.22 140.62 118.07 140.22 117.04 L 139.86 116.12 C 139.46 115.10 138.31 114.59 137.29 114.99 C 136.26 115.39 135.76 116.54 136.16 117.57 Z M 136.52 118.49 L 136.89 119.43 C 137.29 120.45 138.44 120.95 139.47 120.55 C 140.49 120.15 140.99 119.00 140.59 117.97 L 140.22 117.04 C 139.82 116.02 138.67 115.51 137.64 115.92 C 136.62 116.32 136.12 117.47 136.52 118.49 Z M 136.89 119.43 L 137.26 120.38 C 137.66 121.40 138.82 121.91 139.84 121.51 C 140.86 121.11 141.36 119.95 140.96 118.93 L 140.59 117.98 C 140.19 116.95 139.03 116.45 138.01 116.85 C 136.99 117.25 136.49 118.41 136.89 119.43 Z M 137.26 120.38 L 137.61 121.27 C 138.00 122.30 139.16 122.80 140.18 122.40 C 141.20 122.01 141.71 120.85 141.31 119.83 L 140.96 118.94 C 140.57 117.91 139.42 117.40 138.39 117.80 C 137.37 118.20 136.86 119.35 137.26 120.38 Z M 137.60 121.26 L 137.96 122.18 C 138.35 123.21 139.50 123.72 140.53 123.32 C 141.55 122.93 142.06 121.78 141.67 120.76 L 141.32 119.84 C 140.92 118.81 139.77 118.30 138.75 118.70 C 137.72 119.09 137.21 120.24 137.60 121.26 Z M 137.96 122.17 L 138.31 123.11 C 138.70 124.14 139.85 124.66 140.87 124.27 C 141.90 123.88 142.42 122.73 142.03 121.70 L 141.67 120.76 C 141.28 119.74 140.13 119.22 139.11 119.61 C 138.08 120.00 137.57 121.15 137.96 122.17 Z M 138.31 123.10 L 138.67 124.06 C 139.05 125.09 140.20 125.61 141.22 125.23 C 142.25 124.84 142.77 123.70 142.39 122.67 L 142.03 121.71 C 141.65 120.69 140.50 120.16 139.47 120.55 C 138.45 120.93 137.92 122.08 138.31 123.10 Z M 138.66 124.05 L 139.02 125.01 C 139.40 126.04 140.54 126.57 141.57 126.19 C 142.60 125.81 143.12 124.67 142.74 123.64 L 142.39 122.68 C 142.01 121.65 140.87 121.12 139.84 121.50 C 138.81 121.88 138.28 123.02 138.66 124.05 Z M 139.01 125.00 L 139.35 125.93 C 139.72 126.96 140.86 127.49 141.89 127.12 C 142.92 126.75 143.45 125.61 143.08 124.58 L 142.75 123.65 C 142.37 122.62 141.24 122.09 140.21 122.46 C 139.17 122.83 138.64 123.97 139.01 125.00 Z M 139.34 125.91 L 139.68 126.85 C 140.04 127.89 141.18 128.43 142.21 128.06 C 143.24 127.70 143.78 126.56 143.42 125.53 L 143.09 124.59 C 142.72 123.56 141.59 123.02 140.55 123.38 C 139.52 123.75 138.98 124.88 139.34 125.91 Z M 139.67 126.84 L 140.00 127.79 C 140.36 128.82 141.49 129.37 142.52 129.02 C 143.56 128.66 144.11 127.53 143.75 126.49 L 143.42 125.54 C 143.06 124.51 141.94 123.96 140.90 124.32 C 139.86 124.67 139.31 125.80 139.67 126.84 Z M 139.99 127.77 L 140.32 128.73 C 140.66 129.77 141.79 130.33 142.83 129.98 C 143.87 129.63 144.42 128.51 144.08 127.47 L 143.75 126.51 C 143.41 125.47 142.28 124.91 141.24 125.26 C 140.21 125.61 139.65 126.73 139.99 127.77 Z M 140.31 128.71 L 140.62 129.67 C 140.96 130.71 142.08 131.28 143.12 130.95 C 144.16 130.61 144.73 129.49 144.39 128.45 L 144.08 127.49 C 143.74 126.44 142.63 125.87 141.58 126.21 C 140.54 126.55 139.97 127.67 140.31 128.71 Z M 140.62 129.65 L 140.91 130.60 C 141.24 131.64 142.35 132.22 143.40 131.90 C 144.44 131.57 145.02 130.46 144.70 129.42 L 144.40 128.47 C 144.07 127.42 142.96 126.84 141.92 127.17 C 140.87 127.49 140.29 128.61 140.62 129.65 Z M 140.91 130.58 L 141.19 131.53 C 141.51 132.58 142.61 133.17 143.66 132.86 C 144.71 132.54 145.30 131.44 144.99 130.39 L 144.70 129.44 C 144.39 128.39 143.28 127.80 142.23 128.11 C 141.19 128.43 140.59 129.53 140.91 130.58 Z M 141.19 131.51 L 141.47 132.47 C 141.77 133.52 142.87 134.12 143.92 133.82 C 144.97 133.52 145.57 132.42 145.27 131.37 L 144.99 130.41 C 144.69 129.36 143.59 128.75 142.54 129.06 C 141.49 129.36 140.89 130.46 141.19 131.51 Z M 141.46 132.45 L 141.73 133.41 C 142.02 134.47 143.11 135.08 144.16 134.79 C 145.22 134.50 145.83 133.41 145.54 132.36 L 145.27 131.39 C 144.98 130.34 143.89 129.72 142.84 130.01 C 141.79 130.30 141.17 131.39 141.46 132.45 Z M 141.72 133.39 L 141.98 134.37 C 142.26 135.42 143.34 136.05 144.40 135.77 C 145.45 135.49 146.08 134.41 145.80 133.36 L 145.55 132.38 C 145.27 131.33 144.19 130.70 143.13 130.98 C 142.08 131.25 141.45 132.34 141.72 133.39 Z M 141.98 134.35 L 142.22 135.30 C 142.49 136.35 143.56 137.00 144.62 136.73 C 145.68 136.46 146.32 135.39 146.05 134.33 L 145.81 133.38 C 145.54 132.32 144.47 131.68 143.41 131.95 C 142.35 132.21 141.71 133.29 141.98 134.35 Z M 142.21 135.28 L 142.45 136.23 C 142.70 137.29 143.77 137.94 144.83 137.69 C 145.89 137.43 146.54 136.36 146.28 135.30 L 146.05 134.35 C 145.80 133.29 144.73 132.64 143.67 132.89 C 142.61 133.15 141.96 134.22 142.21 135.28 Z M 142.44 136.22 L 142.67 137.18 C 142.92 138.24 143.98 138.90 145.04 138.66 C 146.10 138.41 146.76 137.35 146.51 136.29 L 146.29 135.32 C 146.04 134.26 144.98 133.60 143.92 133.85 C 142.86 134.09 142.20 135.15 142.44 136.22 Z M 142.67 137.17 L 142.89 138.15 C 143.13 139.21 144.18 139.88 145.24 139.64 C 146.31 139.40 146.97 138.35 146.74 137.28 L 146.51 136.30 C 146.27 135.24 145.22 134.57 144.16 134.81 C 143.09 135.05 142.43 136.11 142.67 137.17 Z M 142.89 138.14 L 143.10 139.13 C 143.34 140.20 144.39 140.87 145.45 140.64 C 146.52 140.40 147.19 139.35 146.95 138.29 L 146.74 137.29 C 146.50 136.23 145.45 135.56 144.39 135.79 C 143.33 136.02 142.65 137.08 142.89 138.14 Z M 143.10 139.13 L 143.32 140.13 C 143.55 141.19 144.59 141.87 145.66 141.64 C 146.72 141.41 147.40 140.36 147.17 139.30 L 146.96 138.30 C 146.73 137.24 145.68 136.56 144.62 136.79 C 143.55 137.02 142.88 138.06 143.10 139.13 Z M 143.32 140.12 L 143.53 141.11 C 143.75 142.17 144.80 142.85 145.86 142.63 C 146.92 142.40 147.60 141.36 147.38 140.30 L 147.17 139.31 C 146.95 138.24 145.90 137.56 144.84 137.79 C 143.78 138.01 143.09 139.05 143.32 140.12 Z M 143.53 141.10 L 143.73 142.10 C 143.95 143.16 144.99 143.84 146.05 143.63 C 147.12 143.41 147.80 142.37 147.58 141.30 L 147.38 140.31 C 147.16 139.24 146.12 138.56 145.06 138.78 C 143.99 139.00 143.31 140.04 143.53 141.10 Z M 143.73 142.08 L 143.93 143.08 C 144.14 144.14 145.18 144.83 146.24 144.62 C 147.31 144.41 148.00 143.37 147.78 142.31 L 147.58 141.31 C 147.37 140.25 146.34 139.56 145.27 139.77 C 144.21 139.99 143.52 141.02 143.73 142.08 Z M 143.93 143.06 L 144.12 144.04 C 144.32 145.10 145.35 145.80 146.42 145.60 C 147.48 145.39 148.18 144.36 147.97 143.30 L 147.78 142.32 C 147.58 141.26 146.55 140.56 145.49 140.76 C 144.42 140.97 143.72 142.00 143.93 143.06 Z M 144.12 144.02 L 144.29 144.98 C 144.49 146.05 145.51 146.75 146.57 146.56 C 147.64 146.36 148.34 145.34 148.15 144.27 L 147.97 143.32 C 147.78 142.25 146.76 141.55 145.69 141.74 C 144.63 141.94 143.92 142.96 144.12 144.02 Z M 144.29 144.96 L 144.46 145.97 C 144.65 147.04 145.66 147.76 146.73 147.57 C 147.79 147.39 148.51 146.38 148.33 145.31 L 148.15 144.29 C 147.97 143.23 146.95 142.51 145.89 142.70 C 144.82 142.88 144.11 143.89 144.29 144.96 Z M 144.46 145.95 L 144.62 146.96 C 144.79 148.03 145.79 148.76 146.86 148.59 C 147.93 148.42 148.66 147.42 148.49 146.35 L 148.33 145.34 C 148.16 144.27 147.16 143.54 146.09 143.71 C 145.02 143.88 144.29 144.88 144.46 145.95 Z M 144.62 146.94 L 144.76 147.92 C 144.91 148.99 145.90 149.73 146.97 149.58 C 148.04 149.43 148.78 148.44 148.63 147.37 L 148.49 146.38 C 148.34 145.31 147.35 144.57 146.28 144.72 C 145.21 144.88 144.47 145.87 144.62 146.94 Z M 144.76 147.89 L 144.88 148.86 C 145.02 149.93 146.00 150.69 147.07 150.55 C 148.14 150.42 148.89 149.44 148.76 148.37 L 148.63 147.40 C 148.50 146.33 147.52 145.57 146.45 145.71 C 145.38 145.85 144.62 146.82 144.76 147.89 Z M 144.88 148.83 L 144.99 149.79 C 145.10 150.86 146.07 151.63 147.14 151.51 C 148.21 151.39 148.98 150.43 148.86 149.36 L 148.76 148.40 C 148.64 147.33 147.68 146.56 146.61 146.68 C 145.54 146.79 144.76 147.76 144.88 148.83 Z M 144.99 149.75 L 145.08 150.74 C 145.18 151.82 146.13 152.60 147.20 152.50 C 148.27 152.40 149.06 151.45 148.96 150.38 L 148.87 149.39 C 148.77 148.32 147.82 147.53 146.74 147.63 C 145.67 147.73 144.89 148.68 144.99 149.75 Z M 145.08 150.71 L 145.15 151.71 C 145.24 152.78 146.17 153.59 147.24 153.50 C 148.32 153.42 149.12 152.49 149.03 151.42 L 148.96 150.41 C 148.88 149.34 147.94 148.54 146.87 148.62 C 145.80 148.70 145.00 149.64 145.08 150.71 Z M 145.15 151.68 L 145.22 152.68 C 145.28 153.75 146.20 154.57 147.28 154.50 C 148.35 154.44 149.16 153.52 149.10 152.44 L 149.03 151.45 C 148.97 150.37 148.05 149.56 146.98 149.62 C 145.90 149.69 145.09 150.61 145.15 151.68 Z M 145.22 152.66 L 145.26 153.65 C 145.32 154.72 146.22 155.55 147.30 155.50 C 148.37 155.45 149.19 154.54 149.14 153.47 L 149.09 152.47 C 149.04 151.40 148.13 150.57 147.06 150.63 C 145.99 150.68 145.17 151.58 145.22 152.66 Z M 145.27 153.63 L 145.30 154.62 C 145.34 155.69 146.23 156.53 147.30 156.49 C 148.37 156.45 149.21 155.55 149.17 154.48 L 149.14 153.49 C 149.10 152.42 148.21 151.59 147.14 151.62 C 146.07 151.66 145.23 152.56 145.27 153.63 Z M 145.30 154.60 L 145.32 155.60 C 145.35 156.67 146.24 157.51 147.30 157.49 C 148.37 157.46 149.22 156.58 149.20 155.51 L 149.17 154.51 C 149.15 153.44 148.26 152.59 147.19 152.62 C 146.12 152.64 145.28 153.53 145.30 154.60 Z M 145.33 155.58 L 145.34 156.58 C 145.35 157.65 146.23 158.50 147.30 158.49 C 148.37 158.47 149.22 157.59 149.21 156.53 L 149.19 155.53 C 149.18 154.46 148.30 153.61 147.23 153.62 C 146.17 153.63 145.31 154.51 145.33 155.58 Z M 145.34 156.56 L 145.35 157.56 C 145.36 158.63 146.23 159.49 147.29 159.48 C 148.36 159.47 149.22 158.60 149.21 157.54 L 149.20 156.54 C 149.20 155.47 148.33 154.61 147.26 154.62 C 146.20 154.63 145.34 155.50 145.34 156.56 Z M 145.35 157.55 L 145.35 158.55 C 145.36 159.62 146.22 160.48 147.29 160.48 C 148.35 160.47 149.21 159.61 149.21 158.55 L 149.21 157.55 C 149.21 156.48 148.34 155.62 147.28 155.62 C 146.21 155.62 145.35 156.49 145.35 157.55 Z M 145.36 158.55 L 145.36 159.55 C 145.36 160.61 146.22 161.47 147.28 161.47 C 148.35 161.47 149.21 160.61 149.21 159.55 L 149.21 158.55 C 149.21 157.49 148.35 156.62 147.28 156.62 C 146.22 156.62 145.36 157.49 145.36 158.55 Z M 145.36 159.55 L 145.36 160.54 C 145.36 161.60 146.22 162.47 147.28 162.47 C 148.34 162.47 149.20 161.60 149.20 160.54 L 149.20 159.55 C 149.20 158.49 148.34 157.63 147.28 157.63 C 146.22 157.63 145.36 158.49 145.36 159.55 Z M 145.36 160.54 L 145.36 161.54 C 145.36 162.60 146.22 163.46 147.28 163.46 C 148.34 163.46 149.20 162.60 149.20 161.54 L 149.20 160.54 C 149.20 159.48 148.34 158.62 147.28 158.62 C 146.22 158.62 145.36 159.48 145.36 160.54 Z M 145.37 161.54 L 145.37 162.54 C 145.37 163.60 146.22 164.46 147.28 164.46 C 148.34 164.46 149.20 163.60 149.20 162.54 L 149.20 161.54 C 149.20 160.48 148.34 159.63 147.28 159.63 C 146.22 159.63 145.37 160.48 145.37 161.54 Z M 145.37 162.54 L 145.37 163.55 C 145.37 164.60 146.23 165.46 147.28 165.46 C 148.34 165.46 149.19 164.60 149.19 163.55 L 149.19 162.54 C 149.19 161.49 148.34 160.63 147.28 160.63 C 146.23 160.63 145.37 161.49 145.37 162.54 Z M 145.37 163.55 L 145.37 164.53 C 145.37 165.59 146.23 166.44 147.28 166.44 C 148.34 166.44 149.19 165.59 149.19 164.53 L 149.19 163.55 C 149.19 162.50 148.34 161.64 147.28 161.64 C 146.23 161.64 145.37 162.49 145.37 163.55 Z M 145.38 164.53 L 145.37 165.50 C 145.37 166.55 146.22 167.41 147.27 167.41 C 148.33 167.41 149.18 166.56 149.18 165.51 L 149.19 164.54 C 149.19 163.49 148.34 162.63 147.29 162.63 C 146.24 162.63 145.38 163.48 145.38 164.53 Z M 145.38 165.49 L 145.37 166.47 C 145.36 167.52 146.20 168.38 147.25 168.39 C 148.30 168.40 149.16 167.56 149.17 166.51 L 149.18 165.52 C 149.19 164.47 148.35 163.62 147.30 163.61 C 146.25 163.59 145.39 164.44 145.38 165.49 Z M 145.37 166.45 L 145.35 167.46 C 145.33 168.50 146.16 169.37 147.21 169.39 C 148.26 169.42 149.12 168.58 149.15 167.54 L 149.17 166.53 C 149.19 165.48 148.36 164.62 147.31 164.59 C 146.26 164.57 145.39 165.40 145.37 166.45 Z M 145.36 167.43 L 145.32 168.46 C 145.28 169.51 146.10 170.39 147.14 170.42 C 148.19 170.46 149.07 169.64 149.11 168.60 L 149.14 167.56 C 149.18 166.52 148.36 165.64 147.32 165.60 C 146.27 165.57 145.39 166.38 145.36 167.43 Z M 145.32 168.43 L 145.27 169.44 C 145.22 170.48 146.02 171.37 147.06 171.43 C 148.10 171.48 148.99 170.68 149.05 169.64 L 149.10 168.63 C 149.16 167.59 148.35 166.70 147.31 166.64 C 146.27 166.59 145.38 167.39 145.32 168.43 Z M 145.28 169.41 L 145.21 170.41 C 145.13 171.45 145.92 172.35 146.96 172.42 C 148.00 172.50 148.90 171.71 148.97 170.67 L 149.04 169.67 C 149.11 168.63 148.33 167.73 147.29 167.66 C 146.25 167.58 145.35 168.37 145.28 169.41 Z M 145.21 170.38 L 145.13 171.39 C 145.04 172.43 145.81 173.34 146.84 173.43 C 147.88 173.52 148.79 172.75 148.88 171.71 L 148.97 170.70 C 149.05 169.67 148.29 168.75 147.25 168.66 C 146.21 168.58 145.30 169.34 145.21 170.38 Z M 145.13 171.36 L 145.03 172.37 C 144.92 173.40 145.68 174.32 146.71 174.43 C 147.74 174.53 148.66 173.78 148.77 172.75 L 148.87 171.74 C 148.98 170.71 148.23 169.79 147.19 169.68 C 146.16 169.58 145.24 170.33 145.13 171.36 Z M 145.04 172.34 L 144.92 173.33 C 144.80 174.36 145.53 175.29 146.56 175.41 C 147.59 175.53 148.52 174.80 148.64 173.77 L 148.76 172.78 C 148.88 171.75 148.15 170.82 147.12 170.70 C 146.09 170.58 145.16 171.31 145.04 172.34 Z M 144.93 173.29 L 144.79 174.28 C 144.65 175.31 145.36 176.25 146.39 176.39 C 147.41 176.54 148.36 175.82 148.50 174.80 L 148.63 173.81 C 148.78 172.78 148.06 171.84 147.04 171.70 C 146.01 171.55 145.07 172.27 144.93 173.29 Z M 144.80 174.24 L 144.63 175.28 C 144.47 176.29 145.16 177.25 146.18 177.42 C 147.20 177.58 148.16 176.89 148.32 175.87 L 148.49 174.84 C 148.65 173.82 147.96 172.86 146.94 172.70 C 145.92 172.53 144.96 173.23 144.80 174.24 Z M 144.65 175.24 L 144.46 176.23 C 144.28 177.24 144.95 178.21 145.96 178.40 C 146.97 178.58 147.94 177.91 148.13 176.90 L 148.31 175.91 C 148.50 174.90 147.83 173.93 146.81 173.74 C 145.80 173.56 144.83 174.23 144.65 175.24 Z M 144.48 176.19 L 144.28 177.15 C 144.07 178.16 144.72 179.14 145.73 179.35 C 146.73 179.55 147.71 178.90 147.92 177.90 L 148.12 176.94 C 148.32 175.93 147.67 174.95 146.67 174.74 C 145.66 174.54 144.68 175.19 144.48 176.19 Z M 144.29 177.12 L 144.08 178.06 C 143.86 179.06 144.49 180.05 145.49 180.28 C 146.48 180.50 147.48 179.87 147.70 178.87 L 147.91 177.93 C 148.13 176.93 147.50 175.94 146.50 175.72 C 145.50 175.49 144.51 176.12 144.29 177.12 Z M 144.09 178.04 L 143.86 179.00 C 143.62 179.99 144.24 180.99 145.23 181.22 C 146.22 181.46 147.22 180.85 147.46 179.86 L 147.69 178.90 C 147.92 177.90 147.31 176.91 146.32 176.67 C 145.33 176.43 144.33 177.05 144.09 178.04 Z M 143.87 178.98 L 143.63 179.95 C 143.38 180.94 143.97 181.94 144.96 182.19 C 145.95 182.44 146.95 181.84 147.20 180.86 L 147.45 179.88 C 147.70 178.89 147.10 177.89 146.11 177.64 C 145.12 177.39 144.12 177.99 143.87 178.98 Z M 143.64 179.94 L 143.38 180.91 C 143.12 181.89 143.71 182.89 144.69 183.15 C 145.67 183.41 146.67 182.83 146.93 181.85 L 147.19 180.87 C 147.45 179.89 146.86 178.89 145.88 178.63 C 144.90 178.37 143.89 178.96 143.64 179.94 Z M 143.39 180.89 L 143.13 181.85 C 142.86 182.83 143.44 183.84 144.41 184.10 C 145.39 184.37 146.40 183.79 146.66 182.82 L 146.92 181.86 C 147.19 180.88 146.61 179.88 145.64 179.61 C 144.66 179.34 143.66 179.92 143.39 180.89 Z M 143.14 181.85 L 142.87 182.80 C 142.60 183.77 143.17 184.77 144.14 185.05 C 145.11 185.32 146.12 184.75 146.39 183.78 L 146.65 182.83 C 146.93 181.86 146.36 180.85 145.39 180.58 C 144.41 180.31 143.41 180.87 143.14 181.85 Z M 142.88 182.79 L 142.60 183.78 C 142.32 184.75 142.88 185.76 143.85 186.03 C 144.82 186.30 145.83 185.74 146.10 184.78 L 146.38 183.78 C 146.66 182.82 146.09 181.81 145.13 181.53 C 144.16 181.26 143.15 181.82 142.88 182.79 Z M 142.61 183.78 L 142.32 184.75 C 142.05 185.71 142.60 186.72 143.56 187.00 C 144.53 187.27 145.53 186.72 145.81 185.76 L 146.09 184.78 C 146.37 183.82 145.81 182.81 144.85 182.54 C 143.89 182.26 142.88 182.81 142.61 183.78 Z M 142.33 184.74 L 142.05 185.69 C 141.77 186.65 142.31 187.66 143.27 187.94 C 144.23 188.22 145.24 187.68 145.52 186.72 L 145.80 185.77 C 146.08 184.81 145.54 183.80 144.58 183.52 C 143.62 183.24 142.62 183.78 142.33 184.74 Z M 142.06 185.68 L 141.78 186.61 C 141.49 187.56 142.03 188.57 142.98 188.86 C 143.93 189.15 144.94 188.61 145.23 187.66 L 145.51 186.73 C 145.80 185.78 145.26 184.77 144.31 184.48 C 143.36 184.19 142.35 184.73 142.06 185.68 Z M 141.79 186.60 L 141.48 187.58 C 141.19 188.52 141.71 189.53 142.66 189.83 C 143.60 190.12 144.61 189.60 144.91 188.65 L 145.22 187.67 C 145.51 186.72 144.99 185.72 144.04 185.42 C 143.10 185.12 142.09 185.65 141.79 186.60 Z M 141.50 187.56 L 141.18 188.53 C 140.88 189.47 141.39 190.48 142.33 190.78 C 143.27 191.09 144.28 190.57 144.58 189.63 L 144.90 188.67 C 145.20 187.73 144.69 186.72 143.75 186.41 C 142.81 186.11 141.80 186.62 141.50 187.56 Z M 141.19 188.51 L 140.88 189.45 C 140.57 190.38 141.07 191.39 142.00 191.70 C 142.93 192.02 143.94 191.52 144.25 190.58 L 144.57 189.65 C 144.88 188.72 144.38 187.71 143.45 187.39 C 142.52 187.08 141.51 187.58 141.19 188.51 Z M 140.89 189.43 L 140.58 190.34 C 140.26 191.26 140.75 192.27 141.67 192.60 C 142.60 192.92 143.61 192.43 143.93 191.50 L 144.24 190.60 C 144.56 189.67 144.07 188.66 143.15 188.34 C 142.22 188.02 141.21 188.51 140.89 189.43 Z M 140.59 190.32 L 140.28 191.20 C 139.95 192.12 140.42 193.13 141.34 193.46 C 142.26 193.79 143.27 193.31 143.60 192.39 L 143.91 191.52 C 144.24 190.60 143.77 189.59 142.85 189.26 C 141.93 188.93 140.92 189.41 140.59 190.32 Z M 140.29 191.18 L 139.96 192.07 C 139.62 192.98 140.08 193.99 140.99 194.33 C 141.90 194.67 142.91 194.21 143.25 193.30 L 143.58 192.41 C 143.92 191.50 143.46 190.49 142.55 190.15 C 141.65 189.81 140.63 190.27 140.29 191.18 Z M 139.98 192.05 L 139.60 193.00 C 139.25 193.90 139.70 194.91 140.60 195.27 C 141.50 195.62 142.51 195.17 142.86 194.27 L 143.23 193.33 C 143.59 192.43 143.14 191.41 142.24 191.06 C 141.34 190.71 140.33 191.15 139.98 192.05 Z M 139.62 192.98 L 139.21 193.99 C 138.85 194.88 139.28 195.89 140.17 196.26 C 141.06 196.62 142.07 196.19 142.44 195.30 L 142.85 194.29 C 143.21 193.40 142.78 192.39 141.89 192.02 C 141.00 191.66 139.98 192.09 139.62 192.98 Z M 139.22 193.98 L 138.85 194.87 C 138.48 195.76 138.90 196.77 139.78 197.14 C 140.67 197.51 141.68 197.09 142.05 196.21 L 142.42 195.31 C 142.79 194.42 142.37 193.41 141.49 193.04 C 140.61 192.67 139.59 193.09 139.22 193.98 Z M 138.85 194.89 L 138.46 195.83 C 138.10 196.71 138.53 197.72 139.41 198.08 C 140.29 198.45 141.30 198.02 141.66 197.14 L 142.05 196.19 C 142.41 195.31 141.99 194.30 141.10 193.94 C 140.22 193.58 139.21 194.00 138.85 194.89 Z M 138.46 195.86 L 138.08 196.83 C 137.74 197.71 138.18 198.71 139.07 199.05 C 139.95 199.40 140.95 198.96 141.29 198.07 L 141.67 197.11 C 142.01 196.22 141.57 195.22 140.69 194.88 C 139.80 194.54 138.80 194.98 138.46 195.86 Z M 138.07 196.88 L 137.74 197.83 C 137.42 198.72 137.89 199.70 138.78 200.02 C 139.67 200.33 140.65 199.87 140.97 198.97 L 141.31 198.02 C 141.62 197.13 141.15 196.15 140.26 195.83 C 139.37 195.52 138.39 195.98 138.07 196.88 Z M 137.72 197.92 L 137.43 198.89 C 137.16 199.79 137.68 200.74 138.58 201.01 C 139.48 201.28 140.43 200.76 140.70 199.86 L 140.99 198.89 C 141.26 197.98 140.74 197.03 139.84 196.77 C 138.93 196.50 137.98 197.01 137.72 197.92 Z M 137.41 199.01 L 137.18 200.05 C 136.98 200.97 137.56 201.87 138.47 202.07 C 139.39 202.27 140.29 201.69 140.49 200.78 L 140.72 199.73 C 140.92 198.82 140.34 197.92 139.43 197.72 C 138.51 197.52 137.61 198.09 137.41 199.01 Z M 137.17 200.17 L 137.03 201.16 C 136.90 202.07 137.53 202.93 138.45 203.06 C 139.37 203.20 140.22 202.56 140.35 201.64 L 140.50 200.66 C 140.63 199.74 140.00 198.89 139.08 198.75 C 138.16 198.62 137.31 199.25 137.17 200.17 Z M 137.04 201.24 L 136.94 202.18 C 136.86 203.10 137.53 203.91 138.44 204.00 C 139.36 204.09 140.17 203.42 140.26 202.50 L 140.35 201.56 C 140.44 200.64 139.77 199.83 138.85 199.74 C 137.94 199.66 137.12 200.33 137.04 201.24 Z M 136.95 202.22 L 136.90 202.90 C 136.84 203.81 137.52 204.60 138.43 204.67 C 139.34 204.73 140.13 204.05 140.20 203.14 L 140.25 202.47 C 140.31 201.56 139.63 200.76 138.72 200.70 C 137.81 200.63 137.02 201.31 136.95 202.22 Z"
      fill="black"
      fill-rule="nonzero" /><path d="M 148.45 148.61 L 147.87 147.74 C 147.34 146.95 146.26 146.74 145.47 147.27 C 144.68 147.80 144.47 148.88 145.00 149.67 L 145.58 150.54 C 146.11 151.33 147.19 151.54 147.98 151.01 C 148.77 150.48 148.99 149.40 148.45 148.61 Z M 147.90 147.79 L 147.36 146.92 C 146.86 146.11 145.79 145.86 144.98 146.37 C 144.17 146.87 143.92 147.94 144.43 148.75 L 144.97 149.62 C 145.47 150.43 146.54 150.68 147.35 150.17 C 148.16 149.67 148.41 148.60 147.90 147.79 Z M 147.43 147.03 L 146.97 146.17 C 146.53 145.32 145.49 144.99 144.64 145.43 C 143.79 145.88 143.46 146.92 143.91 147.77 L 144.36 148.64 C 144.80 149.48 145.85 149.81 146.69 149.37 C 147.54 148.93 147.87 147.88 147.43 147.03 Z M 147.06 146.37 L 146.73 145.46 C 146.40 144.56 145.40 144.10 144.50 144.43 C 143.61 144.77 143.15 145.76 143.48 146.66 L 143.82 147.57 C 144.15 148.46 145.14 148.92 146.04 148.59 C 146.94 148.26 147.40 147.26 147.06 146.37 Z M 146.83 145.80 L 146.68 144.74 C 146.53 143.79 145.64 143.13 144.69 143.27 C 143.73 143.42 143.07 144.31 143.22 145.26 L 143.37 146.32 C 143.52 147.27 144.41 147.93 145.36 147.79 C 146.32 147.64 146.98 146.75 146.83 145.80 Z M 146.70 145.27 L 146.85 144.31 C 146.99 143.34 146.32 142.44 145.35 142.29 C 144.38 142.15 143.48 142.81 143.33 143.78 L 143.19 144.74 C 143.04 145.71 143.71 146.62 144.68 146.76 C 145.65 146.91 146.56 146.24 146.70 145.27 Z M 146.62 145.00 L 147.09 144.24 C 147.62 143.39 147.35 142.28 146.50 141.76 C 145.66 141.23 144.55 141.50 144.02 142.34 L 143.55 143.10 C 143.03 143.95 143.29 145.06 144.14 145.58 C 144.99 146.11 146.10 145.84 146.62 145.00 Z M 146.62 144.77 L 147.24 144.33 C 148.06 143.74 148.25 142.60 147.66 141.78 C 147.07 140.96 145.93 140.78 145.12 141.36 L 144.49 141.81 C 143.68 142.40 143.49 143.54 144.08 144.35 C 144.66 145.17 145.80 145.36 146.62 144.77 Z M 146.85 144.55 L 147.70 144.22 C 148.64 143.84 149.10 142.78 148.73 141.84 C 148.36 140.90 147.29 140.43 146.35 140.81 L 145.51 141.14 C 144.57 141.51 144.10 142.58 144.47 143.52 C 144.85 144.46 145.91 144.92 146.85 144.55 Z M 147.45 144.30 L 148.52 144.05 C 149.51 143.81 150.12 142.82 149.89 141.83 C 149.65 140.84 148.66 140.23 147.67 140.46 L 146.60 140.72 C 145.61 140.95 145.00 141.95 145.23 142.94 C 145.47 143.93 146.46 144.54 147.45 144.30 Z M 148.39 144.08 L 149.61 143.89 C 150.62 143.72 151.31 142.77 151.14 141.76 C 150.97 140.75 150.02 140.06 149.01 140.23 L 147.79 140.43 C 146.78 140.59 146.10 141.55 146.27 142.56 C 146.43 143.57 147.38 144.25 148.39 144.08 Z M 149.56 143.90 L 150.51 143.77 C 151.53 143.64 152.24 142.70 152.11 141.68 C 151.97 140.67 151.04 139.95 150.02 140.09 L 149.07 140.21 C 148.05 140.35 147.33 141.29 147.47 142.30 C 147.60 143.32 148.54 144.04 149.56 143.90 Z M 150.48 143.78 L 151.49 143.66 C 152.51 143.54 153.24 142.61 153.12 141.59 C 153.00 140.57 152.08 139.84 151.06 139.96 L 150.04 140.08 C 149.02 140.20 148.29 141.13 148.41 142.15 C 148.54 143.17 149.46 143.90 150.48 143.78 Z M 151.47 143.66 L 152.51 143.55 C 153.54 143.44 154.28 142.52 154.17 141.50 C 154.05 140.47 153.14 139.73 152.11 139.84 L 151.07 139.96 C 150.05 140.07 149.31 140.99 149.42 142.01 C 149.53 143.04 150.45 143.78 151.47 143.66 Z M 152.50 143.56 L 153.53 143.45 C 154.56 143.35 155.31 142.43 155.20 141.40 C 155.10 140.38 154.18 139.63 153.16 139.74 L 152.12 139.84 C 151.10 139.94 150.35 140.86 150.45 141.89 C 150.56 142.91 151.47 143.66 152.50 143.56 Z M 153.53 143.45 L 154.53 143.36 C 155.55 143.26 156.31 142.34 156.21 141.31 C 156.10 140.29 155.19 139.53 154.16 139.63 L 153.16 139.73 C 152.14 139.83 151.38 140.75 151.48 141.78 C 151.59 142.80 152.50 143.56 153.53 143.45 Z M 154.53 143.36 L 155.50 143.27 C 156.53 143.17 157.28 142.25 157.18 141.22 C 157.08 140.19 156.16 139.44 155.13 139.54 L 154.16 139.63 C 153.13 139.73 152.38 140.65 152.48 141.68 C 152.58 142.71 153.50 143.46 154.53 143.36 Z M 155.50 143.27 L 156.65 143.15 C 157.68 143.05 158.43 142.13 158.33 141.10 C 158.23 140.07 157.31 139.32 156.28 139.42 L 155.13 139.54 C 154.10 139.64 153.35 140.56 153.45 141.59 C 153.55 142.62 154.47 143.37 155.50 143.27 Z M 156.65 143.15 L 157.66 143.05 C 158.69 142.95 159.45 142.03 159.34 141.00 C 159.24 139.97 158.32 139.22 157.29 139.32 L 156.28 139.42 C 155.25 139.53 154.49 140.44 154.60 141.47 C 154.70 142.50 155.62 143.26 156.65 143.15 Z M 157.66 143.05 L 158.59 142.96 C 159.62 142.86 160.37 141.94 160.27 140.91 C 160.17 139.88 159.26 139.13 158.23 139.23 L 157.30 139.32 C 156.27 139.42 155.51 140.34 155.61 141.37 C 155.71 142.40 156.63 143.15 157.66 143.05 Z M 158.58 142.96 L 159.47 142.88 C 160.50 142.78 161.26 141.87 161.16 140.84 C 161.07 139.81 160.15 139.05 159.12 139.15 L 158.24 139.23 C 157.20 139.32 156.45 140.24 156.54 141.27 C 156.64 142.30 157.55 143.06 158.58 142.96 Z M 159.45 142.88 L 160.38 142.80 C 161.41 142.72 162.18 141.81 162.09 140.78 C 162.01 139.75 161.10 138.98 160.07 139.07 L 159.14 139.15 C 158.11 139.23 157.34 140.14 157.43 141.17 C 157.51 142.20 158.42 142.97 159.45 142.88 Z M 160.37 142.80 L 161.33 142.73 C 162.36 142.65 163.14 141.76 163.06 140.72 C 162.98 139.69 162.08 138.92 161.05 138.99 L 160.09 139.07 C 159.05 139.14 158.28 140.04 158.36 141.08 C 158.43 142.11 159.33 142.88 160.37 142.80 Z M 161.32 142.73 L 162.32 142.66 C 163.35 142.59 164.13 141.70 164.06 140.67 C 163.99 139.64 163.10 138.86 162.06 138.93 L 161.06 138.99 C 160.03 139.06 159.25 139.96 159.32 140.99 C 159.39 142.02 160.29 142.80 161.32 142.73 Z M 162.31 142.66 L 163.35 142.60 C 164.38 142.53 165.17 141.65 165.10 140.61 C 165.04 139.58 164.15 138.80 163.12 138.86 L 162.07 138.93 C 161.04 138.99 160.26 139.88 160.32 140.91 C 160.39 141.95 161.28 142.73 162.31 142.66 Z M 163.34 142.60 L 164.32 142.54 C 165.35 142.48 166.14 141.59 166.08 140.56 C 166.01 139.53 165.13 138.74 164.10 138.80 L 163.12 138.86 C 162.09 138.92 161.30 139.81 161.36 140.84 C 161.43 141.87 162.31 142.66 163.34 142.60 Z M 164.31 142.54 L 165.27 142.49 C 166.30 142.43 167.09 141.54 167.03 140.51 C 166.97 139.48 166.09 138.69 165.06 138.75 L 164.10 138.80 C 163.07 138.86 162.28 139.75 162.34 140.78 C 162.40 141.81 163.28 142.60 164.31 142.54 Z M 165.27 142.49 L 166.26 142.43 C 167.29 142.38 168.08 141.49 168.02 140.46 C 167.97 139.43 167.09 138.64 166.05 138.69 L 165.06 138.75 C 164.03 138.81 163.24 139.69 163.29 140.72 C 163.35 141.75 164.23 142.54 165.27 142.49 Z M 166.26 142.43 L 167.28 142.38 C 168.31 142.32 169.10 141.44 169.05 140.41 C 169.00 139.38 168.11 138.59 167.08 138.64 L 166.06 138.69 C 165.02 138.75 164.23 139.63 164.29 140.66 C 164.34 141.69 165.22 142.49 166.26 142.43 Z M 167.28 142.38 L 168.33 142.32 C 169.37 142.27 170.16 141.39 170.11 140.36 C 170.05 139.33 169.17 138.53 168.14 138.59 L 167.08 138.64 C 166.05 138.69 165.26 139.57 165.31 140.61 C 165.37 141.64 166.25 142.43 167.28 142.38 Z M 168.33 142.32 L 169.31 142.27 C 170.34 142.22 171.14 141.34 171.08 140.31 C 171.03 139.28 170.15 138.49 169.12 138.54 L 168.14 138.59 C 167.11 138.64 166.32 139.52 166.37 140.55 C 166.42 141.58 167.30 142.37 168.33 142.32 Z M 169.31 142.27 L 170.29 142.22 C 171.32 142.17 172.11 141.30 172.06 140.27 C 172.01 139.23 171.13 138.44 170.10 138.49 L 169.12 138.54 C 168.09 138.59 167.30 139.47 167.35 140.50 C 167.40 141.53 168.28 142.32 169.31 142.27 Z M 170.28 142.22 L 171.28 142.18 C 172.31 142.13 173.11 141.25 173.06 140.22 C 173.01 139.19 172.13 138.39 171.10 138.44 L 170.10 138.49 C 169.07 138.54 168.28 139.42 168.33 140.45 C 168.38 141.48 169.25 142.27 170.28 142.22 Z M 171.28 142.17 L 172.29 142.13 C 173.32 142.08 174.11 141.20 174.06 140.17 C 174.02 139.14 173.14 138.35 172.11 138.40 L 171.10 138.44 C 170.07 138.49 169.28 139.37 169.32 140.40 C 169.37 141.43 170.25 142.22 171.28 142.17 Z M 172.29 142.12 L 173.31 142.08 C 174.34 142.03 175.13 141.15 175.09 140.12 C 175.04 139.10 174.16 138.30 173.13 138.35 L 172.11 138.40 C 171.08 138.45 170.29 139.32 170.34 140.35 C 170.38 141.38 171.26 142.17 172.29 142.12 Z M 173.31 142.08 L 174.33 142.03 C 175.36 141.98 176.15 141.11 176.10 140.08 C 176.06 139.05 175.18 138.25 174.15 138.30 L 173.14 138.35 C 172.11 138.40 171.31 139.27 171.36 140.30 C 171.41 141.33 172.28 142.12 173.31 142.08 Z M 174.33 142.03 L 175.32 141.98 C 176.35 141.93 177.14 141.06 177.10 140.03 C 177.05 139.01 176.18 138.21 175.15 138.26 L 174.15 138.30 C 173.13 138.35 172.33 139.22 172.38 140.25 C 172.43 141.28 173.30 142.07 174.33 142.03 Z M 175.32 141.98 L 176.32 141.94 C 177.34 141.89 178.14 141.02 178.09 139.99 C 178.05 138.96 177.18 138.17 176.15 138.21 L 175.15 138.26 C 174.12 138.30 173.33 139.18 173.37 140.20 C 173.42 141.23 174.29 142.03 175.32 141.98 Z M 176.31 141.93 L 177.31 141.89 C 178.34 141.85 179.14 140.98 179.09 139.95 C 179.05 138.92 178.18 138.13 177.15 138.17 L 176.15 138.22 C 175.13 138.26 174.33 139.13 174.37 140.15 C 174.42 141.18 175.29 141.98 176.31 141.93 Z M 177.31 141.89 L 178.31 141.85 C 179.34 141.81 180.14 140.94 180.10 139.92 C 180.05 138.89 179.19 138.09 178.16 138.13 L 177.16 138.17 C 176.13 138.22 175.33 139.08 175.38 140.11 C 175.42 141.13 176.28 141.93 177.31 141.89 Z M 178.31 141.85 L 179.31 141.81 C 180.33 141.77 181.13 140.91 181.10 139.88 C 181.06 138.86 180.19 138.06 179.17 138.10 L 178.17 138.13 C 177.14 138.17 176.34 139.04 176.38 140.06 C 176.42 141.09 177.28 141.89 178.31 141.85 Z M 179.30 141.81 L 180.30 141.77 C 181.33 141.74 182.13 140.88 182.10 139.86 C 182.06 138.83 181.20 138.03 180.18 138.06 L 179.18 138.10 C 178.15 138.13 177.35 138.99 177.38 140.02 C 177.42 141.04 178.28 141.84 179.30 141.81 Z M 180.30 141.77 L 181.30 141.74 C 182.32 141.71 183.13 140.85 183.09 139.83 C 183.06 138.81 182.21 138.00 181.18 138.03 L 180.18 138.06 C 179.16 138.10 178.35 138.95 178.39 139.98 C 178.42 141.00 179.27 141.80 180.30 141.77 Z M 181.29 141.74 L 182.29 141.71 C 183.31 141.68 184.12 140.83 184.09 139.81 C 184.06 138.79 183.21 137.98 182.19 138.01 L 181.19 138.04 C 180.17 138.06 179.36 138.92 179.39 139.94 C 179.42 140.96 180.27 141.77 181.29 141.74 Z M 182.29 141.71 L 183.28 141.68 C 184.31 141.66 185.11 140.81 185.09 139.79 C 185.06 138.77 184.21 137.96 183.19 137.98 L 182.19 138.01 C 181.17 138.04 180.36 138.89 180.39 139.91 C 180.41 140.93 181.26 141.74 182.29 141.71 Z M 183.28 141.68 L 184.28 141.66 C 185.30 141.63 186.11 140.79 186.08 139.77 C 186.06 138.75 185.21 137.94 184.19 137.96 L 183.19 137.99 C 182.17 138.01 181.36 138.86 181.39 139.88 C 181.41 140.90 182.26 141.71 183.28 141.68 Z M 184.28 141.66 L 185.28 141.63 C 186.30 141.61 187.11 140.76 187.08 139.74 C 187.06 138.73 186.21 137.92 185.19 137.94 L 184.19 137.96 C 183.17 137.99 182.37 138.83 182.39 139.85 C 182.41 140.87 183.26 141.68 184.28 141.66 Z M 185.28 141.63 L 186.31 141.61 C 187.33 141.58 188.14 140.74 188.11 139.72 C 188.09 138.70 187.25 137.90 186.23 137.92 L 185.19 137.94 C 184.18 137.97 183.37 138.81 183.39 139.83 C 183.42 140.85 184.26 141.65 185.28 141.63 Z M 186.31 141.60 L 187.35 141.58 C 188.36 141.56 189.17 140.72 189.15 139.70 C 189.12 138.68 188.28 137.88 187.26 137.90 L 186.23 137.92 C 185.21 137.95 184.41 138.79 184.43 139.80 C 184.45 140.82 185.29 141.63 186.31 141.60 Z M 187.35 141.58 L 188.37 141.56 C 189.38 141.53 190.19 140.69 190.17 139.68 C 190.14 138.66 189.30 137.86 188.29 137.88 L 187.27 137.90 C 186.25 137.92 185.45 138.76 185.47 139.78 C 185.49 140.79 186.33 141.60 187.35 141.58 Z M 188.36 141.55 L 189.36 141.53 C 190.37 141.51 191.18 140.68 191.16 139.66 C 191.14 138.65 190.30 137.84 189.29 137.86 L 188.29 137.88 C 187.28 137.90 186.47 138.74 186.49 139.75 C 186.51 140.77 187.35 141.57 188.36 141.55 Z M 189.36 141.53 L 190.32 141.52 C 191.33 141.50 192.14 140.66 192.12 139.65 C 192.10 138.64 191.27 137.83 190.26 137.85 L 189.29 137.87 C 188.28 137.88 187.48 138.72 187.49 139.73 C 187.51 140.74 188.34 141.55 189.36 141.53 Z M 190.31 141.51 L 191.30 141.50 C 192.31 141.48 193.12 140.65 193.10 139.64 C 193.09 138.63 192.26 137.83 191.25 137.84 L 190.26 137.85 C 189.25 137.87 188.44 138.70 188.46 139.71 C 188.47 140.72 189.30 141.53 190.31 141.51 Z M 191.29 141.49 L 192.36 141.48 C 193.37 141.47 194.18 140.65 194.17 139.64 C 194.16 138.63 193.34 137.82 192.33 137.83 L 191.25 137.84 C 190.25 137.85 189.44 138.68 189.45 139.69 C 189.46 140.69 190.28 141.50 191.29 141.49 Z M 192.36 141.48 L 193.37 141.47 C 194.37 141.47 195.18 140.65 195.18 139.64 C 195.17 138.64 194.35 137.83 193.35 137.83 L 192.34 137.84 C 191.33 137.84 190.52 138.66 190.53 139.67 C 190.53 140.67 191.35 141.48 192.36 141.48 Z M 193.36 141.47 L 194.32 141.47 C 195.33 141.46 196.14 140.65 196.14 139.65 C 196.13 138.64 195.32 137.83 194.32 137.84 L 193.35 137.84 C 192.35 137.84 191.54 138.65 191.54 139.66 C 191.54 140.66 192.36 141.47 193.36 141.47 Z M 194.32 141.46 L 195.25 141.46 C 196.25 141.46 197.06 140.65 197.06 139.65 C 197.06 138.65 196.25 137.84 195.25 137.84 L 194.32 137.84 C 193.32 137.84 192.51 138.65 192.51 139.65 C 192.51 140.65 193.32 141.46 194.32 141.46 Z M 195.25 141.46 L 196.27 141.46 C 197.26 141.46 198.07 140.65 198.07 139.65 C 198.07 138.65 197.26 137.85 196.27 137.85 L 195.25 137.85 C 194.25 137.85 193.44 138.65 193.44 139.65 C 193.44 140.65 194.25 141.46 195.25 141.46 Z M 196.27 141.45 L 197.28 141.45 C 198.27 141.45 199.08 140.64 199.08 139.65 C 199.08 138.66 198.27 137.85 197.28 137.85 L 196.27 137.85 C 195.27 137.85 194.47 138.66 194.47 139.65 C 194.47 140.64 195.27 141.45 196.27 141.45 Z M 197.28 141.44 L 198.27 141.44 C 199.26 141.44 200.06 140.64 200.06 139.65 C 200.06 138.66 199.26 137.86 198.27 137.86 L 197.28 137.86 C 196.29 137.86 195.48 138.66 195.48 139.65 C 195.48 140.64 196.29 141.44 197.28 141.44 Z M 198.27 141.44 L 199.24 141.44 C 200.22 141.44 201.02 140.64 201.02 139.65 C 201.02 138.66 200.22 137.87 199.24 137.87 L 198.27 137.87 C 197.28 137.87 196.48 138.66 196.48 139.65 C 196.48 140.64 197.28 141.44 198.27 141.44 Z M 199.23 141.43 L 200.26 141.43 C 201.24 141.43 202.04 140.63 202.04 139.65 C 202.04 138.67 201.24 137.87 200.26 137.87 L 199.24 137.87 C 198.25 137.87 197.46 138.67 197.46 139.65 C 197.46 140.63 198.25 141.43 199.23 141.43 Z M 200.26 141.42 L 201.26 141.42 C 202.24 141.43 203.03 140.64 203.04 139.66 C 203.04 138.68 202.25 137.89 201.27 137.89 L 200.27 137.88 C 199.29 137.88 198.50 138.67 198.49 139.65 C 198.49 140.62 199.28 141.42 200.26 141.42 Z M 201.25 141.42 L 202.24 141.43 C 203.21 141.43 204.01 140.65 204.01 139.68 C 204.02 138.71 203.24 137.91 202.27 137.90 L 201.28 137.89 C 200.31 137.88 199.52 138.67 199.51 139.64 C 199.50 140.61 200.28 141.41 201.25 141.42 Z M 202.22 141.42 L 203.21 141.44 C 204.18 141.45 204.98 140.68 205.00 139.72 C 205.02 138.75 204.25 137.95 203.28 137.93 L 202.29 137.91 C 201.32 137.89 200.52 138.66 200.50 139.63 C 200.48 140.60 201.25 141.40 202.22 141.42 Z M 203.19 141.43 L 204.20 141.46 C 205.16 141.49 205.97 140.74 206.00 139.78 C 206.03 138.81 205.28 138.01 204.32 137.97 L 203.31 137.94 C 202.34 137.91 201.54 138.66 201.50 139.62 C 201.47 140.59 202.22 141.39 203.19 141.43 Z M 204.16 141.45 L 205.15 141.51 C 206.11 141.56 206.93 140.83 206.98 139.87 C 207.04 138.92 206.30 138.10 205.35 138.04 L 204.36 137.99 C 203.40 137.93 202.58 138.66 202.53 139.62 C 202.47 140.58 203.20 141.39 204.16 141.45 Z M 205.10 141.49 L 206.08 141.58 C 207.03 141.66 207.86 140.96 207.95 140.01 C 208.03 139.06 207.33 138.22 206.38 138.14 L 205.40 138.05 C 204.45 137.97 203.61 138.67 203.53 139.62 C 203.45 140.57 204.15 141.41 205.10 141.49 Z M 206.02 141.56 L 206.99 141.68 C 207.93 141.80 208.79 141.13 208.90 140.19 C 209.02 139.25 208.35 138.39 207.41 138.27 L 206.44 138.16 C 205.49 138.04 204.64 138.71 204.52 139.65 C 204.41 140.59 205.08 141.45 206.02 141.56 Z M 206.95 141.67 L 207.94 141.81 C 208.87 141.95 209.74 141.30 209.87 140.37 C 210.01 139.43 209.36 138.57 208.43 138.43 L 207.45 138.29 C 206.51 138.15 205.65 138.80 205.51 139.73 C 205.37 140.67 206.02 141.53 206.95 141.67 Z M 207.92 141.80 L 208.93 141.96 C 209.86 142.10 210.73 141.47 210.87 140.54 C 211.01 139.61 210.38 138.74 209.45 138.60 L 208.44 138.44 C 207.51 138.30 206.65 138.93 206.50 139.86 C 206.36 140.79 206.99 141.66 207.92 141.80 Z M 208.93 141.95 L 209.79 142.08 C 210.72 142.23 211.58 141.59 211.72 140.67 C 211.86 139.74 211.23 138.88 210.31 138.74 L 209.45 138.60 C 208.52 138.46 207.66 139.10 207.52 140.02 C 207.37 140.94 208.01 141.81 208.93 141.95 Z M 209.78 142.08 L 210.65 142.21 C 211.57 142.36 212.43 141.73 212.58 140.81 C 212.73 139.89 212.10 139.03 211.18 138.88 L 210.31 138.74 C 209.39 138.60 208.53 139.22 208.38 140.14 C 208.24 141.06 208.86 141.93 209.78 142.08 Z M 210.62 142.20 L 211.59 142.37 C 212.51 142.53 213.38 141.92 213.54 141.01 C 213.70 140.09 213.09 139.22 212.17 139.06 L 211.21 138.89 C 210.29 138.73 209.42 139.34 209.26 140.26 C 209.10 141.17 209.71 142.04 210.62 142.20 Z M 211.56 142.36 L 212.67 142.58 C 213.57 142.76 214.46 142.17 214.63 141.26 C 214.81 140.36 214.22 139.47 213.32 139.29 L 212.21 139.07 C 211.30 138.89 210.42 139.48 210.24 140.39 C 210.06 141.30 210.65 142.18 211.56 142.36 Z M 212.63 142.57 L 213.71 142.81 C 214.61 143.01 215.51 142.44 215.70 141.54 C 215.90 140.64 215.33 139.74 214.43 139.55 L 213.35 139.31 C 212.45 139.11 211.56 139.68 211.36 140.58 C 211.16 141.48 211.73 142.37 212.63 142.57 Z M 213.69 142.80 L 214.63 143.02 C 215.52 143.23 216.42 142.68 216.63 141.78 C 216.85 140.89 216.29 139.99 215.40 139.78 L 214.46 139.56 C 213.56 139.34 212.67 139.90 212.45 140.79 C 212.24 141.69 212.79 142.58 213.69 142.80 Z M 214.61 143.01 L 215.60 143.26 C 216.49 143.48 217.39 142.94 217.62 142.05 C 217.84 141.16 217.30 140.26 216.41 140.04 L 215.42 139.79 C 214.53 139.56 213.63 140.11 213.40 141.00 C 213.18 141.89 213.72 142.79 214.61 143.01 Z M 215.58 143.25 L 216.60 143.52 C 217.48 143.75 218.39 143.22 218.62 142.34 C 218.85 141.45 218.32 140.54 217.44 140.31 L 216.43 140.04 C 215.54 139.81 214.63 140.34 214.40 141.23 C 214.17 142.11 214.70 143.02 215.58 143.25 Z M 216.58 143.51 L 217.59 143.79 C 218.47 144.03 219.38 143.51 219.62 142.63 C 219.86 141.75 219.34 140.84 218.46 140.60 L 217.46 140.32 C 216.58 140.08 215.67 140.59 215.42 141.47 C 215.18 142.36 215.70 143.27 216.58 143.51 Z M 217.57 143.78 L 218.54 144.06 C 219.41 144.31 220.33 143.81 220.58 142.93 C 220.84 142.06 220.33 141.14 219.46 140.89 L 218.48 140.61 C 217.61 140.35 216.69 140.86 216.44 141.73 C 216.19 142.61 216.69 143.52 217.57 143.78 Z M 218.51 144.05 L 219.42 144.33 C 220.29 144.59 221.21 144.10 221.48 143.23 C 221.75 142.37 221.26 141.44 220.39 141.18 L 219.48 140.90 C 218.61 140.63 217.69 141.12 217.42 141.99 C 217.16 142.86 217.64 143.78 218.51 144.05 Z M 219.39 144.31 L 220.53 144.69 C 221.39 144.97 222.32 144.51 222.61 143.65 C 222.89 142.79 222.43 141.87 221.57 141.58 L 220.43 141.20 C 219.57 140.91 218.64 141.37 218.35 142.23 C 218.07 143.09 218.53 144.02 219.39 144.31 Z M 220.49 144.66 L 221.49 145.03 C 222.33 145.34 223.27 144.91 223.58 144.07 C 223.89 143.23 223.46 142.29 222.62 141.98 L 221.62 141.61 C 220.78 141.30 219.84 141.73 219.53 142.57 C 219.22 143.41 219.64 144.35 220.49 144.66 Z M 221.44 145.00 L 222.32 145.36 C 223.14 145.70 224.08 145.31 224.42 144.49 C 224.77 143.66 224.37 142.72 223.55 142.38 L 222.67 142.01 C 221.85 141.67 220.90 142.07 220.56 142.89 C 220.22 143.71 220.61 144.66 221.44 145.00 Z M 222.27 145.32 L 223.06 145.69 C 223.86 146.05 224.81 145.70 225.18 144.90 C 225.55 144.09 225.19 143.14 224.39 142.77 L 223.60 142.41 C 222.80 142.05 221.85 142.40 221.48 143.20 C 221.11 144.01 221.46 144.96 222.27 145.32 Z M 223.01 145.65 L 223.85 146.07 C 224.64 146.47 225.59 146.15 225.99 145.36 C 226.38 144.58 226.06 143.62 225.28 143.23 L 224.44 142.81 C 223.65 142.42 222.70 142.73 222.30 143.52 C 221.91 144.30 222.23 145.26 223.01 145.65 Z M 223.78 146.02 L 224.69 146.54 C 225.45 146.98 226.41 146.72 226.85 145.96 C 227.28 145.20 227.02 144.23 226.26 143.80 L 225.35 143.28 C 224.59 142.85 223.63 143.11 223.19 143.87 C 222.76 144.62 223.02 145.59 223.78 146.02 Z M 224.55 146.45 L 225.35 147.02 C 226.05 147.53 227.03 147.37 227.54 146.67 C 228.05 145.96 227.90 144.98 227.19 144.47 L 226.40 143.90 C 225.69 143.39 224.71 143.55 224.20 144.25 C 223.69 144.95 223.85 145.94 224.55 146.45 Z M 225.15 146.84 L 225.80 147.51 C 226.40 148.12 227.40 148.13 228.01 147.53 C 228.63 146.92 228.64 145.93 228.04 145.31 L 227.39 144.65 C 226.78 144.03 225.79 144.02 225.17 144.63 C 224.55 145.23 224.54 146.22 225.15 146.84 Z M 225.59 147.24 L 226.11 148.07 C 226.57 148.81 227.53 149.03 228.27 148.57 C 229.00 148.11 229.22 147.15 228.77 146.42 L 228.24 145.58 C 227.79 144.85 226.82 144.62 226.09 145.08 C 225.36 145.54 225.13 146.50 225.59 147.24 Z M 226.00 147.85 L 226.38 148.77 C 226.71 149.56 227.63 149.94 228.42 149.61 C 229.22 149.28 229.60 148.36 229.26 147.56 L 228.88 146.64 C 228.55 145.85 227.64 145.47 226.84 145.80 C 226.04 146.13 225.66 147.05 226.00 147.85 Z M 226.34 148.66 L 226.63 149.53 C 226.90 150.35 227.78 150.80 228.60 150.53 C 229.42 150.26 229.87 149.37 229.60 148.55 L 229.30 147.67 C 229.03 146.86 228.15 146.41 227.33 146.68 C 226.51 146.95 226.07 147.84 226.34 148.66 Z"
      fill="black"
      fill-rule="nonzero" /><path d="M 82.19 223.48 L 81.14 223.48 C 80.24 223.48 79.51 224.21 79.51 225.11 C 79.51 226.01 80.24 226.74 81.14 226.74 L 82.19 226.74 C 83.10 226.74 83.83 226.01 83.83 225.11 C 83.83 224.21 83.10 223.48 82.19 223.48 Z M 81.14 223.47 L 80.09 223.47 C 79.19 223.47 78.46 224.21 78.46 225.11 C 78.46 226.02 79.19 226.75 80.09 226.75 L 81.14 226.75 C 82.04 226.75 82.78 226.02 82.78 225.11 C 82.78 224.21 82.04 223.47 81.14 223.47 Z M 80.09 223.47 L 79.06 223.47 C 78.16 223.47 77.42 224.21 77.42 225.11 C 77.42 226.02 78.16 226.75 79.06 226.75 L 80.09 226.75 C 81.00 226.75 81.73 226.02 81.73 225.11 C 81.73 224.21 81.00 223.47 80.09 223.47 Z M 79.06 223.47 L 78.06 223.47 C 77.15 223.47 76.42 224.20 76.42 225.11 C 76.42 226.02 77.15 226.76 78.06 226.76 L 79.06 226.76 C 79.97 226.76 80.71 226.02 80.71 225.11 C 80.71 224.20 79.97 223.47 79.06 223.47 Z M 78.06 223.46 L 77.10 223.46 C 76.19 223.46 75.45 224.20 75.45 225.11 C 75.45 226.02 76.19 226.76 77.10 226.76 L 78.06 226.76 C 78.97 226.76 79.71 226.02 79.71 225.11 C 79.71 224.20 78.97 223.46 78.06 223.46 Z M 77.10 223.46 L 76.18 223.46 C 75.27 223.46 74.53 224.20 74.53 225.11 C 74.53 226.02 75.27 226.76 76.18 226.76 L 77.10 226.76 C 78.01 226.76 78.75 226.02 78.75 225.11 C 78.75 224.20 78.01 223.46 77.10 223.46 Z M 76.19 223.44 L 74.76 223.44 C 73.84 223.44 73.09 224.18 73.09 225.10 C 73.08 226.02 73.83 226.77 74.75 226.77 L 76.18 226.78 C 77.10 226.78 77.85 226.04 77.85 225.12 C 77.85 224.20 77.11 223.45 76.19 223.44 Z M 74.81 223.41 L 73.63 223.37 C 72.69 223.34 71.91 224.08 71.88 225.02 C 71.85 225.95 72.58 226.74 73.52 226.77 L 74.70 226.81 C 75.64 226.84 76.42 226.10 76.45 225.16 C 76.48 224.22 75.75 223.44 74.81 223.41 Z M 73.86 223.36 L 73.20 223.25 C 72.26 223.10 71.37 223.73 71.21 224.68 C 71.06 225.62 71.69 226.51 72.64 226.67 L 73.29 226.78 C 74.24 226.94 75.13 226.30 75.29 225.35 C 75.44 224.41 74.80 223.52 73.86 223.36 Z M 74.64 225.38 L 74.69 225.15 C 74.92 224.20 74.34 223.25 73.39 223.02 C 72.44 222.79 71.49 223.37 71.26 224.32 L 71.21 224.55 C 70.98 225.49 71.56 226.45 72.51 226.68 C 73.45 226.91 74.41 226.32 74.64 225.38 Z M 73.69 226.38 L 74.47 226.04 C 75.38 225.64 75.79 224.58 75.40 223.68 C 75.00 222.77 73.94 222.35 73.04 222.75 L 72.26 223.09 C 71.35 223.49 70.94 224.55 71.33 225.45 C 71.73 226.36 72.79 226.77 73.69 226.38 Z M 74.30 226.13 L 75.48 225.76 C 76.44 225.46 76.97 224.43 76.67 223.47 C 76.37 222.52 75.35 221.98 74.39 222.29 L 73.21 222.66 C 72.25 222.96 71.72 223.98 72.02 224.94 C 72.32 225.90 73.34 226.43 74.30 226.13 Z M 75.41 225.80 L 76.59 225.49 C 77.57 225.23 78.16 224.22 77.90 223.24 C 77.64 222.25 76.63 221.67 75.64 221.93 L 74.46 222.24 C 73.48 222.50 72.89 223.51 73.15 224.49 C 73.41 225.48 74.42 226.07 75.41 225.80 Z M 76.52 225.52 L 77.52 225.29 C 78.52 225.07 79.14 224.08 78.92 223.08 C 78.69 222.08 77.70 221.45 76.70 221.67 L 75.71 221.90 C 74.71 222.13 74.08 223.12 74.31 224.12 C 74.53 225.12 75.52 225.75 76.52 225.52 Z M 77.46 225.31 L 78.41 225.13 C 79.42 224.93 80.08 223.96 79.89 222.95 C 79.69 221.94 78.71 221.28 77.70 221.47 L 76.75 221.66 C 75.75 221.85 75.09 222.83 75.28 223.84 C 75.48 224.85 76.45 225.51 77.46 225.31 Z M 78.38 225.14 L 79.34 224.97 C 80.36 224.80 81.04 223.83 80.86 222.82 C 80.69 221.80 79.72 221.12 78.70 221.29 L 77.74 221.46 C 76.72 221.64 76.04 222.60 76.22 223.62 C 76.39 224.63 77.36 225.32 78.38 225.14 Z M 79.33 224.98 L 80.25 224.83 C 81.27 224.66 81.96 223.70 81.79 222.68 C 81.62 221.66 80.66 220.97 79.64 221.13 L 78.72 221.29 C 77.70 221.46 77.01 222.42 77.18 223.44 C 77.34 224.46 78.31 225.15 79.33 224.98 Z M 80.24 224.83 L 81.20 224.68 C 82.22 224.51 82.92 223.55 82.75 222.53 C 82.59 221.50 81.62 220.81 80.60 220.97 L 79.64 221.13 C 78.62 221.30 77.92 222.26 78.09 223.28 C 78.26 224.31 79.22 225.00 80.24 224.83 Z M 81.19 224.68 L 82.20 224.52 C 83.23 224.36 83.93 223.40 83.76 222.37 C 83.60 221.35 82.64 220.65 81.61 220.81 L 80.60 220.97 C 79.58 221.13 78.88 222.10 79.04 223.12 C 79.20 224.15 80.17 224.85 81.19 224.68 Z M 82.19 224.53 L 83.24 224.37 C 84.27 224.21 84.98 223.25 84.82 222.22 C 84.66 221.19 83.69 220.48 82.67 220.64 L 81.62 220.80 C 80.59 220.96 79.88 221.93 80.04 222.95 C 80.20 223.98 81.17 224.69 82.19 224.53 Z M 83.24 224.37 L 84.20 224.23 C 85.23 224.07 85.94 223.11 85.79 222.08 C 85.63 221.05 84.67 220.34 83.64 220.49 L 82.67 220.64 C 81.64 220.79 80.93 221.75 81.09 222.79 C 81.24 223.82 82.20 224.53 83.24 224.37 Z M 84.20 224.23 L 85.15 224.09 C 86.19 223.94 86.90 222.98 86.75 221.94 C 86.59 220.91 85.63 220.19 84.60 220.35 L 83.64 220.49 C 82.61 220.64 81.90 221.60 82.05 222.63 C 82.20 223.67 83.16 224.38 84.20 224.23 Z M 85.15 224.09 L 86.13 223.95 C 87.17 223.80 87.89 222.84 87.73 221.80 C 87.58 220.77 86.62 220.05 85.59 220.20 L 84.60 220.34 C 83.57 220.49 82.85 221.46 83.00 222.49 C 83.15 223.53 84.11 224.24 85.15 224.09 Z M 86.13 223.95 L 87.15 223.80 C 88.18 223.66 88.90 222.69 88.75 221.66 C 88.60 220.62 87.64 219.90 86.60 220.05 L 85.59 220.20 C 84.55 220.35 83.83 221.31 83.98 222.35 C 84.13 223.38 85.10 224.10 86.13 223.95 Z M 87.15 223.81 L 88.19 223.66 C 89.23 223.51 89.95 222.54 89.80 221.51 C 89.65 220.47 88.69 219.75 87.65 219.90 L 86.60 220.05 C 85.57 220.20 84.85 221.16 85.00 222.20 C 85.15 223.24 86.11 223.96 87.15 223.81 Z M 88.19 223.66 L 89.16 223.52 C 90.20 223.37 90.92 222.40 90.77 221.36 C 90.62 220.32 89.66 219.60 88.62 219.75 L 87.65 219.89 C 86.61 220.05 85.89 221.01 86.04 222.05 C 86.19 223.09 87.15 223.81 88.19 223.66 Z M 89.16 223.52 L 90.15 223.38 C 91.19 223.23 91.91 222.26 91.76 221.22 C 91.61 220.18 90.65 219.46 89.61 219.61 L 88.62 219.75 C 87.57 219.90 86.85 220.87 87.00 221.91 C 87.16 222.95 88.12 223.67 89.16 223.52 Z M 90.15 223.38 L 91.15 223.24 C 92.19 223.09 92.92 222.12 92.77 221.07 C 92.61 220.03 91.65 219.31 90.60 219.46 L 89.61 219.60 C 88.56 219.76 87.84 220.72 87.99 221.77 C 88.14 222.81 89.11 223.53 90.15 223.38 Z M 91.15 223.24 L 92.15 223.10 C 93.19 222.94 93.92 221.98 93.77 220.93 C 93.62 219.89 92.65 219.16 91.61 219.31 L 90.61 219.46 C 89.56 219.61 88.84 220.58 88.99 221.62 C 89.14 222.66 90.11 223.39 91.15 223.24 Z M 92.15 223.10 L 93.14 222.96 C 94.19 222.81 94.91 221.84 94.76 220.79 C 94.62 219.75 93.65 219.02 92.60 219.17 L 91.61 219.31 C 90.56 219.46 89.84 220.43 89.98 221.47 C 90.13 222.52 91.10 223.25 92.15 223.10 Z M 93.14 222.96 L 94.15 222.82 C 95.20 222.67 95.93 221.70 95.78 220.65 C 95.63 219.61 94.66 218.88 93.62 219.02 L 92.60 219.17 C 91.56 219.31 90.83 220.28 90.97 221.33 C 91.12 222.38 92.09 223.11 93.14 222.96 Z M 94.14 222.82 L 95.15 222.68 C 96.20 222.54 96.93 221.57 96.79 220.52 C 96.64 219.47 95.67 218.74 94.62 218.88 L 93.62 219.02 C 92.57 219.17 91.84 220.13 91.98 221.18 C 92.13 222.23 93.09 222.97 94.14 222.82 Z M 95.14 222.69 L 96.13 222.55 C 97.18 222.41 97.92 221.45 97.78 220.39 C 97.64 219.34 96.67 218.61 95.62 218.75 L 94.63 218.88 C 93.58 219.02 92.84 219.99 92.98 221.04 C 93.12 222.09 94.09 222.83 95.14 222.69 Z M 96.12 222.56 L 97.10 222.43 C 98.16 222.29 98.90 221.33 98.76 220.27 C 98.63 219.22 97.66 218.48 96.61 218.62 L 95.63 218.74 C 94.57 218.88 93.83 219.85 93.97 220.90 C 94.10 221.95 95.07 222.69 96.12 222.56 Z M 97.09 222.43 L 98.07 222.31 C 99.13 222.18 99.87 221.22 99.74 220.16 C 99.61 219.11 98.65 218.36 97.59 218.49 L 96.62 218.61 C 95.56 218.74 94.81 219.71 94.94 220.76 C 95.08 221.82 96.04 222.57 97.09 222.43 Z M 98.06 222.32 L 99.05 222.20 C 100.10 222.07 100.86 221.11 100.73 220.05 C 100.60 218.99 99.64 218.24 98.59 218.37 L 97.60 218.49 C 96.54 218.61 95.79 219.57 95.92 220.63 C 96.04 221.69 97.00 222.44 98.06 222.32 Z M 99.04 222.20 L 100.03 222.09 C 101.09 221.96 101.85 221.01 101.72 219.95 C 101.60 218.89 100.64 218.13 99.58 218.25 L 98.59 218.36 C 97.53 218.49 96.77 219.44 96.90 220.50 C 97.02 221.56 97.98 222.32 99.04 222.20 Z M 100.02 222.09 L 101.01 221.98 C 102.07 221.86 102.84 220.90 102.72 219.84 C 102.60 218.78 101.64 218.02 100.58 218.14 L 99.59 218.25 C 98.53 218.36 97.77 219.32 97.88 220.38 C 98.00 221.44 98.96 222.21 100.02 222.09 Z M 101.01 221.98 L 102.00 221.87 C 103.07 221.76 103.83 220.80 103.72 219.74 C 103.60 218.68 102.65 217.91 101.58 218.02 L 100.59 218.13 C 99.53 218.25 98.76 219.20 98.87 220.27 C 98.99 221.33 99.95 222.10 101.01 221.98 Z M 102.00 221.87 L 103.00 221.77 C 104.06 221.65 104.83 220.70 104.72 219.63 C 104.60 218.57 103.65 217.80 102.59 217.91 L 101.59 218.02 C 100.52 218.14 99.75 219.09 99.87 220.15 C 99.98 221.22 100.94 221.99 102.00 221.87 Z M 103.00 221.77 L 103.98 221.67 C 105.04 221.56 105.82 220.60 105.70 219.53 C 105.59 218.46 104.63 217.69 103.56 217.80 L 102.59 217.91 C 101.52 218.02 100.75 218.98 100.86 220.05 C 100.97 221.11 101.93 221.89 103.00 221.77 Z M 103.97 221.68 L 104.95 221.58 C 106.03 221.46 106.80 220.50 106.69 219.43 C 106.58 218.36 105.61 217.58 104.54 217.69 L 103.56 217.79 C 102.49 217.91 101.71 218.87 101.83 219.94 C 101.94 221.01 102.90 221.79 103.97 221.68 Z M 104.95 221.59 L 105.94 221.48 C 107.02 221.37 107.80 220.40 107.69 219.33 C 107.58 218.25 106.61 217.46 105.53 217.58 L 104.54 217.68 C 103.47 217.79 102.68 218.76 102.80 219.84 C 102.91 220.92 103.87 221.70 104.95 221.59 Z M 105.94 221.49 L 106.94 221.39 C 108.02 221.28 108.81 220.31 108.70 219.22 C 108.59 218.14 107.62 217.35 106.54 217.46 L 105.53 217.57 C 104.45 217.68 103.66 218.65 103.77 219.73 C 103.88 220.82 104.85 221.60 105.94 221.49 Z M 106.94 221.40 L 107.96 221.30 C 109.05 221.19 109.84 220.21 109.73 219.12 C 109.62 218.03 108.65 217.24 107.56 217.35 L 106.54 217.45 C 105.45 217.56 104.65 218.54 104.76 219.63 C 104.88 220.72 105.85 221.51 106.94 221.40 Z M 107.95 221.30 L 108.92 221.21 C 110.02 221.10 110.82 220.12 110.71 219.03 C 110.60 217.93 109.62 217.14 108.53 217.24 L 107.56 217.34 C 106.46 217.45 105.66 218.43 105.77 219.52 C 105.88 220.62 106.86 221.41 107.95 221.30 Z M 108.92 221.21 L 109.88 221.12 C 110.98 221.01 111.78 220.04 111.67 218.94 C 111.57 217.84 110.59 217.04 109.49 217.15 L 108.53 217.24 C 107.44 217.35 106.63 218.32 106.74 219.42 C 106.85 220.52 107.82 221.32 108.92 221.21 Z M 109.87 221.13 L 110.85 221.03 C 111.95 220.93 112.76 219.95 112.66 218.85 C 112.55 217.75 111.58 216.95 110.48 217.05 L 109.50 217.14 C 108.40 217.24 107.59 218.22 107.69 219.32 C 107.80 220.42 108.77 221.23 109.87 221.13 Z M 110.84 221.04 L 111.84 220.95 C 112.95 220.85 113.76 219.88 113.66 218.77 C 113.56 217.67 112.59 216.85 111.49 216.95 L 110.48 217.04 C 109.38 217.14 108.57 218.12 108.67 219.22 C 108.77 220.32 109.74 221.14 110.84 221.04 Z M 111.84 220.95 L 112.86 220.87 C 113.97 220.77 114.79 219.80 114.70 218.69 C 114.60 217.59 113.63 216.77 112.52 216.86 L 111.50 216.95 C 110.39 217.04 109.57 218.02 109.66 219.12 C 109.76 220.23 110.73 221.05 111.84 220.95 Z M 112.85 220.87 L 113.90 220.79 C 115.01 220.70 115.84 219.73 115.75 218.62 C 115.66 217.51 114.69 216.68 113.58 216.77 L 112.53 216.86 C 111.42 216.94 110.59 217.91 110.68 219.02 C 110.77 220.13 111.74 220.96 112.85 220.87 Z M 113.89 220.80 L 114.81 220.73 C 115.92 220.64 116.76 219.68 116.67 218.56 C 116.59 217.45 115.62 216.61 114.51 216.70 L 113.59 216.77 C 112.48 216.85 111.64 217.82 111.72 218.93 C 111.81 220.04 112.78 220.88 113.89 220.80 Z M 114.80 220.73 L 115.74 220.67 C 116.86 220.59 117.70 219.62 117.62 218.50 C 117.55 217.39 116.58 216.55 115.46 216.62 L 114.52 216.69 C 113.40 216.77 112.56 217.74 112.64 218.85 C 112.72 219.97 113.68 220.81 114.80 220.73 Z M 115.74 220.67 L 116.71 220.61 C 117.83 220.53 118.68 219.56 118.60 218.44 C 118.53 217.32 117.56 216.48 116.44 216.55 L 115.47 216.62 C 114.35 216.69 113.50 217.66 113.57 218.78 C 113.65 219.90 114.62 220.75 115.74 220.67 Z M 116.70 220.62 L 117.70 220.55 C 118.83 220.48 119.68 219.51 119.61 218.38 C 119.53 217.26 118.56 216.41 117.44 216.48 L 116.44 216.55 C 115.32 216.62 114.47 217.59 114.54 218.71 C 114.61 219.84 115.58 220.69 116.70 220.62 Z M 117.70 220.56 L 118.73 220.49 C 119.86 220.42 120.72 219.45 120.64 218.32 C 120.57 217.19 119.60 216.34 118.47 216.41 L 117.44 216.48 C 116.32 216.55 115.46 217.52 115.53 218.65 C 115.60 219.77 116.58 220.63 117.70 220.56 Z M 118.73 220.50 L 119.80 220.43 C 120.93 220.36 121.79 219.38 121.72 218.25 C 121.65 217.12 120.67 216.27 119.54 216.34 L 118.48 216.40 C 117.34 216.47 116.49 217.45 116.56 218.58 C 116.63 219.71 117.60 220.57 118.73 220.50 Z M 119.80 220.44 L 120.83 220.37 C 121.96 220.30 122.83 219.32 122.75 218.19 C 122.68 217.06 121.71 216.19 120.57 216.27 L 119.54 216.33 C 118.41 216.40 117.55 217.38 117.62 218.51 C 117.69 219.65 118.67 220.51 119.80 220.44 Z M 120.83 220.38 L 121.79 220.32 C 122.92 220.24 123.79 219.26 123.71 218.13 C 123.64 216.99 122.66 216.13 121.53 216.20 L 120.57 216.26 C 119.43 216.33 118.57 217.31 118.64 218.45 C 118.72 219.58 119.69 220.45 120.83 220.38 Z M 121.79 220.32 L 122.76 220.26 C 123.90 220.19 124.77 219.21 124.70 218.07 C 124.62 216.93 123.64 216.06 122.50 216.13 L 121.53 216.19 C 120.39 216.27 119.52 217.25 119.59 218.39 C 119.66 219.53 120.65 220.39 121.79 220.32 Z M 122.76 220.27 L 123.75 220.20 C 124.90 220.13 125.77 219.15 125.70 218.01 C 125.62 216.86 124.64 216.00 123.50 216.07 L 122.50 216.13 C 121.36 216.20 120.49 217.18 120.56 218.32 C 120.63 219.47 121.62 220.34 122.76 220.27 Z M 123.75 220.21 L 124.76 220.15 C 125.91 220.08 126.78 219.09 126.71 217.95 C 126.64 216.80 125.66 215.93 124.51 216.00 L 123.50 216.06 C 122.36 216.13 121.48 217.11 121.55 218.26 C 121.62 219.41 122.61 220.28 123.75 220.21 Z M 124.76 220.15 L 125.77 220.09 C 126.92 220.03 127.80 219.04 127.73 217.89 C 127.67 216.75 126.68 215.87 125.53 215.94 L 124.51 215.99 C 123.37 216.06 122.49 217.05 122.56 218.20 C 122.62 219.34 123.61 220.22 124.76 220.15 Z M 125.77 220.10 L 126.79 220.04 C 127.94 219.98 128.83 218.99 128.76 217.84 C 128.70 216.69 127.71 215.81 126.56 215.87 L 125.54 215.93 C 124.39 215.99 123.50 216.98 123.57 218.13 C 123.63 219.28 124.62 220.16 125.77 220.10 Z M 126.79 220.05 L 127.81 219.99 C 128.97 219.93 129.85 218.95 129.79 217.79 C 129.73 216.64 128.75 215.75 127.59 215.81 L 126.57 215.87 C 125.41 215.93 124.53 216.91 124.59 218.07 C 124.65 219.22 125.63 220.11 126.79 220.05 Z M 127.81 220.00 L 128.82 219.95 C 129.98 219.89 130.87 218.91 130.81 217.75 C 130.76 216.59 129.77 215.70 128.62 215.76 L 127.60 215.81 C 126.44 215.86 125.55 216.85 125.61 218.01 C 125.66 219.16 126.65 220.06 127.81 220.00 Z M 128.81 219.96 L 129.82 219.91 C 130.98 219.86 131.88 218.87 131.83 217.71 C 131.77 216.55 130.79 215.65 129.63 215.71 L 128.62 215.75 C 127.46 215.81 126.56 216.79 126.62 217.95 C 126.67 219.11 127.65 220.01 128.81 219.96 Z M 129.81 219.91 L 130.82 219.87 C 131.98 219.82 132.88 218.84 132.83 217.68 C 132.78 216.51 131.80 215.61 130.64 215.66 L 129.64 215.70 C 128.47 215.75 127.57 216.73 127.62 217.90 C 127.67 219.06 128.65 219.96 129.81 219.91 Z M 130.81 219.88 L 131.81 219.84 C 132.98 219.79 133.88 218.81 133.84 217.64 C 133.79 216.48 132.81 215.57 131.64 215.62 L 130.64 215.66 C 129.48 215.70 128.57 216.68 128.62 217.85 C 128.66 219.01 129.65 219.92 130.81 219.88 Z M 131.81 219.84 L 132.80 219.80 C 133.97 219.76 134.88 218.78 134.84 217.61 C 134.80 216.44 133.82 215.53 132.65 215.57 L 131.65 215.61 C 130.48 215.65 129.57 216.64 129.61 217.81 C 129.66 218.97 130.64 219.89 131.81 219.84 Z M 132.80 219.81 L 133.80 219.77 C 134.97 219.73 135.88 218.75 135.84 217.58 C 135.80 216.41 134.82 215.49 133.65 215.53 L 132.65 215.57 C 131.48 215.61 130.56 216.59 130.61 217.76 C 130.65 218.94 131.63 219.85 132.80 219.81 Z M 133.79 219.78 L 134.79 219.74 C 135.96 219.70 136.88 218.72 136.84 217.55 C 136.80 216.37 135.82 215.45 134.64 215.50 L 133.65 215.53 C 132.48 215.57 131.56 216.55 131.60 217.73 C 131.64 218.90 132.62 219.82 133.79 219.78 Z M 134.79 219.75 L 135.78 219.72 C 136.96 219.68 137.88 218.69 137.84 217.51 C 137.80 216.34 136.81 215.42 135.64 215.46 L 134.65 215.49 C 133.47 215.53 132.55 216.52 132.59 217.69 C 132.63 218.87 133.61 219.79 134.79 219.75 Z M 135.78 219.72 L 136.78 219.69 C 137.96 219.65 138.88 218.66 138.85 217.48 C 138.81 216.30 137.82 215.38 136.64 215.42 L 135.64 215.45 C 134.46 215.49 133.54 216.48 133.58 217.66 C 133.62 218.84 134.60 219.76 135.78 219.72 Z M 136.78 219.69 L 137.79 219.66 C 138.97 219.62 139.90 218.63 139.86 217.45 C 139.82 216.27 138.83 215.34 137.65 215.38 L 136.64 215.42 C 135.46 215.45 134.54 216.44 134.57 217.62 C 134.61 218.80 135.60 219.73 136.78 219.69 Z M 137.79 219.66 L 138.80 219.63 C 139.98 219.59 140.91 218.60 140.87 217.42 C 140.83 216.23 139.84 215.31 138.66 215.35 L 137.65 215.38 C 136.47 215.42 135.54 216.41 135.58 217.59 C 135.62 218.77 136.61 219.70 137.79 219.66 Z M 138.79 219.63 L 139.80 219.60 C 140.98 219.56 141.91 218.57 141.87 217.38 C 141.84 216.20 140.85 215.27 139.66 215.31 L 138.66 215.34 C 137.47 215.38 136.54 216.37 136.58 217.56 C 136.62 218.74 137.61 219.67 138.79 219.63 Z M 139.80 219.60 L 140.80 219.57 C 141.99 219.53 142.92 218.54 142.88 217.36 C 142.84 216.17 141.85 215.24 140.66 215.27 L 139.66 215.30 C 138.48 215.34 137.54 216.33 137.58 217.52 C 137.62 218.71 138.61 219.64 139.80 219.60 Z M 140.80 219.58 L 141.79 219.55 C 142.98 219.51 143.92 218.52 143.88 217.33 C 143.85 216.14 142.85 215.20 141.66 215.24 L 140.67 215.27 C 139.48 215.31 138.54 216.30 138.58 217.49 C 138.61 218.68 139.61 219.61 140.80 219.58 Z M 141.79 219.55 L 142.78 219.52 C 143.98 219.49 144.91 218.49 144.88 217.30 C 144.84 216.11 143.85 215.17 142.66 215.21 L 141.67 215.24 C 140.47 215.27 139.54 216.26 139.57 217.45 C 139.61 218.65 140.60 219.58 141.79 219.55 Z M 142.78 219.52 L 143.77 219.50 C 144.96 219.47 145.90 218.47 145.87 217.28 C 145.84 216.08 144.84 215.14 143.65 215.18 L 142.66 215.20 C 141.47 215.24 140.53 216.23 140.56 217.42 C 140.59 218.62 141.59 219.56 142.78 219.52 Z M 143.76 219.50 L 144.77 219.48 C 145.96 219.45 146.91 218.45 146.88 217.26 C 146.85 216.06 145.85 215.12 144.66 215.15 L 143.65 215.17 C 142.46 215.20 141.51 216.20 141.54 217.39 C 141.57 218.59 142.57 219.53 143.76 219.50 Z M 144.76 219.48 L 145.77 219.46 C 146.97 219.43 147.92 218.44 147.89 217.24 C 147.86 216.04 146.87 215.09 145.67 215.12 L 144.66 215.14 C 143.46 215.17 142.52 216.16 142.54 217.36 C 142.57 218.56 143.56 219.51 144.76 219.48 Z M 145.77 219.46 L 146.77 219.44 C 147.97 219.41 148.92 218.42 148.89 217.22 C 148.87 216.02 147.87 215.07 146.67 215.09 L 145.67 215.12 C 144.47 215.14 143.52 216.14 143.55 217.34 C 143.57 218.54 144.57 219.49 145.77 219.46 Z M 146.77 219.44 L 147.76 219.42 C 148.97 219.40 149.92 218.40 149.90 217.20 C 149.87 216.00 148.88 215.05 147.68 215.07 L 146.68 215.09 C 145.48 215.11 144.52 216.11 144.55 217.31 C 144.57 218.51 145.56 219.47 146.77 219.44 Z M 147.76 219.43 L 148.76 219.41 C 149.96 219.38 150.92 218.39 150.90 217.18 C 150.87 215.98 149.88 215.02 148.67 215.05 L 147.68 215.07 C 146.47 215.09 145.52 216.08 145.54 217.29 C 145.56 218.49 146.56 219.45 147.76 219.43 Z M 148.76 219.41 L 149.75 219.39 C 150.96 219.37 151.92 218.37 151.89 217.17 C 151.87 215.96 150.88 215.00 149.67 215.03 L 148.68 215.04 C 147.47 215.07 146.51 216.06 146.53 217.27 C 146.56 218.47 147.55 219.43 148.76 219.41 Z M 149.75 219.40 L 150.75 219.38 C 151.95 219.36 152.91 218.36 152.89 217.15 C 152.87 215.94 151.88 214.98 150.67 215.00 L 149.67 215.02 C 148.46 215.04 147.50 216.04 147.52 217.25 C 147.55 218.46 148.54 219.42 149.75 219.40 Z M 150.74 219.38 L 151.74 219.36 C 152.95 219.34 153.91 218.34 153.89 217.14 C 153.87 215.93 152.87 214.96 151.66 214.98 L 150.67 215.00 C 149.46 215.02 148.49 216.02 148.52 217.23 C 148.54 218.44 149.53 219.40 150.74 219.38 Z M 151.74 219.37 L 152.73 219.35 C 153.94 219.33 154.90 218.33 154.88 217.12 C 154.86 215.91 153.86 214.94 152.65 214.96 L 151.66 214.98 C 150.45 215.00 149.49 216.00 149.51 217.21 C 149.53 218.42 150.53 219.39 151.74 219.37 Z M 152.73 219.35 L 153.72 219.33 C 154.93 219.31 155.89 218.31 155.87 217.10 C 155.85 215.89 154.85 214.93 153.64 214.95 L 152.65 214.96 C 151.44 214.99 150.48 215.98 150.50 217.19 C 150.52 218.40 151.52 219.37 152.73 219.35 Z M 153.72 219.33 L 154.71 219.31 C 155.92 219.29 156.88 218.29 156.86 217.08 C 156.84 215.87 155.84 214.91 154.63 214.93 L 153.64 214.95 C 152.43 214.97 151.47 215.97 151.49 217.18 C 151.51 218.39 152.51 219.35 153.72 219.33 Z M 154.71 219.31 L 155.71 219.30 C 156.92 219.27 157.88 218.28 157.86 217.07 C 157.84 215.86 156.84 214.89 155.63 214.91 L 154.63 214.93 C 153.42 214.95 152.46 215.95 152.48 217.16 C 152.50 218.37 153.50 219.33 154.71 219.31 Z M 155.71 219.29 L 156.71 219.28 C 157.92 219.26 158.88 218.26 158.86 217.05 C 158.84 215.84 157.84 214.88 156.63 214.90 L 155.63 214.91 C 154.42 214.94 153.46 215.93 153.48 217.14 C 153.50 218.35 154.50 219.32 155.71 219.29 Z M 156.71 219.28 L 157.71 219.26 C 158.92 219.24 159.89 218.24 159.87 217.03 C 159.85 215.82 158.85 214.86 157.64 214.88 L 156.63 214.90 C 155.42 214.92 154.46 215.92 154.48 217.12 C 154.50 218.33 155.50 219.30 156.71 219.28 Z M 157.71 219.26 L 158.73 219.24 C 159.94 219.22 160.90 218.23 160.88 217.02 C 160.86 215.81 159.86 214.84 158.65 214.86 L 157.64 214.88 C 156.43 214.90 155.47 215.90 155.49 217.11 C 155.51 218.32 156.50 219.28 157.71 219.26 Z M 158.73 219.24 L 159.72 219.23 C 160.93 219.20 161.90 218.21 161.88 217.00 C 161.85 215.79 160.86 214.83 159.65 214.85 L 158.65 214.86 C 157.44 214.89 156.48 215.88 156.50 217.09 C 156.52 218.30 157.52 219.26 158.73 219.24 Z M 159.72 219.22 L 160.68 219.21 C 161.89 219.19 162.85 218.19 162.83 216.98 C 162.81 215.78 161.82 214.81 160.61 214.83 L 159.65 214.85 C 158.44 214.87 157.48 215.86 157.50 217.07 C 157.52 218.28 158.51 219.24 159.72 219.22 Z M 160.68 219.21 L 161.65 219.19 C 162.85 219.17 163.82 218.18 163.80 216.97 C 163.78 215.76 162.78 214.80 161.57 214.82 L 160.61 214.83 C 159.40 214.85 158.44 215.85 158.46 217.06 C 158.48 218.26 159.47 219.23 160.68 219.21 Z M 161.64 219.19 L 162.62 219.18 C 163.83 219.16 164.79 218.16 164.77 216.96 C 164.75 215.75 163.76 214.78 162.55 214.80 L 161.58 214.82 C 160.37 214.84 159.40 215.83 159.42 217.04 C 159.44 218.25 160.44 219.21 161.64 219.19 Z M 162.62 219.18 L 163.61 219.16 C 164.82 219.14 165.78 218.15 165.76 216.94 C 165.74 215.74 164.75 214.77 163.54 214.79 L 162.55 214.80 C 161.35 214.82 160.38 215.81 160.40 217.02 C 160.42 218.23 161.41 219.19 162.62 219.18 Z M 163.60 219.16 L 164.61 219.15 C 165.82 219.13 166.78 218.14 166.77 216.93 C 166.75 215.73 165.76 214.76 164.55 214.78 L 163.55 214.79 C 162.34 214.81 161.37 215.80 161.39 217.00 C 161.41 218.21 162.40 219.18 163.60 219.16 Z M 164.61 219.15 L 165.63 219.14 C 166.83 219.12 167.80 218.13 167.79 216.92 C 167.77 215.72 166.78 214.75 165.58 214.77 L 164.55 214.78 C 163.35 214.79 162.38 215.78 162.39 216.99 C 162.41 218.20 163.40 219.16 164.61 219.15 Z M 165.62 219.14 L 166.66 219.12 C 167.87 219.11 168.84 218.12 168.83 216.92 C 168.81 215.71 167.83 214.74 166.62 214.76 L 165.58 214.77 C 164.37 214.78 163.40 215.77 163.42 216.97 C 163.43 218.18 164.42 219.15 165.62 219.14 Z M 166.66 219.12 L 167.72 219.12 C 168.92 219.11 169.89 218.12 169.88 216.91 C 169.87 215.71 168.89 214.74 167.68 214.75 L 166.62 214.76 C 165.42 214.77 164.45 215.75 164.46 216.96 C 164.47 218.16 165.45 219.13 166.66 219.12 Z M 167.71 219.11 L 168.70 219.11 C 169.91 219.10 170.88 218.12 170.87 216.91 C 170.86 215.70 169.88 214.73 168.67 214.74 L 167.69 214.75 C 166.48 214.76 165.51 215.74 165.52 216.95 C 165.52 218.15 166.51 219.12 167.71 219.11 Z M 168.70 219.11 L 169.70 219.10 C 170.90 219.09 171.88 218.11 171.87 216.91 C 171.86 215.70 170.88 214.73 169.68 214.74 L 168.68 214.74 C 167.47 214.75 166.50 215.73 166.51 216.94 C 166.51 218.14 167.49 219.11 168.70 219.11 Z M 169.70 219.10 L 170.71 219.10 C 171.91 219.09 172.88 218.11 172.88 216.91 C 172.88 215.70 171.90 214.73 170.69 214.74 L 169.68 214.74 C 168.48 214.74 167.51 215.72 167.51 216.93 C 167.51 218.13 168.49 219.10 169.70 219.10 Z M 170.71 219.09 L 171.72 219.09 C 172.93 219.09 173.90 218.11 173.89 216.91 C 173.89 215.70 172.91 214.73 171.71 214.74 L 170.69 214.74 C 169.49 214.74 168.52 215.72 168.52 216.92 C 168.53 218.12 169.50 219.10 170.71 219.09 Z M 171.72 219.09 L 172.74 219.09 C 173.94 219.08 174.91 218.11 174.91 216.91 C 174.91 215.71 173.93 214.73 172.73 214.74 L 171.71 214.74 C 170.51 214.74 169.54 215.72 169.54 216.92 C 169.54 218.12 170.52 219.09 171.72 219.09 Z M 172.74 219.09 L 173.75 219.08 C 174.95 219.08 175.92 218.11 175.92 216.91 C 175.92 215.71 174.94 214.74 173.74 214.74 L 172.73 214.74 C 171.53 214.74 170.56 215.71 170.56 216.91 C 170.56 218.11 171.54 219.09 172.74 219.09 Z M 173.75 219.08 L 174.75 219.08 C 175.95 219.08 176.92 218.11 176.92 216.91 C 176.92 215.71 175.94 214.74 174.74 214.74 L 173.74 214.74 C 172.54 214.74 171.57 215.71 171.57 216.91 C 171.57 218.11 172.55 219.08 173.75 219.08 Z M 174.75 219.08 L 175.73 219.08 C 176.93 219.08 177.90 218.11 177.90 216.91 C 177.90 215.71 176.93 214.74 175.73 214.74 L 174.75 214.74 C 173.55 214.74 172.58 215.71 172.58 216.91 C 172.58 218.11 173.55 219.08 174.75 219.08 Z M 175.73 219.08 L 176.70 219.08 C 177.90 219.08 178.87 218.11 178.87 216.91 C 178.87 215.71 177.90 214.74 176.70 214.74 L 175.73 214.74 C 174.54 214.74 173.57 215.71 173.57 216.91 C 173.57 218.11 174.54 219.08 175.73 219.08 Z M 176.70 219.07 L 177.78 219.07 C 178.98 219.07 179.95 218.11 179.95 216.91 C 179.95 215.71 178.98 214.74 177.78 214.74 L 176.70 214.74 C 175.51 214.74 174.54 215.71 174.54 216.91 C 174.54 218.11 175.51 219.07 176.70 219.07 Z M 177.78 219.07 L 178.84 219.07 C 180.03 219.07 181.00 218.10 181.00 216.91 C 181.00 215.72 180.03 214.75 178.84 214.75 L 177.78 214.75 C 176.59 214.75 175.62 215.72 175.62 216.91 C 175.62 218.10 176.59 219.07 177.78 219.07 Z M 178.84 219.07 L 179.86 219.07 C 181.05 219.07 182.02 218.10 182.02 216.91 C 182.02 215.72 181.05 214.75 179.86 214.75 L 178.84 214.75 C 177.64 214.75 176.68 215.72 176.68 216.91 C 176.68 218.10 177.64 219.07 178.84 219.07 Z M 179.86 219.06 L 180.87 219.06 C 182.05 219.06 183.02 218.10 183.02 216.91 C 183.02 215.72 182.05 214.76 180.87 214.76 L 179.86 214.76 C 178.67 214.76 177.71 215.72 177.71 216.91 C 177.71 218.10 178.67 219.06 179.86 219.06 Z M 180.87 219.06 L 181.85 219.06 C 183.03 219.06 184.00 218.10 184.00 216.91 C 184.00 215.72 183.03 214.76 181.85 214.76 L 180.87 214.76 C 179.68 214.76 178.72 215.72 178.72 216.91 C 178.72 218.10 179.68 219.06 180.87 219.06 Z M 181.85 219.06 L 182.81 219.06 C 184.00 219.06 184.96 218.09 184.96 216.91 C 184.96 215.72 184.00 214.76 182.81 214.76 L 181.85 214.76 C 180.66 214.76 179.70 215.72 179.70 216.91 C 179.70 218.09 180.66 219.06 181.85 219.06 Z M 182.81 219.05 L 183.76 219.05 C 184.94 219.05 185.90 218.09 185.90 216.91 C 185.90 215.73 184.94 214.77 183.76 214.77 L 182.81 214.77 C 181.63 214.77 180.67 215.73 180.67 216.91 C 180.67 218.09 181.63 219.05 182.81 219.05 Z M 183.76 219.05 L 184.71 219.05 C 185.89 219.05 186.84 218.09 186.84 216.91 C 186.84 215.73 185.89 214.77 184.71 214.77 L 183.76 214.77 C 182.58 214.77 181.62 215.73 181.62 216.91 C 181.62 218.09 182.58 219.05 183.76 219.05 Z M 184.71 219.04 L 185.76 219.04 C 186.94 219.04 187.89 218.09 187.89 216.91 C 187.89 215.73 186.94 214.78 185.76 214.78 L 184.71 214.78 C 183.53 214.78 182.57 215.73 182.57 216.91 C 182.57 218.09 183.53 219.04 184.71 219.04 Z M 185.76 219.04 L 186.79 219.04 C 187.97 219.04 188.92 218.09 188.92 216.91 C 188.92 215.73 187.97 214.78 186.79 214.78 L 185.76 214.78 C 184.58 214.78 183.63 215.73 183.63 216.91 C 183.63 218.09 184.58 219.04 185.76 219.04 Z M 186.79 219.03 L 187.81 219.03 C 188.99 219.03 189.94 218.08 189.94 216.91 C 189.94 215.74 188.99 214.78 187.81 214.78 L 186.79 214.78 C 185.62 214.78 184.67 215.74 184.67 216.91 C 184.67 218.08 185.62 219.03 186.79 219.03 Z M 187.81 219.03 L 188.81 219.03 C 189.99 219.03 190.93 218.08 190.93 216.91 C 190.93 215.74 189.99 214.79 188.81 214.79 L 187.81 214.79 C 186.64 214.79 185.69 215.74 185.69 216.91 C 185.69 218.08 186.64 219.03 187.81 219.03 Z M 188.81 219.02 L 189.79 219.02 C 190.96 219.02 191.91 218.08 191.91 216.91 C 191.91 215.74 190.96 214.79 189.79 214.79 L 188.81 214.79 C 187.65 214.79 186.70 215.74 186.70 216.91 C 186.70 218.08 187.65 219.02 188.81 219.02 Z M 189.79 219.02 L 190.75 219.02 C 191.92 219.02 192.86 218.08 192.86 216.91 C 192.86 215.74 191.92 214.80 190.75 214.80 L 189.79 214.80 C 188.63 214.80 187.68 215.74 187.68 216.91 C 187.68 218.08 188.63 219.02 189.79 219.02 Z M 190.75 219.02 L 191.71 219.02 C 192.88 219.02 193.82 218.07 193.82 216.91 C 193.82 215.75 192.88 214.80 191.71 214.80 L 190.75 214.80 C 189.59 214.80 188.65 215.75 188.65 216.91 C 188.65 218.07 189.59 219.02 190.75 219.02 Z M 191.71 219.01 L 192.78 219.01 C 193.94 219.01 194.88 218.07 194.88 216.91 C 194.88 215.75 193.94 214.81 192.78 214.81 L 191.71 214.81 C 190.55 214.81 189.61 215.75 189.61 216.91 C 189.61 218.07 190.55 219.01 191.71 219.01 Z M 192.78 219.00 L 193.81 219.00 C 194.97 219.00 195.90 218.07 195.90 216.91 C 195.90 215.75 194.97 214.82 193.81 214.82 L 192.78 214.82 C 191.62 214.82 190.68 215.75 190.68 216.91 C 190.68 218.07 191.62 219.00 192.78 219.00 Z M 193.81 219.00 L 194.81 219.00 C 195.97 219.00 196.90 218.06 196.90 216.91 C 196.90 215.76 195.97 214.82 194.81 214.82 L 193.81 214.82 C 192.66 214.82 191.72 215.76 191.72 216.91 C 191.72 218.06 192.66 219.00 193.81 219.00 Z M 194.81 218.99 L 195.79 218.99 C 196.94 218.99 197.87 218.06 197.87 216.91 C 197.87 215.76 196.94 214.83 195.79 214.83 L 194.81 214.83 C 193.67 214.83 192.73 215.76 192.73 216.91 C 192.73 218.06 193.67 218.99 194.81 218.99 Z M 195.79 218.98 L 196.75 218.98 C 197.89 218.98 198.82 218.05 198.82 216.91 C 198.82 215.76 197.89 214.84 196.75 214.84 L 195.79 214.84 C 194.65 214.84 193.72 215.76 193.72 216.91 C 193.72 218.05 194.65 218.98 195.79 218.98 Z M 196.75 218.98 L 197.71 218.98 C 198.85 218.98 199.78 218.05 199.78 216.91 C 199.78 215.77 198.85 214.84 197.71 214.84 L 196.75 214.84 C 195.61 214.84 194.68 215.77 194.68 216.91 C 194.68 218.05 195.61 218.98 196.75 218.98 Z M 197.71 218.97 L 198.73 218.97 C 199.87 218.97 200.79 218.05 200.79 216.91 C 200.79 215.77 199.87 214.85 198.73 214.85 L 197.71 214.85 C 196.57 214.85 195.65 215.77 195.65 216.91 C 195.65 218.05 196.57 218.97 197.71 218.97 Z M 198.72 218.96 L 199.73 218.97 C 200.86 218.97 201.78 218.06 201.79 216.92 C 201.79 215.79 200.88 214.87 199.74 214.86 L 198.74 214.86 C 197.61 214.85 196.68 215.77 196.68 216.90 C 196.67 218.04 197.59 218.96 198.72 218.96 Z M 199.71 218.96 L 200.71 218.97 C 201.84 218.98 202.76 218.08 202.77 216.95 C 202.78 215.82 201.88 214.89 200.75 214.88 L 199.76 214.87 C 198.63 214.86 197.70 215.76 197.69 216.89 C 197.68 218.02 198.58 218.95 199.71 218.96 Z M 200.69 218.96 L 201.67 218.98 C 202.80 219.00 203.73 218.11 203.75 216.98 C 203.77 215.86 202.88 214.93 201.75 214.91 L 200.77 214.89 C 199.64 214.87 198.71 215.76 198.69 216.89 C 198.67 218.01 199.56 218.94 200.69 218.96 Z M 201.65 218.97 L 202.64 219.00 C 203.76 219.04 204.69 218.16 204.73 217.04 C 204.76 215.92 203.88 214.98 202.76 214.95 L 201.78 214.92 C 200.66 214.88 199.72 215.76 199.69 216.88 C 199.65 218.00 200.53 218.94 201.65 218.97 Z M 202.61 219.00 L 203.58 219.04 C 204.70 219.09 205.64 218.22 205.69 217.11 C 205.74 215.99 204.88 215.05 203.76 215.00 L 202.79 214.95 C 201.67 214.90 200.73 215.77 200.68 216.88 C 200.63 218.00 201.49 218.95 202.61 219.00 Z M 203.56 219.03 L 204.54 219.09 C 205.65 219.15 206.60 218.30 206.67 217.19 C 206.73 216.07 205.88 215.12 204.77 215.06 L 203.79 215.00 C 202.67 214.94 201.72 215.79 201.66 216.90 C 201.59 218.02 202.44 218.97 203.56 219.03 Z M 204.51 219.08 L 205.50 219.15 C 206.61 219.23 207.58 218.39 207.65 217.28 C 207.73 216.17 206.89 215.21 205.78 215.13 L 204.79 215.06 C 203.68 214.99 202.72 215.82 202.64 216.94 C 202.56 218.05 203.40 219.01 204.51 219.08 Z M 205.48 219.15 L 206.49 219.23 C 207.60 219.31 208.57 218.49 208.65 217.38 C 208.74 216.27 207.91 215.30 206.80 215.21 L 205.80 215.14 C 204.69 215.05 203.72 215.88 203.64 216.98 C 203.55 218.09 204.38 219.06 205.48 219.15 Z M 206.47 219.22 L 207.50 219.31 C 208.60 219.41 209.57 218.59 209.67 217.48 C 209.77 216.38 208.95 215.41 207.84 215.31 L 206.82 215.22 C 205.72 215.12 204.74 215.94 204.65 217.05 C 204.55 218.15 205.37 219.12 206.47 219.22 Z M 207.48 219.30 L 208.49 219.40 C 209.59 219.50 210.57 218.69 210.67 217.59 C 210.78 216.49 209.97 215.51 208.87 215.41 L 207.86 215.31 C 206.76 215.21 205.78 216.02 205.68 217.12 C 205.57 218.22 206.38 219.20 207.48 219.30 Z M 208.48 219.39 L 209.48 219.49 C 210.58 219.60 211.56 218.80 211.67 217.70 C 211.78 216.61 210.97 215.63 209.88 215.52 L 208.88 215.42 C 207.78 215.31 206.80 216.11 206.69 217.21 C 206.58 218.30 207.38 219.28 208.48 219.39 Z M 209.47 219.48 L 210.48 219.59 C 211.57 219.70 212.55 218.91 212.67 217.81 C 212.78 216.72 211.98 215.74 210.89 215.63 L 209.88 215.52 C 208.79 215.41 207.81 216.20 207.70 217.30 C 207.58 218.39 208.38 219.37 209.47 219.48 Z M 210.47 219.58 L 211.48 219.69 C 212.57 219.81 213.55 219.02 213.66 217.93 C 213.78 216.84 212.99 215.86 211.90 215.74 L 210.90 215.64 C 209.81 215.52 208.83 216.31 208.71 217.40 C 208.60 218.49 209.38 219.47 210.47 219.58 Z M 211.48 219.68 L 212.47 219.79 C 213.56 219.91 214.53 219.12 214.65 218.04 C 214.77 216.95 213.98 215.98 212.90 215.86 L 211.90 215.75 C 210.82 215.63 209.84 216.42 209.72 217.50 C 209.61 218.59 210.39 219.57 211.48 219.68 Z M 212.47 219.78 L 213.45 219.89 C 214.53 220.01 215.50 219.23 215.62 218.14 C 215.74 217.06 214.96 216.09 213.87 215.97 L 212.90 215.86 C 211.81 215.75 210.84 216.53 210.72 217.61 C 210.61 218.69 211.39 219.67 212.47 219.78 Z M 213.45 219.88 L 214.49 220.00 C 215.57 220.11 216.54 219.33 216.65 218.25 C 216.77 217.17 215.99 216.21 214.91 216.09 L 213.87 215.98 C 212.79 215.86 211.82 216.64 211.71 217.72 C 211.59 218.80 212.37 219.77 213.45 219.88 Z M 214.49 219.99 L 215.51 220.10 C 216.59 220.22 217.55 219.44 217.67 218.36 C 217.78 217.29 217.01 216.32 215.93 216.21 L 214.91 216.10 C 213.83 215.98 212.87 216.76 212.75 217.83 C 212.64 218.91 213.41 219.87 214.49 219.99 Z M 215.51 220.09 L 216.50 220.20 C 217.58 220.32 218.54 219.55 218.66 218.48 C 218.77 217.41 218.00 216.44 216.93 216.32 L 215.94 216.21 C 214.86 216.10 213.90 216.87 213.78 217.94 C 213.67 219.01 214.44 219.97 215.51 220.09 Z M 216.50 220.19 L 217.47 220.30 C 218.54 220.42 219.50 219.66 219.62 218.59 C 219.74 217.52 218.97 216.56 217.91 216.44 L 216.94 216.33 C 215.87 216.21 214.91 216.98 214.79 218.04 C 214.67 219.11 215.43 220.07 216.50 220.19 Z M 217.46 220.30 L 218.41 220.41 C 219.47 220.53 220.44 219.77 220.56 218.71 C 220.69 217.65 219.93 216.69 218.87 216.56 L 217.92 216.45 C 216.85 216.32 215.89 217.08 215.77 218.15 C 215.64 219.21 216.40 220.17 217.46 220.30 Z M 218.40 220.40 L 219.40 220.52 C 220.46 220.66 221.42 219.91 221.55 218.85 C 221.69 217.79 220.94 216.83 219.88 216.70 L 218.88 216.57 C 217.82 216.44 216.86 217.19 216.73 218.25 C 216.59 219.30 217.34 220.27 218.40 220.40 Z M 219.39 220.51 L 220.40 220.65 C 221.45 220.79 222.42 220.05 222.56 219.00 C 222.70 217.94 221.96 216.98 220.90 216.84 L 219.89 216.71 C 218.84 216.57 217.88 217.31 217.74 218.36 C 217.60 219.41 218.34 220.37 219.39 220.51 Z M 220.39 220.64 L 221.38 220.78 C 222.43 220.92 223.39 220.19 223.54 219.14 C 223.68 218.10 222.95 217.13 221.91 216.99 L 220.91 216.85 C 219.87 216.70 218.90 217.44 218.76 218.48 C 218.61 219.53 219.34 220.49 220.39 220.64 Z M 221.37 220.77 L 222.35 220.91 C 223.39 221.06 224.36 220.33 224.50 219.29 C 224.65 218.25 223.93 217.29 222.89 217.14 L 221.92 217.00 C 220.88 216.85 219.91 217.57 219.76 218.61 C 219.61 219.65 220.33 220.62 221.37 220.77 Z M 222.34 220.90 L 223.30 221.04 C 224.34 221.19 225.30 220.48 225.46 219.44 C 225.61 218.40 224.89 217.44 223.86 217.29 L 222.90 217.15 C 221.86 216.99 220.90 217.71 220.74 218.74 C 220.59 219.78 221.31 220.74 222.34 220.90 Z M 223.30 221.03 L 224.33 221.19 C 225.36 221.34 226.33 220.63 226.48 219.60 C 226.64 218.57 225.93 217.61 224.89 217.45 L 223.86 217.29 C 222.83 217.14 221.87 217.85 221.71 218.88 C 221.56 219.91 222.27 220.88 223.30 221.03 Z M 224.32 221.18 L 225.33 221.34 C 226.36 221.50 227.32 220.79 227.48 219.76 C 227.64 218.73 226.94 217.77 225.91 217.61 L 224.90 217.46 C 223.87 217.30 222.91 218.00 222.75 219.03 C 222.59 220.06 223.29 221.02 224.32 221.18 Z M 225.32 221.33 L 226.30 221.49 C 227.33 221.65 228.29 220.95 228.46 219.93 C 228.62 218.90 227.92 217.94 226.89 217.77 L 225.92 217.62 C 224.89 217.45 223.92 218.15 223.76 219.18 C 223.60 220.21 224.30 221.17 225.32 221.33 Z M 226.29 221.48 L 227.24 221.64 C 228.26 221.81 229.23 221.12 229.40 220.09 C 229.56 219.07 228.87 218.10 227.85 217.93 L 226.90 217.78 C 225.88 217.61 224.91 218.30 224.74 219.33 C 224.58 220.35 225.27 221.32 226.29 221.48 Z M 227.22 221.63 L 228.16 221.80 C 229.18 221.97 230.15 221.29 230.33 220.27 C 230.51 219.25 229.82 218.28 228.80 218.10 L 227.86 217.94 C 226.84 217.76 225.87 218.45 225.70 219.47 C 225.52 220.49 226.20 221.46 227.22 221.63 Z M 228.14 221.79 L 229.08 221.96 C 230.09 222.15 231.07 221.48 231.26 220.47 C 231.45 219.45 230.78 218.48 229.77 218.29 L 228.83 218.11 C 227.81 217.92 226.84 218.59 226.65 219.60 C 226.45 220.62 227.12 221.60 228.14 221.79 Z M 229.04 221.95 L 230.00 222.15 C 231.01 222.37 232.00 221.72 232.21 220.71 C 232.42 219.71 231.78 218.72 230.77 218.50 L 229.81 218.30 C 228.80 218.09 227.81 218.73 227.60 219.74 C 227.38 220.75 228.03 221.74 229.04 221.95 Z M 229.95 222.14 L 230.98 222.38 C 231.98 222.62 232.98 222.01 233.22 221.01 C 233.46 220.01 232.85 219.01 231.85 218.77 L 230.82 218.52 C 229.82 218.28 228.82 218.89 228.58 219.89 C 228.34 220.89 228.95 221.90 229.95 222.14 Z M 230.93 222.37 L 231.91 222.63 C 232.90 222.90 233.92 222.31 234.19 221.32 C 234.45 220.33 233.87 219.31 232.88 219.05 L 231.90 218.78 C 230.91 218.52 229.89 219.10 229.62 220.09 C 229.35 221.08 229.94 222.10 230.93 222.37 Z M 231.86 222.62 L 232.84 222.91 C 233.82 223.20 234.85 222.64 235.15 221.66 C 235.44 220.68 234.88 219.65 233.90 219.36 L 232.92 219.07 C 231.94 218.77 230.91 219.33 230.62 220.31 C 230.33 221.29 230.88 222.32 231.86 222.62 Z M 232.79 222.89 L 233.77 223.21 C 234.74 223.54 235.79 223.01 236.11 222.04 C 236.43 221.07 235.91 220.03 234.94 219.71 L 233.95 219.38 C 232.99 219.06 231.94 219.58 231.62 220.55 C 231.29 221.52 231.82 222.56 232.79 222.89 Z M 233.70 223.19 L 234.66 223.54 C 235.61 223.90 236.67 223.42 237.03 222.47 C 237.39 221.52 236.91 220.45 235.96 220.09 L 235.01 219.73 C 234.05 219.37 232.99 219.86 232.63 220.81 C 232.27 221.76 232.75 222.83 233.70 223.19 Z M 234.57 223.50 L 235.45 223.89 C 236.38 224.30 237.46 223.88 237.87 222.95 C 238.28 222.01 237.86 220.93 236.93 220.52 L 236.05 220.13 C 235.12 219.72 234.03 220.15 233.62 221.08 C 233.21 222.01 233.64 223.10 234.57 223.50 Z M 235.31 223.82 L 236.27 224.34 C 237.16 224.83 238.28 224.50 238.76 223.61 C 239.25 222.72 238.92 221.61 238.03 221.12 L 237.07 220.60 C 236.18 220.11 235.06 220.44 234.58 221.32 C 234.09 222.21 234.42 223.33 235.31 223.82 Z M 236.07 224.20 L 236.89 224.81 C 237.70 225.41 238.85 225.24 239.45 224.43 C 240.05 223.62 239.87 222.47 239.06 221.87 L 238.24 221.26 C 237.43 220.66 236.28 220.83 235.68 221.65 C 235.08 222.46 235.25 223.60 236.07 224.20 Z M 236.66 224.60 L 237.30 225.27 C 237.99 226.00 239.15 226.03 239.88 225.34 C 240.60 224.65 240.63 223.49 239.94 222.77 L 239.30 222.09 C 238.60 221.36 237.45 221.33 236.72 222.02 C 235.99 222.72 235.96 223.87 236.66 224.60 Z M 237.09 224.99 L 237.58 225.76 C 238.12 226.61 239.24 226.85 240.08 226.32 C 240.93 225.78 241.18 224.66 240.64 223.81 L 240.15 223.05 C 239.61 222.20 238.49 221.96 237.65 222.49 C 236.80 223.03 236.56 224.15 237.09 224.99 Z M 237.45 225.47 L 237.82 226.36 C 238.20 227.28 239.24 227.72 240.16 227.34 C 241.08 226.96 241.51 225.91 241.14 225.00 L 240.77 224.11 C 240.39 223.19 239.34 222.75 238.43 223.13 C 237.51 223.51 237.07 224.55 237.45 225.47 Z M 237.77 226.15 L 238.04 227.11 C 238.30 228.06 239.27 228.61 240.21 228.35 C 241.16 228.09 241.71 227.12 241.45 226.17 L 241.18 225.21 C 240.93 224.27 239.95 223.71 239.01 223.97 C 238.07 224.23 237.51 225.21 237.77 226.15 Z M 238.03 226.99 L 238.24 228.00 C 238.43 228.94 239.36 229.55 240.30 229.36 C 241.25 229.17 241.85 228.24 241.66 227.30 L 241.45 226.29 C 241.26 225.35 240.34 224.74 239.39 224.93 C 238.45 225.13 237.84 226.05 238.03 226.99 Z M 238.25 227.97 L 238.32 228.34 C 238.49 229.28 239.40 229.90 240.34 229.72 C 241.27 229.55 241.89 228.64 241.72 227.71 L 241.65 227.33 C 241.48 226.39 240.57 225.77 239.63 225.95 C 238.69 226.12 238.07 227.03 238.25 227.97 Z"
      fill="black"
      fill-rule="nonzero" /></svg>