<svg xmlns="http://www.w3.org/2000/svg" width="300" height="300" viewBox="0 0 300 300">
<path d="M 164.28 101.77 L 164.62 100.74 C 164.88 99.96 164.45 99.11 163.67 98.86 C 162.89 98.60 162.05 99.02 161.79 99.80 L 161.45 100.83 C 161.19 101.62 161.61 102.46 162.40 102.72 C 163.18 102.97 164.02 102.55 164.28 101.77 Z M 164.59 100.85 L 164.97 99.94 C 165.29 99.17 164.93 98.29 164.17 97.97 C 163.40 97.65 162.52 98.01 162.20 98.78 L 161.82 99.69 C 161.50 100.45 161.86 101.33 162.62 101.65 C 163.39 101.97 164.27 101.62 164.59 100.85 Z M 164.80 100.28 L 165.42 99.46 C 165.93 98.79 165.80 97.84 165.13 97.33 C 164.46 96.82 163.50 96.95 162.99 97.62 L 162.37 98.44 C 161.86 99.11 161.99 100.06 162.66 100.57 C 163.33 101.08 164.29 100.95 164.80 100.28 Z M 164.69 100.03 L 165.53 99.76 C 166.35 99.49 166.80 98.61 166.53 97.78 C 166.26 96.96 165.38 96.51 164.55 96.78 L 163.72 97.05 C 162.89 97.32 162.44 98.20 162.71 99.03 C 162.98 99.85 163.87 100.30 164.69 100.03 Z M 163.68 99.15 L 164.13 99.85 C 164.62 100.60 165.62 100.81 166.37 100.33 C 167.12 99.84 167.34 98.84 166.85 98.09 L 166.40 97.39 C 165.91 96.64 164.91 96.42 164.16 96.91 C 163.41 97.40 163.19 98.40 163.68 99.15 Z M 163.84 99.02 L 163.88 100.05 C 163.91 100.96 164.67 101.67 165.58 101.64 C 166.49 101.61 167.21 100.84 167.18 99.93 L 167.14 98.91 C 167.11 98.00 166.35 97.29 165.44 97.32 C 164.52 97.35 163.81 98.11 163.84 99.02 Z M 163.89 99.66 L 163.70 100.64 C 163.52 101.54 164.10 102.42 165.01 102.60 C 165.91 102.78 166.79 102.19 166.97 101.29 L 167.16 100.31 C 167.34 99.41 166.76 98.53 165.85 98.35 C 164.95 98.17 164.07 98.76 163.89 99.66 Z M 163.79 100.31 L 163.38 101.27 C 163.02 102.12 163.41 103.11 164.27 103.47 C 165.12 103.83 166.11 103.43 166.47 102.58 L 166.88 101.62 C 167.24 100.76 166.84 99.78 165.99 99.41 C 165.14 99.05 164.15 99.45 163.79 100.31 Z M 163.47 101.07 L 162.95 101.95 C 162.48 102.76 162.75 103.79 163.56 104.26 C 164.36 104.73 165.39 104.46 165.86 103.66 L 166.38 102.78 C 166.85 101.97 166.58 100.94 165.78 100.47 C 164.98 100.00 163.94 100.27 163.47 101.07 Z M 163.01 101.85 L 162.45 102.68 C 161.92 103.45 162.11 104.50 162.88 105.03 C 163.66 105.56 164.71 105.36 165.24 104.59 L 165.80 103.76 C 166.33 102.99 166.14 101.94 165.36 101.41 C 164.59 100.88 163.54 101.08 163.01 101.85 Z M 162.50 102.60 L 161.86 103.43 C 161.29 104.17 161.43 105.24 162.17 105.81 C 162.91 106.38 163.97 106.24 164.54 105.50 L 165.18 104.67 C 165.75 103.92 165.62 102.86 164.87 102.29 C 164.13 101.72 163.07 101.86 162.50 102.60 Z M 161.91 103.37 L 161.29 104.09 C 160.68 104.81 160.77 105.87 161.48 106.48 C 162.19 107.09 163.26 107.00 163.87 106.29 L 164.49 105.57 C 165.10 104.85 165.01 103.78 164.30 103.18 C 163.59 102.57 162.52 102.65 161.91 103.37 Z M 161.32 104.06 L 160.68 104.77 C 160.06 105.47 160.12 106.54 160.81 107.16 C 161.51 107.79 162.58 107.73 163.21 107.03 L 163.84 106.32 C 164.47 105.63 164.41 104.56 163.71 103.93 C 163.01 103.31 161.94 103.37 161.32 104.06 Z M 160.70 104.76 L 160.01 105.50 C 159.38 106.19 159.43 107.26 160.12 107.89 C 160.81 108.53 161.88 108.48 162.51 107.79 L 163.20 107.04 C 163.83 106.35 163.78 105.28 163.09 104.65 C 162.40 104.02 161.33 104.07 160.70 104.76 Z M 160.02 105.49 L 159.34 106.24 C 158.70 106.92 158.74 107.99 159.43 108.63 C 160.12 109.26 161.19 109.22 161.82 108.53 L 162.51 107.79 C 163.14 107.11 163.10 106.04 162.41 105.40 C 161.73 104.77 160.66 104.81 160.02 105.49 Z M 159.34 106.23 L 158.66 106.97 C 158.02 107.65 158.06 108.72 158.75 109.36 C 159.43 109.99 160.50 109.96 161.14 109.27 L 161.82 108.54 C 162.46 107.85 162.42 106.78 161.73 106.14 C 161.05 105.51 159.98 105.55 159.34 106.23 Z M 158.66 106.97 L 157.97 107.71 C 157.33 108.40 157.37 109.47 158.05 110.10 C 158.74 110.74 159.81 110.70 160.44 110.02 L 161.14 109.27 C 161.77 108.59 161.73 107.52 161.05 106.88 C 160.37 106.24 159.30 106.28 158.66 106.97 Z M 157.97 107.71 L 157.29 108.44 C 156.65 109.13 156.69 110.20 157.37 110.83 C 158.06 111.47 159.13 111.43 159.76 110.75 L 160.44 110.02 C 161.08 109.33 161.04 108.26 160.36 107.63 C 159.67 106.99 158.60 107.03 157.97 107.71 Z M 157.29 108.44 L 156.61 109.17 C 155.97 109.85 156.01 110.92 156.69 111.56 C 157.37 112.19 158.44 112.16 159.07 111.48 L 159.76 110.75 C 160.39 110.07 160.36 109.00 159.68 108.36 C 159.00 107.73 157.93 107.76 157.29 108.44 Z M 156.62 109.17 L 155.94 109.88 C 155.30 110.56 155.33 111.63 156.00 112.27 C 156.68 112.91 157.75 112.88 158.39 112.20 L 159.07 111.48 C 159.71 110.81 159.68 109.74 159.00 109.10 C 158.32 108.46 157.26 108.49 156.62 109.17 Z M 155.94 109.88 L 155.26 110.60 C 154.62 111.27 154.65 112.34 155.32 112.98 C 156.00 113.62 157.06 113.59 157.70 112.92 L 158.38 112.20 C 159.02 111.53 159.00 110.46 158.32 109.82 C 157.65 109.18 156.58 109.21 155.94 109.88 Z M 155.26 110.61 L 154.56 111.35 C 153.93 112.03 153.96 113.09 154.64 113.72 C 155.31 114.36 156.38 114.33 157.01 113.65 L 157.71 112.91 C 158.34 112.23 158.31 111.17 157.63 110.53 C 156.96 109.90 155.89 109.93 155.26 110.61 Z M 154.55 111.37 L 153.89 112.09 C 153.27 112.77 153.31 113.83 154.00 114.46 C 154.68 115.08 155.74 115.03 156.37 114.35 L 157.02 113.63 C 157.65 112.95 157.60 111.89 156.92 111.26 C 156.23 110.64 155.17 110.69 154.55 111.37 Z M 153.88 112.11 L 153.22 112.85 C 152.61 113.54 152.67 114.60 153.36 115.21 C 154.05 115.82 155.11 115.76 155.72 115.07 L 156.38 114.33 C 156.99 113.64 156.93 112.58 156.24 111.97 C 155.55 111.36 154.49 111.42 153.88 112.11 Z M 153.21 112.87 L 152.53 113.65 C 151.93 114.34 152.01 115.40 152.70 116.00 C 153.40 116.60 154.45 116.53 155.06 115.83 L 155.73 115.05 C 156.34 114.35 156.26 113.30 155.56 112.70 C 154.87 112.09 153.81 112.17 153.21 112.87 Z M 152.52 113.66 L 151.89 114.40 C 151.30 115.11 151.39 116.16 152.09 116.75 C 152.79 117.35 153.84 117.26 154.44 116.56 L 155.07 115.82 C 155.66 115.12 155.58 114.06 154.87 113.47 C 154.17 112.87 153.12 112.96 152.52 113.66 Z M 151.89 114.41 L 151.26 115.17 C 150.67 115.87 150.76 116.92 151.47 117.51 C 152.17 118.10 153.22 118.01 153.81 117.30 L 154.44 116.55 C 155.03 115.85 154.94 114.80 154.23 114.21 C 153.53 113.62 152.48 113.71 151.89 114.41 Z M 151.26 115.17 L 150.61 115.95 C 150.02 116.65 150.11 117.70 150.81 118.29 C 151.52 118.88 152.56 118.79 153.15 118.08 L 153.81 117.30 C 154.40 116.60 154.31 115.55 153.60 114.96 C 152.90 114.37 151.85 114.46 151.26 115.17 Z M 150.61 115.95 L 149.96 116.72 C 149.36 117.42 149.45 118.47 150.15 119.06 C 150.85 119.65 151.90 119.57 152.49 118.86 L 153.15 118.09 C 153.74 117.39 153.65 116.34 152.95 115.75 C 152.25 115.16 151.20 115.25 150.61 115.95 Z M 149.96 116.71 L 149.34 117.44 C 148.74 118.14 148.83 119.18 149.52 119.78 C 150.22 120.38 151.26 120.30 151.86 119.60 L 152.48 118.87 C 153.08 118.18 153.00 117.13 152.30 116.53 C 151.61 115.94 150.56 116.02 149.96 116.71 Z M 149.35 117.43 L 148.70 118.18 C 148.10 118.87 148.17 119.92 148.86 120.52 C 149.55 121.12 150.59 121.05 151.20 120.36 L 151.85 119.61 C 152.45 118.92 152.38 117.87 151.69 117.27 C 151.00 116.67 149.95 116.74 149.35 117.43 Z M 148.71 118.17 L 148.03 118.94 C 147.42 119.62 147.48 120.67 148.16 121.27 C 148.84 121.88 149.89 121.82 150.50 121.14 L 151.18 120.37 C 151.79 119.69 151.73 118.64 151.05 118.03 C 150.37 117.42 149.32 117.48 148.71 118.17 Z M 148.04 118.92 L 147.35 119.68 C 146.73 120.36 146.78 121.40 147.45 122.02 C 148.13 122.64 149.17 122.59 149.79 121.91 L 150.48 121.15 C 151.10 120.48 151.05 119.43 150.38 118.82 C 149.70 118.20 148.66 118.25 148.04 118.92 Z M 147.36 119.67 L 146.69 120.39 C 146.06 121.06 146.10 122.10 146.76 122.73 C 147.43 123.35 148.48 123.32 149.10 122.65 L 149.78 121.93 C 150.40 121.26 150.36 120.21 149.70 119.59 C 149.03 118.97 147.98 119.00 147.36 119.67 Z M 146.70 120.38 L 146.01 121.10 C 145.37 121.76 145.40 122.81 146.06 123.44 C 146.71 124.07 147.76 124.05 148.39 123.39 L 149.09 122.66 C 149.72 122.00 149.70 120.96 149.04 120.33 C 148.38 119.70 147.33 119.72 146.70 120.38 Z M 146.02 121.09 L 145.31 121.81 C 144.67 122.46 144.68 123.50 145.33 124.14 C 145.98 124.78 147.03 124.77 147.67 124.12 L 148.38 123.40 C 149.01 122.75 149.01 121.71 148.36 121.07 C 147.71 120.43 146.66 120.44 146.02 121.09 Z M 145.33 121.79 L 144.61 122.50 C 143.97 123.14 143.96 124.18 144.60 124.83 C 145.24 125.48 146.28 125.49 146.93 124.85 L 147.65 124.14 C 148.30 123.50 148.30 122.46 147.66 121.81 C 147.02 121.16 145.98 121.15 145.33 121.79 Z M 144.64 122.48 L 143.90 123.18 C 143.24 123.81 143.22 124.85 143.85 125.51 C 144.48 126.17 145.52 126.19 146.18 125.56 L 146.91 124.87 C 147.57 124.24 147.59 123.19 146.96 122.54 C 146.34 121.88 145.29 121.85 144.64 122.48 Z M 143.93 123.16 L 143.19 123.84 C 142.52 124.46 142.48 125.50 143.10 126.17 C 143.71 126.83 144.75 126.87 145.42 126.26 L 146.15 125.58 C 146.82 124.97 146.86 123.93 146.25 123.26 C 145.63 122.59 144.59 122.55 143.93 123.16 Z M 143.21 123.83 L 142.47 124.49 C 141.79 125.09 141.73 126.13 142.34 126.80 C 142.94 127.48 143.98 127.54 144.65 126.94 L 145.40 126.28 C 146.07 125.67 146.13 124.64 145.53 123.96 C 144.93 123.28 143.89 123.22 143.21 123.83 Z M 142.49 124.47 L 141.74 125.12 C 141.06 125.71 140.98 126.75 141.57 127.43 C 142.16 128.12 143.19 128.19 143.88 127.60 L 144.63 126.95 C 145.32 126.36 145.39 125.33 144.80 124.64 C 144.21 123.96 143.18 123.88 142.49 124.47 Z M 141.76 125.11 L 141.00 125.75 C 140.30 126.33 140.21 127.36 140.79 128.05 C 141.37 128.74 142.40 128.83 143.09 128.25 L 143.86 127.61 C 144.55 127.04 144.64 126.00 144.06 125.31 C 143.48 124.62 142.45 124.53 141.76 125.11 Z M 141.02 125.74 L 140.24 126.37 C 139.54 126.94 139.44 127.97 140.00 128.66 C 140.57 129.36 141.60 129.47 142.30 128.90 L 143.07 128.27 C 143.77 127.70 143.88 126.67 143.31 125.97 C 142.74 125.28 141.71 125.17 141.02 125.74 Z M 140.26 126.36 L 139.47 126.98 C 138.77 127.54 138.65 128.56 139.21 129.27 C 139.77 129.97 140.79 130.09 141.49 129.53 L 142.28 128.91 C 142.98 128.35 143.10 127.33 142.54 126.63 C 141.98 125.92 140.96 125.80 140.26 126.36 Z M 139.49 126.97 L 138.70 127.59 C 137.99 128.13 137.86 129.15 138.41 129.86 C 138.95 130.57 139.97 130.70 140.68 130.15 L 141.47 129.54 C 142.18 128.99 142.31 127.97 141.77 127.27 C 141.22 126.56 140.20 126.43 139.49 126.97 Z M 138.72 127.58 L 137.91 128.18 C 137.20 128.72 137.06 129.73 137.60 130.45 C 138.13 131.16 139.15 131.30 139.86 130.77 L 140.66 130.16 C 141.38 129.62 141.52 128.61 140.98 127.89 C 140.44 127.18 139.43 127.04 138.72 127.58 Z M 137.93 128.17 L 137.11 128.78 C 136.39 129.31 136.24 130.32 136.77 131.04 C 137.29 131.76 138.31 131.91 139.02 131.38 L 139.85 130.77 C 140.56 130.24 140.72 129.23 140.19 128.52 C 139.66 127.80 138.65 127.65 137.93 128.17 Z M 137.12 128.78 L 136.30 129.37 C 135.58 129.89 135.42 130.90 135.94 131.62 C 136.47 132.34 137.47 132.50 138.19 131.98 L 139.01 131.39 C 139.73 130.86 139.89 129.86 139.37 129.14 C 138.85 128.41 137.84 128.25 137.12 128.78 Z M 136.31 129.37 L 135.51 129.94 C 134.79 130.46 134.62 131.47 135.14 132.19 C 135.66 132.91 136.66 133.07 137.38 132.56 L 138.19 131.98 C 138.91 131.46 139.07 130.46 138.56 129.74 C 138.04 129.01 137.03 128.85 136.31 129.37 Z M 135.51 129.94 L 134.72 130.51 C 133.99 131.03 133.83 132.03 134.34 132.75 C 134.86 133.47 135.86 133.64 136.58 133.12 L 137.38 132.56 C 138.10 132.04 138.27 131.04 137.75 130.32 C 137.24 129.60 136.23 129.43 135.51 129.94 Z M 134.72 130.52 L 133.86 131.13 C 133.14 131.64 132.98 132.64 133.49 133.36 C 134.01 134.08 135.01 134.25 135.73 133.73 L 136.58 133.12 C 137.30 132.61 137.47 131.61 136.95 130.89 C 136.44 130.17 135.44 130.00 134.72 130.52 Z M 133.86 131.13 L 133.04 131.72 C 132.32 132.23 132.16 133.23 132.67 133.95 C 133.18 134.67 134.18 134.83 134.90 134.32 L 135.72 133.73 C 136.44 133.22 136.61 132.22 136.09 131.50 C 135.58 130.78 134.58 130.62 133.86 131.13 Z M 133.04 131.72 L 132.25 132.29 C 131.54 132.80 131.37 133.79 131.88 134.51 C 132.40 135.23 133.39 135.39 134.11 134.88 L 134.90 134.32 C 135.62 133.80 135.78 132.81 135.27 132.09 C 134.76 131.37 133.76 131.21 133.04 131.72 Z M 132.26 132.29 L 131.45 132.86 C 130.74 133.37 130.57 134.37 131.08 135.08 C 131.59 135.80 132.59 135.96 133.30 135.45 L 134.11 134.88 C 134.82 134.37 134.99 133.37 134.48 132.66 C 133.97 131.94 132.97 131.78 132.26 132.29 Z M 131.46 132.87 L 130.62 133.47 C 129.91 133.97 129.74 134.96 130.25 135.68 C 130.76 136.39 131.75 136.55 132.46 136.05 L 133.30 135.45 C 134.01 134.94 134.18 133.95 133.67 133.23 C 133.16 132.52 132.17 132.36 131.46 132.87 Z M 130.62 133.47 L 129.82 134.05 C 129.11 134.56 128.95 135.54 129.46 136.25 C 129.97 136.96 130.96 137.12 131.67 136.61 L 132.46 136.04 C 133.17 135.53 133.33 134.54 132.82 133.83 C 132.31 133.13 131.33 132.97 130.62 133.47 Z M 129.82 134.06 L 129.03 134.63 C 128.33 135.15 128.18 136.13 128.69 136.83 C 129.21 137.53 130.19 137.68 130.89 137.17 L 131.67 136.60 C 132.37 136.08 132.52 135.10 132.01 134.40 C 131.50 133.70 130.52 133.55 129.82 134.06 Z M 129.02 134.65 L 128.21 135.27 C 127.52 135.78 127.38 136.76 127.90 137.45 C 128.42 138.14 129.40 138.28 130.09 137.76 L 130.90 137.15 C 131.59 136.63 131.73 135.65 131.21 134.96 C 130.69 134.27 129.71 134.13 129.02 134.65 Z M 128.19 135.29 L 127.41 135.90 C 126.73 136.42 126.61 137.40 127.14 138.08 C 127.66 138.75 128.64 138.88 129.32 138.35 L 130.10 137.74 C 130.78 137.22 130.90 136.24 130.37 135.56 C 129.85 134.88 128.87 134.76 128.19 135.29 Z M 127.39 135.92 L 126.61 136.55 C 125.95 137.09 125.85 138.06 126.38 138.73 C 126.92 139.39 127.89 139.49 128.56 138.96 L 129.34 138.32 C 130.00 137.79 130.10 136.81 129.57 136.15 C 129.03 135.49 128.06 135.38 127.39 135.92 Z M 126.60 136.57 L 125.81 137.23 C 125.16 137.77 125.07 138.74 125.61 139.39 C 126.15 140.05 127.12 140.14 127.78 139.59 L 128.57 138.94 C 129.22 138.40 129.31 137.43 128.77 136.77 C 128.23 136.12 127.26 136.03 126.60 136.57 Z M 125.83 137.22 L 125.08 137.82 C 124.42 138.36 124.32 139.32 124.85 139.98 C 125.39 140.64 126.35 140.74 127.01 140.21 L 127.76 139.60 C 128.42 139.07 128.52 138.11 127.99 137.45 C 127.45 136.79 126.49 136.69 125.83 137.22 Z M 125.14 137.79 L 124.32 138.39 C 123.64 138.89 123.50 139.85 123.99 140.53 C 124.49 141.20 125.45 141.35 126.13 140.85 L 126.95 140.24 C 127.63 139.74 127.77 138.79 127.27 138.11 C 126.77 137.43 125.82 137.29 125.14 137.79 Z M 124.37 138.36 L 123.56 138.91 C 122.87 139.38 122.68 140.32 123.15 141.01 C 123.62 141.71 124.56 141.89 125.26 141.43 L 126.07 140.88 C 126.76 140.41 126.95 139.47 126.48 138.77 C 126.01 138.08 125.07 137.90 124.37 138.36 Z M 123.58 138.90 L 123.34 139.06 C 122.64 139.52 122.44 140.46 122.90 141.16 C 123.36 141.86 124.30 142.05 125.00 141.59 L 125.24 141.43 C 125.94 140.98 126.13 140.04 125.68 139.34 C 125.22 138.64 124.28 138.44 123.58 138.90 Z"
      fill="black"
      fill-rule="nonzero" /><path d="M 100.69 163.17 L 99.95 162.37 C 99.34 161.71 98.31 161.67 97.66 162.28 C 97.00 162.89 96.96 163.91 97.56 164.57 L 98.30 165.37 C 98.91 166.03 99.94 166.07 100.59 165.46 C 101.25 164.86 101.29 163.83 100.69 163.17 Z M 100.36 163.21 L 100.23 162.42 C 100.08 161.54 99.25 160.94 98.36 161.08 C 97.48 161.23 96.88 162.06 97.03 162.95 L 97.15 163.73 C 97.30 164.62 98.13 165.22 99.02 165.07 C 99.90 164.93 100.50 164.09 100.36 163.21 Z M 99.83 163.79 L 100.49 163.06 C 101.10 162.40 101.06 161.37 100.39 160.76 C 99.73 160.15 98.70 160.19 98.09 160.86 L 97.42 161.58 C 96.81 162.24 96.86 163.28 97.52 163.89 C 98.19 164.50 99.22 164.45 99.83 163.79 Z M 100.17 163.36 L 101.07 162.79 C 101.85 162.31 102.08 161.29 101.59 160.51 C 101.11 159.74 100.09 159.51 99.31 159.99 L 98.41 160.56 C 97.64 161.04 97.40 162.06 97.89 162.84 C 98.38 163.61 99.40 163.85 100.17 163.36 Z M 100.95 162.90 L 101.83 162.46 C 102.66 162.04 102.99 161.03 102.58 160.20 C 102.16 159.36 101.15 159.03 100.31 159.45 L 99.44 159.89 C 98.61 160.30 98.27 161.32 98.69 162.15 C 99.11 162.98 100.12 163.32 100.95 162.90 Z M 101.83 162.49 L 102.70 162.06 C 103.55 161.64 103.89 160.61 103.47 159.76 C 103.05 158.91 102.02 158.57 101.17 158.99 L 100.31 159.42 C 99.46 159.84 99.11 160.87 99.54 161.72 C 99.96 162.56 100.99 162.91 101.83 162.49 Z M 102.72 162.07 L 103.63 161.60 C 104.49 161.17 104.83 160.13 104.40 159.28 C 103.97 158.42 102.92 158.08 102.07 158.51 L 101.15 158.98 C 100.30 159.41 99.96 160.45 100.39 161.30 C 100.82 162.16 101.86 162.50 102.72 162.07 Z M 103.62 161.62 L 104.50 161.19 C 105.36 160.77 105.72 159.72 105.29 158.85 C 104.87 157.99 103.82 157.63 102.95 158.06 L 102.08 158.49 C 101.21 158.92 100.86 159.97 101.29 160.83 C 101.71 161.70 102.76 162.05 103.62 161.62 Z M 104.49 161.21 L 105.41 160.77 C 106.29 160.35 106.66 159.30 106.23 158.42 C 105.81 157.54 104.76 157.18 103.88 157.60 L 102.96 158.04 C 102.09 158.46 101.72 159.51 102.14 160.39 C 102.56 161.27 103.61 161.64 104.49 161.21 Z M 105.41 160.79 L 106.27 160.38 C 107.16 159.96 107.54 158.90 107.12 158.01 C 106.70 157.13 105.64 156.75 104.75 157.17 L 103.89 157.58 C 103.00 158.00 102.62 159.06 103.04 159.94 C 103.46 160.83 104.52 161.21 105.41 160.79 Z M 106.27 160.39 L 107.18 159.97 C 108.07 159.55 108.46 158.49 108.04 157.59 C 107.62 156.70 106.56 156.31 105.66 156.73 L 104.76 157.15 C 103.86 157.57 103.48 158.63 103.89 159.53 C 104.31 160.43 105.38 160.81 106.27 160.39 Z M 107.17 159.99 L 108.09 159.56 C 109.00 159.15 109.39 158.08 108.98 157.17 C 108.56 156.27 107.49 155.87 106.59 156.29 L 105.67 156.71 C 104.76 157.13 104.37 158.20 104.79 159.10 C 105.20 160.01 106.27 160.40 107.17 159.99 Z M 108.09 159.58 L 108.97 159.18 C 109.88 158.77 110.28 157.70 109.87 156.78 C 109.46 155.87 108.39 155.47 107.47 155.88 L 106.60 156.28 C 105.68 156.69 105.28 157.76 105.69 158.67 C 106.10 159.58 107.18 159.99 108.09 159.58 Z M 108.95 159.20 L 109.89 158.78 C 110.81 158.38 111.23 157.31 110.83 156.39 C 110.42 155.47 109.35 155.05 108.43 155.45 L 107.49 155.86 C 106.57 156.27 106.15 157.34 106.55 158.26 C 106.96 159.18 108.03 159.60 108.95 159.20 Z M 109.87 158.80 L 110.80 158.41 C 111.73 158.02 112.17 156.95 111.78 156.02 C 111.39 155.09 110.32 154.65 109.38 155.04 L 108.45 155.43 C 107.52 155.82 107.08 156.89 107.47 157.83 C 107.87 158.76 108.94 159.20 109.87 158.80 Z M 110.78 158.43 L 111.66 158.08 C 112.60 157.70 113.06 156.63 112.68 155.69 C 112.30 154.75 111.23 154.29 110.29 154.67 L 109.41 155.02 C 108.47 155.40 108.01 156.47 108.39 157.41 C 108.76 158.35 109.83 158.81 110.78 158.43 Z M 111.63 158.10 L 112.56 157.74 C 113.52 157.38 113.99 156.31 113.63 155.36 C 113.27 154.41 112.20 153.93 111.25 154.29 L 110.31 154.65 C 109.36 155.01 108.88 156.08 109.25 157.03 C 109.61 157.98 110.68 158.46 111.63 158.10 Z M 112.54 157.76 L 113.54 157.40 C 114.50 157.05 115.00 155.98 114.65 155.02 C 114.30 154.06 113.24 153.56 112.27 153.91 L 111.27 154.27 C 110.31 154.62 109.81 155.69 110.16 156.65 C 110.51 157.61 111.58 158.11 112.54 157.76 Z M 113.52 157.41 L 114.42 157.10 C 115.39 156.76 115.91 155.70 115.57 154.73 C 115.23 153.76 114.17 153.24 113.20 153.58 L 112.30 153.89 C 111.33 154.23 110.81 155.29 111.15 156.26 C 111.49 157.23 112.55 157.75 113.52 157.41 Z M 114.40 157.11 L 115.32 156.80 C 116.30 156.48 116.83 155.42 116.50 154.44 C 116.17 153.46 115.11 152.93 114.13 153.26 L 113.22 153.57 C 112.24 153.90 111.71 154.95 112.04 155.93 C 112.37 156.91 113.43 157.44 114.40 157.11 Z M 115.31 156.81 L 116.27 156.50 C 117.25 156.18 117.79 155.12 117.47 154.14 C 117.15 153.16 116.09 152.62 115.11 152.94 L 114.15 153.25 C 113.16 153.57 112.63 154.63 112.95 155.61 C 113.27 156.60 114.32 157.13 115.31 156.81 Z M 116.26 156.51 L 117.25 156.20 C 118.24 155.88 118.79 154.82 118.47 153.83 C 118.16 152.84 117.10 152.30 116.11 152.61 L 115.12 152.93 C 114.13 153.24 113.58 154.30 113.89 155.29 C 114.21 156.28 115.27 156.83 116.26 156.51 Z M 117.24 156.20 L 118.23 155.90 C 119.22 155.59 119.78 154.53 119.47 153.53 C 119.16 152.54 118.10 151.99 117.11 152.30 L 116.12 152.60 C 115.13 152.91 114.57 153.97 114.88 154.97 C 115.19 155.96 116.25 156.51 117.24 156.20 Z M 118.22 155.90 L 119.16 155.61 C 120.16 155.31 120.72 154.25 120.41 153.25 C 120.11 152.25 119.05 151.69 118.05 152.00 L 117.11 152.29 C 116.11 152.60 115.55 153.66 115.86 154.65 C 116.17 155.65 117.23 156.21 118.22 155.90 Z M 119.16 155.62 L 120.12 155.33 C 121.12 155.02 121.68 153.96 121.37 152.96 C 121.07 151.96 120.01 151.39 119.01 151.70 L 118.05 151.99 C 117.05 152.30 116.49 153.36 116.79 154.36 C 117.10 155.36 118.16 155.93 119.16 155.62 Z M 120.12 155.33 L 121.08 155.04 C 122.09 154.73 122.65 153.67 122.34 152.66 C 122.04 151.66 120.97 151.09 119.97 151.40 L 119.00 151.70 C 118.00 152.00 117.44 153.07 117.74 154.07 C 118.05 155.07 119.11 155.64 120.12 155.33 Z M 121.09 155.04 L 122.05 154.74 C 123.06 154.43 123.63 153.37 123.32 152.36 C 123.01 151.35 121.94 150.79 120.93 151.10 L 119.96 151.40 C 118.96 151.71 118.39 152.77 118.70 153.78 C 119.01 154.79 120.08 155.35 121.09 155.04 Z M 122.06 154.75 L 123.02 154.45 C 124.03 154.14 124.59 153.06 124.28 152.06 C 123.97 151.05 122.90 150.48 121.89 150.80 L 120.93 151.10 C 119.92 151.41 119.36 152.48 119.67 153.49 C 119.98 154.50 121.05 155.06 122.06 154.75 Z M 123.03 154.45 L 123.98 154.15 C 124.99 153.84 125.55 152.76 125.24 151.75 C 124.92 150.74 123.84 150.18 122.83 150.50 L 121.88 150.79 C 120.87 151.11 120.31 152.19 120.63 153.20 C 120.94 154.20 122.02 154.77 123.03 154.45 Z M 123.99 154.15 L 124.94 153.85 C 125.95 153.53 126.51 152.46 126.19 151.44 C 125.87 150.43 124.79 149.87 123.78 150.19 L 122.83 150.49 C 121.82 150.81 121.26 151.89 121.58 152.90 C 121.90 153.91 122.98 154.47 123.99 154.15 Z M 124.94 153.86 L 125.90 153.55 C 126.91 153.23 127.47 152.15 127.14 151.14 C 126.82 150.12 125.74 149.56 124.73 149.89 L 123.77 150.19 C 122.76 150.51 122.20 151.60 122.53 152.61 C 122.85 153.62 123.93 154.18 124.94 153.86 Z M 125.90 153.56 L 126.85 153.25 C 127.87 152.92 128.43 151.84 128.10 150.83 C 127.78 149.81 126.69 149.25 125.68 149.58 L 124.72 149.88 C 123.71 150.21 123.15 151.29 123.47 152.31 C 123.80 153.32 124.89 153.88 125.90 153.56 Z M 126.86 153.25 L 127.80 152.95 C 128.81 152.62 129.37 151.54 129.04 150.52 C 128.72 149.50 127.63 148.95 126.61 149.27 L 125.67 149.57 C 124.66 149.90 124.10 150.99 124.43 152.01 C 124.75 153.02 125.84 153.58 126.86 153.25 Z M 127.80 152.95 L 128.71 152.66 C 129.73 152.33 130.29 151.24 129.96 150.22 C 129.63 149.21 128.54 148.65 127.52 148.97 L 126.61 149.27 C 125.59 149.60 125.03 150.69 125.36 151.71 C 125.69 152.72 126.78 153.28 127.80 152.95 Z M 128.71 152.66 L 129.64 152.36 C 130.66 152.04 131.22 150.94 130.89 149.92 C 130.56 148.91 129.47 148.35 128.45 148.67 L 127.52 148.97 C 126.51 149.30 125.95 150.39 126.27 151.41 C 126.60 152.43 127.69 152.99 128.71 152.66 Z M 129.64 152.37 L 130.59 152.06 C 131.61 151.74 132.17 150.64 131.85 149.62 C 131.52 148.60 130.43 148.04 129.41 148.37 L 128.46 148.67 C 127.43 149.00 126.87 150.09 127.20 151.11 C 127.53 152.13 128.62 152.69 129.64 152.37 Z M 130.59 152.07 L 131.57 151.76 C 132.59 151.43 133.15 150.34 132.83 149.31 C 132.50 148.29 131.41 147.72 130.39 148.05 L 129.41 148.36 C 128.39 148.69 127.82 149.78 128.15 150.80 C 128.47 151.83 129.56 152.39 130.59 152.07 Z M 131.56 151.76 L 132.56 151.44 C 133.59 151.12 134.16 150.03 133.84 149.00 C 133.51 147.98 132.42 147.41 131.40 147.73 L 130.39 148.05 C 129.37 148.37 128.80 149.46 129.12 150.49 C 129.44 151.51 130.54 152.08 131.56 151.76 Z M 132.56 151.45 L 133.48 151.16 C 134.50 150.84 135.08 149.75 134.76 148.72 C 134.44 147.69 133.34 147.12 132.32 147.44 L 131.40 147.73 C 130.37 148.05 129.80 149.14 130.12 150.17 C 130.44 151.19 131.53 151.77 132.56 151.45 Z M 133.47 151.17 L 134.41 150.87 C 135.44 150.56 136.02 149.47 135.70 148.44 C 135.38 147.41 134.29 146.83 133.26 147.15 L 132.32 147.44 C 131.29 147.76 130.71 148.85 131.03 149.88 C 131.35 150.91 132.44 151.48 133.47 151.17 Z M 134.41 150.88 L 135.37 150.58 C 136.40 150.27 136.98 149.18 136.66 148.15 C 136.35 147.11 135.26 146.54 134.22 146.85 L 133.27 147.14 C 132.23 147.46 131.65 148.55 131.97 149.58 C 132.29 150.61 133.38 151.19 134.41 150.88 Z M 135.37 150.59 L 136.34 150.29 C 137.37 149.98 137.95 148.89 137.64 147.85 C 137.32 146.82 136.23 146.24 135.20 146.55 L 134.23 146.85 C 133.20 147.16 132.61 148.25 132.93 149.29 C 133.24 150.32 134.33 150.90 135.37 150.59 Z M 136.33 150.29 L 137.31 150.00 C 138.35 149.68 138.93 148.59 138.62 147.56 C 138.30 146.53 137.21 145.94 136.18 146.25 L 135.20 146.55 C 134.17 146.86 133.58 147.95 133.90 148.99 C 134.21 150.02 135.30 150.61 136.33 150.29 Z M 137.31 150.00 L 138.29 149.71 C 139.32 149.39 139.91 148.30 139.60 147.27 C 139.29 146.23 138.19 145.65 137.16 145.96 L 136.18 146.25 C 135.15 146.56 134.56 147.65 134.87 148.69 C 135.18 149.72 136.27 150.31 137.31 150.00 Z M 138.28 149.71 L 139.26 149.41 C 140.30 149.10 140.89 148.01 140.58 146.98 C 140.27 145.94 139.18 145.35 138.14 145.66 L 137.16 145.96 C 136.12 146.27 135.54 147.36 135.85 148.39 C 136.16 149.43 137.25 150.02 138.28 149.71 Z M 139.26 149.42 L 140.23 149.13 C 141.27 148.82 141.86 147.72 141.55 146.69 C 141.24 145.65 140.15 145.06 139.11 145.37 L 138.14 145.66 C 137.10 145.97 136.52 147.06 136.83 148.10 C 137.13 149.14 138.23 149.73 139.26 149.42 Z M 140.23 149.13 L 141.20 148.84 C 142.23 148.53 142.82 147.44 142.51 146.40 C 142.20 145.36 141.11 144.77 140.08 145.08 L 139.11 145.37 C 138.08 145.68 137.49 146.77 137.80 147.81 C 138.11 148.85 139.20 149.44 140.23 149.13 Z M 141.20 148.84 L 142.15 148.55 C 143.19 148.24 143.78 147.15 143.47 146.11 C 143.16 145.08 142.07 144.49 141.03 144.80 L 140.07 145.08 C 139.04 145.39 138.45 146.49 138.76 147.52 C 139.07 148.56 140.16 149.15 141.20 148.84 Z M 142.16 148.55 L 143.10 148.27 C 144.14 147.95 144.73 146.86 144.41 145.82 C 144.10 144.79 143.01 144.20 141.97 144.51 L 141.03 144.80 C 139.99 145.11 139.40 146.20 139.72 147.24 C 140.03 148.28 141.12 148.86 142.16 148.55 Z M 143.11 148.27 L 144.04 147.98 C 145.08 147.67 145.66 146.57 145.35 145.54 C 145.03 144.50 143.94 143.91 142.90 144.23 L 141.97 144.51 C 140.93 144.83 140.35 145.92 140.66 146.96 C 140.98 148.00 142.07 148.58 143.11 148.27 Z M 144.05 147.98 L 145.03 147.68 C 146.06 147.36 146.64 146.26 146.33 145.23 C 146.01 144.19 144.91 143.61 143.88 143.93 L 142.90 144.23 C 141.86 144.55 141.28 145.65 141.60 146.68 C 141.92 147.72 143.01 148.30 144.05 147.98 Z M 145.04 147.67 L 146.01 147.37 C 147.04 147.05 147.62 145.95 147.29 144.92 C 146.97 143.88 145.87 143.31 144.84 143.63 L 143.87 143.93 C 142.83 144.26 142.26 145.36 142.58 146.39 C 142.90 147.42 144.00 148.00 145.04 147.67 Z M 146.02 147.37 L 146.98 147.06 C 148.01 146.73 148.58 145.63 148.25 144.60 C 147.92 143.57 146.82 143.00 145.79 143.33 L 144.83 143.64 C 143.80 143.96 143.23 145.06 143.56 146.09 C 143.89 147.12 144.99 147.69 146.02 147.37 Z M 146.99 147.06 L 147.93 146.75 C 148.96 146.41 149.52 145.31 149.19 144.28 C 148.85 143.26 147.75 142.69 146.72 143.03 L 145.78 143.34 C 144.75 143.67 144.19 144.77 144.52 145.80 C 144.86 146.83 145.96 147.39 146.99 147.06 Z M 147.95 146.74 L 148.87 146.43 C 149.90 146.09 150.45 144.98 150.11 143.96 C 149.77 142.94 148.66 142.38 147.64 142.72 L 146.71 143.03 C 145.68 143.38 145.13 144.48 145.47 145.51 C 145.81 146.53 146.92 147.08 147.95 146.74 Z M 148.89 146.42 L 149.82 146.11 C 150.84 145.76 151.38 144.65 151.03 143.63 C 150.68 142.61 149.57 142.06 148.55 142.41 L 147.62 142.73 C 146.60 143.08 146.06 144.19 146.41 145.21 C 146.76 146.23 147.87 146.78 148.89 146.42 Z M 149.83 146.10 L 150.78 145.76 C 151.80 145.40 152.33 144.29 151.97 143.27 C 151.61 142.26 150.50 141.73 149.48 142.09 L 148.53 142.42 C 147.52 142.78 146.98 143.89 147.34 144.91 C 147.70 145.93 148.82 146.46 149.83 146.10 Z M 150.79 145.76 L 151.73 145.42 C 152.74 145.05 153.27 143.93 152.90 142.92 C 152.53 141.91 151.42 141.39 150.41 141.75 L 149.47 142.09 C 148.46 142.46 147.93 143.58 148.30 144.59 C 148.67 145.60 149.78 146.12 150.79 145.76 Z M 151.74 145.41 L 152.67 145.07 C 153.68 144.70 154.20 143.58 153.83 142.57 C 153.46 141.57 152.34 141.05 151.33 141.42 L 150.40 141.76 C 149.39 142.13 148.87 143.25 149.24 144.25 C 149.61 145.26 150.73 145.78 151.74 145.41 Z M 152.67 145.06 L 153.61 144.72 C 154.61 144.35 155.13 143.24 154.76 142.23 C 154.39 141.22 153.27 140.71 152.27 141.08 L 151.33 141.42 C 150.33 141.79 149.81 142.91 150.18 143.91 C 150.55 144.92 151.67 145.43 152.67 145.06 Z M 153.60 144.72 L 154.54 144.37 C 155.55 144.01 156.06 142.89 155.70 141.89 C 155.33 140.88 154.22 140.37 153.21 140.74 L 152.27 141.08 C 151.27 141.45 150.75 142.56 151.12 143.57 C 151.48 144.57 152.60 145.09 153.60 144.72 Z M 154.53 144.37 L 155.45 144.04 C 156.46 143.68 156.98 142.57 156.61 141.56 C 156.25 140.56 155.14 140.04 154.14 140.40 L 153.22 140.74 C 152.21 141.10 151.69 142.21 152.06 143.21 C 152.42 144.22 153.53 144.74 154.53 144.37 Z M 155.44 144.04 L 156.37 143.71 C 157.38 143.35 157.90 142.25 157.54 141.24 C 157.18 140.24 156.08 139.71 155.07 140.07 L 154.15 140.40 C 153.14 140.76 152.62 141.87 152.97 142.87 C 153.33 143.88 154.44 144.40 155.44 144.04 Z M 156.36 143.71 L 157.30 143.38 C 158.31 143.03 158.84 141.93 158.48 140.92 C 158.13 139.91 157.02 139.39 156.02 139.74 L 155.08 140.07 C 154.07 140.42 153.54 141.53 153.90 142.53 C 154.25 143.54 155.36 144.07 156.36 143.71 Z M 157.29 143.39 L 158.24 143.06 C 159.25 142.71 159.78 141.61 159.43 140.60 C 159.08 139.59 157.98 139.06 156.98 139.41 L 156.03 139.74 C 155.02 140.09 154.49 141.19 154.84 142.20 C 155.19 143.20 156.29 143.74 157.29 143.39 Z M 158.24 143.06 L 159.20 142.73 C 160.21 142.38 160.74 141.28 160.40 140.28 C 160.05 139.27 158.96 138.73 157.95 139.08 L 156.98 139.41 C 155.98 139.75 155.44 140.85 155.78 141.86 C 156.13 142.87 157.23 143.40 158.24 143.06 Z M 159.19 142.73 L 160.15 142.40 C 161.16 142.06 161.70 140.97 161.36 139.96 C 161.02 138.95 159.93 138.41 158.92 138.75 L 157.96 139.07 C 156.95 139.42 156.41 140.51 156.75 141.52 C 157.09 142.53 158.18 143.07 159.19 142.73 Z M 160.15 142.40 L 161.08 142.09 C 162.09 141.75 162.63 140.66 162.30 139.65 C 161.96 138.64 160.87 138.10 159.86 138.44 L 158.93 138.75 C 157.92 139.09 157.37 140.18 157.71 141.19 C 158.05 142.20 159.14 142.74 160.15 142.40 Z M 161.07 142.09 L 162.02 141.78 C 163.03 141.44 163.57 140.36 163.24 139.35 C 162.91 138.34 161.82 137.79 160.81 138.12 L 159.87 138.44 C 158.86 138.77 158.31 139.86 158.64 140.87 C 158.98 141.88 160.07 142.42 161.07 142.09 Z M 162.01 141.78 L 162.96 141.47 C 163.97 141.14 164.52 140.05 164.19 139.04 C 163.86 138.03 162.78 137.48 161.77 137.81 L 160.82 138.12 C 159.81 138.45 159.26 139.54 159.59 140.55 C 159.92 141.56 161.00 142.11 162.01 141.78 Z M 162.96 141.47 L 163.91 141.16 C 164.92 140.83 165.48 139.75 165.15 138.74 C 164.82 137.73 163.74 137.18 162.73 137.50 L 161.77 137.81 C 160.77 138.14 160.21 139.22 160.54 140.23 C 160.87 141.24 161.95 141.79 162.96 141.47 Z M 163.91 141.16 L 164.87 140.85 C 165.88 140.52 166.43 139.44 166.11 138.43 C 165.79 137.43 164.71 136.87 163.70 137.19 L 162.74 137.50 C 161.73 137.83 161.17 138.91 161.50 139.92 C 161.82 140.92 162.90 141.48 163.91 141.16 Z M 164.87 140.85 L 165.85 140.53 C 166.86 140.21 167.41 139.14 167.09 138.13 C 166.77 137.12 165.69 136.56 164.68 136.88 L 163.70 137.20 C 162.70 137.52 162.14 138.59 162.46 139.60 C 162.78 140.61 163.86 141.17 164.87 140.85 Z M 165.84 140.53 L 166.85 140.21 C 167.86 139.89 168.42 138.82 168.10 137.81 C 167.78 136.81 166.71 136.25 165.70 136.57 L 164.69 136.89 C 163.68 137.20 163.12 138.28 163.44 139.28 C 163.76 140.29 164.84 140.85 165.84 140.53 Z M 166.85 140.21 L 167.84 139.90 C 168.85 139.58 169.41 138.51 169.09 137.50 C 168.78 136.50 167.70 135.94 166.70 136.26 L 165.70 136.57 C 164.70 136.89 164.14 137.96 164.45 138.96 C 164.77 139.97 165.84 140.53 166.85 140.21 Z M 167.84 139.89 L 168.81 139.59 C 169.81 139.28 170.37 138.21 170.06 137.20 C 169.74 136.20 168.67 135.64 167.67 135.96 L 166.70 136.26 C 165.70 136.57 165.14 137.64 165.45 138.65 C 165.77 139.65 166.84 140.21 167.84 139.89 Z M 168.81 139.59 L 169.74 139.29 C 170.74 138.98 171.30 137.91 170.98 136.91 C 170.67 135.91 169.60 135.35 168.60 135.67 L 167.67 135.96 C 166.67 136.27 166.11 137.34 166.43 138.34 C 166.74 139.34 167.81 139.90 168.81 139.59 Z M 169.74 139.29 L 170.62 139.01 C 171.62 138.70 172.18 137.63 171.86 136.63 C 171.55 135.63 170.48 135.08 169.48 135.39 L 168.60 135.67 C 167.60 135.99 167.05 137.05 167.36 138.05 C 167.68 139.05 168.74 139.61 169.74 139.29 Z M 170.62 139.01 L 171.63 138.69 C 172.63 138.37 173.18 137.31 172.87 136.31 C 172.55 135.31 171.49 134.76 170.49 135.08 L 169.48 135.40 C 168.48 135.72 167.93 136.78 168.25 137.78 C 168.56 138.77 169.63 139.32 170.62 139.01 Z M 171.64 138.68 L 172.64 138.36 C 173.63 138.04 174.18 136.98 173.86 135.99 C 173.55 135.00 172.49 134.45 171.49 134.76 L 170.49 135.09 C 169.50 135.40 168.95 136.46 169.27 137.46 C 169.58 138.45 170.64 139.00 171.64 138.68 Z M 172.63 138.35 L 173.56 138.06 C 174.55 137.75 175.10 136.69 174.79 135.70 C 174.47 134.71 173.42 134.16 172.43 134.48 L 171.50 134.77 C 170.51 135.08 169.96 136.14 170.27 137.13 C 170.59 138.12 171.64 138.67 172.63 138.35 Z M 173.55 138.06 L 174.43 137.78 C 175.42 137.48 175.97 136.43 175.66 135.44 C 175.36 134.46 174.31 133.90 173.32 134.21 L 172.44 134.48 C 171.46 134.78 170.90 135.83 171.21 136.82 C 171.51 137.81 172.56 138.36 173.55 138.06 Z M 174.40 137.78 L 175.32 137.51 C 176.30 137.22 176.87 136.19 176.58 135.20 C 176.28 134.21 175.25 133.65 174.26 133.94 L 173.35 134.21 C 172.36 134.50 171.80 135.54 172.09 136.52 C 172.38 137.51 173.42 138.08 174.40 137.78 Z M 175.28 137.51 L 176.24 137.25 C 177.23 136.97 177.81 135.95 177.53 134.96 C 177.26 133.98 176.24 133.40 175.25 133.67 L 174.29 133.94 C 173.30 134.21 172.73 135.24 173.00 136.22 C 173.27 137.21 174.30 137.79 175.28 137.51 Z M 176.21 137.25 L 177.17 137.00 C 178.16 136.74 178.75 135.74 178.50 134.75 C 178.24 133.76 177.24 133.17 176.25 133.42 L 175.28 133.67 C 174.30 133.93 173.70 134.93 173.96 135.92 C 174.21 136.91 175.22 137.50 176.21 137.25 Z M 177.13 137.00 L 178.11 136.77 C 179.10 136.53 179.71 135.54 179.48 134.55 C 179.24 133.57 178.25 132.96 177.27 133.19 L 176.29 133.42 C 175.30 133.66 174.69 134.65 174.92 135.64 C 175.16 136.62 176.15 137.23 177.13 137.00 Z M 178.08 136.76 L 179.04 136.56 C 180.03 136.34 180.65 135.37 180.44 134.38 C 180.22 133.40 179.25 132.77 178.27 132.98 L 177.30 133.19 C 176.32 133.41 175.69 134.38 175.90 135.37 C 176.12 136.35 177.09 136.98 178.08 136.76 Z M 179.01 136.55 L 179.98 136.36 C 180.97 136.16 181.61 135.21 181.41 134.22 C 181.22 133.24 180.26 132.60 179.28 132.79 L 178.30 132.99 C 177.32 133.18 176.68 134.14 176.87 135.12 C 177.07 136.11 178.02 136.75 179.01 136.55 Z M 179.95 136.36 L 180.94 136.18 C 181.92 136.00 182.58 135.06 182.40 134.08 C 182.22 133.10 181.28 132.44 180.30 132.62 L 179.31 132.80 C 178.33 132.97 177.67 133.91 177.85 134.90 C 178.03 135.88 178.97 136.53 179.95 136.36 Z M 180.91 136.17 L 181.91 136.01 C 182.89 135.85 183.56 134.93 183.40 133.95 C 183.24 132.97 182.31 132.30 181.33 132.46 L 180.33 132.62 C 179.35 132.78 178.69 133.71 178.84 134.69 C 179.00 135.67 179.93 136.33 180.91 136.17 Z M 181.88 136.01 L 182.88 135.86 C 183.86 135.72 184.54 134.81 184.40 133.83 C 184.26 132.86 183.35 132.18 182.37 132.32 L 181.37 132.47 C 180.39 132.61 179.71 133.51 179.85 134.49 C 179.99 135.47 180.90 136.15 181.88 136.01 Z M 182.86 135.85 L 183.86 135.72 C 184.83 135.60 185.52 134.70 185.39 133.73 C 185.27 132.76 184.38 132.07 183.40 132.20 L 182.40 132.33 C 181.43 132.45 180.74 133.35 180.87 134.32 C 180.99 135.29 181.88 135.98 182.86 135.85 Z M 183.84 135.72 L 184.83 135.60 C 185.80 135.48 186.49 134.60 186.38 133.64 C 186.26 132.67 185.38 131.97 184.41 132.09 L 183.42 132.21 C 182.45 132.32 181.76 133.20 181.88 134.17 C 181.99 135.14 182.87 135.83 183.84 135.72 Z M 184.81 135.59 L 185.78 135.48 C 186.75 135.38 187.44 134.51 187.34 133.55 C 187.23 132.58 186.36 131.88 185.40 131.99 L 184.43 132.10 C 183.47 132.20 182.77 133.07 182.88 134.03 C 182.98 135.00 183.85 135.69 184.81 135.59 Z M 185.77 135.47 L 186.81 135.37 C 187.77 135.27 188.47 134.41 188.37 133.45 C 188.27 132.49 187.41 131.79 186.45 131.89 L 185.41 132.00 C 184.45 132.10 183.76 132.96 183.86 133.92 C 183.95 134.87 184.81 135.57 185.77 135.47 Z M 186.80 135.35 L 187.80 135.26 C 188.75 135.17 189.45 134.32 189.36 133.37 C 189.27 132.41 188.42 131.72 187.47 131.81 L 186.46 131.90 C 185.51 132.00 184.81 132.84 184.91 133.80 C 185.00 134.75 185.84 135.45 186.80 135.35 Z M 187.79 135.25 L 188.76 135.16 C 189.70 135.08 190.40 134.24 190.32 133.29 C 190.24 132.35 189.40 131.65 188.45 131.73 L 187.48 131.82 C 186.54 131.90 185.84 132.74 185.92 133.68 C 186.00 134.63 186.84 135.33 187.79 135.25 Z M 188.74 135.15 L 189.74 135.07 C 190.68 134.99 191.38 134.17 191.30 133.23 C 191.23 132.29 190.40 131.59 189.46 131.66 L 188.47 131.74 C 187.53 131.82 186.83 132.64 186.90 133.58 C 186.98 134.52 187.80 135.23 188.74 135.15 Z M 189.72 135.06 L 190.74 134.99 C 191.67 134.92 192.38 134.11 192.31 133.18 C 192.25 132.25 191.44 131.54 190.51 131.61 L 189.48 131.68 C 188.55 131.74 187.85 132.55 187.91 133.48 C 187.97 134.42 188.78 135.12 189.72 135.06 Z M 190.71 134.97 L 191.70 134.92 C 192.62 134.87 193.33 134.08 193.28 133.15 C 193.23 132.22 192.44 131.52 191.51 131.57 L 190.53 131.62 C 189.60 131.67 188.90 132.46 188.95 133.39 C 189.00 134.31 189.79 135.02 190.71 134.97 Z M 191.66 134.90 L 192.66 134.87 C 193.58 134.83 194.30 134.06 194.26 133.15 C 194.23 132.23 193.46 131.51 192.54 131.54 L 191.54 131.58 C 190.63 131.61 189.91 132.39 189.94 133.30 C 189.98 134.22 190.75 134.94 191.66 134.90 Z M 192.60 134.85 L 193.64 134.85 C 194.55 134.86 195.29 134.12 195.29 133.21 C 195.29 132.30 194.56 131.56 193.65 131.56 L 192.60 131.56 C 191.69 131.56 190.95 132.29 190.95 133.20 C 190.95 134.11 191.69 134.85 192.60 134.85 Z M 193.50 134.83 L 194.46 134.92 C 195.35 134.99 196.14 134.33 196.22 133.43 C 196.30 132.53 195.64 131.74 194.74 131.67 L 193.78 131.58 C 192.89 131.50 192.10 132.17 192.02 133.07 C 191.94 133.96 192.60 134.75 193.50 134.83 Z M 194.21 134.85 L 195.17 135.10 C 196.04 135.31 196.91 134.78 197.13 133.92 C 197.34 133.06 196.82 132.18 195.95 131.97 L 194.99 131.73 C 194.12 131.51 193.25 132.04 193.03 132.90 C 192.82 133.77 193.34 134.64 194.21 134.85 Z M 194.94 134.99 L 195.85 135.38 C 196.65 135.72 197.59 135.34 197.93 134.54 C 198.27 133.73 197.90 132.80 197.09 132.45 L 196.18 132.07 C 195.38 131.73 194.45 132.10 194.10 132.91 C 193.76 133.72 194.14 134.65 194.94 134.99 Z M 195.77 135.32 L 196.17 135.52 C 196.94 135.90 197.88 135.58 198.27 134.81 C 198.65 134.03 198.33 133.09 197.56 132.70 L 197.16 132.51 C 196.39 132.13 195.45 132.44 195.06 133.22 C 194.68 134.00 195.00 134.94 195.77 135.32 Z"
      fill="black"
      fill-rule="nonzero" /><path d="M 158.05 121.49 L 156.96 121.34 C 156.09 121.22 155.29 121.83 155.17 122.69 C 155.05 123.56 155.66 124.36 156.52 124.48 L 157.62 124.63 C 158.48 124.75 159.29 124.15 159.41 123.28 C 159.53 122.41 158.92 121.61 158.05 121.49 Z M 156.74 121.33 L 155.76 121.33 C 154.89 121.33 154.18 122.04 154.18 122.91 C 154.18 123.79 154.89 124.50 155.76 124.50 L 156.74 124.50 C 157.62 124.50 158.33 123.79 158.33 122.91 C 158.33 122.04 157.62 121.33 156.74 121.33 Z M 155.14 121.45 L 154.33 121.79 C 153.52 122.13 153.15 123.07 153.49 123.88 C 153.84 124.69 154.77 125.06 155.58 124.72 L 156.39 124.38 C 157.20 124.03 157.57 123.10 157.23 122.29 C 156.88 121.48 155.95 121.10 155.14 121.45 Z M 153.62 122.33 L 153.06 123.13 C 152.55 123.87 152.73 124.88 153.47 125.39 C 154.21 125.91 155.23 125.72 155.74 124.99 L 156.30 124.18 C 156.81 123.44 156.63 122.43 155.89 121.92 C 155.15 121.40 154.13 121.59 153.62 122.33 Z M 152.82 123.49 L 152.48 124.46 C 152.16 125.33 152.62 126.29 153.49 126.60 C 154.36 126.91 155.32 126.46 155.63 125.59 L 155.98 124.62 C 156.29 123.75 155.84 122.79 154.97 122.48 C 154.10 122.17 153.14 122.62 152.82 123.49 Z M 152.41 124.57 L 152.15 125.52 C 151.90 126.43 152.43 127.37 153.34 127.62 C 154.25 127.87 155.19 127.34 155.44 126.43 L 155.70 125.48 C 155.95 124.57 155.42 123.63 154.51 123.38 C 153.60 123.13 152.66 123.66 152.41 124.57 Z M 152.11 125.61 L 151.90 126.57 C 151.70 127.49 152.28 128.41 153.21 128.62 C 154.14 128.82 155.06 128.24 155.26 127.31 L 155.47 126.35 C 155.68 125.42 155.09 124.50 154.16 124.30 C 153.24 124.09 152.32 124.68 152.11 125.61 Z M 151.88 126.62 L 151.71 127.55 C 151.53 128.49 152.15 129.39 153.09 129.57 C 154.03 129.74 154.93 129.12 155.11 128.18 L 155.28 127.26 C 155.46 126.32 154.84 125.41 153.90 125.24 C 152.96 125.06 152.06 125.68 151.88 126.62 Z M 151.70 127.58 L 151.52 128.61 C 151.36 129.56 152.00 130.45 152.94 130.61 C 153.89 130.77 154.78 130.13 154.94 129.19 L 155.12 128.15 C 155.28 127.21 154.64 126.31 153.70 126.16 C 152.75 126.00 151.86 126.63 151.70 127.58 Z M 151.52 128.63 L 151.37 129.55 C 151.22 130.50 151.86 131.39 152.81 131.54 C 153.76 131.69 154.65 131.05 154.80 130.10 L 154.95 129.17 C 155.10 128.22 154.45 127.33 153.51 127.18 C 152.56 127.03 151.67 127.68 151.52 128.63 Z M 151.36 129.57 L 151.22 130.52 C 151.08 131.47 151.73 132.36 152.68 132.50 C 153.63 132.65 154.52 131.99 154.66 131.04 L 154.81 130.09 C 154.95 129.14 154.30 128.25 153.35 128.11 C 152.40 127.96 151.51 128.62 151.36 129.57 Z M 151.22 130.54 L 151.06 131.59 C 150.93 132.54 151.59 133.43 152.54 133.56 C 153.49 133.70 154.38 133.04 154.51 132.09 L 154.67 131.03 C 154.80 130.08 154.14 129.20 153.19 129.06 C 152.24 128.92 151.35 129.58 151.22 130.54 Z M 151.06 131.60 L 150.93 132.59 C 150.80 133.54 151.47 134.42 152.42 134.55 C 153.37 134.68 154.25 134.01 154.38 133.06 L 154.52 132.07 C 154.65 131.12 153.98 130.24 153.02 130.11 C 152.07 129.98 151.19 130.65 151.06 131.60 Z M 150.93 132.60 L 150.80 133.55 C 150.68 134.50 151.35 135.38 152.31 135.50 C 153.26 135.62 154.14 134.95 154.26 133.99 L 154.38 133.05 C 154.51 132.09 153.83 131.22 152.88 131.09 C 151.92 130.97 151.05 131.64 150.93 132.60 Z M 150.80 133.56 L 150.68 134.56 C 150.56 135.51 151.24 136.38 152.20 136.50 C 153.15 136.62 154.02 135.94 154.14 134.98 L 154.26 133.98 C 154.38 133.03 153.70 132.16 152.75 132.04 C 151.79 131.92 150.92 132.60 150.80 133.56 Z M 150.68 134.57 L 150.56 135.61 C 150.44 136.57 151.13 137.44 152.08 137.55 C 153.04 137.66 153.91 136.98 154.02 136.02 L 154.14 134.97 C 154.25 134.02 153.57 133.15 152.61 133.04 C 151.66 132.93 150.79 133.61 150.68 134.57 Z M 150.55 135.63 L 150.44 136.64 C 150.34 137.60 151.03 138.46 151.98 138.56 C 152.94 138.67 153.80 137.98 153.91 137.02 L 154.02 136.01 C 154.13 135.05 153.44 134.19 152.48 134.08 C 151.52 133.98 150.66 134.67 150.55 135.63 Z M 150.44 136.65 L 150.34 137.61 C 150.24 138.57 150.93 139.42 151.89 139.53 C 152.85 139.63 153.71 138.93 153.81 137.97 L 153.91 137.01 C 154.01 136.06 153.31 135.20 152.36 135.10 C 151.40 135.00 150.54 135.69 150.44 136.65 Z M 150.34 137.62 L 150.24 138.60 C 150.14 139.56 150.84 140.41 151.80 140.51 C 152.75 140.61 153.61 139.91 153.71 138.95 L 153.81 137.97 C 153.90 137.01 153.21 136.16 152.25 136.06 C 151.29 135.96 150.44 136.66 150.34 137.62 Z M 150.24 138.60 L 150.14 139.61 C 150.05 140.57 150.74 141.42 151.70 141.52 C 152.66 141.61 153.51 140.91 153.60 139.96 L 153.70 138.95 C 153.80 137.99 153.10 137.14 152.15 137.05 C 151.19 136.95 150.34 137.65 150.24 138.60 Z M 150.14 139.61 L 150.04 140.65 C 149.95 141.60 150.64 142.45 151.60 142.55 C 152.56 142.64 153.41 141.94 153.50 140.99 L 153.60 139.96 C 153.70 139.00 153.00 138.15 152.04 138.06 C 151.09 137.96 150.24 138.66 150.14 139.61 Z M 150.04 140.65 L 149.95 141.63 C 149.85 142.59 150.55 143.44 151.50 143.53 C 152.46 143.63 153.31 142.93 153.40 141.97 L 153.50 140.99 C 153.59 140.03 152.90 139.18 151.94 139.09 C 150.99 138.99 150.14 139.69 150.04 140.65 Z M 149.95 141.63 L 149.85 142.61 C 149.76 143.56 150.45 144.41 151.41 144.50 C 152.36 144.60 153.21 143.90 153.30 142.95 L 153.40 141.98 C 153.49 141.02 152.80 140.17 151.85 140.08 C 150.89 139.98 150.04 140.68 149.95 141.63 Z M 149.85 142.61 L 149.75 143.60 C 149.66 144.55 150.35 145.40 151.30 145.49 C 152.26 145.59 153.11 144.89 153.20 143.94 L 153.30 142.95 C 153.40 142.00 152.70 141.15 151.75 141.05 C 150.80 140.96 149.95 141.65 149.85 142.61 Z M 149.76 143.59 L 149.65 144.60 C 149.56 145.55 150.25 146.40 151.20 146.49 C 152.15 146.59 153.00 145.90 153.10 144.95 L 153.20 143.94 C 153.30 142.99 152.60 142.14 151.65 142.05 C 150.70 141.95 149.85 142.64 149.76 143.59 Z M 149.66 144.60 L 149.55 145.61 C 149.46 146.56 150.15 147.41 151.10 147.51 C 152.05 147.61 152.89 146.92 152.99 145.97 L 153.10 144.95 C 153.19 144.00 152.50 143.15 151.55 143.05 C 150.60 142.96 149.75 143.65 149.66 144.60 Z M 149.55 145.61 L 149.45 146.62 C 149.35 147.57 150.04 148.41 150.99 148.51 C 151.94 148.61 152.79 147.92 152.89 146.97 L 152.99 145.97 C 153.09 145.02 152.40 144.17 151.45 144.07 C 150.50 143.97 149.65 144.66 149.55 145.61 Z M 149.45 146.61 L 149.35 147.60 C 149.25 148.55 149.94 149.40 150.88 149.49 C 151.83 149.59 152.68 148.91 152.78 147.96 L 152.89 146.98 C 152.99 146.03 152.30 145.18 151.35 145.08 C 150.40 144.98 149.55 145.67 149.45 146.61 Z M 149.35 147.59 L 149.24 148.58 C 149.14 149.53 149.83 150.38 150.78 150.49 C 151.73 150.59 152.58 149.90 152.68 148.95 L 152.78 147.96 C 152.88 147.01 152.20 146.16 151.25 146.06 C 150.30 145.96 149.45 146.64 149.35 147.59 Z M 149.24 148.58 L 149.13 149.58 C 149.03 150.53 149.72 151.38 150.67 151.48 C 151.62 151.58 152.47 150.90 152.57 149.95 L 152.68 148.95 C 152.78 148.00 152.09 147.15 151.14 147.05 C 150.20 146.94 149.34 147.63 149.24 148.58 Z M 149.13 149.57 L 149.02 150.58 C 148.92 151.53 149.60 152.38 150.56 152.49 C 151.51 152.59 152.36 151.90 152.46 150.95 L 152.57 149.95 C 152.68 149.00 151.99 148.15 151.04 148.04 C 150.09 147.94 149.24 148.62 149.13 149.57 Z M 149.02 150.57 L 148.91 151.58 C 148.80 152.53 149.49 153.39 150.44 153.49 C 151.39 153.60 152.25 152.91 152.35 151.96 L 152.47 150.95 C 152.57 150.00 151.88 149.15 150.93 149.04 C 149.98 148.94 149.13 149.62 149.02 150.57 Z M 148.91 151.58 L 148.80 152.56 C 148.69 153.52 149.38 154.37 150.33 154.48 C 151.28 154.59 152.14 153.90 152.24 152.95 L 152.35 151.96 C 152.46 151.01 151.78 150.16 150.83 150.05 C 149.87 149.94 149.02 150.63 148.91 151.58 Z M 148.80 152.56 L 148.69 153.55 C 148.58 154.50 149.26 155.36 150.21 155.47 C 151.16 155.57 152.02 154.89 152.13 153.94 L 152.24 152.95 C 152.35 152.00 151.67 151.14 150.72 151.04 C 149.77 150.93 148.91 151.61 148.80 152.56 Z M 148.69 153.55 L 148.57 154.54 C 148.47 155.49 149.15 156.35 150.10 156.46 C 151.05 156.56 151.91 155.88 152.02 154.93 L 152.13 153.94 C 152.24 152.99 151.56 152.13 150.61 152.02 C 149.65 151.91 148.80 152.60 148.69 153.55 Z M 148.57 154.54 L 148.46 155.53 C 148.35 156.48 149.03 157.34 149.98 157.45 C 150.93 157.56 151.79 156.88 151.90 155.93 L 152.02 154.93 C 152.13 153.98 151.44 153.12 150.49 153.01 C 149.54 152.90 148.68 153.59 148.57 154.54 Z M 148.46 155.53 L 148.34 156.53 C 148.24 157.48 148.92 158.34 149.87 158.45 C 150.82 158.56 151.68 157.88 151.79 156.93 L 151.90 155.93 C 152.01 154.98 151.33 154.12 150.38 154.01 C 149.43 153.90 148.57 154.58 148.46 155.53 Z M 148.34 156.53 L 148.23 157.54 C 148.12 158.49 148.80 159.35 149.75 159.46 C 150.71 159.56 151.56 158.88 151.67 157.93 L 151.79 156.93 C 151.90 155.98 151.21 155.12 150.26 155.01 C 149.31 154.90 148.45 155.58 148.34 156.53 Z M 148.23 157.54 L 148.12 158.52 C 148.01 159.47 148.69 160.33 149.64 160.44 C 150.59 160.55 151.45 159.87 151.56 158.92 L 151.67 157.93 C 151.78 156.98 151.10 156.12 150.15 156.01 C 149.20 155.90 148.34 156.59 148.23 157.54 Z M 148.12 158.52 L 148.01 159.51 C 147.90 160.46 148.58 161.32 149.53 161.43 C 150.48 161.54 151.34 160.86 151.45 159.91 L 151.56 158.92 C 151.67 157.96 150.99 157.11 150.04 157.00 C 149.08 156.89 148.23 157.57 148.12 158.52 Z M 148.01 159.51 L 147.89 160.51 C 147.78 161.46 148.47 162.32 149.42 162.42 C 150.37 162.53 151.23 161.85 151.33 160.90 L 151.45 159.91 C 151.56 158.96 150.87 158.10 149.92 157.99 C 148.97 157.88 148.11 158.56 148.01 159.51 Z M 147.89 160.51 L 147.78 161.50 C 147.67 162.45 148.35 163.31 149.30 163.42 C 150.25 163.53 151.11 162.85 151.22 161.90 L 151.33 160.90 C 151.44 159.95 150.76 159.09 149.81 158.98 C 148.86 158.87 148.00 159.56 147.89 160.51 Z M 147.78 161.50 L 147.66 162.50 C 147.55 163.45 148.23 164.31 149.18 164.42 C 150.13 164.53 150.99 163.85 151.10 162.90 L 151.22 161.90 C 151.33 160.95 150.65 160.09 149.70 159.98 C 148.75 159.87 147.89 160.55 147.78 161.50 Z M 147.67 162.50 L 147.55 163.50 C 147.44 164.45 148.11 165.31 149.06 165.42 C 150.01 165.54 150.87 164.86 150.98 163.91 L 151.10 162.90 C 151.21 161.95 150.53 161.09 149.58 160.98 C 148.64 160.87 147.78 161.55 147.67 162.50 Z M 147.55 163.50 L 147.43 164.54 C 147.31 165.49 147.99 166.35 148.94 166.46 C 149.88 166.57 150.74 165.90 150.86 164.95 L 150.98 163.91 C 151.09 162.96 150.42 162.10 149.47 161.99 C 148.52 161.88 147.66 162.55 147.55 163.50 Z M 147.43 164.54 L 147.30 165.56 C 147.19 166.51 147.86 167.37 148.81 167.48 C 149.76 167.60 150.62 166.92 150.73 165.98 L 150.85 164.95 C 150.97 164.00 150.29 163.14 149.35 163.03 C 148.40 162.91 147.54 163.59 147.43 164.54 Z M 147.31 165.56 L 147.18 166.57 C 147.07 167.51 147.74 168.37 148.69 168.49 C 149.63 168.60 150.49 167.93 150.61 166.98 L 150.73 165.98 C 150.84 165.03 150.17 164.17 149.23 164.06 C 148.28 163.94 147.42 164.61 147.31 165.56 Z M 147.18 166.57 L 147.06 167.54 C 146.95 168.49 147.62 169.35 148.56 169.46 C 149.51 169.58 150.37 168.91 150.48 167.96 L 150.60 166.99 C 150.72 166.04 150.05 165.18 149.10 165.07 C 148.16 164.95 147.30 165.62 147.18 166.57 Z M 147.07 167.54 L 146.95 168.49 C 146.83 169.43 147.50 170.29 148.45 170.40 C 149.39 170.52 150.25 169.85 150.37 168.91 L 150.48 167.96 C 150.60 167.02 149.93 166.16 148.98 166.05 C 148.04 165.93 147.18 166.60 147.07 167.54 Z M 146.95 168.49 L 146.83 169.50 C 146.71 170.45 147.38 171.30 148.32 171.42 C 149.26 171.54 150.12 170.87 150.24 169.93 L 150.36 168.91 C 150.48 167.96 149.81 167.11 148.87 166.99 C 147.93 166.87 147.07 167.54 146.95 168.49 Z M 146.83 169.51 L 146.70 170.56 C 146.59 171.50 147.25 172.35 148.19 172.47 C 149.13 172.59 149.99 171.92 150.11 170.98 L 150.23 169.92 C 150.35 168.98 149.68 168.13 148.74 168.01 C 147.80 167.90 146.95 168.57 146.83 169.51 Z M 146.70 170.56 L 146.58 171.55 C 146.47 172.49 147.14 173.35 148.08 173.46 C 149.02 173.57 149.87 172.91 149.98 171.97 L 150.10 170.97 C 150.22 170.03 149.55 169.18 148.61 169.07 C 147.67 168.95 146.82 169.62 146.70 170.56 Z M 146.59 171.56 L 146.47 172.51 C 146.36 173.44 147.03 174.29 147.97 174.40 C 148.91 174.52 149.76 173.85 149.87 172.91 L 149.98 171.96 C 150.09 171.03 149.42 170.17 148.48 170.06 C 147.55 169.95 146.70 170.62 146.59 171.56 Z M 146.47 172.51 L 146.37 173.43 C 146.26 174.37 146.93 175.21 147.87 175.32 C 148.80 175.43 149.65 174.76 149.76 173.82 L 149.86 172.90 C 149.97 171.97 149.30 171.12 148.37 171.01 C 147.43 170.90 146.58 171.58 146.47 172.51 Z M 146.37 173.44 L 146.26 174.46 C 146.15 175.40 146.83 176.24 147.76 176.34 C 148.70 176.45 149.54 175.77 149.64 174.84 L 149.76 173.81 C 149.86 172.88 149.19 172.04 148.25 171.93 C 147.32 171.83 146.48 172.50 146.37 173.44 Z M 146.26 174.48 L 146.16 175.48 C 146.06 176.41 146.74 177.24 147.68 177.34 C 148.61 177.43 149.44 176.76 149.54 175.82 L 149.64 174.82 C 149.73 173.89 149.06 173.06 148.12 172.96 C 147.19 172.87 146.36 173.54 146.26 174.48 Z M 146.16 175.50 L 146.07 176.48 C 145.99 177.41 146.67 178.23 147.61 178.32 C 148.54 178.40 149.36 177.72 149.44 176.79 L 149.53 175.80 C 149.62 174.87 148.93 174.05 148.00 173.97 C 147.07 173.88 146.25 174.57 146.16 175.50 Z M 146.08 176.50 L 146.00 177.48 C 145.93 178.41 146.63 179.22 147.56 179.29 C 148.48 179.36 149.30 178.66 149.37 177.74 L 149.44 176.76 C 149.51 175.83 148.82 175.02 147.89 174.95 C 146.96 174.88 146.15 175.58 146.08 176.50 Z M 146.01 177.51 L 145.95 178.52 C 145.89 179.44 146.60 180.24 147.52 180.29 C 148.45 180.35 149.25 179.64 149.30 178.71 L 149.36 177.71 C 149.42 176.78 148.71 175.98 147.78 175.93 C 146.86 175.87 146.06 176.58 146.01 177.51 Z M 145.95 178.54 L 145.91 179.54 C 145.86 180.47 146.58 181.25 147.51 181.29 C 148.43 181.33 149.22 180.61 149.26 179.69 L 149.30 178.69 C 149.34 177.76 148.62 176.98 147.70 176.94 C 146.77 176.90 145.99 177.62 145.95 178.54 Z M 145.91 179.56 L 145.88 180.56 C 145.85 181.48 146.58 182.25 147.50 182.28 C 148.42 182.31 149.20 181.58 149.22 180.66 L 149.25 179.67 C 149.28 178.74 148.55 177.97 147.63 177.94 C 146.71 177.92 145.94 178.64 145.91 179.56 Z M 145.88 180.58 L 145.86 181.58 C 145.85 182.50 146.58 183.26 147.50 183.28 C 148.42 183.30 149.18 182.57 149.20 181.65 L 149.22 180.64 C 149.24 179.72 148.50 178.96 147.58 178.94 C 146.66 178.92 145.90 179.66 145.88 180.58 Z M 145.87 181.60 L 145.86 182.62 C 145.85 183.54 146.59 184.29 147.50 184.30 C 148.42 184.31 149.17 183.57 149.18 182.65 L 149.19 181.63 C 149.20 180.71 148.47 179.96 147.55 179.95 C 146.63 179.94 145.88 180.68 145.87 181.60 Z M 145.87 182.63 L 145.86 183.63 C 145.86 184.55 146.60 185.29 147.51 185.29 C 148.43 185.30 149.17 184.56 149.17 183.64 L 149.18 182.64 C 149.18 181.73 148.44 180.98 147.53 180.98 C 146.61 180.97 145.87 181.71 145.87 182.63 Z M 145.87 183.64 L 145.87 184.61 C 145.87 185.52 146.60 186.26 147.52 186.26 C 148.43 186.26 149.17 185.52 149.17 184.61 L 149.17 183.64 C 149.17 182.73 148.43 181.99 147.52 181.99 C 146.61 181.99 145.87 182.72 145.87 183.64 Z M 145.87 184.61 L 145.87 185.64 C 145.87 186.55 146.61 187.28 147.52 187.28 C 148.43 187.28 149.16 186.55 149.16 185.64 L 149.16 184.61 C 149.16 183.70 148.42 182.96 147.52 182.96 C 146.61 182.96 145.87 183.70 145.87 184.61 Z M 145.88 185.65 L 145.88 186.65 C 145.89 187.56 146.63 188.29 147.53 188.28 C 148.44 188.28 149.17 187.54 149.16 186.63 L 149.16 185.63 C 149.15 184.72 148.41 183.99 147.51 184.00 C 146.60 184.01 145.87 184.74 145.88 185.65 Z M 145.89 186.67 L 145.91 187.65 C 145.92 188.55 146.67 189.27 147.57 189.25 C 148.47 189.23 149.19 188.49 149.17 187.59 L 149.16 186.61 C 149.14 185.71 148.40 184.99 147.49 185.01 C 146.59 185.03 145.87 185.77 145.89 186.67 Z M 145.91 187.68 L 145.95 188.72 C 145.99 189.61 146.74 190.31 147.64 190.28 C 148.54 190.24 149.24 189.49 149.21 188.59 L 149.17 187.55 C 149.13 186.65 148.38 185.95 147.48 185.99 C 146.58 186.02 145.88 186.78 145.91 187.68 Z M 145.96 188.77 L 146.04 189.79 C 146.10 190.69 146.88 191.36 147.77 191.30 C 148.66 191.23 149.34 190.45 149.27 189.56 L 149.20 188.54 C 149.14 187.64 148.36 186.97 147.46 187.03 C 146.57 187.10 145.90 187.87 145.96 188.77 Z M 146.05 189.88 L 146.16 190.80 C 146.27 191.69 147.08 192.32 147.97 192.21 C 148.85 192.10 149.48 191.29 149.37 190.40 L 149.26 189.48 C 149.15 188.59 148.34 187.96 147.45 188.07 C 146.57 188.18 145.94 188.99 146.05 189.88 Z M 146.19 190.95 L 146.42 191.99 C 146.61 192.86 147.47 193.41 148.34 193.22 C 149.21 193.02 149.76 192.16 149.57 191.30 L 149.34 190.26 C 149.15 189.39 148.29 188.84 147.42 189.03 C 146.55 189.22 146.00 190.08 146.19 190.95 Z M 146.47 192.15 L 146.77 193.03 C 147.05 193.88 147.96 194.33 148.80 194.05 C 149.64 193.77 150.10 192.86 149.82 192.02 L 149.52 191.13 C 149.24 190.29 148.33 189.84 147.49 190.12 C 146.65 190.40 146.19 191.31 146.47 192.15 Z M 146.80 193.12 L 147.18 194.05 C 147.51 194.88 148.44 195.27 149.26 194.95 C 150.08 194.62 150.48 193.68 150.15 192.86 L 149.78 191.93 C 149.45 191.11 148.52 190.71 147.70 191.04 C 146.87 191.37 146.48 192.30 146.80 193.12 Z M 147.20 194.09 L 147.51 194.80 C 147.85 195.61 148.79 195.99 149.60 195.64 C 150.41 195.29 150.79 194.35 150.44 193.54 L 150.13 192.83 C 149.78 192.02 148.84 191.64 148.03 191.99 C 147.22 192.34 146.85 193.28 147.20 194.09 Z"
      fill="black"
      fill-rule="nonzero" /></svg>