<svg xmlns="http://www.w3.org/2000/svg" width="300" height="300" viewBox="0 0 300 300">
<path d="M 72.60 148.12 L 71.83 149.04 C 71.25 149.74 71.34 150.78 72.04 151.36 C 72.74 151.94 73.78 151.85 74.36 151.15 L 75.12 150.23 C 75.71 149.53 75.61 148.49 74.91 147.91 C 74.22 147.33 73.18 147.42 72.60 148.12 Z M 71.56 149.39 L 71.19 150.20 C 70.80 151.05 71.17 152.05 72.02 152.44 C 72.87 152.83 73.87 152.46 74.26 151.61 L 74.63 150.80 C 75.02 149.95 74.65 148.95 73.80 148.56 C 72.95 148.17 71.95 148.54 71.56 149.39 Z M 71.21 151.76 L 71.52 152.31 C 71.99 153.14 73.05 153.44 73.88 152.97 C 74.71 152.50 75.01 151.45 74.54 150.61 L 74.23 150.06 C 73.76 149.23 72.71 148.93 71.87 149.40 C 71.04 149.87 70.74 150.92 71.21 151.76 Z M 72.36 153.10 L 73.15 153.42 C 74.05 153.78 75.08 153.35 75.45 152.45 C 75.82 151.55 75.39 150.52 74.49 150.15 L 73.70 149.83 C 72.80 149.46 71.77 149.89 71.40 150.79 C 71.03 151.70 71.46 152.73 72.36 153.10 Z M 73.48 153.55 L 74.56 153.75 C 75.54 153.94 76.48 153.31 76.67 152.33 C 76.86 151.36 76.22 150.41 75.24 150.23 L 74.16 150.02 C 73.18 149.83 72.24 150.47 72.05 151.44 C 71.87 152.42 72.50 153.36 73.48 153.55 Z M 74.71 153.81 L 75.90 153.93 C 76.90 154.04 77.80 153.31 77.90 152.31 C 78.01 151.30 77.28 150.40 76.28 150.30 L 75.10 150.17 C 74.09 150.07 73.19 150.80 73.09 151.80 C 72.98 152.80 73.71 153.70 74.71 153.81 Z M 75.97 153.96 L 76.97 154.02 C 77.99 154.08 78.86 153.31 78.92 152.29 C 78.99 151.27 78.21 150.40 77.20 150.34 L 76.20 150.27 C 75.18 150.21 74.31 150.99 74.25 152.00 C 74.18 153.02 74.96 153.89 75.97 153.96 Z M 77.03 154.03 L 78.01 154.06 C 79.03 154.09 79.88 153.29 79.92 152.26 C 79.95 151.24 79.15 150.39 78.12 150.36 L 77.14 150.33 C 76.12 150.29 75.26 151.10 75.23 152.12 C 75.20 153.14 76.00 154.00 77.03 154.03 Z M 78.05 154.07 L 79.04 154.08 C 80.07 154.09 80.91 153.26 80.92 152.24 C 80.93 151.21 80.10 150.37 79.08 150.36 L 78.09 150.35 C 77.06 150.34 76.22 151.16 76.21 152.19 C 76.20 153.21 77.02 154.05 78.05 154.07 Z M 79.06 154.08 L 80.07 154.08 C 81.10 154.08 81.94 153.25 81.94 152.22 C 81.94 151.19 81.10 150.36 80.07 150.35 L 79.06 150.35 C 78.03 150.35 77.20 151.19 77.19 152.22 C 77.19 153.25 78.03 154.08 79.06 154.08 Z M 80.07 154.09 L 81.00 154.09 C 82.04 154.09 82.87 153.25 82.87 152.22 C 82.87 151.18 82.03 150.35 81.00 150.35 L 80.07 150.35 C 79.04 150.35 78.20 151.19 78.20 152.22 C 78.20 153.25 79.04 154.09 80.07 154.09 Z M 81.01 154.09 L 81.98 154.09 C 83.02 154.09 83.86 153.24 83.85 152.21 C 83.85 151.17 83.00 150.33 81.97 150.34 L 81.00 150.34 C 79.96 150.35 79.12 151.19 79.13 152.23 C 79.13 153.26 79.97 154.10 81.01 154.09 Z M 81.99 154.10 L 83.01 154.09 C 84.05 154.08 84.88 153.23 84.87 152.19 C 84.86 151.15 84.01 150.31 82.97 150.32 L 81.96 150.33 C 80.92 150.34 80.08 151.19 80.09 152.23 C 80.10 153.27 80.95 154.11 81.99 154.10 Z M 83.02 154.09 L 84.07 154.08 C 85.12 154.06 85.95 153.20 85.93 152.16 C 85.91 151.11 85.05 150.28 84.01 150.30 L 82.96 150.32 C 81.91 150.34 81.08 151.19 81.10 152.24 C 81.12 153.28 81.98 154.11 83.02 154.09 Z M 84.09 154.08 L 85.10 154.05 C 86.15 154.03 86.97 153.16 86.95 152.11 C 86.92 151.07 86.05 150.24 85.00 150.27 L 83.99 150.29 C 82.95 150.32 82.12 151.19 82.15 152.24 C 82.18 153.28 83.05 154.11 84.09 154.08 Z M 85.12 154.06 L 86.09 154.02 C 87.13 153.98 87.95 153.10 87.91 152.06 C 87.87 151.01 86.99 150.19 85.95 150.23 L 84.98 150.26 C 83.94 150.30 83.12 151.18 83.16 152.23 C 83.19 153.28 84.08 154.10 85.12 154.06 Z M 86.11 154.03 L 87.10 153.98 C 88.14 153.93 88.95 153.03 88.90 151.98 C 88.85 150.93 87.96 150.13 86.91 150.18 L 85.92 150.23 C 84.87 150.28 84.06 151.17 84.12 152.22 C 84.17 153.27 85.06 154.08 86.11 154.03 Z M 87.12 153.98 L 88.13 153.92 C 89.18 153.85 89.98 152.94 89.91 151.89 C 89.85 150.84 88.94 150.04 87.89 150.11 L 86.88 150.17 C 85.83 150.24 85.03 151.15 85.10 152.20 C 85.17 153.25 86.07 154.05 87.12 153.98 Z M 88.16 153.92 L 89.19 153.84 C 90.24 153.75 91.02 152.83 90.94 151.78 C 90.86 150.73 89.93 149.94 88.88 150.03 L 87.86 150.11 C 86.80 150.19 86.02 151.11 86.10 152.17 C 86.19 153.22 87.11 154.00 88.16 153.92 Z M 89.22 153.84 L 90.25 153.74 C 91.30 153.63 92.07 152.70 91.97 151.64 C 91.87 150.59 90.93 149.82 89.88 149.92 L 88.85 150.02 C 87.79 150.13 87.02 151.07 87.13 152.12 C 87.23 153.17 88.17 153.94 89.22 153.84 Z M 90.29 153.74 L 91.24 153.63 C 92.29 153.50 93.04 152.55 92.92 151.50 C 92.80 150.44 91.84 149.69 90.79 149.81 L 89.84 149.92 C 88.79 150.05 88.03 151.00 88.16 152.05 C 88.28 153.11 89.23 153.86 90.29 153.74 Z M 91.27 153.62 L 92.23 153.50 C 93.29 153.36 94.03 152.39 93.89 151.34 C 93.75 150.28 92.78 149.54 91.73 149.68 L 90.76 149.81 C 89.71 149.95 88.97 150.92 89.11 151.97 C 89.25 153.03 90.22 153.77 91.27 153.62 Z M 92.26 153.50 L 93.24 153.35 C 94.29 153.20 95.02 152.22 94.87 151.16 C 94.71 150.11 93.73 149.38 92.68 149.54 L 91.70 149.68 C 90.65 149.84 89.92 150.82 90.07 151.87 C 90.23 152.92 91.21 153.65 92.26 153.50 Z M 93.27 153.35 L 94.26 153.19 C 95.32 153.02 96.03 152.03 95.86 150.98 C 95.70 149.93 94.71 149.21 93.65 149.38 L 92.66 149.54 C 91.60 149.71 90.89 150.70 91.05 151.75 C 91.22 152.80 92.21 153.52 93.27 153.35 Z M 94.28 153.19 L 95.30 153.02 C 96.35 152.84 97.06 151.84 96.88 150.79 C 96.70 149.74 95.70 149.03 94.65 149.21 L 93.63 149.38 C 92.58 149.56 91.87 150.56 92.05 151.61 C 92.23 152.66 93.23 153.37 94.28 153.19 Z M 95.31 153.02 L 96.33 152.84 C 97.38 152.65 98.08 151.64 97.90 150.59 C 97.71 149.54 96.70 148.84 95.65 149.02 L 94.63 149.21 C 93.58 149.39 92.88 150.40 93.07 151.45 C 93.26 152.51 94.26 153.21 95.31 153.02 Z M 96.34 152.84 L 97.28 152.67 C 98.33 152.47 99.03 151.46 98.83 150.41 C 98.64 149.35 97.63 148.66 96.57 148.85 L 95.64 149.02 C 94.58 149.22 93.89 150.23 94.08 151.28 C 94.28 152.34 95.29 153.03 96.34 152.84 Z M 97.29 152.67 L 98.24 152.49 C 99.29 152.29 99.98 151.27 99.79 150.22 C 99.59 149.16 98.57 148.47 97.52 148.67 L 96.56 148.85 C 95.51 149.05 94.82 150.07 95.02 151.12 C 95.22 152.17 96.23 152.87 97.29 152.67 Z M 98.25 152.49 L 99.22 152.30 C 100.27 152.10 100.96 151.08 100.76 150.02 C 100.55 148.97 99.53 148.28 98.48 148.48 L 97.51 148.67 C 96.45 148.87 95.76 149.89 95.97 150.95 C 96.17 152.00 97.19 152.69 98.25 152.49 Z M 99.22 152.30 L 100.21 152.11 C 101.26 151.90 101.95 150.88 101.74 149.82 C 101.54 148.77 100.52 148.08 99.46 148.29 L 98.47 148.48 C 97.42 148.69 96.73 149.71 96.94 150.77 C 97.14 151.82 98.17 152.51 99.22 152.30 Z M 100.21 152.11 L 101.22 151.91 C 102.27 151.70 102.96 150.68 102.75 149.62 C 102.54 148.57 101.52 147.88 100.46 148.09 L 99.46 148.29 C 98.40 148.49 97.71 149.52 97.92 150.58 C 98.13 151.63 99.15 152.32 100.21 152.11 Z M 101.22 151.91 L 102.24 151.71 C 103.30 151.50 103.99 150.48 103.78 149.42 C 103.57 148.36 102.54 147.67 101.48 147.88 L 100.46 148.08 C 99.40 148.29 98.71 149.32 98.92 150.38 C 99.13 151.44 100.16 152.12 101.22 151.91 Z M 102.24 151.71 L 103.22 151.52 C 104.28 151.31 104.97 150.28 104.76 149.22 C 104.55 148.16 103.52 147.48 102.46 147.69 L 101.48 147.88 C 100.42 148.09 99.73 149.12 99.94 150.18 C 100.15 151.24 101.18 151.92 102.24 151.71 Z M 103.22 151.52 L 104.14 151.34 C 105.20 151.13 105.89 150.10 105.68 149.04 C 105.47 147.98 104.44 147.29 103.38 147.50 L 102.46 147.68 C 101.40 147.89 100.71 148.92 100.92 149.98 C 101.13 151.04 102.16 151.73 103.22 151.52 Z M 104.14 151.34 L 105.08 151.16 C 106.14 150.95 106.83 149.92 106.62 148.86 C 106.41 147.80 105.38 147.10 104.32 147.31 L 103.38 147.50 C 102.32 147.71 101.63 148.74 101.84 149.80 C 102.05 150.86 103.08 151.55 104.14 151.34 Z M 105.08 151.16 L 106.03 150.97 C 107.10 150.76 107.79 149.73 107.58 148.67 C 107.37 147.60 106.34 146.91 105.27 147.12 L 104.32 147.31 C 103.26 147.52 102.56 148.55 102.77 149.62 C 102.98 150.68 104.02 151.37 105.08 151.16 Z M 106.03 150.97 L 107.01 150.78 C 108.08 150.57 108.77 149.54 108.56 148.47 C 108.35 147.41 107.32 146.72 106.25 146.93 L 105.27 147.12 C 104.21 147.33 103.52 148.36 103.73 149.43 C 103.94 150.49 104.97 151.18 106.03 150.97 Z M 107.01 150.78 L 108.01 150.58 C 109.08 150.37 109.77 149.34 109.56 148.28 C 109.35 147.21 108.32 146.52 107.25 146.73 L 106.25 146.93 C 105.19 147.14 104.49 148.17 104.70 149.24 C 104.91 150.30 105.95 150.99 107.01 150.78 Z M 108.01 150.59 L 109.04 150.38 C 110.11 150.17 110.80 149.14 110.59 148.07 C 110.38 147.01 109.34 146.31 108.28 146.52 L 107.25 146.73 C 106.18 146.94 105.49 147.97 105.70 149.04 C 105.91 150.10 106.95 150.80 108.01 150.59 Z M 109.04 150.39 L 110.10 150.18 C 111.16 149.97 111.86 148.93 111.65 147.86 C 111.43 146.79 110.40 146.10 109.33 146.31 L 108.28 146.52 C 107.21 146.73 106.51 147.77 106.73 148.84 C 106.94 149.90 107.97 150.60 109.04 150.39 Z M 110.10 150.18 L 111.06 149.99 C 112.13 149.78 112.83 148.74 112.62 147.67 C 112.40 146.60 111.37 145.91 110.30 146.12 L 109.33 146.31 C 108.26 146.52 107.57 147.56 107.78 148.63 C 107.99 149.70 109.03 150.39 110.10 150.18 Z M 111.07 149.99 L 112.01 149.80 C 113.08 149.59 113.78 148.55 113.56 147.48 C 113.35 146.41 112.31 145.71 111.24 145.93 L 110.29 146.11 C 109.22 146.33 108.53 147.37 108.74 148.44 C 108.95 149.51 110.00 150.21 111.07 149.99 Z M 112.01 149.81 L 112.97 149.62 C 114.04 149.40 114.74 148.36 114.53 147.29 C 114.31 146.21 113.27 145.52 112.20 145.73 L 111.24 145.92 C 110.16 146.14 109.47 147.18 109.68 148.25 C 109.89 149.33 110.94 150.02 112.01 149.81 Z M 112.97 149.62 L 113.95 149.43 C 115.02 149.21 115.72 148.17 115.51 147.09 C 115.29 146.01 114.24 145.32 113.17 145.53 L 112.19 145.73 C 111.12 145.94 110.42 146.99 110.63 148.06 C 110.85 149.14 111.90 149.84 112.97 149.62 Z M 113.95 149.43 L 114.94 149.23 C 116.01 149.02 116.71 147.97 116.50 146.89 C 116.28 145.81 115.23 145.11 114.15 145.33 L 113.17 145.53 C 112.09 145.74 111.39 146.79 111.60 147.87 C 111.82 148.95 112.87 149.65 113.95 149.43 Z M 114.94 149.24 L 115.93 149.04 C 117.01 148.82 117.71 147.77 117.50 146.69 C 117.28 145.61 116.23 144.91 115.15 145.12 L 114.15 145.32 C 113.07 145.54 112.37 146.59 112.59 147.67 C 112.80 148.76 113.86 149.46 114.94 149.24 Z M 115.94 149.04 L 116.94 148.84 C 118.02 148.62 118.72 147.57 118.50 146.49 C 118.29 145.40 117.23 144.70 116.15 144.92 L 115.15 145.12 C 114.06 145.34 113.36 146.39 113.58 147.48 C 113.80 148.56 114.85 149.26 115.94 149.04 Z M 116.94 148.85 L 117.95 148.64 C 119.03 148.42 119.73 147.37 119.51 146.28 C 119.30 145.19 118.24 144.49 117.15 144.71 L 116.15 144.91 C 115.06 145.13 114.36 146.19 114.58 147.28 C 114.80 148.36 115.85 149.07 116.94 148.85 Z M 117.95 148.65 L 118.95 148.44 C 120.04 148.22 120.75 147.16 120.53 146.07 C 120.30 144.99 119.24 144.28 118.16 144.50 L 117.15 144.71 C 116.06 144.93 115.36 145.99 115.58 147.08 C 115.80 148.16 116.86 148.87 117.95 148.65 Z M 118.96 148.45 L 119.95 148.25 C 121.04 148.03 121.74 146.96 121.52 145.87 C 121.30 144.78 120.23 144.08 119.14 144.30 L 118.15 144.50 C 117.06 144.72 116.36 145.78 116.58 146.87 C 116.80 147.96 117.87 148.67 118.96 148.45 Z M 119.95 148.25 L 120.93 148.05 C 122.02 147.83 122.72 146.76 122.50 145.67 C 122.28 144.58 121.21 143.87 120.12 144.10 L 119.14 144.30 C 118.05 144.52 117.35 145.58 117.57 146.67 C 117.79 147.77 118.86 148.47 119.95 148.25 Z M 120.93 148.05 L 121.91 147.85 C 123.00 147.63 123.70 146.56 123.48 145.47 C 123.26 144.38 122.19 143.67 121.10 143.89 L 120.12 144.09 C 119.03 144.32 118.32 145.38 118.54 146.48 C 118.77 147.57 119.83 148.28 120.93 148.05 Z M 121.91 147.86 L 122.88 147.66 C 123.98 147.43 124.68 146.36 124.46 145.27 C 124.24 144.18 123.17 143.47 122.07 143.69 L 121.10 143.89 C 120.00 144.12 119.30 145.18 119.52 146.28 C 119.74 147.37 120.81 148.08 121.91 147.86 Z M 122.88 147.66 L 123.86 147.46 C 124.96 147.24 125.66 146.17 125.44 145.07 C 125.22 143.97 124.15 143.27 123.05 143.49 L 122.07 143.69 C 120.98 143.91 120.27 144.98 120.49 146.08 C 120.72 147.18 121.79 147.88 122.88 147.66 Z M 123.86 147.46 L 124.84 147.26 C 125.94 147.04 126.64 145.97 126.42 144.87 C 126.20 143.77 125.13 143.06 124.03 143.29 L 123.05 143.49 C 121.95 143.71 121.24 144.78 121.47 145.88 C 121.69 146.98 122.76 147.69 123.86 147.46 Z M 124.84 147.27 L 125.82 147.07 C 126.92 146.84 127.63 145.77 127.40 144.67 C 127.18 143.57 126.11 142.86 125.01 143.09 L 124.03 143.29 C 122.93 143.51 122.22 144.58 122.44 145.68 C 122.67 146.78 123.74 147.49 124.84 147.27 Z M 125.82 147.07 L 126.80 146.87 C 127.90 146.65 128.61 145.57 128.39 144.47 C 128.16 143.37 127.09 142.66 125.99 142.88 L 125.01 143.08 C 123.91 143.31 123.19 144.38 123.42 145.48 C 123.64 146.58 124.72 147.29 125.82 147.07 Z M 126.80 146.87 L 127.78 146.67 C 128.88 146.45 129.60 145.38 129.37 144.27 C 129.15 143.17 128.08 142.46 126.97 142.68 L 125.99 142.88 C 124.89 143.10 124.17 144.18 124.40 145.28 C 124.62 146.38 125.69 147.10 126.80 146.87 Z M 127.78 146.68 L 128.77 146.48 C 129.87 146.26 130.58 145.18 130.36 144.08 C 130.14 142.97 129.06 142.26 127.96 142.48 L 126.98 142.68 C 125.87 142.90 125.16 143.98 125.38 145.08 C 125.60 146.19 126.68 146.90 127.78 146.68 Z M 128.76 146.48 L 129.75 146.28 C 130.85 146.06 131.57 144.99 131.35 143.88 C 131.12 142.78 130.05 142.06 128.94 142.28 L 127.96 142.48 C 126.86 142.70 126.14 143.78 126.36 144.88 C 126.58 145.99 127.66 146.70 128.76 146.48 Z M 129.75 146.28 L 130.73 146.09 C 131.83 145.87 132.55 144.79 132.33 143.68 C 132.11 142.58 131.03 141.86 129.93 142.08 L 128.94 142.28 C 127.84 142.50 127.12 143.58 127.34 144.68 C 127.56 145.79 128.64 146.51 129.75 146.28 Z M 130.73 146.09 L 131.71 145.89 C 132.82 145.67 133.54 144.59 133.32 143.49 C 133.10 142.38 132.02 141.66 130.91 141.89 L 129.93 142.08 C 128.82 142.30 128.10 143.38 128.33 144.49 C 128.55 145.59 129.62 146.31 130.73 146.09 Z M 131.71 145.89 L 132.70 145.69 C 133.81 145.47 134.52 144.40 134.30 143.29 C 134.08 142.18 133.01 141.47 131.90 141.69 L 130.91 141.89 C 129.81 142.11 129.09 143.18 129.31 144.29 C 129.53 145.40 130.61 146.11 131.71 145.89 Z M 132.70 145.70 L 133.69 145.50 C 134.79 145.28 135.51 144.20 135.29 143.09 C 135.07 141.99 133.99 141.27 132.88 141.49 L 131.90 141.69 C 130.79 141.91 130.07 142.99 130.30 144.09 C 130.52 145.20 131.59 145.92 132.70 145.70 Z M 133.69 145.50 L 134.67 145.30 C 135.78 145.08 136.49 144.00 136.27 142.90 C 136.05 141.79 134.97 141.07 133.87 141.29 L 132.88 141.49 C 131.78 141.71 131.06 142.79 131.28 143.90 C 131.50 145.00 132.58 145.72 133.69 145.50 Z M 134.67 145.30 L 135.65 145.11 C 136.76 144.88 137.47 143.80 137.25 142.70 C 137.03 141.59 135.95 140.87 134.84 141.10 L 133.86 141.29 C 132.76 141.52 132.04 142.59 132.26 143.70 C 132.48 144.81 133.56 145.53 134.67 145.30 Z M 135.65 145.11 L 136.63 144.91 C 137.73 144.68 138.45 143.61 138.23 142.50 C 138.00 141.39 136.92 140.67 135.81 140.90 L 134.84 141.09 C 133.73 141.32 133.02 142.40 133.24 143.51 C 133.46 144.61 134.54 145.33 135.65 145.11 Z M 136.63 144.91 L 137.60 144.71 C 138.70 144.49 139.42 143.41 139.19 142.30 C 138.97 141.19 137.89 140.48 136.78 140.70 L 135.81 140.90 C 134.70 141.12 133.99 142.20 134.21 143.31 C 134.44 144.42 135.52 145.13 136.63 144.91 Z M 137.60 144.71 L 138.62 144.50 C 139.73 144.28 140.44 143.19 140.21 142.09 C 139.98 140.98 138.90 140.26 137.79 140.49 L 136.78 140.70 C 135.67 140.93 134.96 142.01 135.18 143.12 C 135.41 144.23 136.49 144.94 137.60 144.71 Z M 138.62 144.50 L 139.63 144.29 C 140.74 144.06 141.45 142.98 141.22 141.87 C 140.99 140.77 139.91 140.05 138.80 140.28 L 137.79 140.49 C 136.68 140.72 135.97 141.80 136.20 142.91 C 136.43 144.02 137.51 144.73 138.62 144.50 Z M 139.64 144.29 L 140.64 144.08 C 141.75 143.85 142.46 142.77 142.23 141.66 C 142.00 140.55 140.91 139.84 139.80 140.07 L 138.80 140.28 C 137.69 140.51 136.98 141.60 137.21 142.71 C 137.45 143.81 138.53 144.52 139.64 144.29 Z M 140.64 144.08 L 141.63 143.87 C 142.74 143.64 143.45 142.56 143.22 141.45 C 142.98 140.34 141.90 139.63 140.79 139.87 L 139.80 140.08 C 138.69 140.31 137.99 141.39 138.22 142.50 C 138.45 143.61 139.54 144.32 140.64 144.08 Z M 141.64 143.87 L 142.62 143.67 C 143.73 143.43 144.43 142.34 144.20 141.24 C 143.96 140.13 142.88 139.43 141.77 139.66 L 140.79 139.87 C 139.68 140.10 138.98 141.19 139.21 142.30 C 139.44 143.40 140.53 144.11 141.64 143.87 Z M 142.62 143.67 L 143.59 143.46 C 144.70 143.22 145.40 142.13 145.17 141.03 C 144.93 139.92 143.84 139.22 142.73 139.45 L 141.77 139.66 C 140.66 139.90 139.96 140.98 140.19 142.09 C 140.43 143.20 141.52 143.90 142.62 143.67 Z M 143.59 143.46 L 144.55 143.25 C 145.65 143.01 146.36 141.93 146.12 140.82 C 145.88 139.71 144.79 139.01 143.69 139.25 L 142.73 139.45 C 141.63 139.69 140.92 140.78 141.16 141.89 C 141.40 142.99 142.49 143.70 143.59 143.46 Z M 144.55 143.25 L 145.49 143.05 C 146.60 142.81 147.30 141.72 147.06 140.61 C 146.82 139.51 145.73 138.80 144.62 139.04 L 143.68 139.25 C 142.58 139.49 141.88 140.58 142.12 141.68 C 142.36 142.79 143.45 143.49 144.55 143.25 Z M 145.50 143.05 L 146.44 142.84 C 147.54 142.60 148.24 141.51 148.00 140.40 C 147.76 139.30 146.67 138.60 145.56 138.84 L 144.62 139.05 C 143.52 139.29 142.82 140.38 143.06 141.48 C 143.30 142.59 144.39 143.29 145.50 143.05 Z M 146.44 142.84 L 147.47 142.61 C 148.57 142.37 149.27 141.28 149.03 140.17 C 148.78 139.07 147.69 138.37 146.59 138.61 L 145.56 138.84 C 144.45 139.08 143.75 140.18 144.00 141.28 C 144.24 142.39 145.33 143.09 146.44 142.84 Z M 147.47 142.61 L 148.48 142.39 C 149.59 142.14 150.29 141.05 150.04 139.94 C 149.79 138.84 148.70 138.14 147.59 138.39 L 146.58 138.61 C 145.48 138.86 144.78 139.95 145.03 141.06 C 145.27 142.16 146.37 142.86 147.47 142.61 Z M 148.49 142.39 L 149.48 142.17 C 150.59 141.92 151.28 140.83 151.04 139.72 C 150.79 138.61 149.69 137.92 148.59 138.17 L 147.59 138.39 C 146.49 138.63 145.79 139.73 146.04 140.84 C 146.28 141.94 147.38 142.64 148.49 142.39 Z M 149.48 142.17 L 150.46 141.95 C 151.57 141.70 152.26 140.61 152.01 139.50 C 151.77 138.39 150.67 137.70 149.56 137.95 L 148.58 138.16 C 147.48 138.41 146.78 139.51 147.03 140.62 C 147.28 141.72 148.38 142.42 149.48 142.17 Z M 150.46 141.95 L 151.42 141.74 C 152.53 141.49 153.23 140.39 152.98 139.28 C 152.73 138.18 151.63 137.48 150.53 137.73 L 149.56 137.94 C 148.46 138.19 147.76 139.29 148.01 140.40 C 148.26 141.50 149.35 142.20 150.46 141.95 Z M 151.42 141.74 L 152.37 141.53 C 153.48 141.28 154.18 140.18 153.93 139.07 C 153.68 137.96 152.58 137.27 151.48 137.52 L 150.53 137.73 C 149.42 137.97 148.72 139.07 148.97 140.18 C 149.22 141.29 150.31 141.99 151.42 141.74 Z M 152.37 141.53 L 153.31 141.32 C 154.41 141.07 155.11 139.97 154.87 138.87 C 154.62 137.76 153.52 137.06 152.41 137.31 L 151.48 137.51 C 150.37 137.76 149.67 138.86 149.92 139.97 C 150.16 141.07 151.26 141.77 152.37 141.53 Z M 153.30 141.32 L 154.25 141.11 C 155.36 140.87 156.06 139.77 155.81 138.66 C 155.57 137.55 154.47 136.85 153.36 137.10 L 152.42 137.30 C 151.31 137.55 150.61 138.65 150.85 139.76 C 151.10 140.86 152.19 141.57 153.30 141.32 Z M 154.24 141.11 L 155.23 140.90 C 156.34 140.66 157.04 139.56 156.80 138.45 C 156.56 137.34 155.46 136.64 154.35 136.88 L 153.37 137.09 C 152.26 137.34 151.55 138.43 151.80 139.54 C 152.04 140.65 153.13 141.36 154.24 141.11 Z M 155.22 140.90 L 156.20 140.69 C 157.31 140.45 158.02 139.35 157.78 138.24 C 157.54 137.13 156.44 136.43 155.33 136.67 L 154.36 136.88 C 153.25 137.12 152.54 138.21 152.78 139.32 C 153.02 140.43 154.11 141.14 155.22 140.90 Z M 156.20 140.69 L 157.17 140.48 C 158.28 140.24 158.99 139.15 158.75 138.04 C 158.51 136.93 157.42 136.22 156.31 136.46 L 155.34 136.67 C 154.23 136.91 153.52 138.00 153.76 139.11 C 153.99 140.22 155.09 140.92 156.20 140.69 Z M 157.16 140.48 L 158.13 140.27 C 159.24 140.04 159.95 138.95 159.72 137.84 C 159.49 136.73 158.40 136.02 157.29 136.26 L 156.32 136.46 C 155.21 136.70 154.50 137.78 154.73 138.89 C 154.96 140.00 156.05 140.71 157.16 140.48 Z M 158.13 140.27 L 159.10 140.07 C 160.21 139.84 160.92 138.75 160.69 137.64 C 160.46 136.53 159.37 135.82 158.27 136.05 L 157.29 136.26 C 156.18 136.49 155.47 137.57 155.70 138.68 C 155.93 139.79 157.02 140.51 158.13 140.27 Z M 159.10 140.07 L 160.08 139.87 C 161.19 139.64 161.90 138.56 161.67 137.45 C 161.44 136.34 160.36 135.62 159.25 135.85 L 158.27 136.05 C 157.16 136.28 156.45 137.37 156.67 138.48 C 156.90 139.59 157.99 140.30 159.10 140.07 Z M 160.07 139.87 L 161.06 139.67 C 162.17 139.44 162.89 138.36 162.66 137.25 C 162.43 136.14 161.35 135.43 160.24 135.65 L 159.25 135.85 C 158.14 136.08 157.43 137.16 157.65 138.27 C 157.88 139.38 158.96 140.10 160.07 139.87 Z M 161.05 139.67 L 162.05 139.47 C 163.16 139.25 163.88 138.17 163.66 137.06 C 163.43 135.95 162.35 135.23 161.24 135.45 L 160.25 135.65 C 159.14 135.87 158.42 136.95 158.64 138.06 C 158.86 139.18 159.94 139.90 161.05 139.67 Z M 162.04 139.48 L 163.04 139.28 C 164.16 139.06 164.88 137.98 164.66 136.86 C 164.44 135.75 163.36 135.03 162.25 135.25 L 161.25 135.44 C 160.13 135.67 159.41 136.75 159.63 137.86 C 159.85 138.97 160.93 139.70 162.04 139.48 Z M 163.04 139.29 L 164.04 139.09 C 165.16 138.87 165.89 137.79 165.67 136.67 C 165.45 135.56 164.37 134.83 163.25 135.05 L 162.25 135.24 C 161.13 135.46 160.41 136.54 160.62 137.66 C 160.84 138.77 161.92 139.50 163.04 139.29 Z M 164.03 139.10 L 165.03 138.90 C 166.15 138.69 166.88 137.61 166.67 136.49 C 166.45 135.37 165.37 134.64 164.25 134.85 L 163.26 135.04 C 162.14 135.26 161.40 136.34 161.62 137.46 C 161.83 138.58 162.91 139.31 164.03 139.10 Z M 165.02 138.91 L 166.01 138.72 C 167.13 138.51 167.87 137.43 167.66 136.31 C 167.45 135.19 166.37 134.45 165.24 134.66 L 164.26 134.85 C 163.14 135.06 162.40 136.14 162.61 137.26 C 162.82 138.38 163.90 139.12 165.02 138.91 Z M 166.00 138.73 L 166.97 138.55 C 168.10 138.34 168.84 137.26 168.63 136.14 C 168.42 135.01 167.34 134.27 166.22 134.48 L 165.25 134.65 C 164.13 134.86 163.38 135.94 163.59 137.07 C 163.80 138.19 164.88 138.94 166.00 138.73 Z M 166.96 138.56 L 167.91 138.39 C 169.04 138.18 169.79 137.10 169.58 135.98 C 169.38 134.85 168.30 134.10 167.17 134.30 L 166.23 134.47 C 165.10 134.67 164.35 135.75 164.55 136.88 C 164.75 138.01 165.83 138.76 166.96 138.56 Z M 167.90 138.39 L 168.92 138.21 C 170.06 138.01 170.81 136.94 170.61 135.81 C 170.42 134.67 169.34 133.92 168.21 134.12 L 167.18 134.30 C 166.05 134.49 165.30 135.57 165.49 136.70 C 165.69 137.83 166.77 138.59 167.90 138.39 Z M 168.91 138.21 L 169.94 138.04 C 171.08 137.85 171.84 136.78 171.65 135.64 C 171.46 134.51 170.38 133.75 169.25 133.94 L 168.22 134.11 C 167.09 134.31 166.33 135.38 166.52 136.51 C 166.71 137.64 167.78 138.41 168.91 138.21 Z M 169.93 138.04 L 170.93 137.88 C 172.06 137.70 172.83 136.63 172.65 135.49 C 172.47 134.36 171.40 133.59 170.26 133.78 L 169.26 133.94 C 168.13 134.12 167.36 135.19 167.55 136.32 C 167.73 137.46 168.80 138.23 169.93 138.04 Z M 170.92 137.88 L 171.89 137.73 C 173.03 137.55 173.81 136.49 173.63 135.36 C 173.45 134.22 172.39 133.44 171.25 133.62 L 170.28 133.77 C 169.14 133.95 168.37 135.01 168.54 136.15 C 168.72 137.28 169.78 138.06 170.92 137.88 Z M 171.88 137.73 L 172.84 137.59 C 173.97 137.42 174.76 136.36 174.59 135.23 C 174.42 134.09 173.36 133.31 172.23 133.48 L 171.27 133.62 C 170.13 133.79 169.35 134.85 169.52 135.98 C 169.69 137.12 170.74 137.90 171.88 137.73 Z M 172.82 137.59 L 173.77 137.46 C 174.91 137.30 175.70 136.24 175.54 135.11 C 175.37 133.97 174.32 133.18 173.19 133.34 L 172.24 133.47 C 171.10 133.64 170.31 134.69 170.47 135.82 C 170.64 136.96 171.69 137.75 172.82 137.59 Z M 173.76 137.46 L 174.73 137.33 C 175.87 137.17 176.67 136.13 176.51 134.99 C 176.36 133.85 175.31 133.05 174.17 133.21 L 173.20 133.34 C 172.06 133.49 171.26 134.54 171.42 135.68 C 171.57 136.81 172.62 137.61 173.76 137.46 Z M 174.72 137.33 L 175.73 137.20 C 176.87 137.05 177.67 136.01 177.52 134.87 C 177.38 133.74 176.34 132.93 175.20 133.08 L 174.19 133.21 C 173.05 133.35 172.25 134.39 172.39 135.53 C 172.54 136.67 173.58 137.47 174.72 137.33 Z M 175.72 137.20 L 176.72 137.07 C 177.86 136.94 178.67 135.90 178.53 134.76 C 178.39 133.62 177.35 132.82 176.22 132.95 L 175.21 133.08 C 174.07 133.22 173.26 134.25 173.40 135.39 C 173.54 136.53 174.58 137.34 175.72 137.20 Z M 176.71 137.07 L 177.70 136.96 C 178.84 136.82 179.66 135.79 179.52 134.66 C 179.39 133.52 178.36 132.71 177.22 132.84 L 176.23 132.96 C 175.09 133.09 174.27 134.12 174.41 135.26 C 174.54 136.39 175.57 137.21 176.71 137.07 Z M 177.70 136.96 L 178.68 136.85 C 179.82 136.72 180.63 135.69 180.51 134.55 C 180.38 133.42 179.35 132.60 178.21 132.73 L 177.23 132.84 C 176.09 132.97 175.28 133.99 175.40 135.13 C 175.53 136.27 176.56 137.08 177.70 136.96 Z M 178.67 136.84 L 179.64 136.74 C 180.78 136.61 181.60 135.59 181.48 134.46 C 181.35 133.32 180.33 132.50 179.19 132.62 L 178.22 132.73 C 177.09 132.85 176.26 133.88 176.39 135.01 C 176.51 136.15 177.54 136.97 178.67 136.84 Z M 179.64 136.74 L 180.66 136.63 C 181.79 136.51 182.61 135.49 182.49 134.35 C 182.37 133.22 181.35 132.39 180.22 132.52 L 179.20 132.62 C 178.06 132.75 177.24 133.76 177.36 134.90 C 177.48 136.04 178.50 136.86 179.64 136.74 Z M 180.65 136.62 L 181.68 136.52 C 182.81 136.40 183.64 135.38 183.52 134.25 C 183.40 133.11 182.38 132.29 181.25 132.41 L 180.22 132.52 C 179.09 132.64 178.26 133.65 178.38 134.79 C 178.50 135.92 179.52 136.74 180.65 136.62 Z M 181.68 136.51 L 182.69 136.41 C 183.82 136.29 184.64 135.27 184.52 134.14 C 184.40 133.01 183.39 132.19 182.25 132.31 L 181.25 132.41 C 180.12 132.53 179.30 133.55 179.42 134.68 C 179.54 135.81 180.55 136.63 181.68 136.51 Z M 182.69 136.40 L 183.68 136.29 C 184.81 136.17 185.62 135.16 185.50 134.03 C 185.38 132.90 184.36 132.08 183.23 132.21 L 182.25 132.31 C 181.12 132.43 180.30 133.45 180.43 134.58 C 180.55 135.71 181.56 136.52 182.69 136.40 Z M 183.69 136.29 L 184.64 136.18 C 185.77 136.05 186.58 135.04 186.45 133.91 C 186.32 132.78 185.31 131.97 184.18 132.10 L 183.22 132.21 C 182.10 132.34 181.29 133.35 181.42 134.48 C 181.54 135.61 182.56 136.42 183.69 136.29 Z M 184.66 136.17 L 185.65 136.05 C 186.77 135.92 187.57 134.90 187.44 133.78 C 187.30 132.65 186.28 131.85 185.16 131.99 L 184.17 132.11 C 183.04 132.24 182.24 133.26 182.38 134.39 C 182.52 135.51 183.54 136.31 184.66 136.17 Z M 185.67 136.05 L 186.71 135.91 C 187.83 135.77 188.62 134.74 188.48 133.62 C 188.33 132.51 187.31 131.72 186.19 131.86 L 185.14 132.00 C 184.02 132.14 183.23 133.17 183.38 134.28 C 183.52 135.40 184.55 136.19 185.67 136.05 Z M 186.72 135.90 L 187.73 135.76 C 188.85 135.61 189.63 134.59 189.47 133.48 C 189.32 132.36 188.30 131.58 187.19 131.73 L 186.18 131.87 C 185.07 132.02 184.29 133.04 184.44 134.16 C 184.59 135.27 185.61 136.05 186.72 135.90 Z M 187.74 135.76 L 188.70 135.62 C 189.81 135.47 190.58 134.45 190.43 133.34 C 190.28 132.23 189.26 131.46 188.15 131.61 L 187.18 131.74 C 186.08 131.89 185.30 132.92 185.45 134.02 C 185.61 135.13 186.63 135.91 187.74 135.76 Z M 188.70 135.62 L 189.62 135.49 C 190.72 135.34 191.49 134.33 191.35 133.22 C 191.20 132.12 190.18 131.34 189.08 131.49 L 188.16 131.62 C 187.05 131.77 186.28 132.78 186.43 133.89 C 186.58 134.99 187.59 135.76 188.70 135.62 Z M 189.60 135.48 L 190.65 135.35 C 191.74 135.21 192.52 134.20 192.38 133.10 C 192.24 132.01 191.24 131.23 190.14 131.37 L 189.09 131.50 C 187.99 131.64 187.22 132.65 187.36 133.75 C 187.50 134.85 188.50 135.62 189.60 135.48 Z M 190.63 135.34 L 191.64 135.21 C 192.73 135.08 193.51 134.09 193.38 133.00 C 193.25 131.91 192.26 131.13 191.16 131.26 L 190.15 131.38 C 189.06 131.51 188.28 132.51 188.42 133.60 C 188.55 134.69 189.54 135.47 190.63 135.34 Z M 191.63 135.20 L 192.60 135.09 C 193.68 134.96 194.45 133.98 194.33 132.90 C 194.20 131.81 193.22 131.04 192.14 131.16 L 191.17 131.27 C 190.09 131.40 189.31 132.38 189.44 133.47 C 189.57 134.55 190.55 135.33 191.63 135.20 Z M 192.59 135.07 L 193.51 134.96 C 194.59 134.84 195.36 133.86 195.23 132.79 C 195.11 131.71 194.13 130.95 193.06 131.07 L 192.14 131.18 C 191.06 131.30 190.29 132.28 190.42 133.35 C 190.55 134.43 191.52 135.20 192.59 135.07 Z M 193.52 134.94 L 194.41 134.83 C 195.47 134.70 196.23 133.74 196.10 132.67 C 195.97 131.61 195.00 130.85 193.93 130.98 L 193.05 131.09 C 191.99 131.22 191.23 132.19 191.36 133.25 C 191.49 134.32 192.46 135.07 193.52 134.94 Z M 194.43 134.81 L 195.37 134.68 C 196.42 134.54 197.15 133.57 197.00 132.52 C 196.86 131.47 195.89 130.73 194.84 130.88 L 193.91 131.01 C 192.86 131.15 192.12 132.12 192.27 133.17 C 192.41 134.22 193.38 134.95 194.43 134.81 Z M 195.40 134.65 L 196.45 134.49 C 197.48 134.33 198.19 133.35 198.02 132.32 C 197.86 131.28 196.89 130.58 195.86 130.74 L 194.81 130.91 C 193.77 131.07 193.07 132.04 193.23 133.08 C 193.39 134.11 194.36 134.82 195.40 134.65 Z M 196.48 134.46 L 197.56 134.27 C 198.58 134.09 199.27 133.12 199.08 132.09 C 198.90 131.07 197.93 130.39 196.91 130.57 L 195.82 130.77 C 194.80 130.95 194.12 131.92 194.30 132.94 C 194.48 133.96 195.46 134.64 196.48 134.46 Z M 197.59 134.25 L 198.57 134.06 C 199.58 133.86 200.24 132.88 200.04 131.87 C 199.84 130.87 198.86 130.21 197.86 130.41 L 196.88 130.60 C 195.87 130.79 195.21 131.77 195.41 132.78 C 195.61 133.79 196.59 134.44 197.59 134.25 Z M 198.61 134.03 L 199.63 133.81 C 200.63 133.59 201.26 132.61 201.04 131.61 C 200.82 130.62 199.84 129.99 198.84 130.20 L 197.82 130.43 C 196.82 130.65 196.19 131.63 196.41 132.63 C 196.63 133.62 197.61 134.25 198.61 134.03 Z M 199.68 133.78 L 200.70 133.52 C 201.68 133.28 202.28 132.28 202.03 131.30 C 201.78 130.32 200.78 129.73 199.80 129.97 L 198.79 130.23 C 197.81 130.48 197.21 131.48 197.46 132.46 C 197.71 133.44 198.70 134.03 199.68 133.78 Z M 200.78 133.49 L 201.74 133.20 C 202.70 132.91 203.24 131.89 202.95 130.93 C 202.66 129.97 201.65 129.43 200.69 129.72 L 199.73 130.01 C 198.77 130.30 198.22 131.31 198.51 132.27 C 198.80 133.23 199.82 133.78 200.78 133.49 Z M 201.85 133.14 L 202.74 132.80 C 203.67 132.45 204.14 131.41 203.78 130.48 C 203.43 129.55 202.39 129.09 201.46 129.44 L 200.58 129.78 C 199.65 130.13 199.18 131.17 199.53 132.10 C 199.88 133.03 200.92 133.49 201.85 133.14 Z M 202.93 132.68 L 203.95 132.14 C 204.81 131.68 205.13 130.61 204.67 129.75 C 204.22 128.89 203.15 128.57 202.29 129.02 L 201.27 129.57 C 200.41 130.02 200.09 131.09 200.54 131.95 C 201.00 132.81 202.07 133.14 202.93 132.68 Z M 204.15 131.94 L 204.93 131.35 C 205.68 130.78 205.83 129.71 205.26 128.96 C 204.70 128.21 203.62 128.06 202.87 128.63 L 202.09 129.22 C 201.34 129.79 201.19 130.86 201.76 131.61 C 202.32 132.36 203.39 132.51 204.15 131.94 Z M 205.05 131.18 L 205.69 130.55 C 206.35 129.92 206.37 128.88 205.73 128.22 C 205.10 127.56 204.05 127.54 203.40 128.18 L 202.75 128.80 C 202.10 129.43 202.08 130.48 202.71 131.14 C 203.35 131.79 204.39 131.81 205.05 131.18 Z M 205.71 130.47 L 206.00 130.18 C 206.61 129.53 206.58 128.51 205.94 127.90 C 205.29 127.29 204.27 127.31 203.66 127.96 L 203.38 128.26 C 202.76 128.90 202.79 129.92 203.44 130.54 C 204.08 131.15 205.10 131.12 205.71 130.47 Z"
      fill="black"
      fill-rule="nonzero" /><path d="M 155.05 77.27 L 155.08 78.14 C 155.11 79.03 155.87 79.74 156.77 79.70 C 157.66 79.67 158.36 78.92 158.33 78.02 L 158.30 77.15 C 158.27 76.25 157.51 75.55 156.62 75.58 C 155.72 75.62 155.02 76.37 155.05 77.27 Z M 155.05 78.13 L 155.08 79.05 C 155.11 79.96 155.88 80.68 156.79 80.65 C 157.70 80.62 158.42 79.86 158.39 78.94 L 158.36 78.03 C 158.33 77.11 157.57 76.39 156.65 76.42 C 155.74 76.45 155.02 77.22 155.05 78.13 Z M 155.05 79.04 L 155.08 80.05 C 155.10 80.99 155.87 81.72 156.81 81.70 C 157.74 81.67 158.47 80.90 158.45 79.97 L 158.42 78.95 C 158.40 78.02 157.62 77.29 156.69 77.31 C 155.76 77.33 155.03 78.11 155.05 79.04 Z M 155.04 80.04 L 155.06 81.20 C 155.08 82.15 155.86 82.90 156.81 82.89 C 157.76 82.87 158.52 82.09 158.50 81.14 L 158.48 79.98 C 158.46 79.03 157.68 78.28 156.73 78.29 C 155.78 78.31 155.03 79.09 155.04 80.04 Z M 155.04 81.19 L 155.05 82.15 C 155.06 83.11 155.85 83.88 156.81 83.87 C 157.77 83.86 158.54 83.07 158.53 82.11 L 158.52 81.15 C 158.51 80.19 157.72 79.42 156.76 79.43 C 155.80 79.44 155.03 80.23 155.04 81.19 Z M 155.05 82.14 L 155.05 83.11 C 155.06 84.08 155.85 84.85 156.81 84.85 C 157.78 84.84 158.55 84.05 158.55 83.09 L 158.54 82.12 C 158.53 81.15 157.75 80.37 156.78 80.38 C 155.82 80.39 155.04 81.17 155.05 82.14 Z M 155.05 83.11 L 155.05 84.13 C 155.05 85.09 155.84 85.88 156.81 85.87 C 157.78 85.87 158.56 85.08 158.56 84.11 L 158.55 83.09 C 158.55 82.12 157.76 81.34 156.79 81.35 C 155.82 81.35 155.04 82.14 155.05 83.11 Z M 155.04 84.12 L 155.05 85.16 C 155.05 86.14 155.84 86.92 156.81 86.92 C 157.78 86.92 158.57 86.13 158.57 85.16 L 158.56 84.11 C 158.56 83.14 157.77 82.36 156.80 82.36 C 155.83 82.36 155.04 83.15 155.04 84.12 Z M 155.04 85.16 L 155.04 86.20 C 155.04 87.18 155.83 87.97 156.81 87.96 C 157.78 87.96 158.57 87.17 158.57 86.20 L 158.57 85.16 C 158.57 84.18 157.78 83.39 156.80 83.39 C 155.83 83.39 155.04 84.19 155.04 85.16 Z M 155.03 86.20 L 155.03 87.21 C 155.04 88.19 155.83 88.98 156.81 88.98 C 157.79 88.98 158.58 88.19 158.58 87.21 L 158.58 86.20 C 158.58 85.22 157.79 84.43 156.81 84.43 C 155.83 84.43 155.03 85.22 155.03 86.20 Z M 155.03 87.21 L 155.03 88.26 C 155.03 89.24 155.83 90.03 156.81 90.03 C 157.79 90.03 158.59 89.24 158.59 88.26 L 158.59 87.21 C 158.59 86.23 157.79 85.43 156.81 85.43 C 155.83 85.43 155.03 86.23 155.03 87.21 Z M 155.02 88.26 L 155.02 89.27 C 155.02 90.26 155.82 91.06 156.81 91.06 C 157.79 91.06 158.59 90.26 158.59 89.27 L 158.59 88.26 C 158.59 87.27 157.79 86.47 156.81 86.47 C 155.82 86.47 155.02 87.27 155.02 88.26 Z M 155.02 89.27 L 155.02 90.26 C 155.02 91.24 155.82 92.04 156.81 92.04 C 157.79 92.04 158.59 91.24 158.59 90.26 L 158.59 89.27 C 158.59 88.29 157.79 87.49 156.81 87.49 C 155.82 87.49 155.02 88.29 155.02 89.27 Z M 155.02 90.26 L 155.02 91.23 C 155.02 92.22 155.82 93.02 156.81 93.02 C 157.80 93.02 158.60 92.22 158.60 91.23 L 158.60 90.26 C 158.60 89.27 157.80 88.47 156.81 88.47 C 155.82 88.47 155.02 89.27 155.02 90.26 Z M 155.01 91.23 L 155.01 92.21 C 155.01 93.20 155.82 94.00 156.81 94.00 C 157.80 94.00 158.60 93.20 158.60 92.21 L 158.60 91.23 C 158.60 90.24 157.80 89.43 156.81 89.43 C 155.82 89.43 155.01 90.24 155.01 91.23 Z M 155.01 92.21 L 155.01 93.18 C 155.01 94.18 155.81 94.98 156.81 94.98 C 157.80 94.98 158.61 94.18 158.61 93.18 L 158.61 92.21 C 158.61 91.21 157.80 90.41 156.81 90.41 C 155.81 90.41 155.01 91.21 155.01 92.21 Z M 155.00 93.18 L 155.00 94.11 C 155.00 95.11 155.81 95.92 156.81 95.92 C 157.80 95.92 158.61 95.11 158.61 94.11 L 158.61 93.18 C 158.61 92.19 157.80 91.38 156.81 91.38 C 155.81 91.38 155.00 92.19 155.00 93.18 Z M 155.00 94.11 L 155.00 95.08 C 155.00 96.08 155.81 96.89 156.81 96.89 C 157.81 96.89 158.61 96.08 158.61 95.08 L 158.61 94.11 C 158.61 93.12 157.81 92.31 156.81 92.31 C 155.81 92.31 155.00 93.12 155.00 94.11 Z M 155.00 95.08 L 155.00 96.08 C 155.00 97.08 155.81 97.89 156.81 97.89 C 157.81 97.89 158.62 97.08 158.62 96.08 L 158.62 95.08 C 158.62 94.08 157.81 93.27 156.81 93.27 C 155.81 93.27 155.00 94.08 155.00 95.08 Z M 154.99 96.08 L 154.99 97.10 C 154.99 98.10 155.81 98.92 156.81 98.92 C 157.81 98.92 158.62 98.10 158.62 97.10 L 158.62 96.08 C 158.62 95.07 157.81 94.26 156.81 94.26 C 155.81 94.26 154.99 95.07 154.99 96.08 Z M 154.99 97.10 L 154.99 98.15 C 154.99 99.15 155.80 99.97 156.81 99.97 C 157.81 99.97 158.63 99.15 158.63 98.15 L 158.63 97.10 C 158.63 96.10 157.81 95.28 156.81 95.28 C 155.80 95.28 154.99 96.10 154.99 97.10 Z M 154.99 98.15 L 154.99 99.20 C 154.99 100.20 155.80 101.02 156.81 101.02 C 157.81 101.02 158.63 100.20 158.63 99.20 L 158.63 98.15 C 158.63 97.14 157.81 96.33 156.81 96.33 C 155.80 96.33 154.99 97.14 154.99 98.15 Z M 154.98 99.20 L 154.98 100.15 C 154.98 101.16 155.80 101.97 156.81 101.97 C 157.82 101.97 158.63 101.16 158.63 100.15 L 158.63 99.20 C 158.63 98.19 157.82 97.37 156.81 97.37 C 155.80 97.37 154.98 98.19 154.98 99.20 Z M 154.98 100.15 L 154.98 101.12 C 154.98 102.13 155.80 102.95 156.81 102.95 C 157.82 102.95 158.64 102.13 158.64 101.12 L 158.64 100.15 C 158.64 99.14 157.82 98.32 156.81 98.32 C 155.80 98.32 154.98 99.14 154.98 100.15 Z M 154.98 101.12 L 154.98 102.10 C 154.98 103.11 155.80 103.93 156.81 103.93 C 157.82 103.93 158.64 103.11 158.64 102.10 L 158.64 101.12 C 158.64 100.11 157.82 99.29 156.81 99.29 C 155.80 99.29 154.98 100.11 154.98 101.12 Z M 154.97 102.10 L 154.97 103.10 C 154.97 104.12 155.79 104.94 156.81 104.94 C 157.82 104.94 158.64 104.12 158.64 103.10 L 158.64 102.10 C 158.64 101.09 157.82 100.27 156.81 100.27 C 155.79 100.27 154.97 101.09 154.97 102.10 Z M 154.97 103.10 L 154.97 104.12 C 154.97 105.14 155.79 105.96 156.81 105.96 C 157.82 105.96 158.64 105.14 158.64 104.12 L 158.64 103.10 C 158.64 102.09 157.82 101.27 156.81 101.27 C 155.79 101.27 154.97 102.09 154.97 103.10 Z M 154.97 104.12 L 154.97 105.16 C 154.97 106.18 155.79 107.00 156.81 107.00 C 157.82 107.00 158.65 106.18 158.65 105.16 L 158.65 104.12 C 158.65 103.11 157.82 102.28 156.81 102.28 C 155.79 102.28 154.97 103.11 154.97 104.12 Z M 154.96 105.16 L 154.96 106.20 C 154.96 107.22 155.79 108.04 156.81 108.04 C 157.83 108.04 158.65 107.22 158.65 106.20 L 158.65 105.16 C 158.65 104.14 157.83 103.32 156.81 103.32 C 155.79 103.32 154.96 104.14 154.96 105.16 Z M 154.96 106.20 L 154.96 107.16 C 154.96 108.18 155.79 109.01 156.81 109.01 C 157.83 109.01 158.65 108.18 158.65 107.16 L 158.65 106.20 C 158.65 105.18 157.83 104.35 156.81 104.35 C 155.79 104.35 154.96 105.18 154.96 106.20 Z M 154.96 107.16 L 154.96 108.13 C 154.96 109.15 155.79 109.98 156.81 109.98 C 157.83 109.98 158.66 109.15 158.66 108.13 L 158.66 107.16 C 158.66 106.14 157.83 105.31 156.81 105.31 C 155.79 105.31 154.96 106.14 154.96 107.16 Z M 154.96 108.13 L 154.95 109.12 C 154.95 110.14 155.78 110.97 156.80 110.97 C 157.83 110.97 158.66 110.14 158.66 109.12 L 158.66 108.13 C 158.66 107.11 157.83 106.28 156.81 106.28 C 155.79 106.28 154.96 107.11 154.96 108.13 Z M 154.95 109.12 L 154.95 110.11 C 154.95 111.14 155.78 111.97 156.80 111.97 C 157.82 111.97 158.66 111.14 158.66 110.12 L 158.66 109.12 C 158.66 108.10 157.83 107.27 156.81 107.27 C 155.79 107.26 154.95 108.09 154.95 109.12 Z M 154.95 110.11 L 154.95 111.12 C 154.94 112.15 155.77 112.98 156.80 112.98 C 157.82 112.99 158.65 112.16 158.66 111.13 L 158.66 110.12 C 158.66 109.10 157.83 108.26 156.81 108.26 C 155.78 108.26 154.95 109.09 154.95 110.11 Z M 154.94 111.12 L 154.94 112.14 C 154.93 113.17 155.76 114.00 156.79 114.01 C 157.82 114.01 158.65 113.18 158.66 112.16 L 158.66 111.14 C 158.66 110.11 157.84 109.27 156.81 109.27 C 155.78 109.26 154.95 110.09 154.94 111.12 Z M 154.94 112.14 L 154.93 113.17 C 154.92 114.20 155.75 115.03 156.78 115.04 C 157.81 115.05 158.65 114.22 158.65 113.19 L 158.66 112.16 C 158.66 111.13 157.84 110.29 156.81 110.29 C 155.78 110.28 154.94 111.11 154.94 112.14 Z M 154.93 113.16 L 154.92 114.18 C 154.91 115.21 155.74 116.05 156.77 116.06 C 157.80 116.07 158.64 115.24 158.65 114.21 L 158.65 113.19 C 158.66 112.16 157.83 111.32 156.80 111.32 C 155.78 111.31 154.94 112.14 154.93 113.16 Z M 154.92 114.18 L 154.91 115.14 C 154.90 116.17 155.73 117.01 156.76 117.02 C 157.79 117.03 158.63 116.21 158.64 115.18 L 158.65 114.21 C 158.66 113.18 157.83 112.34 156.80 112.33 C 155.77 112.32 154.93 113.15 154.92 114.18 Z M 154.91 115.14 L 154.90 116.11 C 154.88 117.14 155.71 117.98 156.74 118.00 C 157.77 118.01 158.62 117.18 158.63 116.15 L 158.64 115.18 C 158.65 114.15 157.83 113.30 156.80 113.29 C 155.76 113.28 154.92 114.11 154.91 115.14 Z M 154.89 116.10 L 154.88 117.08 C 154.87 118.11 155.69 118.96 156.72 118.98 C 157.76 118.99 158.60 118.17 158.62 117.13 L 158.63 116.15 C 158.65 115.12 157.82 114.27 156.79 114.26 C 155.76 114.25 154.91 115.07 154.89 116.10 Z M 154.88 117.08 L 154.86 118.07 C 154.85 119.10 155.67 119.95 156.70 119.97 C 157.74 119.99 158.59 119.16 158.60 118.13 L 158.62 117.14 C 158.64 116.11 157.81 115.26 156.78 115.24 C 155.75 115.22 154.90 116.05 154.88 117.08 Z M 154.86 118.06 L 154.84 119.07 C 154.82 120.10 155.65 120.95 156.68 120.97 C 157.71 120.99 158.57 120.17 158.59 119.14 L 158.60 118.13 C 158.62 117.10 157.80 116.25 156.77 116.23 C 155.73 116.21 154.88 117.03 154.86 118.06 Z M 154.84 119.06 L 154.82 120.08 C 154.80 121.11 155.62 121.97 156.65 121.99 C 157.69 122.01 158.54 121.19 158.57 120.16 L 158.59 119.14 C 158.61 118.11 157.79 117.25 156.75 117.23 C 155.72 117.21 154.86 118.03 154.84 119.06 Z M 154.82 120.07 L 154.79 121.10 C 154.77 122.14 155.59 123.00 156.62 123.02 C 157.66 123.05 158.52 122.23 158.54 121.19 L 158.57 120.16 C 158.59 119.13 157.77 118.27 156.74 118.24 C 155.70 118.22 154.84 119.04 154.82 120.07 Z M 154.79 121.10 L 154.76 122.14 C 154.74 123.18 155.55 124.04 156.59 124.07 C 157.63 124.09 158.49 123.28 158.52 122.24 L 158.54 121.20 C 158.57 120.16 157.75 119.30 156.72 119.27 C 155.68 119.24 154.82 120.06 154.79 121.10 Z M 154.76 122.13 L 154.73 123.15 C 154.70 124.18 155.52 125.05 156.55 125.08 C 157.59 125.11 158.46 124.29 158.49 123.26 L 158.52 122.24 C 158.55 121.21 157.73 120.34 156.70 120.31 C 155.66 120.28 154.79 121.10 154.76 122.13 Z M 154.73 123.14 L 154.70 124.14 C 154.67 125.18 155.48 126.05 156.52 126.08 C 157.55 126.12 158.42 125.30 158.46 124.27 L 158.49 123.26 C 158.52 122.23 157.71 121.36 156.67 121.32 C 155.63 121.29 154.77 122.10 154.73 123.14 Z M 154.70 124.14 L 154.66 125.15 C 154.63 126.19 155.44 127.06 156.48 127.09 C 157.51 127.13 158.38 126.32 158.42 125.28 L 158.46 124.27 C 158.49 123.23 157.68 122.36 156.64 122.33 C 155.61 122.29 154.74 123.10 154.70 124.14 Z M 154.66 125.15 L 154.63 126.16 C 154.59 127.20 155.40 128.07 156.43 128.11 C 157.47 128.15 158.34 127.34 158.38 126.30 L 158.42 125.29 C 158.46 124.25 157.65 123.38 156.61 123.34 C 155.58 123.30 154.70 124.11 154.66 125.15 Z M 154.63 126.16 L 154.59 127.17 C 154.54 128.21 155.35 129.08 156.39 129.12 C 157.43 129.16 158.30 128.36 158.34 127.32 L 158.38 126.31 C 158.42 125.27 157.62 124.39 156.58 124.35 C 155.54 124.31 154.67 125.12 154.63 126.16 Z M 154.59 127.16 L 154.54 128.17 C 154.50 129.21 155.30 130.09 156.34 130.13 C 157.38 130.18 158.26 129.37 158.30 128.33 L 158.34 127.32 C 158.39 126.29 157.58 125.41 156.54 125.37 C 155.51 125.32 154.63 126.13 154.59 127.16 Z M 154.54 128.17 L 154.50 129.17 C 154.45 130.21 155.25 131.09 156.29 131.13 C 157.33 131.18 158.21 130.38 158.25 129.34 L 158.30 128.34 C 158.35 127.30 157.54 126.42 156.51 126.38 C 155.47 126.33 154.59 127.13 154.54 128.17 Z M 154.50 129.17 L 154.45 130.16 C 154.40 131.19 155.20 132.07 156.24 132.12 C 157.28 132.17 158.16 131.37 158.21 130.33 L 158.25 129.35 C 158.30 128.31 157.50 127.43 156.47 127.38 C 155.43 127.33 154.55 128.13 154.50 129.17 Z M 154.45 130.15 L 154.40 131.12 C 154.35 132.16 155.15 133.04 156.19 133.10 C 157.22 133.15 158.11 132.35 158.16 131.31 L 158.21 130.34 C 158.26 129.30 157.46 128.42 156.42 128.37 C 155.39 128.31 154.50 129.11 154.45 130.15 Z M 154.40 131.12 L 154.35 132.14 C 154.29 133.18 155.09 134.07 156.13 134.12 C 157.16 134.18 158.05 133.38 158.10 132.34 L 158.16 131.32 C 158.21 130.28 157.42 129.39 156.38 129.34 C 155.34 129.28 154.46 130.08 154.40 131.12 Z M 154.35 132.14 L 154.29 133.20 C 154.23 134.24 155.02 135.13 156.06 135.19 C 157.10 135.25 157.98 134.45 158.04 133.42 L 158.10 132.35 C 158.16 131.31 157.37 130.42 156.33 130.37 C 155.29 130.31 154.41 131.10 154.35 132.14 Z M 154.29 133.20 L 154.22 134.24 C 154.16 135.27 154.95 136.16 155.99 136.23 C 157.03 136.29 157.92 135.50 157.98 134.46 L 158.04 133.42 C 158.10 132.39 157.31 131.49 156.28 131.43 C 155.24 131.37 154.35 132.16 154.29 133.20 Z M 154.23 134.23 L 154.16 135.24 C 154.10 136.28 154.88 137.18 155.92 137.24 C 156.96 137.31 157.85 136.52 157.92 135.48 L 157.98 134.47 C 158.05 133.43 157.26 132.54 156.22 132.47 C 155.18 132.41 154.29 133.19 154.23 134.23 Z M 154.16 135.24 L 154.10 136.23 C 154.03 137.27 154.81 138.16 155.85 138.23 C 156.88 138.30 157.78 137.52 157.85 136.48 L 157.92 135.49 C 157.98 134.45 157.20 133.56 156.16 133.49 C 155.13 133.42 154.23 134.20 154.16 135.24 Z M 154.10 136.22 L 154.03 137.19 C 153.95 138.23 154.73 139.13 155.77 139.20 C 156.81 139.28 157.71 138.50 157.78 137.46 L 157.85 136.49 C 157.92 135.45 157.14 134.55 156.10 134.48 C 155.07 134.41 154.17 135.19 154.10 136.22 Z M 154.03 137.19 L 153.96 138.14 C 153.88 139.18 154.66 140.08 155.69 140.16 C 156.73 140.23 157.63 139.45 157.71 138.42 L 157.78 137.47 C 157.86 136.43 157.08 135.53 156.04 135.45 C 155.01 135.37 154.10 136.15 154.03 137.19 Z M 153.96 138.13 L 153.88 139.07 C 153.80 140.10 154.58 141.01 155.61 141.09 C 156.65 141.17 157.56 140.40 157.64 139.36 L 157.71 138.43 C 157.79 137.39 157.01 136.48 155.98 136.40 C 154.94 136.32 154.04 137.10 153.96 138.13 Z M 153.89 139.06 L 153.80 140.06 C 153.72 141.09 154.49 142.00 155.53 142.08 C 156.56 142.17 157.47 141.40 157.55 140.36 L 157.63 139.37 C 157.72 138.33 156.95 137.42 155.91 137.34 C 154.88 137.26 153.97 138.03 153.89 139.06 Z M 153.81 140.05 L 153.72 141.09 C 153.63 142.12 154.40 143.03 155.43 143.12 C 156.47 143.21 157.38 142.44 157.46 141.41 L 157.55 140.37 C 157.64 139.34 156.87 138.43 155.84 138.34 C 154.80 138.25 153.89 139.02 153.81 140.05 Z M 153.72 141.08 L 153.63 142.10 C 153.54 143.14 154.30 144.05 155.33 144.14 C 156.37 144.23 157.28 143.47 157.37 142.44 L 157.46 141.42 C 157.55 140.38 156.79 139.47 155.76 139.38 C 154.72 139.29 153.81 140.05 153.72 141.08 Z M 153.63 142.10 L 153.54 143.10 C 153.44 144.13 154.20 145.05 155.24 145.14 C 156.27 145.24 157.18 144.48 157.28 143.44 L 157.37 142.44 C 157.46 141.41 156.70 140.50 155.67 140.40 C 154.64 140.31 153.73 141.07 153.63 142.10 Z M 153.54 143.09 L 153.45 144.08 C 153.35 145.11 154.10 146.03 155.14 146.13 C 156.17 146.22 157.08 145.47 157.18 144.43 L 157.28 143.45 C 157.37 142.42 156.62 141.50 155.59 141.40 C 154.55 141.31 153.64 142.06 153.54 143.09 Z M 153.45 144.07 L 153.35 145.04 C 153.25 146.07 154.01 146.99 155.04 147.09 C 156.07 147.19 156.98 146.44 157.09 145.41 L 157.18 144.44 C 157.28 143.41 156.53 142.49 155.50 142.39 C 154.47 142.29 153.55 143.04 153.45 144.07 Z M 153.35 145.04 L 153.26 145.99 C 153.16 147.02 153.91 147.94 154.94 148.04 C 155.97 148.14 156.89 147.39 156.99 146.36 L 157.08 145.41 C 157.19 144.38 156.44 143.46 155.41 143.36 C 154.38 143.26 153.46 144.01 153.35 145.04 Z M 153.26 145.98 L 153.16 147.00 C 153.05 148.03 153.80 148.95 154.83 149.05 C 155.86 149.16 156.78 148.41 156.88 147.38 L 156.99 146.36 C 157.09 145.34 156.34 144.42 155.31 144.31 C 154.29 144.21 153.37 144.95 153.26 145.98 Z M 153.16 146.99 L 153.05 148.04 C 152.94 149.07 153.69 149.99 154.71 150.10 C 155.74 150.20 156.66 149.46 156.77 148.43 L 156.88 147.39 C 156.99 146.36 156.24 145.44 155.21 145.33 C 154.19 145.22 153.27 145.97 153.16 146.99 Z M 153.05 148.03 L 152.94 149.05 C 152.83 150.08 153.57 151.00 154.60 151.11 C 155.62 151.22 156.55 150.48 156.66 149.46 L 156.77 148.44 C 156.88 147.41 156.14 146.49 155.11 146.38 C 154.09 146.27 153.16 147.01 153.05 148.03 Z M 152.94 149.05 L 152.83 150.04 C 152.72 151.06 153.45 151.99 154.48 152.10 C 155.50 152.22 156.43 151.48 156.54 150.46 L 156.65 149.46 C 156.77 148.44 156.03 147.51 155.01 147.40 C 153.98 147.28 153.06 148.02 152.94 149.05 Z M 152.84 150.03 L 152.72 150.99 C 152.60 152.02 153.33 152.95 154.35 153.07 C 155.38 153.19 156.30 152.46 156.43 151.43 L 156.54 150.47 C 156.66 149.44 155.93 148.52 154.91 148.40 C 153.88 148.28 152.96 149.01 152.84 150.03 Z M 152.72 150.98 L 152.61 151.92 C 152.48 152.94 153.20 153.87 154.23 154.00 C 155.25 154.13 156.18 153.40 156.30 152.38 L 156.42 151.45 C 156.55 150.42 155.83 149.49 154.80 149.37 C 153.78 149.24 152.85 149.96 152.72 150.98 Z M 152.61 151.90 L 152.48 152.91 C 152.34 153.93 153.06 154.86 154.08 155.00 C 155.09 155.14 156.03 154.42 156.17 153.40 L 156.30 152.40 C 156.44 151.38 155.72 150.44 154.70 150.31 C 153.68 150.17 152.75 150.89 152.61 151.90 Z M 152.48 152.89 L 152.34 153.94 C 152.19 154.95 152.89 155.89 153.91 156.04 C 154.92 156.18 155.86 155.48 156.01 154.47 L 156.16 153.42 C 156.30 152.41 155.60 151.47 154.59 151.32 C 153.57 151.17 152.63 151.88 152.48 152.89 Z M 152.34 153.92 L 152.19 154.92 C 152.03 155.94 152.73 156.88 153.74 157.03 C 154.75 157.19 155.69 156.49 155.85 155.48 L 156.00 154.48 C 156.16 153.47 155.46 152.53 154.45 152.37 C 153.44 152.22 152.50 152.91 152.34 153.92 Z M 152.20 154.91 L 152.04 155.87 C 151.88 156.88 152.56 157.83 153.57 157.99 C 154.57 158.15 155.52 157.47 155.68 156.46 L 155.84 155.50 C 156.00 154.49 155.32 153.55 154.31 153.38 C 153.31 153.22 152.36 153.90 152.20 154.91 Z M 152.05 155.86 L 151.89 156.79 C 151.72 157.79 152.40 158.74 153.40 158.91 C 154.40 159.08 155.35 158.41 155.52 157.40 L 155.68 156.48 C 155.85 155.47 155.17 154.53 154.17 154.36 C 153.17 154.19 152.22 154.86 152.05 155.86 Z M 151.90 156.78 L 151.74 157.70 C 151.56 158.69 152.23 159.64 153.22 159.82 C 154.22 160.00 155.17 159.33 155.35 158.33 L 155.51 157.42 C 155.69 156.42 155.02 155.47 154.02 155.29 C 153.03 155.11 152.08 155.78 151.90 156.78 Z M 151.75 157.68 L 151.58 158.61 C 151.39 159.60 152.05 160.55 153.04 160.73 C 154.03 160.92 154.99 160.26 155.17 159.27 L 155.34 158.35 C 155.52 157.35 154.87 156.40 153.87 156.22 C 152.88 156.03 151.93 156.69 151.75 157.68 Z M 151.58 158.59 L 151.40 159.53 C 151.21 160.52 151.86 161.47 152.85 161.66 C 153.83 161.85 154.79 161.21 154.98 160.22 L 155.16 159.28 C 155.35 158.30 154.71 157.34 153.72 157.15 C 152.73 156.96 151.78 157.60 151.58 158.59 Z M 151.41 159.52 L 151.21 160.50 C 151.01 161.48 151.65 162.44 152.63 162.64 C 153.61 162.84 154.57 162.20 154.77 161.22 L 154.97 160.24 C 155.17 159.25 154.53 158.30 153.55 158.10 C 152.57 157.90 151.61 158.53 151.41 159.52 Z M 151.22 160.49 L 151.00 161.55 C 150.79 162.53 151.42 163.49 152.39 163.70 C 153.37 163.90 154.33 163.28 154.54 162.30 L 154.76 161.23 C 154.97 160.26 154.34 159.30 153.37 159.09 C 152.39 158.89 151.43 159.51 151.22 160.49 Z M 151.01 161.54 L 150.81 162.44 C 150.60 163.42 151.21 164.38 152.19 164.59 C 153.16 164.80 154.12 164.18 154.33 163.21 L 154.53 162.31 C 154.74 161.34 154.12 160.38 153.15 160.17 C 152.18 159.96 151.22 160.57 151.01 161.54 Z M 150.82 162.44 L 150.62 163.31 C 150.41 164.28 151.01 165.24 151.98 165.45 C 152.95 165.67 153.91 165.06 154.13 164.09 L 154.32 163.22 C 154.54 162.25 153.93 161.29 152.96 161.07 C 151.99 160.86 151.03 161.47 150.82 162.44 Z M 150.63 163.30 L 150.42 164.23 C 150.20 165.19 150.80 166.15 151.76 166.37 C 152.73 166.59 153.69 165.99 153.91 165.03 L 154.12 164.10 C 154.34 163.14 153.74 162.18 152.78 161.95 C 151.81 161.73 150.85 162.34 150.63 163.30 Z M 150.42 164.22 L 150.20 165.19 C 149.97 166.15 150.56 167.11 151.52 167.34 C 152.48 167.56 153.45 166.97 153.67 166.01 L 153.90 165.04 C 154.13 164.08 153.53 163.11 152.57 162.89 C 151.61 162.66 150.65 163.26 150.42 164.22 Z M 150.20 165.18 L 149.96 166.20 C 149.73 167.15 150.31 168.11 151.27 168.35 C 152.23 168.58 153.19 167.99 153.42 167.03 L 153.66 166.02 C 153.90 165.06 153.31 164.10 152.35 163.87 C 151.40 163.64 150.43 164.22 150.20 165.18 Z M 149.97 166.19 L 149.70 167.24 C 149.47 168.19 150.04 169.16 151.00 169.39 C 151.95 169.63 152.91 169.05 153.15 168.10 L 153.41 167.04 C 153.65 166.09 153.07 165.13 152.12 164.89 C 151.17 164.66 150.20 165.24 149.97 166.19 Z M 149.71 167.23 L 149.43 168.32 C 149.19 169.27 149.76 170.24 150.71 170.48 C 151.65 170.72 152.62 170.15 152.86 169.20 L 153.14 168.11 C 153.38 167.16 152.81 166.20 151.86 165.96 C 150.92 165.71 149.95 166.29 149.71 167.23 Z M 149.44 168.31 L 149.18 169.30 C 148.93 170.24 149.49 171.21 150.44 171.46 C 151.38 171.70 152.34 171.14 152.59 170.20 L 152.85 169.21 C 153.10 168.27 152.54 167.31 151.59 167.06 C 150.65 166.81 149.69 167.37 149.44 168.31 Z M 149.19 169.29 L 148.92 170.28 C 148.67 171.22 149.23 172.18 150.16 172.43 C 151.10 172.69 152.06 172.13 152.31 171.20 L 152.58 170.21 C 152.83 169.27 152.28 168.31 151.34 168.06 C 150.41 167.80 149.44 168.36 149.19 169.29 Z M 148.93 170.27 L 148.66 171.27 C 148.40 172.20 148.95 173.16 149.88 173.42 C 150.81 173.67 151.77 173.13 152.03 172.20 L 152.30 171.20 C 152.56 170.27 152.01 169.31 151.08 169.05 C 150.15 168.80 149.19 169.34 148.93 170.27 Z M 148.67 171.26 L 148.39 172.25 C 148.13 173.17 148.67 174.13 149.59 174.40 C 150.52 174.66 151.48 174.12 151.74 173.19 L 152.02 172.20 C 152.28 171.28 151.74 170.32 150.82 170.06 C 149.89 169.80 148.93 170.34 148.67 171.26 Z M 148.40 172.24 L 148.12 173.22 C 147.86 174.14 148.39 175.10 149.30 175.36 C 150.22 175.63 151.18 175.10 151.45 174.18 L 151.73 173.20 C 151.99 172.28 151.46 171.32 150.54 171.06 C 149.63 170.80 148.67 171.33 148.40 172.24 Z M 148.13 173.21 L 147.85 174.17 C 147.58 175.08 148.10 176.04 149.02 176.31 C 149.93 176.58 150.89 176.05 151.15 175.14 L 151.44 174.19 C 151.70 173.27 151.18 172.32 150.27 172.05 C 149.36 171.78 148.40 172.30 148.13 173.21 Z M 147.86 174.16 L 147.58 175.09 C 147.31 176.00 147.83 176.95 148.73 177.22 C 149.64 177.50 150.59 176.98 150.87 176.08 L 151.14 175.15 C 151.42 174.24 150.90 173.29 149.99 173.02 C 149.09 172.74 148.13 173.26 147.86 174.16 Z M 147.59 175.08 L 147.32 175.97 C 147.04 176.87 147.55 177.83 148.45 178.10 C 149.35 178.38 150.30 177.88 150.58 176.98 L 150.85 176.08 C 151.13 175.18 150.63 174.23 149.73 173.95 C 148.82 173.68 147.87 174.18 147.59 175.08 Z M 147.33 175.96 L 146.98 177.09 C 146.70 177.98 147.19 178.93 148.08 179.21 C 148.98 179.50 149.93 179.00 150.21 178.11 L 150.57 176.99 C 150.85 176.09 150.35 175.14 149.46 174.86 C 148.57 174.58 147.62 175.07 147.33 175.96 Z M 147.00 177.07 L 146.66 178.11 C 146.37 179.00 146.85 179.95 147.73 180.24 C 148.61 180.53 149.56 180.05 149.85 179.16 L 150.19 178.12 C 150.48 177.24 150.00 176.29 149.12 176.00 C 148.24 175.71 147.29 176.19 147.00 177.07 Z M 146.67 178.10 L 146.35 179.06 C 146.05 179.94 146.52 180.89 147.39 181.18 C 148.26 181.48 149.21 181.01 149.51 180.14 L 149.83 179.18 C 150.13 178.30 149.66 177.35 148.79 177.06 C 147.92 176.76 146.97 177.23 146.67 178.10 Z M 146.36 179.05 L 146.05 179.95 C 145.74 180.81 146.19 181.75 147.06 182.06 C 147.92 182.36 148.87 181.91 149.17 181.05 L 149.49 180.16 C 149.79 179.29 149.34 178.35 148.48 178.04 C 147.62 177.74 146.67 178.19 146.36 179.05 Z M 146.07 179.93 L 145.76 180.76 C 145.45 181.61 145.88 182.56 146.74 182.87 C 147.59 183.19 148.53 182.75 148.85 181.90 L 149.15 181.07 C 149.47 180.21 149.03 179.27 148.18 178.95 C 147.33 178.64 146.38 179.08 146.07 179.93 Z M 145.78 180.75 L 145.46 181.58 C 145.14 182.42 145.56 183.36 146.40 183.69 C 147.24 184.01 148.18 183.59 148.51 182.75 L 148.83 181.91 C 149.15 181.07 148.73 180.13 147.89 179.81 C 147.05 179.48 146.10 179.90 145.78 180.75 Z M 145.48 181.55 L 145.08 182.55 C 144.74 183.38 145.14 184.32 145.97 184.66 C 146.80 185.00 147.75 184.59 148.09 183.76 L 148.49 182.77 C 148.82 181.94 148.42 180.99 147.59 180.66 C 146.76 180.32 145.82 180.72 145.48 181.55 Z M 145.10 182.52 L 144.70 183.44 C 144.35 184.26 144.73 185.21 145.55 185.56 C 146.36 185.91 147.31 185.54 147.67 184.72 L 148.06 183.80 C 148.42 182.98 148.04 182.03 147.22 181.67 C 146.40 181.32 145.45 181.70 145.10 182.52 Z M 144.73 183.41 L 144.32 184.28 C 143.95 185.08 144.30 186.04 145.11 186.41 C 145.92 186.78 146.87 186.43 147.24 185.62 L 147.64 184.75 C 148.01 183.95 147.66 182.99 146.86 182.62 C 146.05 182.25 145.10 182.60 144.73 183.41 Z M 144.35 184.24 L 143.93 185.09 C 143.54 185.88 143.87 186.84 144.66 187.23 C 145.45 187.62 146.41 187.29 146.80 186.50 L 147.22 185.66 C 147.61 184.87 147.28 183.91 146.49 183.52 C 145.70 183.13 144.74 183.45 144.35 184.24 Z M 143.96 185.05 L 143.50 185.92 C 143.09 186.70 143.39 187.66 144.17 188.07 C 144.95 188.48 145.91 188.18 146.32 187.40 L 146.78 186.53 C 147.18 185.75 146.88 184.79 146.11 184.38 C 145.33 183.98 144.37 184.28 143.96 185.05 Z M 143.52 185.90 L 143.04 186.76 C 142.62 187.53 142.90 188.50 143.66 188.92 C 144.43 189.34 145.40 189.07 145.82 188.30 L 146.30 187.43 C 146.72 186.66 146.45 185.70 145.68 185.27 C 144.91 184.85 143.94 185.13 143.52 185.90 Z M 143.06 186.74 L 142.56 187.61 C 142.12 188.37 142.39 189.34 143.14 189.78 C 143.90 190.21 144.87 189.95 145.31 189.19 L 145.81 188.32 C 146.24 187.56 145.98 186.59 145.22 186.16 C 144.46 185.72 143.49 185.98 143.06 186.74 Z M 142.57 187.60 L 142.05 188.48 C 141.61 189.23 141.86 190.20 142.61 190.64 C 143.37 191.09 144.34 190.84 144.78 190.08 L 145.29 189.20 C 145.74 188.45 145.49 187.48 144.73 187.04 C 143.98 186.60 143.01 186.85 142.57 187.60 Z M 142.06 188.47 L 141.55 189.33 C 141.10 190.08 141.35 191.05 142.10 191.49 C 142.84 191.94 143.81 191.69 144.26 190.95 L 144.77 190.09 C 145.22 189.34 144.97 188.37 144.22 187.93 C 143.48 187.48 142.51 187.73 142.06 188.47 Z M 141.56 189.32 L 141.03 190.18 C 140.58 190.92 140.82 191.89 141.56 192.34 C 142.31 192.80 143.28 192.56 143.73 191.82 L 144.25 190.96 C 144.70 190.21 144.47 189.24 143.72 188.79 C 142.98 188.34 142.01 188.57 141.56 189.32 Z M 141.05 190.16 L 140.51 191.01 C 140.05 191.75 140.27 192.72 141.01 193.18 C 141.75 193.65 142.72 193.42 143.18 192.69 L 143.72 191.83 C 144.18 191.10 143.96 190.12 143.22 189.66 C 142.48 189.20 141.51 189.42 141.05 190.16 Z M 140.53 190.99 L 139.98 191.82 C 139.51 192.55 139.71 193.53 140.44 194.00 C 141.17 194.48 142.15 194.27 142.62 193.54 L 143.17 192.71 C 143.64 191.98 143.44 191.00 142.71 190.53 C 141.98 190.05 141.00 190.26 140.53 190.99 Z M 140.00 191.80 L 139.46 192.59 C 138.97 193.31 139.16 194.29 139.88 194.78 C 140.60 195.27 141.58 195.08 142.07 194.36 L 142.61 193.57 C 143.10 192.85 142.91 191.87 142.19 191.38 C 141.47 190.89 140.49 191.08 140.00 191.80 Z M 139.48 192.56 L 138.93 193.34 C 138.42 194.05 138.59 195.03 139.30 195.54 C 140.01 196.04 141.00 195.87 141.50 195.16 L 142.05 194.39 C 142.56 193.68 142.39 192.69 141.68 192.19 C 140.97 191.68 139.98 191.85 139.48 192.56 Z M 138.94 193.32 L 138.36 194.11 C 137.84 194.81 138.00 195.80 138.70 196.32 C 139.40 196.83 140.39 196.68 140.91 195.98 L 141.49 195.18 C 142.00 194.48 141.85 193.49 141.15 192.97 C 140.44 192.46 139.45 192.61 138.94 193.32 Z M 138.37 194.10 L 137.74 194.93 C 137.22 195.63 137.37 196.62 138.07 197.15 C 138.77 197.67 139.76 197.52 140.28 196.82 L 140.90 195.99 C 141.42 195.29 141.28 194.30 140.58 193.77 C 139.88 193.25 138.89 193.40 138.37 194.10 Z M 137.74 194.93 L 137.12 195.76 C 136.60 196.46 136.74 197.45 137.44 197.97 C 138.14 198.50 139.13 198.36 139.66 197.66 L 140.28 196.83 C 140.80 196.13 140.66 195.14 139.96 194.61 C 139.26 194.09 138.27 194.23 137.74 194.93 Z M 137.12 195.75 L 136.54 196.52 C 136.01 197.22 136.15 198.22 136.85 198.74 C 137.55 199.27 138.55 199.13 139.08 198.43 L 139.66 197.66 C 140.19 196.96 140.05 195.97 139.35 195.44 C 138.65 194.91 137.65 195.05 137.12 195.75 Z M 136.55 196.51 L 135.93 197.31 C 135.40 198.00 135.53 199.00 136.23 199.54 C 136.93 200.07 137.93 199.94 138.46 199.24 L 139.07 198.44 C 139.61 197.75 139.47 196.75 138.78 196.21 C 138.08 195.68 137.08 195.81 136.55 196.51 Z M 135.94 197.29 L 135.31 198.10 C 134.77 198.79 134.89 199.79 135.58 200.33 C 136.27 200.88 137.27 200.76 137.82 200.07 L 138.45 199.26 C 139.00 198.57 138.88 197.57 138.18 197.02 C 137.49 196.48 136.49 196.60 135.94 197.29 Z M 135.33 198.07 L 134.68 198.87 C 134.12 199.55 134.22 200.56 134.91 201.11 C 135.59 201.67 136.60 201.57 137.16 200.89 L 137.80 200.09 C 138.36 199.41 138.26 198.40 137.58 197.84 C 136.89 197.28 135.88 197.39 135.33 198.07 Z M 134.70 198.83 L 134.04 199.60 C 133.47 200.27 133.55 201.28 134.22 201.86 C 134.89 202.43 135.90 202.36 136.48 201.68 L 137.13 200.92 C 137.71 200.25 137.63 199.24 136.96 198.66 C 136.29 198.08 135.28 198.16 134.70 198.83 Z M 134.08 199.55 L 133.33 200.37 C 132.73 201.02 132.77 202.04 133.42 202.64 C 134.07 203.24 135.09 203.20 135.69 202.55 L 136.44 201.73 C 137.04 201.08 137.00 200.06 136.35 199.46 C 135.70 198.86 134.68 198.90 134.08 199.55 Z M 133.38 200.31 L 132.62 201.05 C 131.99 201.67 131.98 202.69 132.61 203.33 C 133.23 203.97 134.25 203.97 134.89 203.35 L 135.64 202.61 C 136.28 201.98 136.29 200.96 135.66 200.32 C 135.03 199.69 134.01 199.68 133.38 200.31 Z M 132.70 200.97 L 131.94 201.62 C 131.27 202.21 131.19 203.23 131.78 203.91 C 132.36 204.59 133.39 204.66 134.07 204.08 L 134.82 203.42 C 135.50 202.84 135.57 201.81 134.98 201.13 C 134.40 200.46 133.37 200.38 132.70 200.97 Z M 132.04 201.53 L 131.29 202.08 C 130.56 202.62 130.41 203.63 130.94 204.36 C 131.47 205.09 132.49 205.25 133.21 204.71 L 133.97 204.16 C 134.69 203.63 134.85 202.61 134.32 201.89 C 133.79 201.16 132.77 201.00 132.04 201.53 Z M 131.44 201.97 L 130.56 202.47 C 129.77 202.92 129.50 203.92 129.94 204.71 C 130.39 205.50 131.39 205.77 132.18 205.33 L 133.06 204.83 C 133.85 204.38 134.13 203.38 133.68 202.59 C 133.23 201.80 132.23 201.52 131.44 201.97 Z M 130.83 202.32 L 129.62 202.73 C 128.75 203.03 128.28 203.98 128.58 204.86 C 128.89 205.73 129.84 206.20 130.71 205.90 L 131.92 205.48 C 132.79 205.18 133.26 204.23 132.95 203.35 C 132.65 202.48 131.70 202.01 130.83 202.32 Z M 130.22 202.59 L 129.44 202.57 C 128.49 202.54 127.70 203.29 127.67 204.24 C 127.64 205.19 128.39 205.98 129.34 206.01 L 130.11 206.04 C 131.07 206.06 131.86 205.32 131.89 204.37 C 131.92 203.41 131.17 202.62 130.22 202.59 Z M 131.14 204.03 L 131.08 203.61 C 130.93 202.64 130.04 201.98 129.07 202.12 C 128.11 202.26 127.44 203.16 127.58 204.12 L 127.64 204.54 C 127.78 205.51 128.68 206.18 129.64 206.04 C 130.61 205.90 131.28 205.00 131.14 204.03 Z M 130.77 204.94 L 131.24 204.31 C 131.83 203.52 131.67 202.39 130.87 201.79 C 130.07 201.20 128.95 201.36 128.35 202.16 L 127.88 202.79 C 127.29 203.59 127.45 204.71 128.25 205.31 C 129.05 205.90 130.18 205.74 130.77 204.94 Z M 131.02 204.59 L 131.85 203.84 C 132.60 203.17 132.66 202.01 131.99 201.26 C 131.31 200.51 130.15 200.45 129.40 201.13 L 128.57 201.88 C 127.82 202.56 127.76 203.71 128.44 204.46 C 129.11 205.21 130.27 205.27 131.02 204.59 Z M 131.70 204.00 L 132.77 203.25 C 133.60 202.66 133.81 201.51 133.22 200.67 C 132.63 199.83 131.47 199.63 130.63 200.22 L 129.56 200.97 C 128.72 201.56 128.52 202.72 129.11 203.55 C 129.70 204.39 130.86 204.59 131.70 204.00 Z M 132.62 203.36 L 133.47 202.88 C 134.37 202.37 134.69 201.23 134.18 200.33 C 133.67 199.43 132.53 199.11 131.63 199.62 L 130.78 200.10 C 129.88 200.61 129.56 201.76 130.07 202.66 C 130.58 203.56 131.72 203.87 132.62 203.36 Z M 133.35 202.95 L 134.24 202.53 C 135.17 202.09 135.57 200.97 135.13 200.03 C 134.69 199.10 133.57 198.70 132.63 199.14 L 131.75 199.56 C 130.81 200.00 130.41 201.12 130.86 202.05 C 131.30 202.99 132.42 203.39 133.35 202.95 Z M 134.13 202.58 L 135.06 202.21 C 136.02 201.82 136.49 200.73 136.10 199.76 C 135.72 198.80 134.63 198.33 133.66 198.72 L 132.74 199.09 C 131.77 199.48 131.31 200.57 131.69 201.53 C 132.08 202.49 133.17 202.96 134.13 202.58 Z M 134.98 202.24 L 135.94 201.91 C 136.92 201.57 137.44 200.50 137.10 199.52 C 136.76 198.53 135.69 198.01 134.71 198.35 L 133.75 198.69 C 132.77 199.03 132.24 200.10 132.58 201.08 C 132.92 202.06 133.99 202.58 134.98 202.24 Z M 135.87 201.93 L 136.87 201.63 C 137.86 201.32 138.42 200.27 138.12 199.28 C 137.82 198.28 136.76 197.72 135.77 198.03 L 134.77 198.33 C 133.78 198.63 133.22 199.68 133.52 200.68 C 133.83 201.67 134.88 202.23 135.87 201.93 Z M 136.82 201.64 L 137.71 201.40 C 138.71 201.12 139.30 200.08 139.02 199.08 C 138.74 198.08 137.71 197.49 136.70 197.77 L 135.82 198.01 C 134.81 198.29 134.22 199.33 134.50 200.33 C 134.78 201.33 135.82 201.92 136.82 201.64 Z M 137.67 201.41 L 138.57 201.18 C 139.57 200.93 140.19 199.90 139.93 198.89 C 139.68 197.88 138.65 197.27 137.64 197.53 L 136.74 197.76 C 135.73 198.01 135.12 199.03 135.38 200.04 C 135.63 201.05 136.66 201.66 137.67 201.41 Z M 138.53 201.19 L 139.47 200.97 C 140.48 200.74 141.11 199.73 140.88 198.72 C 140.65 197.70 139.63 197.07 138.62 197.30 L 137.68 197.52 C 136.67 197.75 136.04 198.76 136.27 199.78 C 136.50 200.79 137.51 201.42 138.53 201.19 Z M 139.43 200.98 L 140.41 200.77 C 141.43 200.56 142.08 199.56 141.87 198.55 C 141.66 197.53 140.66 196.88 139.64 197.09 L 138.66 197.30 C 137.64 197.51 136.99 198.51 137.20 199.52 C 137.41 200.54 138.41 201.19 139.43 200.98 Z M 140.38 200.78 L 141.42 200.58 C 142.45 200.39 143.11 199.40 142.92 198.38 C 142.73 197.36 141.74 196.69 140.72 196.88 L 139.68 197.08 C 138.66 197.28 137.99 198.26 138.18 199.28 C 138.38 200.31 139.36 200.98 140.38 200.78 Z M 141.39 200.59 L 142.50 200.39 C 143.52 200.22 144.21 199.24 144.03 198.22 C 143.85 197.19 142.88 196.51 141.86 196.69 L 140.75 196.88 C 139.73 197.06 139.04 198.03 139.22 199.06 C 139.40 200.08 140.37 200.77 141.39 200.59 Z M 142.48 200.40 L 143.45 200.24 C 144.47 200.07 145.17 199.11 145.00 198.09 C 144.84 197.06 143.87 196.37 142.85 196.53 L 141.88 196.69 C 140.86 196.85 140.16 197.82 140.32 198.84 C 140.49 199.86 141.45 200.56 142.48 200.40 Z M 143.43 200.24 L 144.43 200.09 C 145.45 199.93 146.16 198.98 146.00 197.96 C 145.85 196.93 144.90 196.23 143.87 196.38 L 142.87 196.53 C 141.85 196.69 141.14 197.64 141.30 198.66 C 141.45 199.69 142.40 200.39 143.43 200.24 Z M 144.41 200.08 L 145.43 199.94 C 146.45 199.80 147.17 198.85 147.02 197.83 C 146.88 196.81 145.94 196.10 144.92 196.24 L 143.89 196.39 C 142.87 196.53 142.16 197.47 142.30 198.49 C 142.45 199.51 143.39 200.22 144.41 200.08 Z M 145.41 199.94 L 146.44 199.80 C 147.46 199.67 148.18 198.74 148.05 197.72 C 147.91 196.70 146.98 195.98 145.96 196.11 L 144.94 196.25 C 143.92 196.38 143.20 197.31 143.33 198.33 C 143.46 199.35 144.40 200.07 145.41 199.94 Z M 146.42 199.80 L 147.43 199.68 C 148.45 199.56 149.17 198.64 149.05 197.62 C 148.93 196.60 148.01 195.88 147.00 196.00 L 145.98 196.12 C 144.97 196.24 144.24 197.16 144.36 198.18 C 144.48 199.19 145.40 199.92 146.42 199.80 Z M 147.41 199.68 L 148.39 199.57 C 149.41 199.46 150.14 198.55 150.03 197.54 C 149.93 196.53 149.02 195.79 148.00 195.90 L 147.02 196.00 C 146.00 196.11 145.27 197.02 145.38 198.03 C 145.49 199.05 146.39 199.78 147.41 199.68 Z M 148.37 199.57 L 149.30 199.48 C 150.31 199.39 151.06 198.49 150.97 197.48 C 150.87 196.47 149.97 195.72 148.96 195.81 L 148.03 195.90 C 147.01 196.00 146.27 196.89 146.36 197.90 C 146.46 198.92 147.35 199.66 148.37 199.57 Z M 149.27 199.47 L 150.38 199.39 C 151.39 199.31 152.14 198.44 152.07 197.43 C 152.00 196.43 151.12 195.67 150.12 195.75 L 149.00 195.83 C 147.99 195.90 147.24 196.78 147.31 197.78 C 147.39 198.79 148.26 199.54 149.27 199.47 Z M 150.34 199.36 L 151.40 199.31 C 152.39 199.26 153.16 198.41 153.11 197.42 C 153.06 196.43 152.21 195.67 151.22 195.72 L 150.16 195.77 C 149.17 195.82 148.40 196.67 148.45 197.66 C 148.50 198.65 149.35 199.41 150.34 199.36 Z M 151.36 199.28 L 152.35 199.25 C 153.33 199.22 154.10 198.41 154.07 197.43 C 154.04 196.46 153.23 195.69 152.25 195.71 L 151.26 195.74 C 150.28 195.77 149.51 196.59 149.54 197.56 C 149.57 198.54 150.39 199.31 151.36 199.28 Z M 152.32 199.22 L 153.26 199.22 C 154.22 199.21 154.99 198.42 154.98 197.46 C 154.97 196.50 154.19 195.72 153.23 195.73 L 152.28 195.74 C 151.32 195.75 150.55 196.54 150.56 197.50 C 150.57 198.46 151.36 199.23 152.32 199.22 Z M 153.23 199.19 L 154.15 199.19 C 155.10 199.20 155.87 198.43 155.87 197.49 C 155.88 196.54 155.11 195.77 154.17 195.77 L 153.25 195.76 C 152.30 195.76 151.53 196.52 151.53 197.47 C 151.52 198.41 152.29 199.18 153.23 199.19 Z M 154.14 199.17 L 155.07 199.18 C 156.00 199.19 156.77 198.45 156.78 197.52 C 156.79 196.58 156.05 195.82 155.12 195.81 L 154.18 195.79 C 153.25 195.78 152.48 196.52 152.47 197.46 C 152.46 198.39 153.20 199.15 154.14 199.17 Z M 155.06 199.16 L 156.03 199.18 C 156.95 199.20 157.71 198.47 157.73 197.55 C 157.75 196.63 157.02 195.87 156.10 195.85 L 155.13 195.83 C 154.21 195.81 153.45 196.53 153.43 197.45 C 153.41 198.37 154.14 199.14 155.06 199.16 Z M 156.00 199.16 L 156.98 199.20 C 157.89 199.24 158.66 198.53 158.70 197.62 C 158.73 196.71 158.03 195.95 157.12 195.91 L 156.13 195.87 C 155.22 195.83 154.46 196.54 154.42 197.45 C 154.38 198.36 155.09 199.12 156.00 199.16 Z M 156.95 199.18 L 157.95 199.24 C 158.85 199.30 159.62 198.62 159.68 197.72 C 159.73 196.83 159.05 196.05 158.16 196.00 L 157.16 195.93 C 156.26 195.87 155.49 196.55 155.43 197.45 C 155.37 198.35 156.05 199.12 156.95 199.18 Z M 157.90 199.22 L 158.92 199.32 C 159.81 199.40 160.59 198.75 160.68 197.87 C 160.76 196.99 160.11 196.20 159.23 196.12 L 158.21 196.02 C 157.32 195.93 156.54 196.58 156.45 197.47 C 156.37 198.35 157.02 199.13 157.90 199.22 Z M 158.87 199.29 L 159.89 199.43 C 160.76 199.54 161.56 198.93 161.67 198.06 C 161.79 197.19 161.17 196.39 160.30 196.27 L 159.28 196.14 C 158.41 196.02 157.61 196.64 157.50 197.51 C 157.39 198.38 158.00 199.18 158.87 199.29 Z M 159.83 199.41 L 160.83 199.58 C 161.69 199.72 162.51 199.14 162.65 198.28 C 162.79 197.42 162.21 196.60 161.35 196.46 L 160.36 196.29 C 159.50 196.15 158.68 196.73 158.54 197.59 C 158.39 198.45 158.97 199.27 159.83 199.41 Z M 160.79 199.56 L 161.78 199.76 C 162.64 199.93 163.47 199.37 163.64 198.52 C 163.81 197.67 163.25 196.84 162.40 196.67 L 161.40 196.47 C 160.54 196.30 159.71 196.86 159.54 197.71 C 159.38 198.57 159.93 199.40 160.79 199.56 Z M 161.75 199.75 L 162.74 199.97 C 163.58 200.16 164.42 199.63 164.61 198.78 C 164.80 197.93 164.27 197.09 163.42 196.90 L 162.43 196.68 C 161.59 196.49 160.75 197.02 160.56 197.87 C 160.37 198.72 160.90 199.56 161.75 199.75 Z M 162.70 199.96 L 163.67 200.20 C 164.51 200.40 165.36 199.89 165.57 199.05 C 165.78 198.21 165.26 197.36 164.42 197.15 L 163.46 196.91 C 162.62 196.71 161.77 197.22 161.56 198.06 C 161.35 198.90 161.86 199.75 162.70 199.96 Z M 163.64 200.18 L 164.58 200.44 C 165.41 200.66 166.27 200.17 166.49 199.33 C 166.71 198.50 166.22 197.64 165.39 197.42 L 164.45 197.17 C 163.62 196.94 162.76 197.44 162.54 198.27 C 162.31 199.10 162.81 199.96 163.64 200.18 Z M 164.55 200.42 L 165.57 200.72 C 166.39 200.96 167.26 200.48 167.50 199.66 C 167.74 198.83 167.26 197.96 166.44 197.72 L 165.42 197.43 C 164.59 197.19 163.72 197.66 163.48 198.49 C 163.24 199.32 163.72 200.18 164.55 200.42 Z M 165.54 200.71 L 166.51 201.01 C 167.34 201.27 168.21 200.81 168.47 199.99 C 168.72 199.16 168.26 198.29 167.44 198.03 L 166.46 197.73 C 165.64 197.47 164.77 197.94 164.51 198.76 C 164.25 199.58 164.71 200.46 165.54 200.71 Z M 166.49 201.01 L 167.43 201.31 C 168.25 201.58 169.13 201.13 169.40 200.32 C 169.66 199.50 169.22 198.61 168.40 198.35 L 167.46 198.04 C 166.64 197.77 165.76 198.22 165.49 199.04 C 165.22 199.86 165.67 200.74 166.49 201.01 Z M 167.41 201.31 L 168.32 201.62 C 169.14 201.89 170.03 201.46 170.30 200.64 C 170.58 199.82 170.14 198.94 169.33 198.66 L 168.41 198.35 C 167.60 198.08 166.71 198.51 166.43 199.33 C 166.16 200.15 166.60 201.03 167.41 201.31 Z M 168.32 201.62 L 169.00 201.85 C 169.82 202.13 170.70 201.69 170.98 200.88 C 171.26 200.06 170.83 199.18 170.01 198.90 L 169.33 198.66 C 168.52 198.38 167.63 198.82 167.35 199.63 C 167.07 200.45 167.50 201.34 168.32 201.62 Z"
      fill="black"
      fill-rule="nonzero" /><path d="M 185.28 195.48 L 185.28 196.48 C 185.28 197.34 185.98 198.04 186.84 198.04 C 187.70 198.04 188.40 197.34 188.40 196.48 L 188.40 195.48 C 188.40 194.62 187.70 193.92 186.84 193.92 C 185.98 193.92 185.28 194.62 185.28 195.48 Z M 185.28 196.48 L 185.28 196.93 C 185.28 197.80 185.98 198.49 186.84 198.49 C 187.70 198.49 188.40 197.80 188.40 196.93 L 188.40 196.48 C 188.40 195.62 187.70 194.92 186.84 194.92 C 185.98 194.92 185.28 195.62 185.28 196.48 Z"
      fill="black"
      fill-rule="nonzero" /></svg>