<svg xmlns="http://www.w3.org/2000/svg" width="300" height="300" viewBox="0 0 300 300">
<path d="M 130.33 94.58 L 129.33 94.16 C 128.47 93.81 127.49 94.21 127.14 95.07 C 126.78 95.93 127.19 96.91 128.04 97.26 L 129.04 97.68 C 129.90 98.03 130.88 97.63 131.24 96.77 C 131.59 95.91 131.19 94.93 130.33 94.58 Z M 129.33 94.16 L 128.35 93.75 C 127.49 93.40 126.50 93.80 126.15 94.66 C 125.79 95.52 126.20 96.51 127.06 96.86 L 128.04 97.27 C 128.90 97.62 129.89 97.21 130.24 96.36 C 130.60 95.50 130.19 94.51 129.33 94.16 Z M 128.35 93.75 L 127.39 93.35 C 126.53 93.00 125.54 93.41 125.19 94.27 C 124.84 95.13 125.25 96.12 126.11 96.47 L 127.06 96.87 C 127.92 97.22 128.91 96.81 129.26 95.95 C 129.62 95.09 129.21 94.10 128.35 93.75 Z M 127.39 93.35 L 126.48 92.98 C 125.62 92.63 124.63 93.04 124.28 93.91 C 123.93 94.77 124.34 95.76 125.21 96.11 L 126.11 96.48 C 126.98 96.83 127.96 96.42 128.32 95.55 C 128.67 94.69 128.25 93.70 127.39 93.35 Z M 126.48 92.97 L 125.64 92.63 C 124.77 92.28 123.78 92.70 123.43 93.57 C 123.08 94.44 123.50 95.43 124.37 95.78 L 125.21 96.12 C 126.08 96.47 127.07 96.05 127.42 95.18 C 127.77 94.31 127.35 93.32 126.48 92.97 Z M 125.63 92.62 L 124.67 92.24 C 123.79 91.89 122.80 92.32 122.46 93.20 C 122.11 94.07 122.54 95.06 123.41 95.41 L 124.38 95.79 C 125.25 96.14 126.24 95.71 126.59 94.83 C 126.94 93.96 126.51 92.97 125.63 92.62 Z M 124.68 92.22 L 123.71 91.83 C 122.82 91.48 121.82 91.92 121.47 92.80 C 121.12 93.69 121.55 94.70 122.44 95.05 L 123.41 95.43 C 124.29 95.78 125.30 95.35 125.65 94.46 C 126.00 93.57 125.57 92.57 124.68 92.22 Z M 123.76 91.82 L 122.88 91.46 C 121.99 91.08 120.96 91.50 120.59 92.39 C 120.21 93.28 120.63 94.31 121.52 94.69 L 122.39 95.06 C 123.28 95.43 124.31 95.02 124.69 94.12 C 125.07 93.23 124.65 92.20 123.76 91.82 Z M 122.97 91.47 L 122.14 91.07 C 121.25 90.64 120.19 91.02 119.76 91.91 C 119.34 92.80 119.72 93.86 120.60 94.28 L 121.43 94.68 C 122.32 95.11 123.39 94.73 123.81 93.84 C 124.24 92.95 123.86 91.89 122.97 91.47 Z M 122.29 91.09 L 121.23 90.48 C 120.35 89.98 119.23 90.28 118.73 91.16 C 118.22 92.03 118.53 93.15 119.40 93.66 L 120.46 94.27 C 121.34 94.77 122.46 94.47 122.96 93.59 C 123.47 92.71 123.16 91.59 122.29 91.09 Z M 121.49 90.56 L 120.67 89.92 C 119.84 89.28 118.64 89.42 117.99 90.26 C 117.34 91.09 117.49 92.29 118.32 92.94 L 119.14 93.58 C 119.97 94.22 121.17 94.08 121.82 93.24 C 122.47 92.41 122.32 91.21 121.49 90.56 Z M 121.30 90.60 L 121.05 90.06 C 120.59 89.06 119.42 88.63 118.42 89.08 C 117.43 89.54 116.99 90.72 117.45 91.71 L 117.70 92.26 C 118.15 93.25 119.33 93.69 120.33 93.23 C 121.32 92.78 121.76 91.60 121.30 90.60 Z M 120.36 92.58 L 120.92 92.22 C 121.86 91.60 122.12 90.34 121.50 89.41 C 120.89 88.47 119.63 88.21 118.69 88.82 L 118.13 89.19 C 117.20 89.81 116.94 91.07 117.55 92.00 C 118.17 92.94 119.43 93.20 120.36 92.58 Z M 120.11 92.56 L 121.26 92.38 C 122.39 92.22 123.16 91.17 123.00 90.05 C 122.83 88.93 121.79 88.15 120.67 88.32 L 119.51 88.49 C 118.38 88.65 117.61 89.70 117.77 90.82 C 117.94 91.94 118.98 92.72 120.11 92.56 Z M 121.01 92.43 L 122.11 92.40 C 123.25 92.38 124.16 91.43 124.14 90.29 C 124.12 89.14 123.17 88.23 122.02 88.25 L 120.92 88.28 C 119.78 88.30 118.87 89.25 118.89 90.39 C 118.91 91.54 119.86 92.45 121.01 92.43 Z M 121.96 92.41 L 122.90 92.45 C 124.05 92.51 125.03 91.62 125.09 90.47 C 125.14 89.32 124.25 88.35 123.10 88.29 L 122.16 88.25 C 121.01 88.19 120.04 89.08 119.98 90.23 C 119.93 91.38 120.82 92.36 121.96 92.41 Z M 122.78 92.45 L 123.78 92.56 C 124.92 92.68 125.95 91.84 126.07 90.70 C 126.19 89.55 125.36 88.52 124.22 88.40 L 123.22 88.30 C 122.08 88.17 121.05 89.01 120.93 90.15 C 120.81 91.30 121.64 92.33 122.78 92.45 Z M 123.66 92.54 L 124.70 92.71 C 125.84 92.90 126.92 92.13 127.11 90.99 C 127.29 89.85 126.52 88.77 125.38 88.58 L 124.33 88.41 C 123.19 88.23 122.12 89.00 121.93 90.14 C 121.74 91.28 122.52 92.36 123.66 92.54 Z M 124.59 92.70 L 125.63 92.93 C 126.76 93.17 127.88 92.46 128.13 91.33 C 128.38 90.20 127.66 89.08 126.53 88.83 L 125.49 88.60 C 124.36 88.35 123.24 89.07 122.99 90.20 C 122.74 91.33 123.46 92.45 124.59 92.70 Z M 125.54 92.91 L 126.53 93.17 C 127.65 93.47 128.80 92.81 129.10 91.69 C 129.40 90.57 128.74 89.42 127.62 89.12 L 126.63 88.85 C 125.51 88.55 124.36 89.21 124.06 90.33 C 123.75 91.45 124.42 92.61 125.54 92.91 Z M 126.46 93.15 L 127.45 93.46 C 128.56 93.79 129.74 93.17 130.08 92.06 C 130.41 90.95 129.79 89.77 128.68 89.43 L 127.69 89.13 C 126.58 88.80 125.40 89.42 125.06 90.53 C 124.73 91.64 125.35 92.82 126.46 93.15 Z M 127.40 93.44 L 128.36 93.76 C 129.47 94.13 130.66 93.53 131.02 92.43 C 131.39 91.32 130.79 90.13 129.69 89.77 L 128.73 89.45 C 127.62 89.08 126.43 89.68 126.07 90.78 C 125.70 91.89 126.30 93.08 127.40 93.44 Z M 128.33 93.75 L 129.23 94.07 C 130.33 94.45 131.53 93.88 131.92 92.78 C 132.30 91.69 131.73 90.48 130.63 90.10 L 129.73 89.78 C 128.63 89.39 127.43 89.97 127.04 91.06 C 126.65 92.16 127.23 93.36 128.33 93.75 Z M 129.20 94.06 L 130.13 94.40 C 131.22 94.80 132.43 94.24 132.83 93.15 C 133.23 92.06 132.68 90.85 131.58 90.45 L 130.66 90.11 C 129.57 89.70 128.36 90.26 127.95 91.35 C 127.55 92.44 128.11 93.66 129.20 94.06 Z M 130.10 94.39 L 131.00 94.74 C 132.09 95.16 133.31 94.62 133.73 93.53 C 134.14 92.44 133.60 91.22 132.52 90.81 L 131.61 90.46 C 130.53 90.04 129.31 90.58 128.89 91.67 C 128.47 92.75 129.01 93.97 130.10 94.39 Z M 130.97 94.73 L 131.86 95.08 C 132.94 95.52 134.17 94.99 134.60 93.91 C 135.04 92.83 134.51 91.61 133.43 91.17 L 132.55 90.82 C 131.47 90.38 130.24 90.91 129.80 91.99 C 129.37 93.07 129.89 94.29 130.97 94.73 Z M 131.84 95.08 L 132.78 95.47 C 133.86 95.91 135.09 95.40 135.54 94.32 C 135.98 93.25 135.47 92.02 134.39 91.57 L 133.45 91.18 C 132.38 90.74 131.14 91.25 130.70 92.32 C 130.25 93.40 130.76 94.63 131.84 95.08 Z M 132.77 95.46 L 133.65 95.83 C 134.72 96.28 135.96 95.78 136.41 94.70 C 136.86 93.63 136.36 92.39 135.28 91.94 L 134.40 91.58 C 133.33 91.12 132.10 91.63 131.65 92.70 C 131.20 93.78 131.70 95.01 132.77 95.46 Z M 133.64 95.83 L 134.51 96.20 C 135.58 96.65 136.82 96.15 137.28 95.08 C 137.73 94.01 137.23 92.77 136.16 92.32 L 135.29 91.95 C 134.22 91.49 132.98 91.99 132.53 93.06 C 132.07 94.14 132.57 95.37 133.64 95.83 Z M 134.50 96.19 L 135.42 96.59 C 136.49 97.05 137.73 96.55 138.19 95.48 C 138.65 94.41 138.16 93.17 137.09 92.72 L 136.17 92.32 C 135.10 91.86 133.86 92.35 133.40 93.42 C 132.94 94.49 133.43 95.73 134.50 96.19 Z M 135.41 96.58 L 136.37 97.00 C 137.43 97.47 138.68 96.98 139.14 95.91 C 139.61 94.85 139.12 93.60 138.06 93.14 L 137.10 92.72 C 136.04 92.25 134.79 92.74 134.33 93.81 C 133.86 94.87 134.35 96.12 135.41 96.58 Z M 136.35 96.99 L 137.32 97.43 C 138.38 97.90 139.63 97.42 140.10 96.36 C 140.58 95.30 140.10 94.05 139.04 93.58 L 138.07 93.15 C 137.01 92.67 135.76 93.15 135.29 94.21 C 134.81 95.27 135.29 96.52 136.35 96.99 Z M 137.30 97.42 L 138.22 97.84 C 139.28 98.33 140.53 97.86 141.02 96.80 C 141.50 95.75 141.04 94.50 139.98 94.01 L 139.06 93.59 C 138.00 93.10 136.75 93.56 136.26 94.62 C 135.78 95.68 136.24 96.93 137.30 97.42 Z M 138.20 97.83 L 139.06 98.24 C 140.11 98.73 141.37 98.28 141.87 97.23 C 142.36 96.18 141.91 94.92 140.86 94.43 L 140.00 94.02 C 138.95 93.52 137.69 93.97 137.20 95.02 C 136.70 96.08 137.15 97.33 138.20 97.83 Z M 139.04 98.23 L 139.91 98.65 C 140.95 99.15 142.21 98.72 142.72 97.67 C 143.23 96.62 142.79 95.36 141.74 94.85 L 140.88 94.44 C 139.83 93.93 138.57 94.37 138.07 95.41 C 137.56 96.46 138.00 97.72 139.04 98.23 Z M 139.89 98.64 L 140.77 99.07 C 141.81 99.59 143.08 99.16 143.59 98.12 C 144.11 97.08 143.68 95.82 142.64 95.30 L 141.76 94.86 C 140.72 94.35 139.46 94.77 138.94 95.82 C 138.42 96.86 138.85 98.12 139.89 98.64 Z M 140.76 99.07 L 141.67 99.52 C 142.70 100.05 143.97 99.63 144.49 98.59 C 145.02 97.56 144.60 96.29 143.56 95.77 L 142.65 95.31 C 141.62 94.78 140.35 95.20 139.83 96.24 C 139.30 97.28 139.72 98.54 140.76 99.07 Z M 141.65 99.52 L 142.61 100.01 C 143.64 100.54 144.91 100.13 145.44 99.09 C 145.97 98.06 145.56 96.79 144.52 96.26 L 143.57 95.77 C 142.54 95.24 141.27 95.65 140.74 96.69 C 140.21 97.72 140.62 98.99 141.65 99.52 Z M 142.60 100.00 L 143.49 100.46 C 144.52 100.99 145.79 100.59 146.32 99.56 C 146.85 98.53 146.45 97.26 145.42 96.72 L 144.53 96.26 C 143.50 95.73 142.23 96.13 141.70 97.17 C 141.16 98.20 141.57 99.47 142.60 100.00 Z M 143.48 100.45 L 144.34 100.90 C 145.37 101.44 146.64 101.04 147.17 100.02 C 147.71 98.99 147.32 97.72 146.29 97.18 L 145.43 96.73 C 144.40 96.19 143.13 96.59 142.59 97.62 C 142.05 98.65 142.45 99.91 143.48 100.45 Z M 144.33 100.90 L 145.21 101.36 C 146.24 101.91 147.51 101.52 148.05 100.50 C 148.59 99.47 148.20 98.20 147.18 97.66 L 146.30 97.19 C 145.27 96.65 144.00 97.04 143.46 98.06 C 142.92 99.08 143.31 100.35 144.33 100.90 Z M 145.20 101.35 L 146.10 101.84 C 147.11 102.39 148.39 102.01 148.94 100.99 C 149.49 99.98 149.11 98.70 148.09 98.15 L 147.19 97.67 C 146.18 97.12 144.91 97.50 144.36 98.52 C 143.81 99.53 144.18 100.80 145.20 101.35 Z M 146.08 101.83 L 146.98 102.32 C 147.99 102.88 149.26 102.52 149.82 101.51 C 150.38 100.49 150.01 99.22 149.00 98.66 L 148.11 98.17 C 147.10 97.61 145.82 97.97 145.26 98.98 C 144.70 100.00 145.07 101.27 146.08 101.83 Z M 146.96 102.31 L 147.85 102.81 C 148.85 103.38 150.12 103.03 150.69 102.03 C 151.26 101.03 150.91 99.75 149.91 99.18 L 149.02 98.68 C 148.02 98.11 146.75 98.46 146.18 99.46 C 145.61 100.46 145.96 101.74 146.96 102.31 Z M 147.82 102.80 L 148.69 103.30 C 149.68 103.89 150.96 103.56 151.54 102.56 C 152.13 101.57 151.79 100.29 150.80 99.71 L 149.93 99.20 C 148.94 98.62 147.66 98.95 147.08 99.94 C 146.50 100.93 146.83 102.21 147.82 102.80 Z M 148.66 103.28 L 149.58 103.84 C 150.56 104.44 151.84 104.13 152.44 103.15 C 153.04 102.17 152.73 100.89 151.75 100.29 L 150.83 99.73 C 149.85 99.13 148.57 99.44 147.97 100.42 C 147.37 101.40 147.68 102.68 148.66 103.28 Z M 149.55 103.81 L 150.47 104.40 C 151.43 105.01 152.71 104.73 153.32 103.77 C 153.94 102.81 153.66 101.53 152.69 100.91 L 151.78 100.33 C 150.81 99.71 149.54 99.99 148.92 100.95 C 148.31 101.92 148.59 103.19 149.55 103.81 Z M 150.44 104.36 L 151.31 104.94 C 152.25 105.57 153.53 105.32 154.16 104.37 C 154.79 103.43 154.53 102.15 153.59 101.52 L 152.72 100.94 C 151.77 100.31 150.50 100.57 149.87 101.51 C 149.24 102.46 149.49 103.73 150.44 104.36 Z M 151.29 104.91 L 152.11 105.48 C 153.03 106.12 154.30 105.89 154.95 104.96 C 155.59 104.04 155.36 102.77 154.43 102.12 L 153.61 101.55 C 152.68 100.91 151.41 101.14 150.77 102.07 C 150.13 103.00 150.36 104.27 151.29 104.91 Z M 152.09 105.45 L 152.86 106.00 C 153.77 106.66 155.04 106.45 155.69 105.54 C 156.34 104.63 156.13 103.36 155.22 102.71 L 154.45 102.15 C 153.54 101.50 152.27 101.71 151.62 102.62 C 150.97 103.53 151.18 104.80 152.09 105.45 Z M 152.84 105.98 L 153.56 106.51 C 154.46 107.17 155.72 106.98 156.38 106.09 C 157.04 105.19 156.86 103.93 155.96 103.27 L 155.24 102.73 C 154.34 102.07 153.08 102.26 152.42 103.16 C 151.76 104.05 151.95 105.31 152.84 105.98 Z M 153.55 106.48 L 154.37 107.10 C 155.25 107.77 156.50 107.60 157.17 106.72 C 157.84 105.85 157.67 104.59 156.79 103.93 L 155.97 103.30 C 155.10 102.63 153.84 102.80 153.17 103.68 C 152.51 104.56 152.67 105.81 153.55 106.48 Z M 154.36 107.05 L 155.20 107.72 C 156.05 108.40 157.29 108.26 157.96 107.41 C 158.64 106.56 158.50 105.32 157.65 104.64 L 156.81 103.97 C 155.96 103.30 154.72 103.44 154.04 104.29 C 153.37 105.14 153.51 106.38 154.36 107.05 Z M 155.18 107.66 L 155.94 108.30 C 156.75 108.99 157.97 108.89 158.66 108.07 C 159.35 107.25 159.25 106.04 158.43 105.35 L 157.67 104.71 C 156.85 104.02 155.64 104.12 154.95 104.94 C 154.26 105.75 154.36 106.97 155.18 107.66 Z M 155.91 108.23 L 156.59 108.85 C 157.37 109.56 158.57 109.50 159.27 108.73 C 159.98 107.95 159.92 106.75 159.15 106.05 L 158.46 105.42 C 157.69 104.72 156.49 104.77 155.78 105.55 C 155.07 106.32 155.13 107.52 155.91 108.23 Z M 156.55 108.77 L 157.20 109.42 C 157.93 110.15 159.11 110.15 159.84 109.42 C 160.57 108.69 160.57 107.51 159.84 106.78 L 159.19 106.13 C 158.46 105.40 157.28 105.40 156.55 106.13 C 155.83 106.86 155.82 108.04 156.55 108.77 Z M 157.16 109.32 L 157.83 110.07 C 158.50 110.83 159.66 110.89 160.41 110.22 C 161.17 109.55 161.23 108.39 160.56 107.64 L 159.89 106.88 C 159.21 106.13 158.06 106.06 157.30 106.74 C 156.55 107.41 156.48 108.56 157.16 109.32 Z M 157.79 109.97 L 158.41 110.75 C 159.03 111.52 160.15 111.65 160.93 111.03 C 161.70 110.41 161.83 109.28 161.21 108.51 L 160.60 107.74 C 159.98 106.96 158.85 106.83 158.08 107.45 C 157.30 108.07 157.17 109.20 157.79 109.97 Z M 158.39 110.66 L 158.97 111.46 C 159.54 112.25 160.64 112.42 161.42 111.86 C 162.21 111.29 162.39 110.19 161.82 109.40 L 161.24 108.60 C 160.67 107.81 159.57 107.63 158.78 108.20 C 157.99 108.77 157.82 109.87 158.39 110.66 Z M 158.96 111.39 L 159.47 112.16 C 160.00 112.95 161.08 113.16 161.87 112.63 C 162.66 112.10 162.87 111.02 162.34 110.23 L 161.82 109.47 C 161.29 108.68 160.22 108.47 159.43 109.00 C 158.64 109.53 158.43 110.60 158.96 111.39 Z M 159.47 112.10 L 159.95 112.86 C 160.45 113.65 161.49 113.89 162.29 113.39 C 163.08 112.89 163.32 111.84 162.82 111.05 L 162.34 110.29 C 161.84 109.50 160.79 109.26 160.00 109.76 C 159.21 110.26 158.97 111.31 159.47 112.10 Z M 159.94 112.80 L 160.43 113.64 C 160.90 114.43 161.93 114.70 162.72 114.23 C 163.52 113.76 163.79 112.74 163.32 111.94 L 162.82 111.11 C 162.35 110.31 161.33 110.04 160.53 110.51 C 159.74 110.98 159.47 112.01 159.94 112.80 Z M 160.43 113.59 L 160.95 114.53 C 161.39 115.32 162.39 115.61 163.19 115.18 C 163.99 114.74 164.28 113.73 163.84 112.94 L 163.32 112.00 C 162.88 111.20 161.88 110.91 161.08 111.35 C 160.28 111.79 160.00 112.79 160.43 113.59 Z M 160.96 114.48 L 161.46 115.45 C 161.87 116.25 162.85 116.55 163.65 116.14 C 164.44 115.73 164.75 114.75 164.34 113.95 L 163.84 112.98 C 163.42 112.19 162.44 111.88 161.65 112.29 C 160.85 112.71 160.54 113.69 160.96 114.48 Z M 161.46 115.42 L 161.86 116.22 C 162.26 117.02 163.23 117.34 164.02 116.94 C 164.82 116.54 165.14 115.58 164.74 114.78 L 164.34 113.98 C 163.94 113.19 162.97 112.86 162.18 113.26 C 161.39 113.66 161.06 114.63 161.46 115.42 Z M 161.86 116.21 L 162.28 117.07 C 162.67 117.86 163.63 118.19 164.42 117.80 C 165.22 117.41 165.55 116.45 165.16 115.66 L 164.74 114.80 C 164.35 114.01 163.39 113.68 162.60 114.07 C 161.80 114.45 161.48 115.41 161.86 116.21 Z M 162.29 117.05 L 162.72 117.96 C 163.10 118.75 164.05 119.08 164.85 118.70 C 165.64 118.32 165.97 117.37 165.59 116.58 L 165.16 115.67 C 164.78 114.88 163.83 114.55 163.03 114.93 C 162.24 115.31 161.91 116.26 162.29 117.05 Z M 162.72 117.95 L 163.17 118.89 C 163.54 119.68 164.49 120.01 165.28 119.64 C 166.07 119.26 166.41 118.32 166.03 117.53 L 165.59 116.59 C 165.21 115.80 164.27 115.46 163.48 115.84 C 162.69 116.21 162.35 117.16 162.72 117.95 Z M 163.18 118.88 L 163.63 119.84 C 164.00 120.63 164.94 120.97 165.73 120.60 C 166.51 120.23 166.85 119.29 166.48 118.50 L 166.03 117.54 C 165.66 116.75 164.72 116.41 163.93 116.78 C 163.14 117.15 162.80 118.09 163.18 118.88 Z M 163.63 119.84 L 164.09 120.81 C 164.46 121.60 165.39 121.93 166.18 121.57 C 166.96 121.20 167.30 120.27 166.93 119.48 L 166.47 118.51 C 166.11 117.72 165.17 117.38 164.39 117.75 C 163.61 118.12 163.27 119.05 163.63 119.84 Z M 164.10 120.81 L 164.12 120.87 C 164.49 121.65 165.42 121.99 166.20 121.62 C 166.98 121.25 167.32 120.32 166.96 119.54 L 166.93 119.48 C 166.56 118.70 165.63 118.36 164.85 118.73 C 164.07 119.10 163.73 120.03 164.10 120.81 Z"
      fill="black"
      fill-rule="nonzero" /><path d="M 87.79 145.01 L 86.76 145.23 C 85.85 145.42 85.27 146.32 85.46 147.24 C 85.66 148.15 86.56 148.74 87.47 148.54 L 88.50 148.32 C 89.42 148.12 90.00 147.22 89.80 146.31 C 89.61 145.39 88.71 144.81 87.79 145.01 Z M 86.61 145.22 L 85.65 145.51 C 84.72 145.79 84.21 146.77 84.49 147.69 C 84.77 148.61 85.74 149.13 86.66 148.85 L 87.63 148.55 C 88.55 148.27 89.07 147.29 88.79 146.37 C 88.50 145.45 87.53 144.93 86.61 145.22 Z M 85.31 145.59 L 84.48 146.04 C 83.61 146.50 83.27 147.59 83.74 148.46 C 84.21 149.34 85.29 149.67 86.17 149.20 L 87.00 148.76 C 87.87 148.30 88.20 147.21 87.74 146.33 C 87.27 145.46 86.19 145.13 85.31 145.59 Z M 84.03 146.33 L 83.40 146.96 C 82.69 147.67 82.69 148.83 83.40 149.54 C 84.12 150.26 85.28 150.26 85.99 149.54 L 86.62 148.91 C 87.33 148.20 87.33 147.04 86.61 146.33 C 85.90 145.61 84.74 145.61 84.03 146.33 Z M 83.11 147.30 L 82.63 148.12 C 82.10 148.99 82.39 150.13 83.26 150.65 C 84.14 151.17 85.27 150.88 85.79 150.01 L 86.28 149.20 C 86.80 148.32 86.51 147.19 85.64 146.67 C 84.77 146.15 83.63 146.43 83.11 147.30 Z M 82.50 148.33 L 82.08 149.30 C 81.68 150.24 82.11 151.33 83.05 151.74 C 83.99 152.15 85.08 151.71 85.49 150.77 L 85.91 149.80 C 86.32 148.86 85.88 147.77 84.94 147.36 C 84.00 146.96 82.91 147.39 82.50 148.33 Z M 82.05 149.37 L 81.69 150.31 C 81.32 151.27 81.80 152.35 82.76 152.72 C 83.72 153.09 84.80 152.61 85.17 151.65 L 85.53 150.71 C 85.90 149.75 85.42 148.67 84.46 148.30 C 83.49 147.93 82.42 148.41 82.05 149.37 Z M 81.68 150.32 L 81.35 151.18 C 80.99 152.14 81.47 153.22 82.44 153.59 C 83.41 153.95 84.48 153.47 84.85 152.50 L 85.18 151.64 C 85.54 150.67 85.05 149.60 84.09 149.23 C 83.12 148.86 82.04 149.35 81.68 150.32 Z M 81.35 151.18 L 81.00 152.10 C 80.64 153.07 81.13 154.15 82.10 154.51 C 83.07 154.88 84.15 154.39 84.51 153.42 L 84.86 152.50 C 85.22 151.53 84.73 150.45 83.76 150.08 C 82.79 149.72 81.71 150.21 81.35 151.18 Z M 81.00 152.11 L 80.63 153.09 C 80.27 154.06 80.77 155.14 81.74 155.50 C 82.71 155.86 83.79 155.36 84.15 154.39 L 84.52 153.41 C 84.88 152.44 84.38 151.36 83.41 151.00 C 82.44 150.64 81.36 151.13 81.00 152.11 Z M 80.63 153.09 L 80.24 154.14 C 79.89 155.11 80.39 156.19 81.36 156.55 C 82.34 156.91 83.42 156.41 83.78 155.43 L 84.16 154.39 C 84.52 153.41 84.02 152.33 83.04 151.97 C 82.07 151.62 80.98 152.12 80.63 153.09 Z M 80.24 154.14 L 79.90 155.09 C 79.54 156.07 80.04 157.15 81.02 157.50 C 82.00 157.86 83.08 157.35 83.43 156.38 L 83.78 155.43 C 84.13 154.45 83.63 153.37 82.65 153.01 C 81.68 152.66 80.60 153.16 80.24 154.14 Z M 79.89 155.09 L 79.54 156.06 C 79.19 157.04 79.70 158.12 80.68 158.47 C 81.66 158.82 82.73 158.32 83.09 157.34 L 83.44 156.37 C 83.79 155.39 83.28 154.31 82.30 153.96 C 81.33 153.61 80.25 154.11 79.89 155.09 Z M 79.54 156.06 L 79.20 157.03 C 78.84 158.01 79.35 159.09 80.33 159.44 C 81.31 159.79 82.39 159.28 82.74 158.31 L 83.09 157.34 C 83.44 156.36 82.93 155.28 81.95 154.93 C 80.97 154.58 79.89 155.09 79.54 156.06 Z M 79.19 157.04 L 78.86 157.99 C 78.51 158.97 79.02 160.04 80.00 160.39 C 80.98 160.74 82.06 160.23 82.40 159.25 L 82.74 158.30 C 83.09 157.32 82.58 156.24 81.60 155.90 C 80.62 155.55 79.54 156.06 79.19 157.04 Z M 78.85 157.99 L 78.53 158.89 C 78.19 159.87 78.70 160.95 79.68 161.30 C 80.66 161.64 81.74 161.13 82.09 160.15 L 82.41 159.25 C 82.75 158.27 82.24 157.19 81.26 156.84 C 80.28 156.49 79.20 157.01 78.85 157.99 Z M 78.53 158.90 L 78.18 159.88 C 77.84 160.87 78.35 161.94 79.34 162.29 C 80.32 162.63 81.39 162.12 81.74 161.14 L 82.09 160.15 C 82.43 159.17 81.92 158.09 80.94 157.74 C 79.95 157.40 78.88 157.91 78.53 158.90 Z M 78.18 159.89 L 77.84 160.86 C 77.50 161.84 78.02 162.92 79.00 163.26 C 79.98 163.60 81.06 163.09 81.40 162.10 L 81.74 161.13 C 82.08 160.15 81.56 159.08 80.58 158.73 C 79.60 158.39 78.53 158.91 78.18 159.89 Z M 77.84 160.87 L 77.53 161.79 C 77.19 162.77 77.71 163.84 78.69 164.18 C 79.68 164.51 80.75 163.99 81.09 163.01 L 81.40 162.10 C 81.74 161.11 81.22 160.04 80.23 159.70 C 79.25 159.37 78.18 159.89 77.84 160.87 Z M 77.53 161.79 L 77.22 162.69 C 76.89 163.67 77.42 164.74 78.40 165.07 C 79.38 165.41 80.45 164.88 80.78 163.90 L 81.09 163.00 C 81.42 162.02 80.89 160.95 79.91 160.62 C 78.93 160.28 77.86 160.81 77.53 161.79 Z M 77.22 162.70 L 76.92 163.59 C 76.60 164.58 77.13 165.64 78.11 165.97 C 79.10 166.30 80.16 165.76 80.49 164.78 L 80.79 163.89 C 81.11 162.90 80.58 161.84 79.60 161.51 C 78.61 161.18 77.55 161.72 77.22 162.70 Z M 76.92 163.60 L 76.62 164.51 C 76.30 165.49 76.83 166.55 77.82 166.88 C 78.80 167.20 79.86 166.67 80.19 165.68 L 80.49 164.77 C 80.81 163.79 80.28 162.73 79.29 162.41 C 78.31 162.08 77.25 162.61 76.92 163.60 Z M 76.63 164.51 L 76.32 165.45 C 75.99 166.43 76.52 167.49 77.51 167.82 C 78.49 168.14 79.55 167.61 79.87 166.63 L 80.18 165.68 C 80.51 164.70 79.98 163.64 78.99 163.32 C 78.01 162.99 76.95 163.53 76.63 164.51 Z M 76.32 165.45 L 75.99 166.43 C 75.66 167.41 76.19 168.47 77.17 168.79 C 78.15 169.12 79.21 168.59 79.54 167.61 L 79.87 166.63 C 80.20 165.65 79.67 164.59 78.69 164.27 C 77.71 163.94 76.65 164.47 76.32 165.45 Z M 76.00 166.42 L 75.66 167.40 C 75.33 168.38 75.85 169.44 76.83 169.78 C 77.80 170.11 78.86 169.59 79.20 168.61 L 79.53 167.62 C 79.87 166.65 79.35 165.58 78.37 165.25 C 77.39 164.92 76.33 165.44 76.00 166.42 Z M 75.67 167.39 L 75.35 168.31 C 75.01 169.29 75.52 170.35 76.50 170.69 C 77.47 171.03 78.53 170.51 78.87 169.54 L 79.19 168.62 C 79.53 167.65 79.02 166.58 78.04 166.25 C 77.07 165.91 76.01 166.42 75.67 167.39 Z M 75.35 168.30 L 75.02 169.24 C 74.68 170.21 75.18 171.28 76.15 171.62 C 77.12 171.97 78.19 171.46 78.53 170.49 L 78.87 169.55 C 79.21 168.58 78.70 167.51 77.73 167.17 C 76.76 166.83 75.70 167.33 75.35 168.30 Z M 75.03 169.24 L 74.68 170.19 C 74.34 171.15 74.84 172.22 75.81 172.57 C 76.77 172.91 77.84 172.41 78.19 171.45 L 78.53 170.49 C 78.88 169.53 78.37 168.46 77.41 168.11 C 76.44 167.77 75.37 168.27 75.03 169.24 Z M 74.69 170.18 L 74.34 171.14 C 73.99 172.10 74.49 173.17 75.45 173.52 C 76.42 173.87 77.48 173.37 77.83 172.41 L 78.18 171.45 C 78.53 170.49 78.03 169.42 77.07 169.07 C 76.10 168.72 75.04 169.22 74.69 170.18 Z M 74.34 171.13 L 74.00 172.09 C 73.64 173.05 74.14 174.12 75.10 174.47 C 76.06 174.82 77.13 174.33 77.48 173.36 L 77.83 172.41 C 78.18 171.45 77.69 170.38 76.73 170.03 C 75.76 169.68 74.70 170.17 74.34 171.13 Z M 74.00 172.09 L 73.65 173.03 C 73.30 173.99 73.79 175.06 74.75 175.41 C 75.71 175.76 76.78 175.27 77.13 174.31 L 77.48 173.37 C 77.83 172.40 77.34 171.34 76.38 170.99 C 75.42 170.63 74.35 171.13 74.00 172.09 Z M 73.66 173.03 L 73.31 173.97 C 72.96 174.93 73.45 175.99 74.40 176.34 C 75.36 176.70 76.43 176.21 76.78 175.25 L 77.13 174.31 C 77.48 173.35 76.99 172.29 76.03 171.93 C 75.07 171.58 74.01 172.07 73.66 173.03 Z M 73.31 173.97 L 72.97 174.90 C 72.61 175.86 73.10 176.92 74.06 177.28 C 75.01 177.63 76.08 177.14 76.43 176.19 L 76.78 175.25 C 77.13 174.29 76.64 173.23 75.69 172.87 C 74.73 172.52 73.67 173.01 73.31 173.97 Z M 72.97 174.90 L 72.62 175.84 C 72.27 176.79 72.75 177.85 73.71 178.21 C 74.67 178.56 75.73 178.08 76.08 177.12 L 76.43 176.19 C 76.78 175.23 76.30 174.17 75.34 173.81 C 74.39 173.46 73.32 173.95 72.97 174.90 Z M 72.63 175.84 L 72.28 176.77 C 71.92 177.72 72.41 178.79 73.36 179.14 C 74.32 179.49 75.38 179.01 75.73 178.05 L 76.08 177.12 C 76.43 176.17 75.95 175.11 74.99 174.75 C 74.04 174.40 72.98 174.88 72.63 175.84 Z M 72.28 176.77 L 71.93 177.71 C 71.58 178.66 72.06 179.72 73.02 180.07 C 73.97 180.43 75.03 179.94 75.38 178.99 L 75.73 178.05 C 76.08 177.10 75.60 176.04 74.65 175.69 C 73.69 175.33 72.64 175.82 72.28 176.77 Z M 71.94 177.71 L 71.59 178.64 C 71.23 179.59 71.71 180.65 72.66 181.00 C 73.62 181.36 74.67 180.88 75.03 179.93 L 75.38 178.99 C 75.73 178.04 75.25 176.98 74.30 176.63 C 73.35 176.27 72.29 176.76 71.94 177.71 Z M 71.59 178.64 L 71.24 179.57 C 70.88 180.52 71.36 181.58 72.31 181.94 C 73.26 182.29 74.31 181.81 74.67 180.87 L 75.02 179.93 C 75.38 178.98 74.90 177.92 73.95 177.57 C 73.01 177.21 71.95 177.69 71.59 178.64 Z M 71.24 179.57 L 70.89 180.51 C 70.53 181.45 71.00 182.51 71.95 182.87 C 72.89 183.23 73.95 182.75 74.31 181.81 L 74.67 180.87 C 75.03 179.93 74.55 178.87 73.61 178.51 C 72.66 178.15 71.60 178.62 71.24 179.57 Z M 70.89 180.50 L 70.53 181.44 C 70.17 182.38 70.64 183.44 71.58 183.80 C 72.52 184.16 73.58 183.69 73.94 182.75 L 74.30 181.81 C 74.67 180.87 74.20 179.81 73.26 179.45 C 72.31 179.09 71.26 179.56 70.89 180.50 Z M 70.54 181.43 L 70.17 182.37 C 69.81 183.30 70.27 184.36 71.21 184.73 C 72.15 185.10 73.21 184.63 73.57 183.69 L 73.94 182.76 C 74.30 181.82 73.84 180.76 72.90 180.39 C 71.96 180.03 70.91 180.49 70.54 181.43 Z M 70.18 182.36 L 69.81 183.29 C 69.44 184.23 69.90 185.29 70.83 185.66 C 71.77 186.03 72.83 185.57 73.20 184.63 L 73.57 183.70 C 73.94 182.77 73.48 181.71 72.54 181.34 C 71.61 180.97 70.55 181.42 70.18 182.36 Z M 69.82 183.29 L 69.44 184.21 C 69.07 185.15 69.52 186.20 70.45 186.58 C 71.38 186.95 72.44 186.50 72.82 185.57 L 73.19 184.64 C 73.56 183.71 73.11 182.65 72.18 182.28 C 71.25 181.90 70.19 182.35 69.82 183.29 Z M 69.45 184.21 L 69.08 185.13 C 68.70 186.06 69.14 187.12 70.07 187.49 C 71.00 187.87 72.06 187.42 72.44 186.50 L 72.81 185.57 C 73.19 184.65 72.74 183.59 71.81 183.21 C 70.89 182.83 69.83 183.28 69.45 184.21 Z M 69.08 185.12 L 68.70 186.05 C 68.32 186.98 68.76 188.04 69.68 188.42 C 70.61 188.80 71.67 188.36 72.05 187.43 L 72.43 186.50 C 72.81 185.58 72.37 184.52 71.44 184.14 C 70.52 183.76 69.46 184.20 69.08 185.12 Z M 68.71 186.05 L 68.31 186.99 C 67.93 187.91 68.37 188.97 69.29 189.35 C 70.21 189.73 71.27 189.30 71.65 188.37 L 72.04 187.44 C 72.42 186.51 71.99 185.46 71.07 185.07 C 70.15 184.69 69.09 185.13 68.71 186.05 Z M 68.32 186.98 L 67.93 187.91 C 67.55 188.83 67.98 189.89 68.90 190.27 C 69.81 190.66 70.87 190.22 71.26 189.30 L 71.64 188.38 C 72.03 187.46 71.60 186.40 70.68 186.02 C 69.76 185.63 68.71 186.07 68.32 186.98 Z M 67.94 187.91 L 67.55 188.82 C 67.16 189.74 67.59 190.79 68.51 191.18 C 69.42 191.57 70.48 191.14 70.87 190.22 L 71.25 189.31 C 71.64 188.39 71.21 187.34 70.29 186.95 C 69.38 186.56 68.32 186.99 67.94 187.91 Z M 67.55 188.82 L 67.17 189.73 C 66.79 190.64 67.22 191.69 68.13 192.08 C 69.04 192.47 70.09 192.04 70.48 191.12 L 70.86 190.22 C 71.25 189.31 70.82 188.25 69.91 187.87 C 68.99 187.48 67.94 187.91 67.55 188.82 Z M 67.18 189.73 L 66.79 190.66 C 66.40 191.57 66.83 192.62 67.74 193.00 C 68.65 193.39 69.70 192.96 70.09 192.05 L 70.48 191.12 C 70.86 190.21 70.43 189.16 69.52 188.78 C 68.61 188.39 67.56 188.82 67.18 189.73 Z M 66.79 190.66 L 66.40 191.59 C 66.02 192.50 66.44 193.54 67.35 193.93 C 68.26 194.31 69.31 193.88 69.69 192.97 L 70.08 192.04 C 70.47 191.14 70.04 190.09 69.13 189.71 C 68.22 189.32 67.17 189.75 66.79 190.66 Z M 66.40 191.59 L 66.02 192.51 C 65.64 193.42 66.06 194.46 66.97 194.84 C 67.88 195.22 68.92 194.80 69.30 193.89 L 69.69 192.97 C 70.07 192.06 69.64 191.02 68.74 190.64 C 67.83 190.26 66.78 190.68 66.40 191.59 Z M 66.02 192.51 L 65.64 193.43 C 65.26 194.33 65.68 195.37 66.59 195.75 C 67.49 196.13 68.54 195.71 68.91 194.80 L 69.30 193.89 C 69.68 192.98 69.25 191.94 68.35 191.56 C 67.44 191.18 66.40 191.61 66.02 192.51 Z M 65.64 193.43 L 65.26 194.34 C 64.88 195.24 65.31 196.28 66.21 196.66 C 67.11 197.03 68.15 196.61 68.53 195.71 L 68.91 194.80 C 69.29 193.90 68.86 192.86 67.96 192.48 C 67.06 192.10 66.02 192.53 65.64 193.43 Z M 65.27 194.34 L 64.89 195.23 C 64.51 196.13 64.94 197.16 65.84 197.54 C 66.74 197.92 67.77 197.50 68.15 196.60 L 68.53 195.71 C 68.90 194.80 68.48 193.77 67.58 193.39 C 66.68 193.01 65.64 193.44 65.27 194.34 Z M 64.90 195.23 L 64.52 196.13 C 64.14 197.02 64.56 198.06 65.46 198.44 C 66.35 198.82 67.39 198.39 67.77 197.50 L 68.15 196.60 C 68.53 195.70 68.10 194.66 67.21 194.29 C 66.31 193.91 65.28 194.33 64.90 195.23 Z M 64.52 196.12 L 64.13 197.05 C 63.75 197.94 64.17 198.97 65.06 199.35 C 65.96 199.73 66.99 199.32 67.37 198.42 L 67.76 197.50 C 68.14 196.61 67.72 195.57 66.83 195.19 C 65.94 194.81 64.90 195.23 64.52 196.12 Z M 64.14 197.04 L 63.73 197.99 C 63.35 198.88 63.76 199.92 64.65 200.30 C 65.54 200.68 66.57 200.27 66.95 199.38 L 67.36 198.43 C 67.74 197.54 67.33 196.51 66.44 196.12 C 65.55 195.74 64.52 196.15 64.14 197.04 Z M 63.74 197.99 L 63.33 198.93 C 62.94 199.81 63.35 200.84 64.23 201.23 C 65.12 201.61 66.15 201.21 66.54 200.32 L 66.94 199.38 C 67.33 198.50 66.92 197.47 66.04 197.08 C 65.15 196.70 64.12 197.10 63.74 197.99 Z M 63.33 198.93 L 62.93 199.86 C 62.54 200.74 62.94 201.77 63.83 202.15 C 64.71 202.54 65.74 202.14 66.12 201.26 L 66.53 200.32 C 66.92 199.44 66.51 198.41 65.63 198.03 C 64.75 197.64 63.72 198.04 63.33 198.93 Z M 62.93 199.86 L 62.52 200.80 C 62.14 201.68 62.54 202.71 63.42 203.09 C 64.30 203.47 65.33 203.07 65.71 202.19 L 66.12 201.25 C 66.50 200.37 66.10 199.34 65.22 198.96 C 64.34 198.58 63.31 198.98 62.93 199.86 Z M 62.52 200.82 L 62.13 201.75 C 61.75 202.63 62.16 203.64 63.04 204.02 C 63.92 204.40 64.94 203.99 65.31 203.11 L 65.71 202.18 C 66.09 201.30 65.68 200.28 64.80 199.90 C 63.92 199.53 62.90 199.93 62.52 200.82 Z M 62.12 201.77 L 61.75 202.67 C 61.38 203.55 61.80 204.56 62.69 204.93 C 63.57 205.29 64.58 204.87 64.94 203.99 L 65.32 203.09 C 65.68 202.20 65.26 201.19 64.38 200.83 C 63.50 200.46 62.49 200.88 62.12 201.77 Z M 61.74 202.70 L 61.37 203.66 C 61.02 204.55 61.46 205.55 62.34 205.89 C 63.23 206.24 64.23 205.80 64.57 204.92 L 64.95 203.96 C 65.30 203.07 64.86 202.07 63.97 201.73 C 63.09 201.38 62.09 201.82 61.74 202.70 Z M 61.37 203.70 L 61.01 204.68 C 60.68 205.57 61.14 206.55 62.03 206.87 C 62.91 207.20 63.89 206.74 64.22 205.86 L 64.58 204.88 C 64.90 203.99 64.44 203.01 63.56 202.68 C 62.67 202.36 61.69 202.82 61.37 203.70 Z M 61.01 204.72 L 60.69 205.65 C 60.39 206.54 60.86 207.50 61.74 207.80 C 62.63 208.11 63.59 207.64 63.89 206.75 L 64.21 205.82 C 64.52 204.93 64.05 203.97 63.16 203.67 C 62.28 203.37 61.31 203.84 61.01 204.72 Z M 60.70 205.68 L 60.40 206.58 C 60.11 207.46 60.59 208.41 61.47 208.70 C 62.35 208.99 63.30 208.51 63.59 207.63 L 63.89 206.73 C 64.18 205.84 63.70 204.90 62.82 204.61 C 61.94 204.32 60.99 204.80 60.70 205.68 Z M 60.41 206.60 L 60.24 207.14 C 59.95 208.01 60.44 208.95 61.31 209.23 C 62.19 209.52 63.13 209.04 63.41 208.16 L 63.58 207.62 C 63.86 206.74 63.38 205.80 62.51 205.52 C 61.63 205.24 60.69 205.72 60.41 206.60 Z"
      fill="black"
      fill-rule="nonzero" /><path d="M 105.08 151.44 L 105.63 150.25 C 106.01 149.45 105.66 148.49 104.85 148.12 C 104.05 147.75 103.09 148.09 102.72 148.90 L 102.17 150.09 C 101.80 150.89 102.14 151.85 102.95 152.22 C 103.75 152.59 104.71 152.24 105.08 151.44 Z M 105.65 150.29 L 106.17 149.21 C 106.57 148.40 106.23 147.42 105.41 147.03 C 104.60 146.63 103.62 146.97 103.23 147.78 L 102.71 148.86 C 102.31 149.68 102.65 150.65 103.46 151.05 C 104.28 151.44 105.26 151.10 105.65 150.29 Z M 106.17 149.29 L 106.63 148.42 C 107.07 147.61 106.76 146.60 105.96 146.17 C 105.15 145.73 104.14 146.03 103.70 146.84 L 103.24 147.71 C 102.80 148.52 103.10 149.53 103.91 149.96 C 104.72 150.40 105.73 150.10 106.17 149.29 Z M 106.55 148.61 L 106.93 148.07 C 107.47 147.30 107.28 146.25 106.52 145.71 C 105.75 145.17 104.70 145.36 104.16 146.12 L 103.78 146.66 C 103.24 147.42 103.43 148.48 104.19 149.02 C 104.96 149.56 106.01 149.37 106.55 148.61 Z M 105.65 148.82 L 106.02 148.79 C 106.97 148.73 107.69 147.91 107.63 146.96 C 107.57 146.01 106.75 145.29 105.80 145.35 L 105.44 145.37 C 104.48 145.43 103.76 146.25 103.82 147.20 C 103.88 148.16 104.70 148.88 105.65 148.82 Z M 104.17 147.40 L 104.34 148.30 C 104.52 149.27 105.44 149.90 106.41 149.72 C 107.37 149.54 108.00 148.61 107.82 147.65 L 107.65 146.74 C 107.47 145.78 106.55 145.15 105.58 145.33 C 104.62 145.51 103.99 146.44 104.17 147.40 Z M 104.27 148.03 L 104.31 149.34 C 104.34 150.34 105.18 151.12 106.18 151.09 C 107.18 151.06 107.96 150.22 107.93 149.22 L 107.89 147.92 C 107.86 146.92 107.02 146.13 106.02 146.17 C 105.02 146.20 104.24 147.03 104.27 148.03 Z M 104.29 149.31 L 104.30 150.28 C 104.31 151.30 105.15 152.11 106.16 152.09 C 107.17 152.08 107.98 151.25 107.97 150.24 L 107.95 149.26 C 107.94 148.24 107.11 147.43 106.10 147.45 C 105.08 147.46 104.27 148.29 104.29 149.31 Z M 104.30 150.29 L 104.31 151.30 C 104.33 152.31 105.16 153.12 106.18 153.11 C 107.19 153.09 108.00 152.26 107.99 151.24 L 107.97 150.23 C 107.96 149.22 107.12 148.41 106.11 148.42 C 105.09 148.44 104.28 149.27 104.30 150.29 Z M 104.31 151.32 L 104.33 152.33 C 104.36 153.35 105.20 154.16 106.22 154.13 C 107.24 154.10 108.04 153.26 108.02 152.24 L 107.99 151.22 C 107.97 150.21 107.12 149.40 106.10 149.43 C 105.09 149.45 104.28 150.30 104.31 151.32 Z M 104.33 152.37 L 104.37 153.33 C 104.41 154.35 105.28 155.14 106.30 155.10 C 107.32 155.06 108.11 154.19 108.06 153.17 L 108.02 152.21 C 107.98 151.19 107.11 150.40 106.09 150.44 C 105.07 150.48 104.28 151.35 104.33 152.37 Z M 104.37 153.38 L 104.43 154.22 C 104.50 155.24 105.38 156.01 106.40 155.94 C 107.42 155.87 108.19 154.99 108.12 153.97 L 108.06 153.13 C 107.99 152.11 107.11 151.34 106.09 151.41 C 105.07 151.48 104.30 152.36 104.37 153.38 Z M 104.43 154.27 L 104.51 155.16 C 104.60 156.17 105.50 156.92 106.52 156.83 C 107.54 156.74 108.29 155.84 108.20 154.82 L 108.12 153.93 C 108.02 152.91 107.12 152.16 106.10 152.25 C 105.09 152.35 104.34 153.25 104.43 154.27 Z M 104.51 155.19 L 104.62 156.18 C 104.74 157.20 105.65 157.93 106.67 157.82 C 107.69 157.70 108.42 156.79 108.31 155.77 L 108.19 154.78 C 108.08 153.76 107.17 153.03 106.15 153.15 C 105.13 153.26 104.40 154.18 104.51 155.19 Z M 104.63 156.21 L 104.77 157.36 C 104.90 158.37 105.83 159.09 106.84 158.96 C 107.86 158.84 108.58 157.91 108.45 156.89 L 108.30 155.75 C 108.17 154.73 107.25 154.01 106.23 154.14 C 105.22 154.27 104.50 155.19 104.63 156.21 Z M 104.77 157.37 L 104.91 158.40 C 105.05 159.42 105.98 160.13 107.00 159.99 C 108.01 159.86 108.72 158.92 108.59 157.91 L 108.45 156.88 C 108.31 155.86 107.38 155.15 106.36 155.29 C 105.35 155.43 104.64 156.36 104.77 157.37 Z M 104.91 158.41 L 105.03 159.26 C 105.17 160.28 106.11 160.99 107.12 160.85 C 108.14 160.71 108.84 159.77 108.70 158.76 L 108.59 157.90 C 108.44 156.89 107.51 156.18 106.49 156.32 C 105.48 156.46 104.77 157.40 104.91 158.41 Z M 105.03 159.27 L 105.16 160.18 C 105.30 161.20 106.24 161.91 107.25 161.76 C 108.27 161.62 108.97 160.68 108.83 159.67 L 108.70 158.75 C 108.56 157.74 107.62 157.03 106.61 157.17 C 105.60 157.32 104.89 158.25 105.03 159.27 Z M 105.16 160.19 L 105.30 161.16 C 105.44 162.17 106.38 162.88 107.39 162.74 C 108.41 162.59 109.11 161.65 108.97 160.64 L 108.83 159.67 C 108.69 158.65 107.75 157.95 106.74 158.09 C 105.72 158.23 105.02 159.17 105.16 160.19 Z M 105.30 161.16 L 105.44 162.17 C 105.58 163.19 106.52 163.89 107.54 163.75 C 108.55 163.61 109.26 162.67 109.11 161.66 L 108.97 160.64 C 108.83 159.63 107.89 158.92 106.87 159.06 C 105.86 159.21 105.15 160.14 105.30 161.16 Z M 105.44 162.17 L 105.59 163.22 C 105.73 164.24 106.67 164.94 107.68 164.80 C 108.70 164.66 109.40 163.72 109.26 162.71 L 109.11 161.66 C 108.97 160.64 108.03 159.93 107.02 160.08 C 106.00 160.22 105.30 161.16 105.44 162.17 Z M 105.59 163.22 L 105.74 164.29 C 105.88 165.31 106.81 166.02 107.83 165.88 C 108.84 165.74 109.55 164.80 109.41 163.78 L 109.26 162.71 C 109.12 161.69 108.18 160.99 107.17 161.13 C 106.15 161.27 105.44 162.20 105.59 163.22 Z M 105.73 164.29 L 105.88 165.38 C 106.02 166.39 106.96 167.10 107.97 166.97 C 108.99 166.83 109.70 165.89 109.56 164.88 L 109.41 163.79 C 109.27 162.77 108.34 162.06 107.32 162.20 C 106.31 162.34 105.60 163.27 105.73 164.29 Z M 105.88 165.37 L 106.03 166.48 C 106.17 167.49 107.10 168.21 108.12 168.07 C 109.13 167.93 109.85 167.00 109.71 165.98 L 109.56 164.88 C 109.43 163.86 108.49 163.15 107.48 163.29 C 106.46 163.42 105.75 164.36 105.88 165.37 Z M 106.03 166.47 L 106.17 167.58 C 106.31 168.60 107.24 169.32 108.25 169.18 C 109.27 169.05 109.99 168.12 109.86 167.10 L 109.71 165.99 C 109.58 164.97 108.65 164.26 107.63 164.39 C 106.61 164.52 105.90 165.45 106.03 166.47 Z M 106.17 167.58 L 106.31 168.67 C 106.44 169.69 107.37 170.41 108.39 170.28 C 109.41 170.15 110.13 169.22 110.00 168.20 L 109.86 167.11 C 109.73 166.09 108.80 165.37 107.78 165.50 C 106.76 165.63 106.04 166.56 106.17 167.58 Z M 106.31 168.67 L 106.45 169.74 C 106.57 170.75 107.50 171.47 108.52 171.35 C 109.54 171.22 110.26 170.29 110.13 169.27 L 110.00 168.21 C 109.87 167.19 108.94 166.47 107.92 166.60 C 106.91 166.72 106.18 167.65 106.31 168.67 Z M 106.45 169.73 L 106.57 170.76 C 106.70 171.78 107.63 172.50 108.64 172.37 C 109.66 172.25 110.38 171.32 110.26 170.30 L 110.13 169.28 C 110.00 168.26 109.08 167.54 108.06 167.66 C 107.04 167.79 106.32 168.72 106.45 169.73 Z M 106.57 170.76 L 106.69 171.73 C 106.82 172.75 107.74 173.48 108.76 173.35 C 109.78 173.23 110.50 172.30 110.38 171.28 L 110.26 170.31 C 110.13 169.29 109.21 168.56 108.19 168.69 C 107.17 168.81 106.45 169.74 106.57 170.76 Z M 106.69 171.73 L 106.80 172.65 C 106.93 173.66 107.85 174.39 108.87 174.27 C 109.89 174.14 110.61 173.22 110.49 172.20 L 110.38 171.28 C 110.25 170.27 109.33 169.54 108.31 169.67 C 107.29 169.79 106.57 170.72 106.69 171.73 Z M 106.80 172.65 L 106.91 173.49 C 107.03 174.50 107.96 175.23 108.97 175.11 C 109.99 174.98 110.72 174.06 110.59 173.04 L 110.49 172.20 C 110.37 171.18 109.44 170.46 108.42 170.58 C 107.41 170.70 106.68 171.63 106.80 172.65 Z M 106.91 173.49 L 107.03 174.50 C 107.16 175.52 108.08 176.24 109.10 176.12 C 110.12 175.99 110.84 175.07 110.72 174.05 L 110.59 173.04 C 110.47 172.02 109.54 171.30 108.52 171.42 C 107.51 171.54 106.78 172.47 106.91 173.49 Z M 107.03 174.50 L 107.18 175.69 C 107.30 176.71 108.23 177.43 109.25 177.30 C 110.26 177.18 110.99 176.25 110.86 175.23 L 110.72 174.05 C 110.59 173.03 109.66 172.31 108.65 172.43 C 107.63 172.56 106.91 173.48 107.03 174.50 Z M 107.18 175.69 L 107.29 176.65 C 107.42 177.67 108.34 178.39 109.36 178.27 C 110.38 178.14 111.10 177.22 110.98 176.20 L 110.86 175.24 C 110.74 174.22 109.81 173.50 108.79 173.62 C 107.78 173.74 107.05 174.67 107.18 175.69 Z M 107.29 176.64 L 107.39 177.46 C 107.51 178.48 108.43 179.21 109.45 179.09 C 110.47 178.97 111.20 178.05 111.08 177.03 L 110.98 176.21 C 110.86 175.19 109.94 174.46 108.92 174.58 C 107.90 174.70 107.17 175.62 107.29 176.64 Z M 107.39 177.45 L 107.48 178.28 C 107.58 179.30 108.50 180.04 109.52 179.93 C 110.54 179.82 111.28 178.91 111.17 177.89 L 111.08 177.05 C 110.97 176.03 110.06 175.30 109.04 175.40 C 108.02 175.51 107.28 176.43 107.39 177.45 Z M 107.47 178.26 L 107.57 179.24 C 107.66 180.26 108.57 181.01 109.59 180.91 C 110.61 180.82 111.36 179.91 111.26 178.89 L 111.17 177.91 C 111.07 176.89 110.17 176.14 109.15 176.24 C 108.13 176.33 107.38 177.24 107.47 178.26 Z M 107.56 179.22 L 107.65 180.22 C 107.74 181.24 108.63 182.00 109.65 181.92 C 110.68 181.83 111.43 180.93 111.35 179.91 L 111.26 178.91 C 111.18 177.89 110.28 177.13 109.26 177.22 C 108.24 177.30 107.48 178.20 107.56 179.22 Z M 107.65 180.21 L 107.73 181.23 C 107.81 182.25 108.70 183.01 109.73 182.93 C 110.75 182.85 111.51 181.96 111.43 180.94 L 111.35 179.92 C 111.27 178.90 110.37 178.14 109.35 178.22 C 108.33 178.30 107.57 179.19 107.65 180.21 Z M 107.73 181.23 L 107.81 182.20 C 107.89 183.23 108.78 183.99 109.80 183.91 C 110.82 183.83 111.58 182.94 111.51 181.92 L 111.43 180.94 C 111.35 179.92 110.46 179.15 109.44 179.23 C 108.41 179.31 107.65 180.21 107.73 181.23 Z M 107.81 182.20 L 107.88 183.19 C 107.96 184.22 108.85 184.98 109.87 184.90 C 110.90 184.82 111.66 183.93 111.58 182.91 L 111.50 181.92 C 111.43 180.90 110.53 180.13 109.51 180.21 C 108.49 180.29 107.73 181.18 107.81 182.20 Z M 107.88 183.19 L 107.96 184.20 C 108.04 185.22 108.93 185.99 109.95 185.91 C 110.97 185.83 111.73 184.94 111.66 183.92 L 111.58 182.91 C 111.50 181.89 110.61 181.13 109.59 181.20 C 108.57 181.28 107.81 182.17 107.88 183.19 Z M 107.96 184.20 L 108.03 185.20 C 108.11 186.22 109.00 186.99 110.02 186.91 C 111.04 186.83 111.81 185.95 111.73 184.92 L 111.66 183.92 C 111.58 182.90 110.69 182.14 109.67 182.21 C 108.65 182.29 107.88 183.18 107.96 184.20 Z M 108.03 185.19 L 108.10 186.18 C 108.18 187.20 109.06 187.97 110.08 187.90 C 111.11 187.83 111.87 186.94 111.80 185.92 L 111.73 184.93 C 111.66 183.91 110.77 183.14 109.75 183.21 C 108.73 183.29 107.96 184.17 108.03 185.19 Z M 108.10 186.17 L 108.17 187.18 C 108.24 188.20 109.12 188.97 110.14 188.90 C 111.16 188.83 111.93 187.95 111.87 186.93 L 111.80 185.93 C 111.73 184.91 110.85 184.14 109.83 184.20 C 108.81 184.27 108.04 185.15 108.10 186.17 Z M 108.17 187.16 L 108.23 188.17 C 108.29 189.19 109.17 189.97 110.19 189.91 C 111.21 189.85 111.99 188.97 111.93 187.95 L 111.87 186.94 C 111.81 185.92 110.93 185.15 109.91 185.21 C 108.89 185.27 108.11 186.14 108.17 187.16 Z M 108.23 188.16 L 108.28 189.14 C 108.33 190.16 109.20 190.94 110.22 190.89 C 111.24 190.84 112.03 189.97 111.98 188.95 L 111.93 187.97 C 111.88 186.95 111.01 186.16 109.99 186.21 C 108.96 186.27 108.18 187.14 108.23 188.16 Z M 108.28 189.12 L 108.32 190.11 C 108.37 191.13 109.23 191.92 110.25 191.88 C 111.27 191.83 112.06 190.97 112.02 189.95 L 111.98 188.97 C 111.93 187.94 111.07 187.15 110.05 187.20 C 109.03 187.24 108.24 188.10 108.28 189.12 Z M 108.32 190.10 L 108.36 191.10 C 108.40 192.12 109.26 192.92 110.28 192.88 C 111.30 192.84 112.09 191.98 112.06 190.96 L 112.02 189.96 C 111.98 188.94 111.12 188.14 110.10 188.18 C 109.08 188.22 108.28 189.08 108.32 190.10 Z M 108.36 191.10 L 108.40 192.12 C 108.43 193.14 109.29 193.94 110.31 193.91 C 111.33 193.87 112.12 193.02 112.09 192.00 L 112.05 190.97 C 112.02 189.95 111.16 189.15 110.14 189.19 C 109.12 189.22 108.33 190.08 108.36 191.10 Z M 108.40 192.12 L 108.43 193.12 C 108.46 194.14 109.32 194.94 110.34 194.90 C 111.36 194.87 112.16 194.02 112.12 193.00 L 112.09 192.00 C 112.06 190.98 111.20 190.18 110.18 190.21 C 109.16 190.25 108.36 191.10 108.40 192.12 Z M 108.43 193.12 L 108.46 194.13 C 108.50 195.15 109.35 195.95 110.37 195.91 C 111.39 195.88 112.19 195.03 112.15 194.01 L 112.12 193.00 C 112.09 191.98 111.24 191.18 110.22 191.21 C 109.20 191.25 108.40 192.10 108.43 193.12 Z M 108.46 194.13 L 108.50 195.13 C 108.53 196.15 109.38 196.95 110.40 196.92 C 111.42 196.89 112.22 196.03 112.19 195.01 L 112.15 194.01 C 112.12 192.99 111.27 192.19 110.25 192.22 C 109.23 192.26 108.43 193.11 108.46 194.13 Z M 108.50 195.14 L 108.53 196.12 C 108.56 197.14 109.42 197.94 110.44 197.90 C 111.45 197.87 112.25 197.02 112.22 196.00 L 112.19 195.01 C 112.15 193.99 111.30 193.20 110.28 193.23 C 109.26 193.26 108.46 194.12 108.50 195.14 Z M 108.53 196.12 L 108.57 197.15 C 108.60 198.17 109.45 198.97 110.47 198.93 C 111.49 198.90 112.29 198.05 112.25 197.03 L 112.22 196.00 C 112.18 194.98 111.33 194.18 110.31 194.22 C 109.29 194.25 108.50 195.11 108.53 196.12 Z M 108.57 197.15 L 108.60 198.15 C 108.63 199.17 109.48 199.97 110.50 199.93 C 111.52 199.90 112.32 199.05 112.28 198.03 L 112.25 197.03 C 112.22 196.01 111.37 195.21 110.35 195.25 C 109.33 195.28 108.53 196.13 108.57 197.15 Z M 108.60 198.14 L 108.63 199.12 C 108.65 200.14 109.50 200.94 110.52 200.91 C 111.54 200.89 112.34 200.04 112.31 199.02 L 112.28 198.04 C 112.26 197.02 111.41 196.22 110.39 196.25 C 109.37 196.27 108.57 197.12 108.60 198.14 Z M 108.63 199.11 L 108.65 200.09 C 108.67 201.11 109.51 201.92 110.52 201.90 C 111.54 201.88 112.35 201.03 112.33 200.02 L 112.31 199.03 C 112.29 198.02 111.45 197.21 110.43 197.23 C 109.41 197.25 108.61 198.09 108.63 199.11 Z M 108.65 200.07 L 108.66 201.07 C 108.67 202.09 109.50 202.90 110.52 202.89 C 111.54 202.88 112.35 202.05 112.34 201.03 L 112.33 200.03 C 112.32 199.02 111.49 198.20 110.47 198.21 C 109.45 198.22 108.64 199.06 108.65 200.07 Z M 108.66 201.06 L 108.66 202.06 C 108.67 203.08 109.50 203.90 110.51 203.89 C 111.53 203.89 112.35 203.06 112.35 202.04 L 112.34 201.04 C 112.34 200.02 111.51 199.20 110.49 199.21 C 109.47 199.21 108.65 200.04 108.66 201.06 Z M 108.66 202.05 L 108.66 203.06 C 108.67 204.07 109.49 204.90 110.51 204.90 C 111.52 204.89 112.35 204.07 112.35 203.05 L 112.34 202.05 C 112.34 201.03 111.52 200.21 110.50 200.21 C 109.49 200.21 108.66 201.04 108.66 202.05 Z M 108.67 203.05 L 108.67 204.06 C 108.67 205.07 109.49 205.90 110.51 205.90 C 111.52 205.90 112.34 205.07 112.34 204.06 L 112.34 203.05 C 112.34 202.04 111.52 201.22 110.51 201.22 C 109.49 201.22 108.67 202.04 108.67 203.05 Z M 108.67 204.06 L 108.67 205.06 C 108.67 206.07 109.49 206.90 110.51 206.90 C 111.52 206.90 112.34 206.07 112.34 205.06 L 112.34 204.06 C 112.34 203.04 111.52 202.22 110.51 202.22 C 109.49 202.22 108.67 203.04 108.67 204.06 Z M 108.67 205.06 L 108.67 206.06 C 108.67 207.07 109.49 207.90 110.51 207.90 C 111.52 207.90 112.34 207.07 112.34 206.06 L 112.34 205.06 C 112.34 204.04 111.52 203.22 110.51 203.22 C 109.49 203.22 108.67 204.04 108.67 205.06 Z M 108.67 206.06 L 108.67 207.06 C 108.67 208.07 109.49 208.89 110.51 208.89 C 111.52 208.89 112.34 208.07 112.34 207.06 L 112.34 206.06 C 112.34 205.04 111.52 204.22 110.51 204.22 C 109.49 204.22 108.67 205.04 108.67 206.06 Z M 108.67 207.06 L 108.67 208.06 C 108.67 209.07 109.49 209.89 110.51 209.89 C 111.52 209.89 112.34 209.07 112.34 208.06 L 112.34 207.06 C 112.34 206.04 111.52 205.22 110.50 205.22 C 109.49 205.22 108.67 206.04 108.67 207.06 Z M 108.67 208.06 L 108.67 209.06 C 108.67 210.08 109.50 210.90 110.51 210.89 C 111.53 210.89 112.35 210.07 112.35 209.05 L 112.34 208.05 C 112.34 207.04 111.52 206.22 110.50 206.22 C 109.49 206.22 108.67 207.05 108.67 208.06 Z M 108.67 209.07 L 108.68 210.07 C 108.69 211.09 109.52 211.90 110.53 211.89 C 111.55 211.89 112.36 211.06 112.35 210.04 L 112.35 209.04 C 112.34 208.03 111.51 207.21 110.49 207.22 C 109.48 207.23 108.66 208.06 108.67 209.07 Z M 108.68 210.09 L 108.69 211.08 C 108.71 212.09 109.55 212.90 110.56 212.89 C 111.57 212.87 112.38 212.04 112.37 211.02 L 112.35 210.03 C 112.34 209.01 111.50 208.20 110.49 208.22 C 109.47 208.24 108.66 209.07 108.68 210.09 Z M 108.69 211.10 L 108.72 212.08 C 108.74 213.09 109.59 213.89 110.60 213.87 C 111.62 213.84 112.42 213.00 112.39 211.99 L 112.37 211.01 C 112.34 209.99 111.50 209.19 110.49 209.21 C 109.47 209.24 108.67 210.08 108.69 211.10 Z M 108.72 212.09 L 108.75 213.08 C 108.79 214.10 109.64 214.89 110.65 214.86 C 111.67 214.82 112.46 213.97 112.43 212.96 L 112.39 211.97 C 112.36 210.95 111.51 210.16 110.49 210.19 C 109.48 210.23 108.69 211.08 108.72 212.09 Z M 108.75 213.10 L 108.80 214.11 C 108.84 215.13 109.69 215.91 110.71 215.87 C 111.72 215.83 112.51 214.97 112.47 213.96 L 112.42 212.94 C 112.38 211.93 111.53 211.14 110.51 211.19 C 109.50 211.23 108.71 212.08 108.75 213.10 Z M 108.80 214.12 L 108.84 215.10 C 108.89 216.11 109.76 216.90 110.77 216.85 C 111.78 216.80 112.57 215.93 112.52 214.92 L 112.47 213.94 C 112.42 212.93 111.55 212.15 110.54 212.20 C 109.53 212.25 108.75 213.11 108.80 214.12 Z M 108.85 215.11 L 108.90 216.04 C 108.96 217.05 109.82 217.83 110.84 217.77 C 111.85 217.71 112.62 216.84 112.57 215.83 L 112.51 214.91 C 112.46 213.89 111.59 213.12 110.58 213.18 C 109.56 213.23 108.79 214.10 108.85 215.11 Z M 108.90 216.06 L 108.96 217.03 C 109.03 218.04 109.90 218.81 110.92 218.74 C 111.93 218.67 112.70 217.80 112.63 216.79 L 112.57 215.82 C 112.50 214.80 111.63 214.04 110.61 214.10 C 109.60 214.17 108.83 215.04 108.90 216.06 Z M 108.96 217.04 L 109.04 218.08 C 109.12 219.09 110.00 219.85 111.01 219.77 C 112.02 219.69 112.78 218.81 112.71 217.80 L 112.63 216.77 C 112.55 215.76 111.67 215.00 110.66 215.07 C 109.65 215.15 108.89 216.03 108.96 217.04 Z M 109.04 218.09 L 109.14 219.20 C 109.22 220.21 110.11 220.96 111.12 220.87 C 112.14 220.79 112.89 219.90 112.80 218.89 L 112.70 217.78 C 112.62 216.77 111.73 216.02 110.72 216.11 C 109.71 216.19 108.96 217.08 109.04 218.09 Z M 109.14 219.22 L 109.23 220.16 C 109.33 221.17 110.22 221.91 111.23 221.82 C 112.24 221.72 112.98 220.82 112.89 219.81 L 112.80 218.87 C 112.70 217.86 111.80 217.12 110.79 217.21 C 109.78 217.31 109.04 218.21 109.14 219.22 Z M 109.23 220.18 L 109.34 221.17 C 109.45 222.18 110.35 222.91 111.36 222.80 C 112.37 222.69 113.10 221.79 112.99 220.78 L 112.89 219.79 C 112.78 218.78 111.87 218.05 110.86 218.16 C 109.85 218.27 109.12 219.18 109.23 220.18 Z M 109.34 221.20 L 109.46 222.20 C 109.59 223.21 110.50 223.93 111.51 223.80 C 112.52 223.68 113.23 222.76 113.11 221.76 L 112.99 220.75 C 112.86 219.74 111.95 219.03 110.94 219.15 C 109.93 219.27 109.22 220.19 109.34 221.20 Z M 109.47 222.24 L 109.61 223.25 C 109.75 224.26 110.68 224.96 111.69 224.81 C 112.69 224.67 113.39 223.74 113.25 222.74 L 113.11 221.72 C 112.96 220.72 112.04 220.02 111.03 220.16 C 110.03 220.30 109.33 221.23 109.47 222.24 Z M 109.62 223.29 L 109.78 224.30 C 109.95 225.30 110.89 225.98 111.89 225.81 C 112.89 225.65 113.57 224.70 113.41 223.70 L 113.24 222.70 C 113.08 221.69 112.13 221.02 111.13 221.18 C 110.13 221.35 109.45 222.29 109.62 223.29 Z M 109.79 224.35 L 109.99 225.36 C 110.18 226.36 111.15 227.01 112.14 226.82 C 113.14 226.62 113.79 225.66 113.60 224.66 L 113.40 223.65 C 113.21 222.65 112.24 222.00 111.24 222.20 C 110.25 222.39 109.60 223.35 109.79 224.35 Z M 110.00 225.43 L 110.24 226.44 C 110.47 227.43 111.45 228.05 112.44 227.82 C 113.43 227.59 114.05 226.60 113.82 225.61 L 113.58 224.60 C 113.35 223.61 112.37 222.99 111.38 223.22 C 110.39 223.45 109.77 224.44 110.00 225.43 Z M 110.26 226.51 L 110.52 227.49 C 110.79 228.47 111.80 229.04 112.78 228.78 C 113.76 228.51 114.33 227.50 114.07 226.52 L 113.80 225.54 C 113.53 224.56 112.52 223.99 111.54 224.26 C 110.56 224.52 109.99 225.53 110.26 226.51 Z M 110.55 227.57 L 110.85 228.51 C 111.16 229.47 112.19 230.00 113.16 229.69 C 114.13 229.38 114.66 228.35 114.35 227.38 L 114.04 226.44 C 113.73 225.48 112.70 224.95 111.73 225.26 C 110.77 225.57 110.24 226.60 110.55 227.57 Z M 110.88 228.59 L 111.22 229.49 C 111.57 230.44 112.63 230.92 113.58 230.57 C 114.53 230.21 115.01 229.15 114.66 228.20 L 114.32 227.30 C 113.96 226.35 112.90 225.87 111.95 226.22 C 111.00 226.58 110.52 227.64 110.88 228.59 Z M 111.25 229.58 L 111.65 230.48 C 112.05 231.41 113.13 231.83 114.06 231.43 C 114.99 231.02 115.42 229.94 115.01 229.01 L 114.62 228.11 C 114.21 227.18 113.13 226.76 112.20 227.16 C 111.27 227.57 110.85 228.65 111.25 229.58 Z M 111.69 230.58 L 112.16 231.50 C 112.62 232.41 113.73 232.77 114.63 232.31 C 115.53 231.85 115.89 230.74 115.43 229.84 L 114.96 228.91 C 114.50 228.01 113.40 227.65 112.50 228.11 C 111.59 228.57 111.23 229.67 111.69 230.58 Z M 112.23 231.61 L 112.75 232.48 C 113.26 233.35 114.39 233.63 115.26 233.12 C 116.13 232.60 116.41 231.47 115.89 230.60 L 115.37 229.73 C 114.86 228.86 113.73 228.58 112.86 229.10 C 111.99 229.62 111.71 230.74 112.23 231.61 Z M 112.82 232.59 L 113.39 233.40 C 113.97 234.23 115.11 234.43 115.94 233.85 C 116.76 233.27 116.97 232.13 116.39 231.30 L 115.82 230.49 C 115.24 229.66 114.10 229.46 113.27 230.04 C 112.44 230.62 112.24 231.76 112.82 232.59 Z M 113.48 233.52 L 114.09 234.26 C 114.74 235.03 115.89 235.14 116.67 234.50 C 117.44 233.85 117.55 232.70 116.91 231.92 L 116.29 231.18 C 115.65 230.41 114.50 230.30 113.72 230.94 C 112.94 231.59 112.83 232.74 113.48 233.52 Z M 114.21 234.38 L 114.90 235.08 C 115.62 235.79 116.77 235.79 117.49 235.08 C 118.20 234.36 118.20 233.21 117.49 232.49 L 116.79 231.80 C 116.08 231.08 114.92 231.08 114.21 231.80 C 113.49 232.51 113.49 233.67 114.21 234.38 Z M 115.04 235.20 L 115.81 235.83 C 116.59 236.46 117.74 236.34 118.38 235.56 C 119.01 234.78 118.90 233.63 118.11 233.00 L 117.35 232.37 C 116.57 231.74 115.42 231.85 114.78 232.63 C 114.15 233.42 114.26 234.56 115.04 235.20 Z M 115.96 235.93 L 116.79 236.48 C 117.63 237.03 118.75 236.80 119.31 235.96 C 119.86 235.12 119.63 233.99 118.79 233.43 L 117.97 232.89 C 117.13 232.34 116.00 232.57 115.44 233.41 C 114.89 234.25 115.12 235.38 115.96 235.93 Z M 116.93 236.56 L 117.82 237.03 C 118.71 237.50 119.81 237.17 120.28 236.28 C 120.75 235.39 120.41 234.29 119.53 233.82 L 118.64 233.35 C 117.76 232.88 116.66 233.21 116.18 234.10 C 115.71 234.99 116.05 236.09 116.93 236.56 Z M 117.95 237.09 L 118.84 237.48 C 119.76 237.87 120.83 237.45 121.23 236.53 C 121.63 235.61 121.20 234.54 120.28 234.15 L 119.39 233.76 C 118.47 233.36 117.41 233.79 117.01 234.71 C 116.61 235.63 117.03 236.70 117.95 237.09 Z M 118.96 237.52 L 119.83 237.83 C 120.78 238.17 121.81 237.67 122.15 236.73 C 122.48 235.79 121.99 234.75 121.05 234.42 L 120.17 234.10 C 119.23 233.77 118.19 234.26 117.86 235.20 C 117.52 236.15 118.01 237.18 118.96 237.52 Z M 119.93 237.86 L 120.86 238.13 C 121.82 238.41 122.83 237.87 123.11 236.91 C 123.39 235.95 122.84 234.94 121.88 234.66 L 120.95 234.39 C 119.99 234.11 118.99 234.65 118.71 235.61 C 118.42 236.57 118.97 237.58 119.93 237.86 Z M 120.95 238.15 L 121.94 238.39 C 122.91 238.63 123.88 238.03 124.12 237.06 C 124.36 236.09 123.76 235.12 122.79 234.88 L 121.80 234.64 C 120.83 234.41 119.85 235.00 119.62 235.97 C 119.38 236.94 119.98 237.92 120.95 238.15 Z M 122.01 238.41 L 123.06 238.62 C 124.04 238.81 124.99 238.18 125.19 237.21 C 125.38 236.23 124.75 235.28 123.77 235.08 L 122.72 234.87 C 121.74 234.67 120.79 235.30 120.60 236.28 C 120.40 237.26 121.03 238.21 122.01 238.41 Z M 123.12 238.63 L 124.16 238.80 C 125.14 238.97 126.07 238.31 126.24 237.33 C 126.40 236.35 125.74 235.42 124.76 235.25 L 123.72 235.07 C 122.74 234.91 121.81 235.57 121.64 236.55 C 121.47 237.53 122.14 238.46 123.12 238.63 Z M 124.20 238.81 L 125.24 238.96 C 126.22 239.10 127.13 238.42 127.27 237.43 C 127.42 236.45 126.74 235.54 125.75 235.39 L 124.72 235.25 C 123.74 235.10 122.82 235.78 122.68 236.77 C 122.54 237.75 123.22 238.67 124.20 238.81 Z M 125.27 238.96 L 126.31 239.09 C 127.29 239.22 128.19 238.52 128.32 237.53 C 128.44 236.55 127.74 235.65 126.76 235.52 L 125.72 235.39 C 124.73 235.27 123.83 235.97 123.71 236.95 C 123.58 237.94 124.28 238.84 125.27 238.96 Z M 126.34 239.09 L 127.35 239.20 C 128.34 239.31 129.23 238.60 129.34 237.61 C 129.44 236.63 128.73 235.74 127.74 235.63 L 126.73 235.52 C 125.74 235.41 124.85 236.13 124.75 237.11 C 124.64 238.10 125.35 238.99 126.34 239.09 Z M 127.38 239.21 L 128.35 239.30 C 129.33 239.39 130.21 238.66 130.30 237.67 C 130.39 236.69 129.67 235.81 128.68 235.72 L 127.72 235.63 C 126.73 235.54 125.85 236.26 125.76 237.25 C 125.67 238.24 126.39 239.11 127.38 239.21 Z M 128.38 239.30 L 129.31 239.37 C 130.30 239.45 131.17 238.71 131.24 237.72 C 131.32 236.73 130.58 235.87 129.59 235.79 L 128.65 235.72 C 127.66 235.64 126.80 236.38 126.72 237.37 C 126.65 238.36 127.39 239.22 128.38 239.30 Z M 129.35 239.37 L 130.50 239.43 C 131.49 239.49 132.34 238.73 132.39 237.74 C 132.45 236.75 131.69 235.91 130.70 235.85 L 129.55 235.79 C 128.56 235.73 127.72 236.49 127.66 237.48 C 127.61 238.47 128.36 239.32 129.35 239.37 Z M 130.55 239.44 L 131.54 239.46 C 132.53 239.49 133.35 238.71 133.38 237.72 C 133.41 236.73 132.63 235.91 131.64 235.88 L 130.65 235.85 C 129.66 235.82 128.84 236.60 128.81 237.59 C 128.78 238.58 129.56 239.41 130.55 239.44 Z M 131.57 239.46 L 132.46 239.47 C 133.45 239.48 134.26 238.68 134.27 237.69 C 134.28 236.70 133.48 235.90 132.49 235.89 L 131.60 235.88 C 130.61 235.87 129.80 236.67 129.80 237.66 C 129.79 238.65 130.58 239.46 131.57 239.46 Z M 132.48 239.47 L 133.41 239.47 C 134.39 239.47 135.20 238.67 135.20 237.68 C 135.20 236.69 134.39 235.89 133.41 235.89 L 132.48 235.89 C 131.49 235.89 130.69 236.69 130.69 237.68 C 130.69 238.67 131.49 239.47 132.48 239.47 Z M 133.41 239.47 L 134.40 239.47 C 135.39 239.47 136.19 238.67 136.19 237.68 C 136.19 236.69 135.39 235.89 134.40 235.89 L 133.41 235.89 C 132.42 235.89 131.62 236.69 131.62 237.68 C 131.62 238.67 132.42 239.47 133.41 239.47 Z M 134.40 239.47 L 135.40 239.47 C 136.39 239.47 137.19 238.67 137.19 237.68 C 137.19 236.69 136.39 235.89 135.40 235.89 L 134.40 235.89 C 133.41 235.89 132.61 236.69 132.61 237.68 C 132.61 238.67 133.41 239.47 134.40 239.47 Z M 135.40 239.47 L 136.41 239.47 C 137.40 239.47 138.20 238.67 138.20 237.68 C 138.20 236.69 137.40 235.89 136.41 235.89 L 135.40 235.89 C 134.42 235.89 133.62 236.69 133.62 237.68 C 133.62 238.67 134.42 239.47 135.40 239.47 Z M 136.41 239.47 L 137.41 239.47 C 138.40 239.47 139.20 238.67 139.20 237.68 C 139.20 236.69 138.40 235.89 137.41 235.89 L 136.41 235.89 C 135.43 235.89 134.63 236.69 134.63 237.68 C 134.63 238.67 135.43 239.47 136.41 239.47 Z M 137.41 239.46 L 138.42 239.46 C 139.40 239.46 140.20 238.67 140.20 237.68 C 140.20 236.69 139.40 235.89 138.42 235.89 L 137.41 235.89 C 136.43 235.89 135.63 236.69 135.63 237.68 C 135.63 238.67 136.43 239.46 137.41 239.46 Z M 138.42 239.46 L 139.42 239.46 C 140.40 239.46 141.20 238.66 141.20 237.68 C 141.20 236.69 140.40 235.89 139.42 235.89 L 138.42 235.89 C 137.43 235.89 136.63 236.69 136.63 237.68 C 136.63 238.66 137.43 239.46 138.42 239.46 Z M 139.42 239.46 L 140.43 239.46 C 141.41 239.46 142.21 238.66 142.21 237.68 C 142.21 236.69 141.41 235.90 140.43 235.90 L 139.42 235.90 C 138.43 235.90 137.63 236.69 137.63 237.68 C 137.63 238.66 138.43 239.46 139.42 239.46 Z M 140.43 239.46 L 141.43 239.46 C 142.41 239.46 143.21 238.66 143.21 237.68 C 143.21 236.70 142.41 235.90 141.43 235.90 L 140.43 235.90 C 139.45 235.90 138.65 236.70 138.65 237.68 C 138.65 238.66 139.45 239.46 140.43 239.46 Z M 141.43 239.46 L 142.42 239.46 C 143.40 239.46 144.20 238.66 144.20 237.68 C 144.20 236.70 143.40 235.90 142.42 235.90 L 141.43 235.90 C 140.45 235.90 139.65 236.70 139.65 237.68 C 139.65 238.66 140.45 239.46 141.43 239.46 Z M 142.42 239.46 L 143.31 239.46 C 144.29 239.46 145.09 238.66 145.09 237.68 C 145.09 236.69 144.29 235.90 143.31 235.90 L 142.41 235.90 C 141.43 235.90 140.64 236.70 140.64 237.68 C 140.64 238.66 141.44 239.46 142.42 239.46 Z M 143.32 239.45 L 144.26 239.45 C 145.24 239.44 146.03 238.64 146.02 237.66 C 146.01 236.68 145.21 235.89 144.23 235.90 L 143.30 235.90 C 142.32 235.91 141.53 236.71 141.54 237.69 C 141.54 238.67 142.34 239.46 143.32 239.45 Z M 144.28 239.44 L 145.33 239.42 C 146.30 239.41 147.08 238.60 147.07 237.62 C 147.05 236.65 146.24 235.87 145.27 235.88 L 144.22 235.90 C 143.24 235.92 142.46 236.72 142.47 237.70 C 142.49 238.68 143.30 239.46 144.28 239.44 Z M 145.35 239.42 L 146.41 239.39 C 147.39 239.36 148.16 238.55 148.13 237.58 C 148.10 236.60 147.29 235.83 146.31 235.86 L 145.25 235.89 C 144.27 235.92 143.50 236.73 143.53 237.70 C 143.56 238.68 144.37 239.45 145.35 239.42 Z M 146.43 239.39 L 147.35 239.35 C 148.33 239.32 149.09 238.50 149.05 237.53 C 149.01 236.55 148.20 235.79 147.22 235.83 L 146.30 235.86 C 145.32 235.90 144.56 236.72 144.60 237.69 C 144.64 238.66 145.45 239.42 146.43 239.39 Z M 147.37 239.35 L 148.36 239.30 C 149.33 239.26 150.08 238.44 150.04 237.47 C 149.99 236.49 149.17 235.74 148.20 235.79 L 147.21 235.83 C 146.24 235.88 145.49 236.70 145.53 237.67 C 145.58 238.64 146.40 239.39 147.37 239.35 Z M 148.38 239.30 L 149.41 239.24 C 150.38 239.19 151.12 238.36 151.07 237.39 C 151.01 236.42 150.19 235.68 149.22 235.74 L 148.18 235.79 C 147.22 235.85 146.48 236.67 146.53 237.64 C 146.58 238.61 147.41 239.35 148.38 239.30 Z M 149.43 239.23 L 150.48 239.16 C 151.45 239.10 152.18 238.27 152.11 237.30 C 152.05 236.34 151.22 235.61 150.25 235.67 L 149.20 235.74 C 148.24 235.81 147.51 236.64 147.57 237.60 C 147.63 238.57 148.47 239.30 149.43 239.23 Z M 150.51 239.16 L 151.55 239.08 C 152.51 239.00 153.22 238.16 153.15 237.20 C 153.07 236.23 152.23 235.52 151.27 235.59 L 150.23 235.68 C 149.27 235.75 148.55 236.60 148.63 237.56 C 148.70 238.52 149.55 239.24 150.51 239.16 Z M 151.57 239.07 L 152.57 238.98 C 153.53 238.88 154.23 238.03 154.14 237.08 C 154.05 236.12 153.20 235.41 152.24 235.51 L 151.24 235.60 C 150.28 235.69 149.58 236.54 149.67 237.50 C 149.76 238.46 150.61 239.16 151.57 239.07 Z M 152.59 238.97 L 153.57 238.87 C 154.52 238.77 155.22 237.91 155.12 236.95 C 155.01 236.00 154.16 235.30 153.20 235.41 L 152.22 235.51 C 151.26 235.61 150.57 236.47 150.67 237.42 C 150.77 238.38 151.63 239.07 152.59 238.97 Z M 153.58 238.86 L 154.56 238.75 C 155.51 238.65 156.20 237.78 156.09 236.83 C 155.98 235.88 155.12 235.19 154.17 235.30 L 153.19 235.41 C 152.24 235.52 151.55 236.38 151.66 237.33 C 151.76 238.29 152.63 238.97 153.58 238.86 Z M 154.56 238.75 L 155.55 238.64 C 156.51 238.53 157.19 237.67 157.08 236.71 C 156.97 235.76 156.11 235.08 155.16 235.19 L 154.17 235.30 C 153.21 235.41 152.53 236.27 152.64 237.22 C 152.75 238.18 153.61 238.86 154.56 238.75 Z M 155.55 238.64 L 156.56 238.52 C 157.51 238.42 158.20 237.56 158.09 236.61 C 157.98 235.65 157.13 234.97 156.18 235.08 L 155.16 235.19 C 154.21 235.29 153.53 236.15 153.63 237.10 C 153.74 238.06 154.60 238.74 155.55 238.64 Z M 156.55 238.52 L 157.56 238.41 C 158.51 238.31 159.20 237.46 159.10 236.51 C 159.00 235.56 158.15 234.87 157.20 234.97 L 156.19 235.08 C 155.24 235.18 154.55 236.03 154.65 236.98 C 154.75 237.93 155.60 238.62 156.55 238.52 Z M 157.55 238.41 L 158.57 238.31 C 159.51 238.21 160.21 237.37 160.11 236.42 C 160.02 235.48 159.18 234.79 158.23 234.88 L 157.21 234.98 C 156.26 235.07 155.57 235.91 155.66 236.86 C 155.76 237.81 156.60 238.50 157.55 238.41 Z M 158.56 238.30 L 159.58 238.21 C 160.52 238.12 161.22 237.28 161.13 236.34 C 161.04 235.40 160.21 234.70 159.26 234.79 L 158.24 234.88 C 157.30 234.97 156.60 235.81 156.69 236.75 C 156.78 237.69 157.61 238.39 158.56 238.30 Z M 159.57 238.20 L 160.58 238.11 C 161.52 238.03 162.21 237.20 162.13 236.26 C 162.05 235.32 161.22 234.63 160.28 234.71 L 159.27 234.80 C 158.33 234.88 157.64 235.71 157.72 236.65 C 157.80 237.59 158.63 238.28 159.57 238.20 Z M 160.57 238.10 L 161.55 238.02 C 162.48 237.94 163.18 237.12 163.10 236.19 C 163.02 235.25 162.20 234.56 161.26 234.63 L 160.29 234.72 C 159.35 234.79 158.66 235.62 158.74 236.55 C 158.81 237.49 159.63 238.18 160.57 238.10 Z M 161.54 238.02 L 162.51 237.94 C 163.45 237.87 164.14 237.05 164.07 236.12 C 163.99 235.19 163.18 234.49 162.25 234.56 L 161.27 234.64 C 160.34 234.71 159.64 235.53 159.72 236.46 C 159.79 237.39 160.61 238.09 161.54 238.02 Z M 162.51 237.94 L 163.61 237.85 C 164.54 237.78 165.24 236.97 165.17 236.04 C 165.10 235.11 164.29 234.42 163.36 234.48 L 162.26 234.57 C 161.33 234.64 160.63 235.45 160.70 236.38 C 160.77 237.31 161.58 238.01 162.51 237.94 Z M 163.60 237.85 L 164.62 237.78 C 165.55 237.72 166.25 236.91 166.19 235.98 C 166.12 235.05 165.32 234.35 164.39 234.41 L 163.37 234.48 C 162.44 234.55 161.74 235.35 161.80 236.29 C 161.86 237.22 162.67 237.92 163.60 237.85 Z M 164.61 237.78 L 165.56 237.73 C 166.49 237.67 167.20 236.87 167.14 235.93 C 167.08 235.00 166.28 234.30 165.35 234.35 L 164.40 234.41 C 163.47 234.47 162.76 235.27 162.82 236.20 C 162.88 237.14 163.68 237.84 164.61 237.78 Z M 165.55 237.73 L 166.46 237.68 C 167.39 237.62 168.10 236.83 168.05 235.89 C 167.99 234.96 167.20 234.25 166.27 234.30 L 165.36 234.35 C 164.43 234.41 163.72 235.20 163.77 236.13 C 163.82 237.07 164.62 237.78 165.55 237.73 Z M 166.44 237.68 L 167.45 237.63 C 168.38 237.58 169.10 236.79 169.05 235.86 C 169.00 234.93 168.21 234.21 167.28 234.25 L 166.28 234.30 C 165.35 234.35 164.63 235.14 164.67 236.07 C 164.72 237.00 165.51 237.72 166.44 237.68 Z M 167.44 237.63 L 168.44 237.58 C 169.37 237.54 170.09 236.75 170.05 235.82 C 170.01 234.89 169.22 234.17 168.29 234.21 L 167.29 234.25 C 166.36 234.29 165.64 235.08 165.68 236.01 C 165.72 236.94 166.51 237.67 167.44 237.63 Z M 168.43 237.58 L 169.42 237.54 C 170.35 237.51 171.07 236.72 171.04 235.79 C 171.00 234.86 170.22 234.13 169.29 234.17 L 168.30 234.21 C 167.37 234.25 166.64 235.03 166.68 235.96 C 166.71 236.89 167.50 237.62 168.43 237.58 Z M 169.41 237.54 L 170.40 237.51 C 171.33 237.47 172.06 236.69 172.02 235.76 C 171.99 234.83 171.21 234.10 170.27 234.14 L 169.29 234.17 C 168.36 234.21 167.63 234.99 167.67 235.92 C 167.70 236.85 168.48 237.58 169.41 237.54 Z M 170.40 237.51 L 171.38 237.47 C 172.32 237.44 173.04 236.66 173.01 235.73 C 172.98 234.79 172.19 234.07 171.26 234.10 L 170.27 234.14 C 169.34 234.17 168.62 234.95 168.65 235.88 C 168.68 236.81 169.47 237.54 170.40 237.51 Z M 171.38 237.47 L 172.38 237.43 C 173.31 237.40 174.04 236.62 174.00 235.69 C 173.97 234.76 173.19 234.03 172.26 234.07 L 171.26 234.10 C 170.33 234.14 169.61 234.92 169.64 235.85 C 169.67 236.78 170.45 237.50 171.38 237.47 Z M 172.38 237.43 L 173.39 237.40 C 174.32 237.36 175.04 236.58 175.01 235.66 C 174.98 234.73 174.20 234.00 173.27 234.03 L 172.26 234.07 C 171.33 234.10 170.61 234.88 170.64 235.81 C 170.67 236.74 171.45 237.47 172.38 237.43 Z M 173.39 237.40 L 174.40 237.36 C 175.32 237.33 176.05 236.55 176.02 235.62 C 175.98 234.69 175.21 233.97 174.28 234.00 L 173.27 234.03 C 172.34 234.07 171.61 234.85 171.65 235.77 C 171.68 236.70 172.46 237.43 173.39 237.40 Z M 174.39 237.36 L 175.40 237.33 C 176.33 237.29 177.05 236.52 177.02 235.59 C 176.99 234.66 176.21 233.93 175.28 233.97 L 174.28 234.00 C 173.35 234.03 172.63 234.81 172.66 235.74 C 172.69 236.66 173.47 237.39 174.39 237.36 Z M 175.39 237.32 L 176.40 237.29 C 177.32 237.27 178.05 236.49 178.02 235.56 C 178.00 234.64 177.22 233.91 176.29 233.94 L 175.29 233.97 C 174.36 233.99 173.63 234.77 173.66 235.70 C 173.69 236.62 174.46 237.35 175.39 237.32 Z M 176.39 237.29 L 177.38 237.27 C 178.31 237.25 179.04 236.48 179.02 235.55 C 179.00 234.62 178.23 233.89 177.30 233.91 L 176.30 233.94 C 175.38 233.96 174.64 234.73 174.67 235.66 C 174.69 236.58 175.46 237.32 176.39 237.29 Z M 177.37 237.27 L 178.38 237.25 C 179.31 237.24 180.05 236.47 180.03 235.55 C 180.02 234.62 179.25 233.88 178.33 233.90 L 177.31 233.91 C 176.39 233.93 175.65 234.69 175.66 235.62 C 175.68 236.54 176.44 237.28 177.37 237.27 Z M 178.37 237.25 L 179.38 237.24 C 180.31 237.24 181.05 236.48 181.05 235.55 C 181.04 234.62 180.28 233.88 179.35 233.89 L 178.34 233.90 C 177.41 233.90 176.67 234.66 176.68 235.59 C 176.68 236.52 177.44 237.26 178.37 237.25 Z M 179.37 237.24 L 180.36 237.24 C 181.29 237.24 182.04 236.48 182.04 235.56 C 182.03 234.63 181.28 233.88 180.35 233.88 L 179.36 233.89 C 178.44 233.89 177.69 234.64 177.69 235.57 C 177.69 236.50 178.45 237.25 179.37 237.24 Z M 180.36 237.24 L 181.34 237.24 C 182.26 237.24 183.02 236.49 183.01 235.56 C 183.01 234.64 182.26 233.88 181.34 233.88 L 180.36 233.88 C 179.43 233.89 178.68 234.64 178.68 235.56 C 178.68 236.49 179.43 237.24 180.36 237.24 Z M 181.34 237.24 L 182.35 237.24 C 183.28 237.24 184.03 236.49 184.03 235.56 C 184.03 234.64 183.28 233.88 182.35 233.88 L 181.34 233.88 C 180.41 233.88 179.66 234.64 179.66 235.56 C 179.66 236.49 180.41 237.24 181.34 237.24 Z M 182.35 237.24 L 183.35 237.24 C 184.28 237.24 185.03 236.49 185.03 235.56 C 185.03 234.63 184.28 233.88 183.35 233.88 L 182.35 233.88 C 181.42 233.88 180.67 234.63 180.67 235.56 C 180.67 236.49 181.42 237.24 182.35 237.24 Z M 183.35 237.24 L 184.34 237.24 C 185.27 237.24 186.02 236.49 186.02 235.56 C 186.02 234.63 185.27 233.88 184.34 233.88 L 183.35 233.88 C 182.42 233.88 181.67 234.63 181.67 235.56 C 181.67 236.49 182.42 237.24 183.35 237.24 Z M 184.34 237.25 L 185.32 237.25 C 186.25 237.25 187.01 236.49 187.00 235.56 C 187.00 234.63 186.25 233.88 185.32 233.88 L 184.34 233.88 C 183.41 233.88 182.65 234.63 182.65 235.56 C 182.65 236.49 183.41 237.25 184.34 237.25 Z M 185.33 237.25 L 186.32 237.24 C 187.25 237.24 188.00 236.48 188.00 235.55 C 187.99 234.61 187.23 233.86 186.30 233.87 L 185.31 233.87 C 184.38 233.88 183.63 234.64 183.63 235.57 C 183.64 236.50 184.40 237.25 185.33 237.25 Z M 186.34 237.25 L 187.35 237.23 C 188.28 237.21 189.02 236.44 189.01 235.51 C 188.99 234.58 188.22 233.83 187.29 233.85 L 186.28 233.87 C 185.35 233.88 184.60 234.65 184.62 235.59 C 184.64 236.52 185.41 237.26 186.34 237.25 Z M 187.38 237.23 L 188.38 237.20 C 189.32 237.16 190.05 236.38 190.02 235.44 C 189.98 234.51 189.20 233.78 188.26 233.81 L 187.26 233.85 C 186.32 233.88 185.59 234.66 185.62 235.60 C 185.66 236.53 186.44 237.26 187.38 237.23 Z M 188.44 237.20 L 189.43 237.13 C 190.36 237.07 191.07 236.26 191.01 235.32 C 190.94 234.38 190.13 233.68 189.20 233.74 L 188.21 233.81 C 187.27 233.87 186.56 234.68 186.63 235.62 C 186.69 236.56 187.50 237.26 188.44 237.20 Z M 189.53 237.13 L 190.53 237.00 C 191.46 236.88 192.12 236.02 192.00 235.09 C 191.88 234.15 191.02 233.49 190.09 233.61 L 189.09 233.74 C 188.16 233.86 187.50 234.72 187.62 235.66 C 187.74 236.59 188.60 237.25 189.53 237.13 Z M 190.68 236.98 L 191.67 236.76 C 192.59 236.55 193.18 235.63 192.97 234.71 C 192.76 233.78 191.84 233.20 190.91 233.41 L 189.93 233.63 C 189.00 233.84 188.42 234.76 188.63 235.68 C 188.84 236.61 189.76 237.19 190.68 236.98 Z M 191.88 236.71 L 192.87 236.36 C 193.76 236.03 194.23 235.04 193.91 234.14 C 193.58 233.24 192.59 232.78 191.69 233.10 L 190.70 233.46 C 189.81 233.78 189.34 234.77 189.66 235.67 C 189.99 236.57 190.98 237.04 191.88 236.71 Z M 193.10 236.27 L 194.02 235.78 C 194.87 235.32 195.19 234.26 194.73 233.41 C 194.28 232.56 193.22 232.24 192.37 232.70 L 191.45 233.19 C 190.60 233.64 190.28 234.70 190.74 235.55 C 191.19 236.40 192.25 236.72 193.10 236.27 Z M 194.29 235.62 L 195.05 235.02 C 195.82 234.41 195.95 233.30 195.34 232.54 C 194.74 231.77 193.63 231.64 192.86 232.25 L 192.10 232.85 C 191.33 233.46 191.20 234.57 191.81 235.33 C 192.41 236.10 193.52 236.23 194.29 235.62 Z M 195.36 234.73 L 195.91 234.03 C 196.52 233.25 196.38 232.13 195.60 231.53 C 194.83 230.92 193.71 231.06 193.10 231.84 L 192.55 232.54 C 191.95 233.31 192.09 234.43 192.86 235.04 C 193.64 235.64 194.76 235.51 195.36 234.73 Z M 196.18 233.59 L 196.49 232.80 C 196.85 231.88 196.39 230.83 195.47 230.47 C 194.55 230.11 193.51 230.56 193.15 231.49 L 192.84 232.28 C 192.47 233.20 192.93 234.24 193.85 234.60 C 194.77 234.97 195.81 234.51 196.18 233.59 Z M 196.60 232.42 L 196.74 231.48 C 196.89 230.49 196.22 229.57 195.24 229.42 C 194.26 229.27 193.33 229.94 193.18 230.92 L 193.04 231.87 C 192.88 232.85 193.56 233.77 194.54 233.92 C 195.52 234.08 196.44 233.40 196.60 232.42 Z M 196.77 231.28 L 196.82 230.13 C 196.86 229.14 196.09 228.29 195.09 228.25 C 194.09 228.21 193.25 228.98 193.21 229.98 L 193.16 231.12 C 193.11 232.12 193.89 232.96 194.88 233.01 C 195.88 233.05 196.73 232.28 196.77 231.28 Z M 196.82 230.08 L 196.84 229.09 C 196.85 228.09 196.05 227.27 195.05 227.26 C 194.05 227.24 193.23 228.04 193.21 229.05 L 193.20 230.03 C 193.19 231.03 193.99 231.85 194.99 231.87 C 195.99 231.88 196.81 231.08 196.82 230.08 Z M 196.84 229.08 L 196.84 228.14 C 196.85 227.14 196.04 226.32 195.04 226.32 C 194.04 226.31 193.22 227.12 193.22 228.12 L 193.21 229.06 C 193.21 230.06 194.01 230.88 195.01 230.88 C 196.01 230.89 196.83 230.08 196.84 229.08 Z M 196.84 228.13 L 196.84 227.13 C 196.85 226.13 196.03 225.31 195.03 225.31 C 194.03 225.31 193.22 226.12 193.22 227.12 L 193.22 228.13 C 193.22 229.13 194.03 229.94 195.03 229.94 C 196.03 229.94 196.84 229.13 196.84 228.13 Z M 196.84 227.12 L 196.84 226.07 C 196.83 225.07 196.02 224.26 195.02 224.27 C 194.02 224.27 193.21 225.09 193.21 226.09 L 193.22 227.13 C 193.22 228.14 194.04 228.94 195.04 228.94 C 196.04 228.93 196.85 228.12 196.84 227.12 Z M 196.84 226.06 L 196.83 225.00 C 196.82 224.00 196.00 223.20 194.99 223.21 C 193.99 223.22 193.19 224.04 193.20 225.04 L 193.21 226.10 C 193.23 227.10 194.05 227.91 195.05 227.89 C 196.05 227.88 196.85 227.06 196.84 226.06 Z M 196.83 224.99 L 196.81 223.94 C 196.79 222.94 195.96 222.14 194.96 222.16 C 193.96 222.18 193.17 223.01 193.18 224.01 L 193.20 225.06 C 193.22 226.06 194.05 226.85 195.05 226.84 C 196.05 226.82 196.84 225.99 196.83 224.99 Z M 196.80 223.93 L 196.77 222.89 C 196.75 221.90 195.92 221.11 194.92 221.14 C 193.92 221.16 193.14 221.99 193.16 222.99 L 193.19 224.02 C 193.22 225.02 194.05 225.80 195.04 225.78 C 196.04 225.75 196.83 224.92 196.80 223.93 Z M 196.76 222.88 L 196.73 221.88 C 196.70 220.89 195.87 220.11 194.88 220.14 C 193.89 220.17 193.11 221.00 193.14 221.99 L 193.17 223.00 C 193.21 223.99 194.03 224.77 195.03 224.74 C 196.02 224.71 196.80 223.88 196.76 222.88 Z M 196.72 221.87 L 196.69 220.88 C 196.65 219.90 195.83 219.12 194.84 219.16 C 193.85 219.19 193.08 220.02 193.12 221.01 L 193.15 222.00 C 193.19 222.98 194.01 223.75 195.00 223.72 C 195.98 223.68 196.76 222.86 196.72 221.87 Z M 196.68 220.88 L 196.64 219.90 C 196.61 218.92 195.79 218.15 194.81 218.18 C 193.83 218.22 193.06 219.04 193.09 220.02 L 193.13 221.00 C 193.16 221.98 193.98 222.75 194.96 222.72 C 195.94 222.68 196.71 221.86 196.68 220.88 Z M 196.63 219.90 L 196.60 218.92 C 196.57 217.94 195.76 217.18 194.78 217.21 C 193.81 217.24 193.04 218.05 193.07 219.03 L 193.10 220.01 C 193.13 220.99 193.95 221.75 194.92 221.72 C 195.90 221.69 196.66 220.88 196.63 219.90 Z M 196.59 218.93 L 196.56 217.92 C 196.54 216.95 195.74 216.19 194.77 216.21 C 193.80 216.24 193.04 217.04 193.06 218.01 L 193.08 219.02 C 193.11 219.98 193.91 220.75 194.88 220.72 C 195.85 220.70 196.61 219.90 196.59 218.93 Z M 196.55 217.93 L 196.53 216.89 C 196.51 215.93 195.72 215.17 194.77 215.19 C 193.81 215.20 193.04 215.99 193.06 216.95 L 193.08 217.99 C 193.09 218.95 193.88 219.71 194.84 219.70 C 195.80 219.68 196.56 218.89 196.55 217.93 Z M 196.51 216.90 L 196.50 215.86 C 196.49 214.92 195.71 214.16 194.77 214.17 C 193.82 214.18 193.06 214.95 193.07 215.90 L 193.08 216.94 C 193.09 217.88 193.87 218.64 194.81 218.63 C 195.76 218.62 196.52 217.85 196.51 216.90 Z M 196.48 215.87 L 196.47 214.85 C 196.46 213.92 195.70 213.16 194.77 213.17 C 193.83 213.17 193.08 213.94 193.09 214.87 L 193.09 215.89 C 193.10 216.82 193.86 217.58 194.79 217.57 C 195.73 217.57 196.48 216.80 196.48 215.87 Z M 196.45 214.86 L 196.45 213.88 C 196.44 212.95 195.69 212.21 194.77 212.21 C 193.85 212.21 193.10 212.96 193.10 213.88 L 193.11 214.87 C 193.11 215.79 193.86 216.53 194.78 216.53 C 195.70 216.53 196.45 215.78 196.45 214.86 Z M 196.42 213.88 L 196.42 212.95 C 196.42 212.04 195.68 211.31 194.77 211.31 C 193.86 211.31 193.13 212.04 193.13 212.96 L 193.13 213.88 C 193.13 214.79 193.87 215.53 194.78 215.53 C 195.69 215.53 196.42 214.79 196.42 213.88 Z M 196.40 212.95 L 196.40 211.87 C 196.40 210.97 195.67 210.24 194.77 210.24 C 193.88 210.24 193.15 210.97 193.15 211.87 L 193.15 212.95 C 193.15 213.85 193.88 214.58 194.77 214.58 C 195.67 214.58 196.40 213.85 196.40 212.95 Z M 196.39 211.87 L 196.39 210.83 C 196.39 209.94 195.66 209.22 194.77 209.22 C 193.89 209.22 193.16 209.94 193.16 210.83 L 193.16 211.87 C 193.16 212.76 193.89 213.48 194.77 213.48 C 195.66 213.48 196.39 212.76 196.39 211.87 Z M 196.37 210.83 L 196.37 209.87 C 196.37 208.99 195.65 208.28 194.77 208.28 C 193.90 208.28 193.18 208.99 193.18 209.87 L 193.18 210.83 C 193.18 211.71 193.90 212.42 194.77 212.42 C 195.65 212.42 196.37 211.71 196.37 210.83 Z M 196.35 209.87 L 196.35 208.95 C 196.35 208.08 195.64 207.38 194.77 207.38 C 193.91 207.38 193.20 208.08 193.20 208.95 L 193.20 209.87 C 193.20 210.74 193.91 211.45 194.77 211.45 C 195.64 211.45 196.35 210.74 196.35 209.87 Z M 196.34 208.95 L 196.34 208.71 C 196.34 207.84 195.64 207.14 194.77 207.14 C 193.91 207.14 193.21 207.84 193.21 208.71 L 193.21 208.95 C 193.21 209.81 193.91 210.51 194.77 210.51 C 195.64 210.51 196.34 209.81 196.34 208.95 Z"
      fill="black"
      fill-rule="nonzero" /><path d="M 210.28 149.72 L 210.54 150.77 C 210.77 151.70 211.71 152.28 212.64 152.05 C 213.58 151.82 214.15 150.88 213.92 149.94 L 213.66 148.89 C 213.44 147.96 212.49 147.39 211.56 147.62 C 210.62 147.85 210.05 148.79 210.28 149.72 Z M 210.50 150.79 L 210.75 151.82 C 210.99 152.77 211.96 153.36 212.92 153.12 C 213.88 152.88 214.46 151.91 214.22 150.95 L 213.96 149.92 C 213.72 148.96 212.75 148.38 211.80 148.62 C 210.84 148.86 210.26 149.83 210.50 150.79 Z M 210.72 151.85 L 210.98 152.84 C 211.23 153.82 212.23 154.40 213.21 154.14 C 214.19 153.89 214.77 152.89 214.52 151.91 L 214.26 150.92 C 214.00 149.94 213.00 149.36 212.02 149.61 C 211.04 149.87 210.46 150.87 210.72 151.85 Z M 210.94 152.88 L 211.20 153.81 C 211.48 154.81 212.52 155.39 213.52 155.11 C 214.51 154.83 215.09 153.79 214.81 152.80 L 214.55 151.87 C 214.27 150.87 213.24 150.29 212.24 150.57 C 211.24 150.85 210.66 151.88 210.94 152.88 Z M 211.18 153.88 L 211.44 154.73 C 211.76 155.74 212.83 156.31 213.84 155.99 C 214.86 155.68 215.42 154.60 215.11 153.59 L 214.84 152.74 C 214.53 151.72 213.45 151.16 212.44 151.47 C 211.43 151.79 210.86 152.86 211.18 153.88 Z M 211.45 154.82 L 211.82 155.84 C 212.18 156.85 213.30 157.37 214.31 157.00 C 215.31 156.64 215.84 155.52 215.47 154.51 L 215.10 153.50 C 214.73 152.49 213.62 151.97 212.61 152.33 C 211.60 152.70 211.08 153.81 211.45 154.82 Z M 211.86 155.94 L 212.25 156.87 C 212.67 157.85 213.81 158.31 214.80 157.89 C 215.79 157.47 216.25 156.33 215.83 155.34 L 215.43 154.42 C 215.01 153.43 213.87 152.97 212.88 153.39 C 211.89 153.81 211.44 154.95 211.86 155.94 Z M 212.29 156.93 L 212.69 157.78 C 213.14 158.75 214.30 159.16 215.27 158.71 C 216.24 158.25 216.65 157.10 216.19 156.13 L 215.79 155.28 C 215.33 154.31 214.18 153.90 213.21 154.35 C 212.24 154.81 211.83 155.97 212.29 156.93 Z M 212.70 157.79 L 213.10 158.63 C 213.56 159.59 214.72 160.00 215.68 159.53 C 216.64 159.07 217.05 157.92 216.59 156.95 L 216.18 156.12 C 215.72 155.15 214.56 154.75 213.60 155.21 C 212.64 155.68 212.23 156.83 212.70 157.79 Z M 213.09 158.60 L 213.50 159.48 C 213.95 160.44 215.09 160.86 216.06 160.42 C 217.03 159.97 217.45 158.82 217.00 157.85 L 216.59 156.98 C 216.14 156.02 215.00 155.59 214.03 156.04 C 213.07 156.49 212.65 157.64 213.09 158.60 Z M 213.49 159.45 L 213.90 160.36 C 214.34 161.33 215.47 161.76 216.44 161.33 C 217.41 160.90 217.84 159.76 217.41 158.79 L 217.00 157.88 C 216.57 156.91 215.43 156.48 214.46 156.91 C 213.49 157.35 213.06 158.48 213.49 159.45 Z M 213.90 160.35 L 214.32 161.29 C 214.74 162.26 215.87 162.70 216.84 162.28 C 217.81 161.85 218.25 160.72 217.83 159.75 L 217.41 158.81 C 216.99 157.84 215.86 157.40 214.89 157.82 C 213.92 158.25 213.48 159.38 213.90 160.35 Z M 214.32 161.28 L 214.71 162.19 C 215.13 163.16 216.26 163.60 217.22 163.18 C 218.19 162.76 218.64 161.64 218.22 160.67 L 217.82 159.76 C 217.40 158.79 216.28 158.35 215.31 158.77 C 214.34 159.19 213.90 160.31 214.32 161.28 Z M 214.72 162.18 L 215.10 163.08 C 215.52 164.04 216.64 164.49 217.60 164.07 C 218.57 163.66 219.01 162.54 218.60 161.57 L 218.21 160.68 C 217.80 159.71 216.68 159.27 215.71 159.68 C 214.75 160.10 214.30 161.22 214.72 162.18 Z M 215.10 163.07 L 215.50 163.99 C 215.91 164.95 217.02 165.40 217.99 164.99 C 218.95 164.58 219.40 163.47 218.99 162.50 L 218.59 161.58 C 218.18 160.62 217.07 160.17 216.11 160.58 C 215.14 160.99 214.69 162.10 215.10 163.07 Z M 215.50 163.98 L 215.90 164.93 C 216.31 165.89 217.42 166.34 218.38 165.94 C 219.34 165.53 219.79 164.42 219.38 163.46 L 218.98 162.51 C 218.58 161.55 217.47 161.10 216.51 161.50 C 215.55 161.91 215.10 163.02 215.50 163.98 Z M 215.90 164.92 L 216.29 165.85 C 216.69 166.81 217.79 167.26 218.75 166.86 C 219.71 166.46 220.17 165.36 219.77 164.40 L 219.38 163.47 C 218.98 162.51 217.88 162.06 216.92 162.46 C 215.96 162.86 215.51 163.96 215.90 164.92 Z M 216.30 165.84 L 216.67 166.76 C 217.07 167.71 218.17 168.17 219.12 167.77 C 220.08 167.38 220.54 166.28 220.14 165.33 L 219.76 164.41 C 219.37 163.45 218.27 163.00 217.32 163.39 C 216.36 163.79 215.90 164.88 216.30 165.84 Z M 216.68 166.75 L 217.06 167.68 C 217.45 168.63 218.54 169.09 219.50 168.70 C 220.45 168.30 220.91 167.21 220.51 166.26 L 220.13 165.33 C 219.74 164.38 218.65 163.92 217.70 164.31 C 216.75 164.71 216.29 165.80 216.68 166.75 Z M 217.07 167.67 L 217.45 168.61 C 217.84 169.56 218.93 170.01 219.88 169.62 C 220.83 169.23 221.28 168.15 220.89 167.20 L 220.51 166.26 C 220.12 165.32 219.03 164.86 218.08 165.25 C 217.13 165.64 216.68 166.73 217.07 167.67 Z M 217.46 168.61 L 217.85 169.54 C 218.24 170.49 219.32 170.94 220.26 170.55 C 221.21 170.16 221.66 169.08 221.27 168.14 L 220.88 167.20 C 220.49 166.26 219.41 165.81 218.47 166.20 C 217.53 166.59 217.07 167.67 217.46 168.61 Z M 217.86 169.54 L 218.24 170.46 C 218.63 171.40 219.70 171.85 220.64 171.46 C 221.58 171.07 222.03 169.99 221.64 169.06 L 221.26 168.14 C 220.87 167.20 219.79 166.75 218.85 167.14 C 217.92 167.53 217.47 168.61 217.86 169.54 Z M 218.25 170.46 L 218.63 171.38 C 219.02 172.32 220.09 172.76 221.03 172.37 C 221.96 171.98 222.40 170.91 222.01 169.97 L 221.63 169.06 C 221.24 168.12 220.17 167.68 219.23 168.07 C 218.30 168.46 217.86 169.53 218.25 170.46 Z M 218.64 171.38 L 219.03 172.30 C 219.42 173.23 220.48 173.67 221.41 173.28 C 222.34 172.89 222.77 171.82 222.39 170.90 L 222.00 169.97 C 221.61 169.05 220.55 168.61 219.62 169.00 C 218.69 169.39 218.25 170.45 218.64 171.38 Z M 219.04 172.30 L 219.43 173.23 C 219.82 174.15 220.88 174.58 221.80 174.20 C 222.72 173.81 223.15 172.75 222.77 171.82 L 222.38 170.90 C 221.99 169.97 220.93 169.54 220.01 169.93 C 219.08 170.32 218.65 171.38 219.04 172.30 Z M 219.44 173.23 L 219.83 174.14 C 220.21 175.06 221.27 175.49 222.19 175.10 C 223.10 174.72 223.53 173.66 223.14 172.74 L 222.76 171.83 C 222.37 170.91 221.31 170.48 220.40 170.87 C 219.48 171.25 219.05 172.31 219.44 173.23 Z M 219.84 174.14 L 220.22 175.06 C 220.61 175.97 221.66 176.39 222.57 176.01 C 223.48 175.63 223.91 174.57 223.52 173.66 L 223.13 172.75 C 222.75 171.84 221.70 171.41 220.79 171.79 C 219.88 172.18 219.45 173.23 219.84 174.14 Z M 220.23 175.05 L 220.62 175.97 C 221.00 176.88 222.04 177.31 222.95 176.92 C 223.86 176.54 224.28 175.50 223.90 174.59 L 223.51 173.67 C 223.13 172.76 222.09 172.34 221.18 172.72 C 220.27 173.10 219.85 174.14 220.23 175.05 Z M 220.63 175.96 L 221.01 176.89 C 221.39 177.80 222.43 178.22 223.33 177.84 C 224.23 177.47 224.66 176.43 224.28 175.53 L 223.89 174.60 C 223.52 173.70 222.48 173.27 221.58 173.65 C 220.68 174.03 220.25 175.06 220.63 175.96 Z M 221.02 176.88 L 221.40 177.81 C 221.78 178.71 222.80 179.14 223.70 178.77 C 224.60 178.40 225.03 177.37 224.66 176.47 L 224.27 175.54 C 223.90 174.64 222.87 174.21 221.98 174.59 C 221.08 174.96 220.65 175.98 221.02 176.88 Z M 221.41 177.80 L 221.79 178.73 C 222.15 179.62 223.17 180.05 224.07 179.69 C 224.96 179.33 225.39 178.31 225.03 177.41 L 224.65 176.48 C 224.29 175.59 223.27 175.16 222.37 175.52 C 221.48 175.89 221.05 176.91 221.41 177.80 Z M 221.80 178.72 L 222.17 179.65 C 222.53 180.54 223.54 180.97 224.43 180.61 C 225.32 180.25 225.75 179.24 225.39 178.35 L 225.02 177.42 C 224.66 176.53 223.65 176.10 222.76 176.46 C 221.87 176.82 221.44 177.83 221.80 178.72 Z M 222.18 179.64 L 222.55 180.57 C 222.91 181.45 223.91 181.88 224.80 181.53 C 225.68 181.17 226.11 180.17 225.76 179.28 L 225.39 178.35 C 225.03 177.47 224.02 177.04 223.14 177.39 C 222.25 177.75 221.82 178.76 222.18 179.64 Z M 222.56 180.57 L 222.93 181.49 C 223.29 182.37 224.29 182.80 225.17 182.45 C 226.05 182.09 226.48 181.09 226.12 180.21 L 225.75 179.28 C 225.39 178.40 224.39 177.98 223.51 178.33 C 222.63 178.69 222.21 179.69 222.56 180.57 Z M 222.95 181.50 L 223.32 182.42 C 223.68 183.30 224.68 183.72 225.55 183.36 C 226.42 183.00 226.84 182.01 226.49 181.14 L 226.11 180.21 C 225.75 179.33 224.76 178.92 223.88 179.27 C 223.01 179.63 222.59 180.62 222.95 181.50 Z M 223.34 182.43 L 223.72 183.36 C 224.08 184.22 225.07 184.63 225.94 184.28 C 226.80 183.92 227.21 182.93 226.86 182.06 L 226.47 181.13 C 226.12 180.27 225.13 179.85 224.26 180.21 C 223.39 180.57 222.98 181.56 223.34 182.43 Z M 223.73 183.35 L 224.12 184.28 C 224.47 185.14 225.46 185.55 226.32 185.19 C 227.18 184.84 227.59 183.85 227.23 182.99 L 226.85 182.06 C 226.49 181.20 225.50 180.80 224.64 181.15 C 223.78 181.51 223.38 182.49 223.73 183.35 Z M 224.13 184.28 L 224.51 185.20 C 224.86 186.06 225.84 186.46 226.70 186.11 C 227.55 185.76 227.96 184.78 227.60 183.92 L 227.22 183.00 C 226.87 182.14 225.89 181.74 225.03 182.09 C 224.18 182.44 223.77 183.42 224.13 184.28 Z M 224.52 185.19 L 224.89 186.11 C 225.24 186.96 226.21 187.37 227.06 187.02 C 227.91 186.67 228.32 185.70 227.97 184.85 L 227.60 183.93 C 227.25 183.08 226.28 182.67 225.43 183.02 C 224.58 183.37 224.17 184.34 224.52 185.19 Z M 224.90 186.10 L 225.27 187.02 C 225.61 187.87 226.57 188.28 227.42 187.95 C 228.26 187.61 228.68 186.65 228.34 185.80 L 227.97 184.87 C 227.63 184.02 226.67 183.61 225.82 183.95 C 224.97 184.29 224.56 185.25 224.90 186.10 Z M 225.27 187.01 L 225.64 187.95 C 225.97 188.79 226.92 189.21 227.77 188.88 C 228.61 188.55 229.03 187.60 228.70 186.75 L 228.33 185.81 C 228.00 184.97 227.05 184.55 226.21 184.88 C 225.36 185.21 224.94 186.16 225.27 187.01 Z M 225.65 187.93 L 226.00 188.87 C 226.33 189.71 227.27 190.13 228.11 189.81 C 228.95 189.48 229.37 188.54 229.05 187.70 L 228.69 186.77 C 228.37 185.92 227.43 185.50 226.59 185.83 C 225.74 186.15 225.32 187.09 225.65 187.93 Z M 226.01 188.86 L 226.36 189.79 C 226.68 190.63 227.61 191.05 228.45 190.73 C 229.29 190.41 229.71 189.48 229.40 188.64 L 229.05 187.71 C 228.73 186.87 227.79 186.45 226.95 186.77 C 226.12 187.08 225.69 188.02 226.01 188.86 Z M 226.37 189.78 L 226.72 190.71 C 227.03 191.54 227.96 191.97 228.80 191.65 C 229.63 191.34 230.05 190.41 229.74 189.58 L 229.39 188.65 C 229.08 187.81 228.15 187.39 227.31 187.70 C 226.48 188.02 226.06 188.95 226.37 189.78 Z M 226.73 190.71 L 227.06 191.59 C 227.37 192.42 228.29 192.84 229.12 192.53 C 229.95 192.22 230.37 191.29 230.06 190.46 L 229.73 189.58 C 229.42 188.75 228.49 188.33 227.66 188.64 C 226.84 188.95 226.42 189.88 226.73 190.71 Z M 227.06 191.59 L 227.40 192.49 C 227.71 193.31 228.63 193.73 229.46 193.42 C 230.28 193.11 230.70 192.19 230.39 191.36 L 230.06 190.47 C 229.75 189.64 228.82 189.22 228.00 189.53 C 227.17 189.84 226.75 190.76 227.06 191.59 Z M 227.41 192.48 L 227.76 193.41 C 228.07 194.23 228.98 194.65 229.81 194.34 C 230.63 194.03 231.04 193.11 230.73 192.29 L 230.39 191.36 C 230.08 190.54 229.16 190.13 228.34 190.43 C 227.51 190.74 227.10 191.66 227.41 192.48 Z M 227.76 193.41 L 228.13 194.38 C 228.44 195.19 229.35 195.61 230.17 195.30 C 230.99 194.99 231.40 194.07 231.09 193.25 L 230.73 192.29 C 230.42 191.47 229.50 191.06 228.68 191.37 C 227.87 191.68 227.45 192.59 227.76 193.41 Z M 228.14 194.38 L 228.51 195.37 C 228.82 196.18 229.74 196.59 230.55 196.28 C 231.37 195.97 231.77 195.06 231.46 194.25 L 231.09 193.25 C 230.78 192.44 229.86 192.03 229.05 192.34 C 228.24 192.65 227.83 193.56 228.14 194.38 Z M 228.52 195.37 L 228.85 196.24 C 229.16 197.05 230.07 197.46 230.89 197.15 C 231.70 196.84 232.10 195.93 231.79 195.12 L 231.46 194.24 C 231.15 193.43 230.24 193.03 229.43 193.34 C 228.62 193.65 228.21 194.56 228.52 195.37 Z M 228.86 196.24 L 229.20 197.15 C 229.52 197.96 230.42 198.36 231.23 198.05 C 232.04 197.74 232.45 196.83 232.14 196.02 L 231.79 195.12 C 231.48 194.31 230.57 193.90 229.76 194.21 C 228.95 194.52 228.54 195.43 228.86 196.24 Z M 229.21 197.15 L 229.57 198.09 C 229.88 198.89 230.79 199.30 231.60 198.99 C 232.40 198.68 232.81 197.77 232.50 196.96 L 232.14 196.02 C 231.82 195.21 230.92 194.81 230.11 195.12 C 229.30 195.43 228.90 196.34 229.21 197.15 Z M 229.57 198.09 L 229.94 199.04 C 230.25 199.85 231.16 200.25 231.96 199.94 C 232.77 199.63 233.17 198.72 232.86 197.92 L 232.49 196.96 C 232.18 196.15 231.28 195.75 230.47 196.06 C 229.66 196.37 229.26 197.28 229.57 198.09 Z M 229.94 199.04 L 230.32 200.01 C 230.63 200.82 231.53 201.22 232.34 200.91 C 233.15 200.60 233.55 199.69 233.24 198.89 L 232.86 197.92 C 232.55 197.11 231.64 196.71 230.84 197.02 C 230.03 197.33 229.63 198.24 229.94 199.04 Z M 230.32 200.01 L 230.62 200.80 C 230.94 201.61 231.84 202.01 232.64 201.70 C 233.45 201.39 233.85 200.48 233.54 199.68 L 233.23 198.89 C 232.92 198.08 232.02 197.68 231.21 197.99 C 230.41 198.30 230.01 199.21 230.32 200.01 Z"
      fill="black"
      fill-rule="nonzero" /></svg>