<svg xmlns="http://www.w3.org/2000/svg" width="300" height="300" viewBox="0 0 300 300">
<path d="M 96.26 97.17 L 97.03 97.85 C 97.76 98.49 98.86 98.42 99.49 97.69 C 100.12 96.97 100.05 95.87 99.33 95.24 L 98.56 94.56 C 97.84 93.92 96.74 93.99 96.10 94.71 C 95.47 95.43 95.54 96.53 96.26 97.17 Z M 96.99 97.85 L 97.75 98.54 C 98.47 99.20 99.59 99.14 100.25 98.42 C 100.90 97.70 100.85 96.58 100.13 95.92 L 99.37 95.24 C 98.65 94.58 97.53 94.63 96.88 95.36 C 96.22 96.08 96.27 97.19 96.99 97.85 Z M 97.68 98.52 L 98.39 99.21 C 99.10 99.90 100.24 99.89 100.93 99.18 C 101.63 98.47 101.61 97.33 100.90 96.64 L 100.19 95.95 C 99.48 95.25 98.35 95.27 97.65 95.98 C 96.96 96.69 96.97 97.82 97.68 98.52 Z M 98.30 99.16 L 98.95 99.86 C 99.63 100.61 100.78 100.66 101.53 99.98 C 102.27 99.30 102.32 98.14 101.64 97.40 L 100.99 96.69 C 100.31 95.95 99.16 95.90 98.42 96.58 C 97.67 97.26 97.62 98.41 98.30 99.16 Z M 98.85 99.76 L 99.44 100.51 C 100.06 101.31 101.22 101.45 102.01 100.83 C 102.81 100.20 102.95 99.05 102.33 98.25 L 101.74 97.50 C 101.12 96.70 99.96 96.56 99.16 97.19 C 98.36 97.81 98.22 98.96 98.85 99.76 Z M 99.36 100.40 L 99.89 101.20 C 100.46 102.04 101.60 102.26 102.44 101.69 C 103.28 101.13 103.50 99.99 102.94 99.15 L 102.40 98.36 C 101.84 97.52 100.70 97.30 99.86 97.86 C 99.02 98.43 98.80 99.56 99.36 100.40 Z M 99.85 101.12 L 100.37 101.97 C 100.89 102.84 102.02 103.11 102.88 102.59 C 103.74 102.07 104.02 100.94 103.50 100.08 L 102.98 99.22 C 102.45 98.36 101.33 98.09 100.47 98.61 C 99.60 99.13 99.33 100.26 99.85 101.12 Z M 100.36 101.94 L 100.90 102.88 C 101.40 103.75 102.52 104.05 103.39 103.55 C 104.26 103.04 104.56 101.93 104.06 101.05 L 103.51 100.11 C 103.01 99.24 101.89 98.94 101.02 99.45 C 100.15 99.95 99.85 101.07 100.36 101.94 Z M 100.91 102.88 L 101.39 103.71 C 101.89 104.57 103.00 104.87 103.87 104.37 C 104.73 103.87 105.03 102.76 104.53 101.89 L 104.05 101.06 C 103.55 100.19 102.44 99.90 101.57 100.40 C 100.70 100.90 100.41 102.01 100.91 102.88 Z M 101.40 103.70 L 101.90 104.58 C 102.40 105.44 103.51 105.73 104.37 105.23 C 105.23 104.73 105.52 103.63 105.02 102.77 L 104.52 101.89 C 104.02 101.03 102.92 100.74 102.05 101.24 C 101.19 101.74 100.90 102.84 101.40 103.70 Z M 101.92 104.57 L 102.43 105.46 C 102.93 106.32 104.02 106.61 104.88 106.11 C 105.73 105.62 106.03 104.52 105.53 103.67 L 105.01 102.77 C 104.52 101.92 103.42 101.63 102.57 102.12 C 101.71 102.62 101.42 103.71 101.92 104.57 Z M 102.44 105.45 L 102.95 106.34 C 103.44 107.19 104.53 107.48 105.38 106.99 C 106.23 106.49 106.52 105.41 106.03 104.56 L 105.52 103.67 C 105.03 102.82 103.94 102.53 103.09 103.03 C 102.24 103.52 101.95 104.60 102.44 105.45 Z M 102.96 106.33 L 103.46 107.19 C 103.95 108.03 105.02 108.32 105.87 107.84 C 106.71 107.35 107.00 106.28 106.52 105.43 L 106.02 104.57 C 105.53 103.72 104.46 103.43 103.61 103.92 C 102.77 104.40 102.48 105.48 102.96 106.33 Z M 103.48 107.17 L 104.02 108.12 C 104.49 108.95 105.56 109.24 106.39 108.77 C 107.22 108.29 107.51 107.23 107.04 106.39 L 106.50 105.45 C 106.02 104.61 104.96 104.32 104.13 104.80 C 103.29 105.28 103.00 106.34 103.48 107.17 Z M 104.05 108.10 L 104.54 108.97 C 105.01 109.79 106.05 110.08 106.87 109.62 C 107.69 109.15 107.97 108.11 107.51 107.29 L 107.01 106.41 C 106.55 105.60 105.51 105.31 104.69 105.77 C 103.87 106.24 103.58 107.28 104.05 108.10 Z M 104.57 108.96 L 105.05 109.79 C 105.50 110.59 106.52 110.87 107.32 110.42 C 108.12 109.96 108.40 108.94 107.95 108.14 L 107.48 107.31 C 107.02 106.51 106.01 106.23 105.20 106.68 C 104.40 107.14 104.12 108.15 104.57 108.96 Z M 105.08 109.77 L 105.54 110.58 C 105.98 111.37 106.98 111.64 107.77 111.19 C 108.55 110.75 108.82 109.75 108.38 108.96 L 107.92 108.16 C 107.47 107.37 106.47 107.10 105.69 107.54 C 104.90 107.99 104.63 108.99 105.08 109.77 Z M 105.56 110.57 L 106.03 111.39 C 106.47 112.16 107.46 112.43 108.23 111.99 C 109.00 111.54 109.27 110.56 108.82 109.79 L 108.35 108.97 C 107.91 108.20 106.93 107.93 106.15 108.37 C 105.38 108.82 105.12 109.80 105.56 110.57 Z M 106.04 111.39 L 106.52 112.22 C 106.97 112.99 107.94 113.25 108.71 112.81 C 109.47 112.36 109.73 111.39 109.29 110.62 L 108.81 109.79 C 108.37 109.02 107.39 108.76 106.63 109.20 C 105.86 109.65 105.60 110.62 106.04 111.39 Z M 106.54 112.22 L 107.04 113.09 C 107.48 113.85 108.45 114.11 109.21 113.67 C 109.97 113.23 110.22 112.27 109.79 111.51 L 109.28 110.63 C 108.84 109.87 107.87 109.61 107.11 110.05 C 106.36 110.49 106.10 111.46 106.54 112.22 Z M 107.06 113.09 L 107.59 114.02 C 108.03 114.77 108.99 115.03 109.74 114.59 C 110.49 114.16 110.75 113.20 110.31 112.45 L 109.78 111.52 C 109.34 110.76 108.38 110.51 107.63 110.94 C 106.88 111.37 106.62 112.34 107.06 113.09 Z M 107.60 114.01 L 108.06 114.81 C 108.49 115.56 109.45 115.82 110.19 115.39 C 110.94 114.96 111.20 114.00 110.77 113.25 L 110.31 112.45 C 109.88 111.70 108.92 111.45 108.17 111.88 C 107.42 112.31 107.17 113.26 107.60 114.01 Z M 108.06 114.81 L 108.54 115.66 C 108.97 116.41 109.93 116.67 110.68 116.24 C 111.43 115.81 111.69 114.85 111.26 114.10 L 110.77 113.26 C 110.34 112.51 109.39 112.25 108.64 112.68 C 107.89 113.11 107.63 114.06 108.06 114.81 Z M 108.54 115.66 L 109.05 116.54 C 109.48 117.29 110.43 117.55 111.18 117.12 C 111.93 116.69 112.19 115.73 111.76 114.99 L 111.26 114.10 C 110.83 113.36 109.87 113.10 109.12 113.53 C 108.37 113.95 108.12 114.91 108.54 115.66 Z M 109.05 116.54 L 109.56 117.44 C 109.99 118.19 110.95 118.45 111.70 118.02 C 112.44 117.59 112.70 116.64 112.28 115.89 L 111.76 114.99 C 111.33 114.24 110.38 113.98 109.63 114.41 C 108.88 114.83 108.62 115.79 109.05 116.54 Z M 109.57 117.44 L 110.08 118.33 C 110.50 119.08 111.46 119.34 112.21 118.91 C 112.95 118.49 113.21 117.53 112.79 116.78 L 112.28 115.89 C 111.85 115.14 110.89 114.88 110.15 115.31 C 109.40 115.74 109.14 116.69 109.57 117.44 Z"
      fill="black"
      fill-rule="nonzero" /><path d="M 92.97 143.91 L 93.14 144.92 C 93.30 145.84 94.17 146.46 95.09 146.30 C 96.01 146.14 96.62 145.27 96.47 144.35 L 96.29 143.33 C 96.13 142.42 95.26 141.80 94.34 141.96 C 93.43 142.12 92.81 142.99 92.97 143.91 Z M 93.16 145.05 L 93.40 146.02 C 93.63 146.93 94.55 147.49 95.46 147.26 C 96.37 147.04 96.92 146.11 96.70 145.20 L 96.45 144.23 C 96.23 143.32 95.31 142.76 94.40 142.99 C 93.49 143.22 92.93 144.14 93.16 145.05 Z M 93.47 146.28 L 93.85 147.17 C 94.22 148.04 95.22 148.45 96.09 148.08 C 96.96 147.71 97.37 146.70 97.00 145.83 L 96.62 144.95 C 96.25 144.07 95.25 143.67 94.38 144.04 C 93.51 144.41 93.10 145.41 93.47 146.28 Z M 94.05 147.53 L 94.63 148.30 C 95.20 149.06 96.27 149.22 97.03 148.65 C 97.79 148.08 97.95 147.00 97.38 146.24 L 96.80 145.47 C 96.23 144.71 95.15 144.56 94.39 145.12 C 93.63 145.69 93.48 146.77 94.05 147.53 Z M 94.90 148.59 L 95.66 149.23 C 96.38 149.84 97.47 149.75 98.08 149.02 C 98.69 148.29 98.60 147.20 97.87 146.59 L 97.11 145.96 C 96.38 145.34 95.30 145.44 94.68 146.17 C 94.07 146.90 94.17 147.98 94.90 148.59 Z M 95.90 149.40 L 96.78 149.91 C 97.61 150.38 98.66 150.10 99.13 149.28 C 99.61 148.45 99.33 147.40 98.50 146.93 L 97.62 146.42 C 96.80 145.95 95.74 146.23 95.27 147.05 C 94.80 147.88 95.08 148.93 95.90 149.40 Z M 96.99 150.00 L 97.90 150.38 C 98.78 150.74 99.78 150.32 100.14 149.44 C 100.50 148.56 100.08 147.56 99.20 147.20 L 98.29 146.83 C 97.42 146.47 96.41 146.89 96.06 147.77 C 95.70 148.64 96.12 149.65 96.99 150.00 Z M 98.08 150.42 L 99.01 150.69 C 99.92 150.94 100.86 150.42 101.11 149.52 C 101.37 148.62 100.85 147.68 99.94 147.42 L 99.02 147.16 C 98.11 146.90 97.17 147.42 96.92 148.32 C 96.66 149.23 97.18 150.17 98.08 150.42 Z M 99.18 150.70 L 100.17 150.89 C 101.08 151.06 101.95 150.45 102.12 149.54 C 102.29 148.63 101.69 147.75 100.78 147.59 L 99.78 147.40 C 98.87 147.24 98.00 147.84 97.83 148.75 C 97.66 149.66 98.26 150.54 99.18 150.70 Z M 100.29 150.89 L 101.32 151.00 C 102.23 151.09 103.05 150.44 103.15 149.53 C 103.25 148.62 102.59 147.80 101.68 147.70 L 100.65 147.59 C 99.74 147.49 98.92 148.15 98.82 149.06 C 98.72 149.97 99.38 150.79 100.29 150.89 Z M 101.42 150.98 L 102.39 151.03 C 103.29 151.08 104.06 150.38 104.11 149.48 C 104.15 148.58 103.46 147.81 102.55 147.76 L 101.59 147.71 C 100.68 147.67 99.91 148.36 99.87 149.26 C 99.82 150.17 100.52 150.94 101.42 150.98 Z M 102.48 151.02 L 103.48 151.01 C 104.38 151.01 105.10 150.28 105.09 149.39 C 105.09 148.49 104.36 147.77 103.47 147.77 L 102.46 147.78 C 101.57 147.78 100.85 148.51 100.85 149.41 C 100.85 150.30 101.58 151.02 102.48 151.02 Z M 103.58 150.99 L 104.60 150.92 C 105.48 150.86 106.15 150.10 106.09 149.22 C 106.03 148.33 105.27 147.67 104.39 147.73 L 103.37 147.80 C 102.48 147.86 101.82 148.62 101.88 149.50 C 101.94 150.38 102.70 151.05 103.58 150.99 Z M 104.72 150.89 L 105.73 150.75 C 106.59 150.63 107.19 149.83 107.07 148.96 C 106.95 148.09 106.15 147.49 105.28 147.61 L 104.27 147.76 C 103.41 147.88 102.80 148.68 102.93 149.55 C 103.05 150.41 103.85 151.01 104.72 150.89 Z M 105.84 150.72 L 106.82 150.50 C 107.67 150.32 108.21 149.48 108.02 148.63 C 107.83 147.78 106.99 147.24 106.14 147.43 L 105.17 147.64 C 104.32 147.83 103.78 148.67 103.97 149.52 C 104.15 150.37 104.99 150.91 105.84 150.72 Z M 106.91 150.48 L 107.87 150.21 C 108.70 149.97 109.19 149.10 108.95 148.27 C 108.72 147.43 107.85 146.95 107.02 147.18 L 106.06 147.46 C 105.22 147.69 104.73 148.56 104.97 149.39 C 105.21 150.23 106.07 150.71 106.91 150.48 Z M 107.92 150.19 L 108.87 149.88 C 109.70 149.61 110.15 148.73 109.88 147.91 C 109.62 147.08 108.73 146.63 107.91 146.90 L 106.96 147.21 C 106.14 147.47 105.69 148.35 105.95 149.18 C 106.22 150.00 107.10 150.45 107.92 150.19 Z M 108.90 149.87 L 109.69 149.60 C 110.50 149.32 110.94 148.43 110.66 147.61 C 110.38 146.80 109.49 146.36 108.68 146.64 L 107.89 146.91 C 107.07 147.19 106.63 148.08 106.91 148.89 C 107.19 149.71 108.08 150.15 108.90 149.87 Z"
      fill="black"
      fill-rule="nonzero" /><path d="M 76.33 221.53 L 75.87 222.38 C 75.42 223.21 75.73 224.25 76.56 224.69 C 77.39 225.14 78.43 224.83 78.87 224.00 L 79.33 223.14 C 79.78 222.31 79.47 221.28 78.64 220.83 C 77.81 220.38 76.77 220.70 76.33 221.53 Z M 75.86 222.39 L 75.40 223.26 C 74.96 224.09 75.28 225.13 76.11 225.57 C 76.94 226.01 77.98 225.69 78.42 224.86 L 78.88 223.99 C 79.32 223.16 79.00 222.12 78.17 221.68 C 77.33 221.24 76.30 221.56 75.86 222.39 Z M 75.39 223.28 L 74.93 224.17 C 74.50 225.01 74.83 226.04 75.67 226.47 C 76.50 226.90 77.53 226.57 77.97 225.73 L 78.43 224.84 C 78.86 224.00 78.53 222.97 77.69 222.54 C 76.85 222.11 75.82 222.44 75.39 223.28 Z M 74.92 224.20 L 74.46 225.13 C 74.04 225.97 74.39 226.99 75.23 227.41 C 76.08 227.83 77.10 227.48 77.52 226.64 L 77.98 225.71 C 78.40 224.86 78.05 223.84 77.21 223.42 C 76.36 223.00 75.34 223.35 74.92 224.20 Z M 74.44 225.16 L 74.03 226.04 C 73.62 226.90 73.99 227.91 74.84 228.31 C 75.70 228.72 76.71 228.35 77.12 227.50 L 77.53 226.61 C 77.93 225.76 77.57 224.74 76.72 224.34 C 75.86 223.94 74.84 224.30 74.44 225.16 Z M 74.01 226.08 L 73.61 227.00 C 73.23 227.86 73.62 228.87 74.48 229.25 C 75.34 229.63 76.35 229.24 76.73 228.37 L 77.13 227.46 C 77.51 226.59 77.12 225.59 76.26 225.21 C 75.40 224.83 74.39 225.22 74.01 226.08 Z M 73.58 227.05 L 73.21 227.99 C 72.86 228.86 73.28 229.86 74.16 230.21 C 75.03 230.56 76.03 230.13 76.38 229.26 L 76.75 228.32 C 77.10 227.44 76.68 226.45 75.80 226.10 C 74.93 225.75 73.93 226.17 73.58 227.05 Z M 73.18 228.06 L 72.85 229.01 C 72.53 229.90 73.00 230.87 73.89 231.19 C 74.78 231.50 75.76 231.03 76.07 230.14 L 76.40 229.19 C 76.72 228.30 76.25 227.33 75.36 227.01 C 74.47 226.70 73.49 227.17 73.18 228.06 Z M 72.82 229.11 L 72.50 230.23 C 72.24 231.13 72.76 232.07 73.67 232.33 C 74.57 232.59 75.51 232.07 75.77 231.17 L 76.09 230.04 C 76.35 229.14 75.83 228.20 74.93 227.94 C 74.02 227.68 73.08 228.20 72.82 229.11 Z M 72.48 230.39 L 72.27 231.55 C 72.10 232.46 72.70 233.34 73.61 233.51 C 74.52 233.68 75.40 233.08 75.57 232.17 L 75.79 231.00 C 75.96 230.09 75.36 229.21 74.44 229.04 C 73.53 228.87 72.65 229.47 72.48 230.39 Z M 72.26 231.88 L 72.27 232.79 C 72.28 233.70 73.03 234.43 73.94 234.42 C 74.85 234.42 75.59 233.67 75.58 232.76 L 75.57 231.85 C 75.56 230.93 74.82 230.20 73.90 230.21 C 72.99 230.22 72.26 230.96 72.26 231.88 Z M 72.56 233.67 L 72.89 234.16 C 73.38 234.92 74.40 235.13 75.15 234.63 C 75.90 234.13 76.11 233.12 75.62 232.37 L 75.29 231.87 C 74.79 231.12 73.78 230.91 73.03 231.41 C 72.27 231.90 72.07 232.92 72.56 233.67 Z M 74.38 234.90 L 75.13 234.84 C 76.03 234.77 76.71 233.98 76.64 233.08 C 76.56 232.17 75.77 231.50 74.87 231.57 L 74.12 231.63 C 73.22 231.70 72.54 232.49 72.62 233.40 C 72.69 234.30 73.48 234.97 74.38 234.90 Z M 75.78 234.68 L 76.75 234.17 C 77.57 233.74 77.88 232.73 77.44 231.91 C 77.01 231.10 76.00 230.79 75.18 231.22 L 74.22 231.73 C 73.40 232.16 73.09 233.17 73.52 233.99 C 73.96 234.80 74.97 235.12 75.78 234.68 Z M 76.99 234.05 L 77.92 233.34 C 78.67 232.77 78.82 231.71 78.25 230.96 C 77.68 230.22 76.62 230.07 75.87 230.64 L 74.94 231.34 C 74.20 231.91 74.05 232.97 74.62 233.72 C 75.18 234.47 76.25 234.61 76.99 234.05 Z M 78.06 233.23 L 78.79 232.55 C 79.48 231.91 79.51 230.83 78.87 230.14 C 78.22 229.45 77.14 229.42 76.46 230.06 L 75.73 230.74 C 75.04 231.39 75.01 232.47 75.65 233.15 C 76.30 233.84 77.38 233.88 78.06 233.23 Z M 78.88 232.46 L 79.55 231.73 C 80.18 231.04 80.13 229.96 79.44 229.32 C 78.74 228.69 77.66 228.74 77.03 229.43 L 76.36 230.16 C 75.73 230.85 75.78 231.93 76.47 232.57 C 77.17 233.20 78.25 233.15 78.88 232.46 Z M 79.60 231.66 L 80.24 230.89 C 80.84 230.16 80.74 229.09 80.01 228.49 C 79.28 227.89 78.21 228.00 77.61 228.72 L 76.97 229.50 C 76.38 230.22 76.48 231.30 77.21 231.89 C 77.93 232.49 79.00 232.39 79.60 231.66 Z M 80.26 230.85 L 80.85 230.11 C 81.43 229.37 81.30 228.30 80.56 227.73 C 79.82 227.15 78.75 227.27 78.17 228.01 L 77.59 228.75 C 77.01 229.49 77.14 230.56 77.88 231.14 C 78.62 231.72 79.69 231.59 80.26 230.85 Z M 80.86 230.09 L 81.44 229.33 C 82.01 228.59 81.87 227.52 81.12 226.95 C 80.38 226.38 79.31 226.52 78.74 227.27 L 78.16 228.03 C 77.59 228.78 77.73 229.84 78.48 230.41 C 79.22 230.98 80.29 230.84 80.86 230.09 Z M 81.45 229.32 L 82.05 228.51 C 82.62 227.76 82.46 226.70 81.71 226.13 C 80.96 225.57 79.90 225.73 79.34 226.48 L 78.73 227.29 C 78.17 228.03 78.33 229.10 79.08 229.66 C 79.83 230.22 80.89 230.07 81.45 229.32 Z M 82.06 228.49 L 82.69 227.63 C 83.25 226.88 83.09 225.82 82.33 225.27 C 81.58 224.71 80.52 224.87 79.97 225.63 L 79.33 226.49 C 78.78 227.24 78.94 228.30 79.69 228.85 C 80.45 229.41 81.51 229.25 82.06 228.49 Z M 82.70 227.62 L 83.27 226.83 C 83.82 226.08 83.65 225.02 82.90 224.47 C 82.14 223.92 81.08 224.09 80.54 224.85 L 79.96 225.64 C 79.42 226.39 79.58 227.45 80.34 228.00 C 81.09 228.55 82.15 228.38 82.70 227.62 Z M 83.28 226.82 L 83.84 226.03 C 84.38 225.27 84.20 224.22 83.45 223.68 C 82.69 223.14 81.63 223.31 81.09 224.07 L 80.53 224.86 C 79.99 225.62 80.17 226.67 80.92 227.21 C 81.68 227.75 82.74 227.58 83.28 226.82 Z M 83.85 226.01 L 84.42 225.19 C 84.95 224.43 84.76 223.38 84.00 222.85 C 83.24 222.32 82.19 222.51 81.66 223.27 L 81.09 224.09 C 80.55 224.85 80.74 225.90 81.50 226.43 C 82.27 226.96 83.32 226.78 83.85 226.01 Z M 84.43 225.17 L 85.00 224.32 C 85.52 223.55 85.32 222.51 84.56 221.99 C 83.79 221.47 82.74 221.67 82.22 222.44 L 81.65 223.29 C 81.13 224.06 81.33 225.10 82.10 225.62 C 82.86 226.14 83.91 225.94 84.43 225.17 Z M 85.02 224.30 L 85.59 223.42 C 86.10 222.65 85.88 221.61 85.10 221.10 C 84.33 220.59 83.29 220.81 82.78 221.59 L 82.21 222.46 C 81.70 223.24 81.92 224.28 82.70 224.78 C 83.47 225.29 84.51 225.07 85.02 224.30 Z M 85.60 223.39 L 86.13 222.56 C 86.62 221.78 86.38 220.75 85.60 220.25 C 84.82 219.76 83.78 220.00 83.29 220.78 L 82.77 221.61 C 82.28 222.40 82.51 223.43 83.30 223.92 C 84.08 224.41 85.11 224.18 85.60 223.39 Z M 86.14 222.54 L 86.65 221.69 C 87.12 220.91 86.87 219.88 86.08 219.40 C 85.30 218.93 84.27 219.18 83.79 219.97 L 83.28 220.81 C 82.81 221.59 83.06 222.62 83.84 223.10 C 84.63 223.58 85.66 223.32 86.14 222.54 Z M 86.65 221.67 L 87.16 220.82 C 87.63 220.02 87.36 219.00 86.57 218.54 C 85.78 218.07 84.76 218.34 84.29 219.13 L 83.78 219.99 C 83.32 220.78 83.58 221.80 84.37 222.26 C 85.17 222.73 86.19 222.47 86.65 221.67 Z M 87.16 220.80 L 87.67 219.93 C 88.12 219.13 87.85 218.12 87.06 217.66 C 86.26 217.20 85.25 217.48 84.79 218.27 L 84.29 219.14 C 83.83 219.94 84.10 220.95 84.90 221.41 C 85.69 221.87 86.71 221.60 87.16 220.80 Z M 87.67 219.92 L 88.17 219.03 C 88.62 218.23 88.34 217.22 87.55 216.77 C 86.75 216.32 85.74 216.60 85.29 217.39 L 84.79 218.28 C 84.33 219.08 84.61 220.09 85.41 220.54 C 86.21 220.99 87.22 220.71 87.67 219.92 Z M 88.17 219.02 L 88.66 218.15 C 89.11 217.35 88.83 216.34 88.03 215.90 C 87.24 215.45 86.23 215.73 85.78 216.53 L 85.29 217.40 C 84.84 218.20 85.13 219.20 85.92 219.65 C 86.72 220.10 87.73 219.82 88.17 219.02 Z M 88.66 218.14 L 89.14 217.29 C 89.58 216.49 89.30 215.49 88.50 215.04 C 87.71 214.60 86.70 214.88 86.26 215.68 L 85.78 216.53 C 85.34 217.33 85.62 218.33 86.42 218.78 C 87.21 219.22 88.22 218.94 88.66 218.14 Z M 89.14 217.28 L 89.62 216.42 C 90.06 215.62 89.77 214.62 88.98 214.18 C 88.19 213.74 87.19 214.02 86.74 214.82 L 86.26 215.68 C 85.82 216.48 86.11 217.48 86.90 217.92 C 87.69 218.36 88.70 218.08 89.14 217.28 Z M 89.62 216.41 L 90.10 215.53 C 90.54 214.74 90.25 213.74 89.46 213.30 C 88.67 212.87 87.67 213.15 87.23 213.94 L 86.75 214.82 C 86.31 215.61 86.59 216.61 87.39 217.05 C 88.18 217.49 89.18 217.20 89.62 216.41 Z M 90.10 215.53 L 90.59 214.64 C 91.03 213.85 90.74 212.86 89.95 212.42 C 89.16 211.98 88.16 212.27 87.73 213.06 L 87.24 213.95 C 86.80 214.74 87.08 215.73 87.88 216.17 C 88.67 216.61 89.66 216.32 90.10 215.53 Z M 90.59 214.64 L 91.08 213.75 C 91.52 212.96 91.23 211.96 90.44 211.53 C 89.65 211.09 88.66 211.38 88.22 212.17 L 87.73 213.06 C 87.29 213.85 87.58 214.85 88.37 215.28 C 89.16 215.72 90.15 215.43 90.59 214.64 Z M 91.08 213.74 L 91.56 212.87 C 91.99 212.09 91.70 211.10 90.92 210.66 C 90.13 210.23 89.14 210.52 88.70 211.30 L 88.23 212.17 C 87.79 212.96 88.08 213.95 88.87 214.38 C 89.65 214.82 90.64 214.53 91.08 213.74 Z M 91.55 212.87 L 92.03 212.01 C 92.46 211.22 92.18 210.23 91.39 209.80 C 90.61 209.37 89.62 209.65 89.18 210.44 L 88.71 211.31 C 88.27 212.09 88.56 213.08 89.35 213.51 C 90.13 213.94 91.12 213.66 91.55 212.87 Z M 92.03 212.01 L 92.51 211.13 C 92.94 210.35 92.65 209.36 91.87 208.93 C 91.09 208.50 90.10 208.79 89.67 209.57 L 89.19 210.44 C 88.76 211.22 89.04 212.21 89.82 212.64 C 90.61 213.07 91.59 212.79 92.03 212.01 Z M 92.50 211.13 L 92.99 210.25 C 93.42 209.47 93.13 208.49 92.35 208.06 C 91.57 207.63 90.59 207.91 90.16 208.69 L 89.67 209.57 C 89.24 210.35 89.53 211.33 90.31 211.77 C 91.09 212.20 92.07 211.91 92.50 211.13 Z M 92.98 210.25 L 93.47 209.37 C 93.90 208.59 93.62 207.61 92.84 207.18 C 92.06 206.75 91.08 207.03 90.65 207.81 L 90.16 208.69 C 89.73 209.47 90.01 210.45 90.79 210.88 C 91.57 211.31 92.55 211.03 92.98 210.25 Z M 93.47 209.37 L 93.96 208.48 C 94.39 207.71 94.11 206.73 93.33 206.30 C 92.55 205.87 91.58 206.15 91.15 206.92 L 90.65 207.81 C 90.22 208.59 90.50 209.57 91.28 210.00 C 92.06 210.43 93.04 210.15 93.47 209.37 Z M 93.95 208.48 L 94.44 207.61 C 94.87 206.83 94.59 205.86 93.82 205.43 C 93.04 205.00 92.07 205.28 91.64 206.05 L 91.15 206.92 C 90.72 207.70 91.00 208.68 91.77 209.11 C 92.55 209.54 93.52 209.26 93.95 208.48 Z M 94.44 207.61 L 94.92 206.74 C 95.35 205.97 95.07 204.99 94.30 204.56 C 93.53 204.13 92.55 204.41 92.12 205.18 L 91.64 206.05 C 91.21 206.82 91.49 207.80 92.26 208.23 C 93.03 208.66 94.01 208.38 94.44 207.61 Z M 94.92 206.74 L 95.41 205.86 C 95.84 205.09 95.56 204.12 94.79 203.69 C 94.02 203.26 93.04 203.54 92.61 204.31 L 92.13 205.18 C 91.70 205.95 91.97 206.93 92.75 207.35 C 93.52 207.78 94.49 207.51 94.92 206.74 Z M 95.40 205.86 L 95.89 204.98 C 96.32 204.22 96.04 203.24 95.27 202.82 C 94.50 202.39 93.53 202.66 93.10 203.43 L 92.62 204.31 C 92.19 205.08 92.46 206.05 93.23 206.48 C 94.00 206.91 94.97 206.63 95.40 205.86 Z M 95.89 204.98 L 96.37 204.10 C 96.80 203.34 96.52 202.37 95.75 201.94 C 94.99 201.51 94.02 201.79 93.59 202.56 L 93.10 203.44 C 92.68 204.21 92.96 205.18 93.72 205.60 C 94.49 206.03 95.46 205.75 95.89 204.98 Z M 96.37 204.10 L 96.86 203.22 C 97.28 202.45 97.00 201.49 96.23 201.06 C 95.47 200.64 94.50 200.92 94.08 201.69 L 93.59 202.57 C 93.17 203.33 93.45 204.30 94.22 204.72 C 94.98 205.15 95.95 204.87 96.37 204.10 Z M 96.86 203.22 L 97.33 202.35 C 97.75 201.58 97.47 200.62 96.71 200.20 C 95.94 199.78 94.97 200.06 94.55 200.82 L 94.08 201.69 C 93.66 202.46 93.94 203.42 94.70 203.85 C 95.47 204.27 96.44 203.99 96.86 203.22 Z M 97.33 202.34 L 97.80 201.48 C 98.22 200.71 97.94 199.75 97.17 199.33 C 96.40 198.92 95.44 199.20 95.02 199.97 L 94.55 200.83 C 94.14 201.60 94.42 202.56 95.19 202.98 C 95.95 203.39 96.92 203.11 97.33 202.34 Z M 97.80 201.48 L 98.27 200.61 C 98.69 199.84 98.41 198.88 97.64 198.47 C 96.87 198.05 95.91 198.33 95.50 199.10 L 95.02 199.97 C 94.61 200.74 94.89 201.70 95.66 202.11 C 96.43 202.53 97.39 202.24 97.80 201.48 Z M 98.27 200.61 L 98.75 199.73 C 99.16 198.97 98.88 198.01 98.11 197.59 C 97.34 197.18 96.38 197.46 95.97 198.23 L 95.50 199.11 C 95.08 199.87 95.37 200.83 96.13 201.24 C 96.90 201.66 97.86 201.37 98.27 200.61 Z M 98.74 199.73 L 99.22 198.85 C 99.63 198.08 99.35 197.12 98.58 196.71 C 97.82 196.30 96.86 196.58 96.45 197.35 L 95.97 198.23 C 95.56 199.00 95.84 199.95 96.61 200.37 C 97.38 200.78 98.33 200.50 98.74 199.73 Z M 99.22 198.84 L 99.70 197.95 C 100.12 197.18 99.83 196.23 99.07 195.82 C 98.30 195.40 97.35 195.69 96.93 196.45 L 96.45 197.35 C 96.04 198.11 96.32 199.07 97.09 199.48 C 97.85 199.89 98.81 199.61 99.22 198.84 Z M 99.70 197.95 L 100.19 197.05 C 100.60 196.29 100.31 195.33 99.55 194.92 C 98.79 194.51 97.83 194.79 97.42 195.56 L 96.94 196.45 C 96.52 197.22 96.81 198.17 97.57 198.58 C 98.34 199.00 99.29 198.71 99.70 197.95 Z M 100.18 197.05 L 100.66 196.17 C 101.07 195.40 100.79 194.45 100.03 194.04 C 99.27 193.63 98.31 193.91 97.90 194.67 L 97.42 195.56 C 97.01 196.32 97.29 197.27 98.06 197.68 C 98.82 198.10 99.77 197.81 100.18 197.05 Z M 100.66 196.17 L 101.14 195.28 C 101.56 194.51 101.27 193.56 100.51 193.15 C 99.75 192.74 98.80 193.02 98.38 193.78 L 97.90 194.67 C 97.49 195.43 97.77 196.39 98.53 196.80 C 99.30 197.21 100.25 196.93 100.66 196.17 Z M 101.14 195.27 L 101.62 194.38 C 102.04 193.62 101.75 192.67 100.99 192.26 C 100.23 191.85 99.28 192.13 98.87 192.89 L 98.38 193.78 C 97.97 194.54 98.26 195.50 99.02 195.91 C 99.78 196.32 100.73 196.04 101.14 195.27 Z M 101.62 194.38 L 102.10 193.49 C 102.51 192.73 102.23 191.78 101.47 191.37 C 100.71 190.96 99.76 191.24 99.35 192.00 L 98.87 192.89 C 98.46 193.65 98.74 194.60 99.50 195.01 C 100.26 195.43 101.21 195.14 101.62 194.38 Z M 102.10 193.49 L 102.58 192.61 C 102.99 191.85 102.70 190.90 101.94 190.49 C 101.18 190.08 100.23 190.37 99.82 191.13 L 99.35 192.01 C 98.94 192.77 99.22 193.72 99.98 194.13 C 100.74 194.54 101.69 194.25 102.10 193.49 Z M 102.58 192.61 L 103.04 191.75 C 103.45 190.99 103.16 190.04 102.40 189.63 C 101.64 189.22 100.69 189.51 100.28 190.27 L 99.82 191.13 C 99.41 191.89 99.70 192.84 100.46 193.25 C 101.22 193.66 102.17 193.37 102.58 192.61 Z M 103.04 191.75 L 103.53 190.83 C 103.94 190.07 103.65 189.13 102.89 188.72 C 102.13 188.31 101.18 188.60 100.77 189.36 L 100.28 190.27 C 99.88 191.04 100.16 191.98 100.92 192.39 C 101.68 192.80 102.63 192.51 103.04 191.75 Z M 103.53 190.83 L 104.02 189.91 C 104.42 189.15 104.13 188.20 103.37 187.80 C 102.61 187.39 101.66 187.68 101.26 188.44 L 100.77 189.36 C 100.37 190.13 100.65 191.07 101.42 191.48 C 102.18 191.88 103.12 191.59 103.53 190.83 Z M 104.02 189.91 L 104.49 189.01 C 104.90 188.25 104.60 187.31 103.84 186.90 C 103.08 186.50 102.13 186.79 101.73 187.55 L 101.26 188.45 C 100.85 189.21 101.15 190.16 101.91 190.56 C 102.67 190.96 103.62 190.67 104.02 189.91 Z M 104.49 189.01 L 104.95 188.14 C 105.35 187.37 105.06 186.43 104.30 186.03 C 103.53 185.63 102.59 185.92 102.19 186.68 L 101.73 187.56 C 101.33 188.32 101.62 189.27 102.39 189.67 C 103.15 190.07 104.09 189.77 104.49 189.01 Z M 104.96 188.13 L 105.40 187.27 C 105.80 186.51 105.50 185.57 104.74 185.17 C 103.97 184.77 103.03 185.07 102.63 185.83 L 102.19 186.69 C 101.79 187.45 102.08 188.40 102.85 188.79 C 103.61 189.19 104.56 188.90 104.96 188.13 Z M 105.40 187.27 L 105.84 186.42 C 106.24 185.66 105.94 184.71 105.17 184.32 C 104.40 183.92 103.46 184.22 103.07 184.99 L 102.63 185.84 C 102.23 186.60 102.53 187.54 103.30 187.94 C 104.07 188.33 105.01 188.03 105.40 187.27 Z M 105.84 186.42 L 106.31 185.50 C 106.70 184.74 106.40 183.80 105.63 183.40 C 104.86 183.01 103.92 183.31 103.53 184.08 L 103.06 184.99 C 102.67 185.76 102.97 186.70 103.74 187.10 C 104.51 187.49 105.45 187.19 105.84 186.42 Z M 106.31 185.50 L 106.78 184.59 C 107.17 183.82 106.86 182.88 106.09 182.49 C 105.32 182.10 104.39 182.40 103.99 183.17 L 103.53 184.09 C 103.14 184.85 103.44 185.79 104.21 186.18 C 104.98 186.58 105.92 186.27 106.31 185.50 Z M 106.78 184.59 L 107.23 183.69 C 107.62 182.92 107.32 181.98 106.55 181.59 C 105.78 181.20 104.84 181.51 104.45 182.28 L 103.99 183.17 C 103.60 183.94 103.91 184.88 104.68 185.27 C 105.45 185.66 106.39 185.36 106.78 184.59 Z M 107.23 183.69 L 107.68 182.81 C 108.07 182.05 107.77 181.11 107.00 180.71 C 106.23 180.32 105.29 180.63 104.90 181.39 L 104.45 182.27 C 104.06 183.04 104.36 183.98 105.13 184.37 C 105.90 184.77 106.84 184.46 107.23 183.69 Z M 107.68 182.82 L 108.12 181.96 C 108.52 181.19 108.22 180.25 107.45 179.86 C 106.68 179.46 105.74 179.76 105.35 180.53 L 104.90 181.39 C 104.51 182.15 104.81 183.10 105.58 183.49 C 106.34 183.89 107.28 183.59 107.68 182.82 Z M 108.12 181.97 L 108.59 181.07 C 108.99 180.30 108.69 179.36 107.93 178.96 C 107.17 178.56 106.22 178.86 105.82 179.62 L 105.35 180.52 C 104.95 181.28 105.25 182.23 106.01 182.63 C 106.77 183.03 107.72 182.73 108.12 181.97 Z M 108.58 181.08 L 109.07 180.16 C 109.48 179.40 109.19 178.46 108.43 178.05 C 107.67 177.65 106.72 177.94 106.31 178.70 L 105.83 179.61 C 105.42 180.37 105.71 181.32 106.47 181.72 C 107.23 182.13 108.18 181.84 108.58 181.08 Z M 109.07 180.17 L 109.54 179.29 C 109.95 178.53 109.67 177.58 108.91 177.17 C 108.15 176.76 107.21 177.04 106.80 177.80 L 106.32 178.69 C 105.91 179.45 106.19 180.39 106.95 180.80 C 107.71 181.21 108.66 180.93 109.07 180.17 Z M 109.54 179.29 L 110.01 178.43 C 110.42 177.68 110.14 176.73 109.39 176.32 C 108.63 175.90 107.68 176.18 107.27 176.94 L 106.80 177.80 C 106.39 178.55 106.67 179.50 107.42 179.91 C 108.18 180.33 109.13 180.05 109.54 179.29 Z M 110.01 178.44 L 110.47 177.61 C 110.88 176.85 110.61 175.90 109.85 175.49 C 109.10 175.07 108.15 175.35 107.73 176.10 L 107.27 176.93 C 106.86 177.69 107.13 178.64 107.89 179.05 C 108.64 179.47 109.59 179.19 110.01 178.44 Z M 110.47 177.61 L 110.98 176.68 C 111.39 175.93 111.12 174.98 110.37 174.56 C 109.61 174.14 108.66 174.42 108.24 175.17 L 107.73 176.10 C 107.31 176.85 107.59 177.80 108.34 178.22 C 109.10 178.64 110.05 178.36 110.47 177.61 Z M 110.98 176.69 L 111.48 175.79 C 111.90 175.03 111.63 174.08 110.87 173.66 C 110.11 173.24 109.16 173.51 108.74 174.27 L 108.24 175.17 C 107.82 175.92 108.09 176.88 108.85 177.30 C 109.61 177.72 110.56 177.44 110.98 176.69 Z M 111.48 175.79 L 111.96 174.93 C 112.38 174.17 112.11 173.22 111.35 172.80 C 110.59 172.37 109.64 172.65 109.22 173.40 L 108.74 174.26 C 108.31 175.02 108.59 175.98 109.34 176.40 C 110.10 176.82 111.06 176.55 111.48 175.79 Z M 111.96 174.94 L 112.42 174.12 C 112.84 173.36 112.57 172.40 111.81 171.98 C 111.06 171.55 110.10 171.82 109.67 172.58 L 109.21 173.40 C 108.79 174.16 109.06 175.12 109.82 175.54 C 110.58 175.97 111.54 175.70 111.96 174.94 Z M 112.42 174.13 L 112.93 173.23 C 113.36 172.47 113.09 171.50 112.33 171.07 C 111.57 170.65 110.61 170.91 110.18 171.67 L 109.67 172.57 C 109.24 173.33 109.51 174.30 110.27 174.73 C 111.03 175.15 111.99 174.89 112.42 174.13 Z M 112.93 173.24 L 113.43 172.37 C 113.86 171.62 113.61 170.65 112.85 170.21 C 112.09 169.77 111.12 170.03 110.69 170.79 L 110.19 171.66 C 109.75 172.41 110.01 173.38 110.76 173.82 C 111.52 174.26 112.49 174.00 112.93 173.24 Z M 113.42 172.40 L 113.92 171.57 C 114.37 170.82 114.12 169.84 113.37 169.39 C 112.62 168.94 111.65 169.18 111.20 169.93 L 110.70 170.76 C 110.25 171.51 110.49 172.49 111.24 172.94 C 111.99 173.39 112.96 173.15 113.42 172.40 Z M 113.90 171.60 L 114.42 170.78 C 114.89 170.04 114.67 169.05 113.93 168.58 C 113.19 168.11 112.21 168.33 111.74 169.07 L 111.22 169.90 C 110.75 170.64 110.96 171.62 111.70 172.09 C 112.45 172.56 113.43 172.34 113.90 171.60 Z M 114.40 170.81 L 114.96 169.98 C 115.45 169.25 115.25 168.26 114.52 167.77 C 113.79 167.28 112.80 167.48 112.31 168.21 L 111.76 169.04 C 111.27 169.77 111.47 170.76 112.20 171.25 C 112.93 171.73 113.92 171.54 114.40 170.81 Z M 114.95 170.00 L 115.51 169.17 C 116.01 168.45 115.83 167.46 115.11 166.96 C 114.39 166.46 113.40 166.64 112.90 167.37 L 112.33 168.19 C 111.83 168.91 112.01 169.90 112.73 170.40 C 113.46 170.90 114.45 170.72 114.95 170.00 Z M 115.51 169.18 L 115.91 168.61 C 116.41 167.89 116.24 166.90 115.52 166.39 C 114.80 165.89 113.81 166.07 113.30 166.79 L 112.90 167.36 C 112.40 168.08 112.57 169.07 113.29 169.57 C 114.01 170.08 115.01 169.90 115.51 169.18 Z"
      fill="black"
      fill-rule="nonzero" /><path d="M 145.48 106.31 L 145.40 107.27 C 145.33 108.20 146.02 109.00 146.94 109.08 C 147.86 109.15 148.67 108.46 148.74 107.54 L 148.82 106.58 C 148.90 105.66 148.21 104.85 147.28 104.77 C 146.36 104.70 145.55 105.39 145.48 106.31 Z M 145.37 107.27 L 145.28 108.25 C 145.21 109.19 145.91 110.02 146.85 110.10 C 147.80 110.17 148.62 109.47 148.70 108.53 L 148.78 107.55 C 148.86 106.60 148.16 105.78 147.21 105.70 C 146.27 105.62 145.44 106.32 145.37 107.27 Z M 145.25 108.24 L 145.16 109.26 C 145.08 110.22 145.79 111.07 146.76 111.15 C 147.72 111.23 148.57 110.52 148.65 109.56 L 148.74 108.54 C 148.82 107.57 148.10 106.73 147.14 106.64 C 146.18 106.56 145.33 107.28 145.25 108.24 Z M 145.13 109.25 L 145.04 110.23 C 144.96 111.21 145.68 112.08 146.66 112.16 C 147.64 112.25 148.50 111.53 148.59 110.55 L 148.68 109.57 C 148.77 108.59 148.04 107.72 147.06 107.63 C 146.08 107.55 145.22 108.27 145.13 109.25 Z M 145.03 110.23 L 144.94 111.18 C 144.85 112.17 145.58 113.05 146.56 113.14 C 147.55 113.23 148.43 112.50 148.52 111.51 L 148.61 110.56 C 148.70 109.57 147.97 108.69 146.98 108.60 C 146.00 108.51 145.12 109.24 145.03 110.23 Z M 144.93 111.18 L 144.84 112.18 C 144.75 113.17 145.48 114.05 146.47 114.14 C 147.46 114.24 148.34 113.51 148.43 112.51 L 148.53 111.52 C 148.62 110.52 147.89 109.64 146.90 109.55 C 145.90 109.46 145.02 110.19 144.93 111.18 Z M 144.83 112.18 L 144.73 113.22 C 144.64 114.21 145.37 115.10 146.37 115.19 C 147.37 115.28 148.25 114.55 148.35 113.55 L 148.44 112.51 C 148.54 111.52 147.80 110.63 146.80 110.54 C 145.81 110.45 144.92 111.18 144.83 112.18 Z M 144.72 113.22 L 144.63 114.26 C 144.54 115.26 145.28 116.15 146.28 116.24 C 147.28 116.33 148.17 115.59 148.26 114.59 L 148.36 113.55 C 148.45 112.55 147.71 111.66 146.70 111.57 C 145.70 111.48 144.82 112.22 144.72 113.22 Z M 144.63 114.26 L 144.53 115.28 C 144.44 116.28 145.18 117.17 146.19 117.26 C 147.19 117.35 148.08 116.61 148.17 115.61 L 148.26 114.59 C 148.35 113.58 147.61 112.69 146.61 112.60 C 145.61 112.51 144.72 113.25 144.63 114.26 Z M 144.53 115.27 L 144.44 116.29 C 144.35 117.29 145.08 118.18 146.09 118.28 C 147.09 118.37 147.98 117.63 148.08 116.63 L 148.17 115.61 C 148.26 114.61 147.53 113.72 146.52 113.63 C 145.52 113.53 144.63 114.27 144.53 115.27 Z M 144.44 116.28 L 144.34 117.27 C 144.24 118.27 144.97 119.16 145.98 119.26 C 146.98 119.36 147.88 118.63 147.98 117.63 L 148.08 116.64 C 148.18 115.64 147.44 114.74 146.44 114.64 C 145.44 114.54 144.54 115.27 144.44 116.28 Z M 144.35 117.24 L 144.24 118.21 C 144.13 119.21 144.85 120.11 145.85 120.22 C 146.85 120.33 147.76 119.61 147.87 118.61 L 147.97 117.65 C 148.09 116.65 147.36 115.74 146.36 115.63 C 145.36 115.52 144.46 116.24 144.35 117.24 Z M 144.25 118.17 L 144.11 119.21 C 143.98 120.21 144.69 121.12 145.69 121.25 C 146.68 121.38 147.60 120.68 147.73 119.68 L 147.86 118.64 C 147.99 117.64 147.28 116.73 146.29 116.60 C 145.29 116.47 144.37 117.18 144.25 118.17 Z M 144.12 119.18 L 143.98 120.16 C 143.83 121.15 144.52 122.07 145.51 122.22 C 146.50 122.37 147.43 121.68 147.57 120.69 L 147.72 119.71 C 147.86 118.72 147.18 117.79 146.18 117.65 C 145.19 117.50 144.27 118.19 144.12 119.18 Z M 143.99 120.13 L 143.83 121.09 C 143.67 122.08 144.35 123.01 145.33 123.17 C 146.32 123.33 147.25 122.65 147.41 121.67 L 147.56 120.71 C 147.72 119.72 147.05 118.79 146.06 118.63 C 145.08 118.48 144.15 119.15 143.99 120.13 Z M 143.84 121.08 L 143.68 122.03 C 143.51 123.01 144.17 123.94 145.16 124.11 C 146.14 124.28 147.07 123.61 147.24 122.63 L 147.40 121.68 C 147.57 120.70 146.91 119.76 145.92 119.60 C 144.94 119.43 144.01 120.09 143.84 121.08 Z M 143.69 122.02 L 143.52 122.98 C 143.34 123.96 144.00 124.89 144.98 125.07 C 145.96 125.24 146.89 124.58 147.06 123.60 L 147.23 122.64 C 147.41 121.66 146.75 120.73 145.77 120.55 C 144.79 120.38 143.86 121.04 143.69 122.02 Z M 143.52 122.96 L 143.34 123.95 C 143.16 124.93 143.80 125.86 144.78 126.04 C 145.76 126.23 146.69 125.58 146.87 124.61 L 147.06 123.62 C 147.24 122.64 146.59 121.71 145.62 121.53 C 144.64 121.34 143.70 121.99 143.52 122.96 Z M 143.35 123.93 L 143.15 124.94 C 142.96 125.91 143.59 126.85 144.56 127.05 C 145.53 127.24 146.47 126.60 146.67 125.63 L 146.86 124.62 C 147.06 123.65 146.42 122.71 145.45 122.52 C 144.48 122.33 143.54 122.96 143.35 123.93 Z M 143.16 124.92 L 142.96 125.89 C 142.75 126.85 143.37 127.80 144.34 128.00 C 145.30 128.21 146.25 127.59 146.45 126.62 L 146.66 125.66 C 146.86 124.69 146.24 123.74 145.28 123.54 C 144.31 123.34 143.36 123.96 143.16 124.92 Z M 142.97 125.87 L 142.75 126.83 C 142.54 127.79 143.14 128.74 144.10 128.96 C 145.05 129.17 146.01 128.57 146.22 127.61 L 146.44 126.65 C 146.66 125.69 146.05 124.74 145.10 124.52 C 144.14 124.31 143.19 124.91 142.97 125.87 Z M 142.77 126.80 L 142.53 127.78 C 142.30 128.73 142.88 129.69 143.83 129.92 C 144.78 130.15 145.74 129.56 145.97 128.61 L 146.21 127.64 C 146.44 126.69 145.86 125.73 144.91 125.50 C 143.95 125.27 143.00 125.85 142.77 126.80 Z M 142.54 127.75 L 142.29 128.74 C 142.04 129.68 142.60 130.64 143.55 130.89 C 144.49 131.14 145.45 130.57 145.70 129.63 L 145.96 128.64 C 146.20 127.70 145.64 126.74 144.70 126.49 C 143.75 126.24 142.79 126.81 142.54 127.75 Z M 142.30 128.70 L 142.03 129.67 C 141.76 130.60 142.31 131.57 143.24 131.84 C 144.18 132.10 145.15 131.56 145.41 130.62 L 145.68 129.66 C 145.95 128.73 145.40 127.76 144.47 127.49 C 143.54 127.23 142.56 127.77 142.30 128.70 Z M 142.04 129.64 L 141.76 130.59 C 141.48 131.52 142.00 132.49 142.92 132.77 C 143.85 133.05 144.83 132.53 145.11 131.61 L 145.40 130.65 C 145.68 129.73 145.15 128.75 144.23 128.47 C 143.30 128.19 142.32 128.71 142.04 129.64 Z M 141.77 130.56 L 141.46 131.52 C 141.17 132.43 141.67 133.42 142.59 133.71 C 143.51 134.01 144.49 133.50 144.78 132.59 L 145.09 131.63 C 145.39 130.72 144.88 129.73 143.97 129.44 C 143.05 129.14 142.07 129.65 141.77 130.56 Z M 141.48 131.49 L 141.15 132.44 C 140.85 133.35 141.33 134.34 142.24 134.65 C 143.15 134.96 144.13 134.47 144.44 133.57 L 144.77 132.61 C 145.08 131.71 144.59 130.72 143.69 130.41 C 142.78 130.10 141.79 130.58 141.48 131.49 Z M 141.17 132.42 L 140.83 133.37 C 140.51 134.27 140.97 135.26 141.87 135.58 C 142.77 135.90 143.76 135.44 144.09 134.54 L 144.43 133.59 C 144.75 132.69 144.28 131.70 143.38 131.38 C 142.49 131.05 141.49 131.52 141.17 132.42 Z M 140.85 133.34 L 140.49 134.28 C 140.16 135.17 140.61 136.17 141.50 136.50 C 142.39 136.84 143.38 136.39 143.72 135.50 L 144.07 134.56 C 144.41 133.67 143.96 132.68 143.07 132.34 C 142.18 132.00 141.18 132.45 140.85 133.34 Z M 140.51 134.26 L 140.14 135.20 C 139.80 136.08 140.23 137.07 141.11 137.42 C 141.99 137.76 142.99 137.33 143.34 136.45 L 143.70 135.52 C 144.05 134.64 143.61 133.64 142.73 133.30 C 141.85 132.95 140.86 133.38 140.51 134.26 Z M 140.16 135.18 L 139.78 136.10 C 139.43 136.98 139.85 137.97 140.72 138.33 C 141.59 138.68 142.59 138.26 142.94 137.39 L 143.32 136.47 C 143.68 135.59 143.26 134.60 142.38 134.24 C 141.51 133.89 140.51 134.31 140.16 135.18 Z M 139.80 136.09 L 139.41 137.01 C 139.05 137.87 139.46 138.87 140.32 139.23 C 141.19 139.59 142.18 139.19 142.54 138.32 L 142.93 137.40 C 143.29 136.54 142.89 135.54 142.02 135.18 C 141.16 134.82 140.16 135.22 139.80 136.09 Z M 139.43 136.99 L 139.03 137.91 C 138.66 138.76 139.06 139.76 139.91 140.13 C 140.77 140.50 141.77 140.10 142.14 139.25 L 142.53 138.33 C 142.90 137.48 142.51 136.48 141.65 136.11 C 140.79 135.74 139.80 136.14 139.43 136.99 Z M 139.05 137.89 L 138.64 138.80 C 138.26 139.65 138.65 140.64 139.49 141.02 C 140.34 141.40 141.34 141.02 141.72 140.17 L 142.12 139.26 C 142.50 138.41 142.12 137.42 141.27 137.04 C 140.42 136.66 139.43 137.04 139.05 137.89 Z M 138.66 138.78 L 138.24 139.69 C 137.85 140.53 138.22 141.52 139.06 141.91 C 139.90 142.30 140.89 141.93 141.28 141.09 L 141.70 140.19 C 142.09 139.35 141.72 138.35 140.88 137.96 C 140.04 137.58 139.05 137.94 138.66 138.78 Z M 138.26 139.67 L 137.82 140.58 C 137.42 141.41 137.77 142.41 138.60 142.81 C 139.43 143.20 140.43 142.85 140.82 142.03 L 141.26 141.11 C 141.66 140.28 141.31 139.29 140.48 138.89 C 139.65 138.49 138.66 138.84 138.26 139.67 Z M 137.84 140.56 L 137.38 141.48 C 136.97 142.30 137.30 143.30 138.12 143.71 C 138.94 144.12 139.94 143.79 140.35 142.97 L 140.81 142.05 C 141.22 141.23 140.88 140.23 140.06 139.82 C 139.24 139.41 138.25 139.74 137.84 140.56 Z M 137.40 141.46 L 136.92 142.38 C 136.50 143.18 136.81 144.18 137.62 144.60 C 138.43 145.02 139.43 144.71 139.85 143.90 L 140.33 142.99 C 140.75 142.18 140.43 141.18 139.62 140.76 C 138.82 140.34 137.82 140.65 137.40 141.46 Z M 136.94 142.35 L 136.46 143.24 C 136.03 144.03 136.32 145.03 137.12 145.47 C 137.92 145.90 138.92 145.60 139.35 144.81 L 139.83 143.92 C 140.26 143.13 139.97 142.13 139.17 141.69 C 138.37 141.26 137.38 141.56 136.94 142.35 Z M 136.49 143.21 L 136.01 144.04 C 135.56 144.83 135.83 145.83 136.62 146.28 C 137.40 146.73 138.40 146.45 138.85 145.67 L 139.33 144.83 C 139.77 144.05 139.50 143.05 138.72 142.60 C 137.93 142.15 136.93 142.42 136.49 143.21 Z M 136.04 144.01 L 135.54 144.83 C 135.07 145.60 135.31 146.60 136.08 147.07 C 136.85 147.54 137.85 147.29 138.32 146.52 L 138.82 145.70 C 139.29 144.94 139.04 143.93 138.27 143.47 C 137.51 143.00 136.50 143.24 136.04 144.01 Z M 135.58 144.78 L 135.05 145.57 C 134.56 146.32 134.76 147.32 135.50 147.82 C 136.25 148.32 137.26 148.11 137.75 147.37 L 138.28 146.58 C 138.77 145.83 138.57 144.82 137.83 144.33 C 137.08 143.83 136.07 144.03 135.58 144.78 Z M 135.10 145.51 L 134.53 146.29 C 134.00 147.01 134.15 148.02 134.87 148.55 C 135.58 149.08 136.59 148.93 137.12 148.21 L 137.70 147.43 C 138.23 146.71 138.08 145.70 137.36 145.17 C 136.64 144.64 135.63 144.79 135.10 145.51 Z M 134.58 146.24 L 133.91 147.06 C 133.35 147.75 133.45 148.76 134.14 149.32 C 134.82 149.88 135.84 149.78 136.40 149.09 L 137.07 148.27 C 137.63 147.58 137.53 146.57 136.84 146.01 C 136.15 145.45 135.14 145.55 134.58 146.24 Z M 133.95 147.02 L 133.31 147.75 C 132.73 148.41 132.79 149.42 133.46 150.01 C 134.12 150.59 135.13 150.53 135.72 149.86 L 136.36 149.13 C 136.94 148.47 136.87 147.46 136.21 146.87 C 135.54 146.29 134.53 146.36 133.95 147.02 Z M 133.34 147.72 L 132.67 148.44 C 132.07 149.09 132.10 150.10 132.75 150.70 C 133.40 151.30 134.41 151.26 135.01 150.62 L 135.68 149.89 C 136.28 149.24 136.25 148.23 135.60 147.63 C 134.96 147.03 133.94 147.07 133.34 147.72 Z M 132.70 148.42 L 131.98 149.15 C 131.36 149.78 131.37 150.79 132.00 151.40 C 132.63 152.02 133.64 152.01 134.25 151.38 L 134.98 150.65 C 135.59 150.02 135.58 149.01 134.95 148.39 C 134.33 147.78 133.32 147.79 132.70 148.42 Z M 132.02 149.12 L 131.27 149.84 C 130.64 150.44 130.62 151.45 131.22 152.08 C 131.83 152.72 132.84 152.74 133.47 152.13 L 134.22 151.41 C 134.85 150.81 134.87 149.80 134.26 149.17 C 133.66 148.53 132.65 148.51 132.02 149.12 Z M 131.32 149.80 L 130.57 150.47 C 129.91 151.05 129.85 152.05 130.44 152.71 C 131.02 153.36 132.02 153.42 132.67 152.83 L 133.42 152.17 C 134.08 151.58 134.14 150.58 133.55 149.93 C 132.97 149.27 131.97 149.22 131.32 149.80 Z M 130.63 150.42 L 129.79 151.09 C 129.11 151.64 129.01 152.64 129.56 153.32 C 130.11 154.00 131.10 154.10 131.78 153.55 L 132.61 152.88 C 133.29 152.33 133.40 151.34 132.85 150.66 C 132.30 149.98 131.31 149.87 130.63 150.42 Z M 129.86 151.05 L 129.03 151.65 C 128.33 152.16 128.17 153.15 128.68 153.85 C 129.19 154.56 130.18 154.71 130.88 154.20 L 131.71 153.60 C 132.42 153.09 132.57 152.10 132.06 151.40 C 131.55 150.69 130.56 150.54 129.86 151.05 Z M 129.09 151.62 L 128.27 152.16 C 127.55 152.64 127.35 153.62 127.84 154.34 C 128.32 155.06 129.29 155.26 130.02 154.78 L 130.83 154.23 C 131.55 153.75 131.75 152.78 131.27 152.06 C 130.78 151.33 129.81 151.14 129.09 151.62 Z M 128.31 152.14 L 127.51 152.65 C 126.77 153.11 126.55 154.07 127.01 154.81 C 127.47 155.54 128.44 155.76 129.17 155.30 L 129.98 154.79 C 130.71 154.33 130.93 153.37 130.47 152.63 C 130.01 151.90 129.04 151.68 128.31 152.14 Z M 127.52 152.64 L 127.15 152.87 C 126.41 153.33 126.18 154.29 126.64 155.02 C 127.09 155.76 128.05 155.99 128.79 155.53 L 129.16 155.30 C 129.90 154.85 130.12 153.89 129.67 153.15 C 129.22 152.42 128.26 152.19 127.52 152.64 Z"
      fill="black"
      fill-rule="nonzero" /><path d="M 160.57 79.75 L 161.15 80.52 C 161.67 81.22 162.67 81.36 163.37 80.84 C 164.07 80.32 164.21 79.32 163.68 78.62 L 163.10 77.85 C 162.58 77.15 161.58 77.00 160.88 77.53 C 160.18 78.05 160.04 79.05 160.57 79.75 Z M 161.07 80.49 L 161.62 81.30 C 162.12 82.04 163.13 82.24 163.88 81.73 C 164.63 81.23 164.82 80.22 164.32 79.47 L 163.76 78.66 C 163.26 77.91 162.25 77.72 161.50 78.22 C 160.76 78.73 160.56 79.74 161.07 80.49 Z M 161.50 81.19 L 161.99 82.08 C 162.43 82.89 163.45 83.18 164.26 82.74 C 165.07 82.29 165.37 81.27 164.92 80.46 L 164.43 79.58 C 163.99 78.77 162.97 78.47 162.16 78.92 C 161.35 79.36 161.05 80.38 161.50 81.19 Z M 161.86 81.91 L 162.24 82.86 C 162.60 83.73 163.60 84.16 164.47 83.81 C 165.35 83.45 165.78 82.46 165.43 81.58 L 165.04 80.63 C 164.69 79.75 163.69 79.33 162.81 79.68 C 161.94 80.03 161.51 81.03 161.86 81.91 Z M 162.17 82.68 L 162.43 83.64 C 162.69 84.57 163.65 85.10 164.57 84.85 C 165.49 84.59 166.03 83.63 165.77 82.71 L 165.50 81.75 C 165.25 80.83 164.29 80.29 163.37 80.55 C 162.45 80.81 161.91 81.76 162.17 82.68 Z M 162.40 83.52 L 162.60 84.53 C 162.79 85.47 163.71 86.08 164.65 85.89 C 165.60 85.70 166.20 84.78 166.01 83.83 L 165.81 82.83 C 165.62 81.89 164.70 81.28 163.76 81.47 C 162.82 81.66 162.21 82.58 162.40 83.52 Z M 162.58 84.45 L 162.73 85.45 C 162.88 86.40 163.77 87.05 164.73 86.91 C 165.68 86.76 166.33 85.87 166.19 84.91 L 166.03 83.92 C 165.89 82.96 165.00 82.31 164.04 82.45 C 163.09 82.60 162.43 83.49 162.58 84.45 Z M 162.72 85.40 L 162.84 86.39 C 162.96 87.35 163.84 88.03 164.80 87.91 C 165.76 87.79 166.44 86.92 166.32 85.96 L 166.20 84.96 C 166.08 84.00 165.21 83.32 164.24 83.44 C 163.28 83.56 162.60 84.44 162.72 85.40 Z M 162.84 86.36 L 162.94 87.38 C 163.05 88.34 163.91 89.04 164.88 88.94 C 165.85 88.83 166.55 87.97 166.44 87.00 L 166.33 85.99 C 166.23 85.02 165.36 84.32 164.40 84.42 C 163.43 84.53 162.73 85.39 162.84 86.36 Z M 162.94 87.35 L 163.03 88.32 C 163.11 89.29 163.97 90.00 164.94 89.92 C 165.91 89.83 166.63 88.97 166.54 88.00 L 166.45 87.03 C 166.36 86.06 165.50 85.35 164.53 85.43 C 163.56 85.52 162.85 86.38 162.94 87.35 Z M 163.02 88.30 L 163.10 89.28 C 163.18 90.25 164.03 90.98 165.00 90.90 C 165.97 90.82 166.70 89.97 166.62 89.00 L 166.54 88.02 C 166.47 87.05 165.61 86.32 164.64 86.40 C 163.67 86.48 162.94 87.33 163.02 88.30 Z M 163.09 89.27 L 163.16 90.20 C 163.23 91.18 164.08 91.91 165.06 91.84 C 166.03 91.77 166.76 90.92 166.69 89.95 L 166.62 89.01 C 166.55 88.03 165.70 87.30 164.73 87.37 C 163.76 87.44 163.02 88.29 163.09 89.27 Z M 163.16 90.20 L 163.23 91.16 C 163.29 92.13 164.14 92.87 165.12 92.80 C 166.09 92.74 166.83 91.89 166.76 90.91 L 166.70 89.95 C 166.63 88.98 165.78 88.24 164.81 88.31 C 163.83 88.37 163.09 89.22 163.16 90.20 Z M 163.22 91.15 L 163.29 92.16 C 163.35 93.14 164.20 93.88 165.18 93.82 C 166.16 93.75 166.90 92.91 166.83 91.93 L 166.77 90.92 C 166.70 89.94 165.86 89.20 164.88 89.26 C 163.90 89.33 163.16 90.17 163.22 91.15 Z M 163.29 92.16 L 163.35 93.22 C 163.41 94.20 164.26 94.94 165.24 94.88 C 166.22 94.82 166.96 93.98 166.90 93.00 L 166.84 91.94 C 166.77 90.96 165.93 90.21 164.95 90.27 C 163.97 90.33 163.22 91.18 163.29 92.16 Z M 163.35 93.21 L 163.41 94.20 C 163.47 95.18 164.31 95.93 165.29 95.87 C 166.27 95.81 167.02 94.97 166.96 93.98 L 166.91 93.00 C 166.85 92.02 166.00 91.27 165.02 91.33 C 164.04 91.39 163.29 92.23 163.35 93.21 Z M 163.41 94.19 L 163.46 95.17 C 163.52 96.15 164.36 96.91 165.34 96.85 C 166.33 96.79 167.08 95.95 167.02 94.97 L 166.97 93.99 C 166.91 93.01 166.07 92.25 165.08 92.31 C 164.10 92.37 163.35 93.21 163.41 94.19 Z M 163.46 95.16 L 163.51 96.17 C 163.56 97.15 164.40 97.91 165.39 97.86 C 166.37 97.80 167.13 96.96 167.08 95.98 L 167.03 94.97 C 166.97 93.99 166.13 93.23 165.15 93.28 C 164.16 93.34 163.41 94.18 163.46 95.16 Z M 163.51 96.16 L 163.56 97.18 C 163.61 98.17 164.44 98.93 165.43 98.88 C 166.42 98.83 167.18 97.99 167.13 97.01 L 167.08 95.98 C 167.03 95.00 166.19 94.24 165.21 94.29 C 164.22 94.33 163.46 95.17 163.51 96.16 Z M 163.56 97.17 L 163.60 98.20 C 163.64 99.19 164.48 99.95 165.47 99.91 C 166.45 99.87 167.22 99.03 167.18 98.04 L 167.13 97.02 C 167.09 96.03 166.26 95.26 165.27 95.30 C 164.28 95.35 163.51 96.18 163.56 97.17 Z M 163.60 98.19 L 163.63 99.17 C 163.67 100.16 164.50 100.93 165.49 100.89 C 166.48 100.86 167.26 100.02 167.22 99.03 L 167.18 98.05 C 167.14 97.06 166.31 96.29 165.32 96.33 C 164.33 96.36 163.56 97.20 163.60 98.19 Z M 163.63 99.16 L 163.66 100.15 C 163.69 101.14 164.52 101.92 165.51 101.89 C 166.51 101.85 167.28 101.02 167.25 100.03 L 167.22 99.04 C 167.19 98.05 166.36 97.27 165.37 97.30 C 164.38 97.34 163.60 98.17 163.63 99.16 Z M 163.66 100.14 L 163.68 101.14 C 163.71 102.13 164.54 102.91 165.53 102.89 C 166.52 102.86 167.31 102.04 167.28 101.04 L 167.26 100.04 C 167.23 99.05 166.40 98.26 165.41 98.29 C 164.42 98.32 163.63 99.14 163.66 100.14 Z M 163.68 101.13 L 163.70 102.14 C 163.72 103.13 164.55 103.92 165.54 103.90 C 166.54 103.88 167.33 103.06 167.31 102.06 L 167.29 101.05 C 167.27 100.06 166.44 99.27 165.45 99.29 C 164.45 99.31 163.66 100.13 163.68 101.13 Z M 163.70 102.13 L 163.71 103.14 C 163.73 104.14 164.55 104.93 165.55 104.92 C 166.54 104.90 167.34 104.08 167.32 103.09 L 167.31 102.07 C 167.29 101.08 166.47 100.28 165.48 100.30 C 164.48 100.31 163.68 101.13 163.70 102.13 Z M 163.71 103.13 L 163.72 104.11 C 163.73 105.11 164.55 105.91 165.55 105.90 C 166.54 105.89 167.35 105.07 167.34 104.07 L 167.33 103.10 C 167.32 102.10 166.50 101.30 165.50 101.31 C 164.50 101.32 163.70 102.13 163.71 103.13 Z M 163.72 104.10 L 163.72 105.09 C 163.73 106.09 164.55 106.90 165.54 106.89 C 166.54 106.88 167.35 106.07 167.34 105.07 L 167.34 104.08 C 167.33 103.08 166.52 102.27 165.52 102.28 C 164.52 102.29 163.71 103.10 163.72 104.10 Z M 163.72 105.09 L 163.72 106.09 C 163.73 107.09 164.54 107.90 165.54 107.89 C 166.54 107.89 167.35 107.08 167.35 106.08 L 167.35 105.07 C 167.34 104.07 166.53 103.26 165.53 103.27 C 164.53 103.27 163.72 104.08 163.72 105.09 Z M 163.72 106.08 L 163.72 107.10 C 163.72 108.10 164.54 108.91 165.54 108.91 C 166.54 108.91 167.35 108.09 167.35 107.09 L 167.35 106.08 C 167.35 105.08 166.54 104.26 165.54 104.27 C 164.53 104.27 163.72 105.08 163.72 106.08 Z M 163.72 107.09 L 163.72 108.12 C 163.72 109.12 164.53 109.94 165.54 109.94 C 166.54 109.94 167.36 109.12 167.36 108.12 L 167.36 107.09 C 167.36 106.09 166.54 105.28 165.54 105.28 C 164.53 105.28 163.72 106.09 163.72 107.09 Z M 163.72 108.12 L 163.72 109.11 C 163.72 110.11 164.53 110.93 165.54 110.93 C 166.54 110.93 167.36 110.11 167.36 109.11 L 167.36 108.12 C 167.36 107.11 166.54 106.30 165.54 106.30 C 164.53 106.30 163.72 107.11 163.72 108.12 Z M 163.72 109.11 L 163.72 110.10 C 163.72 111.10 164.53 111.92 165.54 111.92 C 166.54 111.92 167.36 111.10 167.36 110.10 L 167.36 109.11 C 167.36 108.10 166.54 107.28 165.54 107.28 C 164.53 107.28 163.72 108.10 163.72 109.11 Z M 163.72 110.10 L 163.72 111.10 C 163.72 112.10 164.53 112.92 165.54 112.92 C 166.54 112.92 167.36 112.10 167.36 111.10 L 167.36 110.10 C 167.36 109.09 166.54 108.27 165.54 108.27 C 164.53 108.27 163.72 109.09 163.72 110.10 Z M 163.72 111.10 L 163.72 112.10 C 163.72 113.11 164.53 113.92 165.54 113.92 C 166.55 113.92 167.36 113.11 167.36 112.10 L 167.36 111.10 C 167.36 110.09 166.55 109.27 165.54 109.27 C 164.53 109.27 163.72 110.09 163.72 111.10 Z M 163.71 112.10 L 163.71 113.11 C 163.71 114.12 164.53 114.94 165.54 114.94 C 166.55 114.94 167.36 114.12 167.36 113.11 L 167.36 112.10 C 167.36 111.09 166.55 110.28 165.54 110.28 C 164.53 110.28 163.71 111.09 163.71 112.10 Z M 163.71 113.11 L 163.71 114.12 C 163.71 115.12 164.53 115.94 165.54 115.94 C 166.55 115.94 167.36 115.12 167.36 114.12 L 167.36 113.11 C 167.36 112.10 166.55 111.29 165.54 111.29 C 164.53 111.29 163.71 112.10 163.71 113.11 Z M 163.71 114.11 L 163.71 115.11 C 163.71 116.12 164.53 116.93 165.54 116.93 C 166.55 116.94 167.36 116.12 167.36 115.11 L 167.37 114.12 C 167.37 113.11 166.55 112.29 165.54 112.29 C 164.53 112.29 163.71 113.11 163.71 114.11 Z M 163.71 115.10 L 163.71 116.10 C 163.70 117.11 164.52 117.93 165.53 117.93 C 166.54 117.93 167.36 117.12 167.36 116.11 L 167.37 115.11 C 167.37 114.10 166.55 113.28 165.54 113.28 C 164.53 113.28 163.71 114.09 163.71 115.10 Z M 163.71 116.09 L 163.70 117.09 C 163.69 118.10 164.51 118.93 165.52 118.93 C 166.53 118.94 167.35 118.12 167.36 117.11 L 167.36 116.11 C 167.37 115.10 166.56 114.28 165.55 114.28 C 164.54 114.27 163.71 115.08 163.71 116.09 Z M 163.70 117.08 L 163.69 118.09 C 163.68 119.10 164.49 119.93 165.50 119.94 C 166.51 119.95 167.34 119.14 167.35 118.13 L 167.36 117.12 C 167.37 116.11 166.56 115.29 165.55 115.27 C 164.54 115.26 163.71 116.07 163.70 117.08 Z M 163.69 118.08 L 163.67 119.09 C 163.65 120.10 164.46 120.93 165.47 120.95 C 166.48 120.96 167.31 120.16 167.33 119.15 L 167.35 118.14 C 167.37 117.13 166.56 116.30 165.55 116.28 C 164.54 116.26 163.71 117.07 163.69 118.08 Z M 163.67 119.07 L 163.65 120.06 C 163.62 121.07 164.42 121.91 165.43 121.94 C 166.44 121.96 167.28 121.16 167.31 120.15 L 167.33 119.16 C 167.36 118.15 166.56 117.31 165.55 117.29 C 164.54 117.26 163.70 118.06 163.67 119.07 Z M 163.65 120.05 L 163.62 121.03 C 163.58 122.04 164.37 122.89 165.38 122.92 C 166.39 122.95 167.24 122.16 167.27 121.15 L 167.31 120.17 C 167.34 119.16 166.55 118.31 165.54 118.28 C 164.53 118.24 163.68 119.04 163.65 120.05 Z M 163.62 121.01 L 163.57 122.00 C 163.53 123.01 164.31 123.87 165.32 123.91 C 166.33 123.95 167.19 123.17 167.23 122.16 L 167.27 121.17 C 167.32 120.16 166.53 119.31 165.52 119.26 C 164.51 119.22 163.66 120.00 163.62 121.01 Z M 163.58 121.99 L 163.52 122.98 C 163.47 123.99 164.24 124.85 165.25 124.91 C 166.26 124.96 167.12 124.19 167.17 123.18 L 167.23 122.18 C 167.28 121.17 166.51 120.31 165.50 120.26 C 164.49 120.20 163.63 120.98 163.58 121.99 Z M 163.52 122.96 L 163.46 123.97 C 163.39 124.98 164.16 125.85 165.16 125.91 C 166.17 125.98 167.04 125.22 167.11 124.21 L 167.17 123.20 C 167.24 122.19 166.48 121.32 165.47 121.26 C 164.46 121.19 163.59 121.95 163.52 122.96 Z M 163.46 123.95 L 163.38 124.96 C 163.30 125.97 164.05 126.85 165.06 126.93 C 166.07 127.01 166.94 126.26 167.02 125.25 L 167.10 124.23 C 167.18 123.23 166.43 122.35 165.43 122.27 C 164.42 122.19 163.54 122.94 163.46 123.95 Z M 163.38 124.94 L 163.29 125.96 C 163.20 126.96 163.94 127.85 164.94 127.94 C 165.95 128.04 166.83 127.30 166.93 126.29 L 167.02 125.27 C 167.11 124.27 166.37 123.38 165.37 123.29 C 164.37 123.20 163.48 123.93 163.38 124.94 Z M 163.29 125.94 L 163.19 126.96 C 163.08 127.96 163.81 128.86 164.81 128.96 C 165.81 129.07 166.71 128.34 166.82 127.34 L 166.92 126.32 C 167.03 125.31 166.30 124.42 165.30 124.31 C 164.30 124.21 163.40 124.93 163.29 125.94 Z M 163.19 126.94 L 163.07 127.95 C 162.96 128.95 163.68 129.86 164.68 129.97 C 165.68 130.09 166.58 129.37 166.70 128.37 L 166.81 127.36 C 166.93 126.36 166.21 125.45 165.21 125.34 C 164.21 125.22 163.31 125.94 163.19 126.94 Z M 163.08 127.94 L 162.95 128.94 C 162.83 129.93 163.54 130.84 164.53 130.97 C 165.53 131.09 166.44 130.39 166.57 129.39 L 166.69 128.39 C 166.82 127.39 166.11 126.48 165.11 126.35 C 164.11 126.23 163.20 126.94 163.08 127.94 Z M 162.96 128.92 L 162.83 129.90 C 162.69 130.89 163.39 131.81 164.39 131.94 C 165.38 132.07 166.30 131.37 166.43 130.38 L 166.56 129.40 C 166.70 128.41 166.00 127.49 165.00 127.36 C 164.00 127.23 163.09 127.92 162.96 128.92 Z M 162.83 129.88 L 162.70 130.82 C 162.55 131.82 163.25 132.74 164.24 132.88 C 165.24 133.02 166.16 132.33 166.30 131.33 L 166.43 130.39 C 166.57 129.40 165.88 128.48 164.88 128.34 C 163.89 128.20 162.97 128.89 162.83 129.88 Z M 162.70 130.81 L 162.54 131.88 C 162.39 132.87 163.08 133.79 164.07 133.94 C 165.06 134.09 165.98 133.41 166.13 132.42 L 166.29 131.35 C 166.44 130.35 165.76 129.43 164.76 129.28 C 163.77 129.13 162.85 129.82 162.70 130.81 Z M 162.55 131.87 L 162.39 132.90 C 162.23 133.89 162.91 134.81 163.89 134.97 C 164.88 135.12 165.80 134.45 165.96 133.46 L 166.12 132.43 C 166.28 131.44 165.60 130.52 164.62 130.36 C 163.63 130.21 162.71 130.88 162.55 131.87 Z M 162.40 132.89 L 162.24 133.87 C 162.08 134.85 162.74 135.78 163.72 135.94 C 164.70 136.10 165.63 135.43 165.79 134.45 L 165.95 133.47 C 166.11 132.49 165.44 131.57 164.46 131.40 C 163.48 131.24 162.56 131.91 162.40 132.89 Z M 162.24 133.87 L 162.09 134.80 C 161.92 135.78 162.58 136.70 163.56 136.87 C 164.54 137.03 165.46 136.37 165.62 135.40 L 165.78 134.46 C 165.94 133.48 165.29 132.56 164.31 132.39 C 163.33 132.23 162.41 132.89 162.24 133.87 Z M 162.10 134.80 L 161.94 135.71 C 161.78 136.68 162.43 137.60 163.40 137.77 C 164.38 137.93 165.30 137.28 165.46 136.30 L 165.62 135.40 C 165.78 134.43 165.13 133.50 164.15 133.34 C 163.18 133.18 162.26 133.83 162.10 134.80 Z M 161.95 135.71 L 161.79 136.68 C 161.63 137.65 162.28 138.56 163.25 138.72 C 164.22 138.89 165.13 138.23 165.29 137.26 L 165.46 136.30 C 165.62 135.33 164.96 134.41 163.99 134.25 C 163.03 134.09 162.11 134.74 161.95 135.71 Z M 161.79 136.70 L 161.64 137.66 C 161.49 138.62 162.15 139.53 163.12 139.68 C 164.08 139.83 164.99 139.17 165.14 138.20 L 165.29 137.24 C 165.44 136.28 164.78 135.38 163.81 135.22 C 162.85 135.07 161.94 135.73 161.79 136.70 Z M 161.65 137.69 L 161.52 138.67 C 161.38 139.64 162.06 140.52 163.02 140.65 C 163.98 140.79 164.87 140.11 165.00 139.15 L 165.13 138.17 C 165.27 137.21 164.59 136.32 163.63 136.19 C 162.67 136.06 161.78 136.73 161.65 137.69 Z M 161.52 138.72 L 161.41 139.75 C 161.30 140.71 162.00 141.57 162.96 141.68 C 163.92 141.78 164.78 141.09 164.89 140.13 L 165.00 139.10 C 165.10 138.14 164.41 137.28 163.45 137.17 C 162.49 137.07 161.62 137.76 161.52 138.72 Z M 161.41 139.80 L 161.33 140.77 C 161.26 141.73 161.97 142.57 162.93 142.64 C 163.89 142.72 164.73 142.01 164.80 141.05 L 164.88 140.08 C 164.96 139.12 164.24 138.28 163.29 138.20 C 162.33 138.13 161.49 138.84 161.41 139.80 Z M 161.34 140.81 L 161.28 141.77 C 161.23 142.72 161.96 143.54 162.91 143.59 C 163.87 143.65 164.68 142.92 164.74 141.97 L 164.80 141.01 C 164.85 140.06 164.12 139.24 163.17 139.18 C 162.21 139.13 161.40 139.85 161.34 140.81 Z M 161.29 141.79 L 161.25 142.79 C 161.21 143.74 161.95 144.54 162.90 144.58 C 163.85 144.62 164.65 143.88 164.69 142.94 L 164.73 141.94 C 164.77 140.99 164.04 140.19 163.09 140.15 C 162.14 140.11 161.33 140.84 161.29 141.79 Z M 161.26 142.81 L 161.23 143.83 C 161.20 144.77 161.94 145.56 162.88 145.60 C 163.83 145.63 164.62 144.89 164.65 143.94 L 164.68 142.92 C 164.71 141.97 163.97 141.18 163.03 141.15 C 162.08 141.12 161.29 141.86 161.26 142.81 Z M 161.24 143.84 L 161.21 144.88 C 161.18 145.82 161.92 146.60 162.86 146.63 C 163.80 146.65 164.59 145.91 164.61 144.97 L 164.64 143.93 C 164.66 142.99 163.92 142.21 162.98 142.18 C 162.04 142.16 161.26 142.90 161.24 143.84 Z M 161.22 144.89 L 161.20 145.56 C 161.18 146.50 161.92 147.27 162.85 147.30 C 163.79 147.32 164.56 146.58 164.59 145.64 L 164.60 144.97 C 164.62 144.03 163.88 143.26 162.95 143.23 C 162.01 143.21 161.24 143.95 161.22 144.89 Z"
      fill="black"
      fill-rule="nonzero" /><path d="M 189.35 119.97 L 190.23 120.33 C 191.13 120.69 192.15 120.27 192.51 119.37 C 192.88 118.48 192.45 117.46 191.55 117.09 L 190.67 116.73 C 189.78 116.37 188.76 116.80 188.39 117.69 C 188.03 118.58 188.46 119.60 189.35 119.97 Z M 190.21 120.35 L 191.11 120.72 C 192.01 121.10 193.05 120.67 193.43 119.76 C 193.81 118.86 193.38 117.82 192.47 117.44 L 191.57 117.07 C 190.67 116.69 189.63 117.12 189.25 118.03 C 188.87 118.94 189.31 119.98 190.21 120.35 Z M 191.08 120.75 L 192.01 121.14 C 192.93 121.53 193.99 121.10 194.38 120.19 C 194.77 119.27 194.34 118.21 193.42 117.81 L 192.50 117.42 C 191.58 117.03 190.52 117.46 190.13 118.37 C 189.73 119.29 190.16 120.35 191.08 120.75 Z M 191.97 121.16 L 192.95 121.59 C 193.88 122.00 194.96 121.58 195.37 120.65 C 195.78 119.72 195.36 118.64 194.43 118.23 L 193.46 117.80 C 192.53 117.39 191.44 117.81 191.03 118.74 C 190.62 119.66 191.04 120.75 191.97 121.16 Z M 192.92 121.59 L 193.79 121.99 C 194.72 122.42 195.82 122.01 196.24 121.08 C 196.67 120.14 196.26 119.04 195.33 118.62 L 194.46 118.22 C 193.53 117.79 192.43 118.20 192.00 119.14 C 191.58 120.07 191.99 121.17 192.92 121.59 Z M 193.77 121.99 L 194.66 122.41 C 195.59 122.84 196.70 122.44 197.13 121.51 C 197.57 120.58 197.17 119.47 196.24 119.04 L 195.35 118.62 C 194.41 118.18 193.31 118.59 192.87 119.52 C 192.44 120.45 192.84 121.55 193.77 121.99 Z M 194.65 122.41 L 195.57 122.84 C 196.50 123.28 197.61 122.88 198.05 121.95 C 198.49 121.02 198.09 119.91 197.16 119.47 L 196.24 119.03 C 195.31 118.60 194.20 118.99 193.76 119.92 C 193.32 120.86 193.72 121.97 194.65 122.41 Z M 195.57 122.84 L 196.50 123.28 C 197.43 123.72 198.54 123.32 198.98 122.39 C 199.42 121.46 199.02 120.34 198.09 119.90 L 197.16 119.46 C 196.23 119.02 195.11 119.42 194.67 120.36 C 194.23 121.29 194.63 122.40 195.57 122.84 Z M 196.50 123.29 L 197.44 123.72 C 198.37 124.16 199.49 123.76 199.92 122.82 C 200.36 121.88 199.96 120.77 199.02 120.33 L 198.09 119.90 C 197.15 119.46 196.03 119.86 195.60 120.80 C 195.16 121.74 195.56 122.85 196.50 123.29 Z M 197.45 123.73 L 198.42 124.18 C 199.37 124.61 200.48 124.20 200.91 123.26 C 201.34 122.32 200.93 121.21 199.99 120.77 L 199.01 120.33 C 198.07 119.89 196.96 120.31 196.53 121.25 C 196.09 122.19 196.51 123.30 197.45 123.73 Z M 198.44 124.19 L 199.39 124.62 C 200.33 125.04 201.44 124.62 201.87 123.68 C 202.29 122.74 201.88 121.63 200.93 121.20 L 199.98 120.77 C 199.03 120.34 197.92 120.76 197.50 121.71 C 197.07 122.65 197.49 123.76 198.44 124.19 Z M 199.40 124.62 L 200.32 125.03 C 201.26 125.45 202.37 125.02 202.79 124.08 C 203.21 123.13 202.79 122.02 201.84 121.60 L 200.92 121.20 C 199.98 120.78 198.87 121.20 198.45 122.15 C 198.03 123.09 198.45 124.20 199.40 124.62 Z M 200.32 125.03 L 201.18 125.41 C 202.13 125.83 203.24 125.40 203.65 124.45 C 204.07 123.50 203.64 122.40 202.69 121.98 L 201.83 121.60 C 200.89 121.18 199.78 121.61 199.36 122.56 C 198.95 123.51 199.38 124.61 200.32 125.03 Z M 201.19 125.41 L 202.10 125.81 C 203.05 126.22 204.15 125.79 204.56 124.84 C 204.98 123.89 204.54 122.79 203.60 122.38 L 202.69 121.98 C 201.74 121.57 200.64 122.00 200.22 122.95 C 199.81 123.89 200.24 125.00 201.19 125.41 Z M 202.10 125.81 L 203.08 126.23 C 204.02 126.64 205.12 126.20 205.53 125.26 C 205.94 124.31 205.51 123.21 204.56 122.80 L 203.59 122.38 C 202.64 121.97 201.54 122.40 201.13 123.35 C 200.72 124.30 201.16 125.40 202.10 125.81 Z M 203.08 126.22 L 203.96 126.60 C 204.91 127.01 206.01 126.57 206.41 125.63 C 206.82 124.68 206.38 123.59 205.44 123.18 L 204.56 122.80 C 203.61 122.39 202.51 122.83 202.11 123.78 C 201.70 124.72 202.14 125.82 203.08 126.22 Z M 203.97 126.60 L 204.81 126.96 C 205.76 127.37 206.85 126.93 207.25 125.99 C 207.66 125.04 207.22 123.95 206.28 123.55 L 205.43 123.19 C 204.49 122.78 203.40 123.22 202.99 124.16 C 202.59 125.10 203.03 126.20 203.97 126.60 Z M 204.82 126.96 L 205.72 127.34 C 206.66 127.74 207.74 127.31 208.15 126.37 C 208.55 125.43 208.11 124.34 207.17 123.94 L 206.27 123.55 C 205.33 123.15 204.25 123.59 203.84 124.53 C 203.44 125.47 203.88 126.55 204.82 126.96 Z M 205.72 127.34 L 206.64 127.73 C 207.57 128.13 208.66 127.69 209.06 126.75 C 209.46 125.82 209.02 124.73 208.08 124.34 L 207.17 123.94 C 206.23 123.54 205.15 123.98 204.75 124.92 C 204.35 125.85 204.79 126.94 205.72 127.34 Z M 206.64 127.72 L 207.59 128.12 C 208.52 128.52 209.60 128.08 209.99 127.15 C 210.39 126.21 209.95 125.14 209.02 124.74 L 208.08 124.34 C 207.14 123.94 206.07 124.38 205.67 125.31 C 205.27 126.25 205.71 127.33 206.64 127.72 Z M 207.59 128.11 L 208.41 128.46 C 209.34 128.85 210.41 128.41 210.80 127.48 C 211.19 126.55 210.76 125.48 209.83 125.09 L 209.01 124.75 C 208.08 124.35 207.01 124.79 206.62 125.72 C 206.23 126.65 206.66 127.72 207.59 128.11 Z M 208.40 128.45 L 209.27 128.81 C 210.19 129.21 211.26 128.78 211.65 127.85 C 212.05 126.93 211.62 125.86 210.69 125.47 L 209.83 125.10 C 208.91 124.71 207.84 125.14 207.44 126.06 C 207.05 126.98 207.48 128.05 208.40 128.45 Z M 209.26 128.80 L 210.22 129.22 C 211.13 129.61 212.20 129.20 212.60 128.28 C 212.99 127.37 212.58 126.30 211.66 125.90 L 210.70 125.49 C 209.79 125.09 208.72 125.51 208.33 126.42 C 207.93 127.34 208.35 128.40 209.26 128.80 Z M 210.20 129.20 L 211.21 129.65 C 212.11 130.06 213.18 129.65 213.58 128.75 C 213.99 127.84 213.59 126.78 212.68 126.37 L 211.67 125.92 C 210.77 125.51 209.71 125.92 209.30 126.82 C 208.89 127.73 209.30 128.79 210.20 129.20 Z M 211.20 129.63 L 211.99 130.00 C 212.89 130.41 213.95 130.02 214.37 129.12 C 214.78 128.23 214.38 127.16 213.49 126.75 L 212.69 126.39 C 211.79 125.97 210.73 126.37 210.32 127.26 C 209.91 128.16 210.30 129.22 211.20 129.63 Z M 211.98 129.99 L 212.84 130.39 C 213.73 130.81 214.79 130.42 215.21 129.53 C 215.62 128.64 215.24 127.58 214.35 127.17 L 213.50 126.77 C 212.61 126.35 211.55 126.73 211.13 127.62 C 210.71 128.51 211.09 129.57 211.98 129.99 Z M 212.83 130.38 L 213.73 130.81 C 214.62 131.23 215.67 130.86 216.10 129.98 C 216.52 129.09 216.15 128.04 215.27 127.61 L 214.36 127.18 C 213.48 126.76 212.42 127.13 212.00 128.01 C 211.57 128.89 211.95 129.95 212.83 130.38 Z M 213.72 130.80 L 214.67 131.26 C 215.55 131.69 216.60 131.33 217.03 130.45 C 217.46 129.58 217.10 128.52 216.22 128.09 L 215.27 127.63 C 214.40 127.20 213.34 127.56 212.91 128.43 C 212.49 129.31 212.85 130.37 213.72 130.80 Z M 214.66 131.25 L 215.64 131.74 C 216.51 132.17 217.57 131.82 218.00 130.95 C 218.43 130.09 218.08 129.03 217.22 128.60 L 216.23 128.10 C 215.37 127.67 214.31 128.02 213.88 128.89 C 213.44 129.76 213.79 130.81 214.66 131.25 Z M 215.63 131.72 L 216.58 132.21 C 217.44 132.65 218.49 132.31 218.93 131.45 C 219.37 130.59 219.03 129.54 218.17 129.10 L 217.23 128.61 C 216.37 128.17 215.31 128.51 214.87 129.37 C 214.44 130.23 214.77 131.28 215.63 131.72 Z M 216.57 132.19 L 217.48 132.66 C 218.32 133.11 219.37 132.78 219.82 131.93 C 220.26 131.08 219.93 130.04 219.09 129.59 L 218.18 129.12 C 217.33 128.67 216.28 129.00 215.84 129.85 C 215.39 130.69 215.72 131.74 216.57 132.19 Z M 217.47 132.64 L 218.37 133.13 C 219.21 133.58 220.25 133.27 220.70 132.43 C 221.15 131.60 220.84 130.55 220.00 130.10 L 219.10 129.61 C 218.26 129.16 217.22 129.48 216.77 130.31 C 216.32 131.15 216.63 132.19 217.47 132.64 Z M 218.36 133.10 L 219.25 133.60 C 220.07 134.06 221.11 133.77 221.57 132.94 C 222.03 132.12 221.73 131.08 220.91 130.63 L 220.02 130.13 C 219.20 129.67 218.16 129.96 217.70 130.79 C 217.24 131.61 217.54 132.65 218.36 133.10 Z M 219.23 133.58 L 220.10 134.08 C 220.91 134.55 221.94 134.27 222.41 133.47 C 222.88 132.66 222.60 131.62 221.80 131.16 L 220.93 130.65 C 220.12 130.19 219.09 130.46 218.62 131.27 C 218.15 132.07 218.43 133.11 219.23 133.58 Z M 220.08 134.05 L 220.91 134.55 C 221.70 135.03 222.73 134.78 223.21 133.99 C 223.69 133.20 223.44 132.17 222.65 131.69 L 221.82 131.19 C 221.03 130.71 220.00 130.96 219.52 131.75 C 219.04 132.54 219.29 133.57 220.08 134.05 Z M 220.88 134.52 L 221.69 135.04 C 222.46 135.54 223.49 135.32 223.99 134.55 C 224.48 133.78 224.26 132.75 223.49 132.25 L 222.68 131.73 C 221.91 131.23 220.88 131.45 220.38 132.22 C 219.89 132.99 220.11 134.02 220.88 134.52 Z M 221.65 135.00 L 222.55 135.62 C 223.29 136.14 224.31 135.95 224.83 135.21 C 225.35 134.47 225.17 133.44 224.42 132.92 L 223.53 132.30 C 222.79 131.78 221.76 131.97 221.25 132.71 C 220.73 133.45 220.91 134.48 221.65 135.00 Z M 222.51 135.57 L 223.33 136.18 C 224.04 136.72 225.06 136.58 225.60 135.86 C 226.14 135.14 226.00 134.12 225.28 133.59 L 224.46 132.97 C 223.74 132.43 222.73 132.58 222.19 133.29 C 221.65 134.01 221.79 135.03 222.51 135.57 Z M 223.30 136.14 L 224.06 136.75 C 224.76 137.30 225.77 137.19 226.32 136.50 C 226.87 135.80 226.76 134.79 226.07 134.24 L 225.31 133.63 C 224.61 133.08 223.60 133.19 223.05 133.88 C 222.49 134.58 222.61 135.59 223.30 136.14 Z M 224.05 136.71 L 224.77 137.32 C 225.45 137.88 226.45 137.79 227.01 137.11 C 227.57 136.44 227.48 135.44 226.81 134.88 L 226.08 134.27 C 225.41 133.71 224.41 133.80 223.84 134.48 C 223.28 135.15 223.37 136.15 224.05 136.71 Z M 224.77 137.30 L 225.38 137.81 C 226.04 138.37 227.03 138.29 227.59 137.63 C 228.15 136.96 228.07 135.97 227.41 135.41 L 226.81 134.90 C 226.15 134.34 225.16 134.42 224.59 135.08 C 224.03 135.74 224.11 136.73 224.77 137.30 Z"
      fill="black"
      fill-rule="nonzero" /><path d="M 194.34 148.70 L 194.22 149.63 C 194.11 150.53 194.74 151.35 195.64 151.47 C 196.54 151.58 197.36 150.95 197.47 150.05 L 197.59 149.12 C 197.71 148.22 197.07 147.40 196.17 147.28 C 195.27 147.17 194.45 147.81 194.34 148.70 Z M 194.18 149.64 L 194.07 150.59 C 193.96 151.51 194.62 152.35 195.54 152.46 C 196.46 152.57 197.29 151.91 197.40 150.99 L 197.52 150.04 C 197.62 149.12 196.97 148.28 196.04 148.17 C 195.12 148.06 194.29 148.72 194.18 149.64 Z M 194.02 150.62 L 193.92 151.61 C 193.83 152.55 194.52 153.40 195.46 153.49 C 196.41 153.59 197.25 152.90 197.35 151.95 L 197.45 150.96 C 197.54 150.02 196.85 149.17 195.91 149.08 C 194.96 148.98 194.12 149.67 194.02 150.62 Z M 193.88 151.65 L 193.80 152.70 C 193.72 153.67 194.45 154.52 195.42 154.59 C 196.39 154.67 197.23 153.94 197.31 152.97 L 197.39 151.92 C 197.46 150.95 196.74 150.10 195.77 150.03 C 194.80 149.95 193.96 150.68 193.88 151.65 Z M 193.76 152.75 L 193.71 153.79 C 193.66 154.78 194.42 155.62 195.41 155.67 C 196.39 155.72 197.24 154.96 197.29 153.97 L 197.34 152.93 C 197.39 151.94 196.63 151.10 195.65 151.05 C 194.66 151.00 193.82 151.76 193.76 152.75 Z M 193.69 153.82 L 193.66 154.85 C 193.63 155.85 194.41 156.68 195.41 156.71 C 196.41 156.74 197.24 155.96 197.27 154.96 L 197.31 153.94 C 197.34 152.94 196.55 152.11 195.56 152.07 C 194.56 152.04 193.72 152.83 193.69 153.82 Z M 193.65 154.87 L 193.63 155.91 C 193.61 156.92 194.41 157.75 195.42 157.76 C 196.42 157.78 197.25 156.98 197.27 155.98 L 197.29 154.94 C 197.30 153.93 196.50 153.10 195.50 153.08 C 194.49 153.07 193.67 153.87 193.65 154.87 Z M 193.62 155.93 L 193.61 156.95 C 193.60 157.96 194.41 158.79 195.42 158.80 C 196.43 158.81 197.26 157.99 197.27 156.98 L 197.28 155.96 C 197.29 154.95 196.47 154.12 195.46 154.11 C 194.45 154.10 193.63 154.92 193.62 155.93 Z M 193.60 156.96 L 193.59 157.94 C 193.59 158.95 194.41 159.78 195.43 159.78 C 196.45 159.79 197.28 158.96 197.28 157.95 L 197.28 156.97 C 197.28 155.96 196.46 155.13 195.44 155.13 C 194.43 155.12 193.60 155.95 193.60 156.96 Z M 193.58 157.94 L 193.58 158.96 C 193.58 159.98 194.41 160.81 195.44 160.81 C 196.46 160.81 197.29 159.98 197.29 158.96 L 197.29 157.94 C 197.29 156.92 196.46 156.09 195.44 156.09 C 194.41 156.09 193.58 156.92 193.58 157.94 Z M 193.58 158.96 L 193.58 160.03 C 193.58 161.06 194.41 161.89 195.43 161.89 C 196.46 161.89 197.29 161.06 197.29 160.04 L 197.30 158.96 C 197.30 157.93 196.47 157.10 195.44 157.10 C 194.41 157.10 193.58 157.93 193.58 158.96 Z M 193.57 160.03 L 193.57 160.99 C 193.56 162.02 194.39 162.86 195.42 162.86 C 196.45 162.87 197.29 162.04 197.29 161.01 L 197.30 160.04 C 197.30 159.01 196.47 158.18 195.44 158.17 C 194.42 158.17 193.58 159.00 193.57 160.03 Z M 193.56 160.98 L 193.55 161.89 C 193.54 162.92 194.37 163.77 195.40 163.78 C 196.43 163.79 197.28 162.97 197.29 161.94 L 197.30 161.02 C 197.31 159.99 196.48 159.14 195.45 159.13 C 194.42 159.12 193.57 159.94 193.56 160.98 Z M 193.55 161.88 L 193.53 162.80 C 193.51 163.84 194.33 164.69 195.36 164.72 C 196.40 164.74 197.25 163.92 197.27 162.88 L 197.29 161.95 C 197.31 160.92 196.49 160.06 195.46 160.04 C 194.42 160.02 193.57 160.84 193.55 161.88 Z M 193.52 162.78 L 193.49 163.75 C 193.46 164.79 194.27 165.66 195.31 165.69 C 196.35 165.72 197.21 164.91 197.25 163.87 L 197.28 162.90 C 197.31 161.87 196.50 161.00 195.46 160.97 C 194.42 160.93 193.56 161.75 193.52 162.78 Z M 193.49 163.73 L 193.44 164.74 C 193.40 165.78 194.20 166.66 195.24 166.70 C 196.28 166.75 197.16 165.94 197.21 164.90 L 197.25 163.89 C 197.30 162.86 196.49 161.98 195.45 161.93 C 194.41 161.89 193.53 162.69 193.49 163.73 Z M 193.44 164.71 L 193.38 165.77 C 193.32 166.81 194.12 167.70 195.16 167.76 C 196.20 167.82 197.09 167.03 197.15 165.99 L 197.21 164.93 C 197.27 163.89 196.47 163.00 195.43 162.94 C 194.39 162.88 193.50 163.67 193.44 164.71 Z M 193.38 165.74 L 193.31 166.70 C 193.24 167.74 194.02 168.64 195.06 168.72 C 196.10 168.79 197.01 168.01 197.08 166.97 L 197.15 166.01 C 197.23 164.97 196.44 164.06 195.40 163.99 C 194.36 163.92 193.45 164.70 193.38 165.74 Z M 193.31 166.67 L 193.22 167.64 C 193.13 168.69 193.91 169.60 194.95 169.69 C 195.99 169.78 196.91 169.01 197.00 167.97 L 197.09 166.99 C 197.18 165.95 196.40 165.03 195.36 164.94 C 194.32 164.85 193.40 165.62 193.31 166.67 Z M 193.22 167.61 L 193.12 168.61 C 193.01 169.66 193.77 170.59 194.81 170.70 C 195.85 170.81 196.79 170.05 196.90 169.01 L 197.00 168.00 C 197.11 166.96 196.35 166.03 195.31 165.92 C 194.27 165.81 193.33 166.57 193.22 167.61 Z M 193.12 168.58 L 192.99 169.61 C 192.86 170.65 193.60 171.60 194.65 171.73 C 195.69 171.86 196.64 171.12 196.77 170.07 L 196.90 169.05 C 197.03 168.00 196.29 167.05 195.24 166.92 C 194.20 166.79 193.25 167.53 193.12 168.58 Z M 192.99 169.56 L 192.85 170.56 C 192.70 171.60 193.42 172.57 194.46 172.72 C 195.50 172.87 196.47 172.15 196.62 171.11 L 196.77 170.12 C 196.92 169.07 196.20 168.11 195.16 167.95 C 194.11 167.80 193.15 168.52 192.99 169.56 Z M 192.85 170.52 L 192.69 171.49 C 192.52 172.53 193.22 173.51 194.26 173.69 C 195.30 173.86 196.29 173.15 196.46 172.11 L 196.62 171.15 C 196.79 170.11 196.09 169.12 195.05 168.95 C 194.01 168.78 193.02 169.48 192.85 170.52 Z M 192.69 171.46 L 192.52 172.44 C 192.33 173.48 193.02 174.48 194.06 174.67 C 195.09 174.85 196.09 174.16 196.28 173.12 L 196.46 172.14 C 196.64 171.10 195.95 170.11 194.92 169.92 C 193.88 169.73 192.88 170.42 192.69 171.46 Z M 192.52 172.42 L 192.33 173.42 C 192.13 174.45 192.80 175.46 193.84 175.66 C 194.88 175.86 195.88 175.18 196.08 174.14 L 196.28 173.15 C 196.48 172.11 195.80 171.11 194.76 170.90 C 193.72 170.70 192.72 171.38 192.52 172.42 Z M 192.33 173.40 L 192.12 174.40 C 191.92 175.44 192.59 176.45 193.63 176.66 C 194.66 176.87 195.67 176.20 195.88 175.16 L 196.08 174.16 C 196.29 173.12 195.62 172.11 194.58 171.90 C 193.55 171.69 192.53 172.36 192.33 173.40 Z M 192.12 174.39 L 191.93 175.35 C 191.71 176.39 192.38 177.40 193.42 177.62 C 194.45 177.83 195.47 177.17 195.68 176.13 L 195.88 175.17 C 196.10 174.13 195.43 173.12 194.39 172.90 C 193.35 172.69 192.34 173.35 192.12 174.39 Z M 191.93 175.34 L 191.72 176.29 C 191.50 177.33 192.16 178.35 193.20 178.57 C 194.24 178.79 195.26 178.13 195.48 177.09 L 195.68 176.14 C 195.90 175.10 195.24 174.08 194.20 173.86 C 193.17 173.64 192.15 174.30 191.93 175.34 Z M 191.73 176.28 L 191.51 177.25 C 191.28 178.28 191.94 179.31 192.97 179.54 C 194.01 179.77 195.03 179.11 195.26 178.08 L 195.48 177.11 C 195.71 176.07 195.05 175.05 194.02 174.82 C 192.98 174.59 191.95 175.24 191.73 176.28 Z M 191.52 177.23 L 191.29 178.21 C 191.05 179.25 191.69 180.28 192.73 180.52 C 193.76 180.76 194.79 180.11 195.03 179.08 L 195.26 178.09 C 195.50 177.06 194.85 176.03 193.82 175.79 C 192.79 175.55 191.75 176.20 191.52 177.23 Z M 191.29 178.19 L 191.05 179.20 C 190.80 180.23 191.43 181.27 192.46 181.52 C 193.50 181.77 194.54 181.13 194.79 180.10 L 195.03 179.10 C 195.28 178.07 194.65 177.03 193.61 176.78 C 192.58 176.53 191.54 177.16 191.29 178.19 Z M 191.05 179.17 L 190.81 180.14 C 190.54 181.17 191.17 182.22 192.19 182.48 C 193.22 182.74 194.27 182.12 194.53 181.09 L 194.78 180.12 C 195.04 179.10 194.42 178.05 193.39 177.79 C 192.36 177.52 191.32 178.14 191.05 179.17 Z M 190.81 180.12 L 190.56 181.08 C 190.28 182.11 190.89 183.16 191.92 183.43 C 192.94 183.71 194.00 183.10 194.27 182.07 L 194.53 181.11 C 194.80 180.09 194.19 179.03 193.17 178.76 C 192.14 178.48 191.09 179.09 190.81 180.12 Z M 190.56 181.06 L 190.29 182.03 C 190.01 183.05 190.61 184.11 191.63 184.40 C 192.65 184.68 193.71 184.08 194.00 183.06 L 194.27 182.09 C 194.55 181.07 193.95 180.01 192.93 179.72 C 191.91 179.44 190.84 180.04 190.56 181.06 Z M 190.30 182.01 L 190.02 182.98 C 189.72 184.00 190.31 185.07 191.33 185.36 C 192.35 185.66 193.42 185.07 193.71 184.05 L 193.99 183.08 C 194.29 182.06 193.70 180.99 192.68 180.69 C 191.66 180.40 190.59 180.99 190.30 182.01 Z M 190.02 182.96 L 189.73 183.93 C 189.43 184.95 190.01 186.02 191.03 186.33 C 192.04 186.63 193.12 186.05 193.42 185.03 L 193.71 184.07 C 194.01 183.05 193.44 181.97 192.42 181.67 C 191.40 181.37 190.32 181.94 190.02 182.96 Z M 189.74 183.91 L 189.44 184.87 C 189.13 185.89 189.70 186.97 190.71 187.28 C 191.73 187.59 192.81 187.02 193.12 186.01 L 193.42 185.05 C 193.73 184.03 193.16 182.95 192.14 182.64 C 191.13 182.33 190.05 182.90 189.74 183.91 Z M 189.45 184.85 L 189.14 185.82 C 188.81 186.84 189.37 187.92 190.39 188.24 C 191.40 188.57 192.48 188.01 192.81 187.00 L 193.12 186.03 C 193.44 185.01 192.88 183.93 191.87 183.61 C 190.85 183.28 189.77 183.84 189.45 184.85 Z M 189.14 185.80 L 188.83 186.76 C 188.49 187.77 189.04 188.86 190.05 189.19 C 191.06 189.53 192.15 188.98 192.48 187.97 L 192.80 187.02 C 193.13 186.01 192.59 184.92 191.58 184.58 C 190.57 184.25 189.48 184.79 189.14 185.80 Z M 188.84 186.73 L 188.51 187.67 C 188.16 188.68 188.69 189.77 189.70 190.12 C 190.70 190.47 191.80 189.94 192.14 188.94 L 192.47 188.00 C 192.82 186.99 192.29 185.90 191.28 185.55 C 190.28 185.20 189.19 185.73 188.84 186.73 Z M 188.52 187.65 L 188.18 188.58 C 187.82 189.58 188.33 190.68 189.33 191.04 C 190.33 191.41 191.43 190.89 191.79 189.89 L 192.13 188.96 C 192.50 187.97 191.98 186.86 190.99 186.50 C 189.99 186.14 188.88 186.65 188.52 187.65 Z M 188.19 188.55 L 187.84 189.47 C 187.46 190.46 187.96 191.57 188.95 191.95 C 189.94 192.33 191.05 191.84 191.43 190.85 L 191.78 189.92 C 192.16 188.93 191.67 187.82 190.68 187.44 C 189.69 187.06 188.57 187.56 188.19 188.55 Z M 187.85 189.44 L 187.48 190.36 C 187.08 191.34 187.56 192.46 188.54 192.86 C 189.53 193.26 190.64 192.78 191.04 191.80 L 191.41 190.88 C 191.81 189.90 191.34 188.78 190.35 188.38 C 189.37 187.98 188.25 188.46 187.85 189.44 Z M 187.50 190.33 L 187.11 191.24 C 186.69 192.22 187.14 193.34 188.12 193.76 C 189.09 194.18 190.22 193.72 190.64 192.75 L 191.03 191.83 C 191.44 190.86 190.99 189.73 190.01 189.31 C 189.04 188.90 187.91 189.35 187.50 190.33 Z M 187.12 191.21 L 186.71 192.12 C 186.28 193.09 186.71 194.22 187.68 194.65 C 188.64 195.09 189.78 194.66 190.21 193.69 L 190.62 192.78 C 191.05 191.81 190.62 190.68 189.66 190.25 C 188.69 189.81 187.56 190.24 187.12 191.21 Z M 186.73 192.09 L 186.30 193.00 C 185.85 193.95 186.26 195.09 187.22 195.54 C 188.18 195.99 189.32 195.58 189.77 194.63 L 190.20 193.72 C 190.65 192.76 190.24 191.62 189.28 191.17 C 188.32 190.72 187.18 191.13 186.73 192.09 Z M 186.32 192.96 L 185.88 193.87 C 185.41 194.81 185.80 195.96 186.74 196.43 C 187.69 196.90 188.84 196.51 189.31 195.56 L 189.75 194.66 C 190.22 193.71 189.83 192.56 188.88 192.10 C 187.94 191.63 186.79 192.02 186.32 192.96 Z M 185.89 193.84 L 185.43 194.72 C 184.95 195.66 185.32 196.81 186.26 197.30 C 187.19 197.78 188.35 197.42 188.83 196.48 L 189.29 195.59 C 189.77 194.65 189.41 193.50 188.47 193.01 C 187.53 192.53 186.38 192.90 185.89 193.84 Z M 185.45 194.70 L 184.99 195.56 C 184.49 196.49 184.83 197.65 185.76 198.15 C 186.69 198.65 187.85 198.30 188.35 197.37 L 188.81 196.51 C 189.31 195.58 188.97 194.42 188.04 193.92 C 187.11 193.42 185.95 193.77 185.45 194.70 Z M 185.01 195.53 L 184.52 196.40 C 184.01 197.31 184.33 198.47 185.25 198.99 C 186.17 199.50 187.33 199.18 187.84 198.26 L 188.33 197.40 C 188.84 196.48 188.52 195.32 187.60 194.80 C 186.68 194.29 185.52 194.62 185.01 195.53 Z M 184.54 196.37 L 184.04 197.23 C 183.51 198.14 183.82 199.30 184.72 199.83 C 185.63 200.36 186.79 200.05 187.32 199.15 L 187.82 198.29 C 188.35 197.38 188.05 196.22 187.14 195.69 C 186.23 195.16 185.07 195.46 184.54 196.37 Z M 184.06 197.21 L 183.54 198.07 C 182.99 198.97 183.28 200.13 184.18 200.67 C 185.07 201.22 186.24 200.93 186.78 200.03 L 187.30 199.17 C 187.85 198.28 187.56 197.11 186.66 196.57 C 185.77 196.02 184.60 196.31 184.06 197.21 Z M 183.56 198.05 L 183.01 198.91 C 182.46 199.80 182.72 200.96 183.61 201.52 C 184.49 202.08 185.66 201.81 186.22 200.92 L 186.76 200.06 C 187.32 199.17 187.05 198.01 186.16 197.45 C 185.28 196.89 184.11 197.16 183.56 198.05 Z M 183.03 198.89 L 182.50 199.71 C 181.93 200.59 182.18 201.76 183.05 202.33 C 183.93 202.89 185.10 202.64 185.66 201.77 L 186.20 200.94 C 186.77 200.07 186.52 198.90 185.64 198.33 C 184.77 197.77 183.60 198.01 183.03 198.89 Z M 182.51 199.69 L 181.97 200.51 C 181.39 201.37 181.62 202.54 182.49 203.12 C 183.35 203.70 184.52 203.47 185.10 202.60 L 185.65 201.79 C 186.22 200.92 185.99 199.75 185.13 199.18 C 184.26 198.60 183.09 198.83 182.51 199.69 Z M 181.99 200.49 L 181.43 201.30 C 180.84 202.16 181.05 203.33 181.91 203.92 C 182.76 204.51 183.93 204.29 184.52 203.44 L 185.08 202.62 C 185.67 201.77 185.46 200.60 184.60 200.01 C 183.75 199.42 182.58 199.63 181.99 200.49 Z M 181.44 201.29 L 180.86 202.10 C 180.26 202.95 180.46 204.12 181.30 204.72 C 182.15 205.32 183.32 205.12 183.92 204.28 L 184.50 203.46 C 185.10 202.61 184.90 201.44 184.06 200.84 C 183.21 200.24 182.04 200.44 181.44 201.29 Z M 180.88 202.08 L 180.28 202.90 C 179.67 203.74 179.85 204.91 180.69 205.52 C 181.52 206.13 182.69 205.95 183.30 205.11 L 183.90 204.29 C 184.51 203.46 184.33 202.29 183.50 201.68 C 182.66 201.07 181.49 201.25 180.88 202.08 Z M 180.30 202.89 L 179.68 203.71 C 179.06 204.53 179.23 205.70 180.05 206.32 C 180.87 206.94 182.04 206.78 182.66 205.95 L 183.28 205.13 C 183.90 204.31 183.74 203.14 182.91 202.52 C 182.09 201.90 180.92 202.06 180.30 202.89 Z M 179.70 203.69 L 179.11 204.45 C 178.48 205.27 178.62 206.44 179.44 207.07 C 180.25 207.70 181.42 207.55 182.05 206.74 L 182.64 205.97 C 183.27 205.16 183.13 203.99 182.31 203.36 C 181.50 202.73 180.33 202.88 179.70 203.69 Z M 179.13 204.44 L 178.53 205.19 C 177.89 205.99 178.02 207.16 178.82 207.80 C 179.62 208.44 180.79 208.31 181.43 207.51 L 182.03 206.75 C 182.67 205.95 182.54 204.78 181.73 204.14 C 180.93 203.50 179.76 203.64 179.13 204.44 Z M 178.54 205.18 L 177.93 205.94 C 177.28 206.73 177.40 207.89 178.19 208.54 C 178.98 209.19 180.15 209.07 180.79 208.28 L 181.41 207.52 C 182.06 206.73 181.94 205.56 181.15 204.92 C 180.36 204.27 179.19 204.39 178.54 205.18 Z M 177.94 205.92 L 177.30 206.69 C 176.65 207.47 176.76 208.64 177.54 209.29 C 178.32 209.94 179.49 209.84 180.14 209.05 L 180.78 208.29 C 181.43 207.51 181.32 206.34 180.54 205.69 C 179.76 205.04 178.60 205.14 177.94 205.92 Z M 177.32 206.68 L 176.66 207.45 C 176.00 208.23 176.10 209.39 176.87 210.05 C 177.64 210.70 178.80 210.61 179.46 209.84 L 180.12 209.06 C 180.78 208.29 180.69 207.13 179.91 206.47 C 179.14 205.81 177.98 205.90 177.32 206.68 Z M 176.68 207.44 L 176.00 208.23 C 175.33 208.99 175.41 210.15 176.18 210.82 C 176.94 211.48 178.10 211.40 178.77 210.63 L 179.45 209.85 C 180.11 209.08 180.03 207.92 179.27 207.26 C 178.50 206.60 177.34 206.68 176.68 207.44 Z M 176.01 208.22 L 175.32 209.00 C 174.66 209.75 174.73 210.91 175.48 211.58 C 176.24 212.25 177.40 212.18 178.07 211.42 L 178.75 210.64 C 179.42 209.88 179.35 208.73 178.59 208.06 C 177.83 207.39 176.68 207.46 176.01 208.22 Z M 175.34 208.99 L 174.68 209.72 C 174.01 210.47 174.07 211.63 174.82 212.30 C 175.57 212.97 176.72 212.91 177.40 212.16 L 178.05 211.42 C 178.73 210.67 178.66 209.52 177.91 208.85 C 177.16 208.18 176.01 208.24 175.34 208.99 Z M 174.69 209.72 L 174.02 210.46 C 173.34 211.20 173.40 212.35 174.14 213.03 C 174.89 213.70 176.04 213.65 176.71 212.90 L 177.38 212.16 C 178.06 211.42 178.00 210.27 177.26 209.59 C 176.52 208.92 175.37 208.97 174.69 209.72 Z M 174.03 210.45 L 173.35 211.19 C 172.67 211.93 172.72 213.08 173.45 213.76 C 174.19 214.44 175.34 214.39 176.02 213.65 L 176.70 212.91 C 177.38 212.17 177.33 211.03 176.59 210.35 C 175.86 209.67 174.71 209.72 174.03 210.45 Z M 173.36 211.19 L 172.67 211.93 C 171.99 212.66 172.03 213.80 172.76 214.48 C 173.49 215.17 174.63 215.13 175.31 214.40 L 176.00 213.66 C 176.69 212.93 176.65 211.78 175.92 211.10 C 175.19 210.42 174.04 210.46 173.36 211.19 Z M 172.68 211.92 L 171.99 212.66 C 171.30 213.38 171.33 214.52 172.05 215.21 C 172.78 215.89 173.92 215.86 174.60 215.14 L 175.30 214.40 C 175.98 213.68 175.95 212.54 175.23 211.85 C 174.51 211.17 173.37 211.20 172.68 211.92 Z M 172.00 212.65 L 171.31 213.37 C 170.62 214.09 170.64 215.22 171.35 215.91 C 172.07 216.60 173.21 216.58 173.90 215.87 L 174.59 215.14 C 175.28 214.43 175.26 213.29 174.54 212.60 C 173.83 211.91 172.69 211.93 172.00 212.65 Z M 171.32 213.36 L 170.62 214.07 C 169.93 214.78 169.94 215.92 170.65 216.61 C 171.36 217.30 172.49 217.29 173.19 216.58 L 173.88 215.87 C 174.57 215.17 174.56 214.03 173.86 213.34 C 173.15 212.64 172.01 212.66 171.32 213.36 Z M 170.64 214.06 L 169.90 214.80 C 169.20 215.50 169.21 216.63 169.91 217.33 C 170.61 218.03 171.74 218.03 172.44 217.33 L 173.17 216.59 C 173.87 215.89 173.87 214.76 173.17 214.06 C 172.47 213.36 171.34 213.36 170.64 214.06 Z M 169.92 214.78 L 169.19 215.50 C 168.48 216.19 168.47 217.33 169.16 218.03 C 169.86 218.74 170.99 218.75 171.70 218.06 L 172.43 217.34 C 173.13 216.65 173.14 215.51 172.45 214.81 C 171.76 214.10 170.62 214.09 169.92 214.78 Z M 169.20 215.49 L 168.48 216.18 C 167.76 216.87 167.74 218.00 168.43 218.72 C 169.11 219.43 170.25 219.45 170.96 218.77 L 171.69 218.07 C 172.40 217.39 172.42 216.25 171.74 215.54 C 171.05 214.82 169.91 214.80 169.20 215.49 Z M 168.49 216.17 L 167.77 216.85 C 167.05 217.53 167.01 218.66 167.69 219.38 C 168.37 220.11 169.50 220.14 170.23 219.46 L 170.95 218.78 C 171.67 218.10 171.70 216.97 171.02 216.25 C 170.35 215.52 169.21 215.49 168.49 216.17 Z M 167.78 216.83 L 167.06 217.50 C 166.33 218.17 166.28 219.31 166.95 220.04 C 167.62 220.76 168.76 220.81 169.49 220.14 L 170.21 219.48 C 170.94 218.80 170.99 217.67 170.32 216.94 C 169.65 216.21 168.51 216.16 167.78 216.83 Z M 167.07 217.49 L 166.35 218.14 C 165.61 218.80 165.55 219.94 166.22 220.67 C 166.88 221.41 168.01 221.47 168.75 220.81 L 169.48 220.15 C 170.21 219.49 170.27 218.36 169.61 217.62 C 168.94 216.88 167.81 216.82 167.07 217.49 Z M 166.36 218.13 L 165.62 218.78 C 164.88 219.43 164.81 220.57 165.46 221.31 C 166.12 222.06 167.25 222.13 168.00 221.47 L 168.74 220.82 C 169.48 220.16 169.55 219.03 168.90 218.29 C 168.24 217.54 167.11 217.47 166.36 218.13 Z M 165.64 218.77 L 164.87 219.43 C 164.12 220.07 164.04 221.21 164.68 221.96 C 165.33 222.71 166.46 222.79 167.21 222.14 L 167.98 221.48 C 168.73 220.84 168.81 219.70 168.17 218.95 C 167.52 218.20 166.39 218.12 165.64 218.77 Z M 164.89 219.42 L 164.12 220.07 C 163.36 220.71 163.27 221.84 163.90 222.59 C 164.54 223.35 165.67 223.44 166.43 222.80 L 167.20 222.15 C 167.95 221.51 168.05 220.39 167.41 219.63 C 166.77 218.88 165.64 218.78 164.89 219.42 Z M 164.13 220.07 L 163.36 220.71 C 162.60 221.34 162.50 222.46 163.13 223.22 C 163.76 223.98 164.88 224.08 165.64 223.45 L 166.41 222.81 C 167.17 222.18 167.27 221.06 166.64 220.30 C 166.01 219.54 164.89 219.43 164.13 220.07 Z M 163.37 220.70 L 162.60 221.33 C 161.84 221.96 161.72 223.08 162.35 223.84 C 162.97 224.60 164.09 224.71 164.86 224.09 L 165.63 223.46 C 166.39 222.83 166.50 221.71 165.88 220.95 C 165.25 220.19 164.13 220.08 163.37 220.70 Z M 162.61 221.33 L 161.84 221.95 C 161.08 222.57 160.96 223.69 161.57 224.45 C 162.19 225.22 163.31 225.34 164.07 224.72 L 164.84 224.09 C 165.61 223.48 165.73 222.36 165.11 221.59 C 164.49 220.83 163.37 220.71 162.61 221.33 Z M 161.85 221.95 L 161.08 222.56 C 160.32 223.18 160.19 224.29 160.81 225.06 C 161.42 225.82 162.53 225.95 163.30 225.33 L 164.07 224.72 C 164.83 224.11 164.95 222.99 164.34 222.23 C 163.73 221.46 162.61 221.34 161.85 221.95 Z M 161.09 222.56 L 160.28 223.21 C 159.52 223.81 159.39 224.93 160.00 225.69 C 160.61 226.46 161.72 226.58 162.48 225.98 L 163.29 225.33 C 164.06 224.73 164.18 223.61 163.58 222.85 C 162.97 222.08 161.85 221.96 161.09 222.56 Z M 160.29 223.21 L 159.49 223.84 C 158.72 224.44 158.59 225.55 159.20 226.32 C 159.80 227.08 160.91 227.21 161.67 226.61 L 162.48 225.97 C 163.24 225.37 163.37 224.26 162.77 223.50 C 162.16 222.73 161.05 222.60 160.29 223.21 Z M 159.49 223.84 L 158.70 224.47 C 157.94 225.07 157.81 226.17 158.41 226.94 C 159.01 227.70 160.11 227.83 160.88 227.23 L 161.67 226.61 C 162.43 226.01 162.56 224.90 161.96 224.14 C 161.36 223.37 160.26 223.24 159.49 223.84 Z M 158.70 224.47 L 157.92 225.09 C 157.16 225.68 157.03 226.79 157.63 227.55 C 158.23 228.31 159.33 228.44 160.09 227.84 L 160.87 227.23 C 161.63 226.63 161.76 225.53 161.17 224.77 C 160.57 224.00 159.47 223.87 158.70 224.47 Z M 157.92 225.09 L 157.16 225.70 C 156.40 226.29 156.27 227.39 156.86 228.15 C 157.46 228.91 158.56 229.04 159.32 228.44 L 160.09 227.84 C 160.85 227.24 160.98 226.14 160.38 225.38 C 159.78 224.62 158.68 224.49 157.92 225.09 Z M 157.16 225.70 L 156.40 226.30 C 155.64 226.90 155.52 228.00 156.11 228.75 C 156.71 229.50 157.81 229.63 158.56 229.04 L 159.32 228.44 C 160.07 227.84 160.20 226.74 159.60 225.99 C 159.01 225.23 157.91 225.11 157.16 225.70 Z M 156.40 226.31 L 155.58 226.96 C 154.83 227.56 154.71 228.65 155.31 229.40 C 155.90 230.15 157.00 230.27 157.75 229.68 L 158.56 229.03 C 159.31 228.43 159.44 227.34 158.84 226.59 C 158.24 225.84 157.15 225.71 156.40 226.31 Z M 155.58 226.97 L 154.78 227.61 C 154.03 228.21 153.91 229.30 154.51 230.04 C 155.11 230.79 156.20 230.91 156.94 230.31 L 157.75 229.67 C 158.49 229.07 158.61 227.98 158.02 227.24 C 157.42 226.49 156.33 226.37 155.58 226.97 Z M 154.78 227.62 L 154.00 228.25 C 153.25 228.85 153.14 229.93 153.73 230.67 C 154.33 231.42 155.42 231.53 156.16 230.94 L 156.94 230.31 C 157.69 229.71 157.80 228.62 157.21 227.88 C 156.61 227.14 155.52 227.02 154.78 227.62 Z M 154.00 228.25 L 153.23 228.87 C 152.49 229.47 152.38 230.55 152.97 231.29 C 153.57 232.03 154.65 232.15 155.39 231.55 L 156.16 230.93 C 156.89 230.34 157.01 229.25 156.42 228.52 C 155.82 227.78 154.74 227.66 154.00 228.25 Z M 153.24 228.88 L 152.49 229.48 C 151.75 230.07 151.63 231.15 152.22 231.89 C 152.82 232.62 153.90 232.74 154.63 232.15 L 155.38 231.55 C 156.12 230.95 156.24 229.88 155.65 229.14 C 155.05 228.40 153.97 228.28 153.24 228.88 Z M 152.49 229.48 L 151.72 230.10 C 150.98 230.69 150.86 231.76 151.45 232.50 C 152.04 233.24 153.12 233.36 153.85 232.77 L 154.63 232.15 C 155.36 231.56 155.48 230.48 154.89 229.75 C 154.30 229.01 153.23 228.89 152.49 229.48 Z M 151.73 230.10 L 150.93 230.74 C 150.19 231.32 150.07 232.39 150.65 233.13 C 151.24 233.86 152.31 233.99 153.04 233.40 L 153.84 232.77 C 154.58 232.18 154.70 231.11 154.12 230.37 C 153.53 229.64 152.46 229.52 151.73 230.10 Z M 150.93 230.74 L 150.15 231.36 C 149.41 231.94 149.29 233.01 149.87 233.74 C 150.45 234.48 151.52 234.60 152.25 234.02 L 153.04 233.40 C 153.77 232.82 153.89 231.75 153.31 231.02 C 152.73 230.28 151.67 230.16 150.93 230.74 Z M 150.15 231.36 L 149.38 231.97 C 148.65 232.55 148.52 233.61 149.10 234.35 C 149.68 235.08 150.74 235.21 151.47 234.63 L 152.24 234.02 C 152.98 233.44 153.10 232.38 152.53 231.65 C 151.95 230.91 150.89 230.79 150.15 231.36 Z M 149.38 231.98 L 148.62 232.58 C 147.88 233.16 147.76 234.21 148.33 234.95 C 148.91 235.68 149.97 235.80 150.70 235.23 L 151.47 234.62 C 152.20 234.05 152.32 232.99 151.75 232.26 C 151.17 231.53 150.11 231.40 149.38 231.98 Z M 148.62 232.59 L 147.81 233.22 C 147.09 233.79 146.96 234.85 147.53 235.57 C 148.10 236.30 149.16 236.43 149.89 235.86 L 150.69 235.22 C 151.42 234.65 151.55 233.60 150.98 232.87 C 150.40 232.14 149.35 232.01 148.62 232.59 Z M 147.82 233.22 L 147.00 233.87 C 146.27 234.44 146.15 235.49 146.72 236.21 C 147.29 236.94 148.34 237.07 149.06 236.50 L 149.88 235.85 C 150.61 235.28 150.74 234.23 150.17 233.51 C 149.60 232.78 148.54 232.65 147.82 233.22 Z M 147.01 233.87 L 146.21 234.50 C 145.48 235.06 145.35 236.11 145.92 236.83 C 146.49 237.56 147.53 237.68 148.26 237.12 L 149.06 236.49 C 149.78 235.93 149.91 234.88 149.34 234.15 C 148.78 233.43 147.73 233.30 147.01 233.87 Z M 146.21 234.50 L 145.44 235.10 C 144.72 235.66 144.59 236.70 145.16 237.42 C 145.72 238.15 146.76 238.28 147.48 237.71 L 148.25 237.12 C 148.97 236.55 149.10 235.51 148.54 234.79 C 147.98 234.06 146.94 233.93 146.21 234.50 Z M 145.45 235.10 L 144.71 235.67 C 143.99 236.23 143.86 237.27 144.41 237.99 C 144.97 238.71 146.01 238.84 146.73 238.29 L 147.48 237.71 C 148.20 237.15 148.33 236.12 147.77 235.39 C 147.21 234.67 146.18 234.54 145.45 235.10 Z M 144.72 235.67 L 143.95 236.26 C 143.22 236.81 143.08 237.84 143.63 238.57 C 144.19 239.29 145.22 239.43 145.94 238.88 L 146.72 238.29 C 147.44 237.74 147.58 236.71 147.03 235.98 C 146.48 235.26 145.45 235.12 144.72 235.67 Z M 143.97 236.24 L 143.20 236.81 C 142.47 237.34 142.31 238.37 142.85 239.11 C 143.39 239.84 144.42 240.00 145.15 239.46 L 145.92 238.89 C 146.65 238.36 146.81 237.33 146.27 236.60 C 145.74 235.86 144.71 235.70 143.97 236.24 Z M 143.24 236.79 L 142.42 237.36 C 141.67 237.88 141.49 238.90 142.01 239.64 C 142.53 240.39 143.55 240.57 144.29 240.05 L 145.11 239.48 C 145.86 238.96 146.04 237.94 145.52 237.20 C 145.00 236.45 143.98 236.27 143.24 236.79 Z M 142.45 237.34 L 141.60 237.90 C 140.85 238.40 140.64 239.41 141.14 240.17 C 141.63 240.92 142.65 241.13 143.40 240.63 L 144.26 240.07 C 145.01 239.57 145.22 238.56 144.72 237.80 C 144.22 237.05 143.21 236.84 142.45 237.34 Z M 141.63 237.88 L 140.91 238.34 C 140.14 238.82 139.92 239.83 140.40 240.59 C 140.88 241.36 141.89 241.59 142.65 241.11 L 143.37 240.65 C 144.14 240.17 144.37 239.16 143.89 238.40 C 143.41 237.63 142.40 237.40 141.63 237.88 Z M 140.94 238.32 L 140.14 238.80 C 139.37 239.27 139.12 240.27 139.58 241.04 C 140.05 241.82 141.05 242.06 141.83 241.60 L 142.62 241.12 C 143.39 240.66 143.64 239.65 143.18 238.88 C 142.71 238.11 141.71 237.86 140.94 238.32 Z M 140.17 238.79 L 139.31 239.28 C 138.53 239.73 138.25 240.73 138.70 241.51 C 139.15 242.29 140.15 242.56 140.93 242.11 L 141.79 241.62 C 142.58 241.17 142.85 240.17 142.40 239.39 C 141.95 238.61 140.96 238.34 140.17 238.79 Z M 139.34 239.26 L 138.40 239.77 C 137.61 240.20 137.32 241.19 137.75 241.98 C 138.18 242.77 139.17 243.07 139.96 242.64 L 140.89 242.13 C 141.69 241.70 141.98 240.71 141.55 239.92 C 141.12 239.13 140.13 238.84 139.34 239.26 Z M 138.44 239.76 L 137.43 240.27 C 136.63 240.68 136.31 241.66 136.72 242.46 C 137.13 243.26 138.11 243.58 138.91 243.17 L 139.92 242.65 C 140.72 242.25 141.04 241.27 140.63 240.46 C 140.22 239.66 139.24 239.35 138.44 239.76 Z M 137.46 240.26 L 136.55 240.70 C 135.74 241.09 135.40 242.06 135.79 242.87 C 136.18 243.68 137.15 244.02 137.96 243.63 L 138.88 243.19 C 139.69 242.80 140.03 241.82 139.64 241.02 C 139.25 240.21 138.27 239.87 137.46 240.26 Z M 136.58 240.69 L 135.72 241.08 C 134.90 241.45 134.55 242.42 134.92 243.23 C 135.30 244.05 136.26 244.41 137.08 244.03 L 137.93 243.64 C 138.75 243.26 139.11 242.30 138.73 241.48 C 138.36 240.67 137.39 240.31 136.58 240.69 Z M 135.74 241.07 L 134.85 241.47 C 134.03 241.83 133.66 242.79 134.02 243.61 C 134.38 244.43 135.34 244.80 136.16 244.44 L 137.05 244.04 C 137.87 243.68 138.24 242.72 137.88 241.90 C 137.52 241.08 136.56 240.71 135.74 241.07 Z M 134.86 241.46 L 133.95 241.86 C 133.12 242.21 132.74 243.16 133.10 243.99 C 133.45 244.81 134.40 245.19 135.23 244.84 L 136.15 244.44 C 136.97 244.09 137.35 243.13 136.99 242.31 C 136.64 241.49 135.69 241.11 134.86 241.46 Z M 133.96 241.85 L 133.02 242.25 C 132.19 242.59 131.81 243.54 132.15 244.37 C 132.50 245.19 133.45 245.58 134.27 245.23 L 135.21 244.84 C 136.04 244.49 136.43 243.54 136.08 242.72 C 135.73 241.89 134.78 241.51 133.96 241.85 Z M 133.03 242.25 L 132.07 242.64 C 131.25 242.98 130.85 243.93 131.20 244.75 C 131.54 245.58 132.48 245.97 133.31 245.63 L 134.27 245.24 C 135.09 244.89 135.48 243.95 135.14 243.12 C 134.80 242.30 133.85 241.90 133.03 242.25 Z M 132.08 242.64 L 131.11 243.03 C 130.29 243.37 129.89 244.32 130.23 245.14 C 130.57 245.97 131.51 246.37 132.34 246.03 L 133.30 245.63 C 134.13 245.29 134.53 244.35 134.19 243.52 C 133.85 242.70 132.91 242.30 132.08 242.64 Z M 131.12 243.03 L 130.40 243.33 C 129.57 243.66 129.18 244.61 129.51 245.43 C 129.85 246.26 130.79 246.66 131.62 246.32 L 132.34 246.03 C 133.16 245.69 133.56 244.75 133.22 243.92 C 132.89 243.09 131.94 242.70 131.12 243.03 Z"
      fill="black"
      fill-rule="nonzero" /></svg>