<svg xmlns="http://www.w3.org/2000/svg" width="300" height="300" viewBox="0 0 300 300">
<path d="M 119.51 95.99 L 118.26 95.60 C 117.37 95.32 116.41 95.82 116.14 96.72 C 115.86 97.62 116.36 98.57 117.26 98.85 L 118.51 99.24 C 119.41 99.51 120.36 99.01 120.64 98.11 C 120.91 97.22 120.41 96.26 119.51 95.99 Z M 118.18 95.54 L 117.06 95.27 C 116.14 95.04 115.20 95.60 114.97 96.53 C 114.74 97.46 115.30 98.40 116.23 98.63 L 117.34 98.91 C 118.27 99.14 119.21 98.57 119.44 97.64 C 119.67 96.71 119.11 95.77 118.18 95.54 Z M 116.76 95.19 L 115.92 95.14 C 114.95 95.08 114.11 95.82 114.05 96.79 C 113.99 97.77 114.74 98.60 115.71 98.66 L 116.54 98.71 C 117.52 98.77 118.35 98.03 118.41 97.06 C 118.47 96.08 117.73 95.24 116.76 95.19 Z M 114.80 95.42 L 114.40 95.70 C 113.58 96.25 113.37 97.37 113.93 98.19 C 114.49 99.01 115.60 99.22 116.42 98.66 L 116.83 98.38 C 117.65 97.82 117.86 96.70 117.30 95.88 C 116.74 95.07 115.62 94.86 114.80 95.42 Z M 113.60 97.31 L 113.65 97.92 C 113.72 98.91 114.58 99.66 115.58 99.59 C 116.58 99.52 117.33 98.66 117.26 97.66 L 117.21 97.05 C 117.14 96.05 116.28 95.30 115.28 95.37 C 114.28 95.44 113.53 96.31 113.60 97.31 Z M 113.77 98.46 L 114.13 99.34 C 114.50 100.27 115.55 100.72 116.48 100.35 C 117.41 99.97 117.86 98.92 117.48 97.99 L 117.13 97.11 C 116.76 96.19 115.70 95.74 114.78 96.11 C 113.85 96.48 113.40 97.54 113.77 98.46 Z M 114.19 99.49 L 114.73 100.55 C 115.18 101.44 116.27 101.80 117.16 101.35 C 118.05 100.89 118.41 99.81 117.96 98.92 L 117.42 97.85 C 116.97 96.96 115.88 96.60 114.99 97.05 C 114.10 97.51 113.74 98.59 114.19 99.49 Z M 114.74 100.56 L 115.32 101.69 C 115.78 102.58 116.87 102.93 117.75 102.47 C 118.64 102.02 118.99 100.93 118.54 100.04 L 117.95 98.91 C 117.50 98.02 116.41 97.67 115.52 98.13 C 114.63 98.58 114.28 99.67 114.74 100.56 Z M 115.30 101.64 L 115.72 102.52 C 116.14 103.42 117.22 103.80 118.12 103.37 C 119.02 102.95 119.40 101.87 118.98 100.97 L 118.56 100.09 C 118.13 99.19 117.05 98.81 116.15 99.24 C 115.25 99.66 114.87 100.74 115.30 101.64 Z M 115.70 102.46 L 116.09 103.36 C 116.49 104.27 117.55 104.69 118.45 104.29 C 119.36 103.90 119.78 102.84 119.39 101.93 L 118.99 101.03 C 118.60 100.12 117.54 99.70 116.63 100.10 C 115.72 100.49 115.30 101.55 115.70 102.46 Z M 116.07 103.31 L 116.44 104.23 C 116.80 105.15 117.84 105.59 118.76 105.23 C 119.68 104.86 120.13 103.82 119.77 102.91 L 119.40 101.98 C 119.04 101.06 118.00 100.62 117.08 100.98 C 116.16 101.35 115.71 102.39 116.07 103.31 Z M 116.43 104.17 L 116.77 105.12 C 117.10 106.04 118.12 106.52 119.05 106.19 C 119.98 105.86 120.46 104.84 120.12 103.91 L 119.78 102.96 C 119.45 102.03 118.43 101.55 117.50 101.89 C 116.57 102.22 116.09 103.24 116.43 104.17 Z M 116.76 105.06 L 117.07 106.04 C 117.38 106.97 118.38 107.48 119.31 107.18 C 120.25 106.88 120.76 105.87 120.45 104.94 L 120.13 103.96 C 119.83 103.03 118.83 102.52 117.89 102.82 C 116.96 103.13 116.45 104.13 116.76 105.06 Z M 117.06 105.99 L 117.34 106.93 C 117.62 107.87 118.60 108.40 119.54 108.13 C 120.48 107.85 121.01 106.87 120.74 105.93 L 120.46 104.99 C 120.19 104.05 119.20 103.52 118.26 103.79 C 117.33 104.07 116.79 105.05 117.06 105.99 Z M 117.33 106.88 L 117.57 107.79 C 117.82 108.73 118.79 109.29 119.73 109.04 C 120.67 108.79 121.23 107.82 120.98 106.88 L 120.74 105.98 C 120.49 105.03 119.53 104.47 118.59 104.72 C 117.64 104.97 117.08 105.94 117.33 106.88 Z M 117.57 107.74 L 117.79 108.68 C 118.02 109.62 118.97 110.20 119.91 109.98 C 120.85 109.75 121.44 108.80 121.21 107.86 L 120.99 106.93 C 120.76 105.98 119.82 105.40 118.87 105.62 C 117.93 105.85 117.34 106.80 117.57 107.74 Z M 117.79 108.63 L 117.99 109.60 C 118.19 110.55 119.12 111.15 120.07 110.95 C 121.02 110.75 121.62 109.82 121.42 108.87 L 121.22 107.91 C 121.02 106.96 120.09 106.35 119.14 106.55 C 118.19 106.75 117.59 107.68 117.79 108.63 Z M 117.99 109.55 L 118.18 110.56 C 118.35 111.51 119.26 112.13 120.21 111.96 C 121.16 111.78 121.79 110.87 121.61 109.92 L 121.42 108.92 C 121.25 107.97 120.34 107.34 119.39 107.52 C 118.44 107.70 117.81 108.61 117.99 109.55 Z M 118.17 110.51 L 118.34 111.56 C 118.49 112.51 119.38 113.15 120.33 113.00 C 121.28 112.85 121.93 111.96 121.78 111.01 L 121.61 109.97 C 121.46 109.02 120.57 108.37 119.62 108.52 C 118.67 108.67 118.02 109.57 118.17 110.51 Z M 118.34 111.51 L 118.48 112.57 C 118.61 113.52 119.48 114.19 120.43 114.06 C 121.38 113.93 122.05 113.06 121.92 112.11 L 121.78 111.05 C 121.65 110.10 120.78 109.44 119.83 109.56 C 118.88 109.69 118.21 110.56 118.34 111.51 Z M 118.48 112.53 L 118.58 113.42 C 118.69 114.37 119.55 115.05 120.50 114.94 C 121.45 114.84 122.13 113.98 122.02 113.03 L 121.92 112.14 C 121.81 111.19 120.95 110.51 120.01 110.62 C 119.06 110.73 118.38 111.58 118.48 112.53 Z M 118.59 113.39 L 118.67 114.31 C 118.77 115.26 119.61 115.95 120.55 115.86 C 121.50 115.77 122.20 114.92 122.11 113.98 L 122.02 113.06 C 121.93 112.11 121.08 111.42 120.14 111.51 C 119.19 111.60 118.50 112.44 118.59 113.39 Z M 118.68 114.28 L 118.75 115.23 C 118.83 116.17 119.66 116.88 120.60 116.80 C 121.55 116.72 122.25 115.90 122.18 114.95 L 122.10 114.00 C 122.03 113.06 121.20 112.35 120.25 112.43 C 119.31 112.51 118.60 113.34 118.68 114.28 Z M 118.76 115.20 L 118.82 116.18 C 118.89 117.13 119.70 117.84 120.65 117.78 C 121.59 117.71 122.30 116.90 122.24 115.95 L 122.17 114.97 C 122.11 114.03 121.29 113.32 120.35 113.38 C 119.41 113.44 118.70 114.26 118.76 115.20 Z M 118.83 116.16 L 118.88 117.17 C 118.94 118.11 119.74 118.83 120.68 118.78 C 121.62 118.73 122.34 117.93 122.29 116.99 L 122.24 115.97 C 122.18 115.03 121.38 114.31 120.44 114.36 C 119.50 114.42 118.78 115.22 118.83 116.16 Z M 118.89 117.16 L 118.94 118.20 C 118.98 119.14 119.77 119.87 120.71 119.83 C 121.65 119.78 122.37 118.99 122.33 118.05 L 122.29 117.00 C 122.24 116.07 121.45 115.34 120.51 115.38 C 119.57 115.42 118.85 116.22 118.89 117.16 Z M 118.94 118.19 L 118.98 119.27 C 119.01 120.21 119.80 120.94 120.73 120.91 C 121.67 120.87 122.40 120.09 122.37 119.15 L 122.33 118.07 C 122.29 117.13 121.51 116.40 120.57 116.44 C 119.64 116.47 118.91 117.25 118.94 118.19 Z M 118.98 119.26 L 119.02 120.38 C 119.04 121.31 119.82 122.05 120.75 122.02 C 121.68 122.00 122.42 121.22 122.39 120.29 L 122.36 119.17 C 122.33 118.23 121.56 117.50 120.63 117.53 C 119.69 117.55 118.96 118.33 118.98 119.26 Z M 119.02 120.37 L 119.04 121.38 C 119.06 122.30 119.83 123.04 120.76 123.02 C 121.69 123.00 122.43 122.23 122.41 121.30 L 122.38 120.30 C 122.37 119.37 121.60 118.63 120.67 118.65 C 119.74 118.67 119.00 119.44 119.02 120.37 Z M 119.05 121.37 L 119.06 122.39 C 119.08 123.32 119.84 124.06 120.77 124.04 C 121.69 124.03 122.43 123.27 122.42 122.34 L 122.40 121.31 C 122.39 120.39 121.62 119.65 120.70 119.66 C 119.77 119.68 119.03 120.44 119.05 121.37 Z M 119.07 122.39 L 119.08 123.42 C 119.09 124.35 119.85 125.09 120.77 125.08 C 121.69 125.07 122.43 124.31 122.42 123.39 L 122.41 122.35 C 122.40 121.43 121.64 120.69 120.72 120.70 C 119.80 120.71 119.06 121.46 119.07 122.39 Z M 119.09 123.42 L 119.09 124.46 C 119.10 125.38 119.85 126.12 120.77 126.11 C 121.69 126.11 122.43 125.36 122.42 124.44 L 122.42 123.39 C 122.41 122.47 121.66 121.73 120.74 121.74 C 119.82 121.75 119.08 122.50 119.09 123.42 Z M 119.10 124.45 L 119.10 125.49 C 119.11 126.40 119.85 127.15 120.77 127.14 C 121.69 127.14 122.43 126.39 122.42 125.48 L 122.42 124.44 C 122.42 123.52 121.67 122.78 120.75 122.79 C 119.84 122.79 119.10 123.54 119.10 124.45 Z M 119.11 125.48 L 119.11 126.50 C 119.11 127.41 119.85 128.16 120.76 128.16 C 121.68 128.16 122.42 127.42 122.42 126.50 L 122.42 125.48 C 122.42 124.57 121.68 123.83 120.76 123.83 C 119.85 123.83 119.11 124.57 119.11 125.48 Z M 119.11 126.50 L 119.11 127.49 C 119.11 128.40 119.84 129.14 120.75 129.14 C 121.66 129.15 122.40 128.41 122.41 127.50 L 122.41 126.51 C 122.41 125.60 121.68 124.86 120.77 124.85 C 119.86 124.85 119.12 125.58 119.11 126.50 Z M 119.12 127.48 L 119.11 128.44 C 119.10 129.35 119.83 130.09 120.74 130.10 C 121.65 130.10 122.39 129.37 122.40 128.47 L 122.40 127.51 C 122.41 126.60 121.68 125.86 120.77 125.85 C 119.86 125.85 119.12 126.58 119.12 127.48 Z M 119.12 128.44 L 119.11 129.35 C 119.10 130.26 119.82 131.00 120.73 131.01 C 121.63 131.02 122.37 130.29 122.38 129.39 L 122.39 128.47 C 122.40 127.57 121.67 126.83 120.77 126.82 C 119.87 126.81 119.12 127.53 119.12 128.44 Z M 119.11 129.35 L 119.10 130.44 C 119.08 131.34 119.80 132.08 120.70 132.10 C 121.60 132.11 122.34 131.39 122.36 130.49 L 122.37 129.40 C 122.39 128.49 121.67 127.75 120.77 127.74 C 119.87 127.73 119.13 128.45 119.11 129.35 Z M 119.10 130.43 L 119.08 131.54 C 119.06 132.44 119.77 133.18 120.67 133.20 C 121.56 133.22 122.31 132.51 122.33 131.62 L 122.35 130.50 C 122.37 129.60 121.66 128.86 120.76 128.84 C 119.87 128.82 119.12 129.53 119.10 130.43 Z M 119.09 131.52 L 119.05 132.56 C 119.02 133.45 119.72 134.20 120.61 134.23 C 121.51 134.26 122.25 133.56 122.28 132.67 L 122.32 131.63 C 122.35 130.74 121.65 129.99 120.76 129.96 C 119.86 129.93 119.12 130.63 119.09 131.52 Z M 119.06 132.53 L 119.01 133.51 C 118.97 134.39 119.65 135.15 120.54 135.19 C 121.43 135.24 122.18 134.55 122.23 133.67 L 122.27 132.69 C 122.32 131.80 121.63 131.05 120.75 131.01 C 119.86 130.96 119.10 131.65 119.06 132.53 Z M 119.02 133.48 L 118.96 134.40 C 118.90 135.29 119.56 136.05 120.44 136.11 C 121.33 136.17 122.09 135.51 122.15 134.63 L 122.22 133.70 C 122.28 132.81 121.61 132.05 120.73 131.99 C 119.85 131.93 119.08 132.59 119.02 133.48 Z M 118.97 134.37 L 118.88 135.27 C 118.80 136.15 119.45 136.93 120.33 137.01 C 121.20 137.09 121.98 136.44 122.06 135.56 L 122.14 134.66 C 122.22 133.78 121.58 133.01 120.70 132.93 C 119.82 132.84 119.05 133.49 118.97 134.37 Z M 118.89 135.23 L 118.79 136.13 C 118.69 137.00 119.31 137.79 120.18 137.89 C 121.05 138.00 121.84 137.37 121.94 136.50 L 122.05 135.60 C 122.15 134.73 121.53 133.94 120.66 133.84 C 119.79 133.74 119.00 134.36 118.89 135.23 Z M 118.80 136.09 L 118.66 137.05 C 118.54 137.91 119.14 138.72 120.00 138.84 C 120.87 138.97 121.67 138.37 121.79 137.50 L 121.93 136.54 C 122.06 135.68 121.46 134.87 120.59 134.75 C 119.73 134.62 118.92 135.23 118.80 136.09 Z M 118.67 137.01 L 118.51 137.98 C 118.36 138.84 118.94 139.66 119.80 139.80 C 120.66 139.95 121.48 139.37 121.62 138.51 L 121.79 137.54 C 121.93 136.68 121.35 135.86 120.49 135.72 C 119.63 135.57 118.81 136.15 118.67 137.01 Z M 118.51 137.95 L 118.33 138.93 C 118.17 139.79 118.73 140.61 119.59 140.77 C 120.45 140.93 121.27 140.37 121.43 139.51 L 121.62 138.53 C 121.78 137.68 121.21 136.85 120.36 136.69 C 119.50 136.53 118.67 137.10 118.51 137.95 Z M 118.34 138.91 L 118.14 139.89 C 117.96 140.75 118.51 141.58 119.37 141.75 C 120.22 141.93 121.05 141.38 121.23 140.52 L 121.43 139.54 C 121.60 138.68 121.05 137.85 120.20 137.68 C 119.34 137.50 118.51 138.05 118.34 138.91 Z M 118.14 139.88 L 117.93 140.87 C 117.74 141.72 118.28 142.56 119.13 142.74 C 119.98 142.92 120.82 142.38 121.01 141.53 L 121.22 140.54 C 121.40 139.69 120.86 138.85 120.01 138.67 C 119.16 138.49 118.32 139.03 118.14 139.88 Z M 117.93 140.86 L 117.71 141.86 C 117.52 142.71 118.05 143.55 118.90 143.74 C 119.75 143.93 120.59 143.39 120.78 142.55 L 121.00 141.55 C 121.19 140.70 120.66 139.86 119.81 139.67 C 118.96 139.48 118.12 140.01 117.93 140.86 Z M 117.71 141.85 L 117.49 142.83 C 117.29 143.67 117.82 144.51 118.67 144.71 C 119.51 144.90 120.36 144.37 120.55 143.53 L 120.77 142.55 C 120.97 141.71 120.44 140.87 119.59 140.67 C 118.75 140.48 117.91 141.01 117.71 141.85 Z M 117.49 142.82 L 117.26 143.79 C 117.07 144.63 117.59 145.48 118.43 145.67 C 119.28 145.87 120.12 145.35 120.32 144.51 L 120.55 143.54 C 120.74 142.69 120.22 141.85 119.38 141.65 C 118.53 141.45 117.69 141.98 117.49 142.82 Z M 117.27 143.78 L 117.03 144.75 C 116.83 145.59 117.35 146.44 118.19 146.64 C 119.03 146.85 119.88 146.33 120.08 145.49 L 120.32 144.51 C 120.52 143.67 120.00 142.83 119.16 142.62 C 118.32 142.42 117.47 142.94 117.27 143.78 Z M 117.04 144.74 L 116.80 145.72 C 116.59 146.55 117.10 147.40 117.94 147.61 C 118.78 147.82 119.63 147.31 119.84 146.47 L 120.08 145.50 C 120.29 144.66 119.77 143.81 118.93 143.60 C 118.09 143.39 117.25 143.90 117.04 144.74 Z M 116.80 145.70 L 116.55 146.67 C 116.33 147.51 116.84 148.37 117.68 148.58 C 118.51 148.80 119.37 148.29 119.58 147.45 L 119.83 146.48 C 120.05 145.64 119.54 144.79 118.71 144.58 C 117.87 144.36 117.01 144.87 116.80 145.70 Z M 116.55 146.66 L 116.30 147.63 C 116.07 148.47 116.57 149.32 117.40 149.55 C 118.24 149.77 119.10 149.27 119.32 148.44 L 119.58 147.47 C 119.80 146.63 119.30 145.78 118.47 145.55 C 117.63 145.33 116.78 145.83 116.55 146.66 Z M 116.30 147.61 L 116.03 148.58 C 115.80 149.41 116.29 150.28 117.12 150.51 C 117.95 150.74 118.81 150.25 119.05 149.42 L 119.31 148.45 C 119.55 147.62 119.06 146.76 118.23 146.53 C 117.39 146.30 116.53 146.78 116.30 147.61 Z M 116.04 148.57 L 115.76 149.53 C 115.52 150.36 116.00 151.22 116.82 151.46 C 117.65 151.70 118.52 151.23 118.76 150.40 L 119.04 149.43 C 119.28 148.61 118.80 147.74 117.97 147.50 C 117.14 147.26 116.28 147.74 116.04 148.57 Z M 115.76 149.51 L 115.48 150.47 C 115.23 151.30 115.70 152.17 116.52 152.42 C 117.35 152.67 118.22 152.20 118.47 151.37 L 118.76 150.41 C 119.00 149.59 118.54 148.71 117.71 148.47 C 116.88 148.22 116.01 148.69 115.76 149.51 Z M 115.48 150.46 L 115.18 151.42 C 114.93 152.24 115.39 153.12 116.22 153.37 C 117.04 153.63 117.92 153.16 118.17 152.34 L 118.47 151.38 C 118.72 150.56 118.26 149.68 117.43 149.43 C 116.61 149.18 115.73 149.64 115.48 150.46 Z M 115.19 151.41 L 114.89 152.36 C 114.63 153.19 115.09 154.06 115.91 154.32 C 116.73 154.58 117.61 154.12 117.87 153.30 L 118.17 152.35 C 118.43 151.52 117.97 150.65 117.15 150.39 C 116.32 150.13 115.45 150.59 115.19 151.41 Z M 114.89 152.36 L 114.59 153.31 C 114.33 154.13 114.78 155.01 115.60 155.27 C 116.42 155.53 117.30 155.08 117.56 154.26 L 117.87 153.30 C 118.13 152.48 117.67 151.60 116.85 151.34 C 116.03 151.08 115.15 151.54 114.89 152.36 Z M 114.59 153.31 L 114.28 154.26 C 114.02 155.08 114.47 155.96 115.29 156.22 C 116.11 156.48 116.99 156.03 117.26 155.21 L 117.56 154.26 C 117.83 153.44 117.37 152.56 116.55 152.30 C 115.73 152.03 114.85 152.48 114.59 153.31 Z M 114.28 154.25 L 113.98 155.19 C 113.72 156.02 114.17 156.89 114.99 157.16 C 115.81 157.42 116.69 156.97 116.95 156.15 L 117.26 155.21 C 117.52 154.39 117.07 153.51 116.25 153.25 C 115.43 152.98 114.55 153.43 114.28 154.25 Z M 113.98 155.19 L 113.68 156.13 C 113.41 156.95 113.87 157.83 114.69 158.10 C 115.51 158.36 116.39 157.91 116.65 157.09 L 116.95 156.15 C 117.22 155.33 116.77 154.45 115.95 154.19 C 115.13 153.92 114.25 154.37 113.98 155.19 Z M 113.68 156.13 L 113.37 157.07 C 113.11 157.89 113.55 158.77 114.37 159.04 C 115.19 159.30 116.07 158.86 116.34 158.04 L 116.65 157.10 C 116.92 156.28 116.47 155.39 115.65 155.13 C 114.83 154.86 113.95 155.31 113.68 156.13 Z M 113.38 157.06 L 113.06 158.01 C 112.79 158.82 113.23 159.71 114.05 159.98 C 114.87 160.25 115.75 159.81 116.03 158.99 L 116.34 158.04 C 116.61 157.22 116.17 156.34 115.35 156.07 C 114.53 155.80 113.65 156.24 113.38 157.06 Z M 113.07 158.00 L 112.74 158.95 C 112.47 159.76 112.90 160.65 113.72 160.93 C 114.54 161.20 115.42 160.77 115.70 159.95 L 116.02 159.00 C 116.30 158.18 115.86 157.30 115.05 157.02 C 114.23 156.74 113.34 157.18 113.07 158.00 Z M 112.75 158.93 L 112.41 159.89 C 112.13 160.71 112.56 161.60 113.38 161.88 C 114.19 162.16 115.08 161.73 115.36 160.92 L 115.70 159.96 C 115.98 159.15 115.55 158.26 114.74 157.97 C 113.92 157.69 113.03 158.12 112.75 158.93 Z M 112.42 159.88 L 112.08 160.84 C 111.79 161.65 112.21 162.54 113.02 162.83 C 113.83 163.12 114.72 162.70 115.02 161.89 L 115.36 160.93 C 115.65 160.12 115.23 159.23 114.42 158.94 C 113.60 158.65 112.71 159.07 112.42 159.88 Z M 112.08 160.82 L 111.74 161.74 C 111.44 162.55 111.86 163.45 112.67 163.74 C 113.47 164.04 114.37 163.63 114.67 162.82 L 115.01 161.90 C 115.31 161.09 114.90 160.20 114.09 159.90 C 113.28 159.60 112.38 160.01 112.08 160.82 Z M 111.75 161.73 L 111.40 162.65 C 111.09 163.46 111.50 164.36 112.30 164.66 C 113.11 164.97 114.01 164.56 114.32 163.76 L 114.67 162.83 C 114.97 162.03 114.57 161.12 113.76 160.82 C 112.95 160.51 112.05 160.92 111.75 161.73 Z M 111.40 162.64 L 111.04 163.57 C 110.73 164.38 111.13 165.28 111.94 165.59 C 112.74 165.90 113.64 165.50 113.95 164.70 L 114.31 163.77 C 114.62 162.96 114.22 162.06 113.42 161.75 C 112.61 161.44 111.71 161.84 111.40 162.64 Z M 111.04 163.57 L 110.68 164.50 C 110.36 165.30 110.76 166.21 111.56 166.52 C 112.36 166.84 113.27 166.44 113.58 165.64 L 113.95 164.70 C 114.27 163.90 113.87 163.00 113.07 162.68 C 112.26 162.37 111.36 162.76 111.04 163.57 Z M 110.68 164.50 L 110.31 165.44 C 109.99 166.24 110.38 167.14 111.18 167.46 C 111.99 167.78 112.89 167.39 113.21 166.58 L 113.58 165.65 C 113.90 164.84 113.51 163.94 112.71 163.62 C 111.90 163.30 111.00 163.69 110.68 164.50 Z M 110.31 165.43 L 109.93 166.37 C 109.61 167.17 110.01 168.08 110.81 168.40 C 111.61 168.72 112.51 168.33 112.83 167.53 L 113.21 166.59 C 113.53 165.79 113.14 164.88 112.34 164.56 C 111.54 164.24 110.63 164.63 110.31 165.43 Z M 109.93 166.37 L 109.63 167.15 C 109.31 167.95 109.69 168.85 110.49 169.17 C 111.30 169.50 112.20 169.11 112.52 168.31 L 112.83 167.53 C 113.15 166.73 112.76 165.82 111.96 165.50 C 111.16 165.18 110.25 165.57 109.93 166.37 Z"
      fill="black"
      fill-rule="nonzero" /><path d="M 87.51 206.46 L 86.22 206.59 C 85.21 206.70 84.47 207.61 84.58 208.62 C 84.68 209.64 85.59 210.37 86.60 210.27 L 87.90 210.13 C 88.91 210.03 89.65 209.12 89.54 208.10 C 89.43 207.09 88.53 206.35 87.51 206.46 Z M 86.30 206.56 L 85.12 206.63 C 84.08 206.69 83.30 207.58 83.36 208.61 C 83.42 209.65 84.31 210.43 85.34 210.37 L 86.53 210.30 C 87.56 210.24 88.34 209.35 88.28 208.32 C 88.22 207.28 87.33 206.50 86.30 206.56 Z M 85.34 206.61 L 84.37 206.55 C 83.32 206.49 82.42 207.29 82.36 208.34 C 82.31 209.39 83.11 210.28 84.15 210.34 L 85.12 210.40 C 86.17 210.46 87.07 209.66 87.13 208.61 C 87.18 207.56 86.38 206.66 85.34 206.61 Z M 84.95 206.65 L 84.30 206.40 C 83.31 206.02 82.20 206.52 81.82 207.52 C 81.44 208.51 81.94 209.62 82.93 210.00 L 83.58 210.25 C 84.57 210.62 85.68 210.13 86.06 209.13 C 86.44 208.14 85.94 207.02 84.95 206.65 Z M 85.38 207.37 L 85.16 206.91 C 84.71 205.94 83.55 205.52 82.57 205.98 C 81.60 206.44 81.18 207.60 81.64 208.57 L 81.86 209.03 C 82.31 210.00 83.47 210.42 84.45 209.96 C 85.42 209.51 85.84 208.35 85.38 207.37 Z M 85.30 208.22 L 85.45 207.59 C 85.72 206.54 85.08 205.48 84.03 205.22 C 82.98 204.96 81.92 205.60 81.66 206.64 L 81.50 207.27 C 81.24 208.32 81.88 209.38 82.93 209.64 C 83.98 209.90 85.04 209.26 85.30 208.22 Z M 85.25 208.09 L 85.70 207.32 C 86.23 206.38 85.91 205.18 84.97 204.65 C 84.04 204.11 82.84 204.43 82.30 205.37 L 81.86 206.14 C 81.32 207.08 81.65 208.28 82.58 208.81 C 83.52 209.35 84.72 209.03 85.25 208.09 Z M 85.55 207.54 L 86.22 206.66 C 86.88 205.81 86.73 204.58 85.87 203.92 C 85.01 203.26 83.79 203.42 83.13 204.27 L 82.45 205.15 C 81.79 206.00 81.95 207.23 82.81 207.89 C 83.66 208.55 84.89 208.39 85.55 207.54 Z M 86.12 206.79 L 86.97 205.86 C 87.70 205.07 87.64 203.83 86.85 203.10 C 86.05 202.37 84.81 202.42 84.08 203.22 L 83.23 204.15 C 82.50 204.94 82.56 206.18 83.35 206.91 C 84.15 207.64 85.39 207.59 86.12 206.79 Z M 86.89 205.95 L 87.80 205.07 C 88.57 204.31 88.59 203.07 87.84 202.30 C 87.09 201.52 85.85 201.50 85.07 202.25 L 84.16 203.14 C 83.38 203.89 83.37 205.13 84.12 205.90 C 84.87 206.68 86.11 206.70 86.89 205.95 Z M 87.73 205.12 L 88.50 204.44 C 89.31 203.73 89.38 202.49 88.66 201.68 C 87.95 200.87 86.71 200.80 85.90 201.52 L 85.14 202.20 C 84.33 202.91 84.25 204.15 84.97 204.96 C 85.69 205.77 86.92 205.84 87.73 205.12 Z M 88.45 204.48 L 89.24 203.82 C 90.07 203.13 90.18 201.90 89.49 201.07 C 88.80 200.24 87.57 200.13 86.74 200.82 L 85.95 201.48 C 85.12 202.17 85.01 203.40 85.70 204.23 C 86.39 205.06 87.62 205.17 88.45 204.48 Z M 89.20 203.85 L 90.01 203.21 C 90.85 202.55 91.00 201.32 90.33 200.48 C 89.66 199.63 88.44 199.49 87.59 200.15 L 86.78 200.79 C 85.94 201.46 85.80 202.68 86.46 203.53 C 87.13 204.37 88.35 204.52 89.20 203.85 Z M 89.97 203.24 L 90.78 202.62 C 91.64 201.98 91.81 200.76 91.16 199.90 C 90.51 199.04 89.29 198.87 88.44 199.52 L 87.63 200.13 C 86.77 200.78 86.60 202.00 87.25 202.86 C 87.90 203.71 89.12 203.88 89.97 203.24 Z M 90.76 202.64 L 91.56 202.05 C 92.42 201.42 92.61 200.20 91.98 199.34 C 91.35 198.47 90.13 198.28 89.27 198.92 L 88.46 199.50 C 87.60 200.14 87.41 201.35 88.04 202.22 C 88.68 203.08 89.89 203.27 90.76 202.64 Z M 91.54 202.06 L 92.32 201.50 C 93.19 200.88 93.39 199.67 92.77 198.80 C 92.15 197.93 90.94 197.73 90.07 198.35 L 89.29 198.91 C 88.42 199.53 88.21 200.74 88.83 201.61 C 89.46 202.48 90.67 202.68 91.54 202.06 Z M 92.31 201.51 L 93.10 200.95 C 93.98 200.33 94.18 199.13 93.57 198.25 C 92.96 197.38 91.75 197.17 90.88 197.79 L 90.08 198.35 C 89.21 198.96 89.00 200.17 89.61 201.04 C 90.23 201.91 91.43 202.12 92.31 201.51 Z M 93.09 200.95 L 93.99 200.32 C 94.86 199.71 95.07 198.51 94.47 197.64 C 93.86 196.77 92.66 196.55 91.79 197.16 L 90.89 197.79 C 90.02 198.40 89.80 199.60 90.41 200.47 C 91.02 201.34 92.22 201.55 93.09 200.95 Z M 93.97 200.32 L 94.82 199.73 C 95.69 199.13 95.91 197.94 95.31 197.07 C 94.71 196.20 93.52 195.98 92.65 196.58 L 91.80 197.17 C 90.93 197.77 90.71 198.96 91.31 199.83 C 91.91 200.70 93.10 200.92 93.97 200.32 Z M 94.80 199.73 L 95.62 199.18 C 96.49 198.59 96.71 197.40 96.12 196.53 C 95.53 195.67 94.35 195.44 93.48 196.03 L 92.67 196.58 C 91.80 197.17 91.57 198.36 92.16 199.22 C 92.75 200.09 93.94 200.32 94.80 199.73 Z M 95.60 199.18 L 96.39 198.65 C 97.26 198.07 97.49 196.90 96.91 196.03 C 96.33 195.16 95.16 194.92 94.29 195.50 L 93.50 196.03 C 92.63 196.61 92.40 197.78 92.98 198.65 C 93.55 199.52 94.73 199.76 95.60 199.18 Z M 96.37 198.65 L 97.15 198.14 C 98.01 197.57 98.26 196.41 97.69 195.54 C 97.12 194.67 95.96 194.43 95.09 194.99 L 94.31 195.50 C 93.44 196.07 93.20 197.23 93.76 198.10 C 94.33 198.97 95.50 199.22 96.37 198.65 Z M 97.12 198.14 L 97.93 197.63 C 98.80 197.07 99.06 195.92 98.51 195.05 C 97.95 194.18 96.80 193.92 95.92 194.47 L 95.11 194.99 C 94.24 195.55 93.99 196.70 94.54 197.57 C 95.10 198.44 96.25 198.70 97.12 198.14 Z M 97.91 197.63 L 98.74 197.11 C 99.62 196.57 99.88 195.42 99.34 194.55 C 98.80 193.68 97.65 193.41 96.78 193.95 L 95.95 194.47 C 95.07 195.02 94.81 196.16 95.35 197.03 C 95.89 197.91 97.04 198.17 97.91 197.63 Z M 98.72 197.11 L 99.57 196.60 C 100.44 196.06 100.72 194.93 100.19 194.05 C 99.65 193.18 98.52 192.91 97.64 193.44 L 96.80 193.95 C 95.93 194.48 95.65 195.62 96.18 196.50 C 96.71 197.37 97.85 197.64 98.72 197.11 Z M 99.55 196.60 L 100.41 196.08 C 101.29 195.56 101.57 194.43 101.05 193.56 C 100.53 192.68 99.40 192.40 98.52 192.92 L 97.66 193.44 C 96.79 193.96 96.50 195.09 97.03 195.96 C 97.55 196.83 98.68 197.12 99.55 196.60 Z M 100.40 196.08 L 101.28 195.56 C 102.15 195.05 102.44 193.92 101.93 193.05 C 101.41 192.18 100.29 191.89 99.42 192.40 L 98.54 192.92 C 97.67 193.44 97.38 194.56 97.89 195.43 C 98.40 196.30 99.53 196.59 100.40 196.08 Z M 101.27 195.56 L 102.13 195.06 C 103.00 194.55 103.29 193.43 102.79 192.56 C 102.28 191.69 101.16 191.40 100.29 191.91 L 99.43 192.41 C 98.56 192.91 98.27 194.03 98.77 194.90 C 99.28 195.77 100.40 196.06 101.27 195.56 Z M 102.12 195.05 L 102.95 194.57 C 103.82 194.07 104.12 192.96 103.62 192.09 C 103.12 191.23 102.01 190.93 101.14 191.43 L 100.30 191.91 C 99.44 192.41 99.14 193.52 99.64 194.39 C 100.14 195.25 101.25 195.55 102.12 195.05 Z M 102.94 194.56 L 103.80 194.08 C 104.66 193.58 104.96 192.48 104.46 191.61 C 103.97 190.75 102.86 190.45 102.00 190.95 L 101.15 191.44 C 100.28 191.93 99.98 193.03 100.48 193.90 C 100.98 194.76 102.08 195.06 102.94 194.56 Z M 103.79 194.07 L 104.66 193.57 C 105.52 193.08 105.82 191.98 105.32 191.12 C 104.83 190.26 103.73 189.96 102.87 190.45 L 102.00 190.95 C 101.14 191.45 100.85 192.54 101.34 193.40 C 101.83 194.26 102.93 194.56 103.79 194.07 Z M 104.66 193.56 L 105.54 193.05 C 106.40 192.56 106.69 191.47 106.20 190.61 C 105.71 189.76 104.61 189.46 103.76 189.95 L 102.87 190.46 C 102.02 190.96 101.73 192.05 102.22 192.90 C 102.71 193.76 103.80 194.05 104.66 193.56 Z M 105.54 193.04 L 106.44 192.52 C 107.29 192.03 107.58 190.94 107.09 190.09 C 106.60 189.24 105.51 188.95 104.66 189.44 L 103.76 189.96 C 102.91 190.46 102.62 191.54 103.11 192.39 C 103.60 193.24 104.69 193.53 105.54 193.04 Z M 106.44 192.51 L 107.30 192.01 C 108.14 191.51 108.43 190.43 107.94 189.59 C 107.44 188.74 106.36 188.46 105.52 188.95 L 104.66 189.46 C 103.81 189.95 103.53 191.03 104.02 191.87 C 104.52 192.72 105.60 193.00 106.44 192.51 Z M 107.30 191.99 L 108.15 191.50 C 108.98 191.01 109.26 189.93 108.77 189.09 C 108.28 188.25 107.20 187.98 106.36 188.47 L 105.52 188.96 C 104.68 189.46 104.40 190.53 104.89 191.37 C 105.39 192.21 106.46 192.49 107.30 191.99 Z M 108.14 191.49 L 109.00 190.98 C 109.83 190.49 110.10 189.42 109.61 188.59 C 109.12 187.76 108.05 187.48 107.22 187.97 L 106.36 188.48 C 105.53 188.97 105.26 190.04 105.75 190.87 C 106.24 191.70 107.31 191.98 108.14 191.49 Z M 108.99 190.97 L 109.86 190.46 C 110.68 189.97 110.95 188.91 110.47 188.08 C 109.98 187.25 108.91 186.98 108.08 187.47 L 107.22 187.98 C 106.40 188.47 106.12 189.54 106.61 190.36 C 107.10 191.19 108.17 191.46 108.99 190.97 Z M 109.85 190.45 L 110.72 189.94 C 111.54 189.45 111.81 188.39 111.33 187.57 C 110.84 186.75 109.78 186.48 108.96 186.96 L 108.09 187.48 C 107.27 187.97 107.00 189.03 107.48 189.85 C 107.97 190.67 109.03 190.94 109.85 190.45 Z M 110.72 189.93 L 111.59 189.41 C 112.41 188.93 112.68 187.87 112.20 187.06 C 111.71 186.24 110.66 185.97 109.84 186.45 L 108.96 186.97 C 108.15 187.45 107.88 188.51 108.36 189.33 C 108.84 190.14 109.90 190.41 110.72 189.93 Z M 111.58 189.40 L 112.46 188.89 C 113.27 188.41 113.54 187.36 113.06 186.55 C 112.58 185.74 111.54 185.47 110.72 185.95 L 109.85 186.46 C 109.04 186.94 108.77 187.99 109.24 188.80 C 109.72 189.61 110.77 189.88 111.58 189.40 Z M 112.45 188.89 L 113.30 188.39 C 114.11 187.91 114.38 186.87 113.91 186.06 C 113.44 185.25 112.39 184.98 111.58 185.45 L 110.73 185.95 C 109.92 186.43 109.65 187.47 110.12 188.28 C 110.60 189.09 111.64 189.36 112.45 188.89 Z M 113.29 188.38 L 114.15 187.88 C 114.96 187.41 115.23 186.38 114.76 185.57 C 114.29 184.76 113.26 184.49 112.45 184.96 L 111.59 185.46 C 110.79 185.93 110.51 186.96 110.98 187.77 C 111.45 188.58 112.49 188.85 113.29 188.38 Z M 114.14 187.87 L 115.01 187.37 C 115.81 186.91 116.09 185.88 115.62 185.08 C 115.16 184.27 114.13 184.00 113.32 184.46 L 112.46 184.96 C 111.66 185.43 111.38 186.46 111.85 187.26 C 112.31 188.07 113.34 188.34 114.14 187.87 Z M 115.00 187.37 L 115.87 186.87 C 116.67 186.41 116.94 185.39 116.48 184.59 C 116.02 183.78 115.00 183.51 114.20 183.97 L 113.33 184.47 C 112.53 184.93 112.25 185.95 112.72 186.75 C 113.18 187.55 114.20 187.83 115.00 187.37 Z M 115.86 186.86 L 116.73 186.36 C 117.53 185.91 117.81 184.89 117.35 184.09 C 116.90 183.30 115.88 183.02 115.08 183.48 L 114.21 183.97 C 113.41 184.43 113.13 185.45 113.59 186.25 C 114.05 187.04 115.06 187.32 115.86 186.86 Z M 116.73 186.36 L 117.60 185.86 C 118.40 185.41 118.68 184.40 118.22 183.60 C 117.77 182.81 116.76 182.53 115.97 182.98 L 115.09 183.48 C 114.30 183.93 114.02 184.94 114.47 185.74 C 114.92 186.53 115.93 186.81 116.73 186.36 Z M 117.60 185.85 L 118.46 185.37 C 119.25 184.92 119.53 183.91 119.08 183.12 C 118.63 182.33 117.63 182.05 116.84 182.50 L 115.98 182.99 C 115.18 183.43 114.91 184.44 115.35 185.23 C 115.80 186.02 116.81 186.30 117.60 185.85 Z M 118.45 185.36 L 119.30 184.88 C 120.09 184.44 120.37 183.44 119.93 182.65 C 119.48 181.86 118.48 181.58 117.69 182.02 L 116.84 182.51 C 116.05 182.95 115.77 183.95 116.22 184.74 C 116.66 185.53 117.66 185.81 118.45 185.36 Z M 119.30 184.87 L 120.16 184.39 C 120.94 183.95 121.22 182.95 120.78 182.17 C 120.34 181.38 119.34 181.10 118.56 181.55 L 117.70 182.03 C 116.91 182.47 116.63 183.47 117.08 184.25 C 117.52 185.04 118.52 185.32 119.30 184.87 Z M 120.16 184.38 L 121.02 183.89 C 121.80 183.45 122.08 182.46 121.64 181.68 C 121.20 180.90 120.20 180.62 119.42 181.06 L 118.56 181.55 C 117.78 182.00 117.50 182.99 117.94 183.77 C 118.39 184.55 119.38 184.82 120.16 184.38 Z M 121.02 183.88 L 121.90 183.39 C 122.67 182.94 122.94 181.96 122.50 181.18 C 122.06 180.40 121.07 180.13 120.29 180.58 L 119.42 181.07 C 118.65 181.52 118.37 182.50 118.82 183.28 C 119.26 184.06 120.25 184.33 121.02 183.88 Z M 121.90 183.38 L 122.78 182.87 C 123.55 182.43 123.82 181.44 123.37 180.67 C 122.93 179.90 121.94 179.63 121.17 180.08 L 120.29 180.58 C 119.52 181.03 119.26 182.01 119.70 182.78 C 120.14 183.56 121.13 183.82 121.90 183.38 Z M 122.78 182.86 L 123.67 182.34 C 124.44 181.90 124.70 180.91 124.25 180.15 C 123.80 179.38 122.82 179.12 122.06 179.57 L 121.17 180.09 C 120.40 180.53 120.14 181.52 120.59 182.28 C 121.04 183.05 122.02 183.31 122.78 182.86 Z M 123.68 182.33 L 124.55 181.82 C 125.31 181.37 125.56 180.39 125.11 179.63 C 124.66 178.87 123.68 178.62 122.92 179.07 L 122.05 179.58 C 121.29 180.03 121.04 181.01 121.49 181.77 C 121.94 182.53 122.92 182.78 123.68 182.33 Z M 124.55 181.81 L 125.42 181.29 C 126.17 180.84 126.42 179.86 125.97 179.10 C 125.51 178.35 124.53 178.10 123.78 178.56 L 122.91 179.08 C 122.16 179.53 121.91 180.51 122.37 181.26 C 122.82 182.02 123.80 182.26 124.55 181.81 Z M 125.42 181.28 L 126.29 180.76 C 127.04 180.30 127.28 179.32 126.83 178.57 C 126.37 177.82 125.39 177.58 124.64 178.04 L 123.78 178.56 C 123.02 179.02 122.78 180.00 123.24 180.75 C 123.70 181.50 124.67 181.74 125.42 181.28 Z M 126.29 180.75 L 127.16 180.22 C 127.90 179.76 128.14 178.79 127.68 178.04 C 127.23 177.29 126.25 177.06 125.50 177.52 L 124.64 178.05 C 123.89 178.50 123.66 179.48 124.11 180.22 C 124.57 180.97 125.55 181.21 126.29 180.75 Z M 127.16 180.21 L 128.02 179.69 C 128.76 179.23 128.99 178.25 128.53 177.51 C 128.07 176.77 127.10 176.54 126.36 176.99 L 125.50 177.52 C 124.76 177.98 124.53 178.95 124.98 179.70 C 125.44 180.44 126.42 180.67 127.16 180.21 Z M 128.02 179.68 L 128.86 179.16 C 129.60 178.70 129.83 177.73 129.37 176.99 C 128.91 176.25 127.94 176.02 127.20 176.48 L 126.36 177.00 C 125.62 177.46 125.39 178.43 125.85 179.17 C 126.30 179.91 127.28 180.14 128.02 179.68 Z M 128.86 179.15 L 129.69 178.64 C 130.43 178.18 130.66 177.21 130.20 176.47 C 129.74 175.73 128.77 175.51 128.03 175.97 L 127.20 176.48 C 126.46 176.94 126.24 177.91 126.70 178.65 C 127.16 179.38 128.12 179.61 128.86 179.15 Z M 129.69 178.63 L 130.56 178.09 C 131.30 177.63 131.52 176.67 131.06 175.93 C 130.61 175.19 129.64 174.97 128.90 175.43 L 128.03 175.97 C 127.30 176.43 127.07 177.40 127.53 178.13 C 127.99 178.87 128.96 179.09 129.69 178.63 Z M 130.56 178.09 L 131.45 177.54 C 132.18 177.08 132.41 176.11 131.95 175.38 C 131.49 174.64 130.52 174.42 129.79 174.88 L 128.90 175.43 C 128.17 175.89 127.94 176.85 128.40 177.59 C 128.86 178.32 129.83 178.55 130.56 178.09 Z M 131.45 177.53 L 132.31 176.99 C 133.05 176.53 133.27 175.57 132.81 174.83 C 132.35 174.10 131.38 173.88 130.65 174.34 L 129.79 174.88 C 129.05 175.34 128.83 176.31 129.29 177.04 C 129.75 177.77 130.72 177.99 131.45 177.53 Z M 132.32 176.99 L 133.16 176.46 C 133.89 176.00 134.11 175.03 133.65 174.30 C 133.19 173.57 132.22 173.35 131.49 173.81 L 130.65 174.34 C 129.91 174.80 129.70 175.77 130.16 176.50 C 130.62 177.23 131.58 177.45 132.32 176.99 Z M 133.16 176.46 L 133.99 175.93 C 134.72 175.47 134.93 174.50 134.47 173.77 C 134.01 173.04 133.04 172.83 132.31 173.29 L 131.48 173.81 C 130.76 174.28 130.54 175.24 131.00 175.97 C 131.47 176.70 132.43 176.92 133.16 176.46 Z M 133.99 175.93 L 134.80 175.41 C 135.53 174.94 135.74 173.97 135.27 173.25 C 134.81 172.52 133.84 172.31 133.11 172.77 L 132.30 173.29 C 131.58 173.76 131.37 174.73 131.83 175.45 C 132.30 176.18 133.27 176.39 133.99 175.93 Z M 134.81 175.40 L 135.62 174.88 C 136.34 174.41 136.55 173.44 136.08 172.71 C 135.61 171.99 134.64 171.78 133.92 172.25 L 133.11 172.78 C 132.38 173.25 132.18 174.22 132.65 174.94 C 133.12 175.67 134.09 175.87 134.81 175.40 Z M 135.63 174.87 L 136.47 174.31 C 137.19 173.84 137.39 172.87 136.92 172.15 C 136.44 171.43 135.48 171.23 134.76 171.70 L 133.91 172.26 C 133.19 172.73 132.99 173.70 133.46 174.42 C 133.94 175.14 134.91 175.34 135.63 174.87 Z M 136.48 174.31 L 137.32 173.75 C 138.04 173.27 138.23 172.30 137.75 171.58 C 137.27 170.87 136.30 170.67 135.58 171.15 L 134.75 171.71 C 134.03 172.19 133.84 173.16 134.31 173.87 C 134.79 174.59 135.76 174.79 136.48 174.31 Z M 137.32 173.75 L 138.15 173.19 C 138.87 172.71 139.06 171.74 138.58 171.02 C 138.09 170.30 137.12 170.11 136.41 170.60 L 135.58 171.15 C 134.86 171.64 134.67 172.61 135.16 173.32 C 135.64 174.04 136.61 174.23 137.32 173.75 Z M 138.16 173.18 L 138.98 172.63 C 139.69 172.14 139.88 171.17 139.40 170.46 C 138.91 169.74 137.94 169.56 137.23 170.04 L 136.40 170.60 C 135.69 171.08 135.50 172.05 135.99 172.77 C 136.47 173.48 137.44 173.67 138.16 173.18 Z M 138.98 172.63 L 139.80 172.07 C 140.51 171.58 140.70 170.61 140.21 169.90 C 139.73 169.19 138.76 169.00 138.04 169.49 L 137.22 170.04 C 136.51 170.53 136.33 171.50 136.81 172.21 C 137.30 172.93 138.27 173.11 138.98 172.63 Z M 139.80 172.07 L 140.40 171.66 C 141.11 171.18 141.29 170.20 140.81 169.49 C 140.32 168.78 139.35 168.60 138.64 169.08 L 138.04 169.49 C 137.33 169.97 137.15 170.94 137.63 171.66 C 138.12 172.37 139.09 172.55 139.80 172.07 Z"
      fill="black"
      fill-rule="nonzero" /><path d="M 151.16 119.24 L 150.54 120.03 C 149.94 120.78 150.07 121.87 150.82 122.47 C 151.57 123.07 152.67 122.94 153.27 122.19 L 153.89 121.40 C 154.49 120.65 154.36 119.56 153.61 118.96 C 152.86 118.36 151.76 118.49 151.16 119.24 Z M 150.50 120.04 L 149.89 120.84 C 149.31 121.62 149.46 122.72 150.23 123.31 C 151.01 123.90 152.11 123.74 152.70 122.97 L 153.30 122.17 C 153.89 121.40 153.74 120.29 152.96 119.71 C 152.19 119.12 151.09 119.27 150.50 120.04 Z M 149.83 120.90 L 149.27 121.72 C 148.71 122.53 148.91 123.63 149.72 124.19 C 150.53 124.75 151.64 124.54 152.20 123.73 L 152.76 122.91 C 153.32 122.11 153.11 121.00 152.31 120.44 C 151.50 119.88 150.39 120.09 149.83 120.90 Z M 149.19 121.81 L 148.68 122.66 C 148.18 123.52 148.46 124.62 149.31 125.13 C 150.17 125.63 151.27 125.35 151.77 124.49 L 152.28 123.64 C 152.78 122.79 152.50 121.69 151.65 121.18 C 150.79 120.67 149.69 120.96 149.19 121.81 Z M 148.59 122.80 L 148.16 123.70 C 147.73 124.61 148.12 125.69 149.02 126.12 C 149.93 126.55 151.01 126.16 151.44 125.26 L 151.87 124.36 C 152.30 123.45 151.91 122.37 151.00 121.94 C 150.10 121.51 149.02 121.90 148.59 122.80 Z M 148.07 123.88 L 147.75 124.82 C 147.42 125.78 147.93 126.82 148.89 127.14 C 149.84 127.47 150.88 126.96 151.21 126.01 L 151.53 125.07 C 151.86 124.12 151.35 123.08 150.40 122.75 C 149.44 122.42 148.40 122.93 148.07 123.88 Z M 147.69 125.02 L 147.48 125.97 C 147.26 126.96 147.88 127.94 148.87 128.16 C 149.85 128.38 150.83 127.76 151.05 126.77 L 151.27 125.81 C 151.49 124.83 150.87 123.85 149.88 123.63 C 148.89 123.41 147.91 124.03 147.69 125.02 Z M 147.45 126.14 L 147.32 127.13 C 147.20 128.13 147.90 129.05 148.90 129.18 C 149.91 129.31 150.82 128.60 150.95 127.60 L 151.08 126.61 C 151.21 125.61 150.50 124.69 149.50 124.56 C 148.50 124.43 147.58 125.14 147.45 126.14 Z M 147.32 127.27 L 147.26 128.29 C 147.21 129.29 147.99 130.15 148.99 130.20 C 150.00 130.25 150.86 129.48 150.91 128.47 L 150.96 127.46 C 151.01 126.45 150.24 125.60 149.23 125.55 C 148.23 125.49 147.37 126.27 147.32 127.27 Z M 147.27 128.40 L 147.28 129.42 C 147.29 130.42 148.12 131.23 149.12 131.21 C 150.13 131.20 150.93 130.37 150.92 129.37 L 150.91 128.36 C 150.89 127.35 150.07 126.55 149.06 126.56 C 148.06 126.57 147.25 127.40 147.27 128.40 Z M 147.29 129.52 L 147.35 130.52 C 147.42 131.52 148.29 132.27 149.29 132.21 C 150.29 132.14 151.04 131.27 150.98 130.27 L 150.91 129.27 C 150.84 128.27 149.98 127.51 148.98 127.58 C 147.98 127.65 147.22 128.51 147.29 129.52 Z M 147.37 130.60 L 147.47 131.52 C 147.59 132.51 148.48 133.23 149.47 133.11 C 150.47 133.00 151.18 132.11 151.07 131.11 L 150.96 130.19 C 150.85 129.20 149.96 128.48 148.96 128.60 C 147.97 128.71 147.26 129.61 147.37 130.60 Z M 147.50 131.59 L 147.63 132.44 C 147.78 133.42 148.70 134.09 149.68 133.94 C 150.66 133.79 151.33 132.87 151.18 131.89 L 151.04 131.04 C 150.89 130.06 149.98 129.39 149.00 129.54 C 148.02 129.69 147.34 130.61 147.50 131.59 Z M 147.66 132.51 L 147.82 133.37 C 148.01 134.34 148.94 134.97 149.91 134.78 C 150.87 134.59 151.50 133.66 151.32 132.69 L 151.15 131.83 C 150.96 130.87 150.03 130.24 149.06 130.42 C 148.10 130.61 147.47 131.54 147.66 132.51 Z M 147.85 133.43 L 148.06 134.33 C 148.28 135.28 149.22 135.87 150.17 135.65 C 151.12 135.43 151.71 134.49 151.49 133.54 L 151.29 132.64 C 151.07 131.69 150.12 131.10 149.18 131.32 C 148.23 131.53 147.64 132.48 147.85 133.43 Z M 148.09 134.37 L 148.34 135.34 C 148.58 136.27 149.53 136.84 150.46 136.59 C 151.40 136.35 151.96 135.40 151.72 134.47 L 151.47 133.50 C 151.22 132.57 150.27 132.01 149.34 132.25 C 148.41 132.49 147.85 133.44 148.09 134.37 Z M 148.36 135.37 L 148.66 136.44 C 148.92 137.36 149.87 137.89 150.79 137.64 C 151.71 137.38 152.25 136.43 151.99 135.51 L 151.69 134.44 C 151.43 133.52 150.48 132.99 149.56 133.24 C 148.64 133.50 148.11 134.45 148.36 135.37 Z M 148.68 136.45 L 149.03 137.64 C 149.30 138.55 150.25 139.07 151.16 138.81 C 152.06 138.54 152.58 137.59 152.32 136.68 L 151.97 135.49 C 151.70 134.59 150.75 134.07 149.84 134.33 C 148.94 134.60 148.42 135.55 148.68 136.45 Z M 149.05 137.65 L 149.31 138.54 C 149.58 139.44 150.53 139.95 151.43 139.68 C 152.33 139.41 152.84 138.46 152.57 137.56 L 152.30 136.68 C 152.03 135.78 151.08 135.27 150.19 135.54 C 149.29 135.81 148.78 136.75 149.05 137.65 Z M 149.32 138.54 L 149.59 139.42 C 149.86 140.31 150.80 140.81 151.70 140.54 C 152.59 140.27 153.09 139.33 152.82 138.43 L 152.56 137.56 C 152.29 136.67 151.34 136.16 150.45 136.43 C 149.56 136.70 149.05 137.65 149.32 138.54 Z M 149.60 139.42 L 149.88 140.34 C 150.15 141.23 151.09 141.73 151.98 141.45 C 152.87 141.18 153.37 140.24 153.10 139.35 L 152.82 138.43 C 152.54 137.54 151.60 137.04 150.71 137.32 C 149.82 137.59 149.32 138.53 149.60 139.42 Z M 149.89 140.34 L 150.18 141.29 C 150.46 142.18 151.40 142.67 152.28 142.40 C 153.17 142.12 153.66 141.19 153.39 140.30 L 153.09 139.35 C 152.82 138.46 151.88 137.97 150.99 138.24 C 150.11 138.52 149.61 139.46 149.89 140.34 Z M 150.19 141.30 L 150.50 142.28 C 150.77 143.16 151.71 143.65 152.59 143.37 C 153.47 143.10 153.96 142.16 153.68 141.28 L 153.38 140.30 C 153.10 139.42 152.17 138.93 151.29 139.20 C 150.41 139.48 149.92 140.42 150.19 141.30 Z M 150.51 142.28 L 150.82 143.27 C 151.10 144.15 152.03 144.64 152.91 144.36 C 153.78 144.08 154.27 143.15 153.99 142.27 L 153.68 141.28 C 153.40 140.40 152.47 139.92 151.59 140.19 C 150.71 140.47 150.23 141.40 150.51 142.28 Z M 150.83 143.28 L 151.15 144.28 C 151.43 145.15 152.36 145.63 153.23 145.36 C 154.10 145.08 154.58 144.15 154.30 143.27 L 153.98 142.27 C 153.71 141.40 152.77 140.92 151.90 141.20 C 151.03 141.47 150.55 142.41 150.83 143.28 Z M 151.16 144.28 L 151.48 145.29 C 151.76 146.15 152.69 146.63 153.55 146.35 C 154.42 146.07 154.90 145.14 154.62 144.28 L 154.30 143.27 C 154.02 142.41 153.09 141.93 152.22 142.21 C 151.35 142.49 150.88 143.42 151.16 144.28 Z M 151.49 145.29 L 151.81 146.28 C 152.09 147.14 153.02 147.61 153.88 147.33 C 154.74 147.05 155.21 146.13 154.93 145.26 L 154.61 144.27 C 154.33 143.41 153.40 142.94 152.54 143.22 C 151.68 143.50 151.21 144.43 151.49 145.29 Z M 151.82 146.28 L 152.14 147.25 C 152.42 148.11 153.34 148.58 154.20 148.30 C 155.06 148.02 155.53 147.09 155.24 146.23 L 154.93 145.26 C 154.64 144.40 153.72 143.94 152.86 144.22 C 152.00 144.50 151.54 145.42 151.82 146.28 Z M 152.15 147.26 L 152.47 148.24 C 152.76 149.10 153.68 149.56 154.53 149.27 C 155.39 148.99 155.85 148.07 155.56 147.21 L 155.24 146.23 C 154.95 145.38 154.03 144.92 153.18 145.20 C 152.32 145.48 151.86 146.41 152.15 147.26 Z M 152.48 148.25 L 152.84 149.30 C 153.12 150.15 154.04 150.60 154.89 150.32 C 155.74 150.03 156.20 149.11 155.91 148.26 L 155.55 147.21 C 155.27 146.36 154.35 145.91 153.50 146.19 C 152.65 146.48 152.20 147.40 152.48 148.25 Z M 152.85 149.30 L 153.19 150.32 C 153.48 151.16 154.40 151.61 155.24 151.32 C 156.08 151.03 156.54 150.12 156.25 149.27 L 155.90 148.26 C 155.61 147.42 154.70 146.97 153.85 147.26 C 153.01 147.54 152.56 148.46 152.85 149.30 Z M 153.20 150.32 L 153.54 151.30 C 153.83 152.14 154.74 152.58 155.58 152.29 C 156.42 152.00 156.87 151.09 156.58 150.25 L 156.24 149.27 C 155.95 148.43 155.03 147.99 154.19 148.28 C 153.36 148.57 152.91 149.48 153.20 150.32 Z M 153.55 151.30 L 153.88 152.25 C 154.17 153.08 155.08 153.52 155.92 153.23 C 156.75 152.94 157.19 152.02 156.90 151.19 L 156.57 150.24 C 156.28 149.41 155.36 148.97 154.53 149.26 C 153.70 149.55 153.26 150.47 153.55 151.30 Z M 153.89 152.25 L 154.21 153.17 C 154.51 154.00 155.42 154.43 156.25 154.14 C 157.07 153.85 157.51 152.94 157.22 152.11 L 156.89 151.19 C 156.60 150.36 155.69 149.92 154.86 150.22 C 154.03 150.51 153.59 151.42 153.89 152.25 Z M 154.22 153.17 L 154.54 154.07 C 154.84 154.90 155.74 155.33 156.57 155.03 C 157.39 154.74 157.82 153.83 157.53 153.01 L 157.21 152.11 C 156.91 151.28 156.01 150.85 155.18 151.15 C 154.36 151.44 153.93 152.35 154.22 153.17 Z M 154.55 154.07 L 154.87 154.96 C 155.16 155.78 156.07 156.21 156.89 155.91 C 157.71 155.62 158.13 154.71 157.84 153.89 L 157.52 153.01 C 157.23 152.19 156.32 151.76 155.50 152.05 C 154.68 152.35 154.26 153.25 154.55 154.07 Z M 154.88 154.96 L 155.19 155.83 C 155.49 156.65 156.39 157.07 157.20 156.78 C 158.02 156.49 158.44 155.59 158.15 154.77 L 157.83 153.89 C 157.54 153.08 156.64 152.65 155.82 152.95 C 155.00 153.24 154.58 154.14 154.88 154.96 Z M 155.20 155.83 L 155.46 156.57 C 155.76 157.38 156.65 157.80 157.47 157.51 C 158.28 157.22 158.70 156.32 158.41 155.51 L 158.14 154.77 C 157.85 153.96 156.95 153.54 156.14 153.83 C 155.33 154.12 154.90 155.02 155.20 155.83 Z"
      fill="black"
      fill-rule="nonzero" /><path d="M 196.71 89.46 L 197.52 88.86 C 198.26 88.33 198.41 87.30 197.88 86.57 C 197.34 85.83 196.32 85.68 195.58 86.21 L 194.77 86.80 C 194.04 87.34 193.88 88.37 194.42 89.10 C 194.95 89.83 195.98 89.99 196.71 89.46 Z M 197.50 88.89 L 198.33 88.32 C 199.08 87.79 199.26 86.76 198.73 86.01 C 198.21 85.26 197.18 85.08 196.43 85.60 L 195.60 86.18 C 194.85 86.70 194.67 87.74 195.20 88.49 C 195.72 89.24 196.75 89.42 197.50 88.89 Z M 198.28 88.37 L 199.12 87.83 C 199.90 87.34 200.12 86.30 199.63 85.52 C 199.13 84.75 198.10 84.52 197.32 85.01 L 196.48 85.55 C 195.70 86.05 195.47 87.08 195.97 87.86 C 196.46 88.64 197.50 88.87 198.28 88.37 Z M 199.03 87.90 L 199.90 87.42 C 200.72 86.97 201.01 85.95 200.57 85.13 C 200.12 84.31 199.09 84.02 198.27 84.47 L 197.40 84.95 C 196.59 85.40 196.29 86.42 196.74 87.24 C 197.19 88.05 198.22 88.35 199.03 87.90 Z M 199.78 87.50 L 200.69 87.10 C 201.55 86.72 201.93 85.71 201.55 84.85 C 201.17 83.99 200.17 83.61 199.31 83.99 L 198.40 84.39 C 197.54 84.77 197.15 85.77 197.53 86.63 C 197.91 87.49 198.92 87.88 199.78 87.50 Z M 200.52 87.18 L 201.48 86.87 C 202.38 86.58 202.87 85.61 202.58 84.71 C 202.30 83.81 201.33 83.31 200.43 83.60 L 199.47 83.91 C 198.57 84.20 198.07 85.16 198.36 86.07 C 198.65 86.97 199.62 87.47 200.52 87.18 Z M 201.28 86.93 L 202.26 86.74 C 203.20 86.56 203.81 85.66 203.63 84.72 C 203.46 83.79 202.55 83.17 201.61 83.35 L 200.63 83.54 C 199.69 83.72 199.08 84.62 199.26 85.56 C 199.43 86.50 200.34 87.11 201.28 86.93 Z M 202.02 86.78 L 203.02 86.74 C 203.97 86.69 204.71 85.88 204.67 84.92 C 204.62 83.96 203.81 83.22 202.85 83.26 L 201.86 83.31 C 200.90 83.36 200.16 84.17 200.20 85.13 C 200.25 86.09 201.06 86.83 202.02 86.78 Z M 202.73 86.74 L 203.71 86.85 C 204.67 86.97 205.54 86.28 205.65 85.32 C 205.76 84.36 205.08 83.49 204.12 83.38 L 203.14 83.26 C 202.18 83.15 201.31 83.84 201.20 84.79 C 201.08 85.75 201.77 86.62 202.73 86.74 Z M 203.38 86.79 L 204.32 87.09 C 205.25 87.39 206.24 86.88 206.53 85.96 C 206.83 85.03 206.32 84.04 205.40 83.74 L 204.45 83.44 C 203.53 83.14 202.54 83.65 202.24 84.58 C 201.94 85.50 202.45 86.50 203.38 86.79 Z M 203.99 86.96 L 204.80 87.41 C 205.65 87.89 206.73 87.59 207.21 86.73 C 207.68 85.88 207.38 84.80 206.53 84.33 L 205.72 83.88 C 204.87 83.40 203.79 83.70 203.32 84.55 C 202.84 85.41 203.14 86.48 203.99 86.96 Z M 204.55 87.25 L 205.26 87.83 C 206.02 88.45 207.14 88.33 207.76 87.56 C 208.38 86.80 208.26 85.68 207.49 85.06 L 206.78 84.49 C 206.02 83.87 204.90 83.99 204.28 84.75 C 203.66 85.51 203.78 86.63 204.55 87.25 Z M 205.08 87.67 L 205.74 88.38 C 206.42 89.09 207.55 89.12 208.27 88.45 C 208.99 87.77 209.02 86.64 208.34 85.92 L 207.67 85.22 C 207.00 84.50 205.86 84.47 205.15 85.15 C 204.43 85.83 204.40 86.96 205.08 87.67 Z M 205.61 88.24 L 206.23 89.04 C 206.83 89.83 207.96 89.98 208.75 89.38 C 209.53 88.78 209.69 87.65 209.08 86.86 L 208.47 86.06 C 207.87 85.27 206.74 85.12 205.95 85.72 C 205.16 86.32 205.01 87.45 205.61 88.24 Z M 206.13 88.92 L 206.70 89.81 C 207.24 90.65 208.35 90.90 209.19 90.37 C 210.03 89.83 210.28 88.72 209.75 87.88 L 209.18 86.98 C 208.64 86.14 207.53 85.90 206.69 86.43 C 205.85 86.97 205.60 88.08 206.13 88.92 Z M 206.63 89.71 L 207.15 90.66 C 207.63 91.54 208.73 91.87 209.61 91.39 C 210.49 90.91 210.81 89.81 210.33 88.93 L 209.82 87.98 C 209.34 87.10 208.24 86.77 207.36 87.25 C 206.48 87.73 206.15 88.83 206.63 89.71 Z M 207.10 90.58 L 207.52 91.47 C 207.95 92.38 209.03 92.77 209.94 92.34 C 210.85 91.91 211.24 90.82 210.81 89.91 L 210.39 89.02 C 209.96 88.11 208.87 87.72 207.96 88.15 C 207.05 88.58 206.67 89.67 207.10 90.58 Z M 207.48 91.40 L 207.84 92.27 C 208.23 93.20 209.30 93.64 210.23 93.26 C 211.16 92.87 211.60 91.80 211.22 90.87 L 210.85 89.99 C 210.46 89.06 209.39 88.62 208.46 89.01 C 207.53 89.40 207.09 90.47 207.48 91.40 Z M 207.81 92.20 L 208.14 93.11 C 208.49 94.06 209.54 94.54 210.49 94.20 C 211.44 93.85 211.93 92.80 211.58 91.85 L 211.25 90.94 C 210.90 89.99 209.85 89.50 208.90 89.85 C 207.95 90.20 207.46 91.25 207.81 92.20 Z M 208.11 93.04 L 208.41 93.97 C 208.72 94.94 209.76 95.47 210.72 95.16 C 211.69 94.86 212.22 93.82 211.91 92.85 L 211.61 91.92 C 211.30 90.95 210.27 90.42 209.30 90.73 C 208.34 91.03 207.80 92.07 208.11 93.04 Z M 208.39 93.91 L 208.65 94.88 C 208.93 95.86 209.94 96.43 210.92 96.16 C 211.91 95.89 212.48 94.87 212.21 93.89 L 211.94 92.92 C 211.67 91.94 210.65 91.37 209.67 91.64 C 208.69 91.91 208.11 92.93 208.39 93.91 Z M 208.63 94.81 L 208.87 95.82 C 209.11 96.81 210.11 97.43 211.10 97.19 C 212.09 96.95 212.71 95.96 212.47 94.96 L 212.23 93.96 C 211.99 92.96 211.00 92.35 210.00 92.59 C 209.01 92.82 208.40 93.82 208.63 94.81 Z M 208.85 95.76 L 209.06 96.80 C 209.27 97.81 210.25 98.46 211.25 98.25 C 212.25 98.05 212.90 97.07 212.70 96.07 L 212.49 95.02 C 212.29 94.02 211.31 93.37 210.30 93.57 C 209.30 93.78 208.65 94.76 208.85 95.76 Z M 209.05 96.75 L 209.22 97.77 C 209.40 98.78 210.36 99.46 211.37 99.29 C 212.38 99.12 213.06 98.16 212.89 97.14 L 212.72 96.12 C 212.54 95.11 211.58 94.43 210.57 94.60 C 209.56 94.78 208.88 95.74 209.05 96.75 Z M 209.21 97.72 L 209.36 98.73 C 209.51 99.75 210.45 100.46 211.47 100.31 C 212.49 100.16 213.20 99.22 213.05 98.20 L 212.90 97.19 C 212.76 96.17 211.81 95.46 210.79 95.61 C 209.77 95.76 209.06 96.70 209.21 97.72 Z M 209.35 98.70 L 209.47 99.72 C 209.60 100.75 210.54 101.47 211.56 101.35 C 212.59 101.22 213.32 100.29 213.19 99.26 L 213.06 98.24 C 212.93 97.21 212.00 96.48 210.97 96.61 C 209.95 96.74 209.22 97.67 209.35 98.70 Z M 209.46 99.69 L 209.57 100.71 C 209.68 101.75 210.61 102.49 211.64 102.38 C 212.67 102.27 213.42 101.35 213.31 100.32 L 213.20 99.29 C 213.09 98.26 212.16 97.51 211.13 97.62 C 210.10 97.73 209.36 98.66 209.46 99.69 Z M 209.56 100.69 L 209.66 101.71 C 209.75 102.74 210.67 103.50 211.70 103.41 C 212.74 103.32 213.50 102.40 213.41 101.37 L 213.31 100.35 C 213.22 99.31 212.31 98.55 211.27 98.64 C 210.24 98.74 209.47 99.65 209.56 100.69 Z M 209.65 101.68 L 209.73 102.68 C 209.81 103.72 210.71 104.50 211.75 104.42 C 212.79 104.34 213.57 103.43 213.49 102.39 L 213.41 101.39 C 213.33 100.35 212.43 99.57 211.39 99.65 C 210.35 99.73 209.57 100.64 209.65 101.68 Z M 209.72 102.66 L 209.78 103.63 C 209.85 104.67 210.75 105.46 211.79 105.39 C 212.84 105.33 213.63 104.43 213.56 103.38 L 213.50 102.41 C 213.43 101.37 212.53 100.58 211.49 100.65 C 210.44 100.71 209.65 101.61 209.72 102.66 Z M 209.77 103.61 L 209.82 104.53 C 209.88 105.58 210.78 106.38 211.82 106.33 C 212.87 106.27 213.67 105.38 213.62 104.33 L 213.57 103.40 C 213.51 102.36 212.62 101.55 211.57 101.61 C 210.52 101.67 209.72 102.56 209.77 103.61 Z M 209.82 104.51 L 209.87 105.62 C 209.91 106.67 210.80 107.49 211.85 107.44 C 212.90 107.40 213.71 106.51 213.67 105.46 L 213.62 104.35 C 213.58 103.30 212.69 102.49 211.64 102.53 C 210.59 102.58 209.77 103.46 209.82 104.51 Z M 209.86 105.60 L 209.90 106.67 C 209.93 107.72 210.81 108.55 211.86 108.51 C 212.91 108.48 213.74 107.60 213.71 106.55 L 213.67 105.48 C 213.64 104.43 212.76 103.60 211.71 103.64 C 210.66 103.67 209.83 104.55 209.86 105.60 Z M 209.89 106.65 L 209.91 107.65 C 209.94 108.70 210.81 109.54 211.86 109.52 C 212.91 109.50 213.75 108.63 213.73 107.57 L 213.71 106.57 C 213.69 105.52 212.82 104.68 211.76 104.70 C 210.71 104.72 209.87 105.59 209.89 106.65 Z M 209.91 107.63 L 209.92 108.59 C 209.93 109.65 210.80 110.49 211.85 110.48 C 212.91 110.47 213.75 109.60 213.74 108.55 L 213.73 107.59 C 213.72 106.54 212.86 105.69 211.80 105.70 C 210.75 105.71 209.90 106.58 209.91 107.63 Z M 209.92 108.58 L 209.92 109.51 C 209.93 110.56 210.79 111.42 211.84 111.41 C 212.90 111.41 213.75 110.55 213.75 109.49 L 213.74 108.56 C 213.74 107.51 212.88 106.65 211.82 106.66 C 210.77 106.66 209.92 107.52 209.92 108.58 Z M 209.92 109.50 L 209.92 110.42 C 209.92 111.48 210.78 112.33 211.84 112.33 C 212.90 112.33 213.75 111.47 213.75 110.42 L 213.75 109.50 C 213.75 108.44 212.89 107.58 211.84 107.59 C 210.78 107.59 209.92 108.44 209.92 109.50 Z M 209.92 110.42 L 209.92 111.37 C 209.92 112.43 210.78 113.29 211.84 113.29 C 212.89 113.29 213.75 112.44 213.75 111.38 L 213.75 110.42 C 213.75 109.36 212.90 108.50 211.84 108.50 C 210.78 108.50 209.92 109.36 209.92 110.42 Z M 209.92 111.37 L 209.91 112.34 C 209.91 113.40 210.76 114.26 211.82 114.27 C 212.88 114.27 213.75 113.41 213.75 112.35 L 213.76 111.38 C 213.76 110.32 212.90 109.46 211.84 109.46 C 210.78 109.45 209.92 110.31 209.92 111.37 Z M 209.91 112.32 L 209.90 113.31 C 209.89 114.37 210.74 115.24 211.80 115.25 C 212.86 115.27 213.73 114.42 213.74 113.35 L 213.75 112.37 C 213.77 111.31 212.92 110.44 211.85 110.42 C 210.79 110.41 209.92 111.26 209.91 112.32 Z M 209.90 113.29 L 209.88 114.30 C 209.85 115.36 210.69 116.24 211.76 116.26 C 212.82 116.29 213.70 115.44 213.72 114.38 L 213.74 113.37 C 213.77 112.31 212.93 111.43 211.86 111.41 C 210.80 111.39 209.92 112.23 209.90 113.29 Z M 209.87 114.27 L 209.84 115.31 C 209.80 116.37 210.63 117.26 211.69 117.30 C 212.76 117.34 213.65 116.51 213.69 115.44 L 213.72 114.41 C 213.76 113.35 212.93 112.45 211.87 112.42 C 210.80 112.38 209.91 113.21 209.87 114.27 Z M 209.84 115.28 L 209.79 116.29 C 209.73 117.35 210.55 118.26 211.61 118.31 C 212.67 118.36 213.58 117.55 213.63 116.48 L 213.69 115.47 C 213.74 114.41 212.92 113.50 211.86 113.45 C 210.80 113.40 209.89 114.21 209.84 115.28 Z M 209.79 116.26 L 209.72 117.18 C 209.65 118.25 210.46 119.17 211.52 119.24 C 212.58 119.31 213.50 118.50 213.57 117.44 L 213.63 116.51 C 213.71 115.45 212.90 114.53 211.84 114.46 C 210.78 114.39 209.86 115.19 209.79 116.26 Z M 209.72 117.15 L 209.65 118.10 C 209.56 119.17 210.35 120.10 211.41 120.19 C 212.47 120.28 213.41 119.49 213.49 118.42 L 213.57 117.47 C 213.66 116.41 212.87 115.48 211.81 115.39 C 210.74 115.30 209.81 116.09 209.72 117.15 Z M 209.65 118.07 L 209.55 119.05 C 209.44 120.11 210.22 121.06 211.28 121.16 C 212.34 121.27 213.29 120.49 213.40 119.43 L 213.49 118.45 C 213.60 117.39 212.82 116.45 211.76 116.34 C 210.70 116.24 209.75 117.01 209.65 118.07 Z M 209.55 119.02 L 209.44 120.02 C 209.31 121.08 210.07 122.04 211.13 122.17 C 212.19 122.29 213.15 121.53 213.28 120.47 L 213.39 119.46 C 213.52 118.40 212.76 117.44 211.70 117.32 C 210.63 117.20 209.67 117.96 209.55 119.02 Z M 209.44 119.99 L 209.30 121.02 C 209.16 122.08 209.90 123.06 210.96 123.20 C 212.02 123.34 213.00 122.59 213.14 121.53 L 213.27 120.50 C 213.42 119.44 212.67 118.47 211.61 118.33 C 210.55 118.19 209.58 118.93 209.44 119.99 Z M 209.30 120.99 L 209.14 122.05 C 208.98 123.11 209.71 124.10 210.77 124.26 C 211.83 124.42 212.81 123.69 212.97 122.63 L 213.13 121.57 C 213.29 120.51 212.57 119.52 211.51 119.36 C 210.45 119.20 209.46 119.93 209.30 120.99 Z M 209.15 122.02 L 208.98 123.00 C 208.80 124.06 209.52 125.06 210.57 125.24 C 211.63 125.41 212.63 124.70 212.80 123.65 L 212.97 122.66 C 213.15 121.61 212.43 120.61 211.38 120.43 C 210.32 120.25 209.32 120.96 209.15 122.02 Z M 208.99 122.98 L 208.81 123.92 C 208.62 124.97 209.32 125.98 210.37 126.18 C 211.42 126.37 212.43 125.67 212.63 124.62 L 212.80 123.67 C 212.99 122.62 212.30 121.61 211.24 121.42 C 210.19 121.23 209.18 121.92 208.99 122.98 Z M 208.82 123.89 L 208.63 124.85 C 208.42 125.90 209.11 126.92 210.16 127.13 C 211.21 127.34 212.23 126.65 212.43 125.60 L 212.62 124.64 C 212.83 123.59 212.15 122.57 211.09 122.37 C 210.04 122.16 209.02 122.84 208.82 123.89 Z M 208.63 124.83 L 208.43 125.80 C 208.21 126.85 208.88 127.88 209.93 128.10 C 210.98 128.32 212.01 127.65 212.23 126.60 L 212.43 125.63 C 212.65 124.58 211.98 123.55 210.93 123.33 C 209.88 123.11 208.85 123.78 208.63 124.83 Z M 208.43 125.78 L 208.21 126.77 C 207.98 127.81 208.64 128.85 209.69 129.08 C 210.73 129.31 211.77 128.65 212.00 127.61 L 212.22 126.62 C 212.45 125.58 211.79 124.54 210.75 124.31 C 209.70 124.08 208.66 124.73 208.43 125.78 Z M 208.22 126.75 L 207.99 127.74 C 207.74 128.78 208.39 129.83 209.43 130.07 C 210.48 130.31 211.52 129.67 211.77 128.62 L 212.00 127.63 C 212.24 126.58 211.59 125.54 210.55 125.30 C 209.51 125.05 208.46 125.70 208.22 126.75 Z M 207.99 127.72 L 207.75 128.72 C 207.49 129.76 208.13 130.81 209.17 131.07 C 210.21 131.32 211.26 130.68 211.52 129.64 L 211.76 128.64 C 212.02 127.60 211.38 126.55 210.34 126.29 C 209.30 126.04 208.25 126.68 207.99 127.72 Z M 207.75 128.70 L 207.49 129.70 C 207.23 130.74 207.85 131.80 208.89 132.06 C 209.93 132.33 210.99 131.70 211.26 130.66 L 211.51 129.66 C 211.78 128.62 211.15 127.56 210.11 127.30 C 209.07 127.03 208.02 127.66 207.75 128.70 Z M 207.50 129.68 L 207.24 130.65 C 206.97 131.68 207.58 132.75 208.62 133.02 C 209.66 133.30 210.72 132.68 211.00 131.64 L 211.25 130.68 C 211.53 129.65 210.91 128.58 209.87 128.31 C 208.84 128.03 207.77 128.65 207.50 129.68 Z M 207.25 130.63 L 206.99 131.57 C 206.70 132.61 207.31 133.68 208.34 133.96 C 209.38 134.25 210.45 133.64 210.73 132.61 L 210.99 131.66 C 211.28 130.63 210.67 129.56 209.64 129.27 C 208.60 128.99 207.53 129.59 207.25 130.63 Z M 206.99 131.56 L 206.72 132.50 C 206.43 133.54 207.02 134.61 208.06 134.90 C 209.09 135.20 210.16 134.60 210.46 133.57 L 210.73 132.62 C 211.02 131.59 210.42 130.52 209.39 130.22 C 208.36 129.93 207.28 130.53 206.99 131.56 Z M 206.72 132.49 L 206.45 133.44 C 206.14 134.47 206.73 135.55 207.76 135.85 C 208.79 136.15 209.87 135.56 210.17 134.53 L 210.45 133.58 C 210.75 132.56 210.17 131.48 209.14 131.17 C 208.11 130.87 207.03 131.46 206.72 132.49 Z M 206.45 133.42 L 206.16 134.38 C 205.85 135.41 206.43 136.49 207.46 136.80 C 208.48 137.11 209.57 136.53 209.88 135.50 L 210.17 134.55 C 210.48 133.52 209.90 132.44 208.87 132.13 C 207.84 131.82 206.76 132.40 206.45 133.42 Z M 206.17 134.36 L 205.87 135.32 C 205.55 136.35 206.12 137.44 207.15 137.76 C 208.17 138.07 209.26 137.50 209.58 136.48 L 209.88 135.52 C 210.19 134.49 209.62 133.40 208.60 133.09 C 207.57 132.77 206.48 133.34 206.17 134.36 Z M 205.87 135.31 L 205.56 136.28 C 205.24 137.30 205.80 138.39 206.83 138.72 C 207.85 139.04 208.94 138.48 209.27 137.46 L 209.57 136.49 C 209.90 135.47 209.33 134.37 208.31 134.05 C 207.29 133.72 206.20 134.29 205.87 135.31 Z M 205.57 136.26 L 205.25 137.24 C 204.92 138.26 205.48 139.36 206.50 139.69 C 207.52 140.02 208.61 139.46 208.95 138.44 L 209.26 137.47 C 209.60 136.45 209.04 135.35 208.02 135.02 C 207.00 134.69 205.90 135.24 205.57 136.26 Z M 205.25 137.23 L 204.94 138.19 C 204.60 139.20 205.15 140.30 206.17 140.64 C 207.19 140.98 208.29 140.43 208.62 139.41 L 208.94 138.45 C 209.28 137.43 208.73 136.33 207.71 136.00 C 206.69 135.66 205.59 136.21 205.25 137.23 Z M 204.94 138.18 L 204.63 139.09 C 204.29 140.11 204.83 141.21 205.85 141.55 C 206.87 141.90 207.97 141.35 208.31 140.33 L 208.62 139.42 C 208.96 138.40 208.42 137.30 207.40 136.96 C 206.39 136.61 205.28 137.16 204.94 138.18 Z M 204.63 139.08 L 204.32 140.00 C 203.97 141.02 204.51 142.12 205.52 142.47 C 206.54 142.82 207.64 142.28 207.99 141.27 L 208.31 140.34 C 208.66 139.33 208.12 138.22 207.10 137.87 C 206.09 137.53 204.98 138.07 204.63 139.08 Z M 204.32 139.99 L 203.99 140.92 C 203.64 141.94 204.17 143.04 205.19 143.40 C 206.20 143.75 207.31 143.22 207.66 142.21 L 207.99 141.28 C 208.34 140.26 207.81 139.16 206.80 138.80 C 205.78 138.45 204.67 138.98 204.32 139.99 Z M 204.00 140.91 L 203.66 141.85 C 203.31 142.86 203.83 143.97 204.84 144.33 C 205.85 144.69 206.97 144.16 207.33 143.15 L 207.66 142.22 C 208.02 141.20 207.49 140.09 206.48 139.73 C 205.47 139.37 204.36 139.90 204.00 140.91 Z M 203.67 141.84 L 203.33 142.78 C 202.96 143.79 203.48 144.91 204.49 145.27 C 205.50 145.64 206.62 145.11 206.98 144.11 L 207.32 143.16 C 207.69 142.15 207.16 141.04 206.16 140.67 C 205.15 140.31 204.03 140.83 203.67 141.84 Z M 203.33 142.77 L 202.98 143.72 C 202.61 144.73 203.13 145.85 204.13 146.22 C 205.14 146.59 206.26 146.07 206.63 145.06 L 206.98 144.11 C 207.35 143.11 206.83 141.99 205.82 141.62 C 204.82 141.25 203.70 141.77 203.33 142.77 Z M 202.99 143.71 L 202.63 144.67 C 202.25 145.68 202.76 146.79 203.77 147.17 C 204.77 147.54 205.89 147.03 206.27 146.03 L 206.62 145.07 C 207.00 144.07 206.49 142.95 205.48 142.58 C 204.48 142.20 203.36 142.71 202.99 143.71 Z M 202.63 144.66 L 202.27 145.62 C 201.89 146.63 202.39 147.75 203.39 148.13 C 204.40 148.51 205.52 148.00 205.90 147.00 L 206.26 146.04 C 206.64 145.04 206.14 143.92 205.14 143.53 C 204.13 143.15 203.01 143.66 202.63 144.66 Z M 202.27 145.61 L 201.90 146.57 C 201.52 147.57 202.01 148.69 203.02 149.08 C 204.02 149.46 205.14 148.97 205.53 147.97 L 205.89 147.01 C 206.28 146.01 205.78 144.89 204.78 144.50 C 203.78 144.11 202.66 144.61 202.27 145.61 Z M 201.91 146.56 L 201.55 147.47 C 201.16 148.47 201.65 149.60 202.65 149.99 C 203.65 150.38 204.77 149.89 205.16 148.89 L 205.52 147.98 C 205.91 146.98 205.42 145.85 204.42 145.46 C 203.42 145.07 202.30 145.56 201.91 146.56 Z M 201.55 147.47 L 201.19 148.38 C 200.79 149.38 201.28 150.51 202.27 150.91 C 203.27 151.30 204.40 150.81 204.79 149.82 L 205.16 148.90 C 205.56 147.90 205.07 146.77 204.07 146.38 C 203.08 145.98 201.95 146.47 201.55 147.47 Z M 201.19 148.38 L 200.82 149.30 C 200.42 150.29 200.90 151.42 201.89 151.82 C 202.89 152.22 204.02 151.74 204.42 150.75 L 204.79 149.83 C 205.19 148.83 204.71 147.70 203.72 147.30 C 202.72 146.90 201.59 147.38 201.19 148.38 Z M 200.82 149.29 L 200.44 150.21 C 200.04 151.21 200.51 152.34 201.51 152.74 C 202.50 153.15 203.63 152.67 204.04 151.68 L 204.41 150.76 C 204.82 149.77 204.35 148.63 203.35 148.23 C 202.36 147.82 201.23 148.30 200.82 149.29 Z M 200.45 150.20 L 200.06 151.13 C 199.65 152.12 200.12 153.26 201.11 153.67 C 202.10 154.08 203.24 153.61 203.65 152.62 L 204.03 151.69 C 204.44 150.70 203.97 149.57 202.98 149.16 C 201.99 148.75 200.86 149.21 200.45 150.20 Z M 200.07 151.12 L 199.68 152.05 C 199.26 153.04 199.73 154.17 200.72 154.59 C 201.70 155.00 202.84 154.54 203.26 153.55 L 203.64 152.63 C 204.06 151.64 203.60 150.50 202.61 150.09 C 201.62 149.67 200.48 150.13 200.07 151.12 Z M 199.68 152.04 L 199.29 152.97 C 198.87 153.95 199.33 155.09 200.31 155.51 C 201.30 155.93 202.44 155.47 202.86 154.49 L 203.25 153.56 C 203.67 152.58 203.21 151.44 202.23 151.02 C 201.24 150.60 200.10 151.05 199.68 152.04 Z M 199.29 152.96 L 198.89 153.88 C 198.47 154.87 198.92 156.01 199.90 156.43 C 200.88 156.86 202.03 156.41 202.45 155.42 L 202.85 154.50 C 203.28 153.51 202.82 152.37 201.84 151.95 C 200.86 151.52 199.72 151.97 199.29 152.96 Z M 198.90 153.88 L 198.49 154.80 C 198.06 155.78 198.51 156.92 199.49 157.35 C 200.47 157.78 201.61 157.34 202.04 156.36 L 202.45 155.43 C 202.88 154.45 202.43 153.31 201.45 152.88 C 200.47 152.45 199.33 152.89 198.90 153.88 Z M 198.49 154.79 L 198.09 155.71 C 197.65 156.69 198.09 157.83 199.07 158.27 C 200.05 158.70 201.19 158.26 201.63 157.28 L 202.04 156.37 C 202.47 155.39 202.03 154.24 201.05 153.81 C 200.07 153.37 198.93 153.81 198.49 154.79 Z M 198.09 155.70 L 197.68 156.61 C 197.24 157.58 197.68 158.73 198.65 159.17 C 199.63 159.61 200.77 159.17 201.21 158.20 L 201.62 157.29 C 202.06 156.32 201.63 155.17 200.65 154.73 C 199.68 154.29 198.53 154.72 198.09 155.70 Z M 197.69 156.60 L 197.27 157.50 C 196.83 158.48 197.26 159.62 198.23 160.07 C 199.20 160.51 200.35 160.09 200.79 159.11 L 201.21 158.21 C 201.65 157.24 201.23 156.09 200.25 155.64 C 199.28 155.20 198.13 155.63 197.69 156.60 Z M 197.28 157.49 L 196.86 158.40 C 196.41 159.37 196.83 160.52 197.80 160.97 C 198.77 161.42 199.92 161.00 200.37 160.03 L 200.79 159.12 C 201.24 158.15 200.82 157.00 199.85 156.55 C 198.88 156.10 197.73 156.53 197.28 157.49 Z M 196.87 158.39 L 196.44 159.29 C 195.99 160.26 196.40 161.41 197.37 161.86 C 198.33 162.32 199.48 161.90 199.94 160.94 L 200.36 160.04 C 200.82 159.07 200.40 157.92 199.44 157.46 C 198.47 157.01 197.32 157.42 196.87 158.39 Z M 196.45 159.28 L 196.02 160.18 C 195.56 161.15 195.97 162.30 196.93 162.76 C 197.89 163.22 199.04 162.81 199.50 161.85 L 199.93 160.95 C 200.39 159.98 199.98 158.83 199.02 158.37 C 198.06 157.91 196.91 158.32 196.45 159.28 Z M 196.02 160.17 L 195.59 161.08 C 195.12 162.03 195.52 163.19 196.48 163.65 C 197.44 164.12 198.60 163.72 199.06 162.76 L 199.50 161.86 C 199.96 160.90 199.56 159.74 198.60 159.28 C 197.64 158.82 196.49 159.22 196.02 160.17 Z M 195.59 161.07 L 195.15 161.97 C 194.68 162.92 195.07 164.08 196.03 164.55 C 196.99 165.02 198.14 164.62 198.61 163.67 L 199.05 162.77 C 199.52 161.81 199.13 160.66 198.17 160.19 C 197.22 159.72 196.06 160.11 195.59 161.07 Z M 195.16 161.96 L 194.71 162.85 C 194.23 163.81 194.62 164.96 195.57 165.44 C 196.52 165.91 197.68 165.53 198.16 164.58 L 198.60 163.68 C 199.08 162.72 198.69 161.57 197.74 161.09 C 196.79 160.62 195.63 161.00 195.16 161.96 Z M 194.72 162.85 L 194.26 163.74 C 193.78 164.69 194.16 165.85 195.11 166.33 C 196.06 166.81 197.21 166.43 197.69 165.48 L 198.15 164.59 C 198.63 163.64 198.25 162.48 197.30 162.00 C 196.35 161.52 195.20 161.90 194.72 162.85 Z M 194.27 163.73 L 193.82 164.61 C 193.33 165.56 193.70 166.72 194.65 167.20 C 195.59 167.69 196.75 167.32 197.24 166.37 L 197.69 165.49 C 198.17 164.55 197.80 163.39 196.86 162.90 C 195.91 162.42 194.75 162.79 194.27 163.73 Z M 193.82 164.60 L 193.37 165.47 C 192.88 166.41 193.24 167.57 194.18 168.07 C 195.13 168.56 196.29 168.19 196.78 167.25 L 197.23 166.38 C 197.72 165.44 197.35 164.28 196.41 163.79 C 195.47 163.30 194.31 163.66 193.82 164.60 Z M 193.37 165.47 L 192.92 166.34 C 192.42 167.27 192.78 168.44 193.72 168.93 C 194.66 169.42 195.82 169.07 196.31 168.13 L 196.77 167.26 C 197.27 166.32 196.91 165.16 195.97 164.66 C 195.03 164.17 193.87 164.53 193.37 165.47 Z M 192.92 166.33 L 192.46 167.20 C 191.96 168.14 192.31 169.30 193.25 169.80 C 194.18 170.30 195.34 169.94 195.84 169.01 L 196.31 168.13 C 196.80 167.20 196.45 166.04 195.52 165.54 C 194.58 165.04 193.42 165.40 192.92 166.33 Z M 192.46 167.20 L 191.99 168.07 C 191.49 169.00 191.84 170.17 192.77 170.67 C 193.70 171.17 194.86 170.82 195.36 169.89 L 195.84 169.01 C 196.34 168.08 195.99 166.92 195.06 166.42 C 194.12 165.92 192.96 166.27 192.46 167.20 Z M 192.00 168.07 L 191.52 168.95 C 191.02 169.87 191.36 171.04 192.29 171.54 C 193.22 172.04 194.38 171.70 194.88 170.77 L 195.36 169.89 C 195.86 168.96 195.52 167.80 194.59 167.30 C 193.66 166.79 192.50 167.14 192.00 168.07 Z M 191.52 168.94 L 191.04 169.82 C 190.54 170.75 190.88 171.91 191.80 172.42 C 192.73 172.92 193.89 172.58 194.40 171.66 L 194.88 170.77 C 195.39 169.85 195.04 168.69 194.12 168.18 C 193.19 167.67 192.03 168.01 191.52 168.94 Z M 191.05 169.82 L 190.56 170.71 C 190.05 171.63 190.39 172.79 191.31 173.30 C 192.24 173.81 193.40 173.47 193.91 172.54 L 194.39 171.66 C 194.90 170.73 194.56 169.57 193.64 169.07 C 192.71 168.56 191.55 168.90 191.05 169.82 Z M 190.56 170.70 L 190.07 171.59 C 189.56 172.52 189.90 173.68 190.82 174.19 C 191.74 174.70 192.90 174.36 193.41 173.44 L 193.90 172.55 C 194.41 171.62 194.08 170.46 193.15 169.95 C 192.23 169.45 191.07 169.78 190.56 170.70 Z M 190.07 171.59 L 189.58 172.49 C 189.07 173.41 189.40 174.57 190.32 175.08 C 191.24 175.59 192.40 175.26 192.91 174.34 L 193.41 173.44 C 193.92 172.52 193.59 171.36 192.66 170.85 C 191.74 170.34 190.58 170.67 190.07 171.59 Z M 189.58 172.49 L 189.09 173.38 C 188.58 174.30 188.91 175.46 189.83 175.97 C 190.75 176.48 191.91 176.15 192.42 175.23 L 192.91 174.34 C 193.42 173.42 193.09 172.26 192.17 171.75 C 191.25 171.24 190.09 171.57 189.58 172.49 Z M 189.09 173.38 L 188.59 174.27 C 188.08 175.19 188.41 176.35 189.33 176.86 C 190.25 177.37 191.41 177.04 191.92 176.12 L 192.41 175.23 C 192.92 174.31 192.59 173.15 191.67 172.64 C 190.76 172.13 189.60 172.46 189.09 173.38 Z M 188.60 174.27 L 188.10 175.17 C 187.59 176.08 187.92 177.24 188.83 177.75 C 189.75 178.26 190.91 177.93 191.42 177.02 L 191.91 176.12 C 192.42 175.21 192.10 174.05 191.18 173.54 C 190.26 173.03 189.11 173.36 188.60 174.27 Z M 188.10 175.17 L 187.60 176.06 C 187.09 176.97 187.42 178.13 188.33 178.64 C 189.25 179.15 190.40 178.82 190.91 177.91 L 191.41 177.02 C 191.92 176.10 191.60 174.95 190.68 174.44 C 189.77 173.93 188.61 174.25 188.10 175.17 Z M 187.61 176.05 L 187.11 176.94 C 186.60 177.85 186.92 179.01 187.83 179.52 C 188.74 180.03 189.90 179.71 190.41 178.80 L 190.91 177.91 C 191.42 177.00 191.10 175.85 190.19 175.33 C 189.28 174.82 188.12 175.14 187.61 176.05 Z M 187.11 176.94 L 186.61 177.82 C 186.10 178.73 186.42 179.88 187.33 180.40 C 188.24 180.91 189.39 180.59 189.90 179.69 L 190.40 178.80 C 190.92 177.89 190.60 176.74 189.69 176.23 C 188.78 175.71 187.63 176.03 187.11 176.94 Z M 186.62 177.82 L 186.12 178.69 C 185.60 179.60 185.92 180.75 186.83 181.27 C 187.73 181.78 188.88 181.47 189.40 180.56 L 189.90 179.69 C 190.42 178.78 190.10 177.63 189.20 177.11 C 188.29 176.60 187.14 176.91 186.62 177.82 Z M 186.13 178.68 L 185.63 179.54 C 185.11 180.45 185.42 181.60 186.32 182.12 C 187.23 182.64 188.38 182.33 188.90 181.43 L 189.39 180.57 C 189.91 179.66 189.60 178.51 188.70 177.99 C 187.80 177.47 186.65 177.78 186.13 178.68 Z M 185.64 179.54 L 185.15 180.38 C 184.62 181.28 184.93 182.43 185.83 182.96 C 186.72 183.48 187.88 183.18 188.40 182.28 L 188.89 181.43 C 189.42 180.53 189.11 179.38 188.21 178.86 C 187.31 178.34 186.16 178.64 185.64 179.54 Z M 185.15 180.38 L 184.67 181.20 C 184.14 182.10 184.44 183.25 185.33 183.78 C 186.23 184.30 187.38 184.01 187.91 183.11 L 188.39 182.29 C 188.92 181.39 188.62 180.24 187.73 179.71 C 186.83 179.18 185.68 179.48 185.15 180.38 Z M 184.68 181.19 L 184.17 182.04 C 183.64 182.93 183.93 184.08 184.82 184.61 C 185.71 185.14 186.86 184.85 187.39 183.96 L 187.90 183.12 C 188.43 182.23 188.14 181.08 187.25 180.55 C 186.36 180.02 185.21 180.31 184.68 181.19 Z M 184.18 182.03 L 183.62 182.95 C 183.08 183.83 183.37 184.98 184.25 185.52 C 185.13 186.06 186.29 185.78 186.82 184.89 L 187.38 183.97 C 187.92 183.09 187.64 181.94 186.76 181.40 C 185.87 180.86 184.72 181.14 184.18 182.03 Z M 183.63 182.94 L 183.08 183.83 C 182.54 184.71 182.81 185.86 183.69 186.40 C 184.57 186.95 185.72 186.67 186.26 185.80 L 186.81 184.90 C 187.36 184.03 187.09 182.87 186.21 182.33 C 185.33 181.79 184.18 182.06 183.63 182.94 Z M 183.09 183.82 L 182.55 184.68 C 182.00 185.56 182.26 186.71 183.13 187.26 C 184.00 187.81 185.16 187.54 185.71 186.67 L 186.25 185.81 C 186.80 184.93 186.54 183.78 185.67 183.23 C 184.79 182.68 183.64 182.94 183.09 183.82 Z M 182.56 184.67 L 182.02 185.52 C 181.46 186.39 181.72 187.54 182.58 188.09 C 183.45 188.65 184.60 188.39 185.16 187.53 L 185.70 186.68 C 186.25 185.81 186.00 184.66 185.13 184.11 C 184.26 183.55 183.11 183.81 182.56 184.67 Z M 182.03 185.51 L 181.49 186.34 C 180.93 187.20 181.18 188.35 182.04 188.91 C 182.90 189.47 184.05 189.22 184.61 188.36 L 185.15 187.53 C 185.71 186.67 185.46 185.52 184.60 184.96 C 183.74 184.40 182.59 184.65 182.03 185.51 Z M 181.50 186.33 L 180.97 187.14 C 180.41 187.99 180.64 189.14 181.50 189.71 C 182.36 190.27 183.51 190.03 184.07 189.18 L 184.60 188.37 C 185.16 187.51 184.93 186.36 184.07 185.80 C 183.21 185.23 182.06 185.47 181.50 186.33 Z M 180.98 187.13 L 180.45 187.93 C 179.88 188.78 180.11 189.93 180.96 190.50 C 181.82 191.06 182.97 190.83 183.53 189.98 L 184.06 189.18 C 184.63 188.33 184.40 187.18 183.54 186.61 C 182.69 186.05 181.54 186.28 180.98 187.13 Z M 180.45 187.92 L 179.93 188.71 C 179.36 189.56 179.58 190.70 180.43 191.27 C 181.28 191.84 182.43 191.62 183.00 190.77 L 183.52 189.98 C 184.09 189.14 183.87 187.99 183.02 187.42 C 182.17 186.85 181.02 187.07 180.45 187.92 Z M 179.93 188.70 L 179.38 189.52 C 178.81 190.36 179.03 191.51 179.88 192.08 C 180.72 192.65 181.87 192.43 182.44 191.59 L 182.99 190.77 C 183.56 189.93 183.34 188.78 182.50 188.21 C 181.65 187.64 180.51 187.86 179.93 188.70 Z M 179.39 189.51 L 178.82 190.36 C 178.24 191.20 178.46 192.34 179.30 192.91 C 180.14 193.49 181.28 193.27 181.85 192.43 L 182.43 191.59 C 183.00 190.75 182.79 189.61 181.95 189.03 C 181.11 188.46 179.96 188.67 179.39 189.51 Z M 178.82 190.35 L 178.25 191.19 C 177.67 192.02 177.88 193.17 178.72 193.74 C 179.55 194.32 180.70 194.11 181.27 193.27 L 181.85 192.44 C 182.42 191.60 182.21 190.46 181.38 189.88 C 180.54 189.31 179.40 189.52 178.82 190.35 Z M 178.26 191.18 L 177.68 192.01 C 177.10 192.84 177.31 193.98 178.14 194.56 C 178.97 195.14 180.11 194.93 180.69 194.10 L 181.26 193.28 C 181.84 192.45 181.64 191.30 180.81 190.73 C 179.97 190.15 178.83 190.35 178.26 191.18 Z M 177.69 192.01 L 177.11 192.83 C 176.53 193.65 176.73 194.79 177.56 195.37 C 178.38 195.95 179.52 195.75 180.10 194.93 L 180.68 194.11 C 181.26 193.28 181.06 192.14 180.23 191.56 C 179.41 190.98 178.27 191.18 177.69 192.01 Z M 177.12 192.82 L 176.55 193.63 C 175.96 194.45 176.16 195.59 176.98 196.17 C 177.80 196.76 178.94 196.56 179.52 195.74 L 180.09 194.93 C 180.68 194.11 180.48 192.97 179.66 192.39 C 178.84 191.81 177.71 192.00 177.12 192.82 Z M 176.56 193.63 L 175.98 194.43 C 175.40 195.24 175.58 196.38 176.40 196.96 C 177.21 197.55 178.35 197.36 178.93 196.55 L 179.51 195.75 C 180.09 194.93 179.91 193.80 179.09 193.21 C 178.28 192.63 177.14 192.81 176.56 193.63 Z M 175.99 194.42 L 175.42 195.21 C 174.83 196.02 175.01 197.16 175.82 197.75 C 176.63 198.34 177.76 198.16 178.35 197.35 L 178.92 196.55 C 179.51 195.74 179.33 194.61 178.52 194.02 C 177.71 193.43 176.58 193.61 175.99 194.42 Z M 175.43 195.21 L 174.83 196.02 C 174.24 196.82 174.41 197.95 175.21 198.55 C 176.02 199.14 177.15 198.97 177.74 198.16 L 178.34 197.35 C 178.93 196.55 178.76 195.42 177.95 194.82 C 177.15 194.23 176.02 194.40 175.43 195.21 Z M 174.84 196.01 L 174.22 196.84 C 173.62 197.64 173.79 198.77 174.59 199.37 C 175.38 199.96 176.51 199.80 177.11 199.00 L 177.73 198.17 C 178.33 197.37 178.16 196.24 177.36 195.64 C 176.57 195.05 175.44 195.21 174.84 196.01 Z M 174.23 196.84 L 173.61 197.66 C 173.01 198.45 173.17 199.58 173.96 200.18 C 174.76 200.77 175.88 200.62 176.48 199.82 L 177.10 199.01 C 177.70 198.21 177.54 197.09 176.75 196.49 C 175.96 195.89 174.83 196.05 174.23 196.84 Z M 173.62 197.65 L 173.01 198.46 C 172.41 199.25 172.56 200.37 173.34 200.97 C 174.13 201.57 175.26 201.42 175.86 200.64 L 176.47 199.83 C 177.07 199.04 176.92 197.92 176.13 197.32 C 175.35 196.72 174.22 196.87 173.62 197.65 Z M 173.01 198.46 L 172.40 199.25 C 171.80 200.03 171.95 201.16 172.73 201.76 C 173.51 202.36 174.64 202.21 175.24 201.43 L 175.85 200.64 C 176.45 199.85 176.30 198.73 175.52 198.13 C 174.74 197.53 173.62 197.68 173.01 198.46 Z M 172.41 199.25 L 171.81 200.03 C 171.21 200.81 171.35 201.93 172.13 202.53 C 172.91 203.13 174.03 202.99 174.63 202.21 L 175.23 201.43 C 175.83 200.65 175.69 199.53 174.91 198.93 C 174.13 198.33 173.01 198.47 172.41 199.25 Z M 171.82 200.03 L 171.22 200.79 C 170.62 201.57 170.76 202.68 171.54 203.29 C 172.31 203.89 173.43 203.75 174.03 202.97 L 174.62 202.21 C 175.22 201.44 175.08 200.32 174.31 199.72 C 173.53 199.11 172.42 199.25 171.82 200.03 Z M 171.23 200.79 L 170.65 201.54 C 170.04 202.31 170.18 203.43 170.95 204.03 C 171.73 204.63 172.84 204.49 173.44 203.72 L 174.02 202.97 C 174.62 202.20 174.49 201.09 173.72 200.49 C 172.94 199.88 171.83 200.02 171.23 200.79 Z M 170.65 201.54 L 170.00 202.38 C 169.40 203.15 169.53 204.26 170.30 204.86 C 171.07 205.46 172.18 205.33 172.78 204.56 L 173.43 203.72 C 174.03 202.95 173.90 201.84 173.13 201.24 C 172.36 200.64 171.25 200.78 170.65 201.54 Z M 170.00 202.39 L 169.36 203.20 C 168.76 203.97 168.90 205.07 169.66 205.67 C 170.43 206.27 171.53 206.14 172.13 205.37 L 172.77 204.56 C 173.37 203.79 173.24 202.68 172.47 202.09 C 171.71 201.49 170.60 201.62 170.00 202.39 Z M 169.37 203.20 L 168.74 204.00 C 168.14 204.76 168.27 205.86 169.03 206.46 C 169.79 207.06 170.89 206.93 171.49 206.17 L 172.12 205.37 C 172.72 204.61 172.59 203.51 171.83 202.91 C 171.07 202.31 169.97 202.44 169.37 203.20 Z M 168.75 204.00 L 168.13 204.78 C 167.53 205.53 167.66 206.63 168.41 207.23 C 169.17 207.83 170.27 207.70 170.87 206.95 L 171.48 206.17 C 172.08 205.42 171.96 204.32 171.20 203.72 C 170.45 203.12 169.35 203.25 168.75 204.00 Z M 168.15 204.77 L 167.54 205.53 C 166.93 206.28 167.05 207.37 167.80 207.97 C 168.55 208.58 169.64 208.46 170.25 207.71 L 170.85 206.95 C 171.46 206.21 171.34 205.11 170.59 204.51 C 169.84 203.91 168.75 204.02 168.15 204.77 Z M 167.55 205.52 L 166.95 206.26 C 166.34 207.00 166.45 208.09 167.19 208.69 C 167.93 209.30 169.02 209.19 169.63 208.45 L 170.23 207.72 C 170.84 206.98 170.73 205.88 169.99 205.28 C 169.25 204.67 168.16 204.78 167.55 205.52 Z M 166.97 206.25 L 166.33 207.01 C 165.72 207.74 165.82 208.83 166.55 209.44 C 167.28 210.05 168.37 209.95 168.98 209.22 L 169.61 208.46 C 170.23 207.73 170.13 206.64 169.39 206.03 C 168.66 205.42 167.58 205.52 166.97 206.25 Z M 166.35 207.00 L 165.68 207.79 C 165.06 208.51 165.15 209.60 165.87 210.21 C 166.59 210.83 167.68 210.74 168.29 210.02 L 168.96 209.23 C 169.58 208.51 169.49 207.42 168.77 206.81 C 168.05 206.19 166.96 206.28 166.35 207.00 Z M 165.69 207.78 L 165.03 208.55 C 164.41 209.26 164.49 210.34 165.20 210.96 C 165.91 211.58 167.00 211.50 167.61 210.79 L 168.28 210.02 C 168.90 209.31 168.82 208.23 168.10 207.61 C 167.39 206.99 166.31 207.07 165.69 207.78 Z M 165.04 208.54 L 164.39 209.29 C 163.77 210.00 163.83 211.07 164.54 211.69 C 165.25 212.31 166.32 212.24 166.94 211.54 L 167.60 210.79 C 168.22 210.09 168.15 209.01 167.45 208.39 C 166.74 207.77 165.66 207.84 165.04 208.54 Z M 164.40 209.29 L 163.75 210.02 C 163.13 210.72 163.19 211.79 163.89 212.41 C 164.59 213.04 165.66 212.97 166.28 212.27 L 166.93 211.54 C 167.55 210.84 167.49 209.77 166.79 209.15 C 166.09 208.52 165.02 208.59 164.40 209.29 Z M 163.76 210.02 L 163.11 210.74 C 162.49 211.44 162.55 212.51 163.25 213.13 C 163.95 213.75 165.01 213.69 165.63 212.99 L 166.28 212.27 C 166.90 211.57 166.84 210.51 166.14 209.89 C 165.44 209.27 164.38 209.33 163.76 210.02 Z M 163.12 210.75 L 162.46 211.49 C 161.84 212.18 161.90 213.24 162.59 213.86 C 163.28 214.48 164.34 214.42 164.96 213.73 L 165.63 212.99 C 166.24 212.30 166.19 211.23 165.49 210.61 C 164.80 210.00 163.74 210.05 163.12 210.75 Z M 162.48 211.47 L 161.81 212.20 C 161.18 212.88 161.22 213.93 161.90 214.56 C 162.58 215.19 163.64 215.15 164.26 214.47 L 164.94 213.74 C 165.57 213.06 165.53 212.01 164.85 211.38 C 164.17 210.75 163.11 210.79 162.48 211.47 Z M 161.86 212.16 L 161.16 212.86 C 160.51 213.51 160.51 214.56 161.16 215.21 C 161.81 215.86 162.86 215.86 163.51 215.21 L 164.21 214.51 C 164.86 213.86 164.86 212.81 164.21 212.16 C 163.56 211.51 162.51 211.51 161.86 212.16 Z M 161.24 212.79 L 160.50 213.45 C 159.81 214.06 159.75 215.11 160.36 215.79 C 160.96 216.48 162.01 216.54 162.69 215.93 L 163.44 215.27 C 164.12 214.67 164.18 213.62 163.58 212.94 C 162.97 212.25 161.92 212.19 161.24 212.79 Z M 160.60 213.37 L 159.80 213.98 C 159.07 214.52 158.93 215.56 159.48 216.29 C 160.02 217.01 161.06 217.16 161.78 216.61 L 162.59 216.01 C 163.31 215.46 163.46 214.43 162.91 213.70 C 162.37 212.97 161.33 212.83 160.60 213.37 Z M 159.94 213.90 L 159.09 214.41 C 158.32 214.88 158.08 215.90 158.55 216.67 C 159.03 217.44 160.04 217.68 160.81 217.21 L 161.65 216.69 C 162.42 216.22 162.67 215.21 162.19 214.44 C 161.72 213.66 160.71 213.42 159.94 213.90 Z M 159.22 214.35 L 158.38 214.77 C 157.57 215.17 157.24 216.15 157.64 216.96 C 158.04 217.77 159.02 218.10 159.83 217.70 L 160.68 217.27 C 161.49 216.87 161.82 215.89 161.42 215.08 C 161.01 214.27 160.03 213.94 159.22 214.35 Z M 158.48 214.73 L 157.58 215.10 C 156.75 215.45 156.35 216.40 156.70 217.23 C 157.05 218.06 158.00 218.46 158.83 218.11 L 159.73 217.74 C 160.56 217.39 160.95 216.44 160.61 215.61 C 160.26 214.77 159.31 214.38 158.48 214.73 Z M 157.66 215.08 L 156.71 215.42 C 155.87 215.72 155.43 216.65 155.73 217.49 C 156.03 218.34 156.96 218.78 157.81 218.47 L 158.75 218.13 C 159.60 217.83 160.03 216.90 159.73 216.06 C 159.43 215.21 158.50 214.78 157.66 215.08 Z M 156.77 215.40 L 155.79 215.72 C 154.94 215.99 154.47 216.90 154.74 217.75 C 155.02 218.60 155.93 219.07 156.78 218.80 L 157.75 218.49 C 158.60 218.21 159.07 217.30 158.80 216.45 C 158.53 215.60 157.62 215.13 156.77 215.40 Z M 155.83 215.71 L 154.83 216.01 C 153.98 216.26 153.49 217.16 153.74 218.01 C 154.00 218.86 154.89 219.35 155.75 219.10 L 156.74 218.80 C 157.60 218.55 158.08 217.65 157.83 216.80 C 157.58 215.95 156.68 215.46 155.83 215.71 Z M 154.84 216.01 L 154.07 216.23 C 153.21 216.48 152.72 217.37 152.97 218.22 C 153.21 219.07 154.10 219.56 154.95 219.32 L 155.73 219.10 C 156.58 218.85 157.08 217.96 156.83 217.11 C 156.59 216.26 155.70 215.76 154.84 216.01 Z"
      fill="black"
      fill-rule="nonzero" /><path d="M 197.24 171.13 L 197.67 172.02 C 198.09 172.90 199.14 173.27 200.01 172.85 C 200.89 172.44 201.26 171.39 200.84 170.51 L 200.41 169.62 C 200.00 168.74 198.95 168.37 198.07 168.79 C 197.20 169.20 196.82 170.25 197.24 171.13 Z M 197.66 172.04 L 198.09 172.93 C 198.51 173.82 199.57 174.19 200.45 173.76 C 201.34 173.34 201.71 172.28 201.28 171.40 L 200.85 170.50 C 200.43 169.62 199.37 169.25 198.49 169.67 C 197.61 170.10 197.24 171.15 197.66 172.04 Z M 198.08 172.95 L 198.52 173.85 C 198.95 174.73 200.02 175.10 200.91 174.67 C 201.79 174.24 202.16 173.17 201.73 172.28 L 201.29 171.38 C 200.86 170.50 199.79 170.13 198.90 170.56 C 198.02 170.99 197.65 172.06 198.08 172.95 Z M 198.51 173.87 L 198.96 174.76 C 199.40 175.65 200.48 176.02 201.37 175.57 C 202.27 175.13 202.63 174.05 202.18 173.16 L 201.74 172.26 C 201.29 171.37 200.21 171.01 199.32 171.45 C 198.43 171.89 198.07 172.98 198.51 173.87 Z M 198.95 174.79 L 199.41 175.69 C 199.87 176.58 200.97 176.93 201.86 176.47 C 202.75 176.02 203.11 174.92 202.65 174.03 L 202.19 173.13 C 201.73 172.24 200.64 171.89 199.74 172.34 C 198.85 172.80 198.50 173.90 198.95 174.79 Z M 199.41 175.72 L 199.87 176.59 C 200.35 177.48 201.46 177.82 202.35 177.35 C 203.25 176.87 203.59 175.76 203.11 174.87 L 202.65 174.00 C 202.18 173.10 201.07 172.76 200.17 173.24 C 199.28 173.71 198.94 174.82 199.41 175.72 Z M 199.87 176.62 L 200.34 177.48 C 200.84 178.38 201.96 178.71 202.86 178.22 C 203.76 177.72 204.08 176.60 203.59 175.70 L 203.12 174.84 C 202.62 173.94 201.50 173.61 200.60 174.10 C 199.70 174.60 199.38 175.72 199.87 176.62 Z M 200.34 177.52 L 200.83 178.38 C 201.35 179.28 202.49 179.60 203.39 179.08 C 204.28 178.57 204.60 177.43 204.09 176.53 L 203.59 175.67 C 203.08 174.77 201.94 174.46 201.04 174.97 C 200.14 175.48 199.83 176.62 200.34 177.52 Z M 200.83 178.42 L 201.35 179.29 C 201.88 180.18 203.04 180.48 203.94 179.95 C 204.83 179.42 205.13 178.26 204.60 177.36 L 204.09 176.49 C 203.55 175.60 202.39 175.30 201.50 175.83 C 200.60 176.36 200.30 177.52 200.83 178.42 Z M 201.35 179.32 L 201.88 180.19 C 202.43 181.09 203.61 181.37 204.51 180.81 C 205.41 180.26 205.69 179.08 205.13 178.19 L 204.60 177.32 C 204.04 176.42 202.87 176.14 201.97 176.70 C 201.07 177.25 200.79 178.43 201.35 179.32 Z M 201.89 180.23 L 202.42 181.06 C 203.00 181.96 204.19 182.22 205.08 181.64 C 205.98 181.07 206.24 179.88 205.66 178.98 L 205.13 178.15 C 204.55 177.25 203.36 176.99 202.47 177.57 C 201.57 178.14 201.31 179.33 201.89 180.23 Z M 202.43 181.10 L 202.97 181.90 C 203.56 182.79 204.76 183.04 205.65 182.44 C 206.54 181.85 206.78 180.65 206.19 179.76 L 205.66 178.95 C 205.06 178.06 203.86 177.82 202.97 178.41 C 202.08 179.00 201.84 180.21 202.43 181.10 Z M 202.98 181.93 L 203.53 182.74 C 204.13 183.63 205.34 183.86 206.23 183.25 C 207.11 182.65 207.34 181.44 206.74 180.55 L 206.19 179.74 C 205.58 178.85 204.37 178.62 203.49 179.23 C 202.60 179.83 202.37 181.04 202.98 181.93 Z M 203.53 182.75 L 204.10 183.58 C 204.71 184.46 205.92 184.68 206.81 184.07 C 207.70 183.46 207.92 182.25 207.31 181.36 L 206.74 180.54 C 206.13 179.65 204.91 179.43 204.03 180.04 C 203.14 180.66 202.92 181.87 203.53 182.75 Z M 204.10 183.58 L 204.68 184.42 C 205.29 185.31 206.51 185.53 207.40 184.91 C 208.28 184.29 208.50 183.08 207.89 182.19 L 207.31 181.35 C 206.69 180.47 205.47 180.25 204.59 180.86 C 203.70 181.48 203.48 182.70 204.10 183.58 Z M 204.67 184.42 L 205.26 185.27 C 205.88 186.16 207.10 186.38 207.99 185.77 C 208.88 185.15 209.10 183.93 208.48 183.04 L 207.89 182.19 C 207.28 181.30 206.06 181.08 205.17 181.69 C 204.28 182.31 204.05 183.53 204.67 184.42 Z M 205.25 185.27 L 205.80 186.07 C 206.42 186.97 207.64 187.19 208.54 186.58 C 209.43 185.96 209.66 184.74 209.04 183.84 L 208.49 183.04 C 207.88 182.15 206.65 181.92 205.76 182.53 C 204.86 183.15 204.64 184.37 205.25 185.27 Z M 205.80 186.06 L 206.34 186.86 C 206.95 187.76 208.18 187.99 209.07 187.38 C 209.97 186.77 210.21 185.55 209.59 184.65 L 209.05 183.85 C 208.44 182.95 207.22 182.72 206.32 183.33 C 205.42 183.94 205.19 185.17 205.80 186.06 Z M 206.34 186.86 L 206.89 187.67 C 207.50 188.57 208.72 188.81 209.62 188.20 C 210.52 187.59 210.76 186.37 210.15 185.47 L 209.60 184.65 C 208.99 183.75 207.77 183.52 206.87 184.13 C 205.97 184.73 205.73 185.96 206.34 186.86 Z M 206.88 187.67 L 207.44 188.50 C 208.05 189.40 209.27 189.64 210.17 189.03 C 211.08 188.43 211.32 187.20 210.71 186.30 L 210.15 185.47 C 209.55 184.57 208.32 184.33 207.42 184.94 C 206.52 185.54 206.28 186.77 206.88 187.67 Z M 207.44 188.50 L 208.01 189.34 C 208.61 190.25 209.83 190.49 210.74 189.88 C 211.64 189.28 211.88 188.06 211.28 187.15 L 210.71 186.31 C 210.11 185.40 208.88 185.16 207.98 185.76 C 207.08 186.37 206.83 187.59 207.44 188.50 Z M 208.00 189.34 L 208.58 190.20 C 209.18 191.11 210.41 191.35 211.31 190.75 C 212.22 190.14 212.46 188.92 211.86 188.02 L 211.28 187.15 C 210.68 186.25 209.45 186.00 208.55 186.61 C 207.64 187.21 207.40 188.44 208.00 189.34 Z M 208.58 190.20 L 209.15 191.06 C 209.75 191.96 210.98 192.21 211.88 191.61 C 212.79 191.00 213.03 189.78 212.43 188.87 L 211.86 188.02 C 211.25 187.11 210.03 186.87 209.12 187.47 C 208.22 188.07 207.97 189.30 208.58 190.20 Z M 209.15 191.06 L 209.70 191.89 C 210.31 192.80 211.53 193.04 212.43 192.44 C 213.34 191.83 213.59 190.61 212.98 189.71 L 212.43 188.87 C 211.83 187.97 210.60 187.72 209.70 188.33 C 208.79 188.93 208.55 190.15 209.15 191.06 Z M 209.70 191.89 L 210.26 192.73 C 210.86 193.63 212.08 193.88 212.99 193.28 C 213.90 192.68 214.14 191.45 213.54 190.55 L 212.98 189.71 C 212.38 188.80 211.16 188.55 210.25 189.16 C 209.35 189.76 209.10 190.98 209.70 191.89 Z M 210.26 192.72 L 210.81 193.57 C 211.41 194.47 212.63 194.72 213.54 194.13 C 214.45 193.53 214.70 192.30 214.10 191.40 L 213.54 190.55 C 212.94 189.64 211.72 189.39 210.82 189.99 C 209.91 190.59 209.66 191.81 210.26 192.72 Z M 210.81 193.56 L 211.36 194.40 C 211.96 195.31 213.18 195.57 214.09 194.97 C 215.00 194.38 215.25 193.16 214.66 192.25 L 214.10 191.40 C 213.51 190.49 212.29 190.24 211.38 190.83 C 210.47 191.43 210.21 192.65 210.81 193.56 Z M 211.36 194.40 L 211.90 195.24 C 212.49 196.15 213.71 196.41 214.62 195.82 C 215.54 195.23 215.80 194.01 215.21 193.10 L 214.66 192.26 C 214.07 191.34 212.85 191.08 211.94 191.67 C 211.03 192.26 210.77 193.48 211.36 194.40 Z M 211.89 195.23 L 212.43 196.06 C 213.01 196.97 214.23 197.24 215.14 196.66 C 216.06 196.07 216.33 194.86 215.74 193.94 L 215.21 193.11 C 214.63 192.19 213.41 191.92 212.49 192.51 C 211.58 193.09 211.31 194.31 211.89 195.23 Z M 212.42 196.04 L 212.96 196.90 C 213.54 197.82 214.75 198.10 215.67 197.52 C 216.59 196.95 216.87 195.73 216.29 194.81 L 215.75 193.95 C 215.17 193.03 213.96 192.76 213.04 193.33 C 212.12 193.91 211.84 195.12 212.42 196.04 Z M 212.95 196.89 L 213.50 197.77 C 214.06 198.69 215.27 198.98 216.19 198.41 C 217.12 197.84 217.41 196.63 216.84 195.71 L 216.30 194.83 C 215.73 193.91 214.52 193.62 213.60 194.19 C 212.67 194.76 212.39 195.96 212.95 196.89 Z M 213.49 197.75 L 214.02 198.62 C 214.58 199.55 215.78 199.84 216.71 199.28 C 217.63 198.72 217.93 197.52 217.37 196.59 L 216.84 195.73 C 216.28 194.80 215.08 194.51 214.15 195.07 C 213.23 195.63 212.93 196.83 213.49 197.75 Z M 214.02 198.61 L 214.53 199.46 C 215.08 200.39 216.28 200.69 217.21 200.14 C 218.13 199.58 218.43 198.38 217.88 197.46 L 217.37 196.60 C 216.81 195.68 215.61 195.38 214.69 195.93 C 213.76 196.49 213.46 197.69 214.02 198.61 Z M 214.53 199.46 L 215.03 200.30 C 215.58 201.23 216.78 201.53 217.70 200.98 C 218.62 200.43 218.93 199.24 218.38 198.31 L 217.88 197.47 C 217.33 196.54 216.13 196.24 215.21 196.79 C 214.28 197.34 213.98 198.53 214.53 199.46 Z M 215.04 200.30 L 215.53 201.13 C 216.08 202.05 217.27 202.36 218.19 201.81 C 219.11 201.26 219.42 200.07 218.87 199.15 L 218.37 198.32 C 217.83 197.39 216.64 197.09 215.71 197.64 C 214.79 198.18 214.49 199.37 215.04 200.30 Z M 215.54 201.13 L 216.04 201.97 C 216.58 202.89 217.77 203.19 218.69 202.64 C 219.61 202.10 219.91 200.91 219.36 199.99 L 218.86 199.15 C 218.32 198.23 217.13 197.93 216.21 198.48 C 215.29 199.03 214.99 200.21 215.54 201.13 Z M 216.05 201.97 L 216.56 202.83 C 217.11 203.74 218.29 204.04 219.20 203.50 C 220.12 202.95 220.41 201.77 219.87 200.86 L 219.35 199.99 C 218.81 199.08 217.63 198.78 216.71 199.33 C 215.80 199.87 215.50 201.05 216.05 201.97 Z M 216.57 202.82 L 217.08 203.68 C 217.62 204.59 218.80 204.89 219.70 204.35 C 220.61 203.81 220.91 202.64 220.37 201.73 L 219.86 200.87 C 219.32 199.96 218.15 199.66 217.24 200.20 C 216.33 200.74 216.03 201.91 216.57 202.82 Z M 217.09 203.67 L 217.59 204.53 C 218.12 205.43 219.29 205.74 220.19 205.21 C 221.10 204.68 221.40 203.51 220.87 202.61 L 220.37 201.74 C 219.84 200.84 218.67 200.53 217.77 201.06 C 216.86 201.59 216.56 202.76 217.09 203.67 Z M 217.59 204.50 L 218.09 205.37 C 218.60 206.28 219.76 206.59 220.66 206.07 C 221.57 205.56 221.88 204.40 221.37 203.50 L 220.87 202.63 C 220.35 201.72 219.20 201.41 218.29 201.93 C 217.39 202.44 217.07 203.60 217.59 204.50 Z M 218.08 205.34 L 218.56 206.21 C 219.06 207.12 220.21 207.45 221.11 206.95 C 222.02 206.45 222.35 205.31 221.85 204.40 L 221.37 203.53 C 220.87 202.62 219.73 202.29 218.82 202.79 C 217.91 203.29 217.58 204.43 218.08 205.34 Z M 218.56 206.17 L 219.03 207.06 C 219.51 207.97 220.63 208.32 221.54 207.84 C 222.46 207.36 222.80 206.23 222.32 205.32 L 221.86 204.44 C 221.38 203.52 220.25 203.18 219.34 203.66 C 218.43 204.14 218.08 205.26 218.56 206.17 Z M 219.02 207.02 L 219.47 207.93 C 219.93 208.84 221.04 209.21 221.95 208.76 C 222.87 208.30 223.24 207.19 222.78 206.28 L 222.33 205.37 C 221.87 204.45 220.76 204.08 219.85 204.54 C 218.94 204.99 218.56 206.10 219.02 207.02 Z M 219.47 207.88 L 219.91 208.80 C 220.34 209.72 221.43 210.11 222.34 209.68 C 223.26 209.25 223.65 208.16 223.22 207.24 L 222.79 206.32 C 222.36 205.41 221.26 205.02 220.35 205.45 C 219.43 205.88 219.04 206.97 219.47 207.88 Z M 219.90 208.76 L 220.31 209.68 C 220.72 210.59 221.79 211.01 222.70 210.60 C 223.62 210.20 224.03 209.12 223.63 208.21 L 223.22 207.29 C 222.81 206.37 221.74 205.96 220.83 206.36 C 219.91 206.77 219.50 207.84 219.90 208.76 Z M 220.31 209.63 L 220.69 210.55 C 221.07 211.47 222.12 211.90 223.04 211.52 C 223.96 211.14 224.39 210.09 224.01 209.17 L 223.63 208.25 C 223.25 207.34 222.20 206.90 221.28 207.29 C 220.37 207.67 219.93 208.72 220.31 209.63 Z M 220.69 210.50 L 221.05 211.42 C 221.40 212.33 222.43 212.79 223.35 212.43 C 224.26 212.08 224.72 211.05 224.36 210.14 L 224.01 209.22 C 223.66 208.31 222.63 207.85 221.71 208.20 C 220.80 208.56 220.34 209.59 220.69 210.50 Z M 221.05 211.37 L 221.37 212.28 C 221.70 213.20 222.71 213.67 223.62 213.35 C 224.54 213.02 225.01 212.01 224.69 211.10 L 224.36 210.19 C 224.04 209.27 223.03 208.79 222.11 209.12 C 221.20 209.45 220.72 210.45 221.05 211.37 Z M 221.38 212.22 L 221.67 213.14 C 221.97 214.06 222.95 214.56 223.86 214.26 C 224.78 213.97 225.28 212.99 224.98 212.07 L 224.69 211.15 C 224.39 210.24 223.41 209.74 222.50 210.03 C 221.58 210.33 221.08 211.31 221.38 212.22 Z M 221.68 213.08 L 221.94 214.01 C 222.20 214.92 223.15 215.45 224.07 215.19 C 224.98 214.93 225.51 213.98 225.25 213.06 L 224.98 212.14 C 224.72 211.22 223.77 210.70 222.85 210.96 C 221.94 211.22 221.41 212.17 221.68 213.08 Z M 221.94 213.94 L 222.18 214.89 C 222.40 215.80 223.32 216.36 224.23 216.14 C 225.14 215.91 225.70 214.99 225.48 214.08 L 225.24 213.13 C 225.02 212.22 224.10 211.66 223.19 211.89 C 222.28 212.11 221.72 213.03 221.94 213.94 Z M 222.18 214.83 L 222.39 215.82 C 222.58 216.72 223.46 217.31 224.37 217.12 C 225.28 216.93 225.86 216.04 225.67 215.14 L 225.47 214.15 C 225.28 213.24 224.39 212.66 223.49 212.84 C 222.58 213.03 222.00 213.92 222.18 214.83 Z M 222.40 215.75 L 222.57 216.80 C 222.73 217.70 223.58 218.31 224.48 218.15 C 225.39 218.00 225.99 217.15 225.84 216.24 L 225.67 215.20 C 225.51 214.30 224.66 213.69 223.76 213.84 C 222.85 214.00 222.25 214.85 222.40 215.75 Z M 222.58 216.74 L 222.71 217.70 C 222.84 218.60 223.66 219.22 224.56 219.10 C 225.46 218.98 226.09 218.15 225.96 217.26 L 225.83 216.30 C 225.71 215.40 224.88 214.77 223.99 214.90 C 223.09 215.02 222.46 215.84 222.58 216.74 Z M 222.72 217.66 L 222.83 218.59 C 222.93 219.49 223.73 220.13 224.63 220.03 C 225.52 219.93 226.16 219.12 226.06 218.23 L 225.96 217.30 C 225.86 216.40 225.05 215.76 224.16 215.86 C 223.26 215.96 222.62 216.77 222.72 217.66 Z M 222.83 218.56 L 222.93 219.54 C 223.01 220.42 223.80 221.08 224.69 220.99 C 225.58 220.91 226.23 220.12 226.15 219.23 L 226.05 218.26 C 225.97 217.37 225.18 216.72 224.29 216.80 C 223.40 216.89 222.75 217.67 222.83 218.56 Z M 222.93 219.51 L 223.01 220.51 C 223.09 221.40 223.86 222.06 224.75 221.99 C 225.63 221.91 226.29 221.14 226.22 220.25 L 226.14 219.25 C 226.07 218.37 225.29 217.71 224.41 217.78 C 223.52 217.85 222.86 218.63 222.93 219.51 Z M 223.02 220.50 L 223.10 221.52 C 223.16 222.40 223.92 223.06 224.80 223.00 C 225.68 222.94 226.34 222.17 226.28 221.29 L 226.21 220.27 C 226.15 219.39 225.38 218.73 224.50 218.79 C 223.62 218.85 222.96 219.62 223.02 220.50 Z M 223.11 221.51 L 223.17 222.55 C 223.23 223.42 223.98 224.09 224.86 224.03 C 225.73 223.98 226.40 223.22 226.34 222.35 L 226.27 221.31 C 226.22 220.43 225.46 219.77 224.59 219.82 C 223.71 219.88 223.05 220.63 223.11 221.51 Z M 223.18 222.54 L 223.24 223.59 C 223.30 224.46 224.04 225.12 224.91 225.07 C 225.78 225.02 226.45 224.27 226.39 223.40 L 226.33 222.35 C 226.28 221.48 225.53 220.82 224.66 220.87 C 223.79 220.93 223.13 221.67 223.18 222.54 Z M 223.25 223.59 L 223.28 224.04 C 223.33 224.91 224.07 225.57 224.94 225.52 C 225.80 225.47 226.46 224.72 226.41 223.86 L 226.39 223.41 C 226.33 222.54 225.59 221.88 224.73 221.93 C 223.86 221.98 223.20 222.72 223.25 223.59 Z"
      fill="black"
      fill-rule="nonzero" /></svg>