<svg xmlns="http://www.w3.org/2000/svg" width="300" height="300" viewBox="0 0 300 300">
<path d="M 64.02 77.97 L 63.52 77.10 C 63.12 76.40 62.23 76.15 61.53 76.55 C 60.83 76.95 60.58 77.84 60.98 78.54 L 61.48 79.41 C 61.88 80.12 62.77 80.36 63.47 79.96 C 64.17 79.56 64.42 78.67 64.02 77.97 Z M 63.54 77.11 L 63.05 76.23 C 62.66 75.52 61.76 75.27 61.05 75.66 C 60.34 76.06 60.09 76.96 60.48 77.67 L 60.97 78.54 C 61.36 79.25 62.26 79.50 62.97 79.11 C 63.68 78.71 63.93 77.82 63.54 77.11 Z M 63.07 76.25 L 62.60 75.37 C 62.22 74.65 61.32 74.37 60.60 74.76 C 59.87 75.15 59.60 76.04 59.99 76.77 L 60.46 77.65 C 60.84 78.37 61.74 78.64 62.46 78.26 C 63.19 77.87 63.46 76.97 63.07 76.25 Z M 62.63 75.40 L 62.18 74.50 C 61.81 73.76 60.92 73.47 60.18 73.83 C 59.44 74.20 59.14 75.10 59.51 75.83 L 59.96 76.73 C 60.33 77.47 61.22 77.77 61.96 77.40 C 62.70 77.03 63.00 76.14 62.63 75.40 Z M 62.21 74.55 L 61.80 73.64 C 61.46 72.88 60.57 72.54 59.81 72.89 C 59.06 73.23 58.72 74.12 59.06 74.87 L 59.48 75.79 C 59.82 76.54 60.71 76.88 61.47 76.54 C 62.22 76.19 62.56 75.30 62.21 74.55 Z M 61.84 73.70 L 61.47 72.78 C 61.17 72.00 60.29 71.62 59.51 71.92 C 58.74 72.23 58.36 73.11 58.66 73.88 L 59.03 74.81 C 59.33 75.58 60.21 75.97 60.99 75.66 C 61.76 75.36 62.14 74.48 61.84 73.70 Z M 61.54 72.87 L 61.16 71.67 C 60.91 70.86 60.04 70.41 59.23 70.67 C 58.42 70.92 57.97 71.78 58.23 72.59 L 58.60 73.79 C 58.86 74.60 59.72 75.05 60.53 74.80 C 61.34 74.54 61.79 73.68 61.54 72.87 Z M 61.26 71.82 L 61.06 70.81 C 60.88 69.95 60.04 69.39 59.18 69.56 C 58.32 69.73 57.76 70.57 57.93 71.43 L 58.13 72.44 C 58.30 73.31 59.14 73.87 60.00 73.70 C 60.87 73.52 61.43 72.68 61.26 71.82 Z M 60.40 72.50 L 60.56 72.39 C 61.32 71.89 61.53 70.86 61.02 70.11 C 60.52 69.35 59.50 69.14 58.74 69.65 L 58.58 69.75 C 57.82 70.26 57.62 71.28 58.12 72.04 C 58.62 72.79 59.65 73.00 60.40 72.50 Z M 58.20 71.85 L 58.65 72.65 C 59.11 73.45 60.13 73.73 60.94 73.28 C 61.74 72.82 62.02 71.80 61.56 70.99 L 61.10 70.19 C 60.65 69.39 59.62 69.11 58.82 69.56 C 58.02 70.02 57.74 71.04 58.20 71.85 Z M 58.56 72.49 L 59.09 73.72 C 59.46 74.57 60.46 74.96 61.31 74.59 C 62.16 74.22 62.55 73.23 62.18 72.38 L 61.65 71.15 C 61.28 70.30 60.29 69.91 59.44 70.28 C 58.59 70.65 58.19 71.64 58.56 72.49 Z M 59.06 73.63 L 59.37 74.49 C 59.70 75.36 60.67 75.81 61.54 75.49 C 62.42 75.16 62.86 74.19 62.54 73.32 L 62.22 72.46 C 61.90 71.59 60.93 71.14 60.05 71.46 C 59.18 71.79 58.73 72.76 59.06 73.63 Z M 59.35 74.44 L 59.66 75.36 C 59.96 76.25 60.92 76.72 61.80 76.43 C 62.69 76.13 63.16 75.17 62.87 74.29 L 62.56 73.36 C 62.26 72.48 61.30 72.00 60.42 72.30 C 59.53 72.60 59.06 73.56 59.35 74.44 Z M 59.65 75.33 L 59.96 76.32 C 60.24 77.21 61.19 77.71 62.08 77.43 C 62.97 77.15 63.47 76.20 63.19 75.31 L 62.88 74.32 C 62.60 73.43 61.65 72.93 60.76 73.21 C 59.87 73.49 59.37 74.44 59.65 75.33 Z M 59.96 76.30 L 60.27 77.35 C 60.54 78.24 61.49 78.75 62.38 78.48 C 63.27 78.21 63.78 77.27 63.51 76.38 L 63.19 75.33 C 62.93 74.43 61.98 73.93 61.09 74.20 C 60.20 74.47 59.69 75.41 59.96 76.30 Z M 60.27 77.34 L 60.56 78.32 C 60.83 79.21 61.77 79.73 62.66 79.46 C 63.56 79.20 64.07 78.25 63.80 77.36 L 63.51 76.38 C 63.25 75.49 62.31 74.98 61.41 75.24 C 60.52 75.51 60.01 76.45 60.27 77.34 Z M 60.56 78.31 L 60.85 79.31 C 61.11 80.21 62.05 80.72 62.95 80.46 C 63.84 80.19 64.36 79.26 64.10 78.36 L 63.80 77.36 C 63.54 76.47 62.60 75.95 61.71 76.22 C 60.81 76.48 60.30 77.42 60.56 78.31 Z M 60.85 79.30 L 61.13 80.29 C 61.39 81.18 62.33 81.70 63.23 81.44 C 64.12 81.18 64.64 80.24 64.38 79.35 L 64.10 78.36 C 63.84 77.47 62.90 76.95 62.00 77.21 C 61.11 77.47 60.59 78.41 60.85 79.30 Z M 61.13 80.28 L 61.40 81.22 C 61.66 82.12 62.59 82.63 63.49 82.38 C 64.39 82.12 64.91 81.18 64.65 80.29 L 64.38 79.35 C 64.13 78.45 63.19 77.93 62.29 78.19 C 61.39 78.45 60.87 79.38 61.13 80.28 Z M 61.40 81.21 L 61.68 82.20 C 61.93 83.10 62.87 83.62 63.77 83.37 C 64.66 83.11 65.19 82.18 64.93 81.28 L 64.65 80.29 C 64.40 79.39 63.46 78.87 62.56 79.12 C 61.67 79.38 61.14 80.31 61.40 81.21 Z M 61.68 82.19 L 61.96 83.22 C 62.21 84.12 63.15 84.65 64.05 84.39 C 64.95 84.14 65.47 83.21 65.22 82.31 L 64.93 81.29 C 64.68 80.39 63.75 79.86 62.85 80.11 C 61.95 80.36 61.43 81.30 61.68 82.19 Z M 61.96 83.21 L 62.21 84.13 C 62.46 85.03 63.39 85.56 64.29 85.32 C 65.19 85.07 65.72 84.14 65.48 83.24 L 65.22 82.32 C 64.97 81.42 64.04 80.89 63.14 81.14 C 62.24 81.38 61.71 82.31 61.96 83.21 Z M 62.21 84.13 L 62.45 85.00 C 62.70 85.90 63.63 86.43 64.53 86.19 C 65.43 85.94 65.96 85.01 65.71 84.11 L 65.48 83.24 C 65.23 82.34 64.30 81.81 63.40 82.05 C 62.50 82.30 61.97 83.23 62.21 84.13 Z M 62.45 85.00 L 62.72 85.97 C 62.96 86.87 63.89 87.40 64.79 87.15 C 65.69 86.90 66.22 85.97 65.98 85.07 L 65.71 84.11 C 65.47 83.21 64.54 82.68 63.64 82.93 C 62.74 83.17 62.21 84.10 62.45 85.00 Z M 62.72 85.97 L 62.99 86.94 C 63.24 87.84 64.17 88.36 65.07 88.11 C 65.97 87.86 66.49 86.93 66.24 86.03 L 65.98 85.07 C 65.72 84.17 64.79 83.64 63.89 83.89 C 62.99 84.14 62.47 85.07 62.72 85.97 Z M 62.99 86.95 L 63.27 87.91 C 63.53 88.81 64.47 89.33 65.36 89.07 C 66.26 88.81 66.78 87.87 66.52 86.98 L 66.24 86.01 C 65.98 85.12 65.04 84.60 64.15 84.86 C 63.25 85.12 62.73 86.06 62.99 86.95 Z M 63.27 87.93 L 63.56 88.87 C 63.83 89.76 64.77 90.27 65.67 90.00 C 66.56 89.73 67.07 88.79 66.79 87.89 L 66.51 86.96 C 66.24 86.06 65.30 85.56 64.40 85.83 C 63.51 86.10 63.00 87.04 63.27 87.93 Z M 63.56 88.89 L 63.86 89.83 C 64.14 90.73 65.09 91.22 65.98 90.94 C 66.87 90.67 67.37 89.72 67.09 88.83 L 66.79 87.88 C 66.51 86.99 65.56 86.49 64.67 86.77 C 63.78 87.05 63.28 87.99 63.56 88.89 Z M 63.86 89.84 L 64.17 90.82 C 64.45 91.71 65.41 92.20 66.30 91.92 C 67.19 91.63 67.68 90.68 67.39 89.79 L 67.08 88.82 C 66.80 87.93 65.85 87.44 64.96 87.72 C 64.07 88.00 63.58 88.95 63.86 89.84 Z M 64.17 90.82 L 64.48 91.77 C 64.76 92.66 65.71 93.15 66.60 92.87 C 67.49 92.58 67.98 91.63 67.70 90.74 L 67.39 89.79 C 67.11 88.90 66.16 88.41 65.27 88.70 C 64.38 88.98 63.89 89.93 64.17 90.82 Z M 64.48 91.78 L 64.79 92.73 C 65.08 93.62 66.03 94.11 66.92 93.82 C 67.81 93.54 68.29 92.58 68.01 91.69 L 67.70 90.74 C 67.41 89.85 66.45 89.36 65.57 89.65 C 64.68 89.93 64.19 90.89 64.48 91.78 Z M 64.79 92.74 L 65.11 93.70 C 65.40 94.59 66.36 95.07 67.24 94.77 C 68.13 94.48 68.61 93.52 68.32 92.64 L 68.00 91.68 C 67.71 90.80 66.75 90.32 65.87 90.61 C 64.98 90.90 64.50 91.86 64.79 92.74 Z M 65.11 93.71 L 65.44 94.67 C 65.74 95.55 66.70 96.03 67.58 95.72 C 68.47 95.42 68.94 94.46 68.64 93.58 L 68.31 92.62 C 68.01 91.74 67.05 91.27 66.17 91.57 C 65.28 91.87 64.81 92.83 65.11 93.71 Z M 65.45 94.69 L 65.78 95.64 C 66.10 96.52 67.06 96.98 67.94 96.66 C 68.82 96.35 69.28 95.39 68.97 94.51 L 68.63 93.56 C 68.32 92.68 67.35 92.22 66.47 92.53 C 65.59 92.84 65.13 93.81 65.45 94.69 Z M 65.79 95.66 L 66.13 96.59 C 66.46 97.46 67.43 97.91 68.31 97.58 C 69.18 97.26 69.63 96.29 69.30 95.41 L 68.96 94.49 C 68.64 93.61 67.66 93.16 66.79 93.49 C 65.91 93.81 65.47 94.78 65.79 95.66 Z M 66.14 96.61 L 66.49 97.53 C 66.83 98.40 67.81 98.83 68.68 98.50 C 69.55 98.16 69.99 97.18 69.65 96.31 L 69.30 95.39 C 68.96 94.52 67.98 94.09 67.11 94.42 C 66.24 94.76 65.81 95.74 66.14 96.61 Z M 66.50 97.55 L 66.87 98.47 C 67.22 99.33 68.20 99.75 69.07 99.41 C 69.94 99.06 70.36 98.08 70.01 97.21 L 69.64 96.29 C 69.29 95.42 68.31 95.00 67.44 95.35 C 66.58 95.70 66.16 96.68 66.50 97.55 Z M 66.88 98.49 L 67.27 99.41 C 67.63 100.28 68.62 100.68 69.48 100.32 C 70.34 99.96 70.75 98.97 70.39 98.11 L 70.00 97.18 C 69.64 96.32 68.65 95.92 67.79 96.28 C 66.93 96.64 66.52 97.63 66.88 98.49 Z M 67.28 99.44 L 67.68 100.36 C 68.06 101.22 69.06 101.61 69.91 101.23 C 70.77 100.86 71.15 99.86 70.78 99.01 L 70.38 98.08 C 70.00 97.23 69.00 96.84 68.15 97.21 C 67.29 97.59 66.90 98.59 67.28 99.44 Z M 67.69 100.39 L 68.10 101.28 C 68.49 102.13 69.49 102.51 70.34 102.12 C 71.19 101.73 71.57 100.73 71.18 99.88 L 70.77 98.98 C 70.38 98.13 69.38 97.76 68.53 98.15 C 67.68 98.54 67.31 99.54 67.69 100.39 Z M 68.11 101.30 L 68.53 102.20 C 68.93 103.05 69.94 103.42 70.78 103.02 C 71.63 102.62 71.99 101.62 71.60 100.77 L 71.17 99.86 C 70.78 99.02 69.77 98.65 68.93 99.05 C 68.08 99.44 67.71 100.45 68.11 101.30 Z M 68.54 102.21 L 68.97 103.13 C 69.36 103.97 70.37 104.33 71.22 103.94 C 72.06 103.54 72.42 102.53 72.03 101.69 L 71.60 100.77 C 71.20 99.92 70.19 99.56 69.35 99.96 C 68.50 100.36 68.14 101.36 68.54 102.21 Z M 68.97 103.12 L 69.38 104.01 C 69.78 104.86 70.78 105.22 71.63 104.83 C 72.47 104.43 72.84 103.43 72.44 102.58 L 72.03 101.69 C 71.63 100.85 70.63 100.48 69.78 100.88 C 68.94 101.27 68.57 102.28 68.97 103.12 Z M 69.38 104.01 L 69.80 104.91 C 70.20 105.75 71.20 106.12 72.05 105.72 C 72.90 105.33 73.26 104.32 72.86 103.47 L 72.44 102.58 C 72.05 101.73 71.04 101.37 70.19 101.77 C 69.35 102.16 68.99 103.17 69.38 104.01 Z M 69.81 104.92 L 70.24 105.83 C 70.65 106.68 71.66 107.03 72.50 106.63 C 73.34 106.22 73.70 105.22 73.29 104.37 L 72.86 103.46 C 72.45 102.62 71.44 102.26 70.60 102.67 C 69.76 103.07 69.40 104.08 69.81 104.92 Z M 70.25 105.85 L 70.70 106.76 C 71.12 107.59 72.13 107.93 72.97 107.52 C 73.80 107.10 74.15 106.09 73.73 105.25 L 73.28 104.35 C 72.87 103.52 71.85 103.17 71.02 103.59 C 70.18 104.00 69.84 105.02 70.25 105.85 Z M 70.71 106.78 L 71.16 107.64 C 71.58 108.47 72.60 108.79 73.43 108.37 C 74.26 107.94 74.59 106.92 74.16 106.09 L 73.72 105.23 C 73.29 104.40 72.27 104.07 71.44 104.50 C 70.61 104.93 70.29 105.95 70.71 106.78 Z M 71.16 107.66 L 71.63 108.54 C 72.07 109.36 73.09 109.68 73.92 109.24 C 74.74 108.80 75.06 107.78 74.62 106.95 L 74.15 106.07 C 73.72 105.25 72.69 104.93 71.87 105.37 C 71.04 105.81 70.73 106.83 71.16 107.66 Z M 71.64 108.55 L 72.12 109.45 C 72.57 110.27 73.59 110.58 74.41 110.13 C 75.24 109.69 75.54 108.67 75.10 107.84 L 74.61 106.94 C 74.17 106.12 73.14 105.81 72.32 106.26 C 71.50 106.70 71.19 107.72 71.64 108.55 Z M 72.13 109.46 L 72.61 110.35 C 73.06 111.17 74.09 111.47 74.91 111.03 C 75.73 110.58 76.03 109.55 75.58 108.73 L 75.10 107.84 C 74.65 107.02 73.62 106.71 72.80 107.16 C 71.98 107.61 71.68 108.64 72.13 109.46 Z M 72.62 110.35 L 73.09 111.23 C 73.54 112.05 74.57 112.35 75.39 111.90 C 76.21 111.45 76.51 110.42 76.06 109.60 L 75.58 108.73 C 75.13 107.91 74.11 107.61 73.29 108.06 C 72.47 108.51 72.17 109.54 72.62 110.35 Z M 73.10 111.23 L 73.58 112.11 C 74.03 112.93 75.06 113.23 75.88 112.78 C 76.70 112.33 76.99 111.30 76.54 110.48 L 76.06 109.60 C 75.61 108.78 74.58 108.48 73.76 108.93 C 72.94 109.38 72.65 110.41 73.10 111.23 Z M 73.58 112.11 L 74.07 112.99 C 74.52 113.81 75.55 114.11 76.37 113.66 C 77.18 113.21 77.48 112.18 77.03 111.36 L 76.54 110.48 C 76.09 109.66 75.06 109.36 74.25 109.81 C 73.43 110.27 73.13 111.29 73.58 112.11 Z M 74.07 113.00 L 74.56 113.87 C 75.01 114.69 76.04 114.99 76.85 114.53 C 77.67 114.08 77.97 113.05 77.51 112.24 L 77.03 111.36 C 76.58 110.54 75.55 110.25 74.73 110.70 C 73.91 111.15 73.62 112.18 74.07 113.00 Z M 74.56 113.88 L 75.04 114.76 C 75.50 115.57 76.53 115.87 77.34 115.41 C 78.16 114.96 78.45 113.93 78.00 113.12 L 77.51 112.24 C 77.06 111.42 76.03 111.12 75.22 111.58 C 74.40 112.03 74.10 113.06 74.56 113.88 Z M 75.05 114.76 L 75.53 115.63 C 75.98 116.45 77.01 116.74 77.83 116.29 C 78.65 115.83 78.94 114.80 78.49 113.99 L 78.00 113.11 C 77.55 112.30 76.52 112.00 75.70 112.46 C 74.89 112.91 74.59 113.94 75.05 114.76 Z M 75.53 115.63 L 76.02 116.50 C 76.47 117.32 77.50 117.61 78.32 117.15 C 79.13 116.70 79.42 115.67 78.97 114.85 L 78.48 113.98 C 78.03 113.17 77.00 112.88 76.18 113.33 C 75.37 113.79 75.08 114.82 75.53 115.63 Z M 76.02 116.50 L 76.51 117.37 C 76.97 118.19 78.00 118.48 78.81 118.02 C 79.62 117.56 79.91 116.53 79.46 115.72 L 78.97 114.85 C 78.51 114.03 77.48 113.74 76.66 114.20 C 75.85 114.66 75.56 115.69 76.02 116.50 Z M 76.51 117.38 L 77.00 118.24 C 77.45 119.05 78.49 119.34 79.30 118.88 C 80.11 118.42 80.40 117.39 79.94 116.57 L 79.45 115.71 C 78.99 114.90 77.96 114.62 77.15 115.07 C 76.34 115.53 76.05 116.57 76.51 117.38 Z M 77.00 118.24 L 77.49 119.10 C 77.95 119.92 78.98 120.20 79.79 119.74 C 80.60 119.28 80.89 118.25 80.43 117.44 L 79.94 116.57 C 79.48 115.76 78.45 115.47 77.63 115.93 C 76.82 116.39 76.54 117.43 77.00 118.24 Z M 77.49 119.10 L 77.98 119.98 C 78.44 120.79 79.47 121.08 80.29 120.62 C 81.10 120.15 81.38 119.12 80.92 118.31 L 80.43 117.44 C 79.97 116.63 78.94 116.34 78.12 116.80 C 77.31 117.26 77.03 118.29 77.49 119.10 Z M 77.98 119.98 L 78.48 120.86 C 78.94 121.67 79.97 121.96 80.78 121.50 C 81.59 121.04 81.88 120.01 81.42 119.19 L 80.93 118.31 C 80.47 117.50 79.44 117.21 78.62 117.67 C 77.81 118.13 77.52 119.16 77.98 119.98 Z M 78.47 120.85 L 78.96 121.72 C 79.42 122.54 80.45 122.83 81.26 122.37 C 82.08 121.91 82.37 120.88 81.91 120.07 L 81.42 119.20 C 80.97 118.38 79.94 118.09 79.12 118.55 C 78.31 119.01 78.02 120.04 78.47 120.85 Z M 78.96 121.72 L 79.45 122.59 C 79.90 123.40 80.93 123.70 81.75 123.24 C 82.56 122.79 82.85 121.76 82.40 120.94 L 81.91 120.07 C 81.46 119.26 80.43 118.96 79.61 119.42 C 78.80 119.87 78.51 120.90 78.96 121.72 Z M 79.45 122.59 L 79.93 123.46 C 80.39 124.28 81.42 124.57 82.24 124.11 C 83.05 123.66 83.34 122.63 82.89 121.81 L 82.40 120.94 C 81.94 120.12 80.91 119.83 80.10 120.29 C 79.28 120.74 78.99 121.77 79.45 122.59 Z M 79.94 123.47 L 80.43 124.34 C 80.89 125.16 81.92 125.44 82.73 124.99 C 83.54 124.53 83.83 123.50 83.38 122.69 L 82.88 121.81 C 82.43 121.00 81.40 120.71 80.58 121.16 C 79.77 121.62 79.48 122.65 79.94 123.47 Z M 80.43 124.35 L 80.93 125.22 C 81.39 126.04 82.42 126.32 83.24 125.86 C 84.05 125.40 84.33 124.37 83.87 123.55 L 83.37 122.68 C 82.91 121.87 81.88 121.58 81.07 122.04 C 80.26 122.51 79.97 123.54 80.43 124.35 Z M 80.93 125.23 L 81.44 126.10 C 81.90 126.91 82.93 127.19 83.74 126.73 C 84.55 126.26 84.83 125.23 84.37 124.42 L 83.87 123.55 C 83.40 122.74 82.37 122.46 81.56 122.92 C 80.75 123.39 80.47 124.42 80.93 125.23 Z M 81.44 126.10 L 81.94 126.98 C 82.40 127.78 83.44 128.06 84.25 127.60 C 85.05 127.13 85.33 126.10 84.87 125.29 L 84.37 124.42 C 83.90 123.61 82.87 123.33 82.06 123.80 C 81.25 124.26 80.97 125.30 81.44 126.10 Z M 81.94 126.97 L 82.43 127.84 C 82.90 128.65 83.93 128.93 84.74 128.46 C 85.55 128.00 85.83 126.97 85.36 126.16 L 84.87 125.29 C 84.40 124.48 83.37 124.20 82.56 124.67 C 81.75 125.13 81.47 126.16 81.94 126.97 Z M 82.43 127.83 L 82.92 128.69 C 83.38 129.50 84.41 129.79 85.22 129.33 C 86.03 128.87 86.32 127.84 85.86 127.03 L 85.37 126.17 C 84.91 125.35 83.88 125.07 83.07 125.53 C 82.25 125.99 81.97 127.02 82.43 127.83 Z M 82.91 128.68 L 83.40 129.55 C 83.85 130.37 84.88 130.66 85.69 130.21 C 86.51 129.75 86.80 128.72 86.35 127.91 L 85.86 127.04 C 85.41 126.22 84.38 125.93 83.57 126.38 C 82.75 126.84 82.46 127.87 82.91 128.68 Z M 83.39 129.55 L 83.87 130.41 C 84.32 131.23 85.35 131.53 86.17 131.08 C 86.98 130.63 87.28 129.60 86.83 128.79 L 86.35 127.92 C 85.90 127.10 84.87 126.80 84.06 127.25 C 83.24 127.70 82.94 128.73 83.39 129.55 Z M 83.87 130.42 L 84.35 131.29 C 84.80 132.10 85.83 132.40 86.65 131.95 C 87.46 131.50 87.76 130.47 87.31 129.66 L 86.83 128.78 C 86.38 127.97 85.35 127.67 84.54 128.12 C 83.72 128.57 83.42 129.60 83.87 130.42 Z M 84.36 131.29 L 84.85 132.17 C 85.31 132.99 86.33 133.28 87.15 132.82 C 87.96 132.37 88.25 131.34 87.80 130.53 L 87.31 129.65 C 86.85 128.84 85.82 128.54 85.01 129.00 C 84.20 129.45 83.90 130.48 84.36 131.29 Z M 84.86 132.19 L 85.37 133.08 C 85.83 133.89 86.86 134.17 87.67 133.71 C 88.48 133.24 88.76 132.21 88.30 131.40 L 87.79 130.51 C 87.33 129.71 86.30 129.42 85.49 129.89 C 84.68 130.35 84.40 131.38 84.86 132.19 Z M 85.37 133.09 L 85.89 133.98 C 86.36 134.79 87.40 135.06 88.20 134.59 C 89.01 134.12 89.28 133.09 88.81 132.28 L 88.29 131.39 C 87.82 130.59 86.79 130.32 85.98 130.78 C 85.18 131.25 84.91 132.29 85.37 133.09 Z M 85.90 133.99 L 86.42 134.87 C 86.89 135.67 87.92 135.93 88.72 135.46 C 89.53 134.99 89.79 133.96 89.32 133.15 L 88.80 132.28 C 88.33 131.47 87.30 131.21 86.50 131.68 C 85.69 132.15 85.43 133.19 85.90 133.99 Z M 86.42 134.87 L 86.92 135.71 C 87.39 136.51 88.42 136.78 89.22 136.30 C 90.03 135.83 90.29 134.79 89.82 133.99 L 89.32 133.15 C 88.84 132.35 87.81 132.08 87.01 132.56 C 86.21 133.03 85.94 134.07 86.42 134.87 Z M 86.91 135.71 L 87.42 136.57 C 87.89 137.37 88.92 137.63 89.73 137.16 C 90.53 136.69 90.80 135.66 90.32 134.86 L 89.82 134.00 C 89.35 133.19 88.31 132.93 87.51 133.40 C 86.71 133.87 86.44 134.90 86.91 135.71 Z M 87.42 136.56 L 87.95 137.47 C 88.42 138.27 89.45 138.55 90.25 138.08 C 91.06 137.61 91.33 136.58 90.86 135.77 L 90.33 134.86 C 89.86 134.06 88.83 133.79 88.02 134.25 C 87.22 134.72 86.95 135.75 87.42 136.56 Z M 87.95 137.47 L 88.44 138.31 C 88.90 139.12 89.93 139.39 90.74 138.92 C 91.54 138.46 91.82 137.43 91.35 136.62 L 90.86 135.78 C 90.39 134.97 89.36 134.70 88.56 135.16 C 87.75 135.63 87.48 136.66 87.95 137.47 Z M 88.44 138.31 L 88.91 139.12 C 89.37 139.92 90.40 140.20 91.21 139.73 C 92.01 139.26 92.28 138.23 91.82 137.43 L 91.35 136.62 C 90.88 135.82 89.85 135.54 89.05 136.01 C 88.24 136.48 87.97 137.51 88.44 138.31 Z M 88.91 139.13 L 89.37 139.91 C 89.84 140.71 90.87 140.98 91.67 140.51 C 92.48 140.03 92.74 139.00 92.27 138.20 L 91.81 137.42 C 91.34 136.62 90.31 136.35 89.51 136.82 C 88.71 137.29 88.44 138.32 88.91 139.13 Z M 89.37 139.91 L 89.86 140.73 C 90.33 141.53 91.36 141.79 92.16 141.32 C 92.96 140.85 93.23 139.82 92.75 139.02 L 92.27 138.20 C 91.80 137.40 90.77 137.13 89.97 137.61 C 89.17 138.08 88.90 139.11 89.37 139.91 Z M 89.85 140.72 L 90.39 141.63 C 90.86 142.43 91.89 142.70 92.69 142.22 C 93.49 141.75 93.76 140.72 93.29 139.92 L 92.75 139.02 C 92.28 138.22 91.25 137.95 90.45 138.42 C 89.65 138.89 89.38 139.92 89.85 140.72 Z M 90.38 141.62 L 90.90 142.51 C 91.37 143.32 92.40 143.59 93.20 143.12 C 94.01 142.65 94.28 141.62 93.81 140.82 L 93.29 139.93 C 92.82 139.13 91.79 138.85 90.99 139.32 C 90.19 139.79 89.91 140.82 90.38 141.62 Z M 90.90 142.51 L 91.37 143.32 C 91.83 144.12 92.86 144.40 93.66 143.93 C 94.47 143.47 94.74 142.44 94.28 141.64 L 93.81 140.83 C 93.35 140.02 92.32 139.75 91.52 140.21 C 90.71 140.68 90.44 141.70 90.90 142.51 Z M 91.36 143.31 L 91.86 144.18 C 92.32 144.98 93.34 145.26 94.15 144.80 C 94.96 144.34 95.24 143.31 94.78 142.51 L 94.28 141.64 C 93.82 140.84 92.79 140.56 91.99 141.02 C 91.18 141.48 90.90 142.50 91.36 143.31 Z M 91.86 144.17 L 92.37 145.07 C 92.82 145.88 93.85 146.16 94.65 145.71 C 95.46 145.25 95.74 144.23 95.29 143.42 L 94.78 142.52 C 94.32 141.71 93.30 141.42 92.49 141.88 C 91.68 142.34 91.40 143.36 91.86 144.17 Z M 92.36 145.06 L 92.88 145.99 C 93.33 146.80 94.35 147.09 95.16 146.63 C 95.97 146.18 96.26 145.16 95.81 144.35 L 95.29 143.43 C 94.84 142.62 93.82 142.33 93.01 142.78 C 92.20 143.23 91.91 144.25 92.36 145.06 Z M 92.87 145.98 L 93.38 146.90 C 93.83 147.71 94.85 148.01 95.66 147.56 C 96.47 147.12 96.77 146.10 96.32 145.29 L 95.81 144.36 C 95.37 143.55 94.35 143.25 93.53 143.70 C 92.72 144.15 92.43 145.17 92.87 145.98 Z M 93.38 146.89 L 93.87 147.80 C 94.31 148.62 95.33 148.92 96.14 148.48 C 96.96 148.04 97.26 147.02 96.82 146.21 L 96.33 145.30 C 95.89 144.48 94.87 144.18 94.05 144.62 C 93.24 145.06 92.94 146.08 93.38 146.89 Z M 93.87 147.79 L 94.34 148.69 C 94.78 149.51 95.79 149.82 96.61 149.39 C 97.42 148.95 97.73 147.94 97.30 147.12 L 96.83 146.22 C 96.39 145.41 95.38 145.10 94.56 145.53 C 93.75 145.96 93.43 146.97 93.87 147.79 Z M 94.34 148.67 L 94.79 149.55 C 95.22 150.38 96.22 150.70 97.05 150.27 C 97.87 149.85 98.19 148.84 97.76 148.02 L 97.31 147.14 C 96.88 146.32 95.88 146.00 95.05 146.42 C 94.23 146.84 93.91 147.85 94.34 148.67 Z M 94.78 149.54 L 95.21 150.39 C 95.63 151.22 96.63 151.55 97.45 151.14 C 98.28 150.72 98.61 149.72 98.20 148.89 L 97.77 148.04 C 97.36 147.21 96.35 146.88 95.53 147.29 C 94.70 147.71 94.37 148.71 94.78 149.54 Z M 95.20 150.37 L 95.64 151.28 C 96.04 152.12 97.04 152.46 97.87 152.06 C 98.70 151.66 99.05 150.67 98.65 149.84 L 98.21 148.92 C 97.81 148.09 96.81 147.74 95.98 148.14 C 95.15 148.54 94.80 149.54 95.20 150.37 Z M 95.63 151.25 L 96.06 152.20 C 96.45 153.04 97.44 153.41 98.28 153.02 C 99.11 152.64 99.48 151.65 99.10 150.81 L 98.66 149.87 C 98.28 149.03 97.29 148.66 96.45 149.04 C 95.62 149.43 95.25 150.42 95.63 151.25 Z M 96.05 152.17 L 96.45 153.08 C 96.81 153.93 97.80 154.31 98.64 153.95 C 99.49 153.58 99.87 152.60 99.51 151.75 L 99.11 150.84 C 98.74 150.00 97.76 149.61 96.92 149.98 C 96.07 150.34 95.68 151.33 96.05 152.17 Z M 96.44 153.05 L 96.80 153.93 C 97.15 154.79 98.12 155.19 98.97 154.84 C 99.82 154.49 100.23 153.52 99.88 152.67 L 99.52 151.78 C 99.17 150.93 98.19 150.53 97.34 150.88 C 96.49 151.23 96.09 152.20 96.44 153.05 Z M 96.79 153.91 L 97.13 154.77 C 97.46 155.63 98.43 156.05 99.28 155.72 C 100.14 155.39 100.56 154.42 100.23 153.56 L 99.89 152.70 C 99.56 151.84 98.59 151.42 97.73 151.75 C 96.88 152.08 96.46 153.05 96.79 153.91 Z M 97.12 154.76 L 97.46 155.63 C 97.78 156.49 98.74 156.92 99.60 156.60 C 100.46 156.27 100.89 155.31 100.57 154.45 L 100.23 153.58 C 99.91 152.72 98.95 152.29 98.09 152.61 C 97.23 152.94 96.80 153.90 97.12 154.76 Z M 97.46 155.65 L 97.82 156.55 C 98.15 157.40 99.11 157.82 99.97 157.49 C 100.82 157.16 101.25 156.19 100.91 155.34 L 100.56 154.44 C 100.22 153.58 99.26 153.16 98.41 153.49 C 97.55 153.83 97.13 154.79 97.46 155.65 Z M 97.83 156.59 L 98.24 157.55 C 98.59 158.39 99.57 158.79 100.41 158.43 C 101.26 158.08 101.65 157.10 101.30 156.26 L 100.89 155.30 C 100.54 154.45 99.56 154.05 98.72 154.41 C 97.87 154.77 97.48 155.74 97.83 156.59 Z M 98.26 157.60 L 98.72 158.59 C 99.10 159.42 100.09 159.79 100.92 159.40 C 101.75 159.02 102.12 158.03 101.73 157.20 L 101.28 156.21 C 100.89 155.37 99.90 155.01 99.07 155.39 C 98.24 155.78 97.87 156.76 98.26 157.60 Z M 98.73 158.62 L 99.19 159.57 C 99.59 160.39 100.58 160.74 101.41 160.34 C 102.23 159.94 102.58 158.95 102.18 158.12 L 101.72 157.17 C 101.32 156.34 100.33 156.00 99.50 156.40 C 98.68 156.80 98.33 157.79 98.73 158.62 Z M 99.18 159.54 L 99.63 160.52 C 100.01 161.35 101.00 161.71 101.83 161.33 C 102.66 160.94 103.03 159.95 102.64 159.12 L 102.19 158.15 C 101.81 157.32 100.82 156.95 99.99 157.34 C 99.16 157.72 98.79 158.71 99.18 159.54 Z M 99.59 160.43 L 99.97 161.38 C 100.30 162.23 101.27 162.65 102.12 162.32 C 102.97 161.98 103.39 161.01 103.06 160.16 L 102.68 159.21 C 102.34 158.36 101.38 157.94 100.53 158.27 C 99.67 158.61 99.25 159.58 99.59 160.43 Z M 99.91 161.20 L 100.14 162.09 C 100.38 162.97 101.29 163.50 102.18 163.26 C 103.07 163.02 103.59 162.11 103.35 161.22 L 103.12 160.34 C 102.88 159.45 101.97 158.93 101.08 159.17 C 100.19 159.40 99.67 160.31 99.91 161.20 Z M 100.08 161.69 L 100.11 162.62 C 100.13 163.54 100.89 164.27 101.81 164.25 C 102.73 164.23 103.45 163.46 103.43 162.55 L 103.41 161.62 C 103.39 160.70 102.63 159.97 101.71 159.99 C 100.79 160.01 100.06 160.77 100.08 161.69 Z M 100.19 162.02 L 99.87 162.92 C 99.56 163.79 100.02 164.75 100.89 165.06 C 101.76 165.37 102.71 164.91 103.02 164.04 L 103.34 163.14 C 103.65 162.27 103.20 161.32 102.33 161.01 C 101.46 160.70 100.50 161.15 100.19 162.02 Z M 100.06 162.54 L 99.52 163.34 C 98.99 164.11 99.20 165.16 99.97 165.68 C 100.73 166.20 101.78 166.00 102.30 165.23 L 102.84 164.43 C 103.36 163.66 103.16 162.61 102.39 162.09 C 101.62 161.57 100.58 161.77 100.06 162.54 Z M 99.55 163.28 L 98.95 164.08 C 98.40 164.83 98.55 165.89 99.30 166.44 C 100.05 167.00 101.11 166.84 101.67 166.09 L 102.27 165.29 C 102.82 164.54 102.67 163.48 101.92 162.93 C 101.17 162.37 100.11 162.53 99.55 163.28 Z M 98.86 164.21 L 98.35 165.05 C 97.86 165.85 98.12 166.89 98.92 167.38 C 99.72 167.87 100.77 167.61 101.25 166.81 L 101.76 165.97 C 102.25 165.16 101.99 164.12 101.19 163.63 C 100.39 163.15 99.35 163.40 98.86 164.21 Z M 98.28 165.16 L 97.83 166.06 C 97.40 166.90 97.74 167.92 98.58 168.35 C 99.42 168.77 100.44 168.43 100.87 167.59 L 101.32 166.70 C 101.75 165.86 101.41 164.83 100.57 164.41 C 99.73 163.98 98.71 164.32 98.28 165.16 Z M 97.79 166.12 L 97.38 167.04 C 96.98 167.89 97.36 168.91 98.22 169.30 C 99.08 169.69 100.09 169.31 100.48 168.45 L 100.90 167.53 C 101.29 166.68 100.91 165.66 100.06 165.27 C 99.20 164.88 98.19 165.26 97.79 166.12 Z M 97.37 167.04 L 96.96 167.94 C 96.58 168.81 96.96 169.82 97.82 170.21 C 98.68 170.59 99.70 170.21 100.08 169.35 L 100.49 168.45 C 100.88 167.58 100.49 166.57 99.63 166.18 C 98.77 165.80 97.76 166.18 97.37 167.04 Z M 96.97 167.92 L 96.56 168.81 C 96.16 169.67 96.53 170.68 97.39 171.08 C 98.25 171.48 99.27 171.11 99.67 170.25 L 100.08 169.37 C 100.48 168.51 100.10 167.49 99.24 167.09 C 98.39 166.69 97.37 167.07 96.97 167.92 Z M 96.57 168.79 L 96.14 169.69 C 95.73 170.54 96.09 171.56 96.95 171.97 C 97.80 172.38 98.83 172.02 99.24 171.16 L 99.66 170.27 C 100.07 169.41 99.71 168.39 98.85 167.98 C 98.00 167.57 96.97 167.93 96.57 168.79 Z M 96.14 169.67 L 95.69 170.61 C 95.27 171.46 95.63 172.49 96.48 172.90 C 97.33 173.32 98.36 172.96 98.78 172.11 L 99.23 171.17 C 99.65 170.32 99.29 169.29 98.44 168.88 C 97.59 168.46 96.56 168.82 96.14 169.67 Z M 95.69 170.60 L 95.29 171.41 C 94.87 172.26 95.22 173.30 96.07 173.72 C 96.92 174.14 97.95 173.79 98.37 172.93 L 98.78 172.12 C 99.20 171.27 98.85 170.24 97.99 169.82 C 97.14 169.40 96.11 169.75 95.69 170.60 Z M 95.29 171.40 L 94.87 172.25 C 94.44 173.10 94.79 174.13 95.64 174.56 C 96.49 174.98 97.52 174.64 97.95 173.79 L 98.37 172.94 C 98.80 172.09 98.45 171.06 97.60 170.63 C 96.75 170.21 95.72 170.55 95.29 171.40 Z M 94.87 172.24 L 94.42 173.13 C 93.99 173.98 94.32 175.02 95.17 175.45 C 96.02 175.88 97.05 175.54 97.49 174.70 L 97.94 173.80 C 98.37 172.95 98.04 171.92 97.19 171.48 C 96.34 171.05 95.31 171.39 94.87 172.24 Z M 94.42 173.12 L 93.93 174.07 C 93.49 174.91 93.82 175.95 94.66 176.39 C 95.50 176.83 96.54 176.50 96.98 175.66 L 97.48 174.71 C 97.92 173.87 97.59 172.83 96.75 172.39 C 95.90 171.95 94.86 172.27 94.42 173.12 Z M 93.94 174.05 L 93.43 175.00 C 92.98 175.84 93.30 176.88 94.14 177.33 C 94.98 177.78 96.02 177.46 96.47 176.62 L 96.98 175.68 C 97.42 174.84 97.11 173.79 96.27 173.34 C 95.43 172.90 94.38 173.21 93.94 174.05 Z M 93.44 174.99 L 92.95 175.88 C 92.49 176.72 92.80 177.77 93.64 178.22 C 94.47 178.68 95.52 178.37 95.97 177.53 L 96.46 176.64 C 96.92 175.80 96.61 174.75 95.77 174.30 C 94.94 173.84 93.89 174.15 93.44 174.99 Z M 92.95 175.88 L 92.45 176.78 C 91.99 177.62 92.29 178.67 93.13 179.13 C 93.96 179.59 95.01 179.28 95.47 178.45 L 95.97 177.54 C 96.43 176.71 96.13 175.66 95.29 175.20 C 94.46 174.74 93.41 175.04 92.95 175.88 Z M 92.45 176.78 L 91.96 177.68 C 91.49 178.51 91.80 179.56 92.63 180.02 C 93.46 180.48 94.51 180.18 94.97 179.35 L 95.47 178.45 C 95.93 177.62 95.63 176.57 94.80 176.11 C 93.96 175.65 92.91 175.95 92.45 176.78 Z M 91.96 177.68 L 91.48 178.54 C 91.02 179.37 91.32 180.42 92.15 180.88 C 92.98 181.34 94.03 181.04 94.49 180.21 L 94.97 179.35 C 95.43 178.51 95.13 177.47 94.30 177.00 C 93.47 176.54 92.42 176.84 91.96 177.68 Z M 91.48 178.54 L 91.01 179.38 C 90.55 180.22 90.86 181.27 91.69 181.73 C 92.53 182.19 93.57 181.88 94.03 181.05 L 94.50 180.21 C 94.96 179.37 94.65 178.32 93.82 177.86 C 92.98 177.40 91.93 177.71 91.48 178.54 Z M 91.01 179.39 L 90.48 180.36 C 90.03 181.20 90.34 182.25 91.17 182.70 C 92.01 183.16 93.06 182.85 93.51 182.01 L 94.04 181.04 C 94.49 180.20 94.18 179.15 93.35 178.70 C 92.51 178.25 91.46 178.56 91.01 179.39 Z M 90.48 180.37 L 90.01 181.25 C 89.56 182.09 89.87 183.13 90.71 183.58 C 91.55 184.03 92.60 183.72 93.05 182.88 L 93.52 182.00 C 93.97 181.16 93.65 180.12 92.81 179.67 C 91.97 179.22 90.93 179.53 90.48 180.37 Z M 90.00 181.25 L 89.56 182.08 C 89.11 182.92 89.43 183.96 90.27 184.41 C 91.11 184.86 92.16 184.54 92.61 183.70 L 93.05 182.88 C 93.50 182.04 93.18 180.99 92.34 180.54 C 91.50 180.09 90.45 180.41 90.00 181.25 Z M 89.57 182.07 L 89.13 182.89 C 88.67 183.72 88.99 184.77 89.83 185.22 C 90.66 185.67 91.71 185.36 92.16 184.52 L 92.60 183.71 C 93.05 182.87 92.74 181.82 91.90 181.37 C 91.07 180.92 90.02 181.23 89.57 182.07 Z M 89.13 182.88 L 88.67 183.72 C 88.21 184.56 88.52 185.61 89.35 186.06 C 90.19 186.52 91.23 186.22 91.69 185.38 L 92.16 184.53 C 92.61 183.70 92.31 182.65 91.47 182.19 C 90.64 181.73 89.59 182.04 89.13 182.88 Z M 88.67 183.71 L 88.19 184.58 C 87.73 185.42 88.03 186.47 88.86 186.93 C 89.69 187.39 90.74 187.09 91.20 186.26 L 91.69 185.39 C 92.15 184.56 91.85 183.51 91.02 183.04 C 90.19 182.58 89.14 182.88 88.67 183.71 Z M 88.19 184.58 L 87.69 185.47 C 87.23 186.30 87.52 187.35 88.35 187.82 C 89.18 188.28 90.23 187.99 90.70 187.16 L 91.20 186.27 C 91.67 185.43 91.37 184.38 90.54 183.92 C 89.71 183.45 88.66 183.75 88.19 184.58 Z M 87.69 185.46 L 87.20 186.34 C 86.73 187.17 87.02 188.22 87.85 188.69 C 88.68 189.16 89.73 188.87 90.20 188.04 L 90.70 187.16 C 91.17 186.33 90.87 185.28 90.04 184.81 C 89.22 184.34 88.16 184.63 87.69 185.46 Z M 87.20 186.34 L 86.72 187.19 C 86.25 188.02 86.54 189.07 87.37 189.54 C 88.19 190.01 89.25 189.72 89.72 188.89 L 90.20 188.04 C 90.67 187.21 90.38 186.16 89.55 185.69 C 88.72 185.22 87.67 185.51 87.20 186.34 Z M 86.72 187.19 L 86.22 188.06 C 85.75 188.89 86.05 189.94 86.88 190.41 C 87.71 190.88 88.76 190.59 89.23 189.76 L 89.72 188.89 C 90.19 188.06 89.89 187.01 89.07 186.54 C 88.24 186.07 87.18 186.36 86.72 187.19 Z M 86.22 188.07 L 85.72 188.95 C 85.26 189.78 85.55 190.84 86.38 191.30 C 87.21 191.77 88.26 191.47 88.73 190.64 L 89.23 189.75 C 89.70 188.92 89.40 187.87 88.57 187.41 C 87.74 186.94 86.69 187.24 86.22 188.07 Z M 85.72 188.96 L 85.23 189.85 C 84.76 190.68 85.06 191.73 85.90 192.20 C 86.73 192.66 87.78 192.36 88.24 191.52 L 88.74 190.63 C 89.20 189.80 88.90 188.75 88.06 188.29 C 87.23 187.83 86.18 188.13 85.72 188.96 Z M 85.22 189.86 L 84.76 190.71 C 84.30 191.54 84.61 192.59 85.44 193.05 C 86.28 193.51 87.33 193.20 87.78 192.36 L 88.25 191.51 C 88.70 190.68 88.40 189.63 87.56 189.17 C 86.72 188.72 85.68 189.02 85.22 189.86 Z M 84.75 190.72 L 84.29 191.58 C 83.83 192.42 84.15 193.47 84.99 193.92 C 85.82 194.37 86.87 194.06 87.32 193.22 L 87.79 192.35 C 88.24 191.52 87.93 190.47 87.09 190.02 C 86.25 189.57 85.20 189.88 84.75 190.72 Z M 84.28 191.59 L 83.81 192.48 C 83.36 193.32 83.68 194.36 84.52 194.81 C 85.36 195.26 86.41 194.94 86.85 194.10 L 87.33 193.21 C 87.77 192.37 87.45 191.33 86.61 190.88 C 85.77 190.43 84.73 190.75 84.28 191.59 Z M 83.81 192.48 L 83.33 193.40 C 82.88 194.24 83.20 195.28 84.05 195.73 C 84.89 196.17 85.93 195.85 86.38 195.01 L 86.86 194.09 C 87.30 193.25 86.98 192.21 86.14 191.76 C 85.29 191.32 84.25 191.64 83.81 192.48 Z M 83.32 193.40 L 82.86 194.30 C 82.41 195.14 82.74 196.18 83.58 196.62 C 84.43 197.07 85.47 196.74 85.91 195.90 L 86.38 195.00 C 86.82 194.16 86.49 193.12 85.65 192.67 C 84.81 192.23 83.76 192.56 83.32 193.40 Z M 82.85 194.30 L 82.39 195.19 C 81.95 196.03 82.28 197.08 83.13 197.51 C 83.97 197.95 85.01 197.62 85.45 196.78 L 85.91 195.89 C 86.35 195.05 86.02 194.01 85.18 193.57 C 84.33 193.13 83.29 193.46 82.85 194.30 Z M 82.39 195.20 L 81.93 196.09 C 81.49 196.94 81.83 197.98 82.67 198.41 C 83.52 198.85 84.56 198.52 84.99 197.67 L 85.45 196.77 C 85.89 195.93 85.56 194.89 84.71 194.45 C 83.86 194.02 82.83 194.35 82.39 195.20 Z M 81.93 196.10 L 81.47 197.00 C 81.04 197.85 81.37 198.88 82.22 199.32 C 83.07 199.75 84.10 199.41 84.54 198.56 L 85.00 197.66 C 85.43 196.82 85.09 195.78 84.24 195.35 C 83.40 194.91 82.36 195.25 81.93 196.10 Z M 81.46 197.00 L 81.01 197.90 C 80.59 198.74 80.93 199.78 81.78 200.21 C 82.63 200.64 83.66 200.30 84.09 199.45 L 84.54 198.56 C 84.97 197.71 84.63 196.67 83.78 196.24 C 82.93 195.81 81.89 196.16 81.46 197.00 Z M 81.01 197.90 L 80.56 198.81 C 80.13 199.66 80.48 200.70 81.33 201.12 C 82.18 201.55 83.21 201.20 83.64 200.35 L 84.09 199.44 C 84.52 198.59 84.17 197.56 83.32 197.13 C 82.47 196.71 81.44 197.05 81.01 197.90 Z M 80.55 198.82 L 80.11 199.73 C 79.69 200.59 80.04 201.62 80.89 202.04 C 81.74 202.46 82.78 202.11 83.19 201.25 L 83.64 200.34 C 84.06 199.49 83.71 198.46 82.86 198.04 C 82.00 197.62 80.97 197.97 80.55 198.82 Z M 80.10 199.74 L 79.67 200.64 C 79.25 201.50 79.61 202.53 80.47 202.94 C 81.32 203.35 82.35 203.00 82.77 202.14 L 83.20 201.24 C 83.61 200.39 83.26 199.36 82.40 198.94 C 81.54 198.53 80.51 198.89 80.10 199.74 Z M 79.66 200.65 L 79.24 201.54 C 78.83 202.40 79.20 203.43 80.05 203.83 C 80.91 204.24 81.94 203.88 82.35 203.02 L 82.77 202.13 C 83.18 201.27 82.81 200.24 81.95 199.84 C 81.10 199.43 80.07 199.79 79.66 200.65 Z M 79.23 201.55 L 78.82 202.44 C 78.42 203.30 78.79 204.33 79.65 204.73 C 80.51 205.13 81.54 204.76 81.94 203.90 L 82.35 203.01 C 82.75 202.14 82.38 201.12 81.52 200.72 C 80.66 200.32 79.63 200.69 79.23 201.55 Z M 78.81 202.46 L 78.40 203.37 C 78.00 204.23 78.39 205.25 79.25 205.65 C 80.11 206.04 81.13 205.66 81.53 204.79 L 81.94 203.88 C 82.34 203.02 81.96 202.00 81.09 201.60 C 80.23 201.21 79.21 201.59 78.81 202.46 Z M 78.39 203.38 L 77.98 204.29 C 77.60 205.16 77.98 206.18 78.85 206.57 C 79.72 206.95 80.74 206.57 81.12 205.70 L 81.53 204.78 C 81.92 203.92 81.53 202.90 80.67 202.51 C 79.80 202.12 78.78 202.51 78.39 203.38 Z M 77.98 204.30 L 77.58 205.22 C 77.19 206.09 77.59 207.11 78.46 207.49 C 79.33 207.87 80.34 207.48 80.73 206.61 L 81.13 205.69 C 81.51 204.82 81.12 203.80 80.25 203.42 C 79.38 203.04 78.36 203.43 77.98 204.30 Z M 77.57 205.23 L 77.18 206.14 C 76.80 207.02 77.20 208.03 78.07 208.41 C 78.94 208.78 79.95 208.38 80.33 207.51 L 80.73 206.60 C 81.11 205.73 80.71 204.71 79.84 204.34 C 78.96 203.96 77.95 204.36 77.57 205.23 Z M 77.17 206.15 L 76.78 207.07 C 76.40 207.95 76.81 208.96 77.68 209.33 C 78.55 209.71 79.56 209.30 79.94 208.43 L 80.33 207.51 C 80.71 206.63 80.30 205.62 79.43 205.25 C 78.56 204.87 77.55 205.28 77.17 206.15 Z M 76.78 207.08 L 76.38 208.02 C 76.00 208.89 76.41 209.90 77.29 210.27 C 78.16 210.64 79.17 210.24 79.54 209.36 L 79.94 208.43 C 80.31 207.55 79.90 206.54 79.03 206.17 C 78.16 205.80 77.15 206.21 76.78 207.08 Z M 76.38 208.02 L 75.98 208.95 C 75.61 209.82 76.02 210.83 76.90 211.20 C 77.77 211.57 78.78 211.16 79.15 210.29 L 79.54 209.36 C 79.91 208.49 79.50 207.48 78.63 207.11 C 77.75 206.74 76.75 207.15 76.38 208.02 Z M 75.98 208.95 L 75.60 209.86 C 75.23 210.74 75.64 211.74 76.51 212.11 C 77.39 212.48 78.39 212.07 78.76 211.20 L 79.15 210.29 C 79.52 209.41 79.11 208.40 78.23 208.04 C 77.36 207.67 76.35 208.08 75.98 208.95 Z M 75.60 209.86 L 75.22 210.76 C 74.85 211.63 75.26 212.64 76.13 213.01 C 77.01 213.38 78.01 212.97 78.38 212.10 L 78.76 211.20 C 79.13 210.33 78.72 209.32 77.85 208.95 C 76.98 208.58 75.97 208.99 75.60 209.86 Z M 75.22 210.76 L 74.81 211.71 C 74.44 212.58 74.85 213.59 75.72 213.96 C 76.60 214.33 77.61 213.93 77.98 213.05 L 78.38 212.10 C 78.75 211.23 78.35 210.22 77.47 209.85 C 76.60 209.48 75.59 209.88 75.22 210.76 Z M 74.82 211.71 L 74.42 212.64 C 74.05 213.51 74.45 214.52 75.32 214.89 C 76.19 215.27 77.20 214.86 77.58 213.99 L 77.97 213.06 C 78.35 212.18 77.94 211.18 77.07 210.80 C 76.20 210.43 75.19 210.84 74.82 211.71 Z M 74.42 212.64 L 74.03 213.54 C 73.66 214.42 74.06 215.42 74.93 215.80 C 75.80 216.17 76.81 215.77 77.18 214.90 L 77.57 213.99 C 77.95 213.12 77.55 212.11 76.67 211.74 C 75.80 211.36 74.79 211.77 74.42 212.64 Z M 74.03 213.54 L 73.65 214.42 C 73.27 215.29 73.67 216.30 74.54 216.68 C 75.41 217.06 76.42 216.66 76.80 215.79 L 77.18 214.90 C 77.56 214.03 77.16 213.02 76.29 212.65 C 75.42 212.27 74.41 212.67 74.03 213.54 Z M 73.65 214.42 L 73.25 215.35 C 72.87 216.22 73.27 217.23 74.14 217.61 C 75.00 217.99 76.01 217.59 76.39 216.72 L 76.80 215.79 C 77.18 214.92 76.78 213.91 75.91 213.53 C 75.04 213.15 74.03 213.55 73.65 214.42 Z M 73.25 215.35 L 72.85 216.27 C 72.47 217.14 72.87 218.15 73.73 218.52 C 74.60 218.90 75.61 218.51 75.99 217.64 L 76.39 216.72 C 76.77 215.85 76.37 214.84 75.51 214.47 C 74.64 214.09 73.63 214.48 73.25 215.35 Z M 72.85 216.27 L 72.45 217.18 C 72.08 218.04 72.47 219.05 73.34 219.43 C 74.21 219.81 75.22 219.41 75.60 218.54 L 75.99 217.64 C 76.37 216.77 75.97 215.76 75.10 215.38 C 74.24 215.00 73.23 215.40 72.85 216.27 Z M 72.45 217.18 L 72.06 218.08 C 71.69 218.95 72.09 219.96 72.95 220.34 C 73.82 220.71 74.83 220.31 75.21 219.44 L 75.60 218.54 C 75.97 217.67 75.57 216.66 74.70 216.29 C 73.84 215.91 72.83 216.31 72.45 217.18 Z M 72.06 218.09 L 71.68 218.98 C 71.30 219.85 71.71 220.86 72.58 221.23 C 73.45 221.60 74.45 221.20 74.83 220.33 L 75.21 219.44 C 75.58 218.57 75.18 217.56 74.31 217.19 C 73.44 216.82 72.43 217.22 72.06 218.09 Z M 71.68 218.99 L 71.29 219.90 C 70.92 220.77 71.32 221.77 72.19 222.14 C 73.06 222.51 74.07 222.11 74.44 221.24 L 74.83 220.33 C 75.20 219.46 74.79 218.45 73.92 218.08 C 73.05 217.71 72.05 218.12 71.68 218.99 Z M 71.29 219.90 L 70.89 220.83 C 70.52 221.70 70.92 222.71 71.79 223.08 C 72.66 223.45 73.67 223.05 74.04 222.18 L 74.44 221.24 C 74.81 220.37 74.40 219.37 73.53 219.00 C 72.66 218.62 71.66 219.03 71.29 219.90 Z M 70.89 220.83 L 70.49 221.77 C 70.12 222.63 70.52 223.64 71.39 224.01 C 72.26 224.38 73.26 223.98 73.63 223.11 L 74.03 222.18 C 74.41 221.31 74.00 220.31 73.14 219.93 C 72.27 219.56 71.26 219.96 70.89 220.83 Z M 70.49 221.76 L 70.10 222.68 C 69.73 223.54 70.13 224.55 70.99 224.92 C 71.86 225.30 72.87 224.90 73.24 224.03 L 73.63 223.12 C 74.01 222.25 73.61 221.24 72.74 220.87 C 71.87 220.50 70.87 220.90 70.49 221.76 Z M 70.10 222.67 L 69.70 223.60 C 69.33 224.47 69.72 225.47 70.59 225.85 C 71.45 226.22 72.46 225.82 72.84 224.96 L 73.24 224.03 C 73.61 223.17 73.21 222.16 72.35 221.79 C 71.48 221.41 70.48 221.81 70.10 222.67 Z M 69.70 223.60 L 69.30 224.52 C 68.92 225.39 69.32 226.39 70.18 226.77 C 71.05 227.15 72.05 226.75 72.43 225.89 L 72.83 224.96 C 73.21 224.10 72.81 223.09 71.95 222.71 C 71.09 222.34 70.08 222.73 69.70 223.60 Z M 69.30 224.52 L 68.91 225.42 C 68.53 226.28 68.92 227.29 69.79 227.67 C 70.65 228.05 71.66 227.65 72.03 226.79 L 72.43 225.89 C 72.81 225.02 72.41 224.02 71.55 223.64 C 70.69 223.26 69.68 223.66 69.30 224.52 Z M 68.91 225.41 L 68.53 226.27 C 68.15 227.13 68.53 228.14 69.39 228.52 C 70.25 228.91 71.26 228.52 71.64 227.66 L 72.03 226.80 C 72.41 225.94 72.02 224.93 71.16 224.55 C 70.30 224.17 69.30 224.55 68.91 225.41 Z M 68.54 226.25 L 68.14 227.13 C 67.74 227.98 68.12 228.99 68.97 229.38 C 69.82 229.78 70.83 229.41 71.23 228.55 L 71.63 227.68 C 72.03 226.83 71.65 225.82 70.80 225.42 C 69.95 225.03 68.94 225.40 68.54 226.25 Z M 68.16 227.09 L 67.71 228.00 C 67.30 228.84 67.65 229.86 68.49 230.27 C 69.33 230.69 70.35 230.34 70.76 229.49 L 71.21 228.59 C 71.62 227.75 71.27 226.73 70.43 226.31 C 69.59 225.90 68.57 226.25 68.16 227.09 Z M 67.74 227.96 L 67.23 228.92 C 66.79 229.75 67.11 230.78 67.94 231.21 C 68.77 231.65 69.80 231.33 70.23 230.50 L 70.74 229.54 C 71.18 228.71 70.86 227.68 70.03 227.24 C 69.20 226.81 68.17 227.13 67.74 227.96 Z M 67.25 228.89 L 66.81 229.69 C 66.35 230.51 66.65 231.54 67.46 231.99 C 68.28 232.45 69.31 232.15 69.76 231.34 L 70.21 230.54 C 70.67 229.72 70.37 228.69 69.56 228.23 C 68.74 227.78 67.71 228.07 67.25 228.89 Z M 66.83 229.67 L 66.35 230.49 C 65.88 231.30 66.15 232.33 66.96 232.80 C 67.77 233.27 68.80 232.99 69.27 232.19 L 69.75 231.36 C 70.21 230.55 69.94 229.52 69.13 229.05 C 68.33 228.58 67.29 228.86 66.83 229.67 Z M 66.36 230.48 L 65.85 231.34 C 65.37 232.14 65.64 233.17 66.43 233.65 C 67.23 234.12 68.27 233.86 68.74 233.06 L 69.25 232.20 C 69.73 231.40 69.47 230.37 68.67 229.89 C 67.87 229.42 66.84 229.68 66.36 230.48 Z M 65.86 231.33 L 65.32 232.22 C 64.84 233.01 65.10 234.04 65.89 234.52 C 66.68 235.00 67.71 234.75 68.19 233.95 L 68.73 233.07 C 69.21 232.28 68.96 231.25 68.16 230.77 C 67.37 230.29 66.34 230.54 65.86 231.33 Z M 65.33 232.21 L 64.78 233.11 C 64.30 233.90 64.55 234.93 65.34 235.41 C 66.12 235.89 67.15 235.64 67.64 234.86 L 68.19 233.96 C 68.67 233.17 68.42 232.14 67.63 231.66 C 66.85 231.18 65.82 231.42 65.33 232.21 Z M 64.79 233.11 L 64.37 233.79 C 63.89 234.57 64.13 235.60 64.92 236.08 C 65.70 236.57 66.73 236.32 67.21 235.54 L 67.63 234.86 C 68.11 234.07 67.87 233.05 67.08 232.56 C 66.30 232.08 65.27 232.32 64.79 233.11 Z"
      fill="black"
      fill-rule="nonzero" /><path d="M 103.45 68.38 L 102.35 68.32 C 101.55 68.27 100.86 68.88 100.82 69.68 C 100.77 70.48 101.38 71.16 102.18 71.21 L 103.28 71.27 C 104.08 71.32 104.76 70.71 104.81 69.91 C 104.85 69.11 104.24 68.43 103.45 68.38 Z M 102.17 68.29 L 101.16 68.35 C 100.35 68.41 99.73 69.11 99.78 69.93 C 99.84 70.74 100.54 71.36 101.36 71.31 L 102.36 71.24 C 103.18 71.19 103.79 70.48 103.74 69.67 C 103.69 68.85 102.98 68.23 102.17 68.29 Z M 100.70 68.43 L 99.88 68.75 C 99.11 69.06 98.73 69.94 99.04 70.72 C 99.35 71.49 100.23 71.87 101.01 71.56 L 101.82 71.23 C 102.60 70.92 102.97 70.04 102.66 69.27 C 102.35 68.49 101.47 68.12 100.70 68.43 Z M 99.28 69.16 L 98.79 69.73 C 98.24 70.37 98.32 71.34 98.96 71.89 C 99.60 72.44 100.57 72.37 101.12 71.72 L 101.61 71.15 C 102.16 70.51 102.09 69.54 101.44 68.99 C 100.80 68.44 99.83 68.52 99.28 69.16 Z M 98.51 70.18 L 98.20 71.01 C 97.90 71.81 98.30 72.71 99.10 73.01 C 99.90 73.31 100.80 72.90 101.10 72.10 L 101.41 71.27 C 101.71 70.47 101.30 69.58 100.50 69.28 C 99.70 68.98 98.81 69.38 98.51 70.18 Z M 98.11 71.29 L 97.92 72.37 C 97.77 73.22 98.34 74.03 99.19 74.18 C 100.04 74.32 100.85 73.75 101.00 72.91 L 101.18 71.82 C 101.33 70.97 100.76 70.17 99.91 70.02 C 99.06 69.87 98.26 70.44 98.11 71.29 Z M 97.89 72.51 L 97.79 73.72 C 97.72 74.59 98.36 75.35 99.23 75.42 C 100.09 75.49 100.85 74.85 100.93 73.98 L 101.03 72.77 C 101.10 71.90 100.45 71.14 99.59 71.07 C 98.72 71.00 97.96 71.64 97.89 72.51 Z M 97.78 73.78 L 97.73 74.76 C 97.69 75.64 98.37 76.38 99.24 76.41 C 100.12 76.45 100.85 75.78 100.89 74.91 L 100.94 73.92 C 100.98 73.05 100.30 72.31 99.43 72.27 C 98.56 72.23 97.82 72.91 97.78 73.78 Z M 97.73 74.80 L 97.70 75.84 C 97.68 76.71 98.38 77.44 99.26 77.46 C 100.13 77.48 100.86 76.78 100.88 75.90 L 100.90 74.87 C 100.92 73.99 100.22 73.27 99.35 73.25 C 98.47 73.23 97.75 73.92 97.73 74.80 Z M 97.70 75.87 L 97.70 76.92 C 97.70 77.80 98.41 78.51 99.29 78.51 C 100.17 78.51 100.88 77.80 100.88 76.92 L 100.89 75.87 C 100.89 74.99 100.17 74.28 99.29 74.28 C 98.41 74.28 97.70 74.99 97.70 75.87 Z M 97.69 76.95 L 97.71 77.97 C 97.73 78.86 98.46 79.56 99.34 79.54 C 100.23 79.52 100.93 78.79 100.91 77.91 L 100.89 76.89 C 100.87 76.00 100.14 75.30 99.26 75.32 C 98.37 75.34 97.67 76.07 97.69 76.95 Z M 97.71 78.01 L 97.75 78.97 C 97.79 79.85 98.54 80.54 99.43 80.50 C 100.31 80.46 101.00 79.71 100.96 78.82 L 100.92 77.87 C 100.88 76.98 100.13 76.29 99.24 76.33 C 98.35 76.37 97.67 77.12 97.71 78.01 Z M 97.75 79.02 L 97.84 80.14 C 97.91 81.03 98.69 81.69 99.57 81.62 C 100.46 81.54 101.12 80.77 101.05 79.88 L 100.96 78.76 C 100.89 77.88 100.11 77.22 99.22 77.29 C 98.34 77.36 97.68 78.14 97.75 79.02 Z M 97.85 80.22 L 97.98 81.26 C 98.10 82.15 98.91 82.77 99.79 82.65 C 100.68 82.53 101.30 81.72 101.18 80.84 L 101.04 79.80 C 100.93 78.91 100.12 78.29 99.23 78.41 C 98.35 78.53 97.73 79.34 97.85 80.22 Z M 97.99 81.34 L 98.16 82.26 C 98.32 83.13 99.17 83.71 100.04 83.55 C 100.92 83.39 101.50 82.55 101.34 81.67 L 101.17 80.76 C 101.01 79.88 100.17 79.30 99.29 79.46 C 98.41 79.62 97.83 80.47 97.99 81.34 Z M 98.17 82.31 L 98.36 83.16 C 98.55 84.04 99.41 84.59 100.29 84.40 C 101.16 84.20 101.71 83.34 101.52 82.47 L 101.33 81.61 C 101.14 80.74 100.28 80.19 99.40 80.38 C 98.53 80.57 97.98 81.44 98.17 82.31 Z M 98.36 83.18 L 98.58 84.12 C 98.78 84.99 99.65 85.54 100.53 85.33 C 101.40 85.13 101.94 84.26 101.74 83.39 L 101.52 82.45 C 101.31 81.58 100.44 81.04 99.57 81.24 C 98.70 81.44 98.16 82.31 98.36 83.18 Z M 98.58 84.14 L 98.82 85.10 C 99.03 85.97 99.90 86.51 100.77 86.30 C 101.64 86.09 102.18 85.21 101.97 84.34 L 101.73 83.37 C 101.52 82.50 100.65 81.97 99.78 82.18 C 98.91 82.39 98.37 83.27 98.58 84.14 Z M 98.82 85.12 L 99.07 86.11 C 99.29 86.98 100.18 87.50 101.05 87.28 C 101.91 87.06 102.44 86.18 102.22 85.31 L 101.96 84.32 C 101.74 83.45 100.86 82.93 99.99 83.15 C 99.12 83.37 98.60 84.25 98.82 85.12 Z M 99.08 86.13 L 99.33 87.09 C 99.57 87.96 100.46 88.47 101.33 88.24 C 102.19 88.00 102.70 87.11 102.47 86.24 L 102.21 85.29 C 101.98 84.42 101.09 83.91 100.22 84.14 C 99.36 84.38 98.84 85.27 99.08 86.13 Z M 99.34 87.11 L 99.60 88.05 C 99.85 88.91 100.75 89.41 101.61 89.17 C 102.47 88.93 102.98 88.03 102.73 87.16 L 102.47 86.23 C 102.22 85.36 101.33 84.86 100.46 85.10 C 99.60 85.35 99.09 86.24 99.34 87.11 Z M 99.61 88.06 L 99.88 89.02 C 100.13 89.88 101.04 90.38 101.90 90.13 C 102.76 89.88 103.26 88.98 103.01 88.12 L 102.73 87.15 C 102.48 86.29 101.58 85.79 100.71 86.04 C 99.85 86.29 99.36 87.19 99.61 88.06 Z M 99.89 89.03 L 100.18 90.02 C 100.43 90.88 101.33 91.38 102.20 91.13 C 103.06 90.87 103.55 89.97 103.30 89.11 L 103.01 88.11 C 102.76 87.25 101.85 86.75 100.99 87.01 C 100.13 87.26 99.63 88.16 99.89 89.03 Z M 100.18 90.02 L 100.46 90.98 C 100.71 91.85 101.61 92.34 102.48 92.09 C 103.34 91.83 103.83 90.93 103.58 90.07 L 103.30 89.11 C 103.05 88.24 102.14 87.75 101.28 88.00 C 100.42 88.25 99.92 89.16 100.18 90.02 Z M 100.46 90.98 L 100.74 91.95 C 100.99 92.81 101.90 93.30 102.76 93.05 C 103.62 92.80 104.12 91.89 103.87 91.03 L 103.58 90.07 C 103.33 89.20 102.42 88.71 101.56 88.96 C 100.70 89.22 100.20 90.12 100.46 90.98 Z M 100.74 91.95 L 101.03 92.92 C 101.29 93.78 102.19 94.27 103.05 94.02 C 103.92 93.76 104.41 92.86 104.15 91.99 L 103.86 91.03 C 103.61 90.16 102.70 89.67 101.84 89.93 C 100.98 90.18 100.49 91.09 100.74 91.95 Z M 101.03 92.93 L 101.32 93.89 C 101.58 94.75 102.49 95.23 103.35 94.97 C 104.21 94.71 104.70 93.80 104.44 92.94 L 104.15 91.98 C 103.89 91.12 102.98 90.64 102.12 90.90 C 101.26 91.16 100.77 92.07 101.03 92.93 Z M 101.33 93.90 L 101.63 94.87 C 101.90 95.73 102.81 96.21 103.67 95.94 C 104.53 95.67 105.01 94.76 104.74 93.90 L 104.44 92.93 C 104.17 92.07 103.25 91.59 102.39 91.86 C 101.54 92.13 101.06 93.04 101.33 93.90 Z M 101.63 94.89 L 101.94 95.85 C 102.22 96.70 103.14 97.17 103.99 96.90 C 104.85 96.62 105.32 95.70 105.05 94.85 L 104.74 93.89 C 104.46 93.03 103.54 92.56 102.69 92.83 C 101.83 93.11 101.36 94.03 101.63 94.89 Z M 101.95 95.86 L 102.25 96.80 C 102.54 97.65 103.46 98.12 104.31 97.84 C 105.17 97.55 105.63 96.63 105.35 95.78 L 105.04 94.84 C 104.76 93.98 103.84 93.52 102.98 93.80 C 102.13 94.08 101.66 95.00 101.95 95.86 Z M 102.26 96.80 L 102.57 97.73 C 102.85 98.59 103.77 99.05 104.63 98.76 C 105.48 98.48 105.94 97.56 105.66 96.70 L 105.35 95.77 C 105.07 94.92 104.14 94.46 103.29 94.74 C 102.43 95.02 101.97 95.95 102.26 96.80 Z M 102.57 97.73 L 102.88 98.67 C 103.16 99.53 104.09 99.99 104.94 99.70 C 105.80 99.42 106.26 98.50 105.97 97.64 L 105.66 96.70 C 105.37 95.85 104.45 95.39 103.60 95.67 C 102.74 95.96 102.28 96.88 102.57 97.73 Z M 102.88 98.68 L 103.20 99.62 C 103.48 100.47 104.41 100.93 105.26 100.65 C 106.11 100.36 106.58 99.44 106.29 98.58 L 105.97 97.64 C 105.69 96.79 104.76 96.33 103.91 96.61 C 103.05 96.90 102.59 97.82 102.88 98.68 Z M 103.20 99.62 L 103.52 100.57 C 103.81 101.43 104.73 101.88 105.59 101.60 C 106.44 101.31 106.90 100.38 106.61 99.53 L 106.29 98.58 C 106.00 97.73 105.07 97.27 104.22 97.56 C 103.37 97.85 102.91 98.77 103.20 99.62 Z M 103.52 100.58 L 103.85 101.53 C 104.14 102.39 105.07 102.84 105.92 102.55 C 106.77 102.26 107.23 101.33 106.93 100.48 L 106.61 99.52 C 106.31 98.67 105.39 98.22 104.53 98.51 C 103.68 98.80 103.23 99.73 103.52 100.58 Z M 103.85 101.54 L 104.18 102.49 C 104.48 103.34 105.41 103.79 106.26 103.49 C 107.11 103.19 107.56 102.26 107.26 101.41 L 106.93 100.47 C 106.63 99.62 105.70 99.17 104.85 99.46 C 104.00 99.76 103.55 100.69 103.85 101.54 Z M 104.18 102.50 L 104.52 103.44 C 104.82 104.29 105.75 104.74 106.60 104.43 C 107.45 104.13 107.90 103.20 107.59 102.35 L 107.26 101.40 C 106.96 100.56 106.02 100.11 105.17 100.41 C 104.33 100.71 103.88 101.65 104.18 102.50 Z M 104.52 103.45 L 104.86 104.39 C 105.17 105.24 106.10 105.68 106.95 105.37 C 107.80 105.07 108.24 104.13 107.93 103.28 L 107.59 102.34 C 107.28 101.49 106.35 101.06 105.50 101.36 C 104.66 101.67 104.22 102.60 104.52 103.45 Z M 104.87 104.40 L 105.21 105.34 C 105.52 106.18 106.46 106.61 107.31 106.30 C 108.15 105.99 108.58 105.05 108.27 104.21 L 107.93 103.27 C 107.62 102.43 106.68 102.00 105.83 102.31 C 104.99 102.62 104.56 103.56 104.87 104.40 Z M 105.21 105.35 L 105.57 106.29 C 105.88 107.13 106.82 107.56 107.67 107.24 C 108.51 106.92 108.94 105.98 108.62 105.14 L 108.27 104.20 C 107.95 103.36 107.01 102.93 106.17 103.25 C 105.32 103.56 104.90 104.50 105.21 105.35 Z M 105.57 106.30 L 105.93 107.23 C 106.25 108.07 107.19 108.49 108.03 108.17 C 108.87 107.84 109.30 106.90 108.97 106.06 L 108.62 105.13 C 108.30 104.29 107.35 103.87 106.51 104.19 C 105.67 104.51 105.25 105.45 105.57 106.30 Z M 105.93 107.24 L 106.29 108.16 C 106.62 109.00 107.56 109.42 108.40 109.09 C 109.24 108.76 109.66 107.82 109.33 106.98 L 108.97 106.05 C 108.64 105.21 107.70 104.80 106.86 105.12 C 106.02 105.45 105.60 106.40 105.93 107.24 Z M 106.30 108.17 L 106.66 109.09 C 106.99 109.93 107.94 110.34 108.78 110.01 C 109.61 109.68 110.02 108.73 109.69 107.89 L 109.33 106.97 C 109.00 106.13 108.05 105.72 107.21 106.05 C 106.37 106.39 105.96 107.33 106.30 108.17 Z M 106.66 109.10 L 107.03 110.01 C 107.36 110.85 108.31 111.25 109.15 110.92 C 109.99 110.58 110.39 109.63 110.06 108.80 L 109.69 107.88 C 109.35 107.05 108.40 106.64 107.57 106.98 C 106.73 107.31 106.33 108.26 106.66 109.10 Z M 107.03 110.02 L 107.41 110.94 C 107.75 111.78 108.70 112.18 109.53 111.84 C 110.37 111.50 110.77 110.55 110.43 109.72 L 110.05 108.79 C 109.72 107.96 108.76 107.56 107.93 107.89 C 107.10 108.23 106.69 109.18 107.03 110.02 Z M 107.41 110.95 L 107.79 111.89 C 108.13 112.72 109.09 113.12 109.92 112.78 C 110.75 112.44 111.15 111.49 110.81 110.65 L 110.43 109.71 C 110.09 108.88 109.14 108.48 108.30 108.82 C 107.47 109.16 107.07 110.11 107.41 110.95 Z M 107.79 111.89 L 108.18 112.83 C 108.52 113.66 109.47 114.06 110.31 113.72 C 111.14 113.38 111.54 112.42 111.20 111.59 L 110.81 110.65 C 110.47 109.82 109.52 109.42 108.68 109.76 C 107.85 110.10 107.45 111.06 107.79 111.89 Z M 108.18 112.83 L 108.57 113.76 C 108.91 114.60 109.86 114.99 110.70 114.65 C 111.53 114.31 111.92 113.35 111.58 112.52 L 111.20 111.59 C 110.85 110.75 109.90 110.36 109.07 110.70 C 108.23 111.04 107.84 112.00 108.18 112.83 Z M 108.57 113.77 L 108.95 114.70 C 109.30 115.53 110.26 115.92 111.09 115.58 C 111.92 115.23 112.31 114.28 111.97 113.45 L 111.58 112.51 C 111.23 111.68 110.28 111.29 109.45 111.64 C 108.61 111.98 108.22 112.94 108.57 113.77 Z M 108.96 114.70 L 109.34 115.62 C 109.69 116.45 110.65 116.84 111.48 116.49 C 112.31 116.14 112.70 115.18 112.35 114.35 L 111.96 113.44 C 111.61 112.61 110.66 112.22 109.83 112.57 C 109.00 112.92 108.61 113.87 108.96 114.70 Z M 109.34 115.63 L 109.74 116.56 C 110.09 117.38 111.05 117.77 111.88 117.42 C 112.71 117.06 113.10 116.10 112.74 115.28 L 112.35 114.35 C 111.99 113.52 111.03 113.13 110.21 113.49 C 109.38 113.84 108.99 114.80 109.34 115.63 Z M 109.74 116.56 L 110.15 117.49 C 110.50 118.32 111.46 118.70 112.29 118.34 C 113.12 117.99 113.50 117.03 113.14 116.20 L 112.74 115.27 C 112.38 114.44 111.42 114.06 110.59 114.42 C 109.77 114.78 109.39 115.74 109.74 116.56 Z M 110.15 117.50 L 110.55 118.41 C 110.91 119.23 111.87 119.61 112.69 119.25 C 113.52 118.89 113.90 117.93 113.53 117.10 L 113.14 116.19 C 112.78 115.37 111.82 114.99 110.99 115.35 C 110.16 115.71 109.79 116.67 110.15 117.50 Z M 110.55 118.41 L 110.94 119.31 C 111.30 120.13 112.27 120.51 113.09 120.14 C 113.91 119.78 114.29 118.82 113.93 117.99 L 113.53 117.10 C 113.17 116.27 112.21 115.90 111.38 116.26 C 110.56 116.62 110.18 117.59 110.55 118.41 Z M 110.94 119.31 L 111.34 120.21 C 111.70 121.04 112.67 121.41 113.49 121.05 C 114.31 120.69 114.69 119.73 114.33 118.90 L 113.93 117.99 C 113.56 117.17 112.60 116.79 111.78 117.16 C 110.95 117.52 110.58 118.48 110.94 119.31 Z M 111.34 120.21 L 111.74 121.13 C 112.10 121.95 113.06 122.33 113.89 121.96 C 114.71 121.60 115.09 120.64 114.73 119.82 L 114.33 118.90 C 113.97 118.08 113.00 117.70 112.18 118.06 C 111.35 118.43 110.98 119.39 111.34 120.21 Z M 111.74 121.12 L 112.14 122.04 C 112.50 122.87 113.46 123.24 114.29 122.88 C 115.11 122.52 115.49 121.56 115.13 120.74 L 114.73 119.82 C 114.37 118.99 113.41 118.62 112.58 118.98 C 111.76 119.34 111.38 120.30 111.74 121.12 Z M 112.14 122.04 L 112.54 122.96 C 112.89 123.78 113.85 124.17 114.68 123.81 C 115.51 123.45 115.89 122.49 115.53 121.66 L 115.13 120.74 C 114.77 119.91 113.81 119.53 112.99 119.89 C 112.16 120.25 111.78 121.21 112.14 122.04 Z M 112.53 122.95 L 112.93 123.87 C 113.28 124.70 114.24 125.08 115.07 124.73 C 115.90 124.37 116.28 123.41 115.93 122.58 L 115.53 121.67 C 115.18 120.84 114.22 120.46 113.39 120.81 C 112.56 121.17 112.18 122.13 112.53 122.95 Z M 112.93 123.87 L 113.33 124.79 C 113.68 125.62 114.64 126.00 115.47 125.64 C 116.30 125.29 116.68 124.33 116.32 123.50 L 115.92 122.58 C 115.57 121.75 114.61 121.37 113.78 121.73 C 112.95 122.09 112.57 123.05 112.93 123.87 Z M 113.33 124.80 L 113.73 125.72 C 114.10 126.54 115.06 126.92 115.88 126.56 C 116.71 126.20 117.08 125.23 116.72 124.41 L 116.32 123.49 C 115.96 122.67 114.99 122.29 114.17 122.65 C 113.34 123.01 112.97 123.98 113.33 124.80 Z M 113.74 125.73 L 114.15 126.65 C 114.52 127.47 115.49 127.83 116.31 127.46 C 117.13 127.09 117.49 126.13 117.12 125.30 L 116.71 124.39 C 116.34 123.57 115.38 123.21 114.56 123.58 C 113.73 123.95 113.37 124.91 113.74 125.73 Z M 114.16 126.66 L 114.58 127.57 C 114.96 128.38 115.93 128.74 116.74 128.36 C 117.56 127.98 117.92 127.01 117.54 126.19 L 117.12 125.29 C 116.74 124.47 115.77 124.12 114.95 124.50 C 114.13 124.88 113.78 125.84 114.16 126.66 Z M 114.58 127.58 L 115.01 128.48 C 115.39 129.29 116.36 129.64 117.18 129.26 C 117.99 128.88 118.34 127.90 117.96 127.09 L 117.53 126.19 C 117.15 125.37 116.18 125.02 115.36 125.41 C 114.55 125.79 114.20 126.76 114.58 127.58 Z M 115.01 128.48 L 115.44 129.39 C 115.82 130.20 116.79 130.55 117.61 130.16 C 118.42 129.78 118.77 128.81 118.39 127.99 L 117.96 127.09 C 117.57 126.27 116.60 125.93 115.79 126.31 C 114.97 126.69 114.62 127.67 115.01 128.48 Z M 115.44 129.38 L 115.86 130.28 C 116.24 131.09 117.21 131.44 118.02 131.06 C 118.84 130.68 119.19 129.71 118.81 128.89 L 118.39 128.00 C 118.00 127.18 117.03 126.83 116.22 127.22 C 115.40 127.60 115.05 128.57 115.44 129.38 Z M 115.86 130.28 L 116.28 131.17 C 116.66 131.99 117.63 132.34 118.44 131.96 C 119.26 131.58 119.61 130.61 119.23 129.79 L 118.81 128.89 C 118.42 128.08 117.45 127.73 116.64 128.11 C 115.82 128.49 115.47 129.46 115.86 130.28 Z M 116.28 131.18 L 116.71 132.09 C 117.10 132.90 118.07 133.25 118.88 132.86 C 119.69 132.48 120.04 131.50 119.66 130.69 L 119.23 129.78 C 118.84 128.97 117.87 128.62 117.05 129.01 C 116.24 129.40 115.89 130.37 116.28 131.18 Z M 116.72 132.10 L 117.16 133.02 C 117.55 133.83 118.53 134.17 119.34 133.77 C 120.15 133.38 120.49 132.41 120.09 131.60 L 119.65 130.68 C 119.26 129.87 118.28 129.53 117.47 129.92 C 116.66 130.32 116.32 131.29 116.72 132.10 Z M 117.17 133.03 L 117.62 133.95 C 118.02 134.75 119.00 135.08 119.81 134.68 C 120.61 134.28 120.94 133.30 120.54 132.50 L 120.08 131.58 C 119.68 130.77 118.71 130.45 117.90 130.85 C 117.09 131.25 116.77 132.23 117.17 133.03 Z M 117.63 133.96 L 118.09 134.87 C 118.50 135.67 119.48 135.99 120.28 135.58 C 121.08 135.17 121.40 134.19 121.00 133.39 L 120.53 132.48 C 120.13 131.68 119.15 131.36 118.34 131.77 C 117.54 132.18 117.22 133.16 117.63 133.96 Z M 118.10 134.88 L 118.55 135.76 C 118.96 136.56 119.95 136.87 120.75 136.46 C 121.55 136.05 121.86 135.07 121.45 134.27 L 120.99 133.38 C 120.58 132.58 119.60 132.27 118.80 132.68 C 118.00 133.09 117.68 134.08 118.10 134.88 Z M 118.55 135.77 L 119.00 136.61 C 119.41 137.41 120.39 137.72 121.19 137.31 C 121.99 136.89 122.30 135.91 121.89 135.11 L 121.44 134.26 C 121.03 133.46 120.05 133.15 119.25 133.57 C 118.45 133.98 118.14 134.97 118.55 135.77 Z M 119.00 136.62 L 119.44 137.46 C 119.86 138.25 120.84 138.56 121.64 138.14 C 122.43 137.72 122.74 136.74 122.32 135.94 L 121.88 135.11 C 121.47 134.31 120.48 134.00 119.68 134.42 C 118.89 134.84 118.58 135.82 119.00 136.62 Z M 119.45 137.47 L 119.90 138.31 C 120.32 139.10 121.31 139.40 122.10 138.98 C 122.89 138.55 123.19 137.56 122.77 136.77 L 122.31 135.93 C 121.89 135.14 120.90 134.84 120.11 135.26 C 119.32 135.69 119.02 136.68 119.45 137.47 Z M 119.91 138.33 L 120.41 139.24 C 120.85 140.02 121.84 140.31 122.63 139.87 C 123.41 139.43 123.69 138.44 123.26 137.65 L 122.75 136.75 C 122.32 135.96 121.33 135.68 120.54 136.12 C 119.76 136.56 119.47 137.55 119.91 138.33 Z M 120.43 139.26 L 120.94 140.14 C 121.38 140.92 122.38 141.18 123.16 140.73 C 123.94 140.29 124.20 139.29 123.75 138.51 L 123.24 137.63 C 122.80 136.86 121.80 136.59 121.02 137.04 C 120.24 137.49 119.98 138.48 120.43 139.26 Z M 120.95 140.16 L 121.43 140.97 C 121.89 141.74 122.89 142.00 123.66 141.54 C 124.43 141.08 124.68 140.08 124.23 139.31 L 123.74 138.50 C 123.28 137.72 122.29 137.47 121.51 137.93 C 120.74 138.39 120.49 139.38 120.95 140.16 Z M 121.44 140.99 L 121.96 141.85 C 122.43 142.61 123.43 142.86 124.20 142.39 C 124.96 141.92 125.21 140.92 124.74 140.15 L 124.22 139.30 C 123.75 138.53 122.75 138.29 121.98 138.75 C 121.22 139.22 120.97 140.22 121.44 140.99 Z M 121.97 141.86 L 122.52 142.74 C 123.00 143.50 124.00 143.74 124.76 143.26 C 125.52 142.78 125.75 141.78 125.28 141.02 L 124.73 140.14 C 124.25 139.38 123.25 139.15 122.49 139.62 C 121.73 140.10 121.50 141.10 121.97 141.86 Z M 122.53 142.76 L 123.10 143.64 C 123.58 144.39 124.59 144.61 125.34 144.13 C 126.10 143.64 126.32 142.64 125.83 141.88 L 125.27 141.00 C 124.78 140.25 123.78 140.03 123.02 140.51 C 122.27 141.00 122.05 142.00 122.53 142.76 Z M 123.11 143.66 L 123.68 144.53 C 124.18 145.28 125.19 145.48 125.94 144.99 C 126.68 144.49 126.89 143.48 126.40 142.74 L 125.82 141.86 C 125.32 141.12 124.32 140.91 123.57 141.41 C 122.82 141.90 122.61 142.91 123.11 143.66 Z M 123.70 144.55 L 124.29 145.40 C 124.79 146.14 125.80 146.33 126.54 145.83 C 127.28 145.32 127.47 144.31 126.97 143.57 L 126.38 142.71 C 125.87 141.97 124.86 141.79 124.12 142.29 C 123.38 142.80 123.19 143.81 123.70 144.55 Z M 124.30 145.43 L 124.89 146.25 C 125.41 146.98 126.42 147.15 127.15 146.63 C 127.88 146.11 128.05 145.09 127.53 144.36 L 126.95 143.54 C 126.43 142.81 125.41 142.64 124.68 143.16 C 123.95 143.69 123.78 144.70 124.30 145.43 Z M 124.91 146.28 L 125.50 147.06 C 126.03 147.78 127.05 147.93 127.77 147.39 C 128.49 146.86 128.63 145.84 128.10 145.12 L 127.51 144.33 C 126.98 143.62 125.96 143.47 125.24 144.00 C 124.52 144.54 124.37 145.56 124.91 146.28 Z M 125.52 147.09 L 126.11 147.85 C 126.66 148.56 127.68 148.68 128.39 148.13 C 129.10 147.58 129.22 146.56 128.67 145.85 L 128.08 145.09 C 127.52 144.39 126.50 144.26 125.80 144.81 C 125.09 145.37 124.97 146.39 125.52 147.09 Z M 126.14 147.88 L 126.79 148.67 C 127.36 149.37 128.38 149.47 129.07 148.90 C 129.76 148.33 129.86 147.31 129.30 146.61 L 128.65 145.82 C 128.08 145.13 127.05 145.03 126.36 145.60 C 125.67 146.17 125.57 147.19 126.14 147.88 Z M 126.81 148.71 L 127.50 149.50 C 128.08 150.17 129.11 150.25 129.79 149.66 C 130.46 149.08 130.54 148.05 129.95 147.37 L 129.27 146.58 C 128.68 145.91 127.66 145.83 126.98 146.42 C 126.30 147.00 126.23 148.03 126.81 148.71 Z M 127.52 149.53 L 128.20 150.27 C 128.80 150.94 129.83 150.99 130.49 150.39 C 131.16 149.79 131.21 148.76 130.61 148.10 L 129.93 147.35 C 129.32 146.68 128.30 146.63 127.64 147.23 C 126.97 147.84 126.92 148.86 127.52 149.53 Z M 128.23 150.30 L 128.89 151.00 C 129.51 151.65 130.53 151.68 131.18 151.06 C 131.83 150.44 131.86 149.42 131.24 148.77 L 130.58 148.07 C 129.96 147.42 128.94 147.39 128.29 148.01 C 127.64 148.62 127.61 149.65 128.23 150.30 Z M 128.92 151.03 L 129.57 151.69 C 130.20 152.32 131.23 152.33 131.87 151.70 C 132.50 151.07 132.51 150.04 131.87 149.40 L 131.22 148.74 C 130.59 148.11 129.56 148.10 128.92 148.73 C 128.29 149.36 128.28 150.39 128.92 151.03 Z M 129.61 151.72 L 130.30 152.37 C 130.95 152.99 131.98 152.96 132.59 152.31 C 133.20 151.66 133.17 150.63 132.52 150.02 L 131.83 149.37 C 131.18 148.76 130.16 148.79 129.55 149.44 C 128.93 150.09 128.96 151.11 129.61 151.72 Z M 130.37 152.43 L 131.10 153.04 C 131.78 153.62 132.80 153.53 133.37 152.85 C 133.95 152.17 133.86 151.16 133.18 150.58 L 132.46 149.97 C 131.78 149.39 130.76 149.47 130.18 150.15 C 129.61 150.83 129.69 151.85 130.37 152.43 Z M 131.18 153.10 L 132.01 153.72 C 132.72 154.25 133.73 154.10 134.26 153.39 C 134.79 152.68 134.64 151.67 133.93 151.14 L 133.10 150.52 C 132.39 149.99 131.38 150.14 130.85 150.85 C 130.32 151.56 130.47 152.57 131.18 153.10 Z M 132.08 153.77 L 132.96 154.35 C 133.70 154.84 134.70 154.64 135.19 153.90 C 135.68 153.16 135.47 152.16 134.74 151.67 L 133.85 151.09 C 133.11 150.60 132.12 150.80 131.63 151.54 C 131.14 152.28 131.34 153.28 132.08 153.77 Z M 132.99 154.37 L 133.85 154.92 C 134.60 155.39 135.59 155.17 136.07 154.42 C 136.55 153.67 136.32 152.67 135.57 152.20 L 134.71 151.65 C 133.96 151.18 132.96 151.40 132.49 152.15 C 132.01 152.90 132.24 153.90 132.99 154.37 Z M 133.82 154.90 L 134.69 155.49 C 135.44 155.98 136.44 155.78 136.93 155.03 C 137.43 154.29 137.22 153.29 136.48 152.79 L 135.60 152.21 C 134.86 151.72 133.86 151.92 133.36 152.66 C 132.87 153.41 133.07 154.41 133.82 154.90 Z M 134.61 155.43 L 135.42 156.05 C 136.14 156.59 137.16 156.45 137.70 155.74 C 138.24 155.02 138.10 154.01 137.38 153.46 L 136.57 152.84 C 135.85 152.30 134.83 152.44 134.29 153.16 C 133.75 153.87 133.89 154.89 134.61 155.43 Z M 135.27 155.93 L 135.96 156.59 C 136.61 157.22 137.64 157.20 138.27 156.55 C 138.89 155.90 138.87 154.87 138.22 154.24 L 137.53 153.58 C 136.88 152.96 135.85 152.98 135.23 153.63 C 134.61 154.28 134.63 155.31 135.27 155.93 Z M 135.73 156.33 L 136.27 157.14 C 136.77 157.90 137.79 158.10 138.54 157.60 C 139.30 157.10 139.50 156.08 139.00 155.33 L 138.46 154.51 C 137.96 153.76 136.94 153.55 136.18 154.05 C 135.43 154.56 135.23 155.57 135.73 156.33 Z M 136.05 156.71 L 136.34 157.66 C 136.60 158.54 137.52 159.03 138.39 158.77 C 139.27 158.51 139.77 157.59 139.50 156.71 L 139.22 155.76 C 138.96 154.88 138.03 154.39 137.16 154.65 C 136.28 154.91 135.79 155.83 136.05 156.71 Z M 136.25 157.26 L 136.29 158.24 C 136.33 159.16 137.11 159.87 138.03 159.83 C 138.95 159.79 139.67 159.01 139.63 158.09 L 139.59 157.12 C 139.55 156.19 138.77 155.48 137.85 155.52 C 136.93 155.56 136.21 156.34 136.25 157.26 Z M 136.29 157.97 L 136.18 158.94 C 136.07 159.87 136.73 160.70 137.66 160.81 C 138.58 160.92 139.42 160.25 139.52 159.33 L 139.64 158.36 C 139.74 157.43 139.08 156.60 138.15 156.49 C 137.23 156.38 136.39 157.05 136.29 157.97 Z M 136.18 158.82 L 136.00 159.78 C 135.82 160.70 136.43 161.59 137.35 161.76 C 138.27 161.94 139.16 161.33 139.33 160.41 L 139.52 159.46 C 139.69 158.53 139.09 157.65 138.17 157.47 C 137.25 157.29 136.36 157.90 136.18 158.82 Z M 136.01 159.70 L 135.79 160.65 C 135.57 161.56 136.14 162.48 137.05 162.70 C 137.97 162.91 138.88 162.35 139.10 161.43 L 139.32 160.49 C 139.54 159.57 138.97 158.65 138.06 158.44 C 137.14 158.22 136.22 158.79 136.01 159.70 Z M 135.79 160.59 L 135.53 161.55 C 135.29 162.46 135.82 163.40 136.73 163.64 C 137.64 163.89 138.58 163.36 138.83 162.45 L 139.09 161.49 C 139.34 160.58 138.80 159.64 137.89 159.39 C 136.98 159.14 136.04 159.68 135.79 160.59 Z M 135.54 161.51 L 135.24 162.52 C 134.97 163.42 135.49 164.38 136.40 164.64 C 137.30 164.91 138.26 164.40 138.52 163.49 L 138.82 162.48 C 139.09 161.58 138.58 160.62 137.67 160.35 C 136.76 160.09 135.81 160.60 135.54 161.51 Z M 135.24 162.50 L 134.98 163.34 C 134.70 164.25 135.21 165.21 136.11 165.49 C 137.02 165.77 137.98 165.26 138.26 164.36 L 138.52 163.51 C 138.80 162.60 138.30 161.64 137.39 161.36 C 136.48 161.08 135.52 161.59 135.24 162.50 Z M 134.98 163.33 L 134.70 164.22 C 134.41 165.13 134.91 166.09 135.81 166.38 C 136.72 166.67 137.68 166.17 137.97 165.27 L 138.26 164.37 C 138.55 163.47 138.05 162.50 137.14 162.21 C 136.24 161.92 135.27 162.42 134.98 163.33 Z M 134.70 164.21 L 134.39 165.16 C 134.09 166.06 134.58 167.03 135.48 167.33 C 136.39 167.63 137.36 167.14 137.66 166.24 L 137.97 165.28 C 138.27 164.38 137.78 163.41 136.87 163.11 C 135.97 162.81 135.00 163.30 134.70 164.21 Z M 134.39 165.14 L 134.05 166.15 C 133.74 167.05 134.22 168.03 135.12 168.34 C 136.02 168.65 137.00 168.16 137.31 167.26 L 137.65 166.25 C 137.96 165.35 137.48 164.37 136.58 164.07 C 135.68 163.76 134.70 164.24 134.39 165.14 Z M 134.05 166.14 L 133.68 167.18 C 133.37 168.08 133.84 169.06 134.74 169.38 C 135.64 169.69 136.63 169.22 136.94 168.32 L 137.31 167.28 C 137.62 166.38 137.15 165.40 136.25 165.08 C 135.35 164.76 134.36 165.24 134.05 166.14 Z M 133.69 167.16 L 133.34 168.11 C 133.02 169.01 133.49 170.00 134.38 170.32 C 135.28 170.65 136.27 170.18 136.59 169.28 L 136.94 168.33 C 137.26 167.44 136.80 166.45 135.90 166.12 C 135.00 165.80 134.01 166.27 133.69 167.16 Z M 133.35 168.10 L 132.99 169.07 C 132.66 169.97 133.12 170.96 134.02 171.29 C 134.91 171.62 135.91 171.16 136.24 170.27 L 136.59 169.30 C 136.92 168.40 136.46 167.41 135.57 167.08 C 134.67 166.75 133.68 167.21 133.35 168.10 Z M 132.99 169.06 L 132.63 170.03 C 132.30 170.92 132.75 171.92 133.64 172.25 C 134.54 172.59 135.54 172.14 135.87 171.24 L 136.23 170.28 C 136.57 169.38 136.12 168.38 135.22 168.05 C 134.33 167.71 133.33 168.17 132.99 169.06 Z M 132.63 170.02 L 132.27 170.96 C 131.93 171.85 132.38 172.85 133.27 173.19 C 134.17 173.54 135.17 173.09 135.51 172.19 L 135.87 171.25 C 136.21 170.36 135.76 169.36 134.87 169.02 C 133.97 168.68 132.97 169.12 132.63 170.02 Z M 132.28 170.95 L 131.93 171.85 C 131.58 172.74 132.03 173.74 132.92 174.09 C 133.81 174.43 134.81 173.99 135.16 173.10 L 135.51 172.20 C 135.85 171.31 135.41 170.31 134.52 169.96 C 133.63 169.62 132.62 170.06 132.28 170.95 Z M 131.93 171.83 L 131.55 172.80 C 131.20 173.69 131.64 174.70 132.53 175.05 C 133.42 175.40 134.42 174.96 134.78 174.07 L 135.16 173.11 C 135.51 172.22 135.07 171.21 134.18 170.86 C 133.29 170.51 132.28 170.94 131.93 171.83 Z M 131.56 172.78 L 131.16 173.76 C 130.80 174.65 131.23 175.66 132.11 176.02 C 133.00 176.38 134.01 175.95 134.38 175.07 L 134.77 174.09 C 135.13 173.20 134.70 172.19 133.82 171.83 C 132.93 171.47 131.92 171.90 131.56 172.78 Z M 131.16 173.74 L 130.79 174.64 C 130.42 175.53 130.83 176.54 131.72 176.92 C 132.60 177.29 133.62 176.87 133.99 175.98 L 134.37 175.08 C 134.74 174.20 134.32 173.18 133.44 172.81 C 132.55 172.44 131.53 172.86 131.16 173.74 Z M 130.79 174.62 L 130.42 175.48 C 130.04 176.37 130.45 177.39 131.33 177.77 C 132.21 178.15 133.23 177.74 133.61 176.86 L 133.99 176.00 C 134.37 175.12 133.96 174.10 133.08 173.72 C 132.20 173.34 131.17 173.74 130.79 174.62 Z M 130.43 175.47 L 130.05 176.33 C 129.66 177.21 130.05 178.24 130.93 178.63 C 131.81 179.02 132.84 178.62 133.23 177.74 L 133.61 176.88 C 134.00 176.00 133.60 174.97 132.72 174.58 C 131.85 174.19 130.82 174.59 130.43 175.47 Z M 130.05 176.32 L 129.65 177.21 C 129.25 178.08 129.64 179.12 130.51 179.51 C 131.39 179.91 132.42 179.52 132.82 178.65 L 133.22 177.76 C 133.62 176.88 133.23 175.85 132.35 175.45 C 131.48 175.05 130.45 175.44 130.05 176.32 Z M 129.65 177.20 L 129.23 178.11 C 128.83 178.98 129.21 180.01 130.08 180.42 C 130.96 180.82 131.99 180.44 132.39 179.57 L 132.81 178.66 C 133.22 177.78 132.83 176.75 131.96 176.35 C 131.09 175.94 130.05 176.32 129.65 177.20 Z M 129.23 178.10 L 128.81 179.02 C 128.40 179.89 128.77 180.93 129.64 181.33 C 130.52 181.74 131.55 181.36 131.96 180.49 L 132.39 179.57 C 132.80 178.70 132.42 177.67 131.55 177.26 C 130.68 176.85 129.64 177.23 129.23 178.10 Z M 128.81 179.01 L 128.37 179.93 C 127.96 180.80 128.33 181.84 129.20 182.25 C 130.07 182.66 131.11 182.29 131.52 181.42 L 131.96 180.50 C 132.37 179.63 132.00 178.59 131.13 178.18 C 130.26 177.77 129.22 178.14 128.81 179.01 Z M 128.37 179.93 L 127.95 180.83 C 127.53 181.70 127.90 182.74 128.77 183.15 C 129.64 183.56 130.68 183.19 131.09 182.32 L 131.52 181.42 C 131.93 180.56 131.57 179.52 130.70 179.10 C 129.83 178.69 128.79 179.06 128.37 179.93 Z M 127.95 180.83 L 127.52 181.72 C 127.10 182.59 127.47 183.63 128.34 184.05 C 129.21 184.46 130.25 184.09 130.66 183.22 L 131.09 182.33 C 131.51 181.46 131.14 180.42 130.27 180.00 C 129.40 179.59 128.36 179.96 127.95 180.83 Z M 127.52 181.73 L 127.09 182.63 C 126.67 183.50 127.04 184.54 127.91 184.95 C 128.78 185.36 129.82 184.99 130.24 184.12 L 130.66 183.22 C 131.08 182.35 130.71 181.31 129.84 180.90 C 128.97 180.49 127.93 180.86 127.52 181.73 Z M 127.09 182.63 L 126.66 183.54 C 126.25 184.41 126.62 185.45 127.49 185.86 C 128.36 186.27 129.40 185.90 129.81 185.03 L 130.24 184.12 C 130.65 183.25 130.28 182.21 129.41 181.80 C 128.53 181.39 127.50 181.76 127.09 182.63 Z M 126.65 183.55 L 126.24 184.44 C 125.83 185.32 126.21 186.35 127.08 186.76 C 127.95 187.16 128.99 186.79 129.40 185.91 L 129.81 185.02 C 130.22 184.15 129.84 183.11 128.97 182.70 C 128.10 182.30 127.06 182.68 126.65 183.55 Z M 126.23 184.45 L 125.82 185.34 C 125.42 186.22 125.80 187.25 126.68 187.66 C 127.55 188.06 128.58 187.68 128.99 186.80 L 129.40 185.91 C 129.80 185.03 129.42 184.00 128.55 183.60 C 127.67 183.19 126.64 183.57 126.23 184.45 Z M 125.82 185.34 L 125.40 186.25 C 125.00 187.13 125.39 188.16 126.26 188.56 C 127.13 188.96 128.17 188.58 128.57 187.71 L 128.99 186.80 C 129.39 185.93 129.01 184.89 128.13 184.49 C 127.26 184.09 126.22 184.47 125.82 185.34 Z M 125.41 186.25 L 124.98 187.17 C 124.58 188.04 124.96 189.08 125.83 189.48 C 126.71 189.88 127.74 189.50 128.15 188.63 L 128.57 187.71 C 128.97 186.84 128.59 185.80 127.72 185.40 C 126.84 184.99 125.81 185.37 125.41 186.25 Z M 124.98 187.16 L 124.55 188.09 C 124.15 188.96 124.52 189.99 125.40 190.40 C 126.27 190.81 127.31 190.43 127.71 189.56 L 128.14 188.64 C 128.55 187.76 128.17 186.73 127.30 186.32 C 126.43 185.91 125.39 186.29 124.98 187.16 Z M 124.56 188.08 L 124.13 188.97 C 123.72 189.84 124.10 190.88 124.97 191.29 C 125.84 191.70 126.88 191.33 127.29 190.46 L 127.71 189.57 C 128.12 188.70 127.75 187.66 126.88 187.25 C 126.01 186.83 124.97 187.21 124.56 188.08 Z M 124.14 188.96 L 123.71 189.87 C 123.29 190.74 123.66 191.78 124.53 192.19 C 125.40 192.60 126.44 192.23 126.86 191.36 L 127.28 190.46 C 127.70 189.59 127.33 188.55 126.46 188.14 C 125.59 187.73 124.55 188.10 124.14 188.96 Z M 123.71 189.86 L 123.28 190.77 C 122.86 191.64 123.23 192.68 124.10 193.10 C 124.97 193.51 126.01 193.14 126.42 192.27 L 126.86 191.37 C 127.27 190.50 126.90 189.46 126.03 189.04 C 125.16 188.63 124.12 189.00 123.71 189.86 Z M 123.27 190.77 L 122.84 191.69 C 122.43 192.56 122.80 193.60 123.67 194.01 C 124.54 194.42 125.58 194.05 125.99 193.18 L 126.42 192.27 C 126.84 191.40 126.47 190.36 125.60 189.95 C 124.73 189.53 123.69 189.90 123.27 190.77 Z M 122.84 191.69 L 122.41 192.60 C 122.00 193.47 122.38 194.51 123.25 194.92 C 124.12 195.33 125.16 194.96 125.57 194.08 L 125.99 193.18 C 126.40 192.30 126.03 191.27 125.16 190.86 C 124.29 190.45 123.25 190.82 122.84 191.69 Z M 122.41 192.61 L 121.99 193.51 C 121.58 194.39 121.96 195.42 122.83 195.83 C 123.71 196.23 124.74 195.86 125.15 194.98 L 125.57 194.08 C 125.97 193.20 125.60 192.17 124.72 191.76 C 123.85 191.36 122.81 191.74 122.41 192.61 Z M 121.99 193.52 L 121.57 194.43 C 121.17 195.30 121.55 196.34 122.43 196.74 C 123.30 197.14 124.33 196.76 124.73 195.88 L 125.15 194.98 C 125.55 194.10 125.17 193.07 124.30 192.67 C 123.42 192.26 122.39 192.65 121.99 193.52 Z M 121.57 194.43 L 121.15 195.34 C 120.76 196.22 121.14 197.25 122.02 197.65 C 122.89 198.05 123.93 197.66 124.32 196.79 L 124.74 195.88 C 125.13 195.00 124.75 193.97 123.87 193.57 C 123.00 193.17 121.96 193.56 121.57 194.43 Z M 121.15 195.35 L 120.74 196.26 C 120.35 197.14 120.74 198.17 121.61 198.57 C 122.49 198.96 123.52 198.57 123.91 197.69 L 124.32 196.78 C 124.72 195.90 124.33 194.87 123.45 194.48 C 122.58 194.08 121.55 194.47 121.15 195.35 Z M 120.74 196.27 L 120.34 197.17 C 119.94 198.05 120.34 199.07 121.21 199.47 C 122.09 199.86 123.12 199.47 123.51 198.59 L 123.91 197.69 C 124.31 196.81 123.91 195.78 123.04 195.39 C 122.16 195.00 121.13 195.39 120.74 196.27 Z M 120.33 197.17 L 119.94 198.07 C 119.55 198.94 119.94 199.97 120.82 200.36 C 121.70 200.75 122.73 200.36 123.12 199.48 L 123.51 198.59 C 123.90 197.71 123.51 196.68 122.63 196.29 C 121.75 195.90 120.72 196.30 120.33 197.17 Z M 119.94 198.07 L 119.54 198.98 C 119.15 199.86 119.55 200.88 120.43 201.27 C 121.31 201.66 122.33 201.26 122.72 200.38 L 123.12 199.47 C 123.50 198.59 123.11 197.57 122.23 197.18 C 121.35 196.80 120.32 197.19 119.94 198.07 Z M 119.54 198.98 L 119.13 199.91 C 118.75 200.79 119.15 201.81 120.03 202.19 C 120.91 202.58 121.94 202.17 122.32 201.29 L 122.72 200.37 C 123.10 199.49 122.70 198.47 121.82 198.09 C 120.94 197.70 119.92 198.10 119.54 198.98 Z M 119.13 199.91 L 118.73 200.86 C 118.35 201.74 118.75 202.76 119.64 203.14 C 120.52 203.51 121.54 203.11 121.92 202.23 L 122.32 201.29 C 122.70 200.40 122.29 199.38 121.41 199.00 C 120.53 198.63 119.51 199.03 119.13 199.91 Z M 118.72 200.86 L 118.33 201.80 C 117.95 202.68 118.36 203.70 119.25 204.08 C 120.13 204.45 121.15 204.04 121.52 203.16 L 121.92 202.22 C 122.29 201.34 121.88 200.32 121.00 199.94 C 120.12 199.57 119.10 199.98 118.72 200.86 Z M 118.32 201.81 L 117.93 202.74 C 117.56 203.63 117.98 204.64 118.86 205.01 C 119.74 205.38 120.76 204.97 121.13 204.08 L 121.52 203.15 C 121.89 202.27 121.48 201.25 120.59 200.88 C 119.71 200.51 118.69 200.93 118.32 201.81 Z M 117.93 202.75 L 117.54 203.69 C 117.18 204.58 117.60 205.59 118.48 205.95 C 119.36 206.32 120.38 205.90 120.74 205.02 L 121.13 204.08 C 121.50 203.19 121.08 202.18 120.19 201.81 C 119.31 201.45 118.30 201.87 117.93 202.75 Z M 117.54 203.70 L 117.16 204.63 C 116.80 205.52 117.22 206.53 118.10 206.89 C 118.99 207.25 120.00 206.83 120.36 205.94 L 120.74 205.01 C 121.11 204.13 120.68 203.11 119.80 202.75 C 118.91 202.39 117.90 202.81 117.54 203.70 Z M 117.16 204.64 L 116.79 205.55 C 116.43 206.44 116.85 207.45 117.74 207.81 C 118.62 208.17 119.63 207.74 119.99 206.85 L 120.36 205.94 C 120.72 205.05 120.30 204.04 119.41 203.68 C 118.52 203.33 117.52 203.75 117.16 204.64 Z M 116.78 205.56 L 116.41 206.49 C 116.06 207.37 116.49 208.38 117.37 208.74 C 118.26 209.09 119.27 208.66 119.62 207.77 L 119.99 206.85 C 120.35 205.96 119.92 204.95 119.03 204.60 C 118.15 204.24 117.14 204.67 116.78 205.56 Z M 116.41 206.49 L 116.02 207.48 C 115.67 208.37 116.10 209.37 116.99 209.72 C 117.88 210.07 118.88 209.64 119.23 208.75 L 119.62 207.77 C 119.97 206.88 119.54 205.88 118.65 205.53 C 117.77 205.17 116.76 205.61 116.41 206.49 Z M 116.02 207.49 L 115.65 208.43 C 115.30 209.31 115.74 210.32 116.63 210.66 C 117.51 211.01 118.51 210.58 118.86 209.69 L 119.23 208.75 C 119.58 207.86 119.14 206.86 118.26 206.51 C 117.37 206.16 116.37 206.60 116.02 207.49 Z M 115.65 208.43 L 115.30 209.34 C 114.95 210.23 115.39 211.23 116.28 211.57 C 117.16 211.92 118.16 211.48 118.51 210.59 L 118.86 209.69 C 119.21 208.80 118.77 207.80 117.88 207.45 C 117.00 207.11 116.00 207.55 115.65 208.43 Z M 115.30 209.34 L 114.96 210.22 C 114.61 211.11 115.05 212.10 115.94 212.45 C 116.82 212.79 117.82 212.36 118.16 211.47 L 118.51 210.59 C 118.85 209.70 118.41 208.71 117.53 208.36 C 116.64 208.02 115.64 208.45 115.30 209.34 Z M 114.96 210.22 L 114.62 211.09 C 114.27 211.97 114.71 212.97 115.60 213.32 C 116.48 213.66 117.48 213.22 117.82 212.34 L 118.16 211.47 C 118.51 210.58 118.07 209.59 117.19 209.24 C 116.30 208.90 115.30 209.33 114.96 210.22 Z M 114.62 211.09 L 114.28 211.96 C 113.94 212.85 114.37 213.84 115.26 214.19 C 116.14 214.53 117.14 214.10 117.48 213.21 L 117.82 212.34 C 118.17 211.45 117.73 210.46 116.85 210.11 C 115.96 209.77 114.97 210.20 114.62 211.09 Z M 114.28 211.97 L 113.93 212.88 C 113.59 213.76 114.02 214.75 114.91 215.10 C 115.79 215.44 116.79 215.00 117.13 214.12 L 117.48 213.21 C 117.82 212.32 117.38 211.33 116.50 210.99 C 115.62 210.65 114.62 211.08 114.28 211.97 Z M 113.93 212.88 L 113.55 213.86 C 113.21 214.74 113.66 215.73 114.54 216.07 C 115.42 216.41 116.41 215.97 116.75 215.09 L 117.13 214.11 C 117.47 213.23 117.03 212.24 116.14 211.90 C 115.26 211.56 114.27 212.00 113.93 212.88 Z M 113.55 213.87 L 113.18 214.86 C 112.84 215.75 113.28 216.73 114.17 217.07 C 115.05 217.40 116.04 216.96 116.38 216.08 L 116.75 215.08 C 117.09 214.20 116.64 213.21 115.76 212.87 C 114.88 212.54 113.89 212.98 113.55 213.87 Z M 113.17 214.87 L 112.84 215.76 C 112.51 216.64 112.96 217.63 113.84 217.96 C 114.72 218.29 115.71 217.84 116.04 216.96 L 116.38 216.07 C 116.71 215.19 116.26 214.20 115.38 213.87 C 114.49 213.54 113.51 213.98 113.17 214.87 Z M 112.84 215.76 L 112.49 216.70 C 112.16 217.58 112.61 218.57 113.50 218.89 C 114.38 219.22 115.37 218.77 115.70 217.89 L 116.04 216.95 C 116.37 216.07 115.92 215.09 115.04 214.76 C 114.15 214.43 113.17 214.88 112.84 215.76 Z M 112.49 216.70 L 112.14 217.67 C 111.81 218.55 112.27 219.53 113.15 219.86 C 114.03 220.18 115.02 219.73 115.34 218.85 L 115.70 217.88 C 116.02 217.00 115.57 216.02 114.68 215.69 C 113.80 215.37 112.82 215.82 112.49 216.70 Z M 112.14 217.67 L 111.78 218.64 C 111.46 219.53 111.92 220.51 112.80 220.83 C 113.69 221.15 114.67 220.70 114.99 219.81 L 115.34 218.84 C 115.66 217.95 115.21 216.98 114.32 216.65 C 113.44 216.33 112.46 216.79 112.14 217.67 Z M 111.78 218.65 L 111.44 219.61 C 111.12 220.50 111.58 221.47 112.46 221.79 C 113.35 222.11 114.33 221.65 114.64 220.76 L 114.99 219.80 C 115.31 218.92 114.85 217.94 113.96 217.62 C 113.08 217.31 112.10 217.77 111.78 218.65 Z M 111.44 219.62 L 111.10 220.58 C 110.79 221.46 111.25 222.43 112.14 222.75 C 113.02 223.06 113.99 222.60 114.31 221.71 L 114.64 220.75 C 114.96 219.87 114.49 218.90 113.61 218.58 C 112.72 218.27 111.75 218.73 111.44 219.62 Z M 111.10 220.59 L 110.77 221.54 C 110.46 222.42 110.93 223.39 111.81 223.70 C 112.70 224.01 113.67 223.54 113.97 222.65 L 114.31 221.70 C 114.61 220.82 114.15 219.85 113.26 219.54 C 112.38 219.23 111.41 219.70 111.10 220.59 Z M 110.77 221.54 L 110.45 222.47 C 110.15 223.36 110.61 224.32 111.50 224.63 C 112.38 224.93 113.35 224.46 113.65 223.58 L 113.97 222.65 C 114.28 221.76 113.81 220.80 112.92 220.49 C 112.04 220.19 111.08 220.66 110.77 221.54 Z M 110.45 222.48 L 110.14 223.40 C 109.83 224.28 110.30 225.24 111.18 225.55 C 112.06 225.85 113.02 225.38 113.33 224.50 L 113.65 223.57 C 113.95 222.69 113.48 221.73 112.60 221.43 C 111.72 221.12 110.76 221.59 110.45 222.48 Z M 110.14 223.40 L 109.82 224.34 C 109.51 225.22 109.98 226.17 110.86 226.48 C 111.74 226.78 112.69 226.32 113.00 225.44 L 113.32 224.50 C 113.63 223.62 113.16 222.66 112.28 222.36 C 111.40 222.05 110.44 222.52 110.14 223.40 Z M 109.82 224.33 L 109.48 225.30 C 109.18 226.17 109.64 227.13 110.51 227.44 C 111.39 227.74 112.35 227.28 112.65 226.41 L 112.99 225.44 C 113.30 224.57 112.84 223.61 111.96 223.30 C 111.09 223.00 110.13 223.46 109.82 224.33 Z M 109.49 225.29 L 109.15 226.24 C 108.84 227.11 109.30 228.07 110.17 228.38 C 111.04 228.69 112.00 228.23 112.31 227.36 L 112.65 226.41 C 112.96 225.54 112.50 224.58 111.63 224.27 C 110.76 223.96 109.80 224.42 109.49 225.29 Z M 109.16 226.24 L 108.82 227.20 C 108.50 228.07 108.96 229.03 109.82 229.34 C 110.69 229.65 111.65 229.20 111.96 228.33 L 112.30 227.36 C 112.61 226.49 112.16 225.54 111.29 225.23 C 110.43 224.92 109.47 225.37 109.16 226.24 Z M 108.82 227.21 L 108.47 228.18 C 108.17 229.04 108.62 230.00 109.48 230.30 C 110.35 230.61 111.30 230.16 111.61 229.29 L 111.95 228.32 C 112.26 227.46 111.81 226.51 110.94 226.20 C 110.08 225.89 109.13 226.34 108.82 227.21 Z M 108.48 228.19 L 108.14 229.15 C 107.84 230.01 108.29 230.96 109.16 231.26 C 110.02 231.56 110.97 231.11 111.27 230.24 L 111.60 229.28 C 111.91 228.42 111.45 227.48 110.59 227.17 C 109.72 226.87 108.78 227.33 108.48 228.19 Z M 108.14 229.17 L 107.83 230.10 C 107.53 230.96 108.00 231.90 108.86 232.19 C 109.72 232.48 110.66 232.02 110.95 231.16 L 111.27 230.23 C 111.56 229.36 111.10 228.43 110.24 228.13 C 109.37 227.84 108.44 228.30 108.14 229.17 Z M 107.83 230.12 L 107.53 231.03 C 107.25 231.89 107.73 232.82 108.59 233.10 C 109.45 233.38 110.38 232.90 110.66 232.04 L 110.95 231.13 C 111.23 230.27 110.76 229.34 109.89 229.06 C 109.03 228.78 108.11 229.26 107.83 230.12 Z M 107.54 231.07 L 107.24 232.09 C 106.98 232.95 107.47 233.85 108.33 234.11 C 109.19 234.36 110.10 233.87 110.35 233.01 L 110.65 232.00 C 110.91 231.14 110.42 230.23 109.56 229.98 C 108.70 229.72 107.80 230.21 107.54 231.07 Z M 107.25 232.15 L 107.00 233.11 C 106.78 233.96 107.30 234.83 108.15 235.05 C 109.00 235.27 109.87 234.76 110.09 233.91 L 110.34 232.95 C 110.56 232.10 110.05 231.23 109.19 231.01 C 108.34 230.79 107.47 231.30 107.25 232.15 Z M 107.02 233.18 L 106.82 234.12 C 106.63 234.97 107.17 235.80 108.01 235.98 C 108.86 236.16 109.69 235.62 109.87 234.78 L 110.07 233.84 C 110.26 233.00 109.72 232.17 108.88 231.98 C 108.03 231.80 107.20 232.34 107.02 233.18 Z M 106.83 234.19 L 106.67 235.15 C 106.53 235.99 107.09 236.78 107.92 236.92 C 108.76 237.06 109.55 236.50 109.69 235.67 L 109.85 234.71 C 110.00 233.87 109.44 233.08 108.60 232.94 C 107.77 232.80 106.97 233.36 106.83 234.19 Z M 106.69 235.22 L 106.56 236.17 C 106.46 237.00 107.04 237.75 107.86 237.86 C 108.69 237.97 109.44 237.38 109.55 236.56 L 109.67 235.60 C 109.78 234.78 109.20 234.02 108.37 233.91 C 107.55 233.81 106.79 234.39 106.69 235.22 Z M 106.58 236.22 L 106.48 237.16 C 106.40 237.98 107.00 238.71 107.82 238.79 C 108.64 238.87 109.37 238.27 109.45 237.46 L 109.54 236.51 C 109.62 235.69 109.02 234.96 108.20 234.88 C 107.38 234.80 106.66 235.40 106.58 236.22 Z M 106.49 237.20 L 106.42 238.18 C 106.36 239.00 106.96 239.71 107.78 239.77 C 108.59 239.83 109.30 239.22 109.36 238.41 L 109.44 237.42 C 109.50 236.61 108.89 235.90 108.08 235.84 C 107.26 235.78 106.56 236.38 106.49 237.20 Z M 106.43 238.21 L 106.37 239.22 C 106.32 240.03 106.93 240.72 107.74 240.77 C 108.54 240.82 109.24 240.21 109.29 239.40 L 109.35 238.39 C 109.40 237.58 108.79 236.88 107.98 236.83 C 107.17 236.79 106.48 237.40 106.43 238.21 Z M 106.38 239.24 L 106.32 240.27 C 106.28 241.07 106.90 241.76 107.70 241.80 C 108.50 241.84 109.18 241.22 109.22 240.42 L 109.28 239.39 C 109.32 238.59 108.70 237.90 107.90 237.86 C 107.10 237.82 106.42 238.44 106.38 239.24 Z M 106.33 240.28 L 106.29 241.21 C 106.25 242.00 106.86 242.68 107.66 242.72 C 108.45 242.75 109.13 242.14 109.16 241.35 L 109.21 240.42 C 109.25 239.62 108.64 238.95 107.84 238.91 C 107.05 238.87 106.37 239.48 106.33 240.28 Z"
      fill="black"
      fill-rule="nonzero" /></svg>