<svg xmlns="http://www.w3.org/2000/svg" width="300" height="300" viewBox="0 0 300 300">
<path d="M 68.05 71.76 L 67.40 70.88 C 66.85 70.14 65.82 69.99 65.09 70.53 C 64.35 71.07 64.20 72.11 64.74 72.84 L 65.39 73.72 C 65.93 74.45 66.96 74.61 67.70 74.07 C 68.43 73.52 68.59 72.49 68.05 71.76 Z M 67.40 70.85 L 66.75 69.99 C 66.19 69.26 65.14 69.12 64.41 69.68 C 63.67 70.24 63.53 71.28 64.09 72.02 L 64.74 72.87 C 65.29 73.61 66.34 73.75 67.08 73.19 C 67.81 72.63 67.96 71.58 67.40 70.85 Z M 66.73 69.94 L 66.09 69.15 C 65.50 68.42 64.44 68.31 63.71 68.90 C 62.98 69.48 62.87 70.55 63.46 71.28 L 64.10 72.07 C 64.69 72.80 65.76 72.91 66.48 72.32 C 67.21 71.73 67.32 70.67 66.73 69.94 Z M 66.05 69.07 L 65.41 68.36 C 64.78 67.65 63.70 67.59 62.99 68.22 C 62.29 68.86 62.23 69.94 62.86 70.65 L 63.50 71.36 C 64.13 72.06 65.22 72.12 65.92 71.49 C 66.62 70.86 66.68 69.77 66.05 69.07 Z M 65.33 68.24 L 64.70 67.64 C 64.01 66.98 62.91 67.01 62.25 67.71 C 61.59 68.40 61.62 69.50 62.31 70.16 L 62.94 70.76 C 63.64 71.42 64.74 71.39 65.40 70.70 C 66.06 70.00 66.03 68.90 65.33 68.24 Z M 64.50 67.43 L 63.50 66.76 C 62.69 66.21 61.58 66.43 61.04 67.24 C 60.49 68.06 60.71 69.16 61.52 69.71 L 62.52 70.38 C 63.33 70.92 64.43 70.71 64.98 69.89 C 65.53 69.08 65.31 67.98 64.50 67.43 Z M 62.96 66.46 L 62.03 66.22 C 61.05 65.97 60.05 66.57 59.80 67.55 C 59.56 68.53 60.15 69.53 61.13 69.78 L 62.06 70.01 C 63.04 70.26 64.04 69.66 64.29 68.68 C 64.54 67.70 63.94 66.70 62.96 66.46 Z M 60.88 66.24 L 60.14 66.54 C 59.17 66.93 58.70 68.03 59.08 69.00 C 59.47 69.97 60.57 70.44 61.54 70.05 L 62.29 69.76 C 63.26 69.37 63.73 68.27 63.34 67.30 C 62.95 66.32 61.85 65.85 60.88 66.24 Z M 59.20 67.27 L 58.78 67.94 C 58.21 68.85 58.49 70.04 59.40 70.61 C 60.30 71.17 61.49 70.90 62.06 69.99 L 62.48 69.32 C 63.05 68.41 62.77 67.22 61.87 66.65 C 60.96 66.09 59.77 66.36 59.20 67.27 Z M 58.53 68.47 L 58.28 69.41 C 58.01 70.46 58.64 71.53 59.68 71.80 C 60.73 72.07 61.79 71.45 62.07 70.40 L 62.31 69.46 C 62.59 68.42 61.96 67.35 60.91 67.08 C 59.87 66.80 58.80 67.43 58.53 68.47 Z M 58.21 69.72 L 58.11 70.82 C 58.01 71.90 58.80 72.87 59.89 72.97 C 60.97 73.07 61.94 72.27 62.04 71.19 L 62.14 70.09 C 62.24 69.01 61.44 68.05 60.36 67.94 C 59.27 67.84 58.31 68.64 58.21 69.72 Z M 58.08 71.04 L 58.10 72.14 C 58.12 73.24 59.03 74.11 60.13 74.09 C 61.23 74.08 62.10 73.17 62.08 72.07 L 62.06 70.97 C 62.04 69.87 61.14 68.99 60.04 69.01 C 58.94 69.03 58.06 69.94 58.08 71.04 Z M 58.10 72.33 L 58.22 73.31 C 58.34 74.41 59.33 75.20 60.43 75.07 C 61.53 74.95 62.31 73.96 62.19 72.86 L 62.08 71.88 C 61.96 70.78 60.96 69.99 59.87 70.12 C 58.77 70.24 57.98 71.23 58.10 72.33 Z M 58.24 73.49 L 58.44 74.45 C 58.66 75.53 59.72 76.23 60.80 76.00 C 61.89 75.78 62.58 74.72 62.36 73.64 L 62.16 72.68 C 61.94 71.60 60.88 70.90 59.80 71.12 C 58.72 71.35 58.02 72.41 58.24 73.49 Z M 58.47 74.60 L 58.75 75.56 C 59.06 76.62 60.17 77.23 61.24 76.92 C 62.30 76.62 62.91 75.50 62.60 74.44 L 62.33 73.48 C 62.02 72.42 60.90 71.81 59.84 72.12 C 58.78 72.42 58.16 73.54 58.47 74.60 Z M 58.79 75.67 L 59.13 76.63 C 59.50 77.67 60.65 78.22 61.70 77.84 C 62.74 77.47 63.28 76.32 62.91 75.28 L 62.57 74.32 C 62.19 73.28 61.04 72.73 60.00 73.11 C 58.96 73.48 58.41 74.63 58.79 75.67 Z M 59.15 76.70 L 59.50 77.55 C 59.91 78.58 61.08 79.07 62.11 78.66 C 63.14 78.24 63.64 77.07 63.22 76.04 L 62.88 75.20 C 62.47 74.17 61.30 73.67 60.27 74.09 C 59.24 74.50 58.74 75.67 59.15 76.70 Z M 59.52 77.60 L 59.90 78.48 C 60.34 79.50 61.53 79.96 62.55 79.52 C 63.56 79.08 64.03 77.89 63.59 76.87 L 63.20 75.99 C 62.76 74.97 61.57 74.51 60.56 74.95 C 59.54 75.40 59.07 76.58 59.52 77.60 Z M 59.92 78.52 L 60.34 79.44 C 60.80 80.45 62.00 80.89 63.01 80.42 C 64.02 79.96 64.46 78.76 63.99 77.76 L 63.57 76.84 C 63.11 75.83 61.91 75.39 60.90 75.85 C 59.89 76.31 59.45 77.51 59.92 78.52 Z M 60.35 79.46 L 60.81 80.42 C 61.29 81.42 62.49 81.85 63.49 81.37 C 64.50 80.89 64.92 79.69 64.44 78.68 L 63.98 77.73 C 63.50 76.73 62.30 76.30 61.30 76.78 C 60.30 77.26 59.87 78.46 60.35 79.46 Z M 60.82 80.44 L 61.29 81.41 C 61.78 82.41 62.99 82.82 63.99 82.33 C 64.99 81.84 65.40 80.64 64.91 79.64 L 64.43 78.67 C 63.94 77.67 62.74 77.26 61.74 77.75 C 60.74 78.24 60.33 79.44 60.82 80.44 Z M 61.30 81.42 L 61.76 82.35 C 62.26 83.34 63.46 83.74 64.46 83.25 C 65.45 82.75 65.86 81.54 65.36 80.55 L 64.90 79.63 C 64.41 78.63 63.20 78.23 62.20 78.72 C 61.21 79.22 60.80 80.43 61.30 81.42 Z M 61.76 82.36 L 62.23 83.28 C 62.74 84.28 63.95 84.67 64.94 84.17 C 65.93 83.67 66.33 82.46 65.83 81.47 L 65.36 80.54 C 64.86 79.55 63.65 79.15 62.65 79.65 C 61.66 80.15 61.26 81.36 61.76 82.36 Z M 62.24 83.29 L 62.71 84.21 C 63.21 85.20 64.43 85.59 65.42 85.08 C 66.40 84.58 66.80 83.36 66.29 82.37 L 65.82 81.46 C 65.32 80.47 64.10 80.08 63.11 80.58 C 62.12 81.09 61.73 82.30 62.24 83.29 Z M 62.71 84.22 L 63.17 85.10 C 63.68 86.08 64.89 86.47 65.88 85.96 C 66.87 85.45 67.25 84.23 66.74 83.24 L 66.29 82.36 C 65.77 81.38 64.56 80.99 63.57 81.50 C 62.58 82.01 62.20 83.23 62.71 84.22 Z M 63.17 85.11 L 63.61 85.93 C 64.12 86.92 65.34 87.30 66.32 86.78 C 67.31 86.26 67.69 85.04 67.17 84.06 L 66.74 83.23 C 66.22 82.25 65.00 81.87 64.02 82.39 C 63.03 82.91 62.65 84.12 63.17 85.11 Z M 63.61 85.95 L 64.12 86.90 C 64.65 87.88 65.87 88.25 66.85 87.73 C 67.83 87.20 68.20 85.98 67.67 85.00 L 67.16 84.05 C 66.64 83.07 65.42 82.70 64.44 83.22 C 63.46 83.75 63.09 84.97 63.61 85.95 Z M 64.13 86.92 L 64.63 87.83 C 65.17 88.80 66.39 89.16 67.36 88.62 C 68.34 88.09 68.70 86.87 68.16 85.89 L 67.66 84.98 C 67.13 84.01 65.91 83.65 64.93 84.19 C 63.96 84.72 63.60 85.95 64.13 86.92 Z M 64.64 87.85 L 65.11 88.68 C 65.65 89.65 66.88 89.99 67.85 89.44 C 68.82 88.90 69.16 87.67 68.62 86.70 L 68.15 85.87 C 67.61 84.90 66.38 84.56 65.41 85.10 C 64.44 85.65 64.10 86.88 64.64 87.85 Z M 65.12 88.69 L 65.58 89.49 C 66.13 90.45 67.36 90.79 68.33 90.23 C 69.29 89.68 69.62 88.45 69.07 87.48 L 68.61 86.69 C 68.05 85.72 66.82 85.39 65.86 85.94 C 64.90 86.50 64.56 87.73 65.12 88.69 Z M 65.59 89.50 L 66.07 90.34 C 66.64 91.30 67.87 91.62 68.83 91.06 C 69.79 90.49 70.11 89.26 69.55 88.30 L 69.06 87.47 C 68.50 86.51 67.26 86.19 66.30 86.75 C 65.35 87.31 65.02 88.55 65.59 89.50 Z M 66.08 90.35 L 66.59 91.21 C 67.16 92.16 68.40 92.47 69.35 91.90 C 70.31 91.33 70.62 90.10 70.05 89.14 L 69.54 88.29 C 68.97 87.33 67.73 87.02 66.78 87.59 C 65.82 88.16 65.51 89.40 66.08 90.35 Z M 66.60 91.22 L 67.13 92.08 C 67.71 93.03 68.94 93.33 69.89 92.76 C 70.84 92.18 71.14 90.94 70.57 89.99 L 70.04 89.13 C 69.46 88.18 68.22 87.88 67.27 88.46 C 66.32 89.03 66.02 90.27 66.60 91.22 Z M 67.14 92.10 L 67.67 92.96 C 68.26 93.90 69.50 94.19 70.45 93.60 C 71.39 93.01 71.68 91.77 71.09 90.83 L 70.55 89.97 C 69.96 89.03 68.72 88.74 67.78 89.33 C 66.84 89.92 66.55 91.16 67.14 92.10 Z M 67.69 92.98 L 68.22 93.81 C 68.82 94.75 70.06 95.02 71.00 94.42 C 71.94 93.82 72.21 92.58 71.61 91.64 L 71.08 90.81 C 70.48 89.87 69.23 89.60 68.30 90.20 C 67.36 90.80 67.09 92.04 67.69 92.98 Z M 68.23 93.83 L 68.77 94.66 C 69.38 95.59 70.63 95.85 71.56 95.24 C 72.49 94.63 72.75 93.38 72.14 92.45 L 71.60 91.62 C 70.99 90.69 69.74 90.43 68.81 91.04 C 67.88 91.65 67.62 92.90 68.23 93.83 Z M 68.78 94.67 L 69.34 95.51 C 69.96 96.43 71.21 96.68 72.13 96.06 C 73.06 95.45 73.31 94.20 72.69 93.27 L 72.13 92.44 C 71.52 91.51 70.27 91.26 69.34 91.88 C 68.42 92.50 68.17 93.75 68.78 94.67 Z M 69.35 95.52 L 69.92 96.36 C 70.54 97.28 71.79 97.52 72.71 96.90 C 73.63 96.27 73.87 95.02 73.25 94.10 L 72.68 93.26 C 72.06 92.34 70.81 92.10 69.89 92.72 C 68.97 93.35 68.73 94.60 69.35 95.52 Z M 69.92 96.37 L 70.47 97.17 C 71.10 98.09 72.35 98.32 73.27 97.69 C 74.19 97.07 74.42 95.81 73.79 94.90 L 73.25 94.09 C 72.62 93.17 71.36 92.94 70.45 93.57 C 69.53 94.20 69.29 95.45 69.92 96.37 Z M 70.48 97.18 L 71.04 97.99 C 71.67 98.91 72.93 99.14 73.84 98.50 C 74.76 97.87 74.99 96.62 74.35 95.70 L 73.79 94.89 C 73.16 93.97 71.90 93.74 70.99 94.38 C 70.07 95.01 69.84 96.26 70.48 97.18 Z M 71.05 98.00 L 71.63 98.83 C 72.27 99.74 73.52 99.96 74.43 99.32 C 75.34 98.69 75.56 97.43 74.93 96.52 L 74.35 95.69 C 73.71 94.78 72.45 94.56 71.54 95.20 C 70.63 95.84 70.41 97.09 71.05 98.00 Z M 71.64 98.84 L 72.23 99.68 C 72.88 100.59 74.13 100.80 75.04 100.15 C 75.94 99.51 76.16 98.25 75.51 97.35 L 74.92 96.51 C 74.27 95.60 73.02 95.39 72.11 96.03 C 71.20 96.68 70.99 97.94 71.64 98.84 Z M 72.24 99.69 L 72.82 100.49 C 73.47 101.39 74.72 101.59 75.63 100.94 C 76.53 100.29 76.73 99.04 76.08 98.13 L 75.50 97.33 C 74.85 96.43 73.60 96.23 72.69 96.88 C 71.79 97.53 71.59 98.79 72.24 99.69 Z M 72.82 100.50 L 73.41 101.30 C 74.06 102.20 75.32 102.40 76.22 101.74 C 77.12 101.09 77.32 99.83 76.66 98.93 L 76.08 98.13 C 75.42 97.23 74.16 97.03 73.26 97.68 C 72.36 98.34 72.17 99.60 72.82 100.50 Z M 73.41 101.30 L 74.00 102.11 C 74.66 103.01 75.92 103.21 76.82 102.55 C 77.71 101.89 77.91 100.63 77.25 99.74 L 76.66 98.93 C 76.00 98.03 74.74 97.83 73.84 98.49 C 72.95 99.15 72.75 100.41 73.41 101.30 Z M 74.00 102.11 L 74.60 102.93 C 75.25 103.83 76.51 104.02 77.41 103.37 C 78.31 102.71 78.50 101.45 77.85 100.55 L 77.25 99.74 C 76.60 98.84 75.34 98.64 74.44 99.30 C 73.54 99.96 73.35 101.22 74.00 102.11 Z M 74.60 102.92 L 75.18 103.73 C 75.83 104.63 77.09 104.83 77.99 104.17 C 78.89 103.52 79.09 102.26 78.44 101.36 L 77.85 100.56 C 77.20 99.66 75.94 99.46 75.04 100.11 C 74.14 100.77 73.94 102.03 74.60 102.92 Z M 75.18 103.72 L 75.75 104.52 C 76.40 105.42 77.66 105.62 78.56 104.97 C 79.46 104.32 79.66 103.06 79.01 102.16 L 78.44 101.37 C 77.79 100.46 76.53 100.26 75.63 100.91 C 74.73 101.56 74.53 102.82 75.18 103.72 Z M 75.75 104.52 L 76.33 105.32 C 76.98 106.22 78.24 106.43 79.14 105.78 C 80.04 105.13 80.25 103.87 79.60 102.97 L 79.01 102.16 C 78.36 101.26 77.11 101.06 76.20 101.71 C 75.30 102.36 75.10 103.62 75.75 104.52 Z M 76.33 105.32 L 76.92 106.14 C 77.57 107.04 78.83 107.24 79.73 106.59 C 80.63 105.94 80.84 104.68 80.18 103.78 L 79.59 102.97 C 78.94 102.06 77.69 101.86 76.78 102.51 C 75.88 103.16 75.68 104.42 76.33 105.32 Z M 76.92 106.14 L 77.53 106.98 C 78.18 107.88 79.44 108.08 80.34 107.42 C 81.24 106.77 81.44 105.51 80.79 104.61 L 80.18 103.78 C 79.53 102.88 78.27 102.68 77.37 103.33 C 76.47 103.99 76.27 105.24 76.92 106.14 Z M 77.53 106.98 L 78.10 107.76 C 78.75 108.65 80.01 108.85 80.91 108.19 C 81.81 107.54 82.00 106.28 81.35 105.38 L 80.78 104.61 C 80.13 103.71 78.87 103.51 77.97 104.17 C 77.07 104.82 76.88 106.08 77.53 106.98 Z M 78.10 107.76 L 78.68 108.54 C 79.33 109.44 80.59 109.63 81.49 108.98 C 82.38 108.32 82.58 107.06 81.92 106.16 L 81.35 105.38 C 80.69 104.48 79.43 104.29 78.53 104.95 C 77.64 105.60 77.44 106.86 78.10 107.76 Z M 78.67 108.54 L 79.26 109.35 C 79.92 110.24 81.18 110.44 82.08 109.78 C 82.97 109.12 83.17 107.86 82.51 106.97 L 81.92 106.16 C 81.27 105.27 80.01 105.07 79.11 105.73 C 78.21 106.39 78.02 107.65 78.67 108.54 Z M 79.26 109.34 L 79.86 110.16 C 80.51 111.06 81.77 111.26 82.67 110.61 C 83.57 109.95 83.77 108.69 83.11 107.80 L 82.51 106.97 C 81.86 106.07 80.60 105.88 79.70 106.53 C 78.80 107.18 78.61 108.44 79.26 109.34 Z M 79.86 110.16 L 80.47 111.00 C 81.12 111.91 82.38 112.11 83.28 111.46 C 84.18 110.81 84.38 109.55 83.73 108.65 L 83.12 107.80 C 82.47 106.90 81.21 106.70 80.31 107.35 C 79.41 108.00 79.21 109.26 79.86 110.16 Z M 80.46 111.00 L 81.04 111.81 C 81.69 112.72 82.95 112.92 83.85 112.28 C 84.75 111.63 84.96 110.38 84.32 109.47 L 83.73 108.66 C 83.09 107.75 81.83 107.54 80.93 108.19 C 80.02 108.83 79.82 110.09 80.46 111.00 Z M 81.04 111.80 L 81.61 112.62 C 82.25 113.53 83.51 113.74 84.42 113.10 C 85.32 112.46 85.54 111.21 84.90 110.30 L 84.32 109.48 C 83.68 108.57 82.43 108.36 81.52 109.00 C 80.61 109.64 80.40 110.89 81.04 111.80 Z M 81.61 112.61 L 82.18 113.44 C 82.82 114.35 84.07 114.57 84.98 113.93 C 85.89 113.30 86.12 112.05 85.48 111.13 L 84.91 110.31 C 84.27 109.40 83.02 109.17 82.11 109.81 C 81.20 110.44 80.97 111.70 81.61 112.61 Z M 82.18 113.43 L 82.75 114.26 C 83.38 115.17 84.63 115.40 85.55 114.77 C 86.46 114.14 86.69 112.89 86.06 111.98 L 85.49 111.14 C 84.86 110.23 83.61 110.00 82.69 110.63 C 81.78 111.26 81.55 112.51 82.18 113.43 Z M 82.74 114.25 L 83.31 115.08 C 83.93 115.99 85.18 116.23 86.10 115.61 C 87.02 114.98 87.26 113.73 86.63 112.82 L 86.07 111.99 C 85.44 111.07 84.19 110.83 83.28 111.45 C 82.36 112.08 82.12 113.33 82.74 114.25 Z M 83.30 115.06 L 83.85 115.89 C 84.47 116.82 85.72 117.06 86.64 116.45 C 87.57 115.83 87.81 114.58 87.19 113.66 L 86.64 112.83 C 86.02 111.90 84.77 111.66 83.85 112.28 C 82.93 112.89 82.68 114.14 83.30 115.06 Z M 83.85 115.88 L 84.41 116.73 C 85.02 117.66 86.27 117.92 87.19 117.31 C 88.12 116.69 88.37 115.45 87.76 114.52 L 87.20 113.67 C 86.59 112.74 85.35 112.49 84.42 113.10 C 83.49 113.71 83.24 114.95 83.85 115.88 Z M 84.40 116.72 L 84.94 117.56 C 85.55 118.49 86.79 118.76 87.72 118.16 C 88.66 117.55 88.92 116.31 88.32 115.38 L 87.77 114.54 C 87.17 113.60 85.93 113.34 84.99 113.94 C 84.06 114.54 83.80 115.79 84.40 116.72 Z M 84.94 117.55 L 85.47 118.39 C 86.06 119.32 87.31 119.60 88.24 119.01 C 89.18 118.41 89.46 117.17 88.86 116.23 L 88.33 115.39 C 87.73 114.46 86.49 114.18 85.55 114.77 C 84.62 115.37 84.34 116.61 84.94 117.55 Z M 85.46 118.37 L 85.98 119.21 C 86.57 120.15 87.81 120.44 88.75 119.85 C 89.69 119.27 89.98 118.03 89.39 117.09 L 88.87 116.25 C 88.28 115.31 87.04 115.02 86.10 115.60 C 85.16 116.19 84.87 117.43 85.46 118.37 Z M 85.97 119.19 L 86.49 120.04 C 87.07 120.98 88.30 121.28 89.25 120.71 C 90.20 120.13 90.49 118.89 89.92 117.95 L 89.40 117.10 C 88.82 116.16 87.59 115.86 86.64 116.43 C 85.69 117.01 85.39 118.25 85.97 119.19 Z M 86.48 120.02 L 86.99 120.87 C 87.56 121.82 88.79 122.13 89.74 121.56 C 90.69 121.00 91.00 119.76 90.43 118.81 L 89.93 117.96 C 89.36 117.01 88.12 116.70 87.17 117.27 C 86.22 117.84 85.91 119.07 86.48 120.02 Z M 86.98 120.86 L 87.48 121.72 C 88.04 122.67 89.27 122.99 90.23 122.43 C 91.19 121.87 91.51 120.64 90.95 119.68 L 90.44 118.83 C 89.88 117.87 88.65 117.55 87.69 118.11 C 86.74 118.67 86.42 119.90 86.98 120.86 Z M 87.48 121.70 L 87.97 122.57 C 88.53 123.53 89.76 123.86 90.72 123.31 C 91.68 122.75 92.01 121.52 91.45 120.56 L 90.95 119.70 C 90.40 118.74 89.17 118.41 88.21 118.96 C 87.25 119.51 86.92 120.74 87.48 121.70 Z M 87.97 122.56 L 88.46 123.43 C 89.01 124.39 90.23 124.73 91.20 124.19 C 92.16 123.64 92.50 122.42 91.95 121.45 L 91.46 120.58 C 90.91 119.61 89.69 119.27 88.72 119.82 C 87.76 120.37 87.42 121.59 87.97 122.56 Z M 88.46 123.42 L 88.94 124.30 C 89.48 125.26 90.71 125.61 91.67 125.07 C 92.64 124.53 92.99 123.31 92.45 122.34 L 91.96 121.46 C 91.42 120.49 90.20 120.15 89.23 120.69 C 88.26 121.23 87.92 122.45 88.46 123.42 Z M 88.94 124.28 L 89.42 125.17 C 89.96 126.14 91.18 126.49 92.15 125.96 C 93.12 125.43 93.47 124.21 92.94 123.24 L 92.46 122.35 C 91.92 121.38 90.70 121.03 89.73 121.56 C 88.76 122.09 88.41 123.31 88.94 124.28 Z M 89.42 125.15 L 89.89 126.04 C 90.42 127.01 91.64 127.38 92.61 126.85 C 93.59 126.32 93.95 125.11 93.42 124.13 L 92.95 123.25 C 92.42 122.27 91.20 121.91 90.23 122.44 C 89.25 122.96 88.89 124.18 89.42 125.15 Z M 89.89 126.03 L 90.36 126.91 C 90.88 127.89 92.10 128.26 93.07 127.74 C 94.05 127.22 94.42 126.01 93.90 125.03 L 93.43 124.14 C 92.91 123.16 91.69 122.79 90.72 123.31 C 89.74 123.83 89.37 125.05 89.89 126.03 Z M 90.36 126.90 L 90.82 127.79 C 91.34 128.77 92.55 129.15 93.53 128.63 C 94.51 128.12 94.89 126.91 94.37 125.92 L 93.91 125.04 C 93.39 124.06 92.18 123.68 91.20 124.19 C 90.22 124.71 89.84 125.92 90.36 126.90 Z M 90.81 127.78 L 91.27 128.66 C 91.78 129.65 92.99 130.03 93.97 129.52 C 94.96 129.01 95.34 127.80 94.84 126.82 L 94.38 125.94 C 93.87 124.95 92.66 124.57 91.68 125.08 C 90.69 125.58 90.31 126.79 90.81 127.78 Z M 91.27 128.65 L 91.72 129.54 C 92.22 130.53 93.43 130.92 94.42 130.42 C 95.40 129.92 95.80 128.71 95.29 127.72 L 94.84 126.83 C 94.34 125.84 93.13 125.45 92.14 125.95 C 91.16 126.46 90.76 127.66 91.27 128.65 Z M 91.71 129.53 L 92.17 130.45 C 92.67 131.44 93.87 131.84 94.86 131.34 C 95.85 130.84 96.25 129.64 95.76 128.65 L 95.30 127.73 C 94.80 126.74 93.60 126.34 92.61 126.84 C 91.62 127.34 91.22 128.54 91.71 129.53 Z M 92.17 130.44 L 92.62 131.34 C 93.11 132.34 94.31 132.74 95.30 132.25 C 96.30 131.76 96.70 130.56 96.21 129.57 L 95.76 128.66 C 95.27 127.67 94.07 127.26 93.08 127.75 C 92.08 128.24 91.68 129.44 92.17 130.44 Z M 92.61 131.33 L 93.05 132.23 C 93.54 133.23 94.74 133.64 95.73 133.15 C 96.73 132.67 97.14 131.47 96.65 130.47 L 96.22 129.57 C 95.73 128.58 94.53 128.17 93.53 128.65 C 92.54 129.14 92.13 130.34 92.61 131.33 Z M 93.05 132.22 L 93.48 133.11 C 93.96 134.11 95.16 134.53 96.15 134.04 C 97.15 133.56 97.57 132.36 97.09 131.37 L 96.66 130.48 C 96.18 129.48 94.98 129.07 93.98 129.55 C 92.98 130.03 92.57 131.23 93.05 132.22 Z M 93.47 133.10 L 93.89 133.98 C 94.37 134.98 95.57 135.40 96.57 134.93 C 97.57 134.45 97.99 133.25 97.51 132.25 L 97.09 131.37 C 96.61 130.37 95.41 129.95 94.42 130.43 C 93.42 130.91 92.99 132.11 93.47 133.10 Z M 93.89 133.98 L 94.32 134.89 C 94.80 135.89 96.00 136.32 97.00 135.84 C 98.00 135.37 98.42 134.17 97.95 133.17 L 97.51 132.26 C 97.04 131.26 95.84 130.83 94.84 131.31 C 93.84 131.78 93.42 132.98 93.89 133.98 Z M 94.32 134.88 L 94.75 135.79 C 95.22 136.79 96.41 137.22 97.41 136.75 C 98.41 136.28 98.84 135.08 98.37 134.08 L 97.95 133.18 C 97.48 132.18 96.28 131.75 95.28 132.22 C 94.28 132.69 93.85 133.88 94.32 134.88 Z M 94.74 135.78 L 95.16 136.68 C 95.63 137.68 96.82 138.12 97.82 137.65 C 98.83 137.19 99.26 135.99 98.80 134.99 L 98.38 134.09 C 97.91 133.08 96.72 132.65 95.72 133.11 C 94.71 133.58 94.28 134.77 94.74 135.78 Z M 95.15 136.67 L 95.57 137.57 C 96.03 138.58 97.22 139.02 98.22 138.56 C 99.23 138.10 99.67 136.91 99.21 135.91 L 98.80 135.00 C 98.34 133.99 97.15 133.55 96.14 134.01 C 95.14 134.47 94.69 135.66 95.15 136.67 Z M 95.56 137.56 L 95.98 138.48 C 96.43 139.49 97.62 139.95 98.63 139.49 C 99.64 139.04 100.09 137.85 99.64 136.84 L 99.22 135.92 C 98.77 134.91 97.58 134.46 96.57 134.91 C 95.56 135.36 95.11 136.55 95.56 137.56 Z M 95.97 138.47 L 96.39 139.42 C 96.84 140.44 98.02 140.89 99.04 140.45 C 100.05 140.00 100.51 138.82 100.06 137.81 L 99.64 136.85 C 99.19 135.84 98.01 135.38 97.00 135.83 C 95.99 136.28 95.53 137.46 95.97 138.47 Z M 96.39 139.41 L 96.80 140.36 C 97.24 141.37 98.42 141.84 99.43 141.40 C 100.45 140.96 100.91 139.78 100.47 138.76 L 100.07 137.82 C 99.63 136.80 98.45 136.34 97.43 136.77 C 96.41 137.21 95.95 138.39 96.39 139.41 Z M 96.79 140.34 L 97.18 141.26 C 97.61 142.28 98.79 142.76 99.81 142.33 C 100.83 141.89 101.30 140.72 100.87 139.70 L 100.48 138.78 C 100.05 137.76 98.87 137.28 97.85 137.71 C 96.83 138.15 96.36 139.32 96.79 140.34 Z M 97.18 141.25 L 97.54 142.13 C 97.97 143.15 99.14 143.64 100.16 143.21 C 101.18 142.79 101.67 141.61 101.24 140.59 L 100.88 139.71 C 100.45 138.69 99.28 138.21 98.26 138.63 C 97.24 139.06 96.75 140.23 97.18 141.25 Z M 97.53 142.11 L 97.93 143.08 C 98.34 144.11 99.51 144.60 100.54 144.19 C 101.56 143.77 102.06 142.60 101.64 141.58 L 101.25 140.61 C 100.84 139.58 99.67 139.09 98.64 139.50 C 97.62 139.92 97.12 141.09 97.53 142.11 Z M 97.92 143.06 L 98.30 144.03 C 98.70 145.06 99.87 145.57 100.90 145.17 C 101.93 144.76 102.43 143.60 102.03 142.57 L 101.65 141.60 C 101.25 140.57 100.08 140.06 99.05 140.46 C 98.02 140.87 97.51 142.03 97.92 143.06 Z M 98.29 144.01 L 98.63 144.91 C 99.03 145.95 100.18 146.47 101.22 146.08 C 102.25 145.68 102.77 144.53 102.38 143.49 L 102.04 142.59 C 101.65 141.55 100.49 141.04 99.45 141.43 C 98.42 141.82 97.90 142.98 98.29 144.01 Z M 98.63 144.90 L 98.95 145.76 C 99.33 146.79 100.49 147.32 101.52 146.94 C 102.56 146.55 103.09 145.40 102.70 144.36 L 102.39 143.50 C 102.00 142.47 100.85 141.94 99.81 142.32 C 98.77 142.71 98.24 143.86 98.63 144.90 Z M 98.94 145.75 L 99.26 146.62 C 99.64 147.66 100.80 148.19 101.83 147.81 C 102.87 147.43 103.41 146.28 103.03 145.24 L 102.71 144.37 C 102.33 143.33 101.18 142.80 100.14 143.18 C 99.10 143.56 98.56 144.71 98.94 145.75 Z M 99.26 146.60 L 99.57 147.50 C 99.94 148.55 101.08 149.09 102.13 148.73 C 103.17 148.36 103.72 147.22 103.35 146.17 L 103.04 145.27 C 102.67 144.22 101.53 143.68 100.48 144.04 C 99.44 144.41 98.89 145.55 99.26 146.60 Z M 99.56 147.46 L 99.89 148.46 C 100.23 149.51 101.37 150.08 102.42 149.73 C 103.47 149.39 104.04 148.25 103.69 147.20 L 103.37 146.21 C 103.02 145.16 101.89 144.59 100.84 144.94 C 99.79 145.28 99.22 146.41 99.56 147.46 Z M 99.88 148.42 L 100.17 149.39 C 100.50 150.45 101.62 151.04 102.67 150.72 C 103.73 150.40 104.33 149.28 104.00 148.22 L 103.70 147.24 C 103.38 146.19 102.26 145.59 101.20 145.92 C 100.15 146.24 99.55 147.36 99.88 148.42 Z M 100.17 149.36 L 100.44 150.29 C 100.74 151.35 101.85 151.97 102.92 151.66 C 103.98 151.35 104.59 150.24 104.28 149.18 L 104.01 148.25 C 103.70 147.19 102.59 146.58 101.53 146.88 C 100.47 147.19 99.86 148.30 100.17 149.36 Z M 100.43 150.28 L 100.71 151.26 C 101.00 152.32 102.11 152.94 103.17 152.64 C 104.23 152.35 104.86 151.24 104.56 150.18 L 104.28 149.20 C 103.99 148.14 102.88 147.51 101.82 147.81 C 100.76 148.11 100.14 149.21 100.43 150.28 Z M 100.71 151.24 L 100.98 152.24 C 101.27 153.31 102.37 153.93 103.43 153.64 C 104.50 153.35 105.12 152.25 104.83 151.19 L 104.56 150.19 C 104.27 149.13 103.17 148.50 102.11 148.79 C 101.04 149.08 100.41 150.18 100.71 151.24 Z M 100.98 152.24 L 101.24 153.22 C 101.53 154.29 102.63 154.92 103.69 154.63 C 104.76 154.34 105.39 153.25 105.10 152.18 L 104.83 151.20 C 104.55 150.13 103.45 149.50 102.39 149.79 C 101.32 150.08 100.69 151.17 100.98 152.24 Z M 101.24 153.22 L 101.51 154.20 C 101.79 155.26 102.89 155.89 103.95 155.61 C 105.02 155.32 105.65 154.23 105.36 153.16 L 105.10 152.18 C 104.81 151.12 103.72 150.49 102.65 150.78 C 101.59 151.06 100.96 152.16 101.24 153.22 Z M 101.51 154.20 L 101.77 155.16 C 102.06 156.22 103.15 156.85 104.21 156.56 C 105.28 156.27 105.90 155.17 105.62 154.11 L 105.36 153.16 C 105.07 152.10 103.97 151.47 102.91 151.76 C 101.85 152.05 101.22 153.14 101.51 154.20 Z M 101.77 155.17 L 102.04 156.11 C 102.33 157.17 103.43 157.79 104.49 157.50 C 105.55 157.21 106.17 156.11 105.87 155.05 L 105.61 154.10 C 105.32 153.04 104.22 152.42 103.16 152.72 C 102.10 153.01 101.48 154.11 101.77 155.17 Z M 102.04 156.13 L 102.32 157.09 C 102.62 158.15 103.72 158.76 104.78 158.46 C 105.84 158.15 106.45 157.05 106.14 156.00 L 105.87 155.03 C 105.57 153.98 104.46 153.37 103.41 153.67 C 102.35 153.97 101.74 155.07 102.04 156.13 Z M 102.33 157.11 L 102.62 158.10 C 102.94 159.15 104.04 159.75 105.09 159.44 C 106.14 159.12 106.74 158.02 106.43 156.97 L 106.14 155.98 C 105.82 154.93 104.72 154.33 103.67 154.64 C 102.61 154.95 102.01 156.06 102.33 157.11 Z M 102.62 158.09 L 102.91 159.09 C 103.22 160.14 104.32 160.75 105.37 160.44 C 106.42 160.14 107.03 159.04 106.72 157.99 L 106.43 156.98 C 106.13 155.93 105.03 155.32 103.97 155.63 C 102.92 155.93 102.32 157.03 102.62 158.09 Z M 102.90 159.01 L 103.14 160.02 C 103.40 161.08 104.48 161.73 105.54 161.47 C 106.60 161.21 107.25 160.13 106.99 159.07 L 106.74 158.07 C 106.48 157.00 105.41 156.36 104.35 156.62 C 103.28 156.88 102.64 157.95 102.90 159.01 Z M 103.11 159.86 L 103.27 160.83 C 103.44 161.91 104.45 162.64 105.53 162.47 C 106.61 162.30 107.34 161.28 107.17 160.20 L 107.02 159.23 C 106.85 158.16 105.83 157.42 104.75 157.59 C 103.68 157.77 102.94 158.78 103.11 159.86 Z M 103.25 160.55 L 103.26 161.46 C 103.28 162.55 104.18 163.41 105.27 163.39 C 106.36 163.38 107.23 162.48 107.21 161.39 L 107.19 160.48 C 107.17 159.39 106.28 158.52 105.19 158.54 C 104.10 158.56 103.23 159.46 103.25 160.55 Z M 103.30 161.04 L 103.13 161.93 C 102.92 163.00 103.61 164.04 104.68 164.25 C 105.75 164.46 106.79 163.76 107.00 162.69 L 107.17 161.80 C 107.38 160.73 106.69 159.70 105.62 159.49 C 104.55 159.28 103.51 159.97 103.30 161.04 Z M 103.22 161.59 L 102.89 162.44 C 102.49 163.46 102.98 164.60 104.00 165.00 C 105.02 165.41 106.16 164.91 106.57 163.89 L 106.90 163.04 C 107.30 162.02 106.80 160.87 105.79 160.47 C 104.77 160.07 103.62 160.57 103.22 161.59 Z M 102.95 162.29 L 102.51 163.18 C 102.03 164.16 102.43 165.35 103.41 165.83 C 104.40 166.32 105.58 165.91 106.07 164.93 L 106.50 164.04 C 106.99 163.06 106.58 161.87 105.60 161.39 C 104.62 160.90 103.43 161.31 102.95 162.29 Z M 102.50 163.20 L 102.02 164.20 C 101.54 165.19 101.96 166.38 102.95 166.85 C 103.94 167.32 105.13 166.90 105.60 165.91 L 106.08 164.91 C 106.55 163.92 106.14 162.73 105.14 162.26 C 104.15 161.79 102.97 162.21 102.50 163.20 Z M 101.96 164.31 L 101.59 165.23 C 101.18 166.25 101.67 167.41 102.69 167.82 C 103.71 168.24 104.87 167.74 105.29 166.72 L 105.66 165.80 C 106.07 164.78 105.58 163.62 104.56 163.21 C 103.54 162.80 102.37 163.29 101.96 164.31 Z M 101.55 165.32 L 101.22 166.26 C 100.85 167.31 101.41 168.45 102.45 168.81 C 103.49 169.18 104.64 168.62 105.00 167.58 L 105.33 166.63 C 105.69 165.59 105.14 164.45 104.10 164.08 C 103.05 163.72 101.91 164.27 101.55 165.32 Z M 101.19 166.32 L 100.88 167.31 C 100.55 168.37 101.13 169.50 102.19 169.83 C 103.25 170.16 104.38 169.57 104.72 168.51 L 105.03 167.52 C 105.36 166.46 104.77 165.33 103.71 165.00 C 102.65 164.67 101.52 165.26 101.19 166.32 Z M 100.86 167.34 L 100.57 168.34 C 100.25 169.41 100.87 170.54 101.94 170.85 C 103.01 171.16 104.13 170.55 104.44 169.48 L 104.74 168.48 C 105.05 167.41 104.44 166.28 103.37 165.97 C 102.29 165.66 101.17 166.27 100.86 167.34 Z M 100.55 168.36 L 100.28 169.33 C 99.97 170.41 100.60 171.53 101.68 171.84 C 102.76 172.14 103.88 171.51 104.19 170.43 L 104.46 169.46 C 104.76 168.38 104.13 167.26 103.05 166.96 C 101.98 166.65 100.85 167.28 100.55 168.36 Z M 100.27 169.34 L 100.00 170.28 C 99.70 171.37 100.33 172.49 101.42 172.80 C 102.50 173.10 103.63 172.46 103.93 171.38 L 104.20 170.43 C 104.50 169.35 103.86 168.22 102.78 167.92 C 101.70 167.62 100.57 168.25 100.27 169.34 Z M 100.00 170.27 L 99.70 171.33 C 99.39 172.41 100.02 173.54 101.10 173.85 C 102.19 174.17 103.32 173.54 103.63 172.45 L 103.93 171.39 C 104.24 170.31 103.62 169.18 102.53 168.87 C 101.44 168.56 100.31 169.18 100.00 170.27 Z M 99.70 171.30 L 99.42 172.25 C 99.09 173.34 99.71 174.48 100.79 174.80 C 101.88 175.13 103.02 174.51 103.34 173.43 L 103.63 172.47 C 103.95 171.39 103.33 170.25 102.25 169.93 C 101.17 169.60 100.03 170.22 99.70 171.30 Z M 99.42 172.23 L 99.14 173.13 C 98.80 174.21 99.41 175.36 100.49 175.70 C 101.57 176.04 102.72 175.43 103.06 174.35 L 103.34 173.45 C 103.68 172.37 103.07 171.22 101.99 170.88 C 100.91 170.54 99.76 171.15 99.42 172.23 Z M 99.14 173.10 L 98.85 174.00 C 98.50 175.08 99.09 176.24 100.17 176.59 C 101.25 176.94 102.41 176.35 102.76 175.27 L 103.05 174.38 C 103.41 173.30 102.82 172.14 101.74 171.78 C 100.66 171.43 99.50 172.02 99.14 173.10 Z M 98.86 173.98 L 98.57 174.83 C 98.21 175.91 98.79 177.08 99.86 177.44 C 100.94 177.80 102.11 177.22 102.47 176.15 L 102.76 175.29 C 103.12 174.22 102.54 173.05 101.46 172.68 C 100.39 172.32 99.22 172.90 98.86 173.98 Z M 98.57 174.81 L 98.27 175.69 C 97.89 176.77 98.46 177.95 99.54 178.32 C 100.61 178.69 101.79 178.13 102.16 177.05 L 102.47 176.17 C 102.84 175.09 102.27 173.91 101.20 173.54 C 100.12 173.17 98.95 173.73 98.57 174.81 Z M 98.27 175.67 L 97.93 176.61 C 97.55 177.68 98.10 178.86 99.18 179.25 C 100.25 179.64 101.43 179.08 101.82 178.01 L 102.16 177.07 C 102.54 176.00 101.99 174.82 100.91 174.43 C 99.84 174.04 98.66 174.60 98.27 175.67 Z M 97.94 176.58 L 97.57 177.57 C 97.17 178.64 97.71 179.83 98.78 180.23 C 99.85 180.63 101.04 180.09 101.44 179.02 L 101.81 178.03 C 102.21 176.96 101.67 175.77 100.60 175.37 C 99.53 174.97 98.34 175.51 97.94 176.58 Z M 97.58 177.54 L 97.17 178.58 C 96.76 179.64 97.28 180.84 98.35 181.26 C 99.42 181.68 100.62 181.15 101.03 180.08 L 101.44 179.04 C 101.85 177.98 101.33 176.78 100.26 176.36 C 99.19 175.95 97.99 176.47 97.58 177.54 Z M 97.18 178.55 L 96.80 179.50 C 96.37 180.56 96.88 181.77 97.94 182.20 C 99.01 182.63 100.21 182.11 100.64 181.05 L 101.03 180.11 C 101.46 179.04 100.94 177.84 99.88 177.41 C 98.82 176.98 97.61 177.49 97.18 178.55 Z M 96.80 179.48 L 96.40 180.44 C 95.96 181.50 96.47 182.72 97.52 183.15 C 98.58 183.59 99.80 183.09 100.24 182.03 L 100.64 181.07 C 101.08 180.01 100.58 178.80 99.52 178.36 C 98.46 177.92 97.24 178.42 96.80 179.48 Z M 96.41 180.42 L 96.00 181.38 C 95.55 182.44 96.04 183.66 97.10 184.11 C 98.16 184.56 99.38 184.06 99.83 183.01 L 100.23 182.05 C 100.68 181.00 100.19 179.78 99.13 179.33 C 98.08 178.88 96.86 179.37 96.41 180.42 Z M 96.01 181.37 L 95.60 182.29 C 95.15 183.34 95.63 184.57 96.68 185.03 C 97.74 185.48 98.96 185.00 99.42 183.95 L 99.82 183.02 C 100.28 181.97 99.80 180.75 98.74 180.29 C 97.69 179.83 96.46 180.31 96.01 181.37 Z M 95.61 182.28 L 95.22 183.14 C 94.76 184.19 95.23 185.42 96.28 185.89 C 97.33 186.36 98.56 185.88 99.03 184.83 L 99.41 183.96 C 99.88 182.91 99.41 181.68 98.36 181.22 C 97.31 180.75 96.08 181.22 95.61 182.28 Z M 95.23 183.13 L 94.80 184.06 C 94.33 185.11 94.79 186.35 95.84 186.82 C 96.88 187.30 98.12 186.84 98.60 185.79 L 99.02 184.85 C 99.50 183.80 99.04 182.57 97.99 182.09 C 96.94 181.62 95.71 182.08 95.23 183.13 Z M 94.81 184.04 L 94.35 185.02 C 93.86 186.06 94.31 187.30 95.35 187.79 C 96.40 188.28 97.64 187.83 98.13 186.79 L 98.59 185.81 C 99.08 184.77 98.63 183.53 97.58 183.04 C 96.54 182.55 95.30 183.00 94.81 184.04 Z M 94.36 185.00 L 93.94 185.87 C 93.44 186.90 93.88 188.15 94.92 188.65 C 95.95 189.15 97.20 188.72 97.70 187.68 L 98.12 186.81 C 98.62 185.77 98.18 184.53 97.15 184.03 C 96.11 183.53 94.86 183.96 94.36 185.00 Z M 93.95 185.85 L 93.55 186.67 C 93.04 187.70 93.47 188.95 94.51 189.46 C 95.54 189.97 96.79 189.54 97.30 188.50 L 97.70 187.69 C 98.20 186.66 97.77 185.40 96.74 184.90 C 95.70 184.39 94.45 184.82 93.95 185.85 Z M 93.55 186.67 L 93.14 187.51 C 92.63 188.54 93.06 189.79 94.10 190.30 C 95.13 190.81 96.38 190.38 96.89 189.34 L 97.30 188.50 C 97.81 187.46 97.38 186.21 96.34 185.71 C 95.30 185.20 94.05 185.63 93.55 186.67 Z M 93.13 187.51 L 92.71 188.39 C 92.20 189.43 92.63 190.68 93.67 191.18 C 94.71 191.69 95.96 191.26 96.46 190.22 L 96.89 189.34 C 97.40 188.30 96.97 187.05 95.93 186.54 C 94.89 186.04 93.64 186.47 93.13 187.51 Z M 92.71 188.39 L 92.26 189.29 C 91.76 190.33 92.19 191.58 93.22 192.09 C 94.26 192.59 95.51 192.16 96.02 191.13 L 96.46 190.22 C 96.97 189.18 96.54 187.93 95.50 187.42 C 94.47 186.92 93.21 187.35 92.71 188.39 Z M 92.27 189.28 L 91.81 190.21 C 91.30 191.25 91.72 192.50 92.75 193.01 C 93.79 193.53 95.04 193.10 95.56 192.07 L 96.02 191.14 C 96.53 190.10 96.11 188.85 95.07 188.33 C 94.04 187.82 92.78 188.25 92.27 189.28 Z M 91.81 190.20 L 91.38 191.06 C 90.86 192.09 91.27 193.35 92.31 193.87 C 93.34 194.39 94.60 193.98 95.12 192.94 L 95.55 192.08 C 96.07 191.05 95.66 189.79 94.62 189.27 C 93.59 188.75 92.33 189.16 91.81 190.20 Z M 91.38 191.05 L 90.93 191.93 C 90.41 192.96 90.82 194.22 91.85 194.75 C 92.88 195.27 94.14 194.86 94.66 193.83 L 95.11 192.95 C 95.64 191.92 95.23 190.66 94.20 190.14 C 93.17 189.61 91.91 190.02 91.38 191.05 Z M 90.93 191.93 L 90.47 192.83 C 89.95 193.86 90.36 195.12 91.38 195.64 C 92.41 196.17 93.68 195.76 94.20 194.74 L 94.66 193.84 C 95.19 192.81 94.78 191.54 93.75 191.02 C 92.72 190.49 91.46 190.90 90.93 191.93 Z M 90.47 192.83 L 90.00 193.75 C 89.48 194.78 89.89 196.04 90.92 196.57 C 91.95 197.09 93.21 196.69 93.73 195.65 L 94.21 194.73 C 94.73 193.70 94.32 192.44 93.29 191.91 C 92.26 191.39 91.00 191.80 90.47 192.83 Z M 90.00 193.75 L 89.56 194.62 C 89.04 195.65 89.45 196.91 90.48 197.44 C 91.51 197.96 92.77 197.55 93.30 196.52 L 93.74 195.65 C 94.26 194.62 93.85 193.36 92.82 192.83 C 91.78 192.31 90.52 192.72 90.00 193.75 Z M 89.56 194.62 L 89.11 195.50 C 88.59 196.53 89.01 197.80 90.04 198.32 C 91.07 198.84 92.33 198.43 92.86 197.39 L 93.30 196.51 C 93.82 195.48 93.41 194.22 92.38 193.70 C 91.34 193.17 90.08 193.59 89.56 194.62 Z M 89.11 195.50 L 88.66 196.40 C 88.14 197.43 88.55 198.69 89.58 199.21 C 90.62 199.74 91.88 199.32 92.40 198.29 L 92.86 197.40 C 93.38 196.36 92.97 195.10 91.93 194.58 C 90.90 194.05 89.64 194.47 89.11 195.50 Z M 88.66 196.39 L 88.20 197.30 C 87.67 198.33 88.08 199.60 89.11 200.12 C 90.14 200.65 91.41 200.24 91.93 199.21 L 92.40 198.30 C 92.93 197.26 92.52 196.00 91.48 195.47 C 90.45 194.95 89.19 195.36 88.66 196.39 Z M 88.20 197.29 L 87.74 198.18 C 87.21 199.21 87.62 200.47 88.65 201.00 C 89.68 201.54 90.94 201.13 91.47 200.10 L 91.93 199.22 C 92.46 198.19 92.06 196.92 91.03 196.39 C 90.00 195.86 88.73 196.26 88.20 197.29 Z M 87.75 198.17 L 87.30 199.03 C 86.77 200.05 87.17 201.32 88.19 201.86 C 89.22 202.39 90.49 201.99 91.02 200.96 L 91.47 200.11 C 92.01 199.08 91.61 197.81 90.58 197.28 C 89.55 196.74 88.28 197.14 87.75 198.17 Z M 87.30 199.02 L 86.85 199.90 C 86.31 200.92 86.71 202.19 87.73 202.73 C 88.76 203.26 90.03 202.87 90.57 201.84 L 91.02 200.97 C 91.56 199.94 91.16 198.67 90.14 198.13 C 89.11 197.60 87.84 197.99 87.30 199.02 Z M 86.85 199.90 L 86.38 200.79 C 85.84 201.82 86.24 203.09 87.27 203.62 C 88.29 204.16 89.56 203.76 90.10 202.74 L 90.57 201.84 C 91.10 200.81 90.71 199.54 89.68 199.01 C 88.65 198.47 87.38 198.87 86.85 199.90 Z M 86.38 200.80 L 85.90 201.72 C 85.36 202.75 85.76 204.02 86.79 204.55 C 87.82 205.08 89.09 204.68 89.62 203.65 L 90.10 202.73 C 90.64 201.70 90.23 200.43 89.21 199.90 C 88.18 199.37 86.91 199.77 86.38 200.80 Z M 85.89 201.73 L 85.43 202.63 C 84.90 203.66 85.31 204.92 86.34 205.45 C 87.37 205.98 88.64 205.58 89.17 204.54 L 89.63 203.65 C 90.16 202.61 89.75 201.35 88.72 200.82 C 87.69 200.29 86.42 200.70 85.89 201.73 Z M 85.43 202.63 L 84.97 203.52 C 84.45 204.55 84.86 205.82 85.89 206.34 C 86.93 206.87 88.19 206.46 88.72 205.43 L 89.17 204.54 C 89.70 203.50 89.28 202.24 88.25 201.71 C 87.22 201.19 85.95 201.60 85.43 202.63 Z M 84.97 203.52 L 84.52 204.42 C 83.99 205.46 84.41 206.72 85.44 207.25 C 86.48 207.77 87.74 207.36 88.26 206.32 L 88.72 205.42 C 89.24 204.39 88.83 203.12 87.79 202.60 C 86.76 202.08 85.50 202.49 84.97 203.52 Z M 84.52 204.43 L 84.06 205.33 C 83.54 206.37 83.95 207.63 84.99 208.15 C 86.02 208.67 87.29 208.26 87.81 207.22 L 88.27 206.32 C 88.79 205.28 88.37 204.02 87.34 203.50 C 86.30 202.98 85.04 203.39 84.52 204.43 Z M 84.06 205.33 L 83.61 206.23 C 83.08 207.26 83.50 208.52 84.54 209.05 C 85.57 209.57 86.83 209.15 87.36 208.12 L 87.81 207.22 C 88.33 206.19 87.92 204.92 86.88 204.40 C 85.85 203.88 84.58 204.29 84.06 205.33 Z M 83.61 206.22 L 83.15 207.12 C 82.63 208.15 83.04 209.42 84.08 209.94 C 85.11 210.47 86.38 210.05 86.90 209.02 L 87.36 208.12 C 87.88 207.09 87.47 205.82 86.43 205.30 C 85.40 204.77 84.13 205.19 83.61 206.22 Z M 83.16 207.12 L 82.69 208.03 C 82.16 209.07 82.57 210.33 83.61 210.86 C 84.64 211.38 85.91 210.97 86.43 209.94 L 86.90 209.02 C 87.43 207.99 87.02 206.72 85.98 206.20 C 84.95 205.67 83.68 206.08 83.16 207.12 Z M 82.69 208.03 L 82.23 208.93 C 81.71 209.96 82.12 211.23 83.15 211.76 C 84.18 212.28 85.45 211.87 85.98 210.84 L 86.43 209.94 C 86.96 208.91 86.55 207.64 85.52 207.11 C 84.48 206.59 83.22 207.00 82.69 208.03 Z M 82.23 208.93 L 81.78 209.81 C 81.26 210.85 81.67 212.11 82.70 212.64 C 83.74 213.17 85.00 212.75 85.53 211.72 L 85.98 210.84 C 86.50 209.80 86.09 208.54 85.06 208.01 C 84.02 207.49 82.76 207.90 82.23 208.93 Z M 81.78 209.82 L 81.34 210.69 C 80.81 211.73 81.23 212.99 82.26 213.52 C 83.30 214.04 84.56 213.63 85.09 212.59 L 85.53 211.72 C 86.05 210.68 85.64 209.42 84.60 208.89 C 83.57 208.37 82.30 208.78 81.78 209.82 Z M 81.33 210.70 L 80.89 211.58 C 80.37 212.62 80.79 213.88 81.83 214.40 C 82.87 214.92 84.13 214.50 84.65 213.46 L 85.09 212.58 C 85.61 211.55 85.19 210.28 84.15 209.76 C 83.12 209.24 81.85 209.66 81.33 210.70 Z M 80.89 211.59 L 80.44 212.49 C 79.92 213.53 80.35 214.79 81.39 215.30 C 82.43 215.82 83.69 215.40 84.21 214.36 L 84.65 213.45 C 85.17 212.41 84.75 211.15 83.71 210.64 C 82.67 210.12 81.41 210.55 80.89 211.59 Z M 80.44 212.49 L 79.99 213.39 C 79.48 214.43 79.91 215.69 80.95 216.21 C 81.99 216.72 83.25 216.30 83.76 215.25 L 84.21 214.36 C 84.72 213.31 84.30 212.05 83.26 211.54 C 82.22 211.02 80.95 211.45 80.44 212.49 Z M 80.00 213.39 L 79.55 214.28 C 79.03 215.32 79.46 216.58 80.50 217.10 C 81.54 217.62 82.80 217.19 83.31 216.15 L 83.76 215.26 C 84.28 214.22 83.85 212.96 82.81 212.44 C 81.77 211.92 80.51 212.35 80.00 213.39 Z M 79.56 214.27 L 79.11 215.16 C 78.59 216.19 79.00 217.46 80.04 217.98 C 81.08 218.50 82.34 218.09 82.86 217.05 L 83.31 216.16 C 83.83 215.13 83.42 213.86 82.38 213.34 C 81.34 212.82 80.08 213.23 79.56 214.27 Z M 79.12 215.14 L 78.66 216.03 C 78.13 217.07 78.53 218.34 79.56 218.87 C 80.60 219.40 81.86 218.99 82.40 217.96 L 82.86 217.07 C 83.39 216.03 82.98 214.77 81.95 214.23 C 80.92 213.70 79.65 214.11 79.12 215.14 Z M 78.67 216.02 L 78.19 216.92 C 77.65 217.95 78.04 219.22 79.07 219.76 C 80.10 220.30 81.37 219.91 81.91 218.88 L 82.39 217.98 C 82.93 216.95 82.53 215.68 81.51 215.14 C 80.48 214.60 79.21 214.99 78.67 216.02 Z M 78.20 216.91 L 77.72 217.80 C 77.17 218.82 77.56 220.09 78.58 220.64 C 79.61 221.19 80.88 220.81 81.43 219.78 L 81.90 218.89 C 82.45 217.87 82.07 216.59 81.04 216.05 C 80.02 215.50 78.74 215.88 78.20 216.91 Z M 77.72 217.79 L 77.25 218.66 C 76.70 219.68 77.08 220.96 78.10 221.51 C 79.12 222.07 80.40 221.69 80.95 220.66 L 81.42 219.79 C 81.98 218.77 81.60 217.49 80.58 216.94 C 79.55 216.39 78.28 216.77 77.72 217.79 Z M 77.25 218.66 L 76.79 219.51 C 76.23 220.54 76.61 221.81 77.63 222.37 C 78.65 222.92 79.93 222.54 80.49 221.52 L 80.95 220.67 C 81.51 219.65 81.13 218.37 80.11 217.81 C 79.08 217.26 77.81 217.64 77.25 218.66 Z M 76.79 219.52 L 76.30 220.42 C 75.74 221.44 76.12 222.72 77.15 223.27 C 78.17 223.82 79.45 223.44 80.00 222.42 L 80.49 221.52 C 81.04 220.50 80.66 219.22 79.64 218.67 C 78.62 218.11 77.34 218.49 76.79 219.52 Z M 76.30 220.42 L 75.81 221.31 C 75.26 222.33 75.64 223.61 76.66 224.17 C 77.68 224.72 78.96 224.34 79.51 223.32 L 80.00 222.42 C 80.55 221.40 80.17 220.12 79.15 219.57 C 78.13 219.01 76.85 219.39 76.30 220.42 Z M 75.82 221.31 L 75.34 222.18 C 74.78 223.20 75.16 224.48 76.18 225.04 C 77.20 225.59 78.48 225.22 79.04 224.20 L 79.51 223.32 C 80.07 222.30 79.69 221.02 78.67 220.47 C 77.65 219.91 76.37 220.29 75.82 221.31 Z M 75.34 222.17 L 74.87 223.02 C 74.31 224.04 74.68 225.32 75.69 225.88 C 76.71 226.45 77.99 226.08 78.56 225.06 L 79.03 224.21 C 79.59 223.19 79.23 221.91 78.21 221.35 C 77.19 220.78 75.91 221.15 75.34 222.17 Z M 74.88 223.00 L 74.40 223.86 C 73.82 224.87 74.18 226.16 75.19 226.73 C 76.20 227.30 77.49 226.95 78.06 225.94 L 78.55 225.08 C 79.12 224.07 78.77 222.78 77.75 222.21 C 76.74 221.63 75.46 221.99 74.88 223.00 Z M 74.41 223.84 L 73.90 224.70 C 73.32 225.71 73.66 227.00 74.67 227.58 C 75.67 228.17 76.96 227.83 77.55 226.82 L 78.05 225.96 C 78.63 224.95 78.29 223.66 77.29 223.08 C 76.28 222.49 74.99 222.83 74.41 223.84 Z M 73.91 224.69 L 73.41 225.55 C 72.81 226.55 73.15 227.84 74.15 228.43 C 75.15 229.02 76.44 228.69 77.04 227.69 L 77.54 226.83 C 78.13 225.83 77.80 224.54 76.80 223.95 C 75.80 223.36 74.50 223.69 73.91 224.69 Z M 73.41 225.54 L 72.90 226.40 C 72.30 227.40 72.63 228.69 73.63 229.29 C 74.63 229.88 75.93 229.55 76.52 228.55 L 77.03 227.70 C 77.63 226.70 77.30 225.40 76.30 224.81 C 75.30 224.21 74.01 224.54 73.41 225.54 Z M 72.90 226.40 L 72.44 227.17 C 71.84 228.17 72.17 229.47 73.17 230.06 C 74.17 230.66 75.46 230.33 76.06 229.33 L 76.52 228.55 C 77.12 227.55 76.79 226.26 75.79 225.66 C 74.79 225.07 73.50 225.40 72.90 226.40 Z M 72.44 227.17 L 71.99 227.92 C 71.39 228.92 71.72 230.21 72.72 230.81 C 73.72 231.41 75.02 231.08 75.61 230.08 L 76.06 229.33 C 76.65 228.33 76.33 227.04 75.33 226.44 C 74.33 225.85 73.03 226.17 72.44 227.17 Z M 71.99 227.91 L 71.51 228.72 C 70.91 229.72 71.24 231.01 72.23 231.61 C 73.23 232.21 74.53 231.89 75.13 230.89 L 75.61 230.08 C 76.21 229.09 75.89 227.79 74.89 227.19 C 73.89 226.59 72.59 226.91 71.99 227.91 Z M 71.51 228.71 L 70.97 229.60 C 70.37 230.60 70.69 231.90 71.69 232.50 C 72.68 233.10 73.98 232.78 74.58 231.79 L 75.12 230.90 C 75.73 229.90 75.41 228.60 74.41 228.00 C 73.42 227.39 72.12 227.71 71.51 228.71 Z M 70.98 229.59 L 70.36 230.60 C 69.75 231.60 70.07 232.90 71.06 233.50 C 72.05 234.11 73.35 233.80 73.96 232.81 L 74.58 231.80 C 75.19 230.80 74.87 229.50 73.88 228.90 C 72.89 228.29 71.59 228.60 70.98 229.59 Z M 70.37 230.59 L 69.84 231.44 C 69.23 232.43 69.54 233.73 70.53 234.34 C 71.52 234.96 72.82 234.65 73.43 233.66 L 73.96 232.81 C 74.57 231.82 74.26 230.52 73.27 229.91 C 72.28 229.30 70.98 229.60 70.37 230.59 Z M 69.85 231.44 L 69.34 232.26 C 68.72 233.25 69.03 234.55 70.02 235.16 C 71.01 235.78 72.31 235.47 72.92 234.48 L 73.43 233.66 C 74.05 232.67 73.74 231.37 72.75 230.75 C 71.76 230.14 70.46 230.44 69.85 231.44 Z M 69.34 232.26 L 68.80 233.12 C 68.19 234.11 68.49 235.41 69.48 236.02 C 70.48 236.64 71.78 236.33 72.39 235.34 L 72.92 234.48 C 73.54 233.49 73.23 232.19 72.24 231.57 C 71.25 230.96 69.95 231.26 69.34 232.26 Z M 68.80 233.12 L 68.25 234.00 C 67.64 234.99 67.95 236.30 68.94 236.91 C 69.93 237.52 71.23 237.21 71.85 236.22 L 72.39 235.34 C 73.01 234.35 72.70 233.04 71.71 232.43 C 70.71 231.82 69.41 232.13 68.80 233.12 Z M 68.25 234.01 L 67.70 234.90 C 67.10 235.89 67.41 237.19 68.40 237.80 C 69.40 238.41 70.70 238.10 71.31 237.11 L 71.85 236.22 C 72.46 235.22 72.15 233.92 71.16 233.31 C 70.16 232.70 68.86 233.01 68.25 234.01 Z M 67.70 234.91 L 67.16 235.79 C 66.56 236.79 66.88 238.09 67.88 238.69 C 68.87 239.30 70.17 238.98 70.78 237.98 L 71.31 237.10 C 71.92 236.10 71.60 234.80 70.60 234.20 C 69.60 233.59 68.30 233.91 67.70 234.91 Z M 67.16 235.80 L 66.65 236.66 C 66.05 237.66 66.38 238.96 67.38 239.55 C 68.38 240.15 69.68 239.82 70.27 238.82 L 70.79 237.97 C 71.38 236.96 71.05 235.67 70.05 235.07 C 69.05 234.47 67.75 234.80 67.16 235.80 Z M 66.63 236.68 L 66.08 237.62 C 65.50 238.63 65.84 239.92 66.85 240.51 C 67.86 241.10 69.15 240.76 69.74 239.75 L 70.29 238.80 C 70.87 237.79 70.53 236.50 69.52 235.91 C 68.51 235.33 67.22 235.67 66.63 236.68 Z M 66.07 237.65 L 65.52 238.62 C 64.95 239.64 65.31 240.92 66.33 241.50 C 67.35 242.07 68.64 241.71 69.21 240.69 L 69.75 239.72 C 70.32 238.70 69.96 237.42 68.95 236.84 C 67.93 236.27 66.64 236.63 66.07 237.65 Z M 65.51 238.65 L 65.02 239.56 C 64.46 240.58 64.84 241.86 65.87 242.42 C 66.90 242.97 68.18 242.59 68.73 241.57 L 69.22 240.66 C 69.78 239.63 69.40 238.35 68.37 237.80 C 67.34 237.24 66.06 237.62 65.51 238.65 Z M 65.00 239.59 L 64.56 240.44 C 64.02 241.48 64.42 242.75 65.46 243.29 C 66.49 243.83 67.77 243.43 68.31 242.39 L 68.75 241.54 C 69.29 240.50 68.88 239.22 67.85 238.69 C 66.81 238.15 65.54 238.55 65.00 239.59 Z M 64.54 240.47 L 64.13 241.29 C 63.61 242.34 64.04 243.60 65.08 244.12 C 66.12 244.65 67.39 244.22 67.91 243.18 L 68.32 242.36 C 68.84 241.32 68.42 240.05 67.37 239.53 C 66.33 239.01 65.06 239.43 64.54 240.47 Z M 64.12 241.32 L 63.74 242.11 C 63.24 243.16 63.68 244.42 64.73 244.93 C 65.78 245.43 67.05 244.99 67.55 243.94 L 67.93 243.15 C 68.43 242.09 67.99 240.83 66.94 240.33 C 65.88 239.82 64.62 240.27 64.12 241.32 Z M 63.73 242.14 L 63.28 243.11 C 62.80 244.17 63.26 245.42 64.32 245.91 C 65.38 246.40 66.63 245.93 67.12 244.87 L 67.56 243.90 C 68.05 242.84 67.59 241.59 66.53 241.10 C 65.47 240.62 64.21 241.08 63.73 242.14 Z M 63.27 243.15 L 62.86 244.10 C 62.39 245.16 62.88 246.41 63.95 246.87 C 65.02 247.33 66.27 246.84 66.73 245.77 L 67.14 244.83 C 67.60 243.76 67.11 242.52 66.04 242.05 C 64.97 241.59 63.73 242.08 63.27 243.15 Z M 62.84 244.15 L 62.47 245.06 C 62.03 246.15 62.55 247.37 63.63 247.81 C 64.71 248.24 65.94 247.72 66.38 246.64 L 66.75 245.72 C 67.18 244.64 66.66 243.41 65.58 242.98 C 64.50 242.54 63.27 243.07 62.84 244.15 Z M 62.44 245.13 L 62.12 246.02 C 61.72 247.11 62.28 248.32 63.37 248.72 C 64.46 249.12 65.67 248.56 66.07 247.47 L 66.40 246.58 C 66.80 245.49 66.24 244.28 65.15 243.87 C 64.06 243.47 62.84 244.03 62.44 245.13 Z M 62.09 246.10 L 61.79 247.03 C 61.43 248.14 62.04 249.33 63.14 249.69 C 64.25 250.04 65.44 249.44 65.79 248.33 L 66.10 247.39 C 66.46 246.29 65.85 245.10 64.74 244.74 C 63.64 244.38 62.45 244.99 62.09 246.10 Z M 61.77 247.12 L 61.50 248.10 C 61.19 249.22 61.84 250.37 62.96 250.68 C 64.08 250.99 65.24 250.34 65.55 249.22 L 65.82 248.24 C 66.13 247.12 65.47 245.97 64.35 245.66 C 63.23 245.35 62.08 246.00 61.77 247.12 Z M 61.48 248.18 L 61.26 249.14 C 60.99 250.27 61.69 251.40 62.82 251.66 C 63.95 251.93 65.07 251.22 65.34 250.10 L 65.56 249.14 C 65.83 248.01 65.13 246.88 64.00 246.62 C 62.87 246.35 61.74 247.05 61.48 248.18 Z M 61.25 249.21 L 61.05 250.17 C 60.83 251.31 61.56 252.41 62.70 252.63 C 63.83 252.86 64.93 252.12 65.16 250.99 L 65.35 250.03 C 65.57 248.90 64.84 247.79 63.70 247.57 C 62.57 247.34 61.47 248.08 61.25 249.21 Z M 61.05 250.22 L 60.88 251.18 C 60.69 252.31 61.45 253.39 62.58 253.59 C 63.72 253.79 64.80 253.03 64.99 251.89 L 65.16 250.94 C 65.36 249.80 64.60 248.72 63.46 248.53 C 62.33 248.33 61.25 249.09 61.05 250.22 Z M 60.89 251.21 L 60.73 252.18 C 60.56 253.31 61.33 254.38 62.47 254.55 C 63.60 254.73 64.67 253.95 64.84 252.82 L 64.99 251.85 C 65.17 250.72 64.39 249.66 63.26 249.48 C 62.12 249.30 61.06 250.08 60.89 251.21 Z M 60.74 252.21 L 60.60 253.20 C 60.44 254.33 61.22 255.38 62.36 255.54 C 63.49 255.70 64.54 254.92 64.70 253.78 L 64.84 252.79 C 65.00 251.66 64.21 250.61 63.08 250.45 C 61.95 250.29 60.90 251.07 60.74 252.21 Z M 60.60 253.22 L 60.47 254.25 C 60.32 255.38 61.11 256.42 62.24 256.57 C 63.37 256.72 64.41 255.92 64.56 254.79 L 64.70 253.76 C 64.84 252.63 64.05 251.59 62.92 251.44 C 61.79 251.30 60.75 252.09 60.60 253.22 Z M 60.47 254.26 L 60.35 255.25 C 60.20 256.38 61.00 257.41 62.13 257.55 C 63.26 257.70 64.29 256.90 64.43 255.77 L 64.56 254.78 C 64.70 253.65 63.90 252.62 62.77 252.48 C 61.64 252.34 60.61 253.13 60.47 254.26 Z M 60.35 255.27 L 60.23 256.26 C 60.10 257.39 60.90 258.41 62.02 258.54 C 63.15 258.68 64.17 257.88 64.31 256.75 L 64.43 255.76 C 64.56 254.63 63.76 253.61 62.63 253.47 C 61.51 253.34 60.49 254.14 60.35 255.27 Z M 60.23 256.28 L 60.12 257.28 C 59.99 258.41 60.80 259.42 61.92 259.55 C 63.05 259.67 64.06 258.87 64.19 257.74 L 64.30 256.74 C 64.43 255.61 63.62 254.60 62.50 254.47 C 61.38 254.35 60.36 255.15 60.23 256.28 Z M 60.13 257.30 L 60.02 258.30 C 59.90 259.42 60.72 260.42 61.84 260.54 C 62.96 260.66 63.96 259.84 64.08 258.72 L 64.18 257.72 C 64.30 256.60 63.49 255.60 62.37 255.48 C 61.25 255.36 60.24 256.18 60.13 257.30 Z M 60.02 258.32 L 59.93 259.34 C 59.82 260.46 60.65 261.45 61.76 261.56 C 62.88 261.66 63.87 260.84 63.98 259.72 L 64.08 258.70 C 64.18 257.58 63.36 256.59 62.24 256.49 C 61.12 256.38 60.13 257.20 60.02 258.32 Z M 59.93 259.37 L 59.85 260.40 C 59.76 261.52 60.59 262.50 61.71 262.59 C 62.82 262.68 63.80 261.85 63.89 260.73 L 63.97 259.70 C 64.06 258.58 63.23 257.60 62.12 257.51 C 61.00 257.42 60.03 258.25 59.93 259.37 Z M 59.86 260.43 L 59.79 261.43 C 59.72 262.54 60.56 263.51 61.67 263.58 C 62.78 263.66 63.74 262.82 63.82 261.70 L 63.88 260.70 C 63.96 259.59 63.12 258.63 62.01 258.56 C 60.89 258.48 59.93 259.32 59.86 260.43 Z M 59.80 261.46 L 59.75 262.42 C 59.69 263.53 60.54 264.48 61.65 264.53 C 62.76 264.59 63.70 263.74 63.76 262.63 L 63.81 261.67 C 63.87 260.57 63.02 259.62 61.91 259.56 C 60.80 259.50 59.86 260.36 59.80 261.46 Z M 59.76 262.46 L 59.72 263.45 C 59.68 264.56 60.54 265.48 61.65 265.52 C 62.75 265.56 63.67 264.70 63.71 263.60 L 63.75 262.60 C 63.79 261.50 62.93 260.57 61.82 260.53 C 60.72 260.49 59.80 261.35 59.76 262.46 Z M 59.73 263.49 L 59.71 264.52 C 59.69 265.61 60.57 266.52 61.66 266.54 C 62.76 266.56 63.67 265.68 63.69 264.59 L 63.70 263.56 C 63.72 262.46 62.85 261.56 61.75 261.54 C 60.65 261.52 59.75 262.39 59.73 263.49 Z M 59.73 264.55 L 59.73 265.54 C 59.73 266.63 60.61 267.51 61.70 267.51 C 62.79 267.51 63.67 266.62 63.67 265.53 L 63.67 264.55 C 63.67 263.46 62.79 262.58 61.70 262.58 C 60.61 262.58 59.73 263.46 59.73 264.55 Z M 59.74 265.57 L 59.76 266.58 C 59.77 267.66 60.66 268.52 61.75 268.50 C 62.83 268.49 63.69 267.60 63.68 266.51 L 63.66 265.50 C 63.64 264.42 62.75 263.56 61.67 263.58 C 60.59 263.59 59.72 264.48 59.74 265.57 Z M 59.78 266.65 L 59.85 267.92 C 59.90 268.99 60.82 269.81 61.89 269.76 C 62.96 269.70 63.78 268.78 63.72 267.71 L 63.65 266.44 C 63.60 265.37 62.68 264.55 61.61 264.61 C 60.54 264.67 59.72 265.58 59.78 266.65 Z M 59.95 268.38 L 60.16 269.04 C 60.47 270.05 61.54 270.62 62.55 270.30 C 63.56 269.99 64.13 268.92 63.82 267.91 L 63.62 267.25 C 63.30 266.24 62.23 265.67 61.22 265.99 C 60.21 266.30 59.64 267.37 59.95 268.38 Z M 63.14 269.93 L 63.50 269.64 C 64.31 269.01 64.45 267.84 63.81 267.03 C 63.18 266.23 62.01 266.09 61.21 266.73 L 60.84 267.02 C 60.03 267.65 59.89 268.82 60.53 269.62 C 61.16 270.43 62.33 270.57 63.14 269.93 Z M 63.93 268.97 L 64.43 267.97 C 64.86 267.10 64.51 266.04 63.64 265.61 C 62.77 265.18 61.71 265.53 61.28 266.40 L 60.78 267.40 C 60.35 268.27 60.70 269.32 61.57 269.76 C 62.44 270.19 63.50 269.84 63.93 268.97 Z M 64.41 267.80 L 64.87 266.64 C 65.21 265.79 64.79 264.81 63.93 264.47 C 63.08 264.13 62.10 264.55 61.76 265.41 L 61.30 266.56 C 60.96 267.42 61.38 268.40 62.23 268.74 C 63.09 269.08 64.06 268.66 64.41 267.80 Z M 64.85 266.58 L 65.19 265.64 C 65.50 264.79 65.06 263.86 64.22 263.55 C 63.37 263.24 62.43 263.68 62.13 264.53 L 61.78 265.47 C 61.48 266.31 61.91 267.25 62.76 267.56 C 63.60 267.86 64.54 267.43 64.85 266.58 Z M 65.18 265.61 L 65.52 264.64 C 65.81 263.80 65.36 262.88 64.52 262.59 C 63.68 262.30 62.76 262.74 62.47 263.58 L 62.14 264.56 C 61.85 265.40 62.29 266.31 63.13 266.60 C 63.97 266.90 64.89 266.45 65.18 265.61 Z M 65.50 264.62 L 65.82 263.66 C 66.10 262.82 65.65 261.92 64.82 261.64 C 63.99 261.36 63.09 261.81 62.81 262.65 L 62.49 263.61 C 62.21 264.44 62.66 265.34 63.49 265.62 C 64.32 265.90 65.22 265.45 65.50 264.62 Z M 65.81 263.64 L 66.13 262.68 C 66.40 261.85 65.95 260.97 65.12 260.69 C 64.30 260.42 63.41 260.87 63.14 261.70 L 62.82 262.66 C 62.55 263.49 63.00 264.38 63.83 264.65 C 64.65 264.92 65.54 264.47 65.81 263.64 Z M 66.12 262.67 L 66.44 261.69 C 66.71 260.87 66.25 259.98 65.43 259.72 C 64.61 259.45 63.72 259.90 63.46 260.73 L 63.14 261.71 C 62.87 262.53 63.33 263.41 64.15 263.68 C 64.97 263.95 65.86 263.50 66.12 262.67 Z M 66.44 261.68 L 66.73 260.76 C 67.00 259.93 66.54 259.05 65.72 258.79 C 64.90 258.53 64.02 258.98 63.75 259.81 L 63.46 260.73 C 63.20 261.56 63.65 262.44 64.47 262.70 C 65.30 262.96 66.18 262.51 66.44 261.68 Z M 66.73 260.75 L 67.02 259.83 C 67.28 259.01 66.82 258.13 66.00 257.87 C 65.18 257.62 64.30 258.07 64.04 258.90 L 63.75 259.81 C 63.49 260.64 63.95 261.51 64.78 261.77 C 65.60 262.03 66.48 261.57 66.73 260.75 Z M 67.02 259.83 L 67.31 258.90 C 67.57 258.08 67.11 257.21 66.28 256.95 C 65.46 256.69 64.59 257.15 64.33 257.98 L 64.04 258.90 C 63.79 259.72 64.25 260.60 65.07 260.86 C 65.89 261.11 66.77 260.65 67.02 259.83 Z M 67.31 258.90 L 67.61 257.95 C 67.86 257.12 67.40 256.25 66.58 256.00 C 65.75 255.74 64.88 256.20 64.62 257.03 L 64.33 257.98 C 64.07 258.80 64.54 259.68 65.36 259.93 C 66.18 260.19 67.06 259.73 67.31 258.90 Z M 67.61 257.95 L 67.91 256.97 C 68.16 256.15 67.70 255.28 66.87 255.02 C 66.05 254.77 65.18 255.23 64.92 256.05 L 64.62 257.03 C 64.37 257.85 64.83 258.72 65.66 258.98 C 66.48 259.23 67.35 258.77 67.61 257.95 Z M 67.91 256.97 L 68.08 256.42 C 68.33 255.60 67.87 254.72 67.04 254.47 C 66.22 254.22 65.35 254.68 65.09 255.50 L 64.92 256.05 C 64.67 256.88 65.13 257.75 65.96 258.01 C 66.78 258.26 67.65 257.80 67.91 256.97 Z"
      fill="black"
      fill-rule="nonzero" /><path d="M 101.02 71.87 L 100.17 71.36 C 99.40 70.90 98.40 71.15 97.94 71.92 C 97.47 72.69 97.73 73.69 98.50 74.15 L 99.35 74.66 C 100.12 75.12 101.12 74.87 101.58 74.10 C 102.04 73.33 101.79 72.33 101.02 71.87 Z M 100.18 71.32 L 99.31 70.82 C 98.52 70.35 97.51 70.61 97.04 71.40 C 96.57 72.19 96.84 73.21 97.63 73.68 L 98.49 74.19 C 99.28 74.65 100.29 74.39 100.76 73.60 C 101.23 72.81 100.97 71.79 100.18 71.32 Z M 99.32 70.77 L 98.45 70.28 C 97.63 69.81 96.59 70.09 96.13 70.90 C 95.66 71.72 95.94 72.75 96.76 73.22 L 97.62 73.72 C 98.44 74.19 99.48 73.91 99.94 73.09 C 100.41 72.28 100.13 71.24 99.32 70.77 Z M 98.43 70.24 L 97.55 69.76 C 96.72 69.30 95.67 69.61 95.22 70.45 C 94.76 71.28 95.07 72.33 95.90 72.78 L 96.78 73.26 C 97.61 73.72 98.66 73.41 99.11 72.57 C 99.57 71.74 99.26 70.69 98.43 70.24 Z M 97.48 69.71 L 96.59 69.28 C 95.73 68.86 94.69 69.22 94.27 70.08 C 93.85 70.94 94.21 71.98 95.07 72.40 L 95.97 72.83 C 96.83 73.25 97.87 72.89 98.29 72.03 C 98.71 71.17 98.35 70.13 97.48 69.71 Z M 96.46 69.21 L 95.53 68.85 C 94.63 68.50 93.62 68.94 93.27 69.84 C 92.92 70.74 93.36 71.75 94.26 72.10 L 95.20 72.46 C 96.09 72.81 97.11 72.37 97.45 71.47 C 97.80 70.57 97.36 69.56 96.46 69.21 Z M 95.34 68.76 L 94.29 68.48 C 93.34 68.24 92.37 68.80 92.13 69.75 C 91.88 70.70 92.45 71.66 93.40 71.91 L 94.45 72.19 C 95.39 72.43 96.36 71.87 96.61 70.92 C 96.86 69.97 96.29 69.00 95.34 68.76 Z M 93.97 68.38 L 92.94 68.31 C 91.94 68.24 91.07 69.00 91.00 70.00 C 90.93 71.00 91.68 71.87 92.69 71.94 L 93.72 72.01 C 94.72 72.08 95.59 71.33 95.66 70.32 C 95.73 69.32 94.97 68.45 93.97 68.38 Z M 92.30 68.32 L 91.46 68.56 C 90.46 68.85 89.89 69.88 90.17 70.88 C 90.45 71.88 91.49 72.45 92.49 72.17 L 93.33 71.93 C 94.32 71.64 94.90 70.61 94.62 69.61 C 94.33 68.61 93.29 68.04 92.30 68.32 Z M 90.51 69.14 L 89.98 69.77 C 89.30 70.58 89.41 71.78 90.22 72.46 C 91.03 73.14 92.23 73.03 92.91 72.22 L 93.44 71.59 C 94.12 70.79 94.01 69.58 93.20 68.90 C 92.39 68.22 91.19 68.33 90.51 69.14 Z M 89.54 70.66 L 89.37 71.61 C 89.19 72.66 89.89 73.66 90.94 73.85 C 91.99 74.04 92.99 73.34 93.18 72.29 L 93.35 71.33 C 93.53 70.28 92.83 69.28 91.78 69.09 C 90.73 68.91 89.73 69.61 89.54 70.66 Z M 89.36 72.28 L 89.55 73.41 C 89.73 74.47 90.74 75.18 91.80 75.00 C 92.86 74.81 93.57 73.81 93.39 72.74 L 93.20 71.62 C 93.02 70.56 92.01 69.84 90.95 70.03 C 89.89 70.21 89.17 71.22 89.36 72.28 Z M 89.64 73.78 L 89.91 74.47 C 90.30 75.48 91.44 75.98 92.44 75.59 C 93.45 75.20 93.95 74.07 93.56 73.06 L 93.30 72.37 C 92.91 71.36 91.77 70.86 90.76 71.25 C 89.75 71.64 89.25 72.77 89.64 73.78 Z M 89.99 74.66 L 90.37 75.40 C 90.87 76.37 92.05 76.75 93.01 76.26 C 93.98 75.76 94.36 74.58 93.86 73.62 L 93.48 72.87 C 92.99 71.91 91.81 71.53 90.84 72.02 C 89.88 72.51 89.50 73.69 89.99 74.66 Z M 90.44 75.52 L 90.94 76.35 C 91.50 77.28 92.70 77.58 93.63 77.02 C 94.56 76.46 94.86 75.25 94.30 74.32 L 93.80 73.50 C 93.24 72.57 92.03 72.27 91.11 72.83 C 90.18 73.39 89.88 74.59 90.44 75.52 Z M 90.98 76.42 L 91.59 77.35 C 92.19 78.25 93.41 78.50 94.32 77.90 C 95.22 77.30 95.47 76.09 94.87 75.18 L 94.25 74.25 C 93.66 73.35 92.44 73.10 91.53 73.70 C 90.63 74.30 90.38 75.52 90.98 76.42 Z M 91.62 77.39 L 92.35 78.44 C 92.97 79.33 94.19 79.55 95.09 78.93 C 95.98 78.31 96.20 77.09 95.58 76.20 L 94.85 75.14 C 94.23 74.25 93.00 74.03 92.11 74.65 C 91.22 75.27 91.00 76.50 91.62 77.39 Z M 92.36 78.46 L 92.94 79.27 C 93.56 80.16 94.79 80.37 95.68 79.74 C 96.56 79.11 96.77 77.88 96.15 77.00 L 95.57 76.18 C 94.94 75.30 93.72 75.09 92.83 75.72 C 91.94 76.34 91.73 77.57 92.36 78.46 Z M 92.94 79.28 L 93.49 80.05 C 94.12 80.94 95.35 81.14 96.23 80.51 C 97.12 79.88 97.33 78.65 96.70 77.77 L 96.14 76.99 C 95.51 76.11 94.28 75.90 93.40 76.53 C 92.51 77.16 92.31 78.39 92.94 79.28 Z M 93.49 80.05 L 94.07 80.87 C 94.71 81.75 95.94 81.96 96.82 81.32 C 97.70 80.69 97.91 79.46 97.28 78.58 L 96.69 77.77 C 96.06 76.88 94.83 76.68 93.95 77.31 C 93.07 77.94 92.86 79.17 93.49 80.05 Z M 94.08 80.87 L 94.67 81.71 C 95.31 82.59 96.54 82.79 97.42 82.16 C 98.30 81.53 98.51 80.30 97.87 79.42 L 97.27 78.58 C 96.64 77.69 95.41 77.49 94.53 78.12 C 93.65 78.76 93.44 79.99 94.08 80.87 Z M 94.67 81.71 L 95.28 82.56 C 95.92 83.44 97.14 83.64 98.03 83.01 C 98.91 82.38 99.12 81.15 98.48 80.27 L 97.87 79.42 C 97.24 78.53 96.01 78.33 95.13 78.96 C 94.25 79.59 94.04 80.82 94.67 81.71 Z M 95.28 82.56 L 95.89 83.41 C 96.52 84.29 97.75 84.50 98.64 83.86 C 99.52 83.23 99.73 82.00 99.09 81.12 L 98.49 80.27 C 97.85 79.38 96.62 79.18 95.74 79.81 C 94.85 80.44 94.65 81.67 95.28 82.56 Z M 95.89 83.40 L 96.49 84.24 C 97.12 85.13 98.35 85.34 99.23 84.71 C 100.12 84.08 100.32 82.85 99.69 81.96 L 99.10 81.12 C 98.47 80.23 97.24 80.03 96.35 80.66 C 95.46 81.29 95.26 82.52 95.89 83.40 Z M 96.48 84.24 L 97.06 85.06 C 97.69 85.95 98.92 86.16 99.81 85.53 C 100.69 84.90 100.90 83.67 100.28 82.78 L 99.70 81.97 C 99.07 81.08 97.84 80.87 96.95 81.50 C 96.06 82.12 95.85 83.35 96.48 84.24 Z M 97.06 85.05 L 97.65 85.90 C 98.28 86.79 99.51 87.01 100.40 86.39 C 101.29 85.76 101.50 84.53 100.88 83.64 L 100.28 82.79 C 99.66 81.90 98.43 81.68 97.54 82.31 C 96.65 82.93 96.43 84.16 97.06 85.05 Z M 97.65 85.89 L 98.33 86.89 C 98.95 87.78 100.18 88.00 101.07 87.38 C 101.97 86.77 102.19 85.54 101.57 84.64 L 100.89 83.65 C 100.27 82.76 99.04 82.53 98.14 83.15 C 97.25 83.77 97.03 85.00 97.65 85.89 Z M 98.33 86.88 L 98.95 87.79 C 99.56 88.69 100.79 88.92 101.69 88.31 C 102.59 87.70 102.82 86.47 102.21 85.57 L 101.58 84.66 C 100.97 83.76 99.74 83.52 98.84 84.14 C 97.94 84.75 97.71 85.98 98.33 86.88 Z M 98.94 87.78 L 99.51 88.63 C 100.12 89.53 101.35 89.77 102.25 89.17 C 103.15 88.56 103.39 87.34 102.79 86.43 L 102.21 85.58 C 101.61 84.68 100.38 84.44 99.48 85.05 C 98.58 85.65 98.34 86.88 98.94 87.78 Z M 99.51 88.62 L 100.03 89.40 C 100.63 90.31 101.85 90.56 102.76 89.96 C 103.66 89.36 103.91 88.14 103.31 87.23 L 102.79 86.45 C 102.19 85.54 100.97 85.29 100.06 85.89 C 99.16 86.49 98.91 87.71 99.51 88.62 Z M 100.02 89.39 L 100.49 90.12 C 101.09 91.03 102.31 91.29 103.22 90.69 C 104.13 90.10 104.39 88.88 103.79 87.96 L 103.32 87.24 C 102.72 86.33 101.50 86.07 100.59 86.67 C 99.68 87.26 99.42 88.48 100.02 89.39 Z M 100.48 90.11 L 100.92 90.78 C 101.50 91.69 102.72 91.96 103.64 91.37 C 104.55 90.78 104.82 89.56 104.23 88.64 L 103.80 87.97 C 103.21 87.06 101.99 86.80 101.07 87.38 C 100.16 87.97 99.90 89.19 100.48 90.11 Z M 100.91 90.77 L 101.52 91.72 C 102.10 92.64 103.32 92.91 104.23 92.33 C 105.15 91.75 105.43 90.53 104.84 89.61 L 104.24 88.66 C 103.65 87.74 102.44 87.46 101.52 88.05 C 100.60 88.63 100.33 89.85 100.91 90.77 Z M 101.51 91.71 L 102.05 92.58 C 102.63 93.51 103.84 93.79 104.77 93.21 C 105.69 92.64 105.97 91.42 105.39 90.50 L 104.85 89.63 C 104.27 88.70 103.06 88.42 102.14 89.00 C 101.21 89.57 100.93 90.79 101.51 91.71 Z M 102.05 92.57 L 102.54 93.37 C 103.11 94.30 104.32 94.59 105.25 94.02 C 106.17 93.44 106.46 92.23 105.89 91.31 L 105.40 90.51 C 104.83 89.58 103.62 89.29 102.69 89.86 C 101.76 90.43 101.48 91.65 102.05 92.57 Z M 102.54 93.37 L 103.00 94.13 C 103.57 95.05 104.78 95.35 105.71 94.78 C 106.64 94.21 106.93 93.00 106.36 92.07 L 105.89 91.31 C 105.33 90.38 104.11 90.09 103.19 90.66 C 102.26 91.23 101.97 92.44 102.54 93.37 Z M 103.00 94.13 L 103.53 94.99 C 104.10 95.92 105.32 96.21 106.24 95.64 C 107.17 95.07 107.46 93.86 106.89 92.93 L 106.36 92.07 C 105.79 91.14 104.58 90.85 103.65 91.42 C 102.72 91.99 102.43 93.20 103.00 94.13 Z M 103.53 94.99 L 104.06 95.84 C 104.62 96.77 105.84 97.06 106.76 96.49 C 107.69 95.92 107.98 94.71 107.41 93.78 L 106.89 92.93 C 106.32 92.00 105.11 91.71 104.18 92.28 C 103.25 92.85 102.96 94.06 103.53 94.99 Z M 104.05 95.83 L 104.57 96.68 C 105.14 97.61 106.35 97.90 107.27 97.34 C 108.20 96.77 108.50 95.56 107.93 94.63 L 107.41 93.78 C 106.85 92.86 105.64 92.56 104.71 93.13 C 103.78 93.70 103.49 94.91 104.05 95.83 Z M 104.56 96.67 L 105.08 97.52 C 105.64 98.45 106.85 98.75 107.78 98.19 C 108.71 97.63 109.01 96.42 108.45 95.49 L 107.93 94.64 C 107.37 93.71 106.16 93.41 105.23 93.97 C 104.30 94.53 104.00 95.74 104.56 96.67 Z M 105.07 97.51 L 105.58 98.36 C 106.13 99.30 107.34 99.60 108.27 99.05 C 109.21 98.49 109.51 97.29 108.96 96.35 L 108.45 95.50 C 107.90 94.56 106.69 94.26 105.75 94.81 C 104.82 95.37 104.51 96.58 105.07 97.51 Z M 105.57 98.35 L 106.08 99.22 C 106.63 100.16 107.84 100.47 108.77 99.92 C 109.71 99.37 110.02 98.17 109.47 97.23 L 108.96 96.36 C 108.42 95.43 107.21 95.11 106.27 95.66 C 105.34 96.21 105.02 97.42 105.57 98.35 Z M 106.08 99.21 L 106.58 100.08 C 107.12 101.02 108.33 101.34 109.27 100.79 C 110.21 100.25 110.53 99.05 109.98 98.11 L 109.48 97.24 C 108.93 96.30 107.73 95.98 106.79 96.52 C 105.85 97.07 105.53 98.27 106.08 99.21 Z M 106.58 100.07 L 107.07 100.93 C 107.61 101.87 108.81 102.20 109.75 101.66 C 110.69 101.12 111.02 99.92 110.48 98.97 L 109.99 98.12 C 109.45 97.17 108.24 96.85 107.30 97.39 C 106.36 97.93 106.04 99.13 106.58 100.07 Z M 107.07 100.93 L 107.56 101.79 C 108.10 102.74 109.30 103.06 110.24 102.53 C 111.18 101.99 111.51 100.79 110.97 99.85 L 110.48 98.98 C 109.94 98.04 108.74 97.71 107.80 98.25 C 106.86 98.78 106.53 99.98 107.07 100.93 Z M 107.56 101.79 L 108.07 102.67 C 108.60 103.62 109.80 103.94 110.75 103.40 C 111.69 102.87 112.01 101.67 111.48 100.72 L 110.97 99.85 C 110.43 98.90 109.23 98.58 108.29 99.12 C 107.35 99.65 107.02 100.85 107.56 101.79 Z M 108.07 102.68 L 108.56 103.54 C 109.10 104.48 110.30 104.80 111.24 104.26 C 112.18 103.72 112.51 102.52 111.97 101.58 L 111.47 100.72 C 110.93 99.78 109.73 99.46 108.79 100.00 C 107.85 100.54 107.53 101.74 108.07 102.68 Z M 108.57 103.54 L 109.06 104.40 C 109.61 105.34 110.81 105.66 111.75 105.12 C 112.68 104.58 113.00 103.38 112.46 102.44 L 111.96 101.58 C 111.42 100.64 110.22 100.32 109.28 100.86 C 108.34 101.40 108.02 102.60 108.57 103.54 Z M 109.06 104.40 L 109.57 105.27 C 110.11 106.21 111.31 106.53 112.25 105.99 C 113.18 105.45 113.51 104.25 112.96 103.31 L 112.46 102.44 C 111.92 101.50 110.72 101.18 109.78 101.72 C 108.84 102.26 108.52 103.46 109.06 104.40 Z M 109.56 105.27 L 110.07 106.14 C 110.60 107.08 111.80 107.40 112.74 106.87 C 113.68 106.33 114.01 105.13 113.47 104.19 L 112.97 103.31 C 112.43 102.38 111.23 102.05 110.29 102.59 C 109.35 103.13 109.03 104.33 109.56 105.27 Z M 110.06 106.13 L 110.54 106.98 C 111.08 107.92 112.27 108.25 113.21 107.71 C 114.16 107.18 114.49 105.98 113.95 105.04 L 113.47 104.20 C 112.94 103.25 111.74 102.92 110.80 103.46 C 109.86 103.99 109.53 105.19 110.06 106.13 Z M 110.54 106.97 L 111.02 107.83 C 111.55 108.78 112.75 109.11 113.69 108.58 C 114.64 108.05 114.97 106.85 114.44 105.91 L 113.95 105.05 C 113.42 104.10 112.23 103.77 111.29 104.30 C 110.34 104.83 110.01 106.03 110.54 106.97 Z M 111.02 107.83 L 111.52 108.71 C 112.04 109.66 113.24 109.99 114.18 109.47 C 115.13 108.94 115.47 107.74 114.94 106.80 L 114.44 105.91 C 113.91 104.97 112.72 104.63 111.78 105.16 C 110.83 105.69 110.49 106.88 111.02 107.83 Z M 111.51 108.71 L 112.01 109.60 C 112.54 110.55 113.73 110.89 114.68 110.36 C 115.62 109.84 115.96 108.64 115.44 107.70 L 114.94 106.80 C 114.41 105.86 113.22 105.52 112.27 106.04 C 111.33 106.57 110.99 107.76 111.51 108.71 Z M 112.01 109.60 L 112.49 110.46 C 113.01 111.41 114.20 111.75 115.15 111.23 C 116.10 110.70 116.44 109.51 115.92 108.57 L 115.44 107.70 C 114.91 106.75 113.72 106.41 112.77 106.94 C 111.83 107.46 111.49 108.65 112.01 109.60 Z M 112.49 110.46 L 112.97 111.34 C 113.49 112.29 114.68 112.63 115.63 112.11 C 116.58 111.59 116.92 110.40 116.40 109.45 L 115.92 108.57 C 115.40 107.62 114.21 107.28 113.26 107.80 C 112.31 108.32 111.97 109.51 112.49 110.46 Z M 112.97 111.33 L 113.45 112.22 C 113.97 113.17 115.16 113.52 116.11 113.00 C 117.06 112.49 117.41 111.30 116.89 110.35 L 116.41 109.46 C 115.89 108.51 114.70 108.16 113.75 108.68 C 112.80 109.20 112.45 110.38 112.97 111.33 Z M 113.45 112.21 L 113.92 113.10 C 114.44 114.05 115.62 114.40 116.58 113.89 C 117.53 113.38 117.88 112.19 117.37 111.24 L 116.89 110.35 C 116.38 109.40 115.19 109.05 114.24 109.56 C 113.29 110.07 112.93 111.26 113.45 112.21 Z M 113.92 113.09 L 114.39 113.98 C 114.90 114.93 116.09 115.30 117.04 114.79 C 118.00 114.28 118.36 113.10 117.85 112.14 L 117.38 111.25 C 116.87 110.29 115.68 109.93 114.73 110.44 C 113.77 110.95 113.41 112.13 113.92 113.09 Z M 114.39 113.97 L 114.86 114.86 C 115.36 115.81 116.54 116.18 117.50 115.68 C 118.46 115.17 118.82 113.99 118.32 113.03 L 117.85 112.15 C 117.35 111.19 116.17 110.82 115.21 111.33 C 114.25 111.83 113.89 113.02 114.39 113.97 Z M 114.85 114.85 L 115.32 115.73 C 115.82 116.69 117.00 117.06 117.96 116.56 C 118.91 116.05 119.28 114.87 118.78 113.91 L 118.32 113.03 C 117.82 112.08 116.64 111.71 115.68 112.21 C 114.72 112.71 114.35 113.90 114.85 114.85 Z M 115.32 115.73 L 115.78 116.61 C 116.28 117.57 117.47 117.94 118.42 117.44 C 119.38 116.93 119.75 115.75 119.24 114.79 L 118.78 113.91 C 118.28 112.96 117.10 112.59 116.14 113.09 C 115.18 113.59 114.81 114.78 115.32 115.73 Z M 115.78 116.62 L 116.24 117.49 C 116.75 118.45 117.93 118.81 118.89 118.31 C 119.84 117.80 120.21 116.62 119.70 115.66 L 119.24 114.79 C 118.74 113.84 117.55 113.47 116.60 113.97 C 115.64 114.48 115.28 115.66 115.78 116.62 Z M 116.24 117.49 L 116.71 118.37 C 117.22 119.33 118.40 119.69 119.35 119.19 C 120.31 118.68 120.67 117.50 120.17 116.55 L 119.70 115.66 C 119.20 114.71 118.01 114.34 117.06 114.85 C 116.10 115.35 115.74 116.54 116.24 117.49 Z M 116.71 118.37 L 117.17 119.26 C 117.68 120.21 118.86 120.58 119.81 120.08 C 120.77 119.58 121.14 118.40 120.64 117.44 L 120.17 116.55 C 119.67 115.59 118.49 115.23 117.53 115.73 C 116.57 116.23 116.21 117.41 116.71 118.37 Z M 117.17 119.25 L 117.63 120.14 C 118.13 121.10 119.31 121.48 120.27 120.98 C 121.23 120.48 121.60 119.31 121.11 118.35 L 120.64 117.45 C 120.15 116.49 118.97 116.12 118.01 116.61 C 117.05 117.11 116.67 118.29 117.17 119.25 Z M 117.63 120.13 L 118.07 121.01 C 118.56 121.98 119.74 122.36 120.70 121.87 C 121.66 121.39 122.05 120.21 121.56 119.25 L 121.11 118.36 C 120.63 117.40 119.45 117.01 118.49 117.50 C 117.52 117.99 117.14 119.16 117.63 120.13 Z M 118.07 121.00 L 118.51 121.89 C 118.98 122.85 120.15 123.25 121.12 122.77 C 122.09 122.29 122.49 121.12 122.01 120.15 L 121.57 119.27 C 121.09 118.30 119.92 117.90 118.95 118.38 C 117.98 118.86 117.59 120.03 118.07 121.00 Z M 118.50 121.87 L 118.93 122.77 C 119.40 123.74 120.57 124.15 121.54 123.68 C 122.51 123.21 122.92 122.04 122.45 121.07 L 122.01 120.17 C 121.54 119.20 120.38 118.79 119.41 119.26 C 118.44 119.73 118.03 120.90 118.50 121.87 Z M 118.93 122.76 L 119.36 123.67 C 119.82 124.64 120.99 125.06 121.96 124.59 C 122.94 124.13 123.35 122.97 122.89 121.99 L 122.46 121.08 C 121.99 120.11 120.83 119.69 119.85 120.16 C 118.88 120.62 118.47 121.78 118.93 122.76 Z M 119.36 123.66 L 119.78 124.57 C 120.24 125.54 121.40 125.97 122.38 125.51 C 123.35 125.05 123.77 123.89 123.32 122.92 L 122.89 122.01 C 122.44 121.03 121.28 120.61 120.30 121.06 C 119.32 121.52 118.90 122.68 119.36 123.66 Z M 119.78 124.56 L 120.20 125.47 C 120.65 126.45 121.81 126.87 122.79 126.42 C 123.76 125.97 124.19 124.81 123.74 123.83 L 123.32 122.93 C 122.87 121.95 121.71 121.52 120.73 121.97 C 119.76 122.42 119.33 123.58 119.78 124.56 Z M 120.20 125.46 L 120.62 126.38 C 121.07 127.35 122.22 127.78 123.20 127.33 C 124.18 126.89 124.61 125.73 124.16 124.75 L 123.74 123.84 C 123.29 122.86 122.13 122.43 121.16 122.88 C 120.18 123.33 119.75 124.49 120.20 125.46 Z M 120.62 126.38 L 121.04 127.29 C 121.49 128.27 122.64 128.69 123.62 128.24 C 124.60 127.79 125.03 126.64 124.58 125.66 L 124.16 124.75 C 123.71 123.77 122.55 123.34 121.57 123.79 C 120.60 124.24 120.17 125.40 120.62 126.38 Z M 121.04 127.29 L 121.46 128.20 C 121.91 129.17 123.07 129.60 124.05 129.14 C 125.02 128.69 125.45 127.53 124.99 126.56 L 124.57 125.65 C 124.12 124.68 122.96 124.25 121.99 124.71 C 121.01 125.16 120.59 126.32 121.04 127.29 Z M 121.47 128.21 L 121.89 129.11 C 122.35 130.08 123.51 130.50 124.48 130.04 C 125.45 129.58 125.87 128.42 125.41 127.45 L 124.99 126.55 C 124.53 125.58 123.37 125.16 122.40 125.62 C 121.43 126.07 121.01 127.23 121.47 128.21 Z M 121.89 129.12 L 122.32 130.01 C 122.78 130.98 123.95 131.39 124.92 130.93 C 125.88 130.47 126.30 129.30 125.83 128.33 L 125.41 127.44 C 124.94 126.47 123.78 126.06 122.81 126.52 C 121.84 126.98 121.43 128.15 121.89 129.12 Z M 122.33 130.02 L 122.76 130.92 C 123.23 131.88 124.39 132.29 125.36 131.82 C 126.32 131.35 126.73 130.19 126.26 129.22 L 125.83 128.33 C 125.36 127.36 124.20 126.96 123.23 127.42 C 122.27 127.89 121.86 129.05 122.33 130.02 Z M 122.76 130.92 L 123.21 131.83 C 123.68 132.79 124.84 133.19 125.81 132.72 C 126.77 132.25 127.17 131.09 126.70 130.12 L 126.26 129.22 C 125.79 128.25 124.62 127.85 123.66 128.32 C 122.69 128.79 122.29 129.96 122.76 130.92 Z M 123.21 131.83 L 123.66 132.75 C 124.14 133.71 125.30 134.11 126.26 133.63 C 127.22 133.16 127.62 131.99 127.15 131.03 L 126.70 130.12 C 126.22 129.16 125.06 128.76 124.10 129.24 C 123.13 129.71 122.74 130.87 123.21 131.83 Z M 123.66 132.75 L 124.12 133.67 C 124.59 134.63 125.76 135.02 126.72 134.55 C 127.68 134.07 128.07 132.91 127.60 131.95 L 127.14 131.03 C 126.67 130.07 125.50 129.68 124.54 130.15 C 123.58 130.63 123.19 131.79 123.66 132.75 Z M 124.12 133.67 L 124.57 134.58 C 125.05 135.54 126.22 135.93 127.17 135.45 C 128.13 134.98 128.52 133.81 128.05 132.85 L 127.59 131.94 C 127.12 130.98 125.95 130.59 124.99 131.07 C 124.03 131.55 123.64 132.71 124.12 133.67 Z M 124.58 134.58 L 125.02 135.47 C 125.50 136.43 126.66 136.81 127.62 136.34 C 128.58 135.86 128.96 134.69 128.49 133.74 L 128.04 132.85 C 127.57 131.89 126.40 131.50 125.44 131.98 C 124.49 132.46 124.10 133.62 124.58 134.58 Z M 125.02 135.47 L 125.46 136.35 C 125.94 137.31 127.10 137.69 128.06 137.22 C 129.02 136.74 129.40 135.57 128.93 134.62 L 128.48 133.74 C 128.01 132.78 126.84 132.39 125.89 132.87 C 124.93 133.35 124.54 134.51 125.02 135.47 Z M 125.46 136.35 L 125.94 137.30 C 126.42 138.26 127.58 138.64 128.53 138.17 C 129.49 137.69 129.88 136.52 129.40 135.57 L 128.92 134.62 C 128.45 133.66 127.28 133.27 126.33 133.75 C 125.37 134.23 124.98 135.39 125.46 136.35 Z M 125.94 137.30 L 126.38 138.19 C 126.86 139.15 128.02 139.53 128.98 139.06 C 129.94 138.58 130.32 137.42 129.84 136.46 L 129.40 135.57 C 128.92 134.61 127.76 134.23 126.80 134.70 C 125.85 135.18 125.46 136.34 125.94 137.30 Z M 126.39 138.19 L 126.81 139.04 C 127.29 140.00 128.45 140.38 129.40 139.91 C 130.36 139.43 130.75 138.27 130.27 137.31 L 129.84 136.46 C 129.37 135.51 128.21 135.12 127.25 135.60 C 126.30 136.08 125.91 137.24 126.39 138.19 Z M 126.81 139.04 L 127.21 139.83 C 127.69 140.79 128.85 141.17 129.80 140.69 C 130.75 140.22 131.14 139.06 130.66 138.10 L 130.27 137.31 C 129.79 136.36 128.63 135.97 127.68 136.45 C 126.72 136.93 126.34 138.09 126.81 139.04 Z M 127.21 139.84 L 127.61 140.61 C 128.09 141.56 129.25 141.94 130.20 141.46 C 131.15 140.98 131.53 139.82 131.05 138.87 L 130.66 138.10 C 130.18 137.14 129.01 136.76 128.06 137.25 C 127.11 137.73 126.73 138.89 127.21 139.84 Z M 127.62 140.63 L 128.06 141.48 C 128.56 142.43 129.72 142.79 130.66 142.30 C 131.61 141.81 131.97 140.64 131.48 139.70 L 131.04 138.85 C 130.54 137.90 129.38 137.54 128.43 138.03 C 127.49 138.53 127.13 139.69 127.62 140.63 Z M 128.08 141.51 L 128.61 142.49 C 129.12 143.43 130.29 143.77 131.22 143.26 C 132.16 142.76 132.50 141.59 132.00 140.65 L 131.46 139.67 C 130.96 138.73 129.79 138.39 128.85 138.90 C 127.92 139.40 127.57 140.57 128.08 141.51 Z M 128.62 142.51 L 129.15 143.45 C 129.67 144.38 130.84 144.71 131.77 144.18 C 132.70 143.66 133.03 142.49 132.51 141.56 L 131.98 140.63 C 131.46 139.70 130.29 139.37 129.36 139.89 C 128.43 140.41 128.10 141.59 128.62 142.51 Z M 129.16 143.46 L 129.62 144.27 C 130.15 145.20 131.33 145.51 132.25 144.98 C 133.17 144.45 133.49 143.28 132.96 142.36 L 132.50 141.55 C 131.97 140.62 130.79 140.31 129.87 140.84 C 128.95 141.37 128.63 142.54 129.16 143.46 Z M 129.63 144.29 L 130.14 145.15 C 130.67 146.07 131.85 146.37 132.77 145.84 C 133.69 145.30 134.00 144.12 133.46 143.21 L 132.95 142.34 C 132.42 141.43 131.24 141.12 130.32 141.65 C 129.41 142.19 129.10 143.37 129.63 144.29 Z M 130.14 145.16 L 130.68 146.05 C 131.22 146.97 132.40 147.27 133.31 146.72 C 134.22 146.18 134.52 145.00 133.98 144.09 L 133.45 143.19 C 132.91 142.28 131.73 141.98 130.82 142.52 C 129.90 143.07 129.60 144.25 130.14 145.16 Z M 130.68 146.06 L 131.23 146.96 C 131.78 147.87 132.96 148.16 133.87 147.61 C 134.78 147.06 135.07 145.88 134.52 144.97 L 133.97 144.07 C 133.42 143.17 132.24 142.88 131.33 143.42 C 130.43 143.97 130.13 145.16 130.68 146.06 Z M 131.24 146.98 L 131.78 147.86 C 132.34 148.77 133.52 149.05 134.43 148.49 C 135.33 147.93 135.61 146.75 135.05 145.85 L 134.51 144.96 C 133.95 144.06 132.77 143.78 131.86 144.33 C 130.96 144.89 130.68 146.08 131.24 146.98 Z M 131.80 147.88 L 132.34 148.74 C 132.90 149.64 134.09 149.90 134.99 149.34 C 135.88 148.77 136.15 147.59 135.59 146.69 L 135.04 145.83 C 134.48 144.93 133.29 144.66 132.39 145.23 C 131.50 145.80 131.23 146.98 131.80 147.88 Z M 132.35 148.76 L 132.94 149.66 C 133.52 150.55 134.71 150.80 135.60 150.22 C 136.48 149.65 136.73 148.46 136.16 147.57 L 135.57 146.67 C 134.99 145.78 133.80 145.53 132.92 146.11 C 132.03 146.68 131.78 147.87 132.35 148.76 Z M 132.96 149.69 L 133.54 150.53 C 134.13 151.41 135.32 151.64 136.19 151.05 C 137.07 150.45 137.30 149.26 136.71 148.39 L 136.13 147.54 C 135.54 146.67 134.35 146.44 133.48 147.03 C 132.60 147.63 132.37 148.82 132.96 149.69 Z M 133.56 150.57 L 134.13 151.37 C 134.74 152.23 135.93 152.43 136.79 151.82 C 137.65 151.21 137.86 150.02 137.25 149.16 L 136.68 148.36 C 136.07 147.50 134.88 147.29 134.02 147.90 C 133.16 148.51 132.95 149.71 133.56 150.57 Z M 134.16 151.40 L 134.74 152.17 C 135.37 153.01 136.56 153.19 137.40 152.56 C 138.25 151.93 138.42 150.73 137.79 149.89 L 137.21 149.12 C 136.58 148.28 135.39 148.10 134.55 148.73 C 133.70 149.36 133.53 150.56 134.16 151.40 Z M 134.77 152.21 L 135.36 152.96 C 136.01 153.79 137.21 153.93 138.03 153.28 C 138.86 152.63 139.00 151.44 138.35 150.61 L 137.76 149.85 C 137.11 149.03 135.91 148.89 135.09 149.54 C 134.26 150.19 134.12 151.38 134.77 152.21 Z M 135.40 153.00 L 136.06 153.80 C 136.73 154.60 137.92 154.72 138.73 154.05 C 139.54 153.38 139.65 152.18 138.98 151.38 L 138.32 150.58 C 137.65 149.77 136.45 149.66 135.65 150.33 C 134.84 150.99 134.73 152.19 135.40 153.00 Z M 136.07 153.81 L 136.79 154.65 C 137.46 155.45 138.66 155.55 139.46 154.88 C 140.25 154.20 140.36 153.01 139.68 152.21 L 138.97 151.36 C 138.29 150.56 137.10 150.46 136.30 151.14 C 135.50 151.81 135.40 153.01 136.07 153.81 Z M 136.77 154.62 L 137.44 155.45 C 138.10 156.26 139.29 156.39 140.10 155.73 C 140.91 155.07 141.03 153.88 140.38 153.07 L 139.70 152.24 C 139.04 151.43 137.85 151.30 137.04 151.96 C 136.23 152.62 136.11 153.81 136.77 154.62 Z M 137.38 155.37 L 137.96 156.17 C 138.57 157.02 139.75 157.21 140.60 156.60 C 141.44 155.99 141.63 154.81 141.02 153.96 L 140.44 153.16 C 139.83 152.31 138.65 152.12 137.80 152.73 C 136.96 153.34 136.77 154.52 137.38 155.37 Z M 137.85 155.99 L 138.28 156.76 C 138.79 157.67 139.94 157.99 140.85 157.47 C 141.76 156.96 142.08 155.81 141.56 154.91 L 141.13 154.14 C 140.62 153.23 139.47 152.91 138.56 153.43 C 137.66 153.94 137.34 155.09 137.85 155.99 Z M 138.12 156.36 L 138.37 157.22 C 138.66 158.22 139.70 158.79 140.70 158.50 C 141.70 158.21 142.27 157.16 141.98 156.16 L 141.73 155.30 C 141.44 154.31 140.39 153.73 139.40 154.02 C 138.40 154.32 137.82 155.36 138.12 156.36 Z M 138.29 156.55 L 138.22 157.48 C 138.14 158.52 138.92 159.43 139.96 159.51 C 141.00 159.59 141.91 158.81 141.98 157.77 L 142.06 156.83 C 142.14 155.79 141.36 154.89 140.32 154.81 C 139.28 154.73 138.37 155.51 138.29 156.55 Z M 138.31 157.00 L 137.99 157.91 C 137.65 158.90 138.17 159.98 139.16 160.33 C 140.14 160.67 141.22 160.15 141.57 159.17 L 141.89 158.26 C 142.24 157.27 141.72 156.19 140.73 155.84 C 139.74 155.49 138.66 156.01 138.31 157.00 Z M 138.03 157.80 L 137.63 158.75 C 137.22 159.72 137.68 160.84 138.65 161.24 C 139.62 161.65 140.73 161.19 141.14 160.22 L 141.54 159.27 C 141.94 158.30 141.49 157.19 140.52 156.78 C 139.55 156.38 138.43 156.83 138.03 157.80 Z M 137.57 158.89 L 137.27 159.81 C 136.93 160.81 137.48 161.89 138.48 162.23 C 139.48 162.56 140.56 162.02 140.89 161.02 L 141.20 160.09 C 141.53 159.09 140.99 158.01 139.99 157.68 C 138.99 157.34 137.91 157.89 137.57 158.89 Z M 137.22 159.94 L 136.97 160.92 C 136.71 161.94 137.33 162.99 138.35 163.25 C 139.37 163.51 140.42 162.89 140.68 161.87 L 140.93 160.89 C 141.19 159.87 140.58 158.83 139.55 158.56 C 138.53 158.30 137.49 158.92 137.22 159.94 Z M 136.95 161.00 L 136.74 162.00 C 136.52 163.03 137.19 164.05 138.22 164.27 C 139.26 164.49 140.28 163.82 140.50 162.78 L 140.70 161.79 C 140.92 160.75 140.26 159.73 139.22 159.52 C 138.18 159.30 137.16 159.97 136.95 161.00 Z M 136.72 162.04 L 136.54 163.03 C 136.35 164.07 137.04 165.07 138.09 165.27 C 139.13 165.46 140.14 164.77 140.33 163.72 L 140.51 162.74 C 140.70 161.69 140.01 160.69 138.96 160.50 C 137.92 160.31 136.92 161.00 136.72 162.04 Z M 136.54 163.04 L 136.36 164.04 C 136.18 165.09 136.88 166.09 137.93 166.27 C 138.98 166.45 139.98 165.75 140.16 164.70 L 140.34 163.70 C 140.52 162.65 139.82 161.66 138.77 161.47 C 137.72 161.29 136.72 161.99 136.54 163.04 Z M 136.36 164.04 L 136.20 165.02 C 136.02 166.07 136.72 167.06 137.77 167.24 C 138.82 167.42 139.82 166.72 140.00 165.67 L 140.17 164.69 C 140.35 163.64 139.64 162.65 138.59 162.47 C 137.54 162.29 136.54 162.99 136.36 164.04 Z M 136.19 165.01 L 136.02 165.99 C 135.84 167.04 136.55 168.04 137.60 168.22 C 138.65 168.40 139.65 167.70 139.83 166.65 L 140.00 165.67 C 140.18 164.62 139.48 163.62 138.43 163.44 C 137.38 163.25 136.38 163.96 136.19 165.01 Z M 136.02 165.97 L 135.85 166.92 C 135.66 167.97 136.36 168.98 137.41 169.17 C 138.46 169.36 139.47 168.67 139.66 167.62 L 139.83 166.66 C 140.02 165.61 139.33 164.60 138.27 164.41 C 137.22 164.22 136.22 164.92 136.02 165.97 Z M 135.85 166.90 L 135.67 167.85 C 135.47 168.90 136.16 169.92 137.21 170.12 C 138.26 170.32 139.27 169.63 139.48 168.58 L 139.66 167.64 C 139.86 166.58 139.17 165.57 138.12 165.37 C 137.07 165.17 136.05 165.85 135.85 166.90 Z M 135.67 167.83 L 135.47 168.81 C 135.26 169.87 135.94 170.89 136.99 171.10 C 138.04 171.31 139.07 170.63 139.28 169.58 L 139.48 168.60 C 139.69 167.55 139.01 166.52 137.96 166.31 C 136.90 166.10 135.88 166.78 135.67 167.83 Z M 135.47 168.80 L 135.26 169.82 C 135.04 170.87 135.71 171.90 136.76 172.12 C 137.81 172.34 138.84 171.67 139.06 170.62 L 139.28 169.60 C 139.50 168.55 138.83 167.52 137.78 167.30 C 136.72 167.07 135.69 167.75 135.47 168.80 Z M 135.26 169.80 L 135.05 170.77 C 134.82 171.82 135.48 172.86 136.53 173.09 C 137.58 173.32 138.62 172.65 138.85 171.60 L 139.06 170.63 C 139.29 169.58 138.63 168.54 137.58 168.31 C 136.53 168.08 135.49 168.75 135.26 169.80 Z M 135.05 170.75 L 134.84 171.67 C 134.60 172.72 135.26 173.76 136.31 174.00 C 137.36 174.24 138.40 173.59 138.64 172.54 L 138.85 171.62 C 139.09 170.57 138.43 169.52 137.38 169.28 C 136.33 169.04 135.29 169.70 135.05 170.75 Z M 134.84 171.65 L 134.61 172.60 C 134.36 173.65 135.01 174.70 136.05 174.95 C 137.10 175.21 138.16 174.56 138.41 173.51 L 138.64 172.56 C 138.89 171.51 138.25 170.46 137.20 170.20 C 136.15 169.95 135.09 170.60 134.84 171.65 Z M 134.61 172.57 L 134.36 173.56 C 134.09 174.61 134.73 175.67 135.77 175.94 C 136.82 176.21 137.89 175.58 138.15 174.53 L 138.41 173.54 C 138.68 172.49 138.04 171.43 137.00 171.16 C 135.95 170.89 134.88 171.52 134.61 172.57 Z M 134.37 173.53 L 134.08 174.56 C 133.80 175.61 134.42 176.69 135.46 176.97 C 136.51 177.26 137.58 176.64 137.87 175.60 L 138.15 174.56 C 138.44 173.51 137.82 172.44 136.77 172.15 C 135.73 171.87 134.65 172.48 134.37 173.53 Z M 134.09 174.53 L 133.80 175.53 C 133.50 176.57 134.10 177.66 135.14 177.97 C 136.18 178.27 137.27 177.67 137.57 176.63 L 137.86 175.63 C 138.16 174.58 137.56 173.50 136.52 173.19 C 135.48 172.89 134.39 173.49 134.09 174.53 Z M 133.81 175.51 L 133.50 176.50 C 133.19 177.54 133.77 178.64 134.81 178.96 C 135.85 179.27 136.95 178.69 137.26 177.65 L 137.57 176.65 C 137.88 175.61 137.30 174.51 136.26 174.20 C 135.22 173.88 134.12 174.47 133.81 175.51 Z M 133.51 176.48 L 133.19 177.47 C 132.86 178.51 133.44 179.61 134.47 179.94 C 135.51 180.27 136.62 179.70 136.95 178.66 L 137.26 177.67 C 137.59 176.63 137.02 175.53 135.98 175.20 C 134.94 174.87 133.84 175.44 133.51 176.48 Z M 133.20 177.45 L 132.88 178.41 C 132.54 179.44 133.10 180.56 134.14 180.90 C 135.17 181.24 136.29 180.68 136.63 179.64 L 136.94 178.68 C 137.28 177.65 136.72 176.53 135.69 176.19 C 134.65 175.85 133.54 176.42 133.20 177.45 Z M 132.88 178.39 L 132.58 179.29 C 132.23 180.32 132.78 181.44 133.81 181.79 C 134.84 182.15 135.96 181.59 136.32 180.56 L 136.62 179.66 C 136.97 178.63 136.42 177.51 135.39 177.16 C 134.36 176.81 133.24 177.36 132.88 178.39 Z M 132.58 179.26 L 132.24 180.25 C 131.87 181.27 132.41 182.40 133.44 182.77 C 134.47 183.13 135.60 182.60 135.96 181.57 L 136.31 180.59 C 136.67 179.56 136.14 178.43 135.11 178.06 C 134.08 177.70 132.95 178.24 132.58 179.26 Z M 132.25 180.21 L 131.87 181.22 C 131.49 182.24 132.00 183.38 133.03 183.76 C 134.05 184.15 135.19 183.63 135.57 182.61 L 135.95 181.60 C 136.33 180.58 135.82 179.44 134.79 179.06 C 133.77 178.67 132.63 179.19 132.25 180.21 Z M 131.88 181.18 L 131.53 182.07 C 131.13 183.08 131.62 184.23 132.64 184.64 C 133.66 185.04 134.81 184.54 135.21 183.53 L 135.56 182.64 C 135.96 181.63 135.47 180.48 134.45 180.07 C 133.44 179.67 132.29 180.17 131.88 181.18 Z M 131.54 182.04 L 131.20 182.86 C 130.78 183.87 131.26 185.03 132.27 185.45 C 133.28 185.87 134.44 185.39 134.86 184.38 L 135.20 183.56 C 135.62 182.55 135.14 181.39 134.13 180.97 C 133.12 180.55 131.96 181.03 131.54 182.04 Z M 131.21 182.85 L 130.83 183.73 C 130.40 184.74 130.87 185.90 131.88 186.33 C 132.88 186.76 134.04 186.29 134.47 185.28 L 134.85 184.40 C 135.28 183.39 134.81 182.23 133.80 181.80 C 132.80 181.37 131.63 181.84 131.21 182.85 Z M 130.83 183.72 L 130.44 184.63 C 130.00 185.63 130.46 186.80 131.46 187.24 C 132.46 187.67 133.63 187.22 134.07 186.21 L 134.47 185.30 C 134.90 184.30 134.45 183.13 133.44 182.69 C 132.44 182.26 131.27 182.71 130.83 183.72 Z M 130.45 184.61 L 130.03 185.53 C 129.58 186.53 130.03 187.70 131.02 188.15 C 132.02 188.60 133.20 188.16 133.64 187.16 L 134.06 186.23 C 134.51 185.24 134.07 184.06 133.07 183.61 C 132.07 183.16 130.90 183.61 130.45 184.61 Z M 130.04 185.50 L 129.62 186.41 C 129.15 187.40 129.58 188.58 130.57 189.04 C 131.57 189.51 132.75 189.08 133.21 188.09 L 133.63 187.18 C 134.10 186.19 133.67 185.01 132.68 184.55 C 131.69 184.08 130.51 184.51 130.04 185.50 Z M 129.63 186.38 L 129.20 187.27 C 128.72 188.25 129.14 189.44 130.12 189.92 C 131.11 190.39 132.30 189.98 132.77 189.00 L 133.20 188.11 C 133.68 187.12 133.27 185.94 132.28 185.46 C 131.29 184.98 130.11 185.40 129.63 186.38 Z M 129.21 187.25 L 128.76 188.15 C 128.28 189.14 128.68 190.33 129.66 190.81 C 130.65 191.30 131.84 190.89 132.32 189.91 L 132.77 189.01 C 133.25 188.03 132.85 186.84 131.87 186.35 C 130.88 185.87 129.69 186.27 129.21 187.25 Z M 128.77 188.15 L 128.31 189.06 C 127.82 190.04 128.22 191.24 129.20 191.73 C 130.18 192.22 131.37 191.82 131.86 190.84 L 132.32 189.92 C 132.81 188.94 132.41 187.75 131.43 187.26 C 130.45 186.77 129.26 187.16 128.77 188.15 Z M 128.31 189.06 L 127.88 189.92 C 127.39 190.90 127.78 192.10 128.76 192.59 C 129.75 193.08 130.94 192.68 131.43 191.70 L 131.86 190.84 C 132.35 189.86 131.95 188.66 130.97 188.17 C 129.99 187.68 128.80 188.08 128.31 189.06 Z M 127.88 189.92 L 127.44 190.80 C 126.95 191.78 127.34 192.98 128.32 193.47 C 129.31 193.96 130.50 193.56 130.99 192.58 L 131.43 191.70 C 131.92 190.72 131.52 189.53 130.54 189.03 C 129.56 188.54 128.37 188.94 127.88 189.92 Z M 127.44 190.80 L 126.98 191.71 C 126.49 192.69 126.89 193.88 127.87 194.37 C 128.85 194.86 130.05 194.47 130.54 193.49 L 130.99 192.58 C 131.48 191.60 131.08 190.40 130.10 189.91 C 129.12 189.42 127.93 189.82 127.44 190.80 Z M 126.98 191.71 L 126.52 192.64 C 126.03 193.62 126.42 194.81 127.41 195.31 C 128.39 195.80 129.58 195.40 130.07 194.42 L 130.54 193.49 C 131.03 192.50 130.63 191.31 129.65 190.82 C 128.67 190.33 127.47 190.73 126.98 191.71 Z M 126.52 192.64 L 126.08 193.52 C 125.58 194.50 125.98 195.70 126.96 196.19 C 127.95 196.68 129.14 196.28 129.63 195.30 L 130.07 194.42 C 130.56 193.44 130.17 192.24 129.18 191.75 C 128.20 191.26 127.01 191.66 126.52 192.64 Z M 126.08 193.52 L 125.63 194.42 C 125.13 195.40 125.53 196.59 126.51 197.09 C 127.49 197.58 128.69 197.18 129.18 196.20 L 129.63 195.30 C 130.12 194.32 129.73 193.12 128.74 192.63 C 127.76 192.14 126.57 192.54 126.08 193.52 Z M 125.63 194.41 L 125.17 195.32 C 124.68 196.30 125.07 197.49 126.06 197.99 C 127.04 198.48 128.23 198.08 128.73 197.10 L 129.18 196.20 C 129.67 195.22 129.28 194.02 128.30 193.53 C 127.32 193.04 126.12 193.43 125.63 194.41 Z M 125.17 195.31 L 124.72 196.21 C 124.23 197.19 124.62 198.38 125.60 198.88 C 126.58 199.38 127.78 198.98 128.27 198.00 L 128.72 197.11 C 129.22 196.13 128.83 194.93 127.85 194.43 C 126.87 193.94 125.67 194.33 125.17 195.31 Z M 124.72 196.20 L 124.27 197.10 C 123.77 198.08 124.16 199.28 125.13 199.78 C 126.11 200.28 127.31 199.89 127.81 198.91 L 128.27 198.01 C 128.77 197.03 128.38 195.83 127.40 195.33 C 126.42 194.83 125.22 195.22 124.72 196.20 Z M 124.27 197.09 L 123.81 197.98 C 123.31 198.96 123.70 200.16 124.67 200.66 C 125.65 201.16 126.85 200.78 127.35 199.80 L 127.81 198.91 C 128.31 197.94 127.93 196.74 126.95 196.23 C 125.97 195.73 124.77 196.12 124.27 197.09 Z M 123.81 197.98 L 123.36 198.86 C 122.85 199.84 123.24 201.04 124.21 201.54 C 125.19 202.05 126.39 201.66 126.90 200.69 L 127.35 199.81 C 127.86 198.83 127.47 197.63 126.50 197.12 C 125.52 196.62 124.32 197.00 123.81 197.98 Z M 123.36 198.86 L 122.90 199.74 C 122.40 200.72 122.78 201.92 123.75 202.43 C 124.73 202.93 125.93 202.55 126.44 201.57 L 126.89 200.69 C 127.40 199.71 127.02 198.51 126.04 198.01 C 125.07 197.50 123.86 197.88 123.36 198.86 Z M 122.90 199.74 L 122.45 200.62 C 121.94 201.60 122.32 202.80 123.30 203.31 C 124.28 203.81 125.48 203.43 125.98 202.45 L 126.44 201.57 C 126.94 200.60 126.56 199.40 125.58 198.89 C 124.61 198.39 123.41 198.77 122.90 199.74 Z M 122.44 200.62 L 121.99 201.51 C 121.49 202.48 121.87 203.68 122.85 204.19 C 123.83 204.69 125.03 204.31 125.53 203.33 L 125.98 202.45 C 126.49 201.47 126.10 200.27 125.13 199.77 C 124.15 199.26 122.95 199.65 122.44 200.62 Z M 121.99 201.51 L 121.53 202.40 C 121.03 203.38 121.42 204.58 122.40 205.08 C 123.38 205.58 124.58 205.20 125.08 204.22 L 125.53 203.32 C 126.03 202.34 125.65 201.14 124.67 200.64 C 123.69 200.14 122.49 200.53 121.99 201.51 Z M 121.53 202.42 L 121.07 203.32 C 120.58 204.30 120.97 205.50 121.96 205.99 C 122.94 206.49 124.14 206.09 124.63 205.11 L 125.08 204.21 C 125.58 203.22 125.18 202.03 124.20 201.53 C 123.22 201.04 122.02 201.43 121.53 202.42 Z M 121.06 203.33 L 120.62 204.24 C 120.13 205.22 120.54 206.42 121.52 206.90 C 122.51 207.39 123.71 206.98 124.19 206.00 L 124.64 205.09 C 125.12 204.11 124.72 202.91 123.73 202.43 C 122.74 201.94 121.55 202.35 121.06 203.33 Z M 120.61 204.25 L 120.18 205.15 C 119.70 206.14 120.12 207.33 121.11 207.81 C 122.10 208.29 123.29 207.87 123.77 206.88 L 124.20 205.98 C 124.68 204.99 124.26 203.80 123.27 203.32 C 122.28 202.84 121.09 203.26 120.61 204.25 Z M 120.17 205.17 L 119.75 206.07 C 119.28 207.06 119.70 208.25 120.70 208.72 C 121.70 209.19 122.88 208.76 123.35 207.76 L 123.78 206.86 C 124.24 205.87 123.82 204.68 122.82 204.21 C 121.83 203.74 120.64 204.17 120.17 205.17 Z M 119.74 206.09 L 119.32 207.00 C 118.86 208.00 119.30 209.18 120.30 209.64 C 121.30 210.10 122.48 209.66 122.94 208.66 L 123.36 207.75 C 123.82 206.75 123.38 205.57 122.38 205.11 C 121.38 204.65 120.20 205.09 119.74 206.09 Z M 119.31 207.01 L 118.90 207.93 C 118.45 208.93 118.90 210.11 119.90 210.56 C 120.91 211.01 122.09 210.56 122.54 209.56 L 122.95 208.64 C 123.40 207.64 122.95 206.46 121.94 206.01 C 120.94 205.56 119.76 206.01 119.31 207.01 Z M 118.89 207.95 L 118.49 208.87 C 118.05 209.88 118.51 211.05 119.52 211.49 C 120.52 211.94 121.70 211.48 122.14 210.47 L 122.54 209.54 C 122.99 208.54 122.53 207.36 121.52 206.92 C 120.51 206.48 119.33 206.94 118.89 207.95 Z M 118.48 208.88 L 118.09 209.81 C 117.65 210.82 118.12 211.99 119.13 212.42 C 120.14 212.86 121.32 212.39 121.75 211.38 L 122.15 210.45 C 122.58 209.44 122.11 208.27 121.10 207.84 C 120.09 207.40 118.92 207.87 118.48 208.88 Z M 118.08 209.82 L 117.69 210.74 C 117.26 211.75 117.74 212.92 118.75 213.35 C 119.77 213.78 120.93 213.31 121.36 212.29 L 121.75 211.37 C 122.18 210.36 121.71 209.19 120.69 208.76 C 119.68 208.33 118.51 208.80 118.08 209.82 Z M 117.69 210.75 L 117.31 211.66 C 116.88 212.68 117.36 213.84 118.37 214.27 C 119.39 214.69 120.56 214.22 120.98 213.20 L 121.37 212.29 C 121.79 211.27 121.31 210.10 120.30 209.68 C 119.28 209.25 118.11 209.73 117.69 210.75 Z M 117.30 211.66 L 116.92 212.58 C 116.50 213.60 116.98 214.77 118.00 215.19 C 119.01 215.61 120.18 215.13 120.60 214.12 L 120.98 213.20 C 121.41 212.18 120.93 211.01 119.91 210.59 C 118.89 210.17 117.73 210.65 117.30 211.66 Z M 116.92 212.58 L 116.54 213.50 C 116.12 214.52 116.60 215.69 117.62 216.11 C 118.63 216.53 119.80 216.05 120.22 215.03 L 120.60 214.11 C 121.03 213.10 120.54 211.93 119.53 211.51 C 118.51 211.08 117.34 211.57 116.92 212.58 Z M 116.54 213.51 L 116.16 214.42 C 115.74 215.44 116.22 216.61 117.24 217.03 C 118.26 217.45 119.42 216.96 119.84 215.95 L 120.22 215.03 C 120.64 214.01 120.16 212.85 119.14 212.42 C 118.13 212.00 116.96 212.49 116.54 213.51 Z M 116.16 214.43 L 115.78 215.35 C 115.36 216.37 115.84 217.54 116.86 217.95 C 117.88 218.37 119.04 217.89 119.46 216.87 L 119.84 215.94 C 120.26 214.93 119.78 213.76 118.76 213.34 C 117.74 212.92 116.58 213.41 116.16 214.43 Z M 115.77 215.35 L 115.39 216.29 C 114.97 217.31 115.46 218.48 116.48 218.90 C 117.50 219.31 118.66 218.83 119.08 217.81 L 119.46 216.87 C 119.88 215.85 119.40 214.68 118.38 214.27 C 117.36 213.85 116.19 214.33 115.77 215.35 Z M 115.39 216.30 L 115.00 217.25 C 114.58 218.27 115.07 219.43 116.09 219.85 C 117.11 220.26 118.28 219.77 118.69 218.75 L 119.08 217.80 C 119.50 216.78 119.01 215.62 117.99 215.20 C 116.97 214.79 115.80 215.28 115.39 216.30 Z M 115.00 217.26 L 114.62 218.20 C 114.20 219.23 114.70 220.39 115.72 220.80 C 116.74 221.21 117.91 220.71 118.32 219.69 L 118.70 218.74 C 119.11 217.72 118.61 216.56 117.59 216.15 C 116.57 215.74 115.41 216.23 115.00 217.26 Z M 114.61 218.22 L 114.25 219.14 C 113.84 220.17 114.35 221.33 115.37 221.73 C 116.40 222.13 117.55 221.63 117.96 220.60 L 118.32 219.68 C 118.73 218.65 118.22 217.50 117.20 217.09 C 116.17 216.69 115.01 217.19 114.61 218.22 Z M 114.24 219.16 L 113.90 220.05 C 113.51 221.08 114.02 222.23 115.05 222.63 C 116.08 223.02 117.23 222.50 117.63 221.47 L 117.97 220.59 C 118.36 219.56 117.84 218.40 116.81 218.01 C 115.78 217.62 114.63 218.13 114.24 219.16 Z M 113.89 220.08 L 113.56 220.98 C 113.18 222.02 113.71 223.16 114.75 223.54 C 115.78 223.92 116.93 223.39 117.31 222.35 L 117.64 221.45 C 118.01 220.41 117.48 219.27 116.45 218.89 C 115.41 218.51 114.27 219.04 113.89 220.08 Z M 113.55 221.01 L 113.24 221.91 C 112.88 222.95 113.43 224.09 114.47 224.45 C 115.51 224.81 116.65 224.26 117.01 223.22 L 117.32 222.32 C 117.68 221.28 117.13 220.14 116.08 219.78 C 115.04 219.42 113.91 219.97 113.55 221.01 Z M 113.23 221.94 L 112.92 222.89 C 112.57 223.93 113.14 225.06 114.19 225.40 C 115.23 225.75 116.36 225.18 116.71 224.13 L 117.02 223.19 C 117.36 222.14 116.79 221.01 115.75 220.67 C 114.70 220.32 113.57 220.89 113.23 221.94 Z M 112.91 222.91 L 112.58 223.94 C 112.25 224.99 112.83 226.11 113.88 226.45 C 114.93 226.78 116.05 226.20 116.38 225.15 L 116.71 224.11 C 117.05 223.06 116.46 221.94 115.41 221.61 C 114.36 221.27 113.24 221.86 112.91 222.91 Z M 112.58 223.95 L 112.30 224.83 C 111.98 225.88 112.57 227.00 113.62 227.33 C 114.67 227.65 115.79 227.06 116.12 226.01 L 116.39 225.14 C 116.71 224.08 116.13 222.97 115.07 222.64 C 114.02 222.31 112.90 222.90 112.58 223.95 Z M 112.30 224.84 L 112.02 225.78 C 111.69 226.83 112.29 227.95 113.34 228.27 C 114.40 228.59 115.51 228.00 115.83 226.94 L 116.12 226.00 C 116.44 224.95 115.84 223.83 114.79 223.51 C 113.74 223.19 112.62 223.79 112.30 224.84 Z M 112.01 225.79 L 111.72 226.78 C 111.41 227.83 112.01 228.94 113.07 229.26 C 114.12 229.57 115.23 228.97 115.55 227.91 L 115.84 226.93 C 116.15 225.87 115.55 224.76 114.49 224.45 C 113.43 224.13 112.32 224.74 112.01 225.79 Z M 111.72 226.79 L 111.43 227.79 C 111.12 228.85 111.74 229.96 112.79 230.26 C 113.85 230.57 114.96 229.95 115.26 228.90 L 115.55 227.89 C 115.86 226.84 115.24 225.73 114.18 225.43 C 113.13 225.12 112.02 225.73 111.72 226.79 Z M 111.42 227.81 L 111.15 228.81 C 110.85 229.87 111.48 230.97 112.54 231.27 C 113.60 231.56 114.70 230.94 114.99 229.87 L 115.27 228.88 C 115.56 227.81 114.94 226.71 113.88 226.42 C 112.81 226.13 111.72 226.75 111.42 227.81 Z M 111.14 228.84 L 110.87 229.86 C 110.59 230.92 111.23 232.01 112.30 232.29 C 113.36 232.57 114.45 231.93 114.73 230.87 L 115.00 229.85 C 115.28 228.78 114.64 227.69 113.58 227.41 C 112.51 227.13 111.42 227.77 111.14 228.84 Z M 110.87 229.88 L 110.62 230.89 C 110.36 231.96 111.01 233.04 112.08 233.30 C 113.15 233.57 114.23 232.91 114.49 231.84 L 114.74 230.84 C 115.00 229.77 114.35 228.69 113.28 228.42 C 112.21 228.16 111.13 228.82 110.87 229.88 Z M 110.61 230.92 L 110.39 231.90 C 110.14 232.97 110.81 234.04 111.88 234.29 C 112.96 234.53 114.03 233.86 114.27 232.79 L 114.50 231.81 C 114.75 230.74 114.08 229.67 113.00 229.42 C 111.93 229.18 110.86 229.85 110.61 230.92 Z M 110.38 231.93 L 110.18 232.88 C 109.95 233.96 110.63 235.02 111.71 235.25 C 112.79 235.48 113.85 234.79 114.08 233.71 L 114.28 232.76 C 114.51 231.68 113.82 230.62 112.75 230.39 C 111.67 230.16 110.61 230.85 110.38 231.93 Z M 110.17 232.91 L 109.99 233.85 C 109.77 234.93 110.48 235.97 111.56 236.19 C 112.64 236.40 113.68 235.70 113.90 234.62 L 114.08 233.68 C 114.30 232.60 113.59 231.56 112.51 231.34 C 111.43 231.13 110.39 231.83 110.17 232.91 Z M 109.98 233.88 L 109.80 234.89 C 109.60 235.97 110.32 237.01 111.40 237.21 C 112.48 237.40 113.52 236.69 113.72 235.60 L 113.90 234.59 C 114.10 233.51 113.38 232.47 112.30 232.27 C 111.22 232.08 110.18 232.80 109.98 233.88 Z M 109.80 234.92 L 109.63 235.95 C 109.45 237.03 110.18 238.06 111.26 238.24 C 112.35 238.42 113.37 237.69 113.55 236.60 L 113.72 235.57 C 113.90 234.49 113.17 233.47 112.08 233.29 C 111.00 233.11 109.98 233.84 109.80 234.92 Z M 109.62 235.98 L 109.47 236.98 C 109.31 238.06 110.06 239.07 111.14 239.24 C 112.23 239.40 113.24 238.65 113.40 237.57 L 113.55 236.57 C 113.71 235.49 112.97 234.48 111.88 234.31 C 110.80 234.15 109.79 234.90 109.62 235.98 Z M 109.47 237.00 L 109.34 237.96 C 109.19 239.04 109.96 240.04 111.04 240.19 C 112.13 240.34 113.13 239.58 113.27 238.49 L 113.40 237.54 C 113.55 236.45 112.79 235.45 111.70 235.31 C 110.62 235.16 109.62 235.92 109.47 237.00 Z M 109.34 237.99 L 109.23 238.94 C 109.10 240.03 109.87 241.01 110.96 241.14 C 112.04 241.28 113.03 240.50 113.16 239.42 L 113.27 238.46 C 113.41 237.38 112.63 236.39 111.55 236.26 C 110.46 236.13 109.47 236.90 109.34 237.99 Z M 109.23 238.97 L 109.12 239.98 C 109.01 241.06 109.80 242.04 110.88 242.15 C 111.97 242.26 112.94 241.47 113.05 240.39 L 113.16 239.38 C 113.27 238.30 112.48 237.33 111.40 237.21 C 110.31 237.10 109.34 237.89 109.23 238.97 Z M 109.13 240.01 L 109.04 240.98 C 108.94 242.07 109.75 243.02 110.83 243.12 C 111.91 243.22 112.87 242.41 112.96 241.33 L 113.05 240.36 C 113.15 239.27 112.34 238.32 111.26 238.22 C 110.18 238.13 109.22 238.93 109.13 240.01 Z M 109.04 241.01 L 108.97 241.99 C 108.89 243.07 109.70 244.02 110.78 244.10 C 111.86 244.18 112.80 243.37 112.89 242.29 L 112.96 241.31 C 113.04 240.23 112.23 239.28 111.15 239.20 C 110.07 239.12 109.13 239.93 109.04 241.01 Z M 108.97 242.00 L 108.91 242.94 C 108.83 244.02 109.65 244.95 110.72 245.03 C 111.80 245.11 112.74 244.29 112.81 243.21 L 112.88 242.28 C 112.96 241.20 112.14 240.27 111.06 240.19 C 109.99 240.11 109.05 240.93 108.97 242.00 Z M 108.92 242.93 L 108.85 243.87 C 108.77 244.94 109.57 245.88 110.65 245.96 C 111.72 246.04 112.66 245.23 112.74 244.16 L 112.81 243.22 C 112.89 242.15 112.08 241.21 111.01 241.13 C 109.93 241.05 109.00 241.86 108.92 242.93 Z M 108.86 243.84 L 108.77 244.83 C 108.67 245.90 109.46 246.85 110.53 246.94 C 111.60 247.04 112.54 246.25 112.64 245.18 L 112.73 244.19 C 112.82 243.12 112.03 242.18 110.96 242.08 C 109.90 241.98 108.95 242.77 108.86 243.84 Z M 108.78 244.79 L 108.66 245.84 C 108.54 246.90 109.30 247.86 110.36 247.98 C 111.42 248.10 112.38 247.34 112.50 246.28 L 112.62 245.23 C 112.74 244.17 111.98 243.21 110.92 243.09 C 109.86 242.97 108.90 243.73 108.78 244.79 Z M 108.68 245.78 L 108.53 246.82 C 108.38 247.87 109.10 248.85 110.16 249.00 C 111.21 249.15 112.18 248.42 112.34 247.37 L 112.49 246.33 C 112.64 245.28 111.91 244.31 110.86 244.15 C 109.81 244.00 108.83 244.73 108.68 245.78 Z M 108.55 246.77 L 108.39 247.71 C 108.21 248.75 108.90 249.74 109.95 249.92 C 110.99 250.10 111.98 249.40 112.15 248.36 L 112.32 247.42 C 112.50 246.38 111.80 245.39 110.76 245.21 C 109.72 245.03 108.73 245.73 108.55 246.77 Z M 108.41 247.68 L 108.22 248.65 C 108.02 249.67 108.70 250.67 109.73 250.87 C 110.76 251.06 111.75 250.39 111.95 249.36 L 112.13 248.39 C 112.33 247.36 111.66 246.37 110.63 246.17 C 109.60 245.97 108.60 246.65 108.41 247.68 Z M 108.24 248.62 L 108.04 249.62 C 107.83 250.64 108.48 251.63 109.50 251.84 C 110.52 252.05 111.51 251.40 111.72 250.38 L 111.93 249.38 C 112.14 248.36 111.48 247.37 110.46 247.16 C 109.45 246.95 108.45 247.60 108.24 248.62 Z M 108.05 249.60 L 107.84 250.61 C 107.62 251.62 108.26 252.62 109.27 252.83 C 110.28 253.05 111.27 252.41 111.49 251.40 L 111.71 250.39 C 111.92 249.38 111.28 248.39 110.27 248.17 C 109.26 247.95 108.27 248.60 108.05 249.60 Z M 107.85 250.61 L 107.64 251.60 C 107.42 252.60 108.05 253.59 109.05 253.81 C 110.05 254.02 111.04 253.39 111.26 252.39 L 111.47 251.40 C 111.69 250.40 111.06 249.41 110.06 249.19 C 109.06 248.98 108.07 249.61 107.85 250.61 Z"
      fill="black"
      fill-rule="nonzero" /></svg>