<svg xmlns="http://www.w3.org/2000/svg" width="300" height="300" viewBox="0 0 300 300">
<path d="M 150.60 125.82 L 149.63 124.91 C 148.94 124.27 147.86 124.30 147.22 124.99 C 146.58 125.68 146.61 126.76 147.30 127.40 L 148.28 128.31 C 148.96 128.95 150.04 128.91 150.68 128.23 C 151.33 127.54 151.29 126.46 150.60 125.82 Z M 149.57 124.86 L 148.68 124.09 C 147.96 123.48 146.89 123.56 146.27 124.27 C 145.66 124.99 145.74 126.06 146.46 126.68 L 147.35 127.45 C 148.07 128.06 149.14 127.98 149.76 127.26 C 150.37 126.55 150.29 125.47 149.57 124.86 Z M 148.51 123.96 L 147.77 123.47 C 146.98 122.95 145.92 123.16 145.40 123.95 C 144.88 124.73 145.10 125.79 145.88 126.31 L 146.62 126.80 C 147.41 127.32 148.47 127.11 148.99 126.33 C 149.51 125.54 149.29 124.48 148.51 123.96 Z M 147.06 123.20 L 146.56 123.13 C 145.63 123.00 144.76 123.65 144.63 124.58 C 144.50 125.51 145.15 126.38 146.08 126.51 L 146.59 126.58 C 147.52 126.71 148.38 126.06 148.52 125.13 C 148.65 124.20 148.00 123.33 147.06 123.20 Z M 144.79 124.07 L 144.57 124.52 C 144.16 125.36 144.51 126.38 145.35 126.80 C 146.20 127.21 147.22 126.86 147.63 126.02 L 147.85 125.57 C 148.27 124.72 147.92 123.70 147.07 123.29 C 146.22 122.88 145.20 123.23 144.79 124.07 Z M 144.40 125.28 L 144.41 126.16 C 144.42 127.10 145.18 127.85 146.12 127.84 C 147.06 127.84 147.81 127.07 147.81 126.13 L 147.80 125.25 C 147.79 124.32 147.03 123.56 146.09 123.57 C 145.15 123.58 144.40 124.34 144.40 125.28 Z M 144.43 126.35 L 144.57 127.52 C 144.68 128.44 145.52 129.11 146.45 129.00 C 147.38 128.89 148.04 128.04 147.93 127.12 L 147.79 125.95 C 147.68 125.02 146.84 124.35 145.91 124.46 C 144.98 124.57 144.32 125.42 144.43 126.35 Z M 144.57 127.54 L 144.75 128.86 C 144.88 129.79 145.73 130.44 146.65 130.31 C 147.57 130.19 148.22 129.34 148.10 128.41 L 147.92 127.09 C 147.80 126.17 146.95 125.52 146.02 125.64 C 145.10 125.77 144.45 126.62 144.57 127.54 Z M 144.75 128.82 L 144.85 129.78 C 144.95 130.70 145.78 131.37 146.71 131.27 C 147.64 131.17 148.31 130.34 148.21 129.42 L 148.10 128.46 C 148.00 127.53 147.17 126.86 146.24 126.96 C 145.32 127.06 144.65 127.89 144.75 128.82 Z M 144.85 129.73 L 144.93 130.70 C 145.00 131.63 145.82 132.32 146.74 132.25 C 147.67 132.17 148.36 131.36 148.29 130.43 L 148.21 129.46 C 148.13 128.53 147.32 127.84 146.39 127.92 C 145.46 127.99 144.77 128.80 144.85 129.73 Z M 144.92 130.66 L 144.98 131.65 C 145.03 132.58 145.83 133.29 146.76 133.23 C 147.69 133.18 148.40 132.39 148.35 131.46 L 148.29 130.47 C 148.24 129.54 147.44 128.83 146.51 128.88 C 145.58 128.93 144.87 129.73 144.92 130.66 Z M 144.98 131.61 L 145.01 132.62 C 145.05 133.55 145.83 134.28 146.76 134.24 C 147.69 134.21 148.42 133.43 148.39 132.50 L 148.35 131.49 C 148.32 130.56 147.53 129.83 146.60 129.86 C 145.67 129.90 144.94 130.68 144.98 131.61 Z M 145.01 132.59 L 145.03 133.62 C 145.05 134.55 145.81 135.29 146.75 135.28 C 147.68 135.26 148.42 134.49 148.40 133.56 L 148.39 132.53 C 148.37 131.60 147.60 130.85 146.67 130.87 C 145.74 130.89 145.00 131.65 145.01 132.59 Z M 145.03 133.59 L 145.03 134.63 C 145.03 135.56 145.79 136.32 146.72 136.32 C 147.66 136.31 148.41 135.56 148.41 134.62 L 148.41 133.59 C 148.40 132.65 147.65 131.90 146.71 131.90 C 145.78 131.90 145.03 132.66 145.03 133.59 Z M 145.03 134.60 L 145.02 135.61 C 145.00 136.54 145.75 137.31 146.68 137.33 C 147.61 137.34 148.38 136.59 148.40 135.66 L 148.41 134.65 C 148.42 133.72 147.68 132.95 146.74 132.94 C 145.81 132.92 145.04 133.67 145.03 134.60 Z M 145.01 135.57 L 144.97 136.59 C 144.94 137.52 145.66 138.31 146.60 138.34 C 147.53 138.38 148.32 137.66 148.35 136.72 L 148.40 135.70 C 148.43 134.77 147.71 133.98 146.77 133.94 C 145.84 133.91 145.05 134.63 145.01 135.57 Z M 144.98 136.52 L 144.90 137.54 C 144.82 138.47 145.52 139.28 146.45 139.36 C 147.39 139.43 148.20 138.73 148.27 137.80 L 148.35 136.79 C 148.43 135.85 147.73 135.04 146.80 134.96 C 145.86 134.89 145.05 135.59 144.98 136.52 Z M 144.90 137.45 L 144.77 138.45 C 144.65 139.37 145.31 140.23 146.24 140.35 C 147.17 140.47 148.02 139.81 148.14 138.88 L 148.27 137.89 C 148.39 136.96 147.73 136.11 146.80 135.99 C 145.87 135.87 145.02 136.52 144.90 137.45 Z M 144.79 138.33 L 144.60 139.30 C 144.42 140.22 145.01 141.11 145.93 141.29 C 146.85 141.48 147.75 140.88 147.93 139.96 L 148.12 138.99 C 148.30 138.07 147.71 137.18 146.79 137.00 C 145.87 136.82 144.97 137.41 144.79 138.33 Z M 144.63 139.15 L 144.34 140.15 C 144.07 141.05 144.59 142.00 145.49 142.26 C 146.39 142.53 147.34 142.01 147.60 141.11 L 147.90 140.11 C 148.16 139.20 147.64 138.26 146.74 137.99 C 145.84 137.73 144.90 138.25 144.63 139.15 Z M 144.41 139.94 L 143.87 141.16 C 143.49 142.02 143.88 143.03 144.75 143.41 C 145.61 143.79 146.61 143.40 146.99 142.54 L 147.53 141.32 C 147.91 140.46 147.52 139.45 146.66 139.07 C 145.79 138.69 144.79 139.08 144.41 139.94 Z M 144.01 140.89 L 143.40 141.80 C 142.87 142.59 143.08 143.65 143.86 144.18 C 144.65 144.71 145.71 144.50 146.24 143.72 L 146.85 142.81 C 147.38 142.02 147.18 140.96 146.39 140.43 C 145.61 139.90 144.54 140.11 144.01 140.89 Z M 143.78 141.39 L 143.18 141.84 C 142.42 142.42 142.27 143.50 142.85 144.26 C 143.43 145.01 144.51 145.16 145.26 144.59 L 145.86 144.13 C 146.62 143.56 146.77 142.48 146.19 141.72 C 145.62 140.96 144.54 140.81 143.78 141.39 Z M 144.68 141.55 L 144.20 141.42 C 143.28 141.16 142.33 141.70 142.07 142.62 C 141.82 143.54 142.36 144.49 143.28 144.75 L 143.76 144.88 C 144.68 145.14 145.63 144.59 145.89 143.67 C 146.14 142.75 145.60 141.80 144.68 141.55 Z M 145.30 142.33 L 145.04 141.78 C 144.62 140.92 143.59 140.56 142.72 140.98 C 141.86 141.39 141.50 142.43 141.92 143.29 L 142.18 143.84 C 142.60 144.70 143.63 145.06 144.50 144.64 C 145.36 144.23 145.72 143.19 145.30 142.33 Z M 145.19 142.21 L 145.02 141.35 C 144.84 140.41 143.92 139.79 142.98 139.98 C 142.04 140.16 141.42 141.07 141.60 142.02 L 141.77 142.87 C 141.95 143.81 142.87 144.43 143.81 144.25 C 144.75 144.06 145.37 143.15 145.19 142.21 Z M 145.05 141.56 L 144.97 140.49 C 144.90 139.53 144.07 138.80 143.11 138.87 C 142.15 138.94 141.42 139.78 141.49 140.74 L 141.57 141.81 C 141.64 142.77 142.48 143.49 143.44 143.42 C 144.40 143.35 145.12 142.52 145.05 141.56 Z M 144.98 140.62 L 144.98 139.42 C 144.98 138.46 144.20 137.67 143.24 137.67 C 142.27 137.67 141.49 138.45 141.49 139.42 L 141.49 140.61 C 141.48 141.58 142.27 142.36 143.23 142.36 C 144.20 142.36 144.98 141.58 144.98 140.62 Z M 144.98 139.52 L 145.06 138.30 C 145.12 137.33 144.38 136.50 143.41 136.45 C 142.45 136.39 141.62 137.13 141.56 138.09 L 141.49 139.32 C 141.43 140.28 142.16 141.11 143.13 141.17 C 144.10 141.23 144.93 140.49 144.98 139.52 Z M 145.05 138.40 L 145.18 137.28 C 145.29 136.32 144.60 135.45 143.64 135.34 C 142.67 135.22 141.80 135.92 141.69 136.88 L 141.56 137.99 C 141.45 138.96 142.14 139.83 143.11 139.94 C 144.07 140.05 144.94 139.36 145.05 138.40 Z M 145.17 137.38 L 145.35 136.36 C 145.51 135.40 144.88 134.49 143.92 134.32 C 142.96 134.16 142.05 134.79 141.89 135.75 L 141.71 136.78 C 141.54 137.73 142.18 138.64 143.13 138.81 C 144.09 138.98 145.00 138.34 145.17 137.38 Z M 145.33 136.46 L 145.56 135.49 C 145.78 134.55 145.20 133.60 144.26 133.37 C 143.31 133.15 142.36 133.73 142.14 134.68 L 141.91 135.65 C 141.68 136.59 142.27 137.54 143.21 137.76 C 144.15 137.99 145.10 137.41 145.33 136.46 Z M 145.53 135.59 L 145.81 134.67 C 146.09 133.74 145.57 132.76 144.64 132.47 C 143.71 132.19 142.73 132.72 142.45 133.65 L 142.17 134.57 C 141.88 135.50 142.41 136.48 143.34 136.77 C 144.27 137.05 145.25 136.52 145.53 135.59 Z M 145.78 134.76 L 146.11 133.86 C 146.45 132.95 145.98 131.94 145.07 131.61 C 144.16 131.27 143.15 131.74 142.81 132.65 L 142.48 133.55 C 142.15 134.46 142.61 135.47 143.52 135.81 C 144.43 136.14 145.44 135.67 145.78 134.76 Z M 146.08 133.95 L 146.46 133.06 C 146.84 132.17 146.42 131.14 145.53 130.75 C 144.64 130.37 143.61 130.79 143.22 131.68 L 142.84 132.56 C 142.46 133.46 142.88 134.49 143.77 134.87 C 144.66 135.25 145.69 134.84 146.08 133.95 Z M 146.42 133.13 L 146.85 132.24 C 147.27 131.37 146.91 130.32 146.03 129.90 C 145.16 129.48 144.11 129.84 143.69 130.72 L 143.26 131.61 C 142.84 132.48 143.20 133.53 144.08 133.95 C 144.95 134.37 146.00 134.01 146.42 133.13 Z M 146.81 132.32 L 147.29 131.43 C 147.75 130.58 147.43 129.52 146.58 129.06 C 145.73 128.59 144.66 128.91 144.20 129.76 L 143.73 130.64 C 143.26 131.50 143.58 132.56 144.43 133.02 C 145.29 133.49 146.35 133.17 146.81 132.32 Z M 147.25 131.51 L 147.77 130.65 C 148.27 129.82 148.00 128.74 147.18 128.24 C 146.35 127.74 145.27 128.00 144.77 128.83 L 144.25 129.69 C 143.74 130.52 144.01 131.60 144.84 132.10 C 145.67 132.60 146.74 132.34 147.25 131.51 Z M 147.72 130.72 L 148.28 129.89 C 148.83 129.09 148.62 128.00 147.82 127.46 C 147.02 126.91 145.93 127.12 145.38 127.92 L 144.82 128.75 C 144.27 129.55 144.48 130.64 145.28 131.19 C 146.08 131.73 147.17 131.52 147.72 130.72 Z M 148.22 129.97 L 148.83 129.18 C 149.42 128.41 149.27 127.31 148.51 126.72 C 147.74 126.13 146.64 126.28 146.05 127.05 L 145.44 127.84 C 144.86 128.61 145.00 129.71 145.77 130.29 C 146.54 130.88 147.63 130.74 148.22 129.97 Z M 148.76 129.26 L 149.46 128.46 C 150.09 127.74 150.02 126.63 149.29 126.00 C 148.57 125.36 147.46 125.43 146.82 126.16 L 146.13 126.96 C 145.49 127.69 145.56 128.79 146.29 129.43 C 147.02 130.06 148.12 129.99 148.76 129.26 Z M 149.35 128.57 L 150.21 127.75 C 150.91 127.08 150.93 125.97 150.26 125.27 C 149.59 124.58 148.48 124.55 147.79 125.22 L 146.93 126.05 C 146.23 126.72 146.21 127.83 146.88 128.52 C 147.55 129.22 148.66 129.24 149.35 128.57 Z M 150.04 127.90 L 150.91 127.26 C 151.69 126.68 151.85 125.59 151.28 124.81 C 150.70 124.03 149.61 123.86 148.83 124.44 L 147.96 125.07 C 147.18 125.65 147.01 126.75 147.59 127.53 C 148.16 128.31 149.26 128.47 150.04 127.90 Z M 150.59 127.45 L 151.43 127.07 C 152.31 126.67 152.70 125.63 152.30 124.74 C 151.90 123.86 150.86 123.47 149.98 123.87 L 149.14 124.25 C 148.26 124.65 147.87 125.69 148.27 126.57 C 148.67 127.46 149.71 127.85 150.59 127.45 Z M 150.79 127.23 L 151.56 127.19 C 152.53 127.14 153.27 126.31 153.22 125.34 C 153.17 124.37 152.34 123.62 151.37 123.67 L 150.61 123.71 C 149.64 123.76 148.89 124.59 148.94 125.56 C 148.99 126.53 149.82 127.28 150.79 127.23 Z M 150.60 126.97 L 151.24 127.33 C 152.09 127.80 153.17 127.50 153.64 126.65 C 154.12 125.80 153.81 124.72 152.96 124.25 L 152.32 123.89 C 151.47 123.41 150.40 123.72 149.92 124.57 C 149.45 125.42 149.75 126.49 150.60 126.97 Z M 150.66 126.81 L 151.15 127.51 C 151.72 128.31 152.82 128.50 153.62 127.93 C 154.42 127.37 154.61 126.27 154.04 125.47 L 153.55 124.77 C 152.98 123.97 151.88 123.78 151.08 124.34 C 150.28 124.90 150.09 126.01 150.66 126.81 Z M 150.93 127.08 L 151.27 128.04 C 151.60 128.96 152.61 129.44 153.53 129.12 C 154.45 128.79 154.94 127.77 154.61 126.85 L 154.27 125.90 C 153.94 124.97 152.93 124.49 152.01 124.82 C 151.08 125.15 150.60 126.16 150.93 127.08 Z M 151.18 127.70 L 151.34 128.81 C 151.48 129.78 152.39 130.45 153.36 130.31 C 154.33 130.17 155.00 129.27 154.86 128.30 L 154.70 127.19 C 154.55 126.22 153.65 125.55 152.68 125.69 C 151.71 125.83 151.04 126.73 151.18 127.70 Z M 151.32 128.50 L 151.29 129.65 C 151.26 130.63 152.03 131.45 153.02 131.48 C 154.00 131.50 154.82 130.73 154.85 129.75 L 154.88 128.61 C 154.91 127.62 154.13 126.80 153.15 126.77 C 152.17 126.75 151.35 127.52 151.32 128.50 Z M 151.32 129.36 L 151.14 130.29 C 150.96 131.26 151.59 132.19 152.56 132.37 C 153.52 132.56 154.46 131.92 154.64 130.96 L 154.82 130.03 C 155.00 129.06 154.37 128.13 153.40 127.95 C 152.43 127.76 151.50 128.40 151.32 129.36 Z M 151.19 130.07 L 150.90 130.98 C 150.59 131.91 151.10 132.92 152.04 133.23 C 152.97 133.54 153.98 133.02 154.29 132.09 L 154.59 131.18 C 154.89 130.24 154.38 129.23 153.45 128.93 C 152.51 128.62 151.50 129.13 151.19 130.07 Z M 150.96 130.80 L 150.56 131.70 C 150.16 132.60 150.56 133.65 151.46 134.06 C 152.36 134.46 153.41 134.06 153.82 133.16 L 154.22 132.27 C 154.62 131.37 154.22 130.31 153.32 129.91 C 152.43 129.50 151.37 129.90 150.96 130.80 Z M 150.63 131.56 L 150.13 132.45 C 149.66 133.32 149.97 134.40 150.83 134.88 C 151.69 135.36 152.78 135.05 153.26 134.19 L 153.75 133.30 C 154.23 132.43 153.92 131.35 153.06 130.87 C 152.19 130.39 151.11 130.70 150.63 131.56 Z M 150.19 132.35 L 149.63 133.24 C 149.09 134.07 149.33 135.17 150.16 135.71 C 151.00 136.24 152.10 136.00 152.63 135.17 L 153.20 134.28 C 153.73 133.45 153.49 132.35 152.66 131.81 C 151.83 131.28 150.72 131.52 150.19 132.35 Z M 149.67 133.17 L 149.07 134.02 C 148.50 134.83 148.69 135.94 149.50 136.51 C 150.30 137.08 151.42 136.89 151.99 136.09 L 152.59 135.23 C 153.16 134.43 152.97 133.31 152.16 132.74 C 151.36 132.17 150.24 132.36 149.67 133.17 Z M 149.10 133.97 L 148.50 134.76 C 147.91 135.55 148.06 136.67 148.85 137.27 C 149.63 137.86 150.75 137.71 151.35 136.93 L 151.95 136.14 C 152.55 135.35 152.40 134.23 151.61 133.63 C 150.82 133.03 149.70 133.18 149.10 133.97 Z M 148.54 134.71 L 147.91 135.49 C 147.28 136.25 147.39 137.38 148.16 138.00 C 148.92 138.63 150.05 138.52 150.68 137.75 L 151.31 136.98 C 151.94 136.21 151.83 135.08 151.06 134.46 C 150.30 133.83 149.17 133.94 148.54 134.71 Z M 147.95 135.43 L 147.28 136.19 C 146.63 136.93 146.70 138.06 147.44 138.71 C 148.18 139.37 149.31 139.30 149.96 138.56 L 150.63 137.81 C 151.29 137.07 151.22 135.94 150.48 135.28 C 149.74 134.62 148.61 134.69 147.95 135.43 Z M 147.34 136.13 L 146.64 136.85 C 145.95 137.56 145.97 138.70 146.68 139.38 C 147.39 140.07 148.52 140.05 149.21 139.34 L 149.91 138.62 C 150.60 137.91 150.58 136.78 149.87 136.09 C 149.16 135.40 148.03 135.42 147.34 136.13 Z M 146.70 136.79 L 145.97 137.47 C 145.24 138.15 145.21 139.28 145.88 140.01 C 146.56 140.73 147.69 140.77 148.41 140.09 L 149.14 139.41 C 149.87 138.73 149.91 137.60 149.23 136.88 C 148.55 136.15 147.42 136.12 146.70 136.79 Z M 146.04 137.41 L 145.28 138.04 C 144.52 138.68 144.42 139.80 145.05 140.56 C 145.69 141.32 146.82 141.43 147.58 140.79 L 148.34 140.16 C 149.10 139.53 149.20 138.40 148.56 137.64 C 147.93 136.88 146.80 136.77 146.04 137.41 Z M 145.39 137.96 L 144.39 138.68 C 143.59 139.25 143.40 140.37 143.98 141.17 C 144.55 141.98 145.67 142.16 146.48 141.59 L 147.47 140.87 C 148.28 140.30 148.46 139.18 147.88 138.37 C 147.31 137.57 146.19 137.39 145.39 137.96 Z M 144.54 138.58 L 143.54 139.15 C 142.68 139.65 142.38 140.74 142.88 141.60 C 143.37 142.46 144.46 142.75 145.32 142.26 L 146.32 141.68 C 147.18 141.19 147.48 140.10 146.99 139.24 C 146.49 138.38 145.40 138.09 144.54 138.58 Z M 143.77 139.04 L 142.82 139.42 C 141.90 139.79 141.45 140.83 141.82 141.75 C 142.19 142.67 143.23 143.12 144.15 142.75 L 145.09 142.37 C 146.01 142.00 146.46 140.96 146.09 140.04 C 145.73 139.12 144.68 138.68 143.77 139.04 Z M 143.21 139.32 L 142.37 139.44 C 141.40 139.59 140.72 140.51 140.87 141.49 C 141.02 142.46 141.94 143.13 142.92 142.98 L 143.75 142.86 C 144.73 142.71 145.40 141.79 145.25 140.81 C 145.10 139.84 144.19 139.17 143.21 139.32 Z M 143.09 139.48 L 142.41 139.31 C 141.45 139.06 140.47 139.64 140.23 140.60 C 139.99 141.56 140.56 142.53 141.52 142.78 L 142.20 142.95 C 143.16 143.19 144.14 142.61 144.38 141.65 C 144.62 140.70 144.04 139.72 143.09 139.48 Z M 143.28 139.82 L 142.79 139.29 C 142.11 138.57 140.98 138.53 140.25 139.20 C 139.53 139.88 139.49 141.01 140.16 141.74 L 140.65 142.26 C 141.33 142.99 142.46 143.03 143.19 142.35 C 143.91 141.68 143.95 140.54 143.28 139.82 Z M 143.17 139.93 L 142.89 139.11 C 142.57 138.18 141.55 137.68 140.61 138.00 C 139.67 138.32 139.17 139.34 139.50 140.28 L 139.78 141.10 C 140.10 142.04 141.12 142.53 142.06 142.21 C 142.99 141.89 143.49 140.87 143.17 139.93 Z M 142.98 139.54 L 142.89 138.52 C 142.81 137.53 141.94 136.80 140.95 136.88 C 139.96 136.97 139.23 137.84 139.32 138.83 L 139.40 139.85 C 139.49 140.84 140.36 141.57 141.35 141.48 C 142.34 141.40 143.07 140.53 142.98 139.54 Z M 142.90 138.81 L 142.98 137.66 C 143.05 136.67 142.31 135.81 141.32 135.74 C 140.33 135.67 139.47 136.41 139.40 137.40 L 139.31 138.54 C 139.24 139.53 139.98 140.39 140.97 140.46 C 141.96 140.54 142.82 139.80 142.90 138.81 Z M 142.95 137.89 L 143.19 136.74 C 143.39 135.77 142.76 134.82 141.79 134.62 C 140.81 134.42 139.86 135.05 139.66 136.02 L 139.43 137.17 C 139.23 138.14 139.85 139.09 140.83 139.29 C 141.80 139.49 142.75 138.87 142.95 137.89 Z M 143.14 136.94 L 143.45 135.97 C 143.76 135.02 143.24 134.01 142.29 133.70 C 141.35 133.39 140.33 133.91 140.02 134.86 L 139.71 135.83 C 139.40 136.77 139.92 137.79 140.87 138.10 C 141.82 138.41 142.83 137.89 143.14 136.94 Z M 143.40 136.13 L 143.80 135.21 C 144.20 134.29 143.77 133.22 142.86 132.82 C 141.94 132.43 140.87 132.85 140.47 133.77 L 140.07 134.70 C 139.68 135.62 140.10 136.68 141.02 137.08 C 141.94 137.48 143.00 137.05 143.40 136.13 Z M 143.74 135.35 L 144.22 134.46 C 144.69 133.57 144.36 132.47 143.47 132.00 C 142.59 131.52 141.48 131.86 141.01 132.74 L 140.53 133.63 C 140.06 134.52 140.39 135.62 141.28 136.09 C 142.17 136.57 143.27 136.23 143.74 135.35 Z M 144.15 134.58 L 144.69 133.74 C 145.23 132.89 144.98 131.76 144.13 131.22 C 143.28 130.68 142.15 130.93 141.61 131.78 L 141.07 132.62 C 140.53 133.47 140.78 134.60 141.63 135.14 C 142.48 135.68 143.61 135.43 144.15 134.58 Z M 144.62 133.85 L 145.21 133.06 C 145.81 132.24 145.63 131.09 144.82 130.49 C 144.00 129.89 142.85 130.07 142.25 130.88 L 141.67 131.67 C 141.07 132.49 141.24 133.64 142.06 134.24 C 142.88 134.84 144.02 134.66 144.62 133.85 Z M 145.14 133.16 L 145.84 132.32 C 146.50 131.55 146.40 130.38 145.62 129.73 C 144.84 129.07 143.68 129.17 143.03 129.95 L 142.32 130.78 C 141.67 131.56 141.77 132.72 142.54 133.38 C 143.32 134.03 144.48 133.93 145.14 133.16 Z M 145.74 132.44 L 146.57 131.60 C 147.29 130.88 147.29 129.71 146.57 128.99 C 145.85 128.27 144.68 128.28 143.96 129.00 L 143.13 129.83 C 142.41 130.56 142.41 131.72 143.13 132.44 C 143.85 133.16 145.02 133.16 145.74 132.44 Z M 146.39 131.76 L 147.22 131.13 C 148.03 130.51 148.18 129.35 147.56 128.54 C 146.94 127.73 145.78 127.58 144.98 128.20 L 144.14 128.83 C 143.33 129.45 143.18 130.61 143.80 131.42 C 144.42 132.23 145.58 132.39 146.39 131.76 Z M 146.87 131.34 L 147.66 130.98 C 148.59 130.55 149.00 129.45 148.57 128.53 C 148.15 127.60 147.05 127.19 146.12 127.62 L 145.33 127.98 C 144.40 128.41 143.99 129.51 144.42 130.43 C 144.84 131.36 145.94 131.77 146.87 131.34 Z M 146.93 131.15 L 147.66 131.13 C 148.68 131.11 149.49 130.26 149.47 129.24 C 149.44 128.22 148.60 127.41 147.58 127.43 L 146.85 127.45 C 145.83 127.47 145.02 128.32 145.04 129.34 C 145.07 130.36 145.91 131.17 146.93 131.15 Z M 146.64 130.86 L 147.29 131.26 C 148.16 131.80 149.30 131.53 149.84 130.66 C 150.38 129.79 150.11 128.65 149.24 128.11 L 148.59 127.71 C 147.72 127.17 146.58 127.44 146.04 128.31 C 145.50 129.18 145.77 130.32 146.64 130.86 Z M 146.75 130.75 L 147.28 131.50 C 147.87 132.34 149.02 132.55 149.86 131.96 C 150.70 131.37 150.90 130.22 150.31 129.38 L 149.79 128.62 C 149.20 127.79 148.05 127.58 147.21 128.17 C 146.37 128.75 146.16 129.91 146.75 130.75 Z M 147.08 131.13 L 147.48 132.13 C 147.85 133.08 148.93 133.55 149.88 133.17 C 150.83 132.79 151.30 131.71 150.92 130.76 L 150.52 129.76 C 150.14 128.81 149.06 128.34 148.11 128.72 C 147.16 129.10 146.70 130.18 147.08 131.13 Z M 147.39 131.86 L 147.66 133.02 C 147.89 134.01 148.88 134.64 149.88 134.41 C 150.87 134.18 151.50 133.18 151.27 132.19 L 151.00 131.03 C 150.77 130.04 149.78 129.41 148.78 129.64 C 147.79 129.87 147.16 130.87 147.39 131.86 Z M 147.62 132.81 L 147.73 133.78 C 147.85 134.79 148.77 135.52 149.79 135.41 C 150.80 135.29 151.53 134.37 151.41 133.35 L 151.30 132.39 C 151.19 131.38 150.27 130.65 149.25 130.76 C 148.24 130.88 147.51 131.80 147.62 132.81 Z M 147.72 133.60 L 147.74 134.57 C 147.76 135.59 148.60 136.40 149.62 136.38 C 150.65 136.36 151.46 135.52 151.44 134.50 L 151.42 133.53 C 151.41 132.51 150.56 131.70 149.54 131.71 C 148.52 131.73 147.70 132.58 147.72 133.60 Z M 147.75 134.39 L 147.67 135.37 C 147.59 136.39 148.35 137.28 149.37 137.36 C 150.39 137.44 151.28 136.68 151.36 135.66 L 151.44 134.68 C 151.52 133.66 150.76 132.77 149.74 132.69 C 148.72 132.61 147.83 133.37 147.75 134.39 Z M 147.69 135.19 L 147.51 136.19 C 147.34 137.20 148.01 138.16 149.02 138.34 C 150.02 138.52 150.98 137.84 151.16 136.84 L 151.34 135.84 C 151.52 134.83 150.84 133.87 149.84 133.69 C 148.83 133.51 147.87 134.19 147.69 135.19 Z M 147.55 136.02 L 147.27 137.03 C 147.00 138.01 147.58 139.04 148.56 139.31 C 149.55 139.58 150.57 139.00 150.84 138.02 L 151.12 137.01 C 151.39 136.02 150.82 135.00 149.83 134.73 C 148.85 134.46 147.83 135.03 147.55 136.02 Z M 147.32 136.87 L 146.97 137.82 C 146.61 138.78 147.09 139.85 148.05 140.21 C 149.00 140.57 150.07 140.09 150.43 139.13 L 150.79 138.18 C 151.15 137.22 150.67 136.15 149.71 135.79 C 148.75 135.43 147.69 135.91 147.32 136.87 Z M 147.02 137.69 L 146.60 138.60 C 146.16 139.52 146.56 140.62 147.48 141.06 C 148.41 141.49 149.51 141.10 149.95 140.17 L 150.37 139.26 C 150.81 138.34 150.41 137.23 149.49 136.80 C 148.56 136.36 147.46 136.76 147.02 137.69 Z M 146.66 138.48 L 146.16 139.37 C 145.66 140.26 145.98 141.39 146.87 141.89 C 147.76 142.39 148.89 142.07 149.39 141.18 L 149.89 140.29 C 150.39 139.40 150.07 138.27 149.18 137.77 C 148.28 137.27 147.16 137.59 146.66 138.48 Z M 146.22 139.26 L 145.67 140.11 C 145.11 140.97 145.35 142.12 146.20 142.67 C 147.06 143.23 148.21 142.99 148.77 142.14 L 149.32 141.28 C 149.88 140.43 149.64 139.28 148.79 138.72 C 147.93 138.16 146.78 138.40 146.22 139.26 Z M 145.74 140.01 L 145.13 140.81 C 144.52 141.62 144.68 142.79 145.49 143.40 C 146.31 144.02 147.47 143.86 148.09 143.04 L 148.69 142.24 C 149.31 141.43 149.15 140.27 148.34 139.65 C 147.52 139.03 146.36 139.19 145.74 140.01 Z M 145.22 140.70 L 144.57 141.44 C 143.90 142.21 143.97 143.38 144.74 144.05 C 145.51 144.73 146.68 144.65 147.36 143.88 L 148.00 143.15 C 148.68 142.38 148.60 141.21 147.83 140.54 C 147.07 139.86 145.90 139.94 145.22 140.70 Z M 144.70 141.31 L 143.83 142.13 C 143.09 142.83 143.05 144.00 143.75 144.74 C 144.45 145.49 145.62 145.52 146.37 144.82 L 147.23 144.01 C 147.98 143.31 148.01 142.14 147.31 141.39 C 146.61 140.65 145.44 140.61 144.70 141.31 Z M 144.03 141.96 L 143.09 142.63 C 142.25 143.22 142.05 144.37 142.64 145.21 C 143.23 146.04 144.38 146.24 145.22 145.65 L 146.17 144.99 C 147.00 144.40 147.20 143.24 146.61 142.41 C 146.02 141.57 144.87 141.37 144.03 141.96 Z M 143.47 142.43 L 142.59 142.78 C 141.64 143.15 141.18 144.23 141.55 145.18 C 141.93 146.12 143.00 146.59 143.95 146.21 L 144.84 145.86 C 145.78 145.48 146.25 144.41 145.87 143.46 C 145.49 142.51 144.42 142.05 143.47 142.43 Z M 143.39 142.65 L 142.64 142.60 C 141.63 142.53 140.75 143.30 140.68 144.32 C 140.61 145.34 141.38 146.22 142.40 146.28 L 143.15 146.34 C 144.16 146.40 145.04 145.63 145.11 144.62 C 145.18 143.60 144.41 142.72 143.39 142.65 Z M 143.75 143.06 L 143.25 142.62 C 142.48 141.94 141.32 142.01 140.64 142.77 C 139.96 143.54 140.03 144.70 140.80 145.38 L 141.30 145.82 C 142.06 146.50 143.22 146.43 143.90 145.67 C 144.58 144.91 144.51 143.74 143.75 143.06 Z M 143.71 143.27 L 143.42 142.59 C 143.02 141.66 141.93 141.23 141.00 141.63 C 140.06 142.03 139.63 143.12 140.03 144.05 L 140.33 144.73 C 140.73 145.67 141.82 146.10 142.75 145.69 C 143.69 145.29 144.12 144.20 143.71 143.27 Z M 143.54 142.95 L 143.36 142.06 C 143.15 141.06 142.18 140.42 141.18 140.62 C 140.18 140.82 139.53 141.80 139.74 142.80 L 139.92 143.69 C 140.12 144.69 141.10 145.34 142.10 145.13 C 143.10 144.93 143.74 143.95 143.54 142.95 Z M 143.39 142.27 L 143.30 141.21 C 143.21 140.20 142.32 139.44 141.30 139.53 C 140.28 139.62 139.53 140.51 139.62 141.53 L 139.71 142.59 C 139.79 143.60 140.69 144.36 141.70 144.27 C 142.72 144.18 143.47 143.29 143.39 142.27 Z M 143.30 141.35 L 143.29 140.18 C 143.28 139.16 142.44 138.34 141.42 138.35 C 140.40 138.36 139.58 139.20 139.60 140.22 L 139.61 141.39 C 139.62 142.41 140.46 143.23 141.48 143.22 C 142.50 143.21 143.32 142.37 143.30 141.35 Z M 143.29 140.27 L 143.34 139.05 C 143.38 138.03 142.58 137.17 141.56 137.13 C 140.54 137.09 139.68 137.88 139.64 138.90 L 139.60 140.13 C 139.56 141.15 140.35 142.01 141.37 142.05 C 142.39 142.09 143.25 141.29 143.29 140.27 Z M 143.34 139.11 L 143.41 138.05 C 143.49 137.03 142.72 136.15 141.70 136.07 C 140.68 136.00 139.80 136.77 139.72 137.79 L 139.65 138.84 C 139.57 139.86 140.34 140.75 141.36 140.82 C 142.37 140.89 143.26 140.13 143.34 139.11 Z M 143.41 138.11 L 143.51 137.09 C 143.62 136.07 142.87 135.16 141.86 135.06 C 140.84 134.96 139.93 135.70 139.83 136.72 L 139.72 137.73 C 139.62 138.75 140.36 139.66 141.38 139.76 C 142.40 139.86 143.31 139.12 143.41 138.11 Z M 143.51 137.14 L 143.64 136.13 C 143.77 135.12 143.05 134.19 142.03 134.06 C 141.02 133.93 140.09 134.65 139.96 135.66 L 139.83 136.67 C 139.70 137.68 140.42 138.61 141.43 138.74 C 142.45 138.87 143.38 138.15 143.51 137.14 Z M 143.63 136.18 L 143.79 135.19 C 143.94 134.18 143.25 133.23 142.24 133.07 C 141.22 132.91 140.27 133.61 140.12 134.62 L 139.96 135.61 C 139.81 136.63 140.50 137.58 141.51 137.73 C 142.53 137.89 143.48 137.19 143.63 136.18 Z M 143.78 135.24 L 143.96 134.26 C 144.14 133.25 143.47 132.28 142.46 132.10 C 141.45 131.92 140.48 132.59 140.30 133.60 L 140.12 134.57 C 139.94 135.58 140.61 136.55 141.62 136.73 C 142.63 136.92 143.60 136.25 143.78 135.24 Z M 143.95 134.31 L 144.15 133.35 C 144.36 132.34 143.71 131.36 142.71 131.15 C 141.70 130.94 140.72 131.59 140.51 132.59 L 140.31 133.55 C 140.10 134.56 140.75 135.54 141.75 135.75 C 142.76 135.96 143.74 135.31 143.95 134.31 Z M 144.14 133.39 L 144.36 132.45 C 144.60 131.45 143.98 130.44 142.97 130.21 C 141.97 129.98 140.97 130.60 140.74 131.60 L 140.51 132.54 C 140.28 133.55 140.90 134.55 141.90 134.78 C 142.90 135.02 143.91 134.39 144.14 133.39 Z M 144.35 132.50 L 144.62 131.47 C 144.88 130.48 144.29 129.46 143.29 129.20 C 142.30 128.94 141.28 129.53 141.02 130.53 L 140.75 131.55 C 140.49 132.55 141.08 133.56 142.08 133.83 C 143.07 134.09 144.09 133.49 144.35 132.50 Z M 144.61 131.52 L 144.90 130.53 C 145.19 129.54 144.62 128.51 143.63 128.22 C 142.64 127.93 141.61 128.50 141.32 129.48 L 141.03 130.48 C 140.74 131.47 141.31 132.50 142.30 132.79 C 143.28 133.08 144.32 132.51 144.61 131.52 Z M 144.88 130.57 L 145.19 129.61 C 145.50 128.63 144.96 127.58 143.98 127.27 C 143.00 126.95 141.95 127.50 141.64 128.48 L 141.33 129.44 C 141.02 130.42 141.56 131.47 142.54 131.78 C 143.52 132.10 144.57 131.55 144.88 130.57 Z M 145.18 129.65 L 145.50 128.72 C 145.84 127.75 145.32 126.69 144.35 126.35 C 143.38 126.01 142.31 126.53 141.98 127.50 L 141.65 128.43 C 141.32 129.41 141.83 130.47 142.81 130.80 C 143.78 131.14 144.84 130.63 145.18 129.65 Z M 145.49 128.76 L 145.82 127.86 C 146.18 126.89 145.69 125.82 144.72 125.46 C 143.76 125.10 142.68 125.59 142.33 126.56 L 141.99 127.46 C 141.63 128.43 142.12 129.50 143.09 129.86 C 144.06 130.22 145.13 129.72 145.49 128.76 Z M 145.81 127.89 L 146.16 127.01 C 146.54 126.05 146.06 124.96 145.11 124.59 C 144.15 124.21 143.07 124.68 142.69 125.64 L 142.34 126.52 C 141.96 127.48 142.43 128.56 143.39 128.94 C 144.35 129.32 145.43 128.85 145.81 127.89 Z M 146.14 127.06 L 146.64 125.89 C 147.05 124.94 146.61 123.85 145.66 123.44 C 144.72 123.03 143.62 123.47 143.21 124.41 L 142.71 125.58 C 142.30 126.53 142.74 127.63 143.69 128.04 C 144.63 128.44 145.73 128.01 146.14 127.06 Z M 146.57 126.03 L 147.10 125.04 C 147.59 124.13 147.24 123.00 146.33 122.51 C 145.42 122.03 144.29 122.37 143.81 123.28 L 143.28 124.27 C 142.79 125.18 143.14 126.31 144.05 126.80 C 144.96 127.28 146.09 126.94 146.57 126.03 Z M 146.91 125.33 L 147.47 124.63 C 148.12 123.83 147.99 122.66 147.19 122.01 C 146.39 121.36 145.21 121.49 144.57 122.29 L 144.00 122.99 C 143.35 123.79 143.48 124.97 144.28 125.61 C 145.08 126.26 146.26 126.14 146.91 125.33 Z M 146.83 125.15 L 147.44 124.85 C 148.37 124.41 148.76 123.29 148.32 122.36 C 147.87 121.43 146.76 121.04 145.82 121.48 L 145.21 121.78 C 144.28 122.22 143.89 123.34 144.33 124.27 C 144.78 125.20 145.89 125.59 146.83 125.15 Z M 146.14 124.97 L 146.73 125.13 C 147.72 125.40 148.75 124.82 149.02 123.82 C 149.29 122.83 148.71 121.80 147.71 121.53 L 147.12 121.37 C 146.13 121.09 145.10 121.68 144.83 122.68 C 144.56 123.67 145.14 124.70 146.14 124.97 Z M 145.98 124.73 L 146.57 125.25 C 147.34 125.93 148.52 125.86 149.20 125.08 C 149.89 124.31 149.81 123.13 149.04 122.44 L 148.46 121.93 C 147.68 121.24 146.50 121.32 145.82 122.09 C 145.13 122.87 145.21 124.05 145.98 124.73 Z M 146.26 124.91 L 146.82 125.72 C 147.41 126.57 148.57 126.78 149.42 126.20 C 150.27 125.61 150.49 124.45 149.90 123.60 L 149.34 122.78 C 148.76 121.93 147.59 121.72 146.74 122.31 C 145.89 122.89 145.68 124.06 146.26 124.91 Z M 146.67 125.46 L 147.17 126.51 C 147.61 127.44 148.72 127.84 149.66 127.40 C 150.59 126.96 150.99 125.85 150.55 124.91 L 150.05 123.86 C 149.61 122.93 148.50 122.53 147.56 122.97 C 146.63 123.41 146.23 124.52 146.67 125.46 Z M 147.08 126.28 L 147.47 127.51 C 147.79 128.50 148.84 129.04 149.82 128.73 C 150.81 128.41 151.35 127.36 151.03 126.38 L 150.64 125.14 C 150.33 124.16 149.27 123.61 148.29 123.93 C 147.31 124.24 146.76 125.30 147.08 126.28 Z M 147.42 127.33 L 147.62 128.26 C 147.83 129.27 148.82 129.92 149.83 129.71 C 150.84 129.50 151.49 128.51 151.28 127.50 L 151.08 126.56 C 150.87 125.55 149.88 124.90 148.87 125.11 C 147.86 125.32 147.21 126.31 147.42 127.33 Z M 147.60 128.12 L 147.72 129.05 C 147.85 130.08 148.79 130.80 149.81 130.67 C 150.84 130.53 151.56 129.59 151.42 128.57 L 151.30 127.64 C 151.17 126.62 150.23 125.90 149.21 126.03 C 148.18 126.16 147.46 127.10 147.60 128.12 Z M 147.70 128.93 L 147.77 129.90 C 147.83 130.93 148.72 131.71 149.75 131.64 C 150.78 131.58 151.57 130.69 151.50 129.66 L 151.44 128.69 C 151.37 127.66 150.48 126.88 149.45 126.95 C 148.42 127.01 147.64 127.90 147.70 128.93 Z M 147.76 129.79 L 147.77 130.79 C 147.78 131.82 148.62 132.65 149.65 132.65 C 150.68 132.64 151.51 131.80 151.51 130.76 L 151.50 129.77 C 151.50 128.73 150.65 127.90 149.62 127.91 C 148.59 127.92 147.76 128.76 147.76 129.79 Z M 147.77 130.69 L 147.72 131.71 C 147.67 132.74 148.47 133.62 149.50 133.67 C 150.53 133.71 151.41 132.92 151.46 131.89 L 151.51 130.86 C 151.55 129.83 150.76 128.96 149.73 128.91 C 148.70 128.86 147.82 129.66 147.77 130.69 Z M 147.73 131.62 L 147.63 132.66 C 147.53 133.69 148.28 134.60 149.31 134.70 C 150.34 134.80 151.25 134.05 151.35 133.02 L 151.45 131.98 C 151.55 130.95 150.80 130.04 149.77 129.94 C 148.74 129.84 147.83 130.59 147.73 131.62 Z M 147.64 132.57 L 147.49 133.63 C 147.34 134.65 148.05 135.59 149.07 135.74 C 150.10 135.89 151.04 135.18 151.19 134.16 L 151.34 133.10 C 151.49 132.08 150.78 131.14 149.76 130.99 C 148.73 130.84 147.79 131.55 147.64 132.57 Z M 147.50 133.55 L 147.31 134.58 C 147.12 135.60 147.78 136.57 148.80 136.77 C 149.81 136.96 150.79 136.29 150.98 135.27 L 151.18 134.24 C 151.37 133.22 150.70 132.25 149.68 132.05 C 148.67 131.86 147.69 132.53 147.50 133.55 Z M 147.32 134.51 L 147.09 135.51 C 146.86 136.52 147.49 137.52 148.50 137.75 C 149.50 137.99 150.50 137.36 150.74 136.35 L 150.97 135.35 C 151.20 134.34 150.57 133.34 149.56 133.11 C 148.56 132.88 147.55 133.50 147.32 134.51 Z M 147.11 135.45 L 146.84 136.44 C 146.57 137.44 147.17 138.47 148.16 138.73 C 149.16 139.00 150.18 138.41 150.45 137.41 L 150.72 136.42 C 150.99 135.42 150.39 134.39 149.40 134.13 C 148.40 133.86 147.38 134.45 147.11 135.45 Z M 146.86 136.38 L 146.56 137.37 C 146.26 138.35 146.82 139.40 147.80 139.70 C 148.79 140.00 149.83 139.44 150.14 138.45 L 150.43 137.47 C 150.73 136.49 150.18 135.44 149.19 135.14 C 148.20 134.84 147.16 135.40 146.86 136.38 Z M 146.58 137.31 L 146.25 138.27 C 145.92 139.25 146.44 140.31 147.42 140.64 C 148.40 140.97 149.46 140.45 149.79 139.47 L 150.12 138.51 C 150.45 137.53 149.92 136.47 148.95 136.14 C 147.97 135.81 146.91 136.33 146.58 137.31 Z M 146.27 138.22 L 145.92 139.16 C 145.56 140.12 146.05 141.20 147.02 141.56 C 147.99 141.92 149.06 141.43 149.42 140.46 L 149.77 139.53 C 150.13 138.56 149.64 137.48 148.67 137.12 C 147.71 136.76 146.63 137.25 146.27 138.22 Z M 145.94 139.11 L 145.57 140.01 C 145.19 140.97 145.65 142.06 146.60 142.45 C 147.56 142.83 148.65 142.37 149.04 141.42 L 149.40 140.51 C 149.79 139.56 149.33 138.47 148.37 138.08 C 147.42 137.69 146.33 138.15 145.94 139.11 Z M 145.59 139.96 L 145.21 140.83 C 144.80 141.78 145.23 142.88 146.17 143.29 C 147.12 143.71 148.22 143.28 148.63 142.34 L 149.01 141.47 C 149.43 140.52 149.00 139.42 148.06 139.01 C 147.11 138.59 146.01 139.02 145.59 139.96 Z M 145.24 140.78 L 144.73 141.85 C 144.28 142.78 144.67 143.89 145.60 144.34 C 146.53 144.78 147.65 144.39 148.09 143.46 L 148.61 142.39 C 149.05 141.46 148.66 140.35 147.73 139.90 C 146.80 139.45 145.68 139.85 145.24 140.78 Z M 144.77 141.77 L 144.12 142.97 C 143.63 143.88 143.97 145.01 144.88 145.50 C 145.79 145.99 146.92 145.65 147.41 144.74 L 148.06 143.54 C 148.54 142.63 148.20 141.50 147.29 141.01 C 146.39 140.52 145.25 140.86 144.77 141.77 Z M 144.18 142.86 L 143.57 143.84 C 143.03 144.71 143.29 145.86 144.16 146.41 C 145.04 146.96 146.19 146.69 146.74 145.82 L 147.35 144.85 C 147.90 143.97 147.63 142.82 146.76 142.27 C 145.88 141.72 144.73 141.99 144.18 142.86 Z M 143.69 143.67 L 143.15 144.35 C 142.51 145.16 142.65 146.33 143.46 146.97 C 144.26 147.61 145.44 147.48 146.08 146.67 L 146.62 145.99 C 147.26 145.18 147.12 144.01 146.32 143.37 C 145.51 142.72 144.33 142.86 143.69 143.67 Z M 143.51 144.00 L 143.08 144.32 C 142.25 144.93 142.07 146.10 142.68 146.93 C 143.29 147.76 144.46 147.94 145.29 147.33 L 145.72 147.01 C 146.55 146.40 146.73 145.23 146.12 144.40 C 145.51 143.57 144.34 143.39 143.51 144.00 Z M 145.02 144.16 L 144.69 143.99 C 143.77 143.53 142.65 143.90 142.18 144.82 C 141.72 145.74 142.09 146.86 143.01 147.33 L 143.34 147.50 C 144.26 147.96 145.39 147.59 145.85 146.67 C 146.31 145.75 145.94 144.62 145.02 144.16 Z M 145.69 145.34 L 145.56 144.59 C 145.38 143.58 144.42 142.90 143.40 143.07 C 142.38 143.25 141.70 144.22 141.88 145.23 L 142.01 145.98 C 142.19 147.00 143.15 147.68 144.17 147.50 C 145.19 147.32 145.87 146.36 145.69 145.34 Z M 145.58 145.05 L 145.67 143.92 C 145.74 142.89 144.97 141.99 143.94 141.92 C 142.91 141.84 142.02 142.61 141.94 143.64 L 141.86 144.78 C 141.78 145.80 142.55 146.70 143.58 146.78 C 144.61 146.85 145.51 146.08 145.58 145.05 Z M 145.63 144.16 L 145.91 142.84 C 146.12 141.83 145.47 140.84 144.47 140.63 C 143.46 140.42 142.47 141.06 142.25 142.07 L 141.98 143.40 C 141.77 144.40 142.41 145.39 143.42 145.61 C 144.43 145.82 145.42 145.17 145.63 144.16 Z M 145.86 143.03 L 146.17 142.05 C 146.49 141.07 145.94 140.02 144.96 139.71 C 143.98 139.39 142.93 139.93 142.62 140.91 L 142.30 141.89 C 141.99 142.87 142.53 143.92 143.51 144.23 C 144.49 144.55 145.55 144.01 145.86 143.03 Z M 146.12 142.20 L 146.50 141.28 C 146.89 140.32 146.44 139.23 145.49 138.84 C 144.54 138.44 143.44 138.90 143.05 139.85 L 142.67 140.77 C 142.27 141.72 142.73 142.81 143.68 143.21 C 144.63 143.60 145.72 143.15 146.12 142.20 Z M 146.44 141.40 L 146.89 140.51 C 147.36 139.59 146.99 138.47 146.07 138.00 C 145.15 137.54 144.03 137.91 143.56 138.83 L 143.11 139.72 C 142.64 140.64 143.01 141.76 143.93 142.23 C 144.85 142.69 145.98 142.32 146.44 141.40 Z M 146.83 140.63 L 147.35 139.76 C 147.87 138.88 147.59 137.73 146.70 137.20 C 145.82 136.67 144.67 136.96 144.14 137.85 L 143.63 138.71 C 143.10 139.59 143.38 140.74 144.27 141.27 C 145.15 141.80 146.30 141.51 146.83 140.63 Z M 147.28 139.87 L 147.85 139.05 C 148.44 138.20 148.23 137.04 147.38 136.45 C 146.54 135.86 145.37 136.07 144.78 136.92 L 144.21 137.74 C 143.62 138.59 143.83 139.75 144.68 140.34 C 145.52 140.93 146.69 140.72 147.28 139.87 Z M 147.77 139.16 L 148.54 138.20 C 149.19 137.40 149.07 136.23 148.26 135.58 C 147.46 134.93 146.29 135.05 145.64 135.85 L 144.87 136.81 C 144.22 137.61 144.34 138.78 145.14 139.43 C 145.94 140.08 147.12 139.96 147.77 139.16 Z M 148.42 138.33 L 149.31 137.42 C 150.03 136.69 150.02 135.50 149.28 134.78 C 148.54 134.06 147.36 134.08 146.64 134.81 L 145.75 135.72 C 145.03 136.46 145.05 137.64 145.79 138.36 C 146.52 139.08 147.70 139.07 148.42 138.33 Z M 149.09 137.61 L 149.86 137.04 C 150.69 136.42 150.86 135.25 150.24 134.43 C 149.63 133.60 148.46 133.43 147.63 134.05 L 146.86 134.62 C 146.03 135.24 145.86 136.41 146.48 137.24 C 147.10 138.06 148.27 138.23 149.09 137.61 Z M 149.06 137.38 L 149.57 137.30 C 150.59 137.13 151.28 136.17 151.11 135.15 C 150.93 134.13 149.97 133.45 148.96 133.62 L 148.44 133.70 C 147.42 133.87 146.74 134.84 146.91 135.85 C 147.08 136.87 148.04 137.56 149.06 137.38 Z M 147.50 136.07 L 147.66 136.53 C 148.00 137.50 149.07 138.01 150.04 137.67 C 151.01 137.33 151.52 136.26 151.18 135.29 L 151.03 134.84 C 150.68 133.87 149.62 133.36 148.65 133.70 C 147.67 134.04 147.16 135.10 147.50 136.07 Z M 147.56 135.77 L 147.50 136.62 C 147.42 137.65 148.20 138.54 149.22 138.62 C 150.25 138.70 151.14 137.92 151.22 136.90 L 151.28 136.05 C 151.36 135.02 150.59 134.13 149.56 134.05 C 148.53 133.97 147.64 134.74 147.56 135.77 Z M 147.51 136.53 L 147.37 137.64 C 147.25 138.66 147.97 139.59 148.99 139.72 C 150.01 139.84 150.94 139.12 151.07 138.10 L 151.21 136.99 C 151.33 135.97 150.61 135.04 149.59 134.91 C 148.57 134.79 147.64 135.51 147.51 136.53 Z M 147.37 137.76 L 147.29 138.97 C 147.23 140.00 148.01 140.88 149.04 140.94 C 150.06 141.00 150.94 140.22 151.01 139.20 L 151.08 137.98 C 151.14 136.96 150.36 136.07 149.33 136.01 C 148.31 135.95 147.43 136.73 147.37 137.76 Z M 147.30 139.26 L 147.39 140.30 C 147.49 141.32 148.39 142.07 149.42 141.98 C 150.44 141.88 151.19 140.98 151.10 139.95 L 151.00 138.91 C 150.91 137.89 150.00 137.14 148.98 137.23 C 147.96 137.33 147.20 138.23 147.30 139.26 Z M 147.45 140.60 L 147.67 141.44 C 147.93 142.43 148.95 143.03 149.94 142.76 C 150.94 142.50 151.53 141.48 151.27 140.49 L 151.04 139.65 C 150.78 138.65 149.76 138.06 148.77 138.33 C 147.78 138.59 147.18 139.61 147.45 140.60 Z M 147.72 141.61 L 148.03 142.45 C 148.38 143.41 149.45 143.91 150.42 143.55 C 151.38 143.20 151.88 142.13 151.53 141.16 L 151.22 140.32 C 150.86 139.36 149.79 138.86 148.83 139.21 C 147.86 139.57 147.36 140.64 147.72 141.61 Z M 148.04 142.49 L 148.39 143.38 C 148.77 144.34 149.85 144.81 150.81 144.43 C 151.77 144.05 152.24 142.97 151.86 142.01 L 151.51 141.12 C 151.14 140.16 150.05 139.69 149.09 140.07 C 148.13 140.45 147.66 141.53 148.04 142.49 Z M 148.36 143.31 L 148.71 144.30 C 149.05 145.27 150.12 145.78 151.09 145.44 C 152.06 145.10 152.58 144.03 152.23 143.06 L 151.89 142.07 C 151.55 141.10 150.48 140.59 149.51 140.93 C 148.53 141.27 148.02 142.34 148.36 143.31 Z M 148.66 144.15 L 148.96 145.28 C 149.22 146.28 150.25 146.87 151.25 146.61 C 152.24 146.35 152.84 145.32 152.58 144.32 L 152.28 143.20 C 152.02 142.20 150.99 141.60 149.99 141.87 C 148.99 142.13 148.40 143.16 148.66 144.15 Z M 148.92 145.12 L 149.08 146.06 C 149.26 147.08 150.23 147.76 151.25 147.59 C 152.27 147.41 152.95 146.44 152.78 145.42 L 152.61 144.48 C 152.44 143.46 151.47 142.78 150.45 142.95 C 149.43 143.13 148.75 144.10 148.92 145.12 Z M 149.07 145.94 L 149.16 146.83 C 149.27 147.86 150.19 148.60 151.22 148.49 C 152.25 148.38 153.00 147.46 152.89 146.43 L 152.79 145.54 C 152.68 144.52 151.76 143.77 150.73 143.88 C 149.70 143.99 148.96 144.91 149.07 145.94 Z M 149.15 146.74 L 149.21 147.68 C 149.27 148.72 150.15 149.51 151.18 149.45 C 152.22 149.39 153.01 148.50 152.95 147.47 L 152.89 146.52 C 152.84 145.49 151.95 144.70 150.92 144.76 C 149.89 144.82 149.10 145.70 149.15 146.74 Z M 149.20 147.60 L 149.22 148.60 C 149.23 149.63 150.08 150.46 151.12 150.44 C 152.15 150.43 152.98 149.58 152.96 148.54 L 152.95 147.55 C 152.94 146.52 152.09 145.69 151.05 145.70 C 150.02 145.72 149.19 146.57 149.20 147.60 Z M 149.22 148.53 L 149.20 149.55 C 149.17 150.59 149.99 151.45 151.02 151.47 C 152.06 151.50 152.92 150.68 152.94 149.64 L 152.96 148.61 C 152.99 147.58 152.17 146.72 151.14 146.70 C 150.10 146.67 149.24 147.49 149.22 148.53 Z M 149.20 149.49 L 149.14 150.54 C 149.08 151.57 149.86 152.46 150.90 152.52 C 151.93 152.58 152.82 151.79 152.88 150.76 L 152.94 149.71 C 153.00 148.68 152.21 147.79 151.18 147.73 C 150.14 147.67 149.26 148.46 149.20 149.49 Z M 149.14 150.48 L 149.04 151.54 C 148.95 152.57 149.71 153.48 150.74 153.57 C 151.77 153.67 152.68 152.91 152.77 151.88 L 152.87 150.82 C 152.97 149.79 152.21 148.88 151.18 148.78 C 150.15 148.69 149.24 149.45 149.14 150.48 Z M 149.05 151.48 L 148.92 152.53 C 148.79 153.56 149.52 154.49 150.54 154.62 C 151.57 154.75 152.51 154.02 152.64 153.00 L 152.77 151.94 C 152.90 150.91 152.17 149.98 151.14 149.85 C 150.12 149.72 149.18 150.45 149.05 151.48 Z M 148.93 152.47 L 148.76 153.51 C 148.60 154.53 149.30 155.49 150.32 155.65 C 151.34 155.82 152.30 155.12 152.46 154.10 L 152.63 153.06 C 152.79 152.04 152.09 151.08 151.07 150.91 C 150.05 150.75 149.09 151.45 148.93 152.47 Z M 148.77 153.45 L 148.58 154.46 C 148.38 155.47 149.04 156.46 150.05 156.65 C 151.07 156.85 152.05 156.19 152.25 155.18 L 152.45 154.16 C 152.65 153.15 151.98 152.17 150.97 151.97 C 149.96 151.77 148.97 152.43 148.77 153.45 Z M 148.59 154.40 L 148.37 155.38 C 148.13 156.38 148.76 157.39 149.76 157.62 C 150.77 157.85 151.77 157.23 152.00 156.22 L 152.23 155.24 C 152.47 154.24 151.84 153.23 150.84 153.00 C 149.83 152.77 148.83 153.39 148.59 154.40 Z M 148.39 155.32 L 148.13 156.28 C 147.86 157.27 148.45 158.29 149.44 158.56 C 150.43 158.83 151.46 158.24 151.72 157.25 L 151.98 156.29 C 152.25 155.29 151.66 154.27 150.67 154.00 C 149.68 153.74 148.65 154.32 148.39 155.32 Z M 148.15 156.22 L 147.86 157.16 C 147.56 158.14 148.12 159.18 149.10 159.48 C 150.08 159.78 151.12 159.23 151.41 158.25 L 151.70 157.30 C 152.00 156.32 151.45 155.29 150.47 154.99 C 149.49 154.69 148.45 155.24 148.15 156.22 Z M 147.88 157.11 L 147.57 158.04 C 147.24 159.01 147.76 160.06 148.73 160.39 C 149.70 160.72 150.75 160.20 151.08 159.23 L 151.39 158.30 C 151.72 157.33 151.20 156.28 150.23 155.95 C 149.26 155.62 148.21 156.14 147.88 157.11 Z M 147.59 157.99 L 147.25 158.91 C 146.90 159.87 147.38 160.93 148.34 161.29 C 149.30 161.64 150.36 161.15 150.71 160.20 L 151.06 159.28 C 151.41 158.32 150.92 157.26 149.97 156.90 C 149.01 156.55 147.95 157.04 147.59 157.99 Z M 147.27 158.87 L 146.90 159.79 C 146.53 160.74 146.99 161.81 147.93 162.19 C 148.88 162.56 149.95 162.10 150.33 161.16 L 150.69 160.24 C 151.07 159.29 150.61 158.22 149.66 157.85 C 148.72 157.47 147.65 157.93 147.27 158.87 Z M 146.92 159.76 L 146.53 160.68 C 146.14 161.62 146.57 162.69 147.51 163.09 C 148.44 163.49 149.52 163.05 149.91 162.12 L 150.31 161.19 C 150.70 160.26 150.27 159.18 149.33 158.78 C 148.40 158.39 147.32 158.83 146.92 159.76 Z M 146.55 160.65 L 146.14 161.58 C 145.72 162.51 146.14 163.59 147.07 164.00 C 147.99 164.41 149.07 164.00 149.48 163.07 L 149.90 162.14 C 150.31 161.22 149.89 160.14 148.97 159.72 C 148.04 159.31 146.96 159.73 146.55 160.65 Z M 146.15 161.56 L 145.72 162.50 C 145.30 163.41 145.70 164.50 146.61 164.92 C 147.53 165.34 148.61 164.95 149.04 164.03 L 149.47 163.09 C 149.89 162.18 149.49 161.09 148.57 160.67 C 147.66 160.25 146.57 160.65 146.15 161.56 Z M 145.74 162.49 L 145.29 163.42 C 144.86 164.33 145.25 165.41 146.15 165.84 C 147.06 166.28 148.14 165.89 148.57 164.98 L 149.02 164.04 C 149.45 163.14 149.06 162.05 148.16 161.62 C 147.25 161.19 146.17 161.58 145.74 162.49 Z M 145.31 163.41 L 144.85 164.36 C 144.41 165.25 144.78 166.33 145.68 166.77 C 146.58 167.21 147.66 166.83 148.10 165.94 L 148.56 164.99 C 148.99 164.10 148.62 163.02 147.72 162.58 C 146.83 162.14 145.74 162.52 145.31 163.41 Z M 144.86 164.35 L 144.40 165.29 C 143.96 166.18 144.32 167.25 145.21 167.69 C 146.09 168.14 147.17 167.77 147.61 166.89 L 148.08 165.95 C 148.52 165.06 148.16 163.98 147.27 163.54 C 146.38 163.10 145.31 163.46 144.86 164.35 Z M 144.41 165.28 L 143.94 166.21 C 143.50 167.09 143.85 168.16 144.73 168.61 C 145.61 169.05 146.68 168.70 147.13 167.82 L 147.60 166.89 C 148.04 166.01 147.69 164.94 146.81 164.49 C 145.93 164.05 144.86 164.40 144.41 165.28 Z M 143.96 166.20 L 143.49 167.11 C 143.04 167.99 143.38 169.06 144.25 169.51 C 145.13 169.95 146.20 169.61 146.65 168.74 L 147.11 167.83 C 147.56 166.96 147.22 165.88 146.35 165.44 C 145.48 164.99 144.40 165.33 143.96 166.20 Z M 143.50 167.11 L 143.04 167.99 C 142.59 168.86 142.92 169.93 143.79 170.38 C 144.65 170.83 145.72 170.49 146.17 169.63 L 146.63 168.74 C 147.08 167.88 146.75 166.81 145.88 166.36 C 145.02 165.91 143.95 166.24 143.50 167.11 Z M 143.05 167.99 L 142.60 168.84 C 142.15 169.70 142.48 170.76 143.34 171.21 C 144.19 171.67 145.26 171.34 145.71 170.48 L 146.16 169.63 C 146.61 168.77 146.28 167.71 145.43 167.26 C 144.57 166.81 143.51 167.13 143.05 167.99 Z M 142.62 168.84 L 142.18 169.65 C 141.73 170.50 142.05 171.56 142.90 172.01 C 143.75 172.47 144.81 172.14 145.26 171.29 L 145.70 170.48 C 146.15 169.63 145.83 168.58 144.98 168.12 C 144.13 167.67 143.07 167.99 142.62 168.84 Z M 142.20 169.65 L 141.74 170.50 C 141.28 171.35 141.60 172.40 142.44 172.85 C 143.29 173.31 144.34 172.99 144.79 172.15 L 145.25 171.29 C 145.71 170.45 145.39 169.40 144.55 168.95 C 143.70 168.49 142.65 168.81 142.20 169.65 Z M 141.76 170.50 L 141.19 171.54 C 140.73 172.38 141.04 173.42 141.87 173.88 C 142.71 174.33 143.75 174.02 144.21 173.19 L 144.77 172.15 C 145.23 171.31 144.92 170.27 144.09 169.82 C 143.25 169.36 142.21 169.67 141.76 170.50 Z M 141.21 171.54 L 140.69 172.48 C 140.23 173.30 140.53 174.34 141.35 174.80 C 142.17 175.25 143.21 174.95 143.66 174.13 L 144.19 173.19 C 144.64 172.37 144.34 171.33 143.52 170.88 C 142.70 170.42 141.66 170.72 141.21 171.54 Z M 140.71 172.48 L 140.22 173.34 C 139.76 174.15 140.05 175.18 140.86 175.64 C 141.67 176.09 142.70 175.81 143.15 175.00 L 143.64 174.14 C 144.10 173.33 143.81 172.30 143.00 171.84 C 142.19 171.39 141.17 171.67 140.71 172.48 Z M 140.24 173.34 L 139.78 174.14 C 139.32 174.94 139.59 175.96 140.39 176.42 C 141.19 176.88 142.21 176.60 142.67 175.81 L 143.13 175.00 C 143.59 174.21 143.32 173.19 142.52 172.73 C 141.72 172.27 140.70 172.54 140.24 173.34 Z M 139.81 174.14 L 139.36 174.90 C 138.89 175.68 139.15 176.69 139.94 177.15 C 140.72 177.61 141.73 177.35 142.19 176.57 L 142.64 175.81 C 143.11 175.03 142.85 174.02 142.06 173.55 C 141.28 173.09 140.27 173.35 139.81 174.14 Z M 139.38 174.89 L 138.93 175.63 C 138.47 176.40 138.72 177.40 139.49 177.87 C 140.26 178.33 141.26 178.09 141.72 177.32 L 142.17 176.58 C 142.64 175.81 142.39 174.80 141.62 174.34 C 140.85 173.87 139.85 174.12 139.38 174.89 Z M 138.95 175.62 L 138.49 176.38 C 138.02 177.14 138.25 178.13 139.01 178.60 C 139.77 179.07 140.77 178.84 141.24 178.08 L 141.71 177.32 C 142.17 176.56 141.94 175.57 141.18 175.10 C 140.42 174.63 139.42 174.86 138.95 175.62 Z M 138.50 176.37 L 138.02 177.13 C 137.54 177.88 137.77 178.88 138.52 179.35 C 139.27 179.83 140.27 179.60 140.74 178.85 L 141.23 178.09 C 141.70 177.33 141.48 176.34 140.72 175.86 C 139.97 175.39 138.98 175.61 138.50 176.37 Z M 138.03 177.12 L 137.52 177.92 C 137.04 178.66 137.25 179.66 138.00 180.14 C 138.74 180.62 139.74 180.40 140.22 179.66 L 140.73 178.86 C 141.21 178.11 141.00 177.12 140.25 176.64 C 139.50 176.16 138.51 176.38 138.03 177.12 Z M 137.53 177.91 L 136.98 178.75 C 136.49 179.49 136.70 180.48 137.44 180.96 C 138.18 181.45 139.17 181.24 139.65 180.51 L 140.20 179.66 C 140.69 178.93 140.48 177.93 139.75 177.45 C 139.01 176.96 138.02 177.17 137.53 177.91 Z M 136.99 178.74 L 136.39 179.65 C 135.90 180.38 136.10 181.37 136.83 181.86 C 137.56 182.35 138.55 182.15 139.04 181.42 L 139.64 180.51 C 140.13 179.78 139.93 178.79 139.20 178.30 C 138.47 177.82 137.48 178.01 136.99 178.74 Z M 136.40 179.65 L 135.74 180.61 C 135.25 181.34 135.45 182.32 136.17 182.81 C 136.90 183.30 137.88 183.11 138.37 182.39 L 139.03 181.42 C 139.52 180.70 139.32 179.71 138.60 179.22 C 137.87 178.73 136.89 178.92 136.40 179.65 Z M 135.75 180.61 L 135.26 181.32 C 134.77 182.05 134.96 183.03 135.68 183.52 C 136.40 184.01 137.39 183.83 137.88 183.11 L 138.37 182.39 C 138.86 181.67 138.67 180.68 137.95 180.19 C 137.23 179.70 136.24 179.89 135.75 180.61 Z M 135.27 181.32 L 134.75 182.08 C 134.26 182.80 134.44 183.78 135.16 184.27 C 135.88 184.77 136.87 184.58 137.36 183.86 L 137.88 183.11 C 138.37 182.39 138.18 181.40 137.46 180.91 C 136.74 180.42 135.76 180.60 135.27 181.32 Z M 134.76 182.08 L 134.21 182.86 C 133.72 183.58 133.90 184.56 134.62 185.06 C 135.34 185.55 136.32 185.37 136.81 184.65 L 137.36 183.86 C 137.85 183.15 137.67 182.16 136.95 181.67 C 136.23 181.18 135.25 181.36 134.76 182.08 Z M 134.22 182.86 L 133.65 183.68 C 133.16 184.40 133.34 185.38 134.05 185.87 C 134.77 186.37 135.75 186.19 136.25 185.47 L 136.81 184.65 C 137.30 183.94 137.12 182.96 136.41 182.46 C 135.69 181.97 134.71 182.15 134.22 182.86 Z M 133.66 183.68 L 133.07 184.52 C 132.58 185.24 132.76 186.22 133.47 186.71 C 134.19 187.21 135.17 187.03 135.66 186.31 L 136.24 185.47 C 136.74 184.76 136.56 183.78 135.84 183.28 C 135.13 182.79 134.15 182.97 133.66 183.68 Z M 133.08 184.52 L 132.48 185.38 C 131.99 186.10 132.16 187.08 132.88 187.57 C 133.59 188.06 134.57 187.89 135.06 187.17 L 135.66 186.31 C 136.15 185.60 135.98 184.62 135.26 184.13 C 134.55 183.63 133.57 183.81 133.08 184.52 Z M 132.48 185.38 L 131.88 186.26 C 131.38 186.97 131.56 187.95 132.27 188.44 C 132.98 188.94 133.96 188.76 134.45 188.05 L 135.06 187.17 C 135.55 186.46 135.38 185.48 134.67 184.99 C 133.95 184.50 132.98 184.67 132.48 185.38 Z M 131.88 186.26 L 131.26 187.14 C 130.77 187.85 130.95 188.83 131.66 189.32 C 132.37 189.82 133.34 189.64 133.84 188.93 L 134.45 188.05 C 134.94 187.34 134.77 186.36 134.06 185.87 C 133.35 185.37 132.37 185.55 131.88 186.26 Z M 131.27 187.14 L 130.74 187.91 C 130.24 188.62 130.42 189.59 131.13 190.09 C 131.84 190.58 132.81 190.40 133.31 189.69 L 133.84 188.93 C 134.33 188.22 134.15 187.25 133.44 186.75 C 132.73 186.26 131.76 186.44 131.27 187.14 Z"
      fill="black"
      fill-rule="nonzero" /></svg>