<svg xmlns="http://www.w3.org/2000/svg" width="300" height="300" viewBox="0 0 300 300">
<path d="M 155.14 136.90 L 155.07 135.53 C 155.02 134.57 154.21 133.83 153.25 133.88 C 152.29 133.93 151.56 134.74 151.61 135.70 L 151.67 137.07 C 151.72 138.03 152.54 138.77 153.50 138.72 C 154.45 138.67 155.19 137.86 155.14 136.90 Z M 155.10 135.43 L 154.99 134.29 C 154.89 133.31 154.02 132.60 153.04 132.70 C 152.07 132.80 151.36 133.67 151.46 134.65 L 151.57 135.79 C 151.67 136.77 152.54 137.48 153.52 137.38 C 154.49 137.28 155.20 136.41 155.10 135.43 Z M 154.96 133.94 L 154.74 133.25 C 154.45 132.29 153.44 131.75 152.48 132.05 C 151.52 132.34 150.98 133.35 151.28 134.31 L 151.49 135.00 C 151.78 135.96 152.80 136.50 153.75 136.20 C 154.71 135.91 155.25 134.89 154.96 133.94 Z M 153.19 131.94 L 152.86 131.91 C 151.85 131.82 150.94 132.56 150.85 133.57 C 150.75 134.59 151.49 135.49 152.51 135.58 L 152.83 135.61 C 153.85 135.71 154.75 134.97 154.85 133.96 C 154.94 132.94 154.20 132.04 153.19 131.94 Z M 151.21 132.63 L 150.81 133.16 C 150.19 133.98 150.35 135.14 151.16 135.75 C 151.98 136.37 153.14 136.21 153.75 135.39 L 154.16 134.86 C 154.77 134.05 154.61 132.89 153.80 132.27 C 152.98 131.66 151.82 131.82 151.21 132.63 Z M 150.62 133.49 L 150.18 134.41 C 149.74 135.33 150.13 136.43 151.04 136.87 C 151.96 137.30 153.06 136.92 153.50 136.00 L 153.94 135.07 C 154.38 134.16 153.99 133.06 153.07 132.62 C 152.16 132.18 151.06 132.57 150.62 133.49 Z M 150.11 134.58 L 149.69 135.76 C 149.35 136.71 149.84 137.76 150.79 138.11 C 151.74 138.45 152.79 137.96 153.13 137.00 L 153.56 135.83 C 153.90 134.88 153.41 133.83 152.46 133.48 C 151.51 133.14 150.46 133.63 150.11 134.58 Z M 149.65 135.90 L 149.33 137.10 C 149.06 138.07 149.63 139.08 150.60 139.34 C 151.57 139.61 152.58 139.04 152.84 138.06 L 153.17 136.86 C 153.44 135.89 152.86 134.89 151.89 134.62 C 150.92 134.36 149.92 134.93 149.65 135.90 Z M 149.30 137.22 L 149.12 138.14 C 148.92 139.12 149.56 140.08 150.54 140.28 C 151.52 140.47 152.48 139.84 152.68 138.86 L 152.86 137.94 C 153.06 136.96 152.43 136.00 151.44 135.80 C 150.46 135.60 149.50 136.24 149.30 137.22 Z M 149.11 138.21 L 148.97 139.14 C 148.81 140.13 149.48 141.05 150.47 141.21 C 151.46 141.36 152.38 140.69 152.54 139.70 L 152.69 138.78 C 152.84 137.79 152.17 136.86 151.18 136.71 C 150.19 136.55 149.27 137.23 149.11 138.21 Z M 148.97 139.18 L 148.84 140.13 C 148.70 141.12 149.40 142.03 150.39 142.16 C 151.37 142.29 152.28 141.60 152.41 140.61 L 152.54 139.66 C 152.67 138.67 151.98 137.76 150.99 137.63 C 150.01 137.50 149.10 138.19 148.97 139.18 Z M 148.84 140.14 L 148.71 141.14 C 148.58 142.13 149.28 143.03 150.26 143.16 C 151.25 143.28 152.15 142.59 152.28 141.60 L 152.41 140.61 C 152.54 139.62 151.84 138.72 150.86 138.59 C 149.87 138.46 148.97 139.16 148.84 140.14 Z M 148.72 141.12 L 148.57 142.18 C 148.43 143.16 149.11 144.07 150.09 144.21 C 151.07 144.35 151.98 143.67 152.12 142.69 L 152.27 141.63 C 152.41 140.65 151.73 139.74 150.75 139.60 C 149.77 139.46 148.86 140.14 148.72 141.12 Z M 148.58 142.13 L 148.39 143.25 C 148.23 144.22 148.88 145.14 149.85 145.31 C 150.83 145.47 151.75 144.82 151.91 143.85 L 152.10 142.73 C 152.27 141.76 151.62 140.84 150.64 140.67 C 149.67 140.51 148.75 141.16 148.58 142.13 Z M 148.41 143.19 L 148.18 144.31 C 147.98 145.27 148.60 146.21 149.57 146.41 C 150.53 146.61 151.47 145.99 151.67 145.03 L 151.90 143.91 C 152.09 142.94 151.47 142.00 150.51 141.80 C 149.55 141.61 148.61 142.23 148.41 143.19 Z M 148.20 144.24 L 147.93 145.37 C 147.69 146.32 148.27 147.28 149.22 147.51 C 150.17 147.74 151.13 147.16 151.37 146.21 L 151.64 145.09 C 151.88 144.14 151.30 143.18 150.35 142.95 C 149.40 142.71 148.44 143.29 148.20 144.24 Z M 147.96 145.28 L 147.64 146.34 C 147.36 147.27 147.88 148.26 148.82 148.54 C 149.75 148.82 150.73 148.29 151.02 147.36 L 151.34 146.30 C 151.62 145.37 151.09 144.38 150.16 144.10 C 149.22 143.82 148.24 144.35 147.96 145.28 Z M 147.69 146.22 L 147.33 147.16 C 146.98 148.07 147.43 149.08 148.34 149.43 C 149.24 149.78 150.26 149.33 150.61 148.42 L 150.97 147.48 C 151.32 146.58 150.86 145.56 149.96 145.21 C 149.05 144.86 148.04 145.31 147.69 146.22 Z M 147.42 146.97 L 147.02 147.73 C 146.57 148.59 146.90 149.65 147.75 150.10 C 148.60 150.55 149.66 150.22 150.11 149.36 L 150.51 148.61 C 150.96 147.75 150.64 146.69 149.78 146.24 C 148.93 145.79 147.87 146.12 147.42 146.97 Z M 147.23 147.42 L 146.80 147.94 C 146.18 148.68 146.27 149.78 147.01 150.40 C 147.74 151.02 148.84 150.92 149.46 150.19 L 149.90 149.67 C 150.52 148.94 150.42 147.84 149.69 147.22 C 148.95 146.60 147.85 146.69 147.23 147.42 Z M 147.57 147.41 L 146.85 147.65 C 145.94 147.96 145.45 148.95 145.76 149.87 C 146.07 150.78 147.06 151.27 147.98 150.96 L 148.69 150.72 C 149.61 150.41 150.10 149.42 149.79 148.50 C 149.47 147.59 148.48 147.10 147.57 147.41 Z M 148.12 147.69 L 147.38 147.36 C 146.49 146.97 145.45 147.38 145.05 148.28 C 144.66 149.17 145.07 150.21 145.97 150.60 L 146.71 150.92 C 147.60 151.31 148.64 150.91 149.03 150.01 C 149.42 149.12 149.02 148.08 148.12 147.69 Z M 147.97 147.76 L 147.26 147.00 C 146.59 146.29 145.46 146.25 144.74 146.92 C 144.02 147.60 143.99 148.73 144.66 149.44 L 145.37 150.20 C 146.05 150.92 147.17 150.96 147.89 150.28 C 148.61 149.61 148.65 148.48 147.97 147.76 Z M 147.51 147.31 L 146.89 146.26 C 146.38 145.40 145.28 145.12 144.42 145.62 C 143.57 146.13 143.28 147.24 143.79 148.09 L 144.41 149.14 C 144.92 150.00 146.02 150.28 146.88 149.78 C 147.74 149.27 148.02 148.16 147.51 147.31 Z M 147.01 146.48 L 146.63 145.55 C 146.24 144.62 145.18 144.19 144.26 144.57 C 143.33 144.95 142.89 146.02 143.28 146.94 L 143.67 147.87 C 144.05 148.80 145.11 149.23 146.04 148.85 C 146.96 148.46 147.40 147.40 147.01 146.48 Z M 146.69 145.71 L 146.40 144.78 C 146.11 143.82 145.10 143.28 144.14 143.57 C 143.18 143.86 142.64 144.88 142.93 145.84 L 143.22 146.77 C 143.51 147.73 144.52 148.27 145.48 147.98 C 146.44 147.69 146.98 146.67 146.69 145.71 Z M 146.44 144.92 L 146.23 143.94 C 146.01 142.96 145.05 142.34 144.07 142.55 C 143.09 142.77 142.47 143.74 142.68 144.72 L 142.89 145.69 C 143.11 146.67 144.08 147.30 145.06 147.08 C 146.03 146.87 146.66 145.90 146.44 144.92 Z M 146.25 144.06 L 146.10 143.06 C 145.96 142.07 145.03 141.38 144.04 141.53 C 143.05 141.67 142.36 142.59 142.51 143.59 L 142.66 144.59 C 142.80 145.59 143.73 146.27 144.72 146.13 C 145.71 145.98 146.40 145.06 146.25 144.06 Z M 146.12 143.16 L 146.03 142.15 C 145.94 141.15 145.06 140.41 144.06 140.49 C 143.06 140.58 142.32 141.46 142.41 142.46 L 142.49 143.48 C 142.58 144.48 143.46 145.22 144.46 145.13 C 145.46 145.05 146.20 144.17 146.12 143.16 Z M 146.03 142.24 L 146.00 141.21 C 145.96 140.21 145.12 139.42 144.12 139.46 C 143.11 139.49 142.33 140.33 142.36 141.34 L 142.40 142.37 C 142.43 143.37 143.28 144.16 144.28 144.12 C 145.28 144.09 146.07 143.24 146.03 142.24 Z M 146.00 141.31 L 146.02 140.25 C 146.04 139.25 145.24 138.42 144.24 138.40 C 143.23 138.38 142.40 139.18 142.38 140.18 L 142.36 141.24 C 142.34 142.25 143.14 143.08 144.15 143.09 C 145.15 143.11 145.98 142.32 146.00 141.31 Z M 146.01 140.38 L 146.11 139.35 C 146.20 138.35 145.46 137.47 144.46 137.38 C 143.46 137.28 142.58 138.02 142.48 139.02 L 142.39 140.05 C 142.30 141.05 143.04 141.94 144.04 142.03 C 145.04 142.12 145.92 141.38 146.01 140.38 Z M 146.08 139.52 L 146.27 138.54 C 146.45 137.55 145.80 136.60 144.81 136.42 C 143.82 136.23 142.87 136.89 142.69 137.87 L 142.51 138.85 C 142.32 139.84 142.97 140.79 143.96 140.98 C 144.95 141.16 145.90 140.51 146.08 139.52 Z M 146.22 138.75 L 146.50 137.83 C 146.80 136.87 146.27 135.85 145.31 135.55 C 144.35 135.25 143.33 135.79 143.03 136.74 L 142.74 137.66 C 142.44 138.62 142.98 139.64 143.93 139.94 C 144.89 140.24 145.91 139.71 146.22 138.75 Z M 146.40 138.08 L 146.81 137.24 C 147.25 136.34 146.87 135.25 145.97 134.81 C 145.07 134.37 143.98 134.75 143.54 135.65 L 143.13 136.49 C 142.69 137.40 143.07 138.49 143.97 138.93 C 144.88 139.36 145.96 138.99 146.40 138.08 Z M 146.63 137.53 L 147.29 136.65 C 147.89 135.85 147.73 134.71 146.92 134.11 C 146.12 133.50 144.98 133.67 144.37 134.48 L 143.72 135.36 C 143.12 136.16 143.28 137.30 144.09 137.91 C 144.89 138.51 146.03 138.34 146.63 137.53 Z M 147.03 136.93 L 147.85 136.22 C 148.61 135.56 148.68 134.41 148.02 133.65 C 147.36 132.89 146.21 132.82 145.45 133.48 L 144.64 134.19 C 143.88 134.86 143.80 136.01 144.46 136.76 C 145.13 137.52 146.28 137.60 147.03 136.93 Z M 147.49 136.47 L 148.37 136.01 C 149.26 135.55 149.61 134.45 149.15 133.56 C 148.68 132.67 147.59 132.32 146.69 132.78 L 145.81 133.23 C 144.92 133.69 144.57 134.79 145.03 135.69 C 145.50 136.58 146.59 136.93 147.49 136.47 Z M 147.80 136.19 L 148.66 136.06 C 149.65 135.91 150.34 134.99 150.19 133.99 C 150.04 133.00 149.11 132.32 148.12 132.47 L 147.26 132.59 C 146.26 132.74 145.58 133.67 145.73 134.67 C 145.88 135.66 146.81 136.34 147.80 136.19 Z M 147.81 135.99 L 148.56 136.24 C 149.51 136.56 150.54 136.04 150.86 135.09 C 151.18 134.13 150.66 133.10 149.71 132.79 L 148.96 132.54 C 148.01 132.22 146.98 132.74 146.66 133.69 C 146.34 134.65 146.86 135.67 147.81 135.99 Z M 147.86 135.81 L 148.47 136.40 C 149.19 137.10 150.34 137.09 151.04 136.37 C 151.74 135.65 151.72 134.50 151.01 133.80 L 150.40 133.21 C 149.69 132.51 148.53 132.53 147.83 133.24 C 147.13 133.96 147.15 135.11 147.86 135.81 Z M 148.16 135.99 L 148.64 136.85 C 149.13 137.72 150.24 138.03 151.11 137.53 C 151.98 137.04 152.29 135.94 151.80 135.06 L 151.32 134.21 C 150.82 133.34 149.72 133.03 148.84 133.52 C 147.97 134.02 147.66 135.12 148.16 135.99 Z M 148.51 136.56 L 148.87 137.59 C 149.21 138.53 150.24 139.03 151.19 138.69 C 152.13 138.36 152.62 137.33 152.29 136.38 L 151.93 135.35 C 151.59 134.41 150.56 133.91 149.62 134.25 C 148.67 134.58 148.18 135.61 148.51 136.56 Z M 148.82 137.38 L 149.07 138.51 C 149.29 139.48 150.25 140.10 151.23 139.88 C 152.20 139.66 152.82 138.69 152.60 137.72 L 152.35 136.59 C 152.13 135.62 151.16 135.00 150.19 135.22 C 149.21 135.44 148.60 136.41 148.82 137.38 Z M 149.04 138.34 L 149.17 139.32 C 149.30 140.31 150.20 141.00 151.19 140.88 C 152.18 140.75 152.88 139.84 152.75 138.86 L 152.62 137.88 C 152.50 136.89 151.59 136.20 150.60 136.32 C 149.61 136.45 148.92 137.36 149.04 138.34 Z M 149.16 139.15 L 149.20 140.13 C 149.23 141.13 150.07 141.90 151.06 141.86 C 152.06 141.83 152.83 140.99 152.80 140.00 L 152.76 139.02 C 152.72 138.02 151.89 137.25 150.89 137.29 C 149.90 137.32 149.12 138.16 149.16 139.15 Z M 149.20 139.95 L 149.14 140.93 C 149.08 141.92 149.83 142.78 150.82 142.84 C 151.81 142.90 152.66 142.15 152.73 141.16 L 152.79 140.18 C 152.85 139.19 152.10 138.33 151.11 138.27 C 150.12 138.21 149.27 138.96 149.20 139.95 Z M 149.17 140.73 L 148.99 141.72 C 148.82 142.70 149.47 143.63 150.45 143.80 C 151.42 143.97 152.35 143.32 152.53 142.34 L 152.70 141.36 C 152.87 140.38 152.22 139.45 151.25 139.28 C 150.27 139.11 149.34 139.76 149.17 140.73 Z M 149.04 141.52 L 148.75 142.50 C 148.46 143.45 149.00 144.45 149.95 144.74 C 150.89 145.02 151.89 144.48 152.18 143.54 L 152.47 142.55 C 152.76 141.60 152.22 140.60 151.27 140.32 C 150.33 140.03 149.33 140.57 149.04 141.52 Z M 148.82 142.31 L 148.42 143.24 C 148.03 144.14 148.45 145.20 149.35 145.59 C 150.26 145.98 151.31 145.56 151.71 144.65 L 152.10 143.73 C 152.50 142.82 152.08 141.77 151.17 141.38 C 150.26 140.99 149.21 141.40 148.82 142.31 Z M 148.50 143.07 L 148.01 143.95 C 147.53 144.81 147.84 145.90 148.70 146.38 C 149.57 146.87 150.65 146.56 151.14 145.69 L 151.62 144.82 C 152.11 143.95 151.80 142.87 150.93 142.38 C 150.07 141.90 148.98 142.21 148.50 143.07 Z M 148.10 143.81 L 147.52 144.65 C 146.96 145.47 147.17 146.58 147.98 147.14 C 148.80 147.70 149.91 147.49 150.47 146.68 L 151.05 145.83 C 151.61 145.02 151.40 143.91 150.58 143.35 C 149.77 142.79 148.66 143.00 148.10 143.81 Z M 147.62 144.53 L 146.97 145.31 C 146.34 146.07 146.44 147.20 147.20 147.83 C 147.96 148.46 149.09 148.35 149.72 147.59 L 150.37 146.81 C 151.00 146.05 150.90 144.92 150.14 144.29 C 149.38 143.66 148.25 143.77 147.62 144.53 Z M 147.08 145.19 L 146.37 145.90 C 145.67 146.60 145.67 147.73 146.37 148.43 C 147.07 149.13 148.20 149.13 148.90 148.43 L 149.61 147.72 C 150.31 147.02 150.31 145.89 149.61 145.19 C 148.91 144.49 147.78 144.49 147.08 145.19 Z M 146.51 145.78 L 145.75 146.39 C 144.99 147.01 144.87 148.14 145.49 148.90 C 146.11 149.67 147.24 149.79 148.01 149.16 L 148.76 148.55 C 149.53 147.93 149.64 146.80 149.02 146.04 C 148.40 145.27 147.27 145.15 146.51 145.78 Z M 145.94 146.25 L 145.02 146.82 C 144.18 147.34 143.91 148.44 144.43 149.28 C 144.95 150.12 146.05 150.39 146.89 149.87 L 147.82 149.30 C 148.66 148.78 148.92 147.68 148.40 146.84 C 147.88 146.00 146.78 145.73 145.94 146.25 Z M 145.28 146.68 L 144.28 147.09 C 143.37 147.47 142.93 148.51 143.30 149.43 C 143.68 150.35 144.72 150.78 145.64 150.41 L 146.63 150.00 C 147.55 149.63 147.99 148.58 147.62 147.67 C 147.24 146.75 146.19 146.31 145.28 146.68 Z M 144.61 146.99 L 143.63 147.18 C 142.66 147.38 142.02 148.32 142.22 149.30 C 142.41 150.27 143.36 150.90 144.33 150.71 L 145.31 150.51 C 146.28 150.32 146.92 149.37 146.72 148.40 C 146.53 147.43 145.58 146.80 144.61 146.99 Z M 144.04 147.15 L 143.11 147.12 C 142.11 147.09 141.28 147.87 141.25 148.86 C 141.22 149.86 142.00 150.69 143.00 150.72 L 143.93 150.75 C 144.92 150.78 145.75 149.99 145.78 149.00 C 145.81 148.01 145.03 147.18 144.04 147.15 Z M 143.58 147.19 L 142.74 146.93 C 141.78 146.64 140.77 147.17 140.48 148.12 C 140.18 149.07 140.72 150.09 141.67 150.38 L 142.52 150.64 C 143.47 150.94 144.48 150.40 144.78 149.45 C 145.07 148.50 144.54 147.49 143.58 147.19 Z M 143.22 147.16 L 142.47 146.65 C 141.65 146.09 140.52 146.31 139.96 147.14 C 139.40 147.96 139.62 149.09 140.45 149.65 L 141.19 150.15 C 142.02 150.71 143.14 150.50 143.70 149.67 C 144.26 148.84 144.05 147.72 143.22 147.16 Z M 142.82 146.95 L 142.19 146.24 C 141.53 145.49 140.38 145.42 139.63 146.08 C 138.88 146.74 138.81 147.89 139.48 148.64 L 140.10 149.35 C 140.76 150.10 141.91 150.17 142.66 149.51 C 143.41 148.85 143.48 147.70 142.82 146.95 Z M 142.40 146.52 L 141.88 145.65 C 141.38 144.79 140.27 144.50 139.40 145.01 C 138.54 145.52 138.25 146.63 138.76 147.49 L 139.27 148.36 C 139.78 149.22 140.89 149.51 141.75 149.00 C 142.61 148.50 142.90 147.38 142.40 146.52 Z M 142.00 145.89 L 141.61 144.91 C 141.23 143.98 140.17 143.53 139.24 143.91 C 138.31 144.28 137.87 145.34 138.24 146.27 L 138.64 147.25 C 139.02 148.18 140.07 148.63 141.00 148.25 C 141.93 147.88 142.38 146.82 142.00 145.89 Z M 141.68 145.11 L 141.40 144.09 C 141.13 143.12 140.13 142.55 139.16 142.81 C 138.20 143.08 137.63 144.08 137.89 145.05 L 138.17 146.07 C 138.44 147.04 139.44 147.61 140.41 147.34 C 141.37 147.08 141.94 146.08 141.68 145.11 Z M 141.44 144.26 L 141.27 143.28 C 141.10 142.29 140.16 141.62 139.17 141.79 C 138.18 141.96 137.51 142.90 137.68 143.89 L 137.85 144.87 C 138.02 145.87 138.96 146.53 139.95 146.36 C 140.94 146.19 141.61 145.25 141.44 144.26 Z M 141.29 143.44 L 141.21 142.44 C 141.13 141.44 140.25 140.69 139.24 140.78 C 138.24 140.86 137.49 141.74 137.58 142.74 L 137.66 143.74 C 137.74 144.74 138.62 145.49 139.63 145.40 C 140.63 145.32 141.37 144.44 141.29 143.44 Z M 141.22 142.59 L 141.22 141.59 C 141.21 140.58 140.40 139.76 139.39 139.77 C 138.38 139.77 137.57 140.59 137.57 141.59 L 137.57 142.60 C 137.57 143.60 138.39 144.42 139.40 144.42 C 140.40 144.41 141.22 143.60 141.22 142.59 Z M 141.21 141.72 L 141.29 140.72 C 141.36 139.72 140.61 138.84 139.60 138.77 C 138.59 138.69 137.72 139.45 137.64 140.45 L 137.57 141.46 C 137.50 142.46 138.25 143.34 139.26 143.41 C 140.26 143.49 141.14 142.73 141.21 141.72 Z M 141.27 140.85 L 141.42 139.85 C 141.57 138.85 140.88 137.92 139.88 137.77 C 138.88 137.63 137.95 138.32 137.80 139.32 L 137.66 140.32 C 137.51 141.32 138.20 142.25 139.20 142.40 C 140.20 142.55 141.13 141.85 141.27 140.85 Z M 141.40 139.99 L 141.66 138.89 C 141.88 137.91 141.27 136.92 140.28 136.69 C 139.29 136.46 138.31 137.08 138.08 138.07 L 137.82 139.17 C 137.60 140.16 138.21 141.14 139.20 141.37 C 140.19 141.60 141.17 140.98 141.40 139.99 Z M 141.60 139.11 L 141.96 138.10 C 142.31 137.15 141.81 136.09 140.85 135.74 C 139.90 135.40 138.84 135.89 138.49 136.85 L 138.13 137.85 C 137.79 138.81 138.28 139.87 139.24 140.22 C 140.20 140.56 141.26 140.06 141.60 139.11 Z M 141.83 138.41 L 142.31 137.59 C 142.83 136.70 142.53 135.57 141.65 135.05 C 140.77 134.53 139.63 134.83 139.11 135.71 L 138.63 136.54 C 138.11 137.43 138.41 138.56 139.29 139.08 C 140.18 139.60 141.31 139.30 141.83 138.41 Z M 141.99 138.01 L 142.61 137.42 C 143.36 136.72 143.40 135.54 142.70 134.79 C 142.00 134.04 140.82 134.00 140.07 134.70 L 139.44 135.29 C 138.69 135.99 138.65 137.17 139.35 137.92 C 140.06 138.67 141.24 138.71 141.99 138.01 Z M 141.95 137.83 L 142.76 137.55 C 143.73 137.21 144.25 136.14 143.91 135.17 C 143.57 134.19 142.50 133.68 141.53 134.02 L 140.72 134.30 C 139.75 134.64 139.23 135.70 139.57 136.68 C 139.91 137.65 140.98 138.17 141.95 137.83 Z M 142.03 137.65 L 142.96 137.71 C 143.99 137.77 144.88 136.99 144.94 135.95 C 145.01 134.92 144.22 134.04 143.19 133.97 L 142.26 133.92 C 141.23 133.85 140.34 134.64 140.28 135.67 C 140.21 136.70 141.00 137.59 142.03 137.65 Z M 142.41 137.58 L 143.35 137.95 C 144.31 138.32 145.39 137.83 145.76 136.87 C 146.13 135.91 145.65 134.83 144.69 134.46 L 143.75 134.09 C 142.78 133.72 141.70 134.21 141.33 135.17 C 140.96 136.13 141.44 137.21 142.41 137.58 Z M 142.91 137.71 L 143.76 138.33 C 144.60 138.94 145.76 138.76 146.37 137.93 C 146.98 137.10 146.81 135.93 145.97 135.32 L 145.12 134.70 C 144.29 134.09 143.12 134.26 142.51 135.10 C 141.90 135.93 142.08 137.10 142.91 137.71 Z M 143.41 137.98 L 144.02 138.76 C 144.66 139.57 145.83 139.70 146.64 139.06 C 147.45 138.42 147.59 137.25 146.95 136.44 L 146.33 135.67 C 145.69 134.86 144.52 134.72 143.71 135.36 C 142.90 136.00 142.77 137.18 143.41 137.98 Z M 143.79 138.37 L 144.14 139.16 C 144.56 140.09 145.67 140.51 146.61 140.09 C 147.54 139.67 147.96 138.56 147.54 137.62 L 147.18 136.84 C 146.76 135.90 145.66 135.48 144.72 135.90 C 143.78 136.33 143.36 137.43 143.79 138.37 Z M 144.03 138.83 L 144.25 139.72 C 144.49 140.72 145.50 141.33 146.49 141.09 C 147.49 140.85 148.11 139.85 147.86 138.85 L 147.65 137.95 C 147.40 136.95 146.40 136.34 145.40 136.58 C 144.40 136.82 143.79 137.83 144.03 138.83 Z M 144.21 139.47 L 144.31 140.46 C 144.41 141.48 145.31 142.23 146.34 142.13 C 147.36 142.03 148.10 141.12 148.00 140.10 L 147.90 139.10 C 147.80 138.08 146.90 137.34 145.87 137.44 C 144.85 137.54 144.11 138.45 144.21 139.47 Z M 144.30 140.27 L 144.30 141.35 C 144.29 142.38 145.12 143.21 146.15 143.21 C 147.17 143.21 148.00 142.39 148.00 141.36 L 148.01 140.28 C 148.01 139.26 147.18 138.43 146.16 138.42 C 145.13 138.42 144.30 139.25 144.30 140.27 Z M 144.31 141.22 L 144.22 142.38 C 144.15 143.40 144.92 144.29 145.94 144.36 C 146.95 144.43 147.84 143.67 147.91 142.65 L 148.00 141.49 C 148.07 140.47 147.30 139.58 146.28 139.51 C 145.26 139.44 144.38 140.21 144.31 141.22 Z M 144.23 142.30 L 144.11 143.30 C 144.00 144.31 144.72 145.23 145.73 145.35 C 146.75 145.47 147.67 144.74 147.79 143.73 L 147.90 142.73 C 148.02 141.72 147.30 140.80 146.28 140.68 C 145.27 140.56 144.35 141.28 144.23 142.30 Z M 144.13 143.21 L 143.96 144.22 C 143.80 145.22 144.48 146.17 145.49 146.34 C 146.50 146.50 147.45 145.82 147.61 144.81 L 147.77 143.81 C 147.94 142.80 147.26 141.85 146.25 141.69 C 145.24 141.52 144.29 142.21 144.13 143.21 Z M 143.98 144.11 L 143.76 145.12 C 143.54 146.11 144.17 147.10 145.17 147.32 C 146.16 147.54 147.15 146.91 147.37 145.91 L 147.59 144.91 C 147.81 143.92 147.18 142.93 146.19 142.71 C 145.19 142.49 144.20 143.12 143.98 144.11 Z M 143.80 144.99 L 143.51 145.97 C 143.22 146.95 143.77 147.97 144.75 148.26 C 145.73 148.55 146.75 147.99 147.04 147.02 L 147.33 146.04 C 147.62 145.06 147.07 144.04 146.09 143.75 C 145.11 143.46 144.08 144.01 143.80 144.99 Z M 143.56 145.82 L 143.19 146.75 C 142.82 147.69 143.28 148.77 144.23 149.14 C 145.18 149.51 146.25 149.05 146.62 148.10 L 146.99 147.17 C 147.37 146.22 146.90 145.15 145.95 144.78 C 145.01 144.40 143.93 144.87 143.56 145.82 Z M 143.28 146.56 L 142.82 147.42 C 142.34 148.32 142.69 149.44 143.59 149.92 C 144.49 150.39 145.60 150.05 146.08 149.15 L 146.54 148.29 C 147.01 147.39 146.67 146.27 145.77 145.79 C 144.87 145.32 143.75 145.66 143.28 146.56 Z M 142.96 147.20 L 142.38 148.00 C 141.78 148.83 141.96 149.98 142.79 150.58 C 143.61 151.18 144.76 150.99 145.36 150.17 L 145.94 149.37 C 146.54 148.54 146.36 147.39 145.53 146.79 C 144.71 146.20 143.56 146.38 142.96 147.20 Z M 142.59 147.76 L 141.77 148.55 C 141.03 149.25 141.01 150.42 141.72 151.15 C 142.42 151.89 143.59 151.91 144.32 151.21 L 145.15 150.42 C 145.88 149.71 145.90 148.54 145.20 147.81 C 144.50 147.08 143.33 147.05 142.59 147.76 Z M 142.04 148.33 L 141.13 148.93 C 140.27 149.48 140.03 150.62 140.58 151.47 C 141.14 152.33 142.28 152.57 143.13 152.02 L 144.05 151.42 C 144.90 150.87 145.14 149.73 144.59 148.88 C 144.04 148.02 142.90 147.78 142.04 148.33 Z M 141.45 148.76 L 140.51 149.13 C 139.56 149.51 139.10 150.58 139.47 151.52 C 139.85 152.47 140.92 152.93 141.86 152.56 L 142.81 152.18 C 143.75 151.81 144.21 150.74 143.84 149.79 C 143.47 148.85 142.40 148.39 141.45 148.76 Z M 140.92 149.02 L 140.02 149.16 C 139.01 149.30 138.31 150.23 138.46 151.24 C 138.60 152.25 139.54 152.94 140.54 152.80 L 141.45 152.67 C 142.45 152.52 143.15 151.59 143.01 150.58 C 142.86 149.58 141.93 148.88 140.92 149.02 Z M 140.58 149.16 L 139.78 149.03 C 138.77 148.86 137.83 149.54 137.66 150.54 C 137.49 151.54 138.17 152.49 139.17 152.66 L 139.98 152.79 C 140.98 152.96 141.93 152.28 142.09 151.28 C 142.26 150.28 141.58 149.33 140.58 149.16 Z M 140.46 149.29 L 139.83 148.89 C 138.97 148.34 137.83 148.60 137.29 149.45 C 136.74 150.31 136.99 151.45 137.85 151.99 L 138.49 152.40 C 139.34 152.94 140.48 152.69 141.03 151.83 C 141.57 150.97 141.32 149.84 140.46 149.29 Z M 140.32 149.35 L 139.84 148.70 C 139.24 147.88 138.08 147.71 137.27 148.31 C 136.45 148.92 136.28 150.07 136.88 150.89 L 137.36 151.53 C 137.96 152.35 139.12 152.52 139.93 151.92 C 140.75 151.31 140.92 150.16 140.32 149.35 Z M 140.06 149.09 L 139.71 148.24 C 139.32 147.30 138.25 146.85 137.31 147.24 C 136.37 147.63 135.92 148.70 136.31 149.64 L 136.66 150.49 C 137.05 151.43 138.12 151.88 139.06 151.49 C 140.00 151.11 140.45 150.03 140.06 149.09 Z M 139.80 148.51 L 139.55 147.49 C 139.31 146.50 138.32 145.89 137.33 146.13 C 136.34 146.37 135.74 147.37 135.98 148.35 L 136.22 149.37 C 136.46 150.36 137.46 150.97 138.44 150.73 C 139.43 150.49 140.04 149.49 139.80 148.51 Z M 139.58 147.65 L 139.41 146.51 C 139.27 145.50 138.33 144.81 137.33 144.95 C 136.32 145.10 135.63 146.04 135.78 147.04 L 135.94 148.19 C 136.09 149.19 137.03 149.89 138.03 149.74 C 139.03 149.59 139.73 148.66 139.58 147.65 Z M 139.42 146.60 L 139.31 145.41 C 139.22 144.40 138.33 143.66 137.32 143.75 C 136.31 143.84 135.56 144.74 135.65 145.75 L 135.76 146.94 C 135.86 147.95 136.75 148.70 137.76 148.60 C 138.77 148.51 139.52 147.61 139.42 146.60 Z M 139.32 145.46 L 139.26 144.46 C 139.19 143.45 138.32 142.68 137.31 142.74 C 136.29 142.80 135.52 143.68 135.59 144.69 L 135.65 145.69 C 135.71 146.71 136.59 147.48 137.60 147.41 C 138.61 147.35 139.38 146.48 139.32 145.46 Z M 139.26 144.51 L 139.22 143.49 C 139.19 142.47 138.33 141.68 137.31 141.71 C 136.30 141.75 135.50 142.61 135.54 143.63 L 135.58 144.65 C 135.62 145.66 136.48 146.46 137.49 146.42 C 138.51 146.38 139.30 145.52 139.26 144.51 Z M 139.23 143.53 L 139.21 142.50 C 139.20 141.48 138.36 140.67 137.35 140.68 C 136.33 140.70 135.51 141.53 135.53 142.55 L 135.54 143.58 C 135.55 144.60 136.39 145.41 137.41 145.40 C 138.43 145.39 139.24 144.55 139.23 143.53 Z M 139.22 142.55 L 139.23 141.53 C 139.24 140.51 138.43 139.67 137.41 139.66 C 136.39 139.64 135.55 140.46 135.54 141.48 L 135.52 142.50 C 135.51 143.52 136.33 144.36 137.35 144.37 C 138.37 144.39 139.20 143.57 139.22 142.55 Z M 139.23 141.58 L 139.27 140.57 C 139.32 139.55 138.52 138.69 137.50 138.65 C 136.48 138.61 135.62 139.40 135.58 140.42 L 135.53 141.42 C 135.49 142.45 136.28 143.31 137.31 143.35 C 138.33 143.39 139.19 142.60 139.23 141.58 Z M 139.27 140.63 L 139.35 139.66 C 139.42 138.64 138.66 137.75 137.64 137.67 C 136.62 137.60 135.73 138.36 135.65 139.38 L 135.58 140.36 C 135.50 141.38 136.27 142.27 137.29 142.34 C 138.31 142.42 139.20 141.66 139.27 140.63 Z M 139.34 139.73 L 139.45 138.80 C 139.56 137.78 138.83 136.86 137.81 136.74 C 136.79 136.63 135.87 137.36 135.76 138.38 L 135.65 139.31 C 135.54 140.33 136.27 141.25 137.29 141.37 C 138.31 141.48 139.23 140.75 139.34 139.73 Z M 139.44 138.89 L 139.62 137.80 C 139.78 136.79 139.09 135.83 138.08 135.67 C 137.07 135.50 136.11 136.19 135.95 137.20 L 135.77 138.29 C 135.60 139.30 136.29 140.26 137.30 140.42 C 138.32 140.59 139.27 139.90 139.44 138.89 Z M 139.60 137.91 L 139.83 136.89 C 140.05 135.89 139.42 134.89 138.42 134.67 C 137.41 134.44 136.42 135.07 136.19 136.07 L 135.97 137.09 C 135.74 138.10 136.37 139.09 137.37 139.32 C 138.38 139.54 139.37 138.91 139.60 137.91 Z M 139.80 137.00 L 140.08 136.04 C 140.36 135.05 139.79 134.02 138.80 133.73 C 137.81 133.45 136.78 134.02 136.49 135.01 L 136.22 135.97 C 135.93 136.96 136.51 137.99 137.50 138.27 C 138.48 138.56 139.52 137.99 139.80 137.00 Z M 140.05 136.14 L 140.36 135.23 C 140.70 134.26 140.19 133.20 139.22 132.86 C 138.25 132.52 137.18 133.03 136.84 134.00 L 136.52 134.91 C 136.18 135.88 136.70 136.95 137.67 137.29 C 138.64 137.63 139.71 137.11 140.05 136.14 Z M 140.33 135.33 L 140.69 134.45 C 141.08 133.50 140.62 132.41 139.67 132.02 C 138.71 131.62 137.62 132.08 137.23 133.04 L 136.87 133.91 C 136.48 134.86 136.94 135.95 137.89 136.35 C 138.85 136.74 139.94 136.28 140.33 135.33 Z M 140.66 134.53 L 141.07 133.65 C 141.50 132.71 141.10 131.60 140.16 131.16 C 139.22 130.73 138.11 131.13 137.68 132.07 L 137.26 132.96 C 136.83 133.89 137.24 135.01 138.17 135.44 C 139.11 135.88 140.22 135.47 140.66 134.53 Z M 141.03 133.74 L 141.54 132.76 C 142.03 131.85 141.68 130.72 140.77 130.23 C 139.85 129.75 138.72 130.10 138.23 131.01 L 137.72 131.98 C 137.23 132.90 137.58 134.03 138.50 134.51 C 139.41 135.00 140.54 134.65 141.03 133.74 Z M 141.46 132.90 L 142.03 132.01 C 142.59 131.15 142.35 129.99 141.48 129.43 C 140.61 128.87 139.45 129.11 138.89 129.98 L 138.32 130.87 C 137.76 131.74 138.00 132.90 138.87 133.46 C 139.74 134.02 140.90 133.77 141.46 132.90 Z M 141.88 132.22 L 142.52 131.47 C 143.19 130.68 143.10 129.50 142.32 128.83 C 141.53 128.16 140.35 128.25 139.68 129.04 L 139.04 129.78 C 138.37 130.57 138.46 131.75 139.25 132.42 C 140.03 133.09 141.21 133.00 141.88 132.22 Z M 142.25 131.73 L 142.96 131.18 C 143.77 130.55 143.92 129.37 143.29 128.56 C 142.66 127.74 141.48 127.59 140.66 128.22 L 139.95 128.77 C 139.14 129.41 138.99 130.58 139.62 131.40 C 140.25 132.22 141.43 132.37 142.25 131.73 Z M 142.46 131.46 L 143.29 131.15 C 144.26 130.79 144.76 129.71 144.40 128.74 C 144.04 127.77 142.96 127.28 141.99 127.64 L 141.16 127.95 C 140.19 128.31 139.69 129.38 140.05 130.35 C 140.41 131.32 141.49 131.82 142.46 131.46 Z M 142.65 131.27 L 143.61 131.26 C 144.65 131.26 145.48 130.42 145.48 129.38 C 145.47 128.35 144.63 127.52 143.60 127.52 L 142.63 127.52 C 141.60 127.53 140.77 128.37 140.77 129.40 C 140.78 130.44 141.62 131.27 142.65 131.27 Z M 143.05 131.18 L 144.00 131.47 C 144.99 131.78 146.04 131.22 146.34 130.24 C 146.65 129.25 146.10 128.20 145.11 127.90 L 144.16 127.60 C 143.17 127.30 142.12 127.85 141.82 128.84 C 141.51 129.82 142.07 130.87 143.05 131.18 Z M 143.55 131.26 L 144.41 131.81 C 145.28 132.36 146.43 132.11 146.99 131.24 C 147.54 130.37 147.29 129.21 146.42 128.66 L 145.56 128.11 C 144.69 127.55 143.54 127.81 142.98 128.68 C 142.43 129.55 142.68 130.70 143.55 131.26 Z M 144.03 131.48 L 144.70 132.23 C 145.39 132.99 146.57 133.06 147.34 132.37 C 148.10 131.68 148.16 130.50 147.47 129.73 L 146.80 128.98 C 146.11 128.22 144.93 128.16 144.16 128.85 C 143.40 129.54 143.34 130.72 144.03 131.48 Z M 144.42 131.82 L 144.84 132.64 C 145.30 133.56 146.42 133.93 147.34 133.47 C 148.26 133.00 148.63 131.88 148.17 130.96 L 147.75 130.14 C 147.29 129.22 146.16 128.85 145.24 129.31 C 144.33 129.78 143.96 130.90 144.42 131.82 Z M 144.70 132.29 L 144.96 133.22 C 145.23 134.21 146.25 134.80 147.25 134.53 C 148.24 134.26 148.82 133.23 148.55 132.24 L 148.30 131.31 C 148.03 130.32 147.00 129.73 146.01 130.00 C 145.02 130.28 144.43 131.30 144.70 132.29 Z M 144.91 132.97 L 145.04 133.97 C 145.17 134.99 146.11 135.71 147.13 135.58 C 148.15 135.45 148.87 134.51 148.73 133.49 L 148.60 132.49 C 148.47 131.47 147.53 130.75 146.51 130.88 C 145.49 131.02 144.78 131.95 144.91 132.97 Z M 145.03 133.82 L 145.08 134.87 C 145.12 135.90 145.99 136.69 147.02 136.64 C 148.05 136.60 148.84 135.73 148.79 134.70 L 148.74 133.65 C 148.70 132.62 147.83 131.83 146.80 131.88 C 145.78 131.92 144.98 132.79 145.03 133.82 Z M 145.08 134.79 L 145.08 135.83 C 145.08 136.85 145.92 137.68 146.95 137.68 C 147.97 137.67 148.80 136.84 148.80 135.81 L 148.79 134.78 C 148.79 133.75 147.95 132.92 146.93 132.93 C 145.90 132.93 145.07 133.76 145.08 134.79 Z M 145.08 135.78 L 145.06 136.76 C 145.03 137.79 145.84 138.64 146.87 138.66 C 147.90 138.69 148.75 137.87 148.77 136.85 L 148.80 135.86 C 148.82 134.84 148.01 133.99 146.98 133.96 C 145.96 133.94 145.11 134.75 145.08 135.78 Z M 145.06 136.67 L 144.99 137.66 C 144.92 138.68 145.69 139.57 146.72 139.64 C 147.74 139.71 148.63 138.94 148.70 137.92 L 148.77 136.94 C 148.84 135.91 148.07 135.02 147.05 134.95 C 146.02 134.88 145.13 135.65 145.06 136.67 Z M 145.01 137.53 L 144.87 138.52 C 144.73 139.54 145.44 140.47 146.46 140.61 C 147.47 140.75 148.41 140.04 148.55 139.03 L 148.69 138.04 C 148.83 137.03 148.12 136.09 147.10 135.95 C 146.08 135.81 145.15 136.52 145.01 137.53 Z M 144.90 138.36 L 144.68 139.35 C 144.45 140.35 145.08 141.34 146.08 141.57 C 147.08 141.80 148.07 141.17 148.30 140.17 L 148.52 139.18 C 148.75 138.18 148.12 137.19 147.12 136.96 C 146.12 136.74 145.13 137.36 144.90 138.36 Z M 144.73 139.17 L 144.40 140.13 C 144.08 141.10 144.60 142.15 145.57 142.48 C 146.55 142.80 147.60 142.28 147.92 141.31 L 148.25 140.35 C 148.57 139.38 148.05 138.32 147.08 138.00 C 146.11 137.67 145.05 138.19 144.73 139.17 Z M 144.47 139.95 L 144.08 140.83 C 143.66 141.76 144.07 142.86 145.01 143.28 C 145.94 143.70 147.04 143.29 147.46 142.35 L 147.86 141.48 C 148.28 140.55 147.86 139.45 146.93 139.03 C 145.99 138.60 144.89 139.02 144.47 139.95 Z M 144.15 140.68 L 143.67 141.54 C 143.17 142.43 143.48 143.56 144.37 144.06 C 145.26 144.57 146.40 144.25 146.90 143.36 L 147.39 142.50 C 147.89 141.61 147.58 140.48 146.68 139.98 C 145.79 139.47 144.66 139.79 144.15 140.68 Z M 143.76 141.40 L 143.19 142.23 C 142.61 143.07 142.82 144.23 143.67 144.81 C 144.51 145.39 145.67 145.17 146.25 144.33 L 146.82 143.50 C 147.39 142.65 147.18 141.50 146.33 140.92 C 145.49 140.34 144.33 140.55 143.76 141.40 Z M 143.28 142.10 L 142.64 142.89 C 141.99 143.69 142.10 144.85 142.90 145.50 C 143.69 146.15 144.86 146.03 145.51 145.24 L 146.15 144.45 C 146.80 143.66 146.68 142.49 145.89 141.84 C 145.10 141.19 143.93 141.31 143.28 142.10 Z M 142.74 142.78 L 142.03 143.51 C 141.31 144.25 141.33 145.42 142.06 146.13 C 142.80 146.85 143.97 146.83 144.68 146.10 L 145.40 145.36 C 146.11 144.63 146.10 143.45 145.36 142.74 C 144.63 142.03 143.46 142.04 142.74 142.78 Z M 142.15 143.40 L 141.30 144.12 C 140.52 144.79 140.43 145.96 141.09 146.74 C 141.76 147.51 142.93 147.61 143.70 146.94 L 144.56 146.21 C 145.34 145.55 145.43 144.38 144.76 143.60 C 144.10 142.82 142.93 142.73 142.15 143.40 Z M 141.46 144.01 L 140.46 144.69 C 139.62 145.26 139.41 146.42 139.98 147.26 C 140.56 148.10 141.71 148.32 142.56 147.74 L 143.55 147.06 C 144.39 146.48 144.61 145.33 144.03 144.49 C 143.45 143.64 142.30 143.43 141.46 144.01 Z M 140.67 144.57 L 139.69 145.07 C 138.79 145.53 138.43 146.64 138.89 147.55 C 139.35 148.46 140.46 148.82 141.37 148.36 L 142.35 147.86 C 143.26 147.39 143.62 146.28 143.15 145.37 C 142.69 144.46 141.58 144.10 140.67 144.57 Z M 140.01 144.94 L 139.12 145.21 C 138.14 145.50 137.59 146.52 137.88 147.50 C 138.16 148.47 139.19 149.03 140.17 148.74 L 141.06 148.48 C 142.03 148.19 142.59 147.16 142.30 146.19 C 142.01 145.21 140.99 144.65 140.01 144.94 Z M 139.70 145.13 L 138.96 145.11 C 137.95 145.08 137.10 145.88 137.07 146.90 C 137.04 147.91 137.84 148.76 138.85 148.79 L 139.59 148.81 C 140.60 148.84 141.45 148.05 141.48 147.03 C 141.51 146.01 140.71 145.17 139.70 145.13 Z M 139.99 145.46 L 139.45 145.07 C 138.62 144.48 137.48 144.66 136.88 145.49 C 136.29 146.31 136.47 147.46 137.29 148.05 L 137.83 148.44 C 138.65 149.04 139.80 148.85 140.40 148.03 C 140.99 147.21 140.81 146.06 139.99 145.46 Z M 140.08 145.91 L 139.80 145.16 C 139.44 144.21 138.38 143.73 137.43 144.09 C 136.49 144.45 136.01 145.51 136.37 146.46 L 136.65 147.21 C 137.01 148.16 138.07 148.64 139.02 148.28 C 139.97 147.92 140.44 146.86 140.08 145.91 Z M 139.91 145.71 L 139.86 144.70 C 139.80 143.69 138.94 142.92 137.93 142.97 C 136.92 143.02 136.15 143.89 136.20 144.89 L 136.26 145.90 C 136.31 146.91 137.17 147.69 138.18 147.63 C 139.19 147.58 139.96 146.72 139.91 145.71 Z M 139.84 145.01 L 139.98 143.85 C 140.09 142.85 139.38 141.95 138.38 141.83 C 137.38 141.71 136.47 142.43 136.35 143.43 L 136.22 144.58 C 136.10 145.59 136.82 146.49 137.82 146.61 C 138.82 146.73 139.72 146.01 139.84 145.01 Z M 139.94 144.05 L 140.20 142.93 C 140.43 141.95 139.82 140.97 138.84 140.74 C 137.86 140.51 136.88 141.12 136.65 142.10 L 136.39 143.23 C 136.16 144.21 136.77 145.19 137.75 145.42 C 138.73 145.64 139.71 145.03 139.94 144.05 Z M 140.16 143.08 L 140.47 142.12 C 140.78 141.17 140.26 140.14 139.30 139.83 C 138.34 139.52 137.32 140.04 137.00 141.00 L 136.69 141.95 C 136.38 142.91 136.91 143.94 137.86 144.25 C 138.82 144.56 139.85 144.04 140.16 143.08 Z M 140.43 142.25 L 140.80 141.32 C 141.19 140.39 140.74 139.32 139.81 138.94 C 138.87 138.56 137.81 139.01 137.43 139.94 L 137.05 140.87 C 136.67 141.80 137.11 142.87 138.05 143.25 C 138.98 143.63 140.04 143.18 140.43 142.25 Z M 140.76 141.44 L 141.20 140.54 C 141.64 139.63 141.27 138.54 140.36 138.09 C 139.46 137.65 138.36 138.02 137.92 138.93 L 137.48 139.83 C 137.03 140.73 137.41 141.83 138.31 142.27 C 139.22 142.71 140.31 142.34 140.76 141.44 Z M 141.14 140.64 L 141.64 139.77 C 142.14 138.90 141.84 137.78 140.96 137.28 C 140.08 136.78 138.97 137.08 138.46 137.96 L 137.97 138.82 C 137.47 139.70 137.77 140.82 138.65 141.32 C 139.53 141.82 140.64 141.52 141.14 140.64 Z M 141.58 139.87 L 142.13 139.04 C 142.68 138.19 142.44 137.05 141.60 136.50 C 140.75 135.95 139.61 136.19 139.06 137.03 L 138.52 137.87 C 137.97 138.71 138.20 139.85 139.05 140.40 C 139.90 140.95 141.03 140.71 141.58 139.87 Z M 142.06 139.14 L 142.79 138.17 C 143.40 137.36 143.24 136.21 142.43 135.60 C 141.62 134.99 140.47 135.15 139.86 135.96 L 139.13 136.93 C 138.52 137.74 138.68 138.89 139.49 139.50 C 140.30 140.11 141.45 139.95 142.06 139.14 Z M 142.66 138.32 L 143.42 137.51 C 144.12 136.77 144.08 135.61 143.34 134.92 C 142.60 134.23 141.44 134.26 140.75 135.00 L 139.99 135.81 C 139.30 136.55 139.33 137.71 140.07 138.40 C 140.81 139.10 141.97 139.06 142.66 138.32 Z M 143.17 137.74 L 143.93 137.19 C 144.74 136.59 144.92 135.44 144.33 134.62 C 143.73 133.80 142.58 133.62 141.76 134.22 L 141.00 134.77 C 140.18 135.37 140.01 136.52 140.60 137.34 C 141.20 138.16 142.35 138.34 143.17 137.74 Z M 143.33 137.48 L 144.05 137.28 C 145.03 137.01 145.61 135.99 145.34 135.01 C 145.06 134.04 144.05 133.46 143.07 133.73 L 142.35 133.93 C 141.37 134.20 140.80 135.22 141.07 136.19 C 141.34 137.17 142.35 137.75 143.33 137.48 Z M 142.95 137.24 L 143.60 137.47 C 144.56 137.81 145.61 137.31 145.95 136.36 C 146.29 135.40 145.80 134.35 144.84 134.01 L 144.18 133.77 C 143.23 133.43 142.17 133.93 141.83 134.89 C 141.49 135.84 141.99 136.89 142.95 137.24 Z M 142.86 136.98 L 143.44 137.61 C 144.12 138.36 145.28 138.41 146.03 137.73 C 146.78 137.04 146.84 135.88 146.15 135.13 L 145.58 134.50 C 144.89 133.75 143.73 133.70 142.98 134.38 C 142.23 135.07 142.18 136.23 142.86 136.98 Z M 143.16 137.21 L 143.64 138.14 C 144.11 139.04 145.21 139.39 146.11 138.93 C 147.01 138.46 147.37 137.35 146.90 136.45 L 146.43 135.53 C 145.96 134.63 144.85 134.27 143.95 134.74 C 143.05 135.20 142.70 136.31 143.16 137.21 Z M 143.53 137.87 L 143.90 138.99 C 144.22 139.96 145.25 140.48 146.22 140.16 C 147.18 139.85 147.70 138.81 147.39 137.85 L 147.01 136.72 C 146.70 135.76 145.66 135.24 144.70 135.55 C 143.74 135.87 143.21 136.91 143.53 137.87 Z M 143.85 138.80 L 144.08 139.87 C 144.29 140.86 145.26 141.49 146.25 141.28 C 147.24 141.07 147.87 140.10 147.66 139.11 L 147.44 138.04 C 147.23 137.05 146.25 136.42 145.26 136.63 C 144.27 136.84 143.64 137.81 143.85 138.80 Z M 144.05 139.71 L 144.17 140.70 C 144.30 141.70 145.21 142.42 146.21 142.29 C 147.21 142.17 147.93 141.26 147.80 140.26 L 147.68 139.27 C 147.56 138.27 146.65 137.55 145.65 137.68 C 144.65 137.80 143.93 138.71 144.05 139.71 Z M 144.17 140.55 L 144.20 141.55 C 144.24 142.56 145.09 143.34 146.10 143.31 C 147.10 143.27 147.89 142.42 147.85 141.41 L 147.81 140.41 C 147.77 139.40 146.93 138.62 145.92 138.66 C 144.91 138.70 144.13 139.54 144.17 140.55 Z M 144.21 141.40 L 144.16 142.40 C 144.11 143.41 144.89 144.26 145.89 144.31 C 146.90 144.35 147.75 143.58 147.80 142.58 L 147.85 141.57 C 147.89 140.57 147.12 139.71 146.11 139.67 C 145.11 139.62 144.26 140.39 144.21 141.40 Z M 144.18 142.24 L 144.04 143.23 C 143.91 144.23 144.60 145.14 145.59 145.28 C 146.59 145.42 147.50 144.73 147.64 143.73 L 147.78 142.74 C 147.92 141.74 147.22 140.83 146.23 140.69 C 145.24 140.55 144.32 141.25 144.18 142.24 Z M 144.08 143.06 L 143.83 144.09 C 143.60 145.06 144.19 146.04 145.16 146.28 C 146.14 146.51 147.12 145.91 147.35 144.94 L 147.60 143.91 C 147.84 142.94 147.24 141.96 146.27 141.72 C 145.30 141.49 144.32 142.08 144.08 143.06 Z M 143.90 143.88 L 143.42 145.15 C 143.07 146.08 143.55 147.12 144.48 147.47 C 145.41 147.83 146.45 147.35 146.81 146.42 L 147.28 145.15 C 147.63 144.22 147.16 143.18 146.23 142.82 C 145.29 142.47 144.25 142.95 143.90 143.88 Z M 143.53 144.93 L 142.99 145.93 C 142.52 146.81 142.84 147.90 143.72 148.37 C 144.59 148.84 145.69 148.52 146.16 147.64 L 146.70 146.64 C 147.17 145.76 146.84 144.67 145.97 144.20 C 145.09 143.73 144.00 144.05 143.53 144.93 Z M 143.21 145.62 L 142.72 146.19 C 142.08 146.95 142.17 148.08 142.92 148.72 C 143.68 149.37 144.81 149.28 145.45 148.52 L 145.94 147.95 C 146.58 147.20 146.49 146.07 145.74 145.42 C 144.98 144.78 143.85 144.87 143.21 145.62 Z M 144.20 145.57 L 143.88 145.55 C 142.89 145.49 142.04 146.24 141.98 147.23 C 141.92 148.21 142.67 149.06 143.66 149.12 L 143.98 149.14 C 144.96 149.21 145.81 148.46 145.87 147.47 C 145.93 146.48 145.18 145.63 144.20 145.57 Z M 145.53 147.07 L 145.44 146.44 C 145.29 145.47 144.38 144.80 143.41 144.94 C 142.43 145.09 141.76 146.00 141.90 146.98 L 142.00 147.61 C 142.15 148.58 143.06 149.25 144.03 149.11 C 145.01 148.96 145.68 148.05 145.53 147.07 Z M 145.45 146.89 L 145.56 145.84 C 145.65 144.85 144.94 143.98 143.95 143.88 C 142.97 143.78 142.09 144.50 142.00 145.48 L 141.89 146.53 C 141.79 147.52 142.51 148.39 143.49 148.49 C 144.48 148.59 145.35 147.87 145.45 146.89 Z M 145.53 146.03 L 145.80 144.76 C 146.01 143.80 145.39 142.85 144.42 142.64 C 143.46 142.43 142.50 143.05 142.30 144.02 L 142.03 145.29 C 141.82 146.25 142.43 147.20 143.40 147.41 C 144.37 147.62 145.32 147.00 145.53 146.03 Z M 145.76 144.92 L 146.11 143.79 C 146.40 142.84 145.87 141.84 144.92 141.55 C 143.98 141.26 142.97 141.79 142.68 142.73 L 142.33 143.86 C 142.04 144.81 142.57 145.81 143.52 146.10 C 144.47 146.39 145.47 145.86 145.76 144.92 Z M 146.08 143.90 L 146.43 142.95 C 146.79 142.02 146.32 140.98 145.39 140.63 C 144.46 140.28 143.42 140.75 143.07 141.68 L 142.71 142.63 C 142.36 143.56 142.83 144.59 143.76 144.94 C 144.69 145.29 145.73 144.83 146.08 143.90 Z M 146.43 142.99 L 146.80 142.06 C 147.17 141.14 146.73 140.09 145.80 139.72 C 144.88 139.34 143.83 139.79 143.45 140.71 L 143.08 141.64 C 142.71 142.56 143.15 143.62 144.08 143.99 C 145.00 144.36 146.05 143.91 146.43 142.99 Z M 146.82 142.04 L 147.17 141.12 C 147.53 140.19 147.07 139.14 146.13 138.78 C 145.20 138.42 144.15 138.88 143.79 139.81 L 143.44 140.74 C 143.08 141.67 143.54 142.72 144.47 143.08 C 145.41 143.44 146.45 142.97 146.82 142.04 Z M 147.21 141.03 L 147.51 140.09 C 147.82 139.14 147.30 138.12 146.35 137.80 C 145.40 137.49 144.37 138.02 144.06 138.97 L 143.76 139.90 C 143.44 140.86 143.97 141.88 144.92 142.19 C 145.87 142.50 146.90 141.98 147.21 141.03 Z M 147.57 139.92 L 147.82 138.73 C 148.04 137.75 147.41 136.78 146.43 136.57 C 145.45 136.35 144.48 136.98 144.26 137.96 L 144.01 139.15 C 143.79 140.13 144.42 141.10 145.40 141.31 C 146.38 141.53 147.35 140.90 147.57 139.92 Z M 147.86 138.54 L 148.00 137.19 C 148.10 136.19 147.38 135.29 146.37 135.18 C 145.37 135.08 144.47 135.81 144.37 136.81 L 144.23 138.16 C 144.12 139.16 144.85 140.06 145.85 140.16 C 146.86 140.27 147.76 139.54 147.86 138.54 Z M 148.01 137.05 L 148.04 136.06 C 148.07 135.05 147.27 134.21 146.26 134.18 C 145.25 134.15 144.41 134.95 144.38 135.96 L 144.35 136.95 C 144.33 137.96 145.12 138.80 146.13 138.83 C 147.14 138.86 147.98 138.06 148.01 137.05 Z M 148.04 135.98 L 148.04 135.64 C 148.02 134.62 147.19 133.82 146.17 133.83 C 145.16 133.85 144.36 134.68 144.37 135.70 L 144.38 136.04 C 144.40 137.05 145.23 137.86 146.24 137.84 C 147.25 137.83 148.06 136.99 148.04 135.98 Z M 144.37 135.70 L 144.38 136.16 C 144.40 137.17 145.24 137.98 146.25 137.96 C 147.26 137.93 148.07 137.10 148.05 136.08 L 148.04 135.63 C 148.02 134.62 147.18 133.81 146.17 133.83 C 145.16 133.85 144.35 134.69 144.37 135.70 Z M 144.38 136.09 L 144.36 137.14 C 144.35 138.15 145.15 138.99 146.17 139.00 C 147.18 139.02 148.02 138.21 148.03 137.20 L 148.05 136.15 C 148.07 135.14 147.26 134.30 146.24 134.29 C 145.23 134.27 144.40 135.08 144.38 136.09 Z M 144.37 137.04 L 144.27 138.42 C 144.19 139.43 144.95 140.31 145.96 140.38 C 146.97 140.45 147.85 139.69 147.93 138.68 L 148.03 137.30 C 148.10 136.29 147.34 135.41 146.33 135.34 C 145.32 135.27 144.44 136.02 144.37 137.04 Z M 144.28 138.27 L 144.10 139.44 C 143.95 140.44 144.64 141.37 145.64 141.53 C 146.64 141.68 147.58 141.00 147.73 140.00 L 147.91 138.83 C 148.06 137.83 147.38 136.89 146.38 136.74 C 145.37 136.58 144.44 137.27 144.28 138.27 Z M 144.13 139.29 L 143.90 140.25 C 143.67 141.24 144.27 142.23 145.26 142.46 C 146.25 142.70 147.24 142.09 147.47 141.11 L 147.70 140.14 C 147.94 139.16 147.33 138.17 146.34 137.93 C 145.36 137.70 144.37 138.30 144.13 139.29 Z M 143.94 140.13 L 143.64 141.07 C 143.33 142.04 143.87 143.07 144.83 143.38 C 145.80 143.68 146.83 143.15 147.14 142.18 L 147.44 141.23 C 147.74 140.27 147.21 139.23 146.24 138.93 C 145.27 138.62 144.24 139.16 143.94 140.13 Z M 143.68 140.96 L 143.31 141.89 C 142.94 142.83 143.41 143.89 144.35 144.27 C 145.29 144.64 146.36 144.17 146.73 143.23 L 147.09 142.30 C 147.47 141.35 147.00 140.29 146.06 139.92 C 145.11 139.55 144.05 140.01 143.68 140.96 Z M 143.36 141.78 L 142.93 142.69 C 142.50 143.61 142.90 144.70 143.81 145.13 C 144.73 145.56 145.82 145.17 146.25 144.25 L 146.68 143.34 C 147.11 142.42 146.72 141.33 145.80 140.90 C 144.88 140.47 143.79 140.86 143.36 141.78 Z M 142.99 142.59 L 142.43 143.60 C 141.95 144.48 142.27 145.60 143.16 146.09 C 144.05 146.57 145.16 146.25 145.65 145.36 L 146.20 144.35 C 146.69 143.47 146.36 142.35 145.48 141.86 C 144.59 141.38 143.47 141.70 142.99 142.59 Z M 142.51 143.47 L 141.82 144.51 C 141.27 145.36 141.50 146.49 142.34 147.05 C 143.19 147.61 144.32 147.37 144.88 146.53 L 145.57 145.49 C 146.13 144.64 145.89 143.51 145.05 142.95 C 144.21 142.39 143.07 142.62 142.51 143.47 Z M 141.99 144.30 L 141.30 145.08 C 140.63 145.84 140.69 146.99 141.45 147.66 C 142.20 148.33 143.36 148.27 144.03 147.51 L 144.72 146.74 C 145.39 145.98 145.32 144.83 144.57 144.15 C 143.81 143.48 142.66 143.55 141.99 144.30 Z M 141.79 144.70 L 141.16 145.04 C 140.27 145.53 139.95 146.63 140.43 147.52 C 140.92 148.40 142.03 148.73 142.91 148.24 L 143.54 147.90 C 144.42 147.41 144.75 146.30 144.26 145.42 C 143.78 144.53 142.67 144.21 141.79 144.70 Z M 142.75 144.96 L 142.28 144.77 C 141.36 144.37 140.29 144.81 139.89 145.73 C 139.50 146.66 139.93 147.73 140.86 148.12 L 141.32 148.32 C 142.25 148.71 143.32 148.28 143.71 147.35 C 144.11 146.43 143.67 145.36 142.75 144.96 Z M 143.21 145.65 L 142.93 145.07 C 142.49 144.16 141.40 143.78 140.49 144.22 C 139.59 144.66 139.21 145.75 139.65 146.66 L 139.93 147.24 C 140.37 148.15 141.46 148.52 142.37 148.08 C 143.27 147.64 143.65 146.55 143.21 145.65 Z M 143.09 145.55 L 142.93 144.67 C 142.76 143.68 141.82 143.01 140.83 143.18 C 139.83 143.35 139.17 144.30 139.34 145.29 L 139.49 146.17 C 139.66 147.16 140.61 147.83 141.60 147.66 C 142.59 147.49 143.26 146.55 143.09 145.55 Z M 142.96 144.98 L 142.96 143.88 C 142.96 142.87 142.15 142.05 141.14 142.05 C 140.13 142.05 139.31 142.87 139.31 143.87 L 139.31 144.98 C 139.31 145.99 140.13 146.80 141.14 146.80 C 142.14 146.80 142.96 145.99 142.96 144.98 Z M 142.94 144.13 L 143.12 142.89 C 143.26 141.89 142.57 140.97 141.57 140.83 C 140.57 140.68 139.65 141.38 139.50 142.38 L 139.33 143.62 C 139.19 144.62 139.88 145.54 140.88 145.68 C 141.88 145.82 142.80 145.13 142.94 144.13 Z M 143.07 143.13 L 143.43 141.88 C 143.70 140.91 143.14 139.90 142.17 139.62 C 141.20 139.34 140.19 139.91 139.91 140.88 L 139.56 142.13 C 139.28 143.10 139.84 144.11 140.81 144.39 C 141.78 144.67 142.79 144.10 143.07 143.13 Z M 143.35 142.10 L 143.83 140.98 C 144.23 140.05 143.80 138.98 142.87 138.58 C 141.94 138.18 140.87 138.61 140.47 139.54 L 139.99 140.66 C 139.59 141.58 140.02 142.66 140.95 143.06 C 141.88 143.46 142.95 143.03 143.35 142.10 Z M 143.75 141.15 L 144.33 140.11 C 144.82 139.23 144.50 138.11 143.62 137.62 C 142.74 137.13 141.62 137.45 141.13 138.33 L 140.55 139.37 C 140.06 140.25 140.38 141.37 141.26 141.86 C 142.14 142.35 143.26 142.03 143.75 141.15 Z M 144.24 140.26 L 144.87 139.35 C 145.44 138.52 145.23 137.38 144.40 136.80 C 143.57 136.23 142.43 136.44 141.85 137.27 L 141.22 138.18 C 140.65 139.01 140.86 140.15 141.69 140.73 C 142.52 141.30 143.66 141.09 144.24 140.26 Z M 144.74 139.51 L 145.37 138.79 C 146.03 138.02 145.95 136.86 145.19 136.20 C 144.42 135.54 143.26 135.62 142.60 136.39 L 141.97 137.11 C 141.31 137.87 141.39 139.03 142.16 139.69 C 142.92 140.36 144.08 140.27 144.74 139.51 Z M 145.16 138.99 L 145.74 138.51 C 146.51 137.86 146.62 136.70 145.96 135.93 C 145.31 135.15 144.16 135.05 143.38 135.70 L 142.81 136.18 C 142.03 136.83 141.93 137.99 142.58 138.76 C 143.23 139.54 144.39 139.64 145.16 138.99 Z M 144.97 138.90 L 145.64 138.74 C 146.63 138.52 147.24 137.54 147.02 136.55 C 146.79 135.56 145.81 134.94 144.82 135.16 L 144.15 135.32 C 143.16 135.54 142.54 136.52 142.77 137.51 C 142.99 138.50 143.98 139.12 144.97 138.90 Z M 143.62 137.85 L 144.09 138.70 C 144.58 139.59 145.70 139.91 146.59 139.41 C 147.48 138.92 147.80 137.80 147.31 136.91 L 146.84 136.06 C 146.35 135.17 145.22 134.85 144.33 135.34 C 143.45 135.84 143.12 136.96 143.62 137.85 Z M 143.90 137.36 L 143.75 137.98 C 143.51 138.97 144.12 139.97 145.11 140.21 C 146.10 140.45 147.10 139.85 147.34 138.86 L 147.49 138.24 C 147.74 137.25 147.13 136.25 146.14 136.01 C 145.15 135.76 144.15 136.37 143.90 137.36 Z M 147.17 137.56 L 146.78 136.80 C 146.30 135.91 145.19 135.56 144.29 136.04 C 143.39 136.51 143.05 137.63 143.53 138.53 L 143.92 139.28 C 144.40 140.17 145.51 140.52 146.41 140.04 C 147.31 139.57 147.65 138.45 147.17 137.56 Z M 146.97 137.74 L 147.01 136.70 C 147.05 135.70 146.27 134.85 145.27 134.81 C 144.27 134.77 143.42 135.54 143.38 136.55 L 143.34 137.59 C 143.29 138.59 144.07 139.44 145.07 139.48 C 146.08 139.52 146.92 138.74 146.97 137.74 Z M 145.71 138.36 L 146.28 138.19 C 147.23 137.90 147.78 136.90 147.50 135.94 C 147.21 134.99 146.21 134.44 145.25 134.72 L 144.68 134.89 C 143.73 135.17 143.18 136.18 143.46 137.14 C 143.75 138.09 144.75 138.64 145.71 138.36 Z M 145.15 138.16 L 145.93 138.44 C 146.87 138.78 147.91 138.29 148.25 137.35 C 148.59 136.41 148.10 135.37 147.16 135.03 L 146.38 134.75 C 145.44 134.41 144.40 134.90 144.06 135.84 C 143.72 136.78 144.21 137.82 145.15 138.16 Z M 145.49 138.22 L 146.37 138.84 C 147.19 139.42 148.33 139.23 148.91 138.41 C 149.49 137.59 149.29 136.46 148.48 135.88 L 147.60 135.25 C 146.78 134.67 145.64 134.86 145.06 135.68 C 144.48 136.50 144.67 137.64 145.49 138.22 Z M 146.06 138.57 L 146.88 139.49 C 147.55 140.25 148.71 140.31 149.46 139.64 C 150.21 138.97 150.28 137.82 149.61 137.07 L 148.79 136.14 C 148.12 135.39 146.96 135.33 146.21 136.00 C 145.46 136.67 145.39 137.82 146.06 138.57 Z M 146.64 139.16 L 147.16 140.12 C 147.65 141.00 148.76 141.33 149.65 140.85 C 150.54 140.36 150.86 139.25 150.38 138.36 L 149.85 137.40 C 149.37 136.51 148.26 136.19 147.37 136.67 C 146.48 137.16 146.15 138.27 146.64 139.16 Z M 147.03 139.81 L 147.32 140.72 C 147.64 141.68 148.68 142.20 149.64 141.89 C 150.60 141.57 151.13 140.54 150.81 139.57 L 150.51 138.67 C 150.20 137.71 149.16 137.18 148.20 137.50 C 147.24 137.81 146.71 138.85 147.03 139.81 Z M 147.26 140.50 L 147.45 141.47 C 147.65 142.47 148.61 143.12 149.61 142.92 C 150.61 142.73 151.26 141.76 151.06 140.76 L 150.87 139.79 C 150.68 138.79 149.71 138.14 148.71 138.34 C 147.72 138.54 147.07 139.50 147.26 140.50 Z M 147.43 141.31 L 147.53 142.33 C 147.64 143.34 148.54 144.07 149.56 143.97 C 150.57 143.86 151.30 142.95 151.20 141.94 L 151.09 140.93 C 150.98 139.91 150.08 139.18 149.07 139.29 C 148.05 139.39 147.32 140.30 147.43 141.31 Z M 147.52 142.21 L 147.56 143.25 C 147.61 144.27 148.47 145.06 149.49 145.01 C 150.51 144.97 151.30 144.11 151.25 143.09 L 151.21 142.06 C 151.17 141.04 150.30 140.25 149.29 140.29 C 148.27 140.33 147.48 141.19 147.52 142.21 Z M 147.56 143.17 L 147.56 144.20 C 147.57 145.22 148.40 146.04 149.42 146.04 C 150.44 146.04 151.26 145.21 151.26 144.19 L 151.26 143.16 C 151.25 142.14 150.42 141.32 149.40 141.32 C 148.38 141.32 147.56 142.15 147.56 143.17 Z M 147.56 144.16 L 147.54 145.19 C 147.53 146.21 148.34 147.06 149.36 147.07 C 150.39 147.09 151.23 146.28 151.25 145.25 L 151.26 144.22 C 151.28 143.20 150.47 142.36 149.44 142.34 C 148.42 142.32 147.58 143.14 147.56 144.16 Z M 147.54 145.17 L 147.51 146.21 C 147.48 147.24 148.29 148.09 149.31 148.12 C 150.34 148.15 151.19 147.34 151.22 146.32 L 151.25 145.27 C 151.28 144.25 150.47 143.40 149.45 143.37 C 148.42 143.34 147.57 144.15 147.54 145.17 Z M 147.51 146.18 L 147.47 147.18 C 147.42 148.20 148.21 149.07 149.23 149.12 C 150.25 149.17 151.12 148.38 151.17 147.36 L 151.22 146.35 C 151.27 145.33 150.48 144.46 149.45 144.41 C 148.43 144.37 147.56 145.16 147.51 146.18 Z M 147.47 147.13 L 147.39 148.10 C 147.32 149.13 148.08 150.02 149.11 150.09 C 150.13 150.17 151.02 149.40 151.09 148.38 L 151.17 147.41 C 151.24 146.39 150.48 145.50 149.46 145.42 C 148.43 145.34 147.54 146.11 147.47 147.13 Z M 147.40 148.04 L 147.29 149.00 C 147.18 150.02 147.91 150.94 148.93 151.05 C 149.95 151.16 150.87 150.43 150.98 149.41 L 151.09 148.45 C 151.20 147.43 150.47 146.51 149.45 146.40 C 148.43 146.29 147.51 147.02 147.40 148.04 Z M 147.30 148.92 L 147.16 149.89 C 147.00 150.90 147.70 151.85 148.71 152.00 C 149.72 152.16 150.67 151.46 150.82 150.45 L 150.97 149.49 C 151.13 148.47 150.43 147.53 149.42 147.37 C 148.41 147.22 147.46 147.91 147.30 148.92 Z M 147.17 149.81 L 146.98 150.75 C 146.78 151.75 147.44 152.73 148.44 152.93 C 149.45 153.13 150.42 152.48 150.62 151.47 L 150.81 150.53 C 151.01 149.53 150.36 148.55 149.35 148.35 C 148.34 148.15 147.37 148.80 147.17 149.81 Z M 147.00 150.68 L 146.77 151.63 C 146.54 152.63 147.15 153.63 148.15 153.86 C 149.15 154.10 150.15 153.48 150.38 152.49 L 150.61 151.54 C 150.85 150.54 150.23 149.54 149.23 149.30 C 148.23 149.07 147.23 149.69 147.00 150.68 Z M 146.79 151.58 L 146.53 152.54 C 146.26 153.53 146.85 154.55 147.84 154.81 C 148.83 155.08 149.85 154.49 150.11 153.50 L 150.37 152.54 C 150.64 151.55 150.05 150.53 149.06 150.27 C 148.07 150.00 147.05 150.59 146.79 151.58 Z M 146.54 152.50 L 146.26 153.47 C 145.97 154.46 146.53 155.49 147.52 155.77 C 148.50 156.06 149.53 155.50 149.82 154.51 L 150.10 153.54 C 150.39 152.56 149.83 151.53 148.84 151.24 C 147.86 150.95 146.83 151.52 146.54 152.50 Z M 146.26 153.44 L 145.96 154.42 C 145.66 155.40 146.20 156.44 147.18 156.74 C 148.16 157.05 149.20 156.50 149.51 155.52 L 149.81 154.54 C 150.11 153.56 149.57 152.52 148.59 152.22 C 147.61 151.92 146.57 152.46 146.26 153.44 Z M 145.97 154.40 L 145.65 155.38 C 145.34 156.36 145.87 157.40 146.85 157.72 C 147.82 158.03 148.87 157.50 149.18 156.52 L 149.50 155.54 C 149.81 154.57 149.28 153.52 148.30 153.20 C 147.33 152.89 146.28 153.43 145.97 154.40 Z M 145.66 155.37 L 145.36 156.26 C 145.04 157.23 145.57 158.28 146.54 158.60 C 147.51 158.92 148.56 158.39 148.88 157.42 L 149.18 156.53 C 149.50 155.56 148.97 154.51 148.00 154.19 C 147.03 153.87 145.98 154.40 145.66 155.37 Z M 145.37 156.24 L 145.07 157.14 C 144.74 158.11 145.26 159.16 146.22 159.49 C 147.19 159.82 148.24 159.30 148.57 158.33 L 148.87 157.44 C 149.20 156.47 148.69 155.42 147.72 155.09 C 146.75 154.76 145.70 155.28 145.37 156.24 Z M 145.08 157.12 L 144.76 158.03 C 144.42 158.99 144.92 160.05 145.88 160.39 C 146.84 160.72 147.90 160.22 148.24 159.26 L 148.56 158.35 C 148.90 157.39 148.39 156.33 147.43 155.99 C 146.47 155.66 145.42 156.16 145.08 157.12 Z M 144.77 158.01 L 144.43 158.94 C 144.07 159.89 144.56 160.95 145.52 161.30 C 146.47 161.66 147.53 161.17 147.88 160.21 L 148.23 159.28 C 148.58 158.33 148.09 157.27 147.13 156.92 C 146.18 156.57 145.12 157.05 144.77 158.01 Z M 144.44 158.91 L 144.07 159.88 C 143.70 160.82 144.17 161.89 145.12 162.25 C 146.07 162.62 147.13 162.15 147.50 161.20 L 147.87 160.24 C 148.23 159.29 147.76 158.23 146.82 157.86 C 145.87 157.50 144.81 157.97 144.44 158.91 Z M 144.08 159.85 L 143.68 160.85 C 143.30 161.78 143.75 162.85 144.69 163.23 C 145.62 163.62 146.69 163.16 147.08 162.23 L 147.48 161.23 C 147.86 160.29 147.41 159.22 146.47 158.84 C 145.53 158.46 144.46 158.91 144.08 159.85 Z M 143.69 160.82 L 143.30 161.73 C 142.91 162.66 143.34 163.74 144.27 164.13 C 145.20 164.53 146.27 164.10 146.67 163.17 L 147.06 162.25 C 147.46 161.32 147.02 160.25 146.09 159.85 C 145.16 159.46 144.09 159.89 143.69 160.82 Z M 143.32 161.71 L 142.95 162.55 C 142.54 163.47 142.96 164.55 143.88 164.95 C 144.80 165.36 145.88 164.95 146.28 164.03 L 146.65 163.19 C 147.06 162.27 146.65 161.19 145.73 160.78 C 144.81 160.38 143.73 160.79 143.32 161.71 Z M 142.97 162.53 L 142.57 163.39 C 142.15 164.30 142.55 165.38 143.46 165.80 C 144.38 166.22 145.46 165.82 145.87 164.91 L 146.27 164.04 C 146.69 163.13 146.29 162.05 145.37 161.64 C 144.46 161.22 143.38 161.62 142.97 162.53 Z M 142.59 163.37 L 142.17 164.26 C 141.74 165.16 142.13 166.24 143.03 166.67 C 143.93 167.09 145.01 166.71 145.44 165.81 L 145.86 164.92 C 146.29 164.02 145.90 162.94 145.00 162.51 C 144.09 162.08 143.01 162.47 142.59 163.37 Z M 142.18 164.24 L 141.74 165.14 C 141.30 166.04 141.68 167.12 142.57 167.55 C 143.47 167.99 144.55 167.62 144.98 166.73 L 145.42 165.82 C 145.86 164.93 145.49 163.85 144.60 163.41 C 143.70 162.97 142.62 163.34 142.18 164.24 Z M 141.76 165.12 L 141.29 166.04 C 140.85 166.93 141.20 168.01 142.09 168.46 C 142.98 168.90 144.06 168.55 144.50 167.66 L 144.97 166.74 C 145.41 165.86 145.06 164.78 144.17 164.33 C 143.29 163.88 142.20 164.24 141.76 165.12 Z M 141.31 166.03 L 140.83 166.96 C 140.37 167.84 140.71 168.92 141.59 169.37 C 142.47 169.83 143.55 169.49 144.00 168.61 L 144.49 167.68 C 144.94 166.80 144.60 165.72 143.72 165.26 C 142.85 164.81 141.77 165.15 141.31 166.03 Z M 140.84 166.94 L 140.34 167.89 C 139.87 168.75 140.20 169.84 141.07 170.30 C 141.94 170.77 143.02 170.44 143.48 169.57 L 143.99 168.63 C 144.45 167.76 144.13 166.68 143.26 166.21 C 142.39 165.75 141.31 166.07 140.84 166.94 Z M 140.35 167.87 L 139.84 168.80 C 139.37 169.66 139.68 170.74 140.54 171.21 C 141.40 171.68 142.48 171.37 142.96 170.51 L 143.47 169.58 C 143.94 168.73 143.63 167.65 142.77 167.17 C 141.91 166.70 140.83 167.01 140.35 167.87 Z M 139.86 168.79 L 139.39 169.63 C 138.91 170.48 139.20 171.56 140.05 172.04 C 140.90 172.52 141.98 172.22 142.46 171.37 L 142.94 170.52 C 143.41 169.68 143.12 168.60 142.27 168.12 C 141.42 167.64 140.34 167.94 139.86 168.79 Z M 139.41 169.63 L 138.92 170.48 C 138.43 171.31 138.72 172.38 139.56 172.86 C 140.39 173.35 141.46 173.06 141.94 172.22 L 142.44 171.38 C 142.92 170.54 142.63 169.47 141.80 168.99 C 140.96 168.50 139.89 168.79 139.41 169.63 Z M 138.94 170.47 L 138.43 171.32 C 137.95 172.15 138.22 173.21 139.05 173.70 C 139.87 174.18 140.94 173.91 141.42 173.08 L 141.92 172.23 C 142.41 171.40 142.13 170.34 141.31 169.86 C 140.48 169.37 139.42 169.65 138.94 170.47 Z M 138.45 171.32 L 137.94 172.18 C 137.46 172.99 137.72 174.05 138.54 174.53 C 139.35 175.02 140.40 174.75 140.89 173.94 L 141.40 173.08 C 141.89 172.27 141.62 171.22 140.81 170.73 C 140.00 170.24 138.94 170.51 138.45 171.32 Z M 137.96 172.18 L 137.44 173.04 C 136.95 173.84 137.21 174.89 138.01 175.37 C 138.82 175.86 139.86 175.60 140.35 174.80 L 140.87 173.94 C 141.36 173.14 141.10 172.09 140.30 171.60 C 139.49 171.12 138.45 171.38 137.96 172.18 Z M 137.46 173.04 L 136.93 173.90 C 136.45 174.70 136.70 175.73 137.49 176.22 C 138.28 176.70 139.32 176.45 139.81 175.66 L 140.33 174.80 C 140.82 174.00 140.57 172.97 139.78 172.48 C 138.98 172.00 137.94 172.25 137.46 173.04 Z M 136.95 173.90 L 136.42 174.77 C 135.93 175.55 136.18 176.58 136.96 177.07 C 137.75 177.55 138.77 177.30 139.26 176.52 L 139.79 175.66 C 140.27 174.87 140.03 173.84 139.25 173.36 C 138.46 172.88 137.43 173.12 136.95 173.90 Z M 136.43 174.77 L 135.90 175.64 C 135.41 176.41 135.65 177.43 136.43 177.91 C 137.21 178.40 138.23 178.16 138.71 177.38 L 139.24 176.51 C 139.72 175.74 139.48 174.72 138.71 174.24 C 137.93 173.76 136.91 174.00 136.43 174.77 Z M 135.91 175.64 L 135.37 176.51 C 134.90 177.28 135.13 178.29 135.90 178.76 C 136.67 179.24 137.68 179.01 138.16 178.24 L 138.69 177.37 C 139.17 176.60 138.93 175.59 138.17 175.12 C 137.40 174.64 136.39 174.88 135.91 175.64 Z M 135.38 176.51 L 135.27 176.70 C 134.79 177.46 135.03 178.46 135.79 178.94 C 136.56 179.41 137.56 179.18 138.03 178.42 L 138.15 178.23 C 138.62 177.47 138.39 176.47 137.62 175.99 C 136.86 175.52 135.86 175.75 135.38 176.51 Z"
      fill="black"
      fill-rule="nonzero" /></svg>