<svg xmlns="http://www.w3.org/2000/svg" width="300" height="300" viewBox="0 0 300 300">
<path d="M 138.75 139.92 L 139.73 140.26 C 140.62 140.56 141.59 140.08 141.89 139.19 C 142.19 138.29 141.71 137.33 140.82 137.02 L 139.84 136.69 C 138.95 136.39 137.98 136.87 137.68 137.76 C 137.38 138.65 137.86 139.62 138.75 139.92 Z M 139.68 140.24 L 140.64 140.59 C 141.52 140.92 142.50 140.47 142.83 139.59 C 143.15 138.70 142.70 137.72 141.82 137.40 L 140.86 137.04 C 139.98 136.72 139.00 137.17 138.68 138.05 C 138.35 138.93 138.80 139.91 139.68 140.24 Z M 140.55 140.55 L 141.47 140.95 C 142.33 141.33 143.33 140.94 143.70 140.08 C 144.08 139.22 143.69 138.22 142.83 137.84 L 141.91 137.44 C 141.05 137.06 140.05 137.45 139.67 138.31 C 139.30 139.17 139.69 140.17 140.55 140.55 Z M 141.33 140.88 L 142.19 141.35 C 143.01 141.81 144.04 141.51 144.49 140.69 C 144.94 139.87 144.65 138.84 143.83 138.38 L 142.97 137.91 C 142.15 137.46 141.12 137.76 140.66 138.58 C 140.21 139.40 140.51 140.43 141.33 140.88 Z M 142.01 141.24 L 142.79 141.81 C 143.55 142.35 144.61 142.19 145.16 141.43 C 145.70 140.68 145.54 139.62 144.78 139.07 L 144.00 138.50 C 143.25 137.95 142.19 138.12 141.64 138.87 C 141.09 139.63 141.26 140.69 142.01 141.24 Z M 142.60 141.63 L 143.26 142.29 C 143.92 142.95 144.98 142.95 145.64 142.29 C 146.30 141.63 146.30 140.56 145.64 139.90 L 144.98 139.24 C 144.32 138.59 143.25 138.59 142.59 139.25 C 141.94 139.91 141.94 140.97 142.60 141.63 Z M 143.09 142.10 L 143.65 142.84 C 144.20 143.59 145.25 143.75 146.00 143.19 C 146.75 142.64 146.90 141.59 146.35 140.84 L 145.80 140.09 C 145.25 139.35 144.19 139.19 143.45 139.74 C 142.70 140.29 142.54 141.35 143.09 142.10 Z M 143.54 142.66 L 144.01 143.50 C 144.46 144.31 145.48 144.60 146.29 144.15 C 147.10 143.69 147.38 142.67 146.93 141.86 L 146.46 141.02 C 146.01 140.21 144.99 139.93 144.18 140.38 C 143.37 140.83 143.08 141.85 143.54 142.66 Z M 143.93 143.34 L 144.33 144.26 C 144.69 145.11 145.67 145.51 146.52 145.14 C 147.37 144.78 147.76 143.80 147.40 142.95 L 147.01 142.02 C 146.64 141.17 145.66 140.78 144.81 141.14 C 143.96 141.51 143.57 142.49 143.93 143.34 Z M 144.28 144.13 L 144.61 145.12 C 144.90 146.00 145.84 146.47 146.71 146.18 C 147.59 145.89 148.06 144.95 147.78 144.08 L 147.45 143.08 C 147.16 142.21 146.22 141.73 145.34 142.02 C 144.47 142.31 143.99 143.25 144.28 144.13 Z M 144.58 145.01 L 144.85 146.06 C 145.07 146.95 145.98 147.49 146.87 147.26 C 147.76 147.04 148.29 146.14 148.07 145.25 L 147.80 144.19 C 147.58 143.30 146.67 142.76 145.78 142.99 C 144.89 143.21 144.36 144.12 144.58 145.01 Z M 144.83 145.97 L 145.02 146.95 C 145.20 147.85 146.07 148.43 146.97 148.26 C 147.87 148.08 148.45 147.21 148.28 146.31 L 148.09 145.33 C 147.91 144.44 147.04 143.85 146.14 144.03 C 145.24 144.20 144.66 145.07 144.83 145.97 Z M 145.01 146.88 L 145.16 147.85 C 145.30 148.76 146.14 149.38 147.04 149.24 C 147.95 149.11 148.57 148.26 148.43 147.36 L 148.29 146.38 C 148.15 145.48 147.31 144.86 146.40 144.99 C 145.50 145.13 144.88 145.97 145.01 146.88 Z M 145.15 147.79 L 145.27 148.79 C 145.37 149.70 146.19 150.35 147.09 150.25 C 148.00 150.14 148.65 149.33 148.55 148.42 L 148.44 147.42 C 148.34 146.52 147.52 145.86 146.61 145.96 C 145.71 146.07 145.05 146.88 145.15 147.79 Z M 145.26 148.73 L 145.34 149.74 C 145.41 150.65 146.21 151.33 147.12 151.26 C 148.03 151.19 148.70 150.39 148.63 149.48 L 148.55 148.48 C 148.48 147.57 147.69 146.89 146.78 146.96 C 145.87 147.03 145.19 147.82 145.26 148.73 Z M 145.34 149.69 L 145.39 150.70 C 145.43 151.61 146.21 152.31 147.11 152.27 C 148.02 152.23 148.73 151.46 148.68 150.55 L 148.63 149.54 C 148.59 148.63 147.82 147.92 146.91 147.97 C 146.00 148.01 145.30 148.78 145.34 149.69 Z M 145.39 150.66 L 145.41 151.67 C 145.43 152.57 146.18 153.30 147.09 153.28 C 148.00 153.26 148.72 152.51 148.70 151.60 L 148.68 150.59 C 148.66 149.69 147.91 148.96 147.00 148.98 C 146.10 149.00 145.37 149.75 145.39 150.66 Z M 145.41 151.62 L 145.41 152.64 C 145.40 153.55 146.13 154.29 147.04 154.29 C 147.94 154.30 148.68 153.57 148.69 152.66 L 148.70 151.65 C 148.70 150.74 147.98 150.00 147.07 149.99 C 146.16 149.98 145.42 150.71 145.41 151.62 Z M 145.41 152.59 L 145.37 153.71 C 145.33 154.62 146.03 155.38 146.94 155.41 C 147.84 155.45 148.60 154.75 148.64 153.84 L 148.68 152.72 C 148.72 151.81 148.02 151.05 147.11 151.01 C 146.21 150.98 145.45 151.68 145.41 152.59 Z M 145.38 153.63 L 145.28 154.70 C 145.20 155.60 145.86 156.40 146.75 156.48 C 147.65 156.56 148.45 155.90 148.53 155.00 L 148.63 153.93 C 148.71 153.03 148.05 152.23 147.15 152.15 C 146.25 152.07 145.46 152.73 145.38 153.63 Z M 145.30 154.58 L 145.13 155.58 C 144.98 156.47 145.57 157.31 146.46 157.46 C 147.34 157.61 148.19 157.02 148.34 156.13 L 148.51 155.13 C 148.66 154.24 148.06 153.40 147.18 153.25 C 146.29 153.10 145.45 153.69 145.30 154.58 Z M 145.17 155.41 L 144.91 156.32 C 144.66 157.18 145.16 158.08 146.02 158.33 C 146.88 158.58 147.78 158.08 148.03 157.22 L 148.29 156.31 C 148.54 155.45 148.04 154.55 147.18 154.30 C 146.32 154.05 145.42 154.55 145.17 155.41 Z M 145.00 156.09 L 144.63 156.89 C 144.25 157.70 144.61 158.66 145.42 159.04 C 146.23 159.41 147.19 159.06 147.56 158.25 L 147.94 157.45 C 148.31 156.64 147.96 155.68 147.15 155.31 C 146.34 154.93 145.38 155.28 145.00 156.09 Z M 144.82 156.59 L 144.27 157.31 C 143.73 158.02 143.86 159.03 144.57 159.57 C 145.28 160.11 146.29 159.98 146.83 159.27 L 147.38 158.55 C 147.92 157.84 147.78 156.83 147.08 156.29 C 146.37 155.75 145.36 155.89 144.82 156.59 Z M 144.57 157.01 L 143.79 157.61 C 143.08 158.15 142.94 159.16 143.48 159.87 C 144.02 160.57 145.03 160.71 145.74 160.17 L 146.53 159.57 C 147.23 159.03 147.37 158.02 146.83 157.31 C 146.29 156.61 145.28 156.47 144.57 157.01 Z M 144.16 157.40 L 143.24 157.77 C 142.42 158.10 142.02 159.04 142.35 159.86 C 142.68 160.69 143.62 161.09 144.45 160.75 L 145.36 160.38 C 146.19 160.05 146.59 159.11 146.25 158.29 C 145.92 157.46 144.98 157.06 144.16 157.40 Z M 143.63 157.66 L 142.65 157.79 C 141.76 157.91 141.14 158.72 141.26 159.61 C 141.38 160.49 142.19 161.11 143.07 160.99 L 144.06 160.86 C 144.94 160.74 145.56 159.93 145.44 159.05 C 145.32 158.16 144.51 157.54 143.63 157.66 Z M 143.04 157.79 L 142.05 157.68 C 141.17 157.57 140.37 158.21 140.26 159.09 C 140.16 159.98 140.80 160.78 141.68 160.88 L 142.68 160.99 C 143.56 161.10 144.36 160.46 144.46 159.58 C 144.56 158.69 143.93 157.89 143.04 157.79 Z M 142.44 157.77 L 141.55 157.43 C 140.71 157.12 139.78 157.54 139.47 158.37 C 139.15 159.20 139.57 160.13 140.40 160.45 L 141.29 160.79 C 142.13 161.10 143.06 160.68 143.38 159.85 C 143.69 159.02 143.27 158.08 142.44 157.77 Z M 141.85 157.58 L 141.05 157.06 C 140.30 156.58 139.29 156.80 138.81 157.55 C 138.33 158.30 138.55 159.30 139.30 159.79 L 140.10 160.30 C 140.85 160.79 141.85 160.57 142.34 159.82 C 142.82 159.06 142.60 158.06 141.85 157.58 Z M 141.26 157.21 L 140.51 156.55 C 139.84 155.95 138.82 156.01 138.22 156.68 C 137.62 157.35 137.68 158.38 138.35 158.98 L 139.09 159.64 C 139.76 160.24 140.79 160.18 141.39 159.51 C 141.98 158.84 141.93 157.81 141.26 157.21 Z M 140.65 156.68 L 139.97 155.91 C 139.38 155.24 138.34 155.17 137.67 155.77 C 136.99 156.37 136.93 157.40 137.53 158.08 L 138.21 158.84 C 138.81 159.52 139.84 159.58 140.51 158.99 C 141.19 158.39 141.25 157.36 140.65 156.68 Z M 140.07 156.02 L 139.45 155.18 C 138.91 154.46 137.89 154.30 137.16 154.84 C 136.43 155.37 136.28 156.40 136.81 157.13 L 137.43 157.97 C 137.97 158.69 139.00 158.85 139.72 158.31 C 140.45 157.78 140.61 156.75 140.07 156.02 Z M 139.52 155.27 L 138.99 154.44 C 138.50 153.68 137.48 153.46 136.72 153.95 C 135.95 154.43 135.73 155.45 136.22 156.22 L 136.75 157.04 C 137.24 157.81 138.25 158.03 139.02 157.54 C 139.78 157.05 140.01 156.04 139.52 155.27 Z M 139.05 154.53 L 138.60 153.73 C 138.16 152.93 137.15 152.65 136.36 153.09 C 135.56 153.54 135.27 154.54 135.72 155.34 L 136.16 156.14 C 136.61 156.93 137.61 157.22 138.41 156.77 C 139.21 156.33 139.49 155.32 139.05 154.53 Z M 138.66 153.83 L 138.27 152.99 C 137.88 152.16 136.89 151.81 136.06 152.20 C 135.23 152.59 134.87 153.58 135.27 154.41 L 135.66 155.24 C 136.05 156.07 137.04 156.43 137.87 156.04 C 138.70 155.64 139.05 154.66 138.66 153.83 Z M 138.32 153.10 L 137.97 152.20 C 137.64 151.34 136.68 150.91 135.82 151.25 C 134.96 151.58 134.53 152.54 134.86 153.40 L 135.21 154.30 C 135.54 155.16 136.51 155.59 137.37 155.25 C 138.23 154.92 138.65 153.96 138.32 153.10 Z M 138.02 152.31 L 137.72 151.32 C 137.44 150.44 136.51 149.94 135.62 150.21 C 134.74 150.48 134.24 151.42 134.51 152.30 L 134.82 153.29 C 135.09 154.18 136.03 154.67 136.91 154.40 C 137.79 154.13 138.29 153.19 138.02 152.31 Z M 137.75 151.42 L 137.49 150.32 C 137.27 149.42 136.37 148.86 135.46 149.08 C 134.56 149.29 134.00 150.20 134.22 151.10 L 134.48 152.20 C 134.69 153.10 135.60 153.66 136.50 153.45 C 137.41 153.23 137.97 152.33 137.75 151.42 Z M 137.51 150.41 L 137.33 149.41 C 137.16 148.49 136.28 147.88 135.36 148.05 C 134.44 148.22 133.84 149.10 134.01 150.02 L 134.19 151.02 C 134.36 151.94 135.24 152.54 136.16 152.37 C 137.08 152.20 137.68 151.32 137.51 150.41 Z M 137.34 149.46 L 137.20 148.52 C 137.07 147.59 136.21 146.96 135.28 147.09 C 134.36 147.23 133.72 148.09 133.85 149.01 L 133.99 149.96 C 134.13 150.88 134.99 151.52 135.92 151.39 C 136.84 151.25 137.48 150.39 137.34 149.46 Z M 137.21 148.57 L 137.09 147.57 C 136.98 146.64 136.14 145.98 135.21 146.09 C 134.28 146.20 133.62 147.04 133.73 147.97 L 133.85 148.97 C 133.96 149.90 134.80 150.56 135.73 150.45 C 136.66 150.34 137.32 149.49 137.21 148.57 Z M 137.10 147.61 L 137.00 146.59 C 136.92 145.66 136.09 144.97 135.16 145.06 C 134.22 145.14 133.54 145.97 133.62 146.90 L 133.72 147.93 C 133.81 148.86 134.63 149.55 135.57 149.46 C 136.50 149.37 137.19 148.55 137.10 147.61 Z M 137.01 146.63 L 136.94 145.59 C 136.87 144.65 136.06 143.95 135.12 144.01 C 134.19 144.08 133.48 144.89 133.55 145.83 L 133.62 146.87 C 133.68 147.80 134.50 148.51 135.43 148.44 C 136.37 148.38 137.07 147.56 137.01 146.63 Z M 136.94 145.63 L 136.89 144.59 C 136.85 143.65 136.05 142.92 135.11 142.97 C 134.17 143.01 133.45 143.81 133.49 144.75 L 133.54 145.79 C 133.58 146.73 134.38 147.45 135.32 147.41 C 136.26 147.36 136.99 146.57 136.94 145.63 Z M 136.90 144.63 L 136.87 143.61 C 136.85 142.67 136.07 141.92 135.13 141.94 C 134.19 141.96 133.44 142.75 133.47 143.69 L 133.49 144.71 C 133.51 145.65 134.29 146.39 135.23 146.37 C 136.17 146.35 136.92 145.57 136.90 144.63 Z M 136.88 143.65 L 136.88 142.66 C 136.88 141.72 136.12 140.95 135.18 140.95 C 134.23 140.95 133.47 141.71 133.46 142.66 L 133.46 143.64 C 133.46 144.59 134.22 145.35 135.17 145.35 C 136.11 145.36 136.87 144.59 136.88 143.65 Z M 136.88 142.72 L 136.92 141.65 C 136.95 140.71 136.21 139.92 135.26 139.88 C 134.32 139.85 133.53 140.59 133.50 141.54 L 133.46 142.60 C 133.43 143.55 134.17 144.34 135.11 144.37 C 136.06 144.40 136.85 143.66 136.88 142.72 Z M 136.92 141.72 L 137.00 140.63 C 137.07 139.69 136.37 138.87 135.42 138.79 C 134.48 138.72 133.66 139.43 133.58 140.37 L 133.50 141.46 C 133.43 142.41 134.13 143.23 135.08 143.30 C 136.02 143.37 136.84 142.67 136.92 141.72 Z M 136.99 140.73 L 137.13 139.71 C 137.26 138.77 136.60 137.91 135.66 137.78 C 134.72 137.66 133.86 138.31 133.73 139.25 L 133.59 140.27 C 133.46 141.21 134.12 142.07 135.06 142.20 C 136.00 142.33 136.86 141.67 136.99 140.73 Z M 137.11 139.83 L 137.31 138.88 C 137.51 137.95 136.91 137.04 135.98 136.85 C 135.05 136.65 134.14 137.25 133.95 138.18 L 133.75 139.13 C 133.55 140.06 134.15 140.97 135.08 141.17 C 136.01 141.36 136.92 140.76 137.11 139.83 Z M 137.28 139.02 L 137.55 138.12 C 137.82 137.20 137.30 136.25 136.39 135.97 C 135.48 135.70 134.52 136.22 134.25 137.13 L 133.98 138.04 C 133.71 138.95 134.23 139.91 135.14 140.18 C 136.05 140.45 137.01 139.93 137.28 139.02 Z M 137.50 138.27 L 137.84 137.40 C 138.20 136.52 137.77 135.52 136.88 135.16 C 136.00 134.81 134.99 135.24 134.64 136.12 L 134.30 136.98 C 133.94 137.87 134.37 138.87 135.26 139.23 C 136.14 139.58 137.14 139.15 137.50 138.27 Z M 137.78 137.56 L 138.21 136.72 C 138.65 135.87 138.31 134.83 137.46 134.39 C 136.62 133.96 135.57 134.29 135.14 135.14 L 134.71 135.97 C 134.27 136.82 134.60 137.86 135.45 138.30 C 136.30 138.74 137.34 138.40 137.78 137.56 Z M 138.13 136.86 L 138.66 136.03 C 139.18 135.23 138.95 134.16 138.14 133.64 C 137.34 133.12 136.27 133.36 135.75 134.16 L 135.22 134.99 C 134.70 135.80 134.93 136.87 135.74 137.39 C 136.54 137.90 137.61 137.67 138.13 136.86 Z M 138.58 136.16 L 139.20 135.36 C 139.78 134.60 139.65 133.51 138.89 132.93 C 138.13 132.34 137.04 132.48 136.45 133.24 L 135.83 134.03 C 135.25 134.79 135.39 135.88 136.14 136.47 C 136.90 137.06 137.99 136.92 138.58 136.16 Z M 139.11 135.48 L 139.79 134.73 C 140.44 134.02 140.40 132.92 139.69 132.27 C 138.98 131.62 137.88 131.67 137.23 132.37 L 136.54 133.12 C 135.89 133.83 135.94 134.93 136.65 135.58 C 137.36 136.23 138.46 136.18 139.11 135.48 Z M 139.70 134.83 L 140.44 134.14 C 141.15 133.49 141.19 132.38 140.53 131.68 C 139.88 130.97 138.77 130.93 138.07 131.58 L 137.32 132.27 C 136.62 132.93 136.58 134.03 137.23 134.74 C 137.89 135.44 138.99 135.49 139.70 134.83 Z M 140.33 134.24 L 141.12 133.62 C 141.88 133.03 142.01 131.93 141.42 131.17 C 140.82 130.40 139.72 130.27 138.96 130.87 L 138.17 131.49 C 137.41 132.08 137.28 133.18 137.88 133.94 C 138.47 134.70 139.57 134.84 140.33 134.24 Z M 141.00 133.71 L 141.82 133.18 C 142.63 132.65 142.86 131.56 142.33 130.75 C 141.80 129.94 140.71 129.71 139.90 130.24 L 139.08 130.78 C 138.27 131.31 138.04 132.39 138.57 133.20 C 139.10 134.01 140.19 134.24 141.00 133.71 Z M 141.66 133.28 L 142.66 132.77 C 143.52 132.33 143.86 131.26 143.42 130.40 C 142.98 129.53 141.92 129.19 141.05 129.64 L 140.06 130.14 C 139.19 130.59 138.85 131.65 139.29 132.51 C 139.74 133.38 140.80 133.72 141.66 133.28 Z M 142.44 132.87 L 143.45 132.51 C 144.37 132.19 144.86 131.18 144.53 130.26 C 144.21 129.34 143.20 128.86 142.28 129.18 L 141.27 129.54 C 140.35 129.86 139.86 130.87 140.19 131.79 C 140.51 132.71 141.52 133.19 142.44 132.87 Z M 143.16 132.59 L 144.14 132.43 C 145.11 132.27 145.76 131.35 145.60 130.39 C 145.44 129.42 144.52 128.77 143.56 128.93 L 142.57 129.10 C 141.61 129.26 140.96 130.17 141.12 131.14 C 141.28 132.10 142.19 132.76 143.16 132.59 Z M 143.75 132.46 L 144.67 132.51 C 145.65 132.56 146.49 131.81 146.55 130.83 C 146.60 129.85 145.85 129.01 144.87 128.96 L 143.95 128.91 C 142.97 128.85 142.13 129.60 142.07 130.58 C 142.02 131.56 142.77 132.40 143.75 132.46 Z M 144.18 132.42 L 145.01 132.71 C 145.94 133.04 146.96 132.55 147.29 131.62 C 147.62 130.69 147.13 129.67 146.20 129.35 L 145.37 129.05 C 144.44 128.72 143.42 129.21 143.09 130.14 C 142.76 131.07 143.25 132.09 144.18 132.42 Z M 144.53 132.45 L 145.20 132.96 C 145.99 133.56 147.11 133.40 147.71 132.62 C 148.30 131.83 148.15 130.71 147.36 130.11 L 146.69 129.60 C 145.90 129.01 144.78 129.16 144.18 129.95 C 143.59 130.74 143.74 131.86 144.53 132.45 Z M 144.88 132.66 L 145.44 133.35 C 146.06 134.12 147.18 134.24 147.95 133.62 C 148.73 133.01 148.85 131.88 148.23 131.11 L 147.68 130.42 C 147.06 129.64 145.93 129.52 145.16 130.14 C 144.39 130.76 144.26 131.88 144.88 132.66 Z M 145.26 133.09 L 145.73 133.94 C 146.21 134.81 147.30 135.12 148.16 134.65 C 149.03 134.17 149.35 133.08 148.87 132.22 L 148.40 131.37 C 147.93 130.50 146.84 130.18 145.97 130.66 C 145.11 131.13 144.79 132.22 145.26 133.09 Z M 145.64 133.74 L 146.02 134.71 C 146.38 135.63 147.43 136.08 148.35 135.71 C 149.26 135.35 149.71 134.30 149.35 133.39 L 148.97 132.42 C 148.60 131.50 147.56 131.05 146.64 131.41 C 145.72 131.78 145.27 132.82 145.64 133.74 Z M 145.97 134.55 L 146.28 135.60 C 146.55 136.55 147.55 137.09 148.50 136.81 C 149.45 136.53 149.99 135.54 149.71 134.59 L 149.40 133.54 C 149.12 132.59 148.13 132.05 147.18 132.33 C 146.23 132.61 145.69 133.60 145.97 134.55 Z M 146.24 135.48 L 146.48 136.57 C 146.70 137.54 147.66 138.15 148.62 137.93 C 149.59 137.72 150.20 136.76 149.98 135.80 L 149.74 134.71 C 149.53 133.74 148.57 133.13 147.61 133.34 C 146.64 133.56 146.03 134.52 146.24 135.48 Z M 146.47 136.48 L 146.63 137.47 C 146.79 138.45 147.72 139.11 148.69 138.94 C 149.67 138.78 150.33 137.86 150.17 136.88 L 150.00 135.89 C 149.84 134.91 148.92 134.25 147.94 134.41 C 146.96 134.58 146.30 135.50 146.47 136.48 Z M 146.62 137.39 L 146.74 138.39 C 146.86 139.37 147.76 140.07 148.74 139.95 C 149.72 139.83 150.42 138.94 150.30 137.95 L 150.18 136.96 C 150.06 135.98 149.17 135.28 148.18 135.40 C 147.20 135.52 146.50 136.41 146.62 137.39 Z M 146.74 138.32 L 146.82 139.32 C 146.90 140.30 147.77 141.04 148.75 140.95 C 149.74 140.87 150.47 140.01 150.39 139.02 L 150.31 138.02 C 150.22 137.04 149.36 136.30 148.37 136.39 C 147.39 136.47 146.65 137.33 146.74 138.32 Z M 146.82 139.26 L 146.87 140.26 C 146.91 141.24 147.75 142.00 148.74 141.96 C 149.73 141.91 150.49 141.07 150.44 140.08 L 150.39 139.08 C 150.34 138.09 149.50 137.33 148.52 137.38 C 147.53 137.43 146.77 138.27 146.82 139.26 Z M 146.86 140.21 L 146.89 141.20 C 146.91 142.19 147.72 142.97 148.71 142.95 C 149.70 142.93 150.48 142.12 150.46 141.13 L 150.44 140.13 C 150.42 139.14 149.60 138.36 148.62 138.38 C 147.63 138.40 146.84 139.22 146.86 140.21 Z M 146.89 141.16 L 146.88 142.15 C 146.88 143.14 147.68 143.95 148.67 143.95 C 149.66 143.95 150.46 143.15 150.46 142.16 L 150.46 141.17 C 150.47 140.18 149.67 139.38 148.68 139.38 C 147.69 139.37 146.89 140.17 146.89 141.16 Z M 146.89 142.12 L 146.86 143.14 C 146.84 144.13 147.63 144.95 148.61 144.97 C 149.60 144.99 150.41 144.21 150.44 143.22 L 150.46 142.20 C 150.48 141.21 149.70 140.39 148.71 140.37 C 147.72 140.35 146.91 141.13 146.89 142.12 Z M 146.87 143.11 L 146.83 144.13 C 146.79 145.12 147.55 145.95 148.53 145.99 C 149.51 146.03 150.34 145.27 150.38 144.29 L 150.43 143.26 C 150.47 142.28 149.71 141.45 148.73 141.40 C 147.74 141.36 146.91 142.12 146.87 143.11 Z M 146.84 144.08 L 146.77 145.10 C 146.70 146.08 147.43 146.92 148.41 146.99 C 149.38 147.06 150.23 146.33 150.30 145.35 L 150.37 144.34 C 150.44 143.36 149.71 142.51 148.73 142.44 C 147.76 142.37 146.91 143.11 146.84 144.08 Z M 146.78 145.04 L 146.67 146.03 C 146.57 147.00 147.27 147.87 148.24 147.98 C 149.21 148.08 150.08 147.38 150.18 146.41 L 150.29 145.41 C 150.39 144.44 149.69 143.57 148.72 143.47 C 147.75 143.37 146.88 144.07 146.78 145.04 Z M 146.69 145.96 L 146.54 146.93 C 146.40 147.89 147.06 148.78 148.02 148.93 C 148.98 149.08 149.87 148.41 150.02 147.46 L 150.16 146.48 C 150.31 145.52 149.65 144.63 148.69 144.48 C 147.73 144.34 146.83 145.00 146.69 145.96 Z M 146.56 146.84 L 146.37 147.78 C 146.18 148.73 146.79 149.65 147.73 149.85 C 148.68 150.04 149.61 149.43 149.80 148.49 L 149.99 147.54 C 150.19 146.60 149.58 145.67 148.63 145.48 C 147.68 145.28 146.76 145.89 146.56 146.84 Z M 146.40 147.67 L 146.15 148.59 C 145.90 149.52 146.45 150.48 147.38 150.73 C 148.31 150.98 149.27 150.44 149.52 149.51 L 149.77 148.59 C 150.02 147.66 149.47 146.70 148.54 146.45 C 147.61 146.20 146.65 146.74 146.40 147.67 Z M 146.20 148.46 L 145.88 149.35 C 145.56 150.25 146.03 151.25 146.93 151.57 C 147.84 151.90 148.83 151.42 149.16 150.52 L 149.47 149.63 C 149.80 148.73 149.33 147.73 148.42 147.41 C 147.52 147.09 146.52 147.56 146.20 148.46 Z M 145.95 149.20 L 145.55 150.06 C 145.14 150.93 145.52 151.96 146.38 152.36 C 147.25 152.77 148.29 152.39 148.69 151.53 L 149.09 150.67 C 149.50 149.80 149.12 148.77 148.25 148.36 C 147.39 147.95 146.35 148.33 145.95 149.20 Z M 145.63 149.90 L 145.13 150.73 C 144.64 151.55 144.91 152.62 145.73 153.11 C 146.55 153.60 147.61 153.34 148.10 152.52 L 148.60 151.68 C 149.10 150.86 148.83 149.80 148.01 149.31 C 147.19 148.81 146.13 149.08 145.63 149.90 Z M 145.24 150.58 L 144.62 151.40 C 144.05 152.16 144.20 153.24 144.96 153.82 C 145.72 154.39 146.80 154.24 147.38 153.48 L 148.00 152.67 C 148.57 151.91 148.42 150.82 147.66 150.25 C 146.90 149.67 145.82 149.82 145.24 150.58 Z M 144.74 151.26 L 143.99 152.07 C 143.34 152.76 143.38 153.85 144.07 154.50 C 144.77 155.15 145.86 155.12 146.51 154.42 L 147.26 153.62 C 147.91 152.92 147.87 151.83 147.18 151.18 C 146.48 150.53 145.39 150.57 144.74 151.26 Z M 144.11 151.96 L 143.30 152.68 C 142.59 153.31 142.52 154.40 143.15 155.11 C 143.79 155.82 144.87 155.88 145.58 155.25 L 146.39 154.53 C 147.10 153.90 147.17 152.81 146.54 152.10 C 145.90 151.39 144.82 151.33 144.11 151.96 Z M 143.40 152.60 L 142.53 153.26 C 141.78 153.84 141.63 154.91 142.20 155.67 C 142.78 156.42 143.86 156.57 144.61 155.99 L 145.48 155.33 C 146.23 154.76 146.38 153.68 145.81 152.92 C 145.23 152.17 144.15 152.02 143.40 152.60 Z M 142.64 153.19 L 141.71 153.79 C 140.92 154.31 140.69 155.37 141.21 156.16 C 141.73 156.96 142.79 157.18 143.58 156.66 L 144.50 156.06 C 145.30 155.55 145.52 154.48 145.01 153.69 C 144.49 152.90 143.43 152.68 142.64 153.19 Z M 141.83 153.73 L 140.89 154.24 C 140.06 154.69 139.75 155.72 140.20 156.55 C 140.64 157.38 141.68 157.69 142.51 157.24 L 143.46 156.73 C 144.29 156.28 144.60 155.25 144.15 154.42 C 143.70 153.59 142.66 153.28 141.83 153.73 Z M 141.04 154.17 L 140.11 154.55 C 139.25 154.92 138.83 155.92 139.20 156.78 C 139.56 157.65 140.56 158.06 141.43 157.70 L 142.36 157.31 C 143.22 156.95 143.64 155.95 143.27 155.08 C 142.91 154.22 141.91 153.80 141.04 154.17 Z M 140.34 154.48 L 139.46 154.71 C 138.55 154.95 138.01 155.88 138.25 156.79 C 138.49 157.70 139.42 158.24 140.33 158.00 L 141.20 157.77 C 142.11 157.53 142.66 156.60 142.42 155.69 C 142.18 154.79 141.25 154.24 140.34 154.48 Z M 139.81 154.66 L 139.02 154.71 C 138.08 154.76 137.37 155.56 137.42 156.49 C 137.47 157.43 138.27 158.15 139.20 158.10 L 139.99 158.05 C 140.92 158.00 141.64 157.20 141.59 156.27 C 141.54 155.33 140.74 154.61 139.81 154.66 Z M 139.61 154.78 L 138.79 154.53 C 137.90 154.26 136.95 154.76 136.68 155.66 C 136.40 156.55 136.91 157.50 137.80 157.77 L 138.61 158.02 C 139.51 158.30 140.46 157.79 140.73 156.90 C 141.01 156.00 140.50 155.05 139.61 154.78 Z M 139.42 154.88 L 138.77 154.31 C 138.06 153.69 136.99 153.76 136.37 154.46 C 135.76 155.16 135.82 156.24 136.53 156.85 L 137.18 157.42 C 137.88 158.04 138.95 157.97 139.57 157.27 C 140.19 156.57 140.12 155.50 139.42 154.88 Z M 139.11 154.72 L 138.62 153.90 C 138.15 153.09 137.11 152.83 136.30 153.30 C 135.50 153.78 135.23 154.82 135.70 155.63 L 136.19 156.44 C 136.66 157.25 137.70 157.52 138.51 157.04 C 139.32 156.56 139.58 155.52 139.11 154.72 Z M 138.76 154.20 L 138.42 153.22 C 138.11 152.33 137.14 151.87 136.26 152.18 C 135.37 152.48 134.91 153.45 135.22 154.34 L 135.56 155.32 C 135.87 156.21 136.84 156.67 137.72 156.36 C 138.61 156.05 139.07 155.09 138.76 154.20 Z M 138.47 153.41 L 138.23 152.33 C 138.03 151.41 137.13 150.83 136.21 151.04 C 135.30 151.24 134.72 152.14 134.92 153.06 L 135.16 154.14 C 135.36 155.06 136.27 155.63 137.18 155.43 C 138.10 155.23 138.68 154.32 138.47 153.41 Z M 138.26 152.44 L 138.10 151.39 C 137.96 150.46 137.10 149.82 136.17 149.95 C 135.25 150.09 134.61 150.95 134.74 151.88 L 134.90 152.94 C 135.04 153.87 135.90 154.51 136.83 154.37 C 137.75 154.23 138.39 153.37 138.26 152.44 Z M 138.11 151.47 L 138.01 150.45 C 137.92 149.52 137.09 148.84 136.16 148.93 C 135.23 149.02 134.54 149.85 134.63 150.78 L 134.73 151.80 C 134.82 152.73 135.65 153.41 136.59 153.32 C 137.52 153.23 138.20 152.40 138.11 151.47 Z M 138.02 150.53 L 137.97 149.52 C 137.92 148.59 137.12 147.86 136.18 147.91 C 135.25 147.96 134.52 148.76 134.57 149.70 L 134.62 150.71 C 134.67 151.64 135.47 152.37 136.41 152.32 C 137.35 152.27 138.07 151.47 138.02 150.53 Z M 137.98 149.59 L 137.97 148.60 C 137.96 147.66 137.19 146.90 136.24 146.91 C 135.30 146.92 134.55 147.69 134.56 148.63 L 134.57 149.63 C 134.58 150.57 135.35 151.33 136.29 151.32 C 137.23 151.31 137.99 150.54 137.98 149.59 Z M 137.97 148.66 L 138.00 147.68 C 138.02 146.73 137.28 145.95 136.34 145.92 C 135.39 145.90 134.61 146.64 134.58 147.58 L 134.55 148.57 C 134.53 149.51 135.27 150.30 136.21 150.32 C 137.16 150.35 137.94 149.60 137.97 148.66 Z M 138.00 147.73 L 138.06 146.76 C 138.11 145.82 137.39 145.01 136.45 144.95 C 135.51 144.89 134.70 145.61 134.64 146.55 L 134.58 147.53 C 134.52 148.47 135.24 149.28 136.18 149.34 C 137.13 149.39 137.94 148.68 138.00 147.73 Z M 138.05 146.81 L 138.15 145.81 C 138.23 144.87 137.54 144.03 136.60 143.95 C 135.66 143.86 134.82 144.55 134.74 145.49 L 134.64 146.50 C 134.55 147.44 135.25 148.27 136.19 148.36 C 137.13 148.45 137.97 147.76 138.05 146.81 Z M 138.14 145.88 L 138.27 144.88 C 138.40 143.94 137.74 143.08 136.80 142.96 C 135.86 142.83 134.99 143.49 134.87 144.43 L 134.74 145.43 C 134.62 146.37 135.28 147.23 136.22 147.35 C 137.16 147.48 138.02 146.82 138.14 145.88 Z M 138.26 144.96 L 138.44 143.98 C 138.61 143.05 137.99 142.15 137.05 141.99 C 136.12 141.82 135.22 142.44 135.06 143.37 L 134.88 144.35 C 134.71 145.29 135.33 146.18 136.27 146.35 C 137.20 146.52 138.10 145.90 138.26 144.96 Z M 138.42 144.08 L 138.65 143.11 C 138.87 142.19 138.30 141.26 137.38 141.04 C 136.45 140.82 135.52 141.39 135.30 142.31 L 135.07 143.28 C 134.85 144.20 135.42 145.13 136.35 145.35 C 137.27 145.57 138.20 145.00 138.42 144.08 Z M 138.63 143.22 L 138.92 142.27 C 139.20 141.36 138.69 140.39 137.78 140.11 C 136.87 139.83 135.90 140.34 135.62 141.25 L 135.33 142.20 C 135.05 143.12 135.56 144.08 136.47 144.36 C 137.38 144.64 138.35 144.13 138.63 143.22 Z M 138.88 142.39 L 139.24 141.45 C 139.59 140.56 139.15 139.56 138.26 139.22 C 137.37 138.87 136.37 139.31 136.02 140.20 L 135.66 141.14 C 135.32 142.03 135.76 143.03 136.65 143.37 C 137.54 143.72 138.54 143.28 138.88 142.39 Z M 139.19 141.57 L 139.63 140.67 C 140.04 139.80 139.68 138.77 138.81 138.36 C 137.95 137.94 136.92 138.31 136.50 139.17 L 136.07 140.08 C 135.66 140.94 136.02 141.98 136.89 142.39 C 137.75 142.80 138.78 142.44 139.19 141.57 Z M 139.57 140.79 L 140.07 139.92 C 140.56 139.09 140.27 138.03 139.45 137.55 C 138.62 137.06 137.55 137.35 137.07 138.18 L 136.57 139.05 C 136.08 139.88 136.37 140.94 137.20 141.42 C 138.02 141.90 139.09 141.62 139.57 140.79 Z M 140.00 140.05 L 140.57 139.23 C 141.13 138.44 140.94 137.36 140.15 136.80 C 139.37 136.25 138.28 136.44 137.73 137.22 L 137.15 138.05 C 136.60 138.83 136.79 139.92 137.57 140.47 C 138.36 141.02 139.44 140.83 140.00 140.05 Z M 140.47 139.36 L 141.12 138.61 C 141.75 137.88 141.67 136.78 140.93 136.15 C 140.20 135.52 139.10 135.60 138.47 136.34 L 137.83 137.09 C 137.20 137.82 137.28 138.92 138.01 139.55 C 138.75 140.18 139.85 140.09 140.47 139.36 Z M 141.00 138.75 L 141.71 138.07 C 142.42 137.41 142.45 136.30 141.79 135.60 C 141.13 134.90 140.02 134.86 139.32 135.52 L 138.60 136.20 C 137.90 136.86 137.86 137.97 138.52 138.67 C 139.19 139.37 140.29 139.41 141.00 138.75 Z M 141.54 138.22 L 142.43 137.57 C 143.22 137.00 143.39 135.91 142.82 135.12 C 142.26 134.34 141.16 134.16 140.37 134.73 L 139.48 135.38 C 138.70 135.95 138.52 137.04 139.09 137.83 C 139.66 138.61 140.76 138.79 141.54 138.22 Z M 142.22 137.72 L 143.16 137.23 C 144.02 136.78 144.36 135.72 143.91 134.85 C 143.46 133.99 142.39 133.65 141.53 134.10 L 140.59 134.59 C 139.73 135.04 139.39 136.10 139.84 136.97 C 140.29 137.83 141.35 138.17 142.22 137.72 Z M 142.87 137.35 L 143.82 137.06 C 144.76 136.76 145.27 135.77 144.98 134.84 C 144.69 133.90 143.69 133.38 142.76 133.68 L 141.81 133.98 C 140.88 134.27 140.36 135.26 140.65 136.20 C 140.95 137.13 141.94 137.65 142.87 137.35 Z M 143.44 137.14 L 144.36 137.06 C 145.34 136.98 146.06 136.12 145.98 135.15 C 145.90 134.17 145.04 133.44 144.07 133.52 L 143.15 133.59 C 142.17 133.68 141.44 134.53 141.52 135.51 C 141.60 136.49 142.46 137.22 143.44 137.14 Z M 143.85 137.04 L 144.70 137.21 C 145.66 137.42 146.61 136.80 146.81 135.83 C 147.01 134.87 146.39 133.92 145.43 133.72 L 144.58 133.54 C 143.61 133.34 142.67 133.96 142.47 134.93 C 142.26 135.89 142.88 136.84 143.85 137.04 Z M 144.17 137.01 L 144.91 137.44 C 145.76 137.94 146.85 137.65 147.35 136.79 C 147.84 135.94 147.55 134.85 146.70 134.35 L 145.96 133.92 C 145.10 133.43 144.01 133.72 143.51 134.57 C 143.02 135.43 143.31 136.52 144.17 137.01 Z M 144.53 137.15 L 145.17 137.81 C 145.86 138.51 147.00 138.52 147.70 137.83 C 148.40 137.14 148.41 136.00 147.72 135.30 L 147.08 134.64 C 146.38 133.94 145.25 133.93 144.55 134.62 C 143.85 135.31 143.84 136.45 144.53 137.15 Z M 144.94 137.52 L 145.49 138.37 C 146.02 139.20 147.13 139.44 147.96 138.91 C 148.79 138.38 149.03 137.27 148.50 136.44 L 147.95 135.59 C 147.42 134.76 146.31 134.52 145.48 135.05 C 144.65 135.58 144.41 136.69 144.94 137.52 Z M 145.35 138.12 L 145.80 139.13 C 146.19 140.04 147.24 140.45 148.15 140.06 C 149.05 139.66 149.47 138.61 149.07 137.70 L 148.63 136.69 C 148.24 135.78 147.18 135.37 146.28 135.77 C 145.37 136.16 144.96 137.21 145.35 138.12 Z M 145.72 138.93 L 146.03 139.98 C 146.31 140.92 147.31 141.46 148.26 141.18 C 149.20 140.90 149.74 139.91 149.46 138.96 L 149.15 137.91 C 148.87 136.96 147.87 136.42 146.93 136.70 C 145.98 136.99 145.44 137.98 145.72 138.93 Z M 146.00 139.82 L 146.18 140.75 C 146.38 141.71 147.32 142.34 148.29 142.14 C 149.26 141.94 149.88 141.00 149.68 140.03 L 149.50 139.11 C 149.30 138.15 148.36 137.52 147.39 137.72 C 146.42 137.91 145.80 138.86 146.00 139.82 Z M 146.16 140.63 L 146.30 141.60 C 146.43 142.58 147.33 143.26 148.31 143.13 C 149.28 142.99 149.97 142.09 149.84 141.12 L 149.70 140.15 C 149.57 139.17 148.67 138.49 147.69 138.62 C 146.72 138.75 146.03 139.65 146.16 140.63 Z M 146.29 141.50 L 146.37 142.50 C 146.45 143.49 147.31 144.22 148.29 144.14 C 149.27 144.06 150.01 143.20 149.93 142.22 L 149.85 141.21 C 149.77 140.23 148.90 139.50 147.92 139.58 C 146.94 139.66 146.21 140.52 146.29 141.50 Z M 146.36 142.42 L 146.40 143.44 C 146.43 144.43 147.26 145.20 148.24 145.17 C 149.23 145.13 150.00 144.31 149.96 143.32 L 149.93 142.30 C 149.90 141.31 149.07 140.54 148.09 140.58 C 147.10 140.61 146.33 141.43 146.36 142.42 Z M 146.40 143.37 L 146.39 144.41 C 146.38 145.39 147.18 146.20 148.16 146.20 C 149.15 146.21 149.95 145.42 149.96 144.43 L 149.97 143.40 C 149.97 142.41 149.18 141.61 148.19 141.60 C 147.21 141.59 146.40 142.39 146.40 143.37 Z M 146.39 144.34 L 146.35 145.38 C 146.31 146.36 147.07 147.19 148.06 147.24 C 149.04 147.28 149.87 146.51 149.91 145.53 L 149.96 144.49 C 150.00 143.51 149.23 142.68 148.25 142.64 C 147.26 142.60 146.43 143.36 146.39 144.34 Z M 146.36 145.32 L 146.28 146.38 C 146.20 147.36 146.94 148.21 147.92 148.29 C 148.90 148.36 149.76 147.62 149.83 146.64 L 149.91 145.59 C 149.98 144.61 149.24 143.75 148.26 143.68 C 147.28 143.60 146.43 144.34 146.36 145.32 Z M 146.29 146.31 L 146.17 147.36 C 146.06 148.33 146.76 149.21 147.74 149.32 C 148.71 149.43 149.59 148.73 149.70 147.75 L 149.82 146.71 C 149.93 145.73 149.22 144.85 148.25 144.75 C 147.27 144.64 146.40 145.34 146.29 146.31 Z M 146.19 147.28 L 146.03 148.30 C 145.88 149.27 146.54 150.17 147.50 150.32 C 148.47 150.47 149.38 149.81 149.53 148.85 L 149.69 147.83 C 149.84 146.86 149.17 145.96 148.21 145.81 C 147.24 145.66 146.34 146.32 146.19 147.28 Z M 146.05 148.21 L 145.84 149.19 C 145.65 150.15 146.26 151.08 147.21 151.28 C 148.17 151.48 149.10 150.87 149.30 149.91 L 149.51 148.93 C 149.70 147.98 149.09 147.04 148.14 146.84 C 147.18 146.65 146.25 147.26 146.05 148.21 Z M 145.87 149.09 L 145.62 150.03 C 145.36 150.96 145.92 151.93 146.86 152.19 C 147.79 152.44 148.76 151.89 149.02 150.95 L 149.27 150.01 C 149.53 149.08 148.97 148.11 148.04 147.85 C 147.10 147.60 146.13 148.15 145.87 149.09 Z M 145.66 149.91 L 145.35 150.79 C 145.03 151.71 145.51 152.71 146.43 153.03 C 147.34 153.35 148.34 152.87 148.66 151.95 L 148.97 151.07 C 149.29 150.15 148.81 149.15 147.90 148.83 C 146.98 148.51 145.98 148.99 145.66 149.91 Z M 145.41 150.65 L 145.00 151.56 C 144.61 152.44 145.00 153.47 145.88 153.87 C 146.76 154.27 147.79 153.88 148.19 153.00 L 148.60 152.09 C 149.00 151.21 148.61 150.18 147.73 149.78 C 146.85 149.38 145.81 149.77 145.41 150.65 Z M 145.10 151.39 L 144.57 152.29 C 144.08 153.12 144.36 154.19 145.19 154.68 C 146.02 155.17 147.08 154.89 147.57 154.06 L 148.10 153.16 C 148.59 152.33 148.31 151.26 147.48 150.78 C 146.65 150.29 145.59 150.57 145.10 151.39 Z M 144.69 152.13 L 144.08 152.93 C 143.50 153.69 143.65 154.78 144.41 155.36 C 145.17 155.94 146.26 155.79 146.84 155.03 L 147.45 154.23 C 148.03 153.47 147.88 152.38 147.12 151.80 C 146.36 151.22 145.27 151.36 144.69 152.13 Z M 144.23 152.77 L 143.54 153.46 C 142.87 154.14 142.88 155.24 143.56 155.91 C 144.24 156.58 145.33 156.57 146.00 155.89 L 146.69 155.19 C 147.36 154.51 147.35 153.42 146.67 152.75 C 145.99 152.08 144.90 152.09 144.23 152.77 Z M 143.72 153.32 L 142.96 153.90 C 142.21 154.48 142.07 155.56 142.65 156.31 C 143.23 157.06 144.31 157.20 145.06 156.62 L 145.82 156.04 C 146.57 155.46 146.71 154.38 146.13 153.63 C 145.55 152.88 144.47 152.74 143.72 153.32 Z M 143.17 153.77 L 142.31 154.26 C 141.49 154.72 141.20 155.76 141.66 156.59 C 142.12 157.41 143.17 157.70 143.99 157.24 L 144.85 156.76 C 145.67 156.29 145.97 155.25 145.50 154.42 C 145.04 153.60 143.99 153.31 143.17 153.77 Z M 142.56 154.14 L 141.57 154.51 C 140.68 154.84 140.23 155.82 140.56 156.71 C 140.89 157.60 141.87 158.05 142.76 157.72 L 143.75 157.35 C 144.63 157.02 145.09 156.04 144.76 155.15 C 144.43 154.26 143.44 153.81 142.56 154.14 Z M 141.87 154.42 L 140.87 154.59 C 139.93 154.75 139.31 155.64 139.46 156.57 C 139.62 157.51 140.51 158.14 141.45 157.98 L 142.45 157.81 C 143.39 157.65 144.02 156.76 143.86 155.83 C 143.70 154.89 142.81 154.26 141.87 154.42 Z M 141.26 154.56 L 140.30 154.50 C 139.35 154.45 138.53 155.17 138.47 156.12 C 138.41 157.07 139.14 157.89 140.09 157.95 L 141.05 158.01 C 142.00 158.06 142.82 157.34 142.88 156.39 C 142.94 155.44 142.22 154.62 141.26 154.56 Z M 140.79 154.60 L 139.91 154.28 C 139.02 153.95 138.02 154.40 137.69 155.30 C 137.36 156.20 137.82 157.19 138.72 157.52 L 139.59 157.85 C 140.49 158.18 141.48 157.72 141.81 156.82 C 142.15 155.93 141.69 154.93 140.79 154.60 Z M 140.41 154.56 L 139.73 154.00 C 138.99 153.40 137.89 153.51 137.29 154.25 C 136.68 154.99 136.80 156.09 137.54 156.69 L 138.22 157.25 C 138.96 157.85 140.06 157.74 140.66 157.00 C 141.27 156.25 141.15 155.16 140.41 154.56 Z M 140.05 154.33 L 139.53 153.61 C 138.97 152.83 137.88 152.65 137.10 153.21 C 136.32 153.77 136.14 154.86 136.70 155.64 L 137.22 156.36 C 137.78 157.14 138.87 157.32 139.65 156.76 C 140.43 156.20 140.61 155.11 140.05 154.33 Z M 139.69 153.87 L 139.27 152.99 C 138.85 152.12 137.81 151.75 136.94 152.17 C 136.07 152.58 135.70 153.62 136.12 154.49 L 136.54 155.37 C 136.95 156.24 138.00 156.61 138.87 156.19 C 139.73 155.78 140.10 154.74 139.69 153.87 Z M 139.35 153.18 L 139.02 152.19 C 138.71 151.28 137.72 150.78 136.81 151.09 C 135.89 151.40 135.39 152.39 135.70 153.30 L 136.03 154.29 C 136.34 155.21 137.33 155.71 138.25 155.40 C 139.16 155.09 139.66 154.10 139.35 153.18 Z M 139.07 152.34 L 138.81 151.29 C 138.59 150.34 137.64 149.76 136.70 149.99 C 135.76 150.22 135.18 151.16 135.40 152.10 L 135.65 153.16 C 135.88 154.10 136.83 154.68 137.77 154.46 C 138.71 154.23 139.29 153.28 139.07 152.34 Z M 138.84 151.40 L 138.66 150.33 C 138.49 149.37 137.58 148.73 136.63 148.89 C 135.67 149.06 135.03 149.97 135.19 150.92 L 135.37 151.99 C 135.54 152.95 136.45 153.59 137.41 153.43 C 138.36 153.26 139.01 152.35 138.84 151.40 Z M 138.68 150.42 L 138.55 149.38 C 138.43 148.41 137.56 147.72 136.59 147.84 C 135.62 147.95 134.93 148.83 135.05 149.80 L 135.17 150.84 C 135.29 151.80 136.17 152.49 137.13 152.38 C 138.10 152.26 138.79 151.38 138.68 150.42 Z M 138.56 149.45 L 138.48 148.44 C 138.41 147.46 137.56 146.74 136.59 146.81 C 135.61 146.88 134.89 147.73 134.96 148.71 L 135.04 149.72 C 135.11 150.70 135.96 151.43 136.93 151.35 C 137.91 151.28 138.64 150.43 138.56 149.45 Z M 138.49 148.50 L 138.45 147.50 C 138.41 146.53 137.59 145.76 136.61 145.80 C 135.63 145.84 134.87 146.67 134.91 147.64 L 134.95 148.64 C 134.99 149.62 135.82 150.38 136.79 150.34 C 137.77 150.30 138.53 149.48 138.49 148.50 Z M 138.46 147.55 L 138.45 146.57 C 138.44 145.59 137.63 144.81 136.65 144.82 C 135.67 144.83 134.88 145.63 134.90 146.61 L 134.91 147.59 C 134.92 148.57 135.72 149.36 136.70 149.35 C 137.68 149.34 138.47 148.53 138.46 147.55 Z M 138.45 146.61 L 138.46 145.64 C 138.47 144.66 137.68 143.86 136.70 143.85 C 135.71 143.84 134.91 144.63 134.90 145.61 L 134.89 146.58 C 134.88 147.56 135.67 148.36 136.65 148.37 C 137.64 148.38 138.44 147.59 138.45 146.61 Z M 138.46 145.67 L 138.48 144.68 C 138.51 143.69 137.73 142.87 136.74 142.85 C 135.76 142.83 134.94 143.61 134.92 144.60 L 134.90 145.59 C 134.88 146.57 135.66 147.39 136.64 147.41 C 137.62 147.43 138.44 146.65 138.46 145.67 Z M 138.49 144.72 L 138.53 143.71 C 138.58 142.73 137.82 141.89 136.84 141.85 C 135.85 141.80 135.01 142.56 134.97 143.54 L 134.92 144.55 C 134.87 145.54 135.63 146.37 136.62 146.42 C 137.60 146.47 138.44 145.71 138.49 144.72 Z M 138.53 143.81 L 138.63 142.83 C 138.73 141.84 138.02 140.97 137.03 140.86 C 136.05 140.76 135.18 141.48 135.07 142.46 L 134.97 143.45 C 134.87 144.43 135.59 145.31 136.57 145.41 C 137.55 145.51 138.43 144.79 138.53 143.81 Z M 138.61 142.98 L 138.79 142.01 C 138.98 141.04 138.34 140.10 137.37 139.92 C 136.40 139.73 135.46 140.37 135.28 141.34 L 135.09 142.31 C 134.91 143.28 135.55 144.21 136.52 144.40 C 137.49 144.58 138.42 143.95 138.61 142.98 Z M 138.74 142.21 L 139.04 141.27 C 139.33 140.32 138.81 139.32 137.86 139.02 C 136.92 138.73 135.92 139.25 135.62 140.20 L 135.33 141.14 C 135.03 142.09 135.56 143.09 136.50 143.38 C 137.45 143.68 138.45 143.15 138.74 142.21 Z M 138.95 141.49 L 139.37 140.60 C 139.79 139.71 139.41 138.64 138.51 138.22 C 137.61 137.80 136.55 138.19 136.13 139.08 L 135.71 139.97 C 135.29 140.87 135.67 141.93 136.57 142.35 C 137.47 142.77 138.53 142.39 138.95 141.49 Z M 139.25 140.81 L 139.78 140.00 C 140.32 139.17 140.08 138.06 139.25 137.52 C 138.41 136.99 137.30 137.22 136.77 138.06 L 136.24 138.87 C 135.71 139.70 135.94 140.81 136.78 141.35 C 137.61 141.89 138.72 141.65 139.25 140.81 Z M 139.65 140.18 L 140.29 139.42 C 140.92 138.66 140.82 137.52 140.06 136.89 C 139.30 136.25 138.17 136.35 137.54 137.11 L 136.90 137.88 C 136.26 138.64 136.36 139.77 137.12 140.40 C 137.88 141.04 139.01 140.94 139.65 140.18 Z M 140.14 139.57 L 140.88 138.88 C 141.60 138.20 141.64 137.07 140.96 136.35 C 140.28 135.62 139.14 135.59 138.42 136.26 L 137.68 136.96 C 136.96 137.63 136.92 138.77 137.60 139.49 C 138.28 140.22 139.42 140.25 140.14 139.57 Z M 140.71 139.03 L 141.53 138.43 C 142.33 137.84 142.51 136.72 141.92 135.92 C 141.34 135.12 140.22 134.94 139.42 135.52 L 138.59 136.12 C 137.79 136.70 137.61 137.83 138.20 138.63 C 138.78 139.43 139.90 139.61 140.71 139.03 Z M 141.33 138.55 L 142.22 138.07 C 143.10 137.60 143.42 136.50 142.95 135.63 C 142.47 134.76 141.38 134.44 140.51 134.91 L 139.62 135.39 C 138.74 135.87 138.42 136.96 138.89 137.83 C 139.37 138.70 140.46 139.03 141.33 138.55 Z M 141.99 138.18 L 142.97 137.82 C 143.90 137.47 144.38 136.44 144.04 135.51 C 143.70 134.57 142.66 134.10 141.73 134.44 L 140.75 134.80 C 139.81 135.14 139.34 136.18 139.68 137.11 C 140.02 138.04 141.06 138.52 141.99 138.18 Z M 142.72 137.89 L 143.74 137.68 C 144.72 137.47 145.34 136.52 145.14 135.54 C 144.93 134.57 143.98 133.95 143.00 134.15 L 141.98 134.36 C 141.01 134.57 140.38 135.52 140.58 136.50 C 140.79 137.47 141.74 138.10 142.72 137.89 Z M 143.48 137.72 L 144.50 137.66 C 145.50 137.60 146.26 136.74 146.20 135.74 C 146.14 134.75 145.28 133.99 144.28 134.05 L 143.26 134.11 C 142.27 134.17 141.51 135.03 141.57 136.02 C 141.63 137.02 142.48 137.78 143.48 137.72 Z M 144.22 137.65 L 145.21 137.75 C 146.20 137.84 147.09 137.11 147.18 136.11 C 147.27 135.12 146.54 134.24 145.55 134.14 L 144.56 134.05 C 143.57 133.96 142.68 134.69 142.59 135.68 C 142.50 136.68 143.23 137.56 144.22 137.65 Z M 144.90 137.70 L 145.82 137.94 C 146.79 138.20 147.78 137.63 148.04 136.66 C 148.30 135.70 147.73 134.70 146.76 134.44 L 145.85 134.19 C 144.88 133.93 143.89 134.50 143.63 135.47 C 143.37 136.44 143.94 137.43 144.90 137.70 Z M 145.48 137.82 L 146.31 138.23 C 147.20 138.68 148.30 138.32 148.74 137.42 C 149.19 136.53 148.83 135.43 147.94 134.98 L 147.11 134.57 C 146.21 134.12 145.12 134.48 144.67 135.38 C 144.22 136.27 144.58 137.37 145.48 137.82 Z M 145.97 138.01 L 146.70 138.61 C 147.47 139.25 148.62 139.14 149.26 138.37 C 149.89 137.59 149.78 136.45 149.01 135.81 L 148.28 135.20 C 147.50 134.57 146.36 134.68 145.72 135.45 C 145.08 136.23 145.19 137.37 145.97 138.01 Z M 146.44 138.35 L 147.04 139.10 C 147.67 139.88 148.81 140.01 149.60 139.38 C 150.38 138.75 150.50 137.60 149.87 136.82 L 149.27 136.07 C 148.64 135.29 147.50 135.16 146.71 135.79 C 145.93 136.42 145.81 137.57 146.44 138.35 Z M 146.87 138.85 L 147.36 139.72 C 147.85 140.60 148.96 140.91 149.83 140.42 C 150.71 139.93 151.02 138.82 150.53 137.94 L 150.04 137.07 C 149.55 136.19 148.44 135.88 147.57 136.37 C 146.69 136.87 146.38 137.97 146.87 138.85 Z M 147.26 139.51 L 147.64 140.47 C 148.02 141.41 149.08 141.86 150.01 141.48 C 150.94 141.11 151.39 140.05 151.02 139.12 L 150.63 138.15 C 150.26 137.22 149.20 136.77 148.27 137.14 C 147.34 137.52 146.88 138.58 147.26 139.51 Z M 147.59 140.31 L 147.88 141.31 C 148.16 142.27 149.17 142.83 150.13 142.55 C 151.10 142.27 151.65 141.26 151.37 140.29 L 151.08 139.29 C 150.80 138.32 149.79 137.77 148.82 138.05 C 147.86 138.33 147.31 139.34 147.59 140.31 Z M 147.84 141.18 L 148.05 142.15 C 148.26 143.13 149.23 143.76 150.21 143.55 C 151.19 143.34 151.82 142.37 151.61 141.39 L 151.40 140.42 C 151.19 139.44 150.23 138.81 149.24 139.02 C 148.26 139.23 147.64 140.20 147.84 141.18 Z M 148.03 142.04 L 148.18 143.04 C 148.34 144.03 149.26 144.71 150.26 144.56 C 151.25 144.41 151.93 143.48 151.78 142.49 L 151.63 141.49 C 151.48 140.50 150.55 139.82 149.55 139.97 C 148.56 140.12 147.88 141.05 148.03 142.04 Z M 148.17 142.95 L 148.28 143.95 C 148.38 144.95 149.27 145.68 150.27 145.58 C 151.27 145.47 152.00 144.58 151.89 143.58 L 151.79 142.57 C 151.69 141.57 150.79 140.85 149.80 140.95 C 148.80 141.05 148.07 141.95 148.17 142.95 Z M 148.27 143.88 L 148.33 144.89 C 148.39 145.89 149.26 146.65 150.26 146.59 C 151.26 146.53 152.02 145.67 151.96 144.66 L 151.90 143.66 C 151.84 142.65 150.98 141.89 149.97 141.95 C 148.97 142.01 148.21 142.88 148.27 143.88 Z M 148.33 144.82 L 148.35 145.82 C 148.38 146.82 149.22 147.61 150.22 147.59 C 151.22 147.56 152.02 146.73 151.99 145.72 L 151.97 144.73 C 151.94 143.72 151.10 142.93 150.10 142.96 C 149.10 142.98 148.30 143.82 148.33 144.82 Z M 148.35 145.76 L 148.35 146.81 C 148.34 147.81 149.15 148.63 150.15 148.64 C 151.16 148.64 151.98 147.84 151.98 146.83 L 151.99 145.78 C 152.00 144.78 151.19 143.96 150.19 143.95 C 149.18 143.95 148.36 144.75 148.35 145.76 Z M 148.35 146.71 L 148.29 147.76 C 148.23 148.76 149.00 149.62 150.00 149.68 C 151.00 149.74 151.86 148.97 151.92 147.97 L 151.98 146.92 C 152.04 145.92 151.27 145.06 150.27 145.00 C 149.27 144.95 148.41 145.71 148.35 146.71 Z M 148.31 147.61 L 148.17 148.60 C 148.03 149.60 148.72 150.51 149.71 150.66 C 150.70 150.80 151.62 150.11 151.76 149.11 L 151.90 148.12 C 152.04 147.13 151.35 146.21 150.36 146.07 C 149.37 145.93 148.45 146.62 148.31 147.61 Z M 148.21 148.39 L 147.96 149.32 C 147.70 150.29 148.28 151.28 149.25 151.54 C 150.22 151.80 151.21 151.23 151.47 150.26 L 151.72 149.33 C 151.98 148.36 151.40 147.36 150.43 147.10 C 149.46 146.85 148.47 147.42 148.21 148.39 Z M 148.06 149.05 L 147.68 149.91 C 147.27 150.82 147.68 151.89 148.59 152.30 C 149.50 152.71 150.58 152.30 150.99 151.39 L 151.37 150.53 C 151.78 149.62 151.37 148.54 150.46 148.13 C 149.54 147.72 148.47 148.13 148.06 149.05 Z M 147.85 149.61 L 147.31 150.38 C 146.73 151.20 146.93 152.33 147.75 152.90 C 148.57 153.48 149.70 153.28 150.27 152.46 L 150.81 151.69 C 151.39 150.87 151.19 149.74 150.37 149.17 C 149.55 148.59 148.42 148.79 147.85 149.61 Z M 147.52 150.13 L 146.83 150.81 C 146.12 151.51 146.10 152.65 146.80 153.37 C 147.50 154.08 148.65 154.09 149.36 153.39 L 150.05 152.71 C 150.77 152.01 150.78 150.87 150.08 150.15 C 149.38 149.44 148.24 149.43 147.52 150.13 Z M 147.05 150.62 L 146.24 151.20 C 145.42 151.78 145.23 152.91 145.81 153.72 C 146.38 154.53 147.51 154.73 148.32 154.15 L 149.14 153.57 C 149.95 153.00 150.15 151.87 149.57 151.06 C 148.99 150.24 147.87 150.05 147.05 150.62 Z M 146.46 151.07 L 145.55 151.54 C 144.66 151.99 144.31 153.08 144.77 153.96 C 145.22 154.85 146.31 155.20 147.20 154.75 L 148.10 154.28 C 148.99 153.83 149.34 152.74 148.89 151.85 C 148.43 150.97 147.34 150.62 146.46 151.07 Z M 145.77 151.44 L 144.80 151.79 C 143.87 152.12 143.38 153.15 143.71 154.09 C 144.04 155.02 145.07 155.51 146.01 155.18 L 146.98 154.84 C 147.91 154.51 148.40 153.48 148.07 152.54 C 147.74 151.60 146.71 151.11 145.77 151.44 Z M 145.04 151.72 L 144.03 151.93 C 143.05 152.14 142.43 153.09 142.63 154.07 C 142.84 155.04 143.79 155.66 144.77 155.46 L 145.78 155.25 C 146.75 155.04 147.37 154.09 147.17 153.11 C 146.96 152.14 146.01 151.52 145.04 151.72 Z M 144.28 151.90 L 143.25 151.97 C 142.26 152.03 141.51 152.89 141.58 153.89 C 141.64 154.88 142.50 155.63 143.50 155.56 L 144.52 155.49 C 145.51 155.43 146.26 154.57 146.20 153.57 C 146.13 152.58 145.27 151.83 144.28 151.90 Z M 143.52 151.97 L 142.52 151.88 C 141.53 151.80 140.65 152.54 140.57 153.54 C 140.49 154.53 141.23 155.40 142.23 155.48 L 143.23 155.56 C 144.22 155.65 145.09 154.91 145.17 153.91 C 145.25 152.92 144.51 152.05 143.52 151.97 Z M 142.81 151.93 L 141.85 151.69 C 140.88 151.45 139.90 152.04 139.66 153.01 C 139.42 153.98 140.01 154.96 140.98 155.20 L 141.94 155.44 C 142.91 155.68 143.89 155.09 144.13 154.12 C 144.37 153.15 143.78 152.17 142.81 151.93 Z M 142.16 151.79 L 141.28 151.40 C 140.36 150.98 139.29 151.39 138.88 152.30 C 138.47 153.22 138.88 154.29 139.79 154.70 L 140.67 155.10 C 141.58 155.51 142.66 155.10 143.07 154.19 C 143.48 153.28 143.07 152.21 142.16 151.79 Z M 141.58 151.56 L 140.84 151.05 C 140.03 150.47 138.89 150.67 138.32 151.49 C 137.74 152.31 137.94 153.44 138.76 154.01 L 139.49 154.53 C 140.31 155.11 141.44 154.91 142.02 154.09 C 142.59 153.27 142.40 152.14 141.58 151.56 Z M 141.10 151.26 L 140.50 150.65 C 139.80 149.93 138.65 149.92 137.93 150.62 C 137.21 151.32 137.20 152.46 137.90 153.18 L 138.50 153.80 C 139.20 154.52 140.35 154.53 141.07 153.83 C 141.78 153.13 141.80 151.98 141.10 151.26 Z M 140.70 150.89 L 140.18 150.14 C 139.61 149.31 138.49 149.10 137.66 149.67 C 136.83 150.24 136.62 151.37 137.19 152.19 L 137.70 152.94 C 138.27 153.77 139.40 153.98 140.23 153.41 C 141.05 152.85 141.26 151.72 140.70 150.89 Z M 140.32 150.39 L 139.90 149.50 C 139.47 148.59 138.39 148.21 137.48 148.64 C 136.58 149.07 136.19 150.15 136.62 151.06 L 137.05 151.95 C 137.48 152.85 138.56 153.23 139.46 152.80 C 140.37 152.37 140.75 151.29 140.32 150.39 Z M 139.99 149.73 L 139.67 148.70 C 139.36 147.74 138.34 147.21 137.39 147.52 C 136.43 147.82 135.90 148.84 136.21 149.79 L 136.53 150.83 C 136.84 151.78 137.85 152.31 138.81 152.01 C 139.77 151.71 140.29 150.69 139.99 149.73 Z M 139.72 148.91 L 139.49 147.73 C 139.31 146.74 138.35 146.10 137.37 146.29 C 136.39 146.48 135.74 147.43 135.93 148.41 L 136.15 149.59 C 136.34 150.57 137.29 151.22 138.28 151.03 C 139.26 150.84 139.91 149.89 139.72 148.91 Z M 139.52 147.89 L 139.41 146.87 C 139.31 145.87 138.42 145.15 137.43 145.25 C 136.43 145.35 135.70 146.24 135.80 147.23 L 135.91 148.25 C 136.01 149.25 136.90 149.98 137.89 149.87 C 138.89 149.77 139.62 148.88 139.52 147.89 Z M 139.42 146.99 L 139.39 145.98 C 139.35 144.98 138.51 144.19 137.51 144.23 C 136.51 144.27 135.72 145.11 135.76 146.11 L 135.80 147.12 C 135.83 148.12 136.67 148.90 137.67 148.87 C 138.68 148.83 139.46 147.99 139.42 146.99 Z M 139.39 146.08 L 139.41 145.04 C 139.43 144.04 138.64 143.21 137.63 143.19 C 136.63 143.16 135.80 143.96 135.78 144.96 L 135.76 146.00 C 135.74 147.01 136.53 147.84 137.53 147.86 C 138.54 147.88 139.36 147.08 139.39 146.08 Z M 139.40 145.14 L 139.49 144.09 C 139.57 143.09 138.82 142.22 137.82 142.14 C 136.82 142.06 135.95 142.81 135.87 143.80 L 135.79 144.86 C 135.71 145.86 136.45 146.73 137.45 146.81 C 138.45 146.89 139.32 146.14 139.40 145.14 Z M 139.47 144.20 L 139.62 143.16 C 139.76 142.17 139.07 141.25 138.07 141.11 C 137.08 140.97 136.17 141.67 136.03 142.66 L 135.88 143.70 C 135.74 144.69 136.43 145.60 137.43 145.74 C 138.42 145.88 139.34 145.19 139.47 144.20 Z M 139.60 143.28 L 139.81 142.29 C 140.01 141.31 139.39 140.35 138.41 140.14 C 137.43 139.93 136.46 140.56 136.26 141.54 L 136.05 142.54 C 135.84 143.52 136.47 144.48 137.45 144.69 C 138.43 144.89 139.39 144.27 139.60 143.28 Z M 139.77 142.43 L 140.05 141.51 C 140.33 140.55 139.78 139.54 138.82 139.25 C 137.86 138.97 136.85 139.51 136.57 140.47 L 136.29 141.40 C 136.01 142.36 136.56 143.37 137.52 143.66 C 138.48 143.94 139.49 143.39 139.77 142.43 Z M 139.99 141.68 L 140.33 140.84 C 140.71 139.92 140.27 138.86 139.34 138.48 C 138.41 138.10 137.35 138.54 136.97 139.47 L 136.63 140.30 C 136.25 141.23 136.69 142.29 137.62 142.67 C 138.55 143.05 139.61 142.61 139.99 141.68 Z M 140.21 141.09 L 140.76 140.16 C 141.28 139.30 141.00 138.19 140.14 137.67 C 139.28 137.16 138.17 137.44 137.65 138.29 L 137.09 139.22 C 136.58 140.08 136.86 141.20 137.72 141.71 C 138.58 142.23 139.69 141.95 140.21 141.09 Z M 140.55 140.45 L 141.24 139.68 C 141.92 138.94 141.86 137.79 141.12 137.12 C 140.37 136.45 139.23 136.50 138.55 137.25 L 137.86 138.01 C 137.19 138.75 137.25 139.90 137.99 140.57 C 138.73 141.25 139.88 141.19 140.55 140.45 Z M 140.98 139.92 L 141.77 139.33 C 142.57 138.74 142.74 137.60 142.14 136.80 C 141.54 135.99 140.40 135.83 139.60 136.42 L 138.82 137.01 C 138.01 137.61 137.84 138.74 138.44 139.55 C 139.04 140.35 140.18 140.52 140.98 139.92 Z M 141.50 139.50 L 142.35 139.07 C 143.25 138.62 143.61 137.53 143.16 136.63 C 142.71 135.74 141.62 135.38 140.72 135.83 L 139.87 136.26 C 138.97 136.71 138.61 137.80 139.06 138.70 C 139.51 139.59 140.60 139.95 141.50 139.50 Z M 142.12 139.17 L 143.02 138.86 C 143.97 138.54 144.48 137.51 144.16 136.56 C 143.84 135.61 142.81 135.10 141.86 135.42 L 140.96 135.73 C 140.01 136.05 139.50 137.08 139.82 138.03 C 140.14 138.98 141.17 139.49 142.12 139.17 Z M 142.83 138.92 L 143.77 138.71 C 144.75 138.49 145.37 137.52 145.15 136.54 C 144.93 135.56 143.97 134.95 142.99 135.16 L 142.05 135.37 C 141.07 135.59 140.45 136.56 140.67 137.54 C 140.89 138.51 141.86 139.13 142.83 138.92 Z M 143.61 138.74 L 144.66 138.61 C 145.65 138.48 146.36 137.57 146.23 136.57 C 146.11 135.58 145.20 134.87 144.20 135.00 L 143.15 135.13 C 142.15 135.26 141.45 136.17 141.58 137.16 C 141.70 138.16 142.61 138.87 143.61 138.74 Z M 144.43 138.63 L 145.46 138.63 C 146.47 138.62 147.28 137.80 147.28 136.79 C 147.28 135.79 146.46 134.97 145.45 134.97 L 144.42 134.98 C 143.42 134.98 142.60 135.80 142.60 136.81 C 142.61 137.82 143.43 138.63 144.43 138.63 Z M 145.15 138.61 L 146.11 138.77 C 147.11 138.94 148.05 138.27 148.22 137.27 C 148.39 136.27 147.72 135.33 146.72 135.16 L 145.76 134.99 C 144.76 134.82 143.81 135.50 143.65 136.49 C 143.48 137.49 144.15 138.44 145.15 138.61 Z M 145.71 138.66 L 146.58 139.03 C 147.52 139.42 148.59 138.98 148.99 138.04 C 149.38 137.10 148.94 136.02 148.00 135.63 L 147.13 135.27 C 146.19 134.87 145.11 135.32 144.72 136.25 C 144.33 137.19 144.77 138.27 145.71 138.66 Z M 146.13 138.77 L 146.88 139.37 C 147.67 140.01 148.84 139.88 149.48 139.09 C 150.12 138.30 149.99 137.13 149.20 136.49 L 148.45 135.89 C 147.65 135.25 146.49 135.38 145.85 136.17 C 145.21 136.96 145.34 138.13 146.13 138.77 Z M 146.53 139.01 L 147.05 139.73 C 147.65 140.56 148.81 140.75 149.64 140.16 C 150.47 139.56 150.66 138.40 150.06 137.57 L 149.54 136.85 C 148.94 136.02 147.79 135.83 146.95 136.43 C 146.12 137.03 145.94 138.18 146.53 139.01 Z M 146.87 139.43 L 147.27 140.29 C 147.69 141.23 148.80 141.63 149.73 141.21 C 150.66 140.78 151.07 139.68 150.64 138.74 L 150.24 137.88 C 149.82 136.95 148.71 136.54 147.78 136.96 C 146.85 137.39 146.44 138.49 146.87 139.43 Z M 147.17 140.04 L 147.45 141.01 C 147.74 142.00 148.77 142.57 149.76 142.28 C 150.74 141.99 151.31 140.96 151.02 139.97 L 150.74 139.00 C 150.45 138.01 149.42 137.45 148.43 137.73 C 147.45 138.02 146.88 139.05 147.17 140.04 Z M 147.40 140.79 L 147.56 141.83 C 147.73 142.84 148.68 143.53 149.70 143.37 C 150.72 143.21 151.41 142.25 151.24 141.23 L 151.08 140.20 C 150.91 139.18 149.96 138.49 148.94 138.65 C 147.92 138.82 147.23 139.77 147.40 140.79 Z M 147.54 141.62 L 147.59 142.67 C 147.64 143.70 148.51 144.50 149.54 144.45 C 150.57 144.40 151.37 143.52 151.32 142.49 L 151.27 141.44 C 151.22 140.41 150.35 139.61 149.31 139.66 C 148.28 139.71 147.49 140.59 147.54 141.62 Z M 147.59 142.46 L 147.52 143.48 C 147.45 144.51 148.23 145.40 149.26 145.47 C 150.29 145.54 151.19 144.76 151.25 143.72 L 151.32 142.70 C 151.39 141.67 150.61 140.78 149.58 140.71 C 148.55 140.64 147.65 141.42 147.59 142.46 Z M 147.55 143.23 L 147.34 144.27 C 147.14 145.29 147.79 146.27 148.81 146.48 C 149.82 146.68 150.81 146.03 151.01 145.01 L 151.22 143.97 C 151.43 142.96 150.77 141.97 149.76 141.77 C 148.74 141.56 147.76 142.22 147.55 143.23 Z M 147.42 144.02 L 147.07 144.99 C 146.73 145.96 147.23 147.02 148.21 147.37 C 149.18 147.71 150.24 147.21 150.59 146.24 L 150.93 145.27 C 151.28 144.30 150.77 143.23 149.80 142.89 C 148.83 142.54 147.76 143.05 147.42 144.02 Z M 147.18 144.76 L 146.72 145.64 C 146.26 146.56 146.62 147.68 147.53 148.15 C 148.44 148.62 149.56 148.26 150.03 147.34 L 150.48 146.46 C 150.95 145.55 150.59 144.43 149.68 143.96 C 148.77 143.49 147.65 143.85 147.18 144.76 Z M 146.84 145.47 L 146.30 146.27 C 145.73 147.12 145.96 148.27 146.81 148.84 C 147.66 149.41 148.81 149.18 149.38 148.33 L 149.92 147.52 C 150.49 146.67 150.26 145.52 149.41 144.95 C 148.56 144.39 147.41 144.61 146.84 145.47 Z M 146.40 146.14 L 145.80 146.89 C 145.16 147.68 145.28 148.84 146.07 149.48 C 146.86 150.12 148.02 150.00 148.67 149.21 L 149.27 148.46 C 149.91 147.67 149.79 146.51 149.00 145.87 C 148.21 145.23 147.05 145.35 146.40 146.14 Z M 145.89 146.79 L 145.18 147.55 C 144.49 148.29 144.53 149.45 145.27 150.15 C 146.01 150.84 147.17 150.80 147.87 150.06 L 148.57 149.31 C 149.27 148.57 149.23 147.40 148.49 146.71 C 147.75 146.01 146.59 146.05 145.89 146.79 Z M 145.29 147.44 L 144.47 148.19 C 143.72 148.87 143.66 150.03 144.34 150.78 C 145.02 151.53 146.18 151.59 146.93 150.91 L 147.75 150.16 C 148.51 149.49 148.56 148.33 147.88 147.57 C 147.21 146.82 146.05 146.76 145.29 147.44 Z M 144.67 148.04 L 143.82 148.62 C 142.99 149.19 142.77 150.33 143.34 151.16 C 143.92 152.00 145.05 152.21 145.89 151.64 L 146.73 151.06 C 147.57 150.49 147.78 149.35 147.21 148.52 C 146.64 147.68 145.50 147.47 144.67 148.04 Z M 144.17 148.44 L 143.32 148.78 C 142.38 149.16 141.93 150.22 142.31 151.16 C 142.68 152.09 143.75 152.54 144.68 152.17 L 145.54 151.82 C 146.47 151.44 146.92 150.38 146.55 149.44 C 146.17 148.51 145.11 148.06 144.17 148.44 Z M 143.91 148.65 L 143.06 148.70 C 142.06 148.74 141.28 149.60 141.33 150.60 C 141.38 151.61 142.24 152.38 143.24 152.33 L 144.09 152.29 C 145.09 152.24 145.87 151.39 145.82 150.38 C 145.77 149.38 144.92 148.60 143.91 148.65 Z M 143.79 148.81 L 142.98 148.51 C 142.04 148.16 140.99 148.64 140.64 149.58 C 140.29 150.52 140.77 151.57 141.71 151.92 L 142.52 152.22 C 143.46 152.57 144.51 152.09 144.86 151.15 C 145.21 150.21 144.73 149.16 143.79 148.81 Z M 143.48 148.79 L 142.74 148.20 C 141.95 147.57 140.80 147.70 140.18 148.49 C 139.55 149.28 139.68 150.43 140.47 151.05 L 141.21 151.64 C 142.00 152.27 143.15 152.14 143.77 151.35 C 144.40 150.56 144.27 149.41 143.48 148.79 Z M 143.03 148.49 L 142.39 147.68 C 141.77 146.89 140.62 146.76 139.83 147.39 C 139.04 148.01 138.91 149.16 139.53 149.95 L 140.17 150.76 C 140.80 151.55 141.95 151.68 142.74 151.06 C 143.53 150.43 143.66 149.28 143.03 148.49 Z M 142.58 147.98 L 142.09 147.02 C 141.62 146.12 140.52 145.78 139.62 146.24 C 138.73 146.71 138.38 147.81 138.85 148.70 L 139.34 149.66 C 139.81 150.56 140.91 150.90 141.81 150.44 C 142.70 149.97 143.05 148.87 142.58 147.98 Z M 142.22 147.33 L 141.91 146.33 C 141.62 145.37 140.59 144.82 139.63 145.12 C 138.66 145.41 138.12 146.44 138.41 147.40 L 138.72 148.40 C 139.01 149.36 140.03 149.91 141.00 149.61 C 141.97 149.32 142.51 148.29 142.22 147.33 Z M 141.98 146.65 L 141.87 145.69 C 141.75 144.68 140.84 143.96 139.83 144.08 C 138.83 144.20 138.11 145.11 138.23 146.12 L 138.34 147.08 C 138.46 148.09 139.37 148.81 140.38 148.69 C 141.38 148.57 142.10 147.66 141.98 146.65 Z M 141.89 145.98 L 141.93 145.00 C 141.97 143.98 141.17 143.13 140.16 143.09 C 139.14 143.05 138.29 143.84 138.25 144.85 L 138.21 145.83 C 138.17 146.85 138.96 147.70 139.98 147.74 C 140.99 147.78 141.85 146.99 141.89 145.98 Z M 141.90 145.25 L 142.08 144.27 C 142.26 143.26 141.59 142.30 140.59 142.12 C 139.59 141.94 138.63 142.61 138.45 143.62 L 138.27 144.60 C 138.09 145.60 138.76 146.56 139.76 146.74 C 140.76 146.92 141.72 146.25 141.90 145.25 Z M 142.03 144.48 L 142.33 143.50 C 142.63 142.52 142.08 141.49 141.10 141.19 C 140.12 140.89 139.09 141.44 138.79 142.42 L 138.49 143.40 C 138.19 144.38 138.75 145.42 139.72 145.71 C 140.70 146.01 141.74 145.46 142.03 144.48 Z M 142.28 143.67 L 142.67 142.73 C 143.06 141.79 142.61 140.70 141.67 140.31 C 140.72 139.91 139.63 140.36 139.24 141.31 L 138.85 142.25 C 138.45 143.19 138.90 144.28 139.85 144.68 C 140.79 145.07 141.88 144.62 142.28 143.67 Z M 142.60 142.88 L 143.06 142.01 C 143.54 141.10 143.18 139.97 142.27 139.50 C 141.36 139.02 140.23 139.37 139.76 140.28 L 139.30 141.16 C 138.83 142.07 139.18 143.19 140.09 143.67 C 141.00 144.15 142.13 143.79 142.60 142.88 Z M 142.98 142.15 L 143.52 141.31 C 144.08 140.44 143.82 139.29 142.95 138.73 C 142.08 138.18 140.93 138.43 140.37 139.30 L 139.84 140.14 C 139.28 141.01 139.53 142.16 140.40 142.72 C 141.27 143.28 142.43 143.02 142.98 142.15 Z M 143.43 141.46 L 144.04 140.66 C 144.68 139.85 144.53 138.67 143.71 138.03 C 142.89 137.40 141.72 137.55 141.08 138.36 L 140.47 139.16 C 139.83 139.97 139.98 141.15 140.80 141.79 C 141.61 142.42 142.79 142.27 143.43 141.46 Z M 143.93 140.81 L 144.62 140.07 C 145.33 139.32 145.30 138.13 144.55 137.42 C 143.79 136.71 142.61 136.74 141.89 137.49 L 141.20 138.22 C 140.48 138.97 140.52 140.16 141.27 140.88 C 142.02 141.59 143.21 141.56 143.93 140.81 Z M 144.48 140.22 L 145.25 139.56 C 146.04 138.88 146.13 137.70 145.46 136.90 C 144.78 136.11 143.59 136.02 142.80 136.69 L 142.03 137.35 C 141.24 138.02 141.15 139.21 141.82 140.00 C 142.50 140.80 143.69 140.89 144.48 140.22 Z M 145.07 139.70 L 146.03 139.06 C 146.90 138.49 147.14 137.32 146.56 136.45 C 145.98 135.58 144.81 135.34 143.94 135.91 L 142.98 136.55 C 142.11 137.13 141.87 138.30 142.45 139.17 C 143.03 140.04 144.20 140.28 145.07 139.70 Z M 145.81 139.20 L 146.81 138.71 C 147.76 138.26 148.15 137.12 147.70 136.18 C 147.24 135.24 146.11 134.84 145.16 135.30 L 144.16 135.78 C 143.22 136.24 142.82 137.37 143.28 138.32 C 143.73 139.26 144.87 139.65 145.81 139.20 Z M 146.52 138.83 L 147.49 138.55 C 148.50 138.25 149.08 137.19 148.79 136.18 C 148.49 135.18 147.43 134.60 146.42 134.89 L 145.45 135.18 C 144.44 135.47 143.86 136.53 144.16 137.54 C 144.46 138.55 145.51 139.13 146.52 138.83 Z M 147.05 138.63 L 147.93 138.59 C 148.98 138.53 149.80 137.64 149.74 136.58 C 149.69 135.53 148.79 134.71 147.74 134.77 L 146.86 134.81 C 145.81 134.86 145.00 135.76 145.05 136.82 C 145.10 137.87 146.00 138.68 147.05 138.63 Z M 147.22 138.49 L 147.93 138.74 C 148.94 139.08 150.03 138.54 150.37 137.54 C 150.71 136.54 150.17 135.45 149.17 135.10 L 148.45 134.86 C 147.45 134.52 146.36 135.05 146.02 136.06 C 145.68 137.06 146.21 138.15 147.22 138.49 Z M 147.14 138.22 L 147.67 138.81 C 148.39 139.59 149.60 139.64 150.39 138.93 C 151.17 138.21 151.22 136.99 150.51 136.21 L 149.97 135.62 C 149.26 134.84 148.04 134.79 147.26 135.50 C 146.47 136.22 146.42 137.44 147.14 138.22 Z M 147.31 138.22 L 147.65 139.08 C 148.04 140.06 149.16 140.54 150.15 140.15 C 151.13 139.76 151.61 138.64 151.22 137.65 L 150.87 136.79 C 150.48 135.81 149.36 135.33 148.38 135.72 C 147.39 136.12 146.91 137.24 147.31 138.22 Z M 147.54 138.72 L 147.74 139.77 C 147.93 140.81 148.94 141.50 149.98 141.30 C 151.02 141.11 151.71 140.11 151.52 139.06 L 151.32 138.01 C 151.13 136.97 150.12 136.28 149.08 136.48 C 148.04 136.67 147.35 137.67 147.54 138.72 Z M 147.71 139.57 L 147.81 140.74 C 147.89 141.79 148.82 142.58 149.88 142.50 C 150.94 142.41 151.72 141.48 151.64 140.42 L 151.54 139.26 C 151.46 138.20 150.53 137.41 149.47 137.50 C 148.41 137.59 147.63 138.51 147.71 139.57 Z M 147.81 140.64 L 147.84 141.65 C 147.87 142.71 148.76 143.54 149.82 143.50 C 150.88 143.47 151.71 142.59 151.67 141.53 L 151.64 140.52 C 151.61 139.46 150.72 138.63 149.66 138.66 C 148.60 138.70 147.77 139.58 147.81 140.64 Z M 147.85 141.57 L 147.84 142.55 C 147.83 143.60 148.68 144.46 149.73 144.47 C 150.78 144.48 151.65 143.63 151.66 142.58 L 151.66 141.60 C 151.67 140.55 150.83 139.69 149.77 139.68 C 148.72 139.67 147.85 140.52 147.85 141.57 Z M 147.85 142.45 L 147.79 143.44 C 147.73 144.48 148.53 145.38 149.58 145.45 C 150.62 145.51 151.52 144.71 151.59 143.66 L 151.64 142.67 C 151.71 141.63 150.91 140.73 149.86 140.66 C 148.81 140.60 147.91 141.40 147.85 142.45 Z M 147.81 143.32 L 147.69 144.32 C 147.56 145.36 148.30 146.30 149.34 146.42 C 150.38 146.55 151.32 145.81 151.45 144.77 L 151.57 143.78 C 151.69 142.74 150.95 141.80 149.91 141.67 C 148.88 141.55 147.94 142.28 147.81 143.32 Z M 147.72 144.19 L 147.53 145.20 C 147.33 146.22 148.00 147.20 149.02 147.40 C 150.04 147.60 151.03 146.93 151.22 145.91 L 151.42 144.90 C 151.61 143.88 150.94 142.89 149.92 142.70 C 148.90 142.50 147.92 143.17 147.72 144.19 Z M 147.57 145.06 L 147.30 146.04 C 147.03 147.03 147.61 148.07 148.61 148.34 C 149.61 148.61 150.64 148.02 150.91 147.03 L 151.18 146.05 C 151.45 145.05 150.87 144.02 149.87 143.75 C 148.87 143.47 147.84 144.06 147.57 145.06 Z M 147.35 145.90 L 147.03 146.79 C 146.68 147.76 147.19 148.83 148.16 149.18 C 149.13 149.52 150.20 149.02 150.55 148.05 L 150.86 147.16 C 151.21 146.19 150.71 145.12 149.74 144.77 C 148.77 144.42 147.70 144.93 147.35 145.90 Z M 147.09 146.65 L 146.69 147.53 C 146.27 148.47 146.69 149.57 147.63 149.99 C 148.56 150.42 149.67 150.00 150.09 149.06 L 150.49 148.18 C 150.91 147.25 150.49 146.14 149.56 145.72 C 148.62 145.29 147.51 145.71 147.09 146.65 Z M 146.77 147.39 L 146.29 148.25 C 145.79 149.14 146.11 150.28 147.00 150.78 C 147.90 151.28 149.03 150.96 149.53 150.06 L 150.01 149.20 C 150.52 148.31 150.20 147.17 149.30 146.67 C 148.40 146.17 147.27 146.49 146.77 147.39 Z M 146.38 148.10 L 145.81 148.94 C 145.23 149.78 145.44 150.93 146.29 151.52 C 147.13 152.10 148.29 151.88 148.87 151.04 L 149.44 150.21 C 150.02 149.36 149.81 148.21 148.96 147.63 C 148.12 147.05 146.96 147.26 146.38 148.10 Z M 145.92 148.79 L 145.25 149.59 C 144.60 150.37 144.69 151.54 145.48 152.19 C 146.26 152.85 147.43 152.75 148.08 151.97 L 148.75 151.18 C 149.41 150.40 149.31 149.23 148.53 148.57 C 147.75 147.91 146.58 148.01 145.92 148.79 Z M 145.39 149.45 L 144.62 150.19 C 143.88 150.90 143.86 152.07 144.57 152.81 C 145.28 153.54 146.45 153.56 147.18 152.85 L 147.95 152.11 C 148.69 151.40 148.71 150.23 148.00 149.50 C 147.29 148.76 146.12 148.74 145.39 149.45 Z M 144.77 150.07 L 143.87 150.76 C 143.07 151.39 142.92 152.55 143.55 153.35 C 144.17 154.15 145.33 154.30 146.14 153.67 L 147.03 152.98 C 147.83 152.35 147.98 151.20 147.35 150.39 C 146.73 149.59 145.57 149.44 144.77 150.07 Z M 144.03 150.65 L 143.07 151.25 C 142.20 151.79 141.94 152.92 142.47 153.79 C 143.01 154.65 144.14 154.92 145.01 154.38 L 145.97 153.78 C 146.84 153.25 147.10 152.11 146.57 151.25 C 146.03 150.38 144.90 150.12 144.03 150.65 Z M 143.26 151.15 L 142.27 151.62 C 141.35 152.05 140.96 153.14 141.39 154.06 C 141.82 154.98 142.92 155.38 143.83 154.94 L 144.82 154.48 C 145.74 154.05 146.13 152.96 145.70 152.04 C 145.27 151.12 144.18 150.72 143.26 151.15 Z M 142.52 151.52 L 141.57 151.81 C 140.60 152.10 140.05 153.13 140.34 154.10 C 140.63 155.07 141.66 155.62 142.63 155.33 L 143.58 155.04 C 144.55 154.75 145.10 153.72 144.81 152.75 C 144.52 151.78 143.49 151.23 142.52 151.52 Z M 141.94 151.74 L 141.06 151.82 C 140.05 151.91 139.30 152.79 139.39 153.80 C 139.48 154.81 140.37 155.56 141.38 155.47 L 142.26 155.40 C 143.27 155.31 144.01 154.42 143.92 153.41 C 143.84 152.40 142.95 151.65 141.94 151.74 Z M 141.63 151.86 L 140.88 151.69 C 139.89 151.46 138.91 152.07 138.68 153.06 C 138.45 154.05 139.07 155.03 140.06 155.26 L 140.81 155.43 C 141.79 155.66 142.78 155.04 143.00 154.06 C 143.23 153.07 142.62 152.09 141.63 151.86 Z M 141.60 152.03 L 141.01 151.57 C 140.22 150.95 139.07 151.09 138.44 151.88 C 137.82 152.68 137.96 153.83 138.75 154.46 L 139.34 154.91 C 140.13 155.54 141.28 155.40 141.91 154.60 C 142.53 153.81 142.39 152.65 141.60 152.03 Z M 141.47 152.09 L 141.06 151.38 C 140.55 150.50 139.43 150.20 138.55 150.71 C 137.67 151.22 137.37 152.34 137.88 153.22 L 138.29 153.93 C 138.80 154.81 139.93 155.11 140.80 154.60 C 141.68 154.09 141.98 152.97 141.47 152.09 Z M 141.23 151.77 L 140.96 150.87 C 140.67 149.89 139.65 149.34 138.67 149.63 C 137.70 149.92 137.15 150.94 137.44 151.92 L 137.71 152.83 C 138.00 153.80 139.02 154.35 140.00 154.06 C 140.97 153.77 141.52 152.75 141.23 151.77 Z M 141.02 151.12 L 140.87 150.08 C 140.71 149.07 139.78 148.38 138.77 148.53 C 137.76 148.68 137.07 149.62 137.22 150.62 L 137.38 151.67 C 137.53 152.67 138.47 153.37 139.47 153.22 C 140.48 153.06 141.17 152.12 141.02 151.12 Z M 140.89 150.23 L 140.82 149.12 C 140.75 148.10 139.87 147.33 138.86 147.39 C 137.84 147.46 137.06 148.34 137.13 149.36 L 137.20 150.47 C 137.26 151.49 138.14 152.26 139.16 152.19 C 140.18 152.13 140.95 151.25 140.89 150.23 Z M 140.82 149.22 L 140.81 148.10 C 140.80 147.08 139.96 146.26 138.94 146.27 C 137.92 146.28 137.10 147.12 137.11 148.14 L 137.12 149.26 C 137.13 150.28 137.97 151.10 138.99 151.09 C 140.02 151.08 140.84 150.24 140.82 149.22 Z M 140.82 148.15 L 140.84 147.02 C 140.86 145.99 140.04 145.15 139.02 145.13 C 137.99 145.11 137.14 145.93 137.13 146.95 L 137.10 148.09 C 137.09 149.11 137.90 149.96 138.93 149.98 C 139.95 149.99 140.80 149.18 140.82 148.15 Z M 140.84 147.07 L 140.89 145.97 C 140.93 144.94 140.14 144.07 139.11 144.03 C 138.09 143.98 137.22 144.78 137.17 145.80 L 137.12 146.90 C 137.08 147.93 137.87 148.80 138.90 148.84 C 139.92 148.89 140.79 148.09 140.84 147.07 Z M 140.89 146.04 L 140.97 145.03 C 141.06 144.00 140.30 143.10 139.28 143.01 C 138.25 142.92 137.35 143.68 137.26 144.71 L 137.18 145.73 C 137.09 146.75 137.85 147.65 138.87 147.74 C 139.90 147.83 140.80 147.07 140.89 146.04 Z M 140.96 145.13 L 141.10 144.18 C 141.25 143.16 140.54 142.22 139.52 142.07 C 138.50 141.92 137.55 142.63 137.41 143.65 L 137.27 144.60 C 137.13 145.62 137.83 146.57 138.85 146.71 C 139.87 146.86 140.82 146.15 140.96 145.13 Z M 141.08 144.31 L 141.27 143.42 C 141.49 142.41 140.86 141.41 139.85 141.19 C 138.84 140.97 137.85 141.61 137.63 142.62 L 137.43 143.52 C 137.21 144.52 137.85 145.52 138.86 145.74 C 139.86 145.96 140.86 145.32 141.08 144.31 Z M 141.24 143.57 L 141.50 142.71 C 141.81 141.73 141.26 140.68 140.27 140.37 C 139.29 140.07 138.24 140.62 137.93 141.60 L 137.66 142.46 C 137.36 143.45 137.91 144.50 138.90 144.81 C 139.88 145.11 140.93 144.56 141.24 143.57 Z M 141.44 142.90 L 141.84 141.96 C 142.24 141.01 141.80 139.91 140.85 139.50 C 139.90 139.10 138.80 139.54 138.39 140.49 L 138.00 141.42 C 137.59 142.37 138.03 143.47 138.98 143.88 C 139.93 144.29 141.03 143.85 141.44 142.90 Z M 141.74 142.16 L 142.24 141.29 C 142.76 140.39 142.45 139.25 141.55 138.73 C 140.66 138.21 139.51 138.52 138.99 139.42 L 138.49 140.29 C 137.97 141.19 138.28 142.34 139.18 142.85 C 140.08 143.37 141.22 143.06 141.74 142.16 Z M 142.11 141.50 L 142.71 140.71 C 143.35 139.88 143.19 138.70 142.37 138.07 C 141.54 137.44 140.36 137.60 139.73 138.42 L 139.13 139.21 C 138.50 140.04 138.65 141.22 139.48 141.85 C 140.30 142.48 141.48 142.32 142.11 141.50 Z M 142.53 140.92 L 143.24 140.23 C 143.99 139.50 144.01 138.31 143.28 137.57 C 142.56 136.82 141.37 136.80 140.62 137.53 L 139.91 138.21 C 139.17 138.94 139.15 140.13 139.87 140.87 C 140.60 141.62 141.79 141.64 142.53 140.92 Z M 143.00 140.43 L 143.83 139.86 C 144.68 139.26 144.90 138.09 144.31 137.24 C 143.71 136.38 142.54 136.17 141.68 136.76 L 140.86 137.33 C 140.00 137.92 139.79 139.09 140.38 139.95 C 140.97 140.81 142.15 141.02 143.00 140.43 Z M 143.54 140.03 L 144.50 139.59 C 145.45 139.16 145.87 138.04 145.43 137.09 C 145.00 136.14 143.88 135.72 142.93 136.15 L 141.97 136.59 C 141.02 137.02 140.60 138.14 141.04 139.09 C 141.47 140.04 142.59 140.46 143.54 140.03 Z M 144.17 139.71 L 145.18 139.46 C 146.19 139.21 146.81 138.18 146.56 137.16 C 146.30 136.15 145.28 135.53 144.26 135.78 L 143.26 136.03 C 142.24 136.29 141.63 137.31 141.88 138.33 C 142.13 139.34 143.16 139.96 144.17 139.71 Z M 144.79 139.52 L 145.78 139.48 C 146.83 139.44 147.64 138.55 147.60 137.51 C 147.56 136.46 146.68 135.64 145.63 135.69 L 144.64 135.72 C 143.60 135.77 142.78 136.65 142.82 137.70 C 142.86 138.74 143.75 139.56 144.79 139.52 Z M 145.31 139.44 L 146.21 139.64 C 147.24 139.86 148.25 139.20 148.47 138.17 C 148.69 137.15 148.04 136.14 147.01 135.92 L 146.10 135.72 C 145.07 135.50 144.06 136.16 143.84 137.18 C 143.62 138.21 144.28 139.22 145.31 139.44 Z M 145.66 139.43 L 146.43 139.87 C 147.34 140.40 148.51 140.09 149.04 139.18 C 149.56 138.26 149.25 137.10 148.34 136.57 L 147.57 136.12 C 146.66 135.60 145.49 135.91 144.96 136.82 C 144.43 137.73 144.75 138.90 145.66 139.43 Z M 145.98 139.52 L 146.61 140.19 C 147.32 140.97 148.53 141.01 149.31 140.30 C 150.08 139.58 150.13 138.37 149.41 137.60 L 148.79 136.93 C 148.07 136.15 146.86 136.10 146.09 136.82 C 145.31 137.54 145.27 138.75 145.98 139.52 Z M 146.35 139.85 L 146.85 140.71 C 147.38 141.62 148.54 141.93 149.46 141.41 C 150.37 140.88 150.69 139.71 150.16 138.79 L 149.67 137.94 C 149.14 137.03 147.97 136.71 147.05 137.24 C 146.14 137.77 145.83 138.94 146.35 139.85 Z M 146.72 140.44 L 147.10 141.42 C 147.47 142.41 148.58 142.90 149.57 142.52 C 150.55 142.14 151.05 141.03 150.67 140.05 L 150.29 139.06 C 149.91 138.08 148.80 137.59 147.82 137.96 C 146.83 138.34 146.34 139.45 146.72 140.44 Z M 147.03 141.22 L 147.31 142.28 C 147.58 143.30 148.62 143.91 149.65 143.64 C 150.67 143.37 151.28 142.33 151.01 141.30 L 150.73 140.25 C 150.46 139.22 149.42 138.61 148.39 138.88 C 147.37 139.15 146.76 140.20 147.03 141.22 Z M 147.27 142.12 L 147.45 143.13 C 147.63 144.17 148.62 144.86 149.67 144.68 C 150.71 144.50 151.40 143.51 151.22 142.46 L 151.05 141.46 C 150.86 140.42 149.87 139.72 148.83 139.90 C 147.79 140.09 147.09 141.08 147.27 142.12 Z M 147.43 142.95 L 147.51 143.96 C 147.59 145.01 148.52 145.80 149.57 145.71 C 150.62 145.63 151.41 144.71 151.32 143.65 L 151.24 142.64 C 151.16 141.59 150.24 140.80 149.18 140.89 C 148.13 140.97 147.34 141.89 147.43 142.95 Z M 147.51 143.73 L 147.47 144.73 C 147.43 145.79 148.25 146.67 149.31 146.71 C 150.36 146.75 151.25 145.93 151.29 144.87 L 151.32 143.88 C 151.36 142.82 150.54 141.94 149.49 141.90 C 148.43 141.86 147.55 142.68 147.51 143.73 Z M 147.50 144.46 L 147.33 145.42 C 147.13 146.45 147.82 147.45 148.85 147.64 C 149.89 147.83 150.88 147.15 151.08 146.12 L 151.25 145.15 C 151.45 144.12 150.76 143.12 149.73 142.93 C 148.69 142.74 147.70 143.42 147.50 144.46 Z M 147.42 145.10 L 147.08 146.01 C 146.70 146.99 147.20 148.09 148.19 148.46 C 149.17 148.83 150.27 148.33 150.64 147.35 L 150.98 146.44 C 151.35 145.45 150.86 144.36 149.87 143.99 C 148.89 143.61 147.79 144.11 147.42 145.10 Z M 147.24 145.68 L 146.73 146.50 C 146.18 147.40 146.46 148.57 147.36 149.12 C 148.25 149.67 149.42 149.39 149.97 148.49 L 150.48 147.67 C 151.03 146.78 150.75 145.61 149.85 145.06 C 148.96 144.51 147.79 144.79 147.24 145.68 Z M 146.93 146.24 L 146.28 146.98 C 145.58 147.77 145.66 148.97 146.45 149.66 C 147.24 150.35 148.44 150.28 149.13 149.49 L 149.78 148.75 C 150.47 147.96 150.39 146.76 149.61 146.07 C 148.82 145.38 147.62 145.46 146.93 146.24 Z M 146.48 146.79 L 145.71 147.44 C 144.91 148.11 144.81 149.31 145.48 150.11 C 146.16 150.91 147.36 151.01 148.16 150.33 L 148.92 149.69 C 149.72 149.01 149.83 147.81 149.15 147.02 C 148.48 146.22 147.28 146.11 146.48 146.79 Z M 145.92 147.29 L 145.06 147.84 C 144.18 148.40 143.92 149.57 144.48 150.45 C 145.04 151.33 146.21 151.59 147.09 151.03 L 147.95 150.48 C 148.83 149.92 149.09 148.75 148.53 147.87 C 147.97 146.99 146.80 146.73 145.92 147.29 Z M 145.27 147.72 L 144.35 148.16 C 143.40 148.60 143.00 149.72 143.44 150.67 C 143.88 151.61 145.01 152.02 145.95 151.58 L 146.87 151.14 C 147.82 150.70 148.23 149.58 147.78 148.63 C 147.34 147.69 146.22 147.28 145.27 147.72 Z M 144.60 148.06 L 143.27 148.47 C 142.27 148.77 141.71 149.82 142.01 150.82 C 142.31 151.81 143.36 152.38 144.36 152.07 L 145.69 151.67 C 146.69 151.37 147.25 150.32 146.95 149.32 C 146.65 148.33 145.60 147.76 144.60 148.06 Z M 143.55 148.41 L 142.40 148.57 C 141.37 148.72 140.66 149.67 140.80 150.70 C 140.95 151.73 141.90 152.44 142.93 152.29 L 144.07 152.13 C 145.10 151.99 145.82 151.03 145.67 150.01 C 145.53 148.98 144.57 148.26 143.55 148.41 Z M 142.88 148.57 L 142.24 148.50 C 141.21 148.38 140.28 149.12 140.17 150.15 C 140.05 151.18 140.79 152.11 141.82 152.22 L 142.45 152.30 C 143.48 152.41 144.41 151.68 144.53 150.65 C 144.64 149.62 143.91 148.69 142.88 148.57 Z M 143.62 151.35 L 143.81 151.05 C 144.35 150.17 144.08 149.01 143.21 148.47 C 142.33 147.92 141.17 148.19 140.63 149.07 L 140.44 149.37 C 139.89 150.25 140.16 151.41 141.04 151.95 C 141.92 152.50 143.07 152.23 143.62 151.35 Z M 142.98 151.77 L 143.99 151.33 C 144.93 150.90 145.36 149.80 144.94 148.85 C 144.52 147.90 143.41 147.47 142.46 147.90 L 141.46 148.34 C 140.51 148.76 140.08 149.87 140.50 150.82 C 140.92 151.77 142.03 152.19 142.98 151.77 Z M 143.74 151.42 L 144.92 151.08 C 145.92 150.80 146.50 149.75 146.21 148.75 C 145.93 147.75 144.88 147.17 143.88 147.46 L 142.70 147.80 C 141.70 148.09 141.12 149.13 141.41 150.13 C 141.70 151.13 142.74 151.71 143.74 151.42 Z M 144.34 151.16 L 145.01 151.19 C 146.05 151.22 146.92 150.40 146.96 149.36 C 146.99 148.31 146.17 147.44 145.13 147.40 L 144.46 147.38 C 143.42 147.35 142.54 148.17 142.51 149.21 C 142.48 150.26 143.30 151.13 144.34 151.16 Z M 143.43 148.33 L 143.15 148.80 C 142.62 149.70 142.92 150.87 143.82 151.40 C 144.72 151.93 145.88 151.64 146.42 150.73 L 146.70 150.26 C 147.23 149.36 146.93 148.20 146.03 147.66 C 145.13 147.13 143.97 147.43 143.43 148.33 Z M 143.79 148.15 L 142.86 148.73 C 141.97 149.28 141.69 150.45 142.24 151.34 C 142.79 152.23 143.95 152.51 144.85 151.96 L 145.78 151.38 C 146.67 150.83 146.95 149.67 146.40 148.77 C 145.85 147.88 144.68 147.60 143.79 148.15 Z M 143.46 148.49 L 142.29 148.74 C 141.26 148.96 140.61 149.97 140.83 150.99 C 141.05 152.01 142.06 152.67 143.08 152.45 L 144.25 152.20 C 145.27 151.98 145.93 150.97 145.71 149.95 C 145.49 148.92 144.48 148.27 143.46 148.49 Z M 143.26 148.79 L 142.47 148.53 C 141.47 148.21 140.41 148.76 140.09 149.76 C 139.77 150.76 140.32 151.82 141.31 152.14 L 142.11 152.40 C 143.10 152.72 144.17 152.17 144.49 151.17 C 144.81 150.17 144.26 149.11 143.26 148.79 Z M 143.18 148.95 L 142.54 148.36 C 141.77 147.64 140.58 147.69 139.86 148.45 C 139.15 149.22 139.20 150.41 139.96 151.13 L 140.60 151.72 C 141.37 152.43 142.56 152.39 143.28 151.63 C 143.99 150.86 143.95 149.67 143.18 148.95 Z M 142.87 148.76 L 142.34 147.90 C 141.81 147.01 140.65 146.72 139.75 147.26 C 138.86 147.80 138.57 148.96 139.11 149.85 L 139.63 150.72 C 140.17 151.61 141.33 151.90 142.23 151.36 C 143.12 150.82 143.41 149.66 142.87 148.76 Z M 142.49 148.20 L 142.09 147.15 C 141.72 146.18 140.63 145.69 139.65 146.06 C 138.68 146.43 138.19 147.52 138.56 148.49 L 138.97 149.55 C 139.34 150.52 140.43 151.01 141.40 150.64 C 142.37 150.27 142.86 149.18 142.49 148.20 Z M 142.16 147.37 L 141.89 146.29 C 141.64 145.28 140.62 144.66 139.61 144.91 C 138.60 145.16 137.98 146.18 138.23 147.19 L 138.50 148.27 C 138.74 149.28 139.76 149.90 140.78 149.65 C 141.79 149.40 142.40 148.38 142.16 147.37 Z M 141.93 146.47 L 141.78 145.47 C 141.63 144.44 140.67 143.72 139.64 143.87 C 138.61 144.03 137.89 144.98 138.05 146.02 L 138.19 147.01 C 138.34 148.05 139.30 148.76 140.33 148.61 C 141.37 148.46 142.08 147.50 141.93 146.47 Z M 141.81 145.64 L 141.75 144.63 C 141.70 143.58 140.80 142.78 139.76 142.84 C 138.71 142.89 137.91 143.79 137.96 144.83 L 138.02 145.85 C 138.08 146.89 138.97 147.70 140.02 147.64 C 141.06 147.58 141.87 146.69 141.81 145.64 Z M 141.76 144.81 L 141.80 143.80 C 141.85 142.75 141.03 141.86 139.98 141.82 C 138.93 141.77 138.04 142.59 138.00 143.64 L 137.95 144.65 C 137.91 145.70 138.73 146.59 139.78 146.63 C 140.83 146.68 141.72 145.86 141.76 144.81 Z M 141.79 144.00 L 141.94 143.02 C 142.09 141.97 141.37 141.00 140.32 140.84 C 139.28 140.69 138.31 141.41 138.15 142.46 L 138.01 143.44 C 137.85 144.49 138.58 145.46 139.62 145.62 C 140.67 145.77 141.64 145.05 141.79 144.00 Z M 141.90 143.24 L 142.16 142.30 C 142.43 141.28 141.83 140.22 140.81 139.94 C 139.78 139.66 138.72 140.27 138.45 141.29 L 138.19 142.23 C 137.91 143.26 138.52 144.31 139.54 144.59 C 140.57 144.87 141.62 144.27 141.90 143.24 Z M 142.06 142.58 L 142.55 141.48 C 142.98 140.50 142.55 139.36 141.57 138.93 C 140.60 138.50 139.46 138.94 139.03 139.91 L 138.54 141.02 C 138.11 141.99 138.55 143.13 139.52 143.56 C 140.49 143.99 141.63 143.55 142.06 142.58 Z M 142.39 141.78 L 143.02 140.86 C 143.62 139.97 143.40 138.77 142.51 138.17 C 141.63 137.57 140.43 137.80 139.83 138.68 L 139.20 139.61 C 138.59 140.49 138.82 141.69 139.70 142.29 C 140.58 142.89 141.78 142.67 142.39 141.78 Z M 142.73 141.19 L 143.43 140.55 C 144.22 139.83 144.28 138.61 143.56 137.82 C 142.83 137.03 141.61 136.97 140.82 137.70 L 140.12 138.34 C 139.33 139.06 139.28 140.28 140.00 141.07 C 140.72 141.86 141.94 141.91 142.73 141.19 Z M 142.82 140.94 L 143.52 140.67 C 144.52 140.29 145.02 139.17 144.64 138.17 C 144.26 137.17 143.14 136.66 142.14 137.04 L 141.44 137.31 C 140.44 137.69 139.94 138.81 140.32 139.81 C 140.70 140.81 141.81 141.32 142.82 140.94 Z M 142.23 140.70 L 142.91 140.92 C 143.93 141.26 145.03 140.70 145.36 139.69 C 145.69 138.67 145.14 137.57 144.12 137.24 L 143.43 137.01 C 142.42 136.68 141.32 137.23 140.99 138.25 C 140.65 139.27 141.21 140.36 142.23 140.70 Z M 141.97 140.25 L 142.51 140.96 C 143.15 141.82 144.37 141.99 145.22 141.34 C 146.08 140.70 146.25 139.49 145.60 138.63 L 145.06 137.92 C 144.42 137.06 143.21 136.89 142.35 137.54 C 141.50 138.18 141.33 139.39 141.97 140.25 Z M 142.19 140.31 L 142.48 141.34 C 142.76 142.37 143.83 142.97 144.86 142.69 C 145.89 142.40 146.49 141.34 146.20 140.31 L 145.92 139.28 C 145.64 138.25 144.57 137.65 143.54 137.93 C 142.51 138.22 141.91 139.28 142.19 140.31 Z M 142.41 140.74 L 142.36 141.89 C 142.31 142.95 143.14 143.85 144.20 143.90 C 145.27 143.95 146.17 143.13 146.22 142.06 L 146.27 140.91 C 146.32 139.85 145.49 138.95 144.43 138.90 C 143.36 138.85 142.46 139.67 142.41 140.74 Z M 142.48 141.32 L 142.15 142.24 C 141.79 143.24 142.30 144.34 143.30 144.70 C 144.30 145.06 145.41 144.55 145.77 143.55 L 146.10 142.63 C 146.46 141.63 145.94 140.52 144.94 140.16 C 143.94 139.80 142.84 140.32 142.48 141.32 Z M 142.37 141.83 L 141.81 142.66 C 141.22 143.54 141.45 144.73 142.33 145.32 C 143.21 145.91 144.40 145.67 144.99 144.80 L 145.55 143.96 C 146.14 143.08 145.90 141.89 145.03 141.30 C 144.15 140.71 142.96 140.95 142.37 141.83 Z M 142.09 142.33 L 141.36 143.02 C 140.59 143.74 140.55 144.95 141.27 145.72 C 141.99 146.49 143.19 146.53 143.96 145.81 L 144.70 145.12 C 145.47 144.40 145.51 143.19 144.79 142.42 C 144.07 141.65 142.86 141.61 142.09 142.33 Z M 141.72 142.77 L 140.85 143.26 C 139.94 143.78 139.62 144.94 140.14 145.85 C 140.66 146.77 141.82 147.08 142.74 146.56 L 143.60 146.07 C 144.51 145.55 144.83 144.39 144.31 143.47 C 143.79 142.56 142.63 142.25 141.72 142.77 Z M 141.35 143.07 L 140.28 143.33 C 139.26 143.57 138.64 144.60 138.88 145.62 C 139.13 146.63 140.15 147.26 141.17 147.01 L 142.24 146.75 C 143.26 146.51 143.88 145.48 143.64 144.47 C 143.39 143.45 142.37 142.82 141.35 143.07 Z M 140.85 143.28 L 139.69 143.20 C 138.64 143.13 137.74 143.92 137.67 144.96 C 137.60 146.01 138.39 146.91 139.44 146.98 L 140.60 147.06 C 141.64 147.13 142.55 146.34 142.62 145.30 C 142.69 144.25 141.90 143.35 140.85 143.28 Z M 140.28 143.33 L 139.37 142.96 C 138.40 142.57 137.29 143.04 136.90 144.01 C 136.50 144.98 136.97 146.09 137.94 146.49 L 138.85 146.85 C 139.82 147.25 140.93 146.78 141.32 145.81 C 141.72 144.83 141.25 143.72 140.28 143.33 Z M 140.17 143.57 L 139.75 143.02 C 139.12 142.18 137.92 142.02 137.08 142.66 C 136.25 143.29 136.08 144.49 136.72 145.33 L 137.14 145.88 C 137.78 146.71 138.97 146.88 139.81 146.24 C 140.65 145.60 140.81 144.41 140.17 143.57 Z M 139.94 145.03 L 140.35 144.22 C 140.82 143.28 140.43 142.14 139.49 141.66 C 138.55 141.19 137.40 141.57 136.93 142.52 L 136.53 143.32 C 136.06 144.26 136.44 145.41 137.38 145.88 C 138.33 146.35 139.47 145.97 139.94 145.03 Z M 139.52 145.07 L 140.45 144.59 C 141.39 144.10 141.76 142.95 141.27 142.01 C 140.78 141.07 139.63 140.70 138.69 141.19 L 137.76 141.67 C 136.82 142.16 136.45 143.31 136.94 144.25 C 137.43 145.19 138.58 145.55 139.52 145.07 Z M 138.63 144.56 L 139.19 144.87 C 140.11 145.39 141.28 145.06 141.80 144.14 C 142.31 143.21 141.98 142.04 141.06 141.53 L 140.51 141.22 C 139.58 140.70 138.42 141.03 137.90 141.95 C 137.38 142.87 137.71 144.04 138.63 144.56 Z M 138.21 143.09 L 138.16 143.97 C 138.10 145.03 138.90 145.93 139.96 146.00 C 141.02 146.06 141.92 145.25 141.99 144.19 L 142.04 143.31 C 142.10 142.25 141.29 141.35 140.24 141.29 C 139.18 141.22 138.27 142.03 138.21 143.09 Z M 138.19 143.75 L 137.99 144.87 C 137.81 145.91 138.50 146.90 139.54 147.08 C 140.58 147.27 141.58 146.57 141.76 145.53 L 141.96 144.41 C 142.14 143.37 141.45 142.38 140.40 142.20 C 139.36 142.01 138.37 142.71 138.19 143.75 Z M 137.96 145.22 L 137.97 146.20 C 137.98 147.26 138.85 148.11 139.91 148.09 C 140.96 148.08 141.81 147.22 141.80 146.16 L 141.79 145.18 C 141.78 144.12 140.91 143.28 139.85 143.29 C 138.80 143.30 137.95 144.16 137.96 145.22 Z M 138.49 147.49 L 138.97 148.01 C 139.70 148.78 140.91 148.82 141.68 148.09 C 142.45 147.37 142.49 146.15 141.76 145.38 L 141.28 144.87 C 140.56 144.10 139.34 144.06 138.57 144.79 C 137.80 145.51 137.77 146.72 138.49 147.49 Z M 139.93 148.57 L 140.79 148.77 C 141.83 149.01 142.86 148.37 143.11 147.34 C 143.35 146.30 142.71 145.27 141.67 145.03 L 140.81 144.82 C 139.77 144.58 138.74 145.22 138.50 146.26 C 138.25 147.29 138.90 148.33 139.93 148.57 Z M 140.89 148.80 L 141.92 148.99 C 142.97 149.17 143.97 148.47 144.16 147.42 C 144.35 146.37 143.65 145.37 142.60 145.18 L 141.57 145.00 C 140.52 144.81 139.52 145.51 139.33 146.56 C 139.14 147.61 139.84 148.61 140.89 148.80 Z M 141.44 148.85 L 142.40 149.29 C 143.38 149.74 144.53 149.31 144.98 148.34 C 145.43 147.36 145.01 146.21 144.03 145.76 L 143.07 145.32 C 142.10 144.87 140.94 145.29 140.49 146.27 C 140.04 147.24 140.47 148.40 141.44 148.85 Z M 141.78 148.84 L 142.27 149.38 C 142.99 150.17 144.23 150.23 145.02 149.51 C 145.82 148.78 145.88 147.55 145.15 146.75 L 144.66 146.21 C 143.94 145.42 142.70 145.36 141.91 146.08 C 141.11 146.81 141.05 148.04 141.78 148.84 Z M 141.98 148.96 L 142.36 149.70 C 142.85 150.65 144.03 151.03 144.98 150.54 C 145.94 150.04 146.32 148.87 145.82 147.91 L 145.44 147.17 C 144.95 146.21 143.77 145.84 142.82 146.33 C 141.86 146.83 141.48 148.00 141.98 148.96 Z M 142.23 149.38 L 142.51 150.29 C 142.83 151.32 143.93 151.89 144.96 151.57 C 145.99 151.25 146.56 150.16 146.24 149.13 L 145.95 148.22 C 145.63 147.19 144.54 146.62 143.51 146.94 C 142.48 147.26 141.90 148.36 142.23 149.38 Z M 142.45 150.08 L 142.65 151.13 C 142.86 152.19 143.88 152.88 144.94 152.68 C 146.00 152.48 146.70 151.45 146.49 150.39 L 146.29 149.34 C 146.09 148.28 145.07 147.59 144.01 147.79 C 142.95 147.99 142.25 149.02 142.45 150.08 Z M 142.63 150.98 L 142.76 152.14 C 142.88 153.22 143.85 153.99 144.92 153.87 C 146.00 153.75 146.77 152.78 146.65 151.71 L 146.52 150.54 C 146.40 149.47 145.43 148.69 144.36 148.81 C 143.28 148.94 142.51 149.90 142.63 150.98 Z M 142.75 152.04 L 142.82 153.25 C 142.89 154.33 143.82 155.15 144.90 155.08 C 145.97 155.02 146.80 154.09 146.73 153.01 L 146.66 151.81 C 146.59 150.73 145.67 149.90 144.59 149.97 C 143.51 150.03 142.69 150.96 142.75 152.04 Z M 142.82 153.18 L 142.85 154.14 C 142.88 155.22 143.77 156.07 144.86 156.04 C 145.94 156.01 146.79 155.11 146.76 154.03 L 146.73 153.08 C 146.71 152.00 145.81 151.14 144.72 151.17 C 143.64 151.20 142.79 152.10 142.82 153.18 Z M 142.85 154.09 L 142.85 155.07 C 142.84 156.15 143.72 157.02 144.80 157.03 C 145.88 157.03 146.76 156.15 146.76 155.07 L 146.76 154.09 C 146.76 153.01 145.89 152.13 144.80 152.13 C 143.72 152.13 142.85 153.00 142.85 154.09 Z M 142.85 155.01 L 142.82 156.01 C 142.79 157.09 143.64 157.99 144.72 158.02 C 145.80 158.05 146.70 157.20 146.73 156.12 L 146.76 155.12 C 146.79 154.04 145.94 153.14 144.86 153.11 C 143.78 153.08 142.88 153.93 142.85 155.01 Z M 142.82 155.96 L 142.76 156.97 C 142.70 158.05 143.53 158.97 144.61 159.03 C 145.69 159.09 146.61 158.27 146.67 157.19 L 146.73 156.18 C 146.79 155.10 145.97 154.17 144.89 154.11 C 143.81 154.05 142.88 154.88 142.82 155.96 Z M 142.77 156.91 L 142.68 157.92 C 142.59 159.00 143.38 159.95 144.46 160.04 C 145.54 160.14 146.49 159.34 146.58 158.26 L 146.67 157.25 C 146.76 156.17 145.96 155.22 144.89 155.13 C 143.81 155.03 142.86 155.83 142.77 156.91 Z M 142.69 157.86 L 142.56 158.87 C 142.44 159.95 143.20 160.92 144.28 161.05 C 145.35 161.18 146.32 160.41 146.45 159.34 L 146.57 158.33 C 146.70 157.25 145.94 156.28 144.86 156.15 C 143.79 156.02 142.81 156.79 142.69 157.86 Z M 142.57 158.81 L 142.42 159.81 C 142.25 160.88 142.98 161.88 144.05 162.04 C 145.12 162.21 146.12 161.48 146.29 160.41 L 146.44 159.41 C 146.61 158.34 145.88 157.34 144.81 157.17 C 143.74 157.01 142.74 157.74 142.57 158.81 Z M 142.43 159.73 L 142.24 160.72 C 142.03 161.78 142.72 162.81 143.79 163.02 C 144.85 163.23 145.87 162.53 146.08 161.47 L 146.27 160.48 C 146.48 159.42 145.79 158.39 144.73 158.19 C 143.67 157.98 142.64 158.67 142.43 159.73 Z M 142.26 160.64 L 142.02 161.64 C 141.77 162.69 142.42 163.74 143.47 163.99 C 144.52 164.25 145.57 163.60 145.82 162.55 L 146.06 161.55 C 146.31 160.50 145.66 159.45 144.61 159.20 C 143.56 158.95 142.51 159.59 142.26 160.64 Z M 142.04 161.56 L 141.77 162.54 C 141.48 163.57 142.08 164.65 143.12 164.94 C 144.16 165.24 145.23 164.63 145.53 163.59 L 145.80 162.62 C 146.09 161.58 145.49 160.51 144.45 160.21 C 143.41 159.92 142.34 160.53 142.04 161.56 Z M 141.79 162.47 L 141.49 163.42 C 141.16 164.44 141.72 165.54 142.74 165.87 C 143.77 166.20 144.86 165.64 145.20 164.62 L 145.50 163.66 C 145.83 162.64 145.27 161.54 144.25 161.21 C 143.22 160.88 142.12 161.44 141.79 162.47 Z M 141.51 163.36 L 141.17 164.29 C 140.81 165.30 141.33 166.42 142.34 166.78 C 143.35 167.15 144.47 166.62 144.83 165.61 L 145.17 164.68 C 145.54 163.67 145.01 162.55 144.00 162.19 C 142.99 161.82 141.88 162.35 141.51 163.36 Z M 141.20 164.24 L 140.83 165.16 C 140.44 166.16 140.93 167.29 141.93 167.68 C 142.92 168.08 144.05 167.59 144.44 166.59 L 144.81 165.67 C 145.20 164.67 144.71 163.54 143.72 163.15 C 142.72 162.75 141.59 163.24 141.20 164.24 Z M 140.86 165.12 L 140.47 166.03 C 140.05 167.01 140.51 168.15 141.49 168.57 C 142.48 168.99 143.62 168.53 144.03 167.55 L 144.42 166.63 C 144.84 165.65 144.38 164.51 143.40 164.09 C 142.41 163.67 141.27 164.13 140.86 165.12 Z M 140.49 165.99 L 140.08 166.89 C 139.64 167.87 140.07 169.01 141.05 169.45 C 142.02 169.89 143.17 169.46 143.61 168.49 L 144.01 167.58 C 144.45 166.61 144.02 165.46 143.05 165.02 C 142.07 164.58 140.93 165.01 140.49 165.99 Z M 140.10 166.86 L 139.68 167.74 C 139.22 168.71 139.64 169.86 140.60 170.31 C 141.56 170.77 142.72 170.36 143.17 169.39 L 143.59 168.51 C 144.05 167.55 143.63 166.40 142.67 165.94 C 141.71 165.49 140.55 165.90 140.10 166.86 Z M 139.70 167.72 L 139.28 168.57 C 138.81 169.52 139.20 170.67 140.16 171.14 C 141.11 171.61 142.27 171.22 142.74 170.27 L 143.15 169.42 C 143.62 168.46 143.23 167.31 142.28 166.84 C 141.32 166.37 140.17 166.76 139.70 167.72 Z M 139.30 168.54 L 138.87 169.39 C 138.38 170.33 138.76 171.49 139.70 171.97 C 140.64 172.46 141.80 172.08 142.28 171.14 L 142.72 170.29 C 143.20 169.35 142.83 168.19 141.88 167.71 C 140.94 167.22 139.78 167.60 139.30 168.54 Z M 138.89 169.36 L 138.43 170.22 C 137.93 171.15 138.28 172.31 139.22 172.80 C 140.15 173.30 141.31 172.95 141.80 172.02 L 142.26 171.17 C 142.76 170.24 142.41 169.08 141.48 168.58 C 140.55 168.08 139.39 168.43 138.89 169.36 Z M 138.45 170.19 L 137.97 171.05 C 137.46 171.96 137.79 173.13 138.71 173.64 C 139.63 174.15 140.79 173.83 141.30 172.91 L 141.78 172.05 C 142.30 171.13 141.97 169.97 141.05 169.45 C 140.13 168.94 138.97 169.27 138.45 170.19 Z M 138.00 171.02 L 137.49 171.88 C 136.96 172.79 137.27 173.95 138.17 174.48 C 139.08 175.01 140.24 174.71 140.77 173.80 L 141.28 172.94 C 141.81 172.03 141.50 170.87 140.60 170.34 C 139.69 169.81 138.53 170.11 138.00 171.02 Z M 137.52 171.86 L 136.98 172.73 C 136.43 173.63 136.71 174.79 137.60 175.34 C 138.50 175.88 139.66 175.60 140.21 174.71 L 140.75 173.83 C 141.29 172.94 141.01 171.77 140.12 171.23 C 139.23 170.68 138.06 170.96 137.52 171.86 Z M 137.00 172.71 L 136.43 173.60 C 135.87 174.48 136.13 175.65 137.00 176.21 C 137.88 176.77 139.05 176.51 139.61 175.63 L 140.18 174.74 C 140.74 173.86 140.49 172.69 139.61 172.13 C 138.73 171.57 137.56 171.83 137.00 172.71 Z M 136.46 173.57 L 135.86 174.47 C 135.29 175.33 135.52 176.50 136.38 177.07 C 137.25 177.65 138.41 177.42 138.99 176.55 L 139.58 175.66 C 140.16 174.80 139.93 173.63 139.06 173.05 C 138.20 172.48 137.03 172.71 136.46 173.57 Z M 135.89 174.44 L 135.32 175.27 C 134.73 176.12 134.94 177.28 135.79 177.87 C 136.63 178.46 137.80 178.25 138.39 177.40 L 138.96 176.58 C 139.55 175.73 139.34 174.56 138.49 173.97 C 137.64 173.38 136.48 173.59 135.89 174.44 Z M 135.34 175.25 L 134.74 176.08 C 134.14 176.92 134.34 178.08 135.17 178.68 C 136.00 179.28 137.17 179.09 137.76 178.25 L 138.36 177.42 C 138.96 176.59 138.77 175.42 137.94 174.82 C 137.10 174.23 135.94 174.42 135.34 175.25 Z M 134.77 176.07 L 134.15 176.90 C 133.54 177.72 133.72 178.88 134.54 179.49 C 135.36 180.09 136.51 179.92 137.12 179.10 L 137.74 178.27 C 138.35 177.45 138.17 176.29 137.35 175.68 C 136.53 175.08 135.38 175.25 134.77 176.07 Z M 134.18 176.89 L 133.55 177.71 C 132.93 178.52 133.09 179.67 133.89 180.29 C 134.70 180.90 135.85 180.75 136.47 179.94 L 137.10 179.12 C 137.71 178.31 137.56 177.16 136.75 176.54 C 135.95 175.93 134.79 176.08 134.18 176.89 Z M 133.57 177.70 L 132.94 178.51 C 132.31 179.30 132.45 180.45 133.24 181.07 C 134.03 181.69 135.18 181.56 135.80 180.77 L 136.44 179.96 C 137.06 179.16 136.93 178.02 136.14 177.39 C 135.34 176.77 134.20 176.91 133.57 177.70 Z M 132.96 178.49 L 132.32 179.28 C 131.69 180.06 131.81 181.20 132.59 181.83 C 133.36 182.46 134.51 182.34 135.14 181.57 L 135.78 180.78 C 136.41 180.00 136.29 178.86 135.51 178.23 C 134.74 177.60 133.59 177.71 132.96 178.49 Z M 132.35 179.26 L 131.72 180.02 C 131.07 180.78 131.17 181.92 131.94 182.56 C 132.70 183.20 133.83 183.10 134.47 182.34 L 135.11 181.58 C 135.75 180.82 135.65 179.68 134.89 179.04 C 134.13 178.40 132.99 178.50 132.35 179.26 Z M 131.74 180.00 L 131.12 180.72 C 130.47 181.47 130.55 182.60 131.29 183.25 C 132.04 183.90 133.17 183.82 133.82 183.07 L 134.44 182.35 C 135.09 181.61 135.02 180.48 134.27 179.83 C 133.53 179.18 132.39 179.26 131.74 180.00 Z M 131.15 180.70 L 130.54 181.38 C 129.88 182.11 129.93 183.23 130.66 183.89 C 131.39 184.55 132.51 184.50 133.17 183.77 L 133.79 183.09 C 134.45 182.36 134.39 181.24 133.66 180.58 C 132.94 179.92 131.81 179.97 131.15 180.70 Z M 130.58 181.36 L 129.78 182.20 C 129.10 182.91 129.13 184.02 129.83 184.69 C 130.53 185.36 131.65 185.34 132.32 184.64 L 133.12 183.79 C 133.80 183.09 133.77 181.98 133.07 181.30 C 132.37 180.63 131.25 180.66 130.58 181.36 Z M 129.83 182.18 L 129.06 182.94 C 128.38 183.61 128.37 184.71 129.04 185.39 C 129.71 186.07 130.80 186.08 131.49 185.41 L 132.26 184.65 C 132.94 183.98 132.95 182.89 132.28 182.21 C 131.61 181.52 130.52 181.51 129.83 182.18 Z M 129.12 182.93 L 128.37 183.62 C 127.68 184.26 127.64 185.34 128.28 186.03 C 128.92 186.72 129.99 186.76 130.68 186.12 L 131.43 185.43 C 132.12 184.79 132.16 183.71 131.52 183.02 C 130.88 182.33 129.81 182.29 129.12 182.93 Z M 128.42 183.61 L 127.70 184.25 C 127.00 184.86 126.94 185.92 127.55 186.61 C 128.16 187.30 129.21 187.37 129.91 186.76 L 130.63 186.13 C 131.33 185.52 131.39 184.46 130.78 183.76 C 130.17 183.07 129.12 183.00 128.42 183.61 Z M 127.74 184.25 L 127.03 184.84 C 126.34 185.43 126.25 186.47 126.84 187.16 C 127.42 187.86 128.46 187.95 129.16 187.36 L 129.86 186.76 C 130.56 186.18 130.65 185.14 130.06 184.44 C 129.48 183.75 128.44 183.66 127.74 184.25 Z M 127.07 184.85 L 126.37 185.42 C 125.68 185.99 125.58 187.01 126.14 187.70 C 126.71 188.39 127.73 188.49 128.42 187.93 L 129.12 187.35 C 129.81 186.79 129.91 185.77 129.35 185.08 C 128.78 184.39 127.76 184.28 127.07 184.85 Z M 126.39 185.44 L 125.95 185.80 C 125.26 186.35 125.16 187.36 125.71 188.04 C 126.27 188.72 127.27 188.83 127.95 188.28 L 128.40 187.91 C 129.08 187.36 129.19 186.35 128.63 185.67 C 128.08 184.99 127.08 184.88 126.39 185.44 Z"
      fill="black"
      fill-rule="nonzero" /></svg>