<svg xmlns="http://www.w3.org/2000/svg" width="300" height="300" viewBox="0 0 300 300">
<path d="M 145.77 144.26 L 145.96 142.87 C 146.08 141.97 145.45 141.15 144.56 141.03 C 143.66 140.90 142.83 141.53 142.71 142.43 L 142.52 143.82 C 142.40 144.72 143.03 145.55 143.93 145.67 C 144.83 145.79 145.65 145.16 145.77 144.26 Z M 145.96 142.93 L 146.15 141.78 C 146.31 140.88 145.71 140.03 144.81 139.88 C 143.92 139.73 143.07 140.33 142.91 141.22 L 142.71 142.37 C 142.56 143.27 143.16 144.12 144.06 144.27 C 144.95 144.43 145.80 143.83 145.96 142.93 Z M 146.10 142.00 L 146.32 141.32 C 146.60 140.46 146.12 139.53 145.25 139.25 C 144.39 138.97 143.46 139.45 143.18 140.32 L 142.96 141.00 C 142.69 141.86 143.16 142.79 144.03 143.07 C 144.90 143.35 145.83 142.87 146.10 142.00 Z M 144.65 142.47 L 144.89 142.48 C 145.80 142.54 146.59 141.84 146.64 140.93 C 146.69 140.02 146.00 139.24 145.09 139.19 L 144.85 139.17 C 143.94 139.12 143.16 139.81 143.10 140.72 C 143.05 141.63 143.74 142.41 144.65 142.47 Z M 143.42 141.36 L 143.65 142.04 C 143.94 142.90 144.88 143.37 145.75 143.08 C 146.61 142.78 147.08 141.85 146.78 140.98 L 146.56 140.31 C 146.27 139.44 145.33 138.98 144.46 139.27 C 143.60 139.56 143.13 140.50 143.42 141.36 Z M 143.58 141.72 L 143.72 142.83 C 143.83 143.73 144.66 144.38 145.57 144.26 C 146.47 144.15 147.12 143.32 147.00 142.41 L 146.86 141.30 C 146.74 140.39 145.92 139.75 145.01 139.87 C 144.10 139.98 143.46 140.81 143.58 141.72 Z M 143.70 142.59 L 143.68 143.90 C 143.66 144.82 144.39 145.57 145.30 145.59 C 146.21 145.61 146.97 144.89 146.99 143.97 L 147.01 142.65 C 147.03 141.74 146.31 140.98 145.39 140.96 C 144.48 140.95 143.72 141.67 143.70 142.59 Z M 143.70 143.61 L 143.44 144.90 C 143.26 145.80 143.84 146.67 144.74 146.86 C 145.64 147.04 146.52 146.46 146.70 145.56 L 146.96 144.27 C 147.15 143.37 146.56 142.49 145.66 142.31 C 144.76 142.13 143.88 142.71 143.70 143.61 Z M 143.53 144.55 L 143.07 145.61 C 142.70 146.46 143.09 147.45 143.94 147.82 C 144.79 148.20 145.78 147.81 146.15 146.96 L 146.61 145.90 C 146.98 145.05 146.60 144.06 145.75 143.69 C 144.90 143.31 143.90 143.70 143.53 144.55 Z M 143.36 145.13 L 142.78 145.77 C 142.14 146.46 142.18 147.53 142.87 148.17 C 143.56 148.80 144.64 148.76 145.28 148.07 L 145.86 147.44 C 146.50 146.75 146.45 145.67 145.76 145.03 C 145.07 144.40 144.00 144.44 143.36 145.13 Z M 144.01 145.20 L 143.38 145.21 C 142.43 145.22 141.67 146.00 141.68 146.95 C 141.70 147.89 142.47 148.65 143.42 148.64 L 144.05 148.64 C 145.00 148.63 145.76 147.85 145.74 146.90 C 145.73 145.95 144.95 145.19 144.01 145.20 Z M 144.69 145.77 L 144.25 145.28 C 143.62 144.57 142.52 144.51 141.81 145.14 C 141.10 145.78 141.04 146.87 141.67 147.58 L 142.11 148.08 C 142.75 148.79 143.84 148.85 144.55 148.21 C 145.27 147.58 145.33 146.49 144.69 145.77 Z M 144.54 145.72 L 144.17 144.90 C 143.78 144.02 142.75 143.63 141.88 144.03 C 141.01 144.42 140.62 145.44 141.01 146.32 L 141.38 147.14 C 141.77 148.01 142.80 148.40 143.67 148.01 C 144.54 147.62 144.93 146.59 144.54 145.72 Z M 144.27 145.17 L 144.00 144.13 C 143.76 143.20 142.82 142.64 141.89 142.88 C 140.96 143.12 140.40 144.07 140.64 145.00 L 140.91 146.04 C 141.15 146.97 142.10 147.52 143.02 147.28 C 143.95 147.05 144.51 146.10 144.27 145.17 Z M 144.05 144.37 L 143.92 143.22 C 143.81 142.27 142.95 141.58 142.00 141.69 C 141.04 141.80 140.36 142.66 140.47 143.61 L 140.60 144.76 C 140.71 145.71 141.56 146.39 142.52 146.29 C 143.47 146.18 144.15 145.32 144.05 144.37 Z M 143.93 143.49 L 143.98 142.37 C 144.02 141.41 143.28 140.60 142.32 140.55 C 141.36 140.51 140.55 141.26 140.51 142.21 L 140.46 143.34 C 140.41 144.30 141.16 145.11 142.12 145.15 C 143.07 145.19 143.89 144.45 143.93 143.49 Z M 143.91 142.78 L 144.27 141.54 C 144.54 140.62 144.01 139.66 143.09 139.39 C 142.16 139.12 141.20 139.65 140.93 140.57 L 140.57 141.80 C 140.30 142.73 140.83 143.69 141.76 143.96 C 142.68 144.23 143.64 143.70 143.91 142.78 Z M 144.04 142.04 L 144.67 141.13 C 145.21 140.33 145.01 139.25 144.21 138.70 C 143.42 138.16 142.33 138.36 141.79 139.16 L 141.16 140.07 C 140.62 140.87 140.82 141.95 141.61 142.50 C 142.41 143.04 143.50 142.84 144.04 142.04 Z M 144.09 141.67 L 144.80 141.26 C 145.64 140.78 145.94 139.72 145.46 138.88 C 144.99 138.03 143.92 137.74 143.08 138.22 L 142.36 138.62 C 141.52 139.10 141.23 140.16 141.70 141.01 C 142.18 141.85 143.25 142.14 144.09 141.67 Z M 143.33 141.38 L 143.95 141.62 C 144.86 141.96 145.87 141.49 146.21 140.59 C 146.55 139.68 146.09 138.67 145.18 138.33 L 144.55 138.09 C 143.64 137.76 142.63 138.22 142.29 139.13 C 141.96 140.03 142.42 141.05 143.33 141.38 Z M 143.01 140.79 L 143.30 141.35 C 143.75 142.21 144.81 142.55 145.67 142.10 C 146.54 141.65 146.87 140.59 146.42 139.73 L 146.12 139.16 C 145.68 138.30 144.61 137.96 143.75 138.41 C 142.89 138.86 142.56 139.92 143.01 140.79 Z M 143.14 140.91 L 143.32 141.74 C 143.53 142.69 144.46 143.29 145.41 143.08 C 146.36 142.88 146.97 141.94 146.76 140.99 L 146.58 140.17 C 146.37 139.22 145.44 138.61 144.49 138.82 C 143.54 139.03 142.94 139.96 143.14 140.91 Z M 143.28 141.50 L 143.36 142.51 C 143.44 143.48 144.28 144.21 145.25 144.13 C 146.22 144.06 146.95 143.21 146.87 142.24 L 146.80 141.23 C 146.72 140.26 145.88 139.53 144.91 139.61 C 143.94 139.68 143.21 140.53 143.28 141.50 Z M 143.36 142.35 L 143.34 143.49 C 143.33 144.46 144.10 145.26 145.08 145.27 C 146.05 145.29 146.85 144.51 146.86 143.54 L 146.88 142.40 C 146.89 141.43 146.12 140.63 145.14 140.62 C 144.17 140.60 143.37 141.38 143.36 142.35 Z M 143.35 143.36 L 143.24 144.53 C 143.16 145.50 143.88 146.36 144.85 146.44 C 145.82 146.53 146.67 145.81 146.76 144.84 L 146.86 143.66 C 146.94 142.69 146.22 141.84 145.25 141.75 C 144.28 141.67 143.43 142.39 143.35 143.36 Z M 143.26 144.41 L 143.07 145.58 C 142.92 146.54 143.58 147.45 144.54 147.60 C 145.50 147.75 146.41 147.09 146.56 146.13 L 146.74 144.96 C 146.90 144.00 146.24 143.10 145.28 142.94 C 144.31 142.79 143.41 143.45 143.26 144.41 Z M 143.10 145.42 L 142.79 146.66 C 142.55 147.61 143.12 148.57 144.07 148.81 C 145.02 149.05 145.98 148.48 146.22 147.53 L 146.53 146.29 C 146.77 145.34 146.20 144.38 145.25 144.14 C 144.30 143.90 143.34 144.47 143.10 145.42 Z M 142.84 146.45 L 142.43 147.50 C 142.08 148.42 142.53 149.45 143.45 149.81 C 144.37 150.16 145.40 149.71 145.76 148.79 L 146.17 147.74 C 146.52 146.82 146.07 145.79 145.15 145.43 C 144.23 145.08 143.20 145.53 142.84 146.45 Z M 142.57 147.20 L 142.07 148.02 C 141.55 148.86 141.81 149.97 142.66 150.49 C 143.50 151.00 144.61 150.74 145.13 149.89 L 145.63 149.08 C 146.14 148.24 145.88 147.13 145.04 146.61 C 144.19 146.09 143.08 146.36 142.57 147.20 Z M 142.38 147.62 L 141.80 148.14 C 141.06 148.81 141.00 149.96 141.67 150.70 C 142.35 151.44 143.49 151.49 144.23 150.82 L 144.81 150.29 C 145.55 149.62 145.61 148.48 144.94 147.74 C 144.27 147.00 143.12 146.95 142.38 147.62 Z M 142.50 147.74 L 141.82 147.94 C 140.86 148.22 140.31 149.23 140.59 150.19 C 140.87 151.16 141.88 151.71 142.85 151.43 L 143.53 151.23 C 144.49 150.95 145.04 149.94 144.76 148.97 C 144.48 148.01 143.47 147.46 142.50 147.74 Z M 142.75 147.90 L 141.95 147.72 C 140.97 147.49 139.99 148.11 139.76 149.09 C 139.53 150.07 140.15 151.05 141.13 151.28 L 141.92 151.46 C 142.91 151.69 143.89 151.07 144.11 150.09 C 144.34 149.11 143.73 148.13 142.75 147.90 Z M 142.54 147.97 L 141.74 147.45 C 140.90 146.89 139.77 147.12 139.21 147.97 C 138.66 148.81 138.89 149.94 139.73 150.50 L 140.53 151.02 C 141.38 151.58 142.51 151.34 143.06 150.50 C 143.62 149.66 143.38 148.53 142.54 147.97 Z M 142.08 147.73 L 141.34 146.94 C 140.66 146.20 139.50 146.15 138.76 146.84 C 138.02 147.53 137.98 148.69 138.66 149.43 L 139.40 150.22 C 140.09 150.96 141.24 151.00 141.98 150.31 C 142.72 149.62 142.77 148.47 142.08 147.73 Z M 141.56 147.22 L 140.97 146.25 C 140.44 145.39 139.31 145.12 138.45 145.65 C 137.59 146.18 137.32 147.31 137.85 148.17 L 138.44 149.14 C 138.97 150.00 140.10 150.27 140.96 149.74 C 141.83 149.21 142.09 148.08 141.56 147.22 Z M 141.11 146.55 L 140.76 145.63 C 140.39 144.68 139.33 144.22 138.39 144.58 C 137.44 144.95 136.97 146.01 137.34 146.96 L 137.70 147.87 C 138.07 148.82 139.13 149.28 140.07 148.92 C 141.01 148.55 141.48 147.49 141.11 146.55 Z M 140.84 145.89 L 140.62 144.94 C 140.40 143.95 139.42 143.33 138.43 143.56 C 137.44 143.78 136.82 144.77 137.05 145.75 L 137.26 146.70 C 137.49 147.68 138.47 148.30 139.46 148.08 C 140.44 147.85 141.06 146.87 140.84 145.89 Z M 140.66 145.15 L 140.55 144.16 C 140.44 143.16 139.54 142.43 138.53 142.54 C 137.52 142.65 136.80 143.55 136.90 144.56 L 137.01 145.54 C 137.12 146.55 138.03 147.28 139.03 147.17 C 140.04 147.06 140.77 146.15 140.66 145.15 Z M 140.56 144.32 L 140.54 143.31 C 140.52 142.29 139.68 141.49 138.67 141.51 C 137.65 141.53 136.85 142.37 136.87 143.38 L 136.89 144.40 C 136.92 145.41 137.75 146.21 138.77 146.19 C 139.78 146.17 140.58 145.33 140.56 144.32 Z M 140.54 143.42 L 140.58 142.39 C 140.62 141.38 139.83 140.52 138.82 140.48 C 137.81 140.44 136.96 141.23 136.92 142.24 L 136.87 143.27 C 136.83 144.28 137.62 145.14 138.63 145.18 C 139.64 145.22 140.50 144.43 140.54 143.42 Z M 140.58 142.46 L 140.66 141.44 C 140.74 140.43 139.99 139.55 138.98 139.47 C 137.97 139.38 137.08 140.14 137.00 141.15 L 136.92 142.17 C 136.84 143.17 137.59 144.06 138.60 144.14 C 139.61 144.22 140.49 143.47 140.58 142.46 Z M 140.65 141.52 L 140.78 140.52 C 140.90 139.52 140.19 138.60 139.18 138.48 C 138.18 138.35 137.26 139.06 137.14 140.07 L 137.01 141.07 C 136.88 142.07 137.60 142.99 138.60 143.11 C 139.61 143.24 140.53 142.53 140.65 141.52 Z M 140.76 140.65 L 140.95 139.67 C 141.14 138.68 140.49 137.71 139.50 137.52 C 138.50 137.32 137.54 137.97 137.35 138.97 L 137.15 139.95 C 136.96 140.94 137.61 141.90 138.60 142.10 C 139.60 142.29 140.56 141.64 140.76 140.65 Z M 140.91 139.84 L 141.19 138.89 C 141.48 137.92 140.92 136.90 139.95 136.61 C 138.98 136.32 137.96 136.88 137.67 137.85 L 137.39 138.80 C 137.10 139.77 137.65 140.79 138.62 141.08 C 139.60 141.37 140.62 140.81 140.91 139.84 Z M 141.11 139.10 L 141.51 138.20 C 141.91 137.27 141.49 136.19 140.56 135.78 C 139.63 135.38 138.55 135.80 138.14 136.73 L 137.75 137.64 C 137.34 138.56 137.76 139.65 138.69 140.05 C 139.62 140.46 140.70 140.03 141.11 139.10 Z M 141.38 138.44 L 141.92 137.58 C 142.45 136.73 142.20 135.59 141.34 135.05 C 140.48 134.51 139.34 134.77 138.81 135.63 L 138.27 136.49 C 137.73 137.35 137.99 138.48 138.85 139.02 C 139.71 139.56 140.84 139.30 141.38 138.44 Z M 141.73 137.83 L 142.49 136.98 C 143.16 136.22 143.09 135.06 142.33 134.39 C 141.57 133.71 140.41 133.78 139.74 134.54 L 138.99 135.39 C 138.31 136.15 138.38 137.31 139.14 137.98 C 139.90 138.66 141.06 138.59 141.73 137.83 Z M 142.28 137.18 L 143.14 136.47 C 143.93 135.83 144.04 134.67 143.40 133.89 C 142.76 133.10 141.60 132.99 140.82 133.63 L 139.95 134.34 C 139.17 134.98 139.05 136.14 139.69 136.92 C 140.33 137.71 141.49 137.82 142.28 137.18 Z M 142.88 136.65 L 143.79 136.14 C 144.67 135.64 144.98 134.52 144.48 133.64 C 143.98 132.75 142.86 132.44 141.98 132.94 L 141.08 133.45 C 140.19 133.95 139.88 135.07 140.38 135.95 C 140.88 136.84 142.00 137.15 142.88 136.65 Z M 143.40 136.30 L 144.26 136.05 C 145.23 135.77 145.79 134.74 145.50 133.77 C 145.22 132.80 144.20 132.24 143.22 132.53 L 142.36 132.78 C 141.39 133.07 140.83 134.09 141.12 135.06 C 141.41 136.03 142.43 136.59 143.40 136.30 Z M 143.58 136.12 L 144.32 136.18 C 145.33 136.27 146.22 135.52 146.31 134.51 C 146.40 133.50 145.65 132.61 144.64 132.52 L 143.90 132.46 C 142.89 132.37 142.00 133.12 141.91 134.13 C 141.82 135.14 142.57 136.03 143.58 136.12 Z M 143.37 135.82 L 143.95 136.26 C 144.76 136.87 145.91 136.72 146.53 135.91 C 147.14 135.10 146.98 133.95 146.17 133.33 L 145.59 132.89 C 144.78 132.28 143.63 132.44 143.02 133.24 C 142.40 134.05 142.56 135.20 143.37 135.82 Z M 143.45 135.66 L 143.85 136.43 C 144.33 137.32 145.44 137.66 146.34 137.18 C 147.23 136.70 147.57 135.59 147.09 134.70 L 146.68 133.93 C 146.21 133.04 145.09 132.70 144.20 133.18 C 143.30 133.66 142.97 134.77 143.45 135.66 Z M 143.70 136.04 L 143.97 137.04 C 144.23 138.02 145.24 138.60 146.22 138.33 C 147.20 138.07 147.78 137.06 147.52 136.08 L 147.25 135.08 C 146.98 134.11 145.97 133.53 145.00 133.79 C 144.02 134.05 143.44 135.06 143.70 136.04 Z M 143.93 136.83 L 144.09 137.97 C 144.24 138.98 145.17 139.67 146.18 139.52 C 147.18 139.38 147.87 138.44 147.73 137.44 L 147.56 136.30 C 147.41 135.29 146.48 134.60 145.48 134.74 C 144.47 134.89 143.78 135.82 143.93 136.83 Z M 144.08 137.86 L 144.18 139.01 C 144.27 140.02 145.16 140.77 146.17 140.69 C 147.18 140.60 147.92 139.71 147.84 138.70 L 147.74 137.55 C 147.65 136.54 146.76 135.79 145.75 135.88 C 144.74 135.96 143.99 136.85 144.08 137.86 Z M 144.17 138.95 L 144.23 139.98 C 144.28 140.99 145.14 141.77 146.16 141.72 C 147.17 141.67 147.95 140.81 147.90 139.79 L 147.84 138.76 C 147.79 137.75 146.93 136.97 145.91 137.02 C 144.90 137.07 144.12 137.94 144.17 138.95 Z M 144.23 139.91 L 144.24 140.93 C 144.25 141.94 145.08 142.76 146.10 142.75 C 147.11 142.73 147.92 141.90 147.91 140.89 L 147.90 139.87 C 147.89 138.85 147.05 138.04 146.04 138.05 C 145.03 138.06 144.21 138.90 144.23 139.91 Z M 144.24 140.84 L 144.20 141.84 C 144.16 142.86 144.95 143.71 145.97 143.75 C 146.98 143.79 147.83 142.99 147.87 141.98 L 147.91 140.98 C 147.95 139.96 147.16 139.11 146.14 139.07 C 145.13 139.04 144.28 139.83 144.24 140.84 Z M 144.21 141.73 L 144.11 142.71 C 144.01 143.72 144.75 144.62 145.76 144.72 C 146.77 144.82 147.67 144.08 147.77 143.07 L 147.86 142.09 C 147.96 141.08 147.23 140.18 146.22 140.09 C 145.21 139.99 144.31 140.72 144.21 141.73 Z M 144.13 142.58 L 143.97 143.52 C 143.79 144.52 144.46 145.47 145.46 145.64 C 146.46 145.82 147.41 145.15 147.58 144.15 L 147.75 143.20 C 147.92 142.21 147.25 141.25 146.25 141.08 C 145.26 140.91 144.30 141.58 144.13 142.58 Z M 144.00 143.35 L 143.74 144.33 C 143.47 145.31 144.05 146.32 145.03 146.58 C 146.01 146.85 147.02 146.27 147.28 145.29 L 147.55 144.31 C 147.81 143.33 147.23 142.33 146.25 142.06 C 145.28 141.80 144.27 142.38 144.00 143.35 Z M 143.80 144.15 L 143.44 145.09 C 143.07 146.03 143.54 147.10 144.49 147.46 C 145.43 147.83 146.50 147.36 146.86 146.41 L 147.23 145.47 C 147.59 144.52 147.12 143.46 146.17 143.10 C 145.23 142.73 144.16 143.20 143.80 144.15 Z M 143.52 144.91 L 143.06 145.79 C 142.60 146.69 142.95 147.80 143.85 148.26 C 144.75 148.73 145.86 148.38 146.32 147.48 L 146.78 146.59 C 147.25 145.69 146.89 144.58 145.99 144.12 C 145.09 143.65 143.98 144.01 143.52 144.91 Z M 143.17 145.61 L 142.62 146.43 C 142.05 147.28 142.28 148.42 143.12 148.98 C 143.97 149.54 145.11 149.32 145.67 148.47 L 146.22 147.65 C 146.78 146.81 146.56 145.67 145.71 145.11 C 144.87 144.54 143.73 144.77 143.17 145.61 Z M 142.74 146.27 L 142.10 147.02 C 141.45 147.80 141.55 148.95 142.32 149.61 C 143.09 150.26 144.25 150.17 144.91 149.39 L 145.55 148.64 C 146.20 147.86 146.10 146.71 145.33 146.05 C 144.56 145.40 143.40 145.49 142.74 146.27 Z M 142.25 146.86 L 141.43 147.63 C 140.68 148.32 140.64 149.48 141.33 150.22 C 142.02 150.97 143.19 151.01 143.93 150.32 L 144.76 149.55 C 145.50 148.86 145.54 147.70 144.85 146.96 C 144.16 146.21 143.00 146.17 142.25 146.86 Z M 141.63 147.45 L 140.71 148.09 C 139.87 148.67 139.66 149.82 140.24 150.66 C 140.82 151.49 141.97 151.71 142.81 151.13 L 143.73 150.49 C 144.57 149.91 144.78 148.76 144.20 147.93 C 143.62 147.09 142.47 146.88 141.63 147.45 Z M 141.04 147.90 L 140.13 148.29 C 139.18 148.69 138.74 149.78 139.14 150.72 C 139.54 151.66 140.63 152.10 141.57 151.70 L 142.48 151.31 C 143.42 150.91 143.86 149.83 143.47 148.88 C 143.07 147.94 141.98 147.50 141.04 147.90 Z M 140.73 148.14 L 139.90 148.19 C 138.88 148.25 138.10 149.14 138.17 150.16 C 138.23 151.19 139.11 151.97 140.14 151.90 L 140.97 151.85 C 141.99 151.79 142.77 150.90 142.70 149.88 C 142.64 148.85 141.76 148.07 140.73 148.14 Z M 140.89 148.39 L 140.24 148.06 C 139.33 147.58 138.20 147.93 137.72 148.84 C 137.24 149.75 137.60 150.88 138.51 151.36 L 139.16 151.70 C 140.07 152.18 141.20 151.82 141.67 150.91 C 142.15 150.00 141.80 148.87 140.89 148.39 Z M 140.91 148.64 L 140.45 147.97 C 139.86 147.12 138.69 146.91 137.84 147.50 C 137.00 148.09 136.79 149.26 137.37 150.11 L 137.84 150.77 C 138.43 151.62 139.59 151.83 140.44 151.24 C 141.29 150.65 141.50 149.49 140.91 148.64 Z M 140.67 148.39 L 140.33 147.47 C 139.97 146.50 138.90 146.00 137.92 146.36 C 136.95 146.72 136.46 147.79 136.81 148.76 L 137.15 149.69 C 137.51 150.66 138.59 151.15 139.56 150.80 C 140.53 150.44 141.02 149.36 140.67 148.39 Z M 140.40 147.72 L 140.17 146.64 C 139.95 145.62 138.95 144.98 137.94 145.20 C 136.92 145.43 136.28 146.42 136.50 147.44 L 136.74 148.52 C 136.96 149.53 137.96 150.17 138.97 149.95 C 139.98 149.73 140.62 148.73 140.40 147.72 Z M 140.20 146.78 L 140.04 145.63 C 139.90 144.60 138.95 143.88 137.92 144.02 C 136.90 144.16 136.18 145.11 136.32 146.14 L 136.47 147.29 C 136.62 148.32 137.56 149.04 138.59 148.90 C 139.62 148.76 140.34 147.81 140.20 146.78 Z M 140.05 145.71 L 139.96 144.66 C 139.86 143.63 138.95 142.86 137.91 142.96 C 136.88 143.05 136.12 143.96 136.21 145.00 L 136.30 146.05 C 136.40 147.08 137.31 147.85 138.35 147.75 C 139.38 147.66 140.14 146.75 140.05 145.71 Z M 139.96 144.73 L 139.91 143.72 C 139.85 142.68 138.97 141.88 137.93 141.94 C 136.89 141.99 136.10 142.88 136.15 143.91 L 136.20 144.93 C 136.26 145.96 137.14 146.76 138.18 146.71 C 139.22 146.65 140.02 145.77 139.96 144.73 Z M 139.91 143.79 L 139.90 142.79 C 139.88 141.75 139.03 140.92 137.99 140.94 C 136.95 140.95 136.12 141.81 136.13 142.85 L 136.15 143.84 C 136.16 144.88 137.02 145.71 138.06 145.70 C 139.10 145.68 139.93 144.83 139.91 143.79 Z M 139.90 142.86 L 139.92 141.88 C 139.94 140.84 139.12 139.97 138.08 139.95 C 137.04 139.93 136.18 140.75 136.15 141.79 L 136.13 142.78 C 136.11 143.82 136.93 144.68 137.97 144.70 C 139.01 144.73 139.87 143.90 139.90 142.86 Z M 139.92 141.94 L 139.97 140.96 C 140.03 139.93 139.24 139.03 138.20 138.97 C 137.16 138.91 136.27 139.71 136.21 140.75 L 136.16 141.73 C 136.10 142.76 136.89 143.66 137.93 143.72 C 138.97 143.78 139.86 142.98 139.92 141.94 Z M 139.97 141.03 L 140.06 140.04 C 140.16 139.00 139.40 138.08 138.36 137.99 C 137.32 137.89 136.41 138.65 136.31 139.69 L 136.22 140.68 C 136.12 141.72 136.88 142.64 137.92 142.73 C 138.96 142.83 139.87 142.07 139.97 141.03 Z M 140.05 140.11 L 140.19 139.11 C 140.32 138.08 139.60 137.13 138.57 137.00 C 137.54 136.86 136.59 137.58 136.45 138.62 L 136.32 139.61 C 136.18 140.64 136.90 141.59 137.94 141.73 C 138.97 141.87 139.92 141.14 140.05 140.11 Z M 140.17 139.20 L 140.35 138.22 C 140.54 137.19 139.86 136.21 138.84 136.02 C 137.82 135.84 136.83 136.51 136.65 137.54 L 136.46 138.52 C 136.28 139.55 136.95 140.53 137.98 140.72 C 139.00 140.91 139.98 140.23 140.17 139.20 Z M 140.33 138.33 L 140.57 137.36 C 140.82 136.35 140.20 135.33 139.19 135.08 C 138.18 134.83 137.16 135.45 136.91 136.46 L 136.67 137.43 C 136.42 138.44 137.04 139.46 138.05 139.71 C 139.06 139.96 140.08 139.34 140.33 138.33 Z M 140.53 137.49 L 140.84 136.54 C 141.16 135.55 140.61 134.49 139.62 134.17 C 138.63 133.85 137.57 134.40 137.25 135.39 L 136.94 136.33 C 136.63 137.32 137.17 138.38 138.16 138.70 C 139.15 139.02 140.21 138.48 140.53 137.49 Z M 140.78 136.69 L 141.18 135.74 C 141.58 134.78 141.12 133.68 140.16 133.28 C 139.20 132.88 138.10 133.33 137.70 134.29 L 137.30 135.24 C 136.90 136.20 137.36 137.30 138.32 137.70 C 139.28 138.10 140.38 137.65 140.78 136.69 Z M 141.09 135.91 L 141.59 135.00 C 142.08 134.08 141.74 132.94 140.83 132.45 C 139.91 131.95 138.77 132.29 138.28 133.21 L 137.78 134.12 C 137.29 135.04 137.63 136.18 138.54 136.67 C 139.46 137.17 140.60 136.83 141.09 135.91 Z M 141.46 135.20 L 142.05 134.37 C 142.65 133.53 142.46 132.35 141.61 131.75 C 140.76 131.15 139.59 131.34 138.99 132.19 L 138.40 133.01 C 137.80 133.86 137.99 135.03 138.84 135.63 C 139.68 136.24 140.86 136.04 141.46 135.20 Z M 141.86 134.60 L 142.54 133.90 C 143.27 133.16 143.25 131.97 142.51 131.24 C 141.77 130.52 140.58 130.53 139.85 131.27 L 139.17 131.97 C 138.45 132.71 138.46 133.90 139.20 134.63 C 139.95 135.35 141.14 135.34 141.86 134.60 Z M 142.27 134.13 L 143.04 133.59 C 143.90 133.00 144.11 131.83 143.52 130.98 C 142.93 130.13 141.76 129.91 140.91 130.50 L 140.13 131.04 C 139.28 131.63 139.06 132.80 139.65 133.65 C 140.24 134.51 141.41 134.72 142.27 134.13 Z M 142.65 133.80 L 143.60 133.43 C 144.57 133.05 145.05 131.97 144.67 131.00 C 144.30 130.04 143.21 129.56 142.24 129.93 L 141.30 130.30 C 140.33 130.67 139.85 131.76 140.23 132.73 C 140.60 133.69 141.69 134.17 142.65 133.80 Z M 143.15 133.54 L 144.16 133.42 C 145.19 133.29 145.92 132.36 145.79 131.33 C 145.67 130.30 144.73 129.57 143.70 129.69 L 142.69 129.82 C 141.66 129.94 140.93 130.88 141.06 131.91 C 141.18 132.94 142.12 133.67 143.15 133.54 Z M 143.66 133.41 L 144.64 133.56 C 145.66 133.70 146.61 132.99 146.76 131.97 C 146.91 130.94 146.20 129.99 145.17 129.84 L 144.20 129.70 C 143.17 129.55 142.22 130.26 142.07 131.29 C 141.92 132.32 142.63 133.27 143.66 133.41 Z M 144.09 133.39 L 144.95 133.81 C 145.89 134.26 147.01 133.87 147.46 132.94 C 147.91 132.00 147.52 130.88 146.59 130.43 L 145.72 130.01 C 144.79 129.56 143.67 129.95 143.22 130.88 C 142.77 131.81 143.16 132.94 144.09 133.39 Z M 144.44 133.44 L 145.06 134.07 C 145.79 134.80 146.98 134.81 147.71 134.08 C 148.45 133.35 148.46 132.16 147.73 131.43 L 147.10 130.80 C 146.38 130.06 145.19 130.06 144.45 130.78 C 143.72 131.51 143.71 132.70 144.44 133.44 Z M 144.75 133.65 L 145.17 134.42 C 145.67 135.33 146.81 135.66 147.72 135.16 C 148.63 134.66 148.96 133.52 148.46 132.61 L 148.04 131.84 C 147.54 130.94 146.40 130.60 145.49 131.10 C 144.58 131.60 144.25 132.74 144.75 133.65 Z M 145.04 134.11 L 145.34 135.03 C 145.67 136.01 146.73 136.54 147.71 136.22 C 148.70 135.89 149.23 134.83 148.90 133.84 L 148.60 132.93 C 148.27 131.94 147.21 131.41 146.23 131.74 C 145.24 132.06 144.71 133.13 145.04 134.11 Z M 145.29 134.81 L 145.49 135.83 C 145.70 136.85 146.69 137.50 147.71 137.30 C 148.72 137.09 149.38 136.10 149.17 135.09 L 148.96 134.06 C 148.75 133.05 147.76 132.39 146.75 132.60 C 145.73 132.80 145.08 133.80 145.29 134.81 Z M 145.47 135.69 L 145.61 136.79 C 145.74 137.82 146.68 138.54 147.70 138.42 C 148.73 138.29 149.46 137.35 149.33 136.32 L 149.19 135.23 C 149.06 134.20 148.12 133.47 147.10 133.60 C 146.07 133.73 145.34 134.67 145.47 135.69 Z M 145.60 136.71 L 145.69 137.79 C 145.77 138.82 146.67 139.59 147.71 139.51 C 148.74 139.43 149.51 138.52 149.42 137.49 L 149.34 136.41 C 149.25 135.37 148.35 134.60 147.32 134.69 C 146.29 134.77 145.52 135.67 145.60 136.71 Z M 145.68 137.73 L 145.73 138.76 C 145.78 139.79 146.66 140.59 147.69 140.54 C 148.73 140.49 149.53 139.61 149.48 138.58 L 149.43 137.55 C 149.38 136.52 148.50 135.72 147.47 135.77 C 146.43 135.82 145.64 136.70 145.68 137.73 Z M 145.73 138.68 L 145.74 139.70 C 145.75 140.74 146.59 141.57 147.62 141.56 C 148.66 141.56 149.49 140.71 149.48 139.68 L 149.48 138.66 C 149.47 137.62 148.63 136.79 147.59 136.80 C 146.56 136.80 145.73 137.65 145.73 138.68 Z M 145.74 139.60 L 145.70 140.61 C 145.65 141.64 146.45 142.52 147.48 142.56 C 148.51 142.61 149.39 141.81 149.44 140.78 L 149.48 139.78 C 149.53 138.74 148.73 137.87 147.70 137.82 C 146.66 137.77 145.79 138.57 145.74 139.60 Z M 145.71 140.49 L 145.60 141.46 C 145.48 142.49 146.22 143.42 147.25 143.53 C 148.27 143.65 149.20 142.91 149.31 141.88 L 149.42 140.90 C 149.54 139.88 148.80 138.95 147.77 138.83 C 146.75 138.72 145.82 139.46 145.71 140.49 Z M 145.62 141.32 L 145.44 142.26 C 145.24 143.27 145.90 144.26 146.91 144.45 C 147.93 144.65 148.91 143.99 149.11 142.97 L 149.29 142.03 C 149.49 141.02 148.83 140.03 147.81 139.84 C 146.80 139.64 145.82 140.30 145.62 141.32 Z M 145.49 142.06 L 145.13 143.19 C 144.82 144.18 145.37 145.23 146.36 145.54 C 147.35 145.84 148.39 145.29 148.70 144.31 L 149.06 143.18 C 149.36 142.19 148.82 141.14 147.83 140.83 C 146.84 140.52 145.79 141.07 145.49 142.06 Z M 145.23 142.95 L 144.72 144.02 C 144.27 144.95 144.67 146.07 145.60 146.52 C 146.53 146.96 147.65 146.57 148.09 145.63 L 148.61 144.56 C 149.05 143.62 148.66 142.51 147.72 142.06 C 146.79 141.62 145.67 142.01 145.23 142.95 Z M 144.90 143.71 L 144.31 144.50 C 143.70 145.33 143.87 146.50 144.70 147.12 C 145.53 147.74 146.70 147.56 147.32 146.73 L 147.91 145.94 C 148.52 145.11 148.35 143.94 147.52 143.32 C 146.69 142.71 145.52 142.88 144.90 143.71 Z M 144.80 144.04 L 144.20 144.43 C 143.33 145.00 143.08 146.16 143.64 147.02 C 144.20 147.89 145.36 148.14 146.23 147.58 L 146.83 147.19 C 147.70 146.63 147.95 145.47 147.39 144.60 C 146.83 143.73 145.67 143.48 144.80 144.04 Z M 145.61 144.18 L 145.04 144.05 C 144.03 143.83 143.03 144.47 142.81 145.48 C 142.59 146.50 143.23 147.49 144.24 147.71 L 144.82 147.84 C 145.83 148.06 146.83 147.42 147.05 146.41 C 147.27 145.39 146.63 144.40 145.61 144.18 Z M 146.13 144.74 L 145.64 144.11 C 145.01 143.29 143.83 143.13 143.01 143.76 C 142.19 144.40 142.04 145.57 142.67 146.40 L 143.16 147.03 C 143.79 147.85 144.97 148.00 145.79 147.37 C 146.61 146.74 146.76 145.56 146.13 144.74 Z M 145.93 144.62 L 145.57 143.62 C 145.22 142.65 144.15 142.14 143.17 142.48 C 142.19 142.83 141.68 143.91 142.03 144.88 L 142.39 145.88 C 142.74 146.86 143.81 147.37 144.79 147.02 C 145.77 146.67 146.28 145.60 145.93 144.62 Z M 145.66 143.97 L 145.47 142.75 C 145.32 141.72 144.35 141.02 143.33 141.18 C 142.30 141.34 141.60 142.30 141.76 143.32 L 141.94 144.54 C 142.10 145.57 143.06 146.27 144.09 146.11 C 145.12 145.95 145.82 144.99 145.66 143.97 Z M 145.50 143.05 L 145.51 141.79 C 145.52 140.75 144.68 139.90 143.64 139.89 C 142.60 139.88 141.75 140.72 141.74 141.76 L 141.73 143.02 C 141.72 144.06 142.56 144.91 143.60 144.92 C 144.64 144.93 145.49 144.09 145.50 143.05 Z M 145.48 142.08 L 145.68 140.91 C 145.84 139.88 145.15 138.91 144.12 138.74 C 143.10 138.58 142.13 139.27 141.96 140.30 L 141.77 141.47 C 141.60 142.50 142.29 143.46 143.32 143.63 C 144.35 143.80 145.31 143.11 145.48 142.08 Z M 145.59 141.25 L 145.93 140.31 C 146.29 139.34 145.79 138.26 144.81 137.90 C 143.83 137.54 142.75 138.04 142.39 139.02 L 142.05 139.95 C 141.69 140.93 142.19 142.01 143.17 142.37 C 144.14 142.73 145.23 142.23 145.59 141.25 Z M 145.60 140.88 L 146.06 140.33 C 146.74 139.54 146.64 138.35 145.84 137.68 C 145.05 137.01 143.86 137.10 143.19 137.90 L 142.72 138.45 C 142.05 139.24 142.15 140.43 142.94 141.10 C 143.74 141.78 144.93 141.68 145.60 140.88 Z M 144.64 141.00 L 145.23 141.00 C 146.27 140.99 147.11 140.14 147.10 139.10 C 147.10 138.06 146.25 137.22 145.21 137.23 L 144.62 137.23 C 143.57 137.24 142.73 138.09 142.74 139.13 C 142.75 140.17 143.60 141.01 144.64 141.00 Z M 143.90 140.47 L 144.51 141.05 C 145.25 141.78 146.45 141.76 147.18 141.01 C 147.90 140.26 147.88 139.07 147.14 138.34 L 146.53 137.76 C 145.79 137.03 144.59 137.05 143.86 137.80 C 143.14 138.55 143.16 139.74 143.90 140.47 Z M 144.09 140.45 L 144.52 141.45 C 144.93 142.40 146.05 142.84 147.01 142.43 C 147.96 142.01 148.40 140.90 147.99 139.94 L 147.56 138.94 C 147.14 137.99 146.03 137.55 145.07 137.96 C 144.11 138.38 143.67 139.49 144.09 140.45 Z M 144.37 140.85 L 144.46 142.07 C 144.55 143.11 145.46 143.88 146.51 143.80 C 147.55 143.72 148.32 142.80 148.24 141.76 L 148.14 140.54 C 148.06 139.50 147.14 138.72 146.10 138.81 C 145.06 138.89 144.28 139.80 144.37 140.85 Z M 144.52 141.44 L 144.22 142.60 C 143.96 143.62 144.57 144.65 145.58 144.91 C 146.60 145.17 147.63 144.56 147.89 143.55 L 148.19 142.38 C 148.45 141.37 147.84 140.34 146.82 140.08 C 145.81 139.82 144.78 140.43 144.52 141.44 Z M 144.39 142.16 L 143.84 143.17 C 143.33 144.08 143.66 145.24 144.58 145.75 C 145.50 146.25 146.66 145.92 147.16 145.00 L 147.72 143.99 C 148.22 143.07 147.89 141.92 146.97 141.41 C 146.05 140.91 144.90 141.24 144.39 142.16 Z M 144.12 142.77 L 143.48 143.45 C 142.76 144.21 142.79 145.41 143.55 146.13 C 144.31 146.86 145.51 146.83 146.23 146.07 L 146.87 145.39 C 147.60 144.63 147.57 143.43 146.81 142.71 C 146.05 141.98 144.85 142.01 144.12 142.77 Z M 144.34 142.93 L 143.78 143.08 C 142.77 143.37 142.18 144.42 142.47 145.43 C 142.76 146.45 143.81 147.03 144.82 146.74 L 145.38 146.59 C 146.39 146.30 146.97 145.25 146.69 144.24 C 146.40 143.23 145.35 142.64 144.34 142.93 Z M 145.81 143.76 L 145.47 143.32 C 144.83 142.48 143.64 142.32 142.80 142.96 C 141.97 143.60 141.81 144.80 142.45 145.63 L 142.79 146.07 C 143.43 146.91 144.62 147.07 145.46 146.43 C 146.29 145.79 146.45 144.59 145.81 143.76 Z M 145.85 144.19 L 145.71 143.30 C 145.56 142.26 144.59 141.54 143.55 141.70 C 142.51 141.85 141.79 142.82 141.95 143.86 L 142.08 144.76 C 142.23 145.80 143.20 146.51 144.24 146.36 C 145.28 146.20 146.00 145.23 145.85 144.19 Z M 145.73 143.65 L 145.78 142.48 C 145.82 141.43 145.00 140.54 143.95 140.50 C 142.90 140.46 142.01 141.28 141.97 142.33 L 141.93 143.50 C 141.88 144.56 142.70 145.44 143.75 145.48 C 144.81 145.52 145.69 144.70 145.73 143.65 Z M 145.76 142.70 L 145.96 141.42 C 146.12 140.38 145.41 139.40 144.38 139.24 C 143.34 139.07 142.36 139.78 142.20 140.82 L 141.99 142.11 C 141.83 143.14 142.54 144.12 143.58 144.28 C 144.62 144.45 145.59 143.74 145.76 142.70 Z M 145.91 141.63 L 146.27 140.34 C 146.55 139.32 145.96 138.27 144.94 137.99 C 143.93 137.71 142.88 138.31 142.60 139.32 L 142.24 140.61 C 141.96 141.63 142.56 142.68 143.57 142.96 C 144.58 143.24 145.63 142.64 145.91 141.63 Z M 146.18 140.58 L 146.64 139.53 C 147.05 138.57 146.61 137.45 145.64 137.03 C 144.67 136.61 143.55 137.06 143.14 138.03 L 142.69 139.08 C 142.27 140.04 142.72 141.16 143.68 141.58 C 144.65 141.99 145.77 141.55 146.18 140.58 Z M 146.40 139.93 L 146.90 139.29 C 147.53 138.45 147.37 137.25 146.53 136.62 C 145.69 135.98 144.50 136.14 143.86 136.98 L 143.37 137.63 C 142.73 138.46 142.90 139.66 143.73 140.30 C 144.57 140.93 145.77 140.77 146.40 139.93 Z M 145.72 140.01 L 146.19 139.92 C 147.22 139.73 147.91 138.74 147.72 137.70 C 147.53 136.67 146.54 135.98 145.50 136.17 L 145.04 136.26 C 144.00 136.45 143.32 137.44 143.51 138.47 C 143.69 139.51 144.69 140.19 145.72 140.01 Z M 144.37 139.25 L 144.76 139.72 C 145.42 140.54 146.62 140.66 147.43 139.99 C 148.25 139.33 148.37 138.13 147.71 137.32 L 147.32 136.84 C 146.66 136.03 145.46 135.91 144.64 136.57 C 143.83 137.24 143.71 138.44 144.37 139.25 Z M 144.45 139.17 L 144.77 140.06 C 145.13 141.04 146.22 141.55 147.20 141.19 C 148.19 140.83 148.70 139.74 148.34 138.75 L 148.02 137.87 C 147.66 136.88 146.57 136.38 145.58 136.73 C 144.60 137.09 144.09 138.18 144.45 139.17 Z M 144.70 139.81 L 144.95 140.97 C 145.18 141.99 146.19 142.64 147.21 142.42 C 148.23 142.20 148.88 141.19 148.66 140.16 L 148.41 139.00 C 148.18 137.98 147.18 137.33 146.15 137.55 C 145.13 137.77 144.48 138.78 144.70 139.81 Z M 144.93 140.82 L 145.10 142.12 C 145.24 143.15 146.19 143.88 147.23 143.74 C 148.27 143.60 148.99 142.65 148.86 141.62 L 148.68 140.32 C 148.55 139.28 147.59 138.55 146.56 138.69 C 145.52 138.83 144.79 139.78 144.93 140.82 Z M 145.09 141.98 L 145.17 143.31 C 145.24 144.36 146.14 145.15 147.18 145.08 C 148.23 145.02 149.02 144.12 148.95 143.07 L 148.87 141.75 C 148.80 140.70 147.91 139.91 146.86 139.98 C 145.82 140.04 145.02 140.94 145.09 141.98 Z M 145.16 143.14 L 145.13 144.32 C 145.11 145.37 145.94 146.24 146.99 146.27 C 148.03 146.29 148.91 145.47 148.93 144.42 L 148.96 143.24 C 148.99 142.19 148.16 141.32 147.11 141.29 C 146.06 141.27 145.19 142.10 145.16 143.14 Z M 145.16 144.02 L 145.00 144.91 C 144.81 145.94 145.49 146.93 146.53 147.12 C 147.56 147.31 148.55 146.63 148.75 145.59 L 148.91 144.71 C 149.10 143.68 148.41 142.69 147.38 142.50 C 146.34 142.31 145.35 142.99 145.16 144.02 Z M 145.32 144.14 L 145.01 144.57 C 144.39 145.43 144.59 146.62 145.44 147.24 C 146.30 147.85 147.49 147.66 148.11 146.80 L 148.42 146.36 C 149.04 145.51 148.84 144.31 147.99 143.70 C 147.13 143.08 145.94 143.28 145.32 144.14 Z M 147.06 143.84 L 146.56 143.71 C 145.54 143.43 144.49 144.03 144.21 145.05 C 143.94 146.07 144.54 147.12 145.56 147.40 L 146.06 147.53 C 147.08 147.81 148.13 147.21 148.40 146.19 C 148.68 145.17 148.08 144.12 147.06 143.84 Z M 147.48 144.27 L 146.89 143.61 C 146.18 142.83 144.97 142.76 144.19 143.47 C 143.40 144.18 143.34 145.39 144.04 146.17 L 144.63 146.83 C 145.34 147.62 146.55 147.68 147.34 146.97 C 148.12 146.27 148.19 145.06 147.48 144.27 Z M 147.13 143.96 L 146.56 142.93 C 146.04 142.01 144.88 141.68 143.96 142.19 C 143.03 142.71 142.70 143.87 143.22 144.80 L 143.79 145.83 C 144.31 146.75 145.48 147.08 146.40 146.56 C 147.32 146.05 147.65 144.88 147.13 143.96 Z M 146.69 143.21 L 146.24 141.97 C 145.88 140.98 144.79 140.47 143.79 140.83 C 142.80 141.18 142.28 142.28 142.64 143.27 L 143.09 144.51 C 143.45 145.51 144.55 146.02 145.54 145.66 C 146.53 145.30 147.05 144.21 146.69 143.21 Z M 146.32 142.27 L 146.09 141.01 C 145.89 139.98 144.89 139.29 143.85 139.49 C 142.81 139.68 142.13 140.68 142.32 141.72 L 142.56 142.98 C 142.76 144.02 143.76 144.70 144.80 144.51 C 145.83 144.31 146.52 143.31 146.32 142.27 Z M 146.12 141.31 L 146.09 140.17 C 146.06 139.12 145.17 138.28 144.12 138.31 C 143.06 138.34 142.23 139.23 142.26 140.28 L 142.29 141.42 C 142.32 142.48 143.20 143.31 144.26 143.28 C 145.32 143.25 146.15 142.37 146.12 141.31 Z M 146.06 140.59 L 146.22 139.74 C 146.42 138.70 145.74 137.69 144.70 137.49 C 143.66 137.30 142.65 137.98 142.45 139.02 L 142.29 139.87 C 142.09 140.91 142.77 141.91 143.81 142.11 C 144.85 142.31 145.86 141.63 146.06 140.59 Z M 145.74 140.68 L 146.11 140.28 C 146.83 139.51 146.78 138.29 146.00 137.57 C 145.23 136.85 144.01 136.90 143.29 137.68 L 142.93 138.08 C 142.21 138.85 142.25 140.07 143.03 140.79 C 143.81 141.51 145.03 141.46 145.74 140.68 Z M 143.90 140.73 L 144.49 141.00 C 145.45 141.44 146.59 141.02 147.04 140.06 C 147.48 139.10 147.06 137.96 146.10 137.51 L 145.51 137.24 C 144.54 136.79 143.40 137.21 142.96 138.18 C 142.51 139.14 142.93 140.28 143.90 140.73 Z M 143.60 140.16 L 144.06 141.03 C 144.56 141.97 145.72 142.32 146.66 141.83 C 147.59 141.33 147.95 140.17 147.45 139.23 L 146.99 138.36 C 146.50 137.42 145.33 137.06 144.40 137.56 C 143.46 138.06 143.10 139.22 143.60 140.16 Z M 143.84 140.10 L 143.82 141.33 C 143.81 142.39 144.65 143.26 145.71 143.27 C 146.78 143.29 147.65 142.44 147.66 141.38 L 147.68 140.16 C 147.69 139.10 146.84 138.22 145.78 138.21 C 144.72 138.20 143.85 139.04 143.84 140.10 Z M 144.02 140.51 L 143.58 141.39 C 143.11 142.34 143.51 143.49 144.46 143.96 C 145.41 144.43 146.57 144.04 147.03 143.08 L 147.47 142.20 C 147.93 141.24 147.54 140.09 146.59 139.63 C 145.63 139.16 144.48 139.55 144.02 140.51 Z M 143.85 140.98 L 143.17 141.77 C 142.48 142.58 142.57 143.79 143.38 144.48 C 144.18 145.17 145.40 145.08 146.09 144.27 L 146.77 143.49 C 147.46 142.68 147.36 141.47 146.56 140.78 C 145.75 140.09 144.54 140.18 143.85 140.98 Z M 143.43 141.52 L 142.59 142.19 C 141.76 142.86 141.63 144.07 142.29 144.90 C 142.95 145.73 144.16 145.86 144.99 145.20 L 145.83 144.52 C 146.66 143.86 146.80 142.65 146.13 141.82 C 145.47 140.99 144.26 140.86 143.43 141.52 Z M 142.89 142.00 L 141.98 142.48 C 141.04 142.98 140.68 144.15 141.18 145.08 C 141.68 146.02 142.84 146.38 143.78 145.88 L 144.69 145.39 C 145.63 144.89 145.99 143.73 145.49 142.79 C 144.99 141.85 143.83 141.50 142.89 142.00 Z M 142.41 142.31 L 141.52 142.54 C 140.49 142.80 139.86 143.84 140.12 144.87 C 140.38 145.91 141.43 146.53 142.46 146.27 L 143.35 146.05 C 144.38 145.79 145.00 144.74 144.74 143.71 C 144.48 142.68 143.44 142.06 142.41 142.31 Z M 142.27 142.50 L 141.44 142.38 C 140.39 142.22 139.41 142.95 139.25 144.00 C 139.10 145.05 139.82 146.03 140.87 146.18 L 141.71 146.31 C 142.76 146.46 143.74 145.74 143.89 144.69 C 144.05 143.64 143.32 142.66 142.27 142.50 Z M 142.28 142.72 L 141.59 142.22 C 140.73 141.60 139.53 141.79 138.90 142.65 C 138.28 143.51 138.47 144.72 139.34 145.34 L 140.03 145.84 C 140.89 146.46 142.09 146.27 142.72 145.41 C 143.34 144.55 143.15 143.34 142.28 142.72 Z M 142.05 142.69 L 141.51 141.90 C 140.91 141.02 139.71 140.80 138.84 141.40 C 137.96 142.00 137.73 143.19 138.33 144.07 L 138.87 144.86 C 139.47 145.74 140.67 145.97 141.55 145.37 C 142.43 144.77 142.65 143.57 142.05 142.69 Z M 141.70 142.26 L 141.29 141.26 C 140.89 140.28 139.77 139.81 138.78 140.21 C 137.80 140.61 137.33 141.74 137.73 142.72 L 138.14 143.72 C 138.54 144.70 139.67 145.17 140.65 144.77 C 141.63 144.36 142.10 143.24 141.70 142.26 Z M 141.38 141.51 L 141.09 140.40 C 140.82 139.37 139.77 138.76 138.74 139.03 C 137.71 139.30 137.09 140.35 137.36 141.38 L 137.65 142.48 C 137.92 143.51 138.97 144.12 140.00 143.85 C 141.03 143.58 141.64 142.53 141.38 141.51 Z M 141.12 140.57 L 140.95 139.57 C 140.78 138.52 139.79 137.81 138.74 137.99 C 137.69 138.16 136.99 139.16 137.16 140.20 L 137.33 141.21 C 137.50 142.25 138.50 142.96 139.54 142.78 C 140.59 142.61 141.30 141.62 141.12 140.57 Z M 140.97 139.73 L 140.89 138.72 C 140.80 137.66 139.87 136.88 138.81 136.97 C 137.76 137.05 136.97 137.98 137.06 139.04 L 137.14 140.05 C 137.23 141.10 138.16 141.89 139.22 141.80 C 140.27 141.71 141.06 140.78 140.97 139.73 Z M 140.89 138.89 L 140.89 137.89 C 140.90 136.83 140.05 135.97 138.99 135.96 C 137.93 135.95 137.07 136.81 137.06 137.86 L 137.06 138.87 C 137.05 139.93 137.90 140.79 138.96 140.79 C 140.02 140.80 140.88 139.95 140.89 138.89 Z M 140.88 138.07 L 140.98 137.08 C 141.09 136.03 140.33 135.09 139.28 134.99 C 138.22 134.88 137.29 135.64 137.18 136.69 L 137.08 137.68 C 136.97 138.73 137.73 139.67 138.78 139.78 C 139.83 139.89 140.77 139.12 140.88 138.07 Z M 140.95 137.28 L 141.15 136.32 C 141.37 135.29 140.71 134.28 139.68 134.06 C 138.65 133.84 137.63 134.50 137.41 135.53 L 137.21 136.49 C 136.99 137.53 137.65 138.54 138.69 138.76 C 139.72 138.98 140.73 138.32 140.95 137.28 Z M 141.09 136.54 L 141.42 135.57 C 141.76 134.57 141.22 133.49 140.22 133.15 C 139.22 132.81 138.14 133.35 137.80 134.35 L 137.47 135.32 C 137.14 136.31 137.67 137.40 138.67 137.74 C 139.67 138.07 140.75 137.54 141.09 136.54 Z M 141.33 135.80 L 141.78 134.87 C 142.24 133.92 141.85 132.78 140.90 132.32 C 139.95 131.85 138.80 132.25 138.34 133.20 L 137.89 134.12 C 137.43 135.07 137.82 136.22 138.77 136.68 C 139.72 137.14 140.87 136.74 141.33 135.80 Z M 141.65 135.10 L 142.21 134.26 C 142.80 133.38 142.56 132.19 141.68 131.60 C 140.81 131.02 139.62 131.25 139.03 132.13 L 138.47 132.97 C 137.88 133.85 138.12 135.04 139.00 135.63 C 139.88 136.21 141.07 135.98 141.65 135.10 Z M 142.04 134.48 L 142.70 133.76 C 143.41 132.97 143.36 131.76 142.57 131.05 C 141.79 130.34 140.58 130.39 139.86 131.18 L 139.20 131.90 C 138.49 132.69 138.55 133.90 139.33 134.61 C 140.12 135.32 141.33 135.27 142.04 134.48 Z M 142.47 133.98 L 143.22 133.39 C 144.06 132.73 144.20 131.52 143.55 130.69 C 142.89 129.86 141.69 129.71 140.85 130.36 L 140.10 130.96 C 139.26 131.61 139.12 132.82 139.77 133.65 C 140.43 134.49 141.63 134.63 142.47 133.98 Z M 142.89 133.59 L 143.84 133.12 C 144.79 132.65 145.18 131.49 144.70 130.54 C 144.23 129.59 143.07 129.21 142.13 129.68 L 141.18 130.16 C 140.23 130.63 139.84 131.78 140.32 132.73 C 140.79 133.68 141.95 134.07 142.89 133.59 Z M 143.43 133.27 L 144.47 133.02 C 145.50 132.78 146.14 131.74 145.89 130.71 C 145.64 129.67 144.61 129.04 143.57 129.28 L 142.54 129.53 C 141.50 129.78 140.87 130.82 141.11 131.85 C 141.36 132.88 142.40 133.52 143.43 133.27 Z M 143.97 133.07 L 144.96 133.10 C 146.02 133.13 146.90 132.29 146.93 131.23 C 146.96 130.17 146.12 129.29 145.06 129.26 L 144.07 129.23 C 143.01 129.20 142.13 130.04 142.10 131.10 C 142.07 132.16 142.91 133.05 143.97 133.07 Z M 144.32 132.97 L 145.16 133.30 C 146.15 133.68 147.26 133.18 147.64 132.19 C 148.02 131.20 147.53 130.09 146.54 129.71 L 145.70 129.38 C 144.71 129.00 143.59 129.50 143.21 130.49 C 142.83 131.48 143.33 132.59 144.32 132.97 Z M 144.46 132.84 L 145.04 133.43 C 145.77 134.19 146.99 134.21 147.75 133.48 C 148.52 132.74 148.54 131.52 147.80 130.76 L 147.23 130.17 C 146.49 129.40 145.27 129.38 144.51 130.12 C 143.75 130.86 143.73 132.08 144.46 132.84 Z M 144.64 132.82 L 144.96 133.62 C 145.37 134.60 146.49 135.07 147.47 134.66 C 148.46 134.26 148.93 133.14 148.52 132.15 L 148.20 131.36 C 147.79 130.38 146.67 129.91 145.69 130.31 C 144.71 130.72 144.24 131.84 144.64 132.82 Z M 144.84 133.18 L 145.00 134.15 C 145.16 135.20 146.14 135.91 147.19 135.75 C 148.24 135.58 148.96 134.60 148.79 133.55 L 148.64 132.59 C 148.48 131.54 147.49 130.82 146.44 130.99 C 145.40 131.15 144.68 132.13 144.84 133.18 Z M 144.97 133.87 L 144.99 134.95 C 145.00 136.01 145.87 136.86 146.93 136.85 C 147.99 136.83 148.84 135.96 148.83 134.90 L 148.82 133.82 C 148.80 132.76 147.93 131.91 146.87 131.93 C 145.81 131.94 144.96 132.81 144.97 133.87 Z M 144.99 134.78 L 144.90 135.91 C 144.82 136.97 145.61 137.90 146.67 137.98 C 147.73 138.06 148.65 137.27 148.74 136.21 L 148.83 135.08 C 148.91 134.02 148.12 133.09 147.06 133.01 C 146.00 132.93 145.07 133.72 144.99 134.78 Z M 144.91 135.80 L 144.78 136.81 C 144.63 137.86 145.37 138.83 146.42 138.97 C 147.47 139.12 148.44 138.38 148.59 137.33 L 148.73 136.32 C 148.87 135.27 148.13 134.30 147.08 134.16 C 146.03 134.01 145.06 134.75 144.91 135.80 Z M 144.80 136.69 L 144.60 137.65 C 144.40 138.70 145.07 139.71 146.11 139.92 C 147.16 140.13 148.17 139.45 148.38 138.41 L 148.57 137.44 C 148.78 136.40 148.10 135.39 147.06 135.18 C 146.02 134.97 145.00 135.65 144.80 136.69 Z M 144.64 137.51 L 144.37 138.45 C 144.08 139.47 144.67 140.54 145.70 140.83 C 146.72 141.12 147.78 140.52 148.07 139.50 L 148.34 138.56 C 148.63 137.53 148.04 136.47 147.01 136.18 C 145.99 135.89 144.93 136.48 144.64 137.51 Z M 144.43 138.27 L 144.07 139.20 C 143.68 140.19 144.17 141.30 145.16 141.69 C 146.15 142.08 147.26 141.59 147.65 140.60 L 148.01 139.68 C 148.40 138.69 147.91 137.57 146.92 137.18 C 145.94 136.80 144.82 137.28 144.43 138.27 Z M 144.16 139.00 L 143.68 139.90 C 143.19 140.84 143.54 142.00 144.48 142.50 C 145.42 143.00 146.59 142.64 147.09 141.70 L 147.56 140.80 C 148.06 139.86 147.70 138.70 146.76 138.20 C 145.82 137.70 144.66 138.06 144.16 139.00 Z M 143.81 139.69 L 143.19 140.57 C 142.58 141.44 142.79 142.64 143.66 143.26 C 144.53 143.87 145.73 143.66 146.34 142.79 L 146.96 141.90 C 147.57 141.03 147.36 139.83 146.49 139.22 C 145.62 138.61 144.42 138.82 143.81 139.69 Z M 143.34 140.38 L 142.55 141.25 C 141.84 142.04 141.89 143.26 142.68 143.97 C 143.47 144.69 144.69 144.63 145.40 143.84 L 146.19 142.97 C 146.91 142.19 146.85 140.97 146.06 140.25 C 145.27 139.54 144.05 139.60 143.34 140.38 Z M 142.71 141.09 L 141.85 141.84 C 141.05 142.54 140.96 143.76 141.66 144.56 C 142.36 145.37 143.58 145.45 144.38 144.75 L 145.24 144.00 C 146.05 143.30 146.13 142.08 145.43 141.28 C 144.73 140.48 143.51 140.39 142.71 141.09 Z M 142.05 141.69 L 141.18 142.26 C 140.30 142.85 140.05 144.05 140.64 144.94 C 141.23 145.83 142.43 146.07 143.32 145.48 L 144.18 144.90 C 145.07 144.32 145.31 143.12 144.72 142.23 C 144.13 141.34 142.94 141.10 142.05 141.69 Z M 141.50 142.10 L 140.70 142.43 C 139.72 142.85 139.27 143.98 139.68 144.96 C 140.10 145.95 141.23 146.40 142.21 145.99 L 143.01 145.65 C 143.99 145.23 144.45 144.10 144.03 143.12 C 143.61 142.13 142.48 141.68 141.50 142.10 Z M 141.36 142.28 L 140.69 142.32 C 139.62 142.37 138.80 143.28 138.86 144.35 C 138.91 145.41 139.82 146.23 140.89 146.17 L 141.56 146.14 C 142.63 146.08 143.44 145.17 143.39 144.11 C 143.33 143.04 142.42 142.22 141.36 142.28 Z M 142.04 142.77 L 141.48 142.30 C 140.67 141.61 139.45 141.71 138.76 142.52 C 138.07 143.34 138.17 144.56 138.98 145.25 L 139.54 145.72 C 140.35 146.41 141.57 146.31 142.26 145.49 C 142.95 144.68 142.85 143.46 142.04 142.77 Z M 142.12 143.37 L 141.93 142.48 C 141.71 141.43 140.68 140.77 139.64 140.99 C 138.59 141.22 137.93 142.24 138.15 143.29 L 138.34 144.18 C 138.57 145.22 139.59 145.89 140.64 145.66 C 141.68 145.44 142.35 144.41 142.12 143.37 Z M 141.96 143.14 L 142.11 142.02 C 142.25 140.96 141.51 139.99 140.45 139.85 C 139.39 139.71 138.42 140.45 138.28 141.51 L 138.13 142.62 C 137.99 143.68 138.73 144.65 139.78 144.80 C 140.84 144.94 141.81 144.20 141.96 143.14 Z M 141.98 142.49 L 142.43 141.39 C 142.83 140.40 142.36 139.27 141.37 138.87 C 140.38 138.47 139.25 138.95 138.85 139.94 L 138.40 141.04 C 138.00 142.02 138.48 143.15 139.47 143.55 C 140.45 143.95 141.58 143.48 141.98 142.49 Z M 142.22 141.77 L 142.85 140.87 C 143.47 140.00 143.26 138.80 142.38 138.18 C 141.51 137.57 140.30 137.78 139.69 138.65 L 139.06 139.55 C 138.45 140.43 138.66 141.63 139.53 142.24 C 140.40 142.86 141.61 142.65 142.22 141.77 Z M 142.58 141.18 L 143.35 140.48 C 144.14 139.75 144.19 138.53 143.46 137.75 C 142.74 136.96 141.52 136.91 140.74 137.63 L 139.97 138.34 C 139.18 139.06 139.13 140.28 139.85 141.07 C 140.57 141.86 141.79 141.91 142.58 141.18 Z M 142.94 140.77 L 143.77 140.33 C 144.72 139.83 145.08 138.67 144.59 137.72 C 144.09 136.78 142.93 136.41 141.98 136.91 L 141.15 137.34 C 140.20 137.84 139.84 139.00 140.33 139.95 C 140.83 140.89 141.99 141.26 142.94 140.77 Z M 143.07 140.54 L 143.90 140.45 C 144.96 140.35 145.73 139.40 145.62 138.34 C 145.52 137.28 144.57 136.51 143.51 136.61 L 142.68 136.70 C 141.62 136.80 140.85 137.75 140.96 138.81 C 141.06 139.87 142.01 140.65 143.07 140.54 Z M 142.92 140.30 L 143.70 140.64 C 144.68 141.08 145.82 140.64 146.25 139.66 C 146.68 138.69 146.24 137.55 145.27 137.12 L 144.49 136.77 C 143.51 136.34 142.37 136.78 141.94 137.75 C 141.51 138.72 141.95 139.86 142.92 140.30 Z M 143.05 140.16 L 143.68 140.87 C 144.39 141.67 145.61 141.74 146.40 141.03 C 147.20 140.32 147.27 139.10 146.56 138.31 L 145.92 137.60 C 145.21 136.80 144.00 136.74 143.20 137.44 C 142.41 138.15 142.34 139.37 143.05 140.16 Z M 143.36 140.38 L 143.80 141.34 C 144.23 142.31 145.37 142.74 146.34 142.30 C 147.31 141.87 147.74 140.73 147.30 139.76 L 146.87 138.80 C 146.44 137.83 145.30 137.40 144.33 137.84 C 143.36 138.27 142.93 139.41 143.36 140.38 Z M 143.65 140.86 L 143.83 141.94 C 144.00 142.99 144.99 143.70 146.04 143.53 C 147.08 143.36 147.80 142.37 147.63 141.33 L 147.45 140.24 C 147.28 139.19 146.29 138.48 145.24 138.65 C 144.19 138.82 143.48 139.81 143.65 140.86 Z M 143.82 141.43 L 143.69 142.59 C 143.58 143.64 144.34 144.59 145.39 144.71 C 146.45 144.82 147.40 144.06 147.51 143.00 L 147.64 141.84 C 147.75 140.79 146.99 139.84 145.94 139.72 C 144.88 139.61 143.93 140.37 143.82 141.43 Z M 143.81 142.10 L 143.42 143.11 C 143.03 144.09 143.52 145.21 144.51 145.60 C 145.49 145.98 146.61 145.49 147.00 144.51 L 147.39 143.50 C 147.78 142.51 147.29 141.39 146.30 141.01 C 145.31 140.62 144.20 141.11 143.81 142.10 Z M 143.74 142.56 L 143.16 143.25 C 142.47 144.06 142.57 145.27 143.38 145.96 C 144.19 146.65 145.40 146.55 146.09 145.74 L 146.67 145.05 C 147.36 144.24 147.26 143.03 146.45 142.34 C 145.64 141.65 144.43 141.75 143.74 142.56 Z M 144.07 142.65 L 143.39 142.86 C 142.38 143.16 141.80 144.24 142.11 145.25 C 142.41 146.27 143.49 146.85 144.50 146.54 L 145.18 146.34 C 146.19 146.03 146.77 144.96 146.46 143.94 C 146.16 142.92 145.08 142.35 144.07 142.65 Z M 144.71 142.94 L 144.13 142.68 C 143.16 142.26 142.03 142.70 141.60 143.68 C 141.18 144.65 141.62 145.78 142.60 146.21 L 143.18 146.46 C 144.15 146.88 145.29 146.44 145.71 145.47 C 146.13 144.49 145.69 143.36 144.71 142.94 Z M 144.78 143.14 L 144.22 142.53 C 143.50 141.75 142.28 141.70 141.50 142.42 C 140.72 143.14 140.67 144.36 141.39 145.14 L 141.95 145.75 C 142.67 146.53 143.89 146.58 144.67 145.86 C 145.45 145.14 145.50 143.92 144.78 143.14 Z M 144.50 142.93 L 144.00 142.01 C 143.50 141.07 142.34 140.72 141.40 141.22 C 140.47 141.73 140.11 142.89 140.62 143.83 L 141.11 144.75 C 141.61 145.68 142.78 146.03 143.71 145.53 C 144.65 145.03 145.00 143.86 144.50 142.93 Z M 144.14 142.33 L 143.76 141.14 C 143.43 140.13 142.35 139.57 141.34 139.90 C 140.33 140.23 139.77 141.31 140.10 142.32 L 140.48 143.51 C 140.81 144.52 141.89 145.07 142.90 144.75 C 143.91 144.42 144.47 143.34 144.14 142.33 Z M 143.82 141.40 L 143.61 140.18 C 143.43 139.13 142.44 138.43 141.39 138.61 C 140.34 138.79 139.64 139.78 139.82 140.83 L 140.03 142.05 C 140.21 143.10 141.21 143.80 142.25 143.62 C 143.30 143.44 144.00 142.45 143.82 141.40 Z M 143.63 140.37 L 143.57 139.38 C 143.49 138.32 142.57 137.52 141.51 137.60 C 140.46 137.67 139.66 138.59 139.73 139.65 L 139.80 140.64 C 139.87 141.70 140.79 142.50 141.85 142.42 C 142.91 142.35 143.71 141.43 143.63 140.37 Z M 143.57 139.52 L 143.58 138.49 C 143.58 137.43 142.72 136.56 141.66 136.56 C 140.60 136.55 139.74 137.41 139.73 138.47 L 139.72 139.50 C 139.72 140.57 140.58 141.43 141.64 141.44 C 142.70 141.44 143.56 140.58 143.57 139.52 Z M 143.57 138.62 L 143.65 137.57 C 143.73 136.51 142.93 135.59 141.87 135.51 C 140.81 135.43 139.89 136.23 139.81 137.29 L 139.73 138.34 C 139.66 139.39 140.45 140.32 141.51 140.40 C 142.57 140.47 143.49 139.68 143.57 138.62 Z M 143.63 137.70 L 143.78 136.66 C 143.93 135.61 143.21 134.64 142.15 134.49 C 141.10 134.33 140.13 135.06 139.98 136.12 L 139.83 137.15 C 139.68 138.20 140.40 139.18 141.46 139.33 C 142.51 139.48 143.48 138.75 143.63 137.70 Z M 143.76 136.81 L 143.98 135.81 C 144.21 134.77 143.55 133.75 142.52 133.52 C 141.48 133.29 140.45 133.94 140.22 134.98 L 140.00 135.97 C 139.77 137.01 140.43 138.04 141.46 138.27 C 142.50 138.50 143.53 137.84 143.76 136.81 Z M 143.94 135.97 L 144.23 135.04 C 144.54 134.03 143.98 132.95 142.97 132.63 C 141.95 132.32 140.87 132.88 140.56 133.89 L 140.27 134.82 C 139.95 135.83 140.51 136.91 141.53 137.23 C 142.54 137.55 143.62 136.98 143.94 135.97 Z M 144.15 135.24 L 144.51 134.41 C 144.94 133.44 144.49 132.30 143.52 131.88 C 142.54 131.46 141.41 131.90 140.99 132.88 L 140.63 133.70 C 140.20 134.68 140.65 135.81 141.62 136.23 C 142.60 136.66 143.73 136.21 144.15 135.24 Z M 144.35 134.70 L 145.03 133.68 C 145.62 132.79 145.37 131.60 144.49 131.01 C 143.60 130.43 142.41 130.67 141.82 131.56 L 141.14 132.58 C 140.56 133.47 140.80 134.66 141.69 135.25 C 142.58 135.83 143.77 135.59 144.35 134.70 Z M 144.71 134.06 L 145.52 133.33 C 146.31 132.62 146.38 131.41 145.67 130.61 C 144.97 129.82 143.75 129.75 142.96 130.46 L 142.14 131.18 C 141.35 131.89 141.28 133.11 141.99 133.90 C 142.70 134.69 143.91 134.76 144.71 134.06 Z M 144.99 133.67 L 145.85 133.30 C 146.82 132.89 147.28 131.76 146.86 130.78 C 146.45 129.80 145.32 129.34 144.34 129.76 L 143.48 130.12 C 142.50 130.54 142.05 131.67 142.46 132.65 C 142.88 133.63 144.01 134.08 144.99 133.67 Z M 145.07 133.46 L 145.90 133.47 C 146.97 133.48 147.84 132.63 147.85 131.56 C 147.86 130.50 147.01 129.63 145.95 129.61 L 145.11 129.60 C 144.05 129.59 143.18 130.45 143.17 131.51 C 143.15 132.57 144.01 133.45 145.07 133.46 Z M 145.04 133.25 L 145.75 133.62 C 146.69 134.11 147.86 133.75 148.35 132.80 C 148.84 131.86 148.47 130.69 147.53 130.20 L 146.81 129.83 C 145.87 129.34 144.70 129.71 144.21 130.65 C 143.72 131.60 144.09 132.76 145.04 133.25 Z M 145.18 133.18 L 145.70 133.77 C 146.40 134.58 147.62 134.66 148.42 133.96 C 149.22 133.27 149.31 132.05 148.61 131.24 L 148.09 130.65 C 147.40 129.84 146.18 129.76 145.37 130.45 C 144.57 131.15 144.48 132.37 145.18 133.18 Z M 145.45 133.42 L 145.88 134.22 C 146.39 135.16 147.55 135.52 148.49 135.01 C 149.43 134.51 149.79 133.34 149.29 132.40 L 148.86 131.60 C 148.36 130.66 147.19 130.30 146.25 130.81 C 145.31 131.31 144.95 132.48 145.45 133.42 Z M 145.77 133.97 L 146.12 134.93 C 146.48 135.93 147.59 136.45 148.59 136.09 C 149.59 135.73 150.11 134.62 149.75 133.62 L 149.40 132.66 C 149.04 131.65 147.93 131.14 146.93 131.50 C 145.93 131.86 145.41 132.97 145.77 133.97 Z M 146.07 134.76 L 146.34 135.82 C 146.61 136.86 147.66 137.48 148.69 137.21 C 149.72 136.95 150.34 135.89 150.08 134.86 L 149.80 133.79 C 149.54 132.76 148.48 132.14 147.45 132.41 C 146.42 132.67 145.80 133.72 146.07 134.76 Z M 146.31 135.70 L 146.52 136.82 C 146.72 137.87 147.72 138.56 148.77 138.37 C 149.82 138.17 150.51 137.16 150.31 136.12 L 150.11 134.99 C 149.91 133.94 148.90 133.25 147.86 133.45 C 146.81 133.64 146.12 134.65 146.31 135.70 Z M 146.51 136.73 L 146.65 137.81 C 146.79 138.87 147.76 139.61 148.82 139.47 C 149.88 139.33 150.62 138.36 150.48 137.30 L 150.33 136.21 C 150.19 135.16 149.22 134.42 148.16 134.56 C 147.11 134.70 146.36 135.67 146.51 136.73 Z M 146.64 137.72 L 146.73 138.77 C 146.82 139.83 147.76 140.62 148.82 140.53 C 149.88 140.44 150.67 139.50 150.58 138.44 L 150.49 137.39 C 150.40 136.33 149.46 135.54 148.40 135.63 C 147.34 135.73 146.55 136.66 146.64 137.72 Z M 146.72 138.67 L 146.76 139.69 C 146.79 140.76 147.69 141.59 148.75 141.56 C 149.82 141.52 150.66 140.63 150.62 139.56 L 150.59 138.54 C 150.55 137.47 149.66 136.63 148.59 136.67 C 147.52 136.71 146.69 137.60 146.72 138.67 Z M 146.75 139.58 L 146.73 140.58 C 146.70 141.65 147.55 142.53 148.62 142.56 C 149.69 142.59 150.57 141.74 150.60 140.67 L 150.62 139.67 C 150.65 138.60 149.80 137.72 148.74 137.69 C 147.67 137.67 146.78 138.51 146.75 139.58 Z M 146.73 140.45 L 146.65 141.42 C 146.55 142.48 147.34 143.43 148.40 143.52 C 149.47 143.62 150.41 142.83 150.51 141.77 L 150.59 140.80 C 150.69 139.73 149.90 138.79 148.84 138.70 C 147.77 138.60 146.83 139.38 146.73 140.45 Z M 146.66 141.28 L 146.51 142.21 C 146.33 143.27 147.05 144.26 148.10 144.44 C 149.16 144.61 150.16 143.90 150.34 142.84 L 150.49 141.91 C 150.66 140.85 149.95 139.85 148.89 139.68 C 147.84 139.50 146.84 140.22 146.66 141.28 Z M 146.55 142.03 L 146.24 143.17 C 145.97 144.20 146.59 145.27 147.62 145.54 C 148.66 145.82 149.72 145.20 149.99 144.16 L 150.30 143.02 C 150.57 141.99 149.96 140.92 148.92 140.65 C 147.88 140.37 146.82 140.99 146.55 142.03 Z M 146.32 142.94 L 145.85 144.10 C 145.45 145.10 145.93 146.23 146.93 146.63 C 147.92 147.03 149.05 146.54 149.45 145.55 L 149.92 144.39 C 150.32 143.40 149.84 142.26 148.84 141.86 C 147.85 141.46 146.72 141.95 146.32 142.94 Z M 146.00 143.81 L 145.47 144.67 C 144.91 145.58 145.20 146.78 146.11 147.34 C 147.02 147.90 148.22 147.61 148.78 146.70 L 149.31 145.84 C 149.87 144.93 149.58 143.73 148.67 143.17 C 147.75 142.61 146.56 142.90 146.00 143.81 Z M 145.89 144.18 L 145.37 144.61 C 144.54 145.30 144.42 146.52 145.10 147.35 C 145.78 148.18 147.00 148.30 147.83 147.62 L 148.36 147.19 C 149.19 146.50 149.31 145.28 148.63 144.45 C 147.95 143.62 146.72 143.50 145.89 144.18 Z M 147.46 144.37 L 146.84 144.07 C 145.87 143.59 144.71 143.99 144.24 144.95 C 143.76 145.91 144.16 147.08 145.12 147.55 L 145.74 147.86 C 146.70 148.33 147.87 147.94 148.34 146.97 C 148.82 146.01 148.42 144.85 147.46 144.37 Z M 147.76 145.03 L 147.27 143.93 C 146.84 142.94 145.70 142.49 144.72 142.92 C 143.74 143.35 143.29 144.50 143.72 145.48 L 144.20 146.58 C 144.63 147.57 145.77 148.02 146.75 147.59 C 147.74 147.16 148.18 146.01 147.76 145.03 Z M 147.31 144.03 L 147.18 143.66 C 146.80 142.65 145.69 142.14 144.68 142.51 C 143.68 142.88 143.17 144.00 143.54 145.00 L 143.68 145.38 C 144.05 146.38 145.16 146.89 146.17 146.52 C 147.17 146.15 147.68 145.03 147.31 144.03 Z M 143.43 144.54 L 143.49 145.07 C 143.61 146.13 144.56 146.90 145.62 146.78 C 146.68 146.67 147.45 145.71 147.34 144.65 L 147.28 144.12 C 147.17 143.06 146.21 142.29 145.15 142.41 C 144.09 142.52 143.32 143.48 143.43 144.54 Z M 143.50 145.09 L 143.63 146.12 C 143.76 147.18 144.72 147.93 145.78 147.80 C 146.84 147.67 147.59 146.71 147.46 145.65 L 147.33 144.62 C 147.20 143.56 146.24 142.81 145.18 142.94 C 144.12 143.07 143.37 144.04 143.50 145.09 Z M 143.63 146.10 L 143.78 147.45 C 143.89 148.51 144.84 149.27 145.90 149.16 C 146.95 149.04 147.72 148.09 147.60 147.03 L 147.45 145.68 C 147.34 144.62 146.39 143.86 145.33 143.97 C 144.28 144.09 143.51 145.04 143.63 146.10 Z M 143.78 147.40 L 143.88 148.67 C 143.96 149.73 144.89 150.52 145.95 150.43 C 147.00 150.34 147.79 149.42 147.71 148.36 L 147.60 147.09 C 147.52 146.03 146.59 145.24 145.53 145.33 C 144.48 145.42 143.69 146.34 143.78 147.40 Z M 143.88 148.62 L 143.93 149.59 C 143.98 150.65 144.89 151.46 145.94 151.40 C 147.00 151.35 147.81 150.45 147.76 149.39 L 147.71 148.42 C 147.65 147.36 146.75 146.55 145.69 146.60 C 144.63 146.66 143.82 147.56 143.88 148.62 Z M 143.93 149.54 L 143.96 150.53 C 143.99 151.59 144.87 152.42 145.93 152.39 C 146.99 152.36 147.82 151.48 147.79 150.42 L 147.76 149.43 C 147.73 148.37 146.85 147.54 145.79 147.57 C 144.73 147.60 143.90 148.49 143.93 149.54 Z M 143.95 150.49 L 143.96 151.49 C 143.97 152.55 144.83 153.40 145.89 153.39 C 146.95 153.39 147.80 152.52 147.80 151.46 L 147.79 150.46 C 147.78 149.40 146.92 148.55 145.86 148.56 C 144.80 148.57 143.95 149.43 143.95 150.49 Z M 143.96 151.45 L 143.95 152.46 C 143.94 153.52 144.78 154.39 145.84 154.41 C 146.90 154.42 147.77 153.57 147.78 152.51 L 147.80 151.50 C 147.81 150.44 146.96 149.57 145.90 149.56 C 144.85 149.55 143.98 150.39 143.96 151.45 Z M 143.95 152.43 L 143.92 153.45 C 143.88 154.51 144.72 155.39 145.77 155.43 C 146.83 155.46 147.72 154.63 147.75 153.57 L 147.78 152.55 C 147.82 151.49 146.99 150.61 145.93 150.57 C 144.87 150.54 143.98 151.37 143.95 152.43 Z M 143.92 153.41 L 143.87 154.43 C 143.82 155.49 144.63 156.39 145.69 156.44 C 146.75 156.49 147.65 155.68 147.70 154.62 L 147.75 153.60 C 147.80 152.55 146.99 151.65 145.93 151.60 C 144.87 151.54 143.97 152.36 143.92 153.41 Z M 143.88 154.40 L 143.81 155.40 C 143.74 156.45 144.53 157.36 145.59 157.44 C 146.64 157.51 147.55 156.71 147.62 155.66 L 147.69 154.66 C 147.76 153.61 146.97 152.69 145.91 152.62 C 144.86 152.55 143.95 153.35 143.88 154.40 Z M 143.82 155.35 L 143.73 156.35 C 143.63 157.40 144.40 158.33 145.45 158.42 C 146.49 158.52 147.42 157.75 147.52 156.71 L 147.61 155.71 C 147.71 154.66 146.94 153.73 145.89 153.63 C 144.85 153.54 143.92 154.31 143.82 155.35 Z M 143.74 156.30 L 143.62 157.29 C 143.49 158.33 144.23 159.28 145.26 159.41 C 146.30 159.54 147.25 158.80 147.38 157.76 L 147.50 156.76 C 147.63 155.73 146.90 154.78 145.86 154.65 C 144.82 154.52 143.87 155.26 143.74 156.30 Z M 143.64 157.22 L 143.47 158.21 C 143.31 159.24 144.00 160.21 145.03 160.38 C 146.06 160.54 147.03 159.85 147.20 158.82 L 147.36 157.83 C 147.53 156.80 146.83 155.83 145.80 155.66 C 144.77 155.50 143.80 156.19 143.64 157.22 Z M 143.50 158.13 L 143.29 159.10 C 143.08 160.12 143.73 161.11 144.75 161.33 C 145.76 161.54 146.76 160.89 146.97 159.87 L 147.18 158.90 C 147.39 157.88 146.74 156.89 145.72 156.67 C 144.71 156.46 143.71 157.11 143.50 158.13 Z M 143.32 159.01 L 143.07 159.96 C 142.80 160.96 143.40 161.99 144.40 162.25 C 145.40 162.52 146.42 161.92 146.69 160.92 L 146.94 159.97 C 147.21 158.97 146.61 157.94 145.61 157.68 C 144.61 157.41 143.59 158.01 143.32 159.01 Z M 143.12 159.87 L 142.81 160.81 C 142.49 161.79 143.02 162.83 143.99 163.15 C 144.96 163.47 146.01 162.94 146.32 161.97 L 146.64 161.02 C 146.96 160.05 146.43 159.01 145.46 158.69 C 144.49 158.37 143.44 158.89 143.12 159.87 Z M 142.87 160.74 L 142.51 161.67 C 142.15 162.60 142.61 163.66 143.55 164.02 C 144.49 164.38 145.54 163.92 145.90 162.98 L 146.26 162.05 C 146.62 161.11 146.16 160.06 145.22 159.70 C 144.29 159.33 143.23 159.80 142.87 160.74 Z M 142.57 161.61 L 142.17 162.52 C 141.78 163.43 142.19 164.48 143.09 164.87 C 144.00 165.27 145.05 164.86 145.44 163.95 L 145.84 163.04 C 146.24 162.13 145.82 161.08 144.92 160.69 C 144.02 160.29 142.96 160.71 142.57 161.61 Z M 142.22 162.49 L 141.80 163.39 C 141.38 164.26 141.75 165.31 142.63 165.72 C 143.50 166.14 144.55 165.77 144.96 164.89 L 145.39 163.99 C 145.80 163.12 145.43 162.07 144.56 161.65 C 143.68 161.24 142.64 161.61 142.22 162.49 Z M 141.84 163.37 L 141.39 164.26 C 140.97 165.11 141.31 166.15 142.16 166.57 C 143.01 167.00 144.04 166.65 144.47 165.81 L 144.91 164.91 C 145.34 164.06 145.00 163.03 144.15 162.60 C 143.30 162.18 142.27 162.52 141.84 163.37 Z M 141.43 164.26 L 140.97 165.15 C 140.54 165.98 140.87 167.00 141.70 167.42 C 142.52 167.85 143.54 167.53 143.97 166.70 L 144.43 165.81 C 144.85 164.98 144.53 163.96 143.70 163.54 C 142.88 163.11 141.86 163.43 141.43 164.26 Z M 140.99 165.16 L 140.91 165.32 C 140.48 166.14 140.80 167.14 141.61 167.57 C 142.43 167.99 143.44 167.68 143.86 166.86 L 143.95 166.69 C 144.37 165.88 144.05 164.87 143.24 164.45 C 142.42 164.02 141.42 164.34 140.99 165.16 Z"
      fill="black"
      fill-rule="nonzero" /></svg>