<svg xmlns="http://www.w3.org/2000/svg" width="300" height="300" viewBox="0 0 300 300">
<path d="M 151.69 140.11 L 151.00 140.87 C 150.36 141.58 150.42 142.67 151.13 143.31 C 151.84 143.95 152.93 143.89 153.57 143.18 L 154.25 142.42 C 154.89 141.71 154.84 140.62 154.13 139.98 C 153.42 139.34 152.33 139.40 151.69 140.11 Z M 150.99 140.88 L 150.32 141.64 C 149.69 142.36 149.76 143.45 150.48 144.08 C 151.19 144.71 152.29 144.64 152.92 143.92 L 153.58 143.17 C 154.21 142.45 154.14 141.36 153.43 140.73 C 152.71 140.10 151.62 140.17 150.99 140.88 Z M 150.29 141.67 L 149.66 142.43 C 149.05 143.17 149.14 144.25 149.87 144.87 C 150.61 145.48 151.70 145.38 152.31 144.65 L 152.94 143.89 C 153.56 143.16 153.46 142.07 152.73 141.46 C 152.00 140.85 150.91 140.94 150.29 141.67 Z M 149.61 142.49 L 148.96 143.33 C 148.38 144.09 148.52 145.17 149.28 145.76 C 150.03 146.34 151.12 146.20 151.70 145.44 L 152.35 144.60 C 152.94 143.84 152.80 142.76 152.04 142.17 C 151.28 141.59 150.20 141.73 149.61 142.49 Z M 148.96 143.32 L 148.26 144.23 C 147.67 144.99 147.81 146.08 148.57 146.67 C 149.33 147.26 150.43 147.11 151.01 146.35 L 151.71 145.45 C 152.30 144.69 152.16 143.59 151.40 143.01 C 150.63 142.42 149.54 142.56 148.96 143.32 Z M 148.50 143.96 L 147.84 144.52 C 147.11 145.15 147.02 146.25 147.65 146.99 C 148.28 147.72 149.38 147.81 150.12 147.18 L 150.77 146.63 C 151.51 146.00 151.60 144.89 150.97 144.16 C 150.34 143.42 149.23 143.33 148.50 143.96 Z M 149.30 144.12 L 148.47 143.97 C 147.51 143.79 146.60 144.43 146.42 145.39 C 146.25 146.35 146.88 147.26 147.84 147.44 L 148.67 147.59 C 149.62 147.76 150.54 147.12 150.72 146.16 C 150.89 145.21 150.25 144.29 149.30 144.12 Z M 149.72 144.86 L 149.27 144.03 C 148.80 143.17 147.73 142.85 146.87 143.31 C 146.01 143.78 145.69 144.85 146.15 145.71 L 146.60 146.54 C 147.06 147.40 148.14 147.72 149.00 147.26 C 149.86 146.80 150.18 145.72 149.72 144.86 Z M 148.53 146.44 L 149.08 146.15 C 149.94 145.70 150.28 144.63 149.82 143.76 C 149.37 142.89 148.30 142.56 147.43 143.01 L 146.88 143.30 C 146.02 143.75 145.68 144.83 146.14 145.69 C 146.59 146.56 147.67 146.90 148.53 146.44 Z M 147.63 146.25 L 148.59 146.61 C 149.51 146.96 150.53 146.49 150.88 145.57 C 151.22 144.66 150.76 143.63 149.84 143.29 L 148.88 142.92 C 147.96 142.58 146.94 143.04 146.59 143.96 C 146.24 144.87 146.71 145.90 147.63 146.25 Z M 147.84 146.07 L 148.58 146.98 C 149.20 147.74 150.32 147.86 151.08 147.24 C 151.84 146.62 151.96 145.50 151.34 144.74 L 150.60 143.82 C 149.98 143.06 148.86 142.95 148.09 143.57 C 147.33 144.19 147.22 145.31 147.84 146.07 Z M 148.23 146.32 L 148.52 147.39 C 148.77 148.35 149.75 148.91 150.71 148.66 C 151.66 148.40 152.23 147.42 151.97 146.47 L 151.68 145.40 C 151.43 144.44 150.45 143.88 149.50 144.13 C 148.54 144.39 147.98 145.37 148.23 146.32 Z M 148.45 146.91 L 148.44 147.93 C 148.42 148.92 149.21 149.74 150.20 149.75 C 151.20 149.77 152.01 148.98 152.03 147.99 L 152.04 146.96 C 152.06 145.97 151.26 145.15 150.27 145.14 C 149.28 145.12 148.47 145.91 148.45 146.91 Z M 148.61 147.16 L 148.28 147.83 C 147.84 148.72 148.20 149.81 149.09 150.25 C 149.99 150.69 151.07 150.33 151.51 149.44 L 151.85 148.76 C 152.29 147.87 151.93 146.79 151.03 146.34 C 150.14 145.90 149.06 146.26 148.61 147.16 Z M 150.14 146.84 L 149.36 146.73 C 148.37 146.59 147.45 147.29 147.32 148.28 C 147.18 149.27 147.88 150.19 148.87 150.32 L 149.65 150.43 C 150.64 150.57 151.56 149.87 151.69 148.88 C 151.83 147.89 151.13 146.97 150.14 146.84 Z M 150.49 147.33 L 149.74 146.47 C 149.08 145.71 147.93 145.63 147.17 146.29 C 146.41 146.95 146.33 148.10 146.99 148.86 L 147.74 149.72 C 148.40 150.48 149.55 150.56 150.31 149.90 C 151.07 149.24 151.15 148.09 150.49 147.33 Z M 150.13 147.17 L 149.81 146.01 C 149.53 145.03 148.52 144.46 147.55 144.73 C 146.57 145.01 146.00 146.02 146.27 146.99 L 146.60 148.16 C 146.87 149.14 147.89 149.71 148.86 149.43 C 149.84 149.16 150.40 148.15 150.13 147.17 Z M 149.83 146.96 L 150.02 146.23 C 150.27 145.24 149.68 144.23 148.69 143.97 C 147.71 143.72 146.70 144.31 146.44 145.30 L 146.25 146.04 C 146.00 147.02 146.59 148.03 147.58 148.29 C 148.56 148.54 149.57 147.95 149.83 146.96 Z M 147.44 147.44 L 148.03 147.72 C 148.96 148.15 150.06 147.76 150.50 146.83 C 150.94 145.90 150.54 144.80 149.61 144.36 L 149.02 144.08 C 148.09 143.65 146.99 144.05 146.55 144.97 C 146.12 145.90 146.51 147.00 147.44 147.44 Z M 147.17 146.89 L 147.71 147.92 C 148.18 148.83 149.30 149.19 150.21 148.71 C 151.12 148.24 151.47 147.12 151.00 146.21 L 150.47 145.19 C 150.00 144.28 148.88 143.92 147.97 144.39 C 147.06 144.86 146.70 145.98 147.17 146.89 Z M 147.50 147.05 L 147.49 148.21 C 147.48 149.24 148.31 150.07 149.33 150.08 C 150.36 150.09 151.19 149.26 151.20 148.24 L 151.21 147.08 C 151.22 146.06 150.39 145.22 149.37 145.21 C 148.34 145.20 147.51 146.03 147.50 147.05 Z M 147.77 147.24 L 147.28 148.02 C 146.74 148.88 147.00 150.03 147.87 150.58 C 148.73 151.12 149.88 150.86 150.43 149.99 L 150.92 149.21 C 151.46 148.34 151.20 147.20 150.33 146.65 C 149.47 146.11 148.32 146.37 147.77 147.24 Z M 148.94 147.15 L 148.27 147.12 C 147.25 147.07 146.38 147.87 146.33 148.89 C 146.29 149.92 147.08 150.78 148.11 150.83 L 148.77 150.86 C 149.80 150.91 150.66 150.11 150.71 149.09 C 150.76 148.06 149.96 147.19 148.94 147.15 Z M 149.56 147.72 L 148.94 147.04 C 148.25 146.28 147.07 146.23 146.31 146.92 C 145.56 147.62 145.50 148.79 146.20 149.55 L 146.82 150.23 C 147.51 150.99 148.69 151.04 149.45 150.35 C 150.20 149.65 150.25 148.48 149.56 147.72 Z M 149.30 147.62 L 148.86 146.49 C 148.49 145.54 147.42 145.06 146.46 145.43 C 145.50 145.80 145.03 146.88 145.40 147.84 L 145.83 148.97 C 146.20 149.92 147.28 150.40 148.24 150.03 C 149.20 149.66 149.67 148.58 149.30 147.62 Z M 148.98 146.98 L 148.88 145.95 C 148.78 144.93 147.87 144.18 146.85 144.28 C 145.83 144.38 145.08 145.29 145.18 146.31 L 145.28 147.35 C 145.38 148.37 146.29 149.12 147.31 149.01 C 148.33 148.91 149.08 148.01 148.98 146.98 Z M 148.88 146.31 L 148.98 145.28 C 149.08 144.25 148.34 143.34 147.31 143.24 C 146.29 143.14 145.38 143.89 145.28 144.91 L 145.18 145.95 C 145.08 146.97 145.83 147.88 146.85 147.98 C 147.87 148.08 148.78 147.33 148.88 146.31 Z M 148.92 145.62 L 149.20 144.65 C 149.49 143.67 148.92 142.63 147.94 142.34 C 146.95 142.06 145.92 142.62 145.63 143.61 L 145.35 144.57 C 145.06 145.56 145.62 146.59 146.61 146.88 C 147.59 147.17 148.63 146.60 148.92 145.62 Z M 149.02 145.07 L 149.51 144.23 C 150.03 143.34 149.74 142.20 148.85 141.68 C 147.97 141.16 146.83 141.46 146.31 142.34 L 145.81 143.19 C 145.29 144.07 145.59 145.21 146.47 145.73 C 147.36 146.25 148.50 145.96 149.02 145.07 Z M 148.97 144.81 L 149.85 144.20 C 150.69 143.61 150.90 142.45 150.31 141.61 C 149.73 140.77 148.57 140.56 147.73 141.15 L 146.85 141.76 C 146.00 142.35 145.80 143.51 146.38 144.35 C 146.97 145.19 148.13 145.40 148.97 144.81 Z M 148.45 144.50 L 149.27 144.65 C 150.28 144.84 151.25 144.17 151.43 143.16 C 151.62 142.15 150.95 141.18 149.94 140.99 L 149.12 140.84 C 148.11 140.66 147.14 141.33 146.96 142.34 C 146.77 143.35 147.44 144.32 148.45 144.50 Z M 147.98 143.73 L 148.35 144.38 C 148.85 145.28 149.98 145.60 150.88 145.10 C 151.77 144.60 152.09 143.47 151.59 142.57 L 151.23 141.92 C 150.73 141.02 149.60 140.70 148.70 141.20 C 147.80 141.70 147.48 142.83 147.98 143.73 Z M 148.14 143.77 L 148.27 144.62 C 148.43 145.63 149.38 146.32 150.39 146.16 C 151.40 146.00 152.09 145.05 151.93 144.04 L 151.80 143.19 C 151.64 142.18 150.69 141.49 149.68 141.65 C 148.67 141.81 147.98 142.75 148.14 143.77 Z M 148.26 144.37 L 148.29 145.42 C 148.31 146.44 149.16 147.25 150.18 147.22 C 151.20 147.20 152.00 146.35 151.98 145.33 L 151.95 144.28 C 151.92 143.26 151.08 142.45 150.06 142.48 C 149.04 142.51 148.23 143.36 148.26 144.37 Z M 148.29 145.32 L 148.25 146.49 C 148.22 147.51 149.02 148.36 150.03 148.39 C 151.05 148.42 151.90 147.62 151.93 146.61 L 151.97 145.44 C 152.00 144.42 151.21 143.57 150.19 143.54 C 149.17 143.50 148.32 144.30 148.29 145.32 Z M 148.26 146.46 L 148.23 147.13 C 148.18 148.14 148.96 149.00 149.97 149.05 C 150.98 149.10 151.84 148.32 151.89 147.31 L 151.93 146.64 C 151.98 145.63 151.20 144.77 150.18 144.71 C 149.17 144.66 148.31 145.44 148.26 146.46 Z"
      fill="black"
      fill-rule="nonzero" /><path d="M 150.56 153.28 L 149.33 153.31 C 148.44 153.32 147.73 154.06 147.75 154.95 C 147.77 155.84 148.50 156.54 149.39 156.53 L 150.62 156.50 C 151.51 156.48 152.22 155.75 152.20 154.86 C 152.18 153.97 151.45 153.26 150.56 153.28 Z M 149.68 153.31 L 148.82 153.14 C 147.94 152.97 147.08 153.54 146.90 154.43 C 146.73 155.31 147.30 156.17 148.18 156.35 L 149.04 156.52 C 149.92 156.69 150.78 156.12 150.96 155.23 C 151.13 154.35 150.56 153.49 149.68 153.31 Z M 150.12 154.38 L 149.99 153.78 C 149.79 152.89 148.90 152.33 148.00 152.53 C 147.11 152.73 146.55 153.62 146.75 154.51 L 146.89 155.11 C 147.09 156.00 147.97 156.56 148.87 156.36 C 149.76 156.16 150.32 155.28 150.12 154.38 Z M 149.99 154.62 L 150.28 153.62 C 150.54 152.73 150.03 151.79 149.13 151.53 C 148.24 151.27 147.30 151.78 147.04 152.68 L 146.75 153.67 C 146.49 154.57 147.00 155.51 147.90 155.77 C 148.79 156.03 149.73 155.51 149.99 154.62 Z M 150.36 152.92 L 150.23 152.00 C 150.11 151.06 149.24 150.40 148.31 150.53 C 147.37 150.65 146.71 151.51 146.84 152.45 L 146.96 153.38 C 147.09 154.31 147.95 154.97 148.89 154.84 C 149.82 154.72 150.48 153.86 150.36 152.92 Z M 149.98 151.29 L 149.47 150.49 C 148.95 149.69 147.89 149.46 147.09 149.98 C 146.29 150.49 146.06 151.56 146.57 152.36 L 147.09 153.16 C 147.60 153.96 148.67 154.19 149.47 153.67 C 150.27 153.16 150.50 152.09 149.98 151.29 Z M 149.38 150.36 L 148.71 149.51 C 148.12 148.76 147.03 148.63 146.28 149.23 C 145.53 149.82 145.41 150.90 146.00 151.65 L 146.67 152.50 C 147.26 153.25 148.34 153.38 149.09 152.78 C 149.84 152.19 149.97 151.10 149.38 150.36 Z M 148.80 149.63 L 148.23 148.76 C 147.70 147.96 146.62 147.74 145.82 148.26 C 145.02 148.79 144.80 149.87 145.33 150.67 L 145.91 151.54 C 146.43 152.34 147.51 152.56 148.31 152.03 C 149.11 151.50 149.33 150.43 148.80 149.63 Z M 148.35 148.97 L 147.92 148.06 C 147.51 147.19 146.47 146.82 145.60 147.23 C 144.74 147.64 144.37 148.68 144.78 149.55 L 145.21 150.46 C 145.62 151.32 146.66 151.69 147.52 151.28 C 148.39 150.87 148.76 149.83 148.35 148.97 Z M 148.01 148.26 L 147.69 147.31 C 147.39 146.39 146.41 145.90 145.49 146.20 C 144.58 146.50 144.08 147.48 144.38 148.40 L 144.69 149.35 C 144.99 150.27 145.98 150.76 146.89 150.46 C 147.81 150.16 148.31 149.17 148.01 148.26 Z M 147.75 147.50 L 147.55 146.52 C 147.36 145.58 146.43 144.97 145.48 145.16 C 144.54 145.35 143.93 146.28 144.12 147.23 L 144.32 148.21 C 144.52 149.15 145.44 149.76 146.39 149.57 C 147.33 149.37 147.94 148.45 147.75 147.50 Z M 147.58 146.75 L 147.52 145.75 C 147.45 144.78 146.61 144.06 145.65 144.12 C 144.68 144.19 143.95 145.03 144.02 145.99 L 144.09 147.00 C 144.15 147.96 144.99 148.69 145.96 148.62 C 146.92 148.56 147.65 147.72 147.58 146.75 Z M 147.51 146.07 L 147.62 145.09 C 147.74 144.13 147.04 143.26 146.08 143.15 C 145.12 143.04 144.25 143.73 144.14 144.69 L 144.02 145.67 C 143.91 146.63 144.60 147.50 145.56 147.62 C 146.53 147.73 147.40 147.04 147.51 146.07 Z M 147.53 145.49 L 147.87 144.56 C 148.20 143.65 147.73 142.64 146.82 142.31 C 145.90 141.98 144.90 142.45 144.56 143.36 L 144.23 144.29 C 143.90 145.21 144.37 146.21 145.28 146.55 C 146.19 146.88 147.20 146.41 147.53 145.49 Z M 147.69 144.93 L 148.23 144.10 C 148.77 143.29 148.54 142.20 147.73 141.67 C 146.92 141.13 145.83 141.36 145.29 142.17 L 144.75 143.00 C 144.21 143.81 144.44 144.90 145.25 145.43 C 146.06 145.97 147.15 145.74 147.69 144.93 Z M 148.02 144.37 L 148.73 143.65 C 149.41 142.95 149.40 141.84 148.71 141.16 C 148.01 140.47 146.90 140.48 146.22 141.18 L 145.51 141.90 C 144.82 142.60 144.83 143.71 145.53 144.39 C 146.22 145.08 147.34 145.06 148.02 144.37 Z M 148.49 143.85 L 149.30 143.28 C 150.10 142.72 150.29 141.62 149.73 140.82 C 149.17 140.03 148.07 139.84 147.27 140.40 L 146.46 140.97 C 145.66 141.53 145.47 142.63 146.03 143.43 C 146.59 144.22 147.69 144.41 148.49 143.85 Z M 148.98 143.47 L 149.97 143.05 C 150.87 142.67 151.30 141.63 150.92 140.73 C 150.54 139.83 149.50 139.41 148.60 139.79 L 147.60 140.20 C 146.70 140.58 146.28 141.62 146.66 142.53 C 147.04 143.43 148.08 143.85 148.98 143.47 Z M 149.47 143.20 L 150.45 143.09 C 151.44 142.99 152.15 142.11 152.05 141.13 C 151.94 140.15 151.06 139.43 150.08 139.54 L 149.10 139.64 C 148.12 139.74 147.40 140.62 147.51 141.61 C 147.61 142.59 148.49 143.30 149.47 143.20 Z M 149.71 143.03 L 150.57 143.31 C 151.52 143.62 152.54 143.10 152.84 142.15 C 153.15 141.20 152.63 140.18 151.68 139.87 L 150.82 139.60 C 149.87 139.29 148.86 139.81 148.55 140.76 C 148.24 141.71 148.76 142.73 149.71 143.03 Z M 149.83 142.87 L 150.46 143.51 C 151.16 144.22 152.32 144.23 153.03 143.53 C 153.75 142.82 153.75 141.67 153.05 140.95 L 152.42 140.32 C 151.72 139.60 150.56 139.59 149.85 140.30 C 149.13 141.00 149.13 142.15 149.83 142.87 Z M 150.09 142.99 L 150.51 143.90 C 150.93 144.82 152.01 145.23 152.93 144.81 C 153.85 144.39 154.25 143.31 153.83 142.39 L 153.42 141.47 C 153.00 140.56 151.92 140.15 151.00 140.57 C 150.08 140.99 149.68 142.07 150.09 142.99 Z M 150.37 143.46 L 150.55 144.53 C 150.73 145.53 151.68 146.19 152.68 146.02 C 153.67 145.84 154.34 144.89 154.16 143.89 L 153.98 142.83 C 153.80 141.83 152.85 141.17 151.85 141.34 C 150.86 141.52 150.19 142.47 150.37 143.46 Z M 150.52 144.17 L 150.50 145.14 C 150.47 146.16 151.28 147.00 152.29 147.03 C 153.31 147.05 154.15 146.25 154.18 145.23 L 154.20 144.26 C 154.22 143.24 153.42 142.40 152.40 142.37 C 151.39 142.35 150.54 143.15 150.52 144.17 Z M 150.52 144.85 L 150.34 145.83 C 150.15 146.84 150.81 147.80 151.82 147.99 C 152.82 148.17 153.78 147.51 153.97 146.51 L 154.15 145.52 C 154.34 144.52 153.68 143.56 152.67 143.37 C 151.67 143.18 150.71 143.85 150.52 144.85 Z M 150.40 145.58 L 150.07 146.54 C 149.74 147.51 150.26 148.56 151.23 148.89 C 152.20 149.22 153.25 148.70 153.58 147.73 L 153.91 146.77 C 154.24 145.80 153.72 144.74 152.75 144.41 C 151.78 144.09 150.73 144.61 150.40 145.58 Z M 150.16 146.30 L 149.71 147.21 C 149.25 148.13 149.63 149.24 150.55 149.70 C 151.47 150.16 152.58 149.78 153.04 148.87 L 153.49 147.96 C 153.95 147.04 153.58 145.93 152.66 145.47 C 151.74 145.01 150.62 145.38 150.16 146.30 Z M 149.82 147.01 L 149.27 147.85 C 148.70 148.71 148.94 149.86 149.80 150.43 C 150.66 151.00 151.82 150.76 152.38 149.90 L 152.93 149.06 C 153.50 148.20 153.26 147.05 152.40 146.48 C 151.54 145.91 150.39 146.15 149.82 147.01 Z M 149.37 147.69 L 148.74 148.47 C 148.09 149.27 148.22 150.45 149.02 151.10 C 149.82 151.75 151.00 151.63 151.65 150.83 L 152.28 150.05 C 152.93 149.25 152.80 148.07 152.00 147.42 C 151.20 146.77 150.03 146.89 149.37 147.69 Z M 148.84 148.36 L 148.15 149.08 C 147.44 149.83 147.47 151.02 148.22 151.73 C 148.97 152.44 150.15 152.41 150.87 151.66 L 151.55 150.94 C 152.27 150.19 152.24 149.00 151.49 148.29 C 150.74 147.58 149.55 147.61 148.84 148.36 Z M 148.24 148.99 L 147.49 149.68 C 146.73 150.39 146.68 151.57 147.38 152.33 C 148.08 153.10 149.27 153.14 150.03 152.44 L 150.78 151.75 C 151.54 151.05 151.59 149.86 150.89 149.10 C 150.19 148.34 149.00 148.29 148.24 148.99 Z M 147.59 149.60 L 146.80 150.22 C 145.99 150.87 145.86 152.05 146.51 152.86 C 147.16 153.67 148.34 153.80 149.14 153.15 L 149.93 152.53 C 150.74 151.88 150.87 150.70 150.22 149.89 C 149.58 149.08 148.40 148.95 147.59 149.60 Z M 146.92 150.14 L 146.11 150.69 C 145.25 151.27 145.03 152.44 145.61 153.30 C 146.20 154.15 147.36 154.38 148.22 153.79 L 149.03 153.24 C 149.89 152.66 150.11 151.49 149.53 150.63 C 148.94 149.78 147.78 149.55 146.92 150.14 Z M 146.25 150.60 L 145.36 151.10 C 144.46 151.60 144.14 152.75 144.64 153.65 C 145.15 154.56 146.29 154.88 147.20 154.37 L 148.08 153.88 C 148.99 153.37 149.31 152.23 148.80 151.32 C 148.29 150.42 147.15 150.10 146.25 150.60 Z M 145.53 151.01 L 144.61 151.42 C 143.66 151.83 143.23 152.94 143.64 153.89 C 144.05 154.84 145.16 155.27 146.11 154.86 L 147.03 154.46 C 147.98 154.04 148.42 152.93 148.00 151.98 C 147.59 151.03 146.48 150.60 145.53 151.01 Z M 144.80 151.34 L 143.87 151.63 C 142.87 151.94 142.32 152.99 142.63 153.98 C 142.93 154.97 143.99 155.53 144.98 155.22 L 145.92 154.93 C 146.91 154.62 147.46 153.57 147.15 152.58 C 146.85 151.59 145.80 151.04 144.80 151.34 Z M 144.10 151.58 L 143.08 151.75 C 142.06 151.93 141.37 152.90 141.54 153.92 C 141.72 154.94 142.69 155.63 143.71 155.45 L 144.74 155.28 C 145.76 155.10 146.45 154.13 146.27 153.11 C 146.10 152.09 145.13 151.40 144.10 151.58 Z M 143.49 151.73 L 142.49 151.68 C 141.45 151.62 140.57 152.42 140.51 153.45 C 140.46 154.49 141.26 155.37 142.29 155.43 L 143.30 155.48 C 144.33 155.53 145.21 154.74 145.27 153.70 C 145.32 152.67 144.53 151.78 143.49 151.73 Z M 143.25 151.88 L 142.43 151.46 C 141.51 150.99 140.37 151.35 139.90 152.27 C 139.43 153.19 139.79 154.33 140.71 154.80 L 141.53 155.22 C 142.45 155.69 143.59 155.33 144.06 154.41 C 144.53 153.49 144.17 152.35 143.25 151.88 Z M 143.14 152.10 L 142.68 151.41 C 142.11 150.54 140.95 150.30 140.08 150.87 C 139.22 151.44 138.98 152.60 139.55 153.47 L 140.00 154.16 C 140.57 155.03 141.74 155.27 142.60 154.70 C 143.47 154.13 143.71 152.96 143.14 152.10 Z M 142.92 151.93 L 142.67 151.01 C 142.39 150.01 141.35 149.43 140.36 149.71 C 139.36 149.99 138.77 151.02 139.05 152.02 L 139.31 152.94 C 139.59 153.94 140.62 154.52 141.62 154.24 C 142.62 153.97 143.20 152.93 142.92 151.93 Z M 142.73 151.34 L 142.62 150.25 C 142.52 149.22 141.61 148.47 140.58 148.56 C 139.54 148.66 138.79 149.58 138.89 150.61 L 138.99 151.69 C 139.09 152.73 140.01 153.48 141.04 153.38 C 142.07 153.28 142.82 152.37 142.73 151.34 Z M 142.63 150.46 L 142.65 149.36 C 142.66 148.33 141.84 147.48 140.80 147.46 C 139.77 147.44 138.91 148.27 138.90 149.31 L 138.88 150.40 C 138.86 151.44 139.69 152.29 140.73 152.31 C 141.76 152.32 142.61 151.50 142.63 150.46 Z M 142.64 149.52 L 142.74 148.52 C 142.84 147.49 142.08 146.58 141.05 146.47 C 140.02 146.37 139.11 147.13 139.00 148.16 L 138.91 149.15 C 138.81 150.18 139.56 151.10 140.59 151.20 C 141.62 151.30 142.54 150.55 142.64 149.52 Z M 142.72 148.67 L 142.89 147.68 C 143.07 146.66 142.39 145.68 141.37 145.50 C 140.35 145.32 139.38 146.01 139.20 147.03 L 139.02 148.02 C 138.84 149.03 139.52 150.01 140.54 150.19 C 141.56 150.37 142.54 149.69 142.72 148.67 Z M 142.86 147.82 L 143.11 146.85 C 143.37 145.85 142.77 144.82 141.76 144.56 C 140.76 144.30 139.74 144.91 139.48 145.91 L 139.23 146.88 C 138.97 147.88 139.57 148.91 140.57 149.17 C 141.58 149.43 142.60 148.82 142.86 147.82 Z M 143.07 147.00 L 143.39 146.06 C 143.74 145.08 143.22 144.01 142.24 143.67 C 141.27 143.33 140.20 143.84 139.85 144.82 L 139.52 145.76 C 139.18 146.74 139.70 147.81 140.68 148.15 C 141.65 148.49 142.72 147.98 143.07 147.00 Z M 143.33 146.22 L 143.74 145.32 C 144.17 144.37 143.75 143.26 142.80 142.83 C 141.86 142.40 140.75 142.82 140.32 143.77 L 139.91 144.67 C 139.49 145.61 139.91 146.72 140.85 147.15 C 141.79 147.58 142.91 147.16 143.33 146.22 Z M 143.67 145.46 L 144.15 144.60 C 144.66 143.69 144.34 142.55 143.43 142.04 C 142.53 141.53 141.38 141.86 140.88 142.76 L 140.39 143.62 C 139.89 144.53 140.21 145.67 141.11 146.18 C 142.02 146.69 143.16 146.36 143.67 145.46 Z M 144.08 144.72 L 144.63 143.89 C 145.21 143.03 144.98 141.86 144.11 141.29 C 143.25 140.71 142.09 140.94 141.51 141.80 L 140.95 142.64 C 140.38 143.50 140.61 144.66 141.47 145.24 C 142.33 145.82 143.50 145.59 144.08 144.72 Z M 144.56 144.00 L 145.18 143.19 C 145.82 142.37 145.67 141.19 144.85 140.55 C 144.03 139.92 142.85 140.07 142.21 140.89 L 141.59 141.69 C 140.95 142.51 141.10 143.70 141.92 144.33 C 142.74 144.97 143.92 144.82 144.56 144.00 Z M 145.11 143.28 L 145.78 142.53 C 146.46 141.75 146.39 140.56 145.61 139.87 C 144.83 139.18 143.65 139.26 142.96 140.04 L 142.29 140.79 C 141.60 141.57 141.67 142.76 142.45 143.45 C 143.23 144.14 144.42 144.06 145.11 143.28 Z M 145.69 142.62 L 146.41 141.91 C 147.15 141.18 147.16 139.99 146.44 139.25 C 145.71 138.51 144.52 138.50 143.78 139.23 L 143.05 139.94 C 142.31 140.67 142.30 141.86 143.03 142.60 C 143.75 143.34 144.94 143.35 145.69 142.62 Z M 146.29 142.02 L 147.07 141.38 C 147.87 140.72 147.98 139.53 147.32 138.73 C 146.66 137.93 145.47 137.82 144.67 138.48 L 143.90 139.12 C 143.09 139.78 142.98 140.96 143.64 141.77 C 144.30 142.57 145.49 142.68 146.29 142.02 Z M 146.90 141.50 L 147.72 140.96 C 148.58 140.39 148.82 139.22 148.25 138.36 C 147.68 137.49 146.51 137.25 145.64 137.82 L 144.83 138.36 C 143.96 138.93 143.72 140.10 144.30 140.96 C 144.87 141.83 146.04 142.07 146.90 141.50 Z M 147.47 141.10 L 148.48 140.64 C 149.42 140.20 149.83 139.08 149.39 138.13 C 148.95 137.19 147.83 136.78 146.89 137.22 L 145.89 137.68 C 144.94 138.12 144.53 139.24 144.97 140.19 C 145.41 141.13 146.53 141.54 147.47 141.10 Z M 148.12 140.76 L 149.15 140.51 C 150.16 140.27 150.78 139.25 150.54 138.24 C 150.29 137.23 149.28 136.61 148.26 136.85 L 147.24 137.09 C 146.23 137.34 145.61 138.36 145.85 139.37 C 146.09 140.38 147.11 141.00 148.12 140.76 Z M 148.63 140.57 L 149.55 140.60 C 150.59 140.64 151.47 139.83 151.51 138.79 C 151.55 137.75 150.74 136.87 149.70 136.83 L 148.78 136.80 C 147.74 136.76 146.86 137.57 146.82 138.61 C 146.78 139.65 147.59 140.53 148.63 140.57 Z M 148.80 140.41 L 149.56 140.78 C 150.49 141.24 151.62 140.85 152.08 139.91 C 152.54 138.98 152.15 137.85 151.21 137.39 L 150.45 137.02 C 149.52 136.56 148.39 136.95 147.93 137.89 C 147.47 138.83 147.86 139.96 148.80 140.41 Z M 148.88 140.23 L 149.44 140.96 C 150.07 141.79 151.26 141.95 152.09 141.32 C 152.92 140.69 153.08 139.50 152.44 138.67 L 151.89 137.94 C 151.25 137.11 150.07 136.95 149.24 137.58 C 148.41 138.22 148.25 139.40 148.88 140.23 Z M 149.17 140.48 L 149.53 141.44 C 149.90 142.42 150.99 142.92 151.97 142.55 C 152.95 142.18 153.44 141.09 153.07 140.11 L 152.71 139.15 C 152.34 138.17 151.25 137.68 150.28 138.04 C 149.30 138.41 148.80 139.50 149.17 140.48 Z M 149.45 141.17 L 149.67 142.22 C 149.88 143.24 150.89 143.90 151.91 143.69 C 152.93 143.47 153.59 142.47 153.38 141.44 L 153.16 140.39 C 152.94 139.37 151.94 138.71 150.91 138.92 C 149.89 139.14 149.23 140.14 149.45 141.17 Z M 149.64 142.07 L 149.76 143.06 C 149.89 144.10 150.84 144.84 151.88 144.71 C 152.92 144.58 153.66 143.63 153.53 142.59 L 153.40 141.59 C 153.27 140.55 152.33 139.82 151.29 139.95 C 150.25 140.08 149.51 141.03 149.64 142.07 Z M 149.75 142.95 L 149.82 143.95 C 149.89 144.99 150.79 145.79 151.84 145.72 C 152.88 145.65 153.68 144.74 153.61 143.70 L 153.54 142.70 C 153.47 141.65 152.57 140.86 151.52 140.93 C 150.47 141.00 149.68 141.90 149.75 142.95 Z M 149.81 143.87 L 149.83 144.86 C 149.86 145.91 150.73 146.74 151.78 146.72 C 152.83 146.70 153.66 145.82 153.64 144.77 L 153.61 143.78 C 153.59 142.73 152.72 141.90 151.67 141.92 C 150.62 141.95 149.79 142.82 149.81 143.87 Z M 149.83 144.81 L 149.83 145.81 C 149.82 146.86 150.67 147.71 151.72 147.72 C 152.77 147.73 153.63 146.88 153.63 145.83 L 153.64 144.83 C 153.65 143.78 152.80 142.92 151.75 142.92 C 150.70 142.91 149.84 143.76 149.83 144.81 Z M 149.82 145.73 L 149.78 146.72 C 149.73 147.78 150.54 148.67 151.59 148.72 C 152.64 148.77 153.54 147.96 153.59 146.91 L 153.63 145.91 C 153.68 144.86 152.87 143.96 151.82 143.91 C 150.77 143.86 149.87 144.67 149.82 145.73 Z M 149.78 146.60 L 149.67 147.59 C 149.55 148.64 150.30 149.58 151.35 149.70 C 152.40 149.82 153.34 149.07 153.46 148.03 L 153.58 147.03 C 153.70 145.99 152.95 145.04 151.90 144.92 C 150.85 144.80 149.90 145.55 149.78 146.60 Z M 149.69 147.41 L 149.50 148.37 C 149.28 149.40 149.94 150.41 150.98 150.63 C 152.01 150.85 153.02 150.18 153.24 149.15 L 153.44 148.20 C 153.66 147.16 152.99 146.15 151.96 145.93 C 150.92 145.72 149.91 146.38 149.69 147.41 Z M 149.55 148.17 L 149.27 149.03 C 148.94 150.04 149.49 151.12 150.50 151.44 C 151.51 151.77 152.59 151.22 152.91 150.21 L 153.19 149.35 C 153.52 148.34 152.96 147.26 151.96 146.93 C 150.95 146.61 149.87 147.16 149.55 148.17 Z M 149.34 148.83 L 148.95 149.71 C 148.51 150.67 148.94 151.81 149.90 152.24 C 150.87 152.68 152.00 152.25 152.44 151.29 L 152.84 150.41 C 153.27 149.45 152.84 148.31 151.88 147.87 C 150.91 147.44 149.78 147.87 149.34 148.83 Z M 149.04 149.52 L 148.50 150.43 C 147.96 151.34 148.26 152.52 149.17 153.06 C 150.09 153.60 151.26 153.30 151.80 152.39 L 152.34 151.48 C 152.88 150.57 152.58 149.39 151.67 148.85 C 150.76 148.31 149.58 148.61 149.04 149.52 Z M 148.60 150.27 L 147.96 151.15 C 147.34 152.01 147.52 153.21 148.38 153.83 C 149.24 154.46 150.44 154.27 151.06 153.42 L 151.70 152.54 C 152.33 151.68 152.14 150.48 151.29 149.86 C 150.43 149.23 149.23 149.42 148.60 150.27 Z M 148.05 151.04 L 147.40 151.81 C 146.71 152.61 146.81 153.83 147.62 154.51 C 148.43 155.20 149.64 155.10 150.33 154.29 L 150.98 153.53 C 151.67 152.72 151.57 151.50 150.76 150.82 C 149.95 150.13 148.73 150.23 148.05 151.04 Z M 147.48 151.72 L 146.76 152.47 C 146.02 153.23 146.05 154.45 146.81 155.19 C 147.58 155.92 148.80 155.90 149.53 155.13 L 150.25 154.38 C 150.99 153.61 150.96 152.40 150.20 151.66 C 149.43 150.93 148.21 150.95 147.48 151.72 Z M 146.85 152.38 L 146.08 153.08 C 145.30 153.80 145.25 155.01 145.96 155.80 C 146.68 156.58 147.90 156.63 148.68 155.92 L 149.44 155.22 C 150.23 154.50 150.28 153.28 149.56 152.50 C 148.85 151.72 147.63 151.66 146.85 152.38 Z M 146.20 152.98 L 145.42 153.59 C 144.58 154.25 144.43 155.46 145.09 156.29 C 145.74 157.13 146.95 157.28 147.79 156.62 L 148.57 156.01 C 149.40 155.36 149.55 154.15 148.90 153.31 C 148.24 152.47 147.03 152.33 146.20 152.98 Z M 145.59 153.47 L 144.70 154.02 C 143.79 154.58 143.51 155.76 144.07 156.67 C 144.63 157.57 145.81 157.85 146.72 157.30 L 147.61 156.74 C 148.52 156.19 148.80 155.00 148.24 154.10 C 147.68 153.19 146.50 152.91 145.59 153.47 Z M 145.03 153.85 L 143.96 154.26 C 142.96 154.63 142.46 155.74 142.83 156.74 C 143.21 157.73 144.32 158.24 145.32 157.86 L 146.39 157.46 C 147.38 157.08 147.89 155.97 147.51 154.98 C 147.14 153.98 146.03 153.48 145.03 153.85 Z M 144.54 154.14 L 143.61 154.18 C 142.55 154.24 141.73 155.14 141.79 156.21 C 141.84 157.27 142.74 158.08 143.81 158.03 L 144.73 157.98 C 145.80 157.93 146.61 157.02 146.56 155.96 C 146.51 154.90 145.60 154.08 144.54 154.14 Z M 144.47 154.34 L 143.74 154.02 C 142.77 153.60 141.63 154.05 141.21 155.03 C 140.79 156.00 141.24 157.14 142.21 157.56 L 142.94 157.87 C 143.92 158.30 145.05 157.85 145.48 156.87 C 145.90 155.90 145.45 154.76 144.47 154.34 Z M 144.52 154.64 L 144.02 153.97 C 143.39 153.12 142.18 152.94 141.33 153.58 C 140.48 154.21 140.30 155.42 140.93 156.27 L 141.43 156.94 C 142.07 157.79 143.27 157.97 144.13 157.34 C 144.98 156.70 145.16 155.50 144.52 154.64 Z M 144.31 154.54 L 144.01 153.60 C 143.69 152.59 142.61 152.03 141.60 152.35 C 140.59 152.67 140.03 153.75 140.35 154.76 L 140.65 155.70 C 140.97 156.71 142.05 157.27 143.06 156.95 C 144.07 156.63 144.63 155.55 144.31 154.54 Z M 144.08 153.93 L 143.94 152.83 C 143.80 151.78 142.83 151.04 141.78 151.18 C 140.73 151.32 139.99 152.29 140.13 153.34 L 140.28 154.44 C 140.42 155.49 141.38 156.23 142.44 156.09 C 143.49 155.95 144.22 154.98 144.08 153.93 Z M 143.95 153.00 L 143.91 152.01 C 143.87 150.95 142.97 150.13 141.91 150.17 C 140.85 150.22 140.03 151.11 140.08 152.17 L 140.12 153.16 C 140.16 154.22 141.06 155.04 142.12 155.00 C 143.17 154.96 144.00 154.06 143.95 153.00 Z M 143.91 152.15 L 143.94 151.21 C 143.97 150.15 143.14 149.26 142.08 149.23 C 141.02 149.20 140.14 150.03 140.11 151.09 L 140.08 152.03 C 140.04 153.09 140.88 153.98 141.93 154.01 C 142.99 154.04 143.88 153.21 143.91 152.15 Z M 143.93 151.37 L 144.04 150.38 C 144.16 149.33 143.40 148.38 142.35 148.26 C 141.30 148.14 140.35 148.90 140.23 149.95 L 140.12 150.93 C 140.00 151.98 140.75 152.93 141.81 153.05 C 142.86 153.17 143.81 152.42 143.93 151.37 Z M 144.01 150.55 L 144.22 149.52 C 144.44 148.48 143.77 147.47 142.73 147.25 C 141.70 147.04 140.68 147.71 140.47 148.74 L 140.26 149.78 C 140.05 150.82 140.71 151.83 141.75 152.04 C 142.79 152.25 143.80 151.59 144.01 150.55 Z M 144.18 149.67 L 144.48 148.67 C 144.78 147.66 144.20 146.59 143.19 146.30 C 142.17 146.00 141.11 146.57 140.81 147.59 L 140.51 148.59 C 140.21 149.60 140.79 150.67 141.80 150.97 C 142.82 151.27 143.88 150.69 144.18 149.67 Z M 144.44 148.79 L 144.78 147.86 C 145.15 146.87 144.64 145.77 143.65 145.40 C 142.66 145.03 141.56 145.54 141.19 146.54 L 140.85 147.47 C 140.48 148.46 140.99 149.56 141.98 149.93 C 142.97 150.29 144.07 149.79 144.44 148.79 Z M 144.75 147.95 L 145.15 147.00 C 145.56 146.03 145.11 144.90 144.14 144.49 C 143.16 144.08 142.04 144.53 141.62 145.50 L 141.22 146.45 C 140.81 147.42 141.26 148.55 142.24 148.96 C 143.21 149.37 144.34 148.92 144.75 147.95 Z M 145.12 147.07 L 145.56 146.14 C 146.01 145.19 145.60 144.04 144.65 143.59 C 143.69 143.14 142.55 143.55 142.10 144.50 L 141.66 145.43 C 141.20 146.39 141.61 147.53 142.57 147.98 C 143.52 148.44 144.67 148.03 145.12 147.07 Z M 145.53 146.21 L 145.99 145.32 C 146.48 144.38 146.11 143.22 145.17 142.73 C 144.23 142.25 143.07 142.61 142.59 143.55 L 142.13 144.44 C 141.64 145.38 142.01 146.54 142.95 147.02 C 143.89 147.51 145.04 147.15 145.53 146.21 Z M 145.96 145.38 L 146.47 144.48 C 146.99 143.56 146.66 142.39 145.74 141.87 C 144.82 141.35 143.65 141.67 143.13 142.59 L 142.62 143.49 C 142.10 144.41 142.42 145.58 143.34 146.10 C 144.27 146.63 145.44 146.30 145.96 145.38 Z M 146.42 144.56 L 147.00 143.63 C 147.57 142.73 147.30 141.55 146.40 140.98 C 145.50 140.42 144.32 140.69 143.75 141.59 L 143.17 142.52 C 142.61 143.42 142.88 144.60 143.78 145.16 C 144.68 145.73 145.86 145.45 146.42 144.56 Z M 146.95 143.71 L 147.52 142.90 C 148.13 142.03 147.92 140.83 147.06 140.22 C 146.19 139.61 144.99 139.82 144.38 140.69 L 143.81 141.51 C 143.20 142.37 143.41 143.57 144.28 144.18 C 145.14 144.79 146.34 144.58 146.95 143.71 Z M 147.46 142.98 L 148.03 142.26 C 148.69 141.42 148.55 140.22 147.72 139.56 C 146.88 138.90 145.68 139.04 145.02 139.88 L 144.45 140.60 C 143.79 141.43 143.93 142.64 144.76 143.30 C 145.60 143.96 146.80 143.81 147.46 142.98 Z M 147.96 142.34 L 148.59 141.63 C 149.29 140.84 149.22 139.63 148.42 138.92 C 147.63 138.22 146.42 138.29 145.71 139.09 L 145.09 139.79 C 144.39 140.59 144.46 141.80 145.25 142.50 C 146.05 143.21 147.26 143.13 147.96 142.34 Z M 148.49 141.74 L 149.23 141.02 C 149.99 140.28 150.00 139.06 149.26 138.30 C 148.52 137.54 147.31 137.53 146.55 138.27 L 145.81 138.99 C 145.05 139.73 145.03 140.94 145.78 141.70 C 146.52 142.46 147.73 142.48 148.49 141.74 Z M 149.07 141.16 L 149.84 140.56 C 150.68 139.91 150.83 138.70 150.18 137.86 C 149.53 137.02 148.32 136.87 147.49 137.52 L 146.71 138.13 C 145.87 138.78 145.72 139.98 146.37 140.82 C 147.02 141.66 148.23 141.81 149.07 141.16 Z M 149.60 140.72 L 150.45 140.25 C 151.38 139.73 151.71 138.56 151.19 137.63 C 150.67 136.71 149.50 136.37 148.58 136.89 L 147.73 137.36 C 146.80 137.88 146.47 139.05 146.99 139.98 C 147.50 140.90 148.67 141.23 149.60 140.72 Z M 150.10 140.40 L 151.12 140.07 C 152.13 139.74 152.68 138.66 152.35 137.65 C 152.03 136.64 150.94 136.08 149.93 136.41 L 148.92 136.74 C 147.91 137.06 147.36 138.15 147.68 139.16 C 148.01 140.17 149.09 140.72 150.10 140.40 Z M 150.62 140.16 L 151.60 140.11 C 152.66 140.06 153.48 139.16 153.43 138.10 C 153.38 137.04 152.48 136.22 151.42 136.27 L 150.43 136.32 C 149.37 136.37 148.55 137.27 148.60 138.33 C 148.65 139.39 149.56 140.21 150.62 140.16 Z M 150.84 140.00 L 151.68 140.31 C 152.67 140.68 153.78 140.17 154.15 139.17 C 154.52 138.17 154.01 137.07 153.01 136.70 L 152.17 136.39 C 151.18 136.02 150.07 136.53 149.70 137.53 C 149.33 138.52 149.84 139.63 150.84 140.00 Z M 150.93 139.81 L 151.56 140.49 C 152.29 141.27 153.50 141.32 154.29 140.60 C 155.07 139.88 155.11 138.66 154.39 137.88 L 153.76 137.20 C 153.04 136.42 151.82 136.37 151.04 137.09 C 150.26 137.81 150.21 139.03 150.93 139.81 Z M 151.24 140.01 L 151.68 140.94 C 152.13 141.91 153.28 142.32 154.24 141.86 C 155.20 141.41 155.61 140.26 155.16 139.30 L 154.72 138.36 C 154.26 137.40 153.11 136.99 152.15 137.44 C 151.19 137.90 150.78 139.05 151.24 140.01 Z M 151.56 140.63 L 151.84 141.64 C 152.12 142.66 153.18 143.26 154.21 142.98 C 155.23 142.70 155.84 141.63 155.55 140.61 L 155.28 139.61 C 154.99 138.58 153.93 137.98 152.91 138.26 C 151.88 138.55 151.28 139.61 151.56 140.63 Z M 151.79 141.44 L 151.96 142.42 C 152.13 143.47 153.12 144.18 154.17 144.00 C 155.22 143.83 155.93 142.84 155.76 141.79 L 155.60 140.81 C 155.42 139.76 154.43 139.05 153.38 139.22 C 152.33 139.39 151.62 140.39 151.79 141.44 Z M 151.94 142.28 L 152.03 143.28 C 152.13 144.34 153.07 145.12 154.13 145.02 C 155.19 144.93 155.97 143.99 155.87 142.93 L 155.78 141.93 C 155.68 140.87 154.74 140.08 153.68 140.18 C 152.62 140.28 151.84 141.22 151.94 142.28 Z M 152.02 143.20 L 152.07 144.19 C 152.12 145.26 153.02 146.08 154.09 146.03 C 155.15 145.98 155.97 145.07 155.92 144.01 L 155.88 143.01 C 155.83 141.95 154.92 141.13 153.86 141.18 C 152.79 141.23 151.97 142.13 152.02 143.20 Z M 152.07 144.13 L 152.08 145.11 C 152.10 146.17 152.97 147.02 154.04 147.01 C 155.11 146.99 155.96 146.12 155.94 145.05 L 155.93 144.07 C 155.91 143.01 155.04 142.16 153.97 142.17 C 152.90 142.19 152.05 143.06 152.07 144.13 Z M 152.08 145.02 L 152.05 146.02 C 152.02 147.08 152.85 147.97 153.92 148.01 C 154.99 148.04 155.88 147.20 155.91 146.14 L 155.94 145.14 C 155.98 144.07 155.14 143.18 154.07 143.15 C 153.00 143.11 152.11 143.95 152.08 145.02 Z M 152.05 145.91 L 151.96 146.93 C 151.87 148.00 152.66 148.93 153.72 149.03 C 154.78 149.12 155.72 148.34 155.82 147.27 L 155.91 146.25 C 156.00 145.18 155.21 144.24 154.15 144.15 C 153.09 144.06 152.15 144.84 152.05 145.91 Z M 151.98 146.81 L 151.83 147.78 C 151.67 148.83 152.40 149.82 153.45 149.98 C 154.51 150.14 155.49 149.41 155.65 148.36 L 155.80 147.39 C 155.96 146.34 155.24 145.35 154.18 145.19 C 153.13 145.03 152.14 145.75 151.98 146.81 Z M 151.86 147.63 L 151.63 148.60 C 151.39 149.64 152.03 150.68 153.07 150.93 C 154.11 151.17 155.16 150.52 155.40 149.48 L 155.63 148.51 C 155.87 147.47 155.22 146.43 154.18 146.18 C 153.14 145.94 152.10 146.59 151.86 147.63 Z M 151.68 148.42 L 151.36 149.37 C 151.01 150.39 151.55 151.49 152.56 151.83 C 153.57 152.18 154.67 151.64 155.02 150.63 L 155.35 149.67 C 155.69 148.66 155.15 147.56 154.14 147.21 C 153.13 146.87 152.03 147.40 151.68 148.42 Z M 151.45 149.15 L 151.00 150.07 C 150.53 151.03 150.93 152.19 151.89 152.65 C 152.85 153.12 154.01 152.73 154.48 151.77 L 154.93 150.85 C 155.40 149.89 155.00 148.73 154.04 148.26 C 153.08 147.79 151.92 148.19 151.45 149.15 Z M 151.13 149.84 L 150.56 150.69 C 149.97 151.58 150.21 152.78 151.10 153.37 C 151.99 153.97 153.19 153.73 153.78 152.84 L 154.35 151.99 C 154.94 151.10 154.70 149.90 153.81 149.31 C 152.92 148.71 151.72 148.95 151.13 149.84 Z M 150.71 150.50 L 150.05 151.26 C 149.35 152.07 149.44 153.29 150.25 153.99 C 151.05 154.69 152.28 154.60 152.98 153.79 L 153.64 153.03 C 154.34 152.22 154.25 151.00 153.44 150.30 C 152.63 149.60 151.41 149.69 150.71 150.50 Z M 150.22 151.09 L 149.49 151.74 C 148.70 152.46 148.64 153.68 149.35 154.47 C 150.07 155.27 151.30 155.33 152.09 154.61 L 152.81 153.96 C 153.61 153.25 153.67 152.02 152.95 151.23 C 152.23 150.43 151.01 150.37 150.22 151.09 Z M 149.70 151.57 L 148.85 152.15 C 147.96 152.76 147.74 153.96 148.34 154.85 C 148.94 155.73 150.15 155.96 151.03 155.36 L 151.88 154.78 C 152.77 154.18 153.00 152.97 152.39 152.09 C 151.79 151.20 150.59 150.97 149.70 151.57 Z M 149.11 152.00 L 148.21 152.43 C 147.24 152.89 146.82 154.04 147.28 155.01 C 147.74 155.98 148.89 156.39 149.86 155.94 L 150.76 155.51 C 151.73 155.05 152.15 153.90 151.69 152.93 C 151.24 151.96 150.08 151.55 149.11 152.00 Z M 148.51 152.32 L 147.58 152.58 C 146.55 152.87 145.95 153.94 146.24 154.97 C 146.52 156.00 147.59 156.60 148.62 156.31 L 149.56 156.05 C 150.59 155.76 151.19 154.69 150.90 153.66 C 150.61 152.63 149.54 152.03 148.51 152.32 Z M 147.92 152.52 L 146.91 152.61 C 145.85 152.71 145.07 153.66 145.17 154.72 C 145.27 155.79 146.22 156.57 147.28 156.47 L 148.29 156.37 C 149.35 156.27 150.13 155.33 150.03 154.26 C 149.93 153.19 148.98 152.41 147.92 152.52 Z M 147.38 152.62 L 146.39 152.48 C 145.33 152.33 144.35 153.06 144.20 154.12 C 144.04 155.18 144.78 156.16 145.83 156.31 L 146.82 156.46 C 147.88 156.61 148.86 155.88 149.01 154.82 C 149.17 153.76 148.43 152.78 147.38 152.62 Z M 147.05 152.70 L 146.20 152.24 C 145.27 151.72 144.09 152.06 143.57 153.00 C 143.06 153.93 143.40 155.11 144.33 155.63 L 145.18 156.09 C 146.11 156.61 147.29 156.27 147.81 155.33 C 148.32 154.40 147.98 153.22 147.05 152.70 Z M 146.80 152.74 L 146.26 152.06 C 145.61 151.21 144.39 151.06 143.55 151.72 C 142.70 152.38 142.55 153.59 143.21 154.44 L 143.74 155.12 C 144.40 155.97 145.61 156.12 146.46 155.46 C 147.30 154.80 147.45 153.59 146.80 152.74 Z M 146.53 152.51 L 146.17 151.64 C 145.76 150.65 144.63 150.18 143.64 150.58 C 142.65 150.99 142.18 152.12 142.59 153.11 L 142.94 153.98 C 143.35 154.97 144.48 155.44 145.47 155.04 C 146.46 154.63 146.93 153.50 146.53 152.51 Z M 146.26 151.94 L 146.02 150.91 C 145.78 149.86 144.75 149.21 143.71 149.45 C 142.66 149.69 142.01 150.73 142.25 151.77 L 142.49 152.80 C 142.73 153.85 143.77 154.50 144.81 154.26 C 145.85 154.02 146.50 152.98 146.26 151.94 Z M 146.06 151.10 L 145.92 150.00 C 145.79 148.94 144.83 148.19 143.77 148.32 C 142.71 148.45 141.95 149.41 142.08 150.47 L 142.22 151.57 C 142.35 152.63 143.31 153.39 144.37 153.26 C 145.43 153.13 146.19 152.16 146.06 151.10 Z M 145.93 150.13 L 145.88 149.11 C 145.82 148.05 144.91 147.23 143.85 147.29 C 142.78 147.34 141.96 148.25 142.02 149.32 L 142.07 150.34 C 142.13 151.40 143.04 152.22 144.10 152.16 C 145.17 152.11 145.99 151.20 145.93 150.13 Z M 145.88 149.23 L 145.89 148.21 C 145.90 147.14 145.05 146.27 143.98 146.26 C 142.91 146.25 142.04 147.11 142.03 148.17 L 142.02 149.20 C 142.01 150.26 142.86 151.14 143.93 151.15 C 145.00 151.16 145.87 150.30 145.88 149.23 Z M 145.89 148.34 L 145.96 147.34 C 146.04 146.28 145.24 145.35 144.18 145.27 C 143.12 145.19 142.19 145.99 142.11 147.05 L 142.03 148.05 C 141.95 149.11 142.75 150.04 143.81 150.12 C 144.88 150.20 145.81 149.40 145.89 148.34 Z M 145.94 147.48 L 146.09 146.54 C 146.25 145.48 145.52 144.50 144.47 144.34 C 143.41 144.18 142.43 144.91 142.27 145.96 L 142.13 146.91 C 141.97 147.96 142.69 148.95 143.75 149.10 C 144.80 149.26 145.78 148.54 145.94 147.48 Z M 146.05 146.72 L 146.30 145.73 C 146.56 144.69 145.94 143.64 144.90 143.38 C 143.87 143.12 142.82 143.75 142.56 144.78 L 142.31 145.78 C 142.04 146.81 142.67 147.86 143.70 148.12 C 144.74 148.38 145.79 147.76 146.05 146.72 Z M 146.23 145.95 L 146.58 145.03 C 146.97 144.04 146.47 142.92 145.48 142.54 C 144.48 142.15 143.36 142.65 142.98 143.65 L 142.63 144.56 C 142.24 145.56 142.74 146.67 143.73 147.06 C 144.73 147.44 145.85 146.94 146.23 145.95 Z M 146.49 145.25 L 146.95 144.38 C 147.45 143.44 147.09 142.27 146.15 141.77 C 145.21 141.27 144.04 141.62 143.54 142.56 L 143.08 143.43 C 142.58 144.37 142.93 145.54 143.87 146.04 C 144.81 146.54 145.98 146.19 146.49 145.25 Z M 146.84 144.56 L 147.41 143.73 C 148.01 142.85 147.78 141.65 146.90 141.05 C 146.02 140.44 144.82 140.67 144.22 141.55 L 143.65 142.38 C 143.05 143.26 143.27 144.47 144.15 145.07 C 145.03 145.67 146.24 145.44 146.84 144.56 Z M 147.30 143.88 L 147.96 143.09 C 148.64 142.27 148.53 141.05 147.71 140.37 C 146.89 139.68 145.68 139.79 144.99 140.61 L 144.33 141.40 C 143.65 142.22 143.76 143.44 144.57 144.12 C 145.39 144.81 146.61 144.70 147.30 143.88 Z M 147.82 143.24 L 148.55 142.53 C 149.32 141.79 149.34 140.57 148.60 139.80 C 147.85 139.03 146.63 139.01 145.86 139.75 L 145.13 140.46 C 144.36 141.20 144.34 142.43 145.08 143.19 C 145.83 143.96 147.05 143.98 147.82 143.24 Z M 148.35 142.70 L 149.13 142.12 C 149.99 141.49 150.18 140.28 149.54 139.42 C 148.91 138.56 147.70 138.38 146.84 139.01 L 146.06 139.58 C 145.20 140.22 145.02 141.43 145.65 142.29 C 146.28 143.14 147.49 143.33 148.35 142.70 Z M 148.78 142.33 L 149.77 141.88 C 150.74 141.45 151.18 140.30 150.74 139.33 C 150.30 138.36 149.16 137.92 148.18 138.36 L 147.19 138.80 C 146.22 139.24 145.79 140.39 146.23 141.36 C 146.66 142.33 147.81 142.77 148.78 142.33 Z M 149.16 142.05 L 150.16 141.95 C 151.22 141.85 152.00 140.91 151.90 139.85 C 151.80 138.78 150.86 138.00 149.80 138.10 L 148.80 138.20 C 147.73 138.30 146.95 139.24 147.05 140.30 C 147.15 141.37 148.10 142.15 149.16 142.05 Z M 149.21 141.80 L 150.01 142.14 C 150.99 142.57 152.12 142.12 152.55 141.13 C 152.97 140.15 152.52 139.02 151.54 138.59 L 150.74 138.25 C 149.76 137.83 148.62 138.28 148.20 139.26 C 147.78 140.24 148.23 141.38 149.21 141.80 Z M 149.15 141.43 L 149.69 142.25 C 150.28 143.15 151.48 143.40 152.37 142.81 C 153.27 142.22 153.51 141.02 152.93 140.13 L 152.39 139.31 C 151.80 138.41 150.60 138.17 149.71 138.75 C 148.81 139.34 148.57 140.54 149.15 141.43 Z M 149.57 142.05 L 150.02 142.95 C 150.49 143.91 151.65 144.30 152.61 143.83 C 153.57 143.36 153.97 142.20 153.49 141.24 L 153.05 140.33 C 152.58 139.38 151.41 138.98 150.45 139.45 C 149.49 139.93 149.10 141.09 149.57 142.05 Z M 150.61 143.66 L 151.25 144.13 C 152.11 144.76 153.32 144.57 153.96 143.71 C 154.59 142.85 154.41 141.63 153.54 141.00 L 152.90 140.53 C 152.04 139.90 150.83 140.08 150.19 140.95 C 149.56 141.81 149.74 143.02 150.61 143.66 Z M 152.49 144.50 L 153.39 144.45 C 154.46 144.40 155.28 143.49 155.23 142.42 C 155.17 141.35 154.26 140.52 153.19 140.58 L 152.30 140.62 C 151.23 140.68 150.40 141.59 150.46 142.66 C 150.51 143.73 151.42 144.55 152.49 144.50 Z M 153.76 144.40 L 154.82 144.14 C 155.86 143.88 156.50 142.83 156.24 141.79 C 155.98 140.75 154.93 140.11 153.89 140.37 L 152.83 140.63 C 151.79 140.89 151.15 141.94 151.41 142.98 C 151.67 144.02 152.72 144.66 153.76 144.40 Z M 154.73 144.16 L 155.80 143.95 C 156.85 143.74 157.53 142.72 157.33 141.67 C 157.12 140.62 156.10 139.93 155.05 140.14 L 153.98 140.35 C 152.93 140.55 152.25 141.57 152.45 142.62 C 152.66 143.68 153.68 144.36 154.73 144.16 Z M 155.44 143.98 L 156.44 143.98 C 157.51 143.97 158.37 143.10 158.36 142.03 C 158.36 140.95 157.48 140.09 156.41 140.10 L 155.41 140.10 C 154.34 140.11 153.48 140.98 153.48 142.06 C 153.49 143.13 154.36 143.99 155.44 143.98 Z M 155.88 143.90 L 156.80 144.17 C 157.83 144.47 158.91 143.88 159.21 142.86 C 159.51 141.83 158.92 140.75 157.89 140.45 L 156.97 140.18 C 155.94 139.87 154.86 140.46 154.56 141.49 C 154.26 142.52 154.85 143.60 155.88 143.90 Z M 156.19 143.87 L 156.92 144.41 C 157.78 145.05 158.99 144.87 159.63 144.01 C 160.27 143.15 160.09 141.93 159.23 141.29 L 158.50 140.75 C 157.64 140.11 156.43 140.29 155.79 141.15 C 155.15 142.01 155.33 143.23 156.19 143.87 Z M 156.53 144.03 L 157.11 144.78 C 157.76 145.63 158.98 145.79 159.83 145.14 C 160.68 144.48 160.84 143.27 160.19 142.42 L 159.61 141.67 C 158.96 140.82 157.74 140.66 156.89 141.31 C 156.04 141.96 155.88 143.18 156.53 144.03 Z M 156.91 144.46 L 157.37 145.39 C 157.85 146.35 159.01 146.74 159.97 146.26 C 160.93 145.79 161.32 144.62 160.85 143.66 L 160.39 142.73 C 159.91 141.77 158.74 141.38 157.78 141.86 C 156.82 142.34 156.43 143.50 156.91 144.46 Z M 157.26 145.12 L 157.59 146.16 C 157.92 147.18 159.01 147.74 160.04 147.42 C 161.06 147.09 161.62 146.00 161.29 144.98 L 160.96 143.93 C 160.63 142.91 159.54 142.35 158.52 142.68 C 157.49 143.00 156.93 144.10 157.26 145.12 Z M 157.54 145.94 L 157.72 146.89 C 157.93 147.94 158.95 148.62 160.00 148.42 C 161.05 148.21 161.74 147.19 161.53 146.14 L 161.35 145.20 C 161.14 144.14 160.12 143.46 159.07 143.66 C 158.02 143.87 157.33 144.89 157.54 145.94 Z M 157.70 146.73 L 157.81 147.71 C 157.93 148.78 158.89 149.55 159.95 149.43 C 161.02 149.31 161.79 148.35 161.67 147.28 L 161.56 146.30 C 161.44 145.23 160.48 144.47 159.41 144.58 C 158.35 144.70 157.58 145.66 157.70 146.73 Z M 157.80 147.60 L 157.85 148.61 C 157.91 149.68 158.82 150.51 159.89 150.45 C 160.96 150.39 161.79 149.48 161.73 148.41 L 161.68 147.40 C 161.62 146.33 160.71 145.50 159.64 145.56 C 158.56 145.62 157.74 146.53 157.80 147.60 Z M 157.85 148.54 L 157.86 149.57 C 157.88 150.64 158.76 151.49 159.84 151.48 C 160.91 151.46 161.76 150.58 161.75 149.51 L 161.73 148.48 C 161.72 147.41 160.83 146.55 159.76 146.57 C 158.69 146.59 157.83 147.47 157.85 148.54 Z M 157.86 149.53 L 157.86 150.50 C 157.85 151.57 158.72 152.45 159.79 152.45 C 160.86 152.46 161.74 151.59 161.74 150.52 L 161.75 149.55 C 161.75 148.47 160.89 147.60 159.82 147.59 C 158.74 147.59 157.87 148.45 157.86 149.53 Z M 157.86 150.45 L 157.83 151.42 C 157.79 152.49 158.64 153.39 159.71 153.42 C 160.78 153.46 161.68 152.61 161.71 151.54 L 161.74 150.57 C 161.78 149.50 160.93 148.60 159.86 148.57 C 158.79 148.54 157.89 149.38 157.86 150.45 Z M 157.83 151.34 L 157.76 152.33 C 157.68 153.40 158.49 154.33 159.56 154.41 C 160.63 154.48 161.56 153.68 161.64 152.61 L 161.71 151.62 C 161.78 150.55 160.98 149.62 159.91 149.54 C 158.84 149.47 157.91 150.27 157.83 151.34 Z M 157.77 152.23 L 157.64 153.24 C 157.51 154.30 158.26 155.28 159.33 155.41 C 160.39 155.54 161.36 154.79 161.50 153.73 L 161.63 152.71 C 161.76 151.65 161.01 150.68 159.94 150.54 C 158.88 150.41 157.91 151.16 157.77 152.23 Z M 157.66 153.12 L 157.47 154.15 C 157.27 155.21 157.96 156.22 159.01 156.42 C 160.07 156.62 161.08 155.93 161.28 154.87 L 161.48 153.84 C 161.68 152.79 160.98 151.77 159.93 151.57 C 158.88 151.38 157.86 152.07 157.66 153.12 Z M 157.49 154.04 L 157.24 155.04 C 156.98 156.08 157.62 157.13 158.66 157.39 C 159.70 157.65 160.76 157.02 161.01 155.97 L 161.26 154.98 C 161.52 153.94 160.88 152.89 159.84 152.63 C 158.80 152.37 157.75 153.00 157.49 154.04 Z M 157.26 154.96 L 156.97 155.96 C 156.67 156.99 157.26 158.07 158.29 158.37 C 159.32 158.67 160.40 158.08 160.70 157.05 L 160.99 156.05 C 161.29 155.02 160.70 153.94 159.67 153.64 C 158.64 153.34 157.56 153.93 157.26 154.96 Z M 156.99 155.91 L 156.68 156.88 C 156.35 157.90 156.91 159.00 157.93 159.32 C 158.95 159.65 160.04 159.09 160.37 158.07 L 160.69 157.10 C 161.02 156.08 160.46 154.98 159.43 154.65 C 158.41 154.32 157.32 154.89 156.99 155.91 Z M 156.69 156.85 L 156.37 157.77 C 156.02 158.78 156.56 159.89 157.58 160.24 C 158.59 160.58 159.70 160.04 160.04 159.03 L 160.36 158.11 C 160.71 157.09 160.17 155.99 159.15 155.64 C 158.14 155.29 157.04 155.83 156.69 156.85 Z M 156.38 157.75 L 156.04 158.69 C 155.69 159.70 156.22 160.81 157.23 161.17 C 158.24 161.53 159.35 161.00 159.71 159.99 L 160.04 159.05 C 160.40 158.04 159.87 156.93 158.86 156.57 C 157.84 156.21 156.73 156.74 156.38 157.75 Z M 156.05 158.68 L 155.68 159.70 C 155.32 160.71 155.85 161.83 156.86 162.19 C 157.87 162.55 158.98 162.02 159.34 161.01 L 159.70 159.99 C 160.07 158.98 159.54 157.87 158.53 157.51 C 157.52 157.15 156.41 157.67 156.05 158.68 Z M 155.68 159.70 L 155.35 160.61 C 154.99 161.62 155.51 162.73 156.52 163.10 C 157.53 163.46 158.64 162.94 159.01 161.93 L 159.34 161.02 C 159.70 160.01 159.18 158.90 158.17 158.53 C 157.16 158.17 156.05 158.69 155.68 159.70 Z M 155.36 160.60 L 155.04 161.46 C 154.67 162.46 155.19 163.58 156.20 163.95 C 157.20 164.32 158.32 163.80 158.69 162.79 L 159.00 161.94 C 159.37 160.93 158.86 159.81 157.85 159.45 C 156.84 159.08 155.73 159.59 155.36 160.60 Z M 155.04 161.45 L 154.71 162.35 C 154.34 163.36 154.85 164.47 155.86 164.84 C 156.87 165.22 157.98 164.70 158.35 163.70 L 158.69 162.80 C 159.06 161.79 158.55 160.68 157.54 160.30 C 156.53 159.93 155.42 160.45 155.04 161.45 Z M 154.71 162.35 L 154.37 163.28 C 153.99 164.28 154.51 165.40 155.51 165.78 C 156.52 166.15 157.63 165.64 158.01 164.63 L 158.35 163.70 C 158.73 162.69 158.22 161.58 157.21 161.20 C 156.20 160.83 155.09 161.34 154.71 162.35 Z M 154.37 163.28 L 154.01 164.23 C 153.64 165.23 154.15 166.35 155.16 166.72 C 156.17 167.10 157.28 166.58 157.66 165.58 L 158.01 164.63 C 158.38 163.62 157.87 162.51 156.86 162.13 C 155.86 161.76 154.74 162.27 154.37 163.28 Z M 154.01 164.23 L 153.66 165.19 C 153.29 166.19 153.81 167.31 154.81 167.68 C 155.82 168.05 156.94 167.53 157.31 166.53 L 157.66 165.57 C 158.03 164.57 157.51 163.45 156.51 163.08 C 155.50 162.71 154.38 163.23 154.01 164.23 Z M 153.66 165.19 L 153.31 166.14 C 152.95 167.15 153.46 168.26 154.47 168.63 C 155.48 169.00 156.59 168.48 156.96 167.47 L 157.31 166.52 C 157.68 165.52 157.16 164.40 156.15 164.03 C 155.14 163.67 154.03 164.18 153.66 165.19 Z M 153.32 166.14 L 152.97 167.08 C 152.60 168.08 153.11 169.20 154.12 169.57 C 155.13 169.94 156.24 169.43 156.61 168.42 L 156.96 167.48 C 157.33 166.47 156.81 165.36 155.81 164.98 C 154.80 164.61 153.69 165.13 153.32 166.14 Z M 152.97 167.06 L 152.63 167.99 C 152.25 168.99 152.76 170.11 153.76 170.49 C 154.76 170.86 155.88 170.36 156.26 169.35 L 156.61 168.43 C 156.98 167.43 156.48 166.31 155.47 165.93 C 154.47 165.55 153.35 166.06 152.97 167.06 Z M 152.64 167.97 L 152.30 168.83 C 151.91 169.83 152.41 170.95 153.40 171.34 C 154.40 171.73 155.53 171.23 155.92 170.24 L 156.25 169.37 C 156.64 168.37 156.15 167.25 155.15 166.86 C 154.15 166.47 153.02 166.97 152.64 167.97 Z M 152.31 168.81 L 151.95 169.69 C 151.56 170.68 152.04 171.81 153.03 172.21 C 154.03 172.61 155.16 172.13 155.56 171.13 L 155.91 170.25 C 156.31 169.26 155.83 168.13 154.83 167.73 C 153.84 167.33 152.71 167.81 152.31 168.81 Z M 151.96 169.68 L 151.57 170.63 C 151.16 171.62 151.64 172.75 152.63 173.16 C 153.62 173.57 154.75 173.09 155.16 172.10 L 155.55 171.15 C 155.96 170.16 155.48 169.03 154.49 168.62 C 153.50 168.21 152.37 168.68 151.96 169.68 Z M 151.57 170.62 L 151.17 171.60 C 150.76 172.59 151.22 173.72 152.21 174.13 C 153.20 174.54 154.34 174.07 154.75 173.09 L 155.15 172.11 C 155.56 171.12 155.10 169.99 154.11 169.58 C 153.12 169.17 151.98 169.63 151.57 170.62 Z M 151.17 171.59 L 150.80 172.47 C 150.39 173.45 150.85 174.59 151.84 175.00 C 152.83 175.42 153.96 174.95 154.38 173.97 L 154.74 173.09 C 155.16 172.10 154.69 170.97 153.71 170.55 C 152.72 170.14 151.58 170.60 151.17 171.59 Z M 150.81 172.46 L 150.41 173.38 C 150.00 174.37 150.46 175.51 151.44 175.93 C 152.43 176.34 153.56 175.88 153.98 174.90 L 154.37 173.97 C 154.79 172.99 154.33 171.85 153.35 171.43 C 152.36 171.01 151.23 171.47 150.81 172.46 Z M 150.42 173.37 L 150.01 174.33 C 149.58 175.31 150.04 176.45 151.02 176.87 C 152.00 177.29 153.14 176.84 153.56 175.86 L 153.98 174.91 C 154.40 173.93 153.95 172.79 152.97 172.36 C 151.98 171.94 150.84 172.39 150.42 173.37 Z M 150.02 174.31 L 149.60 175.26 C 149.16 176.24 149.61 177.38 150.59 177.81 C 151.56 178.24 152.71 177.80 153.14 176.82 L 153.56 175.88 C 153.99 174.90 153.55 173.75 152.57 173.32 C 151.59 172.89 150.45 173.33 150.02 174.31 Z M 149.61 175.24 L 149.17 176.20 C 148.73 177.17 149.16 178.32 150.13 178.76 C 151.10 179.21 152.25 178.78 152.69 177.80 L 153.13 176.84 C 153.57 175.87 153.14 174.72 152.17 174.28 C 151.20 173.84 150.05 174.27 149.61 175.24 Z M 149.18 176.18 L 148.73 177.14 C 148.27 178.10 148.69 179.25 149.65 179.71 C 150.62 180.16 151.77 179.75 152.22 178.79 L 152.68 177.83 C 153.13 176.86 152.72 175.71 151.75 175.26 C 150.79 174.80 149.64 175.21 149.18 176.18 Z M 148.74 177.12 L 148.30 178.03 C 147.83 178.98 148.23 180.14 149.18 180.60 C 150.14 181.07 151.29 180.68 151.76 179.72 L 152.21 178.81 C 152.68 177.85 152.28 176.70 151.32 176.23 C 150.37 175.76 149.21 176.16 148.74 177.12 Z M 148.31 178.00 L 147.88 178.86 C 147.40 179.81 147.78 180.97 148.73 181.45 C 149.68 181.93 150.83 181.55 151.31 180.60 L 151.75 179.74 C 152.23 178.79 151.85 177.63 150.90 177.16 C 149.95 176.68 148.79 177.06 148.31 178.00 Z M 147.89 178.84 L 147.47 179.66 C 146.98 180.60 147.34 181.76 148.29 182.25 C 149.23 182.74 150.39 182.37 150.88 181.43 L 151.30 180.62 C 151.79 179.68 151.42 178.52 150.48 178.03 C 149.54 177.54 148.38 177.90 147.89 178.84 Z M 147.49 179.63 L 146.99 180.55 C 146.49 181.48 146.83 182.64 147.76 183.14 C 148.69 183.65 149.85 183.31 150.35 182.38 L 150.85 181.46 C 151.36 180.53 151.01 179.37 150.09 178.86 C 149.16 178.36 148.00 178.70 147.49 179.63 Z M 147.04 180.48 L 146.53 181.33 C 145.99 182.23 146.28 183.40 147.17 183.95 C 148.07 184.49 149.24 184.20 149.79 183.30 L 150.30 182.45 C 150.84 181.55 150.56 180.38 149.66 179.84 C 148.76 179.29 147.59 179.58 147.04 180.48 Z M 146.62 181.22 L 146.05 182.01 C 145.45 182.86 145.64 184.04 146.49 184.65 C 147.34 185.25 148.52 185.06 149.13 184.21 L 149.70 183.42 C 150.30 182.57 150.11 181.39 149.26 180.78 C 148.41 180.17 147.23 180.37 146.62 181.22 Z M 146.19 181.86 L 145.55 182.58 C 144.86 183.36 144.93 184.54 145.70 185.23 C 146.48 185.92 147.66 185.85 148.35 185.08 L 149.00 184.36 C 149.69 183.58 149.62 182.39 148.84 181.70 C 148.07 181.02 146.88 181.08 146.19 181.86 Z M 145.69 182.46 L 144.97 183.11 C 144.21 183.81 144.16 184.98 144.85 185.74 C 145.55 186.50 146.72 186.56 147.48 185.86 L 148.20 185.20 C 148.96 184.51 149.02 183.33 148.32 182.58 C 147.63 181.82 146.45 181.76 145.69 182.46 Z M 145.09 183.05 L 144.30 183.67 C 143.50 184.30 143.37 185.46 144.00 186.25 C 144.63 187.05 145.79 187.18 146.58 186.55 L 147.37 185.93 C 148.17 185.30 148.30 184.14 147.67 183.35 C 147.04 182.55 145.88 182.42 145.09 183.05 Z M 144.37 183.64 L 143.55 184.24 C 142.73 184.83 142.55 185.97 143.15 186.78 C 143.74 187.60 144.88 187.77 145.69 187.18 L 146.51 186.58 C 147.33 185.99 147.50 184.85 146.91 184.04 C 146.32 183.23 145.18 183.05 144.37 183.64 Z M 143.57 184.24 L 143.20 184.51 C 142.38 185.09 142.19 186.21 142.77 187.02 C 143.34 187.84 144.47 188.03 145.28 187.45 L 145.66 187.18 C 146.47 186.61 146.67 185.48 146.09 184.67 C 145.51 183.86 144.39 183.66 143.57 184.24 Z"
      fill="black"
      fill-rule="nonzero" /></svg>