<svg xmlns="http://www.w3.org/2000/svg" width="300" height="300" viewBox="0 0 300 300">
<path d="M 139.00 120.10 L 138.26 120.80 C 137.58 121.45 137.56 122.53 138.21 123.21 C 138.86 123.90 139.94 123.92 140.63 123.27 L 141.36 122.57 C 142.04 121.92 142.07 120.83 141.42 120.15 C 140.76 119.47 139.68 119.44 139.00 120.10 Z M 138.23 120.83 L 137.52 121.54 C 136.86 122.21 136.86 123.29 137.53 123.96 C 138.20 124.62 139.28 124.62 139.95 123.95 L 140.66 123.24 C 141.32 122.57 141.32 121.49 140.65 120.82 C 139.98 120.16 138.90 120.16 138.23 120.83 Z M 137.46 121.61 L 136.80 122.36 C 136.17 123.06 136.23 124.13 136.94 124.76 C 137.64 125.39 138.71 125.33 139.34 124.63 L 140.01 123.88 C 140.63 123.18 140.57 122.10 139.87 121.48 C 139.17 120.85 138.09 120.91 137.46 121.61 Z M 136.72 122.46 L 136.12 123.25 C 135.55 124.00 135.70 125.07 136.45 125.63 C 137.20 126.20 138.26 126.05 138.83 125.31 L 139.43 124.52 C 139.99 123.77 139.85 122.70 139.10 122.14 C 138.35 121.57 137.28 121.72 136.72 122.46 Z M 136.02 123.41 L 135.51 124.25 C 135.03 125.06 135.29 126.10 136.10 126.58 C 136.90 127.06 137.94 126.80 138.43 125.99 L 138.93 125.15 C 139.41 124.34 139.15 123.30 138.35 122.82 C 137.54 122.34 136.50 122.60 136.02 123.41 Z M 135.41 124.45 L 135.04 125.32 C 134.67 126.18 135.06 127.18 135.92 127.55 C 136.78 127.92 137.78 127.52 138.15 126.66 L 138.53 125.79 C 138.90 124.93 138.50 123.94 137.64 123.57 C 136.78 123.20 135.78 123.59 135.41 124.45 Z M 134.97 125.52 L 134.73 126.35 C 134.47 127.25 134.99 128.18 135.88 128.44 C 136.78 128.70 137.72 128.19 137.98 127.29 L 138.22 126.46 C 138.48 125.56 137.96 124.63 137.06 124.37 C 136.17 124.11 135.23 124.62 134.97 125.52 Z M 134.70 126.51 L 134.53 127.40 C 134.36 128.31 134.96 129.20 135.88 129.37 C 136.79 129.54 137.68 128.93 137.85 128.02 L 138.01 127.13 C 138.19 126.21 137.58 125.33 136.67 125.16 C 135.75 124.99 134.87 125.59 134.70 126.51 Z M 134.51 127.52 L 134.41 128.47 C 134.31 129.40 134.97 130.23 135.90 130.33 C 136.82 130.44 137.65 129.77 137.76 128.84 L 137.86 127.90 C 137.97 126.97 137.30 126.14 136.38 126.03 C 135.45 125.93 134.62 126.60 134.51 127.52 Z M 134.40 128.56 L 134.34 129.57 C 134.29 130.50 135.00 131.29 135.92 131.35 C 136.85 131.40 137.65 130.70 137.70 129.77 L 137.76 128.76 C 137.82 127.83 137.11 127.03 136.18 126.98 C 135.25 126.92 134.46 127.63 134.40 128.56 Z M 134.35 129.63 L 134.32 130.70 C 134.30 131.63 135.03 132.40 135.96 132.42 C 136.88 132.45 137.65 131.71 137.67 130.79 L 137.70 129.71 C 137.72 128.78 136.99 128.01 136.06 127.99 C 135.14 127.97 134.37 128.70 134.35 129.63 Z M 134.32 130.74 L 134.32 131.88 C 134.31 132.80 135.06 133.55 135.98 133.56 C 136.90 133.57 137.66 132.82 137.66 131.90 L 137.67 130.75 C 137.68 129.83 136.93 129.08 136.01 129.07 C 135.08 129.07 134.33 129.81 134.32 130.74 Z M 134.32 131.89 L 134.32 132.96 C 134.32 133.89 135.07 134.63 135.99 134.63 C 136.91 134.63 137.66 133.89 137.66 132.96 L 137.66 131.89 C 137.66 130.96 136.91 130.21 135.99 130.21 C 135.07 130.21 134.32 130.96 134.32 131.89 Z M 134.32 132.96 L 134.32 133.97 C 134.32 134.89 135.06 135.64 135.98 135.64 C 136.91 135.64 137.65 134.90 137.66 133.98 L 137.66 132.97 C 137.66 132.04 136.92 131.30 135.99 131.29 C 135.07 131.29 134.32 132.04 134.32 132.96 Z M 134.32 133.96 L 134.31 134.99 C 134.30 135.91 135.04 136.66 135.96 136.67 C 136.89 136.68 137.64 135.94 137.65 135.02 L 137.66 133.99 C 137.66 133.06 136.92 132.31 136.00 132.30 C 135.08 132.30 134.33 133.04 134.32 133.96 Z M 134.31 134.97 L 134.29 136.01 C 134.28 136.94 135.01 137.70 135.93 137.71 C 136.85 137.73 137.61 137.00 137.63 136.08 L 137.65 135.03 C 137.66 134.11 136.93 133.35 136.01 133.34 C 135.09 133.32 134.33 134.05 134.31 134.97 Z M 134.29 135.99 L 134.26 137.03 C 134.23 137.95 134.95 138.72 135.87 138.75 C 136.79 138.78 137.56 138.06 137.59 137.14 L 137.62 136.10 C 137.65 135.18 136.93 134.41 136.01 134.38 C 135.09 134.35 134.32 135.07 134.29 135.99 Z M 134.26 137.00 L 134.21 138.02 C 134.16 138.94 134.87 139.72 135.79 139.77 C 136.71 139.81 137.49 139.11 137.54 138.19 L 137.59 137.17 C 137.63 136.25 136.93 135.47 136.01 135.42 C 135.09 135.37 134.31 136.08 134.26 137.00 Z M 134.22 137.98 L 134.14 138.97 C 134.07 139.89 134.76 140.68 135.67 140.75 C 136.59 140.82 137.39 140.14 137.46 139.22 L 137.53 138.23 C 137.60 137.31 136.91 136.52 136.00 136.45 C 135.08 136.38 134.28 137.06 134.22 137.98 Z M 134.15 138.92 L 134.05 139.86 C 133.95 140.78 134.61 141.60 135.52 141.69 C 136.43 141.79 137.25 141.13 137.35 140.22 L 137.45 139.27 C 137.55 138.36 136.89 137.54 135.98 137.44 C 135.06 137.35 134.24 138.01 134.15 138.92 Z M 134.06 139.79 L 133.91 140.74 C 133.78 141.64 134.40 142.49 135.31 142.62 C 136.21 142.76 137.06 142.14 137.20 141.23 L 137.34 140.29 C 137.47 139.38 136.85 138.54 135.94 138.40 C 135.04 138.26 134.19 138.89 134.06 139.79 Z M 133.93 140.63 L 133.68 141.78 C 133.49 142.67 134.05 143.56 134.95 143.75 C 135.84 143.95 136.73 143.38 136.92 142.49 L 137.18 141.34 C 137.37 140.44 136.81 139.56 135.91 139.36 C 135.02 139.17 134.13 139.73 133.93 140.63 Z M 133.72 141.63 L 133.40 142.65 C 133.12 143.52 133.60 144.45 134.47 144.73 C 135.35 145.01 136.28 144.53 136.56 143.65 L 136.88 142.63 C 137.16 141.76 136.68 140.83 135.81 140.55 C 134.94 140.27 134.00 140.75 133.72 141.63 Z M 133.46 142.47 L 133.06 143.37 C 132.69 144.21 133.06 145.19 133.90 145.56 C 134.74 145.94 135.72 145.56 136.09 144.73 L 136.49 143.83 C 136.87 142.99 136.49 142.01 135.65 141.64 C 134.82 141.26 133.84 141.64 133.46 142.47 Z M 133.16 143.19 L 132.68 143.98 C 132.20 144.76 132.45 145.78 133.23 146.26 C 134.01 146.73 135.03 146.49 135.51 145.70 L 135.99 144.91 C 136.47 144.13 136.22 143.11 135.44 142.63 C 134.66 142.16 133.64 142.41 133.16 143.19 Z M 132.81 143.79 L 132.25 144.48 C 131.67 145.19 131.77 146.24 132.48 146.81 C 133.19 147.39 134.23 147.29 134.81 146.58 L 135.38 145.89 C 135.96 145.18 135.85 144.14 135.14 143.56 C 134.44 142.98 133.39 143.08 132.81 143.79 Z M 132.41 144.31 L 131.71 144.95 C 131.04 145.56 130.99 146.61 131.61 147.29 C 132.22 147.96 133.27 148.01 133.95 147.39 L 134.65 146.76 C 135.32 146.14 135.37 145.09 134.75 144.41 C 134.13 143.74 133.09 143.69 132.41 144.31 Z M 131.92 144.78 L 130.99 145.39 C 130.22 145.90 130.01 146.92 130.51 147.69 C 131.01 148.46 132.04 148.67 132.81 148.17 L 133.74 147.56 C 134.51 147.05 134.72 146.03 134.22 145.26 C 133.72 144.49 132.69 144.28 131.92 144.78 Z M 131.28 145.24 L 130.30 145.63 C 129.45 145.97 129.04 146.94 129.38 147.80 C 129.73 148.65 130.70 149.06 131.55 148.72 L 132.52 148.32 C 133.37 147.98 133.79 147.01 133.44 146.16 C 133.10 145.31 132.13 144.89 131.28 145.24 Z M 130.74 145.51 L 129.81 145.62 C 128.89 145.72 128.23 146.55 128.34 147.46 C 128.44 148.38 129.26 149.04 130.18 148.93 L 131.11 148.83 C 132.03 148.73 132.69 147.90 132.59 146.99 C 132.48 146.07 131.66 145.41 130.74 145.51 Z M 130.49 145.68 L 129.68 145.43 C 128.80 145.15 127.86 145.64 127.58 146.53 C 127.31 147.41 127.80 148.35 128.68 148.62 L 129.50 148.87 C 130.38 149.15 131.32 148.66 131.59 147.77 C 131.87 146.89 131.37 145.95 130.49 145.68 Z M 130.37 145.84 L 129.84 145.30 C 129.18 144.64 128.12 144.64 127.46 145.29 C 126.81 145.94 126.80 147.00 127.45 147.66 L 127.99 148.20 C 128.64 148.86 129.70 148.87 130.36 148.21 C 131.02 147.56 131.02 146.50 130.37 145.84 Z M 130.16 145.76 L 129.82 145.05 C 129.43 144.21 128.42 143.85 127.58 144.25 C 126.74 144.65 126.39 145.66 126.79 146.50 L 127.12 147.20 C 127.52 148.04 128.53 148.40 129.37 148.00 C 130.21 147.60 130.56 146.60 130.16 145.76 Z M 129.94 145.36 L 129.72 144.47 C 129.49 143.57 128.57 143.02 127.66 143.25 C 126.76 143.48 126.22 144.40 126.44 145.30 L 126.67 146.19 C 126.90 147.09 127.82 147.64 128.72 147.41 C 129.62 147.18 130.17 146.26 129.94 145.36 Z M 129.76 144.68 L 129.64 143.66 C 129.53 142.73 128.69 142.07 127.76 142.18 C 126.83 142.29 126.17 143.13 126.28 144.06 L 126.40 145.09 C 126.51 146.01 127.35 146.68 128.28 146.57 C 129.21 146.46 129.87 145.61 129.76 144.68 Z M 129.66 143.82 L 129.63 142.71 C 129.61 141.77 128.83 141.03 127.89 141.05 C 126.95 141.07 126.21 141.85 126.23 142.79 L 126.26 143.90 C 126.28 144.84 127.06 145.58 128.00 145.56 C 128.94 145.54 129.68 144.76 129.66 143.82 Z M 129.63 142.84 L 129.69 141.67 C 129.74 140.73 129.02 139.93 128.08 139.88 C 127.14 139.84 126.34 140.56 126.29 141.50 L 126.23 142.66 C 126.18 143.60 126.90 144.40 127.84 144.45 C 128.78 144.50 129.59 143.78 129.63 142.84 Z M 129.69 141.78 L 129.82 140.65 C 129.93 139.71 129.26 138.86 128.32 138.75 C 127.38 138.64 126.54 139.32 126.43 140.25 L 126.29 141.39 C 126.18 142.33 126.86 143.17 127.79 143.28 C 128.73 143.39 129.58 142.72 129.69 141.78 Z M 129.81 140.75 L 129.99 139.74 C 130.15 138.80 129.53 137.92 128.60 137.75 C 127.67 137.59 126.78 138.21 126.61 139.14 L 126.44 140.15 C 126.27 141.09 126.90 141.97 127.83 142.14 C 128.76 142.30 129.65 141.68 129.81 140.75 Z M 129.97 139.82 L 130.20 138.83 C 130.41 137.91 129.84 136.99 128.91 136.78 C 127.99 136.56 127.07 137.14 126.86 138.07 L 126.63 139.06 C 126.42 139.98 126.99 140.90 127.92 141.11 C 128.84 141.32 129.76 140.75 129.97 139.82 Z M 130.18 138.91 L 130.46 137.94 C 130.71 137.03 130.18 136.08 129.26 135.83 C 128.35 135.57 127.40 136.10 127.15 137.02 L 126.87 137.98 C 126.62 138.90 127.15 139.85 128.06 140.10 C 128.98 140.36 129.93 139.83 130.18 138.91 Z M 130.44 138.02 L 130.75 137.07 C 131.05 136.17 130.55 135.19 129.65 134.90 C 128.75 134.60 127.77 135.09 127.48 135.99 L 127.16 136.94 C 126.87 137.84 127.36 138.82 128.26 139.12 C 129.17 139.41 130.14 138.92 130.44 138.02 Z M 130.73 137.14 L 131.07 136.21 C 131.41 135.32 130.96 134.33 130.07 133.99 C 129.17 133.66 128.18 134.11 127.84 135.00 L 127.50 135.93 C 127.16 136.82 127.61 137.81 128.51 138.15 C 129.40 138.48 130.39 138.03 130.73 137.14 Z M 131.05 136.27 L 131.43 135.37 C 131.80 134.49 131.38 133.47 130.50 133.11 C 129.62 132.74 128.61 133.15 128.24 134.04 L 127.87 134.94 C 127.50 135.82 127.91 136.83 128.79 137.20 C 129.67 137.57 130.69 137.15 131.05 136.27 Z M 131.41 135.42 L 131.82 134.53 C 132.22 133.66 131.83 132.64 130.96 132.24 C 130.09 131.84 129.07 132.22 128.67 133.09 L 128.26 133.98 C 127.87 134.85 128.25 135.88 129.12 136.28 C 129.99 136.67 131.01 136.29 131.41 135.42 Z M 131.80 134.58 L 132.26 133.64 C 132.69 132.78 132.34 131.74 131.48 131.32 C 130.62 130.89 129.58 131.24 129.16 132.10 L 128.69 133.04 C 128.27 133.90 128.62 134.94 129.47 135.37 C 130.33 135.79 131.37 135.44 131.80 134.58 Z M 132.24 133.69 L 132.73 132.77 C 133.18 131.92 132.86 130.87 132.01 130.42 C 131.17 129.97 130.12 130.29 129.67 131.14 L 129.18 132.06 C 128.73 132.90 129.05 133.95 129.90 134.40 C 130.74 134.85 131.79 134.53 132.24 133.69 Z M 132.71 132.81 L 133.21 131.92 C 133.69 131.09 133.39 130.03 132.56 129.56 C 131.72 129.08 130.66 129.38 130.19 130.21 L 129.69 131.10 C 129.21 131.93 129.51 132.99 130.34 133.46 C 131.17 133.94 132.23 133.65 132.71 132.81 Z M 133.19 131.96 L 133.71 131.11 C 134.20 130.28 133.93 129.21 133.11 128.72 C 132.29 128.23 131.22 128.49 130.73 129.32 L 130.21 130.17 C 129.72 130.99 129.98 132.06 130.81 132.56 C 131.63 133.05 132.70 132.79 133.19 131.96 Z M 133.69 131.14 L 134.21 130.32 C 134.72 129.50 134.48 128.43 133.67 127.91 C 132.86 127.40 131.78 127.64 131.27 128.46 L 130.74 129.28 C 130.23 130.09 130.47 131.17 131.29 131.68 C 132.10 132.20 133.17 131.95 133.69 131.14 Z M 134.19 130.35 L 134.71 129.56 C 135.24 128.75 135.02 127.67 134.22 127.14 C 133.42 126.61 132.34 126.83 131.81 127.63 L 131.28 128.42 C 130.75 129.23 130.97 130.31 131.78 130.84 C 132.58 131.37 133.66 131.15 134.19 130.35 Z M 134.70 129.58 L 135.26 128.77 C 135.81 127.98 135.61 126.89 134.81 126.34 C 134.02 125.80 132.94 126.00 132.39 126.79 L 131.83 127.60 C 131.28 128.40 131.48 129.48 132.27 130.03 C 133.06 130.58 134.15 130.38 134.70 129.58 Z M 135.23 128.81 L 135.84 127.99 C 136.41 127.21 136.24 126.12 135.47 125.55 C 134.69 124.98 133.60 125.14 133.03 125.92 L 132.42 126.75 C 131.85 127.52 132.01 128.61 132.79 129.18 C 133.57 129.76 134.66 129.59 135.23 128.81 Z M 135.78 128.06 L 136.41 127.29 C 137.02 126.54 136.92 125.44 136.17 124.83 C 135.43 124.22 134.33 124.33 133.72 125.07 L 133.08 125.85 C 132.47 126.59 132.58 127.69 133.33 128.30 C 134.07 128.91 135.17 128.80 135.78 128.06 Z M 136.33 127.38 L 137.00 126.68 C 137.67 125.98 137.64 124.88 136.94 124.21 C 136.24 123.55 135.14 123.57 134.47 124.27 L 133.80 124.98 C 133.14 125.67 133.16 126.78 133.86 127.44 C 134.56 128.11 135.66 128.08 136.33 127.38 Z M 136.88 126.79 L 137.62 126.16 C 138.34 125.53 138.42 124.42 137.79 123.69 C 137.16 122.97 136.06 122.89 135.33 123.52 L 134.60 124.15 C 133.87 124.79 133.79 125.89 134.42 126.62 C 135.05 127.35 136.15 127.42 136.88 126.79 Z M 137.46 126.28 L 138.28 125.72 C 139.07 125.17 139.27 124.08 138.73 123.29 C 138.18 122.49 137.10 122.29 136.30 122.84 L 135.48 123.40 C 134.69 123.94 134.49 125.03 135.03 125.83 C 135.58 126.62 136.67 126.82 137.46 126.28 Z M 138.10 125.82 L 139.01 125.35 C 139.86 124.90 140.20 123.85 139.75 122.99 C 139.30 122.14 138.25 121.81 137.39 122.25 L 136.48 122.73 C 135.63 123.18 135.30 124.23 135.74 125.09 C 136.19 125.94 137.24 126.27 138.10 125.82 Z M 138.82 125.43 L 139.80 125.06 C 140.70 124.72 141.15 123.72 140.81 122.82 C 140.47 121.91 139.47 121.46 138.57 121.80 L 137.59 122.17 C 136.68 122.51 136.23 123.51 136.57 124.42 C 136.91 125.32 137.91 125.77 138.82 125.43 Z M 139.58 125.13 L 140.58 124.90 C 141.52 124.68 142.11 123.74 141.89 122.80 C 141.67 121.86 140.73 121.28 139.79 121.50 L 138.79 121.73 C 137.85 121.95 137.26 122.89 137.48 123.83 C 137.70 124.76 138.64 125.35 139.58 125.13 Z M 140.31 124.94 L 141.30 124.87 C 142.27 124.80 142.99 123.96 142.92 123.00 C 142.85 122.04 142.02 121.32 141.06 121.39 L 140.07 121.46 C 139.10 121.52 138.38 122.36 138.45 123.32 C 138.52 124.28 139.35 125.01 140.31 124.94 Z M 140.95 124.86 L 141.89 124.98 C 142.85 125.10 143.72 124.43 143.85 123.47 C 143.97 122.52 143.30 121.64 142.34 121.52 L 141.41 121.40 C 140.45 121.27 139.57 121.95 139.45 122.90 C 139.33 123.86 140.00 124.73 140.95 124.86 Z M 141.46 124.87 L 142.28 125.20 C 143.18 125.56 144.19 125.13 144.56 124.24 C 144.92 123.35 144.49 122.33 143.60 121.97 L 142.77 121.63 C 141.88 121.27 140.86 121.70 140.50 122.59 C 140.14 123.48 140.57 124.50 141.46 124.87 Z M 141.87 124.96 L 142.53 125.48 C 143.29 126.07 144.39 125.94 144.98 125.18 C 145.57 124.42 145.44 123.32 144.68 122.73 L 144.02 122.21 C 143.26 121.62 142.16 121.75 141.57 122.51 C 140.97 123.27 141.11 124.36 141.87 124.96 Z M 142.25 125.20 L 142.81 125.90 C 143.42 126.65 144.51 126.76 145.26 126.16 C 146.01 125.55 146.13 124.46 145.53 123.71 L 144.96 123.01 C 144.36 122.26 143.26 122.14 142.51 122.75 C 141.76 123.35 141.64 124.45 142.25 125.20 Z M 142.64 125.65 L 143.11 126.49 C 143.58 127.34 144.64 127.64 145.48 127.17 C 146.32 126.71 146.63 125.65 146.16 124.80 L 145.69 123.96 C 145.23 123.11 144.17 122.81 143.32 123.28 C 142.48 123.74 142.18 124.80 142.64 125.65 Z M 143.02 126.29 L 143.40 127.26 C 143.76 128.16 144.77 128.59 145.66 128.24 C 146.56 127.89 147.00 126.87 146.64 125.98 L 146.26 125.01 C 145.90 124.11 144.89 123.67 144.00 124.03 C 143.10 124.38 142.66 125.39 143.02 126.29 Z M 143.35 127.10 L 143.66 128.17 C 143.92 129.10 144.89 129.63 145.81 129.36 C 146.74 129.10 147.27 128.13 147.00 127.21 L 146.70 126.14 C 146.43 125.21 145.46 124.68 144.54 124.95 C 143.61 125.21 143.08 126.18 143.35 127.10 Z M 143.63 128.05 L 143.86 129.17 C 144.06 130.11 144.99 130.71 145.93 130.51 C 146.87 130.31 147.47 129.39 147.27 128.44 L 147.03 127.33 C 146.83 126.39 145.91 125.78 144.97 125.98 C 144.03 126.18 143.43 127.11 143.63 128.05 Z M 143.85 129.08 L 144.00 130.08 C 144.15 131.03 145.05 131.68 146.00 131.53 C 146.95 131.38 147.60 130.49 147.45 129.54 L 147.29 128.53 C 147.14 127.58 146.25 126.94 145.30 127.08 C 144.35 127.23 143.70 128.13 143.85 129.08 Z M 143.99 130.00 L 144.11 131.03 C 144.22 131.98 145.08 132.67 146.04 132.56 C 146.99 132.46 147.68 131.59 147.57 130.64 L 147.46 129.61 C 147.35 128.66 146.49 127.97 145.53 128.08 C 144.57 128.19 143.89 129.05 143.99 130.00 Z M 144.10 130.96 L 144.18 131.99 C 144.25 132.95 145.08 133.67 146.04 133.60 C 147.00 133.53 147.72 132.70 147.65 131.74 L 147.58 130.71 C 147.51 129.75 146.68 129.03 145.72 129.10 C 144.76 129.16 144.03 130.00 144.10 130.96 Z M 144.17 131.92 L 144.21 132.94 C 144.24 133.90 145.04 134.66 146.00 134.63 C 146.96 134.59 147.72 133.79 147.69 132.83 L 147.66 131.81 C 147.62 130.84 146.82 130.09 145.86 130.12 C 144.90 130.15 144.14 130.96 144.17 131.92 Z M 144.21 132.87 L 144.20 133.87 C 144.19 134.84 144.96 135.62 145.93 135.63 C 146.89 135.64 147.67 134.86 147.68 133.90 L 147.69 132.90 C 147.70 131.94 146.92 131.15 145.96 131.14 C 145.00 131.14 144.21 131.91 144.21 132.87 Z M 144.20 133.80 L 144.15 134.77 C 144.11 135.73 144.85 136.55 145.81 136.60 C 146.77 136.64 147.58 135.90 147.63 134.94 L 147.68 133.97 C 147.73 133.01 146.99 132.20 146.03 132.15 C 145.06 132.10 144.25 132.84 144.20 133.80 Z M 144.16 134.69 L 144.07 135.62 C 143.98 136.57 144.68 137.42 145.64 137.51 C 146.60 137.60 147.45 136.90 147.54 135.94 L 147.63 135.02 C 147.72 134.06 147.01 133.21 146.06 133.12 C 145.10 133.03 144.25 133.74 144.16 134.69 Z M 144.08 135.51 L 143.91 136.63 C 143.76 137.58 144.42 138.47 145.37 138.62 C 146.32 138.76 147.21 138.11 147.35 137.16 L 147.53 136.05 C 147.67 135.10 147.02 134.21 146.07 134.06 C 145.12 133.91 144.23 134.56 144.08 135.51 Z M 143.94 136.49 L 143.69 137.52 C 143.47 138.45 144.04 139.39 144.98 139.62 C 145.91 139.84 146.85 139.26 147.08 138.33 L 147.32 137.30 C 147.55 136.37 146.97 135.43 146.04 135.20 C 145.10 134.98 144.16 135.55 143.94 136.49 Z M 143.74 137.35 L 143.42 138.28 C 143.10 139.19 143.57 140.18 144.48 140.50 C 145.39 140.82 146.38 140.34 146.70 139.43 L 147.03 138.50 C 147.35 137.59 146.87 136.60 145.96 136.28 C 145.05 135.96 144.06 136.44 143.74 137.35 Z M 143.50 138.09 L 143.08 138.94 C 142.66 139.80 143.01 140.84 143.88 141.27 C 144.74 141.69 145.78 141.33 146.21 140.47 L 146.62 139.62 C 147.04 138.76 146.69 137.72 145.82 137.29 C 144.96 136.87 143.92 137.23 143.50 138.09 Z M 143.20 138.74 L 142.69 139.50 C 142.15 140.30 142.37 141.38 143.17 141.91 C 143.97 142.45 145.05 142.23 145.58 141.43 L 146.09 140.67 C 146.62 139.87 146.41 138.79 145.61 138.25 C 144.81 137.72 143.73 137.94 143.20 138.74 Z M 142.84 139.31 L 142.21 140.01 C 141.57 140.73 141.64 141.83 142.35 142.47 C 143.07 143.11 144.17 143.04 144.81 142.33 L 145.43 141.62 C 146.07 140.90 146.01 139.81 145.29 139.17 C 144.57 138.53 143.47 138.59 142.84 139.31 Z M 142.38 139.85 L 141.63 140.49 C 140.91 141.11 140.82 142.21 141.45 142.94 C 142.07 143.67 143.17 143.75 143.90 143.13 L 144.64 142.49 C 145.37 141.86 145.45 140.77 144.83 140.04 C 144.20 139.31 143.11 139.23 142.38 139.85 Z M 141.80 140.36 L 140.97 140.92 C 140.18 141.45 139.96 142.53 140.49 143.33 C 141.03 144.12 142.11 144.34 142.90 143.81 L 143.73 143.25 C 144.53 142.72 144.75 141.64 144.21 140.84 C 143.68 140.04 142.60 139.83 141.80 140.36 Z M 141.13 140.82 L 140.24 141.29 C 139.39 141.73 139.06 142.78 139.50 143.63 C 139.95 144.48 141.00 144.81 141.85 144.37 L 142.74 143.90 C 143.59 143.46 143.92 142.41 143.48 141.56 C 143.03 140.71 141.98 140.38 141.13 140.82 Z M 140.39 141.22 L 139.45 141.60 C 138.56 141.96 138.13 142.97 138.49 143.86 C 138.85 144.75 139.86 145.18 140.75 144.82 L 141.69 144.44 C 142.58 144.08 143.01 143.07 142.65 142.18 C 142.30 141.29 141.28 140.86 140.39 141.22 Z M 139.60 141.55 L 138.61 141.84 C 137.69 142.12 137.17 143.09 137.44 144.00 C 137.72 144.92 138.69 145.44 139.60 145.17 L 140.60 144.87 C 141.52 144.60 142.04 143.63 141.76 142.71 C 141.49 141.79 140.52 141.27 139.60 141.55 Z M 138.78 141.80 L 137.74 142.00 C 136.80 142.18 136.18 143.09 136.36 144.03 C 136.53 144.97 137.44 145.59 138.38 145.41 L 139.43 145.21 C 140.37 145.03 140.99 144.12 140.81 143.18 C 140.63 142.24 139.72 141.62 138.78 141.80 Z M 137.97 141.97 L 136.95 142.03 C 135.99 142.08 135.26 142.90 135.31 143.85 C 135.36 144.81 136.18 145.54 137.13 145.49 L 138.15 145.44 C 139.11 145.38 139.84 144.57 139.79 143.61 C 139.74 142.65 138.92 141.92 137.97 141.97 Z M 137.25 142.04 L 136.29 141.92 C 135.34 141.81 134.47 142.48 134.35 143.43 C 134.24 144.38 134.91 145.25 135.86 145.36 L 136.83 145.48 C 137.78 145.60 138.64 144.92 138.76 143.97 C 138.88 143.02 138.20 142.16 137.25 142.04 Z M 136.67 142.02 L 135.80 141.69 C 134.90 141.36 133.91 141.82 133.57 142.72 C 133.24 143.62 133.70 144.61 134.60 144.94 L 135.47 145.27 C 136.37 145.60 137.37 145.14 137.70 144.24 C 138.03 143.34 137.57 142.35 136.67 142.02 Z M 136.22 141.92 L 135.49 141.39 C 134.72 140.82 133.64 140.99 133.07 141.76 C 132.51 142.54 132.68 143.62 133.45 144.18 L 134.18 144.72 C 134.95 145.28 136.03 145.11 136.60 144.34 C 137.16 143.57 136.99 142.49 136.22 141.92 Z M 135.82 141.70 L 135.25 140.99 C 134.65 140.25 133.56 140.13 132.81 140.73 C 132.07 141.33 131.95 142.42 132.55 143.16 L 133.12 143.87 C 133.72 144.62 134.82 144.73 135.56 144.13 C 136.30 143.53 136.42 142.44 135.82 141.70 Z M 135.44 141.29 L 135.00 140.42 C 134.56 139.57 133.52 139.24 132.67 139.67 C 131.82 140.11 131.48 141.15 131.91 142.00 L 132.36 142.87 C 132.79 143.72 133.84 144.05 134.69 143.62 C 135.54 143.18 135.88 142.14 135.44 141.29 Z M 135.11 140.70 L 134.81 139.72 C 134.52 138.81 133.55 138.30 132.64 138.58 C 131.72 138.86 131.21 139.83 131.50 140.75 L 131.80 141.73 C 132.09 142.64 133.06 143.15 133.97 142.87 C 134.88 142.58 135.39 141.61 135.11 140.70 Z M 134.86 139.97 L 134.71 138.92 C 134.56 137.98 133.68 137.33 132.73 137.47 C 131.79 137.61 131.14 138.49 131.28 139.44 L 131.44 140.49 C 131.58 141.44 132.46 142.09 133.41 141.95 C 134.36 141.80 135.01 140.92 134.86 139.97 Z M 134.72 139.17 L 134.72 138.11 C 134.71 137.16 133.93 136.39 132.97 136.39 C 132.02 136.40 131.25 137.18 131.25 138.14 L 131.26 139.19 C 131.27 140.15 132.05 140.92 133.01 140.91 C 133.96 140.90 134.73 140.12 134.72 139.17 Z M 134.70 138.34 L 134.82 137.40 C 134.94 136.45 134.27 135.59 133.32 135.47 C 132.37 135.35 131.50 136.02 131.38 136.97 L 131.27 137.91 C 131.15 138.86 131.82 139.72 132.77 139.84 C 133.72 139.96 134.59 139.29 134.70 138.34 Z M 134.78 137.60 L 135.01 136.66 C 135.24 135.73 134.67 134.80 133.74 134.57 C 132.81 134.34 131.88 134.91 131.65 135.84 L 131.42 136.77 C 131.19 137.70 131.76 138.64 132.69 138.87 C 133.62 139.09 134.56 138.53 134.78 137.60 Z M 134.96 136.84 L 135.29 135.91 C 135.62 135.01 135.15 134.02 134.25 133.70 C 133.36 133.37 132.36 133.84 132.04 134.74 L 131.70 135.66 C 131.38 136.56 131.84 137.55 132.74 137.88 C 133.64 138.20 134.63 137.74 134.96 136.84 Z M 135.23 136.07 L 135.66 135.16 C 136.07 134.29 135.71 133.26 134.84 132.85 C 133.98 132.44 132.95 132.81 132.54 133.67 L 132.10 134.58 C 131.69 135.45 132.06 136.48 132.92 136.89 C 133.79 137.30 134.82 136.93 135.23 136.07 Z M 135.59 135.29 L 136.12 134.39 C 136.60 133.57 136.33 132.51 135.51 132.02 C 134.68 131.54 133.62 131.81 133.14 132.64 L 132.61 133.53 C 132.12 134.36 132.40 135.42 133.22 135.90 C 134.05 136.39 135.11 136.11 135.59 135.29 Z M 136.04 134.51 L 136.65 133.64 C 137.20 132.86 137.02 131.78 136.23 131.23 C 135.45 130.68 134.37 130.87 133.82 131.65 L 133.21 132.52 C 132.66 133.30 132.85 134.38 133.63 134.93 C 134.42 135.48 135.49 135.29 136.04 134.51 Z M 136.58 133.74 L 137.21 132.97 C 137.81 132.23 137.70 131.14 136.96 130.53 C 136.22 129.93 135.13 130.04 134.52 130.78 L 133.90 131.56 C 133.29 132.30 133.41 133.39 134.15 133.99 C 134.89 134.59 135.98 134.48 136.58 133.74 Z M 137.14 133.05 L 137.82 132.31 C 138.47 131.61 138.43 130.51 137.72 129.87 C 137.02 129.22 135.93 129.26 135.28 129.96 L 134.60 130.70 C 133.95 131.40 133.99 132.50 134.69 133.15 C 135.39 133.79 136.49 133.75 137.14 133.05 Z M 137.75 132.39 L 138.48 131.68 C 139.17 131.02 139.19 129.93 138.54 129.24 C 137.88 128.55 136.78 128.52 136.09 129.18 L 135.36 129.89 C 134.67 130.55 134.64 131.64 135.30 132.33 C 135.96 133.02 137.05 133.05 137.75 132.39 Z M 138.40 131.76 L 139.17 131.10 C 139.90 130.49 140.00 129.40 139.38 128.67 C 138.77 127.94 137.68 127.84 136.95 128.46 L 136.17 129.11 C 135.44 129.73 135.35 130.82 135.96 131.55 C 136.58 132.28 137.67 132.37 138.40 131.76 Z M 139.09 131.17 L 139.89 130.58 C 140.66 130.01 140.83 128.93 140.26 128.16 C 139.69 127.39 138.61 127.23 137.84 127.79 L 137.03 128.39 C 136.27 128.96 136.10 130.04 136.67 130.81 C 137.24 131.58 138.32 131.74 139.09 131.17 Z M 139.80 130.64 L 140.63 130.11 C 141.43 129.60 141.67 128.53 141.16 127.73 C 140.65 126.92 139.58 126.68 138.77 127.20 L 137.94 127.73 C 137.14 128.24 136.90 129.31 137.41 130.11 C 137.92 130.92 138.99 131.16 139.80 130.64 Z M 140.51 130.18 L 141.43 129.69 C 142.28 129.25 142.60 128.20 142.15 127.36 C 141.70 126.51 140.66 126.19 139.81 126.64 L 138.89 127.13 C 138.05 127.57 137.73 128.62 138.17 129.47 C 138.62 130.31 139.67 130.63 140.51 130.18 Z M 141.27 129.77 L 142.33 129.35 C 143.22 128.99 143.65 127.98 143.29 127.09 C 142.93 126.21 141.93 125.78 141.04 126.13 L 139.98 126.56 C 139.09 126.92 138.66 127.93 139.02 128.81 C 139.37 129.70 140.38 130.13 141.27 129.77 Z M 142.08 129.43 L 143.11 129.19 C 144.04 128.96 144.62 128.03 144.40 127.10 C 144.17 126.17 143.24 125.59 142.31 125.81 L 141.28 126.05 C 140.35 126.27 139.78 127.21 140.00 128.14 C 140.22 129.07 141.15 129.65 142.08 129.43 Z M 142.74 129.23 L 143.68 129.22 C 144.64 129.20 145.41 128.41 145.39 127.45 C 145.37 126.49 144.58 125.73 143.62 125.74 L 142.68 125.76 C 141.72 125.78 140.95 126.57 140.97 127.53 C 140.99 128.49 141.78 129.25 142.74 129.23 Z M 143.15 129.15 L 143.98 129.40 C 144.90 129.67 145.87 129.15 146.15 128.23 C 146.43 127.31 145.90 126.34 144.98 126.06 L 144.15 125.81 C 143.23 125.54 142.26 126.06 141.99 126.98 C 141.71 127.90 142.23 128.87 143.15 129.15 Z M 143.37 129.07 L 144.04 129.63 C 144.78 130.24 145.88 130.14 146.50 129.40 C 147.11 128.66 147.01 127.56 146.27 126.94 L 145.59 126.39 C 144.85 125.77 143.75 125.88 143.14 126.62 C 142.52 127.36 142.63 128.46 143.37 129.07 Z M 143.65 129.17 L 144.05 129.85 C 144.54 130.68 145.61 130.95 146.44 130.46 C 147.27 129.97 147.55 128.90 147.06 128.07 L 146.66 127.40 C 146.17 126.57 145.10 126.29 144.27 126.78 C 143.44 127.27 143.16 128.34 143.65 129.17 Z M 143.89 129.51 L 144.17 130.34 C 144.47 131.26 145.46 131.76 146.38 131.46 C 147.30 131.15 147.79 130.16 147.49 129.25 L 147.21 128.41 C 146.91 127.49 145.92 126.99 145.00 127.30 C 144.08 127.60 143.59 128.59 143.89 129.51 Z M 144.10 130.09 L 144.27 131.06 C 144.44 132.01 145.34 132.65 146.30 132.49 C 147.25 132.32 147.89 131.41 147.72 130.46 L 147.55 129.50 C 147.39 128.54 146.48 127.90 145.53 128.07 C 144.58 128.23 143.94 129.14 144.10 130.09 Z M 144.24 130.87 L 144.31 131.92 C 144.37 132.89 145.20 133.62 146.17 133.56 C 147.13 133.51 147.87 132.67 147.81 131.71 L 147.75 130.65 C 147.69 129.69 146.86 128.95 145.89 129.01 C 144.92 129.07 144.19 129.90 144.24 130.87 Z M 144.30 131.75 L 144.27 132.85 C 144.24 133.82 145.00 134.63 145.97 134.66 C 146.94 134.69 147.75 133.93 147.78 132.96 L 147.82 131.87 C 147.85 130.90 147.09 130.09 146.12 130.05 C 145.15 130.02 144.33 130.78 144.30 131.75 Z M 144.28 132.70 L 144.15 133.79 C 144.03 134.76 144.72 135.64 145.69 135.75 C 146.65 135.86 147.53 135.17 147.64 134.21 L 147.77 133.11 C 147.89 132.15 147.20 131.27 146.23 131.16 C 145.26 131.04 144.39 131.73 144.28 132.70 Z M 144.17 133.64 L 143.95 134.70 C 143.75 135.66 144.37 136.59 145.32 136.79 C 146.27 136.98 147.21 136.37 147.40 135.41 L 147.62 134.36 C 147.82 133.40 147.21 132.47 146.25 132.27 C 145.30 132.08 144.37 132.69 144.17 133.64 Z M 143.99 134.53 L 143.66 135.60 C 143.37 136.53 143.89 137.52 144.82 137.81 C 145.75 138.10 146.74 137.58 147.03 136.65 L 147.36 135.58 C 147.65 134.65 147.13 133.66 146.20 133.37 C 145.27 133.08 144.28 133.60 143.99 134.53 Z M 143.72 135.42 L 143.30 136.39 C 142.91 137.28 143.32 138.32 144.22 138.71 C 145.11 139.10 146.15 138.69 146.54 137.80 L 146.96 136.83 C 147.35 135.94 146.94 134.90 146.05 134.51 C 145.15 134.12 144.11 134.53 143.72 135.42 Z M 143.39 136.22 L 142.89 137.10 C 142.40 137.94 142.70 139.02 143.54 139.51 C 144.39 139.99 145.47 139.69 145.95 138.85 L 146.45 137.97 C 146.94 137.12 146.64 136.04 145.80 135.56 C 144.95 135.08 143.87 135.37 143.39 136.22 Z M 142.99 136.94 L 142.42 137.73 C 141.85 138.52 142.03 139.62 142.82 140.19 C 143.61 140.76 144.71 140.58 145.28 139.79 L 145.85 139.01 C 146.42 138.22 146.25 137.11 145.45 136.54 C 144.66 135.97 143.56 136.15 142.99 136.94 Z M 142.53 137.58 L 141.91 138.29 C 141.26 139.01 141.32 140.13 142.05 140.78 C 142.78 141.43 143.89 141.37 144.54 140.64 L 145.17 139.94 C 145.82 139.21 145.76 138.09 145.03 137.44 C 144.30 136.79 143.18 136.86 142.53 137.58 Z M 142.03 138.16 L 141.36 138.78 C 140.64 139.44 140.59 140.56 141.25 141.28 C 141.91 142.00 143.03 142.04 143.75 141.38 L 144.42 140.76 C 145.14 140.10 145.19 138.98 144.53 138.26 C 143.86 137.55 142.75 137.50 142.03 138.16 Z M 141.50 138.66 L 140.60 139.33 C 139.82 139.91 139.65 141.02 140.24 141.80 C 140.82 142.59 141.93 142.75 142.71 142.17 L 143.61 141.50 C 144.39 140.92 144.56 139.81 143.97 139.03 C 143.39 138.24 142.28 138.08 141.50 138.66 Z M 140.79 139.20 L 139.82 139.75 C 138.96 140.22 138.66 141.30 139.13 142.16 C 139.61 143.01 140.69 143.32 141.54 142.84 L 142.52 142.29 C 143.38 141.82 143.68 140.74 143.21 139.88 C 142.73 139.03 141.65 138.72 140.79 139.20 Z M 140.08 139.62 L 139.13 139.96 C 138.20 140.29 137.72 141.31 138.05 142.23 C 138.38 143.16 139.40 143.64 140.32 143.31 L 141.28 142.97 C 142.20 142.64 142.68 141.62 142.35 140.69 C 142.02 139.77 141.01 139.29 140.08 139.62 Z M 139.52 139.87 L 138.64 139.97 C 137.66 140.08 136.96 140.96 137.07 141.93 C 137.18 142.91 138.06 143.61 139.04 143.50 L 139.93 143.40 C 140.90 143.29 141.60 142.41 141.49 141.43 C 141.38 140.46 140.50 139.75 139.52 139.87 Z M 139.24 140.00 L 138.47 139.82 C 137.51 139.60 136.55 140.19 136.33 141.15 C 136.11 142.11 136.71 143.07 137.67 143.29 L 138.44 143.47 C 139.40 143.69 140.36 143.10 140.58 142.14 C 140.80 141.18 140.20 140.22 139.24 140.00 Z M 139.17 140.15 L 138.52 139.64 C 137.75 139.03 136.62 139.16 136.01 139.93 C 135.40 140.71 135.54 141.83 136.31 142.44 L 136.96 142.96 C 137.74 143.57 138.86 143.44 139.47 142.66 C 140.08 141.89 139.95 140.76 139.17 140.15 Z M 138.94 140.11 L 138.46 139.32 C 137.94 138.48 136.84 138.21 136.00 138.73 C 135.16 139.24 134.89 140.34 135.41 141.18 L 135.89 141.97 C 136.41 142.81 137.50 143.08 138.35 142.56 C 139.19 142.05 139.45 140.95 138.94 140.11 Z M 138.63 139.69 L 138.30 138.70 C 137.99 137.76 136.98 137.26 136.05 137.56 C 135.11 137.87 134.60 138.88 134.91 139.82 L 135.24 140.81 C 135.54 141.74 136.55 142.25 137.49 141.95 C 138.43 141.64 138.94 140.63 138.63 139.69 Z M 138.37 138.97 L 138.18 137.86 C 138.03 136.89 137.11 136.23 136.13 136.39 C 135.16 136.55 134.50 137.46 134.66 138.44 L 134.84 139.55 C 135.00 140.52 135.92 141.18 136.89 141.02 C 137.87 140.86 138.53 139.94 138.37 138.97 Z M 138.21 138.06 L 138.15 137.03 C 138.11 136.04 137.27 135.28 136.28 135.33 C 135.30 135.38 134.54 136.22 134.59 137.21 L 134.64 138.24 C 134.69 139.22 135.53 139.98 136.51 139.93 C 137.50 139.88 138.26 139.04 138.21 138.06 Z M 138.15 137.20 L 138.20 136.21 C 138.25 135.23 137.48 134.39 136.50 134.35 C 135.51 134.30 134.68 135.07 134.63 136.05 L 134.59 137.03 C 134.54 138.02 135.30 138.85 136.29 138.90 C 137.27 138.94 138.11 138.18 138.15 137.20 Z M 138.18 136.38 L 138.32 135.40 C 138.46 134.42 137.78 133.52 136.81 133.38 C 135.83 133.24 134.93 133.92 134.79 134.90 L 134.65 135.88 C 134.51 136.86 135.19 137.76 136.17 137.90 C 137.14 138.04 138.05 137.36 138.18 136.38 Z M 138.29 135.57 L 138.53 134.59 C 138.76 133.64 138.17 132.67 137.22 132.44 C 136.26 132.21 135.29 132.79 135.06 133.75 L 134.82 134.73 C 134.59 135.68 135.18 136.65 136.14 136.88 C 137.09 137.11 138.06 136.53 138.29 135.57 Z M 138.48 134.76 L 138.81 133.81 C 139.14 132.88 138.65 131.86 137.72 131.53 C 136.80 131.20 135.78 131.69 135.45 132.62 L 135.11 133.58 C 134.78 134.51 135.27 135.53 136.20 135.85 C 137.13 136.18 138.15 135.69 138.48 134.76 Z M 138.74 133.98 L 139.17 133.07 C 139.60 132.18 139.21 131.11 138.32 130.69 C 137.43 130.27 136.37 130.65 135.95 131.54 L 135.52 132.45 C 135.10 133.34 135.48 134.41 136.37 134.83 C 137.26 135.25 138.32 134.87 138.74 133.98 Z M 139.09 133.23 L 139.60 132.38 C 140.11 131.53 139.84 130.44 138.99 129.93 C 138.15 129.42 137.05 129.69 136.54 130.53 L 136.03 131.38 C 135.52 132.23 135.80 133.33 136.64 133.83 C 137.48 134.34 138.58 134.07 139.09 133.23 Z M 139.51 132.52 L 140.10 131.72 C 140.69 130.93 140.53 129.81 139.74 129.22 C 138.94 128.63 137.82 128.79 137.24 129.59 L 136.64 130.39 C 136.05 131.18 136.21 132.30 137.01 132.89 C 137.80 133.48 138.92 133.32 139.51 132.52 Z M 139.99 131.86 L 140.67 131.11 C 141.33 130.38 141.28 129.25 140.55 128.59 C 139.82 127.92 138.69 127.98 138.02 128.71 L 137.35 129.45 C 136.68 130.18 136.73 131.31 137.47 131.98 C 138.20 132.64 139.33 132.59 139.99 131.86 Z M 140.54 131.24 L 141.29 130.57 C 142.03 129.91 142.09 128.78 141.43 128.04 C 140.76 127.31 139.63 127.24 138.90 127.91 L 138.15 128.58 C 137.41 129.24 137.35 130.37 138.01 131.11 C 138.67 131.84 139.81 131.90 140.54 131.24 Z M 141.15 130.69 L 141.96 130.10 C 142.76 129.52 142.94 128.40 142.36 127.60 C 141.78 126.80 140.66 126.62 139.85 127.20 L 139.04 127.79 C 138.24 128.37 138.06 129.49 138.64 130.29 C 139.22 131.09 140.34 131.27 141.15 130.69 Z M 141.78 130.22 L 142.78 129.67 C 143.65 129.19 143.96 128.09 143.48 127.22 C 143.00 126.36 141.91 126.04 141.04 126.52 L 140.04 127.08 C 139.17 127.56 138.85 128.65 139.33 129.52 C 139.81 130.39 140.91 130.70 141.78 130.22 Z M 142.53 129.79 L 143.54 129.42 C 144.48 129.07 144.96 128.04 144.62 127.11 C 144.28 126.17 143.24 125.69 142.31 126.03 L 141.29 126.40 C 140.36 126.74 139.88 127.78 140.22 128.71 C 140.56 129.65 141.59 130.13 142.53 129.79 Z M 143.16 129.51 L 144.13 129.39 C 145.12 129.25 145.81 128.35 145.68 127.36 C 145.55 126.37 144.64 125.67 143.65 125.81 L 142.69 125.93 C 141.70 126.07 141.00 126.97 141.14 127.96 C 141.27 128.95 142.18 129.65 143.16 129.51 Z M 143.53 129.37 L 144.37 129.54 C 145.35 129.74 146.31 129.11 146.51 128.13 C 146.71 127.15 146.07 126.19 145.09 125.99 L 144.25 125.82 C 143.27 125.62 142.31 126.25 142.12 127.23 C 141.92 128.21 142.55 129.17 143.53 129.37 Z M 143.61 129.19 L 144.25 129.69 C 145.04 130.31 146.18 130.17 146.80 129.39 C 147.41 128.60 147.28 127.46 146.49 126.84 L 145.85 126.34 C 145.07 125.72 143.92 125.86 143.31 126.65 C 142.69 127.44 142.82 128.58 143.61 129.19 Z M 143.77 129.14 L 144.16 129.83 C 144.64 130.71 145.74 131.04 146.62 130.56 C 147.50 130.08 147.82 128.97 147.34 128.09 L 146.96 127.39 C 146.48 126.51 145.38 126.19 144.50 126.67 C 143.62 127.15 143.29 128.26 143.77 129.14 Z M 143.99 129.43 L 144.23 130.32 C 144.49 131.29 145.48 131.87 146.45 131.61 C 147.42 131.35 148.00 130.36 147.74 129.39 L 147.50 128.50 C 147.25 127.53 146.25 126.95 145.28 127.21 C 144.31 127.46 143.74 128.46 143.99 129.43 Z M 144.18 130.04 L 144.28 131.07 C 144.38 132.06 145.28 132.79 146.27 132.69 C 147.27 132.59 148.00 131.70 147.90 130.70 L 147.79 129.67 C 147.69 128.67 146.80 127.95 145.80 128.05 C 144.80 128.15 144.08 129.04 144.18 130.04 Z M 144.27 130.85 L 144.26 131.96 C 144.24 132.96 145.04 133.78 146.05 133.80 C 147.05 133.82 147.87 133.02 147.89 132.01 L 147.91 130.91 C 147.92 129.91 147.12 129.08 146.12 129.07 C 145.12 129.05 144.29 129.85 144.27 130.85 Z M 144.27 131.78 L 144.14 132.89 C 144.03 133.89 144.74 134.79 145.74 134.90 C 146.74 135.02 147.64 134.30 147.75 133.30 L 147.88 132.19 C 147.99 131.19 147.28 130.29 146.28 130.18 C 145.28 130.07 144.38 130.78 144.27 131.78 Z M 144.17 132.72 L 143.94 133.80 C 143.74 134.78 144.36 135.74 145.35 135.95 C 146.33 136.16 147.29 135.53 147.50 134.55 L 147.72 133.47 C 147.93 132.49 147.30 131.53 146.32 131.32 C 145.34 131.11 144.38 131.74 144.17 132.72 Z M 143.99 133.63 L 143.67 134.63 C 143.37 135.59 143.90 136.61 144.85 136.91 C 145.81 137.21 146.83 136.68 147.13 135.73 L 147.45 134.72 C 147.75 133.76 147.22 132.74 146.27 132.44 C 145.31 132.14 144.29 132.67 143.99 133.63 Z M 143.73 134.46 L 143.33 135.40 C 142.94 136.32 143.37 137.39 144.29 137.78 C 145.21 138.18 146.28 137.75 146.67 136.82 L 147.07 135.89 C 147.47 134.97 147.04 133.90 146.12 133.51 C 145.19 133.11 144.13 133.54 143.73 134.46 Z M 143.41 135.24 L 142.94 136.11 C 142.46 136.99 142.79 138.10 143.67 138.57 C 144.55 139.05 145.65 138.72 146.13 137.84 L 146.60 136.98 C 147.08 136.09 146.75 134.99 145.87 134.51 C 144.99 134.04 143.89 134.36 143.41 135.24 Z M 143.02 135.98 L 142.49 136.78 C 141.93 137.62 142.17 138.75 143.00 139.30 C 143.84 139.85 144.97 139.62 145.52 138.78 L 146.05 137.98 C 146.60 137.14 146.37 136.01 145.53 135.46 C 144.70 134.91 143.57 135.14 143.02 135.98 Z M 142.57 136.67 L 141.99 137.42 C 141.37 138.21 141.51 139.35 142.30 139.97 C 143.10 140.58 144.24 140.44 144.85 139.65 L 145.44 138.90 C 146.05 138.10 145.91 136.96 145.12 136.35 C 144.33 135.73 143.18 135.88 142.57 136.67 Z M 142.08 137.31 L 141.27 138.19 C 140.60 138.93 140.65 140.08 141.39 140.76 C 142.13 141.43 143.28 141.38 143.95 140.64 L 144.76 139.76 C 145.44 139.02 145.38 137.87 144.64 137.19 C 143.90 136.52 142.75 136.57 142.08 137.31 Z M 141.41 138.06 L 140.53 138.84 C 139.78 139.51 139.71 140.65 140.37 141.40 C 141.04 142.15 142.18 142.22 142.93 141.56 L 143.82 140.77 C 144.57 140.11 144.64 138.96 143.97 138.21 C 143.31 137.46 142.16 137.39 141.41 138.06 Z M 140.78 138.66 L 139.95 139.17 C 139.09 139.69 138.83 140.81 139.35 141.66 C 139.88 142.52 141.00 142.78 141.85 142.26 L 142.68 141.74 C 143.53 141.22 143.80 140.10 143.27 139.25 C 142.75 138.40 141.63 138.13 140.78 138.66 Z M 140.56 138.93 L 139.85 139.07 C 138.87 139.26 138.22 140.21 138.41 141.19 C 138.60 142.17 139.55 142.82 140.53 142.63 L 141.24 142.49 C 142.22 142.30 142.87 141.35 142.68 140.37 C 142.49 139.39 141.54 138.74 140.56 138.93 Z M 141.19 139.34 L 140.68 139.00 C 139.85 138.45 138.72 138.68 138.17 139.52 C 137.62 140.35 137.85 141.48 138.69 142.03 L 139.20 142.36 C 140.03 142.91 141.15 142.68 141.70 141.84 C 142.25 141.01 142.02 139.89 141.19 139.34 Z M 141.38 139.88 L 141.10 139.12 C 140.75 138.19 139.71 137.71 138.77 138.06 C 137.83 138.41 137.36 139.45 137.71 140.39 L 137.99 141.15 C 138.34 142.08 139.38 142.56 140.32 142.21 C 141.26 141.86 141.73 140.82 141.38 139.88 Z M 141.21 139.64 L 141.15 138.60 C 141.08 137.60 140.22 136.85 139.22 136.91 C 138.22 136.97 137.46 137.84 137.53 138.84 L 137.59 139.87 C 137.66 140.87 138.52 141.63 139.52 141.57 C 140.52 141.50 141.28 140.64 141.21 139.64 Z M 141.14 138.94 L 141.28 137.77 C 141.40 136.77 140.69 135.87 139.70 135.75 C 138.71 135.63 137.80 136.33 137.68 137.33 L 137.54 138.50 C 137.41 139.49 138.12 140.40 139.12 140.52 C 140.11 140.64 141.02 139.93 141.14 138.94 Z M 141.22 138.06 L 141.56 136.93 C 141.84 135.97 141.30 134.95 140.33 134.67 C 139.37 134.38 138.36 134.93 138.08 135.89 L 137.74 137.03 C 137.45 137.99 138.00 139.00 138.96 139.29 C 139.92 139.57 140.93 139.03 141.22 138.06 Z M 141.44 137.23 L 141.94 136.24 C 142.39 135.34 142.03 134.25 141.13 133.80 C 140.24 133.35 139.15 133.71 138.69 134.60 L 138.20 135.59 C 137.74 136.49 138.10 137.58 139.00 138.03 C 139.89 138.48 140.99 138.12 141.44 137.23 Z M 141.74 136.55 L 142.38 135.75 C 143.00 134.96 142.87 133.81 142.08 133.19 C 141.29 132.57 140.15 132.70 139.53 133.49 L 138.89 134.29 C 138.27 135.08 138.40 136.22 139.19 136.85 C 139.98 137.47 141.12 137.34 141.74 136.55 Z M 142.04 136.08 L 142.78 135.52 C 143.59 134.92 143.76 133.78 143.16 132.98 C 142.56 132.17 141.42 132.00 140.61 132.60 L 139.87 133.16 C 139.06 133.76 138.89 134.90 139.49 135.70 C 140.09 136.51 141.23 136.68 142.04 136.08 Z M 142.20 135.81 L 143.02 135.58 C 143.99 135.30 144.55 134.29 144.27 133.32 C 143.99 132.35 142.98 131.80 142.01 132.08 L 141.19 132.31 C 140.22 132.59 139.67 133.60 139.95 134.57 C 140.22 135.54 141.24 136.09 142.20 135.81 Z M 142.24 135.63 L 143.14 135.77 C 144.14 135.92 145.07 135.24 145.22 134.25 C 145.38 133.25 144.70 132.32 143.70 132.16 L 142.80 132.02 C 141.80 131.87 140.87 132.55 140.71 133.55 C 140.56 134.54 141.24 135.47 142.24 135.63 Z M 142.53 135.56 L 143.39 136.04 C 144.27 136.53 145.38 136.22 145.87 135.34 C 146.36 134.46 146.05 133.35 145.17 132.86 L 144.31 132.38 C 143.43 131.88 142.32 132.20 141.83 133.07 C 141.34 133.95 141.65 135.07 142.53 135.56 Z M 142.97 135.72 L 143.69 136.46 C 144.40 137.18 145.55 137.20 146.27 136.49 C 147.00 135.79 147.01 134.63 146.30 133.91 L 145.59 133.17 C 144.88 132.45 143.73 132.44 143.00 133.14 C 142.28 133.85 142.27 135.00 142.97 135.72 Z M 143.39 136.05 L 143.87 136.95 C 144.35 137.84 145.45 138.17 146.34 137.70 C 147.23 137.22 147.57 136.12 147.09 135.23 L 146.61 134.33 C 146.13 133.44 145.03 133.10 144.14 133.58 C 143.25 134.05 142.91 135.16 143.39 136.05 Z M 143.68 136.39 L 143.84 137.36 C 144.01 138.36 144.95 139.03 145.95 138.86 C 146.94 138.69 147.61 137.75 147.45 136.76 L 147.28 135.79 C 147.12 134.79 146.18 134.12 145.18 134.29 C 144.19 134.46 143.52 135.40 143.68 136.39 Z M 143.84 136.79 L 143.69 137.76 C 143.54 138.75 144.23 139.68 145.22 139.84 C 146.22 139.99 147.15 139.30 147.30 138.30 L 147.45 137.33 C 147.60 136.34 146.92 135.41 145.92 135.25 C 144.92 135.10 143.99 135.79 143.84 136.79 Z M 143.84 137.26 L 143.42 138.17 C 143.00 139.08 143.40 140.17 144.31 140.59 C 145.23 141.01 146.31 140.62 146.74 139.70 L 147.15 138.80 C 147.58 137.88 147.18 136.80 146.27 136.37 C 145.35 135.95 144.27 136.35 143.84 137.26 Z M 143.69 137.75 L 143.04 138.52 C 142.38 139.28 142.47 140.44 143.24 141.09 C 144.01 141.74 145.16 141.65 145.81 140.89 L 146.47 140.12 C 147.12 139.35 147.03 138.20 146.26 137.54 C 145.50 136.89 144.34 136.98 143.69 137.75 Z M 143.42 138.17 L 142.57 138.74 C 141.72 139.29 141.49 140.42 142.04 141.27 C 142.60 142.11 143.73 142.34 144.57 141.79 L 145.43 141.23 C 146.27 140.67 146.50 139.54 145.95 138.70 C 145.40 137.85 144.26 137.62 143.42 138.17 Z M 143.02 138.52 L 142.03 138.83 C 141.07 139.13 140.54 140.16 140.84 141.12 C 141.14 142.08 142.17 142.62 143.13 142.32 L 144.12 142.01 C 145.08 141.70 145.61 140.68 145.31 139.71 C 145.01 138.75 143.98 138.22 143.02 138.52 Z M 142.52 138.75 L 141.51 138.78 C 140.51 138.82 139.72 139.66 139.75 140.67 C 139.79 141.68 140.63 142.47 141.64 142.43 L 142.65 142.40 C 143.65 142.36 144.44 141.52 144.41 140.51 C 144.37 139.50 143.53 138.71 142.52 138.75 Z M 142.08 138.85 L 141.16 138.59 C 140.18 138.31 139.17 138.88 138.90 139.85 C 138.62 140.82 139.19 141.83 140.16 142.10 L 141.08 142.36 C 142.05 142.64 143.06 142.08 143.33 141.11 C 143.61 140.14 143.05 139.13 142.08 138.85 Z M 141.78 138.90 L 141.07 138.36 C 140.28 137.74 139.13 137.88 138.51 138.68 C 137.89 139.47 138.03 140.62 138.83 141.24 L 139.53 141.79 C 140.33 142.41 141.48 142.26 142.10 141.47 C 142.72 140.67 142.57 139.52 141.78 138.90 Z M 141.52 138.86 L 141.08 138.13 C 140.56 137.27 139.44 136.99 138.57 137.51 C 137.71 138.03 137.43 139.15 137.95 140.02 L 138.39 140.74 C 138.91 141.60 140.03 141.88 140.89 141.36 C 141.76 140.84 142.04 139.72 141.52 138.86 Z M 141.26 138.52 L 140.97 137.62 C 140.67 136.66 139.64 136.13 138.68 136.44 C 137.72 136.74 137.19 137.77 137.49 138.73 L 137.78 139.63 C 138.08 140.59 139.11 141.12 140.07 140.82 C 141.03 140.51 141.56 139.48 141.26 138.52 Z M 141.03 137.88 L 140.86 136.85 C 140.69 135.86 139.75 135.19 138.76 135.35 C 137.76 135.52 137.09 136.46 137.26 137.45 L 137.43 138.48 C 137.60 139.47 138.54 140.14 139.53 139.98 C 140.53 139.81 141.20 138.87 141.03 137.88 Z M 140.88 137.00 L 140.79 135.90 C 140.70 134.89 139.82 134.15 138.81 134.23 C 137.81 134.32 137.06 135.20 137.15 136.21 L 137.24 137.31 C 137.33 138.31 138.21 139.06 139.21 138.97 C 140.22 138.89 140.96 138.00 140.88 137.00 Z M 140.79 135.97 L 140.74 134.88 C 140.70 133.87 139.84 133.09 138.84 133.14 C 137.83 133.18 137.05 134.03 137.10 135.04 L 137.14 136.13 C 137.19 137.14 138.04 137.92 139.05 137.87 C 140.05 137.83 140.83 136.98 140.79 135.97 Z M 140.74 134.91 L 140.72 133.91 C 140.69 132.90 139.85 132.11 138.85 132.13 C 137.84 132.16 137.05 132.99 137.07 134.00 L 137.10 135.01 C 137.12 136.01 137.96 136.81 138.96 136.78 C 139.97 136.76 140.77 135.92 140.74 134.91 Z M 140.71 133.96 L 140.72 132.96 C 140.72 131.95 139.90 131.14 138.90 131.13 C 137.89 131.13 137.07 131.95 137.07 132.95 L 137.07 133.95 C 137.07 134.96 137.89 135.78 138.89 135.78 C 139.90 135.78 140.71 134.96 140.71 133.96 Z M 140.71 133.02 L 140.75 132.03 C 140.78 131.02 140.00 130.18 138.99 130.14 C 137.99 130.11 137.15 130.89 137.11 131.90 L 137.08 132.89 C 137.04 133.90 137.82 134.74 138.83 134.77 C 139.83 134.81 140.68 134.03 140.71 133.02 Z M 140.74 132.11 L 140.82 131.11 C 140.90 130.11 140.15 129.24 139.15 129.16 C 138.15 129.08 137.28 129.82 137.20 130.82 L 137.12 131.82 C 137.04 132.82 137.78 133.69 138.78 133.77 C 139.79 133.85 140.66 133.11 140.74 132.11 Z M 140.81 131.21 L 140.94 130.22 C 141.07 129.22 140.38 128.31 139.38 128.18 C 138.39 128.05 137.47 128.74 137.34 129.74 L 137.21 130.73 C 137.08 131.72 137.77 132.64 138.77 132.77 C 139.76 132.90 140.68 132.20 140.81 131.21 Z M 140.92 130.32 L 141.10 129.39 C 141.29 128.41 140.65 127.45 139.67 127.26 C 138.68 127.07 137.73 127.72 137.54 128.70 L 137.36 129.63 C 137.17 130.62 137.81 131.57 138.80 131.76 C 139.78 131.95 140.73 131.31 140.92 130.32 Z M 141.08 129.51 L 141.32 128.60 C 141.57 127.62 140.99 126.63 140.02 126.38 C 139.05 126.13 138.05 126.71 137.80 127.68 L 137.56 128.59 C 137.31 129.56 137.89 130.55 138.86 130.80 C 139.83 131.06 140.83 130.48 141.08 129.51 Z M 141.28 128.72 L 141.59 127.80 C 141.91 126.85 141.39 125.82 140.44 125.50 C 139.49 125.18 138.46 125.70 138.14 126.65 L 137.84 127.56 C 137.52 128.51 138.03 129.54 138.98 129.86 C 139.93 130.18 140.96 129.67 141.28 128.72 Z M 141.54 127.93 L 141.92 127.02 C 142.31 126.09 141.88 125.03 140.95 124.64 C 140.03 124.25 138.96 124.68 138.57 125.61 L 138.19 126.52 C 137.80 127.45 138.23 128.51 139.16 128.90 C 140.08 129.29 141.15 128.86 141.54 127.93 Z M 141.87 127.14 L 142.34 126.22 C 142.80 125.33 142.45 124.24 141.55 123.78 C 140.66 123.32 139.56 123.67 139.10 124.56 L 138.63 125.48 C 138.17 126.37 138.52 127.47 139.42 127.93 C 140.31 128.39 141.41 128.04 141.87 127.14 Z M 142.27 126.35 L 142.84 125.42 C 143.36 124.57 143.10 123.45 142.24 122.92 C 141.39 122.40 140.27 122.66 139.74 123.52 L 139.17 124.44 C 138.65 125.30 138.91 126.42 139.77 126.94 C 140.62 127.47 141.74 127.20 142.27 126.35 Z M 142.76 125.54 L 143.44 124.61 C 144.03 123.80 143.84 122.66 143.03 122.07 C 142.22 121.48 141.08 121.66 140.49 122.47 L 139.82 123.40 C 139.23 124.22 139.41 125.35 140.22 125.94 C 141.04 126.53 142.17 126.35 142.76 125.54 Z M 143.36 124.71 L 144.11 123.81 C 144.76 123.04 144.66 121.89 143.89 121.25 C 143.12 120.60 141.97 120.70 141.32 121.47 L 140.57 122.37 C 139.92 123.14 140.02 124.29 140.79 124.94 C 141.56 125.58 142.71 125.48 143.36 124.71 Z M 144.02 123.92 L 144.82 123.10 C 145.52 122.38 145.51 121.23 144.79 120.52 C 144.07 119.82 142.92 119.83 142.21 120.55 L 141.41 121.37 C 140.71 122.09 140.72 123.24 141.44 123.95 C 142.16 124.65 143.32 124.64 144.02 123.92 Z M 144.70 123.22 L 145.50 122.54 C 146.27 121.89 146.36 120.74 145.71 119.97 C 145.06 119.20 143.91 119.10 143.14 119.76 L 142.34 120.43 C 141.57 121.08 141.47 122.24 142.12 123.01 C 142.77 123.78 143.93 123.87 144.70 123.22 Z M 145.30 122.69 L 146.06 122.21 C 146.91 121.67 147.16 120.54 146.62 119.68 C 146.08 118.83 144.95 118.58 144.10 119.12 L 143.33 119.61 C 142.48 120.15 142.23 121.28 142.77 122.13 C 143.31 122.98 144.44 123.24 145.30 122.69 Z M 145.68 122.40 L 146.36 122.16 C 147.32 121.83 147.82 120.78 147.49 119.83 C 147.16 118.87 146.11 118.36 145.16 118.70 L 144.48 118.93 C 143.52 119.27 143.01 120.31 143.35 121.27 C 143.68 122.22 144.72 122.73 145.68 122.40 Z M 145.49 122.24 L 146.14 122.34 C 147.14 122.49 148.07 121.80 148.22 120.79 C 148.37 119.79 147.68 118.86 146.68 118.71 L 146.03 118.61 C 145.03 118.46 144.10 119.16 143.95 120.16 C 143.80 121.16 144.49 122.09 145.49 122.24 Z M 145.10 121.81 L 145.61 122.33 C 146.32 123.06 147.48 123.07 148.20 122.36 C 148.93 121.65 148.94 120.49 148.23 119.77 L 147.72 119.24 C 147.01 118.52 145.85 118.50 145.12 119.21 C 144.40 119.92 144.39 121.08 145.10 121.81 Z M 145.22 121.73 L 145.56 122.60 C 145.94 123.54 147.01 123.99 147.95 123.62 C 148.89 123.24 149.35 122.17 148.97 121.23 L 148.63 120.37 C 148.25 119.42 147.18 118.97 146.24 119.34 C 145.30 119.72 144.84 120.79 145.22 121.73 Z M 145.46 122.25 L 145.66 123.35 C 145.85 124.35 146.81 125.01 147.81 124.82 C 148.80 124.64 149.46 123.68 149.28 122.68 L 149.07 121.58 C 148.89 120.58 147.93 119.92 146.93 120.11 C 145.93 120.29 145.28 121.25 145.46 122.25 Z M 145.64 123.15 L 145.73 124.39 C 145.80 125.40 146.68 126.16 147.69 126.09 C 148.70 126.02 149.47 125.14 149.39 124.13 L 149.30 122.89 C 149.23 121.87 148.35 121.11 147.34 121.18 C 146.33 121.26 145.57 122.13 145.64 123.15 Z M 145.72 124.27 L 145.72 125.25 C 145.73 126.27 146.56 127.09 147.57 127.08 C 148.59 127.08 149.41 126.25 149.40 125.24 L 149.40 124.25 C 149.39 123.24 148.57 122.42 147.55 122.42 C 146.54 122.42 145.72 123.25 145.72 124.27 Z M 145.73 125.15 L 145.68 126.08 C 145.63 127.10 146.41 127.96 147.43 128.01 C 148.44 128.06 149.30 127.28 149.35 126.26 L 149.40 125.33 C 149.45 124.32 148.67 123.46 147.65 123.41 C 146.64 123.36 145.78 124.14 145.73 125.15 Z M 145.69 125.99 L 145.59 126.93 C 145.49 127.94 146.22 128.85 147.23 128.95 C 148.24 129.06 149.14 128.32 149.25 127.31 L 149.35 126.36 C 149.45 125.35 148.72 124.45 147.71 124.35 C 146.70 124.24 145.79 124.98 145.69 125.99 Z M 145.60 126.83 L 145.45 127.80 C 145.29 128.80 145.97 129.75 146.97 129.91 C 147.97 130.07 148.92 129.39 149.08 128.39 L 149.24 127.42 C 149.40 126.41 148.71 125.47 147.71 125.31 C 146.71 125.15 145.77 125.83 145.60 126.83 Z M 145.47 127.70 L 145.25 128.70 C 145.03 129.69 145.66 130.67 146.65 130.89 C 147.64 131.10 148.62 130.48 148.84 129.48 L 149.06 128.49 C 149.28 127.50 148.65 126.52 147.66 126.30 C 146.67 126.08 145.69 126.71 145.47 127.70 Z M 145.27 128.60 L 144.99 129.62 C 144.71 130.60 145.29 131.62 146.26 131.89 C 147.24 132.16 148.26 131.59 148.53 130.61 L 148.82 129.58 C 149.09 128.61 148.52 127.59 147.54 127.32 C 146.56 127.05 145.55 127.62 145.27 128.60 Z M 145.02 129.53 L 144.66 130.58 C 144.34 131.54 144.85 132.58 145.82 132.91 C 146.78 133.23 147.82 132.72 148.15 131.75 L 148.50 130.71 C 148.83 129.74 148.31 128.70 147.35 128.38 C 146.39 128.05 145.34 128.57 145.02 129.53 Z M 144.69 130.50 L 144.34 131.40 C 143.97 132.35 144.44 133.42 145.38 133.79 C 146.33 134.16 147.39 133.69 147.76 132.74 L 148.12 131.83 C 148.49 130.89 148.02 129.82 147.07 129.45 C 146.13 129.08 145.06 129.55 144.69 130.50 Z M 144.36 131.34 L 143.96 132.26 C 143.56 133.20 143.99 134.28 144.92 134.68 C 145.85 135.09 146.94 134.66 147.34 133.73 L 147.74 132.80 C 148.14 131.87 147.71 130.79 146.78 130.39 C 145.85 129.98 144.77 130.41 144.36 131.34 Z M 143.99 132.21 L 143.55 133.14 C 143.12 134.06 143.51 135.15 144.43 135.59 C 145.35 136.02 146.44 135.63 146.88 134.71 L 147.31 133.78 C 147.75 132.86 147.35 131.77 146.44 131.33 C 145.52 130.90 144.42 131.29 143.99 132.21 Z M 143.57 133.09 L 143.11 134.01 C 142.65 134.92 143.01 136.02 143.91 136.48 C 144.82 136.94 145.93 136.58 146.39 135.68 L 146.85 134.76 C 147.31 133.85 146.95 132.74 146.05 132.28 C 145.14 131.82 144.03 132.18 143.57 133.09 Z M 143.13 133.97 L 142.64 134.87 C 142.15 135.76 142.48 136.88 143.38 137.36 C 144.27 137.85 145.39 137.52 145.87 136.62 L 146.36 135.72 C 146.85 134.83 146.52 133.71 145.62 133.23 C 144.73 132.74 143.62 133.07 143.13 133.97 Z M 142.66 134.83 L 142.16 135.70 C 141.65 136.58 141.95 137.71 142.83 138.22 C 143.71 138.72 144.83 138.42 145.34 137.54 L 145.85 136.67 C 146.35 135.79 146.05 134.66 145.18 134.16 C 144.30 133.65 143.17 133.95 142.66 134.83 Z M 142.18 135.66 L 141.67 136.50 C 141.13 137.37 141.40 138.50 142.27 139.03 C 143.13 139.56 144.27 139.29 144.80 138.43 L 145.31 137.59 C 145.85 136.72 145.58 135.59 144.71 135.06 C 143.85 134.53 142.71 134.80 142.18 135.66 Z M 141.69 136.46 L 141.18 137.25 C 140.62 138.10 140.86 139.24 141.71 139.79 C 142.56 140.35 143.70 140.11 144.25 139.26 L 144.77 138.47 C 145.33 137.62 145.09 136.48 144.24 135.92 C 143.39 135.37 142.25 135.61 141.69 136.46 Z M 141.21 137.19 L 140.55 138.14 C 139.96 138.97 140.16 140.11 140.99 140.70 C 141.82 141.28 142.97 141.09 143.55 140.26 L 144.22 139.31 C 144.80 138.48 144.60 137.34 143.78 136.75 C 142.95 136.17 141.80 136.36 141.21 137.19 Z M 140.60 138.07 L 139.93 138.93 C 139.30 139.73 139.45 140.88 140.25 141.51 C 141.05 142.13 142.21 141.99 142.83 141.19 L 143.50 140.33 C 144.12 139.53 143.98 138.37 143.18 137.75 C 142.38 137.12 141.22 137.27 140.60 138.07 Z M 139.99 138.85 L 139.32 139.62 C 138.66 140.38 138.74 141.55 139.50 142.21 C 140.27 142.88 141.43 142.80 142.09 142.03 L 142.77 141.27 C 143.43 140.50 143.35 139.34 142.59 138.67 C 141.82 138.00 140.66 138.08 139.99 138.85 Z M 139.40 139.54 L 138.73 140.22 C 138.01 140.94 138.02 142.11 138.74 142.82 C 139.46 143.53 140.63 143.53 141.34 142.80 L 142.02 142.12 C 142.73 141.40 142.72 140.23 142.00 139.52 C 141.28 138.81 140.11 138.81 139.40 139.54 Z M 138.82 140.13 L 138.13 140.74 C 137.37 141.41 137.30 142.57 137.97 143.33 C 138.64 144.09 139.80 144.17 140.56 143.49 L 141.25 142.89 C 142.01 142.22 142.08 141.06 141.41 140.29 C 140.74 139.53 139.58 139.46 138.82 140.13 Z M 138.24 140.65 L 137.53 141.18 C 136.72 141.80 136.57 142.95 137.18 143.76 C 137.79 144.57 138.95 144.73 139.76 144.11 L 140.46 143.58 C 141.27 142.97 141.43 141.81 140.81 141.00 C 140.20 140.20 139.05 140.04 138.24 140.65 Z M 137.66 141.09 L 136.80 141.64 C 135.94 142.18 135.68 143.32 136.23 144.18 C 136.77 145.03 137.90 145.29 138.76 144.75 L 139.63 144.20 C 140.48 143.66 140.74 142.52 140.20 141.67 C 139.66 140.81 138.52 140.55 137.66 141.09 Z M 136.98 141.54 L 136.05 141.99 C 135.13 142.44 134.75 143.54 135.20 144.45 C 135.64 145.36 136.74 145.74 137.65 145.30 L 138.58 144.85 C 139.50 144.40 139.88 143.30 139.43 142.39 C 138.99 141.48 137.89 141.10 136.98 141.54 Z M 136.29 141.90 L 135.34 142.20 C 134.38 142.51 133.84 143.54 134.15 144.51 C 134.46 145.48 135.50 146.01 136.46 145.70 L 137.41 145.40 C 138.38 145.09 138.91 144.05 138.60 143.09 C 138.29 142.12 137.26 141.59 136.29 141.90 Z M 135.66 142.13 L 134.71 142.26 C 133.70 142.39 133.00 143.31 133.13 144.32 C 133.26 145.32 134.19 146.03 135.19 145.90 L 136.14 145.77 C 137.15 145.63 137.86 144.71 137.72 143.71 C 137.59 142.70 136.66 142.00 135.66 142.13 Z M 135.10 142.25 L 134.15 142.17 C 133.14 142.09 132.25 142.84 132.17 143.85 C 132.09 144.86 132.84 145.75 133.85 145.83 L 134.80 145.91 C 135.81 145.99 136.70 145.23 136.78 144.22 C 136.86 143.21 136.11 142.33 135.10 142.25 Z M 134.56 142.25 L 133.66 141.97 C 132.70 141.66 131.67 142.19 131.36 143.15 C 131.05 144.12 131.58 145.15 132.54 145.46 L 133.44 145.75 C 134.41 146.05 135.44 145.52 135.75 144.56 C 136.06 143.60 135.53 142.56 134.56 142.25 Z M 134.00 142.11 L 133.15 141.64 C 132.27 141.14 131.15 141.45 130.66 142.34 C 130.16 143.22 130.47 144.34 131.36 144.83 L 132.21 145.31 C 133.09 145.80 134.21 145.49 134.70 144.61 C 135.20 143.73 134.88 142.61 134.00 142.11 Z M 133.41 141.82 L 132.63 141.18 C 131.85 140.54 130.70 140.66 130.06 141.44 C 129.42 142.22 129.53 143.37 130.31 144.01 L 131.09 144.65 C 131.88 145.29 133.03 145.18 133.67 144.39 C 134.31 143.61 134.19 142.46 133.41 141.82 Z M 132.84 141.38 L 132.16 140.62 C 131.49 139.86 130.34 139.79 129.58 140.46 C 128.82 141.13 128.75 142.29 129.43 143.04 L 130.11 143.81 C 130.78 144.57 131.93 144.64 132.69 143.96 C 133.44 143.29 133.51 142.14 132.84 141.38 Z M 132.33 140.85 L 131.78 139.98 C 131.24 139.13 130.11 138.88 129.26 139.42 C 128.41 139.97 128.16 141.10 128.70 141.95 L 129.25 142.81 C 129.79 143.66 130.92 143.91 131.78 143.37 C 132.63 142.83 132.88 141.70 132.33 140.85 Z M 131.92 140.24 L 131.55 139.39 C 131.15 138.47 130.08 138.04 129.15 138.44 C 128.23 138.84 127.80 139.91 128.20 140.84 L 128.57 141.69 C 128.96 142.61 130.04 143.04 130.97 142.64 C 131.89 142.24 132.32 141.17 131.92 140.24 Z M 131.64 139.66 L 131.42 138.79 C 131.17 137.82 130.18 137.23 129.20 137.48 C 128.22 137.73 127.63 138.72 127.88 139.70 L 128.11 140.57 C 128.36 141.54 129.35 142.13 130.33 141.88 C 131.31 141.63 131.89 140.64 131.64 139.66 Z M 131.47 139.05 L 131.37 138.13 C 131.26 137.13 130.36 136.40 129.36 136.51 C 128.36 136.61 127.63 137.51 127.74 138.51 L 127.84 139.44 C 127.94 140.44 128.84 141.17 129.85 141.06 C 130.85 140.95 131.57 140.06 131.47 139.05 Z M 131.38 138.37 L 131.40 137.38 C 131.43 136.37 130.63 135.54 129.62 135.51 C 128.62 135.49 127.78 136.28 127.75 137.29 L 127.73 138.28 C 127.71 139.28 128.50 140.12 129.51 140.15 C 130.52 140.17 131.35 139.37 131.38 138.37 Z M 131.39 137.58 L 131.53 136.53 C 131.67 135.53 130.97 134.61 129.97 134.47 C 128.97 134.33 128.05 135.03 127.92 136.03 L 127.77 137.09 C 127.64 138.09 128.33 139.01 129.33 139.14 C 130.33 139.28 131.25 138.58 131.39 137.58 Z M 131.50 136.69 L 131.76 135.56 C 131.99 134.58 131.38 133.60 130.40 133.37 C 129.42 133.14 128.44 133.75 128.21 134.73 L 127.95 135.87 C 127.72 136.85 128.33 137.83 129.31 138.05 C 130.29 138.28 131.27 137.67 131.50 136.69 Z M 131.73 135.68 L 132.02 134.73 C 132.31 133.77 131.77 132.75 130.80 132.46 C 129.84 132.17 128.82 132.71 128.53 133.67 L 128.24 134.62 C 127.95 135.58 128.49 136.60 129.46 136.89 C 130.42 137.18 131.44 136.64 131.73 135.68 Z M 131.99 134.81 L 132.32 133.88 C 132.66 132.94 132.17 131.89 131.22 131.55 C 130.27 131.22 129.23 131.71 128.89 132.66 L 128.56 133.59 C 128.22 134.54 128.71 135.58 129.66 135.92 C 130.61 136.26 131.65 135.76 131.99 134.81 Z M 132.29 133.95 L 132.68 133.01 C 133.05 132.07 132.60 131.01 131.67 130.64 C 130.74 130.26 129.68 130.71 129.30 131.64 L 128.92 132.59 C 128.54 133.52 128.99 134.58 129.92 134.96 C 130.85 135.34 131.92 134.89 132.29 133.95 Z M 132.65 133.07 L 133.07 132.13 C 133.49 131.21 133.08 130.13 132.16 129.72 C 131.24 129.30 130.17 129.71 129.75 130.63 L 129.33 131.58 C 128.91 132.49 129.32 133.57 130.24 133.99 C 131.16 134.40 132.24 133.99 132.65 133.07 Z M 133.04 132.19 L 133.51 131.26 C 133.96 130.36 133.59 129.26 132.69 128.82 C 131.79 128.37 130.69 128.74 130.25 129.64 L 129.78 130.57 C 129.34 131.47 129.70 132.56 130.60 133.01 C 131.50 133.46 132.60 133.09 133.04 132.19 Z M 133.47 131.32 L 133.97 130.43 C 134.45 129.54 134.13 128.44 133.24 127.95 C 132.36 127.47 131.26 127.79 130.77 128.67 L 130.28 129.57 C 129.80 130.45 130.12 131.56 131.00 132.04 C 131.88 132.53 132.99 132.20 133.47 131.32 Z M 133.93 130.49 L 134.44 129.64 C 134.96 128.78 134.69 127.67 133.83 127.14 C 132.97 126.62 131.85 126.90 131.33 127.76 L 130.81 128.61 C 130.29 129.47 130.57 130.59 131.43 131.11 C 132.29 131.63 133.41 131.35 133.93 130.49 Z M 134.39 129.72 L 134.92 128.94 C 135.48 128.10 135.26 126.97 134.43 126.41 C 133.60 125.85 132.46 126.07 131.90 126.90 L 131.37 127.68 C 130.81 128.52 131.03 129.65 131.86 130.21 C 132.70 130.77 133.83 130.55 134.39 129.72 Z M 134.85 129.04 L 135.55 128.13 C 136.17 127.34 136.03 126.19 135.23 125.58 C 134.44 124.96 133.30 125.10 132.68 125.89 L 131.97 126.80 C 131.36 127.59 131.50 128.74 132.29 129.36 C 133.09 129.97 134.23 129.83 134.85 129.04 Z M 135.45 128.25 L 136.17 127.47 C 136.86 126.74 136.82 125.59 136.08 124.90 C 135.35 124.22 134.20 124.26 133.51 124.99 L 132.79 125.77 C 132.10 126.51 132.14 127.66 132.88 128.34 C 133.61 129.03 134.76 128.99 135.45 128.25 Z M 136.04 127.60 L 136.79 126.94 C 137.54 126.28 137.62 125.13 136.96 124.38 C 136.29 123.62 135.14 123.55 134.39 124.21 L 133.64 124.87 C 132.89 125.53 132.81 126.68 133.48 127.43 C 134.14 128.19 135.29 128.26 136.04 127.60 Z M 136.64 127.06 L 137.41 126.52 C 138.23 125.94 138.43 124.81 137.85 123.98 C 137.27 123.16 136.14 122.97 135.32 123.54 L 134.54 124.09 C 133.72 124.67 133.52 125.80 134.10 126.62 C 134.68 127.44 135.81 127.64 136.64 127.06 Z M 137.24 126.62 L 138.05 126.18 C 138.93 125.69 139.25 124.59 138.77 123.71 C 138.28 122.83 137.18 122.51 136.30 122.99 L 135.49 123.44 C 134.61 123.92 134.29 125.03 134.77 125.91 C 135.26 126.79 136.36 127.11 137.24 126.62 Z M 137.87 126.26 L 138.72 125.91 C 139.65 125.52 140.08 124.45 139.70 123.53 C 139.31 122.60 138.25 122.17 137.32 122.56 L 136.47 122.91 C 135.55 123.30 135.11 124.36 135.50 125.29 C 135.89 126.21 136.95 126.65 137.87 126.26 Z M 138.54 125.97 L 139.56 125.67 C 140.52 125.38 141.07 124.37 140.79 123.41 C 140.50 122.45 139.49 121.90 138.53 122.19 L 137.50 122.49 C 136.54 122.78 136.00 123.79 136.28 124.75 C 136.57 125.71 137.58 126.26 138.54 125.97 Z M 139.35 125.72 L 140.39 125.54 C 141.38 125.37 142.04 124.44 141.88 123.45 C 141.71 122.46 140.77 121.79 139.78 121.96 L 138.74 122.14 C 137.75 122.30 137.09 123.24 137.26 124.23 C 137.42 125.22 138.36 125.88 139.35 125.72 Z M 140.13 125.57 L 141.15 125.54 C 142.15 125.51 142.94 124.68 142.92 123.67 C 142.89 122.67 142.05 121.88 141.05 121.91 L 140.04 121.94 C 139.03 121.96 138.24 122.80 138.27 123.80 C 138.30 124.80 139.13 125.59 140.13 125.57 Z M 140.83 125.52 L 141.78 125.66 C 142.77 125.81 143.69 125.13 143.84 124.14 C 143.99 123.14 143.31 122.22 142.32 122.07 L 141.37 121.93 C 140.38 121.78 139.45 122.46 139.30 123.45 C 139.16 124.45 139.84 125.37 140.83 125.52 Z M 141.38 125.55 L 142.22 125.89 C 143.15 126.26 144.20 125.80 144.57 124.87 C 144.94 123.94 144.49 122.88 143.56 122.51 L 142.72 122.18 C 141.78 121.81 140.73 122.26 140.36 123.20 C 139.99 124.13 140.45 125.18 141.38 125.55 Z M 141.77 125.63 L 142.47 126.17 C 143.26 126.79 144.40 126.64 145.02 125.85 C 145.63 125.06 145.49 123.92 144.69 123.30 L 144.00 122.76 C 143.21 122.15 142.07 122.29 141.45 123.09 C 140.84 123.88 140.98 125.02 141.77 125.63 Z M 142.13 125.84 L 142.68 126.56 C 143.29 127.36 144.43 127.52 145.23 126.91 C 146.03 126.31 146.19 125.17 145.58 124.37 L 145.03 123.64 C 144.42 122.84 143.28 122.68 142.48 123.29 C 141.68 123.90 141.53 125.04 142.13 125.84 Z M 142.49 126.25 L 142.91 127.13 C 143.34 128.03 144.43 128.42 145.34 127.99 C 146.24 127.55 146.63 126.47 146.19 125.56 L 145.77 124.68 C 145.34 123.78 144.26 123.39 143.35 123.82 C 142.44 124.26 142.06 125.34 142.49 126.25 Z M 142.81 126.87 L 143.12 127.87 C 143.41 128.83 144.42 129.38 145.38 129.09 C 146.35 128.79 146.89 127.78 146.60 126.82 L 146.29 125.82 C 146.00 124.85 144.99 124.31 144.02 124.60 C 143.06 124.90 142.52 125.91 142.81 126.87 Z M 143.07 127.68 L 143.27 128.76 C 143.45 129.75 144.40 130.40 145.39 130.22 C 146.38 130.04 147.03 129.09 146.85 128.10 L 146.65 127.01 C 146.46 126.02 145.51 125.37 144.52 125.55 C 143.53 125.74 142.88 126.69 143.07 127.68 Z M 143.25 128.62 L 143.35 129.65 C 143.45 130.65 144.35 131.37 145.35 131.27 C 146.35 131.17 147.08 130.27 146.98 129.27 L 146.87 128.24 C 146.77 127.24 145.87 126.52 144.87 126.62 C 143.87 126.72 143.14 127.62 143.25 128.62 Z M 143.34 129.52 L 143.38 130.52 C 143.41 131.53 144.26 132.32 145.26 132.28 C 146.27 132.25 147.05 131.40 147.02 130.40 L 146.98 129.40 C 146.95 128.39 146.11 127.60 145.10 127.64 C 144.09 127.67 143.31 128.52 143.34 129.52 Z M 143.38 130.40 L 143.34 131.41 C 143.31 132.41 144.10 133.26 145.11 133.29 C 146.11 133.32 146.95 132.53 146.99 131.53 L 147.02 130.52 C 147.05 129.51 146.26 128.67 145.26 128.64 C 144.25 128.61 143.41 129.39 143.38 130.40 Z M 143.35 131.28 L 143.25 132.28 C 143.14 133.28 143.87 134.18 144.87 134.29 C 145.87 134.39 146.77 133.66 146.87 132.66 L 146.98 131.66 C 147.08 130.66 146.36 129.76 145.36 129.66 C 144.35 129.55 143.46 130.28 143.35 131.28 Z M 143.27 132.14 L 143.09 133.13 C 142.90 134.12 143.56 135.07 144.55 135.25 C 145.54 135.43 146.49 134.78 146.67 133.79 L 146.85 132.80 C 147.04 131.81 146.38 130.86 145.39 130.68 C 144.40 130.50 143.45 131.15 143.27 132.14 Z M 143.12 132.98 L 142.86 133.93 C 142.59 134.90 143.16 135.90 144.13 136.17 C 145.10 136.44 146.11 135.87 146.37 134.90 L 146.64 133.94 C 146.90 132.97 146.33 131.97 145.36 131.70 C 144.39 131.43 143.39 132.00 143.12 132.98 Z M 142.91 133.76 L 142.56 134.68 C 142.21 135.62 142.68 136.67 143.62 137.03 C 144.56 137.39 145.62 136.92 145.97 135.97 L 146.32 135.06 C 146.68 134.12 146.21 133.07 145.26 132.71 C 144.32 132.35 143.27 132.82 142.91 133.76 Z M 142.63 134.51 L 142.20 135.38 C 141.75 136.29 142.12 137.38 143.03 137.83 C 143.93 138.28 145.02 137.91 145.47 137.01 L 145.90 136.14 C 146.35 135.23 145.98 134.14 145.08 133.69 C 144.18 133.24 143.08 133.61 142.63 134.51 Z M 142.28 135.24 L 141.77 136.07 C 141.24 136.93 141.51 138.05 142.37 138.58 C 143.23 139.11 144.35 138.84 144.88 137.98 L 145.39 137.15 C 145.92 136.29 145.65 135.17 144.79 134.64 C 143.94 134.11 142.81 134.38 142.28 135.24 Z M 141.85 135.94 L 141.27 136.74 C 140.67 137.55 140.84 138.70 141.66 139.29 C 142.47 139.89 143.61 139.72 144.21 138.91 L 144.80 138.11 C 145.39 137.30 145.22 136.15 144.41 135.56 C 143.60 134.96 142.45 135.13 141.85 135.94 Z M 141.35 136.64 L 140.69 137.41 C 140.04 138.18 140.13 139.33 140.89 139.98 C 141.66 140.64 142.81 140.55 143.47 139.78 L 144.13 139.01 C 144.78 138.24 144.69 137.09 143.92 136.44 C 143.16 135.78 142.00 135.87 141.35 136.64 Z M 140.77 137.33 L 140.04 138.08 C 139.34 138.80 139.36 139.96 140.09 140.66 C 140.81 141.36 141.97 141.34 142.67 140.62 L 143.39 139.86 C 144.09 139.14 144.07 137.98 143.35 137.28 C 142.62 136.58 141.47 136.60 140.77 137.33 Z M 140.11 138.01 L 139.38 138.70 C 138.64 139.38 138.60 140.54 139.29 141.28 C 139.98 142.01 141.14 142.05 141.87 141.36 L 142.60 140.68 C 143.34 139.99 143.38 138.83 142.69 138.10 C 142.00 137.36 140.84 137.32 140.11 138.01 Z M 139.44 138.64 L 138.68 139.28 C 137.92 139.94 137.83 141.09 138.48 141.86 C 139.14 142.63 140.29 142.72 141.06 142.06 L 141.81 141.42 C 142.58 140.76 142.67 139.61 142.01 138.84 C 141.36 138.08 140.21 137.98 139.44 138.64 Z M 138.75 139.23 L 137.96 139.84 C 137.16 140.46 137.01 141.61 137.63 142.41 C 138.25 143.21 139.40 143.35 140.19 142.73 L 140.99 142.12 C 141.79 141.50 141.93 140.35 141.31 139.55 C 140.70 138.76 139.55 138.61 138.75 139.23 Z M 138.03 139.79 L 137.20 140.37 C 136.37 140.94 136.17 142.08 136.74 142.91 C 137.32 143.74 138.46 143.94 139.29 143.37 L 140.12 142.79 C 140.95 142.21 141.15 141.08 140.58 140.25 C 140.00 139.42 138.86 139.21 138.03 139.79 Z M 137.29 140.31 L 136.43 140.84 C 135.57 141.36 135.30 142.49 135.82 143.35 C 136.35 144.21 137.48 144.48 138.34 143.95 L 139.20 143.43 C 140.06 142.90 140.33 141.77 139.80 140.91 C 139.27 140.05 138.15 139.78 137.29 140.31 Z M 136.53 140.78 L 135.64 141.25 C 134.75 141.72 134.41 142.82 134.88 143.72 C 135.35 144.61 136.46 144.95 137.35 144.48 L 138.23 144.01 C 139.13 143.54 139.47 142.43 139.00 141.54 C 138.53 140.65 137.42 140.31 136.53 140.78 Z M 135.76 141.19 L 134.84 141.59 C 133.92 142.00 133.49 143.08 133.90 144.00 C 134.30 144.93 135.38 145.35 136.31 144.94 L 137.23 144.54 C 138.15 144.13 138.57 143.05 138.17 142.13 C 137.76 141.21 136.69 140.78 135.76 141.19 Z M 135.00 141.53 L 133.91 141.90 C 132.95 142.21 132.43 143.25 132.75 144.21 C 133.07 145.17 134.11 145.68 135.07 145.36 L 136.15 145.00 C 137.11 144.68 137.63 143.65 137.31 142.69 C 136.99 141.73 135.95 141.21 135.00 141.53 Z M 134.11 141.84 L 133.04 142.06 C 132.06 142.27 131.42 143.24 131.63 144.23 C 131.84 145.22 132.80 145.85 133.79 145.64 L 134.86 145.42 C 135.85 145.21 136.48 144.24 136.28 143.26 C 136.07 142.27 135.10 141.63 134.11 141.84 Z M 133.31 142.03 L 132.30 142.09 C 131.29 142.14 130.52 143.01 130.58 144.02 C 130.64 145.03 131.51 145.80 132.51 145.74 L 133.52 145.68 C 134.53 145.62 135.30 144.76 135.24 143.75 C 135.19 142.74 134.32 141.97 133.31 142.03 Z M 132.67 142.10 L 131.75 141.97 C 130.75 141.83 129.83 142.52 129.68 143.52 C 129.54 144.52 130.23 145.45 131.23 145.59 L 132.15 145.72 C 133.15 145.87 134.08 145.17 134.22 144.17 C 134.36 143.17 133.67 142.24 132.67 142.10 Z M 132.23 142.11 L 131.45 141.76 C 130.53 141.35 129.45 141.77 129.04 142.69 C 128.63 143.62 129.05 144.70 129.97 145.11 L 130.75 145.45 C 131.68 145.86 132.76 145.44 133.17 144.52 C 133.57 143.60 133.16 142.52 132.23 142.11 Z M 131.96 142.10 L 131.37 141.54 C 130.63 140.85 129.47 140.88 128.78 141.62 C 128.09 142.35 128.12 143.51 128.86 144.20 L 129.45 144.77 C 130.19 145.46 131.35 145.42 132.04 144.69 C 132.73 143.95 132.70 142.80 131.96 142.10 Z M 131.71 141.98 L 131.29 141.23 C 130.80 140.35 129.69 140.03 128.80 140.53 C 127.92 141.02 127.61 142.14 128.10 143.02 L 128.51 143.76 C 129.01 144.65 130.12 144.96 131.01 144.47 C 131.89 143.98 132.20 142.86 131.71 141.98 Z M 131.45 141.59 L 131.17 140.69 C 130.88 139.72 129.85 139.18 128.89 139.47 C 127.92 139.77 127.38 140.79 127.67 141.76 L 127.95 142.66 C 128.24 143.63 129.26 144.17 130.23 143.88 C 131.20 143.58 131.74 142.56 131.45 141.59 Z M 131.23 140.96 L 131.08 139.94 C 130.93 138.94 130.00 138.25 129.00 138.40 C 128.00 138.55 127.31 139.48 127.46 140.48 L 127.61 141.49 C 127.76 142.49 128.69 143.18 129.69 143.03 C 130.69 142.89 131.38 141.96 131.23 140.96 Z M 131.10 140.14 L 131.06 139.06 C 131.02 138.05 130.17 137.26 129.16 137.30 C 128.15 137.34 127.36 138.19 127.40 139.20 L 127.44 140.28 C 127.48 141.29 128.33 142.08 129.34 142.04 C 130.35 142.00 131.14 141.15 131.10 140.14 Z M 131.06 139.22 L 131.11 138.11 C 131.16 137.10 130.38 136.24 129.37 136.20 C 128.36 136.15 127.50 136.93 127.45 137.94 L 127.40 139.05 C 127.36 140.06 128.14 140.91 129.15 140.96 C 130.16 141.01 131.01 140.22 131.06 139.22 Z M 131.10 138.24 L 131.22 137.20 C 131.34 136.20 130.62 135.29 129.61 135.17 C 128.61 135.06 127.70 135.78 127.58 136.78 L 127.46 137.82 C 127.35 138.82 128.07 139.73 129.07 139.84 C 130.07 139.96 130.98 139.24 131.10 138.24 Z M 131.20 137.32 L 131.37 136.37 C 131.55 135.38 130.89 134.42 129.90 134.24 C 128.90 134.06 127.95 134.72 127.77 135.72 L 127.60 136.67 C 127.42 137.66 128.08 138.61 129.07 138.79 C 130.07 138.97 131.02 138.31 131.20 137.32 Z M 131.35 136.49 L 131.58 135.56 C 131.82 134.58 131.23 133.59 130.25 133.34 C 129.27 133.10 128.27 133.69 128.03 134.67 L 127.80 135.60 C 127.55 136.58 128.15 137.57 129.13 137.82 C 130.11 138.06 131.10 137.47 131.35 136.49 Z M 131.55 135.68 L 131.84 134.76 C 132.15 133.80 131.62 132.77 130.66 132.46 C 129.70 132.15 128.67 132.67 128.36 133.64 L 128.06 134.56 C 127.75 135.52 128.28 136.55 129.24 136.86 C 130.21 137.17 131.24 136.64 131.55 135.68 Z M 131.80 134.87 L 132.17 133.95 C 132.54 133.01 132.08 131.95 131.14 131.57 C 130.20 131.20 129.13 131.66 128.76 132.60 L 128.40 133.53 C 128.03 134.46 128.49 135.53 129.43 135.90 C 130.37 136.27 131.43 135.81 131.80 134.87 Z M 132.12 134.05 L 132.56 133.11 C 132.98 132.20 132.59 131.11 131.67 130.68 C 130.76 130.26 129.67 130.65 129.24 131.57 L 128.81 132.50 C 128.38 133.42 128.78 134.51 129.69 134.93 C 130.61 135.36 131.69 134.96 132.12 134.05 Z M 132.51 133.20 L 133.02 132.25 C 133.50 131.36 133.16 130.25 132.27 129.77 C 131.38 129.30 130.27 129.63 129.80 130.53 L 129.29 131.48 C 128.81 132.37 129.15 133.48 130.04 133.95 C 130.93 134.43 132.04 134.09 132.51 133.20 Z M 132.98 132.32 L 133.49 131.45 C 134.01 130.59 133.72 129.47 132.85 128.95 C 131.98 128.44 130.86 128.72 130.35 129.59 L 129.84 130.45 C 129.32 131.32 129.61 132.44 130.48 132.96 C 131.35 133.47 132.47 133.19 132.98 132.32 Z M 133.46 131.51 L 134.00 130.66 C 134.55 129.81 134.30 128.68 133.45 128.13 C 132.60 127.59 131.47 127.84 130.93 128.69 L 130.38 129.54 C 129.84 130.39 130.08 131.52 130.93 132.06 C 131.78 132.61 132.91 132.36 133.46 131.51 Z M 133.97 130.71 L 134.56 129.86 C 135.13 129.02 134.92 127.89 134.09 127.31 C 133.25 126.74 132.12 126.95 131.55 127.79 L 130.96 128.64 C 130.39 129.47 130.60 130.61 131.43 131.18 C 132.26 131.75 133.40 131.54 133.97 130.71 Z M 134.53 129.90 L 135.14 129.06 C 135.74 128.25 135.56 127.10 134.75 126.51 C 133.93 125.91 132.79 126.09 132.19 126.90 L 131.58 127.74 C 130.98 128.55 131.16 129.70 131.97 130.29 C 132.78 130.89 133.93 130.72 134.53 129.90 Z M 135.11 129.11 L 135.74 128.29 C 136.37 127.50 136.23 126.35 135.43 125.73 C 134.63 125.10 133.49 125.25 132.86 126.04 L 132.23 126.85 C 131.61 127.65 131.75 128.80 132.54 129.42 C 133.34 130.04 134.49 129.90 135.11 129.11 Z M 135.71 128.34 L 136.35 127.56 C 137.00 126.79 136.90 125.64 136.12 124.99 C 135.35 124.34 134.20 124.44 133.55 125.22 L 132.90 125.99 C 132.25 126.77 132.36 127.92 133.13 128.57 C 133.91 129.22 135.06 129.11 135.71 128.34 Z M 136.31 127.61 L 136.96 126.89 C 137.64 126.14 137.57 124.98 136.82 124.31 C 136.07 123.63 134.91 123.70 134.24 124.45 L 133.59 125.17 C 132.92 125.92 132.98 127.08 133.73 127.75 C 134.48 128.43 135.64 128.36 136.31 127.61 Z M 136.91 126.95 L 137.55 126.29 C 138.26 125.57 138.24 124.41 137.52 123.70 C 136.79 123.00 135.64 123.01 134.93 123.74 L 134.29 124.39 C 133.59 125.12 133.60 126.27 134.32 126.98 C 135.05 127.68 136.20 127.67 136.91 126.95 Z M 137.46 126.37 L 138.44 125.50 C 139.19 124.83 139.25 123.67 138.58 122.92 C 137.90 122.17 136.75 122.10 135.99 122.78 L 135.02 123.65 C 134.27 124.32 134.20 125.48 134.88 126.23 C 135.55 126.99 136.71 127.05 137.46 126.37 Z M 138.27 125.64 L 139.19 124.99 C 140.02 124.40 140.22 123.26 139.64 122.43 C 139.06 121.61 137.91 121.41 137.09 121.99 L 136.16 122.64 C 135.34 123.22 135.14 124.36 135.72 125.19 C 136.30 126.02 137.44 126.22 138.27 125.64 Z M 138.90 125.15 L 139.77 124.76 C 140.69 124.34 141.09 123.25 140.67 122.33 C 140.25 121.41 139.17 121.01 138.25 121.43 L 137.38 121.82 C 136.46 122.24 136.05 123.33 136.47 124.25 C 136.89 125.17 137.98 125.57 138.90 125.15 Z M 139.26 124.91 L 140.06 124.80 C 141.06 124.66 141.76 123.73 141.62 122.73 C 141.48 121.72 140.56 121.02 139.55 121.16 L 138.75 121.28 C 137.75 121.42 137.05 122.34 137.19 123.35 C 137.33 124.35 138.26 125.05 139.26 124.91 Z M 139.32 124.75 L 140.04 124.95 C 141.02 125.22 142.03 124.65 142.30 123.67 C 142.57 122.69 142.00 121.68 141.02 121.41 L 140.30 121.21 C 139.32 120.94 138.31 121.51 138.04 122.49 C 137.77 123.47 138.34 124.48 139.32 124.75 Z M 139.39 124.62 L 140.00 125.11 C 140.80 125.74 141.95 125.61 142.58 124.82 C 143.21 124.02 143.08 122.87 142.29 122.24 L 141.68 121.75 C 140.88 121.11 139.73 121.24 139.10 122.04 C 138.46 122.83 138.60 123.98 139.39 124.62 Z M 139.67 124.76 L 140.21 125.49 C 140.81 126.31 141.96 126.48 142.77 125.88 C 143.59 125.28 143.77 124.14 143.16 123.32 L 142.63 122.58 C 142.03 121.77 140.88 121.59 140.06 122.19 C 139.24 122.79 139.07 123.94 139.67 124.76 Z M 140.05 125.23 L 140.51 126.14 C 140.96 127.05 142.06 127.42 142.97 126.96 C 143.88 126.50 144.24 125.40 143.79 124.50 L 143.33 123.58 C 142.87 122.68 141.77 122.31 140.86 122.77 C 139.96 123.22 139.59 124.32 140.05 125.23 Z M 140.42 125.95 L 140.80 126.98 C 141.15 127.94 142.20 128.43 143.15 128.08 C 144.11 127.73 144.60 126.68 144.25 125.73 L 143.87 124.69 C 143.52 123.74 142.47 123.25 141.52 123.60 C 140.56 123.94 140.07 125.00 140.42 125.95 Z M 140.75 126.83 L 141.04 127.92 C 141.31 128.90 142.31 129.48 143.29 129.22 C 144.27 128.96 144.85 127.95 144.59 126.97 L 144.30 125.88 C 144.03 124.90 143.03 124.32 142.05 124.58 C 141.07 124.84 140.49 125.85 140.75 126.83 Z M 141.01 127.79 L 141.20 128.74 C 141.39 129.74 142.35 130.39 143.34 130.20 C 144.34 130.01 144.99 129.05 144.80 128.06 L 144.62 127.10 C 144.43 126.11 143.47 125.45 142.47 125.64 C 141.48 125.83 140.82 126.80 141.01 127.79 Z M 141.18 128.61 L 141.28 129.53 C 141.40 130.54 142.30 131.26 143.31 131.14 C 144.32 131.03 145.04 130.12 144.93 129.11 L 144.82 128.19 C 144.71 127.18 143.80 126.46 142.79 126.58 C 141.78 126.69 141.06 127.60 141.18 128.61 Z M 141.27 129.37 L 141.30 130.31 C 141.33 131.33 142.17 132.12 143.19 132.09 C 144.20 132.06 145.00 131.22 144.97 130.21 L 144.94 129.27 C 144.91 128.25 144.06 127.46 143.05 127.49 C 142.04 127.52 141.24 128.36 141.27 129.37 Z M 141.30 130.15 L 141.24 131.12 C 141.18 132.13 141.95 133.00 142.96 133.06 C 143.97 133.12 144.84 132.35 144.91 131.34 L 144.96 130.37 C 145.02 129.36 144.25 128.49 143.24 128.43 C 142.23 128.37 141.36 129.14 141.30 130.15 Z M 141.26 130.96 L 141.10 131.98 C 140.95 132.98 141.65 133.91 142.65 134.06 C 143.65 134.21 144.59 133.52 144.74 132.52 L 144.89 131.50 C 145.04 130.50 144.35 129.56 143.35 129.41 C 142.34 129.26 141.41 129.95 141.26 130.96 Z M 141.13 131.83 L 140.88 132.91 C 140.65 133.90 141.26 134.88 142.24 135.12 C 143.23 135.35 144.22 134.74 144.45 133.75 L 144.71 132.67 C 144.94 131.68 144.33 130.69 143.34 130.46 C 142.35 130.23 141.37 130.84 141.13 131.83 Z M 140.91 132.79 L 140.60 133.78 C 140.30 134.75 140.84 135.78 141.81 136.08 C 142.78 136.38 143.81 135.84 144.11 134.87 L 144.42 133.87 C 144.72 132.90 144.18 131.88 143.21 131.58 C 142.24 131.28 141.21 131.82 140.91 132.79 Z M 140.63 133.69 L 140.29 134.62 C 139.94 135.57 140.43 136.63 141.38 136.98 C 142.33 137.33 143.39 136.84 143.74 135.89 L 144.08 134.96 C 144.43 134.01 143.94 132.95 142.99 132.60 C 142.04 132.25 140.98 132.74 140.63 133.69 Z M 140.32 134.54 L 139.92 135.49 C 139.53 136.42 139.97 137.50 140.90 137.89 C 141.84 138.29 142.91 137.85 143.31 136.91 L 143.71 135.97 C 144.10 135.03 143.66 133.95 142.73 133.56 C 141.79 133.17 140.72 133.61 140.32 134.54 Z M 139.96 135.41 L 139.51 136.36 C 139.07 137.28 139.46 138.37 140.38 138.81 C 141.30 139.24 142.39 138.85 142.83 137.93 L 143.27 136.99 C 143.71 136.07 143.32 134.98 142.40 134.54 C 141.49 134.11 140.39 134.50 139.96 135.41 Z M 139.55 136.28 L 139.05 137.21 C 138.58 138.10 138.91 139.22 139.81 139.69 C 140.71 140.17 141.82 139.83 142.30 138.93 L 142.79 138.01 C 143.26 137.11 142.93 136.00 142.03 135.53 C 141.13 135.05 140.02 135.39 139.55 136.28 Z M 139.10 137.13 L 138.57 138.01 C 138.05 138.88 138.33 140.01 139.20 140.53 C 140.07 141.05 141.20 140.77 141.72 139.90 L 142.25 139.02 C 142.77 138.15 142.49 137.02 141.62 136.50 C 140.75 135.97 139.62 136.26 139.10 137.13 Z M 138.63 137.92 L 138.07 138.74 C 137.50 139.58 137.71 140.72 138.55 141.29 C 139.39 141.87 140.53 141.65 141.10 140.81 L 141.66 139.99 C 142.23 139.15 142.02 138.01 141.18 137.44 C 140.34 136.86 139.20 137.08 138.63 137.92 Z M 138.14 138.64 L 137.56 139.38 C 136.93 140.18 137.07 141.33 137.87 141.96 C 138.66 142.59 139.82 142.45 140.45 141.65 L 141.03 140.91 C 141.66 140.12 141.52 138.96 140.72 138.33 C 139.92 137.70 138.77 137.84 138.14 138.64 Z M 137.68 139.24 L 136.90 140.05 C 136.19 140.78 136.21 141.94 136.94 142.65 C 137.67 143.35 138.84 143.33 139.54 142.60 L 140.32 141.79 C 141.03 141.06 141.01 139.90 140.28 139.19 C 139.55 138.49 138.39 138.51 137.68 139.24 Z M 137.12 139.86 L 136.15 140.58 C 135.34 141.20 135.18 142.35 135.79 143.16 C 136.40 143.97 137.55 144.13 138.36 143.52 L 139.33 142.79 C 140.14 142.18 140.30 141.03 139.69 140.22 C 139.08 139.41 137.93 139.25 137.12 139.86 Z M 136.50 140.38 L 135.56 140.80 C 134.64 141.22 134.23 142.31 134.65 143.23 C 135.06 144.16 136.15 144.57 137.08 144.15 L 138.01 143.73 C 138.94 143.31 139.35 142.22 138.93 141.30 C 138.51 140.37 137.42 139.96 136.50 140.38 Z M 136.10 140.65 L 135.24 140.75 C 134.23 140.88 133.51 141.79 133.63 142.80 C 133.75 143.81 134.67 144.52 135.67 144.40 L 136.54 144.30 C 137.55 144.18 138.27 143.26 138.14 142.26 C 138.02 141.25 137.11 140.53 136.10 140.65 Z M 135.99 140.82 L 135.24 140.59 C 134.27 140.29 133.24 140.84 132.95 141.81 C 132.65 142.78 133.19 143.81 134.16 144.11 L 134.92 144.34 C 135.89 144.63 136.91 144.09 137.21 143.12 C 137.51 142.15 136.96 141.12 135.99 140.82 Z M 135.96 141.01 L 135.40 140.48 C 134.66 139.78 133.49 139.82 132.80 140.56 C 132.10 141.30 132.14 142.46 132.88 143.16 L 133.44 143.69 C 134.18 144.38 135.35 144.35 136.04 143.61 C 136.74 142.87 136.70 141.70 135.96 141.01 Z M 135.77 140.96 L 135.39 140.24 C 134.91 139.34 133.80 139.00 132.90 139.47 C 132.01 139.94 131.66 141.05 132.13 141.95 L 132.51 142.67 C 132.98 143.57 134.09 143.92 134.99 143.45 C 135.89 142.97 136.24 141.86 135.77 140.96 Z M 135.52 140.58 L 135.26 139.68 C 134.98 138.71 133.96 138.14 132.98 138.43 C 132.01 138.71 131.45 139.73 131.73 140.71 L 131.99 141.61 C 132.28 142.58 133.30 143.14 134.27 142.86 C 135.25 142.58 135.81 141.56 135.52 140.58 Z M 135.31 139.92 L 135.16 138.90 C 135.01 137.89 134.08 137.20 133.08 137.35 C 132.07 137.49 131.38 138.43 131.53 139.43 L 131.68 140.46 C 131.83 141.46 132.76 142.16 133.76 142.01 C 134.77 141.86 135.46 140.93 135.31 139.92 Z M 135.18 139.08 L 135.13 137.98 C 135.09 136.97 134.23 136.18 133.22 136.23 C 132.20 136.27 131.42 137.13 131.46 138.14 L 131.51 139.24 C 131.55 140.26 132.41 141.04 133.42 141.00 C 134.44 140.96 135.23 140.10 135.18 139.08 Z M 135.13 138.14 L 135.18 137.02 C 135.22 136.01 134.44 135.15 133.42 135.11 C 132.41 135.06 131.55 135.85 131.51 136.86 L 131.46 137.98 C 131.42 139.00 132.20 139.86 133.22 139.90 C 134.23 139.94 135.09 139.16 135.13 138.14 Z M 135.17 137.18 L 135.31 136.08 C 135.44 135.08 134.72 134.16 133.72 134.03 C 132.71 133.90 131.79 134.61 131.66 135.62 L 131.52 136.71 C 131.39 137.72 132.11 138.64 133.11 138.77 C 134.12 138.90 135.04 138.18 135.17 137.18 Z M 135.28 136.24 L 135.50 135.20 C 135.72 134.21 135.09 133.23 134.10 133.01 C 133.11 132.80 132.13 133.43 131.92 134.42 L 131.69 135.46 C 131.47 136.45 132.10 137.43 133.10 137.65 C 134.09 137.86 135.06 137.23 135.28 136.24 Z M 135.46 135.35 L 135.77 134.37 C 136.07 133.40 135.52 132.38 134.55 132.08 C 133.59 131.78 132.56 132.32 132.26 133.29 L 131.96 134.27 C 131.66 135.23 132.20 136.26 133.17 136.56 C 134.14 136.86 135.16 136.32 135.46 135.35 Z M 135.71 134.52 L 136.08 133.60 C 136.46 132.66 136.01 131.59 135.07 131.21 C 134.13 130.83 133.06 131.29 132.68 132.23 L 132.31 133.14 C 131.93 134.08 132.39 135.15 133.33 135.53 C 134.27 135.91 135.33 135.46 135.71 134.52 Z M 136.02 133.73 L 136.45 132.86 C 136.90 131.96 136.54 130.86 135.63 130.41 C 134.72 129.96 133.62 130.32 133.17 131.23 L 132.74 132.09 C 132.29 133.00 132.66 134.10 133.57 134.55 C 134.47 135.00 135.57 134.63 136.02 133.73 Z M 136.39 132.98 L 136.87 132.17 C 137.38 131.30 137.10 130.17 136.23 129.66 C 135.36 129.14 134.23 129.43 133.72 130.30 L 133.24 131.12 C 132.72 131.99 133.01 133.11 133.88 133.62 C 134.75 134.14 135.87 133.85 136.39 132.98 Z M 136.80 132.27 L 137.38 131.43 C 137.95 130.60 137.74 129.46 136.91 128.88 C 136.08 128.31 134.94 128.52 134.37 129.35 L 133.79 130.20 C 133.21 131.03 133.42 132.17 134.26 132.74 C 135.09 133.31 136.23 133.10 136.80 132.27 Z M 137.29 131.55 L 137.98 130.71 C 138.61 129.93 138.50 128.77 137.71 128.14 C 136.93 127.50 135.78 127.61 135.14 128.40 L 134.46 129.24 C 133.82 130.02 133.93 131.17 134.72 131.81 C 135.50 132.45 136.65 132.33 137.29 131.55 Z M 137.84 130.86 L 138.57 130.14 C 139.29 129.43 139.30 128.27 138.60 127.55 C 137.89 126.83 136.73 126.82 136.01 127.53 L 135.27 128.25 C 134.55 128.96 134.54 130.12 135.25 130.84 C 135.96 131.56 137.12 131.57 137.84 130.86 Z M 138.37 130.31 L 139.15 129.75 C 139.96 129.15 140.14 128.01 139.55 127.19 C 138.95 126.37 137.81 126.19 136.99 126.79 L 136.21 127.35 C 135.40 127.95 135.22 129.09 135.81 129.91 C 136.41 130.73 137.55 130.91 138.37 130.31 Z M 138.83 129.93 L 139.66 129.55 C 140.57 129.13 140.98 128.04 140.55 127.12 C 140.13 126.20 139.04 125.80 138.13 126.23 L 137.30 126.60 C 136.39 127.03 135.98 128.11 136.41 129.03 C 136.83 129.95 137.92 130.35 138.83 129.93 Z M 139.20 129.69 L 140.13 129.54 C 141.12 129.37 141.80 128.42 141.63 127.43 C 141.46 126.43 140.52 125.76 139.52 125.93 L 138.59 126.08 C 137.59 126.25 136.92 127.20 137.09 128.19 C 137.25 129.19 138.20 129.86 139.20 129.69 Z M 139.60 129.55 L 140.59 129.67 C 141.59 129.79 142.50 129.07 142.62 128.07 C 142.75 127.07 142.03 126.15 141.03 126.03 L 140.04 125.91 C 139.04 125.79 138.13 126.51 138.01 127.51 C 137.88 128.51 138.60 129.43 139.60 129.55 Z M 140.11 129.54 L 141.03 129.92 C 141.96 130.31 143.03 129.87 143.42 128.93 C 143.81 128.00 143.36 126.93 142.43 126.54 L 141.51 126.16 C 140.58 125.77 139.50 126.21 139.12 127.15 C 138.73 128.08 139.17 129.15 140.11 129.54 Z M 140.60 129.67 L 141.39 130.29 C 142.18 130.91 143.33 130.77 143.96 129.97 C 144.58 129.17 144.44 128.02 143.64 127.40 L 142.85 126.79 C 142.06 126.17 140.91 126.31 140.28 127.11 C 139.66 127.90 139.80 129.05 140.60 129.67 Z M 141.02 129.91 L 141.60 130.72 C 142.19 131.54 143.34 131.73 144.16 131.14 C 144.98 130.55 145.17 129.41 144.58 128.58 L 144.00 127.78 C 143.41 126.96 142.27 126.77 141.45 127.36 C 140.62 127.95 140.44 129.09 141.02 129.91 Z M 141.36 130.26 L 141.69 131.19 C 142.03 132.15 143.08 132.65 144.03 132.31 C 144.98 131.97 145.48 130.93 145.15 129.97 L 144.82 129.04 C 144.48 128.09 143.43 127.59 142.48 127.92 C 141.53 128.26 141.03 129.31 141.36 130.26 Z M 141.60 130.75 L 141.69 131.75 C 141.78 132.76 142.67 133.50 143.68 133.41 C 144.69 133.32 145.43 132.43 145.34 131.42 L 145.24 130.42 C 145.15 129.41 144.26 128.67 143.25 128.76 C 142.24 128.85 141.50 129.75 141.60 130.75 Z M 141.70 131.32 L 141.55 132.32 C 141.41 133.32 142.10 134.25 143.10 134.39 C 144.10 134.54 145.03 133.85 145.18 132.85 L 145.32 131.85 C 145.47 130.85 144.78 129.92 143.78 129.77 C 142.78 129.63 141.85 130.32 141.70 131.32 Z M 141.68 131.87 L 141.30 132.78 C 140.90 133.71 141.34 134.78 142.27 135.18 C 143.20 135.57 144.28 135.13 144.67 134.20 L 145.06 133.29 C 145.45 132.36 145.01 131.29 144.08 130.89 C 143.15 130.50 142.07 130.94 141.68 131.87 Z M 141.60 132.29 L 140.73 133.29 C 140.06 134.05 140.14 135.21 140.91 135.87 C 141.67 136.54 142.83 136.46 143.49 135.70 L 144.36 134.69 C 145.03 133.93 144.95 132.77 144.19 132.11 C 143.42 131.44 142.27 131.52 141.60 132.29 Z M 141.08 132.98 L 140.13 133.62 C 139.30 134.19 139.08 135.33 139.65 136.16 C 140.21 137.00 141.35 137.22 142.19 136.65 L 143.14 136.01 C 143.97 135.44 144.19 134.30 143.62 133.46 C 143.06 132.63 141.92 132.41 141.08 132.98 Z M 140.49 133.44 L 139.97 133.64 C 139.03 134.01 138.56 135.07 138.93 136.01 C 139.30 136.95 140.36 137.41 141.30 137.04 L 141.83 136.84 C 142.77 136.47 143.23 135.41 142.86 134.47 C 142.49 133.53 141.43 133.07 140.49 133.44 Z M 141.71 136.82 L 142.04 136.57 C 142.86 135.98 143.04 134.84 142.45 134.02 C 141.85 133.21 140.71 133.03 139.89 133.62 L 139.56 133.87 C 138.74 134.46 138.56 135.60 139.16 136.42 C 139.75 137.23 140.89 137.41 141.71 136.82 Z M 141.41 136.87 L 142.42 136.62 C 143.40 136.37 144.00 135.38 143.75 134.40 C 143.51 133.43 142.52 132.83 141.54 133.08 L 140.53 133.33 C 139.55 133.57 138.95 134.56 139.20 135.54 C 139.44 136.52 140.43 137.11 141.41 136.87 Z M 141.34 136.55 L 142.44 136.97 C 143.38 137.33 144.44 136.85 144.79 135.91 C 145.15 134.97 144.67 133.91 143.73 133.56 L 142.63 133.14 C 141.68 132.78 140.63 133.26 140.27 134.20 C 139.92 135.14 140.39 136.20 141.34 136.55 Z M 141.58 136.29 L 141.98 136.88 C 142.55 137.71 143.68 137.93 144.52 137.36 C 145.35 136.80 145.56 135.66 145.00 134.83 L 144.60 134.24 C 144.03 133.40 142.89 133.19 142.06 133.76 C 141.23 134.32 141.01 135.46 141.58 136.29 Z M 141.78 136.50 L 142.09 137.31 C 142.44 138.26 143.50 138.74 144.44 138.38 C 145.38 138.03 145.86 136.97 145.50 136.03 L 145.20 135.21 C 144.84 134.27 143.79 133.79 142.85 134.15 C 141.90 134.50 141.43 135.55 141.78 136.50 Z M 142.02 137.07 L 142.24 138.06 C 142.46 139.04 143.43 139.66 144.42 139.44 C 145.40 139.22 146.02 138.24 145.80 137.26 L 145.58 136.27 C 145.36 135.29 144.38 134.67 143.40 134.89 C 142.41 135.11 141.80 136.09 142.02 137.07 Z M 142.21 137.89 L 142.35 138.98 C 142.48 139.98 143.39 140.69 144.39 140.56 C 145.39 140.43 146.10 139.52 145.97 138.52 L 145.83 137.43 C 145.70 136.43 144.78 135.72 143.78 135.85 C 142.78 135.98 142.08 136.89 142.21 137.89 Z M 142.34 138.86 L 142.40 140.00 C 142.46 141.00 143.32 141.77 144.33 141.71 C 145.34 141.65 146.11 140.79 146.05 139.78 L 145.98 138.64 C 145.92 137.64 145.06 136.87 144.05 136.93 C 143.04 136.99 142.28 137.85 142.34 138.86 Z M 142.40 139.89 L 142.40 141.01 C 142.40 142.02 143.22 142.83 144.22 142.83 C 145.23 142.83 146.05 142.02 146.05 141.01 L 146.05 139.89 C 146.05 138.88 145.23 138.06 144.22 138.06 C 143.22 138.06 142.40 138.88 142.40 139.89 Z M 142.40 140.90 L 142.34 141.99 C 142.28 142.99 143.05 143.86 144.05 143.92 C 145.06 143.98 145.92 143.21 145.98 142.20 L 146.04 141.12 C 146.10 140.11 145.34 139.25 144.33 139.19 C 143.33 139.13 142.46 139.90 142.40 140.90 Z M 142.36 141.87 L 142.23 142.89 C 142.11 143.89 142.81 144.80 143.81 144.92 C 144.81 145.04 145.71 144.34 145.84 143.34 L 145.96 142.32 C 146.09 141.32 145.38 140.42 144.38 140.29 C 143.39 140.17 142.48 140.88 142.36 141.87 Z M 142.25 142.77 L 142.07 143.73 C 141.87 144.71 142.51 145.67 143.50 145.86 C 144.48 146.05 145.43 145.41 145.62 144.43 L 145.81 143.46 C 146.01 142.48 145.36 141.53 144.38 141.34 C 143.40 141.14 142.45 141.78 142.25 142.77 Z M 142.10 143.61 L 141.85 144.54 C 141.59 145.50 142.16 146.50 143.13 146.75 C 144.09 147.01 145.08 146.44 145.34 145.48 L 145.59 144.55 C 145.85 143.58 145.28 142.59 144.31 142.33 C 143.35 142.07 142.36 142.65 142.10 143.61 Z M 141.89 144.43 L 141.58 145.34 C 141.26 146.28 141.77 147.31 142.71 147.63 C 143.65 147.95 144.68 147.44 144.99 146.50 L 145.30 145.59 C 145.62 144.64 145.12 143.62 144.17 143.30 C 143.23 142.98 142.21 143.49 141.89 144.43 Z M 141.62 145.25 L 141.25 146.16 C 140.88 147.08 141.33 148.13 142.25 148.50 C 143.17 148.87 144.22 148.42 144.59 147.50 L 144.96 146.59 C 145.33 145.67 144.88 144.62 143.96 144.25 C 143.04 143.88 141.99 144.33 141.62 145.25 Z M 141.29 146.09 L 140.90 146.94 C 140.50 147.84 140.89 148.90 141.80 149.31 C 142.70 149.72 143.76 149.32 144.17 148.42 L 144.55 147.57 C 144.96 146.67 144.56 145.61 143.66 145.20 C 142.76 144.79 141.70 145.19 141.29 146.09 Z M 140.94 146.88 L 140.51 147.74 C 140.07 148.62 140.43 149.70 141.31 150.14 C 142.20 150.57 143.27 150.22 143.71 149.33 L 144.13 148.47 C 144.57 147.59 144.21 146.52 143.33 146.08 C 142.45 145.64 141.38 146.00 140.94 146.88 Z M 140.54 147.70 L 140.07 148.57 C 139.61 149.43 139.93 150.51 140.80 150.98 C 141.67 151.44 142.74 151.11 143.21 150.25 L 143.68 149.38 C 144.14 148.51 143.81 147.43 142.95 146.97 C 142.08 146.51 141.01 146.83 140.54 147.70 Z M 140.10 148.53 L 139.60 149.41 C 139.11 150.26 139.41 151.34 140.26 151.83 C 141.11 152.31 142.19 152.02 142.68 151.17 L 143.18 150.29 C 143.66 149.44 143.37 148.36 142.52 147.87 C 141.67 147.39 140.59 147.68 140.10 148.53 Z M 139.63 149.38 L 139.09 150.26 C 138.59 151.10 138.86 152.18 139.69 152.69 C 140.53 153.19 141.61 152.92 142.12 152.09 L 142.65 151.20 C 143.15 150.36 142.88 149.28 142.05 148.78 C 141.21 148.27 140.13 148.54 139.63 149.38 Z M 139.12 150.24 L 138.56 151.12 C 138.04 151.95 138.28 153.03 139.11 153.55 C 139.93 154.07 141.01 153.82 141.53 153.00 L 142.09 152.11 C 142.61 151.29 142.36 150.21 141.54 149.69 C 140.72 149.17 139.64 149.41 139.12 150.24 Z M 138.58 151.10 L 138.08 151.86 C 137.55 152.67 137.78 153.76 138.59 154.29 C 139.40 154.82 140.48 154.59 141.01 153.78 L 141.51 153.02 C 142.04 152.21 141.81 151.13 141.00 150.60 C 140.19 150.07 139.11 150.30 138.58 151.10 Z M 138.10 151.85 L 137.65 152.52 C 137.11 153.32 137.32 154.40 138.12 154.94 C 138.91 155.48 140.00 155.27 140.53 154.47 L 140.99 153.80 C 141.53 153.00 141.32 151.92 140.52 151.38 C 139.72 150.84 138.64 151.05 138.10 151.85 Z M 137.67 152.51 L 137.19 153.20 C 136.64 153.99 136.83 155.07 137.62 155.61 C 138.40 156.16 139.48 155.97 140.03 155.18 L 140.51 154.49 C 141.06 153.70 140.86 152.62 140.08 152.08 C 139.29 151.53 138.21 151.72 137.67 152.51 Z M 137.21 153.19 L 136.69 153.91 C 136.14 154.68 136.31 155.76 137.09 156.31 C 137.86 156.87 138.94 156.69 139.49 155.92 L 140.01 155.19 C 140.56 154.42 140.38 153.34 139.61 152.79 C 138.84 152.24 137.76 152.41 137.21 153.19 Z M 136.71 153.90 L 136.15 154.66 C 135.59 155.42 135.75 156.49 136.51 157.05 C 137.28 157.61 138.35 157.45 138.91 156.69 L 139.47 155.93 C 140.03 155.17 139.87 154.10 139.11 153.53 C 138.35 152.97 137.27 153.13 136.71 153.90 Z M 136.17 154.65 L 135.56 155.46 C 134.99 156.21 135.14 157.28 135.89 157.84 C 136.64 158.41 137.71 158.26 138.28 157.51 L 138.89 156.70 C 139.46 155.95 139.31 154.88 138.56 154.31 C 137.81 153.75 136.74 153.90 136.17 154.65 Z M 135.58 155.45 L 134.90 156.32 C 134.33 157.06 134.47 158.12 135.21 158.70 C 135.95 159.27 137.01 159.13 137.58 158.39 L 138.26 157.52 C 138.83 156.78 138.69 155.72 137.95 155.14 C 137.21 154.57 136.15 154.71 135.58 155.45 Z M 134.92 156.31 L 134.17 157.26 C 133.60 157.99 133.72 159.05 134.45 159.62 C 135.19 160.20 136.24 160.08 136.82 159.34 L 137.57 158.40 C 138.14 157.67 138.02 156.61 137.29 156.03 C 136.56 155.46 135.50 155.58 134.92 156.31 Z M 134.19 157.25 L 133.38 158.26 C 132.80 158.99 132.92 160.04 133.64 160.62 C 134.36 161.20 135.42 161.08 135.99 160.36 L 136.81 159.35 C 137.38 158.63 137.27 157.57 136.55 156.99 C 135.82 156.41 134.77 156.53 134.19 157.25 Z M 133.39 158.26 L 132.88 158.89 C 132.30 159.61 132.41 160.66 133.12 161.24 C 133.84 161.82 134.89 161.71 135.47 160.99 L 135.98 160.36 C 136.56 159.65 136.45 158.60 135.74 158.02 C 135.02 157.44 133.97 157.55 133.39 158.26 Z M 132.89 158.89 L 132.35 159.55 C 131.77 160.26 131.87 161.31 132.58 161.89 C 133.30 162.47 134.35 162.37 134.93 161.66 L 135.47 161.00 C 136.05 160.28 135.94 159.23 135.23 158.65 C 134.52 158.07 133.47 158.18 132.89 158.89 Z M 132.35 159.55 L 131.79 160.24 C 131.21 160.95 131.31 161.99 132.02 162.57 C 132.73 163.16 133.78 163.05 134.36 162.34 L 134.92 161.66 C 135.50 160.95 135.40 159.90 134.69 159.32 C 133.98 158.74 132.94 158.84 132.35 159.55 Z M 131.80 160.24 L 131.21 160.95 C 130.63 161.65 130.73 162.70 131.43 163.28 C 132.14 163.86 133.18 163.76 133.76 163.05 L 134.35 162.34 C 134.93 161.64 134.83 160.59 134.13 160.01 C 133.42 159.43 132.38 159.53 131.80 160.24 Z M 131.22 160.95 L 130.61 161.68 C 130.03 162.38 130.12 163.43 130.83 164.01 C 131.53 164.59 132.57 164.49 133.15 163.79 L 133.76 163.05 C 134.34 162.35 134.24 161.31 133.54 160.73 C 132.84 160.15 131.80 160.25 131.22 160.95 Z M 130.61 161.68 L 129.99 162.44 C 129.41 163.14 129.50 164.17 130.20 164.76 C 130.90 165.34 131.94 165.24 132.52 164.54 L 133.15 163.79 C 133.73 163.09 133.63 162.05 132.93 161.47 C 132.23 160.89 131.19 160.98 130.61 161.68 Z M 129.99 162.44 L 129.35 163.21 C 128.77 163.91 128.86 164.94 129.56 165.52 C 130.25 166.10 131.29 166.01 131.87 165.31 L 132.51 164.54 C 133.09 163.84 133.00 162.81 132.30 162.23 C 131.61 161.65 130.57 161.74 129.99 162.44 Z M 129.35 163.21 L 128.69 164.00 C 128.11 164.70 128.21 165.73 128.90 166.31 C 129.59 166.89 130.63 166.79 131.21 166.10 L 131.87 165.31 C 132.44 164.62 132.35 163.59 131.66 163.01 C 130.96 162.43 129.93 162.52 129.35 163.21 Z M 128.70 164.00 L 128.03 164.81 C 127.45 165.50 127.54 166.53 128.23 167.11 C 128.92 167.69 129.95 167.59 130.53 166.90 L 131.20 166.10 C 131.78 165.41 131.69 164.38 131.00 163.80 C 130.31 163.22 129.28 163.31 128.70 164.00 Z M 128.03 164.81 L 127.35 165.62 C 126.77 166.31 126.86 167.34 127.55 167.92 C 128.24 168.49 129.26 168.40 129.84 167.72 L 130.52 166.90 C 131.10 166.21 131.01 165.18 130.32 164.61 C 129.63 164.03 128.61 164.12 128.03 164.81 Z M 127.35 165.63 L 126.66 166.45 C 126.08 167.14 126.17 168.16 126.86 168.74 C 127.54 169.31 128.57 169.23 129.14 168.54 L 129.84 167.71 C 130.41 167.03 130.32 166.00 129.64 165.43 C 128.95 164.85 127.93 164.94 127.35 165.63 Z M 126.66 166.45 L 125.96 167.29 C 125.38 167.97 125.47 168.99 126.16 169.57 C 126.84 170.14 127.86 170.05 128.44 169.37 L 129.14 168.54 C 129.71 167.85 129.63 166.83 128.94 166.26 C 128.26 165.68 127.24 165.77 126.66 166.45 Z M 125.96 167.29 L 125.26 168.13 C 124.68 168.81 124.77 169.83 125.45 170.40 C 126.14 170.98 127.15 170.89 127.73 170.21 L 128.43 169.37 C 129.01 168.69 128.92 167.67 128.24 167.09 C 127.56 166.52 126.54 166.61 125.96 167.29 Z M 125.26 168.13 L 124.55 168.97 C 123.98 169.65 124.07 170.67 124.75 171.24 C 125.43 171.81 126.44 171.73 127.02 171.05 L 127.72 170.20 C 128.30 169.52 128.21 168.51 127.53 167.94 C 126.85 167.36 125.83 167.45 125.26 168.13 Z M 124.56 168.98 L 123.96 169.69 C 123.39 170.36 123.47 171.38 124.15 171.95 C 124.83 172.52 125.84 172.43 126.41 171.75 L 127.01 171.04 C 127.58 170.37 127.50 169.35 126.82 168.78 C 126.14 168.21 125.13 168.30 124.56 168.98 Z"
      fill="black"
      fill-rule="nonzero" /></svg>