<svg xmlns="http://www.w3.org/2000/svg" width="300" height="300" viewBox="0 0 300 300">
<path d="M 146.32 141.28 L 145.56 140.46 C 144.91 139.75 143.81 139.70 143.10 140.35 C 142.39 141.00 142.35 142.11 143.00 142.82 L 143.75 143.63 C 144.40 144.34 145.50 144.39 146.21 143.74 C 146.92 143.09 146.97 141.99 146.32 141.28 Z M 145.69 140.59 L 145.09 139.78 C 144.51 139.00 143.41 138.83 142.63 139.41 C 141.85 139.99 141.69 141.09 142.27 141.87 L 142.87 142.68 C 143.45 143.46 144.55 143.63 145.33 143.05 C 146.11 142.47 146.27 141.37 145.69 140.59 Z M 145.33 140.18 L 145.02 139.38 C 144.66 138.47 143.64 138.01 142.73 138.37 C 141.81 138.72 141.36 139.74 141.71 140.66 L 142.02 141.46 C 142.38 142.37 143.40 142.83 144.31 142.47 C 145.23 142.12 145.68 141.10 145.33 140.18 Z M 145.11 140.35 L 145.29 139.40 C 145.47 138.44 144.84 137.51 143.88 137.33 C 142.91 137.14 141.98 137.78 141.80 138.74 L 141.62 139.69 C 141.43 140.65 142.07 141.58 143.03 141.77 C 144.00 141.95 144.93 141.31 145.11 140.35 Z M 144.74 140.39 L 145.46 139.74 C 146.18 139.08 146.24 137.96 145.58 137.23 C 144.92 136.50 143.79 136.44 143.06 137.10 L 142.35 137.75 C 141.62 138.41 141.56 139.54 142.22 140.27 C 142.89 141.00 144.01 141.05 144.74 140.39 Z M 144.42 140.20 L 145.32 140.12 C 146.30 140.03 147.02 139.16 146.93 138.18 C 146.84 137.20 145.97 136.48 144.99 136.57 L 144.10 136.65 C 143.12 136.74 142.39 137.61 142.48 138.59 C 142.58 139.57 143.44 140.29 144.42 140.20 Z M 144.52 140.01 L 145.38 140.33 C 146.30 140.68 147.33 140.21 147.67 139.29 C 148.02 138.37 147.55 137.34 146.63 136.99 L 145.78 136.67 C 144.86 136.32 143.83 136.79 143.48 137.71 C 143.14 138.64 143.60 139.66 144.52 140.01 Z M 144.98 140.12 L 145.84 140.73 C 146.65 141.29 147.77 141.10 148.33 140.29 C 148.90 139.48 148.70 138.37 147.89 137.80 L 147.03 137.20 C 146.22 136.63 145.11 136.83 144.54 137.64 C 143.97 138.44 144.17 139.56 144.98 140.12 Z M 145.59 140.52 L 146.38 141.32 C 147.07 142.02 148.21 142.03 148.91 141.34 C 149.61 140.65 149.62 139.52 148.93 138.81 L 148.14 138.01 C 147.45 137.31 146.32 137.30 145.61 137.99 C 144.91 138.68 144.90 139.82 145.59 140.52 Z M 146.21 141.12 L 146.81 141.94 C 147.40 142.74 148.51 142.91 149.31 142.33 C 150.11 141.75 150.28 140.63 149.70 139.83 L 149.10 139.01 C 148.52 138.21 147.40 138.04 146.60 138.62 C 145.80 139.21 145.63 140.33 146.21 141.12 Z M 146.71 141.79 L 147.22 142.67 C 147.72 143.52 148.81 143.81 149.67 143.31 C 150.52 142.82 150.81 141.72 150.31 140.87 L 149.80 139.99 C 149.31 139.13 148.21 138.84 147.36 139.34 C 146.50 139.84 146.21 140.93 146.71 141.79 Z M 147.16 142.54 L 147.59 143.44 C 148.02 144.33 149.08 144.71 149.97 144.28 C 150.86 143.85 151.24 142.79 150.81 141.89 L 150.38 141.00 C 149.95 140.10 148.88 139.73 147.99 140.16 C 147.10 140.58 146.73 141.65 147.16 142.54 Z M 147.54 143.35 L 147.91 144.23 C 148.28 145.15 149.32 145.58 150.24 145.21 C 151.15 144.84 151.59 143.79 151.22 142.88 L 150.86 141.99 C 150.48 141.08 149.44 140.64 148.52 141.01 C 147.61 141.39 147.17 142.43 147.54 143.35 Z M 147.87 144.14 L 148.18 145.04 C 148.51 145.97 149.53 146.46 150.46 146.14 C 151.39 145.82 151.89 144.80 151.56 143.86 L 151.25 142.97 C 150.93 142.04 149.91 141.54 148.98 141.87 C 148.04 142.19 147.55 143.21 147.87 144.14 Z M 148.15 144.93 L 148.40 145.85 C 148.67 146.80 149.65 147.36 150.61 147.09 C 151.56 146.83 152.12 145.84 151.85 144.89 L 151.60 143.97 C 151.33 143.02 150.35 142.46 149.40 142.73 C 148.44 142.99 147.89 143.98 148.15 144.93 Z M 148.38 145.74 L 148.60 146.76 C 148.80 147.72 149.75 148.34 150.72 148.13 C 151.69 147.93 152.30 146.97 152.09 146.01 L 151.88 144.99 C 151.67 144.03 150.72 143.41 149.75 143.62 C 148.79 143.83 148.17 144.78 148.38 145.74 Z M 148.58 146.68 L 148.75 147.67 C 148.92 148.64 149.84 149.29 150.81 149.13 C 151.79 148.96 152.44 148.04 152.28 147.07 L 152.11 146.08 C 151.94 145.11 151.02 144.45 150.05 144.62 C 149.07 144.79 148.42 145.71 148.58 146.68 Z M 148.74 147.62 L 148.87 148.55 C 149.01 149.53 149.92 150.21 150.89 150.07 C 151.87 149.93 152.55 149.03 152.41 148.05 L 152.28 147.12 C 152.14 146.14 151.24 145.46 150.26 145.60 C 149.28 145.73 148.60 146.64 148.74 147.62 Z M 148.87 148.50 L 148.98 149.50 C 149.10 150.48 149.98 151.18 150.96 151.07 C 151.94 150.96 152.65 150.07 152.53 149.09 L 152.42 148.09 C 152.31 147.11 151.42 146.41 150.44 146.52 C 149.46 146.63 148.76 147.52 148.87 148.50 Z M 148.98 149.45 L 149.07 150.49 C 149.15 151.47 150.02 152.20 151.00 152.11 C 151.99 152.03 152.71 151.16 152.63 150.18 L 152.54 149.14 C 152.45 148.16 151.59 147.43 150.60 147.51 C 149.62 147.60 148.89 148.47 148.98 149.45 Z M 149.06 150.43 L 149.12 151.48 C 149.17 152.47 150.02 153.22 151.00 153.17 C 151.99 153.12 152.74 152.27 152.69 151.29 L 152.63 150.24 C 152.58 149.25 151.74 148.50 150.75 148.55 C 149.77 148.60 149.01 149.44 149.06 150.43 Z M 149.12 151.41 L 149.14 152.58 C 149.15 153.57 149.96 154.36 150.94 154.34 C 151.93 154.33 152.72 153.52 152.71 152.53 L 152.69 151.36 C 152.68 150.38 151.87 149.59 150.88 149.60 C 149.90 149.61 149.11 150.42 149.12 151.41 Z M 149.14 152.48 L 149.09 153.75 C 149.04 154.73 149.81 155.57 150.79 155.61 C 151.77 155.65 152.60 154.89 152.65 153.90 L 152.70 152.63 C 152.74 151.65 151.98 150.82 151.00 150.78 C 150.01 150.74 149.18 151.50 149.14 152.48 Z M 149.10 153.60 L 148.97 154.66 C 148.84 155.64 149.53 156.53 150.51 156.65 C 151.48 156.77 152.37 156.08 152.49 155.11 L 152.63 154.05 C 152.75 153.08 152.06 152.19 151.09 152.07 C 150.12 151.94 149.23 152.63 149.10 153.60 Z M 149.03 154.38 L 148.82 155.10 C 148.54 156.04 149.07 157.03 150.01 157.31 C 150.94 157.59 151.93 157.06 152.21 156.12 L 152.43 155.39 C 152.71 154.46 152.18 153.47 151.24 153.19 C 150.30 152.91 149.31 153.44 149.03 154.38 Z M 149.48 154.18 L 149.10 154.46 C 148.31 155.03 148.13 156.14 148.71 156.93 C 149.28 157.71 150.39 157.89 151.18 157.32 L 151.55 157.04 C 152.34 156.47 152.52 155.36 151.94 154.57 C 151.37 153.78 150.27 153.61 149.48 154.18 Z M 151.31 154.57 L 150.74 154.06 C 150.01 153.42 148.89 153.48 148.25 154.21 C 147.60 154.94 147.67 156.05 148.40 156.70 L 148.97 157.20 C 149.70 157.85 150.81 157.78 151.46 157.05 C 152.10 156.33 152.03 155.21 151.31 154.57 Z M 151.10 154.53 L 150.49 153.43 C 150.02 152.58 148.95 152.27 148.11 152.74 C 147.26 153.21 146.95 154.28 147.42 155.12 L 148.03 156.23 C 148.50 157.08 149.57 157.39 150.42 156.92 C 151.26 156.45 151.57 155.38 151.10 154.53 Z M 150.57 153.60 L 150.15 152.59 C 149.77 151.70 148.75 151.28 147.85 151.66 C 146.96 152.03 146.54 153.06 146.92 153.95 L 147.34 154.95 C 147.71 155.85 148.74 156.26 149.63 155.89 C 150.53 155.51 150.94 154.49 150.57 153.60 Z M 150.18 152.68 L 149.84 151.72 C 149.51 150.81 148.51 150.34 147.60 150.66 C 146.69 150.99 146.21 151.99 146.54 152.91 L 146.88 153.86 C 147.21 154.78 148.21 155.25 149.13 154.92 C 150.04 154.60 150.51 153.59 150.18 152.68 Z M 149.86 151.78 L 149.55 150.81 C 149.26 149.88 148.27 149.37 147.35 149.67 C 146.42 149.96 145.91 150.95 146.21 151.87 L 146.52 152.84 C 146.81 153.77 147.80 154.28 148.72 153.99 C 149.65 153.69 150.16 152.71 149.86 151.78 Z M 149.57 150.85 L 149.30 149.90 C 149.03 148.97 148.06 148.43 147.12 148.70 C 146.19 148.97 145.65 149.94 145.92 150.88 L 146.19 151.82 C 146.46 152.76 147.43 153.30 148.37 153.03 C 149.30 152.76 149.84 151.79 149.57 150.85 Z M 149.31 149.94 L 149.04 148.93 C 148.80 147.99 147.83 147.43 146.89 147.67 C 145.95 147.92 145.39 148.89 145.64 149.83 L 145.90 150.84 C 146.15 151.78 147.12 152.34 148.06 152.09 C 149.00 151.85 149.56 150.88 149.31 149.94 Z M 149.06 148.97 L 148.82 147.98 C 148.59 147.03 147.64 146.44 146.70 146.67 C 145.75 146.90 145.16 147.85 145.39 148.80 L 145.62 149.79 C 145.85 150.74 146.80 151.32 147.75 151.09 C 148.70 150.87 149.28 149.92 149.06 148.97 Z M 148.83 148.02 L 148.63 147.08 C 148.43 146.12 147.49 145.52 146.53 145.72 C 145.58 145.93 144.97 146.87 145.17 147.82 L 145.38 148.76 C 145.58 149.71 146.52 150.32 147.48 150.12 C 148.43 149.91 149.04 148.97 148.83 148.02 Z M 148.64 147.11 L 148.46 146.18 C 148.27 145.22 147.34 144.59 146.38 144.78 C 145.42 144.97 144.80 145.90 144.98 146.86 L 145.17 147.79 C 145.35 148.75 146.28 149.38 147.24 149.19 C 148.20 149.00 148.83 148.07 148.64 147.11 Z M 148.47 146.21 L 148.30 145.24 C 148.12 144.28 147.20 143.63 146.24 143.81 C 145.27 143.98 144.63 144.90 144.80 145.86 L 144.98 146.83 C 145.15 147.79 146.07 148.44 147.03 148.26 C 148.00 148.09 148.64 147.17 148.47 146.21 Z M 148.30 145.27 L 148.14 144.28 C 147.99 143.31 147.07 142.65 146.10 142.81 C 145.14 142.97 144.48 143.88 144.64 144.85 L 144.80 145.84 C 144.95 146.81 145.87 147.46 146.83 147.31 C 147.80 147.15 148.46 146.24 148.30 145.27 Z M 148.15 144.31 L 148.00 143.29 C 147.86 142.32 146.96 141.65 145.99 141.79 C 145.01 141.93 144.34 142.83 144.48 143.81 L 144.63 144.82 C 144.77 145.79 145.67 146.47 146.64 146.32 C 147.62 146.18 148.29 145.28 148.15 144.31 Z M 148.01 143.32 L 147.88 142.36 C 147.76 141.39 146.87 140.70 145.89 140.82 C 144.92 140.95 144.23 141.84 144.35 142.82 L 144.48 143.78 C 144.60 144.75 145.49 145.44 146.47 145.32 C 147.44 145.19 148.13 144.30 148.01 143.32 Z M 147.89 142.40 L 147.78 141.41 C 147.68 140.43 146.80 139.72 145.82 139.83 C 144.84 139.93 144.14 140.81 144.24 141.79 L 144.35 142.78 C 144.45 143.76 145.33 144.46 146.31 144.36 C 147.29 144.25 147.99 143.38 147.89 142.40 Z M 147.79 141.45 L 147.70 140.44 C 147.62 139.46 146.76 138.73 145.78 138.81 C 144.80 138.89 144.07 139.75 144.15 140.73 L 144.24 141.75 C 144.32 142.73 145.18 143.46 146.16 143.37 C 147.14 143.29 147.87 142.43 147.79 141.45 Z M 147.71 140.49 L 147.65 139.45 C 147.60 138.47 146.76 137.72 145.78 137.77 C 144.79 137.82 144.04 138.66 144.09 139.64 L 144.15 140.68 C 144.20 141.66 145.04 142.42 146.02 142.36 C 147.01 142.31 147.76 141.47 147.71 140.49 Z M 147.65 139.54 L 147.65 138.51 C 147.65 137.52 146.85 136.73 145.86 136.73 C 144.88 136.73 144.08 137.53 144.09 138.52 L 144.09 139.55 C 144.09 140.54 144.89 141.33 145.88 141.33 C 146.86 141.33 147.66 140.53 147.65 139.54 Z M 147.64 138.67 L 147.73 137.68 C 147.82 136.70 147.10 135.83 146.12 135.74 C 145.14 135.65 144.27 136.37 144.18 137.35 L 144.09 138.35 C 144.00 139.33 144.73 140.20 145.71 140.29 C 146.69 140.38 147.55 139.65 147.64 138.67 Z M 147.69 137.95 L 147.92 137.03 C 148.16 136.07 147.58 135.11 146.62 134.87 C 145.67 134.63 144.70 135.21 144.46 136.17 L 144.23 137.08 C 143.99 138.04 144.57 139.01 145.53 139.24 C 146.48 139.48 147.45 138.90 147.69 137.95 Z M 147.77 137.43 L 148.24 136.51 C 148.70 135.64 148.37 134.56 147.49 134.11 C 146.62 133.65 145.55 133.99 145.09 134.86 L 144.61 135.77 C 144.15 136.64 144.49 137.72 145.36 138.17 C 146.23 138.63 147.31 138.30 147.77 137.43 Z M 147.96 136.91 L 148.64 136.19 C 149.32 135.47 149.29 134.35 148.58 133.67 C 147.87 132.99 146.74 133.02 146.06 133.74 L 145.38 134.46 C 144.70 135.17 144.73 136.30 145.44 136.98 C 146.15 137.65 147.28 137.62 147.96 136.91 Z M 148.25 136.50 L 149.08 136.02 C 149.92 135.52 150.21 134.44 149.72 133.59 C 149.23 132.74 148.14 132.45 147.29 132.94 L 146.46 133.42 C 145.61 133.92 145.33 135.00 145.82 135.85 C 146.31 136.70 147.40 136.99 148.25 136.50 Z M 148.56 136.21 L 149.51 136.01 C 150.47 135.80 151.08 134.85 150.87 133.89 C 150.66 132.94 149.71 132.33 148.75 132.54 L 147.81 132.75 C 146.85 132.96 146.24 133.90 146.45 134.86 C 146.66 135.82 147.61 136.42 148.56 136.21 Z M 148.95 136.03 L 149.93 136.13 C 150.91 136.23 151.77 135.52 151.87 134.55 C 151.97 133.58 151.26 132.71 150.29 132.61 L 149.31 132.51 C 148.34 132.41 147.47 133.12 147.37 134.09 C 147.27 135.07 147.98 135.93 148.95 136.03 Z M 149.41 135.99 L 150.35 136.40 C 151.25 136.78 152.29 136.37 152.67 135.47 C 153.06 134.58 152.64 133.54 151.75 133.15 L 150.81 132.75 C 149.92 132.36 148.88 132.78 148.49 133.67 C 148.10 134.57 148.52 135.61 149.41 135.99 Z M 149.95 136.16 L 150.67 136.72 C 151.43 137.33 152.54 137.20 153.14 136.44 C 153.75 135.68 153.62 134.57 152.86 133.96 L 152.15 133.40 C 151.39 132.79 150.28 132.92 149.67 133.68 C 149.06 134.44 149.19 135.55 149.95 136.16 Z M 150.42 136.48 L 151.05 137.23 C 151.68 137.97 152.79 138.06 153.53 137.43 C 154.27 136.80 154.37 135.69 153.74 134.95 L 153.11 134.20 C 152.48 133.46 151.37 133.37 150.62 134.00 C 149.88 134.63 149.79 135.74 150.42 136.48 Z M 150.90 137.01 L 151.45 137.91 C 151.96 138.73 153.05 138.99 153.87 138.48 C 154.70 137.97 154.95 136.88 154.44 136.06 L 153.89 135.16 C 153.38 134.33 152.29 134.08 151.47 134.59 C 150.64 135.10 150.38 136.19 150.90 137.01 Z M 151.36 137.73 L 151.81 138.68 C 152.22 139.56 153.27 139.94 154.15 139.52 C 155.03 139.11 155.40 138.06 154.99 137.18 L 154.54 136.23 C 154.12 135.35 153.07 134.98 152.20 135.39 C 151.32 135.81 150.94 136.85 151.36 137.73 Z M 151.75 138.55 L 152.10 139.49 C 152.44 140.40 153.46 140.86 154.37 140.52 C 155.28 140.18 155.74 139.17 155.40 138.26 L 155.04 137.31 C 154.70 136.40 153.69 135.94 152.78 136.28 C 151.87 136.63 151.41 137.64 151.75 138.55 Z M 152.07 139.39 L 152.36 140.36 C 152.65 141.29 153.63 141.82 154.56 141.53 C 155.49 141.25 156.01 140.26 155.73 139.33 L 155.43 138.36 C 155.15 137.43 154.16 136.91 153.24 137.19 C 152.31 137.48 151.78 138.46 152.07 139.39 Z M 152.34 140.27 L 152.58 141.24 C 152.81 142.19 153.77 142.76 154.71 142.53 C 155.66 142.29 156.23 141.34 156.00 140.40 L 155.76 139.42 C 155.52 138.48 154.57 137.91 153.62 138.14 C 152.68 138.37 152.10 139.33 152.34 140.27 Z M 152.56 141.16 L 152.76 142.16 C 152.94 143.11 153.87 143.74 154.82 143.55 C 155.78 143.36 156.40 142.44 156.21 141.48 L 156.02 140.48 C 155.83 139.53 154.90 138.90 153.95 139.09 C 153.00 139.28 152.37 140.20 152.56 141.16 Z M 152.74 142.07 L 152.89 143.10 C 153.03 144.07 153.92 144.74 154.88 144.60 C 155.85 144.46 156.52 143.57 156.38 142.60 L 156.23 141.57 C 156.09 140.61 155.20 139.94 154.24 140.08 C 153.27 140.21 152.60 141.11 152.74 142.07 Z M 152.88 143.02 L 152.97 144.00 C 153.06 144.97 153.92 145.68 154.89 145.59 C 155.86 145.49 156.57 144.63 156.48 143.66 L 156.39 142.69 C 156.30 141.72 155.44 141.00 154.47 141.10 C 153.50 141.19 152.78 142.05 152.88 143.02 Z M 152.96 143.93 L 153.01 144.87 C 153.07 145.84 153.90 146.58 154.88 146.53 C 155.85 146.47 156.60 145.64 156.54 144.67 L 156.49 143.73 C 156.43 142.76 155.60 142.01 154.62 142.07 C 153.65 142.12 152.91 142.96 152.96 143.93 Z M 153.01 144.82 L 153.04 145.78 C 153.07 146.75 153.88 147.52 154.86 147.49 C 155.83 147.46 156.60 146.65 156.57 145.67 L 156.54 144.71 C 156.52 143.74 155.70 142.97 154.73 143.00 C 153.75 143.03 152.98 143.84 153.01 144.82 Z M 153.04 145.73 L 153.04 146.70 C 153.04 147.68 153.83 148.47 154.81 148.47 C 155.78 148.47 156.58 147.68 156.58 146.70 L 156.58 145.73 C 156.58 144.75 155.78 143.96 154.81 143.96 C 153.83 143.96 153.04 144.75 153.04 145.73 Z M 153.04 146.65 L 153.00 147.68 C 152.97 148.66 153.74 149.48 154.72 149.51 C 155.70 149.54 156.51 148.77 156.54 147.79 L 156.58 146.76 C 156.61 145.78 155.84 144.96 154.86 144.93 C 153.88 144.90 153.07 145.67 153.04 146.65 Z M 153.00 147.63 L 152.95 148.60 C 152.89 149.58 153.63 150.42 154.61 150.48 C 155.59 150.54 156.43 149.79 156.49 148.81 L 156.54 147.84 C 156.60 146.86 155.86 146.02 154.88 145.96 C 153.90 145.91 153.06 146.65 153.00 147.63 Z M 152.95 148.53 L 152.85 149.50 C 152.76 150.48 153.47 151.34 154.45 151.44 C 155.42 151.54 156.29 150.82 156.39 149.85 L 156.48 148.88 C 156.58 147.91 155.87 147.04 154.89 146.94 C 153.91 146.84 153.04 147.56 152.95 148.53 Z M 152.86 149.39 L 152.71 150.39 C 152.55 151.37 153.21 152.28 154.18 152.43 C 155.15 152.58 156.06 151.92 156.22 150.95 L 156.38 149.95 C 156.53 148.98 155.87 148.07 154.90 147.92 C 153.93 147.76 153.02 148.42 152.86 149.39 Z M 152.73 150.25 L 152.48 151.27 C 152.25 152.22 152.84 153.19 153.79 153.42 C 154.75 153.65 155.71 153.07 155.95 152.11 L 156.19 151.09 C 156.43 150.14 155.84 149.18 154.88 148.94 C 153.93 148.71 152.96 149.30 152.73 150.25 Z M 152.53 151.09 L 152.18 152.09 C 151.85 153.02 152.34 154.04 153.27 154.37 C 154.20 154.69 155.22 154.21 155.54 153.28 L 155.90 152.28 C 156.23 151.35 155.74 150.34 154.81 150.01 C 153.88 149.68 152.86 150.17 152.53 151.09 Z M 152.25 151.91 L 151.80 152.86 C 151.37 153.75 151.75 154.82 152.64 155.24 C 153.53 155.67 154.60 155.29 155.02 154.40 L 155.47 153.45 C 155.90 152.57 155.52 151.50 154.63 151.07 C 153.74 150.65 152.68 151.03 152.25 151.91 Z M 151.89 152.69 L 151.36 153.56 C 150.84 154.40 151.10 155.50 151.93 156.02 C 152.77 156.53 153.87 156.28 154.39 155.44 L 154.93 154.57 C 155.45 153.73 155.19 152.63 154.35 152.11 C 153.51 151.59 152.41 151.85 151.89 152.69 Z M 151.48 153.37 L 150.89 154.12 C 150.27 154.88 150.39 156.01 151.15 156.63 C 151.92 157.25 153.05 157.13 153.67 156.36 L 154.27 155.62 C 154.89 154.85 154.76 153.73 154.00 153.11 C 153.23 152.49 152.10 152.61 151.48 153.37 Z M 151.11 153.89 L 150.32 154.56 C 149.58 155.21 149.49 156.34 150.14 157.09 C 150.79 157.83 151.91 157.91 152.66 157.27 L 153.45 156.59 C 154.19 155.95 154.27 154.82 153.63 154.07 C 152.98 153.32 151.85 153.24 151.11 153.89 Z M 150.79 154.27 L 149.84 154.68 C 148.94 155.07 148.52 156.12 148.90 157.02 C 149.29 157.93 150.35 158.35 151.25 157.96 L 152.20 157.56 C 153.10 157.17 153.53 156.12 153.14 155.21 C 152.75 154.30 151.70 153.88 150.79 154.27 Z M 150.76 154.55 L 149.89 154.44 C 148.91 154.32 148.02 155.02 147.90 156.00 C 147.78 156.98 148.48 157.87 149.46 157.99 L 150.33 158.10 C 151.31 158.21 152.21 157.52 152.32 156.53 C 152.44 155.55 151.74 154.66 150.76 154.55 Z M 150.86 154.88 L 150.23 154.31 C 149.49 153.66 148.36 153.73 147.71 154.46 C 147.05 155.20 147.12 156.33 147.85 156.99 L 148.49 157.55 C 149.23 158.21 150.36 158.14 151.01 157.40 C 151.67 156.66 151.60 155.53 150.86 154.88 Z M 150.61 154.80 L 150.15 153.96 C 149.68 153.09 148.60 152.77 147.73 153.24 C 146.86 153.71 146.54 154.80 147.01 155.66 L 147.47 156.51 C 147.94 157.37 149.03 157.69 149.90 157.22 C 150.76 156.75 151.08 155.66 150.61 154.80 Z M 150.28 154.23 L 149.93 153.22 C 149.61 152.28 148.59 151.79 147.66 152.11 C 146.72 152.43 146.23 153.44 146.55 154.38 L 146.89 155.39 C 147.21 156.32 148.23 156.82 149.16 156.50 C 150.10 156.18 150.60 155.16 150.28 154.23 Z M 149.98 153.39 L 149.73 152.34 C 149.51 151.38 148.55 150.78 147.58 151.00 C 146.62 151.23 146.03 152.19 146.25 153.15 L 146.50 154.20 C 146.72 155.17 147.68 155.76 148.64 155.54 C 149.61 155.31 150.20 154.35 149.98 153.39 Z M 149.76 152.47 L 149.59 151.41 C 149.44 150.44 148.53 149.77 147.55 149.92 C 146.58 150.07 145.91 150.99 146.06 151.96 L 146.23 153.02 C 146.38 153.99 147.29 154.66 148.26 154.51 C 149.24 154.36 149.91 153.45 149.76 152.47 Z M 149.61 151.53 L 149.52 150.55 C 149.44 149.57 148.57 148.84 147.59 148.93 C 146.61 149.01 145.88 149.88 145.96 150.86 L 146.05 151.84 C 146.13 152.82 147.00 153.55 147.98 153.47 C 148.96 153.38 149.69 152.52 149.61 151.53 Z M 149.52 150.64 L 149.49 149.69 C 149.45 148.71 148.62 147.94 147.64 147.98 C 146.65 148.02 145.88 148.85 145.92 149.83 L 145.96 150.77 C 146.00 151.76 146.83 152.53 147.81 152.49 C 148.80 152.45 149.56 151.62 149.52 150.64 Z M 149.49 149.73 L 149.47 148.74 C 149.45 147.76 148.64 146.97 147.66 146.99 C 146.67 147.01 145.89 147.82 145.91 148.81 L 145.92 149.79 C 145.94 150.78 146.75 151.56 147.74 151.55 C 148.72 151.53 149.50 150.72 149.49 149.73 Z M 149.47 148.76 L 149.46 147.76 C 149.46 146.78 148.65 145.98 147.67 145.99 C 146.68 146.00 145.89 146.80 145.90 147.79 L 145.91 148.79 C 145.91 149.77 146.72 150.56 147.70 150.56 C 148.68 150.55 149.48 149.75 149.47 148.76 Z M 149.46 147.77 L 149.46 146.77 C 149.46 145.79 148.66 144.99 147.68 144.99 C 146.69 144.99 145.90 145.79 145.90 146.78 L 145.90 147.78 C 145.90 148.76 146.70 149.56 147.68 149.56 C 148.67 149.56 149.46 148.76 149.46 147.77 Z M 149.46 146.78 L 149.46 145.81 C 149.47 144.83 148.67 144.03 147.69 144.02 C 146.70 144.02 145.90 144.82 145.90 145.80 L 145.90 146.77 C 145.89 147.75 146.69 148.55 147.67 148.56 C 148.66 148.56 149.46 147.76 149.46 146.78 Z M 149.46 145.86 L 149.49 144.88 C 149.52 143.90 148.75 143.08 147.76 143.05 C 146.78 143.02 145.96 143.79 145.93 144.78 L 145.90 145.76 C 145.87 146.74 146.65 147.56 147.63 147.59 C 148.61 147.62 149.44 146.84 149.46 145.86 Z M 149.49 144.98 L 149.57 143.96 C 149.66 142.98 148.93 142.12 147.95 142.03 C 146.97 141.95 146.10 142.68 146.02 143.66 L 145.93 144.68 C 145.85 145.66 146.58 146.52 147.56 146.61 C 148.54 146.69 149.40 145.96 149.49 144.98 Z M 149.56 144.09 L 149.72 143.09 C 149.87 142.11 149.21 141.20 148.24 141.04 C 147.27 140.89 146.35 141.55 146.20 142.52 L 146.04 143.53 C 145.88 144.50 146.54 145.41 147.51 145.57 C 148.49 145.73 149.40 145.06 149.56 144.09 Z M 149.69 143.23 L 149.93 142.25 C 150.17 141.29 149.59 140.32 148.63 140.09 C 147.67 139.85 146.71 140.44 146.47 141.39 L 146.23 142.38 C 145.99 143.33 146.57 144.30 147.53 144.53 C 148.49 144.77 149.45 144.19 149.69 143.23 Z M 149.88 142.42 L 150.22 141.47 C 150.56 140.54 150.07 139.52 149.15 139.19 C 148.22 138.85 147.20 139.34 146.86 140.26 L 146.52 141.22 C 146.19 142.14 146.67 143.17 147.60 143.50 C 148.53 143.83 149.55 143.35 149.88 142.42 Z M 150.13 141.69 L 150.58 140.82 C 151.03 139.95 150.69 138.87 149.82 138.41 C 148.95 137.96 147.87 138.30 147.41 139.17 L 146.96 140.04 C 146.51 140.92 146.85 141.99 147.72 142.45 C 148.59 142.90 149.67 142.56 150.13 141.69 Z M 150.38 141.13 L 151.10 140.25 C 151.73 139.49 151.62 138.36 150.85 137.73 C 150.09 137.11 148.96 137.22 148.34 137.98 L 147.61 138.86 C 146.99 139.62 147.10 140.75 147.86 141.38 C 148.62 142.01 149.75 141.90 150.38 141.13 Z M 150.69 140.63 L 151.51 140.11 C 152.35 139.57 152.59 138.46 152.06 137.62 C 151.52 136.79 150.41 136.54 149.57 137.07 L 148.75 137.60 C 147.91 138.13 147.67 139.25 148.20 140.08 C 148.74 140.92 149.85 141.17 150.69 140.63 Z M 150.62 140.40 L 151.44 140.36 C 152.44 140.32 153.21 139.47 153.17 138.48 C 153.12 137.48 152.28 136.71 151.28 136.75 L 150.46 136.79 C 149.47 136.83 148.69 137.67 148.74 138.67 C 148.78 139.67 149.62 140.44 150.62 140.40 Z M 150.36 140.06 L 151.06 140.53 C 151.89 141.08 153.02 140.86 153.57 140.02 C 154.12 139.19 153.90 138.07 153.06 137.51 L 152.36 137.05 C 151.53 136.49 150.41 136.72 149.85 137.55 C 149.30 138.39 149.53 139.51 150.36 140.06 Z M 150.58 140.07 L 151.17 140.90 C 151.75 141.72 152.88 141.91 153.70 141.33 C 154.51 140.75 154.71 139.62 154.13 138.81 L 153.54 137.97 C 152.96 137.16 151.83 136.96 151.01 137.54 C 150.20 138.12 150.00 139.25 150.58 140.07 Z M 150.98 140.56 L 151.42 141.60 C 151.81 142.53 152.87 142.96 153.79 142.57 C 154.72 142.18 155.15 141.12 154.76 140.20 L 154.32 139.15 C 153.93 138.23 152.87 137.80 151.95 138.18 C 151.03 138.57 150.59 139.63 150.98 140.56 Z M 151.34 141.35 L 151.57 142.26 C 151.81 143.23 152.80 143.82 153.77 143.57 C 154.74 143.32 155.33 142.34 155.08 141.37 L 154.85 140.45 C 154.60 139.49 153.62 138.90 152.65 139.15 C 151.68 139.39 151.09 140.38 151.34 141.35 Z M 151.53 142.07 L 151.67 143.04 C 151.81 144.03 152.73 144.72 153.72 144.57 C 154.71 144.43 155.40 143.51 155.26 142.52 L 155.12 141.56 C 154.97 140.57 154.06 139.88 153.07 140.02 C 152.08 140.17 151.39 141.08 151.53 142.07 Z M 151.66 142.90 L 151.72 143.92 C 151.79 144.92 152.65 145.67 153.65 145.61 C 154.65 145.54 155.40 144.68 155.34 143.68 L 155.27 142.66 C 155.20 141.67 154.34 140.91 153.35 140.98 C 152.35 141.04 151.59 141.90 151.66 142.90 Z M 151.72 143.83 L 151.73 144.88 C 151.75 145.88 152.57 146.68 153.57 146.67 C 154.57 146.65 155.37 145.83 155.35 144.83 L 155.34 143.78 C 155.33 142.78 154.50 141.98 153.51 141.99 C 152.51 142.01 151.71 142.83 151.72 143.83 Z M 151.74 144.82 L 151.72 145.83 C 151.69 146.82 152.49 147.65 153.48 147.67 C 154.48 147.69 155.31 146.90 155.33 145.91 L 155.35 144.90 C 155.37 143.90 154.58 143.07 153.58 143.05 C 152.59 143.03 151.76 143.82 151.74 144.82 Z M 151.72 145.75 L 151.66 146.77 C 151.60 147.76 152.35 148.62 153.34 148.68 C 154.34 148.75 155.19 147.99 155.26 147.00 L 155.32 145.98 C 155.38 144.99 154.63 144.13 153.64 144.07 C 152.64 144.01 151.79 144.76 151.72 145.75 Z M 151.67 146.67 L 151.56 147.67 C 151.44 148.66 152.14 149.55 153.13 149.67 C 154.11 149.79 155.01 149.08 155.12 148.10 L 155.24 147.10 C 155.36 146.11 154.65 145.22 153.67 145.10 C 152.68 144.98 151.79 145.69 151.67 146.67 Z M 151.58 147.55 L 151.40 148.50 C 151.21 149.47 151.84 150.41 152.82 150.60 C 153.79 150.78 154.73 150.15 154.91 149.18 L 155.10 148.22 C 155.29 147.25 154.65 146.31 153.68 146.13 C 152.71 145.94 151.77 146.57 151.58 147.55 Z M 151.44 148.32 L 151.15 149.30 C 150.87 150.25 151.40 151.24 152.35 151.53 C 153.29 151.81 154.29 151.27 154.57 150.33 L 154.87 149.35 C 155.15 148.41 154.61 147.41 153.67 147.13 C 152.72 146.84 151.73 147.38 151.44 148.32 Z M 151.22 149.11 L 150.83 150.02 C 150.44 150.93 150.86 151.98 151.77 152.37 C 152.67 152.75 153.72 152.34 154.11 151.43 L 154.50 150.52 C 154.89 149.61 154.47 148.57 153.56 148.18 C 152.66 147.79 151.61 148.21 151.22 149.11 Z M 150.92 149.86 L 150.44 150.72 C 149.96 151.57 150.27 152.66 151.12 153.14 C 151.98 153.62 153.06 153.31 153.54 152.45 L 154.02 151.60 C 154.50 150.74 154.20 149.65 153.34 149.18 C 152.48 148.70 151.40 149.00 150.92 149.86 Z M 150.52 150.59 L 149.96 151.42 C 149.41 152.23 149.63 153.33 150.44 153.88 C 151.25 154.43 152.35 154.22 152.90 153.41 L 153.46 152.58 C 154.01 151.77 153.80 150.67 152.99 150.12 C 152.18 149.57 151.07 149.78 150.52 150.59 Z M 150.04 151.32 L 149.40 152.13 C 148.80 152.90 148.93 154.01 149.70 154.62 C 150.47 155.22 151.59 155.09 152.19 154.32 L 152.83 153.50 C 153.43 152.73 153.30 151.62 152.53 151.02 C 151.76 150.41 150.64 150.55 150.04 151.32 Z M 149.49 152.02 L 148.80 152.77 C 148.13 153.49 148.18 154.62 148.90 155.28 C 149.62 155.94 150.74 155.90 151.40 155.18 L 152.10 154.42 C 152.76 153.70 152.72 152.58 152.00 151.92 C 151.28 151.25 150.16 151.30 149.49 152.02 Z M 148.93 152.65 L 148.19 153.30 C 147.45 153.95 147.38 155.07 148.03 155.80 C 148.68 156.54 149.80 156.61 150.54 155.96 L 151.27 155.30 C 152.01 154.66 152.08 153.54 151.43 152.80 C 150.78 152.07 149.66 152.00 148.93 152.65 Z M 148.40 153.14 L 147.55 153.69 C 146.73 154.22 146.49 155.32 147.02 156.14 C 147.56 156.96 148.66 157.20 149.48 156.67 L 150.33 156.12 C 151.15 155.58 151.38 154.49 150.85 153.66 C 150.32 152.84 149.22 152.61 148.40 153.14 Z M 147.93 153.50 L 146.90 153.86 C 145.97 154.19 145.49 155.20 145.81 156.13 C 146.14 157.05 147.15 157.54 148.08 157.21 L 149.10 156.85 C 150.03 156.53 150.51 155.52 150.19 154.59 C 149.86 153.67 148.85 153.18 147.93 153.50 Z M 147.56 153.76 L 146.65 153.72 C 145.67 153.68 144.84 154.44 144.80 155.42 C 144.76 156.40 145.52 157.23 146.50 157.28 L 147.41 157.32 C 148.39 157.36 149.22 156.60 149.27 155.62 C 149.31 154.63 148.55 153.80 147.56 153.76 Z M 147.61 154.04 L 146.94 153.57 C 146.14 153.00 145.02 153.19 144.46 154.00 C 143.89 154.80 144.08 155.91 144.88 156.48 L 145.55 156.95 C 146.35 157.52 147.46 157.33 148.03 156.53 C 148.60 155.72 148.41 154.61 147.61 154.04 Z M 147.50 154.22 L 147.08 153.39 C 146.63 152.52 145.56 152.17 144.68 152.62 C 143.80 153.07 143.45 154.14 143.90 155.02 L 144.32 155.84 C 144.77 156.72 145.85 157.06 146.72 156.62 C 147.60 156.17 147.95 155.09 147.50 154.22 Z M 147.23 153.79 L 146.98 152.74 C 146.75 151.78 145.79 151.19 144.83 151.42 C 143.87 151.65 143.28 152.61 143.51 153.57 L 143.76 154.62 C 143.98 155.58 144.95 156.17 145.90 155.94 C 146.86 155.71 147.46 154.75 147.23 153.79 Z M 147.01 152.95 L 146.89 151.88 C 146.77 150.91 145.88 150.21 144.91 150.32 C 143.93 150.44 143.23 151.33 143.34 152.30 L 143.47 153.37 C 143.59 154.35 144.47 155.04 145.45 154.93 C 146.43 154.81 147.13 153.92 147.01 152.95 Z M 146.90 152.01 L 146.85 151.02 C 146.81 150.03 145.98 149.27 144.99 149.31 C 144.01 149.36 143.25 150.19 143.29 151.17 L 143.33 152.17 C 143.38 153.16 144.21 153.92 145.20 153.88 C 146.18 153.83 146.94 153.00 146.90 152.01 Z M 146.85 151.15 L 146.88 150.15 C 146.91 149.16 146.14 148.34 145.15 148.31 C 144.17 148.28 143.35 149.05 143.32 150.04 L 143.29 151.04 C 143.26 152.03 144.03 152.85 145.02 152.88 C 146.00 152.91 146.83 152.13 146.85 151.15 Z M 146.87 150.29 L 146.98 149.30 C 147.09 148.32 146.39 147.44 145.41 147.33 C 144.43 147.22 143.55 147.92 143.44 148.90 L 143.33 149.90 C 143.22 150.87 143.93 151.76 144.90 151.86 C 145.88 151.97 146.77 151.27 146.87 150.29 Z M 146.96 149.45 L 147.15 148.51 C 147.35 147.55 146.72 146.61 145.76 146.41 C 144.79 146.22 143.85 146.84 143.66 147.80 L 143.46 148.75 C 143.27 149.71 143.89 150.65 144.86 150.85 C 145.82 151.04 146.76 150.42 146.96 149.45 Z M 147.11 148.69 L 147.39 147.75 C 147.69 146.81 147.16 145.81 146.22 145.52 C 145.28 145.23 144.28 145.76 143.99 146.70 L 143.70 147.63 C 143.41 148.57 143.94 149.57 144.88 149.86 C 145.82 150.15 146.82 149.63 147.11 148.69 Z M 147.33 147.93 L 147.73 147.00 C 148.12 146.09 147.70 145.04 146.80 144.65 C 145.90 144.26 144.85 144.68 144.46 145.58 L 144.05 146.52 C 143.66 147.42 144.08 148.47 144.99 148.86 C 145.89 149.25 146.94 148.84 147.33 147.93 Z M 147.65 147.16 L 148.16 146.26 C 148.64 145.40 148.33 144.31 147.47 143.83 C 146.61 143.35 145.53 143.66 145.04 144.51 L 144.54 145.42 C 144.06 146.28 144.36 147.37 145.22 147.85 C 146.08 148.33 147.17 148.02 147.65 147.16 Z M 148.07 146.40 L 148.65 145.56 C 149.21 144.75 149.00 143.64 148.19 143.08 C 147.37 142.52 146.26 142.73 145.70 143.54 L 145.13 144.37 C 144.57 145.19 144.78 146.30 145.59 146.86 C 146.40 147.42 147.51 147.21 148.07 146.40 Z M 148.55 145.70 L 149.21 144.91 C 149.84 144.15 149.73 143.02 148.97 142.39 C 148.21 141.75 147.08 141.86 146.45 142.62 L 145.80 143.41 C 145.17 144.17 145.27 145.30 146.03 145.93 C 146.79 146.56 147.92 146.46 148.55 145.70 Z M 149.08 145.05 L 149.80 144.35 C 150.51 143.66 150.52 142.52 149.83 141.81 C 149.14 141.10 148.00 141.09 147.29 141.78 L 146.58 142.48 C 145.87 143.17 145.85 144.31 146.55 145.02 C 147.24 145.73 148.37 145.74 149.08 145.05 Z M 149.61 144.51 L 150.45 143.90 C 151.25 143.31 151.42 142.19 150.83 141.39 C 150.24 140.58 149.12 140.41 148.31 141.00 L 147.48 141.62 C 146.68 142.20 146.51 143.33 147.10 144.13 C 147.68 144.93 148.81 145.10 149.61 144.51 Z M 150.12 144.10 L 151.15 143.63 C 152.06 143.22 152.46 142.15 152.05 141.24 C 151.64 140.34 150.57 139.93 149.66 140.34 L 148.64 140.81 C 147.73 141.22 147.32 142.29 147.73 143.19 C 148.15 144.10 149.21 144.51 150.12 144.10 Z M 150.60 143.79 L 151.53 143.69 C 152.52 143.58 153.24 142.68 153.13 141.69 C 153.02 140.69 152.13 139.97 151.13 140.08 L 150.21 140.18 C 149.21 140.29 148.49 141.19 148.60 142.19 C 148.71 143.18 149.61 143.90 150.60 143.79 Z M 150.61 143.56 L 151.33 143.87 C 152.26 144.27 153.33 143.84 153.73 142.91 C 154.12 141.99 153.69 140.92 152.77 140.52 L 152.05 140.21 C 151.12 139.81 150.05 140.24 149.66 141.17 C 149.26 142.09 149.69 143.16 150.61 143.56 Z M 150.51 143.17 L 150.97 143.90 C 151.51 144.76 152.63 145.01 153.49 144.48 C 154.34 143.94 154.60 142.81 154.06 141.96 L 153.60 141.22 C 153.06 140.37 151.93 140.11 151.08 140.65 C 150.23 141.19 149.97 142.31 150.51 143.17 Z M 150.74 143.34 L 150.97 144.37 C 151.20 145.35 152.18 145.97 153.16 145.74 C 154.15 145.51 154.76 144.53 154.53 143.55 L 154.29 142.52 C 154.07 141.54 153.09 140.93 152.10 141.15 C 151.12 141.38 150.51 142.36 150.74 143.34 Z M 150.93 144.10 L 151.01 145.19 C 151.09 146.20 151.96 146.95 152.97 146.88 C 153.97 146.81 154.73 145.93 154.65 144.93 L 154.57 143.83 C 154.50 142.82 153.62 142.07 152.62 142.14 C 151.61 142.22 150.86 143.09 150.93 144.10 Z M 151.01 145.03 L 150.99 146.04 C 150.98 147.05 151.78 147.88 152.79 147.90 C 153.79 147.91 154.62 147.11 154.64 146.10 L 154.66 145.09 C 154.67 144.08 153.87 143.25 152.86 143.24 C 151.86 143.22 151.03 144.02 151.01 145.03 Z M 151.01 145.88 L 150.90 146.89 C 150.80 147.89 151.52 148.78 152.52 148.89 C 153.52 148.99 154.41 148.27 154.52 147.27 L 154.63 146.26 C 154.73 145.27 154.01 144.37 153.01 144.26 C 152.01 144.16 151.11 144.88 151.01 145.88 Z M 150.93 146.70 L 150.73 147.65 C 150.52 148.63 151.14 149.60 152.12 149.81 C 153.10 150.02 154.07 149.40 154.28 148.42 L 154.49 147.46 C 154.70 146.48 154.07 145.51 153.09 145.30 C 152.11 145.09 151.15 145.71 150.93 146.70 Z M 150.80 147.42 L 150.46 148.36 C 150.12 149.30 150.61 150.34 151.55 150.68 C 152.49 151.02 153.53 150.53 153.87 149.59 L 154.21 148.65 C 154.55 147.71 154.06 146.67 153.12 146.33 C 152.18 145.99 151.14 146.48 150.80 147.42 Z M 150.57 148.14 L 150.11 149.01 C 149.65 149.89 149.99 150.98 150.87 151.45 C 151.76 151.91 152.85 151.57 153.31 150.68 L 153.77 149.81 C 154.23 148.93 153.89 147.84 153.00 147.37 C 152.12 146.91 151.03 147.25 150.57 148.14 Z M 150.22 148.84 L 149.66 149.67 C 149.11 150.50 149.32 151.61 150.15 152.17 C 150.97 152.72 152.09 152.50 152.64 151.68 L 153.20 150.85 C 153.76 150.03 153.54 148.91 152.71 148.36 C 151.89 147.80 150.78 148.02 150.22 148.84 Z M 149.75 149.56 L 149.14 150.33 C 148.52 151.10 148.65 152.23 149.42 152.85 C 150.20 153.46 151.32 153.34 151.94 152.56 L 152.55 151.79 C 153.17 151.02 153.04 149.89 152.27 149.28 C 151.49 148.66 150.37 148.79 149.75 149.56 Z M 149.24 150.22 L 148.56 150.93 C 147.88 151.65 147.91 152.78 148.63 153.46 C 149.35 154.14 150.48 154.11 151.16 153.39 L 151.84 152.68 C 152.52 151.96 152.48 150.83 151.77 150.15 C 151.05 149.47 149.92 149.50 149.24 150.22 Z M 148.71 150.79 L 147.94 151.44 C 147.18 152.07 147.08 153.20 147.71 153.95 C 148.34 154.71 149.47 154.81 150.23 154.18 L 151.00 153.54 C 151.76 152.90 151.86 151.78 151.23 151.02 C 150.60 150.26 149.47 150.16 148.71 150.79 Z M 148.16 151.28 L 147.27 151.82 C 146.43 152.33 146.16 153.42 146.67 154.27 C 147.17 155.11 148.27 155.38 149.11 154.87 L 150.00 154.34 C 150.85 153.83 151.12 152.73 150.61 151.89 C 150.10 151.05 149.01 150.77 148.16 151.28 Z M 147.56 151.68 L 146.55 152.06 C 145.63 152.41 145.17 153.44 145.51 154.36 C 145.86 155.28 146.89 155.75 147.81 155.40 L 148.83 155.01 C 149.75 154.66 150.21 153.64 149.86 152.71 C 149.51 151.79 148.48 151.33 147.56 151.68 Z M 146.91 151.97 L 145.91 152.12 C 144.93 152.27 144.27 153.18 144.41 154.15 C 144.56 155.13 145.47 155.79 146.44 155.64 L 147.45 155.49 C 148.42 155.34 149.09 154.43 148.94 153.46 C 148.79 152.49 147.89 151.82 146.91 151.97 Z M 146.44 152.12 L 145.55 151.99 C 144.58 151.84 143.67 152.51 143.52 153.49 C 143.38 154.46 144.05 155.37 145.02 155.51 L 145.91 155.64 C 146.88 155.79 147.79 155.12 147.94 154.15 C 148.08 153.17 147.41 152.27 146.44 152.12 Z M 146.30 152.29 L 145.64 151.83 C 144.83 151.27 143.72 151.47 143.16 152.28 C 142.60 153.09 142.80 154.20 143.61 154.76 L 144.27 155.21 C 145.08 155.77 146.19 155.57 146.75 154.76 C 147.31 153.95 147.11 152.85 146.30 152.29 Z M 146.16 152.39 L 145.71 151.63 C 145.21 150.78 144.12 150.50 143.28 150.99 C 142.43 151.49 142.14 152.58 142.64 153.43 L 143.09 154.19 C 143.59 155.04 144.68 155.32 145.52 154.83 C 146.37 154.33 146.66 153.24 146.16 152.39 Z M 145.89 152.06 L 145.61 151.02 C 145.35 150.08 144.38 149.52 143.43 149.77 C 142.48 150.03 141.92 151.01 142.18 151.95 L 142.46 152.99 C 142.72 153.94 143.69 154.50 144.64 154.24 C 145.59 153.99 146.15 153.01 145.89 152.06 Z M 145.66 151.27 L 145.51 150.12 C 145.39 149.15 144.50 148.46 143.53 148.58 C 142.55 148.71 141.86 149.60 141.99 150.57 L 142.13 151.71 C 142.25 152.69 143.14 153.38 144.12 153.25 C 145.09 153.13 145.78 152.24 145.66 151.27 Z M 145.53 150.25 L 145.47 149.27 C 145.42 148.29 144.58 147.54 143.60 147.59 C 142.62 147.64 141.87 148.48 141.92 149.46 L 141.97 150.44 C 142.03 151.42 142.86 152.17 143.84 152.12 C 144.83 152.07 145.58 151.23 145.53 150.25 Z M 145.48 149.37 L 145.48 148.34 C 145.48 147.36 144.68 146.56 143.70 146.56 C 142.72 146.56 141.92 147.35 141.92 148.33 L 141.92 149.36 C 141.92 150.35 142.71 151.14 143.70 151.14 C 144.68 151.14 145.47 150.35 145.48 149.37 Z M 145.47 148.44 L 145.53 147.40 C 145.59 146.42 144.84 145.58 143.86 145.53 C 142.88 145.47 142.04 146.22 141.98 147.20 L 141.92 148.24 C 141.87 149.22 142.62 150.06 143.60 150.11 C 144.58 150.17 145.42 149.42 145.47 148.44 Z M 145.52 147.52 L 145.64 146.52 C 145.76 145.55 145.07 144.66 144.09 144.54 C 143.12 144.42 142.23 145.12 142.11 146.09 L 141.99 147.09 C 141.87 148.06 142.57 148.95 143.54 149.07 C 144.52 149.19 145.40 148.49 145.52 147.52 Z M 145.62 146.67 L 145.83 145.67 C 146.03 144.71 145.41 143.77 144.45 143.57 C 143.49 143.37 142.54 143.98 142.34 144.95 L 142.14 145.94 C 141.94 146.91 142.55 147.85 143.52 148.05 C 144.48 148.25 145.42 147.63 145.62 146.67 Z M 145.77 145.88 L 146.12 144.86 C 146.44 143.93 145.94 142.92 145.00 142.60 C 144.07 142.28 143.06 142.78 142.74 143.72 L 142.40 144.74 C 142.08 145.67 142.58 146.68 143.51 147.00 C 144.45 147.31 145.46 146.81 145.77 145.88 Z M 146.02 145.11 L 146.47 144.23 C 146.92 143.35 146.58 142.28 145.70 141.82 C 144.82 141.37 143.75 141.72 143.29 142.59 L 142.84 143.47 C 142.39 144.35 142.74 145.42 143.61 145.88 C 144.49 146.33 145.57 145.98 146.02 145.11 Z M 146.33 144.47 L 146.88 143.72 C 147.46 142.92 147.29 141.80 146.49 141.21 C 145.69 140.63 144.57 140.81 143.98 141.60 L 143.44 142.36 C 142.85 143.16 143.03 144.28 143.83 144.86 C 144.63 145.44 145.75 145.27 146.33 144.47 Z M 146.71 143.92 L 147.39 143.23 C 148.09 142.53 148.08 141.39 147.38 140.69 C 146.67 140.00 145.54 140.00 144.84 140.71 L 144.16 141.40 C 143.46 142.10 143.46 143.24 144.17 143.94 C 144.87 144.63 146.01 144.63 146.71 143.92 Z M 147.18 143.42 L 148.01 142.81 C 148.81 142.22 148.98 141.10 148.39 140.29 C 147.81 139.49 146.68 139.32 145.88 139.91 L 145.05 140.52 C 144.25 141.11 144.07 142.24 144.66 143.04 C 145.25 143.84 146.38 144.01 147.18 143.42 Z M 147.72 142.99 L 148.62 142.56 C 149.52 142.13 149.90 141.05 149.47 140.16 C 149.04 139.26 147.96 138.87 147.06 139.30 L 146.17 139.73 C 145.27 140.16 144.88 141.24 145.31 142.14 C 145.74 143.04 146.82 143.42 147.72 142.99 Z M 148.22 142.70 L 149.15 142.50 C 150.13 142.29 150.75 141.33 150.54 140.36 C 150.33 139.38 149.37 138.75 148.39 138.96 L 147.46 139.16 C 146.48 139.37 145.86 140.33 146.07 141.31 C 146.28 142.29 147.24 142.91 148.22 142.70 Z M 148.62 142.54 L 149.64 142.63 C 150.64 142.71 151.52 141.97 151.60 140.98 C 151.69 139.98 150.95 139.10 149.95 139.01 L 148.92 138.93 C 147.93 138.84 147.05 139.58 146.96 140.58 C 146.88 141.58 147.62 142.46 148.62 142.54 Z M 149.09 142.49 L 150.01 142.88 C 150.93 143.27 152.00 142.84 152.39 141.91 C 152.77 140.99 152.34 139.93 151.42 139.54 L 150.50 139.15 C 149.58 138.76 148.51 139.19 148.12 140.12 C 147.73 141.04 148.17 142.10 149.09 142.49 Z M 149.49 142.55 L 150.20 143.20 C 150.94 143.87 152.09 143.82 152.76 143.07 C 153.44 142.33 153.39 141.18 152.64 140.51 L 151.94 139.86 C 151.19 139.19 150.04 139.24 149.37 139.99 C 148.69 140.73 148.75 141.88 149.49 142.55 Z M 149.80 142.67 L 150.19 143.45 C 150.65 144.35 151.74 144.71 152.64 144.25 C 153.53 143.80 153.89 142.71 153.44 141.81 L 153.04 141.03 C 152.59 140.14 151.50 139.78 150.60 140.23 C 149.71 140.68 149.35 141.78 149.80 142.67 Z M 150.03 142.96 L 150.20 143.90 C 150.38 144.89 151.32 145.54 152.31 145.36 C 153.30 145.18 153.95 144.23 153.77 143.25 L 153.60 142.31 C 153.42 141.32 152.48 140.66 151.49 140.84 C 150.50 141.02 149.85 141.97 150.03 142.96 Z M 150.17 143.55 L 150.16 144.64 C 150.15 145.65 150.95 146.47 151.96 146.48 C 152.96 146.49 153.78 145.69 153.79 144.68 L 153.80 143.59 C 153.81 142.59 153.01 141.77 152.01 141.76 C 151.00 141.75 150.18 142.55 150.17 143.55 Z M 150.17 144.45 L 150.05 145.46 C 149.93 146.46 150.64 147.36 151.63 147.48 C 152.63 147.60 153.53 146.89 153.65 145.90 L 153.78 144.88 C 153.90 143.89 153.19 142.98 152.19 142.86 C 151.20 142.74 150.29 143.45 150.17 144.45 Z M 150.07 145.33 L 149.88 146.29 C 149.68 147.27 150.32 148.23 151.31 148.42 C 152.29 148.62 153.25 147.98 153.44 147.00 L 153.63 146.03 C 153.83 145.05 153.19 144.09 152.21 143.90 C 151.22 143.70 150.27 144.34 150.07 145.33 Z M 149.91 146.15 L 149.64 147.13 C 149.37 148.10 149.93 149.10 150.90 149.37 C 151.86 149.64 152.86 149.08 153.14 148.11 L 153.41 147.13 C 153.68 146.17 153.12 145.16 152.15 144.89 C 151.18 144.62 150.18 145.19 149.91 146.15 Z M 149.69 146.98 L 149.33 147.94 C 148.97 148.88 149.45 149.93 150.38 150.28 C 151.32 150.63 152.37 150.16 152.72 149.22 L 153.09 148.26 C 153.44 147.32 152.97 146.27 152.03 145.92 C 151.09 145.57 150.04 146.04 149.69 146.98 Z M 149.40 147.77 L 148.94 148.69 C 148.49 149.58 148.85 150.67 149.75 151.12 C 150.64 151.57 151.73 151.21 152.18 150.32 L 152.65 149.40 C 153.10 148.50 152.74 147.41 151.84 146.96 C 150.94 146.51 149.85 146.87 149.40 147.77 Z M 149.05 148.49 L 148.46 149.37 C 147.90 150.20 148.13 151.33 148.96 151.89 C 149.79 152.45 150.92 152.23 151.48 151.39 L 152.07 150.51 C 152.63 149.68 152.41 148.55 151.57 147.99 C 150.74 147.44 149.61 147.66 149.05 148.49 Z M 148.61 149.18 L 147.93 149.95 C 147.27 150.71 147.34 151.85 148.10 152.52 C 148.85 153.18 149.99 153.10 150.66 152.35 L 151.33 151.58 C 152.00 150.83 151.92 149.68 151.17 149.02 C 150.42 148.36 149.27 148.43 148.61 149.18 Z M 148.11 149.78 L 147.37 150.42 C 146.61 151.08 146.53 152.22 147.18 152.98 C 147.84 153.74 148.99 153.82 149.74 153.16 L 150.48 152.52 C 151.24 151.87 151.32 150.72 150.67 149.96 C 150.01 149.21 148.86 149.12 148.11 149.78 Z M 147.58 150.26 L 146.81 150.75 C 145.96 151.29 145.71 152.41 146.24 153.26 C 146.78 154.10 147.90 154.35 148.75 153.82 L 149.53 153.33 C 150.37 152.79 150.62 151.67 150.09 150.82 C 149.55 149.97 148.43 149.72 147.58 150.26 Z M 147.14 150.59 L 146.09 150.98 C 145.15 151.34 144.68 152.38 145.03 153.32 C 145.39 154.26 146.43 154.73 147.37 154.38 L 148.42 153.98 C 149.36 153.63 149.83 152.58 149.47 151.64 C 149.12 150.71 148.07 150.23 147.14 150.59 Z M 146.62 150.87 L 145.64 150.93 C 144.64 150.99 143.88 151.85 143.94 152.85 C 144.00 153.85 144.86 154.61 145.86 154.55 L 146.84 154.49 C 147.84 154.43 148.60 153.57 148.54 152.57 C 148.48 151.57 147.62 150.81 146.62 150.87 Z M 146.40 151.05 L 145.57 150.73 C 144.64 150.37 143.59 150.84 143.23 151.77 C 142.87 152.70 143.34 153.75 144.27 154.11 L 145.09 154.43 C 146.03 154.79 147.07 154.33 147.43 153.39 C 147.79 152.46 147.33 151.41 146.40 151.05 Z M 146.30 151.25 L 145.75 150.61 C 145.11 149.84 143.97 149.75 143.21 150.39 C 142.44 151.03 142.35 152.18 142.99 152.94 L 143.54 153.59 C 144.18 154.35 145.32 154.45 146.09 153.80 C 146.85 153.16 146.95 152.02 146.30 151.25 Z M 146.05 151.11 L 145.70 150.21 C 145.33 149.28 144.28 148.83 143.35 149.20 C 142.43 149.56 141.97 150.61 142.34 151.54 L 142.70 152.44 C 143.06 153.36 144.11 153.82 145.04 153.45 C 145.96 153.08 146.42 152.03 146.05 151.11 Z M 145.78 150.51 L 145.56 149.46 C 145.36 148.48 144.41 147.86 143.43 148.06 C 142.46 148.26 141.83 149.21 142.03 150.19 L 142.25 151.24 C 142.46 152.21 143.41 152.84 144.38 152.64 C 145.36 152.43 145.98 151.48 145.78 150.51 Z M 145.59 149.62 L 145.46 148.53 C 145.35 147.55 144.46 146.84 143.47 146.95 C 142.48 147.06 141.77 147.96 141.89 148.94 L 142.01 150.03 C 142.12 151.01 143.02 151.72 144.00 151.61 C 144.99 151.50 145.70 150.61 145.59 149.62 Z M 145.47 148.64 L 145.41 147.60 C 145.36 146.61 144.51 145.85 143.52 145.91 C 142.53 145.96 141.77 146.81 141.82 147.80 L 141.88 148.84 C 141.94 149.83 142.78 150.59 143.78 150.53 C 144.77 150.48 145.53 149.63 145.47 148.64 Z M 145.41 147.71 L 145.42 146.70 C 145.42 145.71 144.62 144.91 143.63 144.90 C 142.63 144.90 141.83 145.70 141.82 146.69 L 141.82 147.70 C 141.82 148.69 142.62 149.50 143.61 149.50 C 144.60 149.50 145.41 148.70 145.41 147.71 Z M 145.41 146.82 L 145.48 145.86 C 145.54 144.87 144.79 144.02 143.80 143.95 C 142.81 143.89 141.96 144.64 141.89 145.63 L 141.83 146.58 C 141.76 147.57 142.51 148.43 143.50 148.49 C 144.49 148.56 145.35 147.81 145.41 146.82 Z M 145.46 146.00 L 145.60 145.00 C 145.75 144.02 145.06 143.11 144.08 142.97 C 143.10 142.83 142.19 143.51 142.05 144.49 L 141.91 145.49 C 141.76 146.47 142.45 147.38 143.43 147.52 C 144.41 147.66 145.32 146.98 145.46 146.00 Z M 145.57 145.19 L 145.82 144.22 C 146.06 143.25 145.47 142.28 144.51 142.03 C 143.55 141.79 142.57 142.37 142.33 143.34 L 142.08 144.30 C 141.84 145.27 142.42 146.25 143.39 146.49 C 144.35 146.73 145.33 146.15 145.57 145.19 Z M 145.75 144.45 L 146.11 143.54 C 146.48 142.61 146.03 141.56 145.10 141.19 C 144.18 140.83 143.13 141.28 142.76 142.20 L 142.39 143.11 C 142.03 144.04 142.48 145.09 143.40 145.45 C 144.33 145.82 145.38 145.37 145.75 144.45 Z M 146.00 143.78 L 146.47 142.95 C 146.97 142.09 146.68 140.98 145.82 140.48 C 144.95 139.98 143.85 140.28 143.35 141.14 L 142.87 141.96 C 142.37 142.83 142.66 143.93 143.53 144.43 C 144.39 144.93 145.50 144.64 146.00 143.78 Z M 146.31 143.20 L 146.92 142.46 C 147.55 141.69 147.44 140.55 146.67 139.91 C 145.90 139.28 144.76 139.38 144.13 140.16 L 143.52 140.89 C 142.88 141.66 142.99 142.80 143.76 143.44 C 144.53 144.08 145.67 143.97 146.31 143.20 Z M 146.66 142.71 L 147.45 142.07 C 148.22 141.44 148.34 140.30 147.71 139.53 C 147.07 138.75 145.93 138.63 145.16 139.27 L 144.38 139.90 C 143.60 140.54 143.49 141.68 144.12 142.45 C 144.75 143.23 145.89 143.34 146.66 142.71 Z M 147.12 142.28 L 148.07 141.80 C 148.96 141.35 149.32 140.26 148.86 139.37 C 148.41 138.48 147.32 138.12 146.43 138.57 L 145.48 139.05 C 144.59 139.51 144.24 140.60 144.69 141.49 C 145.14 142.38 146.23 142.74 147.12 142.28 Z M 147.76 141.93 L 148.73 141.64 C 149.69 141.36 150.24 140.35 149.96 139.39 C 149.68 138.43 148.67 137.88 147.71 138.16 L 146.74 138.45 C 145.78 138.73 145.23 139.74 145.51 140.70 C 145.79 141.66 146.80 142.21 147.76 141.93 Z M 148.46 141.70 L 149.49 141.56 C 150.49 141.43 151.18 140.51 151.05 139.52 C 150.91 138.53 150.00 137.83 149.01 137.97 L 147.98 138.11 C 146.99 138.24 146.29 139.15 146.43 140.15 C 146.56 141.14 147.47 141.83 148.46 141.70 Z M 149.21 141.58 L 150.21 141.60 C 151.21 141.62 152.04 140.83 152.06 139.83 C 152.09 138.83 151.30 138.00 150.29 137.97 L 149.29 137.95 C 148.29 137.93 147.46 138.72 147.44 139.72 C 147.41 140.72 148.20 141.55 149.21 141.58 Z M 149.83 141.55 L 150.77 141.78 C 151.74 142.01 152.72 141.41 152.95 140.44 C 153.19 139.46 152.59 138.48 151.61 138.25 L 150.67 138.02 C 149.70 137.79 148.72 138.39 148.49 139.36 C 148.25 140.34 148.85 141.32 149.83 141.55 Z M 150.26 141.57 L 151.13 142.09 C 151.99 142.60 153.11 142.32 153.62 141.46 C 154.13 140.60 153.85 139.49 152.99 138.97 L 152.12 138.45 C 151.26 137.94 150.14 138.22 149.63 139.08 C 149.12 139.94 149.40 141.06 150.26 141.57 Z M 150.71 141.75 L 151.36 142.47 C 152.03 143.21 153.18 143.27 153.92 142.60 C 154.67 141.93 154.73 140.79 154.06 140.04 L 153.41 139.32 C 152.74 138.57 151.59 138.51 150.85 139.18 C 150.10 139.85 150.04 141.00 150.71 141.75 Z M 151.13 142.14 L 151.61 142.99 C 152.10 143.87 153.21 144.18 154.08 143.69 C 154.95 143.20 155.26 142.09 154.77 141.22 L 154.29 140.37 C 153.80 139.49 152.70 139.18 151.82 139.67 C 150.95 140.17 150.64 141.27 151.13 142.14 Z M 151.49 142.74 L 151.84 143.67 C 152.19 144.61 153.24 145.09 154.18 144.73 C 155.11 144.38 155.59 143.34 155.24 142.40 L 154.89 141.47 C 154.53 140.53 153.49 140.06 152.55 140.41 C 151.61 140.76 151.14 141.81 151.49 142.74 Z M 151.78 143.45 L 152.01 144.42 C 152.24 145.40 153.21 146.00 154.19 145.77 C 155.16 145.54 155.76 144.56 155.53 143.59 L 155.30 142.62 C 155.07 141.64 154.09 141.04 153.12 141.27 C 152.15 141.50 151.54 142.48 151.78 143.45 Z M 151.97 144.24 L 152.10 145.24 C 152.23 146.23 153.14 146.93 154.13 146.80 C 155.12 146.67 155.82 145.77 155.69 144.77 L 155.57 143.77 C 155.44 142.78 154.53 142.08 153.54 142.21 C 152.54 142.34 151.84 143.25 151.97 144.24 Z M 152.09 145.06 L 152.12 146.10 C 152.15 147.10 152.98 147.88 153.98 147.86 C 154.98 147.83 155.76 147.00 155.74 146.00 L 155.71 144.96 C 155.68 143.96 154.85 143.17 153.85 143.20 C 152.85 143.22 152.06 144.06 152.09 145.06 Z M 152.14 145.79 L 151.99 146.77 C 151.85 147.76 152.54 148.68 153.52 148.82 C 154.51 148.97 155.43 148.28 155.57 147.29 L 155.72 146.31 C 155.86 145.32 155.17 144.40 154.19 144.26 C 153.20 144.11 152.28 144.80 152.14 145.79 Z M 152.14 146.28 L 151.75 147.13 C 151.33 148.04 151.73 149.11 152.63 149.53 C 153.54 149.95 154.61 149.55 155.03 148.64 L 155.43 147.79 C 155.84 146.88 155.45 145.81 154.54 145.39 C 153.63 144.97 152.56 145.37 152.14 146.28 Z M 152.13 146.60 L 151.46 147.25 C 150.75 147.95 150.74 149.09 151.44 149.80 C 152.14 150.52 153.28 150.53 153.99 149.83 L 154.65 149.18 C 155.37 148.48 155.38 147.34 154.68 146.62 C 153.98 145.91 152.84 145.90 152.13 146.60 Z M 151.88 146.94 L 151.00 147.41 C 150.12 147.87 149.78 148.97 150.25 149.85 C 150.71 150.73 151.80 151.07 152.69 150.60 L 153.57 150.14 C 154.45 149.67 154.79 148.58 154.32 147.70 C 153.86 146.82 152.77 146.48 151.88 146.94 Z M 151.37 147.26 L 150.35 147.54 C 149.39 147.80 148.82 148.79 149.08 149.75 C 149.34 150.72 150.33 151.28 151.29 151.02 L 152.31 150.75 C 153.28 150.49 153.85 149.50 153.59 148.53 C 153.33 147.57 152.33 147.00 151.37 147.26 Z M 150.67 147.48 L 149.67 147.56 C 148.68 147.64 147.94 148.51 148.02 149.51 C 148.10 150.50 148.97 151.24 149.96 151.16 L 150.97 151.08 C 151.96 151.00 152.70 150.13 152.62 149.14 C 152.54 148.14 151.67 147.40 150.67 147.48 Z M 150.01 147.57 L 149.02 147.46 C 148.02 147.35 147.13 148.07 147.02 149.06 C 146.92 150.06 147.64 150.95 148.63 151.05 L 149.62 151.16 C 150.62 151.27 151.51 150.55 151.62 149.56 C 151.72 148.56 151.00 147.67 150.01 147.57 Z M 149.40 147.54 L 148.46 147.22 C 147.52 146.90 146.49 147.41 146.17 148.36 C 145.85 149.30 146.35 150.33 147.30 150.65 L 148.24 150.97 C 149.19 151.29 150.22 150.79 150.54 149.84 C 150.86 148.89 150.35 147.86 149.40 147.54 Z M 148.88 147.42 L 148.07 146.89 C 147.23 146.34 146.11 146.58 145.56 147.42 C 145.01 148.25 145.24 149.38 146.08 149.93 L 146.89 150.46 C 147.73 151.00 148.85 150.77 149.40 149.93 C 149.95 149.09 149.72 147.97 148.88 147.42 Z M 148.40 147.16 L 147.73 146.45 C 147.04 145.73 145.89 145.69 145.16 146.38 C 144.43 147.07 144.40 148.22 145.09 148.95 L 145.76 149.66 C 146.44 150.38 147.59 150.42 148.32 149.73 C 149.05 149.04 149.08 147.89 148.40 147.16 Z M 147.94 146.72 L 147.39 145.87 C 146.85 145.03 145.73 144.78 144.88 145.32 C 144.04 145.86 143.79 146.98 144.33 147.83 L 144.88 148.68 C 145.42 149.52 146.54 149.77 147.38 149.23 C 148.23 148.69 148.48 147.57 147.94 146.72 Z M 147.52 146.12 L 147.11 145.17 C 146.71 144.25 145.64 143.83 144.72 144.24 C 143.80 144.64 143.38 145.71 143.78 146.63 L 144.20 147.58 C 144.60 148.49 145.67 148.91 146.59 148.51 C 147.51 148.11 147.93 147.04 147.52 146.12 Z M 147.19 145.40 L 146.91 144.42 C 146.63 143.45 145.63 142.90 144.66 143.17 C 143.70 143.45 143.14 144.46 143.42 145.42 L 143.70 146.40 C 143.98 147.36 144.98 147.92 145.95 147.64 C 146.91 147.37 147.47 146.36 147.19 145.40 Z M 146.95 144.60 L 146.77 143.60 C 146.60 142.62 145.66 141.96 144.67 142.13 C 143.68 142.31 143.02 143.25 143.20 144.24 L 143.38 145.24 C 143.55 146.22 144.49 146.88 145.48 146.71 C 146.47 146.53 147.13 145.59 146.95 144.60 Z M 146.79 143.74 L 146.69 142.75 C 146.60 141.76 145.71 141.03 144.71 141.13 C 143.71 141.23 142.98 142.12 143.08 143.11 L 143.18 144.10 C 143.28 145.10 144.17 145.83 145.17 145.73 C 146.16 145.63 146.89 144.74 146.79 143.74 Z M 146.70 142.86 L 146.66 141.85 C 146.61 140.85 145.77 140.07 144.77 140.12 C 143.77 140.16 142.99 141.01 143.03 142.01 L 143.08 143.01 C 143.12 144.01 143.97 144.79 144.97 144.75 C 145.97 144.70 146.75 143.86 146.70 142.86 Z M 146.66 141.96 L 146.68 140.93 C 146.70 139.92 145.90 139.10 144.90 139.08 C 143.90 139.06 143.07 139.86 143.05 140.86 L 143.03 141.90 C 143.01 142.90 143.81 143.73 144.81 143.74 C 145.81 143.76 146.64 142.96 146.66 141.96 Z M 146.66 141.12 L 146.79 140.15 C 146.91 139.16 146.20 138.25 145.21 138.13 C 144.22 138.00 143.31 138.71 143.18 139.70 L 143.06 140.67 C 142.94 141.66 143.64 142.57 144.64 142.69 C 145.63 142.82 146.54 142.11 146.66 141.12 Z M 146.73 140.43 L 146.99 139.51 C 147.26 138.55 146.71 137.55 145.74 137.27 C 144.78 137.00 143.77 137.56 143.50 138.52 L 143.24 139.43 C 142.97 140.39 143.52 141.40 144.49 141.67 C 145.45 141.95 146.46 141.39 146.73 140.43 Z M 146.87 139.82 L 147.30 138.95 C 147.75 138.05 147.38 136.96 146.48 136.52 C 145.58 136.08 144.49 136.44 144.05 137.34 L 143.62 138.21 C 143.17 139.11 143.54 140.20 144.44 140.64 C 145.34 141.09 146.43 140.72 146.87 139.82 Z M 147.14 139.22 L 147.73 138.41 C 148.32 137.60 148.15 136.46 147.34 135.87 C 146.53 135.28 145.39 135.46 144.80 136.27 L 144.21 137.08 C 143.62 137.88 143.79 139.02 144.60 139.61 C 145.41 140.20 146.55 140.03 147.14 139.22 Z M 147.55 138.62 L 148.28 137.89 C 148.98 137.18 148.98 136.04 148.28 135.33 C 147.57 134.62 146.42 134.62 145.71 135.33 L 144.98 136.05 C 144.27 136.76 144.27 137.91 144.98 138.62 C 145.69 139.33 146.84 139.33 147.55 138.62 Z M 148.10 138.05 L 148.89 137.44 C 149.69 136.83 149.84 135.69 149.23 134.90 C 148.62 134.10 147.48 133.95 146.68 134.56 L 145.89 135.17 C 145.09 135.78 144.94 136.92 145.55 137.71 C 146.16 138.51 147.30 138.66 148.10 138.05 Z M 148.71 137.57 L 149.58 137.05 C 150.45 136.55 150.73 135.43 150.23 134.57 C 149.72 133.70 148.60 133.41 147.74 133.92 L 146.87 134.44 C 146.00 134.94 145.71 136.06 146.22 136.92 C 146.73 137.79 147.84 138.08 148.71 137.57 Z M 149.37 137.16 L 150.28 136.77 C 151.21 136.38 151.64 135.31 151.24 134.39 C 150.85 133.47 149.78 133.04 148.86 133.43 L 147.95 133.82 C 147.02 134.21 146.59 135.28 146.99 136.20 C 147.38 137.12 148.45 137.55 149.37 137.16 Z M 150.00 136.87 L 151.02 136.62 C 152.00 136.38 152.60 135.40 152.36 134.42 C 152.12 133.45 151.14 132.85 150.16 133.09 L 149.14 133.33 C 148.17 133.57 147.57 134.55 147.80 135.53 C 148.04 136.51 149.03 137.11 150.00 136.87 Z M 150.60 136.67 L 151.59 136.67 C 152.60 136.66 153.41 135.84 153.40 134.84 C 153.40 133.83 152.58 133.02 151.57 133.03 L 150.58 133.03 C 149.58 133.04 148.77 133.86 148.77 134.86 C 148.78 135.87 149.60 136.68 150.60 136.67 Z M 151.01 136.58 L 151.91 136.87 C 152.87 137.19 153.90 136.67 154.21 135.71 C 154.53 134.75 154.00 133.73 153.05 133.41 L 152.15 133.12 C 151.19 132.80 150.16 133.32 149.85 134.28 C 149.54 135.24 150.06 136.27 151.01 136.58 Z M 151.35 136.57 L 152.06 137.14 C 152.85 137.76 153.99 137.63 154.62 136.84 C 155.25 136.05 155.11 134.91 154.33 134.28 L 153.61 133.72 C 152.83 133.09 151.68 133.22 151.05 134.01 C 150.43 134.80 150.56 135.94 151.35 136.57 Z M 151.72 136.78 L 152.30 137.58 C 152.89 138.39 154.03 138.57 154.85 137.98 C 155.66 137.39 155.84 136.25 155.25 135.44 L 154.67 134.64 C 154.08 133.82 152.94 133.64 152.12 134.23 C 151.31 134.83 151.13 135.97 151.72 136.78 Z M 152.12 137.26 L 152.56 138.23 C 152.97 139.15 154.05 139.55 154.97 139.14 C 155.88 138.72 156.29 137.64 155.87 136.73 L 155.43 135.76 C 155.02 134.84 153.94 134.43 153.02 134.85 C 152.11 135.27 151.70 136.35 152.12 137.26 Z M 152.46 137.97 L 152.72 138.89 C 152.99 139.86 154.00 140.42 154.96 140.15 C 155.93 139.88 156.50 138.87 156.23 137.90 L 155.97 136.99 C 155.70 136.02 154.69 135.46 153.72 135.73 C 152.75 136.00 152.19 137.00 152.46 137.97 Z M 152.68 138.69 L 152.83 139.63 C 153.00 140.62 153.93 141.29 154.92 141.13 C 155.91 140.96 156.58 140.03 156.42 139.04 L 156.27 138.10 C 156.10 137.11 155.17 136.44 154.18 136.60 C 153.19 136.77 152.52 137.70 152.68 138.69 Z M 152.82 139.49 L 152.91 140.50 C 152.99 141.50 153.87 142.24 154.87 142.15 C 155.87 142.06 156.61 141.18 156.52 140.18 L 156.44 139.18 C 156.35 138.18 155.47 137.44 154.47 137.52 C 153.47 137.61 152.73 138.49 152.82 139.49 Z M 152.90 140.41 L 152.94 141.49 C 152.98 142.49 153.82 143.27 154.82 143.24 C 155.82 143.20 156.60 142.36 156.56 141.36 L 156.53 140.28 C 156.49 139.27 155.65 138.49 154.65 138.53 C 153.65 138.57 152.87 139.41 152.90 140.41 Z M 152.94 141.44 L 152.95 142.42 C 152.96 143.42 153.77 144.23 154.77 144.22 C 155.77 144.21 156.58 143.40 156.57 142.40 L 156.56 141.41 C 156.56 140.41 155.74 139.61 154.74 139.62 C 153.74 139.62 152.94 140.44 152.94 141.44 Z M 152.95 142.37 L 152.93 143.36 C 152.91 144.36 153.70 145.18 154.70 145.21 C 155.69 145.23 156.52 144.44 156.54 143.44 L 156.57 142.45 C 156.59 141.46 155.80 140.63 154.80 140.60 C 153.81 140.58 152.98 141.37 152.95 142.37 Z M 152.94 143.28 L 152.87 144.29 C 152.80 145.28 153.55 146.14 154.55 146.21 C 155.54 146.28 156.40 145.53 156.47 144.53 L 156.54 143.52 C 156.61 142.53 155.85 141.67 154.86 141.60 C 153.87 141.53 153.00 142.28 152.94 143.28 Z M 152.88 144.18 L 152.75 145.19 C 152.63 146.18 153.32 147.08 154.31 147.21 C 155.30 147.34 156.20 146.64 156.33 145.65 L 156.46 144.64 C 156.58 143.65 155.88 142.75 154.90 142.62 C 153.91 142.50 153.01 143.20 152.88 144.18 Z M 152.78 145.06 L 152.57 146.05 C 152.37 147.02 153.00 147.97 153.97 148.18 C 154.94 148.38 155.90 147.75 156.10 146.78 L 156.30 145.79 C 156.50 144.81 155.88 143.86 154.90 143.66 C 153.93 143.46 152.98 144.09 152.78 145.06 Z M 152.62 145.89 L 152.31 146.88 C 152.02 147.82 152.55 148.83 153.50 149.12 C 154.45 149.41 155.46 148.88 155.75 147.93 L 156.05 146.94 C 156.35 145.99 155.81 144.99 154.86 144.70 C 153.91 144.40 152.91 144.94 152.62 145.89 Z M 152.37 146.72 L 151.98 147.66 C 151.60 148.58 152.04 149.63 152.96 150.01 C 153.87 150.39 154.92 149.95 155.30 149.03 L 155.69 148.09 C 156.07 147.17 155.63 146.12 154.72 145.74 C 153.80 145.36 152.75 145.80 152.37 146.72 Z M 152.04 147.52 L 151.59 148.41 C 151.13 149.29 151.48 150.38 152.36 150.83 C 153.24 151.29 154.33 150.94 154.78 150.06 L 155.24 149.17 C 155.69 148.29 155.35 147.20 154.46 146.75 C 153.58 146.29 152.50 146.64 152.04 147.52 Z M 151.66 148.29 L 151.14 149.12 C 150.62 149.96 150.88 151.07 151.73 151.59 C 152.57 152.11 153.68 151.85 154.20 151.01 L 154.71 150.18 C 155.23 149.33 154.97 148.23 154.13 147.71 C 153.28 147.18 152.18 147.45 151.66 148.29 Z M 151.22 149.01 L 150.63 149.81 C 150.05 150.62 150.23 151.74 151.03 152.32 C 151.84 152.90 152.96 152.73 153.54 151.92 L 154.13 151.12 C 154.71 150.31 154.53 149.19 153.73 148.61 C 152.92 148.03 151.80 148.21 151.22 149.01 Z M 150.73 149.70 L 150.05 150.48 C 149.40 151.23 149.49 152.37 150.24 153.02 C 150.99 153.66 152.12 153.58 152.77 152.83 L 153.45 152.04 C 154.10 151.29 154.01 150.16 153.26 149.51 C 152.51 148.86 151.37 148.94 150.73 149.70 Z M 150.18 150.35 L 149.45 151.03 C 148.73 151.71 148.70 152.85 149.38 153.57 C 150.06 154.29 151.19 154.33 151.91 153.65 L 152.64 152.96 C 153.36 152.28 153.40 151.15 152.72 150.42 C 152.04 149.70 150.90 149.67 150.18 150.35 Z M 149.63 150.89 L 148.84 151.46 C 148.04 152.04 147.87 153.16 148.45 153.97 C 149.04 154.77 150.16 154.94 150.96 154.36 L 151.74 153.79 C 152.54 153.20 152.72 152.08 152.14 151.28 C 151.55 150.48 150.43 150.30 149.63 150.89 Z M 149.07 151.32 L 148.17 151.79 C 147.29 152.25 146.95 153.33 147.41 154.21 C 147.87 155.09 148.96 155.43 149.84 154.97 L 150.74 154.50 C 151.62 154.04 151.96 152.95 151.49 152.07 C 151.03 151.19 149.95 150.86 149.07 151.32 Z M 148.45 151.67 L 147.41 152.00 C 146.46 152.31 145.94 153.32 146.25 154.27 C 146.55 155.21 147.56 155.73 148.51 155.43 L 149.56 155.09 C 150.50 154.78 151.02 153.77 150.72 152.83 C 150.41 151.88 149.40 151.36 148.45 151.67 Z M 147.77 151.93 L 146.78 152.03 C 145.79 152.13 145.07 153.02 145.17 154.01 C 145.28 154.99 146.16 155.71 147.15 155.61 L 148.14 155.50 C 149.13 155.40 149.85 154.52 149.75 153.53 C 149.64 152.54 148.76 151.82 147.77 151.93 Z M 147.32 152.05 L 146.48 151.89 C 145.51 151.69 144.56 152.33 144.37 153.30 C 144.17 154.27 144.80 155.22 145.78 155.42 L 146.61 155.58 C 147.58 155.78 148.53 155.15 148.73 154.17 C 148.92 153.20 148.29 152.25 147.32 152.05 Z M 147.30 152.29 L 146.62 151.70 C 145.87 151.05 144.73 151.14 144.08 151.89 C 143.44 152.65 143.52 153.78 144.28 154.43 L 144.96 155.02 C 145.71 155.67 146.85 155.58 147.49 154.83 C 148.14 154.07 148.06 152.94 147.30 152.29 Z M 147.11 152.37 L 146.72 151.46 C 146.34 150.54 145.28 150.11 144.37 150.50 C 143.45 150.89 143.02 151.94 143.41 152.86 L 143.79 153.77 C 144.18 154.68 145.23 155.11 146.15 154.72 C 147.06 154.34 147.49 153.28 147.11 152.37 Z M 146.84 151.85 L 146.65 150.80 C 146.48 149.82 145.55 149.17 144.57 149.34 C 143.59 149.51 142.94 150.45 143.11 151.43 L 143.29 152.47 C 143.47 153.45 144.40 154.10 145.38 153.93 C 146.36 153.76 147.01 152.82 146.84 151.85 Z M 146.68 150.98 L 146.60 150.01 C 146.53 149.02 145.66 148.28 144.67 148.35 C 143.68 148.43 142.94 149.29 143.01 150.28 L 143.09 151.25 C 143.16 152.24 144.03 152.98 145.02 152.91 C 146.01 152.83 146.75 151.97 146.68 150.98 Z M 146.61 150.14 L 146.61 149.15 C 146.61 148.15 145.80 147.35 144.81 147.35 C 143.81 147.35 143.01 148.15 143.01 149.15 L 143.01 150.15 C 143.01 151.14 143.81 151.95 144.81 151.95 C 145.80 151.94 146.61 151.14 146.61 150.14 Z M 146.60 149.26 L 146.67 148.23 C 146.74 147.24 145.99 146.38 144.99 146.32 C 144.00 146.25 143.14 147.00 143.08 148.00 L 143.01 149.03 C 142.95 150.02 143.70 150.88 144.69 150.94 C 145.68 151.01 146.54 150.26 146.60 149.26 Z M 146.66 148.34 L 146.78 147.36 C 146.91 146.38 146.21 145.48 145.22 145.35 C 144.23 145.23 143.33 145.93 143.21 146.92 L 143.09 147.89 C 142.96 148.88 143.67 149.78 144.65 149.90 C 145.64 150.02 146.54 149.32 146.66 148.34 Z M 146.77 147.48 L 146.96 146.49 C 147.14 145.51 146.50 144.57 145.52 144.39 C 144.54 144.20 143.59 144.85 143.41 145.83 L 143.22 146.81 C 143.04 147.79 143.68 148.73 144.66 148.92 C 145.64 149.10 146.59 148.46 146.77 147.48 Z M 146.93 146.63 L 147.19 145.65 C 147.45 144.68 146.88 143.69 145.91 143.43 C 144.95 143.18 143.95 143.75 143.70 144.71 L 143.43 145.69 C 143.18 146.66 143.75 147.65 144.71 147.91 C 145.68 148.17 146.67 147.59 146.93 146.63 Z M 147.14 145.81 L 147.49 144.85 C 147.84 143.91 147.36 142.87 146.42 142.52 C 145.48 142.18 144.44 142.66 144.09 143.60 L 143.74 144.56 C 143.40 145.50 143.88 146.54 144.82 146.88 C 145.76 147.23 146.80 146.74 147.14 145.81 Z M 147.42 145.02 L 147.87 144.11 C 148.31 143.21 147.94 142.13 147.04 141.68 C 146.14 141.24 145.06 141.61 144.62 142.51 L 144.17 143.42 C 143.73 144.32 144.10 145.41 144.99 145.85 C 145.89 146.29 146.98 145.92 147.42 145.02 Z M 147.76 144.31 L 148.31 143.48 C 148.86 142.64 148.63 141.52 147.79 140.96 C 146.96 140.41 145.83 140.64 145.28 141.48 L 144.73 142.31 C 144.18 143.15 144.41 144.27 145.24 144.82 C 146.08 145.38 147.20 145.14 147.76 144.31 Z M 148.14 143.70 L 148.79 142.98 C 149.46 142.24 149.41 141.09 148.67 140.42 C 147.93 139.74 146.78 139.80 146.10 140.54 L 145.45 141.26 C 144.78 142.00 144.83 143.15 145.57 143.82 C 146.31 144.49 147.46 144.44 148.14 143.70 Z M 148.52 143.22 L 149.37 142.59 C 150.18 142.00 150.35 140.86 149.76 140.05 C 149.16 139.25 148.03 139.08 147.22 139.67 L 146.37 140.30 C 145.56 140.89 145.39 142.03 145.99 142.83 C 146.58 143.64 147.72 143.81 148.52 143.22 Z M 148.97 142.81 L 149.90 142.44 C 150.83 142.07 151.29 141.01 150.91 140.08 C 150.54 139.15 149.49 138.70 148.56 139.07 L 147.63 139.45 C 146.69 139.82 146.24 140.87 146.61 141.80 C 146.99 142.73 148.04 143.19 148.97 142.81 Z M 149.30 142.57 L 150.23 142.54 C 151.23 142.50 152.01 141.66 151.97 140.65 C 151.94 139.65 151.09 138.87 150.09 138.91 L 149.16 138.95 C 148.16 138.98 147.38 139.83 147.42 140.83 C 147.45 141.83 148.30 142.61 149.30 142.57 Z M 149.49 142.41 L 150.29 142.73 C 151.22 143.10 152.27 142.65 152.64 141.72 C 153.02 140.79 152.57 139.73 151.64 139.36 L 150.84 139.04 C 149.91 138.67 148.85 139.12 148.48 140.05 C 148.11 140.98 148.56 142.03 149.49 142.41 Z M 149.75 142.39 L 150.44 143.02 C 151.19 143.69 152.33 143.63 153.00 142.88 C 153.67 142.14 153.61 141.00 152.87 140.33 L 152.17 139.70 C 151.43 139.03 150.29 139.09 149.62 139.83 C 148.95 140.57 149.01 141.72 149.75 142.39 Z M 150.14 142.66 L 150.72 143.55 C 151.27 144.39 152.39 144.62 153.23 144.08 C 154.06 143.53 154.30 142.41 153.75 141.58 L 153.17 140.68 C 152.63 139.85 151.51 139.61 150.67 140.16 C 149.83 140.70 149.60 141.82 150.14 142.66 Z M 150.56 143.24 L 150.99 144.29 C 151.36 145.22 152.41 145.67 153.34 145.29 C 154.26 144.92 154.71 143.87 154.34 142.95 L 153.91 141.89 C 153.54 140.97 152.49 140.52 151.57 140.89 C 150.64 141.26 150.19 142.31 150.56 143.24 Z M 150.91 144.03 L 151.16 145.11 C 151.39 146.08 152.36 146.68 153.33 146.45 C 154.30 146.23 154.90 145.25 154.67 144.29 L 154.42 143.21 C 154.19 142.24 153.22 141.64 152.25 141.86 C 151.28 142.09 150.68 143.06 150.91 144.03 Z M 151.12 144.85 L 151.21 145.91 C 151.30 146.90 152.17 147.63 153.16 147.55 C 154.15 147.46 154.89 146.59 154.80 145.60 L 154.71 144.54 C 154.63 143.55 153.75 142.82 152.76 142.90 C 151.77 142.99 151.04 143.86 151.12 144.85 Z M 151.22 145.55 L 151.12 146.46 C 151.01 147.44 151.72 148.33 152.71 148.44 C 153.70 148.55 154.59 147.84 154.70 146.85 L 154.80 145.95 C 154.91 144.96 154.19 144.07 153.21 143.96 C 152.22 143.85 151.33 144.57 151.22 145.55 Z M 151.39 145.69 L 150.88 146.49 C 150.35 147.33 150.60 148.44 151.43 148.98 C 152.27 149.51 153.39 149.26 153.92 148.42 L 154.43 147.62 C 154.96 146.78 154.71 145.67 153.87 145.14 C 153.03 144.60 151.92 144.85 151.39 145.69 Z M 152.10 145.68 L 151.17 145.84 C 150.19 146.00 149.52 146.93 149.69 147.91 C 149.85 148.89 150.78 149.55 151.76 149.39 L 152.69 149.23 C 153.68 149.07 154.34 148.14 154.17 147.16 C 154.01 146.18 153.08 145.52 152.10 145.68 Z M 152.93 146.56 L 152.50 145.97 C 151.92 145.16 150.80 144.98 149.99 145.56 C 149.18 146.14 148.99 147.26 149.57 148.07 L 150.00 148.66 C 150.58 149.47 151.70 149.66 152.51 149.08 C 153.32 148.50 153.51 147.37 152.93 146.56 Z M 152.64 147.84 L 153.08 146.98 C 153.53 146.10 153.19 145.01 152.30 144.56 C 151.42 144.11 150.33 144.46 149.88 145.34 L 149.44 146.20 C 148.98 147.08 149.33 148.17 150.22 148.62 C 151.10 149.08 152.19 148.73 152.64 147.84 Z M 152.28 147.77 L 153.18 147.33 C 154.07 146.88 154.43 145.80 153.99 144.91 C 153.54 144.03 152.46 143.66 151.57 144.11 L 150.68 144.55 C 149.79 145.00 149.43 146.07 149.87 146.96 C 150.31 147.85 151.39 148.21 152.28 147.77 Z M 152.11 147.50 L 152.99 147.63 C 153.97 147.78 154.89 147.10 155.04 146.12 C 155.19 145.13 154.51 144.21 153.52 144.06 L 152.65 143.93 C 151.66 143.78 150.74 144.46 150.59 145.45 C 150.44 146.43 151.12 147.35 152.11 147.50 Z M 152.34 147.42 L 153.25 147.95 C 154.11 148.45 155.23 148.16 155.73 147.29 C 156.24 146.42 155.94 145.31 155.08 144.81 L 154.17 144.28 C 153.30 143.77 152.19 144.07 151.68 144.93 C 151.18 145.80 151.47 146.91 152.34 147.42 Z M 152.87 147.67 L 153.62 148.42 C 154.34 149.13 155.49 149.13 156.21 148.42 C 156.92 147.70 156.92 146.54 156.20 145.83 L 155.45 145.08 C 154.74 144.37 153.58 144.37 152.87 145.09 C 152.15 145.80 152.16 146.96 152.87 147.67 Z M 153.41 148.18 L 153.97 148.97 C 154.55 149.80 155.69 150.00 156.52 149.42 C 157.35 148.84 157.55 147.70 156.97 146.87 L 156.42 146.07 C 155.83 145.24 154.69 145.04 153.86 145.62 C 153.03 146.20 152.83 147.35 153.41 148.18 Z M 153.85 148.79 L 154.33 149.68 C 154.81 150.58 155.92 150.91 156.82 150.44 C 157.71 149.96 158.05 148.84 157.57 147.95 L 157.09 147.05 C 156.61 146.15 155.50 145.82 154.60 146.30 C 153.70 146.78 153.37 147.89 153.85 148.79 Z M 154.25 149.53 L 154.65 150.48 C 155.04 151.42 156.12 151.86 157.06 151.47 C 158.00 151.07 158.44 149.99 158.05 149.05 L 157.65 148.10 C 157.25 147.16 156.17 146.72 155.23 147.11 C 154.29 147.51 153.85 148.59 154.25 149.53 Z M 154.59 150.35 L 154.90 151.28 C 155.22 152.25 156.27 152.78 157.24 152.46 C 158.21 152.14 158.73 151.09 158.41 150.12 L 158.10 149.19 C 157.78 148.22 156.74 147.69 155.77 148.01 C 154.80 148.33 154.27 149.38 154.59 150.35 Z M 154.86 151.16 L 155.10 152.09 C 155.35 153.08 156.35 153.68 157.34 153.43 C 158.33 153.18 158.93 152.18 158.69 151.18 L 158.45 150.25 C 158.20 149.26 157.20 148.66 156.21 148.91 C 155.22 149.16 154.61 150.16 154.86 151.16 Z M 155.07 151.96 L 155.24 152.93 C 155.42 153.94 156.39 154.61 157.39 154.43 C 158.40 154.25 159.07 153.28 158.89 152.28 L 158.71 151.31 C 158.53 150.30 157.57 149.63 156.56 149.81 C 155.56 149.99 154.89 150.96 155.07 151.96 Z M 155.23 152.82 L 155.35 153.86 C 155.47 154.87 156.39 155.60 157.41 155.48 C 158.42 155.36 159.15 154.43 159.03 153.42 L 158.90 152.39 C 158.78 151.37 157.86 150.65 156.85 150.77 C 155.83 150.89 155.11 151.81 155.23 152.82 Z M 155.34 153.77 L 155.42 154.80 C 155.49 155.82 156.38 156.58 157.40 156.51 C 158.42 156.44 159.18 155.55 159.11 154.53 L 159.04 153.50 C 158.96 152.48 158.07 151.72 157.05 151.79 C 156.03 151.86 155.27 152.75 155.34 153.77 Z M 155.41 154.74 L 155.45 155.75 C 155.49 156.77 156.35 157.57 157.38 157.53 C 158.40 157.48 159.19 156.62 159.15 155.60 L 159.11 154.59 C 159.07 153.57 158.21 152.77 157.19 152.81 C 156.17 152.85 155.37 153.71 155.41 154.74 Z M 155.45 155.70 L 155.47 156.74 C 155.48 157.76 156.33 158.57 157.35 158.56 C 158.37 158.54 159.19 157.70 159.17 156.68 L 159.15 155.65 C 159.14 154.62 158.30 153.81 157.27 153.82 C 156.25 153.84 155.43 154.68 155.45 155.70 Z M 155.47 156.70 L 155.46 157.71 C 155.46 158.74 156.29 159.57 157.31 159.57 C 158.33 159.58 159.16 158.75 159.17 157.73 L 159.17 156.71 C 159.17 155.69 158.35 154.86 157.33 154.85 C 156.30 154.85 155.47 155.68 155.47 156.70 Z M 155.46 157.68 L 155.44 158.64 C 155.42 159.67 156.24 160.51 157.26 160.53 C 158.28 160.56 159.13 159.74 159.15 158.72 L 159.17 157.76 C 159.19 156.74 158.38 155.89 157.35 155.87 C 156.33 155.85 155.49 156.66 155.46 157.68 Z M 155.45 158.61 L 155.40 159.70 C 155.36 160.72 156.16 161.58 157.18 161.62 C 158.20 161.66 159.06 160.87 159.10 159.84 L 159.15 158.76 C 159.19 157.73 158.39 156.87 157.37 156.83 C 156.35 156.79 155.49 157.59 155.45 158.61 Z M 155.41 159.64 L 155.33 160.65 C 155.26 161.67 156.03 162.55 157.05 162.63 C 158.07 162.70 158.96 161.93 159.03 160.91 L 159.10 159.90 C 159.17 158.88 158.40 157.99 157.38 157.92 C 156.36 157.85 155.48 158.62 155.41 159.64 Z M 155.34 160.57 L 155.24 161.51 C 155.12 162.53 155.85 163.45 156.87 163.56 C 157.89 163.67 158.80 162.94 158.92 161.93 L 159.02 160.98 C 159.14 159.97 158.40 159.05 157.39 158.94 C 156.37 158.82 155.46 159.56 155.34 160.57 Z M 155.25 161.43 L 155.10 162.35 C 154.94 163.36 155.62 164.31 156.63 164.47 C 157.64 164.63 158.59 163.95 158.76 162.94 L 158.90 162.02 C 159.07 161.01 158.38 160.06 157.37 159.89 C 156.36 159.73 155.41 160.42 155.25 161.43 Z M 155.12 162.26 L 154.92 163.20 C 154.71 164.20 155.35 165.18 156.35 165.39 C 157.35 165.61 158.33 164.97 158.54 163.97 L 158.74 163.02 C 158.95 162.02 158.31 161.04 157.31 160.83 C 156.31 160.62 155.33 161.26 155.12 162.26 Z M 154.94 163.13 L 154.69 164.09 C 154.44 165.09 155.04 166.09 156.04 166.34 C 157.03 166.59 158.03 165.99 158.28 165.00 L 158.52 164.04 C 158.77 163.04 158.17 162.04 157.18 161.79 C 156.19 161.54 155.18 162.14 154.94 163.13 Z M 154.71 164.04 L 154.43 165.03 C 154.15 166.02 154.72 167.04 155.70 167.32 C 156.69 167.59 157.71 167.02 157.99 166.04 L 158.27 165.05 C 158.54 164.07 157.97 163.04 156.99 162.77 C 156.01 162.49 154.99 163.06 154.71 164.04 Z M 154.44 165.00 L 154.14 165.96 C 153.85 166.94 154.40 167.97 155.37 168.27 C 156.35 168.57 157.38 168.02 157.68 167.04 L 157.97 166.07 C 158.27 165.10 157.72 164.07 156.74 163.77 C 155.77 163.47 154.74 164.02 154.44 165.00 Z M 154.15 165.94 L 153.85 166.89 C 153.54 167.86 154.08 168.90 155.05 169.21 C 156.02 169.52 157.06 168.98 157.37 168.01 L 157.67 167.06 C 157.98 166.09 157.45 165.05 156.47 164.74 C 155.50 164.43 154.46 164.97 154.15 165.94 Z M 153.86 166.87 L 153.54 167.83 C 153.22 168.80 153.75 169.84 154.71 170.16 C 155.68 170.48 156.72 169.96 157.04 168.99 L 157.36 168.03 C 157.68 167.07 157.16 166.02 156.19 165.70 C 155.22 165.38 154.18 165.91 153.86 166.87 Z M 153.55 167.82 L 153.22 168.77 C 152.89 169.73 153.41 170.78 154.37 171.11 C 155.33 171.44 156.38 170.92 156.71 169.96 L 157.03 169.01 C 157.36 168.04 156.85 167.00 155.89 166.67 C 154.93 166.34 153.88 166.85 153.55 167.82 Z M 153.23 168.76 L 152.89 169.72 C 152.56 170.68 153.06 171.73 154.02 172.06 C 154.98 172.40 156.03 171.90 156.36 170.94 L 156.70 169.98 C 157.04 169.02 156.53 167.97 155.58 167.63 C 154.62 167.29 153.57 167.80 153.23 168.76 Z M 152.90 169.70 L 152.55 170.66 C 152.21 171.61 152.70 172.66 153.66 173.01 C 154.61 173.35 155.66 172.86 156.01 171.91 L 156.35 170.95 C 156.70 170.00 156.21 168.95 155.25 168.60 C 154.30 168.26 153.25 168.75 152.90 169.70 Z M 152.56 170.64 L 152.22 171.57 C 151.86 172.52 152.34 173.57 153.29 173.93 C 154.24 174.29 155.29 173.81 155.65 172.86 L 156.00 171.93 C 156.35 170.98 155.87 169.92 154.93 169.57 C 153.98 169.21 152.92 169.69 152.56 170.64 Z M 152.23 171.55 L 151.87 172.46 C 151.50 173.40 151.97 174.46 152.91 174.83 C 153.85 175.20 154.91 174.73 155.28 173.79 L 155.64 172.88 C 156.00 171.94 155.54 170.88 154.60 170.51 C 153.66 170.14 152.59 170.61 152.23 171.55 Z M 151.88 172.43 L 151.51 173.36 C 151.12 174.29 151.57 175.36 152.51 175.74 C 153.44 176.12 154.51 175.68 154.89 174.74 L 155.27 173.82 C 155.65 172.88 155.20 171.82 154.27 171.43 C 153.33 171.05 152.27 171.50 151.88 172.43 Z M 151.52 173.33 L 151.13 174.25 C 150.73 175.18 151.16 176.25 152.08 176.65 C 153.01 177.05 154.08 176.62 154.48 175.69 L 154.87 174.77 C 155.27 173.85 154.84 172.77 153.92 172.38 C 152.99 171.98 151.92 172.41 151.52 173.33 Z M 151.14 174.22 L 150.73 175.13 C 150.32 176.05 150.73 177.12 151.64 177.54 C 152.56 177.95 153.63 177.55 154.05 176.63 L 154.46 175.72 C 154.87 174.81 154.47 173.73 153.55 173.32 C 152.64 172.90 151.56 173.31 151.14 174.22 Z M 150.75 175.10 L 150.32 175.99 C 149.89 176.90 150.27 177.98 151.18 178.41 C 152.08 178.85 153.17 178.46 153.60 177.56 L 154.03 176.66 C 154.46 175.76 154.08 174.68 153.17 174.24 C 152.27 173.81 151.19 174.19 150.75 175.10 Z M 150.35 175.96 L 149.89 176.86 C 149.44 177.75 149.80 178.84 150.69 179.29 C 151.58 179.74 152.67 179.39 153.12 178.49 L 153.58 177.59 C 154.03 176.70 153.67 175.61 152.78 175.16 C 151.89 174.71 150.80 175.07 150.35 175.96 Z M 149.91 176.83 L 149.44 177.72 C 148.97 178.60 149.31 179.69 150.19 180.16 C 151.07 180.63 152.17 180.29 152.63 179.41 L 153.10 178.52 C 153.57 177.64 153.23 176.55 152.35 176.08 C 151.47 175.61 150.38 175.95 149.91 176.83 Z M 149.46 177.70 L 148.98 178.57 C 148.50 179.44 148.82 180.53 149.69 181.01 C 150.56 181.49 151.66 181.17 152.14 180.30 L 152.62 179.43 C 153.09 178.56 152.78 177.46 151.90 176.99 C 151.03 176.51 149.94 176.83 149.46 177.70 Z M 149.00 178.55 L 148.50 179.43 C 148.01 180.29 148.32 181.39 149.18 181.87 C 150.04 182.36 151.14 182.06 151.62 181.20 L 152.12 180.32 C 152.61 179.46 152.30 178.36 151.44 177.87 C 150.58 177.39 149.48 177.69 149.00 178.55 Z M 148.52 179.41 L 148.01 180.29 C 147.51 181.14 147.80 182.23 148.65 182.73 C 149.50 183.23 150.60 182.94 151.09 182.09 L 151.61 181.21 C 152.10 180.36 151.82 179.27 150.96 178.77 C 150.11 178.27 149.02 178.56 148.52 179.41 Z M 148.03 180.26 L 147.52 181.11 C 147.00 181.95 147.27 183.04 148.11 183.56 C 148.95 184.07 150.04 183.80 150.55 182.96 L 151.07 182.11 C 151.58 181.28 151.32 180.18 150.48 179.67 C 149.64 179.16 148.54 179.42 148.03 180.26 Z M 147.55 181.08 L 147.02 181.90 C 146.49 182.72 146.72 183.82 147.55 184.35 C 148.37 184.88 149.46 184.64 149.99 183.82 L 150.52 183.00 C 151.05 182.17 150.81 181.08 149.99 180.55 C 149.17 180.02 148.08 180.26 147.55 181.08 Z M 147.05 181.86 L 146.49 182.69 C 145.94 183.49 146.14 184.58 146.94 185.13 C 147.74 185.69 148.84 185.48 149.39 184.68 L 149.96 183.85 C 150.51 183.05 150.30 181.96 149.50 181.41 C 148.70 180.86 147.60 181.06 147.05 181.86 Z M 146.52 182.66 L 145.94 183.46 C 145.37 184.24 145.54 185.34 146.33 185.90 C 147.11 186.47 148.20 186.30 148.77 185.52 L 149.36 184.71 C 149.92 183.93 149.75 182.83 148.97 182.27 C 148.18 181.70 147.09 181.87 146.52 182.66 Z M 145.97 183.44 L 145.36 184.24 C 144.78 185.01 144.93 186.10 145.70 186.68 C 146.47 187.25 147.56 187.10 148.14 186.34 L 148.74 185.54 C 149.32 184.77 149.17 183.68 148.40 183.10 C 147.64 182.52 146.55 182.67 145.97 183.44 Z M 145.39 184.22 L 144.81 184.97 C 144.22 185.72 144.35 186.80 145.11 187.39 C 145.86 187.98 146.94 187.85 147.53 187.09 L 148.11 186.35 C 148.70 185.60 148.57 184.51 147.81 183.93 C 147.06 183.34 145.98 183.47 145.39 184.22 Z M 144.85 184.93 L 144.23 185.68 C 143.62 186.41 143.72 187.49 144.45 188.10 C 145.18 188.70 146.26 188.60 146.86 187.88 L 147.49 187.13 C 148.09 186.40 148.00 185.32 147.27 184.71 C 146.54 184.11 145.46 184.20 144.85 184.93 Z M 144.29 185.63 L 143.60 186.38 C 142.96 187.08 143.00 188.15 143.70 188.79 C 144.39 189.43 145.47 189.38 146.10 188.69 L 146.80 187.93 C 147.44 187.24 147.39 186.16 146.70 185.52 C 146.01 184.89 144.93 184.93 144.29 185.63 Z M 143.67 186.32 L 142.94 187.03 C 142.27 187.68 142.25 188.75 142.90 189.42 C 143.55 190.09 144.62 190.11 145.29 189.46 L 146.02 188.75 C 146.69 188.10 146.71 187.03 146.06 186.36 C 145.41 185.69 144.34 185.67 143.67 186.32 Z M 143.01 186.98 L 142.29 187.61 C 141.59 188.22 141.51 189.28 142.12 189.98 C 142.73 190.68 143.79 190.75 144.49 190.14 L 145.22 189.52 C 145.92 188.91 145.99 187.85 145.38 187.15 C 144.77 186.45 143.71 186.37 143.01 186.98 Z M 142.36 187.57 L 141.57 188.19 C 140.85 188.76 140.72 189.81 141.29 190.53 C 141.86 191.25 142.91 191.38 143.64 190.81 L 144.42 190.19 C 145.15 189.62 145.27 188.57 144.70 187.84 C 144.13 187.12 143.08 187.00 142.36 187.57 Z M 141.64 188.15 L 140.80 188.75 C 140.06 189.28 139.88 190.32 140.42 191.06 C 140.95 191.81 141.99 191.98 142.73 191.45 L 143.57 190.85 C 144.31 190.31 144.48 189.28 143.95 188.53 C 143.42 187.79 142.38 187.62 141.64 188.15 Z M 140.87 188.71 L 140.00 189.28 C 139.23 189.77 139.02 190.79 139.51 191.56 C 140.01 192.32 141.03 192.54 141.79 192.04 L 142.66 191.48 C 143.42 190.98 143.64 189.96 143.15 189.20 C 142.65 188.44 141.63 188.22 140.87 188.71 Z M 140.07 189.25 L 139.21 189.75 C 138.43 190.21 138.17 191.21 138.62 191.99 C 139.08 192.77 140.08 193.03 140.86 192.58 L 141.72 192.07 C 142.50 191.62 142.76 190.61 142.30 189.84 C 141.85 189.06 140.85 188.79 140.07 189.25 Z M 139.26 189.74 L 138.39 190.21 C 137.60 190.64 137.30 191.62 137.73 192.41 C 138.15 193.20 139.14 193.49 139.93 193.06 L 140.80 192.59 C 141.59 192.17 141.88 191.18 141.46 190.40 C 141.04 189.61 140.05 189.31 139.26 189.74 Z M 138.43 190.21 L 137.54 190.66 C 136.75 191.06 136.43 192.03 136.83 192.82 C 137.23 193.61 138.20 193.93 138.99 193.52 L 139.88 193.07 C 140.67 192.67 140.99 191.70 140.59 190.91 C 140.19 190.12 139.22 189.81 138.43 190.21 Z M 137.56 190.66 L 136.66 191.11 C 135.87 191.49 135.55 192.44 135.93 193.23 C 136.32 194.02 137.27 194.35 138.06 193.96 L 138.96 193.52 C 139.75 193.13 140.08 192.18 139.69 191.39 C 139.30 190.60 138.35 190.28 137.56 190.66 Z M 136.67 191.11 L 136.28 191.31 C 135.49 191.69 135.16 192.63 135.54 193.42 C 135.92 194.20 136.87 194.53 137.65 194.15 L 138.05 193.96 C 138.84 193.58 139.16 192.63 138.78 191.85 C 138.40 191.06 137.46 190.73 136.67 191.11 Z"
      fill="black"
      fill-rule="nonzero" /></svg>