<svg xmlns="http://www.w3.org/2000/svg" width="300" height="300" viewBox="0 0 300 300">
<path d="M 206.72 72.18 L 205.69 71.94 C 204.66 71.70 203.64 72.33 203.40 73.36 C 203.16 74.38 203.79 75.40 204.82 75.64 L 205.85 75.89 C 206.87 76.13 207.90 75.49 208.14 74.47 C 208.38 73.45 207.74 72.42 206.72 72.18 Z M 205.53 71.84 L 204.53 71.70 C 203.45 71.54 202.45 72.29 202.30 73.37 C 202.14 74.44 202.89 75.44 203.97 75.60 L 204.97 75.74 C 206.05 75.90 207.05 75.15 207.20 74.07 C 207.36 72.99 206.61 72.00 205.53 71.84 Z M 204.13 71.61 L 203.19 71.67 C 202.06 71.73 201.20 72.69 201.27 73.82 C 201.33 74.94 202.29 75.80 203.42 75.74 L 204.36 75.68 C 205.49 75.62 206.35 74.66 206.28 73.53 C 206.22 72.41 205.26 71.55 204.13 71.61 Z M 202.52 71.75 L 201.68 72.09 C 200.61 72.52 200.08 73.74 200.51 74.82 C 200.94 75.89 202.17 76.41 203.24 75.98 L 204.08 75.65 C 205.16 75.22 205.68 74.00 205.25 72.92 C 204.82 71.85 203.60 71.32 202.52 71.75 Z M 201.09 72.40 L 200.37 73.00 C 199.46 73.76 199.34 75.11 200.10 76.02 C 200.86 76.92 202.21 77.04 203.12 76.28 L 203.84 75.68 C 204.74 74.92 204.86 73.57 204.10 72.66 C 203.34 71.76 201.99 71.64 201.09 72.40 Z M 200.03 73.30 L 199.41 74.10 C 198.67 75.05 198.83 76.41 199.78 77.15 C 200.72 77.89 202.09 77.73 202.83 76.78 L 203.45 75.98 C 204.19 75.04 204.03 73.67 203.08 72.93 C 202.14 72.19 200.77 72.36 200.03 73.30 Z M 199.21 74.33 L 198.68 75.24 C 198.06 76.29 198.42 77.64 199.47 78.26 C 200.52 78.87 201.87 78.52 202.49 77.47 L 203.02 76.56 C 203.64 75.50 203.28 74.15 202.23 73.54 C 201.18 72.92 199.83 73.28 199.21 74.33 Z M 198.56 75.41 L 198.14 76.32 C 197.61 77.43 198.09 78.76 199.21 79.29 C 200.32 79.81 201.65 79.33 202.17 78.21 L 202.60 77.30 C 203.12 76.19 202.64 74.86 201.53 74.34 C 200.41 73.81 199.09 74.29 198.56 75.41 Z M 198.06 76.46 L 197.71 77.37 C 197.27 78.52 197.84 79.82 199.00 80.26 C 200.15 80.71 201.45 80.14 201.89 78.98 L 202.24 78.07 C 202.69 76.92 202.12 75.62 200.96 75.18 C 199.81 74.73 198.51 75.30 198.06 76.46 Z M 197.67 77.48 L 197.36 78.42 C 196.98 79.60 197.62 80.86 198.80 81.25 C 199.98 81.63 201.25 80.99 201.63 79.81 L 201.94 78.87 C 202.32 77.69 201.68 76.42 200.50 76.04 C 199.32 75.65 198.05 76.30 197.67 77.48 Z M 197.33 78.49 L 197.05 79.48 C 196.71 80.67 197.40 81.92 198.59 82.26 C 199.79 82.61 201.04 81.92 201.38 80.72 L 201.66 79.73 C 202.01 78.54 201.31 77.29 200.12 76.95 C 198.92 76.60 197.68 77.29 197.33 78.49 Z M 197.03 79.51 L 196.80 80.40 C 196.47 81.60 197.19 82.84 198.39 83.17 C 199.59 83.49 200.83 82.78 201.16 81.57 L 201.39 80.69 C 201.72 79.48 201.00 78.24 199.80 77.92 C 198.60 77.60 197.36 78.31 197.03 79.51 Z M 196.79 80.42 L 196.57 81.28 C 196.25 82.49 196.98 83.72 198.19 84.03 C 199.40 84.34 200.63 83.62 200.94 82.41 L 201.16 81.55 C 201.48 80.34 200.75 79.11 199.54 78.80 C 198.33 78.48 197.10 79.21 196.79 80.42 Z M 196.56 81.30 L 196.33 82.22 C 196.03 83.44 196.77 84.66 197.99 84.96 C 199.20 85.26 200.43 84.52 200.72 83.31 L 200.95 82.38 C 201.25 81.17 200.51 79.94 199.30 79.64 C 198.08 79.35 196.86 80.09 196.56 81.30 Z M 196.32 82.25 L 196.09 83.25 C 195.80 84.47 196.56 85.69 197.78 85.97 C 199.00 86.26 200.21 85.50 200.50 84.28 L 200.73 83.28 C 201.02 82.06 200.26 80.84 199.04 80.56 C 197.83 80.27 196.61 81.03 196.32 82.25 Z M 196.08 83.28 L 195.84 84.37 C 195.56 85.60 196.34 86.81 197.56 87.08 C 198.78 87.35 199.99 86.58 200.26 85.35 L 200.51 84.26 C 200.78 83.03 200.01 81.82 198.78 81.55 C 197.56 81.28 196.35 82.05 196.08 83.28 Z M 195.83 84.40 L 195.61 85.46 C 195.35 86.68 196.13 87.89 197.36 88.15 C 198.59 88.40 199.79 87.62 200.05 86.39 L 200.27 85.33 C 200.53 84.10 199.74 82.90 198.52 82.64 C 197.29 82.38 196.09 83.17 195.83 84.40 Z M 195.60 85.47 L 195.41 86.41 C 195.16 87.64 195.96 88.84 197.19 89.08 C 198.42 89.33 199.62 88.54 199.87 87.31 L 200.05 86.37 C 200.30 85.14 199.51 83.94 198.28 83.70 C 197.05 83.45 195.85 84.24 195.60 85.47 Z M 195.41 86.42 L 195.22 87.40 C 194.98 88.63 195.78 89.82 197.01 90.06 C 198.24 90.30 199.44 89.50 199.68 88.27 L 199.87 87.29 C 200.11 86.06 199.31 84.87 198.08 84.63 C 196.84 84.39 195.65 85.19 195.41 86.42 Z M 195.22 87.41 L 195.02 88.41 C 194.79 89.64 195.60 90.83 196.83 91.07 C 198.06 91.30 199.26 90.50 199.49 89.26 L 199.68 88.26 C 199.92 87.03 199.11 85.83 197.88 85.60 C 196.64 85.36 195.45 86.17 195.22 87.41 Z M 195.02 88.42 L 194.83 89.43 C 194.60 90.67 195.41 91.85 196.65 92.09 C 197.88 92.32 199.07 91.50 199.30 90.27 L 199.49 89.25 C 199.72 88.02 198.91 86.83 197.68 86.60 C 196.44 86.37 195.25 87.18 195.02 88.42 Z M 194.83 89.44 L 194.64 90.45 C 194.41 91.68 195.23 92.87 196.46 93.10 C 197.70 93.33 198.89 92.51 199.12 91.28 L 199.30 90.26 C 199.53 89.03 198.72 87.84 197.48 87.61 C 196.25 87.38 195.06 88.20 194.83 89.44 Z M 194.64 90.45 L 194.46 91.45 C 194.23 92.69 195.05 93.87 196.28 94.10 C 197.52 94.33 198.71 93.51 198.94 92.27 L 199.12 91.27 C 199.35 90.04 198.53 88.85 197.29 88.62 C 196.05 88.40 194.87 89.22 194.64 90.45 Z M 194.46 91.45 L 194.27 92.47 C 194.04 93.71 194.86 94.89 196.10 95.12 C 197.34 95.35 198.52 94.53 198.75 93.29 L 198.94 92.27 C 199.16 91.03 198.34 89.85 197.11 89.62 C 195.87 89.39 194.68 90.21 194.46 91.45 Z M 194.27 92.47 L 194.06 93.60 C 193.84 94.84 194.66 96.02 195.89 96.25 C 197.13 96.48 198.32 95.66 198.54 94.42 L 198.75 93.29 C 198.98 92.05 198.16 90.87 196.92 90.64 C 195.68 90.41 194.50 91.23 194.27 92.47 Z M 194.06 93.60 L 193.87 94.66 C 193.64 95.90 194.46 97.09 195.70 97.31 C 196.93 97.54 198.12 96.72 198.35 95.48 L 198.54 94.42 C 198.77 93.18 197.95 92.00 196.71 91.77 C 195.48 91.54 194.29 92.36 194.06 93.60 Z M 193.87 94.66 L 193.68 95.65 C 193.45 96.89 194.27 98.08 195.51 98.31 C 196.74 98.54 197.93 97.72 198.16 96.49 L 198.35 95.49 C 198.58 94.25 197.76 93.06 196.52 92.83 C 195.29 92.60 194.10 93.42 193.87 94.66 Z M 193.68 95.65 L 193.51 96.58 C 193.27 97.81 194.09 99.01 195.32 99.24 C 196.56 99.47 197.75 98.66 197.98 97.42 L 198.16 96.49 C 198.39 95.26 197.58 94.07 196.35 93.83 C 195.11 93.60 193.92 94.41 193.68 95.65 Z M 193.51 96.57 L 193.34 97.43 C 193.10 98.66 193.91 99.86 195.14 100.10 C 196.38 100.34 197.58 99.53 197.82 98.30 L 197.98 97.44 C 198.22 96.20 197.42 95.01 196.18 94.77 C 194.95 94.52 193.75 95.33 193.51 96.57 Z M 193.35 97.41 L 193.16 98.31 C 192.92 99.54 193.71 100.74 194.95 100.99 C 196.18 101.24 197.38 100.44 197.63 99.21 L 197.81 98.31 C 198.06 97.08 197.26 95.88 196.03 95.63 C 194.80 95.38 193.60 96.18 193.35 97.41 Z M 193.17 98.28 L 192.96 99.27 C 192.70 100.50 193.48 101.71 194.71 101.97 C 195.94 102.23 197.15 101.45 197.41 100.22 L 197.62 99.24 C 197.89 98.01 197.10 96.80 195.87 96.53 C 194.64 96.27 193.43 97.05 193.17 98.28 Z M 192.97 99.24 L 192.75 100.18 C 192.48 101.40 193.25 102.62 194.48 102.90 C 195.70 103.17 196.92 102.40 197.20 101.18 L 197.41 100.24 C 197.68 99.02 196.91 97.80 195.69 97.52 C 194.46 97.25 193.24 98.02 192.97 99.24 Z M 192.76 100.16 L 192.54 101.11 C 192.25 102.33 193.01 103.55 194.24 103.84 C 195.46 104.13 196.69 103.36 196.97 102.14 L 197.19 101.19 C 197.48 99.97 196.72 98.74 195.49 98.46 C 194.27 98.17 193.04 98.93 192.76 100.16 Z M 192.54 101.10 L 192.30 102.10 C 192.02 103.32 192.77 104.55 194.00 104.84 C 195.22 105.13 196.45 104.37 196.74 103.14 L 196.97 102.14 C 197.26 100.92 196.50 99.69 195.28 99.41 C 194.05 99.12 192.83 99.88 192.54 101.10 Z M 192.30 102.10 L 192.08 103.06 C 191.79 104.28 192.55 105.51 193.77 105.80 C 195.00 106.08 196.22 105.32 196.51 104.10 L 196.74 103.14 C 197.02 101.92 196.27 100.69 195.04 100.41 C 193.82 100.12 192.59 100.88 192.30 102.10 Z M 192.08 103.06 L 191.84 104.06 C 191.55 105.29 192.31 106.51 193.53 106.80 C 194.76 107.09 195.98 106.33 196.27 105.11 L 196.51 104.10 C 196.80 102.88 196.04 101.66 194.82 101.37 C 193.60 101.08 192.37 101.83 192.08 103.06 Z M 191.85 104.05 L 191.60 105.07 C 191.31 106.29 192.06 107.51 193.28 107.81 C 194.50 108.10 195.73 107.35 196.03 106.13 L 196.27 105.12 C 196.56 103.90 195.81 102.67 194.59 102.37 C 193.37 102.08 192.14 102.83 191.85 104.05 Z M 191.61 105.05 L 191.37 106.03 C 191.07 107.25 191.81 108.48 193.03 108.78 C 194.25 109.08 195.48 108.34 195.78 107.12 L 196.02 106.14 C 196.32 104.92 195.58 103.69 194.36 103.39 C 193.14 103.09 191.91 103.83 191.61 105.05 Z M 191.37 106.01 L 191.13 106.97 C 190.81 108.18 191.54 109.42 192.76 109.73 C 193.97 110.05 195.21 109.32 195.53 108.10 L 195.77 107.14 C 196.09 105.92 195.36 104.69 194.14 104.37 C 192.93 104.06 191.69 104.79 191.37 106.01 Z M 191.14 106.93 L 190.84 108.01 C 190.51 109.22 191.22 110.47 192.42 110.80 C 193.63 111.13 194.88 110.43 195.21 109.22 L 195.51 108.14 C 195.85 106.93 195.14 105.68 193.93 105.35 C 192.72 105.01 191.47 105.72 191.14 106.93 Z M 190.86 107.97 L 190.58 108.91 C 190.23 110.11 190.91 111.37 192.11 111.72 C 193.31 112.08 194.57 111.39 194.92 110.19 L 195.20 109.26 C 195.55 108.06 194.87 106.80 193.67 106.44 C 192.47 106.09 191.21 106.77 190.86 107.97 Z M 190.59 108.88 L 190.33 109.74 C 189.96 110.93 190.63 112.20 191.82 112.57 C 193.01 112.94 194.27 112.27 194.64 111.08 L 194.91 110.22 C 195.28 109.03 194.61 107.76 193.42 107.39 C 192.23 107.02 190.96 107.69 190.59 108.88 Z M 190.33 109.74 L 190.05 110.65 C 189.68 111.84 190.34 113.11 191.53 113.47 C 192.72 113.84 193.99 113.18 194.35 111.99 L 194.64 111.08 C 195.01 109.89 194.34 108.63 193.15 108.26 C 191.96 107.89 190.70 108.55 190.33 109.74 Z M 190.05 110.65 L 189.75 111.61 C 189.38 112.80 190.05 114.06 191.23 114.43 C 192.42 114.80 193.68 114.13 194.05 112.95 L 194.35 111.99 C 194.72 110.80 194.06 109.54 192.87 109.17 C 191.68 108.80 190.42 109.47 190.05 110.65 Z M 189.76 111.59 L 189.46 112.55 C 189.08 113.73 189.73 115.00 190.92 115.37 C 192.10 115.75 193.36 115.10 193.74 113.92 L 194.05 112.96 C 194.42 111.78 193.77 110.51 192.59 110.14 C 191.40 109.76 190.14 110.41 189.76 111.59 Z M 189.47 112.52 L 189.16 113.46 C 188.76 114.63 189.40 115.91 190.58 116.30 C 191.75 116.69 193.03 116.06 193.42 114.88 L 193.73 113.94 C 194.12 112.77 193.49 111.49 192.31 111.10 C 191.13 110.71 189.86 111.35 189.47 112.52 Z M 189.17 113.42 L 188.85 114.35 C 188.43 115.51 189.05 116.80 190.22 117.21 C 191.38 117.62 192.67 117.01 193.08 115.84 L 193.40 114.91 C 193.82 113.75 193.20 112.46 192.03 112.05 C 190.86 111.64 189.58 112.25 189.17 113.42 Z M 188.86 114.31 L 188.51 115.25 C 188.08 116.41 188.67 117.70 189.83 118.13 C 190.99 118.57 192.28 117.98 192.71 116.82 L 193.06 115.87 C 193.49 114.71 192.90 113.42 191.74 112.99 C 190.58 112.56 189.29 113.15 188.86 114.31 Z M 188.52 115.22 L 188.15 116.17 C 187.70 117.32 188.27 118.62 189.42 119.07 C 190.57 119.52 191.87 118.95 192.32 117.80 L 192.70 116.85 C 193.15 115.70 192.58 114.40 191.43 113.95 C 190.28 113.50 188.98 114.06 188.52 115.22 Z M 188.16 116.14 L 187.79 117.06 C 187.32 118.21 187.87 119.51 189.02 119.98 C 190.16 120.45 191.47 119.90 191.94 118.75 L 192.31 117.83 C 192.78 116.68 192.23 115.38 191.08 114.91 C 189.94 114.44 188.63 114.99 188.16 116.14 Z M 187.80 117.04 L 187.41 117.97 C 186.93 119.11 187.46 120.42 188.60 120.90 C 189.74 121.38 191.05 120.85 191.53 119.71 L 191.93 118.77 C 192.40 117.63 191.87 116.32 190.73 115.84 C 189.59 115.36 188.28 115.90 187.80 117.04 Z M 187.42 117.96 L 187.02 118.88 C 186.53 120.01 187.05 121.33 188.19 121.82 C 189.32 122.30 190.64 121.78 191.13 120.65 L 191.52 119.72 C 192.01 118.59 191.49 117.27 190.35 116.79 C 189.22 116.30 187.90 116.82 187.42 117.96 Z M 187.03 118.86 L 186.61 119.80 C 186.12 120.93 186.63 122.25 187.76 122.74 C 188.89 123.24 190.21 122.73 190.71 121.60 L 191.12 120.66 C 191.62 119.53 191.10 118.21 189.97 117.71 C 188.84 117.22 187.52 117.73 187.03 118.86 Z M 186.62 119.78 L 186.21 120.69 C 185.70 121.82 186.21 123.14 187.33 123.65 C 188.46 124.16 189.78 123.66 190.29 122.53 L 190.70 121.62 C 191.21 120.49 190.71 119.17 189.58 118.66 C 188.45 118.15 187.13 118.65 186.62 119.78 Z M 186.22 120.67 L 185.81 121.56 C 185.29 122.68 185.78 124.01 186.90 124.53 C 188.02 125.05 189.34 124.56 189.86 123.44 L 190.28 122.55 C 190.80 121.43 190.31 120.10 189.19 119.58 C 188.07 119.07 186.74 119.55 186.22 120.67 Z M 185.82 121.54 L 185.40 122.43 C 184.87 123.55 185.34 124.88 186.45 125.41 C 187.56 125.94 188.90 125.47 189.43 124.35 L 189.85 123.46 C 190.38 122.35 189.91 121.02 188.80 120.49 C 187.68 119.96 186.35 120.43 185.82 121.54 Z M 185.41 122.41 L 184.97 123.31 C 184.43 124.42 184.89 125.75 185.99 126.30 C 187.10 126.84 188.44 126.38 188.98 125.27 L 189.42 124.37 C 189.96 123.27 189.50 121.93 188.39 121.39 C 187.28 120.85 185.95 121.31 185.41 122.41 Z M 184.97 123.30 L 184.53 124.20 C 183.98 125.30 184.43 126.64 185.54 127.19 C 186.64 127.73 187.98 127.28 188.53 126.18 L 188.97 125.28 C 189.52 124.18 189.07 122.84 187.97 122.29 C 186.86 121.74 185.52 122.19 184.97 123.30 Z M 184.53 124.19 L 184.08 125.09 C 183.53 126.19 183.98 127.53 185.08 128.08 C 186.19 128.63 187.53 128.18 188.08 127.08 L 188.52 126.18 C 189.07 125.08 188.63 123.74 187.53 123.19 C 186.42 122.64 185.08 123.09 184.53 124.19 Z M 184.09 125.08 L 183.64 125.97 C 183.08 127.07 183.53 128.42 184.63 128.97 C 185.73 129.52 187.07 129.08 187.62 127.98 L 188.07 127.09 C 188.63 125.99 188.18 124.64 187.08 124.09 C 185.98 123.54 184.64 123.98 184.09 125.08 Z M 183.65 125.95 L 183.19 126.84 C 182.63 127.94 183.05 129.28 184.15 129.85 C 185.24 130.41 186.59 129.98 187.15 128.89 L 187.61 128.00 C 188.18 126.91 187.75 125.56 186.65 124.99 C 185.56 124.43 184.21 124.86 183.65 125.95 Z M 183.21 126.80 L 182.73 127.68 C 182.15 128.77 182.55 130.12 183.64 130.71 C 184.72 131.29 186.07 130.89 186.66 129.81 L 187.13 128.93 C 187.72 127.84 187.32 126.49 186.23 125.90 C 185.15 125.32 183.80 125.72 183.21 126.80 Z M 182.76 127.64 L 182.32 128.41 C 181.71 129.47 182.08 130.84 183.15 131.45 C 184.22 132.06 185.58 131.69 186.19 130.62 L 186.63 129.85 C 187.24 128.78 186.87 127.42 185.80 126.81 C 184.74 126.20 183.37 126.57 182.76 127.64 Z M 182.34 128.37 L 181.87 129.17 C 181.23 130.22 181.57 131.59 182.63 132.23 C 183.69 132.86 185.06 132.52 185.69 131.46 L 186.17 130.66 C 186.80 129.60 186.46 128.23 185.40 127.60 C 184.35 126.97 182.98 127.31 182.34 128.37 Z M 181.88 129.14 L 181.33 130.02 C 180.68 131.07 181.01 132.44 182.05 133.09 C 183.10 133.74 184.48 133.42 185.12 132.37 L 185.67 131.49 C 186.32 130.44 186.00 129.07 184.95 128.42 C 183.91 127.77 182.53 128.09 181.88 129.14 Z M 181.34 130.01 L 180.75 130.95 C 180.09 131.99 180.40 133.37 181.44 134.03 C 182.48 134.69 183.86 134.38 184.52 133.33 L 185.11 132.39 C 185.77 131.35 185.46 129.97 184.42 129.31 C 183.38 128.65 182.00 128.97 181.34 130.01 Z M 180.75 130.95 L 180.24 131.74 C 179.58 132.78 179.89 134.16 180.92 134.82 C 181.96 135.48 183.34 135.18 184.00 134.14 L 184.51 133.34 C 185.17 132.30 184.87 130.92 183.83 130.26 C 182.79 129.60 181.41 129.91 180.75 130.95 Z M 180.25 131.73 L 179.70 132.58 C 179.03 133.62 179.33 135.00 180.37 135.66 C 181.40 136.33 182.78 136.03 183.45 135.00 L 184.00 134.15 C 184.66 133.12 184.37 131.74 183.33 131.07 C 182.30 130.40 180.92 130.70 180.25 131.73 Z M 179.71 132.56 L 179.14 133.43 C 178.47 134.46 178.75 135.84 179.78 136.52 C 180.81 137.20 182.19 136.91 182.87 135.88 L 183.44 135.01 C 184.12 133.98 183.83 132.60 182.80 131.93 C 181.77 131.25 180.39 131.54 179.71 132.56 Z M 179.16 133.41 L 178.58 134.27 C 177.89 135.29 178.16 136.68 179.18 137.36 C 180.20 138.05 181.59 137.78 182.28 136.76 L 182.86 135.90 C 183.54 134.88 183.27 133.49 182.25 132.81 C 181.23 132.12 179.84 132.39 179.16 133.41 Z M 178.60 134.24 L 178.03 135.06 C 177.32 136.07 177.57 137.46 178.58 138.16 C 179.59 138.87 180.98 138.62 181.69 137.61 L 182.26 136.79 C 182.96 135.78 182.71 134.39 181.70 133.68 C 180.69 132.98 179.30 133.23 178.60 134.24 Z M 178.06 135.02 L 177.41 135.90 C 176.68 136.90 176.90 138.29 177.89 139.02 C 178.89 139.75 180.28 139.53 181.01 138.54 L 181.66 137.65 C 182.39 136.66 182.17 135.26 181.17 134.53 C 180.18 133.81 178.78 134.02 178.06 135.02 Z M 177.45 135.85 L 176.81 136.67 C 176.06 137.65 176.24 139.05 177.21 139.80 C 178.19 140.55 179.59 140.38 180.34 139.40 L 180.97 138.58 C 181.73 137.61 181.55 136.21 180.58 135.46 C 179.60 134.70 178.20 134.88 177.45 135.85 Z M 176.85 136.63 L 176.24 137.38 C 175.46 138.33 175.60 139.74 176.55 140.52 C 177.50 141.30 178.91 141.16 179.69 140.20 L 180.31 139.45 C 181.08 138.49 180.94 137.09 179.99 136.31 C 179.04 135.53 177.63 135.67 176.85 136.63 Z M 176.27 137.34 L 175.66 138.05 C 174.86 138.98 174.97 140.39 175.90 141.19 C 176.84 142.00 178.24 141.89 179.05 140.95 L 179.66 140.24 C 180.46 139.31 180.35 137.90 179.41 137.10 C 178.48 136.30 177.07 136.40 176.27 137.34 Z M 175.69 138.02 L 175.08 138.70 C 174.26 139.62 174.34 141.03 175.26 141.85 C 176.18 142.67 177.59 142.59 178.41 141.67 L 179.02 140.98 C 179.84 140.06 179.76 138.65 178.84 137.84 C 177.92 137.02 176.51 137.10 175.69 138.02 Z M 175.11 138.67 L 174.48 139.35 C 173.64 140.25 173.69 141.66 174.60 142.50 C 175.50 143.34 176.91 143.29 177.75 142.38 L 178.38 141.70 C 179.22 140.80 179.16 139.39 178.26 138.55 C 177.35 137.71 175.94 137.77 175.11 138.67 Z M 174.52 139.31 L 173.85 139.99 C 172.98 140.87 173.00 142.29 173.88 143.15 C 174.76 144.01 176.17 143.99 177.03 143.11 L 177.71 142.43 C 178.57 141.55 178.55 140.13 177.67 139.27 C 176.79 138.41 175.38 138.43 174.52 139.31 Z M 173.90 139.94 L 173.15 140.65 C 172.26 141.51 172.23 142.92 173.09 143.81 C 173.94 144.70 175.35 144.73 176.24 143.88 L 176.98 143.16 C 177.87 142.31 177.90 140.90 177.05 140.01 C 176.20 139.12 174.79 139.09 173.90 139.94 Z M 173.21 140.60 L 172.37 141.35 C 171.46 142.17 171.38 143.58 172.20 144.50 C 173.02 145.42 174.43 145.50 175.35 144.67 L 176.18 143.93 C 177.10 143.11 177.18 141.70 176.36 140.78 C 175.54 139.86 174.13 139.78 173.21 140.60 Z M 172.42 141.31 L 171.67 141.95 C 170.72 142.74 170.61 144.15 171.40 145.09 C 172.20 146.03 173.60 146.15 174.55 145.36 L 175.30 144.72 C 176.24 143.92 176.36 142.51 175.57 141.57 C 174.77 140.63 173.36 140.51 172.42 141.31 Z M 171.70 141.91 L 170.90 142.56 C 169.94 143.34 169.79 144.75 170.56 145.71 C 171.34 146.67 172.74 146.82 173.70 146.04 L 174.51 145.39 C 175.47 144.61 175.62 143.21 174.84 142.25 C 174.07 141.29 172.66 141.14 171.70 141.91 Z M 170.93 142.53 L 170.10 143.18 C 169.13 143.93 168.95 145.34 169.71 146.31 C 170.46 147.29 171.87 147.47 172.84 146.71 L 173.67 146.07 C 174.65 145.31 174.82 143.91 174.07 142.93 C 173.31 141.96 171.90 141.78 170.93 142.53 Z M 170.14 143.15 L 169.32 143.76 C 168.32 144.49 168.12 145.90 168.86 146.89 C 169.59 147.88 171.00 148.09 171.99 147.35 L 172.81 146.74 C 173.80 146.00 174.01 144.60 173.27 143.61 C 172.53 142.61 171.13 142.41 170.14 143.15 Z M 169.36 143.72 L 168.57 144.28 C 167.56 144.99 167.33 146.39 168.04 147.40 C 168.76 148.41 170.16 148.65 171.17 147.94 L 171.95 147.38 C 172.96 146.67 173.20 145.27 172.48 144.26 C 171.77 143.25 170.37 143.01 169.36 143.72 Z M 168.63 144.23 L 167.73 144.82 C 166.70 145.51 166.41 146.90 167.10 147.94 C 167.78 148.98 169.18 149.26 170.21 148.58 L 171.11 147.98 C 172.15 147.30 172.43 145.90 171.75 144.87 C 171.06 143.83 169.67 143.55 168.63 144.23 Z M 167.80 144.76 L 166.87 145.32 C 165.80 145.97 165.45 147.37 166.10 148.44 C 166.75 149.51 168.14 149.85 169.21 149.21 L 170.15 148.64 C 171.22 147.99 171.56 146.60 170.92 145.53 C 170.27 144.45 168.87 144.11 167.80 144.76 Z M 166.90 145.28 L 166.08 145.74 C 164.99 146.37 164.61 147.77 165.24 148.87 C 165.87 149.97 167.27 150.35 168.37 149.72 L 169.18 149.25 C 170.28 148.62 170.66 147.22 170.03 146.12 C 169.40 145.02 168.00 144.64 166.90 145.28 Z M 166.04 145.74 L 165.30 146.18 C 164.20 146.84 163.84 148.26 164.50 149.36 C 165.15 150.46 166.57 150.82 167.67 150.16 L 168.41 149.72 C 169.51 149.07 169.87 147.64 169.22 146.55 C 168.56 145.45 167.14 145.09 166.04 145.74 Z M 165.16 146.25 L 164.37 146.79 C 163.31 147.52 163.04 148.98 163.77 150.04 C 164.50 151.10 165.95 151.37 167.02 150.64 L 167.81 150.10 C 168.87 149.36 169.14 147.91 168.41 146.85 C 167.68 145.79 166.23 145.52 165.16 146.25 Z M 164.20 146.91 L 163.44 147.54 C 162.44 148.37 162.30 149.85 163.13 150.84 C 163.95 151.84 165.43 151.98 166.43 151.15 L 167.19 150.52 C 168.19 149.69 168.33 148.22 167.50 147.22 C 166.67 146.22 165.20 146.09 164.20 146.91 Z M 163.26 147.70 L 162.54 148.42 C 161.63 149.34 161.64 150.83 162.57 151.75 C 163.49 152.66 164.98 152.65 165.89 151.72 L 166.61 151.00 C 167.52 150.08 167.51 148.59 166.59 147.67 C 165.66 146.76 164.17 146.77 163.26 147.70 Z M 162.38 148.59 L 161.76 149.36 C 160.94 150.37 161.10 151.86 162.11 152.68 C 163.13 153.50 164.62 153.34 165.44 152.32 L 166.06 151.56 C 166.88 150.54 166.72 149.05 165.70 148.23 C 164.69 147.41 163.20 147.57 162.38 148.59 Z M 161.63 149.52 L 161.07 150.34 C 160.34 151.43 160.63 152.91 161.72 153.64 C 162.81 154.37 164.28 154.08 165.01 152.99 L 165.57 152.17 C 166.30 151.08 166.01 149.60 164.92 148.87 C 163.83 148.14 162.36 148.43 161.63 149.52 Z M 160.96 150.49 L 160.47 151.37 C 159.82 152.52 160.22 153.98 161.37 154.63 C 162.52 155.28 163.97 154.87 164.62 153.72 L 165.12 152.84 C 165.77 151.70 165.37 150.24 164.22 149.59 C 163.07 148.94 161.61 149.34 160.96 150.49 Z M 160.38 151.52 L 159.93 152.46 C 159.37 153.65 159.88 155.08 161.07 155.65 C 162.27 156.22 163.70 155.71 164.27 154.51 L 164.71 153.58 C 165.28 152.38 164.77 150.95 163.57 150.38 C 162.37 149.82 160.94 150.33 160.38 151.52 Z M 159.85 152.65 L 159.48 153.64 C 159.02 154.88 159.66 156.26 160.90 156.73 C 162.14 157.19 163.52 156.55 163.98 155.31 L 164.35 154.32 C 164.81 153.08 164.18 151.70 162.93 151.23 C 161.69 150.77 160.31 151.41 159.85 152.65 Z M 159.39 153.97 L 159.18 154.94 C 158.90 156.23 159.72 157.51 161.02 157.79 C 162.31 158.07 163.59 157.24 163.87 155.95 L 164.08 154.98 C 164.36 153.69 163.53 152.41 162.24 152.13 C 160.94 151.85 159.67 152.67 159.39 153.97 Z M 159.13 155.47 L 159.14 156.39 C 159.16 157.71 160.24 158.77 161.56 158.75 C 162.89 158.74 163.95 157.65 163.93 156.33 L 163.92 155.41 C 163.90 154.09 162.82 153.03 161.49 153.05 C 160.17 153.06 159.11 154.15 159.13 155.47 Z M 159.25 157.10 L 159.53 157.96 C 159.94 159.22 161.30 159.91 162.56 159.50 C 163.82 159.09 164.51 157.73 164.10 156.47 L 163.82 155.61 C 163.41 154.35 162.05 153.66 160.79 154.07 C 159.53 154.49 158.84 155.84 159.25 157.10 Z M 159.76 158.49 L 160.27 159.32 C 160.97 160.45 162.46 160.80 163.60 160.10 C 164.73 159.40 165.08 157.91 164.38 156.77 L 163.87 155.95 C 163.17 154.81 161.68 154.46 160.54 155.16 C 159.41 155.86 159.06 157.35 159.76 158.49 Z M 160.44 159.57 L 161.13 160.43 C 161.97 161.47 163.50 161.64 164.54 160.79 C 165.59 159.95 165.75 158.42 164.91 157.38 L 164.22 156.52 C 163.38 155.48 161.85 155.31 160.80 156.15 C 159.76 157.00 159.59 158.53 160.44 159.57 Z M 161.17 160.51 L 161.80 161.23 C 162.69 162.25 164.23 162.35 165.25 161.47 C 166.27 160.58 166.38 159.04 165.49 158.02 L 164.86 157.30 C 163.98 156.28 162.43 156.17 161.41 157.06 C 160.40 157.94 160.29 159.49 161.17 160.51 Z M 161.79 161.24 L 162.44 161.99 C 163.34 163.01 164.89 163.11 165.91 162.22 C 166.94 161.33 167.04 159.77 166.15 158.75 L 165.50 158.01 C 164.60 156.98 163.05 156.88 162.03 157.77 C 161.00 158.67 160.90 160.22 161.79 161.24 Z M 162.41 161.97 L 163.08 162.75 C 163.96 163.79 165.52 163.92 166.56 163.03 C 167.60 162.15 167.73 160.59 166.85 159.55 L 166.18 158.77 C 165.30 157.73 163.74 157.60 162.69 158.49 C 161.65 159.37 161.53 160.93 162.41 161.97 Z M 163.02 162.71 L 163.67 163.52 C 164.53 164.59 166.09 164.76 167.17 163.90 C 168.24 163.04 168.41 161.47 167.55 160.40 L 166.90 159.59 C 166.04 158.52 164.48 158.35 163.40 159.21 C 162.33 160.07 162.16 161.64 163.02 162.71 Z M 163.60 163.44 L 164.17 164.21 C 164.98 165.32 166.55 165.56 167.66 164.74 C 168.77 163.93 169.01 162.36 168.19 161.25 L 167.62 160.48 C 166.80 159.37 165.24 159.13 164.13 159.95 C 163.02 160.76 162.78 162.33 163.60 163.44 Z M 164.10 164.12 L 164.62 164.90 C 165.39 166.05 166.94 166.36 168.09 165.59 C 169.24 164.82 169.55 163.27 168.78 162.12 L 168.26 161.34 C 167.49 160.20 165.94 159.89 164.79 160.65 C 163.64 161.42 163.33 162.97 164.10 164.12 Z M 164.57 164.82 L 165.08 165.65 C 165.80 166.83 167.34 167.20 168.52 166.47 C 169.69 165.75 170.06 164.21 169.34 163.03 L 168.83 162.21 C 168.11 161.03 166.57 160.66 165.39 161.38 C 164.22 162.11 163.85 163.65 164.57 164.82 Z M 165.04 165.59 L 165.55 166.48 C 166.24 167.68 167.77 168.10 168.97 167.41 C 170.16 166.73 170.58 165.20 169.89 164.00 L 169.38 163.10 C 168.69 161.90 167.17 161.49 165.97 162.17 C 164.77 162.86 164.35 164.39 165.04 165.59 Z M 165.53 166.44 L 166.05 167.39 C 166.71 168.61 168.22 169.06 169.44 168.40 C 170.65 167.74 171.10 166.22 170.44 165.00 L 169.92 164.05 C 169.26 162.83 167.74 162.38 166.53 163.04 C 165.31 163.70 164.87 165.22 165.53 166.44 Z M 166.03 167.36 L 166.48 168.22 C 167.12 169.44 168.64 169.91 169.86 169.27 C 171.08 168.63 171.55 167.11 170.91 165.89 L 170.46 165.03 C 169.81 163.81 168.30 163.34 167.08 163.99 C 165.86 164.63 165.39 166.14 166.03 167.36 Z M 166.47 168.20 L 166.93 169.10 C 167.56 170.33 169.07 170.81 170.30 170.18 C 171.53 169.55 172.01 168.04 171.38 166.81 L 170.92 165.91 C 170.29 164.68 168.78 164.20 167.55 164.83 C 166.32 165.46 165.84 166.97 166.47 168.20 Z M 166.92 169.08 L 167.39 170.00 C 168.01 171.23 169.51 171.73 170.75 171.11 C 171.98 170.49 172.48 168.98 171.85 167.75 L 171.39 166.83 C 170.77 165.59 169.26 165.10 168.03 165.72 C 166.80 166.34 166.30 167.84 166.92 169.08 Z M 167.38 169.98 L 167.83 170.90 C 168.44 172.14 169.94 172.65 171.18 172.04 C 172.42 171.43 172.93 169.92 172.32 168.68 L 171.86 167.76 C 171.25 166.53 169.75 166.02 168.51 166.63 C 167.27 167.24 166.76 168.74 167.38 169.98 Z M 167.82 170.89 L 168.26 171.78 C 168.86 173.03 170.36 173.55 171.60 172.95 C 172.85 172.34 173.37 170.85 172.76 169.60 L 172.33 168.70 C 171.72 167.46 170.23 166.94 168.98 167.54 C 167.74 168.14 167.22 169.64 167.82 170.89 Z M 168.25 171.77 L 168.69 172.69 C 169.28 173.94 170.77 174.47 172.02 173.88 C 173.27 173.28 173.80 171.79 173.21 170.54 L 172.77 169.62 C 172.18 168.37 170.69 167.84 169.44 168.43 C 168.19 169.02 167.66 170.52 168.25 171.77 Z M 168.68 172.66 L 169.12 173.62 C 169.70 174.88 171.19 175.42 172.44 174.84 C 173.70 174.26 174.24 172.78 173.66 171.52 L 173.22 170.56 C 172.64 169.31 171.15 168.76 169.90 169.34 C 168.64 169.92 168.10 171.41 168.68 172.66 Z M 169.11 173.61 L 169.52 174.51 C 170.09 175.77 171.58 176.33 172.83 175.76 C 174.09 175.19 174.65 173.71 174.08 172.45 L 173.67 171.54 C 173.10 170.28 171.62 169.72 170.36 170.29 C 169.10 170.86 168.54 172.35 169.11 173.61 Z M 169.52 174.50 L 169.91 175.38 C 170.48 176.64 171.96 177.21 173.22 176.64 C 174.48 176.08 175.04 174.60 174.48 173.34 L 174.09 172.46 C 173.52 171.20 172.04 170.63 170.78 171.20 C 169.52 171.76 168.95 173.24 169.52 174.50 Z M 169.91 175.38 L 170.30 176.26 C 170.87 177.52 172.35 178.08 173.61 177.51 C 174.87 176.95 175.43 175.47 174.87 174.21 L 174.48 173.34 C 173.91 172.08 172.43 171.51 171.17 172.08 C 169.91 172.64 169.35 174.12 169.91 175.38 Z M 170.31 176.27 L 170.70 177.13 C 171.27 178.39 172.76 178.95 174.01 178.38 C 175.27 177.81 175.83 176.33 175.26 175.07 L 174.86 174.20 C 174.29 172.94 172.81 172.38 171.55 172.95 C 170.29 173.52 169.74 175.01 170.31 176.27 Z M 170.71 177.14 L 171.11 178.02 C 171.69 179.28 173.17 179.83 174.43 179.25 C 175.68 178.68 176.23 177.19 175.66 175.94 L 175.25 175.06 C 174.68 173.80 173.19 173.25 171.94 173.83 C 170.68 174.40 170.13 175.89 170.71 177.14 Z M 171.11 178.03 L 171.53 178.93 C 172.10 180.18 173.59 180.73 174.84 180.15 C 176.10 179.58 176.65 178.09 176.07 176.84 L 175.66 175.94 C 175.08 174.68 173.59 174.13 172.34 174.71 C 171.08 175.29 170.53 176.77 171.11 178.03 Z M 171.53 178.92 L 171.95 179.85 C 172.52 181.10 174.01 181.65 175.26 181.08 C 176.52 180.51 177.07 179.02 176.50 177.77 L 176.07 176.84 C 175.50 175.59 174.01 175.03 172.76 175.61 C 171.50 176.18 170.95 177.67 171.53 178.92 Z M 171.94 179.84 L 172.37 180.78 C 172.94 182.04 174.42 182.60 175.68 182.03 C 176.94 181.46 177.50 179.98 176.93 178.72 L 176.50 177.78 C 175.93 176.52 174.45 175.96 173.19 176.53 C 171.93 177.10 171.37 178.58 171.94 179.84 Z M 172.36 180.76 L 172.77 181.67 C 173.33 182.93 174.80 183.50 176.06 182.94 C 177.33 182.38 177.90 180.91 177.34 179.65 L 176.93 178.74 C 176.37 177.48 174.90 176.91 173.64 177.47 C 172.37 178.03 171.80 179.50 172.36 180.76 Z M 172.76 181.66 L 173.15 182.55 C 173.70 183.82 175.17 184.39 176.44 183.84 C 177.70 183.29 178.28 181.82 177.73 180.55 L 177.34 179.66 C 176.79 178.39 175.32 177.82 174.05 178.37 C 172.79 178.92 172.21 180.39 172.76 181.66 Z M 173.15 182.54 L 173.54 183.45 C 174.08 184.72 175.55 185.30 176.82 184.76 C 178.09 184.21 178.67 182.74 178.13 181.47 L 177.73 180.56 C 177.19 179.30 175.72 178.71 174.45 179.26 C 173.18 179.80 172.60 181.27 173.15 182.54 Z M 173.54 183.44 L 173.93 184.37 C 174.48 185.64 175.94 186.23 177.21 185.68 C 178.48 185.14 179.07 183.67 178.52 182.40 L 178.13 181.48 C 177.58 180.21 176.12 179.62 174.85 180.17 C 173.58 180.71 172.99 182.18 173.54 183.44 Z M 173.93 184.37 L 174.34 185.31 C 174.88 186.58 176.35 187.16 177.61 186.62 C 178.88 186.08 179.47 184.61 178.93 183.35 L 178.52 182.41 C 177.98 181.14 176.51 180.55 175.25 181.09 C 173.98 181.63 173.39 183.10 173.93 184.37 Z M 174.34 185.31 L 174.74 186.25 C 175.29 187.52 176.75 188.10 178.02 187.56 C 179.29 187.01 179.87 185.55 179.33 184.28 L 178.92 183.34 C 178.38 182.08 176.91 181.49 175.65 182.03 C 174.38 182.58 173.79 184.05 174.34 185.31 Z M 174.74 186.26 L 175.13 187.14 C 175.67 188.41 177.14 188.99 178.41 188.44 C 179.67 187.89 180.25 186.43 179.71 185.16 L 179.32 184.28 C 178.78 183.01 177.31 182.43 176.04 182.98 C 174.78 183.52 174.20 184.99 174.74 186.26 Z M 175.13 187.14 L 175.52 188.04 C 176.07 189.30 177.53 189.88 178.80 189.34 C 180.06 188.79 180.64 187.32 180.09 186.06 L 179.70 185.16 C 179.16 183.90 177.69 183.32 176.43 183.86 C 175.16 184.41 174.58 185.88 175.13 187.14 Z M 175.52 188.04 L 175.92 188.95 C 176.46 190.22 177.93 190.80 179.19 190.25 C 180.46 189.70 181.04 188.23 180.49 186.97 L 180.09 186.06 C 179.55 184.80 178.08 184.22 176.82 184.76 C 175.55 185.31 174.97 186.78 175.52 188.04 Z M 175.92 188.95 L 176.32 189.88 C 176.86 191.14 178.33 191.72 179.59 191.18 C 180.85 190.63 181.43 189.16 180.89 187.90 L 180.49 186.97 C 179.94 185.71 178.48 185.13 177.21 185.68 C 175.95 186.22 175.37 187.69 175.92 188.95 Z M 176.32 189.87 L 176.72 190.82 C 177.26 192.08 178.73 192.66 179.99 192.12 C 181.25 191.58 181.84 190.11 181.30 188.85 L 180.89 187.91 C 180.35 186.64 178.88 186.06 177.62 186.60 C 176.36 187.15 175.77 188.61 176.32 189.87 Z M 176.72 190.81 L 177.12 191.76 C 177.66 193.02 179.12 193.61 180.39 193.07 C 181.65 192.53 182.24 191.07 181.70 189.81 L 181.30 188.86 C 180.76 187.59 179.30 187.01 178.03 187.54 C 176.77 188.08 176.18 189.55 176.72 190.81 Z M 177.12 191.75 L 177.51 192.67 C 178.05 193.94 179.51 194.53 180.77 193.99 C 182.04 193.46 182.63 192.00 182.09 190.74 L 181.70 189.81 C 181.17 188.55 179.71 187.96 178.44 188.49 C 177.18 189.03 176.59 190.48 177.12 191.75 Z M 177.51 192.67 L 177.90 193.60 C 178.43 194.86 179.89 195.46 181.16 194.92 C 182.42 194.39 183.02 192.94 182.48 191.67 L 182.09 190.74 C 181.56 189.48 180.10 188.88 178.84 189.41 C 177.57 189.94 176.98 191.40 177.51 192.67 Z M 177.90 193.59 L 178.29 194.53 C 178.82 195.79 180.28 196.39 181.54 195.86 C 182.81 195.33 183.40 193.87 182.87 192.61 L 182.48 191.67 C 181.95 190.41 180.50 189.81 179.23 190.34 C 177.97 190.87 177.37 192.33 177.90 193.59 Z M 178.30 194.52 L 178.68 195.45 C 179.21 196.72 180.67 197.31 181.93 196.78 C 183.19 196.25 183.79 194.80 183.26 193.54 L 182.87 192.61 C 182.34 191.34 180.89 190.75 179.63 191.28 C 178.36 191.81 177.77 193.26 178.30 194.52 Z M 178.69 195.45 L 179.07 196.37 C 179.60 197.64 181.05 198.23 182.32 197.70 C 183.58 197.17 184.17 195.72 183.64 194.46 L 183.26 193.54 C 182.73 192.27 181.28 191.68 180.01 192.21 C 178.75 192.74 178.16 194.19 178.69 195.45 Z M 179.08 196.38 L 179.46 197.28 C 179.99 198.54 181.44 199.13 182.70 198.60 C 183.96 198.07 184.55 196.61 184.02 195.35 L 183.64 194.45 C 183.11 193.19 181.66 192.60 180.40 193.13 C 179.14 193.66 178.54 195.12 179.08 196.38 Z M 179.46 197.28 L 179.87 198.24 C 180.40 199.49 181.85 200.08 183.11 199.55 C 184.37 199.01 184.95 197.56 184.42 196.30 L 184.02 195.35 C 183.48 194.09 182.03 193.51 180.77 194.04 C 179.51 194.57 178.93 196.03 179.46 197.28 Z M 179.87 198.24 L 180.27 199.18 C 180.81 200.43 182.26 201.01 183.52 200.47 C 184.77 199.94 185.35 198.48 184.82 197.23 L 184.42 196.30 C 183.88 195.04 182.43 194.46 181.17 195.00 C 179.92 195.53 179.33 196.99 179.87 198.24 Z M 180.28 199.18 L 180.67 200.10 C 181.21 201.35 182.66 201.93 183.91 201.39 C 185.17 200.85 185.74 199.40 185.21 198.14 L 184.81 197.23 C 184.27 195.97 182.82 195.40 181.57 195.94 C 180.32 196.47 179.74 197.93 180.28 199.18 Z M 180.67 200.10 L 181.07 201.00 C 181.61 202.25 183.06 202.83 184.31 202.29 C 185.56 201.75 186.13 200.30 185.59 199.05 L 185.20 198.14 C 184.66 196.89 183.21 196.32 181.96 196.86 C 180.71 197.40 180.14 198.85 180.67 200.10 Z M 181.07 201.00 L 181.46 201.90 C 182.00 203.15 183.45 203.73 184.69 203.19 C 185.94 202.65 186.52 201.20 185.98 199.95 L 185.59 199.05 C 185.05 197.80 183.60 197.23 182.35 197.77 C 181.10 198.31 180.53 199.75 181.07 201.00 Z M 181.46 201.90 L 181.85 202.80 C 182.39 204.05 183.83 204.62 185.08 204.09 C 186.33 203.55 186.90 202.10 186.37 200.85 L 185.98 199.95 C 185.44 198.71 183.99 198.13 182.74 198.67 C 181.50 199.21 180.92 200.65 181.46 201.90 Z M 181.85 202.80 L 182.25 203.72 C 182.78 204.97 184.22 205.54 185.47 205.01 C 186.72 204.47 187.30 203.03 186.76 201.78 L 186.36 200.86 C 185.83 199.61 184.38 199.04 183.14 199.57 C 181.89 200.11 181.31 201.55 181.85 202.80 Z M 182.25 203.71 L 182.64 204.64 C 183.17 205.88 184.61 206.46 185.86 205.93 C 187.11 205.40 187.69 203.96 187.15 202.71 L 186.76 201.79 C 186.23 200.54 184.79 199.96 183.54 200.49 C 182.29 201.03 181.71 202.47 182.25 203.71 Z M 182.64 204.63 L 183.03 205.56 C 183.56 206.80 185.00 207.38 186.24 206.86 C 187.49 206.33 188.07 204.89 187.54 203.65 L 187.15 202.72 C 186.63 201.48 185.19 200.89 183.94 201.42 C 182.70 201.95 182.11 203.39 182.64 204.63 Z M 183.03 205.55 L 183.42 206.47 C 183.94 207.72 185.38 208.30 186.62 207.78 C 187.87 207.26 188.45 205.82 187.93 204.58 L 187.54 203.65 C 187.02 202.41 185.59 201.82 184.34 202.35 C 183.10 202.87 182.51 204.30 183.03 205.55 Z M 183.42 206.46 L 183.80 207.38 C 184.32 208.62 185.75 209.21 186.99 208.70 C 188.24 208.18 188.83 206.75 188.31 205.50 L 187.93 204.59 C 187.41 203.34 185.98 202.75 184.74 203.27 C 183.49 203.78 182.90 205.21 183.42 206.46 Z M 183.80 207.37 L 184.18 208.30 C 184.69 209.54 186.12 210.14 187.36 209.63 C 188.61 209.11 189.21 207.69 188.70 206.44 L 188.31 205.51 C 187.80 204.27 186.38 203.67 185.13 204.18 C 183.88 204.69 183.29 206.12 183.80 207.37 Z M 184.18 208.28 L 184.56 209.23 C 185.07 210.48 186.49 211.08 187.74 210.57 C 188.98 210.07 189.58 208.65 189.08 207.40 L 188.70 206.45 C 188.19 205.21 186.77 204.61 185.52 205.11 C 184.28 205.62 183.68 207.04 184.18 208.28 Z M 184.56 209.22 L 184.94 210.15 C 185.44 211.40 186.85 212.01 188.10 211.51 C 189.35 211.01 189.95 209.59 189.45 208.34 L 189.08 207.41 C 188.58 206.16 187.16 205.56 185.92 206.06 C 184.67 206.56 184.06 207.97 184.56 209.22 Z M 184.94 210.15 L 185.31 211.07 C 185.80 212.32 187.21 212.93 188.46 212.43 C 189.71 211.94 190.32 210.53 189.82 209.28 L 189.45 208.35 C 188.96 207.11 187.55 206.50 186.30 206.99 C 185.05 207.49 184.44 208.90 184.94 210.15 Z M 185.31 211.07 L 185.67 211.98 C 186.16 213.23 187.57 213.84 188.82 213.35 C 190.06 212.86 190.67 211.45 190.18 210.20 L 189.82 209.29 C 189.33 208.04 187.92 207.43 186.67 207.92 C 185.43 208.41 184.82 209.82 185.31 211.07 Z M 185.67 211.98 L 186.03 212.89 C 186.52 214.13 187.92 214.75 189.17 214.26 C 190.41 213.77 191.03 212.36 190.54 211.12 L 190.18 210.21 C 189.69 208.96 188.29 208.35 187.04 208.84 C 185.80 209.33 185.18 210.73 185.67 211.98 Z M 186.03 212.88 L 186.41 213.84 C 186.90 215.09 188.30 215.70 189.54 215.21 C 190.78 214.73 191.40 213.33 190.91 212.08 L 190.53 211.12 C 190.05 209.88 188.65 209.27 187.40 209.75 C 186.16 210.24 185.55 211.64 186.03 212.88 Z M 186.41 213.84 L 186.78 214.79 C 187.27 216.03 188.67 216.64 189.91 216.16 C 191.15 215.67 191.76 214.27 191.28 213.03 L 190.91 212.09 C 190.42 210.85 189.02 210.23 187.78 210.72 C 186.54 211.20 185.93 212.60 186.41 213.84 Z M 186.79 214.79 L 187.15 215.72 C 187.64 216.96 189.04 217.57 190.27 217.08 C 191.51 216.60 192.12 215.20 191.64 213.97 L 191.27 213.03 C 190.79 211.80 189.39 211.19 188.15 211.67 C 186.92 212.16 186.30 213.55 186.79 214.79 Z M 187.16 215.72 L 187.52 216.64 C 188.01 217.87 189.40 218.48 190.63 218.00 C 191.87 217.51 192.48 216.12 191.99 214.88 L 191.63 213.97 C 191.15 212.73 189.75 212.12 188.52 212.61 C 187.28 213.09 186.68 214.49 187.16 215.72 Z M 187.53 216.64 L 187.88 217.54 C 188.37 218.77 189.76 219.37 190.99 218.89 C 192.22 218.40 192.83 217.01 192.34 215.78 L 191.98 214.88 C 191.50 213.65 190.11 213.04 188.87 213.53 C 187.64 214.02 187.04 215.41 187.53 216.64 Z M 187.89 217.54 L 188.27 218.50 C 188.76 219.72 190.15 220.32 191.38 219.83 C 192.60 219.34 193.20 217.95 192.71 216.73 L 192.33 215.77 C 191.84 214.55 190.45 213.95 189.23 214.44 C 188.00 214.93 187.40 216.32 187.89 217.54 Z M 188.28 218.50 L 188.65 219.44 C 189.14 220.66 190.53 221.25 191.76 220.76 C 192.98 220.27 193.57 218.88 193.08 217.66 L 192.70 216.72 C 192.21 215.50 190.82 214.91 189.60 215.40 C 188.38 215.89 187.79 217.28 188.28 218.50 Z M 188.66 219.44 L 189.03 220.36 C 189.52 221.58 190.91 222.17 192.13 221.67 C 193.35 221.18 193.94 219.79 193.45 218.58 L 193.07 217.65 C 192.58 216.44 191.19 215.85 189.97 216.34 C 188.76 216.83 188.17 218.22 188.66 219.44 Z M 189.04 220.36 L 189.41 221.27 C 189.90 222.49 191.29 223.07 192.50 222.58 C 193.72 222.09 194.30 220.70 193.81 219.49 L 193.44 218.58 C 192.95 217.36 191.56 216.77 190.35 217.27 C 189.13 217.76 188.55 219.14 189.04 220.36 Z M 189.41 221.27 L 189.77 222.16 C 190.27 223.37 191.65 223.96 192.86 223.46 C 194.07 222.97 194.66 221.59 194.16 220.38 L 193.80 219.49 C 193.31 218.28 191.93 217.69 190.72 218.19 C 189.51 218.68 188.92 220.06 189.41 221.27 Z M 189.78 222.16 L 190.13 223.01 C 190.62 224.22 192.00 224.80 193.20 224.30 C 194.41 223.81 194.99 222.44 194.50 221.23 L 194.16 220.38 C 193.67 219.17 192.29 218.59 191.08 219.08 C 189.87 219.57 189.29 220.95 189.78 222.16 Z M 190.13 223.01 L 190.49 223.88 C 190.98 225.09 192.36 225.66 193.56 225.17 C 194.77 224.68 195.34 223.30 194.85 222.10 L 194.49 221.23 C 194.00 220.02 192.63 219.44 191.42 219.94 C 190.22 220.43 189.64 221.80 190.13 223.01 Z M 190.50 223.89 L 190.88 224.81 C 191.37 226.00 192.75 226.58 193.95 226.08 C 195.14 225.59 195.72 224.22 195.22 223.02 L 194.84 222.10 C 194.35 220.90 192.98 220.33 191.78 220.82 C 190.58 221.31 190.01 222.69 190.50 223.89 Z M 190.89 224.81 L 191.30 225.80 C 191.80 226.99 193.17 227.55 194.36 227.06 C 195.55 226.56 196.12 225.19 195.62 224.00 L 195.21 223.01 C 194.72 221.82 193.35 221.25 192.15 221.75 C 190.96 222.25 190.39 223.62 190.89 224.81 Z M 191.31 225.80 L 191.74 226.81 C 192.23 228.00 193.60 228.56 194.79 228.06 C 195.98 227.56 196.54 226.19 196.04 225.00 L 195.61 223.99 C 195.11 222.80 193.74 222.24 192.56 222.74 C 191.37 223.24 190.81 224.61 191.31 225.80 Z M 191.74 226.82 L 192.14 227.74 C 192.64 228.93 194.01 229.48 195.19 228.98 C 196.37 228.47 196.92 227.11 196.42 225.93 L 196.03 225.00 C 195.53 223.82 194.16 223.26 192.98 223.77 C 191.79 224.27 191.24 225.63 191.74 226.82 Z M 192.15 227.75 L 192.56 228.71 C 193.06 229.88 194.43 230.43 195.60 229.93 C 196.78 229.42 197.33 228.06 196.82 226.88 L 196.41 225.92 C 195.91 224.74 194.54 224.20 193.37 224.70 C 192.19 225.21 191.64 226.57 192.15 227.75 Z M 192.57 228.71 L 192.98 229.67 C 193.49 230.85 194.85 231.39 196.02 230.88 C 197.20 230.37 197.74 229.01 197.23 227.84 L 196.81 226.88 C 196.31 225.70 194.95 225.16 193.77 225.67 C 192.60 226.18 192.06 227.54 192.57 228.71 Z M 192.99 229.68 L 193.40 230.62 C 193.91 231.79 195.27 232.32 196.44 231.81 C 197.61 231.30 198.14 229.94 197.63 228.77 L 197.22 227.83 C 196.71 226.67 195.35 226.13 194.18 226.64 C 193.02 227.15 192.48 228.51 192.99 229.68 Z M 193.41 230.63 L 193.81 231.52 C 194.32 232.68 195.68 233.21 196.84 232.69 C 198.00 232.18 198.53 230.82 198.02 229.66 L 197.62 228.77 C 197.11 227.61 195.75 227.08 194.59 227.59 C 193.42 228.11 192.90 229.46 193.41 230.63 Z M 193.82 231.53 L 194.20 232.38 C 194.72 233.53 196.07 234.05 197.23 233.53 C 198.39 233.01 198.90 231.65 198.38 230.50 L 198.00 229.65 C 197.49 228.50 196.13 227.98 194.97 228.50 C 193.82 229.02 193.30 230.37 193.82 231.53 Z M 194.23 232.39 L 194.73 233.46 C 195.25 234.60 196.60 235.09 197.74 234.57 C 198.87 234.05 199.37 232.70 198.85 231.56 L 198.35 230.49 C 197.83 229.35 196.48 228.85 195.34 229.38 C 194.20 229.90 193.71 231.25 194.23 232.39 Z M 194.78 233.47 L 195.21 234.38 C 195.74 235.49 197.07 235.96 198.18 235.43 C 199.29 234.90 199.76 233.57 199.23 232.46 L 198.79 231.55 C 198.26 230.44 196.93 229.97 195.82 230.50 C 194.72 231.03 194.25 232.36 194.78 233.47 Z M 195.27 234.40 L 195.67 235.21 C 196.21 236.29 197.52 236.73 198.60 236.19 C 199.68 235.65 200.12 234.34 199.58 233.26 L 199.18 232.45 C 198.64 231.37 197.33 230.93 196.25 231.46 C 195.17 232.00 194.73 233.32 195.27 234.40 Z M 195.72 235.21 L 196.12 236.00 C 196.67 237.05 197.96 237.46 199.01 236.92 C 200.06 236.38 200.48 235.09 199.94 234.03 L 199.53 233.25 C 198.99 232.20 197.70 231.78 196.64 232.33 C 195.59 232.87 195.18 234.16 195.72 235.21 Z M 196.16 235.98 L 196.62 236.88 C 197.16 237.91 198.43 238.32 199.46 237.78 C 200.49 237.25 200.90 235.98 200.36 234.94 L 199.90 234.05 C 199.37 233.01 198.09 232.61 197.06 233.14 C 196.03 233.68 195.63 234.95 196.16 235.98 Z M 196.63 236.80 L 197.06 237.72 C 197.56 238.75 198.79 239.19 199.82 238.70 C 200.86 238.21 201.29 236.97 200.80 235.94 L 200.36 235.02 C 199.87 233.99 198.63 233.55 197.60 234.04 C 196.57 234.54 196.13 235.77 196.63 236.80 Z M 197.04 237.57 L 197.40 238.50 C 197.81 239.54 198.99 240.06 200.03 239.65 C 201.08 239.24 201.60 238.06 201.19 237.02 L 200.83 236.09 C 200.42 235.04 199.24 234.53 198.19 234.94 C 197.15 235.34 196.63 236.52 197.04 237.57 Z M 197.36 238.24 L 197.60 239.20 C 197.87 240.27 198.95 240.91 200.02 240.65 C 201.08 240.38 201.73 239.30 201.47 238.23 L 201.23 237.27 C 200.96 236.21 199.88 235.56 198.81 235.82 C 197.74 236.09 197.10 237.17 197.36 238.24 Z M 197.61 238.89 L 197.70 239.89 C 197.79 240.95 198.73 241.74 199.80 241.64 C 200.86 241.55 201.64 240.61 201.55 239.55 L 201.46 238.54 C 201.36 237.48 200.42 236.70 199.36 236.79 C 198.30 236.89 197.51 237.82 197.61 238.89 Z M 197.76 239.67 L 197.74 240.66 C 197.71 241.69 198.52 242.54 199.55 242.57 C 200.58 242.59 201.44 241.78 201.46 240.75 L 201.49 239.76 C 201.51 238.73 200.70 237.88 199.67 237.85 C 198.64 237.83 197.79 238.64 197.76 239.67 Z M 197.80 240.57 L 197.74 241.38 C 197.67 242.37 198.41 243.23 199.40 243.31 C 200.39 243.39 201.26 242.64 201.33 241.65 L 201.39 240.84 C 201.47 239.85 200.73 238.99 199.74 238.91 C 198.74 238.83 197.88 239.58 197.80 240.57 Z"
      fill="black"
      fill-rule="nonzero" /><path d="M 234.50 77.83 L 234.00 78.63 C 233.46 79.49 233.72 80.61 234.58 81.15 C 235.43 81.68 236.56 81.42 237.10 80.57 L 237.60 79.77 C 238.13 78.91 237.87 77.78 237.02 77.25 C 236.16 76.71 235.04 76.97 234.50 77.83 Z M 233.86 78.64 L 233.38 79.49 C 232.85 80.42 233.18 81.60 234.11 82.13 C 235.04 82.66 236.23 82.33 236.76 81.40 L 237.24 80.56 C 237.76 79.63 237.44 78.44 236.50 77.91 C 235.57 77.38 234.39 77.71 233.86 78.64 Z M 233.20 79.58 L 232.77 80.51 C 232.30 81.53 232.74 82.76 233.77 83.24 C 234.80 83.71 236.03 83.27 236.50 82.24 L 236.93 81.31 C 237.41 80.28 236.96 79.06 235.93 78.58 C 234.90 78.10 233.68 78.55 233.20 79.58 Z M 232.60 80.67 L 232.27 81.66 C 231.88 82.78 232.48 84.00 233.60 84.39 C 234.72 84.78 235.95 84.18 236.33 83.06 L 236.67 82.07 C 237.06 80.95 236.46 79.72 235.34 79.34 C 234.22 78.95 232.99 79.55 232.60 80.67 Z M 232.17 81.83 L 231.93 82.80 C 231.64 83.97 232.35 85.16 233.53 85.45 C 234.70 85.74 235.89 85.03 236.19 83.85 L 236.43 82.89 C 236.72 81.71 236.00 80.52 234.83 80.23 C 233.65 79.94 232.46 80.65 232.17 81.83 Z M 231.90 82.91 L 231.71 83.92 C 231.48 85.11 232.26 86.26 233.45 86.49 C 234.64 86.72 235.79 85.94 236.02 84.75 L 236.22 83.74 C 236.45 82.55 235.67 81.40 234.48 81.17 C 233.28 80.94 232.13 81.72 231.90 82.91 Z M 231.69 83.98 L 231.53 84.99 C 231.33 86.19 232.15 87.32 233.35 87.52 C 234.55 87.71 235.68 86.89 235.87 85.69 L 236.04 84.69 C 236.23 83.49 235.41 82.36 234.21 82.16 C 233.01 81.97 231.88 82.78 231.69 83.98 Z M 231.52 85.02 L 231.38 85.97 C 231.20 87.18 232.03 88.30 233.23 88.48 C 234.44 88.66 235.56 87.83 235.74 86.62 L 235.88 85.67 C 236.06 84.46 235.23 83.34 234.03 83.16 C 232.82 82.98 231.70 83.81 231.52 85.02 Z M 231.37 85.96 L 231.21 87.04 C 231.02 88.25 231.85 89.38 233.05 89.56 C 234.26 89.75 235.39 88.93 235.57 87.72 L 235.74 86.64 C 235.93 85.43 235.10 84.30 233.90 84.11 C 232.69 83.93 231.56 84.75 231.37 85.96 Z M 231.21 87.02 L 231.05 88.00 C 230.85 89.21 231.67 90.35 232.87 90.54 C 234.08 90.74 235.22 89.92 235.41 88.72 L 235.57 87.74 C 235.77 86.53 234.95 85.40 233.75 85.20 C 232.54 85.00 231.40 85.82 231.21 87.02 Z M 231.05 87.99 L 230.89 88.92 C 230.69 90.13 231.50 91.27 232.71 91.47 C 233.91 91.67 235.06 90.86 235.26 89.65 L 235.41 88.73 C 235.61 87.52 234.80 86.38 233.60 86.18 C 232.39 85.98 231.25 86.79 231.05 87.99 Z M 230.89 88.92 L 230.73 89.86 C 230.53 91.07 231.35 92.21 232.55 92.41 C 233.76 92.61 234.90 91.80 235.10 90.59 L 235.26 89.65 C 235.46 88.44 234.64 87.30 233.44 87.10 C 232.23 86.90 231.09 87.72 230.89 88.92 Z M 230.73 89.87 L 230.57 90.84 C 230.37 92.05 231.19 93.19 232.40 93.39 C 233.61 93.58 234.75 92.77 234.95 91.56 L 235.11 90.59 C 235.30 89.38 234.49 88.24 233.28 88.04 C 232.07 87.84 230.93 88.66 230.73 89.87 Z M 230.57 90.83 L 230.40 91.83 C 230.20 93.04 231.02 94.18 232.23 94.38 C 233.44 94.58 234.58 93.77 234.78 92.56 L 234.95 91.56 C 235.15 90.35 234.33 89.21 233.12 89.01 C 231.91 88.81 230.77 89.63 230.57 90.83 Z M 230.40 91.82 L 230.23 92.82 C 230.03 94.03 230.84 95.17 232.05 95.38 C 233.26 95.59 234.40 94.77 234.61 93.57 L 234.78 92.57 C 234.99 91.36 234.18 90.21 232.97 90.01 C 231.76 89.80 230.61 90.61 230.40 91.82 Z M 230.24 92.80 L 230.07 93.74 C 229.85 94.95 230.66 96.10 231.86 96.32 C 233.07 96.53 234.23 95.73 234.44 94.52 L 234.61 93.58 C 234.82 92.37 234.02 91.22 232.81 91.00 C 231.61 90.79 230.45 91.59 230.24 92.80 Z M 230.07 93.72 L 229.89 94.69 C 229.66 95.89 230.45 97.06 231.66 97.28 C 232.86 97.51 234.03 96.72 234.25 95.51 L 234.44 94.54 C 234.67 93.34 233.87 92.17 232.67 91.95 C 231.46 91.72 230.30 92.51 230.07 93.72 Z M 229.89 94.66 L 229.69 95.67 C 229.44 96.88 230.22 98.05 231.43 98.29 C 232.63 98.54 233.80 97.76 234.05 96.55 L 234.25 95.54 C 234.49 94.34 233.71 93.16 232.51 92.92 C 231.31 92.68 230.13 93.46 229.89 94.66 Z M 229.69 95.64 L 229.48 96.64 C 229.22 97.84 229.98 99.02 231.18 99.28 C 232.38 99.54 233.57 98.78 233.83 97.58 L 234.04 96.58 C 234.30 95.38 233.54 94.20 232.34 93.94 C 231.13 93.68 229.95 94.44 229.69 95.64 Z M 229.48 96.61 L 229.26 97.57 C 228.99 98.77 229.74 99.96 230.94 100.23 C 232.14 100.51 233.33 99.76 233.60 98.56 L 233.82 97.60 C 234.09 96.40 233.34 95.21 232.15 94.94 C 230.95 94.66 229.76 95.41 229.48 96.61 Z M 229.27 97.55 L 229.04 98.53 C 228.75 99.73 229.49 100.93 230.69 101.21 C 231.88 101.49 233.08 100.75 233.37 99.56 L 233.60 98.58 C 233.88 97.38 233.14 96.18 231.95 95.90 C 230.75 95.61 229.55 96.35 229.27 97.55 Z M 229.04 98.52 L 228.80 99.51 C 228.51 100.70 229.24 101.91 230.43 102.20 C 231.63 102.49 232.83 101.76 233.12 100.56 L 233.36 99.57 C 233.66 98.38 232.92 97.17 231.73 96.88 C 230.53 96.59 229.33 97.32 229.04 98.52 Z M 228.80 99.50 L 228.55 100.48 C 228.26 101.68 228.98 102.88 230.18 103.18 C 231.37 103.48 232.58 102.75 232.88 101.56 L 233.12 100.57 C 233.42 99.38 232.69 98.17 231.50 97.87 C 230.30 97.57 229.10 98.30 228.80 99.50 Z M 228.56 100.47 L 228.31 101.44 C 228.01 102.64 228.73 103.85 229.92 104.15 C 231.12 104.45 232.33 103.73 232.63 102.53 L 232.87 101.56 C 233.18 100.37 232.45 99.16 231.26 98.86 C 230.07 98.56 228.86 99.28 228.56 100.47 Z M 228.31 101.44 L 228.06 102.40 C 227.76 103.59 228.48 104.81 229.67 105.11 C 230.86 105.42 232.08 104.70 232.38 103.51 L 232.63 102.54 C 232.93 101.35 232.21 100.14 231.02 99.83 C 229.83 99.53 228.62 100.25 228.31 101.44 Z M 228.07 102.39 L 227.82 103.36 C 227.51 104.55 228.22 105.76 229.41 106.07 C 230.60 106.38 231.82 105.67 232.13 104.48 L 232.38 103.51 C 232.69 102.32 231.97 101.11 230.78 100.80 C 229.59 100.49 228.38 101.20 228.07 102.39 Z M 227.82 103.35 L 227.56 104.32 C 227.25 105.51 227.96 106.73 229.15 107.04 C 230.34 107.36 231.56 106.65 231.87 105.46 L 232.13 104.49 C 232.44 103.30 231.73 102.08 230.54 101.76 C 229.35 101.45 228.13 102.16 227.82 103.35 Z M 227.56 104.31 L 227.31 105.27 C 226.99 106.46 227.70 107.68 228.89 107.99 C 230.08 108.31 231.30 107.61 231.61 106.42 L 231.87 105.46 C 232.19 104.28 231.48 103.05 230.29 102.74 C 229.10 102.42 227.88 103.13 227.56 104.31 Z M 227.31 105.26 L 227.05 106.21 C 226.73 107.40 227.43 108.63 228.62 108.95 C 229.80 109.27 231.03 108.57 231.35 107.38 L 231.61 106.43 C 231.93 105.24 231.23 104.02 230.05 103.69 C 228.86 103.37 227.64 104.07 227.31 105.26 Z M 227.06 106.20 L 226.79 107.17 C 226.46 108.35 227.15 109.58 228.33 109.91 C 229.52 110.24 230.75 109.55 231.08 108.37 L 231.35 107.40 C 231.68 106.22 230.99 104.99 229.80 104.65 C 228.62 104.32 227.39 105.02 227.06 106.20 Z M 226.79 107.15 L 226.51 108.12 C 226.17 109.30 226.85 110.53 228.03 110.88 C 229.21 111.22 230.45 110.54 230.79 109.36 L 231.07 108.38 C 231.41 107.20 230.73 105.97 229.55 105.63 C 228.37 105.28 227.13 105.97 226.79 107.15 Z M 226.52 108.09 L 226.23 109.05 C 225.87 110.23 226.54 111.47 227.72 111.83 C 228.90 112.18 230.14 111.52 230.49 110.34 L 230.78 109.38 C 231.14 108.20 230.47 106.96 229.29 106.60 C 228.12 106.25 226.87 106.92 226.52 108.09 Z M 226.24 109.03 L 225.94 109.97 C 225.57 111.14 226.23 112.39 227.40 112.76 C 228.57 113.13 229.82 112.48 230.19 111.30 L 230.48 110.36 C 230.85 109.19 230.20 107.94 229.03 107.57 C 227.86 107.21 226.61 107.86 226.24 109.03 Z M 225.95 109.95 L 225.64 110.89 C 225.26 112.06 225.90 113.32 227.07 113.70 C 228.24 114.08 229.49 113.44 229.87 112.27 L 230.18 111.33 C 230.56 110.16 229.92 108.90 228.75 108.52 C 227.59 108.14 226.33 108.78 225.95 109.95 Z M 225.65 110.87 L 225.33 111.83 C 224.94 112.99 225.57 114.25 226.73 114.64 C 227.89 115.03 229.15 114.40 229.54 113.24 L 229.86 112.29 C 230.25 111.13 229.63 109.87 228.47 109.48 C 227.30 109.09 226.04 109.71 225.65 110.87 Z M 225.34 111.81 L 225.01 112.77 C 224.61 113.93 225.22 115.19 226.38 115.59 C 227.54 115.99 228.80 115.38 229.20 114.22 L 229.54 113.26 C 229.94 112.10 229.32 110.84 228.16 110.44 C 227.01 110.04 225.74 110.65 225.34 111.81 Z M 225.02 112.75 L 224.68 113.69 C 224.27 114.85 224.88 116.11 226.03 116.52 C 227.19 116.93 228.45 116.33 228.86 115.17 L 229.20 114.23 C 229.60 113.08 229.00 111.81 227.85 111.40 C 226.69 110.99 225.43 111.60 225.02 112.75 Z M 224.69 113.68 L 224.35 114.61 C 223.93 115.76 224.53 117.03 225.68 117.45 C 226.83 117.87 228.10 117.27 228.52 116.12 L 228.86 115.19 C 229.27 114.04 228.68 112.77 227.53 112.35 C 226.38 111.93 225.11 112.53 224.69 113.68 Z M 224.36 114.60 L 224.01 115.54 C 223.59 116.68 224.17 117.96 225.32 118.38 C 226.46 118.81 227.74 118.22 228.16 117.07 L 228.51 116.14 C 228.93 114.99 228.35 113.72 227.20 113.29 C 226.06 112.87 224.78 113.45 224.36 114.60 Z M 224.02 115.52 L 223.66 116.47 C 223.23 117.61 223.81 118.88 224.95 119.32 C 226.09 119.75 227.37 119.17 227.80 118.03 L 228.16 117.09 C 228.59 115.95 228.01 114.67 226.87 114.24 C 225.73 113.81 224.45 114.38 224.02 115.52 Z M 223.67 116.45 L 223.31 117.39 C 222.87 118.53 223.43 119.81 224.57 120.25 C 225.71 120.69 226.99 120.12 227.43 118.98 L 227.79 118.04 C 228.23 116.91 227.66 115.63 226.53 115.19 C 225.39 114.75 224.11 115.31 223.67 116.45 Z M 223.31 117.38 L 222.95 118.29 C 222.51 119.43 223.06 120.71 224.20 121.16 C 225.33 121.60 226.62 121.04 227.06 119.91 L 227.42 119.00 C 227.87 117.86 227.31 116.58 226.18 116.13 C 225.04 115.69 223.76 116.24 223.31 117.38 Z M 222.96 118.28 L 222.60 119.19 C 222.14 120.32 222.69 121.61 223.82 122.06 C 224.96 122.51 226.24 121.96 226.69 120.83 L 227.06 119.92 C 227.51 118.79 226.96 117.51 225.83 117.05 C 224.70 116.60 223.41 117.15 222.96 118.28 Z M 222.60 119.18 L 222.23 120.10 C 221.77 121.23 222.32 122.52 223.45 122.97 C 224.57 123.43 225.86 122.88 226.32 121.76 L 226.69 120.84 C 227.14 119.71 226.60 118.42 225.47 117.97 C 224.34 117.51 223.06 118.06 222.60 119.18 Z M 222.23 120.10 L 221.85 121.03 C 221.40 122.16 221.94 123.44 223.06 123.90 C 224.19 124.36 225.48 123.82 225.93 122.69 L 226.31 121.76 C 226.77 120.63 226.23 119.35 225.10 118.89 C 223.98 118.43 222.69 118.97 222.23 120.10 Z M 221.85 121.03 L 221.47 121.99 C 221.01 123.12 221.55 124.40 222.68 124.86 C 223.80 125.32 225.08 124.77 225.54 123.65 L 225.93 122.69 C 226.39 121.57 225.85 120.28 224.72 119.82 C 223.60 119.37 222.31 119.91 221.85 121.03 Z M 221.47 121.99 L 221.09 122.92 C 220.63 124.05 221.18 125.33 222.30 125.79 C 223.43 126.24 224.71 125.70 225.17 124.57 L 225.54 123.64 C 226.00 122.52 225.45 121.24 224.33 120.78 C 223.20 120.33 221.92 120.87 221.47 121.99 Z M 221.09 122.93 L 220.71 123.86 C 220.26 124.99 220.80 126.27 221.93 126.72 C 223.05 127.18 224.33 126.63 224.79 125.51 L 225.16 124.57 C 225.62 123.45 225.08 122.17 223.95 121.71 C 222.83 121.26 221.55 121.80 221.09 122.93 Z M 220.72 123.86 L 220.33 124.80 C 219.88 125.93 220.42 127.20 221.55 127.66 C 222.67 128.11 223.95 127.57 224.40 126.45 L 224.79 125.51 C 225.24 124.38 224.70 123.10 223.57 122.65 C 222.45 122.19 221.17 122.74 220.72 123.86 Z M 220.34 124.80 L 219.96 125.73 C 219.50 126.85 220.04 128.13 221.16 128.59 C 222.28 129.05 223.56 128.51 224.02 127.39 L 224.40 126.45 C 224.86 125.33 224.32 124.05 223.20 123.59 C 222.07 123.14 220.79 123.68 220.34 124.80 Z M 219.96 125.73 L 219.59 126.64 C 219.13 127.76 219.66 129.04 220.78 129.50 C 221.90 129.96 223.18 129.43 223.64 128.31 L 224.02 127.39 C 224.48 126.27 223.94 124.99 222.82 124.53 C 221.70 124.07 220.42 124.61 219.96 125.73 Z M 219.59 126.63 L 219.20 127.57 C 218.74 128.69 219.26 129.97 220.38 130.43 C 221.50 130.90 222.78 130.37 223.24 129.26 L 223.63 128.32 C 224.10 127.20 223.57 125.92 222.46 125.45 C 221.34 124.99 220.06 125.52 219.59 126.63 Z M 219.21 127.56 L 218.80 128.52 C 218.33 129.63 218.85 130.91 219.96 131.39 C 221.07 131.86 222.36 131.34 222.83 130.23 L 223.24 129.27 C 223.71 128.16 223.19 126.87 222.08 126.40 C 220.97 125.93 219.68 126.44 219.21 127.56 Z M 218.81 128.50 L 218.41 129.42 C 217.93 130.53 218.44 131.82 219.54 132.30 C 220.65 132.78 221.94 132.27 222.42 131.16 L 222.82 130.24 C 223.30 129.13 222.79 127.85 221.69 127.36 C 220.58 126.88 219.29 127.39 218.81 128.50 Z M 218.42 129.40 L 218.02 130.30 C 217.53 131.40 218.03 132.69 219.13 133.18 C 220.23 133.67 221.52 133.18 222.01 132.08 L 222.41 131.18 C 222.90 130.08 222.41 128.79 221.30 128.30 C 220.20 127.80 218.91 128.30 218.42 129.40 Z M 218.03 130.28 L 217.63 131.15 C 217.13 132.25 217.61 133.54 218.71 134.05 C 219.81 134.55 221.10 134.06 221.60 132.97 L 222.00 132.09 C 222.51 131.00 222.02 129.70 220.93 129.20 C 219.83 128.70 218.53 129.18 218.03 130.28 Z M 217.64 131.13 L 217.22 132.03 C 216.70 133.12 217.17 134.42 218.26 134.94 C 219.36 135.45 220.66 134.98 221.17 133.89 L 221.59 132.99 C 222.11 131.90 221.64 130.60 220.55 130.08 C 219.46 129.57 218.16 130.04 217.64 131.13 Z M 217.23 132.01 L 216.79 132.92 C 216.26 134.01 216.72 135.31 217.80 135.84 C 218.89 136.36 220.19 135.91 220.72 134.82 L 221.16 133.91 C 221.68 132.83 221.23 131.52 220.14 131.00 C 219.06 130.47 217.75 130.93 217.23 132.01 Z M 216.80 132.90 L 216.36 133.80 C 215.82 134.88 216.26 136.19 217.34 136.72 C 218.42 137.26 219.73 136.82 220.26 135.74 L 220.71 134.84 C 221.24 133.76 220.80 132.45 219.72 131.92 C 218.64 131.38 217.33 131.82 216.80 132.90 Z M 216.37 133.78 L 215.92 134.67 C 215.38 135.74 215.81 137.05 216.88 137.60 C 217.95 138.14 219.26 137.71 219.81 136.64 L 220.25 135.75 C 220.80 134.68 220.37 133.37 219.29 132.82 C 218.22 132.28 216.91 132.71 216.37 133.78 Z M 215.93 134.65 L 215.47 135.54 C 214.92 136.61 215.34 137.92 216.41 138.47 C 217.48 139.02 218.79 138.60 219.34 137.53 L 219.80 136.65 C 220.35 135.58 219.93 134.27 218.86 133.72 C 217.79 133.17 216.48 133.59 215.93 134.65 Z M 215.48 135.52 L 215.00 136.43 C 214.45 137.50 214.86 138.81 215.92 139.37 C 216.98 139.93 218.30 139.52 218.86 138.45 L 219.33 137.55 C 219.89 136.48 219.48 135.17 218.42 134.61 C 217.35 134.05 216.04 134.46 215.48 135.52 Z M 215.01 136.42 L 214.54 137.31 C 213.97 138.36 214.37 139.68 215.43 140.25 C 216.48 140.82 217.80 140.42 218.37 139.36 L 218.85 138.47 C 219.41 137.41 219.02 136.10 217.96 135.53 C 216.90 134.96 215.58 135.36 215.01 136.42 Z M 214.55 137.29 L 214.08 138.15 C 213.50 139.20 213.88 140.52 214.93 141.10 C 215.98 141.68 217.30 141.30 217.88 140.25 L 218.36 139.38 C 218.93 138.33 218.55 137.01 217.50 136.43 C 216.45 135.85 215.13 136.23 214.55 137.29 Z M 214.09 138.13 L 213.61 138.97 C 213.02 140.01 213.38 141.34 214.42 141.93 C 215.47 142.52 216.79 142.16 217.38 141.12 L 217.86 140.27 C 218.46 139.23 218.09 137.90 217.05 137.31 C 216.01 136.72 214.68 137.08 214.09 138.13 Z M 213.63 138.94 L 213.10 139.83 C 212.49 140.87 212.84 142.19 213.87 142.80 C 214.90 143.41 216.23 143.07 216.84 142.04 L 217.36 141.15 C 217.97 140.11 217.63 138.79 216.60 138.18 C 215.57 137.57 214.24 137.91 213.63 138.94 Z M 213.12 139.81 L 212.60 140.67 C 211.98 141.69 212.30 143.02 213.32 143.64 C 214.34 144.27 215.68 143.94 216.30 142.92 L 216.82 142.06 C 217.44 141.04 217.12 139.71 216.10 139.09 C 215.07 138.46 213.74 138.79 213.12 139.81 Z M 212.61 140.65 L 212.09 141.48 C 211.46 142.50 211.77 143.83 212.79 144.46 C 213.80 145.10 215.14 144.78 215.77 143.77 L 216.28 142.94 C 216.92 141.92 216.60 140.59 215.59 139.96 C 214.58 139.33 213.24 139.64 212.61 140.65 Z M 212.10 141.48 L 211.58 142.31 C 210.94 143.32 211.24 144.65 212.26 145.29 C 213.27 145.92 214.60 145.62 215.24 144.61 L 215.76 143.78 C 216.39 142.77 216.09 141.43 215.08 140.80 C 214.07 140.16 212.74 140.47 212.10 141.48 Z M 211.58 142.30 L 211.04 143.15 C 210.40 144.16 210.70 145.49 211.71 146.13 C 212.72 146.77 214.05 146.47 214.69 145.47 L 215.23 144.61 C 215.87 143.61 215.57 142.27 214.56 141.63 C 213.56 140.99 212.22 141.29 211.58 142.30 Z M 211.05 143.14 L 210.51 143.98 C 209.87 144.99 210.16 146.32 211.17 146.96 C 212.17 147.61 213.50 147.31 214.15 146.31 L 214.68 145.47 C 215.33 144.47 215.03 143.14 214.03 142.49 C 213.03 141.85 211.69 142.14 211.05 143.14 Z M 210.52 143.97 L 209.98 144.80 C 209.33 145.80 209.62 147.13 210.61 147.78 C 211.61 148.43 212.95 148.15 213.60 147.15 L 214.14 146.32 C 214.79 145.32 214.50 143.99 213.51 143.34 C 212.51 142.69 211.17 142.97 210.52 143.97 Z M 209.99 144.79 L 209.46 145.59 C 208.80 146.59 209.07 147.92 210.06 148.58 C 211.05 149.24 212.39 148.97 213.05 147.98 L 213.58 147.17 C 214.24 146.18 213.97 144.84 212.98 144.18 C 211.99 143.52 210.65 143.79 209.99 144.79 Z M 209.47 145.57 L 208.92 146.38 C 208.25 147.36 208.51 148.70 209.49 149.37 C 210.47 150.04 211.81 149.79 212.48 148.81 L 213.03 148.00 C 213.70 147.02 213.45 145.68 212.47 145.01 C 211.48 144.34 210.14 144.59 209.47 145.57 Z M 208.94 146.36 L 208.36 147.18 C 207.68 148.15 207.91 149.49 208.88 150.18 C 209.85 150.86 211.19 150.63 211.88 149.66 L 212.46 148.83 C 213.14 147.86 212.91 146.52 211.94 145.84 C 210.97 145.15 209.63 145.39 208.94 146.36 Z M 208.39 147.15 L 207.77 147.98 C 207.07 148.94 207.28 150.28 208.23 150.99 C 209.19 151.69 210.53 151.48 211.24 150.53 L 211.85 149.69 C 212.55 148.74 212.35 147.39 211.39 146.69 C 210.43 145.99 209.09 146.19 208.39 147.15 Z M 207.80 147.95 L 207.19 148.75 C 206.47 149.70 206.65 151.04 207.59 151.76 C 208.53 152.48 209.88 152.30 210.60 151.36 L 211.21 150.56 C 211.93 149.62 211.75 148.27 210.81 147.55 C 209.87 146.83 208.52 147.01 207.80 147.95 Z M 207.21 148.73 L 206.58 149.53 C 205.85 150.46 206.01 151.81 206.94 152.54 C 207.87 153.27 209.21 153.11 209.95 152.18 L 210.58 151.38 C 211.31 150.45 211.15 149.11 210.22 148.37 C 209.29 147.64 207.94 147.80 207.21 148.73 Z M 206.60 149.51 L 205.97 150.29 C 205.23 151.21 205.37 152.55 206.29 153.30 C 207.20 154.04 208.55 153.90 209.29 152.98 L 209.92 152.20 C 210.67 151.29 210.53 149.94 209.61 149.19 C 208.69 148.45 207.34 148.59 206.60 149.51 Z M 205.99 150.27 L 205.36 151.03 C 204.60 151.94 204.72 153.29 205.63 154.04 C 206.54 154.79 207.88 154.67 208.64 153.76 L 209.27 153.00 C 210.03 152.09 209.90 150.75 209.00 149.99 C 208.09 149.24 206.74 149.36 205.99 150.27 Z M 205.38 151.01 L 204.71 151.80 C 203.94 152.69 204.04 154.04 204.94 154.80 C 205.83 155.57 207.18 155.46 207.94 154.57 L 208.62 153.79 C 209.38 152.89 209.28 151.54 208.38 150.78 C 207.49 150.01 206.14 150.12 205.38 151.01 Z M 204.73 151.77 L 204.08 152.51 C 203.30 153.39 203.38 154.74 204.27 155.52 C 205.15 156.29 206.49 156.21 207.27 155.33 L 207.92 154.59 C 208.70 153.71 208.62 152.36 207.73 151.59 C 206.85 150.81 205.51 150.89 204.73 151.77 Z M 204.10 152.49 L 203.45 153.21 C 202.66 154.08 202.73 155.42 203.60 156.21 C 204.47 157.00 205.81 156.93 206.60 156.06 L 207.25 155.35 C 208.04 154.48 207.97 153.13 207.10 152.35 C 206.23 151.56 204.89 151.62 204.10 152.49 Z M 203.47 153.20 L 202.85 153.87 C 202.05 154.73 202.10 156.07 202.96 156.87 C 203.83 157.66 205.17 157.61 205.96 156.75 L 206.58 156.08 C 207.38 155.22 207.32 153.88 206.46 153.08 C 205.60 152.28 204.26 152.34 203.47 153.20 Z M 202.86 153.86 L 202.21 154.54 C 201.41 155.40 201.45 156.74 202.31 157.54 C 203.16 158.34 204.50 158.30 205.30 157.45 L 205.95 156.76 C 206.75 155.91 206.71 154.57 205.86 153.76 C 205.01 152.96 203.66 153.00 202.86 153.86 Z M 202.23 154.53 L 201.52 155.27 C 200.71 156.11 200.74 157.45 201.59 158.26 C 202.43 159.07 203.77 159.04 204.58 158.20 L 205.29 157.46 C 206.10 156.62 206.07 155.28 205.22 154.47 C 204.38 153.66 203.04 153.69 202.23 154.53 Z M 201.53 155.26 L 200.76 156.06 C 199.94 156.89 199.96 158.23 200.80 159.05 C 201.63 159.86 202.97 159.85 203.79 159.01 L 204.57 158.21 C 205.38 157.37 205.36 156.03 204.53 155.22 C 203.69 154.40 202.35 154.42 201.53 155.26 Z M 200.74 156.05 L 200.03 156.78 C 199.21 157.62 199.23 158.98 200.08 159.80 C 200.93 160.62 202.28 160.60 203.10 159.75 L 203.81 159.02 C 204.63 158.17 204.61 156.82 203.76 156.00 C 202.91 155.18 201.56 155.20 200.74 156.05 Z M 199.95 156.81 L 199.25 157.58 C 198.45 158.47 198.52 159.85 199.41 160.65 C 200.30 161.45 201.67 161.38 202.48 160.49 L 203.18 159.72 C 203.98 158.83 203.91 157.45 203.02 156.65 C 202.13 155.85 200.76 155.92 199.95 156.81 Z M 199.12 157.69 L 198.49 158.50 C 197.75 159.46 197.93 160.85 198.89 161.59 C 199.85 162.34 201.24 162.16 201.98 161.20 L 202.61 160.39 C 203.35 159.43 203.18 158.04 202.21 157.29 C 201.25 156.55 199.87 156.73 199.12 157.69 Z M 198.30 158.72 L 197.82 159.54 C 197.20 160.61 197.56 161.99 198.63 162.61 C 199.70 163.23 201.07 162.87 201.70 161.80 L 202.18 160.98 C 202.80 159.91 202.44 158.53 201.37 157.91 C 200.30 157.29 198.92 157.65 198.30 158.72 Z M 197.59 159.99 L 197.31 160.88 C 196.93 162.08 197.60 163.36 198.80 163.73 C 200.00 164.11 201.28 163.44 201.65 162.24 L 201.93 161.35 C 202.31 160.15 201.64 158.88 200.44 158.50 C 199.24 158.12 197.96 158.79 197.59 159.99 Z M 197.17 161.52 L 197.16 162.47 C 197.14 163.74 198.15 164.79 199.43 164.82 C 200.70 164.84 201.75 163.82 201.77 162.55 L 201.79 161.60 C 201.81 160.33 200.79 159.28 199.52 159.26 C 198.24 159.24 197.20 160.25 197.17 161.52 Z M 197.19 163.02 L 197.40 163.98 C 197.69 165.23 198.94 166.02 200.19 165.74 C 201.45 165.45 202.24 164.20 201.96 162.95 L 201.74 161.99 C 201.46 160.74 200.21 159.95 198.95 160.23 C 197.69 160.52 196.90 161.77 197.19 163.02 Z M 197.48 164.33 L 197.86 165.30 C 198.34 166.51 199.72 167.10 200.93 166.62 C 202.15 166.14 202.74 164.77 202.26 163.55 L 201.88 162.59 C 201.40 161.38 200.02 160.78 198.81 161.26 C 197.59 161.74 197.00 163.12 197.48 164.33 Z M 197.92 165.48 L 198.36 166.38 C 198.95 167.57 200.38 168.06 201.56 167.47 C 202.75 166.89 203.23 165.46 202.65 164.28 L 202.21 163.37 C 201.62 162.19 200.19 161.70 199.01 162.28 C 197.82 162.86 197.34 164.29 197.92 165.48 Z M 198.39 166.48 L 198.86 167.34 C 199.50 168.51 200.96 168.94 202.12 168.30 C 203.29 167.67 203.72 166.21 203.09 165.04 L 202.62 164.18 C 201.99 163.02 200.53 162.58 199.36 163.22 C 198.19 163.85 197.76 165.31 198.39 166.48 Z M 198.89 167.40 L 199.39 168.27 C 200.06 169.43 201.54 169.82 202.69 169.15 C 203.85 168.48 204.24 167.00 203.57 165.85 L 203.06 164.98 C 202.39 163.83 200.92 163.43 199.76 164.10 C 198.61 164.77 198.22 166.25 198.89 167.40 Z M 199.41 168.32 L 199.94 169.19 C 200.63 170.34 202.12 170.70 203.27 170.01 C 204.41 169.31 204.78 167.82 204.08 166.67 L 203.55 165.80 C 202.86 164.66 201.36 164.29 200.22 164.99 C 199.07 165.68 198.71 167.18 199.41 168.32 Z M 199.94 169.23 L 200.48 170.09 C 201.20 171.23 202.70 171.58 203.85 170.86 C 204.99 170.15 205.33 168.64 204.62 167.50 L 204.07 166.64 C 203.36 165.50 201.86 165.15 200.71 165.87 C 199.57 166.58 199.23 168.09 199.94 169.23 Z M 200.49 170.11 L 201.01 170.93 C 201.74 172.07 203.25 172.40 204.39 171.68 C 205.53 170.95 205.86 169.44 205.14 168.30 L 204.61 167.48 C 203.89 166.34 202.38 166.01 201.24 166.73 C 200.10 167.46 199.76 168.97 200.49 170.11 Z M 201.01 170.94 L 201.54 171.76 C 202.27 172.90 203.79 173.22 204.93 172.49 C 206.06 171.76 206.39 170.24 205.66 169.10 L 205.13 168.29 C 204.40 167.15 202.88 166.82 201.74 167.56 C 200.61 168.29 200.28 169.81 201.01 170.94 Z M 201.54 171.77 L 202.08 172.60 C 202.83 173.73 204.35 174.05 205.48 173.31 C 206.62 172.57 206.93 171.05 206.19 169.92 L 205.65 169.09 C 204.91 167.95 203.39 167.64 202.26 168.38 C 201.12 169.12 200.80 170.64 201.54 171.77 Z M 202.09 172.61 L 202.65 173.46 C 203.40 174.59 204.92 174.91 206.05 174.16 C 207.19 173.41 207.50 171.89 206.75 170.76 L 206.19 169.90 C 205.44 168.77 203.92 168.46 202.79 169.21 C 201.65 169.95 201.34 171.48 202.09 172.61 Z M 202.65 173.47 L 203.23 174.35 C 203.99 175.48 205.51 175.79 206.65 175.04 C 207.78 174.28 208.09 172.76 207.33 171.62 L 206.75 170.75 C 206.00 169.61 204.47 169.31 203.34 170.06 C 202.20 170.81 201.90 172.34 202.65 173.47 Z M 203.23 174.36 L 203.80 175.21 C 204.56 176.34 206.09 176.64 207.22 175.88 C 208.35 175.13 208.66 173.60 207.90 172.46 L 207.33 171.62 C 206.57 170.48 205.04 170.18 203.91 170.94 C 202.78 171.69 202.48 173.23 203.23 174.36 Z M 203.81 175.21 L 204.39 176.07 C 205.15 177.20 206.68 177.50 207.81 176.74 C 208.94 175.98 209.24 174.45 208.48 173.32 L 207.90 172.46 C 207.14 171.33 205.60 171.03 204.47 171.79 C 203.34 172.55 203.04 174.08 203.81 175.21 Z M 204.39 176.08 L 204.97 176.94 C 205.73 178.06 207.27 178.36 208.40 177.59 C 209.52 176.83 209.82 175.29 209.05 174.16 L 208.47 173.31 C 207.71 172.18 206.17 171.89 205.05 172.65 C 203.92 173.42 203.62 174.96 204.39 176.08 Z M 204.97 176.95 L 205.54 177.77 C 206.31 178.89 207.84 179.18 208.97 178.41 C 210.09 177.64 210.38 176.10 209.61 174.97 L 209.05 174.15 C 208.28 173.03 206.74 172.74 205.61 173.51 C 204.49 174.28 204.20 175.82 204.97 176.95 Z M 205.54 177.78 L 206.07 178.54 C 206.85 179.67 208.39 179.94 209.51 179.17 C 210.64 178.39 210.91 176.85 210.13 175.72 L 209.60 174.96 C 208.82 173.84 207.28 173.56 206.16 174.34 C 205.04 175.12 204.76 176.66 205.54 177.78 Z M 206.09 178.56 L 206.73 179.47 C 207.52 180.59 209.06 180.85 210.18 180.06 C 211.29 179.27 211.55 177.73 210.76 176.61 L 210.12 175.71 C 209.33 174.59 207.79 174.33 206.67 175.12 C 205.56 175.91 205.30 177.45 206.09 178.56 Z M 206.74 179.49 L 207.35 180.32 C 208.15 181.43 209.70 181.67 210.80 180.87 C 211.91 180.07 212.15 178.52 211.35 177.42 L 210.75 176.59 C 209.94 175.48 208.40 175.24 207.29 176.04 C 206.19 176.84 205.94 178.39 206.74 179.49 Z M 207.36 180.35 L 207.92 181.10 C 208.73 182.20 210.29 182.42 211.38 181.61 C 212.48 180.79 212.71 179.24 211.89 178.15 L 211.33 177.39 C 210.52 176.30 208.97 176.07 207.87 176.88 C 206.77 177.70 206.55 179.25 207.36 180.35 Z M 207.93 181.11 L 208.48 181.84 C 209.30 182.93 210.85 183.15 211.94 182.32 C 213.04 181.50 213.25 179.95 212.43 178.86 L 211.88 178.13 C 211.06 177.04 209.51 176.82 208.42 177.64 C 207.32 178.47 207.11 180.02 207.93 181.11 Z M 208.48 181.84 L 209.07 182.62 C 209.89 183.71 211.44 183.92 212.54 183.10 C 213.63 182.27 213.84 180.72 213.02 179.63 L 212.43 178.85 C 211.60 177.76 210.05 177.55 208.96 178.37 C 207.87 179.20 207.65 180.75 208.48 181.84 Z M 209.06 182.61 L 209.66 183.41 C 210.48 184.50 212.04 184.72 213.13 183.89 C 214.22 183.07 214.44 181.52 213.62 180.43 L 213.02 179.63 C 212.20 178.54 210.64 178.32 209.55 179.14 C 208.46 179.97 208.24 181.52 209.06 182.61 Z M 209.65 183.40 L 210.26 184.21 C 211.08 185.31 212.63 185.54 213.73 184.72 C 214.83 183.90 215.05 182.35 214.23 181.25 L 213.63 180.44 C 212.81 179.34 211.25 179.11 210.16 179.93 C 209.06 180.75 208.83 182.30 209.65 183.40 Z M 210.25 184.20 L 210.84 185.00 C 211.65 186.11 213.20 186.34 214.30 185.54 C 215.41 184.73 215.64 183.18 214.84 182.07 L 214.25 181.27 C 213.44 180.16 211.89 179.92 210.78 180.73 C 209.68 181.54 209.44 183.09 210.25 184.20 Z M 210.83 184.99 L 211.40 185.78 C 212.21 186.89 213.76 187.14 214.86 186.34 C 215.97 185.54 216.22 183.99 215.42 182.88 L 214.84 182.08 C 214.04 180.97 212.49 180.73 211.38 181.53 C 210.27 182.33 210.03 183.88 210.83 184.99 Z M 211.40 185.78 L 211.99 186.60 C 212.79 187.71 214.34 187.96 215.45 187.16 C 216.56 186.35 216.81 184.81 216.01 183.69 L 215.42 182.88 C 214.62 181.77 213.07 181.52 211.96 182.32 C 210.85 183.12 210.60 184.67 211.40 185.78 Z M 211.99 186.60 L 212.59 187.43 C 213.40 188.54 214.95 188.79 216.06 187.98 C 217.17 187.18 217.41 185.63 216.61 184.52 L 216.00 183.69 C 215.20 182.58 213.65 182.33 212.54 183.14 C 211.43 183.94 211.19 185.49 211.99 186.60 Z M 212.60 187.44 L 213.19 188.23 C 214.00 189.34 215.55 189.57 216.65 188.76 C 217.75 187.95 217.99 186.40 217.18 185.29 L 216.60 184.50 C 215.79 183.40 214.23 183.17 213.13 183.98 C 212.03 184.79 211.79 186.34 212.60 187.44 Z M 213.19 188.24 L 213.77 189.02 C 214.59 190.12 216.14 190.35 217.24 189.53 C 218.34 188.72 218.57 187.16 217.75 186.06 L 217.17 185.28 C 216.36 184.19 214.80 183.96 213.70 184.77 C 212.60 185.59 212.37 187.14 213.19 188.24 Z M 213.77 189.02 L 214.36 189.82 C 215.18 190.92 216.73 191.15 217.83 190.34 C 218.93 189.52 219.16 187.97 218.35 186.87 L 217.75 186.07 C 216.94 184.97 215.38 184.73 214.28 185.55 C 213.18 186.37 212.95 187.92 213.77 189.02 Z M 214.35 189.81 L 214.96 190.64 C 215.77 191.74 217.32 191.99 218.43 191.18 C 219.53 190.37 219.77 188.82 218.96 187.71 L 218.36 186.88 C 217.55 185.77 216.00 185.53 214.89 186.34 C 213.78 187.15 213.54 188.70 214.35 189.81 Z M 214.95 190.62 L 215.54 191.45 C 216.34 192.56 217.89 192.82 219.00 192.02 C 220.11 191.22 220.37 189.67 219.57 188.56 L 218.98 187.73 C 218.18 186.62 216.63 186.36 215.52 187.16 C 214.41 187.96 214.15 189.50 214.95 190.62 Z M 215.53 191.43 L 216.09 192.24 C 216.88 193.36 218.42 193.63 219.54 192.84 C 220.67 192.06 220.94 190.51 220.15 189.39 L 219.59 188.58 C 218.80 187.46 217.25 187.19 216.13 187.97 C 215.01 188.76 214.74 190.31 215.53 191.43 Z M 216.08 192.22 L 216.65 193.05 C 217.43 194.18 218.97 194.46 220.10 193.68 C 221.23 192.91 221.51 191.36 220.73 190.24 L 220.16 189.41 C 219.39 188.28 217.84 188.00 216.72 188.77 C 215.59 189.55 215.31 191.09 216.08 192.22 Z M 216.65 193.04 L 217.22 193.88 C 217.99 195.01 219.53 195.30 220.66 194.53 C 221.79 193.75 222.08 192.21 221.31 191.08 L 220.74 190.25 C 219.97 189.12 218.43 188.82 217.30 189.60 C 216.17 190.37 215.88 191.91 216.65 193.04 Z M 217.22 193.87 L 217.78 194.70 C 218.55 195.84 220.09 196.13 221.22 195.36 C 222.35 194.59 222.65 193.05 221.88 191.92 L 221.31 191.09 C 220.55 189.96 219.01 189.66 217.87 190.43 C 216.74 191.20 216.45 192.74 217.22 193.87 Z M 217.78 194.70 L 218.35 195.54 C 219.12 196.68 220.66 196.97 221.79 196.20 C 222.92 195.44 223.22 193.90 222.45 192.77 L 221.88 191.92 C 221.11 190.79 219.57 190.50 218.44 191.26 C 217.31 192.03 217.01 193.57 217.78 194.70 Z M 218.35 195.54 L 218.92 196.38 C 219.68 197.51 221.22 197.81 222.35 197.04 C 223.49 196.28 223.78 194.74 223.02 193.61 L 222.45 192.77 C 221.69 191.64 220.15 191.34 219.02 192.10 C 217.88 192.87 217.59 194.41 218.35 195.54 Z M 218.91 196.37 L 219.47 197.20 C 220.23 198.33 221.77 198.63 222.90 197.87 C 224.04 197.11 224.34 195.57 223.58 194.44 L 223.02 193.61 C 222.26 192.48 220.72 192.18 219.59 192.94 C 218.45 193.70 218.15 195.24 218.91 196.37 Z M 219.46 197.19 L 220.01 198.01 C 220.76 199.15 222.30 199.46 223.44 198.70 C 224.57 197.95 224.88 196.41 224.13 195.27 L 223.58 194.45 C 222.83 193.31 221.29 193.00 220.16 193.76 C 219.02 194.51 218.71 196.05 219.46 197.19 Z M 220.00 197.99 L 220.54 198.82 C 221.29 199.96 222.82 200.28 223.96 199.54 C 225.10 198.79 225.42 197.26 224.68 196.12 L 224.14 195.29 C 223.39 194.15 221.86 193.83 220.72 194.57 C 219.57 195.32 219.25 196.85 220.00 197.99 Z M 220.53 198.80 L 221.07 199.64 C 221.80 200.79 223.33 201.12 224.48 200.39 C 225.63 199.65 225.96 198.12 225.23 196.97 L 224.69 196.13 C 223.95 194.99 222.42 194.65 221.28 195.39 C 220.13 196.12 219.79 197.65 220.53 198.80 Z M 221.06 199.62 L 221.59 200.47 C 222.31 201.62 223.84 201.97 224.99 201.24 C 226.14 200.52 226.49 198.99 225.77 197.84 L 225.24 196.99 C 224.51 195.84 222.99 195.49 221.83 196.22 C 220.68 196.94 220.33 198.47 221.06 199.62 Z M 221.58 200.44 L 222.10 201.30 C 222.82 202.46 224.34 202.82 225.50 202.10 C 226.65 201.39 227.02 199.87 226.30 198.71 L 225.78 197.86 C 225.06 196.70 223.54 196.34 222.39 197.05 C 221.23 197.77 220.87 199.29 221.58 200.44 Z M 222.10 201.28 L 222.61 202.14 C 223.32 203.30 224.83 203.67 225.99 202.97 C 227.16 202.27 227.53 200.75 226.83 199.59 L 226.31 198.73 C 225.61 197.57 224.09 197.19 222.93 197.90 C 221.77 198.60 221.39 200.11 222.10 201.28 Z M 222.61 202.12 L 223.11 202.97 C 223.81 204.14 225.31 204.53 226.48 203.84 C 227.65 203.15 228.04 201.64 227.35 200.47 L 226.84 199.61 C 226.15 198.44 224.64 198.05 223.47 198.75 C 222.30 199.44 221.91 200.95 222.61 202.12 Z M 223.11 202.95 L 223.61 203.82 C 224.29 204.99 225.79 205.39 226.96 204.71 C 228.14 204.03 228.54 202.53 227.85 201.35 L 227.35 200.49 C 226.67 199.32 225.17 198.92 224.00 199.60 C 222.82 200.28 222.43 201.78 223.11 202.95 Z M 223.60 203.80 L 224.09 204.67 C 224.76 205.84 226.26 206.26 227.44 205.59 C 228.61 204.92 229.03 203.42 228.36 202.24 L 227.86 201.37 C 227.19 200.20 225.70 199.78 224.52 200.45 C 223.34 201.12 222.93 202.62 223.60 203.80 Z M 224.08 204.65 L 224.57 205.52 C 225.23 206.70 226.72 207.13 227.90 206.47 C 229.09 205.81 229.51 204.32 228.85 203.14 L 228.36 202.26 C 227.71 201.08 226.21 200.66 225.03 201.31 C 223.85 201.97 223.43 203.46 224.08 204.65 Z M 224.57 205.50 L 225.05 206.38 C 225.69 207.57 227.18 208.00 228.37 207.36 C 229.55 206.71 229.99 205.22 229.34 204.04 L 228.86 203.16 C 228.21 201.97 226.73 201.54 225.54 202.18 C 224.35 202.83 223.92 204.32 224.57 205.50 Z M 225.04 206.36 L 225.51 207.25 C 226.15 208.44 227.63 208.89 228.82 208.25 C 230.01 207.61 230.46 206.14 229.82 204.95 L 229.35 204.06 C 228.71 202.87 227.23 202.42 226.04 203.06 C 224.85 203.69 224.40 205.17 225.04 206.36 Z M 225.51 207.23 L 225.97 208.12 C 226.60 209.31 228.07 209.77 229.27 209.15 C 230.46 208.52 230.92 207.05 230.29 205.86 L 229.83 204.97 C 229.20 203.77 227.73 203.31 226.54 203.94 C 225.34 204.56 224.88 206.04 225.51 207.23 Z M 225.97 208.10 L 226.43 208.99 C 227.04 210.19 228.51 210.66 229.70 210.04 C 230.90 209.43 231.37 207.96 230.76 206.77 L 230.30 205.88 C 229.69 204.68 228.22 204.21 227.02 204.82 C 225.83 205.44 225.36 206.90 225.97 208.10 Z M 226.42 208.97 L 226.87 209.86 C 227.47 211.06 228.93 211.54 230.13 210.94 C 231.33 210.33 231.81 208.87 231.21 207.68 L 230.76 206.79 C 230.16 205.59 228.70 205.11 227.50 205.71 C 226.30 206.31 225.82 207.77 226.42 208.97 Z M 226.86 209.84 L 227.30 210.73 C 227.89 211.93 229.34 212.42 230.55 211.83 C 231.75 211.24 232.24 209.79 231.65 208.59 L 231.21 207.70 C 230.62 206.50 229.17 206.00 227.97 206.59 C 226.77 207.18 226.27 208.64 226.86 209.84 Z M 227.29 210.71 L 227.72 211.60 C 228.30 212.80 229.75 213.31 230.95 212.73 C 232.16 212.15 232.67 210.71 232.09 209.50 L 231.66 208.61 C 231.08 207.40 229.63 206.90 228.43 207.48 C 227.22 208.05 226.72 209.50 227.29 210.71 Z M 227.72 211.58 L 228.14 212.47 C 228.71 213.68 230.14 214.20 231.35 213.64 C 232.56 213.07 233.08 211.63 232.51 210.43 L 232.09 209.53 C 231.53 208.32 230.09 207.80 228.88 208.36 C 227.67 208.93 227.15 210.37 227.72 211.58 Z M 228.13 212.45 L 228.55 213.36 C 229.10 214.57 230.53 215.11 231.74 214.55 C 232.95 214.00 233.49 212.57 232.93 211.36 L 232.52 210.45 C 231.97 209.24 230.54 208.71 229.33 209.26 C 228.12 209.81 227.58 211.24 228.13 212.45 Z M 228.54 213.34 L 228.96 214.26 C 229.49 215.48 230.91 216.03 232.13 215.49 C 233.34 214.95 233.89 213.53 233.35 212.31 L 232.94 211.39 C 232.40 210.17 230.98 209.62 229.77 210.16 C 228.55 210.70 228.00 212.12 228.54 213.34 Z M 228.95 214.24 L 229.36 215.18 C 229.88 216.40 231.29 216.96 232.51 216.43 C 233.73 215.91 234.29 214.49 233.76 213.28 L 233.36 212.34 C 232.83 211.12 231.42 210.56 230.20 211.09 C 228.99 211.61 228.42 213.02 228.95 214.24 Z M 229.35 215.16 L 229.75 216.10 C 230.26 217.32 231.67 217.89 232.89 217.38 C 234.11 216.87 234.68 215.46 234.16 214.24 L 233.77 213.30 C 233.25 212.08 231.85 211.51 230.63 212.02 C 229.41 212.53 228.84 213.94 229.35 215.16 Z M 229.75 216.08 L 230.13 217.02 C 230.63 218.24 232.03 218.82 233.25 218.32 C 234.47 217.82 235.05 216.42 234.55 215.20 L 234.17 214.27 C 233.67 213.04 232.27 212.46 231.05 212.96 C 229.83 213.46 229.24 214.86 229.75 216.08 Z M 230.13 217.00 L 230.49 217.90 C 230.98 219.13 232.37 219.72 233.59 219.23 C 234.82 218.74 235.41 217.35 234.92 216.13 L 234.56 215.22 C 234.07 214.00 232.68 213.40 231.45 213.89 C 230.23 214.39 229.64 215.77 230.13 217.00 Z M 230.49 217.88 L 230.86 218.83 C 231.33 220.05 232.71 220.66 233.94 220.18 C 235.16 219.70 235.77 218.32 235.29 217.10 L 234.92 216.15 C 234.45 214.93 233.06 214.32 231.84 214.80 C 230.61 215.27 230.01 216.66 230.49 217.88 Z M 230.85 218.80 L 231.23 219.79 C 231.69 221.02 233.06 221.64 234.29 221.17 C 235.51 220.71 236.13 219.34 235.67 218.11 L 235.30 217.12 C 234.83 215.90 233.46 215.28 232.23 215.74 C 231.01 216.20 230.39 217.58 230.85 218.80 Z M 231.22 219.77 L 231.56 220.69 C 232.02 221.92 233.38 222.55 234.61 222.10 C 235.83 221.64 236.46 220.28 236.01 219.05 L 235.67 218.13 C 235.22 216.90 233.86 216.28 232.63 216.73 C 231.40 217.18 230.77 218.54 231.22 219.77 Z M 231.57 220.68 L 231.88 221.55 C 232.33 222.78 233.68 223.41 234.91 222.97 C 236.14 222.52 236.77 221.17 236.33 219.94 L 236.01 219.07 C 235.56 217.84 234.21 217.21 232.98 217.65 C 231.75 218.10 231.12 219.45 231.57 220.68 Z M 231.89 221.55 L 232.20 222.41 C 232.64 223.64 233.99 224.27 235.22 223.83 C 236.44 223.39 237.08 222.04 236.63 220.81 L 236.32 219.95 C 235.88 218.72 234.53 218.09 233.30 218.53 C 232.08 218.97 231.45 220.32 231.89 221.55 Z M 232.20 222.40 L 232.52 223.29 C 232.96 224.51 234.30 225.15 235.52 224.71 C 236.75 224.28 237.38 222.93 236.95 221.71 L 236.63 220.82 C 236.20 219.60 234.85 218.96 233.63 219.40 C 232.41 219.83 231.77 221.18 232.20 222.40 Z M 232.52 223.26 L 232.85 224.22 C 233.27 225.45 234.61 226.10 235.83 225.67 C 237.05 225.25 237.70 223.92 237.28 222.69 L 236.95 221.73 C 236.53 220.51 235.19 219.86 233.97 220.28 C 232.74 220.71 232.10 222.04 232.52 223.26 Z M 232.85 224.19 L 233.19 225.22 C 233.59 226.44 234.92 227.10 236.14 226.70 C 237.37 226.29 238.03 224.97 237.62 223.74 L 237.28 222.72 C 236.88 221.50 235.55 220.83 234.33 221.24 C 233.10 221.65 232.44 222.97 232.85 224.19 Z M 233.18 225.19 L 233.47 226.08 C 233.86 227.31 235.18 227.98 236.40 227.58 C 237.63 227.19 238.30 225.88 237.91 224.65 L 237.62 223.76 C 237.23 222.54 235.92 221.87 234.69 222.26 C 233.46 222.65 232.79 223.97 233.18 225.19 Z M 233.47 226.07 L 233.77 227.02 C 234.16 228.24 235.47 228.92 236.69 228.53 C 237.92 228.14 238.60 226.84 238.21 225.61 L 237.91 224.66 C 237.52 223.44 236.21 222.76 234.99 223.15 C 233.76 223.54 233.08 224.84 233.47 226.07 Z M 233.78 227.01 L 234.09 228.00 C 234.47 229.22 235.77 229.90 237.00 229.51 C 238.22 229.13 238.90 227.83 238.51 226.60 L 238.20 225.62 C 237.82 224.40 236.52 223.72 235.29 224.10 C 234.07 224.49 233.39 225.79 233.78 227.01 Z M 234.09 228.00 L 234.41 228.99 C 234.79 230.21 236.09 230.89 237.31 230.50 C 238.53 230.12 239.21 228.82 238.82 227.60 L 238.51 226.60 C 238.12 225.38 236.82 224.71 235.60 225.09 C 234.38 225.48 233.71 226.78 234.09 228.00 Z M 234.41 229.00 L 234.73 230.00 C 235.12 231.21 236.42 231.88 237.63 231.50 C 238.85 231.11 239.52 229.81 239.13 228.59 L 238.81 227.59 C 238.43 226.38 237.13 225.71 235.91 226.10 C 234.70 226.48 234.03 227.78 234.41 229.00 Z M 234.75 230.00 L 235.07 231.01 C 235.46 232.22 236.76 232.88 237.97 232.49 C 239.18 232.09 239.84 230.80 239.45 229.59 L 239.12 228.59 C 238.73 227.38 237.43 226.72 236.22 227.11 C 235.02 227.50 234.35 228.80 234.75 230.00 Z M 235.09 231.02 L 235.41 231.98 C 235.80 233.18 237.10 233.83 238.29 233.44 C 239.49 233.04 240.14 231.75 239.75 230.55 L 239.43 229.58 C 239.03 228.38 237.74 227.73 236.54 228.13 C 235.34 228.52 234.69 229.82 235.09 231.02 Z M 235.42 231.99 L 235.74 232.92 C 236.14 234.11 237.43 234.75 238.62 234.35 C 239.81 233.95 240.45 232.66 240.05 231.47 L 239.73 230.54 C 239.33 229.35 238.04 228.71 236.85 229.11 C 235.66 229.51 235.02 230.80 235.42 231.99 Z M 235.75 232.93 L 236.06 233.82 C 236.47 235.00 237.75 235.63 238.93 235.22 C 240.11 234.82 240.74 233.53 240.34 232.35 L 240.03 231.46 C 239.62 230.28 238.34 229.65 237.15 230.06 C 235.97 230.46 235.35 231.75 235.75 232.93 Z M 236.08 233.83 L 236.42 234.79 C 236.83 235.96 238.11 236.57 239.28 236.16 C 240.45 235.75 241.07 234.46 240.65 233.29 L 240.31 232.34 C 239.90 231.17 238.62 230.55 237.45 230.97 C 236.28 231.38 235.67 232.66 236.08 233.83 Z M 236.45 234.82 L 236.80 235.77 C 237.23 236.93 238.52 237.51 239.67 237.08 C 240.82 236.65 241.41 235.37 240.98 234.22 L 240.62 233.26 C 240.19 232.11 238.91 231.53 237.76 231.96 C 236.60 232.39 236.02 233.67 236.45 234.82 Z M 236.85 235.83 L 237.22 236.74 C 237.68 237.87 238.97 238.41 240.10 237.95 C 241.23 237.49 241.77 236.20 241.31 235.07 L 240.93 234.16 C 240.47 233.03 239.18 232.49 238.05 232.95 C 236.93 233.41 236.39 234.70 236.85 235.83 Z M 237.28 236.83 L 237.68 237.70 C 238.19 238.80 239.49 239.28 240.59 238.77 C 241.69 238.26 242.16 236.96 241.66 235.87 L 241.25 234.99 C 240.74 233.89 239.44 233.41 238.35 233.92 C 237.25 234.43 236.77 235.73 237.28 236.83 Z M 237.76 237.80 L 238.22 238.68 C 238.79 239.73 240.10 240.13 241.15 239.57 C 242.21 239.01 242.61 237.70 242.05 236.64 L 241.58 235.77 C 241.02 234.71 239.71 234.31 238.65 234.87 C 237.60 235.44 237.20 236.75 237.76 237.80 Z M 238.30 238.75 L 238.81 239.61 C 239.41 240.62 240.73 240.95 241.74 240.35 C 242.75 239.75 243.09 238.44 242.48 237.42 L 241.97 236.56 C 241.37 235.55 240.06 235.22 239.04 235.82 C 238.03 236.43 237.70 237.74 238.30 238.75 Z M 238.87 239.65 L 239.41 240.49 C 240.04 241.48 241.34 241.76 242.32 241.13 C 243.30 240.51 243.59 239.20 242.96 238.22 L 242.42 237.38 C 241.79 236.40 240.49 236.11 239.51 236.74 C 238.53 237.37 238.24 238.67 238.87 239.65 Z M 239.45 240.51 L 240.01 241.34 C 240.64 242.30 241.93 242.56 242.89 241.92 C 243.84 241.29 244.10 240.00 243.47 239.04 L 242.92 238.21 C 242.28 237.25 240.99 236.99 240.04 237.63 C 239.08 238.26 238.82 239.55 239.45 240.51 Z"
      fill="black"
      fill-rule="nonzero" /></svg>