<svg xmlns="http://www.w3.org/2000/svg" width="300" height="300" viewBox="0 0 300 300">
<path d="M 208.97 69.00 L 208.35 67.89 C 207.89 67.06 206.85 66.76 206.03 67.22 C 205.20 67.68 204.91 68.72 205.36 69.54 L 205.98 70.66 C 206.44 71.48 207.48 71.78 208.30 71.32 C 209.13 70.86 209.43 69.82 208.97 69.00 Z M 208.36 67.78 L 207.76 66.81 C 207.24 65.98 206.15 65.73 205.32 66.25 C 204.49 66.76 204.24 67.86 204.75 68.69 L 205.35 69.65 C 205.87 70.48 206.96 70.73 207.79 70.22 C 208.62 69.70 208.88 68.61 208.36 67.78 Z M 207.65 66.56 L 207.08 65.89 C 206.43 65.12 205.27 65.03 204.50 65.68 C 203.73 66.34 203.64 67.49 204.29 68.26 L 204.86 68.93 C 205.51 69.71 206.67 69.80 207.44 69.15 C 208.21 68.49 208.31 67.34 207.65 66.56 Z M 206.43 65.34 L 205.90 65.11 C 204.94 64.70 203.83 65.15 203.42 66.11 C 203.01 67.07 203.45 68.18 204.41 68.59 L 204.94 68.82 C 205.90 69.23 207.02 68.78 207.43 67.82 C 207.84 66.86 207.39 65.75 206.43 65.34 Z M 204.01 65.29 L 203.48 65.68 C 202.62 66.30 202.43 67.52 203.06 68.38 C 203.69 69.24 204.90 69.43 205.77 68.80 L 206.30 68.41 C 207.16 67.79 207.35 66.57 206.72 65.71 C 206.09 64.85 204.88 64.66 204.01 65.29 Z M 202.89 66.32 L 202.42 67.21 C 201.91 68.17 202.27 69.36 203.23 69.87 C 204.18 70.38 205.37 70.01 205.88 69.05 L 206.36 68.16 C 206.87 67.20 206.51 66.01 205.55 65.50 C 204.59 64.99 203.40 65.36 202.89 66.32 Z M 202.28 67.43 L 201.84 68.61 C 201.45 69.64 201.97 70.79 203.00 71.18 C 204.03 71.57 205.18 71.05 205.57 70.02 L 206.01 68.84 C 206.40 67.81 205.88 66.66 204.85 66.27 C 203.82 65.88 202.67 66.40 202.28 67.43 Z M 201.80 68.65 L 201.51 69.50 C 201.14 70.55 201.70 71.70 202.75 72.06 C 203.80 72.43 204.94 71.87 205.31 70.82 L 205.60 69.97 C 205.97 68.92 205.41 67.78 204.36 67.41 C 203.31 67.05 202.17 67.60 201.80 68.65 Z M 201.50 69.51 L 201.22 70.33 C 200.86 71.39 201.43 72.53 202.48 72.89 C 203.53 73.25 204.68 72.69 205.04 71.63 L 205.31 70.81 C 205.67 69.76 205.11 68.62 204.06 68.26 C 203.00 67.90 201.86 68.46 201.50 69.51 Z M 201.22 70.34 L 200.92 71.23 C 200.57 72.29 201.14 73.43 202.19 73.78 C 203.25 74.13 204.39 73.56 204.74 72.51 L 205.04 71.62 C 205.39 70.57 204.82 69.42 203.77 69.07 C 202.71 68.72 201.57 69.29 201.22 70.34 Z M 200.92 71.24 L 200.59 72.22 C 200.25 73.28 200.82 74.42 201.88 74.77 C 202.94 75.11 204.08 74.54 204.43 73.48 L 204.75 72.50 C 205.10 71.44 204.52 70.30 203.46 69.95 C 202.40 69.61 201.26 70.18 200.92 71.24 Z M 200.59 72.23 L 200.23 73.33 C 199.89 74.39 200.47 75.53 201.53 75.88 C 202.59 76.22 203.73 75.64 204.07 74.58 L 204.43 73.47 C 204.77 72.41 204.19 71.27 203.13 70.93 C 202.07 70.59 200.93 71.17 200.59 72.23 Z M 200.23 73.34 L 199.89 74.40 C 199.55 75.47 200.13 76.60 201.19 76.94 C 202.26 77.28 203.39 76.70 203.73 75.64 L 204.07 74.57 C 204.41 73.51 203.83 72.37 202.77 72.03 C 201.71 71.69 200.57 72.28 200.23 73.34 Z M 199.89 74.41 L 199.59 75.34 C 199.25 76.40 199.84 77.53 200.90 77.87 C 201.96 78.21 203.10 77.62 203.44 76.56 L 203.73 75.63 C 204.07 74.57 203.49 73.43 202.42 73.10 C 201.36 72.76 200.23 73.34 199.89 74.41 Z M 199.59 75.34 L 199.28 76.31 C 198.94 77.38 199.53 78.51 200.59 78.85 C 201.66 79.19 202.79 78.60 203.13 77.54 L 203.44 76.56 C 203.78 75.50 203.19 74.36 202.13 74.02 C 201.06 73.69 199.93 74.27 199.59 75.34 Z M 199.28 76.32 L 198.96 77.32 C 198.63 78.38 199.21 79.52 200.28 79.85 C 201.34 80.19 202.48 79.60 202.81 78.54 L 203.13 77.53 C 203.47 76.47 202.88 75.34 201.81 75.00 C 200.75 74.66 199.62 75.25 199.28 76.32 Z M 198.96 77.32 L 198.64 78.33 C 198.31 79.39 198.90 80.53 199.96 80.86 C 201.02 81.20 202.16 80.61 202.49 79.54 L 202.81 78.54 C 203.15 77.47 202.56 76.34 201.50 76.00 C 200.43 75.67 199.30 76.26 198.96 77.32 Z M 198.64 78.33 L 198.33 79.32 C 197.99 80.38 198.58 81.52 199.65 81.85 C 200.71 82.19 201.85 81.60 202.18 80.53 L 202.49 79.54 C 202.83 78.48 202.24 77.35 201.18 77.01 C 200.11 76.67 198.98 77.26 198.64 78.33 Z M 198.33 79.32 L 198.03 80.27 C 197.69 81.34 198.28 82.47 199.35 82.81 C 200.41 83.14 201.55 82.55 201.88 81.49 L 202.18 80.53 C 202.52 79.47 201.93 78.34 200.86 78.00 C 199.80 77.67 198.67 78.26 198.33 79.32 Z M 198.03 80.27 L 197.75 81.17 C 197.41 82.23 198.00 83.36 199.06 83.70 C 200.13 84.04 201.26 83.45 201.60 82.38 L 201.88 81.49 C 202.22 80.42 201.63 79.29 200.56 78.95 C 199.50 78.62 198.36 79.21 198.03 80.27 Z M 197.75 81.17 L 197.41 82.24 C 197.07 83.30 197.66 84.43 198.72 84.77 C 199.79 85.11 200.92 84.52 201.26 83.45 L 201.60 82.38 C 201.93 81.32 201.35 80.19 200.28 79.85 C 199.22 79.51 198.08 80.10 197.75 81.17 Z M 197.41 82.23 L 197.06 83.33 C 196.72 84.39 197.31 85.52 198.37 85.86 C 199.44 86.20 200.57 85.61 200.91 84.55 L 201.26 83.46 C 201.60 82.39 201.01 81.26 199.95 80.92 C 198.88 80.58 197.75 81.17 197.41 82.23 Z M 197.06 83.32 L 196.76 84.27 C 196.42 85.33 197.01 86.47 198.07 86.81 C 199.13 87.15 200.27 86.56 200.61 85.50 L 200.91 84.55 C 201.25 83.49 200.66 82.35 199.60 82.01 C 198.54 81.67 197.40 82.26 197.06 83.32 Z M 196.76 84.26 L 196.49 85.12 C 196.14 86.18 196.73 87.32 197.79 87.66 C 198.85 88.00 199.99 87.42 200.33 86.36 L 200.60 85.50 C 200.95 84.44 200.36 83.31 199.30 82.96 C 198.24 82.62 197.10 83.20 196.76 84.26 Z M 196.49 85.11 L 196.22 85.92 C 195.88 86.98 196.46 88.12 197.52 88.47 C 198.58 88.81 199.72 88.23 200.06 87.17 L 200.33 86.36 C 200.67 85.30 200.09 84.16 199.03 83.82 C 197.97 83.47 196.83 84.05 196.49 85.11 Z M 196.23 85.92 L 195.94 86.79 C 195.59 87.85 196.17 88.99 197.23 89.34 C 198.29 89.68 199.43 89.11 199.78 88.05 L 200.06 87.18 C 200.41 86.12 199.83 84.98 198.77 84.63 C 197.71 84.28 196.57 84.86 196.23 85.92 Z M 195.94 86.78 L 195.63 87.72 C 195.28 88.78 195.86 89.92 196.92 90.27 C 197.97 90.62 199.12 90.04 199.47 88.99 L 199.78 88.05 C 200.13 86.99 199.55 85.85 198.49 85.50 C 197.43 85.15 196.29 85.73 195.94 86.78 Z M 195.63 87.71 L 195.32 88.67 C 194.97 89.73 195.54 90.87 196.59 91.22 C 197.65 91.57 198.79 91.00 199.15 89.94 L 199.46 88.99 C 199.82 87.93 199.25 86.79 198.19 86.44 C 197.13 86.09 195.99 86.66 195.63 87.71 Z M 195.32 88.66 L 195.00 89.63 C 194.64 90.68 195.21 91.83 196.27 92.18 C 197.32 92.54 198.47 91.97 198.82 90.91 L 199.15 89.95 C 199.50 88.89 198.93 87.75 197.87 87.39 C 196.82 87.04 195.67 87.61 195.32 88.66 Z M 195.00 89.62 L 194.67 90.59 C 194.32 91.64 194.88 92.79 195.94 93.14 C 196.99 93.50 198.14 92.93 198.50 91.88 L 198.82 90.92 C 199.18 89.86 198.61 88.71 197.55 88.36 C 196.50 88.00 195.35 88.57 195.00 89.62 Z M 194.67 90.58 L 194.35 91.52 C 193.99 92.58 194.56 93.72 195.61 94.08 C 196.67 94.44 197.81 93.88 198.17 92.82 L 198.49 91.88 C 198.85 90.83 198.29 89.68 197.23 89.32 C 196.18 88.96 195.03 89.53 194.67 90.58 Z M 194.36 91.52 L 194.03 92.46 C 193.67 93.51 194.23 94.66 195.28 95.02 C 196.34 95.38 197.49 94.82 197.85 93.77 L 198.17 92.83 C 198.53 91.78 197.97 90.63 196.92 90.27 C 195.87 89.90 194.72 90.46 194.36 91.52 Z M 194.04 92.45 L 193.71 93.39 C 193.34 94.44 193.89 95.59 194.94 95.96 C 196.00 96.33 197.15 95.77 197.52 94.72 L 197.84 93.78 C 198.21 92.73 197.66 91.58 196.61 91.21 C 195.55 90.84 194.40 91.40 194.04 92.45 Z M 193.71 93.38 L 193.37 94.33 C 193.00 95.38 193.55 96.53 194.60 96.90 C 195.64 97.28 196.80 96.73 197.17 95.68 L 197.51 94.73 C 197.89 93.68 197.34 92.53 196.29 92.15 C 195.24 91.78 194.08 92.33 193.71 93.38 Z M 193.38 94.31 L 193.04 95.25 C 192.66 96.29 193.20 97.45 194.24 97.83 C 195.29 98.21 196.45 97.67 196.83 96.63 L 197.17 95.69 C 197.55 94.65 197.01 93.49 195.96 93.11 C 194.92 92.73 193.76 93.27 193.38 94.31 Z M 193.04 95.23 L 192.70 96.16 C 192.31 97.20 192.84 98.36 193.89 98.75 C 194.93 99.14 196.09 98.61 196.48 97.56 L 196.82 96.64 C 197.21 95.60 196.68 94.43 195.64 94.05 C 194.59 93.66 193.43 94.19 193.04 95.23 Z M 192.70 96.15 L 192.35 97.08 C 191.96 98.12 192.48 99.29 193.52 99.68 C 194.57 100.07 195.73 99.55 196.12 98.51 L 196.48 97.57 C 196.87 96.53 196.35 95.37 195.30 94.97 C 194.26 94.58 193.10 95.10 192.70 96.15 Z M 192.35 97.07 L 191.99 98.01 C 191.59 99.05 192.11 100.22 193.15 100.62 C 194.19 101.02 195.36 100.50 195.76 99.46 L 196.12 98.52 C 196.52 97.48 196.00 96.31 194.96 95.91 C 193.92 95.51 192.75 96.03 192.35 97.07 Z M 192.00 98.00 L 191.63 98.95 C 191.22 99.99 191.74 101.16 192.78 101.56 C 193.81 101.97 194.98 101.45 195.39 100.41 L 195.76 99.47 C 196.16 98.43 195.64 97.26 194.61 96.85 C 193.57 96.45 192.40 96.97 192.00 98.00 Z M 191.63 98.95 L 191.27 99.87 C 190.86 100.91 191.37 102.08 192.41 102.48 C 193.45 102.89 194.62 102.38 195.02 101.34 L 195.38 100.42 C 195.79 99.38 195.28 98.21 194.24 97.81 C 193.21 97.40 192.04 97.91 191.63 98.95 Z M 191.27 99.86 L 190.91 100.78 C 190.50 101.82 191.00 102.99 192.04 103.40 C 193.08 103.81 194.25 103.30 194.66 102.27 L 195.02 101.35 C 195.43 100.31 194.92 99.14 193.89 98.73 C 192.85 98.32 191.68 98.83 191.27 99.86 Z M 190.91 100.78 L 190.54 101.71 C 190.13 102.74 190.63 103.91 191.67 104.32 C 192.70 104.74 193.87 104.23 194.29 103.20 L 194.65 102.27 C 195.07 101.24 194.56 100.06 193.53 99.65 C 192.49 99.24 191.32 99.75 190.91 100.78 Z M 190.54 101.70 L 190.17 102.64 C 189.75 103.67 190.26 104.84 191.29 105.26 C 192.32 105.67 193.50 105.17 193.91 104.13 L 194.28 103.20 C 194.70 102.17 194.20 100.99 193.16 100.58 C 192.13 100.17 190.96 100.67 190.54 101.70 Z M 190.17 102.63 L 189.79 103.58 C 189.38 104.61 189.88 105.78 190.91 106.20 C 191.94 106.61 193.11 106.11 193.53 105.08 L 193.91 104.14 C 194.32 103.10 193.82 101.93 192.79 101.52 C 191.76 101.10 190.58 101.60 190.17 102.63 Z M 189.79 103.58 L 189.42 104.50 C 189.00 105.53 189.50 106.70 190.53 107.12 C 191.57 107.54 192.74 107.04 193.16 106.01 L 193.53 105.08 C 193.94 104.05 193.44 102.88 192.41 102.46 C 191.38 102.05 190.21 102.55 189.79 103.58 Z M 189.42 104.49 L 189.05 105.42 C 188.63 106.45 189.13 107.62 190.16 108.04 C 191.19 108.46 192.36 107.96 192.78 106.93 L 193.15 106.01 C 193.57 104.98 193.08 103.80 192.05 103.39 C 191.01 102.97 189.84 103.46 189.42 104.49 Z M 189.05 105.41 L 188.67 106.33 C 188.25 107.36 188.74 108.54 189.77 108.96 C 190.80 109.38 191.97 108.89 192.40 107.86 L 192.78 106.94 C 193.20 105.91 192.71 104.73 191.68 104.31 C 190.65 103.89 189.47 104.38 189.05 105.41 Z M 188.68 106.32 L 188.29 107.25 C 187.86 108.27 188.34 109.45 189.37 109.88 C 190.39 110.31 191.57 109.83 192.00 108.80 L 192.39 107.87 C 192.82 106.85 192.33 105.67 191.31 105.24 C 190.28 104.81 189.11 105.30 188.68 106.32 Z M 188.30 107.24 L 187.90 108.16 C 187.46 109.18 187.94 110.36 188.96 110.80 C 189.98 111.24 191.16 110.76 191.60 109.74 L 191.99 108.82 C 192.43 107.79 191.96 106.61 190.94 106.18 C 189.92 105.74 188.73 106.21 188.30 107.24 Z M 187.91 108.14 L 187.51 109.05 C 187.06 110.07 187.53 111.26 188.54 111.70 C 189.56 112.15 190.74 111.69 191.19 110.67 L 191.59 109.76 C 192.04 108.74 191.57 107.56 190.56 107.11 C 189.54 106.67 188.36 107.13 187.91 108.14 Z M 187.52 109.04 L 187.12 109.93 C 186.66 110.94 187.11 112.13 188.12 112.59 C 189.13 113.04 190.32 112.59 190.78 111.58 L 191.18 110.69 C 191.64 109.68 191.19 108.49 190.18 108.03 C 189.16 107.57 187.97 108.02 187.52 109.04 Z M 187.12 109.92 L 186.71 110.81 C 186.24 111.82 186.68 113.01 187.69 113.48 C 188.70 113.94 189.89 113.50 190.36 112.50 L 190.77 111.60 C 191.23 110.59 190.80 109.40 189.79 108.93 C 188.78 108.47 187.59 108.91 187.12 109.92 Z M 186.72 110.80 L 186.29 111.70 C 185.82 112.71 186.25 113.90 187.25 114.38 C 188.25 114.85 189.45 114.42 189.92 113.41 L 190.35 112.51 C 190.82 111.51 190.39 110.31 189.39 109.84 C 188.38 109.37 187.19 109.80 186.72 110.80 Z M 186.30 111.69 L 185.86 112.61 C 185.38 113.61 185.80 114.81 186.80 115.28 C 187.80 115.76 189.00 115.34 189.48 114.34 L 189.92 113.43 C 190.39 112.43 189.97 111.23 188.97 110.75 C 187.97 110.27 186.78 110.69 186.30 111.69 Z M 185.86 112.60 L 185.42 113.52 C 184.93 114.52 185.35 115.72 186.35 116.20 C 187.34 116.68 188.54 116.27 189.03 115.27 L 189.47 114.35 C 189.96 113.35 189.54 112.15 188.54 111.67 C 187.55 111.19 186.35 111.60 185.86 112.60 Z M 185.42 113.51 L 184.98 114.41 C 184.50 115.40 184.91 116.61 185.90 117.09 C 186.89 117.58 188.10 117.17 188.58 116.17 L 189.02 115.28 C 189.51 114.28 189.10 113.08 188.10 112.60 C 187.11 112.11 185.91 112.52 185.42 113.51 Z M 184.99 114.41 L 184.54 115.31 C 184.05 116.30 184.46 117.50 185.45 117.99 C 186.44 118.48 187.64 118.08 188.13 117.08 L 188.58 116.18 C 189.07 115.19 188.66 113.99 187.67 113.50 C 186.68 113.01 185.48 113.41 184.99 114.41 Z M 184.54 115.31 L 184.09 116.21 C 183.60 117.20 184.01 118.41 185.00 118.90 C 185.99 119.39 187.19 118.98 187.68 117.99 L 188.13 117.09 C 188.62 116.10 188.22 114.90 187.23 114.40 C 186.24 113.91 185.03 114.32 184.54 115.31 Z M 184.09 116.21 L 183.65 117.11 C 183.15 118.10 183.56 119.30 184.55 119.79 C 185.53 120.29 186.74 119.88 187.23 118.90 L 187.68 118.00 C 188.17 117.01 187.77 115.81 186.78 115.31 C 185.79 114.82 184.59 115.22 184.09 116.21 Z M 183.65 117.11 L 183.21 117.99 C 182.71 118.98 183.11 120.18 184.10 120.68 C 185.09 121.17 186.29 120.77 186.78 119.78 L 187.23 118.90 C 187.72 117.91 187.32 116.71 186.33 116.21 C 185.34 115.72 184.14 116.12 183.65 117.11 Z M 183.21 117.99 L 182.75 118.90 C 182.26 119.89 182.66 121.09 183.65 121.59 C 184.63 122.08 185.83 121.68 186.33 120.69 L 186.78 119.78 C 187.28 118.80 186.88 117.59 185.89 117.10 C 184.90 116.61 183.70 117.01 183.21 117.99 Z M 182.75 118.90 L 182.29 119.83 C 181.80 120.81 182.19 122.02 183.18 122.51 C 184.17 123.00 185.37 122.61 185.86 121.62 L 186.33 120.69 C 186.82 119.71 186.42 118.51 185.44 118.01 C 184.45 117.52 183.25 117.92 182.75 118.90 Z M 182.29 119.82 L 181.84 120.72 C 181.34 121.71 181.74 122.91 182.72 123.41 C 183.70 123.90 184.91 123.51 185.40 122.52 L 185.86 121.63 C 186.36 120.64 185.96 119.44 184.98 118.94 C 183.99 118.44 182.79 118.84 182.29 119.82 Z M 181.85 120.71 L 181.40 121.59 C 180.89 122.57 181.28 123.77 182.26 124.28 C 183.24 124.78 184.44 124.39 184.95 123.41 L 185.40 122.53 C 185.90 121.55 185.51 120.35 184.53 119.85 C 183.55 119.35 182.35 119.73 181.85 120.71 Z M 181.40 121.58 L 180.96 122.43 C 180.45 123.41 180.82 124.61 181.80 125.12 C 182.77 125.64 183.98 125.26 184.49 124.28 L 184.94 123.43 C 185.45 122.45 185.07 121.24 184.10 120.73 C 183.12 120.22 181.91 120.60 181.40 121.58 Z M 180.97 122.41 L 180.50 123.28 C 179.98 124.25 180.34 125.46 181.31 125.98 C 182.28 126.50 183.49 126.14 184.01 125.17 L 184.48 124.30 C 185.00 123.33 184.64 122.12 183.67 121.60 C 182.70 121.08 181.49 121.44 180.97 122.41 Z M 180.51 123.26 L 180.02 124.16 C 179.49 125.12 179.84 126.33 180.80 126.86 C 181.76 127.40 182.97 127.05 183.51 126.08 L 184.00 125.19 C 184.53 124.23 184.18 123.01 183.22 122.48 C 182.26 121.95 181.05 122.30 180.51 123.26 Z M 180.03 124.14 L 179.53 125.02 C 178.99 125.97 179.33 127.19 180.28 127.73 C 181.24 128.27 182.45 127.94 183.00 126.98 L 183.49 126.10 C 184.04 125.15 183.70 123.93 182.74 123.39 C 181.79 122.85 180.57 123.18 180.03 124.14 Z M 179.54 125.00 L 179.05 125.86 C 178.50 126.81 178.82 128.03 179.77 128.58 C 180.72 129.13 181.94 128.80 182.49 127.85 L 182.99 126.99 C 183.54 126.04 183.21 124.83 182.26 124.28 C 181.31 123.73 180.09 124.05 179.54 125.00 Z M 179.05 125.85 L 178.56 126.69 C 178.00 127.64 178.32 128.86 179.27 129.41 C 180.21 129.97 181.43 129.65 181.99 128.71 L 182.48 127.86 C 183.04 126.92 182.72 125.70 181.78 125.14 C 180.83 124.59 179.61 124.90 179.05 125.85 Z M 178.57 126.68 L 178.04 127.56 C 177.48 128.50 177.79 129.72 178.74 130.28 C 179.68 130.84 180.90 130.53 181.46 129.59 L 181.98 128.71 C 182.54 127.77 182.23 126.55 181.29 125.99 C 180.35 125.43 179.13 125.74 178.57 126.68 Z M 178.05 127.55 L 177.52 128.43 C 176.96 129.37 177.26 130.59 178.20 131.16 C 179.14 131.72 180.36 131.42 180.93 130.48 L 181.46 129.60 C 182.02 128.66 181.71 127.44 180.77 126.87 C 179.83 126.31 178.61 126.61 178.05 127.55 Z M 177.53 128.43 L 177.01 129.28 C 176.44 130.22 176.74 131.44 177.68 132.01 C 178.62 132.58 179.84 132.28 180.40 131.34 L 180.92 130.48 C 181.49 129.55 181.19 128.33 180.25 127.76 C 179.31 127.19 178.09 127.49 177.53 128.43 Z M 177.01 129.28 L 176.51 130.11 C 175.94 131.04 176.23 132.26 177.17 132.84 C 178.10 133.41 179.32 133.11 179.89 132.18 L 180.40 131.35 C 180.97 130.41 180.67 129.19 179.74 128.62 C 178.80 128.05 177.58 128.34 177.01 129.28 Z M 176.51 130.10 L 175.99 130.95 C 175.42 131.88 175.71 133.10 176.64 133.68 C 177.57 134.25 178.79 133.96 179.37 133.03 L 179.89 132.18 C 180.46 131.25 180.17 130.03 179.24 129.45 C 178.30 128.88 177.08 129.17 176.51 130.10 Z M 176.00 130.94 L 175.45 131.83 C 174.87 132.76 175.16 133.98 176.09 134.55 C 177.02 135.13 178.24 134.84 178.81 133.92 L 179.36 133.03 C 179.94 132.10 179.65 130.88 178.72 130.31 C 177.79 129.73 176.57 130.01 176.00 130.94 Z M 175.46 131.82 L 174.92 132.66 C 174.34 133.59 174.62 134.81 175.54 135.39 C 176.47 135.97 177.69 135.70 178.27 134.77 L 178.80 133.93 C 179.39 133.00 179.11 131.78 178.19 131.20 C 177.26 130.62 176.04 130.89 175.46 131.82 Z M 174.94 132.65 L 174.42 133.46 C 173.82 134.37 174.09 135.60 175.01 136.19 C 175.93 136.78 177.15 136.51 177.74 135.59 L 178.26 134.79 C 178.85 133.87 178.59 132.65 177.67 132.06 C 176.75 131.46 175.53 131.73 174.94 132.65 Z M 174.43 133.44 L 173.88 134.26 C 173.28 135.17 173.53 136.40 174.44 137.00 C 175.35 137.60 176.57 137.35 177.18 136.44 L 177.72 135.61 C 178.33 134.71 178.08 133.48 177.17 132.88 C 176.26 132.28 175.03 132.53 174.43 133.44 Z M 173.90 134.24 L 173.33 135.07 C 172.72 135.97 172.95 137.20 173.85 137.81 C 174.75 138.43 175.98 138.19 176.59 137.29 L 177.16 136.46 C 177.77 135.56 177.54 134.34 176.64 133.72 C 175.74 133.11 174.51 133.34 173.90 134.24 Z M 173.35 135.06 L 172.78 135.87 C 172.16 136.76 172.38 137.99 173.27 138.61 C 174.17 139.23 175.39 139.01 176.02 138.12 L 176.58 137.31 C 177.20 136.42 176.98 135.19 176.09 134.57 C 175.20 133.94 173.97 134.16 173.35 135.06 Z M 172.79 135.86 L 172.24 136.63 C 171.62 137.52 171.83 138.75 172.72 139.38 C 173.61 140.00 174.83 139.79 175.46 138.90 L 176.01 138.13 C 176.63 137.24 176.42 136.01 175.54 135.38 C 174.65 134.76 173.42 134.97 172.79 135.86 Z M 172.25 136.62 L 171.75 137.33 C 171.12 138.21 171.32 139.44 172.20 140.07 C 173.09 140.70 174.31 140.50 174.95 139.62 L 175.45 138.91 C 176.08 138.03 175.88 136.80 175.00 136.17 C 174.11 135.54 172.89 135.74 172.25 136.62 Z M 171.77 137.30 L 171.21 138.06 C 170.56 138.94 170.75 140.17 171.62 140.81 C 172.49 141.46 173.72 141.27 174.36 140.40 L 174.93 139.64 C 175.57 138.77 175.39 137.54 174.52 136.89 C 173.64 136.25 172.41 136.43 171.77 137.30 Z M 171.23 138.03 L 170.58 138.88 C 169.91 139.74 170.07 140.97 170.93 141.63 C 171.78 142.30 173.02 142.14 173.68 141.28 L 174.34 140.43 C 175.00 139.58 174.84 138.34 173.99 137.68 C 173.13 137.02 171.90 137.17 171.23 138.03 Z M 170.60 138.85 L 169.90 139.73 C 169.22 140.57 169.35 141.80 170.19 142.48 C 171.03 143.16 172.26 143.03 172.94 142.19 L 173.65 141.32 C 174.33 140.47 174.20 139.24 173.36 138.56 C 172.52 137.88 171.28 138.01 170.60 138.85 Z M 169.92 139.70 L 169.30 140.44 C 168.61 141.27 168.72 142.51 169.55 143.20 C 170.38 143.89 171.62 143.78 172.31 142.95 L 172.93 142.21 C 173.62 141.38 173.51 140.15 172.67 139.45 C 171.84 138.76 170.61 138.87 169.92 139.70 Z M 169.31 140.43 L 168.65 141.21 C 167.95 142.04 168.06 143.27 168.88 143.97 C 169.70 144.67 170.94 144.56 171.64 143.74 L 172.30 142.96 C 173.00 142.14 172.89 140.90 172.07 140.20 C 171.24 139.50 170.01 139.61 169.31 140.43 Z M 168.66 141.20 L 167.98 142.00 C 167.28 142.82 167.37 144.05 168.19 144.76 C 169.02 145.46 170.25 145.36 170.95 144.54 L 171.63 143.75 C 172.33 142.93 172.24 141.69 171.42 140.99 C 170.59 140.29 169.36 140.38 168.66 141.20 Z M 167.98 142.00 L 167.31 142.78 C 166.61 143.60 166.70 144.84 167.52 145.54 C 168.34 146.24 169.57 146.15 170.27 145.33 L 170.95 144.54 C 171.65 143.72 171.56 142.49 170.74 141.79 C 169.92 141.08 168.69 141.18 167.98 142.00 Z M 167.31 142.78 L 166.66 143.54 C 165.96 144.36 166.06 145.59 166.87 146.29 C 167.69 146.99 168.92 146.90 169.63 146.08 L 170.27 145.33 C 170.97 144.51 170.88 143.28 170.06 142.57 C 169.24 141.87 168.01 141.97 167.31 142.78 Z M 166.66 143.55 L 165.95 144.38 C 165.25 145.20 165.35 146.43 166.17 147.13 C 166.99 147.83 168.22 147.73 168.92 146.91 L 169.63 146.07 C 170.33 145.25 170.23 144.02 169.41 143.32 C 168.59 142.63 167.36 142.73 166.66 143.55 Z M 165.94 144.40 L 165.24 145.25 C 164.55 146.07 164.66 147.30 165.48 147.98 C 166.31 148.67 167.53 148.56 168.22 147.74 L 168.92 146.89 C 169.61 146.06 169.50 144.84 168.68 144.15 C 167.85 143.47 166.63 143.58 165.94 144.40 Z M 165.22 145.28 L 164.61 146.05 C 163.94 146.88 164.07 148.09 164.90 148.76 C 165.74 149.43 166.95 149.30 167.62 148.47 L 168.23 147.70 C 168.90 146.87 168.77 145.65 167.94 144.99 C 167.11 144.32 165.89 144.45 165.22 145.28 Z M 164.58 146.09 L 164.04 146.80 C 163.40 147.65 163.57 148.86 164.41 149.50 C 165.26 150.14 166.47 149.97 167.11 149.13 L 167.65 148.42 C 168.29 147.57 168.12 146.37 167.28 145.72 C 166.43 145.08 165.22 145.25 164.58 146.09 Z M 164.01 146.87 L 163.48 147.62 C 162.87 148.49 163.08 149.68 163.95 150.29 C 164.81 150.89 166.01 150.69 166.61 149.82 L 167.14 149.06 C 167.75 148.20 167.54 147.01 166.68 146.40 C 165.81 145.79 164.62 146.00 164.01 146.87 Z M 163.45 147.69 L 162.90 148.54 C 162.32 149.42 162.57 150.60 163.45 151.17 C 164.33 151.74 165.51 151.49 166.08 150.61 L 166.64 149.76 C 167.21 148.88 166.96 147.70 166.08 147.13 C 165.20 146.56 164.02 146.81 163.45 147.69 Z M 162.90 148.57 L 162.37 149.40 C 161.81 150.28 162.07 151.44 162.95 152.00 C 163.83 152.56 164.99 152.30 165.55 151.42 L 166.08 150.59 C 166.64 149.71 166.38 148.54 165.50 147.99 C 164.62 147.43 163.46 147.69 162.90 148.57 Z M 162.41 149.37 L 161.87 150.18 C 161.30 151.03 161.53 152.19 162.39 152.77 C 163.24 153.34 164.40 153.11 164.98 152.25 L 165.51 151.45 C 166.09 150.59 165.86 149.43 165.00 148.86 C 164.14 148.28 162.98 148.51 162.41 149.37 Z M 161.92 150.12 L 161.35 150.90 C 160.75 151.73 160.93 152.89 161.76 153.50 C 162.59 154.10 163.76 153.92 164.36 153.09 L 164.93 152.31 C 165.53 151.48 165.35 150.31 164.52 149.71 C 163.69 149.10 162.52 149.29 161.92 150.12 Z M 161.36 150.88 L 160.77 151.68 C 160.16 152.50 160.33 153.67 161.16 154.28 C 161.99 154.89 163.15 154.72 163.76 153.90 L 164.35 153.10 C 164.96 152.28 164.79 151.11 163.96 150.50 C 163.14 149.89 161.97 150.06 161.36 150.88 Z M 160.74 151.72 L 160.15 152.58 C 159.56 153.42 159.77 154.58 160.61 155.17 C 161.46 155.76 162.62 155.55 163.20 154.70 L 163.80 153.85 C 164.38 153.01 164.17 151.84 163.33 151.26 C 162.49 150.67 161.33 150.88 160.74 151.72 Z M 160.07 152.67 L 159.53 153.57 C 159.00 154.45 159.28 155.60 160.16 156.14 C 161.04 156.67 162.20 156.39 162.73 155.51 L 163.27 154.61 C 163.81 153.73 163.53 152.58 162.65 152.04 C 161.76 151.50 160.61 151.79 160.07 152.67 Z M 159.42 153.73 L 158.98 154.67 C 158.54 155.62 158.94 156.75 159.89 157.19 C 160.84 157.63 161.96 157.22 162.40 156.28 L 162.84 155.34 C 163.29 154.39 162.88 153.27 161.93 152.82 C 160.99 152.38 159.86 152.79 159.42 153.73 Z M 158.84 155.00 L 158.60 155.94 C 158.34 156.96 158.95 158.01 159.98 158.27 C 161.00 158.53 162.04 157.91 162.30 156.89 L 162.54 155.95 C 162.81 154.93 162.19 153.89 161.17 153.62 C 160.14 153.36 159.10 153.98 158.84 155.00 Z M 158.52 156.54 L 158.58 157.43 C 158.65 158.50 159.57 159.30 160.64 159.23 C 161.70 159.16 162.51 158.24 162.44 157.17 L 162.38 156.29 C 162.31 155.22 161.39 154.42 160.32 154.49 C 159.26 154.56 158.45 155.48 158.52 156.54 Z M 158.73 158.10 L 159.10 158.93 C 159.54 159.91 160.70 160.35 161.68 159.91 C 162.66 159.47 163.10 158.32 162.66 157.33 L 162.29 156.50 C 161.85 155.52 160.69 155.08 159.71 155.52 C 158.73 155.96 158.29 157.12 158.73 158.10 Z M 159.27 159.26 L 159.85 160.08 C 160.48 160.97 161.70 161.19 162.59 160.56 C 163.48 159.94 163.69 158.71 163.07 157.82 L 162.49 157.00 C 161.86 156.11 160.64 155.90 159.75 156.52 C 158.86 157.15 158.65 158.38 159.27 159.26 Z M 159.88 160.16 L 160.55 161.03 C 161.22 161.90 162.46 162.06 163.33 161.40 C 164.20 160.73 164.37 159.48 163.70 158.61 L 163.03 157.74 C 162.37 156.87 161.12 156.71 160.25 157.38 C 159.38 158.04 159.22 159.29 159.88 160.16 Z M 160.49 160.96 L 160.98 161.67 C 161.61 162.58 162.85 162.80 163.76 162.18 C 164.66 161.55 164.89 160.31 164.26 159.40 L 163.77 158.69 C 163.14 157.78 161.90 157.55 160.99 158.18 C 160.08 158.81 159.86 160.05 160.49 160.96 Z M 160.92 161.59 L 161.40 162.36 C 161.98 163.30 163.21 163.59 164.15 163.01 C 165.09 162.43 165.38 161.20 164.80 160.26 L 164.32 159.48 C 163.74 158.54 162.51 158.25 161.57 158.83 C 160.63 159.41 160.34 160.65 160.92 161.59 Z M 161.35 162.29 L 161.83 163.15 C 162.38 164.12 163.60 164.46 164.56 163.92 C 165.53 163.38 165.87 162.15 165.33 161.19 L 164.85 160.33 C 164.30 159.36 163.08 159.02 162.12 159.56 C 161.15 160.10 160.81 161.33 161.35 162.29 Z M 161.80 163.10 L 162.30 164.07 C 162.82 165.05 164.03 165.43 165.02 164.92 C 166.00 164.41 166.38 163.19 165.87 162.21 L 165.36 161.24 C 164.85 160.26 163.64 159.88 162.65 160.39 C 161.67 160.90 161.29 162.12 161.80 163.10 Z M 162.28 164.03 L 162.79 165.05 C 163.28 166.05 164.49 166.46 165.49 165.97 C 166.48 165.47 166.89 164.27 166.40 163.27 L 165.89 162.24 C 165.40 161.25 164.19 160.84 163.19 161.33 C 162.20 161.82 161.79 163.03 162.28 164.03 Z M 162.77 165.03 L 163.20 165.93 C 163.68 166.94 164.89 167.36 165.89 166.88 C 166.90 166.40 167.32 165.20 166.84 164.19 L 166.41 163.29 C 165.93 162.29 164.73 161.86 163.72 162.34 C 162.72 162.82 162.29 164.03 162.77 165.03 Z M 163.19 165.92 L 163.63 166.86 C 164.11 167.87 165.31 168.31 166.32 167.84 C 167.33 167.36 167.77 166.16 167.30 165.15 L 166.85 164.21 C 166.38 163.20 165.18 162.76 164.17 163.23 C 163.16 163.71 162.72 164.91 163.19 165.92 Z M 163.62 166.85 L 164.06 167.81 C 164.53 168.82 165.73 169.27 166.75 168.80 C 167.76 168.34 168.21 167.13 167.74 166.12 L 167.30 165.16 C 166.84 164.15 165.64 163.70 164.62 164.17 C 163.60 164.63 163.16 165.84 163.62 166.85 Z M 164.06 167.80 L 164.48 168.74 C 164.94 169.76 166.14 170.21 167.16 169.75 C 168.19 169.29 168.64 168.09 168.18 167.07 L 167.75 166.13 C 167.29 165.11 166.09 164.65 165.07 165.11 C 164.05 165.58 163.59 166.78 164.06 167.80 Z M 164.47 168.73 L 164.87 169.63 C 165.33 170.65 166.53 171.11 167.56 170.65 C 168.58 170.20 169.04 168.99 168.58 167.97 L 168.18 167.07 C 167.73 166.05 166.52 165.59 165.50 166.05 C 164.48 166.50 164.02 167.71 164.47 168.73 Z M 164.87 169.62 L 165.24 170.46 C 165.69 171.48 166.89 171.95 167.92 171.50 C 168.95 171.04 169.41 169.84 168.96 168.81 L 168.59 167.98 C 168.14 166.95 166.94 166.48 165.91 166.94 C 164.88 167.39 164.41 168.59 164.87 169.62 Z M 165.23 170.45 L 165.71 171.56 C 166.16 172.59 167.36 173.07 168.39 172.62 C 169.42 172.17 169.90 170.97 169.45 169.94 L 168.97 168.82 C 168.52 167.79 167.32 167.32 166.29 167.77 C 165.25 168.21 164.78 169.41 165.23 170.45 Z M 165.71 171.55 L 166.11 172.48 C 166.55 173.52 167.75 174.00 168.78 173.56 C 169.82 173.12 170.30 171.92 169.86 170.88 L 169.46 169.95 C 169.01 168.91 167.82 168.43 166.78 168.87 C 165.75 169.32 165.26 170.51 165.71 171.55 Z M 166.10 172.48 L 166.45 173.30 C 166.89 174.34 168.09 174.82 169.13 174.38 C 170.17 173.94 170.65 172.74 170.21 171.71 L 169.86 170.88 C 169.42 169.85 168.22 169.36 167.18 169.80 C 166.14 170.25 165.66 171.44 166.10 172.48 Z M 166.45 173.31 L 166.79 174.10 C 167.24 175.14 168.44 175.62 169.48 175.17 C 170.51 174.72 170.99 173.52 170.55 172.49 L 170.21 171.70 C 169.76 170.66 168.56 170.18 167.52 170.63 C 166.49 171.08 166.01 172.28 166.45 173.31 Z M 166.80 174.12 L 167.19 175.01 C 167.65 176.04 168.86 176.51 169.89 176.05 C 170.92 175.59 171.39 174.39 170.93 173.36 L 170.54 172.47 C 170.08 171.44 168.88 170.97 167.84 171.43 C 166.81 171.88 166.34 173.09 166.80 174.12 Z M 167.20 175.03 L 167.61 175.93 C 168.08 176.96 169.29 177.42 170.32 176.95 C 171.35 176.49 171.80 175.28 171.34 174.25 L 170.93 173.34 C 170.46 172.31 169.25 171.85 168.22 172.32 C 167.19 172.78 166.73 174.00 167.20 175.03 Z M 167.61 175.94 L 168.04 176.87 C 168.51 177.90 169.72 178.35 170.75 177.88 C 171.78 177.41 172.23 176.20 171.76 175.17 L 171.33 174.24 C 170.86 173.21 169.65 172.76 168.62 173.23 C 167.59 173.70 167.14 174.92 167.61 175.94 Z M 168.04 176.88 L 168.45 177.77 C 168.92 178.80 170.14 179.25 171.17 178.77 C 172.19 178.30 172.64 177.08 172.17 176.06 L 171.76 175.17 C 171.29 174.14 170.07 173.69 169.04 174.16 C 168.02 174.63 167.57 175.85 168.04 176.88 Z M 168.45 177.77 L 168.85 178.65 C 169.32 179.67 170.54 180.13 171.57 179.65 C 172.60 179.18 173.05 177.96 172.57 176.94 L 172.17 176.06 C 171.70 175.03 170.48 174.58 169.45 175.05 C 168.43 175.52 167.98 176.74 168.45 177.77 Z M 168.85 178.64 L 169.27 179.55 C 169.74 180.58 170.95 181.04 171.98 180.57 C 173.01 180.10 173.46 178.88 172.99 177.85 L 172.58 176.94 C 172.11 175.91 170.89 175.46 169.86 175.93 C 168.83 176.40 168.38 177.61 168.85 178.64 Z M 169.26 179.55 L 169.69 180.50 C 170.16 181.53 171.37 181.99 172.41 181.52 C 173.44 181.06 173.90 179.84 173.43 178.81 L 173.00 177.86 C 172.53 176.83 171.32 176.37 170.28 176.83 C 169.25 177.30 168.79 178.52 169.26 179.55 Z M 169.69 180.49 L 170.09 181.40 C 170.55 182.43 171.77 182.90 172.80 182.43 C 173.84 181.97 174.30 180.76 173.84 179.72 L 173.43 178.82 C 172.97 177.78 171.76 177.32 170.72 177.78 C 169.69 178.25 169.23 179.46 169.69 180.49 Z M 170.09 181.39 L 170.49 182.30 C 170.95 183.33 172.16 183.80 173.20 183.34 C 174.23 182.88 174.70 181.67 174.24 180.64 L 173.84 179.73 C 173.38 178.69 172.17 178.23 171.13 178.68 C 170.10 179.14 169.63 180.36 170.09 181.39 Z M 170.49 182.29 L 170.89 183.22 C 171.35 184.26 172.56 184.73 173.60 184.27 C 174.64 183.82 175.11 182.60 174.65 181.57 L 174.25 180.64 C 173.79 179.60 172.58 179.13 171.54 179.59 C 170.50 180.04 170.03 181.26 170.49 182.29 Z M 170.89 183.21 L 171.30 184.15 C 171.75 185.19 172.96 185.66 174.00 185.20 C 175.04 184.75 175.52 183.54 175.06 182.50 L 174.65 181.57 C 174.20 180.53 172.99 180.06 171.95 180.51 C 170.91 180.97 170.44 182.18 170.89 183.21 Z M 171.30 184.14 L 171.70 185.07 C 172.16 186.11 173.37 186.59 174.40 186.13 C 175.44 185.68 175.92 184.47 175.47 183.43 L 175.06 182.50 C 174.61 181.47 173.40 180.99 172.36 181.44 C 171.32 181.90 170.85 183.10 171.30 184.14 Z M 171.70 185.07 L 172.10 185.99 C 172.55 187.03 173.76 187.50 174.80 187.05 C 175.84 186.60 176.32 185.39 175.87 184.35 L 175.47 183.43 C 175.02 182.39 173.81 181.92 172.77 182.37 C 171.73 182.82 171.25 184.03 171.70 185.07 Z M 172.10 185.99 L 172.50 186.90 C 172.95 187.94 174.16 188.42 175.20 187.97 C 176.24 187.51 176.72 186.30 176.26 185.26 L 175.87 184.35 C 175.42 183.31 174.21 182.84 173.17 183.29 C 172.13 183.74 171.65 184.95 172.10 185.99 Z M 172.50 186.90 L 172.89 187.81 C 173.35 188.85 174.56 189.33 175.60 188.88 C 176.64 188.43 177.11 187.22 176.66 186.18 L 176.26 185.26 C 175.81 184.22 174.60 183.75 173.56 184.20 C 172.52 184.65 172.05 185.86 172.50 186.90 Z M 172.89 187.82 L 173.29 188.74 C 173.75 189.78 174.96 190.25 176.00 189.80 C 177.04 189.35 177.51 188.14 177.06 187.10 L 176.66 186.18 C 176.21 185.14 175.00 184.66 173.96 185.11 C 172.92 185.57 172.44 186.78 172.89 187.82 Z M 173.30 188.74 L 173.69 189.63 C 174.14 190.67 175.35 191.15 176.39 190.70 C 177.43 190.24 177.90 189.03 177.45 187.99 L 177.06 187.10 C 176.61 186.06 175.40 185.58 174.36 186.03 C 173.32 186.49 172.84 187.70 173.30 188.74 Z M 173.69 189.63 L 174.08 190.54 C 174.53 191.58 175.74 192.06 176.78 191.60 C 177.82 191.15 178.30 189.94 177.85 188.90 L 177.45 188.00 C 177.00 186.96 175.79 186.48 174.75 186.93 C 173.71 187.38 173.23 188.59 173.69 189.63 Z M 174.08 190.54 L 174.48 191.46 C 174.93 192.50 176.14 192.98 177.18 192.52 C 178.22 192.07 178.70 190.86 178.25 189.82 L 177.85 188.90 C 177.40 187.86 176.19 187.39 175.15 187.84 C 174.11 188.29 173.63 189.50 174.08 190.54 Z M 174.48 191.45 L 174.88 192.38 C 175.32 193.43 176.53 193.91 177.57 193.46 C 178.62 193.01 179.10 191.80 178.65 190.76 L 178.25 189.83 C 177.80 188.79 176.59 188.31 175.55 188.75 C 174.51 189.20 174.03 190.41 174.48 191.45 Z M 174.87 192.38 L 175.27 193.30 C 175.71 194.35 176.92 194.83 177.96 194.39 C 179.00 193.95 179.49 192.74 179.05 191.70 L 178.65 190.77 C 178.21 189.72 177.00 189.24 175.96 189.68 C 174.91 190.13 174.43 191.33 174.87 192.38 Z M 175.26 193.30 L 175.64 194.20 C 176.08 195.24 177.29 195.74 178.33 195.30 C 179.38 194.86 179.87 193.65 179.43 192.61 L 179.05 191.71 C 178.61 190.66 177.41 190.17 176.36 190.61 C 175.32 191.05 174.82 192.25 175.26 193.30 Z M 175.64 194.19 L 176.02 195.10 C 176.45 196.15 177.65 196.65 178.70 196.22 C 179.75 195.78 180.25 194.58 179.81 193.53 L 179.43 192.62 C 179.00 191.57 177.80 191.07 176.75 191.51 C 175.70 191.94 175.21 193.14 175.64 194.19 Z M 176.01 195.09 L 176.39 196.02 C 176.82 197.07 178.02 197.58 179.07 197.15 C 180.12 196.72 180.62 195.52 180.20 194.47 L 179.82 193.54 C 179.39 192.49 178.19 191.99 177.14 192.42 C 176.09 192.85 175.59 194.04 176.01 195.09 Z M 176.39 196.01 L 176.77 196.96 C 177.19 198.01 178.39 198.52 179.44 198.10 C 180.49 197.67 181.00 196.48 180.58 195.43 L 180.20 194.48 C 179.78 193.43 178.58 192.92 177.53 193.34 C 176.48 193.77 175.97 194.96 176.39 196.01 Z M 176.76 196.95 L 177.13 197.88 C 177.55 198.94 178.74 199.45 179.80 199.04 C 180.85 198.62 181.37 197.43 180.95 196.37 L 180.58 195.44 C 180.17 194.38 178.97 193.87 177.92 194.28 C 176.86 194.70 176.35 195.89 176.76 196.95 Z M 177.13 197.87 L 177.49 198.79 C 177.90 199.84 179.09 200.37 180.14 199.96 C 181.20 199.55 181.72 198.36 181.31 197.30 L 180.96 196.38 C 180.55 195.33 179.36 194.80 178.30 195.21 C 177.24 195.62 176.72 196.81 177.13 197.87 Z M 177.48 198.77 L 177.84 199.70 C 178.24 200.76 179.43 201.29 180.48 200.89 C 181.54 200.48 182.07 199.30 181.67 198.24 L 181.32 197.31 C 180.91 196.25 179.73 195.72 178.67 196.13 C 177.61 196.53 177.08 197.71 177.48 198.77 Z M 177.83 199.69 L 178.18 200.63 C 178.58 201.69 179.76 202.23 180.82 201.83 C 181.88 201.44 182.42 200.25 182.03 199.19 L 181.67 198.25 C 181.28 197.19 180.10 196.65 179.03 197.05 C 177.97 197.45 177.43 198.63 177.83 199.69 Z M 178.18 200.62 L 178.53 201.57 C 178.92 202.63 180.10 203.18 181.16 202.79 C 182.22 202.40 182.77 201.22 182.38 200.16 L 182.03 199.21 C 181.64 198.14 180.46 197.60 179.40 197.99 C 178.34 198.38 177.79 199.55 178.18 200.62 Z M 178.52 201.55 L 178.86 202.51 C 179.25 203.57 180.42 204.13 181.48 203.75 C 182.55 203.36 183.11 202.19 182.72 201.12 L 182.38 200.17 C 182.00 199.11 180.83 198.55 179.76 198.93 C 178.70 199.32 178.14 200.49 178.52 201.55 Z M 178.86 202.49 L 179.18 203.41 C 179.55 204.47 180.72 205.04 181.79 204.66 C 182.86 204.29 183.42 203.12 183.05 202.05 L 182.73 201.14 C 182.35 200.07 181.19 199.51 180.12 199.88 C 179.05 200.25 178.49 201.42 178.86 202.49 Z M 179.18 203.39 L 179.49 204.32 C 179.86 205.39 181.03 205.96 182.10 205.59 C 183.17 205.22 183.74 204.06 183.37 202.99 L 183.05 202.06 C 182.68 200.99 181.52 200.42 180.45 200.79 C 179.38 201.16 178.81 202.32 179.18 203.39 Z M 179.49 204.31 L 179.81 205.25 C 180.17 206.33 181.34 206.90 182.41 206.54 C 183.48 206.17 184.05 205.01 183.69 203.94 L 183.37 203.00 C 183.01 201.93 181.85 201.35 180.77 201.72 C 179.70 202.08 179.13 203.24 179.49 204.31 Z M 179.81 205.25 L 180.13 206.21 C 180.49 207.28 181.65 207.86 182.73 207.50 C 183.80 207.14 184.37 205.98 184.01 204.90 L 183.69 203.94 C 183.33 202.87 182.17 202.30 181.10 202.66 C 180.03 203.02 179.45 204.18 179.81 205.25 Z M 180.13 206.20 L 180.46 207.19 C 180.82 208.26 181.98 208.84 183.05 208.48 C 184.12 208.12 184.70 206.96 184.34 205.89 L 184.02 204.91 C 183.66 203.84 182.50 203.26 181.43 203.62 C 180.35 203.97 179.77 205.13 180.13 206.20 Z M 180.46 207.19 L 180.78 208.15 C 181.14 209.22 182.30 209.80 183.37 209.44 C 184.44 209.08 185.02 207.92 184.66 206.85 L 184.34 205.89 C 183.99 204.82 182.83 204.24 181.75 204.60 C 180.68 204.95 180.10 206.11 180.46 207.19 Z M 180.78 208.15 L 181.10 209.10 C 181.46 210.17 182.61 210.75 183.69 210.39 C 184.76 210.04 185.34 208.88 184.98 207.81 L 184.66 206.85 C 184.30 205.78 183.15 205.20 182.07 205.56 C 181.00 205.92 180.42 207.07 180.78 208.15 Z M 181.10 209.10 L 181.42 210.06 C 181.78 211.13 182.93 211.71 184.01 211.35 C 185.08 211.00 185.66 209.84 185.30 208.77 L 184.98 207.81 C 184.62 206.74 183.47 206.16 182.39 206.51 C 181.32 206.87 180.74 208.03 181.10 209.10 Z M 181.42 210.06 L 181.74 211.02 C 182.10 212.09 183.25 212.67 184.32 212.31 C 185.39 211.96 185.97 210.80 185.62 209.73 L 185.30 208.77 C 184.94 207.70 183.79 207.12 182.72 207.48 C 181.64 207.83 181.06 208.99 181.42 210.06 Z M 181.74 211.02 L 182.05 211.97 C 182.41 213.04 183.57 213.62 184.64 213.27 C 185.71 212.91 186.29 211.75 185.93 210.68 L 185.62 209.73 C 185.26 208.66 184.11 208.08 183.04 208.44 C 181.97 208.79 181.38 209.95 181.74 211.02 Z M 182.05 211.97 L 182.36 212.90 C 182.72 213.97 183.87 214.55 184.94 214.20 C 186.01 213.84 186.59 212.69 186.24 211.62 L 185.93 210.69 C 185.58 209.62 184.42 209.03 183.35 209.39 C 182.28 209.74 181.70 210.90 182.05 211.97 Z M 182.36 212.90 L 182.69 213.88 C 183.04 214.95 184.19 215.54 185.26 215.18 C 186.33 214.83 186.92 213.68 186.56 212.61 L 186.24 211.62 C 185.89 210.55 184.74 209.97 183.66 210.32 C 182.59 210.67 182.01 211.83 182.36 212.90 Z M 182.69 213.88 L 183.01 214.86 C 183.36 215.93 184.51 216.52 185.58 216.17 C 186.65 215.82 187.24 214.67 186.89 213.60 L 186.57 212.61 C 186.22 211.54 185.06 210.96 183.99 211.31 C 182.92 211.66 182.34 212.81 182.69 213.88 Z M 183.01 214.86 L 183.32 215.81 C 183.66 216.89 184.81 217.47 185.88 217.13 C 186.96 216.78 187.54 215.63 187.20 214.56 L 186.89 213.60 C 186.54 212.53 185.39 211.94 184.32 212.29 C 183.25 212.64 182.66 213.79 183.01 214.86 Z M 183.32 215.81 L 183.61 216.74 C 183.95 217.81 185.10 218.40 186.17 218.06 C 187.25 217.72 187.84 216.58 187.50 215.50 L 187.20 214.57 C 186.86 213.50 185.71 212.90 184.64 213.25 C 183.57 213.59 182.97 214.73 183.32 215.81 Z M 183.61 216.73 L 183.90 217.65 C 184.23 218.72 185.38 219.32 186.45 218.98 C 187.52 218.65 188.12 217.50 187.78 216.43 L 187.50 215.51 C 187.16 214.44 186.02 213.84 184.95 214.18 C 183.87 214.51 183.27 215.66 183.61 216.73 Z M 183.89 217.63 L 184.18 218.57 C 184.51 219.65 185.65 220.25 186.72 219.92 C 187.80 219.59 188.40 218.46 188.07 217.38 L 187.79 216.44 C 187.46 215.37 186.32 214.76 185.25 215.09 C 184.17 215.42 183.57 216.56 183.89 217.63 Z M 184.18 218.56 L 184.47 219.54 C 184.79 220.61 185.93 221.22 187.00 220.90 C 188.08 220.58 188.69 219.45 188.37 218.37 L 188.08 217.39 C 187.75 216.32 186.62 215.71 185.55 216.03 C 184.47 216.35 183.86 217.48 184.18 218.56 Z M 184.47 219.53 L 184.75 220.49 C 185.07 221.57 186.20 222.18 187.28 221.87 C 188.35 221.55 188.97 220.42 188.65 219.34 L 188.37 218.38 C 188.05 217.30 186.92 216.69 185.85 217.00 C 184.77 217.32 184.15 218.45 184.47 219.53 Z M 184.76 220.49 L 185.03 221.44 C 185.35 222.52 186.48 223.13 187.55 222.82 C 188.63 222.50 189.25 221.38 188.93 220.30 L 188.65 219.35 C 188.34 218.27 187.21 217.65 186.14 217.97 C 185.06 218.28 184.44 219.41 184.76 220.49 Z M 185.04 221.44 L 185.31 222.38 C 185.62 223.46 186.75 224.07 187.83 223.76 C 188.90 223.44 189.52 222.32 189.20 221.24 L 188.93 220.30 C 188.62 219.23 187.49 218.61 186.41 218.92 C 185.34 219.24 184.72 220.36 185.04 221.44 Z M 185.31 222.38 L 185.60 223.35 C 185.92 224.43 187.04 225.04 188.12 224.72 C 189.19 224.41 189.80 223.28 189.49 222.21 L 189.20 221.24 C 188.89 220.17 187.76 219.55 186.68 219.87 C 185.61 220.18 185.00 221.31 185.31 222.38 Z M 185.60 223.36 L 185.90 224.34 C 186.21 225.41 187.34 226.02 188.41 225.70 C 189.48 225.38 190.09 224.25 189.78 223.18 L 189.48 222.20 C 189.16 221.13 188.04 220.52 186.96 220.84 C 185.89 221.16 185.28 222.29 185.60 223.36 Z M 185.90 224.34 L 186.19 225.31 C 186.51 226.38 187.64 226.98 188.71 226.66 C 189.78 226.34 190.38 225.21 190.06 224.14 L 189.77 223.18 C 189.45 222.11 188.32 221.50 187.25 221.83 C 186.18 222.15 185.58 223.28 185.90 224.34 Z M 186.19 225.31 L 186.48 226.25 C 186.80 227.32 187.93 227.92 189.00 227.60 C 190.07 227.28 190.67 226.15 190.34 225.08 L 190.06 224.14 C 189.73 223.07 188.61 222.47 187.54 222.79 C 186.47 223.12 185.87 224.24 186.19 225.31 Z M 186.48 226.26 L 186.77 227.18 C 187.09 228.25 188.22 228.85 189.28 228.52 C 190.35 228.20 190.95 227.07 190.62 226.01 L 190.34 225.08 C 190.01 224.01 188.89 223.41 187.82 223.74 C 186.76 224.06 186.16 225.19 186.48 226.26 Z M 186.77 227.19 L 187.08 228.18 C 187.40 229.25 188.53 229.84 189.59 229.52 C 190.66 229.19 191.25 228.06 190.93 227.00 L 190.62 226.00 C 190.29 224.94 189.17 224.34 188.10 224.67 C 187.04 225.00 186.44 226.12 186.77 227.19 Z M 187.08 228.19 L 187.38 229.15 C 187.70 230.21 188.83 230.81 189.89 230.48 C 190.95 230.15 191.55 229.03 191.22 227.97 L 190.92 227.00 C 190.60 225.94 189.47 225.34 188.41 225.67 C 187.35 226.00 186.75 227.12 187.08 228.19 Z M 187.38 229.15 L 187.67 230.09 C 188.00 231.15 189.12 231.74 190.18 231.42 C 191.24 231.09 191.84 229.96 191.51 228.90 L 191.22 227.97 C 190.89 226.91 189.77 226.31 188.71 226.64 C 187.65 226.97 187.05 228.09 187.38 229.15 Z M 187.67 230.09 L 187.96 231.00 C 188.28 232.06 189.41 232.65 190.46 232.33 C 191.52 232.00 192.12 230.87 191.79 229.82 L 191.51 228.90 C 191.18 227.85 190.06 227.25 189.00 227.58 C 187.94 227.91 187.35 229.03 187.67 230.09 Z M 187.96 231.00 L 188.23 231.88 C 188.56 232.94 189.68 233.53 190.74 233.20 C 191.79 232.87 192.38 231.75 192.06 230.69 L 191.79 229.82 C 191.46 228.76 190.34 228.17 189.28 228.49 C 188.22 228.82 187.63 229.94 187.96 231.00 Z M 188.23 231.89 L 188.52 232.78 C 188.85 233.84 189.97 234.42 191.02 234.09 C 192.08 233.76 192.67 232.64 192.33 231.59 L 192.05 230.69 C 191.72 229.63 190.60 229.05 189.54 229.38 C 188.49 229.71 187.90 230.83 188.23 231.89 Z M 188.52 232.80 L 188.83 233.76 C 189.17 234.81 190.30 235.38 191.35 235.05 C 192.40 234.71 192.97 233.58 192.64 232.53 L 192.33 231.57 C 191.99 230.52 190.86 229.95 189.81 230.28 C 188.76 230.62 188.19 231.75 188.52 232.80 Z M 188.84 233.77 L 189.19 234.84 C 189.54 235.88 190.67 236.45 191.72 236.10 C 192.76 235.75 193.33 234.63 192.98 233.58 L 192.63 232.52 C 192.28 231.47 191.15 230.90 190.11 231.25 C 189.06 231.60 188.49 232.73 188.84 233.77 Z M 189.20 234.85 L 189.51 235.75 C 189.86 236.79 191.00 237.35 192.04 236.99 C 193.08 236.64 193.64 235.51 193.28 234.46 L 192.97 233.57 C 192.62 232.52 191.49 231.97 190.44 232.32 C 189.40 232.68 188.85 233.81 189.20 234.85 Z M 189.51 235.76 L 189.84 236.69 C 190.20 237.73 191.33 238.28 192.37 237.92 C 193.41 237.57 193.96 236.43 193.60 235.39 L 193.28 234.46 C 192.92 233.42 191.78 232.87 190.74 233.23 C 189.70 233.58 189.15 234.72 189.51 235.76 Z M 189.84 236.70 L 190.18 237.67 C 190.54 238.70 191.67 239.25 192.71 238.89 C 193.75 238.53 194.29 237.40 193.93 236.36 L 193.60 235.39 C 193.24 234.35 192.10 233.80 191.06 234.16 C 190.03 234.52 189.48 235.66 189.84 236.70 Z M 190.18 237.66 L 190.52 238.64 C 190.88 239.68 192.01 240.23 193.05 239.87 C 194.08 239.51 194.63 238.38 194.27 237.34 L 193.93 236.36 C 193.57 235.32 192.44 234.78 191.40 235.14 C 190.37 235.50 189.82 236.63 190.18 237.66 Z M 190.52 238.64 L 190.85 239.60 C 191.20 240.64 192.33 241.19 193.37 240.83 C 194.41 240.48 194.96 239.35 194.60 238.31 L 194.27 237.35 C 193.92 236.31 192.79 235.76 191.75 236.11 C 190.71 236.47 190.16 237.60 190.52 238.64 Z M 190.85 239.59 L 191.18 240.58 C 191.53 241.62 192.66 242.17 193.69 241.82 C 194.73 241.47 195.29 240.34 194.94 239.31 L 194.61 238.32 C 194.25 237.28 193.13 236.73 192.09 237.08 C 191.05 237.43 190.49 238.55 190.85 239.59 Z M 191.18 240.56 L 191.51 241.58 C 191.86 242.62 192.98 243.19 194.02 242.85 C 195.06 242.50 195.62 241.38 195.28 240.34 L 194.94 239.32 C 194.60 238.28 193.48 237.72 192.44 238.06 C 191.40 238.40 190.83 239.52 191.18 240.56 Z M 191.51 241.57 L 191.82 242.53 C 192.15 243.57 193.27 244.15 194.31 243.81 C 195.35 243.48 195.92 242.37 195.59 241.33 L 195.28 240.36 C 194.95 239.32 193.84 238.75 192.79 239.08 C 191.75 239.41 191.18 240.53 191.51 241.57 Z M 191.82 242.51 L 192.10 243.43 C 192.42 244.47 193.53 245.06 194.57 244.74 C 195.62 244.41 196.20 243.31 195.88 242.26 L 195.59 241.34 C 195.27 240.30 194.16 239.72 193.12 240.04 C 192.08 240.36 191.49 241.47 191.82 242.51 Z M 192.10 243.41 L 192.36 244.30 C 192.67 245.35 193.77 245.94 194.82 245.63 C 195.86 245.32 196.46 244.22 196.15 243.17 L 195.88 242.28 C 195.57 241.24 194.47 240.64 193.42 240.96 C 192.38 241.27 191.78 242.37 192.10 243.41 Z M 192.36 244.28 L 192.63 245.23 C 192.93 246.28 194.03 246.88 195.07 246.58 C 196.12 246.28 196.72 245.18 196.42 244.14 L 196.15 243.19 C 195.85 242.14 194.75 241.54 193.71 241.84 C 192.66 242.14 192.06 243.24 192.36 244.28 Z M 192.63 245.21 L 192.89 246.18 C 193.18 247.23 194.27 247.84 195.32 247.55 C 196.37 247.26 196.98 246.18 196.69 245.13 L 196.43 244.16 C 196.14 243.11 195.05 242.49 194.00 242.78 C 192.95 243.07 192.34 244.16 192.63 245.21 Z M 192.89 246.15 L 193.14 247.11 C 193.41 248.17 194.49 248.80 195.54 248.52 C 196.60 248.25 197.23 247.17 196.95 246.12 L 196.70 245.15 C 196.42 244.10 195.35 243.47 194.29 243.74 C 193.24 244.02 192.61 245.10 192.89 246.15 Z M 193.13 247.09 L 193.37 248.05 C 193.63 249.11 194.70 249.75 195.75 249.49 C 196.81 249.23 197.46 248.16 197.20 247.11 L 196.96 246.14 C 196.70 245.09 195.63 244.44 194.57 244.70 C 193.52 244.96 192.87 246.03 193.13 247.09 Z M 193.36 248.02 L 193.59 249.01 C 193.83 250.07 194.89 250.73 195.95 250.49 C 197.01 250.24 197.67 249.19 197.43 248.13 L 197.20 247.14 C 196.96 246.08 195.90 245.41 194.84 245.66 C 193.78 245.90 193.12 246.96 193.36 248.02 Z M 193.58 248.98 L 193.80 249.98 C 194.02 251.05 195.07 251.73 196.13 251.50 C 197.20 251.27 197.88 250.23 197.65 249.16 L 197.44 248.15 C 197.21 247.09 196.16 246.41 195.10 246.64 C 194.03 246.87 193.36 247.91 193.58 248.98 Z M 193.79 249.96 L 193.99 250.95 C 194.20 252.02 195.24 252.71 196.31 252.49 C 197.37 252.28 198.07 251.24 197.85 250.18 L 197.66 249.19 C 197.44 248.12 196.40 247.43 195.34 247.64 C 194.27 247.85 193.58 248.89 193.79 249.96 Z M 193.99 250.93 L 194.17 251.89 C 194.37 252.96 195.40 253.66 196.47 253.45 C 197.54 253.25 198.24 252.22 198.04 251.15 L 197.86 250.19 C 197.65 249.13 196.62 248.42 195.55 248.63 C 194.49 248.83 193.78 249.86 193.99 250.93 Z M 194.16 251.87 L 194.34 252.86 C 194.54 253.93 195.56 254.64 196.63 254.45 C 197.70 254.25 198.41 253.23 198.22 252.16 L 198.04 251.17 C 197.85 250.10 196.82 249.39 195.75 249.58 C 194.68 249.77 193.97 250.80 194.16 251.87 Z M 194.34 252.84 L 194.51 253.85 C 194.70 254.92 195.72 255.64 196.79 255.45 C 197.86 255.27 198.58 254.25 198.40 253.18 L 198.22 252.17 C 198.04 251.10 197.02 250.38 195.95 250.57 C 194.88 250.75 194.16 251.77 194.34 252.84 Z M 194.51 253.83 L 194.67 254.79 C 194.84 255.86 195.85 256.59 196.92 256.42 C 198.00 256.25 198.73 255.24 198.56 254.16 L 198.40 253.20 C 198.23 252.12 197.22 251.39 196.14 251.57 C 195.07 251.74 194.34 252.75 194.51 253.83 Z M 194.66 254.77 L 194.81 255.78 C 194.97 256.85 195.97 257.59 197.05 257.44 C 198.12 257.28 198.87 256.28 198.71 255.20 L 198.56 254.19 C 198.40 253.11 197.40 252.37 196.32 252.53 C 195.25 252.69 194.51 253.69 194.66 254.77 Z M 194.81 255.74 L 194.98 257.04 C 195.12 258.11 196.11 258.87 197.18 258.73 C 198.26 258.59 199.02 257.61 198.88 256.53 L 198.71 255.24 C 198.57 254.16 197.58 253.40 196.51 253.54 C 195.43 253.68 194.67 254.67 194.81 255.74 Z M 194.98 256.87 L 194.99 257.26 C 195.04 258.33 195.95 259.17 197.03 259.12 C 198.11 259.08 198.95 258.16 198.90 257.08 L 198.88 256.70 C 198.83 255.62 197.92 254.78 196.84 254.83 C 195.76 254.88 194.93 255.79 194.98 256.87 Z M 198.84 256.79 L 198.73 256.27 C 198.52 255.23 197.51 254.55 196.46 254.76 C 195.42 254.97 194.74 255.98 194.95 257.03 L 195.06 257.55 C 195.26 258.59 196.28 259.27 197.32 259.06 C 198.37 258.85 199.04 257.84 198.84 256.79 Z M 198.69 256.32 L 198.53 255.39 C 198.35 254.37 197.38 253.69 196.35 253.87 C 195.33 254.04 194.65 255.02 194.83 256.04 L 194.99 256.97 C 195.17 257.99 196.14 258.68 197.17 258.50 C 198.19 258.32 198.87 257.35 198.69 256.32 Z M 198.48 255.41 L 198.28 254.23 C 198.11 253.23 197.17 252.56 196.18 252.73 C 195.18 252.90 194.51 253.84 194.68 254.84 L 194.88 256.02 C 195.04 257.02 195.99 257.69 196.98 257.52 C 197.98 257.35 198.65 256.41 198.48 255.41 Z M 198.23 254.24 L 198.03 252.99 C 197.87 252.02 196.95 251.36 195.98 251.52 C 195.01 251.68 194.36 252.60 194.52 253.57 L 194.73 254.82 C 194.89 255.79 195.80 256.45 196.77 256.29 C 197.74 256.13 198.39 255.21 198.23 254.24 Z M 197.98 253.00 L 197.81 251.94 C 197.65 250.99 196.76 250.35 195.82 250.51 C 194.87 250.66 194.24 251.55 194.39 252.50 L 194.56 253.56 C 194.72 254.50 195.61 255.14 196.55 254.98 C 197.49 254.83 198.13 253.94 197.98 253.00 Z M 197.76 251.94 L 197.60 250.94 C 197.45 250.02 196.58 249.40 195.66 249.55 C 194.74 249.70 194.12 250.56 194.27 251.48 L 194.43 252.49 C 194.58 253.41 195.45 254.03 196.37 253.88 C 197.29 253.73 197.91 252.86 197.76 251.94 Z M 197.56 250.95 L 197.40 249.99 C 197.26 249.09 196.41 248.48 195.52 248.63 C 194.62 248.77 194.01 249.62 194.16 250.51 L 194.31 251.47 C 194.46 252.37 195.30 252.98 196.20 252.83 C 197.09 252.69 197.70 251.85 197.56 250.95 Z M 197.36 249.99 L 197.21 249.05 C 197.07 248.18 196.24 247.59 195.37 247.73 C 194.50 247.87 193.91 248.69 194.05 249.56 L 194.20 250.50 C 194.34 251.38 195.16 251.97 196.03 251.83 C 196.91 251.69 197.50 250.87 197.36 249.99 Z M 197.18 249.06 L 197.12 248.70 C 196.98 247.85 196.17 247.26 195.32 247.40 C 194.46 247.54 193.88 248.35 194.02 249.20 L 194.08 249.56 C 194.21 250.42 195.02 251.00 195.88 250.86 C 196.73 250.72 197.31 249.92 197.18 249.06 Z"
      fill="black"
      fill-rule="nonzero" /><path d="M 236.75 72.34 L 236.75 73.24 C 236.75 74.17 237.50 74.92 238.43 74.92 C 239.35 74.92 240.10 74.17 240.11 73.25 L 240.11 72.35 C 240.11 71.42 239.36 70.67 238.44 70.66 C 237.51 70.66 236.76 71.41 236.75 72.34 Z M 236.67 73.22 L 236.65 74.16 C 236.64 75.13 237.41 75.93 238.39 75.95 C 239.36 75.96 240.16 75.18 240.18 74.21 L 240.19 73.27 C 240.21 72.30 239.43 71.49 238.46 71.48 C 237.48 71.46 236.68 72.24 236.67 73.22 Z M 236.57 74.11 L 236.53 75.13 C 236.49 76.15 237.28 77.01 238.30 77.05 C 239.32 77.09 240.18 76.29 240.22 75.27 L 240.26 74.25 C 240.30 73.23 239.51 72.37 238.49 72.33 C 237.47 72.29 236.61 73.09 236.57 74.11 Z M 236.44 75.07 L 236.37 76.21 C 236.29 77.27 237.10 78.20 238.17 78.27 C 239.23 78.34 240.16 77.53 240.23 76.47 L 240.31 75.33 C 240.38 74.27 239.57 73.34 238.51 73.27 C 237.44 73.20 236.52 74.00 236.44 75.07 Z M 236.33 76.15 L 236.24 77.11 C 236.14 78.20 236.94 79.16 238.03 79.27 C 239.12 79.37 240.08 78.57 240.18 77.48 L 240.27 76.52 C 240.37 75.43 239.57 74.47 238.48 74.37 C 237.39 74.26 236.43 75.07 236.33 76.15 Z M 236.24 77.08 L 236.13 78.09 C 236.01 79.18 236.79 80.15 237.88 80.28 C 238.97 80.40 239.95 79.61 240.07 78.52 L 240.18 77.51 C 240.30 76.42 239.52 75.44 238.43 75.32 C 237.34 75.20 236.36 75.99 236.24 77.08 Z M 236.13 78.06 L 236.00 79.09 C 235.86 80.18 236.63 81.17 237.72 81.31 C 238.81 81.44 239.80 80.67 239.94 79.58 L 240.07 78.55 C 240.20 77.47 239.43 76.47 238.35 76.34 C 237.26 76.20 236.27 76.97 236.13 78.06 Z M 236.00 79.06 L 235.86 80.08 C 235.71 81.16 236.46 82.17 237.55 82.32 C 238.64 82.47 239.64 81.71 239.79 80.63 L 239.94 79.61 C 240.09 78.52 239.33 77.52 238.24 77.37 C 237.16 77.22 236.15 77.97 236.00 79.06 Z M 235.86 80.05 L 235.71 81.01 C 235.54 82.10 236.29 83.12 237.37 83.28 C 238.46 83.45 239.48 82.71 239.64 81.62 L 239.79 80.66 C 239.96 79.57 239.21 78.55 238.13 78.39 C 237.04 78.22 236.03 78.96 235.86 80.05 Z M 235.72 80.98 L 235.53 82.05 C 235.34 83.13 236.07 84.16 237.15 84.35 C 238.24 84.54 239.27 83.81 239.45 82.73 L 239.64 81.66 C 239.83 80.57 239.10 79.54 238.02 79.36 C 236.93 79.17 235.90 79.89 235.72 80.98 Z M 235.54 82.01 L 235.34 83.02 C 235.13 84.10 235.83 85.15 236.91 85.36 C 237.99 85.57 239.04 84.87 239.25 83.79 L 239.45 82.77 C 239.66 81.69 238.95 80.64 237.87 80.43 C 236.79 80.22 235.75 80.93 235.54 82.01 Z M 235.35 82.98 L 235.15 83.92 C 234.91 84.99 235.60 86.05 236.67 86.29 C 237.75 86.52 238.81 85.84 239.04 84.76 L 239.24 83.83 C 239.47 82.75 238.79 81.69 237.71 81.46 C 236.64 81.23 235.58 81.91 235.35 82.98 Z M 235.15 83.89 L 234.94 84.79 C 234.70 85.86 235.36 86.93 236.44 87.18 C 237.51 87.43 238.58 86.76 238.82 85.69 L 239.03 84.79 C 239.28 83.72 238.61 82.65 237.54 82.40 C 236.47 82.15 235.40 82.82 235.15 83.89 Z M 234.95 84.78 L 234.73 85.70 C 234.47 86.77 235.14 87.84 236.21 88.10 C 237.28 88.35 238.35 87.69 238.60 86.62 L 238.82 85.70 C 239.08 84.63 238.41 83.56 237.34 83.30 C 236.27 83.05 235.20 83.71 234.95 84.78 Z M 234.73 85.69 L 234.50 86.64 C 234.24 87.71 234.90 88.78 235.97 89.04 C 237.04 89.30 238.12 88.64 238.38 87.57 L 238.60 86.62 C 238.86 85.55 238.20 84.48 237.13 84.22 C 236.06 83.96 234.99 84.62 234.73 85.69 Z M 234.50 86.63 L 234.26 87.60 C 234.00 88.67 234.65 89.75 235.72 90.02 C 236.79 90.28 237.87 89.63 238.13 88.56 L 238.37 87.58 C 238.64 86.51 237.98 85.43 236.91 85.17 C 235.85 84.91 234.77 85.56 234.50 86.63 Z M 234.27 87.59 L 234.01 88.60 C 233.74 89.67 234.39 90.75 235.46 91.02 C 236.52 91.29 237.61 90.64 237.88 89.58 L 238.13 88.57 C 238.40 87.50 237.75 86.42 236.69 86.15 C 235.62 85.88 234.54 86.53 234.27 87.59 Z M 234.01 88.59 L 233.77 89.53 C 233.49 90.60 234.13 91.69 235.20 91.97 C 236.26 92.24 237.35 91.60 237.63 90.54 L 237.87 89.59 C 238.15 88.52 237.51 87.43 236.45 87.16 C 235.38 86.88 234.29 87.52 234.01 88.59 Z M 233.77 89.52 L 233.52 90.46 C 233.23 91.52 233.87 92.62 234.93 92.90 C 235.99 93.19 237.09 92.56 237.37 91.49 L 237.62 90.55 C 237.91 89.49 237.28 88.39 236.21 88.11 C 235.15 87.82 234.06 88.46 233.77 89.52 Z M 233.52 90.44 L 233.26 91.41 C 232.96 92.47 233.58 93.57 234.65 93.86 C 235.71 94.16 236.81 93.53 237.10 92.47 L 237.37 91.51 C 237.66 90.45 237.04 89.35 235.98 89.05 C 234.92 88.76 233.82 89.38 233.52 90.44 Z M 233.26 91.39 L 232.98 92.37 C 232.67 93.43 233.28 94.54 234.34 94.84 C 235.40 95.15 236.51 94.54 236.81 93.48 L 237.10 92.49 C 237.40 91.43 236.79 90.33 235.73 90.02 C 234.67 89.72 233.57 90.33 233.26 91.39 Z M 232.98 92.35 L 232.69 93.33 C 232.37 94.39 232.97 95.50 234.02 95.82 C 235.08 96.14 236.19 95.54 236.51 94.48 L 236.81 93.50 C 237.12 92.44 236.52 91.33 235.47 91.01 C 234.41 90.70 233.30 91.30 232.98 92.35 Z M 232.69 93.31 L 232.41 94.23 C 232.08 95.28 232.66 96.40 233.72 96.73 C 234.77 97.06 235.89 96.47 236.22 95.42 L 236.50 94.50 C 236.83 93.45 236.25 92.33 235.20 92.00 C 234.14 91.67 233.02 92.26 232.69 93.31 Z M 232.41 94.21 L 232.11 95.14 C 231.77 96.19 232.34 97.31 233.39 97.65 C 234.44 98.00 235.57 97.42 235.91 96.37 L 236.21 95.44 C 236.55 94.39 235.98 93.27 234.93 92.93 C 233.88 92.58 232.76 93.16 232.41 94.21 Z M 232.12 95.12 L 231.80 96.07 C 231.44 97.11 232.00 98.24 233.05 98.60 C 234.09 98.95 235.23 98.39 235.58 97.35 L 235.90 96.40 C 236.25 95.35 235.69 94.22 234.65 93.87 C 233.60 93.51 232.47 94.07 232.12 95.12 Z M 231.80 96.04 L 231.46 97.01 C 231.10 98.05 231.65 99.19 232.69 99.56 C 233.73 99.92 234.87 99.38 235.23 98.34 L 235.57 97.37 C 235.94 96.33 235.39 95.19 234.35 94.82 C 233.31 94.46 232.17 95.00 231.80 96.04 Z M 231.47 96.99 L 231.12 97.96 C 230.74 99.00 231.28 100.14 232.31 100.52 C 233.35 100.90 234.49 100.36 234.87 99.33 L 235.22 98.36 C 235.60 97.32 235.07 96.18 234.03 95.80 C 232.99 95.42 231.85 95.96 231.47 96.99 Z M 231.13 97.94 L 230.79 98.83 C 230.40 99.86 230.93 101.01 231.96 101.40 C 232.99 101.79 234.14 101.27 234.53 100.24 L 234.86 99.35 C 235.25 98.31 234.73 97.16 233.70 96.78 C 232.67 96.39 231.51 96.91 231.13 97.94 Z M 230.80 98.81 L 230.45 99.72 C 230.05 100.75 230.56 101.90 231.59 102.30 C 232.62 102.70 233.77 102.19 234.17 101.16 L 234.52 100.25 C 234.92 99.23 234.41 98.07 233.38 97.67 C 232.35 97.27 231.20 97.79 230.80 98.81 Z M 230.45 99.70 L 230.09 100.63 C 229.68 101.65 230.18 102.81 231.21 103.22 C 232.23 103.63 233.39 103.13 233.80 102.10 L 234.16 101.18 C 234.57 100.15 234.07 98.99 233.05 98.59 C 232.02 98.18 230.86 98.68 230.45 99.70 Z M 230.09 100.61 L 229.71 101.56 C 229.29 102.58 229.79 103.74 230.81 104.16 C 231.83 104.57 232.99 104.08 233.41 103.06 L 233.79 102.12 C 234.21 101.10 233.72 99.93 232.69 99.52 C 231.67 99.10 230.51 99.59 230.09 100.61 Z M 229.72 101.54 L 229.32 102.51 C 228.89 103.52 229.38 104.69 230.39 105.11 C 231.41 105.54 232.58 105.05 233.00 104.04 L 233.40 103.07 C 233.83 102.06 233.34 100.89 232.32 100.46 C 231.31 100.04 230.14 100.52 229.72 101.54 Z M 229.32 102.49 L 228.92 103.44 C 228.49 104.45 228.97 105.62 229.98 106.05 C 231.00 106.48 232.17 106.01 232.60 104.99 L 233.00 104.05 C 233.43 103.03 232.95 101.86 231.94 101.43 C 230.92 101.00 229.75 101.48 229.32 102.49 Z M 228.93 103.42 L 228.54 104.33 C 228.10 105.35 228.57 106.52 229.58 106.96 C 230.59 107.39 231.77 106.93 232.20 105.91 L 232.59 105.00 C 233.03 103.99 232.56 102.82 231.55 102.38 C 230.54 101.94 229.36 102.41 228.93 103.42 Z M 228.54 104.32 L 228.14 105.24 C 227.69 106.25 228.15 107.43 229.16 107.87 C 230.17 108.31 231.35 107.85 231.79 106.84 L 232.20 105.93 C 232.64 104.92 232.18 103.74 231.17 103.30 C 230.16 102.85 228.98 103.31 228.54 104.32 Z M 228.14 105.23 L 227.73 106.15 C 227.28 107.15 227.73 108.33 228.74 108.78 C 229.74 109.24 230.92 108.79 231.38 107.78 L 231.79 106.86 C 232.24 105.85 231.79 104.67 230.78 104.22 C 229.78 103.77 228.60 104.22 228.14 105.23 Z M 227.74 106.13 L 227.32 107.05 C 226.86 108.05 227.30 109.24 228.30 109.69 C 229.30 110.15 230.49 109.71 230.95 108.71 L 231.37 107.79 C 231.83 106.79 231.39 105.61 230.39 105.15 C 229.38 104.69 228.20 105.13 227.74 106.13 Z M 227.33 107.03 L 226.90 107.94 C 226.43 108.94 226.86 110.13 227.86 110.59 C 228.85 111.06 230.04 110.64 230.51 109.64 L 230.94 108.73 C 231.41 107.73 230.98 106.54 229.98 106.07 C 228.98 105.60 227.80 106.03 227.33 107.03 Z M 226.91 107.92 L 226.47 108.82 C 225.99 109.81 226.41 111.00 227.40 111.48 C 228.39 111.96 229.59 111.55 230.07 110.56 L 230.50 109.66 C 230.98 108.66 230.57 107.47 229.58 106.99 C 228.58 106.51 227.39 106.93 226.91 107.92 Z M 226.48 108.80 L 226.03 109.70 C 225.54 110.69 225.94 111.89 226.93 112.38 C 227.91 112.87 229.11 112.47 229.61 111.49 L 230.06 110.58 C 230.55 109.59 230.15 108.39 229.16 107.90 C 228.17 107.41 226.98 107.81 226.48 108.80 Z M 226.04 109.69 L 225.58 110.58 C 225.08 111.56 225.47 112.76 226.45 113.26 C 227.43 113.77 228.64 113.38 229.14 112.40 L 229.60 111.51 C 230.10 110.52 229.71 109.32 228.73 108.82 C 227.75 108.32 226.54 108.70 226.04 109.69 Z M 225.59 110.56 L 225.13 111.44 C 224.62 112.42 225.00 113.62 225.97 114.14 C 226.95 114.65 228.16 114.27 228.67 113.30 L 229.13 112.41 C 229.64 111.44 229.27 110.23 228.29 109.72 C 227.31 109.21 226.11 109.58 225.59 110.56 Z M 225.14 111.43 L 224.67 112.30 C 224.15 113.27 224.52 114.48 225.49 115.00 C 226.46 115.52 227.67 115.16 228.19 114.18 L 228.66 113.31 C 229.18 112.34 228.81 111.13 227.84 110.61 C 226.87 110.09 225.66 110.45 225.14 111.43 Z M 224.68 112.29 L 224.20 113.16 C 223.68 114.13 224.04 115.34 225.01 115.87 C 225.97 116.40 227.19 116.04 227.71 115.07 L 228.19 114.20 C 228.71 113.23 228.35 112.01 227.38 111.49 C 226.42 110.96 225.20 111.32 224.68 112.29 Z M 224.21 113.16 L 223.73 114.03 C 223.20 115.00 223.55 116.21 224.52 116.74 C 225.49 117.27 226.70 116.92 227.23 115.95 L 227.71 115.08 C 228.24 114.11 227.88 112.90 226.92 112.37 C 225.95 111.84 224.74 112.19 224.21 113.16 Z M 223.73 114.02 L 223.26 114.89 C 222.72 115.85 223.07 117.06 224.04 117.60 C 225.00 118.13 226.22 117.78 226.75 116.82 L 227.23 115.95 C 227.76 114.99 227.41 113.77 226.44 113.24 C 225.48 112.71 224.27 113.06 223.73 114.02 Z M 223.26 114.88 L 222.78 115.75 C 222.24 116.71 222.59 117.93 223.55 118.46 C 224.51 119.00 225.73 118.65 226.27 117.69 L 226.75 116.82 C 227.28 115.86 226.94 114.64 225.97 114.11 C 225.01 113.57 223.79 113.92 223.26 114.88 Z M 222.78 115.74 L 222.29 116.62 C 221.75 117.58 222.10 118.79 223.06 119.33 C 224.02 119.87 225.24 119.53 225.77 118.57 L 226.26 117.69 C 226.80 116.73 226.46 115.51 225.50 114.98 C 224.53 114.44 223.32 114.78 222.78 115.74 Z M 222.29 116.61 L 221.80 117.49 C 221.26 118.45 221.60 119.66 222.56 120.20 C 223.52 120.75 224.74 120.41 225.28 119.45 L 225.77 118.57 C 226.31 117.61 225.97 116.39 225.01 115.85 C 224.05 115.31 222.83 115.65 222.29 116.61 Z M 221.80 117.48 L 221.31 118.36 C 220.76 119.32 221.10 120.54 222.06 121.08 C 223.02 121.62 224.23 121.29 224.78 120.33 L 225.28 119.45 C 225.82 118.49 225.48 117.27 224.52 116.73 C 223.57 116.19 222.35 116.52 221.80 117.48 Z M 221.31 118.35 L 220.81 119.23 C 220.26 120.19 220.59 121.41 221.55 121.96 C 222.51 122.50 223.73 122.17 224.27 121.21 L 224.77 120.33 C 225.32 119.38 224.99 118.16 224.03 117.61 C 223.07 117.06 221.85 117.40 221.31 118.35 Z M 220.81 119.23 L 220.31 120.10 C 219.76 121.06 220.08 122.28 221.04 122.83 C 222.00 123.38 223.22 123.05 223.77 122.09 L 224.27 121.22 C 224.82 120.26 224.49 119.04 223.53 118.49 C 222.58 117.94 221.36 118.27 220.81 119.23 Z M 220.31 120.10 L 219.80 120.97 C 219.25 121.93 219.57 123.15 220.53 123.70 C 221.48 124.25 222.70 123.93 223.26 122.97 L 223.76 122.10 C 224.32 121.15 223.99 119.92 223.04 119.37 C 222.08 118.82 220.86 119.14 220.31 120.10 Z M 219.81 120.97 L 219.30 121.84 C 218.74 122.79 219.06 124.01 220.02 124.57 C 220.97 125.12 222.19 124.80 222.75 123.85 L 223.25 122.98 C 223.81 122.03 223.49 120.80 222.54 120.25 C 221.58 119.69 220.36 120.01 219.81 120.97 Z M 219.30 121.83 L 218.79 122.69 C 218.23 123.64 218.55 124.87 219.50 125.43 C 220.45 125.98 221.68 125.67 222.23 124.72 L 222.74 123.85 C 223.30 122.90 222.98 121.68 222.03 121.12 C 221.08 120.56 219.86 120.88 219.30 121.83 Z M 218.80 122.69 L 218.29 123.54 C 217.73 124.49 218.04 125.71 218.99 126.28 C 219.94 126.84 221.16 126.53 221.72 125.58 L 222.23 124.72 C 222.79 123.78 222.48 122.55 221.53 121.99 C 220.58 121.43 219.36 121.74 218.80 122.69 Z M 218.29 123.53 L 217.79 124.38 C 217.22 125.32 217.53 126.55 218.48 127.12 C 219.42 127.68 220.65 127.37 221.21 126.43 L 221.72 125.58 C 222.29 124.64 221.98 123.41 221.03 122.85 C 220.09 122.28 218.86 122.59 218.29 123.53 Z M 217.79 124.37 L 217.26 125.25 C 216.69 126.19 217.00 127.42 217.94 127.99 C 218.88 128.56 220.11 128.25 220.68 127.31 L 221.21 126.43 C 221.78 125.49 221.48 124.26 220.53 123.69 C 219.59 123.12 218.36 123.43 217.79 124.37 Z M 217.27 125.24 L 216.74 126.11 C 216.16 127.05 216.46 128.28 217.40 128.85 C 218.34 129.43 219.57 129.13 220.14 128.19 L 220.68 127.32 C 221.25 126.38 220.95 125.15 220.01 124.58 C 219.07 124.00 217.84 124.30 217.27 125.24 Z M 216.74 126.10 L 216.21 126.96 C 215.63 127.90 215.93 129.13 216.86 129.71 C 217.80 130.29 219.03 129.99 219.61 129.06 L 220.14 128.20 C 220.72 127.26 220.43 126.03 219.49 125.45 C 218.55 124.87 217.32 125.17 216.74 126.10 Z M 216.22 126.95 L 215.69 127.80 C 215.11 128.73 215.40 129.96 216.33 130.55 C 217.27 131.13 218.50 130.84 219.08 129.91 L 219.61 129.06 C 220.19 128.13 219.90 126.90 218.97 126.31 C 218.03 125.73 216.80 126.02 216.22 126.95 Z M 215.70 127.79 L 215.18 128.62 C 214.59 129.56 214.87 130.79 215.81 131.37 C 216.74 131.96 217.97 131.68 218.56 130.74 L 219.08 129.91 C 219.66 128.98 219.38 127.75 218.45 127.16 C 217.51 126.58 216.28 126.86 215.70 127.79 Z M 215.18 128.62 L 214.66 129.44 C 214.07 130.37 214.35 131.60 215.28 132.19 C 216.22 132.78 217.45 132.50 218.04 131.57 L 218.55 130.75 C 219.14 129.82 218.86 128.58 217.93 128.00 C 217.00 127.41 215.77 127.69 215.18 128.62 Z M 214.67 129.43 L 214.12 130.29 C 213.53 131.22 213.80 132.45 214.73 133.04 C 215.66 133.63 216.90 133.36 217.49 132.43 L 218.03 131.57 C 218.62 130.64 218.35 129.41 217.42 128.82 C 216.49 128.23 215.26 128.50 214.67 129.43 Z M 214.12 130.28 L 213.58 131.13 C 212.99 132.06 213.26 133.29 214.18 133.88 C 215.11 134.48 216.35 134.21 216.94 133.28 L 217.48 132.44 C 218.08 131.51 217.81 130.27 216.88 129.68 C 215.95 129.08 214.72 129.35 214.12 130.28 Z M 213.59 131.12 L 213.04 131.96 C 212.45 132.89 212.71 134.12 213.64 134.72 C 214.56 135.32 215.80 135.05 216.40 134.13 L 216.94 133.29 C 217.53 132.36 217.27 131.13 216.34 130.53 C 215.42 129.93 214.18 130.20 213.59 131.12 Z M 213.05 131.95 L 212.51 132.79 C 211.90 133.71 212.17 134.95 213.09 135.55 C 214.01 136.15 215.25 135.89 215.85 134.96 L 216.39 134.13 C 216.99 133.21 216.73 131.97 215.81 131.37 C 214.89 130.77 213.65 131.03 213.05 131.95 Z M 212.51 132.78 L 211.97 133.61 C 211.36 134.53 211.62 135.77 212.54 136.37 C 213.46 136.98 214.70 136.72 215.30 135.80 L 215.84 134.97 C 216.45 134.05 216.19 132.81 215.27 132.21 C 214.35 131.60 213.12 131.86 212.51 132.78 Z M 211.97 133.60 L 211.41 134.46 C 210.80 135.37 211.05 136.61 211.97 137.22 C 212.89 137.83 214.12 137.58 214.73 136.66 L 215.30 135.80 C 215.90 134.89 215.65 133.65 214.73 133.04 C 213.82 132.43 212.58 132.68 211.97 133.60 Z M 211.41 134.45 L 210.83 135.32 C 210.22 136.23 210.47 137.47 211.38 138.08 C 212.30 138.70 213.54 138.45 214.15 137.53 L 214.73 136.66 C 215.34 135.75 215.09 134.51 214.17 133.90 C 213.26 133.29 212.02 133.53 211.41 134.45 Z M 210.83 135.31 L 210.26 136.17 C 209.65 137.08 209.89 138.32 210.81 138.93 C 211.72 139.55 212.96 139.30 213.57 138.39 L 214.15 137.54 C 214.76 136.62 214.51 135.38 213.60 134.77 C 212.69 134.16 211.45 134.40 210.83 135.31 Z M 210.26 136.16 L 209.71 136.99 C 209.09 137.91 209.34 139.14 210.25 139.76 C 211.16 140.37 212.40 140.13 213.02 139.22 L 213.57 138.39 C 214.19 137.48 213.94 136.24 213.03 135.62 C 212.12 135.01 210.88 135.25 210.26 136.16 Z M 209.71 136.99 L 209.17 137.78 C 208.56 138.70 208.80 139.94 209.71 140.55 C 210.63 141.17 211.87 140.92 212.48 140.01 L 213.02 139.22 C 213.63 138.30 213.39 137.07 212.48 136.45 C 211.56 135.84 210.32 136.08 209.71 136.99 Z M 209.17 137.78 L 208.61 138.62 C 207.99 139.54 208.24 140.78 209.15 141.39 C 210.07 142.00 211.30 141.76 211.92 140.85 L 212.48 140.01 C 213.10 139.10 212.85 137.86 211.94 137.24 C 211.03 136.63 209.79 136.87 209.17 137.78 Z M 208.61 138.63 L 208.01 139.52 C 207.40 140.43 207.64 141.67 208.56 142.28 C 209.47 142.90 210.71 142.65 211.32 141.74 L 211.92 140.85 C 212.53 139.93 212.29 138.69 211.37 138.08 C 210.46 137.47 209.22 137.71 208.61 138.63 Z M 208.01 139.51 L 207.46 140.34 C 206.84 141.25 207.09 142.49 208.00 143.11 C 208.91 143.72 210.15 143.48 210.77 142.56 L 211.32 141.74 C 211.93 140.82 211.69 139.59 210.78 138.97 C 209.86 138.36 208.63 138.60 208.01 139.51 Z M 207.46 140.34 L 206.94 141.11 C 206.32 142.02 206.56 143.26 207.48 143.88 C 208.39 144.49 209.63 144.25 210.24 143.34 L 210.76 142.57 C 211.38 141.65 211.14 140.42 210.23 139.80 C 209.31 139.18 208.08 139.42 207.46 140.34 Z M 206.94 141.10 L 206.43 141.86 C 205.81 142.77 206.04 144.01 206.95 144.63 C 207.86 145.25 209.10 145.01 209.72 144.11 L 210.24 143.35 C 210.86 142.44 210.62 141.20 209.71 140.58 C 208.80 139.96 207.56 140.19 206.94 141.10 Z M 206.43 141.86 L 205.90 142.63 C 205.27 143.54 205.51 144.78 206.41 145.40 C 207.32 146.02 208.56 145.79 209.18 144.89 L 209.72 144.11 C 210.34 143.20 210.11 141.96 209.20 141.34 C 208.29 140.72 207.05 140.95 206.43 141.86 Z M 205.90 142.64 L 205.34 143.44 C 204.72 144.35 204.96 145.59 205.86 146.21 C 206.77 146.83 208.01 146.60 208.63 145.69 L 209.18 144.88 C 209.80 143.98 209.57 142.74 208.66 142.12 C 207.76 141.50 206.52 141.73 205.90 142.64 Z M 205.34 143.45 L 204.74 144.34 C 204.13 145.25 204.36 146.49 205.28 147.10 C 206.19 147.72 207.42 147.48 208.04 146.57 L 208.64 145.68 C 209.25 144.77 209.01 143.53 208.10 142.92 C 207.19 142.30 205.95 142.54 205.34 143.45 Z M 204.73 144.35 L 204.20 145.16 C 203.59 146.07 203.84 147.31 204.75 147.91 C 205.67 148.52 206.90 148.27 207.51 147.36 L 208.05 146.55 C 208.65 145.64 208.41 144.40 207.49 143.80 C 206.58 143.19 205.34 143.44 204.73 144.35 Z M 204.19 145.17 L 203.66 145.98 C 203.06 146.90 203.31 148.13 204.23 148.73 C 205.15 149.34 206.38 149.08 206.98 148.16 L 207.51 147.35 C 208.12 146.43 207.86 145.20 206.95 144.60 C 206.03 143.99 204.80 144.25 204.19 145.17 Z M 203.66 145.99 L 203.10 146.84 C 202.50 147.76 202.76 148.99 203.68 149.59 C 204.60 150.19 205.83 149.93 206.43 149.01 L 206.98 148.16 C 207.58 147.24 207.32 146.01 206.41 145.41 C 205.49 144.81 204.26 145.07 203.66 145.99 Z M 203.10 146.84 L 202.53 147.71 C 201.93 148.63 202.19 149.86 203.11 150.46 C 204.03 151.06 205.26 150.80 205.86 149.88 L 206.43 149.01 C 207.02 148.09 206.76 146.86 205.85 146.26 C 204.93 145.66 203.70 145.92 203.10 146.84 Z M 202.53 147.71 L 201.97 148.58 C 201.37 149.50 201.63 150.73 202.55 151.32 C 203.47 151.92 204.70 151.66 205.30 150.74 L 205.86 149.88 C 206.46 148.96 206.20 147.73 205.28 147.13 C 204.36 146.53 203.13 146.79 202.53 147.71 Z M 201.97 148.58 L 201.40 149.46 C 200.80 150.38 201.06 151.61 201.98 152.21 C 202.89 152.80 204.12 152.54 204.72 151.63 L 205.29 150.74 C 205.89 149.83 205.63 148.60 204.71 148.00 C 203.80 147.40 202.57 147.66 201.97 148.58 Z M 201.39 149.47 L 200.84 150.33 C 200.24 151.25 200.51 152.48 201.43 153.07 C 202.35 153.66 203.57 153.40 204.17 152.48 L 204.72 151.62 C 205.32 150.70 205.05 149.47 204.13 148.88 C 203.21 148.29 201.99 148.55 201.39 149.47 Z M 200.83 150.34 L 200.30 151.18 C 199.71 152.11 199.98 153.33 200.91 153.92 C 201.83 154.51 203.06 154.23 203.64 153.31 L 204.18 152.47 C 204.76 151.54 204.49 150.32 203.56 149.73 C 202.64 149.15 201.41 149.42 200.83 150.34 Z M 200.28 151.21 L 199.77 152.03 C 199.20 152.97 199.49 154.19 200.43 154.76 C 201.36 155.33 202.58 155.04 203.15 154.11 L 203.66 153.28 C 204.23 152.35 203.94 151.13 203.01 150.56 C 202.07 149.98 200.85 150.28 200.28 151.21 Z M 199.75 152.07 L 199.27 152.90 C 198.72 153.84 199.03 155.05 199.98 155.61 C 200.92 156.16 202.13 155.84 202.69 154.90 L 203.17 154.07 C 203.72 153.13 203.41 151.92 202.46 151.36 C 201.52 150.81 200.31 151.13 199.75 152.07 Z M 199.25 152.94 L 198.77 153.79 C 198.24 154.75 198.58 155.96 199.54 156.49 C 200.50 157.02 201.70 156.67 202.23 155.72 L 202.71 154.86 C 203.24 153.90 202.90 152.70 201.94 152.17 C 200.98 151.63 199.78 151.98 199.25 152.94 Z M 198.75 153.83 L 198.29 154.69 C 197.78 155.66 198.15 156.86 199.11 157.37 C 200.08 157.88 201.28 157.52 201.79 156.55 L 202.25 155.68 C 202.76 154.72 202.40 153.52 201.43 153.01 C 200.46 152.49 199.26 152.86 198.75 153.83 Z M 198.28 154.72 L 197.82 155.60 C 197.32 156.58 197.71 157.77 198.68 158.27 C 199.65 158.77 200.85 158.39 201.35 157.42 L 201.80 156.53 C 202.30 155.55 201.92 154.36 200.95 153.86 C 199.98 153.36 198.78 153.74 198.28 154.72 Z M 197.82 155.61 L 197.35 156.53 C 196.86 157.51 197.25 158.70 198.22 159.20 C 199.20 159.69 200.39 159.30 200.88 158.33 L 201.35 157.41 C 201.85 156.43 201.46 155.24 200.48 154.74 C 199.51 154.25 198.32 154.64 197.82 155.61 Z M 197.34 156.54 L 196.88 157.46 C 196.38 158.44 196.78 159.64 197.76 160.13 C 198.74 160.62 199.93 160.23 200.42 159.25 L 200.89 158.33 C 201.38 157.35 200.99 156.15 200.01 155.66 C 199.03 155.16 197.84 155.56 197.34 156.54 Z M 196.84 157.51 L 196.40 158.45 C 195.93 159.45 196.35 160.64 197.35 161.11 C 198.35 161.58 199.54 161.15 200.01 160.15 L 200.46 159.21 C 200.93 158.21 200.50 157.02 199.50 156.55 C 198.50 156.08 197.31 156.51 196.84 157.51 Z M 196.34 158.56 L 195.96 159.51 C 195.55 160.54 196.05 161.71 197.09 162.12 C 198.12 162.53 199.29 162.02 199.70 160.99 L 200.07 160.04 C 200.48 159.01 199.98 157.84 198.95 157.43 C 197.92 157.02 196.75 157.53 196.34 158.56 Z M 195.88 159.71 L 195.62 160.64 C 195.32 161.72 195.95 162.83 197.03 163.13 C 198.11 163.43 199.22 162.80 199.52 161.72 L 199.78 160.79 C 200.08 159.71 199.45 158.60 198.37 158.30 C 197.29 158.00 196.18 158.63 195.88 159.71 Z M 195.54 160.99 L 195.46 161.91 C 195.35 163.03 196.17 164.03 197.29 164.13 C 198.41 164.24 199.41 163.42 199.51 162.30 L 199.60 161.37 C 199.70 160.25 198.88 159.26 197.76 159.15 C 196.64 159.05 195.65 159.87 195.54 160.99 Z M 195.45 162.40 L 195.59 163.36 C 195.75 164.49 196.79 165.27 197.91 165.11 C 199.03 164.95 199.81 163.91 199.65 162.78 L 199.52 161.82 C 199.36 160.69 198.32 159.91 197.19 160.07 C 196.07 160.23 195.29 161.27 195.45 162.40 Z M 195.67 163.75 L 195.99 164.68 C 196.36 165.76 197.54 166.33 198.62 165.95 C 199.70 165.58 200.27 164.40 199.90 163.32 L 199.58 162.39 C 199.20 161.31 198.02 160.74 196.94 161.12 C 195.86 161.50 195.29 162.67 195.67 163.75 Z M 196.06 164.89 L 196.49 165.80 C 196.98 166.84 198.23 167.28 199.27 166.79 C 200.31 166.30 200.75 165.05 200.26 164.01 L 199.83 163.10 C 199.33 162.06 198.09 161.62 197.05 162.11 C 196.01 162.61 195.56 163.85 196.06 164.89 Z M 196.50 165.86 L 196.96 166.76 C 197.49 167.79 198.75 168.20 199.79 167.68 C 200.82 167.15 201.23 165.88 200.70 164.85 L 200.25 163.95 C 199.72 162.92 198.45 162.51 197.42 163.03 C 196.39 163.56 195.98 164.83 196.50 165.86 Z M 196.94 166.73 L 197.37 167.62 C 197.88 168.66 199.14 169.10 200.19 168.59 C 201.24 168.08 201.67 166.82 201.16 165.77 L 200.73 164.88 C 200.22 163.84 198.96 163.40 197.91 163.91 C 196.86 164.42 196.43 165.68 196.94 166.73 Z M 197.35 167.58 L 197.77 168.49 C 198.26 169.55 199.51 170.01 200.57 169.52 C 201.63 169.03 202.09 167.77 201.60 166.71 L 201.18 165.81 C 200.69 164.75 199.44 164.29 198.38 164.78 C 197.32 165.27 196.86 166.52 197.35 167.58 Z M 197.75 168.46 L 198.16 169.38 C 198.63 170.45 199.88 170.93 200.95 170.46 C 202.02 169.98 202.50 168.73 202.03 167.66 L 201.62 166.74 C 201.14 165.68 199.90 165.19 198.83 165.67 C 197.76 166.14 197.28 167.39 197.75 168.46 Z M 198.15 169.36 L 198.54 170.28 C 199.00 171.36 200.25 171.85 201.32 171.39 C 202.40 170.93 202.90 169.69 202.44 168.61 L 202.04 167.69 C 201.58 166.61 200.33 166.12 199.26 166.58 C 198.18 167.04 197.69 168.28 198.15 169.36 Z M 198.53 170.26 L 198.91 171.15 C 199.36 172.23 200.60 172.74 201.68 172.29 C 202.76 171.84 203.27 170.60 202.82 169.52 L 202.44 168.63 C 201.99 167.55 200.75 167.04 199.67 167.49 C 198.59 167.94 198.08 169.18 198.53 170.26 Z M 198.90 171.15 L 199.28 172.05 C 199.72 173.13 200.96 173.65 202.04 173.20 C 203.13 172.75 203.64 171.51 203.19 170.43 L 202.82 169.53 C 202.37 168.45 201.13 167.93 200.05 168.38 C 198.97 168.82 198.46 170.06 198.90 171.15 Z M 199.28 172.05 L 199.66 172.98 C 200.11 174.06 201.35 174.58 202.43 174.13 C 203.51 173.68 204.03 172.44 203.58 171.36 L 203.19 170.43 C 202.75 169.35 201.51 168.83 200.43 169.28 C 199.34 169.73 198.83 170.97 199.28 172.05 Z M 199.66 172.99 L 200.06 173.95 C 200.51 175.03 201.76 175.54 202.84 175.09 C 203.92 174.63 204.43 173.39 203.98 172.31 L 203.58 171.35 C 203.12 170.27 201.88 169.76 200.80 170.21 C 199.72 170.66 199.21 171.91 199.66 172.99 Z M 200.07 173.96 L 200.47 174.91 C 200.93 175.99 202.18 176.49 203.26 176.03 C 204.33 175.57 204.83 174.32 204.38 173.25 L 203.97 172.30 C 203.51 171.22 202.27 170.72 201.19 171.18 C 200.11 171.64 199.61 172.88 200.07 173.96 Z M 200.48 174.92 L 200.89 175.87 C 201.35 176.95 202.60 177.44 203.68 176.98 C 204.75 176.51 205.25 175.26 204.78 174.19 L 204.37 173.24 C 203.91 172.16 202.66 171.67 201.58 172.13 C 200.51 172.60 200.01 173.85 200.48 174.92 Z M 200.89 175.88 L 201.30 176.82 C 201.77 177.89 203.02 178.38 204.09 177.92 C 205.17 177.45 205.66 176.20 205.19 175.12 L 204.78 174.18 C 204.31 173.11 203.06 172.62 201.99 173.08 C 200.91 173.55 200.42 174.80 200.89 175.88 Z M 201.30 176.82 L 201.70 177.73 C 202.17 178.80 203.42 179.30 204.49 178.83 C 205.57 178.36 206.06 177.11 205.59 176.03 L 205.19 175.12 C 204.72 174.05 203.47 173.56 202.40 174.03 C 201.32 174.50 200.83 175.75 201.30 176.82 Z M 201.70 177.73 L 202.07 178.58 C 202.53 179.65 203.78 180.15 204.86 179.68 C 205.93 179.21 206.43 177.96 205.96 176.89 L 205.59 176.04 C 205.12 174.96 203.87 174.47 202.80 174.94 C 201.72 175.40 201.23 176.65 201.70 177.73 Z M 202.06 178.57 L 202.50 179.59 C 202.96 180.67 204.21 181.17 205.28 180.71 C 206.36 180.25 206.86 179.00 206.40 177.92 L 205.96 176.90 C 205.50 175.82 204.26 175.32 203.18 175.78 C 202.10 176.24 201.60 177.49 202.06 178.57 Z M 202.50 179.58 L 202.89 180.50 C 203.34 181.58 204.59 182.08 205.67 181.62 C 206.74 181.17 207.25 179.92 206.79 178.84 L 206.40 177.93 C 205.94 176.85 204.70 176.35 203.62 176.80 C 202.54 177.26 202.04 178.50 202.50 179.58 Z M 202.89 180.51 L 203.26 181.37 C 203.72 182.44 204.97 182.94 206.04 182.48 C 207.12 182.02 207.62 180.77 207.15 179.69 L 206.79 178.84 C 206.32 177.76 205.08 177.26 204.00 177.72 C 202.93 178.19 202.43 179.43 202.89 180.51 Z M 203.27 181.39 L 203.65 182.25 C 204.13 183.32 205.38 183.80 206.45 183.33 C 207.52 182.85 208.00 181.60 207.53 180.53 L 207.14 179.67 C 206.67 178.60 205.42 178.12 204.35 178.59 C 203.28 179.07 202.80 180.32 203.27 181.39 Z M 203.67 182.28 L 204.08 183.17 C 204.57 184.23 205.83 184.70 206.89 184.21 C 207.95 183.72 208.41 182.46 207.92 181.40 L 207.51 180.51 C 207.02 179.44 205.77 178.98 204.70 179.47 C 203.64 179.96 203.18 181.22 203.67 182.28 Z M 204.09 183.19 L 204.52 184.10 C 205.02 185.16 206.28 185.61 207.34 185.11 C 208.39 184.61 208.84 183.35 208.34 182.29 L 207.92 181.38 C 207.42 180.32 206.15 179.87 205.10 180.37 C 204.04 180.87 203.59 182.13 204.09 183.19 Z M 204.52 184.11 L 204.96 185.03 C 205.47 186.08 206.73 186.53 207.79 186.03 C 208.84 185.52 209.28 184.26 208.78 183.20 L 208.34 182.28 C 207.84 181.23 206.57 180.78 205.52 181.29 C 204.47 181.79 204.02 183.05 204.52 184.11 Z M 204.97 185.03 L 205.38 185.90 C 205.89 186.95 207.15 187.40 208.21 186.89 C 209.26 186.39 209.70 185.12 209.20 184.07 L 208.78 183.20 C 208.27 182.15 207.01 181.71 205.96 182.21 C 204.90 182.72 204.46 183.98 204.97 185.03 Z M 205.39 185.91 L 205.82 186.80 C 206.33 187.85 207.60 188.29 208.64 187.78 C 209.69 187.27 210.13 186.00 209.62 184.95 L 209.19 184.06 C 208.68 183.01 207.42 182.58 206.37 183.08 C 205.32 183.59 204.88 184.86 205.39 185.91 Z M 205.83 186.81 L 206.28 187.73 C 206.80 188.77 208.07 189.20 209.11 188.68 C 210.16 188.17 210.58 186.90 210.07 185.85 L 209.61 184.94 C 209.10 183.89 207.83 183.47 206.79 183.98 C 205.74 184.50 205.31 185.77 205.83 186.81 Z M 206.29 187.75 L 206.76 188.66 C 207.28 189.69 208.55 190.11 209.59 189.58 C 210.63 189.05 211.05 187.78 210.52 186.75 L 210.06 185.84 C 209.53 184.80 208.26 184.38 207.22 184.91 C 206.18 185.44 205.77 186.71 206.29 187.75 Z M 206.77 188.67 L 207.22 189.55 C 207.76 190.59 209.03 190.99 210.07 190.45 C 211.10 189.91 211.50 188.64 210.97 187.61 L 210.51 186.73 C 209.97 185.69 208.70 185.29 207.66 185.83 C 206.63 186.37 206.23 187.64 206.77 188.67 Z M 207.23 189.56 L 207.70 190.46 C 208.25 191.48 209.52 191.88 210.55 191.33 C 211.58 190.79 211.97 189.51 211.43 188.49 L 210.96 187.60 C 210.41 186.57 209.14 186.17 208.11 186.72 C 207.08 187.26 206.69 188.54 207.23 189.56 Z M 207.71 190.46 L 208.18 191.35 C 208.73 192.38 210.01 192.77 211.03 192.22 C 212.06 191.67 212.45 190.39 211.90 189.37 L 211.42 188.48 C 210.87 187.45 209.60 187.06 208.57 187.61 C 207.55 188.16 207.16 189.44 207.71 190.46 Z M 208.19 191.36 L 208.66 192.24 C 209.21 193.27 210.49 193.65 211.51 193.10 C 212.54 192.55 212.92 191.28 212.37 190.25 L 211.89 189.37 C 211.34 188.34 210.07 187.96 209.04 188.51 C 208.02 189.06 207.64 190.33 208.19 191.36 Z M 208.66 192.24 L 209.14 193.13 C 209.69 194.15 210.97 194.53 211.99 193.98 C 213.01 193.43 213.39 192.16 212.84 191.14 L 212.37 190.25 C 211.82 189.23 210.54 188.85 209.52 189.40 C 208.50 189.95 208.11 191.22 208.66 192.24 Z M 209.14 193.13 L 209.62 194.01 C 210.17 195.03 211.44 195.41 212.46 194.86 C 213.49 194.31 213.87 193.03 213.31 192.01 L 212.84 191.13 C 212.29 190.11 211.02 189.73 209.99 190.28 C 208.97 190.84 208.59 192.11 209.14 193.13 Z M 209.62 194.01 L 210.09 194.89 C 210.65 195.90 211.92 196.28 212.94 195.73 C 213.96 195.18 214.34 193.90 213.79 192.88 L 213.31 192.01 C 212.76 190.99 211.48 190.61 210.46 191.16 C 209.44 191.72 209.07 192.99 209.62 194.01 Z M 210.10 194.89 L 210.58 195.76 C 211.13 196.78 212.41 197.15 213.42 196.60 C 214.44 196.04 214.81 194.77 214.26 193.75 L 213.78 192.88 C 213.23 191.86 211.95 191.49 210.93 192.04 C 209.92 192.60 209.54 193.87 210.10 194.89 Z M 210.58 195.77 L 211.06 196.63 C 211.61 197.64 212.89 198.01 213.90 197.46 C 214.92 196.90 215.29 195.62 214.73 194.61 L 214.25 193.74 C 213.69 192.73 212.42 192.36 211.41 192.92 C 210.39 193.48 210.02 194.75 210.58 195.77 Z M 211.06 196.64 L 211.54 197.51 C 212.11 198.52 213.38 198.88 214.39 198.32 C 215.40 197.76 215.77 196.49 215.21 195.48 L 214.72 194.60 C 214.16 193.59 212.89 193.23 211.88 193.79 C 210.86 194.35 210.50 195.62 211.06 196.64 Z M 211.55 197.51 L 212.04 198.39 C 212.60 199.40 213.88 199.76 214.89 199.20 C 215.90 198.64 216.26 197.36 215.70 196.35 L 215.20 195.47 C 214.64 194.46 213.36 194.10 212.36 194.66 C 211.35 195.23 210.99 196.50 211.55 197.51 Z M 212.05 198.40 L 212.54 199.28 C 213.11 200.29 214.38 200.64 215.39 200.08 C 216.40 199.51 216.75 198.24 216.19 197.23 L 215.69 196.35 C 215.12 195.34 213.85 194.98 212.84 195.55 C 211.84 196.12 211.48 197.39 212.05 198.40 Z M 212.55 199.28 L 213.04 200.15 C 213.61 201.16 214.88 201.51 215.89 200.94 C 216.89 200.37 217.24 199.10 216.68 198.09 L 216.18 197.23 C 215.61 196.22 214.34 195.87 213.34 196.44 C 212.33 197.00 211.98 198.28 212.55 199.28 Z M 213.04 200.15 L 213.54 201.03 C 214.10 202.03 215.38 202.38 216.38 201.81 C 217.39 201.24 217.74 199.97 217.17 198.97 L 216.67 198.09 C 216.10 197.09 214.83 196.74 213.83 197.31 C 212.82 197.88 212.47 199.15 213.04 200.15 Z M 213.54 201.03 L 214.03 201.90 C 214.60 202.90 215.87 203.25 216.88 202.68 C 217.88 202.11 218.23 200.84 217.66 199.84 L 217.17 198.97 C 216.60 197.96 215.32 197.61 214.32 198.18 C 213.32 198.75 212.97 200.02 213.54 201.03 Z M 214.03 201.89 L 214.52 202.76 C 215.09 203.77 216.36 204.12 217.36 203.55 C 218.37 202.99 218.72 201.71 218.15 200.71 L 217.66 199.84 C 217.09 198.84 215.82 198.49 214.82 199.05 C 213.82 199.62 213.46 200.89 214.03 201.89 Z M 214.52 202.76 L 215.01 203.63 C 215.58 204.64 216.85 204.99 217.85 204.43 C 218.85 203.87 219.21 202.60 218.65 201.59 L 218.15 200.72 C 217.59 199.71 216.32 199.36 215.32 199.92 C 214.31 200.48 213.96 201.75 214.52 202.76 Z M 215.01 203.63 L 215.50 204.50 C 216.06 205.50 217.32 205.86 218.33 205.30 C 219.33 204.74 219.69 203.48 219.13 202.47 L 218.65 201.60 C 218.09 200.59 216.82 200.23 215.81 200.79 C 214.81 201.35 214.45 202.62 215.01 203.63 Z M 215.49 204.49 L 215.98 205.36 C 216.53 206.37 217.80 206.73 218.80 206.18 C 219.81 205.62 220.17 204.36 219.62 203.35 L 219.14 202.48 C 218.58 201.47 217.31 201.11 216.31 201.66 C 215.30 202.22 214.94 203.49 215.49 204.49 Z M 215.97 205.36 L 216.45 206.23 C 217.01 207.24 218.27 207.61 219.28 207.06 C 220.28 206.50 220.65 205.24 220.10 204.23 L 219.62 203.36 C 219.07 202.35 217.80 201.98 216.80 202.53 C 215.79 203.09 215.42 204.35 215.97 205.36 Z M 216.45 206.23 L 216.92 207.09 C 217.47 208.10 218.73 208.47 219.74 207.92 C 220.75 207.38 221.12 206.11 220.57 205.11 L 220.10 204.24 C 219.55 203.23 218.29 202.86 217.28 203.41 C 216.28 203.96 215.90 205.22 216.45 206.23 Z M 216.92 207.08 L 217.39 207.96 C 217.94 208.97 219.20 209.34 220.20 208.80 C 221.21 208.25 221.59 206.99 221.05 205.98 L 220.58 205.11 C 220.03 204.10 218.77 203.73 217.76 204.27 C 216.75 204.82 216.38 206.08 216.92 207.08 Z M 217.39 207.95 L 217.86 208.83 C 218.41 209.84 219.66 210.22 220.67 209.68 C 221.68 209.14 222.06 207.88 221.52 206.87 L 221.05 205.99 C 220.50 204.98 219.25 204.60 218.24 205.14 C 217.23 205.68 216.85 206.94 217.39 207.95 Z M 217.86 208.83 L 218.34 209.73 C 218.88 210.74 220.14 211.12 221.15 210.58 C 222.16 210.04 222.54 208.78 222.00 207.77 L 221.52 206.87 C 220.98 205.86 219.72 205.48 218.71 206.02 C 217.70 206.56 217.32 207.82 217.86 208.83 Z M 218.34 209.72 L 218.83 210.63 C 219.37 211.64 220.62 212.02 221.63 211.48 C 222.64 210.94 223.02 209.69 222.48 208.68 L 222.00 207.77 C 221.46 206.76 220.20 206.38 219.19 206.92 C 218.18 207.46 217.80 208.71 218.34 209.72 Z M 218.83 210.63 L 219.31 211.54 C 219.85 212.55 221.11 212.93 222.12 212.39 C 223.13 211.85 223.51 210.59 222.97 209.58 L 222.48 208.68 C 221.94 207.67 220.69 207.29 219.68 207.83 C 218.67 208.36 218.29 209.62 218.83 210.63 Z M 219.31 211.54 L 219.79 212.43 C 220.33 213.44 221.59 213.82 222.59 213.28 C 223.60 212.74 223.98 211.48 223.44 210.48 L 222.97 209.58 C 222.43 208.57 221.17 208.19 220.16 208.73 C 219.15 209.27 218.77 210.53 219.31 211.54 Z M 219.79 212.43 L 220.25 213.29 C 220.80 214.30 222.05 214.68 223.06 214.14 C 224.06 213.60 224.44 212.34 223.90 211.34 L 223.44 210.47 C 222.90 209.47 221.65 209.09 220.64 209.63 C 219.63 210.17 219.25 211.42 219.79 212.43 Z M 220.26 213.29 L 220.73 214.18 C 221.28 215.19 222.53 215.56 223.54 215.02 C 224.54 214.48 224.92 213.23 224.38 212.22 L 223.90 211.33 C 223.36 210.33 222.10 209.95 221.10 210.49 C 220.09 211.03 219.72 212.29 220.26 213.29 Z M 220.74 214.18 L 221.23 215.10 C 221.78 216.11 223.03 216.48 224.04 215.94 C 225.04 215.39 225.41 214.14 224.87 213.13 L 224.38 212.22 C 223.83 211.21 222.58 210.84 221.57 211.38 C 220.57 211.92 220.19 213.18 220.74 214.18 Z M 221.23 215.10 L 221.70 215.96 C 222.24 216.97 223.50 217.34 224.50 216.80 C 225.51 216.25 225.88 215.00 225.34 214.00 L 224.87 213.13 C 224.33 212.13 223.07 211.76 222.07 212.30 C 221.07 212.84 220.69 214.10 221.23 215.10 Z M 221.70 215.96 L 222.14 216.78 C 222.68 217.79 223.94 218.17 224.94 217.63 C 225.95 217.09 226.32 215.83 225.78 214.83 L 225.34 214.00 C 224.80 213.00 223.54 212.62 222.54 213.16 C 221.53 213.70 221.16 214.95 221.70 215.96 Z M 222.14 216.78 L 222.57 217.58 C 223.11 218.59 224.36 218.97 225.36 218.43 C 226.37 217.90 226.75 216.65 226.21 215.64 L 225.79 214.84 C 225.25 213.83 224.00 213.45 222.99 213.98 C 221.99 214.52 221.60 215.77 222.14 216.78 Z M 222.57 217.58 L 223.01 218.42 C 223.55 219.42 224.80 219.80 225.81 219.27 C 226.81 218.73 227.19 217.48 226.66 216.48 L 226.21 215.64 C 225.68 214.63 224.43 214.25 223.42 214.79 C 222.42 215.32 222.03 216.57 222.57 217.58 Z M 223.02 218.42 L 223.51 219.34 C 224.05 220.34 225.30 220.72 226.30 220.18 C 227.31 219.65 227.69 218.39 227.15 217.39 L 226.65 216.47 C 226.12 215.47 224.87 215.09 223.86 215.63 C 222.86 216.17 222.48 217.42 223.02 218.42 Z M 223.52 219.35 L 224.02 220.27 C 224.56 221.27 225.81 221.64 226.81 221.10 C 227.81 220.56 228.18 219.30 227.64 218.30 L 227.14 217.38 C 226.60 216.38 225.35 216.01 224.34 216.55 C 223.34 217.10 222.97 218.35 223.52 219.35 Z M 224.02 220.28 L 224.47 221.09 C 225.01 222.09 226.27 222.46 227.27 221.91 C 228.26 221.37 228.63 220.11 228.08 219.11 L 227.64 218.30 C 227.09 217.30 225.84 216.93 224.84 217.48 C 223.84 218.02 223.47 219.28 224.02 220.28 Z M 224.47 221.09 L 224.95 221.97 C 225.49 222.96 226.74 223.33 227.74 222.78 C 228.74 222.24 229.11 220.99 228.56 219.99 L 228.08 219.11 C 227.54 218.12 226.28 217.75 225.29 218.30 C 224.29 218.84 223.92 220.10 224.47 221.09 Z M 224.94 221.96 L 225.44 222.87 C 225.98 223.87 227.23 224.24 228.23 223.70 C 229.23 223.15 229.60 221.90 229.06 220.90 L 228.56 219.99 C 228.02 218.99 226.77 218.62 225.77 219.17 C 224.77 219.71 224.40 220.96 224.94 221.96 Z M 225.43 222.86 L 225.93 223.79 C 226.47 224.79 227.72 225.17 228.72 224.63 C 229.73 224.09 230.10 222.84 229.56 221.84 L 229.06 220.91 C 228.52 219.91 227.27 219.53 226.27 220.07 C 225.27 220.61 224.89 221.86 225.43 222.86 Z M 225.93 223.78 L 226.43 224.72 C 226.96 225.72 228.20 226.11 229.21 225.57 C 230.21 225.04 230.60 223.79 230.07 222.79 L 229.57 221.85 C 229.04 220.84 227.79 220.46 226.78 220.99 C 225.78 221.53 225.40 222.77 225.93 223.78 Z M 226.42 224.70 L 226.91 225.64 C 227.43 226.65 228.67 227.05 229.68 226.53 C 230.69 226.00 231.09 224.76 230.56 223.75 L 230.07 222.81 C 229.55 221.80 228.31 221.40 227.30 221.92 C 226.29 222.45 225.89 223.69 226.42 224.70 Z M 226.90 225.63 L 227.36 226.55 C 227.88 227.56 229.12 227.97 230.13 227.45 C 231.14 226.94 231.55 225.70 231.04 224.69 L 230.57 223.77 C 230.06 222.75 228.82 222.35 227.80 222.86 C 226.79 223.37 226.38 224.61 226.90 225.63 Z M 227.36 226.53 L 227.79 227.41 C 228.30 228.43 229.53 228.85 230.55 228.35 C 231.57 227.84 231.99 226.61 231.48 225.59 L 231.05 224.70 C 230.54 223.69 229.31 223.27 228.29 223.77 C 227.27 224.27 226.85 225.51 227.36 226.53 Z M 227.78 227.39 L 228.19 228.23 C 228.68 229.26 229.91 229.69 230.93 229.20 C 231.96 228.71 232.39 227.48 231.90 226.45 L 231.49 225.61 C 231.00 224.59 229.77 224.16 228.75 224.65 C 227.72 225.14 227.29 226.37 227.78 227.39 Z M 228.18 228.21 L 228.60 229.13 C 229.08 230.16 230.30 230.61 231.33 230.14 C 232.37 229.66 232.81 228.44 232.34 227.41 L 231.91 226.48 C 231.43 225.45 230.21 225.00 229.18 225.48 C 228.15 225.95 227.70 227.18 228.18 228.21 Z M 228.59 229.10 L 229.01 230.05 C 229.46 231.09 230.68 231.56 231.72 231.11 C 232.76 230.65 233.23 229.44 232.77 228.40 L 232.35 227.44 C 231.90 226.40 230.68 225.93 229.64 226.39 C 228.60 226.84 228.13 228.06 228.59 229.10 Z M 228.99 230.00 L 229.35 230.90 C 229.78 231.95 230.98 232.46 232.03 232.03 C 233.09 231.60 233.59 230.40 233.16 229.35 L 232.79 228.45 C 232.36 227.40 231.16 226.89 230.11 227.32 C 229.06 227.75 228.56 228.95 228.99 230.00 Z M 229.33 230.85 L 229.66 231.71 C 230.06 232.78 231.24 233.32 232.30 232.92 C 233.37 232.52 233.91 231.33 233.51 230.27 L 233.18 229.40 C 232.78 228.34 231.60 227.80 230.53 228.20 C 229.47 228.60 228.93 229.78 229.33 230.85 Z M 229.64 231.65 L 229.94 232.54 C 230.30 233.61 231.47 234.19 232.55 233.82 C 233.62 233.46 234.19 232.29 233.83 231.21 L 233.53 230.33 C 233.16 229.26 232.00 228.68 230.92 229.05 C 229.85 229.41 229.27 230.58 229.64 231.65 Z M 229.92 232.47 L 230.20 233.39 C 230.53 234.48 231.67 235.09 232.76 234.76 C 233.84 234.43 234.46 233.28 234.13 232.20 L 233.85 231.28 C 233.52 230.19 232.37 229.58 231.29 229.91 C 230.20 230.24 229.59 231.39 229.92 232.47 Z M 230.18 233.32 L 230.44 234.31 C 230.73 235.41 231.86 236.06 232.96 235.77 C 234.05 235.47 234.70 234.35 234.41 233.25 L 234.15 232.26 C 233.85 231.17 232.73 230.52 231.63 230.81 C 230.54 231.10 229.89 232.23 230.18 233.32 Z M 230.43 234.25 L 230.67 235.27 C 230.93 236.37 232.03 237.05 233.14 236.79 C 234.24 236.53 234.92 235.43 234.66 234.32 L 234.42 233.31 C 234.16 232.21 233.06 231.52 231.95 231.78 C 230.85 232.04 230.17 233.15 230.43 234.25 Z M 230.66 235.22 L 230.85 236.12 C 231.09 237.23 232.18 237.94 233.29 237.70 C 234.40 237.46 235.10 236.37 234.86 235.26 L 234.67 234.36 C 234.43 233.26 233.34 232.55 232.23 232.79 C 231.13 233.03 230.42 234.12 230.66 235.22 Z M 230.85 236.09 L 231.04 237.05 C 231.26 238.16 232.33 238.89 233.45 238.67 C 234.56 238.45 235.28 237.37 235.06 236.26 L 234.87 235.30 C 234.65 234.19 233.57 233.46 232.46 233.68 C 231.35 233.90 230.63 234.98 230.85 236.09 Z M 231.03 237.02 L 231.22 238.03 C 231.42 239.15 232.49 239.88 233.60 239.68 C 234.71 239.48 235.45 238.41 235.25 237.30 L 235.06 236.29 C 234.86 235.17 233.79 234.44 232.68 234.64 C 231.57 234.84 230.83 235.91 231.03 237.02 Z M 231.21 238.00 L 231.39 239.05 C 231.58 240.17 232.63 240.92 233.75 240.74 C 234.86 240.55 235.62 239.49 235.43 238.38 L 235.25 237.33 C 235.06 236.21 234.01 235.46 232.89 235.65 C 231.78 235.83 231.03 236.89 231.21 238.00 Z M 231.39 239.03 L 231.55 240.08 C 231.72 241.19 232.76 241.96 233.88 241.79 C 235.00 241.62 235.76 240.57 235.59 239.45 L 235.43 238.40 C 235.26 237.29 234.21 236.52 233.10 236.69 C 231.98 236.87 231.21 237.91 231.39 239.03 Z M 231.55 240.05 L 231.70 241.09 C 231.85 242.20 232.89 242.98 234.01 242.82 C 235.12 242.66 235.90 241.62 235.74 240.51 L 235.59 239.48 C 235.43 238.36 234.40 237.58 233.28 237.74 C 232.16 237.90 231.39 238.94 231.55 240.05 Z M 231.70 241.07 L 231.84 242.09 C 231.99 243.21 233.01 243.99 234.13 243.84 C 235.24 243.69 236.03 242.66 235.88 241.55 L 235.74 240.52 C 235.59 239.41 234.56 238.63 233.44 238.78 C 232.33 238.93 231.55 239.95 231.70 241.07 Z M 231.84 242.08 L 231.97 243.08 C 232.12 244.19 233.14 244.98 234.25 244.83 C 235.37 244.69 236.15 243.66 236.00 242.55 L 235.87 241.55 C 235.73 240.44 234.70 239.66 233.59 239.80 C 232.48 239.95 231.69 240.97 231.84 242.08 Z M 231.97 243.08 L 232.10 244.03 C 232.24 245.14 233.26 245.92 234.37 245.77 C 235.49 245.63 236.27 244.61 236.12 243.50 L 236.00 242.55 C 235.85 241.44 234.83 240.66 233.72 240.80 C 232.61 240.95 231.83 241.97 231.97 243.08 Z M 232.11 244.03 L 232.24 245.04 C 232.39 246.14 233.41 246.92 234.51 246.77 C 235.62 246.62 236.40 245.60 236.25 244.50 L 236.11 243.49 C 235.97 242.39 234.95 241.61 233.84 241.76 C 232.73 241.91 231.96 242.92 232.11 244.03 Z M 232.26 245.05 L 232.41 246.10 C 232.57 247.19 233.58 247.96 234.68 247.80 C 235.77 247.65 236.53 246.63 236.38 245.54 L 236.23 244.48 C 236.07 243.39 235.06 242.63 233.96 242.78 C 232.87 242.94 232.11 243.95 232.26 245.05 Z M 232.43 246.11 L 232.58 247.07 C 232.74 248.16 233.74 248.90 234.83 248.74 C 235.91 248.58 236.66 247.58 236.50 246.49 L 236.35 245.53 C 236.19 244.44 235.19 243.70 234.10 243.86 C 233.02 244.02 232.27 245.02 232.43 246.11 Z M 232.60 247.08 L 232.74 248.00 C 232.90 249.07 233.90 249.80 234.97 249.64 C 236.04 249.47 236.78 248.47 236.61 247.41 L 236.47 246.49 C 236.31 245.42 235.31 244.68 234.24 244.85 C 233.17 245.01 232.44 246.01 232.60 247.08 Z M 232.76 248.00 L 232.81 248.32 C 232.97 249.38 233.96 250.11 235.02 249.95 C 236.08 249.78 236.81 248.79 236.65 247.73 L 236.60 247.40 C 236.44 246.34 235.44 245.62 234.38 245.78 C 233.32 245.94 232.59 246.93 232.76 248.00 Z"
      fill="black"
      fill-rule="nonzero" /></svg>