<svg xmlns="http://www.w3.org/2000/svg" width="300" height="300" viewBox="0 0 300 300">
<path d="M 212.24 66.63 L 211.29 66.94 C 210.41 67.24 209.94 68.18 210.23 69.06 C 210.52 69.94 211.47 70.41 212.35 70.12 L 213.30 69.80 C 214.17 69.51 214.65 68.56 214.35 67.68 C 214.06 66.81 213.11 66.33 212.24 66.63 Z M 211.13 66.94 L 210.22 67.33 C 209.35 67.71 208.94 68.73 209.32 69.60 C 209.69 70.48 210.71 70.89 211.59 70.51 L 212.50 70.12 C 213.38 69.74 213.78 68.73 213.40 67.85 C 213.03 66.97 212.01 66.57 211.13 66.94 Z M 209.94 67.42 L 209.10 67.97 C 208.27 68.50 208.03 69.61 208.57 70.43 C 209.10 71.26 210.21 71.50 211.04 70.96 L 211.87 70.42 C 212.70 69.88 212.94 68.78 212.40 67.95 C 211.87 67.13 210.76 66.89 209.94 67.42 Z M 208.79 68.16 L 208.21 68.73 C 207.50 69.43 207.48 70.59 208.19 71.30 C 208.89 72.02 210.05 72.03 210.76 71.33 L 211.34 70.76 C 212.06 70.06 212.07 68.91 211.37 68.19 C 210.66 67.47 209.51 67.46 208.79 68.16 Z M 208.02 68.93 L 207.48 69.64 C 206.87 70.46 207.04 71.61 207.85 72.22 C 208.67 72.83 209.82 72.66 210.43 71.85 L 210.96 71.13 C 211.57 70.32 211.40 69.17 210.59 68.56 C 209.78 67.95 208.63 68.12 208.02 68.93 Z M 207.36 69.80 L 206.83 70.69 C 206.30 71.57 206.59 72.71 207.47 73.23 C 208.35 73.76 209.49 73.47 210.02 72.59 L 210.55 71.69 C 211.07 70.81 210.79 69.68 209.90 69.15 C 209.02 68.63 207.88 68.91 207.36 69.80 Z M 206.75 70.78 L 206.19 71.89 C 205.72 72.81 206.08 73.93 207.00 74.41 C 207.92 74.88 209.05 74.52 209.52 73.60 L 210.09 72.50 C 210.56 71.58 210.20 70.45 209.28 69.97 C 208.36 69.50 207.23 69.86 206.75 70.78 Z M 206.16 71.93 L 205.77 72.75 C 205.32 73.69 205.72 74.81 206.66 75.26 C 207.60 75.71 208.72 75.31 209.17 74.37 L 209.56 73.55 C 210.01 72.61 209.61 71.49 208.67 71.04 C 207.73 70.59 206.60 70.99 206.16 71.93 Z M 205.75 72.77 L 205.35 73.63 C 204.92 74.58 205.33 75.71 206.28 76.14 C 207.23 76.58 208.35 76.16 208.79 75.21 L 209.19 74.35 C 209.62 73.40 209.21 72.27 208.26 71.84 C 207.31 71.40 206.18 71.82 205.75 72.77 Z M 205.34 73.65 L 204.93 74.57 C 204.50 75.53 204.93 76.65 205.89 77.08 C 206.85 77.50 207.97 77.07 208.40 76.11 L 208.81 75.19 C 209.23 74.23 208.80 73.11 207.84 72.69 C 206.88 72.26 205.76 72.69 205.34 73.65 Z M 204.91 74.59 L 204.50 75.54 C 204.09 76.51 204.53 77.63 205.50 78.04 C 206.46 78.46 207.58 78.01 208.00 77.05 L 208.41 76.10 C 208.83 75.13 208.38 74.01 207.42 73.59 C 206.45 73.18 205.33 73.62 204.91 74.59 Z M 204.49 75.55 L 204.08 76.53 C 203.67 77.50 204.13 78.62 205.10 79.03 C 206.08 79.44 207.20 78.98 207.60 78.00 L 208.01 77.03 C 208.42 76.06 207.96 74.94 206.99 74.53 C 206.02 74.12 204.90 74.58 204.49 75.55 Z M 204.07 76.54 L 203.67 77.51 C 203.27 78.49 203.74 79.61 204.72 80.01 C 205.70 80.41 206.82 79.94 207.22 78.96 L 207.62 77.99 C 208.02 77.01 207.55 75.89 206.57 75.49 C 205.59 75.09 204.47 75.56 204.07 76.54 Z M 203.66 77.52 L 203.26 78.53 C 202.87 79.52 203.35 80.63 204.34 81.03 C 205.32 81.42 206.44 80.94 206.83 79.95 L 207.23 78.95 C 207.62 77.96 207.14 76.84 206.16 76.45 C 205.17 76.06 204.05 76.54 203.66 77.52 Z M 203.25 78.55 L 202.85 79.58 C 202.47 80.57 202.96 81.68 203.96 82.07 C 204.95 82.45 206.06 81.96 206.44 80.96 L 206.84 79.93 C 207.23 78.94 206.73 77.83 205.74 77.45 C 204.75 77.06 203.63 77.56 203.25 78.55 Z M 202.85 79.59 L 202.47 80.58 C 202.10 81.58 202.60 82.69 203.60 83.06 C 204.60 83.44 205.71 82.93 206.08 81.94 L 206.45 80.95 C 206.83 79.95 206.32 78.84 205.33 78.47 C 204.33 78.09 203.22 78.60 202.85 79.59 Z M 202.47 80.59 L 202.12 81.53 C 201.76 82.53 202.27 83.64 203.27 84.01 C 204.27 84.37 205.38 83.86 205.74 82.86 L 206.09 81.92 C 206.46 80.92 205.94 79.81 204.94 79.45 C 203.94 79.08 202.83 79.59 202.47 80.59 Z M 202.12 81.54 L 201.80 82.43 C 201.44 83.43 201.96 84.54 202.96 84.90 C 203.96 85.26 205.07 84.74 205.43 83.74 L 205.75 82.85 C 206.11 81.85 205.59 80.74 204.59 80.38 C 203.58 80.02 202.48 80.54 202.12 81.54 Z M 201.79 82.44 L 201.50 83.26 C 201.14 84.27 201.67 85.37 202.67 85.73 C 203.68 86.09 204.78 85.56 205.14 84.56 L 205.44 83.73 C 205.79 82.72 205.27 81.62 204.26 81.26 C 203.26 80.90 202.15 81.43 201.79 82.44 Z M 201.50 83.27 L 201.15 84.26 C 200.79 85.27 201.32 86.38 202.33 86.73 C 203.33 87.09 204.44 86.56 204.79 85.55 L 205.14 84.55 C 205.50 83.55 204.97 82.44 203.96 82.09 C 202.96 81.73 201.85 82.26 201.50 83.27 Z M 201.14 84.27 L 200.80 85.25 C 200.44 86.26 200.98 87.37 201.99 87.72 C 202.99 88.07 204.10 87.54 204.45 86.53 L 204.80 85.55 C 205.15 84.54 204.62 83.43 203.61 83.08 C 202.60 82.73 201.50 83.26 201.14 84.27 Z M 200.80 85.26 L 200.48 86.17 C 200.13 87.18 200.66 88.28 201.67 88.63 C 202.68 88.98 203.79 88.45 204.14 87.44 L 204.45 86.53 C 204.80 85.52 204.27 84.41 203.26 84.06 C 202.25 83.71 201.15 84.25 200.80 85.26 Z M 200.48 86.17 L 200.18 87.04 C 199.83 88.05 200.36 89.15 201.37 89.50 C 202.38 89.85 203.49 89.32 203.84 88.30 L 204.14 87.44 C 204.49 86.43 203.95 85.32 202.94 84.97 C 201.93 84.62 200.83 85.16 200.48 86.17 Z M 200.18 87.04 L 199.86 87.94 C 199.51 88.95 200.05 90.05 201.06 90.40 C 202.07 90.75 203.18 90.22 203.53 89.21 L 203.84 88.30 C 204.19 87.29 203.65 86.19 202.64 85.84 C 201.63 85.49 200.53 86.02 200.18 87.04 Z M 199.86 87.94 L 199.54 88.86 C 199.19 89.88 199.72 90.98 200.74 91.33 C 201.75 91.68 202.85 91.15 203.20 90.14 L 203.53 89.21 C 203.88 88.20 203.34 87.09 202.33 86.74 C 201.32 86.39 200.21 86.92 199.86 87.94 Z M 199.54 88.86 L 199.21 89.80 C 198.86 90.82 199.39 91.92 200.40 92.28 C 201.41 92.63 202.52 92.10 202.87 91.09 L 203.20 90.14 C 203.56 89.13 203.02 88.02 202.01 87.67 C 201.00 87.32 199.90 87.85 199.54 88.86 Z M 199.21 89.80 L 198.87 90.77 C 198.51 91.78 199.04 92.89 200.05 93.25 C 201.06 93.61 202.17 93.08 202.53 92.07 L 202.87 91.09 C 203.23 90.08 202.70 88.97 201.69 88.62 C 200.68 88.26 199.57 88.79 199.21 89.80 Z M 198.87 90.76 L 198.53 91.69 C 198.17 92.70 198.70 93.82 199.70 94.18 C 200.71 94.54 201.83 94.02 202.19 93.01 L 202.52 92.07 C 202.89 91.07 202.36 89.95 201.35 89.59 C 200.34 89.23 199.23 89.75 198.87 90.76 Z M 198.54 91.69 L 198.19 92.63 C 197.82 93.64 198.34 94.76 199.35 95.12 C 200.36 95.49 201.48 94.97 201.84 93.96 L 202.19 93.02 C 202.55 92.01 202.03 90.89 201.03 90.52 C 200.02 90.16 198.90 90.68 198.54 91.69 Z M 198.19 92.63 L 197.84 93.57 C 197.47 94.58 197.99 95.70 199.00 96.07 C 200.00 96.44 201.12 95.92 201.49 94.92 L 201.84 93.97 C 202.21 92.96 201.70 91.84 200.69 91.47 C 199.68 91.10 198.56 91.62 198.19 92.63 Z M 197.85 93.57 L 197.50 94.50 C 197.12 95.51 197.64 96.62 198.64 97.00 C 199.65 97.37 200.77 96.86 201.14 95.86 L 201.49 94.92 C 201.86 93.92 201.35 92.80 200.35 92.42 C 199.34 92.05 198.22 92.56 197.85 93.57 Z M 197.50 94.49 L 197.14 95.46 C 196.76 96.46 197.27 97.58 198.27 97.96 C 199.28 98.34 200.40 97.83 200.78 96.83 L 201.14 95.86 C 201.52 94.86 201.01 93.74 200.01 93.36 C 199.00 92.98 197.88 93.49 197.50 94.49 Z M 197.14 95.45 L 196.78 96.39 C 196.40 97.40 196.91 98.52 197.91 98.90 C 198.92 99.28 200.04 98.77 200.42 97.77 L 200.78 96.83 C 201.16 95.82 200.65 94.70 199.65 94.32 C 198.64 93.94 197.52 94.45 197.14 95.45 Z M 196.78 96.40 L 196.43 97.32 C 196.06 98.33 196.57 99.45 197.57 99.83 C 198.58 100.20 199.70 99.69 200.08 98.69 L 200.42 97.77 C 200.80 96.76 200.29 95.64 199.29 95.26 C 198.28 94.88 197.16 95.39 196.78 96.40 Z M 196.43 97.33 L 196.09 98.25 C 195.72 99.26 196.24 100.38 197.24 100.75 C 198.25 101.12 199.37 100.60 199.74 99.60 L 200.08 98.68 C 200.46 97.67 199.94 96.55 198.93 96.18 C 197.92 95.80 196.80 96.32 196.43 97.33 Z M 196.08 98.26 L 195.75 99.21 C 195.38 100.22 195.91 101.34 196.92 101.70 C 197.93 102.06 199.05 101.54 199.41 100.52 L 199.75 99.58 C 200.11 98.57 199.59 97.45 198.58 97.09 C 197.56 96.73 196.45 97.25 196.08 98.26 Z M 195.74 99.22 L 195.41 100.16 C 195.05 101.18 195.58 102.29 196.60 102.65 C 197.61 103.00 198.73 102.47 199.08 101.46 L 199.42 100.51 C 199.77 99.50 199.24 98.38 198.23 98.03 C 197.21 97.67 196.10 98.20 195.74 99.22 Z M 195.41 100.17 L 195.08 101.11 C 194.72 102.13 195.26 103.24 196.28 103.59 C 197.30 103.95 198.41 103.41 198.76 102.39 L 199.09 101.45 C 199.44 100.43 198.90 99.32 197.89 98.97 C 196.87 98.61 195.76 99.15 195.41 100.17 Z M 195.08 101.11 L 194.75 102.06 C 194.40 103.08 194.93 104.19 195.95 104.54 C 196.97 104.90 198.08 104.36 198.43 103.34 L 198.76 102.39 C 199.11 101.37 198.57 100.26 197.56 99.91 C 196.54 99.56 195.43 100.10 195.08 101.11 Z M 194.75 102.06 L 194.42 103.01 C 194.06 104.03 194.60 105.14 195.62 105.50 C 196.64 105.85 197.75 105.31 198.10 104.29 L 198.43 103.34 C 198.79 102.32 198.25 101.21 197.23 100.86 C 196.21 100.51 195.10 101.04 194.75 102.06 Z M 194.42 103.01 L 194.09 103.95 C 193.73 104.97 194.27 106.08 195.28 106.44 C 196.30 106.80 197.41 106.26 197.77 105.24 L 198.10 104.30 C 198.46 103.28 197.92 102.17 196.90 101.81 C 195.89 101.46 194.77 101.99 194.42 103.01 Z M 194.09 103.94 L 193.76 104.87 C 193.40 105.89 193.93 107.00 194.94 107.37 C 195.96 107.73 197.07 107.20 197.44 106.18 L 197.77 105.25 C 198.13 104.24 197.60 103.12 196.58 102.76 C 195.57 102.40 194.45 102.93 194.09 103.94 Z M 193.76 104.86 L 193.42 105.82 C 193.05 106.83 193.57 107.95 194.58 108.32 C 195.60 108.69 196.72 108.16 197.08 107.15 L 197.43 106.19 C 197.80 105.18 197.28 104.06 196.26 103.69 C 195.25 103.33 194.13 103.85 193.76 104.86 Z M 193.42 105.81 L 193.07 106.76 C 192.70 107.77 193.22 108.89 194.23 109.26 C 195.24 109.63 196.36 109.11 196.74 108.10 L 197.08 107.16 C 197.45 106.15 196.93 105.03 195.92 104.65 C 194.91 104.28 193.79 104.80 193.42 105.81 Z M 193.07 106.76 L 192.73 107.68 C 192.36 108.70 192.88 109.82 193.89 110.19 C 194.90 110.56 196.02 110.04 196.40 109.03 L 196.74 108.10 C 197.11 107.09 196.59 105.97 195.58 105.60 C 194.56 105.23 193.44 105.75 193.07 106.76 Z M 192.73 107.69 L 192.39 108.62 C 192.03 109.63 192.55 110.75 193.57 111.12 C 194.58 111.48 195.70 110.96 196.06 109.94 L 196.40 109.02 C 196.77 108.01 196.24 106.89 195.23 106.52 C 194.21 106.15 193.09 106.68 192.73 107.69 Z M 192.39 108.63 L 192.06 109.56 C 191.70 110.58 192.23 111.69 193.25 112.05 C 194.26 112.41 195.38 111.88 195.74 110.87 L 196.07 109.93 C 196.43 108.92 195.90 107.80 194.88 107.44 C 193.87 107.08 192.75 107.61 192.39 108.63 Z M 192.06 109.57 L 191.73 110.51 C 191.37 111.53 191.91 112.64 192.92 113.00 C 193.94 113.35 195.06 112.82 195.41 111.80 L 195.74 110.86 C 196.10 109.84 195.56 108.73 194.54 108.37 C 193.53 108.02 192.41 108.55 192.06 109.57 Z M 191.73 110.52 L 191.40 111.46 C 191.04 112.47 191.58 113.59 192.60 113.94 C 193.62 114.29 194.73 113.75 195.09 112.74 L 195.41 111.80 C 195.77 110.78 195.23 109.67 194.21 109.31 C 193.19 108.96 192.08 109.50 191.73 110.52 Z M 191.40 111.46 L 191.10 112.32 C 190.74 113.34 191.28 114.45 192.30 114.80 C 193.32 115.16 194.43 114.62 194.79 113.60 L 195.09 112.74 C 195.44 111.72 194.90 110.61 193.88 110.25 C 192.86 109.90 191.75 110.44 191.40 111.46 Z M 191.10 112.32 L 190.78 113.23 C 190.42 114.25 190.96 115.36 191.98 115.72 C 193.00 116.07 194.11 115.54 194.46 114.52 L 194.78 113.60 C 195.14 112.59 194.60 111.47 193.59 111.12 C 192.57 110.76 191.46 111.30 191.10 112.32 Z M 190.78 113.23 L 190.43 114.21 C 190.07 115.23 190.61 116.35 191.62 116.71 C 192.64 117.06 193.75 116.53 194.11 115.52 L 194.46 114.53 C 194.82 113.51 194.29 112.40 193.27 112.04 C 192.26 111.68 191.14 112.21 190.78 113.23 Z M 190.43 114.21 L 190.09 115.18 C 189.72 116.19 190.25 117.31 191.27 117.68 C 192.28 118.04 193.40 117.51 193.76 116.50 L 194.11 115.52 C 194.47 114.51 193.95 113.39 192.93 113.03 C 191.92 112.66 190.80 113.19 190.43 114.21 Z M 190.09 115.17 L 189.79 116.00 C 189.42 117.02 189.95 118.14 190.96 118.50 C 191.97 118.87 193.09 118.34 193.46 117.33 L 193.76 116.50 C 194.13 115.49 193.60 114.37 192.59 114.00 C 191.57 113.64 190.46 114.16 190.09 115.17 Z M 189.79 116.00 L 189.47 116.89 C 189.10 117.90 189.62 119.02 190.64 119.39 C 191.65 119.75 192.77 119.23 193.14 118.22 L 193.46 117.33 C 193.83 116.32 193.30 115.20 192.29 114.83 C 191.28 114.46 190.16 114.99 189.79 116.00 Z M 189.47 116.89 L 189.13 117.84 C 188.76 118.85 189.28 119.97 190.30 120.33 C 191.31 120.70 192.43 120.17 192.80 119.16 L 193.14 118.22 C 193.50 117.20 192.98 116.08 191.97 115.72 C 190.95 115.35 189.83 115.88 189.47 116.89 Z M 189.12 117.84 L 188.76 118.85 C 188.40 119.86 188.93 120.98 189.94 121.34 C 190.96 121.71 192.07 121.18 192.44 120.17 L 192.80 119.16 C 193.16 118.14 192.63 117.02 191.62 116.66 C 190.61 116.30 189.49 116.82 189.12 117.84 Z M 188.76 118.85 L 188.38 119.93 C 188.02 120.94 188.55 122.06 189.57 122.42 C 190.58 122.78 191.70 122.25 192.06 121.23 L 192.44 120.16 C 192.80 119.14 192.27 118.03 191.25 117.67 C 190.24 117.31 189.12 117.84 188.76 118.85 Z M 188.38 119.94 L 188.05 120.87 C 187.70 121.88 188.23 123.00 189.25 123.35 C 190.27 123.71 191.38 123.17 191.74 122.16 L 192.06 121.22 C 192.42 120.21 191.88 119.09 190.86 118.74 C 189.85 118.38 188.73 118.92 188.38 119.94 Z M 188.05 120.87 L 187.72 121.82 C 187.37 122.84 187.91 123.95 188.93 124.30 C 189.95 124.65 191.06 124.11 191.41 123.10 L 191.74 122.15 C 192.09 121.13 191.55 120.02 190.53 119.67 C 189.51 119.31 188.40 119.85 188.05 120.87 Z M 187.72 121.82 L 187.39 122.79 C 187.04 123.81 187.58 124.92 188.60 125.27 C 189.62 125.62 190.73 125.08 191.08 124.06 L 191.41 123.09 C 191.76 122.07 191.22 120.96 190.20 120.61 C 189.18 120.26 188.07 120.80 187.72 121.82 Z M 187.39 122.79 L 187.06 123.77 C 186.71 124.79 187.26 125.89 188.28 126.24 C 189.30 126.59 190.41 126.04 190.75 125.02 L 191.08 124.05 C 191.43 123.03 190.88 121.92 189.86 121.57 C 188.84 121.23 187.73 121.77 187.39 122.79 Z M 187.06 123.77 L 186.73 124.73 C 186.39 125.75 186.94 126.86 187.96 127.21 C 188.98 127.55 190.09 127.00 190.43 125.98 L 190.75 125.02 C 191.10 123.99 190.55 122.89 189.53 122.54 C 188.51 122.20 187.40 122.75 187.06 123.77 Z M 186.73 124.74 L 186.41 125.68 C 186.07 126.70 186.63 127.81 187.65 128.15 C 188.67 128.49 189.78 127.94 190.12 126.92 L 190.43 125.97 C 190.77 124.95 190.22 123.85 189.20 123.51 C 188.18 123.16 187.07 123.72 186.73 124.74 Z M 186.41 125.69 L 186.10 126.62 C 185.77 127.65 186.32 128.75 187.34 129.09 C 188.37 129.43 189.47 128.87 189.81 127.85 L 190.12 126.91 C 190.46 125.89 189.90 124.78 188.88 124.45 C 187.86 124.11 186.75 124.66 186.41 125.69 Z M 186.10 126.63 L 185.78 127.62 C 185.44 128.64 186.00 129.75 187.02 130.08 C 188.05 130.42 189.15 129.86 189.49 128.83 L 189.81 127.84 C 190.15 126.82 189.59 125.72 188.56 125.38 C 187.54 125.05 186.44 125.60 186.10 126.63 Z M 185.78 127.62 L 185.47 128.57 C 185.13 129.60 185.69 130.70 186.71 131.03 C 187.74 131.37 188.84 130.81 189.17 129.78 L 189.49 128.83 C 189.82 127.81 189.26 126.71 188.24 126.37 C 187.21 126.04 186.11 126.60 185.78 127.62 Z M 185.47 128.57 L 185.16 129.50 C 184.83 130.52 185.38 131.62 186.41 131.96 C 187.43 132.30 188.53 131.74 188.87 130.72 L 189.17 129.79 C 189.51 128.76 188.95 127.66 187.93 127.33 C 186.91 126.99 185.80 127.55 185.47 128.57 Z M 185.17 129.49 L 184.86 130.41 C 184.52 131.44 185.07 132.54 186.09 132.88 C 187.11 133.22 188.22 132.67 188.56 131.65 L 188.86 130.73 C 189.20 129.70 188.65 128.60 187.63 128.26 C 186.61 127.92 185.51 128.47 185.17 129.49 Z M 184.86 130.40 L 184.55 131.33 C 184.20 132.35 184.74 133.46 185.76 133.81 C 186.78 134.15 187.89 133.61 188.23 132.59 L 188.55 131.66 C 188.90 130.64 188.36 129.53 187.34 129.19 C 186.32 128.84 185.21 129.38 184.86 130.40 Z M 184.55 131.32 L 184.22 132.26 C 183.86 133.28 184.40 134.39 185.41 134.75 C 186.43 135.10 187.54 134.57 187.90 133.55 L 188.23 132.61 C 188.58 131.59 188.05 130.48 187.04 130.12 C 186.02 129.77 184.91 130.30 184.55 131.32 Z M 184.23 132.25 L 183.88 133.20 C 183.51 134.21 184.04 135.33 185.05 135.69 C 186.06 136.06 187.18 135.54 187.54 134.53 L 187.89 133.57 C 188.25 132.56 187.73 131.44 186.72 131.08 C 185.71 130.71 184.59 131.23 184.23 132.25 Z M 183.89 133.18 L 183.53 134.15 C 183.15 135.16 183.67 136.28 184.67 136.65 C 185.68 137.03 186.80 136.51 187.18 135.51 L 187.54 134.54 C 187.91 133.53 187.40 132.41 186.39 132.04 C 185.38 131.66 184.26 132.18 183.89 133.18 Z M 183.54 134.13 L 183.17 135.09 C 182.79 136.10 183.29 137.22 184.29 137.60 C 185.29 137.99 186.42 137.49 186.80 136.48 L 187.17 135.52 C 187.55 134.52 187.05 133.40 186.05 133.01 C 185.04 132.63 183.92 133.13 183.54 134.13 Z M 183.18 135.08 L 182.81 136.01 C 182.42 137.01 182.91 138.14 183.91 138.53 C 184.90 138.93 186.03 138.44 186.43 137.44 L 186.79 136.50 C 187.19 135.50 186.70 134.37 185.70 133.98 C 184.70 133.59 183.57 134.08 183.18 135.08 Z M 182.82 136.00 L 182.45 136.90 C 182.05 137.89 182.53 139.02 183.52 139.43 C 184.52 139.83 185.65 139.35 186.05 138.35 L 186.42 137.45 C 186.82 136.46 186.34 135.33 185.35 134.93 C 184.35 134.52 183.22 135.00 182.82 136.00 Z M 182.46 136.87 L 182.07 137.81 C 181.65 138.80 182.12 139.94 183.11 140.35 C 184.10 140.77 185.23 140.30 185.65 139.31 L 186.04 138.38 C 186.46 137.39 185.99 136.25 185.00 135.83 C 184.01 135.42 182.88 135.89 182.46 136.87 Z M 182.08 137.78 L 181.63 138.81 C 181.20 139.79 181.64 140.94 182.63 141.37 C 183.61 141.80 184.75 141.36 185.18 140.37 L 185.63 139.34 C 186.07 138.36 185.62 137.22 184.64 136.79 C 183.66 136.36 182.51 136.80 182.08 137.78 Z M 181.65 138.78 L 181.22 139.71 C 180.76 140.68 181.18 141.83 182.16 142.28 C 183.13 142.73 184.28 142.31 184.73 141.34 L 185.16 140.41 C 185.61 139.44 185.19 138.29 184.22 137.84 C 183.25 137.39 182.10 137.81 181.65 138.78 Z M 181.24 139.66 L 180.82 140.51 C 180.35 141.46 180.74 142.63 181.70 143.10 C 182.66 143.57 183.82 143.18 184.29 142.22 L 184.71 141.38 C 185.18 140.42 184.79 139.26 183.83 138.79 C 182.87 138.31 181.71 138.71 181.24 139.66 Z M 180.85 140.46 L 180.44 141.23 C 179.94 142.17 180.30 143.34 181.25 143.84 C 182.19 144.34 183.36 143.98 183.86 143.03 L 184.27 142.27 C 184.77 141.32 184.41 140.15 183.46 139.65 C 182.52 139.15 181.35 139.52 180.85 140.46 Z M 180.47 141.17 L 179.98 142.04 C 179.45 142.96 179.78 144.14 180.70 144.67 C 181.63 145.20 182.81 144.88 183.34 143.95 L 183.83 143.09 C 184.36 142.16 184.04 140.98 183.11 140.45 C 182.18 139.92 181.00 140.25 180.47 141.17 Z M 180.02 141.97 L 179.50 142.80 C 178.94 143.70 179.21 144.90 180.12 145.46 C 181.02 146.03 182.22 145.75 182.78 144.85 L 183.30 144.02 C 183.87 143.11 183.59 141.92 182.69 141.35 C 181.78 140.79 180.59 141.06 180.02 141.97 Z M 179.55 142.73 L 178.99 143.54 C 178.39 144.42 178.61 145.62 179.49 146.23 C 180.37 146.83 181.57 146.61 182.18 145.73 L 182.73 144.92 C 183.34 144.04 183.12 142.83 182.24 142.23 C 181.36 141.63 180.15 141.85 179.55 142.73 Z M 179.04 143.48 L 178.44 144.28 C 177.80 145.13 177.98 146.34 178.84 146.98 C 179.69 147.62 180.90 147.44 181.54 146.59 L 182.13 145.79 C 182.77 144.93 182.59 143.72 181.74 143.09 C 180.88 142.45 179.67 142.63 179.04 143.48 Z M 178.48 144.23 L 177.88 144.99 C 177.22 145.83 177.36 147.04 178.19 147.70 C 179.03 148.36 180.24 148.22 180.91 147.39 L 181.50 146.63 C 182.17 145.80 182.02 144.58 181.19 143.92 C 180.35 143.26 179.14 143.40 178.48 144.23 Z M 177.91 144.95 L 177.26 145.73 C 176.58 146.55 176.69 147.77 177.51 148.45 C 178.33 149.13 179.55 149.02 180.23 148.20 L 180.88 147.42 C 181.56 146.60 181.45 145.38 180.63 144.70 C 179.81 144.02 178.59 144.13 177.91 144.95 Z M 177.29 145.70 L 176.62 146.48 C 175.92 147.28 176.00 148.50 176.81 149.20 C 177.61 149.90 178.83 149.81 179.53 149.01 L 180.21 148.23 C 180.90 147.42 180.82 146.20 180.01 145.51 C 179.21 144.81 177.99 144.89 177.29 145.70 Z M 176.64 146.45 L 175.95 147.21 C 175.23 148.00 175.29 149.22 176.08 149.94 C 176.87 150.65 178.09 150.59 178.81 149.80 L 179.50 149.04 C 180.22 148.25 180.16 147.03 179.37 146.31 C 178.58 145.60 177.36 145.66 176.64 146.45 Z M 175.98 147.19 L 175.27 147.94 C 174.54 148.71 174.58 149.93 175.35 150.66 C 176.13 151.39 177.35 151.35 178.08 150.58 L 178.78 149.83 C 179.51 149.05 179.47 147.83 178.70 147.10 C 177.93 146.37 176.71 146.41 175.98 147.19 Z M 175.29 147.92 L 174.59 148.64 C 173.85 149.40 173.87 150.62 174.63 151.36 C 175.39 152.10 176.61 152.08 177.35 151.32 L 178.06 150.60 C 178.80 149.83 178.78 148.62 178.01 147.88 C 177.25 147.13 176.03 147.15 175.29 147.92 Z M 174.60 148.63 L 173.91 149.33 C 173.16 150.08 173.17 151.30 173.93 152.05 C 174.68 152.79 175.90 152.79 176.64 152.03 L 177.34 151.33 C 178.08 150.58 178.08 149.36 177.32 148.61 C 176.57 147.87 175.35 147.87 174.60 148.63 Z M 173.92 149.32 L 173.23 150.02 C 172.48 150.77 172.48 151.98 173.23 152.73 C 173.98 153.48 175.19 153.48 175.94 152.73 L 176.64 152.04 C 177.38 151.29 177.38 150.07 176.63 149.32 C 175.88 148.57 174.67 148.57 173.92 149.32 Z M 173.23 150.02 L 172.49 150.76 C 171.74 151.51 171.75 152.73 172.50 153.47 C 173.25 154.22 174.46 154.22 175.21 153.47 L 175.94 152.73 C 176.69 151.98 176.69 150.76 175.94 150.02 C 175.19 149.27 173.97 149.27 173.23 150.02 Z M 172.47 150.78 L 171.78 151.50 C 171.04 152.26 171.06 153.47 171.82 154.21 C 172.58 154.94 173.79 154.93 174.52 154.17 L 175.22 153.45 C 175.96 152.69 175.94 151.48 175.18 150.74 C 174.42 150.01 173.21 150.02 172.47 150.78 Z M 171.75 151.54 L 171.09 152.24 C 170.38 153.02 170.42 154.23 171.20 154.95 C 171.97 155.66 173.18 155.61 173.90 154.84 L 174.55 154.13 C 175.27 153.36 175.22 152.15 174.45 151.43 C 173.67 150.71 172.46 150.76 171.75 151.54 Z M 171.05 152.30 L 170.40 153.06 C 169.71 153.86 169.81 155.06 170.61 155.75 C 171.41 156.43 172.61 156.34 173.30 155.54 L 173.95 154.78 C 174.63 153.98 174.54 152.78 173.74 152.09 C 172.94 151.41 171.73 151.50 171.05 152.30 Z M 170.35 153.13 L 169.73 153.92 C 169.08 154.75 169.22 155.94 170.05 156.59 C 170.88 157.24 172.08 157.09 172.73 156.27 L 173.35 155.47 C 173.99 154.65 173.85 153.45 173.02 152.80 C 172.19 152.15 171.00 152.30 170.35 153.13 Z M 169.69 153.98 L 169.11 154.78 C 168.50 155.63 168.69 156.82 169.54 157.43 C 170.39 158.05 171.58 157.85 172.19 157.00 L 172.77 156.20 C 173.38 155.35 173.19 154.16 172.34 153.55 C 171.48 152.94 170.30 153.13 169.69 153.98 Z M 169.07 154.84 L 168.50 155.69 C 167.92 156.57 168.15 157.75 169.03 158.33 C 169.90 158.91 171.08 158.67 171.67 157.80 L 172.23 156.95 C 172.82 156.07 172.58 154.89 171.71 154.31 C 170.83 153.73 169.65 153.96 169.07 154.84 Z M 168.39 155.83 L 167.89 156.75 C 167.39 157.68 167.73 158.85 168.67 159.36 C 169.60 159.86 170.77 159.51 171.28 158.58 L 171.77 157.66 C 172.28 156.73 171.93 155.56 171.00 155.05 C 170.06 154.55 168.90 154.90 168.39 155.83 Z M 167.69 157.19 L 167.46 158.09 C 167.20 159.14 167.83 160.21 168.88 160.47 C 169.93 160.73 170.99 160.10 171.25 159.05 L 171.48 158.14 C 171.75 157.09 171.11 156.03 170.06 155.77 C 169.02 155.50 167.95 156.14 167.69 157.19 Z M 167.41 158.97 L 167.59 159.82 C 167.81 160.89 168.85 161.59 169.92 161.37 C 171.00 161.15 171.69 160.10 171.47 159.03 L 171.30 158.18 C 171.08 157.11 170.03 156.41 168.96 156.63 C 167.89 156.85 167.20 157.90 167.41 158.97 Z M 167.82 160.46 L 168.32 161.28 C 168.90 162.23 170.12 162.53 171.07 161.95 C 172.01 161.38 172.31 160.15 171.73 159.21 L 171.24 158.39 C 170.66 157.45 169.43 157.15 168.49 157.72 C 167.55 158.29 167.25 159.52 167.82 160.46 Z M 168.44 161.48 L 169.09 162.31 C 169.77 163.19 171.03 163.35 171.91 162.67 C 172.78 162.00 172.94 160.74 172.27 159.86 L 171.62 159.02 C 170.94 158.14 169.68 157.98 168.80 158.66 C 167.93 159.34 167.76 160.60 168.44 161.48 Z M 169.04 162.26 L 169.62 163.07 C 170.26 163.97 171.52 164.18 172.43 163.54 C 173.33 162.89 173.54 161.63 172.90 160.73 L 172.32 159.92 C 171.67 159.01 170.41 158.80 169.51 159.45 C 168.60 160.09 168.39 161.35 169.04 162.26 Z M 169.52 162.93 L 170.01 163.75 C 170.58 164.71 171.82 165.02 172.78 164.45 C 173.73 163.88 174.05 162.65 173.48 161.69 L 172.99 160.87 C 172.42 159.91 171.19 159.60 170.23 160.16 C 169.27 160.73 168.95 161.97 169.52 162.93 Z M 169.95 163.64 L 170.41 164.54 C 170.92 165.53 172.14 165.92 173.13 165.41 C 174.12 164.90 174.51 163.68 174.00 162.69 L 173.54 161.79 C 173.03 160.80 171.81 160.42 170.82 160.93 C 169.83 161.44 169.44 162.65 169.95 163.64 Z M 170.38 164.48 L 170.83 165.42 C 171.31 166.43 172.51 166.86 173.52 166.38 C 174.52 165.91 174.95 164.70 174.48 163.70 L 174.03 162.75 C 173.55 161.74 172.35 161.31 171.34 161.79 C 170.34 162.27 169.91 163.47 170.38 164.48 Z M 170.82 165.40 L 171.14 166.11 C 171.60 167.12 172.80 167.57 173.81 167.11 C 174.83 166.65 175.28 165.45 174.82 164.43 L 174.49 163.72 C 174.03 162.71 172.83 162.26 171.82 162.72 C 170.80 163.18 170.35 164.38 170.82 165.40 Z M 171.13 166.09 L 171.48 166.88 C 171.93 167.90 173.12 168.36 174.14 167.91 C 175.16 167.45 175.62 166.26 175.17 165.24 L 174.82 164.45 C 174.37 163.43 173.18 162.97 172.16 163.42 C 171.14 163.88 170.68 165.07 171.13 166.09 Z M 171.47 166.86 L 171.85 167.75 C 172.29 168.77 173.48 169.24 174.51 168.80 C 175.53 168.36 176.00 167.18 175.56 166.15 L 175.18 165.26 C 174.74 164.24 173.55 163.76 172.53 164.20 C 171.51 164.64 171.03 165.83 171.47 166.86 Z M 171.85 167.73 L 172.27 168.74 C 172.70 169.77 173.88 170.26 174.91 169.83 C 175.94 169.40 176.43 168.21 176.00 167.18 L 175.57 166.17 C 175.14 165.14 173.96 164.66 172.93 165.09 C 171.90 165.52 171.42 166.70 171.85 167.73 Z M 172.26 168.73 L 172.74 169.89 C 173.16 170.93 174.34 171.42 175.37 171.00 C 176.40 170.58 176.90 169.40 176.48 168.37 L 176.00 167.20 C 175.58 166.17 174.40 165.67 173.37 166.09 C 172.34 166.51 171.84 167.69 172.26 168.73 Z M 172.73 169.88 L 173.11 170.81 C 173.52 171.84 174.70 172.35 175.73 171.93 C 176.77 171.52 177.27 170.34 176.86 169.31 L 176.48 168.38 C 176.07 167.34 174.89 166.84 173.86 167.26 C 172.82 167.67 172.32 168.85 172.73 169.88 Z M 173.10 170.80 L 173.47 171.72 C 173.88 172.76 175.05 173.27 176.09 172.86 C 177.13 172.45 177.63 171.27 177.22 170.23 L 176.86 169.31 C 176.45 168.28 175.27 167.77 174.24 168.18 C 173.20 168.59 172.69 169.77 173.10 170.80 Z M 173.46 171.72 L 173.84 172.68 C 174.25 173.72 175.42 174.23 176.46 173.82 C 177.50 173.41 178.01 172.24 177.60 171.20 L 177.23 170.24 C 176.82 169.20 175.64 168.69 174.61 169.10 C 173.57 169.51 173.06 170.68 173.46 171.72 Z M 173.84 172.68 L 174.23 173.66 C 174.63 174.70 175.80 175.21 176.84 174.80 C 177.88 174.39 178.40 173.22 177.99 172.18 L 177.60 171.20 C 177.20 170.16 176.03 169.65 174.99 170.06 C 173.95 170.46 173.43 171.64 173.84 172.68 Z M 174.22 173.66 L 174.61 174.64 C 175.01 175.68 176.19 176.19 177.23 175.78 C 178.27 175.38 178.78 174.21 178.37 173.17 L 177.99 172.18 C 177.58 171.14 176.41 170.63 175.37 171.04 C 174.33 171.44 173.82 172.62 174.22 173.66 Z M 174.61 174.64 L 174.98 175.60 C 175.39 176.64 176.56 177.15 177.60 176.75 C 178.64 176.34 179.16 175.17 178.75 174.13 L 178.37 173.17 C 177.97 172.13 176.80 171.61 175.76 172.02 C 174.72 172.42 174.20 173.60 174.61 174.64 Z M 174.98 175.60 L 175.34 176.52 C 175.75 177.57 176.92 178.08 177.96 177.67 C 179.00 177.27 179.52 176.09 179.11 175.05 L 178.75 174.13 C 178.34 173.09 177.17 172.57 176.13 172.98 C 175.09 173.39 174.58 174.56 174.98 175.60 Z M 175.35 176.53 L 175.68 177.39 C 176.09 178.43 177.27 178.95 178.31 178.54 C 179.35 178.13 179.86 176.96 179.45 175.92 L 179.11 175.05 C 178.70 174.01 177.53 173.50 176.49 173.91 C 175.45 174.31 174.94 175.49 175.35 176.53 Z M 175.69 177.40 L 176.13 178.52 C 176.54 179.56 177.71 180.07 178.75 179.66 C 179.79 179.24 180.30 178.07 179.89 177.03 L 179.45 175.91 C 179.04 174.87 177.86 174.36 176.82 174.77 C 175.78 175.18 175.28 176.36 175.69 177.40 Z M 176.13 178.52 L 176.55 179.58 C 176.97 180.62 178.15 181.12 179.18 180.71 C 180.22 180.29 180.73 179.12 180.31 178.08 L 179.89 177.02 C 179.47 175.99 178.30 175.48 177.26 175.90 C 176.22 176.31 175.72 177.49 176.13 178.52 Z M 176.56 179.59 L 176.93 180.50 C 177.34 181.54 178.52 182.04 179.56 181.62 C 180.60 181.21 181.10 180.03 180.68 178.99 L 180.31 178.07 C 179.89 177.04 178.71 176.54 177.67 176.95 C 176.64 177.37 176.14 178.55 176.56 179.59 Z M 176.93 180.51 L 177.26 181.33 C 177.68 182.36 178.86 182.86 179.90 182.44 C 180.93 182.02 181.43 180.84 181.01 179.81 L 180.68 178.99 C 180.26 177.95 179.08 177.45 178.04 177.87 C 177.01 178.29 176.51 179.47 176.93 180.51 Z M 177.26 181.33 L 177.57 182.09 C 177.99 183.12 179.17 183.62 180.20 183.20 C 181.24 182.78 181.74 181.60 181.32 180.57 L 181.01 179.81 C 180.59 178.77 179.41 178.27 178.37 178.69 C 177.34 179.11 176.84 180.29 177.26 181.33 Z M 177.57 182.08 L 177.91 182.95 C 178.33 183.99 179.51 184.49 180.55 184.07 C 181.59 183.66 182.09 182.48 181.67 181.44 L 181.32 180.57 C 180.90 179.53 179.72 179.03 178.69 179.45 C 177.65 179.87 177.15 181.05 177.57 182.08 Z M 177.91 182.95 L 178.28 183.87 C 178.69 184.91 179.87 185.41 180.91 185.00 C 181.95 184.59 182.46 183.41 182.04 182.37 L 181.67 181.45 C 181.26 180.41 180.08 179.90 179.04 180.32 C 178.00 180.73 177.50 181.91 177.91 182.95 Z M 178.28 183.87 L 178.65 184.79 C 179.06 185.83 180.23 186.34 181.27 185.93 C 182.31 185.52 182.82 184.34 182.41 183.30 L 182.04 182.37 C 181.63 181.33 180.45 180.83 179.42 181.24 C 178.38 181.65 177.87 182.83 178.28 183.87 Z M 178.65 184.79 L 179.01 185.72 C 179.43 186.76 180.60 187.27 181.64 186.86 C 182.68 186.45 183.19 185.27 182.78 184.23 L 182.41 183.30 C 182.00 182.26 180.82 181.75 179.78 182.16 C 178.74 182.57 178.23 183.75 178.65 184.79 Z M 179.02 185.73 L 179.38 186.65 C 179.79 187.69 180.97 188.20 182.01 187.79 C 183.05 187.37 183.56 186.20 183.15 185.16 L 182.78 184.23 C 182.37 183.19 181.19 182.69 180.15 183.10 C 179.11 183.51 178.60 184.69 179.02 185.73 Z M 179.38 186.65 L 179.75 187.58 C 180.16 188.62 181.34 189.12 182.38 188.71 C 183.42 188.30 183.93 187.12 183.51 186.08 L 183.15 185.16 C 182.73 184.12 181.56 183.61 180.52 184.02 C 179.48 184.43 178.97 185.61 179.38 186.65 Z M 179.75 187.57 L 180.12 188.51 C 180.53 189.55 181.70 190.06 182.74 189.65 C 183.78 189.23 184.29 188.06 183.88 187.02 L 183.51 186.08 C 183.10 185.04 181.93 184.53 180.89 184.95 C 179.85 185.36 179.34 186.53 179.75 187.57 Z M 180.11 188.50 L 180.48 189.44 C 180.89 190.48 182.06 190.99 183.10 190.59 C 184.14 190.18 184.66 189.01 184.25 187.96 L 183.89 187.03 C 183.48 185.98 182.30 185.47 181.26 185.88 C 180.22 186.28 179.71 187.46 180.11 188.50 Z M 180.48 189.43 L 180.84 190.37 C 181.24 191.41 182.41 191.93 183.45 191.53 C 184.50 191.13 185.02 189.96 184.62 188.91 L 184.26 187.97 C 183.86 186.93 182.68 186.41 181.64 186.81 C 180.60 187.21 180.07 188.38 180.48 189.43 Z M 180.83 190.35 L 181.19 191.29 C 181.58 192.34 182.75 192.87 183.80 192.47 C 184.84 192.08 185.37 190.91 184.98 189.86 L 184.62 188.93 C 184.23 187.88 183.06 187.35 182.01 187.74 C 180.97 188.14 180.44 189.31 180.83 190.35 Z M 181.18 191.28 L 181.53 192.22 C 181.92 193.27 183.09 193.80 184.13 193.41 C 185.18 193.02 185.72 191.86 185.33 190.81 L 184.98 189.87 C 184.59 188.82 183.42 188.29 182.37 188.68 C 181.33 189.07 180.79 190.23 181.18 191.28 Z M 181.53 192.21 L 181.87 193.15 C 182.26 194.20 183.42 194.74 184.47 194.35 C 185.52 193.97 186.06 192.80 185.67 191.75 L 185.33 190.81 C 184.94 189.76 183.78 189.23 182.73 189.61 C 181.68 190.00 181.14 191.16 181.53 192.21 Z M 181.87 193.15 L 182.22 194.09 C 182.60 195.14 183.77 195.68 184.82 195.29 C 185.87 194.91 186.41 193.74 186.02 192.69 L 185.68 191.75 C 185.29 190.70 184.13 190.16 183.08 190.55 C 182.03 190.94 181.49 192.10 181.87 193.15 Z M 182.22 194.09 L 182.56 195.03 C 182.95 196.08 184.11 196.62 185.16 196.24 C 186.21 195.85 186.75 194.69 186.37 193.64 L 186.02 192.69 C 185.64 191.64 184.47 191.10 183.42 191.49 C 182.37 191.87 181.83 193.04 182.22 194.09 Z M 182.56 195.03 L 182.91 195.97 C 183.29 197.02 184.45 197.56 185.50 197.18 C 186.55 196.80 187.09 195.63 186.71 194.58 L 186.37 193.64 C 185.98 192.59 184.82 192.05 183.77 192.43 C 182.72 192.82 182.18 193.98 182.56 195.03 Z M 182.90 195.97 L 183.24 196.91 C 183.63 197.96 184.79 198.50 185.84 198.12 C 186.89 197.74 187.43 196.58 187.05 195.53 L 186.71 194.59 C 186.33 193.54 185.17 192.99 184.12 193.37 C 183.07 193.75 182.52 194.92 182.90 195.97 Z M 183.24 196.90 L 183.58 197.83 C 183.95 198.89 185.11 199.43 186.17 199.06 C 187.22 198.68 187.77 197.52 187.39 196.47 L 187.06 195.53 C 186.68 194.48 185.52 193.93 184.47 194.31 C 183.41 194.69 182.86 195.85 183.24 196.90 Z M 183.57 197.82 L 183.90 198.76 C 184.28 199.81 185.43 200.36 186.49 199.99 C 187.54 199.62 188.09 198.46 187.72 197.41 L 187.39 196.47 C 187.02 195.42 185.86 194.87 184.81 195.24 C 183.75 195.61 183.20 196.77 183.57 197.82 Z M 183.90 198.75 L 184.23 199.68 C 184.59 200.74 185.75 201.30 186.80 200.93 C 187.86 200.56 188.42 199.40 188.05 198.35 L 187.72 197.41 C 187.36 196.36 186.20 195.80 185.15 196.17 C 184.09 196.54 183.53 197.69 183.90 198.75 Z M 184.22 199.67 L 184.55 200.62 C 184.91 201.68 186.07 202.24 187.12 201.87 C 188.18 201.51 188.74 200.36 188.38 199.30 L 188.05 198.36 C 187.69 197.30 186.54 196.74 185.48 197.10 C 184.42 197.46 183.86 198.62 184.22 199.67 Z M 184.55 200.61 L 184.87 201.57 C 185.24 202.63 186.39 203.20 187.44 202.84 C 188.50 202.48 189.07 201.33 188.71 200.27 L 188.38 199.31 C 188.02 198.25 186.87 197.68 185.81 198.04 C 184.75 198.40 184.19 199.55 184.55 200.61 Z M 184.87 201.57 L 185.20 202.52 C 185.55 203.58 186.70 204.15 187.76 203.79 C 188.82 203.44 189.39 202.29 189.03 201.23 L 188.71 200.27 C 188.35 199.21 187.20 198.65 186.14 199.00 C 185.08 199.36 184.52 200.51 184.87 201.57 Z M 185.19 202.52 L 185.52 203.48 C 185.87 204.54 187.02 205.11 188.08 204.76 C 189.14 204.40 189.71 203.26 189.36 202.20 L 189.03 201.23 C 188.68 200.17 187.53 199.60 186.47 199.96 C 185.41 200.31 184.84 201.46 185.19 202.52 Z M 185.51 203.47 L 185.83 204.43 C 186.18 205.50 187.33 206.07 188.39 205.72 C 189.45 205.37 190.03 204.23 189.68 203.16 L 189.36 202.20 C 189.01 201.14 187.86 200.57 186.80 200.92 C 185.74 201.27 185.16 202.41 185.51 203.47 Z M 185.83 204.42 L 186.13 205.37 C 186.48 206.43 187.62 207.01 188.68 206.67 C 189.75 206.32 190.33 205.18 189.98 204.12 L 189.68 203.17 C 189.33 202.11 188.19 201.53 187.13 201.87 C 186.06 202.22 185.48 203.36 185.83 204.42 Z M 186.13 205.35 L 186.43 206.32 C 186.77 207.38 187.91 207.97 188.98 207.63 C 190.04 207.30 190.63 206.16 190.29 205.09 L 189.99 204.13 C 189.65 203.07 188.51 202.48 187.45 202.81 C 186.38 203.15 185.79 204.29 186.13 205.35 Z M 186.43 206.30 L 186.73 207.28 C 187.06 208.35 188.19 208.95 189.26 208.62 C 190.33 208.29 190.93 207.16 190.60 206.09 L 190.30 205.11 C 189.97 204.04 188.84 203.44 187.77 203.77 C 186.70 204.10 186.10 205.23 186.43 206.30 Z M 186.73 207.27 L 187.01 208.22 C 187.33 209.29 188.45 209.90 189.53 209.58 C 190.60 209.26 191.21 208.13 190.89 207.06 L 190.61 206.11 C 190.29 205.04 189.16 204.43 188.09 204.75 C 187.02 205.07 186.41 206.19 186.73 207.27 Z M 187.00 208.20 L 187.27 209.13 C 187.58 210.20 188.70 210.82 189.77 210.51 C 190.85 210.21 191.47 209.09 191.16 208.01 L 190.89 207.08 C 190.59 206.01 189.47 205.38 188.39 205.69 C 187.32 206.00 186.70 207.12 187.00 208.20 Z M 187.27 209.11 L 187.53 210.06 C 187.83 211.14 188.94 211.77 190.02 211.47 C 191.10 211.17 191.73 210.06 191.43 208.98 L 191.17 208.03 C 190.87 206.95 189.75 206.32 188.68 206.62 C 187.60 206.92 186.97 208.03 187.27 209.11 Z M 187.52 210.04 L 187.78 211.01 C 188.07 212.09 189.18 212.73 190.26 212.44 C 191.34 212.15 191.98 211.04 191.69 209.96 L 191.43 209.00 C 191.15 207.92 190.04 207.27 188.96 207.56 C 187.88 207.85 187.24 208.96 187.52 210.04 Z M 187.78 210.99 L 188.03 211.96 C 188.30 213.04 189.41 213.69 190.49 213.41 C 191.57 213.14 192.22 212.03 191.95 210.95 L 191.70 209.98 C 191.42 208.90 190.32 208.25 189.23 208.53 C 188.15 208.80 187.50 209.91 187.78 210.99 Z M 188.02 211.94 L 188.26 212.91 C 188.53 213.99 189.63 214.66 190.71 214.39 C 191.80 214.12 192.46 213.02 192.19 211.94 L 191.95 210.97 C 191.68 209.88 190.59 209.22 189.50 209.49 C 188.42 209.76 187.75 210.85 188.02 211.94 Z M 188.26 212.89 L 188.49 213.87 C 188.75 214.96 189.84 215.63 190.93 215.37 C 192.01 215.11 192.69 214.02 192.43 212.93 L 192.19 211.96 C 191.94 210.87 190.85 210.20 189.76 210.45 C 188.67 210.71 188.00 211.80 188.26 212.89 Z M 188.49 213.86 L 188.71 214.83 C 188.96 215.92 190.05 216.60 191.14 216.35 C 192.23 216.10 192.91 215.01 192.66 213.93 L 192.43 212.95 C 192.18 211.86 191.09 211.18 190.00 211.43 C 188.91 211.68 188.24 212.77 188.49 213.86 Z M 188.71 214.83 L 188.93 215.80 C 189.18 216.89 190.26 217.57 191.35 217.33 C 192.44 217.08 193.12 216.00 192.88 214.91 L 192.66 213.93 C 192.41 212.84 191.33 212.16 190.24 212.41 C 189.15 212.65 188.46 213.74 188.71 214.83 Z M 188.93 215.80 L 189.15 216.77 C 189.40 217.86 190.48 218.55 191.57 218.30 C 192.66 218.05 193.34 216.97 193.10 215.88 L 192.88 214.91 C 192.63 213.82 191.55 213.13 190.46 213.38 C 189.37 213.62 188.68 214.71 188.93 215.80 Z M 189.15 216.77 L 189.38 217.77 C 189.62 218.86 190.71 219.54 191.80 219.29 C 192.89 219.04 193.57 217.96 193.32 216.87 L 193.10 215.88 C 192.85 214.79 191.76 214.10 190.67 214.35 C 189.58 214.60 188.90 215.68 189.15 216.77 Z M 189.38 217.77 L 189.60 218.74 C 189.84 219.83 190.93 220.52 192.02 220.27 C 193.11 220.02 193.79 218.94 193.54 217.85 L 193.32 216.87 C 193.08 215.78 191.99 215.10 190.90 215.34 C 189.81 215.59 189.13 216.68 189.38 217.77 Z M 189.60 218.74 L 189.81 219.70 C 190.06 220.79 191.14 221.47 192.23 221.23 C 193.32 220.98 194.00 219.90 193.76 218.81 L 193.55 217.85 C 193.30 216.76 192.22 216.08 191.13 216.32 C 190.04 216.56 189.35 217.65 189.60 218.74 Z M 189.81 219.69 L 190.02 220.66 C 190.26 221.76 191.34 222.45 192.43 222.21 C 193.52 221.97 194.22 220.89 193.98 219.80 L 193.76 218.82 C 193.52 217.73 192.45 217.04 191.35 217.28 C 190.26 217.52 189.57 218.59 189.81 219.69 Z M 190.02 220.66 L 190.23 221.63 C 190.47 222.73 191.54 223.42 192.64 223.19 C 193.73 222.95 194.42 221.87 194.19 220.78 L 193.98 219.81 C 193.74 218.71 192.67 218.02 191.57 218.25 C 190.48 218.49 189.79 219.57 190.02 220.66 Z M 190.23 221.64 L 190.44 222.61 C 190.68 223.70 191.76 224.39 192.85 224.16 C 193.94 223.92 194.64 222.84 194.40 221.75 L 194.19 220.78 C 193.95 219.69 192.87 218.99 191.78 219.23 C 190.69 219.47 190.00 220.55 190.23 221.64 Z M 190.45 222.62 L 190.66 223.57 C 190.90 224.66 191.98 225.35 193.07 225.10 C 194.17 224.86 194.85 223.78 194.61 222.69 L 194.40 221.74 C 194.15 220.65 193.07 219.96 191.98 220.20 C 190.89 220.45 190.20 221.53 190.45 222.62 Z M 190.66 223.58 L 190.88 224.51 C 191.13 225.60 192.21 226.28 193.30 226.03 C 194.39 225.78 195.07 224.70 194.82 223.61 L 194.61 222.68 C 194.35 221.59 193.27 220.91 192.18 221.16 C 191.09 221.41 190.41 222.49 190.66 223.58 Z M 190.88 224.52 L 191.10 225.49 C 191.35 226.58 192.44 227.26 193.53 227.00 C 194.62 226.75 195.30 225.66 195.04 224.58 L 194.82 223.60 C 194.57 222.52 193.48 221.84 192.39 222.09 C 191.30 222.34 190.62 223.43 190.88 224.52 Z M 191.10 225.48 L 191.34 226.51 C 191.58 227.60 192.67 228.29 193.76 228.04 C 194.85 227.79 195.53 226.70 195.28 225.61 L 195.05 224.58 C 194.80 223.49 193.71 222.81 192.62 223.06 C 191.53 223.31 190.85 224.39 191.10 225.48 Z M 191.33 226.50 L 191.55 227.48 C 191.79 228.57 192.87 229.26 193.96 229.02 C 195.05 228.78 195.74 227.69 195.50 226.60 L 195.28 225.63 C 195.04 224.53 193.96 223.85 192.87 224.09 C 191.78 224.33 191.09 225.41 191.33 226.50 Z M 191.55 227.47 L 191.76 228.47 C 192.00 229.56 193.08 230.25 194.17 230.01 C 195.26 229.78 195.96 228.70 195.72 227.61 L 195.50 226.61 C 195.27 225.52 194.19 224.83 193.10 225.06 C 192.00 225.30 191.31 226.38 191.55 227.47 Z M 191.76 228.46 L 191.98 229.46 C 192.21 230.55 193.28 231.24 194.38 231.01 C 195.47 230.78 196.17 229.70 195.93 228.61 L 195.72 227.61 C 195.49 226.52 194.41 225.82 193.32 226.06 C 192.23 226.29 191.53 227.37 191.76 228.46 Z M 191.97 229.45 L 192.18 230.42 C 192.41 231.51 193.48 232.21 194.58 231.98 C 195.67 231.75 196.37 230.67 196.14 229.58 L 195.93 228.61 C 195.70 227.52 194.63 226.82 193.54 227.05 C 192.44 227.28 191.74 228.36 191.97 229.45 Z M 192.18 230.41 L 192.39 231.43 C 192.62 232.53 193.70 233.23 194.79 233.00 C 195.88 232.77 196.58 231.69 196.35 230.60 L 196.14 229.58 C 195.91 228.49 194.84 227.79 193.74 228.02 C 192.65 228.25 191.95 229.32 192.18 230.41 Z M 192.39 231.43 L 192.60 232.42 C 192.83 233.51 193.90 234.21 195.00 233.98 C 196.09 233.75 196.79 232.68 196.56 231.58 L 196.35 230.60 C 196.12 229.51 195.05 228.81 193.95 229.04 C 192.86 229.27 192.16 230.34 192.39 231.43 Z M 192.60 232.42 L 192.80 233.37 C 193.04 234.46 194.11 235.16 195.21 234.93 C 196.30 234.69 196.99 233.62 196.76 232.52 L 196.56 231.58 C 196.33 230.49 195.25 229.79 194.16 230.02 C 193.06 230.26 192.37 231.33 192.60 232.42 Z M 192.81 233.38 L 193.01 234.33 C 193.25 235.42 194.33 236.12 195.42 235.88 C 196.51 235.64 197.21 234.56 196.97 233.47 L 196.76 232.51 C 196.52 231.42 195.44 230.73 194.35 230.97 C 193.26 231.21 192.57 232.29 192.81 233.38 Z M 193.02 234.36 L 193.25 235.34 C 193.50 236.43 194.59 237.11 195.68 236.85 C 196.77 236.60 197.44 235.51 197.19 234.42 L 196.96 233.44 C 196.71 232.35 195.62 231.68 194.53 231.93 C 193.44 232.18 192.77 233.27 193.02 234.36 Z M 193.27 235.41 L 193.53 236.38 C 193.82 237.46 194.93 238.10 196.01 237.81 C 197.09 237.52 197.73 236.41 197.44 235.33 L 197.17 234.36 C 196.88 233.28 195.77 232.64 194.69 232.93 C 193.61 233.22 192.98 234.33 193.27 235.41 Z M 193.57 236.50 L 193.88 237.43 C 194.23 238.49 195.38 239.06 196.44 238.71 C 197.50 238.35 198.07 237.20 197.71 236.15 L 197.40 235.21 C 197.05 234.15 195.90 233.58 194.84 233.94 C 193.78 234.29 193.21 235.44 193.57 236.50 Z M 193.94 237.59 L 194.35 238.53 C 194.79 239.55 195.98 240.02 197.01 239.58 C 198.03 239.13 198.50 237.94 198.06 236.92 L 197.65 235.98 C 197.21 234.96 196.02 234.49 194.99 234.93 C 193.97 235.38 193.50 236.57 193.94 237.59 Z M 194.41 238.66 L 194.88 239.55 C 195.40 240.53 196.62 240.91 197.61 240.39 C 198.60 239.87 198.97 238.65 198.45 237.66 L 197.99 236.78 C 197.47 235.79 196.25 235.41 195.26 235.93 C 194.27 236.45 193.89 237.68 194.41 238.66 Z M 194.92 239.62 L 195.42 240.47 C 195.98 241.44 197.22 241.76 198.18 241.20 C 199.14 240.64 199.47 239.40 198.91 238.44 L 198.41 237.59 C 197.85 236.62 196.61 236.30 195.65 236.86 C 194.68 237.42 194.36 238.66 194.92 239.62 Z M 195.43 240.49 L 195.56 240.70 C 196.13 241.66 197.37 241.97 198.33 241.39 C 199.28 240.82 199.59 239.58 199.02 238.63 L 198.89 238.42 C 198.32 237.46 197.08 237.15 196.13 237.72 C 195.17 238.30 194.86 239.54 195.43 240.49 Z"
      fill="black"
      fill-rule="nonzero" /><path d="M 231.61 81.26 L 231.27 82.17 C 230.95 83.02 231.37 83.96 232.21 84.28 C 233.05 84.60 234.00 84.17 234.32 83.33 L 234.66 82.42 C 234.98 81.58 234.56 80.63 233.72 80.31 C 232.88 79.99 231.93 80.42 231.61 81.26 Z M 231.22 82.17 L 230.88 83.10 C 230.56 83.96 231.01 84.92 231.87 85.24 C 232.74 85.56 233.70 85.12 234.02 84.25 L 234.36 83.33 C 234.68 82.46 234.24 81.50 233.37 81.18 C 232.50 80.86 231.54 81.31 231.22 82.17 Z M 230.83 83.12 L 230.51 84.06 C 230.20 84.95 230.68 85.93 231.57 86.23 C 232.46 86.54 233.44 86.07 233.75 85.17 L 234.07 84.23 C 234.38 83.34 233.91 82.36 233.01 82.05 C 232.12 81.75 231.14 82.22 230.83 83.12 Z M 230.45 84.09 L 230.15 85.06 C 229.86 85.98 230.38 86.97 231.31 87.26 C 232.23 87.54 233.21 87.03 233.50 86.10 L 233.80 85.14 C 234.09 84.21 233.58 83.23 232.65 82.94 C 231.73 82.65 230.74 83.17 230.45 84.09 Z M 230.10 85.11 L 229.83 86.11 C 229.57 87.07 230.13 88.05 231.09 88.31 C 232.05 88.57 233.03 88.00 233.29 87.05 L 233.56 86.05 C 233.82 85.09 233.25 84.11 232.29 83.85 C 231.34 83.59 230.35 84.16 230.10 85.11 Z M 229.79 86.18 L 229.56 87.18 C 229.34 88.16 229.95 89.13 230.93 89.35 C 231.91 89.57 232.88 88.96 233.10 87.98 L 233.33 86.98 C 233.55 86.00 232.94 85.03 231.96 84.81 C 230.98 84.59 230.01 85.20 229.79 86.18 Z M 229.55 87.23 L 229.35 88.25 C 229.16 89.24 229.80 90.19 230.79 90.38 C 231.77 90.57 232.73 89.93 232.92 88.94 L 233.12 87.93 C 233.31 86.94 232.66 85.99 231.68 85.79 C 230.69 85.60 229.74 86.25 229.55 87.23 Z M 229.34 88.29 L 229.16 89.29 C 228.99 90.28 229.66 91.23 230.65 91.40 C 231.64 91.57 232.58 90.91 232.75 89.92 L 232.93 88.91 C 233.10 87.92 232.44 86.97 231.44 86.80 C 230.45 86.63 229.51 87.29 229.34 88.29 Z M 229.16 89.31 L 229.00 90.29 C 228.84 91.28 229.51 92.22 230.51 92.38 C 231.51 92.54 232.44 91.87 232.60 90.87 L 232.76 89.90 C 232.92 88.90 232.25 87.96 231.25 87.80 C 230.25 87.64 229.32 88.32 229.16 89.31 Z M 228.99 90.29 L 228.85 91.21 C 228.69 92.21 229.37 93.15 230.37 93.31 C 231.37 93.47 232.30 92.78 232.46 91.79 L 232.61 90.87 C 232.77 89.87 232.09 88.93 231.09 88.77 C 230.09 88.61 229.15 89.29 228.99 90.29 Z M 228.85 91.20 L 228.66 92.29 C 228.50 93.29 229.17 94.23 230.17 94.40 C 231.17 94.57 232.11 93.89 232.28 92.89 L 232.46 91.80 C 232.63 90.80 231.96 89.86 230.96 89.69 C 229.96 89.52 229.01 90.20 228.85 91.20 Z M 228.67 92.27 L 228.48 93.27 C 228.30 94.26 228.97 95.22 229.96 95.40 C 230.96 95.58 231.92 94.92 232.10 93.92 L 232.28 92.92 C 232.46 91.92 231.80 90.97 230.80 90.79 C 229.80 90.61 228.85 91.27 228.67 92.27 Z M 228.49 93.24 L 228.31 94.17 C 228.11 95.17 228.76 96.13 229.76 96.33 C 230.76 96.52 231.72 95.87 231.91 94.87 L 232.10 93.94 C 232.29 92.95 231.64 91.98 230.64 91.79 C 229.65 91.59 228.68 92.24 228.49 93.24 Z M 228.31 94.15 L 228.12 95.05 C 227.92 96.05 228.56 97.02 229.55 97.23 C 230.55 97.43 231.52 96.79 231.73 95.80 L 231.91 94.89 C 232.12 93.90 231.48 92.93 230.48 92.72 C 229.49 92.51 228.51 93.15 228.31 94.15 Z M 228.12 95.03 L 227.91 96.00 C 227.70 96.99 228.33 97.97 229.32 98.19 C 230.32 98.40 231.30 97.77 231.51 96.78 L 231.72 95.82 C 231.94 94.82 231.31 93.84 230.32 93.62 C 229.32 93.41 228.34 94.04 228.12 95.03 Z M 227.92 95.98 L 227.70 96.95 C 227.47 97.94 228.09 98.93 229.09 99.16 C 230.08 99.38 231.07 98.76 231.29 97.77 L 231.51 96.80 C 231.74 95.80 231.11 94.82 230.12 94.59 C 229.13 94.36 228.14 94.99 227.92 95.98 Z M 227.70 96.94 L 227.47 97.92 C 227.23 98.91 227.85 99.90 228.84 100.14 C 229.83 100.37 230.83 99.76 231.06 98.76 L 231.29 97.78 C 231.52 96.79 230.91 95.79 229.92 95.56 C 228.92 95.33 227.93 95.94 227.70 96.94 Z M 227.47 97.91 L 227.23 98.87 C 227.00 99.86 227.61 100.86 228.60 101.10 C 229.59 101.34 230.59 100.73 230.83 99.74 L 231.06 98.77 C 231.30 97.78 230.69 96.78 229.70 96.54 C 228.70 96.31 227.71 96.92 227.47 97.91 Z M 227.24 98.86 L 227.00 99.80 C 226.75 100.80 227.36 101.80 228.35 102.05 C 229.34 102.29 230.35 101.69 230.59 100.70 L 230.83 99.75 C 231.07 98.76 230.47 97.75 229.48 97.51 C 228.49 97.26 227.48 97.87 227.24 98.86 Z M 227.00 99.79 L 226.75 100.75 C 226.50 101.74 227.09 102.75 228.08 103.01 C 229.07 103.27 230.08 102.67 230.34 101.68 L 230.59 100.71 C 230.85 99.72 230.25 98.71 229.26 98.46 C 228.27 98.20 227.26 98.80 227.00 99.79 Z M 226.76 100.73 L 226.49 101.72 C 226.22 102.71 226.80 103.73 227.78 104.00 C 228.77 104.27 229.79 103.69 230.06 102.70 L 230.33 101.71 C 230.60 100.72 230.02 99.70 229.03 99.43 C 228.05 99.16 227.03 99.74 226.76 100.73 Z M 226.49 101.69 L 226.22 102.64 C 225.93 103.63 226.50 104.65 227.48 104.94 C 228.46 105.23 229.49 104.66 229.78 103.68 L 230.05 102.73 C 230.34 101.74 229.77 100.72 228.79 100.43 C 227.81 100.14 226.78 100.71 226.49 101.69 Z M 226.22 102.62 L 225.94 103.55 C 225.64 104.53 226.19 105.57 227.17 105.87 C 228.15 106.17 229.19 105.62 229.49 104.64 L 229.77 103.70 C 230.07 102.72 229.52 101.68 228.54 101.38 C 227.56 101.08 226.52 101.63 226.22 102.62 Z M 225.94 103.53 L 225.64 104.48 C 225.32 105.46 225.86 106.51 226.84 106.82 C 227.82 107.13 228.86 106.59 229.17 105.62 L 229.48 104.66 C 229.79 103.68 229.25 102.64 228.28 102.33 C 227.30 102.01 226.25 102.55 225.94 103.53 Z M 225.64 104.46 L 225.32 105.43 C 225.00 106.41 225.52 107.46 226.50 107.78 C 227.47 108.11 228.52 107.58 228.85 106.61 L 229.17 105.63 C 229.49 104.66 228.97 103.61 227.99 103.29 C 227.02 102.96 225.97 103.49 225.64 104.46 Z M 225.32 105.42 L 225.00 106.38 C 224.66 107.35 225.18 108.41 226.15 108.74 C 227.12 109.07 228.18 108.55 228.51 107.58 L 228.84 106.62 C 229.17 105.65 228.66 104.59 227.69 104.26 C 226.71 103.93 225.66 104.45 225.32 105.42 Z M 225.00 106.36 L 224.67 107.29 C 224.33 108.26 224.84 109.32 225.81 109.66 C 226.78 110.00 227.84 109.49 228.18 108.52 L 228.51 107.60 C 228.85 106.63 228.34 105.56 227.37 105.22 C 226.40 104.88 225.34 105.39 225.00 106.36 Z M 224.68 107.27 L 224.34 108.21 C 223.99 109.18 224.49 110.24 225.46 110.59 C 226.43 110.94 227.49 110.44 227.84 109.47 L 228.18 108.54 C 228.53 107.57 228.03 106.50 227.06 106.15 C 226.09 105.80 225.03 106.31 224.68 107.27 Z M 224.34 108.19 L 223.99 109.14 C 223.64 110.10 224.13 111.18 225.09 111.53 C 226.06 111.89 227.13 111.40 227.49 110.43 L 227.84 109.49 C 228.19 108.52 227.70 107.45 226.74 107.09 C 225.77 106.74 224.70 107.23 224.34 108.19 Z M 224.00 109.12 L 223.64 110.08 C 223.27 111.04 223.75 112.12 224.72 112.48 C 225.68 112.85 226.75 112.36 227.12 111.40 L 227.48 110.45 C 227.85 109.49 227.37 108.41 226.40 108.04 C 225.44 107.68 224.37 108.16 224.00 109.12 Z M 223.64 110.06 L 223.28 110.98 C 222.91 111.94 223.38 113.02 224.34 113.39 C 225.30 113.77 226.38 113.29 226.76 112.34 L 227.11 111.42 C 227.49 110.46 227.01 109.38 226.06 109.00 C 225.10 108.63 224.02 109.10 223.64 110.06 Z M 223.29 110.97 L 222.92 111.88 C 222.54 112.83 223.01 113.92 223.96 114.30 C 224.92 114.68 226.00 114.22 226.39 113.26 L 226.75 112.35 C 227.13 111.39 226.67 110.31 225.71 109.93 C 224.75 109.54 223.67 110.01 223.29 110.97 Z M 222.93 111.87 L 222.55 112.79 C 222.16 113.74 222.62 114.83 223.58 115.22 C 224.53 115.61 225.62 115.15 226.01 114.19 L 226.38 113.27 C 226.77 112.32 226.31 111.23 225.36 110.84 C 224.40 110.45 223.32 110.91 222.93 111.87 Z M 222.56 112.78 L 222.17 113.71 C 221.78 114.66 222.23 115.75 223.18 116.15 C 224.13 116.54 225.22 116.09 225.62 115.14 L 226.00 114.20 C 226.40 113.25 225.94 112.16 224.99 111.77 C 224.04 111.38 222.95 111.83 222.56 112.78 Z M 222.17 113.70 L 221.78 114.65 C 221.38 115.60 221.82 116.69 222.77 117.09 C 223.72 117.49 224.82 117.04 225.21 116.09 L 225.61 115.15 C 226.01 114.20 225.56 113.10 224.61 112.71 C 223.66 112.31 222.57 112.75 222.17 113.70 Z M 221.78 114.64 L 221.39 115.57 C 220.99 116.52 221.43 117.61 222.38 118.01 C 223.32 118.41 224.42 117.97 224.82 117.02 L 225.21 116.10 C 225.61 115.15 225.17 114.06 224.22 113.66 C 223.28 113.25 222.18 113.70 221.78 114.64 Z M 221.39 115.56 L 220.99 116.49 C 220.59 117.43 221.03 118.53 221.97 118.94 C 222.92 119.34 224.02 118.90 224.42 117.96 L 224.82 117.03 C 225.22 116.08 224.78 114.99 223.84 114.58 C 222.89 114.18 221.80 114.62 221.39 115.56 Z M 221.00 116.48 L 220.60 117.41 C 220.19 118.35 220.62 119.45 221.57 119.86 C 222.51 120.27 223.61 119.83 224.02 118.89 L 224.42 117.96 C 224.83 117.02 224.39 115.92 223.45 115.51 C 222.50 115.10 221.41 115.54 221.00 116.48 Z M 220.60 117.40 L 220.20 118.32 C 219.78 119.26 220.21 120.36 221.16 120.77 C 222.10 121.19 223.20 120.76 223.61 119.82 L 224.01 118.90 C 224.43 117.95 224.00 116.85 223.05 116.44 C 222.11 116.03 221.01 116.46 220.60 117.40 Z M 220.20 118.31 L 219.80 119.21 C 219.38 120.16 219.80 121.26 220.75 121.68 C 221.69 122.09 222.79 121.67 223.21 120.73 L 223.61 119.82 C 224.03 118.88 223.60 117.78 222.66 117.36 C 221.72 116.95 220.62 117.37 220.20 118.31 Z M 219.80 119.20 L 219.38 120.13 C 218.96 121.07 219.38 122.18 220.32 122.60 C 221.26 123.02 222.36 122.60 222.78 121.67 L 223.20 120.74 C 223.63 119.80 223.21 118.69 222.27 118.27 C 221.33 117.85 220.23 118.27 219.80 119.20 Z M 219.39 120.12 L 218.97 121.04 C 218.54 121.98 218.95 123.09 219.88 123.52 C 220.82 123.94 221.93 123.53 222.36 122.60 L 222.78 121.68 C 223.21 120.74 222.80 119.63 221.86 119.20 C 220.92 118.77 219.82 119.19 219.39 120.12 Z M 218.97 121.03 L 218.55 121.94 C 218.12 122.87 218.52 123.98 219.45 124.41 C 220.39 124.85 221.50 124.44 221.93 123.51 L 222.35 122.61 C 222.79 121.67 222.38 120.57 221.45 120.13 C 220.52 119.70 219.41 120.10 218.97 121.03 Z M 218.55 121.93 L 218.13 122.82 C 217.69 123.75 218.09 124.86 219.02 125.30 C 219.95 125.74 221.06 125.34 221.50 124.41 L 221.93 123.52 C 222.37 122.59 221.97 121.48 221.04 121.04 C 220.11 120.60 219.00 121.00 218.55 121.93 Z M 218.14 122.81 L 217.71 123.69 C 217.27 124.62 217.66 125.73 218.59 126.18 C 219.51 126.63 220.63 126.23 221.07 125.31 L 221.50 124.42 C 221.95 123.49 221.55 122.38 220.63 121.93 C 219.70 121.49 218.58 121.88 218.14 122.81 Z M 217.72 123.68 L 217.28 124.58 C 216.83 125.51 217.21 126.62 218.14 127.07 C 219.07 127.52 220.18 127.14 220.63 126.21 L 221.07 125.32 C 221.52 124.39 221.14 123.27 220.21 122.82 C 219.28 122.37 218.17 122.76 217.72 123.68 Z M 217.28 124.57 L 216.84 125.47 C 216.39 126.40 216.76 127.51 217.69 127.97 C 218.61 128.42 219.73 128.04 220.19 127.12 L 220.63 126.22 C 221.08 125.30 220.70 124.18 219.78 123.72 C 218.86 123.27 217.74 123.65 217.28 124.57 Z M 216.84 125.46 L 216.40 126.36 C 215.94 127.28 216.31 128.40 217.23 128.86 C 218.16 129.32 219.28 128.95 219.74 128.02 L 220.18 127.13 C 220.64 126.21 220.27 125.09 219.34 124.63 C 218.42 124.17 217.30 124.54 216.84 125.46 Z M 216.40 126.35 L 215.95 127.25 C 215.49 128.17 215.86 129.29 216.78 129.75 C 217.70 130.21 218.82 129.84 219.28 128.92 L 219.73 128.03 C 220.19 127.11 219.82 125.99 218.90 125.53 C 217.98 125.06 216.86 125.43 216.40 126.35 Z M 215.95 127.24 L 215.50 128.14 C 215.04 129.05 215.40 130.18 216.32 130.64 C 217.24 131.11 218.36 130.74 218.83 129.82 L 219.28 128.93 C 219.75 128.01 219.38 126.89 218.46 126.42 C 217.54 125.96 216.42 126.32 215.95 127.24 Z M 215.50 128.13 L 215.04 129.04 C 214.57 129.95 214.94 131.08 215.85 131.55 C 216.77 132.01 217.89 131.65 218.36 130.73 L 218.83 129.83 C 219.29 128.91 218.93 127.79 218.01 127.32 C 217.10 126.85 215.97 127.21 215.50 128.13 Z M 215.04 129.03 L 214.58 129.93 C 214.11 130.85 214.47 131.97 215.39 132.44 C 216.30 132.91 217.43 132.55 217.90 131.64 L 218.36 130.74 C 218.83 129.82 218.47 128.70 217.55 128.23 C 216.64 127.76 215.51 128.12 215.04 129.03 Z M 214.58 129.93 L 214.13 130.81 C 213.65 131.73 214.01 132.85 214.92 133.32 C 215.84 133.80 216.96 133.44 217.44 132.53 L 217.90 131.64 C 218.37 130.73 218.01 129.60 217.10 129.13 C 216.18 128.65 215.06 129.01 214.58 129.93 Z M 214.13 130.81 L 213.67 131.68 C 213.20 132.59 213.55 133.71 214.46 134.19 C 215.38 134.67 216.50 134.31 216.98 133.40 L 217.43 132.53 C 217.91 131.62 217.56 130.49 216.64 130.02 C 215.73 129.54 214.60 129.89 214.13 130.81 Z M 213.68 131.67 L 213.21 132.56 C 212.73 133.47 213.08 134.60 213.99 135.08 C 214.90 135.56 216.03 135.21 216.51 134.30 L 216.98 133.41 C 217.46 132.49 217.11 131.37 216.20 130.89 C 215.28 130.41 214.16 130.76 213.68 131.67 Z M 213.21 132.56 L 212.74 133.45 C 212.25 134.36 212.60 135.49 213.51 135.97 C 214.42 136.46 215.55 136.11 216.03 135.20 L 216.50 134.30 C 216.99 133.40 216.64 132.27 215.73 131.78 C 214.82 131.30 213.69 131.65 213.21 132.56 Z M 212.74 133.45 L 212.27 134.32 C 211.78 135.23 212.12 136.36 213.03 136.85 C 213.94 137.33 215.07 136.99 215.56 136.08 L 216.03 135.21 C 216.51 134.30 216.17 133.17 215.26 132.68 C 214.36 132.20 213.23 132.54 212.74 133.45 Z M 212.27 134.32 L 211.80 135.18 C 211.31 136.09 211.65 137.22 212.56 137.71 C 213.46 138.20 214.60 137.86 215.08 136.96 L 215.55 136.09 C 216.04 135.18 215.70 134.05 214.80 133.56 C 213.89 133.07 212.76 133.41 212.27 134.32 Z M 211.81 135.18 L 211.33 136.05 C 210.84 136.95 211.17 138.08 212.08 138.58 C 212.98 139.07 214.12 138.73 214.61 137.83 L 215.08 136.96 C 215.57 136.06 215.24 134.93 214.34 134.43 C 213.43 133.94 212.30 134.27 211.81 135.18 Z M 211.34 136.04 L 210.86 136.92 C 210.36 137.82 210.69 138.95 211.59 139.45 C 212.49 139.94 213.63 139.62 214.12 138.71 L 214.60 137.84 C 215.10 136.93 214.77 135.80 213.87 135.31 C 212.97 134.81 211.83 135.14 211.34 136.04 Z M 210.86 136.91 L 210.38 137.78 C 209.87 138.68 210.20 139.82 211.10 140.32 C 212.00 140.82 213.13 140.49 213.63 139.59 L 214.12 138.72 C 214.62 137.82 214.29 136.69 213.39 136.19 C 212.50 135.69 211.36 136.01 210.86 136.91 Z M 210.38 137.77 L 209.89 138.64 C 209.39 139.54 209.70 140.67 210.60 141.18 C 211.49 141.68 212.63 141.37 213.13 140.47 L 213.62 139.60 C 214.13 138.71 213.81 137.57 212.92 137.07 C 212.02 136.56 210.89 136.88 210.38 137.77 Z M 209.90 138.63 L 209.40 139.51 C 208.88 140.40 209.19 141.54 210.09 142.05 C 210.98 142.56 212.11 142.25 212.63 141.36 L 213.13 140.48 C 213.64 139.59 213.33 138.45 212.44 137.94 C 211.54 137.43 210.41 137.74 209.90 138.63 Z M 209.40 139.50 L 208.88 140.40 C 208.36 141.29 208.67 142.43 209.56 142.94 C 210.44 143.46 211.58 143.16 212.10 142.27 L 212.62 141.37 C 213.13 140.48 212.83 139.34 211.94 138.83 C 211.05 138.31 209.92 138.61 209.40 139.50 Z M 208.88 140.40 L 208.37 141.28 C 207.85 142.16 208.15 143.30 209.04 143.82 C 209.93 144.34 211.06 144.04 211.58 143.15 L 212.09 142.27 C 212.61 141.38 212.31 140.25 211.43 139.73 C 210.54 139.21 209.40 139.51 208.88 140.40 Z M 208.37 141.28 L 207.88 142.12 C 207.36 143.01 207.66 144.15 208.55 144.66 C 209.44 145.18 210.57 144.88 211.09 143.99 L 211.58 143.15 C 212.10 142.26 211.80 141.12 210.91 140.61 C 210.02 140.09 208.89 140.39 208.37 141.28 Z M 207.88 142.13 L 207.40 142.95 C 206.89 143.84 207.20 144.98 208.08 145.49 C 208.97 146.00 210.11 145.70 210.62 144.81 L 211.09 143.99 C 211.60 143.10 211.30 141.96 210.41 141.45 C 209.52 140.94 208.39 141.24 207.88 142.13 Z M 207.40 142.96 L 206.93 143.79 C 206.42 144.69 206.73 145.82 207.62 146.32 C 208.51 146.83 209.65 146.52 210.15 145.63 L 210.62 144.80 C 211.13 143.91 210.82 142.77 209.93 142.27 C 209.04 141.76 207.90 142.07 207.40 142.96 Z M 206.93 143.79 L 206.45 144.63 C 205.94 145.52 206.25 146.65 207.14 147.16 C 208.03 147.67 209.17 147.36 209.67 146.47 L 210.15 145.63 C 210.66 144.74 210.35 143.61 209.46 143.10 C 208.57 142.59 207.43 142.90 206.93 143.79 Z M 206.46 144.62 L 205.93 145.53 C 205.42 146.41 205.72 147.55 206.60 148.06 C 207.49 148.57 208.62 148.27 209.14 147.39 L 209.66 146.48 C 210.18 145.60 209.88 144.46 208.99 143.95 C 208.11 143.43 206.97 143.73 206.46 144.62 Z M 205.94 145.51 L 205.45 146.34 C 204.92 147.22 205.21 148.36 206.09 148.88 C 206.97 149.40 208.11 149.12 208.63 148.24 L 209.13 147.40 C 209.65 146.53 209.36 145.39 208.48 144.87 C 207.60 144.34 206.47 144.63 205.94 145.51 Z M 205.46 146.33 L 204.95 147.17 C 204.42 148.04 204.70 149.18 205.57 149.71 C 206.45 150.24 207.58 149.96 208.11 149.09 L 208.62 148.25 C 209.15 147.37 208.87 146.24 208.00 145.71 C 207.12 145.18 205.99 145.46 205.46 146.33 Z M 204.96 147.16 L 204.42 148.04 C 203.89 148.91 204.16 150.04 205.03 150.58 C 205.90 151.11 207.04 150.83 207.57 149.97 L 208.11 149.09 C 208.64 148.22 208.37 147.09 207.50 146.55 C 206.63 146.02 205.49 146.29 204.96 147.16 Z M 204.43 148.03 L 203.88 148.92 C 203.35 149.78 203.61 150.92 204.48 151.45 C 205.35 151.99 206.48 151.72 207.02 150.85 L 207.56 149.97 C 208.10 149.10 207.83 147.97 206.97 147.43 C 206.10 146.90 204.96 147.17 204.43 148.03 Z M 203.89 148.91 L 203.35 149.78 C 202.81 150.65 203.07 151.78 203.94 152.32 C 204.80 152.86 205.94 152.59 206.47 151.73 L 207.01 150.86 C 207.55 149.99 207.28 148.86 206.42 148.32 C 205.56 147.79 204.42 148.05 203.89 148.91 Z M 203.35 149.78 L 202.77 150.71 C 202.23 151.57 202.50 152.70 203.36 153.24 C 204.22 153.78 205.36 153.51 205.89 152.65 L 206.47 151.73 C 207.01 150.87 206.74 149.73 205.88 149.19 C 205.02 148.66 203.89 148.92 203.35 149.78 Z M 202.77 150.71 L 202.23 151.58 C 201.69 152.45 201.95 153.58 202.82 154.12 C 203.68 154.65 204.81 154.39 205.35 153.53 L 205.89 152.65 C 206.43 151.79 206.17 150.66 205.30 150.12 C 204.44 149.58 203.31 149.85 202.77 150.71 Z M 202.22 151.59 L 201.71 152.42 C 201.18 153.29 201.45 154.42 202.31 154.95 C 203.17 155.49 204.31 155.22 204.84 154.35 L 205.35 153.52 C 205.88 152.66 205.62 151.52 204.75 150.99 C 203.89 150.46 202.75 150.73 202.22 151.59 Z M 201.70 152.44 L 201.22 153.23 C 200.70 154.10 200.98 155.23 201.85 155.75 C 202.71 156.28 203.84 156.00 204.37 155.13 L 204.85 154.34 C 205.37 153.47 205.09 152.34 204.22 151.82 C 203.36 151.29 202.23 151.57 201.70 152.44 Z M 201.21 153.25 L 200.70 154.13 C 200.18 155.01 200.48 156.13 201.35 156.64 C 202.23 157.16 203.35 156.86 203.87 155.99 L 204.38 155.11 C 204.89 154.23 204.60 153.11 203.72 152.59 C 202.85 152.08 201.72 152.38 201.21 153.25 Z M 200.69 154.15 L 200.19 155.03 C 199.69 155.91 200.00 157.03 200.88 157.53 C 201.76 158.03 202.88 157.72 203.38 156.84 L 203.88 155.97 C 204.38 155.08 204.07 153.96 203.19 153.46 C 202.31 152.96 201.19 153.27 200.69 154.15 Z M 200.18 155.04 L 199.71 155.89 C 199.21 156.77 199.53 157.89 200.41 158.38 C 201.29 158.88 202.41 158.56 202.90 157.68 L 203.38 156.83 C 203.88 155.95 203.56 154.83 202.68 154.34 C 201.80 153.84 200.68 154.15 200.18 155.04 Z M 199.71 155.88 L 199.23 156.73 C 198.73 157.61 199.04 158.73 199.92 159.23 C 200.80 159.73 201.92 159.42 202.42 158.54 L 202.90 157.69 C 203.40 156.81 203.09 155.69 202.21 155.19 C 201.33 154.69 200.21 155.00 199.71 155.88 Z M 199.23 156.71 L 198.73 157.58 C 198.21 158.46 198.51 159.59 199.39 160.10 C 200.27 160.61 201.40 160.31 201.91 159.43 L 202.42 158.56 C 202.93 157.68 202.63 156.55 201.75 156.04 C 200.87 155.53 199.74 155.83 199.23 156.71 Z M 198.73 157.55 L 198.21 158.40 C 197.68 159.28 197.96 160.42 198.84 160.95 C 199.72 161.48 200.86 161.20 201.39 160.32 L 201.90 159.46 C 202.43 158.59 202.15 157.45 201.28 156.92 C 200.40 156.39 199.26 156.67 198.73 157.55 Z M 198.23 158.36 L 197.70 159.19 C 197.14 160.06 197.40 161.22 198.27 161.77 C 199.13 162.32 200.29 162.07 200.84 161.20 L 201.37 160.37 C 201.93 159.50 201.67 158.34 200.80 157.79 C 199.93 157.24 198.78 157.49 198.23 158.36 Z M 197.70 159.16 L 197.12 160.04 C 196.55 160.90 196.79 162.07 197.65 162.64 C 198.52 163.21 199.69 162.97 200.26 162.11 L 200.84 161.23 C 201.41 160.37 201.17 159.20 200.30 158.63 C 199.44 158.06 198.27 158.29 197.70 159.16 Z M 197.05 160.13 L 196.55 160.99 C 196.03 161.90 196.34 163.06 197.25 163.58 C 198.16 164.10 199.31 163.79 199.83 162.88 L 200.33 162.01 C 200.85 161.11 200.54 159.95 199.63 159.43 C 198.73 158.91 197.57 159.22 197.05 160.13 Z M 196.40 161.30 L 196.08 162.18 C 195.72 163.18 196.24 164.27 197.23 164.62 C 198.23 164.98 199.32 164.46 199.67 163.47 L 199.99 162.58 C 200.34 161.59 199.83 160.50 198.83 160.14 C 197.84 159.79 196.75 160.30 196.40 161.30 Z M 195.96 162.70 L 195.90 163.57 C 195.83 164.63 196.63 165.55 197.68 165.62 C 198.74 165.69 199.66 164.89 199.73 163.84 L 199.79 162.96 C 199.86 161.90 199.06 160.98 198.01 160.91 C 196.95 160.84 196.03 161.64 195.96 162.70 Z M 195.91 164.04 L 196.07 164.98 C 196.26 166.03 197.26 166.73 198.31 166.55 C 199.36 166.37 200.07 165.37 199.88 164.31 L 199.72 163.37 C 199.54 162.32 198.53 161.62 197.48 161.80 C 196.43 161.98 195.73 162.98 195.91 164.04 Z M 196.14 165.29 L 196.50 166.32 C 196.86 167.33 197.97 167.86 198.98 167.51 C 200.00 167.15 200.53 166.04 200.17 165.03 L 199.81 164.00 C 199.46 162.99 198.35 162.45 197.33 162.81 C 196.32 163.17 195.79 164.28 196.14 165.29 Z M 196.56 166.49 L 196.98 167.39 C 197.43 168.37 198.59 168.80 199.57 168.35 C 200.55 167.90 200.98 166.74 200.53 165.76 L 200.11 164.86 C 199.66 163.88 198.50 163.45 197.52 163.90 C 196.54 164.35 196.11 165.51 196.56 166.49 Z M 197.02 167.47 L 197.45 168.31 C 197.95 169.27 199.13 169.65 200.09 169.15 C 201.05 168.65 201.42 167.47 200.92 166.51 L 200.49 165.67 C 199.99 164.71 198.81 164.34 197.85 164.83 C 196.89 165.33 196.52 166.51 197.02 167.47 Z M 197.48 168.36 L 197.96 169.24 C 198.49 170.18 199.68 170.53 200.62 170.00 C 201.57 169.48 201.91 168.29 201.39 167.34 L 200.90 166.46 C 200.38 165.52 199.19 165.17 198.24 165.70 C 197.29 166.22 196.95 167.41 197.48 168.36 Z M 197.98 169.26 L 198.50 170.17 C 199.03 171.11 200.23 171.44 201.17 170.90 C 202.11 170.36 202.43 169.17 201.90 168.23 L 201.37 167.32 C 200.84 166.38 199.64 166.05 198.70 166.59 C 197.76 167.13 197.44 168.32 197.98 169.26 Z M 198.50 170.18 L 199.04 171.11 C 199.58 172.05 200.78 172.37 201.71 171.83 C 202.65 171.29 202.97 170.09 202.43 169.15 L 201.89 168.22 C 201.35 167.28 200.15 166.96 199.22 167.50 C 198.28 168.04 197.96 169.24 198.50 170.18 Z M 199.03 171.10 L 199.51 171.94 C 200.05 172.88 201.24 173.20 202.18 172.66 C 203.12 172.13 203.45 170.93 202.91 169.99 L 202.43 169.16 C 201.90 168.22 200.70 167.89 199.76 168.43 C 198.82 168.97 198.49 170.17 199.03 171.10 Z M 199.50 171.93 L 199.98 172.78 C 200.52 173.72 201.71 174.05 202.65 173.52 C 203.60 172.98 203.93 171.79 203.39 170.84 L 202.92 170.00 C 202.38 169.05 201.19 168.72 200.24 169.26 C 199.30 169.79 198.97 170.99 199.50 171.93 Z M 199.98 172.77 L 200.46 173.63 C 200.99 174.58 202.19 174.91 203.13 174.38 C 204.08 173.86 204.41 172.66 203.88 171.72 L 203.40 170.85 C 202.87 169.91 201.67 169.57 200.73 170.10 C 199.79 170.63 199.45 171.82 199.98 172.77 Z M 200.46 173.63 L 200.95 174.51 C 201.48 175.46 202.67 175.80 203.62 175.28 C 204.56 174.75 204.91 173.56 204.38 172.61 L 203.89 171.72 C 203.36 170.78 202.17 170.43 201.22 170.96 C 200.27 171.48 199.93 172.68 200.46 173.63 Z M 200.95 174.51 L 201.45 175.42 C 201.97 176.37 203.17 176.72 204.11 176.20 C 205.06 175.67 205.41 174.48 204.89 173.53 L 204.38 172.62 C 203.86 171.67 202.67 171.32 201.72 171.84 C 200.77 172.37 200.43 173.56 200.95 174.51 Z M 201.45 175.42 L 201.94 176.33 C 202.46 177.28 203.65 177.63 204.61 177.11 C 205.56 176.59 205.91 175.40 205.39 174.45 L 204.89 173.54 C 204.37 172.59 203.18 172.24 202.23 172.76 C 201.28 173.27 200.93 174.47 201.45 175.42 Z M 201.94 176.32 L 202.44 177.24 C 202.95 178.19 204.15 178.54 205.10 178.03 C 206.05 177.51 206.40 176.32 205.89 175.37 L 205.39 174.45 C 204.87 173.50 203.68 173.15 202.73 173.66 C 201.78 174.18 201.42 175.37 201.94 176.32 Z M 202.44 177.23 L 202.93 178.15 C 203.44 179.10 204.63 179.45 205.59 178.94 C 206.54 178.42 206.90 177.23 206.38 176.28 L 205.89 175.37 C 205.37 174.41 204.18 174.06 203.23 174.57 C 202.28 175.09 201.92 176.28 202.44 177.23 Z M 202.93 178.14 L 203.41 179.03 C 203.92 179.99 205.11 180.35 206.07 179.83 C 207.02 179.32 207.38 178.13 206.86 177.17 L 206.38 176.28 C 205.87 175.33 204.68 174.97 203.72 175.49 C 202.77 176.00 202.41 177.19 202.93 178.14 Z M 203.41 179.03 L 203.87 179.89 C 204.38 180.84 205.57 181.20 206.52 180.68 C 207.48 180.17 207.84 178.98 207.32 178.03 L 206.86 177.17 C 206.35 176.22 205.16 175.86 204.20 176.38 C 203.25 176.89 202.89 178.08 203.41 179.03 Z M 203.87 179.89 L 204.32 180.73 C 204.83 181.68 206.02 182.04 206.98 181.53 C 207.93 181.01 208.29 179.82 207.78 178.87 L 207.32 178.03 C 206.81 177.07 205.62 176.71 204.66 177.23 C 203.71 177.74 203.35 178.93 203.87 179.89 Z M 204.32 180.73 L 204.85 181.71 C 205.36 182.66 206.55 183.02 207.51 182.51 C 208.46 181.99 208.82 180.80 208.30 179.85 L 207.77 178.87 C 207.26 177.91 206.07 177.56 205.12 178.07 C 204.16 178.58 203.80 179.78 204.32 180.73 Z M 204.85 181.71 L 205.32 182.59 C 205.84 183.55 207.03 183.90 207.98 183.39 C 208.94 182.88 209.29 181.68 208.78 180.73 L 208.30 179.85 C 207.79 178.89 206.60 178.53 205.64 179.05 C 204.69 179.56 204.33 180.75 204.85 181.71 Z M 205.32 182.59 L 205.76 183.41 C 206.28 184.37 207.47 184.73 208.42 184.22 C 209.38 183.70 209.73 182.51 209.22 181.56 L 208.78 180.73 C 208.27 179.78 207.08 179.42 206.12 179.93 C 205.17 180.44 204.81 181.63 205.32 182.59 Z M 205.76 183.41 L 206.19 184.21 C 206.70 185.17 207.89 185.53 208.84 185.02 C 209.80 184.51 210.16 183.33 209.65 182.37 L 209.23 181.56 C 208.72 180.61 207.53 180.24 206.57 180.75 C 205.61 181.26 205.25 182.45 205.76 183.41 Z M 206.18 184.21 L 206.64 185.06 C 207.14 186.02 208.33 186.39 209.29 185.88 C 210.25 185.38 210.61 184.19 210.11 183.23 L 209.66 182.38 C 209.15 181.42 207.97 181.05 207.01 181.55 C 206.05 182.06 205.68 183.25 206.18 184.21 Z M 206.63 185.05 L 207.09 185.93 C 207.59 186.89 208.77 187.26 209.74 186.76 C 210.70 186.26 211.07 185.07 210.57 184.11 L 210.11 183.24 C 209.61 182.28 208.43 181.90 207.46 182.40 C 206.50 182.91 206.13 184.09 206.63 185.05 Z M 207.08 185.92 L 207.55 186.82 C 208.05 187.79 209.23 188.16 210.19 187.67 C 211.16 187.17 211.54 185.99 211.04 185.02 L 210.57 184.12 C 210.08 183.16 208.89 182.78 207.93 183.27 C 206.96 183.77 206.59 184.96 207.08 185.92 Z M 207.55 186.82 L 208.01 187.73 C 208.50 188.70 209.69 189.08 210.65 188.59 C 211.62 188.09 212.00 186.91 211.51 185.95 L 211.04 185.03 C 210.55 184.06 209.37 183.68 208.40 184.17 C 207.44 184.67 207.05 185.85 207.55 186.82 Z M 208.01 187.72 L 208.45 188.61 C 208.94 189.57 210.12 189.96 211.09 189.47 C 212.06 188.98 212.45 187.80 211.96 186.83 L 211.51 185.95 C 211.02 184.98 209.84 184.60 208.87 185.09 C 207.91 185.58 207.52 186.76 208.01 187.72 Z M 208.45 188.60 L 208.90 189.50 C 209.39 190.47 210.57 190.86 211.54 190.38 C 212.51 189.89 212.90 188.71 212.41 187.74 L 211.96 186.84 C 211.48 185.87 210.30 185.48 209.33 185.96 C 208.36 186.45 207.97 187.63 208.45 188.60 Z M 208.90 189.50 L 209.35 190.40 C 209.83 191.37 211.01 191.77 211.98 191.28 C 212.95 190.80 213.35 189.62 212.87 188.65 L 212.42 187.75 C 211.93 186.78 210.75 186.38 209.78 186.86 C 208.81 187.35 208.42 188.52 208.90 189.50 Z M 209.35 190.40 L 209.79 191.29 C 210.27 192.27 211.45 192.67 212.42 192.19 C 213.39 191.71 213.79 190.53 213.31 189.56 L 212.87 188.66 C 212.39 187.69 211.21 187.29 210.24 187.77 C 209.27 188.25 208.87 189.42 209.35 190.40 Z M 209.79 191.29 L 210.23 192.20 C 210.71 193.17 211.89 193.58 212.86 193.10 C 213.83 192.62 214.24 191.45 213.76 190.47 L 213.32 189.56 C 212.84 188.59 211.66 188.19 210.69 188.66 C 209.72 189.14 209.31 190.31 209.79 191.29 Z M 210.23 192.19 L 210.67 193.09 C 211.14 194.07 212.31 194.47 213.29 194.00 C 214.27 193.53 214.67 192.35 214.20 191.38 L 213.76 190.48 C 213.29 189.50 212.11 189.10 211.14 189.57 C 210.16 190.04 209.76 191.22 210.23 192.19 Z M 210.66 193.09 L 211.10 193.98 C 211.57 194.96 212.74 195.36 213.72 194.89 C 214.69 194.42 215.10 193.25 214.63 192.27 L 214.20 191.38 C 213.73 190.40 212.55 189.99 211.58 190.46 C 210.60 190.94 210.19 192.11 210.66 193.09 Z M 211.10 193.98 L 211.53 194.88 C 212.00 195.85 213.17 196.26 214.15 195.79 C 215.13 195.32 215.54 194.15 215.07 193.17 L 214.63 192.27 C 214.16 191.30 212.99 190.89 212.01 191.36 C 211.03 191.83 210.62 193.00 211.10 193.98 Z M 211.53 194.88 L 211.96 195.76 C 212.43 196.74 213.60 197.15 214.58 196.68 C 215.55 196.21 215.96 195.04 215.49 194.06 L 215.07 193.17 C 214.59 192.19 213.42 191.78 212.44 192.26 C 211.47 192.73 211.06 193.90 211.53 194.88 Z M 211.96 195.76 L 212.39 196.66 C 212.86 197.64 214.03 198.05 215.01 197.58 C 215.98 197.11 216.40 195.94 215.93 194.96 L 215.50 194.06 C 215.03 193.09 213.85 192.67 212.88 193.14 C 211.90 193.61 211.49 194.79 211.96 195.76 Z M 212.39 196.66 L 212.82 197.56 C 213.28 198.54 214.46 198.96 215.43 198.49 C 216.41 198.03 216.83 196.85 216.36 195.87 L 215.93 194.97 C 215.46 193.99 214.29 193.57 213.31 194.04 C 212.33 194.51 211.92 195.68 212.39 196.66 Z M 212.81 197.56 L 213.24 198.47 C 213.71 199.45 214.88 199.87 215.86 199.41 C 216.84 198.95 217.26 197.78 216.80 196.80 L 216.37 195.88 C 215.90 194.90 214.73 194.48 213.75 194.94 C 212.77 195.41 212.35 196.58 212.81 197.56 Z M 213.24 198.46 L 213.66 199.37 C 214.12 200.35 215.28 200.78 216.27 200.32 C 217.25 199.86 217.68 198.70 217.22 197.71 L 216.80 196.81 C 216.34 195.82 215.18 195.39 214.19 195.85 C 213.21 196.31 212.78 197.47 213.24 198.46 Z M 213.65 199.35 L 214.07 200.26 C 214.52 201.25 215.68 201.68 216.67 201.23 C 217.66 200.78 218.09 199.62 217.64 198.63 L 217.23 197.72 C 216.78 196.74 215.61 196.30 214.63 196.75 C 213.64 197.20 213.20 198.37 213.65 199.35 Z M 214.06 200.25 L 214.47 201.16 C 214.92 202.15 216.08 202.59 217.07 202.15 C 218.06 201.70 218.50 200.54 218.05 199.55 L 217.65 198.64 C 217.20 197.65 216.04 197.21 215.05 197.66 C 214.06 198.10 213.62 199.26 214.06 200.25 Z M 214.47 201.16 L 214.88 202.07 C 215.32 203.06 216.48 203.51 217.47 203.07 C 218.46 202.63 218.91 201.47 218.47 200.48 L 218.06 199.56 C 217.62 198.57 216.46 198.12 215.47 198.56 C 214.48 199.00 214.03 200.17 214.47 201.16 Z M 214.87 202.07 L 215.28 202.98 C 215.72 203.97 216.87 204.42 217.87 203.98 C 218.86 203.55 219.31 202.39 218.87 201.40 L 218.47 200.48 C 218.03 199.49 216.87 199.04 215.88 199.48 C 214.89 199.91 214.44 201.07 214.87 202.07 Z M 215.28 202.97 L 215.67 203.89 C 216.11 204.88 217.27 205.34 218.26 204.90 C 219.25 204.47 219.71 203.31 219.27 202.32 L 218.87 201.40 C 218.44 200.41 217.28 199.96 216.29 200.39 C 215.30 200.82 214.84 201.98 215.28 202.97 Z M 215.67 203.88 L 216.07 204.80 C 216.50 205.80 217.65 206.25 218.65 205.82 C 219.64 205.40 220.10 204.24 219.67 203.24 L 219.28 202.33 C 218.85 201.33 217.69 200.87 216.70 201.30 C 215.70 201.73 215.24 202.89 215.67 203.88 Z M 216.06 204.79 L 216.46 205.71 C 216.88 206.71 218.03 207.18 219.03 206.75 C 220.03 206.33 220.49 205.17 220.07 204.18 L 219.68 203.25 C 219.25 202.26 218.10 201.79 217.10 202.22 C 216.10 202.64 215.64 203.79 216.06 204.79 Z M 216.45 205.70 L 216.84 206.62 C 217.26 207.62 218.41 208.09 219.41 207.67 C 220.41 207.26 220.88 206.11 220.46 205.11 L 220.07 204.19 C 219.66 203.19 218.51 202.72 217.51 203.13 C 216.50 203.55 216.03 204.70 216.45 205.70 Z M 216.83 206.61 L 217.21 207.52 C 217.62 208.52 218.76 209.00 219.77 208.59 C 220.77 208.17 221.25 207.03 220.84 206.02 L 220.46 205.12 C 220.05 204.11 218.90 203.64 217.90 204.05 C 216.90 204.46 216.42 205.61 216.83 206.61 Z M 217.20 207.50 L 217.57 208.42 C 217.98 209.42 219.12 209.91 220.12 209.51 C 221.13 209.10 221.62 207.96 221.21 206.95 L 220.84 206.03 C 220.44 205.03 219.29 204.54 218.29 204.95 C 217.28 205.35 216.79 206.50 217.20 207.50 Z M 217.56 208.41 L 217.93 209.34 C 218.33 210.35 219.47 210.84 220.48 210.44 C 221.49 210.04 221.98 208.90 221.58 207.89 L 221.22 206.96 C 220.82 205.95 219.68 205.46 218.67 205.86 C 217.66 206.26 217.17 207.40 217.56 208.41 Z M 217.93 209.33 L 218.30 210.29 C 218.70 211.30 219.83 211.80 220.84 211.40 C 221.85 211.01 222.35 209.87 221.96 208.86 L 221.59 207.91 C 221.20 206.89 220.06 206.39 219.05 206.79 C 218.04 207.18 217.54 208.32 217.93 209.33 Z M 218.30 210.28 L 218.66 211.21 C 219.04 212.23 220.18 212.73 221.19 212.35 C 222.21 211.96 222.71 210.82 222.32 209.81 L 221.97 208.87 C 221.58 207.86 220.44 207.35 219.43 207.74 C 218.42 208.13 217.91 209.26 218.30 210.28 Z M 218.65 211.21 L 219.01 212.15 C 219.39 213.16 220.53 213.68 221.54 213.29 C 222.55 212.91 223.07 211.78 222.68 210.77 L 222.33 209.82 C 221.95 208.81 220.81 208.29 219.80 208.68 C 218.78 209.06 218.27 210.19 218.65 211.21 Z M 219.01 212.14 L 219.36 213.09 C 219.74 214.11 220.87 214.63 221.88 214.25 C 222.90 213.87 223.42 212.74 223.04 211.72 L 222.69 210.77 C 222.31 209.76 221.18 209.24 220.16 209.62 C 219.15 210.00 218.63 211.13 219.01 212.14 Z M 219.36 213.08 L 219.70 214.02 C 220.08 215.04 221.20 215.56 222.22 215.19 C 223.24 214.82 223.76 213.69 223.39 212.67 L 223.04 211.73 C 222.67 210.71 221.54 210.19 220.52 210.56 C 219.51 210.94 218.98 212.07 219.36 213.08 Z M 219.70 214.01 L 220.03 214.95 C 220.40 215.96 221.53 216.49 222.55 216.12 C 223.57 215.76 224.10 214.63 223.73 213.61 L 223.39 212.68 C 223.02 211.66 221.90 211.13 220.88 211.50 C 219.86 211.87 219.33 212.99 219.70 214.01 Z M 220.03 214.93 L 220.38 215.92 C 220.74 216.94 221.87 217.47 222.89 217.11 C 223.91 216.75 224.44 215.62 224.08 214.60 L 223.73 213.62 C 223.37 212.60 222.25 212.07 221.22 212.43 C 220.20 212.79 219.67 213.91 220.03 214.93 Z M 220.38 215.91 L 220.71 216.85 C 221.06 217.88 222.18 218.42 223.21 218.06 C 224.23 217.71 224.77 216.59 224.41 215.56 L 224.08 214.61 C 223.73 213.59 222.61 213.05 221.58 213.41 C 220.56 213.76 220.02 214.88 220.38 215.91 Z M 220.70 216.84 L 221.02 217.77 C 221.37 218.80 222.48 219.34 223.51 219.00 C 224.53 218.65 225.08 217.53 224.73 216.50 L 224.42 215.58 C 224.07 214.55 222.95 214.00 221.93 214.35 C 220.90 214.70 220.35 215.82 220.70 216.84 Z M 221.01 217.76 L 221.32 218.67 C 221.66 219.70 222.77 220.26 223.80 219.92 C 224.83 219.57 225.39 218.46 225.04 217.43 L 224.74 216.52 C 224.40 215.49 223.29 214.93 222.26 215.27 C 221.23 215.62 220.67 216.73 221.01 217.76 Z M 221.31 218.66 L 221.62 219.62 C 221.96 220.65 223.07 221.22 224.10 220.88 C 225.13 220.55 225.69 219.44 225.36 218.41 L 225.05 217.45 C 224.71 216.42 223.61 215.85 222.58 216.18 C 221.54 216.52 220.98 217.63 221.31 218.66 Z M 221.62 219.61 L 221.92 220.57 C 222.25 221.60 223.35 222.17 224.39 221.85 C 225.42 221.52 225.99 220.42 225.67 219.38 L 225.36 218.42 C 225.04 217.39 223.93 216.82 222.90 217.14 C 221.87 217.47 221.29 218.57 221.62 219.61 Z M 221.92 220.56 L 222.22 221.51 C 222.54 222.55 223.64 223.12 224.67 222.80 C 225.71 222.48 226.29 221.38 225.97 220.35 L 225.67 219.39 C 225.35 218.36 224.25 217.78 223.21 218.10 C 222.18 218.42 221.60 219.52 221.92 220.56 Z M 222.21 221.50 L 222.50 222.44 C 222.82 223.48 223.92 224.06 224.95 223.74 C 225.99 223.43 226.57 222.33 226.26 221.29 L 225.97 220.35 C 225.65 219.32 224.55 218.73 223.52 219.05 C 222.48 219.37 221.90 220.46 222.21 221.50 Z M 222.50 222.43 L 222.79 223.41 C 223.11 224.44 224.20 225.03 225.24 224.72 C 226.28 224.41 226.87 223.31 226.55 222.27 L 226.26 221.30 C 225.94 220.26 224.85 219.67 223.81 219.99 C 222.77 220.30 222.19 221.40 222.50 222.43 Z M 222.79 223.40 L 223.08 224.36 C 223.39 225.40 224.48 225.99 225.52 225.68 C 226.56 225.37 227.15 224.28 226.84 223.24 L 226.55 222.28 C 226.24 221.24 225.15 220.65 224.11 220.96 C 223.07 221.27 222.48 222.36 222.79 223.40 Z M 223.08 224.36 L 223.36 225.31 C 223.67 226.35 224.76 226.94 225.80 226.63 C 226.84 226.32 227.43 225.23 227.12 224.19 L 226.84 223.24 C 226.53 222.20 225.44 221.61 224.40 221.92 C 223.36 222.23 222.77 223.32 223.08 224.36 Z M 223.36 225.31 L 223.64 226.26 C 223.95 227.30 225.04 227.89 226.08 227.58 C 227.12 227.28 227.71 226.18 227.41 225.14 L 227.12 224.19 C 226.82 223.15 225.72 222.56 224.68 222.87 C 223.64 223.18 223.05 224.27 223.36 225.31 Z M 223.64 226.26 L 223.93 227.23 C 224.24 228.27 225.33 228.86 226.37 228.55 C 227.41 228.25 228.00 227.15 227.69 226.11 L 227.41 225.14 C 227.10 224.11 226.01 223.51 224.97 223.82 C 223.93 224.13 223.33 225.22 223.64 226.26 Z M 223.93 227.23 L 224.21 228.19 C 224.52 229.23 225.61 229.83 226.65 229.52 C 227.69 229.21 228.28 228.12 227.98 227.08 L 227.69 226.12 C 227.39 225.08 226.30 224.48 225.26 224.79 C 224.22 225.10 223.62 226.19 223.93 227.23 Z M 224.21 228.19 L 224.49 229.14 C 224.79 230.18 225.88 230.78 226.92 230.47 C 227.96 230.17 228.56 229.08 228.26 228.04 L 227.98 227.08 C 227.68 226.04 226.59 225.45 225.54 225.75 C 224.50 226.06 223.91 227.15 224.21 228.19 Z M 224.49 229.13 L 224.76 230.08 C 225.06 231.13 226.15 231.73 227.19 231.43 C 228.23 231.13 228.83 230.04 228.53 229.00 L 228.26 228.04 C 227.96 227.00 226.87 226.40 225.83 226.70 C 224.79 227.00 224.19 228.09 224.49 229.13 Z M 224.76 230.07 L 225.03 231.03 C 225.32 232.07 226.41 232.68 227.45 232.39 C 228.50 232.09 229.10 231.01 228.81 229.96 L 228.54 229.01 C 228.24 227.96 227.16 227.36 226.11 227.65 C 225.07 227.95 224.46 229.03 224.76 230.07 Z M 225.03 231.02 L 225.29 231.98 C 225.58 233.02 226.66 233.64 227.71 233.35 C 228.75 233.06 229.36 231.98 229.08 230.93 L 228.81 229.97 C 228.52 228.93 227.44 228.32 226.40 228.60 C 225.35 228.89 224.74 229.97 225.03 231.02 Z M 225.29 231.96 L 225.55 232.94 C 225.83 233.99 226.91 234.61 227.95 234.33 C 229.00 234.04 229.62 232.97 229.34 231.92 L 229.08 230.95 C 228.80 229.90 227.72 229.28 226.67 229.56 C 225.63 229.84 225.01 230.92 225.29 231.96 Z M 225.55 232.93 L 225.76 233.75 C 226.04 234.80 227.11 235.43 228.16 235.16 C 229.21 234.88 229.83 233.81 229.56 232.76 L 229.34 231.93 C 229.07 230.88 228.00 230.26 226.95 230.53 C 225.90 230.80 225.27 231.88 225.55 232.93 Z M 225.76 233.74 L 225.99 234.62 C 226.26 235.67 227.32 236.31 228.37 236.04 C 229.42 235.77 230.06 234.70 229.79 233.65 L 229.56 232.77 C 229.29 231.72 228.22 231.09 227.17 231.36 C 226.12 231.62 225.49 232.69 225.76 233.74 Z M 225.99 234.62 L 226.23 235.59 C 226.50 236.64 227.57 237.28 228.62 237.01 C 229.67 236.74 230.30 235.67 230.04 234.62 L 229.79 233.65 C 229.52 232.60 228.45 231.97 227.40 232.23 C 226.35 232.50 225.72 233.57 225.99 234.62 Z M 226.23 235.59 L 226.52 236.70 C 226.78 237.75 227.85 238.38 228.90 238.11 C 229.95 237.85 230.58 236.78 230.32 235.73 L 230.04 234.62 C 229.77 233.57 228.70 232.94 227.65 233.21 C 226.60 233.48 225.97 234.54 226.23 235.59 Z M 226.52 236.70 L 226.78 237.73 C 227.05 238.78 228.12 239.41 229.17 239.14 C 230.21 238.87 230.85 237.80 230.58 236.75 L 230.32 235.73 C 230.05 234.68 228.98 234.04 227.93 234.31 C 226.88 234.58 226.25 235.65 226.52 236.70 Z M 226.78 237.73 L 227.03 238.70 C 227.30 239.75 228.37 240.38 229.42 240.11 C 230.47 239.84 231.10 238.77 230.83 237.72 L 230.58 236.75 C 230.31 235.70 229.24 235.07 228.19 235.34 C 227.14 235.61 226.51 236.68 226.78 237.73 Z M 227.03 238.70 L 227.29 239.71 C 227.57 240.76 228.63 241.39 229.68 241.12 C 230.73 240.84 231.36 239.77 231.09 238.73 L 230.83 237.72 C 230.55 236.67 229.48 236.04 228.44 236.31 C 227.39 236.58 226.76 237.65 227.03 238.70 Z M 227.30 239.71 L 227.56 240.73 C 227.83 241.78 228.90 242.40 229.95 242.13 C 231.00 241.86 231.62 240.79 231.35 239.74 L 231.08 238.73 C 230.81 237.68 229.74 237.05 228.70 237.32 C 227.65 237.60 227.02 238.67 227.30 239.71 Z M 227.56 240.73 L 227.82 241.72 C 228.10 242.77 229.17 243.39 230.21 243.12 C 231.26 242.84 231.88 241.77 231.61 240.73 L 231.35 239.74 C 231.07 238.69 230.00 238.07 228.96 238.34 C 227.91 238.62 227.29 239.69 227.56 240.73 Z M 227.83 241.73 L 228.07 242.66 C 228.35 243.70 229.42 244.32 230.47 244.05 C 231.51 243.77 232.13 242.70 231.85 241.66 L 231.61 240.72 C 231.33 239.68 230.26 239.06 229.21 239.34 C 228.17 239.61 227.55 240.68 227.83 241.73 Z M 228.08 242.67 L 228.35 243.68 C 228.63 244.73 229.71 245.34 230.75 245.06 C 231.79 244.78 232.41 243.71 232.12 242.67 L 231.85 241.65 C 231.57 240.61 230.50 239.99 229.45 240.27 C 228.41 240.55 227.80 241.62 228.08 242.67 Z M 228.36 243.70 L 228.65 244.73 C 228.94 245.77 230.02 246.37 231.05 246.08 C 232.09 245.79 232.70 244.71 232.41 243.67 L 232.12 242.65 C 231.83 241.61 230.75 241.00 229.71 241.30 C 228.67 241.59 228.07 242.66 228.36 243.70 Z M 228.66 244.76 L 228.93 245.68 C 229.25 246.71 230.33 247.29 231.37 246.98 C 232.40 246.67 232.98 245.58 232.67 244.55 L 232.39 243.64 C 232.08 242.61 230.99 242.02 229.96 242.33 C 228.93 242.65 228.35 243.73 228.66 244.76 Z M 228.95 245.73 L 229.24 246.60 C 229.58 247.62 230.68 248.17 231.70 247.83 C 232.73 247.50 233.28 246.39 232.94 245.37 L 232.65 244.50 C 232.31 243.48 231.21 242.93 230.19 243.27 C 229.17 243.60 228.61 244.71 228.95 245.73 Z M 229.26 246.65 L 229.62 247.62 C 229.99 248.63 231.10 249.15 232.11 248.78 C 233.12 248.41 233.64 247.29 233.27 246.28 L 232.92 245.32 C 232.55 244.31 231.43 243.79 230.42 244.16 C 229.41 244.53 228.90 245.65 229.26 246.65 Z M 229.65 247.68 L 230.13 248.87 C 230.53 249.86 231.67 250.34 232.66 249.93 C 233.65 249.53 234.13 248.40 233.72 247.40 L 233.24 246.22 C 232.84 245.23 231.70 244.75 230.71 245.15 C 229.72 245.56 229.24 246.69 229.65 247.68 Z M 230.19 248.98 L 230.66 249.95 C 231.13 250.91 232.29 251.31 233.25 250.84 C 234.21 250.37 234.61 249.21 234.14 248.25 L 233.67 247.29 C 233.20 246.32 232.04 245.92 231.08 246.39 C 230.12 246.86 229.72 248.02 230.19 248.98 Z M 230.89 250.31 L 231.26 250.77 C 231.93 251.60 233.15 251.73 233.98 251.06 C 234.81 250.39 234.94 249.18 234.27 248.34 L 233.90 247.88 C 233.23 247.05 232.01 246.92 231.18 247.59 C 230.35 248.26 230.22 249.48 230.89 250.31 Z M 234.40 250.54 L 234.62 250.18 C 235.16 249.28 234.88 248.11 233.98 247.56 C 233.08 247.02 231.91 247.31 231.36 248.21 L 231.14 248.57 C 230.59 249.47 230.88 250.64 231.78 251.19 C 232.68 251.73 233.85 251.44 234.40 250.54 Z M 234.84 249.23 L 234.86 248.15 C 234.88 247.12 234.06 246.28 233.04 246.26 C 232.02 246.24 231.18 247.06 231.16 248.08 L 231.14 249.16 C 231.12 250.18 231.93 251.02 232.96 251.04 C 233.98 251.06 234.82 250.25 234.84 249.23 Z M 234.80 247.96 L 234.69 246.67 C 234.61 245.68 233.74 244.95 232.75 245.03 C 231.77 245.11 231.03 245.98 231.11 246.96 L 231.22 248.26 C 231.30 249.25 232.17 249.98 233.16 249.90 C 234.14 249.82 234.88 248.95 234.80 247.96 Z M 234.62 246.57 L 234.48 245.54 C 234.34 244.59 233.46 243.93 232.51 244.06 C 231.56 244.20 230.90 245.08 231.03 246.03 L 231.18 247.06 C 231.31 248.01 232.19 248.67 233.14 248.54 C 234.09 248.40 234.76 247.52 234.62 246.57 Z M 234.41 245.47 L 234.22 244.49 C 234.05 243.58 233.16 242.98 232.25 243.16 C 231.34 243.33 230.74 244.22 230.92 245.13 L 231.10 246.10 C 231.28 247.01 232.16 247.61 233.07 247.44 C 233.99 247.26 234.58 246.38 234.41 245.47 Z M 234.15 244.43 L 233.93 243.49 C 233.72 242.62 232.84 242.08 231.96 242.29 C 231.09 242.50 230.55 243.38 230.76 244.25 L 230.99 245.19 C 231.19 246.07 232.07 246.60 232.95 246.40 C 233.82 246.19 234.36 245.31 234.15 244.43 Z M 233.88 243.45 L 233.61 242.50 C 233.38 241.65 232.50 241.16 231.65 241.39 C 230.81 241.63 230.31 242.51 230.55 243.35 L 230.81 244.30 C 231.05 245.15 231.93 245.64 232.77 245.41 C 233.62 245.17 234.11 244.29 233.88 243.45 Z M 233.59 242.46 L 233.29 241.51 C 233.04 240.67 232.15 240.21 231.32 240.46 C 230.49 240.72 230.02 241.60 230.28 242.44 L 230.57 243.39 C 230.83 244.22 231.71 244.69 232.54 244.43 C 233.38 244.18 233.84 243.29 233.59 242.46 Z M 233.28 241.48 L 232.97 240.53 C 232.70 239.71 231.81 239.26 230.99 239.53 C 230.16 239.79 229.71 240.68 229.98 241.50 L 230.29 242.46 C 230.56 243.28 231.45 243.73 232.27 243.46 C 233.10 243.19 233.55 242.31 233.28 241.48 Z M 232.96 240.52 L 232.77 239.96 C 232.50 239.14 231.61 238.70 230.79 238.97 C 229.97 239.25 229.53 240.13 229.80 240.95 L 229.99 241.51 C 230.26 242.33 231.15 242.77 231.97 242.50 C 232.79 242.23 233.23 241.34 232.96 240.52 Z"
      fill="black"
      fill-rule="nonzero" /></svg>