<svg xmlns="http://www.w3.org/2000/svg" width="300" height="300" viewBox="0 0 300 300">
<path d="M 95.11 102.72 L 93.81 103.15 C 92.91 103.44 92.42 104.41 92.71 105.31 C 93.00 106.21 93.97 106.70 94.87 106.41 L 96.17 105.99 C 97.07 105.69 97.57 104.72 97.27 103.82 C 96.98 102.92 96.01 102.43 95.11 102.72 Z M 93.78 103.11 L 92.55 103.52 C 91.62 103.83 91.13 104.83 91.44 105.75 C 91.75 106.67 92.74 107.17 93.67 106.86 L 94.90 106.45 C 95.82 106.14 96.32 105.14 96.01 104.22 C 95.70 103.30 94.70 102.80 93.78 103.11 Z M 92.50 103.49 L 91.38 103.89 C 90.45 104.23 89.96 105.26 90.29 106.20 C 90.63 107.14 91.66 107.62 92.60 107.29 L 93.71 106.89 C 94.65 106.56 95.14 105.52 94.80 104.58 C 94.47 103.65 93.44 103.16 92.50 103.49 Z M 91.30 103.88 L 90.37 104.25 C 89.42 104.63 88.96 105.70 89.34 106.65 C 89.72 107.60 90.80 108.06 91.75 107.68 L 92.68 107.31 C 93.63 106.93 94.09 105.85 93.71 104.90 C 93.33 103.96 92.25 103.50 91.30 103.88 Z M 90.22 104.27 L 89.53 104.61 C 88.59 105.07 88.21 106.21 88.67 107.14 C 89.14 108.08 90.27 108.46 91.21 108.00 L 91.90 107.66 C 92.83 107.20 93.22 106.06 92.75 105.12 C 92.29 104.19 91.16 103.81 90.22 104.27 Z M 89.18 104.78 L 88.79 105.08 C 87.95 105.74 87.80 106.95 88.46 107.80 C 89.12 108.64 90.33 108.79 91.18 108.13 L 91.56 107.83 C 92.40 107.17 92.55 105.96 91.89 105.11 C 91.24 104.27 90.02 104.12 89.18 104.78 Z M 88.02 106.63 L 88.02 106.93 C 88.04 108.01 88.93 108.88 90.02 108.87 C 91.11 108.85 91.97 107.95 91.96 106.87 L 91.95 106.58 C 91.94 105.49 91.04 104.62 89.95 104.64 C 88.87 104.65 88.00 105.55 88.02 106.63 Z M 89.13 108.69 L 89.63 108.93 C 90.62 109.40 91.81 108.98 92.28 107.99 C 92.76 106.99 92.33 105.81 91.34 105.33 L 90.84 105.10 C 89.85 104.63 88.66 105.05 88.19 106.04 C 87.72 107.03 88.14 108.22 89.13 108.69 Z M 90.11 109.11 L 91.01 109.28 C 92.10 109.49 93.16 108.77 93.37 107.68 C 93.57 106.59 92.86 105.54 91.77 105.33 L 90.86 105.16 C 89.77 104.95 88.72 105.66 88.51 106.75 C 88.30 107.84 89.02 108.90 90.11 109.11 Z M 91.19 109.33 L 92.42 109.45 C 93.53 109.55 94.52 108.74 94.63 107.62 C 94.74 106.51 93.93 105.51 92.81 105.40 L 91.59 105.29 C 90.47 105.18 89.48 105.99 89.37 107.11 C 89.26 108.22 90.08 109.22 91.19 109.33 Z M 92.51 109.47 L 93.96 109.55 C 95.09 109.60 96.05 108.73 96.11 107.60 C 96.17 106.47 95.30 105.51 94.17 105.45 L 92.72 105.38 C 91.59 105.32 90.62 106.19 90.57 107.32 C 90.51 108.45 91.38 109.41 92.51 109.47 Z M 94.01 109.56 L 95.16 109.59 C 96.29 109.62 97.24 108.72 97.27 107.58 C 97.30 106.45 96.40 105.50 95.27 105.47 L 94.12 105.44 C 92.98 105.41 92.03 106.31 92.00 107.44 C 91.97 108.58 92.87 109.53 94.01 109.56 Z M 95.19 109.60 L 96.18 109.61 C 97.33 109.62 98.26 108.71 98.27 107.56 C 98.29 106.42 97.37 105.49 96.23 105.48 L 95.23 105.46 C 94.09 105.45 93.16 106.37 93.15 107.51 C 93.13 108.65 94.05 109.58 95.19 109.60 Z M 96.21 109.61 L 97.23 109.61 C 98.37 109.60 99.29 108.68 99.29 107.54 C 99.29 106.39 98.36 105.47 97.22 105.47 L 96.20 105.47 C 95.06 105.48 94.14 106.40 94.14 107.54 C 94.14 108.69 95.07 109.61 96.21 109.61 Z M 97.26 109.61 L 98.28 109.59 C 99.43 109.58 100.34 108.64 100.32 107.50 C 100.31 106.35 99.37 105.44 98.23 105.46 L 97.20 105.47 C 96.06 105.49 95.14 106.43 95.16 107.57 C 95.18 108.71 96.11 109.62 97.26 109.61 Z M 98.31 109.59 L 99.34 109.57 C 100.48 109.53 101.38 108.58 101.35 107.44 C 101.32 106.30 100.37 105.40 99.23 105.43 L 98.20 105.46 C 97.06 105.49 96.16 106.44 96.19 107.58 C 96.22 108.72 97.17 109.62 98.31 109.59 Z M 99.36 109.57 L 100.38 109.52 C 101.52 109.48 102.41 108.52 102.37 107.38 C 102.32 106.23 101.36 105.35 100.22 105.39 L 99.20 105.43 C 98.06 105.48 97.17 106.44 97.22 107.58 C 97.26 108.72 98.22 109.61 99.36 109.57 Z M 100.41 109.52 L 101.41 109.47 C 102.55 109.41 103.43 108.44 103.36 107.29 C 103.30 106.15 102.33 105.28 101.19 105.34 L 100.19 105.39 C 99.05 105.45 98.17 106.43 98.23 107.57 C 98.29 108.71 99.27 109.59 100.41 109.52 Z M 101.44 109.47 L 102.40 109.40 C 103.54 109.33 104.41 108.34 104.33 107.20 C 104.25 106.06 103.26 105.19 102.12 105.27 L 101.16 105.34 C 100.02 105.42 99.15 106.40 99.23 107.55 C 99.31 108.69 100.30 109.55 101.44 109.47 Z M 102.44 109.40 L 103.45 109.31 C 104.59 109.22 105.43 108.21 105.33 107.07 C 105.24 105.93 104.23 105.09 103.09 105.19 L 102.08 105.28 C 100.94 105.37 100.10 106.38 100.20 107.52 C 100.30 108.66 101.30 109.50 102.44 109.40 Z M 103.49 109.31 L 104.56 109.20 C 105.70 109.07 106.52 108.05 106.40 106.91 C 106.28 105.78 105.26 104.95 104.12 105.08 L 103.05 105.19 C 101.91 105.31 101.09 106.34 101.21 107.47 C 101.33 108.61 102.36 109.43 103.49 109.31 Z M 104.61 109.19 L 105.62 109.06 C 106.76 108.91 107.56 107.87 107.41 106.74 C 107.26 105.60 106.23 104.80 105.09 104.95 L 104.08 105.08 C 102.94 105.23 102.14 106.27 102.29 107.40 C 102.43 108.54 103.47 109.34 104.61 109.19 Z M 105.66 109.05 L 106.64 108.91 C 107.77 108.74 108.55 107.68 108.38 106.55 C 108.21 105.42 107.16 104.64 106.03 104.81 L 105.05 104.96 C 103.92 105.13 103.14 106.18 103.31 107.31 C 103.48 108.44 104.53 109.22 105.66 109.05 Z M 106.67 108.90 L 107.62 108.74 C 108.75 108.56 109.51 107.49 109.33 106.36 C 109.14 105.23 108.07 104.47 106.95 104.66 L 105.99 104.82 C 104.87 105.00 104.11 106.07 104.29 107.20 C 104.48 108.33 105.55 109.09 106.67 108.90 Z M 107.65 108.74 L 108.59 108.57 C 109.71 108.37 110.46 107.29 110.26 106.17 C 110.06 105.04 108.98 104.30 107.86 104.50 L 106.92 104.66 C 105.80 104.87 105.05 105.94 105.25 107.07 C 105.45 108.19 106.52 108.94 107.65 108.74 Z M 108.60 108.57 L 109.54 108.39 C 110.66 108.18 111.40 107.10 111.20 105.98 C 110.99 104.86 109.91 104.11 108.78 104.32 L 107.84 104.50 C 106.72 104.71 105.98 105.79 106.19 106.91 C 106.40 108.04 107.48 108.78 108.60 108.57 Z M 109.55 108.39 L 110.49 108.21 C 111.61 108.00 112.35 106.92 112.14 105.79 C 111.92 104.67 110.84 103.94 109.72 104.15 L 108.78 104.33 C 107.65 104.54 106.92 105.62 107.13 106.74 C 107.34 107.87 108.43 108.60 109.55 108.39 Z M 110.49 108.21 L 111.45 108.03 C 112.57 107.81 113.30 106.73 113.09 105.61 C 112.87 104.49 111.79 103.75 110.67 103.97 L 109.72 104.15 C 108.60 104.36 107.86 105.45 108.08 106.57 C 108.29 107.69 109.37 108.42 110.49 108.21 Z M 111.45 108.02 L 112.42 107.84 C 113.54 107.62 114.27 106.54 114.06 105.42 C 113.84 104.30 112.76 103.57 111.64 103.79 L 110.67 103.97 C 109.55 104.19 108.82 105.27 109.03 106.38 C 109.25 107.50 110.33 108.24 111.45 108.02 Z M 112.42 107.83 L 113.40 107.65 C 114.52 107.43 115.25 106.35 115.04 105.23 C 114.82 104.12 113.74 103.38 112.62 103.60 L 111.64 103.79 C 110.52 104.00 109.79 105.08 110.01 106.20 C 110.22 107.32 111.30 108.05 112.42 107.83 Z M 113.40 107.64 L 114.39 107.45 C 115.51 107.24 116.24 106.16 116.03 105.04 C 115.81 103.93 114.74 103.20 113.62 103.41 L 112.62 103.60 C 111.51 103.82 110.78 104.89 110.99 106.01 C 111.21 107.13 112.28 107.86 113.40 107.64 Z M 114.39 107.45 L 115.40 107.26 C 116.51 107.04 117.24 105.97 117.03 104.85 C 116.82 103.74 115.74 103.01 114.62 103.22 L 113.62 103.41 C 112.51 103.63 111.77 104.70 111.99 105.82 C 112.20 106.93 113.28 107.66 114.39 107.45 Z M 115.40 107.26 L 116.41 107.06 C 117.52 106.85 118.25 105.78 118.04 104.66 C 117.83 103.55 116.75 102.82 115.64 103.03 L 114.63 103.22 C 113.51 103.44 112.78 104.51 112.99 105.62 C 113.21 106.74 114.28 107.47 115.40 107.26 Z M 116.41 107.06 L 117.39 106.87 C 118.50 106.66 119.23 105.59 119.02 104.48 C 118.81 103.36 117.73 102.63 116.62 102.84 L 115.64 103.03 C 114.53 103.24 113.80 104.32 114.01 105.43 C 114.22 106.54 115.29 107.27 116.41 107.06 Z M 117.39 106.87 L 118.37 106.68 C 119.48 106.47 120.21 105.40 120.00 104.29 C 119.78 103.18 118.71 102.45 117.60 102.66 L 116.62 102.85 C 115.51 103.06 114.78 104.13 114.99 105.24 C 115.20 106.35 116.28 107.08 117.39 106.87 Z M 118.37 106.68 L 119.35 106.49 C 120.46 106.28 121.19 105.21 120.97 104.10 C 120.76 102.99 119.69 102.26 118.58 102.48 L 117.60 102.66 C 116.49 102.88 115.76 103.95 115.98 105.06 C 116.19 106.17 117.26 106.89 118.37 106.68 Z M 119.36 106.49 L 120.34 106.29 C 121.45 106.08 122.17 105.00 121.95 103.90 C 121.74 102.79 120.66 102.07 119.56 102.29 L 118.57 102.48 C 117.47 102.70 116.75 103.77 116.96 104.88 C 117.18 105.98 118.25 106.70 119.36 106.49 Z M 120.35 106.29 L 121.33 106.09 C 122.44 105.87 123.15 104.80 122.93 103.69 C 122.71 102.59 121.64 101.87 120.53 102.09 L 119.55 102.29 C 118.44 102.51 117.73 103.59 117.95 104.69 C 118.17 105.80 119.25 106.51 120.35 106.29 Z M 121.35 106.09 L 122.33 105.88 C 123.43 105.66 124.14 104.58 123.91 103.48 C 123.68 102.38 122.60 101.67 121.50 101.90 L 120.52 102.10 C 119.42 102.33 118.71 103.41 118.94 104.51 C 119.17 105.61 120.24 106.32 121.35 106.09 Z M 122.34 105.88 L 123.32 105.67 C 124.42 105.43 125.12 104.35 124.88 103.25 C 124.64 102.15 123.56 101.46 122.46 101.69 L 121.49 101.90 C 120.39 102.14 119.69 103.22 119.93 104.32 C 120.16 105.42 121.24 106.11 122.34 105.88 Z M 123.34 105.66 L 124.30 105.44 C 125.39 105.20 126.08 104.11 125.84 103.02 C 125.59 101.93 124.51 101.24 123.41 101.48 L 122.45 101.70 C 121.35 101.94 120.67 103.03 120.91 104.12 C 121.16 105.22 122.24 105.91 123.34 105.66 Z M 124.32 105.44 L 125.27 105.21 C 126.36 104.96 127.04 103.87 126.79 102.78 C 126.53 101.69 125.45 101.01 124.36 101.27 L 123.40 101.49 C 122.31 101.74 121.63 102.83 121.88 103.92 C 122.14 105.01 123.23 105.69 124.32 105.44 Z M 125.29 105.21 L 126.25 104.98 C 127.33 104.72 128.00 103.63 127.74 102.54 C 127.48 101.45 126.39 100.79 125.31 101.05 L 124.35 101.27 C 123.26 101.53 122.59 102.62 122.85 103.71 C 123.11 104.80 124.20 105.46 125.29 105.21 Z M 126.25 104.97 L 127.22 104.73 C 128.30 104.47 128.96 103.38 128.70 102.30 C 128.43 101.22 127.34 100.55 126.26 100.82 L 125.30 101.05 C 124.22 101.32 123.55 102.41 123.82 103.49 C 124.08 104.57 125.17 105.23 126.25 104.97 Z M 127.22 104.73 L 128.19 104.49 C 129.27 104.22 129.93 103.13 129.66 102.06 C 129.40 100.98 128.31 100.32 127.23 100.58 L 126.26 100.82 C 125.18 101.09 124.52 102.18 124.79 103.26 C 125.05 104.33 126.14 104.99 127.22 104.73 Z M 128.19 104.48 L 129.17 104.24 C 130.25 103.98 130.90 102.89 130.64 101.81 C 130.37 100.74 129.28 100.08 128.21 100.35 L 127.23 100.59 C 126.15 100.85 125.50 101.94 125.76 103.02 C 126.03 104.09 127.11 104.75 128.19 104.48 Z M 129.17 104.24 L 130.16 103.99 C 131.23 103.73 131.89 102.65 131.63 101.57 C 131.36 100.50 130.28 99.84 129.20 100.11 L 128.21 100.35 C 127.14 100.61 126.48 101.70 126.75 102.77 C 127.01 103.85 128.09 104.50 129.17 104.24 Z M 130.15 103.99 L 131.14 103.75 C 132.21 103.49 132.87 102.41 132.61 101.34 C 132.35 100.27 131.27 99.61 130.20 99.87 L 129.21 100.11 C 128.14 100.37 127.48 101.45 127.74 102.52 C 128.00 103.59 129.08 104.25 130.15 103.99 Z M 131.13 103.75 L 132.10 103.52 C 133.17 103.26 133.83 102.18 133.58 101.11 C 133.32 100.04 132.25 99.38 131.18 99.64 L 130.20 99.87 C 129.13 100.13 128.47 101.21 128.73 102.28 C 128.99 103.35 130.06 104.01 131.13 103.75 Z M 132.10 103.51 L 133.08 103.28 C 134.15 103.02 134.81 101.95 134.56 100.88 C 134.30 99.82 133.23 99.16 132.16 99.41 L 131.18 99.65 C 130.11 99.90 129.45 100.97 129.71 102.04 C 129.96 103.11 131.03 103.77 132.10 103.51 Z M 133.08 103.27 L 134.07 103.04 C 135.13 102.78 135.79 101.71 135.54 100.65 C 135.28 99.58 134.21 98.93 133.15 99.18 L 132.16 99.42 C 131.10 99.67 130.44 100.74 130.69 101.81 C 130.95 102.87 132.02 103.53 133.08 103.27 Z M 134.07 103.03 L 135.05 102.79 C 136.12 102.54 136.77 101.47 136.51 100.41 C 136.26 99.35 135.19 98.69 134.13 98.95 L 133.14 99.19 C 132.08 99.44 131.43 100.51 131.69 101.57 C 131.94 102.64 133.01 103.29 134.07 103.03 Z M 135.06 102.79 L 136.03 102.55 C 137.09 102.29 137.74 101.22 137.48 100.16 C 137.22 99.10 136.15 98.46 135.09 98.72 L 134.12 98.96 C 133.06 99.22 132.41 100.28 132.67 101.34 C 132.93 102.40 134.00 103.05 135.06 102.79 Z M 136.04 102.54 L 137.01 102.30 C 138.06 102.03 138.70 100.96 138.43 99.91 C 138.17 98.86 137.10 98.22 136.05 98.48 L 135.08 98.72 C 134.03 98.99 133.39 100.06 133.66 101.11 C 133.92 102.17 134.99 102.81 136.04 102.54 Z M 137.02 102.29 L 137.96 102.04 C 139.01 101.77 139.64 100.70 139.37 99.65 C 139.10 98.60 138.03 97.97 136.98 98.25 L 136.03 98.49 C 134.98 98.76 134.35 99.84 134.63 100.88 C 134.90 101.93 135.97 102.56 137.02 102.29 Z M 137.98 102.03 L 138.99 101.76 C 140.04 101.48 140.65 100.40 140.37 99.36 C 140.09 98.32 139.01 97.70 137.97 97.98 L 136.96 98.26 C 135.92 98.54 135.30 99.61 135.58 100.66 C 135.86 101.70 136.94 102.32 137.98 102.03 Z M 139.01 101.75 L 140.00 101.47 C 141.04 101.18 141.64 100.10 141.35 99.06 C 141.06 98.03 139.98 97.42 138.94 97.71 L 137.95 97.99 C 136.91 98.28 136.31 99.36 136.60 100.40 C 136.89 101.44 137.97 102.04 139.01 101.75 Z M 140.02 101.46 L 140.99 101.18 C 142.02 100.88 142.61 99.80 142.31 98.77 C 142.01 97.73 140.93 97.14 139.90 97.44 L 138.93 97.72 C 137.90 98.02 137.30 99.10 137.60 100.14 C 137.91 101.17 138.98 101.76 140.02 101.46 Z M 141.00 101.17 L 141.95 100.88 C 142.98 100.58 143.56 99.49 143.25 98.47 C 142.95 97.44 141.86 96.86 140.84 97.17 L 139.89 97.45 C 138.86 97.76 138.28 98.84 138.58 99.87 C 138.89 100.89 139.97 101.48 141.00 101.17 Z M 141.96 100.87 L 142.90 100.59 C 143.92 100.27 144.49 99.19 144.18 98.17 C 143.87 97.15 142.79 96.58 141.77 96.89 L 140.83 97.18 C 139.81 97.49 139.23 98.57 139.55 99.59 C 139.86 100.61 140.94 101.19 141.96 100.87 Z M 142.91 100.58 L 143.83 100.29 C 144.85 99.97 145.42 98.89 145.10 97.88 C 144.78 96.86 143.70 96.29 142.69 96.61 L 141.76 96.90 C 140.74 97.21 140.18 98.29 140.49 99.31 C 140.81 100.33 141.89 100.89 142.91 100.58 Z M 143.84 100.28 L 144.76 99.99 C 145.77 99.67 146.33 98.59 146.01 97.58 C 145.70 96.57 144.62 96.01 143.60 96.33 L 142.68 96.62 C 141.67 96.93 141.11 98.01 141.43 99.03 C 141.74 100.04 142.82 100.60 143.84 100.28 Z M 144.76 99.98 L 145.72 99.68 C 146.73 99.36 147.29 98.28 146.97 97.28 C 146.65 96.27 145.57 95.71 144.56 96.03 L 143.60 96.33 C 142.59 96.65 142.03 97.73 142.35 98.74 C 142.67 99.75 143.75 100.30 144.76 99.98 Z M 145.72 99.67 L 146.68 99.37 C 147.68 99.05 148.24 97.98 147.92 96.97 C 147.60 95.97 146.52 95.41 145.52 95.73 L 144.56 96.04 C 143.56 96.35 143.00 97.43 143.32 98.43 C 143.64 99.44 144.72 99.99 145.72 99.67 Z M 146.68 99.36 L 147.63 99.06 C 148.63 98.74 149.18 97.67 148.86 96.67 C 148.54 95.67 147.47 95.11 146.47 95.43 L 145.52 95.74 C 144.52 96.06 143.97 97.13 144.29 98.13 C 144.61 99.13 145.68 99.68 146.68 99.36 Z M 147.63 99.05 L 148.58 98.75 C 149.58 98.43 150.13 97.36 149.81 96.36 C 149.49 95.37 148.42 94.82 147.42 95.14 L 146.47 95.44 C 145.48 95.76 144.93 96.83 145.25 97.82 C 145.57 98.82 146.63 99.37 147.63 99.05 Z M 148.58 98.74 L 149.53 98.43 C 150.52 98.12 151.07 97.05 150.75 96.06 C 150.43 95.07 149.37 94.52 148.37 94.84 L 147.42 95.14 C 146.43 95.46 145.88 96.52 146.20 97.52 C 146.52 98.51 147.59 99.06 148.58 98.74 Z M 149.53 98.43 L 150.47 98.12 C 151.46 97.81 152.01 96.75 151.69 95.76 C 151.37 94.77 150.31 94.22 149.32 94.54 L 148.37 94.85 C 147.39 95.16 146.84 96.22 147.16 97.21 C 147.48 98.20 148.54 98.75 149.53 98.43 Z M 150.47 98.12 L 151.43 97.81 C 152.41 97.49 152.95 96.44 152.64 95.45 C 152.32 94.47 151.27 93.92 150.28 94.24 L 149.32 94.55 C 148.34 94.86 147.80 95.92 148.11 96.91 C 148.43 97.89 149.49 98.43 150.47 98.12 Z M 151.42 97.80 L 152.39 97.49 C 153.37 97.18 153.91 96.13 153.59 95.14 C 153.28 94.16 152.22 93.62 151.24 93.94 L 150.28 94.25 C 149.30 94.56 148.76 95.62 149.08 96.60 C 149.39 97.58 150.44 98.12 151.42 97.80 Z M 152.39 97.48 L 153.34 97.18 C 154.32 96.86 154.86 95.81 154.54 94.84 C 154.23 93.86 153.18 93.32 152.20 93.64 L 151.24 93.95 C 150.27 94.26 149.73 95.31 150.05 96.29 C 150.36 97.26 151.41 97.80 152.39 97.48 Z M 153.34 97.17 L 154.30 96.86 C 155.27 96.54 155.80 95.50 155.49 94.53 C 155.17 93.55 154.13 93.02 153.16 93.34 L 152.20 93.65 C 151.23 93.96 150.70 95.00 151.01 95.98 C 151.33 96.95 152.37 97.48 153.34 97.17 Z M 154.30 96.85 L 155.25 96.54 C 156.21 96.22 156.74 95.18 156.43 94.22 C 156.11 93.25 155.07 92.72 154.11 93.04 L 153.16 93.35 C 152.19 93.66 151.66 94.70 151.98 95.67 C 152.29 96.64 153.33 97.16 154.30 96.85 Z M 155.25 96.53 L 156.19 96.22 C 157.15 95.90 157.68 94.87 157.36 93.91 C 157.04 92.94 156.01 92.42 155.04 92.74 L 154.10 93.05 C 153.14 93.36 152.62 94.40 152.93 95.36 C 153.25 96.32 154.29 96.85 155.25 96.53 Z M 156.19 96.21 L 157.13 95.90 C 158.09 95.58 158.61 94.55 158.29 93.59 C 157.97 92.63 156.94 92.12 155.98 92.43 L 155.04 92.75 C 154.09 93.06 153.57 94.10 153.88 95.05 C 154.20 96.01 155.24 96.53 156.19 96.21 Z M 157.13 95.89 L 158.10 95.56 C 159.06 95.25 159.57 94.21 159.25 93.26 C 158.93 92.31 157.90 91.80 156.95 92.12 L 155.98 92.44 C 155.03 92.76 154.51 93.79 154.83 94.75 C 155.15 95.70 156.18 96.21 157.13 95.89 Z M 158.11 95.56 L 159.07 95.23 C 160.01 94.91 160.52 93.88 160.20 92.94 C 159.88 91.99 158.85 91.48 157.91 91.80 L 156.95 92.13 C 156.00 92.45 155.49 93.47 155.81 94.42 C 156.13 95.37 157.16 95.88 158.11 95.56 Z M 159.07 95.22 L 160.01 94.90 C 160.96 94.58 161.46 93.56 161.14 92.62 C 160.82 91.67 159.80 91.17 158.86 91.49 L 157.91 91.81 C 156.96 92.13 156.46 93.15 156.78 94.10 C 157.10 95.04 158.12 95.54 159.07 95.22 Z M 160.01 94.89 L 160.95 94.57 C 161.89 94.26 162.39 93.24 162.08 92.30 C 161.76 91.36 160.74 90.86 159.80 91.18 L 158.86 91.50 C 157.92 91.81 157.42 92.83 157.74 93.77 C 158.06 94.71 159.07 95.21 160.01 94.89 Z M 160.95 94.57 L 161.88 94.25 C 162.82 93.94 163.32 92.92 163.00 91.99 C 162.69 91.05 161.67 90.55 160.74 90.87 L 159.80 91.18 C 158.87 91.50 158.37 92.51 158.68 93.45 C 159.00 94.38 160.01 94.88 160.95 94.57 Z M 161.87 94.25 L 162.80 93.94 C 163.73 93.62 164.23 92.62 163.92 91.69 C 163.61 90.75 162.60 90.25 161.67 90.56 L 160.74 90.87 C 159.81 91.19 159.31 92.19 159.62 93.12 C 159.94 94.06 160.94 94.56 161.87 94.25 Z M 162.79 93.93 L 163.64 93.65 C 164.57 93.34 165.07 92.34 164.77 91.41 C 164.46 90.48 163.46 89.98 162.53 90.29 L 161.68 90.57 C 160.75 90.88 160.24 91.88 160.55 92.81 C 160.86 93.74 161.86 94.24 162.79 93.93 Z M 163.63 93.65 L 164.49 93.37 C 165.42 93.07 165.93 92.07 165.63 91.15 C 165.33 90.22 164.33 89.71 163.40 90.01 L 162.54 90.29 C 161.61 90.59 161.10 91.58 161.40 92.51 C 161.70 93.44 162.70 93.95 163.63 93.65 Z M 164.48 93.37 L 165.37 93.09 C 166.30 92.80 166.81 91.81 166.52 90.88 C 166.23 89.95 165.24 89.44 164.31 89.73 L 163.42 90.01 C 162.49 90.30 161.98 91.29 162.27 92.22 C 162.56 93.14 163.55 93.66 164.48 93.37 Z M 165.35 93.09 L 166.29 92.80 C 167.22 92.52 167.74 91.54 167.46 90.61 C 167.18 89.69 166.20 89.16 165.27 89.44 L 164.33 89.73 C 163.41 90.01 162.88 90.99 163.16 91.92 C 163.45 92.84 164.42 93.37 165.35 93.09 Z M 166.27 92.80 L 167.27 92.51 C 168.20 92.24 168.73 91.27 168.46 90.34 C 168.19 89.41 167.22 88.88 166.30 89.15 L 165.29 89.45 C 164.37 89.72 163.83 90.69 164.10 91.61 C 164.37 92.54 165.34 93.07 166.27 92.80 Z M 167.25 92.51 L 168.34 92.20 C 169.26 91.95 169.81 90.98 169.55 90.06 C 169.29 89.13 168.33 88.59 167.40 88.85 L 166.32 89.15 C 165.39 89.41 164.85 90.37 165.11 91.30 C 165.37 92.23 166.33 92.77 167.25 92.51 Z M 168.32 92.20 L 169.35 91.93 C 170.28 91.68 170.83 90.72 170.58 89.80 C 170.33 88.87 169.38 88.32 168.45 88.57 L 167.42 88.85 C 166.49 89.10 165.94 90.05 166.19 90.98 C 166.44 91.90 167.39 92.45 168.32 92.20 Z M 169.34 91.92 L 170.26 91.69 C 171.19 91.44 171.74 90.50 171.50 89.57 C 171.26 88.65 170.31 88.09 169.39 88.33 L 168.47 88.57 C 167.54 88.81 166.99 89.76 167.23 90.69 C 167.47 91.61 168.41 92.17 169.34 91.92 Z M 170.25 91.68 L 171.21 91.44 C 172.13 91.21 172.69 90.27 172.46 89.34 C 172.22 88.42 171.28 87.86 170.36 88.09 L 169.40 88.33 C 168.47 88.57 167.91 89.51 168.15 90.43 C 168.38 91.36 169.32 91.92 170.25 91.68 Z M 171.20 91.44 L 172.19 91.20 C 173.11 90.97 173.67 90.03 173.45 89.11 C 173.22 88.19 172.28 87.62 171.36 87.85 L 170.37 88.09 C 169.45 88.32 168.88 89.25 169.11 90.18 C 169.34 91.10 170.27 91.67 171.20 91.44 Z M 172.17 91.19 L 173.18 90.95 C 174.10 90.73 174.67 89.80 174.45 88.88 C 174.23 87.96 173.30 87.39 172.38 87.61 L 171.37 87.85 C 170.45 88.07 169.88 89.00 170.10 89.92 C 170.32 90.85 171.25 91.42 172.17 91.19 Z M 173.17 90.95 L 174.18 90.72 C 175.11 90.50 175.68 89.58 175.46 88.65 C 175.25 87.73 174.33 87.16 173.40 87.37 L 172.39 87.61 C 171.47 87.83 170.89 88.75 171.11 89.67 C 171.32 90.59 172.25 91.17 173.17 90.95 Z M 174.17 90.71 L 175.18 90.49 C 176.10 90.28 176.68 89.36 176.47 88.44 C 176.26 87.52 175.34 86.94 174.42 87.15 L 173.41 87.37 C 172.49 87.58 171.91 88.50 172.12 89.42 C 172.33 90.34 173.25 90.92 174.17 90.71 Z M 175.17 90.49 L 176.16 90.27 C 177.08 90.07 177.66 89.16 177.46 88.24 C 177.26 87.31 176.35 86.73 175.43 86.93 L 174.44 87.15 C 173.51 87.35 172.93 88.26 173.13 89.18 C 173.33 90.10 174.24 90.69 175.17 90.49 Z M 176.14 90.27 L 177.10 90.07 C 178.02 89.87 178.61 88.97 178.42 88.05 C 178.23 87.13 177.32 86.54 176.40 86.73 L 175.44 86.93 C 174.52 87.13 173.93 88.03 174.12 88.95 C 174.32 89.87 175.22 90.46 176.14 90.27 Z M 177.08 90.06 L 178.13 89.86 C 179.05 89.67 179.65 88.78 179.46 87.86 C 179.28 86.94 178.39 86.34 177.46 86.52 L 176.42 86.73 C 175.50 86.92 174.90 87.81 175.09 88.73 C 175.27 89.65 176.16 90.25 177.08 90.06 Z M 178.11 89.85 L 179.23 89.64 C 180.15 89.47 180.76 88.59 180.59 87.67 C 180.42 86.75 179.53 86.15 178.61 86.32 L 177.49 86.53 C 176.57 86.70 175.96 87.58 176.13 88.50 C 176.30 89.42 177.19 90.02 178.11 89.85 Z M 179.20 89.64 L 180.26 89.46 C 181.18 89.31 181.80 88.44 181.64 87.52 C 181.49 86.60 180.62 85.99 179.70 86.14 L 178.64 86.32 C 177.73 86.47 177.11 87.34 177.26 88.26 C 177.42 89.18 178.29 89.80 179.20 89.64 Z M 180.23 89.46 L 181.23 89.31 C 182.15 89.17 182.78 88.32 182.64 87.40 C 182.50 86.49 181.65 85.86 180.73 85.99 L 179.73 86.14 C 178.82 86.28 178.19 87.13 178.32 88.05 C 178.46 88.97 179.31 89.60 180.23 89.46 Z M 181.19 89.31 L 182.14 89.18 C 183.06 89.07 183.70 88.23 183.59 87.32 C 183.47 86.40 182.63 85.76 181.72 85.87 L 180.77 86.00 C 179.86 86.11 179.21 86.95 179.33 87.86 C 179.44 88.78 180.28 89.42 181.19 89.31 Z M 182.11 89.18 L 183.01 89.09 C 183.92 88.99 184.59 88.17 184.49 87.26 C 184.39 86.35 183.58 85.69 182.66 85.78 L 181.76 85.88 C 180.85 85.97 180.18 86.79 180.28 87.70 C 180.38 88.62 181.19 89.28 182.11 89.18 Z M 182.97 89.08 L 183.84 89.01 C 184.75 88.94 185.43 88.14 185.36 87.23 C 185.28 86.32 184.49 85.64 183.58 85.72 L 182.70 85.79 C 181.80 85.86 181.12 86.66 181.19 87.57 C 181.26 88.48 182.06 89.16 182.97 89.08 Z M 183.79 89.01 L 185.02 88.94 C 185.93 88.90 186.63 88.13 186.58 87.22 C 186.54 86.31 185.76 85.62 184.86 85.66 L 183.63 85.72 C 182.72 85.77 182.02 86.54 182.07 87.45 C 182.11 88.35 182.88 89.05 183.79 89.01 Z M 184.96 88.94 L 186.28 88.92 C 187.19 88.91 187.91 88.17 187.90 87.27 C 187.89 86.37 187.15 85.64 186.25 85.65 L 184.92 85.67 C 184.02 85.68 183.29 86.42 183.30 87.32 C 183.31 88.22 184.05 88.95 184.96 88.94 Z M 186.19 88.91 L 187.02 88.95 C 187.92 88.99 188.68 88.30 188.72 87.40 C 188.76 86.50 188.07 85.74 187.17 85.70 L 186.34 85.66 C 185.44 85.62 184.68 86.32 184.64 87.21 C 184.60 88.11 185.29 88.87 186.19 88.91 Z M 185.84 88.34 L 185.89 88.41 C 186.46 89.11 187.47 89.22 188.17 88.66 C 188.86 88.10 188.97 87.08 188.41 86.38 L 188.35 86.31 C 187.79 85.61 186.77 85.51 186.08 86.07 C 185.38 86.63 185.27 87.65 185.84 88.34 Z M 186.95 85.80 L 186.52 85.86 C 185.64 85.97 185.01 86.77 185.12 87.65 C 185.23 88.53 186.04 89.16 186.92 89.05 L 187.35 89.00 C 188.23 88.89 188.86 88.08 188.75 87.20 C 188.64 86.32 187.84 85.69 186.95 85.80 Z M 186.59 85.86 L 185.94 85.91 C 185.06 85.97 184.40 86.75 184.47 87.63 C 184.54 88.51 185.31 89.17 186.19 89.10 L 186.84 89.05 C 187.73 88.98 188.39 88.21 188.32 87.33 C 188.25 86.45 187.48 85.79 186.59 85.86 Z M 185.97 85.91 L 185.10 85.96 C 184.22 86.02 183.55 86.78 183.61 87.66 C 183.66 88.54 184.42 89.21 185.30 89.15 L 186.17 89.10 C 187.05 89.04 187.71 88.28 187.66 87.40 C 187.60 86.52 186.85 85.86 185.97 85.91 Z M 185.11 85.97 L 184.07 86.03 C 183.19 86.08 182.52 86.82 182.57 87.70 C 182.62 88.58 183.37 89.25 184.24 89.20 L 185.29 89.15 C 186.16 89.10 186.83 88.35 186.79 87.47 C 186.74 86.60 185.99 85.92 185.11 85.97 Z M 184.08 86.03 L 182.90 86.09 C 182.03 86.14 181.36 86.88 181.40 87.75 C 181.44 88.63 182.19 89.30 183.06 89.25 L 184.24 89.20 C 185.11 89.15 185.78 88.41 185.74 87.54 C 185.70 86.66 184.95 85.99 184.08 86.03 Z M 182.91 86.10 L 181.63 86.16 C 180.76 86.20 180.09 86.94 180.13 87.81 C 180.17 88.68 180.91 89.35 181.78 89.31 L 183.06 89.25 C 183.92 89.21 184.60 88.47 184.56 87.60 C 184.51 86.73 183.78 86.06 182.91 86.10 Z M 181.64 86.17 L 180.31 86.23 C 179.44 86.27 178.77 87.00 178.81 87.87 C 178.85 88.73 179.59 89.40 180.45 89.36 L 181.78 89.30 C 182.65 89.26 183.32 88.53 183.28 87.66 C 183.24 86.80 182.50 86.13 181.64 86.17 Z M 180.31 86.23 L 179.80 86.25 C 178.93 86.29 178.26 87.03 178.30 87.89 C 178.34 88.75 179.07 89.42 179.94 89.38 L 180.45 89.36 C 181.32 89.32 181.98 88.59 181.95 87.72 C 181.91 86.86 181.17 86.19 180.31 86.23 Z"
      fill="black"
      fill-rule="nonzero" /><path d="M 148.40 96.67 L 147.90 97.55 C 147.43 98.37 147.72 99.41 148.53 99.88 C 149.35 100.35 150.40 100.06 150.86 99.24 L 151.36 98.36 C 151.83 97.54 151.54 96.50 150.73 96.04 C 149.91 95.57 148.86 95.85 148.40 96.67 Z M 147.87 97.55 L 147.37 98.43 C 146.91 99.27 147.21 100.33 148.04 100.79 C 148.88 101.26 149.94 100.96 150.40 100.12 L 150.90 99.24 C 151.36 98.41 151.06 97.35 150.23 96.88 C 149.39 96.41 148.33 96.71 147.87 97.55 Z M 147.33 98.44 L 146.86 99.33 C 146.40 100.19 146.72 101.26 147.58 101.72 C 148.44 102.18 149.51 101.85 149.97 101.00 L 150.44 100.11 C 150.90 99.25 150.58 98.18 149.72 97.72 C 148.86 97.26 147.80 97.59 147.33 98.44 Z M 146.81 99.36 L 146.36 100.25 C 145.92 101.13 146.27 102.21 147.16 102.66 C 148.04 103.10 149.12 102.75 149.56 101.86 L 150.01 100.97 C 150.46 100.09 150.10 99.01 149.22 98.56 C 148.34 98.12 147.26 98.47 146.81 99.36 Z M 146.31 100.29 L 145.89 101.20 C 145.47 102.11 145.87 103.19 146.78 103.61 C 147.69 104.03 148.77 103.63 149.20 102.72 L 149.61 101.82 C 150.03 100.91 149.64 99.83 148.73 99.41 C 147.81 98.98 146.73 99.38 146.31 100.29 Z M 145.84 101.26 L 145.46 102.17 C 145.07 103.12 145.52 104.20 146.47 104.58 C 147.41 104.97 148.49 104.52 148.88 103.58 L 149.25 102.66 C 149.64 101.72 149.19 100.64 148.25 100.25 C 147.30 99.86 146.22 100.31 145.84 101.26 Z M 145.40 102.25 L 145.07 103.18 C 144.73 104.16 145.24 105.23 146.22 105.57 C 147.20 105.92 148.27 105.40 148.61 104.43 L 148.94 103.50 C 149.28 102.52 148.77 101.45 147.79 101.11 C 146.81 100.76 145.74 101.28 145.40 102.25 Z M 145.02 103.28 L 144.76 104.19 C 144.48 105.19 145.06 106.24 146.06 106.52 C 147.06 106.81 148.11 106.23 148.40 105.23 L 148.66 104.33 C 148.95 103.33 148.37 102.28 147.36 101.99 C 146.36 101.70 145.31 102.28 145.02 103.28 Z M 144.74 104.28 L 144.52 105.20 C 144.29 106.22 144.93 107.24 145.94 107.47 C 146.96 107.71 147.98 107.07 148.21 106.05 L 148.42 105.13 C 148.66 104.12 148.02 103.10 147.01 102.87 C 145.99 102.63 144.97 103.27 144.74 104.28 Z M 144.50 105.29 L 144.33 106.24 C 144.15 107.27 144.83 108.25 145.86 108.44 C 146.89 108.62 147.88 107.94 148.06 106.91 L 148.23 105.97 C 148.42 104.94 147.74 103.95 146.71 103.77 C 145.68 103.58 144.69 104.26 144.50 105.29 Z M 144.32 106.31 L 144.19 107.28 C 144.04 108.32 144.77 109.28 145.80 109.42 C 146.84 109.57 147.80 108.84 147.94 107.80 L 148.08 106.83 C 148.22 105.80 147.50 104.84 146.46 104.70 C 145.42 104.55 144.46 105.28 144.32 106.31 Z M 144.18 107.35 L 144.07 108.35 C 143.96 109.39 144.72 110.33 145.76 110.43 C 146.81 110.54 147.74 109.79 147.85 108.74 L 147.95 107.74 C 148.06 106.70 147.30 105.76 146.26 105.66 C 145.22 105.55 144.28 106.31 144.18 107.35 Z M 144.07 108.40 L 143.99 109.44 C 143.91 110.49 144.69 111.40 145.74 111.48 C 146.78 111.56 147.70 110.77 147.78 109.73 L 147.85 108.69 C 147.93 107.64 147.15 106.73 146.10 106.65 C 145.06 106.57 144.14 107.36 144.07 108.40 Z M 143.98 109.48 L 143.92 110.56 C 143.87 111.61 144.67 112.50 145.72 112.56 C 146.77 112.62 147.66 111.81 147.72 110.76 L 147.78 109.69 C 147.84 108.64 147.03 107.74 145.98 107.69 C 144.94 107.63 144.04 108.43 143.98 109.48 Z M 143.92 110.58 L 143.88 111.62 C 143.84 112.68 144.65 113.56 145.71 113.60 C 146.76 113.64 147.64 112.83 147.68 111.78 L 147.72 110.74 C 147.77 109.69 146.95 108.80 145.90 108.76 C 144.85 108.72 143.96 109.53 143.92 110.58 Z M 143.88 111.64 L 143.85 112.65 C 143.82 113.70 144.64 114.58 145.69 114.61 C 146.75 114.64 147.62 113.82 147.65 112.77 L 147.68 111.76 C 147.71 110.71 146.89 109.83 145.84 109.80 C 144.79 109.77 143.91 110.59 143.88 111.64 Z M 143.85 112.67 L 143.83 113.69 C 143.80 114.74 144.64 115.61 145.69 115.64 C 146.74 115.66 147.61 114.83 147.63 113.78 L 147.65 112.75 C 147.68 111.70 146.84 110.83 145.79 110.81 C 144.74 110.78 143.87 111.62 143.85 112.67 Z M 143.83 113.70 L 143.81 114.74 C 143.79 115.79 144.63 116.65 145.68 116.67 C 146.73 116.69 147.60 115.85 147.62 114.80 L 147.63 113.76 C 147.65 112.71 146.81 111.85 145.76 111.83 C 144.71 111.81 143.84 112.65 143.83 113.70 Z M 143.81 114.75 L 143.80 115.78 C 143.79 116.83 144.63 117.69 145.68 117.70 C 146.73 117.71 147.59 116.87 147.61 115.82 L 147.62 114.79 C 147.63 113.74 146.78 112.88 145.73 112.86 C 144.68 112.85 143.82 113.70 143.81 114.75 Z M 143.80 115.79 L 143.79 116.81 C 143.79 117.86 144.63 118.71 145.68 118.72 C 146.73 118.73 147.59 117.88 147.60 116.83 L 147.61 115.81 C 147.61 114.76 146.76 113.90 145.71 113.90 C 144.66 113.89 143.81 114.74 143.80 115.79 Z M 143.79 116.81 L 143.79 117.81 C 143.79 118.86 144.63 119.71 145.69 119.72 C 146.74 119.72 147.59 118.87 147.60 117.82 L 147.60 116.82 C 147.60 115.77 146.75 114.92 145.70 114.91 C 144.65 114.91 143.80 115.76 143.79 116.81 Z M 143.79 117.81 L 143.79 118.77 C 143.79 119.83 144.64 120.68 145.69 120.68 C 146.74 120.68 147.59 119.83 147.59 118.78 L 147.60 117.82 C 147.60 116.76 146.75 115.91 145.69 115.91 C 144.64 115.91 143.79 116.76 143.79 117.81 Z M 143.79 118.78 L 143.79 119.72 C 143.79 120.78 144.64 121.63 145.69 121.63 C 146.74 121.63 147.59 120.78 147.59 119.72 L 147.59 118.78 C 147.59 117.73 146.74 116.87 145.69 116.87 C 144.64 116.87 143.79 117.73 143.79 118.78 Z M 143.79 119.72 L 143.79 120.86 C 143.79 121.91 144.64 122.76 145.69 122.76 C 146.74 122.76 147.59 121.91 147.59 120.86 L 147.59 119.72 C 147.59 118.67 146.74 117.82 145.69 117.82 C 144.64 117.82 143.79 118.67 143.79 119.72 Z M 143.79 120.86 L 143.79 121.91 C 143.79 122.96 144.64 123.82 145.69 123.82 C 146.74 123.82 147.59 122.96 147.59 121.91 L 147.59 120.86 C 147.59 119.81 146.74 118.96 145.69 118.96 C 144.64 118.96 143.79 119.81 143.79 120.86 Z M 143.79 121.91 L 143.79 122.92 C 143.79 123.96 144.64 124.82 145.69 124.82 C 146.74 124.82 147.59 123.96 147.59 122.92 L 147.59 121.91 C 147.59 120.87 146.74 120.02 145.69 120.02 C 144.64 120.02 143.79 120.87 143.79 121.91 Z M 143.79 122.92 L 143.79 123.88 C 143.79 124.92 144.64 125.77 145.69 125.77 C 146.74 125.77 147.59 124.92 147.59 123.88 L 147.59 122.92 C 147.59 121.87 146.74 121.02 145.69 121.02 C 144.64 121.02 143.79 121.87 143.79 122.92 Z M 143.80 123.88 L 143.80 124.81 C 143.80 125.86 144.64 126.70 145.69 126.70 C 146.74 126.70 147.59 125.86 147.59 124.81 L 147.59 123.88 C 147.59 122.83 146.74 121.98 145.69 121.98 C 144.64 121.98 143.80 122.83 143.80 123.88 Z M 143.80 124.81 L 143.80 125.73 C 143.80 126.78 144.64 127.63 145.69 127.63 C 146.74 127.63 147.59 126.78 147.59 125.73 L 147.59 124.81 C 147.59 123.76 146.74 122.91 145.69 122.91 C 144.64 122.91 143.80 123.76 143.80 124.81 Z M 143.80 125.73 L 143.80 126.68 C 143.80 127.72 144.65 128.57 145.69 128.57 C 146.74 128.57 147.58 127.72 147.58 126.68 L 147.58 125.73 C 147.58 124.69 146.74 123.84 145.69 123.84 C 144.65 123.84 143.80 124.69 143.80 125.73 Z M 143.80 126.68 L 143.80 127.64 C 143.80 128.69 144.65 129.54 145.69 129.54 C 146.74 129.54 147.58 128.69 147.58 127.64 L 147.58 126.68 C 147.58 125.63 146.74 124.79 145.69 124.79 C 144.65 124.79 143.80 125.63 143.80 126.68 Z M 143.80 127.64 L 143.80 128.63 C 143.80 129.67 144.65 130.52 145.69 130.52 C 146.73 130.52 147.58 129.67 147.58 128.63 L 147.58 127.64 C 147.58 126.60 146.73 125.76 145.69 125.76 C 144.65 125.76 143.80 126.60 143.80 127.64 Z M 143.80 128.63 L 143.80 129.62 C 143.80 130.67 144.65 131.51 145.69 131.51 C 146.73 131.51 147.58 130.67 147.58 129.62 L 147.58 128.63 C 147.58 127.58 146.73 126.74 145.69 126.74 C 144.65 126.74 143.80 127.58 143.80 128.63 Z M 143.81 129.62 L 143.81 130.64 C 143.81 131.68 144.65 132.53 145.69 132.53 C 146.73 132.53 147.58 131.68 147.58 130.64 L 147.58 129.62 C 147.58 128.58 146.73 127.74 145.69 127.74 C 144.65 127.74 143.81 128.58 143.81 129.62 Z M 143.81 130.64 L 143.81 131.68 C 143.81 132.72 144.65 133.56 145.69 133.56 C 146.73 133.56 147.57 132.72 147.57 131.68 L 147.57 130.64 C 147.57 129.60 146.73 128.76 145.69 128.76 C 144.65 128.76 143.81 129.60 143.81 130.64 Z M 143.81 131.68 L 143.81 132.70 C 143.81 133.74 144.65 134.58 145.69 134.58 C 146.73 134.58 147.57 133.74 147.57 132.70 L 147.57 131.68 C 147.57 130.64 146.73 129.79 145.69 129.79 C 144.65 129.79 143.81 130.64 143.81 131.68 Z M 143.81 132.70 L 143.81 133.69 C 143.81 134.73 144.65 135.57 145.69 135.57 C 146.73 135.57 147.57 134.73 147.57 133.69 L 147.57 132.70 C 147.57 131.66 146.73 130.82 145.69 130.82 C 144.65 130.82 143.81 131.66 143.81 132.70 Z M 143.81 133.69 L 143.81 134.70 C 143.81 135.73 144.65 136.58 145.69 136.58 C 146.73 136.58 147.57 135.73 147.57 134.70 L 147.57 133.69 C 147.57 132.65 146.73 131.81 145.69 131.81 C 144.65 131.81 143.81 132.65 143.81 133.69 Z M 143.81 134.70 L 143.81 135.71 C 143.81 136.74 144.65 137.58 145.69 137.58 C 146.73 137.58 147.57 136.74 147.57 135.71 L 147.57 134.70 C 147.57 133.66 146.73 132.82 145.69 132.82 C 144.65 132.82 143.81 133.66 143.81 134.70 Z M 143.82 135.71 L 143.82 136.72 C 143.82 137.75 144.66 138.59 145.69 138.59 C 146.73 138.59 147.57 137.75 147.57 136.72 L 147.57 135.71 C 147.57 134.67 146.73 133.83 145.69 133.83 C 144.66 133.83 143.82 134.67 143.82 135.71 Z M 143.82 136.72 L 143.82 137.72 C 143.82 138.76 144.66 139.59 145.69 139.59 C 146.73 139.59 147.56 138.76 147.56 137.72 L 147.56 136.72 C 147.56 135.68 146.73 134.84 145.69 134.84 C 144.66 134.84 143.82 135.68 143.82 136.72 Z M 143.82 137.72 L 143.82 138.71 C 143.82 139.75 144.66 140.59 145.69 140.59 C 146.73 140.59 147.56 139.75 147.56 138.71 L 147.56 137.72 C 147.56 136.69 146.73 135.85 145.69 135.85 C 144.66 135.85 143.82 136.69 143.82 137.72 Z M 143.82 138.71 L 143.82 139.72 C 143.82 140.76 144.66 141.60 145.69 141.60 C 146.72 141.60 147.56 140.76 147.56 139.72 L 147.56 138.71 C 147.56 137.68 146.72 136.84 145.69 136.84 C 144.66 136.84 143.82 137.68 143.82 138.71 Z M 143.82 139.72 L 143.82 140.74 C 143.82 141.77 144.66 142.61 145.69 142.61 C 146.72 142.61 147.56 141.77 147.56 140.74 L 147.56 139.72 C 147.56 138.69 146.72 137.86 145.69 137.86 C 144.66 137.86 143.82 138.69 143.82 139.72 Z M 143.82 140.74 L 143.82 141.74 C 143.82 142.77 144.66 143.61 145.69 143.61 C 146.72 143.61 147.56 142.77 147.56 141.74 L 147.56 140.74 C 147.56 139.71 146.72 138.87 145.69 138.87 C 144.66 138.87 143.82 139.71 143.82 140.74 Z M 143.82 141.74 L 143.82 142.73 C 143.82 143.76 144.66 144.60 145.69 144.60 C 146.72 144.60 147.56 143.76 147.56 142.73 L 147.56 141.74 C 147.56 140.71 146.72 139.87 145.69 139.87 C 144.66 139.87 143.82 140.71 143.82 141.74 Z M 143.83 142.73 L 143.83 143.72 C 143.83 144.75 144.66 145.58 145.69 145.58 C 146.72 145.58 147.56 144.75 147.56 143.72 L 147.56 142.73 C 147.56 141.70 146.72 140.86 145.69 140.86 C 144.66 140.86 143.83 141.70 143.83 142.73 Z M 143.83 143.72 L 143.83 144.71 C 143.83 145.74 144.66 146.57 145.69 146.57 C 146.72 146.57 147.55 145.74 147.55 144.71 L 147.55 143.72 C 147.55 142.69 146.72 141.85 145.69 141.85 C 144.66 141.85 143.83 142.69 143.83 143.72 Z M 143.83 144.71 L 143.83 145.70 C 143.83 146.73 144.66 147.56 145.69 147.56 C 146.72 147.56 147.55 146.73 147.55 145.70 L 147.55 144.71 C 147.55 143.68 146.72 142.85 145.69 142.85 C 144.66 142.85 143.83 143.68 143.83 144.71 Z M 143.83 145.70 L 143.83 146.68 C 143.83 147.71 144.66 148.54 145.69 148.54 C 146.72 148.54 147.55 147.71 147.55 146.68 L 147.55 145.70 C 147.55 144.67 146.72 143.84 145.69 143.84 C 144.66 143.84 143.83 144.67 143.83 145.70 Z M 143.83 146.68 L 143.83 147.67 C 143.83 148.69 144.66 149.53 145.69 149.53 C 146.72 149.53 147.55 148.69 147.55 147.67 L 147.55 146.68 C 147.55 145.65 146.72 144.82 145.69 144.82 C 144.66 144.82 143.83 145.65 143.83 146.68 Z M 143.83 147.67 L 143.83 148.67 C 143.83 149.69 144.67 150.52 145.69 150.52 C 146.72 150.52 147.55 149.69 147.55 148.67 L 147.55 147.67 C 147.55 146.64 146.72 145.81 145.69 145.81 C 144.67 145.81 143.83 146.64 143.83 147.67 Z M 143.84 148.67 L 143.84 149.67 C 143.84 150.69 144.67 151.52 145.69 151.52 C 146.71 151.52 147.55 150.69 147.55 149.67 L 147.55 148.67 C 147.55 147.64 146.71 146.81 145.69 146.81 C 144.67 146.81 143.84 147.64 143.84 148.67 Z M 143.84 149.67 L 143.84 150.68 C 143.84 151.70 144.67 152.53 145.69 152.53 C 146.71 152.53 147.54 151.70 147.54 150.68 L 147.54 149.67 C 147.54 148.65 146.71 147.82 145.69 147.82 C 144.67 147.82 143.84 148.65 143.84 149.67 Z M 143.84 150.68 L 143.84 151.70 C 143.84 152.72 144.67 153.55 145.69 153.55 C 146.71 153.55 147.54 152.72 147.54 151.70 L 147.54 150.68 C 147.54 149.66 146.71 148.83 145.69 148.83 C 144.67 148.83 143.84 149.66 143.84 150.68 Z M 143.84 151.70 L 143.84 152.70 C 143.84 153.72 144.67 154.54 145.69 154.54 C 146.71 154.54 147.54 153.72 147.54 152.70 L 147.54 151.70 C 147.54 150.68 146.71 149.85 145.69 149.85 C 144.67 149.85 143.84 150.68 143.84 151.70 Z M 143.84 152.70 L 143.84 153.69 C 143.84 154.71 144.67 155.53 145.69 155.53 C 146.71 155.53 147.54 154.71 147.54 153.69 L 147.54 152.70 C 147.54 151.68 146.71 150.85 145.69 150.85 C 144.67 150.85 143.84 151.68 143.84 152.70 Z M 143.85 153.69 L 143.85 154.68 C 143.85 155.70 144.67 156.52 145.69 156.52 C 146.71 156.52 147.54 155.70 147.54 154.68 L 147.54 153.69 C 147.54 152.67 146.71 151.84 145.69 151.84 C 144.67 151.84 143.85 152.67 143.85 153.69 Z M 143.85 154.68 L 143.85 155.68 C 143.85 156.70 144.67 157.52 145.69 157.52 C 146.71 157.52 147.53 156.70 147.53 155.68 L 147.53 154.68 C 147.53 153.66 146.71 152.84 145.69 152.84 C 144.67 152.84 143.85 153.66 143.85 154.68 Z M 143.85 155.68 L 143.85 156.68 C 143.85 157.70 144.67 158.52 145.69 158.52 C 146.71 158.52 147.53 157.70 147.53 156.68 L 147.53 155.68 C 147.53 154.66 146.71 153.84 145.69 153.84 C 144.67 153.84 143.85 154.66 143.85 155.68 Z M 143.85 156.68 L 143.85 157.69 C 143.85 158.71 144.68 159.53 145.69 159.53 C 146.71 159.53 147.53 158.71 147.53 157.69 L 147.53 156.68 C 147.53 155.67 146.71 154.84 145.69 154.84 C 144.68 154.84 143.85 155.67 143.85 156.68 Z M 143.85 157.69 L 143.85 158.70 C 143.85 159.72 144.68 160.54 145.69 160.54 C 146.71 160.54 147.53 159.72 147.53 158.70 L 147.53 157.69 C 147.53 156.68 146.71 155.85 145.69 155.85 C 144.68 155.85 143.85 156.68 143.85 157.69 Z M 143.86 158.70 L 143.86 159.69 C 143.86 160.71 144.68 161.53 145.69 161.53 C 146.70 161.53 147.52 160.71 147.52 159.69 L 147.52 158.70 C 147.52 157.69 146.70 156.87 145.69 156.87 C 144.68 156.87 143.86 157.69 143.86 158.70 Z M 143.86 159.69 L 143.86 160.68 C 143.86 161.70 144.68 162.52 145.69 162.52 C 146.70 162.52 147.52 161.70 147.52 160.69 L 147.52 159.70 C 147.52 158.68 146.70 157.86 145.69 157.86 C 144.68 157.86 143.86 158.68 143.86 159.69 Z M 143.86 160.68 L 143.86 161.68 C 143.86 162.69 144.68 163.51 145.69 163.51 C 146.70 163.51 147.52 162.69 147.52 161.68 L 147.52 160.69 C 147.52 159.68 146.70 158.86 145.69 158.86 C 144.68 158.85 143.86 159.67 143.86 160.68 Z M 143.86 161.67 L 143.86 162.67 C 143.86 163.68 144.67 164.50 145.68 164.50 C 146.69 164.51 147.51 163.69 147.51 162.69 L 147.51 161.69 C 147.52 160.68 146.70 159.86 145.70 159.85 C 144.69 159.85 143.87 160.67 143.86 161.67 Z M 143.86 162.67 L 143.86 163.67 C 143.85 164.68 144.66 165.50 145.67 165.51 C 146.67 165.51 147.50 164.70 147.50 163.69 L 147.51 162.69 C 147.51 161.68 146.70 160.86 145.70 160.86 C 144.69 160.85 143.87 161.66 143.86 162.67 Z M 143.86 163.67 L 143.85 164.67 C 143.84 165.68 144.65 166.50 145.65 166.51 C 146.66 166.52 147.48 165.71 147.49 164.71 L 147.50 163.70 C 147.51 162.69 146.70 161.87 145.70 161.86 C 144.69 161.85 143.87 162.66 143.86 163.67 Z M 143.85 164.67 L 143.84 165.68 C 143.83 166.68 144.63 167.51 145.63 167.52 C 146.64 167.53 147.46 166.73 147.47 165.73 L 147.49 164.71 C 147.50 163.71 146.70 162.89 145.69 162.87 C 144.69 162.86 143.87 163.66 143.85 164.67 Z M 143.84 165.67 L 143.83 166.65 C 143.81 167.65 144.61 168.48 145.61 168.49 C 146.61 168.51 147.44 167.71 147.46 166.71 L 147.47 165.73 C 147.49 164.73 146.69 163.91 145.69 163.89 C 144.69 163.87 143.86 164.67 143.84 165.67 Z M 143.83 166.64 L 143.81 167.61 C 143.79 168.61 144.58 169.44 145.58 169.46 C 146.58 169.48 147.41 168.69 147.43 167.69 L 147.45 166.72 C 147.47 165.72 146.68 164.89 145.68 164.87 C 144.68 164.85 143.85 165.64 143.83 166.64 Z M 143.81 167.60 L 143.79 168.58 C 143.76 169.58 144.55 170.41 145.55 170.44 C 146.55 170.47 147.38 169.68 147.40 168.68 L 147.43 167.70 C 147.45 166.70 146.67 165.87 145.67 165.84 C 144.67 165.82 143.84 166.61 143.81 167.60 Z M 143.79 168.57 L 143.76 169.56 C 143.73 170.56 144.51 171.39 145.51 171.43 C 146.50 171.46 147.34 170.67 147.37 169.68 L 147.40 168.69 C 147.43 167.69 146.65 166.86 145.65 166.83 C 144.65 166.79 143.82 167.58 143.79 168.57 Z M 143.76 169.55 L 143.73 170.56 C 143.69 171.55 144.47 172.39 145.46 172.42 C 146.46 172.46 147.29 171.68 147.33 170.69 L 147.37 169.69 C 147.40 168.69 146.63 167.86 145.63 167.82 C 144.64 167.78 143.80 168.56 143.76 169.55 Z M 143.73 170.55 L 143.68 171.56 C 143.64 172.55 144.41 173.39 145.41 173.44 C 146.40 173.48 147.24 172.71 147.28 171.72 L 147.33 170.70 C 147.37 169.71 146.60 168.87 145.60 168.82 C 144.61 168.78 143.77 169.55 143.73 170.55 Z M 143.69 171.55 L 143.64 172.58 C 143.59 173.57 144.35 174.42 145.34 174.47 C 146.34 174.52 147.18 173.75 147.23 172.76 L 147.28 171.73 C 147.33 170.74 146.56 169.89 145.57 169.84 C 144.58 169.79 143.74 170.56 143.69 171.55 Z M 143.64 172.57 L 143.58 173.60 C 143.53 174.59 144.29 175.43 145.28 175.49 C 146.27 175.54 147.11 174.79 147.17 173.80 L 147.22 172.77 C 147.28 171.78 146.52 170.93 145.53 170.88 C 144.54 170.82 143.70 171.58 143.64 172.57 Z M 143.59 173.59 L 143.53 174.59 C 143.47 175.58 144.22 176.43 145.20 176.49 C 146.19 176.55 147.04 175.80 147.10 174.81 L 147.16 173.81 C 147.22 172.82 146.47 171.97 145.49 171.91 C 144.50 171.85 143.65 172.60 143.59 173.59 Z M 143.53 174.58 L 143.46 175.59 C 143.40 176.58 144.14 177.43 145.13 177.49 C 146.11 177.56 146.97 176.81 147.03 175.83 L 147.10 174.82 C 147.16 173.83 146.42 172.98 145.43 172.92 C 144.45 172.85 143.60 173.60 143.53 174.58 Z M 143.47 175.58 L 143.40 176.60 C 143.33 177.58 144.07 178.43 145.05 178.50 C 146.03 178.57 146.88 177.83 146.95 176.85 L 147.03 175.84 C 147.10 174.85 146.36 174.00 145.37 173.93 C 144.39 173.86 143.54 174.60 143.47 175.58 Z M 143.40 176.59 L 143.32 177.60 C 143.25 178.58 143.98 179.44 144.97 179.51 C 145.95 179.59 146.80 178.85 146.87 177.87 L 146.95 176.86 C 147.02 175.88 146.29 175.02 145.31 174.95 C 144.33 174.87 143.47 175.61 143.40 176.59 Z M 143.33 177.60 L 143.25 178.60 C 143.17 179.58 143.90 180.44 144.88 180.51 C 145.86 180.59 146.71 179.86 146.79 178.88 L 146.87 177.88 C 146.95 176.90 146.22 176.04 145.24 175.96 C 144.26 175.89 143.40 176.62 143.33 177.60 Z M 143.25 178.60 L 143.17 179.59 C 143.09 180.56 143.82 181.42 144.79 181.50 C 145.77 181.58 146.63 180.85 146.71 179.88 L 146.79 178.89 C 146.87 177.91 146.14 177.05 145.16 176.97 C 144.19 176.89 143.33 177.62 143.25 178.60 Z M 143.17 179.58 L 143.09 180.55 C 143.01 181.53 143.73 182.38 144.70 182.47 C 145.68 182.55 146.54 181.83 146.62 180.86 L 146.70 179.88 C 146.78 178.91 146.06 178.05 145.09 177.97 C 144.11 177.89 143.26 178.61 143.17 179.58 Z M 143.10 180.55 L 143.01 181.56 C 142.92 182.54 143.64 183.39 144.61 183.48 C 145.58 183.56 146.44 182.85 146.52 181.87 L 146.61 180.86 C 146.70 179.89 145.98 179.03 145.01 178.95 C 144.04 178.86 143.18 179.58 143.10 180.55 Z M 143.01 181.56 L 142.91 182.62 C 142.83 183.59 143.54 184.45 144.51 184.54 C 145.48 184.63 146.34 183.91 146.42 182.94 L 146.52 181.88 C 146.61 180.91 145.89 180.05 144.93 179.96 C 143.96 179.88 143.10 180.59 143.01 181.56 Z M 142.92 182.62 L 142.82 183.65 C 142.73 184.62 143.44 185.47 144.41 185.56 C 145.37 185.65 146.23 184.94 146.32 183.98 L 146.42 182.95 C 146.51 181.98 145.80 181.12 144.83 181.03 C 143.87 180.94 143.01 181.65 142.92 182.62 Z M 142.83 183.64 L 142.73 184.65 C 142.64 185.61 143.34 186.47 144.31 186.56 C 145.27 186.65 146.13 185.95 146.22 184.98 L 146.32 183.98 C 146.41 183.02 145.70 182.16 144.74 182.07 C 143.78 181.97 142.92 182.68 142.83 183.64 Z M 142.73 184.64 L 142.64 185.62 C 142.54 186.58 143.24 187.43 144.21 187.53 C 145.17 187.63 146.02 186.92 146.12 185.96 L 146.22 184.99 C 146.31 184.03 145.61 183.17 144.65 183.07 C 143.69 182.98 142.83 183.68 142.73 184.64 Z M 142.64 185.61 L 142.55 186.57 C 142.45 187.52 143.15 188.38 144.10 188.48 C 145.06 188.58 145.92 187.88 146.02 186.92 L 146.11 185.97 C 146.21 185.01 145.51 184.15 144.55 184.05 C 143.60 183.96 142.74 184.65 142.64 185.61 Z M 142.55 186.56 L 142.45 187.50 C 142.35 188.45 143.05 189.31 144.01 189.41 C 144.96 189.51 145.82 188.81 145.92 187.86 L 146.01 186.92 C 146.11 185.97 145.42 185.11 144.46 185.01 C 143.50 184.91 142.65 185.61 142.55 186.56 Z M 142.46 187.49 L 142.36 188.39 C 142.26 189.34 142.95 190.20 143.91 190.30 C 144.86 190.40 145.72 189.71 145.82 188.75 L 145.91 187.86 C 146.01 186.90 145.32 186.05 144.37 185.95 C 143.41 185.85 142.56 186.54 142.46 187.49 Z M 142.37 188.39 L 142.27 189.26 C 142.17 190.22 142.86 191.07 143.81 191.17 C 144.76 191.27 145.62 190.59 145.72 189.63 L 145.81 188.76 C 145.91 187.80 145.23 186.95 144.28 186.85 C 143.32 186.75 142.47 187.43 142.37 188.39 Z M 142.28 189.26 L 142.18 190.16 C 142.08 191.11 142.76 191.96 143.71 192.06 C 144.66 192.17 145.51 191.48 145.62 190.53 L 145.71 189.64 C 145.82 188.69 145.13 187.84 144.18 187.73 C 143.24 187.63 142.38 188.31 142.28 189.26 Z M 142.18 190.15 L 142.08 191.08 C 141.97 192.03 142.65 192.88 143.60 192.99 C 144.55 193.10 145.40 192.42 145.51 191.47 L 145.61 190.54 C 145.72 189.59 145.04 188.74 144.09 188.63 C 143.14 188.53 142.29 189.21 142.18 190.15 Z M 142.08 191.08 L 141.97 192.07 C 141.86 193.01 142.54 193.86 143.48 193.97 C 144.43 194.08 145.28 193.40 145.39 192.46 L 145.50 191.47 C 145.61 190.53 144.93 189.68 143.99 189.57 C 143.05 189.46 142.19 190.14 142.08 191.08 Z M 141.98 192.06 L 141.85 193.12 C 141.74 194.07 142.41 194.92 143.36 195.03 C 144.30 195.14 145.15 194.47 145.26 193.52 L 145.38 192.46 C 145.49 191.52 144.82 190.67 143.88 190.56 C 142.94 190.45 142.09 191.12 141.98 192.06 Z M 141.86 193.12 L 141.72 194.27 C 141.61 195.21 142.28 196.07 143.21 196.18 C 144.15 196.29 145.00 195.62 145.12 194.68 L 145.25 193.53 C 145.37 192.59 144.70 191.74 143.76 191.63 C 142.82 191.51 141.97 192.18 141.86 193.12 Z M 141.72 194.27 L 141.59 195.35 C 141.48 196.29 142.14 197.14 143.08 197.26 C 144.02 197.37 144.87 196.70 144.98 195.77 L 145.11 194.68 C 145.23 193.75 144.56 192.90 143.62 192.78 C 142.69 192.67 141.84 193.34 141.72 194.27 Z M 141.59 195.35 L 141.48 196.31 C 141.36 197.24 142.03 198.09 142.96 198.21 C 143.89 198.32 144.74 197.66 144.86 196.72 L 144.98 195.77 C 145.09 194.83 144.43 193.98 143.49 193.87 C 142.56 193.75 141.71 194.42 141.59 195.35 Z M 141.48 196.31 L 141.36 197.30 C 141.24 198.24 141.90 199.08 142.84 199.20 C 143.77 199.32 144.62 198.65 144.73 197.72 L 144.86 196.72 C 144.97 195.79 144.31 194.94 143.38 194.83 C 142.44 194.71 141.59 195.37 141.48 196.31 Z M 141.36 197.30 L 141.23 198.33 C 141.12 199.26 141.78 200.11 142.71 200.22 C 143.64 200.34 144.49 199.68 144.60 198.75 L 144.73 197.72 C 144.85 196.79 144.18 195.94 143.25 195.83 C 142.32 195.71 141.47 196.37 141.36 197.30 Z M 141.23 198.33 L 141.11 199.37 C 140.99 200.30 141.65 201.15 142.58 201.26 C 143.51 201.38 144.36 200.72 144.47 199.79 L 144.60 198.75 C 144.72 197.82 144.06 196.97 143.13 196.85 C 142.20 196.74 141.35 197.40 141.23 198.33 Z M 141.11 199.37 L 140.98 200.42 C 140.86 201.35 141.52 202.19 142.45 202.31 C 143.38 202.42 144.22 201.76 144.34 200.83 L 144.47 199.79 C 144.58 198.86 143.92 198.01 143.00 197.90 C 142.07 197.79 141.22 198.44 141.11 199.37 Z M 140.98 200.42 L 140.85 201.46 C 140.74 202.38 141.40 203.23 142.33 203.34 C 143.25 203.45 144.10 202.80 144.21 201.87 L 144.34 200.83 C 144.45 199.91 143.79 199.06 142.86 198.95 C 141.94 198.84 141.10 199.49 140.98 200.42 Z M 140.86 201.46 L 140.73 202.48 C 140.62 203.40 141.28 204.24 142.21 204.35 C 143.13 204.47 143.97 203.81 144.08 202.88 L 144.21 201.87 C 144.32 200.94 143.66 200.10 142.74 199.99 C 141.81 199.88 140.97 200.54 140.86 201.46 Z M 140.74 202.48 L 140.62 203.46 C 140.51 204.38 141.17 205.22 142.09 205.33 C 143.02 205.44 143.85 204.78 143.96 203.86 L 144.08 202.88 C 144.19 201.95 143.53 201.12 142.61 201.01 C 141.69 200.90 140.85 201.55 140.74 202.48 Z M 140.62 203.46 L 140.51 204.39 C 140.40 205.32 141.06 206.15 141.99 206.26 C 142.91 206.37 143.74 205.71 143.85 204.79 L 143.96 203.85 C 144.07 202.93 143.41 202.10 142.49 201.99 C 141.57 201.88 140.73 202.54 140.62 203.46 Z M 140.52 204.40 L 140.39 205.48 C 140.29 206.40 140.95 207.23 141.87 207.33 C 142.79 207.44 143.62 206.78 143.73 205.86 L 143.85 204.78 C 143.95 203.86 143.29 203.03 142.37 202.92 C 141.45 202.82 140.62 203.48 140.52 204.40 Z M 140.40 205.49 L 140.27 206.69 C 140.17 207.61 140.83 208.43 141.75 208.53 C 142.67 208.63 143.49 207.97 143.59 207.05 L 143.72 205.85 C 143.82 204.93 143.16 204.11 142.24 204.01 C 141.32 203.91 140.50 204.57 140.40 205.49 Z M 140.28 206.70 L 140.17 207.78 C 140.08 208.69 140.74 209.50 141.65 209.60 C 142.56 209.69 143.37 209.03 143.47 208.12 L 143.58 207.04 C 143.67 206.13 143.01 205.32 142.10 205.22 C 141.19 205.13 140.37 205.79 140.28 206.70 Z M 140.18 207.79 L 140.09 208.77 C 140.00 209.67 140.66 210.48 141.57 210.56 C 142.47 210.65 143.28 209.99 143.36 209.08 L 143.46 208.11 C 143.54 207.20 142.88 206.40 141.98 206.31 C 141.07 206.23 140.27 206.89 140.18 207.79 Z M 140.10 208.78 L 140.02 209.68 C 139.94 210.58 140.60 211.37 141.50 211.45 C 142.40 211.53 143.19 210.87 143.27 209.97 L 143.35 209.07 C 143.43 208.18 142.77 207.38 141.87 207.30 C 140.97 207.22 140.18 207.88 140.10 208.78 Z M 140.03 209.69 L 139.96 210.54 C 139.88 211.43 140.54 212.22 141.43 212.29 C 142.33 212.37 143.11 211.71 143.19 210.81 L 143.26 209.97 C 143.34 209.07 142.68 208.29 141.78 208.21 C 140.89 208.13 140.11 208.79 140.03 209.69 Z M 139.97 210.54 L 139.90 211.36 C 139.82 212.25 140.48 213.03 141.37 213.10 C 142.25 213.18 143.03 212.52 143.11 211.63 L 143.18 210.81 C 143.25 209.92 142.59 209.14 141.71 209.07 C 140.82 209.00 140.04 209.65 139.97 210.54 Z"
      fill="black"
      fill-rule="nonzero" /><path d="M 151.86 155.56 L 152.68 156.13 C 153.56 156.74 154.77 156.52 155.38 155.64 C 156.00 154.76 155.78 153.55 154.90 152.94 L 154.08 152.37 C 153.19 151.76 151.98 151.97 151.37 152.85 C 150.76 153.74 150.98 154.95 151.86 155.56 Z M 152.68 156.15 L 153.50 156.71 C 154.39 157.33 155.61 157.10 156.22 156.21 C 156.84 155.32 156.61 154.10 155.72 153.49 L 154.90 152.92 C 154.01 152.31 152.79 152.53 152.18 153.42 C 151.56 154.31 151.79 155.53 152.68 156.15 Z M 153.50 156.74 L 154.33 157.30 C 155.23 157.91 156.46 157.68 157.07 156.77 C 157.68 155.87 157.45 154.64 156.55 154.03 L 155.72 153.47 C 154.82 152.86 153.59 153.09 152.98 153.99 C 152.36 154.89 152.60 156.12 153.50 156.74 Z M 154.34 157.32 L 155.17 157.88 C 156.08 158.48 157.32 158.24 157.93 157.32 C 158.54 156.41 158.29 155.17 157.37 154.56 L 156.54 154.01 C 155.63 153.40 154.39 153.65 153.78 154.56 C 153.17 155.48 153.42 156.71 154.34 157.32 Z M 155.18 157.90 L 156.02 158.45 C 156.95 159.05 158.19 158.78 158.80 157.85 C 159.40 156.92 159.13 155.68 158.20 155.07 L 157.36 154.53 C 156.43 153.93 155.19 154.20 154.58 155.13 C 153.98 156.06 154.25 157.30 155.18 157.90 Z M 156.04 158.48 L 156.89 159.01 C 157.84 159.60 159.09 159.31 159.68 158.36 C 160.27 157.41 159.98 156.16 159.03 155.57 L 158.18 155.04 C 157.23 154.45 155.98 154.74 155.39 155.69 C 154.80 156.64 155.09 157.89 156.04 158.48 Z M 156.92 159.03 L 157.75 159.52 C 158.71 160.10 159.96 159.78 160.53 158.82 C 161.10 157.86 160.79 156.61 159.83 156.04 L 159.00 155.55 C 158.04 154.97 156.79 155.29 156.22 156.25 C 155.64 157.21 155.96 158.46 156.92 159.03 Z M 157.79 159.54 L 158.62 160.02 C 159.59 160.57 160.83 160.23 161.38 159.26 C 161.93 158.29 161.59 157.05 160.62 156.50 L 159.79 156.02 C 158.82 155.47 157.58 155.81 157.03 156.78 C 156.48 157.75 156.81 158.99 157.79 159.54 Z M 158.66 160.03 L 159.51 160.49 C 160.49 161.03 161.71 160.67 162.25 159.69 C 162.78 158.71 162.42 157.49 161.44 156.95 L 160.59 156.49 C 159.61 155.95 158.39 156.32 157.85 157.29 C 157.32 158.27 157.68 159.49 158.66 160.03 Z M 159.55 160.50 L 160.43 160.96 C 161.41 161.48 162.62 161.09 163.13 160.11 C 163.65 159.13 163.27 157.92 162.29 157.40 L 161.41 156.94 C 160.42 156.43 159.21 156.81 158.70 157.79 C 158.18 158.78 158.56 159.99 159.55 160.50 Z M 160.46 160.97 L 161.37 161.43 C 162.35 161.92 163.55 161.52 164.05 160.54 C 164.55 159.55 164.15 158.35 163.16 157.85 L 162.25 157.39 C 161.27 156.90 160.06 157.30 159.57 158.28 C 159.07 159.27 159.47 160.47 160.46 160.97 Z M 161.40 161.43 L 162.34 161.89 C 163.33 162.37 164.52 161.95 165.00 160.96 C 165.48 159.97 165.06 158.78 164.07 158.30 L 163.13 157.84 C 162.14 157.37 160.95 157.78 160.47 158.77 C 159.99 159.76 160.40 160.95 161.40 161.43 Z M 162.36 161.89 L 163.29 162.32 C 164.28 162.79 165.46 162.36 165.93 161.37 C 166.39 160.38 165.96 159.19 164.97 158.73 L 164.05 158.30 C 163.05 157.83 161.87 158.26 161.41 159.25 C 160.94 160.24 161.37 161.43 162.36 161.89 Z M 163.31 162.32 L 164.16 162.71 C 165.16 163.17 166.33 162.73 166.78 161.73 C 167.23 160.74 166.79 159.57 165.80 159.12 L 164.95 158.73 C 163.96 158.28 162.78 158.71 162.33 159.71 C 161.88 160.70 162.32 161.87 163.31 162.32 Z M 164.18 162.71 L 165.06 163.10 C 166.05 163.55 167.22 163.10 167.66 162.11 C 168.10 161.12 167.65 159.95 166.66 159.51 L 165.78 159.12 C 164.79 158.68 163.63 159.12 163.18 160.11 C 162.74 161.11 163.19 162.27 164.18 162.71 Z M 165.08 163.10 L 165.98 163.50 C 166.97 163.93 168.13 163.48 168.56 162.48 C 168.99 161.49 168.54 160.34 167.55 159.91 L 166.64 159.51 C 165.65 159.08 164.50 159.53 164.07 160.52 C 163.63 161.51 164.08 162.67 165.08 163.10 Z M 165.99 163.49 L 166.92 163.89 C 167.91 164.31 169.06 163.86 169.48 162.87 C 169.90 161.88 169.45 160.73 168.46 160.30 L 167.53 159.91 C 166.54 159.48 165.39 159.94 164.97 160.93 C 164.55 161.92 165.00 163.07 165.99 163.49 Z M 166.93 163.89 L 167.88 164.28 C 168.86 164.70 170.00 164.24 170.42 163.25 C 170.84 162.26 170.37 161.12 169.38 160.71 L 168.44 160.31 C 167.45 159.89 166.31 160.35 165.90 161.34 C 165.48 162.33 165.94 163.47 166.93 163.89 Z M 167.89 164.28 L 168.85 164.68 C 169.83 165.09 170.97 164.62 171.38 163.64 C 171.79 162.65 171.32 161.52 170.33 161.11 L 169.37 160.71 C 168.39 160.30 167.25 160.77 166.84 161.75 C 166.43 162.74 166.90 163.87 167.89 164.28 Z M 168.86 164.67 L 169.83 165.07 C 170.82 165.48 171.94 165.01 172.35 164.02 C 172.75 163.04 172.28 161.92 171.29 161.51 L 170.32 161.11 C 169.34 160.71 168.21 161.18 167.81 162.16 C 167.41 163.15 167.88 164.27 168.86 164.67 Z M 169.84 165.07 L 170.79 165.45 C 171.77 165.85 172.88 165.38 173.28 164.39 C 173.68 163.41 173.21 162.30 172.23 161.90 L 171.28 161.52 C 170.30 161.12 169.19 161.59 168.79 162.57 C 168.39 163.55 168.86 164.67 169.84 165.07 Z M 170.80 165.44 L 171.72 165.81 C 172.69 166.21 173.80 165.73 174.20 164.76 C 174.59 163.78 174.12 162.67 173.14 162.28 L 172.22 161.91 C 171.24 161.52 170.13 161.99 169.74 162.96 C 169.35 163.94 169.82 165.05 170.80 165.44 Z M 171.73 165.80 L 172.65 166.18 C 173.63 166.56 174.73 166.09 175.12 165.12 C 175.50 164.15 175.03 163.05 174.06 162.66 L 173.13 162.29 C 172.16 161.90 171.06 162.37 170.67 163.34 C 170.28 164.31 170.75 165.42 171.73 165.80 Z M 172.66 166.17 L 173.59 166.54 C 174.56 166.92 175.65 166.45 176.04 165.49 C 176.42 164.52 175.95 163.43 174.99 163.04 L 174.06 162.67 C 173.09 162.28 172.00 162.75 171.61 163.72 C 171.22 164.68 171.69 165.78 172.66 166.17 Z M 173.59 166.53 L 174.53 166.90 C 175.49 167.29 176.58 166.82 176.96 165.86 C 177.34 164.90 176.88 163.81 175.92 163.43 L 174.99 163.05 C 174.03 162.67 172.94 163.14 172.55 164.09 C 172.17 165.05 172.64 166.14 173.59 166.53 Z M 174.53 166.89 L 175.46 167.26 C 176.41 167.65 177.50 167.19 177.88 166.24 C 178.26 165.28 177.80 164.20 176.85 163.82 L 175.92 163.44 C 174.97 163.06 173.88 163.52 173.50 164.47 C 173.11 165.42 173.58 166.51 174.53 166.89 Z M 175.46 167.25 L 176.39 167.63 C 177.33 168.01 178.41 167.56 178.80 166.61 C 179.18 165.67 178.73 164.59 177.78 164.21 L 176.85 163.83 C 175.91 163.44 174.83 163.90 174.44 164.84 C 174.06 165.79 174.51 166.87 175.46 167.25 Z M 176.39 167.62 L 177.31 168.00 C 178.25 168.38 179.32 167.94 179.71 167.00 C 180.09 166.06 179.65 164.99 178.71 164.60 L 177.78 164.22 C 176.85 163.83 175.77 164.28 175.39 165.22 C 175.00 166.16 175.45 167.23 176.39 167.62 Z M 177.30 167.98 L 178.23 168.37 C 179.16 168.76 180.23 168.32 180.62 167.39 C 181.01 166.46 180.57 165.39 179.64 165.00 L 178.71 164.61 C 177.78 164.23 176.71 164.66 176.32 165.59 C 175.94 166.52 176.37 167.59 177.30 167.98 Z M 178.23 168.36 L 179.18 168.76 C 180.10 169.16 181.17 168.73 181.56 167.81 C 181.95 166.89 181.53 165.82 180.61 165.43 L 179.65 165.02 C 178.73 164.63 177.66 165.06 177.27 165.98 C 176.88 166.90 177.31 167.96 178.23 168.36 Z M 179.17 168.74 L 180.12 169.16 C 181.03 169.55 182.09 169.14 182.48 168.23 C 182.88 167.32 182.47 166.26 181.56 165.86 L 180.61 165.45 C 179.70 165.05 178.64 165.47 178.24 166.38 C 177.85 167.29 178.26 168.35 179.17 168.74 Z M 180.11 169.14 L 181.04 169.55 C 181.94 169.95 182.99 169.55 183.39 168.65 C 183.80 167.75 183.39 166.69 182.49 166.29 L 181.56 165.88 C 180.66 165.47 179.61 165.88 179.21 166.78 C 178.80 167.68 179.21 168.74 180.11 169.14 Z M 181.03 169.53 L 181.94 169.95 C 182.83 170.36 183.88 169.97 184.29 169.08 C 184.70 168.19 184.31 167.14 183.42 166.73 L 182.50 166.31 C 181.61 165.90 180.56 166.29 180.15 167.18 C 179.75 168.07 180.14 169.13 181.03 169.53 Z M 181.93 169.93 L 182.83 170.35 C 183.71 170.77 184.75 170.39 185.17 169.51 C 185.58 168.63 185.20 167.58 184.32 167.17 L 183.43 166.75 C 182.55 166.34 181.50 166.71 181.09 167.59 C 180.67 168.47 181.05 169.52 181.93 169.93 Z M 182.81 170.33 L 183.69 170.76 C 184.56 171.18 185.61 170.82 186.02 169.95 C 186.44 169.08 186.08 168.04 185.21 167.62 L 184.33 167.19 C 183.47 166.77 182.42 167.14 182.00 168.00 C 181.58 168.87 181.95 169.91 182.81 170.33 Z M 183.68 170.74 L 184.54 171.17 C 185.40 171.59 186.44 171.25 186.86 170.39 C 187.29 169.53 186.94 168.49 186.09 168.07 L 185.23 167.64 C 184.37 167.21 183.33 167.56 182.90 168.42 C 182.48 169.27 182.83 170.31 183.68 170.74 Z M 184.53 171.14 L 185.41 171.60 C 186.25 172.03 187.29 171.70 187.72 170.86 C 188.16 170.02 187.83 168.98 186.98 168.54 L 186.10 168.09 C 185.26 167.66 184.22 167.99 183.79 168.83 C 183.35 169.67 183.68 170.71 184.53 171.14 Z M 185.39 171.57 L 186.31 172.07 C 187.14 172.51 188.17 172.20 188.62 171.37 C 189.06 170.54 188.75 169.51 187.92 169.06 L 187.00 168.57 C 186.17 168.12 185.14 168.44 184.70 169.26 C 184.25 170.09 184.56 171.13 185.39 171.57 Z M 186.28 172.04 L 187.17 172.54 C 187.98 173.00 189.01 172.72 189.48 171.91 C 189.94 171.10 189.65 170.06 188.84 169.60 L 187.95 169.10 C 187.14 168.63 186.11 168.92 185.65 169.73 C 185.18 170.54 185.47 171.57 186.28 172.04 Z M 187.13 172.51 L 187.99 173.03 C 188.78 173.51 189.81 173.26 190.30 172.47 C 190.78 171.68 190.53 170.64 189.74 170.16 L 188.88 169.64 C 188.09 169.16 187.05 169.41 186.57 170.20 C 186.09 170.99 186.34 172.02 187.13 172.51 Z M 187.95 172.98 L 188.77 173.53 C 189.54 174.04 190.57 173.82 191.08 173.06 C 191.58 172.29 191.37 171.26 190.61 170.75 L 189.78 170.21 C 189.01 169.70 187.98 169.91 187.47 170.68 C 186.97 171.44 187.18 172.48 187.95 172.98 Z M 188.72 173.48 L 189.51 174.05 C 190.25 174.58 191.28 174.42 191.81 173.68 C 192.35 172.94 192.19 171.91 191.45 171.37 L 190.66 170.80 C 189.92 170.27 188.89 170.43 188.35 171.17 C 187.82 171.91 187.98 172.94 188.72 173.48 Z M 189.45 173.99 L 190.20 174.59 C 190.91 175.16 191.94 175.05 192.51 174.34 C 193.07 173.64 192.96 172.61 192.26 172.04 L 191.50 171.43 C 190.80 170.87 189.77 170.98 189.20 171.69 C 188.63 172.39 188.75 173.42 189.45 173.99 Z M 190.14 174.52 L 190.86 175.18 C 191.53 175.78 192.56 175.72 193.16 175.06 C 193.76 174.39 193.71 173.36 193.04 172.76 L 192.32 172.11 C 191.65 171.51 190.62 171.56 190.02 172.23 C 189.42 172.89 189.47 173.92 190.14 174.52 Z M 190.80 175.10 L 191.50 175.81 C 192.13 176.44 193.15 176.45 193.79 175.82 C 194.42 175.19 194.43 174.17 193.80 173.54 L 193.10 172.83 C 192.47 172.20 191.45 172.19 190.81 172.82 C 190.18 173.45 190.17 174.47 190.80 175.10 Z M 191.45 175.75 L 192.12 176.49 C 192.71 177.15 193.73 177.20 194.39 176.61 C 195.05 176.02 195.10 175.00 194.51 174.34 L 193.85 173.60 C 193.25 172.94 192.24 172.88 191.58 173.48 C 190.92 174.07 190.86 175.09 191.45 175.75 Z M 192.08 176.43 L 192.72 177.20 C 193.28 177.88 194.29 177.98 194.97 177.41 C 195.65 176.85 195.75 175.84 195.18 175.16 L 194.55 174.39 C 193.98 173.71 192.98 173.62 192.29 174.18 C 191.61 174.74 191.52 175.75 192.08 176.43 Z M 192.69 177.16 L 193.31 177.95 C 193.85 178.64 194.85 178.77 195.54 178.23 C 196.24 177.69 196.36 176.69 195.82 176.00 L 195.21 175.21 C 194.67 174.51 193.67 174.39 192.97 174.93 C 192.28 175.47 192.16 176.47 192.69 177.16 Z M 193.30 177.92 L 193.90 178.72 C 194.42 179.42 195.41 179.57 196.11 179.05 C 196.81 178.53 196.96 177.53 196.43 176.83 L 195.83 176.03 C 195.31 175.33 194.32 175.18 193.62 175.70 C 192.92 176.22 192.77 177.22 193.30 177.92 Z M 193.89 178.70 L 194.48 179.52 C 194.99 180.22 195.98 180.38 196.68 179.87 C 197.38 179.36 197.54 178.37 197.03 177.67 L 196.44 176.85 C 195.93 176.15 194.94 175.99 194.24 176.50 C 193.54 177.01 193.38 178.00 193.89 178.70 Z M 194.48 179.51 L 194.69 179.79 C 195.20 180.50 196.18 180.66 196.88 180.15 C 197.58 179.64 197.74 178.66 197.23 177.96 L 197.03 177.68 C 196.52 176.97 195.54 176.81 194.84 177.32 C 194.14 177.83 193.98 178.81 194.48 179.51 Z"
      fill="black"
      fill-rule="nonzero" /></svg>