<svg xmlns="http://www.w3.org/2000/svg" width="300" height="300" viewBox="0 0 300 300">
<path d="M 146.92 75.83 L 146.05 74.93 C 145.40 74.25 144.32 74.23 143.64 74.88 C 142.96 75.54 142.94 76.62 143.59 77.30 L 144.46 78.20 C 145.12 78.88 146.20 78.90 146.88 78.24 C 147.56 77.59 147.58 76.51 146.92 75.83 Z M 145.98 74.79 L 145.15 74.06 C 144.42 73.42 143.31 73.50 142.67 74.23 C 142.03 74.96 142.10 76.08 142.84 76.71 L 143.67 77.44 C 144.40 78.08 145.51 78.00 146.15 77.27 C 146.79 76.54 146.71 75.43 145.98 74.79 Z M 144.80 73.77 L 144.04 73.39 C 143.15 72.95 142.06 73.31 141.61 74.21 C 141.17 75.10 141.53 76.19 142.43 76.63 L 143.19 77.01 C 144.08 77.46 145.17 77.09 145.61 76.20 C 146.06 75.30 145.69 74.21 144.80 73.77 Z M 142.82 73.20 L 142.18 73.34 C 141.17 73.57 140.54 74.57 140.77 75.57 C 141.00 76.57 142.00 77.20 143.00 76.98 L 143.65 76.83 C 144.65 76.60 145.28 75.60 145.05 74.60 C 144.82 73.60 143.83 72.97 142.82 73.20 Z M 141.09 74.00 L 140.75 74.44 C 140.11 75.27 140.26 76.46 141.08 77.10 C 141.91 77.74 143.10 77.59 143.74 76.76 L 144.08 76.32 C 144.72 75.49 144.57 74.31 143.75 73.66 C 142.92 73.02 141.73 73.17 141.09 74.00 Z M 140.49 74.88 L 140.20 75.56 C 139.80 76.53 140.27 77.65 141.24 78.04 C 142.21 78.44 143.32 77.98 143.72 77.01 L 144.00 76.33 C 144.40 75.36 143.94 74.25 142.97 73.85 C 142.00 73.45 140.89 73.91 140.49 74.88 Z M 140.12 75.81 L 139.88 76.70 C 139.62 77.72 140.23 78.76 141.25 79.03 C 142.27 79.29 143.31 78.68 143.58 77.66 L 143.81 76.77 C 144.07 75.75 143.46 74.71 142.44 74.44 C 141.42 74.18 140.38 74.79 140.12 75.81 Z M 139.84 76.85 L 139.66 77.91 C 139.47 78.96 140.17 79.95 141.21 80.13 C 142.25 80.32 143.25 79.62 143.43 78.58 L 143.62 77.51 C 143.80 76.47 143.10 75.48 142.06 75.29 C 141.02 75.11 140.03 75.81 139.84 76.85 Z M 139.63 78.01 L 139.49 79.21 C 139.36 80.26 140.11 81.22 141.16 81.35 C 142.21 81.48 143.17 80.73 143.30 79.68 L 143.45 78.48 C 143.58 77.43 142.83 76.47 141.78 76.34 C 140.72 76.21 139.76 76.96 139.63 78.01 Z M 139.47 79.28 L 139.36 80.57 C 139.26 81.63 140.05 82.57 141.11 82.66 C 142.18 82.76 143.11 81.97 143.20 80.91 L 143.32 79.61 C 143.41 78.55 142.63 77.61 141.56 77.52 C 140.50 77.43 139.56 78.21 139.47 79.28 Z M 139.35 80.62 L 139.28 81.76 C 139.21 82.83 140.02 83.75 141.09 83.81 C 142.15 83.88 143.07 83.07 143.14 82.01 L 143.21 80.86 C 143.28 79.80 142.47 78.88 141.40 78.81 C 140.34 78.74 139.42 79.55 139.35 80.62 Z M 139.27 81.79 L 139.22 82.81 C 139.17 83.88 140.00 84.79 141.07 84.84 C 142.14 84.89 143.04 84.07 143.10 83.00 L 143.14 81.98 C 143.20 80.91 142.37 80.00 141.30 79.95 C 140.23 79.90 139.32 80.72 139.27 81.79 Z M 139.22 82.84 L 139.19 83.87 C 139.15 84.94 139.98 85.84 141.05 85.88 C 142.12 85.92 143.02 85.08 143.06 84.01 L 143.10 82.98 C 143.13 81.91 142.30 81.01 141.23 80.97 C 140.16 80.93 139.26 81.77 139.22 82.84 Z M 139.18 83.89 L 139.16 84.93 C 139.13 86.00 139.98 86.89 141.05 86.92 C 142.12 86.94 143.01 86.10 143.03 85.03 L 143.06 83.99 C 143.09 82.92 142.24 82.03 141.17 82.00 C 140.10 81.98 139.21 82.82 139.18 83.89 Z M 139.16 84.94 L 139.14 85.97 C 139.12 87.04 139.98 87.93 141.05 87.94 C 142.12 87.96 143.00 87.11 143.02 86.04 L 143.04 85.01 C 143.05 83.94 142.20 83.06 141.13 83.04 C 140.06 83.02 139.18 83.87 139.16 84.94 Z M 139.14 85.99 L 139.13 87.00 C 139.12 88.07 139.98 88.95 141.05 88.96 C 142.12 88.97 143.00 88.11 143.01 87.04 L 143.02 86.03 C 143.03 84.96 142.17 84.08 141.10 84.07 C 140.03 84.06 139.15 84.91 139.14 85.99 Z M 139.13 87.01 L 139.12 87.99 C 139.12 89.07 139.98 89.94 141.05 89.94 C 142.12 89.95 143.00 89.09 143.00 88.02 L 143.01 87.03 C 143.01 85.96 142.15 85.08 141.08 85.08 C 140.01 85.07 139.13 85.94 139.13 87.01 Z M 139.12 88.00 L 139.12 88.95 C 139.12 90.03 139.99 90.90 141.06 90.90 C 142.13 90.90 143.00 90.03 143.00 88.96 L 143.00 88.01 C 143.01 86.94 142.14 86.07 141.07 86.07 C 140.00 86.06 139.13 86.93 139.12 88.00 Z M 139.12 88.96 L 139.12 89.88 C 139.12 90.95 139.99 91.82 141.06 91.82 C 142.13 91.82 143.00 90.95 143.00 89.88 L 143.00 88.96 C 143.00 87.89 142.13 87.02 141.06 87.02 C 139.99 87.02 139.12 87.89 139.12 88.96 Z M 139.12 89.88 L 139.12 91.00 C 139.12 92.07 139.99 92.94 141.06 92.94 C 142.13 92.94 143.00 92.07 143.00 91.00 L 143.00 89.88 C 143.00 88.81 142.13 87.94 141.06 87.94 C 139.99 87.94 139.12 88.81 139.12 89.88 Z M 139.12 91.00 L 139.12 92.05 C 139.12 93.12 139.99 93.99 141.06 93.99 C 142.13 93.99 143.00 93.12 143.00 92.05 L 143.00 91.00 C 143.00 89.93 142.13 89.06 141.06 89.06 C 139.99 89.06 139.12 89.93 139.12 91.00 Z M 139.12 92.05 L 139.12 93.04 C 139.12 94.12 139.99 94.99 141.06 94.99 C 142.13 94.99 143.00 94.12 143.00 93.04 L 143.00 92.05 C 143.00 90.97 142.13 90.10 141.06 90.10 C 139.99 90.10 139.12 90.97 139.12 92.05 Z M 139.12 93.04 L 139.12 94.01 C 139.12 95.08 139.99 95.95 141.06 95.95 C 142.13 95.95 143.00 95.08 143.00 94.01 L 143.00 93.04 C 143.00 91.97 142.13 91.10 141.06 91.10 C 139.99 91.10 139.12 91.97 139.12 93.04 Z M 139.12 94.01 L 139.12 94.95 C 139.12 96.02 139.99 96.89 141.06 96.89 C 142.13 96.89 143.00 96.02 143.00 94.95 L 143.00 94.01 C 143.00 92.93 142.13 92.06 141.06 92.06 C 139.99 92.06 139.12 92.93 139.12 94.01 Z M 139.12 94.95 L 139.12 95.90 C 139.12 96.97 139.99 97.84 141.06 97.84 C 142.13 97.84 143.00 96.97 143.00 95.90 L 143.00 94.95 C 143.00 93.88 142.13 93.01 141.06 93.01 C 139.99 93.01 139.12 93.88 139.12 94.95 Z M 139.12 95.90 L 139.12 96.84 C 139.12 97.92 139.99 98.79 141.06 98.79 C 142.13 98.79 143.01 97.92 143.01 96.84 L 143.01 95.90 C 143.01 94.82 142.13 93.95 141.06 93.95 C 139.99 93.95 139.12 94.82 139.12 95.90 Z M 139.12 96.84 L 139.12 97.80 C 139.12 98.88 139.99 99.75 141.06 99.74 C 142.14 99.74 143.01 98.87 143.01 97.80 L 143.01 96.84 C 143.00 95.77 142.13 94.90 141.06 94.90 C 139.99 94.90 139.12 95.77 139.12 96.84 Z M 139.12 97.81 L 139.12 98.78 C 139.12 99.86 140.00 100.73 141.07 100.72 C 142.14 100.72 143.01 99.85 143.01 98.77 L 143.01 97.79 C 143.00 96.72 142.13 95.85 141.06 95.86 C 139.98 95.86 139.11 96.73 139.12 97.81 Z M 139.12 98.79 L 139.13 99.79 C 139.13 100.86 140.01 101.73 141.08 101.72 C 142.16 101.71 143.02 100.84 143.02 99.76 L 143.01 98.77 C 143.00 97.69 142.13 96.83 141.05 96.83 C 139.98 96.84 139.11 97.72 139.12 98.79 Z M 139.13 99.80 L 139.14 100.81 C 139.15 101.89 140.03 102.75 141.10 102.73 C 142.18 102.72 143.04 101.84 143.03 100.77 L 143.02 99.75 C 143.00 98.68 142.12 97.82 141.05 97.83 C 139.98 97.84 139.11 98.72 139.13 99.80 Z M 139.14 100.82 L 139.16 101.85 C 139.18 102.93 140.06 103.78 141.14 103.76 C 142.21 103.74 143.06 102.86 143.04 101.78 L 143.03 100.76 C 143.01 99.68 142.12 98.83 141.05 98.85 C 139.97 98.87 139.12 99.75 139.14 100.82 Z M 139.16 101.87 L 139.18 102.91 C 139.21 103.98 140.10 104.83 141.18 104.80 C 142.25 104.78 143.10 103.89 143.07 102.81 L 143.04 101.77 C 143.02 100.70 142.13 99.85 141.05 99.88 C 139.98 99.90 139.13 100.79 139.16 101.87 Z M 139.18 102.93 L 139.22 103.91 C 139.25 104.98 140.15 105.82 141.22 105.79 C 142.30 105.75 143.14 104.85 143.10 103.78 L 143.07 102.80 C 143.03 101.72 142.14 100.88 141.06 100.92 C 139.99 100.95 139.15 101.85 139.18 102.93 Z M 139.22 103.92 L 139.26 104.90 C 139.30 105.97 140.21 106.81 141.28 106.76 C 142.35 106.72 143.18 105.81 143.14 104.74 L 143.10 103.77 C 143.06 102.69 142.15 101.86 141.08 101.90 C 140.01 101.95 139.17 102.85 139.22 103.92 Z M 139.26 104.91 L 139.30 105.89 C 139.35 106.97 140.26 107.80 141.34 107.75 C 142.41 107.70 143.24 106.79 143.19 105.71 L 143.14 104.73 C 143.09 103.66 142.18 102.83 141.11 102.88 C 140.04 102.93 139.21 103.84 139.26 104.91 Z M 139.30 105.90 L 139.36 106.90 C 139.41 107.97 140.32 108.79 141.40 108.74 C 142.47 108.68 143.29 107.77 143.24 106.70 L 143.19 105.70 C 143.13 104.63 142.22 103.81 141.15 103.86 C 140.07 103.92 139.25 104.83 139.30 105.90 Z M 139.36 106.90 L 139.41 107.91 C 139.47 108.98 140.39 109.80 141.46 109.74 C 142.53 109.68 143.35 108.77 143.29 107.70 L 143.24 106.69 C 143.18 105.62 142.26 104.80 141.19 104.86 C 140.12 104.92 139.30 105.83 139.36 106.90 Z M 139.41 107.91 L 139.47 108.93 C 139.53 110.00 140.45 110.82 141.52 110.76 C 142.59 110.69 143.41 109.78 143.35 108.71 L 143.29 107.69 C 143.23 106.62 142.31 105.80 141.24 105.86 C 140.17 105.92 139.35 106.84 139.41 107.91 Z M 139.47 108.93 L 139.53 109.95 C 139.59 111.03 140.51 111.84 141.58 111.78 C 142.65 111.72 143.47 110.80 143.41 109.73 L 143.35 108.70 C 143.28 107.63 142.37 106.82 141.30 106.88 C 140.23 106.94 139.41 107.86 139.47 108.93 Z M 139.53 109.95 L 139.59 110.96 C 139.65 112.03 140.57 112.85 141.64 112.78 C 142.71 112.72 143.53 111.80 143.46 110.73 L 143.41 109.73 C 143.34 108.66 142.43 107.84 141.36 107.90 C 140.29 107.97 139.47 108.88 139.53 109.95 Z M 139.59 110.96 L 139.65 111.93 C 139.71 113.00 140.62 113.82 141.69 113.75 C 142.76 113.69 143.58 112.77 143.52 111.70 L 143.46 110.73 C 143.40 109.66 142.48 108.85 141.41 108.91 C 140.34 108.97 139.53 109.89 139.59 110.96 Z M 139.65 111.93 L 139.70 112.91 C 139.76 113.98 140.68 114.80 141.75 114.73 C 142.82 114.67 143.64 113.76 143.58 112.69 L 143.52 111.70 C 143.46 110.64 142.54 109.82 141.47 109.88 C 140.40 109.94 139.58 110.86 139.65 111.93 Z M 139.70 112.91 L 139.76 113.90 C 139.82 114.97 140.74 115.79 141.81 115.72 C 142.88 115.66 143.69 114.74 143.63 113.67 L 143.57 112.68 C 143.51 111.62 142.60 110.80 141.53 110.86 C 140.46 110.92 139.64 111.84 139.70 112.91 Z M 139.76 113.90 L 139.82 114.90 C 139.88 115.97 140.80 116.78 141.87 116.72 C 142.94 116.66 143.75 115.74 143.69 114.67 L 143.63 113.67 C 143.57 112.60 142.65 111.79 141.58 111.85 C 140.51 111.92 139.70 112.83 139.76 113.90 Z M 139.82 114.90 L 139.88 115.91 C 139.95 116.98 140.87 117.79 141.93 117.73 C 143.00 117.66 143.82 116.75 143.75 115.68 L 143.69 114.67 C 143.63 113.60 142.71 112.79 141.64 112.85 C 140.57 112.92 139.76 113.84 139.82 114.90 Z M 139.88 115.92 L 139.95 116.93 C 140.01 118.00 140.93 118.81 142.00 118.74 C 143.07 118.68 143.88 117.76 143.81 116.69 L 143.75 115.67 C 143.68 114.61 142.76 113.79 141.70 113.86 C 140.63 113.93 139.82 114.85 139.88 115.92 Z M 139.95 116.94 L 140.01 117.96 C 140.08 119.03 141.01 119.84 142.07 119.77 C 143.14 119.70 143.95 118.78 143.88 117.71 L 143.81 116.68 C 143.74 115.62 142.82 114.81 141.76 114.88 C 140.69 114.95 139.88 115.87 139.95 116.94 Z M 140.02 117.96 L 140.08 118.95 C 140.15 120.02 141.08 120.83 142.14 120.76 C 143.21 120.68 144.02 119.76 143.95 118.69 L 143.88 117.70 C 143.81 116.64 142.88 115.83 141.82 115.90 C 140.75 115.97 139.94 116.90 140.02 117.96 Z M 140.08 118.96 L 140.15 119.92 C 140.23 120.99 141.15 121.79 142.22 121.72 C 143.28 121.64 144.09 120.72 144.01 119.65 L 143.94 118.69 C 143.87 117.62 142.94 116.82 141.88 116.89 C 140.81 116.97 140.01 117.89 140.08 118.96 Z M 140.15 119.92 L 140.22 120.89 C 140.30 121.96 141.22 122.76 142.29 122.69 C 143.35 122.61 144.16 121.68 144.08 120.62 L 144.01 119.65 C 143.93 118.58 143.01 117.78 141.94 117.86 C 140.88 117.93 140.08 118.86 140.15 119.92 Z M 140.22 120.89 L 140.29 121.87 C 140.37 122.94 141.29 123.74 142.36 123.66 C 143.42 123.59 144.23 122.66 144.15 121.60 L 144.08 120.62 C 144.00 119.55 143.08 118.75 142.01 118.83 C 140.95 118.90 140.15 119.83 140.22 120.89 Z M 140.29 121.87 L 140.36 122.86 C 140.44 123.93 141.37 124.73 142.43 124.65 C 143.49 124.58 144.30 123.65 144.22 122.59 L 144.15 121.60 C 144.07 120.53 143.15 119.73 142.08 119.81 C 141.02 119.88 140.22 120.81 140.29 121.87 Z M 140.36 122.86 L 140.44 123.86 C 140.51 124.93 141.43 125.73 142.50 125.66 C 143.56 125.58 144.36 124.66 144.29 123.59 L 144.22 122.59 C 144.14 121.53 143.22 120.72 142.16 120.80 C 141.09 120.87 140.29 121.80 140.36 122.86 Z M 140.44 123.86 L 140.51 124.88 C 140.58 125.94 141.50 126.74 142.56 126.67 C 143.63 126.60 144.43 125.68 144.36 124.61 L 144.29 123.60 C 144.22 122.53 143.29 121.73 142.23 121.80 C 141.17 121.88 140.36 122.80 140.44 123.86 Z M 140.51 124.87 L 140.57 125.90 C 140.64 126.97 141.56 127.77 142.63 127.70 C 143.69 127.63 144.50 126.71 144.43 125.65 L 144.36 124.62 C 144.29 123.55 143.37 122.75 142.30 122.82 C 141.24 122.89 140.44 123.81 140.51 124.87 Z M 140.57 125.90 L 140.64 126.95 C 140.71 128.01 141.62 128.82 142.69 128.75 C 143.75 128.68 144.56 127.77 144.49 126.71 L 144.43 125.66 C 144.36 124.59 143.44 123.79 142.38 123.85 C 141.32 123.92 140.51 124.84 140.57 125.90 Z M 140.64 126.94 L 140.70 127.92 C 140.76 128.98 141.68 129.79 142.74 129.73 C 143.80 129.67 144.61 128.75 144.55 127.69 L 144.49 126.71 C 144.43 125.65 143.52 124.84 142.45 124.90 C 141.39 124.96 140.58 125.88 140.64 126.94 Z M 140.70 127.91 L 140.76 128.90 C 140.81 129.97 141.72 130.78 142.79 130.72 C 143.85 130.66 144.66 129.75 144.60 128.69 L 144.55 127.70 C 144.49 126.64 143.58 125.82 142.52 125.88 C 141.45 125.94 140.64 126.85 140.70 127.91 Z M 140.76 128.90 L 140.81 129.90 C 140.87 130.96 141.77 131.78 142.83 131.72 C 143.90 131.66 144.71 130.76 144.66 129.69 L 144.60 128.69 C 144.55 127.63 143.64 126.82 142.58 126.87 C 141.52 126.93 140.70 127.84 140.76 128.90 Z M 140.81 129.89 L 140.86 130.90 C 140.91 131.96 141.82 132.78 142.88 132.73 C 143.94 132.67 144.76 131.77 144.71 130.71 L 144.66 129.70 C 144.60 128.64 143.70 127.82 142.64 127.87 C 141.57 127.93 140.76 128.83 140.81 129.89 Z M 140.86 130.89 L 140.91 131.90 C 140.96 132.96 141.86 133.78 142.92 133.73 C 143.98 133.68 144.80 132.78 144.75 131.72 L 144.71 130.71 C 144.66 129.65 143.75 128.83 142.69 128.88 C 141.63 128.93 140.81 129.83 140.86 130.89 Z M 140.91 131.90 L 140.95 132.91 C 141.00 133.97 141.90 134.79 142.96 134.74 C 144.02 134.70 144.85 133.80 144.80 132.73 L 144.75 131.73 C 144.71 130.66 143.81 129.84 142.74 129.89 C 141.68 129.94 140.86 130.84 140.91 131.90 Z M 140.96 132.90 L 141.00 133.91 C 141.04 134.97 141.94 135.79 143.00 135.75 C 144.06 135.70 144.88 134.81 144.84 133.75 L 144.80 132.74 C 144.75 131.68 143.86 130.85 142.79 130.90 C 141.73 130.94 140.91 131.84 140.96 132.90 Z M 141.00 133.90 L 141.04 134.91 C 141.08 135.97 141.98 136.79 143.04 136.75 C 144.10 136.71 144.92 135.81 144.88 134.75 L 144.84 133.75 C 144.80 132.69 143.90 131.86 142.84 131.91 C 141.78 131.95 140.96 132.84 141.00 133.90 Z M 141.04 134.90 L 141.08 135.89 C 141.12 136.95 142.01 137.78 143.07 137.74 C 144.13 137.70 144.96 136.81 144.92 135.75 L 144.88 134.76 C 144.84 133.70 143.95 132.87 142.89 132.91 C 141.83 132.95 141.00 133.84 141.04 134.90 Z M 141.08 135.89 L 141.11 136.91 C 141.15 137.97 142.04 138.80 143.10 138.76 C 144.16 138.72 144.99 137.83 144.95 136.77 L 144.92 135.75 C 144.88 134.69 143.99 133.86 142.93 133.90 C 141.87 133.94 141.04 134.83 141.08 135.89 Z M 141.12 136.90 L 141.15 137.92 C 141.19 138.98 142.07 139.81 143.13 139.78 C 144.19 139.74 145.02 138.85 144.99 137.80 L 144.95 136.77 C 144.92 135.71 144.03 134.88 142.97 134.92 C 141.91 134.96 141.08 135.84 141.12 136.90 Z M 141.15 137.92 L 141.18 138.93 C 141.22 139.99 142.10 140.82 143.16 140.79 C 144.22 140.75 145.05 139.87 145.02 138.81 L 144.98 137.80 C 144.95 136.74 144.07 135.91 143.01 135.94 C 141.95 135.98 141.12 136.86 141.15 137.92 Z M 141.18 138.93 L 141.21 139.93 C 141.25 140.99 142.13 141.82 143.19 141.79 C 144.25 141.76 145.08 140.87 145.05 139.82 L 145.02 138.81 C 144.98 137.76 144.10 136.92 143.04 136.96 C 141.98 136.99 141.15 137.87 141.18 138.93 Z M 141.21 139.93 L 141.24 140.92 C 141.27 141.98 142.16 142.81 143.21 142.78 C 144.27 142.75 145.10 141.87 145.07 140.81 L 145.04 139.82 C 145.01 138.76 144.13 137.93 143.07 137.96 C 142.02 137.99 141.18 138.87 141.21 139.93 Z M 141.24 140.92 L 141.27 141.91 C 141.30 142.97 142.18 143.80 143.24 143.77 C 144.29 143.74 145.13 142.86 145.10 141.80 L 145.07 140.82 C 145.04 139.76 144.16 138.92 143.11 138.95 C 142.05 138.98 141.22 139.86 141.24 140.92 Z M 141.27 141.91 L 141.30 142.89 C 141.33 143.95 142.21 144.78 143.26 144.76 C 144.32 144.73 145.15 143.85 145.12 142.79 L 145.10 141.81 C 145.07 140.75 144.19 139.92 143.13 139.94 C 142.08 139.97 141.24 140.85 141.27 141.91 Z M 141.30 142.89 L 141.32 143.88 C 141.35 144.93 142.23 145.77 143.29 145.74 C 144.34 145.71 145.18 144.84 145.15 143.78 L 145.12 142.79 C 145.10 141.74 144.22 140.90 143.16 140.93 C 142.11 140.96 141.27 141.84 141.30 142.89 Z M 141.33 143.88 L 141.35 144.86 C 141.38 145.92 142.26 146.75 143.31 146.73 C 144.37 146.70 145.20 145.82 145.17 144.77 L 145.15 143.78 C 145.12 142.72 144.24 141.89 143.19 141.92 C 142.13 141.94 141.30 142.82 141.33 143.88 Z M 141.35 144.86 L 141.38 145.85 C 141.40 146.91 142.28 147.74 143.34 147.72 C 144.39 147.69 145.22 146.81 145.20 145.76 L 145.17 144.77 C 145.15 143.71 144.27 142.88 143.21 142.90 C 142.16 142.93 141.33 143.81 141.35 144.86 Z M 141.38 145.85 L 141.40 146.85 C 141.43 147.90 142.31 148.74 143.36 148.71 C 144.41 148.68 145.25 147.81 145.22 146.75 L 145.20 145.76 C 145.17 144.70 144.29 143.87 143.24 143.90 C 142.19 143.92 141.35 144.80 141.38 145.85 Z M 141.40 146.85 L 141.43 147.84 C 141.45 148.90 142.33 149.73 143.38 149.71 C 144.44 149.68 145.27 148.81 145.24 147.75 L 145.22 146.76 C 145.19 145.70 144.32 144.87 143.27 144.89 C 142.21 144.92 141.38 145.79 141.40 146.85 Z M 141.43 147.84 L 141.45 148.84 C 141.48 149.90 142.35 150.73 143.40 150.70 C 144.46 150.68 145.29 149.81 145.27 148.75 L 145.24 147.75 C 145.22 146.70 144.34 145.87 143.29 145.89 C 142.24 145.92 141.40 146.79 141.43 147.84 Z M 141.45 148.84 L 141.48 149.84 C 141.50 150.89 142.37 151.73 143.42 151.70 C 144.48 151.68 145.31 150.81 145.29 149.76 L 145.27 148.76 C 145.24 147.70 144.37 146.87 143.32 146.89 C 142.26 146.92 141.43 147.79 141.45 148.84 Z M 141.48 149.84 L 141.50 150.84 C 141.52 151.89 142.39 152.73 143.44 152.71 C 144.49 152.68 145.33 151.81 145.31 150.76 L 145.29 149.76 C 145.26 148.71 144.39 147.87 143.34 147.89 C 142.29 147.92 141.46 148.79 141.48 149.84 Z M 141.50 150.84 L 141.52 151.84 C 141.54 152.89 142.40 153.73 143.46 153.71 C 144.51 153.69 145.34 152.82 145.32 151.77 L 145.31 150.77 C 145.29 149.71 144.42 148.88 143.37 148.90 C 142.32 148.92 141.48 149.78 141.50 150.84 Z M 141.52 151.83 L 141.53 152.84 C 141.55 153.89 142.42 154.73 143.47 154.71 C 144.52 154.69 145.36 153.83 145.34 152.78 L 145.32 151.77 C 145.31 150.72 144.44 149.88 143.39 149.90 C 142.34 149.92 141.50 150.78 141.52 151.83 Z M 141.54 152.83 L 141.55 153.84 C 141.56 154.89 142.43 155.73 143.48 155.71 C 144.53 155.70 145.37 154.83 145.35 153.78 L 145.34 152.78 C 145.32 151.73 144.46 150.89 143.41 150.91 C 142.36 150.92 141.52 151.78 141.54 152.83 Z M 141.55 153.83 L 141.56 154.83 C 141.57 155.88 142.43 156.72 143.48 156.71 C 144.53 156.70 145.37 155.84 145.36 154.79 L 145.35 153.79 C 145.34 152.74 144.48 151.90 143.43 151.91 C 142.38 151.92 141.54 152.78 141.55 153.83 Z M 141.56 154.83 L 141.57 155.83 C 141.58 156.88 142.44 157.72 143.49 157.71 C 144.53 157.70 145.38 156.84 145.37 155.79 L 145.36 154.79 C 145.35 153.75 144.49 152.90 143.45 152.91 C 142.40 152.92 141.55 153.78 141.56 154.83 Z M 141.57 155.82 L 141.58 156.82 C 141.59 157.87 142.44 158.71 143.49 158.71 C 144.54 158.70 145.38 157.85 145.37 156.80 L 145.37 155.80 C 145.36 154.75 144.51 153.91 143.46 153.91 C 142.41 153.92 141.57 154.77 141.57 155.82 Z M 141.58 156.82 L 141.58 157.82 C 141.59 158.87 142.44 159.71 143.49 159.71 C 144.54 159.70 145.38 158.85 145.38 157.80 L 145.37 156.80 C 145.37 155.76 144.51 154.91 143.47 154.91 C 142.42 154.92 141.58 155.77 141.58 156.82 Z M 141.59 157.82 L 141.59 158.82 C 141.59 159.86 142.44 160.71 143.49 160.70 C 144.54 160.70 145.38 159.85 145.38 158.81 L 145.37 157.81 C 145.37 156.76 144.52 155.91 143.47 155.92 C 142.43 155.92 141.58 156.77 141.59 157.82 Z M 141.59 158.81 L 141.59 159.81 C 141.59 160.86 142.44 161.71 143.49 161.70 C 144.53 161.70 145.38 160.85 145.38 159.81 L 145.38 158.81 C 145.37 157.76 144.53 156.92 143.48 156.92 C 142.43 156.92 141.59 157.77 141.59 158.81 Z M 141.59 159.81 L 141.59 160.81 C 141.60 161.86 142.44 162.70 143.49 162.70 C 144.53 162.70 145.38 161.85 145.38 160.81 L 145.38 159.81 C 145.38 158.76 144.53 157.92 143.48 157.92 C 142.44 157.92 141.59 158.77 141.59 159.81 Z M 141.60 160.81 L 141.60 161.81 C 141.60 162.85 142.44 163.70 143.49 163.70 C 144.53 163.70 145.38 162.85 145.38 161.81 L 145.38 160.81 C 145.38 159.77 144.53 158.92 143.49 158.92 C 142.44 158.92 141.60 159.77 141.60 160.81 Z M 141.60 161.81 L 141.60 162.81 C 141.60 163.85 142.44 164.70 143.49 164.70 C 144.53 164.70 145.37 163.85 145.37 162.81 L 145.37 161.81 C 145.37 160.77 144.53 159.92 143.49 159.92 C 142.44 159.92 141.60 160.77 141.60 161.81 Z M 141.60 162.81 L 141.60 163.81 C 141.60 164.85 142.44 165.70 143.49 165.70 C 144.53 165.70 145.37 164.85 145.37 163.81 L 145.37 162.81 C 145.37 161.77 144.53 160.92 143.49 160.92 C 142.44 160.92 141.60 161.77 141.60 162.81 Z M 141.60 163.81 L 141.60 164.81 C 141.60 165.85 142.45 166.69 143.49 166.69 C 144.53 166.69 145.37 165.85 145.37 164.81 L 145.37 163.81 C 145.37 162.77 144.53 161.93 143.49 161.93 C 142.45 161.93 141.60 162.77 141.60 163.81 Z M 141.60 164.81 L 141.60 165.81 C 141.60 166.85 142.45 167.69 143.49 167.69 C 144.53 167.69 145.37 166.85 145.37 165.81 L 145.37 164.81 C 145.37 163.77 144.53 162.93 143.49 162.93 C 142.45 162.93 141.60 163.77 141.60 164.81 Z M 141.61 165.81 L 141.61 166.81 C 141.61 167.85 142.45 168.69 143.49 168.69 C 144.52 168.69 145.37 167.85 145.37 166.81 L 145.37 165.81 C 145.37 164.77 144.52 163.93 143.49 163.93 C 142.45 163.93 141.61 164.77 141.61 165.81 Z M 141.61 166.81 L 141.61 167.81 C 141.61 168.85 142.45 169.69 143.49 169.69 C 144.52 169.69 145.36 168.85 145.36 167.81 L 145.36 166.81 C 145.36 165.77 144.52 164.93 143.49 164.93 C 142.45 164.93 141.61 165.77 141.61 166.81 Z M 141.61 167.81 L 141.61 168.81 C 141.61 169.85 142.45 170.69 143.49 170.69 C 144.52 170.69 145.36 169.85 145.36 168.81 L 145.36 167.81 C 145.36 166.77 144.52 165.94 143.49 165.94 C 142.45 165.94 141.61 166.77 141.61 167.81 Z M 141.61 168.81 L 141.61 169.81 C 141.61 170.85 142.45 171.68 143.49 171.68 C 144.52 171.68 145.36 170.85 145.36 169.81 L 145.36 168.81 C 145.36 167.78 144.52 166.94 143.49 166.94 C 142.45 166.94 141.61 167.78 141.61 168.81 Z M 141.62 169.81 L 141.62 170.81 C 141.62 171.84 142.45 172.68 143.49 172.68 C 144.52 172.68 145.36 171.84 145.36 170.81 L 145.36 169.81 C 145.36 168.78 144.52 167.94 143.49 167.94 C 142.45 167.94 141.62 168.78 141.62 169.81 Z M 141.62 170.81 L 141.62 171.81 C 141.62 172.84 142.45 173.67 143.49 173.67 C 144.52 173.67 145.35 172.84 145.35 171.81 L 145.35 170.81 C 145.35 169.78 144.52 168.94 143.49 168.94 C 142.45 168.94 141.62 169.78 141.62 170.81 Z M 141.62 171.80 L 141.62 172.79 C 141.62 173.82 142.46 174.66 143.49 174.66 C 144.52 174.66 145.35 173.82 145.35 172.79 L 145.35 171.81 C 145.35 170.77 144.52 169.94 143.49 169.94 C 142.46 169.94 141.62 170.77 141.62 171.80 Z M 141.62 172.79 L 141.62 173.78 C 141.62 174.81 142.46 175.65 143.48 175.65 C 144.51 175.65 145.35 174.81 145.35 173.78 L 145.35 172.79 C 145.35 171.77 144.52 170.93 143.49 170.93 C 142.46 170.93 141.62 171.76 141.62 172.79 Z M 141.62 173.78 L 141.62 174.77 C 141.62 175.80 142.45 176.63 143.48 176.64 C 144.51 176.64 145.34 175.80 145.34 174.78 L 145.35 173.79 C 145.35 172.76 144.52 171.92 143.49 171.92 C 142.46 171.92 141.63 172.75 141.62 173.78 Z M 141.63 174.77 L 141.62 175.76 C 141.62 176.79 142.45 177.62 143.48 177.63 C 144.50 177.63 145.34 176.80 145.34 175.77 L 145.34 174.78 C 145.34 173.75 144.51 172.92 143.49 172.92 C 142.46 172.91 141.63 173.74 141.63 174.77 Z M 141.63 175.76 L 141.62 176.76 C 141.62 177.79 142.45 178.62 143.47 178.62 C 144.50 178.63 145.33 177.80 145.33 176.78 L 145.34 175.78 C 145.34 174.75 144.51 173.92 143.49 173.91 C 142.46 173.91 141.63 174.74 141.63 175.76 Z M 141.63 176.76 L 141.62 177.76 C 141.61 178.79 142.44 179.62 143.46 179.62 C 144.49 179.63 145.32 178.81 145.33 177.78 L 145.33 176.78 C 145.34 175.76 144.51 174.92 143.49 174.92 C 142.46 174.91 141.63 175.73 141.63 176.76 Z M 141.62 177.76 L 141.62 178.77 C 141.61 179.79 142.43 180.62 143.45 180.63 C 144.47 180.64 145.31 179.82 145.32 178.80 L 145.32 177.79 C 145.33 176.76 144.51 175.93 143.49 175.92 C 142.46 175.91 141.63 176.74 141.62 177.76 Z M 141.62 178.76 L 141.61 179.78 C 141.60 180.80 142.42 181.64 143.44 181.65 C 144.46 181.66 145.29 180.84 145.30 179.82 L 145.31 178.80 C 145.32 177.78 144.50 176.94 143.48 176.93 C 142.46 176.93 141.63 177.74 141.62 178.76 Z M 141.61 179.78 L 141.60 180.80 C 141.59 181.82 142.40 182.66 143.42 182.67 C 144.44 182.68 145.28 181.86 145.29 180.85 L 145.30 179.82 C 145.31 178.80 144.50 177.97 143.48 177.95 C 142.46 177.94 141.62 178.76 141.61 179.78 Z M 141.60 180.80 L 141.59 181.83 C 141.57 182.84 142.38 183.68 143.40 183.69 C 144.42 183.71 145.25 182.90 145.27 181.88 L 145.28 180.85 C 145.30 179.83 144.49 179.00 143.47 178.98 C 142.45 178.97 141.62 179.78 141.60 180.80 Z M 141.59 181.82 L 141.57 182.85 C 141.55 183.87 142.36 184.70 143.38 184.72 C 144.39 184.74 145.23 183.93 145.25 182.92 L 145.27 181.89 C 145.28 180.87 144.48 180.03 143.46 180.02 C 142.45 180.00 141.61 180.81 141.59 181.82 Z M 141.57 182.85 L 141.55 183.87 C 141.53 184.89 142.33 185.73 143.35 185.75 C 144.36 185.77 145.20 184.97 145.22 183.95 L 145.24 182.92 C 145.27 181.91 144.46 181.07 143.45 181.05 C 142.44 181.03 141.60 181.83 141.57 182.85 Z M 141.56 183.87 L 141.53 184.89 C 141.50 185.90 142.30 186.74 143.31 186.76 C 144.33 186.79 145.17 185.99 145.19 184.98 L 145.22 183.96 C 145.24 182.95 144.44 182.11 143.43 182.08 C 142.42 182.06 141.58 182.86 141.56 183.87 Z M 141.53 184.88 L 141.50 185.89 C 141.47 186.90 142.27 187.74 143.28 187.77 C 144.29 187.80 145.13 187.00 145.16 185.99 L 145.19 184.99 C 145.22 183.98 144.43 183.14 143.42 183.11 C 142.41 183.08 141.56 183.87 141.53 184.88 Z M 141.51 185.88 L 141.47 186.87 C 141.44 187.87 142.23 188.72 143.23 188.75 C 144.24 188.79 145.09 188.00 145.12 186.99 L 145.16 186.00 C 145.19 185.00 144.40 184.15 143.39 184.12 C 142.39 184.08 141.54 184.87 141.51 185.88 Z M 141.48 186.86 L 141.44 187.83 C 141.40 188.83 142.18 189.68 143.18 189.72 C 144.19 189.76 145.04 188.98 145.08 187.97 L 145.12 187.00 C 145.16 186.00 144.38 185.15 143.37 185.11 C 142.37 185.07 141.52 185.85 141.48 186.86 Z M 141.44 187.81 L 141.40 188.76 C 141.35 189.76 142.12 190.61 143.13 190.66 C 144.13 190.70 144.98 189.93 145.03 188.93 L 145.07 187.98 C 145.12 186.98 144.35 186.13 143.34 186.08 C 142.34 186.04 141.49 186.81 141.44 187.81 Z M 141.40 188.74 L 141.34 189.77 C 141.29 190.77 142.06 191.63 143.06 191.69 C 144.06 191.74 144.91 190.97 144.97 189.97 L 145.03 188.94 C 145.08 187.94 144.31 187.08 143.31 187.03 C 142.31 186.97 141.46 187.74 141.40 188.74 Z M 141.35 189.76 L 141.28 190.84 C 141.21 191.84 141.97 192.70 142.97 192.76 C 143.97 192.83 144.83 192.07 144.89 191.07 L 144.96 189.99 C 145.03 188.99 144.27 188.13 143.27 188.07 C 142.28 188.00 141.41 188.76 141.35 189.76 Z M 141.28 190.82 L 141.21 191.86 C 141.13 192.86 141.88 193.72 142.87 193.80 C 143.87 193.87 144.74 193.13 144.81 192.13 L 144.89 191.09 C 144.96 190.10 144.22 189.23 143.22 189.15 C 142.23 189.08 141.36 189.83 141.28 190.82 Z M 141.21 191.84 L 141.13 192.85 C 141.04 193.84 141.78 194.71 142.77 194.79 C 143.76 194.88 144.64 194.14 144.72 193.15 L 144.80 192.15 C 144.89 191.16 144.15 190.28 143.16 190.20 C 142.17 190.12 141.30 190.85 141.21 191.84 Z M 141.13 192.83 L 141.04 193.80 C 140.95 194.79 141.68 195.67 142.67 195.76 C 143.65 195.85 144.53 195.13 144.62 194.14 L 144.71 193.17 C 144.81 192.18 144.08 191.30 143.09 191.21 C 142.10 191.12 141.23 191.84 141.13 192.83 Z M 141.05 193.79 L 140.95 194.73 C 140.85 195.72 141.57 196.60 142.55 196.70 C 143.54 196.80 144.42 196.08 144.52 195.10 L 144.62 194.15 C 144.72 193.17 144.00 192.29 143.02 192.19 C 142.03 192.08 141.15 192.80 141.05 193.79 Z M 140.96 194.72 L 140.86 195.64 C 140.75 196.62 141.46 197.50 142.44 197.61 C 143.42 197.72 144.30 197.01 144.41 196.03 L 144.51 195.11 C 144.62 194.13 143.92 193.24 142.93 193.13 C 141.95 193.03 141.07 193.73 140.96 194.72 Z M 140.86 195.63 L 140.75 196.54 C 140.64 197.52 141.34 198.41 142.32 198.53 C 143.30 198.64 144.18 197.94 144.30 196.96 L 144.41 196.04 C 144.52 195.07 143.82 194.18 142.84 194.06 C 141.86 193.95 140.98 194.65 140.86 195.63 Z M 140.76 196.53 L 140.64 197.46 C 140.52 198.44 141.21 199.33 142.19 199.45 C 143.16 199.57 144.05 198.88 144.18 197.90 L 144.29 196.97 C 144.41 196.00 143.72 195.11 142.75 194.99 C 141.77 194.86 140.88 195.56 140.76 196.53 Z M 140.65 197.44 L 140.53 198.38 C 140.39 199.35 141.08 200.24 142.05 200.37 C 143.02 200.50 143.91 199.82 144.04 198.85 L 144.17 197.92 C 144.30 196.95 143.62 196.05 142.65 195.92 C 141.67 195.79 140.78 196.47 140.65 197.44 Z M 140.53 198.36 L 140.39 199.31 C 140.25 200.27 140.92 201.17 141.89 201.31 C 142.86 201.45 143.76 200.78 143.90 199.82 L 144.04 198.87 C 144.18 197.90 143.51 197.00 142.54 196.86 C 141.57 196.72 140.67 197.39 140.53 198.36 Z M 140.40 199.29 L 140.25 200.26 C 140.10 201.23 140.76 202.13 141.72 202.28 C 142.68 202.43 143.59 201.77 143.74 200.81 L 143.89 199.83 C 144.04 198.87 143.38 197.97 142.42 197.82 C 141.46 197.67 140.55 198.32 140.40 199.29 Z M 140.26 200.24 L 140.09 201.26 C 139.92 202.22 140.57 203.13 141.53 203.29 C 142.49 203.45 143.40 202.81 143.56 201.85 L 143.73 200.83 C 143.89 199.87 143.25 198.96 142.29 198.80 C 141.33 198.64 140.42 199.28 140.26 200.24 Z M 140.09 201.24 L 139.90 202.31 C 139.73 203.26 140.36 204.18 141.31 204.35 C 142.27 204.52 143.18 203.89 143.35 202.94 L 143.55 201.87 C 143.72 200.91 143.09 200.00 142.14 199.83 C 141.18 199.65 140.27 200.29 140.09 201.24 Z M 139.91 202.29 L 139.71 203.32 C 139.53 204.27 140.15 205.18 141.10 205.37 C 142.05 205.55 142.97 204.93 143.15 203.98 L 143.35 202.95 C 143.53 202.01 142.91 201.09 141.96 200.90 C 141.01 200.72 140.09 201.34 139.91 202.29 Z M 139.72 203.30 L 139.53 204.22 C 139.34 205.17 139.95 206.09 140.90 206.28 C 141.84 206.47 142.77 205.86 142.96 204.91 L 143.14 203.99 C 143.33 203.05 142.72 202.13 141.78 201.94 C 140.83 201.74 139.91 202.36 139.72 203.30 Z M 139.54 204.21 L 139.34 205.16 C 139.14 206.10 139.74 207.03 140.69 207.22 C 141.63 207.42 142.55 206.82 142.75 205.87 L 142.95 204.92 C 143.15 203.98 142.54 203.06 141.60 202.86 C 140.66 202.66 139.74 203.27 139.54 204.21 Z M 139.34 205.15 L 139.13 206.12 C 138.93 207.06 139.53 207.99 140.47 208.19 C 141.40 208.40 142.33 207.80 142.53 206.86 L 142.74 205.88 C 142.95 204.95 142.35 204.02 141.41 203.82 C 140.47 203.61 139.55 204.21 139.34 205.15 Z M 139.14 206.11 L 138.92 207.11 C 138.71 208.04 139.30 208.97 140.23 209.18 C 141.17 209.39 142.10 208.80 142.31 207.86 L 142.53 206.87 C 142.74 205.93 142.15 205.01 141.21 204.80 C 140.28 204.59 139.35 205.18 139.14 206.11 Z M 138.92 207.10 L 138.69 208.10 C 138.48 209.04 139.06 209.96 140.00 210.18 C 140.93 210.39 141.86 209.81 142.07 208.88 L 142.30 207.87 C 142.51 206.94 141.93 206.01 141.00 205.80 C 140.07 205.58 139.14 206.17 138.92 207.10 Z M 138.70 208.09 L 138.46 209.10 C 138.25 210.03 138.82 210.96 139.75 211.18 C 140.68 211.40 141.61 210.82 141.83 209.89 L 142.07 208.88 C 142.28 207.96 141.71 207.03 140.78 206.81 C 139.85 206.59 138.92 207.17 138.70 208.09 Z M 138.47 209.09 L 138.23 210.09 C 138.01 211.02 138.58 211.95 139.50 212.17 C 140.43 212.40 141.36 211.83 141.58 210.90 L 141.82 209.90 C 142.05 208.97 141.48 208.04 140.55 207.82 C 139.62 207.60 138.69 208.17 138.47 209.09 Z M 138.24 210.09 L 137.99 211.07 C 137.76 212.00 138.33 212.93 139.25 213.16 C 140.17 213.38 141.11 212.82 141.33 211.90 L 141.58 210.91 C 141.80 209.99 141.24 209.05 140.32 208.83 C 139.39 208.60 138.46 209.16 138.24 210.09 Z M 138.00 211.07 L 137.74 212.07 C 137.51 212.99 138.07 213.93 138.99 214.16 C 139.91 214.39 140.84 213.83 141.07 212.91 L 141.33 211.91 C 141.56 210.99 141.00 210.06 140.08 209.82 C 139.16 209.59 138.23 210.15 138.00 211.07 Z M 137.75 212.06 L 137.48 213.10 C 137.25 214.01 137.79 214.95 138.71 215.18 C 139.62 215.42 140.55 214.88 140.79 213.96 L 141.06 212.93 C 141.30 212.01 140.75 211.08 139.84 210.84 C 138.93 210.60 137.99 211.15 137.75 212.06 Z M 137.50 213.08 L 137.22 214.09 C 136.97 215.00 137.51 215.93 138.41 216.18 C 139.32 216.43 140.25 215.89 140.50 214.99 L 140.78 213.98 C 141.02 213.07 140.49 212.14 139.58 211.89 C 138.68 211.64 137.74 212.18 137.50 213.08 Z M 137.24 214.07 L 136.95 215.05 C 136.69 215.95 137.21 216.89 138.11 217.14 C 139.01 217.40 139.94 216.89 140.20 215.99 L 140.49 215.01 C 140.75 214.11 140.23 213.17 139.33 212.91 C 138.43 212.66 137.50 213.17 137.24 214.07 Z M 136.97 215.02 L 136.68 215.98 C 136.40 216.87 136.90 217.81 137.79 218.08 C 138.68 218.36 139.62 217.86 139.89 216.97 L 140.19 216.02 C 140.46 215.13 139.96 214.19 139.07 213.91 C 138.19 213.64 137.24 214.14 136.97 215.02 Z M 136.70 215.95 L 136.39 216.87 C 136.10 217.75 136.57 218.70 137.45 218.99 C 138.33 219.28 139.27 218.81 139.57 217.93 L 139.87 217.00 C 140.17 216.12 139.69 215.18 138.81 214.88 C 137.93 214.59 136.99 215.07 136.70 215.95 Z M 136.41 216.84 L 136.08 217.74 C 135.77 218.60 136.22 219.56 137.09 219.87 C 137.95 220.18 138.91 219.73 139.22 218.87 L 139.54 217.97 C 139.86 217.10 139.41 216.15 138.54 215.83 C 137.68 215.52 136.72 215.97 136.41 216.84 Z M 136.11 217.70 L 135.76 218.57 C 135.43 219.43 135.85 220.39 136.70 220.72 C 137.55 221.06 138.51 220.64 138.85 219.79 L 139.19 218.91 C 139.53 218.06 139.11 217.10 138.26 216.76 C 137.41 216.43 136.45 216.84 136.11 217.70 Z M 135.79 218.53 L 135.41 219.40 C 135.05 220.24 135.44 221.21 136.27 221.57 C 137.11 221.93 138.08 221.55 138.44 220.71 L 138.82 219.84 C 139.18 219.00 138.80 218.03 137.96 217.67 C 137.13 217.31 136.15 217.69 135.79 218.53 Z M 135.45 219.35 L 135.01 220.27 C 134.62 221.08 134.97 222.06 135.78 222.45 C 136.60 222.84 137.58 222.50 137.97 221.68 L 138.41 220.76 C 138.80 219.94 138.45 218.96 137.63 218.57 C 136.82 218.18 135.84 218.53 135.45 219.35 Z M 135.04 220.22 L 134.58 221.11 C 134.16 221.91 134.47 222.90 135.27 223.31 C 136.07 223.73 137.06 223.42 137.47 222.62 L 137.94 221.72 C 138.35 220.93 138.04 219.94 137.24 219.52 C 136.44 219.11 135.46 219.42 135.04 220.22 Z M 134.61 221.08 L 134.12 221.95 C 133.68 222.73 133.96 223.72 134.75 224.16 C 135.53 224.60 136.52 224.31 136.96 223.53 L 137.44 222.66 C 137.88 221.87 137.60 220.88 136.82 220.45 C 136.03 220.01 135.04 220.29 134.61 221.08 Z M 134.15 221.92 L 133.64 222.78 C 133.19 223.55 133.44 224.54 134.21 224.99 C 134.98 225.44 135.97 225.19 136.42 224.42 L 136.93 223.56 C 137.38 222.79 137.13 221.80 136.36 221.35 C 135.59 220.90 134.60 221.15 134.15 221.92 Z M 133.66 222.76 L 133.14 223.61 C 132.68 224.36 132.92 225.35 133.67 225.82 C 134.43 226.28 135.42 226.04 135.88 225.29 L 136.40 224.44 C 136.87 223.68 136.63 222.69 135.87 222.23 C 135.12 221.77 134.13 222.00 133.66 222.76 Z M 133.16 223.59 L 132.63 224.43 C 132.16 225.18 132.38 226.16 133.13 226.64 C 133.88 227.11 134.87 226.88 135.34 226.14 L 135.87 225.30 C 136.34 224.55 136.11 223.56 135.37 223.09 C 134.62 222.62 133.63 222.85 133.16 223.59 Z M 132.65 224.43 L 132.11 225.26 C 131.64 226.00 131.85 226.98 132.59 227.46 C 133.33 227.93 134.32 227.71 134.79 226.97 L 135.32 226.14 C 135.80 225.40 135.58 224.42 134.84 223.94 C 134.10 223.47 133.12 223.69 132.65 224.43 Z M 132.12 225.26 L 132.01 225.43 C 131.54 226.16 131.75 227.14 132.49 227.62 C 133.22 228.09 134.20 227.88 134.68 227.14 L 134.78 226.97 C 135.26 226.24 135.04 225.26 134.31 224.78 C 133.57 224.31 132.59 224.52 132.12 225.26 Z"
      fill="black"
      fill-rule="nonzero" /><path d="M 149.13 157.62 L 148.79 156.54 C 148.50 155.62 147.51 155.10 146.58 155.40 C 145.65 155.69 145.14 156.68 145.43 157.61 L 145.78 158.69 C 146.07 159.62 147.06 160.13 147.99 159.83 C 148.92 159.54 149.43 158.55 149.13 157.62 Z M 148.84 156.57 L 148.53 155.51 C 148.25 154.56 147.25 154.01 146.30 154.29 C 145.34 154.57 144.80 155.57 145.08 156.52 L 145.39 157.58 C 145.67 158.54 146.67 159.08 147.62 158.80 C 148.57 158.52 149.12 157.52 148.84 156.57 Z M 148.58 155.59 L 148.34 154.57 C 148.10 153.58 147.11 152.97 146.13 153.21 C 145.14 153.45 144.54 154.44 144.77 155.42 L 145.02 156.45 C 145.26 157.43 146.25 158.04 147.23 157.80 C 148.21 157.56 148.82 156.57 148.58 155.59 Z M 148.40 154.71 L 148.25 153.73 C 148.09 152.71 147.14 152.01 146.12 152.17 C 145.10 152.33 144.40 153.28 144.56 154.30 L 144.71 155.28 C 144.87 156.30 145.82 157.00 146.84 156.84 C 147.86 156.68 148.56 155.73 148.40 154.71 Z M 148.31 153.97 L 148.28 153.06 C 148.26 152.01 147.39 151.18 146.34 151.20 C 145.29 151.23 144.46 152.10 144.48 153.15 L 144.50 154.06 C 144.53 155.11 145.40 155.94 146.45 155.92 C 147.50 155.89 148.33 155.02 148.31 153.97 Z M 148.29 153.42 L 148.43 152.59 C 148.61 151.54 147.89 150.54 146.84 150.37 C 145.78 150.19 144.78 150.90 144.61 151.96 L 144.47 152.79 C 144.30 153.84 145.01 154.84 146.07 155.02 C 147.12 155.19 148.12 154.48 148.29 153.42 Z M 148.30 153.09 L 148.66 152.31 C 149.11 151.33 148.68 150.16 147.70 149.71 C 146.71 149.26 145.55 149.69 145.10 150.68 L 144.74 151.46 C 144.29 152.44 144.72 153.61 145.70 154.06 C 146.69 154.51 147.85 154.08 148.30 153.09 Z M 148.38 152.77 L 148.97 152.07 C 149.67 151.24 149.57 150.00 148.74 149.30 C 147.92 148.60 146.67 148.70 145.97 149.53 L 145.38 150.22 C 144.68 151.05 144.78 152.29 145.61 152.99 C 146.43 153.70 147.68 153.59 148.38 152.77 Z M 148.67 152.36 L 149.44 151.77 C 150.30 151.11 150.46 149.87 149.79 149.01 C 149.13 148.15 147.90 147.99 147.04 148.65 L 146.27 149.24 C 145.41 149.90 145.25 151.14 145.91 152.00 C 146.57 152.86 147.81 153.02 148.67 152.36 Z M 149.19 151.93 L 150.09 151.43 C 151.04 150.90 151.38 149.71 150.85 148.76 C 150.32 147.81 149.12 147.46 148.17 147.99 L 147.28 148.49 C 146.33 149.02 145.99 150.22 146.52 151.17 C 147.04 152.12 148.24 152.46 149.19 151.93 Z M 149.91 151.52 L 150.88 151.10 C 151.88 150.67 152.34 149.51 151.91 148.51 C 151.48 147.51 150.32 147.05 149.32 147.48 L 148.35 147.90 C 147.35 148.33 146.89 149.49 147.32 150.49 C 147.75 151.49 148.91 151.95 149.91 151.52 Z M 150.76 151.15 L 151.77 150.79 C 152.79 150.43 153.33 149.30 152.97 148.28 C 152.60 147.25 151.48 146.72 150.45 147.08 L 149.44 147.44 C 148.42 147.80 147.88 148.93 148.25 149.95 C 148.61 150.98 149.74 151.51 150.76 151.15 Z M 151.69 150.81 L 152.63 150.53 C 153.67 150.21 154.25 149.10 153.93 148.07 C 153.61 147.03 152.51 146.45 151.47 146.77 L 150.53 147.06 C 149.49 147.38 148.91 148.48 149.23 149.51 C 149.55 150.55 150.65 151.13 151.69 150.81 Z M 152.57 150.54 L 153.50 150.28 C 154.55 149.99 155.16 148.92 154.88 147.87 C 154.59 146.83 153.51 146.21 152.47 146.50 L 151.53 146.75 C 150.49 147.04 149.87 148.12 150.16 149.16 C 150.44 150.21 151.52 150.82 152.57 150.54 Z M 153.45 150.29 L 154.40 150.06 C 155.44 149.80 156.09 148.74 155.83 147.69 C 155.57 146.64 154.51 146.00 153.46 146.26 L 152.52 146.49 C 151.47 146.75 150.83 147.81 151.09 148.86 C 151.34 149.90 152.40 150.54 153.45 150.29 Z M 154.36 150.06 L 155.32 149.84 C 156.37 149.61 157.03 148.56 156.80 147.52 C 156.56 146.47 155.52 145.81 154.47 146.04 L 153.50 146.26 C 152.45 146.49 151.79 147.53 152.03 148.58 C 152.27 149.63 153.31 150.29 154.36 150.06 Z M 155.30 149.84 L 156.29 149.63 C 157.34 149.41 158.01 148.38 157.79 147.33 C 157.57 146.28 156.54 145.61 155.49 145.83 L 154.50 146.04 C 153.45 146.26 152.77 147.29 153.00 148.34 C 153.22 149.39 154.25 150.06 155.30 149.84 Z M 156.28 149.63 L 157.32 149.42 C 158.36 149.20 159.04 148.18 158.82 147.13 C 158.61 146.09 157.59 145.41 156.54 145.62 L 155.50 145.84 C 154.46 146.05 153.78 147.07 154.00 148.12 C 154.21 149.17 155.23 149.84 156.28 149.63 Z M 157.31 149.41 L 158.22 149.22 C 159.27 149.01 159.94 147.99 159.73 146.95 C 159.52 145.91 158.50 145.23 157.46 145.45 L 156.54 145.63 C 155.50 145.84 154.83 146.86 155.04 147.90 C 155.25 148.95 156.27 149.62 157.31 149.41 Z M 158.22 149.22 L 159.15 149.03 C 160.19 148.82 160.86 147.80 160.65 146.76 C 160.43 145.73 159.42 145.05 158.38 145.27 L 157.46 145.45 C 156.42 145.66 155.75 146.68 155.96 147.72 C 156.17 148.76 157.18 149.43 158.22 149.22 Z M 159.14 149.02 L 160.10 148.83 C 161.13 148.62 161.80 147.61 161.59 146.57 C 161.38 145.54 160.37 144.87 159.34 145.08 L 158.39 145.27 C 157.35 145.48 156.68 146.49 156.89 147.53 C 157.10 148.56 158.11 149.23 159.14 149.02 Z M 160.09 148.82 L 161.07 148.62 C 162.10 148.42 162.77 147.41 162.56 146.38 C 162.36 145.35 161.36 144.69 160.33 144.89 L 159.34 145.09 C 158.31 145.29 157.65 146.30 157.85 147.33 C 158.06 148.36 159.06 149.03 160.09 148.82 Z M 161.07 148.62 L 162.07 148.42 C 163.10 148.22 163.76 147.22 163.56 146.19 C 163.36 145.17 162.36 144.50 161.34 144.70 L 160.33 144.90 C 159.31 145.10 158.64 146.10 158.84 147.12 C 159.04 148.15 160.04 148.82 161.07 148.62 Z M 162.06 148.41 L 163.09 148.21 C 164.11 148.02 164.78 147.03 164.58 146.00 C 164.38 144.98 163.39 144.31 162.37 144.51 L 161.34 144.71 C 160.32 144.90 159.65 145.89 159.85 146.92 C 160.05 147.94 161.04 148.61 162.06 148.41 Z M 163.08 148.21 L 164.12 148.01 C 165.14 147.82 165.81 146.84 165.61 145.82 C 165.42 144.80 164.44 144.13 163.42 144.32 L 162.38 144.52 C 161.36 144.71 160.69 145.69 160.88 146.71 C 161.07 147.73 162.06 148.40 163.08 148.21 Z M 164.11 148.00 L 165.11 147.82 C 166.12 147.63 166.80 146.66 166.61 145.64 C 166.42 144.63 165.45 143.96 164.43 144.14 L 163.43 144.33 C 162.42 144.51 161.74 145.49 161.93 146.50 C 162.12 147.52 163.09 148.19 164.11 148.00 Z M 165.10 147.81 L 166.05 147.64 C 167.06 147.46 167.73 146.50 167.55 145.49 C 167.37 144.47 166.41 143.80 165.40 143.98 L 164.44 144.15 C 163.43 144.33 162.76 145.30 162.94 146.31 C 163.12 147.32 164.08 147.99 165.10 147.81 Z M 166.04 147.64 L 167.00 147.47 C 168.01 147.30 168.68 146.34 168.51 145.33 C 168.34 144.32 167.38 143.65 166.37 143.82 L 165.41 143.99 C 164.40 144.16 163.72 145.12 163.90 146.13 C 164.07 147.13 165.03 147.81 166.04 147.64 Z M 166.99 147.46 L 167.96 147.30 C 168.97 147.13 169.64 146.18 169.48 145.18 C 169.31 144.17 168.36 143.50 167.35 143.67 L 166.38 143.83 C 165.38 144.00 164.70 144.95 164.87 145.95 C 165.04 146.95 165.99 147.63 166.99 147.46 Z M 167.95 147.29 L 168.94 147.13 C 169.94 146.97 170.61 146.03 170.45 145.03 C 170.29 144.03 169.35 143.35 168.35 143.51 L 167.36 143.67 C 166.36 143.83 165.69 144.78 165.85 145.78 C 166.01 146.78 166.95 147.45 167.95 147.29 Z M 168.93 147.12 L 169.92 146.97 C 170.92 146.81 171.60 145.88 171.44 144.88 C 171.28 143.89 170.35 143.21 169.35 143.36 L 168.36 143.52 C 167.36 143.68 166.68 144.61 166.84 145.61 C 167.00 146.60 167.93 147.28 168.93 147.12 Z M 169.91 146.96 L 170.92 146.81 C 171.91 146.66 172.59 145.73 172.44 144.74 C 172.29 143.75 171.36 143.07 170.37 143.22 L 169.36 143.37 C 168.37 143.52 167.69 144.45 167.84 145.44 C 167.99 146.43 168.92 147.11 169.91 146.96 Z M 170.91 146.80 L 171.93 146.65 C 172.91 146.50 173.60 145.59 173.45 144.60 C 173.31 143.61 172.39 142.93 171.40 143.07 L 170.38 143.23 C 169.39 143.37 168.71 144.29 168.86 145.28 C 169.00 146.26 169.92 146.94 170.91 146.80 Z M 171.92 146.64 L 172.94 146.50 C 173.92 146.36 174.60 145.45 174.46 144.46 C 174.32 143.48 173.41 142.80 172.43 142.94 L 171.41 143.08 C 170.43 143.22 169.74 144.13 169.88 145.12 C 170.02 146.10 170.93 146.78 171.92 146.64 Z M 172.93 146.49 L 173.89 146.36 C 174.87 146.22 175.56 145.32 175.42 144.34 C 175.29 143.36 174.38 142.68 173.40 142.81 L 172.44 142.94 C 171.46 143.08 170.78 143.98 170.91 144.96 C 171.05 145.94 171.95 146.62 172.93 146.49 Z M 173.89 146.35 L 174.86 146.22 C 175.84 146.09 176.52 145.19 176.39 144.22 C 176.26 143.24 175.37 142.56 174.39 142.69 L 173.41 142.82 C 172.44 142.95 171.75 143.84 171.88 144.82 C 172.01 145.79 172.91 146.48 173.89 146.35 Z M 174.85 146.21 L 175.84 146.08 C 176.81 145.96 177.49 145.07 177.37 144.10 C 177.24 143.13 176.36 142.44 175.38 142.57 L 174.40 142.69 C 173.43 142.82 172.74 143.71 172.87 144.68 C 172.99 145.65 173.88 146.34 174.85 146.21 Z M 175.83 146.08 L 176.82 145.95 C 177.79 145.83 178.47 144.95 178.35 143.99 C 178.23 143.02 177.35 142.33 176.39 142.45 L 175.39 142.57 C 174.43 142.69 173.74 143.58 173.86 144.54 C 173.98 145.51 174.86 146.20 175.83 146.08 Z M 176.81 145.95 L 177.81 145.83 C 178.77 145.71 179.46 144.84 179.35 143.88 C 179.23 142.91 178.36 142.22 177.39 142.34 L 176.39 142.46 C 175.43 142.57 174.74 143.45 174.86 144.41 C 174.97 145.37 175.85 146.06 176.81 145.95 Z M 177.80 145.82 L 178.80 145.71 C 179.76 145.60 180.45 144.73 180.34 143.77 C 180.23 142.81 179.36 142.12 178.40 142.23 L 177.40 142.35 C 176.44 142.46 175.75 143.32 175.86 144.28 C 175.97 145.24 176.84 145.93 177.80 145.82 Z M 178.79 145.70 L 179.80 145.59 C 180.75 145.48 181.44 144.62 181.34 143.67 C 181.23 142.71 180.38 142.02 179.42 142.13 L 178.41 142.24 C 177.46 142.34 176.77 143.20 176.87 144.16 C 176.98 145.11 177.84 145.80 178.79 145.70 Z M 179.79 145.58 L 180.80 145.48 C 181.75 145.38 182.44 144.52 182.34 143.57 C 182.24 142.62 181.39 141.93 180.44 142.03 L 179.43 142.14 C 178.48 142.23 177.79 143.09 177.89 144.04 C 177.99 144.99 178.84 145.68 179.79 145.58 Z M 180.79 145.47 L 181.81 145.37 C 182.75 145.27 183.45 144.43 183.35 143.48 C 183.26 142.53 182.41 141.84 181.47 141.94 L 180.45 142.04 C 179.50 142.13 178.81 142.98 178.90 143.92 C 179.00 144.87 179.84 145.56 180.79 145.47 Z M 181.80 145.36 L 182.85 145.26 C 183.79 145.17 184.49 144.34 184.40 143.39 C 184.31 142.45 183.47 141.76 182.53 141.84 L 181.48 141.94 C 180.53 142.03 179.84 142.87 179.93 143.81 C 180.02 144.76 180.85 145.45 181.80 145.36 Z M 182.84 145.26 L 183.88 145.16 C 184.82 145.08 185.52 144.25 185.44 143.31 C 185.35 142.37 184.52 141.68 183.58 141.76 L 182.54 141.85 C 181.60 141.93 180.90 142.76 180.99 143.70 C 181.07 144.64 181.90 145.34 182.84 145.26 Z M 183.87 145.16 L 184.91 145.07 C 185.85 145.00 186.54 144.17 186.47 143.24 C 186.39 142.30 185.57 141.60 184.63 141.68 L 183.59 141.77 C 182.66 141.84 181.96 142.66 182.04 143.60 C 182.11 144.54 182.94 145.23 183.87 145.16 Z M 184.90 145.07 L 185.92 144.99 C 186.85 144.92 187.55 144.10 187.48 143.17 C 187.41 142.24 186.59 141.54 185.66 141.61 L 184.64 141.69 C 183.71 141.76 183.01 142.57 183.08 143.51 C 183.15 144.44 183.97 145.14 184.90 145.07 Z M 185.91 144.98 L 186.91 144.91 C 187.84 144.84 188.54 144.04 188.48 143.11 C 188.41 142.18 187.60 141.48 186.67 141.55 L 185.67 141.62 C 184.74 141.68 184.04 142.49 184.11 143.42 C 184.17 144.35 184.98 145.05 185.91 144.98 Z M 186.90 144.90 L 187.88 144.84 C 188.81 144.78 189.51 143.98 189.45 143.06 C 189.39 142.13 188.59 141.43 187.66 141.49 L 186.69 141.55 C 185.76 141.61 185.06 142.41 185.12 143.34 C 185.18 144.26 185.98 144.96 186.90 144.90 Z M 187.87 144.83 L 188.82 144.78 C 189.74 144.73 190.44 143.94 190.39 143.01 C 190.34 142.09 189.55 141.39 188.63 141.44 L 187.68 141.50 C 186.75 141.55 186.05 142.34 186.10 143.26 C 186.16 144.18 186.95 144.89 187.87 144.83 Z M 188.81 144.77 L 189.72 144.73 C 190.64 144.68 191.35 143.90 191.30 142.98 C 191.26 142.06 190.47 141.36 189.56 141.40 L 188.64 141.45 C 187.72 141.50 187.01 142.28 187.06 143.19 C 187.11 144.11 187.89 144.82 188.81 144.77 Z M 189.71 144.72 L 190.74 144.68 C 191.65 144.64 192.36 143.87 192.32 142.95 C 192.29 142.04 191.51 141.33 190.60 141.37 L 189.57 141.41 C 188.66 141.45 187.95 142.22 187.99 143.13 C 188.02 144.05 188.80 144.76 189.71 144.72 Z M 190.71 144.67 L 191.78 144.64 C 192.69 144.62 193.40 143.86 193.38 142.95 C 193.36 142.04 192.60 141.32 191.69 141.35 L 190.62 141.37 C 189.71 141.40 189.00 142.16 189.02 143.07 C 189.05 143.98 189.80 144.69 190.71 144.67 Z M 191.74 144.63 L 192.76 144.63 C 193.66 144.62 194.39 143.89 194.39 142.98 C 194.39 142.07 193.65 141.34 192.74 141.35 L 191.72 141.35 C 190.82 141.36 190.09 142.10 190.09 143.00 C 190.10 143.91 190.83 144.64 191.74 144.63 Z M 192.71 144.62 L 193.69 144.64 C 194.59 144.67 195.34 143.95 195.37 143.05 C 195.39 142.15 194.68 141.40 193.78 141.38 L 192.79 141.36 C 191.89 141.33 191.14 142.05 191.12 142.95 C 191.10 143.85 191.81 144.60 192.71 144.62 Z M 193.63 144.63 L 194.59 144.69 C 195.49 144.75 196.26 144.07 196.31 143.17 C 196.37 142.28 195.69 141.51 194.80 141.45 L 193.84 141.39 C 192.94 141.34 192.17 142.02 192.11 142.91 C 192.06 143.81 192.74 144.58 193.63 144.63 Z M 194.52 144.68 L 195.47 144.78 C 196.36 144.88 197.15 144.23 197.25 143.35 C 197.34 142.46 196.70 141.66 195.81 141.57 L 194.87 141.47 C 193.98 141.37 193.18 142.01 193.09 142.90 C 192.99 143.79 193.63 144.58 194.52 144.68 Z M 195.39 144.76 L 196.34 144.91 C 197.21 145.05 198.03 144.45 198.17 143.57 C 198.31 142.69 197.71 141.87 196.83 141.74 L 195.89 141.59 C 195.01 141.45 194.19 142.05 194.05 142.93 C 193.92 143.80 194.51 144.62 195.39 144.76 Z M 196.26 144.89 L 197.19 145.08 C 198.06 145.27 198.91 144.71 199.09 143.85 C 199.27 142.98 198.71 142.13 197.85 141.95 L 196.91 141.76 C 196.05 141.58 195.20 142.13 195.02 143.00 C 194.84 143.86 195.39 144.71 196.26 144.89 Z M 197.13 145.06 L 198.07 145.30 C 198.93 145.52 199.79 145.01 200.01 144.15 C 200.23 143.30 199.71 142.43 198.86 142.21 L 197.92 141.97 C 197.06 141.76 196.19 142.27 195.98 143.12 C 195.76 143.98 196.27 144.85 197.13 145.06 Z M 198.02 145.28 L 198.97 145.56 C 199.81 145.81 200.70 145.33 200.94 144.48 C 201.19 143.64 200.71 142.76 199.86 142.51 L 198.91 142.23 C 198.07 141.99 197.19 142.47 196.94 143.31 C 196.69 144.16 197.18 145.04 198.02 145.28 Z M 198.93 145.55 L 199.89 145.85 C 200.72 146.12 201.61 145.66 201.88 144.83 C 202.15 144.00 201.69 143.11 200.86 142.84 L 199.90 142.53 C 199.07 142.26 198.18 142.72 197.91 143.55 C 197.64 144.38 198.10 145.28 198.93 145.55 Z M 199.86 145.84 L 200.82 146.17 C 201.65 146.45 202.54 146.01 202.83 145.19 C 203.11 144.36 202.67 143.47 201.85 143.18 L 200.89 142.85 C 200.06 142.57 199.16 143.01 198.88 143.83 C 198.60 144.66 199.04 145.55 199.86 145.84 Z M 200.80 146.16 L 201.77 146.50 C 202.58 146.80 203.49 146.37 203.78 145.55 C 204.07 144.73 203.65 143.83 202.83 143.54 L 201.87 143.19 C 201.05 142.90 200.15 143.33 199.85 144.14 C 199.56 144.96 199.98 145.86 200.80 146.16 Z M 201.76 146.49 L 202.70 146.84 C 203.51 147.14 204.41 146.72 204.71 145.90 C 205.01 145.09 204.59 144.19 203.78 143.89 L 202.84 143.55 C 202.02 143.25 201.12 143.67 200.82 144.48 C 200.53 145.30 200.94 146.20 201.76 146.49 Z"
      fill="black"
      fill-rule="nonzero" /><path d="M 67.17 253.12 L 66.13 252.31 C 65.36 251.72 64.26 251.86 63.67 252.63 C 63.08 253.39 63.22 254.49 63.98 255.08 L 65.02 255.89 C 65.79 256.48 66.89 256.34 67.48 255.58 C 68.07 254.81 67.93 253.71 67.17 253.12 Z M 66.23 252.34 L 65.33 251.57 C 64.58 250.92 63.44 251.01 62.80 251.76 C 62.15 252.51 62.24 253.65 62.99 254.29 L 63.88 255.06 C 64.63 255.71 65.77 255.62 66.42 254.87 C 67.06 254.12 66.98 252.98 66.23 252.34 Z M 65.55 251.73 L 64.96 251.04 C 64.29 250.27 63.13 250.18 62.36 250.84 C 61.59 251.51 61.50 252.67 62.17 253.44 L 62.77 254.13 C 63.43 254.90 64.59 254.99 65.36 254.32 C 66.13 253.66 66.22 252.50 65.55 251.73 Z M 65.39 251.76 L 65.23 251.18 C 64.97 250.17 63.94 249.57 62.93 249.83 C 61.92 250.10 61.32 251.13 61.59 252.14 L 61.74 252.72 C 62.00 253.72 63.04 254.33 64.04 254.06 C 65.05 253.80 65.65 252.76 65.39 251.76 Z M 64.88 252.90 L 65.19 252.53 C 65.87 251.72 65.77 250.50 64.96 249.82 C 64.15 249.14 62.94 249.24 62.26 250.05 L 61.94 250.42 C 61.26 251.23 61.36 252.44 62.17 253.12 C 62.98 253.81 64.19 253.71 64.88 252.90 Z M 64.44 253.09 L 65.06 252.85 C 66.05 252.45 66.54 251.33 66.15 250.33 C 65.75 249.33 64.63 248.84 63.63 249.24 L 63.01 249.48 C 62.01 249.88 61.52 251.00 61.92 252.00 C 62.31 253.00 63.44 253.49 64.44 253.09 Z M 64.73 252.96 L 65.61 252.79 C 66.67 252.57 67.36 251.54 67.14 250.48 C 66.93 249.42 65.90 248.73 64.84 248.95 L 63.96 249.12 C 62.90 249.33 62.21 250.36 62.42 251.43 C 62.63 252.49 63.66 253.17 64.73 252.96 Z M 65.44 252.83 L 66.53 252.71 C 67.61 252.59 68.39 251.61 68.27 250.53 C 68.15 249.44 67.18 248.66 66.09 248.78 L 65.01 248.90 C 63.92 249.02 63.14 250.00 63.26 251.08 C 63.38 252.17 64.36 252.95 65.44 252.83 Z M 66.44 252.73 L 67.67 252.65 C 68.77 252.58 69.61 251.64 69.54 250.54 C 69.47 249.44 68.52 248.61 67.42 248.68 L 66.19 248.76 C 65.09 248.83 64.25 249.77 64.32 250.87 C 64.39 251.97 65.34 252.80 66.44 252.73 Z M 67.62 252.67 L 68.95 252.62 C 70.06 252.58 70.93 251.65 70.88 250.54 C 70.84 249.43 69.91 248.57 68.80 248.61 L 67.47 248.66 C 66.36 248.70 65.50 249.63 65.54 250.74 C 65.58 251.85 66.52 252.71 67.62 252.67 Z M 68.93 252.63 L 70.02 252.61 C 71.14 252.58 72.02 251.65 71.99 250.54 C 71.96 249.42 71.03 248.54 69.92 248.57 L 68.83 248.60 C 67.71 248.63 66.83 249.55 66.86 250.67 C 66.89 251.78 67.82 252.66 68.93 252.63 Z M 70.01 252.61 L 71.05 252.59 C 72.17 252.57 73.06 251.65 73.04 250.53 C 73.02 249.41 72.09 248.53 70.98 248.55 L 69.93 248.57 C 68.82 248.59 67.93 249.51 67.95 250.63 C 67.97 251.74 68.89 252.63 70.01 252.61 Z M 71.04 252.59 L 72.09 252.58 C 73.20 252.56 74.10 251.65 74.08 250.53 C 74.07 249.41 73.15 248.52 72.03 248.53 L 70.99 248.54 C 69.87 248.56 68.98 249.48 68.99 250.60 C 69.01 251.71 69.92 252.61 71.04 252.59 Z M 72.08 252.58 L 73.11 252.57 C 74.23 252.56 75.13 251.65 75.12 250.53 C 75.11 249.41 74.19 248.51 73.07 248.52 L 72.04 248.53 C 70.92 248.54 70.02 249.45 70.03 250.57 C 70.04 251.69 70.96 252.59 72.08 252.58 Z M 73.10 252.57 L 74.11 252.57 C 75.23 252.56 76.14 251.65 76.13 250.53 C 76.12 249.41 75.21 248.51 74.09 248.51 L 73.08 248.52 C 71.96 248.52 71.05 249.44 71.06 250.56 C 71.07 251.68 71.98 252.58 73.10 252.57 Z M 74.11 252.57 L 75.09 252.57 C 76.21 252.57 77.12 251.65 77.11 250.53 C 77.11 249.41 76.20 248.50 75.08 248.51 L 74.10 248.51 C 72.97 248.51 72.07 249.42 72.07 250.55 C 72.07 251.67 72.98 252.57 74.11 252.57 Z M 75.08 252.57 L 76.03 252.57 C 77.15 252.57 78.06 251.66 78.06 250.53 C 78.06 249.41 77.15 248.50 76.02 248.50 L 75.08 248.50 C 73.96 248.50 73.05 249.42 73.05 250.54 C 73.05 251.66 73.96 252.57 75.08 252.57 Z M 76.02 252.57 L 76.96 252.57 C 78.09 252.57 79.00 251.66 79.00 250.54 C 79.00 249.41 78.08 248.50 76.96 248.50 L 76.02 248.50 C 74.90 248.50 73.99 249.41 73.99 250.54 C 73.99 251.66 74.90 252.57 76.02 252.57 Z M 76.96 252.57 L 78.06 252.57 C 79.19 252.57 80.10 251.66 80.10 250.53 C 80.10 249.41 79.18 248.50 78.06 248.50 L 76.96 248.50 C 75.83 248.50 74.92 249.41 74.92 250.54 C 74.92 251.66 75.84 252.57 76.96 252.57 Z M 78.07 252.57 L 79.09 252.57 C 80.22 252.57 81.13 251.65 81.13 250.53 C 81.12 249.40 80.21 248.49 79.08 248.49 L 78.05 248.50 C 76.93 248.50 76.02 249.42 76.02 250.54 C 76.03 251.67 76.94 252.58 78.07 252.57 Z M 79.11 252.57 L 80.08 252.56 C 81.21 252.55 82.11 251.63 82.11 250.51 C 82.10 249.38 81.18 248.48 80.05 248.49 L 79.07 248.49 C 77.95 248.50 77.04 249.42 77.05 250.55 C 77.06 251.68 77.98 252.58 79.11 252.57 Z M 80.10 252.56 L 81.05 252.55 C 82.18 252.53 83.08 251.60 83.06 250.48 C 83.04 249.35 82.11 248.45 80.99 248.47 L 80.03 248.49 C 78.91 248.50 78.01 249.43 78.03 250.56 C 78.05 251.68 78.97 252.58 80.10 252.56 Z M 81.07 252.55 L 82.02 252.53 C 83.14 252.50 84.03 251.56 84.00 250.43 C 83.98 249.31 83.04 248.42 81.91 248.45 L 80.97 248.47 C 79.84 248.50 78.95 249.44 78.98 250.56 C 79.01 251.69 79.94 252.58 81.07 252.55 Z M 82.04 252.53 L 82.98 252.49 C 84.11 252.45 84.99 251.50 84.95 250.37 C 84.90 249.25 83.96 248.37 82.83 248.41 L 81.89 248.45 C 80.76 248.49 79.88 249.43 79.92 250.56 C 79.97 251.69 80.91 252.57 82.04 252.53 Z M 83.00 252.49 L 83.93 252.44 C 85.06 252.39 85.93 251.43 85.87 250.31 C 85.82 249.18 84.86 248.31 83.74 248.37 L 82.81 248.41 C 81.68 248.46 80.81 249.42 80.87 250.55 C 80.92 251.67 81.88 252.54 83.00 252.49 Z M 83.95 252.44 L 84.91 252.39 C 86.03 252.32 86.89 251.36 86.83 250.23 C 86.77 249.11 85.80 248.25 84.67 248.31 L 83.72 248.37 C 82.59 248.43 81.73 249.40 81.79 250.52 C 81.86 251.65 82.82 252.51 83.95 252.44 Z M 84.92 252.39 L 85.91 252.32 C 87.04 252.25 87.89 251.28 87.82 250.15 C 87.74 249.03 86.77 248.18 85.65 248.25 L 84.66 248.31 C 83.53 248.39 82.68 249.36 82.75 250.48 C 82.83 251.61 83.80 252.46 84.92 252.39 Z M 85.92 252.32 L 86.94 252.25 C 88.07 252.17 88.92 251.19 88.84 250.07 C 88.76 248.94 87.78 248.10 86.65 248.18 L 85.63 248.25 C 84.51 248.33 83.66 249.31 83.74 250.43 C 83.82 251.56 84.80 252.40 85.92 252.32 Z M 86.95 252.25 L 88.00 252.17 C 89.13 252.09 89.97 251.10 89.89 249.98 C 89.80 248.86 88.82 248.01 87.70 248.10 L 86.64 248.18 C 85.52 248.26 84.68 249.24 84.76 250.37 C 84.85 251.49 85.83 252.34 86.95 252.25 Z M 88.01 252.17 L 89.07 252.09 C 90.20 252.00 91.04 251.01 90.95 249.89 C 90.86 248.76 89.88 247.92 88.75 248.01 L 87.69 248.10 C 86.56 248.19 85.72 249.17 85.81 250.30 C 85.90 251.42 86.89 252.26 88.01 252.17 Z M 89.08 252.09 L 90.00 252.01 C 91.13 251.92 91.96 250.93 91.87 249.81 C 91.78 248.68 90.79 247.85 89.67 247.94 L 88.75 248.01 C 87.62 248.11 86.78 249.09 86.88 250.22 C 86.97 251.34 87.96 252.18 89.08 252.09 Z M 90.01 252.01 L 90.95 251.93 C 92.08 251.84 92.91 250.85 92.82 249.72 C 92.72 248.60 91.73 247.76 90.61 247.86 L 89.66 247.94 C 88.54 248.03 87.71 249.02 87.80 250.15 C 87.89 251.27 88.88 252.10 90.01 252.01 Z M 90.96 251.93 L 91.93 251.85 C 93.05 251.75 93.88 250.76 93.79 249.64 C 93.69 248.51 92.70 247.68 91.58 247.78 L 90.61 247.86 C 89.48 247.96 88.65 248.95 88.75 250.07 C 88.84 251.19 89.83 252.03 90.96 251.93 Z M 91.93 251.85 L 92.92 251.76 C 94.05 251.66 94.88 250.67 94.78 249.55 C 94.68 248.42 93.69 247.59 92.56 247.69 L 91.57 247.78 C 90.45 247.87 89.62 248.87 89.72 249.99 C 89.81 251.11 90.81 251.95 91.93 251.85 Z M 92.93 251.76 L 93.94 251.67 C 95.07 251.57 95.90 250.57 95.79 249.45 C 95.69 248.33 94.70 247.50 93.58 247.60 L 92.56 247.69 C 91.44 247.79 90.61 248.78 90.71 249.91 C 90.81 251.03 91.80 251.86 92.93 251.76 Z M 93.95 251.67 L 94.99 251.57 C 96.11 251.47 96.94 250.48 96.83 249.35 C 96.73 248.23 95.74 247.40 94.61 247.50 L 93.57 247.60 C 92.45 247.70 91.62 248.70 91.73 249.82 C 91.83 250.94 92.82 251.77 93.95 251.67 Z M 94.99 251.57 L 96.05 251.47 C 97.18 251.37 98.00 250.37 97.90 249.25 C 97.79 248.13 96.80 247.30 95.67 247.40 L 94.61 247.50 C 93.49 247.61 92.66 248.60 92.76 249.73 C 92.87 250.85 93.87 251.68 94.99 251.57 Z M 96.05 251.47 L 97.04 251.38 C 98.16 251.27 98.99 250.28 98.88 249.15 C 98.78 248.03 97.78 247.21 96.65 247.31 L 95.67 247.40 C 94.55 247.51 93.72 248.51 93.83 249.63 C 93.93 250.75 94.93 251.58 96.05 251.47 Z M 97.04 251.38 L 97.98 251.29 C 99.10 251.18 99.92 250.18 99.81 249.06 C 99.71 247.94 98.71 247.11 97.59 247.22 L 96.65 247.31 C 95.53 247.42 94.71 248.42 94.81 249.54 C 94.92 250.66 95.92 251.49 97.04 251.38 Z M 97.98 251.29 L 98.93 251.19 C 100.06 251.08 100.88 250.08 100.76 248.96 C 100.65 247.84 99.65 247.02 98.53 247.13 L 97.58 247.22 C 96.46 247.33 95.64 248.33 95.75 249.46 C 95.86 250.58 96.86 251.40 97.98 251.29 Z M 98.94 251.19 L 99.91 251.09 C 101.03 250.98 101.85 249.98 101.73 248.86 C 101.62 247.74 100.62 246.92 99.50 247.03 L 98.53 247.13 C 97.41 247.24 96.59 248.25 96.70 249.37 C 96.82 250.49 97.82 251.31 98.94 251.19 Z M 99.91 251.09 L 100.90 250.99 C 102.02 250.87 102.84 249.87 102.72 248.75 C 102.60 247.63 101.60 246.81 100.48 246.93 L 99.49 247.03 C 98.37 247.15 97.56 248.15 97.67 249.28 C 97.79 250.40 98.79 251.21 99.91 251.09 Z M 100.91 250.99 L 101.91 250.88 C 103.03 250.76 103.84 249.75 103.72 248.63 C 103.60 247.51 102.59 246.70 101.47 246.82 L 100.47 246.93 C 99.35 247.05 98.54 248.06 98.66 249.18 C 98.78 250.30 99.79 251.11 100.91 250.99 Z M 101.92 250.88 L 102.94 250.76 C 104.06 250.64 104.87 249.63 104.74 248.51 C 104.62 247.39 103.61 246.58 102.49 246.71 L 101.47 246.83 C 100.35 246.95 99.54 247.96 99.67 249.08 C 99.79 250.20 100.80 251.00 101.92 250.88 Z M 102.95 250.76 L 104.00 250.64 C 105.11 250.51 105.91 249.49 105.78 248.38 C 105.65 247.26 104.64 246.46 103.52 246.59 L 102.48 246.71 C 101.36 246.84 100.56 247.86 100.69 248.97 C 100.82 250.09 101.84 250.89 102.95 250.76 Z M 104.01 250.64 L 105.07 250.51 C 106.18 250.37 106.98 249.35 106.84 248.24 C 106.71 247.12 105.69 246.33 104.57 246.46 L 103.51 246.59 C 102.39 246.73 101.60 247.74 101.74 248.86 C 101.87 249.98 102.89 250.77 104.01 250.64 Z M 105.08 250.50 L 106.04 250.38 C 107.16 250.24 107.95 249.22 107.81 248.10 C 107.66 246.99 106.65 246.20 105.53 246.34 L 104.56 246.46 C 103.45 246.61 102.66 247.63 102.80 248.74 C 102.94 249.86 103.96 250.65 105.08 250.50 Z M 106.05 250.38 L 106.98 250.26 C 108.10 250.11 108.88 249.09 108.73 247.97 C 108.59 246.86 107.56 246.07 106.45 246.22 L 105.52 246.34 C 104.41 246.49 103.62 247.51 103.77 248.63 C 103.91 249.74 104.94 250.53 106.05 250.38 Z M 106.99 250.26 L 107.93 250.13 C 109.05 249.98 109.83 248.95 109.68 247.84 C 109.52 246.72 108.50 245.94 107.39 246.09 L 106.44 246.22 C 105.33 246.37 104.55 247.40 104.70 248.51 C 104.85 249.63 105.88 250.41 106.99 250.26 Z M 107.94 250.13 L 108.90 249.99 C 110.01 249.84 110.79 248.81 110.63 247.70 C 110.48 246.58 109.45 245.81 108.34 245.96 L 107.38 246.10 C 106.27 246.25 105.49 247.28 105.64 248.39 C 105.80 249.50 106.83 250.28 107.94 250.13 Z M 108.90 249.99 L 109.88 249.85 C 110.99 249.69 111.76 248.66 111.60 247.55 C 111.44 246.44 110.41 245.67 109.30 245.83 L 108.33 245.97 C 107.22 246.12 106.45 247.15 106.60 248.26 C 106.76 249.38 107.79 250.15 108.90 249.99 Z M 109.88 249.85 L 110.87 249.71 C 111.98 249.54 112.75 248.51 112.59 247.40 C 112.43 246.29 111.40 245.52 110.29 245.68 L 109.30 245.83 C 108.19 245.99 107.42 247.02 107.58 248.13 C 107.74 249.24 108.77 250.01 109.88 249.85 Z M 110.88 249.70 L 111.88 249.56 C 112.99 249.39 113.75 248.36 113.59 247.25 C 113.43 246.14 112.39 245.37 111.28 245.54 L 110.28 245.69 C 109.17 245.85 108.40 246.88 108.57 247.99 C 108.73 249.10 109.77 249.87 110.88 249.70 Z M 111.88 249.55 L 112.90 249.40 C 114.01 249.23 114.77 248.20 114.61 247.09 C 114.44 245.98 113.40 245.22 112.30 245.39 L 111.28 245.54 C 110.17 245.71 109.41 246.74 109.57 247.85 C 109.74 248.96 110.77 249.72 111.88 249.55 Z M 112.91 249.40 L 113.94 249.24 C 115.05 249.07 115.81 248.04 115.64 246.93 C 115.47 245.82 114.43 245.06 113.33 245.23 L 112.29 245.39 C 111.18 245.56 110.42 246.59 110.59 247.70 C 110.76 248.81 111.80 249.57 112.91 249.40 Z M 113.94 249.24 L 114.99 249.08 C 116.10 248.91 116.86 247.87 116.69 246.76 C 116.51 245.65 115.48 244.90 114.37 245.07 L 113.32 245.23 C 112.21 245.40 111.46 246.44 111.63 247.54 C 111.80 248.65 112.84 249.41 113.94 249.24 Z M 114.99 249.08 L 116.04 248.91 C 117.15 248.74 117.90 247.70 117.73 246.60 C 117.56 245.49 116.52 244.73 115.41 244.91 L 114.37 245.07 C 113.26 245.24 112.51 246.28 112.68 247.39 C 112.85 248.49 113.89 249.25 114.99 249.08 Z M 116.04 248.91 L 117.01 248.76 C 118.12 248.58 118.87 247.55 118.70 246.44 C 118.52 245.33 117.49 244.58 116.38 244.75 L 115.41 244.91 C 114.31 245.08 113.55 246.12 113.73 247.22 C 113.90 248.33 114.94 249.08 116.04 248.91 Z M 117.01 248.76 L 117.99 248.60 C 119.10 248.42 119.85 247.39 119.68 246.28 C 119.50 245.18 118.46 244.42 117.36 244.60 L 116.38 244.76 C 115.27 244.93 114.52 245.97 114.70 247.07 C 114.87 248.18 115.91 248.93 117.01 248.76 Z M 118.00 248.60 L 118.98 248.44 C 120.09 248.26 120.84 247.22 120.66 246.12 C 120.49 245.02 119.45 244.27 118.34 244.44 L 117.36 244.60 C 116.25 244.78 115.50 245.82 115.68 246.92 C 115.86 248.02 116.89 248.78 118.00 248.60 Z M 118.99 248.44 L 119.98 248.28 C 121.08 248.10 121.83 247.06 121.65 245.96 C 121.48 244.86 120.44 244.11 119.34 244.28 L 118.34 244.44 C 117.24 244.62 116.49 245.66 116.67 246.76 C 116.85 247.87 117.88 248.62 118.99 248.44 Z M 119.98 248.28 L 120.98 248.11 C 122.08 247.93 122.83 246.89 122.65 245.79 C 122.47 244.69 121.43 243.94 120.33 244.12 L 119.33 244.29 C 118.23 244.47 117.48 245.50 117.66 246.61 C 117.84 247.71 118.88 248.46 119.98 248.28 Z M 120.98 248.11 L 121.98 247.95 C 123.08 247.76 123.83 246.73 123.65 245.62 C 123.47 244.52 122.43 243.78 121.33 243.96 L 120.33 244.12 C 119.23 244.31 118.48 245.35 118.66 246.45 C 118.84 247.55 119.88 248.29 120.98 248.11 Z M 121.99 247.94 L 122.98 247.78 C 124.08 247.60 124.83 246.56 124.64 245.46 C 124.46 244.36 123.42 243.61 122.32 243.80 L 121.32 243.96 C 120.22 244.14 119.48 245.18 119.66 246.28 C 119.85 247.38 120.89 248.13 121.99 247.94 Z M 122.99 247.78 L 123.98 247.61 C 125.08 247.42 125.82 246.38 125.64 245.28 C 125.45 244.19 124.41 243.45 123.31 243.63 L 122.32 243.80 C 121.22 243.98 120.48 245.02 120.66 246.12 C 120.85 247.22 121.89 247.96 122.99 247.78 Z M 123.99 247.61 L 124.98 247.44 C 126.07 247.25 126.81 246.21 126.63 245.11 C 126.44 244.02 125.40 243.28 124.30 243.46 L 123.31 243.63 C 122.21 243.82 121.47 244.86 121.66 245.96 C 121.85 247.06 122.89 247.79 123.99 247.61 Z M 124.98 247.44 L 125.96 247.27 C 127.06 247.08 127.80 246.04 127.61 244.94 C 127.42 243.84 126.38 243.11 125.28 243.30 L 124.30 243.47 C 123.20 243.65 122.46 244.70 122.65 245.79 C 122.84 246.89 123.88 247.63 124.98 247.44 Z M 125.97 247.27 L 126.94 247.10 C 128.04 246.91 128.77 245.86 128.58 244.77 C 128.39 243.67 127.34 242.94 126.25 243.13 L 125.28 243.30 C 124.18 243.49 123.45 244.53 123.64 245.63 C 123.83 246.72 124.87 247.46 125.97 247.27 Z M 126.94 247.09 L 127.95 246.92 C 129.04 246.72 129.77 245.68 129.58 244.59 C 129.39 243.49 128.34 242.76 127.25 242.95 L 126.24 243.13 C 125.15 243.32 124.42 244.37 124.61 245.46 C 124.81 246.56 125.85 247.29 126.94 247.09 Z M 127.95 246.91 L 128.99 246.73 C 130.08 246.53 130.81 245.49 130.62 244.40 C 130.42 243.30 129.37 242.57 128.28 242.77 L 127.24 242.96 C 126.15 243.15 125.42 244.20 125.62 245.29 C 125.82 246.38 126.86 247.11 127.95 246.91 Z M 128.99 246.73 L 130.02 246.54 C 131.11 246.34 131.83 245.30 131.64 244.21 C 131.44 243.11 130.39 242.39 129.30 242.59 L 128.28 242.77 C 127.19 242.97 126.46 244.02 126.66 245.11 C 126.86 246.20 127.90 246.93 128.99 246.73 Z M 130.02 246.54 L 131.03 246.35 C 132.12 246.15 132.84 245.11 132.64 244.02 C 132.44 242.92 131.39 242.20 130.30 242.40 L 129.29 242.59 C 128.20 242.79 127.48 243.84 127.68 244.93 C 127.88 246.02 128.93 246.74 130.02 246.54 Z M 131.03 246.35 L 132.03 246.17 C 133.12 245.96 133.84 244.91 133.63 243.83 C 133.43 242.74 132.38 242.02 131.29 242.22 L 130.30 242.41 C 129.21 242.61 128.49 243.66 128.69 244.75 C 128.90 245.84 129.94 246.55 131.03 246.35 Z M 132.03 246.16 L 133.02 245.98 C 134.11 245.77 134.82 244.72 134.62 243.64 C 134.41 242.55 133.36 241.83 132.27 242.04 L 131.29 242.22 C 130.20 242.43 129.49 243.48 129.69 244.56 C 129.90 245.65 130.95 246.37 132.03 246.16 Z M 133.02 245.97 L 133.99 245.79 C 135.08 245.58 135.79 244.53 135.59 243.45 C 135.38 242.36 134.33 241.65 133.24 241.85 L 132.27 242.04 C 131.18 242.25 130.47 243.30 130.68 244.38 C 130.89 245.47 131.93 246.18 133.02 245.97 Z M 134.00 245.79 L 134.96 245.60 C 136.04 245.39 136.75 244.34 136.54 243.26 C 136.33 242.17 135.29 241.46 134.20 241.67 L 133.24 241.86 C 132.15 242.07 131.44 243.12 131.65 244.20 C 131.86 245.29 132.91 246.00 134.00 245.79 Z M 134.96 245.60 L 135.91 245.41 C 137.00 245.20 137.70 244.15 137.49 243.07 C 137.28 241.98 136.23 241.28 135.15 241.49 L 134.20 241.67 C 133.11 241.89 132.41 242.94 132.62 244.02 C 132.83 245.10 133.88 245.81 134.96 245.60 Z M 135.92 245.41 L 136.86 245.23 C 137.94 245.01 138.65 243.96 138.43 242.88 C 138.22 241.80 137.17 241.09 136.09 241.31 L 135.14 241.49 C 134.06 241.70 133.36 242.75 133.57 243.84 C 133.78 244.92 134.83 245.62 135.92 245.41 Z M 136.86 245.22 L 137.79 245.04 C 138.88 244.82 139.58 243.77 139.36 242.69 C 139.15 241.61 138.10 240.91 137.02 241.12 L 136.08 241.31 C 135.00 241.52 134.30 242.57 134.51 243.65 C 134.73 244.74 135.78 245.44 136.86 245.22 Z M 137.80 245.04 L 138.80 244.83 C 139.88 244.62 140.58 243.57 140.36 242.49 C 140.15 241.41 139.10 240.71 138.02 240.92 L 137.01 241.12 C 135.93 241.34 135.23 242.39 135.45 243.47 C 135.67 244.55 136.72 245.25 137.80 245.04 Z M 138.80 244.83 L 139.82 244.63 C 140.89 244.41 141.59 243.36 141.37 242.28 C 141.16 241.20 140.10 240.50 139.03 240.72 L 138.01 240.93 C 136.93 241.14 136.24 242.20 136.45 243.27 C 136.67 244.35 137.72 245.05 138.80 244.83 Z M 139.82 244.63 L 140.82 244.42 C 141.90 244.20 142.59 243.15 142.38 242.07 C 142.16 240.99 141.10 240.30 140.03 240.52 L 139.02 240.72 C 137.95 240.94 137.25 241.99 137.47 243.07 C 137.69 244.15 138.74 244.85 139.82 244.63 Z M 140.82 244.42 L 141.82 244.22 C 142.89 244.00 143.59 242.94 143.37 241.87 C 143.15 240.79 142.10 240.10 141.02 240.32 L 140.02 240.52 C 138.95 240.74 138.25 241.79 138.47 242.87 C 138.69 243.95 139.75 244.64 140.82 244.42 Z M 141.82 244.21 L 142.80 244.01 C 143.88 243.79 144.57 242.74 144.35 241.66 C 144.13 240.59 143.08 239.89 142.00 240.12 L 141.02 240.32 C 139.94 240.54 139.25 241.59 139.47 242.67 C 139.69 243.74 140.74 244.44 141.82 244.21 Z M 142.80 244.01 L 143.78 243.81 C 144.85 243.59 145.55 242.53 145.32 241.46 C 145.10 240.39 144.05 239.69 142.98 239.92 L 142.00 240.12 C 140.93 240.34 140.23 241.39 140.46 242.47 C 140.68 243.54 141.73 244.23 142.80 244.01 Z M 143.78 243.81 L 144.75 243.61 C 145.82 243.38 146.51 242.33 146.29 241.26 C 146.07 240.19 145.01 239.50 143.94 239.72 L 142.98 239.92 C 141.90 240.14 141.21 241.19 141.43 242.26 C 141.66 243.34 142.71 244.03 143.78 243.81 Z M 144.75 243.60 L 145.70 243.41 C 146.78 243.18 147.47 242.13 147.24 241.06 C 147.02 239.99 145.97 239.30 144.90 239.52 L 143.94 239.72 C 142.87 239.94 142.18 240.99 142.40 242.07 C 142.62 243.14 143.67 243.83 144.75 243.60 Z M 145.70 243.40 L 146.65 243.21 C 147.72 242.98 148.41 241.94 148.19 240.86 C 147.97 239.79 146.92 239.10 145.84 239.33 L 144.90 239.52 C 143.83 239.75 143.14 240.79 143.36 241.87 C 143.58 242.94 144.63 243.63 145.70 243.40 Z M 146.65 243.21 L 147.60 243.01 C 148.67 242.79 149.36 241.74 149.13 240.67 C 148.91 239.60 147.86 238.91 146.79 239.13 L 145.85 239.33 C 144.77 239.55 144.09 240.60 144.31 241.67 C 144.53 242.74 145.58 243.43 146.65 243.21 Z M 147.60 243.01 L 148.61 242.80 C 149.68 242.58 150.37 241.53 150.15 240.46 C 149.93 239.39 148.88 238.70 147.81 238.92 L 146.79 239.13 C 145.72 239.35 145.04 240.40 145.26 241.47 C 145.48 242.54 146.53 243.23 147.60 243.01 Z M 148.61 242.80 L 149.61 242.59 C 150.68 242.37 151.37 241.32 151.15 240.26 C 150.93 239.19 149.89 238.50 148.82 238.72 L 147.81 238.92 C 146.74 239.14 146.05 240.19 146.27 241.26 C 146.49 242.33 147.54 243.02 148.61 242.80 Z M 149.61 242.59 L 150.61 242.39 C 151.68 242.17 152.37 241.13 152.15 240.06 C 151.93 238.99 150.89 238.30 149.82 238.51 L 148.82 238.72 C 147.75 238.93 147.06 239.98 147.28 241.05 C 147.50 242.12 148.54 242.81 149.61 242.59 Z M 150.60 242.39 L 151.59 242.19 C 152.66 241.97 153.35 240.93 153.13 239.86 C 152.92 238.80 151.88 238.10 150.81 238.32 L 149.82 238.52 C 148.76 238.73 148.06 239.77 148.28 240.84 C 148.49 241.91 149.53 242.60 150.60 242.39 Z M 151.58 242.19 L 152.56 242.00 C 153.63 241.79 154.32 240.75 154.11 239.68 C 153.90 238.61 152.87 237.91 151.80 238.13 L 150.82 238.32 C 149.75 238.53 149.05 239.56 149.26 240.63 C 149.47 241.70 150.51 242.40 151.58 242.19 Z M 152.55 242.00 L 153.52 241.81 C 154.59 241.60 155.29 240.57 155.08 239.50 C 154.88 238.43 153.84 237.73 152.78 237.94 L 151.81 238.13 C 150.74 238.33 150.04 239.36 150.24 240.43 C 150.45 241.50 151.48 242.20 152.55 242.00 Z M 153.51 241.81 L 154.47 241.63 C 155.54 241.43 156.24 240.40 156.05 239.33 C 155.85 238.26 154.82 237.56 153.75 237.76 L 152.79 237.94 C 151.72 238.14 151.01 239.17 151.21 240.24 C 151.41 241.30 152.44 242.01 153.51 241.81 Z M 154.46 241.63 L 155.41 241.46 C 156.48 241.27 157.19 240.24 157.00 239.17 C 156.81 238.10 155.79 237.39 154.72 237.59 L 153.76 237.76 C 152.69 237.95 151.98 238.97 152.17 240.04 C 152.37 241.11 153.39 241.82 154.46 241.63 Z M 155.40 241.46 L 156.37 241.29 C 157.44 241.11 158.15 240.09 157.97 239.02 C 157.78 237.95 156.77 237.23 155.70 237.42 L 154.73 237.59 C 153.66 237.77 152.94 238.79 153.13 239.86 C 153.31 240.93 154.33 241.64 155.40 241.46 Z M 156.35 241.29 L 157.36 241.13 C 158.43 240.95 159.15 239.94 158.98 238.87 C 158.80 237.80 157.79 237.08 156.72 237.25 L 155.71 237.42 C 154.64 237.59 153.92 238.60 154.09 239.68 C 154.27 240.75 155.28 241.47 156.35 241.29 Z M 157.34 241.13 L 158.34 240.97 C 159.42 240.80 160.15 239.80 159.98 238.73 C 159.81 237.66 158.81 236.93 157.74 237.09 L 156.73 237.25 C 155.66 237.42 154.93 238.42 155.10 239.49 C 155.27 240.57 156.27 241.30 157.34 241.13 Z M 158.33 240.97 L 159.33 240.82 C 160.40 240.66 161.14 239.66 160.98 238.59 C 160.81 237.52 159.82 236.78 158.74 236.94 L 157.75 237.09 C 156.68 237.25 155.94 238.25 156.10 239.32 C 156.26 240.39 157.26 241.13 158.33 240.97 Z M 159.31 240.82 L 160.30 240.68 C 161.38 240.53 162.12 239.53 161.97 238.46 C 161.81 237.39 160.82 236.65 159.75 236.80 L 158.76 236.94 C 157.69 237.10 156.94 238.09 157.10 239.16 C 157.25 240.23 158.24 240.98 159.31 240.82 Z M 160.29 240.68 L 161.28 240.55 C 162.35 240.40 163.10 239.41 162.95 238.34 C 162.80 237.27 161.82 236.52 160.74 236.66 L 159.76 236.80 C 158.69 236.95 157.94 237.94 158.09 239.01 C 158.23 240.08 159.22 240.83 160.29 240.68 Z M 161.27 240.54 L 162.25 240.41 C 163.32 240.27 164.08 239.29 163.93 238.22 C 163.79 237.15 162.81 236.39 161.74 236.53 L 160.75 236.66 C 159.68 236.81 158.93 237.79 159.07 238.86 C 159.21 239.93 160.20 240.69 161.27 240.54 Z M 162.24 240.41 L 163.22 240.29 C 164.29 240.15 165.05 239.17 164.91 238.10 C 164.77 237.03 163.79 236.27 162.72 236.41 L 161.74 236.53 C 160.67 236.67 159.92 237.65 160.05 238.72 C 160.19 239.79 161.17 240.55 162.24 240.41 Z M 163.21 240.29 L 164.19 240.17 C 165.26 240.03 166.02 239.06 165.88 237.99 C 165.75 236.91 164.77 236.15 163.70 236.29 L 162.73 236.41 C 161.66 236.54 160.90 237.52 161.03 238.59 C 161.17 239.66 162.14 240.42 163.21 240.29 Z M 164.18 240.17 L 165.16 240.05 C 166.23 239.92 167.00 238.94 166.87 237.87 C 166.74 236.80 165.76 236.04 164.69 236.17 L 163.71 236.29 C 162.64 236.42 161.88 237.39 162.01 238.46 C 162.14 239.53 163.11 240.30 164.18 240.17 Z M 165.16 240.05 L 166.14 239.93 C 167.21 239.80 167.98 238.83 167.85 237.76 C 167.72 236.69 166.75 235.93 165.68 236.05 L 164.70 236.17 C 163.63 236.30 162.86 237.27 162.99 238.34 C 163.12 239.41 164.09 240.17 165.16 240.05 Z M 166.13 239.93 L 167.12 239.82 C 168.19 239.69 168.95 238.73 168.83 237.66 C 168.71 236.59 167.74 235.82 166.67 235.94 L 165.69 236.05 C 164.62 236.18 163.85 237.14 163.97 238.21 C 164.10 239.28 165.06 240.05 166.13 239.93 Z M 167.11 239.82 L 168.09 239.71 C 169.16 239.59 169.93 238.63 169.82 237.56 C 169.70 236.49 168.74 235.72 167.67 235.84 L 166.68 235.94 C 165.61 236.06 164.84 237.02 164.96 238.09 C 165.07 239.16 166.04 239.93 167.11 239.82 Z M 168.08 239.71 L 169.07 239.61 C 170.14 239.49 170.92 238.54 170.81 237.47 C 170.70 236.40 169.74 235.62 168.67 235.73 L 167.68 235.84 C 166.61 235.95 165.83 236.90 165.94 237.97 C 166.06 239.04 167.01 239.82 168.08 239.71 Z M 169.06 239.61 L 170.06 239.51 C 171.13 239.40 171.91 238.45 171.81 237.38 C 171.70 236.31 170.75 235.53 169.68 235.64 L 168.68 235.73 C 167.61 235.84 166.83 236.79 166.94 237.86 C 167.04 238.93 167.99 239.71 169.06 239.61 Z M 170.05 239.51 L 171.05 239.42 C 172.12 239.32 172.91 238.37 172.81 237.30 C 172.72 236.24 171.77 235.45 170.70 235.54 L 169.69 235.64 C 168.63 235.73 167.84 236.68 167.93 237.75 C 168.03 238.82 168.98 239.60 170.05 239.51 Z M 171.04 239.42 L 172.06 239.33 C 173.13 239.24 173.92 238.30 173.83 237.23 C 173.74 236.16 172.80 235.37 171.73 235.46 L 170.71 235.55 C 169.65 235.63 168.85 236.57 168.94 237.64 C 169.03 238.71 169.97 239.51 171.04 239.42 Z M 172.04 239.33 L 173.05 239.25 C 174.12 239.17 174.92 238.24 174.83 237.17 C 174.75 236.10 173.82 235.30 172.75 235.38 L 171.75 235.46 C 170.68 235.54 169.88 236.47 169.96 237.54 C 170.04 238.61 170.97 239.41 172.04 239.33 Z M 173.03 239.25 L 174.04 239.18 C 175.11 239.11 175.91 238.18 175.84 237.11 C 175.77 236.04 174.84 235.24 173.77 235.31 L 172.76 235.38 C 171.69 235.46 170.89 236.38 170.96 237.45 C 171.04 238.52 171.96 239.33 173.03 239.25 Z M 174.03 239.18 L 175.04 239.12 C 176.11 239.05 176.92 238.13 176.85 237.06 C 176.78 235.99 175.86 235.18 174.79 235.25 L 173.78 235.31 C 172.71 235.38 171.90 236.30 171.97 237.37 C 172.04 238.44 172.96 239.25 174.03 239.18 Z M 175.03 239.12 L 176.04 239.06 C 177.11 239.00 177.93 238.08 177.86 237.02 C 177.80 235.95 176.89 235.13 175.82 235.19 L 174.81 235.25 C 173.74 235.31 172.92 236.23 172.98 237.29 C 173.04 238.36 173.96 239.18 175.03 239.12 Z M 176.03 239.06 L 177.04 239.01 C 178.11 238.95 178.93 238.04 178.87 236.98 C 178.82 235.91 177.91 235.09 176.84 235.14 L 175.83 235.19 C 174.76 235.25 173.94 236.16 174.00 237.22 C 174.05 238.29 174.96 239.11 176.03 239.06 Z M 177.03 239.01 L 178.03 238.96 C 179.10 238.91 179.92 238.01 179.88 236.94 C 179.83 235.87 178.92 235.05 177.85 235.10 L 176.85 235.14 C 175.78 235.19 174.96 236.09 175.01 237.16 C 175.06 238.23 175.96 239.06 177.03 239.01 Z M 178.02 238.96 L 179.01 238.92 C 180.08 238.88 180.91 237.98 180.87 236.91 C 180.82 235.85 179.92 235.02 178.86 235.06 L 177.87 235.10 C 176.80 235.14 175.97 236.04 176.01 237.11 C 176.05 238.17 176.95 239.00 178.02 238.96 Z M 179.00 238.92 L 179.98 238.89 C 181.04 238.85 181.88 237.96 181.84 236.89 C 181.81 235.82 180.91 234.99 179.84 235.03 L 178.87 235.06 C 177.80 235.09 176.97 235.99 177.00 237.06 C 177.04 238.12 177.93 238.96 179.00 238.92 Z M 179.96 238.89 L 180.97 238.86 C 182.04 238.83 182.88 237.94 182.85 236.87 C 182.82 235.81 181.93 234.97 180.86 235.00 L 179.86 235.03 C 178.79 235.06 177.95 235.94 177.98 237.01 C 178.01 238.08 178.90 238.92 179.96 238.89 Z M 180.96 238.86 L 182.01 238.84 C 183.08 238.81 183.92 237.93 183.90 236.86 C 183.88 235.80 182.99 234.95 181.93 234.98 L 180.87 235.00 C 179.81 235.02 178.96 235.91 178.99 236.97 C 179.01 238.04 179.89 238.88 180.96 238.86 Z M 182.00 238.83 L 183.03 238.82 C 184.10 238.80 184.95 237.92 184.93 236.86 C 184.91 235.79 184.04 234.94 182.97 234.96 L 181.94 234.98 C 180.87 234.99 180.03 235.87 180.04 236.94 C 180.06 238.00 180.94 238.85 182.00 238.83 Z M 183.02 238.82 L 184.03 238.81 C 185.10 238.79 185.95 237.92 185.94 236.86 C 185.93 235.79 185.05 234.94 183.99 234.95 L 182.98 234.96 C 181.92 234.97 181.06 235.85 181.07 236.91 C 181.09 237.97 181.96 238.83 183.02 238.82 Z M 184.02 238.80 L 185.02 238.80 C 186.08 238.79 186.94 237.92 186.93 236.86 C 186.92 235.79 186.05 234.94 184.99 234.95 L 184.00 234.95 C 182.93 234.96 182.08 235.83 182.09 236.89 C 182.09 237.96 182.96 238.81 184.02 238.80 Z M 185.01 238.80 L 185.98 238.79 C 187.05 238.79 187.91 237.92 187.90 236.86 C 187.90 235.80 187.03 234.94 185.97 234.94 L 185.00 234.95 C 183.93 234.95 183.07 235.82 183.08 236.88 C 183.08 237.94 183.95 238.80 185.01 238.80 Z M 185.98 238.79 L 186.94 238.79 C 188.00 238.79 188.86 237.93 188.86 236.86 C 188.86 235.80 188.00 234.94 186.94 234.94 L 185.97 234.94 C 184.91 234.95 184.05 235.81 184.05 236.87 C 184.06 237.93 184.92 238.79 185.98 238.79 Z M 186.94 238.79 L 187.89 238.79 C 188.95 238.79 189.81 237.93 189.81 236.87 C 189.81 235.80 188.95 234.94 187.89 234.94 L 186.94 234.94 C 185.88 234.94 185.02 235.81 185.02 236.87 C 185.02 237.93 185.88 238.79 186.94 238.79 Z M 187.89 238.79 L 188.91 238.79 C 189.97 238.79 190.83 237.93 190.83 236.87 C 190.83 235.81 189.97 234.95 188.91 234.95 L 187.89 234.95 C 186.83 234.95 185.97 235.80 185.97 236.87 C 185.97 237.93 186.83 238.79 187.89 238.79 Z M 188.90 238.79 L 189.92 238.79 C 190.98 238.79 191.84 237.93 191.84 236.87 C 191.84 235.81 190.98 234.95 189.92 234.95 L 188.91 234.95 C 187.85 234.95 186.99 235.80 186.99 236.86 C 186.99 237.92 187.84 238.78 188.90 238.79 Z M 189.91 238.79 L 190.91 238.79 C 191.97 238.80 192.84 237.95 192.84 236.89 C 192.85 235.83 192.00 234.96 190.94 234.96 L 189.93 234.95 C 188.87 234.94 188.01 235.80 188.00 236.86 C 188.00 237.92 188.85 238.78 189.91 238.79 Z M 190.90 238.79 L 191.90 238.80 C 192.96 238.82 193.83 237.97 193.84 236.91 C 193.85 235.85 193.01 234.98 191.95 234.97 L 190.95 234.96 C 189.89 234.95 189.02 235.79 189.01 236.85 C 189.00 237.91 189.85 238.78 190.90 238.79 Z M 191.89 238.80 L 192.88 238.82 C 193.93 238.84 194.81 238.00 194.83 236.95 C 194.85 235.89 194.01 235.01 192.96 234.99 L 191.96 234.97 C 190.91 234.95 190.03 235.79 190.01 236.85 C 189.99 237.91 190.83 238.78 191.89 238.80 Z M 192.86 238.82 L 193.84 238.85 C 194.90 238.88 195.78 238.05 195.81 237.00 C 195.85 235.94 195.02 235.06 193.96 235.03 L 192.98 235.00 C 191.92 234.96 191.04 235.79 191.00 236.85 C 190.97 237.90 191.80 238.79 192.86 238.82 Z M 193.82 238.85 L 194.80 238.89 C 195.86 238.93 196.75 238.12 196.79 237.06 C 196.84 236.01 196.02 235.12 194.97 235.07 L 193.98 235.03 C 192.93 234.98 192.04 235.80 191.99 236.85 C 191.95 237.91 192.77 238.80 193.82 238.85 Z M 194.77 238.89 L 195.79 238.94 C 196.84 239.01 197.74 238.20 197.80 237.15 C 197.86 236.10 197.06 235.19 196.01 235.13 L 195.00 235.07 C 193.94 235.01 193.04 235.82 192.98 236.87 C 192.92 237.92 193.72 238.83 194.77 238.89 Z M 195.75 238.94 L 196.76 239.02 C 197.81 239.10 198.73 238.31 198.81 237.26 C 198.89 236.21 198.10 235.29 197.05 235.21 L 196.04 235.14 C 194.99 235.06 194.07 235.85 193.99 236.90 C 193.92 237.95 194.70 238.86 195.75 238.94 Z M 196.73 239.01 L 197.73 239.11 C 198.77 239.20 199.70 238.43 199.80 237.38 C 199.90 236.34 199.13 235.41 198.08 235.31 L 197.08 235.22 C 196.03 235.12 195.10 235.89 195.01 236.94 C 194.91 237.98 195.68 238.91 196.73 239.01 Z M 197.69 239.10 L 198.68 239.21 C 199.73 239.33 200.67 238.58 200.79 237.54 C 200.91 236.49 200.16 235.55 199.11 235.43 L 198.12 235.32 C 197.07 235.20 196.13 235.95 196.01 236.99 C 195.89 238.04 196.64 238.98 197.69 239.10 Z M 198.64 239.21 L 199.62 239.34 C 200.66 239.48 201.62 238.75 201.77 237.71 C 201.91 236.67 201.18 235.71 200.14 235.57 L 199.15 235.44 C 198.11 235.29 197.15 236.02 197.01 237.06 C 196.87 238.10 197.60 239.06 198.64 239.21 Z M 199.58 239.33 L 200.55 239.49 C 201.59 239.66 202.57 238.95 202.73 237.92 C 202.90 236.88 202.20 235.90 201.16 235.74 L 200.18 235.58 C 199.15 235.41 198.17 236.12 198.00 237.15 C 197.84 238.19 198.54 239.16 199.58 239.33 Z M 200.50 239.48 L 201.49 239.67 C 202.52 239.86 203.52 239.18 203.71 238.15 C 203.91 237.12 203.23 236.13 202.20 235.93 L 201.21 235.75 C 200.18 235.55 199.18 236.23 198.99 237.26 C 198.80 238.29 199.47 239.29 200.50 239.48 Z M 201.44 239.65 L 202.45 239.87 C 203.47 240.09 204.49 239.44 204.71 238.42 C 204.93 237.39 204.28 236.38 203.25 236.16 L 202.25 235.94 C 201.22 235.72 200.21 236.37 199.99 237.40 C 199.77 238.42 200.42 239.43 201.44 239.65 Z M 202.40 239.86 L 203.40 240.10 C 204.41 240.35 205.44 239.72 205.69 238.70 C 205.93 237.69 205.31 236.66 204.29 236.41 L 203.30 236.17 C 202.28 235.92 201.25 236.55 201.01 237.57 C 200.76 238.59 201.38 239.61 202.40 239.86 Z M 203.35 240.09 L 204.33 240.35 C 205.34 240.62 206.38 240.02 206.65 239.01 C 206.92 237.99 206.32 236.95 205.31 236.68 L 204.33 236.42 C 203.32 236.15 202.28 236.75 202.01 237.77 C 201.74 238.78 202.34 239.82 203.35 240.09 Z M 204.29 240.34 L 205.24 240.61 C 206.25 240.91 207.30 240.33 207.59 239.32 C 207.88 238.31 207.30 237.26 206.30 236.97 L 205.34 236.69 C 204.34 236.40 203.28 236.98 202.99 237.99 C 202.70 239.00 203.28 240.05 204.29 240.34 Z M 205.21 240.60 L 206.14 240.89 C 207.14 241.20 208.20 240.64 208.51 239.64 C 208.82 238.64 208.26 237.58 207.26 237.27 L 206.33 236.98 C 205.33 236.67 204.27 237.23 203.96 238.23 C 203.65 239.23 204.21 240.29 205.21 240.60 Z M 206.11 240.88 L 207.03 241.18 C 208.02 241.51 209.10 240.97 209.42 239.97 C 209.75 238.98 209.21 237.90 208.21 237.58 L 207.29 237.28 C 206.29 236.95 205.22 237.49 204.90 238.49 C 204.57 239.48 205.11 240.56 206.11 240.88 Z M 207.00 241.17 L 207.97 241.51 C 208.96 241.85 210.04 241.33 210.38 240.34 C 210.73 239.35 210.20 238.27 209.21 237.92 L 208.24 237.59 C 207.25 237.25 206.17 237.77 205.83 238.76 C 205.49 239.75 206.01 240.83 207.00 241.17 Z M 207.94 241.50 L 208.89 241.84 C 209.87 242.20 210.96 241.69 211.32 240.71 C 211.68 239.72 211.17 238.64 210.18 238.28 L 209.24 237.93 C 208.25 237.58 207.17 238.08 206.81 239.07 C 206.45 240.05 206.96 241.14 207.94 241.50 Z M 208.86 241.83 L 209.79 242.19 C 210.77 242.56 211.86 242.07 212.24 241.09 C 212.61 240.11 212.12 239.01 211.14 238.64 L 210.21 238.29 C 209.23 237.91 208.14 238.41 207.76 239.38 C 207.39 240.36 207.88 241.46 208.86 241.83 Z M 209.76 242.18 L 210.68 242.54 C 211.65 242.93 212.75 242.45 213.14 241.48 C 213.53 240.50 213.05 239.40 212.08 239.02 L 211.16 238.65 C 210.19 238.26 209.09 238.74 208.70 239.71 C 208.31 240.69 208.79 241.79 209.76 242.18 Z M 210.66 242.53 L 211.57 242.91 C 212.54 243.31 213.64 242.84 214.04 241.88 C 214.44 240.91 213.98 239.80 213.01 239.40 L 212.10 239.02 C 211.13 238.62 210.03 239.09 209.63 240.05 C 209.23 241.02 209.69 242.13 210.66 242.53 Z M 211.55 242.90 L 212.44 243.28 C 213.41 243.69 214.52 243.24 214.93 242.28 C 215.34 241.31 214.89 240.20 213.93 239.79 L 213.03 239.41 C 212.07 239.00 210.96 239.45 210.55 240.41 C 210.14 241.37 210.58 242.49 211.55 242.90 Z M 212.42 243.27 L 213.30 243.66 C 214.26 244.08 215.38 243.65 215.80 242.69 C 216.22 241.73 215.79 240.61 214.83 240.19 L 213.95 239.80 C 212.99 239.38 211.88 239.81 211.45 240.77 C 211.03 241.72 211.46 242.84 212.42 243.27 Z M 213.26 243.64 L 214.15 244.05 C 215.09 244.50 216.22 244.09 216.67 243.14 C 217.11 242.19 216.70 241.07 215.75 240.62 L 214.87 240.21 C 213.92 239.76 212.79 240.17 212.35 241.12 C 211.91 242.07 212.31 243.19 213.26 243.64 Z M 214.10 244.03 L 214.99 244.48 C 215.92 244.95 217.06 244.57 217.53 243.64 C 218.00 242.70 217.62 241.57 216.69 241.09 L 215.80 240.65 C 214.87 240.18 213.73 240.55 213.26 241.48 C 212.79 242.42 213.16 243.56 214.10 244.03 Z M 214.93 244.44 L 215.82 244.93 C 216.73 245.44 217.88 245.10 218.39 244.19 C 218.89 243.27 218.56 242.12 217.64 241.62 L 216.75 241.13 C 215.83 240.62 214.68 240.96 214.18 241.87 C 213.68 242.79 214.01 243.94 214.93 244.44 Z M 215.75 244.89 L 216.64 245.43 C 217.53 245.97 218.70 245.69 219.24 244.80 C 219.78 243.90 219.49 242.74 218.60 242.20 L 217.71 241.66 C 216.82 241.12 215.65 241.40 215.11 242.29 C 214.57 243.19 214.86 244.35 215.75 244.89 Z M 216.57 245.39 L 217.40 245.94 C 218.26 246.52 219.44 246.29 220.02 245.42 C 220.60 244.55 220.37 243.38 219.50 242.80 L 218.67 242.24 C 217.80 241.66 216.63 241.90 216.05 242.76 C 215.47 243.63 215.70 244.81 216.57 245.39 Z M 217.33 245.89 L 218.10 246.46 C 218.95 247.07 220.13 246.89 220.74 246.05 C 221.36 245.20 221.18 244.02 220.33 243.41 L 219.56 242.84 C 218.72 242.23 217.54 242.41 216.92 243.25 C 216.31 244.09 216.49 245.28 217.33 245.89 Z M 218.05 246.41 L 218.82 247.02 C 219.63 247.67 220.82 247.53 221.47 246.71 C 222.11 245.89 221.98 244.70 221.16 244.06 L 220.39 243.45 C 219.57 242.80 218.38 242.94 217.74 243.76 C 217.09 244.58 217.23 245.77 218.05 246.41 Z M 218.76 246.98 L 219.52 247.62 C 220.32 248.30 221.51 248.20 222.18 247.41 C 222.86 246.61 222.76 245.42 221.97 244.75 L 221.21 244.10 C 220.42 243.43 219.22 243.52 218.55 244.32 C 217.87 245.11 217.97 246.30 218.76 246.98 Z M 219.48 247.58 L 220.23 248.26 C 221.00 248.96 222.19 248.91 222.89 248.14 C 223.59 247.37 223.54 246.18 222.77 245.48 L 222.02 244.79 C 221.25 244.09 220.05 244.15 219.35 244.92 C 218.65 245.68 218.71 246.88 219.48 247.58 Z M 220.18 248.22 L 220.92 248.94 C 221.67 249.66 222.86 249.65 223.59 248.90 C 224.31 248.16 224.30 246.97 223.55 246.24 L 222.81 245.52 C 222.07 244.79 220.87 244.81 220.15 245.56 C 219.42 246.30 219.44 247.49 220.18 248.22 Z M 220.88 248.90 L 221.60 249.65 C 222.32 250.40 223.52 250.42 224.26 249.70 C 225.01 248.97 225.04 247.78 224.32 247.03 L 223.59 246.28 C 222.87 245.53 221.68 245.51 220.93 246.23 C 220.18 246.95 220.16 248.15 220.88 248.90 Z M 221.56 249.60 L 222.25 250.37 C 222.95 251.14 224.14 251.20 224.91 250.50 C 225.68 249.80 225.74 248.61 225.05 247.84 L 224.35 247.08 C 223.66 246.31 222.47 246.25 221.70 246.94 C 220.92 247.64 220.87 248.83 221.56 249.60 Z M 222.22 250.33 L 222.88 251.11 C 223.56 251.90 224.75 251.99 225.54 251.31 C 226.33 250.64 226.42 249.45 225.75 248.66 L 225.08 247.88 C 224.41 247.09 223.22 247.00 222.43 247.67 C 221.64 248.35 221.54 249.53 222.22 250.33 Z M 222.85 251.07 L 223.50 251.86 C 224.15 252.67 225.33 252.80 226.14 252.14 C 226.95 251.49 227.08 250.30 226.42 249.50 L 225.78 248.70 C 225.12 247.89 223.94 247.77 223.13 248.42 C 222.32 249.07 222.20 250.26 222.85 251.07 Z M 223.47 251.83 L 224.09 252.63 C 224.72 253.45 225.90 253.61 226.72 252.98 C 227.55 252.34 227.70 251.16 227.07 250.34 L 226.45 249.53 C 225.82 248.71 224.64 248.55 223.81 249.19 C 222.99 249.82 222.83 251.00 223.47 251.83 Z M 224.06 252.60 L 224.65 253.40 C 225.26 254.24 226.44 254.42 227.28 253.81 C 228.12 253.20 228.30 252.02 227.69 251.18 L 227.10 250.37 C 226.48 249.53 225.30 249.35 224.47 249.97 C 223.63 250.58 223.45 251.76 224.06 252.60 Z M 224.63 253.37 L 225.19 254.17 C 225.78 255.03 226.96 255.24 227.81 254.64 C 228.66 254.05 228.87 252.87 228.27 252.02 L 227.71 251.22 C 227.12 250.36 225.94 250.15 225.09 250.75 C 224.24 251.34 224.03 252.52 224.63 253.37 Z M 225.16 254.14 L 225.69 254.94 C 226.27 255.80 227.44 256.04 228.30 255.46 C 229.17 254.88 229.40 253.72 228.83 252.85 L 228.30 252.06 C 227.72 251.19 226.55 250.96 225.69 251.53 C 224.82 252.11 224.59 253.27 225.16 254.14 Z M 225.67 254.90 L 226.22 255.76 C 226.77 256.64 227.94 256.90 228.81 256.35 C 229.69 255.79 229.95 254.63 229.40 253.75 L 228.85 252.89 C 228.29 252.01 227.13 251.75 226.25 252.30 C 225.38 252.86 225.12 254.02 225.67 254.90 Z M 226.20 255.73 L 226.74 256.61 C 227.27 257.50 228.43 257.78 229.32 257.24 C 230.20 256.71 230.48 255.55 229.95 254.67 L 229.41 253.78 C 228.88 252.90 227.72 252.61 226.83 253.15 C 225.95 253.69 225.66 254.84 226.20 255.73 Z M 226.73 256.59 L 227.24 257.46 C 227.77 258.35 228.91 258.64 229.81 258.11 C 230.70 257.59 230.99 256.44 230.47 255.55 L 229.96 254.69 C 229.43 253.79 228.28 253.50 227.39 254.03 C 226.50 254.55 226.20 255.70 226.73 256.59 Z M 227.24 257.45 L 227.74 258.30 C 228.26 259.19 229.41 259.48 230.30 258.96 C 231.19 258.44 231.49 257.29 230.96 256.40 L 230.46 255.55 C 229.94 254.66 228.79 254.37 227.90 254.89 C 227.01 255.41 226.72 256.56 227.24 257.45 Z M 227.75 258.31 L 228.25 259.15 C 228.79 260.03 229.93 260.31 230.82 259.78 C 231.70 259.25 231.98 258.10 231.45 257.22 L 230.95 256.38 C 230.42 255.50 229.27 255.22 228.39 255.75 C 227.50 256.28 227.22 257.43 227.75 258.31 Z M 228.28 259.18 L 228.79 260.00 C 229.34 260.87 230.49 261.13 231.37 260.58 C 232.24 260.03 232.50 258.88 231.95 258.01 L 231.43 257.19 C 230.88 256.32 229.73 256.06 228.86 256.60 C 227.99 257.15 227.73 258.30 228.28 259.18 Z M 228.83 260.04 L 229.37 260.85 C 229.94 261.70 231.10 261.93 231.95 261.36 C 232.81 260.79 233.03 259.63 232.46 258.78 L 231.92 257.97 C 231.34 257.12 230.19 256.89 229.33 257.46 C 228.48 258.03 228.26 259.19 228.83 260.04 Z M 229.41 260.89 L 229.98 261.69 C 230.58 262.53 231.73 262.72 232.57 262.12 C 233.40 261.53 233.59 260.37 233.00 259.53 L 232.42 258.74 C 231.83 257.90 230.67 257.71 229.84 258.31 C 229.00 258.90 228.81 260.06 229.41 260.89 Z M 230.01 261.72 L 230.61 262.52 C 231.22 263.33 232.38 263.50 233.20 262.89 C 234.01 262.27 234.18 261.11 233.56 260.30 L 232.96 259.50 C 232.35 258.69 231.19 258.52 230.38 259.14 C 229.56 259.75 229.40 260.91 230.01 261.72 Z M 230.63 262.54 L 231.25 263.33 C 231.88 264.13 233.03 264.28 233.84 263.65 C 234.64 263.03 234.78 261.87 234.15 261.07 L 233.54 260.28 C 232.91 259.47 231.75 259.33 230.95 259.96 C 230.15 260.58 230.01 261.74 230.63 262.54 Z M 231.27 263.35 L 231.90 264.14 C 232.54 264.93 233.69 265.06 234.48 264.42 C 235.27 263.79 235.40 262.63 234.77 261.84 L 234.13 261.05 C 233.50 260.26 232.35 260.13 231.56 260.77 C 230.76 261.40 230.64 262.56 231.27 263.35 Z M 231.92 264.14 L 232.56 264.93 C 233.19 265.71 234.35 265.83 235.13 265.20 C 235.91 264.56 236.03 263.41 235.39 262.62 L 234.75 261.83 C 234.12 261.05 232.96 260.93 232.18 261.57 C 231.40 262.21 231.28 263.36 231.92 264.14 Z M 232.56 264.93 L 232.91 265.36 C 233.55 266.14 234.70 266.26 235.48 265.62 C 236.26 264.98 236.38 263.83 235.74 263.05 L 235.39 262.62 C 234.75 261.84 233.60 261.73 232.82 262.36 C 232.04 263.00 231.93 264.15 232.56 264.93 Z"
      fill="black"
      fill-rule="nonzero" /></svg>