<svg xmlns="http://www.w3.org/2000/svg" width="300" height="300" viewBox="0 0 300 300">
<path d="M 161.33 150.06 L 160.57 149.41 C 159.88 148.82 158.83 148.90 158.23 149.60 C 157.63 150.30 157.72 151.34 158.42 151.94 L 159.17 152.58 C 159.86 153.18 160.91 153.10 161.51 152.40 C 162.11 151.70 162.02 150.65 161.33 150.06 Z M 160.60 149.43 L 159.85 148.77 C 159.16 148.16 158.11 148.23 157.50 148.92 C 156.89 149.61 156.96 150.66 157.65 151.27 L 158.39 151.93 C 159.08 152.53 160.14 152.47 160.74 151.78 C 161.35 151.09 161.29 150.04 160.60 149.43 Z M 159.89 148.80 L 159.16 148.12 C 158.48 147.49 157.43 147.52 156.80 148.19 C 156.17 148.86 156.20 149.92 156.87 150.55 L 157.61 151.24 C 158.28 151.87 159.33 151.83 159.96 151.16 C 160.59 150.49 160.56 149.43 159.89 148.80 Z M 159.21 148.16 L 158.55 147.49 C 157.91 146.83 156.85 146.82 156.19 147.46 C 155.53 148.11 155.52 149.17 156.16 149.83 L 156.82 150.50 C 157.47 151.16 158.53 151.17 159.19 150.53 C 159.85 149.88 159.86 148.82 159.21 148.16 Z M 158.62 147.54 L 158.03 146.87 C 157.41 146.18 156.34 146.11 155.65 146.73 C 154.95 147.35 154.89 148.42 155.51 149.11 L 156.10 149.78 C 156.71 150.47 157.78 150.54 158.48 149.92 C 159.17 149.30 159.23 148.24 158.62 147.54 Z M 158.09 146.93 L 157.49 146.18 C 156.90 145.45 155.83 145.33 155.10 145.92 C 154.37 146.50 154.25 147.57 154.84 148.31 L 155.44 149.06 C 156.03 149.79 157.10 149.91 157.83 149.32 C 158.56 148.73 158.68 147.66 158.09 146.93 Z M 157.55 146.23 L 156.92 145.37 C 156.36 144.60 155.29 144.43 154.52 144.99 C 153.75 145.55 153.59 146.62 154.14 147.39 L 154.78 148.25 C 155.33 149.02 156.41 149.19 157.17 148.63 C 157.94 148.07 158.11 147.00 157.55 146.23 Z M 156.97 145.41 L 156.35 144.48 C 155.81 143.69 154.74 143.47 153.94 144.01 C 153.15 144.54 152.94 145.62 153.47 146.41 L 154.09 147.34 C 154.63 148.14 155.70 148.35 156.50 147.81 C 157.29 147.28 157.50 146.21 156.97 145.41 Z M 156.39 144.51 L 155.87 143.70 C 155.36 142.89 154.28 142.64 153.46 143.16 C 152.64 143.68 152.40 144.76 152.92 145.57 L 153.43 146.38 C 153.95 147.20 155.03 147.44 155.85 146.92 C 156.66 146.41 156.90 145.33 156.39 144.51 Z M 155.90 143.71 L 155.37 142.85 C 154.86 142.02 153.78 141.76 152.94 142.27 C 152.11 142.78 151.85 143.87 152.36 144.70 L 152.89 145.56 C 153.40 146.39 154.49 146.65 155.32 146.14 C 156.15 145.63 156.41 144.55 155.90 143.71 Z M 155.40 142.86 L 154.86 141.97 C 154.36 141.12 153.26 140.85 152.41 141.36 C 151.57 141.86 151.29 142.96 151.80 143.81 L 152.34 144.69 C 152.84 145.54 153.94 145.81 154.79 145.31 C 155.63 144.80 155.91 143.70 155.40 142.86 Z M 154.88 141.97 L 154.35 141.07 C 153.85 140.22 152.74 139.94 151.88 140.44 C 151.03 140.95 150.75 142.06 151.25 142.92 L 151.78 143.81 C 152.29 144.66 153.40 144.94 154.25 144.44 C 155.11 143.93 155.39 142.82 154.88 141.97 Z M 154.37 141.07 L 153.86 140.20 C 153.35 139.34 152.23 139.05 151.36 139.56 C 150.50 140.08 150.21 141.19 150.72 142.06 L 151.24 142.92 C 151.75 143.79 152.87 144.07 153.73 143.56 C 154.60 143.05 154.88 141.93 154.37 141.07 Z M 153.87 140.19 L 153.34 139.29 C 152.82 138.42 151.69 138.14 150.82 138.66 C 149.94 139.18 149.66 140.31 150.18 141.18 L 150.71 142.07 C 151.23 142.94 152.36 143.23 153.23 142.71 C 154.10 142.19 154.39 141.06 153.87 140.19 Z M 153.34 139.27 L 152.76 138.33 C 152.22 137.45 151.08 137.18 150.21 137.71 C 149.34 138.25 149.07 139.39 149.60 140.26 L 150.18 141.20 C 150.71 142.07 151.85 142.35 152.72 141.81 C 153.60 141.28 153.87 140.14 153.34 139.27 Z M 152.74 138.28 L 152.19 137.43 C 151.63 136.57 150.48 136.32 149.61 136.88 C 148.75 137.44 148.51 138.60 149.07 139.46 L 149.62 140.31 C 150.18 141.17 151.33 141.41 152.19 140.85 C 153.06 140.29 153.30 139.14 152.74 138.28 Z M 152.15 137.36 L 151.61 136.59 C 151.01 135.75 149.84 135.55 149.00 136.15 C 148.15 136.75 147.96 137.92 148.56 138.76 L 149.10 139.53 C 149.70 140.37 150.87 140.57 151.71 139.97 C 152.56 139.37 152.75 138.20 152.15 137.36 Z M 151.55 136.50 L 150.99 135.79 C 150.34 134.98 149.15 134.85 148.34 135.50 C 147.53 136.16 147.40 137.34 148.05 138.15 L 148.61 138.85 C 149.26 139.67 150.45 139.80 151.26 139.14 C 152.07 138.49 152.20 137.31 151.55 136.50 Z M 150.90 135.68 L 150.21 134.93 C 149.49 134.17 148.29 134.13 147.53 134.85 C 146.76 135.56 146.72 136.76 147.44 137.53 L 148.14 138.27 C 148.85 139.03 150.05 139.07 150.82 138.36 C 151.58 137.64 151.62 136.44 150.90 135.68 Z M 150.09 134.80 L 149.31 134.12 C 148.52 133.42 147.32 133.49 146.62 134.28 C 145.92 135.07 145.99 136.28 146.78 136.98 L 147.56 137.66 C 148.35 138.36 149.56 138.29 150.25 137.50 C 150.95 136.71 150.88 135.50 150.09 134.80 Z M 149.16 133.97 L 148.35 133.40 C 147.48 132.79 146.28 133.00 145.67 133.87 C 145.05 134.73 145.26 135.94 146.13 136.55 L 146.94 137.12 C 147.81 137.73 149.01 137.52 149.62 136.66 C 150.23 135.79 150.03 134.59 149.16 133.97 Z M 148.14 133.26 L 147.31 132.82 C 146.36 132.33 145.19 132.69 144.69 133.64 C 144.20 134.59 144.56 135.76 145.51 136.26 L 146.34 136.69 C 147.29 137.19 148.46 136.82 148.96 135.88 C 149.45 134.93 149.09 133.75 148.14 133.26 Z M 146.99 132.68 L 145.98 132.37 C 144.95 132.05 143.86 132.62 143.54 133.65 C 143.22 134.68 143.79 135.77 144.82 136.09 L 145.83 136.40 C 146.86 136.72 147.95 136.15 148.27 135.12 C 148.59 134.09 148.02 133.00 146.99 132.68 Z M 145.53 132.28 L 144.54 132.21 C 143.46 132.14 142.53 132.96 142.46 134.03 C 142.39 135.11 143.20 136.04 144.28 136.11 L 145.27 136.18 C 146.35 136.25 147.28 135.43 147.35 134.36 C 147.42 133.28 146.61 132.35 145.53 132.28 Z M 144.00 132.24 L 143.08 132.44 C 142.02 132.66 141.35 133.70 141.57 134.76 C 141.79 135.82 142.83 136.50 143.89 136.28 L 144.81 136.08 C 145.87 135.86 146.55 134.82 146.33 133.76 C 146.10 132.70 145.06 132.02 144.00 132.24 Z M 142.55 132.63 L 141.76 133.06 C 140.81 133.58 140.46 134.77 140.98 135.72 C 141.49 136.67 142.69 137.03 143.64 136.51 L 144.42 136.08 C 145.38 135.56 145.73 134.37 145.21 133.42 C 144.69 132.47 143.50 132.11 142.55 132.63 Z M 141.38 133.32 L 140.68 133.96 C 139.87 134.69 139.81 135.93 140.54 136.74 C 141.26 137.54 142.51 137.61 143.31 136.88 L 144.02 136.24 C 144.83 135.51 144.89 134.27 144.16 133.47 C 143.43 132.66 142.19 132.60 141.38 133.32 Z M 140.46 134.19 L 139.79 135.02 C 139.11 135.86 139.24 137.10 140.09 137.78 C 140.93 138.47 142.17 138.33 142.86 137.49 L 143.53 136.66 C 144.21 135.81 144.08 134.57 143.23 133.89 C 142.39 133.21 141.15 133.34 140.46 134.19 Z M 139.69 135.15 L 139.11 136.02 C 138.50 136.92 138.74 138.15 139.64 138.76 C 140.54 139.36 141.76 139.12 142.37 138.22 L 142.96 137.35 C 143.56 136.45 143.33 135.23 142.42 134.62 C 141.52 134.01 140.30 134.25 139.69 135.15 Z M 139.06 136.10 L 138.53 136.96 C 137.97 137.89 138.26 139.10 139.19 139.67 C 140.12 140.23 141.33 139.94 141.90 139.01 L 142.42 138.15 C 142.99 137.22 142.69 136.01 141.76 135.44 C 140.83 134.87 139.62 135.17 139.06 136.10 Z M 138.50 137.01 L 137.99 137.90 C 137.45 138.85 137.78 140.05 138.73 140.59 C 139.68 141.13 140.88 140.80 141.42 139.85 L 141.93 138.96 C 142.46 138.01 142.13 136.81 141.19 136.27 C 140.24 135.73 139.04 136.06 138.50 137.01 Z M 137.97 137.94 L 137.49 138.83 C 136.97 139.78 137.33 140.98 138.29 141.50 C 139.25 142.01 140.44 141.66 140.96 140.70 L 141.44 139.82 C 141.96 138.86 141.60 137.66 140.64 137.15 C 139.69 136.63 138.49 136.98 137.97 137.94 Z M 137.48 138.85 L 137.00 139.77 C 136.50 140.73 136.88 141.93 137.84 142.43 C 138.81 142.93 140.00 142.55 140.50 141.59 L 140.97 140.67 C 141.48 139.71 141.10 138.52 140.14 138.01 C 139.17 137.51 137.98 137.89 137.48 138.85 Z M 136.98 139.80 L 136.52 140.74 C 136.03 141.71 136.43 142.90 137.41 143.38 C 138.38 143.87 139.57 143.47 140.05 142.49 L 140.52 141.56 C 141.00 140.58 140.60 139.40 139.63 138.91 C 138.65 138.43 137.47 138.83 136.98 139.80 Z M 136.50 140.78 L 136.09 141.66 C 135.63 142.64 136.06 143.82 137.04 144.28 C 138.03 144.74 139.20 144.31 139.66 143.32 L 140.07 142.45 C 140.53 141.46 140.11 140.29 139.12 139.83 C 138.13 139.37 136.96 139.79 136.50 140.78 Z M 136.07 141.71 L 135.70 142.56 C 135.26 143.56 135.72 144.72 136.72 145.16 C 137.72 145.59 138.88 145.13 139.32 144.13 L 139.69 143.27 C 140.12 142.27 139.66 141.11 138.66 140.68 C 137.66 140.25 136.50 140.71 136.07 141.71 Z M 135.67 142.62 L 135.31 143.54 C 134.90 144.55 135.40 145.70 136.41 146.10 C 137.42 146.50 138.57 146.01 138.97 145.00 L 139.34 144.07 C 139.74 143.06 139.25 141.91 138.24 141.51 C 137.22 141.11 136.07 141.60 135.67 142.62 Z M 135.28 143.60 L 134.94 144.54 C 134.57 145.56 135.11 146.69 136.13 147.06 C 137.16 147.43 138.29 146.90 138.66 145.88 L 139.00 144.94 C 139.37 143.91 138.84 142.78 137.81 142.41 C 136.78 142.04 135.65 142.57 135.28 143.60 Z M 134.92 144.60 L 134.61 145.56 C 134.27 146.60 134.84 147.71 135.88 148.05 C 136.92 148.38 138.03 147.81 138.37 146.78 L 138.68 145.81 C 139.02 144.78 138.45 143.66 137.41 143.33 C 136.37 142.99 135.26 143.56 134.92 144.60 Z M 134.59 145.62 L 134.32 146.55 C 134.02 147.60 134.62 148.70 135.67 149.00 C 136.72 149.30 137.81 148.70 138.12 147.65 L 138.39 146.72 C 138.69 145.67 138.09 144.57 137.04 144.27 C 135.99 143.97 134.90 144.57 134.59 145.62 Z M 134.31 146.60 L 134.05 147.56 C 133.78 148.61 134.41 149.69 135.46 149.97 C 136.52 150.25 137.60 149.62 137.88 148.56 L 138.13 147.60 C 138.41 146.55 137.78 145.47 136.72 145.19 C 135.67 144.91 134.59 145.54 134.31 146.60 Z M 134.05 147.59 L 133.80 148.58 C 133.54 149.64 134.19 150.71 135.25 150.97 C 136.31 151.23 137.38 150.58 137.64 149.52 L 137.89 148.53 C 138.15 147.47 137.50 146.40 136.44 146.14 C 135.38 145.88 134.31 146.53 134.05 147.59 Z M 133.80 148.60 L 133.57 149.57 C 133.32 150.63 133.98 151.70 135.05 151.94 C 136.11 152.19 137.17 151.53 137.42 150.47 L 137.65 149.50 C 137.90 148.44 137.24 147.38 136.17 147.13 C 135.11 146.88 134.05 147.54 133.80 148.60 Z M 133.57 149.59 L 133.35 150.55 C 133.12 151.62 133.79 152.68 134.86 152.91 C 135.92 153.15 136.98 152.48 137.22 151.41 L 137.43 150.45 C 137.67 149.38 136.99 148.32 135.92 148.09 C 134.86 147.85 133.80 148.52 133.57 149.59 Z M 133.34 150.59 L 133.15 151.58 C 132.93 152.65 133.62 153.70 134.69 153.91 C 135.77 154.13 136.81 153.43 137.02 152.36 L 137.22 151.37 C 137.44 150.30 136.75 149.26 135.67 149.04 C 134.60 148.83 133.56 149.52 133.34 150.59 Z M 133.14 151.63 L 132.96 152.64 C 132.77 153.72 133.49 154.74 134.57 154.93 C 135.64 155.12 136.67 154.40 136.86 153.32 L 137.03 152.31 C 137.22 151.24 136.50 150.21 135.43 150.02 C 134.35 149.83 133.32 150.55 133.14 151.63 Z M 132.95 152.70 L 132.81 153.67 C 132.65 154.75 133.40 155.76 134.48 155.91 C 135.56 156.07 136.57 155.32 136.73 154.24 L 136.87 153.27 C 137.02 152.18 136.27 151.18 135.19 151.02 C 134.11 150.87 133.11 151.62 132.95 152.70 Z M 132.80 153.72 L 132.68 154.71 C 132.55 155.79 133.32 156.78 134.41 156.91 C 135.49 157.04 136.48 156.27 136.61 155.18 L 136.73 154.19 C 136.86 153.11 136.09 152.12 135.00 151.99 C 133.92 151.86 132.93 152.63 132.80 153.72 Z M 132.68 154.74 L 132.58 155.75 C 132.47 156.83 133.26 157.80 134.34 157.92 C 135.43 158.03 136.40 157.23 136.51 156.15 L 136.62 155.14 C 136.73 154.06 135.94 153.09 134.85 152.98 C 133.76 152.86 132.79 153.66 132.68 154.74 Z M 132.57 155.77 L 132.49 156.78 C 132.39 157.86 133.19 158.83 134.28 158.92 C 135.37 159.02 136.33 158.21 136.43 157.12 L 136.52 156.12 C 136.61 155.03 135.81 154.07 134.72 153.98 C 133.63 153.88 132.67 154.68 132.57 155.77 Z M 132.48 156.80 L 132.41 157.77 C 132.32 158.86 133.14 159.81 134.23 159.90 C 135.32 159.98 136.27 159.17 136.35 158.08 L 136.43 157.10 C 136.51 156.01 135.70 155.06 134.61 154.98 C 133.52 154.89 132.57 155.71 132.48 156.80 Z M 132.41 157.79 L 132.34 158.77 C 132.26 159.86 133.09 160.81 134.18 160.88 C 135.27 160.96 136.21 160.14 136.29 159.05 L 136.35 158.06 C 136.43 156.97 135.61 156.02 134.52 155.95 C 133.43 155.87 132.48 156.70 132.41 157.79 Z M 132.34 158.79 L 132.28 159.80 C 132.21 160.89 133.04 161.83 134.13 161.89 C 135.23 161.96 136.16 161.13 136.23 160.04 L 136.29 159.03 C 136.35 157.94 135.52 157.00 134.43 156.93 C 133.34 156.87 132.40 157.70 132.34 158.79 Z M 132.28 159.82 L 132.22 160.85 C 132.17 161.94 133.01 162.87 134.10 162.92 C 135.19 162.98 136.12 162.14 136.18 161.04 L 136.23 160.02 C 136.28 158.93 135.44 158.00 134.35 157.94 C 133.26 157.89 132.33 158.73 132.28 159.82 Z M 132.22 160.86 L 132.18 161.86 C 132.14 162.95 132.99 163.88 134.08 163.92 C 135.17 163.97 136.09 163.12 136.14 162.03 L 136.18 161.03 C 136.22 159.94 135.37 159.01 134.28 158.97 C 133.19 158.92 132.27 159.77 132.22 160.86 Z M 132.18 161.88 L 132.15 162.89 C 132.11 163.98 132.97 164.89 134.06 164.93 C 135.15 164.97 136.06 164.11 136.10 163.02 L 136.14 162.01 C 136.17 160.92 135.32 160.00 134.23 159.97 C 133.13 159.93 132.22 160.79 132.18 161.88 Z M 132.15 162.90 L 132.12 163.91 C 132.09 165.00 132.95 165.91 134.04 165.94 C 135.14 165.97 136.05 165.11 136.07 164.01 L 136.10 163.01 C 136.13 161.92 135.27 161.01 134.18 160.98 C 133.09 160.95 132.18 161.81 132.15 162.90 Z M 132.12 163.92 L 132.10 164.91 C 132.08 166.00 132.95 166.90 134.04 166.93 C 135.13 166.95 136.03 166.08 136.05 164.99 L 136.08 164.00 C 136.10 162.91 135.23 162.01 134.14 161.98 C 133.05 161.96 132.14 162.83 132.12 163.92 Z M 132.10 164.92 L 132.09 165.96 C 132.07 167.05 132.95 167.95 134.04 167.96 C 135.13 167.98 136.03 167.11 136.04 166.01 L 136.05 164.98 C 136.07 163.88 135.20 162.99 134.10 162.97 C 133.01 162.96 132.11 163.83 132.10 164.92 Z M 132.09 165.98 L 132.08 167.00 C 132.08 168.09 132.96 168.98 134.05 168.98 C 135.15 168.98 136.03 168.10 136.04 167.01 L 136.04 165.99 C 136.04 164.90 135.16 164.01 134.07 164.01 C 132.98 164.01 132.09 164.89 132.09 165.98 Z M 132.09 167.02 L 132.09 168.01 C 132.11 169.10 133.00 169.97 134.09 169.96 C 135.18 169.95 136.06 169.06 136.05 167.97 L 136.04 166.98 C 136.03 165.89 135.13 165.02 134.04 165.03 C 132.95 165.04 132.07 165.93 132.09 167.02 Z M 132.10 168.04 L 132.12 169.00 C 132.15 170.09 133.06 170.95 134.15 170.92 C 135.24 170.89 136.10 169.99 136.07 168.90 L 136.05 167.94 C 136.02 166.85 135.11 165.99 134.02 166.01 C 132.93 166.04 132.07 166.95 132.10 168.04 Z M 132.12 169.04 L 132.17 170.06 C 132.22 171.15 133.15 171.99 134.24 171.93 C 135.33 171.88 136.17 170.96 136.12 169.87 L 136.07 168.85 C 136.02 167.76 135.09 166.92 134.00 166.98 C 132.91 167.03 132.07 167.95 132.12 169.04 Z M 132.18 170.13 L 132.27 171.13 C 132.36 172.22 133.32 173.02 134.40 172.93 C 135.49 172.83 136.29 171.87 136.20 170.79 L 136.11 169.79 C 136.01 168.70 135.06 167.90 133.97 168.00 C 132.89 168.09 132.08 169.05 132.18 170.13 Z M 132.28 171.25 L 132.43 172.23 C 132.59 173.31 133.59 174.05 134.67 173.89 C 135.75 173.73 136.49 172.72 136.33 171.65 L 136.18 170.67 C 136.02 169.59 135.02 168.85 133.94 169.01 C 132.86 169.17 132.12 170.17 132.28 171.25 Z M 132.46 172.39 L 132.69 173.35 C 132.93 174.41 134.00 175.07 135.05 174.82 C 136.11 174.57 136.77 173.51 136.52 172.45 L 136.30 171.49 C 136.05 170.43 134.99 169.77 133.93 170.02 C 132.87 170.27 132.21 171.33 132.46 172.39 Z M 132.73 173.52 L 133.05 174.48 C 133.39 175.51 134.51 176.07 135.54 175.73 C 136.57 175.39 137.13 174.27 136.79 173.24 L 136.48 172.28 C 136.13 171.25 135.02 170.69 133.99 171.03 C 132.95 171.37 132.39 172.49 132.73 173.52 Z M 133.10 174.61 L 133.48 175.54 C 133.90 176.55 135.05 177.02 136.06 176.61 C 137.06 176.19 137.54 175.04 137.12 174.03 L 136.74 173.11 C 136.32 172.10 135.17 171.62 134.17 172.04 C 133.16 172.46 132.68 173.61 133.10 174.61 Z M 133.53 175.64 L 133.96 176.53 C 134.43 177.51 135.61 177.92 136.59 177.45 C 137.57 176.98 137.98 175.80 137.51 174.82 L 137.08 173.93 C 136.60 172.95 135.43 172.54 134.45 173.01 C 133.47 173.49 133.06 174.66 133.53 175.64 Z M 134.00 176.61 L 134.49 177.51 C 135.00 178.47 136.20 178.82 137.15 178.31 C 138.11 177.79 138.47 176.60 137.95 175.64 L 137.47 174.74 C 136.95 173.79 135.76 173.43 134.80 173.95 C 133.84 174.46 133.49 175.66 134.00 176.61 Z M 134.54 177.60 L 135.06 178.45 C 135.62 179.38 136.83 179.68 137.76 179.12 C 138.69 178.55 138.99 177.34 138.42 176.42 L 137.90 175.56 C 137.34 174.63 136.13 174.33 135.20 174.89 C 134.27 175.46 133.97 176.67 134.54 177.60 Z M 135.12 178.55 L 135.68 179.36 C 136.29 180.26 137.52 180.48 138.41 179.86 C 139.31 179.25 139.53 178.02 138.92 177.13 L 138.36 176.32 C 137.74 175.42 136.52 175.20 135.62 175.81 C 134.73 176.43 134.50 177.66 135.12 178.55 Z M 135.76 179.47 L 136.37 180.24 C 137.04 181.09 138.28 181.23 139.13 180.56 C 139.98 179.89 140.13 178.65 139.45 177.80 L 138.84 177.02 C 138.16 176.17 136.93 176.03 136.08 176.70 C 135.23 177.38 135.08 178.62 135.76 179.47 Z M 136.45 180.34 L 137.12 181.08 C 137.85 181.88 139.09 181.94 139.90 181.22 C 140.70 180.49 140.77 179.25 140.04 178.44 L 139.37 177.70 C 138.64 176.89 137.40 176.83 136.59 177.56 C 135.79 178.29 135.72 179.53 136.45 180.34 Z M 137.19 181.15 L 137.90 181.86 C 138.67 182.62 139.91 182.62 140.68 181.85 C 141.44 181.08 141.44 179.84 140.67 179.07 L 139.97 178.37 C 139.20 177.60 137.95 177.60 137.19 178.37 C 136.42 179.14 136.42 180.38 137.19 181.15 Z M 137.95 181.90 L 138.67 182.57 C 139.46 183.31 140.71 183.26 141.44 182.47 C 142.18 181.67 142.14 180.43 141.34 179.69 L 140.62 179.02 C 139.83 178.29 138.58 178.33 137.85 179.13 C 137.11 179.92 137.15 181.17 137.95 181.90 Z M 138.73 182.63 L 139.44 183.23 C 140.27 183.94 141.51 183.83 142.21 183.01 C 142.92 182.18 142.82 180.94 141.99 180.24 L 141.28 179.63 C 140.45 178.93 139.21 179.03 138.51 179.86 C 137.80 180.68 137.90 181.92 138.73 182.63 Z M 139.57 183.33 L 140.37 183.90 C 141.25 184.54 142.48 184.34 143.11 183.46 C 143.74 182.58 143.54 181.35 142.66 180.72 L 141.87 180.14 C 140.99 179.51 139.76 179.71 139.12 180.59 C 138.49 181.47 138.69 182.70 139.57 183.33 Z M 140.55 184.02 L 141.48 184.55 C 142.42 185.08 143.62 184.75 144.16 183.81 C 144.69 182.87 144.36 181.67 143.42 181.13 L 142.49 180.60 C 141.54 180.07 140.34 180.40 139.81 181.34 C 139.27 182.29 139.60 183.48 140.55 184.02 Z M 141.66 184.64 L 142.54 185.02 C 143.53 185.46 144.69 185.00 145.12 184.01 C 145.56 183.01 145.10 181.86 144.11 181.42 L 143.23 181.04 C 142.24 180.61 141.08 181.06 140.65 182.06 C 140.22 183.05 140.67 184.21 141.66 184.64 Z M 142.68 185.08 L 143.60 185.39 C 144.62 185.75 145.74 185.21 146.10 184.18 C 146.45 183.16 145.91 182.04 144.88 181.68 L 143.97 181.37 C 142.94 181.01 141.82 181.56 141.47 182.58 C 141.11 183.61 141.66 184.72 142.68 185.08 Z M 143.72 185.43 L 144.70 185.70 C 145.74 185.99 146.83 185.38 147.11 184.33 C 147.40 183.29 146.79 182.21 145.74 181.92 L 144.76 181.65 C 143.72 181.36 142.64 181.97 142.35 183.02 C 142.06 184.06 142.67 185.14 143.72 185.43 Z M 144.81 185.73 L 145.83 185.95 C 146.89 186.18 147.93 185.50 148.16 184.44 C 148.39 183.38 147.72 182.34 146.65 182.11 L 145.63 181.89 C 144.57 181.66 143.53 182.34 143.30 183.40 C 143.07 184.46 143.75 185.50 144.81 185.73 Z M 145.94 185.97 L 146.97 186.13 C 148.04 186.30 149.04 185.57 149.21 184.50 C 149.38 183.43 148.65 182.42 147.58 182.25 L 146.55 182.09 C 145.48 181.92 144.47 182.65 144.30 183.72 C 144.13 184.79 144.87 185.80 145.94 185.97 Z M 147.07 186.14 L 148.07 186.25 C 149.15 186.36 150.11 185.57 150.22 184.49 C 150.33 183.41 149.54 182.45 148.47 182.34 L 147.47 182.24 C 146.39 182.13 145.43 182.91 145.32 183.99 C 145.21 185.07 145.99 186.04 147.07 186.14 Z M 148.17 186.25 L 149.16 186.30 C 150.25 186.36 151.17 185.52 151.22 184.44 C 151.27 183.35 150.44 182.43 149.36 182.38 L 148.36 182.33 C 147.28 182.28 146.36 183.11 146.31 184.20 C 146.25 185.28 147.09 186.20 148.17 186.25 Z M 149.26 186.30 L 150.26 186.30 C 151.34 186.30 152.22 185.42 152.22 184.34 C 152.22 183.26 151.34 182.38 150.25 182.38 L 149.26 182.38 C 148.18 182.38 147.30 183.26 147.30 184.34 C 147.30 185.43 148.18 186.31 149.26 186.30 Z M 150.35 186.30 L 151.35 186.26 C 152.43 186.21 153.27 185.29 153.22 184.21 C 153.17 183.12 152.25 182.28 151.17 182.33 L 150.17 182.38 C 149.08 182.43 148.24 183.35 148.29 184.43 C 148.34 185.51 149.26 186.35 150.35 186.30 Z M 151.43 186.25 L 152.42 186.16 C 153.50 186.07 154.30 185.12 154.21 184.04 C 154.12 182.96 153.17 182.16 152.09 182.25 L 151.09 182.34 C 150.01 182.43 149.21 183.38 149.30 184.46 C 149.39 185.55 150.35 186.35 151.43 186.25 Z M 152.50 186.16 L 153.49 186.03 C 154.56 185.89 155.32 184.91 155.19 183.84 C 155.05 182.76 154.07 182.00 152.99 182.14 L 152.01 182.26 C 150.93 182.40 150.17 183.38 150.31 184.46 C 150.44 185.53 151.43 186.29 152.50 186.16 Z M 153.57 186.02 L 154.56 185.85 C 155.63 185.66 156.34 184.64 156.16 183.58 C 155.97 182.51 154.95 181.79 153.89 181.98 L 152.90 182.15 C 151.83 182.34 151.12 183.35 151.30 184.42 C 151.49 185.49 152.51 186.20 153.57 186.02 Z M 154.66 185.83 L 155.64 185.60 C 156.70 185.36 157.36 184.30 157.11 183.25 C 156.87 182.19 155.82 181.53 154.76 181.77 L 153.78 182.00 C 152.72 182.24 152.06 183.30 152.31 184.35 C 152.55 185.41 153.61 186.07 154.66 185.83 Z M 155.76 185.57 L 156.72 185.28 C 157.76 184.97 158.35 183.88 158.05 182.84 C 157.74 181.80 156.64 181.21 155.60 181.52 L 154.64 181.80 C 153.60 182.11 153.01 183.21 153.32 184.25 C 153.63 185.29 154.72 185.88 155.76 185.57 Z M 156.85 185.24 L 157.79 184.89 C 158.80 184.51 159.32 183.37 158.93 182.36 C 158.55 181.34 157.42 180.83 156.40 181.21 L 155.47 181.56 C 154.46 181.94 153.94 183.08 154.33 184.09 C 154.71 185.11 155.84 185.62 156.85 185.24 Z M 157.92 184.83 L 158.80 184.42 C 159.79 183.97 160.22 182.80 159.76 181.82 C 159.31 180.83 158.14 180.40 157.16 180.86 L 156.27 181.27 C 155.29 181.72 154.86 182.89 155.31 183.87 C 155.77 184.86 156.93 185.29 157.92 184.83 Z M 158.92 184.37 L 159.78 183.90 C 160.74 183.38 161.09 182.19 160.57 181.23 C 160.06 180.28 158.86 179.93 157.91 180.44 L 157.04 180.91 C 156.09 181.43 155.74 182.62 156.26 183.58 C 156.77 184.53 157.97 184.88 158.92 184.37 Z M 159.88 183.84 L 160.73 183.32 C 161.65 182.74 161.94 181.53 161.37 180.61 C 160.80 179.69 159.59 179.40 158.66 179.97 L 157.81 180.50 C 156.89 181.07 156.61 182.28 157.18 183.20 C 157.75 184.13 158.96 184.41 159.88 183.84 Z M 160.81 183.26 L 161.65 182.69 C 162.54 182.07 162.77 180.85 162.15 179.96 C 161.54 179.06 160.32 178.84 159.42 179.45 L 158.58 180.03 C 157.69 180.64 157.46 181.86 158.08 182.76 C 158.69 183.65 159.91 183.88 160.81 183.26 Z M 161.71 182.64 L 162.53 182.03 C 163.40 181.38 163.58 180.15 162.93 179.28 C 162.28 178.41 161.05 178.23 160.18 178.88 L 159.36 179.50 C 158.49 180.14 158.31 181.38 158.96 182.25 C 159.61 183.11 160.84 183.29 161.71 182.64 Z M 162.58 181.99 L 163.34 181.38 C 164.19 180.71 164.33 179.47 163.65 178.62 C 162.98 177.77 161.74 177.64 160.89 178.31 L 160.13 178.92 C 159.28 179.60 159.15 180.83 159.82 181.68 C 160.50 182.53 161.74 182.67 162.58 181.99 Z M 163.39 181.35 L 164.14 180.71 C 164.97 180.01 165.07 178.76 164.37 177.94 C 163.66 177.11 162.42 177.01 161.60 177.71 L 160.84 178.35 C 160.02 179.05 159.92 180.29 160.62 181.12 C 161.32 181.95 162.56 182.05 163.39 181.35 Z M 164.19 180.67 L 164.93 180.00 C 165.73 179.27 165.80 178.03 165.07 177.22 C 164.34 176.42 163.10 176.35 162.29 177.08 L 161.55 177.75 C 160.74 178.48 160.68 179.72 161.41 180.53 C 162.14 181.33 163.38 181.40 164.19 180.67 Z M 164.97 179.96 L 165.70 179.25 C 166.48 178.50 166.51 177.26 165.75 176.47 C 165.00 175.69 163.76 175.67 162.97 176.42 L 162.25 177.12 C 161.46 177.88 161.44 179.12 162.19 179.90 C 162.95 180.69 164.19 180.71 164.97 179.96 Z M 165.75 179.21 L 166.46 178.48 C 167.22 177.70 167.20 176.45 166.42 175.70 C 165.64 174.94 164.40 174.96 163.64 175.73 L 162.93 176.47 C 162.17 177.24 162.19 178.49 162.97 179.25 C 163.74 180.01 164.99 179.99 165.75 179.21 Z M 166.51 178.43 L 167.19 177.68 C 167.92 176.87 167.86 175.63 167.06 174.90 C 166.26 174.17 165.01 174.23 164.28 175.03 L 163.59 175.78 C 162.86 176.59 162.92 177.83 163.73 178.56 C 164.53 179.29 165.77 179.24 166.51 178.43 Z M 167.24 177.63 L 167.89 176.86 C 168.60 176.03 168.50 174.79 167.67 174.08 C 166.84 173.38 165.60 173.48 164.89 174.31 L 164.24 175.08 C 163.53 175.91 163.63 177.15 164.46 177.85 C 165.29 178.56 166.53 178.46 167.24 177.63 Z M 167.93 176.81 L 168.56 176.02 C 169.24 175.16 169.10 173.92 168.24 173.25 C 167.39 172.57 166.15 172.72 165.48 173.57 L 164.85 174.36 C 164.17 175.21 164.32 176.45 165.17 177.13 C 166.02 177.80 167.26 177.66 167.93 176.81 Z M 168.61 175.96 L 169.20 175.15 C 169.85 174.27 169.66 173.04 168.78 172.40 C 167.91 171.75 166.68 171.94 166.03 172.81 L 165.43 173.62 C 164.79 174.50 164.98 175.73 165.85 176.38 C 166.73 177.02 167.96 176.84 168.61 175.96 Z M 169.25 175.09 L 169.81 174.27 C 170.42 173.37 170.18 172.14 169.28 171.53 C 168.38 170.92 167.16 171.15 166.55 172.05 L 165.99 172.87 C 165.37 173.77 165.61 175.00 166.51 175.61 C 167.41 176.22 168.63 175.99 169.25 175.09 Z M 169.85 174.20 L 170.37 173.37 C 170.94 172.44 170.66 171.23 169.74 170.65 C 168.81 170.08 167.60 170.36 167.02 171.28 L 166.50 172.12 C 165.93 173.04 166.21 174.26 167.13 174.83 C 168.06 175.41 169.27 175.12 169.85 174.20 Z M 170.41 173.29 L 170.92 172.40 C 171.45 171.45 171.11 170.25 170.16 169.72 C 169.21 169.18 168.01 169.52 167.48 170.47 L 166.98 171.36 C 166.44 172.31 166.78 173.51 167.73 174.04 C 168.68 174.58 169.88 174.24 170.41 173.29 Z M 170.96 172.32 L 171.42 171.40 C 171.91 170.42 171.51 169.24 170.54 168.75 C 169.56 168.26 168.38 168.66 167.89 169.63 L 167.43 170.55 C 166.94 171.53 167.34 172.71 168.31 173.20 C 169.29 173.69 170.47 173.29 170.96 172.32 Z M 171.46 171.31 L 171.87 170.39 C 172.30 169.39 171.85 168.22 170.85 167.79 C 169.85 167.35 168.69 167.80 168.25 168.80 L 167.85 169.73 C 167.41 170.72 167.86 171.89 168.86 172.32 C 169.86 172.76 171.03 172.31 171.46 171.31 Z M 171.90 170.29 L 172.25 169.37 C 172.64 168.35 172.12 167.21 171.10 166.82 C 170.08 166.44 168.94 166.95 168.56 167.97 L 168.21 168.90 C 167.83 169.92 168.34 171.06 169.36 171.44 C 170.38 171.83 171.52 171.31 171.90 170.29 Z M 172.29 169.27 L 172.58 168.35 C 172.92 167.31 172.34 166.19 171.30 165.86 C 170.26 165.53 169.15 166.11 168.82 167.14 L 168.52 168.07 C 168.19 169.11 168.77 170.22 169.81 170.55 C 170.85 170.88 171.96 170.31 172.29 169.27 Z M 172.61 168.25 L 172.86 167.32 C 173.13 166.26 172.50 165.18 171.45 164.91 C 170.39 164.63 169.31 165.26 169.03 166.32 L 168.79 167.24 C 168.51 168.30 169.15 169.38 170.20 169.66 C 171.26 169.93 172.34 169.30 172.61 168.25 Z M 172.88 167.22 L 173.07 166.28 C 173.30 165.21 172.61 164.17 171.54 163.94 C 170.47 163.72 169.42 164.41 169.20 165.48 L 169.01 166.42 C 168.79 167.49 169.48 168.53 170.54 168.75 C 171.61 168.97 172.66 168.29 172.88 167.22 Z M 173.09 166.18 L 173.24 165.23 C 173.41 164.15 172.67 163.14 171.59 162.97 C 170.51 162.80 169.50 163.54 169.34 164.62 L 169.19 165.58 C 169.02 166.65 169.76 167.66 170.83 167.83 C 171.91 168.00 172.92 167.26 173.09 166.18 Z M 173.25 165.14 L 173.36 164.16 C 173.48 163.07 172.70 162.10 171.61 161.97 C 170.53 161.85 169.55 162.64 169.43 163.72 L 169.32 164.71 C 169.20 165.79 169.98 166.77 171.07 166.89 C 172.15 167.01 173.13 166.23 173.25 165.14 Z M 173.37 164.08 L 173.44 163.05 C 173.52 161.97 172.71 161.02 171.62 160.94 C 170.53 160.86 169.58 161.68 169.50 162.77 L 169.43 163.79 C 169.35 164.88 170.16 165.83 171.25 165.91 C 172.34 165.99 173.29 165.17 173.37 164.08 Z M 173.45 163.00 L 173.49 161.93 C 173.54 160.84 172.69 159.92 171.60 159.87 C 170.51 159.82 169.59 160.67 169.54 161.76 L 169.50 162.82 C 169.45 163.92 170.30 164.84 171.39 164.88 C 172.48 164.93 173.40 164.09 173.45 163.00 Z M 173.49 161.88 L 173.51 160.87 C 173.53 159.78 172.67 158.88 171.57 158.86 C 170.48 158.84 169.58 159.71 169.56 160.80 L 169.54 161.81 C 169.52 162.90 170.39 163.80 171.48 163.82 C 172.57 163.84 173.47 162.97 173.49 161.88 Z M 173.51 160.81 L 173.50 159.78 C 173.49 158.69 172.60 157.81 171.51 157.82 C 170.42 157.83 169.54 158.73 169.55 159.82 L 169.56 160.85 C 169.57 161.94 170.47 162.82 171.56 162.81 C 172.65 162.80 173.52 161.91 173.51 160.81 Z M 173.50 159.71 L 173.45 158.67 C 173.40 157.58 172.48 156.74 171.39 156.79 C 170.30 156.84 169.45 157.77 169.51 158.86 L 169.55 159.89 C 169.60 160.98 170.53 161.82 171.62 161.77 C 172.71 161.72 173.55 160.80 173.50 159.71 Z M 173.45 158.58 L 173.35 157.57 C 173.25 156.49 172.29 155.69 171.20 155.79 C 170.11 155.89 169.31 156.86 169.42 157.94 L 169.51 158.95 C 169.61 160.04 170.58 160.84 171.66 160.73 C 172.75 160.63 173.55 159.67 173.45 158.58 Z M 173.34 157.45 L 173.19 156.49 C 173.02 155.41 172.01 154.68 170.93 154.85 C 169.85 155.02 169.11 156.03 169.28 157.11 L 169.43 158.06 C 169.60 159.14 170.61 159.88 171.69 159.71 C 172.77 159.54 173.51 158.53 173.34 157.45 Z M 173.15 156.33 L 172.93 155.41 C 172.67 154.35 171.60 153.70 170.54 153.96 C 169.48 154.23 168.83 155.30 169.09 156.36 L 169.31 157.27 C 169.57 158.33 170.65 158.98 171.71 158.72 C 172.77 158.46 173.41 157.39 173.15 156.33 Z M 172.86 155.19 L 172.52 154.27 C 172.13 153.25 171.00 152.73 169.97 153.11 C 168.95 153.49 168.43 154.63 168.81 155.65 L 169.16 156.58 C 169.54 157.60 170.68 158.12 171.70 157.73 C 172.72 157.35 173.24 156.22 172.86 155.19 Z M 172.41 154.04 L 171.97 153.20 C 171.46 152.24 170.27 151.87 169.30 152.38 C 168.34 152.89 167.97 154.08 168.48 155.05 L 168.92 155.88 C 169.43 156.85 170.62 157.22 171.59 156.71 C 172.55 156.20 172.92 155.01 172.41 154.04 Z M 171.85 153.01 L 171.31 152.22 C 170.69 151.32 169.47 151.09 168.57 151.70 C 167.67 152.32 167.44 153.54 168.05 154.44 L 168.59 155.24 C 169.21 156.14 170.44 156.37 171.34 155.75 C 172.24 155.14 172.47 153.91 171.85 153.01 Z M 171.21 152.08 L 170.56 151.30 C 169.87 150.45 168.63 150.33 167.79 151.02 C 166.95 151.71 166.82 152.95 167.51 153.79 L 168.15 154.58 C 168.84 155.42 170.09 155.55 170.93 154.86 C 171.77 154.17 171.90 152.93 171.21 152.08 Z M 170.49 151.22 L 169.77 150.43 C 169.04 149.62 167.79 149.56 166.99 150.30 C 166.18 151.03 166.13 152.28 166.86 153.08 L 167.58 153.87 C 168.32 154.68 169.56 154.73 170.37 154.00 C 171.17 153.27 171.23 152.02 170.49 151.22 Z M 169.73 150.39 L 169.06 149.69 C 168.31 148.91 167.06 148.89 166.28 149.64 C 165.50 150.40 165.47 151.64 166.23 152.42 L 166.90 153.12 C 167.65 153.90 168.90 153.92 169.68 153.17 C 170.46 152.42 170.49 151.17 169.73 150.39 Z M 169.03 149.67 L 168.32 148.95 C 167.55 148.19 166.31 148.19 165.54 148.95 C 164.77 149.72 164.77 150.96 165.54 151.73 L 166.26 152.45 C 167.02 153.21 168.27 153.21 169.03 152.45 C 169.80 151.68 169.80 150.44 169.03 149.67 Z M 168.29 148.93 L 167.55 148.21 C 166.77 147.46 165.53 147.48 164.78 148.26 C 164.02 149.03 164.04 150.28 164.82 151.03 L 165.57 151.75 C 166.34 152.50 167.58 152.48 168.34 151.71 C 169.09 150.93 169.07 149.69 168.29 148.93 Z M 167.53 148.20 L 166.77 147.49 C 165.98 146.75 164.75 146.78 164.01 147.57 C 163.27 148.36 163.30 149.60 164.09 150.34 L 164.84 151.05 C 165.63 151.79 166.87 151.75 167.61 150.96 C 168.35 150.17 168.31 148.94 167.53 148.20 Z M 166.75 147.47 L 166.00 146.79 C 165.21 146.06 163.97 146.12 163.24 146.91 C 162.51 147.71 162.57 148.95 163.37 149.67 L 164.11 150.35 C 164.91 151.08 166.15 151.03 166.87 150.23 C 167.60 149.43 167.54 148.20 166.75 147.47 Z M 165.98 146.77 L 165.26 146.13 C 164.45 145.42 163.22 145.50 162.50 146.30 C 161.79 147.11 161.87 148.34 162.67 149.05 L 163.39 149.69 C 164.20 150.40 165.43 150.33 166.15 149.52 C 166.86 148.71 166.78 147.48 165.98 146.77 Z M 165.22 146.11 L 164.40 145.41 C 163.58 144.72 162.36 144.82 161.66 145.64 C 160.97 146.46 161.07 147.68 161.88 148.38 L 162.71 149.07 C 163.53 149.77 164.75 149.67 165.45 148.85 C 166.14 148.03 166.04 146.81 165.22 146.11 Z M 164.36 145.40 L 163.57 144.75 C 162.74 144.08 161.53 144.20 160.85 145.03 C 160.18 145.85 160.30 147.07 161.13 147.74 L 161.92 148.39 C 162.75 149.07 163.96 148.94 164.64 148.12 C 165.31 147.29 165.19 146.07 164.36 145.40 Z M 163.54 144.75 L 162.79 144.14 C 161.96 143.48 160.75 143.62 160.09 144.45 C 159.43 145.28 159.57 146.49 160.40 147.15 L 161.15 147.75 C 161.98 148.41 163.19 148.27 163.85 147.44 C 164.51 146.61 164.37 145.41 163.54 144.75 Z M 162.78 144.15 L 162.03 143.56 C 161.21 142.91 160.01 143.04 159.35 143.87 C 158.70 144.69 158.84 145.89 159.66 146.55 L 160.41 147.14 C 161.23 147.79 162.43 147.65 163.08 146.83 C 163.74 146.00 163.60 144.81 162.78 144.15 Z M 162.04 143.58 L 161.29 142.97 C 160.47 142.32 159.28 142.44 158.62 143.25 C 157.97 144.07 158.09 145.26 158.90 145.92 L 159.66 146.53 C 160.47 147.18 161.66 147.06 162.32 146.24 C 162.98 145.43 162.85 144.24 162.04 143.58 Z M 161.30 143.01 L 160.54 142.37 C 159.75 141.70 158.56 141.80 157.89 142.60 C 157.23 143.39 157.33 144.58 158.12 145.25 L 158.89 145.88 C 159.68 146.55 160.87 146.45 161.53 145.65 C 162.20 144.86 162.10 143.67 161.30 143.01 Z M 160.56 142.40 L 159.78 141.73 C 159.01 141.05 157.83 141.13 157.16 141.91 C 156.48 142.68 156.56 143.86 157.34 144.54 L 158.11 145.21 C 158.88 145.89 160.06 145.81 160.74 145.03 C 161.41 144.25 161.33 143.08 160.56 142.40 Z M 159.80 141.76 L 159.03 141.07 C 158.28 140.39 157.11 140.45 156.43 141.20 C 155.74 141.96 155.80 143.13 156.56 143.81 L 157.32 144.50 C 158.08 145.19 159.25 145.13 159.93 144.37 C 160.61 143.61 160.56 142.45 159.80 141.76 Z M 159.05 141.11 L 158.31 140.42 C 157.58 139.72 156.42 139.76 155.73 140.50 C 155.03 141.23 155.07 142.39 155.81 143.08 L 156.54 143.78 C 157.28 144.47 158.44 144.43 159.13 143.69 C 159.82 142.96 159.79 141.80 159.05 141.11 Z M 158.33 140.46 L 157.65 139.78 C 156.93 139.08 155.78 139.09 155.08 139.81 C 154.38 140.52 154.39 141.67 155.10 142.37 L 155.79 143.05 C 156.50 143.75 157.65 143.74 158.36 143.02 C 159.06 142.31 159.05 141.16 158.33 140.46 Z M 157.67 139.84 L 156.92 139.07 C 156.24 138.36 155.11 138.33 154.40 139.02 C 153.68 139.70 153.66 140.83 154.34 141.54 L 155.08 142.32 C 155.77 143.03 156.90 143.05 157.61 142.37 C 158.33 141.68 158.35 140.55 157.67 139.84 Z M 156.95 139.15 L 156.27 138.38 C 155.63 137.65 154.53 137.58 153.80 138.22 C 153.07 138.86 153.00 139.96 153.64 140.69 L 154.32 141.46 C 154.96 142.18 156.06 142.26 156.79 141.62 C 157.51 140.98 157.58 139.88 156.95 139.15 Z M 156.29 138.48 L 155.70 137.72 C 155.12 136.98 154.04 136.85 153.30 137.44 C 152.57 138.02 152.44 139.09 153.02 139.83 L 153.61 140.59 C 154.20 141.33 155.27 141.45 156.01 140.87 C 156.75 140.29 156.88 139.22 156.29 138.48 Z M 155.72 137.83 L 155.19 137.06 C 154.66 136.31 153.63 136.12 152.88 136.65 C 152.12 137.17 151.94 138.21 152.46 138.96 L 153.00 139.73 C 153.52 140.48 154.56 140.66 155.31 140.14 C 156.06 139.61 156.25 138.58 155.72 137.83 Z M 155.21 137.16 L 154.70 136.33 C 154.23 135.57 153.23 135.33 152.46 135.80 C 151.70 136.27 151.46 137.28 151.93 138.04 L 152.44 138.87 C 152.91 139.63 153.92 139.87 154.68 139.40 C 155.45 138.93 155.68 137.92 155.21 137.16 Z M 154.72 136.40 L 154.24 135.53 C 153.81 134.76 152.83 134.48 152.05 134.91 C 151.27 135.35 151.00 136.33 151.43 137.10 L 151.91 137.97 C 152.35 138.75 153.33 139.02 154.10 138.59 C 154.88 138.16 155.16 137.18 154.72 136.40 Z M 154.25 135.58 L 153.78 134.69 C 153.37 133.91 152.41 133.61 151.63 134.01 C 150.85 134.42 150.55 135.38 150.96 136.16 L 151.42 137.05 C 151.83 137.83 152.79 138.14 153.57 137.73 C 154.35 137.32 154.65 136.36 154.25 135.58 Z M 153.78 134.72 L 153.32 133.81 C 152.93 133.04 151.98 132.72 151.21 133.11 C 150.43 133.50 150.12 134.45 150.51 135.23 L 150.96 136.13 C 151.35 136.91 152.30 137.22 153.08 136.83 C 153.85 136.44 154.17 135.49 153.78 134.72 Z"
      fill="black"
      fill-rule="nonzero" /></svg>