<svg xmlns="http://www.w3.org/2000/svg" width="300" height="300" viewBox="0 0 300 300">
<path d="M 136.99 133.22 L 135.94 133.42 C 135.03 133.60 134.44 134.49 134.61 135.40 C 134.79 136.31 135.68 136.91 136.59 136.73 L 137.64 136.53 C 138.55 136.35 139.14 135.46 138.97 134.55 C 138.79 133.64 137.90 133.04 136.99 133.22 Z M 135.93 133.42 L 134.90 133.63 C 133.98 133.81 133.39 134.70 133.57 135.62 C 133.75 136.53 134.64 137.13 135.56 136.94 L 136.60 136.74 C 137.52 136.55 138.11 135.66 137.93 134.75 C 137.74 133.83 136.85 133.23 135.93 133.42 Z M 134.88 133.62 L 133.86 133.84 C 132.94 134.03 132.35 134.93 132.54 135.85 C 132.74 136.77 133.64 137.36 134.56 137.16 L 135.58 136.95 C 136.50 136.76 137.09 135.85 136.89 134.94 C 136.70 134.02 135.80 133.43 134.88 133.62 Z M 133.83 133.83 L 132.83 134.06 C 131.91 134.27 131.33 135.18 131.54 136.10 C 131.75 137.02 132.67 137.60 133.59 137.39 L 134.58 137.17 C 135.50 136.96 136.08 136.04 135.87 135.12 C 135.67 134.20 134.75 133.63 133.83 133.83 Z M 132.80 134.06 L 131.83 134.30 C 130.91 134.53 130.35 135.46 130.58 136.38 C 130.81 137.30 131.74 137.86 132.66 137.63 L 133.62 137.39 C 134.54 137.16 135.10 136.23 134.88 135.31 C 134.65 134.39 133.72 133.83 132.80 134.06 Z M 131.78 134.30 L 130.86 134.56 C 129.94 134.82 129.40 135.77 129.66 136.69 C 129.91 137.60 130.86 138.14 131.78 137.89 L 132.71 137.63 C 133.63 137.37 134.16 136.42 133.91 135.50 C 133.65 134.58 132.70 134.05 131.78 134.30 Z M 130.79 134.57 L 129.92 134.85 C 129.01 135.14 128.50 136.11 128.79 137.03 C 129.08 137.94 130.06 138.44 130.97 138.15 L 131.85 137.88 C 132.76 137.59 133.26 136.61 132.97 135.70 C 132.68 134.78 131.71 134.28 130.79 134.57 Z M 129.83 134.87 L 128.91 135.22 C 128.01 135.55 127.55 136.56 127.89 137.46 C 128.23 138.36 129.23 138.82 130.13 138.48 L 131.05 138.13 C 131.96 137.80 132.41 136.79 132.07 135.89 C 131.74 134.99 130.73 134.53 129.83 134.87 Z M 128.79 135.26 L 127.81 135.71 C 126.94 136.12 126.56 137.16 126.96 138.03 C 127.37 138.91 128.40 139.29 129.28 138.88 L 130.25 138.43 C 131.13 138.03 131.51 136.99 131.11 136.11 C 130.70 135.24 129.66 134.86 128.79 135.26 Z M 127.65 135.79 L 126.78 136.31 C 125.95 136.80 125.68 137.88 126.17 138.71 C 126.67 139.54 127.74 139.81 128.57 139.32 L 129.44 138.80 C 130.27 138.31 130.55 137.24 130.05 136.40 C 129.56 135.57 128.48 135.30 127.65 135.79 Z M 126.60 136.43 L 125.84 137.02 C 125.07 137.62 124.94 138.72 125.53 139.49 C 126.13 140.25 127.23 140.39 128.00 139.79 L 128.76 139.20 C 129.52 138.60 129.66 137.50 129.07 136.73 C 128.47 135.97 127.37 135.83 126.60 136.43 Z M 125.65 137.19 L 124.99 137.87 C 124.32 138.57 124.34 139.69 125.04 140.36 C 125.75 141.03 126.86 141.01 127.53 140.31 L 128.19 139.63 C 128.86 138.92 128.84 137.81 128.14 137.13 C 127.44 136.46 126.32 136.48 125.65 137.19 Z M 124.82 138.08 L 124.27 138.86 C 123.71 139.66 123.90 140.76 124.70 141.32 C 125.50 141.88 126.60 141.68 127.16 140.88 L 127.71 140.10 C 128.27 139.30 128.08 138.20 127.28 137.64 C 126.48 137.08 125.37 137.28 124.82 138.08 Z M 124.13 139.09 L 123.70 139.96 C 123.27 140.83 123.62 141.89 124.50 142.33 C 125.38 142.76 126.44 142.40 126.87 141.53 L 127.30 140.66 C 127.73 139.78 127.38 138.72 126.50 138.29 C 125.62 137.85 124.56 138.21 124.13 139.09 Z M 123.61 140.17 L 123.29 141.11 C 122.97 142.03 123.46 143.04 124.39 143.36 C 125.31 143.68 126.32 143.18 126.64 142.26 L 126.96 141.32 C 127.28 140.39 126.78 139.38 125.86 139.07 C 124.94 138.75 123.93 139.24 123.61 140.17 Z M 123.23 141.30 L 123.01 142.30 C 122.80 143.25 123.40 144.20 124.36 144.41 C 125.31 144.62 126.25 144.02 126.47 143.07 L 126.69 142.07 C 126.90 141.11 126.30 140.17 125.35 139.96 C 124.39 139.74 123.45 140.35 123.23 141.30 Z M 122.98 142.48 L 122.87 143.50 C 122.75 144.47 123.45 145.35 124.42 145.46 C 125.39 145.57 126.27 144.88 126.38 143.91 L 126.50 142.88 C 126.61 141.91 125.91 141.04 124.94 140.92 C 123.97 140.81 123.09 141.51 122.98 142.48 Z M 122.85 143.69 L 122.84 144.70 C 122.83 145.68 123.62 146.47 124.60 146.48 C 125.57 146.49 126.37 145.71 126.38 144.73 L 126.39 143.72 C 126.40 142.74 125.62 141.94 124.64 141.93 C 123.66 141.93 122.86 142.71 122.85 143.69 Z M 122.85 144.90 L 122.95 145.87 C 123.05 146.84 123.92 147.55 124.89 147.45 C 125.87 147.35 126.57 146.48 126.47 145.51 L 126.37 144.53 C 126.27 143.56 125.40 142.86 124.43 142.96 C 123.46 143.06 122.75 143.93 122.85 144.90 Z M 123.00 146.10 L 123.23 147.07 C 123.46 148.02 124.41 148.60 125.36 148.37 C 126.31 148.14 126.89 147.19 126.66 146.24 L 126.43 145.27 C 126.20 144.33 125.25 143.74 124.30 143.97 C 123.35 144.20 122.77 145.16 123.00 146.10 Z M 123.32 147.32 L 123.69 148.24 C 124.06 149.14 125.09 149.57 125.99 149.20 C 126.89 148.84 127.32 147.81 126.95 146.91 L 126.58 145.99 C 126.21 145.09 125.18 144.66 124.28 145.03 C 123.38 145.39 122.95 146.42 123.32 147.32 Z M 123.81 148.46 L 124.30 149.30 C 124.79 150.14 125.87 150.42 126.70 149.93 C 127.54 149.44 127.82 148.36 127.33 147.53 L 126.84 146.68 C 126.35 145.85 125.27 145.57 124.43 146.06 C 123.60 146.55 123.32 147.63 123.81 148.46 Z M 124.42 149.47 L 125.01 150.26 C 125.60 151.03 126.70 151.18 127.47 150.59 C 128.24 150.01 128.39 148.91 127.81 148.14 L 127.21 147.36 C 126.63 146.58 125.53 146.43 124.76 147.02 C 123.98 147.60 123.83 148.70 124.42 149.47 Z M 125.12 150.37 L 125.79 151.12 C 126.44 151.83 127.55 151.88 128.26 151.23 C 128.98 150.58 129.03 149.47 128.38 148.76 L 127.70 148.02 C 127.05 147.30 125.94 147.25 125.23 147.90 C 124.52 148.55 124.47 149.66 125.12 150.37 Z M 125.87 151.19 L 126.60 151.90 C 127.29 152.57 128.39 152.55 129.06 151.86 C 129.73 151.17 129.72 150.06 129.03 149.39 L 128.30 148.69 C 127.61 148.02 126.50 148.03 125.83 148.72 C 125.16 149.41 125.18 150.52 125.87 151.19 Z M 126.65 151.94 L 127.38 152.59 C 128.10 153.24 129.20 153.17 129.84 152.46 C 130.48 151.74 130.42 150.64 129.70 150.00 L 128.97 149.35 C 128.26 148.71 127.16 148.77 126.51 149.48 C 125.87 150.20 125.93 151.30 126.65 151.94 Z M 127.43 152.64 L 128.20 153.27 C 128.94 153.88 130.04 153.78 130.65 153.04 C 131.26 152.30 131.16 151.20 130.42 150.59 L 129.65 149.96 C 128.91 149.34 127.81 149.45 127.20 150.19 C 126.59 150.93 126.69 152.03 127.43 152.64 Z M 128.26 153.32 L 129.06 153.92 C 129.83 154.50 130.92 154.35 131.50 153.59 C 132.07 152.82 131.92 151.73 131.16 151.16 L 130.36 150.55 C 129.59 149.97 128.50 150.12 127.92 150.88 C 127.35 151.65 127.50 152.74 128.26 153.32 Z M 129.13 153.97 L 129.96 154.54 C 130.75 155.08 131.83 154.88 132.37 154.10 C 132.92 153.31 132.72 152.23 131.93 151.68 L 131.09 151.11 C 130.31 150.57 129.23 150.77 128.68 151.56 C 128.14 152.35 128.34 153.43 129.13 153.97 Z M 130.04 154.59 L 130.90 155.12 C 131.71 155.62 132.78 155.36 133.28 154.55 C 133.78 153.74 133.53 152.67 132.71 152.17 L 131.85 151.64 C 131.04 151.14 129.97 151.39 129.47 152.21 C 128.97 153.02 129.22 154.09 130.04 154.59 Z M 130.98 155.16 L 131.87 155.64 C 132.71 156.10 133.76 155.79 134.22 154.95 C 134.67 154.11 134.36 153.06 133.52 152.60 L 132.63 152.12 C 131.79 151.67 130.74 151.98 130.29 152.82 C 129.83 153.66 130.15 154.71 130.98 155.16 Z M 131.97 155.69 L 132.89 156.12 C 133.75 156.52 134.78 156.15 135.18 155.28 C 135.59 154.42 135.21 153.39 134.35 152.99 L 133.43 152.56 C 132.56 152.16 131.53 152.53 131.13 153.40 C 130.73 154.26 131.10 155.29 131.97 155.69 Z M 132.98 156.16 L 133.92 156.53 C 134.80 156.88 135.80 156.45 136.16 155.56 C 136.51 154.68 136.07 153.67 135.19 153.32 L 134.25 152.95 C 133.37 152.60 132.37 153.03 132.02 153.92 C 131.66 154.80 132.10 155.80 132.98 156.16 Z M 134.01 156.56 L 134.96 156.87 C 135.86 157.18 136.83 156.69 137.13 155.79 C 137.44 154.89 136.95 153.91 136.05 153.61 L 135.10 153.29 C 134.20 152.99 133.22 153.48 132.92 154.38 C 132.62 155.28 133.11 156.26 134.01 156.56 Z M 135.04 156.90 L 136.00 157.16 C 136.91 157.42 137.86 156.88 138.11 155.96 C 138.37 155.05 137.83 154.10 136.92 153.85 L 135.96 153.58 C 135.04 153.33 134.10 153.87 133.84 154.78 C 133.59 155.70 134.13 156.65 135.04 156.90 Z M 136.08 157.18 L 137.04 157.40 C 137.97 157.60 138.89 157.02 139.09 156.09 C 139.30 155.17 138.72 154.25 137.79 154.04 L 136.83 153.83 C 135.90 153.62 134.99 154.21 134.78 155.13 C 134.57 156.06 135.16 156.98 136.08 157.18 Z M 137.13 157.41 L 138.12 157.58 C 139.05 157.74 139.94 157.11 140.10 156.18 C 140.26 155.25 139.63 154.36 138.70 154.20 L 137.71 154.03 C 136.78 153.87 135.89 154.49 135.73 155.43 C 135.57 156.36 136.19 157.25 137.13 157.41 Z M 138.20 157.59 L 139.20 157.72 C 140.14 157.83 140.99 157.17 141.11 156.23 C 141.23 155.29 140.56 154.43 139.62 154.31 L 138.62 154.19 C 137.68 154.07 136.82 154.74 136.70 155.68 C 136.59 156.62 137.26 157.47 138.20 157.59 Z M 139.27 157.72 L 140.27 157.80 C 141.22 157.88 142.04 157.17 142.12 156.23 C 142.19 155.29 141.49 154.46 140.54 154.39 L 139.55 154.31 C 138.60 154.23 137.78 154.93 137.70 155.88 C 137.62 156.82 138.33 157.65 139.27 157.72 Z M 140.34 157.81 L 141.34 157.85 C 142.28 157.88 143.08 157.15 143.12 156.20 C 143.15 155.26 142.42 154.46 141.47 154.42 L 140.48 154.38 C 139.53 154.34 138.73 155.08 138.70 156.03 C 138.66 156.97 139.39 157.77 140.34 157.81 Z M 141.40 157.85 L 142.39 157.85 C 143.34 157.85 144.11 157.09 144.11 156.14 C 144.11 155.20 143.35 154.43 142.40 154.42 L 141.41 154.42 C 140.46 154.42 139.69 155.18 139.69 156.13 C 139.69 157.07 140.45 157.84 141.40 157.85 Z M 142.45 157.85 L 143.44 157.82 C 144.39 157.79 145.13 157.00 145.10 156.05 C 145.07 155.11 144.28 154.37 143.34 154.39 L 142.34 154.42 C 141.40 154.45 140.66 155.24 140.68 156.19 C 140.71 157.13 141.50 157.88 142.45 157.85 Z M 143.50 157.81 L 144.52 157.75 C 145.47 157.69 146.18 156.87 146.12 155.93 C 146.06 154.99 145.24 154.27 144.30 154.33 L 143.28 154.40 C 142.33 154.46 141.62 155.27 141.68 156.22 C 141.74 157.16 142.56 157.88 143.50 157.81 Z M 144.61 157.74 L 145.61 157.63 C 146.55 157.52 147.23 156.67 147.12 155.73 C 147.01 154.79 146.16 154.12 145.23 154.22 L 144.22 154.34 C 143.28 154.45 142.60 155.29 142.71 156.23 C 142.82 157.17 143.67 157.85 144.61 157.74 Z M 145.72 157.61 L 146.70 157.43 C 147.64 157.27 148.25 156.38 148.09 155.45 C 147.92 154.51 147.03 153.90 146.10 154.06 L 145.12 154.24 C 144.19 154.41 143.57 155.30 143.73 156.23 C 143.90 157.16 144.79 157.78 145.72 157.61 Z M 146.84 157.40 L 147.79 157.15 C 148.71 156.91 149.25 155.97 149.01 155.06 C 148.76 154.14 147.83 153.60 146.91 153.84 L 145.96 154.09 C 145.05 154.34 144.50 155.27 144.75 156.19 C 144.99 157.10 145.93 157.65 146.84 157.40 Z M 147.95 157.10 L 148.86 156.76 C 149.75 156.43 150.20 155.44 149.87 154.55 C 149.53 153.67 148.55 153.22 147.66 153.55 L 146.75 153.89 C 145.87 154.23 145.42 155.21 145.75 156.10 C 146.08 156.98 147.07 157.43 147.95 157.10 Z M 149.04 156.68 L 149.87 156.26 C 150.72 155.83 151.05 154.80 150.62 153.95 C 150.19 153.11 149.16 152.77 148.32 153.20 L 147.49 153.63 C 146.64 154.06 146.31 155.09 146.74 155.93 C 147.17 156.77 148.20 157.11 149.04 156.68 Z M 150.03 156.17 L 150.82 155.65 C 151.62 155.14 151.85 154.08 151.33 153.28 C 150.82 152.49 149.76 152.26 148.96 152.78 L 148.17 153.29 C 147.37 153.81 147.15 154.87 147.66 155.66 C 148.17 156.45 149.23 156.68 150.03 156.17 Z M 150.95 155.57 L 151.72 154.96 C 152.46 154.38 152.60 153.31 152.01 152.56 C 151.43 151.81 150.35 151.68 149.61 152.26 L 148.84 152.86 C 148.09 153.45 147.96 154.52 148.54 155.27 C 149.12 156.02 150.20 156.15 150.95 155.57 Z M 151.81 154.88 L 152.57 154.20 C 153.27 153.57 153.32 152.48 152.69 151.78 C 152.05 151.08 150.97 151.03 150.27 151.66 L 149.51 152.34 C 148.81 152.98 148.76 154.06 149.39 154.76 C 150.03 155.47 151.11 155.52 151.81 154.88 Z M 152.64 154.14 L 153.38 153.38 C 154.05 152.71 154.04 151.62 153.37 150.95 C 152.69 150.29 151.61 150.30 150.94 150.97 L 150.19 151.73 C 149.53 152.40 149.54 153.49 150.21 154.15 C 150.89 154.82 151.97 154.81 152.64 154.14 Z M 153.43 153.33 L 154.14 152.56 C 154.77 151.85 154.72 150.77 154.02 150.13 C 153.32 149.49 152.23 149.55 151.59 150.25 L 150.89 151.02 C 150.25 151.72 150.31 152.81 151.01 153.45 C 151.71 154.09 152.80 154.03 153.43 153.33 Z M 154.18 152.52 L 154.82 151.76 C 155.44 151.03 155.35 149.94 154.63 149.33 C 153.90 148.71 152.81 148.80 152.20 149.52 L 151.55 150.29 C 150.93 151.01 151.02 152.10 151.75 152.72 C 152.47 153.33 153.56 153.24 154.18 152.52 Z M 154.87 151.72 L 155.50 150.92 C 156.09 150.17 155.97 149.08 155.22 148.49 C 154.47 147.89 153.38 148.02 152.79 148.77 L 152.15 149.56 C 151.56 150.31 151.69 151.40 152.43 152.00 C 153.18 152.59 154.27 152.47 154.87 151.72 Z M 155.55 150.87 L 156.15 150.05 C 156.72 149.28 156.55 148.19 155.78 147.62 C 155.01 147.05 153.92 147.21 153.35 147.99 L 152.74 148.81 C 152.17 149.59 152.34 150.67 153.11 151.24 C 153.89 151.81 154.98 151.65 155.55 150.87 Z M 156.20 149.99 L 156.77 149.15 C 157.30 148.35 157.09 147.27 156.29 146.73 C 155.49 146.19 154.41 146.40 153.87 147.20 L 153.30 148.04 C 152.76 148.84 152.97 149.93 153.77 150.47 C 154.58 151.01 155.66 150.79 156.20 149.99 Z M 156.82 149.09 L 157.33 148.24 C 157.83 147.41 157.57 146.33 156.74 145.83 C 155.91 145.33 154.83 145.59 154.33 146.42 L 153.81 147.27 C 153.31 148.10 153.58 149.18 154.41 149.68 C 155.24 150.18 156.32 149.92 156.82 149.09 Z M 157.39 148.15 L 157.85 147.28 C 158.30 146.42 157.97 145.36 157.11 144.90 C 156.24 144.45 155.18 144.78 154.72 145.64 L 154.27 146.51 C 153.81 147.37 154.14 148.44 155.01 148.89 C 155.87 149.35 156.94 149.01 157.39 148.15 Z M 157.91 147.17 L 158.33 146.19 C 158.72 145.30 158.31 144.25 157.41 143.86 C 156.51 143.47 155.47 143.89 155.08 144.79 L 154.66 145.76 C 154.27 146.66 154.68 147.70 155.58 148.09 C 156.48 148.48 157.52 148.07 157.91 147.17 Z M 158.39 146.06 L 158.72 145.10 C 159.03 144.17 158.53 143.15 157.60 142.84 C 156.67 142.52 155.66 143.02 155.34 143.96 L 155.02 144.92 C 154.70 145.85 155.20 146.86 156.14 147.18 C 157.07 147.49 158.08 146.99 158.39 146.06 Z M 158.77 144.96 L 159.01 144.00 C 159.25 143.04 158.66 142.07 157.70 141.83 C 156.74 141.59 155.77 142.18 155.53 143.14 L 155.29 144.10 C 155.05 145.06 155.64 146.03 156.60 146.27 C 157.56 146.50 158.53 145.92 158.77 144.96 Z M 159.05 143.86 L 159.20 142.91 C 159.37 141.93 158.70 141.00 157.72 140.84 C 156.74 140.68 155.81 141.34 155.65 142.32 L 155.49 143.28 C 155.33 144.26 155.99 145.19 156.97 145.35 C 157.96 145.51 158.88 144.85 159.05 143.86 Z M 159.23 142.78 L 159.32 141.82 C 159.41 140.83 158.67 139.95 157.68 139.86 C 156.68 139.76 155.80 140.50 155.71 141.49 L 155.62 142.45 C 155.53 143.45 156.27 144.33 157.26 144.42 C 158.26 144.51 159.14 143.78 159.23 142.78 Z M 159.33 141.70 L 159.35 140.70 C 159.38 139.70 158.58 138.86 157.57 138.84 C 156.57 138.82 155.74 139.62 155.72 140.62 L 155.69 141.62 C 155.67 142.62 156.47 143.46 157.47 143.48 C 158.48 143.50 159.31 142.70 159.33 141.70 Z M 159.36 140.55 L 159.30 139.55 C 159.24 138.54 158.37 137.77 157.36 137.84 C 156.36 137.90 155.59 138.76 155.65 139.77 L 155.71 140.77 C 155.77 141.78 156.64 142.55 157.65 142.48 C 158.65 142.42 159.42 141.56 159.36 140.55 Z M 159.28 139.36 L 159.12 138.37 C 158.95 137.38 158.01 136.70 157.01 136.87 C 156.01 137.04 155.33 137.98 155.50 138.98 L 155.67 139.96 C 155.83 140.96 156.78 141.63 157.78 141.47 C 158.78 141.30 159.45 140.35 159.28 139.36 Z M 159.07 138.14 L 158.78 137.19 C 158.48 136.22 157.45 135.67 156.48 135.97 C 155.51 136.27 154.96 137.30 155.26 138.27 L 155.55 139.22 C 155.85 140.19 156.88 140.73 157.85 140.44 C 158.82 140.14 159.37 139.11 159.07 138.14 Z M 158.68 136.92 L 158.25 136.03 C 157.80 135.11 156.69 134.73 155.78 135.18 C 154.86 135.63 154.48 136.73 154.93 137.65 L 155.36 138.54 C 155.81 139.46 156.91 139.84 157.83 139.39 C 158.75 138.94 159.13 137.84 158.68 136.92 Z M 158.09 135.76 L 157.53 134.98 C 156.93 134.15 155.78 133.96 154.95 134.56 C 154.12 135.16 153.93 136.31 154.52 137.14 L 155.08 137.92 C 155.68 138.75 156.84 138.94 157.67 138.34 C 158.50 137.75 158.69 136.59 158.09 135.76 Z M 157.36 134.77 L 156.69 134.09 C 155.98 133.35 154.81 133.33 154.07 134.04 C 153.34 134.76 153.32 135.93 154.03 136.66 L 154.70 137.35 C 155.41 138.09 156.58 138.11 157.32 137.39 C 158.05 136.68 158.07 135.51 157.36 134.77 Z M 156.54 133.95 L 155.78 133.31 C 154.99 132.66 153.82 132.77 153.17 133.56 C 152.52 134.35 152.63 135.52 153.42 136.17 L 154.18 136.80 C 154.97 137.46 156.14 137.34 156.79 136.56 C 157.44 135.77 157.33 134.60 156.54 133.95 Z M 155.65 133.22 L 154.81 132.64 C 153.97 132.05 152.82 132.26 152.23 133.11 C 151.65 133.95 151.86 135.10 152.70 135.69 L 153.54 136.27 C 154.38 136.85 155.54 136.64 156.12 135.80 C 156.70 134.96 156.49 133.80 155.65 133.22 Z M 154.71 132.57 L 153.83 132.04 C 152.95 131.51 151.81 131.80 151.28 132.67 C 150.75 133.55 151.04 134.69 151.92 135.22 L 152.80 135.75 C 153.68 136.28 154.82 135.99 155.35 135.12 C 155.87 134.24 155.59 133.10 154.71 132.57 Z M 153.75 132.00 L 152.84 131.51 C 151.94 131.02 150.81 131.36 150.33 132.26 C 149.84 133.16 150.18 134.29 151.08 134.77 L 151.99 135.26 C 152.89 135.75 154.02 135.41 154.50 134.51 C 154.99 133.61 154.65 132.48 153.75 132.00 Z M 152.78 131.48 L 151.91 131.04 C 150.99 130.59 149.88 130.97 149.42 131.89 C 148.97 132.80 149.34 133.92 150.26 134.37 L 151.14 134.80 C 152.06 135.26 153.17 134.88 153.63 133.96 C 154.08 133.04 153.70 131.93 152.78 131.48 Z M 151.86 131.02 L 150.97 130.62 C 150.04 130.19 148.95 130.60 148.52 131.53 C 148.09 132.46 148.50 133.56 149.43 133.99 L 150.31 134.39 C 151.24 134.82 152.34 134.41 152.77 133.48 C 153.19 132.55 152.79 131.45 151.86 131.02 Z M 150.93 130.60 L 150.03 130.22 C 149.09 129.82 148.01 130.26 147.61 131.20 C 147.21 132.14 147.64 133.22 148.58 133.62 L 149.48 134.01 C 150.42 134.41 151.51 133.97 151.91 133.03 C 152.31 132.09 151.87 131.00 150.93 130.60 Z M 150.00 130.21 L 149.08 129.84 C 148.13 129.46 147.05 129.92 146.67 130.86 C 146.29 131.81 146.75 132.89 147.70 133.27 L 148.62 133.64 C 149.57 134.02 150.64 133.56 151.03 132.61 C 151.41 131.66 150.94 130.59 150.00 130.21 Z M 149.05 129.83 L 148.09 129.46 C 147.14 129.10 146.07 129.58 145.71 130.53 C 145.34 131.48 145.82 132.55 146.77 132.91 L 147.73 133.28 C 148.68 133.64 149.75 133.16 150.11 132.21 C 150.48 131.26 150.00 130.19 149.05 129.83 Z M 148.07 129.46 L 147.07 129.09 C 146.12 128.74 145.06 129.23 144.70 130.18 C 144.35 131.14 144.84 132.20 145.80 132.55 L 146.80 132.92 C 147.75 133.27 148.81 132.78 149.16 131.83 C 149.52 130.87 149.03 129.81 148.07 129.46 Z M 147.06 129.09 L 146.15 128.76 C 145.20 128.42 144.14 128.91 143.80 129.87 C 143.45 130.83 143.95 131.88 144.91 132.23 L 145.81 132.55 C 146.77 132.90 147.82 132.40 148.17 131.44 C 148.51 130.49 148.01 129.43 147.06 129.09 Z M 146.14 128.76 L 145.20 128.44 C 144.24 128.10 143.20 128.60 142.86 129.56 C 142.52 130.51 143.03 131.56 143.98 131.90 L 144.92 132.23 C 145.88 132.56 146.92 132.06 147.26 131.10 C 147.59 130.15 147.09 129.10 146.14 128.76 Z M 145.18 128.44 L 144.22 128.11 C 143.27 127.78 142.23 128.29 141.90 129.25 C 141.58 130.20 142.09 131.24 143.04 131.57 L 144.00 131.89 C 144.95 132.22 145.99 131.71 146.32 130.76 C 146.65 129.80 146.14 128.76 145.18 128.44 Z M 144.20 128.11 L 143.23 127.79 C 142.28 127.47 141.25 127.99 140.93 128.95 C 140.62 129.90 141.14 130.93 142.09 131.24 L 143.06 131.56 C 144.01 131.88 145.04 131.36 145.36 130.41 C 145.67 129.45 145.16 128.42 144.20 128.11 Z M 143.21 127.79 L 142.24 127.48 C 141.28 127.18 140.26 127.71 139.96 128.66 C 139.66 129.61 140.19 130.63 141.14 130.94 L 142.11 131.24 C 143.07 131.55 144.09 131.02 144.39 130.06 C 144.69 129.11 144.16 128.09 143.21 127.79 Z M 142.21 127.48 L 141.25 127.19 C 140.29 126.90 139.29 127.44 139.00 128.40 C 138.71 129.35 139.25 130.36 140.21 130.65 L 141.17 130.94 C 142.12 131.22 143.13 130.68 143.42 129.73 C 143.71 128.77 143.17 127.77 142.21 127.48 Z M 141.22 127.19 L 140.25 126.92 C 139.30 126.65 138.31 127.20 138.04 128.16 C 137.77 129.11 138.32 130.11 139.28 130.38 L 140.24 130.65 C 141.20 130.92 142.19 130.36 142.46 129.41 C 142.73 128.45 142.17 127.46 141.22 127.19 Z M 140.21 126.92 L 139.19 126.66 C 138.24 126.41 137.26 126.98 137.02 127.93 C 136.77 128.88 137.34 129.86 138.29 130.10 L 139.32 130.37 C 140.27 130.62 141.24 130.05 141.49 129.09 C 141.74 128.14 141.16 127.17 140.21 126.92 Z M 139.15 126.67 L 138.15 126.43 C 137.21 126.21 136.26 126.79 136.04 127.74 C 135.81 128.68 136.39 129.63 137.34 129.85 L 138.33 130.09 C 139.28 130.31 140.22 129.73 140.45 128.79 C 140.67 127.84 140.09 126.90 139.15 126.67 Z M 138.12 126.45 L 137.14 126.24 C 136.21 126.03 135.28 126.62 135.08 127.55 C 134.87 128.49 135.46 129.41 136.40 129.62 L 137.37 129.83 C 138.30 130.04 139.23 129.45 139.43 128.52 C 139.64 127.58 139.05 126.66 138.12 126.45 Z M 137.12 126.26 L 136.16 126.06 C 135.23 125.87 134.33 126.46 134.14 127.38 C 133.95 128.31 134.54 129.21 135.47 129.40 L 136.42 129.60 C 137.35 129.79 138.25 129.20 138.44 128.27 C 138.63 127.35 138.04 126.45 137.12 126.26 Z M 136.14 126.08 L 135.19 125.89 C 134.28 125.71 133.39 126.30 133.21 127.22 C 133.03 128.13 133.63 129.01 134.54 129.19 L 135.49 129.38 C 136.40 129.56 137.28 128.97 137.46 128.06 C 137.64 127.14 137.05 126.26 136.14 126.08 Z M 135.18 125.91 L 134.32 125.75 C 133.42 125.57 132.55 126.16 132.37 127.06 C 132.20 127.96 132.79 128.83 133.69 129.01 L 134.55 129.17 C 135.45 129.35 136.32 128.76 136.50 127.86 C 136.67 126.96 136.08 126.09 135.18 125.91 Z"
      fill="black"
      fill-rule="nonzero" /></svg>