<svg xmlns="http://www.w3.org/2000/svg" width="300" height="300" viewBox="0 0 300 300">
<path d="M 151.84 140.15 L 150.74 140.03 C 149.81 139.92 148.97 140.59 148.87 141.52 C 148.76 142.45 149.43 143.29 150.36 143.40 L 151.45 143.52 C 152.38 143.63 153.22 142.96 153.33 142.03 C 153.44 141.10 152.77 140.26 151.84 140.15 Z M 150.73 140.02 L 149.65 139.90 C 148.71 139.80 147.87 140.48 147.77 141.41 C 147.67 142.35 148.35 143.19 149.28 143.29 L 150.37 143.40 C 151.30 143.50 152.14 142.83 152.24 141.89 C 152.34 140.96 151.67 140.12 150.73 140.02 Z M 149.62 139.89 L 148.55 139.79 C 147.61 139.70 146.78 140.40 146.69 141.34 C 146.61 142.28 147.30 143.11 148.24 143.20 L 149.31 143.30 C 150.25 143.38 151.08 142.69 151.17 141.75 C 151.26 140.81 150.56 139.98 149.62 139.89 Z M 148.52 139.78 L 147.47 139.71 C 146.52 139.64 145.70 140.36 145.64 141.30 C 145.57 142.25 146.29 143.07 147.23 143.14 L 148.28 143.21 C 149.22 143.27 150.04 142.56 150.11 141.61 C 150.18 140.67 149.46 139.85 148.52 139.78 Z M 147.41 139.70 L 146.40 139.66 C 145.45 139.63 144.65 140.37 144.62 141.32 C 144.58 142.27 145.32 143.07 146.27 143.11 L 147.29 143.15 C 148.24 143.18 149.04 142.44 149.07 141.49 C 149.11 140.53 148.37 139.73 147.41 139.70 Z M 146.33 139.65 L 145.36 139.66 C 144.40 139.67 143.63 140.45 143.64 141.40 C 143.64 142.36 144.42 143.13 145.38 143.12 L 146.35 143.12 C 147.31 143.11 148.08 142.33 148.07 141.37 C 148.06 140.42 147.28 139.65 146.33 139.65 Z M 145.26 139.66 L 144.33 139.71 C 143.37 139.78 142.65 140.60 142.71 141.56 C 142.77 142.52 143.60 143.25 144.56 143.19 L 145.48 143.13 C 146.44 143.06 147.17 142.24 147.10 141.28 C 147.04 140.32 146.21 139.59 145.26 139.66 Z M 144.20 139.72 L 143.34 139.84 C 142.38 139.98 141.72 140.86 141.85 141.81 C 141.98 142.77 142.87 143.44 143.82 143.30 L 144.69 143.18 C 145.64 143.05 146.31 142.16 146.17 141.21 C 146.04 140.25 145.16 139.59 144.20 139.72 Z M 143.16 139.87 L 142.27 140.09 C 141.33 140.32 140.76 141.27 140.99 142.21 C 141.22 143.15 142.17 143.72 143.11 143.49 L 144.00 143.27 C 144.94 143.04 145.51 142.09 145.28 141.15 C 145.05 140.21 144.10 139.64 143.16 139.87 Z M 142.04 140.16 L 141.08 140.54 C 140.18 140.90 139.75 141.93 140.11 142.83 C 140.47 143.73 141.49 144.17 142.39 143.80 L 143.35 143.42 C 144.25 143.06 144.68 142.04 144.32 141.14 C 143.96 140.24 142.94 139.80 142.04 140.16 Z M 140.84 140.66 L 139.99 141.16 C 139.16 141.66 138.88 142.74 139.38 143.58 C 139.88 144.41 140.96 144.69 141.79 144.19 L 142.64 143.69 C 143.47 143.19 143.75 142.11 143.25 141.27 C 142.75 140.44 141.67 140.16 140.84 140.66 Z M 139.78 141.31 L 139.03 141.92 C 138.27 142.54 138.16 143.65 138.78 144.40 C 139.39 145.15 140.50 145.27 141.26 144.65 L 142.00 144.04 C 142.76 143.43 142.87 142.32 142.26 141.56 C 141.64 140.81 140.53 140.70 139.78 141.31 Z M 138.86 142.08 L 138.19 142.78 C 137.52 143.49 137.56 144.61 138.26 145.28 C 138.97 145.95 140.09 145.91 140.76 145.20 L 141.43 144.50 C 142.09 143.79 142.06 142.67 141.35 142.00 C 140.64 141.34 139.53 141.37 138.86 142.08 Z M 138.07 142.93 L 137.47 143.72 C 136.88 144.50 137.03 145.61 137.81 146.19 C 138.59 146.78 139.70 146.63 140.29 145.85 L 140.88 145.06 C 141.47 144.28 141.32 143.17 140.54 142.58 C 139.76 142.00 138.65 142.15 138.07 142.93 Z M 137.38 143.85 L 136.84 144.71 C 136.32 145.54 136.57 146.63 137.40 147.15 C 138.23 147.67 139.32 147.41 139.84 146.59 L 140.38 145.72 C 140.90 144.90 140.65 143.80 139.82 143.29 C 138.99 142.77 137.90 143.02 137.38 143.85 Z M 136.78 144.81 L 136.31 145.68 C 135.84 146.54 136.16 147.62 137.02 148.08 C 137.89 148.55 138.96 148.22 139.42 147.36 L 139.90 146.49 C 140.36 145.63 140.04 144.55 139.18 144.09 C 138.32 143.63 137.24 143.95 136.78 144.81 Z M 136.26 145.77 L 135.83 146.68 C 135.42 147.56 135.79 148.62 136.68 149.03 C 137.56 149.45 138.62 149.07 139.03 148.19 L 139.47 147.28 C 139.88 146.40 139.51 145.34 138.62 144.92 C 137.74 144.50 136.68 144.88 136.26 145.77 Z M 135.80 146.75 L 135.41 147.69 C 135.03 148.59 135.45 149.63 136.36 150.01 C 137.26 150.38 138.30 149.96 138.67 149.06 L 139.07 148.12 C 139.45 147.22 139.02 146.18 138.12 145.80 C 137.22 145.42 136.18 145.85 135.80 146.75 Z M 135.38 147.75 L 135.03 148.71 C 134.68 149.62 135.15 150.64 136.07 150.99 C 136.98 151.33 138.00 150.86 138.34 149.95 L 138.70 148.99 C 139.04 148.07 138.58 147.05 137.66 146.71 C 136.74 146.37 135.72 146.84 135.38 147.75 Z M 135.00 148.77 L 134.69 149.73 C 134.38 150.66 134.88 151.66 135.81 151.97 C 136.74 152.27 137.74 151.77 138.05 150.84 L 138.37 149.89 C 138.67 148.96 138.17 147.95 137.24 147.65 C 136.31 147.34 135.31 147.84 135.00 148.77 Z M 134.67 149.78 L 134.39 150.74 C 134.11 151.67 134.65 152.66 135.58 152.93 C 136.52 153.21 137.51 152.68 137.78 151.74 L 138.06 150.79 C 138.34 149.85 137.81 148.87 136.87 148.59 C 135.93 148.31 134.95 148.85 134.67 149.78 Z M 134.37 150.79 L 134.13 151.72 C 133.88 152.67 134.45 153.63 135.39 153.88 C 136.34 154.13 137.31 153.56 137.55 152.62 L 137.80 151.69 C 138.05 150.74 137.48 149.77 136.53 149.52 C 135.59 149.28 134.62 149.84 134.37 150.79 Z M 134.11 151.78 L 133.88 152.81 C 133.66 153.76 134.26 154.71 135.21 154.93 C 136.17 155.15 137.12 154.55 137.33 153.60 L 137.57 152.56 C 137.78 151.61 137.19 150.66 136.23 150.44 C 135.28 150.22 134.33 150.82 134.11 151.78 Z M 133.87 152.87 L 133.68 153.87 C 133.49 154.83 134.12 155.76 135.08 155.94 C 136.04 156.13 136.97 155.50 137.15 154.54 L 137.35 153.54 C 137.53 152.58 136.90 151.65 135.94 151.46 C 134.98 151.28 134.05 151.91 133.87 152.87 Z M 133.66 153.93 L 133.51 154.91 C 133.36 155.88 134.02 156.78 134.98 156.93 C 135.95 157.09 136.86 156.43 137.01 155.46 L 137.16 154.48 C 137.32 153.52 136.66 152.61 135.69 152.46 C 134.72 152.30 133.82 152.96 133.66 153.93 Z M 133.50 154.96 L 133.38 155.93 C 133.26 156.90 133.94 157.79 134.91 157.91 C 135.88 158.03 136.77 157.35 136.89 156.38 L 137.02 155.41 C 137.14 154.44 136.45 153.55 135.48 153.43 C 134.51 153.30 133.63 153.99 133.50 154.96 Z M 133.37 155.97 L 133.28 156.94 C 133.18 157.91 133.88 158.78 134.86 158.88 C 135.83 158.98 136.70 158.27 136.80 157.30 L 136.90 156.33 C 137.00 155.36 136.29 154.49 135.32 154.39 C 134.34 154.29 133.47 155.00 133.37 155.97 Z M 133.27 156.97 L 133.19 157.95 C 133.11 158.92 133.84 159.78 134.81 159.86 C 135.79 159.94 136.64 159.21 136.72 158.24 L 136.80 157.26 C 136.88 156.29 136.16 155.43 135.18 155.35 C 134.21 155.27 133.35 156.00 133.27 156.97 Z M 133.19 157.97 L 133.12 158.94 C 133.06 159.91 133.79 160.76 134.77 160.83 C 135.75 160.89 136.59 160.16 136.66 159.18 L 136.73 158.21 C 136.79 157.24 136.05 156.39 135.08 156.32 C 134.10 156.26 133.26 157.00 133.19 157.97 Z M 133.12 158.96 L 133.07 159.94 C 133.01 160.92 133.76 161.76 134.74 161.81 C 135.72 161.86 136.55 161.12 136.61 160.14 L 136.66 159.16 C 136.71 158.18 135.97 157.34 134.99 157.29 C 134.01 157.23 133.17 157.98 133.12 158.96 Z M 133.07 159.97 L 133.02 160.96 C 132.98 161.94 133.74 162.77 134.72 162.81 C 135.70 162.85 136.53 162.09 136.57 161.11 L 136.61 160.12 C 136.65 159.14 135.89 158.31 134.91 158.27 C 133.93 158.23 133.11 158.99 133.07 159.97 Z M 133.02 160.98 L 132.99 161.99 C 132.96 162.97 133.73 163.79 134.71 163.82 C 135.69 163.85 136.51 163.08 136.54 162.10 L 136.57 161.09 C 136.60 160.11 135.83 159.29 134.85 159.26 C 133.87 159.23 133.05 160.00 133.02 160.98 Z M 132.99 162.01 L 132.97 163.03 C 132.96 164.01 133.74 164.82 134.71 164.84 C 135.69 164.85 136.50 164.07 136.52 163.09 L 136.54 162.08 C 136.56 161.10 135.78 160.29 134.80 160.27 C 133.82 160.25 133.01 161.03 132.99 162.01 Z M 132.97 163.05 L 132.97 164.08 C 132.96 165.06 133.75 165.86 134.73 165.86 C 135.71 165.87 136.51 165.08 136.51 164.10 L 136.52 163.07 C 136.53 162.09 135.74 161.29 134.76 161.29 C 133.78 161.28 132.98 162.07 132.97 163.05 Z M 132.97 164.10 L 132.97 165.12 C 132.98 166.10 133.78 166.89 134.76 166.89 C 135.74 166.88 136.53 166.08 136.52 165.10 L 136.52 164.08 C 136.51 163.10 135.71 162.31 134.73 162.31 C 133.75 162.32 132.96 163.12 132.97 164.10 Z M 132.97 165.16 L 133.00 166.18 C 133.02 167.16 133.84 167.94 134.82 167.91 C 135.80 167.89 136.57 167.07 136.55 166.09 L 136.52 165.07 C 136.50 164.09 135.68 163.31 134.70 163.34 C 133.72 163.36 132.95 164.18 132.97 165.16 Z M 133.00 166.23 L 133.05 167.24 C 133.10 168.22 133.93 168.98 134.91 168.93 C 135.89 168.88 136.65 168.04 136.60 167.06 L 136.54 166.05 C 136.49 165.07 135.66 164.31 134.68 164.36 C 133.70 164.41 132.95 165.25 133.00 166.23 Z M 133.05 167.30 L 133.14 168.30 C 133.22 169.28 134.08 170.00 135.06 169.92 C 136.04 169.84 136.76 168.98 136.68 168.00 L 136.59 167.00 C 136.51 166.02 135.65 165.30 134.67 165.38 C 133.69 165.47 132.97 166.33 133.05 167.30 Z M 133.15 168.38 L 133.28 169.36 C 133.40 170.33 134.30 171.01 135.27 170.89 C 136.24 170.76 136.93 169.87 136.80 168.89 L 136.67 167.92 C 136.54 166.95 135.65 166.26 134.68 166.39 C 133.71 166.52 133.02 167.41 133.15 168.38 Z M 133.29 169.45 L 133.47 170.40 C 133.65 171.36 134.58 171.99 135.54 171.81 C 136.51 171.63 137.14 170.70 136.96 169.74 L 136.78 168.80 C 136.60 167.83 135.67 167.20 134.71 167.38 C 133.74 167.56 133.11 168.49 133.29 169.45 Z M 133.50 170.52 L 133.74 171.46 C 133.99 172.41 134.96 172.98 135.91 172.73 C 136.86 172.49 137.43 171.51 137.18 170.57 L 136.93 169.62 C 136.69 168.67 135.72 168.10 134.77 168.35 C 133.82 168.60 133.25 169.57 133.50 170.52 Z M 133.78 171.60 L 134.10 172.52 C 134.43 173.44 135.44 173.93 136.37 173.61 C 137.29 173.29 137.78 172.27 137.46 171.35 L 137.14 170.43 C 136.82 169.50 135.80 169.01 134.88 169.34 C 133.95 169.66 133.46 170.67 133.78 171.60 Z M 134.16 172.66 L 134.55 173.54 C 134.95 174.44 136.01 174.84 136.90 174.44 C 137.80 174.04 138.20 172.99 137.80 172.09 L 137.40 171.21 C 137.00 170.31 135.95 169.91 135.06 170.31 C 134.16 170.71 133.76 171.76 134.16 172.66 Z M 134.62 173.68 L 135.10 174.54 C 135.57 175.40 136.66 175.71 137.51 175.23 C 138.37 174.76 138.68 173.68 138.21 172.82 L 137.73 171.96 C 137.26 171.10 136.17 170.79 135.32 171.26 C 134.46 171.74 134.15 172.82 134.62 173.68 Z M 135.18 174.67 L 135.74 175.51 C 136.29 176.33 137.39 176.55 138.20 176.01 C 139.02 175.46 139.24 174.36 138.70 173.54 L 138.13 172.69 C 137.59 171.88 136.48 171.66 135.67 172.20 C 134.85 172.75 134.63 173.85 135.18 174.67 Z M 135.82 175.62 L 136.48 176.46 C 137.08 177.23 138.20 177.37 138.97 176.76 C 139.74 176.16 139.88 175.04 139.27 174.27 L 138.62 173.43 C 138.01 172.66 136.89 172.52 136.12 173.13 C 135.35 173.73 135.22 174.85 135.82 175.62 Z M 136.55 176.55 L 137.17 177.24 C 137.83 177.98 138.95 178.04 139.68 177.39 C 140.41 176.73 140.48 175.61 139.82 174.88 L 139.20 174.18 C 138.55 173.45 137.42 173.38 136.69 174.04 C 135.96 174.69 135.90 175.82 136.55 176.55 Z M 137.25 177.32 L 137.93 178.01 C 138.63 178.70 139.76 178.69 140.45 178.00 C 141.14 177.30 141.13 176.17 140.44 175.48 L 139.75 174.80 C 139.05 174.11 137.93 174.11 137.24 174.81 C 136.54 175.50 136.55 176.63 137.25 177.32 Z M 138.01 178.08 L 138.76 178.74 C 139.50 179.38 140.63 179.31 141.27 178.57 C 141.92 177.83 141.84 176.71 141.11 176.06 L 140.36 175.41 C 139.62 174.76 138.49 174.83 137.85 175.57 C 137.20 176.31 137.28 177.44 138.01 178.08 Z M 138.86 178.81 L 139.66 179.43 C 140.44 180.02 141.56 179.87 142.16 179.09 C 142.75 178.31 142.60 177.19 141.82 176.60 L 141.01 175.98 C 140.23 175.39 139.11 175.54 138.52 176.32 C 137.92 177.10 138.08 178.22 138.86 178.81 Z M 139.77 179.50 L 140.63 180.06 C 141.45 180.60 142.56 180.36 143.09 179.54 C 143.63 178.71 143.39 177.61 142.57 177.08 L 141.71 176.52 C 140.88 175.98 139.78 176.22 139.25 177.04 C 138.71 177.87 138.95 178.97 139.77 179.50 Z M 140.76 180.14 L 141.66 180.62 C 142.53 181.09 143.61 180.76 144.07 179.90 C 144.54 179.03 144.21 177.95 143.35 177.49 L 142.44 177.00 C 141.57 176.54 140.50 176.86 140.03 177.73 C 139.56 178.59 139.89 179.67 140.76 180.14 Z M 141.81 180.70 L 142.76 181.10 C 143.67 181.48 144.71 181.06 145.09 180.16 C 145.48 179.25 145.06 178.20 144.15 177.82 L 143.20 177.42 C 142.30 177.03 141.25 177.46 140.87 178.36 C 140.48 179.27 140.90 180.31 141.81 180.70 Z M 142.92 181.16 L 143.89 181.46 C 144.83 181.76 145.83 181.23 146.12 180.29 C 146.42 179.36 145.89 178.36 144.95 178.06 L 143.99 177.76 C 143.05 177.46 142.05 177.99 141.75 178.93 C 141.46 179.87 141.98 180.87 142.92 181.16 Z M 144.06 181.51 L 145.05 181.72 C 146.01 181.92 146.96 181.30 147.16 180.34 C 147.36 179.37 146.75 178.43 145.78 178.23 L 144.79 178.02 C 143.82 177.81 142.88 178.43 142.68 179.40 C 142.47 180.36 143.09 181.31 144.06 181.51 Z M 145.22 181.74 L 146.22 181.86 C 147.20 181.97 148.08 181.26 148.19 180.28 C 148.30 179.30 147.60 178.42 146.62 178.31 L 145.61 178.20 C 144.63 178.09 143.75 178.79 143.64 179.77 C 143.53 180.75 144.24 181.64 145.22 181.74 Z M 146.40 181.87 L 147.40 181.88 C 148.39 181.89 149.20 181.10 149.21 180.12 C 149.22 179.13 148.43 178.32 147.44 178.31 L 146.44 178.30 C 145.45 178.28 144.64 179.07 144.63 180.06 C 144.62 181.05 145.41 181.86 146.40 181.87 Z M 147.58 181.88 L 148.57 181.79 C 149.56 181.70 150.28 180.83 150.20 179.84 C 150.11 178.86 149.24 178.13 148.25 178.22 L 147.26 178.31 C 146.28 178.40 145.55 179.27 145.64 180.26 C 145.73 181.24 146.60 181.96 147.58 181.88 Z M 148.77 181.76 L 149.73 181.57 C 150.70 181.37 151.33 180.43 151.13 179.46 C 150.94 178.49 149.99 177.86 149.03 178.06 L 148.06 178.25 C 147.09 178.44 146.46 179.39 146.66 180.36 C 146.85 181.33 147.80 181.95 148.77 181.76 Z M 149.93 181.51 L 150.86 181.21 C 151.80 180.91 152.31 179.90 152.01 178.96 C 151.70 178.02 150.69 177.50 149.75 177.81 L 148.82 178.11 C 147.88 178.41 147.37 179.42 147.67 180.36 C 147.98 181.31 148.99 181.82 149.93 181.51 Z M 151.06 181.13 L 151.98 180.71 C 152.88 180.29 153.26 179.22 152.84 178.32 C 152.42 177.42 151.36 177.04 150.46 177.46 L 149.54 177.89 C 148.65 178.31 148.26 179.37 148.68 180.27 C 149.10 181.17 150.17 181.55 151.06 181.13 Z M 152.16 180.61 L 153.02 180.08 C 153.87 179.55 154.13 178.45 153.60 177.61 C 153.08 176.76 151.98 176.50 151.13 177.02 L 150.27 177.55 C 149.43 178.08 149.17 179.18 149.69 180.03 C 150.21 180.87 151.32 181.13 152.16 180.61 Z M 153.17 179.97 L 153.97 179.36 C 154.76 178.76 154.91 177.63 154.30 176.84 C 153.70 176.05 152.57 175.91 151.79 176.51 L 150.98 177.12 C 150.20 177.73 150.05 178.86 150.65 179.64 C 151.26 180.43 152.39 180.58 153.17 179.97 Z M 154.09 179.26 L 154.84 178.58 C 155.57 177.91 155.62 176.77 154.95 176.04 C 154.28 175.31 153.14 175.26 152.41 175.93 L 151.67 176.61 C 150.93 177.28 150.88 178.42 151.55 179.15 C 152.22 179.88 153.36 179.93 154.09 179.26 Z M 154.93 178.49 L 155.62 177.76 C 156.30 177.04 156.27 175.90 155.54 175.22 C 154.82 174.54 153.68 174.57 153.00 175.29 L 152.31 176.02 C 151.63 176.74 151.67 177.88 152.39 178.56 C 153.11 179.25 154.25 179.21 154.93 178.49 Z M 155.69 177.68 L 156.32 176.92 C 156.96 176.16 156.85 175.02 156.09 174.39 C 155.32 173.75 154.19 173.86 153.55 174.62 L 152.92 175.38 C 152.29 176.14 152.39 177.28 153.16 177.91 C 153.92 178.55 155.06 178.44 155.69 177.68 Z M 156.38 176.85 L 156.96 176.07 C 157.55 175.28 157.39 174.15 156.59 173.55 C 155.79 172.96 154.66 173.12 154.07 173.92 L 153.49 174.69 C 152.90 175.49 153.06 176.62 153.86 177.22 C 154.66 177.81 155.79 177.65 156.38 176.85 Z M 157.01 176.00 L 157.55 175.20 C 158.11 174.37 157.89 173.25 157.06 172.69 C 156.23 172.14 155.11 172.36 154.55 173.19 L 154.01 173.99 C 153.46 174.82 153.68 175.94 154.51 176.50 C 155.34 177.05 156.46 176.83 157.01 176.00 Z M 157.60 175.12 L 158.09 174.30 C 158.60 173.44 158.32 172.33 157.47 171.82 C 156.61 171.31 155.50 171.59 154.99 172.45 L 154.50 173.27 C 153.99 174.12 154.27 175.23 155.13 175.74 C 155.99 176.25 157.09 175.97 157.60 175.12 Z M 158.14 174.22 L 158.59 173.37 C 159.05 172.49 158.71 171.39 157.83 170.93 C 156.95 170.46 155.86 170.80 155.39 171.68 L 154.94 172.53 C 154.48 173.41 154.82 174.51 155.70 174.97 C 156.58 175.44 157.67 175.10 158.14 174.22 Z M 158.63 173.29 L 159.04 172.40 C 159.46 171.50 159.07 170.42 158.17 170.00 C 157.26 169.58 156.19 169.97 155.76 170.87 L 155.35 171.76 C 154.93 172.67 155.32 173.74 156.22 174.17 C 157.13 174.59 158.20 174.20 158.63 173.29 Z M 159.07 172.33 L 159.47 171.38 C 159.85 170.46 159.41 169.40 158.49 169.02 C 157.56 168.64 156.51 169.08 156.12 170.00 L 155.73 170.95 C 155.35 171.87 155.79 172.93 156.71 173.31 C 157.63 173.69 158.69 173.25 159.07 172.33 Z M 159.49 171.32 L 159.87 170.31 C 160.22 169.37 159.74 168.33 158.81 167.98 C 157.87 167.63 156.83 168.10 156.48 169.04 L 156.10 170.06 C 155.75 171.00 156.23 172.04 157.16 172.39 C 158.10 172.74 159.14 172.26 159.49 171.32 Z M 159.89 170.26 L 160.21 169.32 C 160.53 168.38 160.03 167.35 159.09 167.02 C 158.14 166.70 157.11 167.20 156.78 168.15 L 156.46 169.09 C 156.14 170.03 156.64 171.06 157.59 171.39 C 158.53 171.71 159.56 171.21 159.89 170.26 Z M 160.22 169.29 L 160.53 168.35 C 160.83 167.39 160.31 166.37 159.36 166.07 C 158.40 165.76 157.38 166.28 157.08 167.24 L 156.77 168.18 C 156.47 169.13 156.99 170.15 157.94 170.46 C 158.89 170.77 159.92 170.24 160.22 169.29 Z M 160.54 168.32 L 160.83 167.34 C 161.12 166.38 160.58 165.37 159.62 165.08 C 158.67 164.79 157.65 165.33 157.36 166.29 L 157.07 167.26 C 156.78 168.22 157.32 169.23 158.27 169.53 C 159.23 169.82 160.24 169.27 160.54 168.32 Z M 160.84 167.31 L 161.13 166.32 C 161.40 165.35 160.84 164.35 159.88 164.07 C 158.92 163.80 157.91 164.35 157.64 165.32 L 157.35 166.31 C 157.08 167.28 157.64 168.28 158.60 168.56 C 159.56 168.83 160.57 168.28 160.84 167.31 Z M 161.13 166.29 L 161.40 165.29 C 161.67 164.32 161.09 163.32 160.13 163.06 C 159.16 162.80 158.16 163.37 157.90 164.34 L 157.63 165.34 C 157.37 166.31 157.94 167.31 158.91 167.57 C 159.88 167.83 160.87 167.26 161.13 166.29 Z M 161.41 165.26 L 161.66 164.27 C 161.91 163.30 161.32 162.31 160.35 162.06 C 159.38 161.82 158.39 162.41 158.14 163.38 L 157.89 164.37 C 157.65 165.34 158.23 166.33 159.21 166.58 C 160.18 166.82 161.17 166.23 161.41 165.26 Z M 161.67 164.24 L 161.90 163.28 C 162.13 162.30 161.52 161.32 160.55 161.09 C 159.57 160.86 158.59 161.47 158.36 162.44 L 158.14 163.41 C 157.91 164.38 158.51 165.36 159.49 165.59 C 160.46 165.82 161.44 165.22 161.67 164.24 Z M 161.91 163.24 L 162.11 162.32 C 162.32 161.34 161.70 160.37 160.72 160.16 C 159.73 159.95 158.77 160.57 158.55 161.55 L 158.35 162.47 C 158.14 163.46 158.77 164.42 159.75 164.64 C 160.73 164.85 161.70 164.23 161.91 163.24 Z M 162.12 162.28 L 162.33 161.19 C 162.51 160.21 161.87 159.25 160.88 159.06 C 159.89 158.88 158.94 159.52 158.75 160.51 L 158.55 161.59 C 158.36 162.58 159.00 163.53 159.99 163.72 C 160.98 163.91 161.93 163.26 162.12 162.28 Z M 162.33 161.14 L 162.50 160.10 C 162.66 159.11 161.99 158.17 161.00 158.01 C 160.00 157.86 159.07 158.53 158.91 159.52 L 158.74 160.56 C 158.58 161.55 159.26 162.49 160.25 162.65 C 161.24 162.81 162.18 162.13 162.33 161.14 Z M 162.51 160.04 L 162.64 159.06 C 162.77 158.06 162.06 157.15 161.07 157.02 C 160.07 156.89 159.16 157.60 159.03 158.59 L 158.90 159.58 C 158.77 160.57 159.48 161.49 160.47 161.61 C 161.47 161.74 162.38 161.04 162.51 160.04 Z M 162.64 159.00 L 162.74 158.05 C 162.84 157.05 162.11 156.16 161.11 156.06 C 160.11 155.96 159.22 156.69 159.12 157.69 L 159.02 158.65 C 158.92 159.65 159.66 160.54 160.66 160.64 C 161.66 160.73 162.55 160.00 162.64 159.00 Z M 162.74 158.00 L 162.81 157.06 C 162.88 156.06 162.13 155.19 161.12 155.12 C 160.12 155.05 159.25 155.80 159.18 156.80 L 159.11 157.74 C 159.04 158.75 159.80 159.62 160.80 159.69 C 161.80 159.76 162.67 159.01 162.74 158.00 Z M 162.81 157.02 L 162.86 156.07 C 162.91 155.07 162.14 154.22 161.13 154.17 C 160.13 154.12 159.27 154.89 159.22 155.89 L 159.18 156.84 C 159.13 157.85 159.90 158.70 160.90 158.75 C 161.91 158.80 162.76 158.03 162.81 157.02 Z M 162.86 156.05 L 162.89 155.07 C 162.93 154.07 162.14 153.22 161.14 153.19 C 160.13 153.16 159.29 153.94 159.25 154.95 L 159.22 155.92 C 159.19 156.93 159.98 157.77 160.98 157.80 C 161.99 157.84 162.83 157.05 162.86 156.05 Z M 162.89 155.04 L 162.91 154.04 C 162.93 153.03 162.13 152.20 161.12 152.19 C 160.11 152.17 159.29 152.97 159.27 153.98 L 159.25 154.98 C 159.24 155.99 160.04 156.81 161.04 156.83 C 162.05 156.85 162.88 156.04 162.89 155.04 Z M 162.91 154.00 L 162.90 152.98 C 162.90 151.98 162.08 151.17 161.07 151.17 C 160.07 151.18 159.26 152.00 159.26 153.01 L 159.27 154.02 C 159.28 155.03 160.10 155.84 161.10 155.83 C 162.11 155.82 162.92 155.00 162.91 154.00 Z M 162.90 152.93 L 162.87 151.91 C 162.83 150.91 161.99 150.12 160.98 150.16 C 159.98 150.20 159.19 151.04 159.23 152.05 L 159.26 153.06 C 159.30 154.07 160.14 154.85 161.15 154.81 C 162.15 154.78 162.94 153.93 162.90 152.93 Z M 162.86 151.85 L 162.79 150.84 C 162.72 149.84 161.84 149.09 160.84 149.16 C 159.84 149.23 159.08 150.10 159.16 151.11 L 159.23 152.11 C 159.30 153.11 160.18 153.87 161.18 153.80 C 162.18 153.72 162.94 152.85 162.86 151.85 Z M 162.78 150.76 L 162.67 149.78 C 162.55 148.78 161.64 148.07 160.64 148.19 C 159.65 148.30 158.93 149.21 159.05 150.21 L 159.17 151.19 C 159.28 152.19 160.19 152.90 161.19 152.78 C 162.19 152.66 162.90 151.76 162.78 150.76 Z M 162.65 149.68 L 162.47 148.66 C 162.29 147.67 161.35 147.01 160.36 147.18 C 159.37 147.36 158.71 148.30 158.88 149.29 L 159.07 150.31 C 159.24 151.30 160.19 151.96 161.18 151.79 C 162.17 151.61 162.83 150.67 162.65 149.68 Z M 162.44 148.52 L 162.18 147.51 C 161.93 146.54 160.94 145.95 159.97 146.20 C 158.99 146.45 158.40 147.44 158.65 148.41 L 158.91 149.43 C 159.16 150.40 160.15 150.99 161.13 150.74 C 162.10 150.49 162.69 149.50 162.44 148.52 Z M 162.13 147.35 L 161.79 146.40 C 161.46 145.45 160.42 144.96 159.47 145.29 C 158.52 145.63 158.03 146.67 158.36 147.62 L 158.70 148.57 C 159.04 149.52 160.08 150.01 161.03 149.68 C 161.97 149.34 162.47 148.30 162.13 147.35 Z M 161.72 146.22 L 161.30 145.34 C 160.86 144.43 159.77 144.05 158.87 144.48 C 157.96 144.92 157.58 146.01 158.02 146.91 L 158.44 147.79 C 158.87 148.70 159.96 149.08 160.87 148.65 C 161.77 148.21 162.15 147.13 161.72 146.22 Z M 161.19 145.14 L 160.67 144.34 C 160.13 143.49 159.01 143.25 158.16 143.79 C 157.31 144.33 157.07 145.45 157.61 146.30 L 158.12 147.11 C 158.67 147.95 159.79 148.20 160.64 147.66 C 161.48 147.12 161.73 145.99 161.19 145.14 Z M 160.52 144.14 L 159.91 143.42 C 159.25 142.65 158.11 142.56 157.34 143.21 C 156.58 143.86 156.49 145.01 157.14 145.77 L 157.76 146.50 C 158.41 147.26 159.56 147.36 160.32 146.70 C 161.08 146.05 161.18 144.90 160.52 144.14 Z M 159.72 143.23 L 158.98 142.58 C 158.23 141.92 157.08 141.99 156.42 142.74 C 155.76 143.50 155.83 144.64 156.58 145.30 L 157.32 145.96 C 158.08 146.62 159.22 146.55 159.88 145.79 C 160.55 145.04 160.47 143.90 159.72 143.23 Z M 158.79 142.44 L 157.96 141.89 C 157.13 141.33 156.01 141.55 155.45 142.38 C 154.90 143.21 155.12 144.33 155.95 144.89 L 156.77 145.44 C 157.60 146.00 158.73 145.78 159.28 144.95 C 159.84 144.12 159.62 143.00 158.79 142.44 Z M 157.78 141.78 L 156.88 141.32 C 156.00 140.87 154.91 141.22 154.46 142.10 C 154.00 142.99 154.35 144.07 155.23 144.53 L 156.13 144.99 C 157.01 145.44 158.10 145.09 158.55 144.21 C 159.01 143.32 158.66 142.24 157.78 141.78 Z M 156.70 141.25 L 155.77 140.89 C 154.84 140.53 153.80 140.99 153.44 141.92 C 153.09 142.84 153.55 143.88 154.47 144.24 L 155.41 144.60 C 156.33 144.96 157.37 144.50 157.73 143.57 C 158.09 142.65 157.63 141.61 156.70 141.25 Z M 155.60 140.84 L 154.63 140.57 C 153.68 140.31 152.70 140.87 152.43 141.82 C 152.17 142.77 152.73 143.76 153.68 144.02 L 154.64 144.29 C 155.59 144.55 156.58 143.99 156.84 143.04 C 157.10 142.09 156.55 141.10 155.60 140.84 Z M 154.46 140.55 L 153.47 140.38 C 152.51 140.21 151.59 140.85 151.42 141.81 C 151.25 142.77 151.89 143.69 152.85 143.86 L 153.85 144.04 C 154.81 144.21 155.73 143.57 155.90 142.61 C 156.07 141.64 155.43 140.72 154.46 140.55 Z M 153.32 140.39 L 152.33 140.30 C 151.37 140.21 150.52 140.91 150.43 141.86 C 150.35 142.82 151.05 143.67 152.00 143.76 L 153.00 143.85 C 153.96 143.94 154.80 143.24 154.89 142.28 C 154.98 141.33 154.28 140.48 153.32 140.39 Z M 152.22 140.32 L 151.22 140.29 C 150.28 140.26 149.49 141.00 149.46 141.95 C 149.44 142.89 150.18 143.68 151.12 143.70 L 152.12 143.73 C 153.06 143.76 153.85 143.02 153.87 142.08 C 153.90 141.14 153.16 140.35 152.22 140.32 Z M 151.15 140.32 L 150.15 140.34 C 149.23 140.35 148.49 141.11 148.50 142.04 C 148.51 142.96 149.27 143.70 150.20 143.69 L 151.19 143.67 C 152.12 143.66 152.86 142.90 152.85 141.97 C 152.83 141.05 152.07 140.31 151.15 140.32 Z M 150.11 140.37 L 149.12 140.41 C 148.21 140.44 147.50 141.20 147.54 142.11 C 147.57 143.02 148.34 143.73 149.24 143.69 L 150.24 143.65 C 151.15 143.62 151.85 142.86 151.82 141.95 C 151.78 141.04 151.02 140.34 150.11 140.37 Z M 149.11 140.43 L 148.93 140.43 C 148.03 140.47 147.34 141.23 147.38 142.13 C 147.41 143.02 148.17 143.72 149.07 143.68 L 149.25 143.67 C 150.15 143.63 150.84 142.88 150.80 141.98 C 150.76 141.08 150.01 140.39 149.11 140.43 Z"
      fill="black"
      fill-rule="nonzero" /></svg>