<svg xmlns="http://www.w3.org/2000/svg" width="300" height="300" viewBox="0 0 300 300">
<path d="M 142.57 135.61 L 141.55 135.91 C 140.67 136.18 140.17 137.11 140.43 137.99 C 140.70 138.87 141.63 139.37 142.51 139.11 L 143.52 138.80 C 144.41 138.54 144.91 137.61 144.64 136.73 C 144.38 135.84 143.45 135.34 142.57 135.61 Z M 141.52 135.92 L 140.53 136.24 C 139.65 136.52 139.16 137.46 139.45 138.34 C 139.73 139.22 140.67 139.71 141.55 139.42 L 142.55 139.10 C 143.42 138.82 143.91 137.88 143.62 137.00 C 143.34 136.12 142.40 135.64 141.52 135.92 Z M 140.46 136.26 L 139.50 136.61 C 138.63 136.93 138.19 137.90 138.51 138.76 C 138.83 139.63 139.79 140.08 140.66 139.76 L 141.62 139.40 C 142.49 139.08 142.93 138.12 142.61 137.25 C 142.29 136.38 141.33 135.94 140.46 136.26 Z M 139.40 136.65 L 138.50 137.05 C 137.65 137.43 137.27 138.42 137.65 139.27 C 138.03 140.12 139.02 140.50 139.87 140.12 L 140.77 139.72 C 141.61 139.34 141.99 138.35 141.62 137.50 C 141.24 136.65 140.24 136.27 139.40 136.65 Z M 138.35 137.12 L 137.53 137.59 C 136.72 138.05 136.43 139.07 136.89 139.88 C 137.35 140.69 138.37 140.98 139.18 140.52 L 140.01 140.05 C 140.82 139.59 141.10 138.57 140.65 137.76 C 140.19 136.95 139.16 136.66 138.35 137.12 Z M 137.34 137.71 L 136.60 138.26 C 135.86 138.82 135.71 139.88 136.27 140.62 C 136.83 141.36 137.88 141.52 138.63 140.96 L 139.37 140.40 C 140.11 139.84 140.26 138.79 139.70 138.04 C 139.14 137.30 138.09 137.15 137.34 137.71 Z M 136.40 138.43 L 135.75 139.11 C 135.10 139.78 135.11 140.85 135.78 141.50 C 136.45 142.15 137.52 142.13 138.17 141.46 L 138.83 140.78 C 139.48 140.11 139.46 139.04 138.79 138.39 C 138.12 137.74 137.05 137.76 136.40 138.43 Z M 135.58 139.31 L 135.03 140.08 C 134.49 140.85 134.67 141.90 135.43 142.44 C 136.19 142.99 137.25 142.80 137.79 142.04 L 138.34 141.27 C 138.88 140.50 138.70 139.44 137.94 138.90 C 137.17 138.36 136.12 138.54 135.58 139.31 Z M 134.91 140.27 L 134.45 141.14 C 134.02 141.97 134.34 143.00 135.17 143.43 C 136.00 143.87 137.03 143.55 137.46 142.72 L 137.91 141.85 C 138.35 141.02 138.03 139.99 137.20 139.56 C 136.37 139.12 135.34 139.44 134.91 140.27 Z M 134.37 141.31 L 134.00 142.26 C 133.66 143.14 134.09 144.12 134.97 144.46 C 135.85 144.80 136.83 144.37 137.17 143.49 L 137.54 142.55 C 137.88 141.67 137.45 140.68 136.57 140.34 C 135.70 140.00 134.71 140.44 134.37 141.31 Z M 133.95 142.40 L 133.65 143.43 C 133.39 144.33 133.91 145.28 134.82 145.54 C 135.72 145.80 136.67 145.28 136.93 144.37 L 137.23 143.35 C 137.49 142.45 136.97 141.50 136.06 141.24 C 135.16 140.98 134.21 141.50 133.95 142.40 Z M 133.62 143.54 L 133.41 144.53 C 133.21 145.45 133.79 146.36 134.71 146.56 C 135.63 146.76 136.54 146.18 136.74 145.26 L 136.96 144.26 C 137.16 143.34 136.58 142.43 135.65 142.23 C 134.73 142.03 133.82 142.61 133.62 143.54 Z M 133.39 144.62 L 133.23 145.58 C 133.08 146.51 133.71 147.39 134.64 147.54 C 135.57 147.70 136.45 147.07 136.60 146.14 L 136.76 145.17 C 136.92 144.24 136.28 143.36 135.35 143.21 C 134.42 143.05 133.54 143.68 133.39 144.62 Z M 133.22 145.65 L 133.10 146.64 C 132.98 147.58 133.65 148.43 134.58 148.55 C 135.52 148.66 136.37 148.00 136.49 147.06 L 136.61 146.07 C 136.73 145.13 136.06 144.28 135.12 144.16 C 134.19 144.05 133.33 144.71 133.22 145.65 Z M 133.09 146.70 L 133.00 147.71 C 132.92 148.65 133.62 149.48 134.56 149.56 C 135.50 149.65 136.33 148.95 136.41 148.01 L 136.50 147.00 C 136.58 146.06 135.88 145.23 134.94 145.15 C 134.00 145.07 133.17 145.76 133.09 146.70 Z M 133.00 147.77 L 132.94 148.79 C 132.89 149.73 133.62 150.54 134.56 150.59 C 135.50 150.64 136.31 149.91 136.36 148.97 L 136.41 147.95 C 136.46 147.01 135.74 146.21 134.80 146.15 C 133.86 146.10 133.05 146.83 133.00 147.77 Z M 132.94 148.84 L 132.92 149.85 C 132.89 150.80 133.64 151.58 134.58 151.60 C 135.53 151.63 136.31 150.88 136.34 149.94 L 136.36 148.92 C 136.38 147.98 135.64 147.19 134.69 147.17 C 133.75 147.15 132.97 147.89 132.94 148.84 Z M 132.92 149.90 L 132.92 150.90 C 132.92 151.84 133.69 152.61 134.63 152.60 C 135.58 152.60 136.34 151.83 136.34 150.89 L 136.34 149.89 C 136.33 148.94 135.57 148.18 134.62 148.18 C 133.68 148.19 132.91 148.96 132.92 149.90 Z M 132.92 150.95 L 132.95 151.97 C 132.98 152.92 133.77 153.66 134.72 153.63 C 135.66 153.60 136.40 152.81 136.37 151.87 L 136.34 150.84 C 136.31 149.90 135.52 149.16 134.58 149.19 C 133.63 149.22 132.89 150.00 132.92 150.95 Z M 132.96 152.04 L 133.03 153.04 C 133.09 153.98 133.91 154.69 134.85 154.63 C 135.79 154.56 136.50 153.75 136.43 152.81 L 136.37 151.80 C 136.30 150.86 135.49 150.15 134.55 150.22 C 133.60 150.28 132.89 151.10 132.96 152.04 Z M 133.04 153.12 L 133.15 154.10 C 133.26 155.04 134.10 155.71 135.04 155.61 C 135.97 155.50 136.65 154.65 136.54 153.72 L 136.43 152.73 C 136.32 151.79 135.47 151.12 134.54 151.23 C 133.60 151.34 132.93 152.18 133.04 153.12 Z M 133.16 154.20 L 133.33 155.17 C 133.49 156.10 134.37 156.72 135.30 156.56 C 136.22 156.40 136.85 155.52 136.69 154.59 L 136.52 153.62 C 136.37 152.70 135.49 152.07 134.56 152.23 C 133.63 152.39 133.00 153.27 133.16 154.20 Z M 133.35 155.27 L 133.58 156.23 C 133.79 157.15 134.71 157.71 135.63 157.50 C 136.54 157.28 137.11 156.37 136.89 155.45 L 136.67 154.49 C 136.45 153.57 135.53 153.01 134.62 153.22 C 133.70 153.44 133.13 154.35 133.35 155.27 Z M 133.61 156.34 L 133.90 157.30 C 134.18 158.20 135.13 158.70 136.03 158.42 C 136.93 158.14 137.43 157.19 137.16 156.29 L 136.86 155.34 C 136.58 154.44 135.63 153.94 134.73 154.21 C 133.83 154.49 133.33 155.44 133.61 156.34 Z M 133.94 157.41 L 134.30 158.32 C 134.64 159.20 135.62 159.63 136.50 159.29 C 137.37 158.95 137.81 157.97 137.47 157.09 L 137.12 156.18 C 136.78 155.30 135.79 154.87 134.92 155.21 C 134.04 155.55 133.60 156.53 133.94 157.41 Z M 134.34 158.42 L 134.76 159.31 C 135.15 160.16 136.16 160.53 137.01 160.14 C 137.86 159.74 138.23 158.73 137.84 157.88 L 137.42 156.99 C 137.03 156.14 136.02 155.77 135.17 156.17 C 134.32 156.56 133.95 157.57 134.34 158.42 Z M 134.81 159.41 L 135.28 160.28 C 135.73 161.11 136.76 161.41 137.58 160.97 C 138.40 160.52 138.71 159.49 138.26 158.67 L 137.79 157.79 C 137.34 156.97 136.31 156.66 135.49 157.11 C 134.67 157.55 134.36 158.58 134.81 159.41 Z M 135.34 160.37 L 135.87 161.23 C 136.36 162.02 137.40 162.26 138.20 161.77 C 138.99 161.28 139.24 160.24 138.74 159.45 L 138.21 158.59 C 137.72 157.79 136.68 157.55 135.88 158.04 C 135.09 158.53 134.85 159.57 135.34 160.37 Z M 135.93 161.30 L 136.51 162.13 C 137.04 162.90 138.09 163.08 138.86 162.55 C 139.62 162.01 139.80 160.96 139.27 160.20 L 138.69 159.37 C 138.15 158.60 137.10 158.42 136.34 158.95 C 135.57 159.49 135.39 160.54 135.93 161.30 Z M 136.57 162.21 L 137.19 163.00 C 137.77 163.73 138.83 163.86 139.56 163.28 C 140.29 162.70 140.41 161.65 139.84 160.92 L 139.21 160.12 C 138.63 159.39 137.57 159.27 136.84 159.84 C 136.12 160.42 135.99 161.48 136.57 162.21 Z M 137.26 163.08 L 137.93 163.83 C 138.54 164.52 139.61 164.58 140.30 163.97 C 140.99 163.35 141.06 162.29 140.44 161.59 L 139.77 160.84 C 139.16 160.15 138.09 160.09 137.40 160.70 C 136.71 161.32 136.64 162.38 137.26 163.08 Z M 138.00 163.90 L 138.70 164.60 C 139.36 165.25 140.42 165.25 141.07 164.59 C 141.73 163.94 141.72 162.87 141.07 162.22 L 140.37 161.52 C 139.71 160.87 138.65 160.87 137.99 161.53 C 137.34 162.18 137.34 163.24 138.00 163.90 Z M 138.78 164.67 L 139.52 165.32 C 140.22 165.93 141.28 165.85 141.88 165.16 C 142.49 164.46 142.42 163.40 141.73 162.80 L 140.99 162.15 C 140.29 161.54 139.23 161.61 138.62 162.31 C 138.01 163.00 138.09 164.06 138.78 164.67 Z M 139.61 165.39 L 140.39 165.98 C 141.13 166.54 142.18 166.40 142.74 165.66 C 143.30 164.93 143.15 163.88 142.42 163.32 L 141.63 162.72 C 140.90 162.17 139.85 162.31 139.29 163.04 C 138.73 163.78 138.88 164.83 139.61 165.39 Z M 140.49 166.05 L 141.32 166.59 C 142.10 167.09 143.13 166.87 143.63 166.10 C 144.14 165.33 143.92 164.29 143.15 163.79 L 142.32 163.25 C 141.54 162.75 140.51 162.97 140.01 163.74 C 139.50 164.51 139.72 165.55 140.49 166.05 Z M 141.43 166.65 L 142.31 167.13 C 143.12 167.58 144.13 167.28 144.57 166.48 C 145.02 165.67 144.72 164.66 143.92 164.21 L 143.04 163.73 C 142.23 163.28 141.22 163.58 140.77 164.39 C 140.33 165.19 140.62 166.21 141.43 166.65 Z M 142.42 167.19 L 143.35 167.61 C 144.19 168.00 145.18 167.63 145.56 166.79 C 145.94 165.96 145.57 164.97 144.74 164.59 L 143.81 164.16 C 142.97 163.78 141.98 164.15 141.60 164.98 C 141.22 165.82 141.59 166.80 142.42 167.19 Z M 143.47 167.66 L 144.42 168.01 C 145.28 168.33 146.24 167.90 146.56 167.04 C 146.88 166.17 146.44 165.22 145.58 164.90 L 144.63 164.54 C 143.77 164.22 142.81 164.66 142.49 165.52 C 142.17 166.38 142.60 167.34 143.47 167.66 Z M 144.52 168.05 L 145.48 168.33 C 146.36 168.60 147.29 168.09 147.55 167.21 C 147.81 166.33 147.31 165.40 146.43 165.14 L 145.47 164.86 C 144.59 164.60 143.66 165.10 143.40 165.98 C 143.14 166.86 143.64 167.79 144.52 168.05 Z M 145.58 168.37 L 146.57 168.59 C 147.47 168.79 148.36 168.23 148.56 167.33 C 148.77 166.43 148.20 165.53 147.30 165.33 L 146.32 165.11 C 145.42 164.91 144.53 165.47 144.32 166.37 C 144.12 167.27 144.68 168.16 145.58 168.37 Z M 146.68 168.61 L 147.69 168.77 C 148.60 168.91 149.45 168.28 149.59 167.37 C 149.73 166.45 149.11 165.60 148.19 165.46 L 147.19 165.31 C 146.28 165.17 145.42 165.79 145.28 166.71 C 145.14 167.62 145.77 168.47 146.68 168.61 Z M 147.81 168.78 L 148.82 168.86 C 149.74 168.93 150.55 168.24 150.62 167.32 C 150.69 166.39 150.00 165.59 149.08 165.52 L 148.07 165.44 C 147.14 165.37 146.34 166.06 146.27 166.98 C 146.20 167.91 146.89 168.71 147.81 168.78 Z M 148.96 168.87 L 149.96 168.86 C 150.89 168.86 151.64 168.10 151.63 167.17 C 151.63 166.25 150.87 165.50 149.94 165.50 L 148.94 165.51 C 148.01 165.52 147.26 166.27 147.27 167.20 C 147.27 168.13 148.03 168.88 148.96 168.87 Z M 150.12 168.86 L 151.10 168.76 C 152.03 168.67 152.71 167.85 152.61 166.92 C 152.52 166.00 151.70 165.32 150.77 165.41 L 149.79 165.51 C 148.86 165.60 148.19 166.42 148.28 167.35 C 148.37 168.27 149.19 168.95 150.12 168.86 Z M 151.28 168.74 L 152.24 168.54 C 153.15 168.36 153.74 167.46 153.55 166.55 C 153.37 165.64 152.47 165.05 151.56 165.24 L 150.60 165.43 C 149.68 165.62 149.10 166.51 149.28 167.43 C 149.47 168.34 150.36 168.93 151.28 168.74 Z M 152.43 168.50 L 153.38 168.19 C 154.27 167.89 154.75 166.94 154.46 166.05 C 154.17 165.16 153.21 164.68 152.32 164.97 L 151.37 165.28 C 150.48 165.57 150.00 166.53 150.29 167.42 C 150.58 168.31 151.54 168.79 152.43 168.50 Z M 153.55 168.13 L 154.46 167.71 C 155.32 167.33 155.70 166.32 155.31 165.46 C 154.92 164.61 153.91 164.23 153.06 164.62 L 152.15 165.03 C 151.30 165.42 150.92 166.42 151.30 167.28 C 151.69 168.13 152.70 168.51 153.55 168.13 Z M 154.61 167.64 L 155.48 167.15 C 156.29 166.68 156.58 165.63 156.11 164.82 C 155.64 164.00 154.59 163.72 153.77 164.19 L 152.91 164.68 C 152.09 165.16 151.81 166.20 152.28 167.02 C 152.75 167.83 153.80 168.11 154.61 167.64 Z M 155.60 167.08 L 156.42 166.51 C 157.20 165.97 157.39 164.90 156.85 164.12 C 156.31 163.34 155.25 163.15 154.47 163.69 L 153.65 164.26 C 152.87 164.80 152.68 165.87 153.22 166.65 C 153.76 167.42 154.83 167.62 155.60 167.08 Z M 156.53 166.44 L 157.31 165.81 C 158.05 165.21 158.16 164.13 157.56 163.39 C 156.96 162.65 155.88 162.53 155.14 163.13 L 154.36 163.76 C 153.62 164.36 153.51 165.44 154.11 166.18 C 154.71 166.92 155.79 167.03 156.53 166.44 Z M 157.39 165.74 L 158.13 165.07 C 158.83 164.42 158.88 163.33 158.23 162.62 C 157.59 161.92 156.49 161.88 155.79 162.52 L 155.06 163.20 C 154.35 163.84 154.31 164.93 154.95 165.64 C 155.60 166.34 156.69 166.39 157.39 165.74 Z M 158.20 165.01 L 158.90 164.30 C 159.57 163.61 159.55 162.51 158.87 161.84 C 158.19 161.17 157.09 161.18 156.42 161.87 L 155.72 162.58 C 155.05 163.26 155.06 164.36 155.75 165.03 C 156.43 165.70 157.53 165.69 158.20 165.01 Z M 158.95 164.24 L 159.62 163.49 C 160.26 162.77 160.20 161.67 159.48 161.03 C 158.76 160.40 157.66 160.46 157.02 161.18 L 156.36 161.92 C 155.72 162.64 155.78 163.74 156.50 164.38 C 157.22 165.02 158.32 164.96 158.95 164.24 Z M 159.68 163.43 L 160.30 162.66 C 160.91 161.92 160.80 160.82 160.05 160.21 C 159.31 159.60 158.21 159.71 157.60 160.46 L 156.97 161.23 C 156.36 161.98 156.47 163.08 157.22 163.69 C 157.97 164.29 159.07 164.18 159.68 163.43 Z M 160.35 162.61 L 160.95 161.81 C 161.52 161.04 161.36 159.94 160.59 159.36 C 159.82 158.79 158.72 158.95 158.14 159.72 L 157.55 160.52 C 156.97 161.29 157.13 162.39 157.91 162.96 C 158.68 163.54 159.78 163.38 160.35 162.61 Z M 160.99 161.76 L 161.55 160.94 C 162.10 160.14 161.90 159.05 161.10 158.50 C 160.30 157.95 159.21 158.16 158.66 158.95 L 158.10 159.77 C 157.55 160.57 157.76 161.66 158.55 162.21 C 159.35 162.76 160.44 162.56 160.99 161.76 Z M 161.59 160.88 L 162.13 160.04 C 162.65 159.22 162.40 158.13 161.58 157.62 C 160.76 157.10 159.67 157.34 159.15 158.16 L 158.62 159.01 C 158.10 159.83 158.35 160.91 159.17 161.43 C 159.99 161.95 161.07 161.71 161.59 160.88 Z M 162.16 159.99 L 162.67 159.13 C 163.16 158.29 162.88 157.21 162.04 156.71 C 161.20 156.22 160.12 156.50 159.63 157.34 L 159.12 158.21 C 158.63 159.05 158.91 160.13 159.75 160.62 C 160.59 161.11 161.67 160.83 162.16 159.99 Z M 162.70 159.08 L 163.16 158.24 C 163.63 157.38 163.32 156.31 162.46 155.84 C 161.61 155.37 160.53 155.68 160.06 156.54 L 159.60 157.38 C 159.13 158.24 159.44 159.31 160.30 159.78 C 161.16 160.25 162.23 159.94 162.70 159.08 Z M 163.19 158.20 L 163.60 157.39 C 164.05 156.52 163.71 155.45 162.84 155.00 C 161.97 154.56 160.91 154.90 160.46 155.77 L 160.04 156.58 C 159.59 157.45 159.93 158.51 160.80 158.96 C 161.67 159.41 162.74 159.07 163.19 158.20 Z M 163.63 157.35 L 164.03 156.52 C 164.46 155.64 164.10 154.57 163.21 154.15 C 162.33 153.72 161.27 154.08 160.84 154.96 L 160.44 155.80 C 160.01 156.68 160.37 157.74 161.25 158.17 C 162.14 158.60 163.20 158.24 163.63 157.35 Z M 164.05 156.48 L 164.45 155.61 C 164.86 154.72 164.47 153.67 163.58 153.26 C 162.69 152.85 161.63 153.24 161.22 154.13 L 160.82 155.00 C 160.41 155.89 160.80 156.95 161.70 157.36 C 162.59 157.77 163.64 157.38 164.05 156.48 Z M 164.47 155.58 L 164.87 154.68 C 165.26 153.78 164.85 152.73 163.94 152.33 C 163.04 151.94 161.99 152.35 161.60 153.25 L 161.21 154.16 C 160.81 155.06 161.22 156.11 162.13 156.50 C 163.03 156.90 164.08 156.49 164.47 155.58 Z M 164.88 154.65 L 165.27 153.70 C 165.65 152.79 165.22 151.75 164.31 151.37 C 163.40 150.99 162.35 151.42 161.98 152.33 L 161.58 153.28 C 161.21 154.19 161.64 155.24 162.55 155.61 C 163.46 155.99 164.50 155.56 164.88 154.65 Z M 165.29 153.67 L 165.68 152.68 C 166.04 151.76 165.59 150.72 164.68 150.36 C 163.76 149.99 162.72 150.45 162.36 151.36 L 161.96 152.36 C 161.60 153.28 162.05 154.32 162.97 154.68 C 163.89 155.04 164.93 154.59 165.29 153.67 Z M 165.69 152.65 L 166.09 151.60 C 166.44 150.68 165.98 149.65 165.05 149.30 C 164.13 148.94 163.09 149.41 162.74 150.34 L 162.34 151.39 C 161.99 152.31 162.46 153.35 163.38 153.70 C 164.31 154.05 165.34 153.58 165.69 152.65 Z M 166.10 151.59 L 166.45 150.63 C 166.79 149.70 166.31 148.67 165.38 148.33 C 164.45 147.99 163.42 148.47 163.08 149.40 L 162.73 150.35 C 162.39 151.29 162.87 152.32 163.80 152.66 C 164.73 153.00 165.76 152.52 166.10 151.59 Z M 166.46 150.62 L 166.80 149.67 C 167.13 148.74 166.64 147.71 165.70 147.37 C 164.77 147.04 163.74 147.53 163.41 148.47 L 163.07 149.41 C 162.74 150.35 163.23 151.38 164.16 151.71 C 165.10 152.04 166.13 151.55 166.46 150.62 Z M 166.81 149.66 L 167.14 148.69 C 167.47 147.75 166.96 146.72 166.02 146.40 C 165.08 146.07 164.05 146.57 163.73 147.51 L 163.40 148.48 C 163.07 149.43 163.57 150.45 164.51 150.78 C 165.46 151.10 166.48 150.60 166.81 149.66 Z M 167.15 148.67 L 167.48 147.69 C 167.79 146.74 167.28 145.72 166.34 145.40 C 165.39 145.09 164.36 145.60 164.05 146.54 L 163.72 147.53 C 163.40 148.48 163.92 149.50 164.86 149.82 C 165.81 150.13 166.83 149.62 167.15 148.67 Z M 167.49 147.67 L 167.81 146.69 C 168.11 145.73 167.59 144.71 166.64 144.40 C 165.69 144.10 164.66 144.62 164.36 145.57 L 164.04 146.56 C 163.73 147.51 164.25 148.54 165.21 148.84 C 166.16 149.15 167.18 148.63 167.49 147.67 Z M 167.82 146.67 L 168.12 145.69 C 168.42 144.73 167.89 143.71 166.93 143.41 C 165.97 143.11 164.95 143.65 164.65 144.61 L 164.35 145.59 C 164.05 146.55 164.58 147.57 165.54 147.86 C 166.50 148.16 167.52 147.63 167.82 146.67 Z M 168.13 145.67 L 168.42 144.70 C 168.71 143.73 168.16 142.72 167.20 142.43 C 166.23 142.14 165.22 142.69 164.93 143.66 L 164.64 144.63 C 164.35 145.59 164.90 146.61 165.87 146.89 C 166.83 147.18 167.85 146.63 168.13 145.67 Z M 168.43 144.68 L 168.70 143.73 C 168.98 142.76 168.41 141.75 167.44 141.48 C 166.47 141.20 165.46 141.77 165.19 142.74 L 164.92 143.68 C 164.64 144.65 165.21 145.66 166.18 145.94 C 167.15 146.21 168.16 145.65 168.43 144.68 Z M 168.71 143.71 L 168.95 142.80 C 169.22 141.82 168.63 140.81 167.66 140.55 C 166.68 140.29 165.68 140.87 165.42 141.85 L 165.17 142.76 C 164.91 143.74 165.49 144.74 166.47 145.00 C 167.45 145.26 168.45 144.68 168.71 143.71 Z M 168.97 142.76 L 169.21 141.79 C 169.45 140.81 168.85 139.81 167.86 139.57 C 166.88 139.33 165.88 139.93 165.64 140.92 L 165.40 141.89 C 165.16 142.87 165.76 143.86 166.75 144.11 C 167.73 144.35 168.73 143.75 168.97 142.76 Z M 169.22 141.74 L 169.44 140.73 C 169.66 139.73 169.03 138.75 168.04 138.54 C 167.04 138.32 166.06 138.95 165.85 139.94 L 165.63 140.96 C 165.41 141.96 166.04 142.94 167.03 143.15 C 168.02 143.37 169.00 142.74 169.22 141.74 Z M 169.46 140.67 L 169.64 139.69 C 169.82 138.69 169.16 137.73 168.16 137.55 C 167.16 137.36 166.20 138.02 166.01 139.03 L 165.83 140.00 C 165.65 141.00 166.31 141.96 167.31 142.15 C 168.31 142.33 169.27 141.67 169.46 140.67 Z M 169.65 139.63 L 169.79 138.68 C 169.94 137.67 169.25 136.73 168.24 136.58 C 167.23 136.43 166.29 137.13 166.14 138.14 L 166.00 139.09 C 165.85 140.10 166.54 141.04 167.55 141.19 C 168.56 141.34 169.50 140.64 169.65 139.63 Z M 169.80 138.62 L 169.91 137.67 C 170.02 136.66 169.29 135.74 168.28 135.63 C 167.26 135.51 166.35 136.24 166.23 137.26 L 166.13 138.20 C 166.01 139.22 166.74 140.14 167.76 140.25 C 168.77 140.36 169.69 139.63 169.80 138.62 Z M 169.92 137.61 L 170.00 136.65 C 170.08 135.63 169.31 134.74 168.29 134.66 C 167.27 134.58 166.38 135.34 166.30 136.36 L 166.22 137.32 C 166.14 138.34 166.91 139.24 167.93 139.32 C 168.95 139.39 169.84 138.63 169.92 137.61 Z M 170.00 136.59 L 170.05 135.60 C 170.10 134.57 169.31 133.70 168.28 133.65 C 167.26 133.60 166.39 134.40 166.34 135.42 L 166.29 136.42 C 166.24 137.44 167.03 138.31 168.06 138.36 C 169.08 138.41 169.95 137.62 170.00 136.59 Z M 170.06 135.55 L 170.08 134.51 C 170.10 133.48 169.29 132.63 168.26 132.60 C 167.23 132.58 166.38 133.39 166.36 134.42 L 166.33 135.47 C 166.31 136.49 167.12 137.35 168.15 137.37 C 169.18 137.39 170.03 136.58 170.06 135.55 Z M 170.09 134.47 L 170.09 133.51 C 170.09 132.48 169.26 131.64 168.23 131.63 C 167.20 131.63 166.36 132.46 166.35 133.50 L 166.35 134.46 C 166.35 135.49 167.18 136.33 168.21 136.33 C 169.24 136.34 170.08 135.50 170.09 134.47 Z M 170.09 133.47 L 170.08 132.47 C 170.06 131.43 169.21 130.61 168.18 130.63 C 167.14 130.64 166.32 131.49 166.33 132.53 L 166.35 133.53 C 166.37 134.57 167.22 135.39 168.25 135.38 C 169.29 135.36 170.11 134.51 170.09 133.47 Z M 170.08 132.43 L 170.04 131.40 C 170.00 130.36 169.13 129.55 168.09 129.59 C 167.05 129.63 166.25 130.51 166.29 131.54 L 166.33 132.57 C 166.37 133.61 167.24 134.42 168.28 134.38 C 169.32 134.34 170.12 133.46 170.08 132.43 Z M 170.05 131.35 L 169.98 130.31 C 169.91 129.27 169.01 128.48 167.97 128.55 C 166.93 128.62 166.15 129.52 166.22 130.56 L 166.28 131.60 C 166.35 132.63 167.25 133.42 168.29 133.35 C 169.33 133.28 170.12 132.39 170.05 131.35 Z M 169.98 130.25 L 169.88 129.21 C 169.77 128.18 168.85 127.42 167.81 127.52 C 166.77 127.62 166.01 128.55 166.11 129.59 L 166.21 130.62 C 166.32 131.66 167.24 132.42 168.28 132.32 C 169.32 132.21 170.08 131.29 169.98 130.25 Z M 169.87 129.14 L 169.74 128.13 C 169.59 127.09 168.64 126.37 167.60 126.51 C 166.56 126.65 165.83 127.61 165.98 128.65 L 166.12 129.66 C 166.26 130.70 167.22 131.42 168.25 131.28 C 169.29 131.14 170.02 130.18 169.87 129.14 Z M 169.73 128.04 L 169.55 127.06 C 169.35 126.03 168.36 125.35 167.33 125.54 C 166.29 125.73 165.61 126.72 165.80 127.76 L 165.98 128.73 C 166.18 129.77 167.17 130.45 168.20 130.26 C 169.24 130.07 169.92 129.07 169.73 128.04 Z M 169.53 126.95 L 169.30 126.03 C 169.05 125.00 168.01 124.38 166.99 124.63 C 165.97 124.88 165.34 125.92 165.59 126.94 L 165.82 127.87 C 166.07 128.89 167.11 129.52 168.13 129.26 C 169.15 129.01 169.78 127.98 169.53 126.95 Z M 169.26 125.88 L 168.95 124.92 C 168.62 123.91 167.53 123.37 166.53 123.70 C 165.52 124.03 164.98 125.11 165.31 126.12 L 165.63 127.08 C 165.96 128.09 167.04 128.63 168.05 128.30 C 169.05 127.97 169.60 126.89 169.26 125.88 Z M 168.88 124.74 L 168.44 123.74 C 168.01 122.77 166.87 122.34 165.90 122.77 C 164.94 123.20 164.50 124.33 164.93 125.30 L 165.37 126.30 C 165.81 127.27 166.94 127.70 167.91 127.27 C 168.88 126.84 169.31 125.70 168.88 124.74 Z M 168.34 123.55 L 167.83 122.66 C 167.29 121.75 166.11 121.44 165.20 121.97 C 164.28 122.51 163.97 123.69 164.51 124.60 L 165.02 125.49 C 165.56 126.41 166.74 126.72 167.65 126.18 C 168.57 125.65 168.88 124.47 168.34 123.55 Z M 167.72 122.49 L 167.13 121.70 C 166.50 120.84 165.29 120.66 164.43 121.29 C 163.58 121.92 163.40 123.13 164.03 123.98 L 164.62 124.78 C 165.25 125.63 166.45 125.82 167.31 125.18 C 168.17 124.55 168.35 123.35 167.72 122.49 Z M 167.01 121.54 L 166.36 120.83 C 165.65 120.04 164.43 119.98 163.64 120.70 C 162.85 121.42 162.79 122.64 163.51 123.43 L 164.15 124.14 C 164.87 124.93 166.09 124.99 166.88 124.27 C 167.67 123.55 167.73 122.33 167.01 121.54 Z M 166.25 120.71 L 165.55 120.07 C 164.77 119.34 163.54 119.39 162.82 120.18 C 162.10 120.96 162.14 122.19 162.93 122.91 L 163.62 123.55 C 164.41 124.27 165.63 124.23 166.36 123.44 C 167.08 122.66 167.03 121.43 166.25 120.71 Z M 165.44 119.97 L 164.71 119.39 C 163.87 118.73 162.65 118.87 161.99 119.71 C 161.32 120.55 161.47 121.76 162.30 122.43 L 163.04 123.01 C 163.88 123.67 165.10 123.53 165.76 122.69 C 166.42 121.85 166.28 120.63 165.44 119.97 Z M 164.61 119.31 L 163.78 118.74 C 162.90 118.13 161.69 118.35 161.08 119.23 C 160.47 120.11 160.69 121.32 161.58 121.93 L 162.40 122.50 C 163.28 123.11 164.49 122.89 165.10 122.01 C 165.71 121.13 165.49 119.92 164.61 119.31 Z M 163.69 118.68 L 162.81 118.15 C 161.90 117.59 160.70 117.88 160.15 118.80 C 159.59 119.71 159.88 120.91 160.80 121.47 L 161.67 122.00 C 162.59 122.55 163.78 122.26 164.34 121.35 C 164.90 120.43 164.61 119.23 163.69 118.68 Z M 162.72 118.09 L 161.83 117.61 C 160.88 117.11 159.70 117.47 159.19 118.42 C 158.69 119.36 159.05 120.54 160.00 121.05 L 160.89 121.52 C 161.84 122.03 163.02 121.67 163.52 120.72 C 164.03 119.77 163.67 118.59 162.72 118.09 Z M 161.73 117.56 L 160.82 117.14 C 159.85 116.69 158.69 117.11 158.24 118.09 C 157.78 119.06 158.21 120.22 159.18 120.67 L 160.09 121.09 C 161.06 121.55 162.22 121.13 162.68 120.15 C 163.13 119.18 162.71 118.02 161.73 117.56 Z M 160.73 117.10 L 159.81 116.73 C 158.82 116.33 157.68 116.81 157.28 117.81 C 156.88 118.81 157.36 119.94 158.36 120.34 L 159.27 120.71 C 160.27 121.12 161.41 120.63 161.81 119.64 C 162.21 118.64 161.73 117.50 160.73 117.10 Z M 159.72 116.69 L 158.81 116.38 C 157.79 116.03 156.68 116.57 156.33 117.58 C 155.98 118.60 156.52 119.71 157.54 120.06 L 158.45 120.38 C 159.47 120.73 160.58 120.19 160.93 119.17 C 161.28 118.16 160.74 117.04 159.72 116.69 Z M 158.71 116.35 L 157.77 116.07 C 156.73 115.77 155.65 116.37 155.35 117.41 C 155.06 118.44 155.65 119.53 156.69 119.83 L 157.63 120.10 C 158.67 120.40 159.75 119.80 160.05 118.76 C 160.35 117.73 159.75 116.64 158.71 116.35 Z M 157.67 116.05 L 156.72 115.83 C 155.67 115.58 154.62 116.24 154.37 117.29 C 154.13 118.34 154.78 119.39 155.84 119.63 L 156.79 119.85 C 157.84 120.10 158.89 119.44 159.13 118.39 C 159.38 117.34 158.72 116.29 157.67 116.05 Z M 156.62 115.80 L 155.66 115.63 C 154.60 115.45 153.58 116.15 153.39 117.22 C 153.20 118.28 153.91 119.29 154.98 119.48 L 155.93 119.65 C 157.00 119.84 158.01 119.13 158.20 118.07 C 158.39 117.01 157.68 115.99 156.62 115.80 Z M 155.57 115.62 L 154.59 115.49 C 153.52 115.36 152.54 116.11 152.40 117.18 C 152.26 118.25 153.02 119.23 154.09 119.37 L 155.07 119.50 C 156.14 119.64 157.12 118.88 157.26 117.81 C 157.39 116.74 156.64 115.76 155.57 115.62 Z M 154.51 115.48 L 153.50 115.40 C 152.42 115.30 151.48 116.10 151.38 117.18 C 151.29 118.25 152.09 119.20 153.16 119.29 L 154.17 119.38 C 155.25 119.47 156.20 118.68 156.29 117.60 C 156.38 116.52 155.58 115.58 154.51 115.48 Z M 153.43 115.39 L 152.38 115.34 C 151.30 115.28 150.38 116.11 150.33 117.19 C 150.27 118.27 151.10 119.19 152.18 119.25 L 153.23 119.30 C 154.31 119.36 155.23 118.53 155.29 117.45 C 155.34 116.37 154.51 115.45 153.43 115.39 Z M 152.33 115.33 L 151.35 115.31 C 150.27 115.28 149.37 116.14 149.35 117.22 C 149.32 118.30 150.18 119.20 151.26 119.23 L 152.24 119.25 C 153.32 119.27 154.21 118.42 154.24 117.34 C 154.27 116.26 153.41 115.36 152.33 115.33 Z M 151.29 115.31 L 150.29 115.32 C 149.21 115.33 148.34 116.21 148.35 117.29 C 148.36 118.37 149.24 119.24 150.32 119.23 L 151.32 119.23 C 152.40 119.22 153.27 118.33 153.26 117.25 C 153.26 116.17 152.37 115.30 151.29 115.31 Z M 150.21 115.32 L 149.20 115.37 C 148.12 115.42 147.29 116.34 147.34 117.42 C 147.39 118.50 148.31 119.33 149.39 119.28 L 150.40 119.23 C 151.48 119.18 152.32 118.26 152.26 117.18 C 152.21 116.10 151.29 115.27 150.21 115.32 Z M 149.10 115.38 L 148.09 115.48 C 147.01 115.59 146.23 116.55 146.34 117.62 C 146.44 118.70 147.41 119.48 148.48 119.38 L 149.49 119.27 C 150.57 119.17 151.35 118.21 151.24 117.13 C 151.14 116.05 150.18 115.27 149.10 115.38 Z M 147.96 115.50 L 146.97 115.66 C 145.90 115.84 145.18 116.85 145.36 117.91 C 145.53 118.98 146.54 119.70 147.61 119.52 L 148.60 119.36 C 149.67 119.18 150.39 118.17 150.22 117.11 C 150.04 116.04 149.03 115.32 147.96 115.50 Z M 146.82 115.69 L 145.85 115.93 C 144.80 116.19 144.16 117.25 144.42 118.30 C 144.68 119.35 145.74 119.99 146.79 119.73 L 147.76 119.49 C 148.81 119.23 149.45 118.17 149.19 117.12 C 148.93 116.07 147.87 115.43 146.82 115.69 Z M 145.68 115.99 L 144.72 116.32 C 143.71 116.68 143.17 117.79 143.53 118.81 C 143.89 119.83 145.00 120.37 146.02 120.01 L 146.97 119.68 C 147.99 119.32 148.53 118.20 148.17 117.18 C 147.81 116.16 146.69 115.63 145.68 115.99 Z M 144.54 116.40 L 143.61 116.84 C 142.64 117.30 142.22 118.46 142.68 119.43 C 143.14 120.41 144.30 120.83 145.28 120.37 L 146.21 119.93 C 147.18 119.47 147.60 118.31 147.14 117.33 C 146.68 116.36 145.52 115.94 144.54 116.40 Z M 143.46 116.93 L 142.59 117.44 C 141.66 117.99 141.35 119.18 141.90 120.10 C 142.44 121.03 143.63 121.33 144.56 120.79 L 145.43 120.28 C 146.35 119.73 146.66 118.54 146.12 117.62 C 145.58 116.69 144.38 116.38 143.46 116.93 Z M 142.47 117.53 L 141.64 118.10 C 140.77 118.71 140.55 119.91 141.16 120.79 C 141.77 121.67 142.97 121.89 143.85 121.28 L 144.67 120.71 C 145.55 120.10 145.77 118.89 145.16 118.01 C 144.55 117.14 143.34 116.92 142.47 117.53 Z M 141.56 118.18 L 140.78 118.79 C 139.94 119.45 139.80 120.66 140.46 121.49 C 141.12 122.33 142.33 122.47 143.16 121.81 L 143.94 121.20 C 144.78 120.54 144.92 119.33 144.26 118.50 C 143.60 117.66 142.39 117.52 141.56 118.18 Z M 140.72 118.85 L 139.98 119.48 C 139.18 120.18 139.09 121.39 139.78 122.19 C 140.48 122.99 141.69 123.08 142.49 122.39 L 143.22 121.75 C 144.03 121.06 144.12 119.85 143.42 119.05 C 142.73 118.25 141.52 118.16 140.72 118.85 Z M 139.95 119.53 L 139.23 120.18 C 138.46 120.90 138.41 122.10 139.12 122.88 C 139.83 123.65 141.04 123.71 141.82 122.99 L 142.53 122.34 C 143.30 121.63 143.35 120.42 142.64 119.64 C 141.93 118.87 140.72 118.82 139.95 119.53 Z M 139.21 120.23 L 138.51 120.90 C 137.76 121.63 137.74 122.83 138.47 123.58 C 139.19 124.33 140.39 124.35 141.14 123.62 L 141.84 122.95 C 142.59 122.22 142.61 121.02 141.88 120.27 C 141.16 119.52 139.96 119.50 139.21 120.23 Z M 138.49 120.96 L 137.81 121.65 C 137.10 122.39 137.11 123.58 137.85 124.30 C 138.60 125.02 139.78 125.00 140.50 124.26 L 141.17 123.56 C 141.89 122.82 141.87 121.64 141.13 120.92 C 140.39 120.20 139.20 120.22 138.49 120.96 Z M 137.78 121.71 L 137.13 122.44 C 136.45 123.20 136.51 124.37 137.27 125.05 C 138.02 125.74 139.19 125.68 139.88 124.92 L 140.53 124.19 C 141.22 123.43 141.16 122.26 140.40 121.58 C 139.64 120.90 138.47 120.96 137.78 121.71 Z M 137.10 122.51 L 136.45 123.28 C 135.81 124.06 135.91 125.21 136.69 125.86 C 137.46 126.50 138.62 126.40 139.27 125.62 L 139.91 124.85 C 140.56 124.07 140.45 122.92 139.68 122.27 C 138.90 121.63 137.75 121.73 137.10 122.51 Z M 136.43 123.35 L 135.78 124.19 C 135.17 124.98 135.32 126.12 136.11 126.73 C 136.90 127.34 138.04 127.19 138.65 126.40 L 139.29 125.56 C 139.90 124.76 139.76 123.63 138.96 123.02 C 138.17 122.41 137.03 122.56 136.43 123.35 Z M 135.76 124.25 L 135.20 125.03 C 134.62 125.83 134.81 126.95 135.61 127.53 C 136.41 128.11 137.53 127.92 138.11 127.12 L 138.67 126.33 C 139.25 125.53 139.06 124.41 138.26 123.84 C 137.45 123.26 136.33 123.44 135.76 124.25 Z M 135.18 125.08 L 134.66 125.86 C 134.11 126.67 134.32 127.77 135.13 128.32 C 135.95 128.87 137.05 128.66 137.60 127.85 L 138.12 127.07 C 138.67 126.25 138.46 125.15 137.65 124.60 C 136.83 124.05 135.73 124.27 135.18 125.08 Z M 134.64 125.90 L 134.12 126.72 C 133.59 127.54 133.83 128.63 134.65 129.16 C 135.47 129.68 136.56 129.44 137.09 128.62 L 137.61 127.80 C 138.14 126.98 137.90 125.89 137.08 125.37 C 136.26 124.84 135.17 125.08 134.64 125.90 Z M 134.11 126.77 L 133.59 127.63 C 133.09 128.45 133.35 129.53 134.17 130.03 C 135.00 130.53 136.07 130.26 136.57 129.44 L 137.10 128.58 C 137.60 127.76 137.33 126.68 136.51 126.18 C 135.68 125.68 134.61 125.94 134.11 126.77 Z M 133.58 127.67 L 133.07 128.56 C 132.59 129.39 132.87 130.45 133.70 130.93 C 134.53 131.40 135.59 131.12 136.07 130.29 L 136.58 129.40 C 137.06 128.57 136.77 127.51 135.94 127.03 C 135.12 126.55 134.06 126.84 133.58 127.67 Z M 133.06 128.60 L 132.56 129.52 C 132.11 130.35 132.41 131.39 133.25 131.85 C 134.08 132.30 135.12 132.00 135.58 131.16 L 136.08 130.25 C 136.53 129.41 136.22 128.37 135.39 127.92 C 134.56 127.46 133.51 127.77 133.06 128.60 Z M 132.55 129.56 L 132.07 130.49 C 131.64 131.33 131.97 132.36 132.81 132.79 C 133.64 133.22 134.67 132.89 135.10 132.05 L 135.58 131.12 C 136.01 130.28 135.68 129.26 134.85 128.83 C 134.01 128.39 132.98 128.72 132.55 129.56 Z M 132.07 130.54 L 131.62 131.46 C 131.21 132.30 131.56 133.31 132.40 133.72 C 133.24 134.13 134.25 133.78 134.66 132.94 L 135.11 132.01 C 135.51 131.17 135.16 130.16 134.32 129.75 C 133.48 129.35 132.47 129.70 132.07 130.54 Z M 131.62 131.50 L 131.20 132.42 C 130.81 133.26 131.18 134.25 132.03 134.63 C 132.87 135.02 133.86 134.65 134.24 133.81 L 134.66 132.90 C 135.04 132.05 134.67 131.06 133.83 130.68 C 132.99 130.29 132.00 130.66 131.62 131.50 Z M 131.20 132.45 L 130.80 133.37 C 130.44 134.21 130.82 135.19 131.66 135.55 C 132.50 135.92 133.48 135.53 133.84 134.69 L 134.24 133.77 C 134.61 132.93 134.22 131.96 133.38 131.59 C 132.54 131.23 131.56 131.61 131.20 132.45 Z M 130.81 133.40 L 130.42 134.33 C 130.08 135.16 130.47 136.12 131.31 136.47 C 132.15 136.82 133.11 136.42 133.46 135.58 L 133.84 134.66 C 134.19 133.82 133.79 132.86 132.95 132.51 C 132.11 132.17 131.15 132.56 130.81 133.40 Z M 130.43 134.35 L 130.06 135.28 C 129.73 136.11 130.13 137.06 130.97 137.39 C 131.80 137.73 132.75 137.32 133.08 136.48 L 133.45 135.56 C 133.78 134.72 133.38 133.78 132.54 133.44 C 131.71 133.11 130.76 133.52 130.43 134.35 Z M 130.07 135.30 L 129.71 136.23 C 129.38 137.06 129.80 137.99 130.63 138.32 C 131.46 138.64 132.39 138.22 132.71 137.39 L 133.07 136.46 C 133.39 135.63 132.98 134.70 132.15 134.38 C 131.32 134.06 130.39 134.47 130.07 135.30 Z M 129.72 136.25 L 129.36 137.18 C 129.05 138.00 129.46 138.93 130.29 139.24 C 131.11 139.55 132.03 139.14 132.35 138.31 L 132.70 137.38 C 133.01 136.56 132.60 135.63 131.78 135.32 C 130.95 135.01 130.03 135.42 129.72 136.25 Z M 129.38 137.19 L 129.02 138.12 C 128.72 138.94 129.13 139.85 129.95 140.16 C 130.76 140.47 131.68 140.05 131.98 139.24 L 132.33 138.30 C 132.64 137.48 132.23 136.57 131.41 136.27 C 130.59 135.96 129.68 136.37 129.38 137.19 Z M 129.03 138.13 L 129.01 138.20 C 128.70 139.01 129.11 139.92 129.93 140.22 C 130.74 140.53 131.64 140.12 131.95 139.30 L 131.98 139.23 C 132.28 138.42 131.87 137.51 131.06 137.21 C 130.24 136.90 129.34 137.31 129.03 138.13 Z"
      fill="black"
      fill-rule="nonzero" /></svg>