<svg xmlns="http://www.w3.org/2000/svg" width="300" height="300" viewBox="0 0 300 300">
<path d="M 150.85 127.88 L 150.77 126.81 C 150.70 125.93 149.93 125.26 149.04 125.33 C 148.16 125.40 147.49 126.18 147.56 127.06 L 147.65 128.13 C 147.72 129.01 148.49 129.67 149.37 129.60 C 150.26 129.54 150.92 128.76 150.85 127.88 Z M 150.77 126.80 L 150.68 125.75 C 150.60 124.86 149.82 124.20 148.94 124.28 C 148.05 124.36 147.40 125.13 147.47 126.02 L 147.56 127.07 C 147.64 127.96 148.42 128.61 149.30 128.54 C 150.19 128.46 150.84 127.68 150.77 126.80 Z M 150.68 125.72 L 150.57 124.69 C 150.48 123.81 149.69 123.16 148.81 123.25 C 147.93 123.34 147.28 124.13 147.37 125.02 L 147.47 126.04 C 147.56 126.93 148.35 127.57 149.24 127.48 C 150.12 127.40 150.77 126.61 150.68 125.72 Z M 150.57 124.65 L 150.45 123.66 C 150.34 122.78 149.53 122.15 148.65 122.27 C 147.76 122.38 147.14 123.18 147.25 124.06 L 147.37 125.05 C 147.48 125.94 148.29 126.56 149.17 126.45 C 150.06 126.34 150.68 125.54 150.57 124.65 Z M 150.44 123.61 L 150.29 122.67 C 150.15 121.79 149.32 121.19 148.44 121.33 C 147.56 121.47 146.96 122.30 147.10 123.18 L 147.25 124.12 C 147.40 125.00 148.22 125.60 149.10 125.46 C 149.98 125.32 150.58 124.49 150.44 123.61 Z M 150.28 122.59 L 150.09 121.72 C 149.91 120.84 149.05 120.29 148.18 120.47 C 147.31 120.66 146.75 121.51 146.93 122.39 L 147.12 123.26 C 147.30 124.13 148.16 124.69 149.03 124.51 C 149.90 124.32 150.46 123.46 150.28 122.59 Z M 150.06 121.58 L 149.70 120.39 C 149.44 119.53 148.53 119.05 147.67 119.31 C 146.82 119.58 146.34 120.48 146.60 121.34 L 146.96 122.53 C 147.22 123.38 148.13 123.86 148.99 123.60 C 149.84 123.34 150.32 122.43 150.06 121.58 Z M 149.61 120.14 L 149.14 119.18 C 148.73 118.38 147.76 118.05 146.95 118.45 C 146.14 118.85 145.81 119.83 146.21 120.64 L 146.69 121.59 C 147.09 122.40 148.07 122.73 148.88 122.33 C 149.68 121.92 150.01 120.94 149.61 120.14 Z M 148.88 118.80 L 148.29 118.16 C 147.68 117.49 146.64 117.45 145.97 118.06 C 145.30 118.68 145.26 119.72 145.88 120.39 L 146.47 121.02 C 147.08 121.69 148.12 121.73 148.79 121.12 C 149.46 120.50 149.50 119.46 148.88 118.80 Z M 147.65 117.72 L 146.95 117.46 C 146.09 117.14 145.14 117.59 144.82 118.44 C 144.51 119.30 144.95 120.25 145.81 120.57 L 146.52 120.83 C 147.38 121.14 148.33 120.70 148.64 119.84 C 148.95 118.98 148.51 118.03 147.65 117.72 Z M 146.11 117.37 L 145.36 117.49 C 144.45 117.64 143.84 118.49 143.98 119.40 C 144.13 120.31 144.99 120.93 145.90 120.78 L 146.64 120.66 C 147.55 120.51 148.17 119.65 148.02 118.75 C 147.88 117.84 147.02 117.22 146.11 117.37 Z M 144.86 117.64 L 144.04 118.06 C 143.22 118.49 142.90 119.50 143.32 120.33 C 143.75 121.15 144.76 121.48 145.59 121.05 L 146.40 120.63 C 147.23 120.20 147.55 119.19 147.12 118.36 C 146.70 117.54 145.68 117.21 144.86 117.64 Z M 143.76 118.22 L 142.92 118.89 C 142.19 119.47 142.06 120.54 142.64 121.27 C 143.22 122.01 144.29 122.13 145.02 121.55 L 145.87 120.89 C 146.60 120.31 146.73 119.24 146.15 118.50 C 145.57 117.77 144.50 117.64 143.76 118.22 Z M 142.75 119.03 L 141.91 119.88 C 141.25 120.56 141.27 121.64 141.94 122.30 C 142.62 122.96 143.70 122.95 144.36 122.27 L 145.20 121.41 C 145.86 120.74 145.84 119.66 145.17 119.00 C 144.49 118.34 143.41 118.35 142.75 119.03 Z M 141.80 119.99 L 141.19 120.74 C 140.59 121.48 140.70 122.56 141.44 123.16 C 142.18 123.76 143.26 123.65 143.86 122.91 L 144.47 122.16 C 145.07 121.43 144.96 120.34 144.22 119.74 C 143.49 119.14 142.40 119.25 141.80 119.99 Z M 141.12 120.82 L 140.58 121.58 C 140.03 122.35 140.21 123.43 140.98 123.99 C 141.76 124.54 142.84 124.36 143.39 123.59 L 143.93 122.83 C 144.49 122.06 144.31 120.98 143.53 120.42 C 142.75 119.87 141.67 120.05 141.12 120.82 Z M 140.53 121.64 L 140.01 122.45 C 139.49 123.26 139.72 124.33 140.53 124.85 C 141.33 125.37 142.41 125.14 142.92 124.33 L 143.45 123.52 C 143.96 122.71 143.73 121.64 142.93 121.12 C 142.12 120.61 141.05 120.84 140.53 121.64 Z M 139.97 122.51 L 139.46 123.37 C 138.97 124.20 139.24 125.27 140.07 125.76 C 140.90 126.24 141.96 125.97 142.45 125.14 L 142.96 124.28 C 143.45 123.45 143.18 122.38 142.35 121.89 C 141.52 121.41 140.46 121.68 139.97 122.51 Z M 139.43 123.42 L 138.92 124.33 C 138.45 125.18 138.76 126.24 139.61 126.71 C 140.45 127.17 141.51 126.86 141.98 126.02 L 142.48 125.10 C 142.95 124.26 142.64 123.19 141.80 122.73 C 140.95 122.26 139.89 122.57 139.43 123.42 Z M 138.90 124.37 L 138.39 125.34 C 137.94 126.19 138.27 127.25 139.13 127.70 C 139.99 128.15 141.04 127.82 141.49 126.96 L 142.00 125.99 C 142.45 125.13 142.12 124.07 141.26 123.63 C 140.40 123.18 139.34 123.51 138.90 124.37 Z M 138.37 125.36 L 137.90 126.30 C 137.46 127.16 137.81 128.22 138.67 128.66 C 139.54 129.09 140.60 128.74 141.03 127.88 L 141.51 126.94 C 141.95 126.07 141.60 125.02 140.73 124.58 C 139.87 124.14 138.81 124.49 138.37 125.36 Z M 137.89 126.31 L 137.43 127.24 C 137.00 128.11 137.36 129.17 138.23 129.60 C 139.10 130.03 140.16 129.67 140.59 128.79 L 141.05 127.87 C 141.48 126.99 141.12 125.94 140.24 125.51 C 139.37 125.08 138.32 125.44 137.89 126.31 Z M 137.42 127.25 L 136.96 128.19 C 136.54 129.07 136.91 130.12 137.79 130.55 C 138.67 130.97 139.72 130.60 140.15 129.72 L 140.60 128.78 C 141.02 127.90 140.66 126.85 139.78 126.42 C 138.90 126.00 137.84 126.37 137.42 127.25 Z M 136.95 128.20 L 136.51 129.13 C 136.09 130.02 136.47 131.07 137.35 131.49 C 138.23 131.91 139.29 131.54 139.71 130.65 L 140.16 129.72 C 140.58 128.83 140.20 127.77 139.32 127.35 C 138.43 126.93 137.37 127.31 136.95 128.20 Z M 136.50 129.14 L 136.07 130.06 C 135.65 130.95 136.04 132.00 136.93 132.42 C 137.81 132.84 138.87 132.45 139.29 131.56 L 139.72 130.65 C 140.14 129.76 139.75 128.70 138.86 128.28 C 137.97 127.87 136.92 128.25 136.50 129.14 Z M 136.06 130.06 L 135.65 130.95 C 135.24 131.84 135.63 132.90 136.52 133.31 C 137.42 133.73 138.47 133.34 138.89 132.44 L 139.30 131.56 C 139.71 130.67 139.32 129.61 138.43 129.19 C 137.53 128.78 136.48 129.17 136.06 130.06 Z M 135.65 130.95 L 135.26 131.79 C 134.85 132.68 135.25 133.74 136.14 134.16 C 137.04 134.57 138.10 134.17 138.51 133.27 L 138.90 132.44 C 139.31 131.54 138.91 130.48 138.01 130.07 C 137.12 129.66 136.06 130.05 135.65 130.95 Z M 135.26 131.79 L 134.80 132.79 C 134.40 133.69 134.80 134.75 135.70 135.16 C 136.60 135.57 137.66 135.17 138.07 134.27 L 138.52 133.27 C 138.93 132.37 138.53 131.31 137.63 130.90 C 136.73 130.49 135.66 130.89 135.26 131.79 Z M 134.80 132.80 L 134.36 133.77 C 133.96 134.68 134.36 135.74 135.27 136.14 C 136.17 136.55 137.23 136.14 137.64 135.24 L 138.07 134.26 C 138.48 133.36 138.07 132.29 137.17 131.89 C 136.26 131.49 135.20 131.89 134.80 132.80 Z M 134.35 133.78 L 133.96 134.68 C 133.56 135.59 133.98 136.65 134.88 137.05 C 135.79 137.44 136.85 137.03 137.25 136.12 L 137.65 135.23 C 138.05 134.32 137.63 133.26 136.72 132.86 C 135.81 132.46 134.75 132.87 134.35 133.78 Z M 133.95 134.69 L 133.59 135.54 C 133.19 136.45 133.61 137.51 134.53 137.90 C 135.44 138.30 136.50 137.88 136.89 136.96 L 137.26 136.11 C 137.65 135.20 137.23 134.14 136.32 133.75 C 135.41 133.35 134.35 133.77 133.95 134.69 Z M 133.58 135.55 L 133.22 136.38 C 132.84 137.30 133.26 138.36 134.18 138.75 C 135.10 139.14 136.16 138.71 136.55 137.79 L 136.90 136.95 C 137.29 136.04 136.86 134.98 135.94 134.59 C 135.03 134.20 133.97 134.63 133.58 135.55 Z M 133.22 136.39 L 132.84 137.30 C 132.46 138.22 132.89 139.27 133.81 139.66 C 134.73 140.04 135.79 139.61 136.17 138.69 L 136.55 137.78 C 136.94 136.86 136.50 135.81 135.58 135.42 C 134.66 135.04 133.60 135.47 133.22 136.39 Z M 132.84 137.30 L 132.45 138.23 C 132.07 139.16 132.51 140.21 133.43 140.59 C 134.36 140.98 135.41 140.54 135.79 139.61 L 136.18 138.68 C 136.56 137.76 136.12 136.70 135.20 136.32 C 134.27 135.94 133.22 136.38 132.84 137.30 Z M 132.45 138.24 L 132.06 139.18 C 131.69 140.10 132.13 141.16 133.06 141.54 C 133.98 141.91 135.04 141.47 135.42 140.54 L 135.80 139.61 C 136.18 138.68 135.73 137.63 134.81 137.25 C 133.88 136.87 132.82 137.31 132.45 138.24 Z M 132.06 139.18 L 131.68 140.11 C 131.31 141.04 131.76 142.09 132.68 142.47 C 133.61 142.84 134.67 142.40 135.04 141.47 L 135.42 140.54 C 135.80 139.61 135.35 138.56 134.42 138.18 C 133.49 137.80 132.44 138.25 132.06 139.18 Z M 131.68 140.11 L 131.32 141.01 C 130.95 141.94 131.40 143.00 132.33 143.37 C 133.26 143.74 134.32 143.29 134.69 142.36 L 135.05 141.46 C 135.42 140.53 134.97 139.48 134.04 139.11 C 133.11 138.73 132.05 139.18 131.68 140.11 Z M 131.31 141.02 L 130.98 141.88 C 130.61 142.81 131.07 143.87 132.00 144.23 C 132.93 144.60 133.99 144.14 134.36 143.21 L 134.69 142.35 C 135.06 141.42 134.60 140.37 133.67 140.00 C 132.74 139.63 131.68 140.09 131.31 141.02 Z M 130.97 141.90 L 130.64 142.78 C 130.28 143.72 130.76 144.77 131.69 145.12 C 132.63 145.48 133.68 145.00 134.04 144.06 L 134.37 143.19 C 134.72 142.25 134.25 141.20 133.31 140.84 C 132.37 140.49 131.32 140.96 130.97 141.90 Z M 130.62 142.82 L 130.29 143.75 C 129.96 144.70 130.45 145.74 131.40 146.07 C 132.35 146.41 133.39 145.91 133.72 144.96 L 134.05 144.03 C 134.39 143.08 133.89 142.04 132.94 141.71 C 131.99 141.37 130.96 141.87 130.62 142.82 Z M 130.27 143.79 L 129.94 144.82 C 129.63 145.78 130.15 146.80 131.11 147.12 C 132.06 147.43 133.09 146.90 133.40 145.95 L 133.74 144.92 C 134.05 143.96 133.53 142.94 132.57 142.62 C 131.61 142.31 130.59 142.83 130.27 143.79 Z M 129.93 144.86 L 129.63 145.84 C 129.34 146.81 129.89 147.82 130.85 148.11 C 131.82 148.40 132.83 147.85 133.12 146.89 L 133.42 145.91 C 133.71 144.94 133.16 143.93 132.19 143.64 C 131.23 143.35 130.21 143.90 129.93 144.86 Z M 129.62 145.88 L 129.37 146.77 C 129.10 147.74 129.66 148.74 130.63 149.01 C 131.60 149.29 132.61 148.72 132.88 147.75 L 133.13 146.86 C 133.40 145.89 132.84 144.88 131.87 144.61 C 130.90 144.34 129.89 144.91 129.62 145.88 Z M 129.36 146.80 L 129.11 147.74 C 128.86 148.72 129.44 149.71 130.42 149.97 C 131.39 150.23 132.39 149.64 132.64 148.67 L 132.89 147.72 C 133.15 146.75 132.56 145.75 131.59 145.49 C 130.61 145.24 129.62 145.82 129.36 146.80 Z M 129.10 147.77 L 128.86 148.76 C 128.63 149.74 129.23 150.73 130.21 150.97 C 131.19 151.21 132.17 150.60 132.41 149.62 L 132.65 148.64 C 132.89 147.66 132.29 146.67 131.31 146.43 C 130.33 146.19 129.34 146.79 129.10 147.77 Z M 128.85 148.79 L 128.63 149.81 C 128.41 150.79 129.03 151.77 130.01 151.99 C 131.00 152.21 131.97 151.59 132.19 150.61 L 132.42 149.59 C 132.64 148.61 132.02 147.63 131.04 147.41 C 130.05 147.19 129.07 147.81 128.85 148.79 Z M 128.62 149.85 L 128.41 150.88 C 128.21 151.87 128.85 152.83 129.84 153.03 C 130.83 153.23 131.80 152.59 132.00 151.60 L 132.20 150.57 C 132.40 149.58 131.76 148.62 130.77 148.42 C 129.78 148.22 128.82 148.86 128.62 149.85 Z M 128.40 150.92 L 128.22 151.95 C 128.04 152.94 128.71 153.89 129.70 154.07 C 130.70 154.24 131.65 153.58 131.82 152.58 L 132.01 151.56 C 132.18 150.56 131.52 149.61 130.52 149.43 C 129.53 149.26 128.58 149.92 128.40 150.92 Z M 128.21 152.00 L 128.06 153.04 C 127.91 154.04 128.60 154.97 129.60 155.12 C 130.60 155.27 131.53 154.58 131.68 153.58 L 131.83 152.53 C 131.98 151.53 131.29 150.60 130.29 150.45 C 129.29 150.31 128.36 151.00 128.21 152.00 Z M 128.05 153.10 L 127.92 154.13 C 127.80 155.14 128.52 156.05 129.53 156.17 C 130.53 156.29 131.44 155.57 131.56 154.57 L 131.68 153.53 C 131.80 152.53 131.09 151.61 130.08 151.49 C 129.08 151.37 128.17 152.09 128.05 153.10 Z M 127.92 154.18 L 127.83 155.20 C 127.73 156.21 128.47 157.10 129.48 157.19 C 130.49 157.29 131.38 156.54 131.47 155.54 L 131.57 154.52 C 131.66 153.51 130.92 152.62 129.91 152.53 C 128.90 152.44 128.01 153.18 127.92 154.18 Z M 127.82 155.25 L 127.76 156.24 C 127.69 157.25 128.45 158.13 129.46 158.19 C 130.47 158.26 131.34 157.50 131.41 156.49 L 131.48 155.49 C 131.54 154.48 130.78 153.61 129.77 153.54 C 128.76 153.48 127.89 154.24 127.82 155.25 Z M 127.75 156.29 L 127.71 157.26 C 127.67 158.27 128.45 159.13 129.46 159.17 C 130.47 159.21 131.33 158.43 131.37 157.42 L 131.41 156.45 C 131.46 155.43 130.67 154.58 129.66 154.54 C 128.65 154.49 127.80 155.28 127.75 156.29 Z M 127.71 157.30 L 127.69 158.25 C 127.67 159.26 128.47 160.10 129.48 160.12 C 130.49 160.14 131.33 159.34 131.35 158.33 L 131.37 157.38 C 131.39 156.37 130.59 155.53 129.58 155.51 C 128.57 155.49 127.73 156.29 127.71 157.30 Z M 127.69 158.29 L 127.69 159.28 C 127.68 160.29 128.50 161.11 129.51 161.12 C 130.52 161.12 131.35 160.30 131.35 159.29 L 131.35 158.30 C 131.35 157.28 130.54 156.46 129.52 156.46 C 128.51 156.46 127.69 157.28 127.69 158.29 Z M 127.69 159.33 L 127.71 160.43 C 127.74 161.44 128.58 162.24 129.59 162.22 C 130.60 162.19 131.40 161.35 131.37 160.34 L 131.35 159.24 C 131.32 158.23 130.48 157.43 129.47 157.46 C 128.46 157.48 127.66 158.32 127.69 159.33 Z M 127.72 160.52 L 127.79 161.57 C 127.87 162.58 128.75 163.33 129.75 163.26 C 130.76 163.19 131.52 162.31 131.45 161.30 L 131.37 160.25 C 131.30 159.24 130.42 158.49 129.41 158.56 C 128.40 158.63 127.64 159.51 127.72 160.52 Z M 127.81 161.70 L 127.96 162.68 C 128.10 163.68 129.04 164.37 130.04 164.22 C 131.04 164.07 131.73 163.14 131.58 162.14 L 131.43 161.16 C 131.28 160.16 130.35 159.47 129.35 159.62 C 128.35 159.77 127.66 160.70 127.81 161.70 Z M 128.00 162.88 L 128.23 163.77 C 128.49 164.75 129.49 165.34 130.47 165.08 C 131.44 164.82 132.03 163.82 131.77 162.84 L 131.54 161.95 C 131.28 160.97 130.28 160.38 129.30 160.64 C 128.32 160.90 127.74 161.90 128.00 162.88 Z M 128.32 164.03 L 128.67 164.84 C 129.07 165.77 130.14 166.20 131.07 165.80 C 132.00 165.40 132.43 164.33 132.03 163.40 L 131.68 162.59 C 131.28 161.66 130.21 161.23 129.28 161.63 C 128.35 162.03 127.92 163.10 128.32 164.03 Z M 128.85 165.16 L 129.40 165.97 C 129.98 166.80 131.12 167.01 131.95 166.43 C 132.78 165.85 132.99 164.71 132.41 163.88 L 131.85 163.08 C 131.28 162.24 130.14 162.04 129.31 162.61 C 128.48 163.19 128.27 164.33 128.85 165.16 Z M 129.65 166.26 L 130.36 166.92 C 131.09 167.62 132.25 167.59 132.95 166.85 C 133.64 166.12 133.61 164.96 132.87 164.26 L 132.17 163.59 C 131.43 162.90 130.27 162.93 129.58 163.67 C 128.88 164.40 128.92 165.56 129.65 166.26 Z M 130.62 167.13 L 131.45 167.67 C 132.30 168.22 133.43 167.98 133.98 167.14 C 134.53 166.29 134.30 165.15 133.45 164.60 L 132.62 164.06 C 131.77 163.51 130.64 163.75 130.08 164.59 C 129.53 165.44 129.77 166.58 130.62 167.13 Z M 131.69 167.80 L 132.62 168.23 C 133.54 168.65 134.62 168.24 135.05 167.32 C 135.47 166.41 135.06 165.32 134.14 164.90 L 133.21 164.47 C 132.29 164.05 131.21 164.46 130.78 165.37 C 130.36 166.29 130.77 167.38 131.69 167.80 Z M 132.82 168.30 L 133.75 168.61 C 134.71 168.92 135.75 168.39 136.06 167.43 C 136.37 166.47 135.84 165.44 134.88 165.13 L 133.95 164.82 C 132.98 164.51 131.95 165.04 131.64 166.00 C 131.33 166.96 131.86 167.99 132.82 168.30 Z M 133.91 168.65 L 134.85 168.86 C 135.83 169.09 136.81 168.48 137.04 167.49 C 137.26 166.51 136.65 165.53 135.67 165.30 L 134.73 165.08 C 133.74 164.86 132.76 165.47 132.53 166.46 C 132.31 167.44 132.92 168.42 133.91 168.65 Z M 134.97 168.89 L 135.95 169.04 C 136.94 169.20 137.88 168.52 138.04 167.53 C 138.20 166.53 137.52 165.59 136.52 165.43 L 135.54 165.28 C 134.55 165.12 133.61 165.80 133.45 166.79 C 133.29 167.79 133.97 168.73 134.97 168.89 Z M 136.04 169.05 L 137.05 169.16 C 138.06 169.27 138.96 168.55 139.06 167.54 C 139.17 166.54 138.45 165.64 137.44 165.53 L 136.43 165.42 C 135.43 165.31 134.53 166.04 134.42 167.04 C 134.31 168.05 135.04 168.95 136.04 169.05 Z M 137.12 169.17 L 138.16 169.24 C 139.16 169.31 140.03 168.55 140.10 167.55 C 140.18 166.54 139.42 165.67 138.41 165.60 L 137.38 165.53 C 136.37 165.45 135.50 166.21 135.43 167.22 C 135.36 168.23 136.11 169.10 137.12 169.17 Z M 138.20 169.24 L 139.22 169.29 C 140.22 169.33 141.08 168.56 141.12 167.55 C 141.17 166.54 140.39 165.69 139.38 165.64 L 138.37 165.60 C 137.36 165.55 136.51 166.33 136.46 167.34 C 136.41 168.34 137.19 169.20 138.20 169.24 Z M 139.26 169.29 L 140.26 169.31 C 141.27 169.33 142.10 168.53 142.12 167.52 C 142.14 166.51 141.34 165.68 140.33 165.66 L 139.33 165.64 C 138.33 165.62 137.49 166.42 137.47 167.43 C 137.46 168.44 138.26 169.27 139.26 169.29 Z M 140.33 169.31 L 141.33 169.29 C 142.34 169.27 143.14 168.43 143.12 167.43 C 143.10 166.42 142.27 165.62 141.26 165.64 L 140.26 165.66 C 139.25 165.68 138.45 166.52 138.47 167.52 C 138.49 168.53 139.33 169.33 140.33 169.31 Z M 141.43 169.28 L 142.43 169.21 C 143.43 169.13 144.19 168.26 144.11 167.25 C 144.04 166.25 143.16 165.50 142.16 165.57 L 141.16 165.65 C 140.16 165.72 139.41 166.60 139.48 167.60 C 139.55 168.60 140.43 169.35 141.43 169.28 Z M 142.55 169.19 L 143.54 169.05 C 144.54 168.91 145.23 167.99 145.09 166.99 C 144.94 165.99 144.02 165.30 143.03 165.45 L 142.04 165.59 C 141.04 165.73 140.35 166.65 140.49 167.65 C 140.63 168.64 141.56 169.33 142.55 169.19 Z M 143.69 169.02 L 144.64 168.81 C 145.62 168.58 146.23 167.61 146.01 166.63 C 145.79 165.65 144.81 165.04 143.83 165.26 L 142.88 165.47 C 141.90 165.70 141.29 166.67 141.51 167.65 C 141.73 168.63 142.71 169.24 143.69 169.02 Z M 144.79 168.76 L 145.64 168.49 C 146.60 168.19 147.13 167.17 146.82 166.21 C 146.52 165.25 145.49 164.72 144.54 165.03 L 143.69 165.30 C 142.73 165.60 142.20 166.63 142.50 167.58 C 142.81 168.54 143.83 169.07 144.79 168.76 Z M 145.77 168.44 L 146.63 168.10 C 147.56 167.72 148.00 166.66 147.63 165.73 C 147.25 164.80 146.19 164.35 145.26 164.73 L 144.41 165.08 C 143.48 165.45 143.03 166.51 143.41 167.44 C 143.78 168.37 144.84 168.82 145.77 168.44 Z M 146.74 168.05 L 147.60 167.62 C 148.51 167.18 148.88 166.09 148.44 165.19 C 148.00 164.29 146.91 163.92 146.01 164.36 L 145.14 164.78 C 144.24 165.22 143.87 166.31 144.31 167.21 C 144.75 168.11 145.84 168.49 146.74 168.05 Z M 147.70 167.57 L 148.59 167.07 C 149.46 166.57 149.77 165.47 149.27 164.59 C 148.78 163.72 147.67 163.42 146.80 163.91 L 145.91 164.41 C 145.04 164.91 144.73 166.01 145.23 166.89 C 145.72 167.76 146.83 168.06 147.70 167.57 Z M 148.66 167.02 L 149.58 166.44 C 150.43 165.90 150.68 164.78 150.15 163.93 C 149.61 163.09 148.49 162.84 147.64 163.37 L 146.72 163.96 C 145.88 164.49 145.63 165.61 146.16 166.46 C 146.70 167.31 147.82 167.56 148.66 167.02 Z M 149.64 166.40 L 150.57 165.76 C 151.39 165.19 151.60 164.06 151.03 163.24 C 150.46 162.41 149.33 162.20 148.51 162.77 L 147.58 163.41 C 146.76 163.98 146.55 165.11 147.12 165.94 C 147.69 166.76 148.82 166.97 149.64 166.40 Z M 150.61 165.73 L 151.39 165.16 C 152.19 164.57 152.37 163.43 151.78 162.63 C 151.19 161.82 150.05 161.64 149.25 162.24 L 148.47 162.80 C 147.66 163.39 147.49 164.53 148.08 165.33 C 148.67 166.14 149.80 166.32 150.61 165.73 Z M 151.42 165.13 L 152.21 164.53 C 153.01 163.92 153.16 162.78 152.55 161.99 C 151.94 161.20 150.81 161.04 150.01 161.65 L 149.22 162.26 C 148.42 162.87 148.27 164.00 148.88 164.80 C 149.49 165.59 150.62 165.74 151.42 165.13 Z M 152.24 164.51 L 153.04 163.87 C 153.82 163.25 153.95 162.11 153.33 161.32 C 152.71 160.54 151.57 160.41 150.79 161.03 L 149.99 161.67 C 149.20 162.29 149.07 163.43 149.70 164.21 C 150.32 165.00 151.46 165.13 152.24 164.51 Z M 153.07 163.85 L 153.87 163.19 C 154.64 162.55 154.75 161.41 154.11 160.64 C 153.48 159.87 152.34 159.76 151.57 160.40 L 150.77 161.06 C 150.00 161.69 149.89 162.83 150.52 163.60 C 151.16 164.37 152.30 164.48 153.07 163.85 Z M 153.89 163.17 L 154.67 162.50 C 155.43 161.85 155.52 160.71 154.87 159.95 C 154.23 159.19 153.09 159.10 152.33 159.75 L 151.54 160.42 C 150.78 161.07 150.69 162.21 151.34 162.96 C 151.99 163.72 153.13 163.81 153.89 163.17 Z M 154.70 162.47 L 155.46 161.80 C 156.20 161.14 156.27 160.00 155.61 159.25 C 154.95 158.51 153.81 158.44 153.06 159.10 L 152.30 159.77 C 151.56 160.43 151.49 161.57 152.15 162.32 C 152.81 163.07 153.95 163.13 154.70 162.47 Z M 155.48 161.78 L 156.20 161.11 C 156.94 160.44 156.98 159.30 156.31 158.56 C 155.63 157.83 154.49 157.78 153.76 158.46 L 153.04 159.12 C 152.30 159.80 152.26 160.94 152.93 161.67 C 153.61 162.41 154.75 162.45 155.48 161.78 Z M 156.23 161.09 L 156.97 160.38 C 157.68 159.69 157.71 158.55 157.02 157.83 C 156.33 157.11 155.18 157.09 154.47 157.78 L 153.73 158.49 C 153.01 159.18 152.99 160.32 153.68 161.04 C 154.37 161.75 155.51 161.78 156.23 161.09 Z M 157.00 160.34 L 157.80 159.53 C 158.49 158.82 158.48 157.68 157.77 156.98 C 157.06 156.29 155.92 156.30 155.22 157.01 L 154.43 157.82 C 153.73 158.53 153.74 159.67 154.45 160.36 C 155.16 161.06 156.30 161.05 157.00 160.34 Z M 157.83 159.49 L 158.55 158.71 C 159.22 157.98 159.17 156.85 158.44 156.17 C 157.71 155.50 156.58 155.54 155.90 156.28 L 155.19 157.05 C 154.51 157.78 154.56 158.92 155.29 159.59 C 156.02 160.27 157.16 160.22 157.83 159.49 Z M 158.58 158.67 L 159.23 157.92 C 159.88 157.17 159.80 156.04 159.05 155.39 C 158.30 154.74 157.17 154.82 156.52 155.57 L 155.87 156.32 C 155.22 157.07 155.30 158.20 156.05 158.85 C 156.80 159.50 157.93 159.42 158.58 158.67 Z M 159.26 157.88 L 159.86 157.16 C 160.48 156.39 160.37 155.26 159.61 154.63 C 158.84 154.00 157.71 154.12 157.08 154.88 L 156.48 155.61 C 155.86 156.38 155.97 157.51 156.74 158.14 C 157.50 158.76 158.63 158.65 159.26 157.88 Z M 159.88 157.12 L 160.44 156.41 C 161.05 155.63 160.91 154.50 160.12 153.89 C 159.34 153.29 158.22 153.43 157.61 154.21 L 157.05 154.92 C 156.45 155.70 156.59 156.82 157.37 157.43 C 158.15 158.04 159.27 157.90 159.88 157.12 Z M 160.46 156.38 L 161.02 155.63 C 161.61 154.84 161.45 153.72 160.66 153.13 C 159.87 152.53 158.74 152.70 158.15 153.49 L 157.59 154.23 C 157.00 155.03 157.16 156.15 157.95 156.74 C 158.74 157.33 159.86 157.17 160.46 156.38 Z M 161.03 155.61 L 161.64 154.77 C 162.22 153.97 162.04 152.85 161.24 152.27 C 160.44 151.69 159.32 151.87 158.74 152.67 L 158.13 153.51 C 157.56 154.31 157.73 155.43 158.53 156.01 C 159.34 156.59 160.45 156.41 161.03 155.61 Z M 161.66 154.74 L 162.24 153.91 C 162.80 153.10 162.60 151.98 161.79 151.42 C 160.98 150.85 159.87 151.05 159.30 151.86 L 158.72 152.70 C 158.16 153.51 158.36 154.62 159.17 155.19 C 159.98 155.75 161.10 155.55 161.66 154.74 Z M 162.26 153.88 L 162.81 153.05 C 163.36 152.23 163.13 151.12 162.31 150.57 C 161.49 150.02 160.38 150.25 159.83 151.07 L 159.28 151.90 C 158.74 152.72 158.96 153.83 159.78 154.37 C 160.60 154.92 161.71 154.70 162.26 153.88 Z M 162.83 153.01 L 163.35 152.19 C 163.88 151.36 163.63 150.26 162.80 149.73 C 161.96 149.20 160.86 149.45 160.33 150.28 L 159.81 151.10 C 159.28 151.94 159.53 153.04 160.37 153.57 C 161.20 154.10 162.30 153.85 162.83 153.01 Z M 163.37 152.15 L 163.87 151.32 C 164.38 150.48 164.10 149.38 163.25 148.87 C 162.41 148.37 161.31 148.64 160.80 149.49 L 160.31 150.32 C 159.80 151.17 160.08 152.27 160.92 152.77 C 161.77 153.28 162.87 153.00 163.37 152.15 Z M 163.90 151.27 L 164.38 150.40 C 164.85 149.54 164.54 148.45 163.68 147.98 C 162.81 147.50 161.72 147.82 161.25 148.68 L 160.77 149.55 C 160.30 150.41 160.61 151.50 161.48 151.97 C 162.34 152.45 163.43 152.13 163.90 151.27 Z M 164.42 150.31 L 164.85 149.43 C 165.28 148.54 164.90 147.47 164.01 147.05 C 163.12 146.62 162.05 146.99 161.63 147.88 L 161.20 148.77 C 160.78 149.66 161.15 150.73 162.04 151.15 C 162.93 151.58 164.00 151.20 164.42 150.31 Z M 164.90 149.31 L 165.26 148.39 C 165.62 147.47 165.17 146.43 164.25 146.07 C 163.33 145.71 162.29 146.17 161.93 147.08 L 161.57 148.01 C 161.22 148.93 161.67 149.96 162.59 150.32 C 163.51 150.68 164.54 150.23 164.90 149.31 Z M 165.31 148.24 L 165.60 147.26 C 165.88 146.31 165.33 145.32 164.38 145.04 C 163.44 144.77 162.44 145.31 162.17 146.26 L 161.88 147.24 C 161.61 148.18 162.15 149.17 163.10 149.45 C 164.05 149.73 165.04 149.18 165.31 148.24 Z M 165.64 147.09 L 165.83 146.08 C 166.02 145.12 165.38 144.18 164.41 143.99 C 163.44 143.81 162.51 144.44 162.32 145.41 L 162.13 146.42 C 161.94 147.39 162.58 148.33 163.55 148.51 C 164.52 148.70 165.45 148.06 165.64 147.09 Z M 165.85 145.93 L 165.96 144.89 C 166.06 143.91 165.34 143.04 164.36 142.94 C 163.37 142.84 162.50 143.56 162.40 144.54 L 162.30 145.57 C 162.20 146.55 162.92 147.43 163.90 147.53 C 164.88 147.63 165.76 146.91 165.85 145.93 Z M 165.97 144.74 L 165.98 143.70 C 165.99 142.71 165.19 141.90 164.21 141.89 C 163.22 141.88 162.41 142.68 162.40 143.66 L 162.39 144.70 C 162.38 145.69 163.17 146.50 164.16 146.51 C 165.15 146.51 165.96 145.72 165.97 144.74 Z M 165.97 143.52 L 165.88 142.52 C 165.79 141.54 164.92 140.81 163.94 140.90 C 162.95 140.99 162.23 141.86 162.32 142.84 L 162.41 143.84 C 162.50 144.83 163.37 145.55 164.35 145.46 C 165.33 145.37 166.06 144.50 165.97 143.52 Z M 165.85 142.30 L 165.65 141.38 C 165.44 140.41 164.49 139.80 163.52 140.01 C 162.56 140.22 161.94 141.17 162.15 142.13 L 162.35 143.06 C 162.56 144.02 163.51 144.64 164.47 144.43 C 165.44 144.22 166.05 143.27 165.85 142.30 Z M 165.56 141.08 L 165.18 140.16 C 164.81 139.24 163.77 138.80 162.85 139.17 C 161.94 139.54 161.50 140.58 161.87 141.50 L 162.24 142.43 C 162.61 143.34 163.65 143.78 164.57 143.41 C 165.49 143.04 165.93 142.00 165.56 141.08 Z M 165.00 139.82 L 164.44 139.00 C 163.88 138.18 162.77 137.97 161.96 138.53 C 161.14 139.09 160.93 140.20 161.49 141.02 L 162.05 141.84 C 162.60 142.65 163.72 142.86 164.53 142.31 C 165.35 141.75 165.56 140.64 165.00 139.82 Z M 164.21 138.73 L 163.52 138.05 C 162.81 137.36 161.68 137.37 160.99 138.08 C 160.30 138.78 160.31 139.92 161.02 140.61 L 161.71 141.29 C 162.42 141.98 163.55 141.96 164.24 141.26 C 164.93 140.55 164.92 139.42 164.21 138.73 Z M 163.31 137.88 L 162.51 137.30 C 161.71 136.72 160.60 136.91 160.02 137.71 C 159.44 138.51 159.62 139.63 160.42 140.20 L 161.22 140.78 C 162.02 141.36 163.14 141.17 163.72 140.37 C 164.30 139.57 164.12 138.45 163.31 137.88 Z M 162.37 137.21 L 161.53 136.72 C 160.68 136.22 159.58 136.51 159.09 137.36 C 158.59 138.21 158.87 139.30 159.73 139.80 L 160.57 140.29 C 161.42 140.79 162.51 140.51 163.01 139.65 C 163.51 138.80 163.22 137.71 162.37 137.21 Z M 161.42 136.66 L 160.55 136.23 C 159.67 135.79 158.59 136.15 158.16 137.03 C 157.72 137.91 158.08 138.98 158.96 139.42 L 159.83 139.86 C 160.71 140.29 161.78 139.94 162.22 139.05 C 162.66 138.17 162.30 137.10 161.42 136.66 Z M 160.45 136.19 L 159.53 135.80 C 158.63 135.41 157.58 135.83 157.20 136.73 C 156.81 137.63 157.23 138.68 158.13 139.06 L 159.05 139.46 C 159.95 139.84 161.00 139.43 161.39 138.52 C 161.77 137.62 161.35 136.58 160.45 136.19 Z M 159.44 135.77 L 158.49 135.41 C 157.57 135.07 156.55 135.54 156.21 136.46 C 155.87 137.38 156.34 138.40 157.26 138.74 L 158.22 139.09 C 159.13 139.43 160.15 138.96 160.49 138.04 C 160.83 137.12 160.36 136.11 159.44 135.77 Z M 158.41 135.39 L 157.47 135.09 C 156.54 134.79 155.55 135.31 155.25 136.24 C 154.95 137.16 155.46 138.16 156.39 138.46 L 157.33 138.76 C 158.26 139.06 159.26 138.54 159.55 137.61 C 159.85 136.68 159.34 135.69 158.41 135.39 Z M 157.41 135.08 L 156.52 134.83 C 155.58 134.57 154.61 135.11 154.35 136.05 C 154.08 136.99 154.63 137.96 155.57 138.22 L 156.46 138.47 C 157.39 138.73 158.36 138.19 158.63 137.25 C 158.89 136.31 158.34 135.34 157.41 135.08 Z M 156.46 134.82 L 155.53 134.59 C 154.59 134.36 153.64 134.94 153.41 135.88 C 153.17 136.82 153.75 137.77 154.69 138.00 L 155.62 138.23 C 156.56 138.46 157.51 137.88 157.74 136.94 C 157.98 136.00 157.40 135.05 156.46 134.82 Z M 155.48 134.59 L 154.50 134.37 C 153.55 134.17 152.62 134.76 152.42 135.71 C 152.21 136.65 152.81 137.58 153.75 137.79 L 154.74 138.00 C 155.68 138.21 156.61 137.61 156.82 136.67 C 157.02 135.72 156.42 134.79 155.48 134.59 Z M 154.46 134.37 L 153.40 134.17 C 152.46 133.98 151.54 134.60 151.36 135.54 C 151.17 136.48 151.79 137.40 152.73 137.58 L 153.79 137.79 C 154.73 137.97 155.65 137.36 155.83 136.41 C 156.02 135.47 155.40 134.56 154.46 134.37 Z M 153.37 134.17 L 152.36 133.99 C 151.42 133.82 150.52 134.44 150.35 135.38 C 150.18 136.33 150.81 137.23 151.75 137.40 L 152.76 137.58 C 153.70 137.75 154.60 137.12 154.77 136.18 C 154.94 135.24 154.32 134.34 153.37 134.17 Z M 152.34 133.99 L 151.39 133.83 C 150.45 133.67 149.56 134.30 149.40 135.24 C 149.24 136.18 149.88 137.07 150.81 137.23 L 151.77 137.39 C 152.70 137.55 153.59 136.92 153.75 135.98 C 153.91 135.04 153.28 134.15 152.34 133.99 Z M 151.38 133.84 L 150.39 133.68 C 149.46 133.52 148.58 134.16 148.43 135.09 C 148.27 136.03 148.91 136.91 149.84 137.06 L 150.83 137.22 C 151.76 137.37 152.64 136.74 152.79 135.81 C 152.95 134.87 152.31 133.99 151.38 133.84 Z M 150.39 133.69 L 149.38 133.52 C 148.45 133.38 147.58 134.01 147.43 134.94 C 147.28 135.87 147.91 136.74 148.84 136.89 L 149.85 137.05 C 150.78 137.20 151.65 136.57 151.80 135.64 C 151.95 134.71 151.31 133.84 150.39 133.69 Z M 149.37 133.53 L 148.36 133.37 C 147.44 133.23 146.57 133.86 146.42 134.78 C 146.27 135.70 146.90 136.57 147.83 136.72 L 148.84 136.88 C 149.77 137.03 150.63 136.40 150.78 135.47 C 150.93 134.55 150.30 133.68 149.37 133.53 Z M 148.36 133.38 L 147.35 133.22 C 146.43 133.07 145.57 133.70 145.42 134.62 C 145.28 135.54 145.90 136.40 146.82 136.55 L 147.83 136.71 C 148.75 136.85 149.61 136.23 149.76 135.31 C 149.90 134.39 149.28 133.53 148.36 133.38 Z M 147.36 133.23 L 146.35 133.07 C 145.43 132.92 144.57 133.54 144.42 134.45 C 144.28 135.36 144.89 136.22 145.80 136.37 L 146.82 136.53 C 147.73 136.68 148.59 136.07 148.74 135.15 C 148.89 134.24 148.27 133.38 147.36 133.23 Z M 146.35 133.08 L 145.33 132.91 C 144.42 132.76 143.57 133.37 143.42 134.27 C 143.26 135.17 143.87 136.03 144.77 136.18 L 145.80 136.35 C 146.70 136.50 147.56 135.90 147.71 134.99 C 147.86 134.09 147.25 133.24 146.35 133.08 Z M 145.33 132.93 L 144.33 132.76 C 143.44 132.60 142.59 133.20 142.44 134.09 C 142.28 134.98 142.88 135.83 143.77 135.99 L 144.77 136.16 C 145.66 136.32 146.51 135.72 146.67 134.83 C 146.82 133.93 146.22 133.08 145.33 132.93 Z M 144.34 132.77 L 143.36 132.60 C 142.48 132.45 141.64 133.03 141.48 133.92 C 141.32 134.80 141.91 135.64 142.79 135.80 L 143.77 135.97 C 144.65 136.13 145.50 135.54 145.65 134.66 C 145.81 133.77 145.22 132.93 144.34 132.77 Z M 143.36 132.62 L 142.40 132.45 C 141.53 132.29 140.69 132.87 140.53 133.74 C 140.38 134.61 140.96 135.45 141.83 135.61 L 142.79 135.78 C 143.67 135.94 144.50 135.36 144.66 134.48 C 144.81 133.61 144.23 132.78 143.36 132.62 Z M 142.40 132.46 L 141.44 132.29 C 140.58 132.13 139.75 132.71 139.60 133.57 C 139.44 134.43 140.01 135.26 140.88 135.42 L 141.83 135.59 C 142.69 135.75 143.52 135.17 143.68 134.31 C 143.83 133.45 143.26 132.62 142.40 132.46 Z M 141.44 132.30 L 141.10 132.24 C 140.24 132.08 139.42 132.65 139.26 133.51 C 139.11 134.36 139.68 135.19 140.53 135.34 L 140.88 135.40 C 141.74 135.56 142.56 134.99 142.71 134.14 C 142.87 133.28 142.30 132.46 141.44 132.30 Z"
      fill="black"
      fill-rule="nonzero" /></svg>