<svg xmlns="http://www.w3.org/2000/svg" width="300" height="300" viewBox="0 0 300 300">
<path d="M 157.93 157.67 L 157.93 156.66 C 157.93 155.75 157.19 155.01 156.28 155.01 C 155.37 155.01 154.63 155.75 154.63 156.66 L 154.63 157.67 C 154.63 158.58 155.37 159.32 156.28 159.32 C 157.19 159.32 157.93 158.58 157.93 157.67 Z M 157.93 156.66 L 157.93 155.65 C 157.93 154.74 157.19 154.00 156.28 154.00 C 155.36 154.00 154.62 154.74 154.62 155.65 L 154.62 156.66 C 154.62 157.57 155.36 158.32 156.28 158.32 C 157.19 158.32 157.93 157.57 157.93 156.66 Z M 157.94 155.65 L 157.94 154.65 C 157.94 153.73 157.19 152.99 156.28 152.99 C 155.36 152.99 154.62 153.73 154.62 154.65 L 154.62 155.65 C 154.62 156.57 155.36 157.31 156.28 157.31 C 157.19 157.31 157.94 156.57 157.94 155.65 Z M 157.94 154.65 L 157.94 153.64 C 157.94 152.73 157.19 151.99 156.28 151.99 C 155.36 151.99 154.62 152.73 154.62 153.64 L 154.62 154.65 C 154.62 155.56 155.36 156.31 156.28 156.31 C 157.19 156.31 157.94 155.56 157.94 154.65 Z M 157.94 153.64 L 157.94 152.65 C 157.94 151.73 157.20 150.98 156.28 150.98 C 155.36 150.98 154.62 151.73 154.62 152.65 L 154.62 153.64 C 154.62 154.56 155.36 155.31 156.28 155.31 C 157.20 155.31 157.94 154.56 157.94 153.64 Z M 157.94 152.65 L 157.94 151.65 C 157.94 150.73 157.20 149.99 156.28 149.99 C 155.36 149.99 154.61 150.73 154.61 151.65 L 154.61 152.65 C 154.61 153.57 155.36 154.31 156.28 154.31 C 157.20 154.31 157.94 153.57 157.94 152.65 Z M 157.95 151.65 L 157.95 150.66 C 157.95 149.74 157.20 149.00 156.28 149.00 C 155.36 149.00 154.61 149.74 154.61 150.66 L 154.61 151.65 C 154.61 152.57 155.36 153.32 156.28 153.32 C 157.20 153.32 157.95 152.57 157.95 151.65 Z M 157.96 150.66 L 157.96 149.61 C 157.96 148.68 157.20 147.93 156.28 147.93 C 155.35 147.93 154.60 148.68 154.60 149.61 L 154.60 150.66 C 154.60 151.59 155.35 152.34 156.28 152.34 C 157.21 152.34 157.96 151.59 157.96 150.66 Z M 157.98 149.60 L 157.97 148.53 C 157.97 147.59 157.20 146.83 156.27 146.83 C 155.33 146.84 154.57 147.60 154.57 148.54 L 154.58 149.62 C 154.58 150.56 155.35 151.31 156.29 151.31 C 157.22 151.31 157.98 150.54 157.98 149.60 Z M 158.00 148.51 L 157.98 147.45 C 157.97 146.50 157.19 145.74 156.23 145.75 C 155.28 145.77 154.52 146.55 154.53 147.50 L 154.55 148.56 C 154.56 149.51 155.35 150.27 156.30 150.26 C 157.25 150.24 158.01 149.46 158.00 148.51 Z M 158.01 147.42 L 157.98 146.40 C 157.94 145.44 157.14 144.68 156.17 144.71 C 155.20 144.74 154.44 145.55 154.48 146.52 L 154.51 147.54 C 154.54 148.50 155.35 149.26 156.31 149.23 C 157.28 149.20 158.04 148.39 158.01 147.42 Z M 158.00 146.36 L 157.94 145.38 C 157.89 144.40 157.05 143.65 156.07 143.71 C 155.09 143.77 154.34 144.61 154.40 145.59 L 154.45 146.56 C 154.51 147.54 155.35 148.29 156.33 148.23 C 157.31 148.18 158.06 147.34 158.00 146.36 Z M 157.96 145.32 L 157.88 144.39 C 157.78 143.40 156.91 142.67 155.91 142.77 C 154.92 142.86 154.20 143.74 154.29 144.73 L 154.37 145.65 C 154.47 146.64 155.35 147.37 156.34 147.28 C 157.33 147.19 158.06 146.31 157.96 145.32 Z M 157.89 144.30 L 157.76 143.41 C 157.62 142.41 156.69 141.72 155.69 141.86 C 154.70 142.01 154.00 142.93 154.15 143.93 L 154.27 144.82 C 154.42 145.82 155.34 146.51 156.34 146.37 C 157.34 146.23 158.04 145.30 157.89 144.30 Z M 157.76 143.27 L 157.51 142.14 C 157.29 141.14 156.30 140.52 155.30 140.74 C 154.30 140.97 153.67 141.96 153.89 142.96 L 154.15 144.08 C 154.37 145.08 155.36 145.71 156.36 145.48 C 157.36 145.26 157.99 144.27 157.76 143.27 Z M 157.49 141.95 L 157.15 140.96 C 156.82 139.98 155.75 139.45 154.77 139.78 C 153.78 140.11 153.25 141.18 153.59 142.16 L 153.92 143.15 C 154.25 144.14 155.32 144.67 156.30 144.33 C 157.29 144.00 157.82 142.93 157.49 141.95 Z M 157.10 140.75 L 156.69 139.88 C 156.24 138.93 155.11 138.52 154.15 138.96 C 153.20 139.41 152.78 140.55 153.23 141.50 L 153.64 142.37 C 154.09 143.33 155.23 143.74 156.18 143.29 C 157.14 142.84 157.55 141.71 157.10 140.75 Z M 156.61 139.67 L 156.13 138.91 C 155.56 138.00 154.37 137.72 153.46 138.29 C 152.55 138.85 152.28 140.05 152.84 140.96 L 153.32 141.72 C 153.88 142.63 155.08 142.90 155.99 142.34 C 156.90 141.77 157.17 140.57 156.61 139.67 Z M 156.01 138.69 L 155.41 137.96 C 154.73 137.12 153.49 136.99 152.65 137.68 C 151.81 138.36 151.68 139.60 152.37 140.44 L 152.96 141.17 C 153.65 142.02 154.89 142.14 155.73 141.46 C 156.57 140.77 156.70 139.53 156.01 138.69 Z M 155.24 137.73 L 154.50 137.06 C 153.69 136.31 152.43 136.37 151.69 137.18 C 150.94 137.99 151.00 139.26 151.81 140.00 L 152.54 140.67 C 153.36 141.42 154.62 141.36 155.36 140.55 C 156.11 139.74 156.05 138.47 155.24 137.73 Z M 154.26 136.83 L 153.43 136.30 C 152.50 135.69 151.24 135.95 150.63 136.89 C 150.03 137.83 150.29 139.08 151.23 139.69 L 152.05 140.23 C 152.99 140.84 154.25 140.57 154.85 139.63 C 155.46 138.69 155.20 137.44 154.26 136.83 Z M 153.14 136.11 L 152.22 135.71 C 151.18 135.27 149.97 135.75 149.52 136.79 C 149.08 137.84 149.56 139.04 150.61 139.49 L 151.53 139.88 C 152.57 140.33 153.78 139.84 154.22 138.80 C 154.67 137.76 154.18 136.55 153.14 136.11 Z M 151.91 135.58 L 150.93 135.34 C 149.82 135.06 148.69 135.75 148.42 136.86 C 148.14 137.98 148.82 139.11 149.94 139.38 L 150.91 139.62 C 152.03 139.90 153.16 139.21 153.43 138.10 C 153.71 136.98 153.03 135.85 151.91 135.58 Z M 150.65 135.27 L 149.64 135.16 C 148.48 135.04 147.45 135.88 147.33 137.04 C 147.21 138.19 148.05 139.23 149.20 139.35 L 150.22 139.45 C 151.37 139.57 152.41 138.73 152.53 137.58 C 152.65 136.42 151.81 135.39 150.65 135.27 Z M 149.38 135.13 L 148.36 135.15 C 147.19 135.17 146.25 136.14 146.28 137.32 C 146.30 138.49 147.27 139.43 148.45 139.40 L 149.46 139.38 C 150.64 139.36 151.57 138.39 151.55 137.21 C 151.53 136.04 150.56 135.10 149.38 135.13 Z M 148.09 135.14 L 147.13 135.29 C 145.95 135.46 145.14 136.55 145.31 137.73 C 145.48 138.90 146.57 139.72 147.75 139.54 L 148.72 139.40 C 149.89 139.23 150.71 138.14 150.53 136.96 C 150.36 135.79 149.27 134.97 148.09 135.14 Z M 146.80 135.34 L 145.84 135.64 C 144.69 135.99 144.05 137.20 144.40 138.35 C 144.75 139.49 145.97 140.14 147.11 139.79 L 148.07 139.49 C 149.22 139.14 149.86 137.93 149.51 136.78 C 149.16 135.63 147.95 134.99 146.80 135.34 Z M 145.48 135.77 L 144.61 136.22 C 143.53 136.76 143.11 138.08 143.66 139.15 C 144.20 140.22 145.52 140.65 146.59 140.10 L 147.47 139.65 C 148.54 139.11 148.96 137.79 148.42 136.72 C 147.87 135.65 146.56 135.22 145.48 135.77 Z M 144.31 136.38 L 143.52 136.96 C 142.54 137.67 142.32 139.04 143.03 140.02 C 143.74 141.00 145.11 141.21 146.09 140.51 L 146.88 139.93 C 147.86 139.22 148.08 137.85 147.37 136.87 C 146.66 135.89 145.29 135.68 144.31 136.38 Z M 143.33 137.11 L 142.60 137.77 C 141.70 138.59 141.63 139.98 142.45 140.87 C 143.27 141.77 144.66 141.84 145.55 141.02 L 146.28 140.36 C 147.18 139.54 147.25 138.15 146.43 137.25 C 145.61 136.36 144.22 136.29 143.33 137.11 Z M 142.48 137.88 L 141.83 138.56 C 140.99 139.44 141.02 140.84 141.90 141.68 C 142.79 142.52 144.18 142.48 145.02 141.60 L 145.67 140.91 C 146.51 140.03 146.48 138.64 145.59 137.80 C 144.71 136.96 143.32 136.99 142.48 137.88 Z M 141.74 138.66 L 141.10 139.41 C 140.31 140.34 140.43 141.74 141.36 142.52 C 142.29 143.31 143.68 143.20 144.47 142.26 L 145.11 141.51 C 145.90 140.58 145.78 139.18 144.85 138.40 C 143.92 137.61 142.53 137.72 141.74 138.66 Z M 141.02 139.50 L 140.39 140.33 C 139.65 141.30 139.84 142.69 140.82 143.43 C 141.79 144.17 143.18 143.98 143.92 143.00 L 144.54 142.18 C 145.28 141.20 145.09 139.82 144.12 139.08 C 143.15 138.34 141.76 138.53 141.02 139.50 Z M 140.33 140.41 L 139.75 141.24 C 139.06 142.25 139.31 143.63 140.32 144.32 C 141.33 145.02 142.71 144.77 143.40 143.76 L 143.98 142.92 C 144.67 141.92 144.42 140.54 143.41 139.84 C 142.40 139.15 141.02 139.40 140.33 140.41 Z M 139.70 141.32 L 139.20 142.11 C 138.55 143.15 138.86 144.52 139.89 145.17 C 140.93 145.82 142.30 145.52 142.95 144.48 L 143.45 143.68 C 144.11 142.65 143.80 141.28 142.76 140.62 C 141.73 139.97 140.36 140.28 139.70 141.32 Z M 139.16 142.18 L 138.67 143.03 C 138.05 144.09 138.41 145.45 139.47 146.06 C 140.53 146.67 141.89 146.31 142.51 145.25 L 143.00 144.41 C 143.61 143.35 143.25 141.99 142.19 141.37 C 141.13 140.76 139.77 141.12 139.16 142.18 Z M 138.62 143.10 L 138.15 144.00 C 137.57 145.08 137.98 146.43 139.07 147.00 C 140.15 147.58 141.50 147.16 142.07 146.08 L 142.55 145.18 C 143.12 144.10 142.71 142.75 141.63 142.18 C 140.54 141.60 139.20 142.02 138.62 143.10 Z M 138.11 144.07 L 137.64 145.03 C 137.11 146.14 137.57 147.47 138.68 148.00 C 139.78 148.54 141.11 148.07 141.65 146.97 L 142.11 146.01 C 142.65 144.90 142.18 143.57 141.08 143.04 C 139.97 142.50 138.64 142.97 138.11 144.07 Z M 137.61 145.10 L 137.21 146.00 C 136.71 147.12 137.22 148.43 138.34 148.93 C 139.47 149.43 140.78 148.92 141.28 147.80 L 141.68 146.90 C 142.18 145.78 141.67 144.47 140.55 143.97 C 139.42 143.47 138.11 143.98 137.61 145.10 Z M 137.19 146.06 L 136.82 146.96 C 136.36 148.09 136.90 149.39 138.04 149.86 C 139.18 150.32 140.48 149.77 140.94 148.64 L 141.31 147.74 C 141.77 146.60 141.22 145.30 140.09 144.84 C 138.95 144.38 137.65 144.92 137.19 146.06 Z M 136.80 147.02 L 136.45 147.95 C 136.02 149.10 136.60 150.39 137.76 150.81 C 138.91 151.24 140.19 150.66 140.62 149.51 L 140.97 148.57 C 141.39 147.42 140.81 146.14 139.66 145.71 C 138.51 145.28 137.22 145.87 136.80 147.02 Z M 136.42 148.02 L 136.10 148.98 C 135.71 150.15 136.33 151.41 137.50 151.80 C 138.66 152.19 139.92 151.57 140.32 150.40 L 140.64 149.44 C 141.03 148.28 140.41 147.01 139.24 146.62 C 138.08 146.23 136.82 146.86 136.42 148.02 Z M 136.08 149.05 L 135.78 150.04 C 135.43 151.22 136.10 152.46 137.27 152.81 C 138.45 153.16 139.69 152.50 140.04 151.32 L 140.34 150.33 C 140.69 149.15 140.02 147.91 138.85 147.56 C 137.67 147.21 136.43 147.88 136.08 149.05 Z M 135.76 150.12 L 135.50 151.13 C 135.19 152.32 135.90 153.54 137.09 153.85 C 138.28 154.15 139.49 153.44 139.80 152.25 L 140.07 151.24 C 140.38 150.05 139.66 148.84 138.47 148.53 C 137.28 148.22 136.07 148.93 135.76 150.12 Z M 135.48 151.21 L 135.24 152.26 C 134.98 153.46 135.74 154.65 136.94 154.91 C 138.14 155.18 139.33 154.42 139.59 153.22 L 139.82 152.17 C 140.09 150.97 139.33 149.78 138.13 149.52 C 136.93 149.25 135.74 150.01 135.48 151.21 Z M 135.23 152.33 L 135.04 153.37 C 134.81 154.58 135.61 155.74 136.82 155.97 C 138.03 156.19 139.19 155.39 139.41 154.18 L 139.61 153.15 C 139.83 151.94 139.03 150.78 137.82 150.55 C 136.62 150.33 135.45 151.12 135.23 152.33 Z M 135.03 153.43 L 134.87 154.44 C 134.68 155.66 135.51 156.80 136.72 156.99 C 137.94 157.18 139.08 156.34 139.27 155.13 L 139.42 154.12 C 139.61 152.91 138.78 151.77 137.57 151.58 C 136.35 151.39 135.22 152.22 135.03 153.43 Z M 134.86 154.50 L 134.74 155.46 C 134.58 156.68 135.44 157.80 136.66 157.96 C 137.88 158.11 138.99 157.25 139.15 156.04 L 139.27 155.07 C 139.43 153.85 138.57 152.74 137.35 152.58 C 136.13 152.42 135.02 153.28 134.86 154.50 Z M 134.73 155.52 L 134.64 156.41 C 134.51 157.63 135.39 158.73 136.62 158.86 C 137.84 158.99 138.93 158.10 139.06 156.88 L 139.16 155.98 C 139.28 154.76 138.40 153.66 137.18 153.54 C 135.95 153.41 134.86 154.29 134.73 155.52 Z M 134.63 156.47 L 134.54 157.57 C 134.45 158.79 135.37 159.86 136.59 159.96 C 137.82 160.06 138.89 159.14 138.98 157.91 L 139.07 156.82 C 139.16 155.59 138.25 154.52 137.02 154.43 C 135.80 154.33 134.73 155.25 134.63 156.47 Z M 134.54 157.64 L 134.49 158.67 C 134.44 159.90 135.39 160.94 136.62 161.00 C 137.84 161.05 138.88 160.10 138.94 158.87 L 138.99 157.84 C 139.04 156.61 138.09 155.57 136.86 155.52 C 135.64 155.46 134.60 156.41 134.54 157.64 Z M 134.49 158.74 L 134.48 159.67 C 134.46 160.89 135.43 161.91 136.66 161.93 C 137.89 161.95 138.90 160.97 138.92 159.74 L 138.94 158.81 C 138.96 157.58 137.98 156.57 136.75 156.55 C 135.53 156.53 134.51 157.51 134.49 158.74 Z M 134.48 159.70 L 134.48 160.60 C 134.47 161.83 135.47 162.83 136.69 162.83 C 137.92 162.83 138.92 161.84 138.92 160.61 L 138.92 159.71 C 138.93 158.48 137.93 157.48 136.70 157.48 C 135.48 157.48 134.48 158.47 134.48 159.70 Z M 134.48 160.61 L 134.48 161.61 C 134.48 162.84 135.48 163.83 136.70 163.83 C 137.93 163.83 138.92 162.83 138.92 161.60 L 138.92 160.60 C 138.92 159.38 137.92 158.38 136.70 158.38 C 135.47 158.38 134.48 159.38 134.48 160.61 Z M 134.48 161.62 L 134.48 162.62 C 134.49 163.84 135.49 164.83 136.72 164.83 C 137.95 164.82 138.93 163.82 138.93 162.59 L 138.92 161.59 C 138.91 160.37 137.91 159.38 136.69 159.38 C 135.46 159.39 134.47 160.39 134.48 161.62 Z M 134.49 162.64 L 134.50 163.64 C 134.52 164.86 135.53 165.84 136.75 165.82 C 137.98 165.81 138.96 164.80 138.94 163.57 L 138.93 162.57 C 138.91 161.35 137.90 160.37 136.67 160.39 C 135.45 160.40 134.47 161.41 134.49 162.64 Z M 134.50 163.67 L 134.53 164.65 C 134.57 165.87 135.59 166.84 136.81 166.80 C 138.04 166.77 139.00 165.74 138.97 164.52 L 138.94 163.54 C 138.90 162.32 137.88 161.35 136.66 161.39 C 135.43 161.42 134.47 162.45 134.50 163.67 Z M 134.54 164.71 L 134.59 165.70 C 134.66 166.92 135.71 167.86 136.93 167.79 C 138.15 167.72 139.09 166.67 139.02 165.45 L 138.96 164.46 C 138.89 163.24 137.85 162.30 136.62 162.37 C 135.40 162.44 134.47 163.49 134.54 164.71 Z M 134.60 165.79 L 134.70 166.80 C 134.82 168.02 135.90 168.91 137.12 168.79 C 138.34 168.67 139.23 167.59 139.11 166.37 L 139.01 165.36 C 138.89 164.14 137.81 163.25 136.59 163.37 C 135.37 163.49 134.48 164.57 134.60 165.79 Z M 134.72 166.91 L 134.85 167.83 C 135.03 169.04 136.16 169.87 137.36 169.69 C 138.57 169.52 139.41 168.39 139.23 167.18 L 139.10 166.26 C 138.92 165.05 137.79 164.22 136.58 164.40 C 135.37 164.58 134.54 165.70 134.72 166.91 Z M 134.87 167.95 L 135.06 168.86 C 135.30 170.06 136.47 170.83 137.67 170.58 C 138.87 170.34 139.64 169.17 139.39 167.97 L 139.21 167.06 C 138.96 165.87 137.80 165.09 136.60 165.34 C 135.40 165.58 134.63 166.75 134.87 167.95 Z M 135.09 168.99 L 135.35 169.96 C 135.67 171.14 136.88 171.84 138.06 171.53 C 139.24 171.21 139.94 170.00 139.62 168.82 L 139.36 167.85 C 139.05 166.67 137.83 165.97 136.66 166.28 C 135.48 166.60 134.78 167.81 135.09 168.99 Z M 135.39 170.09 L 135.75 171.15 C 136.13 172.30 137.39 172.93 138.54 172.54 C 139.70 172.15 140.32 170.90 139.94 169.74 L 139.58 168.69 C 139.20 167.53 137.94 166.91 136.79 167.30 C 135.63 167.68 135.01 168.94 135.39 170.09 Z M 135.79 171.25 L 136.14 172.15 C 136.58 173.28 137.87 173.84 139.00 173.39 C 140.13 172.94 140.69 171.66 140.25 170.53 L 139.90 169.64 C 139.45 168.50 138.17 167.94 137.03 168.39 C 135.90 168.84 135.34 170.12 135.79 171.25 Z M 136.18 172.23 L 136.57 173.11 C 137.06 174.23 138.37 174.73 139.48 174.24 C 140.59 173.74 141.09 172.44 140.60 171.32 L 140.21 170.44 C 139.71 169.33 138.41 168.83 137.30 169.32 C 136.18 169.81 135.68 171.12 136.18 172.23 Z M 136.61 173.20 L 137.06 174.10 C 137.60 175.19 138.92 175.64 140.01 175.10 C 141.10 174.56 141.55 173.23 141.01 172.14 L 140.56 171.24 C 140.02 170.15 138.69 169.70 137.60 170.24 C 136.51 170.79 136.07 172.11 136.61 173.20 Z M 137.10 174.19 L 137.61 175.10 C 138.20 176.16 139.54 176.54 140.60 175.95 C 141.67 175.36 142.05 174.02 141.46 172.96 L 140.96 172.05 C 140.37 170.99 139.03 170.60 137.96 171.20 C 136.90 171.79 136.51 173.13 137.10 174.19 Z M 137.67 175.19 L 138.22 176.08 C 138.86 177.11 140.22 177.43 141.26 176.78 C 142.29 176.14 142.60 174.78 141.96 173.74 L 141.40 172.86 C 140.76 171.83 139.40 171.51 138.37 172.16 C 137.33 172.80 137.02 174.16 137.67 175.19 Z M 138.29 176.19 L 138.89 177.03 C 139.59 178.02 140.97 178.25 141.96 177.55 C 142.95 176.85 143.19 175.47 142.48 174.48 L 141.88 173.64 C 141.18 172.65 139.81 172.41 138.81 173.12 C 137.82 173.82 137.59 175.19 138.29 176.19 Z M 138.97 177.14 L 139.61 177.93 C 140.38 178.87 141.76 179.02 142.71 178.26 C 143.65 177.49 143.80 176.11 143.04 175.16 L 142.40 174.37 C 141.63 173.43 140.25 173.28 139.30 174.04 C 138.36 174.81 138.21 176.19 138.97 177.14 Z M 139.71 178.03 L 140.39 178.77 C 141.21 179.67 142.60 179.73 143.49 178.90 C 144.39 178.08 144.45 176.69 143.62 175.79 L 142.94 175.06 C 142.12 174.16 140.73 174.10 139.83 174.93 C 138.94 175.75 138.88 177.14 139.71 178.03 Z M 140.49 178.87 L 141.21 179.56 C 142.09 180.40 143.48 180.37 144.32 179.49 C 145.15 178.61 145.12 177.22 144.24 176.38 L 143.52 175.69 C 142.64 174.86 141.25 174.89 140.41 175.77 C 139.58 176.65 139.61 178.04 140.49 178.87 Z M 141.32 179.66 L 142.07 180.29 C 143.01 181.07 144.39 180.94 145.17 180.01 C 145.95 179.08 145.82 177.69 144.89 176.92 L 144.13 176.29 C 143.20 175.51 141.82 175.63 141.04 176.56 C 140.26 177.50 140.39 178.88 141.32 179.66 Z M 142.19 180.38 L 142.99 180.96 C 143.97 181.67 145.35 181.45 146.06 180.47 C 146.77 179.49 146.55 178.12 145.57 177.40 L 144.77 176.83 C 143.79 176.11 142.42 176.33 141.71 177.32 C 140.99 178.30 141.21 179.67 142.19 180.38 Z M 143.12 181.05 L 143.98 181.58 C 145.01 182.22 146.36 181.90 147.00 180.87 C 147.64 179.84 147.32 178.49 146.29 177.85 L 145.44 177.32 C 144.41 176.68 143.06 176.99 142.42 178.02 C 141.78 179.05 142.09 180.41 143.12 181.05 Z M 144.12 181.66 L 145.01 182.12 C 146.08 182.68 147.41 182.27 147.97 181.19 C 148.53 180.12 148.11 178.80 147.04 178.23 L 146.15 177.77 C 145.08 177.21 143.75 177.62 143.19 178.70 C 142.63 179.77 143.05 181.10 144.12 181.66 Z M 145.16 182.19 L 146.07 182.59 C 147.19 183.07 148.48 182.55 148.96 181.44 C 149.43 180.32 148.92 179.03 147.81 178.56 L 146.89 178.16 C 145.78 177.68 144.49 178.20 144.01 179.31 C 143.53 180.43 144.05 181.72 145.16 182.19 Z M 146.24 182.65 L 147.18 182.97 C 148.32 183.36 149.57 182.74 149.96 181.60 C 150.35 180.45 149.73 179.20 148.59 178.81 L 147.64 178.49 C 146.50 178.11 145.25 178.72 144.86 179.87 C 144.47 181.01 145.09 182.26 146.24 182.65 Z M 147.35 183.02 L 148.31 183.26 C 149.49 183.56 150.68 182.84 150.97 181.67 C 151.27 180.49 150.56 179.30 149.38 179.01 L 148.42 178.76 C 147.24 178.47 146.05 179.18 145.76 180.36 C 145.46 181.53 146.17 182.72 147.35 183.02 Z M 148.49 183.30 L 149.54 183.47 C 150.73 183.67 151.86 182.86 152.06 181.67 C 152.26 180.47 151.45 179.34 150.25 179.14 L 149.21 178.97 C 148.01 178.77 146.88 179.58 146.68 180.78 C 146.49 181.97 147.29 183.10 148.49 183.30 Z M 149.70 183.49 L 150.74 183.59 C 151.95 183.69 153.02 182.80 153.12 181.60 C 153.23 180.39 152.34 179.33 151.14 179.22 L 150.09 179.12 C 148.89 179.01 147.82 179.90 147.71 181.11 C 147.60 182.32 148.49 183.38 149.70 183.49 Z M 150.89 183.60 L 151.90 183.62 C 153.11 183.65 154.12 182.69 154.15 181.48 C 154.18 180.27 153.22 179.26 152.01 179.23 L 150.99 179.21 C 149.78 179.18 148.78 180.14 148.75 181.35 C 148.72 182.56 149.68 183.57 150.89 183.60 Z M 152.03 183.62 L 152.99 183.58 C 154.20 183.54 155.15 182.52 155.11 181.31 C 155.06 180.10 154.05 179.16 152.83 179.20 L 151.88 179.23 C 150.66 179.28 149.72 180.29 149.76 181.50 C 149.80 182.72 150.82 183.66 152.03 183.62 Z M 153.12 183.58 L 154.07 183.49 C 155.27 183.37 156.16 182.30 156.04 181.09 C 155.92 179.88 154.85 179.00 153.64 179.12 L 152.70 179.21 C 151.50 179.32 150.61 180.40 150.73 181.60 C 150.84 182.81 151.92 183.69 153.12 183.58 Z M 154.23 183.46 L 155.30 183.28 C 156.50 183.07 157.30 181.93 157.09 180.73 C 156.88 179.54 155.74 178.74 154.54 178.95 L 153.48 179.14 C 152.28 179.35 151.48 180.49 151.69 181.68 C 151.90 182.87 153.04 183.67 154.23 183.46 Z M 155.51 183.23 L 156.45 182.97 C 157.62 182.64 158.30 181.43 157.98 180.26 C 157.65 179.09 156.44 178.41 155.27 178.74 L 154.33 179.00 C 153.16 179.32 152.48 180.54 152.81 181.70 C 153.13 182.87 154.35 183.55 155.51 183.23 Z M 156.65 182.90 L 157.51 182.57 C 158.65 182.13 159.21 180.86 158.77 179.73 C 158.34 178.60 157.07 178.03 155.94 178.47 L 155.07 178.80 C 153.94 179.24 153.38 180.51 153.81 181.64 C 154.25 182.77 155.52 183.34 156.65 182.90 Z M 157.67 182.50 L 158.52 182.10 C 159.62 181.58 160.08 180.27 159.56 179.17 C 159.04 178.08 157.74 177.61 156.64 178.13 L 155.78 178.53 C 154.69 179.05 154.22 180.36 154.74 181.46 C 155.26 182.56 156.57 183.02 157.67 182.50 Z M 158.64 182.04 L 159.50 181.57 C 160.56 180.98 160.95 179.65 160.37 178.58 C 159.78 177.52 158.45 177.13 157.38 177.72 L 156.52 178.19 C 155.46 178.77 155.07 180.11 155.65 181.17 C 156.24 182.24 157.57 182.62 158.64 182.04 Z M 159.60 181.51 L 160.46 180.97 C 161.49 180.34 161.81 178.98 161.18 177.95 C 160.54 176.92 159.18 176.60 158.15 177.24 L 157.28 177.77 C 156.25 178.41 155.93 179.77 156.57 180.80 C 157.21 181.83 158.56 182.15 159.60 181.51 Z M 160.54 180.92 L 161.38 180.36 C 162.38 179.67 162.64 178.31 161.96 177.30 C 161.28 176.30 159.91 176.04 158.91 176.72 L 158.07 177.29 C 157.07 177.97 156.81 179.34 157.49 180.34 C 158.17 181.34 159.54 181.60 160.54 180.92 Z M 161.44 180.31 L 162.21 179.75 C 163.19 179.04 163.41 177.66 162.69 176.68 C 161.98 175.70 160.60 175.48 159.62 176.20 L 158.85 176.76 C 157.87 177.48 157.65 178.85 158.37 179.83 C 159.08 180.81 160.46 181.03 161.44 180.31 Z M 162.26 179.72 L 163.04 179.11 C 164.00 178.37 164.18 176.99 163.44 176.03 C 162.70 175.07 161.32 174.89 160.36 175.63 L 159.57 176.23 C 158.61 176.97 158.43 178.35 159.17 179.32 C 159.91 180.28 161.29 180.46 162.26 179.72 Z M 163.08 179.08 L 163.89 178.43 C 164.83 177.67 164.98 176.28 164.22 175.34 C 163.46 174.39 162.07 174.25 161.13 175.01 L 160.32 175.66 C 159.38 176.42 159.23 177.80 159.99 178.75 C 160.75 179.69 162.14 179.84 163.08 179.08 Z M 163.92 178.41 L 164.70 177.75 C 165.63 176.97 165.76 175.59 164.98 174.65 C 164.20 173.72 162.82 173.60 161.88 174.38 L 161.10 175.03 C 160.17 175.81 160.04 177.20 160.82 178.13 C 161.60 179.06 162.98 179.18 163.92 178.41 Z M 164.73 177.73 L 165.48 177.08 C 166.39 176.29 166.50 174.90 165.70 173.98 C 164.91 173.06 163.52 172.96 162.60 173.76 L 161.86 174.40 C 160.94 175.19 160.84 176.58 161.63 177.50 C 162.42 178.42 163.81 178.52 164.73 177.73 Z M 165.51 177.05 L 166.26 176.38 C 167.16 175.56 167.23 174.17 166.42 173.27 C 165.60 172.37 164.21 172.30 163.31 173.11 L 162.57 173.79 C 161.67 174.60 161.59 175.99 162.41 176.89 C 163.22 177.79 164.61 177.86 165.51 177.05 Z M 166.30 176.33 L 167.04 175.63 C 167.91 174.80 167.95 173.40 167.11 172.53 C 166.27 171.65 164.88 171.62 164.00 172.46 L 163.27 173.16 C 162.39 173.99 162.36 175.39 163.20 176.26 C 164.04 177.14 165.43 177.17 166.30 176.33 Z M 167.09 175.58 L 167.80 174.86 C 168.65 173.99 168.63 172.59 167.76 171.75 C 166.89 170.90 165.50 170.92 164.65 171.79 L 163.94 172.51 C 163.10 173.38 163.11 174.77 163.98 175.62 C 164.85 176.47 166.24 176.45 167.09 175.58 Z M 167.86 174.79 L 168.53 174.04 C 169.34 173.14 169.27 171.75 168.36 170.94 C 167.46 170.13 166.07 170.20 165.26 171.10 L 164.59 171.85 C 163.78 172.76 163.85 174.15 164.76 174.96 C 165.66 175.77 167.05 175.69 167.86 174.79 Z M 168.59 173.98 L 169.22 173.21 C 170.00 172.28 169.87 170.89 168.94 170.12 C 168.01 169.34 166.62 169.47 165.85 170.40 L 165.21 171.17 C 164.43 172.10 164.56 173.49 165.49 174.26 C 166.42 175.04 167.81 174.91 168.59 173.98 Z M 169.27 173.16 L 169.88 172.37 C 170.63 171.42 170.46 170.04 169.50 169.29 C 168.55 168.54 167.16 168.71 166.42 169.67 L 165.80 170.45 C 165.06 171.41 165.22 172.79 166.18 173.54 C 167.14 174.28 168.52 174.12 169.27 173.16 Z M 169.91 172.33 L 170.51 171.53 C 171.23 170.56 171.03 169.18 170.06 168.46 C 169.08 167.73 167.71 167.93 166.98 168.91 L 166.39 169.71 C 165.66 170.68 165.86 172.06 166.84 172.78 C 167.81 173.51 169.19 173.31 169.91 172.33 Z M 170.53 171.50 L 171.11 170.69 C 171.82 169.71 171.60 168.33 170.61 167.62 C 169.63 166.91 168.25 167.14 167.54 168.12 L 166.96 168.94 C 166.25 169.92 166.47 171.30 167.46 172.00 C 168.45 172.71 169.82 172.49 170.53 171.50 Z M 171.13 170.67 L 171.71 169.84 C 172.40 168.85 172.16 167.48 171.16 166.78 C 170.17 166.09 168.80 166.33 168.10 167.33 L 167.53 168.15 C 166.83 169.14 167.07 170.52 168.07 171.21 C 169.07 171.91 170.44 171.66 171.13 170.67 Z M 171.72 169.82 L 172.29 168.99 C 172.97 167.98 172.70 166.61 171.70 165.93 C 170.69 165.25 169.33 165.52 168.64 166.52 L 168.08 167.35 C 167.40 168.36 167.66 169.73 168.67 170.41 C 169.68 171.09 171.04 170.82 171.72 169.82 Z M 172.31 168.96 L 172.85 168.12 C 173.52 167.11 173.23 165.74 172.22 165.08 C 171.20 164.41 169.84 164.70 169.17 165.71 L 168.63 166.55 C 167.96 167.57 168.24 168.93 169.26 169.59 C 170.28 170.26 171.64 169.98 172.31 168.96 Z M 172.87 168.09 L 173.41 167.25 C 174.06 166.22 173.75 164.86 172.72 164.21 C 171.69 163.57 170.34 163.87 169.69 164.90 L 169.15 165.74 C 168.50 166.77 168.81 168.13 169.84 168.78 C 170.87 169.43 172.22 169.12 172.87 168.09 Z M 173.43 167.22 L 173.95 166.35 C 174.58 165.31 174.25 163.96 173.21 163.32 C 172.18 162.69 170.82 163.03 170.19 164.06 L 169.67 164.93 C 169.04 165.97 169.37 167.32 170.41 167.95 C 171.44 168.58 172.80 168.25 173.43 167.22 Z M 173.98 166.31 L 174.48 165.44 C 175.09 164.39 174.74 163.05 173.69 162.44 C 172.63 161.82 171.29 162.18 170.68 163.23 L 170.17 164.10 C 169.56 165.15 169.92 166.50 170.97 167.11 C 172.02 167.72 173.36 167.36 173.98 166.31 Z M 174.50 165.41 L 174.99 164.54 C 175.58 163.48 175.19 162.14 174.13 161.55 C 173.07 160.95 171.73 161.34 171.14 162.40 L 170.65 163.27 C 170.06 164.33 170.45 165.67 171.51 166.26 C 172.57 166.85 173.91 166.47 174.50 165.41 Z M 175.01 164.50 L 175.47 163.64 C 176.04 162.56 175.63 161.23 174.56 160.66 C 173.48 160.09 172.15 160.49 171.58 161.57 L 171.12 162.44 C 170.55 163.51 170.95 164.84 172.03 165.41 C 173.10 165.99 174.44 165.58 175.01 164.50 Z M 175.49 163.60 L 175.95 162.68 C 176.50 161.60 176.06 160.27 174.98 159.72 C 173.89 159.18 172.57 159.61 172.02 160.70 L 171.56 161.61 C 171.01 162.69 171.44 164.02 172.53 164.57 C 173.61 165.12 174.94 164.68 175.49 163.60 Z M 175.97 162.64 L 176.41 161.73 C 176.93 160.63 176.47 159.32 175.37 158.79 C 174.27 158.27 172.96 158.73 172.43 159.83 L 171.99 160.74 C 171.47 161.84 171.93 163.15 173.03 163.68 C 174.13 164.20 175.45 163.74 175.97 162.64 Z M 176.43 161.68 L 176.84 160.78 C 177.34 159.67 176.84 158.36 175.73 157.86 C 174.62 157.36 173.31 157.86 172.82 158.97 L 172.41 159.88 C 171.91 160.99 172.40 162.29 173.52 162.79 C 174.63 163.29 175.93 162.79 176.43 161.68 Z M 176.86 160.73 L 177.24 159.82 C 177.71 158.70 177.18 157.41 176.06 156.94 C 174.93 156.47 173.64 156.99 173.17 158.12 L 172.79 159.02 C 172.32 160.14 172.85 161.44 173.97 161.91 C 175.10 162.38 176.39 161.85 176.86 160.73 Z M 177.26 159.77 L 177.63 158.83 C 178.07 157.69 177.50 156.41 176.36 155.97 C 175.23 155.53 173.95 156.10 173.51 157.23 L 173.15 158.17 C 172.71 159.31 173.27 160.59 174.41 161.03 C 175.54 161.47 176.82 160.90 177.26 159.77 Z M 177.65 158.77 L 177.98 157.83 C 178.39 156.68 177.80 155.42 176.65 155.01 C 175.50 154.60 174.24 155.20 173.83 156.34 L 173.49 157.29 C 173.08 158.43 173.68 159.70 174.83 160.11 C 175.97 160.52 177.24 159.92 177.65 158.77 Z M 178.00 157.79 L 178.31 156.84 C 178.70 155.69 178.08 154.44 176.92 154.05 C 175.76 153.66 174.51 154.29 174.12 155.45 L 173.81 156.39 C 173.42 157.55 174.05 158.80 175.21 159.18 C 176.36 159.57 177.62 158.94 178.00 157.79 Z M 178.33 156.81 L 178.62 155.87 C 178.99 154.70 178.34 153.46 177.18 153.10 C 176.02 152.73 174.78 153.37 174.41 154.54 L 174.11 155.48 C 173.74 156.64 174.39 157.89 175.55 158.25 C 176.72 158.62 177.96 157.97 178.33 156.81 Z M 178.64 155.83 L 178.90 154.94 C 179.25 153.77 178.58 152.54 177.41 152.19 C 176.24 151.84 175.01 152.50 174.66 153.68 L 174.40 154.57 C 174.05 155.74 174.72 156.97 175.89 157.32 C 177.06 157.67 178.29 157.00 178.64 155.83 Z M 178.92 154.87 L 179.17 153.94 C 179.48 152.75 178.77 151.55 177.59 151.24 C 176.41 150.92 175.20 151.63 174.89 152.81 L 174.64 153.74 C 174.33 154.93 175.04 156.13 176.22 156.44 C 177.40 156.75 178.61 156.05 178.92 154.87 Z M 179.19 153.83 L 179.40 152.84 C 179.65 151.64 178.89 150.47 177.69 150.22 C 176.50 149.97 175.32 150.73 175.07 151.93 L 174.86 152.92 C 174.61 154.11 175.38 155.29 176.57 155.54 C 177.77 155.79 178.94 155.03 179.19 153.83 Z M 179.43 152.71 L 179.59 151.63 C 179.77 150.42 178.93 149.30 177.72 149.12 C 176.51 148.94 175.39 149.77 175.21 150.98 L 175.05 152.06 C 174.87 153.27 175.70 154.39 176.91 154.57 C 178.12 154.75 179.25 153.92 179.43 152.71 Z M 179.60 151.50 L 179.68 150.57 C 179.79 149.35 178.89 148.27 177.68 148.17 C 176.46 148.06 175.38 148.96 175.27 150.18 L 175.19 151.11 C 175.08 152.33 175.98 153.40 177.20 153.51 C 178.42 153.62 179.49 152.72 179.60 151.50 Z M 179.69 150.44 L 179.72 149.46 C 179.76 148.24 178.80 147.22 177.58 147.18 C 176.36 147.14 175.34 148.10 175.30 149.32 L 175.27 150.30 C 175.23 151.52 176.19 152.55 177.41 152.58 C 178.63 152.62 179.65 151.66 179.69 150.44 Z M 179.72 149.32 L 179.69 148.31 C 179.65 147.09 178.63 146.13 177.41 146.17 C 176.19 146.21 175.23 147.23 175.27 148.45 L 175.30 149.46 C 175.34 150.68 176.36 151.64 177.58 151.61 C 178.80 151.57 179.76 150.54 179.72 149.32 Z M 179.68 148.15 L 179.58 147.13 C 179.45 145.91 178.36 145.03 177.14 145.15 C 175.93 145.28 175.04 146.37 175.17 147.59 L 175.28 148.61 C 175.40 149.83 176.49 150.71 177.71 150.58 C 178.92 150.46 179.81 149.37 179.68 148.15 Z M 179.55 146.95 L 179.36 145.93 C 179.13 144.73 177.97 143.94 176.77 144.16 C 175.57 144.39 174.78 145.55 175.00 146.75 L 175.20 147.77 C 175.42 148.97 176.58 149.76 177.78 149.53 C 178.99 149.31 179.78 148.15 179.55 146.95 Z M 179.31 145.73 L 179.04 144.78 C 178.70 143.60 177.47 142.93 176.29 143.27 C 175.12 143.60 174.44 144.83 174.78 146.01 L 175.05 146.95 C 175.39 148.13 176.62 148.81 177.79 148.47 C 178.97 148.13 179.65 146.90 179.31 145.73 Z M 178.97 144.59 L 178.61 143.68 C 178.17 142.54 176.88 141.97 175.75 142.42 C 174.61 142.86 174.04 144.15 174.49 145.29 L 174.84 146.20 C 175.29 147.34 176.57 147.90 177.71 147.46 C 178.85 147.01 179.42 145.73 178.97 144.59 Z M 178.54 143.50 L 178.10 142.62 C 177.56 141.52 176.23 141.07 175.13 141.61 C 174.04 142.15 173.59 143.48 174.13 144.58 L 174.57 145.46 C 175.11 146.56 176.44 147.01 177.53 146.47 C 178.63 145.93 179.08 144.60 178.54 143.50 Z M 178.02 142.46 L 177.50 141.60 C 176.87 140.55 175.51 140.21 174.46 140.83 C 173.41 141.46 173.07 142.82 173.70 143.87 L 174.21 144.73 C 174.84 145.78 176.20 146.13 177.25 145.50 C 178.30 144.87 178.64 143.51 178.02 142.46 Z M 177.41 141.46 L 176.83 140.63 C 176.12 139.62 174.74 139.38 173.74 140.09 C 172.74 140.79 172.50 142.17 173.20 143.17 L 173.79 144.01 C 174.49 145.01 175.87 145.25 176.87 144.55 C 177.87 143.85 178.12 142.46 177.41 141.46 Z M 176.74 140.51 L 176.10 139.72 C 175.33 138.76 173.94 138.61 172.99 139.38 C 172.03 140.15 171.88 141.54 172.65 142.49 L 173.29 143.29 C 174.05 144.24 175.45 144.39 176.40 143.62 C 177.35 142.86 177.50 141.46 176.74 140.51 Z M 176.02 139.62 L 175.36 138.89 C 174.54 137.98 173.14 137.91 172.23 138.73 C 171.32 139.55 171.25 140.95 172.07 141.86 L 172.73 142.59 C 173.55 143.50 174.95 143.57 175.86 142.75 C 176.77 141.93 176.84 140.53 176.02 139.62 Z M 175.28 138.81 L 174.57 138.10 C 173.70 137.24 172.30 137.24 171.44 138.11 C 170.58 138.97 170.58 140.37 171.44 141.24 L 172.15 141.94 C 173.02 142.81 174.42 142.80 175.28 141.94 C 176.14 141.07 176.14 139.67 175.28 138.81 Z M 174.49 138.03 L 173.74 137.35 C 172.84 136.53 171.44 136.60 170.62 137.51 C 169.80 138.42 169.87 139.82 170.78 140.64 L 171.52 141.31 C 172.43 142.13 173.83 142.06 174.65 141.15 C 175.47 140.25 175.40 138.85 174.49 138.03 Z M 173.66 137.29 L 172.88 136.65 C 171.94 135.87 170.55 136.00 169.77 136.95 C 169.00 137.89 169.13 139.28 170.07 140.06 L 170.85 140.70 C 171.80 141.48 173.19 141.34 173.97 140.40 C 174.74 139.46 174.61 138.06 173.66 137.29 Z M 172.80 136.58 L 172.00 135.98 C 171.02 135.25 169.64 135.45 168.90 136.42 C 168.17 137.40 168.37 138.79 169.35 139.52 L 170.15 140.12 C 171.13 140.85 172.52 140.65 173.25 139.68 C 173.98 138.70 173.78 137.32 172.80 136.58 Z M 171.91 135.92 L 171.08 135.35 C 170.07 134.67 168.70 134.93 168.01 135.94 C 167.32 136.95 167.59 138.32 168.60 139.01 L 169.43 139.58 C 170.44 140.26 171.81 140.00 172.50 138.99 C 173.18 137.98 172.92 136.61 171.91 135.92 Z M 170.99 135.30 L 170.13 134.77 C 169.09 134.13 167.73 134.46 167.09 135.50 C 166.45 136.53 166.78 137.89 167.82 138.53 L 168.68 139.06 C 169.72 139.70 171.08 139.37 171.72 138.33 C 172.35 137.30 172.03 135.94 170.99 135.30 Z M 170.04 134.72 L 169.16 134.24 C 168.10 133.65 166.76 134.03 166.17 135.10 C 165.58 136.16 165.96 137.50 167.03 138.09 L 167.90 138.58 C 168.97 139.16 170.31 138.78 170.90 137.72 C 171.49 136.65 171.10 135.31 170.04 134.72 Z M 169.08 134.20 L 168.18 133.75 C 167.10 133.21 165.78 133.65 165.23 134.73 C 164.69 135.82 165.13 137.14 166.22 137.68 L 167.11 138.13 C 168.19 138.67 169.51 138.23 170.06 137.15 C 170.60 136.06 170.16 134.74 169.08 134.20 Z M 168.10 133.72 L 167.20 133.31 C 166.10 132.81 164.80 133.30 164.30 134.41 C 163.80 135.51 164.29 136.81 165.39 137.31 L 166.30 137.72 C 167.40 138.21 168.70 137.72 169.20 136.62 C 169.70 135.51 169.21 134.22 168.10 133.72 Z M 167.12 133.28 L 166.21 132.91 C 165.09 132.45 163.81 132.99 163.36 134.11 C 162.90 135.23 163.44 136.51 164.56 136.96 L 165.47 137.34 C 166.59 137.79 167.87 137.26 168.33 136.14 C 168.78 135.01 168.24 133.74 167.12 133.28 Z M 166.14 132.89 L 165.24 132.55 C 164.10 132.14 162.85 132.72 162.43 133.85 C 162.01 134.98 162.59 136.24 163.73 136.65 L 164.63 136.99 C 165.76 137.40 167.02 136.82 167.43 135.69 C 167.85 134.56 167.27 133.30 166.14 132.89 Z M 165.16 132.54 L 164.26 132.24 C 163.11 131.86 161.88 132.48 161.51 133.62 C 161.13 134.77 161.75 136.00 162.89 136.37 L 163.80 136.67 C 164.94 137.05 166.17 136.43 166.55 135.29 C 166.93 134.14 166.30 132.91 165.16 132.54 Z M 164.18 132.22 L 163.25 131.95 C 162.10 131.62 160.90 132.28 160.56 133.43 C 160.23 134.58 160.89 135.78 162.04 136.12 L 162.97 136.39 C 164.12 136.72 165.32 136.06 165.66 134.91 C 165.99 133.76 165.33 132.56 164.18 132.22 Z M 163.17 131.94 L 162.21 131.70 C 161.05 131.41 159.88 132.11 159.59 133.27 C 159.30 134.42 160.00 135.60 161.16 135.89 L 162.12 136.13 C 163.27 136.42 164.45 135.72 164.74 134.56 C 165.03 133.41 164.33 132.23 163.17 131.94 Z M 162.13 131.69 L 161.13 131.48 C 159.97 131.23 158.83 131.97 158.58 133.13 C 158.33 134.29 159.07 135.43 160.23 135.68 L 161.23 135.90 C 162.39 136.14 163.54 135.40 163.78 134.24 C 164.03 133.08 163.29 131.94 162.13 131.69 Z M 161.05 131.47 L 160.00 131.28 C 158.84 131.08 157.73 131.85 157.52 133.02 C 157.31 134.18 158.09 135.29 159.25 135.50 L 160.30 135.69 C 161.47 135.89 162.58 135.12 162.79 133.95 C 162.99 132.79 162.22 131.68 161.05 131.47 Z M 159.94 131.28 L 158.92 131.14 C 157.75 130.97 156.67 131.77 156.50 132.93 C 156.33 134.10 157.14 135.18 158.30 135.35 L 159.32 135.50 C 160.48 135.67 161.57 134.86 161.74 133.70 C 161.91 132.54 161.10 131.45 159.94 131.28 Z M 158.86 131.14 L 157.83 131.02 C 156.67 130.88 155.62 131.71 155.48 132.87 C 155.34 134.03 156.17 135.08 157.33 135.22 L 158.36 135.34 C 159.52 135.48 160.57 134.65 160.71 133.49 C 160.85 132.33 160.02 131.28 158.86 131.14 Z M 157.78 131.03 L 156.74 130.93 C 155.59 130.82 154.56 131.66 154.45 132.82 C 154.34 133.97 155.19 135.00 156.34 135.11 L 157.38 135.21 C 158.53 135.32 159.56 134.47 159.67 133.32 C 159.78 132.17 158.94 131.14 157.78 131.03 Z M 156.69 130.94 L 155.66 130.86 C 154.51 130.78 153.51 131.64 153.43 132.79 C 153.34 133.94 154.21 134.94 155.35 135.02 L 156.39 135.10 C 157.54 135.18 158.53 134.32 158.62 133.17 C 158.70 132.02 157.84 131.03 156.69 130.94 Z M 155.61 130.88 L 154.61 130.83 C 153.47 130.77 152.50 131.65 152.44 132.79 C 152.38 133.93 153.26 134.90 154.40 134.96 L 155.40 135.01 C 156.54 135.07 157.52 134.19 157.57 133.05 C 157.63 131.91 156.75 130.94 155.61 130.88 Z M 154.56 130.84 L 153.60 130.81 C 152.47 130.78 151.52 131.68 151.49 132.81 C 151.46 133.94 152.36 134.89 153.49 134.92 L 154.45 134.94 C 155.58 134.98 156.52 134.08 156.56 132.95 C 156.59 131.81 155.69 130.87 154.56 130.84 Z M 153.54 130.83 L 152.58 130.83 C 151.46 130.84 150.55 131.75 150.55 132.87 C 150.55 134.00 151.47 134.91 152.59 134.90 L 153.55 134.90 C 154.67 134.90 155.58 133.99 155.58 132.86 C 155.58 131.74 154.66 130.83 153.54 130.83 Z M 152.49 130.87 L 151.31 130.93 C 150.21 130.98 149.36 131.92 149.41 133.02 C 149.46 134.13 150.40 134.98 151.50 134.92 L 152.68 134.87 C 153.79 134.81 154.64 133.88 154.59 132.77 C 154.53 131.67 153.59 130.82 152.49 130.87 Z M 151.18 130.99 L 150.15 131.11 C 149.08 131.24 148.32 132.21 148.45 133.28 C 148.57 134.35 149.55 135.11 150.62 134.99 L 151.64 134.86 C 152.71 134.74 153.48 133.76 153.35 132.69 C 153.22 131.62 152.25 130.86 151.18 130.99 Z M 149.99 131.18 L 149.09 131.38 C 148.06 131.59 147.40 132.60 147.62 133.63 C 147.84 134.66 148.85 135.32 149.88 135.10 L 150.78 134.91 C 151.81 134.69 152.47 133.68 152.25 132.65 C 152.03 131.62 151.02 130.97 149.99 131.18 Z M 148.91 131.47 L 148.10 131.74 C 147.12 132.05 146.59 133.10 146.90 134.07 C 147.22 135.05 148.26 135.58 149.24 135.27 L 150.05 135.01 C 151.03 134.69 151.56 133.64 151.25 132.67 C 150.93 131.69 149.89 131.16 148.91 131.47 Z M 147.92 131.85 L 147.06 132.24 C 146.15 132.66 145.75 133.73 146.16 134.64 C 146.58 135.55 147.65 135.96 148.56 135.54 L 149.42 135.15 C 150.33 134.74 150.73 133.66 150.32 132.75 C 149.90 131.84 148.83 131.44 147.92 131.85 Z M 146.89 132.38 L 146.06 132.88 C 145.22 133.39 144.96 134.48 145.46 135.32 C 145.97 136.15 147.06 136.42 147.90 135.91 L 148.73 135.41 C 149.57 134.90 149.83 133.81 149.32 132.97 C 148.82 132.14 147.73 131.87 146.89 132.38 Z M 145.92 133.03 L 145.13 133.64 C 144.37 134.22 144.23 135.31 144.81 136.07 C 145.40 136.82 146.48 136.96 147.24 136.38 L 148.04 135.77 C 148.79 135.19 148.93 134.10 148.35 133.34 C 147.77 132.58 146.68 132.44 145.92 133.03 Z M 145.03 133.77 L 144.27 134.48 C 143.58 135.11 143.54 136.19 144.18 136.87 C 144.82 137.56 145.89 137.60 146.57 136.96 L 147.34 136.25 C 148.02 135.61 148.06 134.54 147.43 133.86 C 146.79 133.17 145.72 133.13 145.03 133.77 Z M 144.21 134.58 L 143.56 135.27 C 142.93 135.94 142.96 136.99 143.63 137.62 C 144.30 138.25 145.36 138.22 145.98 137.55 L 146.63 136.86 C 147.26 136.19 147.23 135.13 146.56 134.51 C 145.89 133.88 144.84 133.91 144.21 134.58 Z M 143.53 135.34 L 142.88 136.09 C 142.29 136.78 142.37 137.81 143.06 138.41 C 143.75 139.00 144.78 138.92 145.37 138.23 L 146.02 137.48 C 146.61 136.79 146.53 135.76 145.84 135.16 C 145.15 134.57 144.12 134.65 143.53 135.34 Z M 142.87 136.14 L 142.23 136.93 C 141.66 137.63 141.77 138.65 142.47 139.21 C 143.16 139.77 144.18 139.67 144.75 138.97 L 145.39 138.18 C 145.95 137.48 145.84 136.46 145.15 135.90 C 144.45 135.34 143.43 135.44 142.87 136.14 Z M 142.23 136.96 L 141.59 137.78 C 141.04 138.47 141.17 139.48 141.86 140.02 C 142.56 140.57 143.56 140.45 144.11 139.75 L 144.75 138.94 C 145.29 138.24 145.17 137.24 144.47 136.69 C 143.78 136.15 142.77 136.27 142.23 136.96 Z M 141.60 137.79 L 141.40 138.04 C 140.86 138.73 140.99 139.73 141.68 140.27 C 142.37 140.81 143.37 140.68 143.90 139.99 L 144.10 139.74 C 144.64 139.05 144.51 138.05 143.82 137.51 C 143.13 136.98 142.13 137.10 141.60 137.79 Z"
      fill="black"
      fill-rule="nonzero" /></svg>