<svg xmlns="http://www.w3.org/2000/svg" width="300" height="300" viewBox="0 0 300 300">
<path d="M 144.03 132.50 L 143.04 132.57 C 142.14 132.63 141.47 133.41 141.53 134.31 C 141.59 135.20 142.37 135.88 143.27 135.82 L 144.26 135.74 C 145.16 135.68 145.84 134.90 145.77 134.00 C 145.71 133.11 144.93 132.43 144.03 132.50 Z M 143.02 132.56 L 142.02 132.65 C 141.13 132.73 140.46 133.52 140.54 134.41 C 140.61 135.31 141.40 135.98 142.30 135.90 L 143.29 135.82 C 144.19 135.74 144.86 134.95 144.78 134.05 C 144.71 133.15 143.91 132.49 143.02 132.56 Z M 141.98 132.65 L 140.99 132.76 C 140.09 132.86 139.45 133.68 139.55 134.57 C 139.65 135.47 140.46 136.12 141.36 136.01 L 142.35 135.90 C 143.25 135.80 143.89 134.99 143.79 134.09 C 143.69 133.19 142.88 132.55 141.98 132.65 Z M 140.92 132.77 L 139.94 132.92 C 139.04 133.06 138.43 133.90 138.57 134.80 C 138.71 135.69 139.55 136.31 140.45 136.16 L 141.43 136.01 C 142.33 135.87 142.94 135.03 142.80 134.13 C 142.66 133.24 141.82 132.63 140.92 132.77 Z M 139.85 132.94 L 138.87 133.15 C 137.98 133.34 137.42 134.21 137.61 135.10 C 137.80 135.99 138.68 136.55 139.57 136.36 L 140.54 136.15 C 141.43 135.96 141.99 135.08 141.80 134.20 C 141.61 133.31 140.73 132.74 139.85 132.94 Z M 138.76 133.17 L 137.79 133.45 C 136.91 133.71 136.41 134.62 136.67 135.50 C 136.92 136.37 137.84 136.87 138.71 136.62 L 139.68 136.34 C 140.55 136.08 141.06 135.17 140.80 134.29 C 140.55 133.42 139.63 132.92 138.76 133.17 Z M 137.66 133.49 L 136.72 133.85 C 135.87 134.17 135.44 135.13 135.76 135.98 C 136.09 136.83 137.04 137.26 137.90 136.94 L 138.84 136.58 C 139.69 136.26 140.12 135.30 139.80 134.45 C 139.47 133.59 138.52 133.16 137.66 133.49 Z M 136.60 133.89 L 135.69 134.32 C 134.86 134.71 134.51 135.70 134.90 136.53 C 135.29 137.36 136.28 137.71 137.11 137.32 L 138.02 136.89 C 138.85 136.50 139.20 135.52 138.81 134.69 C 138.42 133.86 137.43 133.50 136.60 133.89 Z M 135.59 134.36 L 134.70 134.85 C 133.90 135.30 133.61 136.31 134.05 137.12 C 134.50 137.92 135.51 138.22 136.32 137.77 L 137.21 137.28 C 138.01 136.83 138.30 135.82 137.86 135.02 C 137.41 134.21 136.40 133.92 135.59 134.36 Z M 134.62 134.89 L 133.76 135.44 C 132.98 135.93 132.74 136.96 133.23 137.74 C 133.72 138.52 134.75 138.76 135.54 138.27 L 136.40 137.73 C 137.18 137.24 137.42 136.21 136.93 135.42 C 136.44 134.64 135.40 134.40 134.62 134.89 Z M 133.69 135.48 L 132.86 136.05 C 132.10 136.58 131.91 137.63 132.44 138.39 C 132.97 139.15 134.02 139.34 134.78 138.81 L 135.61 138.23 C 136.37 137.70 136.55 136.65 136.02 135.89 C 135.49 135.13 134.45 134.95 133.69 135.48 Z M 132.80 136.09 L 132.01 136.69 C 131.27 137.26 131.12 138.31 131.69 139.05 C 132.25 139.79 133.31 139.94 134.05 139.37 L 134.84 138.77 C 135.58 138.21 135.72 137.15 135.16 136.41 C 134.59 135.67 133.54 135.53 132.80 136.09 Z M 131.95 136.73 L 131.21 137.34 C 130.49 137.93 130.39 139.00 130.98 139.72 C 131.57 140.44 132.64 140.54 133.36 139.95 L 134.10 139.34 C 134.82 138.74 134.93 137.68 134.33 136.96 C 133.74 136.24 132.67 136.13 131.95 136.73 Z M 131.16 137.38 L 130.36 138.09 C 129.66 138.71 129.59 139.78 130.22 140.48 C 130.84 141.18 131.91 141.25 132.61 140.62 L 133.41 139.91 C 134.11 139.29 134.18 138.22 133.55 137.52 C 132.93 136.82 131.86 136.75 131.16 137.38 Z M 130.30 138.14 L 129.56 138.86 C 128.88 139.51 128.87 140.59 129.52 141.26 C 130.17 141.94 131.25 141.95 131.92 141.30 L 132.67 140.58 C 133.34 139.92 133.36 138.85 132.70 138.17 C 132.05 137.50 130.98 137.48 130.30 138.14 Z M 129.50 138.92 L 128.81 139.64 C 128.17 140.33 128.21 141.41 128.89 142.05 C 129.58 142.69 130.66 142.66 131.30 141.97 L 131.98 141.24 C 132.62 140.56 132.59 139.48 131.90 138.84 C 131.22 138.19 130.14 138.23 129.50 138.92 Z M 128.76 139.70 L 128.13 140.44 C 127.52 141.16 127.61 142.24 128.33 142.85 C 129.04 143.46 130.12 143.37 130.73 142.65 L 131.36 141.91 C 131.97 141.19 131.88 140.12 131.16 139.51 C 130.44 138.90 129.37 138.99 128.76 139.70 Z M 128.07 140.51 L 127.49 141.27 C 126.92 142.01 127.06 143.09 127.81 143.66 C 128.56 144.23 129.63 144.09 130.21 143.34 L 130.79 142.59 C 131.36 141.84 131.22 140.76 130.47 140.19 C 129.72 139.62 128.65 139.76 128.07 140.51 Z M 127.44 141.33 L 126.90 142.12 C 126.36 142.90 126.55 143.97 127.33 144.50 C 128.11 145.04 129.17 144.84 129.71 144.07 L 130.26 143.28 C 130.80 142.50 130.60 141.43 129.82 140.90 C 129.04 140.36 127.98 140.55 127.44 141.33 Z M 126.85 142.19 L 126.32 143.04 C 125.82 143.85 126.07 144.90 126.87 145.40 C 127.68 145.90 128.73 145.65 129.23 144.85 L 129.76 144.00 C 130.26 143.20 130.01 142.14 129.21 141.64 C 128.40 141.14 127.35 141.39 126.85 142.19 Z M 126.28 143.11 L 125.79 143.99 C 125.33 144.82 125.63 145.86 126.45 146.32 C 127.28 146.78 128.33 146.49 128.79 145.66 L 129.27 144.78 C 129.73 143.95 129.44 142.91 128.61 142.45 C 127.78 141.99 126.74 142.28 126.28 143.11 Z M 125.75 144.06 L 125.30 144.96 C 124.88 145.81 125.23 146.84 126.08 147.26 C 126.93 147.68 127.96 147.33 128.38 146.48 L 128.83 145.59 C 129.25 144.74 128.90 143.71 128.05 143.28 C 127.20 142.86 126.17 143.21 125.75 144.06 Z M 125.27 145.03 L 124.87 145.94 C 124.48 146.81 124.88 147.83 125.75 148.21 C 126.62 148.59 127.63 148.20 128.01 147.33 L 128.42 146.41 C 128.80 145.54 128.40 144.53 127.53 144.15 C 126.66 143.76 125.65 144.16 125.27 145.03 Z M 124.83 146.02 L 124.48 146.94 C 124.13 147.83 124.58 148.83 125.46 149.17 C 126.35 149.51 127.35 149.07 127.69 148.18 L 128.05 147.25 C 128.39 146.37 127.95 145.37 127.06 145.03 C 126.17 144.69 125.17 145.13 124.83 146.02 Z M 124.45 147.02 L 124.14 147.93 C 123.84 148.84 124.33 149.81 125.24 150.11 C 126.14 150.41 127.12 149.92 127.42 149.02 L 127.72 148.11 C 128.02 147.20 127.53 146.23 126.63 145.93 C 125.72 145.63 124.75 146.12 124.45 147.02 Z M 124.12 148.01 L 123.86 148.94 C 123.60 149.86 124.14 150.81 125.06 151.07 C 125.97 151.32 126.92 150.79 127.18 149.87 L 127.44 148.94 C 127.70 148.02 127.16 147.07 126.24 146.82 C 125.33 146.56 124.38 147.10 124.12 148.01 Z M 123.84 149.02 L 123.62 149.98 C 123.41 150.91 123.99 151.83 124.92 152.04 C 125.85 152.25 126.77 151.67 126.98 150.74 L 127.20 149.79 C 127.41 148.86 126.83 147.94 125.90 147.73 C 124.98 147.51 124.05 148.09 123.84 149.02 Z M 123.60 150.06 L 123.43 151.05 C 123.26 151.98 123.88 152.88 124.82 153.05 C 125.76 153.22 126.65 152.59 126.82 151.66 L 127.00 150.67 C 127.17 149.73 126.54 148.83 125.61 148.66 C 124.67 148.50 123.77 149.12 123.60 150.06 Z M 123.41 151.12 L 123.28 152.16 C 123.15 153.10 123.81 153.97 124.76 154.10 C 125.70 154.22 126.57 153.56 126.69 152.62 L 126.83 151.58 C 126.96 150.64 126.30 149.77 125.35 149.64 C 124.41 149.51 123.54 150.18 123.41 151.12 Z M 123.27 152.23 L 123.17 153.25 C 123.08 154.20 123.78 155.04 124.73 155.13 C 125.68 155.22 126.52 154.53 126.61 153.58 L 126.70 152.55 C 126.79 151.60 126.10 150.76 125.15 150.67 C 124.20 150.58 123.36 151.28 123.27 152.23 Z M 123.16 153.32 L 123.11 154.32 C 123.05 155.28 123.78 156.09 124.73 156.14 C 125.69 156.20 126.50 155.47 126.56 154.52 L 126.61 153.51 C 126.67 152.56 125.94 151.75 124.99 151.69 C 124.03 151.64 123.22 152.37 123.16 153.32 Z M 123.10 154.39 L 123.09 155.42 C 123.07 156.37 123.83 157.16 124.79 157.17 C 125.74 157.19 126.53 156.43 126.54 155.47 L 126.56 154.45 C 126.57 153.49 125.81 152.71 124.86 152.69 C 123.91 152.68 123.12 153.44 123.10 154.39 Z M 123.09 155.50 L 123.12 156.52 C 123.15 157.48 123.95 158.23 124.90 158.20 C 125.86 158.17 126.60 157.37 126.57 156.42 L 126.54 155.39 C 126.51 154.44 125.72 153.69 124.76 153.72 C 123.81 153.75 123.06 154.55 123.09 155.50 Z M 123.13 156.62 L 123.21 157.62 C 123.30 158.58 124.14 159.28 125.09 159.20 C 126.04 159.11 126.74 158.27 126.66 157.32 L 126.57 156.32 C 126.49 155.37 125.65 154.66 124.70 154.75 C 123.75 154.83 123.04 155.67 123.13 156.62 Z M 123.23 157.74 L 123.38 158.71 C 123.53 159.65 124.41 160.30 125.36 160.15 C 126.30 160.00 126.94 159.11 126.80 158.17 L 126.64 157.21 C 126.50 156.26 125.61 155.62 124.67 155.76 C 123.72 155.91 123.08 156.80 123.23 157.74 Z M 123.41 158.85 L 123.64 159.81 C 123.87 160.74 124.81 161.30 125.74 161.07 C 126.67 160.84 127.23 159.90 127.00 158.98 L 126.77 158.02 C 126.54 157.09 125.60 156.53 124.67 156.76 C 123.74 156.99 123.18 157.93 123.41 158.85 Z M 123.70 160.00 L 124.06 160.95 C 124.39 161.85 125.39 162.30 126.28 161.97 C 127.18 161.63 127.63 160.64 127.30 159.74 L 126.95 158.79 C 126.61 157.89 125.62 157.44 124.72 157.77 C 123.82 158.10 123.37 159.10 123.70 160.00 Z M 124.15 161.16 L 124.61 162.03 C 125.06 162.87 126.11 163.19 126.95 162.74 C 127.80 162.29 128.12 161.24 127.67 160.40 L 127.21 159.53 C 126.76 158.69 125.71 158.37 124.87 158.82 C 124.02 159.27 123.70 160.31 124.15 161.16 Z M 124.74 162.23 L 125.31 163.02 C 125.87 163.79 126.96 163.96 127.73 163.40 C 128.50 162.83 128.67 161.75 128.11 160.98 L 127.54 160.19 C 126.98 159.42 125.89 159.25 125.12 159.81 C 124.35 160.38 124.18 161.46 124.74 162.23 Z M 125.47 163.20 L 126.15 163.91 C 126.82 164.60 127.92 164.61 128.60 163.95 C 129.29 163.28 129.31 162.18 128.64 161.50 L 127.95 160.79 C 127.29 160.10 126.19 160.09 125.50 160.75 C 124.82 161.42 124.80 162.52 125.47 163.20 Z M 126.33 164.07 L 127.13 164.70 C 127.88 165.29 128.97 165.16 129.56 164.41 C 130.16 163.65 130.03 162.57 129.27 161.97 L 128.47 161.34 C 127.72 160.75 126.63 160.88 126.03 161.63 C 125.44 162.39 125.57 163.47 126.33 164.07 Z M 127.29 164.81 L 128.05 165.28 C 128.87 165.79 129.93 165.54 130.44 164.72 C 130.94 163.91 130.69 162.84 129.88 162.34 L 129.12 161.86 C 128.30 161.36 127.23 161.61 126.73 162.42 C 126.22 163.24 126.47 164.30 127.29 164.81 Z M 128.18 165.36 L 129.02 165.78 C 129.88 166.22 130.92 165.87 131.36 165.02 C 131.79 164.16 131.44 163.12 130.59 162.68 L 129.75 162.26 C 128.89 161.83 127.85 162.17 127.42 163.03 C 126.98 163.88 127.33 164.93 128.18 165.36 Z M 129.15 165.84 L 130.05 166.21 C 130.94 166.58 131.96 166.15 132.32 165.27 C 132.69 164.38 132.26 163.36 131.37 163.00 L 130.47 162.63 C 129.58 162.26 128.56 162.69 128.20 163.57 C 127.83 164.46 128.26 165.48 129.15 165.84 Z M 130.17 166.26 L 131.13 166.58 C 132.05 166.88 133.03 166.38 133.33 165.47 C 133.63 164.56 133.14 163.58 132.22 163.27 L 131.26 162.95 C 130.35 162.65 129.36 163.15 129.06 164.06 C 128.76 164.97 129.26 165.96 130.17 166.26 Z M 131.24 166.61 L 132.25 166.88 C 133.19 167.12 134.14 166.56 134.38 165.63 C 134.62 164.70 134.06 163.75 133.13 163.50 L 132.12 163.24 C 131.19 163.00 130.24 163.56 129.99 164.49 C 129.75 165.42 130.31 166.37 131.24 166.61 Z M 132.36 166.90 L 133.41 167.11 C 134.36 167.29 135.27 166.68 135.46 165.73 C 135.64 164.79 135.03 163.87 134.08 163.69 L 133.03 163.48 C 132.09 163.29 131.17 163.91 130.98 164.85 C 130.80 165.80 131.41 166.71 132.36 166.90 Z M 133.51 167.13 L 134.55 167.27 C 135.51 167.40 136.39 166.74 136.52 165.78 C 136.65 164.83 135.99 163.95 135.03 163.81 L 133.99 163.67 C 133.03 163.54 132.15 164.20 132.02 165.16 C 131.89 166.11 132.55 166.99 133.51 167.13 Z M 134.64 167.28 L 135.67 167.37 C 136.64 167.45 137.48 166.74 137.56 165.78 C 137.64 164.81 136.93 163.97 135.97 163.89 L 134.94 163.80 C 133.98 163.72 133.13 164.43 133.05 165.40 C 132.97 166.36 133.68 167.20 134.64 167.28 Z M 135.77 167.38 L 136.80 167.41 C 137.77 167.44 138.57 166.68 138.60 165.71 C 138.63 164.75 137.87 163.94 136.90 163.91 L 135.87 163.88 C 134.91 163.85 134.10 164.61 134.07 165.58 C 134.04 166.54 134.80 167.35 135.77 167.38 Z M 136.90 167.41 L 137.92 167.38 C 138.89 167.36 139.65 166.55 139.63 165.58 C 139.60 164.62 138.79 163.85 137.83 163.88 L 136.80 163.91 C 135.84 163.93 135.07 164.74 135.10 165.71 C 135.13 166.67 135.93 167.44 136.90 167.41 Z M 138.03 167.38 L 139.03 167.29 C 139.99 167.21 140.71 166.35 140.62 165.39 C 140.53 164.42 139.68 163.71 138.72 163.79 L 137.72 163.88 C 136.75 163.97 136.04 164.82 136.12 165.79 C 136.21 166.75 137.06 167.47 138.03 167.38 Z M 139.15 167.28 L 140.11 167.13 C 141.07 166.97 141.72 166.07 141.57 165.11 C 141.42 164.15 140.52 163.50 139.56 163.65 L 138.60 163.81 C 137.64 163.96 136.98 164.86 137.14 165.82 C 137.29 166.78 138.19 167.43 139.15 167.28 Z M 140.25 167.10 L 141.16 166.88 C 142.11 166.65 142.69 165.70 142.46 164.76 C 142.23 163.81 141.28 163.23 140.34 163.46 L 139.42 163.68 C 138.48 163.91 137.90 164.86 138.12 165.80 C 138.35 166.75 139.30 167.33 140.25 167.10 Z M 141.32 166.84 L 142.28 166.51 C 143.20 166.19 143.69 165.18 143.37 164.26 C 143.06 163.34 142.05 162.85 141.13 163.17 L 140.17 163.50 C 139.25 163.82 138.76 164.82 139.08 165.75 C 139.40 166.67 140.40 167.15 141.32 166.84 Z M 142.46 166.44 L 143.38 166.00 C 144.26 165.59 144.64 164.54 144.22 163.66 C 143.81 162.77 142.76 162.39 141.88 162.81 L 140.96 163.24 C 140.08 163.66 139.70 164.71 140.11 165.59 C 140.53 166.47 141.58 166.85 142.46 166.44 Z M 143.54 165.92 L 144.39 165.41 C 145.22 164.91 145.49 163.82 144.99 162.99 C 144.49 162.15 143.41 161.88 142.57 162.38 L 141.72 162.89 C 140.88 163.39 140.61 164.48 141.11 165.32 C 141.62 166.15 142.70 166.42 143.54 165.92 Z M 144.52 165.32 L 145.31 164.75 C 146.10 164.17 146.27 163.06 145.70 162.28 C 145.13 161.49 144.02 161.31 143.23 161.89 L 142.44 162.47 C 141.65 163.04 141.48 164.15 142.05 164.94 C 142.63 165.72 143.73 165.90 144.52 165.32 Z M 145.42 164.67 L 146.16 164.03 C 146.91 163.40 147.00 162.28 146.37 161.54 C 145.74 160.79 144.62 160.70 143.88 161.33 L 143.13 161.97 C 142.38 162.60 142.29 163.72 142.92 164.46 C 143.55 165.21 144.67 165.30 145.42 164.67 Z M 146.24 163.97 L 146.95 163.29 C 147.66 162.61 147.69 161.49 147.02 160.79 C 146.35 160.08 145.22 160.05 144.52 160.72 L 143.80 161.40 C 143.09 162.07 143.06 163.19 143.74 163.90 C 144.41 164.61 145.53 164.64 146.24 163.97 Z M 147.01 163.24 L 147.68 162.54 C 148.37 161.84 148.35 160.72 147.65 160.04 C 146.95 159.35 145.82 159.37 145.14 160.07 L 144.46 160.77 C 143.78 161.47 143.80 162.59 144.50 163.27 C 145.20 163.96 146.32 163.94 147.01 163.24 Z M 147.73 162.50 L 148.39 161.77 C 149.04 161.04 148.99 159.92 148.26 159.27 C 147.54 158.61 146.42 158.66 145.76 159.39 L 145.10 160.11 C 144.44 160.84 144.50 161.96 145.22 162.62 C 145.95 163.28 147.07 163.22 147.73 162.50 Z M 148.42 161.73 L 149.07 160.97 C 149.70 160.23 149.61 159.11 148.86 158.47 C 148.12 157.84 147.00 157.93 146.36 158.67 L 145.72 159.43 C 145.09 160.18 145.18 161.30 145.92 161.93 C 146.67 162.56 147.79 162.47 148.42 161.73 Z M 149.10 160.93 L 149.73 160.15 C 150.34 159.38 150.22 158.27 149.45 157.65 C 148.69 157.04 147.57 157.16 146.96 157.93 L 146.33 158.71 C 145.72 159.48 145.84 160.60 146.61 161.21 C 147.37 161.82 148.49 161.70 149.10 160.93 Z M 149.76 160.11 L 150.37 159.30 C 150.96 158.52 150.81 157.40 150.02 156.81 C 149.24 156.22 148.13 156.37 147.54 157.16 L 146.93 157.97 C 146.33 158.75 146.49 159.86 147.27 160.46 C 148.05 161.05 149.17 160.89 149.76 160.11 Z M 150.40 159.26 L 151.00 158.42 C 151.57 157.63 151.39 156.52 150.59 155.95 C 149.79 155.37 148.68 155.56 148.11 156.36 L 147.51 157.19 C 146.94 157.99 147.12 159.10 147.92 159.67 C 148.72 160.24 149.83 160.06 150.40 159.26 Z M 151.02 158.39 L 151.59 157.56 C 152.14 156.75 151.93 155.64 151.12 155.09 C 150.31 154.53 149.21 154.74 148.65 155.56 L 148.08 156.39 C 147.53 157.20 147.74 158.31 148.55 158.86 C 149.36 159.41 150.47 159.20 151.02 158.39 Z M 151.61 157.53 L 152.17 156.68 C 152.70 155.85 152.47 154.75 151.65 154.21 C 150.82 153.68 149.72 153.91 149.18 154.74 L 148.63 155.59 C 148.10 156.41 148.33 157.51 149.15 158.05 C 149.98 158.58 151.08 158.35 151.61 157.53 Z M 152.19 156.65 L 152.72 155.79 C 153.24 154.95 152.99 153.85 152.15 153.33 C 151.32 152.81 150.22 153.07 149.70 153.90 L 149.17 154.76 C 148.65 155.60 148.90 156.70 149.73 157.22 C 150.57 157.74 151.67 157.48 152.19 156.65 Z M 152.74 155.76 L 153.26 154.89 C 153.76 154.05 153.49 152.96 152.64 152.45 C 151.80 151.95 150.70 152.22 150.20 153.07 L 149.68 153.93 C 149.18 154.78 149.45 155.87 150.30 156.37 C 151.14 156.88 152.24 156.60 152.74 155.76 Z M 153.27 154.87 L 153.77 154.00 C 154.26 153.15 153.96 152.06 153.11 151.57 C 152.25 151.08 151.16 151.38 150.68 152.23 L 150.18 153.10 C 149.69 153.95 149.99 155.04 150.84 155.53 C 151.70 156.02 152.79 155.72 153.27 154.87 Z M 153.78 153.98 L 154.25 153.12 C 154.73 152.26 154.41 151.18 153.55 150.70 C 152.68 150.23 151.60 150.55 151.13 151.41 L 150.66 152.26 C 150.18 153.12 150.50 154.21 151.36 154.68 C 152.23 155.15 153.31 154.84 153.78 153.98 Z M 154.27 153.09 L 154.73 152.21 C 155.19 151.34 154.85 150.26 153.98 149.80 C 153.11 149.35 152.03 149.68 151.57 150.56 L 151.11 151.44 C 150.65 152.31 150.99 153.39 151.86 153.85 C 152.73 154.30 153.81 153.97 154.27 153.09 Z M 154.75 152.17 L 155.19 151.29 C 155.62 150.41 155.26 149.34 154.38 148.90 C 153.49 148.46 152.42 148.83 151.99 149.71 L 151.55 150.59 C 151.11 151.48 151.48 152.55 152.36 152.98 C 153.24 153.42 154.31 153.06 154.75 152.17 Z M 155.21 151.24 L 155.62 150.36 C 156.03 149.46 155.64 148.40 154.74 147.99 C 153.84 147.58 152.78 147.97 152.37 148.87 L 151.97 149.76 C 151.55 150.65 151.95 151.71 152.84 152.12 C 153.74 152.53 154.80 152.14 155.21 151.24 Z M 155.64 150.30 L 156.02 149.39 C 156.41 148.48 155.98 147.44 155.07 147.06 C 154.16 146.67 153.11 147.10 152.73 148.01 L 152.35 148.92 C 151.97 149.83 152.39 150.88 153.30 151.26 C 154.21 151.64 155.26 151.21 155.64 150.30 Z M 156.05 149.34 L 156.40 148.40 C 156.75 147.47 156.29 146.44 155.37 146.09 C 154.45 145.74 153.41 146.21 153.06 147.13 L 152.71 148.07 C 152.36 148.99 152.82 150.02 153.74 150.37 C 154.67 150.72 155.70 150.26 156.05 149.34 Z M 156.43 148.34 L 156.76 147.35 C 157.08 146.42 156.58 145.40 155.64 145.09 C 154.71 144.77 153.69 145.27 153.37 146.20 L 153.04 147.19 C 152.72 148.12 153.22 149.14 154.16 149.46 C 155.09 149.77 156.11 149.27 156.43 148.34 Z M 156.78 147.30 L 157.05 146.41 C 157.34 145.46 156.80 144.46 155.86 144.17 C 154.91 143.89 153.92 144.42 153.63 145.37 L 153.36 146.26 C 153.07 147.20 153.60 148.20 154.55 148.49 C 155.49 148.78 156.49 148.24 156.78 147.30 Z M 157.06 146.36 L 157.32 145.43 C 157.58 144.47 157.02 143.49 156.07 143.23 C 155.11 142.97 154.13 143.53 153.87 144.48 L 153.61 145.41 C 153.35 146.37 153.91 147.35 154.87 147.61 C 155.82 147.87 156.80 147.31 157.06 146.36 Z M 157.33 145.38 L 157.57 144.42 C 157.80 143.46 157.21 142.49 156.25 142.25 C 155.29 142.02 154.32 142.61 154.09 143.57 L 153.85 144.53 C 153.62 145.49 154.21 146.46 155.17 146.69 C 156.13 146.93 157.10 146.34 157.33 145.38 Z M 157.58 144.37 L 157.79 143.38 C 158.00 142.41 157.39 141.46 156.42 141.25 C 155.45 141.04 154.50 141.66 154.29 142.62 L 154.08 143.61 C 153.87 144.58 154.48 145.53 155.45 145.74 C 156.42 145.95 157.37 145.34 157.58 144.37 Z M 157.80 143.33 L 157.99 142.32 C 158.18 141.35 157.54 140.41 156.57 140.23 C 155.59 140.05 154.66 140.69 154.47 141.66 L 154.28 142.67 C 154.10 143.64 154.74 144.58 155.71 144.76 C 156.68 144.94 157.62 144.30 157.80 143.33 Z M 158.00 142.27 L 158.17 141.25 C 158.33 140.27 157.66 139.35 156.68 139.19 C 155.70 139.04 154.79 139.70 154.63 140.68 L 154.46 141.71 C 154.31 142.68 154.97 143.60 155.95 143.76 C 156.93 143.92 157.85 143.25 158.00 142.27 Z M 158.18 141.20 L 158.32 140.13 C 158.45 139.15 157.75 138.25 156.77 138.12 C 155.79 137.99 154.89 138.68 154.76 139.66 L 154.62 140.73 C 154.49 141.71 155.18 142.61 156.16 142.74 C 157.15 142.87 158.05 142.18 158.18 141.20 Z M 158.32 140.07 L 158.43 138.94 C 158.53 137.95 157.80 137.08 156.82 136.98 C 155.83 136.89 154.96 137.61 154.86 138.60 L 154.75 139.73 C 154.66 140.71 155.38 141.59 156.37 141.68 C 157.35 141.78 158.23 141.05 158.32 140.07 Z M 158.44 138.84 L 158.49 137.75 C 158.53 136.76 157.76 135.92 156.77 135.88 C 155.78 135.83 154.94 136.60 154.90 137.59 L 154.85 138.69 C 154.81 139.68 155.58 140.52 156.57 140.56 C 157.56 140.60 158.40 139.83 158.44 138.84 Z M 158.49 137.61 L 158.45 136.58 C 158.42 135.58 157.59 134.81 156.60 134.84 C 155.61 134.87 154.84 135.70 154.87 136.69 L 154.90 137.73 C 154.93 138.72 155.76 139.49 156.75 139.46 C 157.74 139.43 158.52 138.60 158.49 137.61 Z M 158.44 136.38 L 158.31 135.44 C 158.17 134.46 157.26 133.77 156.28 133.91 C 155.30 134.05 154.61 134.95 154.75 135.93 L 154.88 136.88 C 155.02 137.86 155.93 138.55 156.91 138.41 C 157.89 138.27 158.58 137.37 158.44 136.38 Z M 158.25 135.16 L 158.00 134.34 C 157.71 133.39 156.71 132.85 155.76 133.14 C 154.81 133.43 154.27 134.43 154.56 135.38 L 154.81 136.21 C 155.10 137.15 156.10 137.69 157.05 137.40 C 158.00 137.11 158.53 136.11 158.25 135.16 Z M 157.83 133.95 L 157.42 133.25 C 156.92 132.39 155.82 132.10 154.96 132.60 C 154.11 133.10 153.82 134.19 154.31 135.05 L 154.73 135.76 C 155.22 136.62 156.32 136.91 157.18 136.41 C 158.04 135.91 158.33 134.81 157.83 133.95 Z M 157.05 132.80 L 156.36 132.20 C 155.62 131.54 154.48 131.61 153.83 132.36 C 153.18 133.10 153.25 134.23 153.99 134.89 L 154.68 135.50 C 155.42 136.15 156.56 136.08 157.21 135.33 C 157.87 134.59 157.79 133.46 157.05 132.80 Z M 155.90 131.90 L 155.03 131.52 C 154.13 131.13 153.07 131.54 152.67 132.44 C 152.27 133.35 152.69 134.41 153.59 134.81 L 154.46 135.18 C 155.36 135.58 156.42 135.17 156.82 134.26 C 157.21 133.35 156.80 132.30 155.90 131.90 Z M 154.63 131.40 L 153.65 131.22 C 152.68 131.05 151.74 131.69 151.57 132.66 C 151.39 133.64 152.03 134.57 153.01 134.75 L 153.99 134.93 C 154.96 135.10 155.90 134.46 156.07 133.48 C 156.25 132.51 155.61 131.58 154.63 131.40 Z M 153.35 131.20 L 152.29 131.19 C 151.30 131.18 150.49 131.97 150.48 132.96 C 150.47 133.94 151.27 134.75 152.25 134.76 L 153.31 134.77 C 154.30 134.78 155.11 133.99 155.12 133.00 C 155.13 132.01 154.33 131.21 153.35 131.20 Z M 152.06 131.20 L 151.02 131.33 C 150.04 131.44 149.34 132.33 149.45 133.31 C 149.57 134.29 150.46 134.99 151.44 134.87 L 152.48 134.75 C 153.46 134.63 154.16 133.74 154.04 132.76 C 153.93 131.79 153.04 131.09 152.06 131.20 Z M 150.84 131.37 L 149.89 131.58 C 148.94 131.79 148.33 132.73 148.54 133.69 C 148.76 134.65 149.70 135.25 150.66 135.04 L 151.61 134.83 C 152.57 134.62 153.17 133.67 152.96 132.71 C 152.75 131.76 151.80 131.15 150.84 131.37 Z M 149.76 131.63 L 148.82 131.92 C 147.89 132.20 147.37 133.19 147.66 134.11 C 147.94 135.04 148.93 135.56 149.85 135.27 L 150.79 134.99 C 151.72 134.70 152.24 133.72 151.95 132.79 C 151.67 131.86 150.69 131.34 149.76 131.63 Z M 148.71 131.97 L 147.78 132.33 C 146.89 132.67 146.44 133.68 146.78 134.58 C 147.12 135.47 148.13 135.92 149.03 135.58 L 149.96 135.22 C 150.86 134.88 151.30 133.87 150.96 132.97 C 150.62 132.08 149.61 131.63 148.71 131.97 Z M 147.70 132.38 L 146.78 132.79 C 145.91 133.18 145.52 134.20 145.91 135.07 C 146.29 135.94 147.31 136.33 148.18 135.94 L 149.11 135.53 C 149.97 135.14 150.36 134.12 149.98 133.25 C 149.59 132.38 148.57 131.99 147.70 132.38 Z M 146.72 132.84 L 145.80 133.29 C 144.96 133.71 144.61 134.73 145.03 135.58 C 145.45 136.42 146.47 136.77 147.31 136.35 L 148.24 135.89 C 149.08 135.48 149.42 134.45 149.01 133.61 C 148.59 132.77 147.57 132.42 146.72 132.84 Z M 145.77 133.33 L 144.89 133.80 C 144.07 134.23 143.75 135.25 144.19 136.08 C 144.62 136.90 145.65 137.21 146.47 136.78 L 147.35 136.31 C 148.17 135.88 148.48 134.86 148.05 134.03 C 147.61 133.21 146.59 132.90 145.77 133.33 Z M 144.87 133.83 L 144.01 134.31 C 143.20 134.76 142.91 135.77 143.36 136.58 C 143.80 137.38 144.82 137.67 145.62 137.23 L 146.49 136.75 C 147.30 136.30 147.59 135.28 147.14 134.48 C 146.69 133.67 145.68 133.38 144.87 133.83 Z M 143.99 134.34 L 143.13 134.84 C 142.34 135.29 142.07 136.30 142.52 137.09 C 142.98 137.88 143.98 138.15 144.77 137.69 L 145.64 137.20 C 146.43 136.74 146.70 135.73 146.24 134.94 C 145.79 134.15 144.78 133.88 143.99 134.34 Z M 143.12 134.86 L 142.25 135.37 C 141.48 135.83 141.22 136.83 141.68 137.61 C 142.14 138.38 143.14 138.64 143.92 138.18 L 144.78 137.67 C 145.56 137.21 145.81 136.21 145.35 135.43 C 144.90 134.66 143.89 134.40 143.12 134.86 Z M 142.25 135.40 L 141.39 135.92 C 140.63 136.38 140.38 137.37 140.84 138.13 C 141.30 138.89 142.29 139.14 143.05 138.68 L 143.92 138.16 C 144.68 137.70 144.93 136.71 144.47 135.94 C 144.01 135.18 143.02 134.94 142.25 135.40 Z M 141.39 135.94 L 140.53 136.46 C 139.78 136.92 139.54 137.90 139.99 138.65 C 140.45 139.40 141.43 139.64 142.18 139.19 L 143.05 138.66 C 143.80 138.20 144.04 137.22 143.58 136.47 C 143.13 135.72 142.14 135.48 141.39 135.94 Z M 140.53 136.47 L 140.46 136.52 C 139.71 136.97 139.47 137.94 139.93 138.69 C 140.38 139.44 141.36 139.68 142.10 139.22 L 142.18 139.18 C 142.93 138.72 143.16 137.75 142.71 137.00 C 142.25 136.25 141.28 136.02 140.53 136.47 Z"
      fill="black"
      fill-rule="nonzero" /></svg>