<svg xmlns="http://www.w3.org/2000/svg" width="300" height="300" viewBox="0 0 300 300">
<path d="M 149.84 174.06 L 149.48 175.03 C 149.16 175.90 149.61 176.88 150.48 177.20 C 151.36 177.52 152.33 177.07 152.65 176.20 L 153.01 175.23 C 153.33 174.35 152.89 173.38 152.01 173.06 C 151.13 172.73 150.16 173.18 149.84 174.06 Z M 149.49 174.98 L 149.11 175.93 C 148.76 176.80 149.19 177.79 150.06 178.14 C 150.93 178.48 151.92 178.06 152.27 177.19 L 152.64 176.24 C 152.99 175.37 152.57 174.38 151.70 174.03 C 150.82 173.69 149.84 174.11 149.49 174.98 Z M 149.14 175.84 L 148.72 176.75 C 148.33 177.61 148.70 178.62 149.55 179.02 C 150.41 179.41 151.42 179.04 151.82 178.18 L 152.24 177.27 C 152.63 176.42 152.26 175.41 151.40 175.01 C 150.55 174.62 149.54 174.99 149.14 175.84 Z M 148.78 176.62 L 148.30 177.47 C 147.83 178.30 148.12 179.34 148.94 179.81 C 149.76 180.27 150.81 179.99 151.27 179.17 L 151.76 178.31 C 152.22 177.49 151.94 176.45 151.11 175.98 C 150.29 175.51 149.25 175.80 148.78 176.62 Z M 148.40 177.30 L 147.83 178.08 C 147.27 178.84 147.44 179.91 148.20 180.48 C 148.96 181.04 150.04 180.87 150.60 180.11 L 151.17 179.34 C 151.73 178.57 151.57 177.50 150.80 176.94 C 150.04 176.37 148.96 176.54 148.40 177.30 Z M 148.01 177.87 L 147.25 178.63 C 146.57 179.29 146.57 180.38 147.24 181.06 C 147.90 181.73 148.99 181.74 149.67 181.07 L 150.43 180.31 C 151.10 179.65 151.11 178.56 150.44 177.88 C 149.77 177.21 148.68 177.20 148.01 177.87 Z M 147.48 178.43 L 146.63 179.01 C 145.85 179.55 145.65 180.62 146.18 181.40 C 146.72 182.19 147.79 182.39 148.57 181.85 L 149.43 181.26 C 150.21 180.73 150.41 179.66 149.87 178.87 C 149.34 178.09 148.27 177.89 147.48 178.43 Z M 146.95 178.84 L 146.04 179.22 C 145.16 179.58 144.74 180.58 145.10 181.46 C 145.47 182.34 146.47 182.76 147.35 182.40 L 148.26 182.02 C 149.13 181.66 149.55 180.66 149.19 179.78 C 148.83 178.90 147.82 178.48 146.95 178.84 Z M 146.47 179.10 L 145.55 179.22 C 144.61 179.35 143.95 180.21 144.07 181.15 C 144.19 182.09 145.05 182.75 145.99 182.63 L 146.91 182.51 C 147.86 182.39 148.52 181.53 148.40 180.59 C 148.28 179.65 147.41 178.98 146.47 179.10 Z M 146.09 179.24 L 145.23 179.08 C 144.30 178.90 143.40 179.51 143.22 180.44 C 143.05 181.37 143.66 182.27 144.59 182.45 L 145.45 182.61 C 146.38 182.79 147.28 182.18 147.46 181.25 C 147.64 180.31 147.02 179.42 146.09 179.24 Z M 145.69 179.23 L 144.89 178.83 C 144.05 178.39 143.01 178.73 142.58 179.57 C 142.15 180.42 142.48 181.45 143.33 181.88 L 144.13 182.29 C 144.97 182.72 146.01 182.39 146.44 181.54 C 146.87 180.70 146.54 179.67 145.69 179.23 Z M 145.17 179.01 L 144.41 178.40 C 143.66 177.81 142.58 177.94 142.00 178.68 C 141.41 179.43 141.53 180.51 142.28 181.09 L 143.05 181.70 C 143.79 182.29 144.87 182.16 145.46 181.42 C 146.04 180.67 145.92 179.60 145.17 179.01 Z M 144.57 178.55 L 143.83 177.79 C 143.17 177.12 142.08 177.10 141.40 177.77 C 140.73 178.43 140.71 179.52 141.38 180.19 L 142.12 180.95 C 142.78 181.63 143.87 181.64 144.54 180.97 C 145.22 180.31 145.23 179.22 144.57 178.55 Z M 143.92 177.89 L 143.20 177.04 C 142.59 176.31 141.51 176.22 140.79 176.83 C 140.06 177.44 139.97 178.52 140.58 179.25 L 141.29 180.10 C 141.90 180.82 142.98 180.92 143.71 180.31 C 144.43 179.70 144.53 178.62 143.92 177.89 Z M 143.25 177.09 L 142.64 176.31 C 142.06 175.56 140.98 175.42 140.23 176.00 C 139.48 176.58 139.34 177.65 139.92 178.40 L 140.53 179.19 C 141.11 179.94 142.19 180.08 142.94 179.50 C 143.69 178.92 143.83 177.84 143.25 177.09 Z M 142.67 176.35 L 142.09 175.55 C 141.53 174.78 140.46 174.61 139.69 175.17 C 138.92 175.73 138.76 176.80 139.31 177.57 L 139.89 178.36 C 140.45 179.13 141.52 179.30 142.29 178.74 C 143.06 178.18 143.23 177.11 142.67 176.35 Z M 142.11 175.58 L 141.55 174.76 C 141.01 173.98 139.94 173.79 139.16 174.32 C 138.38 174.86 138.18 175.93 138.72 176.71 L 139.29 177.53 C 139.82 178.31 140.89 178.51 141.67 177.97 C 142.45 177.43 142.65 176.36 142.11 175.58 Z M 141.57 174.80 L 141.02 173.95 C 140.50 173.16 139.44 172.94 138.64 173.46 C 137.85 173.98 137.63 175.04 138.15 175.83 L 138.70 176.67 C 139.22 177.47 140.28 177.69 141.07 177.17 C 141.87 176.65 142.09 175.59 141.57 174.80 Z M 141.04 173.99 L 140.50 173.12 C 140.00 172.32 138.94 172.07 138.14 172.57 C 137.33 173.07 137.09 174.13 137.59 174.94 L 138.13 175.80 C 138.63 176.60 139.69 176.85 140.49 176.35 C 141.29 175.85 141.54 174.79 141.04 173.99 Z M 140.52 173.15 L 140.00 172.28 C 139.52 171.47 138.47 171.20 137.65 171.69 C 136.84 172.17 136.57 173.22 137.05 174.04 L 137.57 174.91 C 138.06 175.72 139.11 175.99 139.92 175.50 C 140.74 175.02 141.00 173.97 140.52 173.15 Z M 140.02 172.31 L 139.53 171.45 C 139.06 170.62 138.01 170.33 137.19 170.80 C 136.37 171.27 136.08 172.32 136.54 173.14 L 137.04 174.01 C 137.50 174.83 138.55 175.12 139.38 174.65 C 140.20 174.19 140.49 173.14 140.02 172.31 Z M 139.55 171.48 L 139.08 170.60 C 138.63 169.77 137.59 169.45 136.75 169.90 C 135.92 170.35 135.60 171.39 136.05 172.23 L 136.52 173.11 C 136.97 173.94 138.01 174.26 138.85 173.81 C 139.68 173.36 140.00 172.32 139.55 171.48 Z M 139.10 170.64 L 138.65 169.75 C 138.22 168.90 137.19 168.56 136.34 168.99 C 135.49 169.41 135.15 170.45 135.58 171.29 L 136.03 172.19 C 136.46 173.03 137.49 173.37 138.34 172.95 C 139.18 172.52 139.52 171.49 139.10 170.64 Z M 138.67 169.79 L 138.24 168.88 C 137.84 168.03 136.82 167.65 135.96 168.06 C 135.10 168.46 134.73 169.48 135.13 170.34 L 135.56 171.25 C 135.96 172.11 136.98 172.48 137.84 172.08 C 138.70 171.67 139.07 170.65 138.67 169.79 Z M 138.27 168.93 L 137.87 168.01 C 137.50 167.14 136.49 166.74 135.61 167.11 C 134.74 167.49 134.34 168.50 134.71 169.37 L 135.11 170.29 C 135.48 171.16 136.49 171.57 137.37 171.19 C 138.24 170.82 138.64 169.81 138.27 168.93 Z M 137.90 168.07 L 137.53 167.13 C 137.19 166.25 136.19 165.81 135.31 166.15 C 134.42 166.50 133.98 167.49 134.33 168.38 L 134.69 169.31 C 135.03 170.20 136.03 170.64 136.91 170.30 C 137.80 169.95 138.24 168.96 137.90 168.07 Z M 137.56 167.19 L 137.23 166.24 C 136.92 165.34 135.94 164.87 135.04 165.18 C 134.14 165.49 133.66 166.47 133.97 167.37 L 134.30 168.32 C 134.61 169.22 135.59 169.69 136.49 169.38 C 137.39 169.07 137.87 168.09 137.56 167.19 Z M 137.25 166.30 L 136.96 165.34 C 136.68 164.43 135.72 163.92 134.81 164.20 C 133.89 164.47 133.38 165.44 133.66 166.35 L 133.95 167.31 C 134.23 168.22 135.19 168.73 136.10 168.45 C 137.01 168.18 137.53 167.21 137.25 166.30 Z M 136.98 165.41 L 136.72 164.44 C 136.48 163.52 135.54 162.97 134.61 163.21 C 133.69 163.45 133.14 164.39 133.38 165.32 L 133.64 166.28 C 133.88 167.21 134.82 167.76 135.75 167.51 C 136.67 167.27 137.22 166.33 136.98 165.41 Z M 136.74 164.50 L 136.53 163.53 C 136.32 162.60 135.40 162.01 134.46 162.22 C 133.53 162.42 132.94 163.35 133.15 164.28 L 133.37 165.25 C 133.57 166.18 134.50 166.77 135.43 166.56 C 136.36 166.36 136.95 165.44 136.74 164.50 Z M 136.54 163.60 L 136.37 162.62 C 136.20 161.68 135.30 161.06 134.36 161.23 C 133.41 161.40 132.79 162.30 132.96 163.24 L 133.13 164.21 C 133.30 165.15 134.20 165.78 135.14 165.61 C 136.08 165.44 136.71 164.54 136.54 163.60 Z M 136.38 162.69 L 136.24 161.70 C 136.11 160.75 135.24 160.08 134.29 160.21 C 133.34 160.35 132.67 161.22 132.81 162.17 L 132.94 163.17 C 133.07 164.12 133.95 164.78 134.90 164.65 C 135.85 164.52 136.51 163.64 136.38 162.69 Z M 136.26 161.76 L 136.16 160.76 C 136.06 159.80 135.20 159.11 134.25 159.20 C 133.29 159.30 132.59 160.16 132.69 161.11 L 132.79 162.11 C 132.89 163.07 133.74 163.76 134.70 163.67 C 135.66 163.57 136.36 162.72 136.26 161.76 Z M 136.17 160.81 L 136.10 159.82 C 136.03 158.85 135.19 158.13 134.23 158.20 C 133.26 158.27 132.54 159.10 132.61 160.07 L 132.68 161.06 C 132.75 162.03 133.58 162.75 134.55 162.68 C 135.51 162.61 136.24 161.78 136.17 160.81 Z M 136.11 159.86 L 136.06 158.86 C 136.01 157.89 135.19 157.14 134.22 157.19 C 133.25 157.24 132.50 158.06 132.55 159.03 L 132.60 160.03 C 132.64 160.99 133.47 161.74 134.44 161.69 C 135.40 161.65 136.15 160.83 136.11 159.86 Z M 136.07 158.89 L 136.04 157.89 C 136.01 156.92 135.19 156.16 134.22 156.19 C 133.25 156.22 132.48 157.03 132.51 158.00 L 132.54 159.00 C 132.57 159.97 133.39 160.74 134.36 160.71 C 135.33 160.68 136.10 159.86 136.07 158.89 Z M 136.04 157.91 L 136.02 156.91 C 136.00 155.93 135.20 155.16 134.22 155.17 C 133.24 155.19 132.46 156.00 132.48 156.98 L 132.50 157.98 C 132.52 158.96 133.33 159.74 134.31 159.72 C 135.29 159.70 136.06 158.89 136.04 157.91 Z M 136.03 156.94 L 136.03 155.93 C 136.02 154.95 135.22 154.15 134.24 154.16 C 133.26 154.16 132.47 154.96 132.47 155.94 L 132.48 156.95 C 132.48 157.93 133.28 158.72 134.26 158.72 C 135.24 158.72 136.03 157.92 136.03 156.94 Z M 136.03 155.98 L 136.06 154.98 C 136.09 153.99 135.31 153.17 134.33 153.15 C 133.34 153.12 132.52 153.89 132.49 154.88 L 132.47 155.88 C 132.44 156.87 133.21 157.69 134.20 157.72 C 135.19 157.74 136.01 156.97 136.03 155.98 Z M 136.06 155.07 L 136.14 154.07 C 136.22 153.09 135.48 152.22 134.49 152.15 C 133.50 152.07 132.64 152.81 132.57 153.80 L 132.49 154.79 C 132.41 155.78 133.15 156.64 134.14 156.72 C 135.13 156.79 135.99 156.05 136.06 155.07 Z M 136.14 154.19 L 136.28 153.21 C 136.42 152.23 135.74 151.32 134.75 151.17 C 133.77 151.03 132.86 151.72 132.71 152.70 L 132.57 153.68 C 132.43 154.66 133.11 155.57 134.10 155.72 C 135.08 155.86 135.99 155.18 136.14 154.19 Z M 136.26 153.36 L 136.48 152.40 C 136.70 151.43 136.10 150.46 135.12 150.23 C 134.15 150.01 133.18 150.61 132.96 151.59 L 132.73 152.55 C 132.51 153.52 133.12 154.49 134.09 154.72 C 135.06 154.94 136.03 154.34 136.26 153.36 Z M 136.43 152.57 L 136.75 151.62 C 137.07 150.68 136.56 149.65 135.61 149.33 C 134.67 149.01 133.64 149.52 133.32 150.47 L 133.00 151.42 C 132.68 152.36 133.19 153.39 134.14 153.71 C 135.09 154.03 136.12 153.52 136.43 152.57 Z M 136.69 151.79 L 137.10 150.87 C 137.51 149.95 137.10 148.88 136.19 148.47 C 135.27 148.06 134.20 148.47 133.79 149.39 L 133.38 150.31 C 132.97 151.22 133.38 152.29 134.30 152.70 C 135.21 153.11 136.29 152.70 136.69 151.79 Z M 137.03 151.02 L 137.52 150.14 C 138.01 149.27 137.70 148.16 136.82 147.67 C 135.95 147.18 134.84 147.49 134.35 148.37 L 133.86 149.24 C 133.37 150.12 133.68 151.23 134.56 151.72 C 135.43 152.21 136.54 151.89 137.03 151.02 Z M 137.44 150.28 L 138.00 149.45 C 138.57 148.62 138.36 147.49 137.52 146.92 C 136.69 146.36 135.56 146.57 134.99 147.40 L 134.43 148.23 C 133.86 149.06 134.08 150.19 134.91 150.76 C 135.74 151.32 136.87 151.11 137.44 150.28 Z M 137.91 149.58 L 138.54 148.81 C 139.18 148.03 139.06 146.88 138.28 146.24 C 137.50 145.61 136.35 145.72 135.71 146.50 L 135.09 147.27 C 134.45 148.05 134.57 149.20 135.35 149.84 C 136.13 150.48 137.28 150.36 137.91 149.58 Z M 138.44 148.93 L 139.11 148.24 C 139.81 147.51 139.79 146.36 139.06 145.66 C 138.34 144.95 137.18 144.97 136.48 145.70 L 135.81 146.39 C 135.11 147.11 135.13 148.27 135.86 148.97 C 136.58 149.67 137.74 149.65 138.44 148.93 Z M 139.00 148.34 L 139.71 147.72 C 140.47 147.05 140.54 145.89 139.88 145.13 C 139.21 144.37 138.05 144.30 137.29 144.97 L 136.58 145.59 C 135.83 146.26 135.75 147.42 136.42 148.18 C 137.09 148.94 138.24 149.01 139.00 148.34 Z M 139.62 147.80 L 140.38 147.22 C 141.19 146.60 141.34 145.45 140.72 144.64 C 140.11 143.84 138.96 143.69 138.15 144.30 L 137.39 144.89 C 136.58 145.50 136.43 146.65 137.05 147.46 C 137.66 148.26 138.81 148.42 139.62 147.80 Z M 140.30 147.28 L 141.12 146.72 C 141.96 146.15 142.18 145.01 141.61 144.17 C 141.04 143.33 139.90 143.11 139.06 143.68 L 138.24 144.24 C 137.40 144.81 137.18 145.95 137.75 146.79 C 138.32 147.63 139.46 147.85 140.30 147.28 Z M 141.06 146.77 L 141.94 146.22 C 142.81 145.69 143.08 144.56 142.55 143.69 C 142.01 142.82 140.88 142.55 140.01 143.09 L 139.13 143.63 C 138.26 144.16 137.99 145.30 138.52 146.17 C 139.06 147.03 140.19 147.30 141.06 146.77 Z M 141.90 146.26 L 142.84 145.71 C 143.72 145.21 144.03 144.08 143.52 143.20 C 143.02 142.31 141.89 142.01 141.00 142.51 L 140.06 143.05 C 139.18 143.56 138.87 144.69 139.38 145.57 C 139.88 146.46 141.01 146.76 141.90 146.26 Z M 142.81 145.74 L 143.65 145.27 C 144.55 144.78 144.88 143.66 144.39 142.77 C 143.90 141.87 142.78 141.54 141.88 142.03 L 141.04 142.49 C 140.14 142.98 139.81 144.10 140.30 145.00 C 140.79 145.90 141.91 146.23 142.81 145.74 Z M 143.62 145.29 L 144.51 144.83 C 145.41 144.36 145.77 143.25 145.30 142.34 C 144.82 141.43 143.71 141.08 142.80 141.55 L 141.92 142.01 C 141.01 142.48 140.66 143.60 141.13 144.50 C 141.60 145.41 142.71 145.76 143.62 145.29 Z M 144.46 144.86 L 145.38 144.41 C 146.30 143.97 146.68 142.86 146.23 141.94 C 145.79 141.02 144.68 140.64 143.76 141.08 L 142.85 141.53 C 141.93 141.97 141.54 143.08 141.99 144.00 C 142.43 144.92 143.54 145.30 144.46 144.86 Z M 145.32 144.44 L 146.25 144.03 C 147.19 143.61 147.61 142.52 147.20 141.58 C 146.78 140.65 145.68 140.22 144.75 140.64 L 143.81 141.06 C 142.88 141.47 142.46 142.57 142.87 143.50 C 143.29 144.44 144.39 144.86 145.32 144.44 Z M 146.19 144.06 L 147.13 143.68 C 148.08 143.30 148.55 142.23 148.17 141.27 C 147.79 140.32 146.71 139.86 145.76 140.23 L 144.82 140.61 C 143.87 140.99 143.40 142.07 143.78 143.02 C 144.16 143.97 145.23 144.44 146.19 144.06 Z M 147.05 143.72 L 147.99 143.39 C 148.96 143.06 149.48 142.01 149.15 141.04 C 148.82 140.07 147.76 139.55 146.79 139.88 L 145.85 140.20 C 144.88 140.53 144.36 141.59 144.69 142.56 C 145.02 143.53 146.07 144.05 147.05 143.72 Z M 147.88 143.43 L 148.86 143.16 C 149.85 142.89 150.43 141.87 150.16 140.88 C 149.89 139.89 148.87 139.31 147.88 139.58 L 146.90 139.84 C 145.91 140.11 145.33 141.14 145.60 142.13 C 145.87 143.12 146.89 143.70 147.88 143.43 Z M 148.72 143.20 L 149.76 143.00 C 150.77 142.80 151.43 141.82 151.23 140.82 C 151.04 139.81 150.06 139.15 149.05 139.34 L 148.02 139.54 C 147.01 139.74 146.35 140.72 146.54 141.72 C 146.74 142.73 147.72 143.39 148.72 143.20 Z M 149.62 143.02 L 150.64 142.90 C 151.66 142.79 152.39 141.86 152.27 140.84 C 152.16 139.82 151.23 139.09 150.21 139.20 L 149.19 139.32 C 148.17 139.44 147.44 140.36 147.56 141.38 C 147.67 142.40 148.60 143.14 149.62 143.02 Z M 150.50 142.92 L 151.49 142.88 C 152.52 142.84 153.32 141.97 153.28 140.94 C 153.24 139.91 152.38 139.11 151.35 139.15 L 150.35 139.19 C 149.32 139.23 148.52 140.10 148.56 141.12 C 148.60 142.15 149.47 142.96 150.50 142.92 Z M 151.35 142.88 L 152.33 142.91 C 153.36 142.95 154.22 142.14 154.26 141.11 C 154.29 140.08 153.49 139.22 152.46 139.18 L 151.48 139.15 C 150.45 139.11 149.59 139.92 149.55 140.95 C 149.52 141.98 150.32 142.84 151.35 142.88 Z M 152.20 142.91 L 153.15 143.01 C 154.18 143.11 155.09 142.37 155.20 141.34 C 155.31 140.32 154.56 139.40 153.54 139.29 L 152.59 139.19 C 151.56 139.08 150.64 139.83 150.53 140.85 C 150.43 141.88 151.17 142.80 152.20 142.91 Z M 153.02 142.99 L 153.98 143.16 C 155.00 143.33 155.97 142.65 156.14 141.63 C 156.32 140.61 155.63 139.64 154.62 139.47 L 153.66 139.30 C 152.64 139.13 151.68 139.81 151.50 140.83 C 151.32 141.85 152.01 142.82 153.02 142.99 Z M 153.86 143.13 L 154.84 143.37 C 155.84 143.61 156.85 142.99 157.09 141.98 C 157.33 140.98 156.71 139.97 155.71 139.72 L 154.73 139.49 C 153.73 139.25 152.72 139.87 152.48 140.88 C 152.24 141.88 152.86 142.89 153.86 143.13 Z M 154.73 143.34 L 155.68 143.63 C 156.67 143.93 157.72 143.37 158.02 142.38 C 158.32 141.38 157.76 140.34 156.77 140.04 L 155.81 139.75 C 154.82 139.45 153.78 140.01 153.48 141.00 C 153.18 142.00 153.74 143.04 154.73 143.34 Z M 155.60 143.60 L 156.53 143.94 C 157.51 144.28 158.58 143.77 158.93 142.80 C 159.28 141.82 158.77 140.75 157.79 140.40 L 156.86 140.07 C 155.88 139.72 154.81 140.23 154.46 141.20 C 154.11 142.18 154.62 143.25 155.60 143.60 Z M 156.46 143.91 L 157.39 144.28 C 158.35 144.67 159.44 144.20 159.83 143.24 C 160.22 142.28 159.75 141.19 158.79 140.80 L 157.86 140.43 C 156.90 140.04 155.81 140.50 155.42 141.47 C 155.03 142.43 155.50 143.52 156.46 143.91 Z M 157.33 144.26 L 158.25 144.66 C 159.20 145.08 160.31 144.65 160.73 143.70 C 161.14 142.75 160.71 141.64 159.76 141.22 L 158.84 140.82 C 157.89 140.40 156.78 140.83 156.37 141.79 C 155.95 142.74 156.38 143.84 157.33 144.26 Z M 158.21 144.65 L 159.12 145.07 C 160.06 145.51 161.18 145.10 161.61 144.16 C 162.05 143.21 161.64 142.10 160.70 141.66 L 159.80 141.24 C 158.86 140.80 157.74 141.21 157.30 142.15 C 156.86 143.09 157.27 144.21 158.21 144.65 Z M 159.08 145.05 L 159.97 145.49 C 160.90 145.95 162.03 145.57 162.49 144.64 C 162.95 143.70 162.57 142.58 161.64 142.12 L 160.74 141.68 C 159.81 141.22 158.68 141.60 158.22 142.53 C 157.76 143.46 158.14 144.59 159.08 145.05 Z M 159.93 145.47 L 160.81 145.94 C 161.73 146.42 162.87 146.07 163.36 145.15 C 163.84 144.23 163.49 143.09 162.57 142.61 L 161.68 142.14 C 160.76 141.65 159.62 142.01 159.14 142.93 C 158.65 143.85 159.01 144.99 159.93 145.47 Z M 160.76 145.91 L 161.63 146.41 C 162.54 146.92 163.69 146.60 164.20 145.70 C 164.72 144.79 164.40 143.64 163.49 143.13 L 162.62 142.63 C 161.72 142.12 160.57 142.44 160.05 143.34 C 159.54 144.25 159.86 145.40 160.76 145.91 Z M 161.57 146.37 L 162.43 146.90 C 163.31 147.44 164.48 147.17 165.02 146.28 C 165.57 145.39 165.29 144.23 164.40 143.69 L 163.55 143.16 C 162.66 142.62 161.50 142.89 160.96 143.78 C 160.41 144.67 160.69 145.83 161.57 146.37 Z M 162.36 146.86 L 163.19 147.42 C 164.06 148.00 165.23 147.77 165.81 146.90 C 166.39 146.04 166.16 144.87 165.30 144.29 L 164.47 143.73 C 163.61 143.15 162.43 143.37 161.85 144.24 C 161.27 145.10 161.50 146.27 162.36 146.86 Z M 163.13 147.37 L 163.93 147.97 C 164.77 148.58 165.95 148.41 166.57 147.57 C 167.19 146.73 167.01 145.55 166.18 144.93 L 165.37 144.33 C 164.53 143.72 163.35 143.89 162.73 144.73 C 162.11 145.57 162.29 146.75 163.13 147.37 Z M 163.86 147.91 L 164.64 148.54 C 165.45 149.20 166.64 149.08 167.29 148.27 C 167.95 147.47 167.83 146.28 167.02 145.62 L 166.25 144.99 C 165.44 144.33 164.25 144.45 163.59 145.26 C 162.94 146.06 163.06 147.25 163.86 147.91 Z M 164.57 148.48 L 165.31 149.15 C 166.09 149.85 167.28 149.79 167.98 149.01 C 168.67 148.24 168.61 147.05 167.84 146.35 L 167.09 145.68 C 166.32 144.98 165.13 145.05 164.43 145.82 C 163.73 146.59 163.80 147.79 164.57 148.48 Z M 165.24 149.09 L 165.95 149.79 C 166.69 150.53 167.88 150.52 168.62 149.79 C 169.35 149.05 169.35 147.85 168.61 147.12 L 167.91 146.41 C 167.17 145.68 165.97 145.68 165.24 146.42 C 164.50 147.16 164.51 148.35 165.24 149.09 Z M 165.88 149.72 L 166.55 150.46 C 167.25 151.23 168.44 151.29 169.21 150.59 C 169.98 149.90 170.05 148.70 169.35 147.93 L 168.68 147.19 C 167.98 146.42 166.79 146.36 166.02 147.05 C 165.24 147.75 165.18 148.95 165.88 149.72 Z M 166.48 150.38 L 167.09 151.14 C 167.75 151.95 168.93 152.07 169.74 151.42 C 170.55 150.76 170.68 149.57 170.03 148.76 L 169.41 148.01 C 168.76 147.20 167.57 147.07 166.76 147.73 C 165.95 148.38 165.83 149.57 166.48 150.38 Z M 167.02 151.04 L 167.58 151.83 C 168.19 152.68 169.36 152.87 170.21 152.27 C 171.06 151.66 171.26 150.49 170.65 149.64 L 170.09 148.86 C 169.49 148.01 168.31 147.81 167.46 148.41 C 166.62 149.02 166.42 150.20 167.02 151.04 Z M 167.51 151.72 L 168.02 152.55 C 168.56 153.44 169.72 153.71 170.61 153.17 C 171.50 152.63 171.78 151.47 171.23 150.58 L 170.73 149.75 C 170.18 148.86 169.02 148.58 168.13 149.13 C 167.24 149.67 166.97 150.83 167.51 151.72 Z M 167.95 152.42 L 168.40 153.30 C 168.87 154.23 170.01 154.60 170.94 154.12 C 171.86 153.65 172.23 152.51 171.76 151.59 L 171.31 150.70 C 170.83 149.78 169.70 149.41 168.77 149.88 C 167.84 150.36 167.47 151.49 167.95 152.42 Z M 168.33 153.16 L 168.72 154.11 C 169.11 155.07 170.22 155.53 171.18 155.13 C 172.14 154.74 172.60 153.64 172.21 152.67 L 171.82 151.73 C 171.43 150.77 170.33 150.31 169.36 150.70 C 168.40 151.10 167.94 152.20 168.33 153.16 Z M 168.66 153.95 L 168.98 154.97 C 169.29 155.96 170.35 156.51 171.34 156.20 C 172.34 155.89 172.89 154.84 172.58 153.84 L 172.26 152.83 C 171.95 151.83 170.90 151.28 169.90 151.59 C 168.91 151.90 168.35 152.96 168.66 153.95 Z M 168.94 154.82 L 169.16 155.79 C 169.39 156.81 170.40 157.44 171.41 157.21 C 172.43 156.99 173.07 155.98 172.84 154.96 L 172.62 153.99 C 172.39 152.97 171.38 152.34 170.37 152.56 C 169.35 152.79 168.71 153.80 168.94 154.82 Z M 169.14 155.66 L 169.29 156.66 C 169.45 157.69 170.41 158.39 171.44 158.23 C 172.47 158.07 173.18 157.11 173.02 156.08 L 172.86 155.09 C 172.70 154.06 171.74 153.35 170.71 153.51 C 169.68 153.67 168.98 154.63 169.14 155.66 Z M 169.28 156.55 L 169.37 157.57 C 169.47 158.60 170.39 159.37 171.43 159.27 C 172.46 159.17 173.23 158.25 173.13 157.21 L 173.03 156.19 C 172.93 155.16 172.01 154.40 170.98 154.49 C 169.94 154.59 169.18 155.51 169.28 156.55 Z M 169.37 157.46 L 169.41 158.49 C 169.45 159.53 170.32 160.34 171.37 160.30 C 172.41 160.26 173.22 159.38 173.17 158.34 L 173.13 157.32 C 173.09 156.28 172.22 155.47 171.18 155.51 C 170.14 155.55 169.33 156.42 169.37 157.46 Z M 169.41 158.39 L 169.39 159.41 C 169.38 160.45 170.21 161.30 171.25 161.32 C 172.29 161.33 173.15 160.50 173.16 159.46 L 173.18 158.44 C 173.19 157.40 172.36 156.55 171.32 156.53 C 170.28 156.52 169.42 157.35 169.41 158.39 Z M 169.40 159.30 L 169.33 160.29 C 169.26 161.33 170.04 162.23 171.08 162.30 C 172.12 162.37 173.02 161.58 173.09 160.54 L 173.16 159.56 C 173.23 158.52 172.44 157.62 171.40 157.55 C 170.37 157.48 169.47 158.26 169.40 159.30 Z M 169.34 160.18 L 169.22 161.15 C 169.08 162.18 169.81 163.13 170.85 163.26 C 171.88 163.39 172.82 162.66 172.95 161.63 L 173.08 160.65 C 173.21 159.62 172.48 158.68 171.45 158.55 C 170.42 158.41 169.47 159.14 169.34 160.18 Z M 169.24 161.01 L 169.02 162.06 C 168.82 163.08 169.48 164.07 170.50 164.28 C 171.52 164.49 172.51 163.83 172.72 162.81 L 172.93 161.76 C 173.14 160.74 172.48 159.75 171.46 159.54 C 170.44 159.33 169.45 159.99 169.24 161.01 Z M 169.06 161.91 L 168.78 162.88 C 168.49 163.87 169.06 164.92 170.06 165.21 C 171.06 165.51 172.11 164.93 172.40 163.93 L 172.68 162.96 C 172.97 161.96 172.40 160.92 171.40 160.63 C 170.40 160.33 169.36 160.91 169.06 161.91 Z M 168.83 162.73 L 168.48 163.64 C 168.10 164.61 168.59 165.70 169.56 166.07 C 170.53 166.45 171.62 165.96 171.99 164.99 L 172.35 164.08 C 172.72 163.11 172.24 162.02 171.27 161.65 C 170.30 161.27 169.21 161.76 168.83 162.73 Z M 168.54 163.50 L 168.12 164.36 C 167.67 165.30 168.07 166.43 169.00 166.88 C 169.94 167.33 171.07 166.94 171.52 166.00 L 171.93 165.13 C 172.39 164.19 171.99 163.07 171.05 162.62 C 170.12 162.17 168.99 162.56 168.54 163.50 Z M 168.19 164.25 L 167.71 165.08 C 167.19 165.99 167.50 167.14 168.41 167.65 C 169.31 168.17 170.46 167.86 170.98 166.95 L 171.45 166.12 C 171.97 165.21 171.66 164.06 170.75 163.55 C 169.85 163.03 168.70 163.34 168.19 164.25 Z M 167.76 164.99 L 167.24 165.80 C 166.67 166.67 166.92 167.84 167.79 168.40 C 168.66 168.97 169.82 168.73 170.39 167.85 L 170.92 167.05 C 171.49 166.18 171.24 165.01 170.37 164.44 C 169.50 163.87 168.33 164.12 167.76 164.99 Z M 167.29 165.73 L 166.72 166.52 C 166.11 167.36 166.30 168.54 167.14 169.15 C 167.98 169.75 169.16 169.56 169.77 168.72 L 170.34 167.93 C 170.95 167.09 170.76 165.91 169.92 165.30 C 169.07 164.69 167.90 164.88 167.29 165.73 Z M 166.76 166.46 L 166.15 167.24 C 165.51 168.06 165.65 169.24 166.47 169.88 C 167.28 170.52 168.46 170.38 169.11 169.57 L 169.72 168.78 C 170.36 167.96 170.22 166.78 169.40 166.14 C 168.59 165.50 167.40 165.64 166.76 166.46 Z M 166.19 167.19 L 165.54 167.97 C 164.87 168.76 164.97 169.95 165.77 170.62 C 166.56 171.28 167.75 171.18 168.41 170.39 L 169.06 169.61 C 169.73 168.82 169.63 167.63 168.84 166.97 C 168.04 166.30 166.86 166.40 166.19 167.19 Z M 165.57 167.93 L 164.89 168.69 C 164.20 169.47 164.27 170.65 165.05 171.34 C 165.82 172.03 167.01 171.96 167.70 171.19 L 168.38 170.43 C 169.07 169.65 169.00 168.47 168.22 167.78 C 167.45 167.09 166.26 167.15 165.57 167.93 Z M 164.92 168.66 L 164.23 169.41 C 163.52 170.17 163.56 171.35 164.32 172.06 C 165.08 172.77 166.26 172.73 166.97 171.97 L 167.67 171.22 C 168.38 170.46 168.34 169.28 167.58 168.57 C 166.82 167.86 165.63 167.90 164.92 168.66 Z M 164.25 169.38 L 163.55 170.11 C 162.83 170.85 162.84 172.04 163.59 172.76 C 164.33 173.48 165.52 173.47 166.24 172.72 L 166.94 172.00 C 167.67 171.25 167.65 170.07 166.91 169.34 C 166.16 168.62 164.97 168.64 164.25 169.38 Z M 163.58 170.08 L 162.86 170.79 C 162.12 171.51 162.11 172.70 162.84 173.44 C 163.57 174.18 164.76 174.19 165.49 173.46 L 166.21 172.75 C 166.95 172.02 166.96 170.84 166.23 170.10 C 165.50 169.36 164.32 169.35 163.58 170.08 Z M 162.89 170.76 L 162.16 171.44 C 161.41 172.15 161.37 173.34 162.08 174.09 C 162.79 174.85 163.97 174.88 164.73 174.18 L 165.46 173.49 C 166.21 172.78 166.25 171.59 165.54 170.84 C 164.83 170.09 163.65 170.05 162.89 170.76 Z M 162.20 171.41 L 161.46 172.07 C 160.68 172.76 160.61 173.94 161.30 174.72 C 161.99 175.49 163.17 175.56 163.94 174.87 L 164.69 174.21 C 165.46 173.52 165.53 172.34 164.84 171.57 C 164.16 170.79 162.97 170.72 162.20 171.41 Z M 161.50 172.04 L 160.74 172.67 C 159.95 173.33 159.84 174.51 160.50 175.31 C 161.17 176.10 162.35 176.21 163.14 175.54 L 163.90 174.91 C 164.69 174.25 164.80 173.07 164.14 172.27 C 163.47 171.48 162.29 171.37 161.50 172.04 Z M 160.79 172.63 L 160.01 173.24 C 159.20 173.87 159.05 175.05 159.69 175.86 C 160.32 176.68 161.50 176.82 162.31 176.19 L 163.09 175.58 C 163.91 174.95 164.05 173.77 163.42 172.96 C 162.78 172.14 161.61 172.00 160.79 172.63 Z M 160.07 173.19 L 159.27 173.77 C 158.44 174.37 158.25 175.54 158.85 176.38 C 159.45 177.22 160.62 177.41 161.46 176.80 L 162.26 176.23 C 163.09 175.62 163.28 174.46 162.68 173.62 C 162.08 172.78 160.91 172.59 160.07 173.19 Z M 159.34 173.73 L 158.52 174.27 C 157.66 174.84 157.42 176.00 157.99 176.86 C 158.56 177.72 159.71 177.95 160.57 177.39 L 161.39 176.84 C 162.25 176.28 162.49 175.12 161.92 174.26 C 161.36 173.40 160.20 173.16 159.34 173.73 Z M 158.59 174.23 L 157.74 174.74 C 156.85 175.27 156.57 176.42 157.10 177.30 C 157.63 178.18 158.77 178.47 159.66 177.94 L 160.51 177.43 C 161.39 176.90 161.67 175.75 161.14 174.87 C 160.61 173.99 159.47 173.70 158.59 174.23 Z M 157.81 174.70 L 156.92 175.18 C 156.02 175.67 155.68 176.80 156.17 177.71 C 156.67 178.61 157.80 178.95 158.70 178.46 L 159.58 177.98 C 160.49 177.48 160.82 176.35 160.33 175.45 C 159.84 174.55 158.71 174.21 157.81 174.70 Z M 157.00 175.15 L 156.07 175.60 C 155.15 176.05 154.76 177.16 155.21 178.08 C 155.66 179.01 156.78 179.39 157.70 178.94 L 158.63 178.49 C 159.55 178.04 159.93 176.93 159.48 176.00 C 159.03 175.08 157.92 174.70 157.00 175.15 Z M 156.14 175.57 L 155.23 175.96 C 154.29 176.37 153.86 177.47 154.27 178.41 C 154.68 179.35 155.78 179.78 156.72 179.37 L 157.63 178.97 C 158.57 178.56 159.00 177.47 158.59 176.53 C 158.18 175.59 157.08 175.16 156.14 175.57 Z M 155.30 175.94 L 154.38 176.30 C 153.42 176.67 152.95 177.74 153.32 178.70 C 153.69 179.65 154.77 180.13 155.72 179.75 L 156.65 179.39 C 157.60 179.02 158.07 177.95 157.70 176.99 C 157.33 176.04 156.26 175.57 155.30 175.94 Z M 154.45 176.28 L 153.49 176.60 C 152.53 176.94 152.01 177.99 152.34 178.95 C 152.68 179.92 153.73 180.44 154.70 180.10 L 155.65 179.78 C 156.62 179.45 157.13 178.39 156.80 177.43 C 156.47 176.46 155.41 175.94 154.45 176.28 Z M 153.57 176.58 L 152.60 176.87 C 151.62 177.16 151.06 178.19 151.35 179.17 C 151.64 180.14 152.67 180.70 153.65 180.41 L 154.62 180.12 C 155.60 179.84 156.16 178.81 155.87 177.83 C 155.58 176.85 154.55 176.29 153.57 176.58 Z M 152.68 176.85 L 151.70 177.09 C 150.71 177.34 150.11 178.34 150.36 179.33 C 150.60 180.32 151.60 180.92 152.59 180.67 L 153.57 180.43 C 154.56 180.19 155.16 179.19 154.91 178.20 C 154.67 177.21 153.67 176.61 152.68 176.85 Z M 151.79 177.08 L 150.81 177.27 C 149.82 177.46 149.17 178.43 149.36 179.43 C 149.56 180.43 150.52 181.08 151.52 180.88 L 152.50 180.69 C 153.50 180.50 154.15 179.53 153.95 178.53 C 153.76 177.53 152.79 176.88 151.79 177.08 Z M 150.92 177.26 L 149.94 177.39 C 148.93 177.53 148.23 178.46 148.37 179.46 C 148.51 180.47 149.43 181.17 150.44 181.03 L 151.42 180.89 C 152.42 180.76 153.12 179.83 152.99 178.82 C 152.85 177.82 151.92 177.12 150.92 177.26 Z M 150.06 177.38 L 149.09 177.45 C 148.07 177.52 147.31 178.39 147.38 179.40 C 147.45 180.41 148.33 181.18 149.34 181.11 L 150.31 181.04 C 151.32 180.97 152.09 180.09 152.02 179.08 C 151.95 178.07 151.07 177.31 150.06 177.38 Z M 149.24 177.45 L 148.26 177.43 C 147.25 177.42 146.42 178.23 146.41 179.24 C 146.40 180.25 147.20 181.08 148.22 181.09 L 149.19 181.11 C 150.20 181.12 151.03 180.31 151.04 179.30 C 151.06 178.29 150.25 177.46 149.24 177.45 Z M 148.44 177.45 L 147.46 177.34 C 146.46 177.23 145.56 177.96 145.45 178.96 C 145.34 179.97 146.07 180.87 147.07 180.98 L 148.04 181.08 C 149.05 181.19 149.95 180.46 150.06 179.46 C 150.17 178.46 149.44 177.56 148.44 177.45 Z M 147.65 177.37 L 146.67 177.16 C 145.69 176.95 144.72 177.58 144.50 178.57 C 144.29 179.55 144.92 180.52 145.91 180.73 L 146.88 180.94 C 147.87 181.15 148.84 180.53 149.05 179.54 C 149.26 178.56 148.63 177.59 147.65 177.37 Z M 146.86 177.22 L 145.87 176.89 C 144.91 176.58 143.88 177.10 143.57 178.05 C 143.25 179.01 143.77 180.04 144.73 180.35 L 145.72 180.68 C 146.67 180.99 147.70 180.47 148.02 179.52 C 148.33 178.56 147.81 177.53 146.86 177.22 Z M 146.03 176.96 L 145.16 176.58 C 144.24 176.17 143.17 176.58 142.76 177.50 C 142.36 178.42 142.77 179.49 143.69 179.89 L 144.56 180.28 C 145.48 180.68 146.55 180.27 146.95 179.36 C 147.36 178.44 146.95 177.37 146.03 176.96 Z M 145.27 176.65 L 144.46 176.22 C 143.59 175.75 142.50 176.08 142.03 176.95 C 141.56 177.82 141.89 178.91 142.77 179.38 L 143.57 179.82 C 144.45 180.28 145.53 179.96 146.00 179.08 C 146.47 178.21 146.14 177.12 145.27 176.65 Z M 144.54 176.29 L 143.72 175.79 C 142.89 175.28 141.80 175.54 141.29 176.38 C 140.77 177.21 141.04 178.30 141.87 178.81 L 142.69 179.31 C 143.52 179.82 144.62 179.56 145.13 178.73 C 145.64 177.89 145.38 176.80 144.54 176.29 Z M 143.78 175.85 L 142.95 175.29 C 142.15 174.75 141.06 174.97 140.52 175.77 C 139.98 176.57 140.19 177.66 141.00 178.20 L 141.82 178.75 C 142.62 179.29 143.71 179.08 144.25 178.28 C 144.79 177.48 144.58 176.39 143.78 175.85 Z M 142.99 175.34 L 142.16 174.75 C 141.38 174.19 140.30 174.36 139.74 175.14 C 139.18 175.91 139.36 176.99 140.13 177.55 L 140.96 178.15 C 141.74 178.71 142.82 178.53 143.38 177.76 C 143.94 176.98 143.76 175.90 142.99 175.34 Z M 142.17 174.79 L 141.34 174.16 C 140.59 173.59 139.52 173.73 138.95 174.49 C 138.38 175.24 138.53 176.31 139.28 176.88 L 140.11 177.51 C 140.87 178.08 141.94 177.93 142.51 177.18 C 143.08 176.43 142.93 175.36 142.17 174.79 Z M 141.35 174.19 L 140.51 173.53 C 139.77 172.96 138.71 173.09 138.14 173.83 C 137.57 174.56 137.70 175.62 138.44 176.20 L 139.27 176.85 C 140.01 177.42 141.07 177.29 141.64 176.56 C 142.21 175.82 142.08 174.76 141.35 174.19 Z M 140.51 173.56 L 139.67 172.90 C 138.95 172.33 137.90 172.45 137.33 173.17 C 136.76 173.89 136.88 174.94 137.60 175.51 L 138.44 176.17 C 139.16 176.74 140.21 176.62 140.78 175.90 C 141.35 175.18 141.23 174.13 140.51 173.56 Z"
      fill="black"
      fill-rule="nonzero" /></svg>