<svg xmlns="http://www.w3.org/2000/svg" width="300" height="300" viewBox="0 0 300 300">
<path d="M 139.41 138.33 L 138.41 138.53 C 137.51 138.71 136.94 139.58 137.12 140.47 C 137.30 141.37 138.17 141.94 139.06 141.76 L 140.06 141.56 C 140.96 141.38 141.53 140.51 141.35 139.62 C 141.17 138.73 140.30 138.15 139.41 138.33 Z M 138.39 138.52 L 137.39 138.73 C 136.49 138.92 135.92 139.80 136.11 140.70 C 136.30 141.60 137.18 142.17 138.08 141.98 L 139.08 141.77 C 139.97 141.58 140.55 140.70 140.36 139.80 C 140.17 138.91 139.29 138.33 138.39 138.52 Z M 137.35 138.73 L 136.37 138.96 C 135.47 139.16 134.90 140.06 135.11 140.96 C 135.32 141.87 136.22 142.43 137.12 142.22 L 138.11 141.99 C 139.01 141.78 139.57 140.88 139.36 139.98 C 139.16 139.08 138.26 138.52 137.35 138.73 Z M 136.32 138.95 L 135.35 139.21 C 134.45 139.44 133.91 140.37 134.14 141.27 C 134.38 142.17 135.30 142.71 136.21 142.47 L 137.17 142.22 C 138.08 141.98 138.61 141.06 138.38 140.16 C 138.14 139.26 137.22 138.72 136.32 138.95 Z M 135.28 139.21 L 134.34 139.50 C 133.44 139.78 132.93 140.73 133.21 141.63 C 133.48 142.53 134.43 143.03 135.33 142.76 L 136.27 142.47 C 137.17 142.19 137.68 141.24 137.40 140.34 C 137.13 139.45 136.18 138.94 135.28 139.21 Z M 134.25 139.52 L 133.34 139.85 C 132.45 140.17 131.99 141.16 132.31 142.05 C 132.63 142.94 133.62 143.40 134.51 143.07 L 135.42 142.74 C 136.31 142.42 136.77 141.43 136.44 140.54 C 136.12 139.65 135.14 139.19 134.25 139.52 Z M 133.23 139.88 L 132.31 140.28 C 131.44 140.66 131.04 141.68 131.42 142.56 C 131.81 143.43 132.83 143.83 133.70 143.44 L 134.61 143.04 C 135.49 142.66 135.88 141.64 135.50 140.77 C 135.12 139.89 134.10 139.50 133.23 139.88 Z M 132.19 140.33 L 131.27 140.81 C 130.43 141.26 130.10 142.32 130.55 143.16 C 131.00 144.01 132.05 144.33 132.90 143.88 L 133.82 143.40 C 134.67 142.95 134.99 141.90 134.54 141.05 C 134.09 140.20 133.04 139.88 132.19 140.33 Z M 131.16 140.87 L 130.29 141.42 C 129.48 141.93 129.23 143.01 129.75 143.82 C 130.26 144.64 131.34 144.88 132.15 144.37 L 133.02 143.83 C 133.83 143.31 134.08 142.24 133.57 141.42 C 133.05 140.60 131.98 140.36 131.16 140.87 Z M 130.19 141.48 L 129.38 142.07 C 128.60 142.64 128.43 143.74 129.00 144.52 C 129.57 145.30 130.67 145.47 131.45 144.90 L 132.26 144.31 C 133.04 143.74 133.21 142.64 132.64 141.86 C 132.07 141.08 130.97 140.90 130.19 141.48 Z M 129.28 142.13 L 128.53 142.77 C 127.78 143.39 127.68 144.51 128.31 145.25 C 128.94 146.00 130.05 146.09 130.80 145.47 L 131.55 144.83 C 132.29 144.21 132.39 143.10 131.76 142.35 C 131.14 141.61 130.03 141.51 129.28 142.13 Z M 128.44 142.84 L 127.74 143.50 C 127.04 144.18 127.01 145.30 127.69 146.01 C 128.36 146.71 129.49 146.74 130.19 146.06 L 130.89 145.40 C 131.59 144.72 131.62 143.60 130.94 142.89 C 130.26 142.18 129.14 142.16 128.44 142.84 Z M 127.66 143.58 L 127.00 144.29 C 126.34 145.02 126.39 146.14 127.11 146.81 C 127.83 147.47 128.96 147.42 129.62 146.70 L 130.28 145.98 C 130.94 145.26 130.89 144.13 130.17 143.47 C 129.45 142.80 128.32 142.85 127.66 143.58 Z M 126.92 144.39 L 126.31 145.15 C 125.69 145.92 125.82 147.05 126.60 147.66 C 127.37 148.27 128.49 148.14 129.10 147.37 L 129.71 146.60 C 130.32 145.83 130.19 144.71 129.42 144.10 C 128.65 143.48 127.53 143.61 126.92 144.39 Z M 126.22 145.27 L 125.68 146.07 C 125.13 146.89 125.35 148.00 126.17 148.55 C 126.99 149.10 128.10 148.88 128.65 148.06 L 129.19 147.26 C 129.74 146.44 129.52 145.33 128.70 144.78 C 127.88 144.23 126.77 144.45 126.22 145.27 Z M 125.60 146.20 L 125.12 147.06 C 124.64 147.93 124.96 149.02 125.82 149.49 C 126.69 149.97 127.78 149.66 128.26 148.79 L 128.73 147.94 C 129.21 147.07 128.89 145.98 128.03 145.50 C 127.16 145.02 126.08 145.34 125.60 146.20 Z M 125.05 147.20 L 124.64 148.12 C 124.24 149.02 124.64 150.08 125.55 150.49 C 126.45 150.89 127.51 150.48 127.91 149.58 L 128.33 148.66 C 128.73 147.75 128.32 146.69 127.42 146.29 C 126.52 145.89 125.45 146.29 125.05 147.20 Z M 124.58 148.25 L 124.23 149.25 C 123.90 150.19 124.40 151.21 125.33 151.54 C 126.27 151.87 127.29 151.38 127.62 150.44 L 127.97 149.45 C 128.30 148.51 127.81 147.48 126.87 147.16 C 125.94 146.83 124.91 147.32 124.58 148.25 Z M 124.19 149.37 L 123.95 150.26 C 123.68 151.22 124.24 152.21 125.20 152.48 C 126.16 152.74 127.15 152.18 127.41 151.22 L 127.66 150.33 C 127.92 149.37 127.36 148.38 126.41 148.11 C 125.45 147.85 124.46 148.41 124.19 149.37 Z M 123.92 150.36 L 123.72 151.31 C 123.51 152.28 124.13 153.24 125.10 153.45 C 126.07 153.66 127.03 153.04 127.23 152.07 L 127.44 151.12 C 127.65 150.15 127.03 149.19 126.06 148.98 C 125.09 148.78 124.13 149.39 123.92 150.36 Z M 123.70 151.40 L 123.54 152.39 C 123.38 153.37 124.05 154.29 125.03 154.45 C 126.02 154.60 126.94 153.94 127.10 152.95 L 127.25 151.97 C 127.41 150.99 126.74 150.07 125.76 149.91 C 124.78 149.75 123.85 150.42 123.70 151.40 Z M 123.53 152.48 L 123.42 153.49 C 123.31 154.48 124.03 155.37 125.02 155.47 C 126.01 155.58 126.90 154.86 127.00 153.87 L 127.11 152.86 C 127.22 151.87 126.50 150.98 125.51 150.88 C 124.52 150.77 123.63 151.49 123.53 152.48 Z M 123.41 153.58 L 123.36 154.61 C 123.30 155.61 124.06 156.46 125.06 156.51 C 126.05 156.56 126.90 155.80 126.96 154.81 L 127.01 153.78 C 127.06 152.78 126.30 151.94 125.31 151.88 C 124.31 151.83 123.46 152.59 123.41 153.58 Z M 123.35 154.71 L 123.35 155.75 C 123.35 156.74 124.16 157.55 125.16 157.55 C 126.15 157.55 126.96 156.74 126.96 155.75 L 126.96 154.71 C 126.96 153.72 126.15 152.91 125.16 152.91 C 124.16 152.91 123.35 153.72 123.35 154.71 Z M 123.35 155.85 L 123.41 156.89 C 123.47 157.88 124.32 158.64 125.32 158.59 C 126.31 158.53 127.07 157.68 127.02 156.68 L 126.96 155.65 C 126.90 154.65 126.05 153.89 125.05 153.95 C 124.06 154.00 123.30 154.86 123.35 155.85 Z M 123.42 157.00 L 123.55 158.03 C 123.66 159.02 124.56 159.72 125.55 159.60 C 126.54 159.49 127.25 158.59 127.13 157.60 L 127.01 156.57 C 126.89 155.58 125.99 154.87 125.00 154.99 C 124.01 155.11 123.30 156.01 123.42 157.00 Z M 123.57 158.16 L 123.76 159.16 C 123.95 160.14 124.90 160.78 125.87 160.59 C 126.85 160.40 127.49 159.45 127.30 158.47 L 127.11 157.47 C 126.92 156.49 125.97 155.85 124.99 156.04 C 124.02 156.23 123.38 157.18 123.57 158.16 Z M 123.79 159.30 L 124.07 160.27 C 124.34 161.23 125.33 161.79 126.29 161.52 C 127.25 161.25 127.81 160.25 127.54 159.29 L 127.27 158.33 C 127.00 157.37 126.00 156.81 125.04 157.08 C 124.08 157.35 123.52 158.35 123.79 159.30 Z M 124.12 160.44 L 124.48 161.36 C 124.84 162.28 125.88 162.75 126.81 162.39 C 127.74 162.02 128.20 160.98 127.84 160.05 L 127.49 159.13 C 127.13 158.20 126.08 157.74 125.15 158.10 C 124.22 158.46 123.76 159.51 124.12 160.44 Z M 124.56 161.54 L 125.01 162.40 C 125.47 163.28 126.56 163.63 127.44 163.17 C 128.33 162.70 128.67 161.61 128.21 160.73 L 127.76 159.87 C 127.30 158.99 126.21 158.64 125.33 159.10 C 124.44 159.56 124.10 160.65 124.56 161.54 Z M 125.13 162.59 L 125.67 163.38 C 126.24 164.20 127.36 164.41 128.18 163.84 C 129.00 163.28 129.21 162.15 128.64 161.33 L 128.09 160.54 C 127.53 159.72 126.40 159.51 125.58 160.08 C 124.76 160.65 124.56 161.77 125.13 162.59 Z M 125.82 163.57 L 126.43 164.24 C 127.10 164.98 128.24 165.04 128.98 164.37 C 129.72 163.70 129.78 162.56 129.11 161.82 L 128.49 161.15 C 127.83 160.41 126.68 160.35 125.95 161.02 C 125.21 161.69 125.15 162.83 125.82 163.57 Z M 126.59 164.40 L 127.29 165.00 C 128.04 165.64 129.18 165.56 129.83 164.80 C 130.48 164.04 130.39 162.90 129.64 162.25 L 128.94 161.66 C 128.19 161.01 127.05 161.10 126.40 161.86 C 125.75 162.61 125.84 163.75 126.59 164.40 Z M 127.45 165.12 L 128.23 165.65 C 129.06 166.20 130.18 165.98 130.74 165.16 C 131.29 164.33 131.07 163.21 130.25 162.65 L 129.47 162.13 C 128.64 161.57 127.52 161.79 126.96 162.62 C 126.41 163.44 126.63 164.57 127.45 165.12 Z M 128.39 165.74 L 129.26 166.20 C 130.14 166.67 131.23 166.33 131.70 165.45 C 132.16 164.57 131.83 163.48 130.94 163.01 L 130.08 162.55 C 129.20 162.09 128.11 162.42 127.64 163.30 C 127.18 164.19 127.51 165.28 128.39 165.74 Z M 129.41 166.27 L 130.35 166.66 C 131.28 167.04 132.33 166.60 132.71 165.68 C 133.09 164.76 132.65 163.70 131.73 163.32 L 130.79 162.94 C 129.87 162.56 128.81 163.00 128.43 163.92 C 128.05 164.84 128.49 165.89 129.41 166.27 Z M 130.50 166.71 L 131.52 167.04 C 132.47 167.34 133.48 166.81 133.78 165.86 C 134.08 164.91 133.55 163.89 132.60 163.59 L 131.58 163.27 C 130.63 162.97 129.62 163.50 129.32 164.45 C 129.02 165.40 129.55 166.42 130.50 166.71 Z M 131.65 167.07 L 132.74 167.33 C 133.71 167.55 134.69 166.95 134.91 165.98 C 135.14 165.01 134.53 164.04 133.56 163.81 L 132.47 163.56 C 131.50 163.33 130.53 163.93 130.30 164.90 C 130.08 165.88 130.68 166.85 131.65 167.07 Z M 132.86 167.35 L 133.89 167.52 C 134.87 167.69 135.80 167.02 135.96 166.03 C 136.13 165.05 135.46 164.12 134.48 163.96 L 133.45 163.79 C 132.46 163.62 131.53 164.29 131.37 165.27 C 131.21 166.26 131.87 167.19 132.86 167.35 Z M 133.98 167.54 L 134.99 167.65 C 135.99 167.76 136.88 167.05 137.00 166.06 C 137.11 165.06 136.39 164.17 135.40 164.05 L 134.38 163.94 C 133.39 163.83 132.49 164.54 132.38 165.54 C 132.27 166.53 132.99 167.43 133.98 167.54 Z M 135.08 167.66 L 136.12 167.73 C 137.12 167.80 137.98 167.04 138.04 166.04 C 138.11 165.04 137.35 164.18 136.35 164.11 L 135.31 164.04 C 134.31 163.98 133.45 164.74 133.39 165.74 C 133.32 166.74 134.08 167.60 135.08 167.66 Z M 136.20 167.74 L 137.24 167.76 C 138.25 167.78 139.08 166.98 139.10 165.98 C 139.12 164.97 138.32 164.14 137.32 164.12 L 136.27 164.10 C 135.27 164.08 134.44 164.88 134.42 165.88 C 134.40 166.89 135.19 167.72 136.20 167.74 Z M 137.32 167.76 L 138.36 167.74 C 139.37 167.71 140.16 166.88 140.14 165.87 C 140.11 164.87 139.28 164.07 138.27 164.09 L 137.23 164.12 C 136.23 164.14 135.43 164.98 135.46 165.99 C 135.48 166.99 136.32 167.79 137.32 167.76 Z M 138.45 167.74 L 139.46 167.67 C 140.47 167.59 141.22 166.72 141.15 165.72 C 141.08 164.71 140.21 163.95 139.20 164.02 L 138.19 164.09 C 137.18 164.17 136.42 165.04 136.50 166.05 C 136.57 167.05 137.44 167.81 138.45 167.74 Z M 139.55 167.66 L 140.53 167.54 C 141.53 167.42 142.25 166.51 142.13 165.51 C 142.00 164.50 141.09 163.79 140.09 163.91 L 139.11 164.03 C 138.11 164.15 137.39 165.06 137.52 166.06 C 137.64 167.07 138.55 167.78 139.55 167.66 Z M 140.63 167.53 L 141.55 167.37 C 142.55 167.19 143.21 166.24 143.04 165.24 C 142.86 164.24 141.91 163.58 140.91 163.76 L 139.99 163.92 C 138.99 164.10 138.33 165.05 138.50 166.05 C 138.68 167.05 139.63 167.71 140.63 167.53 Z M 141.68 167.34 L 142.59 167.12 C 143.58 166.87 144.17 165.87 143.93 164.89 C 143.68 163.90 142.68 163.30 141.70 163.55 L 140.79 163.78 C 139.80 164.02 139.20 165.02 139.45 166.01 C 139.69 166.99 140.69 167.59 141.68 167.34 Z M 142.76 167.07 L 143.73 166.73 C 144.69 166.39 145.20 165.34 144.86 164.38 C 144.52 163.42 143.47 162.92 142.51 163.25 L 141.53 163.60 C 140.58 163.93 140.07 164.98 140.41 165.94 C 140.74 166.90 141.80 167.41 142.76 167.07 Z M 143.93 166.65 L 144.80 166.23 C 145.72 165.78 146.10 164.68 145.66 163.76 C 145.22 162.85 144.11 162.46 143.20 162.91 L 142.32 163.33 C 141.40 163.77 141.02 164.88 141.46 165.79 C 141.90 166.71 143.01 167.09 143.93 166.65 Z M 144.99 166.13 L 145.79 165.62 C 146.65 165.07 146.90 163.93 146.36 163.07 C 145.81 162.21 144.67 161.95 143.81 162.50 L 143.01 163.01 C 142.15 163.55 141.89 164.70 142.44 165.56 C 142.98 166.42 144.13 166.68 144.99 166.13 Z M 145.95 165.51 L 146.69 164.92 C 147.50 164.28 147.63 163.11 146.99 162.31 C 146.35 161.51 145.19 161.38 144.39 162.02 L 143.64 162.61 C 142.84 163.25 142.71 164.41 143.35 165.21 C 143.99 166.01 145.15 166.15 145.95 165.51 Z M 146.82 164.81 L 147.54 164.13 C 148.28 163.42 148.30 162.25 147.60 161.50 C 146.89 160.76 145.71 160.74 144.97 161.44 L 144.26 162.13 C 143.52 162.83 143.49 164.01 144.20 164.75 C 144.91 165.49 146.08 165.52 146.82 164.81 Z M 147.63 164.04 L 148.33 163.27 C 149.03 162.51 148.97 161.33 148.22 160.64 C 147.46 159.95 146.28 160.00 145.59 160.76 L 144.88 161.53 C 144.19 162.29 144.24 163.47 145.00 164.16 C 145.76 164.85 146.93 164.80 147.63 164.04 Z M 148.39 163.21 L 149.03 162.45 C 149.69 161.66 149.58 160.48 148.79 159.82 C 148.00 159.16 146.83 159.27 146.17 160.06 L 145.53 160.82 C 144.87 161.61 144.98 162.78 145.77 163.44 C 146.56 164.10 147.73 164.00 148.39 163.21 Z M 149.07 162.41 L 149.67 161.65 C 150.31 160.83 150.17 159.66 149.36 159.02 C 148.55 158.38 147.37 158.52 146.73 159.33 L 146.13 160.10 C 145.49 160.91 145.63 162.08 146.44 162.72 C 147.25 163.36 148.43 163.22 149.07 162.41 Z M 149.70 161.61 L 150.31 160.80 C 150.93 159.97 150.76 158.80 149.93 158.18 C 149.10 157.56 147.92 157.72 147.30 158.55 L 146.70 159.36 C 146.08 160.19 146.24 161.37 147.07 161.99 C 147.90 162.61 149.08 162.44 149.70 161.61 Z M 150.34 160.77 L 150.94 159.93 C 151.54 159.09 151.35 157.91 150.50 157.31 C 149.65 156.70 148.48 156.90 147.87 157.74 L 147.27 158.58 C 146.67 159.43 146.86 160.61 147.71 161.21 C 148.56 161.82 149.73 161.62 150.34 160.77 Z M 150.97 159.90 L 151.55 159.05 C 152.14 158.19 151.92 157.01 151.06 156.42 C 150.20 155.83 149.02 156.05 148.43 156.92 L 147.85 157.77 C 147.26 158.63 147.48 159.81 148.34 160.40 C 149.20 160.99 150.38 160.77 150.97 159.90 Z M 151.58 159.02 L 152.14 158.15 C 152.72 157.28 152.47 156.10 151.59 155.53 C 150.72 154.96 149.54 155.20 148.97 156.08 L 148.41 156.94 C 147.83 157.82 148.08 159.00 148.96 159.57 C 149.83 160.14 151.01 159.89 151.58 159.02 Z M 152.17 158.12 L 152.70 157.27 C 153.26 156.37 152.99 155.20 152.09 154.65 C 151.20 154.09 150.03 154.36 149.47 155.26 L 148.94 156.11 C 148.39 157.00 148.66 158.18 149.55 158.73 C 150.44 159.29 151.62 159.01 152.17 158.12 Z M 152.73 157.23 L 153.23 156.40 C 153.76 155.49 153.46 154.32 152.55 153.78 C 151.64 153.25 150.47 153.55 149.94 154.46 L 149.45 155.29 C 148.91 156.20 149.21 157.37 150.12 157.90 C 151.03 158.44 152.20 158.14 152.73 157.23 Z M 153.26 156.35 L 153.78 155.40 C 154.29 154.47 153.96 153.31 153.03 152.80 C 152.10 152.29 150.94 152.62 150.43 153.55 L 149.91 154.50 C 149.40 155.43 149.73 156.59 150.66 157.10 C 151.58 157.61 152.75 157.28 153.26 156.35 Z M 153.82 155.34 L 154.32 154.35 C 154.80 153.41 154.42 152.25 153.47 151.77 C 152.52 151.30 151.37 151.68 150.89 152.62 L 150.39 153.61 C 149.91 154.56 150.29 155.71 151.24 156.19 C 152.19 156.67 153.34 156.29 153.82 155.34 Z M 154.36 154.29 L 154.78 153.35 C 155.23 152.38 154.80 151.24 153.83 150.80 C 152.86 150.35 151.72 150.78 151.28 151.75 L 150.85 152.69 C 150.41 153.66 150.84 154.80 151.81 155.24 C 152.77 155.68 153.92 155.25 154.36 154.29 Z M 154.82 153.28 L 155.19 152.38 C 155.59 151.39 155.12 150.26 154.13 149.86 C 153.14 149.45 152.01 149.93 151.61 150.92 L 151.24 151.82 C 150.84 152.81 151.31 153.94 152.30 154.34 C 153.29 154.74 154.42 154.27 154.82 153.28 Z M 155.22 152.31 L 155.54 151.43 C 155.91 150.43 155.39 149.31 154.38 148.95 C 153.37 148.58 152.26 149.10 151.90 150.11 L 151.58 150.98 C 151.21 151.99 151.73 153.10 152.74 153.47 C 153.74 153.83 154.86 153.31 155.22 152.31 Z M 155.57 151.37 L 155.85 150.51 C 156.18 149.49 155.62 148.39 154.60 148.06 C 153.58 147.73 152.48 148.28 152.15 149.31 L 151.87 150.17 C 151.54 151.19 152.10 152.29 153.12 152.62 C 154.14 152.95 155.24 152.39 155.57 151.37 Z M 155.87 150.46 L 156.12 149.59 C 156.43 148.56 155.83 147.48 154.80 147.17 C 153.77 146.87 152.68 147.46 152.38 148.50 L 152.13 149.36 C 151.82 150.39 152.42 151.48 153.45 151.78 C 154.48 152.08 155.57 151.49 155.87 150.46 Z M 156.14 149.55 L 156.38 148.67 C 156.65 147.62 156.03 146.55 154.98 146.27 C 153.94 146.00 152.87 146.62 152.59 147.67 L 152.36 148.54 C 152.08 149.59 152.71 150.66 153.75 150.94 C 154.80 151.21 155.87 150.59 156.14 149.55 Z M 156.40 148.61 L 156.61 147.71 C 156.85 146.65 156.20 145.60 155.14 145.35 C 154.09 145.10 153.03 145.76 152.78 146.81 L 152.57 147.72 C 152.33 148.77 152.98 149.83 154.04 150.08 C 155.09 150.32 156.15 149.67 156.40 148.61 Z M 156.63 147.65 L 156.82 146.70 C 157.03 145.64 156.35 144.60 155.28 144.38 C 154.21 144.17 153.17 144.86 152.96 145.92 L 152.77 146.87 C 152.55 147.94 153.24 148.97 154.30 149.19 C 155.37 149.41 156.41 148.72 156.63 147.65 Z M 156.83 146.65 L 157.01 145.64 C 157.20 144.57 156.48 143.54 155.40 143.36 C 154.33 143.17 153.30 143.89 153.12 144.97 L 152.94 145.97 C 152.75 147.05 153.47 148.07 154.55 148.26 C 155.62 148.45 156.65 147.73 156.83 146.65 Z M 157.02 145.59 L 157.18 144.51 C 157.34 143.42 156.60 142.42 155.51 142.26 C 154.43 142.10 153.42 142.84 153.26 143.93 L 153.10 145.02 C 152.94 146.10 153.69 147.11 154.77 147.26 C 155.86 147.42 156.86 146.68 157.02 145.59 Z M 157.20 144.46 L 157.33 143.37 C 157.47 142.28 156.70 141.28 155.61 141.15 C 154.52 141.01 153.52 141.78 153.39 142.87 L 153.25 143.97 C 153.11 145.06 153.89 146.05 154.98 146.19 C 156.07 146.33 157.06 145.55 157.20 144.46 Z M 157.34 143.33 L 157.45 142.31 C 157.56 141.22 156.77 140.24 155.67 140.12 C 154.58 140.01 153.60 140.80 153.48 141.90 L 153.38 142.91 C 153.26 144.01 154.06 144.99 155.15 145.10 C 156.25 145.22 157.23 144.42 157.34 143.33 Z M 157.46 142.26 L 157.54 141.21 C 157.63 140.11 156.80 139.15 155.70 139.06 C 154.60 138.98 153.64 139.80 153.55 140.90 L 153.47 141.95 C 153.39 143.05 154.21 144.01 155.31 144.10 C 156.41 144.18 157.38 143.36 157.46 142.26 Z M 157.55 141.14 L 157.59 140.08 C 157.64 138.97 156.78 138.04 155.67 137.99 C 154.57 137.94 153.63 138.81 153.59 139.91 L 153.54 140.97 C 153.50 142.08 154.36 143.01 155.46 143.06 C 156.57 143.11 157.50 142.25 157.55 141.14 Z M 157.60 139.98 L 157.60 138.94 C 157.59 137.83 156.69 136.93 155.57 136.94 C 154.46 136.94 153.57 137.85 153.57 138.96 L 153.58 140.01 C 153.58 141.12 154.49 142.01 155.60 142.01 C 156.71 142.00 157.61 141.10 157.60 139.98 Z M 157.60 138.82 L 157.53 137.81 C 157.46 136.70 156.50 135.86 155.38 135.93 C 154.27 136.00 153.43 136.97 153.50 138.08 L 153.57 139.08 C 153.65 140.20 154.61 141.04 155.72 140.96 C 156.83 140.89 157.67 139.93 157.60 138.82 Z M 157.52 137.64 L 157.38 136.70 C 157.21 135.60 156.18 134.84 155.08 135.00 C 153.97 135.17 153.21 136.20 153.38 137.30 L 153.52 138.24 C 153.68 139.35 154.71 140.11 155.82 139.95 C 156.92 139.78 157.68 138.75 157.52 137.64 Z M 157.34 136.48 L 157.11 135.63 C 156.82 134.55 155.71 133.90 154.63 134.19 C 153.54 134.48 152.90 135.60 153.19 136.68 L 153.42 137.53 C 153.71 138.61 154.82 139.25 155.90 138.96 C 156.98 138.68 157.63 137.56 157.34 136.48 Z M 156.99 135.29 L 156.55 134.36 C 156.08 133.34 154.87 132.90 153.85 133.38 C 152.83 133.86 152.39 135.07 152.87 136.08 L 153.31 137.02 C 153.78 138.03 155.00 138.47 156.01 138.00 C 157.03 137.52 157.47 136.31 156.99 135.29 Z M 156.31 133.96 L 155.69 133.18 C 155.00 132.30 153.72 132.14 152.84 132.84 C 151.95 133.53 151.80 134.81 152.50 135.69 L 153.11 136.48 C 153.81 137.36 155.09 137.51 155.97 136.82 C 156.85 136.12 157.00 134.85 156.31 133.96 Z M 155.38 132.86 L 154.63 132.25 C 153.75 131.54 152.47 131.67 151.77 132.54 C 151.06 133.42 151.19 134.70 152.06 135.41 L 152.81 136.01 C 153.68 136.72 154.97 136.59 155.67 135.72 C 156.38 134.85 156.25 133.57 155.38 132.86 Z M 154.31 132.04 L 153.46 131.58 C 152.47 131.04 151.23 131.41 150.70 132.40 C 150.17 133.39 150.54 134.62 151.53 135.16 L 152.38 135.62 C 153.37 136.15 154.60 135.78 155.13 134.79 C 155.67 133.80 155.30 132.57 154.31 132.04 Z M 153.19 131.46 L 152.26 131.12 C 151.20 130.74 150.04 131.28 149.66 132.34 C 149.27 133.39 149.82 134.56 150.87 134.94 L 151.80 135.28 C 152.85 135.66 154.02 135.12 154.40 134.06 C 154.79 133.01 154.24 131.84 153.19 131.46 Z M 152.05 131.06 L 151.09 130.82 C 150.00 130.55 148.90 131.22 148.63 132.31 C 148.36 133.40 149.03 134.50 150.12 134.77 L 151.08 135.00 C 152.17 135.27 153.27 134.61 153.54 133.52 C 153.81 132.43 153.14 131.33 152.05 131.06 Z M 150.93 130.80 L 149.96 130.64 C 148.86 130.46 147.82 131.20 147.64 132.31 C 147.45 133.41 148.20 134.45 149.30 134.63 L 150.27 134.79 C 151.38 134.97 152.42 134.23 152.60 133.12 C 152.78 132.02 152.04 130.98 150.93 130.80 Z M 149.84 130.63 L 148.85 130.53 C 147.75 130.42 146.76 131.22 146.64 132.33 C 146.53 133.43 147.33 134.42 148.44 134.54 L 149.43 134.64 C 150.53 134.75 151.52 133.95 151.64 132.84 C 151.75 131.73 150.95 130.74 149.84 130.63 Z M 148.76 130.53 L 147.76 130.48 C 146.65 130.42 145.71 131.26 145.65 132.37 C 145.58 133.47 146.43 134.42 147.54 134.48 L 148.53 134.53 C 149.64 134.60 150.59 133.75 150.65 132.65 C 150.71 131.54 149.86 130.59 148.76 130.53 Z M 147.69 130.48 L 146.69 130.46 C 145.59 130.43 144.67 131.31 144.65 132.41 C 144.62 133.51 145.49 134.42 146.59 134.45 L 147.60 134.47 C 148.70 134.50 149.61 133.63 149.64 132.53 C 149.67 131.42 148.80 130.51 147.69 130.48 Z M 146.65 130.47 L 145.64 130.47 C 144.54 130.46 143.65 131.34 143.64 132.44 C 143.64 133.53 144.52 134.42 145.62 134.43 L 146.63 134.44 C 147.72 134.44 148.62 133.56 148.62 132.46 C 148.63 131.37 147.75 130.48 146.65 130.47 Z M 145.63 130.48 L 144.63 130.48 C 143.55 130.48 142.66 131.36 142.66 132.45 C 142.67 133.54 143.55 134.42 144.63 134.42 L 145.63 134.42 C 146.71 134.42 147.60 133.54 147.60 132.45 C 147.60 131.36 146.71 130.48 145.63 130.48 Z M 144.63 130.50 L 143.64 130.50 C 142.57 130.51 141.70 131.38 141.70 132.46 C 141.71 133.54 142.58 134.41 143.66 134.40 L 144.64 134.40 C 145.72 134.39 146.59 133.52 146.58 132.44 C 146.58 131.36 145.70 130.49 144.63 130.50 Z M 143.62 130.52 L 142.63 130.54 C 141.57 130.56 140.72 131.43 140.74 132.50 C 140.75 133.56 141.63 134.41 142.69 134.40 L 143.68 134.38 C 144.75 134.37 145.60 133.49 145.58 132.42 C 145.56 131.36 144.69 130.51 143.62 130.52 Z M 142.60 130.56 L 141.61 130.59 C 140.55 130.63 139.73 131.51 139.76 132.56 C 139.80 133.62 140.68 134.44 141.73 134.41 L 142.73 134.38 C 143.78 134.34 144.61 133.46 144.57 132.41 C 144.54 131.35 143.66 130.53 142.60 130.56 Z M 141.56 130.62 L 140.55 130.67 C 139.51 130.73 138.72 131.62 138.78 132.66 C 138.83 133.70 139.73 134.50 140.77 134.44 L 141.77 134.38 C 142.82 134.33 143.61 133.44 143.55 132.39 C 143.49 131.35 142.60 130.56 141.56 130.62 Z M 140.50 130.70 L 139.48 130.78 C 138.45 130.87 137.69 131.78 137.78 132.80 C 137.87 133.83 138.77 134.59 139.80 134.50 L 140.82 134.42 C 141.85 134.33 142.61 133.43 142.52 132.40 C 142.43 131.37 141.53 130.61 140.50 130.70 Z M 139.42 130.81 L 138.45 130.93 C 137.44 131.05 136.72 131.96 136.83 132.97 C 136.95 133.98 137.87 134.71 138.88 134.59 L 139.85 134.47 C 140.86 134.36 141.59 133.44 141.47 132.43 C 141.35 131.42 140.43 130.70 139.42 130.81 Z M 138.40 130.96 L 137.43 131.10 C 136.44 131.25 135.76 132.17 135.90 133.16 C 136.04 134.15 136.97 134.84 137.96 134.69 L 138.92 134.55 C 139.92 134.41 140.60 133.49 140.46 132.50 C 140.31 131.51 139.39 130.82 138.40 130.96 Z M 137.40 131.14 L 136.42 131.30 C 135.45 131.47 134.79 132.39 134.96 133.36 C 135.12 134.33 136.04 134.99 137.01 134.82 L 137.99 134.66 C 138.96 134.50 139.62 133.58 139.45 132.60 C 139.29 131.63 138.37 130.98 137.40 131.14 Z M 136.40 131.34 L 135.41 131.52 C 134.45 131.70 133.83 132.61 134.00 133.56 C 134.18 134.52 135.09 135.15 136.04 134.97 L 137.03 134.79 C 137.99 134.61 138.62 133.70 138.44 132.75 C 138.26 131.79 137.35 131.16 136.40 131.34 Z M 135.39 131.55 L 134.40 131.75 C 133.46 131.93 132.85 132.84 133.04 133.77 C 133.22 134.71 134.13 135.32 135.06 135.13 L 136.06 134.94 C 136.99 134.75 137.60 133.85 137.42 132.91 C 137.23 131.98 136.33 131.37 135.39 131.55 Z M 134.39 131.78 L 133.39 131.98 C 132.47 132.17 131.88 133.07 132.07 133.98 C 132.26 134.90 133.15 135.49 134.07 135.31 L 135.07 135.10 C 135.99 134.92 136.58 134.02 136.39 133.10 C 136.20 132.19 135.31 131.59 134.39 131.78 Z M 133.39 132.01 L 132.79 132.13 C 131.88 132.32 131.30 133.21 131.49 134.11 C 131.67 135.01 132.56 135.59 133.46 135.41 L 134.07 135.28 C 134.97 135.10 135.55 134.21 135.37 133.31 C 135.18 132.40 134.30 131.82 133.39 132.01 Z"
      fill="black"
      fill-rule="nonzero" /></svg>