<svg xmlns="http://www.w3.org/2000/svg" width="300" height="300" viewBox="0 0 300 300">
<path d="M 142.46 129.43 L 141.49 129.27 C 140.56 129.10 139.67 129.73 139.51 130.66 C 139.35 131.60 139.97 132.49 140.90 132.65 L 141.87 132.82 C 142.80 132.98 143.69 132.35 143.85 131.42 C 144.02 130.49 143.39 129.60 142.46 129.43 Z M 141.49 129.26 L 140.52 129.09 C 139.58 128.93 138.69 129.56 138.53 130.50 C 138.37 131.43 138.99 132.33 139.93 132.49 L 140.90 132.66 C 141.84 132.82 142.73 132.19 142.90 131.25 C 143.06 130.31 142.43 129.42 141.49 129.26 Z M 140.52 129.08 L 139.54 128.91 C 138.60 128.75 137.70 129.38 137.54 130.33 C 137.38 131.27 138.01 132.17 138.96 132.33 L 139.93 132.50 C 140.88 132.66 141.77 132.03 141.94 131.08 C 142.10 130.14 141.46 129.24 140.52 129.08 Z M 139.54 128.90 L 138.55 128.74 C 137.60 128.57 136.70 129.21 136.54 130.16 C 136.38 131.11 137.02 132.01 137.96 132.17 L 138.96 132.34 C 139.91 132.50 140.81 131.86 140.97 130.91 C 141.13 129.96 140.49 129.06 139.54 128.90 Z M 138.54 128.73 L 137.53 128.56 C 136.58 128.40 135.67 129.04 135.52 130.00 C 135.36 130.95 136.00 131.86 136.96 132.01 L 137.97 132.18 C 138.92 132.34 139.83 131.70 139.98 130.74 C 140.14 129.79 139.50 128.88 138.54 128.73 Z M 137.53 128.55 L 136.55 128.39 C 135.58 128.23 134.68 128.88 134.52 129.84 C 134.37 130.81 135.02 131.71 135.98 131.87 L 136.96 132.03 C 137.92 132.18 138.83 131.53 138.98 130.57 C 139.14 129.61 138.49 128.70 137.53 128.55 Z M 136.54 128.37 L 135.56 128.22 C 134.59 128.07 133.68 128.73 133.53 129.70 C 133.38 130.67 134.04 131.58 135.01 131.73 L 135.99 131.88 C 136.96 132.03 137.87 131.37 138.02 130.40 C 138.17 129.43 137.51 128.52 136.54 128.37 Z M 135.54 128.20 L 134.55 128.06 C 133.57 127.92 132.66 128.60 132.52 129.57 C 132.38 130.55 133.05 131.46 134.03 131.60 L 135.03 131.75 C 136.00 131.89 136.91 131.21 137.05 130.23 C 137.20 129.25 136.52 128.34 135.54 128.20 Z M 134.52 128.04 L 133.52 127.91 C 132.54 127.78 131.63 128.48 131.50 129.47 C 131.37 130.46 132.07 131.36 133.06 131.49 L 134.06 131.62 C 135.05 131.75 135.95 131.05 136.08 130.06 C 136.21 129.08 135.51 128.17 134.52 128.04 Z M 133.49 127.89 L 132.49 127.78 C 131.49 127.67 130.59 128.39 130.48 129.39 C 130.37 130.38 131.09 131.28 132.09 131.40 L 133.09 131.51 C 134.09 131.62 134.99 130.90 135.10 129.90 C 135.21 128.90 134.49 128.00 133.49 127.89 Z M 132.45 127.76 L 131.44 127.67 C 130.43 127.59 129.54 128.33 129.46 129.34 C 129.37 130.35 130.11 131.24 131.12 131.32 L 132.13 131.41 C 133.13 131.50 134.02 130.76 134.11 129.75 C 134.20 128.74 133.46 127.85 132.45 127.76 Z M 131.38 127.66 L 130.32 127.60 C 129.31 127.55 128.44 128.32 128.38 129.34 C 128.33 130.35 129.10 131.22 130.12 131.28 L 131.18 131.34 C 132.19 131.39 133.06 130.62 133.12 129.60 C 133.17 128.59 132.40 127.72 131.38 127.66 Z M 130.22 127.60 L 129.18 127.60 C 128.17 127.60 127.34 128.43 127.34 129.45 C 127.35 130.46 128.17 131.29 129.19 131.28 L 130.22 131.28 C 131.24 131.28 132.06 130.45 132.06 129.44 C 132.06 128.42 131.23 127.60 130.22 127.60 Z M 129.02 127.61 L 128.03 127.69 C 127.01 127.78 126.26 128.68 126.35 129.69 C 126.44 130.71 127.34 131.46 128.35 131.37 L 129.35 131.28 C 130.36 131.19 131.11 130.30 131.02 129.28 C 130.93 128.27 130.04 127.52 129.02 127.61 Z M 127.81 127.72 L 126.87 127.92 C 125.87 128.13 125.23 129.12 125.44 130.11 C 125.66 131.11 126.64 131.75 127.63 131.54 L 128.57 131.34 C 129.57 131.12 130.21 130.14 130.00 129.15 C 129.79 128.15 128.80 127.51 127.81 127.72 Z M 126.58 128.01 L 125.71 128.34 C 124.76 128.71 124.29 129.78 124.66 130.73 C 125.02 131.69 126.09 132.16 127.05 131.79 L 127.92 131.45 C 128.87 131.09 129.34 130.01 128.97 129.06 C 128.61 128.11 127.53 127.64 126.58 128.01 Z M 125.40 128.50 L 124.63 128.98 C 123.76 129.52 123.50 130.67 124.05 131.53 C 124.59 132.40 125.73 132.66 126.60 132.12 L 127.36 131.63 C 128.23 131.09 128.49 129.95 127.95 129.08 C 127.40 128.22 126.26 127.96 125.40 128.50 Z M 124.36 129.19 L 123.68 129.82 C 122.93 130.51 122.88 131.68 123.57 132.43 C 124.27 133.18 125.44 133.23 126.19 132.53 L 126.87 131.91 C 127.62 131.21 127.66 130.04 126.97 129.29 C 126.28 128.54 125.11 128.50 124.36 129.19 Z M 123.47 130.04 L 122.88 130.81 C 122.25 131.61 122.40 132.78 123.21 133.40 C 124.02 134.03 125.18 133.88 125.81 133.07 L 126.40 132.31 C 127.02 131.50 126.87 130.34 126.07 129.71 C 125.26 129.09 124.10 129.23 123.47 130.04 Z M 122.73 131.03 L 122.23 131.92 C 121.73 132.81 122.04 133.94 122.93 134.44 C 123.82 134.94 124.95 134.63 125.45 133.74 L 125.95 132.85 C 126.46 131.96 126.14 130.83 125.25 130.33 C 124.36 129.83 123.23 130.14 122.73 131.03 Z M 122.13 132.13 L 121.72 133.14 C 121.33 134.08 121.79 135.16 122.74 135.55 C 123.68 135.93 124.76 135.48 125.15 134.53 L 125.56 133.53 C 125.94 132.58 125.48 131.50 124.54 131.11 C 123.59 130.73 122.51 131.19 122.13 132.13 Z M 121.65 133.32 L 121.36 134.34 C 121.08 135.32 121.65 136.34 122.63 136.62 C 123.61 136.91 124.64 136.34 124.92 135.36 L 125.21 134.34 C 125.49 133.36 124.93 132.34 123.94 132.05 C 122.96 131.77 121.94 132.34 121.65 133.32 Z M 121.33 134.48 L 121.14 135.43 C 120.94 136.43 121.59 137.40 122.59 137.61 C 123.59 137.81 124.57 137.16 124.77 136.16 L 124.96 135.21 C 125.16 134.21 124.51 133.23 123.51 133.03 C 122.50 132.83 121.53 133.48 121.33 134.48 Z M 121.12 135.54 L 120.98 136.53 C 120.85 137.54 121.55 138.47 122.57 138.61 C 123.58 138.75 124.51 138.04 124.65 137.03 L 124.79 136.04 C 124.92 135.03 124.22 134.10 123.20 133.96 C 122.19 133.82 121.26 134.53 121.12 135.54 Z M 120.97 136.62 L 120.89 137.63 C 120.80 138.65 121.56 139.55 122.57 139.64 C 123.59 139.72 124.49 138.97 124.57 137.95 L 124.66 136.94 C 124.75 135.92 123.99 135.02 122.97 134.94 C 121.96 134.85 121.06 135.60 120.97 136.62 Z M 120.88 137.71 L 120.84 138.74 C 120.80 139.76 121.59 140.62 122.61 140.67 C 123.63 140.71 124.49 139.92 124.54 138.89 L 124.58 137.87 C 124.62 136.85 123.83 135.99 122.81 135.94 C 121.79 135.90 120.93 136.69 120.88 137.71 Z M 120.84 138.81 L 120.83 139.83 C 120.83 140.85 121.65 141.68 122.67 141.69 C 123.69 141.69 124.53 140.87 124.53 139.85 L 124.54 138.83 C 124.54 137.81 123.72 136.97 122.70 136.97 C 121.68 136.96 120.84 137.78 120.84 138.81 Z M 120.83 139.89 L 120.86 140.89 C 120.89 141.91 121.73 142.72 122.76 142.69 C 123.78 142.66 124.58 141.82 124.56 140.79 L 124.53 139.79 C 124.50 138.77 123.66 137.96 122.63 137.99 C 121.61 138.02 120.81 138.86 120.83 139.89 Z M 120.86 140.94 L 120.92 141.97 C 120.97 142.99 121.85 143.78 122.87 143.72 C 123.89 143.66 124.67 142.79 124.61 141.77 L 124.55 140.74 C 124.50 139.72 123.63 138.94 122.61 139.00 C 121.59 139.05 120.81 139.92 120.86 140.94 Z M 120.92 142.04 L 121.01 143.06 C 121.11 144.08 122.00 144.83 123.02 144.74 C 124.04 144.65 124.79 143.75 124.70 142.73 L 124.61 141.71 C 124.51 140.69 123.62 139.94 122.60 140.03 C 121.58 140.12 120.83 141.02 120.92 142.04 Z M 121.02 143.14 L 121.16 144.13 C 121.29 145.15 122.22 145.86 123.24 145.72 C 124.25 145.58 124.96 144.65 124.82 143.64 L 124.69 142.65 C 124.55 141.64 123.62 140.93 122.61 141.07 C 121.60 141.20 120.89 142.13 121.02 143.14 Z M 121.17 144.23 L 121.36 145.19 C 121.54 146.20 122.51 146.86 123.51 146.67 C 124.52 146.48 125.18 145.51 124.99 144.51 L 124.81 143.54 C 124.62 142.54 123.65 141.88 122.65 142.07 C 121.64 142.26 120.98 143.23 121.17 144.23 Z M 121.38 145.30 L 121.62 146.25 C 121.87 147.24 122.87 147.84 123.86 147.59 C 124.85 147.34 125.45 146.33 125.20 145.34 L 124.96 144.40 C 124.71 143.41 123.71 142.81 122.72 143.06 C 121.73 143.31 121.13 144.31 121.38 145.30 Z M 121.65 146.36 L 121.95 147.30 C 122.27 148.27 123.31 148.80 124.28 148.49 C 125.25 148.17 125.78 147.13 125.47 146.16 L 125.17 145.23 C 124.85 144.26 123.81 143.72 122.84 144.04 C 121.87 144.35 121.34 145.39 121.65 146.36 Z M 122.00 147.41 L 122.36 148.32 C 122.74 149.26 123.81 149.72 124.76 149.34 C 125.70 148.96 126.17 147.89 125.79 146.94 L 125.43 146.04 C 125.05 145.10 123.97 144.64 123.03 145.01 C 122.08 145.39 121.62 146.47 122.00 147.41 Z M 122.41 148.42 L 122.82 149.29 C 123.25 150.21 124.36 150.60 125.28 150.17 C 126.20 149.73 126.59 148.63 126.15 147.71 L 125.74 146.84 C 125.30 145.92 124.20 145.53 123.28 145.96 C 122.36 146.40 121.97 147.50 122.41 148.42 Z M 122.86 149.38 L 123.33 150.24 C 123.82 151.14 124.94 151.47 125.83 150.98 C 126.73 150.50 127.06 149.38 126.57 148.48 L 126.11 147.62 C 125.62 146.72 124.50 146.39 123.60 146.88 C 122.71 147.36 122.38 148.48 122.86 149.38 Z M 123.38 150.32 L 123.90 151.17 C 124.43 152.04 125.56 152.32 126.43 151.79 C 127.30 151.26 127.58 150.13 127.05 149.26 L 126.53 148.40 C 126.00 147.53 124.87 147.26 124.00 147.79 C 123.13 148.31 122.85 149.45 123.38 150.32 Z M 123.94 151.24 L 124.50 152.09 C 125.07 152.93 126.21 153.16 127.06 152.60 C 127.91 152.03 128.13 150.89 127.57 150.04 L 127.01 149.19 C 126.44 148.35 125.30 148.12 124.45 148.68 C 123.60 149.25 123.38 150.39 123.94 151.24 Z M 124.55 152.14 L 125.15 152.98 C 125.75 153.80 126.90 153.98 127.72 153.39 C 128.54 152.79 128.73 151.64 128.13 150.81 L 127.53 149.98 C 126.93 149.16 125.78 148.97 124.96 149.57 C 124.13 150.17 123.95 151.32 124.55 152.14 Z M 125.19 153.03 L 125.82 153.84 C 126.45 154.64 127.61 154.79 128.41 154.16 C 129.21 153.54 129.35 152.38 128.73 151.58 L 128.09 150.76 C 127.47 149.96 126.31 149.82 125.51 150.44 C 124.71 151.07 124.56 152.22 125.19 153.03 Z M 125.86 153.89 L 126.51 154.67 C 127.16 155.45 128.32 155.56 129.10 154.91 C 129.89 154.26 129.99 153.10 129.34 152.32 L 128.69 151.53 C 128.04 150.75 126.88 150.64 126.10 151.29 C 125.32 151.94 125.21 153.10 125.86 153.89 Z M 126.55 154.71 L 127.23 155.47 C 127.90 156.23 129.06 156.30 129.82 155.63 C 130.58 154.95 130.65 153.79 129.98 153.03 L 129.30 152.27 C 128.63 151.51 127.47 151.44 126.71 152.12 C 125.95 152.79 125.88 153.95 126.55 154.71 Z M 127.27 155.52 L 127.97 156.25 C 128.67 156.99 129.83 157.02 130.57 156.32 C 131.30 155.62 131.33 154.46 130.63 153.72 L 129.94 152.99 C 129.24 152.25 128.07 152.22 127.34 152.92 C 126.60 153.62 126.57 154.78 127.27 155.52 Z M 128.01 156.30 L 128.73 157.00 C 129.45 157.71 130.62 157.70 131.33 156.97 C 132.04 156.25 132.03 155.09 131.30 154.38 L 130.59 153.67 C 129.86 152.96 128.70 152.97 127.99 153.70 C 127.28 154.42 127.29 155.59 128.01 156.30 Z M 128.78 157.05 L 129.52 157.72 C 130.27 158.40 131.43 158.34 132.11 157.59 C 132.79 156.84 132.74 155.68 131.99 155.00 L 131.25 154.33 C 130.50 153.65 129.34 153.70 128.66 154.45 C 127.97 155.20 128.03 156.36 128.78 157.05 Z M 129.57 157.76 L 130.32 158.40 C 131.10 159.05 132.26 158.95 132.91 158.17 C 133.56 157.39 133.46 156.23 132.68 155.58 L 131.93 154.95 C 131.15 154.30 129.99 154.40 129.34 155.18 C 128.69 155.95 128.79 157.11 129.57 157.76 Z M 130.39 158.45 L 131.17 159.04 C 131.97 159.66 133.13 159.51 133.74 158.70 C 134.36 157.90 134.21 156.75 133.40 156.13 L 132.62 155.53 C 131.82 154.91 130.66 155.07 130.05 155.87 C 129.43 156.68 129.58 157.83 130.39 158.45 Z M 131.24 159.10 L 132.10 159.69 C 132.93 160.27 134.07 160.06 134.65 159.23 C 135.23 158.39 135.02 157.25 134.19 156.67 L 133.33 156.08 C 132.50 155.50 131.36 155.71 130.78 156.54 C 130.20 157.38 130.41 158.52 131.24 159.10 Z M 132.17 159.74 L 133.04 160.28 C 133.90 160.82 135.04 160.56 135.57 159.70 C 136.11 158.84 135.85 157.70 134.99 157.17 L 134.11 156.63 C 133.25 156.09 132.12 156.35 131.59 157.21 C 131.05 158.07 131.31 159.20 132.17 159.74 Z M 133.12 160.33 L 134.00 160.82 C 134.88 161.31 136.00 161.00 136.50 160.11 C 136.99 159.23 136.67 158.11 135.79 157.62 L 134.91 157.12 C 134.03 156.63 132.91 156.95 132.41 157.83 C 131.92 158.71 132.24 159.83 133.12 160.33 Z M 134.08 160.86 L 134.96 161.30 C 135.87 161.75 136.97 161.38 137.42 160.48 C 137.87 159.57 137.50 158.47 136.60 158.02 L 135.71 157.58 C 134.81 157.12 133.71 157.49 133.25 158.40 C 132.80 159.30 133.17 160.40 134.08 160.86 Z M 135.04 161.33 L 135.92 161.73 C 136.85 162.14 137.93 161.72 138.34 160.79 C 138.75 159.87 138.33 158.79 137.41 158.38 L 136.52 157.98 C 135.60 157.57 134.51 157.99 134.10 158.92 C 133.69 159.84 134.11 160.92 135.04 161.33 Z M 136.00 161.76 L 136.89 162.10 C 137.83 162.47 138.89 162.01 139.26 161.06 C 139.63 160.12 139.16 159.06 138.22 158.69 L 137.33 158.34 C 136.39 157.98 135.33 158.44 134.96 159.39 C 134.59 160.33 135.06 161.39 136.00 161.76 Z M 136.97 162.13 L 137.89 162.44 C 138.85 162.77 139.89 162.25 140.21 161.29 C 140.54 160.33 140.02 159.30 139.06 158.97 L 138.14 158.66 C 137.18 158.34 136.14 158.85 135.82 159.81 C 135.49 160.77 136.01 161.81 136.97 162.13 Z M 137.98 162.47 L 138.91 162.73 C 139.88 163.01 140.89 162.44 141.17 161.47 C 141.44 160.50 140.88 159.48 139.91 159.21 L 138.98 158.95 C 138.00 158.67 136.99 159.24 136.71 160.21 C 136.44 161.18 137.00 162.20 137.98 162.47 Z M 139.00 162.76 L 139.94 162.97 C 140.93 163.20 141.91 162.59 142.14 161.60 C 142.37 160.61 141.75 159.63 140.77 159.41 L 139.82 159.19 C 138.83 158.96 137.85 159.58 137.62 160.56 C 137.40 161.55 138.01 162.53 139.00 162.76 Z M 140.03 162.99 L 141.01 163.17 C 142.00 163.35 142.96 162.69 143.14 161.69 C 143.32 160.70 142.66 159.74 141.66 159.57 L 140.68 159.39 C 139.69 159.21 138.73 159.87 138.55 160.86 C 138.37 161.86 139.04 162.81 140.03 162.99 Z M 141.09 163.18 L 142.11 163.32 C 143.11 163.45 144.04 162.75 144.17 161.75 C 144.31 160.75 143.60 159.83 142.60 159.69 L 141.58 159.55 C 140.58 159.42 139.66 160.12 139.52 161.12 C 139.39 162.12 140.09 163.04 141.09 163.18 Z M 142.18 163.33 L 143.22 163.43 C 144.23 163.52 145.12 162.79 145.22 161.78 C 145.32 160.78 144.58 159.88 143.58 159.78 L 142.53 159.68 C 141.53 159.59 140.63 160.32 140.54 161.33 C 140.44 162.33 141.18 163.23 142.18 163.33 Z M 143.28 163.43 L 144.25 163.49 C 145.26 163.56 146.13 162.79 146.19 161.78 C 146.25 160.77 145.49 159.90 144.48 159.84 L 143.51 159.78 C 142.50 159.72 141.64 160.48 141.57 161.49 C 141.51 162.50 142.28 163.37 143.28 163.43 Z M 144.32 163.49 L 145.31 163.52 C 146.32 163.54 147.16 162.74 147.19 161.73 C 147.21 160.72 146.41 159.88 145.40 159.86 L 144.41 159.84 C 143.40 159.81 142.56 160.61 142.53 161.62 C 142.51 162.63 143.31 163.47 144.32 163.49 Z M 145.40 163.52 L 146.41 163.49 C 147.42 163.47 148.22 162.63 148.20 161.62 C 148.17 160.61 147.33 159.81 146.32 159.84 L 145.31 159.86 C 144.30 159.89 143.50 160.72 143.53 161.73 C 143.55 162.74 144.39 163.54 145.40 163.52 Z M 146.52 163.49 L 147.53 163.40 C 148.54 163.32 149.29 162.44 149.20 161.43 C 149.12 160.43 148.24 159.68 147.23 159.76 L 146.22 159.84 C 145.21 159.93 144.46 160.81 144.55 161.82 C 144.63 162.82 145.51 163.57 146.52 163.49 Z M 147.66 163.39 L 148.66 163.23 C 149.66 163.08 150.34 162.15 150.19 161.15 C 150.04 160.15 149.10 159.47 148.11 159.62 L 147.10 159.78 C 146.11 159.93 145.42 160.86 145.57 161.86 C 145.73 162.86 146.66 163.54 147.66 163.39 Z M 148.81 163.20 L 149.79 162.97 C 150.77 162.73 151.37 161.75 151.14 160.77 C 150.90 159.79 149.92 159.18 148.93 159.42 L 147.96 159.65 C 146.98 159.89 146.37 160.87 146.61 161.85 C 146.84 162.84 147.83 163.44 148.81 163.20 Z M 149.96 162.92 L 150.90 162.59 C 151.85 162.26 152.36 161.22 152.03 160.27 C 151.70 159.31 150.66 158.81 149.70 159.14 L 148.76 159.47 C 147.81 159.80 147.30 160.84 147.64 161.79 C 147.97 162.75 149.01 163.25 149.96 162.92 Z M 151.08 162.52 L 151.98 162.10 C 152.89 161.67 153.28 160.58 152.85 159.67 C 152.42 158.75 151.33 158.36 150.42 158.79 L 149.52 159.22 C 148.61 159.64 148.22 160.73 148.65 161.65 C 149.08 162.56 150.17 162.95 151.08 162.52 Z M 152.13 162.01 L 152.98 161.50 C 153.85 160.99 154.13 159.86 153.61 159.00 C 153.10 158.13 151.98 157.85 151.11 158.37 L 150.26 158.88 C 149.39 159.40 149.11 160.52 149.63 161.38 C 150.15 162.25 151.27 162.53 152.13 162.01 Z M 153.12 161.41 L 153.92 160.83 C 154.74 160.23 154.92 159.09 154.33 158.28 C 153.73 157.46 152.59 157.28 151.78 157.88 L 150.97 158.46 C 150.16 159.05 149.98 160.19 150.57 161.01 C 151.16 161.83 152.31 162.01 153.12 161.41 Z M 154.04 160.74 L 154.80 160.08 C 155.56 159.43 155.65 158.28 154.99 157.51 C 154.34 156.75 153.19 156.66 152.42 157.32 L 151.66 157.97 C 150.90 158.62 150.81 159.78 151.47 160.54 C 152.12 161.30 153.27 161.39 154.04 160.74 Z M 154.89 160.00 L 155.61 159.29 C 156.32 158.58 156.33 157.42 155.62 156.71 C 154.91 155.99 153.76 155.99 153.04 156.70 L 152.33 157.40 C 151.61 158.11 151.61 159.27 152.31 159.98 C 153.02 160.70 154.18 160.71 154.89 160.00 Z M 155.69 159.20 L 156.36 158.45 C 157.03 157.69 156.96 156.54 156.21 155.87 C 155.45 155.20 154.30 155.27 153.63 156.03 L 152.96 156.78 C 152.29 157.53 152.36 158.69 153.11 159.36 C 153.87 160.02 155.02 159.96 155.69 159.20 Z M 156.43 158.37 L 157.03 157.61 C 157.66 156.82 157.52 155.67 156.73 155.04 C 155.94 154.42 154.80 154.55 154.17 155.34 L 153.57 156.10 C 152.94 156.89 153.07 158.04 153.86 158.67 C 154.65 159.29 155.80 159.16 156.43 158.37 Z M 157.09 157.53 L 157.64 156.76 C 158.22 155.94 158.03 154.80 157.20 154.21 C 156.38 153.63 155.24 153.82 154.66 154.65 L 154.11 155.42 C 153.53 156.24 153.72 157.38 154.54 157.96 C 155.37 158.55 156.51 158.35 157.09 157.53 Z M 157.70 156.67 L 158.20 155.87 C 158.74 155.01 158.48 153.88 157.62 153.34 C 156.77 152.81 155.64 153.07 155.10 153.92 L 154.60 154.73 C 154.06 155.59 154.32 156.72 155.18 157.25 C 156.03 157.79 157.16 157.53 157.70 156.67 Z M 158.26 155.77 L 158.73 154.92 C 159.21 154.03 158.88 152.92 157.99 152.43 C 157.10 151.95 155.99 152.28 155.51 153.17 L 155.04 154.02 C 154.56 154.91 154.89 156.02 155.78 156.51 C 156.67 156.99 157.78 156.66 158.26 155.77 Z M 158.78 154.82 L 159.20 153.92 C 159.63 153.00 159.23 151.91 158.31 151.48 C 157.39 151.05 156.30 151.45 155.87 152.37 L 155.45 153.27 C 155.02 154.19 155.42 155.28 156.34 155.71 C 157.26 156.14 158.35 155.74 158.78 154.82 Z M 159.25 153.81 L 159.62 152.86 C 159.99 151.91 159.52 150.84 158.57 150.47 C 157.63 150.11 156.56 150.57 156.19 151.52 L 155.82 152.48 C 155.45 153.42 155.92 154.49 156.87 154.86 C 157.81 155.23 158.88 154.76 159.25 153.81 Z M 159.66 152.75 L 159.99 151.73 C 160.29 150.76 159.76 149.73 158.79 149.42 C 157.82 149.11 156.78 149.65 156.47 150.62 L 156.15 151.63 C 155.84 152.60 156.38 153.64 157.35 153.95 C 158.32 154.25 159.36 153.72 159.66 152.75 Z M 160.02 151.63 L 160.28 150.58 C 160.53 149.59 159.93 148.58 158.94 148.34 C 157.95 148.09 156.95 148.69 156.70 149.68 L 156.44 150.73 C 156.19 151.71 156.79 152.72 157.78 152.97 C 158.77 153.21 159.77 152.61 160.02 151.63 Z M 160.31 150.48 L 160.50 149.49 C 160.70 148.48 160.04 147.51 159.04 147.32 C 158.03 147.12 157.06 147.78 156.87 148.78 L 156.68 149.77 C 156.48 150.78 157.14 151.75 158.14 151.94 C 159.14 152.14 160.11 151.48 160.31 150.48 Z M 160.52 149.40 L 160.67 148.37 C 160.81 147.36 160.11 146.42 159.10 146.27 C 158.09 146.13 157.15 146.83 157.00 147.84 L 156.85 148.87 C 156.70 149.88 157.41 150.82 158.42 150.97 C 159.43 151.11 160.37 150.41 160.52 149.40 Z M 160.68 148.29 L 160.78 147.24 C 160.88 146.22 160.13 145.32 159.11 145.22 C 158.09 145.12 157.19 145.86 157.09 146.88 L 156.99 147.93 C 156.89 148.95 157.63 149.86 158.65 149.95 C 159.67 150.05 160.58 149.31 160.68 148.29 Z M 160.79 147.15 L 160.84 146.11 C 160.89 145.09 160.10 144.21 159.08 144.16 C 158.05 144.11 157.18 144.90 157.13 145.93 L 157.08 146.97 C 157.03 148.00 157.82 148.87 158.84 148.92 C 159.87 148.97 160.74 148.18 160.79 147.15 Z M 160.85 146.02 L 160.84 144.99 C 160.84 143.96 160.01 143.13 158.98 143.13 C 157.95 143.13 157.12 143.97 157.12 145.00 L 157.12 146.03 C 157.13 147.05 157.96 147.88 158.99 147.88 C 160.02 147.88 160.85 147.04 160.85 146.02 Z M 160.84 144.88 L 160.79 143.89 C 160.72 142.86 159.84 142.08 158.81 142.14 C 157.78 142.20 157.00 143.08 157.06 144.11 L 157.12 145.10 C 157.18 146.13 158.06 146.92 159.09 146.85 C 160.12 146.79 160.91 145.91 160.84 144.88 Z M 160.78 143.77 L 160.66 142.82 C 160.53 141.80 159.60 141.07 158.57 141.20 C 157.55 141.33 156.82 142.26 156.95 143.28 L 157.07 144.23 C 157.20 145.25 158.13 145.98 159.16 145.85 C 160.18 145.72 160.91 144.79 160.78 143.77 Z M 160.64 142.68 L 160.46 141.80 C 160.25 140.78 159.26 140.13 158.25 140.34 C 157.24 140.55 156.58 141.54 156.79 142.55 L 156.97 143.43 C 157.18 144.44 158.17 145.09 159.18 144.89 C 160.19 144.68 160.85 143.69 160.64 142.68 Z M 160.41 141.60 L 160.08 140.58 C 159.76 139.60 158.71 139.06 157.72 139.38 C 156.74 139.69 156.20 140.75 156.51 141.73 L 156.84 142.75 C 157.16 143.73 158.22 144.27 159.20 143.96 C 160.18 143.64 160.72 142.58 160.41 141.60 Z M 159.98 140.34 L 159.53 139.42 C 159.08 138.49 157.96 138.10 157.03 138.55 C 156.10 139.00 155.71 140.12 156.16 141.05 L 156.61 141.98 C 157.06 142.91 158.18 143.30 159.11 142.84 C 160.05 142.39 160.43 141.27 159.98 140.34 Z M 159.40 139.18 L 158.85 138.37 C 158.27 137.52 157.10 137.29 156.25 137.87 C 155.39 138.45 155.17 139.62 155.75 140.48 L 156.30 141.29 C 156.88 142.14 158.04 142.36 158.90 141.78 C 159.76 141.20 159.98 140.04 159.40 139.18 Z M 158.70 138.18 L 158.06 137.46 C 157.37 136.69 156.18 136.63 155.41 137.32 C 154.64 138.01 154.58 139.19 155.27 139.96 L 155.90 140.67 C 156.59 141.44 157.78 141.51 158.55 140.82 C 159.32 140.13 159.39 138.95 158.70 138.18 Z M 157.90 137.31 L 157.18 136.67 C 156.41 135.99 155.23 136.06 154.54 136.83 C 153.85 137.61 153.93 138.79 154.70 139.48 L 155.42 140.11 C 156.19 140.80 157.38 140.73 158.06 139.95 C 158.75 139.18 158.68 138.00 157.90 137.31 Z M 157.05 136.57 L 156.26 135.98 C 155.43 135.37 154.26 135.55 153.64 136.38 C 153.03 137.22 153.21 138.39 154.04 139.00 L 154.83 139.58 C 155.66 140.20 156.84 140.02 157.45 139.18 C 158.06 138.35 157.89 137.18 157.05 136.57 Z M 156.16 135.92 L 155.33 135.38 C 154.46 134.82 153.30 135.08 152.74 135.95 C 152.18 136.82 152.44 137.98 153.31 138.53 L 154.14 139.07 C 155.01 139.63 156.17 139.37 156.73 138.50 C 157.29 137.63 157.03 136.47 156.16 135.92 Z M 155.25 135.34 L 154.37 134.84 C 153.48 134.32 152.34 134.63 151.82 135.53 C 151.31 136.43 151.62 137.57 152.52 138.08 L 153.39 138.58 C 154.28 139.09 155.43 138.78 155.94 137.89 C 156.45 136.99 156.14 135.85 155.25 135.34 Z M 154.30 134.80 L 153.39 134.33 C 152.47 133.86 151.35 134.23 150.88 135.14 C 150.41 136.06 150.77 137.18 151.69 137.65 L 152.59 138.12 C 153.51 138.59 154.64 138.23 155.11 137.31 C 155.58 136.39 155.21 135.27 154.30 134.80 Z M 153.32 134.30 L 152.39 133.88 C 151.46 133.45 150.35 133.86 149.92 134.79 C 149.49 135.73 149.90 136.83 150.84 137.26 L 151.76 137.69 C 152.70 138.12 153.80 137.71 154.23 136.77 C 154.66 135.84 154.25 134.73 153.32 134.30 Z M 152.31 133.85 L 151.38 133.47 C 150.43 133.08 149.34 133.54 148.96 134.49 C 148.57 135.44 149.03 136.52 149.98 136.91 L 150.91 137.29 C 151.86 137.68 152.95 137.22 153.33 136.27 C 153.72 135.32 153.26 134.23 152.31 133.85 Z M 151.30 133.44 L 150.37 133.11 C 149.40 132.77 148.34 133.27 148.00 134.23 C 147.66 135.20 148.16 136.26 149.12 136.60 L 150.06 136.94 C 151.02 137.28 152.08 136.77 152.43 135.81 C 152.77 134.84 152.26 133.78 151.30 133.44 Z M 150.28 133.09 L 149.34 132.80 C 148.37 132.51 147.33 133.06 147.04 134.04 C 146.74 135.02 147.30 136.05 148.27 136.34 L 149.21 136.63 C 150.19 136.92 151.22 136.37 151.52 135.39 C 151.81 134.41 151.26 133.38 150.28 133.09 Z M 149.24 132.79 L 148.21 132.54 C 147.22 132.30 146.23 132.90 145.99 133.89 C 145.75 134.88 146.36 135.87 147.34 136.11 L 148.38 136.36 C 149.36 136.60 150.36 135.99 150.60 135.01 C 150.83 134.02 150.23 133.03 149.24 132.79 Z M 148.11 132.53 L 147.11 132.35 C 146.12 132.16 145.17 132.82 144.99 133.80 C 144.80 134.79 145.45 135.74 146.44 135.93 L 147.44 136.11 C 148.43 136.30 149.38 135.64 149.57 134.66 C 149.75 133.67 149.10 132.72 148.11 132.53 Z M 147.02 132.35 L 146.04 132.22 C 145.05 132.08 144.14 132.77 144.01 133.76 C 143.87 134.74 144.56 135.65 145.55 135.79 L 146.53 135.92 C 147.51 136.06 148.42 135.37 148.56 134.38 C 148.69 133.40 148.01 132.49 147.02 132.35 Z M 145.97 132.23 L 145.01 132.13 C 144.03 132.03 143.15 132.75 143.05 133.73 C 142.96 134.71 143.67 135.58 144.65 135.68 L 145.61 135.78 C 146.59 135.87 147.47 135.16 147.57 134.18 C 147.67 133.20 146.95 132.33 145.97 132.23 Z M 144.96 132.15 L 144.00 132.07 C 143.03 132.00 142.18 132.73 142.11 133.70 C 142.04 134.67 142.77 135.52 143.74 135.59 L 144.70 135.66 C 145.67 135.74 146.51 135.01 146.59 134.04 C 146.66 133.06 145.93 132.22 144.96 132.15 Z M 143.98 132.09 L 143.01 132.03 C 142.05 131.97 141.22 132.70 141.16 133.66 C 141.10 134.63 141.84 135.45 142.80 135.51 L 143.76 135.57 C 144.72 135.63 145.55 134.90 145.61 133.94 C 145.67 132.98 144.94 132.15 143.98 132.09 Z M 143.00 132.05 L 142.03 131.99 C 141.08 131.94 140.26 132.67 140.21 133.62 C 140.16 134.57 140.88 135.39 141.83 135.44 L 142.81 135.50 C 143.76 135.55 144.57 134.82 144.63 133.87 C 144.68 132.92 143.96 132.10 143.00 132.05 Z M 142.03 132.01 L 141.04 131.96 C 140.10 131.91 139.30 132.63 139.25 133.57 C 139.19 134.51 139.91 135.31 140.85 135.37 L 141.84 135.42 C 142.78 135.47 143.58 134.75 143.63 133.81 C 143.69 132.87 142.97 132.07 142.03 132.01 Z M 141.05 131.98 L 140.05 131.92 C 139.12 131.87 138.32 132.58 138.27 133.51 C 138.21 134.44 138.92 135.23 139.85 135.29 L 140.85 135.35 C 141.78 135.40 142.58 134.69 142.63 133.76 C 142.68 132.83 141.97 132.03 141.05 131.98 Z M 140.06 131.94 L 139.04 131.88 C 138.12 131.82 137.33 132.52 137.27 133.44 C 137.21 134.35 137.91 135.14 138.83 135.20 L 139.84 135.27 C 140.76 135.33 141.55 134.63 141.61 133.71 C 141.67 132.79 140.97 132.00 140.06 131.94 Z M 139.05 131.90 L 138.03 131.82 C 137.12 131.76 136.33 132.44 136.27 133.35 C 136.20 134.25 136.88 135.04 137.79 135.11 L 138.81 135.18 C 139.72 135.25 140.51 134.57 140.57 133.66 C 140.64 132.75 139.96 131.97 139.05 131.90 Z M 138.04 131.84 L 137.08 131.76 C 136.18 131.69 135.40 132.35 135.32 133.25 C 135.25 134.15 135.91 134.94 136.81 135.01 L 137.77 135.09 C 138.67 135.17 139.46 134.50 139.53 133.60 C 139.61 132.70 138.94 131.92 138.04 131.84 Z M 137.09 131.77 L 136.11 131.68 C 135.22 131.60 134.44 132.26 134.35 133.15 C 134.27 134.04 134.93 134.83 135.82 134.91 L 136.80 135.00 C 137.69 135.08 138.48 134.42 138.56 133.53 C 138.64 132.64 137.98 131.86 137.09 131.77 Z M 136.12 131.70 L 135.13 131.60 C 134.24 131.51 133.46 132.16 133.37 133.04 C 133.28 133.92 133.93 134.71 134.81 134.80 L 135.81 134.89 C 136.69 134.98 137.48 134.33 137.56 133.45 C 137.65 132.57 137.00 131.78 136.12 131.70 Z M 135.13 131.61 L 134.12 131.51 C 133.25 131.42 132.47 132.06 132.38 132.93 C 132.29 133.81 132.92 134.59 133.80 134.68 L 134.81 134.78 C 135.68 134.87 136.46 134.24 136.55 133.36 C 136.64 132.49 136.01 131.70 135.13 131.61 Z M 134.13 131.52 L 133.11 131.42 C 132.24 131.32 131.47 131.95 131.37 132.82 C 131.28 133.69 131.91 134.47 132.78 134.56 L 133.80 134.67 C 134.66 134.76 135.44 134.13 135.53 133.26 C 135.62 132.39 135.00 131.61 134.13 131.52 Z M 133.11 131.43 L 132.19 131.33 C 131.33 131.24 130.55 131.86 130.46 132.72 C 130.37 133.58 130.99 134.36 131.85 134.45 L 132.78 134.55 C 133.64 134.64 134.41 134.02 134.51 133.15 C 134.60 132.29 133.97 131.52 133.11 131.43 Z"
      fill="black"
      fill-rule="nonzero" /></svg>