<svg xmlns="http://www.w3.org/2000/svg" width="300" height="300" viewBox="0 0 300 300">
<path d="M 157.00 179.68 L 156.10 180.15 C 155.23 180.60 154.89 181.67 155.35 182.54 C 155.80 183.41 156.87 183.75 157.74 183.30 L 158.64 182.83 C 159.51 182.38 159.85 181.31 159.39 180.44 C 158.94 179.57 157.87 179.23 157.00 179.68 Z M 156.13 180.14 L 155.23 180.58 C 154.35 181.02 153.99 182.09 154.43 182.96 C 154.87 183.84 155.93 184.20 156.81 183.76 L 157.71 183.31 C 158.59 182.88 158.95 181.81 158.51 180.93 C 158.07 180.06 157.01 179.70 156.13 180.14 Z M 155.29 180.56 L 154.38 180.97 C 153.48 181.38 153.09 182.43 153.49 183.32 C 153.90 184.21 154.95 184.61 155.84 184.20 L 156.75 183.79 C 157.65 183.38 158.04 182.33 157.64 181.44 C 157.23 180.55 156.18 180.15 155.29 180.56 Z M 154.46 180.93 L 153.54 181.29 C 152.63 181.65 152.17 182.68 152.53 183.59 C 152.89 184.51 153.92 184.96 154.83 184.60 L 155.75 184.24 C 156.67 183.89 157.12 182.86 156.76 181.94 C 156.41 181.03 155.38 180.58 154.46 180.93 Z M 153.66 181.25 L 152.72 181.54 C 151.78 181.83 151.25 182.82 151.54 183.76 C 151.83 184.70 152.83 185.22 153.76 184.94 L 154.71 184.65 C 155.64 184.36 156.17 183.36 155.88 182.43 C 155.59 181.49 154.60 180.96 153.66 181.25 Z M 152.87 181.50 L 151.92 181.70 C 150.96 181.91 150.35 182.85 150.55 183.81 C 150.76 184.77 151.70 185.38 152.66 185.18 L 153.61 184.98 C 154.57 184.77 155.18 183.83 154.98 182.87 C 154.77 181.91 153.83 181.30 152.87 181.50 Z M 152.09 181.68 L 151.12 181.79 C 150.14 181.90 149.44 182.78 149.56 183.75 C 149.67 184.73 150.55 185.43 151.52 185.31 L 152.49 185.20 C 153.46 185.09 154.16 184.21 154.05 183.24 C 153.94 182.26 153.06 181.57 152.09 181.68 Z M 151.29 181.78 L 150.30 181.80 C 149.32 181.81 148.54 182.62 148.56 183.60 C 148.58 184.58 149.39 185.36 150.36 185.34 L 151.35 185.33 C 152.33 185.31 153.11 184.50 153.09 183.52 C 153.07 182.54 152.27 181.76 151.29 181.78 Z M 150.47 181.80 L 149.46 181.72 C 148.49 181.65 147.64 182.38 147.56 183.36 C 147.49 184.33 148.22 185.19 149.19 185.26 L 150.20 185.34 C 151.17 185.41 152.02 184.68 152.10 183.71 C 152.17 182.73 151.44 181.88 150.47 181.80 Z M 149.63 181.75 L 148.62 181.57 C 147.65 181.40 146.73 182.05 146.57 183.01 C 146.40 183.98 147.05 184.90 148.01 185.06 L 149.03 185.24 C 149.99 185.41 150.91 184.76 151.07 183.80 C 151.24 182.83 150.60 181.91 149.63 181.75 Z M 148.77 181.61 L 147.80 181.35 C 146.86 181.09 145.89 181.65 145.63 182.60 C 145.38 183.54 145.94 184.51 146.88 184.77 L 147.85 185.03 C 148.80 185.28 149.77 184.72 150.02 183.78 C 150.28 182.83 149.72 181.86 148.77 181.61 Z M 147.93 181.39 L 147.00 181.06 C 146.08 180.74 145.07 181.22 144.75 182.14 C 144.42 183.06 144.90 184.07 145.83 184.40 L 146.75 184.73 C 147.68 185.05 148.69 184.57 149.01 183.65 C 149.34 182.72 148.85 181.71 147.93 181.39 Z M 147.11 181.10 L 146.18 180.71 C 145.28 180.33 144.25 180.75 143.86 181.64 C 143.48 182.54 143.90 183.58 144.80 183.96 L 145.72 184.36 C 146.62 184.74 147.66 184.32 148.04 183.42 C 148.42 182.52 148.00 181.49 147.11 181.10 Z M 146.27 180.75 L 145.36 180.31 C 144.48 179.88 143.42 180.24 143.00 181.11 C 142.57 181.99 142.93 183.05 143.80 183.47 L 144.71 183.92 C 145.59 184.35 146.65 183.99 147.07 183.11 C 147.50 182.24 147.14 181.18 146.27 180.75 Z M 145.43 180.34 L 144.54 179.86 C 143.68 179.39 142.61 179.70 142.15 180.56 C 141.68 181.41 141.99 182.48 142.84 182.95 L 143.73 183.44 C 144.59 183.90 145.66 183.59 146.13 182.74 C 146.59 181.88 146.28 180.81 145.43 180.34 Z M 144.60 179.89 L 143.74 179.38 C 142.90 178.88 141.82 179.15 141.32 179.98 C 140.82 180.82 141.09 181.90 141.93 182.40 L 142.79 182.91 C 143.62 183.41 144.70 183.14 145.20 182.31 C 145.70 181.47 145.43 180.39 144.60 179.89 Z M 143.79 179.41 L 142.92 178.85 C 142.11 178.32 141.02 178.56 140.49 179.37 C 139.96 180.19 140.20 181.28 141.01 181.80 L 141.88 182.36 C 142.69 182.89 143.78 182.66 144.31 181.84 C 144.83 181.03 144.60 179.94 143.79 179.41 Z M 142.97 178.89 L 142.13 178.30 C 141.34 177.75 140.24 177.94 139.69 178.74 C 139.13 179.54 139.33 180.63 140.13 181.19 L 140.96 181.77 C 141.76 182.32 142.86 182.13 143.41 181.33 C 143.96 180.54 143.77 179.44 142.97 178.89 Z M 142.18 178.34 L 141.38 177.74 C 140.60 177.16 139.50 177.32 138.92 178.10 C 138.34 178.87 138.50 179.98 139.28 180.55 L 140.08 181.15 C 140.86 181.73 141.96 181.57 142.54 180.79 C 143.12 180.02 142.96 178.92 142.18 178.34 Z M 141.42 177.77 L 140.64 177.16 C 139.88 176.55 138.78 176.68 138.18 177.44 C 137.57 178.20 137.70 179.31 138.46 179.91 L 139.24 180.52 C 140.00 181.12 141.10 181.00 141.70 180.24 C 142.30 179.48 142.18 178.37 141.42 177.77 Z M 140.68 177.19 L 139.93 176.56 C 139.19 175.94 138.08 176.03 137.46 176.78 C 136.84 177.52 136.93 178.63 137.68 179.25 L 138.43 179.88 C 139.17 180.50 140.28 180.40 140.90 179.66 C 141.52 178.92 141.42 177.81 140.68 177.19 Z M 139.96 176.59 L 139.22 175.94 C 138.50 175.30 137.39 175.37 136.75 176.10 C 136.11 176.82 136.18 177.93 136.91 178.57 L 137.64 179.22 C 138.37 179.86 139.48 179.79 140.12 179.06 C 140.76 178.34 140.69 177.23 139.96 176.59 Z M 139.25 175.96 L 138.51 175.28 C 137.80 174.62 136.69 174.67 136.03 175.38 C 135.38 176.10 135.42 177.21 136.13 177.86 L 136.88 178.55 C 137.59 179.20 138.70 179.16 139.36 178.44 C 140.01 177.73 139.97 176.62 139.25 175.96 Z M 138.55 175.31 L 137.82 174.61 C 137.13 173.94 136.01 173.95 135.34 174.65 C 134.66 175.35 134.68 176.46 135.38 177.13 L 136.10 177.83 C 136.80 178.51 137.91 178.49 138.58 177.79 C 139.26 177.10 139.24 175.99 138.55 175.31 Z M 137.86 174.64 L 137.16 173.93 C 136.48 173.23 135.37 173.22 134.67 173.90 C 133.98 174.58 133.97 175.69 134.64 176.39 L 135.34 177.10 C 136.02 177.80 137.14 177.81 137.83 177.13 C 138.52 176.45 138.54 175.34 137.86 174.64 Z M 137.20 173.96 L 136.52 173.23 C 135.86 172.52 134.75 172.47 134.04 173.13 C 133.32 173.79 133.27 174.90 133.93 175.62 L 134.61 176.35 C 135.26 177.06 136.38 177.11 137.09 176.45 C 137.81 175.79 137.85 174.68 137.20 173.96 Z M 136.56 173.27 L 135.92 172.53 C 135.28 171.79 134.17 171.71 133.43 172.34 C 132.70 172.98 132.61 174.09 133.25 174.83 L 133.89 175.57 C 134.53 176.31 135.64 176.39 136.38 175.76 C 137.11 175.12 137.20 174.01 136.56 173.27 Z M 135.96 172.57 L 135.33 171.79 C 134.72 171.03 133.61 170.91 132.85 171.51 C 132.09 172.12 131.97 173.23 132.58 173.99 L 133.21 174.78 C 133.82 175.54 134.92 175.66 135.68 175.05 C 136.44 174.44 136.57 173.33 135.96 172.57 Z M 135.38 171.85 L 134.78 171.04 C 134.21 170.25 133.10 170.09 132.32 170.66 C 131.53 171.24 131.36 172.34 131.94 173.13 L 132.53 173.94 C 133.11 174.72 134.21 174.89 135.00 174.31 C 135.78 173.74 135.95 172.63 135.38 171.85 Z M 134.83 171.11 L 134.28 170.28 C 133.74 169.46 132.64 169.24 131.83 169.78 C 131.02 170.32 130.80 171.42 131.34 172.23 L 131.89 173.06 C 132.43 173.87 133.53 174.09 134.34 173.55 C 135.15 173.01 135.37 171.92 134.83 171.11 Z M 134.33 170.35 L 133.82 169.50 C 133.32 168.66 132.24 168.38 131.40 168.88 C 130.56 169.38 130.28 170.46 130.78 171.30 L 131.29 172.16 C 131.79 173.00 132.87 173.27 133.71 172.77 C 134.55 172.28 134.83 171.19 134.33 170.35 Z M 133.87 169.58 L 133.41 168.70 C 132.96 167.83 131.89 167.49 131.03 167.94 C 130.16 168.39 129.82 169.46 130.27 170.33 L 130.73 171.21 C 131.18 172.08 132.25 172.42 133.12 171.97 C 133.98 171.52 134.32 170.45 133.87 169.58 Z M 133.46 168.79 L 133.05 167.88 C 132.65 166.99 131.61 166.59 130.71 166.99 C 129.82 167.39 129.42 168.44 129.82 169.33 L 130.22 170.23 C 130.62 171.13 131.67 171.53 132.56 171.13 C 133.46 170.73 133.86 169.68 133.46 168.79 Z M 133.10 167.98 L 132.74 167.05 C 132.39 166.13 131.37 165.67 130.45 166.02 C 129.54 166.37 129.08 167.39 129.42 168.31 L 129.78 169.24 C 130.13 170.15 131.15 170.61 132.07 170.27 C 132.98 169.92 133.44 168.89 133.10 167.98 Z M 132.78 167.14 L 132.48 166.19 C 132.18 165.25 131.18 164.73 130.25 165.03 C 129.31 165.32 128.79 166.32 129.09 167.26 L 129.39 168.21 C 129.68 169.15 130.68 169.67 131.62 169.37 C 132.56 169.08 133.08 168.08 132.78 167.14 Z M 132.51 166.28 L 132.26 165.31 C 132.02 164.35 131.05 163.78 130.09 164.02 C 129.14 164.26 128.56 165.24 128.81 166.19 L 129.05 167.16 C 129.30 168.12 130.27 168.69 131.22 168.45 C 132.18 168.21 132.75 167.24 132.51 166.28 Z M 132.29 165.41 L 132.09 164.42 C 131.90 163.45 130.97 162.82 130.00 163.01 C 129.03 163.20 128.40 164.14 128.59 165.10 L 128.78 166.09 C 128.97 167.06 129.91 167.69 130.88 167.50 C 131.85 167.31 132.48 166.37 132.29 165.41 Z M 132.11 164.52 L 131.98 163.52 C 131.84 162.54 130.94 161.85 129.96 161.99 C 128.98 162.12 128.30 163.02 128.43 164.00 L 128.57 165.00 C 128.70 165.98 129.60 166.67 130.58 166.53 C 131.56 166.40 132.25 165.50 132.11 164.52 Z M 131.99 163.63 L 131.92 162.62 C 131.85 161.64 130.99 160.89 130.01 160.96 C 129.02 161.03 128.27 161.89 128.34 162.88 L 128.42 163.89 C 128.49 164.87 129.34 165.62 130.33 165.55 C 131.32 165.48 132.06 164.62 131.99 163.63 Z M 131.93 162.76 L 131.93 161.76 C 131.94 160.77 131.14 159.96 130.15 159.95 C 129.16 159.95 128.35 160.75 128.34 161.74 L 128.34 162.74 C 128.33 163.73 129.13 164.54 130.12 164.54 C 131.11 164.55 131.92 163.75 131.93 162.76 Z M 131.93 161.92 L 132.02 160.93 C 132.11 159.94 131.39 159.07 130.40 158.97 C 129.42 158.88 128.54 159.60 128.44 160.59 L 128.35 161.58 C 128.26 162.57 128.98 163.44 129.97 163.54 C 130.96 163.63 131.83 162.91 131.93 161.92 Z M 131.99 161.11 L 132.19 160.14 C 132.38 159.17 131.75 158.22 130.78 158.03 C 129.81 157.83 128.86 158.47 128.66 159.44 L 128.47 160.41 C 128.28 161.38 128.91 162.33 129.88 162.52 C 130.85 162.72 131.80 162.09 131.99 161.11 Z M 132.14 160.34 L 132.44 159.42 C 132.74 158.47 132.22 157.46 131.28 157.15 C 130.33 156.85 129.32 157.37 129.01 158.31 L 128.71 159.24 C 128.41 160.18 128.93 161.20 129.87 161.50 C 130.82 161.81 131.83 161.29 132.14 160.34 Z M 132.37 159.61 L 132.77 158.72 C 133.17 157.81 132.77 156.75 131.86 156.34 C 130.95 155.93 129.89 156.33 129.48 157.24 L 129.08 158.13 C 128.67 159.03 129.08 160.10 129.98 160.51 C 130.89 160.92 131.96 160.51 132.37 159.61 Z M 132.69 158.87 L 133.18 158.02 C 133.67 157.15 133.37 156.05 132.50 155.55 C 131.63 155.06 130.53 155.37 130.04 156.23 L 129.55 157.09 C 129.06 157.96 129.36 159.06 130.23 159.55 C 131.10 160.05 132.20 159.74 132.69 158.87 Z M 133.11 158.14 L 133.67 157.30 C 134.23 156.48 134.01 155.35 133.19 154.79 C 132.36 154.23 131.23 154.45 130.67 155.28 L 130.11 156.11 C 129.55 156.94 129.77 158.07 130.60 158.62 C 131.42 159.18 132.55 158.97 133.11 158.14 Z M 133.61 157.40 L 134.23 156.59 C 134.85 155.79 134.70 154.65 133.90 154.04 C 133.11 153.43 131.97 153.58 131.36 154.37 L 130.74 155.19 C 130.12 155.98 130.27 157.12 131.07 157.73 C 131.86 158.34 133.00 158.19 133.61 157.40 Z M 134.18 156.66 L 134.85 155.87 C 135.50 155.11 135.40 153.96 134.64 153.31 C 133.87 152.66 132.73 152.76 132.08 153.52 L 131.41 154.30 C 130.76 155.07 130.86 156.21 131.62 156.86 C 132.39 157.51 133.53 157.42 134.18 156.66 Z M 134.80 155.92 L 135.47 155.20 C 136.15 154.46 136.10 153.30 135.35 152.63 C 134.61 151.95 133.46 152.00 132.78 152.74 L 132.12 153.47 C 131.44 154.21 131.49 155.36 132.23 156.04 C 132.98 156.72 134.13 156.67 134.80 155.92 Z M 135.43 155.24 L 136.13 154.53 C 136.83 153.81 136.81 152.66 136.09 151.95 C 135.37 151.25 134.22 151.27 133.52 151.99 L 132.82 152.70 C 132.12 153.42 132.14 154.57 132.86 155.27 C 133.58 155.97 134.73 155.96 135.43 155.24 Z M 136.09 154.57 L 136.81 153.87 C 137.53 153.17 137.55 152.02 136.86 151.29 C 136.16 150.57 135.00 150.55 134.28 151.25 L 133.56 151.95 C 132.83 152.64 132.81 153.80 133.51 154.52 C 134.21 155.25 135.36 155.27 136.09 154.57 Z M 136.77 153.91 L 137.52 153.23 C 138.26 152.55 138.31 151.40 137.64 150.65 C 136.96 149.91 135.80 149.86 135.06 150.53 L 134.32 151.21 C 133.57 151.89 133.52 153.04 134.20 153.79 C 134.88 154.53 136.03 154.59 136.77 153.91 Z M 137.48 153.26 L 138.25 152.60 C 139.01 151.94 139.09 150.79 138.43 150.03 C 137.77 149.27 136.62 149.18 135.86 149.84 L 135.09 150.50 C 134.33 151.16 134.25 152.31 134.91 153.07 C 135.57 153.84 136.72 153.92 137.48 153.26 Z M 138.21 152.63 L 138.99 151.99 C 139.77 151.35 139.89 150.20 139.24 149.42 C 138.60 148.64 137.45 148.53 136.67 149.17 L 135.89 149.81 C 135.11 150.45 135.00 151.60 135.64 152.38 C 136.28 153.16 137.43 153.27 138.21 152.63 Z M 138.96 152.02 L 139.76 151.40 C 140.55 150.78 140.70 149.63 140.08 148.83 C 139.46 148.04 138.31 147.89 137.51 148.51 L 136.71 149.13 C 135.91 149.75 135.77 150.90 136.39 151.70 C 137.01 152.50 138.16 152.64 138.96 152.02 Z M 139.71 151.43 L 140.53 150.84 C 141.34 150.25 141.52 149.10 140.93 148.28 C 140.33 147.47 139.19 147.29 138.37 147.88 L 137.56 148.48 C 136.74 149.07 136.56 150.22 137.16 151.03 C 137.75 151.85 138.90 152.03 139.71 151.43 Z M 140.47 150.88 L 141.30 150.32 C 142.14 149.75 142.36 148.61 141.79 147.78 C 141.23 146.94 140.09 146.72 139.25 147.28 L 138.42 147.84 C 137.58 148.41 137.36 149.55 137.93 150.39 C 138.50 151.23 139.64 151.45 140.47 150.88 Z M 141.24 150.36 L 142.08 149.84 C 142.94 149.31 143.21 148.18 142.68 147.32 C 142.14 146.45 141.01 146.19 140.15 146.72 L 139.31 147.24 C 138.45 147.78 138.18 148.91 138.72 149.77 C 139.25 150.63 140.38 150.89 141.24 150.36 Z M 142.01 149.88 L 142.87 149.41 C 143.75 148.91 144.07 147.79 143.58 146.91 C 143.08 146.02 141.97 145.71 141.08 146.20 L 140.22 146.68 C 139.34 147.17 139.02 148.29 139.51 149.18 C 140.01 150.06 141.13 150.38 142.01 149.88 Z M 142.79 149.45 L 143.70 149.00 C 144.61 148.56 144.98 147.45 144.53 146.54 C 144.08 145.63 142.98 145.26 142.07 145.71 L 141.16 146.15 C 140.25 146.60 139.88 147.70 140.33 148.62 C 140.77 149.53 141.88 149.90 142.79 149.45 Z M 143.61 149.05 L 144.53 148.65 C 145.47 148.25 145.90 147.17 145.50 146.23 C 145.10 145.30 144.02 144.87 143.08 145.27 L 142.16 145.67 C 141.23 146.07 140.79 147.15 141.19 148.08 C 141.59 149.01 142.67 149.45 143.61 149.05 Z M 144.44 148.69 L 145.38 148.34 C 146.34 147.99 146.82 146.93 146.47 145.98 C 146.12 145.02 145.06 144.54 144.11 144.89 L 143.17 145.23 C 142.22 145.58 141.73 146.64 142.08 147.60 C 142.43 148.55 143.49 149.04 144.44 148.69 Z M 145.29 148.37 L 146.24 148.08 C 147.21 147.77 147.76 146.74 147.45 145.77 C 147.15 144.80 146.12 144.26 145.15 144.56 L 144.20 144.86 C 143.23 145.16 142.68 146.19 142.99 147.16 C 143.29 148.13 144.32 148.68 145.29 148.37 Z M 146.16 148.10 L 147.12 147.85 C 148.10 147.60 148.69 146.59 148.44 145.61 C 148.18 144.62 147.18 144.03 146.19 144.29 L 145.23 144.53 C 144.25 144.79 143.66 145.79 143.91 146.78 C 144.17 147.77 145.17 148.36 146.16 148.10 Z M 147.03 147.88 L 148.00 147.67 C 149.00 147.47 149.64 146.49 149.43 145.49 C 149.22 144.49 148.24 143.85 147.25 144.06 L 146.28 144.26 C 145.28 144.47 144.64 145.45 144.85 146.45 C 145.06 147.44 146.03 148.08 147.03 147.88 Z M 147.92 147.69 L 148.90 147.53 C 149.91 147.36 150.59 146.41 150.43 145.41 C 150.26 144.40 149.31 143.72 148.30 143.88 L 147.32 144.04 C 146.32 144.21 145.64 145.16 145.80 146.17 C 145.97 147.17 146.92 147.86 147.92 147.69 Z M 148.84 147.54 L 149.82 147.42 C 150.84 147.29 151.55 146.36 151.43 145.35 C 151.30 144.33 150.37 143.62 149.36 143.75 L 148.37 143.87 C 147.36 144.00 146.64 144.93 146.77 145.94 C 146.90 146.95 147.82 147.67 148.84 147.54 Z M 149.77 147.42 L 150.77 147.33 C 151.79 147.23 152.53 146.32 152.43 145.30 C 152.33 144.28 151.42 143.54 150.40 143.64 L 149.41 143.74 C 148.39 143.84 147.65 144.74 147.75 145.76 C 147.85 146.78 148.75 147.52 149.77 147.42 Z M 150.73 147.33 L 151.73 147.25 C 152.75 147.18 153.52 146.28 153.44 145.26 C 153.36 144.24 152.47 143.48 151.45 143.56 L 150.44 143.63 C 149.42 143.71 148.66 144.60 148.74 145.63 C 148.82 146.65 149.71 147.41 150.73 147.33 Z M 151.71 147.26 L 152.71 147.20 C 153.74 147.13 154.51 146.25 154.45 145.22 C 154.38 144.20 153.50 143.42 152.48 143.49 L 151.47 143.55 C 150.45 143.62 149.67 144.50 149.73 145.52 C 149.80 146.55 150.68 147.32 151.71 147.26 Z M 152.70 147.20 L 153.69 147.15 C 154.72 147.09 155.51 146.21 155.45 145.18 C 155.39 144.16 154.52 143.37 153.49 143.43 L 152.49 143.48 C 151.46 143.54 150.68 144.42 150.73 145.44 C 150.79 146.47 151.67 147.26 152.70 147.20 Z M 153.68 147.15 L 154.68 147.10 C 155.71 147.06 156.51 146.18 156.46 145.15 C 156.41 144.12 155.53 143.32 154.50 143.37 L 153.50 143.42 C 152.47 143.47 151.68 144.34 151.73 145.37 C 151.77 146.41 152.65 147.20 153.68 147.15 Z M 154.67 147.11 L 155.67 147.07 C 156.70 147.03 157.51 146.16 157.47 145.12 C 157.43 144.09 156.55 143.28 155.52 143.33 L 154.52 143.37 C 153.48 143.41 152.68 144.28 152.72 145.31 C 152.76 146.35 153.63 147.15 154.67 147.11 Z M 155.66 147.08 L 156.66 147.04 C 157.69 147.01 158.51 146.14 158.47 145.10 C 158.44 144.07 157.57 143.25 156.53 143.29 L 155.53 143.32 C 154.50 143.35 153.68 144.22 153.72 145.26 C 153.75 146.30 154.62 147.11 155.66 147.08 Z M 156.64 147.05 L 157.64 147.02 C 158.68 147.00 159.50 146.13 159.48 145.09 C 159.45 144.05 158.59 143.23 157.54 143.26 L 156.55 143.28 C 155.51 143.31 154.69 144.17 154.71 145.21 C 154.74 146.25 155.60 147.08 156.64 147.05 Z M 157.62 147.03 L 158.65 147.01 C 159.69 146.99 160.52 146.14 160.51 145.09 C 160.49 144.05 159.63 143.22 158.59 143.24 L 157.56 143.25 C 156.52 143.27 155.69 144.13 155.70 145.17 C 155.72 146.21 156.58 147.04 157.62 147.03 Z M 158.60 147.01 L 159.62 147.02 C 160.66 147.03 161.52 146.20 161.53 145.15 C 161.54 144.11 160.70 143.26 159.66 143.24 L 158.64 143.23 C 157.59 143.22 156.74 144.06 156.73 145.10 C 156.72 146.15 157.55 147.00 158.60 147.01 Z M 159.52 147.02 L 160.52 147.08 C 161.57 147.14 162.46 146.35 162.52 145.31 C 162.59 144.27 161.79 143.37 160.75 143.31 L 159.75 143.25 C 158.71 143.18 157.82 143.98 157.75 145.02 C 157.69 146.06 158.48 146.96 159.52 147.02 Z M 160.38 147.07 L 161.36 147.20 C 162.39 147.34 163.34 146.62 163.49 145.59 C 163.63 144.55 162.91 143.60 161.87 143.46 L 160.90 143.32 C 159.86 143.18 158.91 143.90 158.77 144.94 C 158.62 145.97 159.35 146.92 160.38 147.07 Z M 161.16 147.16 L 162.11 147.40 C 163.12 147.65 164.14 147.03 164.39 146.01 C 164.64 145.00 164.02 143.98 163.01 143.73 L 162.06 143.49 C 161.05 143.25 160.03 143.87 159.78 144.88 C 159.53 145.89 160.15 146.92 161.16 147.16 Z M 161.88 147.32 L 162.76 147.67 C 163.74 148.04 164.83 147.56 165.21 146.58 C 165.58 145.61 165.10 144.52 164.12 144.14 L 163.24 143.80 C 162.26 143.42 161.17 143.91 160.79 144.88 C 160.42 145.85 160.90 146.95 161.88 147.32 Z M 162.54 147.56 L 163.37 148.02 C 164.29 148.52 165.44 148.18 165.94 147.26 C 166.44 146.34 166.10 145.20 165.18 144.70 L 164.35 144.24 C 163.43 143.74 162.28 144.08 161.78 145.00 C 161.28 145.92 161.62 147.06 162.54 147.56 Z M 163.18 147.90 L 163.98 148.46 C 164.83 149.07 166.01 148.87 166.61 148.02 C 167.22 147.16 167.02 145.98 166.17 145.38 L 165.37 144.82 C 164.52 144.21 163.34 144.41 162.74 145.26 C 162.13 146.12 162.33 147.29 163.18 147.90 Z M 163.82 148.34 L 164.57 149.00 C 165.35 149.69 166.55 149.62 167.24 148.84 C 167.93 148.06 167.86 146.86 167.08 146.17 L 166.32 145.51 C 165.54 144.81 164.35 144.89 163.66 145.67 C 162.97 146.45 163.04 147.65 163.82 148.34 Z M 164.44 148.88 L 165.15 149.64 C 165.87 150.40 167.06 150.44 167.82 149.73 C 168.59 149.02 168.63 147.82 167.92 147.06 L 167.21 146.30 C 166.50 145.54 165.30 145.49 164.54 146.21 C 163.77 146.92 163.73 148.11 164.44 148.88 Z M 165.05 149.52 L 165.70 150.35 C 166.35 151.17 167.53 151.31 168.35 150.67 C 169.18 150.02 169.32 148.83 168.67 148.01 L 168.02 147.18 C 167.38 146.36 166.19 146.22 165.37 146.86 C 164.55 147.51 164.40 148.70 165.05 149.52 Z M 165.62 150.24 L 166.17 151.05 C 166.76 151.91 167.93 152.14 168.80 151.56 C 169.66 150.97 169.89 149.80 169.30 148.93 L 168.75 148.12 C 168.17 147.26 166.99 147.03 166.13 147.61 C 165.26 148.20 165.04 149.37 165.62 150.24 Z M 166.11 150.96 L 166.63 151.82 C 167.16 152.72 168.32 153.01 169.22 152.47 C 170.11 151.94 170.41 150.78 169.87 149.88 L 169.36 149.02 C 168.82 148.13 167.66 147.83 166.77 148.37 C 165.87 148.90 165.58 150.06 166.11 150.96 Z M 166.58 151.74 L 167.06 152.63 C 167.55 153.55 168.69 153.90 169.61 153.41 C 170.53 152.92 170.88 151.78 170.39 150.86 L 169.92 149.96 C 169.43 149.04 168.28 148.69 167.36 149.18 C 166.44 149.67 166.09 150.82 166.58 151.74 Z M 167.02 152.56 L 167.46 153.48 C 167.91 154.42 169.04 154.82 169.98 154.37 C 170.92 153.92 171.32 152.79 170.87 151.85 L 170.43 150.93 C 169.98 149.99 168.85 149.59 167.91 150.04 C 166.97 150.49 166.57 151.62 167.02 152.56 Z M 167.43 153.41 L 167.83 154.33 C 168.24 155.29 169.35 155.73 170.31 155.32 C 171.27 154.91 171.71 153.80 171.30 152.84 L 170.90 151.91 C 170.48 150.95 169.37 150.51 168.41 150.93 C 167.46 151.34 167.01 152.45 167.43 153.41 Z M 167.80 154.27 L 168.16 155.20 C 168.54 156.17 169.64 156.65 170.61 156.27 C 171.58 155.89 172.06 154.80 171.68 153.82 L 171.32 152.90 C 170.94 151.93 169.85 151.45 168.88 151.83 C 167.90 152.21 167.42 153.30 167.80 154.27 Z M 168.14 155.13 L 168.49 156.13 C 168.83 157.12 169.91 157.63 170.90 157.29 C 171.88 156.95 172.40 155.87 172.05 154.88 L 171.71 153.89 C 171.36 152.90 170.28 152.38 169.30 152.73 C 168.31 153.07 167.79 154.15 168.14 155.13 Z M 168.47 156.06 L 168.77 157.04 C 169.07 158.04 170.13 158.60 171.13 158.29 C 172.12 157.99 172.68 156.93 172.38 155.93 L 172.08 154.95 C 171.77 153.95 170.71 153.39 169.72 153.70 C 168.72 154.01 168.16 155.06 168.47 156.06 Z M 168.74 156.97 L 169.00 157.93 C 169.26 158.94 170.30 159.54 171.31 159.28 C 172.31 159.01 172.92 157.98 172.65 156.97 L 172.40 156.01 C 172.13 155.00 171.10 154.39 170.09 154.66 C 169.08 154.92 168.48 155.96 168.74 156.97 Z M 168.98 157.85 L 169.19 158.81 C 169.41 159.83 170.42 160.47 171.43 160.25 C 172.45 160.03 173.10 159.02 172.88 158.01 L 172.67 157.05 C 172.45 156.03 171.44 155.38 170.42 155.60 C 169.40 155.83 168.76 156.83 168.98 157.85 Z M 169.17 158.73 L 169.34 159.68 C 169.51 160.71 170.49 161.40 171.52 161.22 C 172.55 161.04 173.24 160.06 173.06 159.04 L 172.89 158.09 C 172.72 157.06 171.74 156.37 170.71 156.55 C 169.68 156.72 168.99 157.70 169.17 158.73 Z M 169.32 159.59 L 169.45 160.57 C 169.58 161.60 170.52 162.34 171.56 162.20 C 172.59 162.07 173.32 161.13 173.19 160.09 L 173.07 159.12 C 172.94 158.09 171.99 157.35 170.96 157.48 C 169.93 157.61 169.19 158.56 169.32 159.59 Z M 169.44 160.48 L 169.52 161.49 C 169.60 162.53 170.51 163.30 171.55 163.22 C 172.59 163.13 173.37 162.22 173.28 161.18 L 173.20 160.18 C 173.12 159.14 172.21 158.36 171.17 158.45 C 170.13 158.53 169.35 159.44 169.44 160.48 Z M 169.51 161.40 L 169.55 162.40 C 169.59 163.45 170.46 164.26 171.50 164.22 C 172.54 164.19 173.36 163.31 173.32 162.27 L 173.29 161.27 C 173.25 160.23 172.38 159.41 171.33 159.45 C 170.29 159.48 169.48 160.36 169.51 161.40 Z M 169.55 162.32 L 169.54 163.32 C 169.53 164.36 170.37 165.21 171.41 165.22 C 172.45 165.23 173.31 164.39 173.32 163.35 L 173.32 162.35 C 173.33 161.31 172.50 160.46 171.45 160.45 C 170.41 160.44 169.56 161.28 169.55 162.32 Z M 169.54 163.24 L 169.49 164.23 C 169.44 165.27 170.24 166.16 171.28 166.21 C 172.32 166.27 173.21 165.47 173.26 164.42 L 173.31 163.43 C 173.37 162.39 172.57 161.50 171.52 161.45 C 170.48 161.40 169.60 162.20 169.54 163.24 Z M 169.50 164.15 L 169.41 165.12 C 169.31 166.16 170.07 167.08 171.11 167.18 C 172.15 167.27 173.07 166.51 173.17 165.47 L 173.26 164.50 C 173.35 163.46 172.59 162.54 171.55 162.45 C 170.51 162.35 169.59 163.11 169.50 164.15 Z M 169.41 165.04 L 169.29 165.94 C 169.15 166.97 169.87 167.92 170.91 168.06 C 171.94 168.20 172.89 167.48 173.03 166.45 L 173.16 165.55 C 173.30 164.52 172.57 163.57 171.54 163.43 C 170.51 163.28 169.56 164.01 169.41 165.04 Z M 169.31 165.83 L 169.13 166.74 C 168.94 167.76 169.61 168.75 170.63 168.95 C 171.65 169.15 172.64 168.48 172.84 167.46 L 173.02 166.55 C 173.21 165.53 172.54 164.54 171.52 164.34 C 170.50 164.14 169.51 164.81 169.31 165.83 Z M 169.16 166.62 L 168.92 167.55 C 168.66 168.56 169.26 169.59 170.27 169.85 C 171.28 170.12 172.31 169.51 172.57 168.50 L 172.81 167.58 C 173.08 166.57 172.47 165.53 171.47 165.27 C 170.46 165.01 169.43 165.61 169.16 166.62 Z M 168.96 167.42 L 168.63 168.39 C 168.30 169.38 168.83 170.45 169.81 170.78 C 170.80 171.11 171.87 170.58 172.21 169.60 L 172.53 168.63 C 172.87 167.64 172.34 166.57 171.35 166.24 C 170.36 165.90 169.29 166.43 168.96 167.42 Z M 168.68 168.26 L 168.25 169.28 C 167.85 170.24 168.30 171.35 169.26 171.75 C 170.22 172.15 171.33 171.70 171.73 170.74 L 172.16 169.72 C 172.56 168.76 172.11 167.65 171.15 167.25 C 170.19 166.85 169.08 167.30 168.68 168.26 Z M 168.30 169.17 L 167.82 170.13 C 167.36 171.06 167.74 172.20 168.67 172.66 C 169.61 173.13 170.74 172.75 171.20 171.81 L 171.68 170.85 C 172.15 169.92 171.77 168.78 170.83 168.32 C 169.90 167.85 168.77 168.23 168.30 169.17 Z M 167.87 170.05 L 167.40 170.88 C 166.89 171.79 167.21 172.94 168.12 173.45 C 169.03 173.96 170.18 173.64 170.69 172.73 L 171.16 171.89 C 171.67 170.98 171.35 169.83 170.44 169.32 C 169.53 168.81 168.38 169.14 167.87 170.05 Z M 167.44 170.82 L 166.92 171.67 C 166.37 172.56 166.65 173.72 167.54 174.26 C 168.43 174.81 169.59 174.53 170.13 173.64 L 170.66 172.79 C 171.20 171.90 170.92 170.74 170.03 170.19 C 169.15 169.65 167.98 169.93 167.44 170.82 Z M 166.95 171.61 L 166.38 172.47 C 165.81 173.33 166.04 174.51 166.91 175.08 C 167.78 175.66 168.95 175.42 169.53 174.56 L 170.10 173.70 C 170.67 172.83 170.44 171.66 169.57 171.08 C 168.70 170.51 167.53 170.74 166.95 171.61 Z M 166.42 172.41 L 165.82 173.26 C 165.21 174.10 165.41 175.28 166.25 175.89 C 167.10 176.50 168.28 176.30 168.88 175.45 L 169.49 174.61 C 170.10 173.76 169.90 172.58 169.06 171.98 C 168.21 171.37 167.03 171.57 166.42 172.41 Z M 165.86 173.20 L 165.23 174.02 C 164.59 174.85 164.74 176.03 165.56 176.67 C 166.39 177.30 167.57 177.15 168.21 176.33 L 168.84 175.51 C 169.48 174.69 169.33 173.50 168.50 172.86 C 167.68 172.23 166.50 172.38 165.86 173.20 Z M 165.27 173.97 L 164.62 174.75 C 163.95 175.54 164.06 176.73 164.86 177.40 C 165.65 178.07 166.84 177.96 167.51 177.16 L 168.16 176.39 C 168.83 175.59 168.73 174.40 167.93 173.73 C 167.13 173.06 165.94 173.17 165.27 173.97 Z M 164.67 174.68 L 164.01 175.41 C 163.31 176.18 163.36 177.37 164.13 178.07 C 164.90 178.77 166.09 178.72 166.80 177.95 L 167.46 177.23 C 168.16 176.46 168.10 175.26 167.34 174.56 C 166.57 173.86 165.37 173.92 164.67 174.68 Z M 164.09 175.34 L 163.33 176.08 C 162.59 176.81 162.58 178.00 163.31 178.74 C 164.04 179.48 165.23 179.49 165.97 178.76 L 166.72 178.02 C 167.46 177.29 167.47 176.10 166.74 175.36 C 166.02 174.62 164.83 174.61 164.09 175.34 Z M 163.44 176.00 L 162.62 176.70 C 161.83 177.37 161.74 178.55 162.41 179.33 C 163.08 180.12 164.26 180.21 165.04 179.54 L 165.86 178.84 C 166.64 178.17 166.74 177.00 166.07 176.21 C 165.40 175.43 164.22 175.33 163.44 176.00 Z M 162.75 176.62 L 161.92 177.21 C 161.09 177.81 160.91 178.97 161.50 179.80 C 162.10 180.62 163.25 180.81 164.08 180.22 L 164.91 179.62 C 165.74 179.03 165.93 177.87 165.33 177.04 C 164.73 176.21 163.58 176.02 162.75 176.62 Z M 162.07 177.14 L 161.23 177.63 C 160.36 178.15 160.07 179.27 160.59 180.14 C 161.10 181.02 162.23 181.30 163.10 180.79 L 163.94 180.29 C 164.81 179.78 165.09 178.65 164.58 177.78 C 164.06 176.91 162.94 176.62 162.07 177.14 Z M 161.39 177.57 L 160.53 177.97 C 159.63 178.40 159.24 179.48 159.67 180.39 C 160.09 181.30 161.18 181.69 162.08 181.26 L 162.94 180.85 C 163.85 180.43 164.23 179.34 163.81 178.44 C 163.38 177.53 162.30 177.14 161.39 177.57 Z M 160.69 177.93 L 159.81 178.25 C 158.88 178.58 158.39 179.62 158.73 180.55 C 159.07 181.48 160.10 181.97 161.04 181.63 L 161.92 181.31 C 162.85 180.97 163.34 179.94 163.00 179.00 C 162.66 178.07 161.63 177.59 160.69 177.93 Z M 159.97 178.22 L 159.05 178.46 C 158.10 178.71 157.54 179.69 157.79 180.64 C 158.04 181.59 159.01 182.15 159.96 181.90 L 160.88 181.66 C 161.83 181.40 162.39 180.43 162.14 179.48 C 161.89 178.53 160.92 177.97 159.97 178.22 Z M 159.19 178.46 L 158.25 178.63 C 157.30 178.80 156.67 179.72 156.84 180.67 C 157.02 181.62 157.93 182.25 158.88 182.08 L 159.83 181.90 C 160.78 181.73 161.41 180.81 161.23 179.86 C 161.06 178.91 160.14 178.28 159.19 178.46 Z M 158.36 178.64 L 157.39 178.76 C 156.45 178.87 155.77 179.73 155.89 180.68 C 156.00 181.62 156.86 182.29 157.80 182.18 L 158.77 182.06 C 159.72 181.95 160.39 181.09 160.28 180.15 C 160.16 179.20 159.31 178.53 158.36 178.64 Z M 157.47 178.78 L 156.48 178.86 C 155.55 178.92 154.85 179.73 154.91 180.66 C 154.98 181.60 155.79 182.30 156.72 182.23 L 157.72 182.16 C 158.65 182.09 159.35 181.28 159.28 180.35 C 159.22 179.42 158.41 178.72 157.47 178.78 Z M 156.54 178.88 L 155.52 178.92 C 154.61 178.96 153.89 179.73 153.93 180.64 C 153.96 181.56 154.73 182.27 155.65 182.24 L 156.66 182.20 C 157.58 182.17 158.29 181.40 158.26 180.48 C 158.23 179.56 157.45 178.85 156.54 178.88 Z M 155.56 178.95 L 154.54 178.97 C 153.64 178.98 152.92 179.72 152.93 180.62 C 152.94 181.52 153.68 182.24 154.58 182.22 L 155.61 182.21 C 156.51 182.20 157.23 181.46 157.22 180.56 C 157.20 179.66 156.46 178.94 155.56 178.95 Z M 154.56 179.00 L 153.52 179.00 C 152.64 179.00 151.93 179.72 151.93 180.60 C 151.93 181.48 152.65 182.20 153.53 182.20 L 154.56 182.19 C 155.45 182.19 156.16 181.47 156.16 180.59 C 156.16 179.71 155.44 178.99 154.56 179.00 Z M 153.53 179.02 L 153.41 179.02 C 152.53 179.02 151.83 179.72 151.83 180.60 C 151.83 181.47 152.53 182.18 153.41 182.18 L 153.53 182.18 C 154.40 182.18 155.11 181.47 155.11 180.60 C 155.11 179.72 154.40 179.02 153.53 179.02 Z"
      fill="black"
      fill-rule="nonzero" /></svg>