<svg xmlns="http://www.w3.org/2000/svg" width="300" height="300" viewBox="0 0 300 300">
<path d="M 154.22 176.64 L 153.95 177.66 C 153.71 178.55 154.24 179.46 155.13 179.70 C 156.02 179.94 156.93 179.41 157.17 178.52 L 157.44 177.50 C 157.68 176.61 157.15 175.70 156.26 175.46 C 155.37 175.22 154.46 175.75 154.22 176.64 Z M 153.95 177.60 L 153.65 178.60 C 153.38 179.48 153.88 180.42 154.77 180.69 C 155.66 180.96 156.60 180.46 156.87 179.57 L 157.17 178.58 C 157.44 177.69 156.94 176.75 156.05 176.48 C 155.16 176.21 154.22 176.72 153.95 177.60 Z M 153.68 178.47 L 153.32 179.41 C 152.98 180.28 153.42 181.26 154.29 181.60 C 155.16 181.94 156.14 181.50 156.48 180.63 L 156.84 179.69 C 157.17 178.82 156.74 177.84 155.87 177.50 C 155.00 177.17 154.02 177.60 153.68 178.47 Z M 153.39 179.22 L 152.94 180.07 C 152.50 180.90 152.82 181.93 153.65 182.37 C 154.48 182.81 155.52 182.50 155.96 181.66 L 156.41 180.82 C 156.85 179.99 156.53 178.95 155.70 178.51 C 154.86 178.07 153.83 178.39 153.39 179.22 Z M 153.09 179.81 L 152.53 180.54 C 151.94 181.29 152.08 182.37 152.83 182.95 C 153.58 183.53 154.66 183.40 155.25 182.65 L 155.81 181.92 C 156.39 181.17 156.25 180.09 155.50 179.51 C 154.75 178.92 153.67 179.06 153.09 179.81 Z M 152.77 180.27 L 152.11 180.83 C 151.38 181.45 151.29 182.54 151.91 183.27 C 152.53 183.99 153.62 184.08 154.34 183.47 L 155.00 182.91 C 155.73 182.29 155.82 181.20 155.20 180.48 C 154.59 179.75 153.50 179.66 152.77 180.27 Z M 152.39 180.64 L 151.61 181.07 C 150.77 181.53 150.47 182.58 150.93 183.42 C 151.39 184.25 152.44 184.56 153.28 184.10 L 154.06 183.66 C 154.90 183.20 155.20 182.15 154.74 181.31 C 154.28 180.48 153.23 180.17 152.39 180.64 Z M 151.88 180.95 L 150.97 181.26 C 150.06 181.57 149.58 182.55 149.89 183.45 C 150.20 184.36 151.18 184.84 152.09 184.53 L 153.00 184.22 C 153.90 183.91 154.39 182.93 154.08 182.02 C 153.77 181.12 152.79 180.64 151.88 180.95 Z M 151.21 181.19 L 150.17 181.39 C 149.23 181.56 148.61 182.47 148.79 183.41 C 148.96 184.35 149.86 184.97 150.80 184.79 L 151.85 184.60 C 152.79 184.42 153.41 183.52 153.23 182.58 C 153.05 181.64 152.15 181.02 151.21 181.19 Z M 150.37 181.36 L 149.20 181.44 C 148.25 181.50 147.53 182.33 147.59 183.28 C 147.66 184.24 148.48 184.96 149.44 184.90 L 150.60 184.82 C 151.56 184.75 152.28 183.93 152.22 182.97 C 152.15 182.02 151.33 181.30 150.37 181.36 Z M 149.35 181.44 L 148.37 181.42 C 147.42 181.41 146.63 182.17 146.61 183.12 C 146.60 184.08 147.36 184.87 148.32 184.88 L 149.29 184.90 C 150.25 184.91 151.04 184.15 151.05 183.19 C 151.07 182.24 150.30 181.45 149.35 181.44 Z M 148.47 181.43 L 147.52 181.36 C 146.57 181.29 145.74 182.00 145.67 182.95 C 145.60 183.91 146.31 184.74 147.27 184.81 L 148.22 184.88 C 149.17 184.95 150.00 184.23 150.07 183.28 C 150.14 182.33 149.43 181.50 148.47 181.43 Z M 147.61 181.37 L 146.62 181.24 C 145.67 181.13 144.81 181.80 144.69 182.75 C 144.58 183.69 145.25 184.56 146.20 184.67 L 147.18 184.80 C 148.13 184.91 148.99 184.24 149.11 183.29 C 149.23 182.35 148.55 181.48 147.61 181.37 Z M 146.70 181.26 L 145.69 181.09 C 144.75 180.92 143.86 181.56 143.70 182.49 C 143.54 183.43 144.17 184.33 145.11 184.49 L 146.12 184.66 C 147.06 184.82 147.95 184.19 148.11 183.25 C 148.27 182.31 147.64 181.42 146.70 181.26 Z M 145.77 181.10 L 144.76 180.88 C 143.83 180.68 142.91 181.27 142.71 182.20 C 142.50 183.13 143.09 184.04 144.02 184.25 L 145.03 184.47 C 145.96 184.67 146.88 184.09 147.09 183.16 C 147.29 182.23 146.70 181.31 145.77 181.10 Z M 144.84 180.90 L 143.84 180.63 C 142.92 180.39 141.97 180.93 141.73 181.85 C 141.48 182.77 142.02 183.71 142.94 183.96 L 143.94 184.23 C 144.86 184.47 145.81 183.93 146.05 183.01 C 146.30 182.09 145.76 181.15 144.84 180.90 Z M 143.92 180.66 L 142.94 180.34 C 142.04 180.05 141.07 180.55 140.78 181.45 C 140.48 182.36 140.98 183.33 141.88 183.62 L 142.86 183.93 C 143.76 184.22 144.73 183.73 145.02 182.82 C 145.32 181.92 144.82 180.95 143.92 180.66 Z M 143.03 180.38 L 142.06 180.01 C 141.18 179.66 140.18 180.11 139.84 180.99 C 139.50 181.88 139.94 182.87 140.83 183.21 L 141.80 183.58 C 142.68 183.92 143.67 183.48 144.01 182.60 C 144.36 181.71 143.91 180.72 143.03 180.38 Z M 142.16 180.05 L 141.18 179.60 C 140.32 179.21 139.30 179.58 138.90 180.45 C 138.51 181.31 138.89 182.32 139.75 182.72 L 140.73 183.17 C 141.59 183.56 142.61 183.18 143.00 182.32 C 143.40 181.46 143.02 180.44 142.16 180.05 Z M 141.27 179.65 L 140.34 179.16 C 139.51 178.71 138.47 179.03 138.03 179.86 C 137.58 180.70 137.90 181.73 138.73 182.18 L 139.66 182.67 C 140.49 183.11 141.53 182.80 141.97 181.96 C 142.42 181.13 142.10 180.09 141.27 179.65 Z M 140.42 179.20 L 139.56 178.68 C 138.75 178.19 137.70 178.45 137.21 179.26 C 136.72 180.07 136.98 181.12 137.79 181.61 L 138.65 182.13 C 139.46 182.62 140.51 182.36 141.00 181.55 C 141.49 180.74 141.23 179.69 140.42 179.20 Z M 139.62 178.73 L 138.81 178.18 C 138.02 177.65 136.96 177.86 136.44 178.64 C 135.91 179.42 136.12 180.48 136.90 181.01 L 137.72 181.56 C 138.50 182.09 139.56 181.88 140.09 181.10 C 140.61 180.31 140.41 179.25 139.62 178.73 Z M 138.86 178.22 L 138.09 177.65 C 137.34 177.09 136.27 177.26 135.71 178.02 C 135.15 178.77 135.32 179.84 136.07 180.40 L 136.84 180.97 C 137.60 181.52 138.67 181.36 139.23 180.60 C 139.79 179.84 139.62 178.78 138.86 178.22 Z M 138.14 177.69 L 137.41 177.12 C 136.68 176.53 135.61 176.66 135.02 177.40 C 134.44 178.13 134.56 179.20 135.30 179.79 L 136.03 180.36 C 136.77 180.94 137.84 180.82 138.42 180.08 C 139.00 179.34 138.88 178.27 138.14 177.69 Z M 137.45 177.15 L 136.69 176.50 C 135.96 175.90 134.89 176.00 134.29 176.72 C 133.68 177.44 133.78 178.51 134.50 179.11 L 135.27 179.76 C 135.99 180.36 137.06 180.27 137.66 179.55 C 138.27 178.83 138.17 177.75 137.45 177.15 Z M 136.72 176.53 L 135.94 175.84 C 135.24 175.22 134.16 175.28 133.54 175.99 C 132.91 176.69 132.98 177.77 133.68 178.39 L 134.46 179.08 C 135.16 179.71 136.24 179.64 136.87 178.94 C 137.49 178.24 137.43 177.16 136.72 176.53 Z M 135.98 175.88 L 135.25 175.19 C 134.56 174.54 133.48 174.57 132.84 175.26 C 132.19 175.95 132.22 177.03 132.91 177.67 L 133.64 178.36 C 134.33 179.01 135.41 178.97 136.06 178.29 C 136.70 177.60 136.67 176.52 135.98 175.88 Z M 135.29 175.22 L 134.59 174.52 C 133.92 173.86 132.84 173.86 132.17 174.53 C 131.51 175.20 131.51 176.28 132.18 176.95 L 132.87 177.64 C 133.54 178.31 134.62 178.30 135.29 177.63 C 135.96 176.96 135.95 175.88 135.29 175.22 Z M 134.62 174.55 L 133.96 173.85 C 133.30 173.17 132.22 173.14 131.54 173.80 C 130.85 174.45 130.83 175.53 131.48 176.22 L 132.14 176.92 C 132.80 177.60 133.88 177.63 134.56 176.97 C 135.25 176.32 135.27 175.24 134.62 174.55 Z M 133.99 173.88 L 133.34 173.17 C 132.70 172.47 131.62 172.42 130.92 173.05 C 130.22 173.69 130.17 174.78 130.80 175.48 L 131.45 176.19 C 132.08 176.89 133.17 176.94 133.87 176.31 C 134.57 175.67 134.62 174.58 133.99 173.88 Z M 133.37 173.20 L 132.71 172.44 C 132.09 171.73 131.01 171.65 130.29 172.27 C 129.57 172.89 129.50 173.98 130.12 174.69 L 130.77 175.45 C 131.39 176.17 132.48 176.24 133.20 175.62 C 133.91 175.00 133.99 173.92 133.37 173.20 Z M 132.75 172.48 L 132.11 171.70 C 131.51 170.97 130.42 170.86 129.69 171.46 C 128.95 172.07 128.85 173.15 129.45 173.89 L 130.09 174.66 C 130.69 175.39 131.77 175.50 132.51 174.90 C 133.24 174.29 133.35 173.21 132.75 172.48 Z M 132.15 171.74 L 131.53 170.95 C 130.95 170.20 129.87 170.06 129.12 170.64 C 128.36 171.22 128.22 172.30 128.80 173.05 L 129.42 173.85 C 130.00 174.60 131.08 174.74 131.83 174.16 C 132.59 173.58 132.73 172.50 132.15 171.74 Z M 131.57 171.00 L 130.99 170.18 C 130.44 169.41 129.36 169.23 128.58 169.78 C 127.81 170.34 127.63 171.42 128.18 172.19 L 128.77 173.01 C 129.32 173.78 130.40 173.96 131.17 173.41 C 131.95 172.85 132.13 171.77 131.57 171.00 Z M 131.03 170.24 L 130.49 169.41 C 129.96 168.61 128.89 168.38 128.09 168.91 C 127.29 169.43 127.07 170.51 127.59 171.30 L 128.14 172.14 C 128.67 172.94 129.74 173.16 130.54 172.63 C 131.34 172.11 131.56 171.04 131.03 170.24 Z M 130.53 169.47 L 130.02 168.61 C 129.53 167.79 128.46 167.52 127.64 168.00 C 126.82 168.49 126.55 169.56 127.04 170.38 L 127.55 171.24 C 128.04 172.06 129.10 172.33 129.93 171.84 C 130.75 171.35 131.02 170.29 130.53 169.47 Z M 130.06 168.68 L 129.59 167.79 C 129.14 166.95 128.09 166.63 127.24 167.08 C 126.40 167.53 126.08 168.58 126.53 169.42 L 127.00 170.31 C 127.45 171.15 128.50 171.47 129.34 171.02 C 130.19 170.57 130.51 169.53 130.06 168.68 Z M 129.63 167.87 L 129.21 166.97 C 128.80 166.10 127.77 165.72 126.90 166.13 C 126.03 166.53 125.66 167.57 126.06 168.43 L 126.48 169.34 C 126.89 170.21 127.92 170.58 128.79 170.18 C 129.66 169.77 130.03 168.74 129.63 167.87 Z M 129.24 167.05 L 128.87 166.13 C 128.52 165.24 127.51 164.80 126.62 165.16 C 125.73 165.52 125.29 166.53 125.65 167.42 L 126.02 168.35 C 126.38 169.24 127.39 169.67 128.28 169.31 C 129.17 168.96 129.60 167.94 129.24 167.05 Z M 128.91 166.22 L 128.60 165.28 C 128.29 164.37 127.31 163.88 126.40 164.18 C 125.49 164.48 125.00 165.47 125.30 166.38 L 125.61 167.32 C 125.92 168.23 126.90 168.72 127.81 168.42 C 128.72 168.12 129.21 167.13 128.91 166.22 Z M 128.63 165.38 L 128.38 164.42 C 128.13 163.49 127.18 162.94 126.25 163.18 C 125.32 163.43 124.77 164.38 125.01 165.31 L 125.26 166.27 C 125.51 167.20 126.46 167.76 127.39 167.51 C 128.32 167.27 128.88 166.31 128.63 165.38 Z M 128.41 164.53 L 128.21 163.55 C 128.02 162.60 127.10 161.99 126.16 162.18 C 125.21 162.37 124.60 163.29 124.79 164.23 L 124.98 165.21 C 125.17 166.15 126.09 166.77 127.04 166.58 C 127.98 166.39 128.59 165.47 128.41 164.53 Z M 128.23 163.64 L 128.09 162.65 C 127.95 161.69 127.06 161.03 126.10 161.17 C 125.14 161.31 124.48 162.20 124.62 163.16 L 124.77 164.14 C 124.91 165.10 125.79 165.76 126.75 165.62 C 127.71 165.48 128.37 164.59 128.23 163.64 Z M 128.10 162.72 L 128.00 161.73 C 127.90 160.76 127.04 160.06 126.07 160.16 C 125.10 160.26 124.40 161.12 124.50 162.09 L 124.60 163.08 C 124.70 164.05 125.57 164.75 126.54 164.65 C 127.50 164.55 128.20 163.69 128.10 162.72 Z M 128.01 161.78 L 127.94 160.78 C 127.87 159.81 127.03 159.08 126.06 159.14 C 125.08 159.21 124.35 160.06 124.42 161.03 L 124.49 162.03 C 124.56 163.01 125.40 163.74 126.38 163.67 C 127.35 163.60 128.08 162.76 128.01 161.78 Z M 127.95 160.82 L 127.90 159.82 C 127.86 158.84 127.03 158.09 126.05 158.13 C 125.07 158.18 124.32 159.01 124.36 159.99 L 124.41 160.99 C 124.46 161.97 125.29 162.72 126.27 162.68 C 127.24 162.63 128.00 161.80 127.95 160.82 Z M 127.91 159.86 L 127.88 158.86 C 127.86 157.88 127.04 157.11 126.06 157.13 C 125.08 157.16 124.30 157.98 124.33 158.96 L 124.36 159.95 C 124.38 160.93 125.20 161.71 126.18 161.68 C 127.16 161.66 127.94 160.84 127.91 159.86 Z M 127.89 158.92 L 127.89 157.93 C 127.90 156.95 127.11 156.14 126.12 156.14 C 125.14 156.13 124.34 156.92 124.33 157.91 L 124.33 158.90 C 124.32 159.88 125.11 160.69 126.10 160.69 C 127.08 160.70 127.88 159.91 127.89 158.92 Z M 127.90 158.01 L 127.95 157.02 C 128.00 156.04 127.25 155.20 126.26 155.14 C 125.28 155.09 124.44 155.84 124.38 156.83 L 124.33 157.82 C 124.28 158.81 125.03 159.65 126.02 159.70 C 127.00 159.75 127.84 159.00 127.90 158.01 Z M 127.94 157.13 L 128.06 156.14 C 128.17 155.16 127.47 154.27 126.49 154.15 C 125.51 154.04 124.62 154.74 124.51 155.72 L 124.39 156.72 C 124.28 157.70 124.98 158.59 125.96 158.70 C 126.94 158.81 127.83 158.11 127.94 157.13 Z M 128.04 156.27 L 128.23 155.28 C 128.42 154.31 127.79 153.37 126.82 153.18 C 125.84 152.99 124.90 153.62 124.72 154.60 L 124.52 155.59 C 124.34 156.56 124.97 157.50 125.94 157.69 C 126.91 157.88 127.85 157.24 128.04 156.27 Z M 128.20 155.42 L 128.47 154.49 C 128.73 153.54 128.18 152.55 127.22 152.28 C 126.27 152.01 125.28 152.56 125.01 153.52 L 124.75 154.45 C 124.48 155.41 125.04 156.40 125.99 156.67 C 126.94 156.93 127.94 156.38 128.20 155.42 Z M 128.42 154.63 L 128.76 153.71 C 129.11 152.78 128.63 151.75 127.70 151.40 C 126.77 151.06 125.73 151.53 125.39 152.47 L 125.05 153.38 C 124.71 154.31 125.18 155.35 126.11 155.69 C 127.05 156.04 128.08 155.56 128.42 154.63 Z M 128.71 153.84 L 129.13 152.94 C 129.54 152.03 129.14 150.96 128.24 150.55 C 127.34 150.13 126.27 150.53 125.85 151.43 L 125.44 152.34 C 125.02 153.24 125.42 154.31 126.33 154.72 C 127.23 155.14 128.30 154.74 128.71 153.84 Z M 129.07 153.06 L 129.56 152.17 C 130.04 151.30 129.72 150.21 128.85 149.72 C 127.98 149.24 126.88 149.56 126.40 150.43 L 125.91 151.31 C 125.43 152.18 125.75 153.28 126.62 153.76 C 127.49 154.24 128.59 153.93 129.07 153.06 Z M 129.49 152.29 L 130.05 151.43 C 130.59 150.60 130.36 149.48 129.53 148.93 C 128.69 148.39 127.57 148.62 127.03 149.46 L 126.47 150.31 C 125.92 151.15 126.16 152.27 126.99 152.81 C 127.83 153.36 128.94 153.12 129.49 152.29 Z M 129.97 151.54 L 130.60 150.73 C 131.21 149.93 131.06 148.80 130.26 148.19 C 129.47 147.59 128.33 147.74 127.73 148.53 L 127.10 149.35 C 126.50 150.14 126.65 151.27 127.44 151.88 C 128.23 152.49 129.37 152.34 129.97 151.54 Z M 130.52 150.83 L 131.19 150.07 C 131.85 149.32 131.78 148.18 131.03 147.52 C 130.28 146.85 129.13 146.93 128.47 147.68 L 127.81 148.43 C 127.14 149.18 127.22 150.32 127.97 150.98 C 128.71 151.65 129.86 151.58 130.52 150.83 Z M 131.11 150.16 L 131.83 149.44 C 132.54 148.73 132.54 147.58 131.83 146.88 C 131.12 146.17 129.97 146.17 129.26 146.88 L 128.55 147.59 C 127.84 148.30 127.84 149.45 128.55 150.16 C 129.26 150.87 130.40 150.87 131.11 150.16 Z M 131.76 149.51 L 132.51 148.84 C 133.26 148.17 133.32 147.02 132.65 146.27 C 131.98 145.52 130.83 145.46 130.08 146.13 L 129.33 146.81 C 128.58 147.48 128.52 148.63 129.19 149.37 C 129.86 150.12 131.01 150.18 131.76 149.51 Z M 132.45 148.90 L 133.23 148.26 C 134.01 147.63 134.12 146.48 133.49 145.70 C 132.85 144.92 131.70 144.80 130.92 145.44 L 130.15 146.07 C 129.37 146.71 129.25 147.86 129.88 148.64 C 130.52 149.42 131.67 149.53 132.45 148.90 Z M 133.17 148.31 L 133.96 147.72 C 134.77 147.11 134.93 145.97 134.33 145.16 C 133.73 144.35 132.58 144.19 131.78 144.79 L 130.98 145.39 C 130.17 145.99 130.01 147.14 130.61 147.94 C 131.22 148.75 132.36 148.91 133.17 148.31 Z M 133.91 147.76 L 134.72 147.20 C 135.55 146.63 135.76 145.49 135.18 144.66 C 134.61 143.82 133.47 143.62 132.64 144.19 L 131.83 144.75 C 131.00 145.33 130.79 146.46 131.36 147.30 C 131.94 148.13 133.08 148.33 133.91 147.76 Z M 134.67 147.24 L 135.54 146.68 C 136.39 146.14 136.64 145.00 136.09 144.15 C 135.55 143.30 134.41 143.05 133.56 143.60 L 132.69 144.15 C 131.84 144.70 131.59 145.83 132.14 146.68 C 132.68 147.54 133.81 147.78 134.67 147.24 Z M 135.49 146.71 L 136.35 146.20 C 137.22 145.68 137.51 144.55 136.99 143.68 C 136.47 142.81 135.35 142.53 134.48 143.05 L 133.61 143.56 C 132.74 144.08 132.46 145.21 132.97 146.08 C 133.49 146.95 134.62 147.23 135.49 146.71 Z M 136.31 146.22 L 137.18 145.74 C 138.06 145.24 138.38 144.13 137.88 143.24 C 137.39 142.36 136.27 142.04 135.38 142.54 L 134.52 143.02 C 133.63 143.52 133.32 144.64 133.81 145.52 C 134.31 146.40 135.43 146.72 136.31 146.22 Z M 137.15 145.76 L 138.01 145.30 C 138.91 144.82 139.24 143.70 138.77 142.81 C 138.29 141.91 137.18 141.58 136.28 142.06 L 135.41 142.52 C 134.52 143.00 134.18 144.11 134.66 145.00 C 135.14 145.90 136.25 146.24 137.15 145.76 Z M 137.99 145.31 L 138.86 144.86 C 139.76 144.39 140.12 143.28 139.65 142.38 C 139.18 141.48 138.07 141.12 137.17 141.59 L 136.30 142.04 C 135.40 142.51 135.05 143.62 135.51 144.52 C 135.98 145.42 137.09 145.78 137.99 145.31 Z M 138.85 144.86 L 139.73 144.42 C 140.63 143.96 140.99 142.85 140.53 141.94 C 140.07 141.04 138.96 140.68 138.05 141.14 L 137.18 141.58 C 136.27 142.05 135.91 143.16 136.38 144.06 C 136.84 144.97 137.95 145.33 138.85 144.86 Z M 139.71 144.43 L 140.59 143.99 C 141.51 143.54 141.88 142.43 141.42 141.52 C 140.97 140.61 139.86 140.24 138.95 140.69 L 138.07 141.13 C 137.16 141.58 136.79 142.69 137.24 143.60 C 137.69 144.51 138.80 144.88 139.71 144.43 Z M 140.57 144.01 L 141.46 143.58 C 142.38 143.14 142.77 142.04 142.34 141.12 C 141.90 140.20 140.80 139.81 139.88 140.25 L 138.98 140.67 C 138.06 141.11 137.67 142.21 138.11 143.13 C 138.54 144.05 139.65 144.44 140.57 144.01 Z M 141.42 143.60 L 142.34 143.19 C 143.27 142.78 143.69 141.68 143.27 140.75 C 142.86 139.82 141.76 139.40 140.83 139.82 L 139.92 140.22 C 138.98 140.64 138.57 141.73 138.98 142.67 C 139.40 143.60 140.49 144.02 141.42 143.60 Z M 142.28 143.22 L 143.22 142.83 C 144.17 142.45 144.62 141.37 144.24 140.42 C 143.85 139.47 142.77 139.02 141.82 139.41 L 140.89 139.79 C 139.94 140.18 139.49 141.26 139.87 142.20 C 140.26 143.15 141.34 143.60 142.28 143.22 Z M 143.16 142.86 L 144.11 142.52 C 145.07 142.17 145.57 141.10 145.22 140.14 C 144.87 139.18 143.81 138.68 142.84 139.03 L 141.89 139.38 C 140.93 139.73 140.43 140.79 140.78 141.75 C 141.13 142.72 142.20 143.21 143.16 142.86 Z M 144.04 142.54 L 144.99 142.24 C 145.97 141.93 146.51 140.89 146.20 139.91 C 145.89 138.93 144.85 138.39 143.87 138.70 L 142.92 139.01 C 141.94 139.32 141.40 140.36 141.71 141.34 C 142.02 142.31 143.06 142.85 144.04 142.54 Z M 144.92 142.26 L 145.89 142.00 C 146.88 141.72 147.46 140.70 147.19 139.71 C 146.92 138.72 145.90 138.14 144.91 138.41 L 143.94 138.68 C 142.95 138.95 142.37 139.97 142.64 140.96 C 142.91 141.95 143.93 142.53 144.92 142.26 Z M 145.82 142.02 L 146.81 141.79 C 147.81 141.55 148.43 140.55 148.19 139.55 C 147.96 138.55 146.96 137.93 145.96 138.16 L 144.98 138.39 C 143.98 138.63 143.36 139.63 143.59 140.63 C 143.82 141.63 144.82 142.25 145.82 142.02 Z M 146.74 141.80 L 147.72 141.61 C 148.73 141.42 149.39 140.44 149.19 139.43 C 149.00 138.42 148.02 137.76 147.01 137.96 L 146.03 138.15 C 145.02 138.34 144.36 139.32 144.55 140.33 C 144.75 141.34 145.73 142.00 146.74 141.80 Z M 147.65 141.63 L 148.63 141.48 C 149.65 141.32 150.35 140.37 150.19 139.35 C 150.03 138.33 149.08 137.63 148.06 137.79 L 147.08 137.94 C 146.06 138.10 145.37 139.05 145.52 140.07 C 145.68 141.09 146.63 141.78 147.65 141.63 Z M 148.56 141.49 L 149.56 141.37 C 150.59 141.26 151.32 140.33 151.21 139.31 C 151.09 138.28 150.17 137.55 149.14 137.66 L 148.14 137.78 C 147.11 137.89 146.38 138.82 146.49 139.84 C 146.61 140.87 147.53 141.60 148.56 141.49 Z M 149.48 141.38 L 150.49 141.31 C 151.52 141.24 152.30 140.35 152.23 139.32 C 152.16 138.30 151.27 137.52 150.24 137.59 L 149.23 137.65 C 148.20 137.72 147.42 138.61 147.49 139.64 C 147.56 140.67 148.45 141.45 149.48 141.38 Z M 150.40 141.32 L 151.40 141.30 C 152.43 141.29 153.25 140.44 153.24 139.41 C 153.22 138.38 152.37 137.55 151.34 137.57 L 150.34 137.58 C 149.31 137.60 148.48 138.45 148.50 139.48 C 148.52 140.51 149.36 141.33 150.40 141.32 Z M 151.29 141.30 L 152.28 141.34 C 153.31 141.39 154.18 140.59 154.22 139.56 C 154.27 138.53 153.47 137.65 152.44 137.61 L 151.45 137.57 C 150.42 137.52 149.55 138.32 149.50 139.35 C 149.46 140.39 150.26 141.26 151.29 141.30 Z M 152.16 141.34 L 153.14 141.44 C 154.16 141.55 155.08 140.81 155.19 139.78 C 155.30 138.75 154.56 137.83 153.53 137.72 L 152.56 137.62 C 151.53 137.51 150.61 138.25 150.50 139.28 C 150.39 140.31 151.13 141.23 152.16 141.34 Z M 153.01 141.42 L 153.97 141.59 C 154.98 141.77 155.95 141.09 156.13 140.07 C 156.31 139.05 155.63 138.09 154.61 137.91 L 153.66 137.74 C 152.64 137.56 151.67 138.24 151.49 139.26 C 151.32 140.28 152.00 141.24 153.01 141.42 Z M 153.85 141.56 L 154.75 141.79 C 155.76 142.03 156.77 141.42 157.01 140.41 C 157.26 139.41 156.64 138.40 155.64 138.15 L 154.73 137.93 C 153.73 137.69 152.72 138.30 152.47 139.31 C 152.23 140.31 152.84 141.32 153.85 141.56 Z M 154.65 141.76 L 155.56 142.04 C 156.54 142.34 157.59 141.79 157.90 140.80 C 158.20 139.82 157.65 138.77 156.66 138.47 L 155.75 138.18 C 154.76 137.88 153.72 138.43 153.41 139.42 C 153.11 140.41 153.66 141.45 154.65 141.76 Z M 155.46 142.01 L 156.39 142.35 C 157.36 142.70 158.43 142.21 158.79 141.24 C 159.14 140.27 158.65 139.19 157.68 138.84 L 156.75 138.50 C 155.79 138.14 154.71 138.64 154.35 139.61 C 154.00 140.58 154.49 141.65 155.46 142.01 Z M 156.31 142.32 L 157.25 142.71 C 158.21 143.11 159.30 142.67 159.70 141.71 C 160.10 140.76 159.65 139.67 158.70 139.27 L 157.76 138.87 C 156.81 138.47 155.71 138.92 155.31 139.87 C 154.91 140.82 155.36 141.92 156.31 142.32 Z M 157.19 142.68 L 158.16 143.14 C 159.10 143.57 160.21 143.17 160.65 142.23 C 161.08 141.30 160.68 140.18 159.74 139.75 L 158.77 139.29 C 157.83 138.86 156.72 139.26 156.28 140.20 C 155.85 141.14 156.25 142.25 157.19 142.68 Z M 158.11 143.11 L 159.04 143.58 C 159.96 144.04 161.08 143.67 161.54 142.74 C 162.01 141.82 161.63 140.70 160.71 140.23 L 159.79 139.77 C 158.87 139.31 157.74 139.68 157.28 140.60 C 156.82 141.53 157.19 142.65 158.11 143.11 Z M 159.00 143.56 L 159.88 144.02 C 160.79 144.51 161.92 144.16 162.41 143.25 C 162.89 142.34 162.54 141.21 161.63 140.72 L 160.75 140.25 C 159.84 139.77 158.71 140.12 158.22 141.03 C 157.74 141.94 158.08 143.07 159.00 143.56 Z M 159.84 144.00 L 160.73 144.50 C 161.63 145.01 162.77 144.69 163.28 143.79 C 163.78 142.89 163.46 141.75 162.56 141.24 L 161.67 140.74 C 160.77 140.24 159.63 140.56 159.13 141.46 C 158.62 142.36 158.94 143.50 159.84 144.00 Z M 160.69 144.48 L 161.58 145.00 C 162.46 145.53 163.61 145.24 164.14 144.35 C 164.66 143.46 164.37 142.32 163.48 141.79 L 162.60 141.27 C 161.71 140.74 160.56 141.03 160.04 141.92 C 159.51 142.81 159.81 143.95 160.69 144.48 Z M 161.54 144.98 L 162.40 145.52 C 163.27 146.07 164.43 145.81 164.97 144.93 C 165.52 144.06 165.26 142.91 164.39 142.36 L 163.52 141.81 C 162.65 141.27 161.50 141.53 160.95 142.40 C 160.40 143.28 160.66 144.43 161.54 144.98 Z M 162.35 145.49 L 163.18 146.05 C 164.04 146.62 165.20 146.39 165.77 145.53 C 166.35 144.68 166.12 143.52 165.26 142.94 L 164.43 142.39 C 163.57 141.81 162.41 142.04 161.84 142.90 C 161.27 143.76 161.49 144.92 162.35 145.49 Z M 163.13 146.01 L 163.91 146.57 C 164.74 147.17 165.91 146.98 166.51 146.15 C 167.12 145.31 166.93 144.14 166.09 143.54 L 165.31 142.98 C 164.47 142.37 163.31 142.56 162.70 143.40 C 162.10 144.24 162.29 145.41 163.13 146.01 Z M 163.84 146.52 L 164.70 147.20 C 165.50 147.84 166.68 147.70 167.32 146.90 C 167.96 146.09 167.83 144.91 167.02 144.27 L 166.16 143.59 C 165.35 142.95 164.17 143.08 163.53 143.89 C 162.89 144.70 163.03 145.88 163.84 146.52 Z M 164.61 147.12 L 165.38 147.82 C 166.15 148.51 167.33 148.45 168.02 147.68 C 168.71 146.92 168.65 145.74 167.88 145.05 L 167.11 144.35 C 166.34 143.65 165.16 143.72 164.47 144.48 C 163.78 145.25 163.84 146.43 164.61 147.12 Z M 165.28 147.73 L 165.97 148.44 C 166.68 149.19 167.87 149.22 168.61 148.51 C 169.36 147.79 169.39 146.61 168.67 145.86 L 167.99 145.14 C 167.27 144.40 166.09 144.37 165.34 145.08 C 164.60 145.80 164.57 146.98 165.28 147.73 Z M 165.86 148.32 L 166.46 149.07 C 167.10 149.88 168.28 150.01 169.09 149.36 C 169.89 148.72 170.02 147.54 169.38 146.73 L 168.78 145.98 C 168.14 145.18 166.96 145.05 166.15 145.69 C 165.34 146.34 165.21 147.52 165.86 148.32 Z M 166.35 148.92 L 166.86 149.71 C 167.42 150.57 168.58 150.82 169.45 150.25 C 170.32 149.69 170.56 148.53 170.00 147.66 L 169.49 146.88 C 168.92 146.01 167.76 145.77 166.90 146.33 C 166.03 146.90 165.79 148.06 166.35 148.92 Z M 166.76 149.54 L 167.19 150.37 C 167.66 151.29 168.79 151.66 169.71 151.18 C 170.63 150.71 171.00 149.58 170.52 148.66 L 170.09 147.83 C 169.62 146.91 168.49 146.55 167.57 147.02 C 166.65 147.49 166.29 148.62 166.76 149.54 Z M 167.12 150.21 L 167.47 151.10 C 167.85 152.06 168.94 152.53 169.90 152.15 C 170.86 151.77 171.33 150.68 170.95 149.72 L 170.60 148.83 C 170.22 147.87 169.13 147.40 168.17 147.78 C 167.21 148.16 166.74 149.25 167.12 150.21 Z M 167.42 150.95 L 167.70 151.89 C 168.00 152.88 169.05 153.44 170.04 153.14 C 171.03 152.84 171.59 151.79 171.29 150.80 L 171.00 149.86 C 170.70 148.87 169.66 148.31 168.67 148.61 C 167.68 148.91 167.12 149.96 167.42 150.95 Z M 167.67 151.76 L 167.89 152.74 C 168.12 153.75 169.13 154.38 170.14 154.15 C 171.15 153.92 171.78 152.91 171.54 151.90 L 171.32 150.92 C 171.09 149.92 170.08 149.29 169.07 149.52 C 168.07 149.75 167.44 150.75 167.67 151.76 Z M 167.87 152.64 L 168.05 153.66 C 168.22 154.68 169.19 155.36 170.21 155.19 C 171.23 155.01 171.92 154.04 171.74 153.02 L 171.57 152.00 C 171.39 150.98 170.42 150.30 169.40 150.48 C 168.38 150.65 167.69 151.62 167.87 152.64 Z M 168.03 153.58 L 168.17 154.62 C 168.30 155.65 169.24 156.37 170.27 156.24 C 171.30 156.11 172.02 155.17 171.89 154.14 L 171.75 153.10 C 171.62 152.07 170.68 151.35 169.65 151.48 C 168.63 151.61 167.90 152.55 168.03 153.58 Z M 168.16 154.56 L 168.26 155.55 C 168.36 156.58 169.28 157.34 170.31 157.24 C 171.34 157.13 172.09 156.22 171.99 155.19 L 171.90 154.20 C 171.79 153.17 170.88 152.41 169.85 152.52 C 168.82 152.62 168.06 153.53 168.16 154.56 Z M 168.25 155.49 L 168.32 156.50 C 168.39 157.53 169.28 158.31 170.32 158.24 C 171.35 158.17 172.13 157.28 172.06 156.24 L 172.00 155.24 C 171.93 154.21 171.03 153.43 170.00 153.50 C 168.97 153.57 168.18 154.46 168.25 155.49 Z M 168.32 156.44 L 168.35 157.45 C 168.39 158.48 169.26 159.29 170.29 159.26 C 171.33 159.22 172.14 158.35 172.10 157.31 L 172.07 156.31 C 172.03 155.27 171.16 154.46 170.13 154.50 C 169.09 154.53 168.28 155.40 168.32 156.44 Z M 168.35 157.38 L 168.35 158.39 C 168.35 159.42 169.19 160.26 170.23 160.26 C 171.26 160.26 172.10 159.43 172.10 158.39 L 172.10 157.38 C 172.10 156.34 171.26 155.50 170.23 155.50 C 169.19 155.50 168.35 156.34 168.35 157.38 Z M 168.35 158.32 L 168.31 159.31 C 168.27 160.35 169.08 161.22 170.12 161.26 C 171.15 161.30 172.02 160.50 172.06 159.46 L 172.10 158.46 C 172.14 157.43 171.34 156.55 170.30 156.51 C 169.27 156.47 168.39 157.28 168.35 158.32 Z M 168.32 159.23 L 168.24 160.22 C 168.15 161.26 168.92 162.16 169.95 162.25 C 170.98 162.33 171.89 161.57 171.98 160.53 L 172.06 159.54 C 172.14 158.51 171.38 157.60 170.34 157.52 C 169.31 157.43 168.40 158.20 168.32 159.23 Z M 168.25 160.13 L 168.11 161.15 C 167.98 162.18 168.70 163.12 169.72 163.26 C 170.75 163.39 171.70 162.67 171.83 161.64 L 171.97 160.63 C 172.10 159.60 171.38 158.66 170.35 158.52 C 169.33 158.38 168.38 159.11 168.25 160.13 Z M 168.13 161.05 L 167.94 162.04 C 167.75 163.06 168.43 164.04 169.45 164.23 C 170.46 164.42 171.44 163.75 171.63 162.73 L 171.82 161.74 C 172.01 160.72 171.33 159.74 170.31 159.55 C 169.29 159.36 168.32 160.03 168.13 161.05 Z M 167.96 161.95 L 167.73 162.92 C 167.49 163.93 168.11 164.94 169.12 165.18 C 170.13 165.42 171.14 164.80 171.38 163.79 L 171.61 162.82 C 171.85 161.81 171.23 160.80 170.22 160.56 C 169.22 160.32 168.20 160.94 167.96 161.95 Z M 167.76 162.83 L 167.48 163.77 C 167.19 164.77 167.76 165.81 168.75 166.10 C 169.75 166.39 170.79 165.82 171.08 164.83 L 171.36 163.88 C 171.65 162.89 171.08 161.84 170.08 161.55 C 169.09 161.26 168.05 161.83 167.76 162.83 Z M 167.51 163.69 L 167.18 164.61 C 166.84 165.59 167.36 166.66 168.34 167.00 C 169.32 167.34 170.39 166.82 170.73 165.84 L 171.05 164.92 C 171.39 163.94 170.87 162.87 169.89 162.53 C 168.92 162.19 167.85 162.71 167.51 163.69 Z M 167.22 164.53 L 166.86 165.43 C 166.47 166.39 166.94 167.49 167.90 167.87 C 168.86 168.26 169.95 167.79 170.34 166.83 L 170.70 165.93 C 171.08 164.96 170.62 163.87 169.65 163.49 C 168.69 163.10 167.60 163.57 167.22 164.53 Z M 166.89 165.35 L 166.49 166.23 C 166.06 167.18 166.48 168.29 167.42 168.72 C 168.37 169.15 169.48 168.73 169.91 167.79 L 170.31 166.90 C 170.73 165.96 170.32 164.85 169.37 164.42 C 168.43 163.99 167.32 164.41 166.89 165.35 Z M 166.53 166.16 L 166.08 167.03 C 165.61 167.95 165.98 169.08 166.90 169.55 C 167.82 170.02 168.95 169.66 169.42 168.73 L 169.87 167.86 C 170.34 166.94 169.97 165.81 169.05 165.34 C 168.13 164.87 167.00 165.23 166.53 166.16 Z M 166.12 166.96 L 165.63 167.83 C 165.12 168.73 165.43 169.87 166.34 170.38 C 167.24 170.89 168.38 170.58 168.89 169.68 L 169.38 168.81 C 169.90 167.91 169.58 166.76 168.68 166.25 C 167.78 165.74 166.63 166.06 166.12 166.96 Z M 165.67 167.76 L 165.13 168.63 C 164.58 169.51 164.85 170.66 165.72 171.21 C 166.60 171.76 167.76 171.49 168.31 170.61 L 168.85 169.75 C 169.40 168.87 169.13 167.71 168.25 167.16 C 167.38 166.61 166.22 166.88 165.67 167.76 Z M 165.17 168.56 L 164.57 169.43 C 163.99 170.29 164.21 171.46 165.07 172.04 C 165.92 172.63 167.09 172.40 167.67 171.55 L 168.27 170.68 C 168.85 169.82 168.63 168.65 167.77 168.07 C 166.92 167.49 165.75 167.71 165.17 168.56 Z M 164.61 169.38 L 164.05 170.14 C 163.44 170.98 163.61 172.15 164.45 172.76 C 165.28 173.38 166.46 173.20 167.07 172.37 L 167.63 171.60 C 168.25 170.77 168.07 169.60 167.23 168.98 C 166.40 168.37 165.23 168.55 164.61 169.38 Z M 164.09 170.09 L 163.49 170.85 C 162.85 171.66 162.98 172.84 163.79 173.48 C 164.60 174.13 165.78 173.99 166.43 173.18 L 167.03 172.42 C 167.67 171.61 167.54 170.43 166.72 169.79 C 165.91 169.14 164.74 169.28 164.09 170.09 Z M 163.53 170.80 L 162.89 171.55 C 162.22 172.34 162.31 173.52 163.10 174.19 C 163.88 174.86 165.06 174.77 165.74 173.99 L 166.38 173.23 C 167.05 172.45 166.96 171.26 166.18 170.59 C 165.39 169.92 164.21 170.01 163.53 170.80 Z M 162.94 171.50 L 162.25 172.24 C 161.55 172.99 161.60 174.18 162.35 174.88 C 163.11 175.58 164.30 175.54 165.00 174.78 L 165.69 174.04 C 166.39 173.28 166.34 172.10 165.59 171.40 C 164.83 170.69 163.64 170.74 162.94 171.50 Z M 162.31 172.18 L 161.58 172.90 C 160.85 173.62 160.84 174.81 161.57 175.54 C 162.30 176.28 163.48 176.28 164.21 175.56 L 164.94 174.84 C 165.68 174.11 165.68 172.93 164.96 172.19 C 164.23 171.46 163.05 171.45 162.31 172.18 Z M 161.65 172.84 L 160.88 173.53 C 160.11 174.22 160.05 175.40 160.74 176.17 C 161.43 176.94 162.61 177.00 163.38 176.31 L 164.15 175.62 C 164.92 174.93 164.98 173.74 164.29 172.98 C 163.60 172.21 162.42 172.15 161.65 172.84 Z M 160.95 173.47 L 160.15 174.13 C 159.35 174.78 159.23 175.96 159.88 176.76 C 160.53 177.56 161.71 177.68 162.51 177.02 L 163.31 176.37 C 164.11 175.72 164.23 174.54 163.58 173.74 C 162.93 172.94 161.75 172.82 160.95 173.47 Z M 160.22 174.07 L 159.39 174.69 C 158.56 175.30 158.38 176.46 158.99 177.29 C 159.60 178.12 160.77 178.30 161.60 177.69 L 162.43 177.08 C 163.26 176.47 163.44 175.30 162.83 174.47 C 162.22 173.64 161.05 173.46 160.22 174.07 Z M 159.46 174.64 L 158.60 175.21 C 157.74 175.78 157.51 176.93 158.08 177.79 C 158.65 178.65 159.80 178.88 160.66 178.31 L 161.52 177.74 C 162.38 177.17 162.61 176.02 162.04 175.16 C 161.47 174.30 160.32 174.07 159.46 174.64 Z M 158.68 175.17 L 157.80 175.69 C 156.92 176.22 156.63 177.36 157.16 178.24 C 157.69 179.12 158.83 179.41 159.71 178.88 L 160.59 178.35 C 161.47 177.83 161.75 176.69 161.23 175.81 C 160.70 174.92 159.56 174.64 158.68 175.17 Z M 157.88 175.65 L 157.00 176.12 C 156.09 176.61 155.76 177.73 156.24 178.64 C 156.72 179.54 157.85 179.88 158.75 179.39 L 159.63 178.92 C 160.54 178.43 160.87 177.31 160.39 176.41 C 159.91 175.50 158.78 175.17 157.88 175.65 Z M 157.08 176.09 L 156.20 176.50 C 155.28 176.94 154.89 178.05 155.32 178.97 C 155.76 179.89 156.87 180.29 157.79 179.85 L 158.67 179.43 C 159.59 178.99 159.99 177.89 159.55 176.96 C 159.11 176.04 158.00 175.65 157.08 176.09 Z M 156.29 176.47 L 155.43 176.82 C 154.48 177.21 154.04 178.30 154.43 179.24 C 154.82 180.18 155.90 180.63 156.84 180.24 L 157.70 179.88 C 158.65 179.49 159.09 178.41 158.70 177.47 C 158.31 176.53 157.23 176.08 156.29 176.47 Z M 155.54 176.80 L 154.55 177.13 C 153.59 177.46 153.08 178.51 153.41 179.47 C 153.74 180.42 154.78 180.94 155.74 180.61 L 156.73 180.27 C 157.69 179.94 158.20 178.90 157.87 177.94 C 157.54 176.98 156.50 176.47 155.54 176.80 Z M 154.69 177.12 L 153.70 177.38 C 152.73 177.63 152.16 178.62 152.41 179.59 C 152.67 180.56 153.66 181.14 154.63 180.88 L 155.61 180.62 C 156.58 180.37 157.16 179.38 156.90 178.41 C 156.64 177.44 155.65 176.86 154.69 177.12 Z M 153.84 177.37 L 152.87 177.55 C 151.90 177.73 151.26 178.66 151.44 179.63 C 151.62 180.61 152.55 181.25 153.52 181.07 L 154.49 180.89 C 155.46 180.71 156.10 179.77 155.92 178.80 C 155.74 177.83 154.81 177.19 153.84 177.37 Z M 153.00 177.56 L 152.03 177.66 C 151.07 177.77 150.37 178.64 150.48 179.61 C 150.58 180.58 151.46 181.28 152.43 181.17 L 153.39 181.06 C 154.36 180.95 155.06 180.08 154.95 179.11 C 154.84 178.15 153.97 177.45 153.00 177.56 Z M 152.15 177.68 L 151.18 177.72 C 150.22 177.76 149.47 178.58 149.52 179.54 C 149.56 180.50 150.37 181.24 151.33 181.20 L 152.31 181.15 C 153.27 181.11 154.01 180.30 153.97 179.34 C 153.93 178.38 153.11 177.63 152.15 177.68 Z M 151.27 177.74 L 150.30 177.73 C 149.35 177.72 148.57 178.48 148.56 179.43 C 148.55 180.38 149.31 181.15 150.26 181.16 L 151.23 181.18 C 152.18 181.19 152.96 180.43 152.97 179.48 C 152.98 178.53 152.22 177.76 151.27 177.74 Z M 150.37 177.76 L 149.41 177.71 C 148.48 177.65 147.68 178.37 147.63 179.30 C 147.57 180.23 148.29 181.03 149.22 181.08 L 150.18 181.14 C 151.12 181.19 151.91 180.48 151.97 179.54 C 152.02 178.61 151.31 177.81 150.37 177.76 Z M 149.46 177.73 L 148.48 177.64 C 147.56 177.56 146.75 178.24 146.67 179.15 C 146.59 180.07 147.26 180.88 148.18 180.97 L 149.16 181.05 C 150.08 181.14 150.89 180.46 150.97 179.54 C 151.06 178.63 150.38 177.82 149.46 177.73 Z M 148.52 177.67 L 147.52 177.56 C 146.62 177.45 145.81 178.10 145.70 179.00 C 145.60 179.90 146.24 180.72 147.14 180.82 L 148.14 180.94 C 149.04 181.04 149.86 180.40 149.96 179.49 C 150.07 178.59 149.42 177.78 148.52 177.67 Z M 147.55 177.59 L 146.54 177.45 C 145.65 177.33 144.84 177.95 144.72 178.84 C 144.60 179.72 145.22 180.54 146.11 180.66 L 147.12 180.79 C 148.00 180.91 148.82 180.29 148.94 179.40 C 149.05 178.52 148.43 177.70 147.55 177.59 Z M 146.55 177.48 L 145.53 177.33 C 144.66 177.20 143.86 177.81 143.73 178.68 C 143.60 179.55 144.21 180.36 145.08 180.48 L 146.10 180.63 C 146.97 180.76 147.77 180.15 147.90 179.28 C 148.03 178.41 147.42 177.60 146.55 177.48 Z M 145.54 177.35 L 145.04 177.28 C 144.18 177.15 143.38 177.74 143.25 178.60 C 143.12 179.46 143.72 180.26 144.58 180.39 L 145.08 180.46 C 145.94 180.59 146.74 180.00 146.86 179.14 C 146.99 178.28 146.40 177.48 145.54 177.35 Z"
      fill="black"
      fill-rule="nonzero" /></svg>