<svg xmlns="http://www.w3.org/2000/svg" width="300" height="300" viewBox="0 0 300 300">
<path d="M 149.00 137.54 L 147.97 137.54 C 147.06 137.54 146.32 138.28 146.32 139.19 C 146.32 140.10 147.06 140.84 147.97 140.84 L 149.00 140.84 C 149.91 140.84 150.65 140.10 150.65 139.19 C 150.65 138.28 149.91 137.54 149.00 137.54 Z M 147.97 137.53 L 146.95 137.53 C 146.03 137.53 145.28 138.28 145.28 139.20 C 145.28 140.12 146.03 140.86 146.95 140.86 L 147.97 140.86 C 148.89 140.86 149.64 140.11 149.64 139.19 C 149.64 138.27 148.89 137.52 147.97 137.53 Z M 146.94 137.51 L 145.92 137.51 C 145.00 137.52 144.25 138.28 144.25 139.21 C 144.25 140.14 145.01 140.89 145.94 140.88 L 146.96 140.88 C 147.89 140.87 148.64 140.11 148.63 139.19 C 148.63 138.26 147.87 137.51 146.94 137.51 Z M 145.92 137.50 L 144.91 137.51 C 143.97 137.51 143.22 138.28 143.23 139.22 C 143.24 140.16 144.00 140.92 144.94 140.91 L 145.95 140.90 C 146.89 140.89 147.64 140.12 147.63 139.18 C 147.62 138.24 146.86 137.49 145.92 137.50 Z M 144.90 137.49 L 143.91 137.50 C 142.96 137.52 142.21 138.30 142.22 139.25 C 142.24 140.20 143.02 140.95 143.97 140.94 L 144.95 140.93 C 145.90 140.91 146.66 140.13 146.65 139.18 C 146.63 138.23 145.85 137.47 144.90 137.49 Z M 143.90 137.49 L 142.93 137.51 C 141.97 137.53 141.21 138.33 141.23 139.29 C 141.26 140.24 142.05 141.00 143.01 140.98 L 143.98 140.96 C 144.94 140.94 145.70 140.14 145.67 139.18 C 145.65 138.22 144.86 137.46 143.90 137.49 Z M 142.91 137.49 L 141.92 137.53 C 140.95 137.56 140.19 138.37 140.22 139.34 C 140.26 140.31 141.07 141.06 142.03 141.03 L 143.03 141.00 C 144.00 140.96 144.75 140.15 144.72 139.19 C 144.69 138.22 143.88 137.46 142.91 137.49 Z M 141.88 137.51 L 140.83 137.57 C 139.85 137.62 139.11 138.46 139.16 139.43 C 139.21 140.41 140.05 141.16 141.02 141.10 L 142.07 141.04 C 143.05 140.99 143.79 140.16 143.74 139.18 C 143.69 138.21 142.85 137.46 141.88 137.51 Z M 140.75 137.56 L 139.74 137.66 C 138.76 137.75 138.04 138.63 138.14 139.61 C 138.23 140.59 139.11 141.31 140.09 141.21 L 141.10 141.11 C 142.08 141.02 142.80 140.14 142.70 139.16 C 142.61 138.18 141.73 137.46 140.75 137.56 Z M 139.62 137.66 L 138.65 137.82 C 137.67 137.98 137.00 138.91 137.16 139.89 C 137.33 140.87 138.25 141.53 139.23 141.37 L 140.21 141.21 C 141.19 141.05 141.85 140.12 141.69 139.14 C 141.53 138.16 140.60 137.50 139.62 137.66 Z M 138.48 137.84 L 137.55 138.08 C 136.58 138.34 136.00 139.33 136.25 140.30 C 136.50 141.27 137.49 141.85 138.46 141.59 L 139.40 141.35 C 140.37 141.10 140.95 140.11 140.69 139.14 C 140.44 138.17 139.45 137.59 138.48 137.84 Z M 137.34 138.14 L 136.45 138.48 C 135.50 138.85 135.04 139.91 135.41 140.85 C 135.77 141.79 136.83 142.26 137.78 141.89 L 138.67 141.54 C 139.61 141.18 140.07 140.12 139.71 139.17 C 139.34 138.23 138.28 137.77 137.34 138.14 Z M 136.22 138.58 L 135.38 139.04 C 134.50 139.53 134.17 140.65 134.67 141.54 C 135.16 142.43 136.28 142.75 137.17 142.26 L 138.00 141.80 C 138.89 141.30 139.21 140.18 138.72 139.29 C 138.23 138.40 137.10 138.08 136.22 138.58 Z M 135.17 139.16 L 134.41 139.73 C 133.59 140.34 133.42 141.50 134.03 142.32 C 134.64 143.14 135.80 143.32 136.62 142.71 L 137.38 142.14 C 138.20 141.53 138.38 140.37 137.77 139.55 C 137.16 138.72 136.00 138.55 135.17 139.16 Z M 134.24 139.87 L 133.52 140.54 C 132.78 141.25 132.74 142.42 133.45 143.17 C 134.15 143.92 135.33 143.95 136.07 143.25 L 136.79 142.57 C 137.53 141.87 137.57 140.69 136.86 139.94 C 136.16 139.20 134.98 139.16 134.24 139.87 Z M 133.38 140.68 L 132.73 141.44 C 132.06 142.23 132.15 143.41 132.93 144.08 C 133.72 144.75 134.89 144.65 135.56 143.87 L 136.22 143.11 C 136.89 142.32 136.79 141.14 136.01 140.47 C 135.23 139.80 134.05 139.90 133.38 140.68 Z M 132.61 141.59 L 132.02 142.43 C 131.43 143.28 131.64 144.45 132.49 145.04 C 133.34 145.63 134.51 145.42 135.10 144.57 L 135.68 143.73 C 136.28 142.88 136.07 141.71 135.22 141.12 C 134.36 140.53 133.20 140.74 132.61 141.59 Z M 131.92 142.58 L 131.41 143.48 C 130.90 144.39 131.23 145.53 132.13 146.04 C 133.04 146.55 134.19 146.23 134.69 145.32 L 135.20 144.42 C 135.71 143.51 135.39 142.37 134.48 141.86 C 133.58 141.35 132.43 141.67 131.92 142.58 Z M 131.33 143.63 L 130.91 144.56 C 130.49 145.52 130.92 146.63 131.87 147.06 C 132.82 147.48 133.94 147.05 134.36 146.10 L 134.78 145.17 C 135.20 144.22 134.78 143.10 133.82 142.68 C 132.87 142.25 131.75 142.68 131.33 143.63 Z M 130.85 144.71 L 130.53 145.64 C 130.18 146.63 130.71 147.71 131.69 148.05 C 132.68 148.39 133.76 147.87 134.10 146.88 L 134.43 145.95 C 134.77 144.96 134.25 143.89 133.26 143.54 C 132.27 143.20 131.19 143.72 130.85 144.71 Z M 130.48 145.77 L 130.23 146.73 C 129.96 147.74 130.56 148.78 131.57 149.05 C 132.58 149.32 133.62 148.72 133.89 147.71 L 134.15 146.75 C 134.42 145.74 133.82 144.70 132.81 144.43 C 131.80 144.16 130.76 144.76 130.48 145.77 Z M 130.20 146.84 L 130.00 147.82 C 129.79 148.85 130.45 149.85 131.48 150.06 C 132.51 150.27 133.51 149.61 133.72 148.58 L 133.92 147.60 C 134.13 146.57 133.47 145.57 132.44 145.36 C 131.41 145.15 130.41 145.81 130.20 146.84 Z M 129.98 147.91 L 129.83 148.91 C 129.67 149.95 130.38 150.92 131.42 151.08 C 132.46 151.23 133.43 150.52 133.59 149.48 L 133.74 148.49 C 133.90 147.45 133.18 146.48 132.15 146.32 C 131.11 146.16 130.14 146.88 129.98 147.91 Z M 129.81 148.98 L 129.70 149.99 C 129.58 151.03 130.34 151.97 131.38 152.09 C 132.43 152.21 133.37 151.46 133.49 150.41 L 133.60 149.41 C 133.72 148.36 132.96 147.42 131.92 147.30 C 130.87 147.19 129.93 147.94 129.81 148.98 Z M 129.69 150.04 L 129.61 151.05 C 129.53 152.10 130.31 153.02 131.36 153.10 C 132.41 153.19 133.33 152.41 133.41 151.36 L 133.49 150.35 C 133.58 149.30 132.80 148.38 131.75 148.30 C 130.70 148.21 129.78 148.99 129.69 150.04 Z M 129.61 151.09 L 129.55 152.05 C 129.49 153.10 130.29 154.01 131.34 154.07 C 132.39 154.13 133.30 153.33 133.36 152.28 L 133.42 151.32 C 133.48 150.26 132.68 149.36 131.62 149.30 C 130.57 149.24 129.67 150.04 129.61 151.09 Z M 129.55 152.09 L 129.51 153.05 C 129.47 154.10 130.29 154.99 131.34 155.03 C 132.40 155.07 133.28 154.25 133.33 153.19 L 133.36 152.24 C 133.40 151.18 132.58 150.30 131.53 150.25 C 130.47 150.21 129.59 151.04 129.55 152.09 Z M 129.51 153.09 L 129.49 154.05 C 129.47 155.11 130.31 155.98 131.37 156.00 C 132.42 156.01 133.29 155.17 133.31 154.12 L 133.33 153.15 C 133.34 152.10 132.50 151.23 131.45 151.21 C 130.40 151.19 129.53 152.03 129.51 153.09 Z M 129.49 154.10 L 129.50 155.08 C 129.50 156.14 130.36 156.99 131.41 156.98 C 132.47 156.98 133.32 156.12 133.31 155.06 L 133.31 154.08 C 133.31 153.02 132.45 152.17 131.39 152.18 C 130.34 152.18 129.49 153.04 129.49 154.10 Z M 129.50 155.12 L 129.52 156.13 C 129.55 157.19 130.43 158.02 131.48 157.99 C 132.54 157.96 133.37 157.09 133.34 156.03 L 133.31 155.02 C 133.29 153.97 132.41 153.14 131.36 153.16 C 130.30 153.19 129.47 154.07 129.50 155.12 Z M 129.53 156.17 L 129.57 157.22 C 129.62 158.27 130.52 159.08 131.57 159.03 C 132.62 158.98 133.44 158.09 133.39 157.04 L 133.34 155.99 C 133.29 154.94 132.40 154.13 131.34 154.18 C 130.29 154.22 129.48 155.12 129.53 156.17 Z M 129.58 157.25 L 129.65 158.31 C 129.72 159.36 130.63 160.16 131.68 160.09 C 132.73 160.02 133.53 159.11 133.46 158.06 L 133.39 157.00 C 133.32 155.95 132.41 155.15 131.35 155.22 C 130.30 155.29 129.51 156.20 129.58 157.25 Z M 129.65 158.34 L 129.72 159.26 C 129.81 160.31 130.73 161.09 131.78 161.00 C 132.84 160.92 133.62 159.99 133.53 158.94 L 133.45 158.03 C 133.37 156.98 132.44 156.20 131.39 156.28 C 130.34 156.37 129.56 157.29 129.65 158.34 Z M 129.73 159.29 L 129.82 160.23 C 129.92 161.28 130.86 162.05 131.91 161.95 C 132.96 161.84 133.72 160.91 133.62 159.86 L 133.53 158.92 C 133.42 157.87 132.49 157.10 131.44 157.20 C 130.39 157.30 129.62 158.24 129.73 159.29 Z M 129.82 160.26 L 129.93 161.23 C 130.05 162.28 131.00 163.03 132.04 162.91 C 133.09 162.79 133.85 161.85 133.73 160.80 L 133.62 159.83 C 133.50 158.78 132.55 158.03 131.50 158.15 C 130.46 158.27 129.70 159.21 129.82 160.26 Z M 129.94 161.26 L 130.06 162.25 C 130.20 163.29 131.16 164.03 132.20 163.90 C 133.25 163.76 133.99 162.80 133.85 161.76 L 133.72 160.77 C 133.59 159.72 132.63 158.98 131.58 159.12 C 130.54 159.25 129.80 160.21 129.94 161.26 Z M 130.07 162.28 L 130.22 163.28 C 130.37 164.33 131.34 165.05 132.38 164.90 C 133.42 164.74 134.15 163.78 133.99 162.73 L 133.85 161.73 C 133.69 160.68 132.73 159.96 131.68 160.11 C 130.64 160.26 129.92 161.23 130.07 162.28 Z M 130.22 163.32 L 130.39 164.34 C 130.56 165.38 131.54 166.08 132.58 165.91 C 133.62 165.74 134.33 164.76 134.16 163.72 L 133.99 162.70 C 133.82 161.66 132.84 160.95 131.80 161.12 C 130.76 161.29 130.05 162.27 130.22 163.32 Z M 130.39 164.37 L 130.58 165.40 C 130.77 166.44 131.76 167.13 132.80 166.94 C 133.84 166.75 134.52 165.76 134.34 164.72 L 134.15 163.69 C 133.96 162.65 132.97 161.96 131.93 162.15 C 130.89 162.34 130.20 163.33 130.39 164.37 Z M 130.59 165.43 L 130.79 166.47 C 131.00 167.51 132.01 168.18 133.04 167.97 C 134.08 167.76 134.75 166.76 134.54 165.72 L 134.33 164.68 C 134.12 163.65 133.12 162.98 132.08 163.19 C 131.05 163.39 130.38 164.40 130.59 165.43 Z M 130.80 166.51 L 131.01 167.44 C 131.23 168.47 132.25 169.12 133.28 168.89 C 134.31 168.66 134.96 167.65 134.73 166.62 L 134.53 165.69 C 134.30 164.66 133.29 164.01 132.26 164.23 C 131.23 164.46 130.58 165.48 130.80 166.51 Z M 131.01 167.47 L 131.23 168.36 C 131.47 169.39 132.50 170.02 133.52 169.78 C 134.55 169.54 135.18 168.51 134.94 167.48 L 134.73 166.59 C 134.48 165.56 133.45 164.93 132.43 165.17 C 131.40 165.41 130.77 166.44 131.01 167.47 Z M 131.23 168.39 L 131.46 169.30 C 131.72 170.32 132.76 170.94 133.78 170.68 C 134.80 170.42 135.42 169.38 135.16 168.36 L 134.93 167.45 C 134.67 166.43 133.63 165.82 132.61 166.07 C 131.59 166.33 130.97 167.37 131.23 168.39 Z M 131.47 169.33 L 131.72 170.24 C 132.00 171.26 133.04 171.86 134.06 171.59 C 135.07 171.31 135.68 170.26 135.40 169.25 L 135.15 168.33 C 134.88 167.31 133.83 166.71 132.81 166.99 C 131.80 167.26 131.20 168.31 131.47 169.33 Z M 131.73 170.27 L 132.00 171.20 C 132.29 172.22 133.34 172.80 134.35 172.51 C 135.36 172.22 135.95 171.17 135.66 170.15 L 135.39 169.22 C 135.10 168.21 134.05 167.62 133.04 167.91 C 132.02 168.20 131.44 169.26 131.73 170.27 Z M 132.00 171.23 L 132.29 172.18 C 132.59 173.19 133.66 173.76 134.66 173.46 C 135.67 173.15 136.24 172.09 135.94 171.08 L 135.65 170.13 C 135.35 169.12 134.29 168.55 133.28 168.86 C 132.27 169.16 131.70 170.22 132.00 171.23 Z M 132.30 172.20 L 132.60 173.18 C 132.92 174.18 133.99 174.74 134.99 174.42 C 136.00 174.11 136.55 173.04 136.24 172.04 L 135.93 171.06 C 135.61 170.06 134.55 169.50 133.54 169.82 C 132.54 170.13 131.98 171.20 132.30 172.20 Z M 132.61 173.20 L 132.94 174.20 C 133.27 175.20 134.34 175.74 135.34 175.42 C 136.34 175.09 136.88 174.01 136.56 173.02 L 136.23 172.01 C 135.90 171.02 134.83 170.47 133.83 170.80 C 132.83 171.12 132.29 172.20 132.61 173.20 Z M 132.95 174.22 L 133.30 175.25 C 133.63 176.24 134.71 176.78 135.71 176.44 C 136.70 176.10 137.24 175.02 136.90 174.03 L 136.55 173.00 C 136.21 172.00 135.13 171.47 134.14 171.81 C 133.14 172.14 132.61 173.22 132.95 174.22 Z M 133.30 175.27 L 133.67 176.33 C 134.02 177.32 135.11 177.84 136.10 177.50 C 137.09 177.15 137.61 176.07 137.26 175.08 L 136.89 174.01 C 136.55 173.02 135.46 172.50 134.47 172.84 C 133.48 173.19 132.96 174.27 133.30 175.27 Z M 133.68 176.34 L 134.01 177.25 C 134.36 178.24 135.45 178.76 136.44 178.40 C 137.42 178.05 137.94 176.96 137.58 175.97 L 137.26 175.06 C 136.91 174.07 135.82 173.56 134.83 173.91 C 133.84 174.27 133.33 175.36 133.68 176.34 Z M 134.01 177.27 L 134.35 178.19 C 134.71 179.18 135.80 179.68 136.79 179.32 C 137.77 178.96 138.28 177.87 137.92 176.89 L 137.58 175.96 C 137.22 174.97 136.13 174.47 135.14 174.83 C 134.16 175.19 133.65 176.28 134.01 177.27 Z M 134.36 178.21 L 134.71 179.15 C 135.08 180.13 136.17 180.63 137.16 180.26 C 138.14 179.89 138.63 178.80 138.27 177.81 L 137.91 176.87 C 137.54 175.89 136.45 175.39 135.47 175.76 C 134.49 176.13 133.99 177.23 134.36 178.21 Z M 134.72 179.16 L 135.09 180.11 C 135.46 181.09 136.56 181.58 137.54 181.20 C 138.51 180.83 139.00 179.73 138.62 178.75 L 138.26 177.80 C 137.88 176.82 136.78 176.33 135.81 176.71 C 134.83 177.09 134.34 178.19 134.72 179.16 Z M 135.09 180.13 L 135.47 181.09 C 135.86 182.06 136.96 182.53 137.93 182.15 C 138.90 181.76 139.38 180.66 139.00 179.69 L 138.62 178.73 C 138.23 177.76 137.13 177.28 136.16 177.67 C 135.18 178.06 134.71 179.16 135.09 180.13 Z M 135.48 181.10 L 135.87 182.06 C 136.27 183.03 137.37 183.49 138.34 183.09 C 139.31 182.70 139.77 181.59 139.38 180.62 L 138.99 179.67 C 138.59 178.70 137.49 178.24 136.52 178.63 C 135.55 179.03 135.08 180.13 135.48 181.10 Z M 135.88 182.08 L 136.28 183.02 C 136.69 183.99 137.80 184.44 138.76 184.03 C 139.72 183.62 140.17 182.51 139.77 181.55 L 139.37 180.60 C 138.96 179.64 137.85 179.19 136.89 179.60 C 135.92 180.00 135.47 181.11 135.88 182.08 Z M 136.29 183.05 L 136.70 183.98 C 137.12 184.94 138.23 185.37 139.19 184.95 C 140.15 184.54 140.58 183.42 140.16 182.46 L 139.76 181.53 C 139.34 180.57 138.22 180.13 137.26 180.55 C 136.31 180.97 135.87 182.09 136.29 183.05 Z M 136.71 184.00 L 137.13 184.92 C 137.56 185.87 138.68 186.29 139.63 185.86 C 140.58 185.43 141.00 184.31 140.57 183.36 L 140.15 182.44 C 139.72 181.49 138.60 181.07 137.65 181.50 C 136.70 181.93 136.28 183.05 136.71 184.00 Z M 137.14 184.95 L 137.57 185.84 C 138.01 186.79 139.14 187.19 140.08 186.74 C 141.03 186.29 141.43 185.17 140.98 184.22 L 140.56 183.33 C 140.11 182.39 138.98 181.98 138.04 182.43 C 137.10 182.88 136.69 184.01 137.14 184.95 Z M 137.58 185.87 L 138.01 186.74 C 138.48 187.67 139.61 188.05 140.55 187.59 C 141.48 187.13 141.86 185.99 141.40 185.06 L 140.96 184.19 C 140.50 183.26 139.37 182.88 138.43 183.34 C 137.50 183.81 137.12 184.94 137.58 185.87 Z M 138.03 186.78 L 138.50 187.66 C 138.98 188.58 140.12 188.94 141.05 188.45 C 141.97 187.97 142.32 186.83 141.84 185.90 L 141.38 185.02 C 140.89 184.10 139.75 183.74 138.83 184.23 C 137.91 184.71 137.55 185.85 138.03 186.78 Z M 138.52 187.70 L 139.12 188.77 C 139.63 189.68 140.78 190.00 141.69 189.49 C 142.60 188.98 142.92 187.83 142.41 186.92 L 141.81 185.86 C 141.30 184.95 140.15 184.63 139.24 185.14 C 138.34 185.65 138.01 186.80 138.52 187.70 Z M 139.16 188.83 L 139.76 189.82 C 140.30 190.71 141.46 190.99 142.35 190.44 C 143.24 189.90 143.52 188.74 142.98 187.85 L 142.38 186.86 C 141.83 185.97 140.67 185.69 139.78 186.23 C 138.90 186.78 138.61 187.94 139.16 188.83 Z M 139.80 189.88 L 140.41 190.80 C 140.99 191.66 142.16 191.90 143.02 191.32 C 143.89 190.75 144.13 189.58 143.55 188.71 L 142.94 187.79 C 142.36 186.93 141.20 186.69 140.33 187.27 C 139.46 187.84 139.23 189.01 139.80 189.88 Z M 140.46 190.86 L 141.07 191.70 C 141.68 192.54 142.86 192.73 143.70 192.12 C 144.54 191.51 144.73 190.33 144.12 189.49 L 143.50 188.65 C 142.89 187.80 141.71 187.62 140.87 188.23 C 140.03 188.84 139.85 190.02 140.46 190.86 Z M 141.13 191.78 L 141.74 192.54 C 142.39 193.35 143.58 193.48 144.39 192.83 C 145.20 192.18 145.33 190.99 144.68 190.18 L 144.06 189.42 C 143.41 188.61 142.23 188.48 141.42 189.13 C 140.61 189.78 140.48 190.97 141.13 191.78 Z M 141.81 192.62 L 142.43 193.30 C 143.12 194.08 144.31 194.14 145.08 193.45 C 145.85 192.75 145.92 191.56 145.22 190.79 L 144.61 190.10 C 143.92 189.33 142.73 189.27 141.95 189.96 C 141.18 190.66 141.12 191.84 141.81 192.62 Z M 142.51 193.39 L 143.12 193.99 C 143.86 194.72 145.05 194.71 145.78 193.97 C 146.51 193.23 146.50 192.04 145.76 191.31 L 145.14 190.71 C 144.40 189.98 143.21 189.99 142.49 190.73 C 141.76 191.47 141.77 192.66 142.51 193.39 Z M 143.22 194.08 L 143.83 194.60 C 144.62 195.27 145.81 195.18 146.48 194.39 C 147.15 193.60 147.06 192.41 146.27 191.74 L 145.66 191.22 C 144.87 190.55 143.68 190.64 143.01 191.43 C 142.34 192.22 142.43 193.41 143.22 194.08 Z M 143.97 194.71 L 144.76 195.26 C 145.61 195.85 146.78 195.65 147.38 194.80 C 147.97 193.94 147.76 192.77 146.91 192.18 L 146.12 191.63 C 145.27 191.04 144.10 191.25 143.51 192.10 C 142.92 192.95 143.12 194.12 143.97 194.71 Z M 145.00 195.41 L 146.01 195.91 C 146.94 196.37 148.07 195.99 148.53 195.06 C 149.00 194.13 148.62 193.00 147.69 192.54 L 146.68 192.04 C 145.74 191.57 144.61 191.95 144.15 192.88 C 143.69 193.81 144.07 194.94 145.00 195.41 Z M 146.35 196.04 L 147.33 196.31 C 148.33 196.59 149.37 196.00 149.65 194.99 C 149.92 193.98 149.33 192.95 148.33 192.67 L 147.35 192.40 C 146.34 192.13 145.30 192.72 145.03 193.73 C 144.75 194.73 145.34 195.77 146.35 196.04 Z M 147.74 196.38 L 148.67 196.43 C 149.72 196.48 150.60 195.67 150.65 194.62 C 150.70 193.58 149.89 192.69 148.85 192.64 L 147.92 192.60 C 146.87 192.55 145.98 193.36 145.94 194.40 C 145.89 195.45 146.69 196.33 147.74 196.38 Z M 149.12 196.40 L 150.00 196.23 C 151.03 196.03 151.70 195.04 151.50 194.01 C 151.31 192.98 150.31 192.30 149.28 192.50 L 148.40 192.67 C 147.37 192.87 146.70 193.86 146.90 194.89 C 147.09 195.92 148.09 196.60 149.12 196.40 Z M 150.42 196.10 L 151.18 195.76 C 152.14 195.33 152.57 194.20 152.14 193.24 C 151.71 192.28 150.58 191.85 149.62 192.28 L 148.86 192.63 C 147.90 193.06 147.47 194.19 147.90 195.15 C 148.33 196.11 149.46 196.54 150.42 196.10 Z M 151.52 195.57 L 152.13 195.13 C 152.99 194.52 153.18 193.32 152.57 192.47 C 151.95 191.61 150.76 191.42 149.90 192.03 L 149.29 192.47 C 148.43 193.09 148.24 194.28 148.85 195.14 C 149.47 195.99 150.66 196.19 151.52 195.57 Z M 152.38 194.93 L 152.95 194.35 C 153.69 193.59 153.68 192.38 152.93 191.64 C 152.17 190.90 150.96 190.91 150.22 191.66 L 149.65 192.24 C 148.91 193.00 148.92 194.21 149.67 194.95 C 150.43 195.69 151.64 195.68 152.38 194.93 Z M 153.13 194.14 L 153.67 193.41 C 154.30 192.55 154.12 191.35 153.27 190.72 C 152.41 190.09 151.21 190.27 150.58 191.13 L 150.04 191.86 C 149.41 192.72 149.59 193.92 150.45 194.55 C 151.30 195.18 152.50 194.99 153.13 194.14 Z M 153.79 193.23 L 154.32 192.33 C 154.85 191.41 154.53 190.23 153.61 189.70 C 152.69 189.17 151.52 189.48 150.98 190.40 L 150.46 191.30 C 149.93 192.22 150.24 193.40 151.16 193.93 C 152.08 194.46 153.26 194.15 153.79 193.23 Z M 154.39 192.19 L 154.90 191.11 C 155.36 190.15 154.95 189.00 153.98 188.54 C 153.02 188.09 151.87 188.50 151.41 189.46 L 150.91 190.54 C 150.45 191.51 150.86 192.66 151.83 193.11 C 152.79 193.57 153.94 193.15 154.39 192.19 Z M 154.95 191.01 L 155.46 189.74 C 155.86 188.75 155.37 187.62 154.38 187.23 C 153.39 186.83 152.26 187.31 151.87 188.31 L 151.36 189.57 C 150.97 190.56 151.45 191.69 152.44 192.08 C 153.43 192.48 154.56 192.00 154.95 191.01 Z M 155.49 189.68 L 155.76 188.93 C 156.12 187.92 155.60 186.81 154.59 186.45 C 153.58 186.08 152.47 186.61 152.11 187.62 L 151.84 188.37 C 151.48 189.38 152.00 190.49 153.01 190.85 C 154.02 191.21 155.13 190.69 155.49 189.68 Z M 155.77 188.89 L 156.05 188.09 C 156.39 187.07 155.84 185.97 154.82 185.63 C 153.81 185.28 152.71 185.83 152.37 186.85 L 152.09 187.65 C 151.75 188.67 152.30 189.77 153.32 190.11 C 154.33 190.45 155.43 189.91 155.77 188.89 Z M 156.06 188.05 L 156.33 187.20 C 156.65 186.18 156.09 185.09 155.06 184.76 C 154.04 184.44 152.95 185.00 152.62 186.03 L 152.35 186.88 C 152.03 187.90 152.59 189.00 153.62 189.32 C 154.64 189.65 155.73 189.08 156.06 188.05 Z M 156.34 187.17 L 156.61 186.28 C 156.92 185.25 156.33 184.16 155.30 183.85 C 154.27 183.54 153.19 184.13 152.88 185.16 L 152.61 186.05 C 152.30 187.09 152.88 188.17 153.92 188.48 C 154.95 188.79 156.03 188.20 156.34 187.17 Z M 156.62 186.25 L 156.89 185.32 C 157.18 184.28 156.58 183.20 155.55 182.90 C 154.51 182.61 153.43 183.21 153.13 184.25 L 152.87 185.18 C 152.57 186.22 153.17 187.30 154.21 187.59 C 155.25 187.89 156.33 187.29 156.62 186.25 Z M 156.90 185.29 L 157.16 184.32 C 157.44 183.28 156.83 182.20 155.79 181.92 C 154.74 181.64 153.67 182.25 153.39 183.30 L 153.12 184.27 C 152.84 185.31 153.46 186.39 154.50 186.67 C 155.54 186.95 156.62 186.33 156.90 185.29 Z M 157.17 184.30 L 157.43 183.29 C 157.70 182.24 157.07 181.17 156.02 180.90 C 154.98 180.63 153.91 181.26 153.64 182.31 L 153.38 183.32 C 153.11 184.36 153.74 185.43 154.79 185.70 C 155.83 185.97 156.90 185.34 157.17 184.30 Z M 157.44 183.27 L 157.69 182.24 C 157.95 181.18 157.31 180.12 156.26 179.86 C 155.21 179.60 154.14 180.24 153.88 181.30 L 153.63 182.33 C 153.37 183.38 154.01 184.45 155.07 184.71 C 156.12 184.96 157.18 184.32 157.44 183.27 Z M 157.70 182.22 L 157.95 181.16 C 158.20 180.10 157.55 179.04 156.49 178.79 C 155.43 178.54 154.37 179.20 154.13 180.26 L 153.88 181.32 C 153.63 182.37 154.28 183.43 155.34 183.68 C 156.40 183.93 157.45 183.27 157.70 182.22 Z M 157.96 181.14 L 158.20 180.06 C 158.44 179.00 157.77 177.94 156.71 177.70 C 155.65 177.47 154.60 178.13 154.36 179.19 L 154.12 180.27 C 153.88 181.34 154.55 182.39 155.61 182.63 C 156.67 182.87 157.72 182.20 157.96 181.14 Z M 158.21 180.04 L 158.44 178.94 C 158.67 177.88 157.99 176.83 156.93 176.60 C 155.86 176.37 154.82 177.05 154.59 178.12 L 154.35 179.21 C 154.12 180.28 154.80 181.33 155.87 181.55 C 156.93 181.78 157.98 181.10 158.21 180.04 Z M 158.45 178.92 L 158.68 177.82 C 158.89 176.75 158.20 175.71 157.14 175.49 C 156.07 175.27 155.02 175.96 154.80 177.03 L 154.58 178.13 C 154.36 179.20 155.05 180.25 156.12 180.46 C 157.19 180.68 158.23 179.99 158.45 178.92 Z M 158.68 177.81 L 158.88 176.77 C 159.09 175.70 158.39 174.66 157.32 174.45 C 156.25 174.24 155.21 174.94 155.00 176.02 L 154.80 177.05 C 154.59 178.12 155.29 179.16 156.36 179.37 C 157.44 179.58 158.47 178.88 158.68 177.81 Z M 158.89 176.76 L 159.08 175.72 C 159.28 174.64 158.57 173.61 157.50 173.41 C 156.42 173.21 155.39 173.92 155.19 174.99 L 154.99 176.03 C 154.80 177.11 155.50 178.14 156.58 178.34 C 157.66 178.54 158.69 177.83 158.89 176.76 Z M 159.09 175.70 L 159.27 174.66 C 159.46 173.58 158.74 172.55 157.67 172.36 C 156.59 172.17 155.56 172.89 155.37 173.97 L 155.18 175.01 C 154.99 176.09 155.71 177.11 156.79 177.31 C 157.87 177.50 158.89 176.78 159.09 175.70 Z M 159.28 174.65 L 159.45 173.61 C 159.64 172.53 158.91 171.50 157.83 171.32 C 156.75 171.14 155.72 171.86 155.54 172.94 L 155.36 173.98 C 155.18 175.06 155.91 176.09 156.99 176.27 C 158.07 176.45 159.09 175.73 159.28 174.65 Z M 159.46 173.60 L 159.62 172.56 C 159.80 171.48 159.07 170.46 157.98 170.29 C 156.90 170.11 155.88 170.84 155.70 171.93 L 155.54 172.96 C 155.36 174.04 156.09 175.06 157.18 175.24 C 158.26 175.41 159.28 174.68 159.46 173.60 Z M 159.63 172.55 L 159.79 171.53 C 159.96 170.45 159.21 169.43 158.13 169.26 C 157.05 169.09 156.03 169.83 155.86 170.92 L 155.70 171.94 C 155.53 173.02 156.27 174.04 157.36 174.21 C 158.44 174.38 159.46 173.64 159.63 172.55 Z M 159.79 171.52 L 159.94 170.51 C 160.10 169.42 159.35 168.41 158.27 168.25 C 157.18 168.09 156.17 168.83 156.01 169.92 L 155.86 170.93 C 155.69 172.02 156.44 173.03 157.53 173.19 C 158.62 173.35 159.63 172.60 159.79 171.52 Z M 159.95 170.50 L 160.09 169.51 C 160.24 168.42 159.49 167.41 158.40 167.25 C 157.31 167.10 156.30 167.85 156.14 168.94 L 156.00 169.93 C 155.85 171.02 156.60 172.03 157.69 172.19 C 158.78 172.34 159.79 171.59 159.95 170.50 Z M 160.09 169.49 L 160.22 168.52 C 160.37 167.43 159.61 166.43 158.52 166.28 C 157.43 166.13 156.42 166.89 156.27 167.98 L 156.14 168.95 C 155.99 170.04 156.76 171.05 157.85 171.20 C 158.94 171.35 159.94 170.58 160.09 169.49 Z M 160.23 168.51 L 160.35 167.56 C 160.49 166.47 159.72 165.47 158.63 165.32 C 157.54 165.18 156.54 165.95 156.39 167.04 L 156.27 167.99 C 156.13 169.08 156.90 170.09 157.99 170.23 C 159.08 170.37 160.08 169.60 160.23 168.51 Z M 160.35 167.55 L 160.47 166.63 C 160.61 165.53 159.83 164.54 158.74 164.40 C 157.64 164.26 156.64 165.04 156.51 166.13 L 156.39 167.06 C 156.26 168.15 157.03 169.15 158.13 169.28 C 159.22 169.42 160.22 168.64 160.35 167.55 Z M 160.47 166.62 L 160.58 165.72 C 160.71 164.63 159.93 163.63 158.83 163.50 C 157.73 163.37 156.74 164.16 156.61 165.25 L 156.50 166.14 C 156.37 167.24 157.16 168.23 158.25 168.36 C 159.35 168.49 160.34 167.71 160.47 166.62 Z M 160.58 165.71 L 160.69 164.77 C 160.81 163.67 160.02 162.68 158.92 162.55 C 157.82 162.43 156.83 163.22 156.71 164.32 L 156.61 165.27 C 156.48 166.36 157.27 167.35 158.37 167.48 C 159.47 167.60 160.46 166.81 160.58 165.71 Z M 160.69 164.75 L 160.81 163.64 C 160.92 162.54 160.12 161.56 159.02 161.44 C 157.92 161.33 156.94 162.13 156.82 163.23 L 156.71 164.34 C 156.59 165.43 157.39 166.42 158.49 166.53 C 159.59 166.65 160.58 165.85 160.69 164.75 Z M 160.81 163.62 L 160.91 162.57 C 161.01 161.47 160.20 160.49 159.10 160.39 C 158.00 160.28 157.02 161.09 156.92 162.19 L 156.82 163.25 C 156.72 164.35 157.53 165.32 158.63 165.43 C 159.73 165.53 160.70 164.72 160.81 163.62 Z M 160.91 162.55 L 161.00 161.54 C 161.09 160.43 160.27 159.46 159.17 159.37 C 158.07 159.28 157.10 160.10 157.00 161.20 L 156.92 162.21 C 156.83 163.31 157.64 164.28 158.75 164.38 C 159.85 164.47 160.82 163.65 160.91 162.55 Z M 161.00 161.52 L 161.07 160.54 C 161.15 159.43 160.32 158.47 159.22 158.39 C 158.12 158.31 157.15 159.14 157.07 160.24 L 157.00 161.22 C 156.92 162.32 157.75 163.29 158.85 163.37 C 159.96 163.45 160.92 162.62 161.00 161.52 Z M 161.07 160.52 L 161.13 159.56 C 161.20 158.45 160.37 157.50 159.26 157.43 C 158.15 157.36 157.20 158.20 157.13 159.30 L 157.07 160.26 C 157.00 161.37 157.84 162.32 158.95 162.39 C 160.05 162.46 161.00 161.62 161.07 160.52 Z M 161.14 159.54 L 161.19 158.59 C 161.25 157.48 160.40 156.54 159.29 156.48 C 158.18 156.42 157.24 157.27 157.18 158.38 L 157.13 159.32 C 157.07 160.43 157.92 161.38 159.03 161.44 C 160.13 161.49 161.08 160.64 161.14 159.54 Z M 161.19 158.57 L 161.23 157.63 C 161.28 156.52 160.42 155.58 159.31 155.53 C 158.20 155.48 157.27 156.34 157.22 157.45 L 157.18 158.40 C 157.13 159.51 157.99 160.44 159.10 160.49 C 160.20 160.54 161.14 159.68 161.19 158.57 Z M 161.23 157.61 L 161.27 156.65 C 161.30 155.54 160.44 154.61 159.33 154.58 C 158.22 154.54 157.29 155.40 157.25 156.51 L 157.22 157.47 C 157.18 158.58 158.05 159.51 159.15 159.55 C 160.26 159.59 161.19 158.72 161.23 157.61 Z M 161.27 156.64 L 161.29 155.66 C 161.32 154.55 160.45 153.63 159.34 153.60 C 158.23 153.57 157.31 154.44 157.27 155.55 L 157.25 156.53 C 157.22 157.64 158.09 158.56 159.20 158.59 C 160.31 158.62 161.24 157.75 161.27 156.64 Z M 161.29 155.65 L 161.32 154.64 C 161.34 153.53 160.46 152.61 159.35 152.59 C 158.24 152.56 157.32 153.45 157.30 154.56 L 157.27 155.57 C 157.25 156.68 158.13 157.59 159.24 157.62 C 160.35 157.64 161.27 156.76 161.29 155.65 Z M 161.32 154.63 L 161.33 153.60 C 161.35 152.49 160.47 151.57 159.35 151.55 C 158.24 151.54 157.33 152.42 157.31 153.53 L 157.30 154.57 C 157.28 155.68 158.16 156.59 159.27 156.61 C 160.38 156.63 161.30 155.74 161.32 154.63 Z M 161.33 153.59 L 161.34 152.54 C 161.36 151.43 160.47 150.52 159.35 150.51 C 158.24 150.49 157.33 151.39 157.32 152.50 L 157.31 153.54 C 157.30 154.65 158.19 155.56 159.30 155.58 C 160.41 155.59 161.32 154.70 161.33 153.59 Z M 161.35 152.53 L 161.35 151.48 C 161.36 150.37 160.46 149.46 159.35 149.46 C 158.24 149.45 157.33 150.35 157.33 151.46 L 157.32 152.51 C 157.32 153.62 158.21 154.52 159.32 154.53 C 160.43 154.53 161.34 153.64 161.35 152.53 Z M 161.35 151.47 L 161.35 150.42 C 161.35 149.31 160.45 148.41 159.34 148.41 C 158.22 148.41 157.32 149.32 157.33 150.43 L 157.33 151.47 C 157.33 152.58 158.23 153.48 159.34 153.48 C 160.45 153.48 161.35 152.58 161.35 151.47 Z M 161.35 150.41 L 161.34 149.39 C 161.33 148.27 160.43 147.38 159.32 147.39 C 158.20 147.40 157.31 148.30 157.32 149.41 L 157.33 150.44 C 157.33 151.55 158.24 152.44 159.35 152.44 C 160.46 152.43 161.36 151.52 161.35 150.41 Z M 161.34 149.37 L 161.33 148.38 C 161.31 147.27 160.40 146.38 159.29 146.39 C 158.18 146.41 157.29 147.32 157.30 148.43 L 157.32 149.43 C 157.33 150.54 158.25 151.43 159.36 151.41 C 160.47 151.40 161.36 150.48 161.34 149.37 Z M 161.33 148.36 L 161.31 147.40 C 161.28 146.29 160.36 145.41 159.25 145.44 C 158.14 145.46 157.26 146.38 157.28 147.49 L 157.30 148.45 C 157.33 149.56 158.25 150.44 159.36 150.42 C 160.47 150.39 161.35 149.47 161.33 148.36 Z M 161.31 147.39 L 161.28 146.48 C 161.25 145.37 160.32 144.49 159.21 144.53 C 158.10 144.56 157.22 145.49 157.26 146.60 L 157.28 147.51 C 157.32 148.62 158.25 149.49 159.36 149.46 C 160.47 149.43 161.34 148.50 161.31 147.39 Z M 161.28 146.45 L 161.23 145.41 C 161.19 144.30 160.25 143.44 159.14 143.48 C 158.03 143.53 157.16 144.47 157.21 145.58 L 157.26 146.63 C 157.30 147.74 158.24 148.60 159.35 148.55 C 160.47 148.50 161.33 147.56 161.28 146.45 Z M 161.23 145.37 L 161.16 144.23 C 161.08 143.12 160.13 142.28 159.02 142.35 C 157.91 142.42 157.07 143.38 157.14 144.49 L 157.21 145.63 C 157.29 146.74 158.24 147.58 159.35 147.50 C 160.46 147.43 161.30 146.47 161.23 145.37 Z M 161.15 144.16 L 161.05 143.12 C 160.94 142.02 159.95 141.21 158.85 141.32 C 157.74 141.43 156.93 142.42 157.04 143.52 L 157.15 144.56 C 157.26 145.66 158.24 146.47 159.35 146.36 C 160.45 146.25 161.26 145.26 161.15 144.16 Z M 161.03 143.03 L 160.89 142.08 C 160.73 140.98 159.71 140.22 158.61 140.38 C 157.51 140.55 156.75 141.57 156.92 142.67 L 157.06 143.62 C 157.22 144.72 158.24 145.48 159.34 145.31 C 160.44 145.15 161.20 144.13 161.03 143.03 Z M 160.87 141.97 L 160.69 141.07 C 160.46 139.98 159.40 139.29 158.31 139.51 C 157.22 139.74 156.53 140.80 156.75 141.89 L 156.94 142.78 C 157.16 143.87 158.23 144.57 159.31 144.34 C 160.40 144.12 161.10 143.05 160.87 141.97 Z M 160.66 140.94 L 160.42 140.08 C 160.12 139.01 159.01 138.38 157.94 138.68 C 156.88 138.97 156.25 140.08 156.54 141.15 L 156.78 142.01 C 157.08 143.08 158.19 143.71 159.25 143.42 C 160.32 143.12 160.95 142.01 160.66 140.94 Z M 160.38 139.95 L 160.07 139.08 C 159.71 138.04 158.56 137.48 157.51 137.85 C 156.47 138.21 155.92 139.36 156.28 140.41 L 156.58 141.28 C 156.95 142.32 158.10 142.87 159.14 142.51 C 160.19 142.14 160.74 141.00 160.38 139.95 Z M 160.02 138.97 L 159.65 138.07 C 159.22 137.04 158.04 136.57 157.02 136.99 C 156.00 137.42 155.52 138.60 155.95 139.62 L 156.33 140.52 C 156.76 141.54 157.93 142.02 158.95 141.59 C 159.97 141.16 160.45 139.99 160.02 138.97 Z M 159.59 137.96 L 159.15 137.06 C 158.67 136.07 157.47 135.66 156.48 136.14 C 155.48 136.63 155.07 137.83 155.56 138.82 L 156.00 139.72 C 156.49 140.71 157.68 141.13 158.68 140.64 C 159.67 140.15 160.08 138.96 159.59 137.96 Z M 159.10 136.97 L 158.60 136.08 C 158.07 135.12 156.85 134.77 155.89 135.31 C 154.92 135.84 154.58 137.06 155.12 138.02 L 155.61 138.91 C 156.15 139.88 157.37 140.22 158.33 139.68 C 159.29 139.15 159.64 137.93 159.10 136.97 Z M 158.55 135.99 L 158.01 135.13 C 157.42 134.20 156.19 133.92 155.26 134.50 C 154.32 135.09 154.04 136.32 154.63 137.25 L 155.17 138.11 C 155.76 139.05 156.99 139.33 157.92 138.74 C 158.85 138.15 159.13 136.92 158.55 135.99 Z M 157.94 135.04 L 157.36 134.22 C 156.73 133.32 155.49 133.11 154.59 133.74 C 153.69 134.38 153.48 135.62 154.11 136.52 L 154.69 137.34 C 155.33 138.24 156.57 138.45 157.47 137.81 C 158.36 137.18 158.58 135.94 157.94 135.04 Z M 157.29 134.13 L 156.67 133.36 C 155.99 132.50 154.74 132.36 153.88 133.04 C 153.03 133.73 152.89 134.98 153.57 135.83 L 154.19 136.61 C 154.87 137.46 156.12 137.60 156.98 136.92 C 157.83 136.24 157.97 134.99 157.29 134.13 Z M 156.57 133.26 L 155.90 132.53 C 155.16 131.72 153.92 131.67 153.11 132.41 C 152.31 133.14 152.26 134.39 152.99 135.19 L 153.67 135.93 C 154.40 136.73 155.65 136.79 156.45 136.05 C 157.26 135.31 157.31 134.07 156.57 133.26 Z M 155.77 132.42 L 155.05 131.76 C 154.26 131.03 153.02 131.08 152.29 131.88 C 151.56 132.67 151.61 133.91 152.40 134.64 L 153.12 135.30 C 153.92 136.03 155.15 135.98 155.88 135.18 C 156.62 134.39 156.56 133.15 155.77 132.42 Z M 154.90 131.65 L 154.12 131.07 C 153.27 130.42 152.05 130.59 151.41 131.45 C 150.76 132.30 150.93 133.52 151.79 134.16 L 152.56 134.75 C 153.42 135.39 154.63 135.22 155.28 134.37 C 155.92 133.51 155.75 132.30 154.90 131.65 Z M 153.94 130.97 L 153.10 130.46 C 152.19 129.92 151.01 130.21 150.46 131.12 C 149.91 132.03 150.21 133.21 151.12 133.76 L 151.97 134.26 C 152.88 134.81 154.05 134.51 154.60 133.60 C 155.15 132.69 154.85 131.51 153.94 130.97 Z M 152.90 130.38 L 151.97 129.95 C 151.02 129.51 149.89 129.93 149.45 130.88 C 149.01 131.84 149.42 132.97 150.38 133.41 L 151.31 133.84 C 152.27 134.28 153.40 133.86 153.84 132.90 C 154.28 131.95 153.86 130.82 152.90 130.38 Z M 151.79 129.90 L 150.86 129.58 C 149.88 129.24 148.80 129.76 148.46 130.74 C 148.12 131.73 148.65 132.80 149.63 133.14 L 150.56 133.46 C 151.55 133.80 152.62 133.28 152.96 132.29 C 153.30 131.31 152.77 130.24 151.79 129.90 Z M 150.71 129.56 L 149.83 129.33 C 148.84 129.07 147.82 129.66 147.56 130.66 C 147.30 131.65 147.90 132.67 148.89 132.93 L 149.78 133.16 C 150.77 133.42 151.78 132.82 152.04 131.83 C 152.30 130.83 151.71 129.82 150.71 129.56 Z M 149.73 129.33 L 148.79 129.14 C 147.80 128.94 146.83 129.58 146.63 130.57 C 146.43 131.57 147.07 132.53 148.06 132.73 L 149.00 132.92 C 149.99 133.12 150.96 132.48 151.16 131.49 C 151.36 130.50 150.72 129.53 149.73 129.33 Z M 148.71 129.15 L 147.73 129.00 C 146.75 128.84 145.82 129.51 145.66 130.50 C 145.51 131.48 146.18 132.41 147.16 132.57 L 148.14 132.72 C 149.13 132.88 150.05 132.21 150.21 131.22 C 150.37 130.24 149.70 129.31 148.71 129.15 Z M 147.67 129.02 L 146.66 128.89 C 145.68 128.76 144.79 129.45 144.67 130.43 C 144.54 131.40 145.23 132.29 146.21 132.42 L 147.22 132.55 C 148.20 132.67 149.09 131.98 149.21 131.01 C 149.34 130.03 148.65 129.14 147.67 129.02 Z M 146.61 128.91 L 145.57 128.80 C 144.61 128.70 143.75 129.40 143.65 130.36 C 143.54 131.32 144.24 132.18 145.20 132.28 L 146.25 132.39 C 147.21 132.50 148.07 131.80 148.17 130.84 C 148.28 129.87 147.58 129.01 146.61 128.91 Z M 145.55 128.82 L 144.49 128.73 C 143.54 128.64 142.70 129.34 142.61 130.29 C 142.52 131.24 143.22 132.08 144.17 132.16 L 145.23 132.26 C 146.18 132.35 147.02 131.65 147.11 130.70 C 147.19 129.75 146.50 128.91 145.55 128.82 Z M 144.48 128.75 L 143.63 128.68 C 142.70 128.60 141.87 129.29 141.79 130.22 C 141.71 131.16 142.40 131.99 143.34 132.07 L 144.18 132.14 C 145.12 132.22 145.94 131.53 146.03 130.59 C 146.11 129.65 145.41 128.83 144.48 128.75 Z"
      fill="black"
      fill-rule="nonzero" /></svg>