<svg xmlns="http://www.w3.org/2000/svg" width="300" height="300" viewBox="0 0 300 300">
<path d="M 153.00 136.83 L 152.35 135.98 C 151.78 135.23 150.71 135.09 149.96 135.66 C 149.21 136.23 149.07 137.31 149.64 138.06 L 150.29 138.91 C 150.86 139.65 151.93 139.80 152.68 139.23 C 153.43 138.65 153.57 137.58 153.00 136.83 Z M 152.35 135.95 L 151.70 135.12 C 151.11 134.37 150.02 134.24 149.27 134.83 C 148.52 135.42 148.39 136.51 148.98 137.26 L 149.64 138.09 C 150.23 138.84 151.31 138.97 152.07 138.38 C 152.82 137.79 152.95 136.70 152.35 135.95 Z M 151.68 135.06 L 151.02 134.27 C 150.40 133.53 149.30 133.43 148.56 134.05 C 147.81 134.67 147.72 135.78 148.34 136.52 L 149.00 137.31 C 149.62 138.05 150.72 138.15 151.47 137.53 C 152.21 136.91 152.31 135.81 151.68 135.06 Z M 150.98 134.20 L 150.30 133.46 C 149.64 132.74 148.52 132.69 147.80 133.35 C 147.08 134.02 147.03 135.14 147.70 135.86 L 148.37 136.60 C 149.04 137.32 150.16 137.36 150.88 136.70 C 151.60 136.04 151.65 134.92 150.98 134.20 Z M 150.23 133.36 L 149.54 132.70 C 148.82 132.01 147.68 132.04 147.00 132.76 C 146.32 133.48 146.35 134.62 147.07 135.30 L 147.77 135.96 C 148.48 136.64 149.62 136.61 150.30 135.89 C 150.98 135.17 150.95 134.04 150.23 133.36 Z M 149.43 132.57 L 148.70 132.00 C 147.92 131.38 146.77 131.52 146.15 132.31 C 145.54 133.09 145.67 134.24 146.46 134.86 L 147.18 135.42 C 147.97 136.04 149.11 135.91 149.73 135.12 C 150.35 134.33 150.21 133.19 149.43 132.57 Z M 148.52 131.85 L 147.67 131.35 C 146.80 130.83 145.67 131.11 145.15 131.98 C 144.64 132.85 144.92 133.98 145.79 134.50 L 146.64 135.00 C 147.51 135.52 148.64 135.24 149.16 134.37 C 149.67 133.50 149.39 132.37 148.52 131.85 Z M 147.40 131.20 L 146.43 130.82 C 145.48 130.45 144.41 130.92 144.04 131.87 C 143.66 132.82 144.13 133.89 145.08 134.26 L 146.06 134.64 C 147.00 135.01 148.08 134.54 148.45 133.59 C 148.82 132.65 148.35 131.57 147.40 131.20 Z M 146.12 130.72 L 145.13 130.52 C 144.13 130.32 143.15 130.98 142.95 131.98 C 142.75 132.98 143.40 133.96 144.40 134.16 L 145.39 134.36 C 146.40 134.56 147.37 133.91 147.57 132.90 C 147.77 131.90 147.12 130.92 146.12 130.72 Z M 144.80 130.48 L 143.82 130.46 C 142.79 130.45 141.94 131.27 141.93 132.30 C 141.91 133.33 142.73 134.18 143.76 134.19 L 144.74 134.21 C 145.77 134.23 146.62 133.40 146.63 132.37 C 146.65 131.34 145.83 130.50 144.80 130.48 Z M 143.47 130.48 L 142.53 130.64 C 141.51 130.82 140.83 131.79 141.00 132.81 C 141.18 133.83 142.15 134.51 143.17 134.34 L 144.11 134.18 C 145.13 134.00 145.82 133.03 145.64 132.01 C 145.47 130.99 144.50 130.30 143.47 130.48 Z M 142.18 130.73 L 141.31 131.06 C 140.34 131.43 139.85 132.52 140.22 133.49 C 140.59 134.46 141.68 134.95 142.65 134.58 L 143.52 134.25 C 144.49 133.88 144.98 132.79 144.61 131.82 C 144.24 130.85 143.16 130.36 142.18 130.73 Z M 141.00 131.21 L 140.21 131.69 C 139.32 132.23 139.04 133.39 139.58 134.28 C 140.13 135.17 141.29 135.45 142.18 134.91 L 142.96 134.43 C 143.86 133.89 144.14 132.73 143.59 131.84 C 143.05 130.94 141.89 130.66 141.00 131.21 Z M 139.97 131.86 L 139.24 132.48 C 138.45 133.16 138.36 134.35 139.03 135.15 C 139.71 135.94 140.91 136.03 141.70 135.36 L 142.43 134.74 C 143.22 134.06 143.31 132.86 142.63 132.07 C 141.96 131.28 140.76 131.18 139.97 131.86 Z M 139.06 132.65 L 138.40 133.39 C 137.70 134.17 137.76 135.37 138.54 136.07 C 139.31 136.77 140.51 136.70 141.21 135.93 L 141.88 135.19 C 142.58 134.41 142.52 133.21 141.74 132.51 C 140.96 131.81 139.77 131.87 139.06 132.65 Z M 138.27 133.54 L 137.65 134.39 C 137.04 135.24 137.22 136.42 138.07 137.04 C 138.92 137.66 140.10 137.47 140.72 136.62 L 141.34 135.78 C 141.96 134.93 141.77 133.74 140.92 133.12 C 140.07 132.51 138.89 132.69 138.27 133.54 Z M 137.56 134.52 L 136.99 135.46 C 136.44 136.35 136.73 137.52 137.62 138.07 C 138.52 138.62 139.69 138.33 140.23 137.44 L 140.81 136.50 C 141.36 135.60 141.07 134.43 140.18 133.88 C 139.28 133.34 138.11 133.62 137.56 134.52 Z M 136.93 135.56 L 136.47 136.42 C 135.98 137.35 136.33 138.50 137.26 138.99 C 138.19 139.49 139.34 139.13 139.83 138.21 L 140.29 137.34 C 140.79 136.41 140.43 135.26 139.50 134.77 C 138.58 134.27 137.42 134.63 136.93 135.56 Z M 136.43 136.50 L 136.00 137.40 C 135.55 138.35 135.96 139.49 136.91 139.94 C 137.86 140.39 138.99 139.98 139.44 139.03 L 139.87 138.13 C 140.32 137.18 139.92 136.04 138.97 135.59 C 138.02 135.14 136.88 135.55 136.43 136.50 Z M 135.97 137.47 L 135.57 138.41 C 135.16 139.38 135.61 140.49 136.58 140.91 C 137.55 141.32 138.67 140.87 139.08 139.90 L 139.48 138.96 C 139.89 138.00 139.44 136.88 138.47 136.47 C 137.50 136.06 136.38 136.51 135.97 137.47 Z M 135.55 138.47 L 135.18 139.42 C 134.81 140.40 135.30 141.51 136.28 141.88 C 137.26 142.26 138.36 141.77 138.74 140.79 L 139.10 139.84 C 139.48 138.85 138.99 137.75 138.01 137.38 C 137.03 137.00 135.92 137.49 135.55 138.47 Z M 135.16 139.48 L 134.83 140.43 C 134.49 141.43 135.01 142.51 136.01 142.86 C 137.00 143.20 138.09 142.68 138.43 141.68 L 138.76 140.73 C 139.11 139.73 138.58 138.65 137.58 138.30 C 136.59 137.96 135.50 138.49 135.16 139.48 Z M 134.81 140.49 L 134.52 141.43 C 134.20 142.44 134.77 143.51 135.77 143.82 C 136.78 144.13 137.84 143.57 138.16 142.57 L 138.45 141.62 C 138.76 140.62 138.20 139.55 137.20 139.24 C 136.19 138.93 135.12 139.49 134.81 140.49 Z M 134.50 141.49 L 134.24 142.45 C 133.95 143.46 134.55 144.51 135.56 144.79 C 136.58 145.07 137.63 144.48 137.91 143.47 L 138.17 142.51 C 138.46 141.50 137.86 140.45 136.85 140.16 C 135.83 139.88 134.78 140.48 134.50 141.49 Z M 134.22 142.51 L 133.99 143.46 C 133.74 144.49 134.37 145.52 135.40 145.76 C 136.42 146.01 137.45 145.38 137.70 144.36 L 137.93 143.40 C 138.17 142.38 137.54 141.35 136.52 141.10 C 135.50 140.86 134.47 141.49 134.22 142.51 Z M 133.98 143.53 L 133.78 144.48 C 133.57 145.51 134.24 146.52 135.27 146.73 C 136.30 146.94 137.31 146.27 137.52 145.24 L 137.71 144.29 C 137.92 143.26 137.25 142.25 136.22 142.04 C 135.19 141.83 134.18 142.50 133.98 143.53 Z M 133.77 144.55 L 133.61 145.51 C 133.44 146.55 134.14 147.53 135.18 147.70 C 136.21 147.88 137.20 147.18 137.37 146.14 L 137.53 145.17 C 137.70 144.14 137.00 143.15 135.96 142.98 C 134.93 142.81 133.94 143.51 133.77 144.55 Z M 133.60 145.57 L 133.47 146.56 C 133.33 147.61 134.06 148.57 135.10 148.70 C 136.15 148.84 137.11 148.11 137.25 147.07 L 137.38 146.08 C 137.52 145.03 136.79 144.07 135.74 143.93 C 134.70 143.79 133.74 144.53 133.60 145.57 Z M 133.46 146.62 L 133.35 147.66 C 133.24 148.70 134.00 149.64 135.05 149.75 C 136.10 149.86 137.03 149.10 137.14 148.05 L 137.25 147.01 C 137.36 145.97 136.60 145.03 135.56 144.92 C 134.51 144.81 133.57 145.57 133.46 146.62 Z M 133.35 147.70 L 133.27 148.70 C 133.18 149.75 133.96 150.67 135.01 150.75 C 136.06 150.84 136.98 150.06 137.07 149.01 L 137.15 148.01 C 137.23 146.96 136.45 146.04 135.40 145.95 C 134.35 145.87 133.43 146.65 133.35 147.70 Z M 133.26 148.73 L 133.20 149.72 C 133.13 150.78 133.93 151.68 134.98 151.75 C 136.03 151.82 136.94 151.02 137.00 149.97 L 137.07 148.98 C 137.14 147.92 136.34 147.02 135.29 146.95 C 134.24 146.88 133.33 147.68 133.26 148.73 Z M 133.20 149.75 L 133.15 150.77 C 133.09 151.82 133.90 152.72 134.96 152.77 C 136.01 152.82 136.90 152.01 136.95 150.96 L 137.01 149.94 C 137.06 148.89 136.25 148.00 135.20 147.94 C 134.15 147.89 133.25 148.70 133.20 149.75 Z M 133.15 150.79 L 133.11 151.82 C 133.07 152.88 133.89 153.76 134.94 153.80 C 135.99 153.84 136.88 153.02 136.92 151.97 L 136.96 150.94 C 137.00 149.89 136.18 149.00 135.12 148.96 C 134.07 148.92 133.19 149.74 133.15 150.79 Z M 133.11 151.84 L 133.08 152.87 C 133.05 153.92 133.88 154.80 134.93 154.82 C 135.99 154.85 136.86 154.02 136.89 152.97 L 136.92 151.95 C 136.95 150.90 136.12 150.02 135.06 149.99 C 134.01 149.96 133.13 150.79 133.11 151.84 Z M 133.08 152.89 L 133.06 153.89 C 133.04 154.94 133.88 155.81 134.94 155.83 C 135.99 155.84 136.86 155.01 136.87 153.95 L 136.89 152.95 C 136.91 151.90 136.07 151.03 135.02 151.01 C 133.96 151.00 133.10 151.83 133.08 152.89 Z M 133.06 153.91 L 133.05 154.87 C 133.05 155.92 133.89 156.78 134.95 156.79 C 136.00 156.80 136.86 155.95 136.87 154.90 L 136.87 153.93 C 136.88 152.88 136.03 152.02 134.98 152.01 C 133.93 152.01 133.07 152.85 133.06 153.91 Z M 133.06 154.89 L 133.06 155.99 C 133.07 157.04 133.92 157.89 134.98 157.89 C 136.03 157.88 136.88 157.02 136.87 155.97 L 136.87 154.88 C 136.86 153.82 136.00 152.97 134.95 152.98 C 133.90 152.98 133.05 153.84 133.06 154.89 Z M 133.06 156.03 L 133.09 157.09 C 133.12 158.14 133.99 158.97 135.04 158.95 C 136.09 158.92 136.92 158.05 136.90 156.99 L 136.87 155.93 C 136.84 154.88 135.97 154.05 134.92 154.08 C 133.87 154.10 133.04 154.98 133.06 156.03 Z M 133.10 157.16 L 133.15 158.16 C 133.22 159.21 134.12 160.01 135.17 159.94 C 136.21 159.88 137.01 158.98 136.95 157.93 L 136.89 156.93 C 136.83 155.88 135.93 155.08 134.88 155.15 C 133.83 155.21 133.03 156.11 133.10 157.16 Z M 133.16 158.24 L 133.26 159.19 C 133.37 160.24 134.31 160.99 135.35 160.88 C 136.40 160.77 137.15 159.84 137.04 158.80 L 136.94 157.85 C 136.83 156.80 135.90 156.05 134.85 156.16 C 133.81 156.27 133.05 157.20 133.16 158.24 Z M 133.28 159.30 L 133.43 160.22 C 133.60 161.25 134.58 161.95 135.61 161.78 C 136.65 161.61 137.35 160.63 137.18 159.60 L 137.03 158.69 C 136.86 157.65 135.88 156.95 134.84 157.12 C 133.81 157.29 133.11 158.27 133.28 159.30 Z M 133.46 160.35 L 133.68 161.25 C 133.92 162.27 134.94 162.90 135.96 162.66 C 136.98 162.42 137.61 161.40 137.37 160.38 L 137.15 159.47 C 136.91 158.45 135.88 157.82 134.87 158.06 C 133.85 158.31 133.22 159.33 133.46 160.35 Z M 133.72 161.40 L 134.02 162.32 C 134.34 163.32 135.41 163.86 136.40 163.54 C 137.40 163.22 137.94 162.15 137.62 161.16 L 137.32 160.23 C 137.00 159.24 135.93 158.69 134.94 159.01 C 133.94 159.33 133.40 160.40 133.72 161.40 Z M 134.07 162.47 L 134.46 163.38 C 134.86 164.34 135.97 164.79 136.93 164.39 C 137.90 163.99 138.35 162.88 137.94 161.91 L 137.56 161.01 C 137.16 160.04 136.05 159.59 135.09 160.00 C 134.12 160.40 133.67 161.51 134.07 162.47 Z M 134.53 163.53 L 134.99 164.41 C 135.48 165.33 136.63 165.69 137.55 165.20 C 138.47 164.71 138.82 163.56 138.34 162.64 L 137.87 161.76 C 137.38 160.84 136.24 160.49 135.32 160.98 C 134.39 161.46 134.04 162.61 134.53 163.53 Z M 135.08 164.56 L 135.64 165.41 C 136.21 166.28 137.38 166.53 138.25 165.96 C 139.13 165.39 139.37 164.22 138.80 163.35 L 138.25 162.49 C 137.68 161.62 136.51 161.38 135.63 161.95 C 134.76 162.51 134.51 163.68 135.08 164.56 Z M 135.74 165.55 L 136.38 166.35 C 137.02 167.17 138.21 167.31 139.03 166.66 C 139.84 166.02 139.98 164.83 139.34 164.01 L 138.70 163.21 C 138.06 162.39 136.87 162.25 136.05 162.90 C 135.24 163.55 135.10 164.73 135.74 165.55 Z M 136.48 166.47 L 137.12 167.15 C 137.83 167.91 139.02 167.94 139.78 167.23 C 140.54 166.52 140.58 165.33 139.86 164.57 L 139.23 163.89 C 138.52 163.13 137.32 163.10 136.57 163.81 C 135.81 164.52 135.77 165.71 136.48 166.47 Z M 137.23 167.26 L 137.94 167.90 C 138.71 168.59 139.91 168.53 140.60 167.75 C 141.30 166.98 141.23 165.79 140.46 165.09 L 139.75 164.46 C 138.98 163.76 137.79 163.82 137.09 164.60 C 136.40 165.37 136.46 166.56 137.23 167.26 Z M 138.07 168.00 L 138.86 168.59 C 139.69 169.21 140.87 169.05 141.49 168.21 C 142.12 167.38 141.95 166.20 141.12 165.58 L 140.33 164.99 C 139.50 164.37 138.32 164.53 137.69 165.37 C 137.07 166.20 137.24 167.38 138.07 168.00 Z M 139.00 168.69 L 139.87 169.22 C 140.76 169.76 141.91 169.48 142.46 168.60 C 143.00 167.71 142.72 166.55 141.84 166.01 L 140.97 165.48 C 140.08 164.94 138.93 165.22 138.38 166.10 C 137.84 166.99 138.12 168.15 139.00 168.69 Z M 140.03 169.31 L 140.98 169.77 C 141.91 170.22 143.04 169.83 143.49 168.90 C 143.94 167.96 143.56 166.84 142.62 166.38 L 141.67 165.92 C 140.74 165.47 139.62 165.86 139.16 166.79 C 138.71 167.73 139.10 168.85 140.03 169.31 Z M 141.15 169.84 L 142.16 170.21 C 143.14 170.57 144.22 170.07 144.58 169.10 C 144.93 168.12 144.44 167.04 143.46 166.69 L 142.45 166.31 C 141.48 165.95 140.40 166.45 140.04 167.43 C 139.68 168.40 140.18 169.48 141.15 169.84 Z M 142.33 170.26 L 143.31 170.52 C 144.31 170.79 145.34 170.20 145.61 169.20 C 145.87 168.19 145.28 167.16 144.28 166.90 L 143.30 166.63 C 142.30 166.37 141.27 166.96 141.00 167.96 C 140.73 168.97 141.33 170.00 142.33 170.26 Z M 143.45 170.56 L 144.47 170.74 C 145.49 170.93 146.47 170.26 146.66 169.24 C 146.84 168.22 146.17 167.24 145.15 167.05 L 144.13 166.86 C 143.11 166.68 142.13 167.35 141.94 168.37 C 141.76 169.39 142.43 170.37 143.45 170.56 Z M 144.61 170.76 L 145.65 170.87 C 146.68 170.98 147.60 170.23 147.71 169.20 C 147.82 168.17 147.07 167.25 146.04 167.14 L 145.01 167.03 C 143.98 166.92 143.05 167.67 142.94 168.70 C 142.84 169.73 143.58 170.66 144.61 170.76 Z M 145.79 170.88 L 146.82 170.91 C 147.85 170.94 148.72 170.12 148.75 169.09 C 148.77 168.05 147.96 167.19 146.92 167.16 L 145.90 167.13 C 144.86 167.10 144.00 167.92 143.97 168.95 C 143.94 169.99 144.76 170.85 145.79 170.88 Z M 146.97 170.91 L 147.97 170.85 C 149.00 170.79 149.79 169.91 149.74 168.88 C 149.68 167.84 148.79 167.05 147.76 167.11 L 146.77 167.16 C 145.73 167.22 144.94 168.10 145.00 169.14 C 145.06 170.17 145.94 170.96 146.97 170.91 Z M 148.14 170.83 L 149.08 170.69 C 150.11 170.54 150.81 169.58 150.66 168.56 C 150.50 167.53 149.55 166.83 148.52 166.98 L 147.58 167.13 C 146.56 167.28 145.86 168.24 146.01 169.26 C 146.16 170.28 147.12 170.99 148.14 170.83 Z M 149.30 170.65 L 150.23 170.39 C 151.22 170.12 151.81 169.09 151.54 168.09 C 151.26 167.09 150.23 166.50 149.23 166.78 L 148.31 167.03 C 147.31 167.30 146.72 168.34 146.99 169.33 C 147.27 170.33 148.30 170.92 149.30 170.65 Z M 150.49 170.30 L 151.43 169.88 C 152.37 169.46 152.80 168.35 152.38 167.41 C 151.96 166.46 150.85 166.03 149.90 166.45 L 148.97 166.87 C 148.02 167.29 147.60 168.40 148.02 169.34 C 148.44 170.29 149.54 170.72 150.49 170.30 Z M 151.68 169.74 L 152.50 169.21 C 153.38 168.65 153.63 167.49 153.07 166.62 C 152.50 165.75 151.34 165.50 150.47 166.06 L 149.65 166.59 C 148.78 167.15 148.53 168.31 149.09 169.18 C 149.65 170.05 150.81 170.31 151.68 169.74 Z M 152.70 169.07 L 153.44 168.44 C 154.23 167.77 154.33 166.59 153.66 165.80 C 152.99 165.00 151.81 164.91 151.01 165.58 L 150.27 166.20 C 149.48 166.87 149.39 168.06 150.06 168.85 C 150.73 169.64 151.91 169.74 152.70 169.07 Z M 153.58 168.32 L 154.26 167.61 C 154.98 166.87 154.96 165.68 154.22 164.96 C 153.47 164.23 152.28 164.25 151.56 165.00 L 150.88 165.70 C 150.16 166.45 150.18 167.64 150.92 168.36 C 151.67 169.08 152.85 169.06 153.58 168.32 Z M 154.34 167.53 L 154.99 166.77 C 155.67 165.98 155.58 164.79 154.79 164.12 C 154.00 163.44 152.81 163.53 152.14 164.32 L 151.48 165.08 C 150.81 165.87 150.90 167.06 151.69 167.73 C 152.48 168.41 153.66 168.32 154.34 167.53 Z M 155.03 166.73 L 155.60 166.02 C 156.25 165.21 156.13 164.02 155.32 163.37 C 154.51 162.72 153.32 162.84 152.67 163.65 L 152.10 164.36 C 151.45 165.17 151.57 166.36 152.38 167.01 C 153.19 167.66 154.38 167.53 155.03 166.73 Z M 155.64 165.98 L 156.20 165.24 C 156.83 164.41 156.67 163.23 155.84 162.60 C 155.01 161.97 153.83 162.13 153.20 162.95 L 152.64 163.69 C 152.00 164.52 152.16 165.70 152.99 166.33 C 153.82 166.97 155.00 166.81 155.64 165.98 Z M 156.24 165.19 L 156.79 164.41 C 157.40 163.56 157.20 162.38 156.35 161.78 C 155.50 161.17 154.32 161.37 153.71 162.22 L 153.16 163.00 C 152.55 163.85 152.75 165.03 153.60 165.64 C 154.45 166.24 155.63 166.04 156.24 165.19 Z M 156.84 164.36 L 157.39 163.52 C 157.96 162.64 157.71 161.47 156.84 160.90 C 155.97 160.32 154.79 160.57 154.22 161.44 L 153.67 162.28 C 153.10 163.15 153.34 164.33 154.21 164.90 C 155.09 165.47 156.26 165.23 156.84 164.36 Z M 157.43 163.45 L 157.97 162.55 C 158.51 161.66 158.21 160.49 157.31 159.95 C 156.41 159.42 155.25 159.71 154.71 160.61 L 154.17 161.51 C 153.64 162.41 153.93 163.57 154.83 164.11 C 155.73 164.65 156.89 164.35 157.43 163.45 Z M 158.01 162.48 L 158.54 161.51 C 159.04 160.59 158.69 159.44 157.77 158.94 C 156.84 158.44 155.69 158.78 155.19 159.71 L 154.67 160.68 C 154.17 161.60 154.51 162.75 155.44 163.25 C 156.36 163.75 157.51 163.41 158.01 162.48 Z M 158.58 161.44 L 159.01 160.55 C 159.47 159.60 159.08 158.46 158.13 158.00 C 157.19 157.54 156.05 157.94 155.59 158.88 L 155.15 159.78 C 154.69 160.72 155.08 161.86 156.03 162.32 C 156.98 162.78 158.12 162.39 158.58 161.44 Z M 159.04 160.49 L 159.43 159.63 C 159.86 158.67 159.42 157.54 158.46 157.11 C 157.50 156.68 156.37 157.12 155.94 158.08 L 155.56 158.94 C 155.13 159.90 155.56 161.03 156.52 161.46 C 157.49 161.89 158.62 161.45 159.04 160.49 Z M 159.45 159.58 L 159.82 158.68 C 160.22 157.70 159.75 156.58 158.77 156.18 C 157.80 155.78 156.68 156.25 156.28 157.23 L 155.91 158.13 C 155.51 159.11 155.98 160.23 156.96 160.63 C 157.94 161.02 159.05 160.56 159.45 159.58 Z M 159.85 158.62 L 160.20 157.69 C 160.57 156.70 160.06 155.59 159.07 155.22 C 158.08 154.85 156.98 155.35 156.61 156.35 L 156.26 157.28 C 155.88 158.27 156.39 159.38 157.38 159.75 C 158.37 160.12 159.48 159.62 159.85 158.62 Z M 160.22 157.64 L 160.55 156.67 C 160.89 155.67 160.35 154.58 159.35 154.24 C 158.35 153.89 157.25 154.43 156.91 155.43 L 156.58 156.40 C 156.24 157.40 156.78 158.49 157.78 158.84 C 158.78 159.18 159.88 158.64 160.22 157.64 Z M 160.57 156.62 L 160.87 155.64 C 161.19 154.62 160.62 153.54 159.60 153.23 C 158.59 152.92 157.51 153.48 157.20 154.50 L 156.89 155.48 C 156.58 156.50 157.14 157.58 158.16 157.89 C 159.18 158.21 160.25 157.64 160.57 156.62 Z M 160.89 155.59 L 161.17 154.59 C 161.46 153.56 160.86 152.50 159.83 152.21 C 158.80 151.92 157.74 152.53 157.45 153.55 L 157.18 154.55 C 156.89 155.58 157.49 156.64 158.52 156.93 C 159.54 157.21 160.61 156.61 160.89 155.59 Z M 161.19 154.53 L 161.44 153.52 C 161.69 152.49 161.06 151.44 160.02 151.18 C 158.99 150.93 157.94 151.56 157.68 152.60 L 157.44 153.61 C 157.18 154.64 157.81 155.69 158.85 155.95 C 159.89 156.20 160.94 155.57 161.19 154.53 Z M 161.46 153.46 L 161.67 152.44 C 161.90 151.39 161.23 150.36 160.18 150.14 C 159.14 149.92 158.11 150.59 157.89 151.63 L 157.67 152.66 C 157.44 153.70 158.11 154.73 159.16 154.95 C 160.20 155.18 161.23 154.51 161.46 153.46 Z M 161.69 152.38 L 161.88 151.35 C 162.07 150.30 161.37 149.29 160.31 149.10 C 159.26 148.90 158.25 149.60 158.06 150.66 L 157.87 151.69 C 157.68 152.74 158.38 153.75 159.43 153.94 C 160.49 154.13 161.50 153.44 161.69 152.38 Z M 161.89 151.30 L 162.04 150.27 C 162.21 149.21 161.48 148.22 160.42 148.06 C 159.36 147.90 158.37 148.63 158.20 149.69 L 158.05 150.71 C 157.89 151.77 158.61 152.76 159.67 152.92 C 160.73 153.09 161.72 152.36 161.89 151.30 Z M 162.05 150.23 L 162.18 149.21 C 162.32 148.15 161.56 147.17 160.50 147.04 C 159.43 146.90 158.46 147.65 158.32 148.72 L 158.20 149.73 C 158.06 150.80 158.81 151.77 159.88 151.91 C 160.94 152.04 161.92 151.29 162.05 150.23 Z M 162.19 149.17 L 162.29 148.17 C 162.41 147.10 161.63 146.14 160.56 146.03 C 159.49 145.92 158.54 146.69 158.42 147.76 L 158.32 148.76 C 158.21 149.83 158.98 150.79 160.05 150.90 C 161.12 151.01 162.08 150.24 162.19 149.17 Z M 162.30 148.13 L 162.38 147.15 C 162.48 146.08 161.68 145.13 160.61 145.04 C 159.54 144.95 158.59 145.74 158.50 146.82 L 158.42 147.80 C 158.33 148.87 159.12 149.81 160.19 149.91 C 161.26 150.00 162.21 149.20 162.30 148.13 Z M 162.39 147.12 L 162.45 146.16 C 162.53 145.08 161.72 144.15 160.64 144.08 C 159.57 144.00 158.64 144.82 158.56 145.89 L 158.50 146.85 C 158.42 147.92 159.23 148.85 160.31 148.93 C 161.38 149.00 162.31 148.19 162.39 147.12 Z M 162.46 146.13 L 162.51 145.20 C 162.57 144.12 161.75 143.20 160.67 143.14 C 159.59 143.08 158.67 143.91 158.61 144.98 L 158.56 145.92 C 158.50 146.99 159.32 147.91 160.40 147.97 C 161.48 148.03 162.40 147.21 162.46 146.13 Z M 162.51 145.18 L 162.56 144.13 C 162.60 143.05 161.77 142.14 160.69 142.09 C 159.61 142.05 158.70 142.88 158.65 143.96 L 158.61 145.01 C 158.56 146.09 159.40 147.00 160.48 147.04 C 161.56 147.09 162.47 146.25 162.51 145.18 Z M 162.56 144.09 L 162.58 143.02 C 162.61 141.94 161.75 141.05 160.68 141.02 C 159.60 141.00 158.70 141.85 158.68 142.93 L 158.65 144.00 C 158.63 145.08 159.48 145.97 160.56 146.00 C 161.64 146.02 162.53 145.17 162.56 144.09 Z M 162.59 142.96 L 162.58 141.93 C 162.57 140.85 161.68 139.98 160.60 139.99 C 159.52 140.00 158.66 140.89 158.67 141.97 L 158.68 142.99 C 158.68 144.07 159.57 144.94 160.65 144.93 C 161.73 144.92 162.59 144.04 162.59 142.96 Z M 162.57 141.84 L 162.52 140.86 C 162.46 139.78 161.54 138.95 160.46 139.01 C 159.39 139.07 158.56 139.99 158.62 141.07 L 158.67 142.05 C 158.73 143.13 159.65 143.96 160.73 143.90 C 161.80 143.84 162.63 142.92 162.57 141.84 Z M 162.51 140.74 L 162.40 139.79 C 162.28 138.72 161.32 137.95 160.24 138.07 C 159.17 138.19 158.40 139.16 158.52 140.23 L 158.63 141.18 C 158.75 142.25 159.71 143.03 160.79 142.91 C 161.86 142.78 162.63 141.82 162.51 140.74 Z M 162.38 139.65 L 162.21 138.74 C 162.01 137.67 160.99 136.97 159.93 137.17 C 158.87 137.37 158.17 138.39 158.37 139.45 L 158.54 140.37 C 158.74 141.43 159.76 142.13 160.82 141.93 C 161.88 141.74 162.58 140.71 162.38 139.65 Z M 162.17 138.57 L 161.92 137.66 C 161.63 136.62 160.55 136.01 159.51 136.30 C 158.47 136.59 157.86 137.67 158.15 138.71 L 158.41 139.62 C 158.70 140.66 159.77 141.27 160.81 140.98 C 161.85 140.69 162.46 139.61 162.17 138.57 Z M 161.86 137.48 L 161.50 136.56 C 161.11 135.55 159.98 135.05 158.98 135.44 C 157.97 135.82 157.47 136.96 157.86 137.96 L 158.21 138.89 C 158.60 139.90 159.73 140.40 160.74 140.01 C 161.75 139.62 162.25 138.49 161.86 137.48 Z M 161.42 136.38 L 160.98 135.49 C 160.49 134.53 159.32 134.14 158.35 134.63 C 157.39 135.11 157.00 136.29 157.49 137.25 L 157.93 138.14 C 158.42 139.10 159.60 139.49 160.56 139.00 C 161.52 138.52 161.91 137.34 161.42 136.38 Z M 160.88 135.33 L 160.35 134.49 C 159.78 133.58 158.57 133.30 157.66 133.88 C 156.75 134.46 156.47 135.66 157.05 136.57 L 157.58 137.42 C 158.16 138.33 159.36 138.60 160.28 138.02 C 161.19 137.45 161.46 136.24 160.88 135.33 Z M 160.25 134.34 L 159.63 133.55 C 158.97 132.69 157.75 132.54 156.90 133.19 C 156.04 133.85 155.89 135.08 156.54 135.93 L 157.16 136.72 C 157.82 137.58 159.04 137.73 159.89 137.08 C 160.75 136.42 160.90 135.19 160.25 134.34 Z M 159.51 133.41 L 158.83 132.67 C 158.09 131.88 156.86 131.84 156.07 132.58 C 155.28 133.31 155.24 134.55 155.97 135.33 L 156.66 136.07 C 157.40 136.86 158.63 136.90 159.42 136.16 C 160.21 135.43 160.25 134.19 159.51 133.41 Z M 158.70 132.55 L 157.97 131.90 C 157.17 131.19 155.94 131.25 155.22 132.06 C 154.51 132.86 154.58 134.09 155.38 134.81 L 156.10 135.45 C 156.90 136.17 158.14 136.10 158.85 135.30 C 159.57 134.50 159.50 133.27 158.70 132.55 Z M 157.84 131.80 L 157.11 131.25 C 156.25 130.60 155.03 130.78 154.39 131.64 C 153.74 132.49 153.92 133.71 154.78 134.36 L 155.51 134.91 C 156.37 135.55 157.59 135.38 158.23 134.52 C 158.87 133.66 158.70 132.45 157.84 131.80 Z M 156.97 131.16 L 156.18 130.66 C 155.27 130.09 154.08 130.37 153.51 131.27 C 152.94 132.18 153.21 133.37 154.12 133.94 L 154.91 134.44 C 155.82 135.01 157.01 134.74 157.58 133.83 C 158.15 132.93 157.88 131.73 156.97 131.16 Z M 156.04 130.59 L 155.18 130.14 C 154.23 129.65 153.07 130.02 152.58 130.96 C 152.08 131.91 152.45 133.07 153.39 133.56 L 154.25 134.01 C 155.20 134.50 156.36 134.14 156.86 133.19 C 157.35 132.25 156.98 131.08 156.04 130.59 Z M 155.04 130.09 L 154.11 129.69 C 153.14 129.27 152.01 129.73 151.59 130.70 C 151.17 131.68 151.63 132.81 152.60 133.23 L 153.53 133.62 C 154.51 134.04 155.64 133.58 156.05 132.61 C 156.47 131.63 156.02 130.50 155.04 130.09 Z M 153.98 129.65 L 152.98 129.30 C 151.98 128.96 150.89 129.49 150.55 130.50 C 150.21 131.50 150.74 132.58 151.74 132.93 L 152.74 133.27 C 153.74 133.61 154.83 133.08 155.17 132.08 C 155.51 131.08 154.98 129.99 153.98 129.65 Z M 152.85 129.27 L 151.78 128.98 C 150.76 128.71 149.71 129.32 149.44 130.33 C 149.17 131.35 149.77 132.40 150.79 132.67 L 151.87 132.96 C 152.88 133.23 153.93 132.63 154.20 131.61 C 154.47 130.59 153.87 129.55 152.85 129.27 Z M 151.67 128.97 L 150.74 128.78 C 149.72 128.56 148.71 129.22 148.50 130.25 C 148.29 131.27 148.95 132.28 149.97 132.49 L 150.90 132.68 C 151.92 132.90 152.93 132.24 153.14 131.21 C 153.35 130.19 152.70 129.18 151.67 128.97 Z M 150.66 128.78 L 149.75 128.63 C 148.73 128.46 147.76 129.15 147.59 130.18 C 147.42 131.20 148.11 132.17 149.14 132.34 L 150.05 132.49 C 151.07 132.66 152.04 131.96 152.21 130.94 C 152.38 129.92 151.69 128.95 150.66 128.78 Z M 149.69 128.64 L 148.74 128.51 C 147.72 128.38 146.78 129.09 146.65 130.11 C 146.51 131.13 147.23 132.07 148.25 132.20 L 149.20 132.33 C 150.22 132.46 151.15 131.75 151.29 130.73 C 151.42 129.71 150.70 128.77 149.69 128.64 Z M 148.69 128.53 L 147.70 128.42 C 146.69 128.31 145.79 129.05 145.68 130.06 C 145.57 131.07 146.30 131.98 147.31 132.08 L 148.30 132.19 C 149.31 132.29 150.21 131.56 150.32 130.55 C 150.43 129.54 149.70 128.63 148.69 128.53 Z M 147.66 128.44 L 146.66 128.35 C 145.65 128.26 144.77 129.01 144.68 130.01 C 144.60 131.01 145.34 131.90 146.34 131.98 L 147.35 132.07 C 148.36 132.15 149.24 131.41 149.32 130.41 C 149.41 129.41 148.67 128.52 147.66 128.44 Z M 146.63 128.37 L 145.60 128.30 C 144.60 128.23 143.74 128.97 143.67 129.97 C 143.60 130.96 144.35 131.82 145.34 131.89 L 146.37 131.96 C 147.37 132.03 148.23 131.29 148.30 130.29 C 148.37 129.30 147.62 128.44 146.63 128.37 Z M 145.57 128.31 L 144.53 128.25 C 143.55 128.19 142.70 128.94 142.64 129.93 C 142.59 130.91 143.34 131.76 144.32 131.81 L 145.37 131.88 C 146.35 131.93 147.19 131.18 147.25 130.20 C 147.31 129.21 146.56 128.37 145.57 128.31 Z M 144.52 128.27 L 143.46 128.21 C 142.49 128.16 141.66 128.91 141.61 129.89 C 141.56 130.86 142.30 131.69 143.28 131.74 L 144.33 131.80 C 145.31 131.85 146.14 131.10 146.19 130.12 C 146.24 129.15 145.49 128.32 144.52 128.27 Z M 143.45 128.23 L 142.47 128.19 C 141.50 128.14 140.68 128.88 140.64 129.85 C 140.59 130.81 141.34 131.63 142.30 131.68 L 143.28 131.72 C 144.25 131.77 145.07 131.03 145.11 130.06 C 145.16 129.10 144.42 128.28 143.45 128.23 Z"
      fill="black"
      fill-rule="nonzero" /></svg>