<svg xmlns="http://www.w3.org/2000/svg" width="300" height="300" viewBox="0 0 300 300">
<path d="M 147.57 142.69 L 147.09 141.80 C 146.66 141.00 145.66 140.71 144.86 141.14 C 144.06 141.57 143.77 142.57 144.21 143.37 L 144.69 144.26 C 145.12 145.05 146.12 145.35 146.92 144.91 C 147.71 144.48 148.01 143.48 147.57 142.69 Z M 147.09 141.77 L 146.59 140.89 C 146.14 140.10 145.13 139.82 144.34 140.26 C 143.54 140.71 143.26 141.72 143.71 142.52 L 144.21 143.39 C 144.66 144.19 145.67 144.47 146.46 144.02 C 147.25 143.57 147.53 142.56 147.09 141.77 Z M 146.57 140.84 L 146.05 139.98 C 145.58 139.20 144.56 138.95 143.77 139.42 C 142.99 139.90 142.73 140.92 143.21 141.71 L 143.73 142.56 C 144.20 143.35 145.23 143.60 146.01 143.12 C 146.80 142.65 147.05 141.63 146.57 140.84 Z M 146.02 139.91 L 145.46 139.09 C 144.95 138.32 143.91 138.12 143.15 138.63 C 142.38 139.15 142.17 140.18 142.69 140.95 L 143.24 141.78 C 143.76 142.54 144.80 142.75 145.56 142.23 C 146.33 141.72 146.53 140.68 146.02 139.91 Z M 145.41 139.00 L 144.81 138.21 C 144.25 137.48 143.19 137.34 142.45 137.90 C 141.72 138.46 141.58 139.52 142.14 140.26 L 142.74 141.04 C 143.31 141.78 144.36 141.92 145.10 141.35 C 145.84 140.79 145.98 139.73 145.41 139.00 Z M 144.73 138.10 L 144.07 137.37 C 143.45 136.68 142.38 136.62 141.68 137.25 C 140.99 137.87 140.94 138.94 141.56 139.63 L 142.22 140.37 C 142.84 141.06 143.91 141.12 144.61 140.49 C 145.30 139.87 145.36 138.80 144.73 138.10 Z M 143.97 137.24 L 143.23 136.56 C 142.54 135.92 141.46 135.97 140.82 136.66 C 140.18 137.36 140.22 138.44 140.92 139.08 L 141.66 139.76 C 142.35 140.40 143.43 140.35 144.07 139.66 C 144.71 138.97 144.67 137.88 143.97 137.24 Z M 143.12 136.43 L 142.31 135.83 C 141.55 135.25 140.46 135.40 139.89 136.17 C 139.31 136.93 139.46 138.02 140.23 138.60 L 141.03 139.20 C 141.79 139.78 142.88 139.63 143.46 138.86 C 144.04 138.10 143.88 137.01 143.12 136.43 Z M 142.18 135.71 L 141.32 135.19 C 140.49 134.68 139.41 134.95 138.91 135.78 C 138.40 136.61 138.67 137.69 139.50 138.20 L 140.36 138.72 C 141.19 139.22 142.27 138.96 142.77 138.12 C 143.28 137.29 143.01 136.21 142.18 135.71 Z M 141.17 135.08 L 140.27 134.65 C 139.38 134.23 138.31 134.62 137.89 135.51 C 137.47 136.40 137.86 137.47 138.75 137.88 L 139.65 138.31 C 140.55 138.73 141.61 138.34 142.03 137.45 C 142.45 136.56 142.06 135.49 141.17 135.08 Z M 140.09 134.55 L 139.15 134.24 C 138.20 133.92 137.18 134.42 136.86 135.37 C 136.54 136.32 137.04 137.35 137.99 137.67 L 138.93 137.98 C 139.88 138.30 140.91 137.80 141.23 136.85 C 141.55 135.90 141.04 134.87 140.09 134.55 Z M 138.94 134.15 L 137.98 133.95 C 136.99 133.75 136.01 134.39 135.81 135.38 C 135.60 136.37 136.24 137.34 137.23 137.55 L 138.20 137.75 C 139.19 137.95 140.16 137.32 140.37 136.32 C 140.57 135.33 139.94 134.36 138.94 134.15 Z M 137.74 133.90 L 136.75 133.83 C 135.73 133.75 134.84 134.52 134.77 135.54 C 134.69 136.56 135.46 137.45 136.48 137.52 L 137.47 137.60 C 138.49 137.67 139.38 136.91 139.45 135.89 C 139.53 134.87 138.76 133.98 137.74 133.90 Z M 136.51 133.81 L 135.52 133.87 C 134.49 133.93 133.70 134.81 133.76 135.84 C 133.82 136.87 134.70 137.65 135.73 137.59 L 136.72 137.54 C 137.75 137.48 138.54 136.60 138.48 135.57 C 138.42 134.54 137.53 133.76 136.51 133.81 Z M 135.26 133.89 L 134.29 134.09 C 133.27 134.29 132.61 135.27 132.81 136.29 C 133.01 137.31 134.00 137.97 135.02 137.77 L 135.99 137.57 C 137.01 137.37 137.67 136.39 137.47 135.37 C 137.26 134.35 136.28 133.69 135.26 133.89 Z M 134.02 134.14 L 133.08 134.48 C 132.10 134.82 131.58 135.90 131.93 136.89 C 132.28 137.87 133.36 138.39 134.34 138.04 L 135.28 137.71 C 136.26 137.36 136.78 136.28 136.43 135.30 C 136.09 134.31 135.01 133.80 134.02 134.14 Z M 132.82 134.58 L 131.93 135.05 C 131.00 135.55 130.65 136.70 131.14 137.63 C 131.64 138.55 132.79 138.90 133.71 138.41 L 134.60 137.94 C 135.53 137.44 135.88 136.29 135.39 135.36 C 134.90 134.44 133.74 134.09 132.82 134.58 Z M 131.68 135.20 L 130.88 135.79 C 130.04 136.42 129.86 137.62 130.50 138.47 C 131.13 139.31 132.33 139.49 133.17 138.86 L 133.96 138.26 C 134.81 137.63 134.98 136.43 134.35 135.59 C 133.72 134.74 132.52 134.57 131.68 135.20 Z M 130.69 135.95 L 129.99 136.64 C 129.23 137.38 129.22 138.59 129.96 139.35 C 130.70 140.10 131.91 140.12 132.67 139.38 L 133.37 138.69 C 134.13 137.95 134.14 136.74 133.40 135.98 C 132.66 135.23 131.44 135.21 130.69 135.95 Z M 129.85 136.79 L 129.21 137.56 C 128.54 138.38 128.65 139.59 129.47 140.26 C 130.29 140.94 131.50 140.82 132.17 140.00 L 132.81 139.23 C 133.48 138.41 133.37 137.20 132.55 136.53 C 131.73 135.85 130.52 135.97 129.85 136.79 Z M 129.11 137.69 L 128.53 138.53 C 127.93 139.40 128.15 140.60 129.03 141.20 C 129.90 141.80 131.10 141.58 131.70 140.71 L 132.27 139.87 C 132.88 139.00 132.66 137.80 131.78 137.20 C 130.91 136.60 129.71 136.82 129.11 137.69 Z M 128.46 138.64 L 127.94 139.52 C 127.40 140.44 127.71 141.62 128.62 142.16 C 129.54 142.70 130.72 142.39 131.26 141.47 L 131.77 140.59 C 132.31 139.68 132.01 138.50 131.09 137.96 C 130.17 137.42 129.00 137.73 128.46 138.64 Z M 127.88 139.62 L 127.42 140.52 C 126.94 141.47 127.31 142.63 128.26 143.11 C 129.21 143.59 130.37 143.22 130.85 142.27 L 131.31 141.38 C 131.80 140.43 131.42 139.27 130.47 138.78 C 129.53 138.30 128.37 138.67 127.88 139.62 Z M 127.38 140.60 L 126.96 141.53 C 126.53 142.50 126.96 143.64 127.93 144.08 C 128.91 144.52 130.05 144.08 130.48 143.11 L 130.90 142.19 C 131.34 141.21 130.90 140.07 129.93 139.64 C 128.96 139.20 127.82 139.63 127.38 140.60 Z M 126.93 141.62 L 126.54 142.60 C 126.16 143.59 126.65 144.71 127.64 145.10 C 128.63 145.48 129.75 144.99 130.14 144.00 L 130.52 143.02 C 130.91 142.03 130.42 140.91 129.43 140.52 C 128.43 140.13 127.31 140.62 126.93 141.62 Z M 126.51 142.69 L 126.19 143.65 C 125.85 144.66 126.40 145.75 127.41 146.09 C 128.43 146.43 129.52 145.88 129.85 144.87 L 130.17 143.91 C 130.51 142.90 129.96 141.80 128.95 141.47 C 127.94 141.13 126.84 141.68 126.51 142.69 Z M 126.16 143.74 L 125.90 144.69 C 125.61 145.72 126.22 146.79 127.25 147.07 C 128.28 147.35 129.34 146.75 129.62 145.72 L 129.88 144.77 C 130.17 143.74 129.56 142.68 128.54 142.40 C 127.51 142.11 126.44 142.72 126.16 143.74 Z M 125.87 144.79 L 125.66 145.73 C 125.43 146.77 126.09 147.81 127.13 148.04 C 128.17 148.27 129.20 147.61 129.44 146.57 L 129.65 145.63 C 129.88 144.59 129.22 143.55 128.18 143.32 C 127.14 143.09 126.11 143.74 125.87 144.79 Z M 125.65 145.82 L 125.48 146.77 C 125.29 147.82 126.00 148.82 127.05 149.01 C 128.10 149.19 129.10 148.49 129.29 147.44 L 129.45 146.49 C 129.64 145.44 128.94 144.43 127.88 144.25 C 126.83 144.06 125.83 144.77 125.65 145.82 Z M 125.47 146.85 L 125.33 147.83 C 125.19 148.89 125.93 149.86 126.99 150.00 C 128.05 150.14 129.03 149.40 129.17 148.34 L 129.30 147.36 C 129.44 146.30 128.70 145.33 127.64 145.19 C 126.58 145.04 125.61 145.79 125.47 146.85 Z M 125.32 147.89 L 125.23 148.89 C 125.12 149.96 125.90 150.90 126.96 151.01 C 128.02 151.12 128.97 150.34 129.08 149.27 L 129.18 148.28 C 129.28 147.21 128.51 146.27 127.44 146.16 C 126.38 146.05 125.43 146.83 125.32 147.89 Z M 125.22 148.95 L 125.15 149.95 C 125.07 151.02 125.88 151.94 126.94 152.02 C 128.01 152.09 128.94 151.29 129.01 150.22 L 129.08 149.22 C 129.16 148.15 128.36 147.23 127.29 147.15 C 126.22 147.08 125.30 147.88 125.22 148.95 Z M 125.15 149.99 L 125.10 151.00 C 125.04 152.06 125.87 152.97 126.94 153.02 C 128.01 153.08 128.92 152.25 128.97 151.18 L 129.02 150.18 C 129.07 149.11 128.24 148.20 127.18 148.15 C 126.11 148.10 125.20 148.92 125.15 149.99 Z M 125.09 151.03 L 125.06 152.02 C 125.03 153.09 125.87 153.99 126.94 154.02 C 128.01 154.06 128.90 153.22 128.94 152.15 L 128.97 151.15 C 129.00 150.08 128.17 149.19 127.09 149.15 C 126.02 149.12 125.13 149.96 125.09 151.03 Z M 125.06 152.04 L 125.04 153.00 C 125.02 154.08 125.87 154.96 126.94 154.99 C 128.01 155.01 128.90 154.16 128.92 153.09 L 128.94 152.13 C 128.96 151.06 128.11 150.17 127.04 150.15 C 125.97 150.12 125.08 150.97 125.06 152.04 Z M 125.04 153.04 L 125.04 153.96 C 125.03 155.03 125.90 155.91 126.97 155.91 C 128.05 155.91 128.92 155.04 128.92 153.97 L 128.92 153.05 C 128.92 151.98 128.05 151.11 126.98 151.10 C 125.91 151.10 125.04 151.97 125.04 153.04 Z M 125.04 154.05 L 125.08 154.98 C 125.12 156.05 126.03 156.88 127.10 156.84 C 128.17 156.79 129.00 155.89 128.96 154.81 L 128.92 153.88 C 128.87 152.81 127.97 151.98 126.89 152.03 C 125.82 152.07 124.99 152.98 125.04 154.05 Z M 125.09 155.11 L 125.19 156.07 C 125.31 157.14 126.27 157.91 127.34 157.79 C 128.40 157.67 129.17 156.71 129.05 155.65 L 128.95 154.68 C 128.83 153.62 127.87 152.85 126.80 152.97 C 125.74 153.09 124.97 154.05 125.09 155.11 Z M 125.22 156.23 L 125.42 157.24 C 125.62 158.30 126.64 158.98 127.70 158.77 C 128.75 158.57 129.44 157.55 129.23 156.49 L 129.03 155.49 C 128.82 154.43 127.80 153.75 126.75 153.95 C 125.70 154.16 125.01 155.18 125.22 156.23 Z M 125.46 157.41 L 125.77 158.49 C 126.07 159.52 127.15 160.11 128.18 159.81 C 129.21 159.50 129.80 158.43 129.50 157.40 L 129.19 156.32 C 128.89 155.29 127.81 154.70 126.78 155.00 C 125.75 155.30 125.16 156.38 125.46 157.41 Z M 125.82 158.64 L 126.17 159.55 C 126.55 160.55 127.68 161.05 128.68 160.67 C 129.68 160.29 130.19 159.16 129.80 158.16 L 129.45 157.25 C 129.07 156.24 127.94 155.74 126.94 156.13 C 125.94 156.51 125.44 157.63 125.82 158.64 Z M 126.22 159.66 L 126.60 160.51 C 127.05 161.49 128.20 161.92 129.18 161.48 C 130.16 161.03 130.59 159.88 130.14 158.90 L 129.76 158.05 C 129.31 157.07 128.16 156.64 127.18 157.09 C 126.20 157.53 125.77 158.68 126.22 159.66 Z M 126.65 160.60 L 127.10 161.47 C 127.59 162.43 128.76 162.80 129.72 162.31 C 130.67 161.81 131.05 160.64 130.55 159.69 L 130.10 158.81 C 129.61 157.86 128.43 157.49 127.48 157.98 C 126.53 158.47 126.15 159.65 126.65 160.60 Z M 127.14 161.56 L 127.65 162.43 C 128.19 163.36 129.38 163.68 130.31 163.14 C 131.24 162.60 131.56 161.41 131.02 160.48 L 130.51 159.60 C 129.97 158.68 128.78 158.36 127.85 158.90 C 126.92 159.43 126.60 160.63 127.14 161.56 Z M 127.70 162.51 L 128.26 163.38 C 128.84 164.29 130.04 164.55 130.95 163.97 C 131.85 163.39 132.11 162.18 131.53 161.28 L 130.97 160.41 C 130.39 159.50 129.18 159.24 128.28 159.82 C 127.38 160.40 127.12 161.61 127.70 162.51 Z M 128.31 163.46 L 128.91 164.31 C 129.54 165.19 130.75 165.39 131.63 164.77 C 132.51 164.14 132.71 162.93 132.09 162.05 L 131.48 161.20 C 130.86 160.33 129.64 160.12 128.76 160.75 C 127.89 161.37 127.68 162.58 128.31 163.46 Z M 128.97 164.39 L 129.62 165.20 C 130.28 166.05 131.51 166.19 132.35 165.52 C 133.20 164.86 133.34 163.63 132.67 162.79 L 132.03 161.97 C 131.36 161.13 130.13 160.99 129.29 161.65 C 128.45 162.32 128.31 163.55 128.97 164.39 Z M 129.69 165.29 L 130.36 166.05 C 131.08 166.86 132.31 166.93 133.11 166.22 C 133.92 165.51 133.99 164.28 133.28 163.47 L 132.60 162.70 C 131.89 161.90 130.66 161.82 129.85 162.54 C 129.05 163.25 128.97 164.48 129.69 165.29 Z M 130.45 166.14 L 131.19 166.89 C 131.96 167.64 133.19 167.64 133.95 166.88 C 134.71 166.12 134.71 164.88 133.94 164.12 L 133.20 163.38 C 132.43 162.62 131.20 162.62 130.44 163.39 C 129.68 164.15 129.68 165.38 130.45 166.14 Z M 131.30 166.98 L 132.09 167.67 C 132.91 168.37 134.14 168.28 134.84 167.46 C 135.54 166.65 135.45 165.42 134.64 164.71 L 133.84 164.03 C 133.03 163.32 131.80 163.41 131.09 164.23 C 130.39 165.05 130.48 166.28 131.30 166.98 Z M 132.20 167.76 L 133.02 168.37 C 133.89 169.01 135.11 168.83 135.75 167.96 C 136.39 167.10 136.21 165.88 135.35 165.24 L 134.53 164.63 C 133.66 163.98 132.44 164.16 131.80 165.03 C 131.16 165.89 131.34 167.11 132.20 167.76 Z M 133.14 168.45 L 133.98 168.98 C 134.89 169.56 136.10 169.29 136.68 168.38 C 137.26 167.47 136.99 166.27 136.08 165.69 L 135.23 165.15 C 134.32 164.58 133.12 164.85 132.54 165.75 C 131.96 166.66 132.23 167.87 133.14 168.45 Z M 134.11 169.06 L 134.97 169.52 C 135.92 170.03 137.10 169.67 137.61 168.73 C 138.12 167.78 137.77 166.59 136.82 166.08 L 135.95 165.62 C 135.00 165.11 133.82 165.46 133.31 166.41 C 132.80 167.36 133.16 168.55 134.11 169.06 Z M 135.10 169.58 L 135.98 169.98 C 136.96 170.42 138.12 169.98 138.56 169.00 C 139.00 168.01 138.56 166.86 137.58 166.42 L 136.69 166.02 C 135.71 165.58 134.55 166.02 134.11 167.00 C 133.67 167.99 134.11 169.14 135.10 169.58 Z M 136.10 170.03 L 137.00 170.36 C 138.01 170.73 139.14 170.21 139.51 169.20 C 139.88 168.19 139.36 167.06 138.35 166.69 L 137.45 166.36 C 136.44 165.99 135.31 166.51 134.94 167.52 C 134.57 168.54 135.09 169.66 136.10 170.03 Z M 137.13 170.40 L 138.06 170.67 C 139.10 170.98 140.18 170.38 140.48 169.35 C 140.78 168.31 140.19 167.22 139.15 166.92 L 138.22 166.65 C 137.19 166.35 136.10 166.94 135.80 167.98 C 135.50 169.02 136.09 170.10 137.13 170.40 Z M 138.18 170.71 L 139.17 170.93 C 140.22 171.16 141.27 170.49 141.50 169.44 C 141.73 168.38 141.07 167.34 140.01 167.11 L 139.03 166.89 C 137.97 166.66 136.93 167.32 136.70 168.38 C 136.46 169.43 137.13 170.47 138.18 170.71 Z M 139.29 170.95 L 140.28 171.10 C 141.35 171.27 142.35 170.54 142.52 169.48 C 142.69 168.41 141.96 167.41 140.89 167.24 L 139.90 167.09 C 138.83 166.92 137.83 167.65 137.66 168.71 C 137.49 169.78 138.22 170.78 139.29 170.95 Z M 140.39 171.12 L 141.39 171.22 C 142.46 171.33 143.42 170.54 143.53 169.47 C 143.64 168.39 142.86 167.44 141.78 167.33 L 140.78 167.23 C 139.71 167.12 138.75 167.90 138.64 168.98 C 138.53 170.05 139.32 171.01 140.39 171.12 Z M 141.49 171.23 L 142.48 171.28 C 143.56 171.33 144.48 170.50 144.54 169.42 C 144.59 168.34 143.76 167.43 142.68 167.37 L 141.68 167.32 C 140.61 167.26 139.69 168.09 139.63 169.17 C 139.58 170.25 140.41 171.17 141.49 171.23 Z M 142.57 171.28 L 143.57 171.29 C 144.65 171.30 145.53 170.43 145.54 169.35 C 145.54 168.27 144.67 167.38 143.59 167.38 L 142.60 167.37 C 141.52 167.36 140.64 168.23 140.63 169.31 C 140.62 170.39 141.49 171.27 142.57 171.28 Z M 143.64 171.29 L 144.63 171.26 C 145.71 171.22 146.56 170.32 146.52 169.24 C 146.49 168.16 145.59 167.31 144.51 167.35 L 143.52 167.38 C 142.44 167.41 141.59 168.31 141.62 169.39 C 141.66 170.47 142.56 171.32 143.64 171.29 Z M 144.69 171.25 L 145.70 171.19 C 146.78 171.12 147.60 170.19 147.53 169.11 C 147.46 168.04 146.53 167.22 145.45 167.28 L 144.44 167.35 C 143.37 167.42 142.55 168.35 142.62 169.43 C 142.68 170.50 143.61 171.32 144.69 171.25 Z M 145.77 171.19 L 146.80 171.08 C 147.87 170.98 148.66 170.02 148.55 168.94 C 148.45 167.87 147.49 167.08 146.41 167.19 L 145.38 167.29 C 144.31 167.40 143.52 168.35 143.63 169.43 C 143.73 170.51 144.69 171.29 145.77 171.19 Z M 146.88 171.08 L 147.89 170.93 C 148.96 170.78 149.71 169.79 149.55 168.71 C 149.40 167.64 148.41 166.90 147.34 167.05 L 146.33 167.20 C 145.26 167.35 144.51 168.34 144.67 169.41 C 144.82 170.48 145.81 171.23 146.88 171.08 Z M 148.00 170.91 L 148.98 170.72 C 150.04 170.51 150.73 169.48 150.52 168.42 C 150.31 167.35 149.28 166.66 148.22 166.87 L 147.23 167.07 C 146.17 167.28 145.48 168.31 145.69 169.37 C 145.90 170.43 146.93 171.13 148.00 170.91 Z M 149.10 170.69 L 150.05 170.44 C 151.10 170.16 151.72 169.09 151.45 168.04 C 151.17 166.99 150.10 166.37 149.05 166.65 L 148.10 166.90 C 147.05 167.18 146.42 168.25 146.70 169.30 C 146.98 170.35 148.05 170.97 149.10 170.69 Z M 150.19 170.40 L 151.11 170.08 C 152.14 169.73 152.68 168.61 152.32 167.59 C 151.97 166.56 150.85 166.02 149.83 166.37 L 148.91 166.69 C 147.88 167.04 147.34 168.16 147.70 169.19 C 148.05 170.21 149.17 170.75 150.19 170.40 Z M 151.27 170.02 L 152.15 169.63 C 153.14 169.19 153.58 168.03 153.14 167.04 C 152.70 166.05 151.54 165.60 150.55 166.04 L 149.67 166.43 C 148.68 166.87 148.23 168.03 148.67 169.02 C 149.11 170.02 150.27 170.46 151.27 170.02 Z M 152.31 169.55 L 153.16 169.07 C 154.11 168.54 154.45 167.35 153.92 166.40 C 153.39 165.45 152.19 165.11 151.24 165.64 L 150.39 166.12 C 149.44 166.65 149.10 167.85 149.63 168.80 C 150.16 169.75 151.36 170.08 152.31 169.55 Z M 153.31 168.98 L 154.12 168.43 C 155.02 167.81 155.25 166.59 154.63 165.69 C 154.02 164.79 152.79 164.57 151.90 165.18 L 151.09 165.74 C 150.19 166.35 149.96 167.58 150.58 168.47 C 151.19 169.37 152.42 169.60 153.31 168.98 Z M 154.26 168.33 L 155.02 167.71 C 155.87 167.02 155.99 165.78 155.30 164.93 C 154.61 164.09 153.37 163.96 152.53 164.65 L 151.76 165.28 C 150.92 165.97 150.79 167.21 151.48 168.05 C 152.17 168.90 153.41 169.02 154.26 168.33 Z M 155.14 167.61 L 155.86 166.92 C 156.65 166.17 156.68 164.92 155.93 164.13 C 155.18 163.34 153.93 163.31 153.14 164.06 L 152.41 164.75 C 151.62 165.50 151.59 166.75 152.35 167.54 C 153.10 168.33 154.35 168.36 155.14 167.61 Z M 155.96 166.82 L 156.64 166.07 C 157.38 165.27 157.32 164.02 156.52 163.28 C 155.71 162.55 154.46 162.60 153.72 163.41 L 153.04 164.16 C 152.30 164.96 152.36 166.21 153.17 166.95 C 153.97 167.69 155.22 167.63 155.96 166.82 Z M 156.73 165.98 L 157.37 165.18 C 158.05 164.33 157.92 163.08 157.07 162.40 C 156.21 161.71 154.97 161.85 154.28 162.70 L 153.64 163.50 C 152.95 164.35 153.09 165.60 153.94 166.28 C 154.79 166.97 156.04 166.83 156.73 165.98 Z M 157.44 165.09 L 158.00 164.31 C 158.63 163.42 158.43 162.19 157.54 161.55 C 156.65 160.91 155.41 161.12 154.77 162.01 L 154.21 162.79 C 153.58 163.68 153.78 164.92 154.67 165.55 C 155.56 166.19 156.80 165.98 157.44 165.09 Z M 158.06 164.23 L 158.56 163.44 C 159.15 162.51 158.88 161.29 157.96 160.70 C 157.03 160.11 155.81 160.38 155.22 161.30 L 154.71 162.09 C 154.12 163.02 154.39 164.24 155.32 164.83 C 156.24 165.42 157.47 165.15 158.06 164.23 Z M 158.62 163.34 L 159.09 162.51 C 159.63 161.55 159.29 160.34 158.33 159.80 C 157.37 159.27 156.16 159.61 155.63 160.56 L 155.16 161.40 C 154.62 162.35 154.96 163.56 155.92 164.10 C 156.87 164.64 158.08 164.30 158.62 163.34 Z M 159.15 162.40 L 159.57 161.52 C 160.05 160.54 159.64 159.35 158.65 158.87 C 157.66 158.39 156.47 158.80 156.00 159.79 L 155.57 160.67 C 155.09 161.66 155.50 162.85 156.49 163.32 C 157.48 163.80 158.67 163.39 159.15 162.40 Z M 159.63 161.41 L 160.01 160.48 C 160.43 159.47 159.94 158.30 158.92 157.88 C 157.91 157.47 156.74 157.95 156.33 158.97 L 155.94 159.90 C 155.52 160.92 156.01 162.08 157.03 162.50 C 158.04 162.92 159.21 162.43 159.63 161.41 Z M 160.05 160.37 L 160.39 159.38 C 160.74 158.34 160.18 157.21 159.14 156.85 C 158.10 156.50 156.97 157.06 156.61 158.10 L 156.28 159.09 C 155.93 160.13 156.48 161.26 157.53 161.61 C 158.57 161.97 159.70 161.41 160.05 160.37 Z M 160.43 159.26 L 160.71 158.22 C 161.00 157.15 160.37 156.06 159.31 155.77 C 158.24 155.48 157.15 156.11 156.86 157.17 L 156.58 158.22 C 156.29 159.28 156.92 160.38 157.98 160.67 C 159.04 160.95 160.14 160.32 160.43 159.26 Z M 160.74 158.10 L 160.95 157.09 C 161.18 156.01 160.48 154.95 159.40 154.72 C 158.32 154.50 157.26 155.19 157.04 156.27 L 156.83 157.29 C 156.60 158.37 157.30 159.43 158.38 159.65 C 159.46 159.87 160.52 159.18 160.74 158.10 Z M 160.97 156.99 L 161.13 156.00 C 161.30 154.90 160.56 153.88 159.46 153.71 C 158.37 153.54 157.35 154.28 157.18 155.37 L 157.02 156.37 C 156.85 157.46 157.59 158.48 158.68 158.66 C 159.78 158.83 160.80 158.08 160.97 156.99 Z M 161.14 155.92 L 161.26 154.90 C 161.39 153.80 160.61 152.80 159.51 152.67 C 158.41 152.54 157.41 153.33 157.28 154.43 L 157.16 155.45 C 157.03 156.55 157.82 157.54 158.92 157.67 C 160.02 157.80 161.01 157.02 161.14 155.92 Z M 161.27 154.83 L 161.36 153.80 C 161.45 152.69 160.63 151.72 159.53 151.63 C 158.42 151.53 157.45 152.35 157.36 153.46 L 157.27 154.49 C 157.18 155.60 158.00 156.57 159.10 156.66 C 160.21 156.75 161.18 155.93 161.27 154.83 Z M 161.37 153.74 L 161.42 152.71 C 161.49 151.60 160.64 150.65 159.53 150.59 C 158.42 150.52 157.47 151.37 157.41 152.48 L 157.35 153.52 C 157.29 154.62 158.14 155.57 159.25 155.63 C 160.36 155.70 161.30 154.85 161.37 153.74 Z M 161.43 152.66 L 161.46 151.64 C 161.50 150.53 160.62 149.60 159.51 149.56 C 158.40 149.53 157.47 150.40 157.44 151.51 L 157.41 152.53 C 157.37 153.64 158.24 154.57 159.35 154.61 C 160.47 154.64 161.40 153.77 161.43 152.66 Z M 161.47 151.59 L 161.47 150.60 C 161.49 149.49 160.59 148.58 159.48 148.57 C 158.36 148.56 157.45 149.45 157.44 150.56 L 157.43 151.55 C 157.42 152.67 158.32 153.58 159.43 153.59 C 160.54 153.60 161.45 152.71 161.47 151.59 Z M 161.48 150.56 L 161.47 149.61 C 161.46 148.50 160.54 147.60 159.43 147.62 C 158.31 147.63 157.42 148.54 157.43 149.66 L 157.44 150.60 C 157.45 151.72 158.36 152.61 159.48 152.60 C 160.59 152.59 161.49 151.68 161.48 150.56 Z M 161.47 149.58 L 161.44 148.55 C 161.41 147.44 160.48 146.56 159.36 146.59 C 158.24 146.62 157.37 147.55 157.40 148.67 L 157.43 149.69 C 157.46 150.81 158.39 151.69 159.51 151.66 C 160.62 151.62 161.50 150.69 161.47 149.58 Z M 161.44 148.50 L 161.38 147.35 C 161.32 146.23 160.36 145.37 159.25 145.44 C 158.13 145.50 157.27 146.45 157.33 147.57 L 157.40 148.72 C 157.46 149.84 158.41 150.69 159.53 150.63 C 160.65 150.57 161.50 149.62 161.44 148.50 Z M 161.37 147.27 L 161.28 146.22 C 161.18 145.11 160.19 144.29 159.08 144.39 C 157.96 144.49 157.14 145.48 157.24 146.59 L 157.34 147.64 C 157.44 148.75 158.43 149.58 159.54 149.47 C 160.65 149.37 161.48 148.39 161.37 147.27 Z M 161.27 146.13 L 161.14 145.17 C 160.98 144.06 159.96 143.28 158.85 143.44 C 157.74 143.59 156.97 144.61 157.12 145.72 L 157.25 146.69 C 157.41 147.79 158.43 148.57 159.54 148.42 C 160.65 148.26 161.42 147.24 161.27 146.13 Z M 161.12 145.06 L 160.94 144.16 C 160.73 143.06 159.66 142.34 158.56 142.56 C 157.47 142.77 156.75 143.84 156.96 144.94 L 157.14 145.83 C 157.35 146.93 158.42 147.65 159.52 147.44 C 160.62 147.22 161.33 146.16 161.12 145.06 Z M 160.92 144.04 L 160.70 143.19 C 160.41 142.11 159.30 141.46 158.22 141.74 C 157.13 142.02 156.48 143.13 156.77 144.21 L 156.99 145.06 C 157.27 146.15 158.38 146.80 159.47 146.51 C 160.55 146.23 161.20 145.12 160.92 144.04 Z M 160.66 143.06 L 160.37 142.20 C 160.02 141.13 158.87 140.56 157.80 140.91 C 156.74 141.27 156.16 142.42 156.52 143.48 L 156.81 144.35 C 157.16 145.41 158.31 145.98 159.37 145.63 C 160.44 145.27 161.01 144.12 160.66 143.06 Z M 160.32 142.07 L 159.96 141.19 C 159.53 140.16 158.35 139.66 157.31 140.09 C 156.27 140.52 155.78 141.71 156.21 142.74 L 156.57 143.62 C 156.99 144.65 158.18 145.15 159.22 144.72 C 160.26 144.29 160.75 143.10 160.32 142.07 Z M 159.91 141.07 L 159.48 140.20 C 158.98 139.20 157.76 138.78 156.76 139.28 C 155.75 139.78 155.34 141.00 155.83 142.00 L 156.26 142.87 C 156.76 143.87 157.98 144.29 158.98 143.79 C 159.99 143.29 160.40 142.08 159.91 141.07 Z M 159.42 140.09 L 158.92 139.22 C 158.37 138.25 157.12 137.91 156.15 138.47 C 155.18 139.03 154.84 140.27 155.40 141.24 L 155.89 142.11 C 156.45 143.09 157.69 143.42 158.67 142.87 C 159.64 142.31 159.98 141.07 159.42 140.09 Z M 158.87 139.13 L 158.30 138.25 C 157.69 137.31 156.43 137.03 155.49 137.64 C 154.54 138.25 154.27 139.51 154.88 140.46 L 155.45 141.34 C 156.06 142.28 157.32 142.55 158.26 141.94 C 159.21 141.33 159.48 140.07 158.87 139.13 Z M 158.25 138.17 L 157.64 137.32 C 156.99 136.40 155.72 136.19 154.80 136.84 C 153.89 137.49 153.67 138.76 154.32 139.67 L 154.93 140.53 C 155.58 141.45 156.85 141.66 157.77 141.01 C 158.68 140.36 158.90 139.09 158.25 138.17 Z M 157.60 137.26 L 157.03 136.51 C 156.34 135.62 155.07 135.45 154.17 136.13 C 153.28 136.81 153.11 138.09 153.79 138.98 L 154.36 139.73 C 155.04 140.62 156.32 140.79 157.21 140.11 C 158.11 139.43 158.28 138.15 157.60 137.26 Z M 156.99 136.47 L 156.38 135.71 C 155.67 134.83 154.39 134.70 153.52 135.40 C 152.64 136.11 152.51 137.39 153.21 138.26 L 153.83 139.02 C 154.53 139.90 155.81 140.03 156.68 139.33 C 157.56 138.62 157.70 137.34 156.99 136.47 Z M 156.35 135.67 L 155.70 134.90 C 154.98 134.05 153.69 133.94 152.84 134.66 C 151.98 135.39 151.87 136.67 152.59 137.53 L 153.24 138.30 C 153.97 139.15 155.25 139.26 156.11 138.54 C 156.97 137.81 157.07 136.53 156.35 135.67 Z M 155.67 134.87 L 155.00 134.11 C 154.25 133.26 152.97 133.18 152.13 133.92 C 151.28 134.67 151.20 135.95 151.95 136.79 L 152.62 137.56 C 153.36 138.40 154.65 138.49 155.49 137.74 C 156.33 137.00 156.42 135.72 155.67 134.87 Z M 154.97 134.08 L 154.27 133.31 C 153.52 132.49 152.23 132.43 151.40 133.19 C 150.57 133.95 150.52 135.23 151.27 136.06 L 151.97 136.82 C 152.73 137.65 154.02 137.71 154.84 136.95 C 155.67 136.19 155.73 134.90 154.97 134.08 Z M 154.25 133.29 L 153.54 132.54 C 152.76 131.72 151.48 131.69 150.66 132.46 C 149.85 133.24 149.81 134.52 150.59 135.34 L 151.30 136.09 C 152.07 136.90 153.36 136.94 154.17 136.16 C 154.99 135.39 155.02 134.10 154.25 133.29 Z M 153.51 132.51 L 152.79 131.78 C 152.00 130.97 150.71 130.96 149.91 131.75 C 149.11 132.54 149.10 133.83 149.89 134.63 L 150.61 135.36 C 151.40 136.16 152.69 136.18 153.49 135.39 C 154.29 134.60 154.30 133.31 153.51 132.51 Z M 152.76 131.75 L 152.02 131.03 C 151.22 130.24 149.93 130.26 149.15 131.06 C 148.36 131.86 148.38 133.15 149.18 133.94 L 149.92 134.65 C 150.72 135.44 152.00 135.42 152.79 134.62 C 153.57 133.82 153.56 132.53 152.76 131.75 Z M 151.99 131.00 L 151.25 130.31 C 150.43 129.54 149.15 129.58 148.38 130.40 C 147.61 131.22 147.65 132.51 148.47 133.27 L 149.21 133.97 C 150.03 134.73 151.32 134.69 152.09 133.87 C 152.85 133.05 152.81 131.77 151.99 131.00 Z M 151.21 130.27 L 150.47 129.61 C 149.63 128.86 148.34 128.93 147.60 129.77 C 146.85 130.61 146.93 131.89 147.76 132.64 L 148.51 133.31 C 149.35 134.05 150.63 133.98 151.38 133.14 C 152.13 132.30 152.05 131.02 151.21 130.27 Z M 150.42 129.57 L 149.67 128.93 C 148.81 128.21 147.53 128.32 146.81 129.18 C 146.08 130.04 146.19 131.32 147.05 132.04 L 147.81 132.68 C 148.66 133.40 149.95 133.29 150.67 132.43 C 151.39 131.57 151.28 130.29 150.42 129.57 Z M 149.62 128.89 L 148.85 128.29 C 147.97 127.59 146.70 127.74 146.00 128.62 C 145.31 129.50 145.46 130.78 146.33 131.47 L 147.10 132.08 C 147.98 132.77 149.26 132.63 149.95 131.75 C 150.65 130.87 150.50 129.59 149.62 128.89 Z M 148.80 128.25 L 148.00 127.66 C 147.10 127.00 145.83 127.19 145.17 128.10 C 144.50 129.00 144.69 130.27 145.60 130.93 L 146.39 131.52 C 147.29 132.18 148.56 131.99 149.23 131.08 C 149.89 130.18 149.70 128.91 148.80 128.25 Z M 147.93 127.62 L 147.01 127.01 C 146.09 126.38 144.83 126.63 144.21 127.56 C 143.58 128.49 143.83 129.75 144.76 130.37 L 145.67 130.98 C 146.60 131.60 147.86 131.35 148.48 130.42 C 149.10 129.49 148.85 128.24 147.93 127.62 Z M 146.90 126.95 L 145.99 126.41 C 145.02 125.85 143.79 126.18 143.23 127.14 C 142.67 128.10 143.00 129.33 143.96 129.90 L 144.87 130.43 C 145.84 130.99 147.07 130.66 147.63 129.70 C 148.19 128.74 147.86 127.51 146.90 126.95 Z M 145.83 126.34 L 144.92 125.91 C 143.92 125.43 142.72 125.86 142.24 126.86 C 141.77 127.86 142.20 129.06 143.20 129.53 L 144.11 129.97 C 145.11 130.44 146.31 130.02 146.79 129.01 C 147.26 128.01 146.83 126.81 145.83 126.34 Z M 144.70 125.83 L 143.80 125.52 C 142.75 125.16 141.62 125.72 141.26 126.76 C 140.90 127.81 141.46 128.94 142.50 129.30 L 143.41 129.61 C 144.45 129.97 145.59 129.41 145.95 128.37 C 146.31 127.32 145.75 126.19 144.70 125.83 Z M 143.51 125.45 L 142.62 125.29 C 141.54 125.09 140.50 125.81 140.31 126.89 C 140.11 127.97 140.83 129.01 141.91 129.21 L 142.79 129.37 C 143.88 129.57 144.91 128.85 145.11 127.77 C 145.31 126.69 144.59 125.65 143.51 125.45 Z M 142.23 125.28 L 141.32 125.29 C 140.23 125.31 139.36 126.20 139.38 127.29 C 139.39 128.38 140.29 129.25 141.38 129.23 L 142.29 129.22 C 143.38 129.20 144.25 128.31 144.24 127.22 C 144.22 126.13 143.32 125.26 142.23 125.28 Z M 140.92 125.38 L 139.99 125.59 C 138.95 125.82 138.30 126.86 138.53 127.90 C 138.77 128.94 139.80 129.59 140.84 129.36 L 141.77 129.15 C 142.81 128.91 143.47 127.88 143.23 126.84 C 143.00 125.80 141.96 125.14 140.92 125.38 Z M 139.71 125.73 L 138.80 126.09 C 137.84 126.48 137.37 127.58 137.76 128.55 C 138.15 129.51 139.25 129.98 140.22 129.59 L 141.12 129.22 C 142.09 128.83 142.55 127.73 142.16 126.77 C 141.77 125.80 140.67 125.34 139.71 125.73 Z M 138.64 126.22 L 137.75 126.70 C 136.86 127.18 136.52 128.30 137.00 129.19 C 137.48 130.08 138.60 130.41 139.49 129.93 L 140.38 129.46 C 141.27 128.98 141.60 127.86 141.12 126.97 C 140.64 126.08 139.53 125.74 138.64 126.22 Z M 137.68 126.80 L 136.80 127.35 C 135.96 127.87 135.70 128.97 136.22 129.81 C 136.74 130.64 137.84 130.90 138.68 130.38 L 139.56 129.84 C 140.40 129.32 140.66 128.22 140.14 127.38 C 139.62 126.54 138.51 126.28 137.68 126.80 Z M 136.79 127.40 L 136.36 127.67 C 135.55 128.20 135.32 129.28 135.84 130.09 C 136.37 130.90 137.45 131.13 138.26 130.61 L 138.69 130.33 C 139.50 129.81 139.73 128.72 139.21 127.91 C 138.68 127.10 137.60 126.87 136.79 127.40 Z"
      fill="black"
      fill-rule="nonzero" /></svg>