<svg xmlns="http://www.w3.org/2000/svg" width="300" height="300" viewBox="0 0 300 300">
<path d="M 159.70 141.68 L 158.87 141.02 C 158.15 140.44 157.10 140.56 156.52 141.28 C 155.95 142.00 156.06 143.05 156.78 143.63 L 157.62 144.29 C 158.34 144.87 159.39 144.75 159.96 144.03 C 160.54 143.31 160.42 142.26 159.70 141.68 Z M 158.87 141.01 L 158.05 140.35 C 157.33 139.78 156.27 139.90 155.69 140.62 C 155.12 141.34 155.24 142.40 155.96 142.98 L 156.78 143.63 C 157.51 144.21 158.56 144.09 159.14 143.37 C 159.72 142.64 159.60 141.59 158.87 141.01 Z M 158.05 140.35 L 157.25 139.71 C 156.52 139.13 155.46 139.25 154.88 139.98 C 154.31 140.71 154.43 141.77 155.16 142.35 L 155.96 142.98 C 156.69 143.56 157.75 143.44 158.32 142.71 C 158.90 141.98 158.78 140.92 158.05 140.35 Z M 157.25 139.70 L 156.47 139.09 C 155.74 138.51 154.67 138.64 154.10 139.37 C 153.52 140.11 153.65 141.17 154.38 141.75 L 155.16 142.36 C 155.89 142.93 156.95 142.81 157.53 142.07 C 158.11 141.34 157.98 140.28 157.25 139.70 Z M 156.46 139.08 L 155.73 138.50 C 154.98 137.93 153.92 138.07 153.35 138.81 C 152.77 139.55 152.91 140.61 153.65 141.19 L 154.39 141.76 C 155.13 142.33 156.19 142.20 156.77 141.46 C 157.34 140.72 157.21 139.65 156.46 139.08 Z M 155.72 138.49 L 154.91 137.87 C 154.16 137.30 153.09 137.45 152.52 138.20 C 151.95 138.95 152.10 140.02 152.85 140.59 L 153.66 141.20 C 154.41 141.77 155.48 141.63 156.05 140.88 C 156.61 140.13 156.47 139.06 155.72 138.49 Z M 154.89 137.84 L 154.01 137.20 C 153.24 136.64 152.16 136.81 151.60 137.58 C 151.05 138.35 151.22 139.43 151.99 139.99 L 152.87 140.63 C 153.64 141.18 154.71 141.01 155.27 140.24 C 155.83 139.47 155.66 138.40 154.89 137.84 Z M 153.96 137.15 L 153.14 136.60 C 152.34 136.07 151.26 136.28 150.73 137.08 C 150.20 137.88 150.41 138.96 151.21 139.49 L 152.03 140.04 C 152.83 140.57 153.91 140.36 154.44 139.56 C 154.98 138.76 154.76 137.68 153.96 137.15 Z M 153.07 136.53 L 152.28 136.07 C 151.45 135.57 150.37 135.85 149.87 136.69 C 149.38 137.53 149.66 138.61 150.50 139.10 L 151.28 139.56 C 152.12 140.05 153.20 139.78 153.69 138.94 C 154.18 138.10 153.91 137.02 153.07 136.53 Z M 152.17 135.99 L 151.32 135.57 C 150.43 135.14 149.37 135.50 148.94 136.38 C 148.51 137.27 148.87 138.33 149.75 138.76 L 150.61 139.18 C 151.49 139.61 152.56 139.25 152.99 138.36 C 153.42 137.48 153.05 136.42 152.17 135.99 Z M 151.17 135.48 L 150.22 135.12 C 149.29 134.77 148.25 135.24 147.90 136.17 C 147.55 137.09 148.02 138.13 148.94 138.49 L 149.90 138.85 C 150.83 139.20 151.86 138.73 152.22 137.80 C 152.57 136.87 152.10 135.83 151.17 135.48 Z M 150.06 135.05 L 149.11 134.79 C 148.14 134.52 147.14 135.09 146.87 136.06 C 146.61 137.03 147.18 138.03 148.15 138.30 L 149.10 138.56 C 150.07 138.82 151.07 138.25 151.34 137.29 C 151.60 136.32 151.03 135.31 150.06 135.05 Z M 148.95 134.73 L 148.00 134.56 C 147.00 134.38 146.04 135.05 145.86 136.05 C 145.68 137.05 146.35 138.00 147.35 138.18 L 148.30 138.35 C 149.30 138.53 150.26 137.87 150.44 136.87 C 150.62 135.87 149.95 134.91 148.95 134.73 Z M 147.81 134.52 L 146.85 134.45 C 145.82 134.37 144.93 135.14 144.85 136.16 C 144.78 137.18 145.55 138.08 146.57 138.15 L 147.54 138.22 C 148.56 138.30 149.45 137.53 149.53 136.51 C 149.60 135.49 148.84 134.59 147.81 134.52 Z M 146.57 134.43 L 145.59 134.50 C 144.56 134.58 143.78 135.48 143.86 136.52 C 143.94 137.55 144.84 138.32 145.87 138.24 L 146.85 138.17 C 147.88 138.09 148.65 137.19 148.58 136.16 C 148.50 135.12 147.60 134.35 146.57 134.43 Z M 145.24 134.55 L 144.23 134.82 C 143.23 135.09 142.63 136.12 142.90 137.13 C 143.16 138.14 144.20 138.74 145.21 138.47 L 146.22 138.20 C 147.23 137.93 147.82 136.89 147.56 135.89 C 147.29 134.88 146.25 134.28 145.24 134.55 Z M 143.94 134.91 L 143.17 135.26 C 142.21 135.69 141.78 136.81 142.21 137.77 C 142.64 138.73 143.77 139.15 144.73 138.72 L 145.50 138.38 C 146.46 137.94 146.88 136.82 146.45 135.86 C 146.02 134.91 144.90 134.48 143.94 134.91 Z M 142.97 135.35 L 142.18 135.82 C 141.27 136.36 140.97 137.53 141.51 138.44 C 142.05 139.34 143.22 139.64 144.13 139.10 L 144.92 138.63 C 145.82 138.09 146.12 136.92 145.59 136.02 C 145.05 135.11 143.88 134.81 142.97 135.35 Z M 142.04 135.91 L 141.21 136.50 C 140.35 137.12 140.15 138.32 140.77 139.17 C 141.39 140.03 142.58 140.23 143.44 139.61 L 144.27 139.02 C 145.13 138.40 145.32 137.20 144.71 136.35 C 144.09 135.49 142.89 135.29 142.04 135.91 Z M 141.10 136.58 L 140.24 137.29 C 139.42 137.97 139.31 139.18 139.98 140.00 C 140.66 140.81 141.87 140.93 142.68 140.25 L 143.55 139.54 C 144.37 138.86 144.48 137.65 143.80 136.83 C 143.13 136.02 141.92 135.90 141.10 136.58 Z M 140.16 137.35 L 139.37 138.08 C 138.58 138.80 138.53 140.01 139.25 140.80 C 139.97 141.58 141.18 141.64 141.97 140.92 L 142.76 140.19 C 143.55 139.47 143.60 138.26 142.88 137.47 C 142.16 136.69 140.94 136.63 140.16 137.35 Z M 139.31 138.12 L 138.59 138.83 C 137.83 139.58 137.82 140.80 138.57 141.56 C 139.31 142.32 140.54 142.33 141.30 141.59 L 142.02 140.87 C 142.78 140.13 142.79 138.91 142.04 138.15 C 141.30 137.39 140.07 137.38 139.31 138.12 Z M 138.55 138.87 L 137.83 139.62 C 137.09 140.39 137.11 141.61 137.88 142.35 C 138.65 143.09 139.88 143.07 140.62 142.30 L 141.34 141.55 C 142.08 140.78 142.05 139.56 141.28 138.82 C 140.52 138.08 139.29 138.10 138.55 138.87 Z M 137.80 139.65 L 137.10 140.41 C 136.38 141.20 136.43 142.43 137.22 143.15 C 138.01 143.87 139.23 143.81 139.96 143.03 L 140.65 142.26 C 141.38 141.48 141.32 140.25 140.53 139.53 C 139.74 138.81 138.52 138.86 137.80 139.65 Z M 137.06 140.44 L 136.41 141.20 C 135.71 142.01 135.79 143.23 136.60 143.94 C 137.41 144.64 138.63 144.55 139.34 143.75 L 139.99 142.99 C 140.70 142.18 140.61 140.96 139.80 140.25 C 138.99 139.55 137.77 139.64 137.06 140.44 Z M 136.37 141.24 L 135.78 141.96 C 135.10 142.79 135.21 144.01 136.04 144.69 C 136.87 145.38 138.10 145.26 138.78 144.43 L 139.37 143.71 C 140.06 142.88 139.94 141.65 139.11 140.97 C 138.28 140.29 137.06 140.41 136.37 141.24 Z M 135.73 142.01 L 135.04 142.91 C 134.39 143.77 134.55 144.99 135.41 145.64 C 136.26 146.30 137.48 146.13 138.13 145.28 L 138.83 144.38 C 139.48 143.52 139.32 142.30 138.46 141.65 C 137.61 140.99 136.38 141.16 135.73 142.01 Z M 134.99 142.98 L 134.40 143.82 C 133.79 144.71 134.00 145.92 134.89 146.54 C 135.77 147.15 136.99 146.94 137.61 146.05 L 138.19 145.21 C 138.80 144.33 138.59 143.11 137.70 142.49 C 136.82 141.88 135.60 142.10 134.99 142.98 Z M 134.35 143.89 L 133.85 144.68 C 133.27 145.59 133.54 146.80 134.45 147.38 C 135.36 147.96 136.57 147.69 137.15 146.78 L 137.65 145.99 C 138.23 145.08 137.96 143.87 137.05 143.29 C 136.14 142.71 134.93 142.98 134.35 143.89 Z M 133.82 144.73 L 133.35 145.50 C 132.80 146.43 133.10 147.63 134.03 148.19 C 134.96 148.74 136.16 148.44 136.72 147.51 L 137.18 146.73 C 137.73 145.81 137.43 144.60 136.50 144.05 C 135.57 143.49 134.37 143.80 133.82 144.73 Z M 133.34 145.52 L 132.85 146.36 C 132.31 147.30 132.63 148.50 133.57 149.05 C 134.50 149.59 135.71 149.27 136.25 148.33 L 136.73 147.49 C 137.28 146.55 136.95 145.35 136.02 144.81 C 135.08 144.27 133.88 144.59 133.34 145.52 Z M 132.83 146.38 L 132.35 147.25 C 131.81 148.19 132.15 149.39 133.10 149.93 C 134.04 150.46 135.24 150.12 135.78 149.18 L 136.26 148.31 C 136.80 147.37 136.46 146.17 135.51 145.63 C 134.57 145.10 133.37 145.44 132.83 146.38 Z M 132.33 147.27 L 131.85 148.15 C 131.33 149.11 131.68 150.30 132.63 150.83 C 133.59 151.35 134.79 151.00 135.31 150.04 L 135.79 149.16 C 136.31 148.20 135.96 147.00 135.01 146.48 C 134.05 145.96 132.85 146.31 132.33 147.27 Z M 131.83 148.17 L 131.36 149.07 C 130.85 150.04 131.22 151.23 132.18 151.74 C 133.15 152.25 134.34 151.88 134.85 150.92 L 135.33 150.02 C 135.84 149.05 135.47 147.86 134.50 147.35 C 133.53 146.84 132.34 147.21 131.83 148.17 Z M 131.34 149.10 L 130.89 149.99 C 130.39 150.96 130.79 152.15 131.76 152.65 C 132.74 153.14 133.93 152.75 134.42 151.78 L 134.87 150.89 C 135.36 149.91 134.97 148.72 134.00 148.23 C 133.02 147.73 131.83 148.12 131.34 149.10 Z M 130.87 150.02 L 130.43 150.92 C 129.96 151.90 130.37 153.09 131.36 153.57 C 132.34 154.05 133.53 153.63 134.01 152.65 L 134.44 151.74 C 134.92 150.76 134.51 149.57 133.52 149.09 C 132.53 148.62 131.35 149.03 130.87 150.02 Z M 130.41 150.95 L 129.99 151.87 C 129.54 152.87 129.98 154.05 130.98 154.50 C 131.97 154.96 133.15 154.52 133.61 153.52 L 134.03 152.61 C 134.49 151.61 134.05 150.43 133.05 149.97 C 132.05 149.52 130.87 149.96 130.41 150.95 Z M 129.97 151.91 L 129.58 152.83 C 129.14 153.85 129.61 155.02 130.62 155.45 C 131.63 155.88 132.81 155.41 133.24 154.40 L 133.63 153.48 C 134.07 152.47 133.60 151.30 132.59 150.86 C 131.58 150.43 130.40 150.90 129.97 151.91 Z M 129.55 152.88 L 129.18 153.81 C 128.77 154.84 129.28 156.00 130.30 156.40 C 131.33 156.81 132.49 156.31 132.89 155.29 L 133.26 154.35 C 133.67 153.33 133.17 152.17 132.14 151.76 C 131.12 151.35 129.96 151.86 129.55 152.88 Z M 129.16 153.86 L 128.82 154.80 C 128.44 155.84 128.97 156.99 130.01 157.37 C 131.04 157.75 132.19 157.21 132.57 156.17 L 132.92 155.24 C 133.30 154.20 132.76 153.05 131.73 152.67 C 130.69 152.29 129.54 152.82 129.16 153.86 Z M 128.79 154.85 L 128.48 155.80 C 128.12 156.85 128.69 157.98 129.74 158.33 C 130.79 158.69 131.92 158.12 132.28 157.07 L 132.59 156.13 C 132.95 155.08 132.38 153.94 131.33 153.59 C 130.28 153.23 129.15 153.80 128.79 154.85 Z M 128.45 155.85 L 128.16 156.80 C 127.84 157.86 128.44 158.98 129.50 159.31 C 130.56 159.63 131.68 159.03 132.01 157.97 L 132.30 157.02 C 132.62 155.96 132.02 154.84 130.96 154.51 C 129.90 154.19 128.78 154.79 128.45 155.85 Z M 128.15 156.85 L 127.89 157.79 C 127.59 158.86 128.22 159.97 129.29 160.27 C 130.36 160.56 131.47 159.93 131.76 158.86 L 132.02 157.92 C 132.32 156.85 131.69 155.74 130.62 155.45 C 129.55 155.15 128.44 155.78 128.15 156.85 Z M 127.87 157.85 L 127.63 158.81 C 127.37 159.89 128.03 160.98 129.11 161.24 C 130.19 161.51 131.28 160.85 131.54 159.77 L 131.78 158.81 C 132.05 157.73 131.39 156.64 130.31 156.37 C 129.22 156.11 128.13 156.77 127.87 157.85 Z M 127.62 158.86 L 127.40 159.85 C 127.17 160.94 127.86 162.01 128.95 162.25 C 130.04 162.48 131.11 161.79 131.35 160.70 L 131.56 159.71 C 131.79 158.62 131.10 157.55 130.01 157.32 C 128.92 157.08 127.85 157.78 127.62 158.86 Z M 127.39 159.91 L 127.20 160.92 C 127.00 162.02 127.73 163.07 128.83 163.27 C 129.92 163.47 130.98 162.75 131.18 161.65 L 131.36 160.64 C 131.56 159.54 130.84 158.49 129.74 158.29 C 128.64 158.09 127.59 158.81 127.39 159.91 Z M 127.19 160.98 L 127.04 161.97 C 126.87 163.08 127.62 164.11 128.73 164.28 C 129.83 164.45 130.86 163.70 131.03 162.59 L 131.19 161.60 C 131.36 160.49 130.60 159.46 129.50 159.29 C 128.40 159.12 127.36 159.87 127.19 160.98 Z M 127.03 162.02 L 126.90 163.03 C 126.75 164.14 127.54 165.15 128.64 165.30 C 129.75 165.44 130.77 164.66 130.91 163.55 L 131.04 162.54 C 131.19 161.43 130.40 160.42 129.30 160.28 C 128.19 160.13 127.17 160.91 127.03 162.02 Z M 126.89 163.08 L 126.79 164.08 C 126.67 165.19 127.47 166.19 128.59 166.30 C 129.70 166.42 130.70 165.62 130.81 164.50 L 130.92 163.50 C 131.04 162.39 130.23 161.39 129.12 161.28 C 128.00 161.16 127.01 161.97 126.89 163.08 Z M 126.78 164.13 L 126.70 165.10 C 126.61 166.21 127.44 167.19 128.56 167.28 C 129.67 167.37 130.65 166.54 130.74 165.42 L 130.82 164.45 C 130.91 163.34 130.08 162.36 128.96 162.27 C 127.85 162.18 126.87 163.01 126.78 164.13 Z M 126.70 165.16 L 126.64 166.21 C 126.58 167.33 127.44 168.29 128.56 168.34 C 129.68 168.40 130.64 167.54 130.69 166.42 L 130.75 165.36 C 130.80 164.25 129.94 163.29 128.83 163.23 C 127.71 163.18 126.75 164.04 126.70 165.16 Z M 126.64 166.29 L 126.62 167.30 C 126.60 168.42 127.50 169.34 128.62 169.36 C 129.74 169.38 130.66 168.48 130.68 167.36 L 130.70 166.35 C 130.71 165.23 129.82 164.31 128.70 164.29 C 127.58 164.27 126.66 165.17 126.64 166.29 Z M 126.62 167.38 L 126.64 168.35 C 126.67 169.47 127.60 170.35 128.72 170.33 C 129.84 170.30 130.73 169.37 130.70 168.25 L 130.68 167.28 C 130.65 166.16 129.72 165.27 128.60 165.30 C 127.48 165.33 126.59 166.26 126.62 167.38 Z M 126.65 168.43 L 126.71 169.40 C 126.79 170.52 127.75 171.36 128.87 171.29 C 129.99 171.21 130.84 170.25 130.77 169.13 L 130.70 168.16 C 130.63 167.04 129.66 166.20 128.54 166.27 C 127.42 166.35 126.57 167.31 126.65 168.43 Z M 126.72 169.50 L 126.84 170.51 C 126.98 171.63 127.99 172.42 129.10 172.29 C 130.22 172.15 131.01 171.14 130.88 170.03 L 130.76 169.02 C 130.62 167.90 129.61 167.11 128.50 167.24 C 127.38 167.38 126.59 168.39 126.72 169.50 Z M 126.87 170.67 L 127.06 171.65 C 127.28 172.75 128.35 173.46 129.46 173.24 C 130.56 173.02 131.27 171.95 131.05 170.85 L 130.85 169.87 C 130.63 168.77 129.56 168.06 128.46 168.28 C 127.36 168.50 126.65 169.57 126.87 170.67 Z M 127.11 171.85 L 127.40 172.79 C 127.74 173.86 128.88 174.46 129.95 174.12 C 131.02 173.79 131.62 172.65 131.29 171.58 L 131.00 170.64 C 130.67 169.57 129.53 168.97 128.45 169.30 C 127.38 169.64 126.78 170.78 127.11 171.85 Z M 127.49 173.02 L 127.90 173.92 C 128.36 174.95 129.57 175.40 130.59 174.94 C 131.61 174.48 132.07 173.27 131.61 172.25 L 131.20 171.35 C 130.74 170.32 129.53 169.87 128.51 170.33 C 127.49 170.79 127.03 172.00 127.49 173.02 Z M 128.01 174.12 L 128.51 174.98 C 129.09 175.95 130.34 176.26 131.30 175.69 C 132.27 175.12 132.58 173.87 132.01 172.90 L 131.50 172.05 C 130.93 171.08 129.68 170.76 128.72 171.34 C 127.75 171.91 127.43 173.16 128.01 174.12 Z M 128.61 175.13 L 129.20 175.95 C 129.86 176.86 131.13 177.06 132.04 176.41 C 132.95 175.75 133.16 174.48 132.50 173.57 L 131.91 172.75 C 131.26 171.84 129.98 171.64 129.07 172.29 C 128.16 172.95 127.96 174.22 128.61 175.13 Z M 129.29 176.06 L 129.93 176.83 C 130.65 177.69 131.93 177.81 132.79 177.10 C 133.66 176.38 133.78 175.10 133.06 174.23 L 132.42 173.46 C 131.70 172.59 130.42 172.48 129.55 173.19 C 128.69 173.91 128.57 175.19 129.29 176.06 Z M 130.01 176.93 L 130.70 177.66 C 131.47 178.48 132.76 178.52 133.58 177.75 C 134.39 176.98 134.43 175.69 133.66 174.87 L 132.98 174.14 C 132.21 173.32 130.92 173.28 130.10 174.05 C 129.28 174.82 129.24 176.11 130.01 176.93 Z M 130.79 177.75 L 131.52 178.43 C 132.34 179.20 133.63 179.16 134.40 178.34 C 135.17 177.52 135.13 176.23 134.30 175.46 L 133.58 174.78 C 132.75 174.01 131.46 174.05 130.69 174.87 C 129.92 175.69 129.97 176.98 130.79 177.75 Z M 131.62 178.52 L 132.38 179.15 C 133.26 179.87 134.54 179.74 135.26 178.87 C 135.97 178.00 135.84 176.71 134.97 176.00 L 134.20 175.37 C 133.33 174.65 132.05 174.78 131.33 175.65 C 130.62 176.52 130.75 177.81 131.62 178.52 Z M 132.49 179.24 L 133.30 179.81 C 134.21 180.47 135.49 180.26 136.15 179.34 C 136.80 178.42 136.59 177.15 135.67 176.49 L 134.87 175.91 C 133.95 175.26 132.67 175.47 132.02 176.39 C 131.36 177.30 131.57 178.58 132.49 179.24 Z M 133.39 179.88 L 134.23 180.41 C 135.18 181.02 136.45 180.74 137.05 179.78 C 137.66 178.83 137.38 177.56 136.42 176.96 L 135.58 176.42 C 134.63 175.82 133.36 176.10 132.76 177.05 C 132.15 178.01 132.43 179.27 133.39 179.88 Z M 134.30 180.46 L 135.18 180.97 C 136.16 181.53 137.41 181.20 137.98 180.22 C 138.54 179.24 138.21 177.99 137.23 177.42 L 136.35 176.91 C 135.37 176.35 134.12 176.68 133.55 177.66 C 132.99 178.64 133.32 179.89 134.30 180.46 Z M 135.23 181.00 L 136.03 181.43 C 137.03 181.96 138.28 181.59 138.81 180.59 C 139.35 179.59 138.97 178.35 137.97 177.81 L 137.17 177.38 C 136.17 176.85 134.93 177.23 134.39 178.22 C 133.86 179.22 134.24 180.47 135.23 181.00 Z M 136.13 181.48 L 136.99 181.88 C 138.02 182.37 139.24 181.92 139.72 180.90 C 140.20 179.87 139.76 178.65 138.73 178.16 L 137.88 177.76 C 136.85 177.28 135.62 177.72 135.14 178.75 C 134.66 179.78 135.10 181.00 136.13 181.48 Z M 137.13 181.95 L 138.09 182.31 C 139.15 182.72 140.34 182.18 140.74 181.12 C 141.15 180.06 140.62 178.87 139.55 178.47 L 138.59 178.10 C 137.53 177.70 136.34 178.23 135.94 179.29 C 135.54 180.35 136.07 181.54 137.13 181.95 Z M 138.25 182.37 L 139.31 182.67 C 140.40 182.99 141.54 182.36 141.86 181.27 C 142.17 180.17 141.54 179.03 140.45 178.72 L 139.39 178.41 C 138.30 178.10 137.16 178.73 136.84 179.82 C 136.53 180.91 137.16 182.05 138.25 182.37 Z M 139.44 182.71 L 140.34 182.90 C 141.45 183.14 142.55 182.43 142.79 181.32 C 143.03 180.21 142.32 179.11 141.21 178.87 L 140.31 178.68 C 139.20 178.44 138.10 179.15 137.86 180.26 C 137.62 181.38 138.33 182.47 139.44 182.71 Z M 140.44 182.93 L 141.40 183.08 C 142.53 183.27 143.59 182.51 143.78 181.38 C 143.96 180.25 143.20 179.19 142.07 179.01 L 141.11 178.85 C 139.98 178.66 138.92 179.43 138.74 180.55 C 138.55 181.68 139.31 182.74 140.44 182.93 Z M 141.49 183.10 L 142.50 183.22 C 143.64 183.36 144.67 182.55 144.81 181.42 C 144.94 180.28 144.13 179.25 143.00 179.11 L 141.99 178.99 C 140.85 178.85 139.82 179.66 139.68 180.80 C 139.55 181.93 140.36 182.96 141.49 183.10 Z M 142.58 183.23 L 143.62 183.32 C 144.76 183.41 145.76 182.57 145.86 181.42 C 145.95 180.28 145.10 179.28 143.96 179.19 L 142.92 179.10 C 141.78 179.01 140.78 179.86 140.69 181.00 C 140.59 182.14 141.44 183.14 142.58 183.23 Z M 143.70 183.33 L 144.75 183.38 C 145.89 183.43 146.86 182.54 146.92 181.40 C 146.97 180.25 146.08 179.28 144.94 179.23 L 143.89 179.18 C 142.74 179.13 141.77 180.01 141.72 181.16 C 141.67 182.30 142.55 183.27 143.70 183.33 Z M 144.82 183.38 L 145.83 183.39 C 146.98 183.40 147.92 182.48 147.93 181.33 C 147.94 180.18 147.02 179.24 145.87 179.23 L 144.86 179.22 C 143.71 179.21 142.77 180.13 142.76 181.28 C 142.75 182.43 143.67 183.37 144.82 183.38 Z M 145.93 183.39 L 146.92 183.36 C 148.07 183.32 148.97 182.36 148.93 181.21 C 148.89 180.06 147.93 179.16 146.78 179.20 L 145.78 179.23 C 144.63 179.27 143.73 180.23 143.77 181.38 C 143.81 182.53 144.78 183.43 145.93 183.39 Z M 147.03 183.35 L 148.02 183.27 C 149.17 183.17 150.02 182.15 149.91 181.01 C 149.81 179.86 148.80 179.01 147.65 179.11 L 146.67 179.20 C 145.52 179.30 144.67 180.32 144.77 181.46 C 144.88 182.61 145.89 183.46 147.03 183.35 Z M 148.15 183.25 L 149.13 183.10 C 150.27 182.93 151.06 181.87 150.88 180.73 C 150.71 179.59 149.64 178.80 148.50 178.98 L 147.52 179.13 C 146.38 179.30 145.60 180.37 145.77 181.51 C 145.95 182.65 147.01 183.43 148.15 183.25 Z M 149.28 183.08 L 150.26 182.86 C 151.38 182.60 152.09 181.48 151.84 180.36 C 151.58 179.23 150.46 178.53 149.34 178.78 L 148.36 179.00 C 147.23 179.26 146.53 180.38 146.78 181.50 C 147.04 182.63 148.15 183.33 149.28 183.08 Z M 150.42 182.82 L 151.40 182.52 C 152.50 182.18 153.12 181.00 152.78 179.90 C 152.44 178.79 151.26 178.17 150.16 178.52 L 149.18 178.82 C 148.07 179.16 147.45 180.33 147.80 181.44 C 148.14 182.54 149.31 183.16 150.42 182.82 Z M 151.54 182.47 L 152.52 182.09 C 153.59 181.67 154.13 180.45 153.71 179.37 C 153.29 178.29 152.07 177.76 150.99 178.18 L 150.01 178.56 C 148.93 178.98 148.40 180.20 148.82 181.28 C 149.24 182.36 150.46 182.89 151.54 182.47 Z M 152.63 182.05 L 153.58 181.61 C 154.63 181.12 155.10 179.87 154.61 178.82 C 154.12 177.76 152.88 177.30 151.82 177.79 L 150.87 178.23 C 149.82 178.71 149.36 179.96 149.84 181.02 C 150.33 182.07 151.58 182.53 152.63 182.05 Z M 153.68 181.57 L 154.58 181.10 C 155.61 180.56 156.01 179.28 155.47 178.25 C 154.93 177.22 153.66 176.82 152.63 177.36 L 151.72 177.83 C 150.69 178.37 150.29 179.64 150.83 180.67 C 151.37 181.71 152.64 182.11 153.68 181.57 Z M 154.66 181.06 L 155.50 180.57 C 156.51 179.99 156.85 178.69 156.27 177.69 C 155.68 176.68 154.39 176.33 153.38 176.92 L 152.54 177.40 C 151.54 177.98 151.19 179.28 151.77 180.29 C 152.36 181.30 153.65 181.64 154.66 181.06 Z M 155.57 180.53 L 156.35 180.04 C 157.34 179.41 157.63 178.10 157.01 177.12 C 156.38 176.13 155.08 175.83 154.09 176.46 L 153.31 176.96 C 152.32 177.58 152.03 178.89 152.65 179.88 C 153.28 180.86 154.59 181.16 155.57 180.53 Z M 156.44 179.98 L 157.37 179.33 C 158.33 178.65 158.56 177.33 157.88 176.37 C 157.21 175.42 155.89 175.19 154.93 175.86 L 154.00 176.51 C 153.04 177.19 152.81 178.51 153.49 179.47 C 154.16 180.43 155.49 180.66 156.44 179.98 Z M 157.48 179.25 L 158.26 178.63 C 159.17 177.89 159.32 176.56 158.58 175.64 C 157.85 174.73 156.51 174.58 155.60 175.32 L 154.82 175.94 C 153.91 176.67 153.76 178.01 154.49 178.92 C 155.23 179.84 156.57 179.98 157.48 179.25 Z M 158.36 178.55 L 159.03 177.93 C 159.90 177.15 159.97 175.80 159.18 174.93 C 158.39 174.06 157.04 173.99 156.17 174.78 L 155.50 175.40 C 154.63 176.18 154.56 177.53 155.35 178.40 C 156.14 179.27 157.48 179.34 158.36 178.55 Z M 159.10 177.87 L 159.76 177.22 C 160.60 176.39 160.60 175.04 159.77 174.20 C 158.94 173.37 157.59 173.36 156.76 174.19 L 156.10 174.85 C 155.26 175.68 155.26 177.03 156.09 177.86 C 156.92 178.70 158.27 178.70 159.10 177.87 Z M 159.81 177.17 L 160.49 176.46 C 161.30 175.60 161.26 174.25 160.40 173.44 C 159.55 172.63 158.19 172.67 157.38 173.52 L 156.71 174.24 C 155.90 175.10 155.93 176.45 156.79 177.26 C 157.65 178.07 159.00 178.03 159.81 177.17 Z M 160.53 176.42 L 161.20 175.67 C 161.99 174.79 161.91 173.44 161.04 172.65 C 160.16 171.86 158.80 171.93 158.01 172.81 L 157.34 173.56 C 156.55 174.44 156.63 175.79 157.51 176.58 C 158.38 177.37 159.74 177.30 160.53 176.42 Z M 161.23 175.64 L 161.89 174.87 C 162.67 173.98 162.57 172.62 161.67 171.85 C 160.78 171.08 159.42 171.18 158.65 172.07 L 157.98 172.84 C 157.21 173.74 157.31 175.09 158.21 175.87 C 159.10 176.64 160.46 176.54 161.23 175.64 Z M 161.92 174.85 L 162.55 174.10 C 163.31 173.19 163.19 171.83 162.28 171.07 C 161.37 170.31 160.01 170.43 159.25 171.34 L 158.62 172.09 C 157.86 173.00 157.99 174.36 158.89 175.12 C 159.80 175.88 161.16 175.76 161.92 174.85 Z M 162.57 174.07 L 163.20 173.30 C 163.94 172.37 163.80 171.02 162.88 170.27 C 161.95 169.53 160.60 169.67 159.85 170.59 L 159.23 171.37 C 158.48 172.29 158.62 173.65 159.55 174.39 C 160.47 175.14 161.83 175.00 162.57 174.07 Z M 163.23 173.26 L 163.85 172.46 C 164.58 171.52 164.40 170.17 163.46 169.44 C 162.52 168.71 161.17 168.88 160.44 169.83 L 159.82 170.63 C 159.09 171.57 159.27 172.92 160.21 173.65 C 161.15 174.38 162.50 174.20 163.23 173.26 Z M 163.88 172.42 L 164.48 171.61 C 165.19 170.65 164.98 169.30 164.02 168.59 C 163.06 167.89 161.71 168.09 161.00 169.06 L 160.40 169.87 C 159.70 170.83 159.90 172.18 160.86 172.88 C 161.83 173.59 163.18 173.38 163.88 172.42 Z M 164.51 171.58 L 165.08 170.76 C 165.77 169.79 165.53 168.44 164.55 167.75 C 163.57 167.06 162.22 167.30 161.54 168.28 L 160.97 169.09 C 160.28 170.07 160.52 171.42 161.50 172.11 C 162.48 172.79 163.83 172.55 164.51 171.58 Z M 165.11 170.73 L 165.67 169.90 C 166.34 168.91 166.07 167.56 165.08 166.89 C 164.08 166.22 162.74 166.49 162.07 167.48 L 161.51 168.31 C 160.84 169.31 161.10 170.65 162.10 171.32 C 163.09 171.99 164.44 171.73 165.11 170.73 Z M 165.69 169.87 L 166.24 169.03 C 166.89 168.02 166.61 166.67 165.60 166.02 C 164.59 165.36 163.25 165.65 162.59 166.66 L 162.04 167.51 C 161.39 168.51 161.68 169.86 162.68 170.51 C 163.69 171.17 165.04 170.88 165.69 169.87 Z M 166.26 169.00 L 166.79 168.16 C 167.43 167.14 167.13 165.80 166.11 165.16 C 165.09 164.52 163.74 164.82 163.10 165.84 L 162.57 166.68 C 161.93 167.70 162.24 169.04 163.26 169.69 C 164.27 170.33 165.62 170.02 166.26 169.00 Z M 166.81 168.14 L 167.32 167.30 C 167.95 166.27 167.63 164.93 166.60 164.30 C 165.57 163.67 164.23 163.99 163.60 165.02 L 163.08 165.86 C 162.46 166.89 162.78 168.23 163.81 168.86 C 164.83 169.49 166.18 169.17 166.81 168.14 Z M 167.34 167.28 L 167.85 166.42 C 168.47 165.38 168.13 164.04 167.09 163.42 C 166.05 162.80 164.71 163.14 164.10 164.18 L 163.58 165.04 C 162.97 166.08 163.31 167.42 164.34 168.04 C 165.38 168.66 166.72 168.31 167.34 167.28 Z M 167.87 166.40 L 168.38 165.52 C 168.98 164.47 168.63 163.13 167.58 162.52 C 166.53 161.92 165.19 162.28 164.59 163.32 L 164.08 164.20 C 163.47 165.25 163.83 166.59 164.88 167.20 C 165.93 167.80 167.26 167.44 167.87 166.40 Z M 168.40 165.49 L 168.89 164.61 C 169.49 163.55 169.11 162.21 168.05 161.62 C 167.00 161.03 165.66 161.40 165.07 162.46 L 164.57 163.35 C 163.98 164.40 164.35 165.74 165.41 166.33 C 166.47 166.93 167.80 166.55 168.40 165.49 Z M 168.91 164.58 L 169.40 163.69 C 169.98 162.62 169.58 161.28 168.51 160.71 C 167.45 160.13 166.11 160.52 165.53 161.59 L 165.05 162.49 C 164.47 163.55 164.86 164.89 165.93 165.47 C 167.00 166.05 168.33 165.65 168.91 164.58 Z M 169.42 163.65 L 169.89 162.76 C 170.45 161.68 170.02 160.35 168.94 159.79 C 167.86 159.23 166.53 159.65 165.97 160.73 L 165.51 161.62 C 164.95 162.71 165.37 164.04 166.45 164.60 C 167.53 165.16 168.86 164.73 169.42 163.65 Z M 169.91 162.72 L 170.34 161.84 C 170.88 160.74 170.42 159.42 169.33 158.88 C 168.23 158.34 166.91 158.80 166.37 159.90 L 165.94 160.78 C 165.41 161.87 165.86 163.20 166.96 163.73 C 168.06 164.27 169.38 163.81 169.91 162.72 Z M 170.38 161.77 L 170.80 160.83 C 171.30 159.71 170.80 158.40 169.69 157.90 C 168.57 157.40 167.26 157.90 166.76 159.02 L 166.33 159.96 C 165.83 161.08 166.33 162.39 167.45 162.89 C 168.57 163.39 169.88 162.89 170.38 161.77 Z M 170.84 160.76 L 171.22 159.82 C 171.68 158.68 171.13 157.38 169.99 156.92 C 168.85 156.46 167.56 157.01 167.10 158.15 L 166.72 159.09 C 166.26 160.23 166.81 161.53 167.95 161.99 C 169.09 162.45 170.38 161.90 170.84 160.76 Z M 171.26 159.74 L 171.59 158.82 C 172.01 157.67 171.41 156.39 170.25 155.97 C 169.09 155.55 167.81 156.15 167.39 157.31 L 167.06 158.23 C 166.64 159.39 167.24 160.67 168.40 161.08 C 169.56 161.50 170.84 160.90 171.26 159.74 Z M 171.62 158.75 L 171.92 157.83 C 172.29 156.65 171.65 155.39 170.47 155.01 C 169.29 154.63 168.03 155.28 167.66 156.46 L 167.36 157.38 C 166.98 158.56 167.63 159.82 168.81 160.20 C 169.98 160.58 171.24 159.93 171.62 158.75 Z M 171.95 157.76 L 172.22 156.78 C 172.56 155.59 171.87 154.35 170.68 154.01 C 169.49 153.67 168.24 154.36 167.90 155.55 L 167.63 156.53 C 167.29 157.72 167.98 158.96 169.17 159.30 C 170.36 159.64 171.61 158.95 171.95 157.76 Z M 172.25 156.72 L 172.49 155.75 C 172.80 154.55 172.07 153.32 170.86 153.02 C 169.65 152.71 168.43 153.44 168.12 154.65 L 167.88 155.62 C 167.58 156.82 168.31 158.05 169.51 158.35 C 170.72 158.66 171.94 157.93 172.25 156.72 Z M 172.51 155.70 L 172.73 154.74 C 173.00 153.52 172.24 152.31 171.02 152.04 C 169.80 151.76 168.59 152.53 168.32 153.75 L 168.10 154.70 C 167.83 155.92 168.60 157.13 169.81 157.40 C 171.03 157.68 172.24 156.91 172.51 155.70 Z M 172.75 154.68 L 172.92 153.80 C 173.17 152.57 172.37 151.38 171.14 151.13 C 169.91 150.89 168.72 151.69 168.48 152.91 L 168.30 153.80 C 168.06 155.03 168.85 156.22 170.08 156.46 C 171.31 156.71 172.50 155.91 172.75 154.68 Z M 172.94 153.72 L 173.09 152.78 C 173.29 151.54 172.45 150.37 171.22 150.17 C 169.98 149.97 168.81 150.81 168.61 152.05 L 168.46 152.99 C 168.26 154.23 169.10 155.40 170.34 155.60 C 171.58 155.80 172.74 154.96 172.94 153.72 Z M 173.11 152.68 L 173.24 151.64 C 173.39 150.39 172.49 149.25 171.24 149.11 C 170.00 148.96 168.86 149.85 168.72 151.10 L 168.59 152.15 C 168.44 153.40 169.33 154.53 170.58 154.68 C 171.83 154.83 172.97 153.93 173.11 152.68 Z M 173.25 151.55 L 173.34 150.49 C 173.44 149.24 172.50 148.14 171.24 148.03 C 169.99 147.93 168.89 148.87 168.78 150.13 L 168.70 151.19 C 168.60 152.44 169.54 153.54 170.80 153.64 C 172.05 153.74 173.15 152.81 173.25 151.55 Z M 173.35 150.43 L 173.40 149.43 C 173.46 148.17 172.49 147.09 171.23 147.03 C 169.97 146.96 168.89 147.93 168.83 149.20 L 168.77 150.19 C 168.71 151.46 169.68 152.53 170.94 152.60 C 172.21 152.66 173.28 151.69 173.35 150.43 Z M 173.41 149.38 L 173.44 148.34 C 173.47 147.07 172.47 146.02 171.21 145.98 C 169.94 145.94 168.88 146.94 168.85 148.21 L 168.82 149.25 C 168.78 150.52 169.78 151.57 171.05 151.61 C 172.31 151.65 173.37 150.65 173.41 149.38 Z M 173.44 148.29 L 173.45 147.26 C 173.46 145.98 172.43 144.95 171.16 144.94 C 169.89 144.93 168.85 145.96 168.84 147.23 L 168.84 148.26 C 168.83 149.54 169.86 150.57 171.13 150.58 C 172.40 150.59 173.44 149.56 173.44 148.29 Z M 173.46 147.19 L 173.43 146.22 C 173.41 144.94 172.35 143.93 171.08 143.96 C 169.80 143.98 168.79 145.04 168.82 146.31 L 168.84 147.29 C 168.87 148.57 169.92 149.58 171.20 149.55 C 172.47 149.52 173.48 148.47 173.46 147.19 Z M 173.44 146.12 L 173.37 145.07 C 173.29 143.79 172.19 142.82 170.91 142.91 C 169.64 142.99 168.67 144.09 168.75 145.36 L 168.82 146.41 C 168.90 147.69 170.00 148.66 171.27 148.57 C 172.55 148.49 173.52 147.39 173.44 146.12 Z M 173.35 144.86 L 173.20 143.88 C 173.00 142.62 171.81 141.75 170.55 141.95 C 169.29 142.15 168.42 143.33 168.62 144.60 L 168.77 145.57 C 168.97 146.84 170.15 147.70 171.42 147.51 C 172.68 147.31 173.55 146.12 173.35 144.86 Z M 173.12 143.55 L 172.84 142.65 C 172.46 141.43 171.16 140.74 169.94 141.12 C 168.71 141.50 168.03 142.80 168.41 144.03 L 168.69 144.93 C 169.07 146.15 170.37 146.84 171.60 146.46 C 172.82 146.08 173.50 144.78 173.12 143.55 Z M 172.70 142.29 L 172.25 141.40 C 171.67 140.26 170.27 139.80 169.12 140.38 C 167.98 140.97 167.52 142.37 168.11 143.51 L 168.56 144.39 C 169.14 145.54 170.54 145.99 171.68 145.41 C 172.83 144.83 173.28 143.43 172.70 142.29 Z M 172.09 141.13 L 171.59 140.41 C 170.86 139.35 169.41 139.09 168.35 139.82 C 167.30 140.55 167.03 142.00 167.76 143.06 L 168.26 143.78 C 169.00 144.84 170.45 145.10 171.50 144.37 C 172.56 143.64 172.82 142.19 172.09 141.13 Z M 171.45 140.23 L 170.83 139.50 C 170.00 138.52 168.53 138.39 167.55 139.22 C 166.57 140.06 166.45 141.52 167.28 142.51 L 167.90 143.24 C 168.73 144.22 170.20 144.34 171.18 143.51 C 172.16 142.68 172.28 141.21 171.45 140.23 Z M 170.70 139.35 L 169.98 138.63 C 169.07 137.72 167.60 137.72 166.69 138.63 C 165.78 139.54 165.78 141.02 166.69 141.93 L 167.41 142.65 C 168.32 143.56 169.80 143.56 170.71 142.65 C 171.62 141.74 171.62 140.26 170.70 139.35 Z M 169.85 138.51 L 169.04 137.81 C 168.06 136.97 166.59 137.09 165.75 138.06 C 164.91 139.04 165.02 140.52 166.00 141.35 L 166.82 142.05 C 167.79 142.89 169.27 142.77 170.11 141.80 C 170.94 140.82 170.83 139.35 169.85 138.51 Z M 168.90 137.70 L 168.05 137.07 C 167.01 136.31 165.55 136.53 164.78 137.57 C 164.02 138.61 164.24 140.07 165.28 140.83 L 166.14 141.46 C 167.18 142.23 168.64 142.00 169.40 140.96 C 170.16 139.93 169.94 138.47 168.90 137.70 Z M 167.91 136.98 L 167.09 136.46 C 166.00 135.77 164.56 136.09 163.87 137.18 C 163.18 138.27 163.50 139.71 164.59 140.40 L 165.41 140.92 C 166.50 141.61 167.94 141.29 168.63 140.20 C 169.33 139.11 169.00 137.67 167.91 136.98 Z M 166.97 136.38 L 166.10 135.90 C 164.97 135.28 163.55 135.69 162.93 136.82 C 162.30 137.95 162.71 139.37 163.84 139.99 L 164.71 140.47 C 165.84 141.09 167.26 140.69 167.88 139.56 C 168.50 138.43 168.10 137.01 166.97 136.38 Z M 165.98 135.84 L 165.08 135.41 C 163.92 134.85 162.52 135.34 161.96 136.50 C 161.40 137.66 161.89 139.06 163.05 139.62 L 163.96 140.05 C 165.12 140.61 166.51 140.12 167.07 138.96 C 167.63 137.80 167.14 136.40 165.98 135.84 Z M 164.97 135.36 L 164.03 134.97 C 162.84 134.47 161.47 135.03 160.98 136.22 C 160.48 137.41 161.04 138.78 162.23 139.28 L 163.17 139.67 C 164.36 140.16 165.72 139.60 166.22 138.41 C 166.72 137.22 166.16 135.86 164.97 135.36 Z M 163.92 134.93 L 162.97 134.58 C 161.75 134.14 160.41 134.77 159.98 135.99 C 159.54 137.20 160.17 138.54 161.38 138.97 L 162.34 139.32 C 163.55 139.76 164.89 139.13 165.33 137.91 C 165.77 136.70 165.14 135.36 163.92 134.93 Z M 162.86 134.55 L 161.94 134.26 C 160.71 133.88 159.40 134.57 159.02 135.80 C 158.64 137.03 159.33 138.34 160.56 138.72 L 161.48 139.01 C 162.72 139.39 164.02 138.70 164.40 137.47 C 164.78 136.24 164.09 134.93 162.86 134.55 Z M 161.84 134.23 L 160.91 133.99 C 159.66 133.67 158.39 134.41 158.06 135.66 C 157.74 136.91 158.48 138.18 159.73 138.51 L 160.66 138.75 C 161.91 139.08 163.18 138.33 163.51 137.08 C 163.83 135.84 163.09 134.56 161.84 134.23 Z M 160.81 133.97 L 159.86 133.76 C 158.60 133.49 157.36 134.29 157.09 135.55 C 156.81 136.81 157.62 138.05 158.87 138.32 L 159.83 138.53 C 161.09 138.80 162.33 138.00 162.60 136.74 C 162.87 135.48 162.07 134.24 160.81 133.97 Z M 159.76 133.75 L 158.77 133.58 C 157.50 133.36 156.30 134.21 156.08 135.48 C 155.87 136.75 156.72 137.95 157.99 138.17 L 158.97 138.34 C 160.24 138.56 161.45 137.71 161.66 136.44 C 161.88 135.17 161.03 133.96 159.76 133.75 Z M 158.68 133.56 L 157.66 133.43 C 156.38 133.27 155.21 134.17 155.05 135.44 C 154.88 136.72 155.78 137.89 157.06 138.05 L 158.08 138.18 C 159.36 138.35 160.52 137.45 160.69 136.17 C 160.86 134.90 159.96 133.73 158.68 133.56 Z M 157.57 133.42 L 156.51 133.33 C 155.23 133.21 154.09 134.15 153.98 135.43 C 153.86 136.71 154.80 137.85 156.08 137.96 L 157.15 138.06 C 158.43 138.18 159.56 137.23 159.68 135.95 C 159.79 134.67 158.85 133.54 157.57 133.42 Z M 156.43 133.32 L 155.47 133.27 C 154.19 133.19 153.09 134.17 153.02 135.46 C 152.94 136.74 153.92 137.84 155.20 137.91 L 156.16 137.97 C 157.44 138.04 158.54 137.06 158.62 135.78 C 158.69 134.50 157.71 133.40 156.43 133.32 Z M 155.40 133.27 L 154.41 133.25 C 153.13 133.21 152.07 134.23 152.04 135.51 C 152.00 136.79 153.02 137.85 154.30 137.88 L 155.28 137.91 C 156.56 137.94 157.63 136.93 157.66 135.65 C 157.69 134.37 156.68 133.30 155.40 133.27 Z M 154.33 133.25 L 153.33 133.26 C 152.05 133.27 151.03 134.32 151.04 135.60 C 151.05 136.88 152.10 137.91 153.38 137.89 L 154.38 137.88 C 155.66 137.87 156.69 136.82 156.67 135.54 C 156.66 134.26 155.61 133.24 154.33 133.25 Z M 153.24 133.27 L 152.23 133.32 C 150.95 133.38 149.97 134.47 150.04 135.74 C 150.10 137.02 151.19 138.00 152.46 137.93 L 153.47 137.88 C 154.75 137.82 155.73 136.73 155.66 135.46 C 155.60 134.18 154.51 133.20 153.24 133.27 Z M 152.13 133.33 L 151.11 133.43 C 149.85 133.55 148.92 134.67 149.04 135.94 C 149.16 137.21 150.28 138.14 151.55 138.02 L 152.56 137.92 C 153.83 137.80 154.76 136.68 154.64 135.41 C 154.52 134.14 153.40 133.21 152.13 133.33 Z M 151.00 133.45 L 150.00 133.59 C 148.74 133.77 147.87 134.94 148.05 136.20 C 148.23 137.45 149.40 138.33 150.65 138.15 L 151.66 138.00 C 152.92 137.82 153.79 136.65 153.61 135.39 C 153.43 134.14 152.26 133.26 151.00 133.45 Z M 149.87 133.62 L 148.86 133.82 C 147.62 134.07 146.81 135.28 147.06 136.53 C 147.31 137.77 148.52 138.57 149.77 138.32 L 150.78 138.12 C 152.02 137.87 152.82 136.66 152.57 135.41 C 152.32 134.17 151.11 133.37 149.87 133.62 Z M 148.73 133.87 L 147.67 134.15 C 146.46 134.47 145.73 135.72 146.05 136.94 C 146.38 138.15 147.62 138.88 148.84 138.56 L 149.90 138.28 C 151.11 137.95 151.84 136.71 151.52 135.49 C 151.19 134.27 149.94 133.55 148.73 133.87 Z M 147.56 134.20 L 146.54 134.53 C 145.35 134.92 144.70 136.20 145.09 137.38 C 145.48 138.57 146.75 139.22 147.94 138.83 L 148.96 138.50 C 150.14 138.12 150.79 136.84 150.41 135.65 C 150.02 134.46 148.74 133.82 147.56 134.20 Z M 146.44 134.59 L 145.47 134.96 C 144.32 135.40 143.74 136.69 144.18 137.85 C 144.62 139.01 145.91 139.59 147.07 139.15 L 148.04 138.78 C 149.20 138.34 149.78 137.04 149.33 135.89 C 148.89 134.73 147.60 134.15 146.44 134.59 Z M 145.39 135.01 L 144.48 135.41 C 143.35 135.89 142.84 137.20 143.32 138.33 C 143.81 139.45 145.12 139.97 146.25 139.49 L 147.15 139.09 C 148.28 138.60 148.80 137.30 148.31 136.17 C 147.82 135.04 146.52 134.53 145.39 135.01 Z M 144.41 135.46 L 143.57 135.87 C 142.47 136.39 142.01 137.71 142.54 138.80 C 143.07 139.90 144.38 140.36 145.48 139.83 L 146.32 139.43 C 147.41 138.90 147.88 137.59 147.35 136.49 C 146.82 135.39 145.50 134.93 144.41 135.46 Z M 143.50 135.92 L 142.74 136.32 C 141.68 136.89 141.27 138.21 141.83 139.27 C 142.40 140.34 143.72 140.74 144.78 140.18 L 145.55 139.78 C 146.61 139.22 147.02 137.89 146.45 136.83 C 145.89 135.76 144.57 135.36 143.50 135.92 Z M 142.67 136.41 L 141.68 137.00 C 140.66 137.61 140.33 138.92 140.93 139.94 C 141.54 140.96 142.85 141.29 143.87 140.68 L 144.86 140.09 C 145.88 139.49 146.21 138.17 145.61 137.15 C 145.00 136.14 143.68 135.80 142.67 136.41 Z M 141.55 137.15 L 140.74 137.74 C 139.80 138.42 139.59 139.72 140.27 140.65 C 140.94 141.59 142.24 141.80 143.18 141.12 L 143.99 140.53 C 144.93 139.86 145.14 138.56 144.46 137.62 C 143.79 136.69 142.49 136.48 141.55 137.15 Z M 140.59 137.94 L 139.91 138.56 C 139.08 139.32 139.02 140.60 139.78 141.43 C 140.54 142.25 141.82 142.31 142.65 141.55 L 143.33 140.93 C 144.15 140.17 144.21 138.89 143.45 138.06 C 142.70 137.24 141.41 137.18 140.59 137.94 Z M 139.77 138.79 L 139.18 139.48 C 138.48 140.32 138.58 141.56 139.42 142.26 C 140.25 142.96 141.49 142.86 142.19 142.03 L 142.78 141.33 C 143.48 140.50 143.38 139.25 142.55 138.55 C 141.71 137.85 140.47 137.95 139.77 138.79 Z M 139.09 139.70 L 138.55 140.51 C 137.96 141.39 138.20 142.58 139.08 143.17 C 139.97 143.75 141.16 143.51 141.74 142.63 L 142.28 141.82 C 142.87 140.93 142.63 139.74 141.75 139.16 C 140.86 138.57 139.67 138.81 139.09 139.70 Z M 138.50 140.69 L 138.02 141.58 C 137.53 142.50 137.87 143.63 138.78 144.11 C 139.69 144.60 140.83 144.26 141.31 143.35 L 141.79 142.45 C 142.28 141.54 141.94 140.41 141.03 139.92 C 140.12 139.44 138.98 139.78 138.50 140.69 Z M 137.99 141.74 L 137.59 142.68 C 137.19 143.60 137.62 144.67 138.54 145.07 C 139.46 145.47 140.54 145.05 140.93 144.12 L 141.34 143.19 C 141.74 142.27 141.31 141.19 140.39 140.79 C 139.46 140.40 138.39 140.82 137.99 141.74 Z M 137.58 142.83 L 137.27 143.76 C 136.95 144.69 137.45 145.70 138.38 146.01 C 139.31 146.33 140.31 145.83 140.63 144.90 L 140.94 143.97 C 141.26 143.04 140.76 142.03 139.83 141.72 C 138.90 141.41 137.90 141.90 137.58 142.83 Z M 137.27 143.93 L 137.03 144.96 C 136.80 145.88 137.37 146.81 138.30 147.03 C 139.23 147.25 140.16 146.68 140.38 145.76 L 140.62 144.73 C 140.85 143.81 140.27 142.88 139.35 142.66 C 138.42 142.43 137.49 143.01 137.27 143.93 Z M 137.05 145.10 L 136.90 146.09 C 136.76 147.00 137.39 147.85 138.30 147.99 C 139.21 148.13 140.06 147.51 140.20 146.60 L 140.35 145.61 C 140.49 144.70 139.87 143.85 138.96 143.71 C 138.04 143.57 137.19 144.19 137.05 145.10 Z M 136.94 146.18 L 136.85 147.14 C 136.76 148.03 137.41 148.82 138.30 148.91 C 139.18 149.00 139.97 148.35 140.06 147.46 L 140.16 146.50 C 140.25 145.61 139.60 144.82 138.71 144.73 C 137.82 144.65 137.03 145.29 136.94 146.18 Z M 136.88 147.18 L 136.85 147.62 C 136.78 148.49 137.42 149.25 138.29 149.32 C 139.16 149.39 139.92 148.74 139.99 147.88 L 140.03 147.43 C 140.10 146.56 139.45 145.80 138.58 145.73 C 137.72 145.66 136.95 146.31 136.88 147.18 Z"
      fill="black"
      fill-rule="nonzero" /></svg>