<svg xmlns="http://www.w3.org/2000/svg" width="300" height="300" viewBox="0 0 300 300">
<path d="M 164.42 163.15 L 163.89 162.30 C 163.41 161.53 162.39 161.30 161.62 161.78 C 160.86 162.26 160.62 163.27 161.10 164.04 L 161.63 164.89 C 162.11 165.66 163.13 165.89 163.90 165.41 C 164.67 164.93 164.90 163.92 164.42 163.15 Z M 163.90 162.30 L 163.37 161.45 C 162.89 160.67 161.87 160.43 161.09 160.92 C 160.32 161.40 160.08 162.42 160.56 163.20 L 161.09 164.05 C 161.57 164.82 162.59 165.06 163.37 164.58 C 164.15 164.10 164.39 163.07 163.90 162.30 Z M 163.39 161.45 L 162.87 160.60 C 162.38 159.81 161.35 159.57 160.57 160.05 C 159.78 160.53 159.54 161.56 160.02 162.35 L 160.55 163.20 C 161.03 163.99 162.06 164.23 162.84 163.75 C 163.63 163.26 163.87 162.23 163.39 161.45 Z M 162.88 160.60 L 162.36 159.74 C 161.88 158.95 160.84 158.69 160.05 159.18 C 159.25 159.66 159.00 160.70 159.48 161.49 L 160.00 162.35 C 160.49 163.14 161.52 163.40 162.32 162.91 C 163.11 162.43 163.37 161.39 162.88 160.60 Z M 162.38 159.75 L 161.87 158.89 C 161.39 158.08 160.34 157.82 159.54 158.30 C 158.73 158.78 158.47 159.83 158.95 160.63 L 159.47 161.49 C 159.95 162.29 160.99 162.56 161.79 162.08 C 162.60 161.59 162.86 160.55 162.38 159.75 Z M 161.89 158.90 L 161.38 158.03 C 160.91 157.21 159.86 156.94 159.04 157.42 C 158.22 157.89 157.95 158.94 158.43 159.76 L 158.93 160.62 C 159.41 161.44 160.46 161.72 161.27 161.24 C 162.09 160.76 162.37 159.71 161.89 158.90 Z M 161.41 158.04 L 160.88 157.12 C 160.41 156.29 159.36 156.00 158.53 156.47 C 157.70 156.95 157.41 158.00 157.88 158.83 L 158.40 159.75 C 158.88 160.58 159.93 160.87 160.76 160.40 C 161.59 159.92 161.88 158.87 161.41 158.04 Z M 160.91 157.13 L 160.39 156.20 C 159.92 155.36 158.86 155.05 158.02 155.52 C 157.18 155.98 156.88 157.04 157.34 157.88 L 157.86 158.82 C 158.32 159.66 159.38 159.96 160.22 159.50 C 161.07 159.03 161.37 157.97 160.91 157.13 Z M 160.41 156.21 L 159.91 155.29 C 159.45 154.44 158.39 154.12 157.54 154.58 C 156.68 155.04 156.37 156.10 156.83 156.96 L 157.32 157.88 C 157.78 158.73 158.85 159.05 159.70 158.59 C 160.55 158.13 160.87 157.06 160.41 156.21 Z M 159.94 155.30 L 159.47 154.41 C 159.01 153.55 157.94 153.21 157.08 153.67 C 156.21 154.13 155.88 155.20 156.34 156.06 L 156.81 156.95 C 157.26 157.81 158.33 158.15 159.20 157.69 C 160.06 157.23 160.39 156.16 159.94 155.30 Z M 159.49 154.42 L 159.05 153.57 C 158.60 152.70 157.52 152.35 156.65 152.81 C 155.77 153.26 155.43 154.33 155.88 155.21 L 156.32 156.05 C 156.77 156.93 157.84 157.27 158.72 156.82 C 159.60 156.37 159.94 155.29 159.49 154.42 Z M 159.07 153.58 L 158.67 152.79 C 158.22 151.90 157.14 151.55 156.25 152.00 C 155.37 152.45 155.01 153.53 155.46 154.41 L 155.86 155.20 C 156.31 156.09 157.39 156.44 158.28 156.00 C 159.16 155.55 159.52 154.47 159.07 153.58 Z M 158.69 152.80 L 158.19 151.78 C 157.75 150.88 156.66 150.52 155.76 150.96 C 154.87 151.40 154.50 152.49 154.94 153.39 L 155.44 154.40 C 155.88 155.30 156.97 155.67 157.87 155.23 C 158.77 154.78 159.13 153.70 158.69 152.80 Z M 158.21 151.79 L 157.77 150.87 C 157.33 149.96 156.24 149.58 155.33 150.02 C 154.42 150.45 154.04 151.54 154.48 152.45 L 154.92 153.37 C 155.35 154.28 156.45 154.67 157.35 154.23 C 158.26 153.79 158.65 152.70 158.21 151.79 Z M 157.79 150.88 L 157.39 150.03 C 156.95 149.11 155.86 148.72 154.94 149.15 C 154.02 149.58 153.63 150.68 154.06 151.60 L 154.46 152.45 C 154.89 153.36 155.99 153.76 156.91 153.33 C 157.82 152.89 158.22 151.80 157.79 150.88 Z M 157.40 150.03 L 157.02 149.21 C 156.58 148.29 155.48 147.89 154.56 148.32 C 153.63 148.75 153.23 149.86 153.66 150.78 L 154.05 151.60 C 154.48 152.53 155.58 152.92 156.51 152.49 C 157.43 152.06 157.83 150.96 157.40 150.03 Z M 157.03 149.20 L 156.61 148.31 C 156.17 147.38 155.06 146.98 154.12 147.42 C 153.19 147.86 152.79 148.97 153.23 149.90 L 153.66 150.79 C 154.09 151.73 155.21 152.12 156.14 151.68 C 157.07 151.24 157.47 150.13 157.03 149.20 Z M 156.61 148.30 L 156.18 147.40 C 155.73 146.46 154.61 146.07 153.68 146.52 C 152.74 146.96 152.35 148.09 152.80 149.02 L 153.23 149.92 C 153.68 150.85 154.80 151.25 155.73 150.80 C 156.67 150.35 157.06 149.23 156.61 148.30 Z M 156.19 147.38 L 155.75 146.47 C 155.29 145.54 154.16 145.15 153.22 145.60 C 152.28 146.06 151.89 147.19 152.35 148.13 L 152.79 149.04 C 153.25 149.98 154.38 150.37 155.32 149.91 C 156.26 149.45 156.65 148.32 156.19 147.38 Z M 155.75 146.45 L 155.30 145.55 C 154.83 144.61 153.69 144.23 152.75 144.70 C 151.81 145.16 151.42 146.31 151.89 147.25 L 152.34 148.15 C 152.81 149.09 153.96 149.48 154.90 149.01 C 155.84 148.54 156.22 147.40 155.75 146.45 Z M 155.30 145.52 L 154.84 144.63 C 154.35 143.69 153.20 143.32 152.26 143.80 C 151.32 144.29 150.95 145.44 151.43 146.38 L 151.89 147.28 C 152.38 148.22 153.54 148.59 154.48 148.10 C 155.42 147.62 155.78 146.46 155.30 145.52 Z M 154.82 144.57 L 154.34 143.69 C 153.82 142.76 152.65 142.43 151.72 142.94 C 150.78 143.46 150.45 144.63 150.96 145.56 L 151.45 146.44 C 151.96 147.37 153.14 147.71 154.07 147.19 C 155.00 146.68 155.34 145.50 154.82 144.57 Z M 154.30 143.61 L 153.78 142.77 C 153.22 141.85 152.03 141.57 151.11 142.13 C 150.20 142.69 149.92 143.89 150.48 144.80 L 151.00 145.64 C 151.56 146.56 152.75 146.84 153.66 146.28 C 154.58 145.72 154.86 144.52 154.30 143.61 Z M 153.72 142.65 L 153.13 141.82 C 152.50 140.94 151.29 140.73 150.41 141.35 C 149.53 141.98 149.32 143.19 149.94 144.07 L 150.54 144.91 C 151.16 145.79 152.38 146.00 153.26 145.37 C 154.14 144.75 154.34 143.53 153.72 142.65 Z M 153.02 141.66 L 152.35 140.89 C 151.64 140.06 150.40 139.97 149.58 140.68 C 148.76 141.39 148.67 142.63 149.38 143.45 L 150.05 144.23 C 150.76 145.05 152.00 145.14 152.82 144.43 C 153.64 143.72 153.73 142.48 153.02 141.66 Z M 152.17 140.68 L 151.44 140.04 C 150.62 139.32 149.37 139.39 148.65 140.21 C 147.92 141.03 148.00 142.28 148.82 143.00 L 149.56 143.65 C 150.38 144.37 151.63 144.29 152.35 143.47 C 153.07 142.65 152.99 141.41 152.17 140.68 Z M 151.14 139.81 L 150.31 139.32 C 149.37 138.77 148.15 139.08 147.59 140.03 C 147.03 140.98 147.35 142.19 148.30 142.75 L 149.12 143.24 C 150.07 143.79 151.29 143.47 151.84 142.53 C 152.40 141.58 152.08 140.36 151.14 139.81 Z M 149.87 139.12 L 148.93 138.84 C 147.87 138.53 146.76 139.13 146.44 140.19 C 146.13 141.25 146.73 142.36 147.79 142.67 L 148.74 142.95 C 149.80 143.26 150.91 142.66 151.22 141.60 C 151.53 140.55 150.93 139.43 149.87 139.12 Z M 148.40 138.75 L 147.42 138.73 C 146.31 138.71 145.39 139.59 145.37 140.69 C 145.35 141.80 146.22 142.71 147.33 142.74 L 148.32 142.76 C 149.42 142.78 150.34 141.90 150.36 140.80 C 150.39 139.69 149.51 138.78 148.40 138.75 Z M 146.87 138.79 L 145.88 139.05 C 144.81 139.33 144.17 140.43 144.45 141.50 C 144.73 142.57 145.83 143.22 146.90 142.94 L 147.88 142.68 C 148.96 142.40 149.60 141.30 149.32 140.23 C 149.04 139.15 147.94 138.51 146.87 138.79 Z M 145.42 139.23 L 144.58 139.69 C 143.60 140.22 143.25 141.45 143.78 142.42 C 144.31 143.40 145.54 143.76 146.51 143.22 L 147.36 142.76 C 148.33 142.22 148.69 141.00 148.16 140.02 C 147.62 139.05 146.40 138.69 145.42 139.23 Z M 144.30 139.87 L 143.51 140.49 C 142.63 141.18 142.47 142.45 143.16 143.32 C 143.85 144.20 145.12 144.35 145.99 143.67 L 146.79 143.04 C 147.67 142.36 147.82 141.09 147.13 140.21 C 146.45 139.33 145.18 139.18 144.30 139.87 Z M 143.34 140.63 L 142.61 141.35 C 141.81 142.13 141.79 143.41 142.57 144.21 C 143.35 145.00 144.63 145.02 145.43 144.24 L 146.16 143.52 C 146.96 142.74 146.97 141.46 146.19 140.67 C 145.41 139.87 144.13 139.85 143.34 140.63 Z M 142.50 141.46 L 141.83 142.22 C 141.09 143.06 141.17 144.34 142.01 145.08 C 142.84 145.82 144.12 145.74 144.86 144.90 L 145.54 144.13 C 146.28 143.29 146.20 142.01 145.36 141.27 C 144.52 140.54 143.24 140.62 142.50 141.46 Z M 141.75 142.30 L 141.13 143.09 C 140.44 143.97 140.59 145.25 141.47 145.94 C 142.35 146.63 143.62 146.48 144.32 145.60 L 144.94 144.81 C 145.63 143.93 145.48 142.66 144.60 141.97 C 143.72 141.27 142.44 141.42 141.75 142.30 Z M 141.08 143.15 L 140.51 143.95 C 139.85 144.85 140.05 146.12 140.95 146.78 C 141.86 147.44 143.13 147.24 143.79 146.33 L 144.36 145.54 C 145.02 144.63 144.82 143.36 143.92 142.71 C 143.01 142.05 141.74 142.25 141.08 143.15 Z M 140.49 143.97 L 139.92 144.77 C 139.27 145.69 139.49 146.96 140.41 147.60 C 141.32 148.25 142.59 148.03 143.24 147.12 L 143.81 146.31 C 144.46 145.40 144.24 144.13 143.32 143.48 C 142.40 142.83 141.13 143.05 140.49 143.97 Z M 139.92 144.76 L 139.37 145.54 C 138.72 146.46 138.93 147.73 139.85 148.38 C 140.76 149.03 142.03 148.82 142.68 147.90 L 143.24 147.12 C 143.89 146.21 143.68 144.94 142.76 144.28 C 141.84 143.63 140.57 143.85 139.92 144.76 Z M 139.36 145.54 L 138.79 146.36 C 138.14 147.28 138.35 148.55 139.27 149.20 C 140.19 149.85 141.47 149.63 142.12 148.71 L 142.69 147.90 C 143.34 146.98 143.12 145.71 142.20 145.06 C 141.28 144.41 140.01 144.63 139.36 145.54 Z M 138.77 146.37 L 138.18 147.22 C 137.54 148.15 137.78 149.42 138.70 150.06 C 139.63 150.70 140.90 150.47 141.54 149.54 L 142.13 148.69 C 142.77 147.77 142.54 146.50 141.61 145.86 C 140.68 145.21 139.41 145.45 138.77 146.37 Z M 138.16 147.25 L 137.61 148.08 C 136.99 149.02 137.24 150.29 138.18 150.91 C 139.12 151.54 140.39 151.28 141.02 150.34 L 141.57 149.52 C 142.19 148.58 141.94 147.31 141.00 146.68 C 140.06 146.06 138.79 146.31 138.16 147.25 Z M 137.59 148.11 L 137.07 148.92 C 136.46 149.87 136.74 151.14 137.69 151.75 C 138.64 152.36 139.91 152.08 140.52 151.13 L 141.04 150.32 C 141.65 149.36 141.37 148.10 140.42 147.49 C 139.47 146.88 138.20 147.16 137.59 148.11 Z M 137.05 148.94 L 136.52 149.79 C 135.93 150.75 136.22 152.02 137.18 152.61 C 138.14 153.21 139.41 152.92 140.01 151.95 L 140.53 151.11 C 141.13 150.14 140.84 148.88 139.87 148.28 C 138.91 147.69 137.65 147.98 137.05 148.94 Z M 136.51 149.81 L 135.97 150.69 C 135.39 151.66 135.69 152.92 136.66 153.51 C 137.63 154.10 138.89 153.79 139.48 152.82 L 140.02 151.94 C 140.61 150.97 140.30 149.71 139.33 149.12 C 138.36 148.53 137.10 148.84 136.51 149.81 Z M 135.96 150.70 L 135.44 151.57 C 134.86 152.55 135.18 153.81 136.16 154.39 C 137.13 154.97 138.39 154.65 138.97 153.68 L 139.49 152.81 C 140.07 151.84 139.76 150.57 138.78 149.99 C 137.81 149.41 136.55 149.73 135.96 150.70 Z M 135.44 151.59 L 134.94 152.43 C 134.36 153.41 134.69 154.67 135.67 155.25 C 136.65 155.82 137.91 155.49 138.49 154.51 L 138.98 153.67 C 139.56 152.69 139.23 151.43 138.25 150.85 C 137.27 150.28 136.01 150.61 135.44 151.59 Z M 134.93 152.45 L 134.43 153.32 C 133.86 154.30 134.20 155.56 135.19 156.13 C 136.17 156.69 137.43 156.35 138.00 155.37 L 138.50 154.50 C 139.06 153.51 138.72 152.25 137.74 151.69 C 136.75 151.12 135.49 151.46 134.93 152.45 Z M 134.41 153.34 L 133.92 154.22 C 133.36 155.22 133.72 156.47 134.71 157.03 C 135.71 157.58 136.96 157.23 137.52 156.23 L 138.01 155.35 C 138.57 154.35 138.21 153.10 137.22 152.54 C 136.22 151.99 134.97 152.34 134.41 153.34 Z M 133.90 154.25 L 133.42 155.15 C 132.88 156.15 133.25 157.40 134.26 157.94 C 135.26 158.48 136.51 158.11 137.05 157.10 L 137.54 156.21 C 138.08 155.20 137.70 153.95 136.70 153.41 C 135.69 152.87 134.44 153.25 133.90 154.25 Z M 133.40 155.18 L 132.94 156.07 C 132.42 157.08 132.82 158.33 133.83 158.85 C 134.85 159.37 136.09 158.97 136.62 157.96 L 137.07 157.07 C 137.59 156.06 137.20 154.81 136.18 154.29 C 135.17 153.77 133.92 154.17 133.40 155.18 Z M 132.92 156.10 L 132.49 156.99 C 131.98 158.02 132.40 159.26 133.43 159.76 C 134.45 160.26 135.69 159.84 136.20 158.82 L 136.63 157.92 C 137.14 156.90 136.72 155.66 135.69 155.16 C 134.67 154.65 133.43 155.08 132.92 156.10 Z M 132.47 157.03 L 132.04 157.93 C 131.56 158.97 132.00 160.20 133.04 160.68 C 134.07 161.17 135.31 160.72 135.79 159.69 L 136.21 158.78 C 136.70 157.75 136.25 156.52 135.22 156.03 C 134.18 155.55 132.95 155.99 132.47 157.03 Z M 132.03 157.96 L 131.62 158.88 C 131.15 159.92 131.62 161.15 132.66 161.62 C 133.71 162.08 134.93 161.61 135.40 160.57 L 135.81 159.65 C 136.27 158.61 135.81 157.38 134.76 156.92 C 133.72 156.45 132.49 156.92 132.03 157.96 Z M 131.60 158.91 L 131.21 159.84 C 130.76 160.89 131.25 162.11 132.30 162.56 C 133.36 163.01 134.57 162.52 135.02 161.46 L 135.42 160.54 C 135.86 159.48 135.37 158.26 134.32 157.82 C 133.27 157.37 132.05 157.86 131.60 158.91 Z M 131.19 159.87 L 130.82 160.79 C 130.39 161.85 130.90 163.06 131.96 163.50 C 133.02 163.93 134.23 163.41 134.66 162.35 L 135.04 161.43 C 135.47 160.37 134.96 159.16 133.89 158.73 C 132.83 158.30 131.62 158.81 131.19 159.87 Z M 130.81 160.82 L 130.44 161.75 C 130.03 162.82 130.55 164.02 131.62 164.44 C 132.69 164.86 133.89 164.33 134.31 163.26 L 134.67 162.33 C 135.09 161.26 134.56 160.06 133.49 159.64 C 132.43 159.22 131.22 159.75 130.81 160.82 Z M 130.43 161.77 L 130.08 162.71 C 129.67 163.78 130.21 164.98 131.29 165.39 C 132.36 165.79 133.56 165.25 133.96 164.18 L 134.32 163.24 C 134.72 162.17 134.18 160.97 133.11 160.56 C 132.04 160.16 130.84 160.70 130.43 161.77 Z M 130.07 162.72 L 129.72 163.67 C 129.33 164.74 129.88 165.94 130.95 166.34 C 132.03 166.73 133.23 166.18 133.62 165.11 L 133.97 164.16 C 134.37 163.09 133.82 161.89 132.74 161.49 C 131.66 161.10 130.47 161.65 130.07 162.72 Z M 129.72 163.68 L 129.38 164.62 C 128.98 165.70 129.54 166.89 130.62 167.29 C 131.70 167.68 132.89 167.12 133.28 166.04 L 133.63 165.10 C 134.02 164.02 133.46 162.82 132.38 162.43 C 131.30 162.04 130.11 162.60 129.72 163.68 Z M 129.37 164.63 L 129.03 165.58 C 128.64 166.67 129.20 167.86 130.29 168.24 C 131.37 168.63 132.56 168.07 132.95 166.99 L 133.29 166.03 C 133.68 164.95 133.11 163.76 132.03 163.37 C 130.95 162.98 129.76 163.55 129.37 164.63 Z M 129.02 165.60 L 128.69 166.55 C 128.31 167.63 128.88 168.82 129.96 169.20 C 131.05 169.58 132.24 169.01 132.62 167.92 L 132.95 166.98 C 133.33 165.89 132.76 164.70 131.68 164.32 C 130.59 163.94 129.40 164.51 129.02 165.60 Z M 128.68 166.56 L 128.36 167.51 C 127.99 168.59 128.57 169.78 129.66 170.15 C 130.75 170.52 131.93 169.94 132.30 168.85 L 132.63 167.91 C 133.00 166.82 132.42 165.64 131.33 165.26 C 130.24 164.89 129.05 165.47 128.68 166.56 Z M 128.35 167.53 L 128.05 168.47 C 127.69 169.56 128.28 170.74 129.37 171.10 C 130.47 171.45 131.65 170.86 132.00 169.77 L 132.31 168.83 C 132.67 167.74 132.08 166.56 130.98 166.20 C 129.89 165.84 128.71 166.44 128.35 167.53 Z M 128.04 168.49 L 127.74 169.45 C 127.39 170.55 128.00 171.72 129.10 172.06 C 130.20 172.41 131.37 171.80 131.71 170.70 L 132.01 169.74 C 132.36 168.64 131.75 167.47 130.65 167.13 C 129.55 166.78 128.38 167.40 128.04 168.49 Z M 127.72 169.49 L 127.44 170.46 C 127.11 171.57 127.74 172.73 128.85 173.05 C 129.95 173.38 131.11 172.75 131.44 171.64 L 131.72 170.66 C 132.05 169.56 131.42 168.40 130.31 168.08 C 129.21 167.75 128.05 168.38 127.72 169.49 Z M 127.43 170.50 L 127.16 171.47 C 126.86 172.58 127.51 173.73 128.62 174.03 C 129.73 174.34 130.88 173.68 131.18 172.57 L 131.45 171.61 C 131.75 170.49 131.10 169.35 129.99 169.04 C 128.88 168.74 127.73 169.39 127.43 170.50 Z M 127.15 171.51 L 126.91 172.47 C 126.62 173.59 127.30 174.72 128.42 175.00 C 129.53 175.28 130.67 174.61 130.95 173.49 L 131.19 172.53 C 131.48 171.42 130.80 170.28 129.68 170.00 C 128.57 169.72 127.43 170.39 127.15 171.51 Z M 126.90 172.51 L 126.68 173.46 C 126.42 174.58 127.12 175.70 128.24 175.96 C 129.37 176.22 130.49 175.52 130.74 174.40 L 130.96 173.45 C 131.22 172.33 130.52 171.21 129.40 170.95 C 128.27 170.69 127.15 171.39 126.90 172.51 Z M 126.67 173.51 L 126.46 174.50 C 126.23 175.62 126.96 176.73 128.09 176.96 C 129.22 177.19 130.32 176.46 130.55 175.33 L 130.75 174.35 C 130.99 173.22 130.26 172.12 129.13 171.88 C 128.00 171.65 126.90 172.38 126.67 173.51 Z M 126.45 174.55 L 126.28 175.53 C 126.08 176.66 126.83 177.75 127.97 177.95 C 129.10 178.15 130.19 177.39 130.39 176.26 L 130.56 175.28 C 130.77 174.15 130.01 173.06 128.87 172.86 C 127.74 172.66 126.66 173.41 126.45 174.55 Z M 126.27 175.58 L 126.12 176.56 C 125.95 177.70 126.73 178.77 127.87 178.94 C 129.01 179.11 130.08 178.33 130.25 177.19 L 130.40 176.21 C 130.57 175.07 129.79 174.00 128.65 173.83 C 127.51 173.66 126.44 174.44 126.27 175.58 Z M 126.11 176.62 L 125.99 177.61 C 125.85 178.75 126.66 179.80 127.80 179.94 C 128.94 180.08 129.99 179.27 130.13 178.13 L 130.26 177.14 C 130.40 175.99 129.59 174.95 128.45 174.81 C 127.30 174.66 126.26 175.47 126.11 176.62 Z M 125.98 177.66 L 125.88 178.68 C 125.76 179.82 126.60 180.85 127.75 180.96 C 128.89 181.08 129.92 180.24 130.03 179.10 L 130.14 178.08 C 130.25 176.93 129.42 175.91 128.27 175.79 C 127.12 175.68 126.10 176.51 125.98 177.66 Z M 125.88 178.72 L 125.79 179.74 C 125.70 180.89 126.56 181.90 127.71 181.99 C 128.86 182.08 129.86 181.23 129.95 180.08 L 130.04 179.05 C 130.13 177.91 129.27 176.90 128.13 176.81 C 126.98 176.71 125.97 177.57 125.88 178.72 Z M 125.79 179.78 L 125.73 180.79 C 125.65 181.94 126.53 182.93 127.68 183.00 C 128.83 183.07 129.82 182.20 129.89 181.05 L 129.96 180.04 C 130.03 178.89 129.16 177.90 128.01 177.83 C 126.86 177.75 125.86 178.63 125.79 179.78 Z M 125.73 180.82 L 125.68 181.79 C 125.62 182.94 126.51 183.92 127.66 183.98 C 128.82 184.03 129.79 183.14 129.85 181.99 L 129.90 181.02 C 129.95 179.87 129.06 178.89 127.91 178.83 C 126.76 178.78 125.78 179.67 125.73 180.82 Z M 125.68 181.82 L 125.64 182.85 C 125.61 184.00 126.51 184.97 127.66 185.00 C 128.82 185.04 129.78 184.14 129.82 182.98 L 129.85 181.96 C 129.89 180.81 128.98 179.84 127.83 179.81 C 126.68 179.77 125.71 180.67 125.68 181.82 Z M 125.64 182.90 L 125.64 183.94 C 125.63 185.10 126.56 186.04 127.71 186.05 C 128.86 186.05 129.81 185.12 129.81 183.97 L 129.82 182.93 C 129.83 181.78 128.90 180.84 127.74 180.83 C 126.59 180.82 125.65 181.75 125.64 182.90 Z M 125.64 184.04 L 125.68 185.01 C 125.72 186.17 126.70 187.06 127.85 187.02 C 129.00 186.97 129.90 185.99 129.85 184.84 L 129.81 183.87 C 129.76 182.72 128.79 181.82 127.64 181.87 C 126.48 181.92 125.59 182.89 125.64 184.04 Z M 125.69 185.16 L 125.79 186.09 C 125.92 187.24 126.96 188.06 128.10 187.93 C 129.25 187.80 130.07 186.77 129.95 185.62 L 129.84 184.69 C 129.71 183.55 128.68 182.72 127.53 182.85 C 126.38 182.98 125.56 184.01 125.69 185.16 Z M 125.82 186.29 L 126.03 187.28 C 126.27 188.41 127.38 189.13 128.51 188.89 C 129.64 188.65 130.36 187.55 130.12 186.42 L 129.91 185.42 C 129.68 184.29 128.57 183.57 127.44 183.81 C 126.31 184.05 125.59 185.16 125.82 186.29 Z M 126.09 187.51 L 126.41 188.45 C 126.77 189.55 127.95 190.14 129.05 189.78 C 130.15 189.41 130.74 188.23 130.38 187.13 L 130.06 186.19 C 129.70 185.09 128.52 184.50 127.42 184.86 C 126.32 185.23 125.73 186.41 126.09 187.51 Z M 126.50 188.69 L 126.92 189.58 C 127.42 190.62 128.66 191.07 129.71 190.57 C 130.75 190.08 131.20 188.83 130.70 187.79 L 130.28 186.90 C 129.79 185.85 128.54 185.41 127.50 185.90 C 126.45 186.40 126.01 187.64 126.50 188.69 Z M 127.05 189.81 L 127.58 190.65 C 128.20 191.62 129.50 191.91 130.47 191.29 C 131.45 190.67 131.73 189.38 131.11 188.40 L 130.58 187.56 C 129.96 186.59 128.66 186.30 127.69 186.92 C 126.72 187.54 126.43 188.83 127.05 189.81 Z M 127.72 190.84 L 128.35 191.62 C 129.08 192.52 130.40 192.66 131.30 191.93 C 132.20 191.20 132.33 189.88 131.61 188.98 L 130.98 188.21 C 130.25 187.31 128.93 187.17 128.03 187.90 C 127.13 188.62 126.99 189.94 127.72 190.84 Z M 128.49 191.78 L 129.19 192.49 C 130.01 193.31 131.34 193.32 132.16 192.50 C 132.98 191.68 132.99 190.36 132.17 189.53 L 131.47 188.82 C 130.65 188.00 129.32 188.00 128.50 188.81 C 127.68 189.63 127.67 190.96 128.49 191.78 Z M 129.33 192.62 L 130.00 193.18 C 130.89 193.93 132.21 193.81 132.96 192.92 C 133.71 192.03 133.59 190.71 132.70 189.96 L 132.03 189.40 C 131.14 188.66 129.82 188.77 129.07 189.66 C 128.33 190.55 128.44 191.88 129.33 192.62 Z M 130.17 193.31 L 130.93 193.83 C 131.89 194.49 133.20 194.24 133.86 193.28 C 134.51 192.32 134.26 191.01 133.30 190.36 L 132.53 189.83 C 131.57 189.18 130.26 189.43 129.61 190.39 C 128.96 191.35 129.20 192.66 130.17 193.31 Z M 131.11 193.94 L 132.05 194.45 C 133.07 195.01 134.35 194.63 134.90 193.61 C 135.46 192.59 135.08 191.31 134.06 190.76 L 133.13 190.24 C 132.10 189.69 130.83 190.06 130.27 191.09 C 129.71 192.11 130.09 193.39 131.11 193.94 Z M 132.19 194.53 L 133.16 194.97 C 134.22 195.44 135.47 194.97 135.95 193.91 C 136.43 192.85 135.96 191.60 134.89 191.12 L 133.92 190.68 C 132.86 190.21 131.61 190.68 131.13 191.74 C 130.66 192.80 131.13 194.05 132.19 194.53 Z M 133.26 195.01 L 134.11 195.34 C 135.19 195.77 136.42 195.23 136.84 194.15 C 137.27 193.06 136.73 191.84 135.65 191.41 L 134.80 191.08 C 133.71 190.65 132.49 191.19 132.06 192.27 C 131.64 193.36 132.17 194.58 133.26 195.01 Z M 134.19 195.37 L 135.11 195.69 C 136.22 196.07 137.42 195.49 137.80 194.39 C 138.18 193.29 137.60 192.08 136.49 191.70 L 135.57 191.38 C 134.46 191.00 133.26 191.58 132.88 192.68 C 132.50 193.79 133.08 194.99 134.19 195.37 Z M 135.20 195.72 L 136.18 196.02 C 137.30 196.35 138.48 195.72 138.82 194.60 C 139.15 193.48 138.52 192.31 137.40 191.97 L 136.41 191.67 C 135.29 191.34 134.12 191.97 133.78 193.09 C 133.44 194.21 134.08 195.39 135.20 195.72 Z M 136.28 196.04 L 137.30 196.30 C 138.44 196.59 139.59 195.90 139.87 194.77 C 140.16 193.64 139.47 192.49 138.34 192.20 L 137.31 191.94 C 136.18 191.66 135.03 192.34 134.74 193.48 C 134.46 194.61 135.14 195.76 136.28 196.04 Z M 137.41 196.33 L 138.46 196.54 C 139.60 196.76 140.72 196.02 140.94 194.87 C 141.17 193.72 140.43 192.61 139.28 192.38 L 138.23 192.18 C 137.08 191.95 135.97 192.69 135.74 193.84 C 135.52 194.99 136.26 196.10 137.41 196.33 Z M 138.58 196.56 L 139.67 196.71 C 140.83 196.87 141.90 196.05 142.05 194.90 C 142.21 193.74 141.40 192.67 140.24 192.51 L 139.15 192.36 C 138.00 192.20 136.93 193.01 136.77 194.17 C 136.61 195.33 137.42 196.40 138.58 196.56 Z M 139.79 196.72 L 140.87 196.80 C 142.04 196.89 143.06 196.02 143.15 194.85 C 143.23 193.68 142.36 192.66 141.19 192.58 L 140.12 192.49 C 138.95 192.41 137.93 193.28 137.84 194.45 C 137.75 195.62 138.63 196.63 139.79 196.72 Z M 140.99 196.81 L 142.03 196.83 C 143.20 196.86 144.17 195.92 144.19 194.75 C 144.21 193.58 143.28 192.61 142.11 192.59 L 141.07 192.57 C 139.90 192.55 138.93 193.48 138.91 194.65 C 138.89 195.82 139.82 196.79 140.99 196.81 Z M 142.14 196.83 L 143.12 196.80 C 144.29 196.76 145.21 195.78 145.17 194.60 C 145.13 193.43 144.15 192.51 142.97 192.55 L 141.99 192.59 C 140.82 192.63 139.90 193.61 139.94 194.78 C 139.99 195.96 140.97 196.87 142.14 196.83 Z M 143.24 196.79 L 144.14 196.71 C 145.31 196.61 146.17 195.57 146.07 194.41 C 145.96 193.24 144.93 192.37 143.76 192.48 L 142.86 192.56 C 141.69 192.67 140.82 193.70 140.93 194.87 C 141.03 196.04 142.07 196.90 143.24 196.79 Z M 144.28 196.70 L 145.28 196.54 C 146.44 196.35 147.23 195.26 147.04 194.10 C 146.86 192.94 145.77 192.15 144.61 192.34 L 143.61 192.49 C 142.45 192.68 141.66 193.77 141.85 194.93 C 142.03 196.09 143.12 196.88 144.28 196.70 Z M 145.49 196.50 L 146.52 196.22 C 147.66 195.92 148.34 194.76 148.04 193.62 C 147.74 192.49 146.57 191.81 145.44 192.11 L 144.40 192.38 C 143.26 192.68 142.59 193.84 142.89 194.98 C 143.18 196.12 144.35 196.80 145.49 196.50 Z M 146.76 196.15 L 147.64 195.80 C 148.73 195.37 149.27 194.13 148.84 193.03 C 148.40 191.94 147.17 191.40 146.07 191.84 L 145.19 192.18 C 144.10 192.62 143.56 193.85 144.00 194.95 C 144.43 196.04 145.67 196.58 146.76 196.15 Z M 147.84 195.71 L 148.63 195.29 C 149.67 194.75 150.08 193.46 149.53 192.42 C 148.99 191.38 147.70 190.97 146.66 191.52 L 145.87 191.93 C 144.82 192.47 144.42 193.76 144.97 194.81 C 145.51 195.85 146.80 196.25 147.84 195.71 Z M 148.77 195.22 L 149.61 194.69 C 150.61 194.07 150.92 192.75 150.29 191.76 C 149.67 190.76 148.35 190.45 147.35 191.07 L 146.52 191.60 C 145.52 192.22 145.21 193.53 145.83 194.53 C 146.46 195.53 147.77 195.84 148.77 195.22 Z M 149.72 194.62 L 150.53 194.05 C 151.49 193.37 151.72 192.03 151.04 191.07 C 150.36 190.11 149.03 189.88 148.06 190.56 L 147.25 191.14 C 146.29 191.82 146.06 193.15 146.74 194.12 C 147.42 195.08 148.75 195.31 149.72 194.62 Z M 150.61 193.99 L 151.41 193.37 C 152.34 192.65 152.51 191.31 151.78 190.37 C 151.06 189.44 149.72 189.28 148.79 190.00 L 147.99 190.62 C 147.06 191.34 146.89 192.68 147.61 193.62 C 148.34 194.55 149.68 194.71 150.61 193.99 Z M 151.46 193.33 L 152.21 192.70 C 153.12 191.95 153.25 190.60 152.49 189.70 C 151.74 188.79 150.39 188.66 149.48 189.42 L 148.73 190.04 C 147.82 190.79 147.70 192.14 148.45 193.05 C 149.21 193.96 150.55 194.08 151.46 193.33 Z M 152.26 192.67 L 153.00 192.01 C 153.89 191.23 153.98 189.88 153.20 189.00 C 152.42 188.11 151.07 188.02 150.18 188.80 L 149.44 189.46 C 148.55 190.24 148.46 191.59 149.24 192.47 C 150.02 193.36 151.37 193.45 152.26 192.67 Z M 153.05 191.97 L 153.79 191.28 C 154.66 190.47 154.71 189.12 153.90 188.26 C 153.10 187.39 151.75 187.34 150.88 188.15 L 150.14 188.84 C 149.27 189.65 149.22 191.00 150.03 191.86 C 150.83 192.73 152.18 192.78 153.05 191.97 Z M 153.84 191.24 L 154.55 190.54 C 155.40 189.71 155.41 188.36 154.58 187.51 C 153.75 186.67 152.40 186.65 151.55 187.48 L 150.84 188.18 C 149.99 189.01 149.98 190.37 150.81 191.21 C 151.64 192.06 152.99 192.07 153.84 191.24 Z M 154.60 190.51 L 155.29 189.79 C 156.12 188.94 156.10 187.58 155.24 186.75 C 154.39 185.93 153.03 185.95 152.20 186.80 L 151.51 187.52 C 150.68 188.37 150.70 189.73 151.56 190.56 C 152.41 191.38 153.77 191.36 154.60 190.51 Z M 155.34 189.75 L 156.02 189.00 C 156.83 188.13 156.76 186.76 155.88 185.96 C 155.00 185.15 153.64 185.21 152.84 186.09 L 152.16 186.84 C 151.35 187.72 151.41 189.08 152.29 189.89 C 153.17 190.69 154.54 190.63 155.34 189.75 Z M 156.08 188.95 L 156.73 188.19 C 157.50 187.28 157.40 185.91 156.49 185.14 C 155.58 184.36 154.21 184.47 153.43 185.38 L 152.78 186.14 C 152.01 187.05 152.11 188.42 153.02 189.20 C 153.93 189.97 155.30 189.86 156.08 188.95 Z M 156.79 188.13 L 157.40 187.35 C 158.14 186.41 157.98 185.04 157.04 184.30 C 156.10 183.56 154.73 183.72 153.99 184.66 L 153.38 185.44 C 152.64 186.38 152.80 187.75 153.74 188.49 C 154.68 189.23 156.04 189.07 156.79 188.13 Z M 157.45 187.28 L 158.04 186.48 C 158.74 185.51 158.53 184.15 157.56 183.44 C 156.59 182.74 155.23 182.95 154.52 183.92 L 153.94 184.73 C 153.24 185.70 153.45 187.05 154.42 187.76 C 155.39 188.47 156.75 188.25 157.45 187.28 Z M 158.08 186.41 L 158.64 185.58 C 159.31 184.58 159.05 183.23 158.05 182.56 C 157.06 181.89 155.71 182.16 155.04 183.15 L 154.48 183.99 C 153.81 184.98 154.07 186.33 155.07 187.00 C 156.06 187.67 157.42 187.41 158.08 186.41 Z M 158.68 185.52 L 159.21 184.68 C 159.85 183.67 159.54 182.32 158.52 181.69 C 157.50 181.05 156.16 181.36 155.52 182.37 L 155.00 183.21 C 154.36 184.23 154.67 185.57 155.69 186.21 C 156.70 186.85 158.05 186.54 158.68 185.52 Z M 159.24 184.63 L 159.74 183.78 C 160.35 182.74 160.00 181.41 158.97 180.80 C 157.93 180.19 156.60 180.54 155.99 181.58 L 155.49 182.43 C 154.88 183.46 155.23 184.80 156.26 185.41 C 157.30 186.02 158.63 185.67 159.24 184.63 Z M 159.77 183.73 L 160.26 182.85 C 160.84 181.80 160.46 180.47 159.41 179.89 C 158.35 179.31 157.03 179.69 156.45 180.74 L 155.96 181.62 C 155.38 182.68 155.76 184.00 156.81 184.58 C 157.87 185.17 159.19 184.78 159.77 183.73 Z M 160.29 182.80 L 160.76 181.90 C 161.31 180.83 160.90 179.51 159.83 178.96 C 158.76 178.40 157.44 178.82 156.89 179.89 L 156.42 180.79 C 155.86 181.86 156.28 183.18 157.35 183.73 C 158.42 184.29 159.73 183.87 160.29 182.80 Z M 160.78 181.85 L 161.22 180.96 C 161.75 179.88 161.30 178.57 160.22 178.04 C 159.13 177.51 157.83 177.96 157.30 179.05 L 156.86 179.93 C 156.33 181.01 156.78 182.32 157.86 182.85 C 158.95 183.38 160.25 182.93 160.78 181.85 Z M 161.24 180.92 L 161.66 180.02 C 162.16 178.93 161.69 177.63 160.59 177.12 C 159.49 176.61 158.19 177.09 157.69 178.19 L 157.27 179.09 C 156.76 180.18 157.24 181.48 158.34 181.99 C 159.44 182.50 160.74 182.02 161.24 180.92 Z M 161.68 179.98 L 162.08 179.06 C 162.57 177.95 162.06 176.66 160.95 176.18 C 159.84 175.69 158.55 176.20 158.07 177.31 L 157.66 178.23 C 157.18 179.34 157.68 180.63 158.79 181.11 C 159.90 181.60 161.20 181.09 161.68 179.98 Z M 162.10 179.03 L 162.49 178.08 C 162.96 176.96 162.43 175.68 161.31 175.21 C 160.19 174.75 158.90 175.28 158.44 176.40 L 158.04 177.34 C 157.58 178.46 158.11 179.75 159.23 180.22 C 160.35 180.68 161.64 180.15 162.10 179.03 Z M 162.51 178.05 L 162.87 177.14 C 163.32 176.01 162.77 174.73 161.63 174.28 C 160.50 173.84 159.23 174.39 158.78 175.52 L 158.42 176.43 C 157.97 177.56 158.53 178.84 159.66 179.29 C 160.79 179.74 162.07 179.18 162.51 178.05 Z M 162.89 177.11 L 163.24 176.18 C 163.67 175.04 163.09 173.77 161.95 173.34 C 160.81 172.91 159.54 173.49 159.11 174.63 L 158.76 175.56 C 158.34 176.69 158.91 177.96 160.05 178.39 C 161.19 178.82 162.46 178.25 162.89 177.11 Z M 163.25 176.15 L 163.59 175.20 C 164.00 174.05 163.40 172.79 162.26 172.38 C 161.11 171.97 159.85 172.57 159.44 173.71 L 159.10 174.66 C 158.69 175.81 159.29 177.07 160.43 177.48 C 161.58 177.89 162.84 177.29 163.25 176.15 Z M 163.60 175.16 L 163.93 174.20 C 164.32 173.04 163.70 171.79 162.55 171.40 C 161.39 171.01 160.14 171.63 159.75 172.79 L 159.42 173.75 C 159.03 174.90 159.65 176.16 160.81 176.55 C 161.96 176.94 163.21 176.32 163.60 175.16 Z M 163.94 174.16 L 164.24 173.22 C 164.61 172.06 163.97 170.81 162.81 170.44 C 161.65 170.07 160.40 170.72 160.03 171.88 L 159.73 172.82 C 159.36 173.98 160.01 175.23 161.17 175.60 C 162.33 175.97 163.57 175.32 163.94 174.16 Z M 164.26 173.19 L 164.54 172.24 C 164.89 171.08 164.23 169.84 163.06 169.49 C 161.89 169.14 160.66 169.80 160.31 170.97 L 160.02 171.91 C 159.67 173.08 160.33 174.31 161.50 174.67 C 162.67 175.02 163.90 174.36 164.26 173.19 Z M 164.55 172.22 L 164.83 171.26 C 165.16 170.08 164.49 168.86 163.31 168.52 C 162.14 168.18 160.91 168.86 160.57 170.03 L 160.30 170.99 C 159.96 172.17 160.64 173.39 161.81 173.73 C 162.99 174.07 164.21 173.39 164.55 172.22 Z M 164.83 171.24 L 165.10 170.26 C 165.43 169.08 164.74 167.86 163.56 167.54 C 162.38 167.21 161.16 167.90 160.84 169.08 L 160.57 170.05 C 160.24 171.23 160.93 172.45 162.11 172.78 C 163.29 173.11 164.51 172.42 164.83 171.24 Z M 165.11 170.25 L 165.38 169.26 C 165.70 168.08 165.00 166.86 163.81 166.54 C 162.63 166.22 161.42 166.92 161.10 168.11 L 160.83 169.09 C 160.51 170.27 161.21 171.49 162.39 171.81 C 163.58 172.13 164.79 171.43 165.11 170.25 Z M 165.38 169.25 L 165.64 168.27 C 165.95 167.08 165.24 165.87 164.06 165.56 C 162.87 165.25 161.66 165.96 161.35 167.14 L 161.09 168.12 C 160.78 169.31 161.49 170.52 162.67 170.83 C 163.86 171.14 165.07 170.43 165.38 169.25 Z M 165.65 168.24 L 165.89 167.26 C 166.19 166.07 165.47 164.87 164.28 164.57 C 163.09 164.27 161.88 164.99 161.59 166.18 L 161.34 167.17 C 161.04 168.35 161.77 169.56 162.95 169.86 C 164.14 170.16 165.35 169.43 165.65 168.24 Z M 165.90 167.22 L 166.13 166.25 C 166.41 165.05 165.66 163.86 164.47 163.58 C 163.28 163.30 162.08 164.05 161.80 165.24 L 161.58 166.22 C 161.30 167.41 162.04 168.61 163.24 168.88 C 164.43 169.16 165.63 168.42 165.90 167.22 Z M 166.14 166.20 L 166.34 165.24 C 166.59 164.04 165.82 162.86 164.62 162.61 C 163.42 162.36 162.24 163.13 161.99 164.33 L 161.79 165.29 C 161.54 166.49 162.31 167.67 163.51 167.92 C 164.72 168.17 165.89 167.40 166.14 166.20 Z M 166.36 165.17 L 166.54 164.15 C 166.75 162.94 165.94 161.79 164.73 161.58 C 163.52 161.37 162.37 162.17 162.15 163.38 L 161.98 164.40 C 161.76 165.61 162.57 166.76 163.78 166.97 C 164.99 167.19 166.15 166.38 166.36 165.17 Z M 166.55 164.08 L 166.69 163.07 C 166.86 161.85 166.02 160.72 164.80 160.55 C 163.58 160.38 162.46 161.23 162.28 162.45 L 162.14 163.46 C 161.97 164.68 162.82 165.80 164.04 165.97 C 165.25 166.14 166.38 165.30 166.55 164.08 Z M 166.70 163.00 L 166.81 162.02 C 166.94 160.79 166.06 159.69 164.84 159.56 C 163.62 159.42 162.52 160.31 162.38 161.53 L 162.27 162.51 C 162.14 163.73 163.02 164.83 164.24 164.97 C 165.47 165.10 166.57 164.22 166.70 163.00 Z M 166.82 161.96 L 166.90 161.00 C 167.00 159.78 166.09 158.70 164.87 158.59 C 163.64 158.49 162.56 159.40 162.46 160.62 L 162.38 161.58 C 162.27 162.81 163.18 163.89 164.41 163.99 C 165.63 164.10 166.71 163.19 166.82 161.96 Z M 166.90 160.96 L 166.97 159.96 C 167.05 158.73 166.12 157.67 164.89 157.59 C 163.66 157.51 162.60 158.44 162.52 159.67 L 162.45 160.67 C 162.37 161.89 163.30 162.96 164.53 163.04 C 165.76 163.12 166.82 162.19 166.90 160.96 Z M 166.97 159.92 L 167.02 158.91 C 167.08 157.68 166.14 156.63 164.91 156.57 C 163.68 156.51 162.63 157.46 162.57 158.69 L 162.52 159.70 C 162.45 160.93 163.40 161.98 164.63 162.04 C 165.86 162.10 166.91 161.15 166.97 159.92 Z M 167.02 158.88 L 167.06 157.89 C 167.10 156.66 166.14 155.62 164.91 155.58 C 163.68 155.53 162.65 156.49 162.60 157.73 L 162.56 158.72 C 162.52 159.95 163.48 160.99 164.71 161.03 C 165.95 161.07 166.98 160.11 167.02 158.88 Z M 167.06 157.86 L 167.09 156.89 C 167.12 155.65 166.14 154.63 164.91 154.60 C 163.68 154.57 162.65 155.55 162.62 156.78 L 162.60 157.75 C 162.57 158.99 163.54 160.01 164.78 160.04 C 166.01 160.07 167.03 159.09 167.06 157.86 Z M 167.09 156.86 L 167.10 155.84 C 167.12 154.61 166.13 153.59 164.90 153.58 C 163.67 153.56 162.65 154.54 162.64 155.78 L 162.62 156.80 C 162.61 158.04 163.59 159.05 164.82 159.07 C 166.06 159.08 167.07 158.10 167.09 156.86 Z M 167.10 155.82 L 167.10 154.81 C 167.11 153.58 166.11 152.57 164.88 152.57 C 163.64 152.57 162.64 153.56 162.64 154.80 L 162.64 155.80 C 162.63 157.03 163.63 158.04 164.86 158.04 C 166.09 158.04 167.10 157.05 167.10 155.82 Z M 167.10 154.78 L 167.10 153.80 C 167.09 152.57 166.08 151.58 164.84 151.59 C 163.61 151.60 162.62 152.60 162.63 153.84 L 162.64 154.82 C 162.65 156.05 163.66 157.05 164.89 157.04 C 166.12 157.02 167.11 156.02 167.10 154.78 Z M 167.10 153.77 L 167.07 152.77 C 167.05 151.54 166.03 150.56 164.79 150.58 C 163.56 150.61 162.58 151.63 162.61 152.86 L 162.63 153.87 C 162.66 155.10 163.68 156.08 164.91 156.05 C 166.14 156.03 167.12 155.00 167.10 153.77 Z M 167.07 152.71 L 167.02 151.69 C 166.96 150.46 165.91 149.51 164.68 149.57 C 163.45 149.63 162.50 150.68 162.56 151.91 L 162.61 152.93 C 162.67 154.16 163.72 155.11 164.95 155.05 C 166.18 154.99 167.13 153.94 167.07 152.71 Z M 167.01 151.56 L 166.90 150.58 C 166.77 149.35 165.67 148.47 164.44 148.60 C 163.22 148.74 162.33 149.84 162.46 151.06 L 162.57 152.05 C 162.71 153.27 163.81 154.16 165.03 154.02 C 166.26 153.89 167.15 152.79 167.01 151.56 Z M 166.87 150.37 L 166.68 149.42 C 166.43 148.21 165.25 147.43 164.04 147.68 C 162.83 147.93 162.05 149.11 162.30 150.32 L 162.50 151.27 C 162.74 152.48 163.92 153.26 165.13 153.01 C 166.34 152.76 167.12 151.58 166.87 150.37 Z M 166.62 149.19 L 166.32 148.25 C 165.94 147.08 164.69 146.43 163.51 146.80 C 162.34 147.18 161.69 148.43 162.06 149.61 L 162.36 150.55 C 162.74 151.72 163.99 152.37 165.17 152.00 C 166.34 151.62 166.99 150.37 166.62 149.19 Z M 166.26 148.09 L 165.88 147.16 C 165.41 146.02 164.11 145.47 162.97 145.94 C 161.82 146.41 161.28 147.71 161.75 148.85 L 162.12 149.78 C 162.59 150.92 163.90 151.47 165.04 151.00 C 166.18 150.53 166.72 149.23 166.26 148.09 Z M 165.84 147.06 L 165.41 146.16 C 164.89 145.04 163.56 144.56 162.45 145.08 C 161.33 145.60 160.85 146.93 161.37 148.05 L 161.79 148.95 C 162.31 150.07 163.64 150.55 164.76 150.03 C 165.87 149.51 166.36 148.18 165.84 147.06 Z M 165.38 146.09 L 164.96 145.26 C 164.39 144.16 163.05 143.73 161.95 144.29 C 160.85 144.85 160.42 146.19 160.98 147.29 L 161.40 148.12 C 161.96 149.22 163.31 149.65 164.41 149.09 C 165.50 148.53 165.94 147.19 165.38 146.09 Z M 164.89 145.14 L 164.39 144.29 C 163.76 143.23 162.39 142.88 161.33 143.51 C 160.27 144.13 159.92 145.50 160.55 146.56 L 161.05 147.41 C 161.67 148.47 163.04 148.82 164.10 148.20 C 165.16 147.57 165.52 146.20 164.89 145.14 Z M 164.29 144.14 L 163.67 143.27 C 162.96 142.27 161.57 142.03 160.56 142.74 C 159.56 143.45 159.32 144.84 160.03 145.85 L 160.65 146.72 C 161.36 147.72 162.75 147.96 163.76 147.25 C 164.76 146.54 165.00 145.14 164.29 144.14 Z M 163.55 143.12 L 162.91 142.36 C 162.11 141.42 160.71 141.31 159.77 142.10 C 158.83 142.90 158.71 144.31 159.51 145.24 L 160.15 146.00 C 160.95 146.94 162.36 147.06 163.29 146.26 C 164.23 145.46 164.35 144.06 163.55 143.12 Z M 162.80 142.24 L 162.12 141.55 C 161.26 140.67 159.85 140.65 158.97 141.51 C 158.09 142.37 158.07 143.78 158.94 144.66 L 159.62 145.36 C 160.48 146.24 161.89 146.26 162.77 145.40 C 163.65 144.54 163.66 143.12 162.80 142.24 Z M 162.03 141.46 L 161.28 140.78 C 160.37 139.95 158.96 140.01 158.13 140.92 C 157.31 141.83 157.37 143.24 158.28 144.07 L 159.03 144.75 C 159.94 145.58 161.34 145.52 162.17 144.61 C 163.00 143.70 162.94 142.29 162.03 141.46 Z M 161.19 140.70 L 160.40 140.05 C 159.44 139.27 158.04 139.40 157.26 140.35 C 156.48 141.30 156.62 142.71 157.57 143.49 L 158.37 144.14 C 159.32 144.92 160.72 144.79 161.50 143.84 C 162.28 142.89 162.14 141.48 161.19 140.70 Z M 160.31 139.98 L 159.48 139.36 C 158.49 138.63 157.09 138.84 156.36 139.83 C 155.63 140.82 155.84 142.21 156.83 142.94 L 157.66 143.56 C 158.65 144.29 160.04 144.08 160.77 143.09 C 161.50 142.10 161.29 140.71 160.31 139.98 Z M 159.38 139.30 L 158.52 138.73 C 157.50 138.06 156.12 138.34 155.45 139.36 C 154.77 140.38 155.05 141.76 156.07 142.44 L 156.93 143.01 C 157.95 143.68 159.33 143.40 160.00 142.38 C 160.68 141.36 160.40 139.98 159.38 139.30 Z M 158.42 138.68 L 157.56 138.17 C 156.50 137.55 155.14 137.90 154.52 138.95 C 153.90 140.01 154.25 141.36 155.31 141.99 L 156.17 142.50 C 157.23 143.12 158.59 142.77 159.21 141.71 C 159.83 140.66 159.48 139.30 158.42 138.68 Z M 157.45 138.12 L 156.57 137.66 C 155.49 137.09 154.15 137.51 153.59 138.60 C 153.02 139.68 153.45 141.01 154.53 141.58 L 155.41 142.04 C 156.49 142.60 157.83 142.18 158.39 141.10 C 158.96 140.02 158.53 138.68 157.45 138.12 Z M 156.47 137.61 L 155.58 137.20 C 154.47 136.70 153.16 137.18 152.65 138.29 C 152.14 139.40 152.63 140.71 153.74 141.21 L 154.63 141.62 C 155.74 142.13 157.05 141.64 157.55 140.54 C 158.06 139.43 157.58 138.12 156.47 137.61 Z M 155.47 137.17 L 154.54 136.79 C 153.41 136.34 152.13 136.89 151.68 138.02 C 151.23 139.15 151.78 140.42 152.90 140.87 L 153.84 141.25 C 154.97 141.70 156.25 141.15 156.70 140.02 C 157.15 138.90 156.60 137.62 155.47 137.17 Z M 154.43 136.77 L 153.46 136.43 C 152.32 136.04 151.08 136.65 150.68 137.79 C 150.29 138.93 150.90 140.18 152.04 140.57 L 153.01 140.90 C 154.15 141.29 155.40 140.69 155.79 139.54 C 156.18 138.40 155.57 137.16 154.43 136.77 Z M 153.35 136.41 L 152.39 136.13 C 151.23 135.80 150.03 136.47 149.70 137.62 C 149.36 138.77 150.03 139.98 151.18 140.31 L 152.15 140.59 C 153.30 140.92 154.51 140.26 154.84 139.10 C 155.17 137.95 154.51 136.75 153.35 136.41 Z M 152.28 136.12 L 151.32 135.89 C 150.16 135.62 149.00 136.34 148.72 137.50 C 148.45 138.67 149.17 139.83 150.33 140.10 L 151.29 140.33 C 152.45 140.60 153.61 139.88 153.89 138.72 C 154.16 137.55 153.44 136.39 152.28 136.12 Z M 151.20 135.88 L 150.24 135.71 C 149.07 135.50 147.96 136.28 147.75 137.45 C 147.54 138.61 148.32 139.73 149.48 139.94 L 150.45 140.11 C 151.62 140.32 152.73 139.54 152.94 138.37 C 153.15 137.21 152.37 136.09 151.20 135.88 Z M 150.11 135.72 L 149.10 135.59 C 147.93 135.45 146.87 136.29 146.74 137.45 C 146.60 138.61 147.43 139.67 148.59 139.81 L 149.61 139.93 C 150.77 140.07 151.83 139.24 151.97 138.08 C 152.11 136.91 151.28 135.86 150.11 135.72 Z M 148.99 135.61 L 147.99 135.54 C 146.84 135.46 145.84 136.34 145.76 137.49 C 145.68 138.65 146.55 139.65 147.71 139.73 L 148.70 139.80 C 149.86 139.87 150.86 139.00 150.94 137.84 C 151.01 136.69 150.14 135.69 148.99 135.61 Z M 147.91 135.57 L 146.93 135.54 C 145.79 135.51 144.83 136.41 144.80 137.55 C 144.77 138.69 145.67 139.65 146.82 139.68 L 147.79 139.71 C 148.94 139.74 149.89 138.84 149.92 137.69 C 149.95 136.55 149.05 135.60 147.91 135.57 Z M 146.87 135.57 L 145.93 135.57 C 144.80 135.57 143.88 136.48 143.88 137.61 C 143.88 138.73 144.80 139.65 145.92 139.65 L 146.87 139.65 C 148.00 139.65 148.91 138.74 148.91 137.61 C 148.91 136.48 148.00 135.57 146.87 135.57 Z M 145.86 135.60 L 144.93 135.63 C 143.82 135.67 142.95 136.60 142.99 137.70 C 143.02 138.81 143.95 139.68 145.06 139.64 L 145.99 139.61 C 147.10 139.58 147.96 138.65 147.93 137.54 C 147.89 136.44 146.97 135.57 145.86 135.60 Z M 144.81 135.68 L 143.84 135.77 C 142.76 135.87 141.96 136.82 142.06 137.90 C 142.16 138.99 143.12 139.78 144.20 139.69 L 145.17 139.60 C 146.25 139.50 147.05 138.54 146.95 137.46 C 146.85 136.38 145.90 135.58 144.81 135.68 Z M 143.70 135.82 L 142.66 136.00 C 141.61 136.18 140.90 137.17 141.08 138.22 C 141.26 139.27 142.25 139.98 143.30 139.80 L 144.34 139.63 C 145.39 139.45 146.10 138.46 145.92 137.41 C 145.74 136.36 144.75 135.65 143.70 135.82 Z M 142.52 136.07 L 141.51 136.32 C 140.50 136.57 139.88 137.60 140.14 138.62 C 140.39 139.63 141.42 140.24 142.43 139.99 L 143.44 139.74 C 144.46 139.48 145.07 138.45 144.82 137.44 C 144.56 136.43 143.53 135.81 142.52 136.07 Z M 141.41 136.39 L 140.48 136.68 C 139.51 137.00 138.97 138.04 139.28 139.02 C 139.59 139.99 140.64 140.53 141.62 140.22 L 142.54 139.92 C 143.52 139.61 144.05 138.56 143.74 137.59 C 143.43 136.61 142.38 136.07 141.41 136.39 Z M 140.41 136.75 L 139.46 137.10 C 138.52 137.46 138.04 138.51 138.39 139.45 C 138.75 140.39 139.80 140.87 140.74 140.51 L 141.69 140.16 C 142.63 139.80 143.11 138.75 142.75 137.81 C 142.40 136.87 141.35 136.39 140.41 136.75 Z M 139.40 137.16 L 138.45 137.57 C 137.54 137.96 137.12 139.01 137.51 139.92 C 137.89 140.82 138.94 141.24 139.85 140.86 L 140.80 140.45 C 141.71 140.06 142.13 139.01 141.74 138.11 C 141.35 137.20 140.30 136.78 139.40 137.16 Z M 138.39 137.63 L 137.47 138.07 C 136.60 138.49 136.23 139.54 136.65 140.41 C 137.07 141.28 138.11 141.65 138.98 141.24 L 139.91 140.79 C 140.78 140.38 141.15 139.33 140.73 138.46 C 140.31 137.58 139.27 137.22 138.39 137.63 Z M 137.42 138.14 L 136.52 138.62 C 135.68 139.07 135.37 140.11 135.82 140.95 C 136.27 141.78 137.31 142.10 138.14 141.65 L 139.04 141.17 C 139.88 140.72 140.19 139.68 139.74 138.84 C 139.29 138.01 138.25 137.69 137.42 138.14 Z M 136.46 138.69 L 135.55 139.24 C 134.76 139.72 134.50 140.76 134.98 141.56 C 135.47 142.35 136.50 142.61 137.30 142.13 L 138.20 141.58 C 139.00 141.10 139.26 140.06 138.77 139.26 C 138.29 138.47 137.26 138.21 136.46 138.69 Z M 135.50 139.31 L 134.67 139.87 C 133.91 140.38 133.71 141.41 134.22 142.17 C 134.73 142.93 135.75 143.13 136.51 142.62 L 137.35 142.06 C 138.11 141.55 138.31 140.52 137.80 139.76 C 137.29 139.00 136.26 138.80 135.50 139.31 Z M 134.64 139.93 L 133.85 140.50 C 133.12 141.03 132.96 142.04 133.49 142.77 C 134.01 143.50 135.03 143.66 135.76 143.13 L 136.54 142.56 C 137.27 142.03 137.43 141.02 136.91 140.29 C 136.38 139.56 135.36 139.40 134.64 139.93 Z M 133.84 140.55 L 133.08 141.12 C 132.38 141.66 132.24 142.66 132.77 143.36 C 133.30 144.06 134.30 144.20 135.01 143.66 L 135.77 143.09 C 136.47 142.55 136.60 141.55 136.07 140.85 C 135.54 140.15 134.54 140.01 133.84 140.55 Z M 133.08 141.15 L 132.83 141.34 C 132.14 141.87 132.01 142.86 132.54 143.55 C 133.07 144.24 134.06 144.37 134.75 143.84 L 135.00 143.64 C 135.69 143.11 135.82 142.12 135.29 141.43 C 134.76 140.74 133.77 140.62 133.08 141.15 Z"
      fill="black"
      fill-rule="nonzero" /></svg>