<svg xmlns="http://www.w3.org/2000/svg" width="300" height="300" viewBox="0 0 300 300">
<path d="M 154.07 138.00 L 154.01 137.02 C 153.96 136.12 153.19 135.44 152.29 135.49 C 151.39 135.54 150.71 136.31 150.76 137.21 L 150.82 138.19 C 150.87 139.08 151.64 139.77 152.54 139.72 C 153.43 139.66 154.12 138.89 154.07 138.00 Z M 154.01 137.01 L 153.95 136.02 C 153.89 135.12 153.11 134.44 152.21 134.50 C 151.32 134.56 150.63 135.34 150.69 136.24 L 150.76 137.22 C 150.82 138.12 151.59 138.80 152.49 138.74 C 153.39 138.68 154.07 137.90 154.01 137.01 Z M 153.95 136.00 L 153.87 135.01 C 153.80 134.11 153.01 133.44 152.11 133.51 C 151.21 133.58 150.54 134.37 150.61 135.27 L 150.69 136.26 C 150.77 137.16 151.55 137.83 152.45 137.76 C 153.35 137.68 154.02 136.90 153.95 136.00 Z M 153.87 134.97 L 153.76 133.96 C 153.67 133.07 152.87 132.41 151.97 132.50 C 151.08 132.59 150.42 133.39 150.51 134.29 L 150.61 135.30 C 150.71 136.20 151.51 136.85 152.40 136.76 C 153.30 136.67 153.96 135.87 153.87 134.97 Z M 153.76 133.92 L 153.63 132.91 C 153.52 132.01 152.70 131.37 151.80 131.49 C 150.90 131.60 150.27 132.42 150.38 133.32 L 150.51 134.34 C 150.63 135.23 151.45 135.87 152.35 135.75 C 153.24 135.64 153.88 134.82 153.76 133.92 Z M 153.64 132.86 L 153.48 131.87 C 153.34 130.97 152.50 130.35 151.60 130.50 C 150.70 130.64 150.08 131.48 150.22 132.38 L 150.38 133.37 C 150.52 134.27 151.37 134.88 152.27 134.74 C 153.16 134.60 153.78 133.76 153.64 132.86 Z M 153.49 131.82 L 153.30 130.82 C 153.13 129.92 152.26 129.33 151.36 129.49 C 150.46 129.66 149.86 130.53 150.03 131.44 L 150.22 132.43 C 150.39 133.33 151.26 133.93 152.16 133.76 C 153.06 133.59 153.66 132.72 153.49 131.82 Z M 153.31 130.77 L 153.09 129.79 C 152.89 128.88 152.00 128.30 151.09 128.50 C 150.19 128.70 149.61 129.60 149.81 130.50 L 150.03 131.49 C 150.22 132.40 151.12 132.97 152.03 132.77 C 152.93 132.57 153.51 131.68 153.31 130.77 Z M 153.10 129.73 L 152.85 128.76 C 152.62 127.85 151.70 127.30 150.79 127.53 C 149.89 127.76 149.33 128.68 149.56 129.59 L 149.81 130.56 C 150.04 131.47 150.96 132.02 151.87 131.79 C 152.77 131.56 153.32 130.64 153.10 129.73 Z M 152.85 128.70 L 152.57 127.73 C 152.31 126.83 151.36 126.30 150.45 126.57 C 149.54 126.83 149.02 127.78 149.28 128.69 L 149.56 129.65 C 149.83 130.56 150.78 131.08 151.69 130.82 C 152.59 130.56 153.12 129.61 152.85 128.70 Z M 152.56 127.65 L 152.22 126.64 C 151.91 125.74 150.93 125.26 150.02 125.57 C 149.12 125.87 148.64 126.86 148.95 127.76 L 149.29 128.77 C 149.60 129.67 150.58 130.15 151.49 129.85 C 152.39 129.54 152.87 128.56 152.56 127.65 Z M 152.20 126.54 L 151.81 125.59 C 151.44 124.70 150.42 124.28 149.53 124.64 C 148.64 125.01 148.21 126.03 148.58 126.92 L 148.97 127.87 C 149.34 128.76 150.36 129.18 151.25 128.81 C 152.14 128.45 152.56 127.43 152.20 126.54 Z M 151.76 125.46 L 151.32 124.59 C 150.88 123.73 149.82 123.38 148.95 123.82 C 148.09 124.26 147.74 125.32 148.18 126.19 L 148.62 127.06 C 149.06 127.92 150.12 128.27 150.99 127.83 C 151.86 127.39 152.21 126.33 151.76 125.46 Z M 151.25 124.43 L 150.75 123.65 C 150.22 122.82 149.12 122.58 148.29 123.11 C 147.47 123.64 147.22 124.74 147.75 125.57 L 148.25 126.35 C 148.78 127.18 149.88 127.42 150.71 126.89 C 151.54 126.36 151.78 125.26 151.25 124.43 Z M 150.63 123.45 L 149.99 122.69 C 149.35 121.93 148.21 121.83 147.45 122.47 C 146.69 123.10 146.59 124.24 147.23 125.00 L 147.88 125.77 C 148.51 126.53 149.65 126.62 150.41 125.99 C 151.17 125.35 151.27 124.21 150.63 123.45 Z M 149.79 122.47 L 149.05 121.82 C 148.29 121.17 147.14 121.25 146.48 122.01 C 145.83 122.77 145.92 123.92 146.67 124.57 L 147.42 125.22 C 148.18 125.87 149.33 125.79 149.98 125.03 C 150.64 124.27 150.55 123.12 149.79 122.47 Z M 148.79 121.62 L 147.94 121.12 C 147.07 120.60 145.94 120.90 145.43 121.77 C 144.92 122.65 145.21 123.77 146.08 124.28 L 146.93 124.78 C 147.81 125.29 148.93 125.00 149.44 124.13 C 149.95 123.25 149.66 122.13 148.79 121.62 Z M 147.63 120.95 L 146.68 120.62 C 145.72 120.27 144.66 120.78 144.32 121.74 C 143.98 122.71 144.48 123.77 145.44 124.11 L 146.39 124.45 C 147.36 124.79 148.42 124.28 148.76 123.32 C 149.10 122.36 148.60 121.30 147.63 120.95 Z M 146.38 120.52 L 145.46 120.36 C 144.44 120.19 143.48 120.88 143.30 121.89 C 143.13 122.91 143.81 123.88 144.83 124.05 L 145.75 124.21 C 146.77 124.38 147.73 123.69 147.91 122.68 C 148.08 121.66 147.40 120.69 146.38 120.52 Z M 145.18 120.32 L 144.21 120.31 C 143.17 120.28 142.31 121.11 142.29 122.15 C 142.27 123.19 143.09 124.05 144.13 124.07 L 145.11 124.09 C 146.15 124.11 147.01 123.28 147.03 122.24 C 147.05 121.20 146.22 120.34 145.18 120.32 Z M 143.94 120.31 L 142.93 120.43 C 141.89 120.55 141.15 121.50 141.28 122.54 C 141.40 123.58 142.35 124.32 143.39 124.19 L 144.40 124.07 C 145.44 123.94 146.18 123.00 146.05 121.96 C 145.92 120.92 144.98 120.18 143.94 120.31 Z M 142.67 120.46 L 141.66 120.73 C 140.64 121.00 140.03 122.05 140.30 123.07 C 140.57 124.09 141.62 124.70 142.64 124.42 L 143.65 124.16 C 144.67 123.88 145.28 122.84 145.01 121.82 C 144.73 120.80 143.69 120.19 142.67 120.46 Z M 141.41 120.81 L 140.45 121.21 C 139.47 121.61 139.01 122.74 139.42 123.72 C 139.83 124.70 140.95 125.16 141.93 124.75 L 142.88 124.35 C 143.86 123.94 144.33 122.82 143.92 121.84 C 143.51 120.86 142.38 120.40 141.41 120.81 Z M 140.25 121.29 L 139.35 121.79 C 138.42 122.31 138.09 123.48 138.60 124.41 C 139.12 125.34 140.29 125.68 141.22 125.16 L 142.13 124.66 C 143.06 124.15 143.39 122.97 142.87 122.04 C 142.36 121.11 141.18 120.78 140.25 121.29 Z M 139.21 121.87 L 138.36 122.45 C 137.47 123.04 137.24 124.24 137.83 125.13 C 138.43 126.01 139.63 126.25 140.51 125.65 L 141.37 125.08 C 142.25 124.49 142.49 123.29 141.89 122.40 C 141.30 121.52 140.10 121.28 139.21 121.87 Z M 138.26 122.51 L 137.47 123.12 C 136.62 123.77 136.46 124.98 137.11 125.83 C 137.76 126.68 138.98 126.84 139.83 126.19 L 140.61 125.59 C 141.46 124.94 141.63 123.72 140.97 122.87 C 140.32 122.02 139.11 121.86 138.26 122.51 Z M 137.40 123.17 L 136.68 123.77 C 135.86 124.46 135.75 125.69 136.44 126.51 C 137.14 127.33 138.36 127.44 139.18 126.74 L 139.90 126.14 C 140.72 125.45 140.82 124.22 140.13 123.40 C 139.44 122.58 138.22 122.48 137.40 123.17 Z M 136.62 123.82 L 135.80 124.57 C 135.01 125.29 134.95 126.52 135.68 127.32 C 136.40 128.11 137.63 128.17 138.43 127.44 L 139.24 126.70 C 140.04 125.97 140.09 124.74 139.37 123.95 C 138.64 123.15 137.41 123.10 136.62 123.82 Z M 135.74 124.63 L 135.04 125.33 C 134.28 126.09 134.28 127.32 135.04 128.08 C 135.80 128.84 137.03 128.84 137.79 128.08 L 138.49 127.38 C 139.25 126.62 139.25 125.39 138.49 124.62 C 137.73 123.86 136.50 123.86 135.74 124.63 Z M 134.98 125.38 L 134.35 126.07 C 133.62 126.86 133.67 128.10 134.46 128.83 C 135.26 129.56 136.49 129.50 137.22 128.71 L 137.85 128.02 C 138.58 127.23 138.53 126.00 137.74 125.27 C 136.94 124.54 135.71 124.59 134.98 125.38 Z M 134.31 126.12 L 133.68 126.83 C 132.98 127.65 133.07 128.88 133.89 129.59 C 134.70 130.29 135.94 130.20 136.64 129.39 L 137.26 128.67 C 137.97 127.85 137.88 126.62 137.06 125.91 C 136.24 125.21 135.01 125.30 134.31 126.12 Z M 133.65 126.87 L 133.03 127.63 C 132.34 128.47 132.46 129.70 133.29 130.38 C 134.13 131.07 135.36 130.95 136.04 130.12 L 136.67 129.35 C 137.36 128.52 137.24 127.29 136.40 126.60 C 135.57 125.92 134.34 126.04 133.65 126.87 Z M 133.00 127.67 L 132.37 128.46 C 131.71 129.31 131.86 130.54 132.71 131.20 C 133.55 131.87 134.78 131.72 135.45 130.87 L 136.07 130.08 C 136.74 129.23 136.59 128.00 135.74 127.34 C 134.89 126.67 133.66 126.82 133.00 127.67 Z M 132.35 128.50 L 131.74 129.31 C 131.09 130.17 131.27 131.40 132.13 132.04 C 132.99 132.69 134.22 132.52 134.87 131.65 L 135.48 130.84 C 136.12 129.98 135.95 128.75 135.08 128.10 C 134.22 127.46 132.99 127.63 132.35 128.50 Z M 131.71 129.34 L 131.14 130.15 C 130.51 131.03 130.71 132.25 131.59 132.88 C 132.46 133.50 133.69 133.30 134.31 132.43 L 134.89 131.62 C 135.52 130.74 135.32 129.52 134.44 128.89 C 133.56 128.26 132.34 128.46 131.71 129.34 Z M 131.11 130.18 L 130.55 131.00 C 129.94 131.89 130.16 133.11 131.05 133.72 C 131.94 134.33 133.16 134.11 133.77 133.22 L 134.34 132.39 C 134.95 131.51 134.72 130.29 133.83 129.68 C 132.94 129.06 131.73 129.29 131.11 130.18 Z M 130.53 131.03 L 129.97 131.87 C 129.38 132.77 129.62 133.98 130.52 134.58 C 131.42 135.18 132.64 134.93 133.23 134.03 L 133.79 133.19 C 134.38 132.29 134.14 131.08 133.24 130.48 C 132.34 129.89 131.12 130.13 130.53 131.03 Z M 129.96 131.90 L 129.42 132.73 C 128.84 133.64 129.10 134.85 130.01 135.43 C 130.92 136.01 132.13 135.75 132.72 134.84 L 133.25 134.01 C 133.83 133.10 133.57 131.89 132.66 131.30 C 131.75 130.72 130.54 130.99 129.96 131.90 Z M 129.41 132.75 L 128.89 133.59 C 128.32 134.50 128.60 135.71 129.51 136.28 C 130.43 136.85 131.64 136.57 132.21 135.66 L 132.73 134.82 C 133.30 133.90 133.02 132.69 132.10 132.12 C 131.19 131.55 129.98 131.83 129.41 132.75 Z M 128.88 133.61 L 128.35 134.46 C 127.79 135.39 128.09 136.59 129.01 137.15 C 129.93 137.71 131.14 137.42 131.70 136.49 L 132.22 135.64 C 132.78 134.71 132.49 133.51 131.56 132.95 C 130.64 132.39 129.44 132.68 128.88 133.61 Z M 128.35 134.48 L 127.82 135.36 C 127.27 136.28 127.57 137.49 128.50 138.04 C 129.43 138.59 130.63 138.29 131.18 137.36 L 131.71 136.48 C 132.26 135.55 131.96 134.35 131.03 133.80 C 130.10 133.24 128.90 133.55 128.35 134.48 Z M 127.81 135.37 L 127.30 136.25 C 126.75 137.18 127.07 138.38 128.00 138.92 C 128.93 139.47 130.13 139.16 130.68 138.22 L 131.19 137.35 C 131.74 136.41 131.42 135.22 130.49 134.67 C 129.56 134.12 128.36 134.44 127.81 135.37 Z M 127.29 136.27 L 126.78 137.16 C 126.25 138.10 126.58 139.29 127.53 139.82 C 128.47 140.36 129.66 140.02 130.19 139.08 L 130.69 138.20 C 131.22 137.26 130.89 136.06 129.95 135.53 C 129.01 135.00 127.82 135.33 127.29 136.27 Z M 126.76 137.20 L 126.29 138.08 C 125.78 139.03 126.14 140.22 127.10 140.73 C 128.05 141.23 129.24 140.87 129.75 139.92 L 130.21 139.04 C 130.72 138.09 130.36 136.90 129.41 136.39 C 128.46 135.89 127.27 136.25 126.76 137.20 Z M 126.26 138.14 L 125.82 139.04 C 125.35 140.01 125.75 141.18 126.72 141.65 C 127.70 142.13 128.87 141.72 129.34 140.75 L 129.78 139.86 C 130.25 138.89 129.85 137.71 128.88 137.24 C 127.91 136.77 126.73 137.17 126.26 138.14 Z M 125.78 139.12 L 125.38 140.07 C 124.95 141.07 125.41 142.22 126.40 142.64 C 127.40 143.07 128.55 142.61 128.97 141.62 L 129.38 140.67 C 129.81 139.67 129.35 138.52 128.35 138.09 C 127.36 137.67 126.21 138.13 125.78 139.12 Z M 125.34 140.16 L 125.00 141.08 C 124.62 142.09 125.13 143.22 126.15 143.60 C 127.16 143.98 128.29 143.46 128.66 142.45 L 129.01 141.53 C 129.39 140.52 128.87 139.39 127.86 139.01 C 126.85 138.63 125.72 139.15 125.34 140.16 Z M 124.97 141.15 L 124.67 142.05 C 124.33 143.07 124.89 144.18 125.92 144.52 C 126.94 144.86 128.05 144.31 128.39 143.28 L 128.69 142.38 C 129.03 141.35 128.47 140.25 127.45 139.91 C 126.42 139.57 125.31 140.12 124.97 141.15 Z M 124.66 142.11 L 124.40 142.97 C 124.09 144.00 124.68 145.09 125.72 145.40 C 126.76 145.71 127.85 145.12 128.15 144.08 L 128.41 143.22 C 128.72 142.19 128.13 141.10 127.09 140.79 C 126.05 140.48 124.96 141.07 124.66 142.11 Z M 124.38 143.06 L 124.15 143.98 C 123.89 145.03 124.53 146.10 125.58 146.35 C 126.63 146.61 127.69 145.97 127.95 144.92 L 128.18 143.99 C 128.44 142.94 127.80 141.88 126.75 141.62 C 125.70 141.36 124.64 142.01 124.38 143.06 Z M 124.12 144.09 L 123.92 145.16 C 123.72 146.22 124.42 147.24 125.49 147.44 C 126.55 147.64 127.57 146.94 127.77 145.88 L 127.97 144.81 C 128.17 143.75 127.47 142.73 126.41 142.53 C 125.35 142.33 124.32 143.03 124.12 144.09 Z M 123.91 145.25 L 123.77 146.23 C 123.63 147.30 124.37 148.29 125.44 148.43 C 126.52 148.58 127.50 147.83 127.65 146.76 L 127.79 145.79 C 127.94 144.72 127.19 143.73 126.12 143.58 C 125.05 143.43 124.06 144.18 123.91 145.25 Z M 123.77 146.30 L 123.67 147.23 C 123.56 148.30 124.34 149.26 125.42 149.37 C 126.49 149.48 127.45 148.70 127.56 147.63 L 127.66 146.70 C 127.77 145.62 126.99 144.66 125.91 144.55 C 124.84 144.44 123.88 145.22 123.77 146.30 Z M 123.66 147.28 L 123.59 148.28 C 123.51 149.36 124.33 150.30 125.40 150.38 C 126.48 150.45 127.42 149.64 127.50 148.57 L 127.57 147.57 C 127.65 146.49 126.84 145.55 125.76 145.47 C 124.68 145.40 123.74 146.21 123.66 147.28 Z M 123.59 148.34 L 123.55 149.39 C 123.50 150.47 124.34 151.38 125.42 151.42 C 126.50 151.47 127.41 150.63 127.46 149.55 L 127.50 148.51 C 127.55 147.43 126.71 146.51 125.63 146.47 C 124.55 146.42 123.63 147.26 123.59 148.34 Z M 123.54 149.45 L 123.53 150.52 C 123.52 151.60 124.39 152.48 125.47 152.50 C 126.55 152.51 127.44 151.64 127.45 150.56 L 127.46 149.49 C 127.47 148.41 126.60 147.52 125.52 147.51 C 124.44 147.50 123.55 148.37 123.54 149.45 Z M 123.53 150.59 L 123.56 151.64 C 123.59 152.72 124.49 153.57 125.57 153.54 C 126.65 153.52 127.50 152.62 127.47 151.54 L 127.45 150.49 C 127.42 149.41 126.52 148.55 125.44 148.58 C 124.36 148.61 123.51 149.51 123.53 150.59 Z M 123.56 151.73 L 123.64 152.75 C 123.71 153.82 124.65 154.64 125.73 154.56 C 126.81 154.48 127.62 153.55 127.54 152.47 L 127.47 151.45 C 127.39 150.37 126.46 149.56 125.38 149.63 C 124.30 149.71 123.49 150.65 123.56 151.73 Z M 123.65 152.86 L 123.78 153.86 C 123.92 154.94 124.91 155.69 125.98 155.55 C 127.05 155.41 127.80 154.42 127.66 153.35 L 127.53 152.35 C 127.39 151.28 126.40 150.52 125.33 150.67 C 124.26 150.81 123.51 151.79 123.65 152.86 Z M 123.81 154.02 L 124.01 154.99 C 124.24 156.04 125.28 156.72 126.34 156.49 C 127.40 156.27 128.07 155.23 127.84 154.17 L 127.64 153.20 C 127.41 152.14 126.37 151.47 125.31 151.69 C 124.26 151.92 123.58 152.96 123.81 154.02 Z M 124.06 155.17 L 124.36 156.10 C 124.69 157.14 125.79 157.70 126.82 157.38 C 127.85 157.05 128.42 155.95 128.09 154.92 L 127.79 153.98 C 127.47 152.95 126.37 152.38 125.33 152.71 C 124.30 153.04 123.74 154.14 124.06 155.17 Z M 124.44 156.32 L 124.85 157.22 C 125.30 158.20 126.46 158.64 127.45 158.19 C 128.43 157.74 128.86 156.58 128.42 155.60 L 128.01 154.70 C 127.56 153.71 126.40 153.28 125.41 153.73 C 124.43 154.18 124.00 155.34 124.44 156.32 Z M 124.97 157.44 L 125.52 158.33 C 126.09 159.25 127.30 159.53 128.22 158.96 C 129.14 158.39 129.42 157.18 128.85 156.26 L 128.30 155.37 C 127.73 154.45 126.52 154.17 125.60 154.74 C 124.68 155.32 124.40 156.52 124.97 157.44 Z M 125.64 158.50 L 126.28 159.32 C 126.95 160.17 128.19 160.32 129.04 159.65 C 129.89 158.98 130.04 157.75 129.37 156.90 L 128.73 156.08 C 128.06 155.23 126.82 155.08 125.97 155.75 C 125.12 156.42 124.97 157.65 125.64 158.50 Z M 126.40 159.45 L 127.09 160.19 C 127.83 160.98 129.07 161.02 129.86 160.27 C 130.65 159.53 130.69 158.29 129.95 157.50 L 129.26 156.76 C 128.51 155.97 127.27 155.94 126.48 156.68 C 125.69 157.42 125.65 158.66 126.40 159.45 Z M 127.19 160.29 L 127.89 160.94 C 128.69 161.68 129.93 161.63 130.67 160.83 C 131.40 160.04 131.36 158.80 130.56 158.06 L 129.85 157.40 C 129.06 156.67 127.81 156.72 127.08 157.51 C 126.34 158.31 126.39 159.55 127.19 160.29 Z M 127.98 161.02 L 128.73 161.64 C 129.57 162.32 130.81 162.20 131.50 161.37 C 132.18 160.53 132.06 159.29 131.23 158.60 L 130.48 157.98 C 129.64 157.30 128.40 157.42 127.71 158.25 C 127.02 159.09 127.14 160.33 127.98 161.02 Z M 128.83 161.71 L 129.71 162.35 C 130.59 162.98 131.81 162.79 132.45 161.91 C 133.09 161.03 132.89 159.80 132.01 159.16 L 131.13 158.53 C 130.25 157.89 129.02 158.09 128.39 158.97 C 127.75 159.84 127.95 161.07 128.83 161.71 Z M 129.83 162.43 L 130.66 162.94 C 131.58 163.51 132.79 163.23 133.36 162.30 C 133.93 161.38 133.65 160.17 132.72 159.60 L 131.89 159.08 C 130.97 158.51 129.76 158.80 129.19 159.72 C 128.62 160.65 128.90 161.86 129.83 162.43 Z M 130.78 163.01 L 131.59 163.44 C 132.55 163.95 133.74 163.58 134.25 162.61 C 134.75 161.65 134.38 160.46 133.42 159.96 L 132.61 159.53 C 131.64 159.02 130.45 159.39 129.95 160.35 C 129.44 161.32 129.81 162.51 130.78 163.01 Z M 131.69 163.49 L 132.56 163.89 C 133.55 164.34 134.71 163.91 135.17 162.92 C 135.62 161.93 135.19 160.76 134.20 160.31 L 133.33 159.91 C 132.34 159.46 131.17 159.89 130.72 160.88 C 130.26 161.87 130.70 163.04 131.69 163.49 Z M 132.63 163.92 L 133.56 164.30 C 134.56 164.71 135.71 164.22 136.12 163.22 C 136.53 162.21 136.05 161.06 135.04 160.65 L 134.12 160.27 C 133.11 159.86 131.96 160.35 131.55 161.35 C 131.14 162.36 131.63 163.51 132.63 163.92 Z M 133.62 164.32 L 134.57 164.67 C 135.59 165.04 136.72 164.52 137.09 163.50 C 137.47 162.47 136.94 161.34 135.92 160.97 L 134.98 160.62 C 133.95 160.25 132.82 160.77 132.45 161.80 C 132.07 162.82 132.60 163.95 133.62 164.32 Z M 134.62 164.69 L 135.57 165.01 C 136.61 165.35 137.72 164.79 138.07 163.76 C 138.41 162.73 137.85 161.61 136.82 161.27 L 135.87 160.95 C 134.83 160.60 133.72 161.16 133.37 162.20 C 133.03 163.23 133.59 164.35 134.62 164.69 Z M 135.62 165.03 L 136.57 165.31 C 137.61 165.63 138.72 165.04 139.03 164.00 C 139.35 162.96 138.76 161.85 137.72 161.54 L 136.77 161.25 C 135.73 160.93 134.63 161.52 134.31 162.56 C 133.99 163.60 134.58 164.71 135.62 165.03 Z M 136.62 165.33 L 137.58 165.60 C 138.63 165.89 139.72 165.27 140.01 164.22 C 140.30 163.17 139.69 162.08 138.64 161.79 L 137.67 161.52 C 136.62 161.23 135.53 161.85 135.24 162.90 C 134.95 163.95 135.57 165.04 136.62 165.33 Z M 137.63 165.61 L 138.61 165.86 C 139.67 166.12 140.74 165.48 141.01 164.41 C 141.27 163.35 140.63 162.28 139.57 162.02 L 138.59 161.77 C 137.53 161.51 136.45 162.15 136.19 163.21 C 135.92 164.27 136.57 165.35 137.63 165.61 Z M 138.66 165.87 L 139.65 166.09 C 140.72 166.33 141.78 165.65 142.01 164.58 C 142.25 163.52 141.58 162.46 140.51 162.22 L 139.52 162.00 C 138.45 161.77 137.39 162.44 137.15 163.51 C 136.92 164.58 137.59 165.63 138.66 165.87 Z M 139.70 166.10 L 140.70 166.30 C 141.77 166.50 142.81 165.80 143.02 164.73 C 143.23 163.65 142.53 162.61 141.45 162.40 L 140.46 162.21 C 139.38 162.00 138.34 162.70 138.13 163.78 C 137.92 164.86 138.63 165.90 139.70 166.10 Z M 140.76 166.31 L 141.74 166.47 C 142.82 166.64 143.84 165.91 144.02 164.83 C 144.19 163.74 143.46 162.72 142.38 162.55 L 141.39 162.39 C 140.31 162.21 139.29 162.95 139.12 164.03 C 138.94 165.11 139.67 166.13 140.76 166.31 Z M 141.81 166.48 L 142.75 166.60 C 143.84 166.74 144.84 165.97 144.97 164.88 C 145.11 163.79 144.34 162.79 143.25 162.66 L 142.31 162.54 C 141.22 162.40 140.22 163.17 140.09 164.26 C 139.95 165.35 140.72 166.34 141.81 166.48 Z M 142.83 166.61 L 143.74 166.69 C 144.84 166.78 145.80 165.97 145.90 164.88 C 145.99 163.78 145.18 162.82 144.08 162.72 L 143.17 162.64 C 142.08 162.55 141.11 163.36 141.02 164.46 C 140.92 165.55 141.74 166.52 142.83 166.61 Z M 143.82 166.70 L 144.79 166.74 C 145.89 166.79 146.82 165.94 146.87 164.84 C 146.92 163.74 146.07 162.81 144.97 162.76 L 144.01 162.71 C 142.91 162.66 141.97 163.51 141.92 164.61 C 141.87 165.71 142.72 166.65 143.82 166.70 Z M 144.85 166.75 L 145.94 166.76 C 147.04 166.78 147.95 165.90 147.97 164.80 C 147.98 163.70 147.10 162.79 146.00 162.77 L 144.91 162.76 C 143.81 162.74 142.90 163.62 142.88 164.72 C 142.87 165.82 143.75 166.73 144.85 166.75 Z M 145.98 166.77 L 146.93 166.77 C 148.03 166.76 148.93 165.87 148.92 164.76 C 148.92 163.66 148.02 162.76 146.92 162.77 L 145.97 162.77 C 144.86 162.77 143.97 163.67 143.97 164.77 C 143.97 165.88 144.87 166.77 145.98 166.77 Z M 146.97 166.77 L 147.90 166.75 C 149.01 166.72 149.88 165.81 149.86 164.70 C 149.84 163.60 148.92 162.72 147.82 162.74 L 146.88 162.76 C 145.78 162.79 144.90 163.70 144.92 164.81 C 144.95 165.91 145.86 166.79 146.97 166.77 Z M 147.95 166.75 L 148.95 166.70 C 150.06 166.65 150.91 165.71 150.86 164.60 C 150.81 163.50 149.87 162.64 148.76 162.70 L 147.76 162.74 C 146.66 162.80 145.80 163.74 145.86 164.84 C 145.91 165.95 146.85 166.80 147.95 166.75 Z M 149.02 166.70 L 150.06 166.62 C 151.17 166.53 151.99 165.56 151.90 164.45 C 151.81 163.35 150.84 162.52 149.73 162.61 L 148.69 162.70 C 147.59 162.79 146.76 163.76 146.86 164.86 C 146.95 165.97 147.91 166.79 149.02 166.70 Z M 150.15 166.61 L 151.21 166.48 C 152.31 166.34 153.09 165.33 152.96 164.23 C 152.82 163.13 151.81 162.35 150.71 162.49 L 149.65 162.62 C 148.54 162.76 147.76 163.76 147.90 164.86 C 148.04 165.97 149.05 166.75 150.15 166.61 Z M 151.32 166.46 L 152.37 166.27 C 153.47 166.08 154.20 165.03 154.00 163.93 C 153.80 162.84 152.75 162.11 151.66 162.31 L 150.60 162.50 C 149.51 162.70 148.78 163.74 148.98 164.84 C 149.17 165.93 150.22 166.66 151.32 166.46 Z M 152.48 166.25 L 153.51 166.01 C 154.59 165.75 155.26 164.67 155.01 163.58 C 154.75 162.50 153.66 161.83 152.58 162.09 L 151.55 162.33 C 150.47 162.59 149.80 163.67 150.05 164.76 C 150.31 165.84 151.40 166.51 152.48 166.25 Z M 153.60 165.99 L 154.60 165.70 C 155.67 165.39 156.29 164.28 155.99 163.21 C 155.68 162.13 154.56 161.51 153.49 161.82 L 152.49 162.11 C 151.42 162.41 150.80 163.53 151.10 164.60 C 151.41 165.67 152.53 166.29 153.60 165.99 Z M 154.68 165.68 L 155.64 165.37 C 156.70 165.02 157.28 163.88 156.93 162.82 C 156.58 161.76 155.44 161.18 154.38 161.53 L 153.42 161.84 C 152.36 162.19 151.78 163.33 152.13 164.39 C 152.47 165.45 153.62 166.03 154.68 165.68 Z M 155.70 165.35 L 156.61 165.02 C 157.66 164.63 158.20 163.47 157.82 162.42 C 157.43 161.37 156.27 160.83 155.22 161.21 L 154.32 161.54 C 153.27 161.93 152.73 163.09 153.11 164.14 C 153.49 165.19 154.65 165.73 155.70 165.35 Z M 156.66 165.00 L 157.50 164.67 C 158.54 164.26 159.05 163.08 158.64 162.04 C 158.23 161.00 157.06 160.49 156.02 160.90 L 155.17 161.23 C 154.13 161.64 153.62 162.82 154.03 163.86 C 154.44 164.90 155.62 165.41 156.66 165.00 Z M 157.55 164.65 L 158.60 164.20 C 159.63 163.77 160.11 162.58 159.67 161.55 C 159.23 160.52 158.04 160.04 157.01 160.47 L 155.97 160.92 C 154.94 161.36 154.46 162.55 154.89 163.58 C 155.33 164.61 156.52 165.09 157.55 164.65 Z M 158.66 164.18 L 159.60 163.74 C 160.61 163.26 161.05 162.06 160.57 161.04 C 160.10 160.03 158.89 159.59 157.88 160.07 L 156.94 160.50 C 155.93 160.98 155.49 162.18 155.97 163.20 C 156.44 164.21 157.65 164.65 158.66 164.18 Z M 159.67 163.70 L 160.50 163.27 C 161.50 162.75 161.89 161.53 161.37 160.53 C 160.85 159.54 159.63 159.15 158.63 159.67 L 157.80 160.10 C 156.81 160.62 156.42 161.84 156.94 162.84 C 157.45 163.83 158.68 164.22 159.67 163.70 Z M 160.59 163.23 L 161.36 162.78 C 162.33 162.22 162.66 160.97 162.10 160.00 C 161.53 159.03 160.29 158.70 159.32 159.27 L 158.55 159.71 C 157.58 160.27 157.25 161.52 157.81 162.49 C 158.37 163.46 159.62 163.79 160.59 163.23 Z M 161.44 162.73 L 162.30 162.17 C 163.24 161.57 163.51 160.31 162.91 159.37 C 162.30 158.42 161.04 158.15 160.10 158.76 L 159.24 159.31 C 158.30 159.92 158.02 161.18 158.63 162.12 C 159.24 163.07 160.50 163.34 161.44 162.73 Z M 162.38 162.13 L 163.19 161.55 C 164.10 160.90 164.32 159.63 163.67 158.71 C 163.02 157.80 161.75 157.58 160.83 158.23 L 160.02 158.81 C 159.11 159.46 158.89 160.73 159.54 161.64 C 160.19 162.56 161.46 162.78 162.38 162.13 Z M 163.24 161.51 L 164.02 160.92 C 164.92 160.24 165.09 158.96 164.41 158.07 C 163.73 157.17 162.45 157.00 161.56 157.68 L 160.78 158.27 C 159.88 158.95 159.71 160.23 160.39 161.12 C 161.07 162.02 162.35 162.19 163.24 161.51 Z M 164.06 160.89 L 164.84 160.27 C 165.72 159.57 165.86 158.29 165.16 157.41 C 164.46 156.53 163.18 156.38 162.30 157.08 L 161.52 157.70 C 160.64 158.40 160.50 159.69 161.20 160.57 C 161.90 161.45 163.18 161.59 164.06 160.89 Z M 164.87 160.25 L 165.64 159.62 C 166.51 158.90 166.63 157.62 165.91 156.75 C 165.20 155.88 163.91 155.75 163.04 156.47 L 162.27 157.10 C 161.40 157.82 161.28 159.10 162.00 159.97 C 162.71 160.84 164.00 160.97 164.87 160.25 Z M 165.66 159.60 L 166.42 158.95 C 167.28 158.22 167.39 156.94 166.66 156.08 C 165.93 155.22 164.65 155.11 163.79 155.84 L 163.02 156.49 C 162.16 157.21 162.05 158.50 162.78 159.36 C 163.51 160.22 164.80 160.33 165.66 159.60 Z M 166.44 158.94 L 167.20 158.28 C 168.05 157.54 168.15 156.25 167.41 155.40 C 166.67 154.55 165.38 154.46 164.52 155.20 L 163.77 155.85 C 162.91 156.59 162.82 157.88 163.56 158.73 C 164.30 159.59 165.59 159.68 166.44 158.94 Z M 167.22 158.27 L 167.97 157.60 C 168.81 156.85 168.89 155.55 168.14 154.71 C 167.38 153.87 166.09 153.79 165.25 154.55 L 164.50 155.21 C 163.66 155.97 163.58 157.26 164.34 158.10 C 165.09 158.94 166.38 159.02 167.22 158.27 Z M 168.00 157.57 L 168.74 156.89 C 169.57 156.12 169.61 154.83 168.84 154.00 C 168.07 153.17 166.78 153.12 165.95 153.89 L 165.22 154.57 C 164.39 155.34 164.34 156.64 165.11 157.47 C 165.88 158.30 167.17 158.34 168.00 157.57 Z M 168.78 156.86 L 169.50 156.16 C 170.30 155.36 170.32 154.06 169.53 153.26 C 168.74 152.45 167.44 152.43 166.63 153.22 L 165.91 153.93 C 165.10 154.72 165.08 156.02 165.88 156.83 C 166.67 157.64 167.97 157.65 168.78 156.86 Z M 169.54 156.11 L 170.24 155.39 C 171.02 154.58 171.00 153.28 170.18 152.49 C 169.37 151.70 168.07 151.73 167.28 152.54 L 166.58 153.26 C 165.80 154.08 165.82 155.38 166.64 156.17 C 167.45 156.95 168.75 156.93 169.54 156.11 Z M 170.28 155.35 L 170.95 154.61 C 171.71 153.77 171.65 152.47 170.81 151.71 C 169.97 150.95 168.67 151.01 167.91 151.85 L 167.24 152.58 C 166.47 153.42 166.54 154.72 167.38 155.49 C 168.22 156.25 169.52 156.19 170.28 155.35 Z M 170.99 154.57 L 171.64 153.81 C 172.38 152.95 172.28 151.65 171.41 150.91 C 170.55 150.17 169.25 150.27 168.51 151.14 L 167.86 151.89 C 167.12 152.76 167.23 154.06 168.09 154.79 C 168.95 155.53 170.25 155.43 170.99 154.57 Z M 171.68 153.77 L 172.30 153.00 C 173.02 152.11 172.88 150.81 172.00 150.10 C 171.11 149.38 169.82 149.52 169.10 150.40 L 168.47 151.18 C 167.76 152.06 167.89 153.36 168.78 154.08 C 169.66 154.79 170.96 154.66 171.68 153.77 Z M 172.33 152.97 L 172.94 152.18 C 173.64 151.28 173.48 149.98 172.58 149.28 C 171.68 148.58 170.39 148.75 169.69 149.64 L 169.07 150.43 C 168.37 151.33 168.54 152.63 169.44 153.33 C 170.34 154.03 171.63 153.86 172.33 152.97 Z M 172.96 152.16 L 173.54 151.39 C 174.23 150.48 174.05 149.18 173.14 148.49 C 172.23 147.81 170.94 147.99 170.25 148.90 L 169.67 149.66 C 168.98 150.57 169.16 151.87 170.07 152.56 C 170.98 153.25 172.27 153.07 172.96 152.16 Z M 173.58 151.34 L 174.13 150.57 C 174.79 149.65 174.58 148.36 173.65 147.69 C 172.72 147.03 171.43 147.24 170.77 148.17 L 170.22 148.94 C 169.55 149.87 169.77 151.16 170.69 151.82 C 171.62 152.49 172.91 152.27 173.58 151.34 Z M 174.19 150.48 L 174.73 149.63 C 175.35 148.67 175.06 147.39 174.10 146.78 C 173.13 146.16 171.85 146.45 171.24 147.41 L 170.70 148.26 C 170.09 149.23 170.37 150.50 171.34 151.12 C 172.30 151.73 173.58 151.45 174.19 150.48 Z M 174.81 149.50 L 175.32 148.56 C 175.86 147.55 175.48 146.30 174.47 145.76 C 173.46 145.21 172.21 145.59 171.67 146.60 L 171.16 147.54 C 170.62 148.55 171.00 149.81 172.01 150.35 C 173.02 150.89 174.27 150.51 174.81 149.50 Z M 175.38 148.43 L 175.77 147.57 C 176.24 146.53 175.78 145.30 174.73 144.83 C 173.69 144.36 172.46 144.82 171.99 145.87 L 171.60 146.73 C 171.13 147.77 171.60 149.00 172.64 149.47 C 173.69 149.94 174.91 149.48 175.38 148.43 Z M 175.82 147.46 L 176.18 146.53 C 176.59 145.46 176.05 144.26 174.98 143.85 C 173.91 143.44 172.71 143.97 172.30 145.04 L 171.94 145.97 C 171.53 147.04 172.07 148.24 173.14 148.66 C 174.21 149.07 175.41 148.53 175.82 147.46 Z M 176.22 146.42 L 176.53 145.44 C 176.88 144.35 176.28 143.18 175.19 142.83 C 174.10 142.47 172.93 143.08 172.58 144.17 L 172.26 145.15 C 171.91 146.24 172.51 147.41 173.60 147.76 C 174.70 148.11 175.87 147.51 176.22 146.42 Z M 176.57 145.32 L 176.83 144.32 C 177.12 143.21 176.45 142.07 175.33 141.79 C 174.22 141.50 173.09 142.17 172.80 143.28 L 172.54 144.28 C 172.25 145.40 172.92 146.53 174.04 146.82 C 175.15 147.11 176.28 146.44 176.57 145.32 Z M 176.86 144.19 L 177.05 143.20 C 177.26 142.07 176.52 140.98 175.39 140.76 C 174.26 140.55 173.17 141.29 172.96 142.42 L 172.77 143.41 C 172.55 144.54 173.29 145.63 174.42 145.85 C 175.55 146.06 176.64 145.32 176.86 144.19 Z M 177.07 143.07 L 177.19 142.08 C 177.34 140.94 176.53 139.89 175.39 139.75 C 174.24 139.61 173.20 140.42 173.06 141.56 L 172.93 142.55 C 172.79 143.69 173.60 144.73 174.74 144.88 C 175.89 145.02 176.93 144.21 177.07 143.07 Z M 177.21 141.96 L 177.27 140.97 C 177.35 139.82 176.48 138.82 175.33 138.75 C 174.18 138.67 173.19 139.54 173.11 140.69 L 173.05 141.68 C 172.97 142.83 173.84 143.82 174.99 143.90 C 176.14 143.98 177.13 143.11 177.21 141.96 Z M 177.28 140.86 L 177.29 139.86 C 177.31 138.71 176.39 137.76 175.23 137.74 C 174.08 137.73 173.13 138.65 173.12 139.80 L 173.11 140.80 C 173.09 141.95 174.01 142.90 175.16 142.92 C 176.32 142.93 177.26 142.01 177.28 140.86 Z M 177.29 139.76 L 177.26 138.76 C 177.22 137.61 176.26 136.71 175.11 136.74 C 173.95 136.78 173.05 137.74 173.09 138.90 L 173.12 139.90 C 173.16 141.05 174.12 141.95 175.27 141.92 C 176.43 141.88 177.33 140.92 177.29 139.76 Z M 177.25 138.65 L 177.17 137.66 C 177.07 136.51 176.06 135.65 174.91 135.75 C 173.77 135.85 172.91 136.86 173.01 138.01 L 173.09 139.00 C 173.19 140.15 174.20 141.01 175.35 140.91 C 176.50 140.81 177.35 139.80 177.25 138.65 Z M 177.15 137.51 L 177.00 136.52 C 176.82 135.38 175.76 134.60 174.62 134.78 C 173.48 134.95 172.69 136.02 172.87 137.16 L 173.02 138.15 C 173.20 139.29 174.27 140.07 175.41 139.90 C 176.55 139.72 177.33 138.65 177.15 137.51 Z M 176.96 136.33 L 176.72 135.37 C 176.44 134.25 175.31 133.57 174.19 133.85 C 173.07 134.12 172.39 135.26 172.67 136.38 L 172.91 137.35 C 173.19 138.47 174.32 139.15 175.44 138.87 C 176.56 138.59 177.24 137.45 176.96 136.33 Z M 176.65 135.14 L 176.30 134.21 C 175.90 133.13 174.70 132.58 173.62 132.99 C 172.54 133.39 171.99 134.59 172.39 135.68 L 172.74 136.60 C 173.14 137.68 174.34 138.23 175.43 137.83 C 176.51 137.43 177.06 136.22 176.65 135.14 Z M 176.20 133.98 L 175.76 133.12 C 175.22 132.10 173.96 131.70 172.94 132.24 C 171.91 132.77 171.52 134.03 172.05 135.05 L 172.49 135.91 C 173.03 136.93 174.29 137.33 175.31 136.80 C 176.34 136.26 176.73 135.00 176.20 133.98 Z M 175.64 132.94 L 175.10 132.12 C 174.47 131.16 173.17 130.89 172.21 131.53 C 171.25 132.16 170.98 133.46 171.62 134.42 L 172.16 135.24 C 172.80 136.20 174.09 136.47 175.05 135.83 C 176.02 135.20 176.28 133.90 175.64 132.94 Z M 175.00 131.98 L 174.38 131.19 C 173.66 130.28 172.35 130.13 171.44 130.84 C 170.54 131.56 170.38 132.87 171.10 133.78 L 171.72 134.56 C 172.44 135.47 173.75 135.63 174.65 134.91 C 175.56 134.20 175.72 132.88 175.00 131.98 Z M 174.29 131.08 L 173.60 130.32 C 172.83 129.46 171.51 129.39 170.65 130.16 C 169.79 130.93 169.72 132.25 170.49 133.11 L 171.18 133.88 C 171.95 134.74 173.28 134.81 174.13 134.04 C 174.99 133.26 175.06 131.94 174.29 131.08 Z M 173.54 130.25 L 172.83 129.53 C 172.03 128.71 170.70 128.70 169.88 129.51 C 169.06 130.32 169.05 131.64 169.86 132.46 L 170.56 133.18 C 171.37 134.00 172.69 134.01 173.51 133.20 C 174.34 132.39 174.35 131.07 173.54 130.25 Z M 172.78 129.48 L 172.07 128.81 C 171.23 128.01 169.91 128.05 169.12 128.89 C 168.32 129.72 168.36 131.04 169.20 131.84 L 169.91 132.51 C 170.75 133.31 172.07 133.27 172.86 132.43 C 173.65 131.60 173.62 130.28 172.78 129.48 Z M 172.02 128.76 L 171.27 128.10 C 170.41 127.34 169.09 127.41 168.33 128.27 C 167.56 129.14 167.64 130.45 168.50 131.22 L 169.25 131.88 C 170.11 132.65 171.43 132.57 172.19 131.71 C 172.96 130.85 172.88 129.53 172.02 128.76 Z M 171.22 128.06 L 170.45 127.41 C 169.56 126.68 168.25 126.79 167.51 127.68 C 166.77 128.56 166.89 129.88 167.78 130.61 L 168.55 131.26 C 169.43 132.00 170.75 131.88 171.49 131.00 C 172.22 130.11 172.10 128.80 171.22 128.06 Z M 170.40 127.37 L 169.60 126.75 C 168.69 126.04 167.38 126.19 166.67 127.10 C 165.96 128.00 166.12 129.31 167.02 130.02 L 167.83 130.65 C 168.73 131.36 170.04 131.20 170.75 130.30 C 171.46 129.39 171.30 128.09 170.40 127.37 Z M 169.55 126.71 L 168.73 126.11 C 167.80 125.42 166.50 125.62 165.82 126.54 C 165.13 127.47 165.33 128.77 166.25 129.45 L 167.07 130.06 C 168.00 130.74 169.30 130.54 169.98 129.62 C 170.67 128.70 170.47 127.39 169.55 126.71 Z M 168.67 126.08 L 167.84 125.49 C 166.90 124.84 165.60 125.07 164.95 126.01 C 164.30 126.95 164.53 128.25 165.47 128.90 L 166.31 129.48 C 167.25 130.14 168.54 129.91 169.19 128.96 C 169.85 128.02 169.62 126.73 168.67 126.08 Z M 167.79 125.47 L 166.94 124.91 C 165.98 124.29 164.70 124.56 164.07 125.51 C 163.45 126.47 163.72 127.75 164.68 128.38 L 165.52 128.93 C 166.48 129.56 167.76 129.29 168.39 128.33 C 169.01 127.37 168.74 126.09 167.79 125.47 Z M 166.89 124.88 L 166.03 124.36 C 165.06 123.77 163.79 124.07 163.20 125.04 C 162.60 126.02 162.91 127.29 163.88 127.88 L 164.73 128.41 C 165.70 129.00 166.97 128.70 167.57 127.72 C 168.16 126.75 167.86 125.48 166.89 124.88 Z M 165.98 124.33 L 165.13 123.85 C 164.14 123.29 162.88 123.63 162.32 124.62 C 161.75 125.60 162.10 126.86 163.08 127.43 L 163.93 127.91 C 164.92 128.48 166.18 128.13 166.74 127.15 C 167.31 126.16 166.97 124.90 165.98 124.33 Z M 165.06 123.82 L 164.19 123.36 C 163.19 122.83 161.95 123.22 161.42 124.22 C 160.89 125.22 161.27 126.46 162.28 126.99 L 163.15 127.45 C 164.15 127.98 165.39 127.60 165.92 126.60 C 166.45 125.59 166.07 124.35 165.06 123.82 Z M 164.12 123.34 L 163.23 122.91 C 162.21 122.42 160.99 122.85 160.50 123.86 C 160.01 124.88 160.44 126.10 161.45 126.59 L 162.35 127.02 C 163.36 127.51 164.58 127.08 165.07 126.06 C 165.56 125.05 165.14 123.83 164.12 123.34 Z M 163.15 122.89 L 162.25 122.49 C 161.22 122.05 160.03 122.52 159.58 123.55 C 159.13 124.57 159.60 125.77 160.63 126.21 L 161.53 126.61 C 162.56 127.05 163.75 126.58 164.20 125.56 C 164.65 124.53 164.18 123.33 163.15 122.89 Z M 162.17 122.48 L 161.24 122.12 C 160.21 121.71 159.04 122.22 158.64 123.26 C 158.23 124.30 158.74 125.47 159.78 125.87 L 160.71 126.23 C 161.74 126.64 162.91 126.12 163.32 125.09 C 163.72 124.05 163.21 122.88 162.17 122.48 Z M 161.17 122.10 L 160.21 121.77 C 159.16 121.40 158.02 121.95 157.66 123.00 C 157.30 124.04 157.85 125.18 158.89 125.55 L 159.85 125.88 C 160.90 126.25 162.04 125.70 162.40 124.65 C 162.77 123.61 162.22 122.47 161.17 122.10 Z M 160.14 121.76 L 159.19 121.47 C 158.15 121.14 157.03 121.72 156.70 122.77 C 156.38 123.81 156.96 124.93 158.00 125.25 L 158.96 125.55 C 160.00 125.88 161.12 125.30 161.44 124.25 C 161.77 123.21 161.19 122.09 160.14 121.76 Z M 159.13 121.47 L 158.16 121.20 C 157.12 120.90 156.03 121.51 155.74 122.55 C 155.44 123.59 156.05 124.68 157.09 124.97 L 158.06 125.25 C 159.11 125.54 160.19 124.94 160.49 123.89 C 160.78 122.85 160.17 121.77 159.13 121.47 Z M 158.10 121.20 L 157.11 120.95 C 156.08 120.69 155.02 121.32 154.76 122.36 C 154.50 123.40 155.12 124.45 156.16 124.71 L 157.15 124.96 C 158.19 125.23 159.24 124.60 159.51 123.56 C 159.77 122.52 159.14 121.47 158.10 121.20 Z M 157.06 120.96 L 156.07 120.74 C 155.04 120.51 154.02 121.16 153.78 122.20 C 153.55 123.23 154.20 124.25 155.24 124.48 L 156.22 124.70 C 157.25 124.94 158.28 124.29 158.51 123.25 C 158.74 122.22 158.09 121.20 157.06 120.96 Z M 156.01 120.76 L 155.05 120.57 C 154.02 120.37 153.03 121.05 152.83 122.07 C 152.63 123.10 153.31 124.09 154.33 124.29 L 155.30 124.47 C 156.32 124.67 157.32 124.00 157.51 122.97 C 157.71 121.95 157.04 120.95 156.01 120.76 Z M 154.98 120.59 L 153.95 120.43 C 152.93 120.28 151.98 120.97 151.82 121.98 C 151.67 123.00 152.36 123.95 153.38 124.11 L 154.40 124.27 C 155.42 124.42 156.37 123.73 156.53 122.72 C 156.68 121.70 155.99 120.75 154.98 120.59 Z M 153.87 120.47 L 152.86 120.35 C 151.87 120.23 150.97 120.94 150.85 121.93 C 150.73 122.93 151.44 123.83 152.43 123.94 L 153.45 124.07 C 154.44 124.18 155.34 123.48 155.46 122.48 C 155.58 121.49 154.87 120.59 153.87 120.47 Z M 152.80 120.40 L 151.82 120.31 C 150.85 120.22 150.00 120.94 149.91 121.90 C 149.83 122.87 150.54 123.72 151.50 123.81 L 152.49 123.90 C 153.45 123.98 154.31 123.27 154.39 122.31 C 154.48 121.34 153.77 120.49 152.80 120.40 Z M 151.78 120.36 L 150.82 120.29 C 149.88 120.23 149.07 120.93 149.00 121.87 C 148.93 122.81 149.64 123.62 150.58 123.69 L 151.54 123.76 C 152.48 123.83 153.29 123.12 153.36 122.18 C 153.43 121.24 152.72 120.43 151.78 120.36 Z M 150.80 120.34 L 150.17 120.30 C 149.25 120.24 148.46 120.93 148.40 121.85 C 148.35 122.76 149.04 123.55 149.96 123.61 L 150.59 123.65 C 151.51 123.70 152.30 123.01 152.35 122.10 C 152.41 121.18 151.72 120.39 150.80 120.34 Z"
      fill="black"
      fill-rule="nonzero" /></svg>