<svg xmlns="http://www.w3.org/2000/svg" width="300" height="300" viewBox="0 0 300 300">
<path d="M 146.66 140.39 L 146.07 139.56 C 145.51 138.78 144.43 138.61 143.65 139.16 C 142.87 139.72 142.69 140.80 143.25 141.58 L 143.84 142.40 C 144.40 143.18 145.48 143.36 146.26 142.80 C 147.04 142.25 147.21 141.16 146.66 140.39 Z M 146.07 139.54 L 145.47 138.72 C 144.90 137.94 143.80 137.78 143.02 138.35 C 142.25 138.92 142.08 140.01 142.65 140.79 L 143.25 141.61 C 143.82 142.38 144.92 142.55 145.69 141.98 C 146.47 141.41 146.64 140.31 146.07 139.54 Z M 145.46 138.68 L 144.84 137.88 C 144.25 137.11 143.14 136.97 142.37 137.56 C 141.59 138.16 141.45 139.27 142.05 140.04 L 142.66 140.84 C 143.26 141.61 144.37 141.75 145.14 141.15 C 145.91 140.56 146.05 139.45 145.46 138.68 Z M 144.81 137.82 L 144.18 137.06 C 143.55 136.30 142.42 136.20 141.67 136.83 C 140.91 137.46 140.81 138.58 141.44 139.34 L 142.08 140.10 C 142.71 140.86 143.83 140.96 144.59 140.33 C 145.34 139.70 145.44 138.58 144.81 137.82 Z M 144.13 136.98 L 143.46 136.25 C 142.79 135.52 141.65 135.48 140.92 136.15 C 140.19 136.82 140.14 137.96 140.82 138.69 L 141.48 139.41 C 142.16 140.15 143.30 140.19 144.03 139.52 C 144.76 138.85 144.80 137.71 144.13 136.98 Z M 143.39 136.16 L 142.60 135.41 C 141.87 134.72 140.73 134.75 140.04 135.47 C 139.35 136.20 139.38 137.35 140.10 138.04 L 140.89 138.79 C 141.62 139.48 142.77 139.45 143.46 138.72 C 144.15 137.99 144.12 136.85 143.39 136.16 Z M 142.48 135.28 L 141.52 134.54 C 140.73 133.92 139.58 134.06 138.96 134.86 C 138.34 135.65 138.48 136.80 139.28 137.42 L 140.23 138.16 C 141.02 138.78 142.17 138.64 142.79 137.85 C 143.41 137.05 143.27 135.90 142.48 135.28 Z M 141.30 134.38 L 140.38 133.86 C 139.50 133.36 138.38 133.67 137.88 134.55 C 137.38 135.44 137.69 136.56 138.58 137.05 L 139.50 137.58 C 140.38 138.08 141.50 137.77 142.00 136.88 C 142.50 136.00 142.19 134.88 141.30 134.38 Z M 139.94 133.67 L 139.12 133.46 C 138.13 133.21 137.12 133.80 136.87 134.79 C 136.62 135.77 137.21 136.78 138.20 137.03 L 139.02 137.24 C 140.01 137.50 141.01 136.90 141.26 135.92 C 141.52 134.93 140.92 133.93 139.94 133.67 Z M 138.15 133.47 L 137.50 133.65 C 136.52 133.93 135.95 134.96 136.23 135.94 C 136.51 136.93 137.54 137.49 138.52 137.21 L 139.17 137.03 C 140.15 136.74 140.72 135.72 140.44 134.74 C 140.15 133.75 139.13 133.19 138.15 133.47 Z M 136.52 134.33 L 136.13 134.85 C 135.52 135.68 135.70 136.84 136.53 137.45 C 137.35 138.06 138.51 137.88 139.12 137.06 L 139.50 136.53 C 140.11 135.71 139.94 134.55 139.11 133.94 C 138.29 133.33 137.13 133.51 136.52 134.33 Z M 135.84 135.46 L 135.61 136.27 C 135.34 137.26 135.92 138.28 136.90 138.55 C 137.89 138.83 138.91 138.25 139.19 137.26 L 139.41 136.45 C 139.69 135.46 139.11 134.44 138.12 134.17 C 137.14 133.89 136.11 134.47 135.84 135.46 Z M 135.55 136.62 L 135.47 137.65 C 135.39 138.68 136.16 139.57 137.18 139.65 C 138.20 139.72 139.09 138.96 139.17 137.94 L 139.25 136.91 C 139.33 135.88 138.56 134.99 137.54 134.91 C 136.52 134.84 135.63 135.60 135.55 136.62 Z M 135.47 137.88 L 135.52 139.06 C 135.57 140.09 136.43 140.88 137.46 140.84 C 138.48 140.79 139.27 139.92 139.23 138.90 L 139.18 137.71 C 139.13 136.69 138.26 135.90 137.24 135.94 C 136.21 135.99 135.42 136.85 135.47 137.88 Z M 135.53 139.23 L 135.70 140.48 C 135.84 141.50 136.77 142.21 137.79 142.08 C 138.80 141.94 139.52 141.01 139.38 139.99 L 139.21 138.74 C 139.08 137.72 138.14 137.01 137.13 137.14 C 136.11 137.28 135.40 138.21 135.53 139.23 Z M 135.72 140.60 L 135.91 141.54 C 136.11 142.55 137.09 143.20 138.09 143.00 C 139.10 142.80 139.75 141.82 139.55 140.81 L 139.36 139.87 C 139.16 138.87 138.18 138.22 137.18 138.42 C 136.17 138.62 135.52 139.59 135.72 140.60 Z M 135.93 141.63 L 136.17 142.58 C 136.42 143.57 137.43 144.18 138.42 143.93 C 139.41 143.68 140.02 142.67 139.77 141.68 L 139.53 140.73 C 139.28 139.73 138.27 139.13 137.28 139.38 C 136.28 139.63 135.68 140.63 135.93 141.63 Z M 136.19 142.66 L 136.48 143.61 C 136.77 144.59 137.80 145.15 138.78 144.86 C 139.76 144.56 140.32 143.53 140.03 142.55 L 139.74 141.60 C 139.45 140.62 138.42 140.06 137.44 140.35 C 136.46 140.64 135.90 141.68 136.19 142.66 Z M 136.50 143.68 L 136.83 144.64 C 137.16 145.60 138.22 146.12 139.18 145.79 C 140.15 145.45 140.67 144.40 140.33 143.43 L 140.01 142.48 C 139.67 141.51 138.62 141.00 137.65 141.33 C 136.68 141.66 136.17 142.72 136.50 143.68 Z M 136.85 144.70 L 137.22 145.65 C 137.59 146.60 138.66 147.08 139.61 146.71 C 140.57 146.34 141.04 145.27 140.67 144.32 L 140.31 143.37 C 139.94 142.41 138.87 141.94 137.91 142.31 C 136.96 142.68 136.49 143.75 136.85 144.70 Z M 137.25 145.71 L 137.65 146.65 C 138.05 147.59 139.14 148.03 140.08 147.63 C 141.01 147.22 141.45 146.14 141.05 145.20 L 140.65 144.26 C 140.25 143.32 139.16 142.88 138.22 143.28 C 137.28 143.68 136.84 144.77 137.25 145.71 Z M 137.67 146.71 L 138.11 147.63 C 138.54 148.56 139.64 148.96 140.56 148.53 C 141.49 148.09 141.89 146.99 141.46 146.07 L 141.02 145.14 C 140.59 144.22 139.49 143.82 138.57 144.25 C 137.64 144.68 137.24 145.78 137.67 146.71 Z M 138.13 147.68 L 138.60 148.60 C 139.06 149.51 140.17 149.88 141.08 149.42 C 141.99 148.96 142.35 147.84 141.89 146.94 L 141.43 146.02 C 140.97 145.11 139.86 144.74 138.95 145.20 C 138.04 145.66 137.67 146.77 138.13 147.68 Z M 138.63 148.65 L 139.12 149.55 C 139.61 150.44 140.73 150.77 141.62 150.28 C 142.52 149.79 142.84 148.67 142.35 147.78 L 141.86 146.88 C 141.37 145.99 140.25 145.67 139.36 146.15 C 138.47 146.64 138.14 147.76 138.63 148.65 Z M 139.16 149.60 L 139.67 150.47 C 140.19 151.35 141.31 151.64 142.19 151.12 C 143.06 150.61 143.35 149.48 142.84 148.61 L 142.32 147.73 C 141.81 146.86 140.68 146.57 139.80 147.08 C 138.93 147.60 138.64 148.73 139.16 149.60 Z M 139.71 150.52 L 140.24 151.37 C 140.79 152.22 141.92 152.48 142.77 151.93 C 143.63 151.39 143.88 150.26 143.34 149.40 L 142.80 148.56 C 142.26 147.70 141.13 147.45 140.27 147.99 C 139.42 148.54 139.16 149.67 139.71 150.52 Z M 140.28 151.42 L 140.84 152.23 C 141.41 153.07 142.54 153.28 143.38 152.71 C 144.21 152.15 144.43 151.01 143.86 150.17 L 143.30 149.36 C 142.73 148.52 141.59 148.31 140.76 148.88 C 139.93 149.45 139.71 150.58 140.28 151.42 Z M 140.88 152.28 L 141.45 153.07 C 142.05 153.88 143.19 154.06 144.00 153.46 C 144.81 152.86 144.99 151.72 144.39 150.91 L 143.82 150.12 C 143.22 149.31 142.08 149.14 141.27 149.73 C 140.46 150.33 140.28 151.47 140.88 152.28 Z M 141.49 153.12 L 142.10 153.88 C 142.72 154.67 143.87 154.81 144.66 154.18 C 145.45 153.56 145.58 152.42 144.96 151.63 L 144.35 150.86 C 143.73 150.07 142.58 149.93 141.79 150.56 C 141.01 151.18 140.87 152.33 141.49 153.12 Z M 142.15 153.94 L 142.83 154.72 C 143.48 155.49 144.63 155.57 145.39 154.92 C 146.15 154.27 146.24 153.12 145.58 152.36 L 144.91 151.57 C 144.25 150.81 143.11 150.72 142.34 151.38 C 141.58 152.03 141.50 153.18 142.15 153.94 Z M 142.89 154.79 L 143.59 155.53 C 144.28 156.25 145.43 156.28 146.15 155.59 C 146.88 154.90 146.91 153.75 146.22 153.03 L 145.52 152.29 C 144.83 151.57 143.68 151.54 142.95 152.23 C 142.23 152.92 142.20 154.07 142.89 154.79 Z M 143.67 155.60 L 144.40 156.28 C 145.13 156.96 146.28 156.91 146.96 156.18 C 147.64 155.45 147.59 154.31 146.86 153.63 L 146.13 152.95 C 145.40 152.27 144.26 152.31 143.58 153.05 C 142.90 153.78 142.94 154.92 143.67 155.60 Z M 144.50 156.36 L 145.27 156.97 C 146.04 157.60 147.18 157.48 147.80 156.70 C 148.43 155.92 148.30 154.79 147.53 154.17 L 146.76 153.55 C 145.99 152.92 144.85 153.05 144.23 153.82 C 143.60 154.60 143.73 155.73 144.50 156.36 Z M 145.38 157.06 L 146.19 157.61 C 147.01 158.16 148.13 157.95 148.69 157.13 C 149.25 156.31 149.04 155.19 148.22 154.63 L 147.41 154.08 C 146.59 153.52 145.47 153.74 144.91 154.56 C 144.35 155.38 144.56 156.50 145.38 157.06 Z M 146.33 157.68 L 147.18 158.16 C 148.05 158.65 149.14 158.34 149.62 157.48 C 150.11 156.61 149.80 155.52 148.94 155.04 L 148.08 154.56 C 147.22 154.07 146.13 154.38 145.64 155.24 C 145.16 156.11 145.46 157.20 146.33 157.68 Z M 147.33 158.24 L 148.27 158.66 C 149.17 159.06 150.24 158.65 150.64 157.75 C 151.04 156.84 150.63 155.78 149.73 155.38 L 148.79 154.96 C 147.88 154.56 146.82 154.96 146.42 155.87 C 146.02 156.78 146.42 157.84 147.33 158.24 Z M 148.42 158.72 L 149.40 159.05 C 150.34 159.37 151.36 158.87 151.68 157.92 C 152.00 156.98 151.49 155.96 150.55 155.64 L 149.58 155.31 C 148.63 155.00 147.61 155.50 147.29 156.44 C 146.98 157.38 147.48 158.40 148.42 158.72 Z M 149.56 159.10 L 150.55 159.34 C 151.52 159.57 152.49 158.97 152.72 158.00 C 152.95 157.03 152.35 156.06 151.38 155.83 L 150.39 155.59 C 149.42 155.36 148.45 155.96 148.22 156.93 C 147.99 157.90 148.59 158.87 149.56 159.10 Z M 150.72 159.38 L 151.72 159.51 C 152.71 159.64 153.62 158.95 153.75 157.96 C 153.88 156.97 153.19 156.06 152.20 155.92 L 151.21 155.79 C 150.22 155.66 149.31 156.35 149.18 157.34 C 149.04 158.33 149.74 159.24 150.72 159.38 Z M 151.91 159.53 L 152.88 159.56 C 153.88 159.58 154.71 158.79 154.74 157.79 C 154.77 156.79 153.98 155.96 152.98 155.93 L 152.01 155.90 C 151.01 155.88 150.17 156.67 150.15 157.67 C 150.12 158.67 150.91 159.50 151.91 159.53 Z M 153.10 159.55 L 154.05 159.46 C 155.05 159.37 155.78 158.48 155.69 157.48 C 155.59 156.48 154.70 155.75 153.70 155.84 L 152.76 155.93 C 151.76 156.03 151.02 156.92 151.12 157.92 C 151.21 158.92 152.10 159.65 153.10 159.55 Z M 154.31 159.42 L 155.31 159.18 C 156.29 158.93 156.88 157.95 156.64 156.97 C 156.40 155.99 155.41 155.39 154.43 155.64 L 153.44 155.88 C 152.46 156.13 151.86 157.12 152.11 158.09 C 152.35 159.07 153.34 159.67 154.31 159.42 Z M 155.60 159.08 L 156.51 158.69 C 157.44 158.28 157.86 157.21 157.46 156.28 C 157.06 155.35 155.98 154.93 155.05 155.33 L 154.14 155.73 C 153.22 156.13 152.79 157.21 153.20 158.14 C 153.60 159.06 154.68 159.49 155.60 159.08 Z M 156.80 158.54 L 157.61 158.00 C 158.46 157.44 158.69 156.30 158.13 155.46 C 157.57 154.61 156.43 154.38 155.59 154.94 L 154.77 155.48 C 153.93 156.04 153.69 157.18 154.25 158.02 C 154.81 158.87 155.95 159.10 156.80 158.54 Z M 157.87 157.80 L 158.58 157.13 C 159.32 156.43 159.35 155.26 158.65 154.52 C 157.95 153.79 156.78 153.76 156.04 154.46 L 155.33 155.14 C 154.59 155.84 154.57 157.00 155.27 157.74 C 155.97 158.48 157.13 158.50 157.87 157.80 Z M 158.80 156.89 L 159.39 156.08 C 160.00 155.26 159.83 154.11 159.01 153.50 C 158.19 152.89 157.03 153.07 156.43 153.89 L 155.83 154.69 C 155.22 155.51 155.39 156.67 156.21 157.28 C 157.03 157.88 158.19 157.71 158.80 156.89 Z M 159.55 155.85 L 159.97 155.03 C 160.45 154.13 160.10 153.01 159.20 152.54 C 158.29 152.06 157.17 152.41 156.70 153.31 L 156.27 154.12 C 155.80 155.03 156.14 156.15 157.05 156.62 C 157.95 157.10 159.07 156.75 159.55 155.85 Z M 160.07 154.84 L 160.41 153.95 C 160.77 152.99 160.29 151.92 159.34 151.56 C 158.38 151.19 157.31 151.67 156.95 152.62 L 156.61 153.51 C 156.24 154.47 156.72 155.54 157.67 155.90 C 158.63 156.27 159.70 155.79 160.07 154.84 Z M 160.46 153.78 L 160.73 152.83 C 161.00 151.84 160.43 150.82 159.44 150.55 C 158.45 150.27 157.43 150.85 157.16 151.83 L 156.89 152.79 C 156.62 153.77 157.19 154.80 158.18 155.07 C 159.16 155.35 160.19 154.77 160.46 153.78 Z M 160.76 152.70 L 160.96 151.70 C 161.17 150.69 160.52 149.71 159.51 149.51 C 158.51 149.31 157.53 149.96 157.33 150.96 L 157.12 151.96 C 156.92 152.97 157.57 153.95 158.57 154.15 C 159.58 154.35 160.56 153.70 160.76 152.70 Z M 160.98 151.59 L 161.13 150.55 C 161.28 149.54 160.58 148.60 159.56 148.45 C 158.55 148.30 157.60 149.01 157.46 150.02 L 157.31 151.06 C 157.16 152.08 157.86 153.02 158.88 153.17 C 159.89 153.31 160.84 152.61 160.98 151.59 Z M 161.14 150.48 L 161.25 149.42 C 161.36 148.40 160.61 147.49 159.59 147.38 C 158.57 147.28 157.66 148.02 157.55 149.04 L 157.45 150.10 C 157.34 151.12 158.08 152.03 159.11 152.14 C 160.13 152.24 161.04 151.50 161.14 150.48 Z M 161.26 149.36 L 161.33 148.37 C 161.40 147.34 160.63 146.45 159.60 146.38 C 158.58 146.31 157.69 147.08 157.62 148.11 L 157.55 149.10 C 157.48 150.13 158.25 151.02 159.27 151.09 C 160.30 151.16 161.19 150.39 161.26 149.36 Z M 161.33 148.30 L 161.37 147.30 C 161.40 146.27 160.60 145.41 159.57 145.38 C 158.54 145.34 157.68 146.15 157.65 147.17 L 157.61 148.17 C 157.58 149.20 158.38 150.06 159.41 150.10 C 160.44 150.13 161.30 149.33 161.33 148.30 Z M 161.37 147.22 L 161.36 146.22 C 161.35 145.19 160.51 144.37 159.48 144.38 C 158.45 144.39 157.63 145.23 157.64 146.26 L 157.65 147.26 C 157.66 148.28 158.50 149.11 159.53 149.10 C 160.55 149.09 161.38 148.25 161.37 147.22 Z M 161.35 146.12 L 161.29 145.13 C 161.23 144.10 160.35 143.32 159.32 143.39 C 158.30 143.45 157.52 144.33 157.58 145.36 L 157.64 146.35 C 157.70 147.38 158.59 148.16 159.61 148.10 C 160.64 148.03 161.42 147.15 161.35 146.12 Z M 161.28 145.02 L 161.16 144.03 C 161.04 143.01 160.11 142.28 159.09 142.40 C 158.07 142.53 157.34 143.46 157.47 144.48 L 157.59 145.47 C 157.71 146.49 158.64 147.21 159.66 147.09 C 160.68 146.96 161.41 146.04 161.28 145.02 Z M 161.14 143.90 L 160.96 142.92 C 160.76 141.91 159.79 141.25 158.78 141.44 C 157.77 141.63 157.11 142.61 157.30 143.62 L 157.49 144.60 C 157.68 145.61 158.66 146.27 159.67 146.08 C 160.67 145.89 161.34 144.91 161.14 143.90 Z M 160.92 142.78 L 160.67 141.82 C 160.40 140.83 159.38 140.24 158.39 140.51 C 157.39 140.77 156.80 141.79 157.07 142.79 L 157.33 143.75 C 157.60 144.74 158.62 145.33 159.61 145.06 C 160.60 144.80 161.19 143.78 160.92 142.78 Z M 160.63 141.69 L 160.30 140.75 C 159.96 139.77 158.90 139.26 157.93 139.60 C 156.96 139.93 156.45 140.99 156.78 141.96 L 157.11 142.91 C 157.45 143.88 158.51 144.40 159.48 144.06 C 160.45 143.72 160.96 142.66 160.63 141.69 Z M 160.25 140.63 L 159.86 139.70 C 159.46 138.76 158.37 138.31 157.43 138.71 C 156.48 139.11 156.04 140.20 156.43 141.15 L 156.83 142.08 C 157.22 143.02 158.32 143.47 159.26 143.07 C 160.21 142.67 160.65 141.58 160.25 140.63 Z M 159.82 139.60 L 159.37 138.70 C 158.92 137.78 157.80 137.40 156.88 137.86 C 155.96 138.31 155.58 139.43 156.04 140.35 L 156.48 141.25 C 156.94 142.17 158.05 142.55 158.97 142.09 C 159.89 141.64 160.27 140.53 159.82 139.60 Z M 159.32 138.61 L 158.83 137.74 C 158.33 136.84 157.19 136.53 156.30 137.03 C 155.40 137.53 155.09 138.67 155.59 139.56 L 156.08 140.44 C 156.59 141.33 157.72 141.65 158.62 141.14 C 159.51 140.64 159.83 139.51 159.32 138.61 Z M 158.78 137.65 L 158.25 136.82 C 157.70 135.95 156.55 135.69 155.68 136.24 C 154.82 136.79 154.56 137.94 155.11 138.81 L 155.64 139.65 C 156.19 140.51 157.34 140.77 158.21 140.22 C 159.07 139.67 159.33 138.52 158.78 137.65 Z M 158.20 136.74 L 157.62 135.92 C 157.02 135.08 155.86 134.88 155.03 135.47 C 154.19 136.06 153.99 137.22 154.58 138.06 L 155.16 138.88 C 155.75 139.72 156.91 139.92 157.75 139.33 C 158.59 138.74 158.79 137.58 158.20 136.74 Z M 157.56 135.84 L 156.91 135.03 C 156.28 134.22 155.11 134.08 154.31 134.72 C 153.50 135.35 153.36 136.52 154.00 137.32 L 154.64 138.14 C 155.27 138.94 156.44 139.08 157.25 138.45 C 158.05 137.81 158.19 136.65 157.56 135.84 Z M 156.85 134.95 L 156.17 134.19 C 155.50 133.42 154.33 133.34 153.56 134.02 C 152.79 134.70 152.72 135.87 153.39 136.63 L 154.07 137.40 C 154.74 138.16 155.91 138.24 156.68 137.56 C 157.45 136.89 157.52 135.72 156.85 134.95 Z M 156.10 134.11 L 155.40 133.40 C 154.68 132.67 153.51 132.67 152.78 133.38 C 152.06 134.10 152.05 135.27 152.77 136.00 L 153.47 136.71 C 154.19 137.43 155.36 137.44 156.08 136.72 C 156.81 136.01 156.82 134.84 156.10 134.11 Z M 155.31 133.33 L 154.58 132.67 C 153.83 131.99 152.66 132.05 151.98 132.81 C 151.30 133.57 151.36 134.73 152.12 135.41 L 152.85 136.07 C 153.61 136.75 154.77 136.69 155.45 135.93 C 156.13 135.17 156.07 134.01 155.31 133.33 Z M 154.50 132.60 L 153.74 132.00 C 152.94 131.37 151.79 131.50 151.15 132.30 C 150.52 133.09 150.65 134.25 151.45 134.88 L 152.21 135.48 C 153.00 136.11 154.16 135.98 154.79 135.19 C 155.42 134.39 155.29 133.23 154.50 132.60 Z M 153.64 131.93 L 152.86 131.39 C 152.02 130.81 150.88 131.01 150.30 131.84 C 149.72 132.68 149.93 133.82 150.76 134.40 L 151.55 134.95 C 152.38 135.53 153.52 135.32 154.10 134.49 C 154.68 133.66 154.47 132.51 153.64 131.93 Z M 152.75 131.32 L 151.93 130.83 C 151.06 130.31 149.94 130.59 149.42 131.46 C 148.90 132.33 149.18 133.45 150.05 133.97 L 150.87 134.46 C 151.73 134.98 152.86 134.70 153.38 133.83 C 153.90 132.97 153.61 131.84 152.75 131.32 Z M 151.81 130.78 L 150.95 130.34 C 150.05 129.89 148.96 130.25 148.50 131.14 C 148.05 132.04 148.41 133.14 149.31 133.59 L 150.17 134.03 C 151.06 134.48 152.16 134.12 152.61 133.22 C 153.07 132.32 152.71 131.23 151.81 130.78 Z M 150.82 130.29 L 149.92 129.92 C 148.99 129.53 147.93 129.97 147.55 130.90 C 147.16 131.82 147.60 132.88 148.53 133.26 L 149.43 133.64 C 150.36 134.02 151.42 133.59 151.80 132.66 C 152.19 131.74 151.75 130.68 150.82 130.29 Z M 149.79 129.88 L 148.82 129.56 C 147.88 129.25 146.86 129.76 146.54 130.71 C 146.23 131.65 146.75 132.67 147.69 132.98 L 148.65 133.30 C 149.60 133.62 150.62 133.10 150.93 132.16 C 151.25 131.21 150.73 130.19 149.79 129.88 Z M 148.70 129.53 L 147.67 129.27 C 146.71 129.03 145.73 129.61 145.49 130.57 C 145.25 131.53 145.83 132.51 146.79 132.75 L 147.82 133.01 C 148.78 133.26 149.76 132.67 150.00 131.71 C 150.24 130.75 149.66 129.77 148.70 129.53 Z M 147.56 129.25 L 146.54 129.07 C 145.57 128.89 144.64 129.53 144.46 130.50 C 144.28 131.47 144.92 132.40 145.89 132.58 L 146.90 132.77 C 147.87 132.95 148.81 132.31 148.99 131.34 C 149.17 130.37 148.53 129.43 147.56 129.25 Z M 146.43 129.06 L 145.43 128.93 C 144.46 128.81 143.57 129.51 143.45 130.48 C 143.33 131.45 144.02 132.34 144.99 132.46 L 146.00 132.59 C 146.97 132.71 147.86 132.02 147.98 131.04 C 148.10 130.07 147.41 129.18 146.43 129.06 Z M 145.32 128.93 L 144.29 128.87 C 143.31 128.82 142.48 129.56 142.42 130.53 C 142.36 131.51 143.11 132.35 144.08 132.40 L 145.11 132.46 C 146.08 132.52 146.92 131.78 146.98 130.80 C 147.03 129.83 146.29 128.99 145.32 128.93 Z M 144.16 128.88 L 143.13 128.90 C 142.16 128.91 141.39 129.71 141.40 130.68 C 141.42 131.65 142.22 132.43 143.19 132.41 L 144.21 132.40 C 145.18 132.38 145.96 131.58 145.94 130.61 C 145.93 129.64 145.13 128.87 144.16 128.88 Z M 142.98 128.92 L 141.97 129.02 C 141.01 129.12 140.32 129.98 140.42 130.94 C 140.52 131.90 141.38 132.60 142.34 132.50 L 143.34 132.39 C 144.30 132.29 145.00 131.43 144.90 130.47 C 144.80 129.51 143.94 128.82 142.98 128.92 Z M 141.79 129.06 L 140.83 129.27 C 139.89 129.47 139.30 130.39 139.50 131.33 C 139.70 132.27 140.62 132.87 141.56 132.66 L 142.52 132.46 C 143.46 132.26 144.06 131.33 143.85 130.39 C 143.65 129.46 142.73 128.86 141.79 129.06 Z M 140.61 129.34 L 139.72 129.66 C 138.82 129.98 138.36 130.97 138.68 131.87 C 139.00 132.77 139.99 133.23 140.89 132.91 L 141.78 132.59 C 142.68 132.27 143.14 131.28 142.82 130.38 C 142.50 129.48 141.51 129.02 140.61 129.34 Z M 139.47 129.79 L 138.63 130.26 C 137.80 130.72 137.50 131.76 137.96 132.59 C 138.42 133.41 139.47 133.71 140.29 133.25 L 141.14 132.78 C 141.96 132.32 142.26 131.28 141.80 130.45 C 141.34 129.63 140.30 129.33 139.47 129.79 Z M 138.42 130.42 L 137.66 131.02 C 136.92 131.59 136.79 132.66 137.37 133.39 C 137.95 134.13 139.01 134.26 139.74 133.68 L 140.50 133.09 C 141.24 132.51 141.37 131.45 140.79 130.71 C 140.22 129.98 139.15 129.85 138.42 130.42 Z M 137.51 131.18 L 136.83 131.87 C 136.18 132.53 136.19 133.59 136.84 134.23 C 137.50 134.88 138.56 134.88 139.20 134.22 L 139.89 133.52 C 140.54 132.87 140.53 131.81 139.87 131.16 C 139.22 130.51 138.16 130.52 137.51 131.18 Z M 136.74 132.00 L 136.11 132.78 C 135.53 133.48 135.64 134.52 136.34 135.10 C 137.05 135.67 138.09 135.57 138.66 134.86 L 139.29 134.09 C 139.87 133.38 139.76 132.34 139.06 131.77 C 138.35 131.19 137.31 131.30 136.74 132.00 Z M 136.06 132.88 L 135.47 133.70 C 134.95 134.44 135.12 135.45 135.85 135.97 C 136.58 136.49 137.60 136.32 138.12 135.59 L 138.71 134.76 C 139.23 134.03 139.06 133.01 138.33 132.49 C 137.60 131.97 136.58 132.14 136.06 132.88 Z M 135.45 133.77 L 134.89 134.63 C 134.40 135.37 134.61 136.36 135.35 136.85 C 136.09 137.34 137.09 137.13 137.57 136.39 L 138.14 135.53 C 138.63 134.79 138.42 133.79 137.68 133.31 C 136.94 132.82 135.94 133.02 135.45 133.77 Z M 134.89 134.65 L 134.65 135.03 C 134.18 135.76 134.39 136.75 135.13 137.22 C 135.87 137.70 136.85 137.48 137.33 136.74 L 137.57 136.37 C 138.04 135.63 137.83 134.64 137.09 134.17 C 136.35 133.69 135.37 133.91 134.89 134.65 Z"
      fill="black"
      fill-rule="nonzero" /></svg>