<svg xmlns="http://www.w3.org/2000/svg" width="300" height="300" viewBox="0 0 300 300">
<path d="M 149.64 138.33 L 149.17 137.10 C 148.84 136.25 147.89 135.82 147.03 136.15 C 146.18 136.47 145.75 137.43 146.08 138.28 L 146.55 139.51 C 146.87 140.36 147.83 140.79 148.68 140.46 C 149.54 140.14 149.96 139.18 149.64 138.33 Z M 149.09 136.89 L 148.62 136.03 C 148.18 135.22 147.16 134.93 146.35 135.37 C 145.54 135.82 145.24 136.84 145.69 137.65 L 146.16 138.50 C 146.60 139.31 147.62 139.61 148.43 139.16 C 149.24 138.72 149.54 137.70 149.09 136.89 Z M 147.60 135.21 L 147.15 135.09 C 146.24 134.84 145.31 135.38 145.07 136.28 C 144.83 137.18 145.36 138.11 146.27 138.36 L 146.72 138.48 C 147.62 138.72 148.55 138.18 148.79 137.28 C 149.03 136.38 148.50 135.45 147.60 135.21 Z M 145.29 135.77 L 144.94 136.30 C 144.41 137.09 144.62 138.14 145.40 138.66 C 146.19 139.19 147.24 138.98 147.77 138.20 L 148.12 137.67 C 148.64 136.89 148.43 135.83 147.65 135.31 C 146.87 134.78 145.82 134.99 145.29 135.77 Z M 144.75 136.69 L 144.41 137.64 C 144.10 138.53 144.56 139.50 145.45 139.81 C 146.34 140.12 147.31 139.66 147.62 138.77 L 147.96 137.81 C 148.27 136.93 147.80 135.96 146.92 135.65 C 146.03 135.33 145.06 135.80 144.75 136.69 Z M 144.36 137.80 L 144.06 139.01 C 143.84 139.92 144.39 140.84 145.31 141.07 C 146.22 141.29 147.14 140.74 147.37 139.83 L 147.67 138.61 C 147.89 137.70 147.34 136.78 146.42 136.55 C 145.51 136.33 144.59 136.88 144.36 137.80 Z M 144.05 139.09 L 143.83 140.19 C 143.65 141.11 144.26 142.00 145.18 142.18 C 146.10 142.36 147.00 141.76 147.17 140.84 L 147.39 139.74 C 147.57 138.82 146.96 137.93 146.04 137.75 C 145.12 137.57 144.22 138.17 144.05 139.09 Z M 143.82 140.24 L 143.68 141.14 C 143.53 142.07 144.17 142.94 145.09 143.09 C 146.02 143.24 146.89 142.60 147.04 141.68 L 147.18 140.78 C 147.33 139.85 146.70 138.98 145.77 138.83 C 144.84 138.68 143.97 139.32 143.82 140.24 Z M 143.68 141.19 L 143.55 142.12 C 143.43 143.05 144.09 143.90 145.02 144.02 C 145.95 144.15 146.80 143.49 146.92 142.56 L 147.05 141.63 C 147.17 140.70 146.51 139.84 145.58 139.72 C 144.65 139.60 143.80 140.26 143.68 141.19 Z M 143.55 142.15 L 143.44 143.14 C 143.34 144.07 144.01 144.91 144.95 145.01 C 145.88 145.11 146.72 144.44 146.82 143.51 L 146.93 142.52 C 147.03 141.59 146.36 140.75 145.42 140.65 C 144.49 140.55 143.65 141.22 143.55 142.15 Z M 143.44 143.17 L 143.34 144.23 C 143.26 145.16 143.95 145.99 144.88 146.08 C 145.81 146.16 146.64 145.47 146.73 144.54 L 146.82 143.48 C 146.91 142.54 146.22 141.72 145.29 141.63 C 144.35 141.55 143.52 142.23 143.44 143.17 Z M 143.34 144.25 L 143.25 145.38 C 143.18 146.32 143.87 147.14 144.81 147.21 C 145.74 147.29 146.56 146.59 146.64 145.65 L 146.73 144.52 C 146.80 143.58 146.10 142.77 145.17 142.69 C 144.23 142.62 143.42 143.31 143.34 144.25 Z M 143.25 145.40 L 143.18 146.34 C 143.11 147.28 143.82 148.09 144.75 148.16 C 145.69 148.23 146.50 147.52 146.57 146.59 L 146.64 145.64 C 146.71 144.71 146.00 143.89 145.07 143.83 C 144.13 143.76 143.32 144.46 143.25 145.40 Z M 143.18 146.35 L 143.11 147.34 C 143.05 148.28 143.76 149.09 144.69 149.15 C 145.63 149.22 146.44 148.51 146.50 147.57 L 146.57 146.58 C 146.63 145.64 145.93 144.83 144.99 144.77 C 144.05 144.71 143.24 145.41 143.18 146.35 Z M 143.11 147.35 L 143.05 148.37 C 142.99 149.31 143.70 150.12 144.64 150.18 C 145.57 150.24 146.38 149.52 146.44 148.59 L 146.50 147.57 C 146.56 146.63 145.85 145.82 144.91 145.76 C 143.98 145.70 143.17 146.42 143.11 147.35 Z M 143.05 148.38 L 142.99 149.42 C 142.93 150.36 143.65 151.16 144.58 151.21 C 145.52 151.27 146.32 150.55 146.38 149.62 L 146.44 148.58 C 146.49 147.64 145.78 146.84 144.84 146.79 C 143.91 146.73 143.10 147.45 143.05 148.38 Z M 142.99 149.43 L 142.93 150.46 C 142.88 151.39 143.60 152.19 144.54 152.24 C 145.47 152.29 146.27 151.58 146.32 150.64 L 146.38 149.61 C 146.43 148.67 145.71 147.87 144.77 147.82 C 143.84 147.77 143.04 148.49 142.99 149.43 Z M 142.93 150.47 L 142.88 151.47 C 142.84 152.41 143.56 153.21 144.50 153.25 C 145.44 153.30 146.23 152.57 146.28 151.64 L 146.32 150.63 C 146.37 149.69 145.65 148.90 144.71 148.85 C 143.77 148.81 142.98 149.53 142.93 150.47 Z M 142.88 151.48 L 142.84 152.45 C 142.80 153.39 143.53 154.18 144.47 154.22 C 145.41 154.26 146.20 153.53 146.24 152.59 L 146.28 151.63 C 146.32 150.69 145.59 149.90 144.65 149.86 C 143.71 149.82 142.92 150.55 142.88 151.48 Z M 142.84 152.46 L 142.81 153.58 C 142.78 154.52 143.51 155.30 144.45 155.33 C 145.38 155.36 146.17 154.63 146.20 153.69 L 146.24 152.58 C 146.27 151.64 145.53 150.85 144.60 150.82 C 143.66 150.79 142.87 151.53 142.84 152.46 Z M 142.81 153.60 L 142.78 154.65 C 142.76 155.59 143.51 156.37 144.44 156.39 C 145.38 156.41 146.16 155.67 146.18 154.73 L 146.20 153.67 C 146.22 152.73 145.48 151.96 144.54 151.94 C 143.60 151.92 142.83 152.66 142.81 153.60 Z M 142.78 154.68 L 142.77 155.67 C 142.77 156.61 143.52 157.38 144.45 157.38 C 145.39 157.39 146.16 156.64 146.17 155.70 L 146.18 154.71 C 146.18 153.77 145.43 153.00 144.50 153.00 C 143.56 152.99 142.79 153.74 142.78 154.68 Z M 142.78 155.69 L 142.78 156.65 C 142.78 157.58 143.54 158.34 144.48 158.34 C 145.42 158.33 146.17 157.57 146.17 156.64 L 146.17 155.68 C 146.16 154.75 145.40 153.99 144.46 153.99 C 143.53 154.00 142.77 154.76 142.78 155.69 Z M 142.78 156.67 L 142.79 157.60 C 142.81 158.54 143.58 159.28 144.52 159.27 C 145.45 159.25 146.20 158.48 146.18 157.55 L 146.17 156.62 C 146.15 155.68 145.38 154.93 144.45 154.95 C 143.51 154.96 142.76 155.73 142.78 156.67 Z M 142.80 157.62 L 142.82 158.57 C 142.85 159.51 143.63 160.25 144.56 160.22 C 145.50 160.19 146.23 159.41 146.21 158.48 L 146.18 157.53 C 146.15 156.59 145.38 155.85 144.44 155.88 C 143.51 155.91 142.77 156.69 142.80 157.62 Z M 142.82 158.60 L 142.87 159.67 C 142.92 160.61 143.71 161.33 144.64 161.29 C 145.57 161.24 146.30 160.45 146.25 159.52 L 146.21 158.45 C 146.16 157.52 145.37 156.79 144.44 156.84 C 143.50 156.88 142.78 157.67 142.82 158.60 Z M 142.88 159.74 L 142.97 160.79 C 143.04 161.72 143.86 162.41 144.79 162.33 C 145.73 162.25 146.42 161.43 146.34 160.50 L 146.25 159.45 C 146.17 158.52 145.35 157.83 144.42 157.91 C 143.49 157.99 142.80 158.81 142.88 159.74 Z M 142.98 160.89 L 143.13 161.89 C 143.27 162.81 144.13 163.45 145.05 163.31 C 145.98 163.17 146.61 162.31 146.47 161.39 L 146.32 160.39 C 146.19 159.47 145.32 158.83 144.40 158.97 C 143.48 159.11 142.84 159.97 142.98 160.89 Z M 143.16 162.06 L 143.40 162.97 C 143.63 163.87 144.55 164.42 145.45 164.19 C 146.36 163.96 146.90 163.04 146.67 162.13 L 146.44 161.22 C 146.21 160.32 145.29 159.77 144.38 160.00 C 143.48 160.23 142.93 161.15 143.16 162.06 Z M 143.48 163.22 L 143.85 164.07 C 144.21 164.93 145.21 165.32 146.07 164.95 C 146.92 164.59 147.32 163.59 146.95 162.73 L 146.59 161.88 C 146.22 161.03 145.23 160.63 144.37 161.00 C 143.51 161.37 143.11 162.36 143.48 163.22 Z M 144.04 164.41 L 144.65 165.23 C 145.20 165.98 146.26 166.13 147.01 165.58 C 147.76 165.02 147.92 163.97 147.36 163.22 L 146.76 162.40 C 146.20 161.65 145.14 161.49 144.39 162.04 C 143.64 162.60 143.49 163.66 144.04 164.41 Z M 144.96 165.55 L 145.73 166.15 C 146.46 166.73 147.53 166.60 148.10 165.87 C 148.68 165.13 148.55 164.07 147.82 163.50 L 147.05 162.89 C 146.32 162.32 145.26 162.45 144.68 163.18 C 144.10 163.91 144.23 164.97 144.96 165.55 Z M 146.10 166.37 L 147.00 166.76 C 147.85 167.13 148.85 166.74 149.22 165.88 C 149.59 165.03 149.19 164.04 148.34 163.67 L 147.44 163.28 C 146.59 162.91 145.60 163.30 145.23 164.15 C 144.86 165.01 145.25 166.00 146.10 166.37 Z M 147.37 166.87 L 148.33 167.04 C 149.24 167.21 150.12 166.60 150.29 165.69 C 150.45 164.77 149.85 163.90 148.93 163.73 L 147.97 163.55 C 147.06 163.39 146.18 164.00 146.01 164.91 C 145.85 165.83 146.45 166.70 147.37 166.87 Z M 148.64 167.07 L 149.60 167.06 C 150.53 167.05 151.28 166.29 151.27 165.36 C 151.27 164.43 150.50 163.69 149.57 163.69 L 148.61 163.70 C 147.68 163.71 146.94 164.47 146.94 165.40 C 146.95 166.33 147.71 167.08 148.64 167.07 Z M 149.86 167.04 L 150.84 166.88 C 151.76 166.73 152.39 165.87 152.24 164.95 C 152.09 164.03 151.23 163.41 150.31 163.56 L 149.32 163.72 C 148.40 163.86 147.78 164.73 147.93 165.65 C 148.08 166.56 148.94 167.19 149.86 167.04 Z M 151.06 166.83 L 152.04 166.54 C 152.93 166.27 153.44 165.34 153.17 164.44 C 152.91 163.55 151.97 163.05 151.08 163.31 L 150.10 163.60 C 149.20 163.87 148.70 164.81 148.96 165.70 C 149.23 166.59 150.17 167.10 151.06 166.83 Z M 152.22 166.47 L 153.16 166.07 C 154.02 165.70 154.41 164.71 154.05 163.86 C 153.68 163.01 152.69 162.61 151.84 162.98 L 150.90 163.38 C 150.04 163.74 149.65 164.73 150.01 165.59 C 150.38 166.44 151.37 166.84 152.22 166.47 Z M 153.32 165.99 L 154.12 165.55 C 154.93 165.09 155.23 164.07 154.77 163.26 C 154.32 162.44 153.29 162.15 152.48 162.60 L 151.68 163.05 C 150.87 163.51 150.58 164.53 151.03 165.34 C 151.48 166.15 152.51 166.45 153.32 165.99 Z M 154.26 165.46 L 155.03 164.93 C 155.80 164.40 155.99 163.35 155.47 162.58 C 154.94 161.82 153.89 161.63 153.12 162.15 L 152.35 162.69 C 151.58 163.22 151.39 164.26 151.92 165.03 C 152.44 165.80 153.49 165.99 154.26 165.46 Z M 155.15 164.84 L 155.92 164.21 C 156.63 163.62 156.74 162.56 156.15 161.84 C 155.56 161.12 154.49 161.02 153.78 161.61 L 153.01 162.24 C 152.29 162.83 152.19 163.89 152.78 164.61 C 153.37 165.33 154.43 165.43 155.15 164.84 Z M 156.01 164.13 L 156.78 163.40 C 157.45 162.75 157.48 161.69 156.84 161.02 C 156.19 160.34 155.13 160.32 154.45 160.96 L 153.68 161.69 C 153.01 162.33 152.99 163.40 153.63 164.07 C 154.27 164.74 155.33 164.77 156.01 164.13 Z M 156.84 163.33 L 157.57 162.56 C 158.20 161.88 158.17 160.82 157.49 160.18 C 156.81 159.54 155.75 159.58 155.11 160.25 L 154.39 161.02 C 153.75 161.70 153.78 162.77 154.46 163.40 C 155.14 164.04 156.21 164.01 156.84 163.33 Z M 157.61 162.51 L 158.22 161.81 C 158.83 161.11 158.76 160.04 158.06 159.43 C 157.35 158.82 156.29 158.89 155.68 159.60 L 155.07 160.30 C 154.46 161.00 154.53 162.07 155.23 162.68 C 155.94 163.29 157.00 163.21 157.61 162.51 Z M 158.26 161.77 L 158.87 161.02 C 159.47 160.29 159.36 159.23 158.64 158.64 C 157.91 158.05 156.85 158.16 156.26 158.88 L 155.64 159.63 C 155.05 160.36 155.16 161.42 155.88 162.01 C 156.60 162.60 157.67 162.49 158.26 161.77 Z M 158.91 160.98 L 159.52 160.18 C 160.09 159.44 159.96 158.38 159.22 157.81 C 158.48 157.24 157.42 157.38 156.85 158.11 L 156.23 158.91 C 155.66 159.65 155.79 160.71 156.53 161.29 C 157.27 161.86 158.33 161.72 158.91 160.98 Z M 159.55 160.15 L 160.16 159.32 C 160.71 158.56 160.55 157.50 159.80 156.95 C 159.04 156.40 157.98 156.56 157.43 157.32 L 156.82 158.15 C 156.27 158.90 156.43 159.96 157.18 160.51 C 157.94 161.07 159.00 160.90 159.55 160.15 Z M 160.19 159.29 L 160.78 158.43 C 161.32 157.66 161.13 156.60 160.36 156.07 C 159.59 155.53 158.53 155.72 158.00 156.49 L 157.40 157.35 C 156.87 158.12 157.06 159.17 157.83 159.71 C 158.60 160.24 159.65 160.05 160.19 159.29 Z M 160.81 158.40 L 161.38 157.53 C 161.90 156.74 161.68 155.69 160.90 155.17 C 160.12 154.66 159.06 154.87 158.55 155.65 L 157.97 156.52 C 157.46 157.31 157.67 158.36 158.46 158.88 C 159.24 159.40 160.29 159.18 160.81 158.40 Z M 161.41 157.49 L 161.98 156.58 C 162.48 155.78 162.23 154.73 161.44 154.23 C 160.64 153.73 159.59 153.98 159.09 154.77 L 158.52 155.69 C 158.02 156.49 158.27 157.54 159.06 158.04 C 159.86 158.53 160.91 158.29 161.41 157.49 Z M 162.01 156.54 L 162.55 155.62 C 163.02 154.81 162.75 153.76 161.93 153.28 C 161.12 152.81 160.07 153.08 159.59 153.90 L 159.06 154.81 C 158.58 155.63 158.86 156.68 159.67 157.15 C 160.49 157.63 161.54 157.35 162.01 156.54 Z M 162.58 155.58 L 163.07 154.67 C 163.52 153.84 163.21 152.80 162.38 152.35 C 161.54 151.89 160.50 152.21 160.05 153.04 L 159.56 153.94 C 159.11 154.78 159.42 155.82 160.25 156.27 C 161.09 156.72 162.13 156.41 162.58 155.58 Z M 163.10 154.62 L 163.54 153.73 C 163.96 152.88 163.62 151.84 162.76 151.42 C 161.91 151.00 160.88 151.35 160.46 152.20 L 160.02 153.09 C 159.59 153.94 159.94 154.98 160.79 155.40 C 161.65 155.82 162.68 155.47 163.10 154.62 Z M 163.58 153.67 L 163.96 152.80 C 164.35 151.93 163.96 150.91 163.09 150.52 C 162.21 150.13 161.19 150.52 160.80 151.40 L 160.42 152.26 C 160.03 153.14 160.43 154.16 161.30 154.55 C 162.17 154.93 163.19 154.54 163.58 153.67 Z M 164.00 152.72 L 164.33 151.88 C 164.67 150.99 164.23 149.99 163.33 149.64 C 162.44 149.30 161.43 149.74 161.09 150.63 L 160.77 151.47 C 160.42 152.37 160.87 153.37 161.76 153.72 C 162.65 154.06 163.66 153.62 164.00 152.72 Z M 164.37 151.78 L 164.69 150.76 C 164.97 149.85 164.46 148.87 163.54 148.58 C 162.62 148.30 161.65 148.81 161.36 149.73 L 161.04 150.74 C 160.76 151.66 161.27 152.64 162.19 152.92 C 163.11 153.21 164.08 152.70 164.37 151.78 Z M 164.73 150.63 L 164.96 149.65 C 165.17 148.70 164.58 147.77 163.64 147.55 C 162.70 147.34 161.76 147.93 161.54 148.87 L 161.32 149.86 C 161.10 150.80 161.69 151.74 162.64 151.95 C 163.58 152.17 164.52 151.58 164.73 150.63 Z M 164.99 149.52 L 165.13 148.55 C 165.28 147.59 164.61 146.70 163.65 146.55 C 162.69 146.41 161.80 147.07 161.65 148.04 L 161.51 149.00 C 161.37 149.96 162.03 150.86 162.99 151.00 C 163.95 151.14 164.85 150.48 164.99 149.52 Z M 165.16 148.44 L 165.23 147.48 C 165.31 146.51 164.59 145.65 163.62 145.57 C 162.64 145.49 161.79 146.22 161.71 147.19 L 161.63 148.15 C 161.55 149.12 162.28 149.98 163.25 150.06 C 164.22 150.14 165.08 149.41 165.16 148.44 Z M 165.25 147.39 L 165.28 146.43 C 165.31 145.45 164.53 144.63 163.55 144.60 C 162.57 144.57 161.75 145.34 161.73 146.32 L 161.70 147.28 C 161.67 148.26 162.44 149.08 163.42 149.11 C 164.40 149.14 165.22 148.37 165.25 147.39 Z M 165.28 146.34 L 165.27 145.40 C 165.25 144.42 164.44 143.64 163.45 143.65 C 162.47 143.67 161.69 144.48 161.70 145.46 L 161.72 146.40 C 161.74 147.39 162.55 148.17 163.53 148.16 C 164.51 148.14 165.30 147.33 165.28 146.34 Z M 165.26 145.28 L 165.18 144.32 C 165.10 143.34 164.23 142.61 163.25 142.69 C 162.26 142.78 161.54 143.65 161.62 144.63 L 161.70 145.59 C 161.79 146.57 162.66 147.30 163.64 147.21 C 164.62 147.13 165.35 146.26 165.26 145.28 Z M 165.16 144.15 L 164.98 143.17 C 164.80 142.20 163.87 141.56 162.90 141.74 C 161.92 141.91 161.28 142.85 161.46 143.82 L 161.64 144.80 C 161.82 145.77 162.75 146.41 163.73 146.24 C 164.70 146.06 165.34 145.12 165.16 144.15 Z M 164.94 142.97 L 164.63 141.98 C 164.34 141.03 163.34 140.50 162.39 140.79 C 161.44 141.08 160.91 142.09 161.20 143.03 L 161.51 144.02 C 161.80 144.97 162.80 145.50 163.75 145.21 C 164.70 144.92 165.23 143.92 164.94 142.97 Z M 164.55 141.76 L 164.11 140.80 C 163.70 139.89 162.64 139.49 161.73 139.90 C 160.83 140.31 160.43 141.38 160.84 142.29 L 161.28 143.25 C 161.69 144.16 162.76 144.55 163.66 144.14 C 164.57 143.73 164.97 142.67 164.55 141.76 Z M 164.02 140.61 L 163.53 139.80 C 163.02 138.94 161.91 138.67 161.06 139.18 C 160.21 139.69 159.93 140.80 160.44 141.65 L 160.93 142.47 C 161.45 143.32 162.55 143.60 163.40 143.08 C 164.26 142.57 164.53 141.47 164.02 140.61 Z M 163.45 139.67 L 162.86 138.86 C 162.28 138.05 161.16 137.87 160.35 138.45 C 159.54 139.03 159.36 140.16 159.94 140.97 L 160.52 141.78 C 161.11 142.58 162.23 142.77 163.04 142.18 C 163.85 141.60 164.03 140.48 163.45 139.67 Z M 162.79 138.76 L 162.14 137.98 C 161.50 137.21 160.37 137.10 159.60 137.74 C 158.84 138.37 158.73 139.51 159.36 140.27 L 160.01 141.06 C 160.65 141.83 161.78 141.94 162.55 141.30 C 163.32 140.67 163.42 139.53 162.79 138.76 Z M 162.07 137.90 L 161.37 137.14 C 160.70 136.41 159.56 136.37 158.83 137.04 C 158.10 137.72 158.05 138.86 158.73 139.59 L 159.43 140.35 C 160.10 141.08 161.24 141.12 161.97 140.45 C 162.70 139.77 162.75 138.63 162.07 137.90 Z M 161.31 137.08 L 160.59 136.37 C 159.88 135.67 158.74 135.68 158.04 136.39 C 157.34 137.10 157.35 138.24 158.06 138.94 L 158.79 139.65 C 159.50 140.35 160.64 140.34 161.33 139.63 C 162.03 138.92 162.02 137.78 161.31 137.08 Z M 160.53 136.32 L 159.80 135.65 C 159.06 134.98 157.92 135.04 157.25 135.78 C 156.59 136.52 156.64 137.66 157.38 138.33 L 158.12 138.99 C 158.85 139.66 159.99 139.60 160.66 138.86 C 161.33 138.12 161.27 136.98 160.53 136.32 Z M 159.73 135.60 L 158.86 134.88 C 158.10 134.25 156.97 134.36 156.33 135.12 C 155.70 135.89 155.81 137.02 156.57 137.66 L 157.44 138.38 C 158.21 139.01 159.34 138.90 159.98 138.13 C 160.61 137.37 160.50 136.24 159.73 135.60 Z M 158.79 134.83 L 157.94 134.20 C 157.15 133.61 156.03 133.77 155.44 134.57 C 154.85 135.36 155.01 136.48 155.80 137.07 L 156.65 137.70 C 157.44 138.30 158.56 138.13 159.15 137.34 C 159.75 136.55 159.58 135.43 158.79 134.83 Z M 157.87 134.16 L 157.04 133.61 C 156.23 133.06 155.12 133.27 154.57 134.09 C 154.02 134.91 154.24 136.02 155.06 136.57 L 155.88 137.12 C 156.70 137.67 157.80 137.45 158.35 136.63 C 158.90 135.81 158.68 134.71 157.87 134.16 Z M 156.97 133.56 L 156.17 133.08 C 155.33 132.58 154.23 132.85 153.73 133.69 C 153.22 134.53 153.49 135.62 154.33 136.13 L 155.13 136.61 C 155.97 137.11 157.07 136.84 157.57 136.00 C 158.08 135.16 157.81 134.07 156.97 133.56 Z M 156.09 133.05 L 155.31 132.63 C 154.45 132.16 153.38 132.48 152.91 133.34 C 152.45 134.20 152.77 135.27 153.63 135.74 L 154.41 136.16 C 155.27 136.62 156.34 136.30 156.81 135.44 C 157.27 134.59 156.95 133.51 156.09 133.05 Z M 155.24 132.59 L 154.29 132.13 C 153.41 131.71 152.35 132.08 151.93 132.96 C 151.50 133.84 151.88 134.90 152.76 135.32 L 153.70 135.78 C 154.59 136.20 155.64 135.83 156.07 134.95 C 156.49 134.07 156.12 133.01 155.24 132.59 Z M 154.22 132.09 L 153.29 131.69 C 152.39 131.31 151.34 131.73 150.96 132.64 C 150.57 133.54 150.99 134.59 151.90 134.97 L 152.83 135.37 C 153.73 135.75 154.78 135.33 155.16 134.43 C 155.55 133.52 155.13 132.47 154.22 132.09 Z M 153.24 131.66 L 152.33 131.31 C 151.41 130.95 150.37 131.41 150.01 132.33 C 149.65 133.26 150.11 134.30 151.04 134.65 L 151.95 135.01 C 152.87 135.37 153.91 134.91 154.27 133.98 C 154.63 133.06 154.17 132.02 153.24 131.66 Z M 152.31 131.28 L 151.40 130.95 C 150.47 130.61 149.43 131.09 149.08 132.03 C 148.74 132.96 149.22 134.00 150.16 134.34 L 151.06 134.68 C 152.00 135.02 153.04 134.54 153.38 133.60 C 153.72 132.67 153.24 131.63 152.31 131.28 Z"
      fill="black"
      fill-rule="nonzero" /></svg>