<svg xmlns="http://www.w3.org/2000/svg" width="300" height="300" viewBox="0 0 300 300">
<path d="M 154.52 150.44 L 154.02 149.50 C 153.61 148.71 152.64 148.41 151.86 148.83 C 151.08 149.24 150.78 150.21 151.19 150.99 L 151.69 151.93 C 152.10 152.72 153.07 153.02 153.85 152.60 C 154.63 152.19 154.93 151.22 154.52 150.44 Z M 154.02 149.48 L 153.53 148.55 C 153.11 147.77 152.14 147.47 151.35 147.89 C 150.57 148.31 150.27 149.29 150.69 150.07 L 151.18 151.00 C 151.60 151.78 152.58 152.08 153.36 151.66 C 154.15 151.24 154.44 150.27 154.02 149.48 Z M 153.53 148.54 L 153.04 147.64 C 152.61 146.85 151.63 146.57 150.84 146.99 C 150.06 147.42 149.77 148.41 150.20 149.19 L 150.69 150.09 C 151.12 150.87 152.10 151.16 152.88 150.73 C 153.67 150.30 153.96 149.32 153.53 148.54 Z M 153.03 147.61 L 152.55 146.76 C 152.11 145.98 151.11 145.71 150.33 146.15 C 149.55 146.59 149.28 147.59 149.72 148.37 L 150.20 149.22 C 150.65 150.00 151.64 150.27 152.42 149.83 C 153.20 149.39 153.48 148.39 153.03 147.61 Z M 152.54 146.72 L 152.07 145.94 C 151.60 145.16 150.60 144.91 149.82 145.38 C 149.05 145.84 148.80 146.85 149.26 147.62 L 149.73 148.41 C 150.20 149.18 151.20 149.43 151.98 148.97 C 152.75 148.50 153.00 147.50 152.54 146.72 Z M 152.04 145.87 L 151.44 144.96 C 150.94 144.20 149.91 143.99 149.15 144.49 C 148.39 144.99 148.18 146.02 148.69 146.78 L 149.29 147.69 C 149.79 148.45 150.81 148.66 151.57 148.16 C 152.33 147.65 152.54 146.63 152.04 145.87 Z M 151.37 144.84 L 150.71 144.00 C 150.14 143.28 149.09 143.16 148.37 143.73 C 147.65 144.30 147.53 145.35 148.10 146.07 L 148.75 146.90 C 149.32 147.62 150.37 147.75 151.09 147.18 C 151.82 146.61 151.94 145.56 151.37 144.84 Z M 150.57 143.81 L 149.89 143.17 C 149.21 142.53 148.14 142.55 147.50 143.23 C 146.86 143.90 146.89 144.97 147.56 145.61 L 148.24 146.26 C 148.92 146.90 149.98 146.87 150.63 146.20 C 151.27 145.52 151.24 144.45 150.57 143.81 Z M 149.62 142.94 L 148.88 142.48 C 148.08 141.99 147.03 142.24 146.54 143.04 C 146.04 143.84 146.29 144.89 147.09 145.39 L 147.83 145.84 C 148.63 146.34 149.68 146.09 150.18 145.29 C 150.67 144.48 150.42 143.43 149.62 142.94 Z M 148.46 142.27 L 147.47 141.99 C 146.55 141.73 145.59 142.26 145.33 143.19 C 145.07 144.11 145.61 145.07 146.53 145.33 L 147.52 145.60 C 148.44 145.86 149.40 145.33 149.66 144.41 C 149.92 143.48 149.38 142.53 148.46 142.27 Z M 146.92 141.89 L 145.93 141.94 C 144.96 141.98 144.20 142.81 144.25 143.79 C 144.29 144.76 145.12 145.51 146.10 145.47 L 147.09 145.42 C 148.06 145.38 148.81 144.55 148.77 143.57 C 148.72 142.60 147.89 141.85 146.92 141.89 Z M 145.29 142.06 L 144.43 142.44 C 143.52 142.84 143.11 143.90 143.51 144.81 C 143.91 145.72 144.97 146.13 145.88 145.73 L 146.74 145.35 C 147.65 144.95 148.06 143.89 147.66 142.98 C 147.26 142.07 146.20 141.66 145.29 142.06 Z M 143.88 142.78 L 143.33 143.31 C 142.61 144.02 142.60 145.17 143.30 145.89 C 144.01 146.61 145.16 146.63 145.88 145.92 L 146.43 145.39 C 147.15 144.68 147.16 143.53 146.46 142.81 C 145.75 142.09 144.60 142.08 143.88 142.78 Z M 143.03 143.66 L 142.57 144.43 C 142.04 145.30 142.32 146.43 143.19 146.96 C 144.06 147.48 145.19 147.21 145.72 146.34 L 146.18 145.57 C 146.71 144.70 146.43 143.57 145.56 143.04 C 144.69 142.52 143.56 142.79 143.03 143.66 Z M 142.43 144.68 L 142.01 145.69 C 141.62 146.64 142.08 147.73 143.02 148.12 C 143.97 148.51 145.06 148.05 145.45 147.10 L 145.86 146.09 C 146.25 145.14 145.80 144.05 144.85 143.66 C 143.90 143.27 142.81 143.73 142.43 144.68 Z M 141.94 145.83 L 141.57 147.02 C 141.25 148.00 141.80 149.06 142.79 149.37 C 143.77 149.68 144.83 149.13 145.14 148.15 L 145.52 146.96 C 145.83 145.98 145.28 144.92 144.29 144.61 C 143.31 144.30 142.25 144.84 141.94 145.83 Z M 141.53 147.08 L 141.28 148.00 C 141.00 149.01 141.59 150.05 142.59 150.33 C 143.60 150.61 144.64 150.02 144.92 149.01 L 145.17 148.09 C 145.45 147.08 144.86 146.04 143.86 145.76 C 142.85 145.48 141.81 146.07 141.53 147.08 Z M 141.25 148.03 L 141.00 149.02 C 140.74 150.04 141.35 151.08 142.37 151.34 C 143.39 151.60 144.43 150.99 144.69 149.97 L 144.94 148.98 C 145.20 147.96 144.59 146.92 143.57 146.66 C 142.55 146.40 141.51 147.01 141.25 148.03 Z M 140.98 149.05 L 140.73 150.08 C 140.48 151.11 141.12 152.14 142.15 152.39 C 143.18 152.64 144.21 152.00 144.46 150.97 L 144.71 149.95 C 144.96 148.92 144.32 147.88 143.29 147.63 C 142.26 147.38 141.22 148.02 140.98 149.05 Z M 140.71 150.10 L 140.48 151.12 C 140.24 152.17 140.90 153.20 141.94 153.43 C 142.98 153.67 144.02 153.02 144.25 151.97 L 144.48 150.95 C 144.72 149.91 144.06 148.87 143.02 148.64 C 141.98 148.40 140.94 149.06 140.71 150.10 Z M 140.46 151.15 L 140.25 152.13 C 140.03 153.19 140.70 154.22 141.76 154.44 C 142.81 154.66 143.84 153.99 144.06 152.94 L 144.27 151.95 C 144.49 150.90 143.82 149.86 142.77 149.64 C 141.71 149.42 140.68 150.09 140.46 151.15 Z M 140.23 152.16 L 140.05 153.07 C 139.84 154.13 140.54 155.17 141.60 155.37 C 142.67 155.58 143.70 154.89 143.91 153.82 L 144.08 152.91 C 144.29 151.85 143.60 150.82 142.53 150.61 C 141.47 150.40 140.44 151.09 140.23 152.16 Z M 140.03 153.11 L 139.82 154.33 C 139.64 155.41 140.36 156.43 141.44 156.61 C 142.51 156.80 143.53 156.08 143.72 155.00 L 143.92 153.78 C 144.11 152.71 143.39 151.69 142.31 151.50 C 141.24 151.32 140.22 152.04 140.03 153.11 Z M 139.81 154.40 L 139.67 155.44 C 139.52 156.52 140.28 157.52 141.36 157.67 C 142.45 157.81 143.44 157.05 143.59 155.97 L 143.73 154.93 C 143.88 153.85 143.12 152.85 142.04 152.71 C 140.95 152.56 139.96 153.32 139.81 154.40 Z M 139.65 155.51 L 139.57 156.39 C 139.46 157.48 140.25 158.46 141.34 158.57 C 142.43 158.67 143.41 157.88 143.52 156.79 L 143.60 155.90 C 143.71 154.81 142.92 153.84 141.83 153.73 C 140.74 153.62 139.76 154.42 139.65 155.51 Z M 139.56 156.45 L 139.50 157.26 C 139.42 158.36 140.24 159.31 141.34 159.39 C 142.44 159.47 143.39 158.64 143.47 157.55 L 143.53 156.73 C 143.61 155.64 142.78 154.68 141.68 154.61 C 140.59 154.53 139.63 155.35 139.56 156.45 Z M 139.49 157.29 L 139.43 158.30 C 139.37 159.40 140.21 160.34 141.31 160.40 C 142.41 160.47 143.35 159.62 143.42 158.53 L 143.47 157.52 C 143.54 156.42 142.70 155.48 141.60 155.41 C 140.50 155.35 139.55 156.19 139.49 157.29 Z M 139.43 158.33 L 139.39 159.32 C 139.34 160.42 140.19 161.36 141.29 161.40 C 142.40 161.45 143.33 160.60 143.38 159.50 L 143.42 158.50 C 143.47 157.40 142.61 156.46 141.51 156.42 C 140.41 156.37 139.48 157.22 139.43 158.33 Z M 139.38 159.35 L 139.35 160.34 C 139.32 161.45 140.19 162.37 141.29 162.40 C 142.40 162.43 143.32 161.56 143.35 160.46 L 143.38 159.47 C 143.41 158.36 142.54 157.44 141.44 157.41 C 140.34 157.38 139.42 158.25 139.38 159.35 Z M 139.35 160.37 L 139.34 161.25 C 139.32 162.36 140.20 163.27 141.31 163.29 C 142.41 163.30 143.32 162.42 143.34 161.31 L 143.35 160.43 C 143.37 159.33 142.49 158.42 141.38 158.40 C 140.28 158.38 139.37 159.27 139.35 160.37 Z M 139.34 161.29 L 139.34 162.23 C 139.34 163.34 140.24 164.23 141.35 164.23 C 142.46 164.22 143.35 163.32 143.35 162.22 L 143.34 161.28 C 143.34 160.17 142.44 159.28 141.33 159.28 C 140.23 159.29 139.33 160.19 139.34 161.29 Z M 139.34 162.27 L 139.36 163.34 C 139.39 164.44 140.31 165.32 141.42 165.29 C 142.53 165.26 143.40 164.35 143.37 163.24 L 143.35 162.17 C 143.32 161.07 142.40 160.19 141.29 160.22 C 140.19 160.25 139.31 161.17 139.34 162.27 Z M 139.36 163.37 L 139.41 164.42 C 139.46 165.53 140.39 166.39 141.50 166.34 C 142.61 166.30 143.47 165.36 143.42 164.25 L 143.37 163.20 C 143.33 162.09 142.39 161.23 141.28 161.28 C 140.18 161.33 139.32 162.27 139.36 163.37 Z M 139.41 164.46 L 139.46 165.38 C 139.53 166.49 140.48 167.33 141.59 167.26 C 142.70 167.20 143.54 166.24 143.47 165.14 L 143.42 164.22 C 143.35 163.11 142.40 162.27 141.29 162.33 C 140.19 162.40 139.34 163.35 139.41 164.46 Z M 139.47 165.42 L 139.55 166.41 C 139.64 167.52 140.61 168.34 141.72 168.25 C 142.82 168.15 143.65 167.18 143.55 166.08 L 143.47 165.09 C 143.38 163.98 142.41 163.16 141.30 163.25 C 140.20 163.35 139.37 164.32 139.47 165.42 Z M 139.55 166.47 L 139.67 167.50 C 139.80 168.60 140.80 169.40 141.90 169.27 C 143.00 169.14 143.79 168.14 143.67 167.04 L 143.55 166.01 C 143.42 164.91 142.42 164.12 141.32 164.24 C 140.22 164.37 139.43 165.37 139.55 166.47 Z M 139.68 167.58 L 139.84 168.63 C 140.02 169.73 141.04 170.48 142.14 170.31 C 143.24 170.14 143.99 169.11 143.82 168.01 L 143.66 166.96 C 143.49 165.86 142.46 165.11 141.36 165.28 C 140.26 165.45 139.51 166.48 139.68 167.58 Z M 139.86 168.73 L 140.08 169.77 C 140.30 170.86 141.37 171.56 142.46 171.33 C 143.55 171.10 144.25 170.04 144.02 168.95 L 143.80 167.91 C 143.58 166.82 142.51 166.12 141.42 166.35 C 140.33 166.57 139.63 167.64 139.86 168.73 Z M 140.11 169.89 L 140.38 170.90 C 140.67 171.97 141.78 172.61 142.85 172.32 C 143.92 172.02 144.56 170.92 144.27 169.84 L 143.99 168.83 C 143.70 167.76 142.60 167.12 141.52 167.42 C 140.45 167.71 139.81 168.81 140.11 169.89 Z M 140.41 171.01 L 140.74 171.99 C 141.10 173.05 142.24 173.61 143.30 173.26 C 144.35 172.90 144.92 171.76 144.56 170.70 L 144.23 169.73 C 143.88 168.67 142.73 168.11 141.68 168.46 C 140.63 168.82 140.06 169.96 140.41 171.01 Z M 140.79 172.11 L 141.17 173.04 C 141.59 174.07 142.76 174.57 143.79 174.15 C 144.83 173.73 145.32 172.55 144.90 171.52 L 144.52 170.59 C 144.10 169.56 142.92 169.06 141.89 169.48 C 140.86 169.90 140.37 171.08 140.79 172.11 Z M 141.22 173.16 L 141.65 174.04 C 142.13 175.04 143.34 175.46 144.34 174.97 C 145.34 174.49 145.76 173.28 145.27 172.28 L 144.85 171.40 C 144.36 170.40 143.15 169.98 142.15 170.47 C 141.15 170.95 140.73 172.16 141.22 173.16 Z M 141.71 174.17 L 142.18 174.98 C 142.74 175.95 143.97 176.28 144.93 175.73 C 145.90 175.17 146.23 173.94 145.68 172.97 L 145.21 172.15 C 144.65 171.19 143.42 170.86 142.45 171.41 C 141.49 171.97 141.16 173.20 141.71 174.17 Z M 142.27 175.12 L 142.87 175.99 C 143.50 176.90 144.76 177.13 145.67 176.50 C 146.59 175.87 146.82 174.61 146.19 173.69 L 145.59 172.83 C 144.96 171.91 143.70 171.68 142.78 172.32 C 141.86 172.95 141.64 174.21 142.27 175.12 Z M 142.99 176.15 L 143.65 176.93 C 144.37 177.78 145.65 177.89 146.50 177.17 C 147.35 176.44 147.45 175.17 146.73 174.32 L 146.07 173.53 C 145.34 172.68 144.07 172.58 143.22 173.30 C 142.37 174.02 142.27 175.30 142.99 176.15 Z M 143.80 177.09 L 144.52 177.77 C 145.32 178.54 146.60 178.51 147.37 177.70 C 148.14 176.89 148.11 175.61 147.30 174.84 L 146.58 174.16 C 145.78 173.40 144.50 173.43 143.73 174.23 C 142.96 175.04 142.99 176.32 143.80 177.09 Z M 144.69 177.92 L 145.45 178.49 C 146.34 179.17 147.60 178.99 148.28 178.10 C 148.95 177.21 148.78 175.95 147.89 175.27 L 147.13 174.70 C 146.24 174.02 144.97 174.20 144.30 175.09 C 143.63 175.98 143.80 177.24 144.69 177.92 Z M 145.64 178.62 L 146.47 179.11 C 147.43 179.67 148.66 179.35 149.23 178.39 C 149.80 177.43 149.48 176.19 148.52 175.63 L 147.69 175.14 C 146.73 174.58 145.49 174.90 144.93 175.86 C 144.36 176.82 144.68 178.06 145.64 178.62 Z M 146.68 179.22 L 147.57 179.61 C 148.59 180.06 149.78 179.60 150.23 178.58 C 150.68 177.56 150.22 176.36 149.20 175.91 L 148.31 175.52 C 147.28 175.07 146.09 175.53 145.64 176.55 C 145.19 177.57 145.66 178.77 146.68 179.22 Z M 147.77 179.69 L 148.72 179.99 C 149.78 180.32 150.91 179.74 151.25 178.67 C 151.59 177.61 151.00 176.47 149.94 176.14 L 149.00 175.84 C 147.93 175.50 146.80 176.09 146.46 177.15 C 146.12 178.21 146.71 179.35 147.77 179.69 Z M 148.90 180.03 L 149.88 180.25 C 150.97 180.49 152.05 179.80 152.29 178.71 C 152.53 177.62 151.83 176.54 150.74 176.30 L 149.76 176.09 C 148.67 175.85 147.59 176.54 147.35 177.63 C 147.11 178.72 147.81 179.80 148.90 180.03 Z M 150.03 180.28 L 151.04 180.42 C 152.14 180.58 153.17 179.81 153.32 178.70 C 153.48 177.60 152.71 176.57 151.60 176.42 L 150.60 176.28 C 149.49 176.12 148.47 176.89 148.31 177.99 C 148.16 179.10 148.93 180.12 150.03 180.28 Z M 151.16 180.43 L 152.12 180.51 C 153.24 180.60 154.21 179.76 154.30 178.65 C 154.38 177.54 153.55 176.56 152.44 176.48 L 151.48 176.40 C 150.36 176.32 149.39 177.15 149.31 178.26 C 149.22 179.38 150.05 180.35 151.16 180.43 Z M 152.26 180.52 L 153.25 180.53 C 154.37 180.53 155.28 179.64 155.29 178.52 C 155.30 177.40 154.40 176.49 153.28 176.48 L 152.30 176.47 C 151.18 176.46 150.27 177.36 150.26 178.48 C 150.25 179.59 151.15 180.51 152.26 180.52 Z M 153.41 180.52 L 154.42 180.45 C 155.53 180.37 156.37 179.40 156.29 178.28 C 156.21 177.17 155.24 176.33 154.13 176.41 L 153.12 176.48 C 152.01 176.56 151.17 177.53 151.25 178.65 C 151.33 179.76 152.30 180.60 153.41 180.52 Z M 154.60 180.43 L 155.62 180.26 C 156.72 180.08 157.47 179.04 157.29 177.93 C 157.11 176.83 156.07 176.08 154.96 176.26 L 153.94 176.43 C 152.84 176.61 152.09 177.65 152.27 178.76 C 152.45 179.86 153.50 180.61 154.60 180.43 Z M 155.81 180.22 L 156.76 179.97 C 157.84 179.68 158.49 178.57 158.20 177.49 C 157.91 176.41 156.80 175.76 155.72 176.05 L 154.77 176.30 C 153.68 176.59 153.04 177.70 153.33 178.78 C 153.62 179.87 154.73 180.51 155.81 180.22 Z M 156.94 179.92 L 157.83 179.59 C 158.88 179.21 159.43 178.04 159.04 176.99 C 158.65 175.93 157.49 175.39 156.43 175.78 L 155.54 176.10 C 154.49 176.49 153.94 177.65 154.33 178.71 C 154.72 179.76 155.88 180.31 156.94 179.92 Z M 157.98 179.53 L 158.87 179.13 C 159.89 178.66 160.34 177.45 159.87 176.42 C 159.40 175.40 158.19 174.96 157.17 175.43 L 156.28 175.83 C 155.26 176.30 154.81 177.51 155.28 178.54 C 155.75 179.56 156.96 180.00 157.98 179.53 Z M 159.00 179.06 L 159.89 178.57 C 160.87 178.03 161.23 176.79 160.69 175.80 C 160.14 174.82 158.90 174.46 157.92 175.00 L 157.03 175.49 C 156.05 176.03 155.69 177.28 156.23 178.26 C 156.78 179.25 158.02 179.61 159.00 179.06 Z M 160.01 178.51 L 160.88 177.94 C 161.83 177.33 162.11 176.07 161.50 175.12 C 160.89 174.17 159.63 173.90 158.68 174.51 L 157.80 175.07 C 156.85 175.68 156.57 176.94 157.18 177.89 C 157.79 178.84 159.06 179.12 160.01 178.51 Z M 160.99 177.88 L 161.85 177.25 C 162.76 176.58 162.96 175.30 162.29 174.39 C 161.62 173.48 160.34 173.28 159.43 173.94 L 158.57 174.57 C 157.66 175.24 157.46 176.52 158.13 177.43 C 158.79 178.34 160.08 178.54 160.99 177.88 Z M 161.93 177.19 L 162.74 176.53 C 163.62 175.82 163.75 174.52 163.04 173.64 C 162.33 172.77 161.03 172.63 160.16 173.35 L 159.35 174.00 C 158.47 174.72 158.33 176.01 159.05 176.89 C 159.76 177.77 161.05 177.90 161.93 177.19 Z M 162.81 176.48 L 163.60 175.79 C 164.45 175.03 164.53 173.73 163.78 172.88 C 163.02 172.03 161.72 171.95 160.87 172.70 L 160.09 173.40 C 159.24 174.15 159.16 175.45 159.91 176.30 C 160.66 177.15 161.96 177.23 162.81 176.48 Z M 163.65 175.74 L 164.40 175.03 C 165.23 174.25 165.26 172.95 164.48 172.12 C 163.70 171.29 162.40 171.25 161.57 172.04 L 160.82 172.75 C 159.99 173.53 159.95 174.83 160.74 175.66 C 161.52 176.49 162.82 176.52 163.65 175.74 Z M 164.45 174.99 L 165.15 174.29 C 165.96 173.48 165.95 172.18 165.15 171.37 C 164.34 170.56 163.03 170.56 162.22 171.37 L 161.52 172.07 C 160.72 172.88 160.72 174.19 161.52 175.00 C 162.33 175.80 163.64 175.80 164.45 174.99 Z M 165.19 174.26 L 165.83 173.58 C 166.62 172.75 166.58 171.44 165.75 170.65 C 164.92 169.86 163.61 169.90 162.82 170.73 L 162.18 171.41 C 161.40 172.24 161.43 173.55 162.26 174.33 C 163.09 175.12 164.40 175.09 165.19 174.26 Z M 165.87 173.54 L 166.57 172.76 C 167.34 171.91 167.27 170.60 166.42 169.83 C 165.57 169.06 164.25 169.13 163.49 169.99 L 162.78 170.77 C 162.02 171.62 162.09 172.93 162.94 173.70 C 163.79 174.47 165.10 174.40 165.87 173.54 Z M 166.62 172.72 L 167.31 171.90 C 168.05 171.02 167.94 169.71 167.06 168.97 C 166.18 168.23 164.87 168.34 164.13 169.22 L 163.44 170.03 C 162.70 170.91 162.81 172.23 163.69 172.97 C 164.57 173.71 165.88 173.60 166.62 172.72 Z M 167.36 171.85 L 167.95 171.10 C 168.66 170.19 168.50 168.88 167.60 168.17 C 166.69 167.46 165.38 167.62 164.67 168.52 L 164.08 169.27 C 163.37 170.18 163.52 171.49 164.43 172.20 C 165.33 172.91 166.65 172.76 167.36 171.85 Z M 167.99 171.05 L 168.52 170.33 C 169.21 169.40 169.02 168.09 168.09 167.40 C 167.16 166.72 165.85 166.91 165.17 167.84 L 164.63 168.56 C 163.94 169.49 164.13 170.80 165.06 171.49 C 165.99 172.18 167.30 171.98 167.99 171.05 Z M 168.55 170.30 L 169.11 169.52 C 169.79 168.58 169.57 167.27 168.63 166.60 C 167.69 165.92 166.38 166.14 165.71 167.08 L 165.14 167.86 C 164.47 168.80 164.68 170.11 165.63 170.79 C 166.57 171.46 167.87 171.24 168.55 170.30 Z M 169.14 169.49 L 169.71 168.66 C 170.37 167.71 170.13 166.40 169.18 165.74 C 168.23 165.08 166.92 165.32 166.26 166.27 L 165.68 167.10 C 165.02 168.06 165.26 169.36 166.21 170.02 C 167.17 170.68 168.48 170.45 169.14 169.49 Z M 169.75 168.62 L 170.30 167.78 C 170.93 166.81 170.66 165.50 169.69 164.86 C 168.71 164.23 167.41 164.50 166.77 165.47 L 166.22 166.31 C 165.59 167.29 165.86 168.59 166.83 169.23 C 167.80 169.87 169.11 169.59 169.75 168.62 Z M 170.34 167.71 L 170.85 166.88 C 171.45 165.88 171.13 164.58 170.13 163.98 C 169.13 163.38 167.83 163.70 167.23 164.70 L 166.73 165.54 C 166.12 166.54 166.45 167.83 167.45 168.44 C 168.45 169.04 169.74 168.71 170.34 167.71 Z M 170.91 166.79 L 171.34 165.98 C 171.89 164.94 171.50 163.66 170.47 163.11 C 169.43 162.56 168.15 162.95 167.60 163.98 L 167.17 164.79 C 166.62 165.83 167.01 167.11 168.04 167.66 C 169.07 168.21 170.36 167.82 170.91 166.79 Z M 171.40 165.86 L 171.80 165.00 C 172.28 163.93 171.81 162.67 170.75 162.18 C 169.68 161.70 168.42 162.17 167.93 163.23 L 167.54 164.10 C 167.05 165.17 167.52 166.42 168.59 166.91 C 169.66 167.40 170.91 166.93 171.40 165.86 Z M 171.85 164.88 L 172.23 163.90 C 172.65 162.80 172.10 161.57 171.00 161.15 C 169.91 160.73 168.67 161.28 168.25 162.37 L 167.88 163.35 C 167.45 164.45 168.00 165.68 169.10 166.10 C 170.20 166.52 171.43 165.98 171.85 164.88 Z M 172.27 163.81 L 172.59 162.85 C 172.96 161.73 172.35 160.52 171.23 160.15 C 170.11 159.78 168.90 160.38 168.53 161.50 L 168.21 162.47 C 167.84 163.59 168.45 164.80 169.57 165.17 C 170.69 165.54 171.90 164.93 172.27 163.81 Z M 172.61 162.78 L 172.86 161.95 C 173.19 160.81 172.54 159.62 171.40 159.29 C 170.27 158.96 169.08 159.61 168.74 160.74 L 168.50 161.57 C 168.17 162.71 168.82 163.90 169.95 164.23 C 171.09 164.57 172.28 163.91 172.61 162.78 Z M 172.88 161.89 L 173.12 160.98 C 173.42 159.83 172.73 158.65 171.58 158.36 C 170.43 158.06 169.25 158.75 168.95 159.90 L 168.72 160.81 C 168.42 161.96 169.11 163.13 170.26 163.43 C 171.41 163.73 172.58 163.04 172.88 161.89 Z M 173.14 160.91 L 173.37 159.93 C 173.63 158.76 172.90 157.61 171.73 157.35 C 170.57 157.08 169.41 157.82 169.15 158.98 L 168.93 159.96 C 168.67 161.13 169.40 162.28 170.56 162.55 C 171.73 162.81 172.88 162.08 173.14 160.91 Z M 173.39 159.85 L 173.59 158.80 C 173.81 157.62 173.03 156.49 171.86 156.26 C 170.68 156.04 169.55 156.82 169.33 158.00 L 169.13 159.05 C 168.91 160.23 169.68 161.36 170.86 161.59 C 172.03 161.81 173.17 161.03 173.39 159.85 Z M 173.61 158.72 L 173.78 157.59 C 173.96 156.40 173.14 155.29 171.95 155.12 C 170.76 154.94 169.65 155.76 169.47 156.95 L 169.30 158.07 C 169.13 159.26 169.95 160.37 171.14 160.55 C 172.32 160.73 173.43 159.91 173.61 158.72 Z M 173.80 157.51 L 173.92 156.46 C 174.05 155.26 173.19 154.18 171.99 154.04 C 170.79 153.91 169.70 154.77 169.57 155.97 L 169.45 157.03 C 169.32 158.23 170.18 159.31 171.38 159.44 C 172.58 159.58 173.66 158.71 173.80 157.51 Z M 173.93 156.39 L 174.01 155.36 C 174.11 154.15 173.20 153.09 171.99 153.00 C 170.78 152.91 169.73 153.81 169.63 155.02 L 169.55 156.05 C 169.46 157.26 170.36 158.31 171.57 158.41 C 172.78 158.50 173.84 157.60 173.93 156.39 Z M 174.03 155.29 L 174.07 154.25 C 174.13 153.03 173.18 152.00 171.97 151.95 C 170.75 151.89 169.72 152.83 169.67 154.05 L 169.62 155.09 C 169.56 156.31 170.51 157.34 171.72 157.39 C 172.94 157.45 173.97 156.51 174.03 155.29 Z M 174.08 154.17 L 174.10 153.14 C 174.11 151.91 173.13 150.91 171.90 150.90 C 170.68 150.89 169.68 151.87 169.66 153.09 L 169.65 154.13 C 169.64 155.35 170.62 156.35 171.85 156.36 C 173.07 156.38 174.07 155.40 174.08 154.17 Z M 174.10 153.05 L 174.08 152.04 C 174.04 150.81 173.02 149.84 171.79 149.88 C 170.56 149.91 169.59 150.94 169.63 152.16 L 169.65 153.18 C 169.69 154.40 170.71 155.37 171.94 155.34 C 173.17 155.30 174.14 154.28 174.10 153.05 Z M 174.08 151.94 L 174.01 150.97 C 173.92 149.74 172.85 148.81 171.62 148.90 C 170.39 148.99 169.46 150.06 169.55 151.29 L 169.62 152.26 C 169.71 153.49 170.78 154.42 172.01 154.33 C 173.24 154.24 174.17 153.17 174.08 151.94 Z M 174.01 150.85 L 173.89 149.94 C 173.74 148.71 172.61 147.84 171.38 147.99 C 170.15 148.15 169.28 149.27 169.44 150.51 L 169.55 151.41 C 169.71 152.64 170.83 153.52 172.06 153.36 C 173.29 153.20 174.16 152.08 174.01 150.85 Z M 173.87 149.76 L 173.64 148.67 C 173.39 147.45 172.20 146.67 170.98 146.92 C 169.76 147.18 168.98 148.37 169.23 149.59 L 169.46 150.68 C 169.71 151.90 170.90 152.68 172.12 152.43 C 173.34 152.18 174.12 150.98 173.87 149.76 Z M 173.59 148.44 L 173.27 147.44 C 172.89 146.25 171.62 145.60 170.43 145.98 C 169.24 146.36 168.58 147.63 168.96 148.82 L 169.29 149.82 C 169.67 151.01 170.94 151.66 172.13 151.28 C 173.32 150.90 173.97 149.63 173.59 148.44 Z M 173.18 147.20 L 172.78 146.31 C 172.27 145.17 170.93 144.66 169.78 145.17 C 168.64 145.69 168.14 147.03 168.65 148.17 L 169.05 149.06 C 169.57 150.20 170.91 150.71 172.05 150.19 C 173.19 149.68 173.70 148.34 173.18 147.20 Z M 172.67 146.08 L 172.20 145.28 C 171.56 144.20 170.16 143.84 169.08 144.48 C 168.00 145.12 167.65 146.52 168.29 147.60 L 168.76 148.40 C 169.40 149.48 170.79 149.83 171.87 149.19 C 172.95 148.55 173.31 147.16 172.67 146.08 Z M 172.08 145.09 L 171.54 144.35 C 170.79 143.34 169.37 143.12 168.35 143.87 C 167.34 144.61 167.12 146.04 167.86 147.05 L 168.41 147.79 C 169.15 148.80 170.58 149.02 171.59 148.27 C 172.60 147.53 172.82 146.10 172.08 145.09 Z M 171.42 144.20 L 170.79 143.48 C 169.96 142.53 168.52 142.42 167.57 143.25 C 166.62 144.08 166.52 145.52 167.35 146.47 L 167.98 147.20 C 168.81 148.15 170.25 148.25 171.20 147.42 C 172.15 146.60 172.25 145.16 171.42 144.20 Z M 170.68 143.35 L 169.98 142.66 C 169.09 141.77 167.64 141.78 166.75 142.67 C 165.86 143.57 165.87 145.01 166.76 145.90 L 167.46 146.59 C 168.35 147.48 169.80 147.48 170.69 146.58 C 171.58 145.69 171.57 144.24 170.68 143.35 Z M 169.88 142.56 L 169.12 141.90 C 168.17 141.07 166.73 141.17 165.89 142.12 C 165.06 143.07 165.16 144.52 166.11 145.35 L 166.87 146.01 C 167.82 146.84 169.26 146.74 170.09 145.79 C 170.93 144.83 170.83 143.39 169.88 142.56 Z M 169.03 141.82 L 168.22 141.19 C 167.22 140.41 165.78 140.59 165.01 141.59 C 164.23 142.59 164.41 144.03 165.41 144.81 L 166.21 145.43 C 167.21 146.21 168.65 146.03 169.43 145.03 C 170.20 144.03 170.02 142.59 169.03 141.82 Z M 168.14 141.12 L 167.30 140.53 C 166.26 139.80 164.83 140.05 164.10 141.08 C 163.37 142.12 163.62 143.55 164.65 144.28 L 165.49 144.87 C 166.53 145.60 167.96 145.36 168.69 144.32 C 169.42 143.29 169.17 141.85 168.14 141.12 Z M 167.22 140.48 L 166.37 139.93 C 165.31 139.24 163.89 139.55 163.20 140.61 C 162.51 141.68 162.82 143.10 163.88 143.78 L 164.73 144.33 C 165.79 145.02 167.21 144.72 167.90 143.65 C 168.59 142.59 168.28 141.17 167.22 140.48 Z M 166.30 139.88 L 165.42 139.37 C 164.33 138.72 162.93 139.08 162.28 140.17 C 161.63 141.26 161.99 142.67 163.08 143.31 L 163.95 143.83 C 165.05 144.48 166.45 144.12 167.10 143.03 C 167.75 141.94 167.39 140.53 166.30 139.88 Z M 165.35 139.32 L 164.46 138.84 C 163.35 138.24 161.95 138.65 161.35 139.76 C 160.74 140.88 161.16 142.27 162.27 142.88 L 163.16 143.36 C 164.27 143.96 165.67 143.55 166.27 142.43 C 166.88 141.32 166.46 139.93 165.35 139.32 Z M 164.38 138.80 L 163.49 138.36 C 162.35 137.80 160.98 138.27 160.42 139.41 C 159.86 140.55 160.33 141.92 161.47 142.48 L 162.35 142.92 C 163.49 143.48 164.87 143.01 165.43 141.87 C 165.99 140.73 165.52 139.36 164.38 138.80 Z M 163.40 138.32 L 162.49 137.92 C 161.32 137.41 159.97 137.94 159.46 139.10 C 158.95 140.26 159.48 141.62 160.64 142.13 L 161.56 142.53 C 162.72 143.04 164.07 142.51 164.58 141.34 C 165.09 140.18 164.56 138.83 163.40 138.32 Z M 162.38 137.88 L 161.41 137.51 C 160.23 137.05 158.90 137.65 158.45 138.83 C 158.00 140.02 158.59 141.34 159.78 141.80 L 160.74 142.17 C 161.93 142.62 163.26 142.03 163.71 140.84 C 164.16 139.66 163.57 138.33 162.38 137.88 Z M 161.32 137.47 L 160.36 137.16 C 159.16 136.76 157.86 137.41 157.46 138.61 C 157.07 139.82 157.72 141.11 158.92 141.51 L 159.87 141.83 C 161.08 142.23 162.37 141.58 162.77 140.37 C 163.17 139.17 162.52 137.87 161.32 137.47 Z M 160.28 137.13 L 159.34 136.86 C 158.13 136.51 156.85 137.21 156.50 138.42 C 156.15 139.64 156.85 140.91 158.06 141.26 L 159.00 141.54 C 160.22 141.89 161.49 141.19 161.84 139.97 C 162.20 138.76 161.50 137.49 160.28 137.13 Z M 159.28 136.85 L 158.35 136.61 C 157.12 136.29 155.87 137.02 155.56 138.25 C 155.24 139.47 155.98 140.72 157.20 141.04 L 158.13 141.28 C 159.35 141.60 160.60 140.86 160.92 139.64 C 161.24 138.41 160.50 137.16 159.28 136.85 Z M 158.30 136.60 L 157.31 136.36 C 156.08 136.08 154.85 136.84 154.56 138.07 C 154.27 139.30 155.03 140.53 156.26 140.81 L 157.25 141.05 C 158.48 141.34 159.71 140.57 160.00 139.35 C 160.29 138.12 159.53 136.89 158.30 136.60 Z M 157.26 136.36 L 156.27 136.15 C 155.04 135.89 153.83 136.68 153.57 137.91 C 153.31 139.14 154.09 140.35 155.32 140.61 L 156.31 140.82 C 157.54 141.08 158.75 140.29 159.01 139.06 C 159.27 137.83 158.49 136.62 157.26 136.36 Z M 156.22 136.15 L 155.24 135.96 C 154.01 135.73 152.82 136.54 152.59 137.77 C 152.36 139.00 153.17 140.19 154.40 140.43 L 155.38 140.61 C 156.61 140.84 157.80 140.04 158.03 138.80 C 158.26 137.57 157.45 136.38 156.22 136.15 Z M 155.19 135.96 L 154.22 135.80 C 152.99 135.60 151.83 136.43 151.62 137.66 C 151.42 138.90 152.25 140.06 153.48 140.27 L 154.45 140.43 C 155.68 140.63 156.85 139.80 157.05 138.57 C 157.26 137.33 156.42 136.17 155.19 135.96 Z M 154.17 135.81 L 153.17 135.67 C 151.94 135.49 150.80 136.35 150.63 137.58 C 150.45 138.81 151.31 139.95 152.54 140.12 L 153.54 140.26 C 154.77 140.44 155.91 139.58 156.08 138.35 C 156.26 137.12 155.40 135.98 154.17 135.81 Z M 153.11 135.68 L 152.12 135.56 C 150.89 135.42 149.78 136.29 149.64 137.52 C 149.50 138.74 150.38 139.85 151.60 139.99 L 152.60 140.11 C 153.82 140.25 154.93 139.38 155.07 138.15 C 155.21 136.93 154.34 135.82 153.11 135.68 Z M 152.06 135.57 L 151.07 135.48 C 149.85 135.37 148.77 136.27 148.66 137.49 C 148.55 138.71 149.45 139.78 150.67 139.89 L 151.66 139.98 C 152.88 140.09 153.95 139.19 154.06 137.98 C 154.17 136.76 153.28 135.68 152.06 135.57 Z M 151.01 135.50 L 150.02 135.43 C 148.81 135.36 147.76 136.27 147.68 137.49 C 147.61 138.70 148.53 139.74 149.74 139.82 L 150.73 139.88 C 151.94 139.96 152.98 139.04 153.06 137.83 C 153.14 136.62 152.22 135.57 151.01 135.50 Z M 149.95 135.45 L 148.93 135.42 C 147.73 135.38 146.72 136.31 146.68 137.51 C 146.64 138.71 147.58 139.72 148.77 139.76 L 149.80 139.80 C 151.00 139.84 152.00 138.90 152.05 137.70 C 152.09 136.50 151.15 135.50 149.95 135.45 Z M 148.85 135.45 L 147.84 135.45 C 146.65 135.45 145.70 136.41 145.70 137.59 C 145.70 138.77 146.66 139.73 147.84 139.73 L 148.85 139.73 C 150.03 139.73 150.99 138.77 150.99 137.59 C 150.99 136.41 150.03 135.45 148.85 135.45 Z M 147.74 135.48 L 146.76 135.53 C 145.59 135.58 144.69 136.57 144.74 137.73 C 144.80 138.89 145.78 139.80 146.95 139.74 L 147.93 139.70 C 149.10 139.65 150.00 138.66 149.95 137.49 C 149.89 136.33 148.91 135.43 147.74 135.48 Z M 146.64 135.57 L 145.64 135.68 C 144.51 135.79 143.68 136.81 143.80 137.95 C 143.92 139.09 144.93 139.92 146.07 139.80 L 147.07 139.69 C 148.20 139.58 149.03 138.56 148.91 137.42 C 148.79 136.28 147.78 135.46 146.64 135.57 Z M 145.47 135.77 L 144.45 135.97 C 143.36 136.18 142.65 137.23 142.87 138.32 C 143.08 139.41 144.13 140.12 145.22 139.91 L 146.24 139.71 C 147.33 139.49 148.04 138.44 147.83 137.35 C 147.62 136.26 146.56 135.55 145.47 135.77 Z M 144.19 136.12 L 143.27 136.45 C 142.27 136.81 141.74 137.91 142.10 138.91 C 142.45 139.91 143.55 140.43 144.56 140.08 L 145.48 139.75 C 146.48 139.39 147.00 138.29 146.65 137.29 C 146.29 136.29 145.19 135.77 144.19 136.12 Z M 142.94 136.70 L 142.14 137.20 C 141.28 137.73 141.01 138.87 141.55 139.73 C 142.09 140.60 143.22 140.86 144.09 140.33 L 144.88 139.83 C 145.75 139.29 146.01 138.16 145.48 137.29 C 144.94 136.43 143.80 136.16 142.94 136.70 Z M 141.84 137.54 L 141.18 138.23 C 140.50 138.93 140.52 140.05 141.22 140.72 C 141.92 141.40 143.04 141.38 143.72 140.68 L 144.39 139.99 C 145.06 139.29 145.04 138.17 144.34 137.49 C 143.64 136.81 142.52 136.83 141.84 137.54 Z M 141.05 138.50 L 140.48 139.32 C 139.96 140.10 140.16 141.15 140.93 141.68 C 141.71 142.21 142.76 142.01 143.29 141.23 L 143.85 140.40 C 144.38 139.63 144.18 138.58 143.40 138.05 C 142.63 137.52 141.57 137.72 141.05 138.50 Z M 140.47 139.48 L 139.96 140.38 C 139.52 141.16 139.80 142.15 140.58 142.59 C 141.36 143.03 142.35 142.76 142.79 141.98 L 143.30 141.08 C 143.74 140.30 143.47 139.31 142.69 138.87 C 141.91 138.42 140.91 138.70 140.47 139.48 Z M 139.99 140.42 L 139.94 140.51 C 139.52 141.27 139.80 142.24 140.57 142.66 C 141.34 143.08 142.30 142.79 142.72 142.02 L 142.77 141.94 C 143.19 141.17 142.91 140.21 142.14 139.79 C 141.37 139.37 140.41 139.65 139.99 140.42 Z"
      fill="black"
      fill-rule="nonzero" /></svg>