<svg xmlns="http://www.w3.org/2000/svg" width="300" height="300" viewBox="0 0 300 300">
<path d="M 149.63 179.09 L 148.99 179.90 C 148.40 180.65 148.53 181.73 149.28 182.32 C 150.03 182.91 151.11 182.78 151.70 182.03 L 152.34 181.22 C 152.93 180.47 152.80 179.39 152.05 178.80 C 151.30 178.21 150.22 178.34 149.63 179.09 Z M 149.02 179.85 L 148.37 180.63 C 147.75 181.36 147.85 182.45 148.58 183.07 C 149.31 183.68 150.40 183.59 151.02 182.86 L 151.67 182.08 C 152.29 181.35 152.20 180.25 151.46 179.64 C 150.73 179.02 149.64 179.12 149.02 179.85 Z M 148.44 180.53 L 147.75 181.25 C 147.08 181.94 147.10 183.04 147.79 183.71 C 148.48 184.38 149.58 184.36 150.25 183.67 L 150.95 182.95 C 151.61 182.26 151.59 181.16 150.90 180.49 C 150.21 179.82 149.11 179.84 148.44 180.53 Z M 147.88 181.12 L 147.13 181.74 C 146.39 182.36 146.29 183.46 146.91 184.21 C 147.53 184.95 148.63 185.05 149.37 184.43 L 150.12 183.80 C 150.86 183.18 150.96 182.08 150.34 181.34 C 149.72 180.60 148.62 180.50 147.88 181.12 Z M 147.33 181.59 L 146.51 182.09 C 145.68 182.60 145.42 183.68 145.93 184.51 C 146.44 185.33 147.52 185.59 148.35 185.09 L 149.17 184.58 C 150.00 184.08 150.26 183.00 149.75 182.17 C 149.24 181.34 148.16 181.08 147.33 181.59 Z M 146.77 181.95 L 145.89 182.31 C 144.98 182.67 144.54 183.70 144.91 184.60 C 145.27 185.50 146.30 185.94 147.20 185.58 L 148.09 185.22 C 148.99 184.86 149.43 183.83 149.07 182.93 C 148.70 182.03 147.68 181.59 146.77 181.95 Z M 146.13 182.22 L 145.18 182.45 C 144.23 182.68 143.64 183.63 143.87 184.58 C 144.10 185.53 145.05 186.12 146.00 185.89 L 146.95 185.66 C 147.90 185.44 148.49 184.48 148.26 183.53 C 148.04 182.58 147.08 182.00 146.13 182.22 Z M 145.40 182.41 L 144.40 182.52 C 143.43 182.62 142.72 183.50 142.83 184.47 C 142.93 185.44 143.81 186.15 144.78 186.04 L 145.78 185.93 C 146.76 185.83 147.46 184.95 147.35 183.98 C 147.25 183.01 146.37 182.30 145.40 182.41 Z M 144.59 182.50 L 143.56 182.50 C 142.58 182.50 141.79 183.30 141.79 184.28 C 141.79 185.26 142.58 186.06 143.57 186.06 L 144.59 186.06 C 145.58 186.06 146.37 185.26 146.37 184.28 C 146.37 183.30 145.57 182.50 144.59 182.50 Z M 143.73 182.50 L 142.70 182.41 C 141.72 182.32 140.85 183.04 140.76 184.02 C 140.67 185.00 141.39 185.87 142.37 185.96 L 143.40 186.06 C 144.38 186.15 145.25 185.43 145.34 184.44 C 145.43 183.46 144.71 182.60 143.73 182.50 Z M 142.85 182.42 L 141.88 182.26 C 140.91 182.08 139.98 182.73 139.81 183.71 C 139.64 184.68 140.29 185.60 141.26 185.78 L 142.23 185.94 C 143.20 186.12 144.13 185.47 144.30 184.49 C 144.47 183.52 143.82 182.60 142.85 182.42 Z M 142.01 182.28 L 141.05 182.04 C 140.09 181.80 139.12 182.38 138.88 183.34 C 138.64 184.30 139.22 185.27 140.18 185.51 L 141.14 185.75 C 142.10 185.99 143.07 185.41 143.31 184.45 C 143.55 183.49 142.97 182.52 142.01 182.28 Z M 141.16 182.07 L 140.22 181.76 C 139.27 181.46 138.26 181.98 137.96 182.92 C 137.66 183.86 138.18 184.87 139.12 185.18 L 140.07 185.48 C 141.01 185.79 142.02 185.27 142.32 184.32 C 142.63 183.38 142.11 182.37 141.16 182.07 Z M 140.31 181.80 L 139.37 181.43 C 138.45 181.07 137.41 181.53 137.05 182.46 C 136.69 183.38 137.15 184.42 138.08 184.78 L 139.02 185.15 C 139.94 185.50 140.98 185.04 141.34 184.12 C 141.70 183.19 141.24 182.15 140.31 181.80 Z M 139.46 181.46 L 138.53 181.05 C 137.62 180.64 136.56 181.05 136.15 181.95 C 135.74 182.86 136.15 183.93 137.06 184.33 L 137.99 184.75 C 138.90 185.15 139.96 184.75 140.37 183.84 C 140.77 182.93 140.37 181.87 139.46 181.46 Z M 138.60 181.08 L 137.70 180.63 C 136.81 180.18 135.73 180.54 135.28 181.43 C 134.83 182.32 135.19 183.40 136.08 183.85 L 136.98 184.30 C 137.87 184.75 138.96 184.39 139.40 183.50 C 139.85 182.61 139.49 181.53 138.60 181.08 Z M 137.77 180.66 L 136.89 180.17 C 136.02 179.68 134.92 180.00 134.43 180.87 C 133.95 181.74 134.26 182.84 135.13 183.32 L 136.01 183.81 C 136.88 184.30 137.98 183.99 138.47 183.11 C 138.95 182.24 138.64 181.14 137.77 180.66 Z M 136.96 180.21 L 136.10 179.68 C 135.25 179.15 134.13 179.42 133.61 180.27 C 133.09 181.12 133.35 182.24 134.20 182.76 L 135.06 183.29 C 135.91 183.81 137.03 183.55 137.55 182.69 C 138.08 181.84 137.81 180.73 136.96 180.21 Z M 136.17 179.72 L 135.34 179.15 C 134.51 178.59 133.39 178.81 132.82 179.63 C 132.26 180.46 132.47 181.59 133.30 182.15 L 134.13 182.72 C 134.96 183.28 136.09 183.07 136.65 182.24 C 137.21 181.41 137.00 180.28 136.17 179.72 Z M 135.41 179.20 L 134.62 178.60 C 133.82 178.00 132.68 178.16 132.08 178.96 C 131.47 179.76 131.63 180.90 132.44 181.51 L 133.23 182.10 C 134.03 182.71 135.17 182.55 135.77 181.75 C 136.38 180.94 136.22 179.81 135.41 179.20 Z M 134.70 178.66 L 133.94 178.02 C 133.17 177.38 132.02 177.48 131.37 178.25 C 130.73 179.02 130.83 180.17 131.60 180.81 L 132.36 181.45 C 133.13 182.10 134.28 181.99 134.92 181.23 C 135.57 180.46 135.47 179.31 134.70 178.66 Z M 134.02 178.09 L 133.27 177.39 C 132.54 176.70 131.39 176.73 130.70 177.47 C 130.01 178.20 130.04 179.35 130.77 180.04 L 131.52 180.74 C 132.25 181.43 133.40 181.40 134.09 180.67 C 134.78 179.94 134.75 178.78 134.02 178.09 Z M 133.35 177.47 L 132.66 176.73 C 131.97 176.00 130.81 175.97 130.08 176.66 C 129.35 177.35 129.32 178.50 130.01 179.24 L 130.70 179.97 C 131.39 180.70 132.54 180.73 133.28 180.04 C 134.01 179.35 134.04 178.20 133.35 177.47 Z M 132.73 176.81 L 132.09 176.05 C 131.44 175.28 130.29 175.18 129.52 175.83 C 128.75 176.48 128.65 177.63 129.30 178.40 L 129.94 179.16 C 130.59 179.93 131.74 180.03 132.51 179.38 C 133.28 178.73 133.38 177.58 132.73 176.81 Z M 132.15 176.13 L 131.56 175.34 C 130.95 174.53 129.81 174.37 129.00 174.98 C 128.19 175.58 128.03 176.73 128.64 177.54 L 129.23 178.32 C 129.84 179.13 130.99 179.29 131.79 178.68 C 132.60 178.08 132.76 176.93 132.15 176.13 Z M 131.62 175.41 L 131.07 174.60 C 130.50 173.76 129.36 173.54 128.53 174.11 C 127.69 174.67 127.47 175.81 128.03 176.65 L 128.58 177.46 C 129.15 178.30 130.29 178.52 131.12 177.95 C 131.96 177.39 132.18 176.25 131.62 175.41 Z M 131.12 174.68 L 130.60 173.81 C 130.07 172.95 128.95 172.67 128.08 173.19 C 127.22 173.71 126.94 174.84 127.46 175.71 L 127.98 176.57 C 128.51 177.43 129.63 177.71 130.50 177.19 C 131.36 176.67 131.64 175.54 131.12 174.68 Z M 130.65 173.90 L 130.18 173.01 C 129.70 172.12 128.59 171.78 127.70 172.25 C 126.80 172.73 126.46 173.84 126.94 174.73 L 127.41 175.62 C 127.88 176.51 128.99 176.85 129.89 176.38 C 130.78 175.90 131.12 174.79 130.65 173.90 Z M 130.23 173.11 L 129.81 172.20 C 129.39 171.28 128.30 170.87 127.38 171.29 C 126.46 171.71 126.05 172.80 126.47 173.72 L 126.89 174.63 C 127.31 175.56 128.39 175.96 129.32 175.54 C 130.24 175.12 130.65 174.03 130.23 173.11 Z M 129.86 172.31 L 129.51 171.38 C 129.15 170.43 128.09 169.95 127.14 170.31 C 126.19 170.67 125.71 171.73 126.07 172.68 L 126.42 173.61 C 126.78 174.56 127.84 175.04 128.79 174.68 C 129.74 174.32 130.22 173.26 129.86 172.31 Z M 129.56 171.51 L 129.28 170.56 C 128.99 169.58 127.96 169.03 126.99 169.31 C 126.01 169.60 125.46 170.63 125.74 171.60 L 126.02 172.55 C 126.31 173.53 127.34 174.08 128.31 173.80 C 129.29 173.51 129.84 172.48 129.56 171.51 Z M 129.31 170.70 L 129.11 169.73 C 128.90 168.73 127.92 168.09 126.92 168.30 C 125.92 168.52 125.29 169.50 125.50 170.49 L 125.71 171.46 C 125.92 172.46 126.90 173.10 127.89 172.88 C 128.89 172.67 129.53 171.69 129.31 170.70 Z M 129.13 169.85 L 128.99 168.86 C 128.85 167.85 127.91 167.15 126.90 167.29 C 125.89 167.44 125.19 168.37 125.33 169.38 L 125.47 170.37 C 125.62 171.38 126.55 172.08 127.56 171.94 C 128.57 171.80 129.28 170.86 129.13 169.85 Z M 129.01 168.97 L 128.92 167.97 C 128.84 166.95 127.94 166.20 126.92 166.28 C 125.90 166.37 125.15 167.27 125.23 168.29 L 125.32 169.28 C 125.41 170.30 126.30 171.06 127.32 170.97 C 128.34 170.88 129.10 169.99 129.01 168.97 Z M 128.93 168.05 L 128.89 167.05 C 128.85 166.02 127.98 165.23 126.96 165.27 C 125.93 165.31 125.14 166.18 125.18 167.21 L 125.22 168.21 C 125.27 169.23 126.13 170.03 127.16 169.98 C 128.18 169.94 128.98 169.07 128.93 168.05 Z M 128.90 167.10 L 128.88 166.10 C 128.87 165.07 128.03 164.25 127.00 164.26 C 125.97 164.27 125.15 165.11 125.16 166.14 L 125.18 167.15 C 125.19 168.18 126.03 169.00 127.06 168.99 C 128.09 168.97 128.91 168.13 128.90 167.10 Z M 128.89 166.14 L 128.90 165.14 C 128.90 164.11 128.08 163.27 127.05 163.26 C 126.02 163.25 125.18 164.08 125.17 165.11 L 125.16 166.10 C 125.15 167.13 125.98 167.97 127.01 167.98 C 128.04 167.99 128.88 167.17 128.89 166.14 Z M 128.90 165.19 L 128.93 164.20 C 128.97 163.17 128.17 162.30 127.14 162.27 C 126.11 162.23 125.24 163.03 125.20 164.06 L 125.17 165.06 C 125.13 166.09 125.93 166.95 126.96 166.99 C 127.99 167.03 128.86 166.22 128.90 165.19 Z M 128.93 164.27 L 129.01 163.28 C 129.09 162.25 128.32 161.35 127.29 161.27 C 126.26 161.20 125.36 161.97 125.28 163.00 L 125.20 163.99 C 125.13 165.02 125.90 165.92 126.93 166.00 C 127.96 166.08 128.85 165.30 128.93 164.27 Z M 129.00 163.38 L 129.13 162.38 C 129.26 161.36 128.53 160.42 127.51 160.29 C 126.48 160.16 125.54 160.88 125.41 161.91 L 125.29 162.90 C 125.16 163.93 125.88 164.87 126.91 165.00 C 127.93 165.13 128.87 164.40 129.00 163.38 Z M 129.11 162.50 L 129.30 161.50 C 129.50 160.49 128.83 159.50 127.81 159.31 C 126.79 159.12 125.81 159.78 125.62 160.80 L 125.43 161.80 C 125.23 162.81 125.90 163.80 126.92 163.99 C 127.94 164.18 128.92 163.51 129.11 162.50 Z M 129.28 161.63 L 129.53 160.67 C 129.79 159.67 129.19 158.64 128.18 158.38 C 127.18 158.12 126.15 158.72 125.89 159.72 L 125.64 160.68 C 125.38 161.68 125.98 162.71 126.98 162.97 C 127.99 163.23 129.01 162.63 129.28 161.63 Z M 129.49 160.79 L 129.80 159.85 C 130.13 158.86 129.60 157.80 128.61 157.47 C 127.63 157.15 126.57 157.68 126.24 158.67 L 125.93 159.61 C 125.60 160.59 126.13 161.66 127.12 161.98 C 128.10 162.31 129.17 161.78 129.49 160.79 Z M 129.77 159.95 L 130.14 159.02 C 130.52 158.06 130.05 156.97 129.09 156.58 C 128.12 156.20 127.03 156.67 126.65 157.63 L 126.28 158.56 C 125.89 159.53 126.36 160.62 127.33 161.00 C 128.29 161.39 129.38 160.92 129.77 159.95 Z M 130.10 159.12 L 130.52 158.20 C 130.96 157.26 130.55 156.14 129.61 155.71 C 128.67 155.27 127.55 155.68 127.11 156.62 L 126.69 157.54 C 126.25 158.48 126.66 159.59 127.60 160.03 C 128.54 160.47 129.66 160.06 130.10 159.12 Z M 130.48 158.29 L 130.95 157.40 C 131.43 156.48 131.08 155.34 130.16 154.86 C 129.25 154.37 128.11 154.72 127.63 155.64 L 127.15 156.53 C 126.67 157.45 127.02 158.59 127.94 159.07 C 128.86 159.56 129.99 159.21 130.48 158.29 Z M 130.90 157.48 L 131.41 156.62 C 131.94 155.72 131.65 154.57 130.76 154.04 C 129.86 153.51 128.71 153.81 128.18 154.70 L 127.67 155.56 C 127.14 156.45 127.44 157.61 128.33 158.14 C 129.22 158.66 130.38 158.37 130.90 157.48 Z M 131.37 156.69 L 131.91 155.86 C 132.48 154.99 132.24 153.83 131.37 153.26 C 130.50 152.69 129.34 152.93 128.77 153.80 L 128.23 154.63 C 127.66 155.49 127.90 156.66 128.77 157.23 C 129.63 157.80 130.80 157.56 131.37 156.69 Z M 131.87 155.92 L 132.45 155.12 C 133.05 154.27 132.86 153.10 132.01 152.49 C 131.17 151.89 129.99 152.08 129.39 152.93 L 128.81 153.73 C 128.21 154.58 128.40 155.75 129.25 156.36 C 130.09 156.96 131.27 156.77 131.87 155.92 Z M 132.41 155.17 L 133.02 154.38 C 133.65 153.56 133.50 152.37 132.67 151.74 C 131.85 151.11 130.67 151.26 130.03 152.09 L 129.43 152.88 C 128.79 153.70 128.95 154.88 129.77 155.51 C 130.60 156.15 131.78 155.99 132.41 155.17 Z M 132.99 154.42 L 133.62 153.64 C 134.28 152.84 134.16 151.65 133.35 150.99 C 132.55 150.34 131.36 150.46 130.70 151.26 L 130.07 152.04 C 129.41 152.85 129.53 154.03 130.34 154.69 C 131.14 155.35 132.33 155.23 132.99 154.42 Z M 133.59 153.68 L 134.25 152.90 C 134.93 152.11 134.84 150.92 134.04 150.25 C 133.25 149.57 132.06 149.67 131.39 150.46 L 130.73 151.23 C 130.05 152.02 130.15 153.21 130.94 153.89 C 131.73 154.56 132.92 154.47 133.59 153.68 Z M 134.23 152.93 L 134.89 152.18 C 135.58 151.40 135.51 150.21 134.73 149.52 C 133.95 148.83 132.76 148.91 132.07 149.69 L 131.41 150.43 C 130.72 151.21 130.79 152.40 131.57 153.09 C 132.35 153.78 133.54 153.71 134.23 152.93 Z M 134.87 152.21 L 135.55 151.47 C 136.25 150.71 136.20 149.51 135.44 148.81 C 134.67 148.10 133.48 148.15 132.77 148.92 L 132.09 149.66 C 131.39 150.43 131.44 151.62 132.20 152.32 C 132.97 153.03 134.16 152.98 134.87 152.21 Z M 135.52 151.51 L 136.22 150.78 C 136.94 150.03 136.92 148.83 136.16 148.11 C 135.41 147.39 134.22 147.41 133.49 148.16 L 132.80 148.89 C 132.08 149.64 132.10 150.84 132.85 151.56 C 133.60 152.28 134.80 152.26 135.52 151.51 Z M 136.18 150.81 L 136.90 150.11 C 137.64 149.37 137.65 148.18 136.91 147.44 C 136.18 146.70 134.98 146.69 134.24 147.42 L 133.53 148.13 C 132.79 148.86 132.78 150.06 133.51 150.80 C 134.25 151.54 135.44 151.55 136.18 150.81 Z M 136.86 150.15 L 137.59 149.47 C 138.35 148.75 138.39 147.56 137.68 146.79 C 136.97 146.03 135.77 145.99 135.01 146.70 L 134.28 147.38 C 133.52 148.10 133.48 149.29 134.19 150.06 C 134.90 150.82 136.10 150.86 136.86 150.15 Z M 137.54 149.51 L 138.30 148.85 C 139.09 148.16 139.17 146.97 138.48 146.18 C 137.80 145.39 136.60 145.31 135.82 146.00 L 135.06 146.66 C 134.27 147.35 134.19 148.54 134.87 149.33 C 135.56 150.12 136.76 150.20 137.54 149.51 Z M 138.25 148.89 L 139.04 148.25 C 139.86 147.59 139.98 146.40 139.32 145.59 C 138.66 144.78 137.47 144.65 136.66 145.31 L 135.87 145.95 C 135.05 146.61 134.93 147.80 135.59 148.61 C 136.25 149.43 137.44 149.55 138.25 148.89 Z M 138.99 148.30 L 139.79 147.69 C 140.63 147.06 140.80 145.87 140.17 145.04 C 139.54 144.20 138.35 144.03 137.52 144.66 L 136.71 145.27 C 135.87 145.90 135.71 147.08 136.34 147.92 C 136.96 148.76 138.15 148.93 138.99 148.30 Z M 139.74 147.73 L 140.56 147.16 C 141.42 146.56 141.63 145.38 141.03 144.52 C 140.43 143.66 139.24 143.45 138.39 144.05 L 137.57 144.62 C 136.71 145.22 136.50 146.40 137.10 147.26 C 137.70 148.12 138.88 148.33 139.74 147.73 Z M 140.51 147.20 L 141.33 146.66 C 142.21 146.09 142.46 144.91 141.89 144.03 C 141.32 143.15 140.14 142.90 139.26 143.47 L 138.44 144.01 C 137.56 144.58 137.31 145.76 137.88 146.64 C 138.45 147.52 139.63 147.77 140.51 147.20 Z M 141.28 146.70 L 142.12 146.19 C 143.02 145.65 143.31 144.48 142.77 143.58 C 142.22 142.68 141.05 142.39 140.15 142.93 L 139.32 143.44 C 138.42 143.98 138.13 145.15 138.67 146.05 C 139.22 146.95 140.38 147.24 141.28 146.70 Z M 142.07 146.22 L 142.96 145.72 C 143.88 145.21 144.20 144.05 143.69 143.13 C 143.18 142.22 142.02 141.89 141.10 142.40 L 140.21 142.90 C 139.29 143.41 138.96 144.57 139.48 145.49 C 139.99 146.41 141.15 146.74 142.07 146.22 Z M 142.89 145.76 L 143.79 145.31 C 144.73 144.83 145.10 143.69 144.63 142.75 C 144.15 141.81 143.01 141.43 142.07 141.91 L 141.17 142.36 C 140.23 142.84 139.85 143.98 140.33 144.92 C 140.80 145.86 141.95 146.24 142.89 145.76 Z M 143.70 145.35 L 144.61 144.94 C 145.58 144.52 146.01 143.39 145.58 142.43 C 145.16 141.47 144.03 141.03 143.07 141.46 L 142.16 141.87 C 141.19 142.29 140.76 143.42 141.19 144.38 C 141.61 145.34 142.74 145.77 143.70 145.35 Z M 144.51 144.99 L 145.43 144.64 C 146.42 144.27 146.92 143.18 146.55 142.19 C 146.18 141.20 145.09 140.70 144.10 141.07 L 143.18 141.42 C 142.19 141.78 141.69 142.88 142.06 143.87 C 142.42 144.85 143.52 145.36 144.51 144.99 Z M 145.31 144.68 L 146.25 144.41 C 147.26 144.11 147.84 143.05 147.54 142.04 C 147.24 141.03 146.18 140.45 145.17 140.75 L 144.23 141.03 C 143.22 141.33 142.64 142.39 142.94 143.40 C 143.24 144.41 144.30 144.98 145.31 144.68 Z M 146.11 144.44 L 147.07 144.24 C 148.10 144.01 148.76 143.00 148.54 141.97 C 148.32 140.94 147.30 140.29 146.27 140.51 L 145.31 140.71 C 144.28 140.93 143.63 141.95 143.85 142.98 C 144.07 144.01 145.08 144.66 146.11 144.44 Z M 146.94 144.26 L 147.92 144.12 C 148.96 143.98 149.69 143.01 149.54 141.97 C 149.39 140.93 148.43 140.20 147.39 140.35 L 146.41 140.48 C 145.37 140.63 144.64 141.59 144.79 142.64 C 144.93 143.68 145.90 144.40 146.94 144.26 Z M 147.80 144.13 L 148.79 144.06 C 149.84 143.98 150.63 143.06 150.54 142.01 C 150.46 140.96 149.55 140.18 148.50 140.26 L 147.51 140.34 C 146.46 140.42 145.67 141.33 145.75 142.38 C 145.84 143.43 146.75 144.21 147.80 144.13 Z M 148.69 144.06 L 149.70 144.04 C 150.75 144.01 151.58 143.14 151.55 142.09 C 151.53 141.04 150.66 140.21 149.61 140.23 L 148.60 140.26 C 147.55 140.28 146.72 141.15 146.74 142.20 C 146.77 143.25 147.64 144.08 148.69 144.06 Z M 149.62 144.04 L 150.63 144.05 C 151.68 144.08 152.55 143.24 152.57 142.19 C 152.59 141.14 151.76 140.27 150.71 140.25 L 149.69 140.23 C 148.64 140.21 147.77 141.05 147.75 142.10 C 147.73 143.15 148.57 144.01 149.62 144.04 Z M 150.56 144.05 L 151.57 144.11 C 152.62 144.17 153.51 143.37 153.57 142.32 C 153.63 141.27 152.83 140.37 151.78 140.31 L 150.78 140.26 C 149.73 140.20 148.83 141.00 148.77 142.05 C 148.71 143.10 149.51 143.99 150.56 144.05 Z M 151.48 144.10 L 152.48 144.21 C 153.52 144.31 154.46 143.55 154.57 142.51 C 154.67 141.46 153.92 140.53 152.87 140.42 L 151.87 140.32 C 150.83 140.21 149.89 140.97 149.78 142.02 C 149.68 143.06 150.43 143.99 151.48 144.10 Z M 152.36 144.19 L 153.35 144.36 C 154.38 144.53 155.37 143.83 155.54 142.80 C 155.71 141.76 155.01 140.78 153.98 140.60 L 152.99 140.44 C 151.95 140.26 150.97 140.96 150.80 142.00 C 150.63 143.03 151.33 144.02 152.36 144.19 Z M 153.20 144.32 L 154.16 144.57 C 155.18 144.83 156.21 144.21 156.47 143.19 C 156.73 142.17 156.11 141.14 155.10 140.88 L 154.13 140.64 C 153.11 140.38 152.08 140.99 151.82 142.01 C 151.56 143.03 152.18 144.07 153.20 144.32 Z M 153.98 144.51 L 154.91 144.85 C 155.89 145.21 156.99 144.70 157.35 143.72 C 157.71 142.73 157.20 141.64 156.21 141.28 L 155.28 140.94 C 154.29 140.58 153.20 141.09 152.84 142.07 C 152.48 143.06 152.99 144.15 153.98 144.51 Z M 154.70 144.76 L 155.57 145.20 C 156.51 145.68 157.66 145.30 158.13 144.36 C 158.60 143.42 158.23 142.28 157.29 141.81 L 156.42 141.37 C 155.48 140.89 154.33 141.27 153.86 142.21 C 153.39 143.14 153.76 144.29 154.70 144.76 Z M 155.39 145.10 L 156.22 145.63 C 157.10 146.21 158.27 145.96 158.85 145.08 C 159.42 144.20 159.17 143.02 158.29 142.45 L 157.47 141.91 C 156.59 141.34 155.41 141.59 154.84 142.47 C 154.26 143.35 154.51 144.52 155.39 145.10 Z M 156.08 145.53 L 156.86 146.15 C 157.69 146.80 158.88 146.66 159.53 145.83 C 160.18 145.00 160.04 143.81 159.21 143.16 L 158.43 142.54 C 157.60 141.89 156.41 142.04 155.76 142.86 C 155.11 143.69 155.25 144.89 156.08 145.53 Z M 156.76 146.06 L 157.51 146.74 C 158.28 147.45 159.49 147.39 160.19 146.61 C 160.90 145.83 160.84 144.63 160.06 143.92 L 159.31 143.25 C 158.54 142.54 157.33 142.60 156.63 143.38 C 155.92 144.16 155.98 145.36 156.76 146.06 Z M 157.43 146.67 L 158.15 147.39 C 158.89 148.14 160.10 148.14 160.84 147.40 C 161.59 146.66 161.59 145.46 160.85 144.71 L 160.13 143.99 C 159.39 143.25 158.19 143.24 157.44 143.98 C 156.70 144.72 156.69 145.93 157.43 146.67 Z M 158.10 147.34 L 158.79 148.09 C 159.50 148.86 160.70 148.91 161.48 148.19 C 162.25 147.48 162.30 146.28 161.58 145.51 L 160.90 144.76 C 160.19 143.99 158.98 143.94 158.21 144.66 C 157.44 145.37 157.39 146.57 158.10 147.34 Z M 158.75 148.05 L 159.40 148.80 C 160.09 149.59 161.30 149.67 162.09 148.98 C 162.88 148.29 162.96 147.09 162.27 146.30 L 161.62 145.55 C 160.93 144.76 159.73 144.67 158.94 145.36 C 158.14 146.05 158.06 147.25 158.75 148.05 Z M 159.37 148.75 L 160.00 149.52 C 160.66 150.33 161.86 150.45 162.67 149.79 C 163.49 149.12 163.60 147.92 162.94 147.11 L 162.31 146.34 C 161.64 145.53 160.44 145.41 159.63 146.08 C 158.82 146.74 158.70 147.94 159.37 148.75 Z M 159.96 149.47 L 160.57 150.26 C 161.21 151.10 162.40 151.25 163.23 150.61 C 164.07 149.97 164.22 148.78 163.58 147.95 L 162.98 147.16 C 162.34 146.32 161.14 146.17 160.31 146.81 C 159.48 147.45 159.32 148.64 159.96 149.47 Z M 160.53 150.21 L 161.12 151.03 C 161.73 151.88 162.92 152.08 163.77 151.47 C 164.62 150.85 164.82 149.67 164.21 148.81 L 163.62 148.00 C 163.01 147.14 161.82 146.95 160.97 147.56 C 160.11 148.17 159.92 149.36 160.53 150.21 Z M 161.08 150.98 L 161.64 151.82 C 162.22 152.69 163.40 152.93 164.28 152.34 C 165.15 151.76 165.39 150.58 164.80 149.71 L 164.24 148.87 C 163.66 147.99 162.48 147.76 161.61 148.34 C 160.73 148.92 160.50 150.10 161.08 150.98 Z M 161.61 151.76 L 162.13 152.61 C 162.68 153.50 163.85 153.78 164.75 153.23 C 165.64 152.68 165.92 151.50 165.36 150.61 L 164.84 149.76 C 164.29 148.87 163.12 148.59 162.22 149.15 C 161.33 149.70 161.05 150.87 161.61 151.76 Z M 162.09 152.55 L 162.59 153.42 C 163.11 154.34 164.27 154.65 165.18 154.14 C 166.10 153.62 166.41 152.46 165.90 151.54 L 165.40 150.67 C 164.88 149.76 163.72 149.44 162.81 149.96 C 161.89 150.48 161.58 151.64 162.09 152.55 Z M 162.55 153.36 L 163.02 154.25 C 163.50 155.18 164.65 155.55 165.58 155.07 C 166.51 154.58 166.88 153.44 166.39 152.50 L 165.93 151.61 C 165.45 150.68 164.30 150.31 163.37 150.80 C 162.44 151.28 162.07 152.42 162.55 153.36 Z M 162.98 154.17 L 163.40 155.09 C 163.84 156.04 164.97 156.45 165.92 156.01 C 166.88 155.57 167.29 154.44 166.85 153.49 L 166.43 152.58 C 165.99 151.63 164.86 151.21 163.91 151.65 C 162.95 152.09 162.54 153.22 162.98 154.17 Z M 163.36 155.00 L 163.74 155.92 C 164.13 156.90 165.24 157.37 166.21 156.97 C 167.19 156.58 167.66 155.47 167.26 154.50 L 166.89 153.57 C 166.49 152.60 165.39 152.13 164.41 152.53 C 163.44 152.92 162.97 154.03 163.36 155.00 Z M 163.70 155.83 L 164.03 156.77 C 164.37 157.77 165.45 158.30 166.44 157.96 C 167.43 157.62 167.96 156.53 167.62 155.54 L 167.30 154.59 C 166.96 153.60 165.88 153.07 164.88 153.41 C 163.89 153.75 163.36 154.83 163.70 155.83 Z M 163.99 156.67 L 164.27 157.64 C 164.55 158.65 165.60 159.24 166.61 158.96 C 167.62 158.68 168.21 157.63 167.93 156.62 L 167.65 155.64 C 167.37 154.63 166.32 154.04 165.31 154.33 C 164.30 154.61 163.71 155.66 163.99 156.67 Z M 164.24 157.55 L 164.46 158.52 C 164.69 159.55 165.71 160.19 166.74 159.96 C 167.76 159.73 168.40 158.71 168.17 157.69 L 167.95 156.71 C 167.72 155.69 166.70 155.04 165.68 155.28 C 164.66 155.51 164.01 156.52 164.24 157.55 Z M 164.45 158.44 L 164.62 159.42 C 164.80 160.45 165.79 161.14 166.82 160.96 C 167.85 160.78 168.54 159.79 168.36 158.76 L 168.19 157.78 C 168.01 156.74 167.02 156.05 165.99 156.24 C 164.95 156.42 164.26 157.40 164.45 158.44 Z M 164.61 159.34 L 164.74 160.32 C 164.88 161.36 165.83 162.10 166.87 161.96 C 167.91 161.82 168.64 160.86 168.51 159.82 L 168.37 158.84 C 168.24 157.80 167.28 157.07 166.24 157.20 C 165.20 157.34 164.47 158.30 164.61 159.34 Z M 164.73 160.26 L 164.83 161.24 C 164.93 162.29 165.86 163.05 166.90 162.95 C 167.95 162.85 168.71 161.92 168.61 160.88 L 168.51 159.89 C 168.41 158.84 167.48 158.08 166.44 158.18 C 165.39 158.28 164.63 159.21 164.73 160.26 Z M 164.82 161.18 L 164.89 162.18 C 164.95 163.23 165.86 164.02 166.91 163.95 C 167.95 163.89 168.75 162.98 168.68 161.94 L 168.61 160.94 C 168.55 159.89 167.64 159.10 166.59 159.16 C 165.55 159.23 164.75 160.14 164.82 161.18 Z M 164.89 162.12 L 164.92 163.12 C 164.95 164.17 165.83 164.99 166.88 164.95 C 167.93 164.92 168.75 164.04 168.71 162.99 L 168.68 161.99 C 168.65 160.95 167.77 160.13 166.72 160.16 C 165.67 160.20 164.85 161.07 164.89 162.12 Z M 164.92 163.06 L 164.92 164.06 C 164.92 165.11 165.77 165.96 166.82 165.95 C 167.87 165.95 168.72 165.10 168.72 164.05 L 168.71 163.05 C 168.71 162.01 167.86 161.16 166.81 161.16 C 165.76 161.16 164.92 162.01 164.92 163.06 Z M 164.92 164.00 L 164.89 165.00 C 164.86 166.05 165.69 166.92 166.73 166.95 C 167.78 166.98 168.65 166.16 168.68 165.11 L 168.71 164.11 C 168.74 163.06 167.92 162.19 166.87 162.16 C 165.83 162.13 164.95 162.95 164.92 164.00 Z M 164.90 164.94 L 164.84 165.94 C 164.77 166.98 165.57 167.88 166.61 167.95 C 167.66 168.01 168.56 167.21 168.62 166.17 L 168.68 165.17 C 168.74 164.13 167.95 163.23 166.90 163.16 C 165.86 163.10 164.96 163.89 164.90 164.94 Z M 164.84 165.88 L 164.75 166.88 C 164.65 167.92 165.42 168.84 166.46 168.94 C 167.50 169.04 168.42 168.27 168.52 167.23 L 168.61 166.23 C 168.71 165.19 167.95 164.27 166.90 164.17 C 165.86 164.07 164.94 164.84 164.84 165.88 Z M 164.76 166.80 L 164.62 167.80 C 164.48 168.83 165.21 169.79 166.25 169.93 C 167.28 170.07 168.23 169.34 168.37 168.31 L 168.51 167.31 C 168.65 166.27 167.92 165.32 166.89 165.18 C 165.85 165.04 164.90 165.77 164.76 166.80 Z M 164.64 167.70 L 164.45 168.68 C 164.26 169.71 164.93 170.70 165.96 170.89 C 166.98 171.09 167.97 170.42 168.17 169.39 L 168.36 168.41 C 168.55 167.38 167.88 166.39 166.85 166.20 C 165.83 166.00 164.84 166.67 164.64 167.70 Z M 164.48 168.56 L 164.23 169.52 C 163.96 170.53 164.57 171.56 165.58 171.83 C 166.59 172.09 167.62 171.49 167.88 170.48 L 168.14 169.52 C 168.40 168.51 167.80 167.48 166.79 167.21 C 165.78 166.94 164.75 167.55 164.48 168.56 Z M 164.28 169.37 L 163.95 170.30 C 163.60 171.29 164.11 172.37 165.10 172.71 C 166.08 173.06 167.16 172.55 167.51 171.56 L 167.84 170.63 C 168.18 169.65 167.67 168.57 166.69 168.22 C 165.70 167.87 164.63 168.39 164.28 169.37 Z M 164.02 170.14 L 163.60 171.03 C 163.16 171.97 163.57 173.09 164.51 173.53 C 165.46 173.97 166.58 173.57 167.02 172.62 L 167.43 171.73 C 167.88 170.79 167.47 169.67 166.52 169.23 C 165.58 168.79 164.46 169.19 164.02 170.14 Z M 163.69 170.87 L 163.19 171.72 C 162.66 172.62 162.96 173.77 163.86 174.30 C 164.75 174.82 165.91 174.52 166.44 173.63 L 166.93 172.78 C 167.46 171.88 167.16 170.73 166.26 170.20 C 165.37 169.68 164.21 169.98 163.69 170.87 Z M 163.27 171.59 L 162.70 172.41 C 162.11 173.26 162.31 174.43 163.16 175.02 C 164.01 175.62 165.18 175.42 165.78 174.57 L 166.35 173.75 C 166.95 172.90 166.74 171.73 165.89 171.13 C 165.04 170.54 163.87 170.74 163.27 171.59 Z M 162.78 172.31 L 162.15 173.09 C 161.50 173.90 161.63 175.08 162.43 175.73 C 163.24 176.38 164.42 176.25 165.07 175.45 L 165.70 174.66 C 166.35 173.86 166.23 172.68 165.42 172.03 C 164.61 171.38 163.43 171.50 162.78 172.31 Z M 162.22 173.02 L 161.54 173.77 C 160.85 174.54 160.91 175.72 161.68 176.42 C 162.45 177.11 163.64 177.04 164.33 176.27 L 165.00 175.52 C 165.70 174.75 165.63 173.57 164.86 172.87 C 164.09 172.18 162.91 172.25 162.22 173.02 Z M 161.60 173.72 L 160.89 174.44 C 160.16 175.18 160.18 176.37 160.92 177.09 C 161.66 177.81 162.84 177.79 163.56 177.06 L 164.27 176.33 C 164.99 175.59 164.98 174.41 164.24 173.68 C 163.50 172.96 162.32 172.98 161.60 173.72 Z M 160.93 174.40 L 160.20 175.10 C 159.46 175.82 159.43 177.00 160.14 177.74 C 160.86 178.49 162.04 178.51 162.79 177.80 L 163.52 177.10 C 164.26 176.38 164.29 175.20 163.57 174.46 C 162.86 173.71 161.68 173.69 160.93 174.40 Z M 160.24 175.06 L 159.49 175.74 C 158.73 176.43 158.66 177.61 159.35 178.37 C 160.04 179.14 161.22 179.20 161.99 178.51 L 162.74 177.84 C 163.51 177.15 163.57 175.97 162.88 175.20 C 162.19 174.44 161.01 174.37 160.24 175.06 Z M 159.54 175.70 L 158.77 176.35 C 157.98 177.01 157.88 178.19 158.55 178.97 C 159.21 179.76 160.39 179.86 161.17 179.20 L 161.94 178.55 C 162.73 177.89 162.83 176.71 162.17 175.92 C 161.51 175.14 160.33 175.04 159.54 175.70 Z M 158.82 176.31 L 158.04 176.92 C 157.23 177.56 157.09 178.73 157.73 179.54 C 158.36 180.35 159.53 180.49 160.34 179.85 L 161.13 179.24 C 161.94 178.60 162.08 177.43 161.44 176.62 C 160.80 175.81 159.63 175.67 158.82 176.31 Z M 158.09 176.88 L 157.30 177.46 C 156.47 178.07 156.29 179.24 156.90 180.07 C 157.50 180.90 158.67 181.08 159.50 180.47 L 160.29 179.89 C 161.12 179.28 161.30 178.12 160.70 177.29 C 160.09 176.46 158.92 176.28 158.09 176.88 Z M 157.36 177.42 L 156.54 177.97 C 155.69 178.55 155.47 179.71 156.05 180.56 C 156.62 181.41 157.78 181.63 158.63 181.06 L 159.44 180.51 C 160.29 179.93 160.52 178.77 159.94 177.92 C 159.36 177.07 158.21 176.85 157.36 177.42 Z M 156.60 177.94 L 155.78 178.45 C 154.90 179.00 154.64 180.14 155.18 181.02 C 155.72 181.89 156.87 182.16 157.74 181.61 L 158.57 181.10 C 159.45 180.55 159.71 179.40 159.17 178.53 C 158.62 177.66 157.48 177.39 156.60 177.94 Z M 155.84 178.42 L 154.98 178.90 C 154.09 179.41 153.78 180.55 154.29 181.44 C 154.80 182.34 155.94 182.64 156.83 182.13 L 157.68 181.65 C 158.58 181.14 158.89 180.00 158.37 179.11 C 157.86 178.22 156.73 177.91 155.84 178.42 Z M 155.04 178.87 L 154.16 179.34 C 153.25 179.82 152.90 180.94 153.38 181.85 C 153.86 182.76 154.98 183.11 155.89 182.63 L 156.77 182.17 C 157.68 181.69 158.03 180.56 157.55 179.65 C 157.08 178.75 155.95 178.40 155.04 178.87 Z M 154.21 179.31 L 153.29 179.76 C 152.36 180.21 151.98 181.32 152.43 182.24 C 152.87 183.17 153.98 183.55 154.91 183.11 L 155.83 182.66 C 156.76 182.21 157.14 181.10 156.70 180.17 C 156.25 179.25 155.14 178.86 154.21 179.31 Z M 153.34 179.74 L 152.43 180.14 C 151.50 180.56 151.08 181.66 151.50 182.60 C 151.92 183.54 153.02 183.95 153.95 183.53 L 154.86 183.13 C 155.80 182.71 156.21 181.61 155.79 180.67 C 155.37 179.73 154.27 179.32 153.34 179.74 Z M 152.48 180.12 L 151.61 180.49 C 150.66 180.88 150.21 181.97 150.61 182.91 C 151.00 183.86 152.09 184.31 153.04 183.91 L 153.91 183.55 C 154.85 183.16 155.30 182.07 154.91 181.13 C 154.51 180.18 153.43 179.73 152.48 180.12 Z M 151.67 180.47 L 150.76 180.81 C 149.80 181.17 149.32 182.24 149.68 183.20 C 150.04 184.16 151.11 184.64 152.07 184.28 L 152.98 183.94 C 153.94 183.57 154.42 182.50 154.06 181.54 C 153.69 180.58 152.62 180.10 151.67 180.47 Z M 150.82 180.79 L 149.88 181.11 C 148.91 181.43 148.38 182.48 148.71 183.45 C 149.04 184.42 150.09 184.95 151.06 184.62 L 152.00 184.30 C 152.97 183.98 153.50 182.92 153.17 181.95 C 152.84 180.98 151.79 180.46 150.82 180.79 Z M 149.95 181.08 L 148.97 181.37 C 147.99 181.65 147.42 182.68 147.70 183.66 C 147.99 184.64 149.01 185.21 150.00 184.93 L 150.98 184.64 C 151.96 184.36 152.53 183.33 152.25 182.35 C 151.96 181.37 150.94 180.80 149.95 181.08 Z M 149.06 181.35 L 148.04 181.59 C 147.04 181.82 146.43 182.82 146.66 183.82 C 146.90 184.81 147.90 185.43 148.89 185.19 L 149.91 184.95 C 150.90 184.71 151.52 183.71 151.28 182.72 C 151.05 181.73 150.05 181.11 149.06 181.35 Z M 148.13 181.57 L 147.11 181.76 C 146.11 181.94 145.44 182.90 145.62 183.91 C 145.81 184.91 146.77 185.57 147.77 185.39 L 148.79 185.21 C 149.80 185.02 150.46 184.06 150.28 183.06 C 150.10 182.05 149.14 181.39 148.13 181.57 Z M 147.20 181.76 L 146.25 181.88 C 145.25 182.01 144.54 182.93 144.67 183.94 C 144.80 184.94 145.72 185.65 146.73 185.52 L 147.68 185.39 C 148.68 185.26 149.39 184.34 149.26 183.34 C 149.13 182.33 148.21 181.62 147.20 181.76 Z M 146.32 181.89 L 145.35 181.98 C 144.35 182.07 143.62 182.95 143.71 183.95 C 143.80 184.95 144.68 185.68 145.68 185.59 L 146.65 185.51 C 147.65 185.42 148.39 184.53 148.29 183.54 C 148.20 182.54 147.32 181.80 146.32 181.89 Z M 145.41 182.00 L 144.41 182.06 C 143.43 182.11 142.67 182.96 142.73 183.95 C 142.79 184.94 143.64 185.69 144.63 185.64 L 145.62 185.58 C 146.61 185.52 147.36 184.67 147.30 183.68 C 147.25 182.69 146.40 181.94 145.41 182.00 Z M 144.46 182.07 L 143.45 182.11 C 142.47 182.14 141.71 182.96 141.74 183.94 C 141.77 184.92 142.59 185.69 143.57 185.65 L 144.58 185.62 C 145.56 185.58 146.33 184.76 146.29 183.79 C 146.26 182.81 145.44 182.04 144.46 182.07 Z M 143.48 182.13 L 142.47 182.15 C 141.50 182.16 140.73 182.96 140.74 183.93 C 140.76 184.90 141.56 185.67 142.52 185.65 L 143.54 185.63 C 144.51 185.62 145.28 184.82 145.26 183.85 C 145.25 182.88 144.45 182.11 143.48 182.13 Z M 142.48 182.17 L 141.46 182.17 C 140.50 182.18 139.73 182.96 139.74 183.91 C 139.74 184.87 140.52 185.64 141.48 185.64 L 142.50 185.63 C 143.46 185.63 144.23 184.85 144.23 183.89 C 144.22 182.93 143.44 182.16 142.48 182.17 Z M 141.47 182.19 L 140.62 182.19 C 139.67 182.19 138.91 182.96 138.91 183.91 C 138.91 184.85 139.67 185.62 140.62 185.62 L 141.47 185.62 C 142.42 185.62 143.18 184.85 143.18 183.90 C 143.18 182.96 142.41 182.19 141.47 182.19 Z"
      fill="black"
      fill-rule="nonzero" /></svg>