<svg xmlns="http://www.w3.org/2000/svg" width="300" height="300" viewBox="0 0 300 300">
<path d="M 155.03 180.91 L 154.45 181.75 C 153.90 182.56 154.10 183.66 154.91 184.22 C 155.72 184.78 156.82 184.57 157.38 183.77 L 157.96 182.93 C 158.51 182.12 158.31 181.02 157.50 180.46 C 156.70 179.90 155.59 180.10 155.03 180.91 Z M 154.48 181.71 L 153.88 182.53 C 153.31 183.33 153.48 184.44 154.28 185.01 C 155.07 185.59 156.18 185.42 156.76 184.62 L 157.36 183.80 C 157.93 183.01 157.76 181.90 156.96 181.32 C 156.17 180.74 155.06 180.92 154.48 181.71 Z M 153.94 182.46 L 153.31 183.24 C 152.69 184.01 152.82 185.13 153.58 185.74 C 154.35 186.36 155.47 186.24 156.08 185.47 L 156.71 184.69 C 157.33 183.93 157.20 182.80 156.44 182.19 C 155.67 181.57 154.55 181.69 153.94 182.46 Z M 153.40 183.14 L 152.72 183.86 C 152.05 184.57 152.09 185.70 152.80 186.37 C 153.52 187.05 154.65 187.01 155.32 186.29 L 156.00 185.57 C 156.67 184.85 156.63 183.73 155.91 183.05 C 155.20 182.38 154.07 182.42 153.40 183.14 Z M 152.85 183.73 L 152.11 184.37 C 151.37 185.02 151.29 186.14 151.94 186.89 C 152.58 187.63 153.71 187.71 154.45 187.06 L 155.19 186.42 C 155.93 185.78 156.01 184.65 155.37 183.91 C 154.72 183.16 153.60 183.08 152.85 183.73 Z M 152.29 184.23 L 151.47 184.79 C 150.65 185.33 150.43 186.44 150.98 187.26 C 151.53 188.08 152.64 188.30 153.46 187.75 L 154.28 187.20 C 155.10 186.65 155.31 185.54 154.76 184.72 C 154.22 183.90 153.11 183.69 152.29 184.23 Z M 151.66 184.68 L 150.77 185.12 C 149.89 185.57 149.54 186.64 149.98 187.52 C 150.43 188.40 151.50 188.75 152.38 188.31 L 153.27 187.86 C 154.15 187.41 154.50 186.34 154.05 185.46 C 153.61 184.58 152.54 184.23 151.66 184.68 Z M 150.96 185.04 L 150.02 185.39 C 149.09 185.73 148.62 186.76 148.96 187.68 C 149.30 188.61 150.33 189.08 151.25 188.74 L 152.19 188.39 C 153.12 188.05 153.59 187.02 153.25 186.10 C 152.91 185.17 151.88 184.70 150.96 185.04 Z M 150.21 185.33 L 149.23 185.57 C 148.27 185.81 147.69 186.78 147.93 187.73 C 148.16 188.69 149.13 189.27 150.09 189.04 L 151.06 188.80 C 152.02 188.56 152.61 187.59 152.37 186.63 C 152.13 185.68 151.16 185.09 150.21 185.33 Z M 149.42 185.54 L 148.42 185.67 C 147.45 185.80 146.76 186.70 146.89 187.68 C 147.03 188.65 147.92 189.34 148.90 189.21 L 149.90 189.07 C 150.88 188.94 151.56 188.04 151.43 187.07 C 151.30 186.09 150.40 185.40 149.42 185.54 Z M 148.62 185.65 L 147.63 185.68 C 146.64 185.70 145.86 186.52 145.89 187.51 C 145.91 188.50 146.73 189.27 147.72 189.25 L 148.71 189.22 C 149.69 189.20 150.47 188.38 150.45 187.39 C 150.42 186.41 149.60 185.63 148.62 185.65 Z M 147.84 185.68 L 146.86 185.59 C 145.87 185.50 145.00 186.23 144.91 187.21 C 144.82 188.19 145.54 189.06 146.53 189.15 L 147.51 189.24 C 148.49 189.34 149.37 188.61 149.46 187.63 C 149.55 186.64 148.82 185.77 147.84 185.68 Z M 147.08 185.63 L 146.12 185.41 C 145.15 185.19 144.19 185.80 143.98 186.76 C 143.76 187.73 144.37 188.69 145.33 188.90 L 146.30 189.12 C 147.26 189.34 148.22 188.73 148.44 187.76 C 148.65 186.80 148.05 185.84 147.08 185.63 Z M 146.36 185.48 L 145.42 185.12 C 144.49 184.78 143.46 185.25 143.11 186.17 C 142.76 187.10 143.23 188.13 144.15 188.48 L 145.09 188.84 C 146.02 189.18 147.05 188.71 147.40 187.79 C 147.75 186.86 147.28 185.83 146.36 185.48 Z M 145.66 185.23 L 144.76 184.74 C 143.90 184.26 142.80 184.57 142.32 185.43 C 141.84 186.30 142.15 187.39 143.02 187.88 L 143.91 188.37 C 144.78 188.85 145.87 188.54 146.35 187.68 C 146.84 186.81 146.52 185.72 145.66 185.23 Z M 144.97 184.87 L 144.22 184.31 C 143.43 183.71 142.30 183.87 141.71 184.66 C 141.11 185.46 141.27 186.58 142.06 187.18 L 142.81 187.74 C 143.60 188.34 144.73 188.18 145.33 187.39 C 145.92 186.59 145.77 185.47 144.97 184.87 Z M 144.37 184.43 L 143.66 183.77 C 142.94 183.09 141.80 183.13 141.12 183.85 C 140.44 184.58 140.48 185.71 141.20 186.39 L 141.91 187.06 C 142.64 187.73 143.78 187.70 144.46 186.97 C 145.13 186.25 145.10 185.11 144.37 184.43 Z M 143.77 183.87 L 143.10 183.13 C 142.43 182.39 141.29 182.33 140.56 183.00 C 139.82 183.67 139.76 184.80 140.43 185.54 L 141.10 186.28 C 141.76 187.02 142.90 187.08 143.64 186.41 C 144.37 185.75 144.43 184.61 143.77 183.87 Z M 143.17 183.22 L 142.54 182.42 C 141.92 181.64 140.79 181.50 140.01 182.12 C 139.23 182.73 139.10 183.86 139.71 184.64 L 140.35 185.45 C 140.96 186.23 142.10 186.36 142.88 185.75 C 143.65 185.13 143.79 184.00 143.17 183.22 Z M 142.59 182.49 L 141.99 181.64 C 141.42 180.83 140.30 180.64 139.48 181.22 C 138.67 181.79 138.48 182.92 139.06 183.73 L 139.66 184.57 C 140.23 185.38 141.36 185.57 142.17 185.00 C 142.98 184.42 143.17 183.30 142.59 182.49 Z M 142.03 181.70 L 141.47 180.83 C 140.92 180.00 139.81 179.77 138.98 180.31 C 138.14 180.85 137.91 181.97 138.45 182.80 L 139.02 183.67 C 139.56 184.50 140.68 184.74 141.51 184.19 C 142.34 183.65 142.58 182.53 142.03 181.70 Z M 141.50 180.88 L 140.96 180.00 C 140.44 179.15 139.33 178.88 138.48 179.40 C 137.64 179.92 137.37 181.03 137.89 181.88 L 138.42 182.76 C 138.94 183.61 140.05 183.87 140.90 183.35 C 141.75 182.84 142.01 181.73 141.50 180.88 Z M 140.98 180.04 L 140.48 179.16 C 139.98 178.30 138.88 178.00 138.02 178.50 C 137.16 178.99 136.86 180.10 137.36 180.96 L 137.86 181.84 C 138.36 182.70 139.46 183.00 140.32 182.50 C 141.18 182.00 141.48 180.90 140.98 180.04 Z M 140.50 179.19 L 140.02 178.32 C 139.54 177.44 138.44 177.12 137.57 177.60 C 136.70 178.08 136.38 179.17 136.85 180.05 L 137.34 180.93 C 137.81 181.80 138.91 182.12 139.78 181.64 C 140.66 181.16 140.98 180.07 140.50 179.19 Z M 140.03 178.34 L 139.57 177.47 C 139.11 176.59 138.02 176.25 137.14 176.71 C 136.26 177.17 135.92 178.27 136.38 179.15 L 136.84 180.02 C 137.30 180.90 138.39 181.24 139.27 180.78 C 140.16 180.31 140.50 179.22 140.03 178.34 Z M 139.58 177.49 L 139.14 176.62 C 138.69 175.74 137.61 175.38 136.72 175.84 C 135.83 176.29 135.48 177.37 135.93 178.26 L 136.37 179.13 C 136.82 180.01 137.91 180.37 138.80 179.92 C 139.68 179.46 140.04 178.38 139.58 177.49 Z M 139.15 176.64 L 138.70 175.74 C 138.26 174.85 137.17 174.48 136.28 174.93 C 135.39 175.37 135.03 176.46 135.47 177.35 L 135.92 178.25 C 136.37 179.14 137.45 179.50 138.34 179.06 C 139.23 178.61 139.60 177.53 139.15 176.64 Z M 138.71 175.75 L 138.27 174.84 C 137.83 173.94 136.75 173.57 135.85 174.00 C 134.96 174.44 134.58 175.52 135.02 176.42 L 135.46 177.33 C 135.90 178.23 136.98 178.60 137.88 178.17 C 138.77 177.73 139.15 176.65 138.71 175.75 Z M 138.28 174.86 L 137.85 173.95 C 137.42 173.05 136.35 172.66 135.45 173.09 C 134.54 173.51 134.16 174.59 134.58 175.49 L 135.01 176.40 C 135.43 177.30 136.51 177.69 137.41 177.26 C 138.31 176.84 138.70 175.76 138.28 174.86 Z M 137.86 173.98 L 137.46 173.08 C 137.05 172.17 135.98 171.76 135.07 172.17 C 134.16 172.58 133.75 173.65 134.16 174.56 L 134.57 175.46 C 134.98 176.37 136.05 176.78 136.96 176.37 C 137.87 175.96 138.27 174.89 137.86 173.98 Z M 137.47 173.11 L 137.09 172.21 C 136.70 171.29 135.64 170.86 134.72 171.25 C 133.80 171.65 133.37 172.71 133.76 173.62 L 134.15 174.53 C 134.54 175.44 135.60 175.87 136.52 175.48 C 137.43 175.09 137.86 174.03 137.47 173.11 Z M 137.10 172.25 L 136.74 171.33 C 136.37 170.40 135.32 169.95 134.39 170.32 C 133.47 170.69 133.01 171.73 133.38 172.66 L 133.75 173.58 C 134.11 174.51 135.16 174.96 136.09 174.59 C 137.02 174.23 137.47 173.18 137.10 172.25 Z M 136.76 171.38 L 136.41 170.43 C 136.07 169.50 135.04 169.01 134.10 169.35 C 133.16 169.70 132.68 170.73 133.02 171.67 L 133.36 172.61 C 133.70 173.55 134.74 174.03 135.68 173.69 C 136.62 173.35 137.10 172.32 136.76 171.38 Z M 136.44 170.49 L 136.13 169.54 C 135.82 168.59 134.80 168.07 133.85 168.38 C 132.90 168.69 132.38 169.71 132.69 170.66 L 133.00 171.61 C 133.31 172.56 134.33 173.08 135.28 172.77 C 136.23 172.46 136.74 171.44 136.44 170.49 Z M 136.15 169.61 L 135.87 168.65 C 135.60 167.68 134.60 167.13 133.64 167.40 C 132.68 167.67 132.12 168.67 132.39 169.63 L 132.66 170.59 C 132.94 171.55 133.94 172.11 134.90 171.84 C 135.86 171.57 136.42 170.57 136.15 169.61 Z M 135.90 168.72 L 135.67 167.75 C 135.44 166.78 134.46 166.18 133.49 166.41 C 132.52 166.64 131.91 167.61 132.14 168.59 L 132.37 169.56 C 132.60 170.53 133.58 171.13 134.55 170.90 C 135.52 170.67 136.13 169.70 135.90 168.72 Z M 135.69 167.84 L 135.51 166.86 C 135.32 165.88 134.38 165.23 133.39 165.41 C 132.41 165.59 131.76 166.54 131.94 167.52 L 132.12 168.50 C 132.30 169.48 133.25 170.13 134.23 169.95 C 135.22 169.77 135.87 168.82 135.69 167.84 Z M 135.52 166.95 L 135.39 165.96 C 135.26 164.97 134.35 164.27 133.35 164.40 C 132.36 164.54 131.66 165.45 131.79 166.44 L 131.92 167.43 C 132.06 168.42 132.97 169.12 133.96 168.99 C 134.96 168.86 135.66 167.94 135.52 166.95 Z M 135.40 166.04 L 135.32 165.05 C 135.23 164.05 134.35 163.31 133.35 163.40 C 132.35 163.48 131.61 164.37 131.69 165.37 L 131.78 166.36 C 131.87 167.36 132.75 168.10 133.75 168.01 C 134.75 167.93 135.49 167.04 135.40 166.04 Z M 135.32 165.12 L 135.28 164.12 C 135.23 163.12 134.38 162.34 133.37 162.39 C 132.37 162.44 131.59 163.29 131.64 164.29 L 131.69 165.29 C 131.73 166.30 132.59 167.07 133.59 167.03 C 134.60 166.98 135.37 166.13 135.32 165.12 Z M 135.28 164.18 L 135.27 163.18 C 135.26 162.18 134.43 161.37 133.42 161.38 C 132.42 161.40 131.61 162.22 131.62 163.23 L 131.64 164.23 C 131.65 165.24 132.47 166.04 133.48 166.03 C 134.49 166.02 135.29 165.19 135.28 164.18 Z M 135.27 163.24 L 135.29 162.23 C 135.30 161.23 134.50 160.39 133.49 160.38 C 132.48 160.36 131.65 161.16 131.64 162.17 L 131.62 163.18 C 131.60 164.18 132.41 165.01 133.41 165.03 C 134.42 165.05 135.25 164.24 135.27 163.24 Z M 135.29 162.29 L 135.33 161.29 C 135.38 160.28 134.60 159.43 133.60 159.38 C 132.59 159.33 131.73 160.11 131.68 161.12 L 131.64 162.12 C 131.59 163.13 132.37 163.98 133.38 164.03 C 134.38 164.08 135.24 163.30 135.29 162.29 Z M 135.33 161.37 L 135.42 160.37 C 135.51 159.36 134.77 158.48 133.76 158.39 C 132.75 158.30 131.87 159.04 131.78 160.05 L 131.69 161.04 C 131.60 162.05 132.34 162.94 133.35 163.03 C 134.35 163.11 135.24 162.37 135.33 161.37 Z M 135.41 160.47 L 135.55 159.48 C 135.70 158.48 135.00 157.55 134.00 157.41 C 133.00 157.26 132.07 157.96 131.93 158.96 L 131.79 159.95 C 131.64 160.95 132.34 161.88 133.34 162.02 C 134.34 162.16 135.27 161.47 135.41 160.47 Z M 135.53 159.60 L 135.74 158.62 C 135.95 157.63 135.32 156.66 134.33 156.45 C 133.34 156.24 132.36 156.87 132.15 157.86 L 131.95 158.84 C 131.74 159.83 132.37 160.80 133.36 161.01 C 134.35 161.22 135.32 160.59 135.53 159.60 Z M 135.71 158.76 L 135.98 157.82 C 136.27 156.85 135.71 155.83 134.74 155.55 C 133.77 155.26 132.75 155.82 132.46 156.79 L 132.19 157.73 C 131.90 158.70 132.46 159.72 133.43 160.00 C 134.40 160.29 135.42 159.73 135.71 158.76 Z M 135.94 157.97 L 136.26 157.12 C 136.63 156.17 136.15 155.11 135.21 154.74 C 134.26 154.38 133.20 154.85 132.84 155.80 L 132.51 156.65 C 132.15 157.59 132.62 158.66 133.56 159.02 C 134.51 159.38 135.57 158.91 135.94 157.97 Z M 136.21 157.25 L 136.61 156.40 C 137.05 155.49 136.66 154.39 135.74 153.95 C 134.83 153.52 133.73 153.90 133.29 154.82 L 132.89 155.67 C 132.45 156.58 132.84 157.68 133.76 158.12 C 134.67 158.55 135.77 158.16 136.21 157.25 Z M 136.55 156.53 L 137.03 155.68 C 137.54 154.80 137.23 153.67 136.35 153.17 C 135.47 152.66 134.35 152.97 133.84 153.85 L 133.36 154.70 C 132.85 155.58 133.16 156.70 134.04 157.21 C 134.92 157.71 136.04 157.41 136.55 156.53 Z M 136.97 155.79 L 137.54 154.93 C 138.11 154.09 137.88 152.94 137.04 152.38 C 136.19 151.81 135.05 152.04 134.48 152.88 L 133.91 153.74 C 133.34 154.58 133.57 155.73 134.41 156.29 C 135.26 156.86 136.40 156.63 136.97 155.79 Z M 137.48 155.02 L 138.15 154.15 C 138.76 153.34 138.61 152.18 137.80 151.57 C 136.99 150.95 135.84 151.10 135.22 151.91 L 134.55 152.79 C 133.93 153.59 134.09 154.75 134.89 155.37 C 135.70 155.99 136.86 155.83 137.48 155.02 Z M 138.09 154.22 L 138.76 153.44 C 139.42 152.66 139.32 151.50 138.55 150.84 C 137.77 150.18 136.61 150.27 135.95 151.05 L 135.28 151.83 C 134.62 152.61 134.71 153.77 135.49 154.43 C 136.26 155.09 137.43 155.00 138.09 154.22 Z M 138.71 153.49 L 139.38 152.77 C 140.07 152.02 140.02 150.85 139.27 150.16 C 138.52 149.47 137.35 149.52 136.66 150.27 L 136.00 150.99 C 135.30 151.74 135.35 152.91 136.10 153.60 C 136.85 154.29 138.02 154.24 138.71 153.49 Z M 139.34 152.82 L 140.05 152.09 C 140.77 151.37 140.76 150.20 140.03 149.48 C 139.31 148.76 138.14 148.77 137.42 149.50 L 136.71 150.22 C 135.99 150.95 136.00 152.12 136.72 152.83 C 137.45 153.55 138.62 153.54 139.34 152.82 Z M 140.01 152.14 L 140.76 151.43 C 141.50 150.72 141.53 149.55 140.82 148.81 C 140.12 148.07 138.95 148.04 138.21 148.74 L 137.46 149.45 C 136.72 150.16 136.69 151.33 137.39 152.07 C 138.10 152.81 139.27 152.84 140.01 152.14 Z M 140.71 151.47 L 141.48 150.78 C 142.25 150.10 142.31 148.93 141.63 148.17 C 140.95 147.40 139.78 147.34 139.02 148.02 L 138.25 148.70 C 137.49 149.38 137.42 150.55 138.10 151.32 C 138.78 152.08 139.95 152.15 140.71 151.47 Z M 141.44 150.82 L 142.22 150.17 C 143.00 149.51 143.11 148.35 142.45 147.56 C 141.79 146.77 140.62 146.67 139.84 147.33 L 139.06 147.98 C 138.28 148.63 138.17 149.80 138.83 150.59 C 139.48 151.37 140.65 151.48 141.44 150.82 Z M 142.17 150.21 L 142.94 149.61 C 143.75 148.98 143.90 147.82 143.27 147.01 C 142.64 146.20 141.47 146.05 140.66 146.68 L 139.89 147.28 C 139.08 147.91 138.93 149.08 139.56 149.89 C 140.19 150.70 141.36 150.84 142.17 150.21 Z M 142.88 149.66 L 143.73 149.06 C 144.56 148.46 144.76 147.30 144.16 146.47 C 143.57 145.63 142.41 145.44 141.57 146.03 L 140.72 146.63 C 139.89 147.23 139.69 148.39 140.29 149.22 C 140.88 150.06 142.04 150.25 142.88 149.66 Z M 143.64 149.12 L 144.56 148.54 C 145.43 147.99 145.68 146.84 145.14 145.97 C 144.59 145.10 143.44 144.84 142.57 145.39 L 141.65 145.97 C 140.79 146.52 140.53 147.67 141.08 148.54 C 141.63 149.41 142.77 149.66 143.64 149.12 Z M 144.45 148.60 L 145.35 148.11 C 146.25 147.62 146.59 146.49 146.09 145.59 C 145.60 144.68 144.47 144.35 143.57 144.84 L 142.67 145.33 C 141.77 145.82 141.44 146.95 141.93 147.86 C 142.42 148.76 143.55 149.09 144.45 148.60 Z M 145.23 148.17 L 146.12 147.77 C 147.06 147.34 147.47 146.23 147.04 145.30 C 146.61 144.36 145.51 143.95 144.57 144.38 L 143.68 144.78 C 142.75 145.21 142.34 146.32 142.76 147.25 C 143.19 148.19 144.30 148.60 145.23 148.17 Z M 145.99 147.82 L 146.88 147.49 C 147.85 147.13 148.34 146.06 147.98 145.09 C 147.62 144.13 146.55 143.63 145.58 143.99 L 144.69 144.32 C 143.73 144.68 143.24 145.76 143.60 146.72 C 143.95 147.69 145.03 148.18 145.99 147.82 Z M 146.75 147.54 L 147.64 147.28 C 148.63 146.99 149.20 145.95 148.92 144.96 C 148.63 143.97 147.59 143.40 146.60 143.69 L 145.71 143.95 C 144.72 144.24 144.15 145.27 144.44 146.26 C 144.72 147.25 145.76 147.82 146.75 147.54 Z M 147.52 147.31 L 148.47 147.11 C 149.48 146.89 150.12 145.89 149.91 144.89 C 149.69 143.88 148.70 143.23 147.69 143.45 L 146.73 143.66 C 145.72 143.87 145.08 144.87 145.29 145.88 C 145.51 146.89 146.51 147.53 147.52 147.31 Z M 148.36 147.13 L 149.34 146.98 C 150.37 146.83 151.07 145.88 150.92 144.85 C 150.77 143.83 149.81 143.13 148.79 143.28 L 147.80 143.43 C 146.78 143.58 146.08 144.53 146.23 145.55 C 146.38 146.58 147.33 147.28 148.36 147.13 Z M 149.25 146.99 L 150.25 146.90 C 151.28 146.80 152.03 145.88 151.93 144.85 C 151.83 143.83 150.92 143.07 149.89 143.17 L 148.89 143.27 C 147.86 143.37 147.11 144.28 147.21 145.31 C 147.30 146.34 148.22 147.09 149.25 146.99 Z M 150.17 146.90 L 151.17 146.85 C 152.20 146.79 153.00 145.91 152.94 144.88 C 152.88 143.84 152.00 143.05 150.97 143.11 L 149.96 143.16 C 148.93 143.22 148.14 144.10 148.20 145.14 C 148.25 146.17 149.14 146.96 150.17 146.90 Z M 151.11 146.85 L 152.11 146.83 C 153.15 146.80 153.97 145.94 153.94 144.91 C 153.92 143.88 153.06 143.06 152.02 143.08 L 151.03 143.11 C 149.99 143.13 149.17 143.99 149.20 145.02 C 149.22 146.06 150.08 146.88 151.11 146.85 Z M 152.07 146.83 L 153.08 146.83 C 154.12 146.83 154.96 145.99 154.95 144.95 C 154.95 143.92 154.11 143.08 153.08 143.08 L 152.07 143.08 C 151.03 143.08 150.19 143.92 150.20 144.96 C 150.20 145.99 151.04 146.83 152.07 146.83 Z M 153.03 146.83 L 154.06 146.86 C 155.10 146.88 155.96 146.07 155.99 145.03 C 156.01 144.00 155.20 143.13 154.16 143.11 L 153.13 143.08 C 152.10 143.05 151.23 143.87 151.21 144.90 C 151.18 145.94 152.00 146.80 153.03 146.83 Z M 153.96 146.85 L 154.96 146.94 C 155.99 147.02 156.90 146.25 156.99 145.22 C 157.07 144.19 156.30 143.28 155.27 143.19 L 154.27 143.11 C 153.23 143.02 152.33 143.79 152.24 144.83 C 152.16 145.86 152.92 146.77 153.96 146.85 Z M 154.80 146.92 L 155.77 147.08 C 156.79 147.26 157.76 146.57 157.94 145.55 C 158.11 144.52 157.43 143.55 156.40 143.38 L 155.43 143.21 C 154.41 143.04 153.44 143.72 153.26 144.75 C 153.09 145.77 153.78 146.74 154.80 146.92 Z M 155.55 147.03 L 156.48 147.31 C 157.47 147.61 158.52 147.04 158.82 146.04 C 159.11 145.05 158.55 144.00 157.55 143.70 L 156.62 143.43 C 155.63 143.13 154.58 143.70 154.28 144.69 C 153.99 145.69 154.55 146.74 155.55 147.03 Z M 156.22 147.21 L 157.08 147.62 C 158.03 148.06 159.15 147.65 159.59 146.71 C 160.03 145.77 159.62 144.65 158.68 144.21 L 157.81 143.80 C 156.87 143.36 155.75 143.77 155.31 144.71 C 154.87 145.65 155.27 146.77 156.22 147.21 Z M 156.84 147.48 L 157.64 148.01 C 158.50 148.58 159.67 148.35 160.25 147.48 C 160.82 146.61 160.58 145.44 159.72 144.87 L 158.92 144.34 C 158.05 143.77 156.89 144.01 156.31 144.87 C 155.74 145.74 155.97 146.91 156.84 147.48 Z M 157.46 147.88 L 158.22 148.51 C 159.01 149.18 160.20 149.08 160.87 148.28 C 161.54 147.49 161.44 146.30 160.64 145.63 L 159.89 145.00 C 159.09 144.33 157.90 144.43 157.23 145.23 C 156.56 146.02 156.67 147.21 157.46 147.88 Z M 158.10 148.40 L 158.81 149.12 C 159.55 149.85 160.74 149.85 161.48 149.12 C 162.21 148.38 162.21 147.19 161.48 146.45 L 160.76 145.74 C 160.02 145.00 158.83 145.00 158.10 145.74 C 157.36 146.48 157.36 147.67 158.10 148.40 Z M 158.73 149.03 L 159.42 149.81 C 160.11 150.59 161.30 150.66 162.08 149.97 C 162.86 149.28 162.93 148.09 162.24 147.31 L 161.56 146.54 C 160.87 145.76 159.67 145.69 158.90 146.38 C 158.12 147.07 158.04 148.26 158.73 149.03 Z M 159.37 149.75 L 160.03 150.55 C 160.68 151.36 161.87 151.48 162.68 150.82 C 163.48 150.16 163.60 148.98 162.94 148.17 L 162.29 147.37 C 161.63 146.56 160.44 146.44 159.64 147.10 C 158.83 147.76 158.71 148.94 159.37 149.75 Z M 160.00 150.52 L 160.62 151.32 C 161.26 152.14 162.44 152.29 163.26 151.66 C 164.09 151.02 164.24 149.84 163.60 149.01 L 162.97 148.21 C 162.34 147.38 161.15 147.23 160.33 147.87 C 159.51 148.51 159.36 149.69 160.00 150.52 Z M 160.60 151.29 L 161.20 152.10 C 161.82 152.94 163.00 153.11 163.83 152.49 C 164.67 151.88 164.85 150.70 164.23 149.86 L 163.62 149.05 C 163.00 148.21 161.82 148.03 160.99 148.65 C 160.15 149.27 159.98 150.45 160.60 151.29 Z M 161.18 152.07 L 161.75 152.89 C 162.36 153.74 163.53 153.94 164.38 153.34 C 165.23 152.73 165.43 151.56 164.83 150.71 L 164.25 149.89 C 163.65 149.04 162.47 148.84 161.62 149.44 C 160.77 150.05 160.57 151.22 161.18 152.07 Z M 161.73 152.86 L 162.29 153.68 C 162.87 154.54 164.04 154.76 164.91 154.18 C 165.77 153.60 165.99 152.42 165.41 151.56 L 164.85 150.74 C 164.27 149.88 163.10 149.66 162.24 150.24 C 161.37 150.82 161.15 151.99 161.73 152.86 Z M 162.27 153.64 L 162.80 154.47 C 163.37 155.34 164.53 155.59 165.41 155.02 C 166.28 154.46 166.53 153.29 165.96 152.42 L 165.43 151.59 C 164.86 150.72 163.70 150.47 162.82 151.04 C 161.95 151.60 161.70 152.77 162.27 153.64 Z M 162.78 154.43 L 163.31 155.29 C 163.86 156.17 165.02 156.45 165.90 155.90 C 166.79 155.35 167.06 154.19 166.51 153.30 L 165.98 152.45 C 165.44 151.57 164.27 151.29 163.39 151.84 C 162.51 152.39 162.23 153.55 162.78 154.43 Z M 163.29 155.25 L 163.80 156.12 C 164.32 157.02 165.48 157.32 166.37 156.79 C 167.27 156.26 167.57 155.11 167.05 154.21 L 166.54 153.34 C 166.01 152.45 164.85 152.14 163.96 152.67 C 163.06 153.20 162.76 154.35 163.29 155.25 Z M 163.77 156.07 L 164.25 156.95 C 164.75 157.86 165.90 158.19 166.81 157.69 C 167.72 157.19 168.05 156.04 167.55 155.13 L 167.07 154.26 C 166.57 153.35 165.42 153.01 164.51 153.52 C 163.60 154.02 163.27 155.16 163.77 156.07 Z M 164.22 156.90 L 164.68 157.78 C 165.15 158.71 166.28 159.08 167.21 158.60 C 168.14 158.13 168.51 157.00 168.03 156.07 L 167.58 155.18 C 167.11 154.26 165.97 153.89 165.05 154.36 C 164.12 154.84 163.75 155.97 164.22 156.90 Z M 164.65 157.72 L 165.07 158.62 C 165.51 159.56 166.63 159.97 167.57 159.53 C 168.52 159.09 168.92 157.97 168.48 157.02 L 168.06 156.13 C 167.62 155.18 166.50 154.78 165.56 155.22 C 164.61 155.66 164.21 156.78 164.65 157.72 Z M 165.04 158.56 L 165.41 159.42 C 165.81 160.38 166.92 160.82 167.88 160.42 C 168.83 160.01 169.28 158.90 168.87 157.95 L 168.51 157.09 C 168.10 156.13 167.00 155.68 166.04 156.09 C 165.08 156.50 164.63 157.60 165.04 158.56 Z M 165.38 159.35 L 165.70 160.20 C 166.06 161.17 167.15 161.66 168.12 161.30 C 169.10 160.93 169.59 159.84 169.22 158.87 L 168.90 158.02 C 168.54 157.05 167.45 156.55 166.48 156.92 C 165.50 157.29 165.01 158.37 165.38 159.35 Z M 165.67 160.11 L 165.96 161.01 C 166.28 162.00 167.34 162.54 168.33 162.22 C 169.32 161.90 169.86 160.84 169.54 159.85 L 169.25 158.96 C 168.93 157.97 167.87 157.42 166.88 157.74 C 165.89 158.06 165.35 159.12 165.67 160.11 Z M 165.93 160.91 L 166.18 161.87 C 166.45 162.88 167.48 163.48 168.49 163.21 C 169.49 162.94 170.09 161.91 169.82 160.91 L 169.57 159.95 C 169.30 158.94 168.27 158.34 167.27 158.61 C 166.26 158.88 165.66 159.91 165.93 160.91 Z M 166.16 161.77 L 166.38 162.81 C 166.59 163.83 167.59 164.49 168.61 164.27 C 169.63 164.06 170.28 163.06 170.06 162.04 L 169.85 161.00 C 169.63 159.98 168.64 159.33 167.62 159.54 C 166.60 159.76 165.95 160.76 166.16 161.77 Z M 166.36 162.72 L 166.54 163.86 C 166.70 164.89 167.66 165.59 168.69 165.43 C 169.72 165.27 170.42 164.30 170.26 163.28 L 170.08 162.14 C 169.92 161.11 168.96 160.41 167.93 160.57 C 166.90 160.73 166.20 161.69 166.36 162.72 Z M 166.53 163.78 L 166.64 164.73 C 166.75 165.76 167.69 166.50 168.72 166.39 C 169.75 166.27 170.50 165.33 170.38 164.30 L 170.27 163.35 C 170.15 162.32 169.22 161.58 168.19 161.70 C 167.15 161.81 166.41 162.75 166.53 163.78 Z M 166.63 164.67 L 166.71 165.66 C 166.80 166.70 167.71 167.47 168.74 167.39 C 169.78 167.30 170.55 166.39 170.47 165.35 L 170.38 164.36 C 170.30 163.32 169.39 162.55 168.35 162.64 C 167.32 162.72 166.54 163.63 166.63 164.67 Z M 166.71 165.61 L 166.76 166.63 C 166.82 167.67 167.70 168.47 168.74 168.42 C 169.78 168.36 170.58 167.47 170.52 166.44 L 170.47 165.41 C 170.41 164.37 169.53 163.57 168.49 163.63 C 167.45 163.68 166.65 164.57 166.71 165.61 Z M 166.76 166.58 L 166.78 167.62 C 166.81 168.66 167.67 169.48 168.71 169.46 C 169.75 169.43 170.57 168.57 170.55 167.53 L 170.53 166.49 C 170.50 165.45 169.64 164.63 168.60 164.65 C 167.56 164.68 166.74 165.54 166.76 166.58 Z M 166.78 167.56 L 166.78 168.59 C 166.77 169.63 167.61 170.48 168.65 170.49 C 169.69 170.50 170.54 169.66 170.54 168.62 L 170.55 167.59 C 170.56 166.55 169.72 165.70 168.68 165.69 C 167.64 165.68 166.79 166.52 166.78 167.56 Z M 166.78 168.53 L 166.74 169.54 C 166.70 170.58 167.51 171.46 168.55 171.50 C 169.59 171.54 170.46 170.73 170.50 169.69 L 170.54 168.68 C 170.58 167.64 169.77 166.77 168.73 166.72 C 167.69 166.68 166.82 167.49 166.78 168.53 Z M 166.74 169.47 L 166.67 170.44 C 166.59 171.48 167.37 172.38 168.41 172.46 C 169.44 172.54 170.35 171.76 170.43 170.72 L 170.50 169.76 C 170.58 168.72 169.80 167.82 168.76 167.74 C 167.73 167.66 166.82 168.44 166.74 169.47 Z M 166.68 170.35 L 166.55 171.41 C 166.42 172.44 167.15 173.39 168.18 173.51 C 169.21 173.64 170.15 172.91 170.28 171.88 L 170.42 170.81 C 170.55 169.78 169.81 168.84 168.78 168.71 C 167.75 168.58 166.81 169.32 166.68 170.35 Z M 166.57 171.29 L 166.36 172.36 C 166.17 173.38 166.84 174.37 167.86 174.56 C 168.88 174.76 169.87 174.09 170.06 173.07 L 170.26 172.00 C 170.46 170.98 169.79 169.99 168.77 169.80 C 167.75 169.60 166.76 170.27 166.57 171.29 Z M 166.39 172.23 L 166.13 173.21 C 165.86 174.21 166.46 175.24 167.46 175.51 C 168.47 175.78 169.50 175.18 169.77 174.18 L 170.03 173.20 C 170.30 172.20 169.70 171.16 168.70 170.90 C 167.69 170.63 166.66 171.22 166.39 172.23 Z M 166.17 173.07 L 165.85 173.98 C 165.51 174.96 166.03 176.03 167.01 176.38 C 167.99 176.72 169.07 176.20 169.41 175.22 L 169.73 174.32 C 170.07 173.33 169.55 172.26 168.57 171.92 C 167.59 171.57 166.52 172.09 166.17 173.07 Z M 165.91 173.85 L 165.54 174.70 C 165.12 175.65 165.56 176.76 166.51 177.18 C 167.46 177.59 168.57 177.15 168.99 176.20 L 169.36 175.35 C 169.77 174.40 169.34 173.29 168.38 172.87 C 167.43 172.46 166.32 172.89 165.91 173.85 Z M 165.59 174.58 L 165.17 175.40 C 164.69 176.32 165.05 177.46 165.97 177.93 C 166.90 178.41 168.03 178.05 168.51 177.13 L 168.93 176.32 C 169.41 175.39 169.05 174.26 168.13 173.78 C 167.20 173.30 166.07 173.66 165.59 174.58 Z M 165.22 175.30 L 164.71 176.15 C 164.18 177.04 164.47 178.20 165.36 178.73 C 166.26 179.27 167.41 178.97 167.95 178.08 L 168.46 177.23 C 168.99 176.34 168.70 175.18 167.81 174.65 C 166.91 174.11 165.76 174.40 165.22 175.30 Z M 164.77 176.06 L 164.21 176.89 C 163.62 177.75 163.85 178.92 164.71 179.50 C 165.57 180.09 166.74 179.86 167.33 179.00 L 167.89 178.17 C 168.47 177.31 168.25 176.14 167.39 175.56 C 166.53 174.97 165.36 175.20 164.77 176.06 Z M 164.27 176.80 L 163.66 177.60 C 163.03 178.43 163.19 179.61 164.02 180.24 C 164.85 180.87 166.03 180.71 166.66 179.88 L 167.27 179.09 C 167.90 178.26 167.74 177.08 166.91 176.45 C 166.08 175.82 164.90 175.98 164.27 176.80 Z M 163.72 177.53 L 163.07 178.29 C 162.40 179.09 162.50 180.28 163.30 180.95 C 164.09 181.62 165.28 181.52 165.95 180.72 L 166.60 179.96 C 167.27 179.16 167.17 177.98 166.38 177.30 C 165.58 176.63 164.39 176.73 163.72 177.53 Z M 163.13 178.22 L 162.46 178.95 C 161.75 179.71 161.79 180.91 162.55 181.62 C 163.31 182.33 164.50 182.28 165.21 181.52 L 165.89 180.79 C 166.60 180.03 166.56 178.84 165.80 178.13 C 165.04 177.42 163.84 177.46 163.13 178.22 Z M 162.52 178.89 L 161.82 179.58 C 161.07 180.30 161.05 181.49 161.78 182.24 C 162.51 182.98 163.70 183.00 164.44 182.27 L 165.15 181.59 C 165.89 180.86 165.91 179.67 165.18 178.92 C 164.46 178.18 163.26 178.16 162.52 178.89 Z M 161.90 179.50 L 161.16 180.14 C 160.37 180.82 160.29 182.01 160.97 182.79 C 161.65 183.58 162.83 183.67 163.62 182.99 L 164.36 182.35 C 165.15 181.67 165.23 180.48 164.55 179.69 C 163.87 178.91 162.69 178.82 161.90 179.50 Z M 161.27 180.05 L 160.48 180.63 C 159.65 181.25 159.47 182.43 160.09 183.26 C 160.71 184.10 161.88 184.28 162.72 183.66 L 163.51 183.08 C 164.34 182.46 164.52 181.28 163.90 180.45 C 163.29 179.61 162.11 179.43 161.27 180.05 Z M 160.63 180.54 L 159.78 181.06 C 158.89 181.59 158.61 182.75 159.15 183.64 C 159.68 184.52 160.84 184.81 161.72 184.27 L 162.58 183.75 C 163.46 183.21 163.75 182.06 163.21 181.17 C 162.67 180.29 161.51 180.00 160.63 180.54 Z M 159.95 180.97 L 159.02 181.41 C 158.08 181.85 157.68 182.97 158.13 183.91 C 158.57 184.84 159.69 185.24 160.63 184.80 L 161.56 184.36 C 162.49 183.91 162.89 182.79 162.45 181.86 C 162.00 180.92 160.88 180.52 159.95 180.97 Z M 159.20 181.34 L 158.26 181.67 C 157.29 182.02 156.78 183.09 157.12 184.06 C 157.47 185.04 158.54 185.55 159.52 185.20 L 160.45 184.87 C 161.42 184.52 161.93 183.45 161.59 182.48 C 161.24 181.50 160.17 180.99 159.20 181.34 Z M 158.41 181.63 L 157.49 181.87 C 156.49 182.13 155.89 183.16 156.16 184.15 C 156.42 185.15 157.44 185.75 158.44 185.49 L 159.36 185.24 C 160.36 184.98 160.96 183.96 160.70 182.96 C 160.43 181.96 159.41 181.37 158.41 181.63 Z M 157.60 181.85 L 156.63 182.04 C 155.62 182.24 154.96 183.22 155.16 184.23 C 155.36 185.24 156.34 185.90 157.35 185.70 L 158.32 185.51 C 159.33 185.31 159.99 184.33 159.79 183.32 C 159.59 182.31 158.61 181.65 157.60 181.85 Z M 156.71 182.03 L 155.71 182.18 C 154.69 182.34 153.99 183.28 154.15 184.29 C 154.30 185.31 155.24 186.01 156.26 185.86 L 157.26 185.71 C 158.28 185.56 158.98 184.61 158.82 183.60 C 158.67 182.58 157.73 181.88 156.71 182.03 Z M 155.77 182.18 L 154.75 182.30 C 153.74 182.41 153.00 183.33 153.12 184.35 C 153.24 185.36 154.15 186.09 155.17 185.98 L 156.19 185.86 C 157.21 185.75 157.94 184.83 157.82 183.81 C 157.71 182.80 156.79 182.07 155.77 182.18 Z M 154.80 182.30 L 153.77 182.39 C 152.76 182.48 152.01 183.37 152.10 184.39 C 152.19 185.40 153.08 186.16 154.10 186.07 L 155.12 185.98 C 156.14 185.89 156.89 184.99 156.80 183.97 C 156.71 182.96 155.81 182.21 154.80 182.30 Z M 153.80 182.39 L 152.78 182.47 C 151.77 182.54 151.01 183.42 151.08 184.43 C 151.15 185.45 152.03 186.21 153.04 186.13 L 154.07 186.06 C 155.08 185.99 155.84 185.11 155.77 184.09 C 155.70 183.08 154.82 182.32 153.80 182.39 Z M 152.80 182.48 L 151.77 182.55 C 150.77 182.61 150.00 183.48 150.07 184.48 C 150.13 185.48 150.99 186.25 152.00 186.18 L 153.02 186.12 C 154.03 186.06 154.79 185.19 154.73 184.19 C 154.67 183.18 153.80 182.42 152.80 182.48 Z M 151.79 182.57 L 150.78 182.62 C 149.78 182.68 149.02 183.52 149.08 184.52 C 149.13 185.51 149.98 186.27 150.97 186.22 L 151.98 186.16 C 152.97 186.11 153.74 185.26 153.68 184.27 C 153.63 183.28 152.78 182.51 151.79 182.57 Z M 150.79 182.64 L 149.80 182.69 C 148.82 182.74 148.06 183.57 148.10 184.55 C 148.15 185.53 148.98 186.29 149.97 186.25 L 150.96 186.20 C 151.94 186.15 152.70 185.32 152.65 184.34 C 152.61 183.35 151.77 182.60 150.79 182.64 Z M 149.81 182.71 L 148.82 182.75 C 147.85 182.79 147.10 183.61 147.14 184.58 C 147.18 185.56 148.00 186.31 148.97 186.27 L 149.96 186.23 C 150.93 186.18 151.68 185.36 151.64 184.39 C 151.60 183.42 150.78 182.67 149.81 182.71 Z M 148.83 182.77 L 147.86 182.81 C 146.89 182.85 146.15 183.66 146.19 184.62 C 146.22 185.58 147.03 186.32 147.99 186.29 L 148.97 186.25 C 149.93 186.21 150.68 185.40 150.64 184.44 C 150.60 183.48 149.79 182.73 148.83 182.77 Z M 147.86 182.82 L 147.39 182.84 C 146.44 182.88 145.69 183.68 145.73 184.63 C 145.77 185.58 146.57 186.33 147.52 186.29 L 147.99 186.27 C 148.94 186.23 149.68 185.43 149.65 184.48 C 149.61 183.53 148.81 182.79 147.86 182.82 Z"
      fill="black"
      fill-rule="nonzero" /></svg>