<svg xmlns="http://www.w3.org/2000/svg" width="300" height="300" viewBox="0 0 300 300">
<path d="M 149.73 124.70 L 148.88 125.16 C 148.05 125.61 147.75 126.64 148.20 127.46 C 148.65 128.28 149.68 128.59 150.50 128.14 L 151.36 127.67 C 152.18 127.22 152.48 126.19 152.03 125.37 C 151.58 124.55 150.55 124.25 149.73 124.70 Z M 148.86 125.17 L 148.01 125.64 C 147.19 126.10 146.90 127.14 147.36 127.95 C 147.82 128.77 148.85 129.06 149.67 128.61 L 150.52 128.13 C 151.34 127.67 151.63 126.64 151.17 125.82 C 150.71 125.00 149.68 124.71 148.86 125.17 Z M 147.98 125.66 L 147.13 126.16 C 146.32 126.63 146.05 127.67 146.52 128.48 C 147.00 129.29 148.04 129.56 148.85 129.09 L 149.70 128.59 C 150.51 128.12 150.78 127.08 150.31 126.27 C 149.83 125.46 148.79 125.19 147.98 125.66 Z M 147.09 126.18 L 146.24 126.71 C 145.44 127.21 145.20 128.26 145.69 129.05 C 146.19 129.85 147.24 130.09 148.04 129.60 L 148.89 129.07 C 149.68 128.57 149.93 127.52 149.43 126.72 C 148.93 125.93 147.89 125.68 147.09 126.18 Z M 146.19 126.74 L 145.33 127.32 C 144.55 127.84 144.35 128.90 144.87 129.68 C 145.40 130.46 146.46 130.66 147.24 130.14 L 148.09 129.57 C 148.87 129.04 149.07 127.98 148.55 127.20 C 148.02 126.42 146.97 126.22 146.19 126.74 Z M 145.27 127.35 L 144.45 127.96 C 143.69 128.52 143.52 129.59 144.08 130.35 C 144.64 131.11 145.71 131.27 146.47 130.71 L 147.30 130.10 C 148.06 129.54 148.22 128.48 147.66 127.72 C 147.10 126.96 146.03 126.79 145.27 127.35 Z M 144.39 128.00 L 143.61 128.61 C 142.87 129.21 142.75 130.29 143.35 131.03 C 143.94 131.77 145.02 131.89 145.76 131.29 L 146.53 130.68 C 147.27 130.08 147.39 129.00 146.80 128.26 C 146.21 127.52 145.13 127.40 144.39 128.00 Z M 143.56 128.64 L 142.80 129.30 C 142.07 129.92 141.99 131.01 142.61 131.74 C 143.24 132.46 144.33 132.54 145.05 131.92 L 145.82 131.27 C 146.54 130.64 146.62 129.55 146.00 128.82 C 145.38 128.10 144.28 128.02 143.56 128.64 Z M 142.75 129.32 L 142.00 130.01 C 141.29 130.66 141.24 131.76 141.89 132.47 C 142.54 133.18 143.65 133.23 144.36 132.58 L 145.10 131.90 C 145.82 131.24 145.86 130.14 145.21 129.43 C 144.56 128.72 143.46 128.67 142.75 129.32 Z M 141.95 130.03 L 141.22 130.74 C 140.52 131.41 140.51 132.53 141.19 133.23 C 141.86 133.92 142.98 133.94 143.68 133.26 L 144.40 132.56 C 145.10 131.88 145.12 130.77 144.44 130.07 C 143.76 129.37 142.65 129.35 141.95 130.03 Z M 141.18 130.76 L 140.48 131.48 C 139.79 132.18 139.81 133.31 140.51 133.99 C 141.21 134.67 142.33 134.66 143.02 133.96 L 143.72 133.24 C 144.40 132.54 144.39 131.41 143.69 130.73 C 142.99 130.04 141.86 130.06 141.18 130.76 Z M 140.43 131.50 L 139.77 132.23 C 139.09 132.95 139.14 134.08 139.86 134.76 C 140.59 135.43 141.72 135.38 142.39 134.66 L 143.06 133.93 C 143.73 133.21 143.69 132.08 142.96 131.40 C 142.24 130.73 141.11 130.78 140.43 131.50 Z M 139.73 132.26 L 139.06 133.02 C 138.40 133.77 138.48 134.91 139.23 135.56 C 139.97 136.22 141.11 136.14 141.76 135.39 L 142.43 134.63 C 143.09 133.88 143.01 132.74 142.26 132.09 C 141.52 131.43 140.38 131.51 139.73 132.26 Z M 139.01 133.07 L 138.38 133.84 C 137.75 134.61 137.87 135.75 138.64 136.38 C 139.41 137.00 140.55 136.89 141.18 136.12 L 141.81 135.35 C 142.44 134.58 142.32 133.44 141.55 132.81 C 140.78 132.18 139.64 132.30 139.01 133.07 Z M 138.34 133.89 L 137.75 134.68 C 137.15 135.48 137.31 136.61 138.11 137.21 C 138.90 137.81 140.04 137.65 140.64 136.85 L 141.23 136.06 C 141.83 135.27 141.66 134.13 140.87 133.53 C 140.07 132.93 138.94 133.10 138.34 133.89 Z M 137.70 134.74 L 137.14 135.55 C 136.58 136.38 136.79 137.51 137.61 138.07 C 138.44 138.64 139.56 138.42 140.13 137.60 L 140.69 136.79 C 141.25 135.96 141.04 134.83 140.21 134.27 C 139.39 133.71 138.26 133.92 137.70 134.74 Z M 137.09 135.62 L 136.57 136.47 C 136.04 137.33 136.30 138.44 137.16 138.97 C 138.01 139.50 139.13 139.23 139.65 138.38 L 140.18 137.53 C 140.71 136.68 140.44 135.56 139.59 135.03 C 138.74 134.51 137.62 134.77 137.09 135.62 Z M 136.52 136.55 L 136.03 137.43 C 135.55 138.30 135.86 139.41 136.74 139.90 C 137.62 140.38 138.73 140.07 139.21 139.19 L 139.70 138.31 C 140.19 137.43 139.87 136.32 138.99 135.84 C 138.11 135.35 137.01 135.67 136.52 136.55 Z M 135.99 137.50 L 135.59 138.32 C 135.14 139.22 135.51 140.31 136.41 140.76 C 137.31 141.20 138.40 140.84 138.85 139.94 L 139.25 139.12 C 139.70 138.22 139.33 137.12 138.43 136.68 C 137.53 136.23 136.44 136.60 135.99 137.50 Z M 135.55 138.38 L 135.17 139.25 C 134.76 140.17 135.17 141.24 136.09 141.65 C 137.01 142.06 138.09 141.65 138.50 140.73 L 138.88 139.87 C 139.29 138.95 138.88 137.87 137.96 137.46 C 137.04 137.05 135.96 137.46 135.55 138.38 Z M 135.13 139.32 L 134.78 140.23 C 134.41 141.17 134.87 142.22 135.81 142.59 C 136.75 142.96 137.81 142.50 138.18 141.56 L 138.53 140.65 C 138.90 139.72 138.44 138.66 137.50 138.29 C 136.56 137.92 135.50 138.38 135.13 139.32 Z M 134.75 140.30 L 134.42 141.26 C 134.10 142.21 134.61 143.25 135.57 143.57 C 136.52 143.90 137.56 143.39 137.89 142.43 L 138.21 141.48 C 138.53 140.53 138.02 139.49 137.07 139.16 C 136.11 138.84 135.07 139.35 134.75 140.30 Z M 134.40 141.34 L 134.11 142.33 C 133.83 143.30 134.39 144.32 135.36 144.60 C 136.33 144.88 137.35 144.32 137.63 143.35 L 137.91 142.35 C 138.19 141.38 137.63 140.37 136.66 140.09 C 135.69 139.80 134.68 140.37 134.40 141.34 Z M 134.08 142.42 L 133.84 143.46 C 133.60 144.44 134.21 145.43 135.20 145.67 C 136.18 145.90 137.17 145.29 137.40 144.31 L 137.65 143.26 C 137.88 142.28 137.27 141.29 136.29 141.06 C 135.30 140.82 134.32 141.43 134.08 142.42 Z M 133.82 143.55 L 133.62 144.59 C 133.43 145.59 134.09 146.55 135.09 146.73 C 136.08 146.92 137.04 146.26 137.23 145.27 L 137.42 144.22 C 137.61 143.22 136.95 142.26 135.96 142.08 C 134.96 141.89 134.00 142.55 133.82 143.55 Z M 133.61 144.68 L 133.47 145.67 C 133.33 146.67 134.03 147.60 135.03 147.74 C 136.03 147.88 136.96 147.18 137.10 146.18 L 137.24 145.19 C 137.38 144.18 136.68 143.25 135.68 143.11 C 134.67 142.97 133.75 143.67 133.61 144.68 Z M 133.46 145.75 L 133.36 146.76 C 133.26 147.77 134.01 148.67 135.01 148.77 C 136.02 148.86 136.92 148.12 137.02 147.11 L 137.11 146.10 C 137.21 145.09 136.47 144.19 135.46 144.10 C 134.45 144.00 133.55 144.74 133.46 145.75 Z M 133.35 146.85 L 133.31 147.87 C 133.26 148.89 134.04 149.75 135.05 149.80 C 136.07 149.84 136.93 149.06 136.97 148.05 L 137.02 147.03 C 137.07 146.01 136.29 145.15 135.28 145.10 C 134.26 145.06 133.40 145.84 133.35 146.85 Z M 133.30 147.97 L 133.31 148.99 C 133.31 150.00 134.14 150.82 135.15 150.82 C 136.16 150.81 136.98 149.99 136.98 148.98 L 136.98 147.95 C 136.97 146.94 136.15 146.12 135.13 146.13 C 134.12 146.13 133.30 146.95 133.30 147.97 Z M 133.31 149.09 L 133.37 150.10 C 133.43 151.11 134.30 151.88 135.32 151.82 C 136.33 151.76 137.10 150.89 137.04 149.88 L 136.98 148.87 C 136.91 147.86 136.04 147.09 135.03 147.15 C 134.02 147.21 133.25 148.08 133.31 149.09 Z M 133.38 150.22 L 133.51 151.20 C 133.63 152.20 134.55 152.92 135.56 152.79 C 136.56 152.67 137.28 151.75 137.15 150.74 L 137.03 149.76 C 136.90 148.75 135.98 148.04 134.98 148.17 C 133.97 148.29 133.26 149.21 133.38 150.22 Z M 133.53 151.33 L 133.72 152.27 C 133.92 153.27 134.88 153.91 135.88 153.71 C 136.87 153.51 137.52 152.54 137.32 151.55 L 137.13 150.61 C 136.93 149.61 135.96 148.97 134.97 149.17 C 133.97 149.37 133.33 150.34 133.53 151.33 Z M 133.76 152.43 L 134.03 153.37 C 134.32 154.34 135.34 154.90 136.31 154.61 C 137.29 154.33 137.84 153.31 137.55 152.33 L 137.28 151.39 C 136.99 150.42 135.97 149.86 135.00 150.15 C 134.03 150.44 133.47 151.46 133.76 152.43 Z M 134.09 153.54 L 134.47 154.46 C 134.85 155.40 135.92 155.85 136.86 155.47 C 137.80 155.08 138.25 154.01 137.87 153.07 L 137.49 152.16 C 137.11 151.22 136.04 150.77 135.10 151.15 C 134.16 151.53 133.71 152.61 134.09 153.54 Z M 134.55 154.63 L 135.01 155.49 C 135.48 156.38 136.60 156.72 137.49 156.24 C 138.38 155.77 138.72 154.65 138.24 153.76 L 137.79 152.90 C 137.31 152.01 136.20 151.67 135.30 152.15 C 134.41 152.63 134.07 153.74 134.55 154.63 Z M 135.10 155.65 L 135.64 156.45 C 136.21 157.30 137.35 157.52 138.19 156.95 C 139.03 156.39 139.26 155.25 138.69 154.41 L 138.15 153.60 C 137.58 152.76 136.44 152.54 135.60 153.10 C 134.76 153.67 134.54 154.81 135.10 155.65 Z M 135.75 156.59 L 136.37 157.35 C 137.01 158.14 138.17 158.25 138.95 157.61 C 139.74 156.97 139.85 155.81 139.21 155.03 L 138.59 154.27 C 137.94 153.48 136.79 153.37 136.00 154.01 C 135.22 154.65 135.10 155.81 135.75 156.59 Z M 136.48 157.47 L 137.18 158.19 C 137.89 158.92 139.05 158.93 139.78 158.22 C 140.50 157.51 140.51 156.35 139.81 155.63 L 139.10 154.91 C 138.39 154.18 137.23 154.17 136.51 154.88 C 135.78 155.59 135.77 156.75 136.48 157.47 Z M 137.28 158.29 L 138.06 158.97 C 138.82 159.64 139.98 159.57 140.65 158.80 C 141.32 158.04 141.25 156.88 140.48 156.21 L 139.70 155.53 C 138.94 154.86 137.78 154.94 137.11 155.70 C 136.44 156.46 136.52 157.62 137.28 158.29 Z M 138.15 159.05 L 138.95 159.66 C 139.76 160.28 140.91 160.13 141.53 159.33 C 142.15 158.52 141.99 157.37 141.19 156.75 L 140.39 156.14 C 139.59 155.52 138.43 155.67 137.82 156.48 C 137.20 157.28 137.35 158.43 138.15 159.05 Z M 139.03 159.72 L 139.83 160.27 C 140.67 160.84 141.81 160.63 142.38 159.79 C 142.96 158.95 142.74 157.81 141.91 157.24 L 141.11 156.69 C 140.27 156.12 139.13 156.33 138.56 157.17 C 137.98 158.01 138.20 159.15 139.03 159.72 Z M 139.91 160.32 L 140.75 160.84 C 141.62 161.37 142.75 161.09 143.28 160.23 C 143.81 159.37 143.54 158.24 142.67 157.71 L 141.83 157.19 C 140.96 156.66 139.83 156.93 139.30 157.80 C 138.77 158.66 139.05 159.79 139.91 160.32 Z M 140.83 160.88 L 141.72 161.36 C 142.61 161.85 143.72 161.52 144.21 160.63 C 144.69 159.74 144.36 158.63 143.47 158.14 L 142.59 157.66 C 141.70 157.17 140.59 157.50 140.10 158.39 C 139.62 159.28 139.94 160.40 140.83 160.88 Z M 141.80 161.41 L 142.72 161.85 C 143.63 162.29 144.73 161.90 145.16 160.99 C 145.60 160.07 145.22 158.98 144.31 158.54 L 143.39 158.10 C 142.48 157.66 141.38 158.04 140.94 158.96 C 140.50 159.87 140.89 160.97 141.80 161.41 Z M 142.80 161.89 L 143.75 162.28 C 144.68 162.67 145.75 162.23 146.14 161.29 C 146.53 160.36 146.09 159.28 145.16 158.89 L 144.22 158.50 C 143.28 158.11 142.21 158.55 141.82 159.49 C 141.43 160.42 141.87 161.49 142.80 161.89 Z M 143.84 162.31 L 144.80 162.65 C 145.75 162.99 146.80 162.49 147.14 161.54 C 147.48 160.58 146.98 159.53 146.02 159.20 L 145.06 158.86 C 144.11 158.52 143.06 159.02 142.72 159.97 C 142.38 160.93 142.89 161.98 143.84 162.31 Z M 144.90 162.69 L 145.87 162.97 C 146.85 163.25 147.86 162.68 148.14 161.71 C 148.42 160.74 147.86 159.72 146.89 159.44 L 145.92 159.16 C 144.94 158.88 143.93 159.44 143.65 160.42 C 143.37 161.39 143.93 162.41 144.90 162.69 Z M 145.99 162.99 L 147.00 163.21 C 147.99 163.43 148.96 162.80 149.18 161.81 C 149.39 160.82 148.77 159.85 147.78 159.63 L 146.77 159.41 C 145.78 159.20 144.81 159.82 144.59 160.81 C 144.37 161.80 145.00 162.78 145.99 162.99 Z M 147.13 163.24 L 148.19 163.39 C 149.19 163.53 150.12 162.84 150.26 161.83 C 150.40 160.83 149.71 159.90 148.70 159.76 L 147.65 159.61 C 146.64 159.46 145.72 160.16 145.57 161.16 C 145.43 162.16 146.13 163.09 147.13 163.24 Z M 148.32 163.40 L 149.37 163.47 C 150.38 163.54 151.25 162.78 151.32 161.77 C 151.39 160.76 150.63 159.89 149.62 159.82 L 148.57 159.75 C 147.56 159.68 146.69 160.44 146.62 161.45 C 146.55 162.46 147.31 163.33 148.32 163.40 Z M 149.50 163.48 L 150.53 163.47 C 151.54 163.46 152.36 162.64 152.35 161.63 C 152.34 160.62 151.52 159.80 150.51 159.81 L 149.48 159.82 C 148.47 159.82 147.66 160.65 147.66 161.66 C 147.67 162.67 148.49 163.48 149.50 163.48 Z M 150.67 163.46 L 151.67 163.38 C 152.68 163.30 153.42 162.41 153.34 161.41 C 153.26 160.40 152.38 159.65 151.37 159.73 L 150.37 159.82 C 149.36 159.90 148.61 160.78 148.70 161.79 C 148.78 162.80 149.66 163.55 150.67 163.46 Z M 151.81 163.36 L 152.77 163.21 C 153.77 163.04 154.45 162.11 154.29 161.11 C 154.12 160.11 153.18 159.43 152.19 159.60 L 151.23 159.75 C 150.23 159.91 149.55 160.85 149.71 161.85 C 149.87 162.85 150.81 163.52 151.81 163.36 Z M 152.92 163.17 L 153.84 162.95 C 154.82 162.70 155.41 161.71 155.17 160.73 C 154.93 159.75 153.94 159.16 152.96 159.40 L 152.04 159.63 C 151.06 159.87 150.46 160.86 150.71 161.84 C 150.95 162.82 151.94 163.42 152.92 163.17 Z M 153.99 162.90 L 154.85 162.60 C 155.81 162.28 156.32 161.24 155.99 160.28 C 155.66 159.33 154.62 158.82 153.67 159.15 L 152.80 159.45 C 151.85 159.77 151.34 160.81 151.67 161.77 C 152.00 162.72 153.04 163.23 153.99 162.90 Z M 155.03 162.53 L 155.96 162.10 C 156.88 161.68 157.28 160.59 156.85 159.68 C 156.43 158.76 155.34 158.36 154.43 158.79 L 153.49 159.22 C 152.58 159.64 152.18 160.73 152.60 161.64 C 153.03 162.56 154.11 162.96 155.03 162.53 Z M 156.14 162.00 L 157.01 161.48 C 157.87 160.96 158.15 159.84 157.63 158.97 C 157.11 158.11 155.99 157.84 155.13 158.36 L 154.25 158.88 C 153.39 159.40 153.12 160.52 153.64 161.39 C 154.16 162.25 155.28 162.52 156.14 162.00 Z M 157.16 161.37 L 157.96 160.77 C 158.77 160.16 158.93 159.02 158.32 158.22 C 157.71 157.42 156.57 157.26 155.77 157.86 L 154.97 158.46 C 154.17 159.07 154.01 160.21 154.61 161.01 C 155.22 161.82 156.36 161.98 157.16 161.37 Z M 158.09 160.66 L 158.82 160.00 C 159.56 159.32 159.62 158.17 158.94 157.43 C 158.27 156.69 157.12 156.63 156.37 157.31 L 155.64 157.97 C 154.90 158.65 154.84 159.80 155.52 160.54 C 156.20 161.28 157.35 161.34 158.09 160.66 Z M 158.92 159.90 L 159.59 159.18 C 160.28 158.45 160.24 157.30 159.51 156.62 C 158.78 155.93 157.63 155.96 156.94 156.69 L 156.27 157.41 C 155.59 158.14 155.62 159.29 156.35 159.98 C 157.08 160.66 158.23 160.63 158.92 159.90 Z M 159.67 159.09 L 160.29 158.34 C 160.93 157.57 160.82 156.42 160.04 155.79 C 159.27 155.15 158.13 155.26 157.49 156.03 L 156.87 156.78 C 156.23 157.56 156.34 158.70 157.11 159.34 C 157.89 159.98 159.03 159.87 159.67 159.09 Z M 160.35 158.26 L 160.95 157.45 C 161.54 156.65 161.37 155.51 160.57 154.92 C 159.76 154.32 158.63 154.49 158.03 155.30 L 157.43 156.11 C 156.83 156.91 157.01 158.05 157.81 158.64 C 158.62 159.24 159.75 159.07 160.35 158.26 Z M 161.00 157.38 L 161.57 156.52 C 162.12 155.69 161.89 154.56 161.06 154.01 C 160.23 153.46 159.10 153.68 158.55 154.52 L 157.98 155.37 C 157.43 156.20 157.65 157.33 158.49 157.88 C 159.32 158.44 160.44 158.21 161.00 157.38 Z M 161.61 156.44 L 162.13 155.57 C 162.64 154.71 162.36 153.60 161.50 153.09 C 160.64 152.58 159.52 152.86 159.01 153.72 L 158.50 154.60 C 157.99 155.46 158.27 156.57 159.13 157.08 C 159.99 157.59 161.10 157.30 161.61 156.44 Z M 162.18 155.49 L 162.64 154.60 C 163.11 153.71 162.76 152.62 161.88 152.16 C 160.99 151.69 159.90 152.04 159.43 152.92 L 158.97 153.81 C 158.50 154.69 158.85 155.79 159.73 156.25 C 160.62 156.72 161.71 156.37 162.18 155.49 Z M 162.69 154.51 L 163.09 153.61 C 163.51 152.70 163.10 151.63 162.19 151.22 C 161.28 150.80 160.21 151.21 159.79 152.12 L 159.39 153.01 C 158.97 153.92 159.38 155.00 160.29 155.41 C 161.20 155.82 162.27 155.42 162.69 154.51 Z M 163.13 153.52 L 163.48 152.61 C 163.84 151.68 163.37 150.63 162.44 150.27 C 161.51 149.91 160.46 150.38 160.10 151.31 L 159.75 152.22 C 159.39 153.15 159.86 154.20 160.79 154.56 C 161.73 154.91 162.77 154.45 163.13 153.52 Z M 163.52 152.50 L 163.82 151.55 C 164.12 150.60 163.58 149.58 162.63 149.28 C 161.67 148.98 160.66 149.51 160.36 150.47 L 160.06 151.42 C 159.76 152.38 160.29 153.39 161.25 153.69 C 162.20 153.99 163.22 153.46 163.52 152.50 Z M 163.85 151.44 L 164.09 150.47 C 164.32 149.49 163.73 148.51 162.76 148.28 C 161.78 148.04 160.80 148.64 160.56 149.61 L 160.33 150.58 C 160.09 151.55 160.69 152.53 161.66 152.77 C 162.63 153.01 163.61 152.41 163.85 151.44 Z M 164.11 150.37 L 164.29 149.39 C 164.47 148.40 163.82 147.46 162.83 147.28 C 161.85 147.09 160.90 147.75 160.72 148.73 L 160.54 149.71 C 160.36 150.70 161.01 151.64 162.00 151.82 C 162.98 152.00 163.93 151.35 164.11 150.37 Z M 164.31 149.30 L 164.44 148.32 C 164.57 147.33 163.87 146.41 162.88 146.28 C 161.88 146.14 160.97 146.84 160.84 147.84 L 160.70 148.82 C 160.57 149.81 161.27 150.73 162.26 150.86 C 163.26 151.00 164.17 150.30 164.31 149.30 Z M 164.45 148.25 L 164.54 147.26 C 164.64 146.26 163.90 145.37 162.90 145.27 C 161.90 145.18 161.01 145.91 160.92 146.91 L 160.83 147.91 C 160.73 148.91 161.47 149.79 162.47 149.89 C 163.47 149.98 164.35 149.25 164.45 148.25 Z M 164.55 147.20 L 164.61 146.20 C 164.68 145.20 163.92 144.33 162.91 144.27 C 161.91 144.20 161.04 144.96 160.98 145.97 L 160.91 146.97 C 160.85 147.97 161.61 148.84 162.61 148.90 C 163.62 148.97 164.48 148.21 164.55 147.20 Z M 164.62 146.15 L 164.65 145.16 C 164.69 144.15 163.91 143.31 162.90 143.27 C 161.90 143.23 161.05 144.01 161.01 145.02 L 160.97 146.02 C 160.94 147.02 161.72 147.87 162.73 147.91 C 163.73 147.94 164.58 147.16 164.62 146.15 Z M 164.66 145.09 L 164.66 144.09 C 164.66 143.08 163.84 142.26 162.83 142.26 C 161.82 142.26 161.01 143.08 161.01 144.09 L 161.01 145.09 C 161.01 146.10 161.83 146.91 162.83 146.91 C 163.84 146.91 164.66 146.10 164.66 145.09 Z M 164.66 143.99 L 164.60 142.99 C 164.55 141.99 163.70 141.21 162.69 141.26 C 161.68 141.32 160.91 142.17 160.96 143.18 L 161.01 144.18 C 161.06 145.19 161.92 145.96 162.93 145.91 C 163.93 145.86 164.71 145.00 164.66 143.99 Z M 164.60 142.88 L 164.48 141.88 C 164.37 140.88 163.46 140.16 162.46 140.28 C 161.46 140.39 160.74 141.30 160.85 142.30 L 160.97 143.29 C 161.08 144.30 161.99 145.02 162.99 144.90 C 163.99 144.79 164.71 143.88 164.60 142.88 Z M 164.46 141.75 L 164.27 140.76 C 164.08 139.77 163.12 139.13 162.13 139.32 C 161.14 139.51 160.49 140.47 160.68 141.46 L 160.87 142.44 C 161.07 143.43 162.02 144.08 163.01 143.89 C 164.01 143.70 164.65 142.74 164.46 141.75 Z M 164.24 140.61 L 163.98 139.71 C 163.70 138.74 162.69 138.18 161.72 138.45 C 160.75 138.73 160.19 139.74 160.46 140.71 L 160.72 141.61 C 161.00 142.58 162.01 143.15 162.98 142.87 C 163.95 142.59 164.51 141.58 164.24 140.61 Z M 163.93 139.57 L 163.61 138.70 C 163.25 137.76 162.20 137.28 161.26 137.64 C 160.31 137.99 159.83 139.04 160.19 139.99 L 160.51 140.85 C 160.87 141.80 161.92 142.28 162.86 141.92 C 163.81 141.57 164.29 140.51 163.93 139.57 Z M 163.56 138.58 L 163.16 137.72 C 162.74 136.80 161.65 136.40 160.74 136.82 C 159.82 137.24 159.42 138.33 159.84 139.25 L 160.24 140.11 C 160.66 141.03 161.74 141.43 162.66 141.01 C 163.58 140.59 163.98 139.50 163.56 138.58 Z M 163.11 137.62 L 162.64 136.75 C 162.17 135.86 161.06 135.52 160.17 136.00 C 159.28 136.48 158.94 137.59 159.42 138.48 L 159.89 139.35 C 160.37 140.24 161.48 140.57 162.36 140.09 C 163.25 139.62 163.59 138.51 163.11 137.62 Z M 162.60 136.67 L 162.06 135.78 C 161.54 134.91 160.42 134.63 159.55 135.16 C 158.69 135.68 158.41 136.80 158.93 137.66 L 159.47 138.55 C 159.99 139.42 161.11 139.70 161.98 139.18 C 162.84 138.66 163.12 137.53 162.60 136.67 Z M 162.02 135.72 L 161.42 134.80 C 160.86 133.96 159.73 133.72 158.89 134.28 C 158.04 134.83 157.81 135.97 158.37 136.81 L 158.97 137.73 C 159.52 138.57 160.66 138.80 161.50 138.25 C 162.34 137.69 162.58 136.56 162.02 135.72 Z M 161.39 134.76 L 160.80 133.91 C 160.22 133.09 159.08 132.89 158.26 133.46 C 157.43 134.04 157.23 135.18 157.81 136.01 L 158.40 136.85 C 158.97 137.68 160.11 137.88 160.94 137.30 C 161.77 136.72 161.97 135.58 161.39 134.76 Z M 160.78 133.88 L 160.20 133.10 C 159.61 132.29 158.46 132.11 157.65 132.70 C 156.84 133.30 156.66 134.44 157.26 135.25 L 157.83 136.04 C 158.43 136.85 159.57 137.03 160.38 136.43 C 161.19 135.84 161.37 134.70 160.78 133.88 Z M 160.17 133.07 L 159.56 132.27 C 158.95 131.48 157.81 131.32 157.01 131.94 C 156.21 132.55 156.06 133.69 156.67 134.49 L 157.28 135.28 C 157.90 136.08 159.04 136.23 159.84 135.62 C 160.64 135.01 160.79 133.87 160.17 133.07 Z M 159.53 132.24 L 158.90 131.45 C 158.27 130.67 157.12 130.54 156.34 131.17 C 155.56 131.80 155.44 132.95 156.07 133.73 L 156.70 134.52 C 157.33 135.30 158.48 135.43 159.26 134.80 C 160.04 134.17 160.16 133.02 159.53 132.24 Z M 158.86 131.41 L 158.20 130.63 C 157.55 129.87 156.40 129.78 155.64 130.43 C 154.88 131.08 154.78 132.22 155.43 132.98 L 156.10 133.77 C 156.75 134.53 157.89 134.62 158.66 133.97 C 159.42 133.32 159.51 132.17 158.86 131.41 Z M 158.16 130.59 L 157.47 129.84 C 156.80 129.09 155.66 129.04 154.91 129.71 C 154.17 130.38 154.12 131.53 154.79 132.27 L 155.47 133.02 C 156.14 133.77 157.29 133.82 158.03 133.15 C 158.77 132.48 158.83 131.33 158.16 130.59 Z M 157.43 129.79 L 156.72 129.07 C 156.03 128.35 154.88 128.34 154.17 129.03 C 153.45 129.73 153.43 130.87 154.13 131.59 L 154.83 132.31 C 155.53 133.03 156.67 133.04 157.39 132.35 C 158.11 131.65 158.12 130.51 157.43 129.79 Z M 156.67 129.02 L 155.95 128.34 C 155.23 127.65 154.09 127.68 153.40 128.41 C 152.72 129.13 152.75 130.27 153.47 130.96 L 154.18 131.64 C 154.91 132.32 156.05 132.29 156.74 131.57 C 157.42 130.85 157.39 129.70 156.67 129.02 Z M 155.88 128.29 L 155.08 127.60 C 154.33 126.96 153.20 127.04 152.55 127.79 C 151.91 128.54 151.99 129.67 152.74 130.32 L 153.54 131.01 C 154.29 131.65 155.43 131.57 156.07 130.82 C 156.72 130.07 156.63 128.94 155.88 128.29 Z M 155.00 127.57 L 154.18 126.93 C 153.41 126.33 152.30 126.47 151.70 127.24 C 151.10 128.01 151.24 129.12 152.01 129.72 L 152.83 130.36 C 153.60 130.96 154.71 130.82 155.31 130.05 C 155.91 129.28 155.77 128.16 155.00 127.57 Z M 154.11 126.91 L 153.28 126.32 C 152.50 125.77 151.41 125.95 150.85 126.74 C 150.30 127.52 150.48 128.61 151.27 129.17 L 152.09 129.75 C 152.87 130.31 153.96 130.12 154.52 129.34 C 155.08 128.55 154.89 127.46 154.11 126.91 Z M 153.22 126.31 L 152.39 125.77 C 151.60 125.24 150.53 125.47 150.01 126.26 C 149.49 127.05 149.71 128.12 150.51 128.64 L 151.33 129.18 C 152.13 129.70 153.19 129.48 153.71 128.69 C 154.23 127.89 154.01 126.83 153.22 126.31 Z M 152.34 125.76 L 151.51 125.25 C 150.71 124.76 149.67 125.00 149.18 125.80 C 148.69 126.60 148.93 127.64 149.73 128.13 L 150.56 128.64 C 151.36 129.13 152.40 128.89 152.89 128.09 C 153.38 127.30 153.13 126.25 152.34 125.76 Z M 151.47 125.25 L 150.63 124.76 C 149.84 124.29 148.82 124.55 148.35 125.35 C 147.88 126.14 148.14 127.16 148.94 127.63 L 149.77 128.13 C 150.56 128.60 151.59 128.33 152.05 127.54 C 152.52 126.75 152.26 125.72 151.47 125.25 Z M 150.61 124.77 L 149.82 124.32 C 149.04 123.86 148.03 124.13 147.57 124.92 C 147.12 125.70 147.39 126.71 148.17 127.16 L 148.96 127.62 C 149.75 128.08 150.75 127.81 151.21 127.02 C 151.66 126.23 151.40 125.23 150.61 124.77 Z"
      fill="black"
      fill-rule="nonzero" /></svg>