<svg xmlns="http://www.w3.org/2000/svg" width="300" height="300" viewBox="0 0 300 300">
<path d="M 156.50 149.57 L 155.91 148.81 C 155.33 148.08 154.27 147.95 153.54 148.52 C 152.80 149.10 152.68 150.16 153.25 150.89 L 153.84 151.65 C 154.42 152.38 155.48 152.51 156.21 151.94 C 156.94 151.37 157.07 150.31 156.50 149.57 Z M 155.91 148.77 L 155.30 148.01 C 154.70 147.27 153.62 147.16 152.88 147.76 C 152.14 148.36 152.03 149.44 152.63 150.18 L 153.24 150.93 C 153.84 151.67 154.92 151.79 155.66 151.19 C 156.40 150.59 156.51 149.51 155.91 148.77 Z M 155.29 147.95 L 154.65 147.20 C 154.01 146.47 152.90 146.39 152.17 147.02 C 151.44 147.66 151.36 148.77 151.99 149.50 L 152.64 150.24 C 153.27 150.98 154.38 151.06 155.11 150.42 C 155.85 149.79 155.93 148.68 155.29 147.95 Z M 154.62 147.12 L 153.92 146.38 C 153.24 145.67 152.10 145.64 151.39 146.32 C 150.67 147.00 150.65 148.14 151.33 148.85 L 152.02 149.58 C 152.71 150.30 153.84 150.33 154.55 149.64 C 155.27 148.96 155.30 147.83 154.62 147.12 Z M 153.87 146.28 L 153.10 145.57 C 152.36 144.88 151.21 144.92 150.52 145.66 C 149.84 146.40 149.88 147.55 150.61 148.24 L 151.38 148.95 C 152.12 149.64 153.27 149.60 153.96 148.86 C 154.64 148.12 154.60 146.97 153.87 146.28 Z M 153.03 145.47 L 152.27 144.85 C 151.48 144.20 150.31 144.32 149.66 145.11 C 149.01 145.90 149.13 147.07 149.92 147.72 L 150.68 148.34 C 151.48 148.99 152.64 148.87 153.29 148.08 C 153.94 147.29 153.82 146.12 153.03 145.47 Z M 152.19 144.76 L 151.39 144.18 C 150.55 143.58 149.38 143.77 148.77 144.61 C 148.17 145.45 148.36 146.63 149.20 147.23 L 150.00 147.81 C 150.84 148.41 152.02 148.22 152.62 147.38 C 153.23 146.54 153.03 145.36 152.19 144.76 Z M 151.31 144.09 L 150.46 143.56 C 149.57 143.00 148.39 143.27 147.83 144.16 C 147.27 145.05 147.54 146.22 148.43 146.78 L 149.28 147.32 C 150.17 147.88 151.35 147.61 151.91 146.72 C 152.47 145.83 152.20 144.65 151.31 144.09 Z M 150.36 143.48 L 149.46 142.99 C 148.53 142.49 147.36 142.84 146.85 143.78 C 146.35 144.71 146.70 145.88 147.64 146.39 L 148.53 146.87 C 149.47 147.37 150.64 147.02 151.14 146.08 C 151.64 145.15 151.29 143.98 150.36 143.48 Z M 149.35 142.91 L 148.42 142.50 C 147.44 142.06 146.28 142.49 145.84 143.48 C 145.40 144.46 145.84 145.61 146.83 146.05 L 147.75 146.47 C 148.74 146.91 149.89 146.47 150.33 145.49 C 150.77 144.51 150.33 143.35 149.35 142.91 Z M 148.28 142.41 L 147.33 142.08 C 146.31 141.71 145.18 142.25 144.81 143.28 C 144.45 144.31 144.99 145.43 146.01 145.80 L 146.96 146.14 C 147.99 146.50 149.12 145.96 149.48 144.94 C 149.85 143.91 149.31 142.78 148.28 142.41 Z M 147.16 142.01 L 146.15 141.75 C 145.08 141.48 143.99 142.12 143.72 143.19 C 143.45 144.26 144.10 145.34 145.16 145.61 L 146.18 145.87 C 147.25 146.14 148.34 145.50 148.61 144.43 C 148.88 143.36 148.23 142.28 147.16 142.01 Z M 145.95 141.69 L 144.92 141.54 C 143.82 141.37 142.80 142.13 142.63 143.23 C 142.47 144.33 143.23 145.35 144.33 145.51 L 145.36 145.67 C 146.46 145.83 147.48 145.07 147.64 143.98 C 147.81 142.88 147.05 141.86 145.95 141.69 Z M 144.71 141.50 L 143.69 141.46 C 142.57 141.41 141.63 142.28 141.58 143.40 C 141.54 144.51 142.40 145.46 143.52 145.51 L 144.54 145.55 C 145.65 145.60 146.60 144.73 146.65 143.61 C 146.69 142.49 145.82 141.55 144.71 141.50 Z M 143.46 141.45 L 142.48 141.52 C 141.35 141.60 140.51 142.58 140.59 143.70 C 140.67 144.82 141.65 145.67 142.77 145.59 L 143.75 145.52 C 144.88 145.44 145.72 144.46 145.64 143.34 C 145.56 142.21 144.58 141.37 143.46 141.45 Z M 142.22 141.54 L 141.29 141.73 C 140.17 141.95 139.45 143.03 139.67 144.14 C 139.90 145.26 140.98 145.98 142.09 145.75 L 143.03 145.57 C 144.14 145.34 144.86 144.26 144.64 143.15 C 144.41 142.04 143.33 141.32 142.22 141.54 Z M 141.01 141.79 L 140.15 142.09 C 139.08 142.46 138.51 143.64 138.88 144.72 C 139.26 145.80 140.44 146.37 141.52 145.99 L 142.37 145.69 C 143.45 145.31 144.02 144.14 143.64 143.06 C 143.26 141.98 142.08 141.41 141.01 141.79 Z M 139.87 142.20 L 139.14 142.59 C 138.12 143.12 137.73 144.37 138.26 145.39 C 138.80 146.40 140.05 146.79 141.07 146.26 L 141.80 145.88 C 142.82 145.34 143.21 144.09 142.67 143.07 C 142.14 142.06 140.89 141.67 139.87 142.20 Z M 138.89 142.74 L 138.19 143.24 C 137.26 143.91 137.05 145.21 137.72 146.14 C 138.39 147.07 139.69 147.28 140.62 146.61 L 141.32 146.11 C 142.25 145.44 142.46 144.14 141.79 143.21 C 141.12 142.28 139.82 142.07 138.89 142.74 Z M 137.99 143.40 L 137.31 144.03 C 136.47 144.81 136.42 146.13 137.20 146.97 C 137.99 147.81 139.30 147.86 140.15 147.08 L 140.82 146.45 C 141.67 145.67 141.71 144.35 140.93 143.51 C 140.15 142.66 138.83 142.62 137.99 143.40 Z M 137.17 144.17 L 136.49 144.94 C 135.73 145.80 135.81 147.12 136.67 147.88 C 137.54 148.65 138.85 148.57 139.62 147.70 L 140.29 146.93 C 141.06 146.07 140.98 144.75 140.11 143.99 C 139.25 143.23 137.93 143.31 137.17 144.17 Z M 136.39 145.05 L 135.69 145.97 C 134.99 146.89 135.17 148.20 136.09 148.90 C 137.01 149.60 138.32 149.42 139.02 148.50 L 139.72 147.59 C 140.42 146.67 140.24 145.36 139.32 144.66 C 138.40 143.96 137.09 144.13 136.39 145.05 Z M 135.63 146.05 L 134.93 147.06 C 134.28 148.02 134.52 149.32 135.47 149.98 C 136.42 150.63 137.73 150.39 138.38 149.44 L 139.08 148.42 C 139.74 147.47 139.50 146.17 138.54 145.51 C 137.59 144.85 136.28 145.10 135.63 146.05 Z M 134.90 147.11 L 134.43 147.84 C 133.80 148.81 134.07 150.11 135.04 150.74 C 136.02 151.37 137.32 151.09 137.95 150.12 L 138.42 149.39 C 139.05 148.42 138.77 147.12 137.80 146.49 C 136.83 145.86 135.53 146.14 134.90 147.11 Z M 134.40 147.87 L 133.92 148.65 C 133.30 149.63 133.60 150.93 134.59 151.54 C 135.57 152.15 136.87 151.85 137.48 150.87 L 137.97 150.09 C 138.58 149.10 138.28 147.81 137.30 147.20 C 136.31 146.58 135.02 146.88 134.40 147.87 Z M 133.90 148.68 L 133.40 149.50 C 132.80 150.50 133.12 151.79 134.12 152.39 C 135.11 152.99 136.40 152.67 137.00 151.67 L 137.50 150.84 C 138.10 149.85 137.78 148.56 136.78 147.96 C 135.79 147.36 134.50 147.68 133.90 148.68 Z M 133.38 149.53 L 132.88 150.40 C 132.29 151.40 132.63 152.69 133.64 153.27 C 134.64 153.86 135.93 153.52 136.51 152.51 L 137.02 151.64 C 137.60 150.64 137.26 149.35 136.26 148.77 C 135.25 148.18 133.96 148.53 133.38 149.53 Z M 132.86 150.42 L 132.35 151.32 C 131.79 152.33 132.15 153.62 133.16 154.19 C 134.17 154.76 135.46 154.40 136.03 153.38 L 136.53 152.49 C 137.10 151.47 136.74 150.19 135.73 149.62 C 134.71 149.05 133.43 149.41 132.86 150.42 Z M 132.34 151.35 L 131.84 152.27 C 131.28 153.29 131.66 154.57 132.69 155.13 C 133.71 155.68 134.99 155.30 135.54 154.28 L 136.04 153.36 C 136.60 152.33 136.22 151.05 135.20 150.50 C 134.17 149.94 132.89 150.32 132.34 151.35 Z M 131.82 152.30 L 131.33 153.23 C 130.79 154.26 131.19 155.54 132.22 156.08 C 133.26 156.62 134.53 156.22 135.07 155.19 L 135.56 154.25 C 136.10 153.22 135.70 151.94 134.67 151.40 C 133.64 150.86 132.36 151.26 131.82 152.30 Z M 131.31 153.26 L 130.84 154.20 C 130.32 155.25 130.74 156.52 131.78 157.04 C 132.82 157.56 134.09 157.14 134.61 156.10 L 135.09 155.16 C 135.61 154.12 135.19 152.85 134.15 152.32 C 133.11 151.80 131.84 152.22 131.31 153.26 Z M 130.82 154.24 L 130.37 155.18 C 129.86 156.23 130.31 157.50 131.36 158.00 C 132.41 158.51 133.67 158.06 134.18 157.01 L 134.63 156.07 C 135.14 155.02 134.70 153.75 133.64 153.25 C 132.59 152.74 131.33 153.18 130.82 154.24 Z M 130.35 155.22 L 129.92 156.16 C 129.43 157.22 129.90 158.47 130.96 158.96 C 132.03 159.45 133.28 158.98 133.77 157.92 L 134.20 156.98 C 134.68 155.91 134.22 154.66 133.15 154.17 C 132.09 153.69 130.84 154.15 130.35 155.22 Z M 129.90 156.20 L 129.47 157.19 C 129.01 158.26 129.50 159.51 130.58 159.97 C 131.65 160.43 132.90 159.94 133.36 158.86 L 133.79 157.88 C 134.25 156.80 133.76 155.56 132.68 155.09 C 131.61 154.63 130.36 155.12 129.90 156.20 Z M 129.45 157.23 L 129.06 158.21 C 128.62 159.29 129.14 160.52 130.23 160.96 C 131.31 161.40 132.55 160.88 132.98 159.79 L 133.38 158.82 C 133.82 157.74 133.29 156.50 132.21 156.06 C 131.13 155.62 129.89 156.15 129.45 157.23 Z M 129.04 158.25 L 128.68 159.21 C 128.26 160.30 128.82 161.53 129.91 161.94 C 131.00 162.35 132.23 161.80 132.64 160.71 L 133.00 159.75 C 133.42 158.66 132.87 157.43 131.77 157.02 C 130.68 156.61 129.46 157.16 129.04 158.25 Z M 128.66 159.26 L 128.33 160.21 C 127.94 161.31 128.52 162.52 129.62 162.91 C 130.72 163.30 131.93 162.72 132.32 161.61 L 132.66 160.66 C 133.04 159.56 132.47 158.35 131.36 157.96 C 130.26 157.57 129.05 158.15 128.66 159.26 Z M 128.31 160.25 L 128.00 161.19 C 127.64 162.30 128.24 163.50 129.35 163.86 C 130.47 164.23 131.66 163.62 132.03 162.51 L 132.34 161.57 C 132.70 160.46 132.10 159.26 130.98 158.90 C 129.87 158.53 128.68 159.14 128.31 160.25 Z M 127.99 161.23 L 127.70 162.17 C 127.36 163.29 127.99 164.47 129.11 164.81 C 130.23 165.15 131.42 164.52 131.76 163.40 L 132.04 162.47 C 132.38 161.35 131.75 160.17 130.63 159.82 C 129.51 159.48 128.33 160.12 127.99 161.23 Z M 127.69 162.21 L 127.43 163.14 C 127.11 164.27 127.77 165.44 128.89 165.75 C 130.02 166.07 131.19 165.42 131.51 164.29 L 131.77 163.36 C 132.09 162.23 131.43 161.06 130.31 160.75 C 129.18 160.43 128.01 161.08 127.69 162.21 Z M 127.42 163.18 L 127.18 164.11 C 126.88 165.24 127.56 166.40 128.69 166.69 C 129.82 166.99 130.98 166.31 131.28 165.18 L 131.52 164.25 C 131.81 163.12 131.14 161.96 130.00 161.67 C 128.87 161.37 127.71 162.05 127.42 163.18 Z M 127.17 164.14 L 126.94 165.07 C 126.67 166.21 127.36 167.35 128.50 167.63 C 129.64 167.91 130.79 167.21 131.06 166.07 L 131.29 165.14 C 131.56 164.00 130.86 162.86 129.72 162.58 C 128.59 162.31 127.44 163.01 127.17 164.14 Z M 126.93 165.11 L 126.72 166.04 C 126.47 167.18 127.19 168.31 128.33 168.57 C 129.47 168.83 130.60 168.11 130.86 166.97 L 131.07 166.03 C 131.33 164.89 130.61 163.76 129.47 163.50 C 128.32 163.25 127.19 163.96 126.93 165.11 Z M 126.72 166.07 L 126.52 167.01 C 126.28 168.16 127.02 169.28 128.17 169.52 C 129.31 169.75 130.43 169.02 130.67 167.87 L 130.87 166.93 C 131.10 165.79 130.37 164.67 129.22 164.43 C 128.08 164.19 126.95 164.93 126.72 166.07 Z M 126.51 167.05 L 126.34 167.99 C 126.12 169.14 126.87 170.25 128.02 170.47 C 129.17 170.69 130.28 169.93 130.50 168.78 L 130.68 167.84 C 130.90 166.69 130.14 165.58 128.99 165.36 C 127.84 165.14 126.73 165.90 126.51 167.05 Z M 126.33 168.03 L 126.16 168.99 C 125.97 170.14 126.74 171.24 127.89 171.43 C 129.05 171.63 130.14 170.86 130.34 169.70 L 130.51 168.75 C 130.70 167.59 129.93 166.50 128.78 166.30 C 127.62 166.10 126.53 166.88 126.33 168.03 Z M 126.16 169.02 L 126.01 169.99 C 125.83 171.15 126.63 172.23 127.78 172.41 C 128.94 172.59 130.02 171.79 130.20 170.64 L 130.35 169.67 C 130.53 168.51 129.73 167.43 128.57 167.25 C 127.42 167.07 126.34 167.87 126.16 169.02 Z M 126.00 170.03 L 125.87 171.02 C 125.71 172.18 126.53 173.24 127.69 173.40 C 128.84 173.56 129.91 172.75 130.07 171.59 L 130.20 170.60 C 130.36 169.44 129.55 168.37 128.39 168.22 C 127.23 168.06 126.16 168.87 126.00 170.03 Z M 125.87 171.05 L 125.75 172.06 C 125.61 173.22 126.44 174.28 127.60 174.41 C 128.77 174.55 129.82 173.72 129.96 172.56 L 130.07 171.55 C 130.21 170.39 129.38 169.34 128.22 169.20 C 127.06 169.06 126.00 169.89 125.87 171.05 Z M 125.74 172.10 L 125.64 173.13 C 125.52 174.29 126.37 175.33 127.54 175.45 C 128.70 175.56 129.74 174.71 129.86 173.55 L 129.96 172.52 C 130.08 171.36 129.23 170.32 128.06 170.20 C 126.90 170.08 125.86 170.93 125.74 172.10 Z M 125.64 173.16 L 125.55 174.22 C 125.45 175.38 126.32 176.41 127.48 176.50 C 128.65 176.60 129.67 175.74 129.77 174.57 L 129.86 173.51 C 129.96 172.35 129.09 171.32 127.92 171.23 C 126.76 171.13 125.73 172.00 125.64 173.16 Z M 125.55 174.25 L 125.47 175.31 C 125.40 176.48 126.28 177.49 127.44 177.57 C 128.61 177.65 129.62 176.77 129.70 175.60 L 129.77 174.54 C 129.85 173.37 128.97 172.36 127.80 172.28 C 126.64 172.20 125.63 173.08 125.55 174.25 Z M 125.47 175.35 L 125.42 176.40 C 125.36 177.57 126.26 178.57 127.42 178.63 C 128.59 178.69 129.59 177.79 129.65 176.62 L 129.70 175.57 C 129.76 174.40 128.87 173.40 127.70 173.34 C 126.53 173.28 125.53 174.18 125.47 175.35 Z M 125.42 176.44 L 125.38 177.51 C 125.34 178.68 126.26 179.66 127.42 179.70 C 128.59 179.74 129.57 178.82 129.61 177.65 L 129.65 176.58 C 129.69 175.42 128.77 174.44 127.61 174.40 C 126.44 174.36 125.46 175.27 125.42 176.44 Z M 125.38 177.55 L 125.36 178.62 C 125.35 179.79 126.28 180.75 127.45 180.76 C 128.62 180.78 129.58 179.85 129.60 178.68 L 129.61 177.61 C 129.63 176.44 128.70 175.48 127.53 175.46 C 126.36 175.45 125.40 176.38 125.38 177.55 Z M 125.36 178.66 L 125.37 179.72 C 125.38 180.89 126.34 181.83 127.51 181.82 C 128.68 181.81 129.62 180.86 129.61 179.69 L 129.60 178.63 C 129.59 177.46 128.63 176.52 127.46 176.53 C 126.30 176.54 125.36 177.50 125.36 178.66 Z M 125.38 179.78 L 125.41 180.82 C 125.45 181.99 126.43 182.90 127.60 182.86 C 128.77 182.82 129.68 181.84 129.64 180.67 L 129.60 179.63 C 129.56 178.47 128.59 177.55 127.42 177.59 C 126.25 177.63 125.34 178.61 125.38 179.78 Z M 125.41 180.88 L 125.48 181.89 C 125.56 183.06 126.56 183.94 127.73 183.86 C 128.89 183.79 129.78 182.78 129.70 181.62 L 129.64 180.61 C 129.56 179.44 128.55 178.56 127.39 178.64 C 126.22 178.71 125.34 179.72 125.41 180.88 Z M 125.49 181.97 L 125.59 182.93 C 125.71 184.10 126.74 184.94 127.91 184.82 C 129.07 184.70 129.91 183.66 129.79 182.50 L 129.70 181.54 C 129.58 180.38 128.54 179.53 127.38 179.65 C 126.21 179.77 125.37 180.81 125.49 181.97 Z M 125.60 183.03 L 125.73 183.94 C 125.90 185.09 126.98 185.89 128.14 185.72 C 129.29 185.55 130.09 184.47 129.92 183.32 L 129.78 182.41 C 129.61 181.25 128.54 180.46 127.38 180.63 C 126.22 180.80 125.43 181.87 125.60 183.03 Z M 125.75 184.06 L 125.93 184.90 C 126.16 186.05 127.28 186.78 128.43 186.55 C 129.57 186.31 130.31 185.19 130.07 184.05 L 129.90 183.20 C 129.66 182.06 128.54 181.32 127.40 181.56 C 126.25 181.79 125.52 182.91 125.75 184.06 Z M 125.97 185.07 L 126.26 186.05 C 126.59 187.17 127.76 187.81 128.88 187.48 C 130.00 187.16 130.64 185.98 130.32 184.86 L 130.03 183.88 C 129.70 182.76 128.52 182.12 127.40 182.45 C 126.28 182.78 125.64 183.95 125.97 185.07 Z M 126.35 186.30 L 126.78 187.29 C 127.24 188.36 128.49 188.85 129.56 188.38 C 130.63 187.92 131.12 186.67 130.66 185.60 L 130.23 184.61 C 129.76 183.54 128.51 183.05 127.44 183.52 C 126.37 183.98 125.88 185.23 126.35 186.30 Z M 126.94 187.59 L 127.47 188.41 C 128.10 189.40 129.41 189.68 130.39 189.05 C 131.37 188.42 131.66 187.11 131.03 186.13 L 130.50 185.30 C 129.87 184.32 128.56 184.03 127.57 184.66 C 126.59 185.29 126.31 186.60 126.94 187.59 Z M 127.70 188.71 L 128.33 189.40 C 129.12 190.26 130.46 190.31 131.32 189.51 C 132.18 188.72 132.23 187.38 131.44 186.52 L 130.80 185.84 C 130.01 184.98 128.67 184.93 127.81 185.72 C 126.95 186.51 126.90 187.85 127.70 188.71 Z M 128.61 189.65 L 129.35 190.21 C 130.28 190.92 131.61 190.73 132.31 189.80 C 133.02 188.87 132.84 187.54 131.90 186.83 L 131.16 186.27 C 130.23 185.57 128.90 185.75 128.20 186.68 C 127.49 187.61 127.67 188.94 128.61 189.65 Z M 129.63 190.39 L 130.48 190.84 C 131.51 191.39 132.79 191.00 133.34 189.97 C 133.89 188.94 133.50 187.65 132.47 187.10 L 131.62 186.65 C 130.59 186.10 129.31 186.49 128.76 187.53 C 128.21 188.56 128.60 189.84 129.63 190.39 Z M 130.73 190.96 L 131.67 191.31 C 132.77 191.72 133.99 191.17 134.40 190.07 C 134.81 188.98 134.26 187.76 133.16 187.34 L 132.22 186.99 C 131.12 186.58 129.90 187.13 129.49 188.23 C 129.08 189.32 129.63 190.55 130.73 190.96 Z M 131.87 191.37 L 132.75 191.61 C 133.88 191.92 135.05 191.25 135.35 190.12 C 135.66 188.99 134.99 187.82 133.85 187.52 L 132.97 187.28 C 131.84 186.98 130.68 187.65 130.37 188.78 C 130.07 189.91 130.74 191.07 131.87 191.37 Z M 132.91 191.65 L 133.86 191.83 C 135.01 192.05 136.12 191.29 136.33 190.14 C 136.55 188.99 135.79 187.88 134.64 187.66 L 133.70 187.48 C 132.54 187.26 131.43 188.02 131.22 189.17 C 131.00 190.32 131.76 191.43 132.91 191.65 Z M 134.01 191.85 L 135.00 191.97 C 136.16 192.10 137.22 191.27 137.35 190.10 C 137.48 188.93 136.65 187.88 135.48 187.75 L 134.49 187.63 C 133.32 187.50 132.27 188.34 132.14 189.50 C 132.00 190.67 132.84 191.72 134.01 191.85 Z M 135.14 191.98 L 136.16 192.03 C 137.34 192.08 138.33 191.17 138.38 190.00 C 138.43 188.82 137.52 187.83 136.35 187.78 L 135.33 187.73 C 134.16 187.68 133.17 188.59 133.11 189.76 C 133.06 190.94 133.97 191.93 135.14 191.98 Z M 136.32 192.03 L 137.35 192.00 C 138.52 191.97 139.45 190.99 139.42 189.82 C 139.39 188.64 138.41 187.71 137.23 187.75 L 136.20 187.77 C 135.02 187.81 134.10 188.79 134.13 189.96 C 134.16 191.14 135.14 192.06 136.32 192.03 Z M 137.51 191.99 L 138.54 191.89 C 139.71 191.77 140.56 190.72 140.44 189.55 C 140.32 188.38 139.27 187.53 138.10 187.65 L 137.07 187.75 C 135.90 187.88 135.05 188.92 135.17 190.09 C 135.29 191.26 136.34 192.11 137.51 191.99 Z M 138.71 191.87 L 139.72 191.68 C 140.88 191.46 141.64 190.35 141.43 189.19 C 141.21 188.03 140.10 187.27 138.94 187.48 L 137.93 187.67 C 136.77 187.89 136.01 189.00 136.22 190.16 C 136.44 191.32 137.55 192.08 138.71 191.87 Z M 139.91 191.64 L 140.88 191.36 C 142.01 191.05 142.68 189.87 142.36 188.73 C 142.04 187.60 140.86 186.94 139.73 187.25 L 138.76 187.53 C 137.62 187.84 136.96 189.02 137.27 190.16 C 137.59 191.29 138.77 191.95 139.91 191.64 Z M 141.07 191.30 L 141.99 190.95 C 143.09 190.53 143.64 189.29 143.22 188.19 C 142.80 187.09 141.56 186.54 140.46 186.96 L 139.54 187.31 C 138.44 187.74 137.89 188.97 138.31 190.07 C 138.73 191.17 139.96 191.73 141.07 191.30 Z M 142.16 190.88 L 143.04 190.45 C 144.11 189.94 144.55 188.66 144.04 187.60 C 143.52 186.53 142.24 186.09 141.18 186.60 L 140.30 187.03 C 139.23 187.55 138.79 188.82 139.30 189.89 C 139.82 190.95 141.09 191.39 142.16 190.88 Z M 143.19 190.38 L 144.04 189.88 C 145.06 189.29 145.41 187.98 144.81 186.96 C 144.22 185.94 142.91 185.59 141.89 186.18 L 141.04 186.68 C 140.02 187.27 139.67 188.58 140.26 189.60 C 140.86 190.62 142.17 190.97 143.19 190.38 Z M 144.16 189.81 L 144.98 189.25 C 145.96 188.59 146.22 187.26 145.56 186.28 C 144.90 185.30 143.57 185.04 142.59 185.70 L 141.77 186.26 C 140.79 186.92 140.53 188.25 141.19 189.23 C 141.85 190.21 143.18 190.47 144.16 189.81 Z M 145.08 189.18 L 145.88 188.58 C 146.82 187.87 147.01 186.52 146.29 185.58 C 145.58 184.64 144.23 184.45 143.29 185.17 L 142.49 185.77 C 141.55 186.48 141.37 187.83 142.08 188.77 C 142.79 189.71 144.14 189.90 145.08 189.18 Z M 145.96 188.52 L 146.73 187.87 C 147.64 187.12 147.77 185.77 147.01 184.86 C 146.25 183.95 144.90 183.82 143.99 184.58 L 143.21 185.23 C 142.30 185.98 142.18 187.33 142.94 188.24 C 143.69 189.15 145.05 189.28 145.96 188.52 Z M 146.79 187.82 L 147.55 187.14 C 148.43 186.35 148.51 185.00 147.72 184.12 C 146.93 183.23 145.57 183.16 144.69 183.95 L 143.93 184.63 C 143.05 185.42 142.97 186.77 143.76 187.66 C 144.55 188.54 145.91 188.61 146.79 187.82 Z M 147.59 187.11 L 148.33 186.42 C 149.19 185.60 149.23 184.24 148.41 183.38 C 147.60 182.52 146.24 182.48 145.38 183.30 L 144.65 183.99 C 143.79 184.80 143.75 186.16 144.56 187.02 C 145.37 187.88 146.73 187.92 147.59 187.11 Z M 148.36 186.39 L 149.07 185.69 C 149.91 184.86 149.92 183.50 149.09 182.65 C 148.26 181.81 146.90 181.80 146.05 182.63 L 145.35 183.33 C 144.50 184.16 144.49 185.52 145.32 186.36 C 146.15 187.21 147.51 187.22 148.36 186.39 Z M 149.09 185.66 L 149.79 184.95 C 150.62 184.11 150.61 182.75 149.76 181.92 C 148.92 181.08 147.56 181.10 146.73 181.94 L 146.03 182.66 C 145.20 183.50 145.21 184.86 146.06 185.69 C 146.90 186.52 148.26 186.51 149.09 185.66 Z M 149.81 184.93 L 150.50 184.21 C 151.32 183.35 151.29 181.99 150.43 181.17 C 149.57 180.35 148.21 180.38 147.40 181.24 L 146.70 181.97 C 145.89 182.82 145.92 184.18 146.78 185.00 C 147.63 185.82 148.99 185.79 149.81 184.93 Z M 150.52 184.19 L 151.21 183.45 C 152.02 182.59 151.97 181.23 151.10 180.42 C 150.23 179.61 148.87 179.66 148.06 180.52 L 147.38 181.26 C 146.57 182.13 146.62 183.49 147.49 184.30 C 148.35 185.10 149.71 185.06 150.52 184.19 Z M 151.22 183.44 L 151.90 182.70 C 152.70 181.82 152.64 180.46 151.76 179.66 C 150.89 178.86 149.53 178.92 148.73 179.80 L 148.05 180.54 C 147.25 181.41 147.31 182.77 148.18 183.57 C 149.06 184.38 150.42 184.32 151.22 183.44 Z M 151.91 182.69 L 152.58 181.94 C 153.38 181.06 153.31 179.70 152.42 178.91 C 151.54 178.11 150.18 178.18 149.39 179.06 L 148.72 179.81 C 147.92 180.69 147.99 182.05 148.87 182.84 C 149.75 183.64 151.11 183.57 151.91 182.69 Z M 152.59 181.94 L 153.26 181.19 C 154.05 180.30 153.97 178.94 153.09 178.15 C 152.20 177.36 150.84 177.44 150.05 178.32 L 149.38 179.07 C 148.59 179.95 148.67 181.31 149.55 182.10 C 150.44 182.90 151.80 182.82 152.59 181.94 Z M 153.26 181.19 L 153.91 180.45 C 154.70 179.57 154.62 178.21 153.74 177.42 C 152.85 176.63 151.49 176.71 150.70 177.59 L 150.05 178.32 C 149.26 179.21 149.33 180.57 150.22 181.36 C 151.11 182.15 152.47 182.07 153.26 181.19 Z M 153.91 180.45 L 154.54 179.74 C 155.33 178.85 155.25 177.49 154.37 176.70 C 153.48 175.92 152.12 176.00 151.33 176.88 L 150.70 177.59 C 149.91 178.48 149.99 179.84 150.87 180.63 C 151.76 181.42 153.12 181.34 153.91 180.45 Z M 154.55 179.74 L 155.18 179.02 C 155.97 178.13 155.89 176.77 155.00 175.99 C 154.11 175.20 152.75 175.28 151.96 176.17 L 151.33 176.89 C 150.54 177.78 150.62 179.14 151.51 179.92 C 152.40 180.71 153.76 180.63 154.55 179.74 Z M 155.19 179.02 L 155.82 178.29 C 156.61 177.40 156.52 176.04 155.63 175.26 C 154.73 174.47 153.37 174.56 152.59 175.45 L 151.95 176.18 C 151.17 177.07 151.26 178.43 152.15 179.22 C 153.04 180.00 154.40 179.91 155.19 179.02 Z M 155.83 178.29 L 156.47 177.55 C 157.25 176.65 157.16 175.29 156.26 174.51 C 155.36 173.73 154.00 173.83 153.22 174.72 L 152.58 175.46 C 151.80 176.36 151.90 177.72 152.79 178.50 C 153.69 179.28 155.05 179.18 155.83 178.29 Z M 156.48 177.54 L 157.13 176.78 C 157.90 175.88 157.80 174.52 156.90 173.74 C 155.99 172.97 154.63 173.07 153.86 173.98 L 153.21 174.73 C 152.44 175.64 152.54 177.00 153.44 177.77 C 154.35 178.55 155.71 178.44 156.48 177.54 Z M 157.14 176.77 L 157.80 175.99 C 158.57 175.08 158.45 173.72 157.54 172.95 C 156.64 172.19 155.28 172.30 154.51 173.21 L 153.85 173.99 C 153.08 174.90 153.20 176.26 154.11 177.02 C 155.01 177.79 156.37 177.68 157.14 176.77 Z M 157.81 175.98 L 158.48 175.17 C 159.24 174.25 159.12 172.89 158.20 172.13 C 157.29 171.37 155.93 171.50 155.17 172.41 L 154.50 173.22 C 153.74 174.14 153.86 175.50 154.78 176.26 C 155.69 177.02 157.05 176.89 157.81 175.98 Z M 158.50 175.15 L 159.18 174.31 C 159.94 173.39 159.80 172.03 158.88 171.28 C 157.95 170.52 156.60 170.66 155.84 171.58 L 155.16 172.43 C 154.40 173.35 154.54 174.71 155.46 175.46 C 156.39 176.21 157.74 176.07 158.50 175.15 Z M 159.20 174.29 L 159.83 173.50 C 160.58 172.57 160.43 171.21 159.50 170.47 C 158.57 169.72 157.21 169.87 156.47 170.80 L 155.83 171.60 C 155.09 172.53 155.24 173.88 156.17 174.63 C 157.10 175.37 158.45 175.22 159.20 174.29 Z M 159.85 173.48 L 160.48 172.67 C 161.22 171.74 161.06 170.38 160.12 169.65 C 159.19 168.91 157.83 169.07 157.10 170.01 L 156.46 170.82 C 155.72 171.75 155.88 173.11 156.82 173.84 C 157.75 174.58 159.11 174.42 159.85 173.48 Z M 160.49 172.66 L 161.13 171.83 C 161.86 170.89 161.69 169.54 160.75 168.81 C 159.81 168.08 158.45 168.25 157.72 169.20 L 157.08 170.02 C 156.36 170.96 156.53 172.32 157.47 173.04 C 158.41 173.77 159.77 173.60 160.49 172.66 Z M 161.14 171.82 L 161.78 170.98 C 162.50 170.04 162.32 168.68 161.37 167.96 C 160.42 167.24 159.07 167.43 158.35 168.37 L 157.71 169.21 C 156.99 170.16 157.18 171.51 158.12 172.23 C 159.07 172.95 160.42 172.77 161.14 171.82 Z M 161.79 170.97 L 162.41 170.13 C 163.13 169.18 162.93 167.83 161.98 167.12 C 161.02 166.40 159.67 166.60 158.96 167.55 L 158.34 168.39 C 157.62 169.34 157.82 170.69 158.77 171.41 C 159.73 172.12 161.08 171.92 161.79 170.97 Z M 162.43 170.12 L 163.03 169.29 C 163.74 168.33 163.53 166.98 162.57 166.27 C 161.60 165.57 160.26 165.78 159.55 166.74 L 158.95 167.57 C 158.24 168.53 158.45 169.88 159.42 170.58 C 160.38 171.29 161.72 171.08 162.43 170.12 Z M 163.05 169.27 L 163.63 168.45 C 164.32 167.48 164.10 166.14 163.13 165.45 C 162.16 164.75 160.81 164.98 160.12 165.95 L 159.54 166.76 C 158.85 167.73 159.07 169.08 160.04 169.77 C 161.01 170.46 162.35 170.24 163.05 169.27 Z M 163.64 168.43 L 164.20 167.64 C 164.88 166.66 164.63 165.32 163.66 164.64 C 162.68 163.96 161.34 164.20 160.66 165.18 L 160.11 165.97 C 159.43 166.95 159.67 168.29 160.64 168.97 C 161.62 169.65 162.96 169.41 163.64 168.43 Z M 164.21 167.61 L 164.73 166.85 C 165.39 165.87 165.13 164.53 164.15 163.86 C 163.16 163.19 161.82 163.45 161.15 164.44 L 160.64 165.20 C 159.97 166.19 160.23 167.53 161.22 168.19 C 162.21 168.86 163.55 168.60 164.21 167.61 Z M 164.75 166.82 L 165.33 165.91 C 165.98 164.91 165.69 163.58 164.69 162.93 C 163.69 162.29 162.36 162.57 161.71 163.57 L 161.13 164.48 C 160.48 165.48 160.77 166.81 161.77 167.46 C 162.77 168.10 164.10 167.82 164.75 166.82 Z M 165.38 165.83 L 166.06 164.67 C 166.66 163.65 166.31 162.33 165.29 161.73 C 164.26 161.13 162.94 161.47 162.34 162.50 L 161.67 163.65 C 161.07 164.68 161.41 166.00 162.44 166.60 C 163.46 167.20 164.78 166.86 165.38 165.83 Z M 166.15 164.49 L 166.62 163.47 C 167.12 162.39 166.65 161.12 165.57 160.62 C 164.49 160.12 163.21 160.60 162.71 161.67 L 162.25 162.69 C 161.75 163.77 162.22 165.04 163.30 165.54 C 164.38 166.04 165.66 165.57 166.15 164.49 Z M 166.75 163.09 L 166.97 162.22 C 167.25 161.07 166.55 159.91 165.40 159.62 C 164.24 159.34 163.08 160.04 162.79 161.19 L 162.58 162.06 C 162.30 163.21 163.00 164.37 164.15 164.66 C 165.30 164.94 166.47 164.24 166.75 163.09 Z M 167.01 161.47 L 166.93 160.75 C 166.80 159.57 165.73 158.73 164.56 158.86 C 163.38 159.00 162.53 160.06 162.67 161.24 L 162.75 161.95 C 162.88 163.13 163.95 163.98 165.12 163.84 C 166.30 163.71 167.15 162.64 167.01 161.47 Z M 166.51 159.71 L 166.09 159.15 C 165.38 158.20 164.04 158.01 163.09 158.73 C 162.14 159.44 161.96 160.78 162.67 161.73 L 163.09 162.29 C 163.80 163.23 165.14 163.42 166.09 162.71 C 167.03 162.00 167.22 160.65 166.51 159.71 Z M 165.43 158.59 L 164.86 158.27 C 163.84 157.69 162.54 158.05 161.96 159.07 C 161.38 160.10 161.75 161.40 162.77 161.97 L 163.33 162.29 C 164.36 162.87 165.65 162.51 166.23 161.49 C 166.81 160.46 166.45 159.16 165.43 158.59 Z M 164.45 158.12 L 163.71 157.88 C 162.60 157.53 161.42 158.14 161.07 159.25 C 160.72 160.36 161.33 161.54 162.44 161.89 L 163.18 162.13 C 164.29 162.48 165.47 161.86 165.82 160.76 C 166.17 159.65 165.56 158.47 164.45 158.12 Z M 163.46 157.85 L 162.56 157.67 C 161.43 157.46 160.35 158.20 160.13 159.33 C 159.92 160.46 160.66 161.54 161.79 161.75 L 162.69 161.93 C 163.81 162.14 164.90 161.40 165.11 160.27 C 165.33 159.14 164.59 158.06 163.46 157.85 Z M 162.41 157.68 L 161.38 157.56 C 160.26 157.43 159.24 158.24 159.11 159.36 C 158.98 160.49 159.79 161.50 160.92 161.63 L 161.94 161.75 C 163.07 161.88 164.08 161.07 164.21 159.95 C 164.34 158.82 163.53 157.81 162.41 157.68 Z M 161.29 157.58 L 160.17 157.50 C 159.05 157.43 158.09 158.27 158.01 159.38 C 157.93 160.50 158.77 161.46 159.89 161.54 L 161.01 161.62 C 162.12 161.69 163.09 160.85 163.17 159.74 C 163.24 158.62 162.40 157.66 161.29 157.58 Z M 160.11 157.53 L 158.92 157.48 C 157.82 157.43 156.89 158.29 156.85 159.39 C 156.80 160.49 157.66 161.42 158.76 161.47 L 159.94 161.51 C 161.05 161.56 161.98 160.70 162.02 159.60 C 162.07 158.50 161.21 157.57 160.11 157.53 Z M 158.90 157.50 L 157.67 157.47 C 156.59 157.44 155.68 158.29 155.65 159.38 C 155.62 160.47 156.48 161.37 157.56 161.40 L 158.79 161.44 C 159.87 161.47 160.78 160.61 160.81 159.53 C 160.84 158.44 159.98 157.53 158.90 157.50 Z M 157.67 157.48 L 157.43 157.48 C 156.35 157.45 155.45 158.30 155.42 159.38 C 155.40 160.46 156.25 161.36 157.33 161.38 L 157.57 161.39 C 158.65 161.42 159.54 160.56 159.57 159.49 C 159.60 158.41 158.74 157.51 157.67 157.48 Z"
      fill="black"
      fill-rule="nonzero" /></svg>