<svg xmlns="http://www.w3.org/2000/svg" width="300" height="300" viewBox="0 0 300 300">
<path d="M 145.90 83.21 L 144.71 83.09 C 143.63 82.97 142.66 83.76 142.54 84.84 C 142.43 85.92 143.21 86.89 144.29 87.00 L 145.48 87.13 C 146.56 87.24 147.53 86.46 147.65 85.38 C 147.76 84.30 146.98 83.33 145.90 83.21 Z M 144.68 83.07 L 143.52 82.96 C 142.43 82.86 141.46 83.67 141.36 84.76 C 141.26 85.85 142.07 86.81 143.16 86.91 L 144.32 87.02 C 145.41 87.12 146.38 86.32 146.48 85.23 C 146.58 84.14 145.77 83.17 144.68 83.07 Z M 143.46 82.95 L 142.35 82.88 C 141.25 82.81 140.31 83.64 140.24 84.74 C 140.17 85.84 141.00 86.79 142.10 86.86 L 143.21 86.93 C 144.31 87.00 145.26 86.17 145.33 85.06 C 145.40 83.96 144.56 83.01 143.46 82.95 Z M 142.26 82.86 L 141.23 82.84 C 140.12 82.83 139.20 83.72 139.19 84.83 C 139.17 85.94 140.06 86.85 141.17 86.87 L 142.20 86.88 C 143.31 86.89 144.23 86.01 144.24 84.90 C 144.26 83.78 143.37 82.87 142.26 82.86 Z M 141.07 82.83 L 140.15 82.89 C 139.03 82.97 138.19 83.93 138.26 85.05 C 138.33 86.17 139.30 87.01 140.41 86.94 L 141.33 86.88 C 142.45 86.80 143.30 85.84 143.22 84.72 C 143.15 83.60 142.18 82.76 141.07 82.83 Z M 139.89 82.91 L 139.10 83.07 C 138.00 83.29 137.28 84.36 137.49 85.46 C 137.71 86.57 138.78 87.29 139.89 87.07 L 140.67 86.92 C 141.78 86.70 142.50 85.63 142.28 84.52 C 142.07 83.42 140.99 82.70 139.89 82.91 Z M 138.68 83.19 L 138.03 83.47 C 136.99 83.92 136.51 85.13 136.97 86.17 C 137.42 87.21 138.63 87.69 139.67 87.23 L 140.31 86.95 C 141.35 86.50 141.83 85.29 141.38 84.25 C 140.93 83.21 139.72 82.74 138.68 83.19 Z M 137.38 83.90 L 136.87 84.43 C 136.07 85.24 136.08 86.54 136.88 87.34 C 137.69 88.14 139.00 88.13 139.80 87.32 L 140.31 86.80 C 141.11 85.99 141.10 84.69 140.30 83.89 C 139.49 83.09 138.18 83.10 137.38 83.90 Z M 136.36 85.28 L 136.15 85.99 C 135.82 87.08 136.43 88.23 137.52 88.56 C 138.61 88.89 139.76 88.27 140.09 87.18 L 140.30 86.47 C 140.63 85.38 140.01 84.23 138.93 83.90 C 137.84 83.58 136.69 84.19 136.36 85.28 Z M 136.07 86.80 L 136.16 87.68 C 136.28 88.82 137.29 89.64 138.42 89.52 C 139.55 89.41 140.37 88.39 140.26 87.26 L 140.16 86.38 C 140.05 85.25 139.04 84.42 137.91 84.54 C 136.78 84.66 135.95 85.67 136.07 86.80 Z M 136.29 88.21 L 136.69 89.26 C 137.09 90.32 138.28 90.85 139.35 90.44 C 140.41 90.04 140.94 88.85 140.53 87.79 L 140.13 86.74 C 139.72 85.68 138.53 85.15 137.47 85.55 C 136.41 85.96 135.88 87.15 136.29 88.21 Z M 136.84 89.58 L 137.56 90.77 C 138.15 91.75 139.41 92.07 140.38 91.48 C 141.36 90.90 141.67 89.63 141.09 88.66 L 140.37 87.46 C 139.79 86.49 138.53 86.17 137.55 86.76 C 136.58 87.34 136.26 88.61 136.84 89.58 Z M 137.68 90.94 L 138.24 91.69 C 138.91 92.60 140.20 92.79 141.11 92.12 C 142.02 91.44 142.21 90.15 141.53 89.24 L 140.97 88.49 C 140.30 87.58 139.01 87.39 138.10 88.07 C 137.19 88.74 137.00 90.03 137.68 90.94 Z M 138.31 91.77 L 138.83 92.40 C 139.54 93.27 140.83 93.40 141.70 92.68 C 142.58 91.96 142.70 90.67 141.98 89.80 L 141.46 89.17 C 140.74 88.30 139.46 88.17 138.58 88.89 C 137.71 89.61 137.59 90.89 138.31 91.77 Z M 138.88 92.45 L 139.46 93.10 C 140.20 93.94 141.49 94.02 142.33 93.28 C 143.17 92.54 143.25 91.25 142.51 90.41 L 141.93 89.76 C 141.19 88.91 139.90 88.83 139.06 89.58 C 138.22 90.32 138.14 91.60 138.88 92.45 Z M 139.51 93.14 L 140.14 93.81 C 140.90 94.63 142.18 94.68 143.00 93.92 C 143.81 93.15 143.86 91.87 143.10 91.06 L 142.46 90.38 C 141.70 89.56 140.42 89.52 139.61 90.28 C 138.79 91.04 138.74 92.32 139.51 93.14 Z M 140.18 93.84 L 140.85 94.54 C 141.63 95.33 142.90 95.35 143.70 94.57 C 144.49 93.80 144.51 92.53 143.74 91.73 L 143.06 91.03 C 142.28 90.24 141.01 90.22 140.21 90.99 C 139.42 91.77 139.40 93.04 140.18 93.84 Z M 140.89 94.55 L 141.61 95.27 C 142.39 96.04 143.66 96.04 144.43 95.26 C 145.21 94.47 145.21 93.20 144.42 92.43 L 143.70 91.71 C 142.92 90.93 141.65 90.94 140.88 91.72 C 140.10 92.51 140.10 93.77 140.89 94.55 Z M 141.63 95.28 L 142.39 96.01 C 143.18 96.77 144.44 96.75 145.20 95.96 C 145.96 95.16 145.94 93.91 145.15 93.14 L 144.40 92.41 C 143.61 91.65 142.35 91.67 141.58 92.46 C 140.82 93.26 140.84 94.51 141.63 95.28 Z M 142.41 96.01 L 143.19 96.75 C 143.99 97.50 145.24 97.47 145.99 96.67 C 146.74 95.88 146.70 94.62 145.91 93.87 L 145.13 93.14 C 144.33 92.38 143.08 92.42 142.33 93.21 C 141.58 94.01 141.62 95.26 142.41 96.01 Z M 143.21 96.75 L 144.02 97.50 C 144.81 98.24 146.06 98.20 146.80 97.40 C 147.54 96.60 147.49 95.36 146.70 94.62 L 145.89 93.87 C 145.09 93.13 143.85 93.18 143.11 93.97 C 142.37 94.77 142.41 96.01 143.21 96.75 Z M 144.03 97.50 L 144.85 98.26 C 145.65 98.99 146.89 98.94 147.62 98.14 C 148.35 97.34 148.30 96.11 147.50 95.37 L 146.68 94.62 C 145.88 93.89 144.65 93.94 143.91 94.74 C 143.18 95.53 143.24 96.77 144.03 97.50 Z M 144.87 98.25 L 145.70 99.01 C 146.49 99.74 147.72 99.68 148.45 98.89 C 149.17 98.09 149.11 96.86 148.32 96.14 L 147.49 95.38 C 146.69 94.65 145.46 94.71 144.74 95.50 C 144.01 96.30 144.07 97.53 144.87 98.25 Z M 145.71 99.01 L 146.37 99.61 C 147.16 100.33 148.39 100.27 149.11 99.48 C 149.83 98.69 149.77 97.47 148.98 96.75 L 148.31 96.14 C 147.52 95.42 146.30 95.48 145.58 96.27 C 144.86 97.06 144.91 98.29 145.71 99.01 Z"
      fill="black"
      fill-rule="nonzero" /><path d="M 102.30 130.90 L 101.05 130.54 C 100.13 130.27 99.16 130.80 98.89 131.72 C 98.62 132.65 99.15 133.62 100.08 133.89 L 101.33 134.25 C 102.25 134.52 103.22 133.99 103.49 133.06 C 103.76 132.14 103.23 131.17 102.30 130.90 Z M 101.08 130.50 L 99.87 130.14 C 98.93 129.85 97.93 130.39 97.64 131.33 C 97.36 132.28 97.90 133.28 98.84 133.56 L 100.05 133.92 C 100.99 134.21 101.99 133.67 102.28 132.73 C 102.56 131.78 102.02 130.78 101.08 130.50 Z M 99.92 130.10 L 98.80 129.74 C 97.84 129.43 96.81 129.96 96.50 130.93 C 96.19 131.89 96.72 132.92 97.68 133.23 L 98.79 133.59 C 99.76 133.90 100.79 133.38 101.10 132.41 C 101.41 131.45 100.88 130.42 99.92 130.10 Z M 98.88 129.72 L 97.91 129.37 C 96.93 129.02 95.85 129.52 95.50 130.49 C 95.14 131.47 95.65 132.54 96.62 132.90 L 97.60 133.25 C 98.58 133.61 99.65 133.11 100.01 132.13 C 100.36 131.16 99.86 130.08 98.88 129.72 Z M 98.04 129.37 L 97.24 129.02 C 96.27 128.60 95.14 129.04 94.71 130.01 C 94.28 130.98 94.72 132.12 95.70 132.54 L 96.49 132.89 C 97.46 133.32 98.60 132.88 99.02 131.91 C 99.45 130.94 99.01 129.80 98.04 129.37 Z M 97.48 129.10 L 96.92 128.76 C 95.99 128.20 94.78 128.50 94.22 129.43 C 93.66 130.36 93.96 131.57 94.89 132.13 L 95.45 132.47 C 96.38 133.03 97.59 132.73 98.15 131.80 C 98.71 130.87 98.41 129.66 97.48 129.10 Z M 97.44 129.16 L 97.14 128.79 C 96.43 127.94 95.16 127.82 94.31 128.53 C 93.46 129.24 93.35 130.50 94.05 131.35 L 94.36 131.72 C 95.07 132.58 96.33 132.69 97.18 131.98 C 98.04 131.28 98.15 130.01 97.44 129.16 Z M 97.56 130.54 L 97.66 130.11 C 97.92 129.03 97.25 127.94 96.16 127.68 C 95.08 127.42 93.98 128.09 93.73 129.18 L 93.63 129.61 C 93.37 130.69 94.04 131.78 95.13 132.04 C 96.22 132.30 97.31 131.63 97.56 130.54 Z M 96.90 131.28 L 97.46 130.87 C 98.36 130.21 98.56 128.94 97.89 128.03 C 97.23 127.13 95.96 126.94 95.06 127.60 L 94.49 128.01 C 93.59 128.68 93.40 129.95 94.06 130.85 C 94.72 131.75 95.99 131.95 96.90 131.28 Z M 97.04 131.11 L 98.01 130.71 C 99.05 130.28 99.54 129.09 99.10 128.05 C 98.67 127.01 97.48 126.52 96.44 126.95 L 95.47 127.36 C 94.44 127.79 93.95 128.98 94.38 130.02 C 94.81 131.05 96.00 131.55 97.04 131.11 Z M 97.81 130.78 L 99.14 130.39 C 100.21 130.06 100.83 128.92 100.50 127.84 C 100.18 126.77 99.04 126.15 97.96 126.48 L 96.64 126.88 C 95.56 127.20 94.95 128.34 95.27 129.42 C 95.60 130.50 96.73 131.11 97.81 130.78 Z M 99.04 130.42 L 100.36 130.09 C 101.46 129.82 102.13 128.71 101.86 127.61 C 101.59 126.52 100.48 125.85 99.38 126.12 L 98.06 126.45 C 96.96 126.72 96.29 127.83 96.56 128.92 C 96.83 130.02 97.94 130.69 99.04 130.42 Z M 100.32 130.10 L 101.17 129.91 C 102.27 129.67 102.96 128.57 102.72 127.47 C 102.47 126.37 101.37 125.67 100.27 125.92 L 99.43 126.11 C 98.32 126.35 97.63 127.45 97.88 128.55 C 98.12 129.66 99.22 130.35 100.32 130.10 Z M 101.14 129.92 L 102.04 129.73 C 103.14 129.49 103.85 128.41 103.62 127.30 C 103.38 126.20 102.30 125.49 101.19 125.72 L 100.30 125.91 C 99.19 126.15 98.48 127.23 98.72 128.34 C 98.95 129.45 100.04 130.15 101.14 129.92 Z M 102.02 129.73 L 102.96 129.54 C 104.07 129.32 104.78 128.24 104.56 127.13 C 104.34 126.02 103.26 125.31 102.15 125.53 L 101.21 125.72 C 100.10 125.94 99.39 127.02 99.61 128.13 C 99.83 129.24 100.91 129.96 102.02 129.73 Z M 102.95 129.54 L 103.92 129.35 C 105.03 129.14 105.75 128.06 105.54 126.95 C 105.32 125.84 104.25 125.12 103.14 125.34 L 102.16 125.53 C 101.05 125.74 100.33 126.82 100.55 127.93 C 100.76 129.04 101.84 129.76 102.95 129.54 Z M 103.91 129.36 L 104.92 129.16 C 106.03 128.95 106.76 127.88 106.54 126.77 C 106.33 125.66 105.26 124.93 104.15 125.14 L 103.15 125.34 C 102.04 125.55 101.31 126.62 101.52 127.73 C 101.73 128.84 102.80 129.57 103.91 129.36 Z M 104.91 129.16 L 105.94 128.97 C 107.05 128.76 107.78 127.69 107.57 126.58 C 107.36 125.47 106.29 124.74 105.18 124.95 L 104.16 125.14 C 103.05 125.35 102.32 126.42 102.52 127.53 C 102.73 128.64 103.80 129.37 104.91 129.16 Z M 105.93 128.97 L 106.97 128.78 C 108.08 128.57 108.82 127.50 108.61 126.39 C 108.40 125.28 107.34 124.55 106.23 124.76 L 105.19 124.95 C 104.08 125.16 103.34 126.23 103.55 127.34 C 103.76 128.45 104.82 129.18 105.93 128.97 Z M 106.97 128.78 L 108.02 128.58 C 109.13 128.38 109.86 127.31 109.66 126.20 C 109.45 125.09 108.38 124.36 107.27 124.56 L 106.23 124.76 C 105.11 124.96 104.38 126.03 104.59 127.14 C 104.80 128.25 105.86 128.99 106.97 128.78 Z M 108.02 128.58 L 109.07 128.39 C 110.18 128.18 110.91 127.11 110.70 126.00 C 110.49 124.89 109.43 124.16 108.32 124.37 L 107.27 124.56 C 106.16 124.77 105.43 125.84 105.64 126.95 C 105.85 128.06 106.91 128.79 108.02 128.58 Z M 109.08 128.38 L 110.12 128.19 C 111.22 127.97 111.95 126.90 111.74 125.79 C 111.53 124.69 110.46 123.96 109.35 124.17 L 108.31 124.37 C 107.20 124.58 106.47 125.65 106.69 126.76 C 106.90 127.87 107.97 128.60 109.08 128.38 Z M 110.12 128.18 L 111.22 127.97 C 112.33 127.75 113.05 126.68 112.84 125.57 C 112.62 124.46 111.55 123.74 110.44 123.96 L 109.34 124.17 C 108.23 124.39 107.51 125.46 107.73 126.57 C 107.94 127.68 109.02 128.40 110.12 128.18 Z M 111.23 127.96 L 112.32 127.74 C 113.43 127.52 114.14 126.45 113.92 125.34 C 113.70 124.24 112.63 123.52 111.52 123.74 L 110.43 123.96 C 109.32 124.18 108.61 125.26 108.83 126.36 C 109.05 127.47 110.13 128.19 111.23 127.96 Z M 112.33 127.74 L 113.40 127.52 C 114.50 127.30 115.21 126.22 114.98 125.12 C 114.76 124.01 113.68 123.30 112.58 123.53 L 111.51 123.75 C 110.41 123.97 109.70 125.05 109.93 126.15 C 110.15 127.26 111.23 127.97 112.33 127.74 Z M 113.40 127.52 L 114.44 127.30 C 115.54 127.07 116.25 125.99 116.02 124.89 C 115.79 123.79 114.71 123.09 113.61 123.32 L 112.57 123.53 C 111.47 123.76 110.77 124.84 111.00 125.94 C 111.23 127.04 112.30 127.75 113.40 127.52 Z M 114.45 127.30 L 115.45 127.08 C 116.55 126.85 117.25 125.77 117.02 124.67 C 116.79 123.58 115.71 122.87 114.61 123.11 L 113.60 123.32 C 112.51 123.55 111.81 124.63 112.04 125.73 C 112.27 126.83 113.35 127.53 114.45 127.30 Z M 115.46 127.08 L 116.43 126.87 C 117.53 126.64 118.23 125.56 117.99 124.46 C 117.76 123.37 116.68 122.67 115.58 122.90 L 114.61 123.11 C 113.51 123.35 112.81 124.43 113.05 125.52 C 113.28 126.62 114.36 127.32 115.46 127.08 Z M 116.43 126.87 L 117.37 126.67 C 118.46 126.43 119.16 125.35 118.92 124.26 C 118.69 123.16 117.61 122.47 116.51 122.70 L 115.58 122.91 C 114.48 123.14 113.79 124.22 114.02 125.32 C 114.26 126.41 115.34 127.11 116.43 126.87 Z M 117.37 126.66 L 118.27 126.47 C 119.36 126.23 120.05 125.15 119.81 124.06 C 119.58 122.97 118.50 122.27 117.41 122.51 L 116.51 122.71 C 115.42 122.94 114.73 124.02 114.96 125.12 C 115.20 126.21 116.28 126.90 117.37 126.66 Z M 118.27 126.47 L 119.12 126.28 C 120.21 126.04 120.90 124.96 120.66 123.87 C 120.42 122.78 119.35 122.09 118.26 122.33 L 117.40 122.51 C 116.31 122.75 115.62 123.83 115.86 124.92 C 116.10 126.01 117.18 126.70 118.27 126.47 Z M 119.12 126.28 L 120.00 126.08 C 121.09 125.85 121.78 124.77 121.54 123.68 C 121.30 122.59 120.23 121.90 119.14 122.14 L 118.26 122.33 C 117.17 122.57 116.48 123.64 116.71 124.73 C 116.95 125.82 118.03 126.51 119.12 126.28 Z M 120.00 126.08 L 121.14 125.83 C 122.22 125.60 122.91 124.53 122.68 123.44 C 122.44 122.35 121.37 121.66 120.28 121.90 L 119.14 122.14 C 118.06 122.38 117.37 123.45 117.60 124.54 C 117.84 125.63 118.91 126.32 120.00 126.08 Z M 121.13 125.83 L 122.18 125.60 C 123.26 125.37 123.95 124.30 123.72 123.21 C 123.48 122.13 122.42 121.44 121.33 121.68 L 120.29 121.90 C 119.20 122.14 118.51 123.21 118.75 124.29 C 118.98 125.37 120.05 126.06 121.13 125.83 Z M 122.18 125.59 L 123.15 125.38 C 124.23 125.15 124.92 124.08 124.68 123.00 C 124.45 121.92 123.38 121.24 122.30 121.47 L 121.33 121.68 C 120.25 121.92 119.57 122.99 119.80 124.07 C 120.04 125.15 121.10 125.83 122.18 125.59 Z M 123.16 125.37 L 124.08 125.17 C 125.15 124.93 125.83 123.87 125.59 122.79 C 125.35 121.71 124.29 121.04 123.21 121.28 L 122.29 121.48 C 121.22 121.72 120.54 122.78 120.78 123.86 C 121.02 124.94 122.09 125.61 123.16 125.37 Z M 124.09 125.16 L 124.97 124.96 C 126.04 124.71 126.71 123.65 126.46 122.58 C 126.22 121.51 125.15 120.84 124.08 121.08 L 123.20 121.28 C 122.13 121.53 121.46 122.60 121.70 123.67 C 121.95 124.74 123.02 125.41 124.09 125.16 Z M 124.98 124.95 L 125.85 124.74 C 126.91 124.49 127.57 123.42 127.32 122.35 C 127.06 121.29 125.99 120.63 124.93 120.89 L 124.06 121.09 C 123.00 121.35 122.34 122.42 122.60 123.48 C 122.85 124.55 123.92 125.20 124.98 124.95 Z M 125.87 124.73 L 126.81 124.50 C 127.87 124.23 128.51 123.16 128.25 122.10 C 127.98 121.04 126.91 120.40 125.85 120.66 L 124.91 120.90 C 123.85 121.16 123.21 122.24 123.47 123.29 C 123.74 124.35 124.81 125.00 125.87 124.73 Z M 126.83 124.49 L 127.78 124.24 C 128.84 123.96 129.47 122.88 129.19 121.83 C 128.91 120.77 127.84 120.15 126.78 120.42 L 125.83 120.67 C 124.78 120.95 124.15 122.03 124.42 123.08 C 124.70 124.13 125.78 124.76 126.83 124.49 Z M 127.80 124.22 L 128.76 123.96 C 129.81 123.67 130.43 122.59 130.14 121.54 C 129.85 120.50 128.77 119.88 127.72 120.17 L 126.76 120.43 C 125.72 120.72 125.10 121.80 125.39 122.85 C 125.68 123.90 126.76 124.51 127.80 124.22 Z M 128.78 123.95 L 129.75 123.67 C 130.79 123.37 131.39 122.29 131.10 121.25 C 130.80 120.21 129.71 119.60 128.67 119.90 L 127.70 120.18 C 126.66 120.48 126.06 121.56 126.36 122.61 C 126.66 123.65 127.74 124.25 128.78 123.95 Z M 129.77 123.66 L 130.74 123.37 C 131.78 123.06 132.37 121.97 132.06 120.94 C 131.75 119.90 130.66 119.31 129.62 119.62 L 128.65 119.91 C 127.62 120.22 127.03 121.31 127.34 122.35 C 127.65 123.38 128.74 123.97 129.77 123.66 Z M 130.76 123.36 L 131.74 123.06 C 132.76 122.74 133.34 121.64 133.02 120.62 C 132.70 119.59 131.61 119.01 130.58 119.33 L 129.61 119.63 C 128.58 119.95 128.00 121.05 128.32 122.07 C 128.64 123.10 129.73 123.68 130.76 123.36 Z M 131.75 123.05 L 132.71 122.74 C 133.73 122.41 134.30 121.31 133.97 120.29 C 133.64 119.27 132.54 118.71 131.52 119.03 L 130.56 119.34 C 129.54 119.67 128.98 120.77 129.31 121.79 C 129.63 122.81 130.73 123.37 131.75 123.05 Z M 132.72 122.73 L 133.68 122.41 C 134.70 122.08 135.25 120.98 134.92 119.96 C 134.58 118.95 133.48 118.39 132.47 118.73 L 131.51 119.04 C 130.49 119.38 129.94 120.48 130.27 121.49 C 130.61 122.51 131.71 123.06 132.72 122.73 Z M 133.69 122.40 L 134.65 122.08 C 135.66 121.74 136.20 120.64 135.86 119.63 C 135.52 118.62 134.42 118.07 133.41 118.42 L 132.46 118.74 C 131.44 119.08 130.90 120.18 131.24 121.19 C 131.58 122.20 132.68 122.74 133.69 122.40 Z M 134.65 122.07 L 135.60 121.75 C 136.61 121.40 137.15 120.31 136.80 119.30 C 136.46 118.29 135.36 117.76 134.35 118.10 L 133.41 118.42 C 132.40 118.77 131.86 119.86 132.20 120.87 C 132.55 121.88 133.65 122.42 134.65 122.07 Z M 135.60 121.74 L 136.54 121.42 C 137.55 121.07 138.08 119.98 137.73 118.97 C 137.38 117.97 136.29 117.44 135.29 117.78 L 134.35 118.11 C 133.35 118.45 132.81 119.55 133.16 120.55 C 133.51 121.56 134.60 122.09 135.60 121.74 Z M 136.54 121.41 L 137.48 121.09 C 138.48 120.74 139.01 119.65 138.67 118.65 C 138.32 117.65 137.23 117.12 136.23 117.46 L 135.29 117.79 C 134.28 118.14 133.76 119.23 134.10 120.23 C 134.45 121.23 135.54 121.76 136.54 121.41 Z M 137.48 121.08 L 138.45 120.74 C 139.45 120.39 139.98 119.30 139.63 118.31 C 139.28 117.31 138.19 116.79 137.20 117.13 L 136.23 117.47 C 135.23 117.82 134.70 118.91 135.05 119.90 C 135.40 120.90 136.49 121.43 137.48 121.08 Z M 138.46 120.73 L 139.41 120.40 C 140.40 120.05 140.92 118.96 140.57 117.97 C 140.22 116.98 139.13 116.46 138.14 116.81 L 137.19 117.14 C 136.20 117.49 135.68 118.58 136.03 119.57 C 136.38 120.56 137.47 121.08 138.46 120.73 Z M 139.42 120.38 L 140.35 120.05 C 141.34 119.69 141.85 118.60 141.49 117.62 C 141.14 116.64 140.05 116.13 139.07 116.48 L 138.13 116.82 C 137.15 117.17 136.64 118.26 136.99 119.25 C 137.35 120.23 138.44 120.74 139.42 120.38 Z M 140.37 120.03 L 141.29 119.69 C 142.27 119.32 142.77 118.24 142.40 117.26 C 142.04 116.28 140.95 115.79 139.97 116.15 L 139.05 116.49 C 138.07 116.86 137.58 117.95 137.94 118.92 C 138.31 119.90 139.39 120.40 140.37 120.03 Z M 141.31 119.67 L 142.22 119.32 C 143.19 118.94 143.67 117.85 143.30 116.89 C 142.92 115.92 141.83 115.44 140.86 115.81 L 139.95 116.17 C 138.98 116.54 138.50 117.63 138.88 118.60 C 139.26 119.57 140.35 120.05 141.31 119.67 Z M 142.25 119.30 L 143.18 118.92 C 144.14 118.53 144.60 117.44 144.21 116.48 C 143.82 115.52 142.73 115.06 141.77 115.45 L 140.84 115.83 C 139.88 116.22 139.42 117.31 139.81 118.27 C 140.20 119.23 141.29 119.69 142.25 119.30 Z M 143.20 118.91 L 144.13 118.51 C 145.08 118.11 145.52 117.02 145.12 116.07 C 144.71 115.12 143.62 114.68 142.67 115.08 L 141.74 115.47 C 140.80 115.87 140.35 116.97 140.76 117.92 C 141.16 118.86 142.25 119.31 143.20 118.91 Z M 144.15 118.50 L 145.06 118.09 C 146.00 117.68 146.43 116.59 146.02 115.65 C 145.60 114.71 144.51 114.28 143.57 114.69 L 142.65 115.10 C 141.71 115.51 141.29 116.60 141.70 117.54 C 142.11 118.48 143.21 118.91 144.15 118.50 Z M 145.08 118.08 L 145.99 117.67 C 146.92 117.25 147.33 116.15 146.91 115.22 C 146.49 114.29 145.40 113.88 144.47 114.30 L 143.56 114.71 C 142.63 115.13 142.21 116.22 142.63 117.15 C 143.05 118.08 144.15 118.50 145.08 118.08 Z M 146.00 117.65 L 146.90 117.24 C 147.82 116.82 148.23 115.72 147.80 114.80 C 147.38 113.88 146.28 113.47 145.36 113.90 L 144.46 114.31 C 143.53 114.73 143.13 115.83 143.55 116.75 C 143.98 117.67 145.07 118.08 146.00 117.65 Z M 146.90 117.23 L 147.75 116.84 C 148.66 116.41 149.06 115.32 148.63 114.40 C 148.21 113.48 147.12 113.09 146.20 113.51 L 145.36 113.91 C 144.44 114.33 144.04 115.42 144.47 116.34 C 144.89 117.26 145.98 117.66 146.90 117.23 Z M 147.75 116.82 L 148.56 116.44 C 149.47 116.01 149.86 114.93 149.43 114.02 C 149.00 113.11 147.91 112.72 147.00 113.15 L 146.19 113.53 C 145.28 113.96 144.89 115.04 145.32 115.95 C 145.75 116.86 146.84 117.25 147.75 116.82 Z M 148.57 116.43 L 149.40 116.03 C 150.30 115.59 150.68 114.51 150.24 113.61 C 149.81 112.70 148.72 112.32 147.82 112.76 L 146.99 113.16 C 146.09 113.60 145.71 114.68 146.14 115.58 C 146.58 116.49 147.66 116.87 148.57 116.43 Z M 149.41 116.01 L 150.28 115.58 C 151.18 115.14 151.54 114.05 151.10 113.16 C 150.65 112.27 149.57 111.90 148.68 112.34 L 147.80 112.78 C 146.91 113.22 146.55 114.30 146.99 115.20 C 147.43 116.09 148.52 116.46 149.41 116.01 Z M 150.30 115.56 L 151.23 115.09 C 152.12 114.63 152.47 113.55 152.01 112.67 C 151.56 111.78 150.48 111.43 149.59 111.88 L 148.66 112.36 C 147.78 112.81 147.43 113.90 147.88 114.78 C 148.33 115.67 149.41 116.02 150.30 115.56 Z M 151.25 115.07 L 152.26 114.53 C 153.14 114.07 153.47 112.99 153.01 112.11 C 152.55 111.24 151.46 110.91 150.59 111.37 L 149.58 111.90 C 148.70 112.36 148.37 113.45 148.83 114.32 C 149.29 115.20 150.37 115.53 151.25 115.07 Z M 152.28 114.52 L 153.15 114.04 C 154.01 113.57 154.33 112.49 153.86 111.63 C 153.39 110.76 152.31 110.44 151.45 110.91 L 150.58 111.38 C 149.71 111.85 149.39 112.93 149.86 113.80 C 150.33 114.66 151.41 114.99 152.28 114.52 Z M 153.16 114.03 L 153.93 113.60 C 154.79 113.13 155.10 112.04 154.63 111.19 C 154.15 110.33 153.07 110.02 152.22 110.49 L 151.44 110.92 C 150.58 111.40 150.27 112.48 150.74 113.34 C 151.22 114.20 152.30 114.51 153.16 114.03 Z M 153.94 113.59 L 154.76 113.13 C 155.61 112.65 155.92 111.57 155.44 110.72 C 154.96 109.87 153.88 109.56 153.03 110.04 L 152.21 110.50 C 151.36 110.98 151.05 112.06 151.53 112.91 C 152.01 113.77 153.09 114.07 153.94 113.59 Z M 154.77 113.12 L 155.62 112.64 C 156.46 112.16 156.76 111.08 156.28 110.23 C 155.80 109.38 154.72 109.09 153.87 109.57 L 153.02 110.05 C 152.17 110.53 151.88 111.61 152.36 112.46 C 152.84 113.31 153.92 113.60 154.77 113.12 Z M 155.62 112.63 L 156.50 112.12 C 157.34 111.64 157.63 110.56 157.15 109.72 C 156.66 108.88 155.59 108.59 154.74 109.07 L 153.87 109.58 C 153.02 110.06 152.73 111.14 153.22 111.98 C 153.70 112.82 154.78 113.11 155.62 112.63 Z M 156.50 112.12 L 157.40 111.59 C 158.24 111.11 158.52 110.03 158.04 109.20 C 157.55 108.36 156.48 108.07 155.64 108.56 L 154.74 109.08 C 153.90 109.57 153.62 110.64 154.10 111.48 C 154.59 112.32 155.66 112.60 156.50 112.12 Z M 157.40 111.59 L 158.32 111.05 C 159.15 110.56 159.43 109.49 158.94 108.66 C 158.45 107.82 157.38 107.55 156.55 108.03 L 155.63 108.57 C 154.80 109.06 154.52 110.13 155.01 110.96 C 155.50 111.79 156.57 112.07 157.40 111.59 Z M 158.32 111.04 L 159.24 110.50 C 160.07 110.01 160.35 108.94 159.86 108.11 C 159.37 107.28 158.30 107.01 157.47 107.50 L 156.55 108.04 C 155.72 108.53 155.44 109.60 155.93 110.43 C 156.42 111.26 157.49 111.53 158.32 111.04 Z M 159.25 110.49 L 160.18 109.93 C 161.00 109.44 161.27 108.38 160.78 107.55 C 160.29 106.73 159.22 106.46 158.40 106.95 L 157.47 107.50 C 156.64 107.99 156.37 109.06 156.86 109.88 C 157.36 110.71 158.42 110.98 159.25 110.49 Z M 160.18 109.92 L 161.08 109.38 C 161.90 108.89 162.16 107.83 161.67 107.01 C 161.18 106.19 160.11 105.93 159.29 106.42 L 158.39 106.96 C 157.58 107.45 157.31 108.51 157.80 109.33 C 158.29 110.15 159.36 110.42 160.18 109.92 Z M 161.08 109.37 L 161.96 108.84 C 162.78 108.34 163.04 107.29 162.54 106.47 C 162.05 105.66 160.99 105.40 160.18 105.89 L 159.29 106.43 C 158.48 106.92 158.22 107.98 158.71 108.79 C 159.21 109.61 160.26 109.87 161.08 109.37 Z M 161.96 108.83 L 162.84 108.29 C 163.65 107.80 163.90 106.74 163.41 105.94 C 162.92 105.13 161.87 104.87 161.06 105.37 L 160.18 105.90 C 159.37 106.40 159.12 107.45 159.61 108.26 C 160.10 109.06 161.15 109.32 161.96 108.83 Z M 162.84 108.28 L 163.71 107.74 C 164.51 107.25 164.76 106.20 164.27 105.40 C 163.78 104.60 162.73 104.35 161.93 104.84 L 161.06 105.38 C 160.26 105.87 160.01 106.92 160.50 107.72 C 160.99 108.52 162.04 108.77 162.84 108.28 Z M 163.71 107.73 L 164.57 107.20 C 165.37 106.71 165.62 105.67 165.12 104.87 C 164.63 104.08 163.59 103.83 162.79 104.32 L 161.93 104.85 C 161.14 105.34 160.89 106.39 161.38 107.18 C 161.87 107.98 162.92 108.23 163.71 107.73 Z M 164.57 107.19 L 165.42 106.66 C 166.21 106.17 166.46 105.13 165.96 104.34 C 165.47 103.55 164.44 103.31 163.65 103.80 L 162.80 104.33 C 162.01 104.82 161.76 105.86 162.25 106.65 C 162.74 107.44 163.78 107.68 164.57 107.19 Z M 165.42 106.65 L 166.26 106.13 C 167.04 105.64 167.28 104.61 166.79 103.82 C 166.30 103.04 165.27 102.80 164.48 103.29 L 163.65 103.81 C 162.86 104.30 162.62 105.34 163.11 106.12 C 163.60 106.90 164.64 107.14 165.42 106.65 Z M 166.26 106.12 L 167.08 105.60 C 167.86 105.11 168.09 104.08 167.60 103.31 C 167.11 102.53 166.08 102.29 165.31 102.78 L 164.48 103.30 C 163.71 103.79 163.47 104.82 163.96 105.60 C 164.45 106.37 165.48 106.61 166.26 106.12 Z M 167.08 105.59 L 167.88 105.08 C 168.65 104.59 168.88 103.57 168.40 102.80 C 167.91 102.03 166.88 101.80 166.11 102.29 L 165.31 102.79 C 164.53 103.28 164.30 104.31 164.79 105.08 C 165.28 105.85 166.30 106.08 167.08 105.59 Z M 167.88 105.07 L 168.69 104.56 C 169.46 104.07 169.69 103.05 169.20 102.28 C 168.71 101.52 167.69 101.29 166.92 101.78 L 166.11 102.30 C 165.35 102.78 165.12 103.80 165.61 104.57 C 166.09 105.34 167.11 105.56 167.88 105.07 Z M 168.69 104.55 L 169.52 104.02 C 170.28 103.53 170.50 102.52 170.02 101.76 C 169.53 100.99 168.52 100.77 167.75 101.26 L 166.92 101.79 C 166.16 102.27 165.94 103.29 166.43 104.05 C 166.91 104.81 167.93 105.04 168.69 104.55 Z M 169.52 104.01 L 170.33 103.49 C 171.09 103.00 171.31 101.99 170.83 101.23 C 170.34 100.47 169.33 100.25 168.57 100.74 L 167.75 101.27 C 167.00 101.75 166.78 102.76 167.26 103.52 C 167.75 104.28 168.76 104.50 169.52 104.01 Z M 170.33 103.48 L 171.14 102.96 C 171.90 102.47 172.12 101.47 171.63 100.71 C 171.14 99.96 170.14 99.74 169.38 100.23 L 168.57 100.75 C 167.82 101.23 167.60 102.24 168.09 102.99 C 168.57 103.75 169.58 103.97 170.33 103.48 Z M 171.14 102.95 L 171.95 102.43 C 172.71 101.95 172.92 100.94 172.44 100.19 C 171.96 99.44 170.95 99.22 170.20 99.71 L 169.39 100.23 C 168.64 100.72 168.42 101.72 168.90 102.47 C 169.39 103.22 170.39 103.44 171.14 102.95 Z M 171.95 102.42 L 172.78 101.89 C 173.52 101.41 173.74 100.42 173.26 99.67 C 172.78 98.92 171.78 98.70 171.03 99.18 L 170.21 99.71 C 169.46 100.19 169.24 101.19 169.72 101.94 C 170.20 102.69 171.20 102.90 171.95 102.42 Z M 172.77 101.89 L 173.62 101.35 C 174.36 100.87 174.58 99.88 174.10 99.13 C 173.62 98.39 172.63 98.17 171.89 98.65 L 171.04 99.19 C 170.29 99.66 170.08 100.66 170.55 101.40 C 171.03 102.15 172.02 102.37 172.77 101.89 Z M 173.61 101.34 L 174.48 100.79 C 175.23 100.31 175.44 99.33 174.97 98.58 C 174.50 97.84 173.51 97.62 172.77 98.09 L 171.89 98.65 C 171.15 99.12 170.93 100.11 171.40 100.85 C 171.88 101.60 172.86 101.82 173.61 101.34 Z M 174.47 100.78 L 175.38 100.21 C 176.13 99.74 176.35 98.76 175.88 98.01 C 175.41 97.27 174.42 97.05 173.68 97.52 L 172.77 98.10 C 172.03 98.57 171.81 99.55 172.28 100.29 C 172.75 101.03 173.73 101.25 174.47 100.78 Z M 175.38 100.21 L 176.16 99.71 C 176.91 99.24 177.13 98.27 176.66 97.52 C 176.20 96.78 175.22 96.56 174.48 97.03 L 173.69 97.52 C 172.95 97.99 172.72 98.97 173.19 99.71 C 173.66 100.45 174.64 100.67 175.38 100.21 Z M 176.16 99.71 L 176.94 99.22 C 177.68 98.76 177.91 97.78 177.45 97.04 C 176.98 96.30 176.01 96.07 175.26 96.54 L 174.48 97.03 C 173.74 97.49 173.52 98.47 173.98 99.21 C 174.44 99.95 175.42 100.17 176.16 99.71 Z M 176.94 99.22 L 177.75 98.72 C 178.49 98.26 178.71 97.28 178.25 96.54 C 177.79 95.80 176.82 95.57 176.08 96.03 L 175.27 96.54 C 174.53 97.00 174.30 97.97 174.76 98.71 C 175.22 99.46 176.20 99.68 176.94 99.22 Z M 177.74 98.72 L 178.57 98.20 C 179.31 97.74 179.54 96.77 179.08 96.03 C 178.62 95.29 177.65 95.06 176.91 95.52 L 176.08 96.03 C 175.34 96.49 175.11 97.47 175.57 98.21 C 176.03 98.95 177.00 99.18 177.74 98.72 Z M 178.57 98.20 L 179.42 97.68 C 180.16 97.22 180.39 96.25 179.93 95.51 C 179.47 94.77 178.50 94.54 177.76 95.00 L 176.91 95.52 C 176.17 95.98 175.94 96.95 176.40 97.69 C 176.86 98.43 177.83 98.66 178.57 98.20 Z M 179.41 97.68 L 180.28 97.14 C 181.02 96.69 181.25 95.72 180.79 94.98 C 180.33 94.24 179.36 94.01 178.62 94.47 L 177.76 95.00 C 177.02 95.45 176.79 96.42 177.25 97.16 C 177.70 97.90 178.67 98.13 179.41 97.68 Z M 180.27 97.14 L 181.15 96.60 C 181.89 96.15 182.12 95.18 181.66 94.44 C 181.21 93.70 180.24 93.47 179.50 93.93 L 178.63 94.47 C 177.89 94.92 177.66 95.89 178.11 96.63 C 178.57 97.37 179.53 97.60 180.27 97.14 Z M 181.15 96.60 L 182.03 96.06 C 182.77 95.60 183.00 94.64 182.55 93.90 C 182.09 93.16 181.13 92.93 180.39 93.38 L 179.50 93.93 C 178.76 94.38 178.53 95.35 178.99 96.09 C 179.44 96.83 180.41 97.06 181.15 96.60 Z M 182.03 96.06 L 182.93 95.51 C 183.66 95.05 183.89 94.09 183.44 93.35 C 182.99 92.61 182.02 92.38 181.28 92.84 L 180.39 93.39 C 179.65 93.84 179.42 94.80 179.88 95.54 C 180.33 96.28 181.29 96.51 182.03 96.06 Z M 182.92 95.50 L 183.82 94.95 C 184.56 94.50 184.79 93.54 184.34 92.80 C 183.89 92.06 182.92 91.83 182.19 92.29 L 181.29 92.84 C 180.55 93.29 180.32 94.25 180.77 94.99 C 181.22 95.73 182.19 95.96 182.92 95.50 Z M 183.82 94.95 L 184.65 94.44 C 185.39 93.99 185.62 93.03 185.17 92.29 C 184.72 91.56 183.75 91.33 183.02 91.78 L 182.19 92.29 C 181.45 92.74 181.22 93.70 181.67 94.44 C 182.12 95.17 183.09 95.40 183.82 94.95 Z"
      fill="black"
      fill-rule="nonzero" /><path d="M 147.42 154.38 L 148.13 153.67 C 148.85 152.96 148.85 151.80 148.14 151.08 C 147.43 150.37 146.27 150.36 145.55 151.08 L 144.84 151.78 C 144.13 152.50 144.12 153.65 144.83 154.37 C 145.55 155.09 146.70 155.09 147.42 154.38 Z M 148.11 153.69 L 148.83 153.00 C 149.56 152.30 149.58 151.15 148.89 150.42 C 148.19 149.69 147.03 149.67 146.30 150.36 L 145.58 151.05 C 144.85 151.75 144.83 152.91 145.53 153.64 C 146.22 154.37 147.38 154.39 148.11 153.69 Z M 148.78 153.04 L 149.52 152.38 C 150.28 151.71 150.35 150.56 149.68 149.81 C 149.01 149.06 147.86 148.99 147.10 149.66 L 146.36 150.32 C 145.60 150.99 145.54 152.14 146.20 152.89 C 146.87 153.64 148.02 153.71 148.78 153.04 Z M 149.44 152.45 L 150.22 151.83 C 151.01 151.21 151.14 150.06 150.52 149.27 C 149.90 148.49 148.75 148.35 147.97 148.97 L 147.19 149.59 C 146.40 150.21 146.26 151.36 146.89 152.15 C 147.51 152.94 148.65 153.07 149.44 152.45 Z M 150.11 151.91 L 150.93 151.35 C 151.77 150.79 151.99 149.66 151.43 148.83 C 150.87 148.00 149.74 147.78 148.90 148.34 L 148.08 148.90 C 147.25 149.46 147.03 150.59 147.59 151.42 C 148.15 152.25 149.28 152.47 150.11 151.91 Z M 150.79 151.44 L 151.64 150.97 C 152.52 150.49 152.85 149.39 152.37 148.51 C 151.89 147.63 150.78 147.31 149.91 147.79 L 149.05 148.26 C 148.17 148.74 147.85 149.84 148.33 150.72 C 148.81 151.59 149.91 151.92 150.79 151.44 Z M 151.49 151.03 L 152.37 150.66 C 153.28 150.26 153.70 149.20 153.30 148.28 C 152.91 147.37 151.84 146.95 150.93 147.35 L 150.06 147.72 C 149.14 148.12 148.72 149.18 149.12 150.10 C 149.52 151.01 150.58 151.43 151.49 151.03 Z M 152.24 150.69 L 153.16 150.37 C 154.09 150.05 154.59 149.02 154.26 148.09 C 153.93 147.15 152.91 146.66 151.97 146.99 L 151.06 147.31 C 150.12 147.63 149.63 148.66 149.95 149.59 C 150.28 150.53 151.30 151.02 152.24 150.69 Z M 153.06 150.40 L 154.02 150.12 C 154.96 149.85 155.51 148.86 155.24 147.91 C 154.97 146.97 153.98 146.42 153.03 146.69 L 152.07 146.96 C 151.13 147.24 150.58 148.22 150.85 149.17 C 151.12 150.12 152.11 150.67 153.06 150.40 Z M 153.94 150.13 L 154.93 149.89 C 155.89 149.66 156.47 148.70 156.24 147.75 C 156.01 146.80 155.05 146.21 154.10 146.44 L 153.11 146.68 C 152.16 146.91 151.57 147.87 151.80 148.82 C 152.03 149.77 152.99 150.36 153.94 150.13 Z M 154.88 149.89 L 155.90 149.68 C 156.86 149.48 157.47 148.54 157.27 147.58 C 157.06 146.63 156.13 146.02 155.17 146.22 L 154.15 146.44 C 153.20 146.64 152.59 147.58 152.79 148.53 C 152.99 149.48 153.93 150.09 154.88 149.89 Z M 155.87 149.67 L 156.88 149.48 C 157.84 149.29 158.46 148.37 158.27 147.42 C 158.09 146.47 157.16 145.84 156.21 146.03 L 155.20 146.22 C 154.25 146.41 153.63 147.33 153.81 148.29 C 154.00 149.24 154.92 149.86 155.87 149.67 Z M 156.87 149.48 L 157.84 149.30 C 158.79 149.12 159.42 148.21 159.25 147.26 C 159.07 146.30 158.15 145.67 157.20 145.85 L 156.23 146.03 C 155.28 146.20 154.65 147.12 154.82 148.07 C 155.00 149.03 155.91 149.66 156.87 149.48 Z M 157.82 149.30 L 158.80 149.13 C 159.76 148.97 160.40 148.06 160.23 147.10 C 160.07 146.15 159.16 145.51 158.20 145.67 L 157.22 145.84 C 156.26 146.01 155.62 146.92 155.79 147.87 C 155.96 148.83 156.87 149.47 157.82 149.30 Z M 158.78 149.14 L 159.77 148.98 C 160.73 148.82 161.38 147.92 161.23 146.96 C 161.07 146.00 160.17 145.35 159.21 145.51 L 158.22 145.67 C 157.27 145.82 156.61 146.73 156.77 147.68 C 156.92 148.64 157.83 149.29 158.78 149.14 Z M 159.75 148.98 L 160.75 148.83 C 161.71 148.69 162.37 147.80 162.23 146.84 C 162.09 145.88 161.19 145.22 160.23 145.36 L 159.24 145.50 C 158.28 145.65 157.62 146.54 157.76 147.50 C 157.90 148.46 158.79 149.12 159.75 148.98 Z M 160.72 148.84 L 161.72 148.71 C 162.68 148.58 163.36 147.70 163.23 146.73 C 163.10 145.77 162.22 145.09 161.26 145.22 L 160.26 145.35 C 159.30 145.48 158.62 146.36 158.75 147.33 C 158.88 148.29 159.76 148.96 160.72 148.84 Z M 161.69 148.71 L 162.68 148.60 C 163.65 148.49 164.34 147.61 164.23 146.65 C 164.12 145.69 163.25 144.99 162.29 145.10 L 161.29 145.22 C 160.32 145.33 159.63 146.20 159.74 147.16 C 159.85 148.13 160.72 148.82 161.69 148.71 Z M 162.65 148.60 L 163.69 148.50 C 164.65 148.41 165.36 147.55 165.27 146.59 C 165.18 145.62 164.32 144.91 163.35 145.00 L 162.32 145.10 C 161.35 145.19 160.64 146.05 160.73 147.02 C 160.82 147.98 161.68 148.69 162.65 148.60 Z M 163.65 148.51 L 164.69 148.44 C 165.66 148.36 166.39 147.52 166.32 146.54 C 166.24 145.57 165.40 144.84 164.42 144.91 L 163.39 144.99 C 162.41 145.06 161.68 145.91 161.76 146.88 C 161.83 147.86 162.68 148.59 163.65 148.51 Z M 164.65 148.45 L 165.67 148.39 C 166.65 148.33 167.40 147.50 167.35 146.52 C 167.29 145.54 166.45 144.79 165.47 144.84 L 164.45 144.90 C 163.47 144.96 162.73 145.80 162.78 146.78 C 162.84 147.75 163.68 148.50 164.65 148.45 Z M 165.65 148.40 L 166.65 148.36 C 167.63 148.32 168.40 147.49 168.36 146.50 C 168.32 145.52 167.49 144.76 166.50 144.79 L 165.50 144.84 C 164.52 144.87 163.75 145.70 163.79 146.69 C 163.83 147.67 164.66 148.44 165.65 148.40 Z M 166.62 148.37 L 167.60 148.34 C 168.59 148.32 169.37 147.50 169.34 146.51 C 169.32 145.52 168.50 144.74 167.51 144.76 L 166.53 144.79 C 165.54 144.81 164.76 145.63 164.78 146.62 C 164.81 147.61 165.63 148.39 166.62 148.37 Z M 167.57 148.35 L 168.52 148.34 C 169.51 148.33 170.31 147.51 170.30 146.52 C 170.29 145.53 169.47 144.73 168.48 144.74 L 167.53 144.75 C 166.54 144.76 165.74 145.58 165.75 146.57 C 165.76 147.57 166.58 148.36 167.57 148.35 Z M 168.49 148.35 L 169.53 148.35 C 170.52 148.35 171.33 147.55 171.34 146.55 C 171.34 145.55 170.54 144.74 169.54 144.74 L 168.51 144.74 C 167.51 144.73 166.70 145.54 166.69 146.54 C 166.69 147.53 167.50 148.34 168.49 148.35 Z M 169.47 148.36 L 170.52 148.39 C 171.52 148.43 172.36 147.64 172.40 146.64 C 172.43 145.64 171.64 144.80 170.64 144.77 L 169.59 144.73 C 168.59 144.70 167.75 145.48 167.72 146.48 C 167.69 147.49 168.47 148.32 169.47 148.36 Z M 170.42 148.39 L 171.42 148.48 C 172.42 148.57 173.31 147.84 173.40 146.83 C 173.49 145.83 172.75 144.95 171.75 144.86 L 170.75 144.77 C 169.74 144.68 168.86 145.41 168.77 146.42 C 168.68 147.42 169.42 148.30 170.42 148.39 Z M 171.26 148.47 L 172.22 148.64 C 173.21 148.82 174.16 148.15 174.34 147.16 C 174.51 146.16 173.85 145.21 172.86 145.04 L 171.90 144.87 C 170.91 144.69 169.96 145.36 169.78 146.35 C 169.61 147.34 170.27 148.29 171.26 148.47 Z M 172.01 148.60 L 172.91 148.87 C 173.88 149.16 174.91 148.61 175.20 147.64 C 175.49 146.67 174.94 145.64 173.97 145.35 L 173.07 145.08 C 172.10 144.79 171.07 145.34 170.78 146.31 C 170.49 147.28 171.04 148.31 172.01 148.60 Z M 172.66 148.78 L 173.51 149.18 C 174.43 149.61 175.53 149.21 175.96 148.28 C 176.39 147.36 175.99 146.26 175.06 145.83 L 174.22 145.44 C 173.29 145.01 172.20 145.41 171.77 146.33 C 171.34 147.26 171.74 148.35 172.66 148.78 Z M 173.27 149.05 L 174.05 149.57 C 174.90 150.13 176.05 149.89 176.61 149.04 C 177.17 148.19 176.94 147.04 176.09 146.48 L 175.30 145.96 C 174.45 145.40 173.31 145.63 172.74 146.49 C 172.18 147.34 172.42 148.48 173.27 149.05 Z M 173.85 149.42 L 174.58 150.05 C 175.35 150.73 176.52 150.65 177.19 149.88 C 177.87 149.12 177.79 147.95 177.02 147.27 L 176.29 146.63 C 175.52 145.96 174.35 146.03 173.68 146.80 C 173.01 147.57 173.08 148.74 173.85 149.42 Z M 174.41 149.89 L 175.08 150.65 C 175.76 151.41 176.93 151.48 177.70 150.80 C 178.46 150.12 178.53 148.95 177.85 148.18 L 177.19 147.43 C 176.51 146.67 175.33 146.60 174.57 147.28 C 173.80 147.96 173.73 149.13 174.41 149.89 Z M 174.95 150.48 L 175.55 151.34 C 176.14 152.18 177.29 152.38 178.13 151.79 C 178.97 151.20 179.18 150.04 178.59 149.20 L 177.99 148.35 C 177.40 147.51 176.24 147.31 175.40 147.90 C 174.56 148.48 174.36 149.64 174.95 150.48 Z M 175.44 151.17 L 175.96 152.10 C 176.46 153.00 177.59 153.32 178.49 152.82 C 179.38 152.32 179.71 151.19 179.21 150.29 L 178.69 149.37 C 178.19 148.47 177.06 148.15 176.16 148.64 C 175.27 149.14 174.94 150.28 175.44 151.17 Z M 175.88 151.95 L 176.27 152.83 C 176.69 153.77 177.79 154.19 178.73 153.77 C 179.67 153.35 180.09 152.25 179.67 151.31 L 179.28 150.44 C 178.86 149.50 177.76 149.08 176.82 149.50 C 175.89 149.91 175.46 151.01 175.88 151.95 Z M 176.22 152.71 L 176.56 153.64 C 176.92 154.60 177.99 155.10 178.95 154.74 C 179.92 154.39 180.41 153.32 180.06 152.36 L 179.72 151.43 C 179.37 150.47 178.30 149.97 177.33 150.32 C 176.37 150.68 175.87 151.75 176.22 152.71 Z M 176.53 153.54 L 176.82 154.50 C 177.12 155.48 178.16 156.04 179.14 155.74 C 180.13 155.44 180.68 154.40 180.38 153.42 L 180.09 152.46 C 179.80 151.47 178.76 150.92 177.77 151.21 C 176.79 151.51 176.23 152.55 176.53 153.54 Z M 176.80 154.41 L 177.04 155.40 C 177.29 156.40 178.31 157.00 179.30 156.75 C 180.30 156.50 180.91 155.49 180.66 154.49 L 180.41 153.50 C 180.16 152.51 179.15 151.90 178.15 152.15 C 177.15 152.40 176.55 153.41 176.80 154.41 Z M 177.03 155.33 L 177.24 156.33 C 177.45 157.34 178.44 157.98 179.44 157.77 C 180.45 157.56 181.10 156.57 180.88 155.56 L 180.67 154.56 C 180.46 153.56 179.47 152.91 178.47 153.12 C 177.46 153.33 176.82 154.32 177.03 155.33 Z M 177.23 156.27 L 177.40 157.27 C 177.58 158.28 178.55 158.96 179.56 158.78 C 180.57 158.60 181.25 157.64 181.07 156.62 L 180.90 155.62 C 180.72 154.61 179.75 153.93 178.74 154.11 C 177.72 154.29 177.05 155.26 177.23 156.27 Z M 177.39 157.22 L 177.53 158.12 C 177.68 159.14 178.63 159.84 179.65 159.69 C 180.66 159.53 181.37 158.59 181.21 157.57 L 181.08 156.67 C 180.93 155.65 179.98 154.95 178.96 155.10 C 177.94 155.26 177.24 156.20 177.39 157.22 Z M 177.52 158.07 L 177.63 158.97 C 177.76 160.00 178.69 160.72 179.71 160.59 C 180.73 160.47 181.46 159.53 181.33 158.51 L 181.22 157.61 C 181.09 156.59 180.16 155.87 179.14 155.99 C 178.12 156.12 177.39 157.05 177.52 158.07 Z M 177.63 158.93 L 177.72 159.85 C 177.82 160.88 178.74 161.62 179.76 161.52 C 180.79 161.42 181.53 160.51 181.43 159.48 L 181.34 158.56 C 181.23 157.53 180.32 156.79 179.30 156.89 C 178.27 156.99 177.53 157.91 177.63 158.93 Z M 177.72 159.81 L 177.79 160.78 C 177.87 161.80 178.77 162.57 179.80 162.49 C 180.82 162.41 181.59 161.51 181.51 160.49 L 181.43 159.52 C 181.35 158.50 180.46 157.73 179.43 157.81 C 178.40 157.89 177.64 158.79 177.72 159.81 Z M 177.79 160.74 L 177.85 161.76 C 177.91 162.79 178.79 163.58 179.82 163.51 C 180.85 163.45 181.63 162.57 181.57 161.54 L 181.51 160.52 C 181.45 159.49 180.57 158.71 179.54 158.77 C 178.51 158.83 177.73 159.71 177.79 160.74 Z M 177.85 161.73 L 177.90 162.83 C 177.94 163.86 178.81 164.66 179.84 164.61 C 180.87 164.57 181.67 163.70 181.62 162.67 L 181.57 161.57 C 181.53 160.54 180.66 159.75 179.63 159.79 C 178.60 159.84 177.81 160.71 177.85 161.73 Z M 177.90 162.81 L 177.93 163.97 C 177.96 165.00 178.82 165.81 179.85 165.77 C 180.88 165.74 181.69 164.88 181.66 163.85 L 181.62 162.69 C 181.59 161.66 180.73 160.86 179.70 160.89 C 178.67 160.92 177.86 161.78 177.90 162.81 Z M 177.93 163.95 L 177.95 164.86 C 177.97 165.89 178.83 166.70 179.86 166.68 C 180.89 166.66 181.70 165.80 181.68 164.77 L 181.66 163.87 C 181.63 162.84 180.78 162.03 179.75 162.05 C 178.72 162.07 177.91 162.92 177.93 163.95 Z M 177.95 164.85 L 177.97 165.79 C 177.98 166.82 178.83 167.64 179.86 167.63 C 180.89 167.61 181.71 166.76 181.69 165.73 L 181.68 164.78 C 181.66 163.76 180.81 162.94 179.78 162.95 C 178.76 162.97 177.93 163.82 177.95 164.85 Z M 177.97 165.79 L 177.98 166.77 C 177.99 167.80 178.83 168.62 179.86 168.61 C 180.89 168.60 181.72 167.75 181.70 166.73 L 181.69 165.74 C 181.68 164.71 180.84 163.89 179.81 163.90 C 178.78 163.91 177.96 164.76 177.97 165.79 Z M 177.98 166.76 L 177.99 167.77 C 177.99 168.80 178.83 169.63 179.86 169.62 C 180.89 169.61 181.72 168.77 181.71 167.75 L 181.70 166.73 C 181.70 165.71 180.86 164.88 179.83 164.89 C 178.80 164.89 177.97 165.73 177.98 166.76 Z M 177.99 167.77 L 177.99 168.80 C 178.00 169.82 178.83 170.66 179.86 170.65 C 180.89 170.65 181.72 169.81 181.72 168.78 L 181.71 167.75 C 181.71 166.72 180.87 165.89 179.84 165.90 C 178.81 165.90 177.98 166.74 177.99 167.77 Z M 177.99 168.79 L 177.99 169.83 C 177.99 170.86 178.83 171.69 179.85 171.69 C 180.88 171.69 181.72 170.86 181.72 169.83 L 181.71 168.79 C 181.71 167.76 180.88 166.93 179.85 166.93 C 178.82 166.93 177.99 167.76 177.99 168.79 Z M 177.99 169.82 L 177.99 170.87 C 177.99 171.89 178.82 172.73 179.85 172.73 C 180.87 172.73 181.71 171.90 181.71 170.88 L 181.71 169.83 C 181.72 168.81 180.89 167.97 179.86 167.97 C 178.83 167.97 178.00 168.80 177.99 169.82 Z M 177.99 170.86 L 177.98 171.89 C 177.98 172.92 178.81 173.76 179.83 173.76 C 180.86 173.77 181.70 172.94 181.71 171.91 L 181.71 170.88 C 181.72 169.85 180.89 169.02 179.86 169.01 C 178.83 169.00 178.00 169.83 177.99 170.86 Z M 177.98 171.89 L 177.98 172.91 C 177.97 173.93 178.79 174.77 179.82 174.78 C 180.85 174.79 181.69 173.96 181.70 172.94 L 181.71 171.92 C 181.71 170.89 180.89 170.05 179.86 170.04 C 178.83 170.03 177.99 170.86 177.98 171.89 Z M 177.98 172.90 L 177.97 173.93 C 177.95 174.96 178.78 175.80 179.80 175.81 C 180.83 175.82 181.67 175.00 181.68 173.97 L 181.70 172.94 C 181.71 171.91 180.88 171.07 179.86 171.06 C 178.83 171.05 177.99 171.87 177.98 172.90 Z M 177.97 173.92 L 177.95 174.99 C 177.94 176.01 178.75 176.86 179.78 176.87 C 180.81 176.89 181.65 176.07 181.67 175.04 L 181.68 173.98 C 181.70 172.95 180.88 172.11 179.85 172.09 C 178.83 172.08 177.98 172.90 177.97 173.92 Z M 177.95 174.98 L 177.93 176.01 C 177.91 177.04 178.72 177.88 179.75 177.91 C 180.77 177.93 181.62 177.11 181.64 176.09 L 181.67 175.06 C 181.69 174.03 180.87 173.18 179.85 173.16 C 178.82 173.14 177.97 173.95 177.95 174.98 Z M 177.93 175.99 L 177.90 177.00 C 177.87 178.03 178.68 178.88 179.70 178.91 C 180.73 178.94 181.58 178.14 181.61 177.11 L 181.64 176.11 C 181.67 175.08 180.87 174.23 179.84 174.19 C 178.82 174.16 177.96 174.97 177.93 175.99 Z M 177.90 176.98 L 177.86 177.97 C 177.82 178.99 178.62 179.86 179.64 179.90 C 180.66 179.94 181.53 179.15 181.57 178.12 L 181.61 177.14 C 181.65 176.11 180.86 175.25 179.83 175.21 C 178.81 175.16 177.95 175.96 177.90 176.98 Z M 177.87 177.95 L 177.81 178.92 C 177.76 179.94 178.54 180.82 179.56 180.87 C 180.58 180.93 181.46 180.15 181.51 179.12 L 181.57 178.15 C 181.62 177.13 180.84 176.25 179.82 176.20 C 178.80 176.14 177.92 176.92 177.87 177.95 Z M 177.81 178.89 L 177.75 179.86 C 177.67 180.88 178.44 181.76 179.46 181.84 C 180.48 181.91 181.37 181.14 181.44 180.12 L 181.51 179.15 C 181.58 178.13 180.81 177.25 179.79 177.18 C 178.77 177.10 177.89 177.87 177.81 178.89 Z M 177.75 179.82 L 177.66 180.78 C 177.57 181.80 178.32 182.70 179.34 182.79 C 180.36 182.88 181.26 182.13 181.35 181.12 L 181.44 180.15 C 181.53 179.14 180.78 178.24 179.76 178.15 C 178.74 178.05 177.84 178.81 177.75 179.82 Z M 177.67 180.75 L 177.56 181.71 C 177.45 182.73 178.18 183.64 179.20 183.75 C 180.21 183.86 181.13 183.13 181.24 182.12 L 181.34 181.15 C 181.46 180.14 180.72 179.22 179.71 179.11 C 178.69 179.00 177.78 179.73 177.67 180.75 Z M 177.57 181.67 L 177.44 182.61 C 177.31 183.62 178.02 184.55 179.03 184.69 C 180.05 184.82 180.97 184.11 181.11 183.10 L 181.23 182.15 C 181.36 181.14 180.65 180.22 179.64 180.08 C 178.63 179.95 177.70 180.66 177.57 181.67 Z M 177.45 182.58 L 177.31 183.51 C 177.15 184.51 177.85 185.46 178.85 185.61 C 179.86 185.76 180.80 185.07 180.96 184.06 L 181.10 183.13 C 181.25 182.13 180.56 181.18 179.55 181.03 C 178.55 180.88 177.61 181.57 177.45 182.58 Z M 177.32 183.47 L 177.15 184.41 C 176.98 185.42 177.65 186.37 178.66 186.54 C 179.66 186.72 180.62 186.04 180.79 185.04 L 180.95 184.10 C 181.12 183.09 180.45 182.14 179.45 181.97 C 178.44 181.79 177.49 182.47 177.32 183.47 Z M 177.16 184.38 L 176.98 185.33 C 176.79 186.33 177.45 187.30 178.45 187.49 C 179.44 187.68 180.41 187.02 180.60 186.02 L 180.78 185.07 C 180.97 184.07 180.32 183.11 179.32 182.92 C 178.32 182.73 177.35 183.38 177.16 184.38 Z M 176.99 185.31 L 176.79 186.27 C 176.58 187.27 177.22 188.24 178.22 188.45 C 179.21 188.65 180.19 188.01 180.39 187.02 L 180.59 186.05 C 180.80 185.06 180.16 184.08 179.16 183.88 C 178.17 183.67 177.19 184.31 176.99 185.31 Z M 176.79 186.24 L 176.58 187.22 C 176.35 188.22 176.98 189.20 177.97 189.42 C 178.96 189.64 179.95 189.02 180.17 188.02 L 180.39 187.05 C 180.61 186.05 179.98 185.07 178.99 184.85 C 178.00 184.63 177.02 185.25 176.79 186.24 Z M 176.58 187.20 L 176.35 188.20 C 176.11 189.18 176.72 190.17 177.71 190.41 C 178.70 190.64 179.69 190.03 179.92 189.04 L 180.16 188.05 C 180.39 187.06 179.78 186.07 178.80 185.84 C 177.81 185.60 176.82 186.21 176.58 187.20 Z M 176.35 188.17 L 176.10 189.19 C 175.85 190.17 176.45 191.17 177.44 191.41 C 178.42 191.66 179.42 191.06 179.66 190.08 L 179.92 189.07 C 180.16 188.08 179.56 187.08 178.58 186.84 C 177.60 186.59 176.60 187.19 176.35 188.17 Z M 176.11 189.17 L 175.84 190.20 C 175.58 191.18 176.17 192.18 177.15 192.44 C 178.13 192.70 179.13 192.11 179.39 191.13 L 179.66 190.10 C 179.91 189.12 179.33 188.11 178.35 187.86 C 177.37 187.60 176.36 188.19 176.11 189.17 Z M 175.84 190.18 L 175.57 191.21 C 175.30 192.18 175.88 193.19 176.85 193.46 C 177.83 193.72 178.84 193.14 179.10 192.17 L 179.38 191.14 C 179.65 190.17 179.07 189.16 178.09 188.89 C 177.12 188.63 176.11 189.21 175.84 190.18 Z M 175.57 191.19 L 175.29 192.19 C 175.02 193.16 175.59 194.17 176.56 194.44 C 177.54 194.72 178.55 194.15 178.82 193.17 L 179.10 192.18 C 179.37 191.21 178.80 190.20 177.83 189.92 C 176.86 189.65 175.84 190.22 175.57 191.19 Z M 175.30 192.17 L 175.01 193.17 C 174.73 194.15 175.29 195.16 176.26 195.44 C 177.23 195.72 178.25 195.16 178.53 194.19 L 178.81 193.19 C 179.09 192.22 178.53 191.20 177.56 190.92 C 176.59 190.64 175.58 191.20 175.30 192.17 Z M 175.01 193.16 L 174.72 194.17 C 174.43 195.13 174.98 196.15 175.95 196.44 C 176.92 196.72 177.94 196.17 178.22 195.20 L 178.52 194.20 C 178.81 193.23 178.25 192.21 177.29 191.93 C 176.32 191.64 175.30 192.19 175.01 193.16 Z M 174.72 194.15 L 174.42 195.15 C 174.13 196.12 174.67 197.14 175.64 197.43 C 176.60 197.72 177.62 197.18 177.92 196.21 L 178.22 195.21 C 178.51 194.25 177.97 193.23 177.00 192.94 C 176.04 192.64 175.02 193.19 174.72 194.15 Z M 174.43 195.14 L 174.12 196.12 C 173.82 197.09 174.36 198.11 175.32 198.41 C 176.28 198.71 177.30 198.17 177.60 197.21 L 177.91 196.22 C 178.21 195.26 177.67 194.24 176.71 193.94 C 175.75 193.64 174.72 194.18 174.43 195.14 Z M 174.12 196.11 L 173.82 197.08 C 173.51 198.03 174.04 199.06 175.00 199.37 C 175.96 199.67 176.99 199.14 177.29 198.18 L 177.60 197.22 C 177.90 196.26 177.38 195.23 176.42 194.93 C 175.46 194.62 174.43 195.15 174.12 196.11 Z M 173.82 197.06 L 173.52 198.00 C 173.20 198.96 173.73 199.98 174.68 200.30 C 175.64 200.61 176.67 200.09 176.98 199.13 L 177.29 198.20 C 177.60 197.24 177.08 196.21 176.12 195.90 C 175.16 195.58 174.14 196.11 173.82 197.06 Z M 173.52 197.99 L 173.22 198.89 C 172.90 199.84 173.41 200.87 174.37 201.19 C 175.32 201.51 176.35 201.00 176.67 200.05 L 176.97 199.15 C 177.29 198.19 176.78 197.16 175.83 196.84 C 174.87 196.52 173.84 197.03 173.52 197.99 Z M 173.23 198.88 L 172.93 199.74 C 172.60 200.69 173.10 201.72 174.05 202.05 C 175.00 202.38 176.04 201.87 176.37 200.92 L 176.66 200.06 C 176.99 199.11 176.49 198.08 175.54 197.75 C 174.59 197.42 173.55 197.93 173.23 198.88 Z M 172.94 199.72 L 172.59 200.69 C 172.25 201.63 172.75 202.67 173.69 203.01 C 174.64 203.34 175.67 202.85 176.01 201.91 L 176.36 200.94 C 176.69 200.00 176.20 198.96 175.26 198.62 C 174.31 198.28 173.27 198.77 172.94 199.72 Z M 172.61 200.66 L 172.22 201.70 C 171.86 202.64 172.34 203.68 173.28 204.03 C 174.21 204.38 175.26 203.91 175.61 202.97 L 176.00 201.93 C 176.35 200.99 175.87 199.95 174.94 199.60 C 174.00 199.25 172.96 199.72 172.61 200.66 Z M 172.23 201.67 L 171.85 202.63 C 171.48 203.56 171.94 204.61 172.86 204.98 C 173.79 205.35 174.84 204.89 175.21 203.97 L 175.59 203.00 C 175.96 202.08 175.51 201.03 174.58 200.66 C 173.65 200.29 172.60 200.74 172.23 201.67 Z M 171.87 202.60 L 171.49 203.50 C 171.10 204.42 171.53 205.48 172.44 205.86 C 173.36 206.25 174.42 205.83 174.80 204.91 L 175.19 204.00 C 175.58 203.09 175.15 202.03 174.23 201.64 C 173.32 201.25 172.26 201.68 171.87 202.60 Z M 171.51 203.46 L 171.12 204.33 C 170.71 205.23 171.11 206.29 172.01 206.70 C 172.91 207.12 173.98 206.72 174.39 205.81 L 174.78 204.95 C 175.19 204.05 174.79 202.98 173.89 202.57 C 172.99 202.16 171.92 202.56 171.51 203.46 Z M 171.14 204.28 L 170.73 205.12 C 170.30 206.01 170.67 207.08 171.56 207.52 C 172.45 207.95 173.52 207.58 173.96 206.69 L 174.36 205.85 C 174.80 204.96 174.43 203.89 173.54 203.46 C 172.65 203.02 171.58 203.39 171.14 204.28 Z M 170.76 205.08 L 170.33 205.91 C 169.87 206.79 170.22 207.86 171.09 208.32 C 171.97 208.77 173.04 208.43 173.50 207.56 L 173.93 206.73 C 174.39 205.86 174.05 204.78 173.17 204.32 C 172.29 203.87 171.22 204.21 170.76 205.08 Z M 170.36 205.87 L 169.88 206.72 C 169.41 207.59 169.72 208.67 170.58 209.15 C 171.44 209.62 172.53 209.31 173.00 208.45 L 173.47 207.60 C 173.95 206.73 173.64 205.65 172.78 205.17 C 171.92 204.70 170.83 205.01 170.36 205.87 Z M 169.91 206.69 L 169.39 207.57 C 168.89 208.42 169.17 209.51 170.02 210.01 C 170.87 210.51 171.96 210.22 172.45 209.38 L 172.98 208.49 C 173.47 207.64 173.19 206.55 172.35 206.05 C 171.50 205.56 170.41 205.84 169.91 206.69 Z M 169.42 207.52 L 168.87 208.40 C 168.34 209.23 168.59 210.33 169.41 210.85 C 170.24 211.38 171.34 211.13 171.86 210.30 L 172.42 209.43 C 172.94 208.60 172.70 207.50 171.87 206.98 C 171.05 206.45 169.95 206.70 169.42 207.52 Z M 168.91 208.34 L 168.32 209.19 C 167.76 209.99 167.96 211.10 168.76 211.66 C 169.56 212.21 170.67 212.02 171.22 211.22 L 171.82 210.37 C 172.37 209.56 172.18 208.46 171.38 207.90 C 170.57 207.34 169.47 207.54 168.91 208.34 Z M 168.38 209.12 L 167.76 209.92 C 167.16 210.69 167.29 211.80 168.06 212.39 C 168.83 212.99 169.94 212.86 170.54 212.09 L 171.16 211.29 C 171.76 210.52 171.63 209.41 170.86 208.81 C 170.09 208.21 168.98 208.35 168.38 209.12 Z M 167.84 209.83 L 167.19 210.55 C 166.54 211.28 166.60 212.39 167.32 213.04 C 168.05 213.69 169.16 213.63 169.81 212.91 L 170.46 212.18 C 171.11 211.45 171.05 210.34 170.33 209.69 C 169.60 209.04 168.49 209.10 167.84 209.83 Z M 167.30 210.45 L 166.62 211.08 C 165.91 211.74 165.87 212.86 166.53 213.57 C 167.20 214.27 168.31 214.31 169.02 213.65 L 169.70 213.01 C 170.41 212.35 170.44 211.24 169.78 210.53 C 169.12 209.82 168.01 209.78 167.30 210.45 Z M 166.79 210.95 L 165.97 211.54 C 165.19 212.11 165.02 213.21 165.59 213.99 C 166.16 214.77 167.25 214.94 168.03 214.37 L 168.85 213.78 C 169.63 213.21 169.80 212.12 169.23 211.33 C 168.66 210.55 167.57 210.38 166.79 210.95 Z M 166.21 211.41 L 165.30 211.87 C 164.44 212.31 164.10 213.36 164.54 214.21 C 164.97 215.07 166.02 215.41 166.88 214.98 L 167.79 214.51 C 168.65 214.08 168.99 213.03 168.56 212.17 C 168.12 211.31 167.07 210.97 166.21 211.41 Z M 165.59 211.77 L 164.65 212.05 C 163.73 212.33 163.21 213.30 163.49 214.21 C 163.77 215.13 164.74 215.64 165.65 215.37 L 166.59 215.08 C 167.51 214.80 168.02 213.84 167.75 212.92 C 167.47 212.01 166.50 211.49 165.59 211.77 Z M 164.95 212.00 L 163.99 212.11 C 163.05 212.22 162.37 213.08 162.48 214.02 C 162.59 214.96 163.44 215.64 164.39 215.53 L 165.35 215.42 C 166.29 215.31 166.97 214.45 166.86 213.51 C 166.75 212.57 165.89 211.89 164.95 212.00 Z M 164.29 212.11 L 163.32 212.06 C 162.37 212.00 161.56 212.72 161.51 213.66 C 161.46 214.61 162.17 215.42 163.12 215.47 L 164.09 215.53 C 165.03 215.58 165.84 214.86 165.89 213.92 C 165.95 212.98 165.23 212.17 164.29 212.11 Z M 163.59 212.11 L 162.63 211.89 C 161.71 211.69 160.80 212.27 160.60 213.18 C 160.39 214.10 160.97 215.00 161.89 215.21 L 162.85 215.42 C 163.76 215.63 164.67 215.05 164.87 214.13 C 165.08 213.22 164.50 212.31 163.59 212.11 Z M 162.84 211.97 L 161.95 211.64 C 161.08 211.31 160.10 211.76 159.78 212.63 C 159.46 213.50 159.90 214.48 160.77 214.80 L 161.67 215.13 C 162.54 215.46 163.51 215.01 163.84 214.14 C 164.16 213.26 163.72 212.29 162.84 211.97 Z M 162.11 211.72 L 161.23 211.28 C 160.40 210.86 159.39 211.20 158.98 212.03 C 158.57 212.85 158.90 213.86 159.73 214.28 L 160.61 214.72 C 161.44 215.13 162.45 214.80 162.86 213.97 C 163.28 213.14 162.94 212.13 162.11 211.72 Z M 161.36 211.36 L 160.50 210.83 C 159.71 210.34 158.69 210.58 158.20 211.37 C 157.72 212.15 157.96 213.18 158.74 213.66 L 159.60 214.20 C 160.39 214.68 161.42 214.44 161.90 213.65 C 162.38 212.87 162.14 211.84 161.36 211.36 Z M 160.60 210.90 L 159.77 210.30 C 159.02 209.76 157.99 209.93 157.45 210.67 C 156.91 211.41 157.08 212.45 157.82 212.99 L 158.65 213.59 C 159.39 214.13 160.42 213.96 160.96 213.22 C 161.50 212.48 161.34 211.44 160.60 210.90 Z M 159.84 210.37 L 159.05 209.72 C 158.35 209.14 157.31 209.24 156.73 209.94 C 156.15 210.64 156.25 211.68 156.95 212.26 L 157.74 212.91 C 158.44 213.49 159.48 213.40 160.06 212.70 C 160.64 211.99 160.54 210.95 159.84 210.37 Z M 159.12 209.79 L 158.38 209.10 C 157.72 208.49 156.68 208.53 156.06 209.19 C 155.45 209.85 155.49 210.89 156.15 211.50 L 156.89 212.19 C 157.55 212.81 158.59 212.77 159.20 212.10 C 159.82 211.44 159.78 210.40 159.12 209.79 Z M 158.44 209.17 L 157.75 208.47 C 157.13 207.82 156.10 207.80 155.45 208.43 C 154.80 209.05 154.79 210.09 155.41 210.73 L 156.09 211.44 C 156.72 212.08 157.75 212.10 158.40 211.48 C 159.05 210.85 159.06 209.82 158.44 209.17 Z M 157.81 208.53 L 157.17 207.80 C 156.58 207.13 155.56 207.05 154.88 207.64 C 154.20 208.23 154.13 209.25 154.72 209.93 L 155.36 210.66 C 155.95 211.34 156.97 211.41 157.65 210.82 C 158.32 210.23 158.39 209.21 157.81 208.53 Z M 157.21 207.87 L 156.61 207.10 C 156.06 206.40 155.05 206.28 154.34 206.83 C 153.64 207.38 153.52 208.39 154.07 209.09 L 154.68 209.86 C 155.23 210.56 156.24 210.68 156.94 210.13 C 157.64 209.58 157.76 208.57 157.21 207.87 Z M 156.65 207.17 L 156.07 206.35 C 155.55 205.63 154.55 205.46 153.83 205.98 C 153.11 206.49 152.94 207.49 153.46 208.21 L 154.03 209.03 C 154.55 209.75 155.55 209.92 156.27 209.40 C 156.99 208.89 157.16 207.89 156.65 207.17 Z M 156.10 206.41 L 155.53 205.55 C 155.05 204.81 154.06 204.60 153.33 205.09 C 152.59 205.57 152.38 206.56 152.86 207.29 L 153.43 208.16 C 153.91 208.89 154.90 209.10 155.63 208.62 C 156.37 208.14 156.58 207.15 156.10 206.41 Z M 155.56 205.60 L 155.02 204.72 C 154.57 203.97 153.59 203.73 152.84 204.19 C 152.09 204.64 151.85 205.62 152.31 206.37 L 152.84 207.24 C 153.30 207.99 154.27 208.23 155.02 207.78 C 155.77 207.32 156.01 206.35 155.56 205.60 Z M 155.04 204.76 L 154.56 203.91 C 154.12 203.15 153.16 202.89 152.40 203.32 C 151.64 203.76 151.37 204.72 151.81 205.48 L 152.29 206.33 C 152.73 207.09 153.69 207.35 154.45 206.92 C 155.21 206.49 155.47 205.52 155.04 204.76 Z M 154.57 203.94 L 154.09 203.06 C 153.68 202.29 152.72 202.01 151.95 202.43 C 151.19 202.84 150.90 203.80 151.32 204.57 L 151.79 205.45 C 152.21 206.21 153.17 206.50 153.93 206.08 C 154.70 205.67 154.99 204.71 154.57 203.94 Z M 154.10 203.09 L 153.64 202.19 C 153.24 201.41 152.29 201.11 151.52 201.51 C 150.74 201.91 150.44 202.86 150.84 203.63 L 151.30 204.54 C 151.70 205.31 152.65 205.61 153.43 205.21 C 154.20 204.82 154.50 203.87 154.10 203.09 Z M 153.65 202.22 L 153.20 201.30 C 152.82 200.52 151.88 200.20 151.10 200.58 C 150.32 200.96 149.99 201.90 150.38 202.68 L 150.83 203.60 C 151.21 204.38 152.15 204.70 152.93 204.32 C 153.71 203.94 154.03 203.00 153.65 202.22 Z M 153.21 201.33 L 152.78 200.41 C 152.42 199.63 151.48 199.29 150.70 199.65 C 149.91 200.02 149.57 200.95 149.94 201.74 L 150.37 202.65 C 150.73 203.44 151.67 203.78 152.45 203.41 C 153.24 203.05 153.58 202.11 153.21 201.33 Z M 152.79 200.44 L 152.39 199.53 C 152.04 198.74 151.12 198.38 150.33 198.73 C 149.54 199.08 149.18 200.01 149.53 200.80 L 149.93 201.71 C 150.28 202.50 151.20 202.85 151.99 202.51 C 152.78 202.16 153.14 201.23 152.79 200.44 Z M 152.40 199.56 L 152.01 198.61 C 151.67 197.81 150.76 197.44 149.96 197.77 C 149.17 198.10 148.79 199.01 149.12 199.81 L 149.52 200.76 C 149.85 201.56 150.76 201.94 151.56 201.61 C 152.35 201.28 152.73 200.36 152.40 199.56 Z M 152.02 198.64 L 151.64 197.67 C 151.33 196.87 150.42 196.47 149.62 196.78 C 148.81 197.09 148.42 198.00 148.73 198.80 L 149.11 199.78 C 149.42 200.58 150.32 200.98 151.13 200.67 C 151.93 200.35 152.33 199.45 152.02 198.64 Z M 151.65 197.70 L 151.30 196.75 C 151.01 195.94 150.11 195.52 149.30 195.82 C 148.49 196.11 148.08 197.01 148.37 197.82 L 148.72 198.77 C 149.01 199.58 149.91 200.00 150.72 199.70 C 151.53 199.41 151.95 198.51 151.65 197.70 Z M 151.31 196.78 L 150.99 195.84 C 150.71 195.03 149.82 194.59 149.00 194.88 C 148.19 195.16 147.76 196.05 148.04 196.86 L 148.36 197.80 C 148.64 198.61 149.53 199.04 150.35 198.76 C 151.16 198.48 151.59 197.59 151.31 196.78 Z M 151.00 195.86 L 150.69 194.94 C 150.42 194.12 149.54 193.68 148.72 193.95 C 147.90 194.22 147.46 195.10 147.73 195.92 L 148.03 196.84 C 148.30 197.66 149.19 198.11 150.01 197.83 C 150.82 197.56 151.27 196.68 151.00 195.86 Z M 150.69 194.95 L 150.40 194.04 C 150.13 193.22 149.25 192.77 148.43 193.03 C 147.61 193.30 147.16 194.18 147.43 195.00 L 147.72 195.91 C 147.99 196.73 148.87 197.18 149.69 196.92 C 150.51 196.65 150.96 195.77 150.69 194.95 Z M 150.40 194.04 L 150.26 193.62 C 150.00 192.80 149.12 192.34 148.30 192.61 C 147.48 192.87 147.03 193.75 147.29 194.57 L 147.43 194.99 C 147.69 195.81 148.57 196.27 149.39 196.00 C 150.21 195.74 150.66 194.86 150.40 194.04 Z"
      fill="black"
      fill-rule="nonzero" /><path d="M 147.29 124.92 L 146.75 125.57 C 146.18 126.27 146.27 127.30 146.97 127.88 C 147.67 128.46 148.70 128.36 149.28 127.66 L 149.82 127.01 C 150.40 126.31 150.30 125.28 149.60 124.70 C 148.91 124.12 147.87 124.22 147.29 124.92 Z M 146.70 125.56 L 146.16 126.24 C 145.57 126.97 145.69 128.03 146.42 128.61 C 147.15 129.20 148.21 129.08 148.80 128.35 L 149.34 127.67 C 149.92 126.94 149.80 125.87 149.07 125.29 C 148.34 124.71 147.28 124.83 146.70 125.56 Z M 146.08 126.26 L 145.53 127.00 C 144.96 127.77 145.12 128.85 145.89 129.43 C 146.66 130.00 147.75 129.84 148.32 129.07 L 148.87 128.33 C 149.44 127.56 149.28 126.47 148.51 125.90 C 147.74 125.33 146.65 125.49 146.08 126.26 Z M 145.45 127.03 L 144.89 127.86 C 144.34 128.67 144.55 129.78 145.37 130.33 C 146.19 130.89 147.30 130.67 147.85 129.85 L 148.41 129.03 C 148.96 128.21 148.74 127.10 147.93 126.55 C 147.11 126.00 146.00 126.22 145.45 127.03 Z M 144.80 127.91 L 144.23 128.84 C 143.71 129.71 143.99 130.84 144.85 131.36 C 145.72 131.88 146.85 131.61 147.37 130.74 L 147.94 129.80 C 148.46 128.94 148.19 127.81 147.32 127.29 C 146.45 126.76 145.33 127.04 144.80 127.91 Z M 144.15 128.90 L 143.56 129.98 C 143.07 130.90 143.41 132.04 144.33 132.53 C 145.24 133.02 146.38 132.68 146.88 131.77 L 147.46 130.68 C 147.95 129.77 147.61 128.63 146.69 128.14 C 145.78 127.64 144.64 127.99 144.15 128.90 Z M 143.50 130.03 L 143.11 130.85 C 142.64 131.80 143.04 132.94 143.98 133.40 C 144.93 133.87 146.07 133.47 146.54 132.53 L 146.94 131.71 C 147.40 130.77 147.01 129.62 146.06 129.16 C 145.11 128.69 143.97 129.09 143.50 130.03 Z M 143.08 130.89 L 142.71 131.70 C 142.26 132.66 142.69 133.80 143.65 134.24 C 144.61 134.68 145.75 134.26 146.19 133.30 L 146.56 132.49 C 147.01 131.53 146.59 130.39 145.62 129.94 C 144.66 129.50 143.52 129.92 143.08 130.89 Z M 142.69 131.72 L 142.31 132.59 C 141.88 133.56 142.32 134.69 143.30 135.12 C 144.27 135.55 145.40 135.11 145.83 134.13 L 146.21 133.27 C 146.64 132.30 146.20 131.17 145.22 130.74 C 144.25 130.31 143.12 130.75 142.69 131.72 Z M 142.30 132.61 L 141.91 133.51 C 141.50 134.49 141.95 135.62 142.93 136.04 C 143.91 136.46 145.04 136.00 145.46 135.02 L 145.84 134.11 C 146.26 133.13 145.80 132.00 144.82 131.59 C 143.84 131.17 142.71 131.63 142.30 132.61 Z M 141.90 133.52 L 141.51 134.46 C 141.10 135.45 141.57 136.58 142.56 136.99 C 143.54 137.40 144.67 136.93 145.08 135.94 L 145.47 135.01 C 145.88 134.02 145.41 132.89 144.43 132.48 C 143.44 132.07 142.31 132.54 141.90 133.52 Z M 141.50 134.47 L 141.11 135.43 C 140.70 136.42 141.18 137.55 142.17 137.96 C 143.16 138.36 144.29 137.89 144.70 136.90 L 145.09 135.94 C 145.50 134.94 145.02 133.81 144.03 133.41 C 143.04 133.00 141.91 133.48 141.50 134.47 Z M 141.10 135.44 L 140.71 136.42 C 140.30 137.41 140.78 138.54 141.78 138.95 C 142.77 139.35 143.90 138.87 144.31 137.88 L 144.70 136.90 C 145.11 135.90 144.63 134.77 143.63 134.36 C 142.64 133.96 141.51 134.44 141.10 135.44 Z M 140.70 136.41 L 140.30 137.40 C 139.89 138.40 140.37 139.54 141.37 139.94 C 142.37 140.34 143.51 139.86 143.91 138.87 L 144.31 137.88 C 144.72 136.88 144.24 135.75 143.24 135.34 C 142.24 134.94 141.11 135.42 140.70 136.41 Z M 140.30 137.40 L 139.89 138.38 C 139.48 139.38 139.96 140.52 140.96 140.93 C 141.96 141.34 143.10 140.86 143.51 139.86 L 143.91 138.87 C 144.32 137.88 143.84 136.74 142.84 136.33 C 141.85 135.92 140.70 136.40 140.30 137.40 Z M 139.89 138.37 L 139.48 139.35 C 139.07 140.35 139.54 141.50 140.54 141.91 C 141.54 142.33 142.69 141.85 143.10 140.86 L 143.51 139.87 C 143.92 138.88 143.45 137.73 142.45 137.32 C 141.45 136.90 140.31 137.37 139.89 138.37 Z M 139.49 139.34 L 139.05 140.36 C 138.63 141.36 139.10 142.51 140.09 142.93 C 141.09 143.36 142.24 142.89 142.66 141.89 L 143.10 140.87 C 143.52 139.87 143.06 138.72 142.06 138.30 C 141.06 137.88 139.91 138.34 139.49 139.34 Z M 139.06 140.35 L 138.62 141.35 C 138.19 142.35 138.65 143.50 139.64 143.93 C 140.63 144.37 141.79 143.91 142.22 142.92 L 142.66 141.91 C 143.09 140.92 142.63 139.76 141.64 139.33 C 140.65 138.90 139.49 139.35 139.06 140.35 Z M 138.63 141.34 L 138.19 142.32 C 137.75 143.31 138.20 144.47 139.19 144.91 C 140.18 145.35 141.34 144.91 141.78 143.91 L 142.21 142.93 C 142.65 141.94 142.21 140.78 141.22 140.34 C 140.23 139.90 139.07 140.35 138.63 141.34 Z M 138.20 142.31 L 137.76 143.27 C 137.32 144.25 137.76 145.42 138.74 145.86 C 139.73 146.31 140.89 145.87 141.34 144.88 L 141.77 143.93 C 142.22 142.94 141.78 141.78 140.79 141.33 C 139.81 140.88 138.64 141.32 138.20 142.31 Z M 137.77 143.25 L 137.34 144.18 C 136.89 145.16 137.32 146.33 138.30 146.78 C 139.29 147.24 140.45 146.81 140.91 145.82 L 141.33 144.90 C 141.79 143.91 141.36 142.75 140.37 142.29 C 139.39 141.84 138.22 142.27 137.77 143.25 Z M 137.35 144.17 L 136.93 145.06 C 136.47 146.05 136.89 147.21 137.87 147.67 C 138.86 148.13 140.02 147.71 140.48 146.73 L 140.90 145.83 C 141.36 144.85 140.94 143.68 139.96 143.22 C 138.98 142.76 137.81 143.19 137.35 144.17 Z M 136.93 145.05 L 136.52 145.91 C 136.06 146.89 136.48 148.06 137.45 148.53 C 138.43 148.99 139.60 148.58 140.07 147.60 L 140.48 146.74 C 140.94 145.76 140.53 144.59 139.55 144.12 C 138.57 143.66 137.40 144.07 136.93 145.05 Z M 136.53 145.90 L 136.13 146.73 C 135.66 147.70 136.07 148.88 137.05 149.35 C 138.03 149.82 139.20 149.41 139.67 148.43 L 140.07 147.61 C 140.54 146.63 140.13 145.46 139.15 144.99 C 138.17 144.52 137.00 144.93 136.53 145.90 Z M 136.14 146.72 L 135.75 147.50 C 135.28 148.48 135.68 149.65 136.66 150.13 C 137.63 150.60 138.81 150.20 139.28 149.22 L 139.67 148.44 C 140.14 147.46 139.74 146.29 138.76 145.81 C 137.79 145.34 136.61 145.74 136.14 146.72 Z M 135.76 147.49 L 135.31 148.41 C 134.83 149.38 135.23 150.56 136.20 151.04 C 137.17 151.52 138.35 151.12 138.83 150.15 L 139.28 149.23 C 139.76 148.26 139.36 147.08 138.39 146.60 C 137.41 146.12 136.24 146.52 135.76 147.49 Z M 135.31 148.40 L 134.81 149.40 C 134.33 150.37 134.72 151.54 135.69 152.03 C 136.66 152.51 137.84 152.12 138.33 151.15 L 138.82 150.16 C 139.31 149.19 138.91 148.01 137.94 147.52 C 136.98 147.04 135.80 147.43 135.31 148.40 Z M 134.82 149.38 L 134.35 150.31 C 133.86 151.27 134.24 152.46 135.21 152.95 C 136.17 153.44 137.36 153.05 137.85 152.09 L 138.32 151.16 C 138.81 150.20 138.43 149.02 137.46 148.53 C 136.49 148.03 135.31 148.42 134.82 149.38 Z M 134.36 150.29 L 133.91 151.16 C 133.41 152.13 133.78 153.31 134.74 153.81 C 135.70 154.31 136.89 153.94 137.39 152.97 L 137.84 152.10 C 138.34 151.14 137.96 149.96 137.00 149.46 C 136.04 148.96 134.86 149.33 134.36 150.29 Z M 133.92 151.15 L 133.47 151.98 C 132.97 152.93 133.33 154.12 134.28 154.63 C 135.24 155.14 136.42 154.78 136.93 153.82 L 137.38 152.99 C 137.88 152.04 137.52 150.85 136.57 150.34 C 135.61 149.83 134.42 150.19 133.92 151.15 Z M 133.48 151.96 L 133.05 152.76 C 132.53 153.71 132.88 154.90 133.83 155.42 C 134.78 155.94 135.97 155.59 136.48 154.64 L 136.92 153.84 C 137.44 152.89 137.09 151.70 136.14 151.18 C 135.19 150.66 134.00 151.01 133.48 151.96 Z M 133.06 152.75 L 132.61 153.54 C 132.08 154.49 132.42 155.68 133.36 156.21 C 134.31 156.74 135.50 156.40 136.03 155.46 L 136.47 154.66 C 137.00 153.72 136.67 152.52 135.72 151.99 C 134.78 151.47 133.59 151.80 133.06 152.75 Z M 132.62 153.53 L 132.14 154.37 C 131.60 155.30 131.93 156.50 132.86 157.04 C 133.80 157.58 135.00 157.25 135.53 156.31 L 136.02 155.47 C 136.55 154.54 136.23 153.34 135.29 152.80 C 134.36 152.26 133.16 152.59 132.62 153.53 Z M 132.15 154.35 L 131.65 155.20 C 131.11 156.13 131.42 157.33 132.35 157.87 C 133.29 158.42 134.48 158.11 135.03 157.17 L 135.52 156.33 C 136.07 155.40 135.76 154.20 134.82 153.65 C 133.89 153.11 132.70 153.42 132.15 154.35 Z M 131.66 155.19 L 131.16 156.04 C 130.60 156.96 130.91 158.16 131.84 158.71 C 132.76 159.27 133.96 158.96 134.51 158.04 L 135.02 157.18 C 135.57 156.26 135.27 155.06 134.34 154.51 C 133.41 153.96 132.22 154.26 131.66 155.19 Z M 131.16 156.03 L 130.64 156.89 C 130.09 157.81 130.38 159.01 131.31 159.57 C 132.23 160.13 133.43 159.83 133.99 158.91 L 134.51 158.04 C 135.06 157.12 134.77 155.92 133.84 155.37 C 132.92 154.81 131.72 155.11 131.16 156.03 Z M 130.65 156.88 L 130.12 157.76 C 129.56 158.68 129.85 159.88 130.77 160.44 C 131.69 161.00 132.89 160.70 133.45 159.78 L 133.98 158.91 C 134.54 157.99 134.25 156.79 133.33 156.23 C 132.41 155.67 131.21 155.96 130.65 156.88 Z M 130.12 157.75 L 129.58 158.64 C 129.02 159.55 129.31 160.75 130.23 161.31 C 131.15 161.88 132.35 161.59 132.91 160.67 L 133.45 159.79 C 134.01 158.87 133.72 157.67 132.80 157.11 C 131.88 156.55 130.68 156.84 130.12 157.75 Z M 129.59 158.64 L 129.08 159.46 C 128.52 160.38 128.80 161.58 129.72 162.14 C 130.64 162.70 131.84 162.41 132.40 161.50 L 132.90 160.67 C 133.47 159.75 133.18 158.55 132.26 157.99 C 131.35 157.43 130.15 157.72 129.59 158.64 Z M 129.08 159.46 L 128.56 160.30 C 128.00 161.22 128.29 162.41 129.20 162.98 C 130.12 163.54 131.31 163.26 131.88 162.34 L 132.39 161.50 C 132.96 160.59 132.67 159.39 131.76 158.82 C 130.84 158.26 129.64 158.55 129.08 159.46 Z M 128.57 160.30 L 128.04 161.15 C 127.48 162.06 127.76 163.26 128.67 163.82 C 129.58 164.39 130.78 164.11 131.35 163.19 L 131.87 162.34 C 132.44 161.43 132.16 160.23 131.24 159.67 C 130.33 159.10 129.13 159.39 128.57 160.30 Z M 128.05 161.14 L 127.51 162.00 C 126.95 162.91 127.22 164.10 128.13 164.67 C 129.04 165.24 130.24 164.96 130.81 164.05 L 131.34 163.20 C 131.91 162.29 131.63 161.09 130.72 160.52 C 129.81 159.96 128.62 160.23 128.05 161.14 Z M 127.52 161.99 L 126.98 162.85 C 126.41 163.75 126.68 164.95 127.59 165.52 C 128.49 166.09 129.69 165.82 130.26 164.92 L 130.80 164.06 C 131.37 163.15 131.10 161.96 130.20 161.38 C 129.29 160.81 128.09 161.08 127.52 161.99 Z M 126.99 162.84 L 126.44 163.70 C 125.87 164.60 126.13 165.80 127.03 166.37 C 127.93 166.95 129.13 166.68 129.71 165.78 L 130.25 164.92 C 130.83 164.02 130.56 162.82 129.66 162.25 C 128.76 161.67 127.56 161.94 126.99 162.84 Z M 126.45 163.69 L 125.91 164.53 C 125.32 165.43 125.58 166.62 126.48 167.20 C 127.38 167.78 128.57 167.53 129.15 166.63 L 129.70 165.79 C 130.28 164.89 130.02 163.69 129.12 163.11 C 128.23 162.53 127.03 162.79 126.45 163.69 Z M 125.91 164.52 L 125.37 165.34 C 124.79 166.23 125.04 167.43 125.93 168.02 C 126.82 168.60 128.02 168.36 128.61 167.46 L 129.15 166.64 C 129.73 165.75 129.48 164.55 128.59 163.96 C 127.70 163.38 126.50 163.63 125.91 164.52 Z M 125.38 165.33 L 124.84 166.15 C 124.24 167.04 124.48 168.24 125.37 168.83 C 126.26 169.42 127.46 169.18 128.05 168.29 L 128.60 167.47 C 129.19 166.59 128.95 165.39 128.06 164.80 C 127.17 164.21 125.97 164.45 125.38 165.33 Z M 124.84 166.15 L 124.29 166.97 C 123.69 167.85 123.92 169.05 124.81 169.64 C 125.69 170.24 126.89 170.01 127.48 169.13 L 128.04 168.30 C 128.64 167.42 128.40 166.22 127.52 165.63 C 126.64 165.03 125.44 165.26 124.84 166.15 Z M 124.30 166.96 L 123.73 167.78 C 123.13 168.66 123.36 169.86 124.23 170.46 C 125.11 171.06 126.31 170.84 126.91 169.96 L 127.47 169.14 C 128.08 168.26 127.85 167.06 126.97 166.46 C 126.10 165.86 124.90 166.08 124.30 166.96 Z M 123.74 167.77 L 123.17 168.60 C 122.56 169.48 122.78 170.67 123.65 171.28 C 124.52 171.89 125.72 171.67 126.32 170.80 L 126.90 169.97 C 127.51 169.10 127.29 167.90 126.42 167.29 C 125.55 166.69 124.35 166.90 123.74 167.77 Z M 123.17 168.60 L 122.59 169.43 C 121.97 170.30 122.18 171.50 123.05 172.11 C 123.92 172.72 125.11 172.51 125.73 171.64 L 126.31 170.81 C 126.92 169.94 126.72 168.74 125.85 168.13 C 124.98 167.52 123.79 167.73 123.17 168.60 Z M 122.59 169.42 L 122.01 170.25 C 121.39 171.11 121.59 172.31 122.46 172.92 C 123.32 173.54 124.51 173.34 125.13 172.47 L 125.72 171.65 C 126.33 170.79 126.13 169.59 125.27 168.98 C 124.41 168.36 123.21 168.56 122.59 169.42 Z M 122.02 170.24 L 121.43 171.06 C 120.81 171.91 121.00 173.11 121.86 173.73 C 122.71 174.35 123.91 174.16 124.53 173.30 L 125.12 172.48 C 125.74 171.62 125.55 170.43 124.69 169.81 C 123.83 169.19 122.64 169.38 122.02 170.24 Z M 121.43 171.05 L 120.84 171.87 C 120.21 172.72 120.40 173.92 121.25 174.54 C 122.10 175.16 123.30 174.98 123.92 174.13 L 124.52 173.31 C 125.14 172.45 124.96 171.26 124.11 170.63 C 123.25 170.01 122.06 170.20 121.43 171.05 Z M 120.85 171.86 L 120.24 172.67 C 119.61 173.52 119.79 174.72 120.64 175.34 C 121.48 175.97 122.68 175.80 123.31 174.95 L 123.91 174.13 C 124.54 173.29 124.36 172.09 123.52 171.46 C 122.67 170.84 121.47 171.01 120.85 171.86 Z M 120.25 172.66 L 119.65 173.47 C 119.01 174.31 119.18 175.51 120.02 176.14 C 120.86 176.77 122.06 176.60 122.69 175.76 L 123.30 174.96 C 123.93 174.12 123.76 172.92 122.92 172.29 C 122.08 171.65 120.88 171.82 120.25 172.66 Z M 119.66 173.46 L 119.05 174.25 C 118.41 175.08 118.57 176.28 119.41 176.92 C 120.24 177.56 121.44 177.40 122.08 176.56 L 122.68 175.77 C 123.32 174.94 123.16 173.74 122.33 173.10 C 121.49 172.46 120.30 172.62 119.66 173.46 Z M 119.07 174.24 L 118.47 175.01 C 117.82 175.84 117.97 177.03 118.80 177.68 C 119.63 178.32 120.82 178.17 121.47 177.34 L 122.07 176.57 C 122.71 175.74 122.56 174.55 121.73 173.90 C 120.90 173.26 119.71 173.41 119.07 174.24 Z M 118.48 174.99 L 117.84 175.80 C 117.19 176.62 117.32 177.81 118.15 178.47 C 118.97 179.12 120.16 178.98 120.81 178.16 L 121.45 177.36 C 122.10 176.54 121.97 175.34 121.15 174.69 C 120.33 174.04 119.13 174.17 118.48 174.99 Z M 117.86 175.78 L 117.20 176.59 C 116.54 177.41 116.66 178.60 117.47 179.26 C 118.28 179.92 119.48 179.80 120.14 178.99 L 120.80 178.18 C 121.46 177.36 121.33 176.17 120.52 175.51 C 119.71 174.85 118.52 174.97 117.86 175.78 Z M 117.22 176.58 L 116.56 177.36 C 115.90 178.16 116.00 179.35 116.80 180.02 C 117.60 180.69 118.80 180.58 119.47 179.78 L 120.12 179.00 C 120.79 178.20 120.68 177.01 119.88 176.34 C 119.08 175.67 117.89 175.78 117.22 176.58 Z M 116.58 177.34 L 115.94 178.09 C 115.26 178.88 115.35 180.08 116.14 180.75 C 116.93 181.43 118.12 181.34 118.80 180.55 L 119.45 179.80 C 120.13 179.01 120.04 177.82 119.25 177.14 C 118.46 176.46 117.26 176.55 116.58 177.34 Z M 115.96 178.07 L 115.31 178.80 C 114.62 179.58 114.69 180.77 115.47 181.46 C 116.25 182.15 117.44 182.08 118.13 181.30 L 118.78 180.57 C 119.47 179.79 119.40 178.60 118.62 177.91 C 117.84 177.22 116.65 177.30 115.96 178.07 Z M 115.33 178.78 L 114.69 179.49 C 113.99 180.26 114.04 181.45 114.81 182.15 C 115.57 182.85 116.76 182.80 117.46 182.03 L 118.11 181.32 C 118.81 180.56 118.76 179.37 117.99 178.67 C 117.22 177.96 116.04 178.02 115.33 178.78 Z M 114.71 179.47 L 114.04 180.18 C 113.33 180.94 113.36 182.12 114.11 182.84 C 114.87 183.55 116.05 183.51 116.77 182.76 L 117.44 182.05 C 118.15 181.30 118.12 180.11 117.36 179.40 C 116.61 178.69 115.42 178.72 114.71 179.47 Z M 114.06 180.16 L 113.35 180.89 C 112.63 181.63 112.64 182.82 113.38 183.54 C 114.12 184.26 115.31 184.25 116.03 183.51 L 116.74 182.78 C 117.46 182.04 117.45 180.86 116.71 180.13 C 115.97 179.41 114.79 179.42 114.06 180.16 Z M 113.38 180.87 L 112.66 181.58 C 111.93 182.31 111.92 183.49 112.65 184.22 C 113.37 184.96 114.55 184.96 115.29 184.24 L 116.00 183.53 C 116.74 182.80 116.74 181.62 116.02 180.89 C 115.29 180.15 114.11 180.15 113.38 180.87 Z M 112.68 181.57 L 111.96 182.26 C 111.22 182.97 111.20 184.15 111.91 184.89 C 112.62 185.64 113.80 185.66 114.54 184.95 L 115.26 184.25 C 116.01 183.54 116.03 182.36 115.32 181.62 C 114.60 180.88 113.42 180.85 112.68 181.57 Z M 111.98 182.24 L 111.26 182.92 C 110.51 183.62 110.47 184.80 111.17 185.55 C 111.87 186.30 113.05 186.34 113.80 185.64 L 114.52 184.96 C 115.27 184.26 115.31 183.08 114.61 182.33 C 113.91 181.58 112.73 181.54 111.98 182.24 Z M 111.28 182.91 L 110.55 183.57 C 109.80 184.26 109.74 185.43 110.43 186.19 C 111.12 186.95 112.30 187.00 113.05 186.31 L 113.78 185.65 C 114.54 184.96 114.59 183.79 113.90 183.03 C 113.21 182.27 112.03 182.22 111.28 182.91 Z M 110.57 183.56 L 109.82 184.23 C 109.06 184.91 108.99 186.08 109.67 186.84 C 110.35 187.61 111.52 187.67 112.28 186.99 L 113.03 186.32 C 113.80 185.64 113.86 184.47 113.18 183.71 C 112.50 182.95 111.33 182.88 110.57 183.56 Z M 109.84 184.22 L 109.07 184.89 C 108.30 185.57 108.22 186.73 108.89 187.50 C 109.57 188.26 110.73 188.34 111.50 187.67 L 112.27 187.00 C 113.03 186.33 113.11 185.16 112.44 184.40 C 111.77 183.63 110.60 183.55 109.84 184.22 Z M 109.09 184.89 L 108.32 185.54 C 107.55 186.21 107.46 187.37 108.12 188.14 C 108.78 188.91 109.94 189.00 110.71 188.34 L 111.48 187.68 C 112.25 187.02 112.34 185.86 111.68 185.09 C 111.02 184.32 109.86 184.23 109.09 184.89 Z M 108.34 185.54 L 107.57 186.18 C 106.80 186.83 106.70 187.99 107.35 188.76 C 108.01 189.54 109.16 189.64 109.94 188.98 L 110.70 188.34 C 111.47 187.69 111.57 186.53 110.92 185.76 C 110.27 184.98 109.11 184.89 108.34 185.54 Z M 107.59 186.17 L 106.83 186.80 C 106.06 187.44 105.95 188.60 106.59 189.37 C 107.23 190.15 108.39 190.26 109.16 189.62 L 109.92 188.99 C 110.70 188.35 110.81 187.19 110.16 186.42 C 109.52 185.64 108.37 185.53 107.59 186.17 Z M 106.85 186.80 L 106.10 187.40 C 105.32 188.04 105.21 189.19 105.84 189.97 C 106.48 190.75 107.63 190.86 108.41 190.23 L 109.15 189.62 C 109.93 188.99 110.05 187.84 109.41 187.06 C 108.77 186.28 107.63 186.16 106.85 186.80 Z M 106.12 187.40 L 105.42 187.96 C 104.64 188.58 104.51 189.73 105.14 190.51 C 105.76 191.29 106.91 191.42 107.69 190.79 L 108.39 190.23 C 109.17 189.61 109.30 188.46 108.67 187.68 C 108.05 186.90 106.90 186.77 106.12 187.40 Z M 105.45 187.94 L 104.73 188.50 C 103.94 189.11 103.79 190.25 104.41 191.04 C 105.02 191.83 106.16 191.98 106.95 191.36 L 107.67 190.80 C 108.46 190.19 108.60 189.05 107.99 188.26 C 107.37 187.47 106.24 187.33 105.45 187.94 Z M 104.76 188.48 L 104.00 189.05 C 103.20 189.64 103.03 190.77 103.62 191.57 C 104.22 192.38 105.35 192.54 106.15 191.95 L 106.91 191.38 C 107.71 190.79 107.88 189.66 107.29 188.86 C 106.69 188.06 105.56 187.89 104.76 188.48 Z M 104.04 189.03 L 103.21 189.61 C 102.40 190.19 102.20 191.31 102.77 192.12 C 103.35 192.93 104.47 193.13 105.28 192.55 L 106.11 191.97 C 106.92 191.40 107.12 190.27 106.54 189.46 C 105.97 188.65 104.85 188.46 104.04 189.03 Z M 103.25 189.59 L 102.33 190.21 C 101.51 190.76 101.28 191.87 101.83 192.69 C 102.38 193.52 103.50 193.74 104.32 193.19 L 105.24 192.58 C 106.06 192.03 106.29 190.91 105.74 190.09 C 105.19 189.26 104.07 189.04 103.25 189.59 Z M 102.37 190.19 L 101.43 190.78 C 100.60 191.31 100.35 192.41 100.88 193.25 C 101.41 194.08 102.51 194.33 103.35 193.80 L 104.28 193.21 C 105.12 192.68 105.36 191.58 104.84 190.74 C 104.31 189.91 103.20 189.66 102.37 190.19 Z M 101.46 190.76 L 100.66 191.25 C 99.82 191.76 99.55 192.86 100.06 193.70 C 100.58 194.54 101.67 194.81 102.51 194.30 L 103.31 193.81 C 104.16 193.30 104.42 192.21 103.91 191.36 C 103.40 190.52 102.31 190.25 101.46 190.76 Z M 100.69 191.24 L 99.84 191.74 C 98.99 192.24 98.71 193.33 99.21 194.18 C 99.70 195.02 100.79 195.31 101.64 194.81 L 102.49 194.31 C 103.34 193.81 103.62 192.72 103.12 191.87 C 102.63 191.03 101.54 190.74 100.69 191.24 Z M 99.86 191.73 L 98.98 192.24 C 98.13 192.72 97.83 193.80 98.31 194.66 C 98.80 195.51 99.88 195.81 100.73 195.32 L 101.62 194.82 C 102.47 194.33 102.77 193.25 102.28 192.40 C 101.80 191.54 100.71 191.25 99.86 191.73 Z M 99.00 192.23 L 98.09 192.73 C 97.24 193.20 96.92 194.28 97.40 195.14 C 97.87 195.99 98.95 196.30 99.80 195.83 L 100.71 195.33 C 101.57 194.85 101.88 193.78 101.41 192.92 C 100.93 192.07 99.85 191.76 99.00 192.23 Z M 98.11 192.72 L 97.19 193.22 C 96.33 193.68 96.01 194.75 96.47 195.61 C 96.93 196.47 98.00 196.79 98.86 196.33 L 99.78 195.84 C 100.64 195.38 100.97 194.31 100.50 193.45 C 100.04 192.59 98.97 192.26 98.11 192.72 Z M 97.22 193.21 L 96.30 193.68 C 95.44 194.13 95.10 195.19 95.55 196.06 C 96.00 196.92 97.06 197.26 97.92 196.81 L 98.84 196.34 C 99.70 195.89 100.04 194.83 99.59 193.96 C 99.15 193.10 98.08 192.76 97.22 193.21 Z M 96.33 193.67 L 95.43 194.12 C 94.56 194.56 94.21 195.61 94.64 196.48 C 95.07 197.35 96.13 197.70 97.00 197.27 L 97.90 196.82 C 98.77 196.39 99.12 195.33 98.69 194.46 C 98.25 193.59 97.20 193.24 96.33 193.67 Z M 95.46 194.12 L 94.57 194.54 C 93.69 194.96 93.33 196.00 93.74 196.88 C 94.16 197.75 95.21 198.12 96.08 197.70 L 96.97 197.28 C 97.84 196.86 98.21 195.81 97.79 194.94 C 97.38 194.07 96.33 193.70 95.46 194.12 Z M 94.61 194.53 L 93.64 194.97 C 92.76 195.36 92.37 196.40 92.76 197.28 C 93.16 198.15 94.20 198.55 95.07 198.15 L 96.04 197.71 C 96.92 197.32 97.31 196.28 96.92 195.40 C 96.52 194.52 95.49 194.13 94.61 194.53 Z M 93.69 194.96 L 92.75 195.35 C 91.87 195.71 91.45 196.73 91.82 197.62 C 92.19 198.50 93.21 198.92 94.09 198.55 L 95.02 198.16 C 95.91 197.79 96.33 196.77 95.96 195.89 C 95.59 195.00 94.57 194.59 93.69 194.96 Z M 92.81 195.33 L 91.90 195.68 C 91.01 196.02 90.56 197.02 90.90 197.91 C 91.23 198.80 92.23 199.25 93.12 198.91 L 94.04 198.56 C 94.93 198.22 95.37 197.23 95.04 196.33 C 94.70 195.44 93.70 195.00 92.81 195.33 Z M 91.96 195.67 L 91.05 195.98 C 90.15 196.28 89.67 197.26 89.97 198.16 C 90.28 199.05 91.25 199.53 92.15 199.23 L 93.06 198.92 C 93.96 198.61 94.44 197.64 94.13 196.74 C 93.83 195.85 92.85 195.37 91.96 195.67 Z M 91.11 195.97 L 90.18 196.25 C 89.28 196.52 88.77 197.47 89.04 198.37 C 89.31 199.27 90.26 199.78 91.16 199.51 L 92.09 199.24 C 92.99 198.97 93.50 198.02 93.23 197.11 C 92.96 196.21 92.01 195.70 91.11 195.97 Z M 90.24 196.24 L 89.29 196.49 C 88.38 196.73 87.84 197.65 88.08 198.56 C 88.32 199.47 89.24 200.01 90.15 199.77 L 91.10 199.52 C 92.01 199.28 92.55 198.36 92.31 197.45 C 92.08 196.55 91.15 196.00 90.24 196.24 Z M 89.34 196.49 L 88.35 196.71 C 87.44 196.92 86.87 197.82 87.08 198.73 C 87.28 199.64 88.19 200.21 89.09 200.00 L 90.09 199.77 C 91.00 199.57 91.57 198.66 91.36 197.76 C 91.15 196.85 90.25 196.28 89.34 196.49 Z M 88.39 196.71 L 87.50 196.89 C 86.60 197.07 86.01 197.96 86.19 198.86 C 86.37 199.77 87.25 200.36 88.16 200.18 L 89.05 200.00 C 89.96 199.82 90.55 198.94 90.36 198.03 C 90.18 197.12 89.30 196.53 88.39 196.71 Z M 87.54 196.89 L 86.61 197.06 C 85.70 197.22 85.10 198.09 85.26 199.00 C 85.43 199.90 86.29 200.51 87.20 200.34 L 88.13 200.18 C 89.03 200.01 89.64 199.15 89.47 198.24 C 89.31 197.33 88.44 196.73 87.54 196.89 Z M 86.64 197.06 L 85.68 197.22 C 84.77 197.37 84.16 198.22 84.31 199.13 C 84.46 200.03 85.31 200.65 86.22 200.50 L 87.17 200.34 C 88.08 200.19 88.69 199.34 88.55 198.43 C 88.40 197.53 87.54 196.91 86.64 197.06 Z M 85.70 197.22 L 84.71 197.37 C 83.81 197.51 83.19 198.35 83.32 199.25 C 83.46 200.16 84.30 200.78 85.21 200.64 L 86.19 200.49 C 87.10 200.36 87.72 199.51 87.58 198.61 C 87.45 197.71 86.60 197.09 85.70 197.22 Z M 84.73 197.38 L 83.72 197.52 C 82.82 197.65 82.19 198.48 82.32 199.38 C 82.45 200.28 83.28 200.91 84.18 200.78 L 85.19 200.64 C 86.09 200.51 86.72 199.68 86.59 198.78 C 86.46 197.88 85.63 197.25 84.73 197.38 Z M 83.73 197.53 L 82.70 197.66 C 81.81 197.78 81.18 198.61 81.30 199.50 C 81.42 200.40 82.24 201.03 83.14 200.91 L 84.17 200.77 C 85.06 200.65 85.69 199.83 85.57 198.93 C 85.45 198.04 84.63 197.41 83.73 197.53 Z M 82.71 197.67 L 81.67 197.80 C 80.78 197.92 80.15 198.74 80.26 199.63 C 80.38 200.52 81.20 201.15 82.09 201.04 L 83.13 200.91 C 84.02 200.79 84.65 199.97 84.54 199.08 C 84.42 198.19 83.61 197.55 82.71 197.67 Z M 81.68 197.81 L 80.63 197.94 C 79.74 198.05 79.11 198.87 79.22 199.76 C 79.34 200.65 80.15 201.28 81.04 201.16 L 82.08 201.03 C 82.97 200.92 83.60 200.11 83.49 199.22 C 83.38 198.33 82.57 197.70 81.68 197.81 Z M 80.63 197.95 L 80.23 198.00 C 79.34 198.11 78.71 198.92 78.82 199.81 C 78.93 200.69 79.74 201.32 80.63 201.21 L 81.03 201.16 C 81.92 201.05 82.55 200.24 82.44 199.35 C 82.33 198.47 81.52 197.84 80.63 197.95 Z"
      fill="black"
      fill-rule="nonzero" /></svg>