<svg xmlns="http://www.w3.org/2000/svg" width="300" height="300" viewBox="0 0 300 300">
<path d="M 93.47 148.98 L 92.06 148.95 C 91.14 148.93 90.37 149.67 90.35 150.60 C 90.33 151.52 91.07 152.29 92.00 152.31 L 93.40 152.34 C 94.33 152.35 95.10 151.62 95.11 150.69 C 95.13 149.76 94.40 149.00 93.47 148.98 Z M 92.06 148.91 L 90.70 148.89 C 89.75 148.87 88.97 149.62 88.95 150.57 C 88.93 151.52 89.68 152.30 90.63 152.32 L 92.00 152.35 C 92.95 152.36 93.73 151.61 93.75 150.66 C 93.76 149.71 93.01 148.93 92.06 148.91 Z M 90.69 148.85 L 89.41 148.83 C 88.44 148.81 87.64 149.59 87.63 150.56 C 87.61 151.53 88.39 152.32 89.35 152.34 L 90.64 152.36 C 91.61 152.37 92.40 151.60 92.42 150.63 C 92.43 149.66 91.66 148.86 90.69 148.85 Z M 89.40 148.79 L 88.24 148.78 C 87.25 148.77 86.44 149.57 86.43 150.56 C 86.42 151.55 87.21 152.36 88.20 152.37 L 89.36 152.38 C 90.35 152.39 91.16 151.59 91.17 150.60 C 91.18 149.61 90.39 148.80 89.40 148.79 Z M 88.22 148.74 L 87.22 148.74 C 86.21 148.74 85.39 149.56 85.39 150.57 C 85.39 151.58 86.21 152.40 87.22 152.40 L 88.22 152.40 C 89.23 152.40 90.05 151.58 90.05 150.57 C 90.05 149.56 89.23 148.74 88.22 148.74 Z M 87.19 148.70 L 86.40 148.72 C 85.36 148.74 84.54 149.59 84.56 150.62 C 84.58 151.65 85.43 152.47 86.46 152.46 L 87.26 152.44 C 88.29 152.42 89.11 151.57 89.09 150.54 C 89.07 149.51 88.22 148.69 87.19 148.70 Z M 86.32 148.68 L 85.77 148.71 C 84.72 148.77 83.92 149.67 83.98 150.72 C 84.03 151.78 84.94 152.58 85.99 152.52 L 86.54 152.49 C 87.59 152.43 88.39 151.53 88.33 150.48 C 88.27 149.43 87.37 148.62 86.32 148.68 Z M 85.50 148.71 L 85.23 148.77 C 84.18 148.98 83.50 150.00 83.71 151.05 C 83.92 152.11 84.94 152.79 85.99 152.58 L 86.26 152.52 C 87.32 152.31 88.00 151.29 87.79 150.23 C 87.57 149.18 86.55 148.50 85.50 148.71 Z M 84.48 152.28 L 84.62 152.37 C 85.51 153.00 86.73 152.78 87.36 151.90 C 87.98 151.01 87.77 149.79 86.88 149.17 L 86.74 149.07 C 85.85 148.44 84.63 148.66 84.01 149.54 C 83.38 150.43 83.60 151.65 84.48 152.28 Z M 85.35 152.70 L 85.94 152.82 C 87.01 153.04 88.05 152.36 88.27 151.29 C 88.49 150.23 87.81 149.19 86.75 148.97 L 86.15 148.84 C 85.09 148.62 84.05 149.31 83.83 150.37 C 83.60 151.43 84.29 152.48 85.35 152.70 Z M 86.06 152.85 L 87.03 152.98 C 88.10 153.14 89.10 152.39 89.26 151.31 C 89.41 150.23 88.67 149.23 87.59 149.08 L 86.63 148.94 C 85.55 148.78 84.55 149.53 84.39 150.61 C 84.24 151.69 84.99 152.69 86.06 152.85 Z M 87.08 153.00 L 88.32 153.14 C 89.41 153.26 90.39 152.48 90.51 151.40 C 90.64 150.31 89.86 149.33 88.77 149.21 L 87.53 149.06 C 86.44 148.94 85.46 149.72 85.34 150.81 C 85.21 151.89 85.99 152.87 87.08 153.00 Z M 88.36 153.15 L 89.79 153.28 C 90.88 153.39 91.85 152.58 91.96 151.49 C 92.06 150.40 91.26 149.43 90.16 149.33 L 88.73 149.20 C 87.64 149.09 86.67 149.90 86.57 150.99 C 86.47 152.08 87.27 153.05 88.36 153.15 Z M 89.83 153.29 L 91.20 153.40 C 92.29 153.48 93.25 152.66 93.34 151.57 C 93.42 150.47 92.60 149.51 91.50 149.43 L 90.13 149.32 C 89.03 149.24 88.08 150.06 87.99 151.15 C 87.91 152.25 88.73 153.21 89.83 153.29 Z M 91.22 153.40 L 92.24 153.47 C 93.34 153.54 94.29 152.70 94.36 151.60 C 94.42 150.50 93.59 149.56 92.49 149.49 L 91.48 149.42 C 90.38 149.35 89.43 150.19 89.36 151.29 C 89.29 152.39 90.13 153.33 91.22 153.40 Z M 92.26 153.47 L 93.29 153.52 C 94.38 153.58 95.32 152.74 95.38 151.64 C 95.44 150.54 94.60 149.60 93.50 149.54 L 92.47 149.49 C 91.37 149.43 90.43 150.27 90.37 151.37 C 90.32 152.47 91.16 153.41 92.26 153.47 Z M 93.30 153.52 L 94.33 153.57 C 95.43 153.62 96.36 152.77 96.41 151.67 C 96.46 150.57 95.61 149.64 94.51 149.59 L 93.48 149.54 C 92.38 149.49 91.45 150.34 91.40 151.44 C 91.35 152.54 92.20 153.47 93.30 153.52 Z M 94.35 153.57 L 95.37 153.61 C 96.47 153.65 97.40 152.79 97.44 151.69 C 97.48 150.59 96.62 149.66 95.52 149.62 L 94.50 149.58 C 93.40 149.54 92.47 150.40 92.43 151.50 C 92.39 152.60 93.25 153.53 94.35 153.57 Z M 95.39 153.61 L 96.41 153.64 C 97.51 153.68 98.43 152.81 98.46 151.71 C 98.50 150.61 97.63 149.69 96.53 149.65 L 95.51 149.62 C 94.41 149.59 93.49 150.45 93.45 151.55 C 93.42 152.66 94.29 153.58 95.39 153.61 Z M 96.42 153.64 L 97.42 153.67 C 98.52 153.70 99.44 152.83 99.47 151.73 C 99.49 150.62 98.62 149.71 97.52 149.68 L 96.52 149.65 C 95.42 149.63 94.50 150.50 94.47 151.60 C 94.44 152.70 95.31 153.62 96.42 153.64 Z M 97.43 153.67 L 98.41 153.69 C 99.51 153.71 100.42 152.84 100.45 151.74 C 100.47 150.63 99.60 149.72 98.49 149.70 L 97.51 149.68 C 96.41 149.66 95.50 150.53 95.47 151.63 C 95.45 152.73 96.33 153.65 97.43 153.67 Z M 98.42 153.69 L 99.37 153.71 C 100.47 153.73 101.38 152.85 101.40 151.75 C 101.42 150.64 100.54 149.73 99.44 149.71 L 98.49 149.70 C 97.38 149.68 96.47 150.56 96.46 151.66 C 96.44 152.76 97.31 153.67 98.42 153.69 Z M 99.38 153.71 L 100.34 153.72 C 101.44 153.74 102.35 152.86 102.36 151.75 C 102.38 150.65 101.50 149.74 100.39 149.73 L 99.43 149.71 C 98.33 149.70 97.42 150.58 97.41 151.68 C 97.39 152.79 98.27 153.69 99.38 153.71 Z M 100.34 153.72 L 101.45 153.73 C 102.55 153.75 103.46 152.86 103.47 151.76 C 103.48 150.66 102.60 149.75 101.50 149.74 L 100.39 149.73 C 99.29 149.72 98.38 150.60 98.37 151.70 C 98.36 152.80 99.24 153.71 100.34 153.72 Z M 101.46 153.73 L 102.51 153.74 C 103.61 153.75 104.52 152.87 104.53 151.76 C 104.53 150.66 103.65 149.76 102.55 149.75 L 101.49 149.74 C 100.39 149.73 99.49 150.62 99.48 151.72 C 99.47 152.82 100.35 153.72 101.46 153.73 Z M 102.52 153.74 L 103.53 153.75 C 104.63 153.76 105.53 152.87 105.54 151.76 C 105.54 150.66 104.65 149.76 103.55 149.76 L 102.54 149.75 C 101.44 149.74 100.54 150.63 100.53 151.73 C 100.52 152.84 101.41 153.74 102.52 153.74 Z M 103.53 153.75 L 104.51 153.75 C 105.61 153.76 106.51 152.87 106.51 151.76 C 106.52 150.66 105.63 149.76 104.52 149.76 L 103.55 149.76 C 102.44 149.75 101.55 150.64 101.54 151.74 C 101.54 152.85 102.43 153.75 103.53 153.75 Z M 104.51 153.75 L 105.47 153.76 C 106.57 153.76 107.47 152.86 107.47 151.76 C 107.47 150.66 106.58 149.76 105.47 149.76 L 104.52 149.76 C 103.42 149.76 102.52 150.65 102.52 151.75 C 102.52 152.86 103.41 153.75 104.51 153.75 Z M 105.47 153.76 L 106.41 153.76 C 107.51 153.76 108.41 152.86 108.41 151.76 C 108.41 150.66 107.51 149.76 106.41 149.76 L 105.47 149.76 C 104.37 149.76 103.47 150.65 103.47 151.76 C 103.47 152.86 104.37 153.75 105.47 153.76 Z M 106.41 153.76 L 107.34 153.76 C 108.44 153.76 109.34 152.86 109.34 151.76 C 109.34 150.66 108.45 149.76 107.34 149.76 L 106.41 149.76 C 105.31 149.76 104.41 150.66 104.41 151.76 C 104.41 152.86 105.31 153.76 106.41 153.76 Z M 107.34 153.76 L 108.32 153.76 C 109.42 153.76 110.31 152.86 110.31 151.76 C 110.31 150.66 109.42 149.76 108.32 149.76 L 107.34 149.76 C 106.24 149.76 105.35 150.66 105.35 151.76 C 105.35 152.86 106.24 153.76 107.34 153.76 Z M 108.32 153.76 L 109.30 153.76 C 110.40 153.76 111.30 152.86 111.30 151.76 C 111.30 150.66 110.40 149.76 109.30 149.76 L 108.32 149.76 C 107.21 149.76 106.32 150.66 106.32 151.76 C 106.32 152.86 107.21 153.76 108.32 153.76 Z M 109.30 153.76 L 110.29 153.76 C 111.39 153.76 112.28 152.86 112.28 151.76 C 112.28 150.66 111.39 149.76 110.29 149.76 L 109.30 149.76 C 108.20 149.76 107.30 150.66 107.30 151.76 C 107.30 152.86 108.20 153.76 109.30 153.76 Z M 110.29 153.76 L 111.29 153.76 C 112.39 153.76 113.28 152.86 113.28 151.76 C 113.28 150.66 112.39 149.76 111.29 149.76 L 110.29 149.76 C 109.18 149.76 108.29 150.66 108.29 151.76 C 108.29 152.86 109.18 153.76 110.29 153.76 Z M 111.29 153.76 L 112.29 153.76 C 113.40 153.76 114.29 152.86 114.29 151.76 C 114.29 150.66 113.40 149.76 112.29 149.76 L 111.29 149.76 C 110.18 149.76 109.29 150.66 109.29 151.76 C 109.29 152.86 110.18 153.76 111.29 153.76 Z M 112.29 153.76 L 113.31 153.76 C 114.41 153.76 115.31 152.86 115.31 151.76 C 115.31 150.66 114.41 149.76 113.31 149.76 L 112.29 149.76 C 111.19 149.76 110.30 150.66 110.30 151.76 C 110.30 152.86 111.19 153.76 112.29 153.76 Z M 113.31 153.76 L 114.34 153.76 C 115.44 153.76 116.34 152.86 116.34 151.76 C 116.34 150.66 115.44 149.76 114.34 149.76 L 113.31 149.76 C 112.21 149.76 111.31 150.66 111.31 151.76 C 111.31 152.86 112.21 153.76 113.31 153.76 Z M 114.34 153.76 L 115.32 153.76 C 116.42 153.76 117.32 152.86 117.32 151.76 C 117.32 150.66 116.42 149.76 115.32 149.76 L 114.34 149.76 C 113.24 149.76 112.34 150.66 112.34 151.76 C 112.34 152.86 113.24 153.76 114.34 153.76 Z M 115.32 153.76 L 116.31 153.76 C 117.41 153.76 118.31 152.86 118.31 151.76 C 118.31 150.66 117.41 149.76 116.31 149.76 L 115.32 149.76 C 114.22 149.76 113.32 150.66 113.32 151.76 C 113.32 152.86 114.22 153.76 115.32 153.76 Z M 116.31 153.75 L 117.31 153.75 C 118.41 153.75 119.31 152.86 119.31 151.76 C 119.31 150.66 118.41 149.76 117.31 149.76 L 116.31 149.76 C 115.21 149.76 114.32 150.66 114.32 151.76 C 114.32 152.86 115.21 153.75 116.31 153.75 Z M 117.31 153.75 L 118.32 153.75 C 119.42 153.75 120.31 152.86 120.31 151.76 C 120.31 150.66 119.42 149.76 118.32 149.76 L 117.31 149.76 C 116.21 149.76 115.31 150.66 115.31 151.76 C 115.31 152.86 116.21 153.75 117.31 153.75 Z M 118.32 153.75 L 119.32 153.75 C 120.43 153.75 121.32 152.86 121.32 151.76 C 121.32 150.66 120.43 149.76 119.32 149.76 L 118.32 149.76 C 117.21 149.76 116.32 150.66 116.32 151.76 C 116.32 152.86 117.21 153.75 118.32 153.75 Z M 119.32 153.75 L 120.33 153.75 C 121.43 153.75 122.33 152.86 122.33 151.76 C 122.33 150.66 121.43 149.76 120.33 149.76 L 119.32 149.76 C 118.22 149.76 117.33 150.66 117.33 151.76 C 117.33 152.86 118.22 153.75 119.32 153.75 Z M 120.33 153.75 L 121.34 153.75 C 122.44 153.75 123.33 152.86 123.33 151.76 C 123.33 150.66 122.44 149.76 121.34 149.76 L 120.33 149.76 C 119.23 149.76 118.34 150.66 118.34 151.76 C 118.34 152.86 119.23 153.75 120.33 153.75 Z M 121.34 153.75 L 122.35 153.75 C 123.45 153.75 124.35 152.86 124.35 151.76 C 124.35 150.66 123.45 149.76 122.35 149.76 L 121.34 149.76 C 120.24 149.76 119.34 150.66 119.34 151.76 C 119.34 152.86 120.24 153.75 121.34 153.75 Z M 122.35 153.75 L 123.36 153.75 C 124.46 153.75 125.35 152.86 125.35 151.76 C 125.35 150.66 124.46 149.76 123.36 149.76 L 122.35 149.76 C 121.25 149.76 120.36 150.66 120.36 151.76 C 120.36 152.86 121.25 153.75 122.35 153.75 Z M 123.36 153.75 L 124.37 153.75 C 125.47 153.75 126.36 152.86 126.36 151.76 C 126.36 150.66 125.47 149.77 124.37 149.77 L 123.36 149.77 C 122.26 149.77 121.37 150.66 121.37 151.76 C 121.37 152.86 122.26 153.75 123.36 153.75 Z M 124.37 153.75 L 125.37 153.75 C 126.47 153.75 127.36 152.86 127.36 151.76 C 127.36 150.66 126.47 149.77 125.37 149.77 L 124.37 149.77 C 123.27 149.77 122.37 150.66 122.37 151.76 C 122.37 152.86 123.27 153.75 124.37 153.75 Z M 125.37 153.75 L 126.37 153.75 C 127.47 153.75 128.36 152.86 128.36 151.76 C 128.36 150.66 127.47 149.77 126.37 149.77 L 125.37 149.77 C 124.27 149.77 123.38 150.66 123.38 151.76 C 123.38 152.86 124.27 153.75 125.37 153.75 Z M 126.37 153.75 L 127.36 153.75 C 128.46 153.75 129.35 152.86 129.35 151.76 C 129.35 150.66 128.46 149.77 127.36 149.77 L 126.37 149.77 C 125.27 149.77 124.38 150.66 124.38 151.76 C 124.38 152.86 125.27 153.75 126.37 153.75 Z M 127.36 153.75 L 128.35 153.75 C 129.45 153.75 130.34 152.86 130.34 151.76 C 130.34 150.66 129.45 149.77 128.35 149.77 L 127.36 149.77 C 126.26 149.77 125.37 150.66 125.37 151.76 C 125.37 152.86 126.26 153.75 127.36 153.75 Z M 128.35 153.75 L 129.35 153.75 C 130.45 153.75 131.34 152.86 131.34 151.76 C 131.34 150.66 130.45 149.77 129.35 149.77 L 128.35 149.77 C 127.25 149.77 126.36 150.66 126.36 151.76 C 126.36 152.86 127.25 153.75 128.35 153.75 Z M 129.35 153.75 L 130.36 153.75 C 131.46 153.75 132.35 152.85 132.35 151.76 C 132.35 150.66 131.45 149.77 130.36 149.77 L 129.35 149.77 C 128.25 149.77 127.36 150.66 127.36 151.76 C 127.36 152.86 128.25 153.75 129.35 153.75 Z M 130.36 153.74 L 131.37 153.74 C 132.47 153.74 133.35 152.85 133.35 151.75 C 133.35 150.65 132.46 149.77 131.36 149.77 L 130.35 149.77 C 129.26 149.77 128.37 150.67 128.37 151.76 C 128.37 152.86 129.27 153.75 130.36 153.74 Z M 131.38 153.74 L 132.38 153.74 C 133.48 153.73 134.36 152.84 134.35 151.74 C 134.35 150.64 133.45 149.76 132.36 149.76 L 131.35 149.77 C 130.26 149.78 129.37 150.67 129.38 151.77 C 129.39 152.86 130.28 153.75 131.38 153.74 Z M 132.39 153.73 L 133.39 153.72 C 134.48 153.71 135.36 152.82 135.35 151.72 C 135.34 150.63 134.44 149.75 133.35 149.76 L 132.35 149.77 C 131.25 149.78 130.37 150.67 130.38 151.77 C 130.39 152.87 131.29 153.75 132.39 153.73 Z M 133.40 153.72 L 134.39 153.71 C 135.49 153.69 136.36 152.79 136.34 151.69 C 136.33 150.60 135.42 149.73 134.33 149.74 L 133.34 149.76 C 132.24 149.77 131.37 150.68 131.38 151.77 C 131.40 152.87 132.30 153.74 133.40 153.72 Z M 134.40 153.71 L 135.39 153.68 C 136.49 153.66 137.35 152.75 137.33 151.66 C 137.31 150.56 136.40 149.70 135.30 149.72 L 134.31 149.74 C 133.22 149.77 132.35 150.68 132.38 151.77 C 132.40 152.86 133.31 153.73 134.40 153.71 Z M 135.41 153.68 L 136.40 153.65 C 137.49 153.62 138.35 152.70 138.32 151.61 C 138.28 150.52 137.37 149.66 136.28 149.69 L 135.29 149.72 C 134.19 149.76 133.34 150.67 133.37 151.76 C 133.40 152.86 134.32 153.72 135.41 153.68 Z M 136.42 153.65 L 137.41 153.61 C 138.50 153.57 139.35 152.65 139.30 151.55 C 139.26 150.46 138.34 149.61 137.25 149.66 L 136.26 149.70 C 135.17 149.74 134.32 150.66 134.36 151.75 C 134.40 152.84 135.32 153.69 136.42 153.65 Z M 137.42 153.61 L 138.41 153.56 C 139.50 153.51 140.34 152.58 140.29 151.49 C 140.24 150.40 139.31 149.56 138.22 149.61 L 137.23 149.66 C 136.14 149.71 135.30 150.64 135.35 151.73 C 135.41 152.82 136.33 153.66 137.42 153.61 Z M 138.43 153.56 L 139.42 153.50 C 140.50 153.44 141.34 152.51 141.28 151.42 C 141.22 150.33 140.29 149.50 139.20 149.56 L 138.21 149.61 C 137.12 149.68 136.28 150.61 136.35 151.69 C 136.41 152.78 137.34 153.62 138.43 153.56 Z M 139.43 153.50 L 140.42 153.44 C 141.51 153.37 142.34 152.43 142.27 151.35 C 142.20 150.26 141.27 149.43 140.18 149.50 L 139.18 149.56 C 138.10 149.63 137.27 150.57 137.34 151.65 C 137.41 152.74 138.34 153.57 139.43 153.50 Z M 140.44 153.43 L 141.44 153.37 C 142.52 153.29 143.34 152.35 143.27 151.27 C 143.20 150.18 142.26 149.36 141.17 149.44 L 140.17 149.50 C 139.08 149.58 138.26 150.52 138.34 151.60 C 138.41 152.69 139.35 153.51 140.44 153.43 Z M 141.45 153.36 L 142.46 153.29 C 143.54 153.21 144.36 152.27 144.28 151.19 C 144.20 150.10 143.26 149.29 142.17 149.37 L 141.16 149.44 C 140.08 149.52 139.26 150.46 139.34 151.54 C 139.42 152.63 140.36 153.44 141.45 153.36 Z M 142.46 153.29 L 143.48 153.21 C 144.56 153.13 145.37 152.18 145.29 151.10 C 145.20 150.02 144.26 149.21 143.18 149.29 L 142.17 149.37 C 141.08 149.45 140.27 150.40 140.36 151.48 C 140.44 152.56 141.38 153.37 142.46 153.29 Z M 143.48 153.21 L 144.49 153.13 C 145.57 153.04 146.37 152.09 146.29 151.01 C 146.20 149.93 145.26 149.13 144.18 149.21 L 143.17 149.29 C 142.09 149.38 141.28 150.33 141.37 151.41 C 141.46 152.49 142.40 153.29 143.48 153.21 Z M 144.49 153.12 L 145.50 153.04 C 146.58 152.95 147.38 152.00 147.30 150.93 C 147.21 149.85 146.26 149.04 145.18 149.13 L 144.17 149.22 C 143.09 149.31 142.29 150.25 142.38 151.33 C 142.47 152.41 143.42 153.21 144.49 153.12 Z M 145.51 153.04 L 146.52 152.95 C 147.60 152.86 148.39 151.91 148.30 150.83 C 148.21 149.76 147.26 148.96 146.19 149.05 L 145.18 149.14 C 144.10 149.23 143.30 150.18 143.39 151.25 C 143.49 152.33 144.43 153.13 145.51 153.04 Z M 146.53 152.95 L 147.53 152.86 C 148.61 152.76 149.40 151.81 149.30 150.74 C 149.21 149.67 148.26 148.87 147.19 148.97 L 146.18 149.05 C 145.11 149.15 144.31 150.10 144.41 151.17 C 144.50 152.25 145.45 153.04 146.53 152.95 Z M 147.54 152.85 L 148.53 152.76 C 149.60 152.67 150.39 151.72 150.30 150.64 C 150.20 149.57 149.25 148.78 148.18 148.88 L 147.18 148.97 C 146.11 149.07 145.32 150.02 145.42 151.09 C 145.51 152.16 146.46 152.95 147.54 152.85 Z M 148.53 152.76 L 149.51 152.67 C 150.58 152.57 151.37 151.62 151.27 150.55 C 151.17 149.48 150.22 148.69 149.15 148.79 L 148.17 148.88 C 147.10 148.98 146.31 149.93 146.41 151.00 C 146.51 152.07 147.46 152.86 148.53 152.76 Z M 149.52 152.67 L 150.50 152.57 C 151.57 152.47 152.35 151.52 152.25 150.45 C 152.15 149.38 151.20 148.60 150.13 148.70 L 149.15 148.79 C 148.08 148.90 147.29 149.85 147.40 150.92 C 147.50 151.98 148.45 152.77 149.52 152.67 Z M 150.50 152.57 L 151.55 152.46 C 152.61 152.36 153.39 151.41 153.29 150.34 C 153.18 149.28 152.23 148.50 151.16 148.60 L 150.12 148.70 C 149.06 148.81 148.28 149.76 148.38 150.83 C 148.49 151.89 149.44 152.67 150.50 152.57 Z M 151.55 152.46 L 152.57 152.36 C 153.63 152.25 154.40 151.30 154.30 150.24 C 154.19 149.17 153.24 148.40 152.18 148.50 L 151.16 148.61 C 150.10 148.72 149.32 149.66 149.43 150.73 C 149.54 151.79 150.49 152.57 151.55 152.46 Z M 152.57 152.35 L 153.56 152.25 C 154.62 152.14 155.40 151.19 155.29 150.13 C 155.18 149.07 154.23 148.30 153.17 148.41 L 152.17 148.51 C 151.11 148.62 150.34 149.57 150.45 150.63 C 150.56 151.69 151.51 152.46 152.57 152.35 Z M 153.57 152.24 L 154.55 152.14 C 155.60 152.03 156.37 151.08 156.26 150.02 C 156.15 148.97 155.20 148.20 154.14 148.31 L 153.16 148.41 C 152.11 148.52 151.34 149.47 151.45 150.53 C 151.56 151.59 152.51 152.35 153.57 152.24 Z M 154.55 152.13 L 155.52 152.03 C 156.57 151.92 157.33 150.97 157.22 149.92 C 157.11 148.86 156.16 148.10 155.11 148.21 L 154.14 148.31 C 153.09 148.43 152.32 149.37 152.44 150.43 C 152.55 151.48 153.49 152.25 154.55 152.13 Z M 155.52 152.03 L 156.48 151.92 C 157.53 151.81 158.29 150.87 158.18 149.81 C 158.07 148.76 157.12 148.00 156.07 148.11 L 155.11 148.22 C 154.06 148.33 153.30 149.27 153.41 150.33 C 153.52 151.38 154.47 152.14 155.52 152.03 Z M 156.48 151.92 L 157.47 151.81 C 158.52 151.70 159.28 150.76 159.17 149.71 C 159.05 148.66 158.11 147.90 157.06 148.01 L 156.07 148.12 C 155.02 148.23 154.26 149.17 154.38 150.22 C 154.49 151.27 155.43 152.03 156.48 151.92 Z M 157.47 151.81 L 158.47 151.70 C 159.51 151.59 160.27 150.65 160.16 149.60 C 160.05 148.56 159.11 147.80 158.06 147.91 L 157.06 148.02 C 156.02 148.13 155.26 149.07 155.37 150.12 C 155.49 151.16 156.42 151.92 157.47 151.81 Z M 158.47 151.69 L 159.47 151.58 C 160.51 151.47 161.26 150.54 161.15 149.50 C 161.04 148.45 160.10 147.70 159.06 147.81 L 158.06 147.92 C 157.02 148.03 156.27 148.97 156.38 150.01 C 156.49 151.05 157.43 151.80 158.47 151.69 Z M 159.47 151.58 L 160.46 151.47 C 161.50 151.36 162.25 150.43 162.14 149.39 C 162.03 148.35 161.09 147.60 160.06 147.71 L 159.06 147.82 C 158.02 147.93 157.27 148.86 157.38 149.90 C 157.49 150.94 158.43 151.69 159.47 151.58 Z M 160.46 151.46 L 161.45 151.36 C 162.49 151.25 163.24 150.32 163.12 149.28 C 163.01 148.25 162.08 147.50 161.05 147.61 L 160.06 147.72 C 159.02 147.83 158.27 148.76 158.38 149.79 C 158.50 150.83 159.43 151.58 160.46 151.46 Z M 161.45 151.35 L 162.44 151.24 C 163.47 151.13 164.22 150.21 164.10 149.17 C 163.99 148.14 163.07 147.40 162.03 147.51 L 161.05 147.62 C 160.02 147.73 159.27 148.65 159.38 149.69 C 159.49 150.72 160.42 151.46 161.45 151.35 Z M 162.44 151.24 L 163.44 151.13 C 164.47 151.02 165.21 150.09 165.10 149.06 C 164.99 148.04 164.06 147.29 163.03 147.41 L 162.03 147.52 C 161.01 147.63 160.26 148.55 160.38 149.58 C 160.49 150.61 161.41 151.35 162.44 151.24 Z M 163.44 151.12 L 164.45 151.01 C 165.47 150.90 166.21 149.98 166.10 148.96 C 165.98 147.93 165.06 147.19 164.04 147.30 L 163.03 147.41 C 162.01 147.53 161.27 148.45 161.38 149.47 C 161.50 150.49 162.42 151.23 163.44 151.12 Z M 164.44 151.00 L 165.44 150.89 C 166.46 150.78 167.20 149.87 167.09 148.85 C 166.98 147.83 166.06 147.09 165.04 147.20 L 164.04 147.31 C 163.02 147.42 162.29 148.34 162.40 149.36 C 162.51 150.38 163.42 151.11 164.44 151.00 Z M 165.44 150.89 L 166.43 150.78 C 167.45 150.67 168.18 149.76 168.08 148.75 C 167.97 147.73 167.06 147.00 166.04 147.11 L 165.05 147.21 C 164.03 147.32 163.30 148.23 163.41 149.24 C 163.51 150.26 164.42 150.99 165.44 150.89 Z M 166.43 150.77 L 167.41 150.67 C 168.42 150.57 169.16 149.66 169.06 148.65 C 168.95 147.64 168.05 146.91 167.04 147.01 L 166.05 147.11 C 165.04 147.22 164.30 148.12 164.41 149.13 C 164.51 150.14 165.41 150.88 166.43 150.77 Z M 167.41 150.67 L 168.39 150.57 C 169.39 150.47 170.13 149.57 170.03 148.56 C 169.93 147.56 169.03 146.82 168.03 146.92 L 167.04 147.02 C 166.04 147.12 165.30 148.02 165.40 149.02 C 165.50 150.03 166.40 150.76 167.41 150.67 Z M 168.38 150.56 L 169.38 150.47 C 170.38 150.37 171.12 149.48 171.02 148.48 C 170.93 147.48 170.04 146.74 169.04 146.84 L 168.04 146.93 C 167.03 147.02 166.30 147.91 166.39 148.91 C 166.48 149.92 167.37 150.65 168.38 150.56 Z M 169.37 150.46 L 170.37 150.37 C 171.37 150.28 172.11 149.40 172.02 148.40 C 171.93 147.40 171.05 146.67 170.05 146.75 L 169.05 146.84 C 168.05 146.93 167.31 147.81 167.40 148.81 C 167.49 149.81 168.37 150.55 169.37 150.46 Z M 170.37 150.36 L 171.37 150.28 C 172.36 150.19 173.10 149.32 173.02 148.33 C 172.93 147.33 172.06 146.59 171.06 146.68 L 170.06 146.76 C 169.07 146.85 168.33 147.72 168.41 148.71 C 168.50 149.71 169.37 150.45 170.37 150.36 Z M 171.36 150.27 L 172.36 150.19 C 173.35 150.11 174.08 149.24 174.00 148.25 C 173.92 147.26 173.06 146.52 172.07 146.60 L 171.07 146.69 C 170.08 146.77 169.34 147.63 169.42 148.62 C 169.50 149.61 170.37 150.35 171.36 150.27 Z M 172.35 150.18 L 173.34 150.10 C 174.33 150.02 175.06 149.16 174.98 148.18 C 174.90 147.19 174.04 146.46 173.06 146.54 L 172.07 146.61 C 171.08 146.69 170.35 147.55 170.43 148.54 C 170.51 149.52 171.37 150.26 172.35 150.18 Z M 173.34 150.09 L 174.32 150.02 C 175.30 149.94 176.03 149.08 175.96 148.10 C 175.88 147.12 175.02 146.39 174.04 146.47 L 173.06 146.54 C 172.08 146.62 171.35 147.48 171.42 148.46 C 171.50 149.44 172.36 150.17 173.34 150.09 Z M 174.32 150.01 L 175.31 149.93 C 176.28 149.85 177.01 149.00 176.93 148.03 C 176.86 147.05 176.00 146.32 175.03 146.40 L 174.04 146.48 C 173.07 146.55 172.34 147.41 172.42 148.38 C 172.49 149.36 173.34 150.08 174.32 150.01 Z M 175.31 149.92 L 176.29 149.84 C 177.26 149.77 177.99 148.92 177.91 147.95 C 177.83 146.98 176.99 146.25 176.02 146.33 L 175.03 146.41 C 174.06 146.48 173.33 147.33 173.41 148.30 C 173.49 149.27 174.34 150.00 175.31 149.92 Z M 176.29 149.83 L 177.28 149.76 C 178.24 149.68 178.96 148.84 178.89 147.87 C 178.81 146.91 177.97 146.19 177.00 146.26 L 176.02 146.34 C 175.05 146.41 174.33 147.26 174.41 148.22 C 174.48 149.19 175.33 149.91 176.29 149.83 Z M 177.28 149.75 L 178.27 149.67 C 179.23 149.59 179.95 148.76 179.87 147.80 C 179.80 146.84 178.96 146.12 178.00 146.19 L 177.01 146.27 C 176.05 146.35 175.33 147.18 175.40 148.14 C 175.48 149.10 176.32 149.82 177.28 149.75 Z M 178.27 149.66 L 179.28 149.58 C 180.23 149.51 180.95 148.68 180.87 147.72 C 180.80 146.76 179.96 146.05 179.01 146.12 L 178.00 146.20 C 177.05 146.28 176.33 147.11 176.41 148.06 C 176.48 149.02 177.31 149.73 178.27 149.66 Z M 179.27 149.57 L 180.27 149.50 C 181.22 149.43 181.94 148.60 181.86 147.65 C 181.79 146.70 180.96 145.98 180.01 146.06 L 179.01 146.13 C 178.06 146.20 177.35 147.03 177.42 147.98 C 177.49 148.93 178.32 149.65 179.27 149.57 Z M 180.27 149.49 L 181.18 149.42 C 182.13 149.35 182.84 148.53 182.77 147.58 C 182.70 146.64 181.87 145.93 180.93 146.00 L 180.02 146.07 C 179.07 146.14 178.36 146.96 178.43 147.90 C 178.50 148.85 179.32 149.56 180.27 149.49 Z M 181.18 149.41 L 182.12 149.35 C 183.06 149.28 183.77 148.46 183.70 147.52 C 183.63 146.58 182.81 145.87 181.87 145.94 L 180.93 146.01 C 179.99 146.07 179.28 146.89 179.35 147.83 C 179.42 148.77 180.24 149.48 181.18 149.41 Z M 182.11 149.34 L 183.08 149.27 C 184.02 149.20 184.72 148.39 184.66 147.45 C 184.59 146.52 183.78 145.81 182.84 145.88 L 181.87 145.94 C 180.94 146.01 180.23 146.82 180.30 147.76 C 180.36 148.70 181.18 149.40 182.11 149.34 Z M 183.08 149.26 L 184.08 149.19 C 185.01 149.13 185.72 148.32 185.65 147.39 C 185.59 146.46 184.78 145.75 183.85 145.82 L 182.85 145.88 C 181.91 145.95 181.21 146.76 181.27 147.69 C 181.34 148.62 182.14 149.33 183.08 149.26 Z M 184.07 149.19 L 185.12 149.12 C 186.05 149.06 186.75 148.26 186.69 147.33 C 186.63 146.40 185.83 145.70 184.90 145.76 L 183.86 145.82 C 182.93 145.88 182.22 146.69 182.28 147.61 C 182.34 148.54 183.15 149.25 184.07 149.19 Z M 185.11 149.11 L 186.21 149.04 C 187.13 148.99 187.84 148.19 187.78 147.27 C 187.72 146.34 186.93 145.64 186.00 145.70 L 184.91 145.76 C 183.98 145.82 183.28 146.62 183.34 147.54 C 183.40 148.47 184.19 149.17 185.11 149.11 Z M 186.21 149.04 L 187.22 148.98 C 188.14 148.92 188.84 148.13 188.78 147.21 C 188.73 146.29 187.94 145.59 187.02 145.64 L 186.01 145.70 C 185.09 145.76 184.39 146.55 184.44 147.47 C 184.50 148.39 185.29 149.09 186.21 149.04 Z M 187.21 148.97 L 188.20 148.91 C 189.11 148.86 189.82 148.08 189.76 147.16 C 189.71 146.24 188.93 145.54 188.01 145.59 L 187.02 145.65 C 186.11 145.70 185.41 146.49 185.46 147.40 C 185.51 148.32 186.30 149.02 187.21 148.97 Z M 188.19 148.91 L 189.20 148.85 C 190.12 148.80 190.82 148.02 190.77 147.11 C 190.72 146.20 189.94 145.50 189.03 145.55 L 188.02 145.60 C 187.10 145.65 186.40 146.43 186.45 147.34 C 186.50 148.26 187.28 148.96 188.19 148.91 Z M 189.20 148.85 L 190.22 148.79 C 191.13 148.75 191.83 147.97 191.78 147.06 C 191.74 146.15 190.96 145.45 190.05 145.50 L 189.03 145.55 C 188.12 145.60 187.42 146.37 187.47 147.28 C 187.51 148.19 188.29 148.89 189.20 148.85 Z M 190.21 148.79 L 191.24 148.74 C 192.14 148.70 192.84 147.93 192.80 147.02 C 192.76 146.12 191.99 145.42 191.08 145.46 L 190.06 145.51 C 189.15 145.55 188.45 146.32 188.50 147.22 C 188.54 148.13 189.31 148.83 190.21 148.79 Z M 191.23 148.73 L 192.25 148.69 C 193.15 148.65 193.85 147.89 193.81 146.98 C 193.77 146.08 193.01 145.38 192.10 145.42 L 191.09 145.47 C 190.19 145.50 189.49 146.27 189.53 147.17 C 189.56 148.07 190.33 148.77 191.23 148.73 Z M 192.24 148.68 L 193.24 148.64 C 194.14 148.61 194.84 147.85 194.80 146.95 C 194.77 146.05 194.01 145.35 193.11 145.39 L 192.11 145.43 C 191.21 145.46 190.51 146.22 190.55 147.12 C 190.58 148.02 191.34 148.72 192.24 148.68 Z M 193.23 148.64 L 194.20 148.61 C 195.09 148.58 195.79 147.83 195.76 146.93 C 195.73 146.03 194.98 145.33 194.09 145.36 L 193.12 145.40 C 192.22 145.43 191.52 146.18 191.55 147.07 C 191.58 147.97 192.33 148.67 193.23 148.64 Z M 194.19 148.61 L 195.27 148.58 C 196.17 148.55 196.87 147.81 196.85 146.91 C 196.82 146.02 196.08 145.31 195.18 145.33 L 194.10 145.36 C 193.20 145.39 192.49 146.13 192.52 147.03 C 192.54 147.92 193.29 148.63 194.19 148.61 Z M 195.26 148.59 L 196.31 148.57 C 197.21 148.55 197.93 147.80 197.91 146.90 C 197.89 146.00 197.15 145.28 196.25 145.30 L 195.19 145.32 C 194.29 145.34 193.57 146.09 193.59 146.99 C 193.61 147.89 194.36 148.61 195.26 148.59 Z M 196.30 148.58 L 197.31 148.57 C 198.22 148.55 198.95 147.81 198.94 146.90 C 198.92 145.99 198.18 145.26 197.27 145.28 L 196.26 145.29 C 195.35 145.30 194.62 146.05 194.63 146.96 C 194.65 147.86 195.39 148.59 196.30 148.58 Z M 197.30 148.58 L 198.29 148.57 C 199.20 148.56 199.94 147.81 199.93 146.90 C 199.92 145.99 199.17 145.25 198.26 145.26 L 197.28 145.27 C 196.36 145.27 195.63 146.02 195.64 146.93 C 195.64 147.85 196.39 148.58 197.30 148.58 Z M 198.28 148.58 L 199.24 148.58 C 200.16 148.57 200.90 147.82 200.90 146.90 C 200.90 145.98 200.15 145.24 199.23 145.24 L 198.27 145.25 C 197.35 145.25 196.60 146.00 196.61 146.92 C 196.61 147.84 197.36 148.58 198.28 148.58 Z M 199.23 148.59 L 200.18 148.59 C 201.11 148.58 201.86 147.83 201.85 146.91 C 201.85 145.98 201.10 145.23 200.17 145.23 L 199.23 145.23 C 198.30 145.23 197.55 145.98 197.55 146.91 C 197.56 147.84 198.31 148.59 199.23 148.59 Z M 200.18 148.59 L 200.81 148.59 C 201.74 148.59 202.50 147.84 202.50 146.91 C 202.50 145.98 201.74 145.22 200.81 145.22 L 200.18 145.22 C 199.25 145.22 198.49 145.98 198.49 146.91 C 198.49 147.84 199.25 148.59 200.18 148.59 Z"
      fill="black"
      fill-rule="nonzero" /></svg>