<svg xmlns="http://www.w3.org/2000/svg" width="300" height="300" viewBox="0 0 300 300">
<path d="M 96.20 154.88 L 95.14 154.81 C 94.18 154.74 93.35 155.46 93.29 156.42 C 93.22 157.38 93.95 158.20 94.90 158.27 L 95.96 158.34 C 96.92 158.41 97.75 157.68 97.81 156.73 C 97.88 155.77 97.16 154.94 96.20 154.88 Z M 95.14 154.79 L 94.08 154.72 C 93.12 154.65 92.28 155.38 92.21 156.35 C 92.15 157.31 92.88 158.15 93.84 158.21 L 94.90 158.29 C 95.87 158.35 96.70 157.62 96.77 156.66 C 96.83 155.69 96.10 154.85 95.14 154.79 Z M 94.08 154.70 L 93.03 154.63 C 92.06 154.57 91.21 155.30 91.15 156.28 C 91.08 157.25 91.82 158.10 92.80 158.16 L 93.85 158.23 C 94.82 158.30 95.66 157.56 95.73 156.58 C 95.79 155.61 95.06 154.77 94.08 154.70 Z M 93.03 154.61 L 92.00 154.55 C 91.01 154.48 90.16 155.23 90.10 156.21 C 90.03 157.20 90.78 158.05 91.77 158.11 L 92.80 158.18 C 93.78 158.24 94.63 157.50 94.70 156.51 C 94.76 155.53 94.01 154.68 93.03 154.61 Z M 91.99 154.53 L 90.98 154.47 C 89.98 154.40 89.13 155.16 89.07 156.15 C 89.00 157.15 89.76 158.00 90.75 158.06 L 91.77 158.13 C 92.76 158.19 93.62 157.44 93.68 156.44 C 93.74 155.45 92.99 154.59 91.99 154.53 Z M 90.97 154.45 L 89.98 154.39 C 88.98 154.33 88.12 155.09 88.06 156.10 C 88.00 157.10 88.76 157.96 89.76 158.02 L 90.76 158.08 C 91.76 158.14 92.62 157.38 92.68 156.37 C 92.74 155.37 91.98 154.51 90.97 154.45 Z M 89.98 154.37 L 89.01 154.32 C 88.00 154.26 87.13 155.04 87.08 156.05 C 87.02 157.06 87.79 157.93 88.81 157.99 L 89.77 158.04 C 90.78 158.10 91.65 157.32 91.71 156.31 C 91.76 155.30 90.99 154.43 89.98 154.37 Z M 89.00 154.30 L 88.07 154.25 C 87.05 154.20 86.18 154.99 86.13 156.01 C 86.07 157.03 86.86 157.90 87.88 157.96 L 88.81 158.00 C 89.84 158.06 90.71 157.27 90.76 156.25 C 90.81 155.22 90.03 154.35 89.00 154.30 Z M 88.06 154.24 L 87.17 154.19 C 86.14 154.15 85.26 154.95 85.21 155.98 C 85.17 157.01 85.96 157.88 87.00 157.93 L 87.89 157.97 C 88.92 158.02 89.80 157.22 89.85 156.19 C 89.89 155.16 89.09 154.28 88.06 154.24 Z M 87.15 154.16 L 85.64 154.11 C 84.59 154.07 83.71 154.89 83.67 155.94 C 83.64 156.99 84.45 157.87 85.50 157.91 L 87.01 157.96 C 88.06 158.00 88.94 157.18 88.98 156.13 C 89.02 155.08 88.20 154.20 87.15 154.16 Z M 85.62 154.07 L 84.24 154.03 C 83.17 154.01 82.28 154.85 82.25 155.93 C 82.23 157.00 83.07 157.89 84.15 157.92 L 85.53 157.95 C 86.60 157.98 87.49 157.13 87.51 156.06 C 87.54 154.98 86.69 154.09 85.62 154.07 Z M 84.22 153.99 L 83.17 153.98 C 82.07 153.96 81.17 154.84 81.16 155.94 C 81.14 157.04 82.02 157.94 83.12 157.95 L 84.17 157.96 C 85.27 157.97 86.17 157.09 86.18 156.00 C 86.19 154.90 85.31 154.00 84.22 153.99 Z M 83.12 153.93 L 82.49 153.94 C 81.37 153.95 80.47 154.87 80.48 155.99 C 80.49 157.11 81.41 158.01 82.53 158.00 L 83.16 158.00 C 84.29 157.98 85.19 157.07 85.18 155.94 C 85.16 154.82 84.25 153.92 83.12 153.93 Z M 82.18 153.92 L 82.06 153.94 C 80.93 154.12 80.16 155.19 80.34 156.32 C 80.53 157.45 81.59 158.22 82.72 158.04 L 82.84 158.02 C 83.97 157.84 84.74 156.77 84.56 155.64 C 84.38 154.51 83.32 153.74 82.18 153.92 Z M 82.26 158.09 L 82.65 158.11 C 83.81 158.18 84.81 157.30 84.88 156.14 C 84.95 154.98 84.07 153.99 82.91 153.91 L 82.52 153.89 C 81.36 153.82 80.37 154.70 80.29 155.86 C 80.22 157.02 81.10 158.02 82.26 158.09 Z M 82.74 158.13 L 83.55 158.15 C 84.72 158.17 85.69 157.24 85.71 156.07 C 85.74 154.90 84.81 153.94 83.64 153.91 L 82.83 153.89 C 81.66 153.87 80.69 154.80 80.67 155.97 C 80.64 157.14 81.57 158.11 82.74 158.13 Z M 83.61 158.16 L 84.75 158.16 C 85.92 158.15 86.88 157.19 86.87 156.01 C 86.86 154.83 85.90 153.88 84.73 153.89 L 83.58 153.90 C 82.41 153.90 81.46 154.86 81.46 156.04 C 81.47 157.22 82.43 158.17 83.61 158.16 Z M 84.80 158.17 L 86.18 158.13 C 87.37 158.09 88.30 157.10 88.26 155.92 C 88.23 154.73 87.23 153.80 86.05 153.83 L 84.67 153.88 C 83.48 153.91 82.55 154.90 82.59 156.09 C 82.62 157.28 83.62 158.21 84.80 158.17 Z M 86.24 158.14 L 87.66 158.06 C 88.85 157.99 89.76 156.96 89.69 155.77 C 89.62 154.58 88.59 153.67 87.40 153.74 L 85.98 153.82 C 84.79 153.89 83.88 154.92 83.95 156.11 C 84.03 157.30 85.05 158.21 86.24 158.14 Z M 87.71 158.06 L 88.72 157.97 C 89.91 157.87 90.80 156.82 90.69 155.62 C 90.59 154.43 89.54 153.54 88.34 153.65 L 87.34 153.73 C 86.14 153.84 85.26 154.89 85.36 156.08 C 85.47 157.28 86.52 158.16 87.71 158.06 Z M 88.76 157.97 L 89.78 157.86 C 90.97 157.74 91.84 156.67 91.71 155.47 C 91.59 154.28 90.51 153.41 89.32 153.54 L 88.30 153.65 C 87.11 153.77 86.24 154.84 86.37 156.04 C 86.49 157.23 87.56 158.10 88.76 157.97 Z M 89.81 157.86 L 90.84 157.74 C 92.03 157.59 92.88 156.51 92.73 155.31 C 92.59 154.12 91.50 153.27 90.31 153.42 L 89.29 153.54 C 88.09 153.69 87.24 154.77 87.39 155.97 C 87.53 157.16 88.62 158.01 89.81 157.86 Z M 90.87 157.74 L 91.89 157.60 C 93.08 157.44 93.92 156.34 93.75 155.15 C 93.59 153.95 92.49 153.12 91.30 153.28 L 90.28 153.42 C 89.09 153.58 88.25 154.68 88.41 155.87 C 88.58 157.06 89.67 157.90 90.87 157.74 Z M 91.91 157.60 L 92.92 157.45 C 94.11 157.27 94.93 156.17 94.76 154.97 C 94.58 153.78 93.47 152.96 92.28 153.13 L 91.28 153.28 C 90.08 153.46 89.26 154.57 89.44 155.76 C 89.61 156.95 90.72 157.77 91.91 157.60 Z M 92.94 157.45 L 93.92 157.30 C 95.11 157.11 95.92 155.99 95.73 154.80 C 95.55 153.61 94.43 152.79 93.24 152.98 L 92.26 153.13 C 91.07 153.32 90.25 154.44 90.44 155.63 C 90.63 156.82 91.75 157.64 92.94 157.45 Z M 93.94 157.29 L 94.88 157.14 C 96.07 156.94 96.87 155.81 96.68 154.62 C 96.48 153.43 95.35 152.63 94.16 152.82 L 93.22 152.98 C 92.03 153.18 91.22 154.30 91.42 155.50 C 91.62 156.69 92.74 157.49 93.94 157.29 Z M 94.89 157.14 L 95.88 156.97 C 97.07 156.76 97.87 155.63 97.66 154.43 C 97.45 153.24 96.32 152.45 95.13 152.65 L 94.14 152.82 C 92.95 153.03 92.15 154.16 92.36 155.36 C 92.57 156.55 93.70 157.34 94.89 157.14 Z M 95.89 156.96 L 96.96 156.77 C 98.15 156.55 98.94 155.41 98.73 154.22 C 98.51 153.03 97.37 152.24 96.18 152.46 L 95.11 152.65 C 93.92 152.87 93.13 154.01 93.35 155.20 C 93.56 156.39 94.70 157.18 95.89 156.96 Z M 96.98 156.77 L 97.98 156.58 C 99.17 156.35 99.95 155.20 99.73 154.01 C 99.50 152.83 98.35 152.04 97.17 152.27 L 96.16 152.46 C 94.97 152.69 94.19 153.84 94.42 155.02 C 94.64 156.21 95.79 156.99 96.98 156.77 Z M 98.00 156.58 L 98.96 156.39 C 100.15 156.15 100.92 155.00 100.69 153.81 C 100.45 152.62 99.30 151.85 98.11 152.08 L 97.15 152.27 C 95.96 152.51 95.19 153.66 95.42 154.85 C 95.66 156.04 96.81 156.81 98.00 156.58 Z M 98.97 156.38 L 99.91 156.19 C 101.09 155.95 101.86 154.79 101.62 153.61 C 101.38 152.42 100.22 151.65 99.03 151.89 L 98.10 152.09 C 96.91 152.33 96.14 153.49 96.39 154.67 C 96.63 155.86 97.79 156.63 98.97 156.38 Z M 99.92 156.19 L 100.84 156.00 C 102.03 155.75 102.79 154.59 102.54 153.40 C 102.29 152.22 101.13 151.46 99.94 151.70 L 99.02 151.90 C 97.83 152.14 97.07 153.31 97.32 154.49 C 97.57 155.68 98.73 156.44 99.92 156.19 Z M 100.85 156.00 L 101.77 155.80 C 102.96 155.55 103.72 154.39 103.47 153.20 C 103.22 152.02 102.05 151.26 100.87 151.51 L 99.94 151.70 C 98.75 151.95 97.99 153.12 98.24 154.30 C 98.50 155.49 99.66 156.25 100.85 156.00 Z M 101.78 155.80 L 102.71 155.61 C 103.89 155.35 104.65 154.19 104.40 153.00 C 104.15 151.82 102.98 151.06 101.80 151.31 L 100.87 151.51 C 99.68 151.76 98.92 152.92 99.17 154.11 C 99.42 155.30 100.59 156.06 101.78 155.80 Z M 102.71 155.61 L 103.66 155.40 C 104.85 155.15 105.60 153.99 105.35 152.80 C 105.10 151.61 103.94 150.86 102.75 151.11 L 101.80 151.31 C 100.61 151.56 99.85 152.73 100.10 153.91 C 100.35 155.10 101.52 155.86 102.71 155.61 Z M 103.66 155.41 L 104.63 155.20 C 105.82 154.95 106.58 153.78 106.33 152.60 C 106.08 151.41 104.91 150.65 103.72 150.90 L 102.75 151.11 C 101.56 151.36 100.80 152.52 101.05 153.71 C 101.31 154.90 102.47 155.66 103.66 155.41 Z M 104.63 155.20 L 105.62 154.99 C 106.81 154.74 107.57 153.58 107.32 152.39 C 107.07 151.20 105.91 150.44 104.72 150.69 L 103.73 150.90 C 102.54 151.15 101.78 152.31 102.03 153.50 C 102.28 154.69 103.44 155.45 104.63 155.20 Z M 105.62 154.99 L 106.63 154.78 C 107.82 154.54 108.58 153.37 108.33 152.19 C 108.09 151.00 106.92 150.23 105.73 150.48 L 104.72 150.69 C 103.53 150.94 102.77 152.10 103.02 153.29 C 103.26 154.48 104.43 155.24 105.62 154.99 Z M 106.62 154.79 L 107.65 154.58 C 108.84 154.33 109.61 153.17 109.36 151.98 C 109.12 150.79 107.96 150.02 106.77 150.27 L 105.74 150.48 C 104.55 150.72 103.78 151.88 104.03 153.07 C 104.27 154.26 105.43 155.03 106.62 154.79 Z M 107.64 154.58 L 108.62 154.38 C 109.81 154.14 110.58 152.98 110.34 151.79 C 110.10 150.60 108.94 149.83 107.75 150.07 L 106.77 150.27 C 105.58 150.51 104.81 151.67 105.05 152.86 C 105.29 154.05 106.45 154.82 107.64 154.58 Z M 108.61 154.38 L 109.59 154.19 C 110.78 153.95 111.56 152.79 111.32 151.60 C 111.08 150.41 109.92 149.64 108.73 149.87 L 107.75 150.07 C 106.56 150.31 105.79 151.46 106.02 152.65 C 106.26 153.85 107.42 154.62 108.61 154.38 Z M 109.59 154.19 L 110.57 153.99 C 111.77 153.76 112.54 152.60 112.31 151.41 C 112.07 150.22 110.92 149.44 109.73 149.68 L 108.74 149.87 C 107.55 150.11 106.77 151.26 107.01 152.45 C 107.24 153.65 108.40 154.42 109.59 154.19 Z M 110.57 153.99 L 111.56 153.80 C 112.75 153.57 113.53 152.42 113.30 151.23 C 113.07 150.03 111.91 149.25 110.72 149.49 L 109.73 149.68 C 108.54 149.91 107.76 151.06 107.99 152.25 C 108.22 153.45 109.38 154.23 110.57 153.99 Z M 111.55 153.80 L 112.54 153.61 C 113.73 153.39 114.52 152.23 114.29 151.04 C 114.06 149.85 112.91 149.07 111.71 149.30 L 110.73 149.48 C 109.53 149.71 108.75 150.86 108.98 152.06 C 109.21 153.25 110.36 154.03 111.55 153.80 Z M 112.54 153.62 L 113.52 153.43 C 114.71 153.20 115.49 152.05 115.27 150.86 C 115.04 149.67 113.89 148.88 112.70 149.11 L 111.72 149.29 C 110.53 149.52 109.74 150.67 109.97 151.86 C 110.19 153.06 111.34 153.84 112.54 153.62 Z M 113.51 153.43 L 114.49 153.25 C 115.69 153.02 116.48 151.88 116.25 150.68 C 116.03 149.49 114.88 148.70 113.69 148.92 L 112.70 149.11 C 111.51 149.33 110.72 150.48 110.95 151.67 C 111.17 152.87 112.32 153.65 113.51 153.43 Z M 114.49 153.25 L 115.50 153.06 C 116.70 152.84 117.49 151.69 117.27 150.50 C 117.04 149.30 115.90 148.52 114.70 148.74 L 113.69 148.92 C 112.50 149.14 111.71 150.29 111.93 151.49 C 112.15 152.68 113.30 153.47 114.49 153.25 Z M 115.50 153.06 L 116.50 152.88 C 117.69 152.66 118.48 151.51 118.26 150.32 C 118.05 149.13 116.90 148.33 115.71 148.55 L 114.71 148.74 C 113.51 148.95 112.72 150.10 112.94 151.29 C 113.16 152.49 114.30 153.28 115.50 153.06 Z M 116.49 152.88 L 117.48 152.70 C 118.67 152.48 119.47 151.34 119.25 150.14 C 119.03 148.95 117.89 148.16 116.69 148.37 L 115.71 148.55 C 114.51 148.77 113.72 149.91 113.94 151.11 C 114.16 152.30 115.30 153.10 116.49 152.88 Z M 117.48 152.70 L 118.45 152.52 C 119.65 152.31 120.44 151.16 120.22 149.97 C 120.01 148.77 118.86 147.98 117.67 148.20 L 116.70 148.37 C 115.50 148.59 114.71 149.73 114.92 150.93 C 115.14 152.12 116.28 152.92 117.48 152.70 Z M 118.45 152.52 L 119.42 152.35 C 120.61 152.13 121.41 150.99 121.19 149.79 C 120.97 148.60 119.83 147.81 118.64 148.02 L 117.67 148.20 C 116.48 148.41 115.68 149.56 115.90 150.75 C 116.12 151.95 117.26 152.74 118.45 152.52 Z M 119.42 152.35 L 120.38 152.17 C 121.57 151.96 122.36 150.81 122.15 149.62 C 121.93 148.43 120.79 147.63 119.59 147.85 L 118.64 148.02 C 117.44 148.24 116.65 149.38 116.87 150.58 C 117.08 151.77 118.23 152.56 119.42 152.35 Z M 120.38 152.17 L 121.37 151.99 C 122.56 151.77 123.35 150.63 123.14 149.44 C 122.92 148.24 121.78 147.45 120.58 147.67 L 119.59 147.85 C 118.40 148.07 117.61 149.21 117.83 150.41 C 118.04 151.60 119.19 152.39 120.38 152.17 Z M 121.37 151.99 L 122.36 151.81 C 123.55 151.59 124.34 150.45 124.12 149.25 C 123.90 148.06 122.76 147.27 121.57 147.49 L 120.58 147.67 C 119.39 147.89 118.60 149.03 118.82 150.23 C 119.03 151.42 120.18 152.21 121.37 151.99 Z M 122.36 151.81 L 123.35 151.63 C 124.54 151.41 125.33 150.26 125.11 149.07 C 124.89 147.88 123.74 147.09 122.55 147.31 L 121.57 147.49 C 120.38 147.71 119.59 148.86 119.81 150.05 C 120.02 151.24 121.17 152.03 122.36 151.81 Z M 123.35 151.63 L 124.33 151.45 C 125.52 151.23 126.31 150.08 126.09 148.89 C 125.87 147.70 124.72 146.91 123.53 147.13 L 122.55 147.31 C 121.36 147.53 120.57 148.68 120.79 149.87 C 121.01 151.06 122.15 151.85 123.35 151.63 Z M 124.33 151.44 L 125.31 151.26 C 126.50 151.04 127.28 149.90 127.06 148.71 C 126.84 147.52 125.70 146.73 124.51 146.95 L 123.53 147.13 C 122.34 147.35 121.55 148.50 121.77 149.69 C 121.99 150.88 123.14 151.66 124.33 151.44 Z M 125.31 151.26 L 126.28 151.08 C 127.48 150.86 128.26 149.72 128.04 148.53 C 127.82 147.34 126.68 146.55 125.49 146.77 L 124.51 146.95 C 123.32 147.17 122.53 148.32 122.75 149.51 C 122.97 150.70 124.12 151.48 125.31 151.26 Z M 126.28 151.08 L 127.27 150.90 C 128.46 150.68 129.25 149.53 129.03 148.34 C 128.81 147.15 127.66 146.37 126.47 146.59 L 125.49 146.77 C 124.30 146.99 123.51 148.14 123.73 149.33 C 123.95 150.51 125.09 151.30 126.28 151.08 Z M 127.27 150.90 L 128.26 150.71 C 129.45 150.49 130.23 149.35 130.01 148.16 C 129.79 146.97 128.65 146.19 127.46 146.41 L 126.47 146.59 C 125.28 146.81 124.50 147.95 124.72 149.14 C 124.94 150.33 126.08 151.12 127.27 150.90 Z M 128.26 150.71 L 129.25 150.53 C 130.43 150.31 131.22 149.17 131.00 147.98 C 130.78 146.79 129.64 146.01 128.45 146.23 L 127.46 146.41 C 126.27 146.63 125.49 147.77 125.71 148.96 C 125.93 150.15 127.07 150.93 128.26 150.71 Z M 129.25 150.53 L 130.23 150.34 C 131.42 150.12 132.20 148.98 131.98 147.79 C 131.76 146.61 130.62 145.82 129.43 146.04 L 128.45 146.23 C 127.26 146.45 126.48 147.59 126.70 148.78 C 126.92 149.96 128.06 150.75 129.25 150.53 Z M 130.23 150.34 L 131.21 150.16 C 132.40 149.94 133.18 148.80 132.96 147.61 C 132.74 146.42 131.60 145.64 130.41 145.86 L 129.43 146.05 C 128.24 146.27 127.46 147.41 127.68 148.60 C 127.91 149.78 129.05 150.56 130.23 150.34 Z M 131.21 150.16 L 132.19 149.97 C 133.37 149.75 134.15 148.61 133.93 147.42 C 133.71 146.24 132.57 145.46 131.38 145.68 L 130.41 145.86 C 129.22 146.09 128.44 147.23 128.66 148.41 C 128.89 149.60 130.03 150.38 131.21 150.16 Z M 132.19 149.97 L 133.01 149.82 C 134.20 149.59 134.97 148.45 134.75 147.27 C 134.53 146.08 133.39 145.30 132.20 145.53 L 131.38 145.68 C 130.20 145.91 129.42 147.05 129.64 148.23 C 129.87 149.42 131.01 150.19 132.19 149.97 Z M 133.01 149.81 L 133.81 149.66 C 134.99 149.44 135.77 148.30 135.55 147.12 C 135.32 145.93 134.18 145.16 133.00 145.38 L 132.20 145.53 C 131.02 145.75 130.24 146.89 130.46 148.08 C 130.69 149.26 131.83 150.04 133.01 149.81 Z M 133.81 149.66 L 134.64 149.50 C 135.82 149.28 136.60 148.14 136.38 146.96 C 136.16 145.78 135.02 145.00 133.84 145.22 L 133.00 145.38 C 131.82 145.60 131.04 146.74 131.26 147.93 C 131.49 149.11 132.63 149.88 133.81 149.66 Z M 134.64 149.50 L 135.54 149.34 C 136.72 149.11 137.49 147.98 137.27 146.80 C 137.05 145.61 135.92 144.84 134.73 145.06 L 133.84 145.22 C 132.66 145.45 131.88 146.58 132.10 147.76 C 132.32 148.95 133.46 149.72 134.64 149.50 Z M 135.53 149.33 L 136.51 149.15 C 137.69 148.93 138.47 147.80 138.25 146.62 C 138.03 145.44 136.90 144.66 135.72 144.88 L 134.74 145.06 C 133.56 145.28 132.78 146.41 133.00 147.59 C 133.22 148.77 134.35 149.55 135.53 149.33 Z M 136.51 149.15 L 137.59 148.95 C 138.77 148.74 139.56 147.60 139.34 146.42 C 139.12 145.24 137.99 144.46 136.81 144.68 L 135.72 144.88 C 134.54 145.09 133.76 146.23 133.98 147.41 C 134.19 148.59 135.33 149.37 136.51 149.15 Z M 137.59 148.95 L 138.81 148.73 C 139.99 148.52 140.77 147.39 140.56 146.21 C 140.34 145.03 139.21 144.24 138.03 144.46 L 136.81 144.68 C 135.64 144.89 134.85 146.02 135.07 147.20 C 135.28 148.38 136.41 149.17 137.59 148.95 Z M 138.80 148.73 L 139.99 148.52 C 141.17 148.31 141.95 147.18 141.74 146.00 C 141.53 144.82 140.40 144.03 139.22 144.25 L 138.04 144.46 C 136.86 144.67 136.07 145.80 136.29 146.98 C 136.50 148.16 137.62 148.94 138.80 148.73 Z M 139.99 148.52 L 140.87 148.36 C 142.05 148.15 142.84 147.02 142.63 145.84 C 142.42 144.67 141.29 143.88 140.11 144.09 L 139.23 144.25 C 138.05 144.46 137.26 145.58 137.47 146.76 C 137.68 147.94 138.81 148.73 139.99 148.52 Z M 140.87 148.36 L 141.80 148.19 C 142.98 147.98 143.77 146.86 143.56 145.68 C 143.35 144.50 142.23 143.72 141.05 143.93 L 140.11 144.09 C 138.94 144.30 138.15 145.42 138.36 146.60 C 138.57 147.78 139.69 148.57 140.87 148.36 Z M 141.80 148.19 L 142.77 148.02 C 143.95 147.81 144.74 146.69 144.53 145.51 C 144.33 144.34 143.20 143.55 142.03 143.76 L 141.05 143.93 C 139.87 144.13 139.09 145.26 139.29 146.43 C 139.50 147.61 140.62 148.40 141.80 148.19 Z M 142.77 148.02 L 143.78 147.84 C 144.95 147.64 145.74 146.52 145.54 145.34 C 145.33 144.16 144.21 143.38 143.03 143.58 L 142.03 143.76 C 140.85 143.96 140.06 145.08 140.27 146.26 C 140.47 147.44 141.59 148.22 142.77 148.02 Z M 143.77 147.84 L 144.80 147.66 C 145.98 147.46 146.77 146.34 146.56 145.17 C 146.36 143.99 145.24 143.20 144.06 143.40 L 143.04 143.58 C 141.86 143.79 141.07 144.90 141.27 146.08 C 141.48 147.26 142.60 148.05 143.77 147.84 Z M 144.80 147.66 L 145.84 147.48 C 147.02 147.28 147.80 146.17 147.60 144.99 C 147.40 143.81 146.28 143.02 145.11 143.23 L 144.07 143.40 C 142.89 143.61 142.10 144.72 142.30 145.90 C 142.51 147.08 143.62 147.87 144.80 147.66 Z M 145.84 147.48 L 146.88 147.31 C 148.06 147.11 148.85 145.99 148.65 144.81 C 148.45 143.64 147.33 142.85 146.16 143.05 L 145.11 143.23 C 143.94 143.43 143.14 144.54 143.34 145.72 C 143.54 146.89 144.66 147.68 145.84 147.48 Z M 146.88 147.31 L 147.92 147.13 C 149.09 146.93 149.88 145.82 149.69 144.64 C 149.49 143.47 148.37 142.68 147.20 142.87 L 146.16 143.05 C 144.98 143.25 144.19 144.36 144.39 145.54 C 144.59 146.71 145.70 147.50 146.88 147.31 Z M 147.91 147.13 L 148.94 146.96 C 150.11 146.76 150.91 145.65 150.71 144.48 C 150.52 143.30 149.41 142.51 148.23 142.70 L 147.20 142.87 C 146.03 143.07 145.24 144.18 145.43 145.36 C 145.63 146.53 146.74 147.33 147.91 147.13 Z M 148.94 146.96 L 149.94 146.79 C 151.11 146.60 151.91 145.49 151.72 144.32 C 151.52 143.14 150.41 142.35 149.24 142.54 L 148.23 142.70 C 147.06 142.90 146.27 144.01 146.46 145.18 C 146.65 146.36 147.76 147.15 148.94 146.96 Z M 149.93 146.79 L 150.91 146.63 C 152.08 146.44 152.88 145.34 152.69 144.16 C 152.50 142.99 151.39 142.19 150.22 142.38 L 149.24 142.54 C 148.07 142.73 147.27 143.84 147.46 145.01 C 147.65 146.18 148.76 146.98 149.93 146.79 Z M 150.90 146.63 L 151.83 146.48 C 153.01 146.30 153.81 145.19 153.62 144.02 C 153.43 142.85 152.33 142.05 151.16 142.23 L 150.22 142.38 C 149.05 142.57 148.25 143.67 148.44 144.85 C 148.62 146.02 149.73 146.82 150.90 146.63 Z M 151.82 146.48 L 153.05 146.29 C 154.22 146.11 155.02 145.01 154.84 143.84 C 154.66 142.67 153.56 141.87 152.39 142.05 L 151.16 142.24 C 149.99 142.42 149.19 143.52 149.37 144.69 C 149.55 145.86 150.65 146.66 151.82 146.48 Z M 153.04 146.29 L 154.23 146.11 C 155.40 145.93 156.21 144.84 156.03 143.68 C 155.86 142.51 154.77 141.70 153.60 141.87 L 152.40 142.05 C 151.24 142.23 150.43 143.32 150.60 144.49 C 150.78 145.65 151.87 146.46 153.04 146.29 Z M 154.22 146.10 L 155.32 145.94 C 156.49 145.78 157.30 144.70 157.13 143.53 C 156.96 142.37 155.89 141.56 154.72 141.72 L 153.62 141.88 C 152.45 142.05 151.64 143.13 151.81 144.29 C 151.97 145.46 153.05 146.27 154.22 146.10 Z M 155.31 145.94 L 156.33 145.80 C 157.49 145.64 158.31 144.57 158.15 143.41 C 157.99 142.25 156.92 141.43 155.76 141.59 L 154.74 141.73 C 153.57 141.89 152.76 142.96 152.92 144.12 C 153.08 145.28 154.15 146.09 155.31 145.94 Z M 156.31 145.79 L 157.27 145.67 C 158.42 145.52 159.24 144.46 159.09 143.30 C 158.94 142.14 157.88 141.33 156.73 141.47 L 155.77 141.60 C 154.62 141.75 153.80 142.81 153.95 143.96 C 154.10 145.12 155.16 145.94 156.31 145.79 Z M 157.25 145.66 L 158.14 145.55 C 159.30 145.41 160.12 144.36 159.98 143.21 C 159.84 142.05 158.79 141.23 157.63 141.37 L 156.74 141.48 C 155.59 141.62 154.76 142.67 154.91 143.83 C 155.05 144.98 156.10 145.80 157.25 145.66 Z M 158.13 145.55 L 158.97 145.45 C 160.12 145.32 160.94 144.28 160.81 143.13 C 160.68 141.98 159.64 141.15 158.49 141.28 L 157.65 141.38 C 156.50 141.51 155.67 142.55 155.80 143.70 C 155.94 144.85 156.98 145.68 158.13 145.55 Z M 158.95 145.44 L 159.76 145.36 C 160.90 145.23 161.73 144.20 161.61 143.06 C 161.48 141.91 160.45 141.08 159.31 141.20 L 158.50 141.29 C 157.36 141.41 156.53 142.44 156.65 143.59 C 156.78 144.74 157.81 145.57 158.95 145.44 Z M 159.74 145.35 L 160.65 145.26 C 161.79 145.14 162.63 144.12 162.51 142.98 C 162.39 141.83 161.37 141.00 160.23 141.12 L 159.32 141.21 C 158.18 141.33 157.35 142.35 157.46 143.49 C 157.58 144.63 158.60 145.47 159.74 145.35 Z M 160.64 145.25 L 161.69 145.15 C 162.83 145.04 163.67 144.03 163.56 142.89 C 163.45 141.75 162.44 140.92 161.30 141.03 L 160.24 141.13 C 159.11 141.24 158.27 142.25 158.38 143.38 C 158.49 144.52 159.50 145.36 160.64 145.25 Z M 161.68 145.14 L 162.70 145.05 C 163.84 144.95 164.67 143.94 164.57 142.81 C 164.47 141.68 163.47 140.84 162.34 140.94 L 161.31 141.04 C 160.18 141.14 159.35 142.14 159.45 143.27 C 159.55 144.40 160.55 145.24 161.68 145.14 Z M 162.69 145.04 L 163.68 144.95 C 164.81 144.86 165.65 143.87 165.55 142.74 C 165.46 141.61 164.46 140.77 163.34 140.87 L 162.35 140.95 C 161.22 141.05 160.38 142.04 160.48 143.17 C 160.57 144.30 161.56 145.13 162.69 145.04 Z M 163.67 144.94 L 164.64 144.86 C 165.76 144.77 166.60 143.79 166.51 142.67 C 166.41 141.55 165.43 140.71 164.31 140.80 L 163.34 140.88 C 162.22 140.97 161.39 141.96 161.48 143.08 C 161.57 144.20 162.55 145.04 163.67 144.94 Z M 164.63 144.85 L 165.58 144.78 C 166.70 144.69 167.53 143.71 167.44 142.60 C 167.35 141.48 166.37 140.65 165.26 140.74 L 164.31 140.81 C 163.20 140.90 162.36 141.88 162.45 142.99 C 162.54 144.11 163.52 144.94 164.63 144.85 Z M 165.58 144.77 L 166.53 144.69 C 167.64 144.60 168.47 143.63 168.38 142.52 C 168.29 141.41 167.32 140.58 166.20 140.67 L 165.26 140.75 C 164.15 140.84 163.32 141.81 163.41 142.92 C 163.50 144.03 164.47 144.86 165.58 144.77 Z M 166.53 144.68 L 167.49 144.60 C 168.60 144.51 169.42 143.54 169.33 142.44 C 169.23 141.33 168.27 140.51 167.16 140.60 L 166.20 140.68 C 165.10 140.77 164.28 141.74 164.37 142.85 C 164.46 143.95 165.43 144.77 166.53 144.68 Z M 167.50 144.59 L 168.47 144.50 C 169.56 144.41 170.37 143.44 170.28 142.34 C 170.18 141.25 169.22 140.44 168.12 140.53 L 167.15 140.62 C 166.06 140.71 165.25 141.68 165.34 142.78 C 165.44 143.87 166.41 144.68 167.50 144.59 Z M 168.48 144.49 L 169.46 144.39 C 170.55 144.29 171.35 143.32 171.25 142.24 C 171.14 141.15 170.18 140.35 169.09 140.45 L 168.11 140.55 C 167.02 140.65 166.22 141.62 166.32 142.71 C 166.43 143.79 167.39 144.59 168.48 144.49 Z M 169.48 144.38 L 170.49 144.27 C 171.57 144.16 172.35 143.19 172.24 142.11 C 172.13 141.03 171.16 140.25 170.08 140.36 L 169.07 140.47 C 167.99 140.58 167.21 141.55 167.32 142.63 C 167.44 143.71 168.40 144.49 169.48 144.38 Z M 170.51 144.26 L 171.56 144.13 C 172.63 144.01 173.40 143.04 173.28 141.97 C 173.15 140.90 172.18 140.13 171.11 140.26 L 170.06 140.38 C 168.99 140.50 168.22 141.47 168.35 142.54 C 168.47 143.61 169.44 144.38 170.51 144.26 Z M 171.58 144.12 L 172.46 144.01 C 173.52 143.87 174.27 142.90 174.14 141.84 C 174.00 140.77 173.03 140.02 171.97 140.16 L 171.09 140.27 C 170.03 140.41 169.28 141.38 169.41 142.44 C 169.55 143.50 170.52 144.25 171.58 144.12 Z M 172.49 143.99 L 173.34 143.87 C 174.40 143.72 175.13 142.74 174.98 141.69 C 174.83 140.64 173.86 139.90 172.80 140.05 L 171.95 140.18 C 170.89 140.33 170.16 141.30 170.31 142.35 C 170.46 143.41 171.43 144.14 172.49 143.99 Z M 173.38 143.85 L 174.27 143.71 C 175.32 143.54 176.03 142.56 175.86 141.51 C 175.69 140.47 174.71 139.76 173.67 139.93 L 172.77 140.07 C 171.73 140.24 171.02 141.22 171.18 142.26 C 171.35 143.31 172.33 144.02 173.38 143.85 Z M 174.31 143.69 L 175.25 143.52 C 176.29 143.33 176.97 142.34 176.78 141.30 C 176.59 140.27 175.60 139.58 174.57 139.77 L 173.63 139.95 C 172.59 140.14 171.91 141.13 172.10 142.16 C 172.29 143.19 173.28 143.88 174.31 143.69 Z M 175.30 143.49 L 176.29 143.29 C 177.31 143.07 177.96 142.07 177.75 141.05 C 177.54 140.03 176.54 139.38 175.52 139.59 L 174.52 139.80 C 173.50 140.01 172.85 141.01 173.06 142.03 C 173.27 143.05 174.28 143.71 175.30 143.49 Z M 176.33 143.26 L 177.38 143.02 C 178.39 142.78 179.01 141.77 178.77 140.76 C 178.54 139.75 177.52 139.13 176.52 139.36 L 175.47 139.61 C 174.46 139.85 173.84 140.86 174.08 141.87 C 174.31 142.88 175.32 143.50 176.33 143.26 Z M 177.43 142.99 L 178.53 142.70 C 179.53 142.43 180.12 141.41 179.86 140.42 C 179.59 139.42 178.57 138.83 177.57 139.09 L 176.47 139.39 C 175.47 139.65 174.88 140.67 175.15 141.67 C 175.41 142.66 176.43 143.26 177.43 142.99 Z M 178.58 142.67 L 179.67 142.35 C 180.65 142.06 181.21 141.03 180.92 140.05 C 180.64 139.07 179.61 138.51 178.62 138.80 L 177.53 139.12 C 176.55 139.41 175.99 140.44 176.28 141.42 C 176.57 142.40 177.60 142.96 178.58 142.67 Z M 179.71 142.32 L 180.54 142.06 C 181.51 141.75 182.05 140.72 181.74 139.75 C 181.43 138.78 180.40 138.25 179.43 138.56 L 178.59 138.82 C 177.62 139.13 177.09 140.16 177.40 141.13 C 177.71 142.10 178.74 142.63 179.71 142.32 Z M 180.57 142.03 L 181.43 141.74 C 182.39 141.42 182.90 140.39 182.58 139.44 C 182.26 138.48 181.23 137.97 180.28 138.29 L 179.41 138.58 C 178.45 138.90 177.94 139.93 178.26 140.89 C 178.58 141.84 179.61 142.35 180.57 142.03 Z M 181.45 141.72 L 182.35 141.40 C 183.29 141.07 183.78 140.05 183.45 139.11 C 183.12 138.17 182.09 137.67 181.15 138.00 L 180.26 138.31 C 179.32 138.64 178.82 139.67 179.15 140.61 C 179.48 141.55 180.51 142.05 181.45 141.72 Z M 182.36 141.38 L 183.28 141.05 C 184.20 140.71 184.68 139.69 184.35 138.76 C 184.01 137.83 182.99 137.35 182.06 137.69 L 181.14 138.02 C 180.21 138.36 179.73 139.38 180.07 140.31 C 180.41 141.24 181.43 141.72 182.36 141.38 Z M 183.28 141.03 L 184.22 140.68 C 185.14 140.34 185.60 139.32 185.26 138.40 C 184.92 137.49 183.90 137.02 182.99 137.36 L 182.05 137.71 C 181.13 138.05 180.67 139.07 181.01 139.99 C 181.35 140.90 182.37 141.37 183.28 141.03 Z M 184.23 140.66 L 185.18 140.30 C 186.09 139.95 186.54 138.94 186.20 138.03 C 185.85 137.13 184.84 136.67 183.93 137.02 L 182.98 137.38 C 182.07 137.73 181.62 138.74 181.96 139.64 C 182.31 140.55 183.32 141.00 184.23 140.66 Z M 185.19 140.28 L 186.15 139.90 C 187.05 139.55 187.49 138.55 187.15 137.65 C 186.80 136.76 185.79 136.32 184.90 136.66 L 183.93 137.04 C 183.04 137.38 182.59 138.39 182.94 139.28 C 183.28 140.18 184.29 140.62 185.19 140.28 Z M 186.15 139.88 L 187.13 139.50 C 188.02 139.15 188.45 138.15 188.11 137.27 C 187.76 136.38 186.76 135.95 185.88 136.30 L 184.90 136.68 C 184.01 137.03 183.58 138.03 183.93 138.91 C 184.27 139.79 185.27 140.23 186.15 139.88 Z M 187.13 139.48 L 188.12 139.09 C 189.00 138.74 189.42 137.75 189.08 136.88 C 188.73 136.00 187.74 135.58 186.87 135.92 L 185.88 136.31 C 185.00 136.66 184.58 137.65 184.92 138.52 C 185.27 139.40 186.26 139.83 187.13 139.48 Z M 188.12 139.07 L 189.11 138.68 C 189.98 138.33 190.40 137.35 190.05 136.48 C 189.71 135.62 188.73 135.20 187.86 135.54 L 186.87 135.94 C 186.00 136.28 185.58 137.26 185.93 138.13 C 186.27 139.00 187.25 139.42 188.12 139.07 Z M 189.11 138.66 L 189.97 138.32 C 190.82 137.97 191.24 137.00 190.90 136.15 C 190.56 135.29 189.58 134.87 188.73 135.21 L 187.87 135.56 C 187.01 135.90 186.59 136.87 186.94 137.73 C 187.28 138.59 188.25 139.00 189.11 138.66 Z"
      fill="black"
      fill-rule="nonzero" /></svg>