<svg xmlns="http://www.w3.org/2000/svg" width="300" height="300" viewBox="0 0 300 300">
<path d="M 90.87 134.82 L 91.80 134.52 C 92.67 134.23 93.15 133.28 92.86 132.41 C 92.57 131.53 91.62 131.06 90.75 131.35 L 89.82 131.65 C 88.95 131.94 88.47 132.89 88.76 133.76 C 89.05 134.64 90.00 135.11 90.87 134.82 Z M 91.78 134.55 L 92.71 134.25 C 93.61 133.97 94.10 133.01 93.82 132.12 C 93.53 131.23 92.58 130.74 91.69 131.02 L 90.76 131.32 C 89.86 131.60 89.37 132.55 89.65 133.45 C 89.94 134.34 90.89 134.83 91.78 134.55 Z M 92.68 134.29 L 93.63 134.01 C 94.54 133.74 95.06 132.79 94.80 131.88 C 94.53 130.96 93.57 130.44 92.66 130.71 L 91.72 130.99 C 90.80 131.25 90.28 132.21 90.55 133.12 C 90.82 134.03 91.77 134.55 92.68 134.29 Z M 93.58 134.05 L 94.55 133.80 C 95.48 133.56 96.05 132.61 95.81 131.68 C 95.57 130.74 94.61 130.18 93.68 130.42 L 92.71 130.67 C 91.78 130.91 91.22 131.86 91.46 132.79 C 91.70 133.73 92.65 134.29 93.58 134.05 Z M 94.48 133.84 L 95.49 133.63 C 96.44 133.43 97.05 132.49 96.85 131.53 C 96.65 130.57 95.71 129.96 94.75 130.17 L 93.75 130.38 C 92.79 130.58 92.18 131.52 92.38 132.48 C 92.59 133.43 93.53 134.04 94.48 133.84 Z M 95.40 133.67 L 96.40 133.51 C 97.38 133.35 98.04 132.43 97.88 131.45 C 97.73 130.48 96.81 129.81 95.83 129.97 L 94.84 130.13 C 93.86 130.29 93.19 131.20 93.35 132.18 C 93.51 133.16 94.43 133.82 95.40 133.67 Z M 96.32 133.53 L 97.21 133.43 C 98.20 133.31 98.91 132.42 98.80 131.43 C 98.69 130.45 97.80 129.74 96.81 129.85 L 95.91 129.95 C 94.93 130.06 94.22 130.95 94.33 131.94 C 94.44 132.93 95.33 133.64 96.32 133.53 Z M 97.15 133.43 L 98.08 133.36 C 99.07 133.28 99.81 132.42 99.74 131.43 C 99.66 130.44 98.80 129.69 97.80 129.77 L 96.87 129.84 C 95.88 129.92 95.14 130.78 95.22 131.77 C 95.29 132.77 96.16 133.51 97.15 133.43 Z M 98.03 133.36 L 99.00 133.32 C 99.99 133.27 100.76 132.43 100.71 131.43 C 100.66 130.44 99.82 129.67 98.82 129.72 L 97.86 129.77 C 96.86 129.81 96.10 130.66 96.14 131.65 C 96.19 132.65 97.04 133.41 98.03 133.36 Z M 98.96 133.32 L 99.96 133.29 C 100.96 133.26 101.74 132.44 101.71 131.44 C 101.69 130.45 100.86 129.66 99.86 129.69 L 98.86 129.72 C 97.87 129.75 97.08 130.57 97.11 131.57 C 97.14 132.56 97.96 133.35 98.96 133.32 Z M 99.94 133.29 L 100.98 133.28 C 101.97 133.27 102.77 132.45 102.76 131.46 C 102.75 130.46 101.93 129.67 100.94 129.68 L 99.89 129.69 C 98.90 129.70 98.10 130.52 98.11 131.51 C 98.12 132.51 98.94 133.30 99.94 133.29 Z M 100.96 133.28 L 102.05 133.28 C 103.05 133.27 103.85 132.46 103.85 131.47 C 103.84 130.47 103.03 129.67 102.04 129.67 L 100.95 129.68 C 99.96 129.68 99.15 130.49 99.16 131.49 C 99.16 132.48 99.97 133.28 100.96 133.28 Z M 102.05 133.27 L 103.13 133.27 C 104.13 133.27 104.93 132.47 104.93 131.47 C 104.93 130.48 104.13 129.67 103.13 129.67 L 102.04 129.67 C 101.05 129.67 100.24 130.48 100.24 131.47 C 100.24 132.47 101.05 133.28 102.05 133.27 Z M 103.13 133.27 L 104.15 133.27 C 105.14 133.27 105.95 132.47 105.95 131.47 C 105.95 130.48 105.14 129.67 104.15 129.67 L 103.13 129.67 C 102.14 129.67 101.33 130.48 101.33 131.47 C 101.33 132.47 102.14 133.27 103.13 133.27 Z M 104.15 133.27 L 105.18 133.27 C 106.17 133.27 106.98 132.47 106.98 131.47 C 106.98 130.48 106.17 129.67 105.18 129.67 L 104.15 129.67 C 103.15 129.67 102.35 130.48 102.35 131.47 C 102.35 132.47 103.15 133.27 104.15 133.27 Z M 105.18 133.27 L 106.22 133.27 C 107.21 133.27 108.02 132.47 108.02 131.47 C 108.02 130.48 107.21 129.67 106.22 129.67 L 105.18 129.67 C 104.18 129.67 103.38 130.48 103.38 131.47 C 103.38 132.47 104.18 133.27 105.18 133.27 Z M 106.22 133.27 L 107.25 133.27 C 108.25 133.27 109.05 132.47 109.05 131.47 C 109.05 130.48 108.25 129.67 107.25 129.67 L 106.22 129.67 C 105.22 129.67 104.42 130.48 104.42 131.47 C 104.42 132.47 105.22 133.27 106.22 133.27 Z M 107.25 133.27 L 108.27 133.27 C 109.26 133.27 110.07 132.47 110.07 131.47 C 110.07 130.48 109.26 129.67 108.27 129.67 L 107.25 129.67 C 106.26 129.67 105.45 130.48 105.45 131.47 C 105.45 132.47 106.26 133.27 107.25 133.27 Z M 108.27 133.27 L 109.26 133.27 C 110.25 133.27 111.06 132.47 111.06 131.47 C 111.06 130.48 110.25 129.67 109.26 129.67 L 108.27 129.67 C 107.28 129.67 106.47 130.48 106.47 131.47 C 106.47 132.47 107.28 133.27 108.27 133.27 Z M 109.26 133.27 L 110.20 133.27 C 111.20 133.27 112.00 132.47 112.00 131.47 C 112.00 130.48 111.20 129.67 110.20 129.67 L 109.26 129.67 C 108.26 129.67 107.46 130.48 107.46 131.47 C 107.46 132.47 108.26 133.27 109.26 133.27 Z M 110.20 133.27 L 111.19 133.27 C 112.18 133.27 112.99 132.47 112.99 131.47 C 112.99 130.48 112.18 129.67 111.19 129.67 L 110.20 129.67 C 109.21 129.67 108.40 130.48 108.40 131.47 C 108.40 132.47 109.21 133.27 110.20 133.27 Z M 111.19 133.27 L 112.32 133.27 C 113.31 133.27 114.12 132.46 114.12 131.47 C 114.12 130.48 113.31 129.67 112.32 129.68 L 111.19 129.68 C 110.19 129.68 109.39 130.48 109.39 131.48 C 109.39 132.47 110.20 133.27 111.19 133.27 Z M 112.33 133.27 L 113.37 133.27 C 114.36 133.26 115.16 132.46 115.16 131.46 C 115.15 130.47 114.35 129.67 113.36 129.67 L 112.31 129.68 C 111.32 129.68 110.52 130.49 110.52 131.48 C 110.53 132.47 111.33 133.27 112.33 133.27 Z M 113.38 133.26 L 114.35 133.26 C 115.35 133.25 116.14 132.44 116.13 131.44 C 116.12 130.45 115.31 129.66 114.32 129.67 L 113.35 129.68 C 112.35 129.68 111.56 130.49 111.57 131.49 C 111.58 132.48 112.39 133.27 113.38 133.26 Z M 114.37 133.25 L 115.30 133.24 C 116.29 133.22 117.08 132.40 117.06 131.41 C 117.05 130.42 116.23 129.63 115.24 129.65 L 114.31 129.67 C 113.32 129.69 112.53 130.50 112.55 131.49 C 112.56 132.48 113.38 133.27 114.37 133.25 Z M 115.32 133.23 L 116.23 133.21 C 117.22 133.18 118.00 132.36 117.97 131.37 C 117.94 130.38 117.12 129.60 116.13 129.63 L 115.22 129.65 C 114.23 129.68 113.45 130.51 113.48 131.50 C 113.51 132.48 114.33 133.26 115.32 133.23 Z M 116.25 133.21 L 117.19 133.17 C 118.18 133.13 118.95 132.29 118.90 131.31 C 118.86 130.32 118.03 129.55 117.04 129.59 L 116.11 129.63 C 115.12 129.67 114.35 130.51 114.39 131.49 C 114.43 132.48 115.27 133.25 116.25 133.21 Z M 117.22 133.16 L 118.19 133.11 C 119.18 133.06 119.93 132.21 119.88 131.23 C 119.82 130.24 118.98 129.49 117.99 129.54 L 117.02 129.60 C 116.03 129.65 115.28 130.49 115.33 131.48 C 115.39 132.46 116.23 133.22 117.22 133.16 Z M 118.22 133.11 L 119.21 133.04 C 120.19 132.97 120.93 132.12 120.86 131.13 C 120.80 130.15 119.94 129.41 118.96 129.47 L 117.97 129.54 C 116.99 129.61 116.24 130.47 116.31 131.45 C 116.38 132.43 117.23 133.18 118.22 133.11 Z M 119.23 133.03 L 120.23 132.95 C 121.21 132.87 121.94 132.01 121.86 131.02 C 121.78 130.04 120.92 129.31 119.93 129.39 L 118.93 129.48 C 117.95 129.56 117.22 130.42 117.30 131.41 C 117.39 132.39 118.25 133.12 119.23 133.03 Z M 120.26 132.95 L 121.27 132.85 C 122.25 132.75 122.96 131.88 122.87 130.90 C 122.77 129.92 121.90 129.21 120.92 129.30 L 119.91 129.40 C 118.93 129.49 118.21 130.37 118.31 131.35 C 118.40 132.33 119.28 133.04 120.26 132.95 Z M 121.29 132.85 L 122.31 132.73 C 123.29 132.62 123.99 131.74 123.88 130.77 C 123.78 129.79 122.89 129.08 121.92 129.19 L 120.90 129.30 C 119.92 129.41 119.22 130.29 119.32 131.27 C 119.43 132.25 120.31 132.95 121.29 132.85 Z M 122.33 132.73 L 123.30 132.61 C 124.28 132.49 124.97 131.60 124.85 130.62 C 124.73 129.65 123.84 128.96 122.86 129.08 L 121.90 129.20 C 120.92 129.32 120.23 130.20 120.35 131.18 C 120.47 132.16 121.36 132.85 122.33 132.73 Z M 123.32 132.60 L 124.29 132.47 C 125.27 132.34 125.95 131.45 125.82 130.48 C 125.69 129.50 124.80 128.82 123.82 128.95 L 122.85 129.08 C 121.87 129.21 121.19 130.10 121.32 131.08 C 121.45 132.05 122.34 132.73 123.32 132.60 Z M 124.31 132.47 L 125.29 132.33 C 126.26 132.19 126.94 131.30 126.80 130.33 C 126.66 129.36 125.77 128.68 124.80 128.82 L 123.81 128.96 C 122.84 129.09 122.16 129.99 122.30 130.96 C 122.44 131.93 123.34 132.61 124.31 132.47 Z M 125.30 132.33 L 126.29 132.18 C 127.26 132.04 127.93 131.14 127.79 130.17 C 127.65 129.20 126.75 128.53 125.78 128.68 L 124.79 128.82 C 123.82 128.96 123.15 129.86 123.29 130.83 C 123.43 131.80 124.33 132.47 125.30 132.33 Z M 126.30 132.18 L 127.30 132.03 C 128.27 131.89 128.94 130.99 128.79 130.02 C 128.65 129.05 127.75 128.39 126.78 128.53 L 125.78 128.68 C 124.81 128.82 124.14 129.72 124.29 130.69 C 124.43 131.66 125.33 132.32 126.30 132.18 Z M 127.30 132.03 L 128.32 131.88 C 129.28 131.73 129.95 130.83 129.80 129.87 C 129.66 128.90 128.76 128.24 127.80 128.38 L 126.78 128.53 C 125.82 128.67 125.15 129.57 125.29 130.54 C 125.44 131.50 126.34 132.17 127.30 132.03 Z M 128.31 131.87 L 129.32 131.73 C 130.28 131.59 130.95 130.69 130.80 129.72 C 130.66 128.76 129.77 128.09 128.80 128.24 L 127.80 128.38 C 126.84 128.52 126.17 129.42 126.31 130.39 C 126.45 131.35 127.35 132.02 128.31 131.87 Z M 129.31 131.73 L 130.32 131.58 C 131.28 131.44 131.95 130.55 131.81 129.58 C 131.67 128.62 130.77 127.95 129.81 128.09 L 128.81 128.24 C 127.84 128.38 127.17 129.27 127.31 130.23 C 127.45 131.20 128.35 131.87 129.31 131.73 Z M 130.31 131.58 L 131.32 131.43 C 132.28 131.30 132.95 130.40 132.81 129.44 C 132.67 128.48 131.78 127.81 130.82 127.95 L 129.81 128.09 C 128.85 128.23 128.18 129.12 128.32 130.09 C 128.46 131.05 129.35 131.72 130.31 131.58 Z M 131.31 131.43 L 132.31 131.29 C 133.27 131.15 133.94 130.27 133.80 129.30 C 133.66 128.34 132.78 127.67 131.81 127.81 L 130.82 127.95 C 129.86 128.09 129.19 128.98 129.33 129.94 C 129.46 130.90 130.35 131.57 131.31 131.43 Z M 132.30 131.29 L 133.28 131.15 C 134.24 131.02 134.91 130.13 134.77 129.17 C 134.64 128.21 133.75 127.54 132.79 127.68 L 131.82 127.81 C 130.86 127.95 130.19 128.83 130.32 129.79 C 130.46 130.75 131.34 131.42 132.30 131.29 Z M 133.28 131.15 L 134.23 131.02 C 135.18 130.89 135.85 130.00 135.72 129.04 C 135.59 128.08 134.71 127.41 133.75 127.55 L 132.80 127.68 C 131.84 127.81 131.17 128.69 131.30 129.65 C 131.43 130.61 132.32 131.28 133.28 131.15 Z M 134.22 131.02 L 135.15 130.89 C 136.11 130.76 136.78 129.88 136.65 128.92 C 136.52 127.96 135.64 127.29 134.68 127.42 L 133.75 127.55 C 132.79 127.68 132.12 128.56 132.25 129.52 C 132.38 130.48 133.26 131.15 134.22 131.02 Z M 135.15 130.89 L 136.07 130.77 C 137.03 130.64 137.70 129.76 137.57 128.80 C 137.44 127.85 136.56 127.17 135.61 127.30 L 134.68 127.42 C 133.73 127.55 133.05 128.43 133.18 129.39 C 133.31 130.35 134.19 131.02 135.15 130.89 Z M 136.07 130.76 L 137.01 130.64 C 137.97 130.52 138.64 129.64 138.52 128.68 C 138.39 127.73 137.51 127.05 136.56 127.18 L 135.61 127.30 C 134.66 127.43 133.98 128.30 134.11 129.26 C 134.23 130.22 135.11 130.89 136.07 130.76 Z M 137.01 130.64 L 138.00 130.51 C 138.95 130.39 139.63 129.51 139.50 128.56 C 139.38 127.60 138.51 126.93 137.55 127.05 L 136.56 127.18 C 135.61 127.30 134.93 128.18 135.06 129.13 C 135.18 130.09 136.05 130.76 137.01 130.64 Z M 137.99 130.51 L 139.05 130.37 C 140.01 130.25 140.68 129.38 140.56 128.43 C 140.44 127.47 139.57 126.80 138.62 126.92 L 137.56 127.05 C 136.60 127.18 135.93 128.05 136.05 129.00 C 136.17 129.96 137.04 130.63 137.99 130.51 Z M 139.05 130.37 L 140.14 130.24 C 141.09 130.12 141.77 129.25 141.65 128.29 C 141.53 127.34 140.66 126.67 139.70 126.79 L 138.62 126.92 C 137.67 127.04 136.99 127.91 137.11 128.86 C 137.23 129.82 138.10 130.49 139.05 130.37 Z M 140.13 130.23 L 141.04 130.12 C 142.00 130.00 142.67 129.14 142.55 128.18 C 142.44 127.23 141.57 126.56 140.62 126.68 L 139.71 126.79 C 138.76 126.91 138.08 127.77 138.20 128.73 C 138.32 129.68 139.18 130.35 140.13 130.23 Z M 141.04 130.12 L 142.00 130.00 C 142.95 129.88 143.62 129.02 143.51 128.07 C 143.39 127.12 142.53 126.44 141.58 126.56 L 140.62 126.68 C 139.67 126.80 138.99 127.66 139.11 128.61 C 139.23 129.56 140.09 130.23 141.04 130.12 Z M 142.00 130.00 L 142.99 129.88 C 143.94 129.76 144.61 128.90 144.50 127.95 C 144.38 127.00 143.52 126.33 142.57 126.44 L 141.58 126.56 C 140.63 126.68 139.96 127.54 140.07 128.49 C 140.19 129.44 141.05 130.11 142.00 130.00 Z M 142.99 129.87 L 144.00 129.75 C 144.95 129.64 145.63 128.78 145.51 127.83 C 145.40 126.88 144.54 126.21 143.59 126.32 L 142.57 126.45 C 141.63 126.56 140.95 127.42 141.07 128.37 C 141.18 129.31 142.04 129.99 142.99 129.87 Z M 144.00 129.75 L 145.03 129.63 C 145.98 129.51 146.65 128.66 146.54 127.71 C 146.43 126.77 145.57 126.09 144.63 126.20 L 143.60 126.33 C 142.65 126.44 141.98 127.29 142.09 128.24 C 142.20 129.18 143.06 129.86 144.00 129.75 Z M 145.03 129.62 L 146.06 129.50 C 147.00 129.39 147.68 128.54 147.57 127.60 C 147.46 126.65 146.61 125.98 145.66 126.09 L 144.63 126.21 C 143.69 126.32 143.01 127.17 143.12 128.11 C 143.23 129.06 144.08 129.73 145.03 129.62 Z M 146.06 129.50 L 147.08 129.38 C 148.02 129.28 148.70 128.43 148.59 127.48 C 148.48 126.54 147.63 125.87 146.69 125.97 L 145.67 126.09 C 144.73 126.20 144.05 127.05 144.16 127.99 C 144.26 128.93 145.11 129.61 146.06 129.50 Z M 147.07 129.38 L 148.08 129.27 C 149.02 129.17 149.70 128.32 149.59 127.38 C 149.49 126.44 148.64 125.76 147.70 125.86 L 146.70 125.98 C 145.76 126.08 145.08 126.93 145.18 127.87 C 145.29 128.81 146.13 129.49 147.07 129.38 Z M 148.07 129.27 L 149.06 129.16 C 150.00 129.06 150.68 128.22 150.58 127.28 C 150.48 126.34 149.64 125.66 148.70 125.76 L 147.71 125.87 C 146.77 125.97 146.09 126.81 146.19 127.75 C 146.29 128.69 147.13 129.37 148.07 129.27 Z M 149.05 129.16 L 150.02 129.06 C 150.96 128.97 151.65 128.13 151.55 127.19 C 151.45 126.25 150.62 125.57 149.68 125.66 L 148.71 125.76 C 147.77 125.86 147.09 126.70 147.18 127.63 C 147.28 128.57 148.11 129.26 149.05 129.16 Z M 150.01 129.06 L 150.97 128.97 C 151.91 128.88 152.60 128.05 152.51 127.11 C 152.42 126.17 151.59 125.49 150.65 125.57 L 149.69 125.66 C 148.75 125.75 148.06 126.59 148.15 127.52 C 148.24 128.46 149.07 129.15 150.01 129.06 Z M 150.96 128.97 L 151.92 128.89 C 152.86 128.81 153.55 127.98 153.47 127.04 C 153.39 126.11 152.57 125.41 151.63 125.49 L 150.67 125.57 C 149.73 125.66 149.04 126.48 149.12 127.42 C 149.20 128.35 150.02 129.05 150.96 128.97 Z M 151.91 128.89 L 152.88 128.81 C 153.82 128.74 154.52 127.92 154.45 126.99 C 154.38 126.05 153.56 125.35 152.63 125.42 L 151.65 125.49 C 150.71 125.56 150.01 126.38 150.08 127.32 C 150.15 128.25 150.97 128.96 151.91 128.89 Z M 152.86 128.81 L 153.87 128.75 C 154.80 128.68 155.51 127.88 155.45 126.94 C 155.39 126.00 154.58 125.30 153.65 125.36 L 152.64 125.42 C 151.71 125.48 151.00 126.29 151.06 127.23 C 151.12 128.16 151.93 128.87 152.86 128.81 Z M 153.85 128.74 L 154.88 128.69 C 155.82 128.64 156.54 127.84 156.49 126.90 C 156.44 125.97 155.64 125.25 154.70 125.30 L 153.67 125.36 C 152.73 125.41 152.01 126.21 152.06 127.14 C 152.11 128.08 152.91 128.79 153.85 128.74 Z M 154.86 128.69 L 155.93 128.64 C 156.87 128.60 157.59 127.81 157.55 126.88 C 157.51 125.94 156.73 125.22 155.79 125.26 L 154.72 125.30 C 153.79 125.34 153.06 126.13 153.10 127.07 C 153.14 128.00 153.93 128.73 154.86 128.69 Z M 155.91 128.64 L 156.92 128.61 C 157.85 128.58 158.59 127.80 158.56 126.87 C 158.53 125.93 157.75 125.20 156.82 125.23 L 155.81 125.26 C 154.88 125.29 154.14 126.07 154.17 127.00 C 154.20 127.94 154.98 128.67 155.91 128.64 Z M 156.90 128.61 L 157.93 128.59 C 158.86 128.57 159.61 127.81 159.59 126.87 C 159.58 125.94 158.81 125.20 157.87 125.21 L 156.84 125.23 C 155.90 125.25 155.16 126.02 155.18 126.95 C 155.19 127.88 155.96 128.63 156.90 128.61 Z M 157.90 128.59 L 158.95 128.59 C 159.89 128.59 160.64 127.83 160.64 126.90 C 160.64 125.97 159.88 125.21 158.95 125.21 L 157.90 125.21 C 156.97 125.21 156.21 125.97 156.21 126.90 C 156.21 127.84 156.97 128.59 157.90 128.59 Z M 158.92 128.59 L 159.97 128.61 C 160.90 128.63 161.67 127.89 161.69 126.95 C 161.71 126.02 160.97 125.25 160.04 125.23 L 158.98 125.21 C 158.05 125.20 157.28 125.94 157.26 126.87 C 157.25 127.80 157.99 128.57 158.92 128.59 Z M 159.93 128.61 L 160.96 128.65 C 161.90 128.69 162.68 127.97 162.72 127.04 C 162.77 126.11 162.05 125.32 161.12 125.28 L 160.08 125.24 C 159.15 125.20 158.36 125.92 158.32 126.85 C 158.28 127.78 159.00 128.56 159.93 128.61 Z M 160.91 128.65 L 161.93 128.72 C 162.85 128.79 163.66 128.10 163.73 127.17 C 163.80 126.24 163.11 125.43 162.18 125.36 L 161.17 125.29 C 160.24 125.22 159.43 125.91 159.36 126.84 C 159.29 127.77 159.99 128.58 160.91 128.65 Z M 161.86 128.72 L 162.83 128.83 C 163.76 128.93 164.59 128.27 164.70 127.34 C 164.80 126.42 164.14 125.59 163.21 125.48 L 162.24 125.37 C 161.32 125.27 160.48 125.93 160.38 126.85 C 160.27 127.78 160.94 128.61 161.86 128.72 Z M 162.75 128.81 L 163.67 128.96 C 164.59 129.11 165.45 128.49 165.60 127.57 C 165.75 126.66 165.13 125.79 164.21 125.64 L 163.29 125.49 C 162.38 125.35 161.51 125.97 161.36 126.88 C 161.21 127.80 161.84 128.67 162.75 128.81 Z M 163.57 128.94 L 164.46 129.15 C 165.37 129.35 166.27 128.78 166.47 127.88 C 166.68 126.97 166.11 126.07 165.21 125.87 L 164.31 125.66 C 163.41 125.46 162.51 126.03 162.30 126.93 C 162.10 127.84 162.66 128.74 163.57 128.94 Z M 164.31 129.10 L 165.39 129.45 C 166.27 129.74 167.22 129.26 167.51 128.38 C 167.80 127.50 167.32 126.55 166.43 126.26 L 165.36 125.91 C 164.48 125.62 163.53 126.10 163.24 126.98 C 162.95 127.87 163.43 128.81 164.31 129.10 Z M 165.22 129.39 L 166.17 129.82 C 167.01 130.20 168.01 129.82 168.39 128.98 C 168.77 128.14 168.40 127.14 167.55 126.76 L 166.60 126.33 C 165.76 125.95 164.76 126.32 164.38 127.17 C 164.00 128.01 164.37 129.01 165.22 129.39 Z M 166.02 129.74 L 166.87 130.23 C 167.67 130.70 168.70 130.42 169.16 129.62 C 169.62 128.82 169.35 127.79 168.55 127.33 L 167.70 126.84 C 166.90 126.37 165.87 126.64 165.41 127.45 C 164.94 128.25 165.22 129.28 166.02 129.74 Z M 166.75 130.16 L 167.53 130.70 C 168.29 131.22 169.34 131.03 169.87 130.27 C 170.39 129.51 170.20 128.46 169.44 127.94 L 168.66 127.40 C 167.90 126.87 166.86 127.06 166.33 127.82 C 165.80 128.59 165.99 129.63 166.75 130.16 Z M 167.46 130.64 L 168.20 131.21 C 168.93 131.78 169.98 131.65 170.55 130.91 C 171.12 130.18 170.98 129.13 170.25 128.56 L 169.51 127.99 C 168.78 127.42 167.73 127.56 167.16 128.29 C 166.59 129.02 166.73 130.08 167.46 130.64 Z M 168.17 131.19 L 168.89 131.78 C 169.61 132.36 170.67 132.25 171.25 131.53 C 171.83 130.82 171.73 129.76 171.01 129.18 L 170.28 128.59 C 169.56 128.00 168.51 128.11 167.92 128.83 C 167.34 129.55 167.45 130.61 168.17 131.19 Z M 168.90 131.78 L 169.67 132.41 C 170.39 132.99 171.45 132.87 172.03 132.15 C 172.61 131.43 172.50 130.37 171.77 129.79 L 171.00 129.17 C 170.28 128.59 169.22 128.70 168.64 129.42 C 168.06 130.15 168.17 131.20 168.90 131.78 Z M 169.65 132.40 L 170.43 133.04 C 171.15 133.63 172.21 133.53 172.81 132.81 C 173.40 132.09 173.29 131.03 172.57 130.44 L 171.79 129.80 C 171.07 129.20 170.01 129.31 169.42 130.03 C 168.83 130.75 168.93 131.81 169.65 132.40 Z M 170.38 133.01 L 171.13 133.68 C 171.83 134.30 172.90 134.23 173.52 133.53 C 174.14 132.83 174.08 131.76 173.38 131.14 L 172.63 130.47 C 171.93 129.85 170.86 129.91 170.23 130.61 C 169.61 131.31 169.68 132.39 170.38 133.01 Z M 171.04 133.60 L 171.73 134.31 C 172.39 134.98 173.47 135.00 174.14 134.34 C 174.82 133.68 174.83 132.60 174.17 131.93 L 173.47 131.22 C 172.81 130.54 171.74 130.53 171.06 131.19 C 170.39 131.85 170.38 132.93 171.04 133.60 Z M 171.61 134.18 L 172.22 134.95 C 172.81 135.70 173.89 135.82 174.63 135.23 C 175.37 134.64 175.49 133.57 174.90 132.83 L 174.29 132.06 C 173.70 131.31 172.63 131.19 171.89 131.78 C 171.15 132.37 171.02 133.44 171.61 134.18 Z M 172.08 134.76 L 172.58 135.61 C 173.06 136.43 174.11 136.70 174.93 136.22 C 175.75 135.74 176.03 134.68 175.54 133.86 L 175.05 133.02 C 174.56 132.20 173.51 131.93 172.69 132.41 C 171.87 132.89 171.60 133.94 172.08 134.76 Z M 172.45 135.36 L 172.79 136.24 C 173.14 137.13 174.14 137.57 175.03 137.22 C 175.92 136.87 176.36 135.87 176.01 134.98 L 175.67 134.11 C 175.32 133.22 174.32 132.78 173.43 133.13 C 172.54 133.47 172.10 134.47 172.45 135.36 Z M 172.71 136.00 L 172.93 136.93 C 173.15 137.87 174.08 138.45 175.01 138.23 C 175.95 138.01 176.53 137.08 176.31 136.14 L 176.09 135.21 C 175.87 134.28 174.94 133.70 174.01 133.92 C 173.07 134.14 172.49 135.07 172.71 136.00 Z M 172.89 136.73 L 173.00 137.71 C 173.10 138.67 173.97 139.36 174.92 139.25 C 175.88 139.14 176.57 138.28 176.46 137.33 L 176.35 136.35 C 176.24 135.39 175.38 134.70 174.43 134.81 C 173.47 134.91 172.78 135.78 172.89 136.73 Z M 172.98 137.54 L 172.99 138.55 C 173.00 139.52 173.80 140.29 174.76 140.28 C 175.73 140.27 176.50 139.48 176.49 138.51 L 176.48 137.50 C 176.47 136.53 175.67 135.76 174.71 135.77 C 173.74 135.78 172.97 136.57 172.98 137.54 Z M 172.99 138.40 L 172.91 139.43 C 172.84 140.40 173.57 141.24 174.54 141.31 C 175.51 141.38 176.35 140.66 176.42 139.69 L 176.49 138.66 C 176.56 137.69 175.84 136.85 174.87 136.78 C 173.90 136.71 173.06 137.44 172.99 138.40 Z M 172.92 139.31 L 172.77 140.34 C 172.63 141.30 173.30 142.19 174.26 142.33 C 175.22 142.48 176.12 141.81 176.26 140.85 L 176.41 139.82 C 176.55 138.85 175.88 137.96 174.92 137.82 C 173.96 137.68 173.06 138.34 172.92 139.31 Z M 172.78 140.22 L 172.58 141.21 C 172.37 142.16 172.98 143.10 173.94 143.30 C 174.90 143.51 175.84 142.90 176.04 141.94 L 176.25 140.96 C 176.45 140.00 175.84 139.06 174.88 138.86 C 173.93 138.66 172.99 139.27 172.78 140.22 Z M 172.60 141.11 L 172.35 142.02 C 172.09 142.97 172.65 143.94 173.60 144.20 C 174.54 144.46 175.51 143.90 175.77 142.95 L 176.02 142.04 C 176.28 141.09 175.72 140.12 174.77 139.86 C 173.83 139.60 172.85 140.16 172.60 141.11 Z M 172.37 141.94 L 172.08 142.85 C 171.77 143.78 172.28 144.78 173.22 145.08 C 174.15 145.39 175.15 144.87 175.45 143.94 L 175.75 143.04 C 176.05 142.10 175.54 141.10 174.61 140.80 C 173.68 140.50 172.67 141.01 172.37 141.94 Z M 172.10 142.77 L 171.76 143.68 C 171.42 144.60 171.89 145.62 172.81 145.97 C 173.73 146.31 174.75 145.84 175.09 144.92 L 175.43 144.01 C 175.77 143.09 175.31 142.07 174.39 141.73 C 173.47 141.38 172.44 141.85 172.10 142.77 Z M 171.78 143.62 L 171.40 144.54 C 171.03 145.45 171.46 146.49 172.37 146.86 C 173.28 147.24 174.32 146.81 174.69 145.90 L 175.07 144.98 C 175.45 144.07 175.02 143.03 174.11 142.65 C 173.20 142.28 172.16 142.71 171.78 143.62 Z M 171.42 144.49 L 171.00 145.43 C 170.60 146.33 171.01 147.38 171.91 147.78 C 172.81 148.18 173.86 147.78 174.26 146.88 L 174.68 145.94 C 175.08 145.04 174.67 143.99 173.77 143.59 C 172.87 143.19 171.82 143.59 171.42 144.49 Z M 171.01 145.40 L 170.56 146.36 C 170.14 147.26 170.53 148.32 171.42 148.74 C 172.31 149.16 173.38 148.77 173.80 147.88 L 174.25 146.91 C 174.67 146.02 174.28 144.96 173.39 144.54 C 172.50 144.12 171.43 144.50 171.01 145.40 Z M 170.57 146.34 L 170.12 147.28 C 169.69 148.17 170.06 149.23 170.95 149.66 C 171.84 150.09 172.91 149.72 173.34 148.83 L 173.79 147.90 C 174.22 147.01 173.85 145.94 172.96 145.51 C 172.07 145.08 171.00 145.45 170.57 146.34 Z M 170.12 147.27 L 169.70 148.12 C 169.27 149.01 169.63 150.08 170.52 150.52 C 171.41 150.95 172.48 150.59 172.91 149.70 L 173.34 148.84 C 173.77 147.95 173.40 146.88 172.52 146.45 C 171.63 146.01 170.56 146.38 170.12 147.27 Z M 169.70 148.12 L 169.27 149.00 C 168.83 149.88 169.19 150.96 170.08 151.40 C 170.96 151.84 172.04 151.47 172.48 150.59 L 172.91 149.71 C 173.35 148.82 172.99 147.74 172.10 147.31 C 171.22 146.87 170.14 147.23 169.70 148.12 Z M 169.27 148.99 L 168.82 149.89 C 168.38 150.78 168.74 151.85 169.63 152.29 C 170.51 152.73 171.59 152.37 172.03 151.49 L 172.48 150.59 C 172.92 149.70 172.56 148.63 171.67 148.19 C 170.78 147.75 169.71 148.11 169.27 148.99 Z M 168.82 149.89 L 168.37 150.80 C 167.93 151.69 168.29 152.76 169.17 153.20 C 170.06 153.65 171.13 153.29 171.58 152.40 L 172.03 151.49 C 172.47 150.60 172.11 149.53 171.23 149.08 C 170.34 148.64 169.26 149.00 168.82 149.89 Z M 168.37 150.80 L 167.91 151.72 C 167.47 152.60 167.83 153.68 168.72 154.12 C 169.60 154.56 170.68 154.20 171.12 153.31 L 171.58 152.40 C 172.02 151.51 171.66 150.43 170.77 149.99 C 169.88 149.55 168.81 149.91 168.37 150.80 Z M 167.91 151.72 L 167.45 152.64 C 167.01 153.53 167.38 154.60 168.27 155.04 C 169.16 155.48 170.23 155.12 170.67 154.23 L 171.13 153.31 C 171.56 152.42 171.20 151.35 170.31 150.91 C 169.42 150.47 168.35 150.83 167.91 151.72 Z M 167.45 152.64 L 167.00 153.56 C 166.56 154.45 166.93 155.53 167.82 155.96 C 168.72 156.40 169.79 156.03 170.23 155.14 L 170.68 154.22 C 171.11 153.33 170.74 152.26 169.85 151.82 C 168.96 151.38 167.88 151.75 167.45 152.64 Z M 167.00 153.57 L 166.56 154.47 C 166.13 155.37 166.50 156.44 167.40 156.87 C 168.29 157.30 169.36 156.93 169.80 156.03 L 170.23 155.13 C 170.66 154.24 170.29 153.16 169.40 152.73 C 168.50 152.30 167.43 152.67 167.00 153.57 Z M 166.55 154.48 L 166.12 155.40 C 165.69 156.30 166.07 157.37 166.97 157.80 C 167.87 158.22 168.94 157.84 169.37 156.94 L 169.80 156.02 C 170.23 155.13 169.85 154.05 168.95 153.63 C 168.05 153.20 166.98 153.59 166.55 154.48 Z M 166.11 155.41 L 165.69 156.32 C 165.27 157.22 165.66 158.29 166.56 158.71 C 167.46 159.13 168.53 158.74 168.95 157.84 L 169.37 156.93 C 169.79 156.03 169.40 154.96 168.50 154.54 C 167.60 154.12 166.53 154.51 166.11 155.41 Z M 165.68 156.34 L 165.27 157.24 C 164.86 158.14 165.26 159.21 166.17 159.62 C 167.07 160.03 168.14 159.63 168.55 158.72 L 168.96 157.82 C 169.37 156.92 168.97 155.85 168.06 155.44 C 167.16 155.03 166.09 155.43 165.68 156.34 Z M 165.27 157.25 L 164.87 158.15 C 164.47 159.06 164.88 160.12 165.78 160.53 C 166.69 160.93 167.76 160.52 168.16 159.61 L 168.56 158.71 C 168.96 157.80 168.55 156.74 167.64 156.34 C 166.73 155.93 165.67 156.34 165.27 157.25 Z M 164.86 158.17 L 164.47 159.07 C 164.08 159.99 164.50 161.04 165.41 161.44 C 166.32 161.83 167.38 161.41 167.77 160.50 L 168.16 159.59 C 168.56 158.68 168.14 157.62 167.22 157.23 C 166.31 156.84 165.25 157.26 164.86 158.17 Z M 164.46 159.09 L 164.08 160.00 C 163.70 160.92 164.13 161.97 165.04 162.36 C 165.96 162.74 167.01 162.31 167.40 161.40 L 167.78 160.48 C 168.17 159.57 167.73 158.51 166.82 158.13 C 165.90 157.74 164.85 158.17 164.46 159.09 Z M 164.07 160.02 L 163.69 160.95 C 163.32 161.87 163.76 162.92 164.68 163.29 C 165.60 163.67 166.65 163.23 167.02 162.31 L 167.40 161.38 C 167.78 160.46 167.34 159.41 166.42 159.03 C 165.50 158.66 164.45 159.10 164.07 160.02 Z M 163.69 160.96 L 163.31 161.91 C 162.94 162.83 163.40 163.88 164.32 164.25 C 165.24 164.61 166.29 164.16 166.65 163.24 L 167.03 162.29 C 167.40 161.37 166.95 160.32 166.02 159.96 C 165.10 159.59 164.06 160.04 163.69 160.96 Z M 163.31 161.93 L 162.95 162.83 C 162.60 163.76 163.06 164.80 163.98 165.16 C 164.91 165.52 165.95 165.06 166.31 164.13 L 166.66 163.22 C 167.02 162.30 166.56 161.26 165.63 160.90 C 164.71 160.54 163.66 161.00 163.31 161.93 Z M 162.95 162.85 L 162.61 163.75 C 162.26 164.68 162.73 165.72 163.66 166.07 C 164.58 166.42 165.62 165.95 165.97 165.02 L 166.31 164.12 C 166.67 163.19 166.20 162.15 165.27 161.80 C 164.34 161.45 163.30 161.92 162.95 162.85 Z M 162.60 163.76 L 162.26 164.68 C 161.92 165.62 162.40 166.65 163.33 167.00 C 164.26 167.34 165.29 166.86 165.64 165.93 L 165.98 165.01 C 166.32 164.08 165.85 163.04 164.91 162.70 C 163.98 162.36 162.95 162.83 162.60 163.76 Z M 162.26 164.70 L 161.92 165.63 C 161.58 166.57 162.07 167.60 163.00 167.94 C 163.94 168.27 164.97 167.79 165.31 166.85 L 165.64 165.92 C 165.98 164.98 165.50 163.95 164.56 163.61 C 163.63 163.28 162.60 163.76 162.26 164.70 Z M 161.92 165.65 L 161.58 166.59 C 161.25 167.53 161.75 168.56 162.68 168.89 C 163.62 169.22 164.65 168.73 164.98 167.79 L 165.31 166.84 C 165.64 165.90 165.15 164.88 164.21 164.55 C 163.27 164.22 162.25 164.71 161.92 165.65 Z M 161.58 166.61 L 161.25 167.57 C 160.93 168.51 161.43 169.53 162.37 169.85 C 163.31 170.17 164.33 169.67 164.65 168.74 L 164.98 167.78 C 165.30 166.84 164.80 165.81 163.86 165.49 C 162.93 165.17 161.90 165.67 161.58 166.61 Z M 161.25 167.58 L 160.92 168.54 C 160.60 169.49 161.11 170.51 162.05 170.82 C 163.00 171.14 164.02 170.63 164.33 169.69 L 164.66 168.72 C 164.97 167.78 164.46 166.76 163.52 166.45 C 162.58 166.13 161.56 166.64 161.25 167.58 Z M 160.92 168.56 L 160.60 169.53 C 160.29 170.47 160.80 171.49 161.75 171.80 C 162.69 172.11 163.71 171.59 164.02 170.65 L 164.34 169.68 C 164.64 168.73 164.13 167.72 163.19 167.41 C 162.24 167.10 161.23 167.61 160.92 168.56 Z M 160.59 169.54 L 160.28 170.52 C 159.98 171.46 160.50 172.48 161.45 172.78 C 162.40 173.08 163.41 172.56 163.71 171.61 L 164.02 170.64 C 164.32 169.69 163.80 168.68 162.85 168.38 C 161.91 168.07 160.90 168.60 160.59 169.54 Z M 160.28 170.53 L 159.99 171.45 C 159.70 172.40 160.23 173.41 161.17 173.71 C 162.12 174.00 163.13 173.47 163.43 172.52 L 163.71 171.60 C 164.01 170.65 163.48 169.64 162.53 169.35 C 161.58 169.05 160.57 169.58 160.28 170.53 Z M 159.99 171.47 L 159.71 172.37 C 159.43 173.32 159.96 174.32 160.91 174.61 C 161.86 174.90 162.87 174.36 163.16 173.41 L 163.43 172.51 C 163.72 171.56 163.18 170.56 162.23 170.27 C 161.28 169.98 160.28 170.52 159.99 171.47 Z M 159.71 172.38 L 159.44 173.29 C 159.16 174.24 159.71 175.24 160.66 175.52 C 161.61 175.80 162.61 175.26 162.89 174.31 L 163.16 173.40 C 163.44 172.45 162.90 171.45 161.94 171.16 C 160.99 170.88 159.99 171.43 159.71 172.38 Z M 159.44 173.30 L 159.18 174.22 C 158.90 175.17 159.45 176.17 160.41 176.44 C 161.36 176.72 162.36 176.17 162.63 175.21 L 162.90 174.29 C 163.17 173.34 162.62 172.34 161.66 172.07 C 160.71 171.79 159.71 172.35 159.44 173.30 Z M 159.17 174.23 L 158.91 175.17 C 158.64 176.12 159.20 177.12 160.16 177.38 C 161.12 177.65 162.11 177.09 162.38 176.13 L 162.64 175.20 C 162.90 174.24 162.34 173.25 161.39 172.98 C 160.43 172.72 159.44 173.28 159.17 174.23 Z M 158.91 175.18 L 158.65 176.13 C 158.39 177.09 158.96 178.08 159.92 178.34 C 160.88 178.60 161.86 178.03 162.12 177.07 L 162.38 176.12 C 162.64 175.16 162.07 174.17 161.11 173.91 C 160.15 173.65 159.17 174.22 158.91 175.18 Z M 158.65 176.15 L 158.39 177.13 C 158.14 178.09 158.71 179.07 159.68 179.32 C 160.64 179.57 161.62 179.00 161.87 178.04 L 162.13 177.06 C 162.38 176.10 161.80 175.12 160.84 174.86 C 159.88 174.61 158.90 175.19 158.65 176.15 Z M 158.39 177.14 L 158.13 178.14 C 157.89 179.11 158.47 180.09 159.43 180.33 C 160.40 180.57 161.37 179.99 161.62 179.03 L 161.87 178.02 C 162.12 177.06 161.54 176.08 160.57 175.84 C 159.61 175.59 158.63 176.18 158.39 177.14 Z M 158.13 178.16 L 157.87 179.19 C 157.64 180.16 158.23 181.13 159.19 181.37 C 160.15 181.61 161.13 181.02 161.37 180.05 L 161.62 179.02 C 161.86 178.05 161.27 177.08 160.31 176.84 C 159.34 176.60 158.37 177.19 158.13 178.16 Z M 157.87 179.21 L 157.61 180.28 C 157.38 181.25 157.98 182.22 158.94 182.45 C 159.91 182.68 160.88 182.08 161.11 181.12 L 161.37 180.04 C 161.60 179.08 161.00 178.11 160.04 177.87 C 159.07 177.64 158.10 178.24 157.87 179.21 Z M 157.61 180.29 L 157.39 181.23 C 157.17 182.19 157.77 183.16 158.74 183.39 C 159.70 183.61 160.67 183.01 160.90 182.04 L 161.12 181.11 C 161.34 180.14 160.74 179.17 159.77 178.95 C 158.80 178.72 157.84 179.32 157.61 180.29 Z M 157.39 181.24 L 157.18 182.17 C 156.96 183.14 157.57 184.10 158.54 184.32 C 159.50 184.54 160.47 183.93 160.69 182.96 L 160.90 182.03 C 161.12 181.06 160.51 180.10 159.54 179.88 C 158.57 179.66 157.61 180.27 157.39 181.24 Z M 157.18 182.18 L 156.97 183.13 C 156.75 184.10 157.37 185.06 158.34 185.27 C 159.31 185.49 160.27 184.87 160.48 183.90 L 160.69 182.95 C 160.90 181.98 160.29 181.02 159.32 180.81 C 158.35 180.59 157.39 181.21 157.18 182.18 Z M 156.96 183.14 L 156.76 184.11 C 156.55 185.08 157.17 186.04 158.14 186.25 C 159.11 186.45 160.07 185.83 160.28 184.86 L 160.48 183.89 C 160.69 182.92 160.07 181.97 159.10 181.76 C 158.13 181.55 157.17 182.17 156.96 183.14 Z M 156.75 184.12 L 156.55 185.11 C 156.35 186.08 156.97 187.03 157.95 187.23 C 158.92 187.43 159.87 186.81 160.07 185.84 L 160.28 184.85 C 160.48 183.88 159.85 182.93 158.88 182.72 C 157.91 182.52 156.96 183.15 156.75 184.12 Z M 156.55 185.12 L 156.35 186.11 C 156.16 187.09 156.79 188.04 157.76 188.23 C 158.74 188.43 159.68 187.79 159.88 186.82 L 160.08 185.82 C 160.27 184.85 159.64 183.90 158.66 183.71 C 157.69 183.51 156.74 184.14 156.55 185.12 Z M 156.35 186.13 L 156.15 187.13 C 155.97 188.11 156.61 189.05 157.58 189.24 C 158.56 189.42 159.50 188.78 159.69 187.81 L 159.88 186.80 C 160.07 185.83 159.43 184.89 158.45 184.70 C 157.48 184.51 156.53 185.15 156.35 186.13 Z M 156.15 187.15 L 155.97 188.16 C 155.79 189.13 156.44 190.07 157.41 190.25 C 158.39 190.43 159.33 189.78 159.51 188.80 L 159.69 187.79 C 159.87 186.82 159.22 185.88 158.24 185.70 C 157.27 185.52 156.33 186.17 156.15 187.15 Z M 155.96 188.17 L 155.79 189.18 C 155.62 190.16 156.28 191.09 157.26 191.26 C 158.24 191.43 159.17 190.78 159.34 189.80 L 159.51 188.79 C 159.68 187.81 159.02 186.88 158.04 186.71 C 157.07 186.54 156.13 187.19 155.96 188.17 Z M 155.79 189.20 L 155.62 190.21 C 155.46 191.19 156.13 192.12 157.11 192.27 C 158.09 192.43 159.02 191.77 159.17 190.79 L 159.34 189.78 C 159.50 188.80 158.83 187.87 157.85 187.71 C 156.87 187.56 155.95 188.22 155.79 189.20 Z M 155.62 190.23 L 155.47 191.23 C 155.32 192.22 156.00 193.13 156.98 193.28 C 157.96 193.43 158.88 192.75 159.03 191.77 L 159.18 190.77 C 159.33 189.79 158.65 188.87 157.67 188.72 C 156.69 188.57 155.77 189.25 155.62 190.23 Z M 155.47 191.26 L 155.33 192.25 C 155.19 193.24 155.88 194.14 156.86 194.28 C 157.85 194.42 158.75 193.73 158.89 192.75 L 159.03 191.75 C 159.17 190.77 158.48 189.86 157.49 189.72 C 156.51 189.58 155.60 190.27 155.47 191.26 Z M 155.32 192.28 L 155.19 193.39 C 155.06 194.37 155.76 195.27 156.75 195.39 C 157.73 195.52 158.63 194.82 158.76 193.83 L 158.89 192.72 C 159.02 191.74 158.32 190.84 157.33 190.71 C 156.35 190.59 155.45 191.29 155.32 192.28 Z M 155.18 193.41 L 155.06 194.53 C 154.95 195.52 155.66 196.41 156.65 196.52 C 157.64 196.63 158.53 195.91 158.64 194.93 L 158.76 193.80 C 158.87 192.82 158.15 191.93 157.17 191.82 C 156.18 191.71 155.29 192.42 155.18 193.41 Z M 155.06 194.56 L 154.95 195.66 C 154.86 196.65 155.58 197.52 156.57 197.62 C 157.56 197.71 158.44 196.99 158.53 196.00 L 158.64 194.90 C 158.73 193.91 158.01 193.03 157.02 192.94 C 156.03 192.84 155.15 193.57 155.06 194.56 Z M 154.95 195.68 L 154.86 196.75 C 154.78 197.74 155.52 198.61 156.51 198.69 C 157.50 198.77 158.37 198.04 158.45 197.05 L 158.54 195.97 C 158.62 194.98 157.88 194.12 156.89 194.04 C 155.90 193.95 155.03 194.69 154.95 195.68 Z M 154.86 196.78 L 154.79 197.82 C 154.72 198.81 155.47 199.67 156.46 199.74 C 157.45 199.81 158.31 199.06 158.38 198.07 L 158.45 197.02 C 158.52 196.03 157.77 195.17 156.78 195.11 C 155.79 195.04 154.93 195.79 154.86 196.78 Z M 154.79 197.84 L 154.73 198.85 C 154.67 199.84 155.43 200.69 156.43 200.75 C 157.42 200.80 158.27 200.05 158.32 199.05 L 158.38 198.04 C 158.44 197.05 157.68 196.20 156.68 196.15 C 155.69 196.09 154.84 196.85 154.79 197.84 Z M 154.73 198.87 L 154.69 199.84 C 154.64 200.84 155.41 201.68 156.40 201.72 C 157.40 201.77 158.24 201.00 158.28 200.00 L 158.32 199.03 C 158.37 198.04 157.60 197.20 156.61 197.16 C 155.61 197.11 154.77 197.88 154.73 198.87 Z M 154.69 199.87 L 154.65 200.80 C 154.62 201.79 155.40 202.62 156.39 202.65 C 157.39 202.69 158.22 201.91 158.25 200.92 L 158.28 199.98 C 158.31 198.99 157.54 198.16 156.54 198.13 C 155.55 198.09 154.72 198.87 154.69 199.87 Z M 154.65 200.82 L 154.63 201.71 C 154.61 202.70 155.40 203.52 156.39 203.54 C 157.39 203.57 158.21 202.78 158.23 201.79 L 158.25 200.90 C 158.27 199.90 157.48 199.08 156.49 199.06 C 155.50 199.04 154.68 199.82 154.65 200.82 Z M 154.63 201.72 L 154.62 202.57 C 154.61 203.56 155.41 204.37 156.40 204.38 C 157.40 204.40 158.21 203.60 158.22 202.61 L 158.23 201.77 C 158.24 200.77 157.45 199.96 156.45 199.95 C 155.46 199.94 154.65 200.73 154.63 201.72 Z M 154.62 202.59 L 154.63 203.59 C 154.63 204.59 155.43 205.39 156.42 205.39 C 157.42 205.39 158.22 204.58 158.22 203.59 L 158.22 202.58 C 158.22 201.59 157.41 200.79 156.42 200.79 C 155.43 200.79 154.62 201.59 154.62 202.59 Z M 154.63 203.64 L 154.66 204.84 C 154.68 205.83 155.51 206.61 156.50 206.59 C 157.49 206.56 158.28 205.74 158.25 204.75 L 158.22 203.55 C 158.20 202.55 157.37 201.77 156.38 201.79 C 155.38 201.82 154.60 202.64 154.63 203.64 Z M 154.66 204.93 L 154.74 206.00 C 154.82 206.99 155.68 207.73 156.67 207.65 C 157.66 207.58 158.41 206.71 158.33 205.72 L 158.25 204.65 C 158.17 203.66 157.31 202.92 156.32 203.00 C 155.33 203.08 154.58 203.94 154.66 204.93 Z M 154.76 206.15 L 154.92 207.10 C 155.08 208.08 156.00 208.75 156.98 208.59 C 157.96 208.43 158.62 207.51 158.47 206.53 L 158.31 205.57 C 158.15 204.59 157.23 203.93 156.25 204.09 C 155.27 204.24 154.60 205.17 154.76 206.15 Z M 154.96 207.31 L 155.21 208.17 C 155.49 209.12 156.48 209.67 157.44 209.39 C 158.39 209.12 158.94 208.12 158.66 207.17 L 158.42 206.31 C 158.14 205.36 157.14 204.81 156.19 205.09 C 155.24 205.36 154.69 206.36 154.96 207.31 Z M 155.31 208.43 L 155.67 209.19 C 156.09 210.09 157.16 210.48 158.06 210.06 C 158.96 209.64 159.35 208.57 158.92 207.67 L 158.57 206.90 C 158.14 206.00 157.08 205.62 156.18 206.04 C 155.28 206.46 154.89 207.53 155.31 208.43 Z M 155.83 209.47 L 156.32 210.17 C 156.89 210.98 158.01 211.17 158.82 210.60 C 159.64 210.03 159.83 208.91 159.26 208.10 L 158.77 207.40 C 158.19 206.59 157.07 206.39 156.26 206.96 C 155.45 207.54 155.26 208.66 155.83 209.47 Z M 156.51 210.39 L 157.14 211.03 C 157.84 211.74 158.98 211.75 159.68 211.05 C 160.39 210.35 160.40 209.21 159.70 208.51 L 159.07 207.87 C 158.37 207.16 157.23 207.16 156.53 207.85 C 155.82 208.55 155.81 209.69 156.51 210.39 Z M 157.32 211.19 L 158.07 211.77 C 158.86 212.38 159.99 212.24 160.59 211.45 C 161.20 210.67 161.06 209.54 160.27 208.93 L 159.52 208.35 C 158.74 207.74 157.61 207.89 157.00 208.67 C 156.39 209.46 156.54 210.58 157.32 211.19 Z M 158.23 211.88 L 159.08 212.41 C 159.93 212.93 161.03 212.67 161.55 211.82 C 162.07 210.98 161.81 209.87 160.97 209.35 L 160.12 208.82 C 159.27 208.30 158.16 208.57 157.64 209.41 C 157.12 210.25 157.39 211.36 158.23 211.88 Z M 159.21 212.48 L 160.14 212.95 C 161.03 213.40 162.11 213.04 162.56 212.16 C 163.00 211.27 162.65 210.19 161.76 209.74 L 160.83 209.27 C 159.95 208.83 158.87 209.18 158.42 210.07 C 157.97 210.95 158.33 212.03 159.21 212.48 Z M 160.26 213.00 L 161.24 213.42 C 162.16 213.80 163.21 213.37 163.60 212.46 C 163.98 211.54 163.55 210.49 162.63 210.10 L 161.65 209.69 C 160.73 209.31 159.68 209.74 159.30 210.65 C 158.91 211.57 159.34 212.62 160.26 213.00 Z M 161.34 213.45 L 162.34 213.81 C 163.27 214.14 164.30 213.65 164.63 212.71 C 164.96 211.78 164.47 210.75 163.54 210.42 L 162.54 210.07 C 161.60 209.74 160.58 210.23 160.25 211.16 C 159.91 212.10 160.40 213.12 161.34 213.45 Z M 162.42 213.83 L 163.34 214.11 C 164.29 214.39 165.29 213.86 165.58 212.91 C 165.86 211.96 165.32 210.95 164.37 210.67 L 163.45 210.39 C 162.50 210.11 161.50 210.65 161.22 211.60 C 160.93 212.55 161.47 213.55 162.42 213.83 Z M 163.41 214.13 L 164.35 214.37 C 165.31 214.61 166.29 214.03 166.53 213.07 C 166.77 212.11 166.19 211.13 165.23 210.89 L 164.30 210.65 C 163.33 210.40 162.36 210.99 162.11 211.95 C 161.87 212.91 162.45 213.89 163.41 214.13 Z M 164.42 214.38 L 165.38 214.58 C 166.35 214.79 167.30 214.17 167.50 213.20 C 167.71 212.23 167.09 211.27 166.12 211.07 L 165.16 210.87 C 164.19 210.66 163.24 211.29 163.03 212.26 C 162.83 213.23 163.45 214.18 164.42 214.38 Z M 165.44 214.60 L 166.42 214.77 C 167.40 214.93 168.33 214.28 168.49 213.30 C 168.66 212.32 168.01 211.39 167.03 211.23 L 166.05 211.06 C 165.07 210.89 164.14 211.55 163.98 212.52 C 163.81 213.50 164.46 214.43 165.44 214.60 Z M 166.48 214.77 L 167.49 214.91 C 168.47 215.05 169.38 214.36 169.51 213.38 C 169.65 212.40 168.96 211.49 167.98 211.36 L 166.97 211.22 C 165.99 211.08 165.08 211.77 164.95 212.75 C 164.81 213.73 165.50 214.64 166.48 214.77 Z M 167.54 214.92 L 168.58 215.03 C 169.57 215.13 170.45 214.42 170.56 213.43 C 170.66 212.45 169.95 211.56 168.96 211.46 L 167.92 211.35 C 166.94 211.24 166.05 211.96 165.95 212.94 C 165.84 213.93 166.56 214.81 167.54 214.92 Z M 168.63 215.03 L 169.67 215.12 C 170.66 215.20 171.52 214.46 171.60 213.47 C 171.68 212.48 170.95 211.62 169.96 211.54 L 168.91 211.46 C 167.93 211.38 167.06 212.11 166.98 213.10 C 166.90 214.09 167.64 214.95 168.63 215.03 Z M 169.71 215.12 L 170.69 215.18 C 171.68 215.24 172.53 214.48 172.59 213.49 C 172.64 212.50 171.89 211.65 170.90 211.59 L 169.92 211.54 C 168.93 211.48 168.08 212.23 168.02 213.22 C 167.96 214.21 168.72 215.06 169.71 215.12 Z M 170.72 215.18 L 171.72 215.22 C 172.71 215.26 173.55 214.50 173.59 213.51 C 173.63 212.51 172.86 211.68 171.87 211.64 L 170.87 211.59 C 169.88 211.55 169.04 212.32 169.00 213.31 C 168.96 214.30 169.73 215.14 170.72 215.18 Z M 171.74 215.22 L 172.76 215.25 C 173.75 215.28 174.57 214.50 174.60 213.51 C 174.63 212.52 173.85 211.69 172.86 211.66 L 171.85 211.63 C 170.86 211.61 170.03 212.39 170.00 213.38 C 169.97 214.37 170.75 215.19 171.74 215.22 Z M 172.77 215.25 L 173.79 215.27 C 174.78 215.29 175.60 214.50 175.62 213.51 C 175.64 212.52 174.85 211.70 173.86 211.68 L 172.84 211.66 C 171.85 211.65 171.03 212.43 171.01 213.42 C 171.00 214.42 171.78 215.23 172.77 215.25 Z M 173.81 215.27 L 174.82 215.28 C 175.81 215.29 176.63 214.50 176.64 213.51 C 176.65 212.52 175.85 211.70 174.86 211.69 L 173.85 211.68 C 172.85 211.67 172.04 212.47 172.03 213.46 C 172.02 214.45 172.82 215.26 173.81 215.27 Z M 174.83 215.28 L 175.84 215.29 C 176.83 215.29 177.64 214.49 177.64 213.50 C 177.65 212.51 176.85 211.70 175.86 211.70 L 174.85 211.69 C 173.86 211.69 173.05 212.49 173.05 213.48 C 173.04 214.47 173.84 215.28 174.83 215.28 Z M 175.84 215.29 L 176.83 215.29 C 177.82 215.29 178.63 214.49 178.63 213.50 C 178.63 212.51 177.83 211.70 176.84 211.70 L 175.85 211.70 C 174.86 211.70 174.05 212.50 174.05 213.49 C 174.05 214.48 174.85 215.29 175.84 215.29 Z M 176.83 215.29 L 177.86 215.29 C 178.85 215.29 179.65 214.49 179.65 213.49 C 179.65 212.50 178.85 211.70 177.86 211.70 L 176.83 211.70 C 175.84 211.70 175.04 212.50 175.04 213.49 C 175.04 214.49 175.84 215.29 176.83 215.29 Z M 177.86 215.29 L 178.92 215.29 C 179.91 215.29 180.72 214.49 180.72 213.49 C 180.72 212.50 179.91 211.70 178.92 211.70 L 177.86 211.70 C 176.87 211.70 176.06 212.50 176.06 213.49 C 176.06 214.49 176.87 215.29 177.86 215.29 Z M 178.92 215.29 L 179.95 215.29 C 180.94 215.29 181.75 214.49 181.75 213.49 C 181.75 212.50 180.94 211.70 179.95 211.70 L 178.92 211.70 C 177.93 211.70 177.13 212.50 177.13 213.49 C 177.13 214.49 177.93 215.29 178.92 215.29 Z M 179.95 215.29 L 180.96 215.29 C 181.95 215.29 182.75 214.49 182.75 213.49 C 182.75 212.50 181.95 211.70 180.96 211.70 L 179.95 211.70 C 178.96 211.70 178.16 212.50 178.16 213.49 C 178.16 214.49 178.96 215.29 179.95 215.29 Z M 180.96 215.29 L 181.94 215.29 C 182.93 215.29 183.73 214.49 183.73 213.49 C 183.73 212.50 182.93 211.70 181.94 211.70 L 180.96 211.70 C 179.96 211.70 179.16 212.50 179.16 213.49 C 179.16 214.49 179.96 215.29 180.96 215.29 Z M 181.94 215.29 L 182.90 215.29 C 183.89 215.29 184.69 214.49 184.69 213.49 C 184.69 212.50 183.89 211.70 182.90 211.70 L 181.94 211.70 C 180.94 211.70 180.14 212.50 180.14 213.49 C 180.14 214.49 180.94 215.29 181.94 215.29 Z M 182.90 215.29 L 183.84 215.29 C 184.83 215.29 185.64 214.49 185.64 213.49 C 185.64 212.50 184.83 211.70 183.84 211.70 L 182.90 211.70 C 181.91 211.70 181.10 212.50 181.10 213.49 C 181.10 214.49 181.91 215.29 182.90 215.29 Z M 183.84 215.29 L 184.83 215.29 C 185.82 215.29 186.62 214.49 186.62 213.49 C 186.62 212.50 185.82 211.70 184.83 211.70 L 183.84 211.70 C 182.85 211.70 182.05 212.50 182.05 213.49 C 182.05 214.49 182.85 215.29 183.84 215.29 Z M 184.83 215.29 L 185.84 215.29 C 186.83 215.29 187.64 214.48 187.64 213.49 C 187.64 212.50 186.83 211.70 185.84 211.70 L 184.83 211.70 C 183.84 211.70 183.04 212.50 183.04 213.49 C 183.04 214.48 183.84 215.29 184.83 215.29 Z M 185.84 215.29 L 186.85 215.29 C 187.84 215.29 188.64 214.48 188.64 213.49 C 188.64 212.51 187.84 211.70 186.85 211.70 L 185.84 211.70 C 184.85 211.70 184.05 212.51 184.05 213.49 C 184.05 214.48 184.85 215.29 185.84 215.29 Z M 186.85 215.29 L 187.84 215.29 C 188.83 215.29 189.63 214.48 189.63 213.49 C 189.63 212.51 188.83 211.70 187.84 211.70 L 186.85 211.70 C 185.86 211.70 185.06 212.51 185.06 213.49 C 185.06 214.48 185.86 215.29 186.85 215.29 Z M 187.84 215.28 L 188.84 215.28 C 189.82 215.28 190.63 214.48 190.63 213.49 C 190.63 212.51 189.82 211.70 188.84 211.70 L 187.84 211.70 C 186.85 211.70 186.05 212.51 186.05 213.49 C 186.05 214.48 186.85 215.28 187.84 215.28 Z M 188.84 215.28 L 189.83 215.28 C 190.81 215.28 191.61 214.48 191.61 213.49 C 191.61 212.51 190.81 211.71 189.83 211.71 L 188.84 211.71 C 187.85 211.71 187.05 212.51 187.05 213.49 C 187.05 214.48 187.85 215.28 188.84 215.28 Z M 189.83 215.28 L 190.82 215.28 C 191.81 215.28 192.61 214.48 192.61 213.49 C 192.61 212.51 191.81 211.71 190.82 211.71 L 189.83 211.71 C 188.84 211.71 188.04 212.51 188.04 213.49 C 188.04 214.48 188.84 215.28 189.83 215.28 Z M 190.82 215.28 L 191.83 215.28 C 192.81 215.28 193.61 214.48 193.61 213.49 C 193.61 212.51 192.81 211.71 191.83 211.71 L 190.82 211.71 C 189.83 211.71 189.03 212.51 189.03 213.49 C 189.03 214.48 189.83 215.28 190.82 215.28 Z M 191.83 215.28 L 192.83 215.28 C 193.82 215.28 194.61 214.48 194.61 213.49 C 194.61 212.51 193.82 211.71 192.83 211.71 L 191.83 211.71 C 190.84 211.71 190.04 212.51 190.04 213.49 C 190.04 214.48 190.84 215.28 191.83 215.28 Z M 192.83 215.28 L 193.83 215.28 C 194.82 215.28 195.61 214.48 195.61 213.49 C 195.61 212.51 194.82 211.71 193.83 211.71 L 192.83 211.71 C 191.85 211.71 191.05 212.51 191.05 213.49 C 191.05 214.48 191.85 215.28 192.83 215.28 Z M 193.83 215.28 L 194.83 215.28 C 195.81 215.28 196.61 214.48 196.61 213.49 C 196.61 212.51 195.81 211.71 194.83 211.71 L 193.83 211.71 C 192.85 211.71 192.05 212.51 192.05 213.49 C 192.05 214.48 192.85 215.28 193.83 215.28 Z M 194.83 215.27 L 195.83 215.27 C 196.81 215.27 197.60 214.48 197.60 213.49 C 197.60 212.51 196.81 211.72 195.83 211.72 L 194.83 211.72 C 193.85 211.72 193.05 212.51 193.05 213.49 C 193.05 214.48 193.85 215.27 194.83 215.27 Z M 195.83 215.27 L 196.83 215.27 C 197.81 215.27 198.60 214.48 198.60 213.49 C 198.60 212.51 197.81 211.72 196.83 211.72 L 195.83 211.72 C 194.84 211.72 194.05 212.51 194.05 213.49 C 194.05 214.48 194.84 215.27 195.83 215.27 Z M 196.83 215.27 L 197.86 215.27 C 198.84 215.27 199.63 214.47 199.63 213.49 C 199.63 212.52 198.84 211.72 197.86 211.72 L 196.83 211.72 C 195.85 211.72 195.05 212.52 195.05 213.49 C 195.05 214.47 195.85 215.27 196.83 215.27 Z M 197.86 215.26 L 198.88 215.26 C 199.86 215.26 200.65 214.47 200.65 213.49 C 200.65 212.52 199.86 211.73 198.88 211.73 L 197.86 211.73 C 196.88 211.73 196.09 212.52 196.09 213.49 C 196.09 214.47 196.88 215.26 197.86 215.26 Z M 198.88 215.26 L 199.89 215.26 C 200.86 215.26 201.65 214.47 201.65 213.49 C 201.65 212.52 200.86 211.73 199.89 211.73 L 198.88 211.73 C 197.90 211.73 197.11 212.52 197.11 213.49 C 197.11 214.47 197.90 215.26 198.88 215.26 Z M 199.89 215.26 L 200.88 215.26 C 201.85 215.26 202.64 214.47 202.64 213.49 C 202.64 212.52 201.85 211.73 200.88 211.73 L 199.89 211.73 C 198.91 211.73 198.13 212.52 198.13 213.49 C 198.13 214.47 198.91 215.26 199.89 215.26 Z M 200.88 215.25 L 201.85 215.25 C 202.82 215.25 203.60 214.47 203.60 213.49 C 203.60 212.52 202.82 211.74 201.85 211.74 L 200.88 211.74 C 199.91 211.74 199.12 212.52 199.12 213.49 C 199.12 214.47 199.91 215.25 200.88 215.25 Z M 201.85 215.25 L 202.82 215.25 C 203.79 215.25 204.58 214.46 204.58 213.49 C 204.58 212.53 203.79 211.74 202.82 211.74 L 201.85 211.74 C 200.88 211.74 200.09 212.53 200.09 213.49 C 200.09 214.46 200.88 215.25 201.85 215.25 Z M 202.82 215.25 L 203.82 215.25 C 204.79 215.25 205.57 214.46 205.57 213.49 C 205.57 212.53 204.79 211.74 203.82 211.74 L 202.82 211.74 C 201.86 211.74 201.07 212.53 201.07 213.49 C 201.07 214.46 201.86 215.25 202.82 215.25 Z M 203.82 215.25 L 204.81 215.25 C 205.78 215.25 206.56 214.46 206.56 213.49 C 206.56 212.53 205.78 211.74 204.81 211.74 L 203.82 211.74 C 202.86 211.74 202.07 212.53 202.07 213.49 C 202.07 214.46 202.86 215.25 203.82 215.25 Z M 204.81 215.24 L 205.80 215.24 C 206.76 215.24 207.54 214.46 207.54 213.49 C 207.54 212.53 206.76 211.75 205.80 211.75 L 204.81 211.75 C 203.84 211.75 203.06 212.53 203.06 213.49 C 203.06 214.46 203.84 215.24 204.81 215.24 Z M 205.80 215.24 L 206.79 215.24 C 207.76 215.24 208.54 214.46 208.54 213.49 C 208.54 212.53 207.76 211.75 206.79 211.75 L 205.80 211.75 C 204.83 211.75 204.05 212.53 204.05 213.49 C 204.05 214.46 204.83 215.24 205.80 215.24 Z M 206.79 215.24 L 207.82 215.24 C 208.78 215.24 209.57 214.46 209.57 213.49 C 209.57 212.53 208.78 211.75 207.82 211.75 L 206.79 211.75 C 205.83 211.75 205.05 212.53 205.05 213.49 C 205.05 214.46 205.83 215.24 206.79 215.24 Z M 207.82 215.25 L 208.81 215.25 C 209.78 215.24 210.56 214.46 210.56 213.49 C 210.56 212.52 209.77 211.74 208.80 211.74 L 207.81 211.74 C 206.84 211.74 206.06 212.53 206.06 213.50 C 206.07 214.47 206.85 215.25 207.82 215.25 Z M 208.84 215.26 L 209.84 215.24 C 210.82 215.22 211.60 214.42 211.58 213.44 C 211.56 212.47 210.76 211.69 209.78 211.71 L 208.77 211.72 C 207.80 211.74 207.02 212.55 207.04 213.52 C 207.05 214.50 207.86 215.28 208.84 215.26 Z M 209.90 215.26 L 210.91 215.20 C 211.89 215.16 212.65 214.32 212.60 213.34 C 212.55 212.35 211.72 211.59 210.73 211.64 L 209.72 211.69 C 208.74 211.74 207.98 212.58 208.03 213.56 C 208.08 214.55 208.92 215.30 209.90 215.26 Z M 211.00 215.21 L 212.00 215.12 C 212.99 215.02 213.71 214.14 213.62 213.15 C 213.52 212.16 212.64 211.44 211.65 211.54 L 210.65 211.63 C 209.66 211.73 208.94 212.61 209.03 213.60 C 209.13 214.59 210.01 215.31 211.00 215.21 Z M 212.12 215.11 L 213.10 214.95 C 214.09 214.79 214.76 213.86 214.60 212.87 C 214.43 211.88 213.50 211.21 212.51 211.38 L 211.53 211.54 C 210.55 211.70 209.88 212.63 210.04 213.62 C 210.20 214.61 211.13 215.28 212.12 215.11 Z M 213.26 214.93 L 214.23 214.68 C 215.21 214.43 215.80 213.44 215.55 212.46 C 215.30 211.49 214.30 210.90 213.32 211.15 L 212.36 211.40 C 211.38 211.65 210.79 212.64 211.04 213.62 C 211.29 214.59 212.28 215.18 213.26 214.93 Z M 214.43 214.63 L 215.42 214.25 C 216.37 213.89 216.84 212.84 216.48 211.89 C 216.13 210.95 215.07 210.47 214.12 210.83 L 213.13 211.20 C 212.18 211.56 211.71 212.62 212.06 213.57 C 212.42 214.51 213.48 214.99 214.43 214.63 Z M 215.63 214.16 L 216.54 213.68 C 217.44 213.20 217.78 212.09 217.30 211.20 C 216.83 210.30 215.72 209.96 214.82 210.44 L 213.91 210.92 C 213.02 211.40 212.68 212.51 213.15 213.40 C 213.63 214.30 214.74 214.64 215.63 214.16 Z M 216.76 213.54 L 217.56 212.96 C 218.38 212.36 218.57 211.21 217.97 210.39 C 217.37 209.57 216.23 209.39 215.41 209.99 L 214.60 210.57 C 213.78 211.17 213.60 212.32 214.20 213.14 C 214.79 213.96 215.94 214.14 216.76 213.54 Z M 217.79 212.77 L 218.46 212.09 C 219.18 211.37 219.18 210.21 218.46 209.49 C 217.74 208.78 216.58 208.78 215.86 209.50 L 215.18 210.18 C 214.47 210.89 214.47 212.06 215.19 212.78 C 215.91 213.49 217.07 213.49 217.79 212.77 Z M 218.68 211.84 L 219.20 211.07 C 219.78 210.23 219.57 209.09 218.73 208.51 C 217.89 207.94 216.74 208.15 216.17 208.99 L 215.64 209.75 C 215.07 210.59 215.28 211.74 216.12 212.31 C 216.96 212.89 218.10 212.67 218.68 211.84 Z M 219.38 210.75 L 219.74 209.92 C 220.14 208.98 219.70 207.90 218.77 207.50 C 217.83 207.10 216.75 207.53 216.35 208.47 L 215.99 209.30 C 215.59 210.24 216.03 211.32 216.96 211.72 C 217.90 212.12 218.98 211.69 219.38 210.75 Z M 219.85 209.61 L 220.05 208.70 C 220.28 207.70 219.66 206.71 218.66 206.48 C 217.67 206.25 216.68 206.88 216.45 207.87 L 216.24 208.78 C 216.01 209.78 216.63 210.77 217.63 211.00 C 218.63 211.22 219.62 210.60 219.85 209.61 Z M 220.10 208.43 L 220.18 207.46 C 220.26 206.43 219.50 205.54 218.48 205.46 C 217.46 205.38 216.56 206.14 216.48 207.16 L 216.40 208.14 C 216.32 209.16 217.08 210.05 218.10 210.13 C 219.13 210.21 220.02 209.45 220.10 208.43 Z M 220.19 207.25 L 220.15 206.21 C 220.12 205.18 219.26 204.38 218.23 204.41 C 217.21 204.45 216.40 205.31 216.44 206.33 L 216.47 207.37 C 216.50 208.40 217.36 209.20 218.39 209.17 C 219.42 209.13 220.22 208.27 220.19 207.25 Z M 220.15 206.05 L 220.02 204.96 C 219.90 203.94 218.97 203.21 217.95 203.33 C 216.92 203.45 216.19 204.37 216.31 205.40 L 216.44 206.49 C 216.56 207.51 217.49 208.24 218.51 208.12 C 219.54 208.00 220.27 207.08 220.15 206.05 Z M 220.01 204.86 L 219.84 203.91 C 219.66 202.89 218.69 202.21 217.68 202.39 C 216.66 202.57 215.98 203.54 216.16 204.55 L 216.33 205.50 C 216.50 206.52 217.47 207.20 218.49 207.02 C 219.50 206.84 220.18 205.87 220.01 204.86 Z M 219.83 203.85 L 219.64 202.93 C 219.42 201.92 218.43 201.28 217.42 201.49 C 216.41 201.70 215.77 202.69 215.98 203.70 L 216.17 204.62 C 216.38 205.63 217.38 206.27 218.39 206.06 C 219.40 205.85 220.04 204.86 219.83 203.85 Z M 219.63 202.89 L 219.41 201.95 C 219.17 200.95 218.17 200.32 217.16 200.56 C 216.16 200.79 215.54 201.80 215.77 202.80 L 215.99 203.74 C 216.22 204.75 217.23 205.37 218.23 205.14 C 219.24 204.90 219.86 203.90 219.63 202.89 Z M 219.40 201.93 L 219.16 200.96 C 218.92 199.96 217.91 199.35 216.91 199.59 C 215.91 199.84 215.29 200.85 215.54 201.85 L 215.78 202.82 C 216.02 203.82 217.03 204.44 218.03 204.19 C 219.03 203.95 219.65 202.94 219.40 201.93 Z M 219.16 200.96 L 218.92 199.96 C 218.67 198.96 217.66 198.35 216.66 198.60 C 215.66 198.84 215.05 199.85 215.29 200.85 L 215.54 201.85 C 215.79 202.85 216.80 203.47 217.80 203.22 C 218.80 202.97 219.41 201.96 219.16 200.96 Z M 218.92 199.97 L 218.67 198.95 C 218.43 197.95 217.43 197.33 216.43 197.57 C 215.42 197.81 214.81 198.81 215.05 199.81 L 215.29 200.84 C 215.53 201.84 216.54 202.46 217.54 202.22 C 218.54 201.98 219.16 200.98 218.92 199.97 Z M 218.68 198.97 L 218.44 197.92 C 218.22 196.91 217.22 196.28 216.22 196.51 C 215.21 196.73 214.58 197.73 214.80 198.73 L 215.04 199.79 C 215.26 200.79 216.26 201.42 217.27 201.20 C 218.27 200.98 218.90 199.98 218.68 198.97 Z M 218.44 197.96 L 218.24 197.01 C 218.04 196.01 217.06 195.36 216.06 195.57 C 215.06 195.77 214.41 196.75 214.62 197.75 L 214.81 198.69 C 215.01 199.69 215.99 200.34 216.99 200.14 C 217.99 199.93 218.64 198.96 218.44 197.96 Z M 218.22 197.05 L 218.04 196.09 C 217.86 195.10 216.91 194.44 215.92 194.63 C 214.93 194.81 214.28 195.76 214.46 196.75 L 214.64 197.71 C 214.82 198.70 215.77 199.35 216.76 199.17 C 217.75 198.99 218.41 198.03 218.22 197.05 Z M 218.02 196.12 L 217.85 195.14 C 217.69 194.16 216.76 193.51 215.78 193.68 C 214.80 193.84 214.15 194.77 214.32 195.75 L 214.48 196.72 C 214.65 197.70 215.58 198.36 216.56 198.19 C 217.53 198.02 218.19 197.09 218.02 196.12 Z M 217.83 195.16 L 217.67 194.18 C 217.52 193.21 216.61 192.56 215.65 192.71 C 214.68 192.87 214.03 193.77 214.18 194.74 L 214.34 195.72 C 214.50 196.69 215.40 197.34 216.36 197.19 C 217.33 197.03 217.98 196.13 217.83 195.16 Z M 217.64 194.20 L 217.49 193.20 C 217.35 192.25 216.46 191.59 215.51 191.74 C 214.57 191.88 213.91 192.77 214.06 193.72 L 214.21 194.72 C 214.35 195.67 215.24 196.32 216.19 196.17 C 217.14 196.03 217.79 195.14 217.64 194.20 Z M 217.47 193.21 L 217.32 192.20 C 217.19 191.27 216.32 190.62 215.38 190.76 C 214.45 190.89 213.80 191.76 213.94 192.69 L 214.08 193.70 C 214.22 194.64 215.09 195.28 216.02 195.15 C 216.96 195.01 217.60 194.15 217.47 193.21 Z M 217.29 192.21 L 217.15 191.20 C 217.02 190.28 216.17 189.64 215.25 189.77 C 214.33 189.90 213.69 190.75 213.82 191.67 L 213.96 192.68 C 214.09 193.60 214.94 194.24 215.86 194.11 C 216.78 193.98 217.42 193.13 217.29 192.21 Z M 217.13 191.21 L 217.00 190.34 C 216.88 189.43 216.04 188.80 215.14 188.92 C 214.23 189.05 213.60 189.89 213.72 190.79 L 213.85 191.67 C 213.97 192.57 214.81 193.20 215.71 193.08 C 216.62 192.95 217.25 192.11 217.13 191.21 Z"
      fill="black"
      fill-rule="nonzero" /><path d="M 126.88 85.90 L 126.38 86.75 C 125.93 87.52 126.19 88.51 126.95 88.96 C 127.72 89.41 128.71 89.15 129.16 88.39 L 129.66 87.53 C 130.11 86.76 129.86 85.78 129.09 85.33 C 128.32 84.87 127.33 85.13 126.88 85.90 Z M 126.36 86.76 L 125.87 87.63 C 125.42 88.41 125.69 89.40 126.47 89.85 C 127.25 90.29 128.25 90.02 128.69 89.24 L 129.18 88.38 C 129.63 87.60 129.36 86.60 128.58 86.16 C 127.80 85.71 126.80 85.98 126.36 86.76 Z M 125.83 87.66 L 125.36 88.53 C 124.93 89.33 125.23 90.33 126.03 90.76 C 126.83 91.18 127.83 90.88 128.26 90.08 L 128.73 89.21 C 129.15 88.41 128.85 87.41 128.05 86.98 C 127.26 86.56 126.26 86.86 125.83 87.66 Z M 125.32 88.58 L 124.88 89.48 C 124.48 90.30 124.82 91.30 125.64 91.70 C 126.47 92.10 127.46 91.76 127.86 90.93 L 128.30 90.03 C 128.70 89.21 128.36 88.22 127.53 87.82 C 126.71 87.42 125.72 87.76 125.32 88.58 Z M 124.83 89.55 L 124.44 90.48 C 124.07 91.33 124.47 92.31 125.32 92.67 C 126.17 93.03 127.15 92.64 127.52 91.79 L 127.91 90.86 C 128.27 90.01 127.88 89.03 127.03 88.67 C 126.18 88.30 125.19 88.70 124.83 89.55 Z M 124.39 90.57 L 124.07 91.47 C 123.75 92.35 124.21 93.31 125.09 93.62 C 125.97 93.94 126.93 93.48 127.24 92.60 L 127.57 91.70 C 127.88 90.82 127.42 89.86 126.54 89.54 C 125.66 89.23 124.70 89.69 124.39 90.57 Z M 124.03 91.56 L 123.79 92.37 C 123.53 93.27 124.05 94.21 124.95 94.47 C 125.85 94.73 126.79 94.21 127.05 93.32 L 127.28 92.51 C 127.54 91.61 127.03 90.67 126.13 90.41 C 125.23 90.15 124.29 90.66 124.03 91.56 Z M 123.77 92.46 L 123.57 93.31 C 123.35 94.22 123.92 95.14 124.84 95.35 C 125.75 95.56 126.66 95.00 126.88 94.08 L 127.07 93.23 C 127.29 92.32 126.72 91.40 125.81 91.19 C 124.89 90.98 123.98 91.55 123.77 92.46 Z M 123.55 93.39 L 123.38 94.30 C 123.21 95.23 123.83 96.11 124.75 96.28 C 125.68 96.45 126.56 95.84 126.73 94.91 L 126.90 94.00 C 127.07 93.08 126.45 92.19 125.53 92.02 C 124.60 91.85 123.72 92.47 123.55 93.39 Z M 123.37 94.37 L 123.23 95.35 C 123.10 96.28 123.75 97.15 124.68 97.28 C 125.62 97.41 126.48 96.76 126.61 95.82 L 126.75 94.84 C 126.88 93.91 126.22 93.05 125.29 92.92 C 124.36 92.79 123.50 93.44 123.37 94.37 Z M 123.22 95.41 L 123.11 96.47 C 123.01 97.41 123.69 98.25 124.63 98.35 C 125.57 98.45 126.41 97.77 126.51 96.83 L 126.62 95.76 C 126.72 94.82 126.04 93.98 125.10 93.89 C 124.16 93.79 123.32 94.47 123.22 95.41 Z M 123.10 96.52 L 123.01 97.68 C 122.94 98.63 123.65 99.45 124.59 99.52 C 125.54 99.59 126.36 98.88 126.43 97.94 L 126.52 96.78 C 126.59 95.83 125.88 95.01 124.94 94.94 C 123.99 94.87 123.17 95.58 123.10 96.52 Z M 123.01 97.72 L 122.94 98.89 C 122.89 99.83 123.62 100.64 124.57 100.69 C 125.52 100.74 126.32 100.02 126.38 99.07 L 126.44 97.90 C 126.49 96.96 125.76 96.15 124.81 96.10 C 123.87 96.05 123.06 96.77 123.01 97.72 Z M 122.94 98.91 L 122.90 99.86 C 122.87 100.81 123.60 101.61 124.55 101.65 C 125.50 101.69 126.30 100.95 126.34 100.00 L 126.38 99.05 C 126.42 98.10 125.68 97.30 124.73 97.26 C 123.78 97.22 122.98 97.96 122.94 98.91 Z M 122.90 99.88 L 122.87 100.87 C 122.84 101.83 123.59 102.62 124.54 102.65 C 125.49 102.68 126.29 101.93 126.31 100.98 L 126.34 99.98 C 126.37 99.03 125.63 98.24 124.67 98.21 C 123.72 98.18 122.93 98.93 122.90 99.88 Z M 122.87 100.89 L 122.84 101.91 C 122.82 102.87 123.58 103.66 124.53 103.68 C 125.48 103.70 126.27 102.95 126.29 101.99 L 126.32 100.97 C 126.34 100.01 125.58 99.22 124.63 99.20 C 123.68 99.18 122.89 99.93 122.87 100.89 Z M 122.84 101.92 L 122.82 102.97 C 122.81 103.92 123.56 104.71 124.52 104.73 C 125.47 104.74 126.26 103.98 126.28 103.03 L 126.29 101.98 C 126.31 101.03 125.55 100.24 124.60 100.23 C 123.65 100.21 122.86 100.97 122.84 101.92 Z M 122.82 102.98 L 122.81 104.03 C 122.79 104.98 123.56 105.77 124.51 105.78 C 125.47 105.79 126.25 105.03 126.26 104.08 L 126.28 103.02 C 126.29 102.07 125.53 101.28 124.57 101.27 C 123.62 101.26 122.83 102.02 122.82 102.98 Z M 122.80 104.03 L 122.79 105.08 C 122.78 106.03 123.55 106.82 124.50 106.83 C 125.46 106.84 126.24 106.07 126.25 105.12 L 126.27 104.07 C 126.28 103.11 125.51 102.33 124.55 102.32 C 123.60 102.31 122.81 103.08 122.80 104.03 Z M 122.79 105.08 L 122.78 106.11 C 122.77 107.06 123.54 107.85 124.50 107.86 C 125.45 107.87 126.24 107.10 126.25 106.14 L 126.26 105.11 C 126.27 104.16 125.50 103.37 124.54 103.36 C 123.58 103.35 122.80 104.12 122.79 105.08 Z M 122.78 106.11 L 122.77 107.10 C 122.76 108.06 123.53 108.85 124.49 108.85 C 125.45 108.86 126.23 108.09 126.24 107.13 L 126.25 106.14 C 126.26 105.18 125.49 104.40 124.53 104.39 C 123.57 104.38 122.79 105.15 122.78 106.11 Z M 122.77 107.10 L 122.76 108.05 C 122.75 109.01 123.52 109.80 124.48 109.81 C 125.44 109.82 126.22 109.05 126.23 108.09 L 126.24 107.14 C 126.25 106.18 125.48 105.39 124.52 105.38 C 123.56 105.37 122.78 106.14 122.77 107.10 Z M 122.76 108.05 L 122.74 109.04 C 122.73 110.00 123.50 110.79 124.46 110.80 C 125.42 110.81 126.21 110.05 126.22 109.08 L 126.23 108.09 C 126.25 107.13 125.48 106.34 124.52 106.33 C 123.56 106.32 122.77 107.09 122.76 108.05 Z M 122.74 109.04 L 122.72 110.25 C 122.71 111.21 123.47 112.00 124.44 112.02 C 125.40 112.03 126.19 111.26 126.20 110.30 L 126.22 109.09 C 126.24 108.13 125.47 107.34 124.51 107.32 C 123.55 107.31 122.76 108.07 122.74 109.04 Z M 122.72 110.24 L 122.70 111.33 C 122.68 112.29 123.44 113.09 124.40 113.11 C 125.36 113.13 126.16 112.37 126.18 111.41 L 126.20 110.31 C 126.23 109.35 125.46 108.56 124.50 108.53 C 123.54 108.51 122.74 109.28 122.72 110.24 Z M 122.70 111.32 L 122.67 112.33 C 122.65 113.29 123.40 114.09 124.37 114.11 C 125.33 114.14 126.13 113.38 126.15 112.42 L 126.18 111.42 C 126.21 110.46 125.45 109.65 124.49 109.63 C 123.53 109.60 122.72 110.36 122.70 111.32 Z M 122.67 112.32 L 122.64 113.25 C 122.61 114.21 123.37 115.02 124.33 115.05 C 125.29 115.08 126.09 114.32 126.13 113.36 L 126.15 112.43 C 126.19 111.47 125.43 110.66 124.47 110.63 C 123.51 110.60 122.70 111.36 122.67 112.32 Z M 122.64 113.24 L 122.61 114.13 C 122.58 115.09 123.33 115.90 124.29 115.94 C 125.25 115.97 126.06 115.22 126.09 114.25 L 126.13 113.37 C 126.16 112.40 125.41 111.60 124.45 111.56 C 123.48 111.53 122.68 112.28 122.64 113.24 Z M 122.61 114.13 L 122.58 114.99 C 122.54 115.96 123.29 116.77 124.25 116.80 C 125.22 116.84 126.03 116.09 126.06 115.12 L 126.10 114.26 C 126.13 113.30 125.38 112.49 124.42 112.45 C 123.45 112.41 122.65 113.17 122.61 114.13 Z M 122.58 114.99 L 122.54 115.90 C 122.51 116.86 123.26 117.67 124.22 117.71 C 125.18 117.74 125.99 116.99 126.03 116.03 L 126.06 115.13 C 126.10 114.16 125.35 113.35 124.39 113.32 C 123.42 113.28 122.61 114.03 122.58 114.99 Z M 122.54 115.90 L 122.51 116.86 C 122.47 117.82 123.22 118.63 124.18 118.67 C 125.15 118.70 125.96 117.95 125.99 116.99 L 126.03 116.03 C 126.07 115.07 125.32 114.26 124.35 114.22 C 123.39 114.18 122.58 114.94 122.54 115.90 Z M 122.50 116.85 L 122.47 117.83 C 122.43 118.79 123.18 119.60 124.14 119.64 C 125.10 119.68 125.92 118.93 125.96 117.97 L 125.99 116.99 C 126.03 116.03 125.28 115.22 124.32 115.18 C 123.36 115.14 122.54 115.89 122.50 116.85 Z M 122.46 117.82 L 122.42 118.82 C 122.38 119.78 123.13 120.60 124.09 120.64 C 125.05 120.68 125.87 119.93 125.91 118.97 L 125.96 117.98 C 126.00 117.01 125.25 116.20 124.29 116.15 C 123.32 116.11 122.51 116.86 122.46 117.82 Z M 122.42 118.81 L 122.37 119.82 C 122.32 120.79 123.07 121.61 124.03 121.65 C 124.99 121.70 125.81 120.96 125.86 120.00 L 125.91 118.98 C 125.96 118.02 125.22 117.20 124.25 117.15 C 123.29 117.10 122.47 117.84 122.42 118.81 Z M 122.37 119.81 L 122.31 120.85 C 122.26 121.81 123.00 122.64 123.96 122.69 C 124.92 122.75 125.75 122.01 125.80 121.04 L 125.86 120.01 C 125.92 119.04 125.18 118.22 124.21 118.16 C 123.25 118.11 122.42 118.85 122.37 119.81 Z M 122.31 120.83 L 122.25 121.86 C 122.18 122.83 122.91 123.66 123.88 123.72 C 124.84 123.78 125.67 123.05 125.74 122.09 L 125.80 121.06 C 125.87 120.09 125.13 119.26 124.17 119.20 C 123.21 119.14 122.37 119.87 122.31 120.83 Z M 122.25 121.85 L 122.17 122.82 C 122.10 123.79 122.83 124.63 123.79 124.70 C 124.76 124.77 125.59 124.04 125.66 123.08 L 125.74 122.10 C 125.81 121.14 125.08 120.30 124.12 120.23 C 123.16 120.16 122.32 120.88 122.25 121.85 Z M 122.17 122.81 L 122.09 123.80 C 122.02 124.76 122.73 125.61 123.70 125.69 C 124.66 125.77 125.50 125.05 125.58 124.08 L 125.66 123.10 C 125.74 122.13 125.03 121.29 124.06 121.21 C 123.10 121.13 122.25 121.85 122.17 122.81 Z M 122.09 123.78 L 122.00 124.78 C 121.92 125.75 122.63 126.60 123.59 126.69 C 124.55 126.77 125.41 126.06 125.49 125.10 L 125.58 124.10 C 125.67 123.14 124.96 122.29 124.00 122.20 C 123.03 122.11 122.18 122.82 122.09 123.78 Z M 122.01 124.77 L 121.91 125.77 C 121.81 126.74 122.51 127.59 123.48 127.69 C 124.44 127.78 125.30 127.08 125.39 126.12 L 125.49 125.11 C 125.59 124.15 124.88 123.29 123.92 123.20 C 122.96 123.10 122.10 123.81 122.01 124.77 Z M 121.91 125.76 L 121.80 126.76 C 121.69 127.72 122.39 128.59 123.35 128.69 C 124.31 128.80 125.18 128.10 125.28 127.14 L 125.39 126.13 C 125.50 125.17 124.80 124.31 123.84 124.20 C 122.88 124.10 122.01 124.79 121.91 125.76 Z M 121.80 126.75 L 121.68 127.75 C 121.57 128.71 122.25 129.58 123.22 129.70 C 124.18 129.81 125.05 129.12 125.16 128.16 L 125.28 127.16 C 125.39 126.20 124.71 125.32 123.75 125.21 C 122.78 125.10 121.91 125.78 121.80 126.75 Z M 121.68 127.73 L 121.55 128.73 C 121.43 129.69 122.11 130.57 123.07 130.69 C 124.03 130.82 124.91 130.14 125.03 129.18 L 125.16 128.18 C 125.28 127.22 124.61 126.34 123.64 126.21 C 122.68 126.09 121.81 126.77 121.68 127.73 Z M 121.56 128.71 L 121.42 129.71 C 121.28 130.67 121.95 131.56 122.91 131.69 C 123.87 131.83 124.76 131.16 124.89 130.20 L 125.03 129.20 C 125.16 128.24 124.49 127.35 123.53 127.22 C 122.57 127.08 121.69 127.75 121.56 128.71 Z M 121.42 129.70 L 121.27 130.69 C 121.13 131.65 121.79 132.54 122.75 132.68 C 123.70 132.83 124.60 132.17 124.74 131.21 L 124.89 130.22 C 125.03 129.26 124.37 128.36 123.41 128.22 C 122.46 128.08 121.56 128.74 121.42 129.70 Z M 121.27 130.67 L 121.11 131.66 C 120.96 132.61 121.61 133.51 122.57 133.67 C 123.53 133.82 124.43 133.17 124.58 132.21 L 124.74 131.23 C 124.89 130.27 124.24 129.37 123.28 129.21 C 122.33 129.06 121.43 129.71 121.27 130.67 Z M 121.12 131.64 L 120.95 132.62 C 120.79 133.58 121.43 134.48 122.38 134.65 C 123.34 134.81 124.25 134.17 124.41 133.21 L 124.58 132.23 C 124.74 131.27 124.10 130.37 123.14 130.20 C 122.19 130.04 121.28 130.68 121.12 131.64 Z M 120.95 132.60 L 120.77 133.58 C 120.60 134.53 121.24 135.45 122.19 135.62 C 123.14 135.79 124.06 135.16 124.23 134.21 L 124.41 133.23 C 124.58 132.27 123.95 131.36 122.99 131.19 C 122.04 131.01 121.13 131.65 120.95 132.60 Z M 120.78 133.56 L 120.59 134.54 C 120.41 135.49 121.03 136.41 121.99 136.60 C 122.94 136.78 123.86 136.15 124.04 135.20 L 124.23 134.22 C 124.41 133.27 123.79 132.35 122.83 132.17 C 121.88 131.99 120.96 132.61 120.78 133.56 Z M 120.59 134.52 L 120.40 135.49 C 120.21 136.44 120.82 137.37 121.77 137.56 C 122.72 137.75 123.65 137.14 123.84 136.19 L 124.04 135.22 C 124.23 134.27 123.61 133.34 122.66 133.15 C 121.71 132.96 120.79 133.57 120.59 134.52 Z M 120.40 135.48 L 120.20 136.44 C 120.00 137.39 120.60 138.33 121.55 138.53 C 122.50 138.73 123.43 138.12 123.64 137.17 L 123.84 136.20 C 124.04 135.25 123.43 134.32 122.48 134.12 C 121.53 133.92 120.60 134.53 120.40 135.48 Z M 120.20 136.43 L 119.98 137.40 C 119.77 138.34 120.37 139.28 121.32 139.49 C 122.27 139.70 123.21 139.11 123.42 138.16 L 123.63 137.19 C 123.84 136.24 123.24 135.30 122.30 135.09 C 121.35 134.88 120.41 135.48 120.20 136.43 Z M 119.99 137.38 L 119.76 138.35 C 119.54 139.29 120.13 140.24 121.07 140.46 C 122.02 140.68 122.97 140.09 123.19 139.15 L 123.41 138.18 C 123.63 137.23 123.05 136.29 122.10 136.07 C 121.15 135.84 120.21 136.43 119.99 137.38 Z M 119.77 138.33 L 119.53 139.30 C 119.30 140.25 119.87 141.20 120.82 141.43 C 121.76 141.66 122.71 141.08 122.94 140.14 L 123.18 139.17 C 123.41 138.22 122.84 137.27 121.89 137.04 C 120.95 136.81 120.00 137.39 119.77 138.33 Z M 119.53 139.28 L 119.28 140.26 C 119.04 141.20 119.61 142.16 120.55 142.40 C 121.49 142.64 122.45 142.08 122.69 141.14 L 122.94 140.16 C 123.18 139.22 122.61 138.26 121.67 138.02 C 120.73 137.78 119.77 138.34 119.53 139.28 Z M 119.29 140.24 L 119.02 141.22 C 118.77 142.16 119.32 143.12 120.26 143.38 C 121.20 143.63 122.17 143.07 122.42 142.14 L 122.68 141.16 C 122.94 140.22 122.38 139.25 121.44 139.00 C 120.50 138.75 119.54 139.30 119.29 140.24 Z M 119.03 141.20 L 118.76 142.15 C 118.49 143.09 119.04 144.06 119.97 144.32 C 120.91 144.59 121.88 144.04 122.14 143.11 L 122.41 142.16 C 122.68 141.22 122.13 140.25 121.20 139.98 C 120.26 139.72 119.29 140.26 119.03 141.20 Z M 118.76 142.13 L 118.48 143.08 C 118.21 144.02 118.74 144.99 119.68 145.27 C 120.61 145.54 121.59 145.01 121.86 144.08 L 122.14 143.13 C 122.41 142.19 121.88 141.22 120.95 140.94 C 120.01 140.67 119.04 141.20 118.76 142.13 Z M 118.49 143.07 L 118.20 144.02 C 117.92 144.95 118.44 145.93 119.37 146.22 C 120.30 146.50 121.28 145.97 121.57 145.04 L 121.86 144.09 C 122.14 143.16 121.61 142.18 120.68 141.90 C 119.75 141.61 118.77 142.14 118.49 143.07 Z M 118.20 144.01 L 117.90 144.96 C 117.61 145.89 118.13 146.88 119.06 147.17 C 119.98 147.46 120.97 146.94 121.26 146.01 L 121.56 145.06 C 121.85 144.13 121.34 143.14 120.41 142.85 C 119.48 142.56 118.49 143.08 118.20 144.01 Z M 117.91 144.95 L 117.60 145.90 C 117.30 146.83 117.81 147.82 118.74 148.12 C 119.66 148.42 120.65 147.91 120.95 146.98 L 121.26 146.03 C 121.56 145.10 121.05 144.11 120.12 143.81 C 119.20 143.51 118.21 144.02 117.91 144.95 Z M 117.60 145.89 L 117.29 146.85 C 116.98 147.78 117.49 148.77 118.41 149.07 C 119.33 149.38 120.33 148.87 120.63 147.95 L 120.95 146.99 C 121.25 146.07 120.75 145.07 119.83 144.77 C 118.90 144.47 117.91 144.97 117.60 145.89 Z M 117.29 146.84 L 116.97 147.80 C 116.66 148.72 117.16 149.72 118.08 150.03 C 119.00 150.34 120.00 149.84 120.31 148.92 L 120.63 147.96 C 120.94 147.04 120.44 146.04 119.52 145.73 C 118.60 145.42 117.60 145.92 117.29 146.84 Z M 116.97 147.79 L 116.65 148.74 C 116.34 149.66 116.83 150.66 117.75 150.97 C 118.67 151.29 119.67 150.79 119.99 149.87 L 120.31 148.93 C 120.62 148.01 120.13 147.01 119.21 146.69 C 118.29 146.38 117.29 146.87 116.97 147.79 Z M 116.65 148.73 L 116.33 149.67 C 116.01 150.59 116.50 151.59 117.42 151.91 C 118.34 152.23 119.34 151.74 119.66 150.82 L 119.98 149.88 C 120.30 148.96 119.81 147.96 118.89 147.64 C 117.97 147.32 116.97 147.81 116.65 148.73 Z M 116.33 149.66 L 116.00 150.60 C 115.68 151.52 116.16 152.52 117.08 152.85 C 118.00 153.17 119.00 152.69 119.33 151.77 L 119.66 150.83 C 119.98 149.91 119.50 148.91 118.58 148.58 C 117.66 148.26 116.66 148.74 116.33 149.66 Z M 116.01 150.59 L 115.67 151.53 C 115.34 152.44 115.82 153.45 116.73 153.78 C 117.65 154.11 118.66 153.63 118.98 152.72 L 119.32 151.78 C 119.65 150.86 119.17 149.86 118.26 149.53 C 117.34 149.20 116.34 149.67 116.01 150.59 Z M 115.68 151.52 L 115.33 152.45 C 114.99 153.37 115.46 154.38 116.37 154.71 C 117.29 155.05 118.30 154.58 118.63 153.67 L 118.98 152.73 C 119.32 151.82 118.85 150.81 117.94 150.47 C 117.02 150.14 116.01 150.60 115.68 151.52 Z M 115.34 152.44 L 114.98 153.38 C 114.64 154.29 115.10 155.30 116.00 155.65 C 116.91 155.99 117.93 155.53 118.27 154.62 L 118.63 153.69 C 118.97 152.78 118.51 151.76 117.60 151.42 C 116.70 151.07 115.68 151.53 115.34 152.44 Z M 114.99 153.36 L 114.62 154.30 C 114.27 155.21 114.72 156.23 115.62 156.58 C 116.53 156.93 117.55 156.49 117.90 155.58 L 118.27 154.64 C 118.62 153.73 118.17 152.71 117.27 152.36 C 116.36 152.01 115.34 152.46 114.99 153.36 Z M 114.63 154.28 L 114.26 155.21 C 113.89 156.11 114.33 157.13 115.23 157.50 C 116.14 157.86 117.16 157.42 117.53 156.52 L 117.90 155.60 C 118.26 154.69 117.82 153.67 116.92 153.31 C 116.02 152.94 114.99 153.38 114.63 154.28 Z M 114.26 155.19 L 113.89 156.09 C 113.52 156.99 113.95 158.02 114.85 158.39 C 115.74 158.76 116.77 158.33 117.15 157.43 L 117.52 156.54 C 117.89 155.64 117.46 154.61 116.56 154.24 C 115.67 153.86 114.64 154.29 114.26 155.19 Z M 113.90 156.07 L 113.52 156.97 C 113.14 157.87 113.55 158.90 114.45 159.28 C 115.34 159.66 116.38 159.24 116.76 158.35 L 117.14 157.45 C 117.52 156.55 117.10 155.52 116.21 155.14 C 115.31 154.76 114.28 155.18 113.90 156.07 Z M 113.52 156.96 L 113.13 157.87 C 112.74 158.76 113.15 159.80 114.04 160.18 C 114.94 160.57 115.97 160.16 116.36 159.27 L 116.75 158.36 C 117.14 157.47 116.73 156.43 115.84 156.05 C 114.95 155.66 113.91 156.07 113.52 156.96 Z M 113.13 157.86 L 112.73 158.77 C 112.34 159.66 112.74 160.70 113.63 161.09 C 114.52 161.48 115.56 161.08 115.95 160.19 L 116.36 159.28 C 116.75 158.39 116.34 157.35 115.45 156.96 C 114.57 156.56 113.53 156.97 113.13 157.86 Z M 112.73 158.76 L 112.32 159.68 C 111.93 160.57 112.32 161.61 113.21 162.01 C 114.10 162.40 115.14 162.01 115.54 161.12 L 115.95 160.20 C 116.35 159.31 115.95 158.27 115.06 157.87 C 114.17 157.48 113.13 157.87 112.73 158.76 Z M 112.33 159.68 L 111.91 160.61 C 111.51 161.49 111.90 162.54 112.79 162.94 C 113.67 163.34 114.72 162.94 115.12 162.06 L 115.54 161.12 C 115.94 160.24 115.54 159.19 114.65 158.80 C 113.77 158.40 112.73 158.79 112.33 159.68 Z M 111.91 160.60 L 111.48 161.55 C 111.08 162.43 111.47 163.48 112.35 163.88 C 113.24 164.28 114.28 163.89 114.69 163.00 L 115.11 162.06 C 115.52 161.17 115.12 160.13 114.24 159.73 C 113.35 159.33 112.31 159.72 111.91 160.60 Z M 111.48 161.55 L 111.07 162.46 C 110.66 163.34 111.05 164.39 111.94 164.79 C 112.82 165.19 113.87 164.80 114.27 163.91 L 114.68 163.01 C 115.09 162.12 114.70 161.08 113.81 160.67 C 112.93 160.27 111.88 160.66 111.48 161.55 Z M 111.07 162.46 L 110.65 163.36 C 110.25 164.25 110.64 165.29 111.52 165.69 C 112.41 166.10 113.45 165.71 113.86 164.82 L 114.27 163.92 C 114.67 163.03 114.28 161.99 113.40 161.58 C 112.51 161.18 111.47 161.57 111.07 162.46 Z M 110.65 163.36 L 110.24 164.27 C 109.83 165.15 110.22 166.20 111.10 166.61 C 111.99 167.01 113.03 166.62 113.44 165.74 L 113.86 164.83 C 114.26 163.94 113.87 162.90 112.99 162.49 C 112.11 162.09 111.06 162.47 110.65 163.36 Z M 110.24 164.27 L 109.82 165.18 C 109.41 166.07 109.79 167.11 110.68 167.52 C 111.56 167.93 112.60 167.54 113.01 166.66 L 113.43 165.74 C 113.84 164.86 113.46 163.81 112.57 163.41 C 111.69 163.00 110.65 163.38 110.24 164.27 Z M 109.82 165.18 L 109.39 166.09 C 108.98 166.97 109.36 168.02 110.24 168.43 C 111.13 168.84 112.17 168.46 112.58 167.58 L 113.01 166.66 C 113.42 165.78 113.04 164.74 112.16 164.33 C 111.28 163.91 110.23 164.30 109.82 165.18 Z M 109.39 166.09 L 108.97 167.00 C 108.55 167.88 108.93 168.93 109.81 169.34 C 110.69 169.75 111.74 169.38 112.15 168.50 L 112.58 167.59 C 112.99 166.71 112.62 165.66 111.74 165.24 C 110.86 164.83 109.81 165.21 109.39 166.09 Z M 108.97 166.99 L 108.54 167.89 C 108.12 168.77 108.49 169.82 109.37 170.24 C 110.25 170.66 111.30 170.29 111.72 169.41 L 112.15 168.51 C 112.57 167.63 112.19 166.58 111.32 166.16 C 110.44 165.74 109.39 166.11 108.97 166.99 Z M 108.54 167.88 L 108.11 168.77 C 107.69 169.65 108.05 170.70 108.93 171.13 C 109.80 171.55 110.85 171.18 111.28 170.31 L 111.71 169.42 C 112.13 168.54 111.77 167.49 110.89 167.07 C 110.02 166.64 108.97 167.01 108.54 167.88 Z M 108.12 168.76 L 107.67 169.68 C 107.24 170.55 107.59 171.60 108.46 172.03 C 109.34 172.46 110.39 172.11 110.82 171.24 L 111.27 170.32 C 111.70 169.45 111.35 168.39 110.47 167.96 C 109.60 167.53 108.55 167.89 108.12 168.76 Z M 107.67 169.67 L 107.21 170.59 C 106.77 171.45 107.12 172.51 107.99 172.95 C 108.86 173.38 109.92 173.03 110.35 172.17 L 110.82 171.25 C 111.25 170.38 110.90 169.32 110.03 168.88 C 109.17 168.45 108.11 168.80 107.67 169.67 Z M 107.22 170.58 L 106.75 171.48 C 106.31 172.34 106.65 173.40 107.52 173.85 C 108.38 174.29 109.44 173.95 109.88 173.08 L 110.35 172.18 C 110.79 171.31 110.45 170.25 109.58 169.81 C 108.72 169.37 107.66 169.71 107.22 170.58 Z M 106.76 171.47 L 106.30 172.36 C 105.85 173.22 106.18 174.28 107.05 174.73 C 107.91 175.18 108.97 174.84 109.42 173.98 L 109.88 173.09 C 110.33 172.23 109.99 171.17 109.13 170.72 C 108.27 170.27 107.21 170.61 106.76 171.47 Z M 106.30 172.35 L 105.84 173.23 C 105.39 174.09 105.72 175.15 106.57 175.60 C 107.43 176.06 108.50 175.73 108.95 174.87 L 109.41 173.99 C 109.86 173.13 109.53 172.07 108.67 171.62 C 107.82 171.16 106.75 171.49 106.30 172.35 Z M 105.84 173.22 L 105.38 174.09 C 104.92 174.95 105.25 176.01 106.11 176.47 C 106.96 176.92 108.03 176.60 108.48 175.74 L 108.94 174.87 C 109.40 174.02 109.08 172.95 108.22 172.50 C 107.36 172.04 106.30 172.37 105.84 173.22 Z M 105.38 174.09 L 104.92 174.95 C 104.46 175.80 104.78 176.87 105.64 177.32 C 106.49 177.78 107.56 177.46 108.01 176.61 L 108.48 175.75 C 108.94 174.89 108.62 173.83 107.76 173.37 C 106.91 172.91 105.84 173.23 105.38 174.09 Z M 104.92 174.94 L 104.46 175.80 C 104.00 176.65 104.32 177.72 105.17 178.18 C 106.02 178.64 107.09 178.32 107.55 177.47 L 108.01 176.61 C 108.47 175.76 108.16 174.70 107.30 174.23 C 106.45 173.77 105.39 174.09 104.92 174.94 Z M 104.46 175.80 L 103.98 176.68 C 103.52 177.53 103.83 178.60 104.69 179.06 C 105.54 179.52 106.60 179.21 107.06 178.36 L 107.55 177.47 C 108.01 176.62 107.69 175.55 106.84 175.09 C 105.99 174.63 104.93 174.94 104.46 175.80 Z M 103.99 176.68 L 103.50 177.56 C 103.04 178.41 103.35 179.48 104.20 179.94 C 105.05 180.40 106.11 180.09 106.58 179.24 L 107.06 178.36 C 107.53 177.51 107.21 176.45 106.37 175.98 C 105.52 175.52 104.45 175.83 103.99 176.68 Z M 103.51 177.56 L 103.02 178.43 C 102.56 179.28 102.86 180.35 103.71 180.81 C 104.56 181.28 105.63 180.97 106.09 180.12 L 106.58 179.25 C 107.04 178.40 106.73 177.33 105.89 176.87 C 105.04 176.40 103.97 176.71 103.51 177.56 Z M 103.03 178.43 L 102.54 179.30 C 102.07 180.15 102.38 181.22 103.22 181.68 C 104.07 182.15 105.13 181.85 105.60 181.00 L 106.09 180.13 C 106.56 179.28 106.25 178.22 105.41 177.75 C 104.56 177.28 103.50 177.58 103.03 178.43 Z M 102.55 179.30 L 102.06 180.17 C 101.59 181.01 101.89 182.08 102.73 182.55 C 103.57 183.02 104.64 182.72 105.11 181.88 L 105.60 181.01 C 106.07 180.17 105.77 179.10 104.93 178.63 C 104.08 178.15 103.02 178.45 102.55 179.30 Z M 102.06 180.16 L 101.57 181.03 C 101.10 181.87 101.39 182.94 102.23 183.41 C 103.07 183.89 104.14 183.59 104.62 182.75 L 105.11 181.89 C 105.58 181.05 105.29 179.98 104.45 179.50 C 103.61 179.03 102.54 179.32 102.06 180.16 Z M 101.58 181.02 L 101.08 181.88 C 100.60 182.72 100.89 183.79 101.73 184.27 C 102.57 184.75 103.64 184.46 104.12 183.62 L 104.61 182.76 C 105.09 181.92 104.80 180.85 103.96 180.37 C 103.13 179.89 102.06 180.18 101.58 181.02 Z M 101.09 181.87 L 100.58 182.75 C 100.10 183.58 100.38 184.65 101.22 185.13 C 102.05 185.62 103.12 185.34 103.61 184.50 L 104.11 183.63 C 104.60 182.79 104.31 181.72 103.48 181.24 C 102.64 180.76 101.57 181.04 101.09 181.87 Z M 100.59 182.74 L 100.08 183.61 C 99.59 184.44 99.86 185.51 100.69 186.00 C 101.53 186.49 102.60 186.21 103.09 185.38 L 103.60 184.51 C 104.09 183.68 103.81 182.61 102.98 182.12 C 102.15 181.63 101.08 181.91 100.59 182.74 Z M 100.08 183.60 L 99.56 184.47 C 99.07 185.30 99.34 186.37 100.17 186.86 C 101.00 187.36 102.07 187.09 102.56 186.26 L 103.08 185.39 C 103.57 184.56 103.30 183.49 102.47 183.00 C 101.65 182.50 100.57 182.78 100.08 183.60 Z M 99.57 184.46 L 99.05 185.32 C 98.55 186.15 98.82 187.22 99.64 187.72 C 100.46 188.22 101.54 187.95 102.04 187.13 L 102.56 186.27 C 103.05 185.44 102.79 184.37 101.97 183.87 C 101.14 183.37 100.07 183.64 99.57 184.46 Z M 99.06 185.31 L 98.53 186.16 C 98.03 186.99 98.29 188.06 99.11 188.56 C 99.93 189.07 101.00 188.81 101.51 187.99 L 102.03 187.14 C 102.53 186.32 102.28 185.24 101.45 184.74 C 100.63 184.24 99.56 184.49 99.06 185.31 Z M 98.54 186.16 L 98.02 187.00 C 97.51 187.81 97.76 188.89 98.58 189.40 C 99.39 189.91 100.47 189.66 100.98 188.84 L 101.50 188.00 C 102.01 187.18 101.76 186.11 100.94 185.60 C 100.12 185.09 99.05 185.34 98.54 186.16 Z M 98.02 186.99 L 97.50 187.82 C 96.99 188.63 97.23 189.71 98.04 190.22 C 98.86 190.73 99.93 190.49 100.44 189.68 L 100.97 188.85 C 101.48 188.04 101.24 186.96 100.43 186.45 C 99.61 185.93 98.54 186.17 98.02 186.99 Z M 97.51 187.81 L 96.96 188.66 C 96.44 189.47 96.68 190.54 97.49 191.06 C 98.30 191.58 99.37 191.35 99.89 190.54 L 100.44 189.69 C 100.96 188.88 100.72 187.80 99.91 187.28 C 99.10 186.76 98.03 187.00 97.51 187.81 Z M 96.97 188.65 L 96.41 189.51 C 95.88 190.31 96.11 191.39 96.91 191.91 C 97.72 192.44 98.80 192.21 99.32 191.41 L 99.88 190.55 C 100.41 189.74 100.18 188.67 99.38 188.14 C 98.57 187.61 97.50 187.84 96.97 188.65 Z M 96.42 189.50 L 95.86 190.34 C 95.32 191.14 95.54 192.22 96.34 192.75 C 97.14 193.28 98.22 193.07 98.75 192.27 L 99.31 191.42 C 99.84 190.62 99.63 189.54 98.83 189.01 C 98.03 188.48 96.95 188.70 96.42 189.50 Z M 95.86 190.33 L 95.30 191.16 C 94.76 191.96 94.97 193.04 95.77 193.57 C 96.56 194.11 97.64 193.90 98.18 193.11 L 98.74 192.28 C 99.28 191.48 99.07 190.40 98.28 189.86 C 97.48 189.33 96.40 189.54 95.86 190.33 Z M 95.31 191.15 L 94.75 191.97 C 94.20 192.76 94.40 193.84 95.19 194.38 C 95.98 194.93 97.06 194.73 97.61 193.94 L 98.17 193.12 C 98.71 192.33 98.52 191.25 97.73 190.71 C 96.94 190.16 95.85 190.36 95.31 191.15 Z M 94.76 191.95 L 94.20 192.76 C 93.65 193.54 93.84 194.62 94.62 195.17 C 95.40 195.72 96.49 195.53 97.04 194.75 L 97.60 193.95 C 98.15 193.16 97.96 192.08 97.18 191.53 C 96.39 190.98 95.31 191.17 94.76 191.95 Z M 94.21 192.74 L 93.64 193.53 C 93.09 194.31 93.27 195.39 94.05 195.95 C 94.82 196.51 95.91 196.33 96.46 195.55 L 97.03 194.76 C 97.58 193.98 97.40 192.90 96.62 192.34 C 95.85 191.79 94.76 191.97 94.21 192.74 Z M 93.65 193.52 L 93.06 194.34 C 92.49 195.11 92.66 196.19 93.44 196.76 C 94.21 197.32 95.30 197.15 95.86 196.38 L 96.45 195.56 C 97.02 194.79 96.85 193.70 96.07 193.14 C 95.30 192.58 94.22 192.75 93.65 193.52 Z M 93.07 194.32 L 92.47 195.13 C 91.90 195.90 92.06 196.99 92.82 197.56 C 93.59 198.13 94.68 197.97 95.25 197.20 L 95.85 196.39 C 96.42 195.62 96.26 194.54 95.49 193.97 C 94.72 193.40 93.64 193.56 93.07 194.32 Z M 92.48 195.12 L 91.87 195.92 C 91.30 196.68 91.45 197.77 92.21 198.34 C 92.97 198.92 94.06 198.77 94.63 198.01 L 95.24 197.21 C 95.81 196.45 95.66 195.36 94.90 194.79 C 94.14 194.21 93.05 194.36 92.48 195.12 Z M 91.88 195.91 L 91.28 196.70 C 90.70 197.46 90.84 198.54 91.60 199.12 C 92.35 199.70 93.44 199.56 94.02 198.81 L 94.62 198.02 C 95.21 197.26 95.06 196.18 94.31 195.59 C 93.55 195.01 92.47 195.16 91.88 195.91 Z M 91.29 196.69 L 90.68 197.47 C 90.09 198.23 90.23 199.31 90.98 199.90 C 91.73 200.48 92.81 200.35 93.40 199.60 L 94.01 198.81 C 94.60 198.06 94.46 196.98 93.71 196.39 C 92.96 195.81 91.87 195.94 91.29 196.69 Z M 90.68 197.47 L 90.07 198.25 C 89.48 198.99 89.61 200.08 90.36 200.67 C 91.11 201.26 92.19 201.13 92.78 200.38 L 93.39 199.60 C 93.98 198.85 93.85 197.77 93.11 197.18 C 92.36 196.59 91.27 196.72 90.68 197.47 Z M 90.08 198.24 L 89.47 199.00 C 88.88 199.74 89.00 200.83 89.75 201.42 C 90.49 202.01 91.57 201.89 92.17 201.15 L 92.77 200.39 C 93.36 199.64 93.24 198.56 92.50 197.97 C 91.75 197.37 90.67 197.50 90.08 198.24 Z M 89.48 198.99 L 88.87 199.75 C 88.28 200.49 88.40 201.57 89.14 202.17 C 89.88 202.76 90.96 202.64 91.55 201.90 L 92.16 201.15 C 92.76 200.41 92.64 199.33 91.90 198.73 C 91.16 198.14 90.08 198.25 89.48 198.99 Z M 88.88 199.74 L 88.27 200.49 C 87.67 201.23 87.78 202.31 88.51 202.91 C 89.25 203.51 90.33 203.40 90.93 202.67 L 91.55 201.91 C 92.15 201.18 92.04 200.09 91.30 199.49 C 90.57 198.89 89.48 199.00 88.88 199.74 Z M 88.28 200.48 L 87.64 201.24 C 87.04 201.97 87.14 203.06 87.87 203.66 C 88.60 204.27 89.68 204.17 90.29 203.44 L 90.92 202.68 C 91.52 201.95 91.42 200.87 90.69 200.26 C 89.97 199.65 88.88 199.75 88.28 200.48 Z M 87.66 201.23 L 87.00 202.00 C 86.39 202.73 86.48 203.81 87.20 204.42 C 87.93 205.03 89.01 204.94 89.62 204.22 L 90.27 203.45 C 90.89 202.73 90.80 201.65 90.07 201.03 C 89.35 200.42 88.27 200.51 87.66 201.23 Z M 87.02 201.99 L 86.34 202.77 C 85.72 203.49 85.80 204.57 86.51 205.19 C 87.23 205.81 88.31 205.73 88.93 205.02 L 89.61 204.23 C 90.23 203.52 90.15 202.44 89.43 201.82 C 88.72 201.20 87.64 201.28 87.02 201.99 Z M 86.35 202.76 L 85.66 203.55 C 85.03 204.25 85.10 205.33 85.80 205.96 C 86.51 206.59 87.59 206.52 88.22 205.82 L 88.92 205.03 C 89.54 204.32 89.48 203.24 88.77 202.61 C 88.06 201.99 86.98 202.05 86.35 202.76 Z M 85.67 203.53 L 85.00 204.28 C 84.36 204.98 84.42 206.06 85.11 206.69 C 85.81 207.33 86.90 207.27 87.53 206.57 L 88.20 205.83 C 88.84 205.13 88.79 204.05 88.09 203.41 C 87.39 202.78 86.31 202.83 85.67 203.53 Z M 85.01 204.26 L 84.32 205.01 C 83.68 205.70 83.72 206.78 84.41 207.43 C 85.10 208.07 86.18 208.03 86.82 207.33 L 87.51 206.59 C 88.16 205.89 88.11 204.81 87.42 204.17 C 86.73 203.53 85.65 203.57 85.01 204.26 Z M 84.33 205.00 L 83.63 205.75 C 82.98 206.43 83.01 207.51 83.69 208.15 C 84.37 208.80 85.45 208.77 86.10 208.09 L 86.81 207.35 C 87.45 206.66 87.42 205.59 86.74 204.94 C 86.06 204.29 84.98 204.32 84.33 205.00 Z M 83.64 205.73 L 82.93 206.46 C 82.28 207.14 82.29 208.22 82.97 208.87 C 83.64 209.52 84.72 209.51 85.37 208.84 L 86.08 208.10 C 86.74 207.43 86.72 206.35 86.05 205.70 C 85.37 205.04 84.30 205.06 83.64 205.73 Z M 82.95 206.45 L 82.24 207.16 C 81.58 207.83 81.58 208.90 82.24 209.56 C 82.91 210.23 83.98 210.22 84.65 209.56 L 85.36 208.85 C 86.02 208.18 86.02 207.11 85.35 206.45 C 84.69 205.78 83.61 205.79 82.95 206.45 Z M 82.26 207.15 L 81.56 207.83 C 80.89 208.48 80.88 209.55 81.53 210.23 C 82.18 210.90 83.26 210.91 83.93 210.26 L 84.63 209.57 C 85.30 208.92 85.31 207.85 84.66 207.18 C 84.00 206.51 82.93 206.49 82.26 207.15 Z M 81.58 207.81 L 80.88 208.47 C 80.20 209.11 80.17 210.18 80.81 210.86 C 81.45 211.54 82.52 211.58 83.20 210.94 L 83.91 210.27 C 84.59 209.63 84.62 208.56 83.98 207.88 C 83.34 207.20 82.26 207.17 81.58 207.81 Z M 80.91 208.45 L 80.11 209.17 C 79.42 209.79 79.37 210.86 79.99 211.55 C 80.61 212.24 81.68 212.30 82.37 211.68 L 83.17 210.96 C 83.86 210.33 83.92 209.27 83.30 208.57 C 82.67 207.88 81.61 207.83 80.91 208.45 Z M 80.16 209.14 L 79.38 209.80 C 78.67 210.40 78.58 211.46 79.18 212.17 C 79.78 212.88 80.84 212.96 81.55 212.36 L 82.33 211.70 C 83.04 211.10 83.12 210.04 82.52 209.34 C 81.92 208.63 80.86 208.54 80.16 209.14 Z M 79.43 209.77 L 78.65 210.38 C 77.93 210.96 77.81 212.01 78.38 212.73 C 78.95 213.45 80.00 213.58 80.72 213.01 L 81.50 212.40 C 82.22 211.82 82.35 210.77 81.77 210.05 C 81.20 209.33 80.15 209.20 79.43 209.77 Z M 78.71 210.35 L 77.93 210.92 C 77.19 211.46 77.02 212.50 77.56 213.24 C 78.10 213.98 79.14 214.15 79.89 213.61 L 80.67 213.04 C 81.41 212.50 81.57 211.46 81.03 210.72 C 80.49 209.98 79.46 209.81 78.71 210.35 Z M 78.00 210.88 L 77.20 211.41 C 76.44 211.92 76.23 212.94 76.73 213.71 C 77.24 214.47 78.26 214.68 79.02 214.17 L 79.82 213.64 C 80.58 213.14 80.79 212.11 80.29 211.35 C 79.78 210.59 78.76 210.38 78.00 210.88 Z M 77.26 211.38 L 76.44 211.88 C 75.66 212.35 75.41 213.36 75.87 214.14 C 76.34 214.91 77.35 215.17 78.13 214.70 L 78.96 214.20 C 79.74 213.73 79.99 212.72 79.52 211.94 C 79.05 211.17 78.04 210.91 77.26 211.38 Z M 76.50 211.85 L 75.65 212.32 C 74.85 212.75 74.56 213.75 75.00 214.54 C 75.43 215.33 76.42 215.62 77.22 215.19 L 78.07 214.72 C 78.86 214.29 79.15 213.29 78.72 212.50 C 78.29 211.71 77.29 211.42 76.50 211.85 Z M 75.70 212.30 L 74.81 212.75 C 74.01 213.16 73.69 214.14 74.10 214.94 C 74.50 215.74 75.48 216.06 76.28 215.65 L 77.17 215.21 C 77.97 214.80 78.29 213.82 77.88 213.02 C 77.48 212.22 76.50 211.90 75.70 212.30 Z M 74.85 212.74 L 73.95 213.18 C 73.14 213.56 72.80 214.53 73.18 215.33 C 73.57 216.14 74.53 216.48 75.34 216.10 L 76.25 215.66 C 77.05 215.28 77.39 214.31 77.01 213.51 C 76.62 212.70 75.66 212.36 74.85 212.74 Z M 73.97 213.17 L 73.05 213.59 C 72.24 213.96 71.89 214.92 72.26 215.72 C 72.63 216.53 73.58 216.89 74.39 216.52 L 75.31 216.10 C 76.12 215.73 76.48 214.78 76.11 213.97 C 75.74 213.16 74.78 212.80 73.97 213.17 Z M 73.07 213.59 L 72.14 214.01 C 71.33 214.37 70.97 215.31 71.33 216.12 C 71.69 216.93 72.63 217.29 73.44 216.93 L 74.37 216.52 C 75.18 216.16 75.54 215.21 75.18 214.41 C 74.82 213.60 73.88 213.24 73.07 213.59 Z M 72.15 214.01 L 71.63 214.24 C 70.82 214.60 70.46 215.54 70.81 216.34 C 71.17 217.15 72.11 217.51 72.91 217.16 L 73.43 216.93 C 74.24 216.57 74.60 215.63 74.25 214.83 C 73.89 214.02 72.95 213.66 72.15 214.01 Z"
      fill="black"
      fill-rule="nonzero" /></svg>