<svg xmlns="http://www.w3.org/2000/svg" width="300" height="300" viewBox="0 0 300 300">
<path d="M 138.51 136.53 L 137.93 137.18 C 137.31 137.86 137.37 138.91 138.05 139.52 C 138.73 140.13 139.78 140.08 140.39 139.40 L 140.97 138.76 C 141.58 138.08 141.53 137.03 140.85 136.42 C 140.17 135.80 139.12 135.85 138.51 136.53 Z M 137.90 137.16 L 137.31 137.81 C 136.69 138.51 136.75 139.58 137.44 140.21 C 138.14 140.83 139.21 140.77 139.83 140.07 L 140.42 139.42 C 141.04 138.72 140.99 137.65 140.29 137.03 C 139.59 136.40 138.52 136.46 137.90 137.16 Z M 137.28 137.80 L 136.67 138.49 C 136.05 139.20 136.12 140.29 136.83 140.92 C 137.55 141.55 138.64 141.48 139.27 140.77 L 139.87 140.08 C 140.50 139.37 140.43 138.28 139.71 137.65 C 139.00 137.02 137.91 137.09 137.28 137.80 Z M 136.64 138.48 L 136.01 139.21 C 135.38 139.95 135.46 141.06 136.20 141.69 C 136.94 142.32 138.05 142.24 138.68 141.50 L 139.31 140.77 C 139.94 140.04 139.86 138.92 139.12 138.29 C 138.38 137.66 137.27 137.74 136.64 138.48 Z M 135.97 139.21 L 135.32 139.99 C 134.68 140.75 134.79 141.88 135.55 142.52 C 136.31 143.15 137.44 143.05 138.07 142.29 L 138.73 141.50 C 139.36 140.74 139.26 139.61 138.50 138.98 C 137.73 138.34 136.60 138.45 135.97 139.21 Z M 135.27 139.99 L 134.58 140.85 C 133.95 141.64 134.07 142.79 134.86 143.42 C 135.64 144.05 136.79 143.93 137.42 143.14 L 138.12 142.29 C 138.75 141.50 138.63 140.35 137.84 139.72 C 137.06 139.09 135.91 139.21 135.27 139.99 Z M 134.54 140.85 L 133.80 141.80 C 133.17 142.61 133.31 143.78 134.12 144.41 C 134.93 145.04 136.10 144.90 136.73 144.09 L 137.47 143.14 C 138.10 142.33 137.96 141.16 137.15 140.53 C 136.34 139.90 135.17 140.04 134.54 140.85 Z M 133.77 141.80 L 133.17 142.59 C 132.54 143.42 132.71 144.60 133.53 145.23 C 134.36 145.85 135.54 145.69 136.17 144.86 L 136.77 144.08 C 137.39 143.25 137.23 142.07 136.40 141.44 C 135.57 140.81 134.39 140.98 133.77 141.80 Z M 133.16 142.60 L 132.60 143.35 C 131.98 144.18 132.15 145.37 132.99 145.99 C 133.83 146.61 135.01 146.43 135.63 145.60 L 136.19 144.85 C 136.81 144.01 136.63 142.83 135.80 142.21 C 134.96 141.59 133.78 141.76 133.16 142.60 Z M 132.59 143.36 L 132.02 144.14 C 131.40 144.98 131.59 146.16 132.43 146.78 C 133.27 147.40 134.45 147.21 135.07 146.37 L 135.64 145.59 C 136.26 144.74 136.08 143.56 135.23 142.95 C 134.39 142.33 133.21 142.51 132.59 143.36 Z M 132.01 144.15 L 131.42 144.96 C 130.81 145.81 131.01 146.99 131.85 147.60 C 132.70 148.21 133.88 148.02 134.49 147.17 L 135.08 146.36 C 135.69 145.51 135.50 144.33 134.65 143.72 C 133.80 143.11 132.62 143.30 132.01 144.15 Z M 131.42 144.97 L 130.82 145.80 C 130.22 146.65 130.41 147.83 131.27 148.44 C 132.12 149.05 133.30 148.85 133.91 148.00 L 134.50 147.17 C 135.11 146.31 134.91 145.13 134.06 144.52 C 133.21 143.92 132.02 144.11 131.42 144.97 Z M 130.82 145.80 L 130.22 146.65 C 129.61 147.51 129.82 148.69 130.67 149.30 C 131.53 149.90 132.71 149.70 133.32 148.84 L 133.92 147.99 C 134.52 147.14 134.32 145.95 133.46 145.35 C 132.60 144.74 131.42 144.95 130.82 145.80 Z M 130.21 146.66 L 129.61 147.51 C 129.01 148.37 129.22 149.56 130.08 150.16 C 130.94 150.76 132.12 150.55 132.72 149.69 L 133.32 148.84 C 133.92 147.98 133.72 146.79 132.86 146.19 C 132.00 145.59 130.81 145.80 130.21 146.66 Z M 129.61 147.52 L 129.01 148.37 C 128.41 149.24 128.63 150.42 129.49 151.02 C 130.35 151.62 131.54 151.41 132.14 150.54 L 132.73 149.69 C 133.33 148.82 133.12 147.64 132.25 147.04 C 131.39 146.44 130.21 146.66 129.61 147.52 Z M 129.01 148.38 L 128.42 149.23 C 127.82 150.09 128.04 151.28 128.91 151.88 C 129.77 152.47 130.96 152.26 131.56 151.39 L 132.14 150.54 C 132.74 149.67 132.52 148.49 131.65 147.89 C 130.79 147.29 129.60 147.51 129.01 148.38 Z M 128.42 149.23 L 127.84 150.07 C 127.25 150.94 127.47 152.12 128.34 152.72 C 129.21 153.31 130.39 153.09 130.99 152.22 L 131.56 151.39 C 132.16 150.52 131.93 149.33 131.07 148.74 C 130.20 148.14 129.01 148.36 128.42 149.23 Z M 127.84 150.07 L 127.27 150.90 C 126.68 151.77 126.90 152.96 127.78 153.55 C 128.65 154.15 129.83 153.92 130.43 153.05 L 130.99 152.22 C 131.59 151.35 131.36 150.16 130.49 149.57 C 129.62 148.98 128.43 149.20 127.84 150.07 Z M 127.27 150.91 L 126.60 151.89 C 126.01 152.76 126.24 153.95 127.11 154.54 C 127.99 155.13 129.17 154.90 129.76 154.03 L 130.43 153.05 C 131.02 152.17 130.79 150.99 129.92 150.39 C 129.05 149.80 127.86 150.03 127.27 150.91 Z M 126.60 151.89 L 125.97 152.84 C 125.38 153.71 125.61 154.90 126.48 155.49 C 127.36 156.07 128.54 155.84 129.13 154.97 L 129.77 154.03 C 130.36 153.15 130.12 151.96 129.25 151.38 C 128.37 150.79 127.19 151.02 126.60 151.89 Z M 125.96 152.84 L 125.36 153.74 C 124.77 154.62 125.01 155.80 125.88 156.39 C 126.76 156.98 127.95 156.74 128.53 155.86 L 129.14 154.96 C 129.72 154.09 129.49 152.90 128.61 152.31 C 127.74 151.73 126.55 151.96 125.96 152.84 Z M 125.36 153.74 L 124.79 154.60 C 124.20 155.48 124.44 156.66 125.31 157.25 C 126.19 157.83 127.38 157.60 127.96 156.72 L 128.54 155.86 C 129.12 154.98 128.88 153.80 128.01 153.21 C 127.13 152.63 125.94 152.86 125.36 153.74 Z M 124.78 154.60 L 124.24 155.42 C 123.66 156.30 123.89 157.48 124.77 158.07 C 125.65 158.65 126.84 158.41 127.42 157.54 L 127.96 156.72 C 128.55 155.84 128.31 154.65 127.43 154.07 C 126.55 153.49 125.37 153.72 124.78 154.60 Z M 124.24 155.42 L 123.72 156.20 C 123.14 157.08 123.38 158.26 124.26 158.85 C 125.14 159.43 126.32 159.19 126.91 158.31 L 127.42 157.53 C 128.00 156.66 127.77 155.47 126.89 154.89 C 126.01 154.30 124.82 154.54 124.24 155.42 Z M 123.72 156.20 L 123.23 156.94 C 122.65 157.82 122.89 159.00 123.77 159.58 C 124.65 160.17 125.83 159.93 126.42 159.05 L 126.91 158.31 C 127.49 157.43 127.25 156.25 126.37 155.66 C 125.49 155.08 124.31 155.32 123.72 156.20 Z M 123.23 156.94 L 122.77 157.63 C 122.19 158.51 122.43 159.70 123.31 160.28 C 124.18 160.86 125.37 160.63 125.95 159.75 L 126.42 159.05 C 127.00 158.17 126.76 156.99 125.88 156.40 C 125.00 155.82 123.82 156.06 123.23 156.94 Z M 122.77 157.63 L 122.23 158.45 C 121.64 159.33 121.88 160.51 122.75 161.10 C 123.63 161.69 124.82 161.45 125.40 160.57 L 125.95 159.75 C 126.54 158.87 126.30 157.69 125.42 157.10 C 124.54 156.52 123.36 156.75 122.77 157.63 Z M 122.23 158.45 L 121.63 159.34 C 121.04 160.22 121.27 161.40 122.15 161.99 C 123.02 162.58 124.21 162.35 124.80 161.47 L 125.40 160.58 C 125.99 159.70 125.75 158.51 124.88 157.93 C 124.00 157.34 122.82 157.57 122.23 158.45 Z M 121.63 159.34 L 121.06 160.18 C 120.47 161.05 120.70 162.24 121.58 162.83 C 122.45 163.42 123.64 163.19 124.23 162.31 L 124.80 161.48 C 125.39 160.60 125.16 159.41 124.28 158.82 C 123.41 158.23 122.22 158.46 121.63 159.34 Z M 121.07 160.17 L 120.52 160.97 C 119.93 161.84 120.16 163.03 121.03 163.62 C 121.90 164.22 123.09 163.99 123.69 163.12 L 124.23 162.32 C 124.82 161.45 124.59 160.26 123.72 159.66 C 122.85 159.07 121.66 159.30 121.07 160.17 Z M 120.53 160.97 L 120.00 161.74 C 119.40 162.62 119.63 163.81 120.50 164.40 C 121.37 164.99 122.56 164.77 123.15 163.90 L 123.68 163.12 C 124.28 162.25 124.05 161.06 123.18 160.46 C 122.31 159.87 121.12 160.10 120.53 160.97 Z M 120.00 161.74 L 119.47 162.52 C 118.87 163.39 119.10 164.58 119.97 165.17 C 120.84 165.77 122.03 165.54 122.62 164.67 L 123.15 163.90 C 123.75 163.03 123.52 161.84 122.65 161.24 C 121.78 160.65 120.59 160.87 120.00 161.74 Z M 119.47 162.52 L 118.93 163.31 C 118.33 164.18 118.56 165.37 119.43 165.96 C 120.30 166.56 121.49 166.33 122.08 165.46 L 122.62 164.67 C 123.22 163.80 123.00 162.61 122.12 162.02 C 121.25 161.42 120.06 161.65 119.47 162.52 Z M 118.93 163.31 L 118.38 164.11 C 117.78 164.98 118.00 166.17 118.88 166.77 C 119.75 167.37 120.94 167.14 121.53 166.27 L 122.08 165.46 C 122.68 164.59 122.46 163.40 121.59 162.81 C 120.71 162.21 119.52 162.43 118.93 163.31 Z M 118.38 164.11 L 117.81 164.93 C 117.22 165.80 117.44 166.99 118.31 167.59 C 119.18 168.19 120.37 167.97 120.97 167.09 L 121.53 166.27 C 122.13 165.40 121.91 164.21 121.04 163.62 C 120.17 163.02 118.98 163.24 118.38 164.11 Z M 117.82 164.93 L 117.24 165.76 C 116.64 166.63 116.86 167.82 117.73 168.42 C 118.60 169.02 119.79 168.80 120.39 167.93 L 120.97 167.10 C 121.57 166.23 121.35 165.04 120.48 164.44 C 119.61 163.84 118.42 164.06 117.82 164.93 Z M 117.25 165.75 L 116.66 166.59 C 116.06 167.46 116.28 168.65 117.14 169.25 C 118.01 169.86 119.20 169.64 119.81 168.77 L 120.39 167.94 C 120.99 167.07 120.78 165.88 119.91 165.27 C 119.04 164.67 117.85 164.89 117.25 165.75 Z M 116.67 166.58 L 116.08 167.43 C 115.47 168.29 115.68 169.48 116.55 170.09 C 117.41 170.70 118.61 170.49 119.21 169.62 L 119.80 168.78 C 120.41 167.92 120.20 166.72 119.33 166.12 C 118.47 165.51 117.28 165.72 116.67 166.58 Z M 116.08 167.42 L 115.52 168.21 C 114.91 169.07 115.12 170.27 115.98 170.88 C 116.84 171.49 118.04 171.29 118.65 170.42 L 119.21 169.63 C 119.82 168.77 119.62 167.57 118.75 166.96 C 117.89 166.35 116.70 166.55 116.08 167.42 Z M 115.53 168.20 L 114.96 169.00 C 114.34 169.86 114.54 171.05 115.40 171.67 C 116.26 172.28 117.46 172.09 118.07 171.22 L 118.64 170.43 C 119.26 169.57 119.06 168.37 118.20 167.76 C 117.34 167.14 116.14 167.34 115.53 168.20 Z M 114.96 168.99 L 114.39 169.79 C 113.77 170.65 113.96 171.84 114.82 172.46 C 115.67 173.08 116.87 172.89 117.49 172.03 L 118.07 171.23 C 118.69 170.37 118.50 169.18 117.64 168.56 C 116.78 167.94 115.58 168.13 114.96 168.99 Z M 114.39 169.78 L 113.80 170.59 C 113.18 171.45 113.37 172.64 114.22 173.27 C 115.08 173.89 116.27 173.70 116.90 172.85 L 117.49 172.04 C 118.11 171.18 117.92 169.99 117.07 169.36 C 116.21 168.74 115.01 168.93 114.39 169.78 Z M 113.81 170.58 L 113.20 171.41 C 112.57 172.26 112.76 173.46 113.61 174.08 C 114.46 174.71 115.66 174.53 116.29 173.68 L 116.89 172.86 C 117.52 172.00 117.34 170.80 116.48 170.18 C 115.63 169.55 114.43 169.73 113.81 170.58 Z M 113.21 171.40 L 112.59 172.23 C 111.96 173.08 112.13 174.28 112.99 174.92 C 113.84 175.55 115.04 175.37 115.67 174.52 L 116.29 173.68 C 116.92 172.83 116.74 171.63 115.89 171.00 C 115.04 170.37 113.84 170.55 113.21 171.40 Z M 112.59 172.23 L 111.99 173.03 C 111.36 173.88 111.54 175.08 112.38 175.71 C 113.23 176.34 114.43 176.17 115.07 175.32 L 115.66 174.52 C 116.30 173.67 116.12 172.47 115.27 171.84 C 114.42 171.21 113.22 171.38 112.59 172.23 Z M 112.00 173.03 L 111.40 173.83 C 110.76 174.67 110.93 175.87 111.78 176.51 C 112.62 177.14 113.82 176.97 114.46 176.13 L 115.06 175.32 C 115.70 174.48 115.53 173.28 114.68 172.64 C 113.83 172.01 112.63 172.18 112.00 173.03 Z M 111.40 173.83 L 110.79 174.63 C 110.15 175.48 110.32 176.68 111.17 177.31 C 112.01 177.95 113.21 177.78 113.85 176.94 L 114.46 176.13 C 115.09 175.29 114.92 174.09 114.08 173.45 C 113.24 172.81 112.04 172.98 111.40 173.83 Z M 110.79 174.63 L 110.18 175.44 C 109.55 176.28 109.71 177.48 110.55 178.12 C 111.40 178.75 112.60 178.59 113.23 177.75 L 113.84 176.94 C 114.48 176.10 114.31 174.90 113.47 174.26 C 112.63 173.62 111.43 173.79 110.79 174.63 Z M 110.19 175.44 L 109.58 176.24 C 108.94 177.08 109.10 178.28 109.95 178.92 C 110.79 179.55 111.98 179.39 112.62 178.55 L 113.23 177.75 C 113.87 176.91 113.70 175.71 112.86 175.07 C 112.02 174.43 110.82 174.60 110.19 175.44 Z M 109.58 176.24 L 108.98 177.03 C 108.34 177.87 108.50 179.07 109.34 179.70 C 110.18 180.34 111.38 180.18 112.02 179.34 L 112.62 178.55 C 113.26 177.71 113.09 176.51 112.25 175.87 C 111.42 175.24 110.22 175.40 109.58 176.24 Z M 108.98 177.03 L 108.37 177.83 C 107.74 178.66 107.90 179.86 108.74 180.50 C 109.58 181.14 110.77 180.97 111.41 180.14 L 112.02 179.34 C 112.65 178.50 112.49 177.30 111.65 176.67 C 110.82 176.03 109.62 176.19 108.98 177.03 Z M 108.38 177.83 L 107.74 178.66 C 107.11 179.49 107.27 180.69 108.10 181.33 C 108.94 181.97 110.14 181.80 110.78 180.97 L 111.41 180.14 C 112.05 179.30 111.88 178.10 111.05 177.47 C 110.21 176.83 109.02 176.99 108.38 177.83 Z M 107.75 178.65 L 107.13 179.46 C 106.49 180.30 106.65 181.49 107.48 182.13 C 108.32 182.77 109.51 182.61 110.15 181.78 L 110.77 180.97 C 111.41 180.14 111.25 178.94 110.42 178.30 C 109.58 177.66 108.39 177.82 107.75 178.65 Z M 107.14 179.46 L 106.53 180.24 C 105.88 181.07 106.03 182.27 106.86 182.91 C 107.69 183.56 108.89 183.40 109.53 182.57 L 110.14 181.78 C 110.79 180.95 110.63 179.76 109.80 179.12 C 108.97 178.47 107.78 178.63 107.14 179.46 Z M 106.54 180.23 L 105.93 181.00 C 105.28 181.83 105.42 183.02 106.25 183.67 C 107.07 184.32 108.27 184.18 108.92 183.35 L 109.52 182.58 C 110.17 181.76 110.03 180.56 109.20 179.92 C 108.38 179.27 107.18 179.41 106.54 180.23 Z M 105.94 180.99 L 105.34 181.75 C 104.68 182.56 104.81 183.76 105.63 184.41 C 106.45 185.07 107.64 184.94 108.30 184.12 L 108.90 183.37 C 109.56 182.55 109.43 181.35 108.61 180.70 C 107.79 180.04 106.60 180.17 105.94 180.99 Z M 105.35 181.73 L 104.75 182.46 C 104.09 183.27 104.21 184.46 105.02 185.13 C 105.83 185.79 107.02 185.68 107.68 184.87 L 108.28 184.14 C 108.95 183.33 108.83 182.13 108.02 181.47 C 107.21 180.80 106.02 180.92 105.35 181.73 Z M 104.77 182.44 L 104.18 183.14 C 103.51 183.94 103.61 185.13 104.41 185.81 C 105.21 186.48 106.41 186.38 107.08 185.58 L 107.67 184.88 C 108.34 184.08 108.24 182.89 107.44 182.21 C 106.64 181.54 105.45 181.64 104.77 182.44 Z M 104.20 183.12 L 103.60 183.82 C 102.91 184.61 103.00 185.80 103.78 186.49 C 104.57 187.17 105.77 187.09 106.45 186.30 L 107.06 185.60 C 107.75 184.81 107.66 183.61 106.87 182.93 C 106.08 182.24 104.89 182.33 104.20 183.12 Z M 103.62 183.80 L 102.98 184.51 C 102.28 185.29 102.35 186.49 103.13 187.18 C 103.90 187.88 105.10 187.81 105.79 187.03 L 106.43 186.32 C 107.13 185.54 107.06 184.34 106.29 183.65 C 105.51 182.95 104.31 183.02 103.62 183.80 Z M 103.00 184.49 L 102.31 185.24 C 101.61 186.00 101.66 187.20 102.42 187.90 C 103.19 188.61 104.38 188.56 105.09 187.79 L 105.77 187.05 C 106.48 186.28 106.43 185.09 105.66 184.38 C 104.90 183.68 103.70 183.73 103.00 184.49 Z M 102.33 185.22 L 101.59 186.00 C 100.88 186.76 100.91 187.95 101.67 188.66 C 102.42 189.38 103.62 189.35 104.33 188.59 L 105.07 187.81 C 105.79 187.05 105.75 185.86 105.00 185.15 C 104.24 184.43 103.05 184.46 102.33 185.22 Z M 101.61 185.98 L 100.81 186.81 C 100.09 187.56 100.11 188.75 100.85 189.47 C 101.60 190.20 102.79 190.18 103.52 189.43 L 104.32 188.61 C 105.04 187.86 105.02 186.67 104.27 185.94 C 103.53 185.22 102.34 185.24 101.61 185.98 Z M 100.83 186.80 L 100.19 187.44 C 99.46 188.18 99.47 189.37 100.21 190.10 C 100.95 190.83 102.14 190.82 102.87 190.08 L 103.50 189.44 C 104.23 188.70 104.23 187.51 103.49 186.78 C 102.75 186.05 101.56 186.06 100.83 186.80 Z M 100.21 187.43 L 99.54 188.10 C 98.80 188.83 98.80 190.02 99.53 190.75 C 100.26 191.49 101.45 191.49 102.19 190.76 L 102.86 190.09 C 103.59 189.36 103.60 188.17 102.86 187.44 C 102.13 186.70 100.94 186.70 100.21 187.43 Z M 99.55 188.08 L 98.85 188.77 C 98.11 189.49 98.09 190.68 98.82 191.42 C 99.54 192.17 100.73 192.18 101.47 191.46 L 102.17 190.77 C 102.91 190.05 102.93 188.86 102.20 188.12 C 101.48 187.37 100.29 187.36 99.55 188.08 Z M 98.86 188.76 L 98.13 189.46 C 97.39 190.17 97.36 191.36 98.08 192.11 C 98.79 192.85 99.98 192.88 100.73 192.16 L 101.46 191.47 C 102.20 190.75 102.23 189.56 101.51 188.82 C 100.80 188.07 99.61 188.04 98.86 188.76 Z M 98.15 189.44 L 97.40 190.14 C 96.65 190.85 96.61 192.04 97.31 192.79 C 98.02 193.55 99.20 193.59 99.96 192.88 L 100.71 192.18 C 101.47 191.47 101.51 190.29 100.80 189.53 C 100.09 188.78 98.91 188.74 98.15 189.44 Z M 97.42 190.13 L 96.65 190.83 C 95.89 191.53 95.83 192.71 96.53 193.47 C 97.23 194.24 98.41 194.29 99.17 193.60 L 99.94 192.89 C 100.70 192.20 100.76 191.02 100.06 190.25 C 99.37 189.49 98.18 189.43 97.42 190.13 Z M 96.67 190.81 L 95.89 191.51 C 95.12 192.19 95.05 193.37 95.73 194.14 C 96.42 194.92 97.60 194.99 98.37 194.30 L 99.15 193.61 C 99.92 192.93 100.00 191.75 99.31 190.97 C 98.63 190.20 97.45 190.13 96.67 190.81 Z M 95.92 191.49 L 95.13 192.16 C 94.35 192.83 94.25 194.01 94.93 194.80 C 95.60 195.58 96.78 195.67 97.56 195.00 L 98.35 194.32 C 99.13 193.65 99.22 192.47 98.55 191.69 C 97.88 190.91 96.70 190.82 95.92 191.49 Z M 95.16 192.14 L 94.35 192.81 C 93.56 193.47 93.44 194.64 94.10 195.43 C 94.75 196.23 95.93 196.34 96.72 195.68 L 97.53 195.02 C 98.32 194.36 98.44 193.19 97.78 192.39 C 97.12 191.60 95.95 191.49 95.16 192.14 Z M 94.38 192.79 L 93.55 193.45 C 92.75 194.08 92.61 195.25 93.24 196.06 C 93.88 196.86 95.05 197.00 95.86 196.36 L 96.69 195.71 C 97.49 195.07 97.63 193.90 96.99 193.09 C 96.36 192.29 95.19 192.15 94.38 192.79 Z M 93.59 193.42 L 92.76 194.05 C 91.94 194.66 91.77 195.82 92.39 196.64 C 93.00 197.46 94.16 197.63 94.98 197.01 L 95.82 196.39 C 96.63 195.77 96.80 194.61 96.18 193.79 C 95.57 192.97 94.41 192.81 93.59 193.42 Z M 92.80 194.02 L 91.97 194.62 C 91.14 195.21 90.94 196.36 91.53 197.19 C 92.12 198.02 93.27 198.22 94.10 197.63 L 94.94 197.04 C 95.77 196.45 95.96 195.29 95.38 194.46 C 94.79 193.63 93.63 193.44 92.80 194.02 Z M 92.02 194.59 L 91.18 195.14 C 90.34 195.71 90.11 196.85 90.67 197.69 C 91.23 198.54 92.37 198.77 93.22 198.21 L 94.05 197.65 C 94.90 197.09 95.13 195.95 94.57 195.10 C 94.01 194.26 92.86 194.03 92.02 194.59 Z M 91.24 195.12 L 90.40 195.63 C 89.54 196.17 89.27 197.30 89.80 198.16 C 90.34 199.02 91.46 199.28 92.33 198.75 L 93.16 198.24 C 94.02 197.70 94.29 196.58 93.76 195.71 C 93.23 194.85 92.10 194.59 91.24 195.12 Z M 90.46 195.61 L 89.62 196.08 C 88.75 196.58 88.44 197.70 88.94 198.57 C 89.43 199.45 90.55 199.76 91.43 199.26 L 92.26 198.78 C 93.14 198.28 93.45 197.17 92.95 196.29 C 92.45 195.42 91.34 195.11 90.46 195.61 Z M 89.69 196.05 L 88.85 196.49 C 87.95 196.95 87.60 198.05 88.07 198.94 C 88.53 199.83 89.62 200.18 90.52 199.72 L 91.36 199.29 C 92.25 198.83 92.60 197.73 92.14 196.84 C 91.68 195.94 90.58 195.59 89.69 196.05 Z M 88.92 196.46 L 88.05 196.86 C 87.14 197.28 86.75 198.36 87.16 199.27 C 87.58 200.17 88.66 200.57 89.57 200.15 L 90.44 199.75 C 91.35 199.33 91.75 198.25 91.33 197.35 C 90.91 196.44 89.83 196.04 88.92 196.46 Z M 88.14 196.83 L 87.14 197.23 C 86.22 197.60 85.77 198.65 86.14 199.58 C 86.51 200.50 87.56 200.95 88.49 200.58 L 89.48 200.18 C 90.41 199.81 90.86 198.76 90.49 197.84 C 90.11 196.91 89.06 196.46 88.14 196.83 Z M 87.24 197.20 L 86.24 197.54 C 85.30 197.86 84.80 198.88 85.12 199.82 C 85.44 200.76 86.46 201.26 87.40 200.94 L 88.39 200.61 C 89.33 200.29 89.84 199.27 89.52 198.33 C 89.20 197.39 88.18 196.88 87.24 197.20 Z M 86.34 197.52 L 85.35 197.80 C 84.40 198.06 83.85 199.05 84.11 200.00 C 84.38 200.96 85.37 201.51 86.32 201.24 L 87.31 200.97 C 88.26 200.70 88.81 199.71 88.55 198.76 C 88.28 197.81 87.29 197.25 86.34 197.52 Z M 85.45 197.78 L 84.47 198.00 C 83.51 198.21 82.91 199.17 83.12 200.13 C 83.34 201.09 84.29 201.69 85.25 201.48 L 86.23 201.26 C 87.19 201.04 87.79 200.09 87.58 199.13 C 87.36 198.17 86.41 197.57 85.45 197.78 Z M 84.57 197.99 L 83.61 198.15 C 82.64 198.31 81.99 199.22 82.15 200.19 C 82.32 201.16 83.23 201.81 84.20 201.65 L 85.15 201.49 C 86.12 201.33 86.77 200.41 86.61 199.44 C 86.45 198.48 85.54 197.83 84.57 197.99 Z M 83.71 198.14 L 82.77 198.24 C 81.80 198.35 81.10 199.23 81.21 200.20 C 81.32 201.17 82.19 201.87 83.16 201.76 L 84.10 201.65 C 85.07 201.55 85.77 200.67 85.66 199.70 C 85.55 198.73 84.68 198.03 83.71 198.14 Z M 82.88 198.25 L 81.94 198.29 C 80.97 198.35 80.22 199.17 80.27 200.14 C 80.32 201.11 81.15 201.86 82.12 201.81 L 83.06 201.76 C 84.03 201.71 84.78 200.88 84.73 199.91 C 84.67 198.94 83.85 198.19 82.88 198.25 Z M 82.05 198.31 L 81.00 198.30 C 80.04 198.29 79.25 199.06 79.24 200.02 C 79.23 200.98 80.00 201.77 80.96 201.78 L 82.01 201.79 C 82.97 201.80 83.76 201.03 83.77 200.07 C 83.78 199.11 83.01 198.32 82.05 198.31 Z M 81.10 198.33 L 80.09 198.25 C 79.14 198.18 78.32 198.89 78.25 199.84 C 78.18 200.79 78.89 201.61 79.84 201.68 L 80.85 201.75 C 81.80 201.82 82.62 201.11 82.69 200.16 C 82.76 199.22 82.05 198.40 81.10 198.33 Z M 80.17 198.29 L 79.19 198.16 C 78.26 198.05 77.42 198.71 77.30 199.63 C 77.18 200.56 77.84 201.41 78.77 201.52 L 79.76 201.64 C 80.68 201.76 81.53 201.10 81.64 200.17 C 81.76 199.25 81.10 198.40 80.17 198.29 Z M 79.25 198.20 L 78.29 198.04 C 77.38 197.89 76.52 198.51 76.37 199.41 C 76.22 200.32 76.84 201.18 77.75 201.33 L 78.71 201.49 C 79.62 201.64 80.48 201.02 80.63 200.11 C 80.77 199.20 80.16 198.35 79.25 198.20 Z M 78.32 198.07 L 77.37 197.89 C 76.48 197.72 75.62 198.31 75.45 199.20 C 75.28 200.09 75.87 200.95 76.76 201.12 L 77.71 201.30 C 78.60 201.47 79.46 200.88 79.63 199.99 C 79.80 199.10 79.21 198.24 78.32 198.07 Z M 77.38 197.91 L 76.78 197.79 C 75.90 197.62 75.04 198.19 74.87 199.07 C 74.69 199.95 75.26 200.80 76.14 200.98 L 76.75 201.10 C 77.63 201.27 78.48 200.70 78.66 199.82 C 78.83 198.94 78.26 198.09 77.38 197.91 Z"
      fill="black"
      fill-rule="nonzero" /><path d="M 112.89 101.55 L 111.96 102.07 C 111.14 102.53 110.85 103.57 111.31 104.39 C 111.77 105.21 112.81 105.50 113.62 105.04 L 114.55 104.51 C 115.37 104.05 115.66 103.02 115.20 102.20 C 114.74 101.38 113.71 101.09 112.89 101.55 Z M 111.84 102.08 L 110.97 102.64 C 110.16 103.17 109.92 104.25 110.45 105.07 C 110.97 105.88 112.06 106.12 112.87 105.59 L 113.74 105.03 C 114.56 104.50 114.79 103.42 114.26 102.60 C 113.74 101.79 112.65 101.56 111.84 102.08 Z M 110.75 102.74 L 110.00 103.37 C 109.24 104.02 109.15 105.16 109.80 105.92 C 110.45 106.68 111.59 106.77 112.35 106.13 L 113.09 105.49 C 113.85 104.85 113.95 103.70 113.30 102.94 C 112.65 102.18 111.51 102.09 110.75 102.74 Z M 109.69 103.63 L 109.13 104.37 C 108.51 105.19 108.68 106.36 109.50 106.98 C 110.32 107.60 111.49 107.43 112.11 106.61 L 112.67 105.87 C 113.29 105.04 113.12 103.88 112.30 103.26 C 111.47 102.64 110.30 102.81 109.69 103.63 Z M 108.82 104.84 L 108.53 105.65 C 108.17 106.64 108.68 107.74 109.67 108.10 C 110.66 108.46 111.76 107.95 112.12 106.96 L 112.42 106.14 C 112.78 105.15 112.26 104.06 111.27 103.69 C 110.28 103.33 109.18 103.85 108.82 104.84 Z M 108.40 106.14 L 108.33 106.91 C 108.24 107.98 109.04 108.91 110.10 109.00 C 111.16 109.09 112.10 108.30 112.19 107.23 L 112.25 106.46 C 112.34 105.40 111.55 104.47 110.48 104.38 C 109.42 104.29 108.49 105.08 108.40 106.14 Z M 108.33 107.27 L 108.42 108.13 C 108.53 109.20 109.48 109.97 110.55 109.86 C 111.61 109.75 112.39 108.79 112.28 107.73 L 112.19 106.87 C 112.08 105.81 111.12 105.04 110.06 105.15 C 108.99 105.26 108.22 106.21 108.33 107.27 Z M 108.46 108.40 L 108.70 109.33 C 108.95 110.37 110.01 111.01 111.05 110.75 C 112.09 110.49 112.72 109.44 112.47 108.40 L 112.23 107.46 C 111.98 106.42 110.92 105.79 109.88 106.05 C 108.84 106.30 108.21 107.36 108.46 108.40 Z M 108.75 109.53 L 109.11 110.53 C 109.48 111.54 110.60 112.07 111.61 111.70 C 112.62 111.33 113.14 110.22 112.77 109.21 L 112.41 108.20 C 112.04 107.19 110.93 106.67 109.92 107.03 C 108.91 107.40 108.38 108.52 108.75 109.53 Z M 109.17 110.68 L 109.66 111.75 C 110.10 112.73 111.26 113.16 112.24 112.71 C 113.22 112.26 113.65 111.10 113.21 110.12 L 112.72 109.06 C 112.27 108.08 111.11 107.65 110.13 108.09 C 109.15 108.54 108.72 109.70 109.17 110.68 Z M 109.71 111.86 L 110.28 112.94 C 110.79 113.89 111.98 114.25 112.93 113.74 C 113.88 113.23 114.24 112.05 113.73 111.10 L 113.16 110.01 C 112.65 109.06 111.46 108.70 110.51 109.21 C 109.56 109.72 109.20 110.90 109.71 111.86 Z M 110.32 113.01 L 110.81 113.84 C 111.36 114.77 112.56 115.08 113.49 114.53 C 114.42 113.98 114.73 112.78 114.18 111.85 L 113.70 111.02 C 113.15 110.09 111.94 109.78 111.01 110.33 C 110.08 110.88 109.77 112.08 110.32 113.01 Z M 110.84 113.89 L 111.37 114.73 C 111.95 115.65 113.16 115.92 114.07 115.34 C 114.99 114.76 115.26 113.55 114.69 112.63 L 114.16 111.79 C 113.58 110.88 112.37 110.60 111.45 111.18 C 110.53 111.76 110.26 112.97 110.84 113.89 Z M 111.39 114.77 L 111.96 115.62 C 112.56 116.52 113.78 116.76 114.68 116.16 C 115.58 115.56 115.83 114.34 115.23 113.44 L 114.66 112.59 C 114.06 111.69 112.84 111.44 111.94 112.05 C 111.03 112.65 110.79 113.87 111.39 114.77 Z M 111.98 115.65 L 112.57 116.50 C 113.19 117.39 114.41 117.61 115.30 116.99 C 116.20 116.37 116.42 115.14 115.79 114.25 L 115.20 113.40 C 114.58 112.51 113.36 112.29 112.47 112.91 C 111.57 113.53 111.35 114.76 111.98 115.65 Z M 112.58 116.53 L 113.19 117.37 C 113.83 118.25 115.06 118.44 115.94 117.81 C 116.82 117.17 117.02 115.94 116.38 115.06 L 115.78 114.22 C 115.14 113.34 113.91 113.14 113.02 113.78 C 112.14 114.42 111.95 115.65 112.58 116.53 Z M 113.21 117.39 L 113.82 118.21 C 114.47 119.09 115.71 119.26 116.58 118.61 C 117.45 117.96 117.63 116.72 116.98 115.85 L 116.37 115.03 C 115.71 114.16 114.48 113.98 113.60 114.63 C 112.73 115.28 112.55 116.52 113.21 117.39 Z M 113.83 118.24 L 114.45 119.03 C 115.11 119.90 116.35 120.06 117.22 119.40 C 118.08 118.73 118.24 117.49 117.58 116.63 L 116.97 115.83 C 116.30 114.96 115.06 114.80 114.20 115.47 C 113.33 116.13 113.17 117.37 113.83 118.24 Z M 114.46 119.05 L 115.06 119.82 C 115.74 120.68 116.98 120.82 117.84 120.15 C 118.70 119.47 118.85 118.23 118.17 117.37 L 117.57 116.61 C 116.89 115.75 115.65 115.60 114.79 116.28 C 113.93 116.95 113.78 118.20 114.46 119.05 Z M 115.07 119.84 L 115.72 120.64 C 116.41 121.49 117.65 121.62 118.50 120.94 C 119.36 120.25 119.49 119.00 118.80 118.15 L 118.16 117.35 C 117.47 116.50 116.22 116.37 115.37 117.05 C 114.52 117.74 114.39 118.99 115.07 119.84 Z M 115.73 120.66 L 116.43 121.50 C 117.12 122.34 118.37 122.46 119.22 121.76 C 120.06 121.06 120.18 119.81 119.48 118.97 L 118.79 118.13 C 118.09 117.29 116.84 117.17 116.00 117.87 C 115.15 118.56 115.04 119.81 115.73 120.66 Z M 116.44 121.52 L 117.11 122.31 C 117.82 123.14 119.07 123.24 119.91 122.53 C 120.74 121.82 120.84 120.57 120.14 119.74 L 119.47 118.95 C 118.76 118.11 117.51 118.01 116.67 118.72 C 115.84 119.43 115.73 120.68 116.44 121.52 Z M 117.13 122.33 L 117.78 123.07 C 118.50 123.90 119.76 123.98 120.58 123.26 C 121.41 122.54 121.49 121.29 120.77 120.46 L 120.12 119.72 C 119.40 118.89 118.14 118.80 117.32 119.53 C 116.49 120.25 116.41 121.50 117.13 122.33 Z M 117.80 123.09 L 118.44 123.81 C 119.17 124.63 120.43 124.70 121.24 123.96 C 122.06 123.23 122.13 121.98 121.40 121.16 L 120.76 120.44 C 120.02 119.62 118.77 119.56 117.95 120.29 C 117.13 121.02 117.06 122.28 117.80 123.09 Z M 118.45 123.83 L 119.09 124.53 C 119.84 125.34 121.09 125.39 121.90 124.65 C 122.71 123.90 122.77 122.65 122.02 121.84 L 121.38 121.14 C 120.64 120.33 119.38 120.28 118.57 121.02 C 117.76 121.76 117.71 123.02 118.45 123.83 Z M 119.11 124.54 L 119.75 125.23 C 120.50 126.03 121.76 126.08 122.57 125.32 C 123.37 124.57 123.41 123.31 122.66 122.51 L 122.01 121.82 C 121.26 121.02 120.00 120.98 119.20 121.73 C 118.40 122.48 118.36 123.74 119.11 124.54 Z M 119.76 125.25 L 120.42 125.93 C 121.17 126.73 122.43 126.76 123.23 126.00 C 124.03 125.24 124.06 123.98 123.30 123.18 L 122.65 122.50 C 121.89 121.70 120.63 121.67 119.83 122.43 C 119.03 123.19 119.00 124.45 119.76 125.25 Z M 120.42 125.94 L 121.08 126.62 C 121.85 127.41 123.11 127.44 123.90 126.67 C 124.69 125.91 124.71 124.64 123.95 123.85 L 123.29 123.17 C 122.53 122.38 121.26 122.36 120.47 123.12 C 119.68 123.89 119.66 125.15 120.42 125.94 Z M 121.09 126.63 L 121.77 127.32 C 122.54 128.11 123.80 128.13 124.59 127.36 C 125.37 126.59 125.39 125.32 124.62 124.54 L 123.94 123.84 C 123.17 123.06 121.91 123.04 121.12 123.81 C 120.33 124.58 120.32 125.84 121.09 126.63 Z M 121.77 127.33 L 122.47 128.03 C 123.24 128.82 124.50 128.82 125.29 128.05 C 126.07 127.28 126.08 126.01 125.30 125.23 L 124.61 124.53 C 123.84 123.74 122.57 123.74 121.79 124.51 C 121.01 125.28 121.00 126.55 121.77 127.33 Z M 122.47 128.04 L 123.18 128.75 C 123.96 129.53 125.22 129.54 126.01 128.76 C 126.79 127.98 126.79 126.71 126.01 125.93 L 125.30 125.22 C 124.52 124.44 123.26 124.44 122.47 125.22 C 121.69 126.00 121.69 127.26 122.47 128.04 Z M 123.19 128.76 L 123.91 129.48 C 124.70 130.26 125.96 130.26 126.74 129.47 C 127.52 128.69 127.51 127.43 126.73 126.65 L 126.00 125.93 C 125.22 125.15 123.96 125.15 123.18 125.93 C 122.40 126.72 122.40 127.98 123.19 128.76 Z M 123.92 129.49 L 124.66 130.22 C 125.45 131.00 126.71 130.99 127.49 130.21 C 128.27 129.42 128.26 128.15 127.47 127.38 L 126.73 126.64 C 125.94 125.87 124.67 125.87 123.90 126.66 C 123.12 127.45 123.13 128.71 123.92 129.49 Z M 124.66 130.23 L 125.41 130.96 C 126.20 131.73 127.46 131.72 128.24 130.93 C 129.01 130.14 129.00 128.88 128.21 128.10 L 127.47 127.37 C 126.68 126.60 125.41 126.61 124.64 127.40 C 123.86 128.19 123.87 129.45 124.66 130.23 Z M 125.41 130.96 L 126.11 131.65 C 126.90 132.42 128.17 132.41 128.94 131.61 C 129.72 130.82 129.70 129.55 128.91 128.78 L 128.21 128.10 C 127.42 127.33 126.15 127.34 125.38 128.13 C 124.60 128.92 124.62 130.19 125.41 130.96 Z M 126.11 131.65 L 126.82 132.34 C 127.62 133.11 128.89 133.10 129.66 132.30 C 130.43 131.51 130.41 130.24 129.62 129.47 L 128.91 128.78 C 128.11 128.01 126.85 128.02 126.07 128.82 C 125.30 129.61 125.32 130.88 126.11 131.65 Z M 126.83 132.34 L 127.54 133.04 C 128.34 133.81 129.61 133.79 130.38 133.00 C 131.15 132.20 131.13 130.94 130.33 130.17 L 129.62 129.47 C 128.82 128.70 127.55 128.72 126.78 129.51 C 126.01 130.31 126.03 131.57 126.83 132.34 Z M 127.55 133.04 L 128.27 133.74 C 129.07 134.51 130.34 134.49 131.10 133.70 C 131.87 132.90 131.85 131.63 131.06 130.86 L 130.33 130.16 C 129.54 129.39 128.27 129.41 127.50 130.21 C 126.73 131.01 126.75 132.27 127.55 133.04 Z M 128.27 133.75 L 129.00 134.45 C 129.80 135.22 131.07 135.20 131.83 134.40 C 132.60 133.60 132.58 132.33 131.78 131.56 L 131.06 130.86 C 130.26 130.09 128.99 130.11 128.22 130.91 C 127.45 131.71 127.47 132.98 128.27 133.75 Z M 129.00 134.45 L 129.73 135.15 C 130.52 135.92 131.79 135.90 132.56 135.10 C 133.33 134.30 133.31 133.03 132.51 132.26 L 131.78 131.56 C 130.99 130.79 129.72 130.82 128.95 131.61 C 128.18 132.41 128.20 133.68 129.00 134.45 Z M 129.73 135.15 L 130.45 135.85 C 131.25 136.62 132.52 136.59 133.29 135.80 C 134.06 135.00 134.03 133.73 133.24 132.96 L 132.51 132.26 C 131.71 131.49 130.44 131.52 129.67 132.32 C 128.90 133.11 128.93 134.38 129.73 135.15 Z M 130.45 135.85 L 131.18 136.55 C 131.98 137.32 133.25 137.29 134.01 136.49 C 134.78 135.69 134.76 134.42 133.96 133.65 L 133.24 132.96 C 132.44 132.19 131.17 132.21 130.40 133.01 C 129.63 133.81 129.65 135.08 130.45 135.85 Z M 131.18 136.55 L 131.91 137.25 C 132.71 138.02 133.98 137.99 134.75 137.19 C 135.51 136.39 135.49 135.12 134.69 134.36 L 133.96 133.65 C 133.16 132.89 131.89 132.91 131.12 133.71 C 130.35 134.51 130.38 135.78 131.18 136.55 Z M 131.91 137.25 L 132.63 137.95 C 133.43 138.71 134.71 138.69 135.47 137.89 C 136.24 137.09 136.21 135.82 135.41 135.05 L 134.69 134.35 C 133.89 133.59 132.62 133.61 131.85 134.41 C 131.08 135.21 131.11 136.48 131.91 137.25 Z M 132.64 137.95 L 133.36 138.64 C 134.16 139.41 135.43 139.38 136.20 138.58 C 136.96 137.77 136.93 136.50 136.13 135.74 L 135.41 135.05 C 134.61 134.28 133.34 134.31 132.57 135.11 C 131.81 135.91 131.83 137.18 132.64 137.95 Z M 133.36 138.64 L 134.08 139.33 C 134.89 140.09 136.16 140.06 136.92 139.26 C 137.69 138.46 137.65 137.19 136.85 136.42 L 136.13 135.73 C 135.33 134.97 134.06 135.00 133.29 135.80 C 132.53 136.61 132.56 137.88 133.36 138.64 Z M 134.09 139.33 L 134.81 140.02 C 135.61 140.78 136.89 140.74 137.65 139.94 C 138.41 139.13 138.37 137.86 137.57 137.10 L 136.85 136.42 C 136.04 135.65 134.77 135.69 134.01 136.50 C 133.25 137.30 133.28 138.57 134.09 139.33 Z M 134.81 140.02 L 135.54 140.70 C 136.35 141.46 137.62 141.42 138.38 140.61 C 139.14 139.81 139.10 138.53 138.29 137.78 L 137.56 137.09 C 136.76 136.34 135.48 136.37 134.73 137.18 C 133.97 137.99 134.01 139.26 134.81 140.02 Z M 135.54 140.71 L 136.27 141.39 C 137.08 142.14 138.35 142.10 139.11 141.29 C 139.87 140.48 139.82 139.21 139.01 138.45 L 138.28 137.77 C 137.47 137.01 136.20 137.06 135.44 137.87 C 134.69 138.68 134.73 139.95 135.54 140.71 Z M 136.28 141.39 L 137.01 142.06 C 137.82 142.82 139.09 142.77 139.84 141.95 C 140.60 141.14 140.55 139.87 139.73 139.11 L 139.00 138.44 C 138.19 137.69 136.92 137.74 136.17 138.56 C 135.41 139.37 135.46 140.64 136.28 141.39 Z M 137.01 142.07 L 137.74 142.73 C 138.55 143.48 139.83 143.43 140.57 142.61 C 141.32 141.79 141.27 140.52 140.45 139.77 L 139.73 139.11 C 138.91 138.36 137.64 138.41 136.89 139.23 C 136.14 140.05 136.19 141.32 137.01 142.07 Z M 137.74 142.74 L 138.47 143.40 C 139.29 144.15 140.56 144.09 141.31 143.27 C 142.06 142.45 142.00 141.18 141.18 140.43 L 140.45 139.77 C 139.62 139.02 138.35 139.08 137.61 139.90 C 136.86 140.72 136.92 141.99 137.74 142.74 Z M 138.47 143.41 L 139.21 144.07 C 140.03 144.82 141.30 144.76 142.05 143.93 C 142.80 143.11 142.73 141.84 141.91 141.09 L 141.17 140.43 C 140.35 139.68 139.08 139.74 138.33 140.57 C 137.59 141.39 137.65 142.66 138.47 143.41 Z M 139.21 144.08 L 139.95 144.75 C 140.78 145.49 142.05 145.43 142.79 144.60 C 143.54 143.78 143.47 142.50 142.65 141.76 L 141.91 141.09 C 141.08 140.34 139.81 140.41 139.07 141.23 C 138.32 142.06 138.39 143.33 139.21 144.08 Z M 139.95 144.75 L 140.70 145.42 C 141.53 146.16 142.80 146.10 143.54 145.27 C 144.29 144.45 144.22 143.17 143.40 142.43 L 142.65 141.76 C 141.82 141.01 140.55 141.08 139.81 141.90 C 139.06 142.73 139.13 144.00 139.95 144.75 Z M 140.70 145.42 L 141.45 146.10 C 142.28 146.84 143.55 146.78 144.29 145.95 C 145.04 145.13 144.97 143.85 144.15 143.11 L 143.40 142.43 C 142.57 141.68 141.30 141.75 140.55 142.58 C 139.81 143.40 139.87 144.68 140.70 145.42 Z M 141.45 146.10 L 142.20 146.78 C 143.03 147.53 144.30 147.46 145.05 146.64 C 145.79 145.81 145.73 144.54 144.91 143.79 L 144.15 143.11 C 143.33 142.36 142.05 142.43 141.30 143.25 C 140.56 144.08 140.62 145.35 141.45 146.10 Z M 142.20 146.78 L 142.94 147.45 C 143.76 148.20 145.04 148.14 145.79 147.32 C 146.54 146.49 146.48 145.22 145.65 144.47 L 144.91 143.79 C 144.09 143.05 142.81 143.11 142.06 143.93 C 141.31 144.75 141.37 146.03 142.20 146.78 Z M 142.94 147.45 L 143.66 148.11 C 144.48 148.86 145.76 148.81 146.51 147.98 C 147.26 147.16 147.20 145.88 146.38 145.13 L 145.66 144.47 C 144.83 143.72 143.56 143.78 142.81 144.60 C 142.05 145.42 142.11 146.70 142.94 147.45 Z M 143.66 148.11 L 144.39 148.78 C 145.21 149.53 146.49 149.47 147.24 148.65 C 147.99 147.83 147.93 146.55 147.11 145.80 L 146.38 145.13 C 145.56 144.38 144.28 144.44 143.53 145.26 C 142.78 146.08 142.83 147.36 143.66 148.11 Z M 144.38 148.78 L 145.12 149.45 C 145.94 150.20 147.22 150.15 147.97 149.33 C 148.73 148.50 148.67 147.22 147.85 146.47 L 147.11 145.80 C 146.29 145.05 145.01 145.10 144.26 145.92 C 143.51 146.75 143.56 148.02 144.38 148.78 Z M 145.12 149.45 L 145.85 150.13 C 146.68 150.88 147.96 150.82 148.71 150.00 C 149.46 149.18 149.41 147.90 148.58 147.14 L 147.85 146.47 C 147.02 145.72 145.74 145.77 144.99 146.59 C 144.24 147.42 144.29 148.70 145.12 149.45 Z M 145.85 150.13 L 146.60 150.81 C 147.42 151.56 148.70 151.50 149.45 150.68 C 150.21 149.85 150.15 148.57 149.33 147.82 L 148.58 147.14 C 147.76 146.39 146.48 146.45 145.72 147.27 C 144.97 148.10 145.03 149.38 145.85 150.13 Z M 146.60 150.81 L 147.34 151.49 C 148.17 152.24 149.45 152.18 150.20 151.36 C 150.96 150.53 150.90 149.25 150.07 148.50 L 149.32 147.82 C 148.50 147.06 147.22 147.12 146.46 147.95 C 145.71 148.78 145.77 150.06 146.60 150.81 Z M 147.35 151.50 L 148.10 152.18 C 148.93 152.93 150.21 152.86 150.96 152.04 C 151.71 151.21 151.65 149.92 150.82 149.17 L 150.07 148.49 C 149.24 147.74 147.96 147.80 147.21 148.63 C 146.45 149.46 146.52 150.74 147.35 151.50 Z M 148.10 152.18 L 148.86 152.86 C 149.69 153.61 150.97 153.54 151.72 152.71 C 152.47 151.88 152.41 150.60 151.57 149.85 L 150.82 149.17 C 149.98 148.42 148.70 148.49 147.95 149.32 C 147.20 150.15 147.27 151.43 148.10 152.18 Z M 148.87 152.87 L 149.60 153.52 C 150.43 154.27 151.72 154.20 152.46 153.36 C 153.21 152.53 153.14 151.24 152.30 150.50 L 151.57 149.84 C 150.73 149.10 149.45 149.17 148.70 150.00 C 147.96 150.84 148.03 152.12 148.87 152.87 Z M 149.60 153.53 L 150.34 154.18 C 151.18 154.93 152.47 154.85 153.21 154.01 C 153.95 153.17 153.87 151.89 153.03 151.15 L 152.30 150.49 C 151.46 149.75 150.17 149.83 149.43 150.66 C 148.69 151.50 148.77 152.79 149.60 153.53 Z M 150.35 154.19 L 151.09 154.84 C 151.94 155.58 153.22 155.50 153.96 154.66 C 154.70 153.82 154.62 152.54 153.77 151.80 L 153.03 151.14 C 152.19 150.40 150.90 150.48 150.16 151.33 C 149.42 152.17 149.51 153.45 150.35 154.19 Z M 151.10 154.85 L 151.85 155.50 C 152.70 156.24 153.98 156.15 154.72 155.31 C 155.45 154.46 155.36 153.18 154.52 152.44 L 153.77 151.79 C 152.92 151.05 151.64 151.14 150.90 151.99 C 150.17 152.83 150.26 154.11 151.10 154.85 Z M 151.86 155.51 L 152.61 156.17 C 153.46 156.90 154.74 156.81 155.48 155.96 C 156.21 155.11 156.12 153.83 155.27 153.09 L 154.51 152.44 C 153.67 151.71 152.38 151.80 151.65 152.65 C 150.92 153.49 151.01 154.78 151.86 155.51 Z M 152.62 156.17 L 153.38 156.83 C 154.23 157.56 155.51 157.46 156.25 156.61 C 156.98 155.76 156.88 154.47 156.03 153.74 L 155.27 153.09 C 154.41 152.36 153.13 152.46 152.40 153.31 C 151.67 154.16 151.77 155.44 152.62 156.17 Z M 153.39 156.83 L 154.15 157.49 C 155.01 158.21 156.29 158.11 157.02 157.26 C 157.75 156.40 157.64 155.12 156.79 154.39 L 156.02 153.74 C 155.17 153.01 153.89 153.11 153.16 153.97 C 152.43 154.82 152.53 156.10 153.39 156.83 Z M 154.16 157.49 L 154.93 158.15 C 155.79 158.87 157.07 158.76 157.80 157.91 C 158.52 157.05 158.42 155.77 157.56 155.04 L 156.79 154.39 C 155.93 153.66 154.65 153.77 153.92 154.63 C 153.20 155.48 153.30 156.77 154.16 157.49 Z M 154.94 158.15 L 155.71 158.79 C 156.57 159.52 157.85 159.40 158.57 158.55 C 159.29 157.69 159.18 156.40 158.32 155.68 L 157.55 155.04 C 156.69 154.32 155.41 154.43 154.69 155.29 C 153.97 156.15 154.08 157.43 154.94 158.15 Z M 155.71 158.80 L 156.45 159.42 C 157.31 160.14 158.60 160.02 159.32 159.16 C 160.03 158.30 159.92 157.02 159.06 156.30 L 158.32 155.68 C 157.45 154.96 156.17 155.07 155.45 155.94 C 154.73 156.80 154.85 158.08 155.71 158.80 Z M 156.46 159.42 L 157.21 160.04 C 158.07 160.76 159.35 160.64 160.07 159.77 C 160.78 158.91 160.66 157.63 159.80 156.91 L 159.05 156.29 C 158.19 155.58 156.91 155.70 156.19 156.56 C 155.47 157.42 155.59 158.70 156.46 159.42 Z M 157.21 160.04 L 157.97 160.67 C 158.83 161.38 160.11 161.26 160.83 160.39 C 161.54 159.53 161.42 158.25 160.55 157.53 L 159.80 156.91 C 158.93 156.20 157.65 156.32 156.94 157.18 C 156.22 158.05 156.34 159.33 157.21 160.04 Z M 157.97 160.67 L 158.73 161.30 C 159.60 162.01 160.88 161.88 161.59 161.02 C 162.30 160.15 162.18 158.87 161.31 158.16 L 160.55 157.53 C 159.68 156.82 158.40 156.94 157.69 157.81 C 156.98 158.68 157.10 159.96 157.97 160.67 Z M 158.73 161.30 L 159.51 161.93 C 160.37 162.64 161.65 162.51 162.36 161.64 C 163.08 160.78 162.95 159.50 162.08 158.79 L 161.31 158.15 C 160.44 157.44 159.16 157.57 158.45 158.44 C 157.74 159.31 157.87 160.59 158.73 161.30 Z M 159.51 161.93 L 160.29 162.57 C 161.16 163.28 162.44 163.15 163.15 162.28 C 163.86 161.41 163.73 160.13 162.86 159.42 L 162.08 158.78 C 161.21 158.08 159.93 158.21 159.22 159.07 C 158.51 159.94 158.64 161.22 159.51 161.93 Z M 160.29 162.57 L 161.08 163.21 C 161.95 163.92 163.23 163.79 163.94 162.92 C 164.65 162.05 164.52 160.77 163.65 160.06 L 162.86 159.42 C 161.99 158.71 160.71 158.84 160.00 159.71 C 159.29 160.58 159.42 161.86 160.29 162.57 Z M 161.09 163.22 L 161.89 163.87 C 162.76 164.57 164.04 164.44 164.74 163.57 C 165.45 162.70 165.32 161.42 164.45 160.72 L 163.65 160.06 C 162.78 159.36 161.50 159.49 160.79 160.36 C 160.08 161.23 160.21 162.51 161.09 163.22 Z M 161.89 163.87 L 162.70 164.53 C 163.57 165.23 164.85 165.10 165.56 164.23 C 166.26 163.36 166.13 162.08 165.26 161.38 L 164.45 160.72 C 163.58 160.01 162.30 160.14 161.59 161.01 C 160.89 161.88 161.02 163.16 161.89 163.87 Z M 162.70 164.53 L 163.46 165.15 C 164.34 165.85 165.61 165.72 166.32 164.85 C 167.03 163.98 166.89 162.70 166.02 161.99 L 165.26 161.38 C 164.39 160.67 163.11 160.80 162.40 161.67 C 161.70 162.54 161.83 163.82 162.70 164.53 Z M 163.47 165.15 L 164.24 165.77 C 165.11 166.48 166.39 166.34 167.09 165.47 C 167.80 164.60 167.66 163.32 166.79 162.62 L 166.02 161.99 C 165.15 161.29 163.87 161.42 163.17 162.29 C 162.46 163.16 162.60 164.44 163.47 165.15 Z M 164.24 165.77 L 165.02 166.40 C 165.89 167.11 167.17 166.97 167.87 166.10 C 168.58 165.23 168.44 163.95 167.57 163.25 L 166.79 162.62 C 165.92 161.91 164.64 162.05 163.94 162.92 C 163.23 163.79 163.37 165.07 164.24 165.77 Z M 165.02 166.40 L 165.81 167.04 C 166.68 167.74 167.96 167.60 168.66 166.73 C 169.36 165.86 169.22 164.58 168.35 163.88 L 167.57 163.25 C 166.69 162.54 165.42 162.68 164.72 163.55 C 164.01 164.43 164.15 165.70 165.02 166.40 Z M 165.81 167.04 L 166.60 167.67 C 167.48 168.37 168.75 168.23 169.45 167.36 C 170.15 166.48 170.01 165.21 169.14 164.51 L 168.35 163.88 C 167.47 163.18 166.20 163.32 165.50 164.19 C 164.80 165.06 164.94 166.34 165.81 167.04 Z M 166.61 167.67 L 167.40 168.30 C 168.27 169.00 169.55 168.86 170.24 167.98 C 170.94 167.10 170.80 165.83 169.92 165.13 L 169.13 164.50 C 168.26 163.81 166.98 163.95 166.28 164.83 C 165.59 165.70 165.73 166.98 166.61 167.67 Z M 167.40 168.31 L 168.20 168.93 C 169.07 169.63 170.35 169.48 171.04 168.60 C 171.73 167.72 171.58 166.45 170.71 165.76 L 169.92 165.13 C 169.04 164.44 167.76 164.59 167.07 165.46 C 166.38 166.34 166.53 167.61 167.40 168.31 Z M 168.20 168.94 L 168.99 169.56 C 169.87 170.25 171.15 170.09 171.84 169.21 C 172.52 168.33 172.37 167.06 171.49 166.37 L 170.70 165.75 C 169.82 165.06 168.55 165.22 167.86 166.10 C 167.17 166.98 167.32 168.25 168.20 168.94 Z M 169.00 169.56 L 169.79 170.17 C 170.67 170.86 171.94 170.70 172.63 169.81 C 173.31 168.93 173.15 167.66 172.27 166.97 L 171.48 166.36 C 170.60 165.68 169.33 165.84 168.64 166.72 C 167.96 167.61 168.12 168.88 169.00 169.56 Z M 169.80 170.18 L 170.58 170.78 C 171.47 171.46 172.74 171.29 173.42 170.40 C 174.10 169.51 173.93 168.24 173.04 167.57 L 172.26 166.97 C 171.37 166.29 170.10 166.46 169.42 167.34 C 168.74 168.23 168.91 169.50 169.80 170.18 Z M 170.59 170.78 L 171.42 171.41 C 172.31 172.08 173.58 171.91 174.25 171.02 C 174.93 170.12 174.75 168.86 173.86 168.18 L 173.03 167.56 C 172.14 166.89 170.87 167.06 170.20 167.95 C 169.53 168.84 169.70 170.11 170.59 170.78 Z M 171.43 171.42 L 172.26 172.03 C 173.15 172.70 174.42 172.51 175.08 171.62 C 175.75 170.72 175.56 169.46 174.67 168.79 L 173.85 168.18 C 172.95 167.51 171.69 167.70 171.02 168.59 C 170.35 169.49 170.54 170.75 171.43 171.42 Z M 172.27 172.04 L 173.08 172.64 C 173.98 173.30 175.25 173.10 175.91 172.20 C 176.57 171.31 176.37 170.04 175.47 169.38 L 174.66 168.78 C 173.76 168.12 172.50 168.32 171.84 169.21 C 171.18 170.11 171.37 171.38 172.27 172.04 Z M 173.10 172.64 L 173.91 173.23 C 174.81 173.89 176.07 173.68 176.73 172.78 C 177.38 171.88 177.18 170.62 176.28 169.97 L 175.46 169.38 C 174.56 168.72 173.30 168.92 172.65 169.83 C 171.99 170.73 172.19 171.99 173.10 172.64 Z M 173.92 173.24 L 174.73 173.82 C 175.63 174.46 176.89 174.26 177.54 173.35 C 178.19 172.45 177.98 171.19 177.07 170.54 L 176.26 169.96 C 175.36 169.31 174.10 169.52 173.45 170.43 C 172.81 171.33 173.01 172.59 173.92 173.24 Z M 174.74 173.82 L 175.55 174.39 C 176.45 175.04 177.71 174.82 178.35 173.91 C 179.00 173.00 178.78 171.75 177.87 171.10 L 177.06 170.53 C 176.16 169.89 174.90 170.11 174.26 171.01 C 173.61 171.92 173.83 173.18 174.74 173.82 Z M 175.56 174.40 L 176.36 174.96 C 177.27 175.60 178.53 175.38 179.16 174.47 C 179.80 173.56 179.58 172.30 178.67 171.66 L 177.86 171.10 C 176.95 170.46 175.70 170.68 175.06 171.60 C 174.42 172.51 174.64 173.76 175.56 174.40 Z M 176.37 174.97 L 177.18 175.52 C 178.09 176.16 179.34 175.93 179.97 175.02 C 180.61 174.10 180.38 172.85 179.47 172.22 L 178.66 171.66 C 177.75 171.03 176.49 171.25 175.86 172.17 C 175.23 173.08 175.46 174.33 176.37 174.97 Z M 177.18 175.53 L 177.99 176.08 C 178.91 176.71 180.16 176.48 180.79 175.56 C 181.41 174.65 181.18 173.40 180.27 172.77 L 179.46 172.21 C 178.54 171.59 177.29 171.82 176.66 172.73 C 176.04 173.65 176.27 174.90 177.18 175.53 Z M 178.00 176.09 L 178.82 176.64 C 179.73 177.27 180.98 177.03 181.61 176.11 C 182.23 175.20 181.99 173.95 181.08 173.32 L 180.26 172.76 C 179.34 172.14 178.09 172.38 177.47 173.29 C 176.84 174.21 177.08 175.46 178.00 176.09 Z M 178.82 176.65 L 179.65 177.21 C 180.57 177.83 181.82 177.58 182.44 176.67 C 183.06 175.75 182.82 174.50 181.90 173.88 L 181.07 173.32 C 180.15 172.70 178.91 172.94 178.29 173.86 C 177.66 174.78 177.91 176.03 178.82 176.65 Z M 179.66 177.21 L 180.49 177.77 C 181.41 178.38 182.66 178.14 183.27 177.22 C 183.89 176.30 183.64 175.05 182.72 174.44 L 181.89 173.88 C 180.97 173.26 179.73 173.51 179.11 174.43 C 178.50 175.35 178.74 176.59 179.66 177.21 Z M 180.50 177.77 L 181.33 178.32 C 182.25 178.94 183.50 178.69 184.11 177.77 C 184.72 176.84 184.47 175.60 183.55 174.99 L 182.72 174.43 C 181.80 173.82 180.55 174.07 179.94 174.99 C 179.33 175.91 179.58 177.15 180.50 177.77 Z M 181.34 178.32 L 182.17 178.88 C 183.09 179.49 184.33 179.23 184.94 178.31 C 185.55 177.39 185.30 176.15 184.38 175.54 L 183.55 174.99 C 182.62 174.38 181.38 174.63 180.77 175.55 C 180.16 176.47 180.42 177.71 181.34 178.32 Z M 182.18 178.88 L 183.01 179.43 C 183.94 180.03 185.18 179.78 185.78 178.86 C 186.39 177.93 186.13 176.69 185.21 176.09 L 184.37 175.54 C 183.45 174.93 182.21 175.19 181.61 176.11 C 181.00 177.03 181.26 178.27 182.18 178.88 Z M 183.02 179.43 L 183.86 179.98 C 184.78 180.58 186.02 180.32 186.62 179.40 C 187.22 178.47 186.96 177.24 186.04 176.63 L 185.20 176.09 C 184.28 175.48 183.04 175.74 182.44 176.67 C 181.84 177.59 182.10 178.83 183.02 179.43 Z M 183.86 179.98 L 184.70 180.52 C 185.62 181.12 186.86 180.86 187.46 179.94 C 188.06 179.01 187.80 177.78 186.87 177.18 L 186.04 176.63 C 185.11 176.03 183.88 176.29 183.28 177.22 C 182.68 178.14 182.94 179.38 183.86 179.98 Z M 184.71 180.52 L 185.54 181.06 C 186.47 181.66 187.70 181.40 188.30 180.47 C 188.90 179.55 188.63 178.32 187.71 177.72 L 186.87 177.18 C 185.94 176.58 184.71 176.84 184.11 177.77 C 183.52 178.69 183.78 179.92 184.71 180.52 Z M 185.55 181.07 L 186.39 181.61 C 187.32 182.20 188.55 181.94 189.14 181.01 C 189.74 180.09 189.47 178.85 188.55 178.26 L 187.70 177.72 C 186.78 177.12 185.55 177.39 184.95 178.31 C 184.36 179.24 184.62 180.47 185.55 181.07 Z M 186.40 181.61 L 187.25 182.16 C 188.18 182.75 189.41 182.48 190.00 181.55 C 190.59 180.63 190.32 179.40 189.40 178.81 L 188.54 178.26 C 187.62 177.67 186.39 177.94 185.80 178.86 C 185.20 179.79 185.47 181.02 186.40 181.61 Z M 187.26 182.16 L 188.11 182.70 C 189.04 183.29 190.26 183.02 190.85 182.09 C 191.44 181.17 191.17 179.94 190.24 179.35 L 189.39 178.81 C 188.47 178.22 187.24 178.49 186.65 179.41 C 186.06 180.34 186.33 181.57 187.26 182.16 Z M 188.12 182.70 L 188.97 183.24 C 189.89 183.83 191.12 183.55 191.70 182.63 C 192.29 181.70 192.02 180.48 191.09 179.89 L 190.24 179.35 C 189.31 178.76 188.09 179.04 187.50 179.96 C 186.92 180.89 187.19 182.11 188.12 182.70 Z M 188.97 183.24 L 189.82 183.78 C 190.75 184.36 191.97 184.08 192.55 183.16 C 193.14 182.23 192.86 181.01 191.94 180.43 L 191.09 179.89 C 190.16 179.31 188.94 179.58 188.35 180.51 C 187.77 181.43 188.05 182.66 188.97 183.24 Z M 189.83 183.78 L 190.67 184.31 C 191.60 184.89 192.82 184.61 193.40 183.69 C 193.98 182.76 193.70 181.54 192.78 180.96 L 191.93 180.43 C 191.01 179.84 189.79 180.12 189.20 181.05 C 188.62 181.97 188.90 183.19 189.83 183.78 Z M 190.68 184.31 L 191.52 184.84 C 192.45 185.42 193.67 185.13 194.24 184.21 C 194.82 183.28 194.54 182.07 193.62 181.49 L 192.77 180.96 C 191.85 180.38 190.63 180.66 190.05 181.59 C 189.47 182.51 189.75 183.73 190.68 184.31 Z M 191.53 184.84 L 192.37 185.36 C 193.29 185.94 194.51 185.65 195.08 184.73 C 195.66 183.80 195.38 182.59 194.45 182.01 L 193.61 181.49 C 192.69 180.91 191.47 181.19 190.90 182.12 C 190.32 183.04 190.60 184.26 191.53 184.84 Z M 192.37 185.36 L 193.21 185.88 C 194.13 186.45 195.35 186.17 195.92 185.24 C 196.49 184.32 196.21 183.10 195.28 182.53 L 194.45 182.01 C 193.52 181.44 192.31 181.72 191.74 182.65 C 191.16 183.57 191.45 184.79 192.37 185.36 Z M 193.21 185.88 L 194.06 186.40 C 194.99 186.97 196.20 186.69 196.77 185.76 C 197.34 184.84 197.05 183.63 196.13 183.05 L 195.28 182.53 C 194.36 181.96 193.14 182.24 192.57 183.17 C 192.00 184.09 192.29 185.31 193.21 185.88 Z M 194.07 186.40 L 194.94 186.94 C 195.87 187.51 197.08 187.22 197.65 186.30 C 198.22 185.38 197.93 184.17 197.00 183.60 L 196.12 183.06 C 195.20 182.49 193.99 182.77 193.42 183.70 C 192.85 184.62 193.14 185.83 194.07 186.40 Z M 194.95 186.94 L 195.82 187.48 C 196.74 188.04 197.95 187.75 198.52 186.83 C 199.08 185.91 198.79 184.70 197.87 184.13 L 197.00 183.60 C 196.08 183.03 194.87 183.32 194.30 184.24 C 193.74 185.17 194.03 186.38 194.95 186.94 Z M 195.83 187.47 L 196.69 188.00 C 197.61 188.57 198.82 188.28 199.38 187.35 C 199.94 186.43 199.65 185.23 198.73 184.66 L 197.87 184.14 C 196.94 183.57 195.74 183.86 195.18 184.78 C 194.61 185.71 194.90 186.91 195.83 187.47 Z M 196.70 188.00 L 197.55 188.52 C 198.48 189.08 199.68 188.79 200.24 187.87 C 200.80 186.95 200.51 185.75 199.59 185.19 L 198.73 184.67 C 197.81 184.11 196.61 184.40 196.04 185.32 C 195.48 186.24 195.78 187.44 196.70 188.00 Z M 197.56 188.52 L 198.41 189.04 C 199.33 189.60 200.53 189.30 201.09 188.38 C 201.64 187.46 201.35 186.27 200.43 185.71 L 199.58 185.19 C 198.66 184.63 197.46 184.92 196.90 185.84 C 196.35 186.76 196.64 187.96 197.56 188.52 Z M 198.41 189.04 L 199.26 189.55 C 200.17 190.10 201.37 189.81 201.93 188.89 C 202.48 187.97 202.19 186.78 201.27 186.22 L 200.43 185.71 C 199.51 185.15 198.31 185.45 197.76 186.36 C 197.20 187.28 197.49 188.48 198.41 189.04 Z M 199.26 189.54 L 200.09 190.05 C 201.01 190.60 202.20 190.31 202.76 189.39 C 203.31 188.47 203.02 187.28 202.10 186.73 L 201.27 186.22 C 200.35 185.67 199.16 185.96 198.60 186.88 C 198.05 187.80 198.34 188.99 199.26 189.54 Z M 200.10 190.04 L 200.92 190.54 C 201.84 191.09 203.03 190.80 203.58 189.89 C 204.13 188.97 203.84 187.78 202.92 187.23 L 202.10 186.73 C 201.18 186.18 199.99 186.47 199.44 187.39 C 198.89 188.30 199.18 189.49 200.10 190.04 Z M 200.92 190.54 L 201.73 191.02 C 202.64 191.58 203.83 191.28 204.38 190.37 C 204.93 189.45 204.64 188.27 203.72 187.72 L 202.92 187.23 C 202.01 186.68 200.82 186.97 200.27 187.89 C 199.72 188.80 200.01 189.99 200.92 190.54 Z M 201.73 191.02 L 202.53 191.50 C 203.44 192.05 204.63 191.76 205.18 190.85 C 205.73 189.94 205.43 188.76 204.52 188.20 L 203.72 187.72 C 202.81 187.17 201.63 187.46 201.08 188.37 C 200.53 189.28 200.82 190.47 201.73 191.02 Z M 202.53 191.50 L 203.33 191.98 C 204.24 192.54 205.42 192.25 205.97 191.34 C 206.52 190.43 206.23 189.25 205.33 188.70 L 204.52 188.21 C 203.62 187.66 202.43 187.95 201.88 188.86 C 201.33 189.76 201.62 190.95 202.53 191.50 Z M 203.33 191.98 L 204.14 192.47 C 205.05 193.03 206.23 192.74 206.78 191.84 C 207.33 190.94 207.05 189.76 206.14 189.20 L 205.33 188.71 C 204.43 188.15 203.25 188.44 202.70 189.34 C 202.14 190.24 202.43 191.42 203.33 191.98 Z M 204.14 192.47 L 204.97 192.98 C 205.87 193.53 207.04 193.26 207.60 192.36 C 208.15 191.46 207.88 190.28 206.98 189.73 L 206.15 189.21 C 205.25 188.66 204.07 188.94 203.52 189.83 C 202.96 190.73 203.24 191.91 204.14 192.47 Z M 204.96 192.97 L 205.81 193.50 C 206.71 194.06 207.88 193.79 208.44 192.90 C 209.00 192.01 208.73 190.83 207.84 190.27 L 206.99 189.74 C 206.09 189.18 204.92 189.45 204.36 190.34 C 203.80 191.23 204.07 192.41 204.96 192.97 Z M 205.81 193.49 L 206.69 194.05 C 207.58 194.62 208.75 194.35 209.31 193.47 C 209.88 192.58 209.62 191.40 208.73 190.84 L 207.85 190.28 C 206.96 189.72 205.78 189.98 205.22 190.87 C 204.66 191.75 204.92 192.93 205.81 193.49 Z M 206.68 194.04 L 207.60 194.63 C 208.48 195.20 209.65 194.95 210.22 194.07 C 210.79 193.19 210.54 192.01 209.66 191.45 L 208.74 190.85 C 207.86 190.29 206.68 190.54 206.12 191.42 C 205.55 192.30 205.80 193.47 206.68 194.04 Z M 207.59 194.62 L 208.50 195.22 C 209.38 195.79 210.55 195.55 211.12 194.67 C 211.69 193.80 211.45 192.63 210.58 192.05 L 209.66 191.46 C 208.79 190.88 207.62 191.13 207.05 192.00 C 206.47 192.88 206.72 194.05 207.59 194.62 Z M 208.50 195.21 L 209.30 195.74 C 210.17 196.32 211.34 196.08 211.91 195.21 C 212.49 194.35 212.25 193.18 211.39 192.60 L 210.58 192.07 C 209.72 191.49 208.55 191.73 207.97 192.59 C 207.39 193.46 207.63 194.63 208.50 195.21 Z M 209.29 195.73 L 210.12 196.29 C 210.98 196.87 212.15 196.64 212.73 195.78 C 213.31 194.92 213.08 193.75 212.22 193.17 L 211.39 192.61 C 210.53 192.03 209.36 192.26 208.78 193.12 C 208.20 193.98 208.43 195.15 209.29 195.73 Z M 210.11 196.27 L 210.95 196.85 C 211.80 197.43 212.97 197.21 213.55 196.36 C 214.14 195.50 213.92 194.34 213.06 193.75 L 212.23 193.18 C 211.37 192.59 210.20 192.81 209.62 193.67 C 209.03 194.52 209.25 195.69 210.11 196.27 Z M 210.94 196.84 L 211.78 197.42 C 212.63 198.01 213.80 197.80 214.39 196.96 C 214.98 196.11 214.77 194.94 213.92 194.35 L 213.07 193.77 C 212.23 193.18 211.06 193.38 210.47 194.23 C 209.88 195.08 210.09 196.25 210.94 196.84 Z M 211.77 197.41 L 212.62 198.01 C 213.46 198.60 214.63 198.41 215.22 197.57 C 215.82 196.73 215.62 195.56 214.78 194.97 L 213.93 194.37 C 213.09 193.77 211.93 193.97 211.33 194.81 C 210.74 195.65 210.93 196.82 211.77 197.41 Z M 212.61 197.99 L 213.45 198.60 C 214.28 199.20 215.44 199.02 216.05 198.18 C 216.65 197.35 216.46 196.19 215.63 195.59 L 214.79 194.98 C 213.96 194.38 212.79 194.57 212.19 195.40 C 211.59 196.23 211.78 197.39 212.61 197.99 Z M 213.44 198.59 L 214.26 199.20 C 215.09 199.80 216.25 199.63 216.85 198.81 C 217.46 197.98 217.29 196.82 216.47 196.21 L 215.64 195.60 C 214.82 195.00 213.66 195.17 213.05 195.99 C 212.44 196.82 212.61 197.98 213.44 198.59 Z M 214.25 199.18 L 215.05 199.79 C 215.87 200.40 217.02 200.24 217.64 199.43 C 218.26 198.62 218.10 197.46 217.28 196.84 L 216.48 196.23 C 215.67 195.62 214.51 195.78 213.89 196.59 C 213.28 197.40 213.43 198.56 214.25 199.18 Z M 215.04 199.77 L 215.81 200.37 C 216.61 201.00 217.77 200.86 218.40 200.05 C 219.02 199.25 218.88 198.09 218.08 197.47 L 217.30 196.86 C 216.50 196.24 215.34 196.38 214.72 197.18 C 214.09 197.98 214.23 199.14 215.04 199.77 Z M 215.79 200.35 L 216.53 200.95 C 217.32 201.58 218.48 201.46 219.11 200.67 C 219.75 199.88 219.63 198.73 218.84 198.09 L 218.10 197.49 C 217.31 196.85 216.15 196.98 215.51 197.77 C 214.88 198.56 215.00 199.71 215.79 200.35 Z M 216.51 200.92 L 217.30 201.59 C 218.08 202.24 219.23 202.14 219.88 201.37 C 220.53 200.59 220.43 199.44 219.66 198.79 L 218.86 198.12 C 218.09 197.47 216.94 197.57 216.29 198.34 C 215.64 199.11 215.73 200.26 216.51 200.92 Z M 217.27 201.54 L 218.09 202.27 C 218.84 202.94 219.99 202.87 220.65 202.12 C 221.32 201.38 221.25 200.23 220.51 199.56 L 219.69 198.83 C 218.94 198.17 217.79 198.23 217.13 198.98 C 216.46 199.73 216.53 200.88 217.27 201.54 Z M 218.06 202.22 L 218.81 202.94 C 219.53 203.62 220.67 203.59 221.35 202.87 C 222.04 202.16 222.01 201.02 221.29 200.33 L 220.54 199.62 C 219.82 198.93 218.68 198.96 218.00 199.68 C 217.31 200.40 217.34 201.53 218.06 202.22 Z M 218.78 202.88 L 219.48 203.59 C 220.16 204.30 221.29 204.31 221.99 203.62 C 222.70 202.94 222.71 201.81 222.02 201.11 L 221.33 200.39 C 220.64 199.69 219.51 199.68 218.81 200.36 C 218.11 201.05 218.09 202.17 218.78 202.88 Z M 219.44 203.53 L 220.09 204.25 C 220.74 204.97 221.86 205.03 222.58 204.38 C 223.30 203.72 223.36 202.61 222.71 201.89 L 222.06 201.17 C 221.41 200.45 220.29 200.39 219.57 201.04 C 218.85 201.69 218.79 202.81 219.44 203.53 Z M 220.06 204.19 L 220.67 204.92 C 221.28 205.66 222.38 205.76 223.12 205.14 C 223.87 204.53 223.97 203.43 223.35 202.68 L 222.74 201.95 C 222.13 201.21 221.03 201.11 220.28 201.73 C 219.54 202.34 219.44 203.44 220.06 204.19 Z M 220.64 204.85 L 221.21 205.60 C 221.79 206.36 222.88 206.50 223.63 205.92 C 224.39 205.34 224.54 204.26 223.96 203.50 L 223.38 202.75 C 222.80 201.99 221.72 201.85 220.96 202.43 C 220.20 203.01 220.06 204.09 220.64 204.85 Z M 221.19 205.54 L 221.73 206.31 C 222.28 207.09 223.35 207.27 224.12 206.73 C 224.89 206.18 225.07 205.11 224.53 204.34 L 223.98 203.56 C 223.44 202.79 222.37 202.61 221.60 203.15 C 220.83 203.70 220.64 204.77 221.19 205.54 Z M 221.71 206.25 L 222.24 207.06 C 222.75 207.84 223.80 208.06 224.58 207.55 C 225.37 207.04 225.59 205.99 225.08 205.21 L 224.55 204.40 C 224.04 203.62 222.99 203.40 222.21 203.91 C 221.42 204.42 221.20 205.47 221.71 206.25 Z M 222.22 207.01 L 222.71 207.81 C 223.19 208.60 224.23 208.85 225.02 208.37 C 225.81 207.88 226.06 206.85 225.58 206.06 L 225.09 205.26 C 224.61 204.47 223.58 204.22 222.78 204.70 C 221.99 205.18 221.74 206.22 222.22 207.01 Z M 222.70 207.76 L 223.18 208.60 C 223.64 209.39 224.66 209.67 225.46 209.21 C 226.25 208.75 226.53 207.73 226.07 206.93 L 225.59 206.10 C 225.13 205.30 224.11 205.03 223.32 205.49 C 222.52 205.95 222.24 206.97 222.70 207.76 Z M 223.17 208.56 L 223.64 209.42 C 224.08 210.22 225.09 210.52 225.89 210.08 C 226.69 209.64 226.98 208.63 226.55 207.83 L 226.08 206.97 C 225.64 206.17 224.63 205.87 223.83 206.31 C 223.03 206.75 222.73 207.76 223.17 208.56 Z M 223.64 209.39 L 224.10 210.27 C 224.52 211.07 225.52 211.38 226.32 210.96 C 227.12 210.54 227.43 209.55 227.01 208.75 L 226.55 207.86 C 226.13 207.06 225.14 206.75 224.33 207.17 C 223.53 207.59 223.22 208.58 223.64 209.39 Z M 224.10 210.24 L 224.56 211.15 C 224.96 211.95 225.95 212.27 226.75 211.87 C 227.55 211.46 227.88 210.48 227.47 209.67 L 227.01 208.77 C 226.61 207.97 225.62 207.65 224.82 208.05 C 224.02 208.46 223.69 209.44 224.10 210.24 Z M 224.56 211.13 L 225.01 212.04 C 225.41 212.85 226.38 213.18 227.18 212.78 C 227.98 212.39 228.31 211.42 227.92 210.61 L 227.47 209.70 C 227.07 208.89 226.10 208.56 225.30 208.96 C 224.50 209.35 224.17 210.32 224.56 211.13 Z M 225.02 212.03 L 225.47 212.96 C 225.85 213.76 226.81 214.09 227.61 213.70 C 228.41 213.32 228.75 212.36 228.36 211.56 L 227.91 210.63 C 227.53 209.83 226.57 209.49 225.77 209.88 C 224.97 210.27 224.63 211.23 225.02 212.03 Z M 225.47 212.94 L 225.92 213.88 C 226.30 214.67 227.25 215.01 228.05 214.63 C 228.84 214.25 229.18 213.30 228.80 212.51 L 228.35 211.57 C 227.97 210.78 227.02 210.44 226.23 210.82 C 225.43 211.20 225.09 212.15 225.47 212.94 Z M 225.93 213.87 L 226.28 214.61 C 226.66 215.41 227.60 215.74 228.39 215.37 C 229.18 214.99 229.52 214.05 229.14 213.26 L 228.79 212.51 C 228.42 211.72 227.47 211.39 226.68 211.76 C 225.89 212.14 225.55 213.08 225.93 213.87 Z"
      fill="black"
      fill-rule="nonzero" /></svg>