<svg xmlns="http://www.w3.org/2000/svg" width="300" height="300" viewBox="0 0 300 300">
<path d="M 156.47 69.04 L 156.47 70.05 C 156.47 71.04 157.27 71.84 158.26 71.84 C 159.25 71.84 160.06 71.03 160.06 70.04 L 160.06 69.03 C 160.05 68.04 159.25 67.24 158.26 67.24 C 157.27 67.24 156.47 68.05 156.47 69.04 Z M 156.46 70.05 L 156.46 71.06 C 156.46 72.06 157.27 72.86 158.27 72.86 C 159.27 72.86 160.08 72.05 160.07 71.05 L 160.07 70.04 C 160.07 69.04 159.26 68.24 158.26 68.24 C 157.26 68.24 156.45 69.05 156.46 70.05 Z M 156.44 71.07 L 156.45 72.07 C 156.46 73.08 157.28 73.89 158.28 73.88 C 159.29 73.87 160.10 73.05 160.09 72.05 L 160.09 71.04 C 160.08 70.04 159.26 69.23 158.25 69.23 C 157.25 69.24 156.44 70.06 156.44 71.07 Z M 156.43 72.08 L 156.45 73.08 C 156.46 74.10 157.29 74.91 158.31 74.89 C 159.32 74.88 160.13 74.05 160.12 73.03 L 160.11 72.04 C 160.10 71.02 159.26 70.21 158.25 70.22 C 157.23 70.24 156.42 71.07 156.43 72.08 Z M 156.43 73.10 L 156.45 74.09 C 156.48 75.11 157.32 75.92 158.35 75.90 C 159.37 75.88 160.18 75.03 160.16 74.01 L 160.14 73.02 C 160.11 72.00 159.27 71.18 158.25 71.21 C 157.22 71.23 156.41 72.07 156.43 73.10 Z M 156.44 74.11 L 156.47 75.11 C 156.51 76.14 157.37 76.95 158.40 76.92 C 159.43 76.88 160.24 76.02 160.20 74.99 L 160.17 73.99 C 160.14 72.96 159.28 72.15 158.25 72.18 C 157.22 72.22 156.41 73.08 156.44 74.11 Z M 156.46 75.13 L 156.51 76.19 C 156.56 77.23 157.43 78.03 158.47 77.98 C 159.50 77.94 160.31 77.06 160.26 76.02 L 160.21 74.97 C 160.17 73.93 159.29 73.13 158.25 73.18 C 157.22 73.22 156.42 74.10 156.46 75.13 Z M 156.50 76.21 L 156.56 77.24 C 156.62 78.28 157.50 79.08 158.54 79.02 C 159.58 78.97 160.38 78.08 160.32 77.04 L 160.27 76.01 C 160.21 74.97 159.32 74.17 158.28 74.23 C 157.25 74.28 156.45 75.17 156.50 76.21 Z M 156.55 77.25 L 156.61 78.26 C 156.68 79.30 157.57 80.09 158.61 80.03 C 159.66 79.97 160.45 79.07 160.39 78.03 L 160.33 77.03 C 160.27 75.99 159.37 75.19 158.33 75.25 C 157.29 75.31 156.49 76.21 156.55 77.25 Z M 156.61 78.26 L 156.67 79.22 C 156.73 80.27 157.63 81.07 158.68 81.00 C 159.72 80.94 160.52 80.04 160.46 78.99 L 160.40 78.03 C 160.33 76.98 159.43 76.18 158.38 76.25 C 157.34 76.31 156.54 77.21 156.61 78.26 Z M 156.66 79.22 L 156.71 80.14 C 156.77 81.19 157.68 81.99 158.73 81.93 C 159.78 81.87 160.58 80.96 160.52 79.91 L 160.46 78.99 C 160.40 77.94 159.50 77.14 158.45 77.20 C 157.40 77.27 156.60 78.17 156.66 79.22 Z M 156.70 80.13 L 156.75 81.17 C 156.81 82.22 157.71 83.04 158.77 82.98 C 159.83 82.93 160.64 82.03 160.59 80.97 L 160.53 79.93 C 160.48 78.87 159.57 78.06 158.52 78.11 C 157.46 78.17 156.64 79.07 156.70 80.13 Z M 156.73 81.15 L 156.77 82.14 C 156.82 83.21 157.72 84.04 158.79 84.00 C 159.86 83.95 160.69 83.05 160.65 81.98 L 160.61 80.99 C 160.56 79.92 159.66 79.09 158.59 79.13 C 157.52 79.18 156.69 80.08 156.73 81.15 Z M 156.75 82.12 L 156.79 83.10 C 156.82 84.18 157.72 85.03 158.80 84.99 C 159.88 84.96 160.73 84.05 160.70 82.97 L 160.67 82.00 C 160.63 80.92 159.73 80.07 158.65 80.11 C 157.57 80.14 156.72 81.04 156.75 82.12 Z M 156.77 83.08 L 156.79 84.06 C 156.81 85.16 157.72 86.02 158.81 86.00 C 159.90 85.97 160.76 85.07 160.74 83.98 L 160.72 82.99 C 160.69 81.90 159.79 81.04 158.70 81.06 C 157.61 81.08 156.74 81.99 156.77 83.08 Z M 156.77 84.05 L 156.79 84.99 C 156.80 86.09 157.71 86.97 158.81 86.96 C 159.91 86.94 160.78 86.04 160.77 84.94 L 160.76 83.99 C 160.74 82.89 159.83 82.01 158.73 82.03 C 157.63 82.04 156.76 82.95 156.77 84.05 Z M 156.77 84.98 L 156.78 85.92 C 156.79 87.02 157.70 87.91 158.80 87.90 C 159.91 87.89 160.80 86.99 160.79 85.88 L 160.78 84.95 C 160.77 83.84 159.87 82.95 158.76 82.96 C 157.65 82.97 156.76 83.87 156.77 84.98 Z M 156.77 85.91 L 156.78 86.89 C 156.78 88.00 157.69 88.90 158.80 88.89 C 159.91 88.89 160.81 87.98 160.80 86.87 L 160.80 85.89 C 160.79 84.78 159.89 83.89 158.78 83.89 C 157.67 83.90 156.77 84.80 156.77 85.91 Z M 156.77 86.89 L 156.77 87.91 C 156.77 89.03 157.68 89.93 158.79 89.93 C 159.91 89.93 160.81 89.02 160.81 87.90 L 160.81 86.88 C 160.81 85.76 159.90 84.86 158.79 84.86 C 157.67 84.86 156.77 85.77 156.77 86.89 Z M 156.76 87.91 L 156.76 88.99 C 156.76 90.11 157.67 91.01 158.79 91.01 C 159.91 91.01 160.82 90.10 160.82 88.98 L 160.82 87.91 C 160.82 86.79 159.91 85.88 158.79 85.88 C 157.67 85.88 156.76 86.79 156.76 87.91 Z M 156.76 88.98 L 156.76 89.98 C 156.75 91.11 157.67 92.02 158.79 92.02 C 159.92 92.02 160.83 91.11 160.83 89.98 L 160.83 88.98 C 160.83 87.86 159.92 86.95 158.79 86.95 C 157.67 86.95 156.76 87.86 156.76 88.98 Z M 156.75 89.98 L 156.74 90.95 C 156.74 92.07 157.65 92.99 158.78 93.00 C 159.91 93.00 160.83 92.09 160.83 90.96 L 160.84 89.99 C 160.84 88.86 159.93 87.94 158.80 87.94 C 157.67 87.94 156.75 88.85 156.75 89.98 Z M 156.74 90.93 L 156.73 91.93 C 156.72 93.06 157.63 93.99 158.76 94.00 C 159.89 94.01 160.82 93.10 160.83 91.96 L 160.84 90.97 C 160.85 89.84 159.94 88.91 158.81 88.90 C 157.67 88.89 156.75 89.80 156.74 90.93 Z M 156.72 91.91 L 156.70 92.92 C 156.68 94.06 157.59 94.99 158.72 95.02 C 159.86 95.04 160.80 94.13 160.82 92.99 L 160.84 91.98 C 160.86 90.85 159.96 89.91 158.82 89.89 C 157.68 89.86 156.74 90.77 156.72 91.91 Z M 156.70 92.89 L 156.66 93.92 C 156.63 95.06 157.52 96.01 158.66 96.05 C 159.80 96.08 160.76 95.19 160.79 94.05 L 160.83 93.02 C 160.86 91.88 159.97 90.93 158.83 90.89 C 157.69 90.85 156.73 91.75 156.70 92.89 Z M 156.66 93.88 L 156.61 94.91 C 156.55 96.05 157.44 97.03 158.58 97.08 C 159.72 97.14 160.70 96.25 160.75 95.11 L 160.80 94.08 C 160.86 92.94 159.97 91.96 158.83 91.91 C 157.68 91.85 156.71 92.74 156.66 93.88 Z M 156.60 94.87 L 156.53 95.87 C 156.46 97.01 157.32 98.01 158.47 98.08 C 159.62 98.16 160.61 97.29 160.69 96.15 L 160.76 95.15 C 160.83 94.00 159.97 93.01 158.82 92.93 C 157.67 92.86 156.68 93.72 156.60 94.87 Z M 156.53 95.82 L 156.45 96.80 C 156.34 97.95 157.19 98.97 158.34 99.07 C 159.49 99.17 160.50 98.32 160.61 97.17 L 160.69 96.19 C 160.79 95.04 159.94 94.03 158.79 93.93 C 157.65 93.83 156.63 94.67 156.53 95.82 Z M 156.44 96.76 L 156.34 97.75 C 156.22 98.90 157.05 99.93 158.20 100.05 C 159.35 100.17 160.38 99.34 160.50 98.19 L 160.61 97.21 C 160.73 96.06 159.90 95.03 158.75 94.90 C 157.60 94.78 156.57 95.61 156.44 96.76 Z M 156.34 97.71 L 156.21 98.70 C 156.07 99.85 156.89 100.90 158.04 101.04 C 159.19 101.18 160.24 100.37 160.38 99.21 L 160.50 98.23 C 160.65 97.08 159.83 96.03 158.68 95.88 C 157.53 95.74 156.48 96.56 156.34 97.71 Z M 156.21 98.67 L 156.07 99.66 C 155.91 100.82 156.72 101.88 157.87 102.04 C 159.02 102.20 160.09 101.40 160.25 100.24 L 160.38 99.25 C 160.54 98.09 159.74 97.03 158.59 96.87 C 157.44 96.71 156.37 97.51 156.21 98.67 Z M 156.07 99.63 L 155.92 100.64 C 155.74 101.80 156.53 102.87 157.69 103.05 C 158.84 103.22 159.92 102.43 160.09 101.28 L 160.25 100.27 C 160.42 99.12 159.63 98.04 158.48 97.86 C 157.32 97.69 156.25 98.48 156.07 99.63 Z M 155.92 100.62 L 155.76 101.60 C 155.57 102.76 156.35 103.85 157.50 104.04 C 158.66 104.22 159.75 103.44 159.93 102.29 L 160.10 101.30 C 160.28 100.15 159.50 99.06 158.35 98.87 C 157.19 98.68 156.11 99.46 155.92 100.62 Z M 155.76 101.58 L 155.59 102.53 C 155.39 103.68 156.17 104.78 157.32 104.98 C 158.47 105.18 159.57 104.41 159.77 103.25 L 159.93 102.31 C 160.13 101.15 159.36 100.06 158.21 99.86 C 157.05 99.66 155.96 100.43 155.76 101.58 Z M 155.60 102.51 L 155.42 103.47 C 155.21 104.62 155.98 105.73 157.13 105.94 C 158.28 106.15 159.38 105.38 159.59 104.23 L 159.76 103.27 C 159.97 102.12 159.21 101.02 158.06 100.81 C 156.91 100.60 155.81 101.36 155.60 102.51 Z M 155.43 103.46 L 155.24 104.43 C 155.02 105.58 155.78 106.69 156.93 106.91 C 158.07 107.12 159.18 106.37 159.40 105.22 L 159.59 104.25 C 159.80 103.10 159.05 101.99 157.90 101.77 C 156.75 101.55 155.64 102.31 155.43 103.46 Z M 155.25 104.42 L 155.05 105.41 C 154.82 106.55 155.57 107.67 156.72 107.89 C 157.86 108.12 158.98 107.37 159.20 106.22 L 159.40 105.24 C 159.62 104.09 158.88 102.98 157.73 102.75 C 156.58 102.53 155.47 103.27 155.25 104.42 Z M 155.05 105.39 L 154.85 106.40 C 154.62 107.54 155.36 108.66 156.50 108.89 C 157.64 109.12 158.76 108.38 158.99 107.24 L 159.20 106.24 C 159.43 105.09 158.69 103.98 157.55 103.74 C 156.40 103.51 155.29 104.25 155.05 105.39 Z M 154.85 106.38 L 154.64 107.40 C 154.40 108.54 155.13 109.66 156.28 109.90 C 157.42 110.14 158.54 109.41 158.78 108.27 L 158.99 107.25 C 159.23 106.11 158.50 104.99 157.36 104.75 C 156.21 104.51 155.09 105.24 154.85 106.38 Z M 154.64 107.39 L 154.43 108.36 C 154.19 109.51 154.91 110.63 156.06 110.88 C 157.20 111.12 158.32 110.39 158.57 109.25 L 158.78 108.28 C 159.02 107.14 158.29 106.01 157.15 105.77 C 156.01 105.52 154.89 106.25 154.64 107.39 Z M 154.43 108.35 L 154.23 109.29 C 153.98 110.43 154.70 111.56 155.84 111.81 C 156.98 112.06 158.11 111.34 158.36 110.20 L 158.57 109.26 C 158.82 108.12 158.09 106.99 156.95 106.74 C 155.81 106.49 154.68 107.21 154.43 108.35 Z M 154.23 109.28 L 154.01 110.24 C 153.76 111.38 154.48 112.51 155.62 112.76 C 156.76 113.02 157.89 112.30 158.15 111.16 L 158.36 110.21 C 158.62 109.07 157.90 107.93 156.76 107.68 C 155.61 107.42 154.48 108.14 154.23 109.28 Z M 154.01 110.23 L 153.80 111.19 C 153.54 112.33 154.25 113.47 155.39 113.73 C 156.54 113.99 157.67 113.27 157.93 112.13 L 158.15 111.17 C 158.41 110.02 157.69 108.89 156.55 108.63 C 155.41 108.37 154.27 109.09 154.01 110.23 Z M 153.79 111.19 L 153.57 112.16 C 153.31 113.30 154.02 114.44 155.16 114.71 C 156.31 114.97 157.45 114.25 157.71 113.11 L 157.93 112.13 C 158.19 110.99 157.48 109.85 156.34 109.59 C 155.20 109.33 154.06 110.04 153.79 111.19 Z M 153.57 112.16 L 153.34 113.15 C 153.07 114.29 153.79 115.43 154.93 115.70 C 156.07 115.96 157.21 115.25 157.48 114.11 L 157.71 113.12 C 157.97 111.97 157.26 110.83 156.12 110.57 C 154.98 110.30 153.83 111.01 153.57 112.16 Z M 153.34 113.14 L 153.10 114.15 C 152.84 115.29 153.55 116.44 154.69 116.70 C 155.84 116.97 156.98 116.26 157.25 115.12 L 157.48 114.11 C 157.75 112.97 157.04 111.82 155.89 111.56 C 154.75 111.29 153.61 112.00 153.34 113.14 Z M 153.10 114.15 L 152.86 115.17 C 152.59 116.31 153.30 117.46 154.45 117.73 C 155.59 117.99 156.74 117.28 157.01 116.14 L 157.25 115.12 C 157.52 113.97 156.81 112.83 155.66 112.56 C 154.52 112.29 153.37 113.00 153.10 114.15 Z M 152.86 115.16 L 152.64 116.11 C 152.37 117.26 153.08 118.40 154.22 118.67 C 155.37 118.94 156.52 118.23 156.79 117.09 L 157.01 116.14 C 157.28 115.00 156.57 113.85 155.42 113.58 C 154.28 113.31 153.13 114.02 152.86 115.16 Z M 152.64 116.11 L 152.41 117.05 C 152.14 118.20 152.85 119.35 154.00 119.62 C 155.14 119.89 156.29 119.18 156.57 118.04 L 156.79 117.09 C 157.06 115.94 156.35 114.79 155.20 114.52 C 154.06 114.25 152.91 114.96 152.64 116.11 Z M 152.41 117.05 L 152.18 118.01 C 151.91 119.16 152.62 120.31 153.77 120.58 C 154.91 120.86 156.07 120.15 156.34 119.00 L 156.57 118.04 C 156.84 116.89 156.13 115.74 154.98 115.47 C 153.83 115.19 152.68 115.90 152.41 117.05 Z M 152.18 118.01 L 151.95 118.97 C 151.67 120.12 152.38 121.28 153.53 121.55 C 154.68 121.83 155.84 121.12 156.11 119.97 L 156.34 119.00 C 156.62 117.85 155.91 116.70 154.76 116.42 C 153.61 116.15 152.45 116.86 152.18 118.01 Z M 151.95 118.97 L 151.71 119.95 C 151.43 121.10 152.14 122.26 153.29 122.53 C 154.44 122.81 155.60 122.10 155.88 120.95 L 156.11 119.97 C 156.39 118.82 155.68 117.66 154.53 117.39 C 153.38 117.11 152.22 117.82 151.95 118.97 Z M 151.71 119.94 L 151.47 120.93 C 151.19 122.08 151.90 123.24 153.05 123.52 C 154.20 123.80 155.36 123.09 155.64 121.94 L 155.88 120.95 C 156.16 119.80 155.45 118.64 154.30 118.36 C 153.15 118.08 151.99 118.79 151.71 119.94 Z M 151.47 120.92 L 151.22 121.91 C 150.94 123.07 151.65 124.23 152.80 124.51 C 153.95 124.79 155.12 124.09 155.40 122.93 L 155.64 121.94 C 155.93 120.79 155.22 119.63 154.07 119.34 C 152.91 119.06 151.75 119.77 151.47 120.92 Z M 151.22 121.91 L 150.98 122.90 C 150.69 124.06 151.40 125.22 152.55 125.51 C 153.70 125.80 154.87 125.09 155.16 123.94 L 155.40 122.94 C 155.69 121.79 154.98 120.62 153.83 120.33 C 152.68 120.05 151.51 120.75 151.22 121.91 Z M 150.97 122.90 L 150.73 123.87 C 150.44 125.03 151.14 126.20 152.30 126.49 C 153.46 126.78 154.63 126.07 154.91 124.92 L 155.16 123.94 C 155.45 122.79 154.74 121.62 153.59 121.33 C 152.43 121.04 151.26 121.74 150.97 122.90 Z M 150.73 123.87 L 150.49 124.82 C 150.20 125.97 150.90 127.15 152.05 127.44 C 153.21 127.73 154.38 127.03 154.68 125.88 L 154.92 124.93 C 155.21 123.77 154.51 122.59 153.35 122.30 C 152.19 122.01 151.02 122.71 150.73 123.87 Z M 150.49 124.81 L 150.24 125.76 C 149.95 126.92 150.64 128.10 151.80 128.40 C 152.96 128.69 154.14 127.99 154.44 126.84 L 154.68 125.88 C 154.97 124.72 154.28 123.55 153.12 123.25 C 151.96 122.95 150.78 123.65 150.49 124.81 Z M 150.24 125.76 L 149.99 126.72 C 149.69 127.87 150.39 129.06 151.55 129.36 C 152.71 129.66 153.89 128.96 154.19 127.80 L 154.44 126.84 C 154.74 125.68 154.04 124.50 152.88 124.20 C 151.72 123.90 150.54 124.60 150.24 125.76 Z M 149.99 126.71 L 149.74 127.67 C 149.43 128.83 150.13 130.02 151.29 130.32 C 152.45 130.63 153.63 129.93 153.94 128.77 L 154.19 127.81 C 154.50 126.65 153.80 125.46 152.64 125.16 C 151.48 124.85 150.29 125.55 149.99 126.71 Z M 149.73 127.66 L 149.48 128.63 C 149.17 129.79 149.86 130.98 151.02 131.29 C 152.18 131.60 153.37 130.91 153.68 129.75 L 153.94 128.78 C 154.25 127.62 153.56 126.43 152.40 126.12 C 151.24 125.81 150.04 126.50 149.73 127.66 Z M 149.48 128.62 L 149.21 129.59 C 148.90 130.76 149.59 131.95 150.75 132.27 C 151.91 132.58 153.11 131.89 153.42 130.73 L 153.69 129.76 C 154.00 128.60 153.31 127.40 152.15 127.08 C 150.99 126.77 149.79 127.46 149.48 128.62 Z M 149.21 129.58 L 148.94 130.56 C 148.62 131.73 149.31 132.93 150.47 133.25 C 151.63 133.57 152.84 132.88 153.16 131.72 L 153.42 130.74 C 153.74 129.58 153.06 128.37 151.90 128.06 C 150.73 127.74 149.53 128.42 149.21 129.58 Z M 148.94 130.55 L 148.67 131.54 C 148.34 132.70 149.02 133.91 150.19 134.23 C 151.35 134.56 152.56 133.88 152.88 132.71 L 153.16 131.73 C 153.48 130.56 152.80 129.36 151.64 129.03 C 150.47 128.71 149.27 129.39 148.94 130.55 Z M 148.66 131.53 L 148.39 132.51 C 148.06 133.67 148.73 134.88 149.90 135.21 C 151.06 135.54 152.28 134.87 152.61 133.70 L 152.88 132.72 C 153.21 131.56 152.54 130.35 151.37 130.02 C 150.21 129.69 149.00 130.36 148.66 131.53 Z M 148.39 132.50 L 148.11 133.47 C 147.77 134.63 148.44 135.85 149.61 136.19 C 150.77 136.52 151.99 135.85 152.33 134.68 L 152.61 133.71 C 152.94 132.55 152.27 131.33 151.10 130.99 C 149.94 130.66 148.72 131.33 148.39 132.50 Z M 148.11 133.46 L 147.82 134.43 C 147.48 135.60 148.15 136.82 149.31 137.16 C 150.48 137.50 151.70 136.83 152.04 135.67 L 152.33 134.70 C 152.67 133.53 152.00 132.31 150.84 131.97 C 149.67 131.62 148.45 132.29 148.11 133.46 Z M 147.82 134.42 L 147.53 135.39 C 147.18 136.56 147.84 137.78 149.01 138.13 C 150.17 138.48 151.40 137.82 151.75 136.65 L 152.04 135.68 C 152.39 134.52 151.73 133.29 150.56 132.94 C 149.40 132.59 148.17 133.25 147.82 134.42 Z M 147.53 135.38 L 147.23 136.35 C 146.88 137.51 147.54 138.75 148.70 139.10 C 149.87 139.46 151.10 138.80 151.45 137.63 L 151.75 136.67 C 152.10 135.50 151.45 134.27 150.28 133.91 C 149.12 133.56 147.89 134.21 147.53 135.38 Z M 147.24 136.34 L 146.94 137.30 C 146.57 138.46 147.22 139.70 148.39 140.06 C 149.55 140.43 150.79 139.77 151.15 138.61 L 151.45 137.65 C 151.82 136.48 151.17 135.25 150.00 134.88 C 148.84 134.52 147.60 135.17 147.24 136.34 Z M 146.94 137.28 L 146.63 138.24 C 146.26 139.40 146.91 140.64 148.07 141.01 C 149.24 141.38 150.48 140.74 150.85 139.58 L 151.15 138.62 C 151.52 137.46 150.88 136.22 149.72 135.85 C 148.55 135.48 147.31 136.12 146.94 137.28 Z M 146.64 138.22 L 146.33 139.16 C 145.95 140.32 146.59 141.57 147.75 141.95 C 148.91 142.33 150.16 141.69 150.54 140.53 L 150.85 139.59 C 151.23 138.43 150.59 137.18 149.43 136.80 C 148.26 136.42 147.01 137.06 146.64 138.22 Z M 146.33 139.14 L 146.02 140.07 C 145.64 141.23 146.26 142.49 147.43 142.87 C 148.59 143.26 149.85 142.63 150.23 141.47 L 150.54 140.55 C 150.93 139.39 150.30 138.13 149.14 137.74 C 147.98 137.35 146.72 137.98 146.33 139.14 Z M 146.03 140.05 L 145.71 140.99 C 145.31 142.15 145.93 143.41 147.09 143.81 C 148.25 144.21 149.51 143.59 149.91 142.43 L 150.23 141.49 C 150.63 140.33 150.01 139.07 148.85 138.67 C 147.69 138.27 146.42 138.89 146.03 140.05 Z M 145.71 140.97 L 145.36 141.95 C 144.96 143.11 145.56 144.38 146.72 144.78 C 147.88 145.19 149.15 144.59 149.56 143.43 L 149.90 142.45 C 150.31 141.29 149.71 140.02 148.55 139.61 C 147.39 139.20 146.12 139.81 145.71 140.97 Z M 145.37 141.92 L 145.02 142.88 C 144.60 144.04 145.19 145.32 146.35 145.74 C 147.50 146.16 148.78 145.56 149.20 144.41 L 149.55 143.45 C 149.97 142.29 149.38 141.02 148.22 140.60 C 147.07 140.17 145.79 140.77 145.37 141.92 Z M 145.03 142.86 L 144.67 143.80 C 144.24 144.95 144.82 146.24 145.97 146.67 C 147.12 147.11 148.41 146.52 148.84 145.37 L 149.20 144.43 C 149.63 143.28 149.05 141.99 147.90 141.56 C 146.74 141.13 145.46 141.71 145.03 142.86 Z M 144.68 143.78 L 144.32 144.70 C 143.87 145.85 144.44 147.15 145.59 147.59 C 146.74 148.04 148.03 147.47 148.48 146.32 L 148.84 145.40 C 149.28 144.25 148.71 142.95 147.57 142.51 C 146.42 142.06 145.12 142.63 144.68 143.78 Z M 144.32 144.68 L 143.96 145.59 C 143.50 146.74 144.05 148.04 145.20 148.50 C 146.34 148.96 147.64 148.40 148.10 147.26 L 148.47 146.35 C 148.93 145.20 148.37 143.90 147.23 143.44 C 146.08 142.98 144.78 143.54 144.32 144.68 Z M 143.96 145.57 L 143.59 146.48 C 143.12 147.62 143.66 148.93 144.80 149.40 C 145.94 149.87 147.25 149.33 147.72 148.19 L 148.10 147.28 C 148.57 146.14 148.03 144.83 146.89 144.36 C 145.75 143.89 144.44 144.43 143.96 145.57 Z M 143.60 146.45 L 143.21 147.35 C 142.73 148.49 143.25 149.80 144.39 150.29 C 145.53 150.78 146.84 150.25 147.33 149.11 L 147.71 148.21 C 148.20 147.08 147.67 145.76 146.54 145.27 C 145.40 144.79 144.08 145.31 143.60 146.45 Z M 143.22 147.33 L 142.82 148.22 C 142.33 149.36 142.84 150.68 143.97 151.18 C 145.10 151.68 146.43 151.16 146.93 150.03 L 147.32 149.14 C 147.82 148.00 147.31 146.68 146.17 146.18 C 145.04 145.68 143.72 146.19 143.22 147.33 Z M 142.83 148.20 L 142.43 149.10 C 141.91 150.22 142.41 151.55 143.54 152.07 C 144.67 152.58 146.00 152.08 146.51 150.95 L 146.92 150.05 C 147.43 148.93 146.93 147.60 145.80 147.08 C 144.67 146.57 143.34 147.07 142.83 148.20 Z M 142.43 149.07 L 142.02 149.97 C 141.49 151.09 141.98 152.43 143.11 152.95 C 144.23 153.48 145.57 152.99 146.09 151.86 L 146.51 150.97 C 147.03 149.85 146.54 148.51 145.42 147.99 C 144.29 147.46 142.96 147.95 142.43 149.07 Z M 142.02 149.95 L 141.60 150.84 C 141.06 151.96 141.54 153.31 142.66 153.84 C 143.78 154.37 145.12 153.90 145.65 152.78 L 146.08 151.88 C 146.62 150.76 146.14 149.42 145.02 148.89 C 143.90 148.35 142.56 148.83 142.02 149.95 Z M 141.60 150.82 L 141.17 151.72 C 140.62 152.84 141.08 154.18 142.20 154.73 C 143.32 155.27 144.67 154.81 145.21 153.69 L 145.65 152.80 C 146.19 151.68 145.73 150.34 144.61 149.79 C 143.50 149.24 142.15 149.71 141.60 150.82 Z M 141.17 151.70 L 140.73 152.60 C 140.17 153.71 140.62 155.06 141.74 155.62 C 142.85 156.17 144.20 155.72 144.76 154.61 L 145.20 153.71 C 145.76 152.60 145.31 151.25 144.19 150.69 C 143.08 150.14 141.73 150.59 141.17 151.70 Z M 140.73 152.58 L 140.28 153.48 C 139.71 154.59 140.15 155.95 141.26 156.51 C 142.37 157.08 143.73 156.63 144.29 155.52 L 144.75 154.63 C 145.32 153.52 144.87 152.16 143.76 151.59 C 142.65 151.03 141.30 151.47 140.73 152.58 Z M 140.28 153.47 L 139.82 154.36 C 139.24 155.47 139.68 156.83 140.78 157.40 C 141.89 157.98 143.25 157.54 143.82 156.44 L 144.29 155.54 C 144.86 154.43 144.43 153.07 143.32 152.50 C 142.21 151.93 140.85 152.36 140.28 153.47 Z M 139.82 154.35 L 139.35 155.25 C 138.77 156.36 139.19 157.72 140.30 158.30 C 141.40 158.88 142.77 158.46 143.35 157.35 L 143.82 156.45 C 144.40 155.35 143.97 153.98 142.87 153.40 C 141.77 152.82 140.40 153.25 139.82 154.35 Z M 139.35 155.24 L 138.89 156.11 C 138.30 157.21 138.72 158.58 139.82 159.16 C 140.92 159.75 142.29 159.33 142.88 158.23 L 143.34 157.36 C 143.93 156.26 143.51 154.89 142.41 154.31 C 141.31 153.72 139.94 154.14 139.35 155.24 Z M 138.89 156.10 L 138.43 156.96 C 137.84 158.05 138.25 159.43 139.35 160.02 C 140.44 160.61 141.82 160.20 142.41 159.10 L 142.87 158.24 C 143.47 157.14 143.06 155.77 141.96 155.18 C 140.86 154.59 139.49 155.00 138.89 156.10 Z M 138.43 156.94 L 137.96 157.81 C 137.36 158.90 137.77 160.28 138.86 160.88 C 139.96 161.48 141.33 161.07 141.93 159.98 L 142.40 159.11 C 143.00 158.02 142.60 156.64 141.50 156.04 C 140.41 155.45 139.03 155.85 138.43 156.94 Z M 137.97 157.80 L 137.49 158.66 C 136.88 159.76 137.28 161.13 138.37 161.74 C 139.47 162.34 140.84 161.95 141.45 160.85 L 141.93 159.99 C 142.53 158.89 142.14 157.52 141.04 156.91 C 139.95 156.31 138.57 156.70 137.97 157.80 Z M 137.49 158.65 L 137.01 159.52 C 136.40 160.62 136.79 162.00 137.88 162.61 C 138.97 163.22 140.35 162.83 140.96 161.74 L 141.45 160.86 C 142.06 159.77 141.67 158.39 140.57 157.78 C 139.48 157.17 138.10 157.56 137.49 158.65 Z M 137.01 159.51 L 136.52 160.39 C 135.90 161.48 136.28 162.86 137.37 163.48 C 138.46 164.09 139.84 163.71 140.46 162.62 L 140.95 161.75 C 141.57 160.66 141.19 159.27 140.10 158.66 C 139.01 158.04 137.63 158.43 137.01 159.51 Z M 136.52 160.38 L 136.02 161.26 C 135.40 162.35 135.77 163.73 136.86 164.35 C 137.95 164.97 139.33 164.60 139.95 163.51 L 140.46 162.63 C 141.08 161.54 140.70 160.16 139.61 159.54 C 138.52 158.92 137.14 159.29 136.52 160.38 Z M 136.02 161.25 L 135.51 162.14 C 134.88 163.22 135.25 164.61 136.34 165.24 C 137.42 165.86 138.81 165.49 139.44 164.40 L 139.95 163.52 C 140.57 162.43 140.20 161.05 139.12 160.42 C 138.03 159.79 136.65 160.17 136.02 161.25 Z M 135.51 162.13 L 134.99 163.02 C 134.36 164.10 134.73 165.49 135.81 166.12 C 136.90 166.75 138.28 166.39 138.92 165.30 L 139.43 164.41 C 140.06 163.33 139.70 161.94 138.61 161.31 C 137.53 160.68 136.14 161.05 135.51 162.13 Z M 135.00 163.01 L 134.50 163.86 C 133.86 164.94 134.23 166.33 135.31 166.96 C 136.39 167.60 137.78 167.24 138.42 166.16 L 138.91 165.31 C 139.55 164.23 139.19 162.84 138.11 162.20 C 137.02 161.57 135.63 161.93 135.00 163.01 Z M 134.50 163.85 L 134.00 164.70 C 133.36 165.78 133.71 167.17 134.79 167.81 C 135.87 168.45 137.27 168.10 137.91 167.02 L 138.41 166.17 C 139.05 165.09 138.70 163.69 137.62 163.05 C 136.54 162.41 135.14 162.77 134.50 163.85 Z M 134.00 164.69 L 133.49 165.54 C 132.84 166.62 133.19 168.02 134.27 168.66 C 135.35 169.31 136.74 168.96 137.39 167.88 L 137.90 167.03 C 138.55 165.95 138.20 164.55 137.12 163.91 C 136.05 163.26 134.65 163.61 134.00 164.69 Z M 133.50 165.53 L 132.98 166.39 C 132.32 167.46 132.67 168.86 133.74 169.51 C 134.81 170.16 136.21 169.82 136.87 168.75 L 137.39 167.89 C 138.04 166.82 137.70 165.42 136.62 164.77 C 135.55 164.11 134.15 164.46 133.50 165.53 Z M 132.98 166.37 L 132.45 167.23 C 131.80 168.30 132.13 169.70 133.20 170.36 C 134.27 171.02 135.68 170.69 136.34 169.62 L 136.86 168.76 C 137.52 167.69 137.19 166.29 136.12 165.63 C 135.04 164.97 133.64 165.30 132.98 166.37 Z M 132.46 167.21 L 131.93 168.07 C 131.26 169.14 131.59 170.54 132.65 171.21 C 133.72 171.88 135.13 171.55 135.80 170.48 L 136.33 169.63 C 137.00 168.56 136.67 167.15 135.60 166.49 C 134.53 165.82 133.13 166.15 132.46 167.21 Z M 131.94 168.05 L 131.40 168.90 C 130.72 169.97 131.04 171.38 132.10 172.05 C 133.16 172.73 134.57 172.41 135.25 171.35 L 135.79 170.50 C 136.46 169.43 136.15 168.02 135.08 167.35 C 134.02 166.67 132.61 166.99 131.94 168.05 Z M 131.40 168.89 L 130.86 169.74 C 130.17 170.80 130.48 172.21 131.54 172.89 C 132.60 173.58 134.01 173.27 134.69 172.21 L 135.24 171.37 C 135.92 170.31 135.62 168.89 134.56 168.21 C 133.50 167.52 132.09 167.83 131.40 168.89 Z M 130.87 169.72 L 130.31 170.56 C 129.62 171.61 129.91 173.03 130.97 173.72 C 132.02 174.42 133.44 174.13 134.13 173.07 L 134.69 172.23 C 135.38 171.17 135.09 169.76 134.03 169.06 C 132.98 168.37 131.56 168.66 130.87 169.72 Z M 130.32 170.54 L 129.77 171.37 C 129.06 172.42 129.34 173.84 130.39 174.54 C 131.44 175.25 132.86 174.97 133.56 173.92 L 134.12 173.09 C 134.82 172.04 134.54 170.62 133.50 169.92 C 132.45 169.21 131.03 169.49 130.32 170.54 Z M 129.78 171.36 L 129.22 172.18 C 128.50 173.22 128.77 174.64 129.81 175.36 C 130.85 176.07 132.27 175.80 132.99 174.76 L 133.55 173.93 C 134.26 172.89 133.99 171.47 132.95 170.76 C 131.91 170.05 130.49 170.32 129.78 171.36 Z M 129.23 172.17 L 128.66 172.99 C 127.94 174.02 128.20 175.44 129.23 176.16 C 130.27 176.88 131.69 176.63 132.40 175.59 L 132.97 174.77 C 133.69 173.74 133.44 172.32 132.40 171.60 C 131.37 170.88 129.95 171.14 129.23 172.17 Z M 128.67 172.98 L 128.10 173.79 C 127.37 174.82 127.62 176.24 128.65 176.97 C 129.67 177.69 131.09 177.44 131.82 176.42 L 132.39 175.60 C 133.12 174.57 132.87 173.15 131.84 172.43 C 130.82 171.71 129.40 171.95 128.67 172.98 Z M 128.11 173.78 L 127.53 174.60 C 126.80 175.62 127.04 177.04 128.06 177.77 C 129.08 178.50 130.50 178.26 131.23 177.24 L 131.81 176.43 C 132.54 175.40 132.30 173.98 131.28 173.26 C 130.26 172.53 128.84 172.76 128.11 173.78 Z M 127.54 174.59 L 126.95 175.40 C 126.22 176.42 126.45 177.83 127.47 178.57 C 128.48 179.30 129.90 179.07 130.64 178.05 L 131.22 177.24 C 131.95 176.23 131.72 174.81 130.71 174.08 C 129.69 173.34 128.27 173.57 127.54 174.59 Z M 126.96 175.39 L 126.37 176.20 C 125.64 177.21 125.86 178.63 126.87 179.37 C 127.89 180.10 129.30 179.88 130.04 178.87 L 130.63 178.06 C 131.36 177.05 131.14 175.63 130.13 174.89 C 129.12 174.16 127.70 174.38 126.96 175.39 Z M 126.38 176.20 L 125.79 177.01 C 125.05 178.02 125.27 179.43 126.28 180.17 C 127.29 180.91 128.70 180.69 129.44 179.68 L 130.03 178.87 C 130.77 177.86 130.55 176.45 129.54 175.71 C 128.53 174.97 127.12 175.19 126.38 176.20 Z M 125.79 177.00 L 125.20 177.81 C 124.46 178.82 124.67 180.24 125.68 180.97 C 126.69 181.71 128.10 181.50 128.84 180.49 L 129.44 179.68 C 130.18 178.68 129.96 177.26 128.95 176.52 C 127.95 175.78 126.53 176.00 125.79 177.00 Z M 125.20 177.81 L 124.60 178.64 C 123.86 179.64 124.07 181.05 125.07 181.79 C 126.08 182.53 127.49 182.32 128.23 181.31 L 128.84 180.49 C 129.58 179.49 129.36 178.08 128.36 177.34 C 127.35 176.60 125.94 176.81 125.20 177.81 Z M 124.60 178.64 L 123.99 179.47 C 123.25 180.47 123.46 181.88 124.46 182.62 C 125.46 183.36 126.87 183.15 127.61 182.15 L 128.22 181.31 C 128.96 180.31 128.75 178.90 127.75 178.16 C 126.75 177.43 125.34 177.64 124.60 178.64 Z M 123.99 179.47 L 123.38 180.31 C 122.64 181.30 122.85 182.71 123.85 183.45 C 124.84 184.19 126.25 183.98 126.99 182.98 L 127.60 182.15 C 128.34 181.15 128.13 179.74 127.13 179.00 C 126.14 178.27 124.73 178.48 123.99 179.47 Z M 123.38 180.31 L 122.77 181.13 C 122.03 182.13 122.24 183.53 123.23 184.27 C 124.23 185.01 125.63 184.80 126.37 183.80 L 126.98 182.98 C 127.72 181.98 127.51 180.58 126.52 179.84 C 125.52 179.10 124.12 179.31 123.38 180.31 Z M 122.78 181.13 L 122.17 181.95 C 121.43 182.94 121.63 184.34 122.62 185.08 C 123.61 185.82 125.02 185.61 125.75 184.62 L 126.36 183.80 C 127.10 182.81 126.89 181.41 125.90 180.68 C 124.91 179.94 123.51 180.14 122.78 181.13 Z M 122.17 181.95 L 121.57 182.76 C 120.83 183.74 121.03 185.14 122.02 185.88 C 123.01 186.62 124.41 186.42 125.14 185.43 L 125.75 184.62 C 126.48 183.64 126.28 182.24 125.30 181.50 C 124.31 180.76 122.91 180.96 122.17 181.95 Z M 121.58 182.76 L 120.98 183.55 C 120.25 184.53 120.44 185.92 121.43 186.66 C 122.41 187.40 123.80 187.20 124.54 186.22 L 125.14 185.43 C 125.87 184.45 125.68 183.05 124.69 182.31 C 123.71 181.58 122.32 181.77 121.58 182.76 Z M 120.99 183.54 L 120.41 184.32 C 119.67 185.29 119.86 186.69 120.84 187.43 C 121.82 188.17 123.21 187.97 123.95 186.99 L 124.53 186.22 C 125.27 185.24 125.08 183.85 124.10 183.11 C 123.12 182.37 121.73 182.57 120.99 183.54 Z M 120.42 184.31 L 119.85 185.06 C 119.11 186.04 119.29 187.43 120.27 188.17 C 121.24 188.91 122.63 188.72 123.37 187.75 L 123.94 187.00 C 124.68 186.02 124.49 184.63 123.52 183.89 C 122.55 183.15 121.16 183.34 120.42 184.31 Z M 119.86 185.06 L 119.24 185.86 C 118.50 186.83 118.68 188.22 119.65 188.96 C 120.61 189.70 122.00 189.52 122.75 188.55 L 123.36 187.75 C 124.10 186.78 123.92 185.39 122.95 184.65 C 121.99 183.91 120.60 184.09 119.86 185.06 Z M 119.25 185.86 L 118.59 186.72 C 117.84 187.68 118.02 189.06 118.98 189.81 C 119.94 190.55 121.32 190.38 122.07 189.42 L 122.73 188.56 C 123.48 187.60 123.30 186.21 122.34 185.47 C 121.38 184.72 120.00 184.90 119.25 185.86 Z M 118.60 186.71 L 117.95 187.54 C 117.20 188.49 117.37 189.87 118.33 190.62 C 119.28 191.37 120.66 191.20 121.41 190.24 L 122.06 189.42 C 122.80 188.46 122.64 187.08 121.68 186.34 C 120.73 185.59 119.34 185.76 118.60 186.71 Z M 117.96 187.53 L 117.34 188.33 C 116.59 189.28 116.75 190.65 117.70 191.40 C 118.65 192.15 120.03 191.99 120.78 191.04 L 121.40 190.25 C 122.15 189.30 121.99 187.92 121.04 187.17 C 120.09 186.42 118.71 186.58 117.96 187.53 Z M 117.35 188.32 L 116.74 189.09 C 115.99 190.04 116.15 191.41 117.09 192.16 C 118.03 192.91 119.41 192.75 120.16 191.81 L 120.77 191.04 C 121.52 190.10 121.36 188.72 120.41 187.97 C 119.47 187.22 118.10 187.38 117.35 188.32 Z M 116.74 189.09 L 116.15 189.84 C 115.40 190.78 115.56 192.15 116.50 192.90 C 117.44 193.65 118.81 193.49 119.56 192.55 L 120.15 191.81 C 120.90 190.87 120.74 189.50 119.80 188.75 C 118.86 188.00 117.49 188.15 116.74 189.09 Z M 116.16 189.84 L 115.57 190.57 C 114.83 191.51 114.98 192.87 115.92 193.62 C 116.85 194.37 118.22 194.22 118.97 193.28 L 119.55 192.55 C 120.30 191.61 120.14 190.25 119.21 189.50 C 118.27 188.75 116.90 188.90 116.16 189.84 Z M 115.58 190.58 L 114.99 191.31 C 114.25 192.25 114.40 193.61 115.33 194.35 C 116.27 195.10 117.63 194.95 118.37 194.01 L 118.96 193.28 C 119.71 192.34 119.55 190.98 118.62 190.23 C 117.69 189.49 116.32 189.64 115.58 190.58 Z M 114.99 191.32 L 114.35 192.13 C 113.61 193.06 113.76 194.42 114.69 195.16 C 115.63 195.91 116.98 195.75 117.73 194.82 L 118.37 194.01 C 119.12 193.07 118.96 191.71 118.03 190.97 C 117.09 190.23 115.74 190.38 114.99 191.32 Z M 114.35 192.13 L 113.71 192.94 C 112.97 193.87 113.13 195.22 114.06 195.96 C 115.00 196.70 116.35 196.55 117.09 195.61 L 117.73 194.81 C 118.47 193.88 118.31 192.52 117.38 191.78 C 116.44 191.04 115.09 191.20 114.35 192.13 Z M 113.71 192.94 L 113.09 193.73 C 112.35 194.67 112.51 196.02 113.45 196.76 C 114.38 197.49 115.73 197.33 116.47 196.40 L 117.09 195.61 C 117.83 194.67 117.67 193.32 116.73 192.58 C 115.80 191.85 114.45 192.01 113.71 192.94 Z M 113.09 193.74 L 112.47 194.52 C 111.74 195.46 111.91 196.81 112.84 197.54 C 113.77 198.27 115.12 198.11 115.86 197.17 L 116.47 196.39 C 117.20 195.46 117.04 194.11 116.10 193.38 C 115.17 192.64 113.82 192.81 113.09 193.74 Z M 112.47 194.53 L 111.87 195.30 C 111.15 196.24 111.31 197.58 112.25 198.31 C 113.18 199.04 114.53 198.87 115.26 197.94 L 115.86 197.16 C 116.58 196.23 116.42 194.88 115.48 194.16 C 114.55 193.43 113.20 193.60 112.47 194.53 Z M 111.87 195.31 L 111.28 196.08 C 110.56 197.01 110.73 198.35 111.67 199.08 C 112.60 199.80 113.95 199.63 114.67 198.69 L 115.26 197.93 C 115.98 196.99 115.81 195.65 114.87 194.93 C 113.94 194.20 112.59 194.38 111.87 195.31 Z M 111.28 196.09 L 110.66 196.90 C 109.94 197.84 110.12 199.17 111.06 199.89 C 111.99 200.61 113.33 200.43 114.05 199.49 L 114.67 198.68 C 115.39 197.74 115.21 196.40 114.27 195.69 C 113.34 194.97 112.00 195.15 111.28 196.09 Z M 110.65 196.91 L 110.04 197.73 C 109.33 198.67 109.52 200.01 110.45 200.72 C 111.39 201.42 112.73 201.24 113.44 200.30 L 114.05 199.48 C 114.76 198.54 114.57 197.20 113.64 196.49 C 112.70 195.79 111.36 195.97 110.65 196.91 Z M 110.03 197.75 L 109.43 198.56 C 108.73 199.51 108.93 200.84 109.87 201.53 C 110.82 202.23 112.15 202.03 112.84 201.09 L 113.44 200.28 C 114.14 199.33 113.94 198.00 113.00 197.31 C 112.06 196.61 110.73 196.81 110.03 197.75 Z M 109.42 198.59 L 108.84 199.39 C 108.15 200.34 108.37 201.67 109.32 202.35 C 110.27 203.03 111.59 202.82 112.27 201.87 L 112.86 201.06 C 113.54 200.12 113.32 198.79 112.37 198.11 C 111.43 197.42 110.10 197.64 109.42 198.59 Z M 108.82 199.42 L 108.27 200.22 C 107.60 201.18 107.83 202.50 108.79 203.16 C 109.74 203.83 111.06 203.60 111.73 202.64 L 112.29 201.84 C 112.96 200.88 112.72 199.57 111.77 198.90 C 110.81 198.23 109.49 198.47 108.82 199.42 Z M 108.25 200.26 L 107.71 201.06 C 107.06 202.02 107.32 203.33 108.29 203.98 C 109.25 204.63 110.56 204.37 111.21 203.41 L 111.75 202.61 C 112.39 201.64 112.14 200.33 111.17 199.68 C 110.21 199.04 108.90 199.29 108.25 200.26 Z M 107.69 201.10 L 107.14 201.96 C 106.51 202.94 106.79 204.23 107.77 204.86 C 108.75 205.49 110.04 205.21 110.67 204.23 L 111.23 203.37 C 111.85 202.39 111.57 201.09 110.60 200.47 C 109.62 199.84 108.32 200.12 107.69 201.10 Z M 107.13 202.00 L 106.59 202.86 C 105.99 203.84 106.29 205.13 107.27 205.74 C 108.26 206.34 109.55 206.04 110.15 205.06 L 110.68 204.19 C 111.29 203.21 110.99 201.92 110.00 201.32 C 109.02 200.71 107.73 201.01 107.13 202.00 Z M 106.58 202.89 L 106.07 203.75 C 105.48 204.74 105.80 206.02 106.79 206.61 C 107.78 207.20 109.06 206.87 109.65 205.89 L 110.16 205.03 C 110.75 204.04 110.43 202.76 109.44 202.17 C 108.45 201.58 107.17 201.90 106.58 202.89 Z M 106.07 203.77 L 105.57 204.63 C 104.99 205.62 105.33 206.89 106.32 207.46 C 107.31 208.04 108.57 207.71 109.15 206.72 L 109.65 205.86 C 110.23 204.87 109.89 203.60 108.90 203.03 C 107.91 202.45 106.65 202.78 106.07 203.77 Z M 105.57 204.64 L 105.08 205.49 C 104.51 206.48 104.85 207.74 105.84 208.31 C 106.83 208.88 108.09 208.54 108.66 207.55 L 109.15 206.70 C 109.72 205.71 109.38 204.45 108.39 203.88 C 107.40 203.31 106.14 203.66 105.57 204.64 Z M 105.09 205.50 L 104.59 206.36 C 104.03 207.35 104.37 208.60 105.35 209.17 C 106.34 209.73 107.59 209.39 108.16 208.41 L 108.66 207.54 C 109.22 206.56 108.88 205.30 107.90 204.74 C 106.91 204.17 105.66 204.51 105.09 205.50 Z M 104.60 206.36 L 104.10 207.23 C 103.54 208.21 103.88 209.46 104.86 210.03 C 105.83 210.59 107.08 210.25 107.65 209.28 L 108.15 208.41 C 108.71 207.43 108.38 206.18 107.40 205.61 C 106.42 205.05 105.17 205.39 104.60 206.36 Z M 104.12 207.23 L 103.61 208.10 C 103.05 209.07 103.38 210.31 104.35 210.88 C 105.33 211.44 106.57 211.11 107.13 210.14 L 107.64 209.28 C 108.20 208.30 107.87 207.06 106.90 206.50 C 105.92 205.93 104.68 206.26 104.12 207.23 Z M 103.63 208.09 L 103.12 208.95 C 102.56 209.92 102.88 211.16 103.85 211.72 C 104.81 212.29 106.05 211.97 106.62 211.00 L 107.12 210.14 C 107.69 209.18 107.36 207.94 106.40 207.37 C 105.43 206.81 104.19 207.13 103.63 208.09 Z M 103.14 208.95 L 102.63 209.80 C 102.06 210.76 102.38 211.99 103.33 212.56 C 104.29 213.13 105.52 212.82 106.09 211.86 L 106.60 211.01 C 107.17 210.05 106.86 208.82 105.90 208.25 C 104.95 207.68 103.71 207.99 103.14 208.95 Z M 102.65 209.79 L 102.12 210.67 C 101.55 211.61 101.85 212.85 102.79 213.42 C 103.74 213.99 104.97 213.69 105.54 212.75 L 106.07 211.87 C 106.65 210.93 106.35 209.69 105.40 209.12 C 104.45 208.55 103.22 208.85 102.65 209.79 Z M 102.14 210.66 L 101.59 211.54 C 101.01 212.48 101.30 213.70 102.23 214.28 C 103.17 214.86 104.39 214.57 104.97 213.64 L 105.52 212.76 C 106.10 211.82 105.82 210.59 104.88 210.02 C 103.95 209.44 102.72 209.72 102.14 210.66 Z M 101.62 211.53 L 101.07 212.39 C 100.48 213.31 100.75 214.53 101.67 215.12 C 102.59 215.71 103.81 215.44 104.40 214.52 L 104.95 213.65 C 105.54 212.73 105.27 211.51 104.35 210.92 C 103.43 210.34 102.20 210.61 101.62 211.53 Z M 101.09 212.37 L 100.55 213.20 C 99.95 214.11 100.20 215.33 101.10 215.92 C 102.01 216.52 103.22 216.27 103.82 215.37 L 104.37 214.54 C 104.97 213.63 104.72 212.41 103.81 211.82 C 102.91 211.22 101.69 211.47 101.09 212.37 Z M 100.58 213.18 L 100.04 213.96 C 99.43 214.85 99.65 216.06 100.54 216.67 C 101.42 217.28 102.64 217.06 103.25 216.17 L 103.79 215.39 C 104.40 214.50 104.18 213.29 103.29 212.68 C 102.40 212.07 101.19 212.29 100.58 213.18 Z M 100.08 213.92 L 99.47 214.76 C 98.84 215.62 99.03 216.83 99.89 217.46 C 100.76 218.09 101.97 217.91 102.60 217.04 L 103.21 216.21 C 103.84 215.35 103.65 214.14 102.79 213.50 C 101.92 212.87 100.71 213.06 100.08 213.92 Z M 99.53 214.71 L 98.88 215.52 C 98.23 216.35 98.37 217.56 99.20 218.22 C 100.03 218.88 101.24 218.74 101.90 217.91 L 102.54 217.09 C 103.20 216.26 103.06 215.05 102.23 214.39 C 101.40 213.73 100.19 213.88 99.53 214.71 Z M 98.95 215.46 L 98.31 216.20 C 97.62 217.00 97.71 218.20 98.50 218.89 C 99.30 219.58 100.50 219.50 101.19 218.70 L 101.83 217.96 C 102.52 217.17 102.44 215.96 101.64 215.27 C 100.84 214.58 99.64 214.67 98.95 215.46 Z M 98.38 216.15 L 97.73 216.83 C 97.01 217.58 97.04 218.78 97.80 219.50 C 98.55 220.22 99.75 220.19 100.47 219.44 L 101.12 218.76 C 101.84 218.00 101.82 216.80 101.06 216.08 C 100.30 215.36 99.10 215.39 98.38 216.15 Z M 97.81 216.77 L 97.10 217.45 C 96.35 218.17 96.32 219.35 97.03 220.10 C 97.74 220.86 98.93 220.89 99.68 220.17 L 100.40 219.49 C 101.15 218.78 101.18 217.59 100.46 216.84 C 99.75 216.09 98.56 216.06 97.81 216.77 Z M 97.17 217.41 L 96.41 218.07 C 95.64 218.74 95.56 219.91 96.23 220.69 C 96.90 221.46 98.08 221.54 98.85 220.87 L 99.61 220.21 C 100.38 219.54 100.47 218.37 99.79 217.59 C 99.12 216.82 97.95 216.73 97.17 217.41 Z M 96.48 218.03 L 95.70 218.66 C 94.91 219.30 94.79 220.46 95.42 221.25 C 96.06 222.04 97.22 222.16 98.01 221.53 L 98.79 220.90 C 99.58 220.26 99.70 219.11 99.07 218.31 C 98.43 217.52 97.27 217.40 96.48 218.03 Z M 95.76 218.64 L 94.96 219.24 C 94.16 219.85 94.00 221.00 94.61 221.80 C 95.21 222.60 96.36 222.76 97.16 222.15 L 97.96 221.55 C 98.76 220.94 98.92 219.80 98.31 218.99 C 97.70 218.19 96.56 218.03 95.76 218.64 Z M 95.01 219.23 L 94.18 219.83 C 93.37 220.41 93.19 221.54 93.77 222.34 C 94.35 223.15 95.48 223.34 96.29 222.76 L 97.11 222.16 C 97.92 221.58 98.10 220.45 97.52 219.64 C 96.94 218.84 95.82 218.65 95.01 219.23 Z M 94.23 219.82 L 93.40 220.38 C 92.59 220.94 92.37 222.05 92.93 222.86 C 93.48 223.67 94.59 223.88 95.40 223.33 L 96.24 222.77 C 97.05 222.21 97.26 221.10 96.71 220.29 C 96.15 219.48 95.04 219.27 94.23 219.82 Z M 93.45 220.37 L 92.62 220.90 C 91.80 221.43 91.57 222.52 92.09 223.34 C 92.61 224.16 93.70 224.40 94.52 223.87 L 95.35 223.34 C 96.17 222.82 96.41 221.73 95.89 220.91 C 95.36 220.09 94.27 219.85 93.45 220.37 Z M 92.68 220.89 L 91.87 221.37 C 91.05 221.86 90.78 222.93 91.27 223.76 C 91.76 224.59 92.83 224.86 93.66 224.36 L 94.46 223.88 C 95.29 223.39 95.56 222.32 95.07 221.50 C 94.58 220.67 93.51 220.40 92.68 220.89 Z M 91.94 221.36 L 91.11 221.81 C 90.28 222.26 89.97 223.31 90.43 224.14 C 90.88 224.97 91.92 225.28 92.76 224.83 L 93.59 224.38 C 94.42 223.93 94.73 222.88 94.28 222.05 C 93.82 221.21 92.78 220.90 91.94 221.36 Z M 91.19 221.80 L 90.28 222.24 C 89.44 222.65 89.10 223.67 89.51 224.51 C 89.92 225.35 90.94 225.70 91.78 225.29 L 92.68 224.84 C 93.52 224.43 93.87 223.41 93.46 222.57 C 93.05 221.73 92.03 221.38 91.19 221.80 Z M 90.35 222.23 L 89.36 222.68 C 88.51 223.05 88.13 224.04 88.51 224.89 C 88.88 225.73 89.87 226.11 90.72 225.74 L 91.71 225.29 C 92.56 224.92 92.94 223.93 92.56 223.08 C 92.19 222.24 91.20 221.86 90.35 222.23 Z M 89.42 222.67 L 88.49 223.04 C 87.64 223.38 87.23 224.35 87.57 225.20 C 87.91 226.05 88.88 226.46 89.73 226.12 L 90.66 225.75 C 91.51 225.40 91.92 224.44 91.58 223.59 C 91.23 222.74 90.27 222.32 89.42 222.67 Z M 88.58 223.02 L 87.59 223.35 C 86.73 223.65 86.27 224.58 86.56 225.45 C 86.86 226.31 87.79 226.77 88.66 226.48 L 89.64 226.14 C 90.50 225.85 90.96 224.91 90.67 224.05 C 90.38 223.19 89.44 222.73 88.58 223.02 Z M 87.74 223.32 L 86.75 223.56 C 85.87 223.78 85.33 224.66 85.54 225.54 C 85.76 226.42 86.64 226.96 87.52 226.75 L 88.51 226.51 C 89.39 226.29 89.93 225.41 89.72 224.53 C 89.50 223.65 88.62 223.11 87.74 223.32 Z M 86.97 223.54 L 86.01 223.63 C 85.12 223.72 84.47 224.52 84.56 225.42 C 84.65 226.31 85.45 226.96 86.34 226.87 L 87.30 226.78 C 88.19 226.69 88.84 225.89 88.75 224.99 C 88.66 224.10 87.86 223.45 86.97 223.54 Z M 86.37 223.65 L 85.39 223.53 C 84.50 223.42 83.70 224.06 83.59 224.94 C 83.48 225.83 84.12 226.64 85.00 226.74 L 85.99 226.86 C 86.87 226.97 87.68 226.33 87.78 225.45 C 87.89 224.56 87.26 223.75 86.37 223.65 Z M 85.77 223.63 L 84.85 223.29 C 84.02 222.97 83.09 223.39 82.78 224.22 C 82.46 225.05 82.88 225.97 83.71 226.29 L 84.63 226.64 C 85.46 226.95 86.38 226.53 86.70 225.70 C 87.01 224.88 86.59 223.95 85.77 223.63 Z M 85.09 223.42 L 84.24 222.91 C 83.49 222.47 82.51 222.71 82.06 223.47 C 81.61 224.23 81.86 225.21 82.62 225.65 L 83.47 226.16 C 84.22 226.61 85.20 226.36 85.65 225.60 C 86.10 224.84 85.85 223.87 85.09 223.42 Z M 84.35 223.00 L 83.54 222.42 C 82.83 221.91 81.84 222.07 81.33 222.78 C 80.82 223.49 80.99 224.48 81.70 224.99 L 82.51 225.57 C 83.22 226.08 84.21 225.91 84.71 225.20 C 85.22 224.49 85.06 223.51 84.35 223.00 Z"
      fill="black"
      fill-rule="nonzero" /><path d="M 146.52 150.81 L 147.24 151.49 C 147.91 152.13 148.97 152.11 149.61 151.44 C 150.25 150.77 150.22 149.70 149.55 149.07 L 148.83 148.39 C 148.16 147.75 147.10 147.77 146.47 148.44 C 145.83 149.12 145.85 150.18 146.52 150.81 Z M 147.17 151.51 L 147.87 152.21 C 148.55 152.88 149.65 152.88 150.32 152.20 C 151.00 151.53 151.00 150.43 150.32 149.76 L 149.62 149.05 C 148.94 148.38 147.84 148.38 147.17 149.06 C 146.49 149.73 146.49 150.83 147.17 151.51 Z M 147.78 152.19 L 148.46 152.93 C 149.13 153.66 150.26 153.71 150.99 153.05 C 151.72 152.38 151.76 151.25 151.10 150.52 L 150.42 149.77 C 149.75 149.05 148.62 149.00 147.89 149.66 C 147.16 150.33 147.11 151.46 147.78 152.19 Z M 148.36 152.88 L 148.95 153.62 C 149.59 154.40 150.74 154.53 151.53 153.89 C 152.32 153.25 152.44 152.10 151.80 151.31 L 151.20 150.57 C 150.57 149.79 149.41 149.67 148.63 150.30 C 147.84 150.94 147.72 152.09 148.36 152.88 Z M 148.87 153.56 L 149.42 154.32 C 150.03 155.16 151.19 155.34 152.02 154.74 C 152.86 154.14 153.04 152.97 152.44 152.14 L 151.89 151.37 C 151.28 150.54 150.12 150.35 149.28 150.96 C 148.45 151.56 148.26 152.72 148.87 153.56 Z M 149.36 154.28 L 149.92 155.12 C 150.50 155.98 151.67 156.22 152.54 155.64 C 153.41 155.06 153.64 153.88 153.06 153.02 L 152.50 152.18 C 151.92 151.31 150.75 151.08 149.88 151.66 C 149.02 152.24 148.78 153.41 149.36 154.28 Z M 149.88 155.09 L 150.46 156.01 C 151.03 156.90 152.21 157.17 153.10 156.60 C 153.99 156.03 154.26 154.85 153.69 153.96 L 153.11 153.04 C 152.54 152.15 151.36 151.89 150.46 152.45 C 149.57 153.02 149.31 154.20 149.88 155.09 Z M 150.43 156.01 L 150.96 156.85 C 151.52 157.76 152.72 158.04 153.62 157.47 C 154.53 156.91 154.81 155.72 154.25 154.81 L 153.72 153.96 C 153.15 153.06 151.96 152.78 151.05 153.34 C 150.15 153.91 149.87 155.10 150.43 156.01 Z M 150.94 156.85 L 151.47 157.72 C 152.04 158.64 153.24 158.92 154.16 158.36 C 155.07 157.79 155.36 156.59 154.80 155.67 L 154.26 154.81 C 153.70 153.89 152.50 153.61 151.58 154.17 C 150.66 154.73 150.38 155.94 150.94 156.85 Z M 151.45 157.72 L 151.99 158.60 C 152.56 159.52 153.77 159.82 154.69 159.25 C 155.62 158.68 155.91 157.47 155.35 156.55 L 154.81 155.67 C 154.25 154.74 153.04 154.45 152.11 155.02 C 151.18 155.58 150.89 156.79 151.45 157.72 Z M 151.97 158.60 L 152.50 159.46 C 153.07 160.40 154.29 160.70 155.22 160.13 C 156.16 159.56 156.45 158.34 155.89 157.40 L 155.36 156.54 C 154.79 155.61 153.57 155.31 152.64 155.88 C 151.70 156.45 151.40 157.67 151.97 158.60 Z M 152.48 159.47 L 153.00 160.32 C 153.57 161.27 154.80 161.57 155.75 160.99 C 156.69 160.42 156.99 159.19 156.42 158.25 L 155.90 157.39 C 155.33 156.45 154.10 156.15 153.15 156.72 C 152.21 157.30 151.91 158.53 152.48 159.47 Z M 153.00 160.33 L 153.54 161.22 C 154.12 162.17 155.35 162.47 156.30 161.89 C 157.25 161.31 157.54 160.07 156.97 159.13 L 156.42 158.24 C 155.85 157.29 154.61 156.99 153.66 157.57 C 152.72 158.15 152.42 159.39 153.00 160.33 Z M 153.54 161.24 L 154.07 162.08 C 154.65 163.02 155.90 163.31 156.84 162.72 C 157.78 162.13 158.07 160.89 157.48 159.94 L 156.96 159.11 C 156.37 158.16 155.13 157.88 154.19 158.47 C 153.24 159.05 152.95 160.30 153.54 161.24 Z M 154.08 162.11 L 154.60 162.92 C 155.21 163.86 156.46 164.12 157.40 163.52 C 158.34 162.91 158.60 161.66 158.00 160.72 L 157.47 159.91 C 156.86 158.97 155.61 158.71 154.67 159.31 C 153.74 159.92 153.47 161.17 154.08 162.11 Z M 154.62 162.96 L 155.17 163.76 C 155.80 164.68 157.06 164.92 157.98 164.29 C 158.91 163.66 159.15 162.40 158.52 161.47 L 157.97 160.68 C 157.34 159.75 156.08 159.51 155.16 160.15 C 154.23 160.78 153.99 162.04 154.62 162.96 Z M 155.19 163.80 L 155.75 164.58 C 156.40 165.49 157.67 165.70 158.59 165.05 C 159.50 164.40 159.71 163.13 159.05 162.21 L 158.49 161.43 C 157.84 160.52 156.57 160.31 155.66 160.96 C 154.74 161.62 154.53 162.89 155.19 163.80 Z M 155.77 164.62 L 156.36 165.41 C 157.03 166.32 158.31 166.50 159.21 165.83 C 160.12 165.16 160.30 163.88 159.63 162.98 L 159.04 162.18 C 158.36 161.28 157.09 161.09 156.18 161.76 C 155.28 162.43 155.09 163.71 155.77 164.62 Z M 156.37 165.44 L 157.00 166.25 C 157.68 167.15 158.97 167.32 159.86 166.63 C 160.76 165.94 160.93 164.66 160.24 163.76 L 159.62 162.95 C 158.93 162.06 157.65 161.89 156.75 162.57 C 155.86 163.26 155.69 164.54 156.37 165.44 Z M 157.01 166.27 L 157.64 167.08 C 158.34 167.97 159.63 168.13 160.52 167.43 C 161.41 166.73 161.56 165.44 160.86 164.55 L 160.23 163.74 C 159.53 162.85 158.25 162.70 157.35 163.40 C 156.46 164.09 156.31 165.38 157.01 166.27 Z M 157.65 167.10 L 158.24 167.84 C 158.95 168.72 160.24 168.87 161.12 168.16 C 162.01 167.45 162.16 166.16 161.45 165.28 L 160.86 164.53 C 160.15 163.65 158.86 163.50 157.97 164.21 C 157.08 164.92 156.94 166.21 157.65 167.10 Z M 158.25 167.86 L 158.86 168.61 C 159.58 169.49 160.88 169.63 161.76 168.91 C 162.64 168.19 162.77 166.90 162.05 166.01 L 161.44 165.26 C 160.72 164.38 159.43 164.24 158.54 164.96 C 157.66 165.68 157.53 166.97 158.25 167.86 Z M 158.88 168.63 L 159.52 169.41 C 160.25 170.28 161.55 170.40 162.42 169.67 C 163.30 168.94 163.42 167.64 162.69 166.77 L 162.04 165.99 C 161.31 165.12 160.01 165.00 159.14 165.73 C 158.27 166.46 158.15 167.76 158.88 168.63 Z M 159.54 169.43 L 160.22 170.22 C 160.96 171.09 162.26 171.19 163.13 170.45 C 163.99 169.71 164.09 168.41 163.35 167.54 L 162.67 166.75 C 161.93 165.88 160.63 165.78 159.76 166.52 C 158.90 167.26 158.79 168.56 159.54 169.43 Z M 160.23 170.25 L 160.90 171.01 C 161.65 171.87 162.96 171.95 163.82 171.20 C 164.68 170.44 164.76 169.13 164.01 168.28 L 163.34 167.52 C 162.58 166.66 161.28 166.57 160.42 167.33 C 159.56 168.08 159.48 169.39 160.23 170.25 Z M 160.92 171.03 L 161.57 171.76 C 162.34 172.60 163.65 172.67 164.50 171.90 C 165.35 171.14 165.41 169.83 164.64 168.98 L 163.99 168.25 C 163.22 167.41 161.91 167.34 161.06 168.11 C 160.22 168.87 160.15 170.18 160.92 171.03 Z M 161.59 171.78 L 162.28 172.51 C 163.06 173.35 164.37 173.39 165.21 172.61 C 166.04 171.83 166.09 170.52 165.31 169.68 L 164.62 168.95 C 163.84 168.11 162.53 168.07 161.69 168.85 C 160.86 169.63 160.81 170.95 161.59 171.78 Z M 162.30 172.54 L 163.01 173.27 C 163.81 174.09 165.12 174.11 165.94 173.31 C 166.77 172.51 166.79 171.20 165.99 170.38 L 165.28 169.65 C 164.48 168.83 163.17 168.81 162.35 169.61 C 161.52 170.41 161.50 171.72 162.30 172.54 Z M 163.04 173.30 L 163.76 174.02 C 164.58 174.83 165.90 174.82 166.70 174.00 C 167.51 173.18 167.50 171.87 166.68 171.06 L 165.96 170.34 C 165.14 169.54 163.82 169.55 163.02 170.36 C 162.21 171.18 162.22 172.50 163.04 173.30 Z M 163.80 174.06 L 164.54 174.75 C 165.38 175.54 166.70 175.50 167.48 174.66 C 168.27 173.82 168.23 172.50 167.39 171.72 L 166.65 171.02 C 165.81 170.23 164.49 170.28 163.70 171.12 C 162.92 171.95 162.96 173.27 163.80 174.06 Z M 164.58 174.79 L 165.33 175.46 C 166.19 176.22 167.51 176.14 168.27 175.28 C 169.03 174.42 168.95 173.10 168.09 172.34 L 167.35 171.68 C 166.48 170.91 165.17 170.99 164.40 171.85 C 163.64 172.71 163.72 174.03 164.58 174.79 Z M 165.37 175.49 L 166.13 176.13 C 167.01 176.88 168.32 176.76 169.07 175.88 C 169.81 175.00 169.70 173.69 168.82 172.95 L 168.06 172.30 C 167.18 171.56 165.86 171.67 165.12 172.55 C 164.37 173.43 164.49 174.75 165.37 175.49 Z M 166.16 176.16 L 166.93 176.79 C 167.83 177.51 169.15 177.37 169.87 176.48 C 170.59 175.58 170.45 174.27 169.56 173.54 L 168.78 172.92 C 167.89 172.19 166.57 172.33 165.85 173.23 C 165.12 174.12 165.26 175.44 166.16 176.16 Z M 166.96 176.81 L 167.75 177.43 C 168.66 178.14 169.97 177.97 170.68 177.06 C 171.39 176.15 171.23 174.84 170.32 174.13 L 169.53 173.52 C 168.62 172.81 167.31 172.97 166.60 173.88 C 165.89 174.79 166.05 176.10 166.96 176.81 Z M 167.77 177.44 L 168.57 178.05 C 169.49 178.75 170.80 178.57 171.50 177.65 C 172.20 176.73 172.02 175.42 171.10 174.72 L 170.30 174.11 C 169.38 173.42 168.07 173.60 167.37 174.52 C 166.67 175.44 166.85 176.75 167.77 177.44 Z M 168.59 178.07 L 169.38 178.66 C 170.31 179.35 171.62 179.16 172.31 178.23 C 173.00 177.30 172.81 175.99 171.88 175.30 L 171.08 174.71 C 170.16 174.02 168.85 174.21 168.16 175.14 C 167.47 176.06 167.66 177.38 168.59 178.07 Z M 169.39 178.67 L 170.19 179.25 C 171.12 179.94 172.43 179.73 173.12 178.80 C 173.80 177.87 173.60 176.56 172.66 175.87 L 171.87 175.29 C 170.93 174.61 169.62 174.81 168.94 175.74 C 168.26 176.67 168.46 177.98 169.39 178.67 Z M 170.20 179.26 L 171.01 179.84 C 171.95 180.52 173.26 180.31 173.93 179.37 C 174.61 178.43 174.40 177.12 173.46 176.45 L 172.65 175.86 C 171.71 175.19 170.40 175.40 169.73 176.34 C 169.05 177.28 169.26 178.59 170.20 179.26 Z M 171.02 179.86 L 171.84 180.44 C 172.79 181.11 174.09 180.88 174.76 179.94 C 175.43 178.99 175.21 177.69 174.27 177.02 L 173.45 176.44 C 172.50 175.77 171.19 175.99 170.52 176.93 C 169.85 177.88 170.08 179.19 171.02 179.86 Z M 171.85 180.45 L 172.68 181.02 C 173.63 181.69 174.94 181.45 175.60 180.50 C 176.27 179.55 176.03 178.25 175.08 177.58 L 174.25 177.01 C 173.30 176.34 172.00 176.57 171.33 177.53 C 170.67 178.48 170.90 179.78 171.85 180.45 Z M 172.69 181.04 L 173.53 181.61 C 174.49 182.27 175.79 182.02 176.45 181.07 C 177.11 180.11 176.86 178.80 175.91 178.15 L 175.07 177.57 C 174.11 176.92 172.81 177.16 172.15 178.12 C 171.49 179.07 171.74 180.38 172.69 181.04 Z M 173.54 181.62 L 174.37 182.18 C 175.34 182.83 176.64 182.57 177.29 181.61 C 177.94 180.65 177.69 179.35 176.72 178.70 L 175.89 178.14 C 174.93 177.49 173.63 177.74 172.98 178.70 C 172.33 179.66 172.58 180.97 173.54 181.62 Z M 174.39 182.19 L 175.22 182.74 C 176.19 183.39 177.49 183.12 178.13 182.16 C 178.78 181.19 178.51 179.89 177.55 179.24 L 176.71 178.69 C 175.75 178.05 174.44 178.31 173.80 179.28 C 173.16 180.24 173.42 181.55 174.39 182.19 Z M 175.23 182.75 L 176.07 183.30 C 177.04 183.94 178.34 183.67 178.98 182.69 C 179.62 181.72 179.35 180.42 178.37 179.79 L 177.54 179.24 C 176.56 178.60 175.26 178.87 174.63 179.84 C 173.99 180.81 174.26 182.11 175.23 182.75 Z M 176.08 183.31 L 176.92 183.85 C 177.90 184.48 179.20 184.20 179.83 183.23 C 180.46 182.25 180.18 180.95 179.20 180.32 L 178.36 179.78 C 177.39 179.15 176.09 179.43 175.46 180.40 C 174.83 181.38 175.11 182.68 176.08 183.31 Z M 176.93 183.86 L 177.77 184.39 C 178.75 185.02 180.05 184.73 180.68 183.76 C 181.30 182.78 181.01 181.48 180.04 180.85 L 179.20 180.32 C 178.22 179.69 176.92 179.98 176.29 180.96 C 175.67 181.93 175.95 183.23 176.93 183.86 Z M 177.78 184.40 L 178.63 184.93 C 179.61 185.55 180.91 185.26 181.53 184.28 C 182.15 183.30 181.85 182.00 180.87 181.38 L 180.03 180.85 C 179.05 180.23 177.75 180.52 177.13 181.50 C 176.51 182.48 176.80 183.78 177.78 184.40 Z M 178.63 184.94 L 179.49 185.48 C 180.48 186.09 181.77 185.79 182.39 184.81 C 183.00 183.83 182.71 182.53 181.72 181.91 L 180.86 181.38 C 179.88 180.76 178.58 181.06 177.97 182.04 C 177.35 183.03 177.65 184.32 178.63 184.94 Z M 179.50 185.48 L 180.35 186.01 C 181.34 186.62 182.63 186.32 183.25 185.33 C 183.86 184.35 183.56 183.05 182.57 182.44 L 181.72 181.91 C 180.73 181.30 179.43 181.60 178.82 182.59 C 178.21 183.57 178.51 184.87 179.50 185.48 Z M 180.36 186.01 L 181.21 186.54 C 182.19 187.15 183.49 186.84 184.10 185.86 C 184.71 184.87 184.40 183.57 183.42 182.96 L 182.57 182.44 C 181.58 181.83 180.28 182.13 179.67 183.12 C 179.06 184.11 179.37 185.40 180.36 186.01 Z M 181.21 186.54 L 182.05 187.06 C 183.04 187.67 184.34 187.36 184.95 186.38 C 185.56 185.39 185.25 184.09 184.26 183.48 L 183.41 182.96 C 182.43 182.35 181.13 182.66 180.52 183.65 C 179.91 184.63 180.22 185.93 181.21 186.54 Z M 182.05 187.06 L 182.89 187.58 C 183.88 188.19 185.18 187.88 185.79 186.90 C 186.40 185.91 186.09 184.61 185.10 184.00 L 184.26 183.48 C 183.27 182.87 181.98 183.18 181.37 184.17 C 180.76 185.16 181.06 186.45 182.05 187.06 Z M 182.89 187.58 L 183.74 188.10 C 184.72 188.72 186.02 188.41 186.63 187.43 C 187.24 186.44 186.94 185.14 185.95 184.53 L 185.11 184.01 C 184.12 183.39 182.82 183.70 182.21 184.68 C 181.60 185.67 181.90 186.97 182.89 187.58 Z M 183.73 188.10 L 184.58 188.63 C 185.56 189.24 186.86 188.95 187.47 187.96 C 188.09 186.98 187.79 185.68 186.81 185.07 L 185.96 184.54 C 184.98 183.92 183.68 184.22 183.06 185.20 C 182.45 186.19 182.75 187.48 183.73 188.10 Z M 184.57 188.62 L 185.41 189.16 C 186.39 189.78 187.69 189.49 188.31 188.51 C 188.93 187.53 188.64 186.23 187.66 185.61 L 186.82 185.07 C 185.84 184.45 184.54 184.75 183.92 185.72 C 183.30 186.70 183.59 188.00 184.57 188.62 Z M 185.40 189.15 L 186.24 189.69 C 187.22 190.31 188.51 190.03 189.14 189.06 C 189.77 188.08 189.49 186.79 188.51 186.16 L 187.67 185.62 C 186.70 184.99 185.40 185.27 184.77 186.25 C 184.15 187.22 184.43 188.52 185.40 189.15 Z M 186.22 189.68 L 187.06 190.22 C 188.03 190.86 189.33 190.59 189.96 189.62 C 190.60 188.66 190.33 187.36 189.36 186.72 L 188.53 186.17 C 187.56 185.53 186.26 185.80 185.62 186.77 C 184.99 187.74 185.26 189.04 186.22 189.68 Z M 187.04 190.21 L 187.87 190.77 C 188.83 191.42 190.14 191.17 190.78 190.21 C 191.43 189.25 191.18 187.94 190.22 187.30 L 189.38 186.73 C 188.42 186.09 187.12 186.34 186.47 187.30 C 185.83 188.26 186.08 189.56 187.04 190.21 Z M 187.85 190.76 L 188.71 191.35 C 189.66 192.01 190.96 191.77 191.62 190.82 C 192.28 189.87 192.04 188.56 191.09 187.90 L 190.24 187.31 C 189.29 186.65 187.98 186.89 187.32 187.84 C 186.66 188.79 186.90 190.10 187.85 190.76 Z M 188.69 191.33 L 189.53 191.93 C 190.47 192.60 191.78 192.38 192.45 191.43 C 193.12 190.49 192.89 189.18 191.95 188.51 L 191.11 187.92 C 190.17 187.25 188.86 187.47 188.19 188.41 C 187.52 189.36 187.74 190.66 188.69 191.33 Z M 189.51 191.92 L 190.33 192.51 C 191.27 193.19 192.58 192.98 193.26 192.04 C 193.93 191.10 193.72 189.80 192.79 189.12 L 191.97 188.53 C 191.03 187.85 189.72 188.06 189.04 189.00 C 188.37 189.93 188.58 191.24 189.51 191.92 Z M 190.32 192.50 L 191.12 193.08 C 192.05 193.77 193.36 193.57 194.04 192.63 C 194.72 191.70 194.52 190.39 193.59 189.71 L 192.80 189.13 C 191.87 188.44 190.56 188.65 189.87 189.58 C 189.19 190.51 189.39 191.82 190.32 192.50 Z M 191.11 193.08 L 191.87 193.64 C 192.79 194.33 194.10 194.13 194.79 193.21 C 195.48 192.28 195.29 190.97 194.36 190.28 L 193.60 189.72 C 192.67 189.03 191.36 189.22 190.67 190.15 C 189.99 191.08 190.18 192.39 191.11 193.08 Z M 191.86 193.63 L 192.70 194.26 C 193.62 194.95 194.93 194.76 195.63 193.84 C 196.32 192.91 196.13 191.61 195.20 190.91 L 194.36 190.29 C 193.44 189.60 192.13 189.79 191.44 190.71 C 190.75 191.63 190.94 192.94 191.86 193.63 Z M 192.70 194.25 L 193.51 194.87 C 194.43 195.57 195.74 195.38 196.44 194.46 C 197.13 193.54 196.95 192.23 196.03 191.54 L 195.21 190.92 C 194.29 190.23 192.98 190.41 192.29 191.33 C 191.59 192.25 191.77 193.56 192.70 194.25 Z M 193.51 194.86 L 194.29 195.46 C 195.20 196.16 196.51 195.98 197.21 195.06 C 197.91 194.15 197.73 192.84 196.82 192.14 L 196.03 191.55 C 195.12 190.85 193.81 191.03 193.11 191.94 C 192.41 192.86 192.59 194.17 193.51 194.86 Z M 194.28 195.45 L 195.04 196.04 C 195.95 196.74 197.26 196.57 197.96 195.66 C 198.66 194.74 198.49 193.44 197.58 192.73 L 196.82 192.15 C 195.91 191.45 194.60 191.62 193.90 192.53 C 193.20 193.44 193.37 194.75 194.28 195.45 Z M 195.03 196.03 L 195.79 196.62 C 196.70 197.33 198.01 197.16 198.71 196.26 C 199.42 195.35 199.26 194.04 198.35 193.34 L 197.59 192.74 C 196.68 192.04 195.38 192.20 194.67 193.11 C 193.96 194.01 194.13 195.32 195.03 196.03 Z M 195.79 196.61 L 196.56 197.22 C 197.46 197.93 198.77 197.78 199.48 196.87 C 200.19 195.97 200.04 194.67 199.13 193.96 L 198.36 193.34 C 197.46 192.63 196.15 192.79 195.44 193.69 C 194.73 194.59 194.88 195.90 195.79 196.61 Z M 196.56 197.22 L 197.34 197.83 C 198.24 198.55 199.55 198.39 200.26 197.50 C 200.97 196.60 200.82 195.29 199.92 194.58 L 199.14 193.96 C 198.24 193.25 196.93 193.40 196.22 194.30 C 195.51 195.20 195.66 196.51 196.56 197.22 Z M 197.34 197.83 L 198.13 198.46 C 199.03 199.17 200.33 199.02 201.04 198.12 C 201.75 197.22 201.60 195.92 200.71 195.21 L 199.92 194.58 C 199.02 193.87 197.72 194.02 197.00 194.92 C 196.29 195.82 196.44 197.12 197.34 197.83 Z M 198.13 198.46 L 198.93 199.08 C 199.83 199.79 201.13 199.64 201.84 198.74 C 202.55 197.85 202.39 196.54 201.50 195.83 L 200.70 195.21 C 199.80 194.50 198.50 194.65 197.79 195.55 C 197.08 196.45 197.24 197.75 198.13 198.46 Z M 198.93 199.09 L 199.69 199.68 C 200.59 200.39 201.89 200.23 202.60 199.33 C 203.30 198.44 203.15 197.13 202.25 196.43 L 201.49 195.83 C 200.59 195.13 199.29 195.28 198.58 196.18 C 197.88 197.08 198.04 198.38 198.93 199.09 Z M 199.70 199.69 L 200.48 200.29 C 201.38 200.99 202.68 200.83 203.38 199.93 C 204.08 199.03 203.92 197.73 203.02 197.03 L 202.24 196.43 C 201.34 195.72 200.04 195.89 199.34 196.79 C 198.64 197.69 198.80 198.98 199.70 199.69 Z M 200.49 200.29 L 201.28 200.91 C 202.18 201.61 203.48 201.44 204.18 200.54 C 204.87 199.64 204.71 198.34 203.81 197.64 L 203.01 197.03 C 202.11 196.33 200.81 196.50 200.12 197.40 C 199.42 198.30 199.58 199.60 200.49 200.29 Z M 201.29 200.91 L 202.11 201.54 C 203.01 202.23 204.30 202.06 205.00 201.15 C 205.69 200.25 205.52 198.96 204.61 198.26 L 203.80 197.64 C 202.89 196.95 201.60 197.12 200.91 198.02 C 200.22 198.93 200.39 200.22 201.29 200.91 Z M 202.12 201.54 L 202.91 202.15 C 203.82 202.83 205.11 202.65 205.80 201.75 C 206.48 200.84 206.31 199.55 205.40 198.86 L 204.60 198.26 C 203.70 197.57 202.41 197.75 201.72 198.66 C 201.03 199.56 201.21 200.85 202.12 201.54 Z M 202.92 202.15 L 203.70 202.74 C 204.61 203.42 205.90 203.23 206.58 202.33 C 207.26 201.42 207.08 200.13 206.17 199.45 L 205.39 198.86 C 204.48 198.18 203.19 198.36 202.51 199.27 C 201.83 200.18 202.01 201.47 202.92 202.15 Z M 203.71 202.74 L 204.51 203.33 C 205.42 204.01 206.71 203.82 207.38 202.91 C 208.06 202.00 207.87 200.71 206.96 200.04 L 206.16 199.44 C 205.25 198.77 203.97 198.95 203.29 199.87 C 202.61 200.78 202.80 202.06 203.71 202.74 Z M 204.52 203.34 L 205.33 203.94 C 206.25 204.61 207.53 204.41 208.20 203.50 C 208.88 202.59 208.68 201.30 207.77 200.63 L 206.95 200.03 C 206.04 199.36 204.75 199.56 204.08 200.47 C 203.41 201.38 203.61 202.67 204.52 203.34 Z M 205.34 203.94 L 206.17 204.54 C 207.09 205.21 208.37 205.01 209.04 204.09 C 209.70 203.18 209.50 201.89 208.58 201.23 L 207.76 200.63 C 206.84 199.96 205.56 200.16 204.89 201.08 C 204.23 201.99 204.43 203.28 205.34 203.94 Z M 206.18 204.55 L 206.99 205.13 C 207.91 205.79 209.19 205.58 209.85 204.66 C 210.51 203.74 210.30 202.46 209.38 201.80 L 208.57 201.22 C 207.66 200.56 206.38 200.77 205.72 201.69 C 205.06 202.61 205.27 203.89 206.18 204.55 Z M 207.00 205.13 L 207.79 205.69 C 208.71 206.35 209.98 206.13 210.64 205.21 C 211.29 204.29 211.08 203.01 210.16 202.36 L 209.37 201.80 C 208.45 201.14 207.17 201.36 206.52 202.28 C 205.86 203.20 206.08 204.48 207.00 205.13 Z M 207.80 205.69 L 208.60 206.26 C 209.52 206.91 210.79 206.69 211.44 205.76 C 212.09 204.84 211.87 203.57 210.95 202.92 L 210.15 202.35 C 209.22 201.70 207.95 201.93 207.30 202.85 C 206.65 203.77 206.87 205.05 207.80 205.69 Z M 208.60 206.26 L 209.43 206.83 C 210.35 207.48 211.62 207.25 212.27 206.33 C 212.91 205.40 212.68 204.13 211.76 203.49 L 210.94 202.91 C 210.01 202.27 208.74 202.50 208.10 203.42 C 207.45 204.35 207.68 205.62 208.60 206.26 Z M 209.43 206.84 L 210.28 207.42 C 211.20 208.06 212.47 207.83 213.11 206.90 C 213.75 205.98 213.52 204.71 212.60 204.07 L 211.75 203.48 C 210.83 202.84 209.56 203.07 208.92 204.00 C 208.28 204.93 208.51 206.20 209.43 206.84 Z M 210.28 207.42 L 211.15 208.02 C 212.08 208.65 213.34 208.42 213.98 207.49 C 214.62 206.56 214.38 205.30 213.45 204.66 L 212.59 204.07 C 211.66 203.43 210.39 203.66 209.76 204.59 C 209.12 205.52 209.36 206.78 210.28 207.42 Z M 211.16 208.02 L 211.97 208.58 C 212.90 209.21 214.17 208.97 214.80 208.04 C 215.43 207.12 215.20 205.85 214.27 205.22 L 213.45 204.66 C 212.52 204.03 211.26 204.26 210.62 205.19 C 209.99 206.12 210.23 207.38 211.16 208.02 Z M 211.98 208.58 L 212.81 209.15 C 213.74 209.78 215.01 209.54 215.64 208.61 C 216.27 207.68 216.03 206.42 215.10 205.79 L 214.26 205.22 C 213.34 204.59 212.07 204.83 211.44 205.76 C 210.81 206.68 211.05 207.95 211.98 208.58 Z M 212.82 209.15 L 213.66 209.72 C 214.59 210.34 215.85 210.10 216.48 209.17 C 217.11 208.24 216.86 206.98 215.94 206.35 L 215.09 205.78 C 214.17 205.16 212.90 205.40 212.28 206.33 C 211.65 207.26 211.89 208.52 212.82 209.15 Z M 213.67 209.72 L 214.51 210.28 C 215.43 210.91 216.69 210.66 217.32 209.73 C 217.94 208.81 217.70 207.55 216.77 206.92 L 215.93 206.35 C 215.00 205.73 213.74 205.97 213.12 206.90 C 212.49 207.83 212.74 209.09 213.67 209.72 Z M 214.51 210.28 L 215.34 210.84 C 216.27 211.46 217.52 211.21 218.15 210.28 C 218.77 209.36 218.52 208.10 217.59 207.48 L 216.77 206.92 C 215.84 206.30 214.58 206.54 213.96 207.47 C 213.33 208.40 213.58 209.66 214.51 210.28 Z M 215.34 210.84 L 216.16 211.38 C 217.09 212.00 218.34 211.75 218.96 210.82 C 219.58 209.89 219.33 208.64 218.40 208.02 L 217.59 207.47 C 216.66 206.85 215.40 207.10 214.78 208.03 C 214.16 208.96 214.41 210.22 215.34 210.84 Z M 216.16 211.38 L 217.05 211.97 C 217.97 212.59 219.23 212.34 219.85 211.41 C 220.46 210.48 220.21 209.22 219.28 208.61 L 218.40 208.02 C 217.47 207.40 216.22 207.65 215.60 208.58 C 214.98 209.51 215.23 210.76 216.16 211.38 Z M 217.05 211.97 L 217.90 212.54 C 218.83 213.15 220.08 212.90 220.70 211.97 C 221.32 211.04 221.06 209.79 220.13 209.17 L 219.28 208.61 C 218.35 207.99 217.10 208.24 216.48 209.17 C 215.87 210.10 216.12 211.35 217.05 211.97 Z M 217.90 212.53 L 218.73 213.08 C 219.66 213.70 220.91 213.44 221.53 212.51 C 222.14 211.58 221.89 210.33 220.96 209.72 L 220.13 209.17 C 219.20 208.56 217.95 208.81 217.34 209.74 C 216.72 210.67 216.98 211.92 217.90 212.53 Z M 218.73 213.08 L 219.54 213.62 C 220.47 214.23 221.72 213.98 222.33 213.05 C 222.95 212.12 222.69 210.87 221.77 210.26 L 220.96 209.72 C 220.03 209.11 218.78 209.36 218.17 210.29 C 217.55 211.22 217.81 212.47 218.73 213.08 Z M 219.54 213.61 L 220.34 214.14 C 221.26 214.76 222.51 214.50 223.13 213.58 C 223.74 212.65 223.49 211.40 222.56 210.79 L 221.77 210.26 C 220.84 209.65 219.59 209.90 218.98 210.82 C 218.36 211.75 218.61 213.00 219.54 213.61 Z M 220.33 214.14 L 221.17 214.70 C 222.09 215.31 223.34 215.06 223.96 214.14 C 224.57 213.22 224.33 211.97 223.40 211.35 L 222.57 210.79 C 221.64 210.18 220.40 210.43 219.78 211.35 C 219.16 212.27 219.41 213.52 220.33 214.14 Z M 221.17 214.69 L 222.01 215.26 C 222.93 215.87 224.17 215.63 224.79 214.71 C 225.41 213.79 225.17 212.54 224.25 211.92 L 223.41 211.36 C 222.49 210.74 221.24 210.98 220.62 211.90 C 220.00 212.82 220.25 214.07 221.17 214.69 Z M 222.00 215.25 L 222.83 215.81 C 223.75 216.44 225.00 216.20 225.62 215.28 C 226.24 214.36 226.00 213.11 225.08 212.49 L 224.25 211.93 C 223.34 211.31 222.09 211.55 221.47 212.46 C 220.85 213.38 221.08 214.63 222.00 215.25 Z M 222.83 215.81 L 223.65 216.37 C 224.56 216.99 225.81 216.76 226.43 215.84 C 227.06 214.93 226.82 213.68 225.91 213.06 L 225.09 212.50 C 224.18 211.87 222.93 212.11 222.30 213.02 C 221.68 213.94 221.91 215.18 222.83 215.81 Z M 223.64 216.36 L 224.45 216.92 C 225.35 217.54 226.60 217.32 227.23 216.41 C 227.86 215.50 227.63 214.25 226.72 213.62 L 225.91 213.07 C 225.01 212.44 223.76 212.67 223.13 213.58 C 222.50 214.49 222.73 215.73 223.64 216.36 Z M 224.44 216.91 L 225.28 217.50 C 226.19 218.13 227.44 217.91 228.07 217.00 C 228.70 216.10 228.48 214.85 227.57 214.22 L 226.73 213.63 C 225.82 213.00 224.58 213.22 223.94 214.13 C 223.31 215.03 223.53 216.28 224.44 216.91 Z M 225.28 217.49 L 226.11 218.08 C 227.01 218.72 228.25 218.50 228.89 217.60 C 229.53 216.70 229.31 215.46 228.41 214.82 L 227.58 214.23 C 226.68 213.59 225.44 213.81 224.80 214.71 C 224.16 215.61 224.38 216.85 225.28 217.49 Z M 226.10 218.07 L 226.91 218.65 C 227.80 219.29 229.05 219.09 229.69 218.20 C 230.33 217.30 230.13 216.06 229.23 215.41 L 228.42 214.83 C 227.53 214.19 226.29 214.39 225.64 215.29 C 225.00 216.18 225.20 217.43 226.10 218.07 Z M 226.90 218.64 L 227.68 219.21 C 228.57 219.86 229.81 219.67 230.46 218.78 C 231.11 217.90 230.92 216.65 230.03 216.00 L 229.25 215.43 C 228.36 214.78 227.11 214.97 226.47 215.86 C 225.82 216.74 226.01 217.99 226.90 218.64 Z M 227.67 219.20 L 228.47 219.80 C 229.34 220.45 230.59 220.27 231.25 219.40 C 231.90 218.52 231.73 217.27 230.85 216.61 L 230.05 216.02 C 229.17 215.36 227.92 215.54 227.27 216.42 C 226.61 217.30 226.79 218.54 227.67 219.20 Z M 228.45 219.78 L 229.28 220.42 C 230.15 221.08 231.39 220.92 232.06 220.05 C 232.73 219.18 232.56 217.93 231.69 217.27 L 230.86 216.63 C 229.99 215.96 228.75 216.13 228.08 217.00 C 227.41 217.87 227.58 219.11 228.45 219.78 Z M 229.26 220.40 L 230.06 221.02 C 230.92 221.70 232.16 221.54 232.84 220.68 C 233.51 219.82 233.36 218.58 232.50 217.90 L 231.71 217.28 C 230.85 216.61 229.60 216.76 228.93 217.62 C 228.25 218.48 228.40 219.73 229.26 220.40 Z M 230.05 221.01 L 230.80 221.61 C 231.65 222.29 232.90 222.15 233.58 221.30 C 234.26 220.45 234.12 219.20 233.27 218.52 L 232.51 217.92 C 231.66 217.23 230.41 217.37 229.73 218.23 C 229.05 219.08 229.19 220.33 230.05 221.01 Z M 230.79 221.60 L 231.52 222.19 C 232.37 222.88 233.61 222.75 234.30 221.91 C 234.99 221.06 234.86 219.82 234.01 219.13 L 233.28 218.53 C 232.43 217.85 231.19 217.97 230.50 218.82 C 229.81 219.67 229.94 220.91 230.79 221.60 Z M 231.51 222.18 L 232.24 222.79 C 233.08 223.48 234.32 223.37 235.02 222.53 C 235.71 221.69 235.60 220.45 234.76 219.76 L 234.03 219.15 C 233.19 218.45 231.95 218.56 231.25 219.40 C 230.56 220.24 230.67 221.48 231.51 222.18 Z M 232.21 222.76 L 232.94 223.39 C 233.76 224.10 235.01 224.02 235.72 223.19 C 236.43 222.37 236.34 221.13 235.52 220.42 L 234.79 219.78 C 233.97 219.07 232.73 219.16 232.01 219.98 C 231.30 220.80 231.39 222.04 232.21 222.76 Z M 232.91 223.36 L 233.68 224.06 C 234.48 224.79 235.72 224.73 236.45 223.93 C 237.18 223.13 237.13 221.89 236.33 221.16 L 235.56 220.46 C 234.76 219.72 233.51 219.78 232.78 220.58 C 232.05 221.38 232.11 222.62 232.91 223.36 Z M 233.64 224.02 L 234.38 224.73 C 235.16 225.48 236.40 225.45 237.15 224.67 C 237.90 223.89 237.88 222.65 237.10 221.90 L 236.36 221.19 C 235.58 220.44 234.34 220.47 233.59 221.25 C 232.84 222.03 232.86 223.27 233.64 224.02 Z M 234.36 224.70 L 235.07 225.41 C 235.83 226.17 237.07 226.17 237.84 225.41 C 238.60 224.64 238.60 223.40 237.83 222.64 L 237.12 221.93 C 236.35 221.17 235.11 221.17 234.35 221.93 C 233.59 222.70 233.59 223.94 234.36 224.70 Z M 235.05 225.39 L 235.77 226.13 C 236.52 226.90 237.76 226.92 238.54 226.17 C 239.31 225.42 239.33 224.18 238.57 223.41 L 237.85 222.66 C 237.10 221.89 235.86 221.87 235.09 222.62 C 234.32 223.38 234.30 224.61 235.05 225.39 Z M 235.75 226.11 L 236.46 226.85 C 237.19 227.63 238.43 227.67 239.21 226.93 C 240.00 226.19 240.03 224.95 239.29 224.17 L 238.59 223.43 C 237.85 222.64 236.62 222.61 235.83 223.35 C 235.05 224.09 235.01 225.32 235.75 226.11 Z M 236.44 226.82 L 237.09 227.54 C 237.81 228.33 239.04 228.39 239.84 227.66 C 240.63 226.94 240.69 225.70 239.96 224.91 L 239.31 224.20 C 238.59 223.40 237.35 223.35 236.56 224.07 C 235.77 224.80 235.71 226.03 236.44 226.82 Z M 237.06 227.50 L 237.79 228.33 C 238.50 229.14 239.72 229.22 240.53 228.51 C 241.34 227.80 241.42 226.57 240.71 225.76 L 239.99 224.94 C 239.28 224.13 238.05 224.05 237.24 224.76 C 236.44 225.47 236.36 226.70 237.06 227.50 Z M 237.78 228.31 L 238.43 229.06 C 239.12 229.88 240.35 229.97 241.16 229.27 C 241.97 228.58 242.06 227.35 241.37 226.54 L 240.72 225.78 C 240.02 224.97 238.80 224.88 237.99 225.58 C 237.17 226.27 237.08 227.50 237.78 228.31 Z M 238.44 229.08 L 239.07 229.79 C 239.77 230.59 240.99 230.67 241.79 229.97 C 242.59 229.26 242.68 228.04 241.97 227.24 L 241.35 226.53 C 240.65 225.73 239.43 225.65 238.62 226.35 C 237.82 227.05 237.74 228.27 238.44 229.08 Z M 239.12 229.83 L 239.83 230.59 C 240.56 231.37 241.78 231.41 242.56 230.68 C 243.33 229.95 243.37 228.73 242.64 227.96 L 241.92 227.19 C 241.19 226.42 239.97 226.38 239.20 227.11 C 238.43 227.84 238.39 229.06 239.12 229.83 Z M 239.99 230.73 L 240.87 231.48 C 241.67 232.17 242.88 232.08 243.57 231.28 C 244.26 230.48 244.17 229.27 243.37 228.58 L 242.49 227.82 C 241.68 227.13 240.48 227.22 239.79 228.03 C 239.10 228.83 239.19 230.04 239.99 230.73 Z M 241.56 231.85 L 242.30 232.08 C 243.30 232.39 244.37 231.82 244.67 230.82 C 244.98 229.81 244.42 228.75 243.41 228.44 L 242.67 228.21 C 241.67 227.91 240.61 228.47 240.30 229.47 C 239.99 230.48 240.55 231.54 241.56 231.85 Z M 244.30 231.46 L 244.66 231.02 C 245.33 230.23 245.22 229.04 244.42 228.38 C 243.62 227.72 242.44 227.82 241.78 228.62 L 241.41 229.06 C 240.75 229.86 240.86 231.04 241.66 231.70 C 242.45 232.37 243.64 232.26 244.30 231.46 Z M 245.02 230.15 L 245.16 229.40 C 245.35 228.41 244.69 227.45 243.69 227.27 C 242.69 227.08 241.74 227.74 241.56 228.74 L 241.42 229.49 C 241.23 230.49 241.89 231.44 242.89 231.63 C 243.88 231.81 244.84 231.15 245.02 230.15 Z M 245.14 229.14 L 245.18 228.12 C 245.22 227.14 244.45 226.31 243.47 226.27 C 242.49 226.23 241.66 227.00 241.62 227.98 L 241.58 229.00 C 241.54 229.98 242.30 230.81 243.29 230.85 C 244.27 230.89 245.10 230.13 245.14 229.14 Z M 245.13 228.02 L 245.10 226.82 C 245.09 225.87 244.30 225.11 243.34 225.13 C 242.39 225.15 241.63 225.94 241.65 226.89 L 241.67 228.09 C 241.69 229.04 242.48 229.80 243.43 229.78 C 244.39 229.76 245.15 228.97 245.13 228.02 Z M 245.05 226.79 L 245.00 225.60 C 244.96 224.67 244.18 223.95 243.26 223.99 C 242.33 224.03 241.61 224.81 241.65 225.74 L 241.70 226.93 C 241.74 227.85 242.52 228.57 243.45 228.53 C 244.37 228.50 245.09 227.71 245.05 226.79 Z"
      fill="black"
      fill-rule="nonzero" /></svg>