<svg xmlns="http://www.w3.org/2000/svg" width="300" height="300" viewBox="0 0 300 300">
<path d="M 144.49 83.36 L 144.41 81.95 C 144.35 81.01 143.54 80.29 142.60 80.34 C 141.66 80.40 140.95 81.20 141.00 82.15 L 141.08 83.55 C 141.14 84.49 141.94 85.21 142.88 85.16 C 143.82 85.10 144.54 84.30 144.49 83.36 Z M 144.45 82.01 L 144.43 80.97 C 144.41 80.00 143.61 79.24 142.65 79.26 C 141.68 79.28 140.92 80.07 140.94 81.04 L 140.96 82.08 C 140.98 83.05 141.77 83.81 142.74 83.79 C 143.70 83.77 144.47 82.98 144.45 82.01 Z M 144.39 81.53 L 144.49 81.21 C 144.77 80.27 144.24 79.27 143.30 78.98 C 142.36 78.69 141.36 79.22 141.07 80.16 L 140.98 80.48 C 140.69 81.42 141.22 82.42 142.16 82.71 C 143.10 83.00 144.10 82.47 144.39 81.53 Z M 141.12 81.44 L 141.33 81.90 C 141.74 82.81 142.82 83.22 143.74 82.81 C 144.65 82.39 145.06 81.31 144.65 80.40 L 144.44 79.94 C 144.02 79.02 142.95 78.61 142.03 79.03 C 141.11 79.44 140.71 80.52 141.12 81.44 Z M 141.21 81.69 L 141.52 82.69 C 141.82 83.67 142.85 84.22 143.83 83.92 C 144.81 83.62 145.37 82.58 145.07 81.60 L 144.76 80.60 C 144.46 79.62 143.43 79.07 142.45 79.37 C 141.46 79.67 140.91 80.71 141.21 81.69 Z M 141.47 82.65 L 141.84 83.99 C 142.13 84.99 143.17 85.58 144.18 85.30 C 145.18 85.01 145.77 83.97 145.49 82.96 L 145.11 81.63 C 144.83 80.63 143.79 80.04 142.78 80.32 C 141.78 80.60 141.19 81.65 141.47 82.65 Z M 141.82 83.99 L 142.13 85.11 C 142.42 86.13 143.48 86.72 144.50 86.44 C 145.52 86.15 146.11 85.09 145.83 84.07 L 145.51 82.96 C 145.23 81.94 144.17 81.34 143.15 81.63 C 142.13 81.91 141.53 82.97 141.82 83.99 Z M 142.11 85.12 L 142.40 86.12 C 142.69 87.15 143.77 87.75 144.80 87.45 C 145.83 87.16 146.42 86.08 146.13 85.05 L 145.84 84.05 C 145.55 83.02 144.48 82.43 143.45 82.72 C 142.42 83.02 141.82 84.09 142.11 85.12 Z M 142.38 86.13 L 142.67 87.12 C 142.97 88.16 144.05 88.76 145.09 88.46 C 146.13 88.16 146.73 87.07 146.43 86.04 L 146.14 85.04 C 145.84 84.00 144.76 83.41 143.72 83.71 C 142.68 84.01 142.08 85.09 142.38 86.13 Z M 142.65 87.13 L 142.93 88.09 C 143.24 89.14 144.33 89.74 145.38 89.44 C 146.43 89.13 147.03 88.04 146.73 86.99 L 146.45 86.03 C 146.14 84.98 145.05 84.38 144.00 84.68 C 142.95 84.99 142.35 86.08 142.65 87.13 Z M 142.92 88.10 L 143.18 89.01 C 143.49 90.07 144.60 90.67 145.65 90.36 C 146.71 90.05 147.32 88.95 147.01 87.89 L 146.74 86.98 C 146.43 85.93 145.33 85.32 144.27 85.63 C 143.21 85.94 142.61 87.04 142.92 88.10 Z M 143.17 89.01 L 143.46 90.03 C 143.78 91.09 144.89 91.70 145.95 91.39 C 147.02 91.08 147.63 89.96 147.32 88.90 L 147.02 87.89 C 146.71 86.82 145.60 86.21 144.53 86.52 C 143.47 86.84 142.86 87.95 143.17 89.01 Z M 143.45 90.03 L 143.74 91.03 C 144.06 92.10 145.18 92.71 146.25 92.40 C 147.32 92.09 147.93 90.97 147.62 89.90 L 147.33 88.90 C 147.02 87.83 145.90 87.21 144.83 87.53 C 143.76 87.84 143.14 88.96 143.45 90.03 Z M 143.73 91.03 L 144.00 91.94 C 144.31 93.02 145.43 93.64 146.51 93.33 C 147.58 93.02 148.21 91.90 147.90 90.82 L 147.63 89.90 C 147.32 88.83 146.20 88.20 145.12 88.51 C 144.04 88.82 143.42 89.95 143.73 91.03 Z M 143.98 91.94 L 144.24 92.82 C 144.54 93.90 145.67 94.53 146.75 94.23 C 147.84 93.92 148.47 92.79 148.16 91.71 L 147.91 90.83 C 147.60 89.74 146.47 89.11 145.39 89.42 C 144.31 89.73 143.68 90.85 143.98 91.94 Z M 144.22 92.81 L 144.48 93.74 C 144.79 94.83 145.91 95.47 147.00 95.17 C 148.09 94.87 148.73 93.74 148.43 92.65 L 148.17 91.72 C 147.87 90.63 146.74 89.99 145.65 90.29 C 144.56 90.60 143.92 91.72 144.22 92.81 Z M 144.47 93.74 L 144.73 94.69 C 145.03 95.79 146.16 96.43 147.25 96.14 C 148.35 95.84 149.00 94.71 148.70 93.62 L 148.44 92.66 C 148.14 91.56 147.01 90.92 145.92 91.21 C 144.82 91.51 144.18 92.64 144.47 93.74 Z M 144.72 94.68 L 144.98 95.66 C 145.28 96.76 146.40 97.42 147.50 97.12 C 148.60 96.83 149.26 95.70 148.97 94.60 L 148.71 93.63 C 148.41 92.53 147.29 91.87 146.19 92.16 C 145.09 92.46 144.43 93.58 144.72 94.68 Z M 144.98 95.65 L 145.23 96.63 C 145.52 97.73 146.64 98.39 147.75 98.10 C 148.85 97.82 149.52 96.69 149.23 95.58 L 148.98 94.61 C 148.69 93.51 147.56 92.85 146.45 93.13 C 145.35 93.42 144.69 94.55 144.98 95.65 Z M 145.22 96.62 L 145.46 97.55 C 145.74 98.66 146.87 99.33 147.98 99.05 C 149.09 98.76 149.76 97.64 149.48 96.53 L 149.24 95.59 C 148.95 94.48 147.82 93.81 146.72 94.10 C 145.61 94.38 144.94 95.51 145.22 96.62 Z M 145.45 97.55 L 145.70 98.51 C 145.98 99.62 147.10 100.30 148.22 100.02 C 149.33 99.74 150.00 98.61 149.72 97.50 L 149.48 96.53 C 149.20 95.42 148.07 94.75 146.96 95.03 C 145.85 95.31 145.17 96.43 145.45 97.55 Z M 145.69 98.50 L 145.94 99.50 C 146.21 100.62 147.34 101.30 148.46 101.02 C 149.57 100.74 150.25 99.61 149.98 98.50 L 149.73 97.50 C 149.45 96.39 148.32 95.71 147.21 95.98 C 146.09 96.26 145.41 97.39 145.69 98.50 Z M 145.93 99.50 L 146.17 100.48 C 146.45 101.60 147.58 102.28 148.70 102.01 C 149.82 101.73 150.50 100.60 150.22 99.48 L 149.98 98.50 C 149.71 97.38 148.58 96.70 147.46 96.97 C 146.34 97.25 145.66 98.38 145.93 99.50 Z M 146.17 100.47 L 146.40 101.42 C 146.67 102.54 147.80 103.23 148.92 102.96 C 150.04 102.69 150.73 101.56 150.46 100.44 L 150.23 99.49 C 149.96 98.37 148.83 97.68 147.71 97.95 C 146.58 98.22 145.90 99.35 146.17 100.47 Z M 146.39 101.41 L 146.62 102.38 C 146.89 103.51 148.02 104.20 149.14 103.94 C 150.27 103.67 150.96 102.54 150.70 101.42 L 150.47 100.45 C 150.20 99.32 149.07 98.63 147.95 98.89 C 146.82 99.16 146.13 100.29 146.39 101.41 Z M 146.61 102.37 L 146.84 103.36 C 147.10 104.49 148.22 105.19 149.35 104.94 C 150.48 104.68 151.19 103.56 150.93 102.43 L 150.70 101.44 C 150.45 100.31 149.32 99.60 148.19 99.86 C 147.07 100.11 146.36 101.24 146.61 102.37 Z M 146.83 103.34 L 147.05 104.34 C 147.29 105.47 148.41 106.19 149.54 105.95 C 150.68 105.70 151.40 104.59 151.15 103.45 L 150.94 102.45 C 150.69 101.32 149.58 100.60 148.44 100.84 C 147.31 101.09 146.59 102.20 146.83 103.34 Z M 147.04 104.31 L 147.23 105.27 C 147.46 106.41 148.57 107.15 149.71 106.92 C 150.85 106.69 151.59 105.58 151.36 104.44 L 151.16 103.48 C 150.93 102.34 149.82 101.60 148.68 101.83 C 147.54 102.06 146.81 103.17 147.04 104.31 Z M 147.21 105.24 L 147.40 106.21 C 147.61 107.36 148.72 108.11 149.86 107.90 C 151.01 107.68 151.77 106.58 151.55 105.43 L 151.37 104.46 C 151.16 103.31 150.05 102.56 148.90 102.77 C 147.75 102.99 147.00 104.09 147.21 105.24 Z M 147.38 106.18 L 147.55 107.17 C 147.76 108.32 148.86 109.10 150.01 108.89 C 151.17 108.69 151.94 107.59 151.74 106.44 L 151.57 105.45 C 151.36 104.30 150.26 103.53 149.11 103.73 C 147.95 103.93 147.18 105.03 147.38 106.18 Z M 147.54 107.15 L 147.71 108.15 C 147.90 109.31 148.99 110.10 150.15 109.91 C 151.31 109.72 152.10 108.63 151.91 107.47 L 151.75 106.46 C 151.56 105.30 150.47 104.51 149.30 104.70 C 148.14 104.89 147.35 105.98 147.54 107.15 Z M 147.69 108.13 L 147.84 109.11 C 148.02 110.28 149.11 111.09 150.28 110.91 C 151.45 110.73 152.25 109.64 152.08 108.47 L 151.93 107.49 C 151.75 106.32 150.66 105.52 149.49 105.69 C 148.32 105.87 147.52 106.96 147.69 108.13 Z M 147.83 109.10 L 147.96 110.03 C 148.13 111.20 149.22 112.02 150.39 111.85 C 151.57 111.69 152.39 110.60 152.22 109.42 L 152.09 108.49 C 151.92 107.31 150.83 106.50 149.66 106.66 C 148.48 106.83 147.66 107.92 147.83 109.10 Z M 147.95 110.01 L 148.08 110.97 C 148.23 112.15 149.32 112.98 150.50 112.83 C 151.68 112.67 152.52 111.59 152.36 110.41 L 152.23 109.44 C 152.08 108.26 150.99 107.43 149.81 107.58 C 148.63 107.74 147.79 108.82 147.95 110.01 Z M 148.06 110.95 L 148.18 111.94 C 148.33 113.13 149.41 113.98 150.60 113.84 C 151.79 113.69 152.64 112.61 152.49 111.42 L 152.37 110.43 C 152.23 109.24 151.15 108.39 149.96 108.53 C 148.77 108.68 147.92 109.76 148.06 110.95 Z M 148.17 111.92 L 148.28 112.95 C 148.41 114.15 149.49 115.02 150.69 114.89 C 151.88 114.76 152.75 113.68 152.62 112.48 L 152.51 111.45 C 152.38 110.25 151.30 109.39 150.10 109.52 C 148.91 109.64 148.04 110.72 148.17 111.92 Z M 148.27 112.93 L 148.37 113.99 C 148.49 115.19 149.56 116.08 150.76 115.96 C 151.97 115.84 152.85 114.77 152.73 113.57 L 152.63 112.51 C 152.52 111.30 151.44 110.42 150.24 110.54 C 149.04 110.65 148.15 111.72 148.27 112.93 Z M 148.36 113.97 L 148.44 114.90 C 148.54 116.11 149.61 117.01 150.82 116.90 C 152.03 116.80 152.93 115.73 152.82 114.52 L 152.75 113.59 C 152.64 112.38 151.58 111.48 150.37 111.59 C 149.15 111.69 148.26 112.76 148.36 113.97 Z M 148.43 114.88 L 148.50 115.84 C 148.59 117.06 149.66 117.97 150.87 117.87 C 152.09 117.78 153.00 116.72 152.91 115.50 L 152.84 114.54 C 152.74 113.32 151.68 112.41 150.46 112.50 C 149.25 112.60 148.33 113.66 148.43 114.88 Z M 148.49 115.82 L 148.56 116.81 C 148.64 118.03 149.70 118.96 150.92 118.87 C 152.15 118.79 153.07 117.73 152.99 116.50 L 152.92 115.52 C 152.84 114.29 151.78 113.37 150.55 113.45 C 149.33 113.54 148.40 114.60 148.49 115.82 Z M 148.54 116.79 L 148.61 117.81 C 148.68 119.04 149.74 119.97 150.97 119.90 C 152.20 119.82 153.14 118.76 153.06 117.53 L 153.00 116.52 C 152.92 115.29 151.86 114.35 150.63 114.43 C 149.40 114.50 148.47 115.56 148.54 116.79 Z M 148.60 117.79 L 148.65 118.83 C 148.72 120.06 149.78 121.01 151.02 120.94 C 152.26 120.87 153.20 119.81 153.13 118.57 L 153.08 117.54 C 153.01 116.30 151.95 115.36 150.71 115.43 C 149.47 115.50 148.53 116.56 148.60 117.79 Z M 148.64 118.82 L 148.70 119.87 C 148.76 121.11 149.82 122.07 151.07 122.00 C 152.31 121.94 153.26 120.88 153.20 119.64 L 153.14 118.58 C 153.08 117.34 152.02 116.39 150.78 116.45 C 149.53 116.51 148.58 117.57 148.64 118.82 Z M 148.69 119.86 L 148.74 120.85 C 148.80 122.10 149.86 123.07 151.10 123.01 C 152.35 122.95 153.32 121.89 153.26 120.64 L 153.21 119.64 C 153.15 118.40 152.09 117.43 150.84 117.49 C 149.59 117.55 148.63 118.61 148.69 119.86 Z M 148.73 120.85 L 148.77 121.82 C 148.82 123.07 149.89 124.04 151.14 123.99 C 152.39 123.93 153.36 122.87 153.31 121.62 L 153.27 120.64 C 153.21 119.39 152.15 118.42 150.90 118.48 C 149.64 118.53 148.67 119.59 148.73 120.85 Z M 148.76 121.81 L 148.80 122.79 C 148.85 124.05 149.91 125.03 151.17 124.98 C 152.43 124.93 153.41 123.87 153.36 122.61 L 153.32 121.62 C 153.27 120.37 152.21 119.39 150.95 119.44 C 149.69 119.49 148.71 120.55 148.76 121.81 Z M 148.79 122.78 L 148.83 123.78 C 148.87 125.04 149.94 126.03 151.20 125.98 C 152.46 125.94 153.45 124.88 153.40 123.61 L 153.37 122.62 C 153.32 121.35 152.26 120.37 151.00 120.41 C 149.73 120.46 148.75 121.52 148.79 122.78 Z M 148.82 123.77 L 148.85 124.78 C 148.89 126.05 149.95 127.04 151.22 127.00 C 152.49 126.96 153.48 125.90 153.44 124.63 L 153.41 123.62 C 153.37 122.35 152.31 121.36 151.04 121.40 C 149.77 121.44 148.78 122.50 148.82 123.77 Z M 148.84 124.77 L 148.87 125.79 C 148.91 127.06 149.97 128.06 151.24 128.03 C 152.51 127.99 153.51 126.93 153.48 125.66 L 153.45 124.64 C 153.42 123.37 152.36 122.36 151.08 122.40 C 149.81 122.43 148.81 123.49 148.84 124.77 Z M 148.86 125.77 L 148.89 126.80 C 148.91 128.08 149.97 129.09 151.25 129.07 C 152.53 129.04 153.54 127.98 153.51 126.70 L 153.49 125.67 C 153.46 124.39 152.40 123.38 151.12 123.41 C 149.85 123.44 148.83 124.50 148.86 125.77 Z M 148.88 126.79 L 148.90 127.79 C 148.92 129.07 149.98 130.09 151.26 130.07 C 152.54 130.04 153.56 128.99 153.54 127.70 L 153.52 126.71 C 153.50 125.43 152.44 124.41 151.16 124.43 C 149.88 124.45 148.85 125.51 148.88 126.79 Z M 148.89 127.78 L 148.90 128.74 C 148.92 130.03 149.97 131.06 151.26 131.04 C 152.54 131.02 153.57 129.97 153.56 128.68 L 153.54 127.71 C 153.53 126.43 152.47 125.40 151.19 125.42 C 149.90 125.43 148.87 126.49 148.89 127.78 Z M 148.90 128.73 L 148.90 129.71 C 148.92 131.00 149.97 132.04 151.26 132.02 C 152.55 132.01 153.58 130.96 153.57 129.67 L 153.56 128.69 C 153.55 127.40 152.50 126.37 151.21 126.38 C 149.92 126.39 148.88 127.45 148.90 128.73 Z M 148.90 129.70 L 148.91 130.69 C 148.91 131.98 149.97 133.03 151.26 133.02 C 152.55 133.01 153.59 131.96 153.58 130.66 L 153.58 129.68 C 153.57 128.38 152.51 127.34 151.22 127.35 C 149.93 127.36 148.89 128.41 148.90 129.70 Z M 148.90 130.69 L 148.90 131.69 C 148.91 132.98 149.96 134.03 151.26 134.02 C 152.55 134.02 153.60 132.96 153.59 131.67 L 153.59 130.67 C 153.58 129.37 152.53 128.33 151.24 128.33 C 149.94 128.34 148.89 129.39 148.90 130.69 Z M 148.90 131.68 L 148.90 132.70 C 148.90 133.99 149.96 135.04 151.25 135.04 C 152.55 135.04 153.60 133.98 153.60 132.69 L 153.60 131.67 C 153.60 130.38 152.54 129.33 151.24 129.33 C 149.95 129.33 148.90 130.39 148.90 131.68 Z M 148.89 132.69 L 148.90 133.72 C 148.90 135.02 149.95 136.07 151.25 136.07 C 152.55 136.07 153.61 135.02 153.61 133.72 L 153.61 132.69 C 153.60 131.39 152.55 130.34 151.25 130.34 C 149.95 130.34 148.89 131.39 148.89 132.69 Z M 148.89 133.72 L 148.89 134.76 C 148.89 136.06 149.95 137.12 151.25 137.12 C 152.56 137.12 153.61 136.06 153.61 134.76 L 153.61 133.72 C 153.61 132.41 152.55 131.36 151.25 131.36 C 149.95 131.36 148.89 132.41 148.89 133.72 Z M 148.88 134.76 L 148.88 135.76 C 148.88 137.07 149.94 138.13 151.25 138.13 C 152.56 138.13 153.62 137.07 153.62 135.76 L 153.62 134.76 C 153.62 133.45 152.56 132.39 151.25 132.39 C 149.94 132.39 148.88 133.45 148.88 134.76 Z M 148.88 135.76 L 148.88 136.76 C 148.88 138.07 149.94 139.13 151.25 139.13 C 152.56 139.13 153.62 138.07 153.62 136.76 L 153.62 135.76 C 153.62 134.45 152.56 133.39 151.25 133.39 C 149.94 133.39 148.88 134.45 148.88 135.76 Z M 148.87 136.76 L 148.87 137.76 C 148.87 139.08 149.93 140.14 151.24 140.15 C 152.55 140.15 153.62 139.09 153.62 137.78 L 153.63 136.77 C 153.63 135.46 152.57 134.39 151.26 134.39 C 149.94 134.38 148.88 135.44 148.87 136.76 Z M 148.87 137.76 L 148.86 138.77 C 148.85 140.08 149.92 141.15 151.23 141.16 C 152.54 141.17 153.62 140.11 153.62 138.79 L 153.63 137.78 C 153.64 136.47 152.57 135.40 151.26 135.39 C 149.95 135.38 148.87 136.44 148.87 137.76 Z M 148.86 138.76 L 148.85 139.77 C 148.84 141.09 149.90 142.16 151.21 142.18 C 152.53 142.19 153.61 141.13 153.62 139.81 L 153.63 138.80 C 153.64 137.48 152.58 136.41 151.26 136.40 C 149.95 136.38 148.87 137.44 148.86 138.76 Z M 148.84 139.76 L 148.83 140.76 C 148.81 142.08 149.87 143.17 151.19 143.19 C 152.51 143.20 153.59 142.15 153.61 140.83 L 153.62 139.82 C 153.64 138.50 152.59 137.42 151.27 137.40 C 149.95 137.38 148.86 138.44 148.84 139.76 Z M 148.83 140.75 L 148.81 141.75 C 148.78 143.07 149.83 144.16 151.16 144.19 C 152.48 144.21 153.57 143.16 153.60 141.84 L 153.61 140.84 C 153.64 139.52 152.59 138.43 151.27 138.40 C 149.94 138.38 148.85 139.43 148.83 140.75 Z M 148.80 141.73 L 148.78 142.72 C 148.74 144.04 149.79 145.14 151.11 145.18 C 152.44 145.21 153.54 144.16 153.57 142.84 L 153.60 141.85 C 153.63 140.53 152.59 139.43 151.26 139.39 C 149.94 139.36 148.84 140.41 148.80 141.73 Z M 148.77 142.70 L 148.74 143.71 C 148.69 145.03 149.73 146.14 151.06 146.19 C 152.39 146.24 153.50 145.20 153.54 143.87 L 153.58 142.86 C 153.62 141.53 152.58 140.42 151.26 140.37 C 149.93 140.33 148.82 141.37 148.77 142.70 Z M 148.73 143.68 L 148.69 144.70 C 148.63 146.03 149.66 147.16 150.99 147.21 C 152.32 147.27 153.45 146.24 153.50 144.91 L 153.55 143.89 C 153.61 142.56 152.58 141.44 151.25 141.38 C 149.92 141.32 148.79 142.35 148.73 143.68 Z M 148.69 144.68 L 148.63 145.68 C 148.56 147.01 149.58 148.15 150.91 148.22 C 152.24 148.30 153.38 147.28 153.45 145.94 L 153.51 144.94 C 153.58 143.61 152.56 142.47 151.23 142.40 C 149.90 142.32 148.76 143.34 148.69 144.68 Z M 148.63 145.65 L 148.56 146.65 C 148.47 147.98 149.48 149.13 150.82 149.22 C 152.15 149.31 153.30 148.30 153.39 146.97 L 153.46 145.97 C 153.55 144.64 152.54 143.49 151.20 143.40 C 149.87 143.31 148.72 144.32 148.63 145.65 Z M 148.56 146.62 L 148.48 147.60 C 148.37 148.94 149.37 150.11 150.71 150.21 C 152.04 150.32 153.21 149.32 153.32 147.98 L 153.39 147.00 C 153.50 145.66 152.50 144.49 151.17 144.39 C 149.83 144.28 148.66 145.28 148.56 146.62 Z M 148.48 147.57 L 148.39 148.55 C 148.26 149.89 149.25 151.07 150.58 151.20 C 151.92 151.32 153.10 150.34 153.23 149.00 L 153.32 148.02 C 153.44 146.68 152.46 145.50 151.12 145.37 C 149.79 145.25 148.60 146.23 148.48 147.57 Z M 148.38 148.52 L 148.28 149.50 C 148.14 150.84 149.11 152.04 150.44 152.18 C 151.78 152.32 152.98 151.35 153.12 150.02 L 153.23 149.03 C 153.37 147.70 152.40 146.50 151.07 146.35 C 149.73 146.21 148.53 147.18 148.38 148.52 Z M 148.28 149.46 L 148.16 150.45 C 148.00 151.79 148.95 153.00 150.29 153.17 C 151.63 153.33 152.84 152.37 153.01 151.04 L 153.12 150.05 C 153.29 148.71 152.33 147.50 151.00 147.33 C 149.66 147.17 148.44 148.13 148.28 149.46 Z M 148.16 150.41 L 148.03 151.38 C 147.85 152.71 148.79 153.94 150.12 154.13 C 151.46 154.31 152.69 153.37 152.87 152.03 L 153.00 151.07 C 153.18 149.73 152.25 148.50 150.91 148.32 C 149.57 148.14 148.34 149.08 148.16 150.41 Z M 148.04 151.34 L 147.89 152.31 C 147.69 153.64 148.61 154.89 149.95 155.09 C 151.28 155.28 152.52 154.36 152.72 153.03 L 152.87 152.07 C 153.07 150.73 152.15 149.49 150.81 149.29 C 149.48 149.09 148.24 150.01 148.04 151.34 Z M 147.90 152.28 L 147.74 153.25 C 147.53 154.58 148.43 155.84 149.76 156.05 C 151.09 156.27 152.34 155.36 152.56 154.03 L 152.72 153.06 C 152.93 151.73 152.03 150.48 150.70 150.26 C 149.37 150.05 148.11 150.95 147.90 152.28 Z M 147.75 153.23 L 147.58 154.21 C 147.35 155.53 148.24 156.79 149.56 157.02 C 150.89 157.25 152.15 156.37 152.38 155.04 L 152.55 154.06 C 152.78 152.73 151.89 151.47 150.57 151.24 C 149.24 151.01 147.98 151.90 147.75 153.23 Z M 147.58 154.18 L 147.40 155.17 C 147.16 156.49 148.03 157.76 149.36 158.01 C 150.68 158.25 151.95 157.37 152.20 156.05 L 152.38 155.06 C 152.62 153.74 151.74 152.47 150.42 152.23 C 149.10 151.98 147.83 152.86 147.58 154.18 Z M 147.41 155.15 L 147.22 156.14 C 146.96 157.46 147.82 158.74 149.14 158.99 C 150.46 159.25 151.74 158.39 152.00 157.07 L 152.19 156.07 C 152.44 154.75 151.58 153.47 150.26 153.22 C 148.94 152.96 147.66 153.83 147.41 155.15 Z M 147.22 156.12 L 147.02 157.12 C 146.75 158.44 147.61 159.72 148.92 159.99 C 150.24 160.26 151.52 159.40 151.79 158.09 L 151.99 157.08 C 152.26 155.77 151.41 154.48 150.09 154.22 C 148.77 153.95 147.49 154.80 147.22 156.12 Z M 147.02 157.11 L 146.81 158.12 C 146.54 159.43 147.38 160.72 148.70 161.00 C 150.01 161.27 151.30 160.43 151.57 159.11 L 151.78 158.10 C 152.06 156.79 151.22 155.50 149.90 155.23 C 148.59 154.95 147.30 155.79 147.02 157.11 Z M 146.82 158.10 L 146.61 159.06 C 146.33 160.37 147.16 161.66 148.47 161.95 C 149.79 162.23 151.08 161.40 151.36 160.08 L 151.57 159.13 C 151.85 157.82 151.02 156.52 149.71 156.24 C 148.39 155.96 147.10 156.79 146.82 158.10 Z M 146.61 159.04 L 146.40 160.00 C 146.11 161.31 146.94 162.61 148.25 162.90 C 149.56 163.19 150.86 162.37 151.15 161.06 L 151.36 160.10 C 151.65 158.79 150.83 157.49 149.51 157.20 C 148.20 156.91 146.90 157.73 146.61 159.04 Z M 146.40 159.99 L 146.18 160.95 C 145.88 162.26 146.70 163.57 148.01 163.86 C 149.32 164.16 150.63 163.35 150.92 162.04 L 151.15 161.07 C 151.44 159.76 150.63 158.46 149.32 158.16 C 148.01 157.86 146.70 158.68 146.40 159.99 Z M 146.19 160.94 L 145.96 161.91 C 145.65 163.21 146.46 164.52 147.77 164.83 C 149.08 165.14 150.39 164.33 150.69 163.02 L 150.92 162.05 C 151.23 160.74 150.42 159.43 149.11 159.13 C 147.80 158.82 146.49 159.63 146.19 160.94 Z M 145.96 161.89 L 145.72 162.86 C 145.41 164.17 146.21 165.49 147.51 165.80 C 148.82 166.12 150.14 165.32 150.45 164.01 L 150.69 163.04 C 151.01 161.73 150.21 160.42 148.90 160.10 C 147.59 159.78 146.28 160.58 145.96 161.89 Z M 145.73 162.85 L 145.48 163.82 C 145.16 165.13 145.95 166.45 147.25 166.78 C 148.56 167.10 149.88 166.31 150.21 165.01 L 150.45 164.03 C 150.78 162.72 149.98 161.40 148.68 161.08 C 147.38 160.75 146.05 161.54 145.73 162.85 Z M 145.49 163.81 L 145.23 164.79 C 144.90 166.09 145.68 167.42 146.98 167.76 C 148.28 168.09 149.61 167.31 149.95 166.01 L 150.20 165.02 C 150.54 163.72 149.75 162.39 148.45 162.06 C 147.15 161.72 145.82 162.50 145.49 163.81 Z M 145.24 164.77 L 144.97 165.76 C 144.63 167.06 145.40 168.39 146.70 168.74 C 148.00 169.08 149.34 168.31 149.68 167.01 L 149.94 166.02 C 150.29 164.73 149.52 163.39 148.22 163.04 C 146.92 162.70 145.58 163.47 145.24 164.77 Z M 144.98 165.74 L 144.71 166.71 C 144.35 168.01 145.12 169.35 146.41 169.71 C 147.71 170.06 149.05 169.30 149.41 168.00 L 149.68 167.03 C 150.03 165.73 149.27 164.39 147.97 164.03 C 146.68 163.68 145.34 164.44 144.98 165.74 Z M 144.72 166.69 L 144.45 167.65 C 144.08 168.94 144.83 170.29 146.12 170.66 C 147.42 171.02 148.76 170.27 149.13 168.98 L 149.40 168.02 C 149.77 166.73 149.02 165.38 147.72 165.01 C 146.43 164.65 145.08 165.40 144.72 166.69 Z M 144.45 167.63 L 144.17 168.59 C 143.80 169.88 144.54 171.23 145.83 171.61 C 147.12 171.98 148.47 171.24 148.84 169.95 L 149.12 169.00 C 149.50 167.71 148.76 166.35 147.47 165.98 C 146.18 165.60 144.83 166.34 144.45 167.63 Z M 144.18 168.57 L 143.89 169.53 C 143.50 170.81 144.23 172.17 145.52 172.56 C 146.80 172.95 148.16 172.22 148.55 170.93 L 148.84 169.97 C 149.23 168.69 148.50 167.33 147.21 166.94 C 145.92 166.55 144.57 167.28 144.18 168.57 Z M 143.90 169.51 L 143.60 170.46 C 143.20 171.75 143.92 173.11 145.20 173.51 C 146.48 173.91 147.85 173.19 148.24 171.91 L 148.54 170.95 C 148.94 169.67 148.22 168.31 146.94 167.91 C 145.66 167.51 144.30 168.23 143.90 169.51 Z M 143.61 170.44 L 143.30 171.40 C 142.89 172.68 143.60 174.04 144.88 174.45 C 146.16 174.86 147.52 174.16 147.93 172.88 L 148.24 171.93 C 148.65 170.65 147.94 169.28 146.66 168.87 C 145.39 168.46 144.02 169.17 143.61 170.44 Z M 143.31 171.38 L 143.00 172.33 C 142.58 173.61 143.27 174.98 144.54 175.40 C 145.82 175.82 147.19 175.13 147.61 173.85 L 147.92 172.90 C 148.34 171.63 147.65 170.25 146.38 169.83 C 145.10 169.41 143.73 170.11 143.31 171.38 Z M 143.01 172.31 L 142.68 173.26 C 142.25 174.53 142.93 175.91 144.20 176.34 C 145.47 176.77 146.85 176.09 147.28 174.82 L 147.60 173.87 C 148.03 172.60 147.35 171.23 146.08 170.80 C 144.82 170.36 143.44 171.04 143.01 172.31 Z M 142.69 173.24 L 142.36 174.18 C 141.92 175.45 142.58 176.83 143.85 177.27 C 145.11 177.72 146.49 177.05 146.94 175.79 L 147.27 174.84 C 147.71 173.58 147.05 172.20 145.78 171.75 C 144.52 171.31 143.14 171.98 142.69 173.24 Z M 142.37 174.16 L 142.03 175.10 C 141.58 176.36 142.23 177.75 143.49 178.20 C 144.75 178.65 146.13 178.00 146.59 176.75 L 146.93 175.81 C 147.38 174.55 146.73 173.16 145.47 172.71 C 144.21 172.25 142.83 172.90 142.37 174.16 Z M 142.04 175.08 L 141.70 176.01 C 141.23 177.26 141.87 178.65 143.12 179.12 C 144.37 179.58 145.77 178.95 146.23 177.69 L 146.58 176.77 C 147.04 175.51 146.41 174.12 145.16 173.66 C 143.90 173.19 142.51 173.83 142.04 175.08 Z M 141.71 175.98 L 141.36 176.91 C 140.88 178.15 141.50 179.55 142.75 180.03 C 143.99 180.51 145.39 179.88 145.87 178.64 L 146.22 177.71 C 146.70 176.47 146.08 175.07 144.83 174.60 C 143.59 174.12 142.19 174.74 141.71 175.98 Z M 141.37 176.89 L 141.01 177.81 C 140.52 179.05 141.12 180.45 142.36 180.94 C 143.60 181.43 145.00 180.82 145.49 179.58 L 145.85 178.66 C 146.34 177.42 145.73 176.02 144.50 175.53 C 143.26 175.04 141.86 175.65 141.37 176.89 Z M 141.02 177.79 L 140.64 178.71 C 140.14 179.95 140.74 181.35 141.97 181.85 C 143.20 182.35 144.60 181.75 145.10 180.52 L 145.48 179.60 C 145.98 178.37 145.38 176.97 144.15 176.47 C 142.92 175.97 141.52 176.56 141.02 177.79 Z M 140.66 178.70 L 140.27 179.62 C 139.76 180.84 140.34 182.25 141.57 182.76 C 142.79 183.27 144.20 182.69 144.71 181.46 L 145.09 180.54 C 145.60 179.32 145.02 177.91 143.80 177.40 C 142.57 176.89 141.17 177.47 140.66 178.70 Z M 140.29 179.60 L 139.89 180.52 C 139.37 181.74 139.94 183.15 141.15 183.67 C 142.37 184.19 143.78 183.62 144.30 182.41 L 144.69 181.48 C 145.21 180.27 144.65 178.86 143.43 178.34 C 142.21 177.82 140.81 178.38 140.29 179.60 Z M 139.90 180.50 L 139.50 181.43 C 138.97 182.64 139.52 184.05 140.73 184.58 C 141.94 185.11 143.35 184.56 143.88 183.35 L 144.29 182.42 C 144.82 181.21 144.26 179.80 143.05 179.27 C 141.84 178.74 140.43 179.29 139.90 180.50 Z M 139.51 181.41 L 139.09 182.34 C 138.55 183.55 139.09 184.96 140.29 185.50 C 141.50 186.04 142.91 185.50 143.45 184.30 L 143.87 183.37 C 144.41 182.16 143.87 180.75 142.67 180.21 C 141.46 179.67 140.05 180.21 139.51 181.41 Z M 139.11 182.33 L 138.68 183.25 C 138.13 184.44 138.66 185.86 139.86 186.41 C 141.05 186.95 142.47 186.43 143.02 185.23 L 143.44 184.31 C 143.99 183.12 143.46 181.70 142.27 181.15 C 141.07 180.60 139.65 181.13 139.11 182.33 Z M 138.70 183.23 L 138.27 184.15 C 137.71 185.34 138.22 186.75 139.41 187.31 C 140.60 187.87 142.02 187.36 142.57 186.17 L 143.00 185.25 C 143.56 184.06 143.05 182.64 141.86 182.09 C 140.67 181.53 139.25 182.04 138.70 183.23 Z M 138.28 184.13 L 137.84 185.04 C 137.27 186.23 137.77 187.65 138.95 188.21 C 140.13 188.78 141.55 188.28 142.12 187.10 L 142.56 186.19 C 143.13 185.00 142.63 183.58 141.45 183.02 C 140.27 182.45 138.85 182.95 138.28 184.13 Z M 137.85 185.02 L 137.40 185.94 C 136.82 187.11 137.31 188.53 138.48 189.11 C 139.66 189.69 141.08 189.21 141.66 188.03 L 142.11 187.12 C 142.69 185.95 142.20 184.52 141.03 183.94 C 139.85 183.37 138.43 183.85 137.85 185.02 Z M 137.42 185.92 L 136.96 186.82 C 136.37 187.99 136.84 189.41 138.01 190.00 C 139.17 190.59 140.60 190.12 141.19 188.96 L 141.64 188.05 C 142.23 186.89 141.77 185.46 140.60 184.87 C 139.43 184.28 138.01 184.75 137.42 185.92 Z M 136.98 186.80 L 136.51 187.69 C 135.91 188.85 136.36 190.27 137.52 190.88 C 138.68 191.48 140.10 191.03 140.71 189.87 L 141.17 188.98 C 141.77 187.82 141.32 186.39 140.16 185.79 C 139.01 185.19 137.58 185.64 136.98 186.80 Z M 136.53 187.67 L 136.06 188.54 C 135.44 189.69 135.88 191.12 137.03 191.74 C 138.17 192.35 139.60 191.92 140.22 190.77 L 140.69 189.89 C 141.31 188.75 140.87 187.32 139.72 186.70 C 138.58 186.08 137.15 186.52 136.53 187.67 Z M 136.08 188.52 L 135.60 189.38 C 134.97 190.51 135.39 191.95 136.52 192.58 C 137.66 193.21 139.10 192.80 139.73 191.66 L 140.20 190.80 C 140.83 189.66 140.42 188.23 139.28 187.60 C 138.14 186.97 136.71 187.38 136.08 188.52 Z M 135.62 189.35 L 135.14 190.19 C 134.50 191.31 134.89 192.75 136.02 193.40 C 137.14 194.04 138.58 193.65 139.23 192.52 L 139.71 191.69 C 140.35 190.56 139.96 189.12 138.83 188.48 C 137.71 187.83 136.27 188.22 135.62 189.35 Z M 135.17 190.15 L 134.64 191.04 C 133.98 192.15 134.34 193.59 135.46 194.26 C 136.57 194.92 138.01 194.55 138.68 193.44 L 139.20 192.56 C 139.87 191.44 139.50 190.00 138.39 189.34 C 137.27 188.67 135.83 189.04 135.17 190.15 Z M 134.67 191.00 L 134.12 191.88 C 133.44 192.98 133.78 194.43 134.88 195.11 C 135.98 195.79 137.42 195.46 138.11 194.35 L 138.65 193.47 C 139.33 192.37 138.99 190.93 137.89 190.24 C 136.79 189.56 135.35 189.90 134.67 191.00 Z M 134.14 191.85 L 133.59 192.71 C 132.89 193.79 133.21 195.24 134.29 195.94 C 135.38 196.64 136.83 196.33 137.53 195.24 L 138.08 194.39 C 138.78 193.30 138.47 191.85 137.38 191.15 C 136.29 190.45 134.84 190.76 134.14 191.85 Z M 133.62 192.68 L 133.06 193.51 C 132.34 194.58 132.63 196.04 133.71 196.75 C 134.78 197.47 136.24 197.18 136.95 196.10 L 137.51 195.27 C 138.22 194.20 137.93 192.74 136.86 192.03 C 135.78 191.31 134.33 191.60 133.62 192.68 Z M 133.08 193.48 L 132.52 194.30 C 131.79 195.36 132.06 196.81 133.12 197.55 C 134.19 198.28 135.64 198.01 136.37 196.95 L 136.93 196.13 C 137.66 195.07 137.39 193.61 136.33 192.88 C 135.27 192.15 133.81 192.42 133.08 193.48 Z M 132.54 194.27 L 131.98 195.07 C 131.23 196.13 131.48 197.58 132.53 198.33 C 133.59 199.07 135.04 198.82 135.79 197.77 L 136.35 196.97 C 137.09 195.92 136.84 194.46 135.79 193.72 C 134.74 192.97 133.29 193.22 132.54 194.27 Z M 131.99 195.06 L 131.42 195.84 C 130.67 196.89 130.90 198.34 131.94 199.10 C 132.99 199.85 134.44 199.62 135.20 198.58 L 135.77 197.79 C 136.52 196.74 136.29 195.29 135.25 194.53 C 134.20 193.78 132.75 194.01 131.99 195.06 Z M 131.44 195.83 L 130.86 196.61 C 130.10 197.64 130.32 199.10 131.35 199.86 C 132.39 200.63 133.84 200.41 134.60 199.37 L 135.18 198.59 C 135.94 197.56 135.72 196.10 134.69 195.34 C 133.66 194.58 132.20 194.79 131.44 195.83 Z M 130.87 196.60 L 130.28 197.39 C 129.52 198.41 129.72 199.87 130.75 200.64 C 131.78 201.41 133.23 201.20 134.00 200.17 L 134.59 199.38 C 135.36 198.36 135.15 196.90 134.12 196.13 C 133.10 195.36 131.64 195.57 130.87 196.60 Z M 130.30 197.38 L 129.70 198.17 C 128.93 199.19 129.13 200.64 130.15 201.41 C 131.17 202.19 132.62 201.99 133.39 200.97 L 133.99 200.18 C 134.76 199.16 134.56 197.71 133.54 196.93 C 132.52 196.16 131.07 196.36 130.30 197.38 Z M 129.71 198.16 L 129.11 198.95 C 128.33 199.97 128.52 201.42 129.54 202.19 C 130.55 202.97 132.00 202.77 132.78 201.76 L 133.38 200.97 C 134.15 199.96 133.96 198.51 132.95 197.73 C 131.94 196.96 130.49 197.15 129.71 198.16 Z M 129.12 198.95 L 128.51 199.74 C 127.73 200.75 127.92 202.19 128.92 202.97 C 129.93 203.75 131.38 203.56 132.16 202.55 L 132.77 201.76 C 133.54 200.76 133.36 199.31 132.35 198.53 C 131.34 197.76 129.89 197.94 129.12 198.95 Z M 128.52 199.74 L 127.90 200.53 C 127.13 201.53 127.31 202.97 128.31 203.75 C 129.31 204.53 130.76 204.35 131.53 203.35 L 132.15 202.56 C 132.93 201.55 132.74 200.11 131.74 199.33 C 130.74 198.55 129.30 198.73 128.52 199.74 Z M 127.91 200.53 L 127.30 201.32 C 126.52 202.32 126.70 203.76 127.69 204.53 C 128.69 205.31 130.13 205.13 130.91 204.14 L 131.53 203.34 C 132.30 202.35 132.13 200.91 131.13 200.13 C 130.13 199.35 128.69 199.53 127.91 200.53 Z M 127.30 201.32 L 126.68 202.11 C 125.90 203.11 126.08 204.54 127.07 205.32 C 128.07 206.10 129.51 205.92 130.28 204.93 L 130.90 204.13 C 131.68 203.14 131.50 201.70 130.51 200.93 C 129.51 200.15 128.08 200.33 127.30 201.32 Z M 126.69 202.12 L 126.06 202.91 C 125.29 203.91 125.46 205.34 126.45 206.11 C 127.45 206.89 128.88 206.71 129.65 205.72 L 130.28 204.92 C 131.05 203.93 130.88 202.50 129.89 201.73 C 128.89 200.95 127.46 201.13 126.69 202.12 Z M 126.07 202.92 L 125.45 203.71 C 124.68 204.70 124.86 206.13 125.84 206.90 C 126.83 207.67 128.26 207.49 129.03 206.51 L 129.65 205.72 C 130.42 204.73 130.25 203.30 129.26 202.53 C 128.27 201.76 126.84 201.93 126.07 202.92 Z M 125.46 203.72 L 124.84 204.51 C 124.07 205.49 124.25 206.91 125.24 207.68 C 126.22 208.45 127.64 208.27 128.41 207.29 L 129.03 206.50 C 129.79 205.51 129.62 204.09 128.63 203.32 C 127.65 202.55 126.23 202.73 125.46 203.72 Z M 124.85 204.51 L 124.23 205.30 C 123.47 206.29 123.65 207.70 124.63 208.47 C 125.61 209.23 127.03 209.05 127.79 208.07 L 128.41 207.28 C 129.17 206.30 128.99 204.88 128.01 204.12 C 127.03 203.35 125.61 203.53 124.85 204.51 Z M 124.24 205.31 L 123.62 206.10 C 122.86 207.08 123.04 208.49 124.02 209.25 C 125.00 210.01 126.41 209.84 127.17 208.86 L 127.78 208.06 C 128.54 207.09 128.37 205.68 127.39 204.92 C 126.41 204.15 125.00 204.33 124.24 205.31 Z M 123.63 206.11 L 123.01 206.90 C 122.26 207.88 122.44 209.28 123.41 210.04 C 124.39 210.80 125.79 210.62 126.55 209.64 L 127.16 208.85 C 127.92 207.87 127.74 206.47 126.77 205.71 C 125.79 204.96 124.39 205.13 123.63 206.11 Z M 123.02 206.91 L 122.41 207.70 C 121.65 208.67 121.83 210.07 122.80 210.82 C 123.78 211.58 125.18 211.40 125.93 210.43 L 126.54 209.64 C 127.29 208.66 127.12 207.27 126.14 206.51 C 125.17 205.76 123.77 205.94 123.02 206.91 Z M 122.41 207.71 L 121.80 208.50 C 121.05 209.47 121.23 210.86 122.20 211.61 C 123.17 212.36 124.56 212.18 125.31 211.21 L 125.92 210.42 C 126.67 209.45 126.49 208.06 125.52 207.31 C 124.55 206.56 123.16 206.74 122.41 207.71 Z M 121.81 208.51 L 121.20 209.29 C 120.46 210.26 120.63 211.65 121.60 212.39 C 122.56 213.14 123.95 212.96 124.70 211.99 L 125.30 211.20 C 126.05 210.24 125.87 208.85 124.91 208.11 C 123.94 207.36 122.55 207.54 121.81 208.51 Z M 121.21 209.30 L 120.59 210.11 C 119.85 211.07 120.02 212.45 120.99 213.19 C 121.95 213.93 123.33 213.75 124.07 212.79 L 124.69 211.98 C 125.43 211.02 125.25 209.64 124.29 208.90 C 123.33 208.16 121.95 208.34 121.21 209.30 Z M 120.60 210.12 L 119.97 210.93 C 119.23 211.89 119.41 213.26 120.37 214.00 C 121.32 214.73 122.69 214.55 123.43 213.60 L 124.06 212.78 C 124.79 211.83 124.62 210.45 123.66 209.72 C 122.70 208.98 121.33 209.16 120.60 210.12 Z M 119.98 210.94 L 119.36 211.75 C 118.62 212.70 118.80 214.06 119.75 214.80 C 120.70 215.53 122.07 215.35 122.80 214.40 L 123.42 213.59 C 124.15 212.64 123.97 211.27 123.02 210.54 C 122.07 209.81 120.71 209.99 119.98 210.94 Z M 119.37 211.76 L 118.75 212.56 C 118.02 213.50 118.20 214.86 119.15 215.59 C 120.09 216.31 121.45 216.14 122.17 215.19 L 122.79 214.39 C 123.52 213.44 123.34 212.09 122.39 211.36 C 121.45 210.64 120.09 210.81 119.37 211.76 Z M 118.76 212.57 L 118.15 213.36 C 117.43 214.30 117.60 215.65 118.54 216.37 C 119.48 217.09 120.83 216.92 121.55 215.98 L 122.16 215.18 C 122.89 214.24 122.71 212.90 121.77 212.17 C 120.83 211.45 119.48 211.63 118.76 212.57 Z M 118.16 213.37 L 117.56 214.15 C 116.84 215.08 117.01 216.42 117.95 217.14 C 118.88 217.86 120.22 217.69 120.94 216.75 L 121.54 215.97 C 122.26 215.04 122.09 213.70 121.15 212.98 C 120.22 212.26 118.88 212.43 118.16 213.37 Z M 117.57 214.16 L 116.97 214.93 C 116.26 215.86 116.43 217.19 117.36 217.90 C 118.29 218.62 119.62 218.45 120.33 217.52 L 120.93 216.75 C 121.64 215.82 121.47 214.49 120.54 213.77 C 119.62 213.06 118.28 213.23 117.57 214.16 Z M 116.99 214.94 L 116.40 215.70 C 115.69 216.62 115.86 217.94 116.78 218.65 C 117.70 219.36 119.02 219.19 119.74 218.27 L 120.32 217.51 C 121.03 216.59 120.86 215.27 119.94 214.56 C 119.02 213.84 117.70 214.01 116.99 214.94 Z M 116.41 215.70 L 115.78 216.52 C 115.07 217.43 115.24 218.75 116.15 219.46 C 117.07 220.16 118.39 220.00 119.09 219.08 L 119.72 218.27 C 120.43 217.35 120.26 216.04 119.35 215.33 C 118.43 214.62 117.12 214.79 116.41 215.70 Z M 115.79 216.52 L 115.16 217.33 C 114.46 218.24 114.62 219.55 115.53 220.26 C 116.44 220.96 117.75 220.79 118.45 219.89 L 119.08 219.08 C 119.79 218.17 119.62 216.86 118.71 216.15 C 117.80 215.45 116.50 215.62 115.79 216.52 Z M 115.17 217.34 L 114.55 218.14 C 113.85 219.04 114.02 220.34 114.92 221.04 C 115.82 221.74 117.12 221.58 117.82 220.68 L 118.44 219.88 C 119.14 218.98 118.98 217.68 118.08 216.98 C 117.17 216.28 115.88 216.44 115.17 217.34 Z M 114.57 218.15 L 113.95 218.93 C 113.26 219.83 113.42 221.12 114.31 221.82 C 115.21 222.51 116.50 222.35 117.20 221.46 L 117.81 220.67 C 118.51 219.77 118.35 218.48 117.45 217.78 C 116.55 217.09 115.26 217.25 114.57 218.15 Z M 113.96 218.94 L 113.36 219.72 C 112.67 220.61 112.83 221.89 113.72 222.59 C 114.61 223.28 115.89 223.12 116.58 222.23 L 117.19 221.45 C 117.88 220.56 117.72 219.27 116.83 218.58 C 115.94 217.89 114.66 218.05 113.96 218.94 Z M 113.37 219.73 L 112.77 220.50 C 112.08 221.38 112.24 222.66 113.12 223.35 C 114.01 224.04 115.28 223.88 115.97 222.99 L 116.57 222.22 C 117.26 221.34 117.10 220.06 116.22 219.37 C 115.33 218.68 114.06 218.84 113.37 219.73 Z M 112.78 220.50 L 112.18 221.27 C 111.50 222.15 111.65 223.42 112.53 224.10 C 113.41 224.79 114.68 224.63 115.37 223.75 L 115.96 222.98 C 116.65 222.10 116.49 220.84 115.61 220.15 C 114.73 219.47 113.46 219.63 112.78 220.50 Z M 112.19 221.28 L 111.54 222.12 C 110.86 222.99 111.02 224.25 111.89 224.93 C 112.76 225.61 114.02 225.46 114.70 224.58 L 115.36 223.74 C 116.04 222.87 115.88 221.61 115.01 220.93 C 114.13 220.25 112.87 220.40 112.19 221.28 Z M 111.55 222.13 L 110.89 222.97 C 110.22 223.84 110.37 225.09 111.24 225.77 C 112.11 226.44 113.37 226.28 114.04 225.41 L 114.70 224.57 C 115.37 223.70 115.21 222.45 114.34 221.78 C 113.48 221.10 112.22 221.26 111.55 222.13 Z M 110.90 222.97 L 110.26 223.80 C 109.59 224.66 109.75 225.91 110.61 226.58 C 111.48 227.25 112.72 227.09 113.40 226.23 L 114.03 225.41 C 114.71 224.54 114.55 223.30 113.69 222.62 C 112.82 221.95 111.57 222.11 110.90 222.97 Z M 110.27 223.80 L 109.66 224.60 C 108.99 225.46 109.14 226.70 110.00 227.36 C 110.86 228.03 112.10 227.88 112.77 227.02 L 113.39 226.22 C 114.06 225.36 113.90 224.12 113.04 223.46 C 112.18 222.79 110.94 222.94 110.27 223.80 Z M 109.67 224.60 L 109.07 225.36 C 108.41 226.22 108.56 227.45 109.42 228.12 C 110.27 228.78 111.50 228.63 112.17 227.77 L 112.76 227.01 C 113.42 226.16 113.27 224.92 112.42 224.26 C 111.56 223.60 110.33 223.75 109.67 224.60 Z M 109.08 225.37 L 108.52 226.09 C 107.86 226.94 108.01 228.16 108.86 228.82 C 109.71 229.49 110.94 229.33 111.60 228.48 L 112.16 227.77 C 112.82 226.92 112.67 225.69 111.82 225.03 C 110.97 224.37 109.74 224.52 109.08 225.37 Z M 108.53 226.09 L 107.88 226.92 C 107.23 227.77 107.38 228.98 108.22 229.64 C 109.06 230.30 110.28 230.15 110.94 229.31 L 111.59 228.48 C 112.24 227.64 112.10 226.42 111.25 225.76 C 110.41 225.10 109.19 225.25 108.53 226.09 Z M 107.90 226.93 L 107.23 227.79 C 106.57 228.62 106.72 229.83 107.55 230.49 C 108.39 231.14 109.60 231.00 110.25 230.16 L 110.92 229.30 C 111.58 228.47 111.43 227.26 110.60 226.60 C 109.76 225.95 108.55 226.10 107.90 226.93 Z M 107.24 227.79 L 106.63 228.57 C 105.98 229.40 106.12 230.60 106.95 231.25 C 107.78 231.90 108.98 231.76 109.63 230.93 L 110.24 230.15 C 110.89 229.32 110.75 228.12 109.92 227.47 C 109.09 226.82 107.89 226.97 107.24 227.79 Z M 106.64 228.58 L 106.07 229.31 C 105.43 230.13 105.57 231.32 106.39 231.96 C 107.22 232.61 108.41 232.47 109.05 231.64 L 109.62 230.92 C 110.26 230.10 110.12 228.91 109.30 228.26 C 108.47 227.62 107.28 227.76 106.64 228.58 Z M 106.08 229.32 L 105.54 230.02 C 104.90 230.83 105.04 232.02 105.86 232.65 C 106.68 233.29 107.86 233.15 108.50 232.33 L 109.04 231.63 C 109.68 230.81 109.54 229.63 108.72 228.99 C 107.90 228.35 106.72 228.50 106.08 229.32 Z M 105.55 230.02 L 104.98 230.76 C 104.34 231.57 104.49 232.74 105.30 233.37 C 106.11 234.01 107.28 233.86 107.91 233.05 L 108.49 232.32 C 109.12 231.51 108.98 230.34 108.17 229.70 C 107.36 229.07 106.18 229.21 105.55 230.02 Z M 105.01 230.73 L 104.41 231.47 C 103.77 232.26 103.88 233.43 104.67 234.07 C 105.46 234.72 106.63 234.60 107.27 233.81 L 107.88 233.07 C 108.52 232.28 108.40 231.12 107.61 230.47 C 106.82 229.83 105.66 229.94 105.01 230.73 Z M 104.47 231.43 L 103.79 232.20 C 103.12 232.95 103.19 234.11 103.95 234.78 C 104.71 235.45 105.87 235.38 106.54 234.62 L 107.21 233.85 C 107.88 233.10 107.81 231.94 107.05 231.27 C 106.30 230.60 105.14 230.67 104.47 231.43 Z M 103.86 232.14 L 103.10 232.93 C 102.40 233.65 102.42 234.80 103.14 235.50 C 103.86 236.20 105.01 236.18 105.71 235.46 L 106.47 234.67 C 107.17 233.95 107.15 232.80 106.43 232.10 C 105.71 231.41 104.56 231.42 103.86 232.14 Z M 103.16 232.89 L 102.45 233.57 C 101.73 234.26 101.70 235.40 102.39 236.12 C 103.07 236.84 104.21 236.86 104.93 236.18 L 105.65 235.50 C 106.37 234.81 106.39 233.67 105.71 232.95 C 105.02 232.23 103.88 232.20 103.16 232.89 Z M 102.50 233.54 L 101.73 234.24 C 100.99 234.89 100.93 236.02 101.59 236.76 C 102.25 237.49 103.38 237.56 104.11 236.90 L 104.88 236.20 C 105.62 235.54 105.68 234.41 105.02 233.68 C 104.36 232.95 103.23 232.88 102.50 233.54 Z M 101.77 234.21 L 100.98 234.89 C 100.23 235.52 100.14 236.64 100.77 237.39 C 101.40 238.13 102.52 238.23 103.27 237.59 L 104.07 236.92 C 104.81 236.28 104.91 235.16 104.27 234.42 C 103.64 233.67 102.52 233.58 101.77 234.21 Z M 101.02 234.86 L 100.24 235.49 C 99.48 236.10 99.35 237.21 99.96 237.97 C 100.57 238.73 101.68 238.85 102.44 238.25 L 103.22 237.62 C 103.98 237.01 104.11 235.90 103.50 235.14 C 102.89 234.38 101.78 234.26 101.02 234.86 Z M 100.29 235.47 L 99.53 236.03 C 98.76 236.61 98.59 237.70 99.17 238.48 C 99.74 239.25 100.84 239.41 101.61 238.84 L 102.38 238.27 C 103.15 237.70 103.31 236.60 102.74 235.83 C 102.16 235.05 101.07 234.89 100.29 235.47 Z M 99.62 236.00 L 98.67 236.63 C 97.87 237.15 97.65 238.22 98.18 239.01 C 98.70 239.81 99.77 240.03 100.57 239.51 L 101.52 238.88 C 102.32 238.35 102.54 237.28 102.01 236.49 C 101.49 235.69 100.42 235.47 99.62 236.00 Z M 98.80 236.58 L 97.93 237.06 C 97.11 237.52 96.82 238.55 97.27 239.37 C 97.72 240.19 98.75 240.48 99.57 240.03 L 100.44 239.55 C 101.26 239.09 101.55 238.06 101.10 237.24 C 100.65 236.43 99.62 236.13 98.80 236.58 Z M 98.06 237.03 L 97.23 237.41 C 96.39 237.80 96.03 238.79 96.41 239.62 C 96.80 240.46 97.78 240.82 98.62 240.44 L 99.45 240.06 C 100.28 239.67 100.65 238.68 100.26 237.85 C 99.88 237.01 98.89 236.65 98.06 237.03 Z M 97.32 237.40 L 96.48 237.73 C 95.64 238.06 95.23 239.02 95.56 239.86 C 95.89 240.70 96.85 241.12 97.69 240.78 L 98.53 240.45 C 99.37 240.12 99.78 239.17 99.45 238.32 C 99.12 237.48 98.16 237.07 97.32 237.40 Z M 96.56 237.72 L 95.68 238.02 C 94.83 238.31 94.37 239.23 94.66 240.08 C 94.95 240.93 95.88 241.39 96.73 241.10 L 97.61 240.80 C 98.46 240.51 98.92 239.58 98.63 238.73 C 98.34 237.88 97.41 237.43 96.56 237.72 Z M 95.77 238.00 L 94.81 238.26 C 93.95 238.49 93.44 239.38 93.68 240.25 C 93.91 241.11 94.81 241.62 95.67 241.38 L 96.63 241.12 C 97.49 240.89 98.00 239.99 97.76 239.13 C 97.53 238.27 96.64 237.76 95.77 238.00 Z M 94.93 238.24 L 93.87 238.45 C 93.00 238.62 92.43 239.47 92.60 240.34 C 92.77 241.22 93.62 241.78 94.49 241.61 L 95.55 241.40 C 96.43 241.23 97.00 240.38 96.82 239.51 C 96.65 238.64 95.80 238.07 94.93 238.24 Z M 93.98 238.44 L 92.98 238.56 C 92.10 238.67 91.48 239.48 91.59 240.36 C 91.70 241.24 92.50 241.86 93.39 241.75 L 94.38 241.62 C 95.26 241.51 95.89 240.71 95.78 239.83 C 95.66 238.95 94.86 238.32 93.98 238.44 Z M 93.07 238.56 L 92.06 238.63 C 91.18 238.69 90.51 239.46 90.57 240.34 C 90.64 241.22 91.40 241.89 92.29 241.83 L 93.30 241.75 C 94.18 241.69 94.84 240.93 94.78 240.04 C 94.72 239.16 93.95 238.50 93.07 238.56 Z M 92.14 238.63 L 91.11 238.65 C 90.23 238.67 89.53 239.40 89.55 240.29 C 89.57 241.17 90.30 241.87 91.18 241.85 L 92.21 241.83 C 93.09 241.81 93.79 241.07 93.77 240.19 C 93.75 239.31 93.02 238.61 92.14 238.63 Z M 91.19 238.66 L 90.18 238.63 C 89.30 238.61 88.57 239.30 88.55 240.18 C 88.52 241.06 89.21 241.79 90.09 241.82 L 91.10 241.84 C 91.98 241.87 92.71 241.17 92.74 240.30 C 92.76 239.42 92.07 238.68 91.19 238.66 Z M 90.28 238.64 L 89.25 238.55 C 88.38 238.48 87.61 239.12 87.53 240.00 C 87.45 240.87 88.10 241.64 88.97 241.72 L 90.00 241.81 C 90.87 241.88 91.64 241.24 91.72 240.36 C 91.80 239.49 91.15 238.72 90.28 238.64 Z M 89.40 238.58 L 88.33 238.38 C 87.47 238.23 86.64 238.80 86.49 239.66 C 86.33 240.52 86.90 241.34 87.76 241.50 L 88.83 241.69 C 89.69 241.85 90.51 241.28 90.67 240.42 C 90.82 239.56 90.25 238.73 89.40 238.58 Z M 88.56 238.45 L 87.63 238.13 C 86.81 237.85 85.91 238.29 85.63 239.11 C 85.35 239.93 85.79 240.83 86.61 241.11 L 87.53 241.43 C 88.35 241.71 89.25 241.27 89.53 240.45 C 89.82 239.63 89.38 238.73 88.56 238.45 Z M 87.94 238.28 L 87.17 237.82 C 86.43 237.37 85.46 237.60 85.01 238.34 C 84.56 239.08 84.80 240.05 85.54 240.50 L 86.31 240.96 C 87.05 241.41 88.01 241.18 88.46 240.44 C 88.91 239.70 88.68 238.73 87.94 238.28 Z M 87.49 238.08 L 86.85 237.40 C 86.25 236.78 85.26 236.75 84.63 237.34 C 84.01 237.94 83.98 238.93 84.58 239.56 L 85.22 240.23 C 85.81 240.86 86.80 240.88 87.43 240.29 C 88.06 239.70 88.08 238.71 87.49 238.08 Z M 87.04 237.66 L 86.53 236.82 C 86.08 236.09 85.12 235.86 84.38 236.31 C 83.65 236.76 83.41 237.72 83.86 238.45 L 84.38 239.29 C 84.83 240.03 85.79 240.26 86.53 239.81 C 87.26 239.36 87.49 238.40 87.04 237.66 Z M 86.62 236.98 L 86.18 236.05 C 85.82 235.27 84.89 234.93 84.11 235.29 C 83.33 235.65 82.99 236.58 83.35 237.36 L 83.78 238.29 C 84.14 239.08 85.07 239.42 85.85 239.06 C 86.64 238.69 86.98 237.77 86.62 236.98 Z M 86.21 236.10 L 86.02 235.65 C 85.68 234.85 84.77 234.48 83.97 234.81 C 83.18 235.15 82.80 236.06 83.14 236.86 L 83.33 237.31 C 83.66 238.10 84.58 238.48 85.37 238.14 C 86.17 237.81 86.54 236.90 86.21 236.10 Z"
      fill="black"
      fill-rule="nonzero" /><path d="M 154.81 154.23 L 154.81 155.15 C 154.81 156.19 155.64 157.02 156.68 157.02 C 157.71 157.02 158.54 156.19 158.54 155.15 L 158.54 154.23 C 158.54 153.20 157.71 152.36 156.68 152.36 C 155.64 152.36 154.81 153.20 154.81 154.23 Z M 154.81 155.15 L 154.81 156.12 C 154.81 157.15 155.64 157.99 156.68 157.99 C 157.71 157.99 158.54 157.15 158.54 156.12 L 158.54 155.15 C 158.54 154.12 157.71 153.28 156.68 153.28 C 155.64 153.28 154.81 154.12 154.81 155.15 Z M 154.80 156.12 L 154.80 157.17 C 154.80 158.20 155.64 159.04 156.68 159.04 C 157.71 159.04 158.55 158.20 158.55 157.17 L 158.55 156.12 C 158.55 155.09 157.71 154.25 156.68 154.25 C 155.64 154.25 154.80 155.09 154.80 156.12 Z M 154.80 157.17 L 154.80 158.19 C 154.80 159.23 155.64 160.07 156.68 160.07 C 157.71 160.07 158.55 159.23 158.55 158.19 L 158.55 157.17 C 158.55 156.13 157.71 155.29 156.67 155.29 C 155.64 155.29 154.80 156.13 154.80 157.17 Z M 154.77 158.20 L 154.78 159.18 C 154.78 160.23 155.64 161.08 156.69 161.07 C 157.74 161.07 158.59 160.21 158.58 159.16 L 158.58 158.18 C 158.57 157.13 157.72 156.28 156.67 156.29 C 155.62 156.29 154.77 157.15 154.77 158.20 Z M 154.74 159.20 L 154.76 160.22 C 154.78 161.29 155.66 162.14 156.73 162.12 C 157.79 162.11 158.65 161.23 158.63 160.16 L 158.61 159.14 C 158.60 158.07 157.72 157.22 156.65 157.23 C 155.58 157.25 154.73 158.13 154.74 159.20 Z M 154.73 160.25 L 154.76 161.28 C 154.80 162.37 155.71 163.22 156.80 163.18 C 157.88 163.15 158.73 162.24 158.70 161.15 L 158.66 160.12 C 158.62 159.04 157.71 158.18 156.63 158.22 C 155.54 158.26 154.69 159.17 154.73 160.25 Z M 154.74 161.34 L 154.80 162.35 C 154.86 163.45 155.81 164.29 156.91 164.23 C 158.01 164.16 158.85 163.21 158.79 162.11 L 158.72 161.10 C 158.66 159.99 157.71 159.16 156.61 159.22 C 155.51 159.29 154.67 160.24 154.74 161.34 Z M 154.78 162.43 L 154.88 163.45 C 154.99 164.56 155.97 165.37 157.09 165.26 C 158.20 165.15 159.01 164.17 158.90 163.06 L 158.80 162.04 C 158.69 160.93 157.71 160.11 156.60 160.22 C 155.49 160.33 154.67 161.32 154.78 162.43 Z M 154.87 163.52 L 155.01 164.51 C 155.16 165.62 156.18 166.40 157.29 166.25 C 158.40 166.10 159.19 165.08 159.04 163.97 L 158.91 162.98 C 158.76 161.87 157.73 161.09 156.62 161.23 C 155.51 161.38 154.73 162.41 154.87 163.52 Z M 155.00 164.57 L 155.16 165.54 C 155.35 166.66 156.40 167.41 157.52 167.23 C 158.63 167.04 159.39 165.99 159.20 164.87 L 159.04 163.90 C 158.86 162.79 157.80 162.03 156.69 162.22 C 155.57 162.40 154.82 163.46 155.00 164.57 Z M 155.16 165.60 L 155.35 166.57 C 155.56 167.69 156.64 168.42 157.76 168.21 C 158.88 167.99 159.61 166.91 159.40 165.79 L 159.21 164.82 C 158.99 163.70 157.91 162.97 156.79 163.18 C 155.68 163.40 154.94 164.48 155.16 165.60 Z M 155.34 166.61 L 155.54 167.55 C 155.78 168.67 156.88 169.39 158.00 169.15 C 159.12 168.91 159.84 167.81 159.60 166.69 L 159.40 165.75 C 159.16 164.63 158.06 163.91 156.94 164.15 C 155.82 164.39 155.10 165.49 155.34 166.61 Z M 155.54 167.59 L 155.76 168.54 C 156.01 169.66 157.13 170.36 158.26 170.10 C 159.38 169.84 160.08 168.72 159.82 167.60 L 159.60 166.65 C 159.34 165.53 158.22 164.83 157.10 165.09 C 155.98 165.34 155.28 166.47 155.54 167.59 Z M 155.75 168.58 L 156.00 169.55 C 156.28 170.67 157.42 171.36 158.54 171.07 C 159.67 170.79 160.35 169.65 160.07 168.53 L 159.82 167.56 C 159.54 166.43 158.40 165.75 157.28 166.03 C 156.15 166.31 155.47 167.45 155.75 168.58 Z M 156.00 169.59 L 156.27 170.59 C 156.57 171.71 157.73 172.37 158.86 172.07 C 159.98 171.76 160.65 170.60 160.34 169.48 L 160.07 168.48 C 159.76 167.36 158.60 166.69 157.48 167.00 C 156.35 167.31 155.69 168.47 156.00 169.59 Z M 156.27 170.63 L 156.56 171.61 C 156.89 172.73 158.07 173.37 159.19 173.04 C 160.32 172.71 160.96 171.53 160.63 170.41 L 160.34 169.43 C 160.01 168.31 158.83 167.66 157.70 168.00 C 156.58 168.33 155.94 169.51 156.27 170.63 Z M 156.56 171.65 L 156.85 172.56 C 157.20 173.68 158.40 174.30 159.52 173.94 C 160.64 173.59 161.26 172.39 160.91 171.27 L 160.62 170.36 C 160.27 169.24 159.07 168.62 157.95 168.98 C 156.83 169.33 156.21 170.53 156.56 171.65 Z M 156.85 172.59 L 157.16 173.52 C 157.54 174.64 158.75 175.24 159.86 174.87 C 160.98 174.49 161.59 173.28 161.21 172.16 L 160.90 171.24 C 160.53 170.12 159.32 169.51 158.20 169.89 C 157.08 170.26 156.48 171.47 156.85 172.59 Z M 157.17 173.55 L 157.50 174.50 C 157.89 175.61 159.11 176.20 160.23 175.81 C 161.34 175.42 161.93 174.20 161.54 173.08 L 161.21 172.13 C 160.82 171.02 159.60 170.43 158.48 170.82 C 157.36 171.21 156.78 172.43 157.17 173.55 Z M 157.50 174.52 L 157.86 175.49 C 158.26 176.61 159.49 177.18 160.61 176.78 C 161.72 176.37 162.30 175.14 161.89 174.03 L 161.54 173.06 C 161.13 171.94 159.90 171.37 158.79 171.77 C 157.67 172.18 157.10 173.41 157.50 174.52 Z M 157.86 175.52 L 158.23 176.50 C 158.64 177.61 159.89 178.17 161.00 177.76 C 162.11 177.34 162.67 176.10 162.26 174.98 L 161.89 174.00 C 161.47 172.89 160.23 172.33 159.12 172.75 C 158.00 173.16 157.44 174.40 157.86 175.52 Z M 158.23 176.52 L 158.57 177.41 C 159.00 178.52 160.25 179.07 161.36 178.64 C 162.47 178.21 163.02 176.97 162.60 175.85 L 162.25 174.97 C 161.82 173.85 160.58 173.30 159.47 173.73 C 158.35 174.16 157.80 175.41 158.23 176.52 Z M 158.58 177.43 L 158.94 178.33 C 159.38 179.44 160.63 179.98 161.74 179.54 C 162.85 179.10 163.39 177.85 162.95 176.74 L 162.59 175.83 C 162.15 174.73 160.90 174.18 159.79 174.62 C 158.68 175.06 158.14 176.32 158.58 177.43 Z M 158.94 178.36 L 159.32 179.28 C 159.77 180.38 161.03 180.91 162.14 180.46 C 163.25 180.01 163.78 178.74 163.32 177.64 L 162.95 176.72 C 162.49 175.61 161.23 175.08 160.12 175.53 C 159.02 175.99 158.49 177.25 158.94 178.36 Z M 159.33 179.30 L 159.72 180.24 C 160.19 181.34 161.46 181.85 162.56 181.38 C 163.66 180.92 164.18 179.65 163.71 178.54 L 163.32 177.61 C 162.85 176.51 161.58 175.99 160.47 176.46 C 159.37 176.93 158.86 178.20 159.33 179.30 Z M 159.73 180.26 L 160.15 181.21 C 160.63 182.31 161.91 182.80 163.01 182.32 C 164.10 181.84 164.60 180.56 164.12 179.46 L 163.70 178.51 C 163.22 177.42 161.94 176.92 160.84 177.40 C 159.74 177.89 159.25 179.17 159.73 180.26 Z M 160.16 181.24 L 160.59 182.18 C 161.09 183.27 162.38 183.75 163.47 183.25 C 164.56 182.75 165.04 181.46 164.54 180.37 L 164.11 179.43 C 163.61 178.34 162.32 177.86 161.23 178.36 C 160.13 178.86 159.66 180.15 160.16 181.24 Z M 160.60 182.21 L 161.01 183.08 C 161.53 184.16 162.83 184.62 163.91 184.11 C 165.00 183.59 165.46 182.29 164.94 181.20 L 164.53 180.33 C 164.01 179.25 162.71 178.79 161.62 179.31 C 160.54 179.82 160.08 181.12 160.60 182.21 Z M 161.02 183.11 L 161.46 183.98 C 161.99 185.06 163.30 185.50 164.38 184.97 C 165.46 184.43 165.90 183.13 165.36 182.05 L 164.93 181.17 C 164.40 180.09 163.09 179.65 162.01 180.19 C 160.93 180.72 160.49 182.03 161.02 183.11 Z M 161.47 184.01 L 161.92 184.89 C 162.47 185.97 163.79 186.39 164.86 185.84 C 165.93 185.29 166.35 183.97 165.80 182.90 L 165.35 182.02 C 164.80 180.95 163.48 180.52 162.41 181.07 C 161.34 181.62 160.92 182.94 161.47 184.01 Z M 161.93 184.92 L 162.41 185.81 C 162.97 186.87 164.30 187.28 165.36 186.71 C 166.43 186.14 166.83 184.82 166.26 183.76 L 165.79 182.87 C 165.22 181.80 163.90 181.40 162.84 181.97 C 161.77 182.53 161.37 183.86 161.93 184.92 Z M 162.42 185.84 L 162.91 186.73 C 163.50 187.79 164.83 188.17 165.88 187.59 C 166.94 187.01 167.33 185.68 166.74 184.62 L 166.25 183.73 C 165.67 182.67 164.34 182.28 163.28 182.87 C 162.22 183.45 161.84 184.78 162.42 185.84 Z M 162.93 186.76 L 163.44 187.66 C 164.04 188.71 165.38 189.08 166.43 188.48 C 167.48 187.88 167.84 186.54 167.24 185.49 L 166.73 184.59 C 166.13 183.54 164.79 183.17 163.74 183.77 C 162.69 184.37 162.33 185.71 162.93 186.76 Z M 163.45 187.69 L 163.95 188.54 C 164.57 189.58 165.91 189.93 166.96 189.31 C 168.00 188.70 168.35 187.35 167.73 186.31 L 167.23 185.46 C 166.61 184.42 165.27 184.07 164.23 184.69 C 163.18 185.30 162.84 186.65 163.45 187.69 Z M 163.97 188.56 L 164.46 189.38 C 165.09 190.42 166.44 190.74 167.48 190.12 C 168.51 189.49 168.84 188.14 168.21 187.10 L 167.72 186.29 C 167.09 185.25 165.74 184.92 164.70 185.55 C 163.67 186.18 163.34 187.53 163.97 188.56 Z M 164.48 189.40 L 164.99 190.23 C 165.63 191.25 166.98 191.57 168.01 190.93 C 169.04 190.29 169.35 188.93 168.71 187.91 L 168.20 187.08 C 167.56 186.05 166.21 185.74 165.18 186.38 C 164.15 187.02 163.84 188.37 164.48 189.40 Z M 165.00 190.24 L 165.53 191.08 C 166.18 192.10 167.54 192.40 168.56 191.75 C 169.58 191.10 169.88 189.74 169.23 188.72 L 168.70 187.89 C 168.05 186.87 166.69 186.57 165.67 187.22 C 164.65 187.87 164.35 189.22 165.00 190.24 Z M 165.54 191.09 L 166.09 191.94 C 166.75 192.95 168.11 193.24 169.13 192.58 C 170.14 191.92 170.43 190.56 169.77 189.55 L 169.22 188.70 C 168.56 187.69 167.20 187.40 166.19 188.06 C 165.17 188.72 164.88 190.08 165.54 191.09 Z M 166.10 191.95 L 166.67 192.80 C 167.34 193.81 168.70 194.09 169.71 193.42 C 170.71 192.75 170.99 191.39 170.32 190.38 L 169.76 189.53 C 169.09 188.52 167.73 188.25 166.72 188.91 C 165.71 189.58 165.43 190.94 166.10 191.95 Z M 166.68 192.82 L 167.26 193.68 C 167.93 194.69 169.30 194.95 170.30 194.28 C 171.30 193.60 171.57 192.24 170.90 191.24 L 170.31 190.37 C 169.64 189.37 168.28 189.10 167.27 189.78 C 166.27 190.45 166.00 191.81 166.68 192.82 Z M 167.27 193.69 L 167.85 194.55 C 168.53 195.55 169.90 195.81 170.90 195.13 C 171.90 194.45 172.15 193.08 171.47 192.08 L 170.89 191.23 C 170.21 190.23 168.84 189.97 167.84 190.65 C 166.84 191.33 166.58 192.69 167.27 193.69 Z M 167.86 194.56 L 168.41 195.37 C 169.10 196.37 170.47 196.62 171.46 195.93 C 172.46 195.24 172.71 193.88 172.02 192.88 L 171.47 192.07 C 170.78 191.08 169.42 190.83 168.42 191.51 C 167.42 192.20 167.17 193.57 167.86 194.56 Z M 168.42 195.38 L 168.99 196.20 C 169.68 197.19 171.05 197.44 172.04 196.74 C 173.04 196.05 173.28 194.68 172.59 193.69 L 172.02 192.87 C 171.33 191.88 169.96 191.63 168.96 192.33 C 167.97 193.02 167.73 194.39 168.42 195.38 Z M 168.99 196.21 L 169.57 197.03 C 170.27 198.02 171.64 198.26 172.63 197.56 C 173.62 196.86 173.86 195.49 173.16 194.50 L 172.58 193.68 C 171.88 192.68 170.51 192.45 169.52 193.15 C 168.53 193.84 168.29 195.21 168.99 196.21 Z M 169.57 197.04 L 170.16 197.86 C 170.86 198.85 172.24 199.08 173.23 198.38 C 174.22 197.67 174.45 196.30 173.74 195.31 L 173.16 194.49 C 172.45 193.50 171.08 193.27 170.09 193.97 C 169.10 194.68 168.87 196.05 169.57 197.04 Z M 170.16 197.87 L 170.75 198.69 C 171.47 199.68 172.84 199.90 173.83 199.19 C 174.81 198.48 175.04 197.10 174.33 196.12 L 173.74 195.30 C 173.03 194.31 171.65 194.09 170.66 194.80 C 169.68 195.51 169.45 196.88 170.16 197.87 Z M 170.76 198.70 L 171.36 199.52 C 172.07 200.50 173.45 200.72 174.43 200.00 C 175.42 199.28 175.63 197.90 174.92 196.92 L 174.32 196.11 C 173.60 195.12 172.23 194.91 171.24 195.62 C 170.26 196.34 170.04 197.72 170.76 198.70 Z M 171.36 199.53 L 171.96 200.34 C 172.68 201.32 174.06 201.53 175.04 200.80 C 176.02 200.08 176.23 198.70 175.51 197.72 L 174.91 196.91 C 174.19 195.93 172.81 195.72 171.83 196.45 C 170.85 197.17 170.64 198.55 171.36 199.53 Z M 171.96 200.35 L 172.56 201.15 C 173.29 202.13 174.68 202.33 175.65 201.59 C 176.63 200.86 176.83 199.48 176.10 198.50 L 175.50 197.70 C 174.77 196.73 173.39 196.53 172.41 197.26 C 171.43 197.99 171.23 199.37 171.96 200.35 Z M 172.57 201.16 L 173.19 201.97 C 173.93 202.94 175.31 203.13 176.28 202.40 C 177.25 201.66 177.44 200.27 176.70 199.30 L 176.09 198.49 C 175.35 197.52 173.97 197.33 173.00 198.07 C 172.02 198.81 171.84 200.19 172.57 201.16 Z M 173.20 201.98 L 173.81 202.78 C 174.55 203.75 175.94 203.93 176.90 203.18 C 177.87 202.44 178.05 201.06 177.31 200.09 L 176.69 199.29 C 175.95 198.33 174.57 198.15 173.60 198.89 C 172.63 199.63 172.45 201.02 173.20 201.98 Z M 173.82 202.79 L 174.43 203.58 C 175.18 204.54 176.57 204.71 177.53 203.96 C 178.49 203.22 178.66 201.83 177.91 200.87 L 177.30 200.08 C 176.55 199.12 175.17 198.95 174.21 199.69 C 173.25 200.44 173.07 201.83 173.82 202.79 Z M 174.44 203.58 L 175.05 204.36 C 175.80 205.32 177.19 205.49 178.15 204.74 C 179.10 203.99 179.27 202.60 178.52 201.65 L 177.91 200.86 C 177.15 199.91 175.77 199.74 174.81 200.49 C 173.86 201.24 173.69 202.63 174.44 203.58 Z M 175.06 204.37 L 175.67 205.15 C 176.43 206.10 177.81 206.26 178.77 205.51 C 179.72 204.76 179.88 203.37 179.13 202.42 L 178.51 201.64 C 177.76 200.69 176.38 200.52 175.42 201.28 C 174.47 202.03 174.31 203.42 175.06 204.37 Z M 175.68 205.15 L 176.30 205.93 C 177.05 206.88 178.43 207.04 179.39 206.28 C 180.34 205.53 180.50 204.14 179.74 203.19 L 179.12 202.42 C 178.37 201.46 176.99 201.31 176.03 202.06 C 175.08 202.82 174.92 204.20 175.68 205.15 Z M 176.30 205.93 L 176.92 206.71 C 177.67 207.66 179.06 207.82 180.01 207.06 C 180.96 206.30 181.11 204.92 180.36 203.97 L 179.74 203.19 C 178.98 202.24 177.60 202.09 176.65 202.84 C 175.70 203.60 175.54 204.98 176.30 205.93 Z M 176.92 206.71 L 177.54 207.49 C 178.30 208.44 179.68 208.60 180.63 207.84 C 181.58 207.08 181.73 205.70 180.98 204.75 L 180.36 203.97 C 179.60 203.02 178.22 202.87 177.27 203.62 C 176.32 204.38 176.16 205.76 176.92 206.71 Z M 177.54 207.49 L 178.16 208.27 C 178.92 209.22 180.30 209.38 181.25 208.62 C 182.20 207.87 182.36 206.48 181.60 205.53 L 180.98 204.75 C 180.23 203.80 178.84 203.64 177.89 204.40 C 176.94 205.16 176.78 206.54 177.54 207.49 Z M 178.16 208.27 L 178.78 209.06 C 179.54 210.01 180.92 210.17 181.88 209.41 C 182.83 208.65 182.99 207.27 182.23 206.32 L 181.61 205.53 C 180.85 204.58 179.46 204.42 178.51 205.18 C 177.56 205.93 177.40 207.32 178.16 208.27 Z M 178.78 209.06 L 179.40 209.85 C 180.16 210.80 181.55 210.96 182.50 210.20 C 183.46 209.44 183.62 208.05 182.86 207.10 L 182.23 206.31 C 181.47 205.36 180.09 205.20 179.13 205.96 C 178.18 206.72 178.02 208.11 178.78 209.06 Z M 179.40 209.85 L 180.03 210.64 C 180.79 211.59 182.18 211.75 183.13 210.99 C 184.09 210.23 184.25 208.84 183.49 207.88 L 182.86 207.10 C 182.10 206.14 180.71 205.98 179.75 206.74 C 178.80 207.50 178.64 208.89 179.40 209.85 Z M 180.02 210.64 L 180.65 211.43 C 181.41 212.38 182.81 212.54 183.76 211.78 C 184.72 211.02 184.88 209.62 184.11 208.67 L 183.49 207.88 C 182.73 206.92 181.33 206.77 180.38 207.53 C 179.42 208.29 179.26 209.68 180.02 210.64 Z M 180.65 211.43 L 181.27 212.21 C 182.04 213.17 183.43 213.33 184.39 212.56 C 185.35 211.80 185.50 210.40 184.74 209.44 L 184.12 208.66 C 183.35 207.70 181.95 207.55 181.00 208.31 C 180.04 209.08 179.88 210.47 180.65 211.43 Z M 181.27 212.22 L 181.89 212.99 C 182.66 213.95 184.06 214.11 185.02 213.34 C 185.98 212.57 186.13 211.17 185.36 210.21 L 184.74 209.44 C 183.97 208.48 182.57 208.32 181.62 209.09 C 180.66 209.86 180.50 211.26 181.27 212.22 Z M 181.89 213.00 L 182.52 213.78 C 183.29 214.74 184.70 214.90 185.66 214.12 C 186.61 213.35 186.77 211.95 186.00 210.99 L 185.36 210.21 C 184.59 209.25 183.19 209.10 182.23 209.87 C 181.27 210.64 181.12 212.04 181.89 213.00 Z M 182.52 213.79 L 183.18 214.60 C 183.95 215.55 185.35 215.70 186.31 214.93 C 187.27 214.16 187.42 212.75 186.65 211.79 L 185.99 210.99 C 185.22 210.03 183.82 209.88 182.86 210.65 C 181.90 211.43 181.75 212.83 182.52 213.79 Z M 183.18 214.60 L 183.82 215.40 C 184.60 216.35 186.00 216.50 186.96 215.73 C 187.92 214.95 188.07 213.54 187.29 212.59 L 186.64 211.79 C 185.87 210.83 184.46 210.68 183.50 211.46 C 182.55 212.24 182.40 213.64 183.18 214.60 Z M 183.82 215.40 L 184.46 216.19 C 185.24 217.14 186.65 217.29 187.60 216.51 C 188.56 215.73 188.71 214.32 187.93 213.37 L 187.29 212.58 C 186.51 211.62 185.10 211.48 184.15 212.26 C 183.19 213.04 183.04 214.44 183.82 215.40 Z M 184.46 216.19 L 185.09 216.96 C 185.87 217.92 187.28 218.07 188.24 217.29 C 189.20 216.50 189.34 215.10 188.56 214.14 L 187.93 213.36 C 187.15 212.40 185.74 212.26 184.78 213.04 C 183.82 213.82 183.68 215.23 184.46 216.19 Z M 185.09 216.97 L 185.71 217.73 C 186.50 218.69 187.91 218.83 188.87 218.05 C 189.82 217.27 189.97 215.86 189.18 214.90 L 188.56 214.13 C 187.78 213.18 186.37 213.03 185.41 213.82 C 184.45 214.60 184.31 216.01 185.09 216.97 Z M 185.71 217.74 L 186.33 218.49 C 187.11 219.45 188.53 219.59 189.49 218.80 C 190.44 218.02 190.58 216.61 189.80 215.65 L 189.18 214.90 C 188.40 213.94 186.99 213.80 186.03 214.58 C 185.07 215.36 184.93 216.78 185.71 217.74 Z M 186.33 218.49 L 186.94 219.23 C 187.72 220.19 189.14 220.33 190.09 219.55 C 191.05 218.76 191.19 217.35 190.41 216.39 L 189.80 215.65 C 189.02 214.69 187.60 214.55 186.64 215.33 C 185.68 216.12 185.54 217.53 186.33 218.49 Z M 186.93 219.23 L 187.60 220.04 C 188.38 221.00 189.80 221.14 190.76 220.36 C 191.72 219.57 191.86 218.15 191.07 217.19 L 190.41 216.38 C 189.62 215.42 188.21 215.28 187.25 216.07 C 186.29 216.86 186.15 218.27 186.93 219.23 Z M 187.60 220.05 L 188.25 220.85 C 189.04 221.81 190.46 221.95 191.42 221.16 C 192.38 220.37 192.52 218.96 191.73 218.00 L 191.08 217.19 C 190.29 216.23 188.87 216.09 187.91 216.88 C 186.95 217.67 186.81 219.09 187.60 220.05 Z M 188.25 220.85 L 188.90 221.64 C 189.69 222.60 191.11 222.74 192.07 221.95 C 193.03 221.16 193.17 219.74 192.38 218.78 L 191.74 217.99 C 190.95 217.03 189.53 216.89 188.56 217.68 C 187.60 218.47 187.46 219.89 188.25 220.85 Z M 188.90 221.64 L 189.53 222.42 C 190.33 223.38 191.75 223.52 192.71 222.72 C 193.67 221.93 193.81 220.51 193.02 219.55 L 192.38 218.78 C 191.59 217.81 190.17 217.68 189.21 218.47 C 188.25 219.26 188.11 220.68 188.90 221.64 Z M 189.53 222.42 L 190.16 223.17 C 190.95 224.14 192.38 224.27 193.34 223.48 C 194.30 222.68 194.44 221.26 193.64 220.30 L 193.02 219.54 C 192.22 218.58 190.80 218.44 189.84 219.24 C 188.88 220.03 188.74 221.46 189.53 222.42 Z M 190.16 223.18 L 190.77 223.92 C 191.57 224.88 192.99 225.01 193.95 224.22 C 194.92 223.42 195.05 221.99 194.25 221.03 L 193.64 220.29 C 192.84 219.33 191.42 219.20 190.46 219.99 C 189.49 220.79 189.36 222.22 190.16 223.18 Z M 190.77 223.92 L 191.39 224.66 C 192.19 225.63 193.62 225.76 194.58 224.96 C 195.54 224.16 195.67 222.73 194.87 221.77 L 194.25 221.02 C 193.45 220.06 192.02 219.93 191.06 220.73 C 190.10 221.53 189.97 222.96 190.77 223.92 Z M 191.39 224.67 L 192.05 225.46 C 192.86 226.42 194.29 226.55 195.25 225.74 C 196.21 224.94 196.33 223.51 195.53 222.55 L 194.87 221.76 C 194.06 220.80 192.63 220.67 191.67 221.48 C 190.71 222.28 190.59 223.71 191.39 224.67 Z M 192.06 225.47 L 192.71 226.24 C 193.52 227.20 194.96 227.32 195.91 226.51 C 196.87 225.70 196.98 224.26 196.17 223.31 L 195.52 222.54 C 194.71 221.58 193.28 221.47 192.32 222.28 C 191.37 223.09 191.25 224.52 192.06 225.47 Z M 192.72 226.26 L 193.37 227.01 C 194.19 227.96 195.63 228.07 196.58 227.25 C 197.53 226.43 197.63 225.00 196.81 224.05 L 196.16 223.29 C 195.34 222.34 193.91 222.24 192.96 223.06 C 192.01 223.88 191.91 225.31 192.72 226.26 Z M 193.39 227.03 L 194.04 227.77 C 194.87 228.71 196.31 228.80 197.25 227.97 C 198.19 227.14 198.28 225.71 197.45 224.77 L 196.80 224.03 C 195.97 223.09 194.53 223.00 193.59 223.82 C 192.65 224.65 192.56 226.09 193.39 227.03 Z M 194.06 227.79 L 194.72 228.52 C 195.56 229.45 197.00 229.52 197.93 228.68 C 198.86 227.84 198.93 226.40 198.09 225.47 L 197.43 224.74 C 196.59 223.81 195.15 223.74 194.22 224.58 C 193.29 225.42 193.22 226.86 194.06 227.79 Z M 194.74 228.55 L 195.42 229.28 C 196.28 230.20 197.72 230.25 198.63 229.39 C 199.55 228.53 199.60 227.09 198.75 226.17 L 198.07 225.44 C 197.21 224.53 195.77 224.48 194.85 225.33 C 193.93 226.19 193.88 227.63 194.74 228.55 Z M 195.45 229.31 L 196.16 230.05 C 197.04 230.95 198.48 230.98 199.38 230.10 C 200.29 229.23 200.31 227.79 199.44 226.89 L 198.72 226.14 C 197.85 225.24 196.41 225.21 195.50 226.09 C 194.60 226.96 194.57 228.40 195.45 229.31 Z M 196.19 230.08 L 196.92 230.80 C 197.81 231.69 199.25 231.69 200.14 230.80 C 201.03 229.91 201.02 228.46 200.13 227.58 L 199.41 226.85 C 198.52 225.96 197.07 225.97 196.19 226.86 C 195.30 227.75 195.30 229.19 196.19 230.08 Z M 196.95 230.84 L 197.68 231.54 C 198.59 232.41 200.04 232.37 200.90 231.46 C 201.77 230.55 201.74 229.11 200.83 228.24 L 200.10 227.54 C 199.19 226.67 197.75 226.71 196.88 227.62 C 196.01 228.53 196.04 229.97 196.95 230.84 Z M 197.72 231.57 L 198.45 232.24 C 199.38 233.09 200.82 233.02 201.67 232.09 C 202.52 231.16 202.45 229.71 201.52 228.87 L 200.79 228.20 C 199.86 227.35 198.42 227.42 197.57 228.35 C 196.72 229.28 196.79 230.73 197.72 231.57 Z M 198.50 232.28 L 199.22 232.91 C 200.17 233.73 201.62 233.62 202.44 232.67 C 203.26 231.71 203.16 230.27 202.20 229.45 L 201.48 228.82 C 200.52 228.00 199.08 228.11 198.26 229.06 C 197.43 230.02 197.54 231.46 198.50 232.28 Z M 199.28 232.95 L 200.07 233.59 C 201.05 234.38 202.49 234.23 203.28 233.25 C 204.07 232.27 203.92 230.83 202.93 230.04 L 202.14 229.40 C 201.16 228.61 199.72 228.76 198.93 229.75 C 198.14 230.73 198.30 232.16 199.28 232.95 Z M 200.14 233.64 L 200.96 234.25 C 201.97 235.00 203.40 234.79 204.15 233.79 C 204.90 232.78 204.69 231.35 203.68 230.60 L 202.86 229.99 C 201.86 229.24 200.43 229.45 199.68 230.45 C 198.92 231.46 199.13 232.89 200.14 233.64 Z M 201.03 234.30 L 201.85 234.86 C 202.88 235.57 204.30 235.31 205.01 234.27 C 205.72 233.24 205.46 231.82 204.42 231.11 L 203.61 230.55 C 202.57 229.84 201.16 230.10 200.45 231.14 C 199.74 232.17 200.00 233.59 201.03 234.30 Z M 201.92 234.90 L 202.74 235.42 C 203.80 236.10 205.20 235.79 205.87 234.73 C 206.55 233.67 206.23 232.27 205.18 231.60 L 204.35 231.07 C 203.30 230.40 201.90 230.71 201.22 231.77 C 200.55 232.82 200.86 234.23 201.92 234.90 Z M 202.80 235.46 L 203.64 235.96 C 204.72 236.59 206.11 236.24 206.75 235.17 C 207.38 234.09 207.03 232.70 205.96 232.06 L 205.12 231.56 C 204.04 230.93 202.65 231.28 202.01 232.35 C 201.37 233.43 201.73 234.82 202.80 235.46 Z M 203.69 235.98 L 204.54 236.46 C 205.63 237.07 207.01 236.68 207.62 235.59 C 208.23 234.51 207.84 233.13 206.76 232.52 L 205.91 232.04 C 204.82 231.43 203.44 231.82 202.83 232.91 C 202.22 233.99 202.61 235.37 203.69 235.98 Z M 204.59 236.47 L 205.46 236.94 C 206.56 237.52 207.92 237.11 208.51 236.01 C 209.09 234.91 208.68 233.55 207.58 232.97 L 206.71 232.50 C 205.61 231.92 204.25 232.33 203.66 233.43 C 203.08 234.52 203.49 235.89 204.59 236.47 Z M 205.50 236.95 L 206.39 237.41 C 207.50 237.97 208.85 237.53 209.41 236.42 C 209.98 235.32 209.54 233.97 208.43 233.41 L 207.54 232.95 C 206.43 232.39 205.08 232.83 204.52 233.93 C 203.96 235.04 204.40 236.39 205.50 236.95 Z M 206.43 237.42 L 207.34 237.86 C 208.45 238.40 209.79 237.94 210.33 236.83 C 210.88 235.72 210.41 234.38 209.30 233.84 L 208.39 233.39 C 207.28 232.85 205.94 233.31 205.40 234.43 C 204.86 235.54 205.32 236.88 206.43 237.42 Z M 207.38 237.87 L 208.30 238.30 C 209.42 238.83 210.75 238.35 211.27 237.23 C 211.79 236.11 211.31 234.78 210.19 234.26 L 209.27 233.83 C 208.15 233.31 206.82 233.79 206.30 234.90 C 205.78 236.02 206.26 237.35 207.38 237.87 Z M 208.33 238.31 L 209.24 238.72 C 210.36 239.23 211.68 238.73 212.18 237.61 C 212.69 236.49 212.19 235.17 211.07 234.66 L 210.16 234.25 C 209.04 233.75 207.72 234.25 207.22 235.37 C 206.71 236.49 207.21 237.80 208.33 238.31 Z M 209.26 238.72 L 210.18 239.12 C 211.30 239.62 212.61 239.10 213.10 237.98 C 213.59 236.86 213.08 235.55 211.96 235.06 L 211.05 234.66 C 209.92 234.17 208.62 234.68 208.12 235.80 C 207.63 236.92 208.14 238.23 209.26 238.72 Z M 210.20 239.12 L 211.12 239.52 C 212.24 240.00 213.54 239.48 214.02 238.36 C 214.50 237.23 213.98 235.94 212.86 235.46 L 211.94 235.06 C 210.82 234.58 209.52 235.10 209.04 236.22 C 208.56 237.34 209.08 238.64 210.20 239.12 Z M 211.13 239.52 L 212.06 239.91 C 213.18 240.38 214.47 239.85 214.94 238.73 C 215.41 237.61 214.89 236.32 213.77 235.85 L 212.84 235.46 C 211.72 234.99 210.43 235.51 209.96 236.63 C 209.49 237.75 210.01 239.04 211.13 239.52 Z M 212.07 239.90 L 212.99 240.29 C 214.11 240.75 215.40 240.23 215.86 239.11 C 216.33 237.99 215.80 236.71 214.68 236.24 L 213.76 235.85 C 212.64 235.38 211.35 235.91 210.89 237.03 C 210.42 238.15 210.95 239.43 212.07 239.90 Z M 213.00 240.28 L 213.93 240.67 C 215.04 241.13 216.32 240.61 216.79 239.49 C 217.25 238.38 216.72 237.10 215.61 236.63 L 214.68 236.25 C 213.57 235.78 212.29 236.31 211.82 237.42 C 211.36 238.54 211.88 239.82 213.00 240.28 Z M 213.94 240.66 L 214.87 241.05 C 215.98 241.51 217.25 240.98 217.71 239.87 C 218.17 238.76 217.65 237.49 216.54 237.03 L 215.61 236.64 C 214.50 236.18 213.22 236.71 212.76 237.82 C 212.30 238.93 212.83 240.20 213.94 240.66 Z M 214.88 241.04 L 215.80 241.42 C 216.91 241.88 218.17 241.35 218.63 240.25 C 219.09 239.15 218.56 237.88 217.46 237.42 L 216.53 237.04 C 215.42 236.58 214.16 237.11 213.70 238.21 C 213.25 239.32 213.77 240.58 214.88 241.04 Z M 215.81 241.41 L 216.74 241.79 C 217.84 242.24 219.09 241.72 219.55 240.62 C 220.00 239.52 219.47 238.26 218.37 237.81 L 217.45 237.43 C 216.35 236.98 215.09 237.51 214.64 238.61 C 214.19 239.71 214.71 240.96 215.81 241.41 Z M 216.75 241.79 L 217.66 242.16 C 218.76 242.60 220.01 242.07 220.45 240.98 C 220.90 239.88 220.37 238.63 219.27 238.19 L 218.36 237.82 C 217.26 237.37 216.01 237.90 215.57 239.00 C 215.12 240.09 215.65 241.34 216.75 241.79 Z M 217.68 242.15 L 218.62 242.52 C 219.71 242.96 220.95 242.43 221.39 241.34 C 221.82 240.24 221.29 239.01 220.20 238.57 L 219.26 238.19 C 218.17 237.76 216.93 238.29 216.49 239.38 C 216.06 240.47 216.59 241.71 217.68 242.15 Z M 218.63 242.51 L 219.58 242.89 C 220.66 243.32 221.89 242.78 222.32 241.70 C 222.75 240.61 222.22 239.38 221.13 238.96 L 220.19 238.58 C 219.10 238.15 217.87 238.68 217.44 239.77 C 217.01 240.85 217.54 242.08 218.63 242.51 Z M 219.58 242.87 L 220.51 243.24 C 221.59 243.67 222.81 243.14 223.23 242.07 C 223.66 240.99 223.14 239.77 222.06 239.34 L 221.13 238.97 C 220.05 238.54 218.83 239.07 218.40 240.15 C 217.98 241.22 218.50 242.44 219.58 242.87 Z M 220.51 243.22 L 221.42 243.59 C 222.49 244.02 223.70 243.51 224.13 242.44 C 224.56 241.38 224.05 240.17 222.98 239.73 L 222.07 239.36 C 221.00 238.93 219.79 239.45 219.36 240.51 C 218.93 241.58 219.44 242.79 220.51 243.22 Z M 221.41 243.57 L 222.31 243.94 C 223.36 244.38 224.57 243.89 225.01 242.83 C 225.45 241.78 224.95 240.58 223.90 240.14 L 223.00 239.76 C 221.95 239.32 220.74 239.82 220.30 240.87 C 219.86 241.92 220.36 243.13 221.41 243.57 Z M 222.29 243.91 L 223.19 244.31 C 224.23 244.76 225.43 244.28 225.88 243.25 C 226.33 242.21 225.86 241.01 224.82 240.56 L 223.92 240.17 C 222.89 239.71 221.68 240.19 221.23 241.22 C 220.78 242.26 221.25 243.46 222.29 243.91 Z M 223.19 244.28 L 224.09 244.68 C 225.11 245.13 226.31 244.66 226.76 243.64 C 227.21 242.62 226.74 241.42 225.72 240.97 L 224.82 240.58 C 223.80 240.13 222.60 240.59 222.15 241.62 C 221.70 242.64 222.17 243.83 223.19 244.28 Z M 224.13 244.67 L 225.04 245.06 C 226.06 245.49 227.23 245.01 227.66 243.99 C 228.09 242.97 227.62 241.80 226.60 241.37 L 225.69 240.98 C 224.67 240.55 223.49 241.03 223.06 242.05 C 222.63 243.07 223.11 244.24 224.13 244.67 Z M 225.10 245.06 L 226.04 245.42 C 227.06 245.82 228.21 245.31 228.60 244.29 C 229.00 243.27 228.49 242.12 227.47 241.72 L 226.53 241.36 C 225.51 240.97 224.36 241.48 223.97 242.50 C 223.57 243.52 224.08 244.67 225.10 245.06 Z M 226.14 245.44 L 227.11 245.76 C 228.14 246.10 229.25 245.54 229.59 244.52 C 229.93 243.49 229.38 242.38 228.35 242.04 L 227.37 241.71 C 226.35 241.37 225.24 241.93 224.89 242.96 C 224.55 243.98 225.11 245.09 226.14 245.44 Z M 227.21 245.77 L 228.13 246.02 C 229.17 246.31 230.24 245.70 230.52 244.67 C 230.81 243.63 230.20 242.56 229.17 242.28 L 228.25 242.02 C 227.21 241.74 226.14 242.35 225.86 243.38 C 225.57 244.42 226.18 245.49 227.21 245.77 Z M 228.21 246.03 L 229.17 246.25 C 230.20 246.49 231.24 245.85 231.48 244.81 C 231.72 243.78 231.08 242.74 230.05 242.50 L 229.09 242.28 C 228.05 242.03 227.02 242.68 226.77 243.71 C 226.53 244.75 227.18 245.78 228.21 246.03 Z M 229.22 246.25 L 230.21 246.45 C 231.24 246.66 232.25 245.99 232.46 244.96 C 232.67 243.92 232.01 242.92 230.97 242.71 L 229.99 242.50 C 228.95 242.29 227.95 242.96 227.74 243.99 C 227.52 245.03 228.19 246.04 229.22 246.25 Z M 230.25 246.44 L 231.25 246.62 C 232.28 246.81 233.27 246.13 233.46 245.10 C 233.65 244.08 232.97 243.09 231.94 242.90 L 230.93 242.71 C 229.91 242.53 228.92 243.21 228.73 244.23 C 228.54 245.26 229.22 246.25 230.25 246.44 Z M 231.28 246.61 L 232.29 246.79 C 233.31 246.96 234.28 246.28 234.46 245.26 C 234.64 244.24 233.95 243.27 232.93 243.09 L 231.92 242.91 C 230.90 242.74 229.93 243.42 229.75 244.44 C 229.57 245.46 230.26 246.43 231.28 246.61 Z M 232.30 246.78 L 232.56 246.82 C 233.58 246.99 234.54 246.31 234.71 245.30 C 234.89 244.28 234.20 243.32 233.19 243.14 L 232.93 243.10 C 231.91 242.93 230.95 243.61 230.77 244.62 C 230.60 245.64 231.28 246.60 232.30 246.78 Z"
      fill="black"
      fill-rule="nonzero" /></svg>