<svg xmlns="http://www.w3.org/2000/svg" width="300" height="300" viewBox="0 0 300 300">
<path d="M 147.83 70.62 L 148.12 69.41 C 148.34 68.52 147.80 67.63 146.91 67.41 C 146.03 67.19 145.13 67.74 144.92 68.62 L 144.62 69.83 C 144.40 70.72 144.95 71.61 145.83 71.83 C 146.72 72.05 147.61 71.50 147.83 70.62 Z M 148.12 69.49 L 148.44 68.40 C 148.71 67.51 148.20 66.59 147.32 66.32 C 146.43 66.06 145.51 66.57 145.24 67.45 L 144.92 68.54 C 144.66 69.42 145.16 70.35 146.05 70.61 C 146.93 70.88 147.86 70.37 148.12 69.49 Z M 148.38 68.61 L 148.76 67.76 C 149.14 66.91 148.76 65.91 147.91 65.53 C 147.05 65.15 146.06 65.54 145.68 66.39 L 145.30 67.24 C 144.92 68.09 145.31 69.09 146.16 69.47 C 147.01 69.84 148.01 69.46 148.38 68.61 Z M 148.46 68.24 L 148.92 67.75 C 149.57 67.07 149.53 65.99 148.85 65.34 C 148.16 64.70 147.08 64.73 146.44 65.42 L 145.98 65.91 C 145.33 66.59 145.37 67.67 146.05 68.32 C 146.74 68.96 147.82 68.93 148.46 68.24 Z M 147.72 68.31 L 148.33 68.29 C 149.28 68.27 150.03 67.48 150.01 66.53 C 149.99 65.58 149.20 64.83 148.25 64.85 L 147.64 64.86 C 146.69 64.89 145.94 65.68 145.96 66.63 C 145.98 67.58 146.77 68.33 147.72 68.31 Z M 147.29 68.00 L 147.98 68.48 C 148.77 69.03 149.85 68.83 150.40 68.05 C 150.95 67.26 150.76 66.18 149.97 65.63 L 149.28 65.14 C 148.49 64.60 147.41 64.79 146.86 65.58 C 146.31 66.36 146.51 67.45 147.29 68.00 Z M 147.61 68.15 L 148.32 69.04 C 148.93 69.79 150.03 69.91 150.79 69.31 C 151.54 68.70 151.67 67.60 151.06 66.84 L 150.35 65.95 C 149.74 65.20 148.63 65.08 147.88 65.68 C 147.12 66.29 147.00 67.40 147.61 68.15 Z M 148.15 68.81 L 148.79 69.94 C 149.27 70.79 150.35 71.08 151.20 70.60 C 152.05 70.12 152.35 69.03 151.87 68.18 L 151.23 67.06 C 150.75 66.21 149.66 65.92 148.81 66.40 C 147.96 66.88 147.67 67.96 148.15 68.81 Z M 148.70 69.79 L 149.09 70.67 C 149.50 71.57 150.55 71.97 151.45 71.56 C 152.35 71.16 152.75 70.11 152.35 69.21 L 151.95 68.33 C 151.55 67.43 150.50 67.03 149.60 67.43 C 148.70 67.84 148.30 68.89 148.70 69.79 Z M 149.05 70.57 L 149.41 71.52 C 149.76 72.44 150.79 72.90 151.72 72.55 C 152.64 72.20 153.10 71.17 152.75 70.25 L 152.39 69.30 C 152.04 68.38 151.01 67.92 150.08 68.27 C 149.16 68.62 148.70 69.65 149.05 70.57 Z M 149.38 71.45 L 149.70 72.42 C 150.02 73.36 151.03 73.87 151.97 73.56 C 152.91 73.25 153.42 72.24 153.11 71.30 L 152.78 70.32 C 152.47 69.38 151.45 68.87 150.52 69.18 C 149.58 69.49 149.07 70.51 149.38 71.45 Z M 149.68 72.37 L 149.97 73.36 C 150.25 74.31 151.25 74.85 152.20 74.57 C 153.15 74.29 153.70 73.30 153.42 72.34 L 153.13 71.35 C 152.85 70.40 151.85 69.86 150.90 70.14 C 149.95 70.42 149.40 71.41 149.68 72.37 Z M 149.95 73.31 L 150.21 74.28 C 150.46 75.24 151.45 75.82 152.41 75.56 C 153.37 75.31 153.95 74.32 153.69 73.36 L 153.44 72.39 C 153.18 71.43 152.20 70.85 151.24 71.11 C 150.27 71.36 149.70 72.35 149.95 73.31 Z M 150.19 74.24 L 150.43 75.22 C 150.66 76.19 151.63 76.79 152.60 76.56 C 153.58 76.33 154.17 75.35 153.94 74.38 L 153.71 73.40 C 153.48 72.43 152.50 71.83 151.53 72.06 C 150.56 72.29 149.96 73.27 150.19 74.24 Z M 150.41 75.18 L 150.64 76.23 C 150.85 77.21 151.81 77.83 152.79 77.62 C 153.77 77.41 154.39 76.45 154.18 75.47 L 153.96 74.42 C 153.75 73.44 152.78 72.82 151.81 73.03 C 150.83 73.24 150.20 74.20 150.41 75.18 Z M 150.62 76.19 L 150.81 77.17 C 150.99 78.16 151.94 78.81 152.93 78.62 C 153.92 78.44 154.57 77.49 154.38 76.50 L 154.20 75.52 C 154.01 74.53 153.06 73.88 152.07 74.07 C 151.09 74.25 150.44 75.20 150.62 76.19 Z M 150.80 77.13 L 150.95 78.08 C 151.11 79.07 152.05 79.75 153.04 79.59 C 154.04 79.42 154.71 78.48 154.55 77.49 L 154.39 76.54 C 154.23 75.55 153.29 74.88 152.30 75.04 C 151.31 75.20 150.63 76.14 150.80 77.13 Z M 150.94 78.05 L 151.08 78.98 C 151.22 79.98 152.15 80.68 153.15 80.53 C 154.15 80.39 154.84 79.46 154.70 78.46 L 154.56 77.52 C 154.42 76.53 153.49 75.83 152.49 75.98 C 151.49 76.12 150.80 77.05 150.94 78.05 Z M 151.07 78.96 L 151.19 79.90 C 151.32 80.91 152.24 81.62 153.25 81.49 C 154.25 81.35 154.96 80.43 154.83 79.43 L 154.71 78.49 C 154.57 77.48 153.65 76.77 152.65 76.90 C 151.64 77.03 150.93 77.96 151.07 78.96 Z M 151.18 79.89 L 151.29 80.84 C 151.41 81.86 152.33 82.58 153.34 82.46 C 154.36 82.33 155.08 81.42 154.96 80.40 L 154.84 79.44 C 154.72 78.43 153.80 77.71 152.79 77.83 C 151.78 77.95 151.05 78.87 151.18 79.89 Z M 151.28 80.83 L 151.39 81.81 C 151.50 82.83 152.42 83.57 153.44 83.45 C 154.46 83.34 155.19 82.43 155.08 81.41 L 154.97 80.42 C 154.86 79.40 153.94 78.66 152.92 78.78 C 151.90 78.89 151.16 79.81 151.28 80.83 Z M 151.37 81.79 L 151.47 82.80 C 151.57 83.83 152.49 84.58 153.52 84.48 C 154.54 84.38 155.29 83.46 155.19 82.43 L 155.09 81.42 C 154.99 80.40 154.08 79.65 153.05 79.75 C 152.02 79.85 151.27 80.76 151.37 81.79 Z M 151.46 82.78 L 151.55 83.81 C 151.64 84.85 152.55 85.62 153.59 85.52 C 154.62 85.43 155.39 84.52 155.30 83.49 L 155.21 82.45 C 155.12 81.42 154.20 80.65 153.17 80.74 C 152.13 80.83 151.37 81.75 151.46 82.78 Z M 151.53 83.79 L 151.61 84.79 C 151.69 85.83 152.60 86.62 153.64 86.54 C 154.69 86.46 155.47 85.55 155.39 84.50 L 155.31 83.51 C 155.23 82.46 154.32 81.68 153.28 81.76 C 152.23 81.84 151.45 82.75 151.53 83.79 Z M 151.59 84.77 L 151.66 85.75 C 151.72 86.80 152.63 87.60 153.69 87.53 C 154.74 87.46 155.54 86.55 155.47 85.50 L 155.41 84.52 C 155.34 83.47 154.43 82.67 153.37 82.74 C 152.32 82.81 151.52 83.72 151.59 84.77 Z M 151.64 85.73 L 151.69 86.73 C 151.75 87.79 152.67 88.60 153.73 88.54 C 154.79 88.48 155.60 87.57 155.54 86.51 L 155.49 85.51 C 155.43 84.45 154.52 83.64 153.45 83.70 C 152.39 83.76 151.58 84.67 151.64 85.73 Z M 151.68 86.71 L 151.73 87.72 C 151.78 88.79 152.69 89.62 153.76 89.56 C 154.84 89.51 155.66 88.60 155.61 87.53 L 155.56 86.52 C 155.51 85.45 154.60 84.62 153.52 84.67 C 152.45 84.73 151.62 85.64 151.68 86.71 Z M 151.71 87.71 L 151.75 88.72 C 151.80 89.80 152.71 90.64 153.80 90.60 C 154.88 90.55 155.72 89.64 155.67 88.56 L 155.63 87.54 C 155.58 86.46 154.67 85.62 153.58 85.66 C 152.50 85.71 151.66 86.62 151.71 87.71 Z M 151.74 88.71 L 151.77 89.73 C 151.82 90.82 152.73 91.67 153.82 91.63 C 154.91 91.59 155.77 90.67 155.72 89.58 L 155.69 88.57 C 155.65 87.48 154.73 86.62 153.64 86.66 C 152.55 86.71 151.70 87.62 151.74 88.71 Z M 151.76 89.72 L 151.79 90.69 C 151.83 91.79 152.75 92.66 153.85 92.62 C 154.94 92.58 155.81 91.66 155.77 90.57 L 155.74 89.59 C 155.70 88.49 154.78 87.63 153.68 87.67 C 152.59 87.70 151.72 88.62 151.76 89.72 Z M 151.78 90.69 L 151.81 91.67 C 151.84 92.78 152.76 93.65 153.87 93.62 C 154.97 93.59 155.84 92.66 155.81 91.56 L 155.78 90.57 C 155.75 89.47 154.83 88.60 153.72 88.63 C 152.62 88.66 151.75 89.58 151.78 90.69 Z M 151.79 91.66 L 151.82 92.66 C 151.84 93.77 152.77 94.65 153.88 94.63 C 154.99 94.60 155.88 93.68 155.85 92.56 L 155.83 91.57 C 155.80 90.45 154.87 89.57 153.76 89.60 C 152.65 89.63 151.77 90.55 151.79 91.66 Z M 151.80 92.65 L 151.82 93.66 C 151.85 94.78 152.77 95.67 153.89 95.65 C 155.01 95.63 155.90 94.70 155.88 93.58 L 155.86 92.57 C 155.84 91.45 154.91 90.56 153.79 90.58 C 152.67 90.60 151.78 91.53 151.80 92.65 Z M 151.81 93.65 L 151.83 94.67 C 151.84 95.80 152.77 96.70 153.90 96.68 C 155.03 96.67 155.93 95.74 155.91 94.61 L 155.90 93.59 C 155.88 92.46 154.95 91.56 153.82 91.58 C 152.69 91.59 151.79 92.52 151.81 93.65 Z M 151.81 94.67 L 151.82 95.65 C 151.84 96.79 152.77 97.70 153.90 97.69 C 155.04 97.67 155.95 96.74 155.93 95.61 L 155.92 94.62 C 155.91 93.48 154.98 92.57 153.84 92.59 C 152.71 92.60 151.80 93.53 151.81 94.67 Z M 151.81 95.65 L 151.82 96.60 C 151.83 97.74 152.76 98.66 153.90 98.65 C 155.05 98.64 155.96 97.71 155.95 96.57 L 155.95 95.62 C 155.94 94.47 155.01 93.55 153.86 93.56 C 152.72 93.57 151.80 94.51 151.81 95.65 Z M 151.81 96.59 L 151.81 97.56 C 151.82 98.71 152.75 99.64 153.90 99.63 C 155.05 99.63 155.98 98.69 155.97 97.54 L 155.97 96.57 C 155.96 95.42 155.02 94.50 153.88 94.50 C 152.73 94.51 151.80 95.45 151.81 96.59 Z M 151.80 97.56 L 151.80 98.55 C 151.81 99.70 152.75 100.64 153.90 100.63 C 155.06 100.63 155.99 99.69 155.99 98.54 L 155.98 97.55 C 155.98 96.39 155.04 95.46 153.89 95.46 C 152.73 95.47 151.80 96.40 151.80 97.56 Z M 151.79 98.55 L 151.79 99.56 C 151.80 100.72 152.74 101.66 153.90 101.66 C 155.06 101.66 156.00 100.72 156.00 99.55 L 156.00 98.54 C 156.00 97.38 155.05 96.44 153.89 96.44 C 152.73 96.44 151.79 97.38 151.79 98.55 Z M 151.78 99.56 L 151.78 100.60 C 151.78 101.77 152.73 102.71 153.90 102.71 C 155.07 102.71 156.01 101.77 156.01 100.60 L 156.01 99.56 C 156.01 98.39 155.06 97.44 153.90 97.44 C 152.73 97.44 151.78 98.39 151.78 99.56 Z M 151.77 100.60 L 151.77 101.65 C 151.77 102.83 152.72 103.78 153.90 103.78 C 155.07 103.78 156.02 102.83 156.02 101.65 L 156.02 100.60 C 156.02 99.42 155.07 98.47 153.90 98.47 C 152.72 98.47 151.77 99.42 151.77 100.60 Z M 151.76 101.65 L 151.76 102.61 C 151.76 103.79 152.72 104.75 153.90 104.75 C 155.08 104.75 156.03 103.79 156.03 102.61 L 156.03 101.65 C 156.03 100.47 155.08 99.52 153.90 99.52 C 152.72 99.52 151.76 100.47 151.76 101.65 Z M 151.75 102.61 L 151.75 103.58 C 151.75 104.77 152.70 105.73 153.89 105.73 C 155.08 105.74 156.04 104.78 156.04 103.59 L 156.04 102.61 C 156.05 101.43 155.09 100.46 153.90 100.46 C 152.71 100.46 151.75 101.42 151.75 102.61 Z M 151.74 103.58 L 151.73 104.57 C 151.73 105.76 152.69 106.73 153.88 106.74 C 155.07 106.74 156.04 105.78 156.05 104.59 L 156.05 103.60 C 156.06 102.41 155.10 101.44 153.90 101.43 C 152.71 101.42 151.74 102.39 151.74 103.58 Z M 151.72 104.56 L 151.71 105.57 C 151.70 106.77 152.66 107.75 153.86 107.76 C 155.06 107.77 156.04 106.81 156.05 105.61 L 156.06 104.60 C 156.07 103.40 155.11 102.43 153.91 102.41 C 152.71 102.40 151.73 103.37 151.72 104.56 Z M 151.70 105.56 L 151.69 106.58 C 151.67 107.78 152.63 108.77 153.84 108.78 C 155.04 108.80 156.03 107.84 156.04 106.64 L 156.06 105.62 C 156.08 104.42 155.11 103.43 153.91 103.41 C 152.71 103.40 151.72 104.36 151.70 105.56 Z M 151.68 106.56 L 151.66 107.58 C 151.63 108.79 152.59 109.79 153.80 109.82 C 155.01 109.84 156.01 108.88 156.03 107.68 L 156.05 106.65 C 156.08 105.45 155.12 104.45 153.91 104.42 C 152.70 104.39 151.70 105.35 151.68 106.56 Z M 151.65 107.57 L 151.62 108.59 C 151.58 109.80 152.54 110.82 153.75 110.85 C 154.96 110.89 155.98 109.93 156.01 108.72 L 156.04 107.69 C 156.08 106.48 155.12 105.47 153.91 105.43 C 152.70 105.40 151.68 106.35 151.65 107.57 Z M 151.61 108.57 L 151.57 109.56 C 151.53 110.77 152.47 111.80 153.69 111.85 C 154.91 111.89 155.93 110.94 155.98 109.73 L 156.02 108.74 C 156.07 107.52 155.12 106.50 153.90 106.45 C 152.68 106.40 151.66 107.35 151.61 108.57 Z M 151.57 109.53 L 151.52 110.51 C 151.46 111.73 152.40 112.77 153.62 112.83 C 154.84 112.89 155.88 111.95 155.94 110.73 L 155.99 109.75 C 156.05 108.53 155.10 107.49 153.88 107.43 C 152.66 107.37 151.63 108.31 151.57 109.53 Z M 151.51 110.49 L 151.46 111.47 C 151.38 112.69 152.32 113.74 153.54 113.82 C 154.76 113.89 155.81 112.96 155.89 111.73 L 155.94 110.75 C 156.02 109.53 155.08 108.48 153.86 108.40 C 152.64 108.33 151.59 109.26 151.51 110.49 Z M 151.45 111.44 L 151.38 112.43 C 151.29 113.66 152.22 114.72 153.44 114.81 C 154.67 114.89 155.73 113.97 155.82 112.74 L 155.89 111.76 C 155.98 110.53 155.05 109.47 153.83 109.38 C 152.60 109.29 151.54 110.22 151.45 111.44 Z M 151.38 112.40 L 151.29 113.40 C 151.19 114.63 152.11 115.71 153.33 115.81 C 154.56 115.91 155.64 114.99 155.74 113.77 L 155.83 112.77 C 155.93 111.54 155.01 110.46 153.79 110.36 C 152.56 110.26 151.48 111.17 151.38 112.40 Z M 151.29 113.37 L 151.19 114.38 C 151.08 115.61 151.98 116.70 153.21 116.82 C 154.44 116.93 155.53 116.03 155.65 114.80 L 155.75 113.79 C 155.86 112.56 154.96 111.47 153.73 111.35 C 152.50 111.24 151.41 112.14 151.29 113.37 Z M 151.19 114.35 L 151.08 115.36 C 150.95 116.60 151.84 117.71 153.07 117.84 C 154.30 117.97 155.41 117.08 155.55 115.85 L 155.66 114.83 C 155.79 113.60 154.90 112.49 153.66 112.36 C 152.43 112.22 151.32 113.11 151.19 114.35 Z M 151.08 115.34 L 150.96 116.35 C 150.81 117.58 151.69 118.71 152.92 118.86 C 154.15 119.00 155.28 118.12 155.43 116.89 L 155.55 115.88 C 155.70 114.64 154.82 113.52 153.58 113.37 C 152.35 113.22 151.23 114.10 151.08 115.34 Z M 150.95 116.32 L 150.83 117.27 C 150.66 118.50 151.53 119.64 152.77 119.80 C 154.00 119.97 155.14 119.10 155.30 117.86 L 155.43 116.92 C 155.59 115.68 154.72 114.55 153.49 114.38 C 152.25 114.22 151.12 115.09 150.95 116.32 Z M 150.83 117.24 L 150.69 118.20 C 150.51 119.43 151.37 120.58 152.60 120.76 C 153.84 120.94 154.99 120.08 155.17 118.84 L 155.30 117.89 C 155.48 116.65 154.62 115.50 153.39 115.32 C 152.15 115.15 151.00 116.00 150.83 117.24 Z M 150.69 118.17 L 150.54 119.14 C 150.35 120.38 151.19 121.54 152.43 121.73 C 153.67 121.92 154.82 121.07 155.02 119.84 L 155.17 118.87 C 155.36 117.63 154.51 116.47 153.27 116.28 C 152.04 116.09 150.88 116.94 150.69 118.17 Z M 150.54 119.12 L 150.37 120.10 C 150.17 121.34 151.01 122.51 152.24 122.71 C 153.48 122.92 154.65 122.08 154.85 120.84 L 155.02 119.86 C 155.22 118.62 154.38 117.45 153.15 117.25 C 151.91 117.04 150.74 117.88 150.54 119.12 Z M 150.37 120.08 L 150.20 121.07 C 149.98 122.31 150.81 123.49 152.05 123.71 C 153.28 123.92 154.46 123.10 154.68 121.86 L 154.86 120.87 C 155.07 119.63 154.25 118.45 153.01 118.23 C 151.77 118.01 150.59 118.84 150.37 120.08 Z M 150.20 121.05 L 150.01 122.05 C 149.78 123.29 150.60 124.48 151.84 124.71 C 153.08 124.94 154.27 124.12 154.50 122.88 L 154.68 121.88 C 154.91 120.64 154.09 119.45 152.86 119.22 C 151.62 118.99 150.43 119.81 150.20 121.05 Z M 150.01 122.03 L 149.81 123.04 C 149.57 124.28 150.38 125.48 151.62 125.72 C 152.86 125.96 154.06 125.16 154.30 123.92 L 154.50 122.91 C 154.74 121.67 153.93 120.47 152.69 120.22 C 151.45 119.98 150.25 120.79 150.01 122.03 Z M 149.81 123.02 L 149.60 124.04 C 149.35 125.28 150.15 126.49 151.39 126.74 C 152.63 127.00 153.84 126.20 154.09 124.96 L 154.30 123.94 C 154.55 122.70 153.75 121.49 152.51 121.24 C 151.28 120.98 150.07 121.78 149.81 123.02 Z M 149.60 124.02 L 149.40 124.99 C 149.13 126.23 149.92 127.45 151.16 127.71 C 152.40 127.98 153.62 127.19 153.88 125.95 L 154.09 124.98 C 154.36 123.74 153.57 122.52 152.33 122.26 C 151.09 121.99 149.87 122.78 149.60 124.02 Z M 149.40 124.97 L 149.18 125.92 C 148.91 127.16 149.69 128.39 150.93 128.67 C 152.17 128.94 153.40 128.16 153.67 126.92 L 153.88 125.97 C 154.16 124.73 153.38 123.50 152.14 123.23 C 150.90 122.95 149.67 123.73 149.40 124.97 Z M 149.19 125.90 L 148.96 126.86 C 148.68 128.10 149.45 129.34 150.69 129.62 C 151.93 129.91 153.17 129.13 153.45 127.90 L 153.67 126.94 C 153.96 125.70 153.18 124.46 151.95 124.18 C 150.71 123.89 149.47 124.67 149.19 125.90 Z M 148.96 126.84 L 148.74 127.81 C 148.44 129.04 149.20 130.29 150.44 130.58 C 151.68 130.88 152.93 130.12 153.22 128.88 L 153.45 127.91 C 153.75 126.67 152.98 125.43 151.74 125.14 C 150.50 124.84 149.26 125.60 148.96 126.84 Z M 148.74 127.79 L 148.50 128.76 C 148.19 129.99 148.95 131.25 150.19 131.55 C 151.42 131.86 152.68 131.10 152.98 129.86 L 153.22 128.89 C 153.53 127.66 152.77 126.40 151.53 126.10 C 150.29 125.79 149.04 126.55 148.74 127.79 Z M 148.50 128.74 L 148.25 129.71 C 147.93 130.95 148.68 132.21 149.92 132.52 C 151.16 132.84 152.42 132.09 152.73 130.85 L 152.98 129.88 C 153.30 128.64 152.55 127.38 151.31 127.07 C 150.07 126.75 148.81 127.50 148.50 128.74 Z M 148.25 129.69 L 147.99 130.67 C 147.67 131.91 148.41 133.18 149.64 133.50 C 150.88 133.83 152.15 133.09 152.48 131.85 L 152.73 130.87 C 153.06 129.63 152.32 128.37 151.08 128.04 C 149.84 127.71 148.58 128.45 148.25 129.69 Z M 147.99 130.65 L 147.73 131.64 C 147.39 132.87 148.12 134.15 149.36 134.49 C 150.60 134.82 151.87 134.09 152.21 132.85 L 152.47 131.87 C 152.81 130.63 152.08 129.36 150.84 129.02 C 149.60 128.68 148.33 129.42 147.99 130.65 Z M 147.73 131.62 L 147.45 132.61 C 147.11 133.84 147.83 135.13 149.07 135.47 C 150.30 135.82 151.59 135.10 151.93 133.86 L 152.21 132.87 C 152.55 131.63 151.83 130.35 150.59 130.00 C 149.36 129.66 148.07 130.38 147.73 131.62 Z M 147.45 132.59 L 147.17 133.56 C 146.82 134.79 147.53 136.08 148.77 136.44 C 150.01 136.79 151.30 136.08 151.65 134.84 L 151.93 133.88 C 152.28 132.64 151.57 131.35 150.33 130.99 C 149.10 130.64 147.81 131.35 147.45 132.59 Z M 147.18 133.54 L 146.90 134.47 C 146.54 135.71 147.24 137.00 148.48 137.37 C 149.71 137.73 151.01 137.03 151.37 135.79 L 151.65 134.86 C 152.01 133.62 151.31 132.33 150.07 131.96 C 148.84 131.60 147.54 132.30 147.18 133.54 Z M 146.91 134.46 L 146.62 135.39 C 146.25 136.63 146.95 137.93 148.18 138.30 C 149.41 138.68 150.71 137.98 151.09 136.75 L 151.37 135.81 C 151.74 134.57 151.05 133.27 149.81 132.90 C 148.58 132.53 147.28 133.22 146.91 134.46 Z M 146.62 135.38 L 146.33 136.32 C 145.95 137.55 146.64 138.86 147.87 139.24 C 149.10 139.62 150.41 138.94 150.79 137.70 L 151.08 136.76 C 151.47 135.53 150.78 134.22 149.55 133.84 C 148.32 133.46 147.01 134.15 146.62 135.38 Z M 146.34 136.30 L 146.03 137.25 C 145.64 138.48 146.32 139.79 147.55 140.18 C 148.78 140.57 150.09 139.90 150.49 138.67 L 150.79 137.72 C 151.18 136.49 150.50 135.18 149.27 134.79 C 148.04 134.39 146.73 135.07 146.34 136.30 Z M 146.04 137.23 L 145.73 138.18 C 145.33 139.41 145.99 140.73 147.22 141.13 C 148.45 141.53 149.77 140.86 150.17 139.63 L 150.48 138.68 C 150.88 137.46 150.21 136.14 148.99 135.74 C 147.76 135.33 146.44 136.00 146.04 137.23 Z M 145.73 138.16 L 145.41 139.12 C 145.00 140.34 145.66 141.67 146.88 142.08 C 148.11 142.49 149.43 141.83 149.85 140.61 L 150.17 139.65 C 150.58 138.43 149.92 137.10 148.69 136.69 C 147.47 136.28 146.14 136.94 145.73 138.16 Z M 145.42 139.10 L 145.08 140.05 C 144.66 141.28 145.31 142.61 146.53 143.03 C 147.76 143.45 149.09 142.80 149.51 141.58 L 149.84 140.62 C 150.26 139.40 149.61 138.07 148.39 137.65 C 147.17 137.23 145.84 137.87 145.42 139.10 Z M 145.09 140.04 L 144.75 141.00 C 144.32 142.22 144.96 143.56 146.18 143.99 C 147.40 144.42 148.73 143.78 149.17 142.56 L 149.51 141.60 C 149.94 140.38 149.30 139.04 148.08 138.61 C 146.86 138.18 145.52 138.82 145.09 140.04 Z M 144.75 140.98 L 144.40 141.95 C 143.96 143.16 144.59 144.51 145.81 144.95 C 147.02 145.39 148.37 144.76 148.81 143.55 L 149.16 142.58 C 149.60 141.36 148.98 140.02 147.76 139.58 C 146.54 139.13 145.20 139.76 144.75 140.98 Z M 144.41 141.93 L 144.07 142.85 C 143.61 144.06 144.23 145.41 145.44 145.86 C 146.66 146.32 148.01 145.70 148.46 144.49 L 148.80 143.57 C 149.26 142.35 148.64 141.00 147.43 140.55 C 146.21 140.10 144.86 140.71 144.41 141.93 Z M 144.07 142.83 L 143.73 143.71 C 143.27 144.92 143.88 146.28 145.09 146.74 C 146.30 147.20 147.66 146.60 148.12 145.39 L 148.46 144.50 C 148.92 143.29 148.31 141.94 147.10 141.47 C 145.89 141.01 144.53 141.62 144.07 142.83 Z M 143.74 143.70 L 143.39 144.59 C 142.92 145.79 143.52 147.15 144.73 147.62 C 145.94 148.10 147.30 147.50 147.77 146.29 L 148.11 145.40 C 148.58 144.19 147.99 142.83 146.78 142.36 C 145.57 141.89 144.21 142.49 143.74 143.70 Z M 143.40 144.57 L 143.04 145.46 C 142.56 146.67 143.15 148.03 144.36 148.51 C 145.56 148.99 146.93 148.41 147.41 147.20 L 147.76 146.31 C 148.24 145.10 147.65 143.74 146.45 143.26 C 145.24 142.78 143.88 143.36 143.40 144.57 Z M 143.05 145.45 L 142.68 146.35 C 142.19 147.55 142.77 148.92 143.97 149.41 C 145.18 149.90 146.55 149.32 147.03 148.12 L 147.40 147.22 C 147.89 146.01 147.31 144.64 146.11 144.16 C 144.91 143.67 143.54 144.25 143.05 145.45 Z M 142.69 146.34 L 142.31 147.25 C 141.81 148.45 142.38 149.82 143.58 150.32 C 144.78 150.82 146.16 150.25 146.65 149.05 L 147.03 148.13 C 147.52 146.93 146.95 145.56 145.76 145.06 C 144.56 144.57 143.18 145.14 142.69 146.34 Z M 142.31 147.24 L 141.93 148.16 C 141.42 149.36 141.98 150.73 143.18 151.24 C 144.38 151.74 145.75 151.18 146.26 149.98 L 146.65 149.06 C 147.15 147.86 146.59 146.49 145.39 145.98 C 144.20 145.48 142.82 146.04 142.31 147.24 Z M 141.93 148.15 L 141.53 149.08 C 141.02 150.28 141.57 151.66 142.77 152.17 C 143.96 152.68 145.34 152.12 145.85 150.93 L 146.25 150.00 C 146.76 148.80 146.21 147.42 145.02 146.91 C 143.82 146.40 142.44 146.95 141.93 148.15 Z M 141.54 149.07 L 141.12 150.02 C 140.61 151.21 141.15 152.59 142.34 153.11 C 143.53 153.63 144.92 153.08 145.44 151.89 L 145.85 150.94 C 146.37 149.75 145.82 148.37 144.63 147.85 C 143.44 147.33 142.05 147.88 141.54 149.07 Z M 141.13 150.01 L 140.70 150.97 C 140.18 152.16 140.72 153.55 141.91 154.07 C 143.10 154.59 144.48 154.06 145.01 152.87 L 145.43 151.90 C 145.96 150.71 145.42 149.33 144.23 148.80 C 143.04 148.28 141.65 148.82 141.13 150.01 Z M 140.71 150.96 L 140.27 151.94 C 139.74 153.12 140.27 154.52 141.46 155.05 C 142.65 155.58 144.04 155.04 144.57 153.86 L 145.00 152.88 C 145.53 151.69 145.00 150.30 143.81 149.77 C 142.63 149.24 141.24 149.77 140.71 150.96 Z M 140.27 151.93 L 139.86 152.84 C 139.33 154.02 139.85 155.42 141.04 155.95 C 142.22 156.49 143.62 155.96 144.15 154.78 L 144.56 153.87 C 145.10 152.68 144.57 151.29 143.39 150.75 C 142.20 150.22 140.81 150.74 140.27 151.93 Z M 139.87 152.83 L 139.47 153.70 C 138.93 154.88 139.45 156.28 140.63 156.82 C 141.81 157.36 143.21 156.84 143.75 155.66 L 144.15 154.78 C 144.69 153.60 144.17 152.21 142.98 151.67 C 141.80 151.13 140.41 151.65 139.87 152.83 Z M 139.47 153.69 L 139.07 154.58 C 138.52 155.76 139.04 157.15 140.22 157.70 C 141.40 158.24 142.79 157.73 143.34 156.55 L 143.75 155.67 C 144.29 154.49 143.77 153.09 142.60 152.54 C 141.42 152.00 140.02 152.51 139.47 153.69 Z M 139.07 154.57 L 138.65 155.46 C 138.10 156.64 138.61 158.04 139.79 158.59 C 140.97 159.14 142.37 158.63 142.92 157.45 L 143.33 156.56 C 143.88 155.38 143.37 153.98 142.20 153.43 C 141.02 152.88 139.62 153.39 139.07 154.57 Z M 138.66 155.45 L 138.23 156.35 C 137.68 157.52 138.18 158.93 139.36 159.48 C 140.53 160.04 141.93 159.53 142.49 158.36 L 142.91 157.46 C 143.47 156.28 142.96 154.88 141.79 154.33 C 140.61 153.77 139.21 154.28 138.66 155.45 Z M 138.24 156.34 L 137.81 157.25 C 137.25 158.42 137.74 159.82 138.91 160.38 C 140.09 160.94 141.49 160.45 142.05 159.27 L 142.48 158.37 C 143.04 157.20 142.55 155.79 141.37 155.23 C 140.20 154.67 138.80 155.17 138.24 156.34 Z M 137.81 157.23 L 137.37 158.14 C 136.81 159.31 137.30 160.72 138.46 161.29 C 139.63 161.85 141.04 161.36 141.61 160.19 L 142.05 159.28 C 142.61 158.11 142.12 156.71 140.95 156.14 C 139.78 155.58 138.38 156.07 137.81 157.23 Z M 137.38 158.13 L 136.93 159.04 C 136.36 160.21 136.84 161.62 138.01 162.19 C 139.17 162.76 140.58 162.28 141.15 161.11 L 141.60 160.20 C 142.17 159.04 141.69 157.63 140.52 157.06 C 139.36 156.49 137.95 156.97 137.38 158.13 Z M 136.94 159.03 L 136.48 159.95 C 135.91 161.11 136.38 162.52 137.54 163.10 C 138.71 163.68 140.12 163.20 140.69 162.04 L 141.15 161.13 C 141.73 159.96 141.25 158.55 140.09 157.97 C 138.92 157.40 137.51 157.87 136.94 159.03 Z M 136.49 159.93 L 136.03 160.85 C 135.45 162.00 135.91 163.42 137.07 164.00 C 138.23 164.59 139.65 164.12 140.23 162.96 L 140.69 162.05 C 141.27 160.89 140.81 159.48 139.65 158.89 C 138.49 158.31 137.07 158.77 136.49 159.93 Z M 136.04 160.83 L 135.57 161.74 C 134.98 162.90 135.44 164.31 136.60 164.90 C 137.75 165.50 139.17 165.04 139.76 163.88 L 140.22 162.97 C 140.81 161.82 140.36 160.40 139.20 159.81 C 138.04 159.22 136.63 159.68 136.04 160.83 Z M 135.58 161.73 L 135.11 162.63 C 134.51 163.79 134.96 165.20 136.11 165.80 C 137.26 166.40 138.68 165.95 139.28 164.80 L 139.75 163.89 C 140.35 162.74 139.90 161.32 138.75 160.73 C 137.60 160.13 136.18 160.58 135.58 161.73 Z M 135.12 162.62 L 134.64 163.52 C 134.04 164.67 134.48 166.09 135.62 166.69 C 136.77 167.30 138.19 166.86 138.80 165.71 L 139.27 164.81 C 139.88 163.67 139.44 162.24 138.29 161.64 C 137.14 161.03 135.72 161.47 135.12 162.62 Z M 134.65 163.50 L 134.17 164.40 C 133.56 165.54 133.99 166.96 135.13 167.58 C 136.27 168.19 137.70 167.76 138.31 166.62 L 138.79 165.73 C 139.41 164.58 138.98 163.16 137.83 162.54 C 136.69 161.93 135.26 162.36 134.65 163.50 Z M 134.18 164.38 L 133.70 165.27 C 133.07 166.41 133.49 167.83 134.63 168.46 C 135.77 169.08 137.20 168.66 137.82 167.52 L 138.30 166.63 C 138.93 165.49 138.51 164.07 137.37 163.45 C 136.23 162.82 134.80 163.24 134.18 164.38 Z M 133.70 165.25 L 133.22 166.13 C 132.59 167.27 133.00 168.70 134.13 169.33 C 135.27 169.96 136.70 169.55 137.32 168.41 L 137.81 167.53 C 138.44 166.40 138.03 164.97 136.90 164.34 C 135.76 163.71 134.33 164.12 133.70 165.25 Z M 133.22 166.12 L 132.73 166.99 C 132.09 168.12 132.49 169.56 133.62 170.19 C 134.75 170.83 136.19 170.43 136.82 169.30 L 137.32 168.43 C 137.95 167.30 137.55 165.86 136.42 165.23 C 135.29 164.59 133.86 164.99 133.22 166.12 Z M 132.74 166.98 L 132.24 167.85 C 131.60 168.97 131.99 170.41 133.11 171.05 C 134.24 171.70 135.67 171.31 136.32 170.18 L 136.82 169.31 C 137.46 168.19 137.07 166.75 135.95 166.11 C 134.82 165.46 133.39 165.85 132.74 166.98 Z M 132.25 167.83 L 131.75 168.70 C 131.10 169.82 131.48 171.25 132.60 171.91 C 133.72 172.56 135.16 172.18 135.81 171.06 L 136.31 170.20 C 136.96 169.07 136.58 167.64 135.46 166.98 C 134.34 166.33 132.90 166.71 132.25 167.83 Z M 131.76 168.68 L 131.25 169.54 C 130.59 170.66 130.96 172.10 132.08 172.76 C 133.19 173.42 134.63 173.05 135.29 171.93 L 135.80 171.07 C 136.46 169.96 136.09 168.52 134.97 167.86 C 133.86 167.20 132.42 167.57 131.76 168.68 Z M 131.26 169.53 L 130.75 170.38 C 130.08 171.49 130.44 172.93 131.55 173.60 C 132.66 174.27 134.11 173.91 134.77 172.80 L 135.28 171.94 C 135.95 170.83 135.59 169.39 134.48 168.72 C 133.37 168.05 131.93 168.41 131.26 169.53 Z M 130.75 170.37 L 130.24 171.22 C 129.56 172.32 129.91 173.77 131.02 174.44 C 132.13 175.12 133.57 174.77 134.25 173.66 L 134.76 172.81 C 135.44 171.70 135.09 170.26 133.98 169.58 C 132.87 168.91 131.43 169.26 130.75 170.37 Z M 130.25 171.20 L 129.72 172.05 C 129.04 173.15 129.38 174.60 130.49 175.28 C 131.59 175.96 133.04 175.62 133.72 174.52 L 134.24 173.67 C 134.92 172.57 134.58 171.12 133.48 170.44 C 132.37 169.76 130.93 170.10 130.25 171.20 Z M 129.73 172.04 L 129.20 172.88 C 128.51 173.98 128.85 175.43 129.95 176.12 C 131.05 176.80 132.49 176.47 133.18 175.37 L 133.71 174.53 C 134.40 173.43 134.06 171.98 132.97 171.30 C 131.87 170.61 130.42 170.94 129.73 172.04 Z M 129.21 172.87 L 128.68 173.71 C 127.98 174.81 128.31 176.26 129.40 176.95 C 130.50 177.64 131.95 177.32 132.64 176.23 L 133.17 175.38 C 133.87 174.29 133.54 172.84 132.45 172.15 C 131.35 171.45 129.90 171.78 129.21 172.87 Z M 128.68 173.70 L 128.15 174.54 C 127.44 175.63 127.76 177.08 128.85 177.78 C 129.94 178.48 131.39 178.17 132.09 177.08 L 132.63 176.24 C 133.33 175.15 133.02 173.70 131.93 173.00 C 130.84 172.30 129.39 172.61 128.68 173.70 Z M 128.15 174.53 L 127.61 175.37 C 126.90 176.45 127.21 177.90 128.30 178.61 C 129.38 179.32 130.83 179.01 131.54 177.92 L 132.08 177.09 C 132.79 176.00 132.48 174.55 131.40 173.84 C 130.31 173.14 128.86 173.44 128.15 174.53 Z M 127.62 175.36 L 127.07 176.19 C 126.36 177.27 126.66 178.73 127.74 179.44 C 128.82 180.15 130.27 179.85 130.98 178.77 L 131.53 177.93 C 132.24 176.85 131.94 175.40 130.86 174.69 C 129.78 173.98 128.33 174.28 127.62 175.36 Z M 127.08 176.19 L 126.52 177.02 C 125.81 178.09 126.10 179.55 127.17 180.26 C 128.25 180.98 129.70 180.69 130.42 179.61 L 130.97 178.78 C 131.69 177.70 131.40 176.25 130.32 175.53 C 129.24 174.82 127.79 175.11 127.08 176.19 Z M 126.53 177.01 L 125.97 177.84 C 125.25 178.91 125.54 180.37 126.61 181.09 C 127.68 181.81 129.13 181.52 129.85 180.45 L 130.41 179.62 C 131.13 178.55 130.84 177.09 129.77 176.37 C 128.70 175.65 127.25 175.94 126.53 177.01 Z M 125.98 177.84 L 125.42 178.67 C 124.69 179.73 124.97 181.19 126.04 181.91 C 127.11 182.63 128.56 182.35 129.28 181.29 L 129.84 180.46 C 130.57 179.39 130.29 177.94 129.22 177.21 C 128.15 176.49 126.70 176.77 125.98 177.84 Z M 125.42 178.66 L 124.86 179.49 C 124.13 180.55 124.40 182.00 125.47 182.73 C 126.53 183.46 127.98 183.18 128.71 182.12 L 129.27 181.29 C 130.00 180.23 129.73 178.78 128.66 178.05 C 127.60 177.32 126.15 177.60 125.42 178.66 Z M 124.86 179.48 L 124.30 180.31 C 123.57 181.37 123.84 182.82 124.90 183.55 C 125.96 184.28 127.41 184.01 128.14 182.95 L 128.70 182.12 C 129.43 181.06 129.16 179.61 128.10 178.88 C 127.04 178.16 125.59 178.42 124.86 179.48 Z M 124.30 180.31 L 123.73 181.13 C 123.00 182.19 123.27 183.64 124.32 184.37 C 125.38 185.10 126.83 184.83 127.56 183.78 L 128.13 182.95 C 128.86 181.90 128.60 180.45 127.54 179.72 C 126.48 178.98 125.03 179.25 124.30 180.31 Z M 123.74 181.13 L 123.17 181.95 C 122.43 183.00 122.69 184.45 123.75 185.18 C 124.80 185.92 126.25 185.66 126.99 184.60 L 127.56 183.78 C 128.29 182.73 128.03 181.28 126.97 180.54 C 125.92 179.81 124.47 180.07 123.74 181.13 Z M 123.17 181.95 L 122.60 182.76 C 121.86 183.82 122.12 185.26 123.17 186.00 C 124.23 186.73 125.67 186.48 126.41 185.42 L 126.98 184.60 C 127.71 183.55 127.46 182.10 126.41 181.37 C 125.35 180.64 123.91 180.89 123.17 181.95 Z M 122.60 182.76 L 122.03 183.58 C 121.30 184.63 121.55 186.08 122.60 186.81 C 123.65 187.55 125.10 187.29 125.83 186.24 L 126.40 185.43 C 127.14 184.38 126.88 182.93 125.84 182.19 C 124.79 181.46 123.34 181.71 122.60 182.76 Z M 122.03 183.58 L 121.46 184.39 C 120.73 185.44 120.98 186.89 122.03 187.62 C 123.08 188.36 124.52 188.11 125.26 187.06 L 125.83 186.24 C 126.56 185.20 126.31 183.75 125.26 183.01 C 124.22 182.28 122.77 182.53 122.03 183.58 Z M 121.47 184.39 L 120.88 185.22 C 120.15 186.27 120.40 187.71 121.45 188.45 C 122.49 189.18 123.94 188.93 124.67 187.89 L 125.25 187.06 C 125.99 186.01 125.74 184.57 124.69 183.83 C 123.65 183.10 122.20 183.35 121.47 184.39 Z M 120.89 185.22 L 120.30 186.05 C 119.57 187.10 119.82 188.54 120.86 189.27 C 121.91 190.01 123.35 189.76 124.08 188.71 L 124.67 187.88 C 125.40 186.84 125.15 185.40 124.11 184.66 C 123.07 183.93 121.62 184.18 120.89 185.22 Z M 120.31 186.05 L 119.72 186.88 C 118.99 187.92 119.24 189.36 120.28 190.10 C 121.32 190.83 122.76 190.58 123.50 189.54 L 124.08 188.71 C 124.82 187.67 124.57 186.23 123.52 185.50 C 122.48 184.76 121.04 185.01 120.31 186.05 Z M 119.73 186.88 L 119.14 187.71 C 118.41 188.75 118.66 190.19 119.70 190.92 C 120.74 191.65 122.18 191.40 122.91 190.36 L 123.50 189.54 C 124.23 188.50 123.98 187.06 122.94 186.33 C 121.90 185.59 120.46 185.84 119.73 186.88 Z M 119.15 187.71 L 118.57 188.53 C 117.84 189.57 118.09 191.01 119.13 191.74 C 120.17 192.47 121.60 192.22 122.33 191.18 L 122.91 190.36 C 123.64 189.32 123.39 187.88 122.35 187.15 C 121.31 186.42 119.88 186.67 119.15 187.71 Z M 118.57 188.54 L 117.99 189.36 C 117.26 190.40 117.51 191.83 118.55 192.56 C 119.59 193.29 121.03 193.04 121.76 192.00 L 122.33 191.18 C 123.06 190.14 122.81 188.71 121.77 187.98 C 120.73 187.25 119.30 187.50 118.57 188.54 Z M 117.99 189.36 L 117.42 190.18 C 116.69 191.22 116.95 192.65 117.98 193.38 C 119.02 194.11 120.45 193.85 121.18 192.82 L 121.76 192.00 C 122.48 190.96 122.23 189.53 121.19 188.80 C 120.15 188.07 118.72 188.33 117.99 189.36 Z M 117.42 190.19 L 116.85 191.01 C 116.13 192.04 116.38 193.47 117.42 194.20 C 118.46 194.92 119.89 194.67 120.61 193.63 L 121.18 192.81 C 121.91 191.77 121.65 190.34 120.61 189.62 C 119.57 188.89 118.14 189.15 117.42 190.19 Z M 116.85 191.01 L 116.28 191.83 C 115.56 192.87 115.82 194.29 116.86 195.01 C 117.90 195.74 119.32 195.48 120.04 194.44 L 120.61 193.62 C 121.33 192.58 121.07 191.16 120.04 190.44 C 119.00 189.72 117.57 189.97 116.85 191.01 Z M 116.28 191.84 L 115.72 192.65 C 115.00 193.69 115.26 195.11 116.30 195.83 C 117.34 196.55 118.77 196.29 119.48 195.25 L 120.05 194.43 C 120.76 193.39 120.50 191.97 119.46 191.25 C 118.42 190.54 117.00 190.80 116.28 191.84 Z M 115.72 192.66 L 115.16 193.47 C 114.45 194.51 114.71 195.93 115.75 196.64 C 116.79 197.36 118.21 197.09 118.93 196.05 L 119.48 195.24 C 120.20 194.20 119.93 192.78 118.89 192.07 C 117.85 191.35 116.43 191.62 115.72 192.66 Z M 115.16 193.48 L 114.61 194.29 C 113.90 195.33 114.17 196.75 115.21 197.46 C 116.25 198.17 117.67 197.90 118.37 196.86 L 118.93 196.05 C 119.64 195.00 119.37 193.59 118.33 192.88 C 117.29 192.17 115.87 192.44 115.16 193.48 Z M 114.60 194.30 L 114.04 195.13 C 113.34 196.17 113.61 197.59 114.65 198.29 C 115.70 199.00 117.11 198.72 117.81 197.68 L 118.38 196.85 C 119.08 195.81 118.81 194.39 117.76 193.69 C 116.72 192.99 115.31 193.26 114.60 194.30 Z M 114.04 195.14 L 113.47 196.00 C 112.77 197.04 113.05 198.45 114.09 199.15 C 115.14 199.85 116.55 199.57 117.24 198.52 L 117.82 197.67 C 118.51 196.63 118.24 195.22 117.19 194.52 C 116.15 193.82 114.74 194.10 114.04 195.14 Z M 113.47 196.01 L 112.90 196.86 C 112.21 197.90 112.49 199.31 113.54 200.00 C 114.58 200.69 115.99 200.41 116.68 199.37 L 117.25 198.51 C 117.94 197.47 117.66 196.06 116.61 195.37 C 115.57 194.68 114.16 194.96 113.47 196.01 Z M 112.90 196.87 L 112.34 197.72 C 111.65 198.76 111.94 200.17 112.99 200.85 C 114.03 201.54 115.44 201.25 116.13 200.21 L 116.68 199.36 C 117.37 198.31 117.08 196.91 116.04 196.22 C 114.99 195.53 113.59 195.82 112.90 196.87 Z M 112.34 197.73 L 111.79 198.58 C 111.10 199.62 111.40 201.02 112.45 201.71 C 113.49 202.39 114.89 202.09 115.58 201.04 L 116.13 200.20 C 116.81 199.15 116.51 197.75 115.47 197.07 C 114.42 196.39 113.02 196.68 112.34 197.73 Z M 111.78 198.59 L 111.24 199.43 C 110.56 200.48 110.86 201.88 111.91 202.56 C 112.96 203.23 114.36 202.93 115.03 201.88 L 115.58 201.03 C 116.25 199.98 115.95 198.59 114.90 197.91 C 113.85 197.24 112.46 197.54 111.78 198.59 Z M 111.23 199.45 L 110.70 200.29 C 110.03 201.34 110.34 202.73 111.39 203.40 C 112.44 204.07 113.83 203.76 114.50 202.71 L 115.04 201.87 C 115.71 200.82 115.40 199.43 114.35 198.76 C 113.30 198.09 111.90 198.40 111.23 199.45 Z M 110.69 200.30 L 110.16 201.14 C 109.50 202.19 109.81 203.58 110.87 204.25 C 111.92 204.91 113.31 204.59 113.97 203.54 L 114.50 202.70 C 115.16 201.65 114.85 200.26 113.80 199.60 C 112.75 198.93 111.36 199.25 110.69 200.30 Z M 110.16 201.15 L 109.64 201.99 C 108.98 203.05 109.30 204.43 110.35 205.09 C 111.41 205.74 112.79 205.42 113.45 204.37 L 113.97 203.53 C 114.63 202.48 114.31 201.09 113.26 200.44 C 112.20 199.78 110.82 200.10 110.16 201.15 Z M 109.63 202.00 L 109.12 202.84 C 108.47 203.90 108.80 205.28 109.85 205.93 C 110.91 206.58 112.29 206.25 112.94 205.19 L 113.45 204.36 C 114.10 203.30 113.78 201.92 112.72 201.27 C 111.67 200.62 110.28 200.95 109.63 202.00 Z M 109.12 202.85 L 108.61 203.69 C 107.97 204.74 108.30 206.12 109.36 206.76 C 110.41 207.41 111.79 207.07 112.43 206.01 L 112.94 205.18 C 113.58 204.13 113.25 202.75 112.19 202.10 C 111.14 201.46 109.76 201.80 109.12 202.85 Z M 108.61 203.70 L 108.11 204.53 C 107.47 205.58 107.81 206.96 108.87 207.59 C 109.93 208.23 111.30 207.89 111.94 206.83 L 112.44 206.00 C 113.07 204.94 112.73 203.57 111.67 202.93 C 110.62 202.30 109.24 202.64 108.61 203.70 Z M 108.10 204.54 L 107.58 205.41 C 106.95 206.47 107.30 207.85 108.36 208.47 C 109.42 209.10 110.79 208.76 111.42 207.69 L 111.94 206.82 C 112.57 205.76 112.22 204.39 111.16 203.76 C 110.10 203.13 108.73 203.48 108.10 204.54 Z M 107.58 205.42 L 107.06 206.31 C 106.43 207.37 106.79 208.74 107.86 209.37 C 108.92 209.99 110.29 209.63 110.91 208.57 L 111.43 207.68 C 112.05 206.62 111.70 205.25 110.63 204.63 C 109.57 204.00 108.20 204.36 107.58 205.42 Z M 107.05 206.32 L 106.54 207.20 C 105.92 208.27 106.29 209.64 107.35 210.25 C 108.42 210.87 109.79 210.51 110.41 209.44 L 110.92 208.56 C 111.53 207.49 111.17 206.13 110.10 205.51 C 109.04 204.89 107.67 205.25 107.05 206.32 Z M 106.54 207.21 L 106.03 208.09 C 105.42 209.16 105.79 210.52 106.86 211.14 C 107.93 211.75 109.29 211.38 109.91 210.31 L 110.41 209.43 C 111.02 208.36 110.65 207.00 109.58 206.38 C 108.51 205.77 107.15 206.14 106.54 207.21 Z M 106.03 208.09 L 105.53 208.97 C 104.92 210.04 105.30 211.40 106.37 212.01 C 107.44 212.62 108.81 212.25 109.42 211.18 L 109.91 210.30 C 110.52 209.23 110.15 207.87 109.07 207.26 C 108.00 206.65 106.64 207.02 106.03 208.09 Z M 105.53 208.97 L 105.04 209.84 C 104.43 210.92 104.81 212.28 105.89 212.89 C 106.96 213.49 108.32 213.11 108.93 212.04 L 109.42 211.17 C 110.02 210.10 109.65 208.73 108.57 208.13 C 107.50 207.52 106.14 207.90 105.53 208.97 Z M 105.04 209.85 L 104.55 210.71 C 103.95 211.79 104.33 213.15 105.40 213.75 C 106.48 214.36 107.84 213.97 108.44 212.90 L 108.93 212.03 C 109.53 210.96 109.15 209.60 108.08 208.99 C 107.00 208.39 105.64 208.77 105.04 209.85 Z M 104.55 210.72 L 104.07 211.58 C 103.46 212.65 103.85 214.01 104.92 214.62 C 106.00 215.22 107.36 214.83 107.96 213.76 L 108.45 212.90 C 109.05 211.82 108.66 210.46 107.59 209.86 C 106.51 209.26 105.15 209.64 104.55 210.72 Z M 104.07 211.58 L 103.59 212.44 C 102.98 213.51 103.37 214.87 104.45 215.47 C 105.52 216.08 106.88 215.69 107.48 214.61 L 107.96 213.76 C 108.57 212.68 108.18 211.32 107.10 210.72 C 106.03 210.12 104.67 210.50 104.07 211.58 Z M 103.59 212.44 L 103.11 213.29 C 102.51 214.37 102.89 215.73 103.97 216.33 C 105.05 216.93 106.41 216.55 107.01 215.47 L 107.48 214.61 C 108.09 213.54 107.70 212.18 106.63 211.58 C 105.55 210.97 104.19 211.36 103.59 212.44 Z M 103.11 213.29 L 102.63 214.14 C 102.03 215.21 102.41 216.58 103.49 217.18 C 104.57 217.78 105.93 217.40 106.53 216.32 L 107.01 215.47 C 107.61 214.39 107.23 213.03 106.15 212.43 C 105.07 211.83 103.71 212.21 103.11 213.29 Z M 102.64 214.14 L 102.11 215.06 C 101.51 216.14 101.89 217.50 102.97 218.10 C 104.04 218.71 105.40 218.33 106.01 217.25 L 106.53 216.32 C 107.13 215.25 106.75 213.89 105.68 213.28 C 104.60 212.68 103.24 213.06 102.64 214.14 Z M 102.12 215.06 L 101.59 215.98 C 100.99 217.06 101.37 218.42 102.44 219.02 C 103.51 219.63 104.87 219.25 105.48 218.18 L 106.00 217.26 C 106.61 216.18 106.23 214.82 105.16 214.21 C 104.09 213.61 102.73 213.99 102.12 215.06 Z M 101.60 215.98 L 101.08 216.89 C 100.47 217.96 100.84 219.32 101.91 219.93 C 102.98 220.54 104.34 220.17 104.95 219.10 L 105.47 218.19 C 106.08 217.12 105.71 215.75 104.64 215.14 C 103.57 214.53 102.21 214.91 101.60 215.98 Z M 101.08 216.88 L 100.56 217.78 C 99.95 218.85 100.32 220.22 101.38 220.83 C 102.45 221.44 103.81 221.08 104.43 220.01 L 104.95 219.11 C 105.56 218.04 105.20 216.68 104.13 216.06 C 103.06 215.45 101.70 215.82 101.08 216.88 Z M 100.57 217.78 L 100.06 218.66 C 99.44 219.72 99.80 221.09 100.86 221.71 C 101.92 222.33 103.29 221.97 103.91 220.90 L 104.42 220.02 C 105.04 218.96 104.68 217.59 103.62 216.97 C 102.56 216.35 101.19 216.71 100.57 217.78 Z M 100.06 218.65 L 99.55 219.51 C 98.93 220.57 99.28 221.94 100.34 222.56 C 101.40 223.19 102.76 222.84 103.39 221.78 L 103.90 220.91 C 104.53 219.86 104.18 218.49 103.12 217.86 C 102.06 217.24 100.69 217.59 100.06 218.65 Z M 99.56 219.50 L 99.06 220.34 C 98.42 221.39 98.77 222.76 99.82 223.39 C 100.87 224.03 102.24 223.68 102.88 222.63 L 103.38 221.79 C 104.01 220.74 103.67 219.37 102.62 218.73 C 101.56 218.10 100.20 218.44 99.56 219.50 Z M 99.07 220.32 L 98.57 221.13 C 97.93 222.18 98.26 223.55 99.31 224.19 C 100.35 224.84 101.73 224.51 102.37 223.46 L 102.87 222.65 C 103.51 221.60 103.18 220.23 102.13 219.58 C 101.08 218.94 99.71 219.27 99.07 220.32 Z M 98.58 221.11 L 98.09 221.89 C 97.44 222.93 97.76 224.31 98.80 224.96 C 99.84 225.61 101.21 225.30 101.87 224.26 L 102.36 223.48 C 103.01 222.44 102.69 221.06 101.65 220.41 C 100.61 219.76 99.24 220.07 98.58 221.11 Z M 98.11 221.87 L 97.61 222.64 C 96.95 223.68 97.25 225.05 98.28 225.72 C 99.31 226.38 100.69 226.09 101.35 225.05 L 101.85 224.28 C 102.52 223.25 102.22 221.87 101.19 221.21 C 100.15 220.54 98.78 220.84 98.11 221.87 Z M 97.63 222.61 L 97.00 223.56 C 96.32 224.58 96.60 225.96 97.62 226.64 C 98.64 227.32 100.02 227.05 100.70 226.03 L 101.33 225.08 C 102.01 224.06 101.74 222.68 100.72 222.00 C 99.70 221.32 98.32 221.59 97.63 222.61 Z M 97.03 223.52 L 96.41 224.41 C 95.71 225.41 95.96 226.80 96.97 227.50 C 97.97 228.20 99.36 227.95 100.06 226.95 L 100.68 226.06 C 101.38 225.05 101.13 223.67 100.12 222.97 C 99.12 222.27 97.73 222.52 97.03 223.52 Z M 96.44 224.37 L 95.84 225.20 C 95.12 226.19 95.33 227.58 96.33 228.30 C 97.32 229.02 98.70 228.80 99.42 227.81 L 100.03 226.98 C 100.75 225.99 100.53 224.60 99.54 223.88 C 98.55 223.16 97.16 223.38 96.44 224.37 Z M 95.87 225.17 L 95.27 225.95 C 94.53 226.92 94.72 228.31 95.69 229.06 C 96.67 229.80 98.06 229.61 98.80 228.64 L 99.39 227.85 C 100.14 226.88 99.95 225.49 98.97 224.74 C 98.00 224.00 96.61 224.19 95.87 225.17 Z M 95.30 225.91 L 94.71 226.66 C 93.95 227.62 94.10 229.01 95.06 229.77 C 96.02 230.53 97.41 230.37 98.17 229.42 L 98.77 228.67 C 99.53 227.71 99.37 226.32 98.41 225.56 C 97.46 224.80 96.06 224.96 95.30 225.91 Z M 94.74 226.62 L 94.15 227.33 C 93.37 228.27 93.50 229.67 94.44 230.45 C 95.38 231.23 96.77 231.10 97.55 230.16 L 98.14 229.45 C 98.92 228.51 98.79 227.12 97.86 226.34 C 96.92 225.55 95.52 225.68 94.74 226.62 Z M 94.18 227.30 L 93.59 227.98 C 92.79 228.91 92.89 230.30 93.81 231.10 C 94.73 231.90 96.13 231.80 96.93 230.88 L 97.52 230.20 C 98.32 229.27 98.22 227.88 97.30 227.08 C 96.37 226.28 94.98 226.38 94.18 227.30 Z M 93.62 227.95 L 92.95 228.70 C 92.13 229.60 92.20 231.00 93.11 231.82 C 94.01 232.63 95.41 232.56 96.22 231.66 L 96.90 230.91 C 97.71 230.01 97.64 228.61 96.74 227.79 C 95.83 226.98 94.44 227.05 93.62 227.95 Z M 92.98 228.66 L 92.28 229.41 C 91.44 230.29 91.48 231.69 92.37 232.52 C 93.25 233.36 94.65 233.32 95.48 232.44 L 96.19 231.69 C 97.02 230.81 96.98 229.41 96.10 228.58 C 95.21 227.74 93.82 227.78 92.98 228.66 Z M 92.32 229.37 L 91.61 230.09 C 90.75 230.95 90.76 232.35 91.62 233.20 C 92.48 234.06 93.87 234.05 94.73 233.19 L 95.44 232.47 C 96.30 231.61 96.29 230.22 95.43 229.36 C 94.57 228.51 93.17 228.51 92.32 229.37 Z M 91.65 230.06 L 90.93 230.74 C 90.05 231.58 90.02 232.97 90.86 233.85 C 91.70 234.72 93.09 234.75 93.97 233.92 L 94.69 233.23 C 95.56 232.39 95.59 231.00 94.75 230.12 C 93.92 229.25 92.53 229.22 91.65 230.06 Z M 90.98 230.71 L 90.25 231.37 C 89.35 232.18 89.28 233.56 90.10 234.46 C 90.91 235.36 92.29 235.43 93.19 234.61 L 93.92 233.95 C 94.82 233.14 94.88 231.76 94.07 230.86 C 93.26 229.96 91.87 229.89 90.98 230.71 Z M 90.30 231.33 L 89.56 231.96 C 88.64 232.74 88.53 234.12 89.32 235.04 C 90.10 235.96 91.48 236.07 92.40 235.28 L 93.14 234.65 C 94.06 233.87 94.16 232.49 93.38 231.57 C 92.60 230.65 91.22 230.54 90.30 231.33 Z M 89.61 231.92 L 88.84 232.55 C 87.90 233.30 87.75 234.67 88.50 235.61 C 89.25 236.55 90.63 236.70 91.57 235.95 L 92.35 235.32 C 93.29 234.57 93.44 233.20 92.68 232.26 C 91.93 231.32 90.55 231.17 89.61 231.92 Z M 88.89 232.51 L 88.07 233.13 C 87.11 233.85 86.92 235.21 87.64 236.17 C 88.36 237.13 89.73 237.32 90.69 236.60 L 91.51 235.99 C 92.47 235.26 92.66 233.90 91.94 232.94 C 91.22 231.98 89.85 231.79 88.89 232.51 Z M 88.13 233.10 L 87.30 233.68 C 86.32 234.37 86.09 235.72 86.78 236.70 C 87.47 237.68 88.82 237.91 89.80 237.22 L 90.63 236.63 C 91.61 235.94 91.84 234.59 91.15 233.61 C 90.46 232.64 89.11 232.40 88.13 233.10 Z M 87.35 233.65 L 86.52 234.21 C 85.53 234.87 85.26 236.21 85.92 237.20 C 86.58 238.20 87.92 238.46 88.92 237.80 L 89.75 237.25 C 90.74 236.58 91.01 235.24 90.35 234.25 C 89.69 233.26 88.34 232.99 87.35 233.65 Z M 86.57 234.19 L 85.74 234.71 C 84.73 235.35 84.43 236.68 85.07 237.68 C 85.70 238.69 87.03 238.98 88.04 238.35 L 88.87 237.82 C 89.87 237.19 90.17 235.86 89.54 234.85 C 88.90 233.85 87.57 233.55 86.57 234.19 Z M 85.78 234.70 L 84.95 235.20 C 83.94 235.81 83.61 237.13 84.22 238.14 C 84.84 239.15 86.15 239.48 87.17 238.87 L 87.99 238.37 C 89.01 237.76 89.33 236.44 88.72 235.42 C 88.11 234.41 86.79 234.08 85.78 234.70 Z M 84.99 235.18 L 84.10 235.70 C 83.08 236.29 82.73 237.59 83.32 238.62 C 83.91 239.64 85.21 239.99 86.23 239.40 L 87.13 238.88 C 88.15 238.29 88.50 236.98 87.91 235.96 C 87.32 234.94 86.01 234.59 84.99 235.18 Z M 84.14 235.69 L 83.23 236.19 C 82.20 236.76 81.83 238.05 82.39 239.08 C 82.96 240.11 84.25 240.48 85.28 239.91 L 86.19 239.41 C 87.22 238.84 87.59 237.55 87.03 236.52 C 86.46 235.49 85.17 235.12 84.14 235.69 Z M 83.27 236.18 L 82.37 236.65 C 81.34 237.20 80.94 238.47 81.48 239.51 C 82.03 240.54 83.31 240.94 84.34 240.40 L 85.24 239.92 C 86.27 239.38 86.67 238.10 86.13 237.07 C 85.58 236.03 84.30 235.64 83.27 236.18 Z M 82.42 236.64 L 81.54 237.08 C 80.50 237.60 80.07 238.86 80.59 239.90 C 81.11 240.94 82.38 241.37 83.42 240.85 L 84.30 240.41 C 85.34 239.89 85.76 238.62 85.24 237.58 C 84.72 236.54 83.46 236.12 82.42 236.64 Z M 81.58 237.07 L 80.72 237.47 C 79.68 237.97 79.23 239.22 79.72 240.26 C 80.22 241.31 81.47 241.76 82.51 241.26 L 83.37 240.86 C 84.42 240.36 84.86 239.11 84.37 238.07 C 83.88 237.02 82.63 236.57 81.58 237.07 Z M 80.77 237.46 L 79.85 237.87 C 78.80 238.34 78.33 239.57 78.79 240.62 C 79.26 241.67 80.49 242.15 81.54 241.68 L 82.46 241.27 C 83.51 240.81 83.99 239.58 83.52 238.52 C 83.06 237.47 81.83 237.00 80.77 237.46 Z M 79.91 237.86 L 78.95 238.25 C 77.90 238.69 77.39 239.90 77.83 240.96 C 78.26 242.01 79.47 242.52 80.53 242.08 L 81.49 241.69 C 82.54 241.26 83.05 240.05 82.61 238.99 C 82.18 237.93 80.97 237.43 79.91 237.86 Z M 79.01 238.25 L 78.08 238.60 C 77.02 239.00 76.48 240.19 76.89 241.26 C 77.29 242.32 78.48 242.85 79.54 242.45 L 80.47 242.09 C 81.54 241.69 82.07 240.50 81.66 239.44 C 81.26 238.38 80.07 237.84 79.01 238.25 Z M 78.13 238.60 L 77.22 238.92 C 76.15 239.29 75.59 240.46 75.97 241.53 C 76.34 242.59 77.51 243.15 78.58 242.77 L 79.49 242.45 C 80.55 242.08 81.11 240.91 80.74 239.84 C 80.36 238.78 79.20 238.22 78.13 238.60 Z M 77.26 238.92 L 76.35 239.22 C 75.29 239.56 74.71 240.71 75.06 241.78 C 75.41 242.84 76.56 243.42 77.62 243.07 L 78.53 242.77 C 79.60 242.43 80.18 241.28 79.83 240.21 C 79.48 239.15 78.33 238.57 77.26 238.92 Z M 76.41 239.22 L 75.47 239.50 C 74.41 239.82 73.80 240.94 74.12 242.01 C 74.44 243.07 75.57 243.67 76.63 243.35 L 77.57 243.07 C 78.63 242.75 79.24 241.63 78.92 240.56 C 78.59 239.50 77.47 238.90 76.41 239.22 Z M 75.55 239.50 L 74.60 239.74 C 73.54 240.02 72.90 241.10 73.17 242.17 C 73.45 243.24 74.53 243.88 75.60 243.60 L 76.55 243.36 C 77.62 243.08 78.26 241.99 77.98 240.93 C 77.71 239.86 76.62 239.22 75.55 239.50 Z M 74.71 239.74 L 73.73 239.94 C 72.66 240.15 71.97 241.19 72.18 242.26 C 72.40 243.33 73.44 244.02 74.51 243.81 L 75.49 243.61 C 76.56 243.39 77.25 242.35 77.04 241.28 C 76.82 240.21 75.78 239.52 74.71 239.74 Z M 73.85 239.93 L 72.82 240.07 C 71.75 240.22 71.00 241.20 71.15 242.27 C 71.29 243.34 72.28 244.09 73.35 243.95 L 74.38 243.81 C 75.45 243.66 76.20 242.68 76.05 241.61 C 75.91 240.54 74.92 239.79 73.85 239.93 Z M 72.97 240.08 L 71.93 240.14 C 70.86 240.21 70.05 241.13 70.12 242.19 C 70.18 243.26 71.10 244.07 72.17 244.01 L 73.20 243.94 C 74.27 243.88 75.08 242.96 75.02 241.89 C 74.95 240.83 74.03 240.01 72.97 240.08 Z M 72.13 240.16 L 71.09 240.12 C 70.04 240.07 69.14 240.89 69.10 241.95 C 69.06 243.01 69.88 243.90 70.93 243.95 L 71.97 243.99 C 73.03 244.03 73.92 243.21 73.96 242.15 C 74.01 241.10 73.19 240.20 72.13 240.16 Z M 71.38 240.17 L 70.41 239.98 C 69.38 239.77 68.38 240.44 68.18 241.47 C 67.98 242.50 68.64 243.50 69.67 243.70 L 70.65 243.89 C 71.67 244.09 72.67 243.43 72.88 242.40 C 73.08 241.37 72.41 240.37 71.38 240.17 Z M 70.81 240.13 L 69.96 239.74 C 69.01 239.32 67.90 239.74 67.48 240.68 C 67.05 241.63 67.47 242.74 68.41 243.16 L 69.27 243.55 C 70.21 243.98 71.32 243.56 71.75 242.61 C 72.18 241.67 71.76 240.55 70.81 240.13 Z M 70.42 240.08 L 69.76 239.49 C 69.00 238.81 67.83 238.87 67.15 239.63 C 66.47 240.39 66.54 241.55 67.29 242.23 L 67.95 242.83 C 68.71 243.51 69.88 243.44 70.56 242.69 C 71.24 241.93 71.18 240.76 70.42 240.08 Z M 70.04 239.90 L 69.55 239.12 C 69.02 238.28 67.91 238.04 67.07 238.57 C 66.24 239.10 65.99 240.21 66.52 241.05 L 67.01 241.82 C 67.54 242.66 68.65 242.91 69.49 242.38 C 70.33 241.85 70.57 240.74 70.04 239.90 Z M 69.64 239.42 L 69.27 238.50 C 68.90 237.62 67.89 237.19 67.00 237.55 C 66.11 237.92 65.68 238.93 66.05 239.82 L 66.42 240.74 C 66.79 241.63 67.80 242.06 68.69 241.69 C 69.58 241.33 70.01 240.31 69.64 239.42 Z M 69.27 238.69 L 68.97 237.67 C 68.71 236.78 67.77 236.27 66.88 236.54 C 65.99 236.80 65.48 237.74 65.74 238.63 L 66.04 239.64 C 66.31 240.53 67.24 241.04 68.14 240.78 C 69.03 240.51 69.54 239.58 69.27 238.69 Z M 68.94 237.75 L 68.69 236.78 C 68.48 235.91 67.59 235.38 66.72 235.60 C 65.85 235.81 65.31 236.70 65.53 237.57 L 65.78 238.54 C 65.99 239.42 66.88 239.95 67.75 239.73 C 68.62 239.51 69.16 238.63 68.94 237.75 Z"
      fill="black"
      fill-rule="nonzero" /><path d="M 147.48 138.09 L 147.48 139.16 C 147.48 140.15 148.28 140.94 149.27 140.94 C 150.25 140.94 151.05 140.15 151.05 139.16 L 151.05 138.09 C 151.05 137.11 150.25 136.31 149.27 136.31 C 148.28 136.31 147.48 137.11 147.48 138.09 Z M 147.48 139.16 L 147.48 140.21 C 147.48 141.20 148.28 142.00 149.27 142.00 C 150.25 142.00 151.05 141.20 151.05 140.21 L 151.05 139.16 C 151.05 138.18 150.25 137.38 149.27 137.38 C 148.28 137.38 147.48 138.18 147.48 139.16 Z M 147.48 140.21 L 147.48 141.23 C 147.48 142.21 148.28 143.01 149.27 143.01 C 150.25 143.01 151.05 142.21 151.05 141.23 L 151.05 140.21 C 151.05 139.23 150.25 138.43 149.27 138.43 C 148.28 138.43 147.48 139.23 147.48 140.21 Z M 147.48 141.23 L 147.48 142.18 C 147.48 143.17 148.28 143.97 149.27 143.97 C 150.25 143.97 151.05 143.17 151.05 142.18 L 151.05 141.23 C 151.05 140.24 150.25 139.44 149.27 139.44 C 148.28 139.44 147.48 140.24 147.48 141.23 Z M 147.48 142.18 L 147.48 143.12 C 147.48 144.11 148.28 144.91 149.27 144.91 C 150.25 144.91 151.06 144.11 151.06 143.12 L 151.06 142.18 C 151.06 141.19 150.25 140.39 149.27 140.39 C 148.28 140.39 147.48 141.19 147.48 142.18 Z M 147.46 143.12 L 147.46 144.20 C 147.46 145.20 148.27 146.01 149.27 146.01 C 150.26 146.01 151.07 145.20 151.07 144.20 L 151.07 143.12 C 151.07 142.13 150.26 141.32 149.27 141.32 C 148.27 141.32 147.46 142.13 147.46 143.12 Z M 147.43 144.20 L 147.43 145.18 C 147.43 146.19 148.25 147.01 149.27 147.01 C 150.28 147.01 151.10 146.19 151.10 145.18 L 151.10 144.20 C 151.10 143.19 150.28 142.37 149.27 142.37 C 148.25 142.37 147.43 143.19 147.43 144.20 Z M 147.40 145.18 L 147.40 146.11 C 147.40 147.14 148.24 147.97 149.27 147.97 C 150.29 147.97 151.13 147.14 151.13 146.11 L 151.13 145.18 C 151.13 144.15 150.29 143.32 149.27 143.32 C 148.24 143.32 147.40 144.15 147.40 145.18 Z M 147.38 146.11 L 147.38 147.05 C 147.38 148.09 148.23 148.93 149.27 148.93 C 150.31 148.93 151.15 148.08 151.15 147.04 L 151.15 146.11 C 151.15 145.07 150.31 144.22 149.27 144.22 C 148.22 144.23 147.38 145.07 147.38 146.11 Z M 147.37 147.06 L 147.38 148.03 C 147.39 149.08 148.25 149.93 149.30 149.91 C 150.35 149.90 151.19 149.05 151.18 148.00 L 151.17 147.03 C 151.16 145.98 150.30 145.13 149.25 145.15 C 148.20 145.16 147.36 146.01 147.37 147.06 Z M 147.37 148.07 L 147.40 149.09 C 147.43 150.15 148.31 150.98 149.37 150.95 C 150.42 150.91 151.25 150.03 151.22 148.98 L 151.19 147.96 C 151.16 146.90 150.27 146.07 149.22 146.10 C 148.16 146.14 147.33 147.02 147.37 148.07 Z M 147.39 149.15 L 147.45 150.18 C 147.51 151.24 148.42 152.05 149.48 151.99 C 150.54 151.92 151.35 151.01 151.29 149.95 L 151.23 148.92 C 151.17 147.86 150.26 147.05 149.19 147.11 C 148.13 147.18 147.32 148.09 147.39 149.15 Z M 147.44 150.24 L 147.53 151.16 C 147.62 152.23 148.56 153.01 149.63 152.92 C 150.69 152.82 151.48 151.88 151.38 150.82 L 151.30 149.89 C 151.20 148.83 150.26 148.04 149.20 148.14 C 148.13 148.23 147.35 149.17 147.44 150.24 Z M 147.52 151.22 L 147.64 152.19 C 147.77 153.26 148.73 154.02 149.80 153.89 C 150.87 153.76 151.63 152.79 151.50 151.73 L 151.38 150.76 C 151.25 149.69 150.29 148.93 149.22 149.06 C 148.16 149.19 147.40 150.16 147.52 151.22 Z M 147.64 152.25 L 147.79 153.27 C 147.95 154.33 148.94 155.07 150.01 154.91 C 151.08 154.75 151.81 153.75 151.65 152.69 L 151.50 151.67 C 151.34 150.61 150.35 149.87 149.28 150.03 C 148.21 150.19 147.48 151.18 147.64 152.25 Z M 147.79 153.32 L 147.98 154.39 C 148.18 155.45 149.19 156.16 150.26 155.97 C 151.32 155.78 152.03 154.76 151.84 153.69 L 151.65 152.63 C 151.46 151.56 150.44 150.86 149.37 151.05 C 148.31 151.24 147.60 152.26 147.79 153.32 Z M 147.99 154.44 L 148.17 155.35 C 148.39 156.41 149.43 157.09 150.50 156.87 C 151.56 156.65 152.25 155.61 152.03 154.55 L 151.84 153.64 C 151.62 152.58 150.58 151.90 149.51 152.11 C 148.45 152.33 147.77 153.38 147.99 154.44 Z M 148.18 155.38 L 148.39 156.31 C 148.63 157.37 149.68 158.04 150.75 157.80 C 151.81 157.56 152.47 156.50 152.23 155.44 L 152.02 154.51 C 151.78 153.45 150.73 152.78 149.66 153.02 C 148.60 153.26 147.94 154.32 148.18 155.38 Z M 148.39 156.34 L 148.62 157.30 C 148.88 158.36 149.95 159.01 151.01 158.76 C 152.07 158.50 152.72 157.43 152.47 156.37 L 152.23 155.41 C 151.98 154.34 150.91 153.69 149.84 153.95 C 148.78 154.21 148.13 155.28 148.39 156.34 Z M 148.62 157.32 L 148.87 158.32 C 149.14 159.38 150.22 160.02 151.28 159.76 C 152.34 159.49 152.99 158.41 152.72 157.34 L 152.47 156.35 C 152.20 155.28 151.12 154.64 150.06 154.91 C 148.99 155.18 148.35 156.26 148.62 157.32 Z M 148.87 158.33 L 149.14 159.37 C 149.41 160.43 150.50 161.07 151.57 160.80 C 152.63 160.52 153.27 159.43 152.99 158.37 L 152.72 157.33 C 152.44 156.27 151.36 155.63 150.29 155.90 C 149.23 156.18 148.59 157.27 148.87 158.33 Z M 149.13 159.38 L 149.39 160.35 C 149.67 161.41 150.77 162.05 151.83 161.77 C 152.90 161.49 153.53 160.39 153.25 159.33 L 153.00 158.36 C 152.71 157.29 151.62 156.66 150.55 156.94 C 149.49 157.22 148.85 158.31 149.13 159.38 Z M 149.39 160.36 L 149.64 161.27 C 149.92 162.34 151.02 162.97 152.08 162.69 C 153.15 162.40 153.78 161.31 153.50 160.24 L 153.25 159.32 C 152.97 158.25 151.87 157.62 150.80 157.91 C 149.74 158.19 149.10 159.29 149.39 160.36 Z M 149.64 161.28 L 149.89 162.23 C 150.18 163.29 151.29 163.92 152.35 163.63 C 153.42 163.34 154.05 162.24 153.76 161.17 L 153.50 160.23 C 153.21 159.16 152.11 158.54 151.04 158.83 C 149.97 159.12 149.35 160.22 149.64 161.28 Z M 149.90 162.24 L 150.16 163.20 C 150.46 164.27 151.57 164.89 152.63 164.59 C 153.70 164.30 154.32 163.19 154.02 162.13 L 153.75 161.16 C 153.46 160.10 152.35 159.47 151.29 159.77 C 150.22 160.07 149.60 161.17 149.90 162.24 Z M 150.17 163.22 L 150.45 164.20 C 150.75 165.26 151.87 165.88 152.93 165.57 C 153.99 165.27 154.61 164.16 154.30 163.09 L 154.02 162.11 C 153.72 161.05 152.60 160.43 151.54 160.74 C 150.48 161.04 149.86 162.15 150.17 163.22 Z M 150.45 164.22 L 150.75 165.21 C 151.06 166.28 152.18 166.88 153.24 166.57 C 154.31 166.25 154.91 165.13 154.60 164.07 L 154.30 163.07 C 153.98 162.01 152.87 161.41 151.80 161.72 C 150.74 162.04 150.14 163.16 150.45 164.22 Z M 150.75 165.24 L 151.06 166.23 C 151.39 167.29 152.51 167.89 153.57 167.56 C 154.63 167.23 155.23 166.11 154.90 165.05 L 154.59 164.05 C 154.27 162.99 153.14 162.40 152.08 162.72 C 151.02 163.05 150.43 164.17 150.75 165.24 Z M 151.07 166.25 L 151.36 167.16 C 151.70 168.22 152.83 168.80 153.88 168.46 C 154.94 168.13 155.52 167.00 155.18 165.94 L 154.89 165.03 C 154.55 163.97 153.42 163.39 152.37 163.73 C 151.31 164.07 150.73 165.20 151.07 166.25 Z M 151.37 167.18 L 151.67 168.10 C 152.02 169.15 153.16 169.72 154.21 169.38 C 155.26 169.03 155.83 167.89 155.48 166.84 L 155.18 165.92 C 154.83 164.87 153.69 164.30 152.64 164.65 C 151.59 165.00 151.02 166.13 151.37 167.18 Z M 151.68 168.12 L 152.00 169.05 C 152.36 170.10 153.50 170.65 154.54 170.30 C 155.59 169.94 156.15 168.80 155.79 167.75 L 155.47 166.82 C 155.11 165.78 153.97 165.22 152.93 165.58 C 151.88 165.93 151.32 167.07 151.68 168.12 Z M 152.01 169.07 L 152.34 170.01 C 152.71 171.05 153.85 171.60 154.89 171.23 C 155.93 170.86 156.48 169.72 156.11 168.68 L 155.78 167.74 C 155.41 166.69 154.27 166.15 153.23 166.51 C 152.19 166.88 151.64 168.02 152.01 169.07 Z M 152.35 170.02 L 152.69 170.98 C 153.07 172.01 154.22 172.55 155.25 172.17 C 156.29 171.80 156.83 170.65 156.45 169.61 L 156.10 168.66 C 155.73 167.62 154.58 167.09 153.54 167.46 C 152.51 167.84 151.97 168.99 152.35 170.02 Z M 152.70 170.99 L 153.06 171.96 C 153.45 172.99 154.60 173.51 155.63 173.13 C 156.66 172.74 157.19 171.59 156.80 170.56 L 156.44 169.60 C 156.06 168.56 154.91 168.04 153.87 168.43 C 152.84 168.81 152.32 169.96 152.70 170.99 Z M 153.07 171.97 L 153.45 172.95 C 153.84 173.98 154.99 174.49 156.02 174.10 C 157.05 173.71 157.56 172.55 157.17 171.53 L 156.79 170.55 C 156.40 169.52 155.25 169.01 154.22 169.40 C 153.19 169.79 152.68 170.94 153.07 171.97 Z M 153.45 172.97 L 153.82 173.89 C 154.22 174.92 155.37 175.42 156.40 175.02 C 157.42 174.62 157.93 173.46 157.52 172.44 L 157.16 171.51 C 156.76 170.49 155.60 169.98 154.58 170.39 C 153.56 170.79 153.05 171.94 153.45 172.97 Z M 153.82 173.91 L 154.20 174.84 C 154.61 175.86 155.77 176.35 156.79 175.94 C 157.81 175.53 158.30 174.37 157.89 173.35 L 157.52 172.42 C 157.11 171.40 155.95 170.91 154.93 171.32 C 153.91 171.73 153.41 172.89 153.82 173.91 Z M 154.20 174.85 L 154.59 175.78 C 155.01 176.80 156.17 177.28 157.19 176.87 C 158.20 176.45 158.69 175.28 158.27 174.27 L 157.88 173.34 C 157.46 172.32 156.30 171.84 155.29 172.25 C 154.27 172.67 153.79 173.84 154.20 174.85 Z M 154.60 175.80 L 154.99 176.73 C 155.42 177.74 156.59 178.22 157.60 177.79 C 158.61 177.36 159.08 176.19 158.65 175.18 L 158.26 174.25 C 157.83 173.24 156.66 172.77 155.65 173.19 C 154.64 173.62 154.17 174.79 154.60 175.80 Z M 155.00 176.75 L 155.40 177.68 C 155.84 178.69 157.02 179.15 158.02 178.71 C 159.03 178.27 159.49 177.09 159.05 176.09 L 158.65 175.16 C 158.21 174.15 157.03 173.69 156.03 174.13 C 155.02 174.57 154.56 175.75 155.00 176.75 Z M 155.41 177.70 L 155.83 178.62 C 156.28 179.62 157.46 180.06 158.46 179.61 C 159.46 179.16 159.91 177.98 159.45 176.98 L 159.04 176.06 C 158.59 175.06 157.41 174.62 156.41 175.07 C 155.41 175.52 154.96 176.70 155.41 177.70 Z M 155.84 178.64 L 156.26 179.54 C 156.73 180.54 157.91 180.97 158.90 180.50 C 159.90 180.03 160.33 178.85 159.86 177.86 L 159.44 176.96 C 158.98 175.96 157.79 175.53 156.80 176.00 C 155.80 176.46 155.37 177.65 155.84 178.64 Z M 156.27 179.57 L 156.71 180.45 C 157.19 181.44 158.38 181.85 159.36 181.37 C 160.35 180.89 160.76 179.70 160.28 178.72 L 159.85 177.83 C 159.37 176.84 158.18 176.43 157.19 176.91 C 156.21 177.39 155.79 178.58 156.27 179.57 Z M 156.72 180.49 L 157.19 181.40 C 157.68 182.38 158.88 182.77 159.86 182.28 C 160.84 181.78 161.23 180.58 160.73 179.60 L 160.27 178.69 C 159.77 177.71 158.57 177.32 157.59 177.81 C 156.61 178.31 156.22 179.51 156.72 180.49 Z M 157.20 181.43 L 157.68 182.33 C 158.19 183.30 159.40 183.67 160.37 183.15 C 161.33 182.64 161.70 181.44 161.19 180.47 L 160.71 179.57 C 160.20 178.60 159.00 178.23 158.03 178.75 C 157.06 179.26 156.69 180.47 157.20 181.43 Z M 157.70 182.36 L 158.18 183.23 C 158.71 184.19 159.92 184.54 160.88 184.01 C 161.84 183.48 162.19 182.27 161.66 181.31 L 161.17 180.44 C 160.64 179.48 159.43 179.13 158.47 179.66 C 157.51 180.19 157.17 181.40 157.70 182.36 Z M 158.20 183.26 L 158.69 184.12 C 159.24 185.07 160.45 185.40 161.40 184.85 C 162.35 184.31 162.68 183.09 162.13 182.14 L 161.64 181.28 C 161.09 180.33 159.88 180.01 158.93 180.55 C 157.98 181.10 157.65 182.31 158.20 183.26 Z M 158.71 184.15 L 159.22 185.00 C 159.78 185.94 161.00 186.25 161.94 185.68 C 162.88 185.12 163.19 183.90 162.62 182.96 L 162.12 182.11 C 161.55 181.17 160.34 180.87 159.40 181.43 C 158.45 181.99 158.15 183.21 158.71 184.15 Z M 159.23 185.02 L 159.75 185.86 C 160.33 186.79 161.55 187.08 162.48 186.51 C 163.42 185.93 163.70 184.71 163.13 183.77 L 162.61 182.94 C 162.03 182.00 160.81 181.72 159.88 182.29 C 158.94 182.87 158.66 184.09 159.23 185.02 Z M 159.77 185.89 L 160.30 186.72 C 160.89 187.64 162.12 187.91 163.04 187.32 C 163.96 186.74 164.23 185.51 163.64 184.59 L 163.11 183.75 C 162.52 182.83 161.30 182.56 160.37 183.15 C 159.45 183.74 159.18 184.96 159.77 185.89 Z M 160.32 186.74 L 160.85 187.56 C 161.46 188.48 162.68 188.73 163.60 188.13 C 164.51 187.53 164.77 186.30 164.17 185.38 L 163.63 184.57 C 163.03 183.65 161.80 183.40 160.88 184.00 C 159.97 184.60 159.71 185.83 160.32 186.74 Z M 160.87 187.58 L 161.42 188.40 C 162.03 189.30 163.26 189.54 164.17 188.93 C 165.07 188.32 165.31 187.09 164.70 186.18 L 164.15 185.37 C 163.54 184.46 162.31 184.22 161.40 184.83 C 160.50 185.44 160.26 186.67 160.87 187.58 Z M 161.43 188.41 L 162.00 189.23 C 162.62 190.13 163.85 190.35 164.75 189.73 C 165.65 189.11 165.87 187.88 165.25 186.98 L 164.69 186.16 C 164.07 185.26 162.83 185.04 161.94 185.66 C 161.04 186.28 160.81 187.51 161.43 188.41 Z M 162.01 189.25 L 162.59 190.06 C 163.22 190.95 164.45 191.16 165.34 190.53 C 166.23 189.90 166.44 188.66 165.81 187.77 L 165.24 186.96 C 164.61 186.07 163.37 185.86 162.48 186.49 C 161.59 187.12 161.38 188.36 162.01 189.25 Z M 162.60 190.08 L 163.19 190.89 C 163.83 191.77 165.07 191.97 165.95 191.33 C 166.83 190.69 167.03 189.45 166.39 188.57 L 165.80 187.76 C 165.16 186.87 163.92 186.68 163.04 187.32 C 162.16 187.96 161.96 189.19 162.60 190.08 Z M 163.21 190.91 L 163.81 191.72 C 164.46 192.59 165.70 192.77 166.57 192.12 C 167.44 191.48 167.63 190.24 166.98 189.36 L 166.37 188.55 C 165.72 187.68 164.49 187.50 163.61 188.15 C 162.74 188.80 162.56 190.03 163.21 190.91 Z M 163.82 191.73 L 164.44 192.54 C 165.10 193.41 166.33 193.58 167.20 192.92 C 168.07 192.26 168.24 191.02 167.58 190.16 L 166.96 189.35 C 166.30 188.48 165.07 188.31 164.20 188.97 C 163.33 189.63 163.16 190.87 163.82 191.73 Z M 164.45 192.56 L 165.07 193.36 C 165.74 194.22 166.98 194.37 167.84 193.70 C 168.70 193.04 168.85 191.80 168.18 190.94 L 167.56 190.14 C 166.90 189.28 165.66 189.13 164.80 189.79 C 163.94 190.46 163.79 191.70 164.45 192.56 Z M 165.09 193.37 L 165.70 194.15 C 166.38 195.00 167.61 195.14 168.47 194.47 C 169.32 193.79 169.46 192.55 168.78 191.70 L 168.17 190.93 C 167.49 190.07 166.26 189.93 165.41 190.61 C 164.55 191.28 164.41 192.52 165.09 193.37 Z M 165.71 194.16 L 166.34 194.93 C 167.02 195.78 168.26 195.91 169.10 195.22 C 169.95 194.54 170.08 193.30 169.40 192.46 L 168.77 191.69 C 168.09 190.84 166.85 190.71 166.01 191.40 C 165.16 192.08 165.03 193.32 165.71 194.16 Z M 166.35 194.95 L 166.99 195.72 C 167.68 196.55 168.92 196.67 169.75 195.98 C 170.59 195.29 170.71 194.05 170.02 193.22 L 169.38 192.45 C 168.69 191.61 167.46 191.49 166.62 192.18 C 165.78 192.87 165.66 194.11 166.35 194.95 Z M 167.00 195.73 L 167.64 196.49 C 168.34 197.32 169.58 197.43 170.41 196.73 C 171.24 196.04 171.35 194.80 170.65 193.97 L 170.01 193.20 C 169.31 192.37 168.07 192.27 167.24 192.96 C 166.41 193.66 166.30 194.90 167.00 195.73 Z M 167.66 196.51 L 168.31 197.27 C 169.01 198.09 170.25 198.19 171.07 197.49 C 171.90 196.78 171.99 195.54 171.29 194.72 L 170.64 193.96 C 169.93 193.13 168.70 193.04 167.87 193.74 C 167.05 194.45 166.95 195.68 167.66 196.51 Z M 168.32 197.28 L 168.98 198.04 C 169.69 198.86 170.93 198.94 171.75 198.23 C 172.56 197.52 172.65 196.28 171.94 195.47 L 171.28 194.71 C 170.57 193.89 169.33 193.81 168.51 194.52 C 167.70 195.23 167.61 196.46 168.32 197.28 Z M 168.99 198.05 L 169.66 198.81 C 170.38 199.62 171.61 199.69 172.42 198.98 C 173.23 198.26 173.31 197.02 172.59 196.21 L 171.93 195.46 C 171.21 194.65 169.97 194.57 169.16 195.29 C 168.35 196.00 168.28 197.24 168.99 198.05 Z M 169.67 198.82 L 170.34 199.56 C 171.06 200.37 172.30 200.43 173.10 199.71 C 173.91 198.99 173.97 197.75 173.25 196.95 L 172.58 196.20 C 171.86 195.40 170.62 195.33 169.82 196.05 C 169.02 196.78 168.95 198.01 169.67 198.82 Z M 170.35 199.57 L 171.02 200.31 C 171.75 201.11 172.99 201.16 173.78 200.44 C 174.58 199.71 174.64 198.47 173.91 197.67 L 173.24 196.94 C 172.52 196.14 171.28 196.08 170.48 196.81 C 169.68 197.53 169.62 198.77 170.35 199.57 Z M 171.03 200.31 L 171.70 201.05 C 172.43 201.84 173.67 201.90 174.47 201.17 C 175.26 200.43 175.31 199.20 174.58 198.40 L 173.91 197.67 C 173.18 196.87 171.94 196.82 171.14 197.55 C 170.35 198.28 170.29 199.52 171.03 200.31 Z M 171.70 201.05 L 172.38 201.79 C 173.12 202.58 174.35 202.63 175.15 201.90 C 175.94 201.16 175.99 199.92 175.26 199.13 L 174.58 198.40 C 173.85 197.60 172.61 197.55 171.81 198.29 C 171.02 199.02 170.97 200.26 171.70 201.05 Z M 172.38 201.79 L 173.06 202.52 C 173.80 203.32 175.03 203.36 175.83 202.63 C 176.62 201.90 176.67 200.66 175.94 199.86 L 175.26 199.13 C 174.52 198.33 173.28 198.29 172.49 199.02 C 171.69 199.76 171.65 200.99 172.38 201.79 Z M 173.06 202.52 L 173.74 203.26 C 174.47 204.05 175.71 204.10 176.51 203.37 C 177.30 202.63 177.35 201.39 176.62 200.60 L 175.94 199.86 C 175.20 199.07 173.96 199.02 173.17 199.75 C 172.37 200.49 172.32 201.73 173.06 202.52 Z M 173.73 203.25 L 174.41 203.99 C 175.14 204.79 176.38 204.84 177.18 204.11 C 177.98 203.38 178.03 202.14 177.30 201.34 L 176.62 200.60 C 175.89 199.80 174.65 199.75 173.85 200.48 C 173.05 201.22 173.00 202.46 173.73 203.25 Z M 174.40 203.99 L 175.08 204.73 C 175.81 205.53 177.05 205.59 177.85 204.86 C 178.65 204.13 178.71 202.89 177.98 202.09 L 177.31 201.35 C 176.58 200.55 175.34 200.49 174.54 201.22 C 173.74 201.94 173.68 203.18 174.40 203.99 Z M 175.07 204.72 L 175.73 205.46 C 176.46 206.27 177.70 206.33 178.50 205.61 C 179.31 204.89 179.38 203.65 178.65 202.84 L 177.99 202.10 C 177.27 201.29 176.03 201.23 175.22 201.95 C 174.42 202.67 174.35 203.91 175.07 204.72 Z M 175.72 205.45 L 176.38 206.19 C 177.10 207.00 178.34 207.08 179.15 206.36 C 179.96 205.64 180.04 204.40 179.32 203.59 L 178.66 202.85 C 177.95 202.04 176.71 201.96 175.89 202.68 C 175.08 203.40 175.01 204.64 175.72 205.45 Z M 176.37 206.18 L 177.02 206.93 C 177.74 207.74 178.98 207.83 179.79 207.11 C 180.61 206.40 180.69 205.16 179.98 204.34 L 179.33 203.60 C 178.61 202.78 177.37 202.70 176.56 203.41 C 175.74 204.12 175.66 205.36 176.37 206.18 Z M 177.02 206.92 L 177.67 207.67 C 178.38 208.49 179.62 208.58 180.43 207.87 C 181.25 207.16 181.34 205.92 180.64 205.10 L 179.98 204.35 C 179.28 203.53 178.04 203.44 177.22 204.15 C 176.40 204.86 176.31 206.10 177.02 206.92 Z M 177.66 207.67 L 178.31 208.42 C 179.02 209.25 180.26 209.34 181.08 208.64 C 181.90 207.93 182.00 206.69 181.29 205.87 L 180.64 205.11 C 179.94 204.29 178.70 204.19 177.87 204.90 C 177.05 205.60 176.96 206.84 177.66 207.67 Z M 178.31 208.42 L 178.96 209.18 C 179.66 210.01 180.90 210.11 181.73 209.41 C 182.55 208.70 182.65 207.46 181.95 206.64 L 181.30 205.87 C 180.59 205.05 179.35 204.95 178.53 205.65 C 177.70 206.35 177.60 207.59 178.31 208.42 Z M 178.95 209.18 L 179.61 209.95 C 180.31 210.78 181.55 210.88 182.37 210.18 C 183.20 209.48 183.30 208.24 182.60 207.41 L 181.95 206.64 C 181.25 205.81 180.01 205.71 179.18 206.41 C 178.36 207.11 178.25 208.35 178.95 209.18 Z M 179.60 209.95 L 180.26 210.72 C 180.96 211.55 182.20 211.66 183.03 210.96 C 183.86 210.26 183.96 209.02 183.26 208.19 L 182.61 207.41 C 181.91 206.59 180.67 206.48 179.84 207.18 C 179.01 207.88 178.90 209.12 179.60 209.95 Z M 180.26 210.72 L 180.92 211.51 C 181.62 212.34 182.86 212.45 183.69 211.75 C 184.52 211.05 184.63 209.81 183.93 208.98 L 183.26 208.19 C 182.56 207.36 181.33 207.26 180.50 207.96 C 179.67 208.65 179.56 209.89 180.26 210.72 Z M 180.92 211.51 L 181.59 212.31 C 182.29 213.14 183.53 213.24 184.36 212.55 C 185.19 211.85 185.29 210.61 184.60 209.78 L 183.93 208.98 C 183.23 208.15 181.99 208.05 181.16 208.74 C 180.33 209.44 180.22 210.68 180.92 211.51 Z M 181.59 212.30 L 182.25 213.10 C 182.95 213.93 184.19 214.04 185.02 213.34 C 185.85 212.65 185.96 211.41 185.26 210.58 L 184.60 209.78 C 183.90 208.95 182.66 208.84 181.83 209.54 C 181.00 210.23 180.89 211.47 181.59 212.30 Z M 182.25 213.09 L 182.91 213.88 C 183.61 214.72 184.84 214.83 185.67 214.13 C 186.51 213.44 186.62 212.20 185.92 211.37 L 185.27 210.58 C 184.57 209.75 183.33 209.64 182.50 210.33 C 181.67 211.03 181.56 212.26 182.25 213.09 Z M 182.91 213.88 L 183.56 214.66 C 184.25 215.49 185.49 215.61 186.32 214.91 C 187.15 214.22 187.27 212.98 186.57 212.15 L 185.93 211.37 C 185.23 210.54 184.00 210.42 183.16 211.12 C 182.33 211.81 182.22 213.05 182.91 213.88 Z M 183.55 214.65 L 184.19 215.42 C 184.88 216.25 186.11 216.37 186.95 215.68 C 187.78 214.99 187.90 213.75 187.21 212.92 L 186.58 212.15 C 185.89 211.32 184.65 211.20 183.81 211.89 C 182.98 212.58 182.86 213.82 183.55 214.65 Z M 184.18 215.41 L 184.79 216.16 C 185.48 217.00 186.72 217.12 187.55 216.43 C 188.39 215.74 188.51 214.51 187.82 213.67 L 187.21 212.92 C 186.52 212.09 185.29 211.97 184.45 212.65 C 183.62 213.34 183.49 214.58 184.18 215.41 Z M 184.79 216.15 L 185.38 216.87 C 186.06 217.71 187.30 217.84 188.14 217.15 C 188.97 216.47 189.10 215.24 188.42 214.40 L 187.83 213.68 C 187.14 212.84 185.91 212.71 185.07 213.39 C 184.23 214.08 184.11 215.31 184.79 216.15 Z M 185.37 216.87 L 186.04 217.70 C 186.72 218.54 187.96 218.67 188.80 217.99 C 189.64 217.31 189.77 216.08 189.09 215.24 L 188.42 214.40 C 187.74 213.56 186.51 213.43 185.67 214.11 C 184.82 214.79 184.69 216.02 185.37 216.87 Z M 186.04 217.69 L 186.71 218.53 C 187.39 219.38 188.62 219.52 189.46 218.84 C 190.31 218.17 190.45 216.94 189.77 216.09 L 189.10 215.25 C 188.42 214.40 187.19 214.26 186.35 214.94 C 185.50 215.61 185.36 216.84 186.04 217.69 Z M 186.71 218.52 L 187.34 219.33 C 188.01 220.18 189.24 220.32 190.09 219.66 C 190.94 218.99 191.08 217.76 190.41 216.91 L 189.78 216.10 C 189.11 215.25 187.88 215.11 187.03 215.78 C 186.18 216.45 186.04 217.68 186.71 218.52 Z M 187.34 219.32 L 187.95 220.10 C 188.61 220.95 189.84 221.10 190.69 220.43 C 191.54 219.77 191.69 218.54 191.02 217.69 L 190.42 216.92 C 189.75 216.07 188.53 215.92 187.68 216.58 C 186.83 217.25 186.68 218.47 187.34 219.32 Z M 187.94 220.09 L 188.52 220.84 C 189.18 221.69 190.41 221.84 191.26 221.18 C 192.11 220.52 192.27 219.29 191.61 218.44 L 191.03 217.70 C 190.36 216.84 189.14 216.69 188.29 217.35 C 187.44 218.01 187.28 219.24 187.94 220.09 Z M 188.52 220.83 L 189.08 221.56 C 189.74 222.41 190.96 222.56 191.82 221.90 C 192.67 221.25 192.82 220.02 192.17 219.17 L 191.61 218.45 C 190.95 217.59 189.72 217.44 188.87 218.10 C 188.02 218.76 187.86 219.98 188.52 220.83 Z M 189.08 221.55 L 189.68 222.33 C 190.34 223.18 191.56 223.34 192.42 222.68 C 193.27 222.02 193.42 220.80 192.77 219.95 L 192.16 219.17 C 191.51 218.32 190.28 218.16 189.43 218.82 C 188.58 219.48 188.43 220.70 189.08 221.55 Z M 189.69 222.33 L 190.32 223.15 C 190.98 224.00 192.20 224.15 193.05 223.50 C 193.89 222.84 194.05 221.62 193.39 220.77 L 192.76 219.95 C 192.11 219.10 190.89 218.95 190.04 219.60 C 189.19 220.26 189.03 221.48 189.69 222.33 Z M 190.32 223.14 L 190.94 223.94 C 191.60 224.79 192.81 224.95 193.66 224.29 C 194.51 223.64 194.66 222.42 194.01 221.58 L 193.39 220.77 C 192.74 219.93 191.52 219.77 190.67 220.43 C 189.83 221.08 189.67 222.30 190.32 223.14 Z M 190.94 223.94 L 191.55 224.72 C 192.20 225.57 193.41 225.73 194.26 225.08 C 195.10 224.42 195.26 223.21 194.61 222.36 L 194.01 221.58 C 193.36 220.73 192.14 220.58 191.30 221.23 C 190.45 221.88 190.29 223.09 190.94 223.94 Z M 191.55 224.72 L 192.14 225.49 C 192.79 226.33 194.00 226.49 194.84 225.84 C 195.69 225.19 195.85 223.98 195.20 223.14 L 194.61 222.37 C 193.96 221.53 192.75 221.37 191.91 222.01 C 191.06 222.66 190.90 223.87 191.55 224.72 Z M 192.14 225.48 L 192.74 226.26 C 193.38 227.11 194.59 227.27 195.43 226.62 C 196.28 225.98 196.44 224.77 195.79 223.93 L 195.20 223.14 C 194.55 222.30 193.35 222.14 192.50 222.78 C 191.66 223.43 191.50 224.63 192.14 225.48 Z M 192.74 226.25 L 193.37 227.08 C 194.01 227.92 195.21 228.09 196.05 227.44 C 196.89 226.80 197.06 225.60 196.42 224.76 L 195.79 223.94 C 195.15 223.09 193.95 222.93 193.11 223.57 C 192.26 224.21 192.10 225.41 192.74 226.25 Z M 193.38 227.07 L 193.99 227.88 C 194.63 228.72 195.82 228.88 196.66 228.24 C 197.50 227.61 197.66 226.41 197.02 225.57 L 196.41 224.77 C 195.77 223.93 194.58 223.76 193.74 224.40 C 192.90 225.04 192.74 226.24 193.38 227.07 Z M 194.00 227.88 L 194.60 228.66 C 195.24 229.50 196.43 229.65 197.26 229.02 C 198.09 228.38 198.25 227.19 197.61 226.35 L 197.01 225.57 C 196.38 224.74 195.18 224.58 194.35 225.22 C 193.52 225.85 193.36 227.05 194.00 227.88 Z M 194.61 228.67 L 195.20 229.43 C 195.84 230.25 197.03 230.40 197.86 229.76 C 198.68 229.12 198.83 227.93 198.19 227.11 L 197.60 226.35 C 196.96 225.52 195.77 225.37 194.95 226.01 C 194.12 226.66 193.97 227.84 194.61 228.67 Z M 195.22 229.44 L 195.85 230.23 C 196.49 231.04 197.68 231.18 198.49 230.53 C 199.31 229.89 199.44 228.70 198.80 227.89 L 198.17 227.10 C 197.52 226.29 196.34 226.15 195.53 226.79 C 194.71 227.44 194.58 228.62 195.22 229.44 Z M 195.87 230.24 L 196.52 231.03 C 197.17 231.83 198.35 231.95 199.15 231.29 C 199.95 230.64 200.07 229.46 199.41 228.66 L 198.77 227.88 C 198.12 227.08 196.94 226.96 196.14 227.61 C 195.34 228.26 195.22 229.44 195.87 230.24 Z M 196.55 231.05 L 197.19 231.81 C 197.85 232.59 199.03 232.68 199.81 232.02 C 200.59 231.36 200.69 230.18 200.03 229.40 L 199.38 228.64 C 198.72 227.86 197.54 227.76 196.76 228.43 C 195.98 229.09 195.88 230.26 196.55 231.05 Z M 197.23 231.83 L 197.88 232.56 C 198.55 233.33 199.72 233.40 200.48 232.72 C 201.25 232.04 201.32 230.87 200.64 230.11 L 199.99 229.38 C 199.31 228.61 198.14 228.54 197.38 229.22 C 196.62 229.90 196.55 231.07 197.23 231.83 Z M 197.92 232.59 L 198.59 233.31 C 199.28 234.05 200.44 234.09 201.18 233.40 C 201.92 232.70 201.96 231.54 201.27 230.80 L 200.60 230.08 C 199.91 229.34 198.75 229.30 198.00 229.99 C 197.26 230.69 197.22 231.85 197.92 232.59 Z M 198.63 233.33 L 199.33 234.04 C 200.03 234.76 201.19 234.76 201.90 234.06 C 202.62 233.35 202.63 232.20 201.92 231.48 L 201.23 230.77 C 200.52 230.06 199.37 230.05 198.65 230.76 C 197.93 231.46 197.92 232.62 198.63 233.33 Z M 199.37 234.06 L 200.08 234.75 C 200.80 235.45 201.95 235.43 202.65 234.70 C 203.34 233.98 203.32 232.84 202.60 232.14 L 201.88 231.45 C 201.16 230.76 200.01 230.78 199.32 231.50 C 198.63 232.22 198.65 233.37 199.37 234.06 Z M 200.12 234.77 L 200.87 235.45 C 201.60 236.13 202.74 236.08 203.41 235.35 C 204.08 234.61 204.03 233.48 203.30 232.80 L 202.56 232.12 C 201.82 231.45 200.69 231.50 200.01 232.23 C 199.34 232.96 199.39 234.10 200.12 234.77 Z M 200.90 235.47 L 201.67 236.14 C 202.41 236.79 203.53 236.72 204.19 235.98 C 204.84 235.24 204.76 234.11 204.02 233.46 L 203.26 232.79 C 202.52 232.14 201.39 232.21 200.74 232.95 C 200.09 233.69 200.16 234.82 200.90 235.47 Z M 201.70 236.15 L 202.48 236.81 C 203.22 237.44 204.34 237.34 204.97 236.59 C 205.60 235.84 205.51 234.73 204.76 234.10 L 203.99 233.44 C 203.24 232.81 202.12 232.91 201.49 233.66 C 200.86 234.40 200.95 235.52 201.70 236.15 Z M 202.52 236.82 L 203.30 237.45 C 204.06 238.06 205.17 237.94 205.78 237.19 C 206.38 236.43 206.27 235.33 205.51 234.72 L 204.72 234.08 C 203.96 233.47 202.86 233.59 202.25 234.35 C 201.64 235.10 201.76 236.21 202.52 236.82 Z M 203.35 237.47 L 204.14 238.08 C 204.91 238.66 206.00 238.51 206.59 237.75 C 207.17 236.98 207.02 235.89 206.26 235.30 L 205.46 234.70 C 204.70 234.12 203.60 234.26 203.02 235.03 C 202.44 235.79 202.58 236.89 203.35 237.47 Z M 204.19 238.10 L 205.00 238.67 C 205.77 239.23 206.85 239.05 207.41 238.27 C 207.97 237.50 207.79 236.42 207.01 235.86 L 206.21 235.28 C 205.43 234.73 204.35 234.91 203.79 235.68 C 203.24 236.46 203.42 237.54 204.19 238.10 Z M 205.06 238.70 L 205.92 239.27 C 206.71 239.79 207.77 239.58 208.30 238.79 C 208.82 238.00 208.60 236.93 207.81 236.41 L 206.95 235.84 C 206.16 235.31 205.10 235.53 204.57 236.32 C 204.05 237.11 204.27 238.17 205.06 238.70 Z M 205.97 239.29 L 206.82 239.81 C 207.62 240.30 208.67 240.06 209.17 239.26 C 209.66 238.46 209.41 237.41 208.61 236.91 L 207.76 236.39 C 206.96 235.89 205.91 236.14 205.42 236.94 C 204.92 237.74 205.17 238.79 205.97 239.29 Z M 206.86 239.82 L 207.71 240.31 C 208.51 240.78 209.55 240.51 210.02 239.71 C 210.49 238.90 210.22 237.87 209.41 237.39 L 208.57 236.90 C 207.76 236.43 206.73 236.70 206.26 237.51 C 205.79 238.32 206.06 239.35 206.86 239.82 Z M 207.73 240.31 L 208.59 240.80 C 209.40 241.25 210.42 240.97 210.87 240.16 C 211.33 239.35 211.04 238.33 210.24 237.88 L 209.38 237.39 C 208.58 236.94 207.55 237.22 207.10 238.03 C 206.64 238.84 206.93 239.86 207.73 240.31 Z M 208.61 240.79 L 209.49 241.28 C 210.29 241.72 211.31 241.42 211.75 240.62 C 212.19 239.82 211.90 238.80 211.09 238.36 L 210.21 237.88 C 209.41 237.44 208.40 237.73 207.96 238.53 C 207.51 239.34 207.81 240.35 208.61 240.79 Z M 209.52 241.27 L 210.40 241.74 C 211.20 242.17 212.20 241.87 212.63 241.06 C 213.06 240.26 212.75 239.26 211.95 238.83 L 211.07 238.36 C 210.26 237.94 209.26 238.24 208.84 239.04 C 208.41 239.85 208.71 240.85 209.52 241.27 Z M 210.43 241.74 L 211.32 242.20 C 212.13 242.61 213.11 242.29 213.52 241.48 C 213.93 240.68 213.61 239.69 212.80 239.28 L 211.91 238.83 C 211.11 238.42 210.13 238.74 209.72 239.55 C 209.31 240.35 209.63 241.34 210.43 241.74 Z M 211.36 242.20 L 212.18 242.60 C 212.99 242.99 213.96 242.65 214.35 241.84 C 214.74 241.04 214.40 240.07 213.59 239.68 L 212.77 239.28 C 211.96 238.89 210.99 239.23 210.60 240.03 C 210.21 240.84 210.55 241.81 211.36 242.20 Z M 212.21 242.60 L 213.05 242.99 C 213.86 243.36 214.82 243.01 215.19 242.20 C 215.56 241.39 215.21 240.43 214.40 240.06 L 213.56 239.67 C 212.75 239.30 211.79 239.66 211.42 240.47 C 211.05 241.27 211.40 242.23 212.21 242.60 Z M 213.08 242.99 L 213.99 243.39 C 214.80 243.75 215.75 243.38 216.11 242.57 C 216.46 241.76 216.10 240.82 215.28 240.46 L 214.37 240.06 C 213.56 239.70 212.62 240.07 212.26 240.88 C 211.90 241.69 212.27 242.63 213.08 242.99 Z M 214.01 243.39 L 215.03 243.83 C 215.84 244.17 216.78 243.80 217.12 242.99 C 217.47 242.18 217.09 241.24 216.28 240.90 L 215.26 240.46 C 214.46 240.12 213.52 240.49 213.17 241.30 C 212.83 242.11 213.20 243.05 214.01 243.39 Z M 215.04 243.82 L 215.97 244.21 C 216.78 244.55 217.71 244.17 218.05 243.36 C 218.39 242.56 218.01 241.63 217.20 241.29 L 216.27 240.90 C 215.46 240.56 214.53 240.94 214.19 241.75 C 213.85 242.56 214.24 243.49 215.04 243.82 Z M 215.98 244.21 L 216.89 244.59 C 217.70 244.92 218.63 244.54 218.96 243.73 C 219.29 242.92 218.91 242.00 218.10 241.67 L 217.19 241.29 C 216.38 240.95 215.46 241.34 215.12 242.15 C 214.79 242.95 215.17 243.88 215.98 244.21 Z M 216.90 244.59 L 217.86 244.98 C 218.66 245.31 219.59 244.92 219.91 244.11 C 220.24 243.30 219.85 242.38 219.04 242.05 L 218.09 241.66 C 217.28 241.34 216.36 241.73 216.03 242.53 C 215.71 243.34 216.10 244.26 216.90 244.59 Z M 217.87 244.98 L 218.83 245.36 C 219.64 245.68 220.56 245.29 220.88 244.48 C 221.20 243.67 220.80 242.75 219.99 242.43 L 219.03 242.05 C 218.22 241.73 217.31 242.12 216.98 242.93 C 216.66 243.74 217.06 244.66 217.87 244.98 Z M 218.85 245.36 L 219.80 245.73 C 220.61 246.04 221.52 245.64 221.83 244.83 C 222.14 244.01 221.74 243.10 220.93 242.79 L 219.98 242.43 C 219.17 242.12 218.26 242.52 217.94 243.33 C 217.63 244.14 218.04 245.05 218.85 245.36 Z M 219.82 245.73 L 220.77 246.09 C 221.58 246.39 222.49 245.97 222.79 245.16 C 223.09 244.34 222.67 243.44 221.86 243.14 L 220.91 242.79 C 220.09 242.49 219.19 242.90 218.89 243.72 C 218.59 244.53 219.00 245.43 219.82 245.73 Z M 220.80 246.09 L 221.83 246.45 C 222.64 246.74 223.54 246.30 223.82 245.49 C 224.11 244.67 223.68 243.77 222.86 243.49 L 221.83 243.13 C 221.01 242.85 220.12 243.28 219.83 244.10 C 219.55 244.91 219.98 245.81 220.80 246.09 Z M 221.85 246.46 L 222.81 246.77 C 223.64 247.04 224.52 246.60 224.79 245.77 C 225.06 244.95 224.61 244.07 223.79 243.80 L 222.83 243.48 C 222.01 243.21 221.12 243.66 220.85 244.48 C 220.58 245.30 221.03 246.19 221.85 246.46 Z M 222.84 246.78 L 223.75 247.06 C 224.58 247.32 225.45 246.86 225.71 246.04 C 225.97 245.21 225.51 244.33 224.68 244.08 L 223.77 243.79 C 222.94 243.53 222.07 243.99 221.81 244.82 C 221.55 245.64 222.01 246.52 222.84 246.78 Z M 223.76 247.07 L 224.65 247.34 C 225.48 247.59 226.35 247.12 226.60 246.29 C 226.85 245.47 226.38 244.59 225.56 244.34 L 224.67 244.08 C 223.84 243.83 222.97 244.29 222.72 245.12 C 222.47 245.94 222.94 246.82 223.76 247.07 Z M 224.66 247.34 L 224.89 247.40 C 225.71 247.65 226.58 247.18 226.83 246.36 C 227.08 245.53 226.61 244.66 225.78 244.41 L 225.55 244.34 C 224.73 244.10 223.86 244.57 223.61 245.39 C 223.36 246.22 223.83 247.09 224.66 247.34 Z"
      fill="black"
      fill-rule="nonzero" /></svg>