<svg xmlns="http://www.w3.org/2000/svg" width="300" height="300" viewBox="0 0 300 300">
<path d="M 123.20 97.97 L 122.70 96.94 C 122.27 96.07 121.23 95.71 120.36 96.14 C 119.50 96.56 119.14 97.61 119.56 98.47 L 120.07 99.50 C 120.49 100.37 121.53 100.72 122.40 100.30 C 123.27 99.88 123.62 98.83 123.20 97.97 Z M 122.76 97.01 L 122.34 96.02 C 121.96 95.11 120.91 94.69 120.01 95.08 C 119.11 95.46 118.69 96.50 119.07 97.41 L 119.49 98.40 C 119.88 99.30 120.92 99.72 121.83 99.34 C 122.73 98.96 123.15 97.91 122.76 97.01 Z M 122.45 96.22 L 122.18 95.29 C 121.91 94.33 120.91 93.77 119.95 94.05 C 118.99 94.32 118.43 95.32 118.70 96.28 L 118.97 97.20 C 119.24 98.17 120.24 98.72 121.20 98.45 C 122.16 98.18 122.72 97.18 122.45 96.22 Z M 122.29 95.74 L 122.26 94.92 C 122.24 93.90 121.39 93.10 120.38 93.12 C 119.36 93.15 118.56 93.99 118.58 95.01 L 118.60 95.83 C 118.63 96.85 119.47 97.65 120.49 97.63 C 121.51 97.60 122.31 96.76 122.29 95.74 Z M 122.13 95.71 L 122.46 94.97 C 122.87 94.03 122.44 92.93 121.50 92.51 C 120.55 92.10 119.46 92.53 119.04 93.47 L 118.72 94.22 C 118.30 95.16 118.73 96.26 119.68 96.67 C 120.62 97.09 121.72 96.66 122.13 95.71 Z M 122.03 95.59 L 122.69 94.97 C 123.45 94.27 123.49 93.08 122.78 92.33 C 122.08 91.57 120.89 91.53 120.13 92.23 L 119.47 92.85 C 118.72 93.56 118.67 94.74 119.38 95.50 C 120.09 96.26 121.27 96.30 122.03 95.59 Z M 122.35 95.23 L 123.26 94.71 C 124.16 94.19 124.47 93.04 123.95 92.14 C 123.43 91.24 122.29 90.93 121.38 91.45 L 120.47 91.97 C 119.57 92.49 119.26 93.64 119.78 94.54 C 120.30 95.44 121.45 95.75 122.35 95.23 Z M 123.08 94.81 L 124.13 94.35 C 125.09 93.93 125.52 92.81 125.10 91.86 C 124.68 90.90 123.57 90.47 122.61 90.89 L 121.56 91.35 C 120.61 91.77 120.17 92.89 120.59 93.84 C 121.01 94.80 122.13 95.23 123.08 94.81 Z M 124.07 94.38 L 124.93 94.04 C 125.90 93.65 126.38 92.55 125.99 91.58 C 125.61 90.61 124.51 90.13 123.54 90.52 L 122.68 90.86 C 121.71 91.24 121.23 92.34 121.61 93.31 C 122.00 94.29 123.10 94.76 124.07 94.38 Z M 124.89 94.05 L 125.79 93.72 C 126.77 93.35 127.27 92.27 126.91 91.29 C 126.55 90.31 125.46 89.81 124.48 90.17 L 123.58 90.50 C 122.60 90.87 122.10 91.96 122.46 92.94 C 122.82 93.92 123.91 94.42 124.89 94.05 Z M 125.76 93.73 L 126.71 93.40 C 127.69 93.05 128.21 91.97 127.87 90.99 C 127.52 90.00 126.44 89.48 125.46 89.83 L 124.51 90.16 C 123.52 90.50 123.00 91.58 123.35 92.57 C 123.70 93.55 124.77 94.07 125.76 93.73 Z M 126.68 93.41 L 127.67 93.08 C 128.66 92.75 129.19 91.68 128.86 90.69 C 128.53 89.69 127.46 89.16 126.47 89.49 L 125.48 89.82 C 124.49 90.15 123.96 91.22 124.29 92.21 C 124.62 93.20 125.69 93.74 126.68 93.41 Z M 127.64 93.09 L 128.67 92.76 C 129.66 92.44 130.21 91.38 129.90 90.38 C 129.58 89.39 128.51 88.84 127.52 89.15 L 126.49 89.48 C 125.50 89.80 124.95 90.86 125.27 91.86 C 125.58 92.85 126.65 93.40 127.64 93.09 Z M 128.65 92.77 L 129.47 92.51 C 130.47 92.21 131.03 91.15 130.73 90.15 C 130.42 89.15 129.36 88.59 128.36 88.90 L 127.54 89.15 C 126.54 89.46 125.98 90.52 126.28 91.51 C 126.59 92.51 127.65 93.07 128.65 92.77 Z M 129.46 92.52 L 130.32 92.26 C 131.32 91.96 131.89 90.91 131.59 89.90 C 131.29 88.90 130.23 88.33 129.23 88.63 L 128.37 88.89 C 127.37 89.19 126.80 90.25 127.10 91.25 C 127.40 92.25 128.46 92.82 129.46 92.52 Z M 130.30 92.26 L 131.21 92.00 C 132.21 91.71 132.79 90.66 132.49 89.66 C 132.20 88.65 131.15 88.08 130.15 88.37 L 129.25 88.63 C 128.24 88.92 127.66 89.97 127.96 90.98 C 128.25 91.98 129.30 92.56 130.30 92.26 Z M 131.19 92.01 L 132.15 91.73 C 133.16 91.45 133.74 90.40 133.46 89.40 C 133.17 88.39 132.12 87.81 131.12 88.09 L 130.16 88.36 C 129.15 88.65 128.57 89.70 128.86 90.70 C 129.14 91.71 130.19 92.29 131.19 92.01 Z M 132.14 91.74 L 133.16 91.45 C 134.17 91.18 134.76 90.13 134.48 89.13 C 134.20 88.12 133.16 87.53 132.15 87.81 L 131.13 88.09 C 130.12 88.37 129.53 89.41 129.81 90.42 C 130.09 91.43 131.13 92.02 132.14 91.74 Z M 133.15 91.46 L 134.25 91.16 C 135.26 90.89 135.86 89.85 135.59 88.84 C 135.31 87.83 134.27 87.23 133.26 87.50 L 132.16 87.80 C 131.15 88.08 130.56 89.12 130.83 90.13 C 131.10 91.13 132.14 91.73 133.15 91.46 Z M 134.25 91.16 L 135.28 90.88 C 136.30 90.61 136.90 89.58 136.63 88.57 C 136.36 87.56 135.32 86.96 134.31 87.23 L 133.27 87.50 C 132.26 87.77 131.66 88.81 131.93 89.82 C 132.20 90.83 133.24 91.43 134.25 91.16 Z M 135.28 90.88 L 136.21 90.64 C 137.22 90.37 137.83 89.34 137.56 88.33 C 137.30 87.32 136.26 86.71 135.25 86.98 L 134.32 87.23 C 133.31 87.49 132.70 88.53 132.97 89.54 C 133.23 90.55 134.27 91.15 135.28 90.88 Z M 136.21 90.64 L 137.18 90.39 C 138.19 90.12 138.80 89.09 138.53 88.08 C 138.27 87.07 137.24 86.46 136.23 86.73 L 135.26 86.98 C 134.25 87.24 133.64 88.27 133.90 89.29 C 134.17 90.30 135.20 90.90 136.21 90.64 Z M 137.17 90.39 L 138.17 90.13 C 139.18 89.87 139.79 88.84 139.53 87.83 C 139.27 86.82 138.24 86.21 137.22 86.47 L 136.23 86.73 C 135.22 86.99 134.61 88.02 134.87 89.03 C 135.13 90.04 136.16 90.65 137.17 90.39 Z M 138.16 90.13 L 139.17 89.88 C 140.18 89.62 140.79 88.59 140.53 87.58 C 140.27 86.57 139.24 85.96 138.23 86.21 L 137.23 86.47 C 136.22 86.73 135.61 87.76 135.86 88.77 C 136.12 89.78 137.15 90.39 138.16 90.13 Z M 139.16 89.88 L 140.17 89.62 C 141.18 89.37 141.79 88.34 141.54 87.33 C 141.28 86.32 140.25 85.70 139.24 85.96 L 138.24 86.21 C 137.23 86.47 136.61 87.50 136.87 88.51 C 137.12 89.52 138.15 90.13 139.16 89.88 Z M 140.16 89.62 L 141.16 89.38 C 142.17 89.12 142.78 88.10 142.53 87.08 C 142.28 86.07 141.25 85.46 140.24 85.71 L 139.25 85.96 C 138.23 86.21 137.62 87.24 137.87 88.25 C 138.13 89.26 139.15 89.88 140.16 89.62 Z M 141.15 89.38 L 142.12 89.14 C 143.13 88.89 143.75 87.86 143.50 86.85 C 143.25 85.84 142.22 85.22 141.21 85.47 L 140.24 85.71 C 139.23 85.96 138.61 86.98 138.86 88.00 C 139.12 89.01 140.14 89.63 141.15 89.38 Z M 142.11 89.14 L 143.05 88.91 C 144.06 88.66 144.68 87.64 144.43 86.63 C 144.18 85.61 143.16 84.99 142.15 85.24 L 141.22 85.47 C 140.21 85.72 139.59 86.74 139.83 87.75 C 140.08 88.76 141.10 89.38 142.11 89.14 Z M 143.04 88.91 L 144.13 88.65 C 145.14 88.40 145.76 87.38 145.52 86.37 C 145.27 85.36 144.26 84.74 143.25 84.98 L 142.16 85.24 C 141.15 85.49 140.52 86.50 140.77 87.52 C 141.01 88.53 142.03 89.15 143.04 88.91 Z M 144.12 88.64 L 145.20 88.39 C 146.21 88.15 146.84 87.14 146.60 86.13 C 146.36 85.12 145.35 84.49 144.34 84.73 L 143.26 84.98 C 142.25 85.22 141.62 86.23 141.86 87.24 C 142.10 88.25 143.11 88.88 144.12 88.64 Z M 145.19 88.38 L 146.20 88.15 C 147.21 87.92 147.84 86.92 147.61 85.91 C 147.38 84.90 146.37 84.27 145.36 84.50 L 144.35 84.73 C 143.34 84.96 142.71 85.97 142.94 86.98 C 143.17 87.99 144.18 88.62 145.19 88.38 Z M 146.19 88.15 L 147.15 87.94 C 148.15 87.71 148.79 86.72 148.57 85.71 C 148.34 84.70 147.35 84.07 146.34 84.29 L 145.38 84.50 C 144.37 84.73 143.74 85.72 143.96 86.73 C 144.18 87.74 145.18 88.37 146.19 88.15 Z M 147.13 87.93 L 148.05 87.74 C 149.05 87.53 149.69 86.54 149.48 85.53 C 149.27 84.53 148.28 83.88 147.27 84.10 L 146.36 84.29 C 145.35 84.51 144.71 85.49 144.92 86.50 C 145.14 87.51 146.12 88.15 147.13 87.93 Z M 148.03 87.74 L 148.91 87.56 C 149.92 87.35 150.57 86.37 150.36 85.37 C 150.16 84.36 149.18 83.72 148.17 83.92 L 147.29 84.10 C 146.29 84.30 145.64 85.28 145.84 86.29 C 146.04 87.29 147.02 87.94 148.03 87.74 Z M 148.89 87.56 L 149.77 87.39 C 150.77 87.19 151.43 86.22 151.23 85.22 C 151.04 84.22 150.07 83.56 149.07 83.75 L 148.19 83.92 C 147.19 84.12 146.53 85.09 146.73 86.09 C 146.92 87.09 147.89 87.75 148.89 87.56 Z M 149.75 87.39 L 150.72 87.21 C 151.72 87.03 152.39 86.07 152.21 85.07 C 152.02 84.06 151.07 83.40 150.06 83.58 L 149.09 83.76 C 148.09 83.94 147.42 84.90 147.60 85.90 C 147.78 86.90 148.74 87.57 149.75 87.39 Z M 150.69 87.21 L 151.66 87.05 C 152.66 86.88 153.34 85.94 153.17 84.93 C 153.01 83.93 152.06 83.25 151.06 83.42 L 150.09 83.58 C 149.09 83.75 148.41 84.69 148.58 85.69 C 148.74 86.70 149.69 87.37 150.69 87.21 Z M 151.63 87.05 L 152.60 86.90 C 153.60 86.76 154.30 85.82 154.15 84.82 C 154.00 83.82 153.07 83.13 152.07 83.28 L 151.09 83.42 C 150.09 83.57 149.40 84.50 149.55 85.50 C 149.70 86.50 150.63 87.20 151.63 87.05 Z M 152.57 86.90 L 153.55 86.78 C 154.56 86.65 155.26 85.73 155.13 84.73 C 155.01 83.73 154.09 83.02 153.09 83.15 L 152.10 83.28 C 151.10 83.41 150.39 84.32 150.52 85.32 C 150.65 86.32 151.57 87.03 152.57 86.90 Z M 153.52 86.77 L 154.53 86.67 C 155.53 86.56 156.25 85.66 156.14 84.66 C 156.04 83.66 155.14 82.94 154.14 83.04 L 153.13 83.15 C 152.13 83.26 151.40 84.16 151.51 85.16 C 151.62 86.16 152.52 86.88 153.52 86.77 Z M 154.49 86.66 L 155.52 86.57 C 156.52 86.49 157.26 85.61 157.17 84.61 C 157.09 83.61 156.21 82.87 155.21 82.96 L 154.18 83.05 C 153.18 83.13 152.44 84.01 152.53 85.01 C 152.61 86.01 153.49 86.75 154.49 86.66 Z M 155.48 86.57 L 156.51 86.50 C 157.51 86.44 158.26 85.58 158.20 84.58 C 158.13 83.58 157.27 82.83 156.28 82.89 L 155.25 82.96 C 154.25 83.03 153.50 83.89 153.56 84.88 C 153.63 85.88 154.49 86.64 155.48 86.57 Z M 156.47 86.50 L 157.51 86.45 C 158.51 86.41 159.28 85.57 159.23 84.57 C 159.19 83.58 158.35 82.81 157.35 82.85 L 156.31 82.90 C 155.32 82.94 154.55 83.79 154.59 84.78 C 154.64 85.77 155.48 86.54 156.47 86.50 Z M 157.47 86.45 L 158.51 86.42 C 159.50 86.40 160.28 85.58 160.26 84.59 C 160.24 83.60 159.42 82.81 158.43 82.84 L 157.39 82.86 C 156.40 82.88 155.62 83.70 155.64 84.69 C 155.66 85.68 156.48 86.47 157.47 86.45 Z M 158.46 86.42 L 159.47 86.42 C 160.46 86.42 161.26 85.62 161.26 84.63 C 161.26 83.65 160.46 82.85 159.48 82.84 L 158.47 82.84 C 157.48 82.84 156.68 83.64 156.68 84.63 C 156.68 85.61 157.48 86.41 158.46 86.42 Z M 159.42 86.41 L 160.38 86.44 C 161.36 86.47 162.18 85.70 162.21 84.71 C 162.24 83.73 161.47 82.91 160.49 82.88 L 159.53 82.85 C 158.54 82.82 157.72 83.59 157.69 84.58 C 157.66 85.56 158.44 86.38 159.42 86.41 Z M 160.31 86.43 L 161.28 86.49 C 162.26 86.56 163.10 85.82 163.17 84.84 C 163.23 83.87 162.50 83.02 161.52 82.96 L 160.55 82.89 C 159.58 82.83 158.73 83.56 158.66 84.54 C 158.60 85.52 159.34 86.36 160.31 86.43 Z M 161.16 86.47 L 162.29 86.62 C 163.25 86.75 164.14 86.08 164.27 85.12 C 164.40 84.15 163.73 83.27 162.76 83.14 L 161.64 82.98 C 160.67 82.85 159.79 83.53 159.66 84.49 C 159.52 85.45 160.20 86.34 161.16 86.47 Z M 162.07 86.56 L 163.03 86.83 C 163.96 87.08 164.92 86.54 165.18 85.61 C 165.43 84.68 164.89 83.72 163.96 83.46 L 162.99 83.20 C 162.06 82.94 161.10 83.49 160.85 84.42 C 160.59 85.34 161.14 86.30 162.07 86.56 Z M 162.70 86.68 L 163.51 87.10 C 164.35 87.54 165.40 87.21 165.83 86.36 C 166.27 85.51 165.94 84.47 165.10 84.03 L 164.29 83.61 C 163.44 83.17 162.40 83.50 161.96 84.35 C 161.52 85.20 161.85 86.24 162.70 86.68 Z M 163.13 86.81 L 163.78 87.42 C 164.47 88.07 165.55 88.04 166.20 87.35 C 166.84 86.66 166.81 85.58 166.13 84.93 L 165.48 84.32 C 164.79 83.67 163.71 83.70 163.06 84.39 C 162.41 85.08 162.44 86.16 163.13 86.81 Z M 163.50 87.05 L 163.97 87.84 C 164.46 88.65 165.50 88.90 166.30 88.42 C 167.11 87.94 167.37 86.89 166.88 86.09 L 166.41 85.30 C 165.92 84.50 164.88 84.24 164.07 84.72 C 163.27 85.21 163.01 86.25 163.50 87.05 Z M 163.83 87.54 L 164.17 88.47 C 164.48 89.35 165.45 89.81 166.33 89.50 C 167.21 89.18 167.67 88.21 167.36 87.33 L 167.02 86.39 C 166.71 85.51 165.74 85.05 164.86 85.37 C 163.97 85.69 163.52 86.66 163.83 87.54 Z M 164.10 88.22 L 164.30 89.24 C 164.48 90.16 165.37 90.75 166.29 90.58 C 167.20 90.40 167.80 89.51 167.62 88.59 L 167.42 87.58 C 167.24 86.66 166.35 86.06 165.44 86.24 C 164.52 86.42 163.93 87.31 164.10 88.22 Z M 164.28 89.02 L 164.35 90.05 C 164.40 90.98 165.20 91.69 166.13 91.63 C 167.06 91.57 167.77 90.77 167.71 89.84 L 167.64 88.81 C 167.58 87.88 166.78 87.18 165.86 87.24 C 164.93 87.29 164.22 88.09 164.28 89.02 Z M 164.35 89.83 L 164.28 90.85 C 164.21 91.77 164.91 92.58 165.83 92.64 C 166.76 92.71 167.56 92.01 167.63 91.09 L 167.70 90.07 C 167.77 89.14 167.07 88.34 166.15 88.27 C 165.22 88.21 164.42 88.90 164.35 89.83 Z M 164.31 90.60 L 164.09 91.58 C 163.89 92.49 164.46 93.38 165.37 93.59 C 166.28 93.79 167.17 93.22 167.38 92.31 L 167.59 91.33 C 167.80 90.43 167.23 89.53 166.32 89.33 C 165.41 89.12 164.51 89.70 164.31 90.60 Z M 164.16 91.36 L 163.82 92.28 C 163.49 93.15 163.94 94.12 164.81 94.44 C 165.68 94.76 166.65 94.32 166.97 93.45 L 167.31 92.53 C 167.64 91.66 167.19 90.69 166.32 90.37 C 165.45 90.04 164.48 90.49 164.16 91.36 Z M 163.88 92.11 L 163.45 93.00 C 163.03 93.83 163.37 94.84 164.21 95.26 C 165.04 95.67 166.05 95.33 166.47 94.49 L 166.91 93.61 C 167.32 92.78 166.98 91.76 166.14 91.35 C 165.31 90.94 164.30 91.28 163.88 92.11 Z M 163.50 92.90 L 163.00 93.75 C 162.53 94.56 162.81 95.59 163.62 96.06 C 164.42 96.53 165.46 96.25 165.92 95.45 L 166.42 94.59 C 166.89 93.78 166.61 92.75 165.80 92.28 C 165.00 91.82 163.96 92.09 163.50 92.90 Z M 163.03 93.70 L 162.52 94.52 C 162.02 95.31 162.26 96.35 163.05 96.85 C 163.84 97.35 164.88 97.11 165.38 96.32 L 165.89 95.50 C 166.39 94.71 166.15 93.66 165.36 93.17 C 164.57 92.67 163.53 92.91 163.03 93.70 Z M 162.54 94.47 L 161.99 95.30 C 161.47 96.08 161.68 97.13 162.46 97.65 C 163.24 98.18 164.29 97.96 164.81 97.18 L 165.36 96.36 C 165.88 95.58 165.67 94.52 164.89 94.00 C 164.11 93.48 163.06 93.69 162.54 94.47 Z M 162.00 95.27 L 161.42 96.10 C 160.88 96.87 161.07 97.93 161.84 98.47 C 162.61 99.01 163.67 98.82 164.21 98.05 L 164.79 97.22 C 165.33 96.45 165.14 95.39 164.37 94.85 C 163.60 94.31 162.54 94.50 162.00 95.27 Z M 161.43 96.08 L 160.82 96.91 C 160.27 97.68 160.44 98.75 161.20 99.30 C 161.97 99.85 163.04 99.68 163.59 98.92 L 164.20 98.08 C 164.75 97.32 164.58 96.25 163.82 95.69 C 163.05 95.14 161.98 95.31 161.43 96.08 Z M 160.83 96.89 L 160.24 97.69 C 159.67 98.45 159.83 99.52 160.59 100.09 C 161.35 100.65 162.42 100.50 162.99 99.74 L 163.58 98.94 C 164.15 98.18 163.99 97.11 163.23 96.54 C 162.47 95.98 161.40 96.14 160.83 96.89 Z M 160.24 97.68 L 159.64 98.47 C 159.07 99.23 159.23 100.31 159.98 100.88 C 160.74 101.45 161.82 101.30 162.39 100.54 L 162.99 99.75 C 163.56 98.99 163.40 97.91 162.65 97.34 C 161.89 96.77 160.81 96.92 160.24 97.68 Z M 159.64 98.47 L 159.04 99.27 C 158.47 100.03 158.62 101.11 159.39 101.69 C 160.15 102.26 161.23 102.10 161.80 101.34 L 162.40 100.54 C 162.97 99.78 162.81 98.70 162.05 98.13 C 161.29 97.56 160.21 97.71 159.64 98.47 Z M 159.03 99.28 L 158.43 100.09 C 157.86 100.86 158.03 101.95 158.80 102.51 C 159.57 103.08 160.65 102.91 161.22 102.14 L 161.81 101.33 C 162.38 100.56 162.21 99.48 161.44 98.91 C 160.67 98.35 159.59 98.51 159.03 99.28 Z M 158.41 100.11 L 157.82 100.94 C 157.26 101.72 157.45 102.81 158.23 103.36 C 159.01 103.92 160.09 103.73 160.65 102.95 L 161.24 102.12 C 161.79 101.34 161.61 100.26 160.83 99.70 C 160.05 99.15 158.96 99.33 158.41 100.11 Z M 157.79 100.97 L 157.24 101.78 C 156.70 102.58 156.91 103.66 157.71 104.20 C 158.50 104.74 159.58 104.53 160.12 103.73 L 160.67 102.92 C 161.21 102.13 161.01 101.05 160.21 100.51 C 159.42 99.97 158.33 100.17 157.79 100.97 Z M 157.22 101.81 L 156.68 102.63 C 156.16 103.44 156.38 104.52 157.19 105.05 C 158.00 105.57 159.08 105.35 159.60 104.54 L 160.14 103.71 C 160.67 102.90 160.44 101.82 159.64 101.30 C 158.83 100.77 157.75 101.00 157.22 101.81 Z M 156.66 102.66 L 156.13 103.50 C 155.62 104.32 155.86 105.40 156.68 105.91 C 157.50 106.43 158.58 106.18 159.09 105.36 L 159.62 104.52 C 160.14 103.70 159.89 102.62 159.07 102.11 C 158.26 101.59 157.18 101.84 156.66 102.66 Z M 156.12 103.52 L 155.59 104.38 C 155.08 105.20 155.34 106.28 156.17 106.79 C 157.00 107.29 158.08 107.03 158.58 106.21 L 159.11 105.35 C 159.61 104.52 159.35 103.44 158.53 102.94 C 157.70 102.43 156.62 102.69 156.12 103.52 Z M 155.58 104.39 L 155.05 105.27 C 154.55 106.10 154.83 107.18 155.66 107.68 C 156.49 108.17 157.57 107.90 158.07 107.07 L 158.59 106.20 C 159.09 105.36 158.82 104.28 157.99 103.79 C 157.15 103.29 156.08 103.56 155.58 104.39 Z M 155.04 105.28 L 154.54 106.13 C 154.05 106.97 154.33 108.05 155.16 108.54 C 156.00 109.04 157.08 108.76 157.57 107.92 L 158.08 107.06 C 158.57 106.22 158.29 105.14 157.45 104.65 C 156.62 104.16 155.54 104.44 155.04 105.28 Z M 154.53 106.14 L 154.03 107.01 C 153.54 107.85 153.83 108.93 154.68 109.42 C 155.52 109.91 156.60 109.62 157.09 108.77 L 157.59 107.91 C 158.07 107.06 157.78 105.98 156.94 105.50 C 156.09 105.01 155.01 105.30 154.53 106.14 Z M 154.02 107.03 L 153.53 107.90 C 153.05 108.75 153.35 109.83 154.21 110.31 C 155.06 110.79 156.13 110.48 156.61 109.63 L 157.10 108.75 C 157.58 107.90 157.27 106.82 156.42 106.35 C 155.57 105.87 154.49 106.18 154.02 107.03 Z M 153.51 107.93 L 153.03 108.81 C 152.57 109.67 152.89 110.74 153.75 111.21 C 154.61 111.67 155.69 111.35 156.15 110.49 L 156.63 109.61 C 157.09 108.75 156.77 107.67 155.91 107.21 C 155.05 106.74 153.97 107.06 153.51 107.93 Z M 153.01 108.84 L 152.56 109.73 C 152.11 110.60 152.45 111.67 153.32 112.12 C 154.19 112.57 155.26 112.22 155.71 111.35 L 156.17 110.46 C 156.62 109.59 156.28 108.52 155.40 108.07 C 154.53 107.62 153.46 107.97 153.01 108.84 Z M 152.54 109.76 L 152.09 110.67 C 151.67 111.55 152.03 112.62 152.92 113.05 C 153.80 113.48 154.86 113.11 155.29 112.23 L 155.73 111.32 C 156.16 110.43 155.79 109.37 154.91 108.94 C 154.03 108.51 152.96 108.88 152.54 109.76 Z M 152.07 110.71 L 151.65 111.63 C 151.25 112.52 151.64 113.58 152.53 113.99 C 153.43 114.40 154.49 114.00 154.89 113.11 L 155.31 112.19 C 155.72 111.29 155.33 110.24 154.43 109.83 C 153.54 109.42 152.48 109.82 152.07 110.71 Z M 151.63 111.67 L 151.24 112.59 C 150.85 113.49 151.27 114.54 152.18 114.93 C 153.08 115.32 154.13 114.90 154.52 113.99 L 154.91 113.07 C 155.30 112.16 154.88 111.11 153.97 110.73 C 153.07 110.34 152.02 110.76 151.63 111.67 Z M 151.22 112.63 L 150.85 113.55 C 150.49 114.47 150.93 115.51 151.85 115.87 C 152.76 116.24 153.80 115.79 154.17 114.88 L 154.54 113.95 C 154.90 113.04 154.46 112.00 153.54 111.63 C 152.63 111.26 151.59 111.71 151.22 112.63 Z M 150.83 113.59 L 150.49 114.52 C 150.14 115.45 150.62 116.48 151.54 116.82 C 152.47 117.16 153.50 116.69 153.84 115.77 L 154.19 114.84 C 154.53 113.91 154.06 112.88 153.13 112.54 C 152.21 112.19 151.18 112.67 150.83 113.59 Z M 150.47 114.56 L 150.15 115.50 C 149.82 116.44 150.32 117.46 151.26 117.78 C 152.19 118.10 153.21 117.61 153.54 116.67 L 153.86 115.73 C 154.18 114.79 153.69 113.77 152.75 113.45 C 151.81 113.12 150.79 113.62 150.47 114.56 Z M 150.13 115.54 L 149.83 116.50 C 149.53 117.45 150.05 118.46 150.99 118.76 C 151.94 119.06 152.95 118.53 153.25 117.59 L 153.55 116.63 C 153.85 115.68 153.33 114.67 152.38 114.37 C 151.44 114.07 150.43 114.60 150.13 115.54 Z M 149.81 116.55 L 149.53 117.51 C 149.26 118.46 149.81 119.46 150.76 119.73 C 151.71 120.01 152.71 119.46 152.99 118.50 L 153.26 117.54 C 153.54 116.59 152.99 115.59 152.04 115.32 C 151.08 115.04 150.08 115.59 149.81 116.55 Z M 149.52 117.55 L 149.27 118.52 C 149.01 119.48 149.59 120.46 150.55 120.71 C 151.52 120.96 152.50 120.39 152.75 119.42 L 153.00 118.46 C 153.25 117.50 152.68 116.51 151.71 116.26 C 150.75 116.01 149.77 116.59 149.52 117.55 Z M 149.25 118.56 L 149.03 119.53 C 148.80 120.50 149.41 121.47 150.38 121.70 C 151.35 121.92 152.32 121.32 152.54 120.35 L 152.77 119.38 C 152.99 118.41 152.39 117.44 151.42 117.21 C 150.45 116.99 149.48 117.59 149.25 118.56 Z M 149.01 119.58 L 148.81 120.57 C 148.61 121.54 149.25 122.50 150.22 122.70 C 151.20 122.90 152.16 122.26 152.35 121.29 L 152.55 120.30 C 152.75 119.32 152.12 118.37 151.14 118.17 C 150.17 117.97 149.21 118.60 149.01 119.58 Z M 148.80 120.61 L 148.62 121.62 C 148.45 122.60 149.11 123.54 150.10 123.71 C 151.08 123.89 152.02 123.23 152.19 122.24 L 152.37 121.24 C 152.54 120.25 151.88 119.32 150.90 119.14 C 149.91 118.97 148.97 119.63 148.80 120.61 Z M 148.61 121.67 L 148.47 122.67 C 148.32 123.66 149.00 124.58 149.99 124.72 C 150.98 124.87 151.91 124.19 152.05 123.20 L 152.20 122.20 C 152.35 121.21 151.66 120.28 150.67 120.14 C 149.68 119.99 148.76 120.68 148.61 121.67 Z M 148.46 122.71 L 148.34 123.70 C 148.22 124.70 148.93 125.60 149.92 125.72 C 150.92 125.84 151.82 125.14 151.94 124.14 L 152.06 123.15 C 152.18 122.15 151.47 121.25 150.48 121.13 C 149.48 121.01 148.58 121.72 148.46 122.71 Z M 148.33 123.75 L 148.24 124.72 C 148.14 125.72 148.88 126.61 149.88 126.70 C 150.88 126.80 151.76 126.06 151.86 125.06 L 151.95 124.09 C 152.04 123.09 151.31 122.21 150.31 122.11 C 149.31 122.02 148.42 122.75 148.33 123.75 Z M 148.23 124.77 L 148.16 125.78 C 148.10 126.79 148.85 127.66 149.86 127.72 C 150.86 127.79 151.73 127.03 151.80 126.03 L 151.86 125.02 C 151.93 124.01 151.17 123.14 150.17 123.08 C 149.17 123.01 148.30 123.77 148.23 124.77 Z M 148.16 125.83 L 148.12 126.85 C 148.08 127.86 148.86 128.71 149.87 128.75 C 150.87 128.79 151.72 128.00 151.76 127.00 L 151.80 125.98 C 151.84 124.97 151.06 124.12 150.05 124.08 C 149.05 124.04 148.20 124.83 148.16 125.83 Z M 148.11 126.90 L 148.10 127.89 C 148.08 128.90 148.89 129.73 149.89 129.75 C 150.90 129.76 151.73 128.96 151.75 127.95 L 151.76 126.96 C 151.78 125.95 150.98 125.12 149.97 125.10 C 148.96 125.09 148.13 125.89 148.11 126.90 Z M 148.10 127.93 L 148.10 128.91 C 148.10 129.91 148.92 130.73 149.93 130.73 C 150.94 130.72 151.76 129.90 151.75 128.89 L 151.75 127.92 C 151.75 126.91 150.93 126.09 149.92 126.10 C 148.91 126.10 148.09 126.92 148.10 127.93 Z M 148.10 128.93 L 148.12 129.90 C 148.13 130.91 148.96 131.72 149.97 131.70 C 150.98 131.68 151.79 130.85 151.77 129.84 L 151.75 128.87 C 151.74 127.86 150.90 127.06 149.90 127.07 C 148.89 127.09 148.08 127.92 148.10 128.93 Z M 148.12 129.93 L 148.15 130.91 C 148.18 131.92 149.03 132.71 150.03 132.68 C 151.04 132.65 151.84 131.80 151.80 130.79 L 151.77 129.81 C 151.74 128.80 150.89 128.01 149.88 128.04 C 148.87 128.08 148.08 128.92 148.12 129.93 Z M 148.15 130.97 L 148.21 131.96 C 148.28 132.97 149.15 133.73 150.16 133.66 C 151.17 133.60 151.93 132.73 151.87 131.72 L 151.80 130.73 C 151.73 129.72 150.86 128.96 149.85 129.03 C 148.85 129.09 148.08 129.97 148.15 130.97 Z M 148.22 132.05 L 148.34 133.05 C 148.46 134.05 149.37 134.77 150.37 134.65 C 151.37 134.53 152.09 133.62 151.97 132.62 L 151.86 131.62 C 151.74 130.62 150.83 129.90 149.83 130.02 C 148.82 130.14 148.11 131.05 148.22 132.05 Z M 148.36 133.17 L 148.55 134.18 C 148.73 135.17 149.68 135.83 150.68 135.64 C 151.67 135.46 152.33 134.50 152.14 133.51 L 151.96 132.50 C 151.77 131.50 150.82 130.85 149.82 131.03 C 148.83 131.22 148.17 132.17 148.36 133.17 Z M 148.57 134.30 L 148.81 135.22 C 149.06 136.19 150.06 136.78 151.04 136.53 C 152.02 136.28 152.61 135.28 152.35 134.30 L 152.12 133.39 C 151.86 132.41 150.87 131.82 149.89 132.07 C 148.91 132.33 148.32 133.32 148.57 134.30 Z M 148.84 135.31 L 149.13 136.24 C 149.44 137.21 150.47 137.74 151.43 137.43 C 152.40 137.12 152.93 136.10 152.62 135.13 L 152.33 134.20 C 152.02 133.24 150.99 132.71 150.03 133.01 C 149.06 133.32 148.53 134.35 148.84 135.31 Z M 149.16 136.32 L 149.50 137.26 C 149.85 138.21 150.90 138.70 151.85 138.35 C 152.80 138.00 153.29 136.95 152.94 136.00 L 152.60 135.06 C 152.25 134.11 151.20 133.62 150.25 133.97 C 149.30 134.31 148.81 135.37 149.16 136.32 Z M 149.52 137.32 L 149.91 138.27 C 150.29 139.21 151.35 139.67 152.29 139.29 C 153.23 138.91 153.69 137.84 153.31 136.90 L 152.92 135.95 C 152.54 135.01 151.48 134.55 150.54 134.93 C 149.60 135.31 149.14 136.38 149.52 137.32 Z M 149.92 138.31 L 150.34 139.27 C 150.74 140.20 151.81 140.63 152.74 140.23 C 153.67 139.83 154.10 138.75 153.70 137.82 L 153.29 136.86 C 152.89 135.93 151.81 135.50 150.88 135.90 C 149.95 136.30 149.52 137.38 149.92 138.31 Z M 150.35 139.29 L 150.74 140.17 C 151.16 141.10 152.24 141.51 153.16 141.10 C 154.09 140.68 154.50 139.60 154.09 138.67 L 153.69 137.79 C 153.28 136.87 152.19 136.46 151.27 136.87 C 150.34 137.28 149.93 138.37 150.35 139.29 Z M 150.75 140.20 L 151.16 141.08 C 151.59 142.00 152.68 142.40 153.60 141.98 C 154.52 141.55 154.92 140.46 154.49 139.54 L 154.08 138.65 C 153.65 137.73 152.56 137.33 151.64 137.76 C 150.72 138.19 150.32 139.28 150.75 140.20 Z M 151.17 141.10 L 151.60 142.00 C 152.04 142.92 153.13 143.31 154.05 142.87 C 154.96 142.43 155.35 141.34 154.91 140.42 L 154.48 139.52 C 154.05 138.61 152.95 138.22 152.04 138.66 C 151.12 139.09 150.73 140.19 151.17 141.10 Z M 151.61 142.02 L 152.05 142.93 C 152.50 143.84 153.60 144.22 154.51 143.77 C 155.42 143.33 155.80 142.23 155.35 141.32 L 154.90 140.40 C 154.46 139.49 153.36 139.12 152.45 139.56 C 151.54 140.01 151.16 141.11 151.61 142.02 Z M 152.06 142.95 L 152.52 143.87 C 152.98 144.78 154.08 145.15 154.99 144.69 C 155.90 144.24 156.26 143.13 155.81 142.23 L 155.34 141.30 C 154.89 140.39 153.79 140.03 152.88 140.48 C 151.97 140.93 151.60 142.04 152.06 142.95 Z M 152.53 143.88 L 152.94 144.70 C 153.40 145.60 154.51 145.96 155.41 145.50 C 156.32 145.04 156.68 143.93 156.22 143.03 L 155.80 142.21 C 155.34 141.31 154.24 140.95 153.33 141.41 C 152.43 141.87 152.07 142.98 152.53 143.88 Z M 152.94 144.70 L 153.34 145.49 C 153.81 146.39 154.91 146.75 155.82 146.29 C 156.72 145.83 157.08 144.72 156.62 143.81 L 156.22 143.03 C 155.76 142.12 154.65 141.76 153.74 142.22 C 152.84 142.69 152.48 143.79 152.94 144.70 Z M 153.34 145.48 L 153.76 146.30 C 154.21 147.21 155.32 147.57 156.23 147.12 C 157.14 146.66 157.50 145.55 157.04 144.64 L 156.62 143.82 C 156.17 142.91 155.06 142.55 154.15 143.01 C 153.25 143.47 152.88 144.57 153.34 145.48 Z M 153.75 146.29 L 154.18 147.16 C 154.63 148.07 155.73 148.45 156.64 148.00 C 157.56 147.55 157.93 146.44 157.48 145.53 L 157.05 144.66 C 156.60 143.75 155.50 143.37 154.58 143.82 C 153.67 144.27 153.30 145.38 153.75 146.29 Z M 154.17 147.14 L 154.61 148.07 C 155.05 148.99 156.15 149.38 157.07 148.94 C 157.99 148.50 158.38 147.41 157.94 146.49 L 157.49 145.55 C 157.05 144.63 155.95 144.25 155.04 144.68 C 154.12 145.12 153.73 146.22 154.17 147.14 Z M 154.60 148.05 L 155.06 149.06 C 155.49 149.98 156.58 150.39 157.51 149.97 C 158.43 149.54 158.84 148.45 158.41 147.52 L 157.95 146.51 C 157.53 145.59 156.43 145.18 155.51 145.60 C 154.58 146.03 154.18 147.12 154.60 148.05 Z M 155.05 149.03 L 155.51 150.09 C 155.92 151.03 157.01 151.45 157.94 151.04 C 158.87 150.64 159.30 149.55 158.89 148.62 L 158.43 147.55 C 158.02 146.62 156.93 146.19 156.00 146.60 C 155.07 147.01 154.64 148.10 155.05 149.03 Z M 155.50 150.07 L 155.86 150.92 C 156.25 151.86 157.33 152.30 158.27 151.91 C 159.21 151.51 159.65 150.43 159.26 149.49 L 158.90 148.64 C 158.51 147.70 157.43 147.26 156.49 147.65 C 155.55 148.05 155.11 149.13 155.50 150.07 Z M 155.85 150.90 L 156.21 151.79 C 156.59 152.74 157.67 153.19 158.61 152.81 C 159.56 152.43 160.01 151.35 159.63 150.41 L 159.27 149.51 C 158.89 148.57 157.81 148.11 156.87 148.49 C 155.92 148.88 155.47 149.95 155.85 150.90 Z M 156.20 151.77 L 156.56 152.70 C 156.94 153.65 158.01 154.12 158.96 153.75 C 159.91 153.38 160.37 152.30 160.00 151.35 L 159.64 150.43 C 159.27 149.48 158.20 149.01 157.25 149.38 C 156.30 149.75 155.83 150.82 156.20 151.77 Z M 156.56 152.68 L 156.92 153.63 C 157.28 154.59 158.34 155.07 159.30 154.71 C 160.25 154.35 160.73 153.28 160.37 152.33 L 160.01 151.37 C 159.65 150.42 158.59 149.94 157.63 150.30 C 156.68 150.66 156.19 151.72 156.56 152.68 Z M 156.91 153.61 L 157.26 154.58 C 157.61 155.54 158.67 156.04 159.63 155.69 C 160.59 155.34 161.08 154.28 160.73 153.32 L 160.38 152.35 C 160.03 151.39 158.97 150.90 158.01 151.24 C 157.05 151.59 156.56 152.65 156.91 153.61 Z M 157.25 154.56 L 157.59 155.54 C 157.93 156.50 158.98 157.01 159.95 156.68 C 160.91 156.34 161.42 155.28 161.08 154.32 L 160.74 153.34 C 160.41 152.38 159.35 151.87 158.39 152.21 C 157.42 152.54 156.91 153.60 157.25 154.56 Z M 157.58 155.52 L 157.91 156.50 C 158.24 157.46 159.28 157.99 160.25 157.66 C 161.22 157.34 161.74 156.29 161.42 155.32 L 161.09 154.34 C 160.77 153.38 159.72 152.85 158.75 153.18 C 157.78 153.50 157.26 154.55 157.58 155.52 Z M 157.90 156.47 L 158.21 157.44 C 158.52 158.41 159.56 158.95 160.53 158.64 C 161.51 158.33 162.05 157.29 161.74 156.32 L 161.43 155.35 C 161.12 154.37 160.08 153.84 159.11 154.15 C 158.13 154.45 157.59 155.50 157.90 156.47 Z M 158.20 157.41 L 158.48 158.36 C 158.78 159.34 159.81 159.90 160.79 159.60 C 161.77 159.31 162.33 158.28 162.03 157.30 L 161.75 156.35 C 161.45 155.37 160.42 154.81 159.44 155.10 C 158.46 155.40 157.91 156.43 158.20 157.41 Z M 158.47 158.32 L 158.79 159.45 C 159.06 160.43 160.08 161.01 161.06 160.74 C 162.05 160.46 162.63 159.44 162.36 158.46 L 162.04 157.33 C 161.77 156.35 160.75 155.77 159.76 156.04 C 158.78 156.32 158.20 157.34 158.47 158.32 Z M 158.77 159.41 L 159.05 160.50 C 159.30 161.49 160.31 162.09 161.30 161.84 C 162.29 161.59 162.89 160.58 162.64 159.59 L 162.37 158.50 C 162.12 157.51 161.11 156.91 160.12 157.16 C 159.12 157.41 158.52 158.41 158.77 159.41 Z M 159.04 160.46 L 159.28 161.51 C 159.51 162.50 160.51 163.13 161.50 162.90 C 162.50 162.67 163.12 161.67 162.89 160.67 L 162.65 159.63 C 162.42 158.63 161.43 158.01 160.43 158.24 C 159.43 158.47 158.81 159.46 159.04 160.46 Z M 159.27 161.47 L 159.48 162.47 C 159.69 163.47 160.67 164.11 161.67 163.90 C 162.68 163.69 163.32 162.71 163.11 161.71 L 162.90 160.71 C 162.69 159.71 161.71 159.07 160.71 159.28 C 159.71 159.48 159.06 160.47 159.27 161.47 Z M 159.47 162.43 L 159.65 163.38 C 159.84 164.38 160.81 165.05 161.82 164.85 C 162.83 164.66 163.49 163.69 163.30 162.69 L 163.12 161.74 C 162.93 160.73 161.96 160.07 160.95 160.26 C 159.94 160.46 159.28 161.43 159.47 162.43 Z M 159.65 163.35 L 159.80 164.24 C 159.97 165.25 160.93 165.93 161.94 165.75 C 162.95 165.58 163.63 164.62 163.46 163.61 L 163.30 162.72 C 163.13 161.71 162.17 161.03 161.16 161.20 C 160.15 161.38 159.47 162.34 159.65 163.35 Z M 159.79 164.21 L 159.93 165.05 C 160.08 166.06 161.03 166.75 162.05 166.59 C 163.06 166.43 163.75 165.49 163.59 164.47 L 163.46 163.64 C 163.30 162.62 162.35 161.93 161.34 162.09 C 160.33 162.25 159.64 163.20 159.79 164.21 Z M 159.92 165.02 L 160.06 166.00 C 160.20 167.01 161.14 167.72 162.16 167.58 C 163.17 167.43 163.88 166.50 163.74 165.48 L 163.60 164.50 C 163.45 163.48 162.51 162.78 161.50 162.92 C 160.48 163.07 159.78 164.00 159.92 165.02 Z M 160.05 165.97 L 160.19 167.04 C 160.31 168.06 161.24 168.79 162.26 168.66 C 163.28 168.53 164.00 167.61 163.87 166.59 L 163.74 165.51 C 163.61 164.49 162.69 163.77 161.67 163.90 C 160.65 164.02 159.93 164.95 160.05 165.97 Z M 160.18 167.01 L 160.28 167.99 C 160.39 169.02 161.30 169.76 162.32 169.65 C 163.34 169.55 164.08 168.64 163.98 167.62 L 163.88 166.63 C 163.77 165.61 162.86 164.86 161.84 164.97 C 160.82 165.07 160.08 165.99 160.18 167.01 Z M 160.28 167.96 L 160.36 168.89 C 160.44 169.92 161.34 170.68 162.36 170.59 C 163.38 170.51 164.14 169.61 164.06 168.59 L 163.98 167.65 C 163.90 166.63 163.00 165.87 161.98 165.95 C 160.96 166.04 160.20 166.93 160.28 167.96 Z M 160.35 168.86 L 160.41 169.78 C 160.48 170.80 161.37 171.58 162.39 171.51 C 163.41 171.44 164.19 170.56 164.12 169.53 L 164.06 168.62 C 164.00 167.59 163.11 166.82 162.09 166.88 C 161.06 166.95 160.29 167.84 160.35 168.86 Z M 160.41 169.76 L 160.46 170.73 C 160.52 171.75 161.39 172.54 162.42 172.48 C 163.45 172.43 164.23 171.55 164.18 170.53 L 164.13 169.56 C 164.07 168.53 163.19 167.74 162.17 167.80 C 161.14 167.85 160.36 168.73 160.41 169.76 Z M 160.46 170.71 L 160.51 171.72 C 160.55 172.74 161.42 173.54 162.45 173.49 C 163.48 173.45 164.27 172.58 164.22 171.55 L 164.18 170.54 C 164.13 169.52 163.26 168.72 162.24 168.77 C 161.21 168.81 160.42 169.68 160.46 170.71 Z M 160.50 171.70 L 160.54 172.71 C 160.58 173.74 161.44 174.54 162.47 174.51 C 163.50 174.47 164.30 173.60 164.26 172.58 L 164.23 171.56 C 164.19 170.54 163.32 169.73 162.30 169.77 C 161.27 169.81 160.47 170.67 160.50 171.70 Z M 160.54 172.70 L 160.57 173.70 C 160.60 174.73 161.46 175.54 162.49 175.51 C 163.51 175.48 164.32 174.62 164.29 173.59 L 164.26 172.59 C 164.23 171.56 163.38 170.75 162.35 170.78 C 161.32 170.81 160.51 171.67 160.54 172.70 Z M 160.57 173.69 L 160.59 174.66 C 160.61 175.69 161.46 176.51 162.49 176.49 C 163.52 176.46 164.34 175.61 164.32 174.58 L 164.30 173.61 C 164.27 172.58 163.42 171.76 162.39 171.78 C 161.36 171.81 160.55 172.66 160.57 173.69 Z M 160.59 174.65 L 160.60 175.59 C 160.62 176.62 161.46 177.44 162.49 177.42 C 163.52 177.41 164.35 176.56 164.33 175.53 L 164.32 174.59 C 164.30 173.57 163.46 172.74 162.43 172.76 C 161.40 172.77 160.57 173.62 160.59 174.65 Z M 160.60 175.57 L 160.61 176.52 C 160.62 177.55 161.46 178.37 162.49 178.37 C 163.52 178.36 164.35 177.52 164.34 176.49 L 164.33 175.54 C 164.32 174.51 163.48 173.68 162.45 173.69 C 161.42 173.70 160.59 174.54 160.60 175.57 Z M 160.61 176.51 L 160.61 177.49 C 160.61 178.52 161.45 179.36 162.48 179.35 C 163.51 179.35 164.35 178.51 164.34 177.48 L 164.34 176.49 C 164.34 175.46 163.50 174.63 162.47 174.63 C 161.44 174.64 160.60 175.48 160.61 176.51 Z M 160.61 177.49 L 160.61 178.56 C 160.61 179.59 161.45 180.42 162.48 180.42 C 163.51 180.42 164.35 179.59 164.35 178.55 L 164.35 177.48 C 164.34 176.45 163.51 175.62 162.48 175.62 C 161.44 175.62 160.61 176.46 160.61 177.49 Z M 160.61 178.56 L 160.61 179.54 C 160.61 180.57 161.44 181.41 162.48 181.41 C 163.51 181.41 164.35 180.57 164.35 179.54 L 164.35 178.56 C 164.35 177.52 163.51 176.69 162.48 176.69 C 161.45 176.69 160.61 177.52 160.61 178.56 Z M 160.61 179.53 L 160.60 180.41 C 160.60 181.44 161.43 182.28 162.46 182.29 C 163.50 182.30 164.34 181.46 164.34 180.43 L 164.35 179.55 C 164.35 178.52 163.52 177.67 162.49 177.67 C 161.46 177.66 160.61 178.50 160.61 179.53 Z M 160.60 180.38 L 160.58 181.32 C 160.56 182.35 161.38 183.21 162.42 183.23 C 163.45 183.25 164.31 182.43 164.33 181.39 L 164.34 180.46 C 164.36 179.42 163.54 178.57 162.51 178.55 C 161.48 178.53 160.62 179.35 160.60 180.38 Z M 160.58 181.28 L 160.54 182.27 C 160.50 183.30 161.30 184.18 162.34 184.22 C 163.37 184.26 164.24 183.46 164.29 182.43 L 164.33 181.43 C 164.37 180.40 163.57 179.53 162.53 179.49 C 161.50 179.44 160.62 180.25 160.58 181.28 Z M 160.54 182.22 L 160.47 183.26 C 160.40 184.29 161.18 185.18 162.21 185.26 C 163.24 185.33 164.14 184.55 164.21 183.52 L 164.28 182.48 C 164.36 181.44 163.58 180.55 162.54 180.48 C 161.51 180.41 160.61 181.19 160.54 182.22 Z M 160.48 183.19 L 160.36 184.27 C 160.26 185.30 161.01 186.22 162.04 186.33 C 163.07 186.44 163.99 185.69 164.10 184.66 L 164.21 183.58 C 164.31 182.55 163.57 181.63 162.53 181.52 C 161.50 181.41 160.58 182.16 160.48 183.19 Z M 160.37 184.20 L 160.21 185.31 C 160.06 186.34 160.78 187.29 161.80 187.44 C 162.83 187.59 163.78 186.87 163.93 185.85 L 164.09 184.73 C 164.24 183.71 163.52 182.75 162.50 182.61 C 161.47 182.46 160.52 183.17 160.37 184.20 Z M 160.22 185.23 L 160.03 186.25 C 159.84 187.27 160.51 188.26 161.53 188.45 C 162.55 188.64 163.53 187.96 163.73 186.94 L 163.92 185.92 C 164.11 184.90 163.43 183.92 162.41 183.73 C 161.39 183.54 160.41 184.21 160.22 185.23 Z M 160.05 186.19 L 159.82 187.19 C 159.59 188.21 160.22 189.21 161.24 189.44 C 162.25 189.67 163.26 189.03 163.48 188.02 L 163.71 187.01 C 163.94 186.00 163.31 185.00 162.29 184.77 C 161.28 184.54 160.27 185.17 160.05 186.19 Z M 159.83 187.13 L 159.57 188.14 C 159.30 189.14 159.90 190.17 160.91 190.43 C 161.91 190.70 162.94 190.10 163.21 189.09 L 163.47 188.09 C 163.73 187.08 163.13 186.05 162.13 185.79 C 161.12 185.52 160.10 186.13 159.83 187.13 Z M 159.58 188.08 L 159.29 189.07 C 158.99 190.06 159.56 191.11 160.55 191.41 C 161.55 191.71 162.59 191.14 162.89 190.15 L 163.19 189.15 C 163.49 188.16 162.92 187.11 161.93 186.81 C 160.93 186.51 159.88 187.08 159.58 188.08 Z M 159.31 189.01 L 158.98 189.97 C 158.65 190.96 159.18 192.03 160.16 192.36 C 161.15 192.69 162.22 192.16 162.55 191.17 L 162.87 190.21 C 163.20 189.22 162.67 188.15 161.69 187.82 C 160.70 187.49 159.64 188.02 159.31 189.01 Z M 159.00 189.91 L 158.65 190.84 C 158.29 191.81 158.78 192.90 159.75 193.26 C 160.73 193.63 161.81 193.14 162.18 192.16 L 162.53 191.24 C 162.89 190.26 162.40 189.18 161.43 188.81 C 160.45 188.45 159.37 188.94 159.00 189.91 Z M 158.68 190.77 L 158.31 191.65 C 157.91 192.61 158.36 193.71 159.32 194.11 C 160.28 194.52 161.38 194.07 161.78 193.11 L 162.15 192.23 C 162.56 191.27 162.11 190.17 161.15 189.76 C 160.19 189.36 159.08 189.81 158.68 190.77 Z M 158.34 191.57 L 157.94 192.43 C 157.49 193.37 157.89 194.49 158.83 194.94 C 159.77 195.38 160.90 194.98 161.34 194.04 L 161.75 193.18 C 162.20 192.24 161.80 191.12 160.86 190.67 C 159.91 190.23 158.79 190.63 158.34 191.57 Z M 157.99 192.32 L 157.42 193.35 C 156.92 194.26 157.25 195.41 158.16 195.91 C 159.07 196.41 160.22 196.08 160.72 195.17 L 161.29 194.15 C 161.79 193.24 161.46 192.09 160.55 191.59 C 159.64 191.08 158.50 191.41 157.99 192.32 Z M 157.50 193.22 L 156.91 194.11 C 156.34 194.98 156.58 196.15 157.45 196.72 C 158.31 197.30 159.48 197.06 160.06 196.19 L 160.65 195.30 C 161.22 194.43 160.98 193.26 160.11 192.69 C 159.25 192.11 158.08 192.35 157.50 193.22 Z M 157.01 193.98 L 156.40 194.75 C 155.75 195.57 155.89 196.75 156.71 197.40 C 157.52 198.04 158.71 197.90 159.36 197.09 L 159.96 196.32 C 160.61 195.50 160.47 194.32 159.66 193.67 C 158.84 193.02 157.65 193.16 157.01 193.98 Z M 156.51 194.62 L 155.88 195.29 C 155.16 196.05 155.20 197.24 155.95 197.96 C 156.71 198.67 157.90 198.64 158.62 197.88 L 159.25 197.21 C 159.96 196.46 159.93 195.26 159.17 194.55 C 158.41 193.83 157.22 193.87 156.51 194.62 Z M 155.99 195.18 L 155.35 195.76 C 154.57 196.45 154.50 197.64 155.20 198.42 C 155.89 199.19 157.08 199.26 157.86 198.57 L 158.50 197.99 C 159.28 197.30 159.35 196.11 158.65 195.33 C 157.96 194.55 156.77 194.48 155.99 195.18 Z M 155.47 195.65 L 154.68 196.25 C 153.84 196.87 153.67 198.05 154.30 198.89 C 154.92 199.72 156.10 199.89 156.93 199.27 L 157.73 198.67 C 158.56 198.05 158.73 196.87 158.11 196.03 C 157.49 195.20 156.31 195.03 155.47 195.65 Z M 154.82 196.15 L 153.96 196.68 C 153.07 197.23 152.79 198.39 153.34 199.27 C 153.88 200.16 155.04 200.43 155.92 199.89 L 156.79 199.36 C 157.67 198.82 157.95 197.66 157.41 196.77 C 156.87 195.89 155.71 195.61 154.82 196.15 Z M 154.11 196.61 L 153.22 197.04 C 152.29 197.51 151.91 198.63 152.37 199.56 C 152.83 200.49 153.96 200.87 154.89 200.41 L 155.78 199.97 C 156.70 199.51 157.08 198.38 156.62 197.45 C 156.16 196.52 155.04 196.14 154.11 196.61 Z M 153.36 196.98 L 152.45 197.35 C 151.49 197.73 151.02 198.82 151.40 199.78 C 151.79 200.74 152.88 201.21 153.84 200.83 L 154.75 200.47 C 155.71 200.09 156.18 199.00 155.80 198.04 C 155.41 197.07 154.33 196.60 153.36 196.98 Z M 152.58 197.30 L 151.67 197.59 C 150.69 197.90 150.14 198.95 150.45 199.94 C 150.76 200.92 151.81 201.47 152.79 201.16 L 153.71 200.87 C 154.69 200.56 155.24 199.51 154.93 198.53 C 154.62 197.54 153.57 196.99 152.58 197.30 Z M 151.78 197.57 L 150.86 197.80 C 149.86 198.05 149.25 199.06 149.50 200.06 C 149.75 201.05 150.76 201.66 151.76 201.41 L 152.68 201.18 C 153.68 200.94 154.29 199.92 154.04 198.93 C 153.79 197.93 152.78 197.32 151.78 197.57 Z M 150.95 197.78 L 149.99 197.98 C 148.99 198.17 148.33 199.15 148.53 200.16 C 148.73 201.16 149.71 201.81 150.71 201.62 L 151.67 201.43 C 152.68 201.23 153.33 200.25 153.13 199.24 C 152.93 198.24 151.95 197.59 150.95 197.78 Z M 150.05 197.97 L 149.05 198.14 C 148.04 198.30 147.35 199.25 147.52 200.26 C 147.68 201.26 148.63 201.95 149.64 201.78 L 150.65 201.62 C 151.66 201.46 152.34 200.51 152.18 199.50 C 152.01 198.49 151.06 197.81 150.05 197.97 Z M 149.08 198.14 L 148.02 198.29 C 147.02 198.43 146.32 199.36 146.46 200.37 C 146.60 201.37 147.53 202.07 148.54 201.93 L 149.60 201.78 C 150.61 201.64 151.31 200.71 151.16 199.70 C 151.02 198.70 150.09 198.00 149.08 198.14 Z M 148.04 198.30 L 147.07 198.42 C 146.07 198.55 145.37 199.47 145.50 200.48 C 145.63 201.48 146.55 202.18 147.55 202.05 L 148.52 201.92 C 149.52 201.79 150.23 200.87 150.09 199.87 C 149.96 198.87 149.04 198.16 148.04 198.30 Z M 147.08 198.43 L 146.08 198.56 C 145.09 198.69 144.38 199.60 144.51 200.59 C 144.64 201.59 145.55 202.30 146.54 202.17 L 147.54 202.04 C 148.54 201.91 149.24 201.00 149.12 200.01 C 148.99 199.01 148.08 198.31 147.08 198.43 Z M 146.09 198.57 L 145.08 198.70 C 144.08 198.82 143.38 199.73 143.51 200.72 C 143.63 201.71 144.54 202.41 145.53 202.29 L 146.54 202.16 C 147.53 202.03 148.23 201.13 148.11 200.14 C 147.98 199.15 147.08 198.45 146.09 198.57 Z M 145.08 198.71 L 144.07 198.84 C 143.08 198.96 142.39 199.86 142.51 200.84 C 142.64 201.83 143.53 202.53 144.52 202.40 L 145.53 202.27 C 146.51 202.15 147.21 201.25 147.08 200.27 C 146.96 199.28 146.06 198.58 145.08 198.71 Z M 144.06 198.85 L 143.08 198.98 C 142.10 199.10 141.41 200.00 141.54 200.98 C 141.67 201.95 142.56 202.64 143.54 202.52 L 144.52 202.39 C 145.50 202.26 146.19 201.37 146.06 200.39 C 145.94 199.41 145.04 198.72 144.06 198.85 Z M 143.07 198.99 L 142.12 199.12 C 141.15 199.25 140.47 200.14 140.60 201.11 C 140.74 202.08 141.63 202.76 142.60 202.63 L 143.55 202.50 C 144.52 202.37 145.20 201.48 145.07 200.51 C 144.94 199.54 144.04 198.86 143.07 198.99 Z M 142.11 199.13 L 141.18 199.27 C 140.22 199.40 139.55 200.30 139.69 201.26 C 139.83 202.22 140.72 202.89 141.68 202.75 L 142.61 202.62 C 143.57 202.48 144.24 201.59 144.10 200.63 C 143.97 199.66 143.07 198.99 142.11 199.13 Z M 141.17 199.28 L 140.22 199.42 C 139.27 199.57 138.61 200.46 138.76 201.41 C 138.90 202.37 139.79 203.02 140.75 202.88 L 141.69 202.74 C 142.64 202.59 143.30 201.70 143.16 200.75 C 143.01 199.79 142.12 199.14 141.17 199.28 Z M 140.21 199.44 L 139.22 199.60 C 138.27 199.75 137.63 200.63 137.78 201.58 C 137.93 202.52 138.82 203.17 139.76 203.02 L 140.75 202.86 C 141.70 202.71 142.35 201.83 142.20 200.88 C 142.05 199.94 141.16 199.29 140.21 199.44 Z M 139.21 199.61 L 138.14 199.79 C 137.20 199.94 136.56 200.82 136.72 201.76 C 136.87 202.70 137.75 203.34 138.69 203.18 L 139.77 203.01 C 140.71 202.85 141.34 201.97 141.19 201.03 C 141.03 200.09 140.15 199.46 139.21 199.61 Z M 138.13 199.80 L 137.17 199.96 C 136.24 200.12 135.61 201.00 135.77 201.93 C 135.92 202.86 136.81 203.49 137.74 203.33 L 138.70 203.17 C 139.63 203.01 140.26 202.13 140.10 201.20 C 139.94 200.27 139.06 199.64 138.13 199.80 Z M 137.17 199.97 L 136.23 200.13 C 135.30 200.28 134.68 201.16 134.83 202.09 C 134.99 203.01 135.87 203.64 136.79 203.48 L 137.74 203.32 C 138.66 203.17 139.29 202.29 139.13 201.36 C 138.98 200.44 138.10 199.81 137.17 199.97 Z M 136.23 200.13 L 135.24 200.30 C 134.32 200.46 133.70 201.33 133.85 202.25 C 134.01 203.17 134.88 203.80 135.80 203.64 L 136.79 203.47 C 137.71 203.32 138.34 202.45 138.18 201.52 C 138.03 200.60 137.15 199.98 136.23 200.13 Z M 135.25 200.31 L 134.23 200.48 C 133.31 200.63 132.69 201.50 132.84 202.42 C 133.00 203.34 133.87 203.96 134.79 203.80 L 135.80 203.63 C 136.72 203.48 137.34 202.61 137.19 201.69 C 137.03 200.77 136.16 200.15 135.25 200.31 Z M 134.24 200.48 L 133.21 200.65 C 132.30 200.80 131.68 201.66 131.82 202.58 C 131.97 203.49 132.84 204.11 133.75 203.97 L 134.78 203.80 C 135.69 203.65 136.32 202.78 136.17 201.87 C 136.02 200.95 135.15 200.33 134.24 200.48 Z M 133.22 200.65 L 132.20 200.82 C 131.29 200.96 130.67 201.82 130.81 202.73 C 130.96 203.64 131.81 204.27 132.73 204.12 L 133.75 203.96 C 134.66 203.81 135.28 202.96 135.14 202.04 C 134.99 201.13 134.13 200.51 133.22 200.65 Z M 132.21 200.82 L 131.21 200.97 C 130.30 201.11 129.68 201.96 129.82 202.87 C 129.96 203.78 130.81 204.41 131.72 204.27 L 132.71 204.12 C 133.62 203.98 134.25 203.13 134.11 202.22 C 133.97 201.31 133.12 200.68 132.21 200.82 Z M 131.23 200.98 L 130.16 201.14 C 129.26 201.27 128.63 202.11 128.76 203.01 C 128.89 203.92 129.73 204.55 130.63 204.42 L 131.70 204.26 C 132.61 204.13 133.24 203.29 133.10 202.39 C 132.97 201.48 132.13 200.85 131.23 200.98 Z M 130.18 201.14 L 129.14 201.28 C 128.24 201.40 127.61 202.23 127.73 203.13 C 127.85 204.03 128.68 204.67 129.58 204.55 L 130.62 204.41 C 131.52 204.29 132.15 203.46 132.03 202.56 C 131.91 201.66 131.08 201.02 130.18 201.14 Z M 129.16 201.29 L 128.16 201.41 C 127.27 201.52 126.63 202.34 126.74 203.23 C 126.85 204.13 127.66 204.77 128.56 204.66 L 129.56 204.54 C 130.46 204.43 131.09 203.61 130.98 202.72 C 130.88 201.82 130.06 201.18 129.16 201.29 Z M 128.18 201.42 L 127.21 201.53 C 126.32 201.63 125.67 202.43 125.77 203.32 C 125.87 204.21 126.67 204.85 127.56 204.76 L 128.54 204.65 C 129.43 204.55 130.07 203.75 129.97 202.86 C 129.88 201.97 129.07 201.32 128.18 201.42 Z M 127.23 201.54 L 126.28 201.63 C 125.39 201.71 124.74 202.50 124.83 203.39 C 124.91 204.28 125.70 204.92 126.59 204.84 L 127.54 204.75 C 128.43 204.66 129.08 203.88 128.99 202.99 C 128.91 202.10 128.12 201.45 127.23 201.54 Z M 126.30 201.64 L 125.36 201.72 C 124.48 201.79 123.82 202.56 123.90 203.44 C 123.97 204.32 124.74 204.98 125.62 204.91 L 126.56 204.83 C 127.45 204.76 128.10 203.98 128.03 203.10 C 127.96 202.22 127.18 201.57 126.30 201.64 Z M 125.39 201.72 L 124.39 201.79 C 123.52 201.85 122.85 202.61 122.91 203.49 C 122.97 204.37 123.73 205.03 124.61 204.97 L 125.60 204.90 C 126.48 204.84 127.14 204.08 127.08 203.20 C 127.02 202.33 126.26 201.66 125.39 201.72 Z M 124.41 201.79 L 123.41 201.85 C 122.54 201.90 121.87 202.64 121.91 203.52 C 121.96 204.40 122.71 205.07 123.58 205.02 L 124.59 204.96 C 125.46 204.92 126.13 204.17 126.09 203.29 C 126.04 202.42 125.29 201.75 124.41 201.79 Z M 123.43 201.85 L 122.43 201.89 C 121.56 201.93 120.88 202.67 120.92 203.54 C 120.95 204.42 121.69 205.10 122.57 205.06 L 123.57 205.02 C 124.44 204.98 125.12 204.24 125.08 203.37 C 125.04 202.49 124.31 201.81 123.43 201.85 Z M 122.45 201.90 L 121.45 201.93 C 120.58 201.96 119.90 202.69 119.92 203.56 C 119.95 204.43 120.68 205.12 121.55 205.09 L 122.55 205.06 C 123.42 205.03 124.11 204.30 124.08 203.43 C 124.05 202.55 123.32 201.87 122.45 201.90 Z M 121.47 201.93 L 120.47 201.96 C 119.60 201.98 118.91 202.70 118.93 203.57 C 118.95 204.44 119.67 205.13 120.54 205.11 L 121.54 205.08 C 122.41 205.06 123.10 204.34 123.08 203.47 C 123.06 202.60 122.33 201.91 121.47 201.93 Z M 120.48 201.96 L 119.49 201.98 C 118.62 201.99 117.93 202.71 117.94 203.57 C 117.96 204.44 118.67 205.13 119.54 205.12 L 120.53 205.10 C 121.40 205.09 122.09 204.37 122.08 203.51 C 122.06 202.64 121.35 201.95 120.48 201.96 Z M 119.50 201.98 L 118.51 201.99 C 117.65 202.00 116.95 202.71 116.96 203.57 C 116.97 204.44 117.68 205.14 118.54 205.13 L 119.53 205.12 C 120.40 205.11 121.09 204.40 121.08 203.53 C 121.07 202.67 120.36 201.97 119.50 201.98 Z M 118.53 201.99 L 117.54 201.99 C 116.67 201.99 115.97 202.69 115.97 203.56 C 115.97 204.42 116.67 205.13 117.54 205.13 L 118.53 205.13 C 119.39 205.13 120.10 204.42 120.10 203.56 C 120.10 202.69 119.39 201.99 118.53 201.99 Z M 117.56 201.99 L 116.57 201.98 C 115.70 201.97 114.99 202.66 114.98 203.52 C 114.97 204.39 115.66 205.10 116.52 205.11 L 117.52 205.12 C 118.38 205.14 119.09 204.45 119.11 203.58 C 119.12 202.72 118.43 202.01 117.56 201.99 Z M 116.60 201.98 L 115.60 201.95 C 114.73 201.92 114.01 202.60 113.98 203.46 C 113.95 204.32 114.63 205.05 115.49 205.07 L 116.49 205.11 C 117.36 205.14 118.08 204.46 118.11 203.60 C 118.14 202.73 117.46 202.01 116.60 201.98 Z M 115.63 201.95 L 114.62 201.89 C 113.76 201.85 113.02 202.50 112.97 203.37 C 112.92 204.23 113.58 204.97 114.44 205.01 L 115.46 205.07 C 116.32 205.12 117.06 204.46 117.10 203.60 C 117.15 202.74 116.49 202.00 115.63 201.95 Z M 114.66 201.90 L 113.66 201.82 C 112.80 201.75 112.05 202.38 111.97 203.24 C 111.90 204.10 112.54 204.86 113.40 204.93 L 114.40 205.01 C 115.26 205.08 116.02 204.44 116.09 203.58 C 116.16 202.72 115.52 201.97 114.66 201.90 Z M 113.70 201.82 L 112.72 201.72 C 111.86 201.62 111.10 202.24 111.00 203.10 C 110.91 203.96 111.53 204.73 112.39 204.82 L 113.37 204.92 C 114.22 205.02 114.99 204.39 115.08 203.54 C 115.17 202.68 114.55 201.91 113.70 201.82 Z M 112.75 201.72 L 111.77 201.59 C 110.91 201.49 110.13 202.09 110.02 202.95 C 109.91 203.80 110.52 204.58 111.38 204.69 L 112.36 204.82 C 113.22 204.92 114.00 204.32 114.10 203.46 C 114.21 202.61 113.61 201.83 112.75 201.72 Z M 111.79 201.60 L 110.80 201.46 C 109.94 201.34 109.15 201.93 109.03 202.78 C 108.91 203.64 109.51 204.43 110.36 204.55 L 111.35 204.69 C 112.21 204.81 113.00 204.22 113.12 203.36 C 113.24 202.51 112.64 201.72 111.79 201.60 Z M 110.81 201.46 L 109.81 201.31 C 108.96 201.18 108.17 201.76 108.04 202.61 C 107.91 203.47 108.49 204.26 109.34 204.39 L 110.34 204.55 C 111.20 204.68 111.99 204.09 112.12 203.24 C 112.25 202.39 111.67 201.59 110.81 201.46 Z M 109.83 201.31 L 108.82 201.15 C 107.97 201.01 107.17 201.59 107.04 202.45 C 106.90 203.30 107.48 204.10 108.33 204.23 L 109.33 204.39 C 110.19 204.53 110.99 203.95 111.12 203.10 C 111.26 202.24 110.68 201.44 109.83 201.31 Z M 108.83 201.15 L 108.16 201.04 C 107.31 200.90 106.50 201.48 106.37 202.33 C 106.23 203.18 106.81 203.99 107.66 204.12 L 108.33 204.23 C 109.18 204.37 109.98 203.79 110.12 202.94 C 110.26 202.09 109.68 201.29 108.83 201.15 Z"
      fill="black"
      fill-rule="nonzero" /><path d="M 62.48 158.09 L 61.31 157.41 C 60.48 156.92 59.42 157.20 58.93 158.03 C 58.45 158.86 58.73 159.92 59.56 160.40 L 60.73 161.09 C 61.56 161.57 62.62 161.29 63.10 160.46 C 63.59 159.63 63.31 158.57 62.48 158.09 Z M 61.35 157.41 L 60.26 156.75 C 59.43 156.24 58.36 156.50 57.85 157.33 C 57.35 158.16 57.61 159.24 58.44 159.74 L 59.52 160.40 C 60.35 160.90 61.43 160.64 61.93 159.82 C 62.43 158.99 62.17 157.91 61.35 157.41 Z M 60.34 156.78 L 59.44 156.16 C 58.63 155.61 57.53 155.83 56.98 156.64 C 56.43 157.45 56.64 158.55 57.45 159.10 L 58.36 159.71 C 59.17 160.26 60.27 160.05 60.82 159.24 C 61.37 158.43 61.15 157.33 60.34 156.78 Z M 59.61 156.27 L 58.97 155.72 C 58.22 155.08 57.09 155.17 56.45 155.93 C 55.80 156.68 55.89 157.81 56.65 158.45 L 57.28 158.99 C 58.04 159.63 59.17 159.54 59.81 158.79 C 60.45 158.04 60.36 156.91 59.61 156.27 Z M 59.34 156.13 L 59.06 155.68 C 58.54 154.83 57.42 154.57 56.57 155.10 C 55.72 155.63 55.46 156.75 55.99 157.59 L 56.27 158.04 C 56.80 158.89 57.92 159.15 58.76 158.62 C 59.61 158.09 59.87 156.98 59.34 156.13 Z M 59.15 157.51 L 59.34 157.15 C 59.82 156.25 59.49 155.14 58.59 154.66 C 57.70 154.18 56.59 154.51 56.11 155.40 L 55.91 155.77 C 55.43 156.66 55.76 157.77 56.66 158.26 C 57.55 158.74 58.67 158.40 59.15 157.51 Z M 58.34 158.05 L 59.03 157.81 C 60.01 157.47 60.53 156.40 60.19 155.42 C 59.86 154.44 58.79 153.92 57.81 154.26 L 57.11 154.50 C 56.13 154.84 55.61 155.91 55.95 156.89 C 56.29 157.87 57.36 158.39 58.34 158.05 Z M 58.67 157.94 L 59.71 157.81 C 60.76 157.67 61.51 156.70 61.37 155.65 C 61.23 154.60 60.27 153.86 59.22 153.99 L 58.17 154.13 C 57.12 154.27 56.38 155.23 56.51 156.28 C 56.65 157.33 57.61 158.08 58.67 157.94 Z M 59.57 157.86 L 60.80 157.80 C 61.88 157.74 62.72 156.82 62.66 155.73 C 62.60 154.65 61.68 153.82 60.59 153.87 L 59.36 153.94 C 58.28 153.99 57.44 154.92 57.50 156.00 C 57.56 157.09 58.48 157.92 59.57 157.86 Z M 60.74 157.84 L 61.99 157.82 C 63.10 157.80 63.98 156.88 63.96 155.77 C 63.94 154.66 63.02 153.78 61.91 153.80 L 60.66 153.83 C 59.55 153.85 58.67 154.77 58.69 155.88 C 58.71 156.98 59.63 157.87 60.74 157.84 Z M 61.97 157.84 L 63.06 157.83 C 64.18 157.81 65.08 156.89 65.07 155.77 C 65.05 154.65 64.13 153.75 63.01 153.77 L 61.93 153.78 C 60.80 153.79 59.91 154.71 59.92 155.83 C 59.93 156.96 60.85 157.85 61.97 157.84 Z M 63.05 157.83 L 64.07 157.82 C 65.19 157.81 66.09 156.89 66.08 155.77 C 66.07 154.65 65.15 153.74 64.03 153.75 L 63.02 153.76 C 61.89 153.77 60.99 154.69 61.00 155.82 C 61.01 156.94 61.93 157.84 63.05 157.83 Z M 64.07 157.82 L 65.04 157.82 C 66.16 157.81 67.07 156.89 67.06 155.76 C 67.05 154.64 66.13 153.73 65.00 153.74 L 64.03 153.75 C 62.91 153.76 62.00 154.68 62.01 155.80 C 62.02 156.93 62.94 157.83 64.07 157.82 Z M 65.04 157.82 L 66.00 157.81 C 67.12 157.80 68.03 156.88 68.02 155.75 C 68.00 154.62 67.08 153.72 65.95 153.73 L 65.00 153.74 C 63.87 153.75 62.97 154.67 62.98 155.80 C 62.99 156.93 63.92 157.83 65.04 157.82 Z M 66.00 157.81 L 66.96 157.80 C 68.09 157.78 68.99 156.85 68.98 155.73 C 68.96 154.60 68.03 153.69 66.90 153.71 L 65.94 153.73 C 64.82 153.74 63.91 154.67 63.93 155.80 C 63.95 156.93 64.88 157.83 66.00 157.81 Z M 66.97 157.80 L 67.91 157.78 C 69.04 157.76 69.94 156.82 69.92 155.69 C 69.89 154.56 68.96 153.67 67.83 153.69 L 66.89 153.71 C 65.76 153.73 64.86 154.67 64.89 155.80 C 64.91 156.93 65.84 157.83 66.97 157.80 Z M 67.93 157.79 L 68.89 157.76 C 70.03 157.73 70.92 156.79 70.89 155.65 C 70.86 154.52 69.91 153.63 68.78 153.66 L 67.82 153.69 C 66.68 153.72 65.79 154.66 65.82 155.79 C 65.85 156.92 66.79 157.82 67.93 157.79 Z M 68.91 157.76 L 69.91 157.73 C 71.04 157.69 71.93 156.74 71.89 155.60 C 71.85 154.47 70.90 153.58 69.76 153.62 L 68.77 153.66 C 67.63 153.70 66.75 154.65 66.79 155.78 C 66.83 156.91 67.78 157.80 68.91 157.76 Z M 69.92 157.73 L 70.95 157.68 C 72.08 157.64 72.96 156.68 72.91 155.54 C 72.87 154.41 71.91 153.53 70.77 153.58 L 69.75 153.62 C 68.61 153.67 67.73 154.63 67.78 155.76 C 67.83 156.90 68.79 157.78 69.92 157.73 Z M 70.97 157.69 L 72.02 157.63 C 73.16 157.57 74.03 156.61 73.97 155.47 C 73.91 154.34 72.95 153.46 71.81 153.52 L 70.76 153.58 C 69.62 153.63 68.75 154.60 68.81 155.74 C 68.86 156.87 69.83 157.74 70.97 157.69 Z M 72.04 157.63 L 73.02 157.58 C 74.16 157.51 75.02 156.53 74.95 155.40 C 74.89 154.26 73.91 153.39 72.77 153.46 L 71.79 153.52 C 70.66 153.59 69.79 154.56 69.86 155.70 C 69.93 156.84 70.90 157.70 72.04 157.63 Z M 73.04 157.58 L 74.00 157.51 C 75.14 157.44 76.00 156.45 75.93 155.31 C 75.85 154.18 74.86 153.32 73.73 153.39 L 72.76 153.46 C 71.62 153.54 70.76 154.52 70.84 155.66 C 70.91 156.80 71.90 157.66 73.04 157.58 Z M 74.02 157.52 L 75.01 157.44 C 76.15 157.36 77.00 156.37 76.92 155.23 C 76.83 154.09 75.84 153.23 74.70 153.32 L 73.71 153.39 C 72.57 153.47 71.72 154.47 71.80 155.61 C 71.89 156.75 72.88 157.60 74.02 157.52 Z M 75.02 157.45 L 76.02 157.37 C 77.16 157.27 78.01 156.28 77.92 155.13 C 77.83 153.99 76.83 153.14 75.69 153.23 L 74.69 153.31 C 73.55 153.40 72.70 154.40 72.79 155.54 C 72.88 156.69 73.88 157.54 75.02 157.45 Z M 76.03 157.37 L 77.05 157.28 C 78.19 157.19 79.04 156.18 78.94 155.04 C 78.85 153.89 77.84 153.05 76.70 153.14 L 75.68 153.23 C 74.54 153.33 73.69 154.33 73.79 155.48 C 73.88 156.62 74.89 157.47 76.03 157.37 Z M 77.06 157.29 L 78.09 157.19 C 79.23 157.09 80.08 156.08 79.98 154.94 C 79.88 153.79 78.87 152.95 77.72 153.05 L 76.69 153.14 C 75.55 153.24 74.70 154.25 74.80 155.40 C 74.90 156.54 75.92 157.39 77.06 157.29 Z M 78.10 157.20 L 79.09 157.11 C 80.24 157.00 81.08 155.98 80.98 154.84 C 80.87 153.69 79.85 152.84 78.71 152.95 L 77.71 153.04 C 76.56 153.15 75.72 154.17 75.83 155.31 C 75.93 156.46 76.95 157.31 78.10 157.20 Z M 79.10 157.12 L 80.08 157.02 C 81.23 156.91 82.08 155.89 81.97 154.74 C 81.86 153.58 80.84 152.74 79.68 152.85 L 78.70 152.94 C 77.55 153.05 76.70 154.08 76.81 155.23 C 76.92 156.38 77.95 157.23 79.10 157.12 Z M 80.09 157.03 L 81.08 156.94 C 82.24 156.82 83.08 155.79 82.97 154.63 C 82.86 153.47 81.82 152.63 80.67 152.74 L 79.68 152.84 C 78.52 152.95 77.67 153.98 77.78 155.14 C 77.90 156.30 78.93 157.15 80.09 157.03 Z M 81.08 156.95 L 82.08 156.85 C 83.24 156.73 84.09 155.69 83.98 154.53 C 83.86 153.36 82.82 152.51 81.66 152.63 L 80.66 152.73 C 79.50 152.85 78.65 153.88 78.76 155.05 C 78.88 156.21 79.92 157.06 81.08 156.95 Z M 82.08 156.86 L 83.08 156.76 C 84.25 156.64 85.11 155.59 84.99 154.42 C 84.87 153.25 83.83 152.40 82.66 152.52 L 81.65 152.62 C 80.48 152.74 79.63 153.78 79.75 154.95 C 79.87 156.12 80.91 156.98 82.08 156.86 Z M 83.09 156.77 L 84.09 156.67 C 85.27 156.55 86.12 155.50 86.01 154.32 C 85.89 153.14 84.84 152.29 83.66 152.41 L 82.65 152.51 C 81.48 152.63 80.62 153.68 80.74 154.85 C 80.86 156.03 81.91 156.89 83.09 156.77 Z M 84.09 156.68 L 85.09 156.57 C 86.27 156.45 87.13 155.40 87.01 154.22 C 86.89 153.04 85.84 152.18 84.66 152.30 L 83.66 152.40 C 82.48 152.52 81.62 153.57 81.74 154.75 C 81.86 155.93 82.91 156.79 84.09 156.68 Z M 85.09 156.58 L 86.05 156.48 C 87.24 156.36 88.10 155.31 87.98 154.12 C 87.86 152.94 86.80 152.07 85.62 152.19 L 84.66 152.29 C 83.47 152.41 82.61 153.47 82.73 154.65 C 82.85 155.84 83.91 156.70 85.09 156.58 Z M 86.05 156.49 L 87.02 156.39 C 88.21 156.27 89.08 155.21 88.96 154.02 C 88.84 152.84 87.78 151.97 86.59 152.09 L 85.62 152.19 C 84.43 152.31 83.57 153.37 83.69 154.56 C 83.81 155.74 84.87 156.61 86.05 156.49 Z M 87.02 156.40 L 88.00 156.30 C 89.19 156.18 90.06 155.11 89.94 153.92 C 89.82 152.73 88.76 151.87 87.57 151.99 L 86.59 152.09 C 85.40 152.21 84.53 153.27 84.65 154.46 C 84.77 155.65 85.83 156.52 87.02 156.40 Z M 88.01 156.30 L 89.00 156.20 C 90.19 156.08 91.06 155.01 90.94 153.82 C 90.82 152.63 89.75 151.76 88.56 151.88 L 87.57 151.98 C 86.37 152.10 85.51 153.17 85.63 154.36 C 85.75 155.55 86.81 156.42 88.01 156.30 Z M 89.00 156.20 L 90.01 156.10 C 91.21 155.98 92.08 154.91 91.96 153.72 C 91.83 152.52 90.77 151.65 89.57 151.77 L 88.56 151.88 C 87.36 152.00 86.49 153.07 86.62 154.26 C 86.74 155.46 87.81 156.33 89.00 156.20 Z M 90.01 156.11 L 91.05 156.00 C 92.24 155.88 93.11 154.81 92.99 153.61 C 92.87 152.41 91.80 151.54 90.60 151.66 L 89.57 151.77 C 88.37 151.89 87.50 152.96 87.62 154.16 C 87.75 155.36 88.82 156.23 90.01 156.11 Z M 91.05 156.00 L 92.03 155.90 C 93.23 155.78 94.10 154.71 93.98 153.51 C 93.85 152.31 92.78 151.43 91.58 151.56 L 90.60 151.66 C 89.40 151.78 88.53 152.86 88.65 154.06 C 88.77 155.26 89.85 156.13 91.05 156.00 Z M 92.03 155.91 L 92.94 155.81 C 94.14 155.69 95.02 154.61 94.89 153.41 C 94.77 152.21 93.69 151.33 92.49 151.46 L 91.58 151.55 C 90.37 151.68 89.50 152.75 89.62 153.96 C 89.75 155.16 90.83 156.03 92.03 155.91 Z M 92.94 155.82 L 93.87 155.72 C 95.08 155.59 95.95 154.51 95.83 153.31 C 95.70 152.10 94.62 151.23 93.42 151.35 L 92.48 151.45 C 91.28 151.58 90.40 152.66 90.53 153.86 C 90.66 155.07 91.74 155.94 92.94 155.82 Z M 93.88 155.73 L 94.83 155.62 C 96.04 155.50 96.92 154.41 96.79 153.20 C 96.66 152.00 95.58 151.12 94.37 151.25 L 93.41 151.35 C 92.21 151.48 91.33 152.56 91.46 153.77 C 91.58 154.98 92.67 155.85 93.88 155.73 Z M 94.84 155.63 L 95.82 155.52 C 97.03 155.40 97.91 154.31 97.78 153.10 C 97.65 151.89 96.56 151.01 95.35 151.14 L 94.37 151.24 C 93.16 151.37 92.28 152.46 92.41 153.67 C 92.54 154.88 93.62 155.76 94.84 155.63 Z M 95.82 155.53 L 96.84 155.42 C 98.05 155.29 98.93 154.20 98.80 152.99 C 98.67 151.77 97.58 150.89 96.37 151.02 L 95.35 151.13 C 94.14 151.26 93.26 152.35 93.39 153.57 C 93.52 154.78 94.61 155.66 95.82 155.53 Z M 96.84 155.43 L 97.89 155.31 C 99.10 155.18 99.98 154.09 99.85 152.87 C 99.72 151.66 98.63 150.78 97.41 150.91 L 96.36 151.02 C 95.15 151.15 94.27 152.24 94.40 153.46 C 94.53 154.68 95.62 155.56 96.84 155.43 Z M 97.89 155.32 L 98.97 155.20 C 100.19 155.07 101.07 153.97 100.94 152.75 C 100.81 151.53 99.71 150.65 98.49 150.78 L 97.41 150.90 C 96.19 151.03 95.31 152.13 95.44 153.35 C 95.57 154.57 96.67 155.45 97.89 155.32 Z M 98.97 155.21 L 100.01 155.09 C 101.23 154.96 102.11 153.86 101.98 152.64 C 101.84 151.42 100.75 150.53 99.52 150.67 L 98.49 150.78 C 97.27 150.91 96.39 152.01 96.52 153.23 C 96.65 154.46 97.75 155.34 98.97 155.21 Z M 100.01 155.10 L 100.92 155.00 C 102.14 154.86 103.03 153.76 102.89 152.54 C 102.76 151.31 101.66 150.43 100.43 150.56 L 99.52 150.66 C 98.30 150.80 97.41 151.90 97.55 153.12 C 97.68 154.35 98.78 155.23 100.01 155.10 Z M 100.92 155.00 L 101.86 154.90 C 103.08 154.76 103.97 153.66 103.84 152.43 C 103.70 151.21 102.60 150.32 101.37 150.46 L 100.43 150.56 C 99.21 150.69 98.32 151.80 98.46 153.02 C 98.59 154.25 99.69 155.14 100.92 155.00 Z M 101.86 154.90 L 102.82 154.80 C 104.05 154.66 104.93 153.56 104.80 152.33 C 104.66 151.10 103.56 150.21 102.33 150.35 L 101.37 150.45 C 100.14 150.59 99.25 151.69 99.39 152.92 C 99.52 154.15 100.63 155.04 101.86 154.90 Z M 102.82 154.80 L 103.80 154.69 C 105.03 154.56 105.91 153.45 105.78 152.22 C 105.64 150.99 104.54 150.10 103.31 150.24 L 102.33 150.34 C 101.10 150.48 100.21 151.59 100.34 152.82 C 100.48 154.05 101.59 154.94 102.82 154.80 Z M 103.80 154.70 L 104.79 154.59 C 106.02 154.45 106.91 153.34 106.78 152.11 C 106.65 150.88 105.54 149.99 104.30 150.12 L 103.31 150.23 C 102.07 150.37 101.18 151.48 101.32 152.71 C 101.45 153.94 102.56 154.83 103.80 154.70 Z M 104.79 154.59 L 105.81 154.48 C 107.04 154.35 107.93 153.24 107.80 152.00 C 107.66 150.77 106.55 149.88 105.32 150.01 L 104.30 150.12 C 103.07 150.25 102.18 151.36 102.31 152.60 C 102.45 153.83 103.56 154.73 104.79 154.59 Z M 105.81 154.48 L 106.83 154.37 C 108.07 154.24 108.97 153.13 108.83 151.89 C 108.70 150.65 107.59 149.76 106.35 149.89 L 105.32 150.01 C 104.08 150.14 103.19 151.25 103.32 152.49 C 103.46 153.73 104.57 154.62 105.81 154.48 Z M 106.83 154.38 L 107.88 154.26 C 109.12 154.13 110.01 153.02 109.88 151.78 C 109.74 150.54 108.63 149.64 107.39 149.78 L 106.35 149.89 C 105.11 150.02 104.21 151.14 104.35 152.38 C 104.48 153.61 105.59 154.51 106.83 154.38 Z M 107.88 154.27 L 108.93 154.15 C 110.17 154.02 111.07 152.91 110.94 151.67 C 110.80 150.43 109.69 149.53 108.45 149.66 L 107.39 149.77 C 106.15 149.91 105.26 151.02 105.39 152.26 C 105.52 153.50 106.63 154.40 107.88 154.27 Z M 108.93 154.16 L 109.97 154.05 C 111.22 153.92 112.12 152.80 111.99 151.56 C 111.85 150.31 110.74 149.41 109.50 149.55 L 108.45 149.66 C 107.21 149.79 106.31 150.90 106.44 152.15 C 106.57 153.39 107.69 154.29 108.93 154.16 Z M 109.97 154.05 L 110.92 153.95 C 112.17 153.82 113.07 152.70 112.94 151.46 C 112.81 150.21 111.69 149.31 110.45 149.44 L 109.50 149.54 C 108.25 149.67 107.35 150.79 107.48 152.03 C 107.61 153.28 108.73 154.18 109.97 154.05 Z M 110.92 153.95 L 111.88 153.85 C 113.13 153.72 114.03 152.61 113.90 151.36 C 113.77 150.11 112.66 149.21 111.41 149.34 L 110.45 149.44 C 109.20 149.57 108.30 150.69 108.43 151.93 C 108.56 153.18 109.68 154.08 110.92 153.95 Z M 111.88 153.85 L 112.85 153.75 C 114.10 153.62 115.00 152.51 114.87 151.26 C 114.74 150.01 113.63 149.11 112.38 149.24 L 111.41 149.34 C 110.16 149.47 109.26 150.58 109.39 151.83 C 109.52 153.08 110.63 153.98 111.88 153.85 Z M 112.85 153.75 L 113.82 153.65 C 115.07 153.52 115.98 152.41 115.85 151.16 C 115.72 149.91 114.60 149.00 113.36 149.13 L 112.38 149.23 C 111.13 149.36 110.22 150.48 110.35 151.73 C 110.48 152.98 111.60 153.88 112.85 153.75 Z M 113.82 153.66 L 114.81 153.55 C 116.06 153.43 116.97 152.31 116.84 151.06 C 116.71 149.81 115.59 148.90 114.34 149.03 L 113.36 149.13 C 112.11 149.26 111.20 150.38 111.33 151.63 C 111.46 152.88 112.57 153.78 113.82 153.66 Z M 114.81 153.56 L 115.80 153.45 C 117.05 153.33 117.96 152.21 117.83 150.96 C 117.70 149.71 116.58 148.80 115.33 148.93 L 114.34 149.03 C 113.09 149.16 112.18 150.27 112.31 151.53 C 112.44 152.78 113.56 153.69 114.81 153.56 Z M 115.80 153.46 L 116.80 153.35 C 118.05 153.22 118.96 152.11 118.84 150.85 C 118.71 149.60 117.59 148.69 116.34 148.82 L 115.33 148.92 C 114.08 149.05 113.17 150.17 113.30 151.42 C 113.43 152.67 114.55 153.58 115.80 153.46 Z M 116.80 153.36 L 117.81 153.25 C 119.06 153.12 119.98 152.00 119.85 150.75 C 119.72 149.50 118.60 148.59 117.35 148.72 L 116.34 148.82 C 115.08 148.95 114.17 150.07 114.30 151.32 C 114.43 152.57 115.55 153.48 116.80 153.36 Z M 117.81 153.25 L 118.83 153.15 C 120.09 153.02 121.00 151.90 120.87 150.65 C 120.74 149.39 119.62 148.48 118.37 148.61 L 117.35 148.71 C 116.09 148.84 115.18 149.96 115.31 151.22 C 115.44 152.47 116.56 153.38 117.81 153.25 Z M 118.83 153.15 L 119.86 153.05 C 121.12 152.92 122.03 151.80 121.90 150.54 C 121.77 149.29 120.65 148.37 119.40 148.50 L 118.37 148.61 C 117.11 148.74 116.20 149.86 116.33 151.11 C 116.46 152.37 117.58 153.28 118.83 153.15 Z M 119.86 153.05 L 120.90 152.94 C 122.16 152.81 123.07 151.69 122.94 150.43 C 122.81 149.18 121.69 148.26 120.43 148.39 L 119.40 148.50 C 118.14 148.63 117.23 149.75 117.35 151.01 C 117.48 152.26 118.61 153.18 119.86 153.05 Z M 120.90 152.94 L 121.90 152.84 C 123.15 152.71 124.07 151.59 123.94 150.33 C 123.81 149.07 122.69 148.16 121.43 148.29 L 120.43 148.39 C 119.18 148.52 118.26 149.64 118.39 150.90 C 118.52 152.16 119.64 153.07 120.90 152.94 Z M 121.90 152.84 L 122.87 152.74 C 124.13 152.61 125.04 151.49 124.91 150.23 C 124.79 148.97 123.66 148.06 122.40 148.19 L 121.43 148.29 C 120.17 148.42 119.26 149.54 119.39 150.80 C 119.52 152.06 120.64 152.97 121.90 152.84 Z M 122.87 152.74 L 123.85 152.64 C 125.11 152.51 126.03 151.39 125.90 150.13 C 125.77 148.87 124.64 147.95 123.38 148.08 L 122.40 148.19 C 121.14 148.32 120.23 149.44 120.36 150.70 C 120.49 151.96 121.61 152.87 122.87 152.74 Z M 123.86 152.64 L 124.84 152.54 C 126.10 152.41 127.02 151.28 126.89 150.02 C 126.76 148.77 125.63 147.85 124.37 147.98 L 123.38 148.08 C 122.12 148.21 121.21 149.34 121.34 150.60 C 121.47 151.86 122.60 152.77 123.86 152.64 Z M 124.84 152.54 L 125.84 152.44 C 127.10 152.30 128.01 151.18 127.88 149.92 C 127.75 148.66 126.62 147.75 125.36 147.88 L 124.37 147.98 C 123.11 148.11 122.20 149.24 122.33 150.50 C 122.46 151.76 123.59 152.67 124.84 152.54 Z M 125.84 152.44 L 126.84 152.33 C 128.10 152.20 129.01 151.07 128.88 149.81 C 128.74 148.55 127.62 147.64 126.36 147.77 L 125.36 147.88 C 124.10 148.01 123.19 149.14 123.32 150.40 C 123.45 151.66 124.58 152.57 125.84 152.44 Z M 126.84 152.33 L 127.84 152.23 C 129.10 152.09 130.01 150.96 129.88 149.70 C 129.74 148.45 128.62 147.53 127.36 147.67 L 126.36 147.77 C 125.10 147.90 124.18 149.03 124.32 150.29 C 124.45 151.55 125.58 152.47 126.84 152.33 Z M 127.84 152.23 L 128.84 152.12 C 130.10 151.99 131.02 150.86 130.88 149.60 C 130.75 148.34 129.62 147.42 128.36 147.56 L 127.35 147.66 C 126.09 147.80 125.18 148.93 125.32 150.19 C 125.45 151.45 126.58 152.36 127.84 152.23 Z M 128.84 152.12 L 129.85 152.01 C 131.11 151.88 132.02 150.75 131.89 149.49 C 131.75 148.23 130.62 147.31 129.36 147.45 L 128.35 147.56 C 127.09 147.69 126.18 148.82 126.32 150.08 C 126.45 151.34 127.58 152.26 128.84 152.12 Z M 129.85 152.01 L 130.85 151.91 C 132.12 151.77 133.03 150.64 132.89 149.37 C 132.75 148.11 131.62 147.20 130.36 147.34 L 129.36 147.45 C 128.09 147.59 127.18 148.72 127.32 149.98 C 127.46 151.24 128.59 152.15 129.85 152.01 Z M 130.86 151.91 L 131.86 151.80 C 133.12 151.66 134.03 150.52 133.89 149.26 C 133.76 148.00 132.62 147.09 131.36 147.23 L 130.36 147.34 C 129.10 147.48 128.19 148.61 128.32 149.87 C 128.46 151.13 129.60 152.04 130.86 151.91 Z M 131.86 151.80 L 132.87 151.69 C 134.13 151.55 135.04 150.41 134.90 149.15 C 134.76 147.89 133.62 146.98 132.36 147.12 L 131.36 147.23 C 130.10 147.37 129.19 148.50 129.33 149.77 C 129.47 151.03 130.60 151.94 131.86 151.80 Z M 132.87 151.69 L 133.87 151.57 C 135.13 151.43 136.04 150.29 135.90 149.03 C 135.76 147.77 134.62 146.86 133.36 147.00 L 132.36 147.12 C 131.10 147.26 130.19 148.40 130.33 149.66 C 130.47 150.92 131.61 151.83 132.87 151.69 Z M 133.87 151.57 L 134.88 151.46 C 136.14 151.32 137.05 150.18 136.91 148.92 C 136.76 147.65 135.62 146.75 134.36 146.89 L 133.36 147.00 C 132.09 147.15 131.19 148.29 131.33 149.55 C 131.47 150.81 132.61 151.72 133.87 151.57 Z M 134.88 151.46 L 135.89 151.35 C 137.15 151.20 138.06 150.06 137.91 148.80 C 137.77 147.53 136.62 146.63 135.36 146.77 L 134.36 146.89 C 133.10 147.03 132.19 148.17 132.33 149.44 C 132.48 150.70 133.62 151.61 134.88 151.46 Z M 135.89 151.35 L 136.89 151.23 C 138.15 151.08 139.06 149.94 138.91 148.68 C 138.77 147.41 137.62 146.51 136.36 146.66 L 135.36 146.77 C 134.10 146.92 133.19 148.06 133.34 149.33 C 133.48 150.59 134.63 151.49 135.89 151.35 Z M 136.89 151.23 L 137.89 151.12 C 139.16 150.97 140.06 149.82 139.91 148.56 C 139.76 147.29 138.62 146.39 137.35 146.54 L 136.36 146.65 C 135.09 146.80 134.19 147.95 134.34 149.21 C 134.48 150.48 135.63 151.38 136.89 151.23 Z M 137.89 151.12 L 138.89 151.00 C 140.15 150.85 141.06 149.70 140.91 148.44 C 140.76 147.17 139.61 146.27 138.35 146.42 L 137.35 146.54 C 136.09 146.69 135.18 147.83 135.33 149.10 C 135.48 150.36 136.63 151.27 137.89 151.12 Z M 138.89 151.00 L 139.88 150.88 C 141.15 150.73 142.05 149.58 141.90 148.32 C 141.75 147.05 140.60 146.15 139.34 146.30 L 138.35 146.42 C 137.08 146.57 136.18 147.72 136.33 148.98 C 136.48 150.25 137.63 151.15 138.89 151.00 Z M 139.89 150.88 L 140.88 150.76 C 142.14 150.61 143.05 149.46 142.89 148.20 C 142.74 146.93 141.59 146.03 140.33 146.18 L 139.34 146.30 C 138.07 146.45 137.17 147.60 137.32 148.87 C 137.47 150.13 138.62 151.04 139.89 150.88 Z M 140.88 150.77 L 141.87 150.65 C 143.13 150.49 144.04 149.34 143.89 148.08 C 143.73 146.81 142.58 145.91 141.31 146.06 L 140.33 146.18 C 139.06 146.33 138.16 147.48 138.31 148.75 C 138.46 150.02 139.61 150.92 140.88 150.77 Z M 141.87 150.65 L 142.86 150.53 C 144.12 150.37 145.03 149.22 144.87 147.96 C 144.72 146.69 143.57 145.78 142.30 145.94 L 141.31 146.06 C 140.05 146.21 139.14 147.36 139.30 148.63 C 139.45 149.90 140.60 150.80 141.87 150.65 Z M 142.86 150.53 L 143.84 150.41 C 145.11 150.26 146.01 149.10 145.86 147.83 C 145.71 146.57 144.55 145.66 143.28 145.82 L 142.30 145.94 C 141.03 146.09 140.13 147.24 140.28 148.51 C 140.44 149.78 141.59 150.68 142.86 150.53 Z M 143.84 150.41 L 144.83 150.29 C 146.10 150.14 147.00 148.98 146.85 147.71 C 146.69 146.44 145.54 145.54 144.27 145.70 L 143.28 145.82 C 142.01 145.97 141.11 147.12 141.27 148.39 C 141.42 149.66 142.58 150.57 143.84 150.41 Z M 144.83 150.29 L 145.81 150.17 C 147.08 150.02 147.99 148.86 147.83 147.59 C 147.67 146.32 146.52 145.42 145.25 145.57 L 144.27 145.69 C 143.00 145.85 142.09 147.00 142.25 148.27 C 142.40 149.54 143.56 150.45 144.83 150.29 Z M 145.81 150.17 L 146.80 150.05 C 148.07 149.90 148.97 148.74 148.81 147.47 C 148.66 146.20 147.50 145.30 146.23 145.45 L 145.25 145.57 C 143.98 145.73 143.08 146.88 143.23 148.15 C 143.39 149.42 144.54 150.33 145.81 150.17 Z M 146.80 150.05 L 147.78 149.93 C 149.05 149.77 149.95 148.62 149.80 147.35 C 149.64 146.08 148.49 145.18 147.22 145.33 L 146.23 145.45 C 144.96 145.61 144.06 146.76 144.22 148.03 C 144.37 149.30 145.53 150.21 146.80 150.05 Z M 147.78 149.93 L 148.77 149.81 C 150.04 149.65 150.94 148.50 150.78 147.23 C 150.63 145.96 149.47 145.06 148.20 145.21 L 147.22 145.33 C 145.95 145.49 145.05 146.64 145.20 147.91 C 145.36 149.18 146.51 150.08 147.78 149.93 Z M 148.77 149.81 L 149.75 149.69 C 151.02 149.53 151.92 148.38 151.77 147.11 C 151.61 145.84 150.46 144.94 149.19 145.09 L 148.20 145.22 C 146.94 145.37 146.03 146.52 146.19 147.79 C 146.35 149.06 147.50 149.96 148.77 149.81 Z M 149.75 149.68 L 150.74 149.56 C 152.00 149.41 152.91 148.26 152.75 146.99 C 152.60 145.72 151.44 144.82 150.18 144.98 L 149.19 145.10 C 147.92 145.25 147.02 146.40 147.18 147.67 C 147.33 148.94 148.48 149.84 149.75 149.68 Z M 150.74 149.56 L 151.72 149.44 C 152.99 149.29 153.89 148.13 153.74 146.87 C 153.58 145.60 152.43 144.70 151.16 144.86 L 150.18 144.98 C 148.91 145.13 148.01 146.28 148.16 147.55 C 148.32 148.82 149.47 149.72 150.74 149.56 Z M 151.72 149.44 L 152.71 149.32 C 153.98 149.17 154.88 148.01 154.73 146.75 C 154.57 145.48 153.42 144.58 152.15 144.74 L 151.16 144.86 C 149.90 145.01 149.00 146.16 149.15 147.43 C 149.31 148.69 150.46 149.59 151.72 149.44 Z M 152.71 149.32 L 153.70 149.20 C 154.97 149.04 155.87 147.89 155.72 146.63 C 155.56 145.36 154.41 144.46 153.15 144.62 L 152.16 144.74 C 150.89 144.89 149.99 146.04 150.14 147.31 C 150.30 148.57 151.45 149.47 152.71 149.32 Z M 153.70 149.20 L 154.70 149.08 C 155.96 148.92 156.86 147.77 156.71 146.51 C 156.56 145.24 155.41 144.34 154.14 144.50 L 153.15 144.62 C 151.88 144.77 150.98 145.92 151.14 147.19 C 151.29 148.45 152.44 149.35 153.70 149.20 Z M 154.70 149.07 L 155.70 148.95 C 156.96 148.80 157.86 147.65 157.71 146.39 C 157.55 145.13 156.41 144.23 155.14 144.38 L 154.14 144.50 C 152.88 144.65 151.98 145.80 152.13 147.06 C 152.29 148.33 153.43 149.23 154.70 149.07 Z M 155.70 148.95 L 156.70 148.83 C 157.96 148.68 158.86 147.53 158.71 146.27 C 158.56 145.01 157.41 144.11 156.15 144.26 L 155.14 144.38 C 153.88 144.53 152.98 145.68 153.13 146.94 C 153.29 148.20 154.43 149.10 155.70 148.95 Z M 156.70 148.83 L 157.70 148.71 C 158.97 148.56 159.87 147.41 159.72 146.15 C 159.56 144.89 158.42 143.99 157.16 144.14 L 156.15 144.26 C 154.89 144.41 153.99 145.56 154.14 146.82 C 154.29 148.08 155.43 148.98 156.70 148.83 Z M 157.70 148.71 L 158.68 148.59 C 159.95 148.44 160.85 147.30 160.70 146.04 C 160.54 144.77 159.40 143.87 158.14 144.02 L 157.16 144.14 C 155.90 144.29 155.00 145.44 155.15 146.70 C 155.30 147.96 156.44 148.86 157.70 148.71 Z M 158.68 148.59 L 159.63 148.48 C 160.89 148.33 161.79 147.18 161.64 145.92 C 161.49 144.66 160.35 143.76 159.09 143.91 L 158.14 144.03 C 156.88 144.18 155.98 145.32 156.13 146.58 C 156.28 147.84 157.42 148.74 158.68 148.59 Z M 159.63 148.47 L 160.58 148.36 C 161.84 148.21 162.74 147.07 162.59 145.81 C 162.44 144.56 161.30 143.66 160.05 143.80 L 159.09 143.92 C 157.83 144.06 156.93 145.20 157.08 146.46 C 157.23 147.72 158.37 148.62 159.63 148.47 Z M 160.58 148.36 L 161.54 148.25 C 162.80 148.10 163.70 146.96 163.55 145.70 C 163.40 144.45 162.27 143.55 161.01 143.69 L 160.05 143.81 C 158.79 143.95 157.89 145.09 158.04 146.35 C 158.19 147.61 159.32 148.51 160.58 148.36 Z M 161.54 148.24 L 162.51 148.13 C 163.76 147.99 164.66 146.85 164.52 145.60 C 164.37 144.34 163.24 143.44 161.98 143.59 L 161.01 143.70 C 159.76 143.84 158.86 144.98 159.00 146.23 C 159.15 147.49 160.28 148.39 161.54 148.24 Z M 162.50 148.13 L 163.48 148.02 C 164.73 147.87 165.63 146.74 165.49 145.49 C 165.34 144.23 164.21 143.33 162.96 143.48 L 161.98 143.59 C 160.73 143.73 159.83 144.86 159.97 146.12 C 160.12 147.37 161.25 148.27 162.50 148.13 Z M 163.47 148.01 L 164.46 147.90 C 165.71 147.76 166.61 146.63 166.47 145.38 C 166.33 144.13 165.20 143.23 163.94 143.37 L 162.96 143.48 C 161.71 143.62 160.81 144.75 160.95 146.00 C 161.09 147.26 162.22 148.16 163.47 148.01 Z M 164.45 147.90 L 165.45 147.79 C 166.70 147.65 167.60 146.52 167.46 145.27 C 167.32 144.02 166.19 143.12 164.94 143.26 L 163.95 143.37 C 162.70 143.51 161.80 144.64 161.94 145.89 C 162.08 147.14 163.20 148.04 164.45 147.90 Z M 165.44 147.79 L 166.44 147.68 C 167.69 147.54 168.60 146.42 168.46 145.17 C 168.32 143.92 167.20 143.01 165.95 143.15 L 164.94 143.26 C 163.69 143.40 162.79 144.52 162.93 145.77 C 163.07 147.02 164.19 147.93 165.44 147.79 Z M 166.44 147.67 L 167.45 147.57 C 168.70 147.43 169.60 146.31 169.47 145.06 C 169.33 143.81 168.21 142.91 166.96 143.04 L 165.95 143.15 C 164.70 143.29 163.80 144.41 163.94 145.66 C 164.07 146.91 165.19 147.81 166.44 147.67 Z M 167.45 147.56 L 168.47 147.45 C 169.72 147.32 170.62 146.20 170.49 144.96 C 170.36 143.71 169.24 142.81 167.99 142.94 L 166.97 143.05 C 165.72 143.18 164.82 144.30 164.95 145.55 C 165.08 146.79 166.20 147.70 167.45 147.56 Z M 168.47 147.45 L 169.50 147.34 C 170.75 147.21 171.65 146.10 171.52 144.85 C 171.39 143.61 170.27 142.70 169.03 142.83 L 167.99 142.94 C 166.75 143.07 165.84 144.19 165.97 145.43 C 166.11 146.68 167.22 147.58 168.47 147.45 Z M 169.50 147.34 L 170.54 147.23 C 171.79 147.11 172.69 145.99 172.56 144.75 C 172.44 143.50 171.32 142.60 170.08 142.73 L 169.03 142.83 C 167.79 142.96 166.88 144.07 167.01 145.32 C 167.14 146.56 168.25 147.47 169.50 147.34 Z M 170.54 147.23 L 171.58 147.13 C 172.82 147.00 173.73 145.89 173.60 144.65 C 173.48 143.41 172.37 142.50 171.13 142.63 L 170.08 142.73 C 168.84 142.85 167.94 143.96 168.06 145.21 C 168.19 146.45 169.29 147.36 170.54 147.23 Z M 171.57 147.12 L 172.56 147.02 C 173.80 146.90 174.71 145.80 174.59 144.56 C 174.47 143.32 173.36 142.41 172.12 142.53 L 171.13 142.63 C 169.89 142.75 168.98 143.86 169.10 145.10 C 169.23 146.34 170.33 147.24 171.57 147.12 Z M 172.56 147.02 L 173.56 146.92 C 174.80 146.80 175.70 145.70 175.58 144.46 C 175.46 143.22 174.36 142.32 173.12 142.44 L 172.12 142.53 C 170.89 142.65 169.98 143.76 170.10 145.00 C 170.22 146.23 171.32 147.14 172.56 147.02 Z M 173.55 146.92 L 174.56 146.82 C 175.80 146.71 176.70 145.61 176.59 144.37 C 176.47 143.14 175.37 142.23 174.13 142.35 L 173.13 142.44 C 171.89 142.56 170.98 143.66 171.10 144.89 C 171.22 146.13 172.32 147.04 173.55 146.92 Z M 174.56 146.82 L 175.57 146.73 C 176.80 146.61 177.71 145.52 177.59 144.28 C 177.48 143.05 176.38 142.14 175.15 142.25 L 174.14 142.35 C 172.90 142.47 171.99 143.56 172.11 144.79 C 172.23 146.03 173.32 146.94 174.56 146.82 Z M 175.56 146.72 L 176.58 146.63 C 177.81 146.51 178.72 145.42 178.60 144.19 C 178.49 142.96 177.40 142.05 176.16 142.16 L 175.15 142.26 C 173.92 142.37 173.01 143.46 173.13 144.70 C 173.24 145.93 174.33 146.84 175.56 146.72 Z M 176.57 146.62 L 177.59 146.53 C 178.82 146.42 179.73 145.33 179.61 144.10 C 179.50 142.87 178.41 141.96 177.18 142.08 L 176.17 142.17 C 174.94 142.28 174.03 143.37 174.14 144.60 C 174.26 145.83 175.34 146.74 176.57 146.62 Z M 177.59 146.53 L 178.60 146.44 C 179.83 146.33 180.73 145.24 180.62 144.01 C 180.51 142.78 179.43 141.88 178.20 141.99 L 177.18 142.08 C 175.96 142.19 175.05 143.28 175.16 144.50 C 175.27 145.73 176.36 146.64 177.59 146.53 Z M 178.60 146.43 L 179.61 146.34 C 180.83 146.23 181.74 145.15 181.63 143.92 C 181.52 142.70 180.44 141.79 179.21 141.90 L 178.20 141.99 C 176.97 142.10 176.07 143.18 176.18 144.41 C 176.29 145.64 177.37 146.54 178.60 146.43 Z M 179.61 146.34 L 180.61 146.25 C 181.84 146.14 182.74 145.06 182.63 143.84 C 182.52 142.61 181.44 141.71 180.22 141.82 L 179.21 141.91 C 177.99 142.01 177.09 143.09 177.19 144.32 C 177.30 145.54 178.38 146.45 179.61 146.34 Z M 180.61 146.24 L 181.61 146.16 C 182.83 146.05 183.73 144.97 183.63 143.75 C 183.52 142.53 182.44 141.63 181.22 141.73 L 180.22 141.82 C 179.00 141.93 178.10 143.01 178.20 144.23 C 178.31 145.45 179.39 146.35 180.61 146.24 Z M 181.61 146.15 L 182.60 146.07 C 183.82 145.96 184.72 144.89 184.61 143.67 C 184.51 142.45 183.43 141.55 182.21 141.65 L 181.22 141.74 C 180.00 141.84 179.10 142.92 179.21 144.14 C 179.31 145.36 180.39 146.26 181.61 146.15 Z M 182.60 146.06 L 183.57 145.98 C 184.79 145.87 185.69 144.80 185.59 143.58 C 185.48 142.37 184.41 141.47 183.19 141.57 L 182.21 141.66 C 181.00 141.76 180.10 142.83 180.20 144.05 C 180.31 145.27 181.38 146.17 182.60 146.06 Z M 183.57 145.97 L 184.54 145.89 C 185.75 145.79 186.65 144.72 186.55 143.50 C 186.44 142.29 185.37 141.39 184.16 141.49 L 183.19 141.57 C 181.98 141.68 181.08 142.75 181.18 143.96 C 181.29 145.18 182.36 146.08 183.57 145.97 Z M 184.54 145.89 L 185.49 145.80 C 186.70 145.70 187.60 144.63 187.50 143.42 C 187.39 142.21 186.32 141.31 185.11 141.41 L 184.16 141.50 C 182.95 141.60 182.05 142.67 182.15 143.88 C 182.26 145.09 183.33 145.99 184.54 145.89 Z M 185.49 145.80 L 186.59 145.70 C 187.80 145.60 188.69 144.54 188.59 143.33 C 188.49 142.12 187.42 141.22 186.21 141.33 L 185.11 141.42 C 183.90 141.52 183.01 142.59 183.11 143.80 C 183.22 145.01 184.28 145.90 185.49 145.80 Z M 186.59 145.70 L 187.68 145.60 C 188.88 145.50 189.77 144.44 189.67 143.24 C 189.57 142.03 188.51 141.14 187.30 141.24 L 186.21 141.33 C 185.01 141.44 184.11 142.50 184.22 143.70 C 184.32 144.91 185.38 145.80 186.59 145.70 Z M 187.67 145.60 L 188.74 145.51 C 189.94 145.40 190.83 144.35 190.73 143.15 C 190.63 141.95 189.57 141.06 188.37 141.16 L 187.31 141.25 C 186.10 141.35 185.21 142.40 185.31 143.61 C 185.42 144.81 186.47 145.70 187.67 145.60 Z M 188.74 145.50 L 189.78 145.41 C 190.98 145.31 191.87 144.26 191.77 143.06 C 191.67 141.87 190.62 140.98 189.42 141.08 L 188.38 141.16 C 187.18 141.26 186.29 142.32 186.39 143.51 C 186.49 144.71 187.54 145.60 188.74 145.50 Z M 189.78 145.40 L 190.80 145.32 C 192.00 145.22 192.88 144.17 192.79 142.98 C 192.69 141.79 191.64 140.90 190.45 141.00 L 189.42 141.08 C 188.23 141.18 187.34 142.23 187.44 143.42 C 187.54 144.61 188.59 145.50 189.78 145.40 Z M 190.80 145.31 L 191.80 145.23 C 192.99 145.13 193.88 144.09 193.78 142.90 C 193.69 141.72 192.64 140.83 191.46 140.93 L 190.45 141.01 C 189.26 141.10 188.38 142.15 188.47 143.33 C 188.57 144.52 189.61 145.41 190.80 145.31 Z M 191.80 145.22 L 192.78 145.14 C 193.97 145.05 194.85 144.02 194.76 142.83 C 194.66 141.65 193.63 140.76 192.44 140.86 L 191.46 140.93 C 190.28 141.03 189.39 142.06 189.49 143.25 C 189.58 144.43 190.62 145.32 191.80 145.22 Z M 192.78 145.14 L 193.74 145.06 C 194.92 144.97 195.81 143.94 195.72 142.76 C 195.63 141.58 194.60 140.70 193.42 140.79 L 192.45 140.86 C 191.27 140.95 190.39 141.98 190.48 143.16 C 190.57 144.34 191.60 145.23 192.78 145.14 Z M 193.74 145.06 L 194.69 144.99 C 195.86 144.90 196.74 143.87 196.66 142.70 C 196.57 141.52 195.54 140.64 194.37 140.73 L 193.42 140.80 C 192.25 140.88 191.36 141.91 191.45 143.08 C 191.54 144.26 192.56 145.14 193.74 145.06 Z M 194.68 144.98 L 195.61 144.91 C 196.78 144.83 197.66 143.81 197.58 142.64 C 197.50 141.47 196.48 140.58 195.31 140.67 L 194.38 140.73 C 193.20 140.82 192.32 141.84 192.40 143.01 C 192.49 144.18 193.51 145.06 194.68 144.98 Z M 195.60 144.90 L 196.51 144.84 C 197.68 144.76 198.56 143.75 198.49 142.58 C 198.41 141.42 197.39 140.53 196.23 140.61 L 195.31 140.67 C 194.15 140.75 193.26 141.77 193.34 142.93 C 193.42 144.10 194.43 144.98 195.60 144.90 Z M 196.51 144.83 L 197.40 144.78 C 198.57 144.70 199.45 143.70 199.38 142.53 C 199.30 141.37 198.30 140.49 197.13 140.56 L 196.24 140.62 C 195.07 140.69 194.19 141.70 194.26 142.86 C 194.34 144.03 195.34 144.91 196.51 144.83 Z M 197.39 144.77 L 198.47 144.70 C 199.63 144.64 200.51 143.64 200.44 142.48 C 200.37 141.32 199.37 140.44 198.21 140.51 L 197.14 140.57 C 195.98 140.64 195.10 141.64 195.17 142.80 C 195.24 143.95 196.23 144.84 197.39 144.77 Z M 198.45 144.69 L 199.52 144.64 C 200.68 144.57 201.56 143.59 201.50 142.43 C 201.43 141.28 200.45 140.39 199.29 140.46 L 198.23 140.52 C 197.07 140.58 196.19 141.57 196.25 142.72 C 196.31 143.87 197.30 144.76 198.45 144.69 Z M 199.51 144.63 L 200.56 144.57 C 201.70 144.52 202.59 143.54 202.53 142.39 C 202.47 141.24 201.50 140.36 200.35 140.42 L 199.30 140.47 C 198.16 140.53 197.27 141.50 197.33 142.65 C 197.39 143.80 198.36 144.68 199.51 144.63 Z M 200.55 144.56 L 201.57 144.52 C 202.71 144.47 203.60 143.50 203.55 142.35 C 203.49 141.21 202.53 140.33 201.38 140.38 L 200.36 140.43 C 199.22 140.48 198.33 141.45 198.38 142.59 C 198.44 143.73 199.40 144.62 200.55 144.56 Z M 201.56 144.51 L 202.57 144.47 C 203.70 144.42 204.59 143.46 204.54 142.32 C 204.49 141.19 203.54 140.30 202.40 140.35 L 201.39 140.39 C 200.26 140.44 199.37 141.39 199.42 142.53 C 199.46 143.67 200.42 144.55 201.56 144.51 Z M 202.56 144.46 L 203.54 144.42 C 204.67 144.38 205.56 143.43 205.52 142.30 C 205.48 141.17 204.53 140.28 203.39 140.32 L 202.41 140.36 C 201.28 140.40 200.39 141.35 200.43 142.48 C 200.47 143.61 201.42 144.50 202.56 144.46 Z M 203.53 144.41 L 204.50 144.38 C 205.62 144.34 206.51 143.40 206.47 142.28 C 206.44 141.15 205.50 140.27 204.37 140.30 L 203.40 140.33 C 202.28 140.37 201.39 141.31 201.43 142.44 C 201.47 143.56 202.41 144.45 203.53 144.41 Z M 204.49 144.37 L 205.44 144.34 C 206.56 144.31 207.44 143.38 207.41 142.26 C 207.38 141.14 206.45 140.26 205.33 140.29 L 204.38 140.31 C 203.26 140.34 202.38 141.28 202.41 142.40 C 202.44 143.52 203.37 144.40 204.49 144.37 Z M 205.43 144.33 L 206.36 144.31 C 207.48 144.29 208.36 143.36 208.33 142.25 C 208.31 141.13 207.38 140.25 206.27 140.28 L 205.34 140.30 C 204.22 140.32 203.34 141.25 203.37 142.36 C 203.39 143.48 204.32 144.36 205.43 144.33 Z M 206.36 144.30 L 207.31 144.28 C 208.41 144.26 209.30 143.34 209.27 142.24 C 209.25 141.13 208.34 140.25 207.23 140.27 L 206.28 140.29 C 205.17 140.31 204.29 141.22 204.31 142.33 C 204.33 143.44 205.25 144.32 206.36 144.30 Z M 207.30 144.27 L 208.36 144.25 C 209.46 144.24 210.34 143.33 210.32 142.23 C 210.31 141.12 209.40 140.25 208.30 140.26 L 207.23 140.28 C 206.13 140.30 205.25 141.20 205.27 142.31 C 205.29 143.41 206.20 144.29 207.30 144.27 Z M 208.35 144.24 L 209.39 144.23 C 210.49 144.22 211.37 143.32 211.35 142.22 C 211.34 141.13 210.44 140.25 209.35 140.26 L 208.30 140.27 C 207.21 140.29 206.33 141.19 206.34 142.28 C 206.36 143.38 207.26 144.26 208.35 144.24 Z M 209.39 144.22 L 210.41 144.21 C 211.50 144.20 212.37 143.31 212.36 142.22 C 212.35 141.13 211.46 140.26 210.37 140.26 L 209.35 140.27 C 208.26 140.28 207.39 141.17 207.40 142.26 C 207.41 143.35 208.30 144.23 209.39 144.22 Z M 210.40 144.20 L 211.41 144.19 C 212.49 144.18 213.36 143.30 213.35 142.22 C 213.35 141.14 212.47 140.26 211.38 140.27 L 210.38 140.28 C 209.30 140.28 208.43 141.17 208.43 142.25 C 208.44 143.33 209.32 144.20 210.40 144.20 Z M 211.40 144.18 L 212.39 144.17 C 213.46 144.17 214.33 143.30 214.33 142.22 C 214.33 141.14 213.45 140.27 212.37 140.28 L 211.39 140.28 C 210.31 140.29 209.44 141.16 209.45 142.24 C 209.45 143.31 210.33 144.18 211.40 144.18 Z M 212.39 144.16 L 213.36 144.16 C 214.43 144.16 215.29 143.29 215.29 142.22 C 215.29 141.15 214.42 140.29 213.35 140.29 L 212.38 140.29 C 211.31 140.29 210.44 141.16 210.45 142.23 C 210.45 143.30 211.32 144.16 212.39 144.16 Z M 213.35 144.15 L 214.31 144.15 C 215.37 144.15 216.23 143.29 216.23 142.22 C 216.23 141.16 215.37 140.30 214.31 140.30 L 213.35 140.30 C 212.29 140.30 211.43 141.16 211.43 142.23 C 211.43 143.29 212.29 144.15 213.35 144.15 Z M 214.31 144.14 L 215.25 144.14 C 216.31 144.14 217.16 143.28 217.16 142.22 C 217.16 141.17 216.31 140.31 215.25 140.31 L 214.31 140.31 C 213.25 140.31 212.40 141.17 212.40 142.22 C 212.40 143.28 213.25 144.14 214.31 144.14 Z M 215.25 144.12 L 216.29 144.12 C 217.34 144.12 218.19 143.27 218.19 142.22 C 218.19 141.18 217.34 140.32 216.29 140.32 L 215.25 140.32 C 214.20 140.32 213.35 141.17 213.35 142.22 C 213.35 143.27 214.20 144.12 215.25 144.12 Z M 216.29 144.11 L 217.31 144.11 C 218.35 144.12 219.20 143.27 219.20 142.23 C 219.20 141.19 218.36 140.34 217.31 140.34 L 216.29 140.34 C 215.25 140.33 214.40 141.18 214.40 142.22 C 214.40 143.26 215.24 144.11 216.29 144.11 Z M 217.30 144.10 L 218.31 144.11 C 219.35 144.11 220.19 143.27 220.20 142.24 C 220.20 141.20 219.37 140.36 218.33 140.35 L 217.32 140.35 C 216.28 140.34 215.44 141.18 215.43 142.22 C 215.43 143.26 216.27 144.10 217.30 144.10 Z M 218.31 144.10 L 219.31 144.10 C 220.34 144.11 221.18 143.28 221.19 142.25 C 221.19 141.22 220.37 140.38 219.34 140.37 L 218.34 140.36 C 217.31 140.36 216.46 141.19 216.46 142.22 C 216.45 143.25 217.28 144.09 218.31 144.10 Z M 219.30 144.09 L 220.29 144.10 C 221.31 144.12 222.15 143.30 222.16 142.27 C 222.18 141.25 221.36 140.41 220.33 140.40 L 219.34 140.38 C 218.32 140.37 217.48 141.19 217.47 142.21 C 217.45 143.24 218.27 144.08 219.30 144.09 Z M 220.27 144.09 L 221.25 144.11 C 222.27 144.13 223.11 143.32 223.13 142.30 C 223.15 141.29 222.34 140.45 221.33 140.43 L 220.35 140.41 C 219.33 140.39 218.49 141.20 218.47 142.21 C 218.45 143.23 219.26 144.07 220.27 144.09 Z M 221.24 144.10 L 222.21 144.13 C 223.22 144.15 224.06 143.36 224.09 142.34 C 224.12 141.33 223.32 140.49 222.31 140.46 L 221.34 140.44 C 220.33 140.41 219.49 141.21 219.46 142.22 C 219.43 143.23 220.23 144.07 221.24 144.10 Z M 222.20 144.11 L 223.19 144.15 C 224.19 144.19 225.03 143.40 225.07 142.40 C 225.11 141.39 224.32 140.55 223.32 140.51 L 222.33 140.48 C 221.32 140.44 220.48 141.22 220.44 142.23 C 220.41 143.23 221.19 144.08 222.20 144.11 Z M 223.17 144.14 L 224.17 144.18 C 225.16 144.23 226.01 143.46 226.06 142.46 C 226.11 141.47 225.34 140.62 224.34 140.57 L 223.34 140.53 C 222.34 140.48 221.50 141.25 221.45 142.24 C 221.40 143.24 222.17 144.09 223.17 144.14 Z M 224.14 144.17 L 225.14 144.23 C 226.13 144.29 226.98 143.54 227.04 142.55 C 227.10 141.56 226.35 140.71 225.36 140.65 L 224.36 140.59 C 223.37 140.53 222.52 141.28 222.46 142.27 C 222.40 143.26 223.15 144.11 224.14 144.17 Z M 225.11 144.22 L 226.11 144.29 C 227.09 144.37 227.95 143.63 228.02 142.65 C 228.10 141.67 227.36 140.81 226.38 140.74 L 225.39 140.66 C 224.40 140.59 223.55 141.32 223.47 142.30 C 223.40 143.29 224.13 144.14 225.11 144.22 Z M 226.08 144.28 L 227.07 144.37 C 228.05 144.46 228.91 143.75 229.00 142.77 C 229.09 141.80 228.38 140.93 227.40 140.84 L 226.41 140.75 C 225.43 140.66 224.57 141.38 224.48 142.35 C 224.39 143.33 225.10 144.19 226.08 144.28 Z M 227.04 144.36 L 228.03 144.47 C 229.00 144.58 229.87 143.88 229.98 142.91 C 230.09 141.95 229.39 141.08 228.42 140.97 L 227.43 140.86 C 226.47 140.75 225.59 141.45 225.49 142.41 C 225.38 143.38 226.07 144.25 227.04 144.36 Z M 228.00 144.45 L 228.99 144.58 C 229.95 144.71 230.83 144.04 230.96 143.08 C 231.08 142.12 230.41 141.24 229.45 141.12 L 228.46 140.98 C 227.50 140.86 226.62 141.53 226.49 142.49 C 226.37 143.45 227.04 144.33 228.00 144.45 Z M 228.96 144.57 L 229.97 144.72 C 230.92 144.87 231.81 144.22 231.95 143.27 C 232.10 142.32 231.45 141.44 230.50 141.29 L 229.49 141.13 C 228.54 140.99 227.65 141.64 227.50 142.58 C 227.36 143.53 228.01 144.42 228.96 144.57 Z M 229.93 144.71 L 230.96 144.89 C 231.90 145.06 232.80 144.43 232.96 143.49 C 233.13 142.55 232.50 141.66 231.56 141.49 L 230.54 141.31 C 229.60 141.14 228.70 141.77 228.53 142.71 C 228.37 143.65 228.99 144.54 229.93 144.71 Z M 230.93 144.87 L 231.94 145.08 C 232.87 145.26 233.78 144.66 233.96 143.73 C 234.15 142.80 233.54 141.89 232.61 141.71 L 231.60 141.51 C 230.67 141.32 229.76 141.93 229.58 142.86 C 229.39 143.79 230.00 144.69 230.93 144.87 Z M 231.91 145.06 L 232.91 145.28 C 233.83 145.48 234.74 144.90 234.95 143.97 C 235.15 143.05 234.56 142.14 233.64 141.94 L 232.64 141.72 C 231.72 141.52 230.81 142.11 230.61 143.03 C 230.41 143.95 230.99 144.86 231.91 145.06 Z M 232.88 145.26 L 233.86 145.49 C 234.77 145.71 235.68 145.15 235.90 144.24 C 236.12 143.32 235.56 142.41 234.64 142.19 L 233.67 141.96 C 232.76 141.74 231.84 142.30 231.63 143.22 C 231.41 144.13 231.97 145.04 232.88 145.26 Z M 233.83 145.47 L 234.77 145.72 C 235.67 145.95 236.59 145.41 236.82 144.51 C 237.06 143.60 236.51 142.68 235.61 142.45 L 234.67 142.21 C 233.77 141.98 232.85 142.52 232.62 143.42 C 232.38 144.32 232.93 145.24 233.83 145.47 Z M 234.74 145.70 L 235.63 145.95 C 236.53 146.20 237.45 145.68 237.70 144.79 C 237.95 143.89 237.43 142.97 236.54 142.72 L 235.64 142.47 C 234.75 142.22 233.82 142.74 233.57 143.63 C 233.33 144.53 233.85 145.45 234.74 145.70 Z M 235.60 145.93 L 236.57 146.22 C 237.45 146.49 238.38 145.99 238.65 145.11 C 238.91 144.23 238.42 143.30 237.53 143.03 L 236.57 142.74 C 235.69 142.47 234.76 142.97 234.49 143.85 C 234.22 144.73 234.72 145.66 235.60 145.93 Z M 236.53 146.20 L 237.48 146.52 C 238.34 146.81 239.28 146.34 239.57 145.47 C 239.86 144.60 239.40 143.67 238.53 143.38 L 237.58 143.06 C 236.71 142.77 235.77 143.23 235.48 144.10 C 235.19 144.97 235.66 145.91 236.53 146.20 Z M 237.43 146.49 L 238.34 146.83 C 239.19 147.15 240.14 146.71 240.46 145.86 C 240.77 145.01 240.34 144.06 239.49 143.74 L 238.58 143.40 C 237.73 143.09 236.78 143.52 236.46 144.37 C 236.14 145.22 236.58 146.17 237.43 146.49 Z M 238.29 146.80 L 239.18 147.17 C 240.01 147.51 240.97 147.12 241.32 146.29 C 241.67 145.45 241.27 144.49 240.44 144.15 L 239.54 143.78 C 238.71 143.43 237.75 143.82 237.40 144.66 C 237.06 145.49 237.45 146.45 238.29 146.80 Z M 239.13 147.13 L 240.03 147.55 C 240.84 147.92 241.81 147.57 242.18 146.75 C 242.56 145.94 242.20 144.97 241.39 144.60 L 240.49 144.18 C 239.67 143.81 238.71 144.16 238.33 144.98 C 237.96 145.79 238.31 146.76 239.13 147.13 Z M 239.98 147.51 L 240.90 147.98 C 241.70 148.38 242.67 148.06 243.07 147.26 C 243.47 146.46 243.15 145.49 242.35 145.09 L 241.43 144.63 C 240.64 144.23 239.67 144.55 239.26 145.34 C 238.86 146.14 239.18 147.11 239.98 147.51 Z M 240.86 147.95 L 241.71 148.41 C 242.49 148.83 243.47 148.54 243.89 147.76 C 244.31 146.98 244.02 146.00 243.24 145.58 L 242.39 145.12 C 241.61 144.70 240.64 144.99 240.21 145.77 C 239.79 146.55 240.08 147.53 240.86 147.95 Z M 241.67 148.38 L 242.53 148.89 C 243.30 149.33 244.29 149.07 244.73 148.31 C 245.18 147.54 244.92 146.55 244.15 146.11 L 243.28 145.61 C 242.52 145.16 241.53 145.42 241.09 146.19 C 240.64 146.95 240.90 147.94 241.67 148.38 Z M 242.49 148.86 L 243.36 149.40 C 244.11 149.87 245.10 149.64 245.57 148.89 C 246.04 148.14 245.81 147.15 245.06 146.68 L 244.19 146.14 C 243.44 145.67 242.45 145.89 241.98 146.65 C 241.51 147.40 241.74 148.39 242.49 148.86 Z M 243.31 149.37 L 244.15 149.94 C 244.88 150.44 245.88 150.25 246.38 149.52 C 246.88 148.79 246.69 147.79 245.96 147.29 L 245.11 146.72 C 244.38 146.22 243.38 146.41 242.88 147.14 C 242.38 147.87 242.57 148.87 243.31 149.37 Z M 244.10 149.90 L 244.91 150.51 C 245.61 151.04 246.62 150.89 247.15 150.19 C 247.68 149.48 247.53 148.47 246.83 147.94 L 246.01 147.34 C 245.31 146.81 244.30 146.95 243.77 147.66 C 243.24 148.37 243.39 149.37 244.10 149.90 Z M 244.84 150.45 L 245.60 151.09 C 246.28 151.65 247.28 151.56 247.85 150.88 C 248.42 150.21 248.33 149.20 247.65 148.63 L 246.89 148.00 C 246.22 147.43 245.21 147.52 244.64 148.20 C 244.07 148.88 244.16 149.89 244.84 150.45 Z M 245.51 151.00 L 246.34 151.81 C 246.97 152.42 247.99 152.41 248.60 151.78 C 249.21 151.14 249.20 150.13 248.57 149.52 L 247.74 148.71 C 247.10 148.10 246.09 148.11 245.48 148.75 C 244.86 149.38 244.88 150.39 245.51 151.00 Z M 246.23 151.69 L 247.01 152.62 C 247.58 153.29 248.59 153.38 249.26 152.81 C 249.93 152.24 250.02 151.24 249.45 150.56 L 248.67 149.64 C 248.11 148.96 247.10 148.88 246.43 149.45 C 245.75 150.01 245.67 151.02 246.23 151.69 Z M 246.89 152.45 L 247.46 153.34 C 247.94 154.08 248.92 154.29 249.66 153.82 C 250.40 153.34 250.62 152.36 250.14 151.62 L 249.57 150.73 C 249.10 149.99 248.11 149.78 247.37 150.25 C 246.63 150.72 246.42 151.71 246.89 152.45 Z M 247.33 153.08 L 247.66 153.89 C 248.00 154.70 248.92 155.09 249.73 154.75 C 250.55 154.42 250.93 153.50 250.60 152.68 L 250.27 151.88 C 249.94 151.07 249.01 150.68 248.20 151.01 C 247.39 151.34 247.00 152.27 247.33 153.08 Z M 247.55 153.42 L 247.61 154.09 C 247.68 154.97 248.45 155.61 249.32 155.54 C 250.19 155.47 250.84 154.71 250.77 153.83 L 250.71 153.16 C 250.64 152.28 249.88 151.63 249.00 151.71 C 248.13 151.78 247.48 152.54 247.55 153.42 Z M 247.82 153.18 L 247.45 153.82 C 247.01 154.58 247.27 155.54 248.03 155.98 C 248.79 156.41 249.75 156.15 250.19 155.40 L 250.56 154.75 C 251.00 154.00 250.73 153.03 249.98 152.59 C 249.22 152.16 248.25 152.42 247.82 153.18 Z M 248.09 153.21 L 247.29 153.62 C 246.52 154.02 246.22 154.97 246.62 155.75 C 247.02 156.52 247.97 156.83 248.75 156.42 L 249.54 156.01 C 250.32 155.61 250.62 154.66 250.22 153.88 C 249.82 153.11 248.87 152.81 248.09 153.21 Z M 247.67 153.49 L 246.56 153.74 C 245.72 153.93 245.19 154.78 245.38 155.63 C 245.58 156.48 246.42 157.01 247.27 156.81 L 248.37 156.56 C 249.22 156.36 249.75 155.52 249.56 154.67 C 249.36 153.82 248.51 153.29 247.67 153.49 Z M 246.71 153.72 L 245.62 153.86 C 244.76 153.98 244.16 154.77 244.27 155.64 C 244.39 156.50 245.18 157.10 246.04 156.98 L 247.13 156.84 C 247.99 156.72 248.60 155.93 248.48 155.06 C 248.36 154.20 247.57 153.60 246.71 153.72 Z M 245.67 153.86 L 244.73 153.96 C 243.87 154.05 243.24 154.82 243.33 155.68 C 243.42 156.55 244.19 157.17 245.05 157.08 L 245.99 156.99 C 246.86 156.90 247.49 156.13 247.40 155.26 C 247.31 154.40 246.53 153.77 245.67 153.86 Z M 244.77 153.96 L 243.78 154.03 C 242.92 154.10 242.27 154.86 242.34 155.73 C 242.41 156.59 243.17 157.23 244.03 157.16 L 245.02 157.09 C 245.88 157.02 246.53 156.26 246.46 155.39 C 246.39 154.53 245.63 153.89 244.77 153.96 Z M 243.81 154.03 L 242.79 154.10 C 241.93 154.15 241.27 154.89 241.32 155.76 C 241.38 156.62 242.12 157.28 242.98 157.23 L 244.00 157.16 C 244.87 157.11 245.53 156.37 245.47 155.50 C 245.42 154.64 244.68 153.98 243.81 154.03 Z M 242.82 154.10 L 241.77 154.15 C 240.90 154.18 240.23 154.92 240.27 155.78 C 240.31 156.64 241.04 157.31 241.91 157.27 L 242.96 157.23 C 243.82 157.19 244.49 156.46 244.45 155.59 C 244.41 154.73 243.68 154.06 242.82 154.10 Z M 241.79 154.15 L 240.76 154.18 C 239.90 154.21 239.22 154.93 239.25 155.79 C 239.28 156.65 240.00 157.33 240.86 157.31 L 241.89 157.27 C 242.75 157.25 243.43 156.52 243.40 155.66 C 243.37 154.80 242.65 154.12 241.79 154.15 Z M 240.78 154.18 L 239.80 154.20 C 238.93 154.22 238.25 154.93 238.27 155.79 C 238.28 156.66 239.00 157.34 239.86 157.32 L 240.85 157.30 C 241.71 157.29 242.39 156.57 242.38 155.71 C 242.36 154.85 241.65 154.16 240.78 154.18 Z M 239.81 154.20 L 238.81 154.21 C 237.95 154.22 237.26 154.93 237.27 155.79 C 237.28 156.66 237.99 157.35 238.85 157.34 L 239.85 157.32 C 240.71 157.31 241.40 156.61 241.39 155.74 C 241.38 154.88 240.67 154.19 239.81 154.20 Z M 238.82 154.21 L 237.82 154.22 C 236.96 154.22 236.26 154.93 236.27 155.79 C 236.27 156.65 236.98 157.35 237.84 157.34 L 238.84 157.34 C 239.71 157.33 240.40 156.63 240.40 155.76 C 240.39 154.90 239.69 154.21 238.82 154.21 Z M 237.82 154.22 L 236.81 154.22 C 235.95 154.22 235.25 154.92 235.26 155.79 C 235.26 156.65 235.96 157.35 236.82 157.35 L 237.83 157.34 C 238.70 157.34 239.39 156.64 239.39 155.78 C 239.39 154.91 238.69 154.22 237.82 154.22 Z M 236.82 154.22 L 235.80 154.22 C 234.94 154.22 234.24 154.92 234.24 155.78 C 234.24 156.65 234.94 157.35 235.80 157.34 L 236.82 157.34 C 237.68 157.34 238.38 156.65 238.38 155.78 C 238.38 154.92 237.68 154.22 236.82 154.22 Z M 235.80 154.22 L 235.73 154.22 C 234.87 154.22 234.17 154.92 234.17 155.78 C 234.17 156.65 234.87 157.34 235.73 157.34 L 235.80 157.34 C 236.67 157.34 237.36 156.65 237.36 155.78 C 237.36 154.92 236.67 154.22 235.80 154.22 Z"
      fill="black"
      fill-rule="nonzero" /></svg>