<svg xmlns="http://www.w3.org/2000/svg" width="300" height="300" viewBox="0 0 300 300">
<path d="M 112.83 92.25 L 111.42 92.30 C 110.43 92.33 109.66 93.15 109.69 94.14 C 109.72 95.12 110.55 95.90 111.53 95.87 L 112.94 95.82 C 113.93 95.79 114.70 94.97 114.67 93.98 C 114.64 93.00 113.82 92.22 112.83 92.25 Z M 111.40 92.22 L 110.28 92.27 C 109.25 92.32 108.46 93.18 108.50 94.21 C 108.55 95.24 109.41 96.03 110.44 95.99 L 111.56 95.94 C 112.58 95.89 113.38 95.03 113.33 94.00 C 113.29 92.98 112.42 92.18 111.40 92.22 Z M 110.15 92.21 L 109.62 92.27 C 108.56 92.38 107.79 93.33 107.91 94.39 C 108.02 95.46 108.98 96.22 110.04 96.11 L 110.57 96.05 C 111.63 95.94 112.39 94.98 112.28 93.92 C 112.16 92.86 111.21 92.09 110.15 92.21 Z M 109.38 96.12 L 109.69 96.19 C 110.76 96.44 111.83 95.77 112.07 94.70 C 112.32 93.64 111.65 92.57 110.59 92.32 L 110.28 92.25 C 109.21 92.01 108.14 92.67 107.90 93.74 C 107.65 94.81 108.32 95.87 109.38 96.12 Z M 110.00 96.27 L 111.03 96.34 C 112.14 96.42 113.10 95.58 113.18 94.47 C 113.26 93.36 112.42 92.40 111.31 92.32 L 110.28 92.25 C 109.17 92.17 108.21 93.01 108.13 94.12 C 108.05 95.23 108.89 96.19 110.00 96.27 Z M 111.09 96.37 L 112.56 96.43 C 113.68 96.47 114.63 95.60 114.67 94.47 C 114.72 93.34 113.84 92.40 112.72 92.35 L 111.25 92.29 C 110.13 92.25 109.18 93.12 109.13 94.25 C 109.09 95.38 109.96 96.32 111.09 96.37 Z M 112.59 96.44 L 113.60 96.46 C 114.74 96.49 115.68 95.59 115.70 94.46 C 115.73 93.32 114.83 92.38 113.69 92.36 L 112.68 92.34 C 111.55 92.31 110.61 93.21 110.58 94.34 C 110.56 95.48 111.46 96.42 112.59 96.44 Z M 113.64 96.47 L 114.65 96.47 C 115.79 96.48 116.72 95.57 116.72 94.43 C 116.73 93.30 115.82 92.37 114.68 92.36 L 113.66 92.36 C 112.53 92.35 111.60 93.26 111.59 94.40 C 111.59 95.53 112.50 96.46 113.64 96.47 Z M 114.69 96.47 L 115.71 96.46 C 116.85 96.45 117.76 95.52 117.75 94.38 C 117.73 93.25 116.80 92.34 115.67 92.35 L 114.65 92.36 C 113.51 92.37 112.60 93.31 112.61 94.44 C 112.62 95.58 113.56 96.49 114.69 96.47 Z M 115.76 96.46 L 116.76 96.43 C 117.89 96.39 118.78 95.44 118.75 94.30 C 118.71 93.17 117.76 92.28 116.62 92.32 L 115.62 92.35 C 114.49 92.39 113.60 93.34 113.63 94.47 C 113.67 95.61 114.62 96.50 115.76 96.46 Z M 116.82 96.43 L 117.79 96.37 C 118.93 96.30 119.79 95.32 119.72 94.19 C 119.65 93.05 118.67 92.19 117.54 92.26 L 116.56 92.32 C 115.43 92.39 114.56 93.37 114.63 94.50 C 114.71 95.64 115.68 96.50 116.82 96.43 Z M 117.87 96.36 L 118.92 96.26 C 120.05 96.14 120.88 95.14 120.76 94.00 C 120.65 92.87 119.64 92.05 118.51 92.16 L 117.46 92.26 C 116.33 92.38 115.50 93.39 115.62 94.52 C 115.73 95.65 116.74 96.47 117.87 96.36 Z M 119.00 96.25 L 119.98 96.11 C 121.11 95.96 121.90 94.92 121.74 93.79 C 121.59 92.67 120.55 91.88 119.42 92.03 L 118.44 92.17 C 117.31 92.32 116.52 93.36 116.68 94.49 C 116.83 95.61 117.87 96.40 119.00 96.25 Z M 120.04 96.10 L 120.99 95.94 C 122.11 95.76 122.87 94.70 122.69 93.58 C 122.50 92.46 121.44 91.70 120.32 91.89 L 119.37 92.04 C 118.25 92.23 117.49 93.29 117.67 94.41 C 117.86 95.53 118.92 96.29 120.04 96.10 Z M 121.03 95.94 L 121.98 95.76 C 123.09 95.56 123.83 94.49 123.63 93.37 C 123.42 92.25 122.35 91.52 121.24 91.72 L 120.29 91.89 C 119.17 92.10 118.43 93.17 118.64 94.28 C 118.84 95.40 119.91 96.14 121.03 95.94 Z M 121.99 95.76 L 122.93 95.58 C 124.05 95.37 124.78 94.29 124.57 93.18 C 124.36 92.07 123.28 91.34 122.17 91.55 L 121.22 91.72 C 120.11 91.94 119.38 93.01 119.59 94.12 C 119.80 95.24 120.87 95.97 121.99 95.76 Z M 122.95 95.57 L 123.91 95.38 C 125.02 95.16 125.74 94.09 125.53 92.98 C 125.31 91.87 124.23 91.15 123.12 91.36 L 122.16 91.55 C 121.05 91.77 120.32 92.85 120.54 93.96 C 120.76 95.07 121.84 95.79 122.95 95.57 Z M 123.93 95.37 L 124.92 95.17 C 126.03 94.94 126.74 93.86 126.51 92.75 C 126.28 91.65 125.20 90.94 124.09 91.17 L 123.10 91.37 C 122.00 91.60 121.29 92.68 121.52 93.79 C 121.75 94.89 122.83 95.60 123.93 95.37 Z M 124.95 95.16 L 125.96 94.93 C 127.06 94.69 127.75 93.60 127.51 92.50 C 127.27 91.41 126.18 90.71 125.08 90.95 L 124.07 91.18 C 122.97 91.42 122.28 92.51 122.52 93.61 C 122.76 94.70 123.85 95.40 124.95 95.16 Z M 125.99 94.92 L 126.94 94.70 C 128.03 94.44 128.71 93.34 128.45 92.25 C 128.19 91.16 127.10 90.48 126.01 90.74 L 125.05 90.97 C 123.96 91.22 123.29 92.32 123.54 93.41 C 123.80 94.50 124.90 95.18 125.99 94.92 Z M 126.96 94.69 L 127.91 94.45 C 129.00 94.18 129.66 93.08 129.40 92.00 C 129.13 90.91 128.03 90.25 126.94 90.52 L 125.99 90.75 C 124.90 91.02 124.24 92.12 124.50 93.21 C 124.77 94.29 125.87 94.96 126.96 94.69 Z M 127.93 94.44 L 128.90 94.19 C 129.98 93.92 130.63 92.82 130.36 91.74 C 130.08 90.65 128.98 90.00 127.90 90.28 L 126.93 90.52 C 125.85 90.80 125.19 91.90 125.47 92.98 C 125.75 94.06 126.85 94.72 127.93 94.44 Z M 128.90 94.19 L 129.89 93.93 C 130.97 93.65 131.62 92.55 131.34 91.48 C 131.06 90.40 129.96 89.75 128.88 90.03 L 127.90 90.28 C 126.82 90.56 126.17 91.66 126.45 92.74 C 126.73 93.82 127.83 94.46 128.90 94.19 Z M 129.89 93.93 L 130.87 93.67 C 131.95 93.39 132.60 92.30 132.32 91.22 C 132.04 90.15 130.95 89.50 129.87 89.78 L 128.89 90.03 C 127.81 90.31 127.16 91.41 127.44 92.48 C 127.72 93.56 128.81 94.20 129.89 93.93 Z M 130.87 93.67 L 131.83 93.42 C 132.90 93.15 133.54 92.06 133.27 90.98 C 132.99 89.91 131.90 89.27 130.83 89.54 L 129.88 89.79 C 128.80 90.06 128.16 91.15 128.43 92.22 C 128.71 93.29 129.80 93.94 130.87 93.67 Z M 131.83 93.41 L 132.79 93.16 C 133.86 92.89 134.50 91.80 134.22 90.73 C 133.95 89.67 132.86 89.03 131.79 89.30 L 130.83 89.55 C 129.76 89.83 129.12 90.91 129.40 91.98 C 129.67 93.05 130.76 93.69 131.83 93.41 Z M 132.80 93.15 L 133.77 92.89 C 134.83 92.61 135.46 91.53 135.18 90.47 C 134.90 89.41 133.81 88.77 132.75 89.05 L 131.78 89.31 C 130.72 89.59 130.09 90.68 130.37 91.74 C 130.65 92.80 131.74 93.43 132.80 93.15 Z M 133.79 92.88 L 134.76 92.61 C 135.81 92.32 136.43 91.24 136.14 90.18 C 135.85 89.13 134.76 88.51 133.71 88.80 L 132.74 89.07 C 131.68 89.36 131.07 90.45 131.36 91.50 C 131.65 92.55 132.73 93.17 133.79 92.88 Z M 134.78 92.60 L 135.75 92.32 C 136.80 92.02 137.40 90.92 137.09 89.88 C 136.79 88.83 135.70 88.23 134.65 88.54 L 133.69 88.81 C 132.64 89.12 132.04 90.21 132.34 91.25 C 132.65 92.30 133.74 92.90 134.78 92.60 Z M 135.77 92.30 L 136.73 92.01 C 137.76 91.70 138.35 90.60 138.03 89.56 C 137.71 88.53 136.62 87.94 135.58 88.26 L 134.63 88.55 C 133.59 88.87 133.01 89.96 133.33 91.00 C 133.64 92.04 134.74 92.62 135.77 92.30 Z M 136.75 92.00 L 137.70 91.69 C 138.72 91.37 139.29 90.27 138.96 89.24 C 138.64 88.21 137.54 87.65 136.51 87.97 L 135.56 88.28 C 134.53 88.60 133.97 89.70 134.29 90.73 C 134.62 91.76 135.72 92.32 136.75 92.00 Z M 137.71 91.68 L 138.67 91.36 C 139.68 91.03 140.24 89.93 139.90 88.91 C 139.56 87.89 138.47 87.34 137.45 87.67 L 136.50 87.99 C 135.48 88.32 134.92 89.42 135.26 90.44 C 135.60 91.46 136.70 92.01 137.71 91.68 Z M 138.68 91.35 L 139.63 91.03 C 140.64 90.68 141.18 89.59 140.84 88.57 C 140.50 87.56 139.40 87.02 138.39 87.36 L 137.43 87.69 C 136.42 88.03 135.88 89.13 136.22 90.14 C 136.57 91.15 137.67 91.69 138.68 91.35 Z M 139.64 91.02 L 140.58 90.69 C 141.58 90.34 142.12 89.24 141.77 88.24 C 141.42 87.24 140.32 86.70 139.32 87.05 L 138.38 87.38 C 137.37 87.73 136.84 88.82 137.19 89.83 C 137.54 90.83 138.63 91.36 139.64 91.02 Z M 140.59 90.68 L 141.51 90.35 C 142.51 90.00 143.03 88.90 142.68 87.91 C 142.33 86.91 141.24 86.39 140.24 86.74 L 139.31 87.06 C 138.31 87.42 137.79 88.51 138.14 89.51 C 138.49 90.50 139.59 91.03 140.59 90.68 Z M 141.52 90.34 L 142.45 90.00 C 143.44 89.64 143.95 88.55 143.60 87.56 C 143.24 86.57 142.15 86.06 141.16 86.42 L 140.23 86.75 C 139.24 87.11 138.73 88.20 139.08 89.19 C 139.44 90.18 140.53 90.69 141.52 90.34 Z M 142.46 89.98 L 143.40 89.64 C 144.38 89.27 144.88 88.18 144.52 87.20 C 144.15 86.22 143.06 85.72 142.08 86.08 L 141.15 86.43 C 140.16 86.79 139.66 87.89 140.03 88.87 C 140.39 89.85 141.48 90.35 142.46 89.98 Z M 143.42 89.62 L 144.36 89.26 C 145.33 88.89 145.82 87.80 145.45 86.82 C 145.08 85.85 143.99 85.37 143.02 85.74 L 142.07 86.10 C 141.10 86.47 140.61 87.56 140.98 88.53 C 141.35 89.51 142.44 89.99 143.42 89.62 Z M 144.38 89.24 L 145.33 88.87 C 146.29 88.48 146.76 87.39 146.38 86.43 C 146.00 85.47 144.91 85.00 143.95 85.38 L 143.00 85.75 C 142.04 86.14 141.56 87.23 141.95 88.19 C 142.33 89.15 143.42 89.62 144.38 89.24 Z M 145.35 88.85 L 146.27 88.47 C 147.23 88.08 147.68 86.99 147.29 86.04 C 146.90 85.08 145.81 84.63 144.86 85.02 L 143.93 85.40 C 142.98 85.79 142.52 86.87 142.91 87.83 C 143.30 88.78 144.39 89.24 145.35 88.85 Z M 146.28 88.45 L 147.22 88.06 C 148.16 87.66 148.61 86.58 148.21 85.63 C 147.81 84.69 146.72 84.24 145.78 84.64 L 144.85 85.03 C 143.90 85.43 143.46 86.52 143.86 87.46 C 144.25 88.41 145.34 88.85 146.28 88.45 Z M 147.23 88.05 L 148.15 87.65 C 149.09 87.25 149.52 86.16 149.12 85.22 C 148.72 84.29 147.63 83.85 146.70 84.26 L 145.77 84.65 C 144.83 85.06 144.40 86.14 144.80 87.08 C 145.20 88.02 146.29 88.45 147.23 88.05 Z M 148.16 87.64 L 149.08 87.23 C 150.01 86.83 150.43 85.75 150.03 84.82 C 149.62 83.89 148.54 83.46 147.61 83.87 L 146.69 84.27 C 145.76 84.68 145.34 85.76 145.74 86.69 C 146.15 87.62 147.23 88.04 148.16 87.64 Z M 149.08 87.22 L 149.98 86.83 C 150.90 86.42 151.32 85.34 150.91 84.42 C 150.51 83.49 149.43 83.08 148.51 83.48 L 147.61 83.88 C 146.68 84.29 146.27 85.37 146.67 86.29 C 147.08 87.21 148.16 87.63 149.08 87.22 Z M 149.98 86.81 L 150.92 86.39 C 151.84 85.99 152.25 84.91 151.84 84.00 C 151.43 83.08 150.36 82.67 149.44 83.08 L 148.50 83.50 C 147.59 83.90 147.18 84.98 147.58 85.89 C 147.99 86.81 149.07 87.22 149.98 86.81 Z M 150.92 86.38 L 151.85 85.97 C 152.76 85.56 153.17 84.49 152.76 83.58 C 152.35 82.67 151.28 82.26 150.37 82.67 L 149.44 83.09 C 148.54 83.50 148.13 84.57 148.54 85.47 C 148.95 86.38 150.01 86.79 150.92 86.38 Z M 151.85 85.95 L 152.76 85.54 C 153.66 85.14 154.06 84.07 153.65 83.17 C 153.25 82.27 152.18 81.87 151.28 82.27 L 150.37 82.68 C 149.47 83.09 149.07 84.15 149.48 85.06 C 149.88 85.96 150.95 86.36 151.85 85.95 Z M 152.76 85.53 L 153.65 85.13 C 154.55 84.72 154.94 83.67 154.54 82.77 C 154.13 81.87 153.07 81.47 152.18 81.88 L 151.28 82.29 C 150.39 82.69 149.99 83.75 150.40 84.65 C 150.80 85.54 151.86 85.94 152.76 85.53 Z M 153.65 85.12 L 154.53 84.72 C 155.42 84.31 155.82 83.26 155.41 82.37 C 155.01 81.48 153.96 81.08 153.07 81.49 L 152.18 81.89 C 151.29 82.30 150.89 83.35 151.30 84.24 C 151.70 85.13 152.75 85.52 153.65 85.12 Z M 154.53 84.71 L 155.45 84.29 C 156.33 83.89 156.72 82.84 156.32 81.96 C 155.92 81.07 154.87 80.68 153.99 81.08 L 153.07 81.50 C 152.18 81.90 151.79 82.94 152.20 83.83 C 152.60 84.72 153.64 85.11 154.53 84.71 Z M 155.44 84.28 L 156.36 83.86 C 157.24 83.46 157.63 82.43 157.23 81.55 C 156.83 80.66 155.79 80.27 154.91 80.67 L 153.99 81.09 C 153.11 81.49 152.72 82.53 153.12 83.41 C 153.52 84.29 154.56 84.68 155.44 84.28 Z M 156.35 83.86 L 157.26 83.44 C 158.14 83.05 158.53 82.02 158.14 81.14 C 157.74 80.27 156.71 79.88 155.84 80.27 L 154.92 80.68 C 154.04 81.08 153.65 82.11 154.05 82.98 C 154.44 83.86 155.47 84.25 156.35 83.86 Z M 157.25 83.44 L 158.16 83.03 C 159.03 82.64 159.43 81.62 159.04 80.75 C 158.65 79.88 157.63 79.48 156.75 79.87 L 155.85 80.28 C 154.97 80.67 154.58 81.69 154.97 82.56 C 155.36 83.43 156.38 83.83 157.25 83.44 Z M 158.15 83.03 L 159.05 82.63 C 159.92 82.25 160.32 81.23 159.94 80.36 C 159.55 79.49 158.54 79.10 157.67 79.48 L 156.76 79.88 C 155.90 80.26 155.50 81.28 155.88 82.14 C 156.27 83.01 157.28 83.41 158.15 83.03 Z M 159.04 82.62 L 159.98 82.22 C 160.85 81.84 161.24 80.84 160.87 79.97 C 160.49 79.10 159.49 78.70 158.62 79.08 L 157.68 79.49 C 156.82 79.86 156.42 80.87 156.79 81.73 C 157.17 82.60 158.17 83.00 159.04 82.62 Z M 159.97 82.21 L 160.89 81.82 C 161.76 81.45 162.16 80.45 161.79 79.59 C 161.42 78.73 160.42 78.32 159.56 78.69 L 158.63 79.08 C 157.77 79.45 157.37 80.45 157.74 81.31 C 158.10 82.18 159.10 82.58 159.97 82.21 Z M 160.88 81.81 L 161.80 81.43 C 162.66 81.07 163.06 80.08 162.70 79.22 C 162.34 78.36 161.35 77.95 160.49 78.31 L 159.57 78.70 C 158.71 79.06 158.31 80.05 158.67 80.91 C 159.03 81.77 160.02 82.17 160.88 81.81 Z M 161.78 81.42 L 162.69 81.05 C 163.55 80.69 163.96 79.71 163.60 78.85 C 163.25 78.00 162.26 77.59 161.41 77.94 L 160.50 78.32 C 159.64 78.67 159.24 79.66 159.59 80.51 C 159.94 81.37 160.93 81.78 161.78 81.42 Z M 162.68 81.04 L 163.62 80.66 C 164.47 80.31 164.88 79.33 164.53 78.48 C 164.18 77.63 163.21 77.22 162.35 77.57 L 161.42 77.95 C 160.56 78.30 160.15 79.27 160.50 80.13 C 160.85 80.98 161.83 81.39 162.68 81.04 Z M 163.61 80.65 L 164.55 80.27 C 165.40 79.93 165.82 78.96 165.47 78.11 C 165.13 77.26 164.16 76.85 163.31 77.19 L 162.37 77.57 C 161.52 77.91 161.10 78.88 161.45 79.73 C 161.79 80.58 162.76 81.00 163.61 80.65 Z M 164.54 80.27 L 165.47 79.90 C 166.32 79.57 166.74 78.61 166.40 77.76 C 166.07 76.91 165.11 76.49 164.26 76.83 L 163.33 77.19 C 162.48 77.53 162.06 78.49 162.40 79.34 C 162.73 80.19 163.69 80.60 164.54 80.27 Z M 165.45 79.90 L 166.37 79.55 C 167.21 79.22 167.64 78.27 167.31 77.43 C 166.99 76.58 166.04 76.15 165.19 76.48 L 164.28 76.83 C 163.43 77.15 163.01 78.10 163.33 78.95 C 163.65 79.80 164.60 80.22 165.45 79.90 Z M 166.34 79.55 L 167.27 79.20 C 168.12 78.89 168.55 77.95 168.24 77.11 C 167.93 76.26 166.99 75.83 166.14 76.14 L 165.21 76.48 C 164.37 76.79 163.93 77.73 164.25 78.58 C 164.56 79.43 165.50 79.86 166.34 79.55 Z M 167.25 79.21 L 168.19 78.87 C 169.04 78.57 169.48 77.64 169.19 76.80 C 168.89 75.95 167.96 75.51 167.11 75.80 L 166.17 76.14 C 165.32 76.44 164.87 77.37 165.17 78.21 C 165.47 79.06 166.40 79.50 167.25 79.21 Z M 168.17 78.87 L 169.11 78.55 C 169.96 78.27 170.41 77.35 170.12 76.50 C 169.84 75.66 168.92 75.20 168.07 75.49 L 167.13 75.80 C 166.29 76.09 165.83 77.01 166.12 77.86 C 166.40 78.70 167.32 79.16 168.17 78.87 Z M 169.09 78.55 L 170.03 78.25 C 170.88 77.97 171.34 77.06 171.07 76.21 C 170.79 75.37 169.88 74.91 169.04 75.18 L 168.09 75.49 C 167.25 75.76 166.78 76.67 167.06 77.52 C 167.33 78.37 168.24 78.83 169.09 78.55 Z M 170.02 78.24 L 170.95 77.95 C 171.80 77.68 172.27 76.78 172.00 75.94 C 171.73 75.09 170.83 74.62 169.99 74.89 L 169.05 75.18 C 168.21 75.45 167.74 76.35 168.01 77.20 C 168.27 78.04 169.17 78.51 170.02 78.24 Z M 170.93 77.95 L 171.86 77.67 C 172.71 77.41 173.19 76.52 172.93 75.67 C 172.68 74.83 171.78 74.35 170.94 74.61 L 170.01 74.89 C 169.16 75.14 168.68 76.04 168.94 76.88 C 169.19 77.73 170.09 78.20 170.93 77.95 Z M 171.83 77.67 L 172.79 77.40 C 173.64 77.16 174.13 76.28 173.89 75.44 C 173.66 74.59 172.78 74.09 171.93 74.33 L 170.97 74.60 C 170.12 74.84 169.63 75.72 169.87 76.57 C 170.11 77.42 170.99 77.91 171.83 77.67 Z M 172.75 77.41 L 173.74 77.15 C 174.59 76.94 175.11 76.07 174.89 75.22 C 174.68 74.37 173.81 73.86 172.96 74.08 L 171.97 74.33 C 171.12 74.54 170.61 75.41 170.82 76.26 C 171.04 77.11 171.90 77.62 172.75 77.41 Z M 173.69 77.16 L 174.70 76.94 C 175.56 76.75 176.10 75.91 175.91 75.05 C 175.72 74.20 174.88 73.66 174.02 73.85 L 173.01 74.07 C 172.16 74.26 171.62 75.10 171.81 75.95 C 172.00 76.81 172.84 77.35 173.69 77.16 Z M 174.65 76.95 L 175.66 76.76 C 176.51 76.60 177.08 75.77 176.92 74.92 C 176.76 74.06 175.93 73.49 175.08 73.65 L 174.07 73.84 C 173.22 74.00 172.65 74.83 172.81 75.68 C 172.97 76.54 173.80 77.11 174.65 76.95 Z M 175.61 76.76 L 176.62 76.60 C 177.48 76.47 178.07 75.66 177.93 74.80 C 177.79 73.94 176.99 73.35 176.13 73.49 L 175.12 73.65 C 174.26 73.79 173.67 74.59 173.81 75.45 C 173.95 76.31 174.75 76.90 175.61 76.76 Z M 176.58 76.61 L 177.57 76.47 C 178.43 76.36 179.04 75.57 178.92 74.71 C 178.81 73.85 178.02 73.24 177.16 73.36 L 176.17 73.49 C 175.31 73.60 174.70 74.39 174.82 75.25 C 174.93 76.12 175.72 76.72 176.58 76.61 Z M 177.54 76.47 L 178.49 76.37 C 179.35 76.28 179.97 75.50 179.88 74.64 C 179.78 73.78 179.01 73.16 178.14 73.25 L 177.19 73.35 C 176.33 73.45 175.71 74.22 175.80 75.09 C 175.90 75.95 176.67 76.57 177.54 76.47 Z M 178.45 76.37 L 179.51 76.28 C 180.38 76.21 181.02 75.45 180.94 74.59 C 180.87 73.72 180.11 73.09 179.25 73.16 L 178.18 73.25 C 177.32 73.32 176.68 74.08 176.75 74.94 C 176.83 75.80 177.59 76.44 178.45 76.37 Z M 179.48 76.28 L 180.48 76.22 C 181.34 76.17 182.00 75.42 181.94 74.56 C 181.89 73.70 181.15 73.04 180.29 73.10 L 179.28 73.16 C 178.42 73.21 177.77 73.95 177.82 74.82 C 177.87 75.68 178.61 76.33 179.48 76.28 Z M 180.45 76.22 L 181.41 76.18 C 182.28 76.14 182.94 75.41 182.90 74.54 C 182.86 73.68 182.13 73.01 181.27 73.05 L 180.31 73.10 C 179.45 73.14 178.78 73.87 178.82 74.73 C 178.86 75.59 179.59 76.26 180.45 76.22 Z M 181.40 76.17 L 182.00 76.15 C 182.87 76.12 183.54 75.39 183.50 74.53 C 183.47 73.67 182.74 73.00 181.88 73.03 L 181.28 73.05 C 180.42 73.09 179.75 73.81 179.78 74.68 C 179.81 75.54 180.54 76.21 181.40 76.17 Z"
      fill="black"
      fill-rule="nonzero" /><path d="M 167.01 77.28 L 166.18 77.81 C 165.40 78.31 165.17 79.35 165.68 80.14 C 166.18 80.92 167.22 81.14 168.00 80.64 L 168.83 80.11 C 169.61 79.60 169.84 78.56 169.33 77.78 C 168.83 77.00 167.79 76.77 167.01 77.28 Z M 166.13 77.84 L 165.32 78.40 C 164.55 78.93 164.36 79.98 164.89 80.75 C 165.42 81.51 166.47 81.71 167.24 81.18 L 168.05 80.61 C 168.82 80.08 169.01 79.03 168.48 78.26 C 167.95 77.50 166.90 77.31 166.13 77.84 Z M 165.23 78.46 L 164.44 79.08 C 163.70 79.66 163.58 80.73 164.16 81.46 C 164.74 82.20 165.80 82.32 166.54 81.74 L 167.33 81.12 C 168.06 80.54 168.19 79.47 167.61 78.74 C 167.03 78.00 165.96 77.88 165.23 78.46 Z M 164.32 79.17 L 163.63 79.83 C 162.94 80.47 162.91 81.55 163.55 82.23 C 164.20 82.92 165.27 82.95 165.96 82.31 L 166.65 81.65 C 167.34 81.01 167.37 79.93 166.73 79.25 C 166.08 78.56 165.00 78.53 164.32 79.17 Z M 163.51 79.92 L 162.91 80.60 C 162.28 81.31 162.34 82.39 163.04 83.02 C 163.75 83.65 164.83 83.59 165.46 82.89 L 166.07 82.21 C 166.70 81.50 166.64 80.42 165.94 79.79 C 165.23 79.16 164.15 79.22 163.51 79.92 Z M 162.82 80.68 L 162.22 81.45 C 161.63 82.21 161.77 83.30 162.53 83.88 C 163.28 84.47 164.37 84.33 164.96 83.58 L 165.56 82.81 C 166.14 82.05 166.00 80.96 165.25 80.37 C 164.49 79.79 163.40 79.93 162.82 80.68 Z M 162.15 81.52 L 161.54 82.40 C 161.00 83.20 161.20 84.28 161.99 84.83 C 162.79 85.38 163.88 85.18 164.43 84.38 L 165.03 83.51 C 165.58 82.71 165.38 81.62 164.58 81.07 C 163.78 80.53 162.69 80.73 162.15 81.52 Z M 161.49 82.45 L 160.91 83.38 C 160.39 84.21 160.64 85.30 161.46 85.82 C 162.29 86.33 163.38 86.09 163.90 85.26 L 164.48 84.33 C 165.00 83.50 164.75 82.41 163.92 81.90 C 163.10 81.38 162.01 81.63 161.49 82.45 Z M 160.87 83.41 L 160.37 84.26 C 159.87 85.11 160.15 86.20 161.00 86.70 C 161.84 87.20 162.93 86.92 163.44 86.07 L 163.93 85.23 C 164.43 84.38 164.15 83.29 163.31 82.79 C 162.46 82.29 161.37 82.57 160.87 83.41 Z M 160.34 84.28 L 159.84 85.17 C 159.35 86.03 159.65 87.12 160.51 87.61 C 161.37 88.10 162.47 87.80 162.96 86.94 L 163.46 86.05 C 163.95 85.19 163.65 84.10 162.79 83.61 C 161.93 83.12 160.83 83.42 160.34 84.28 Z M 159.82 85.18 L 159.32 86.08 C 158.84 86.96 159.15 88.05 160.02 88.53 C 160.90 89.02 161.99 88.70 162.48 87.83 L 162.98 86.93 C 163.46 86.05 163.14 84.96 162.27 84.47 C 161.40 83.99 160.30 84.31 159.82 85.18 Z M 159.30 86.09 L 158.82 86.98 C 158.34 87.86 158.66 88.97 159.55 89.44 C 160.43 89.92 161.53 89.60 162.01 88.72 L 162.49 87.82 C 162.97 86.94 162.64 85.84 161.76 85.36 C 160.88 84.88 159.78 85.21 159.30 86.09 Z M 158.80 86.98 L 158.34 87.84 C 157.87 88.73 158.20 89.84 159.09 90.31 C 159.97 90.79 161.08 90.46 161.56 89.57 L 162.02 88.72 C 162.50 87.83 162.17 86.72 161.28 86.24 C 160.39 85.76 159.28 86.10 158.80 86.98 Z M 158.34 87.84 L 157.83 88.78 C 157.35 89.67 157.68 90.78 158.58 91.26 C 159.47 91.74 160.58 91.41 161.06 90.52 L 161.57 89.57 C 162.05 88.68 161.71 87.57 160.82 87.09 C 159.93 86.61 158.82 86.94 158.34 87.84 Z M 157.82 88.78 L 157.34 89.67 C 156.86 90.57 157.20 91.68 158.09 92.16 C 158.99 92.64 160.10 92.31 160.58 91.41 L 161.06 90.52 C 161.55 89.62 161.21 88.51 160.32 88.03 C 159.42 87.55 158.31 87.88 157.82 88.78 Z M 157.34 89.67 L 156.88 90.52 C 156.40 91.42 156.74 92.54 157.64 93.02 C 158.53 93.50 159.65 93.16 160.13 92.27 L 160.59 91.41 C 161.07 90.52 160.73 89.40 159.84 88.92 C 158.94 88.44 157.82 88.77 157.34 89.67 Z M 156.88 90.52 L 156.43 91.36 C 155.95 92.26 156.28 93.38 157.18 93.86 C 158.08 94.35 159.20 94.01 159.68 93.11 L 160.14 92.27 C 160.62 91.37 160.28 90.25 159.38 89.77 C 158.48 89.28 157.36 89.62 156.88 90.52 Z M 156.42 91.36 L 155.97 92.21 C 155.49 93.11 155.83 94.24 156.73 94.72 C 157.63 95.20 158.75 94.86 159.23 93.96 L 159.69 93.11 C 160.17 92.21 159.83 91.09 158.93 90.60 C 158.03 90.12 156.91 90.46 156.42 91.36 Z M 155.96 92.21 L 155.50 93.08 C 155.02 93.98 155.37 95.11 156.27 95.59 C 157.17 96.07 158.30 95.72 158.78 94.82 L 159.24 93.96 C 159.72 93.05 159.38 91.93 158.47 91.45 C 157.57 90.97 156.45 91.31 155.96 92.21 Z M 155.50 93.08 L 155.03 93.97 C 154.55 94.88 154.90 96.00 155.81 96.48 C 156.71 96.96 157.84 96.61 158.32 95.70 L 158.79 94.82 C 159.27 93.91 158.92 92.78 158.01 92.31 C 157.10 91.83 155.98 92.17 155.50 93.08 Z M 155.02 93.97 L 154.55 94.88 C 154.07 95.79 154.43 96.91 155.34 97.39 C 156.25 97.87 157.38 97.51 157.85 96.60 L 158.33 95.70 C 158.80 94.79 158.45 93.66 157.54 93.18 C 156.62 92.71 155.50 93.06 155.02 93.97 Z M 154.54 94.88 L 154.08 95.79 C 153.60 96.71 153.97 97.83 154.88 98.30 C 155.80 98.78 156.93 98.42 157.40 97.50 L 157.86 96.59 C 158.33 95.67 157.97 94.55 157.06 94.08 C 156.14 93.61 155.01 93.97 154.54 94.88 Z M 154.07 95.80 L 153.61 96.70 C 153.15 97.62 153.52 98.75 154.44 99.21 C 155.36 99.68 156.49 99.31 156.95 98.39 L 157.41 97.49 C 157.87 96.57 157.50 95.44 156.58 94.97 C 155.66 94.51 154.53 94.88 154.07 95.80 Z M 153.60 96.71 L 153.16 97.60 C 152.70 98.53 153.07 99.66 154.00 100.12 C 154.93 100.58 156.06 100.20 156.52 99.27 L 156.96 98.38 C 157.42 97.45 157.05 96.33 156.12 95.86 C 155.19 95.40 154.06 95.78 153.60 96.71 Z M 153.15 97.61 L 152.71 98.50 C 152.25 99.44 152.64 100.56 153.57 101.02 C 154.50 101.48 155.63 101.10 156.08 100.16 L 156.52 99.27 C 156.98 98.34 156.60 97.21 155.67 96.75 C 154.74 96.29 153.61 96.68 153.15 97.61 Z M 152.71 98.50 L 152.27 99.40 C 151.81 100.33 152.19 101.46 153.13 101.92 C 154.06 102.38 155.19 101.99 155.65 101.06 L 156.09 100.16 C 156.55 99.23 156.16 98.10 155.23 97.64 C 154.29 97.18 153.16 97.57 152.71 98.50 Z M 152.26 99.40 L 151.82 100.29 C 151.36 101.23 151.75 102.36 152.69 102.82 C 153.62 103.28 154.76 102.89 155.22 101.96 L 155.65 101.06 C 156.11 100.13 155.73 98.99 154.79 98.53 C 153.86 98.07 152.72 98.46 152.26 99.40 Z M 151.82 100.28 L 151.39 101.16 C 150.92 102.10 151.31 103.24 152.25 103.70 C 153.18 104.16 154.32 103.78 154.78 102.84 L 155.22 101.96 C 155.68 101.03 155.30 99.89 154.36 99.43 C 153.42 98.96 152.29 99.35 151.82 100.28 Z M 151.39 101.16 L 150.95 102.04 C 150.48 102.98 150.86 104.12 151.80 104.59 C 152.73 105.05 153.87 104.67 154.34 103.74 L 154.78 102.85 C 155.25 101.91 154.87 100.77 153.93 100.31 C 152.99 99.84 151.86 100.22 151.39 101.16 Z M 150.95 102.04 L 150.50 102.93 C 150.03 103.87 150.40 105.01 151.34 105.48 C 152.27 105.95 153.41 105.57 153.89 104.64 L 154.34 103.74 C 154.81 102.81 154.43 101.67 153.50 101.19 C 152.56 100.72 151.42 101.10 150.95 102.04 Z M 150.50 102.92 L 150.04 103.83 C 149.56 104.76 149.93 105.91 150.87 106.38 C 151.80 106.86 152.95 106.49 153.42 105.55 L 153.88 104.65 C 154.36 103.71 153.99 102.57 153.05 102.09 C 152.12 101.62 150.97 101.99 150.50 102.92 Z M 150.04 103.82 L 149.58 104.71 C 149.10 105.64 149.47 106.79 150.40 107.27 C 151.34 107.75 152.48 107.38 152.96 106.45 L 153.42 105.56 C 153.90 104.63 153.54 103.48 152.60 103.00 C 151.67 102.52 150.52 102.89 150.04 103.82 Z M 149.58 104.70 L 149.13 105.56 C 148.65 106.50 149.01 107.65 149.94 108.13 C 150.87 108.62 152.02 108.26 152.51 107.32 L 152.96 106.46 C 153.45 105.53 153.09 104.38 152.15 103.89 C 151.22 103.40 150.07 103.77 149.58 104.70 Z M 149.14 105.55 L 148.67 106.43 C 148.18 107.36 148.54 108.51 149.47 109.01 C 150.40 109.50 151.55 109.14 152.04 108.21 L 152.51 107.33 C 153.00 106.40 152.64 105.25 151.71 104.76 C 150.78 104.27 149.63 104.62 149.14 105.55 Z M 148.68 106.42 L 148.20 107.30 C 147.70 108.23 148.05 109.39 148.98 109.89 C 149.91 110.38 151.07 110.04 151.56 109.11 L 152.04 108.22 C 152.54 107.29 152.19 106.14 151.26 105.64 C 150.33 105.14 149.18 105.49 148.68 106.42 Z M 148.21 107.29 L 147.72 108.19 C 147.21 109.11 147.55 110.27 148.48 110.78 C 149.41 111.28 150.57 110.94 151.07 110.02 L 151.56 109.12 C 152.06 108.19 151.72 107.03 150.80 106.53 C 149.87 106.02 148.71 106.37 148.21 107.29 Z M 147.72 108.17 L 147.23 109.06 C 146.72 109.98 147.05 111.14 147.98 111.66 C 148.90 112.17 150.06 111.84 150.58 110.91 L 151.07 110.03 C 151.58 109.11 151.25 107.94 150.32 107.43 C 149.40 106.92 148.24 107.25 147.72 108.17 Z M 147.24 109.04 L 146.76 109.89 C 146.24 110.81 146.57 111.98 147.48 112.50 C 148.40 113.02 149.57 112.69 150.09 111.77 L 150.57 110.93 C 151.09 110.01 150.76 108.84 149.85 108.32 C 148.93 107.80 147.76 108.12 147.24 109.04 Z M 146.77 109.88 L 146.28 110.73 C 145.75 111.65 146.06 112.82 146.98 113.35 C 147.90 113.87 149.07 113.56 149.59 112.64 L 150.08 111.79 C 150.61 110.87 150.29 109.70 149.38 109.17 C 148.46 108.65 147.29 108.96 146.77 109.88 Z M 146.28 110.72 L 145.78 111.59 C 145.24 112.50 145.55 113.67 146.46 114.20 C 147.38 114.74 148.55 114.43 149.08 113.52 L 149.59 112.65 C 150.12 111.74 149.81 110.57 148.90 110.04 C 147.99 109.50 146.81 109.81 146.28 110.72 Z M 145.78 111.58 L 145.26 112.45 C 144.72 113.36 145.02 114.53 145.93 115.07 C 146.84 115.61 148.02 115.31 148.56 114.40 L 149.08 113.53 C 149.61 112.62 149.31 111.45 148.41 110.91 C 147.50 110.37 146.32 110.67 145.78 111.58 Z M 145.27 112.44 L 144.74 113.32 C 144.19 114.23 144.49 115.40 145.39 115.95 C 146.30 116.49 147.47 116.20 148.02 115.30 L 148.55 114.41 C 149.10 113.51 148.80 112.33 147.90 111.78 C 146.99 111.24 145.82 111.53 145.27 112.44 Z M 144.74 113.31 L 144.25 114.12 C 143.69 115.03 143.98 116.21 144.88 116.76 C 145.79 117.31 146.96 117.03 147.52 116.12 L 148.01 115.31 C 148.57 114.40 148.28 113.22 147.38 112.67 C 146.48 112.12 145.30 112.41 144.74 113.31 Z M 144.25 114.11 L 143.75 114.92 C 143.19 115.82 143.47 117.01 144.37 117.56 C 145.27 118.12 146.45 117.84 147.01 116.94 L 147.51 116.13 C 148.07 115.23 147.79 114.05 146.89 113.49 C 145.99 112.94 144.81 113.21 144.25 114.11 Z M 143.76 114.91 L 143.24 115.74 C 142.67 116.63 142.94 117.82 143.84 118.38 C 144.73 118.95 145.92 118.68 146.48 117.78 L 147.00 116.96 C 147.56 116.06 147.30 114.88 146.40 114.31 C 145.50 113.75 144.32 114.02 143.76 114.91 Z M 143.24 115.72 L 142.70 116.56 C 142.13 117.46 142.39 118.64 143.28 119.21 C 144.17 119.79 145.36 119.53 145.93 118.64 L 146.47 117.80 C 147.04 116.90 146.79 115.72 145.89 115.15 C 145.00 114.57 143.82 114.83 143.24 115.72 Z M 142.71 116.55 L 142.15 117.41 C 141.57 118.30 141.82 119.49 142.70 120.07 C 143.59 120.65 144.78 120.40 145.36 119.51 L 145.92 118.65 C 146.50 117.76 146.26 116.58 145.37 116.00 C 144.48 115.42 143.29 115.66 142.71 116.55 Z M 142.16 117.40 L 141.57 118.28 C 140.98 119.16 141.22 120.35 142.10 120.94 C 142.98 121.53 144.17 121.29 144.76 120.41 L 145.35 119.53 C 145.94 118.65 145.70 117.45 144.82 116.87 C 143.94 116.28 142.75 116.52 142.16 117.40 Z M 141.58 118.27 L 141.02 119.09 C 140.42 119.96 140.65 121.16 141.53 121.75 C 142.40 122.35 143.60 122.12 144.19 121.25 L 144.75 120.43 C 145.35 119.55 145.12 118.36 144.24 117.76 C 143.37 117.16 142.17 117.39 141.58 118.27 Z M 141.03 119.07 L 140.47 119.87 C 139.87 120.74 140.08 121.94 140.96 122.54 C 141.83 123.15 143.03 122.93 143.63 122.06 L 144.19 121.26 C 144.79 120.39 144.57 119.19 143.70 118.59 C 142.83 117.98 141.63 118.20 141.03 119.07 Z M 140.48 119.85 L 139.91 120.67 C 139.30 121.53 139.50 122.74 140.37 123.35 C 141.24 123.96 142.44 123.75 143.06 122.88 L 143.63 122.07 C 144.24 121.20 144.03 120.00 143.16 119.39 C 142.29 118.78 141.09 118.99 140.48 119.85 Z M 139.91 120.65 L 139.33 121.47 C 138.71 122.34 138.91 123.54 139.77 124.16 C 140.64 124.78 141.84 124.58 142.46 123.72 L 143.05 122.90 C 143.67 122.03 143.47 120.83 142.61 120.21 C 141.74 119.59 140.53 119.79 139.91 120.65 Z M 139.33 121.46 L 138.74 122.28 C 138.11 123.14 138.30 124.35 139.16 124.98 C 140.02 125.60 141.23 125.41 141.86 124.55 L 142.46 123.73 C 143.08 122.87 142.89 121.66 142.03 121.03 C 141.17 120.40 139.96 120.59 139.33 121.46 Z M 138.74 122.26 L 138.13 123.08 C 137.50 123.94 137.68 125.15 138.53 125.79 C 139.39 126.43 140.60 126.25 141.24 125.39 L 141.85 124.57 C 142.49 123.71 142.31 122.50 141.45 121.86 C 140.59 121.23 139.38 121.40 138.74 122.26 Z M 138.14 123.07 L 137.53 123.88 C 136.88 124.74 137.05 125.95 137.90 126.59 C 138.76 127.24 139.97 127.07 140.62 126.22 L 141.23 125.40 C 141.88 124.55 141.71 123.34 140.86 122.69 C 140.00 122.05 138.79 122.21 138.14 123.07 Z M 137.54 123.87 L 136.92 124.67 C 136.27 125.51 136.42 126.73 137.27 127.39 C 138.12 128.04 139.34 127.88 139.99 127.03 L 140.61 126.23 C 141.26 125.39 141.10 124.17 140.26 123.51 C 139.41 122.86 138.19 123.02 137.54 123.87 Z M 136.93 124.65 L 136.31 125.43 C 135.65 126.28 135.79 127.50 136.64 128.16 C 137.48 128.82 138.70 128.68 139.36 127.84 L 139.98 127.05 C 140.64 126.21 140.50 124.99 139.66 124.32 C 138.81 123.66 137.59 123.81 136.93 124.65 Z M 136.32 125.42 L 135.70 126.19 C 135.03 127.03 135.16 128.25 135.99 128.92 C 136.83 129.60 138.06 129.47 138.73 128.63 L 139.35 127.85 C 140.03 127.02 139.89 125.79 139.06 125.12 C 138.22 124.45 137.00 124.58 136.32 125.42 Z M 135.71 126.17 L 135.08 126.94 C 134.40 127.77 134.51 129.00 135.34 129.68 C 136.17 130.36 137.40 130.24 138.09 129.41 L 138.72 128.65 C 139.40 127.82 139.28 126.59 138.45 125.91 C 137.62 125.22 136.39 125.34 135.71 126.17 Z M 135.09 126.92 L 134.45 127.68 C 133.76 128.50 133.86 129.73 134.68 130.43 C 135.51 131.12 136.74 131.02 137.43 130.19 L 138.07 129.43 C 138.77 128.61 138.66 127.38 137.84 126.69 C 137.02 125.99 135.79 126.10 135.09 126.92 Z M 134.46 127.66 L 133.81 128.41 C 133.10 129.23 133.19 130.46 134.01 131.17 C 134.82 131.87 136.06 131.79 136.76 130.97 L 137.42 130.21 C 138.12 129.40 138.03 128.17 137.22 127.46 C 136.40 126.75 135.17 126.84 134.46 127.66 Z M 133.82 128.39 L 133.16 129.15 C 132.44 129.95 132.51 131.19 133.32 131.91 C 134.13 132.62 135.36 132.55 136.08 131.74 L 136.75 130.99 C 137.47 130.18 137.39 128.95 136.58 128.23 C 135.78 127.51 134.54 127.59 133.82 128.39 Z M 133.17 129.13 L 132.50 129.87 C 131.77 130.67 131.83 131.90 132.63 132.63 C 133.43 133.36 134.67 133.30 135.39 132.50 L 136.07 131.76 C 136.79 130.96 136.74 129.73 135.94 129.00 C 135.14 128.27 133.90 128.33 133.17 129.13 Z M 132.51 129.85 L 131.85 130.56 C 131.11 131.35 131.15 132.59 131.94 133.33 C 132.74 134.07 133.98 134.02 134.71 133.23 L 135.38 132.52 C 136.12 131.73 136.07 130.49 135.28 129.75 C 134.49 129.01 133.25 129.06 132.51 129.85 Z M 131.86 130.54 L 131.18 131.26 C 130.44 132.04 130.47 133.28 131.25 134.03 C 132.03 134.77 133.27 134.74 134.02 133.96 L 134.70 133.25 C 135.45 132.47 135.42 131.23 134.63 130.48 C 133.85 129.73 132.61 129.76 131.86 130.54 Z M 131.20 131.24 L 130.50 131.95 C 129.75 132.73 129.76 133.97 130.54 134.72 C 131.31 135.48 132.56 135.46 133.31 134.69 L 134.01 133.98 C 134.76 133.20 134.75 131.96 133.97 131.20 C 133.19 130.45 131.95 130.46 131.20 131.24 Z M 130.52 131.94 L 129.81 132.65 C 129.05 133.42 129.05 134.66 129.82 135.42 C 130.59 136.19 131.83 136.18 132.59 135.41 L 133.30 134.70 C 134.06 133.94 134.06 132.69 133.29 131.93 C 132.52 131.16 131.28 131.17 130.52 131.94 Z M 129.82 132.63 L 129.10 133.34 C 128.33 134.10 128.32 135.35 129.09 136.12 C 129.85 136.89 131.09 136.90 131.86 136.14 L 132.58 135.43 C 133.35 134.67 133.36 133.42 132.60 132.65 C 131.84 131.88 130.59 131.87 129.82 132.63 Z M 129.12 133.33 L 128.39 134.04 C 127.61 134.79 127.59 136.04 128.34 136.81 C 129.10 137.59 130.34 137.61 131.12 136.86 L 131.85 136.15 C 132.63 135.39 132.65 134.15 131.89 133.37 C 131.14 132.59 129.89 132.57 129.12 133.33 Z M 128.40 134.03 L 127.66 134.73 C 126.87 135.48 126.84 136.72 127.59 137.51 C 128.34 138.29 129.58 138.32 130.37 137.58 L 131.11 136.87 C 131.89 136.12 131.92 134.88 131.18 134.09 C 130.43 133.31 129.18 133.28 128.40 134.03 Z M 127.67 134.72 L 126.94 135.41 C 126.14 136.15 126.11 137.39 126.85 138.19 C 127.59 138.98 128.84 139.02 129.63 138.27 L 130.36 137.59 C 131.15 136.84 131.19 135.60 130.45 134.81 C 129.70 134.02 128.46 133.98 127.67 134.72 Z M 126.95 135.40 L 126.21 136.07 C 125.42 136.81 125.37 138.06 126.11 138.85 C 126.84 139.65 128.09 139.70 128.88 138.96 L 129.62 138.28 C 130.41 137.55 130.46 136.30 129.72 135.50 C 128.99 134.71 127.74 134.66 126.95 135.40 Z M 126.22 136.07 L 125.48 136.74 C 124.68 137.47 124.63 138.72 125.36 139.52 C 126.09 140.32 127.33 140.38 128.14 139.64 L 128.88 138.97 C 129.68 138.24 129.73 136.99 129.00 136.19 C 128.27 135.39 127.03 135.33 126.22 136.07 Z M 125.49 136.73 L 124.75 137.40 C 123.94 138.13 123.88 139.37 124.60 140.18 C 125.33 140.99 126.58 141.05 127.38 140.32 L 128.13 139.65 C 128.93 138.93 129.00 137.68 128.27 136.88 C 127.54 136.07 126.30 136.00 125.49 136.73 Z M 124.76 137.39 L 124.01 138.06 C 123.20 138.78 123.12 140.03 123.85 140.84 C 124.57 141.65 125.81 141.72 126.62 141.00 L 127.37 140.33 C 128.19 139.61 128.26 138.37 127.53 137.56 C 126.81 136.74 125.57 136.67 124.76 137.39 Z M 124.02 138.05 L 123.26 138.71 C 122.45 139.43 122.37 140.68 123.09 141.49 C 123.80 142.31 125.05 142.39 125.86 141.67 L 126.62 141.01 C 127.43 140.29 127.51 139.05 126.79 138.23 C 126.08 137.41 124.83 137.33 124.02 138.05 Z M 123.27 138.71 L 122.52 139.36 C 121.70 140.08 121.61 141.32 122.32 142.14 C 123.04 142.96 124.28 143.05 125.10 142.33 L 125.86 141.68 C 126.68 140.96 126.76 139.72 126.05 138.90 C 125.33 138.08 124.09 137.99 123.27 138.71 Z M 122.52 139.36 L 121.77 140.01 C 120.94 140.72 120.85 141.96 121.56 142.78 C 122.27 143.61 123.51 143.70 124.34 142.99 L 125.09 142.34 C 125.92 141.63 126.01 140.39 125.30 139.56 C 124.59 138.74 123.35 138.65 122.52 139.36 Z M 121.78 140.00 L 121.00 140.66 C 120.17 141.37 120.07 142.61 120.78 143.44 C 121.48 144.27 122.73 144.36 123.55 143.66 L 124.33 143.00 C 125.16 142.29 125.26 141.05 124.55 140.22 C 123.85 139.40 122.60 139.30 121.78 140.00 Z M 121.01 140.66 L 120.23 141.32 C 119.40 142.02 119.29 143.26 120.00 144.09 C 120.70 144.92 121.94 145.02 122.77 144.32 L 123.55 143.66 C 124.38 142.96 124.48 141.72 123.78 140.89 C 123.08 140.06 121.84 139.96 121.01 140.66 Z M 120.23 141.31 L 119.46 141.97 C 118.63 142.66 118.52 143.91 119.22 144.74 C 119.92 145.57 121.16 145.68 121.99 144.98 L 122.77 144.33 C 123.60 143.63 123.70 142.39 123.01 141.55 C 122.31 140.72 121.06 140.61 120.23 141.31 Z M 119.46 141.96 L 118.69 142.61 C 117.86 143.31 117.75 144.55 118.44 145.38 C 119.14 146.21 120.38 146.32 121.22 145.63 L 121.99 144.98 C 122.82 144.28 122.93 143.04 122.23 142.21 C 121.53 141.38 120.29 141.27 119.46 141.96 Z M 118.69 142.61 L 117.92 143.25 C 117.09 143.95 116.98 145.19 117.68 146.02 C 118.37 146.85 119.62 146.96 120.45 146.27 L 121.21 145.63 C 122.05 144.93 122.16 143.69 121.46 142.86 C 120.76 142.02 119.52 141.91 118.69 142.61 Z M 117.92 143.25 L 117.17 143.88 C 116.33 144.58 116.22 145.82 116.92 146.66 C 117.62 147.49 118.86 147.60 119.69 146.90 L 120.45 146.27 C 121.28 145.57 121.39 144.33 120.70 143.50 C 120.00 142.66 118.76 142.55 117.92 143.25 Z M 117.16 143.89 L 116.41 144.52 C 115.58 145.22 115.47 146.46 116.17 147.29 C 116.87 148.12 118.11 148.23 118.94 147.53 L 119.69 146.90 C 120.53 146.20 120.63 144.96 119.93 144.13 C 119.24 143.30 118.00 143.19 117.16 143.89 Z M 116.41 144.52 L 115.66 145.15 C 114.83 145.86 114.73 147.10 115.43 147.93 C 116.13 148.76 117.37 148.86 118.20 148.16 L 118.95 147.52 C 119.78 146.82 119.88 145.58 119.18 144.75 C 118.48 143.92 117.24 143.82 116.41 144.52 Z M 115.65 145.16 L 114.87 145.82 C 114.04 146.53 113.94 147.77 114.65 148.60 C 115.36 149.43 116.60 149.52 117.43 148.82 L 118.21 148.16 C 119.03 147.45 119.13 146.21 118.43 145.38 C 117.72 144.55 116.48 144.45 115.65 145.16 Z M 114.86 145.83 L 114.09 146.49 C 113.27 147.20 113.17 148.44 113.88 149.27 C 114.59 150.09 115.84 150.19 116.66 149.48 L 117.43 148.82 C 118.26 148.11 118.35 146.86 117.64 146.04 C 116.93 145.21 115.69 145.12 114.86 145.83 Z M 114.09 146.49 L 113.33 147.15 C 112.50 147.86 112.41 149.11 113.13 149.93 C 113.84 150.76 115.09 150.85 115.91 150.13 L 116.67 149.48 C 117.50 148.76 117.59 147.51 116.87 146.69 C 116.16 145.86 114.91 145.77 114.09 146.49 Z M 113.32 147.15 L 112.57 147.80 C 111.75 148.52 111.66 149.77 112.38 150.59 C 113.10 151.42 114.35 151.50 115.17 150.78 L 115.92 150.13 C 116.74 149.41 116.83 148.16 116.11 147.34 C 115.39 146.52 114.15 146.43 113.32 147.15 Z M 112.56 147.80 L 111.82 148.45 C 111.00 149.18 110.92 150.43 111.64 151.25 C 112.36 152.07 113.61 152.16 114.43 151.43 L 115.18 150.78 C 116.00 150.06 116.08 148.81 115.36 147.99 C 114.64 147.16 113.39 147.08 112.56 147.80 Z M 111.81 148.46 L 111.08 149.11 C 110.25 149.83 110.17 151.08 110.90 151.91 C 111.62 152.73 112.88 152.81 113.70 152.08 L 114.44 151.43 C 115.26 150.71 115.34 149.46 114.62 148.63 C 113.89 147.81 112.64 147.73 111.81 148.46 Z M 111.07 149.11 L 110.33 149.76 C 109.51 150.49 109.43 151.74 110.16 152.57 C 110.89 153.39 112.14 153.46 112.96 152.74 L 113.70 152.08 C 114.53 151.36 114.60 150.10 113.88 149.28 C 113.15 148.46 111.89 148.38 111.07 149.11 Z M 110.33 149.76 L 109.54 150.46 C 108.72 151.19 108.64 152.45 109.37 153.27 C 110.10 154.09 111.36 154.16 112.18 153.44 L 112.97 152.74 C 113.79 152.01 113.86 150.75 113.13 149.93 C 112.41 149.11 111.15 149.03 110.33 149.76 Z M 109.54 150.47 L 108.76 151.16 C 107.94 151.89 107.87 153.15 108.60 153.97 C 109.33 154.79 110.58 154.86 111.40 154.13 L 112.18 153.43 C 113.00 152.70 113.07 151.45 112.34 150.63 C 111.61 149.81 110.36 149.74 109.54 150.47 Z M 108.76 151.16 L 107.99 151.85 C 107.17 152.58 107.10 153.84 107.83 154.65 C 108.57 155.47 109.82 155.54 110.64 154.81 L 111.40 154.12 C 112.22 153.39 112.29 152.14 111.56 151.32 C 110.83 150.50 109.57 150.43 108.76 151.16 Z M 107.99 151.85 L 107.24 152.52 C 106.42 153.26 106.36 154.51 107.09 155.33 C 107.82 156.14 109.08 156.21 109.89 155.48 L 110.64 154.81 C 111.46 154.07 111.52 152.82 110.79 152.00 C 110.06 151.19 108.80 151.12 107.99 151.85 Z M 107.24 152.53 L 106.51 153.18 C 105.70 153.91 105.64 155.17 106.37 155.98 C 107.10 156.80 108.36 156.86 109.17 156.13 L 109.89 155.47 C 110.71 154.74 110.77 153.49 110.04 152.67 C 109.31 151.86 108.05 151.79 107.24 152.53 Z M 106.51 153.18 L 105.82 153.81 C 105.00 154.55 104.94 155.80 105.68 156.61 C 106.41 157.43 107.67 157.49 108.48 156.75 L 109.17 156.12 C 109.98 155.39 110.05 154.14 109.31 153.32 C 108.58 152.51 107.32 152.45 106.51 153.18 Z M 105.81 153.82 L 105.07 154.50 C 104.26 155.23 104.20 156.49 104.93 157.30 C 105.67 158.10 106.92 158.16 107.73 157.43 L 108.48 156.75 C 109.29 156.01 109.35 154.76 108.61 153.95 C 107.88 153.14 106.62 153.08 105.81 153.82 Z M 105.06 154.50 L 104.27 155.22 C 103.47 155.96 103.41 157.21 104.15 158.02 C 104.89 158.83 106.14 158.88 106.95 158.15 L 107.74 157.42 C 108.54 156.69 108.60 155.43 107.86 154.63 C 107.12 153.82 105.87 153.76 105.06 154.50 Z M 104.27 155.23 L 103.53 155.91 C 102.72 156.65 102.67 157.90 103.41 158.71 C 104.15 159.51 105.40 159.57 106.20 158.83 L 106.95 158.14 C 107.75 157.40 107.81 156.15 107.07 155.35 C 106.33 154.54 105.08 154.49 104.27 155.23 Z M 103.52 155.92 L 102.81 156.57 C 102.01 157.31 101.96 158.56 102.70 159.37 C 103.44 160.17 104.69 160.22 105.49 159.48 L 106.20 158.82 C 107.01 158.08 107.06 156.83 106.32 156.03 C 105.58 155.23 104.33 155.17 103.52 155.92 Z M 102.81 156.57 L 102.12 157.21 C 101.32 157.95 101.27 159.20 102.01 160.01 C 102.75 160.81 104.00 160.86 104.80 160.12 L 105.49 159.48 C 106.29 158.74 106.34 157.49 105.60 156.69 C 104.86 155.88 103.61 155.83 102.81 156.57 Z M 102.12 157.21 L 101.42 157.86 C 100.62 158.60 100.57 159.85 101.31 160.65 C 102.05 161.45 103.30 161.50 104.10 160.76 L 104.80 160.12 C 105.60 159.37 105.65 158.13 104.91 157.32 C 104.17 156.52 102.92 156.47 102.12 157.21 Z M 101.43 157.86 L 100.69 158.54 C 99.89 159.27 99.84 160.52 100.58 161.33 C 101.32 162.13 102.56 162.18 103.37 161.44 L 104.10 160.76 C 104.90 160.02 104.95 158.77 104.21 157.97 C 103.48 157.17 102.23 157.12 101.43 157.86 Z M 100.70 158.53 L 99.96 159.20 C 99.16 159.94 99.10 161.19 99.84 161.99 C 100.57 162.79 101.82 162.85 102.62 162.12 L 103.36 161.44 C 104.16 160.71 104.22 159.46 103.48 158.66 C 102.75 157.85 101.50 157.80 100.70 158.53 Z M 99.97 159.19 L 99.23 159.86 C 98.42 160.59 98.36 161.83 99.08 162.64 C 99.81 163.45 101.06 163.52 101.87 162.79 L 102.61 162.13 C 103.42 161.40 103.48 160.15 102.76 159.34 C 102.03 158.53 100.78 158.47 99.97 159.19 Z M 99.25 159.85 L 98.50 160.51 C 97.68 161.23 97.60 162.47 98.32 163.29 C 99.04 164.10 100.28 164.18 101.10 163.47 L 101.85 162.80 C 102.66 162.09 102.75 160.84 102.03 160.03 C 101.31 159.21 100.07 159.13 99.25 159.85 Z M 98.52 160.49 L 97.77 161.14 C 96.94 161.84 96.84 163.08 97.55 163.91 C 98.25 164.73 99.49 164.83 100.32 164.13 L 101.07 163.48 C 101.90 162.78 102.00 161.54 101.29 160.71 C 100.59 159.88 99.35 159.79 98.52 160.49 Z M 97.79 161.12 L 97.03 161.75 C 96.19 162.44 96.08 163.68 96.77 164.51 C 97.46 165.35 98.69 165.47 99.53 164.77 L 100.29 164.14 C 101.13 163.45 101.25 162.22 100.56 161.38 C 99.86 160.54 98.63 160.43 97.79 161.12 Z M 97.06 161.73 L 96.28 162.35 C 95.43 163.03 95.29 164.26 95.97 165.11 C 96.65 165.95 97.88 166.09 98.72 165.42 L 99.50 164.79 C 100.35 164.12 100.49 162.88 99.81 162.04 C 99.14 161.19 97.90 161.05 97.06 161.73 Z M 96.30 162.33 L 95.51 162.95 C 94.65 163.61 94.49 164.84 95.15 165.69 C 95.82 166.55 97.05 166.71 97.90 166.05 L 98.70 165.43 C 99.55 164.77 99.71 163.54 99.05 162.69 C 98.39 161.83 97.16 161.67 96.30 162.33 Z M 95.54 162.93 L 94.73 163.53 C 93.86 164.18 93.68 165.40 94.32 166.27 C 94.97 167.14 96.19 167.32 97.06 166.67 L 97.87 166.07 C 98.74 165.42 98.92 164.20 98.27 163.33 C 97.63 162.46 96.40 162.28 95.54 162.93 Z M 94.76 163.52 L 93.94 164.10 C 93.06 164.73 92.86 165.95 93.49 166.83 C 94.12 167.70 95.34 167.90 96.21 167.27 L 97.03 166.69 C 97.91 166.06 98.11 164.84 97.48 163.97 C 96.85 163.09 95.63 162.89 94.76 163.52 Z M 93.97 164.09 L 93.14 164.66 C 92.26 165.27 92.04 166.48 92.65 167.37 C 93.26 168.25 94.48 168.47 95.36 167.86 L 96.18 167.29 C 97.07 166.68 97.29 165.46 96.68 164.58 C 96.06 163.69 94.85 163.47 93.97 164.09 Z M 93.17 164.65 L 92.33 165.21 C 91.44 165.81 91.21 167.01 91.81 167.90 C 92.41 168.79 93.61 169.03 94.50 168.43 L 95.34 167.87 C 96.23 167.27 96.46 166.06 95.86 165.17 C 95.27 164.28 94.06 164.05 93.17 164.65 Z M 92.36 165.20 L 91.52 165.75 C 90.62 166.34 90.37 167.54 90.96 168.43 C 91.55 169.33 92.75 169.58 93.64 168.99 L 94.48 168.44 C 95.38 167.85 95.63 166.65 95.04 165.76 C 94.45 164.86 93.25 164.61 92.36 165.20 Z M 91.54 165.74 L 90.70 166.28 C 89.80 166.86 89.54 168.05 90.12 168.95 C 90.70 169.85 91.89 170.11 92.79 169.53 L 93.63 168.99 C 94.53 168.42 94.79 167.22 94.21 166.32 C 93.63 165.42 92.43 165.16 91.54 165.74 Z M 90.71 166.28 L 89.87 166.81 C 88.97 167.38 88.70 168.57 89.27 169.47 C 89.84 170.37 91.03 170.64 91.93 170.07 L 92.78 169.54 C 93.68 168.97 93.94 167.78 93.37 166.88 C 92.80 165.98 91.61 165.71 90.71 166.28 Z M 89.88 166.81 L 89.04 167.34 C 88.14 167.90 87.86 169.09 88.42 169.99 C 88.99 170.89 90.17 171.16 91.07 170.60 L 91.92 170.07 C 92.82 169.51 93.09 168.32 92.53 167.42 C 91.97 166.52 90.78 166.25 89.88 166.81 Z M 89.05 167.34 L 88.20 167.86 C 87.30 168.41 87.02 169.59 87.57 170.49 C 88.13 171.39 89.31 171.68 90.21 171.12 L 91.06 170.60 C 91.96 170.05 92.24 168.87 91.69 167.97 C 91.13 167.06 89.95 166.78 89.05 167.34 Z M 88.22 167.85 L 87.37 168.37 C 86.46 168.91 86.17 170.09 86.72 170.99 C 87.26 171.90 88.44 172.19 89.34 171.64 L 90.19 171.13 C 91.10 170.58 91.39 169.41 90.84 168.50 C 90.30 167.60 89.12 167.31 88.22 167.85 Z M 87.38 168.37 L 86.52 168.88 C 85.61 169.42 85.31 170.58 85.85 171.49 C 86.38 172.39 87.55 172.69 88.46 172.16 L 89.32 171.64 C 90.23 171.11 90.53 169.94 89.99 169.03 C 89.45 168.13 88.29 167.83 87.38 168.37 Z M 86.53 168.88 L 85.64 169.40 C 84.73 169.92 84.43 171.09 84.95 171.99 C 85.48 172.90 86.64 173.20 87.55 172.68 L 88.44 172.16 C 89.35 171.63 89.65 170.47 89.13 169.56 C 88.60 168.66 87.44 168.35 86.53 168.88 Z M 85.66 169.40 L 84.76 169.91 C 83.85 170.43 83.54 171.58 84.05 172.48 C 84.57 173.39 85.72 173.70 86.62 173.19 L 87.53 172.68 C 88.43 172.16 88.75 171.01 88.23 170.11 C 87.72 169.20 86.57 168.88 85.66 169.40 Z M 84.78 169.91 L 83.89 170.41 C 82.98 170.91 82.66 172.05 83.16 172.95 C 83.66 173.86 84.80 174.19 85.70 173.68 L 86.60 173.19 C 87.50 172.69 87.83 171.55 87.33 170.64 C 86.83 169.74 85.69 169.41 84.78 169.91 Z M 83.92 170.41 L 83.05 170.87 C 82.15 171.36 81.81 172.49 82.29 173.39 C 82.78 174.30 83.90 174.64 84.81 174.15 L 85.68 173.69 C 86.58 173.20 86.92 172.07 86.44 171.17 C 85.95 170.26 84.82 169.92 83.92 170.41 Z M 83.08 170.87 L 82.26 171.29 C 81.35 171.76 80.99 172.87 81.46 173.78 C 81.93 174.69 83.04 175.05 83.95 174.58 L 84.77 174.15 C 85.68 173.69 86.04 172.57 85.57 171.67 C 85.11 170.76 83.99 170.40 83.08 170.87 Z M 82.30 171.28 L 81.39 171.73 C 80.47 172.17 80.09 173.27 80.53 174.18 C 80.98 175.09 82.07 175.47 82.99 175.03 L 83.90 174.59 C 84.82 174.15 85.20 173.05 84.76 172.14 C 84.31 171.22 83.22 170.84 82.30 171.28 Z M 81.44 171.72 L 80.55 172.12 C 79.64 172.53 79.23 173.61 79.64 174.53 C 80.05 175.44 81.13 175.85 82.05 175.44 L 82.93 175.04 C 83.85 174.63 84.26 173.55 83.85 172.63 C 83.43 171.72 82.36 171.31 81.44 171.72 Z M 80.60 172.11 L 79.70 172.49 C 78.78 172.88 78.35 173.94 78.74 174.86 C 79.12 175.78 80.18 176.21 81.10 175.82 L 82.00 175.44 C 82.92 175.06 83.35 174.00 82.96 173.08 C 82.58 172.16 81.52 171.73 80.60 172.11 Z M 79.74 172.49 L 78.78 172.87 C 77.86 173.24 77.42 174.28 77.79 175.20 C 78.15 176.12 79.20 176.57 80.12 176.20 L 81.07 175.82 C 81.99 175.45 82.43 174.41 82.07 173.49 C 81.70 172.57 80.66 172.12 79.74 172.49 Z M 78.81 172.88 L 77.91 173.22 C 77.00 173.58 76.54 174.61 76.90 175.52 C 77.25 176.44 78.28 176.90 79.20 176.54 L 80.09 176.20 C 81.01 175.84 81.46 174.81 81.11 173.90 C 80.75 172.98 79.72 172.52 78.81 172.88 Z M 77.96 173.22 L 77.02 173.56 C 76.10 173.89 75.63 174.90 75.96 175.82 C 76.29 176.74 77.30 177.21 78.21 176.88 L 79.15 176.54 C 80.07 176.21 80.55 175.20 80.22 174.29 C 79.89 173.37 78.88 172.89 77.96 173.22 Z M 77.09 173.55 L 76.12 173.86 C 75.19 174.15 74.68 175.13 74.97 176.05 C 75.26 176.97 76.24 177.49 77.16 177.20 L 78.14 176.89 C 79.06 176.60 79.58 175.62 79.29 174.70 C 79.00 173.77 78.01 173.26 77.09 173.55 Z M 76.22 173.84 L 75.23 174.09 C 74.30 174.32 73.73 175.26 73.96 176.19 C 74.19 177.12 75.13 177.69 76.07 177.46 L 77.06 177.21 C 77.99 176.98 78.56 176.04 78.33 175.11 C 78.09 174.18 77.15 173.61 76.22 173.84 Z M 75.38 174.07 L 74.39 174.23 C 73.45 174.38 72.80 175.26 72.95 176.20 C 73.10 177.14 73.98 177.78 74.92 177.63 L 75.92 177.47 C 76.86 177.33 77.50 176.44 77.35 175.50 C 77.20 174.57 76.32 173.92 75.38 174.07 Z M 74.57 174.23 L 73.55 174.28 C 72.61 174.33 71.89 175.13 71.93 176.07 C 71.98 177.01 72.78 177.73 73.72 177.68 L 74.74 177.63 C 75.68 177.58 76.40 176.78 76.36 175.84 C 76.31 174.90 75.51 174.18 74.57 174.23 Z M 73.70 174.30 L 72.71 174.26 C 71.78 174.22 70.99 174.95 70.96 175.87 C 70.92 176.80 71.64 177.59 72.57 177.62 L 73.57 177.66 C 74.50 177.70 75.28 176.98 75.32 176.05 C 75.36 175.12 74.63 174.34 73.70 174.30 Z M 72.81 174.29 L 71.83 174.19 C 70.92 174.09 70.10 174.75 70.00 175.67 C 69.91 176.58 70.57 177.40 71.48 177.49 L 72.47 177.59 C 73.38 177.69 74.20 177.03 74.29 176.11 C 74.39 175.20 73.73 174.38 72.81 174.29 Z M 71.89 174.21 L 70.91 174.08 C 70.01 173.95 69.18 174.57 69.05 175.47 C 68.93 176.37 69.55 177.20 70.45 177.33 L 71.43 177.46 C 72.32 177.59 73.15 176.97 73.28 176.07 C 73.41 175.17 72.78 174.34 71.89 174.21 Z M 70.92 174.09 L 70.66 174.05 C 69.78 173.92 68.95 174.53 68.81 175.42 C 68.68 176.31 69.29 177.14 70.18 177.27 L 70.44 177.31 C 71.32 177.44 72.15 176.83 72.29 175.94 C 72.42 175.05 71.81 174.23 70.92 174.09 Z"
      fill="black"
      fill-rule="nonzero" /><path d="M 141.92 117.33 L 142.78 117.84 C 143.59 118.31 144.63 118.04 145.11 117.23 C 145.59 116.42 145.32 115.38 144.51 114.90 L 143.65 114.40 C 142.84 113.92 141.79 114.19 141.32 115.00 C 140.84 115.81 141.11 116.86 141.92 117.33 Z M 142.65 117.80 L 143.47 118.37 C 144.26 118.92 145.34 118.72 145.89 117.93 C 146.44 117.14 146.24 116.05 145.45 115.51 L 144.64 114.94 C 143.85 114.39 142.76 114.59 142.21 115.38 C 141.66 116.17 141.86 117.25 142.65 117.80 Z M 143.24 118.23 L 143.96 118.92 C 144.68 119.59 145.81 119.56 146.48 118.84 C 147.16 118.13 147.12 117.00 146.41 116.33 L 145.68 115.64 C 144.97 114.97 143.84 115.00 143.16 115.71 C 142.49 116.43 142.52 117.56 143.24 118.23 Z M 143.72 118.68 L 144.23 119.39 C 144.81 120.21 145.95 120.39 146.76 119.80 C 147.57 119.22 147.75 118.09 147.17 117.28 L 146.66 116.56 C 146.07 115.75 144.94 115.57 144.13 116.15 C 143.31 116.74 143.13 117.87 143.72 118.68 Z M 144.06 119.16 L 144.47 119.97 C 144.93 120.87 146.03 121.24 146.93 120.78 C 147.83 120.33 148.20 119.23 147.74 118.32 L 147.34 117.51 C 146.88 116.61 145.78 116.24 144.88 116.70 C 143.97 117.15 143.61 118.25 144.06 119.16 Z M 144.37 119.78 L 144.72 120.73 C 145.07 121.69 146.13 122.19 147.09 121.84 C 148.05 121.49 148.54 120.43 148.19 119.47 L 147.85 118.51 C 147.50 117.55 146.43 117.06 145.47 117.41 C 144.52 117.76 144.02 118.82 144.37 119.78 Z M 144.65 120.59 L 144.96 121.70 C 145.23 122.70 146.26 123.28 147.25 123.01 C 148.25 122.74 148.83 121.71 148.56 120.71 L 148.26 119.61 C 147.98 118.61 146.96 118.03 145.96 118.30 C 144.97 118.57 144.38 119.60 144.65 120.59 Z M 144.92 121.61 L 145.14 122.59 C 145.36 123.61 146.37 124.25 147.38 124.02 C 148.40 123.80 149.04 122.80 148.81 121.78 L 148.60 120.80 C 148.37 119.79 147.37 119.15 146.35 119.37 C 145.34 119.60 144.70 120.60 144.92 121.61 Z M 145.12 122.54 L 145.30 123.52 C 145.50 124.54 146.49 125.21 147.51 125.02 C 148.54 124.82 149.21 123.83 149.02 122.81 L 148.83 121.83 C 148.64 120.81 147.65 120.13 146.62 120.33 C 145.60 120.53 144.92 121.52 145.12 122.54 Z M 145.29 123.48 L 145.46 124.49 C 145.63 125.52 146.61 126.22 147.64 126.05 C 148.68 125.87 149.38 124.89 149.20 123.86 L 149.03 122.85 C 148.86 121.81 147.88 121.12 146.85 121.29 C 145.81 121.46 145.11 122.44 145.29 123.48 Z M 145.44 124.46 L 145.60 125.48 C 145.75 126.52 146.72 127.24 147.76 127.08 C 148.81 126.93 149.53 125.96 149.37 124.91 L 149.22 123.89 C 149.06 122.85 148.09 122.13 147.05 122.29 C 146.01 122.44 145.29 123.41 145.44 124.46 Z M 145.58 125.45 L 145.72 126.45 C 145.86 127.50 146.82 128.24 147.87 128.10 C 148.92 127.96 149.66 127.00 149.52 125.95 L 149.38 124.94 C 149.24 123.89 148.28 123.16 147.23 123.30 C 146.18 123.44 145.44 124.40 145.58 125.45 Z M 145.71 126.43 L 145.82 127.43 C 145.95 128.49 146.90 129.24 147.96 129.12 C 149.01 129.00 149.77 128.04 149.65 126.98 L 149.53 125.98 C 149.40 124.92 148.45 124.17 147.39 124.29 C 146.34 124.41 145.58 125.37 145.71 126.43 Z M 145.81 127.40 L 145.92 128.46 C 146.03 129.52 146.97 130.30 148.03 130.19 C 149.09 130.08 149.87 129.14 149.76 128.08 L 149.65 127.02 C 149.55 125.96 148.60 125.18 147.54 125.29 C 146.48 125.39 145.71 126.34 145.81 127.40 Z M 145.91 128.43 L 146.00 129.43 C 146.08 130.49 147.02 131.29 148.08 131.20 C 149.15 131.11 149.94 130.18 149.85 129.11 L 149.77 128.11 C 149.68 127.05 148.75 126.26 147.68 126.34 C 146.62 126.43 145.83 127.37 145.91 128.43 Z M 145.99 129.40 L 146.05 130.36 C 146.13 131.43 147.05 132.24 148.12 132.17 C 149.18 132.09 149.99 131.17 149.92 130.11 L 149.86 129.14 C 149.78 128.08 148.86 127.27 147.80 127.34 C 146.73 127.41 145.92 128.33 145.99 129.40 Z M 146.05 130.34 L 146.10 131.28 C 146.16 132.35 147.07 133.18 148.14 133.12 C 149.21 133.06 150.03 132.15 149.97 131.08 L 149.92 130.13 C 149.87 129.06 148.95 128.24 147.88 128.30 C 146.81 128.35 145.99 129.27 146.05 130.34 Z M 146.10 131.27 L 146.14 132.22 C 146.19 133.29 147.09 134.12 148.16 134.08 C 149.24 134.03 150.07 133.12 150.02 132.05 L 149.98 131.10 C 149.93 130.02 149.02 129.19 147.95 129.24 C 146.88 129.29 146.05 130.20 146.10 131.27 Z M 146.13 132.21 L 146.17 133.18 C 146.21 134.25 147.12 135.09 148.19 135.05 C 149.26 135.01 150.10 134.10 150.06 133.03 L 150.02 132.06 C 149.98 130.99 149.08 130.15 148.01 130.19 C 146.93 130.23 146.09 131.13 146.13 132.21 Z M 146.17 133.17 L 146.20 134.16 C 146.24 135.24 147.14 136.08 148.21 136.04 C 149.29 136.01 150.13 135.11 150.10 134.03 L 150.06 133.04 C 150.03 131.96 149.13 131.12 148.05 131.16 C 146.98 131.19 146.13 132.09 146.17 133.17 Z M 146.20 134.15 L 146.23 135.17 C 146.26 136.25 147.16 137.09 148.24 137.06 C 149.31 137.03 150.16 136.13 150.13 135.06 L 150.10 134.04 C 150.07 132.96 149.17 132.11 148.09 132.15 C 147.01 132.18 146.17 133.08 146.20 134.15 Z M 146.23 135.17 L 146.25 136.21 C 146.28 137.29 147.18 138.14 148.26 138.11 C 149.34 138.08 150.19 137.18 150.16 136.10 L 150.13 135.06 C 150.10 133.98 149.20 133.13 148.12 133.16 C 147.05 133.19 146.20 134.09 146.23 135.17 Z M 146.25 136.21 L 146.28 137.16 C 146.31 138.24 147.20 139.10 148.28 139.07 C 149.36 139.04 150.22 138.14 150.19 137.06 L 150.16 136.11 C 150.13 135.03 149.24 134.17 148.16 134.20 C 147.08 134.23 146.22 135.13 146.25 136.21 Z M 146.27 137.16 L 146.30 138.13 C 146.33 139.21 147.22 140.07 148.30 140.04 C 149.39 140.01 150.24 139.12 150.21 138.03 L 150.19 137.06 C 150.16 135.98 149.26 135.13 148.18 135.15 C 147.10 135.18 146.25 136.08 146.27 137.16 Z M 146.30 138.13 L 146.32 139.12 C 146.34 140.20 147.24 141.06 148.32 141.04 C 149.40 141.01 150.26 140.12 150.24 139.03 L 150.22 138.04 C 150.19 136.96 149.29 136.10 148.21 136.12 C 147.13 136.15 146.27 137.05 146.30 138.13 Z M 146.32 139.12 L 146.34 140.13 C 146.36 141.22 147.25 142.08 148.34 142.06 C 149.42 142.04 150.28 141.14 150.26 140.06 L 150.24 139.04 C 150.22 137.96 149.32 137.10 148.24 137.12 C 147.16 137.14 146.30 138.03 146.32 139.12 Z M 146.33 140.13 L 146.35 141.17 C 146.37 142.25 147.26 143.12 148.34 143.10 C 149.43 143.09 150.29 142.19 150.28 141.11 L 150.26 140.07 C 150.25 138.98 149.35 138.12 148.27 138.13 C 147.18 138.15 146.32 139.04 146.33 140.13 Z M 146.35 141.16 L 146.36 142.17 C 146.37 143.26 147.26 144.13 148.35 144.11 C 149.43 144.10 150.30 143.21 150.29 142.13 L 150.28 141.12 C 150.27 140.03 149.38 139.16 148.29 139.17 C 147.21 139.19 146.34 140.08 146.35 141.16 Z M 146.36 142.16 L 146.37 143.16 C 146.37 144.24 147.26 145.12 148.35 145.11 C 149.43 145.10 150.31 144.22 150.30 143.13 L 150.29 142.13 C 150.28 141.05 149.40 140.17 148.31 140.18 C 147.22 140.19 146.35 141.08 146.36 142.16 Z M 146.37 143.15 L 146.37 144.16 C 146.37 145.24 147.26 146.12 148.35 146.12 C 149.43 146.11 150.31 145.23 150.30 144.14 L 150.30 143.14 C 150.30 142.05 149.41 141.17 148.32 141.18 C 147.24 141.18 146.36 142.07 146.37 143.15 Z M 146.37 144.15 L 146.37 145.16 C 146.37 146.25 147.26 147.13 148.34 147.13 C 149.43 147.12 150.31 146.24 150.31 145.15 L 150.31 144.14 C 150.30 143.06 149.42 142.18 148.33 142.18 C 147.25 142.18 146.37 143.07 146.37 144.15 Z M 146.37 145.16 L 146.37 146.17 C 146.37 147.25 147.25 148.13 148.34 148.13 C 149.43 148.13 150.31 147.25 150.31 146.16 L 150.31 145.16 C 150.31 144.07 149.43 143.19 148.34 143.19 C 147.25 143.19 146.37 144.07 146.37 145.16 Z M 146.37 146.16 L 146.37 147.16 C 146.37 148.25 147.25 149.13 148.34 149.13 C 149.43 149.13 150.31 148.25 150.31 147.16 L 150.31 146.16 C 150.31 145.08 149.43 144.19 148.34 144.19 C 147.25 144.19 146.37 145.08 146.37 146.16 Z M 146.37 147.16 L 146.37 148.17 C 146.37 149.26 147.25 150.14 148.34 150.14 C 149.43 150.14 150.31 149.26 150.31 148.17 L 150.31 147.16 C 150.31 146.07 149.43 145.19 148.34 145.19 C 147.25 145.19 146.37 146.07 146.37 147.16 Z M 146.37 148.17 L 146.37 149.17 C 146.37 150.25 147.25 151.14 148.34 151.14 C 149.43 151.14 150.31 150.25 150.31 149.17 L 150.31 148.17 C 150.31 147.08 149.43 146.20 148.34 146.20 C 147.25 146.20 146.37 147.08 146.37 148.17 Z M 146.37 149.17 L 146.37 150.16 C 146.37 151.25 147.25 152.13 148.34 152.13 C 149.43 152.13 150.31 151.25 150.31 150.16 L 150.31 149.17 C 150.31 148.08 149.43 147.19 148.34 147.19 C 147.25 147.19 146.37 148.08 146.37 149.17 Z M 146.37 150.16 L 146.37 151.15 C 146.37 152.24 147.25 153.12 148.34 153.12 C 149.43 153.12 150.31 152.24 150.31 151.15 L 150.31 150.16 C 150.31 149.07 149.43 148.19 148.34 148.19 C 147.25 148.19 146.37 149.07 146.37 150.16 Z M 146.37 151.15 L 146.37 152.15 C 146.37 153.24 147.25 154.12 148.34 154.12 C 149.43 154.12 150.31 153.24 150.31 152.15 L 150.31 151.15 C 150.31 150.06 149.43 149.18 148.34 149.18 C 147.25 149.18 146.37 150.06 146.37 151.15 Z M 146.37 152.15 L 146.37 153.15 C 146.37 154.24 147.25 155.12 148.34 155.12 C 149.43 155.12 150.31 154.24 150.31 153.15 L 150.31 152.15 C 150.31 151.06 149.43 150.18 148.34 150.18 C 147.25 150.18 146.37 151.06 146.37 152.15 Z M 146.37 153.15 L 146.37 154.12 C 146.37 155.21 147.25 156.09 148.34 156.09 C 149.43 156.09 150.31 155.21 150.31 154.12 L 150.31 153.15 C 150.31 152.06 149.43 151.17 148.34 151.17 C 147.25 151.17 146.37 152.06 146.37 153.15 Z M 146.37 154.12 L 146.37 155.10 C 146.36 156.19 147.25 157.08 148.34 157.08 C 149.43 157.08 150.31 156.20 150.31 155.11 L 150.31 154.12 C 150.32 153.03 149.43 152.15 148.34 152.15 C 147.25 152.14 146.37 153.03 146.37 154.12 Z M 146.37 155.10 L 146.36 156.10 C 146.36 157.19 147.24 158.07 148.33 158.08 C 149.42 158.08 150.31 157.20 150.31 156.11 L 150.31 155.11 C 150.32 154.02 149.43 153.13 148.34 153.13 C 147.25 153.13 146.37 154.01 146.37 155.10 Z M 146.36 156.09 L 146.36 157.11 C 146.35 158.20 147.23 159.08 148.32 159.09 C 149.41 159.09 150.30 158.21 150.31 157.12 L 150.31 156.11 C 150.32 155.02 149.44 154.13 148.35 154.13 C 147.26 154.12 146.37 155.00 146.36 156.09 Z M 146.36 157.10 L 146.35 158.12 C 146.34 159.21 147.22 160.10 148.31 160.11 C 149.40 160.12 150.29 159.24 150.30 158.15 L 150.31 157.13 C 150.31 156.04 149.44 155.15 148.35 155.14 C 147.26 155.13 146.37 156.01 146.36 157.10 Z M 146.35 158.12 L 146.34 159.13 C 146.33 160.22 147.20 161.11 148.29 161.12 C 149.38 161.14 150.28 160.26 150.29 159.17 L 150.30 158.16 C 150.31 157.07 149.44 156.17 148.35 156.16 C 147.25 156.15 146.36 157.03 146.35 158.12 Z M 146.34 159.12 L 146.33 160.10 C 146.31 161.19 147.18 162.09 148.27 162.10 C 149.36 162.12 150.26 161.25 150.28 160.16 L 150.29 159.18 C 150.30 158.09 149.43 157.19 148.34 157.18 C 147.25 157.16 146.36 158.03 146.34 159.12 Z M 146.33 160.09 L 146.31 161.08 C 146.29 162.17 147.16 163.07 148.25 163.09 C 149.34 163.11 150.24 162.25 150.26 161.16 L 150.27 160.17 C 150.29 159.08 149.43 158.18 148.34 158.16 C 147.25 158.14 146.35 159.00 146.33 160.09 Z M 146.31 161.07 L 146.29 162.07 C 146.26 163.16 147.12 164.06 148.21 164.09 C 149.30 164.12 150.20 163.25 150.23 162.16 L 150.26 161.17 C 150.28 160.08 149.42 159.17 148.33 159.15 C 147.24 159.12 146.34 159.98 146.31 161.07 Z M 146.29 162.06 L 146.25 163.06 C 146.22 164.15 147.08 165.06 148.17 165.09 C 149.26 165.13 150.17 164.27 150.20 163.18 L 150.23 162.18 C 150.26 161.09 149.41 160.18 148.32 160.14 C 147.23 160.11 146.32 160.97 146.29 162.06 Z M 146.26 163.05 L 146.22 164.06 C 146.18 165.15 147.02 166.07 148.11 166.11 C 149.20 166.15 150.12 165.30 150.16 164.21 L 150.20 163.20 C 150.24 162.11 149.39 161.19 148.30 161.15 C 147.21 161.11 146.30 161.96 146.26 163.05 Z M 146.22 164.04 L 146.17 165.06 C 146.12 166.15 146.96 167.08 148.05 167.13 C 149.14 167.18 150.06 166.34 150.11 165.25 L 150.16 164.23 C 150.21 163.14 149.37 162.22 148.28 162.17 C 147.19 162.12 146.27 162.96 146.22 164.04 Z M 146.17 165.05 L 146.12 166.04 C 146.06 167.13 146.89 168.06 147.98 168.12 C 149.06 168.18 149.99 167.35 150.05 166.26 L 150.11 165.27 C 150.17 164.18 149.34 163.25 148.25 163.19 C 147.16 163.13 146.23 163.96 146.17 165.05 Z M 146.12 166.02 L 146.06 167.02 C 145.99 168.11 146.81 169.04 147.90 169.11 C 148.98 169.18 149.92 168.36 149.99 167.27 L 150.05 166.27 C 150.12 165.19 149.30 164.25 148.21 164.18 C 147.12 164.11 146.19 164.94 146.12 166.02 Z M 146.06 167.01 L 145.99 168.01 C 145.91 169.09 146.73 170.03 147.81 170.11 C 148.90 170.19 149.84 169.37 149.92 168.29 L 149.99 167.29 C 150.06 166.20 149.25 165.26 148.16 165.18 C 147.08 165.11 146.13 165.92 146.06 167.01 Z M 145.99 168.00 L 145.91 169.00 C 145.83 170.08 146.64 171.03 147.72 171.11 C 148.81 171.19 149.75 170.38 149.84 169.30 L 149.91 168.30 C 150.00 167.21 149.19 166.27 148.10 166.18 C 147.02 166.10 146.07 166.91 145.99 168.00 Z M 145.91 168.98 L 145.83 169.98 C 145.74 171.07 146.54 172.02 147.63 172.11 C 148.71 172.20 149.66 171.39 149.75 170.31 L 149.83 169.31 C 149.92 168.23 149.12 167.28 148.04 167.19 C 146.95 167.10 146.00 167.90 145.91 168.98 Z M 145.83 169.97 L 145.74 170.97 C 145.65 172.05 146.45 173.01 147.53 173.10 C 148.61 173.20 149.57 172.40 149.66 171.31 L 149.75 170.32 C 149.84 169.24 149.04 168.28 147.96 168.19 C 146.88 168.09 145.93 168.89 145.83 169.97 Z M 145.75 170.96 L 145.65 171.96 C 145.56 173.04 146.35 173.99 147.43 174.09 C 148.51 174.19 149.47 173.40 149.57 172.31 L 149.66 171.32 C 149.76 170.24 148.96 169.28 147.88 169.18 C 146.80 169.09 145.84 169.88 145.75 170.96 Z M 145.66 171.95 L 145.56 172.94 C 145.46 174.02 146.25 174.98 147.33 175.08 C 148.41 175.18 149.37 174.39 149.47 173.31 L 149.57 172.32 C 149.67 171.24 148.88 170.28 147.80 170.18 C 146.72 170.08 145.76 170.87 145.66 171.95 Z M 145.57 172.93 L 145.47 173.92 C 145.36 175.00 146.15 175.96 147.23 176.06 C 148.31 176.17 149.27 175.38 149.37 174.31 L 149.47 173.32 C 149.58 172.24 148.79 171.28 147.71 171.17 C 146.63 171.07 145.67 171.85 145.57 172.93 Z M 145.47 173.91 L 145.37 174.90 C 145.26 175.98 146.05 176.94 147.12 177.05 C 148.20 177.16 149.16 176.38 149.27 175.30 L 149.37 174.31 C 149.48 173.24 148.69 172.27 147.62 172.16 C 146.54 172.06 145.58 172.84 145.47 173.91 Z M 145.37 174.90 L 145.27 175.89 C 145.16 176.97 145.94 177.93 147.01 178.04 C 148.09 178.15 149.05 177.37 149.16 176.30 L 149.26 175.31 C 149.38 174.23 148.60 173.27 147.52 173.16 C 146.45 173.04 145.49 173.82 145.37 174.90 Z M 145.27 175.89 L 145.17 176.89 C 145.05 177.96 145.83 178.92 146.90 179.04 C 147.97 179.15 148.94 178.37 149.05 177.30 L 149.16 176.30 C 149.27 175.23 148.50 174.27 147.42 174.15 C 146.35 174.04 145.39 174.81 145.27 175.89 Z M 145.17 176.88 L 145.06 177.89 C 144.94 178.96 145.72 179.93 146.79 180.04 C 147.86 180.16 148.82 179.39 148.94 178.32 L 149.05 177.31 C 149.16 176.24 148.39 175.27 147.32 175.16 C 146.25 175.04 145.29 175.81 145.17 176.88 Z M 145.06 177.89 L 144.95 178.91 C 144.83 179.98 145.60 180.94 146.67 181.06 C 147.74 181.18 148.70 180.41 148.82 179.34 L 148.93 178.32 C 149.05 177.25 148.28 176.29 147.21 176.17 C 146.14 176.05 145.18 176.82 145.06 177.89 Z M 144.95 178.90 L 144.84 179.93 C 144.72 180.99 145.49 181.95 146.55 182.07 C 147.62 182.20 148.58 181.43 148.70 180.36 L 148.82 179.34 C 148.94 178.27 148.17 177.31 147.10 177.19 C 146.04 177.07 145.08 177.84 144.95 178.90 Z M 144.84 179.92 L 144.73 180.94 C 144.60 182.00 145.37 182.96 146.43 183.09 C 147.49 183.21 148.46 182.45 148.58 181.38 L 148.70 180.37 C 148.82 179.30 148.06 178.34 146.99 178.22 C 145.93 178.09 144.97 178.86 144.84 179.92 Z M 144.73 180.93 L 144.61 181.94 C 144.49 183.00 145.24 183.96 146.30 184.09 C 147.37 184.21 148.33 183.46 148.46 182.39 L 148.57 181.39 C 148.70 180.33 147.94 179.37 146.88 179.24 C 145.82 179.11 144.86 179.87 144.73 180.93 Z M 144.62 181.93 L 144.50 182.91 C 144.37 183.97 145.12 184.94 146.18 185.07 C 147.24 185.20 148.20 184.44 148.33 183.38 L 148.45 182.40 C 148.58 181.34 147.83 180.38 146.77 180.25 C 145.71 180.12 144.75 180.87 144.62 181.93 Z M 144.50 182.90 L 144.38 183.86 C 144.24 184.91 144.99 185.88 146.05 186.01 C 147.10 186.15 148.07 185.40 148.20 184.34 L 148.33 183.39 C 148.46 182.34 147.71 181.37 146.66 181.24 C 145.60 181.10 144.63 181.85 144.50 182.90 Z M 144.38 183.85 L 144.25 184.85 C 144.11 185.90 144.85 186.87 145.90 187.01 C 146.96 187.15 147.92 186.41 148.06 185.36 L 148.20 184.35 C 148.34 183.30 147.60 182.33 146.55 182.19 C 145.49 182.05 144.53 182.79 144.38 183.85 Z M 144.26 184.84 L 144.11 185.89 C 143.96 186.94 144.69 187.91 145.74 188.06 C 146.79 188.21 147.76 187.47 147.91 186.43 L 148.06 185.37 C 148.20 184.32 147.47 183.35 146.42 183.20 C 145.38 183.06 144.41 183.79 144.26 184.84 Z M 144.12 185.88 L 143.97 186.89 C 143.82 187.93 144.54 188.90 145.58 189.06 C 146.63 189.21 147.60 188.49 147.75 187.44 L 147.90 186.44 C 148.06 185.39 147.33 184.42 146.29 184.27 C 145.24 184.11 144.27 184.84 144.12 185.88 Z M 143.98 186.88 L 143.83 187.84 C 143.67 188.88 144.38 189.86 145.42 190.02 C 146.46 190.18 147.44 189.46 147.60 188.42 L 147.75 187.45 C 147.90 186.41 147.19 185.44 146.15 185.28 C 145.11 185.12 144.14 185.84 143.98 186.88 Z M 143.84 187.84 L 143.69 188.77 C 143.52 189.81 144.23 190.78 145.27 190.95 C 146.30 191.11 147.28 190.40 147.44 189.37 L 147.59 188.43 C 147.75 187.39 147.05 186.42 146.01 186.26 C 144.97 186.09 144.00 186.80 143.84 187.84 Z M 143.70 188.77 L 143.55 189.70 C 143.38 190.73 144.08 191.70 145.11 191.87 C 146.15 192.04 147.12 191.34 147.28 190.30 L 147.43 189.37 C 147.60 188.34 146.90 187.37 145.87 187.20 C 144.83 187.03 143.86 187.74 143.70 188.77 Z M 143.55 189.70 L 143.39 190.71 C 143.22 191.74 143.92 192.71 144.94 192.88 C 145.97 193.05 146.94 192.35 147.11 191.32 L 147.28 190.31 C 147.44 189.28 146.75 188.31 145.72 188.14 C 144.69 187.97 143.72 188.67 143.55 189.70 Z M 143.39 190.71 L 143.23 191.71 C 143.06 192.73 143.75 193.70 144.78 193.87 C 145.80 194.04 146.77 193.35 146.94 192.33 L 147.10 191.32 C 147.27 190.30 146.58 189.33 145.56 189.16 C 144.53 188.99 143.56 189.69 143.39 190.71 Z M 143.24 191.71 L 143.07 192.69 C 142.90 193.71 143.59 194.68 144.61 194.85 C 145.63 195.02 146.59 194.33 146.76 193.31 L 146.93 192.33 C 147.10 191.31 146.41 190.34 145.39 190.17 C 144.37 190.00 143.41 190.69 143.24 191.71 Z M 143.08 192.69 L 142.91 193.65 C 142.74 194.67 143.42 195.63 144.44 195.81 C 145.45 195.98 146.41 195.30 146.59 194.28 L 146.75 193.32 C 146.93 192.30 146.25 191.34 145.23 191.17 C 144.22 190.99 143.25 191.67 143.08 192.69 Z M 142.92 193.65 L 142.75 194.62 C 142.57 195.63 143.25 196.59 144.26 196.77 C 145.27 196.95 146.23 196.27 146.41 195.26 L 146.58 194.29 C 146.76 193.28 146.08 192.32 145.07 192.14 C 144.06 191.96 143.10 192.64 142.92 193.65 Z M 142.76 194.62 L 142.58 195.63 C 142.40 196.64 143.07 197.60 144.07 197.78 C 145.07 197.96 146.03 197.29 146.21 196.29 L 146.40 195.27 C 146.58 194.27 145.91 193.31 144.91 193.13 C 143.90 192.94 142.94 193.61 142.76 194.62 Z M 142.59 195.63 L 142.41 196.62 C 142.23 197.62 142.89 198.58 143.89 198.76 C 144.88 198.94 145.84 198.28 146.02 197.28 L 146.21 196.29 C 146.39 195.29 145.73 194.34 144.73 194.15 C 143.73 193.97 142.77 194.63 142.59 195.63 Z M 142.42 196.62 L 142.24 197.59 C 142.06 198.58 142.72 199.54 143.71 199.72 C 144.70 199.90 145.66 199.24 145.84 198.25 L 146.01 197.28 C 146.20 196.29 145.54 195.34 144.55 195.15 C 143.55 194.97 142.60 195.63 142.42 196.62 Z M 142.25 197.59 L 142.08 198.54 C 141.90 199.53 142.55 200.47 143.54 200.65 C 144.53 200.83 145.48 200.18 145.66 199.19 L 145.83 198.25 C 146.01 197.26 145.35 196.31 144.36 196.13 C 143.38 195.95 142.43 196.61 142.25 197.59 Z M 142.09 198.55 L 141.90 199.57 C 141.73 200.55 142.38 201.49 143.37 201.67 C 144.35 201.84 145.29 201.19 145.47 200.20 L 145.65 199.18 C 145.82 198.20 145.17 197.26 144.19 197.08 C 143.20 196.91 142.26 197.56 142.09 198.55 Z M 141.91 199.57 L 141.74 200.57 C 141.56 201.55 142.22 202.48 143.19 202.65 C 144.17 202.83 145.11 202.17 145.28 201.20 L 145.46 200.20 C 145.63 199.22 144.98 198.29 144.00 198.11 C 143.02 197.94 142.09 198.59 141.91 199.57 Z M 141.75 200.57 L 141.58 201.54 C 141.40 202.51 142.05 203.44 143.02 203.61 C 144.00 203.79 144.93 203.14 145.10 202.16 L 145.27 201.19 C 145.44 200.22 144.79 199.29 143.82 199.12 C 142.85 198.95 141.92 199.60 141.75 200.57 Z M 141.59 201.54 L 141.42 202.49 C 141.24 203.45 141.88 204.38 142.85 204.55 C 143.82 204.73 144.74 204.08 144.92 203.12 L 145.09 202.17 C 145.26 201.20 144.62 200.28 143.65 200.10 C 142.69 199.93 141.76 200.57 141.59 201.54 Z M 141.43 202.48 L 141.25 203.47 C 141.07 204.43 141.70 205.35 142.66 205.53 C 143.62 205.70 144.54 205.07 144.72 204.11 L 144.90 203.12 C 145.08 202.16 144.44 201.24 143.49 201.07 C 142.53 200.89 141.61 201.52 141.43 202.48 Z M 141.26 203.47 L 141.08 204.44 C 140.90 205.40 141.53 206.31 142.48 206.49 C 143.43 206.67 144.35 206.04 144.53 205.09 L 144.71 204.11 C 144.89 203.16 144.26 202.24 143.31 202.07 C 142.35 201.89 141.44 202.52 141.26 203.47 Z M 141.09 204.45 L 140.91 205.43 C 140.73 206.37 141.36 207.28 142.30 207.46 C 143.25 207.63 144.16 207.01 144.33 206.06 L 144.51 205.08 C 144.69 204.14 144.06 203.23 143.12 203.05 C 142.17 202.88 141.26 203.50 141.09 204.45 Z M 140.92 205.44 L 140.74 206.40 C 140.57 207.34 141.19 208.24 142.13 208.41 C 143.07 208.58 143.97 207.96 144.15 207.02 L 144.32 206.05 C 144.49 205.12 143.87 204.21 142.93 204.04 C 141.99 203.87 141.09 204.50 140.92 205.44 Z M 140.75 206.41 L 140.59 207.36 C 140.42 208.29 141.04 209.18 141.98 209.35 C 142.91 209.51 143.80 208.89 143.97 207.95 L 144.14 207.01 C 144.30 206.07 143.68 205.18 142.74 205.02 C 141.81 204.85 140.92 205.47 140.75 206.41 Z M 140.59 207.37 L 140.43 208.35 C 140.27 209.28 140.89 210.16 141.82 210.32 C 142.75 210.48 143.63 209.85 143.79 208.92 L 143.96 207.94 C 144.12 207.01 143.49 206.13 142.56 205.97 C 141.63 205.81 140.75 206.44 140.59 207.37 Z M 140.44 208.36 L 140.27 209.38 C 140.12 210.31 140.74 211.18 141.67 211.33 C 142.59 211.48 143.46 210.86 143.62 209.93 L 143.78 208.91 C 143.93 207.98 143.31 207.11 142.38 206.96 C 141.46 206.81 140.59 207.44 140.44 208.36 Z M 140.28 209.40 L 140.12 210.42 C 139.97 211.34 140.60 212.20 141.52 212.34 C 142.44 212.49 143.30 211.86 143.45 210.94 L 143.61 209.92 C 143.75 209.00 143.12 208.14 142.20 207.99 C 141.28 207.85 140.42 208.48 140.28 209.40 Z M 140.13 210.43 L 139.97 211.43 C 139.84 212.35 140.46 213.20 141.38 213.34 C 142.29 213.48 143.15 212.85 143.29 211.94 L 143.44 210.93 C 143.58 210.02 142.95 209.16 142.03 209.02 C 141.12 208.89 140.27 209.51 140.13 210.43 Z M 139.98 211.44 L 139.83 212.45 C 139.69 213.36 140.32 214.20 141.23 214.34 C 142.14 214.48 142.99 213.85 143.12 212.94 L 143.28 211.94 C 143.41 211.03 142.79 210.18 141.88 210.04 C 140.97 209.90 140.12 210.53 139.98 211.44 Z M 139.84 212.44 L 139.69 213.43 C 139.55 214.33 140.17 215.18 141.07 215.32 C 141.97 215.46 142.82 214.84 142.96 213.94 L 143.11 212.95 C 143.25 212.05 142.63 211.20 141.73 211.06 C 140.83 210.92 139.98 211.54 139.84 212.44 Z M 139.70 213.42 L 139.54 214.39 C 139.40 215.28 140.00 216.13 140.90 216.27 C 141.80 216.42 142.64 215.81 142.79 214.92 L 142.95 213.95 C 143.09 213.05 142.49 212.21 141.59 212.06 C 140.69 211.91 139.85 212.52 139.70 213.42 Z M 139.56 214.37 L 139.38 215.41 C 139.22 216.30 139.81 217.15 140.70 217.30 C 141.59 217.46 142.43 216.87 142.59 215.98 L 142.77 214.93 C 142.93 214.05 142.34 213.20 141.45 213.05 C 140.56 212.89 139.72 213.48 139.56 214.37 Z M 139.40 215.40 L 139.21 216.37 C 139.05 217.25 139.62 218.09 140.50 218.26 C 141.37 218.42 142.22 217.85 142.38 216.97 L 142.57 216.00 C 142.73 215.12 142.16 214.28 141.28 214.11 C 140.41 213.95 139.56 214.52 139.40 215.40 Z M 139.23 216.36 L 139.05 217.30 C 138.88 218.16 139.44 219.00 140.30 219.17 C 141.17 219.34 142.01 218.78 142.18 217.91 L 142.36 216.98 C 142.53 216.12 141.97 215.28 141.11 215.11 C 140.24 214.94 139.40 215.50 139.23 216.36 Z M 139.06 217.30 L 138.98 217.68 C 138.81 218.54 139.37 219.37 140.23 219.55 C 141.08 219.72 141.92 219.16 142.09 218.30 L 142.16 217.92 C 142.34 217.06 141.78 216.23 140.92 216.05 C 140.07 215.88 139.23 216.44 139.06 217.30 Z"
      fill="black"
      fill-rule="nonzero" /><path d="M 153.54 155.17 L 154.41 155.54 C 155.36 155.96 156.47 155.52 156.89 154.56 C 157.30 153.61 156.87 152.50 155.91 152.08 L 155.04 151.71 C 154.09 151.29 152.98 151.73 152.56 152.69 C 152.15 153.64 152.59 154.75 153.54 155.17 Z M 154.39 155.57 L 155.27 155.95 C 156.23 156.38 157.37 155.94 157.79 154.97 C 158.22 154.00 157.78 152.87 156.81 152.44 L 155.93 152.06 C 154.96 151.63 153.83 152.07 153.40 153.04 C 152.98 154.01 153.42 155.14 154.39 155.57 Z M 155.24 155.97 L 156.14 156.38 C 157.12 156.82 158.28 156.39 158.72 155.41 C 159.16 154.43 158.72 153.27 157.74 152.83 L 156.84 152.42 C 155.86 151.98 154.70 152.42 154.26 153.40 C 153.82 154.38 154.26 155.53 155.24 155.97 Z M 156.11 156.40 L 157.06 156.84 C 158.05 157.30 159.22 156.87 159.68 155.88 C 160.15 154.89 159.72 153.72 158.73 153.26 L 157.78 152.81 C 156.79 152.35 155.61 152.78 155.15 153.77 C 154.69 154.76 155.12 155.94 156.11 156.40 Z M 157.02 156.85 L 157.96 157.31 C 158.96 157.79 160.15 157.37 160.64 156.37 C 161.12 155.38 160.70 154.18 159.70 153.70 L 158.76 153.24 C 157.77 152.76 156.57 153.18 156.09 154.18 C 155.60 155.17 156.02 156.37 157.02 156.85 Z M 157.93 157.31 L 158.82 157.75 C 159.82 158.25 161.03 157.84 161.53 156.84 C 162.03 155.85 161.62 154.64 160.62 154.14 L 159.73 153.70 C 158.73 153.20 157.52 153.61 157.02 154.60 C 156.53 155.60 156.93 156.81 157.93 157.31 Z M 158.81 157.75 L 159.72 158.21 C 160.72 158.72 161.94 158.31 162.44 157.32 C 162.94 156.32 162.54 155.10 161.55 154.60 L 160.63 154.14 C 159.63 153.64 158.42 154.04 157.92 155.04 C 157.41 156.03 157.81 157.25 158.81 157.75 Z M 159.72 158.22 L 160.64 158.68 C 161.64 159.18 162.86 158.78 163.36 157.78 C 163.87 156.78 163.46 155.56 162.46 155.06 L 161.55 154.59 C 160.55 154.09 159.33 154.49 158.82 155.49 C 158.32 156.49 158.72 157.71 159.72 158.22 Z M 160.64 158.69 L 161.54 159.14 C 162.55 159.64 163.77 159.23 164.27 158.23 C 164.77 157.22 164.36 156.00 163.36 155.49 L 162.46 155.05 C 161.45 154.54 160.23 154.95 159.73 155.96 C 159.23 156.96 159.63 158.19 160.64 158.69 Z M 161.56 159.15 L 162.43 159.57 C 163.44 160.07 164.66 159.65 165.15 158.63 C 165.65 157.62 165.23 156.40 164.21 155.90 L 163.34 155.48 C 162.33 154.99 161.11 155.41 160.61 156.42 C 160.12 157.44 160.54 158.66 161.56 159.15 Z M 162.45 159.59 L 163.42 160.05 C 164.45 160.52 165.67 160.08 166.14 159.06 C 166.62 158.03 166.18 156.82 165.15 156.34 L 164.18 155.89 C 163.16 155.41 161.94 155.85 161.47 156.87 C 160.99 157.90 161.43 159.12 162.45 159.59 Z M 163.45 160.06 L 164.38 160.47 C 165.41 160.93 166.62 160.47 167.08 159.44 C 167.54 158.40 167.08 157.19 166.05 156.73 L 165.12 156.32 C 164.09 155.86 162.88 156.32 162.42 157.36 C 161.96 158.39 162.42 159.60 163.45 160.06 Z M 164.40 160.49 L 165.29 160.87 C 166.33 161.32 167.54 160.84 167.99 159.80 C 168.44 158.76 167.96 157.55 166.92 157.10 L 166.02 156.72 C 164.98 156.27 163.78 156.75 163.33 157.79 C 162.88 158.83 163.36 160.04 164.40 160.49 Z M 165.31 160.88 L 166.19 161.25 C 167.24 161.69 168.44 161.20 168.88 160.16 C 169.32 159.11 168.83 157.91 167.79 157.47 L 166.90 157.10 C 165.86 156.66 164.65 157.15 164.21 158.19 C 163.77 159.24 164.26 160.44 165.31 160.88 Z M 166.20 161.26 L 167.08 161.63 C 168.13 162.07 169.33 161.57 169.77 160.53 C 170.21 159.48 169.72 158.28 168.67 157.84 L 167.79 157.47 C 166.74 157.03 165.53 157.52 165.10 158.57 C 164.66 159.61 165.15 160.82 166.20 161.26 Z M 167.08 161.63 L 167.97 162.00 C 169.02 162.44 170.22 161.95 170.66 160.90 C 171.10 159.86 170.61 158.65 169.56 158.21 L 168.67 157.84 C 167.63 157.40 166.42 157.89 165.98 158.94 C 165.54 159.98 166.03 161.19 167.08 161.63 Z M 167.97 162.00 L 168.89 162.39 C 169.94 162.83 171.14 162.33 171.58 161.28 C 172.02 160.23 171.52 159.03 170.47 158.59 L 169.56 158.21 C 168.51 157.77 167.31 158.27 166.87 159.31 C 166.43 160.36 166.93 161.57 167.97 162.00 Z M 168.89 162.39 L 169.83 162.78 C 170.88 163.21 172.09 162.71 172.52 161.66 C 172.95 160.61 172.46 159.41 171.41 158.98 L 170.47 158.59 C 169.42 158.15 168.21 158.65 167.78 159.70 C 167.35 160.75 167.84 161.96 168.89 162.39 Z M 169.84 162.78 L 170.81 163.17 C 171.86 163.60 173.06 163.10 173.49 162.04 C 173.91 160.99 173.41 159.79 172.36 159.36 L 171.39 158.97 C 170.34 158.54 169.14 159.05 168.71 160.10 C 168.28 161.15 168.79 162.36 169.84 162.78 Z M 170.82 163.18 L 171.74 163.55 C 172.80 163.97 173.99 163.45 174.41 162.40 C 174.83 161.34 174.32 160.14 173.26 159.72 L 172.34 159.36 C 171.29 158.94 170.09 159.45 169.67 160.51 C 169.25 161.56 169.76 162.76 170.82 163.18 Z M 171.75 163.55 L 172.67 163.91 C 173.73 164.32 174.92 163.80 175.33 162.74 C 175.75 161.68 175.22 160.49 174.16 160.07 L 173.25 159.72 C 172.19 159.30 171.00 159.83 170.58 160.89 C 170.17 161.95 170.70 163.14 171.75 163.55 Z M 172.68 163.91 L 173.62 164.27 C 174.68 164.67 175.87 164.14 176.27 163.08 C 176.68 162.02 176.14 160.83 175.08 160.42 L 174.15 160.07 C 173.09 159.66 171.90 160.20 171.49 161.26 C 171.09 162.32 171.62 163.51 172.68 163.91 Z M 173.63 164.27 L 174.58 164.63 C 175.64 165.02 176.83 164.48 177.22 163.42 C 177.62 162.35 177.08 161.17 176.01 160.77 L 175.07 160.42 C 174.00 160.02 172.82 160.56 172.42 161.63 C 172.02 162.69 172.57 163.88 173.63 164.27 Z M 174.59 164.63 L 175.55 164.98 C 176.62 165.37 177.80 164.82 178.19 163.75 C 178.58 162.68 178.03 161.50 176.96 161.11 L 176.00 160.76 C 174.93 160.38 173.75 160.93 173.36 162.00 C 172.97 163.06 173.52 164.24 174.59 164.63 Z M 175.57 164.99 L 176.51 165.32 C 177.58 165.70 178.76 165.14 179.14 164.07 C 179.52 163.00 178.96 161.82 177.89 161.44 L 176.94 161.11 C 175.87 160.73 174.70 161.29 174.32 162.36 C 173.94 163.43 174.50 164.61 175.57 164.99 Z M 176.53 165.32 L 177.46 165.65 C 178.53 166.02 179.70 165.46 180.08 164.38 C 180.45 163.31 179.88 162.14 178.81 161.77 L 177.88 161.44 C 176.80 161.07 175.63 161.63 175.26 162.71 C 174.89 163.78 175.45 164.95 176.53 165.32 Z M 177.47 165.65 L 178.41 165.97 C 179.48 166.34 180.65 165.77 181.02 164.70 C 181.39 163.62 180.82 162.46 179.74 162.09 L 178.80 161.76 C 177.73 161.40 176.56 161.97 176.19 163.04 C 175.82 164.11 176.40 165.28 177.47 165.65 Z M 178.42 165.98 L 179.36 166.30 C 180.44 166.66 181.61 166.09 181.97 165.02 C 182.34 163.94 181.76 162.77 180.69 162.41 L 179.74 162.09 C 178.67 161.72 177.50 162.30 177.13 163.37 C 176.77 164.44 177.34 165.61 178.42 165.98 Z M 179.37 166.30 L 180.32 166.62 C 181.39 166.99 182.56 166.41 182.92 165.34 C 183.29 164.26 182.71 163.10 181.64 162.73 L 180.69 162.41 C 179.61 162.05 178.45 162.62 178.08 163.69 C 177.72 164.77 178.29 165.93 179.37 166.30 Z M 180.32 166.62 L 181.28 166.95 C 182.35 167.31 183.52 166.74 183.88 165.67 C 184.25 164.59 183.68 163.43 182.60 163.06 L 181.64 162.74 C 180.57 162.37 179.41 162.94 179.04 164.02 C 178.67 165.09 179.25 166.25 180.32 166.62 Z M 181.28 166.94 L 182.25 167.28 C 183.32 167.64 184.48 167.07 184.85 166.00 C 185.22 164.93 184.65 163.77 183.58 163.40 L 182.61 163.07 C 181.54 162.70 180.37 163.27 180.00 164.34 C 179.64 165.41 180.21 166.58 181.28 166.94 Z M 182.25 167.27 L 183.22 167.61 C 184.28 167.98 185.45 167.41 185.82 166.34 C 186.19 165.27 185.62 164.11 184.55 163.74 L 183.58 163.40 C 182.51 163.04 181.35 163.60 180.98 164.67 C 180.61 165.74 181.18 166.91 182.25 167.27 Z M 183.22 167.61 L 184.17 167.93 C 185.24 168.30 186.40 167.73 186.77 166.67 C 187.14 165.60 186.57 164.44 185.50 164.07 L 184.55 163.74 C 183.48 163.37 182.32 163.94 181.95 165.01 C 181.58 166.08 182.15 167.24 183.22 167.61 Z M 184.18 167.93 L 185.11 168.25 C 186.18 168.62 187.34 168.05 187.71 166.98 C 188.07 165.92 187.50 164.75 186.44 164.39 L 185.50 164.07 C 184.43 163.70 183.27 164.27 182.91 165.34 C 182.54 166.41 183.11 167.57 184.18 167.93 Z M 185.12 168.25 L 186.03 168.56 C 187.10 168.92 188.26 168.35 188.62 167.28 C 188.98 166.22 188.41 165.06 187.34 164.70 L 186.43 164.39 C 185.36 164.03 184.20 164.60 183.84 165.67 C 183.48 166.74 184.06 167.89 185.12 168.25 Z M 186.05 168.56 L 187.04 168.89 C 188.11 169.25 189.26 168.67 189.61 167.60 C 189.97 166.53 189.39 165.38 188.32 165.03 L 187.33 164.70 C 186.26 164.34 185.11 164.92 184.75 165.99 C 184.40 167.06 184.98 168.21 186.05 168.56 Z M 187.05 168.89 L 188.04 169.21 C 189.11 169.56 190.25 168.97 190.60 167.91 C 190.95 166.84 190.36 165.69 189.30 165.35 L 188.31 165.03 C 187.24 164.68 186.09 165.26 185.75 166.33 C 185.40 167.40 185.98 168.54 187.05 168.89 Z M 188.05 169.21 L 189.00 169.51 C 190.07 169.85 191.21 169.26 191.55 168.20 C 191.89 167.13 191.30 165.99 190.23 165.65 L 189.29 165.35 C 188.22 165.01 187.08 165.60 186.74 166.66 C 186.40 167.73 186.99 168.87 188.05 169.21 Z M 189.01 169.51 L 189.92 169.80 C 190.98 170.13 192.12 169.54 192.46 168.48 C 192.79 167.42 192.20 166.28 191.14 165.95 L 190.23 165.66 C 189.16 165.32 188.03 165.91 187.69 166.97 C 187.36 168.04 187.95 169.17 189.01 169.51 Z M 189.92 169.79 L 190.83 170.08 C 191.89 170.41 193.02 169.83 193.36 168.77 C 193.69 167.71 193.11 166.58 192.05 166.24 L 191.14 165.95 C 190.08 165.62 188.95 166.21 188.61 167.27 C 188.28 168.33 188.86 169.46 189.92 169.79 Z M 190.83 170.07 L 191.82 170.38 C 192.87 170.72 194.00 170.14 194.33 169.08 C 194.67 168.03 194.09 166.90 193.03 166.56 L 192.05 166.25 C 190.99 165.91 189.86 166.50 189.53 167.55 C 189.19 168.61 189.78 169.73 190.83 170.07 Z M 191.81 170.37 L 192.77 170.68 C 193.82 171.02 194.94 170.44 195.28 169.39 C 195.62 168.34 195.04 167.22 193.99 166.88 L 193.04 166.57 C 191.99 166.23 190.86 166.81 190.52 167.86 C 190.19 168.91 190.76 170.04 191.81 170.37 Z M 192.76 170.67 L 193.70 170.97 C 194.74 171.32 195.86 170.75 196.20 169.70 C 196.54 168.66 195.97 167.54 194.93 167.20 L 194.00 166.89 C 192.95 166.55 191.83 167.12 191.49 168.16 C 191.15 169.21 191.72 170.33 192.76 170.67 Z M 193.69 170.96 L 194.62 171.27 C 195.66 171.62 196.78 171.05 197.12 170.02 C 197.46 168.98 196.90 167.86 195.87 167.52 L 194.93 167.21 C 193.90 166.86 192.78 167.42 192.43 168.46 C 192.09 169.50 192.65 170.62 193.69 170.96 Z M 194.61 171.26 L 195.58 171.58 C 196.61 171.93 197.73 171.38 198.07 170.35 C 198.42 169.32 197.87 168.20 196.84 167.86 L 195.87 167.53 C 194.84 167.18 193.73 167.74 193.38 168.76 C 193.03 169.79 193.58 170.91 194.61 171.26 Z M 195.58 171.57 L 196.53 171.89 C 197.55 172.24 198.66 171.70 199.01 170.67 C 199.36 169.65 198.81 168.54 197.79 168.20 L 196.84 167.87 C 195.82 167.52 194.71 168.07 194.36 169.09 C 194.01 170.11 194.56 171.22 195.58 171.57 Z M 196.53 171.88 L 197.46 172.20 C 198.47 172.54 199.58 172.00 199.92 170.99 C 200.27 169.97 199.73 168.87 198.71 168.53 L 197.79 168.21 C 196.77 167.86 195.67 168.40 195.32 169.42 C 194.98 170.43 195.52 171.53 196.53 171.88 Z M 197.47 172.19 L 198.42 172.51 C 199.43 172.85 200.52 172.31 200.86 171.30 C 201.20 170.30 200.66 169.20 199.66 168.86 L 198.71 168.54 C 197.70 168.20 196.60 168.73 196.26 169.74 C 195.92 170.75 196.46 171.84 197.47 172.19 Z M 198.43 172.50 L 199.39 172.82 C 200.39 173.15 201.47 172.61 201.81 171.61 C 202.14 170.61 201.60 169.53 200.60 169.19 L 199.65 168.87 C 198.64 168.54 197.56 169.08 197.23 170.08 C 196.89 171.08 197.43 172.16 198.43 172.50 Z M 199.40 172.81 L 200.35 173.12 C 201.34 173.44 202.41 172.90 202.74 171.91 C 203.07 170.91 202.52 169.84 201.53 169.51 L 200.59 169.20 C 199.59 168.88 198.52 169.42 198.20 170.41 C 197.87 171.41 198.41 172.48 199.40 172.81 Z M 200.36 173.10 L 201.29 173.40 C 202.28 173.72 203.34 173.18 203.66 172.19 C 203.98 171.20 203.43 170.14 202.44 169.82 L 201.51 169.52 C 200.52 169.21 199.46 169.75 199.15 170.74 C 198.83 171.73 199.37 172.79 200.36 173.10 Z M 201.31 173.39 L 202.25 173.69 C 203.23 173.99 204.28 173.45 204.59 172.46 C 204.89 171.48 204.35 170.44 203.36 170.13 L 202.43 169.83 C 201.44 169.53 200.40 170.07 200.09 171.06 C 199.78 172.04 200.33 173.08 201.31 173.39 Z M 202.27 173.67 L 203.22 173.97 C 204.19 174.26 205.23 173.72 205.52 172.74 C 205.82 171.76 205.27 170.73 204.30 170.43 L 203.35 170.14 C 202.37 169.84 201.34 170.39 201.04 171.37 C 200.74 172.34 201.29 173.38 202.27 173.67 Z M 203.23 173.95 L 204.21 174.25 C 205.18 174.54 206.20 173.99 206.49 173.02 C 206.78 172.05 206.23 171.03 205.27 170.74 L 204.29 170.45 C 203.32 170.15 202.30 170.70 202.00 171.67 C 201.71 172.64 202.26 173.66 203.23 173.95 Z M 204.22 174.23 L 205.10 174.50 C 206.06 174.78 207.07 174.24 207.36 173.28 C 207.64 172.32 207.10 171.31 206.14 171.02 L 205.26 170.75 C 204.30 170.47 203.29 171.01 203.00 171.97 C 202.71 172.93 203.26 173.95 204.22 174.23 Z M 205.10 174.48 L 206.02 174.76 C 206.97 175.05 207.98 174.51 208.26 173.55 C 208.55 172.60 208.01 171.59 207.06 171.31 L 206.14 171.03 C 205.18 170.75 204.18 171.29 203.89 172.24 C 203.60 173.19 204.14 174.20 205.10 174.48 Z M 206.02 174.75 L 207.00 175.04 C 207.94 175.33 208.94 174.80 209.23 173.85 C 209.52 172.91 208.99 171.91 208.04 171.62 L 207.06 171.32 C 206.11 171.04 205.11 171.57 204.83 172.51 C 204.54 173.46 205.07 174.46 206.02 174.75 Z M 206.99 175.03 L 208.04 175.35 C 208.97 175.64 209.97 175.12 210.26 174.18 C 210.55 173.24 210.02 172.25 209.09 171.96 L 208.04 171.64 C 207.11 171.35 206.11 171.87 205.82 172.81 C 205.53 173.74 206.06 174.74 206.99 175.03 Z M 208.03 175.34 L 208.94 175.62 C 209.87 175.92 210.86 175.40 211.15 174.47 C 211.44 173.55 210.93 172.56 210.00 172.26 L 209.09 171.97 C 208.16 171.68 207.17 172.20 206.88 173.12 C 206.59 174.05 207.10 175.04 208.03 175.34 Z M 208.93 175.61 L 209.88 175.92 C 210.80 176.22 211.79 175.71 212.09 174.79 C 212.38 173.87 211.88 172.88 210.96 172.58 L 210.01 172.27 C 209.09 171.98 208.10 172.48 207.80 173.40 C 207.50 174.32 208.01 175.31 208.93 175.61 Z M 209.87 175.90 L 210.83 176.23 C 211.75 176.53 212.73 176.04 213.04 175.12 C 213.34 174.21 212.85 173.22 211.94 172.92 L 210.97 172.60 C 210.05 172.29 209.07 172.79 208.76 173.70 C 208.46 174.61 208.95 175.60 209.87 175.90 Z M 210.82 176.21 L 211.79 176.54 C 212.69 176.86 213.68 176.37 213.99 175.47 C 214.30 174.56 213.82 173.58 212.92 173.27 L 211.95 172.93 C 211.04 172.62 210.06 173.10 209.75 174.01 C 209.43 174.91 209.91 175.90 210.82 176.21 Z M 211.77 176.53 L 212.71 176.86 C 213.61 177.18 214.59 176.72 214.92 175.82 C 215.24 174.93 214.77 173.94 213.88 173.62 L 212.94 173.28 C 212.04 172.96 211.05 173.43 210.73 174.32 C 210.41 175.22 210.88 176.21 211.77 176.53 Z M 212.69 176.84 L 213.58 177.17 C 214.46 177.50 215.45 177.06 215.78 176.17 C 216.11 175.29 215.66 174.30 214.78 173.97 L 213.89 173.64 C 213.01 173.31 212.02 173.76 211.69 174.64 C 211.36 175.53 211.81 176.51 212.69 176.84 Z M 213.56 177.15 L 214.45 177.49 C 215.32 177.83 216.30 177.40 216.64 176.53 C 216.98 175.66 216.55 174.68 215.68 174.34 L 214.79 174.00 C 213.92 173.66 212.94 174.09 212.60 174.96 C 212.26 175.83 212.69 176.81 213.56 177.15 Z M 214.44 177.47 L 215.36 177.84 C 216.21 178.18 217.19 177.76 217.53 176.90 C 217.88 176.05 217.46 175.07 216.60 174.73 L 215.69 174.36 C 214.83 174.02 213.85 174.44 213.51 175.30 C 213.17 176.15 213.58 177.13 214.44 177.47 Z M 215.35 177.82 L 216.31 178.21 C 217.16 178.56 218.13 178.15 218.48 177.30 C 218.82 176.46 218.42 175.49 217.57 175.14 L 216.61 174.75 C 215.76 174.40 214.79 174.81 214.44 175.66 C 214.10 176.50 214.50 177.47 215.35 177.82 Z M 216.31 178.19 L 217.31 178.60 C 218.14 178.95 219.10 178.55 219.45 177.71 C 219.80 176.88 219.40 175.92 218.56 175.57 L 217.57 175.16 C 216.73 174.81 215.77 175.21 215.42 176.05 C 215.08 176.89 215.48 177.85 216.31 178.19 Z M 217.31 178.59 L 218.14 178.94 C 218.98 179.28 219.93 178.89 220.28 178.06 C 220.62 177.23 220.23 176.28 219.40 175.93 L 218.56 175.58 C 217.73 175.24 216.77 175.63 216.43 176.46 C 216.08 177.29 216.48 178.25 217.31 178.59 Z M 218.15 178.93 L 219.03 179.30 C 219.85 179.64 220.80 179.25 221.15 178.43 C 221.49 177.60 221.10 176.65 220.28 176.31 L 219.39 175.94 C 218.57 175.59 217.62 175.98 217.27 176.81 C 216.93 177.64 217.32 178.59 218.15 178.93 Z M 219.03 179.29 L 219.95 179.67 C 220.77 180.02 221.71 179.63 222.06 178.81 C 222.40 177.99 222.01 177.04 221.19 176.70 L 220.27 176.31 C 219.45 175.97 218.51 176.36 218.16 177.18 C 217.82 178.00 218.21 178.95 219.03 179.29 Z M 219.95 179.67 L 220.89 180.06 C 221.71 180.40 222.65 180.02 222.99 179.20 C 223.34 178.38 222.95 177.44 222.13 177.10 L 221.19 176.71 C 220.37 176.36 219.43 176.75 219.09 177.57 C 218.75 178.38 219.13 179.32 219.95 179.67 Z M 220.90 180.05 L 221.86 180.46 C 222.67 180.80 223.61 180.42 223.95 179.60 C 224.29 178.79 223.91 177.86 223.09 177.51 L 222.13 177.11 C 221.32 176.77 220.38 177.15 220.04 177.96 C 219.70 178.78 220.08 179.71 220.90 180.05 Z M 221.86 180.45 L 222.84 180.86 C 223.65 181.20 224.58 180.82 224.92 180.01 C 225.26 179.20 224.88 178.27 224.07 177.93 L 223.09 177.52 C 222.28 177.18 221.35 177.56 221.01 178.37 C 220.67 179.18 221.05 180.11 221.86 180.45 Z M 222.84 180.85 L 223.40 181.09 C 224.20 181.43 225.13 181.05 225.47 180.24 C 225.81 179.44 225.43 178.51 224.62 178.17 L 224.07 177.94 C 223.26 177.60 222.33 177.98 222.00 178.78 C 221.66 179.59 222.04 180.52 222.84 180.85 Z"
      fill="black"
      fill-rule="nonzero" /></svg>