<svg xmlns="http://www.w3.org/2000/svg" width="300" height="300" viewBox="0 0 300 300">
<path d="M 116.53 85.61 L 115.15 85.33 C 114.22 85.14 113.31 85.75 113.13 86.68 C 112.94 87.61 113.55 88.51 114.48 88.70 L 115.86 88.98 C 116.79 89.16 117.69 88.56 117.88 87.63 C 118.06 86.70 117.46 85.79 116.53 85.61 Z M 115.26 85.27 L 114.28 85.02 C 113.32 84.78 112.34 85.36 112.09 86.33 C 111.85 87.29 112.43 88.27 113.40 88.52 L 114.37 88.76 C 115.34 89.01 116.32 88.42 116.56 87.46 C 116.81 86.49 116.22 85.51 115.26 85.27 Z M 115.20 85.47 L 115.03 85.29 C 114.31 84.54 113.12 84.51 112.37 85.23 C 111.62 85.94 111.59 87.13 112.31 87.89 L 112.48 88.07 C 113.20 88.82 114.39 88.85 115.14 88.13 C 115.89 87.41 115.92 86.22 115.20 85.47 Z M 114.01 88.49 L 114.54 88.40 C 115.59 88.21 116.29 87.21 116.10 86.15 C 115.92 85.10 114.91 84.40 113.86 84.59 L 113.33 84.68 C 112.28 84.87 111.58 85.87 111.76 86.93 C 111.95 87.98 112.95 88.68 114.01 88.49 Z M 114.32 88.46 L 115.31 88.40 C 116.40 88.33 117.22 87.40 117.16 86.32 C 117.09 85.23 116.16 84.41 115.08 84.47 L 114.08 84.53 C 113.00 84.60 112.17 85.53 112.24 86.61 C 112.30 87.69 113.23 88.52 114.32 88.46 Z M 115.25 88.43 L 116.55 88.40 C 117.65 88.37 118.52 87.45 118.49 86.35 C 118.47 85.24 117.55 84.37 116.45 84.40 L 115.14 84.44 C 114.04 84.47 113.17 85.38 113.20 86.49 C 113.23 87.59 114.14 88.46 115.25 88.43 Z M 116.53 88.42 L 117.81 88.40 C 118.93 88.39 119.82 87.47 119.81 86.36 C 119.79 85.24 118.87 84.35 117.76 84.36 L 116.47 84.38 C 115.35 84.39 114.46 85.31 114.48 86.43 C 114.49 87.54 115.41 88.44 116.53 88.42 Z M 117.80 88.42 L 118.84 88.41 C 119.97 88.40 120.87 87.48 120.86 86.36 C 120.85 85.23 119.93 84.33 118.81 84.34 L 117.77 84.35 C 116.64 84.36 115.74 85.28 115.75 86.40 C 115.76 87.52 116.68 88.42 117.80 88.42 Z M 118.84 88.41 L 119.88 88.40 C 121.00 88.40 121.91 87.48 121.90 86.36 C 121.90 85.23 120.98 84.33 119.86 84.33 L 118.82 84.34 C 117.69 84.34 116.79 85.26 116.79 86.38 C 116.80 87.51 117.71 88.41 118.84 88.41 Z M 119.87 88.41 L 120.89 88.40 C 122.02 88.40 122.93 87.49 122.92 86.36 C 122.92 85.24 122.01 84.33 120.88 84.33 L 119.86 84.33 C 118.74 84.33 117.83 85.25 117.83 86.37 C 117.83 87.50 118.75 88.41 119.87 88.41 Z M 120.89 88.40 L 121.86 88.40 C 122.99 88.40 123.90 87.49 123.90 86.36 C 123.90 85.24 122.99 84.32 121.86 84.33 L 120.89 84.33 C 119.76 84.33 118.85 85.24 118.85 86.37 C 118.85 87.49 119.76 88.41 120.89 88.40 Z M 121.86 88.41 L 122.77 88.41 C 123.90 88.41 124.81 87.49 124.81 86.36 C 124.81 85.24 123.90 84.32 122.77 84.32 L 121.86 84.32 C 120.73 84.32 119.82 85.24 119.82 86.37 C 119.82 87.49 120.74 88.41 121.86 88.41 Z M 122.77 88.41 L 123.89 88.41 C 125.02 88.41 125.93 87.49 125.93 86.36 C 125.93 85.24 125.02 84.32 123.89 84.32 L 122.77 84.32 C 121.64 84.32 120.73 85.24 120.73 86.36 C 120.73 87.49 121.64 88.41 122.77 88.41 Z M 123.89 88.40 L 124.90 88.40 C 126.03 88.40 126.94 87.49 126.94 86.36 C 126.94 85.24 126.03 84.32 124.90 84.32 L 123.89 84.32 C 122.77 84.32 121.85 85.24 121.85 86.36 C 121.85 87.49 122.77 88.40 123.89 88.40 Z M 124.90 88.40 L 125.84 88.40 C 126.97 88.40 127.88 87.49 127.88 86.36 C 127.88 85.24 126.97 84.33 125.84 84.33 L 124.90 84.33 C 123.78 84.33 122.86 85.24 122.86 86.36 C 122.86 87.49 123.78 88.40 124.90 88.40 Z M 125.84 88.40 L 126.77 88.40 C 127.89 88.40 128.81 87.49 128.81 86.36 C 128.81 85.24 127.89 84.33 126.77 84.33 L 125.84 84.33 C 124.72 84.33 123.81 85.24 123.81 86.36 C 123.81 87.49 124.72 88.40 125.84 88.40 Z M 126.77 88.40 L 127.74 88.40 C 128.86 88.40 129.77 87.49 129.77 86.36 C 129.77 85.24 128.86 84.33 127.74 84.33 L 126.77 84.33 C 125.64 84.33 124.73 85.24 124.73 86.36 C 124.73 87.49 125.64 88.40 126.77 88.40 Z M 127.74 88.40 L 128.73 88.40 C 129.85 88.40 130.76 87.49 130.76 86.36 C 130.76 85.24 129.85 84.33 128.73 84.33 L 127.74 84.33 C 126.61 84.33 125.70 85.24 125.70 86.36 C 125.70 87.49 126.61 88.40 127.74 88.40 Z M 128.73 88.40 L 129.75 88.40 C 130.87 88.40 131.78 87.49 131.78 86.36 C 131.78 85.24 130.87 84.33 129.75 84.33 L 128.73 84.33 C 127.61 84.33 126.70 85.24 126.70 86.36 C 126.70 87.49 127.61 88.40 128.73 88.40 Z M 129.75 88.40 L 130.77 88.40 C 131.89 88.40 132.80 87.49 132.80 86.36 C 132.80 85.24 131.89 84.33 130.77 84.33 L 129.75 84.33 C 128.62 84.33 127.71 85.24 127.71 86.36 C 127.71 87.49 128.62 88.40 129.75 88.40 Z M 130.77 88.39 L 131.75 88.39 C 132.87 88.39 133.78 87.48 133.78 86.36 C 133.78 85.24 132.87 84.34 131.75 84.34 L 130.77 84.34 C 129.65 84.34 128.74 85.24 128.74 86.36 C 128.74 87.48 129.65 88.39 130.77 88.39 Z M 131.75 88.39 L 132.75 88.39 C 133.87 88.39 134.78 87.48 134.78 86.36 C 134.78 85.25 133.87 84.34 132.75 84.34 L 131.75 84.34 C 130.64 84.34 129.73 85.25 129.73 86.36 C 129.73 87.48 130.64 88.39 131.75 88.39 Z M 132.75 88.38 L 133.76 88.38 C 134.88 88.38 135.78 87.48 135.78 86.36 C 135.78 85.25 134.88 84.35 133.76 84.35 L 132.75 84.35 C 131.64 84.35 130.74 85.25 130.74 86.36 C 130.74 87.48 131.64 88.38 132.75 88.38 Z M 133.76 88.38 L 134.77 88.38 C 135.88 88.38 136.78 87.48 136.78 86.36 C 136.78 85.25 135.88 84.35 134.77 84.35 L 133.76 84.35 C 132.65 84.35 131.75 85.25 131.75 86.36 C 131.75 87.48 132.65 88.38 133.76 88.38 Z M 134.77 88.37 L 135.77 88.37 C 136.88 88.37 137.78 87.47 137.77 86.36 C 137.77 85.25 136.87 84.35 135.76 84.35 L 134.77 84.35 C 133.66 84.36 132.76 85.26 132.76 86.37 C 132.76 87.48 133.66 88.38 134.77 88.37 Z M 135.78 88.37 L 136.77 88.36 C 137.88 88.36 138.77 87.45 138.77 86.35 C 138.76 85.24 137.86 84.35 136.75 84.35 L 135.75 84.36 C 134.65 84.36 133.75 85.27 133.76 86.37 C 133.77 87.48 134.67 88.37 135.78 88.37 Z M 136.79 88.36 L 137.79 88.34 C 138.89 88.33 139.78 87.42 139.76 86.32 C 139.75 85.21 138.84 84.33 137.74 84.34 L 136.73 84.36 C 135.63 84.37 134.75 85.28 134.76 86.39 C 134.78 87.49 135.68 88.37 136.79 88.36 Z M 137.81 88.34 L 138.82 88.31 C 139.92 88.28 140.79 87.37 140.76 86.27 C 140.73 85.17 139.82 84.30 138.72 84.32 L 137.71 84.35 C 136.61 84.38 135.74 85.29 135.77 86.40 C 135.80 87.50 136.71 88.37 137.81 88.34 Z M 138.85 88.30 L 139.83 88.27 C 140.93 88.22 141.78 87.30 141.74 86.20 C 141.69 85.10 140.77 84.25 139.67 84.29 L 138.69 84.33 C 137.59 84.38 136.74 85.30 136.78 86.40 C 136.83 87.49 137.75 88.35 138.85 88.30 Z M 139.86 88.26 L 140.85 88.20 C 141.94 88.14 142.78 87.21 142.72 86.12 C 142.66 85.03 141.73 84.19 140.63 84.25 L 139.64 84.30 C 138.55 84.36 137.71 85.29 137.77 86.39 C 137.83 87.48 138.77 88.32 139.86 88.26 Z M 140.88 88.19 L 141.88 88.13 C 142.96 88.05 143.78 87.11 143.71 86.02 C 143.64 84.94 142.70 84.11 141.61 84.19 L 140.61 84.26 C 139.52 84.33 138.70 85.27 138.77 86.36 C 138.85 87.45 139.79 88.27 140.88 88.19 Z M 141.90 88.12 L 142.92 88.03 C 144.00 87.94 144.80 87.00 144.71 85.91 C 144.63 84.83 143.68 84.03 142.60 84.12 L 141.58 84.20 C 140.50 84.29 139.70 85.24 139.78 86.32 C 139.87 87.40 140.82 88.20 141.90 88.12 Z M 142.94 88.02 L 143.94 87.93 C 145.02 87.83 145.81 86.87 145.71 85.80 C 145.61 84.72 144.65 83.93 143.57 84.03 L 142.57 84.13 C 141.50 84.23 140.71 85.18 140.81 86.26 C 140.91 87.33 141.86 88.12 142.94 88.02 Z M 143.97 87.92 L 144.97 87.81 C 146.04 87.70 146.81 86.74 146.70 85.67 C 146.59 84.60 145.63 83.82 144.56 83.93 L 143.55 84.04 C 142.48 84.16 141.71 85.12 141.82 86.19 C 141.94 87.26 142.90 88.03 143.97 87.92 Z M 144.99 87.80 L 145.99 87.68 C 147.05 87.56 147.81 86.59 147.69 85.53 C 147.56 84.46 146.60 83.70 145.53 83.83 L 144.54 83.95 C 143.47 84.07 142.71 85.04 142.83 86.10 C 142.96 87.16 143.92 87.93 144.99 87.80 Z M 146.01 87.67 L 147.00 87.54 C 148.05 87.41 148.80 86.44 148.67 85.38 C 148.53 84.32 147.56 83.58 146.50 83.71 L 145.52 83.84 C 144.46 83.97 143.71 84.94 143.85 86.00 C 143.98 87.06 144.95 87.81 146.01 87.67 Z M 147.01 87.53 L 148.01 87.39 C 149.06 87.25 149.79 86.28 149.65 85.22 C 149.50 84.17 148.53 83.44 147.47 83.58 L 146.48 83.72 C 145.43 83.87 144.70 84.84 144.84 85.89 C 144.99 86.95 145.96 87.68 147.01 87.53 Z M 148.03 87.38 L 149.03 87.23 C 150.08 87.07 150.80 86.10 150.64 85.05 C 150.48 84.01 149.50 83.29 148.46 83.45 L 147.45 83.60 C 146.41 83.76 145.69 84.73 145.85 85.78 C 146.01 86.82 146.98 87.54 148.03 87.38 Z M 149.05 87.21 L 150.03 87.06 C 151.07 86.89 151.78 85.91 151.61 84.87 C 151.44 83.84 150.46 83.13 149.43 83.30 L 148.44 83.46 C 147.40 83.63 146.70 84.61 146.87 85.64 C 147.04 86.68 148.01 87.38 149.05 87.21 Z M 150.05 87.04 L 151.02 86.87 C 152.05 86.70 152.74 85.72 152.56 84.69 C 152.39 83.66 151.41 82.97 150.38 83.15 L 149.41 83.31 C 148.38 83.49 147.69 84.47 147.87 85.50 C 148.04 86.53 149.02 87.22 150.05 87.04 Z M 151.04 86.86 L 152.01 86.68 C 153.03 86.50 153.70 85.52 153.52 84.50 C 153.33 83.48 152.36 82.80 151.33 82.99 L 150.37 83.16 C 149.34 83.35 148.67 84.32 148.85 85.35 C 149.04 86.37 150.02 87.04 151.04 86.86 Z M 152.02 86.67 L 152.99 86.48 C 154.01 86.29 154.67 85.31 154.48 84.30 C 154.29 83.29 153.31 82.62 152.30 82.81 L 151.32 83.00 C 150.31 83.19 149.64 84.17 149.84 85.18 C 150.03 86.20 151.00 86.86 152.02 86.67 Z M 153.01 86.47 L 153.98 86.28 C 154.99 86.08 155.64 85.10 155.45 84.10 C 155.25 83.09 154.27 82.44 153.27 82.64 L 152.29 82.83 C 151.28 83.03 150.63 84.00 150.83 85.01 C 151.02 86.01 152.00 86.67 153.01 86.47 Z M 153.99 86.26 L 154.98 86.06 C 155.98 85.86 156.62 84.88 156.41 83.89 C 156.21 82.89 155.24 82.24 154.24 82.45 L 153.26 82.65 C 152.26 82.85 151.61 83.83 151.82 84.83 C 152.02 85.82 153.00 86.47 153.99 86.26 Z M 154.99 86.05 L 155.97 85.84 C 156.96 85.63 157.59 84.66 157.38 83.67 C 157.17 82.68 156.20 82.05 155.21 82.25 L 154.23 82.46 C 153.24 82.67 152.61 83.64 152.82 84.63 C 153.02 85.62 154.00 86.26 154.99 86.05 Z M 155.98 85.83 L 156.95 85.61 C 157.93 85.40 158.55 84.43 158.34 83.45 C 158.13 82.47 157.16 81.84 156.18 82.06 L 155.21 82.27 C 154.22 82.48 153.60 83.45 153.81 84.43 C 154.03 85.42 155.00 86.04 155.98 85.83 Z M 156.95 85.60 L 157.93 85.39 C 158.90 85.17 159.52 84.20 159.30 83.23 C 159.09 82.25 158.12 81.64 157.15 81.86 L 156.17 82.07 C 155.20 82.29 154.58 83.25 154.80 84.23 C 155.01 85.20 155.98 85.82 156.95 85.60 Z M 157.93 85.37 L 158.91 85.15 C 159.88 84.94 160.49 83.98 160.27 83.01 C 160.05 82.04 159.09 81.43 158.13 81.65 L 157.15 81.87 C 156.18 82.09 155.57 83.05 155.79 84.01 C 156.00 84.98 156.96 85.59 157.93 85.37 Z M 158.91 85.14 L 159.89 84.92 C 160.85 84.70 161.45 83.75 161.24 82.79 C 161.02 81.83 160.07 81.22 159.11 81.44 L 158.13 81.66 C 157.17 81.88 156.56 82.83 156.78 83.79 C 157.00 84.75 157.95 85.36 158.91 85.14 Z M 159.89 84.91 L 160.86 84.69 C 161.82 84.47 162.42 83.52 162.20 82.57 C 161.99 81.62 161.04 81.02 160.08 81.23 L 159.11 81.45 C 158.16 81.67 157.56 82.62 157.77 83.57 C 157.99 84.52 158.94 85.12 159.89 84.91 Z M 160.86 84.67 L 161.84 84.45 C 162.78 84.24 163.38 83.30 163.16 82.35 C 162.95 81.40 162.01 80.81 161.06 81.02 L 160.09 81.24 C 159.14 81.46 158.55 82.40 158.76 83.35 C 158.97 84.29 159.91 84.89 160.86 84.67 Z M 161.83 84.44 L 162.81 84.22 C 163.75 84.01 164.34 83.07 164.13 82.13 C 163.92 81.19 162.98 80.60 162.04 80.82 L 161.07 81.04 C 160.12 81.25 159.53 82.18 159.75 83.12 C 159.96 84.06 160.89 84.65 161.83 84.44 Z M 162.81 84.21 L 163.78 83.99 C 164.72 83.78 165.30 82.85 165.09 81.92 C 164.88 80.98 163.95 80.40 163.02 80.61 L 162.04 80.83 C 161.11 81.04 160.52 81.97 160.73 82.90 C 160.94 83.83 161.87 84.42 162.81 84.21 Z M 163.78 83.98 L 164.73 83.76 C 165.66 83.55 166.25 82.63 166.04 81.70 C 165.83 80.78 164.90 80.19 163.98 80.40 L 163.02 80.62 C 162.09 80.83 161.51 81.75 161.72 82.68 C 161.93 83.61 162.85 84.19 163.78 83.98 Z M 164.73 83.75 L 165.69 83.54 C 166.61 83.33 167.19 82.41 166.98 81.49 C 166.77 80.57 165.86 79.99 164.94 80.20 L 163.98 80.41 C 163.06 80.62 162.48 81.54 162.69 82.46 C 162.89 83.38 163.81 83.96 164.73 83.75 Z M 165.69 83.53 L 166.66 83.31 C 167.58 83.10 168.15 82.19 167.94 81.27 C 167.74 80.36 166.83 79.78 165.91 79.99 L 164.94 80.21 C 164.02 80.41 163.45 81.32 163.65 82.24 C 163.86 83.16 164.77 83.73 165.69 83.53 Z M 166.66 83.30 L 167.65 83.07 C 168.56 82.87 169.14 81.96 168.93 81.05 C 168.73 80.14 167.82 79.57 166.91 79.78 L 165.92 80.00 C 165.01 80.20 164.43 81.11 164.64 82.02 C 164.84 82.93 165.75 83.50 166.66 83.30 Z M 167.65 83.06 L 168.65 82.84 C 169.55 82.64 170.12 81.74 169.92 80.83 C 169.72 79.93 168.82 79.36 167.91 79.56 L 166.92 79.79 C 166.01 79.99 165.44 80.89 165.64 81.79 C 165.85 82.70 166.74 83.26 167.65 83.06 Z M 168.64 82.83 L 169.64 82.61 C 170.54 82.41 171.10 81.51 170.90 80.62 C 170.70 79.72 169.81 79.15 168.91 79.35 L 167.92 79.57 C 167.02 79.77 166.45 80.66 166.65 81.56 C 166.85 82.46 167.74 83.03 168.64 82.83 Z M 169.63 82.60 L 170.63 82.38 C 171.52 82.18 172.09 81.29 171.89 80.40 C 171.69 79.50 170.80 78.94 169.91 79.14 L 168.91 79.36 C 168.02 79.56 167.45 80.44 167.65 81.34 C 167.85 82.23 168.74 82.80 169.63 82.60 Z M 170.63 82.37 L 171.60 82.15 C 172.49 81.95 173.05 81.07 172.86 80.18 C 172.66 79.29 171.78 78.73 170.89 78.93 L 169.91 79.15 C 169.02 79.34 168.46 80.23 168.66 81.12 C 168.85 82.01 169.74 82.57 170.63 82.37 Z M 171.60 82.14 L 172.54 81.93 C 173.43 81.74 173.99 80.86 173.79 79.97 C 173.59 79.09 172.71 78.53 171.83 78.73 L 170.89 78.94 C 170.00 79.13 169.45 80.01 169.64 80.90 C 169.84 81.78 170.72 82.34 171.60 82.14 Z M 172.54 81.93 L 173.59 81.69 C 174.47 81.50 175.03 80.62 174.83 79.74 C 174.63 78.86 173.76 78.31 172.88 78.50 L 171.83 78.74 C 170.95 78.93 170.39 79.80 170.59 80.69 C 170.79 81.57 171.66 82.12 172.54 81.93 Z M 173.59 81.68 L 174.58 81.46 C 175.46 81.27 176.01 80.40 175.81 79.52 C 175.62 78.65 174.75 78.09 173.87 78.29 L 172.88 78.51 C 172.00 78.71 171.45 79.58 171.65 80.45 C 171.84 81.33 172.71 81.88 173.59 81.68 Z M 174.58 81.45 L 175.52 81.24 C 176.39 81.05 176.94 80.18 176.74 79.31 C 176.55 78.44 175.68 77.89 174.81 78.09 L 173.87 78.30 C 173.00 78.49 172.45 79.36 172.65 80.23 C 172.84 81.10 173.71 81.65 174.58 81.45 Z M 175.53 81.23 L 176.41 81.03 C 177.28 80.83 177.82 79.97 177.62 79.10 C 177.42 78.23 176.56 77.69 175.69 77.89 L 174.81 78.09 C 173.94 78.29 173.40 79.16 173.60 80.02 C 173.79 80.89 174.66 81.43 175.53 81.23 Z M 176.41 81.02 L 177.16 80.85 C 178.02 80.65 178.56 79.79 178.36 78.92 C 178.16 78.06 177.29 77.52 176.43 77.73 L 175.69 77.90 C 174.82 78.10 174.29 78.96 174.49 79.82 C 174.69 80.69 175.55 81.22 176.41 81.02 Z M 177.16 80.85 L 177.98 80.65 C 178.84 80.45 179.37 79.59 179.17 78.73 C 178.97 77.87 178.11 77.34 177.25 77.54 L 176.43 77.73 C 175.57 77.93 175.04 78.79 175.24 79.65 C 175.44 80.51 176.30 81.05 177.16 80.85 Z M 177.97 80.65 L 178.94 80.43 C 179.79 80.23 180.33 79.37 180.13 78.51 C 179.93 77.65 179.07 77.12 178.21 77.32 L 177.25 77.54 C 176.39 77.74 175.86 78.60 176.06 79.46 C 176.26 80.32 177.12 80.85 177.97 80.65 Z M 178.93 80.42 L 180.11 80.15 C 180.97 79.95 181.50 79.10 181.30 78.24 C 181.10 77.39 180.25 76.85 179.40 77.05 L 178.22 77.32 C 177.36 77.52 176.83 78.38 177.02 79.23 C 177.22 80.09 178.08 80.62 178.93 80.42 Z M 180.11 80.15 L 181.20 79.90 C 182.06 79.70 182.59 78.85 182.39 78.00 C 182.20 77.14 181.35 76.61 180.50 76.80 L 179.40 77.05 C 178.55 77.25 178.01 78.10 178.21 78.95 C 178.40 79.81 179.25 80.34 180.11 80.15 Z M 181.20 79.89 L 181.99 79.71 C 182.85 79.52 183.38 78.67 183.19 77.82 C 182.99 76.96 182.14 76.43 181.29 76.62 L 180.50 76.81 C 179.65 77.00 179.11 77.85 179.31 78.70 C 179.50 79.55 180.35 80.09 181.20 79.89 Z M 181.99 79.71 L 182.85 79.52 C 183.71 79.32 184.24 78.48 184.05 77.62 C 183.85 76.77 183.01 76.24 182.15 76.43 L 181.29 76.63 C 180.44 76.82 179.91 77.67 180.10 78.52 C 180.29 79.37 181.14 79.90 181.99 79.71 Z M 182.85 79.51 L 183.77 79.31 C 184.62 79.11 185.16 78.27 184.97 77.42 C 184.77 76.57 183.93 76.03 183.08 76.22 L 182.16 76.43 C 181.30 76.62 180.77 77.47 180.96 78.32 C 181.16 79.17 182.00 79.71 182.85 79.51 Z M 183.77 79.30 L 184.74 79.09 C 185.59 78.89 186.13 78.05 185.93 77.20 C 185.74 76.35 184.90 75.81 184.05 76.01 L 183.08 76.23 C 182.23 76.42 181.69 77.26 181.88 78.11 C 182.08 78.96 182.92 79.50 183.77 79.30 Z M 184.74 79.08 L 185.75 78.86 C 186.60 78.66 187.14 77.82 186.95 76.97 C 186.75 76.12 185.91 75.59 185.06 75.78 L 184.05 76.01 C 183.20 76.20 182.67 77.04 182.86 77.89 C 183.05 78.74 183.89 79.28 184.74 79.08 Z M 185.75 78.85 L 186.80 78.62 C 187.65 78.43 188.18 77.58 187.99 76.74 C 187.80 75.89 186.96 75.35 186.11 75.54 L 185.06 75.78 C 184.21 75.97 183.68 76.81 183.87 77.66 C 184.06 78.51 184.91 79.05 185.75 78.85 Z M 186.80 78.62 L 187.87 78.38 C 188.72 78.18 189.25 77.34 189.06 76.49 C 188.87 75.65 188.03 75.11 187.18 75.30 L 186.11 75.55 C 185.26 75.74 184.73 76.58 184.92 77.43 C 185.11 78.28 185.95 78.81 186.80 78.62 Z M 187.87 78.37 L 188.96 78.13 C 189.81 77.94 190.34 77.10 190.15 76.25 C 189.96 75.40 189.12 74.87 188.27 75.06 L 187.18 75.31 C 186.33 75.50 185.80 76.34 185.99 77.19 C 186.18 78.03 187.03 78.56 187.87 78.37 Z M 188.96 78.13 L 190.06 77.88 C 190.91 77.69 191.44 76.85 191.25 76.00 C 191.06 75.16 190.22 74.62 189.37 74.81 L 188.27 75.06 C 187.43 75.25 186.89 76.09 187.08 76.94 C 187.28 77.79 188.12 78.32 188.96 78.13 Z M 190.06 77.88 L 190.22 77.84 C 191.07 77.65 191.60 76.81 191.41 75.97 C 191.22 75.12 190.38 74.59 189.54 74.78 L 189.37 74.82 C 188.53 75.01 187.99 75.85 188.19 76.69 C 188.38 77.54 189.22 78.07 190.06 77.88 Z"
      fill="black"
      fill-rule="nonzero" /><path d="M 161.15 84.59 L 160.56 85.40 C 160.01 86.14 160.18 87.19 160.92 87.73 C 161.67 88.27 162.71 88.11 163.26 87.36 L 163.85 86.56 C 164.39 85.81 164.23 84.76 163.48 84.22 C 162.73 83.68 161.69 83.84 161.15 84.59 Z M 160.55 85.40 L 159.97 86.22 C 159.43 86.96 159.60 88.01 160.35 88.55 C 161.10 89.08 162.14 88.91 162.68 88.17 L 163.26 87.35 C 163.80 86.61 163.63 85.56 162.88 85.02 C 162.13 84.49 161.09 84.66 160.55 85.40 Z M 159.96 86.23 L 159.38 87.05 C 158.85 87.81 159.04 88.85 159.79 89.37 C 160.54 89.90 161.58 89.72 162.11 88.97 L 162.69 88.15 C 163.22 87.39 163.03 86.35 162.28 85.83 C 161.53 85.30 160.49 85.48 159.96 86.23 Z M 159.37 87.08 L 158.81 87.91 C 158.29 88.67 158.50 89.71 159.26 90.22 C 160.02 90.73 161.06 90.53 161.57 89.77 L 162.13 88.94 C 162.64 88.18 162.44 87.14 161.68 86.63 C 160.92 86.11 159.88 86.32 159.37 87.08 Z M 158.78 87.94 L 158.27 88.74 C 157.78 89.51 158.00 90.55 158.78 91.04 C 159.55 91.54 160.59 91.31 161.08 90.54 L 161.60 89.74 C 162.09 88.96 161.87 87.93 161.09 87.43 C 160.31 86.94 159.28 87.16 158.78 87.94 Z M 158.24 88.77 L 157.75 89.57 C 157.27 90.37 157.52 91.40 158.32 91.88 C 159.11 92.36 160.14 92.11 160.62 91.32 L 161.12 90.51 C 161.60 89.72 161.34 88.68 160.55 88.20 C 159.76 87.72 158.72 87.97 158.24 88.77 Z M 157.72 89.60 L 157.23 90.45 C 156.76 91.26 157.04 92.29 157.85 92.76 C 158.66 93.23 159.70 92.95 160.16 92.14 L 160.65 91.29 C 161.12 90.48 160.85 89.45 160.04 88.98 C 159.23 88.51 158.19 88.79 157.72 89.60 Z M 157.20 90.47 L 156.70 91.38 C 156.25 92.20 156.54 93.24 157.37 93.69 C 158.19 94.15 159.23 93.85 159.69 93.03 L 160.19 92.12 C 160.65 91.30 160.35 90.26 159.52 89.80 C 158.70 89.34 157.66 89.64 157.20 90.47 Z M 156.68 91.39 L 156.17 92.35 C 155.72 93.18 156.04 94.22 156.88 94.67 C 157.71 95.12 158.75 94.80 159.20 93.97 L 159.71 93.01 C 160.16 92.17 159.84 91.13 159.01 90.69 C 158.17 90.24 157.13 90.55 156.68 91.39 Z M 156.15 92.36 L 155.70 93.23 C 155.26 94.08 155.58 95.12 156.43 95.56 C 157.28 96.00 158.32 95.67 158.76 94.83 L 159.22 93.95 C 159.66 93.11 159.33 92.06 158.48 91.62 C 157.64 91.18 156.59 91.51 156.15 92.36 Z M 155.69 93.24 L 155.22 94.15 C 154.79 95.00 155.12 96.04 155.97 96.48 C 156.83 96.92 157.87 96.58 158.31 95.73 L 158.77 94.82 C 159.21 93.97 158.87 92.92 158.02 92.49 C 157.17 92.05 156.12 92.39 155.69 93.24 Z M 155.21 94.15 L 154.75 95.07 C 154.31 95.93 154.66 96.98 155.51 97.41 C 156.37 97.84 157.42 97.50 157.85 96.64 L 158.32 95.72 C 158.75 94.87 158.41 93.82 157.55 93.39 C 156.69 92.95 155.65 93.30 155.21 94.15 Z M 154.74 95.08 L 154.28 95.99 C 153.85 96.85 154.20 97.90 155.06 98.33 C 155.93 98.76 156.97 98.41 157.40 97.55 L 157.86 96.64 C 158.29 95.78 157.94 94.73 157.08 94.30 C 156.22 93.87 155.17 94.22 154.74 95.08 Z M 154.28 95.99 L 153.84 96.86 C 153.41 97.73 153.77 98.78 154.63 99.21 C 155.50 99.64 156.55 99.29 156.98 98.42 L 157.41 97.54 C 157.84 96.68 157.49 95.63 156.62 95.20 C 155.76 94.77 154.71 95.12 154.28 95.99 Z M 153.84 96.87 L 153.38 97.80 C 152.95 98.67 153.31 99.72 154.18 100.15 C 155.05 100.58 156.10 100.22 156.53 99.35 L 156.99 98.42 C 157.41 97.55 157.06 96.50 156.19 96.07 C 155.32 95.64 154.26 96.00 153.84 96.87 Z M 153.37 97.80 L 152.92 98.73 C 152.49 99.60 152.85 100.65 153.73 101.08 C 154.60 101.50 155.65 101.14 156.08 100.27 L 156.53 99.35 C 156.96 98.48 156.60 97.42 155.72 97.00 C 154.85 96.57 153.80 96.93 153.37 97.80 Z M 152.92 98.73 L 152.49 99.60 C 152.06 100.47 152.42 101.53 153.30 101.96 C 154.17 102.38 155.22 102.02 155.65 101.15 L 156.08 100.27 C 156.51 99.40 156.15 98.35 155.27 97.92 C 154.40 97.49 153.35 97.85 152.92 98.73 Z M 152.49 99.60 L 152.07 100.46 C 151.64 101.33 152.00 102.39 152.87 102.82 C 153.74 103.25 154.80 102.89 155.23 102.01 L 155.65 101.15 C 156.08 100.28 155.72 99.22 154.85 98.79 C 153.98 98.36 152.92 98.72 152.49 99.60 Z M 152.07 100.45 L 151.64 101.31 C 151.20 102.19 151.56 103.25 152.43 103.68 C 153.30 104.11 154.36 103.76 154.80 102.89 L 155.23 102.02 C 155.66 101.15 155.31 100.09 154.43 99.65 C 153.56 99.22 152.50 99.57 152.07 100.45 Z M 151.64 101.30 L 151.21 102.16 C 150.77 103.03 151.12 104.10 151.99 104.54 C 152.86 104.98 153.93 104.62 154.37 103.75 L 154.80 102.90 C 155.24 102.02 154.89 100.96 154.01 100.52 C 153.14 100.08 152.08 100.43 151.64 101.30 Z M 151.20 102.15 L 150.76 103.03 C 150.31 103.91 150.66 104.97 151.53 105.42 C 152.41 105.86 153.47 105.52 153.92 104.64 L 154.37 103.76 C 154.81 102.89 154.46 101.82 153.59 101.37 C 152.72 100.93 151.65 101.28 151.20 102.15 Z M 150.75 103.03 L 150.29 103.93 C 149.84 104.80 150.19 105.87 151.06 106.32 C 151.94 106.77 153.01 106.43 153.46 105.55 L 153.92 104.65 C 154.37 103.77 154.02 102.70 153.15 102.25 C 152.27 101.81 151.20 102.15 150.75 103.03 Z M 150.29 103.92 L 149.82 104.84 C 149.37 105.71 149.71 106.79 150.59 107.24 C 151.46 107.69 152.54 107.34 152.99 106.47 L 153.46 105.56 C 153.91 104.68 153.57 103.60 152.69 103.15 C 151.81 102.70 150.74 103.05 150.29 103.92 Z M 149.81 104.83 L 149.35 105.73 C 148.90 106.61 149.24 107.69 150.12 108.14 C 151.00 108.59 152.08 108.25 152.53 107.37 L 152.99 106.47 C 153.45 105.59 153.10 104.52 152.22 104.06 C 151.35 103.61 150.27 103.96 149.81 104.83 Z M 149.35 105.73 L 148.90 106.60 C 148.44 107.48 148.79 108.56 149.67 109.02 C 150.55 109.47 151.63 109.13 152.09 108.25 L 152.54 107.37 C 152.99 106.49 152.64 105.41 151.76 104.96 C 150.88 104.50 149.80 104.85 149.35 105.73 Z M 148.89 106.60 L 148.44 107.47 C 147.98 108.36 148.33 109.44 149.21 109.90 C 150.09 110.36 151.18 110.01 151.64 109.13 L 152.09 108.25 C 152.55 107.37 152.20 106.28 151.32 105.83 C 150.44 105.37 149.35 105.71 148.89 106.60 Z M 148.44 107.47 L 147.98 108.36 C 147.52 109.24 147.86 110.33 148.74 110.79 C 149.63 111.25 150.72 110.90 151.18 110.02 L 151.64 109.13 C 152.10 108.25 151.76 107.16 150.87 106.70 C 149.99 106.24 148.90 106.58 148.44 107.47 Z M 147.97 108.35 L 147.50 109.25 C 147.04 110.14 147.38 111.23 148.27 111.69 C 149.15 112.16 150.25 111.81 150.71 110.93 L 151.18 110.03 C 151.64 109.14 151.30 108.05 150.42 107.58 C 149.53 107.12 148.44 107.46 147.97 108.35 Z M 147.50 109.24 L 147.03 110.13 C 146.57 111.01 146.90 112.11 147.79 112.58 C 148.68 113.05 149.78 112.71 150.24 111.82 L 150.71 110.94 C 151.18 110.05 150.84 108.95 149.95 108.49 C 149.07 108.02 147.97 108.36 147.50 109.24 Z M 147.03 110.12 L 146.58 110.96 C 146.11 111.85 146.45 112.95 147.33 113.42 C 148.22 113.90 149.32 113.56 149.79 112.67 L 150.24 111.83 C 150.72 110.94 150.38 109.84 149.49 109.37 C 148.61 108.90 147.51 109.23 147.03 110.12 Z M 146.59 110.95 L 146.12 111.81 C 145.64 112.70 145.97 113.80 146.86 114.28 C 147.74 114.76 148.85 114.43 149.33 113.54 L 149.79 112.68 C 150.27 111.80 149.94 110.69 149.05 110.22 C 148.17 109.74 147.06 110.07 146.59 110.95 Z M 146.12 111.80 L 145.64 112.68 C 145.16 113.56 145.48 114.67 146.37 115.16 C 147.25 115.64 148.36 115.32 148.84 114.43 L 149.32 113.56 C 149.81 112.67 149.48 111.56 148.60 111.08 C 147.72 110.59 146.61 110.92 146.12 111.80 Z M 145.65 112.67 L 145.15 113.56 C 144.65 114.44 144.97 115.56 145.85 116.05 C 146.73 116.54 147.85 116.22 148.34 115.34 L 148.84 114.45 C 149.33 113.57 149.02 112.45 148.13 111.96 C 147.25 111.47 146.14 111.78 145.65 112.67 Z M 145.15 113.55 L 144.63 114.46 C 144.13 115.34 144.44 116.46 145.32 116.96 C 146.20 117.46 147.32 117.15 147.82 116.27 L 148.34 115.36 C 148.84 114.48 148.53 113.36 147.65 112.86 C 146.77 112.36 145.65 112.67 145.15 113.55 Z M 144.64 114.44 L 144.15 115.28 C 143.64 116.16 143.94 117.28 144.82 117.79 C 145.69 118.30 146.82 118.00 147.33 117.12 L 147.81 116.28 C 148.32 115.41 148.02 114.28 147.15 113.78 C 146.27 113.27 145.15 113.57 144.64 114.44 Z M 144.16 115.27 L 143.67 116.10 C 143.15 116.97 143.44 118.10 144.31 118.61 C 145.19 119.13 146.31 118.84 146.83 117.97 L 147.32 117.14 C 147.84 116.26 147.55 115.14 146.67 114.62 C 145.80 114.10 144.67 114.39 144.16 115.27 Z M 143.67 116.08 L 143.17 116.93 C 142.64 117.80 142.92 118.93 143.80 119.45 C 144.67 119.97 145.80 119.69 146.32 118.82 L 146.83 117.98 C 147.35 117.11 147.07 115.98 146.20 115.45 C 145.33 114.93 144.20 115.21 143.67 116.08 Z M 143.17 116.91 L 142.65 117.77 C 142.12 118.64 142.39 119.77 143.26 120.30 C 144.13 120.83 145.26 120.56 145.79 119.69 L 146.31 118.83 C 146.84 117.97 146.57 116.83 145.70 116.30 C 144.83 115.77 143.70 116.05 143.17 116.91 Z M 142.65 117.76 L 142.11 118.62 C 141.58 119.49 141.84 120.63 142.71 121.16 C 143.57 121.70 144.71 121.43 145.25 120.57 L 145.79 119.70 C 146.32 118.84 146.06 117.70 145.19 117.16 C 144.33 116.63 143.19 116.89 142.65 117.76 Z M 142.12 118.61 L 141.56 119.49 C 141.02 120.36 141.28 121.50 142.14 122.04 C 143.01 122.58 144.15 122.33 144.69 121.46 L 145.24 120.58 C 145.79 119.72 145.53 118.58 144.67 118.03 C 143.80 117.49 142.66 117.75 142.12 118.61 Z M 141.57 119.48 L 141.02 120.34 C 140.47 121.20 140.72 122.34 141.58 122.89 C 142.45 123.44 143.59 123.19 144.14 122.33 L 144.68 121.47 C 145.23 120.61 144.98 119.47 144.12 118.92 C 143.26 118.37 142.12 118.62 141.57 119.48 Z M 141.03 120.33 L 140.50 121.14 C 139.94 122.00 140.19 123.15 141.05 123.70 C 141.90 124.26 143.05 124.01 143.60 123.16 L 144.13 122.34 C 144.69 121.48 144.44 120.34 143.59 119.78 C 142.73 119.23 141.58 119.47 141.03 120.33 Z M 140.50 121.13 L 139.96 121.96 C 139.40 122.81 139.64 123.96 140.49 124.52 C 141.35 125.08 142.50 124.84 143.06 123.99 L 143.60 123.17 C 144.16 122.31 143.92 121.16 143.07 120.60 C 142.21 120.04 141.07 120.28 140.50 121.13 Z M 139.97 121.95 L 139.42 122.78 C 138.85 123.63 139.08 124.78 139.93 125.34 C 140.78 125.91 141.93 125.68 142.50 124.83 L 143.05 124.00 C 143.62 123.15 143.39 122.00 142.54 121.43 C 141.69 120.86 140.54 121.09 139.97 121.95 Z M 139.42 122.76 L 138.86 123.60 C 138.28 124.44 138.50 125.60 139.35 126.17 C 140.20 126.75 141.35 126.52 141.93 125.68 L 142.49 124.84 C 143.07 124.00 142.84 122.84 142.00 122.27 C 141.15 121.69 140.00 121.92 139.42 122.76 Z M 138.87 123.58 L 138.29 124.42 C 137.71 125.26 137.92 126.42 138.76 127.00 C 139.61 127.58 140.76 127.37 141.34 126.53 L 141.92 125.69 C 142.50 124.85 142.29 123.69 141.45 123.11 C 140.60 122.53 139.45 122.74 138.87 123.58 Z M 138.30 124.41 L 137.71 125.24 C 137.12 126.08 137.32 127.24 138.16 127.83 C 139.00 128.42 140.16 128.22 140.75 127.38 L 141.33 126.54 C 141.92 125.70 141.72 124.54 140.88 123.96 C 140.04 123.37 138.89 123.57 138.30 124.41 Z M 137.72 125.23 L 137.13 126.04 C 136.53 126.88 136.73 128.04 137.56 128.64 C 138.39 129.23 139.55 129.04 140.15 128.21 L 140.74 127.39 C 141.33 126.56 141.14 125.40 140.31 124.80 C 139.48 124.20 138.32 124.39 137.72 125.23 Z M 137.14 126.03 L 136.57 126.81 C 135.96 127.64 136.14 128.80 136.97 129.41 C 137.80 130.02 138.96 129.84 139.57 129.01 L 140.14 128.22 C 140.75 127.40 140.57 126.23 139.74 125.63 C 138.91 125.02 137.75 125.20 137.14 126.03 Z M 136.58 126.80 L 135.99 127.58 C 135.38 128.41 135.55 129.57 136.37 130.19 C 137.19 130.80 138.36 130.63 138.97 129.81 L 139.56 129.02 C 140.17 128.20 140.00 127.04 139.18 126.42 C 138.36 125.81 137.19 125.98 136.58 126.80 Z M 136.00 127.57 L 135.40 128.35 C 134.78 129.17 134.94 130.34 135.76 130.96 C 136.57 131.58 137.74 131.43 138.36 130.61 L 138.96 129.82 C 139.58 129.01 139.42 127.84 138.61 127.22 C 137.79 126.59 136.62 126.75 136.00 127.57 Z M 135.41 128.34 L 134.80 129.13 C 134.17 129.94 134.32 131.11 135.13 131.74 C 135.94 132.37 137.11 132.22 137.74 131.41 L 138.35 130.62 C 138.98 129.81 138.84 128.64 138.02 128.01 C 137.21 127.38 136.04 127.53 135.41 128.34 Z M 134.81 129.11 L 134.18 129.90 C 133.55 130.71 133.68 131.88 134.49 132.52 C 135.29 133.16 136.46 133.02 137.10 132.22 L 137.73 131.43 C 138.37 130.62 138.23 129.45 137.43 128.81 C 136.62 128.17 135.45 128.31 134.81 129.11 Z M 134.20 129.89 L 133.55 130.68 C 132.91 131.48 133.03 132.65 133.83 133.30 C 134.63 133.95 135.80 133.82 136.45 133.03 L 137.09 132.23 C 137.74 131.43 137.61 130.26 136.81 129.61 C 136.02 128.97 134.84 129.09 134.20 129.89 Z M 133.56 130.67 L 132.90 131.47 C 132.25 132.26 132.36 133.44 133.15 134.09 C 133.95 134.75 135.12 134.63 135.77 133.84 L 136.44 133.04 C 137.09 132.25 136.98 131.07 136.19 130.42 C 135.39 129.76 134.22 129.88 133.56 130.67 Z M 132.91 131.46 L 132.27 132.22 C 131.61 133.01 131.71 134.18 132.49 134.85 C 133.28 135.51 134.46 135.41 135.12 134.62 L 135.76 133.85 C 136.43 133.07 136.33 131.89 135.54 131.23 C 134.75 130.57 133.58 130.67 132.91 131.46 Z M 132.28 132.21 L 131.62 132.97 C 130.95 133.76 131.04 134.93 131.83 135.60 C 132.61 136.27 133.79 136.18 134.45 135.40 L 135.11 134.63 C 135.78 133.85 135.69 132.67 134.91 132.01 C 134.12 131.34 132.95 131.43 132.28 132.21 Z M 131.63 132.96 L 130.97 133.73 C 130.29 134.50 130.37 135.68 131.15 136.36 C 131.93 137.03 133.10 136.95 133.78 136.17 L 134.44 135.41 C 135.12 134.63 135.04 133.46 134.26 132.78 C 133.49 132.10 132.31 132.19 131.63 132.96 Z M 130.98 133.72 L 130.30 134.48 C 129.62 135.25 129.69 136.43 130.47 137.11 C 131.24 137.79 132.42 137.72 133.10 136.95 L 133.77 136.19 C 134.45 135.41 134.38 134.24 133.61 133.55 C 132.84 132.87 131.66 132.94 130.98 133.72 Z M 130.31 134.46 L 129.64 135.22 C 128.95 135.98 129.01 137.16 129.78 137.85 C 130.55 138.54 131.72 138.48 132.41 137.71 L 133.09 136.96 C 133.78 136.19 133.71 135.01 132.95 134.32 C 132.18 133.64 131.00 133.70 130.31 134.46 Z M 129.65 135.20 L 128.97 135.94 C 128.28 136.71 128.33 137.89 129.09 138.58 C 129.85 139.27 131.03 139.22 131.73 138.46 L 132.40 137.72 C 133.10 136.96 133.04 135.78 132.28 135.09 C 131.52 134.39 130.34 134.44 129.65 135.20 Z M 128.98 135.93 L 128.31 136.66 C 127.61 137.41 127.65 138.59 128.41 139.29 C 129.17 139.99 130.35 139.95 131.05 139.20 L 131.72 138.47 C 132.42 137.72 132.38 136.54 131.62 135.83 C 130.86 135.13 129.68 135.18 128.98 135.93 Z M 128.32 136.65 L 127.66 137.35 C 126.95 138.10 126.98 139.28 127.73 139.99 C 128.48 140.70 129.66 140.66 130.37 139.91 L 131.04 139.21 C 131.74 138.46 131.71 137.28 130.96 136.57 C 130.21 135.86 129.03 135.90 128.32 136.65 Z M 127.67 137.34 L 126.93 138.10 C 126.22 138.85 126.24 140.03 126.99 140.74 C 127.73 141.46 128.91 141.43 129.62 140.69 L 130.36 139.92 C 131.07 139.18 131.05 138.00 130.31 137.28 C 129.56 136.57 128.38 136.59 127.67 137.34 Z M 126.94 138.09 L 126.22 138.83 C 125.50 139.57 125.51 140.75 126.25 141.47 C 126.99 142.19 128.17 142.18 128.89 141.44 L 129.61 140.70 C 130.33 139.97 130.32 138.78 129.58 138.06 C 128.85 137.34 127.67 137.35 126.94 138.09 Z M 126.23 138.82 L 125.52 139.54 C 124.79 140.27 124.79 141.45 125.52 142.18 C 126.25 142.91 127.44 142.90 128.16 142.17 L 128.88 141.45 C 129.60 140.72 129.60 139.54 128.87 138.81 C 128.14 138.09 126.96 138.09 126.23 138.82 Z M 125.52 139.53 L 124.82 140.23 C 124.09 140.95 124.08 142.14 124.81 142.87 C 125.53 143.60 126.71 143.61 127.45 142.88 L 128.15 142.18 C 128.89 141.46 128.89 140.27 128.17 139.54 C 127.44 138.81 126.26 138.80 125.52 139.53 Z M 124.83 140.22 L 124.13 140.90 C 123.39 141.62 123.38 142.81 124.10 143.54 C 124.82 144.28 126.00 144.29 126.74 143.57 L 127.44 142.89 C 128.18 142.17 128.19 140.99 127.47 140.25 C 126.75 139.51 125.56 139.50 124.83 140.22 Z M 124.14 140.90 L 123.44 141.57 C 122.70 142.29 122.68 143.47 123.40 144.21 C 124.12 144.95 125.30 144.97 126.04 144.25 L 126.73 143.58 C 127.48 142.86 127.49 141.68 126.78 140.94 C 126.06 140.20 124.88 140.18 124.14 140.90 Z M 123.45 141.56 L 122.76 142.22 C 122.01 142.94 121.99 144.12 122.71 144.87 C 123.42 145.61 124.61 145.63 125.35 144.92 L 126.04 144.26 C 126.78 143.54 126.80 142.36 126.09 141.61 C 125.37 140.87 124.19 140.85 123.45 141.56 Z M 122.76 142.22 L 122.03 142.93 C 121.28 143.64 121.25 144.82 121.97 145.57 C 122.68 146.31 123.86 146.34 124.61 145.63 L 125.35 144.92 C 126.09 144.21 126.12 143.02 125.40 142.28 C 124.69 141.53 123.51 141.51 122.76 142.22 Z M 122.03 142.92 L 121.29 143.63 C 120.55 144.34 120.52 145.52 121.23 146.27 C 121.94 147.01 123.12 147.04 123.87 146.33 L 124.61 145.63 C 125.35 144.92 125.38 143.73 124.67 142.99 C 123.96 142.24 122.77 142.21 122.03 142.92 Z M 121.29 143.62 L 120.56 144.32 C 119.82 145.03 119.79 146.21 120.50 146.96 C 121.21 147.71 122.39 147.74 123.14 147.03 L 123.87 146.33 C 124.62 145.62 124.65 144.44 123.94 143.69 C 123.22 142.94 122.04 142.91 121.29 143.62 Z M 120.56 144.32 L 119.84 145.01 C 119.09 145.72 119.06 146.90 119.77 147.65 C 120.49 148.40 121.67 148.43 122.41 147.71 L 123.14 147.03 C 123.89 146.32 123.92 145.13 123.21 144.39 C 122.49 143.64 121.31 143.61 120.56 144.32 Z M 119.84 145.01 L 119.12 145.69 C 118.38 146.40 118.35 147.58 119.06 148.33 C 119.77 149.08 120.95 149.11 121.70 148.40 L 122.42 147.71 C 123.16 147.00 123.19 145.82 122.48 145.07 C 121.77 144.33 120.59 144.30 119.84 145.01 Z M 119.12 145.69 L 118.41 146.37 C 117.67 147.08 117.64 148.26 118.35 149.01 C 119.06 149.76 120.24 149.78 120.99 149.07 L 121.70 148.40 C 122.45 147.68 122.47 146.50 121.76 145.76 C 121.05 145.01 119.87 144.98 119.12 145.69 Z M 118.41 146.37 L 117.68 147.06 C 116.94 147.78 116.91 148.96 117.63 149.70 C 118.34 150.45 119.52 150.48 120.27 149.76 L 120.99 149.07 C 121.74 148.36 121.76 147.18 121.05 146.43 C 120.34 145.68 119.16 145.66 118.41 146.37 Z M 117.68 147.07 L 116.93 147.79 C 116.19 148.50 116.17 149.68 116.88 150.43 C 117.60 151.17 118.78 151.19 119.52 150.48 L 120.27 149.76 C 121.01 149.05 121.04 147.86 120.32 147.12 C 119.61 146.38 118.43 146.35 117.68 147.07 Z M 116.93 147.79 L 116.20 148.50 C 115.45 149.21 115.43 150.40 116.15 151.14 C 116.87 151.88 118.05 151.90 118.79 151.18 L 119.52 150.48 C 120.27 149.76 120.29 148.58 119.57 147.84 C 118.86 147.09 117.67 147.07 116.93 147.79 Z M 116.19 148.50 L 115.47 149.20 C 114.73 149.92 114.71 151.10 115.43 151.84 C 116.15 152.58 117.33 152.60 118.07 151.88 L 118.79 151.18 C 119.53 150.46 119.55 149.28 118.83 148.54 C 118.12 147.80 116.93 147.78 116.19 148.50 Z M 115.47 149.20 L 114.76 149.89 C 114.03 150.61 114.01 151.79 114.73 152.53 C 115.45 153.27 116.63 153.28 117.37 152.56 L 118.07 151.88 C 118.81 151.16 118.83 149.98 118.11 149.24 C 117.39 148.50 116.21 148.48 115.47 149.20 Z M 114.76 149.89 L 114.07 150.57 C 113.34 151.29 113.32 152.47 114.04 153.21 C 114.76 153.94 115.94 153.96 116.68 153.23 L 117.37 152.56 C 118.11 151.84 118.12 150.66 117.40 149.92 C 116.68 149.19 115.50 149.17 114.76 149.89 Z M 114.07 150.57 L 113.36 151.27 C 112.62 151.99 112.61 153.17 113.34 153.91 C 114.06 154.64 115.24 154.65 115.97 153.93 L 116.68 153.23 C 117.42 152.51 117.43 151.33 116.71 150.59 C 115.98 149.86 114.80 149.85 114.07 150.57 Z M 113.35 151.28 L 112.61 152.02 C 111.88 152.74 111.87 153.92 112.59 154.65 C 113.32 155.38 114.50 155.39 115.23 154.66 L 115.98 153.93 C 116.71 153.20 116.71 152.02 115.99 151.29 C 115.27 150.56 114.09 150.55 113.35 151.28 Z M 112.60 152.02 L 111.88 152.74 C 111.15 153.47 111.15 154.65 111.88 155.37 C 112.61 156.10 113.78 156.10 114.51 155.38 L 115.23 154.66 C 115.96 153.93 115.96 152.75 115.24 152.03 C 114.51 151.30 113.33 151.30 112.60 152.02 Z M 111.88 152.75 L 111.18 153.45 C 110.46 154.18 110.46 155.36 111.19 156.08 C 111.92 156.81 113.09 156.80 113.82 156.07 L 114.52 155.37 C 115.24 154.64 115.24 153.46 114.51 152.74 C 113.78 152.02 112.60 152.02 111.88 152.75 Z M 111.17 153.46 L 110.50 154.15 C 109.78 154.88 109.79 156.06 110.52 156.78 C 111.26 157.49 112.43 157.48 113.15 156.75 L 113.82 156.06 C 114.54 155.33 114.53 154.16 113.80 153.44 C 113.07 152.72 111.89 152.73 111.17 153.46 Z M 110.49 154.16 L 109.83 154.85 C 109.11 155.58 109.13 156.76 109.87 157.47 C 110.61 158.18 111.78 158.16 112.49 157.43 L 113.16 156.74 C 113.87 156.00 113.85 154.83 113.11 154.12 C 112.38 153.40 111.20 153.42 110.49 154.16 Z M 109.82 154.86 L 109.10 155.61 C 108.40 156.35 108.43 157.53 109.17 158.23 C 109.91 158.94 111.08 158.91 111.79 158.16 L 112.50 157.41 C 113.21 156.67 113.18 155.50 112.44 154.79 C 111.69 154.09 110.52 154.12 109.82 154.86 Z M 109.09 155.63 L 108.41 156.37 C 107.71 157.11 107.75 158.28 108.50 158.98 C 109.25 159.68 110.42 159.63 111.11 158.89 L 111.80 158.15 C 112.50 157.40 112.45 156.23 111.71 155.53 C 110.96 154.84 109.79 154.88 109.09 155.63 Z M 108.39 156.38 L 107.73 157.12 C 107.04 157.87 107.10 159.04 107.85 159.72 C 108.61 160.41 109.78 160.35 110.46 159.60 L 111.13 158.87 C 111.81 158.11 111.76 156.95 111.00 156.26 C 110.25 155.57 109.08 155.63 108.39 156.38 Z M 107.71 157.13 L 107.07 157.86 C 106.39 158.63 106.46 159.79 107.23 160.47 C 107.99 161.14 109.16 161.07 109.83 160.31 L 110.48 159.58 C 111.15 158.82 111.08 157.65 110.32 156.98 C 109.56 156.30 108.39 156.37 107.71 157.13 Z M 107.05 157.88 L 106.42 158.62 C 105.76 159.39 105.84 160.55 106.61 161.22 C 107.38 161.88 108.55 161.80 109.21 161.02 L 109.85 160.29 C 110.51 159.52 110.42 158.36 109.65 157.69 C 108.88 157.03 107.72 157.11 107.05 157.88 Z M 106.41 158.64 L 105.78 159.39 C 105.13 160.17 105.23 161.33 106.01 161.98 C 106.79 162.63 107.95 162.53 108.60 161.75 L 109.23 161.00 C 109.88 160.23 109.78 159.07 109.00 158.41 C 108.22 157.76 107.06 157.86 106.41 158.64 Z M 105.77 159.41 L 105.14 160.17 C 104.50 160.96 104.62 162.12 105.40 162.76 C 106.19 163.40 107.34 163.28 107.99 162.50 L 108.61 161.73 C 109.25 160.95 109.13 159.79 108.35 159.15 C 107.57 158.51 106.41 158.63 105.77 159.41 Z M 105.13 160.19 L 104.50 160.98 C 103.87 161.77 104.00 162.92 104.79 163.56 C 105.58 164.19 106.74 164.06 107.37 163.27 L 108.00 162.48 C 108.63 161.69 108.50 160.54 107.71 159.90 C 106.92 159.27 105.76 159.40 105.13 160.19 Z M 104.50 161.00 L 103.85 161.82 C 103.23 162.61 103.37 163.76 104.17 164.38 C 104.96 165.01 106.11 164.87 106.73 164.07 L 107.37 163.25 C 108.00 162.46 107.86 161.31 107.06 160.69 C 106.27 160.06 105.12 160.20 104.50 161.00 Z M 103.85 161.83 L 103.23 162.63 C 102.61 163.43 102.76 164.57 103.56 165.19 C 104.36 165.81 105.50 165.66 106.12 164.86 L 106.74 164.06 C 107.35 163.26 107.21 162.12 106.41 161.50 C 105.61 160.88 104.47 161.03 103.85 161.83 Z M 103.23 162.63 L 102.61 163.44 C 101.99 164.24 102.13 165.38 102.93 166.00 C 103.73 166.61 104.87 166.47 105.48 165.67 L 106.11 164.86 C 106.73 164.07 106.58 162.92 105.79 162.31 C 104.99 161.69 103.85 161.84 103.23 162.63 Z M 102.62 163.43 L 101.99 164.23 C 101.36 165.02 101.50 166.16 102.29 166.78 C 103.07 167.41 104.22 167.27 104.84 166.49 L 105.47 165.68 C 106.09 164.90 105.96 163.75 105.17 163.13 C 104.38 162.51 103.24 162.64 102.62 163.43 Z M 102.01 164.21 L 101.38 164.97 C 100.75 165.75 100.86 166.89 101.63 167.53 C 102.41 168.16 103.55 168.05 104.19 167.27 L 104.81 166.51 C 105.45 165.74 105.34 164.59 104.56 163.96 C 103.79 163.32 102.65 163.43 102.01 164.21 Z M 101.42 164.93 L 100.79 165.66 C 100.13 166.41 100.21 167.56 100.96 168.21 C 101.71 168.87 102.85 168.79 103.51 168.04 L 104.15 167.32 C 104.80 166.56 104.73 165.42 103.98 164.76 C 103.22 164.10 102.08 164.18 101.42 164.93 Z M 100.86 165.60 L 100.10 166.37 C 99.41 167.08 99.42 168.22 100.14 168.92 C 100.85 169.61 101.99 169.60 102.68 168.88 L 103.44 168.11 C 104.13 167.40 104.12 166.26 103.40 165.56 C 102.69 164.87 101.55 164.88 100.86 165.60 Z M 100.23 166.28 L 99.47 166.93 C 98.72 167.57 98.64 168.70 99.28 169.45 C 99.92 170.20 101.05 170.28 101.80 169.63 L 102.56 168.98 C 103.30 168.34 103.39 167.21 102.74 166.46 C 102.10 165.72 100.97 165.63 100.23 166.28 Z M 99.64 166.82 L 98.86 167.35 C 98.05 167.89 97.83 169.00 98.38 169.81 C 98.93 170.62 100.03 170.83 100.84 170.28 L 101.62 169.75 C 102.43 169.20 102.65 168.10 102.10 167.29 C 101.55 166.48 100.45 166.27 99.64 166.82 Z M 99.08 167.23 L 98.21 167.65 C 97.34 168.08 96.97 169.13 97.40 170.00 C 97.82 170.87 98.87 171.24 99.74 170.82 L 100.61 170.39 C 101.48 169.97 101.85 168.92 101.43 168.05 C 101.01 167.18 99.96 166.81 99.08 167.23 Z M 98.51 167.56 L 97.48 167.85 C 96.55 168.11 96.01 169.07 96.27 169.99 C 96.53 170.92 97.49 171.45 98.41 171.20 L 99.44 170.91 C 100.37 170.65 100.91 169.69 100.65 168.77 C 100.39 167.84 99.43 167.30 98.51 167.56 Z M 97.90 167.81 L 96.92 167.83 C 95.97 167.85 95.22 168.64 95.24 169.59 C 95.26 170.53 96.05 171.28 96.99 171.26 L 97.98 171.24 C 98.93 171.22 99.68 170.43 99.66 169.49 C 99.64 168.54 98.85 167.79 97.90 167.81 Z M 97.57 167.97 L 96.73 167.65 C 95.86 167.31 94.88 167.74 94.54 168.61 C 94.20 169.48 94.64 170.46 95.51 170.80 L 96.34 171.12 C 97.21 171.46 98.19 171.03 98.53 170.16 C 98.87 169.29 98.44 168.31 97.57 167.97 Z M 97.38 168.13 L 96.85 167.51 C 96.24 166.81 95.19 166.73 94.49 167.33 C 93.80 167.93 93.72 168.99 94.32 169.68 L 94.86 170.31 C 95.46 171.01 96.51 171.09 97.21 170.49 C 97.91 169.89 97.98 168.83 97.38 168.13 Z M 97.09 167.96 L 96.72 167.08 C 96.37 166.25 95.41 165.86 94.57 166.21 C 93.74 166.57 93.35 167.53 93.70 168.36 L 94.07 169.24 C 94.42 170.07 95.39 170.46 96.22 170.11 C 97.05 169.75 97.44 168.79 97.09 167.96 Z M 96.77 167.32 L 96.51 166.29 C 96.29 165.42 95.41 164.90 94.55 165.12 C 93.69 165.34 93.17 166.22 93.39 167.08 L 93.65 168.12 C 93.87 168.98 94.75 169.50 95.61 169.28 C 96.47 169.06 96.99 168.19 96.77 167.32 Z M 96.50 166.38 L 96.32 165.44 C 96.15 164.58 95.32 164.01 94.46 164.18 C 93.60 164.35 93.04 165.18 93.21 166.04 L 93.39 166.99 C 93.56 167.85 94.39 168.41 95.25 168.24 C 96.11 168.07 96.67 167.24 96.50 166.38 Z"
      fill="black"
      fill-rule="nonzero" /><path d="M 148.35 118.90 L 148.86 119.71 C 149.37 120.51 150.43 120.74 151.23 120.23 C 152.03 119.73 152.26 118.66 151.76 117.86 L 151.25 117.06 C 150.74 116.26 149.67 116.02 148.87 116.53 C 148.07 117.04 147.84 118.10 148.35 118.90 Z M 148.80 119.68 L 149.29 120.51 C 149.78 121.34 150.86 121.62 151.69 121.12 C 152.53 120.63 152.80 119.55 152.31 118.72 L 151.82 117.89 C 151.32 117.05 150.24 116.78 149.41 117.28 C 148.58 117.77 148.30 118.85 148.80 119.68 Z M 149.20 120.44 L 149.66 121.32 C 150.11 122.20 151.20 122.54 152.08 122.09 C 152.96 121.63 153.30 120.55 152.85 119.67 L 152.39 118.79 C 151.94 117.91 150.85 117.56 149.97 118.02 C 149.09 118.48 148.75 119.56 149.20 120.44 Z M 149.56 121.20 L 149.96 122.15 C 150.35 123.09 151.42 123.53 152.36 123.14 C 153.29 122.75 153.73 121.67 153.34 120.74 L 152.94 119.79 C 152.55 118.85 151.48 118.41 150.55 118.80 C 149.61 119.19 149.17 120.27 149.56 121.20 Z M 149.87 122.00 L 150.18 122.99 C 150.49 123.98 151.53 124.53 152.52 124.22 C 153.50 123.92 154.05 122.87 153.74 121.89 L 153.43 120.89 C 153.13 119.91 152.08 119.36 151.10 119.66 C 150.11 119.97 149.56 121.02 149.87 122.00 Z M 150.12 122.85 L 150.34 123.82 C 150.57 124.83 151.57 125.47 152.59 125.24 C 153.60 125.02 154.24 124.01 154.02 122.99 L 153.80 122.03 C 153.57 121.01 152.56 120.37 151.55 120.60 C 150.53 120.83 149.90 121.84 150.12 122.85 Z M 150.31 123.72 L 150.48 124.73 C 150.65 125.76 151.62 126.45 152.66 126.28 C 153.69 126.11 154.38 125.14 154.21 124.11 L 154.04 123.10 C 153.87 122.07 152.90 121.37 151.87 121.54 C 150.84 121.71 150.14 122.69 150.31 123.72 Z M 150.46 124.65 L 150.59 125.68 C 150.72 126.72 151.67 127.46 152.71 127.33 C 153.75 127.19 154.49 126.24 154.36 125.20 L 154.23 124.18 C 154.10 123.14 153.15 122.40 152.11 122.53 C 151.07 122.66 150.33 123.61 150.46 124.65 Z M 150.58 125.63 L 150.67 126.63 C 150.78 127.68 151.71 128.45 152.76 128.35 C 153.81 128.24 154.58 127.31 154.47 126.26 L 154.37 125.25 C 154.27 124.20 153.34 123.44 152.29 123.54 C 151.24 123.64 150.47 124.58 150.58 125.63 Z M 150.66 126.61 L 150.74 127.57 C 150.83 128.62 151.76 129.40 152.81 129.32 C 153.87 129.23 154.65 128.30 154.56 127.25 L 154.48 126.29 C 154.40 125.23 153.47 124.45 152.41 124.54 C 151.36 124.62 150.58 125.55 150.66 126.61 Z M 150.74 127.55 L 150.82 128.64 C 150.90 129.70 151.83 130.49 152.89 130.41 C 153.95 130.33 154.74 129.41 154.66 128.35 L 154.57 127.26 C 154.49 126.20 153.56 125.41 152.51 125.49 C 151.45 125.57 150.66 126.50 150.74 127.55 Z M 150.82 128.63 L 150.89 129.65 C 150.97 130.72 151.89 131.51 152.95 131.44 C 154.01 131.36 154.81 130.44 154.73 129.38 L 154.66 128.36 C 154.58 127.30 153.66 126.50 152.60 126.57 C 151.54 126.65 150.74 127.57 150.82 128.63 Z M 150.89 129.64 L 150.95 130.60 C 151.02 131.67 151.94 132.47 153.00 132.40 C 154.06 132.33 154.87 131.41 154.80 130.35 L 154.74 129.39 C 154.67 128.33 153.75 127.52 152.69 127.59 C 151.62 127.66 150.82 128.58 150.89 129.64 Z M 150.95 130.59 L 151.00 131.52 C 151.06 132.59 151.97 133.40 153.04 133.34 C 154.10 133.28 154.92 132.37 154.86 131.30 L 154.80 130.37 C 154.74 129.30 153.83 128.49 152.77 128.55 C 151.70 128.61 150.89 129.52 150.95 130.59 Z M 151.00 131.51 L 151.04 132.44 C 151.09 133.51 152.00 134.33 153.07 134.28 C 154.13 134.23 154.96 133.33 154.91 132.26 L 154.86 131.32 C 154.81 130.25 153.90 129.43 152.84 129.48 C 151.77 129.53 150.94 130.44 151.00 131.51 Z M 151.04 132.43 L 151.07 133.38 C 151.12 134.45 152.02 135.28 153.09 135.24 C 154.16 135.20 154.99 134.30 154.95 133.23 L 154.91 132.27 C 154.87 131.21 153.97 130.37 152.90 130.42 C 151.83 130.46 150.99 131.36 151.04 132.43 Z M 151.07 133.37 L 151.10 134.36 C 151.14 135.43 152.03 136.27 153.10 136.24 C 154.17 136.20 155.01 135.31 154.98 134.24 L 154.95 133.25 C 154.92 132.18 154.02 131.34 152.95 131.37 C 151.88 131.40 151.04 132.30 151.07 133.37 Z M 151.10 134.34 L 151.12 135.37 C 151.15 136.44 152.04 137.29 153.11 137.27 C 154.18 137.24 155.03 136.35 155.01 135.28 L 154.98 134.25 C 154.96 133.18 154.07 132.33 153.00 132.36 C 151.92 132.38 151.07 133.27 151.10 134.34 Z M 151.12 135.36 L 151.14 136.41 C 151.16 137.48 152.04 138.34 153.11 138.32 C 154.19 138.31 155.04 137.42 155.03 136.35 L 155.01 135.29 C 154.99 134.22 154.11 133.36 153.03 133.38 C 151.96 133.40 151.10 134.28 151.12 135.36 Z M 151.14 136.40 L 151.15 137.36 C 151.16 138.44 152.04 139.30 153.11 139.29 C 154.19 139.28 155.05 138.40 155.04 137.32 L 155.03 136.36 C 155.02 135.28 154.14 134.42 153.06 134.43 C 151.99 134.44 151.13 135.33 151.14 136.40 Z M 151.14 137.36 L 151.15 138.35 C 151.16 139.42 152.03 140.29 153.11 140.28 C 154.19 140.28 155.05 139.40 155.05 138.32 L 155.04 137.33 C 155.03 136.26 154.16 135.39 153.08 135.40 C 152.01 135.40 151.14 136.28 151.14 137.36 Z M 151.15 138.34 L 151.15 139.35 C 151.16 140.43 152.03 141.30 153.11 141.29 C 154.18 141.29 155.05 140.41 155.05 139.34 L 155.05 138.33 C 155.04 137.25 154.17 136.38 153.09 136.39 C 152.02 136.39 151.15 137.26 151.15 138.34 Z M 151.15 139.35 L 151.15 140.37 C 151.15 141.44 152.03 142.32 153.11 142.31 C 154.18 142.31 155.06 141.44 155.05 140.36 L 155.05 139.34 C 155.05 138.26 154.18 137.39 153.10 137.39 C 152.02 137.39 151.15 138.27 151.15 139.35 Z M 151.15 140.36 L 151.15 141.39 C 151.15 142.47 152.02 143.34 153.10 143.34 C 154.18 143.34 155.06 142.46 155.06 141.39 L 155.06 140.36 C 155.06 139.29 154.18 138.41 153.10 138.41 C 152.02 138.41 151.15 139.29 151.15 140.36 Z M 151.15 141.39 L 151.15 142.38 C 151.15 143.46 152.02 144.33 153.10 144.33 C 154.18 144.33 155.06 143.46 155.06 142.38 L 155.06 141.39 C 155.06 140.31 154.18 139.43 153.10 139.43 C 152.02 139.43 151.15 140.31 151.15 141.39 Z M 151.15 142.38 L 151.15 143.37 C 151.15 144.45 152.02 145.33 153.10 145.33 C 154.18 145.33 155.06 144.45 155.06 143.37 L 155.06 142.38 C 155.06 141.30 154.18 140.42 153.10 140.42 C 152.02 140.42 151.15 141.30 151.15 142.38 Z M 151.15 143.37 L 151.15 144.37 C 151.15 145.45 152.02 146.33 153.10 146.33 C 154.18 146.33 155.06 145.45 155.06 144.37 L 155.06 143.37 C 155.06 142.29 154.18 141.42 153.10 141.42 C 152.02 141.42 151.15 142.29 151.15 143.37 Z M 151.15 144.37 L 151.15 145.37 C 151.15 146.45 152.02 147.33 153.10 147.33 C 154.18 147.33 155.06 146.45 155.06 145.37 L 155.06 144.37 C 155.06 143.29 154.18 142.41 153.10 142.41 C 152.02 142.41 151.15 143.29 151.15 144.37 Z M 151.14 145.37 L 151.14 146.38 C 151.14 147.46 152.02 148.34 153.10 148.34 C 154.18 148.34 155.06 147.46 155.06 146.38 L 155.06 145.37 C 155.06 144.29 154.18 143.41 153.10 143.41 C 152.02 143.41 151.14 144.29 151.14 145.37 Z M 151.14 146.38 L 151.14 147.37 C 151.14 148.45 152.02 149.32 153.10 149.33 C 154.18 149.33 155.06 148.45 155.06 147.37 L 155.06 146.38 C 155.06 145.30 154.19 144.42 153.10 144.42 C 152.02 144.42 151.14 145.30 151.14 146.38 Z M 151.14 147.36 L 151.14 148.34 C 151.14 149.43 152.01 150.31 153.10 150.31 C 154.18 150.31 155.06 149.44 155.06 148.35 L 155.06 147.37 C 155.07 146.29 154.19 145.41 153.11 145.41 C 152.03 145.40 151.15 146.28 151.14 147.36 Z M 151.14 148.33 L 151.13 149.33 C 151.12 150.41 151.99 151.30 153.08 151.31 C 154.16 151.31 155.04 150.44 155.05 149.36 L 155.06 148.37 C 155.07 147.28 154.20 146.40 153.12 146.39 C 152.03 146.38 151.15 147.25 151.14 148.33 Z M 151.13 149.31 L 151.11 150.32 C 151.10 151.40 151.96 152.29 153.04 152.31 C 154.13 152.33 155.02 151.47 155.04 150.38 L 155.05 149.38 C 155.07 148.29 154.21 147.40 153.12 147.38 C 152.04 147.36 151.15 148.23 151.13 149.31 Z M 151.11 150.30 L 151.08 151.31 C 151.05 152.39 151.91 153.30 152.99 153.33 C 154.08 153.36 154.98 152.50 155.01 151.42 L 155.04 150.41 C 155.07 149.32 154.21 148.42 153.13 148.39 C 152.05 148.36 151.14 149.21 151.11 150.30 Z M 151.09 151.28 L 151.04 152.30 C 151.00 153.38 151.84 154.29 152.92 154.34 C 154.00 154.39 154.92 153.54 154.97 152.46 L 155.01 151.45 C 155.05 150.37 154.21 149.45 153.13 149.40 C 152.05 149.36 151.13 150.20 151.09 151.28 Z M 151.04 152.27 L 150.99 153.24 C 150.93 154.33 151.75 155.25 152.84 155.32 C 153.92 155.38 154.85 154.55 154.91 153.47 L 154.96 152.49 C 155.03 151.41 154.20 150.48 153.12 150.42 C 152.03 150.36 151.11 151.18 151.04 152.27 Z M 150.99 153.22 L 150.92 154.21 C 150.85 155.29 151.66 156.23 152.75 156.30 C 153.83 156.37 154.77 155.56 154.84 154.47 L 154.91 153.49 C 154.98 152.41 154.17 151.47 153.08 151.40 C 152.00 151.32 151.06 152.14 150.99 153.22 Z M 150.92 154.19 L 150.85 155.18 C 150.76 156.26 151.57 157.21 152.65 157.29 C 153.73 157.38 154.68 156.57 154.76 155.49 L 154.84 154.49 C 154.92 153.41 154.11 152.47 153.03 152.38 C 151.95 152.30 151.01 153.11 150.92 154.19 Z M 150.85 155.17 L 150.76 156.17 C 150.67 157.26 151.47 158.21 152.56 158.30 C 153.64 158.39 154.59 157.58 154.68 156.50 L 154.76 155.50 C 154.85 154.42 154.05 153.47 152.97 153.38 C 151.89 153.29 150.94 154.09 150.85 155.17 Z M 150.76 156.17 L 150.67 157.18 C 150.58 158.26 151.38 159.22 152.46 159.31 C 153.54 159.40 154.49 158.60 154.59 157.52 L 154.68 156.51 C 154.77 155.43 153.97 154.48 152.89 154.38 C 151.81 154.29 150.86 155.09 150.76 156.17 Z M 150.67 157.18 L 150.58 158.19 C 150.49 159.27 151.29 160.22 152.37 160.32 C 153.45 160.41 154.40 159.61 154.50 158.53 L 154.59 157.53 C 154.68 156.44 153.88 155.49 152.80 155.40 C 151.72 155.30 150.77 156.10 150.67 157.18 Z M 150.58 158.19 L 150.50 159.18 C 150.40 160.26 151.20 161.21 152.28 161.30 C 153.37 161.40 154.32 160.60 154.41 159.52 L 154.50 158.53 C 154.59 157.45 153.79 156.50 152.71 156.40 C 151.63 156.31 150.68 157.11 150.58 158.19 Z M 150.50 159.18 L 150.41 160.17 C 150.32 161.25 151.12 162.20 152.20 162.30 C 153.28 162.39 154.23 161.59 154.33 160.51 L 154.41 159.52 C 154.51 158.44 153.71 157.48 152.63 157.39 C 151.55 157.29 150.59 158.09 150.50 159.18 Z M 150.41 160.17 L 150.32 161.17 C 150.23 162.25 151.03 163.20 152.11 163.30 C 153.19 163.39 154.14 162.59 154.24 161.51 L 154.33 160.51 C 154.42 159.43 153.62 158.48 152.54 158.38 C 151.46 158.29 150.51 159.09 150.41 160.17 Z M 150.32 161.16 L 150.23 162.16 C 150.14 163.24 150.93 164.20 152.01 164.30 C 153.10 164.40 154.05 163.60 154.15 162.52 L 154.24 161.52 C 154.34 160.43 153.54 159.48 152.46 159.38 C 151.38 159.28 150.42 160.08 150.32 161.16 Z M 150.23 162.16 L 150.14 163.16 C 150.04 164.24 150.84 165.20 151.92 165.30 C 153.00 165.40 153.95 164.60 154.05 163.52 L 154.15 162.52 C 154.25 161.44 153.45 160.48 152.37 160.38 C 151.29 160.28 150.33 161.08 150.23 162.16 Z M 150.14 163.16 L 150.05 164.15 C 149.94 165.23 150.73 166.19 151.82 166.30 C 152.90 166.40 153.85 165.61 153.96 164.53 L 154.05 163.53 C 154.16 162.45 153.37 161.49 152.29 161.39 C 151.20 161.28 150.25 162.07 150.14 163.16 Z M 150.05 164.15 L 149.95 165.13 C 149.84 166.21 150.63 167.17 151.71 167.28 C 152.79 167.39 153.75 166.60 153.86 165.52 L 153.96 164.53 C 154.06 163.45 153.28 162.49 152.20 162.39 C 151.12 162.28 150.15 163.07 150.05 164.15 Z M 149.95 165.13 L 149.85 166.12 C 149.74 167.19 150.53 168.16 151.61 168.27 C 152.69 168.38 153.65 167.59 153.76 166.51 L 153.86 165.52 C 153.97 164.45 153.18 163.48 152.10 163.37 C 151.02 163.26 150.06 164.05 149.95 165.13 Z M 149.85 166.11 L 149.75 167.10 C 149.64 168.18 150.43 169.14 151.51 169.25 C 152.58 169.36 153.55 168.58 153.66 167.50 L 153.76 166.51 C 153.87 165.43 153.08 164.47 152.00 164.36 C 150.93 164.25 149.96 165.04 149.85 166.11 Z M 149.75 167.10 L 149.65 168.10 C 149.54 169.18 150.33 170.14 151.41 170.25 C 152.48 170.36 153.44 169.57 153.55 168.49 L 153.65 167.50 C 153.76 166.42 152.98 165.46 151.90 165.35 C 150.82 165.24 149.86 166.03 149.75 167.10 Z M 149.65 168.10 L 149.55 169.11 C 149.45 170.18 150.23 171.14 151.31 171.25 C 152.39 171.36 153.35 170.57 153.45 169.49 L 153.55 168.49 C 153.66 167.41 152.87 166.45 151.80 166.35 C 150.72 166.24 149.76 167.03 149.65 168.10 Z M 149.55 169.11 L 149.46 170.13 C 149.35 171.20 150.14 172.16 151.22 172.26 C 152.30 172.36 153.25 171.58 153.36 170.50 L 153.45 169.49 C 153.56 168.41 152.77 167.45 151.69 167.35 C 150.61 167.25 149.66 168.04 149.55 169.11 Z M 149.46 170.13 L 149.36 171.15 C 149.27 172.23 150.06 173.18 151.13 173.28 C 152.21 173.38 153.16 172.59 153.26 171.51 L 153.36 170.49 C 153.45 169.41 152.66 168.46 151.59 168.36 C 150.51 168.26 149.56 169.06 149.46 170.13 Z M 149.37 171.16 L 149.28 172.18 C 149.18 173.26 149.97 174.21 151.05 174.30 C 152.13 174.40 153.07 173.60 153.17 172.53 L 153.26 171.50 C 153.36 170.43 152.56 169.48 151.49 169.38 C 150.41 169.29 149.46 170.08 149.37 171.16 Z M 149.28 172.19 L 149.19 173.20 C 149.10 174.28 149.89 175.23 150.97 175.32 C 152.04 175.41 152.99 174.62 153.08 173.54 L 153.17 172.52 C 153.26 171.45 152.47 170.50 151.39 170.41 C 150.32 170.32 149.37 171.11 149.28 172.19 Z M 149.19 173.21 L 149.10 174.21 C 149.01 175.28 149.81 176.23 150.88 176.32 C 151.95 176.41 152.90 175.62 152.99 174.54 L 153.08 173.54 C 153.17 172.47 152.38 171.52 151.30 171.43 C 150.23 171.34 149.28 172.13 149.19 173.21 Z M 149.11 174.21 L 149.02 175.19 C 148.93 176.26 149.72 177.21 150.79 177.30 C 151.87 177.39 152.81 176.60 152.90 175.53 L 152.99 174.55 C 153.08 173.47 152.29 172.53 151.22 172.44 C 150.14 172.34 149.20 173.14 149.11 174.21 Z M 149.02 175.19 L 148.94 176.14 C 148.84 177.21 149.63 178.15 150.70 178.25 C 151.78 178.34 152.72 177.55 152.82 176.48 L 152.90 175.53 C 153.00 174.46 152.21 173.51 151.14 173.42 C 150.06 173.32 149.12 174.11 149.02 175.19 Z M 148.94 176.13 L 148.84 177.18 C 148.74 178.25 149.53 179.20 150.60 179.30 C 151.67 179.40 152.62 178.61 152.72 177.54 L 152.81 176.49 C 152.91 175.42 152.13 174.47 151.06 174.37 C 149.99 174.27 149.04 175.06 148.94 176.13 Z M 148.85 177.17 L 148.74 178.22 C 148.64 179.29 149.42 180.24 150.49 180.34 C 151.56 180.45 152.51 179.67 152.61 178.60 L 152.71 177.55 C 152.82 176.48 152.04 175.53 150.97 175.43 C 149.90 175.32 148.95 176.11 148.85 177.17 Z M 148.75 178.22 L 148.65 179.22 C 148.54 180.28 149.32 181.23 150.38 181.34 C 151.45 181.45 152.40 180.67 152.50 179.61 L 152.61 178.61 C 152.71 177.54 151.94 176.59 150.87 176.48 C 149.81 176.38 148.86 177.15 148.75 178.22 Z M 148.65 179.22 L 148.55 180.18 C 148.45 181.24 149.22 182.19 150.28 182.30 C 151.34 182.40 152.29 181.63 152.40 180.57 L 152.50 179.61 C 152.61 178.55 151.84 177.60 150.77 177.49 C 149.71 177.38 148.76 178.15 148.65 179.22 Z M 148.56 180.18 L 148.46 181.10 C 148.35 182.16 149.13 183.11 150.19 183.22 C 151.25 183.33 152.20 182.56 152.30 181.49 L 152.40 180.57 C 152.51 179.51 151.73 178.56 150.67 178.45 C 149.61 178.34 148.67 179.12 148.56 180.18 Z M 148.47 181.11 L 148.37 182.10 C 148.26 183.16 149.04 184.10 150.09 184.21 C 151.15 184.31 152.10 183.54 152.20 182.48 L 152.30 181.49 C 152.40 180.43 151.63 179.49 150.57 179.38 C 149.52 179.28 148.57 180.05 148.47 181.11 Z M 148.37 182.11 L 148.27 183.13 C 148.17 184.19 148.95 185.13 150.00 185.23 C 151.06 185.33 152.00 184.56 152.10 183.50 L 152.20 182.47 C 152.30 181.42 151.52 180.48 150.47 180.38 C 149.41 180.28 148.47 181.05 148.37 182.11 Z M 148.28 183.14 L 148.19 184.14 C 148.09 185.19 148.87 186.13 149.92 186.22 C 150.97 186.32 151.91 185.54 152.00 184.49 L 152.09 183.49 C 152.19 182.44 151.41 181.51 150.36 181.41 C 149.31 181.31 148.38 182.09 148.28 183.14 Z M 148.19 184.15 L 148.11 185.12 C 148.02 186.17 148.80 187.10 149.85 187.19 C 150.90 187.28 151.82 186.50 151.91 185.45 L 152.00 184.48 C 152.09 183.43 151.31 182.50 150.26 182.41 C 149.21 182.32 148.28 183.10 148.19 184.15 Z M 148.11 185.13 L 148.03 186.10 C 147.95 187.15 148.73 188.07 149.78 188.15 C 150.82 188.24 151.74 187.46 151.83 186.41 L 151.91 185.44 C 151.99 184.39 151.21 183.48 150.17 183.39 C 149.12 183.30 148.20 184.08 148.11 185.13 Z M 148.04 186.11 L 147.96 187.15 C 147.88 188.19 148.66 189.10 149.71 189.18 C 150.75 189.26 151.66 188.48 151.74 187.44 L 151.82 186.40 C 151.90 185.36 151.12 184.45 150.08 184.37 C 149.03 184.29 148.12 185.07 148.04 186.11 Z M 147.97 187.16 L 147.90 188.16 C 147.82 189.20 148.61 190.11 149.65 190.18 C 150.69 190.25 151.59 189.47 151.67 188.43 L 151.74 187.42 C 151.81 186.38 151.03 185.48 149.98 185.41 C 148.94 185.34 148.04 186.12 147.97 187.16 Z M 147.90 188.18 L 147.84 189.15 C 147.78 190.19 148.57 191.08 149.60 191.15 C 150.64 191.21 151.53 190.42 151.60 189.39 L 151.66 188.41 C 151.73 187.38 150.94 186.48 149.90 186.42 C 148.86 186.35 147.97 187.14 147.90 188.18 Z M 147.85 189.16 L 147.80 190.11 C 147.74 191.14 148.53 192.02 149.56 192.08 C 150.60 192.14 151.48 191.35 151.54 190.31 L 151.59 189.37 C 151.65 188.34 150.86 187.45 149.82 187.40 C 148.79 187.34 147.91 188.13 147.85 189.16 Z M 147.80 190.12 L 147.76 191.05 C 147.71 192.08 148.50 192.95 149.53 193.00 C 150.56 193.05 151.44 192.26 151.49 191.23 L 151.53 190.30 C 151.58 189.27 150.79 188.40 149.76 188.35 C 148.73 188.30 147.85 189.09 147.80 190.12 Z M 147.77 191.06 L 147.72 192.02 C 147.68 193.05 148.47 193.91 149.50 193.96 C 150.52 194.00 151.39 193.21 151.44 192.18 L 151.48 191.22 C 151.52 190.19 150.73 189.33 149.70 189.28 C 148.68 189.24 147.81 190.03 147.77 191.06 Z M 147.73 192.02 L 147.69 193.07 C 147.65 194.09 148.44 194.96 149.46 195.00 C 150.48 195.04 151.34 194.25 151.38 193.23 L 151.43 192.18 C 151.47 191.16 150.68 190.30 149.66 190.25 C 148.64 190.21 147.78 191.00 147.73 192.02 Z M 147.70 193.07 L 147.65 194.09 C 147.61 195.11 148.40 195.96 149.41 196.01 C 150.43 196.05 151.29 195.26 151.33 194.25 L 151.38 193.23 C 151.42 192.21 150.63 191.35 149.61 191.31 C 148.60 191.27 147.74 192.06 147.70 193.07 Z M 147.66 194.09 L 147.62 195.00 C 147.58 196.01 148.36 196.86 149.38 196.91 C 150.39 196.95 151.24 196.17 151.29 195.15 L 151.33 194.25 C 151.37 193.23 150.58 192.38 149.57 192.33 C 148.56 192.29 147.70 193.08 147.66 194.09 Z M 147.63 195.00 L 147.59 195.97 C 147.55 196.98 148.33 197.83 149.34 197.87 C 150.35 197.91 151.20 197.13 151.24 196.12 L 151.28 195.15 C 151.32 194.14 150.54 193.29 149.53 193.25 C 148.52 193.21 147.67 193.99 147.63 195.00 Z M 147.59 195.98 L 147.56 197.00 C 147.52 198.00 148.30 198.85 149.31 198.89 C 150.31 198.92 151.16 198.14 151.19 197.14 L 151.23 196.11 C 151.27 195.11 150.49 194.26 149.48 194.23 C 148.48 194.19 147.63 194.97 147.59 195.98 Z M 147.56 197.01 L 147.53 198.07 C 147.50 199.07 148.28 199.91 149.28 199.94 C 150.28 199.97 151.12 199.19 151.15 198.19 L 151.19 197.13 C 151.22 196.13 150.44 195.29 149.43 195.26 C 148.43 195.22 147.60 196.01 147.56 197.01 Z M 147.54 198.08 L 147.51 199.17 C 147.48 200.17 148.27 201.00 149.27 201.03 C 150.26 201.05 151.09 200.26 151.12 199.27 L 151.15 198.18 C 151.17 197.18 150.39 196.35 149.39 196.32 C 148.39 196.30 147.56 197.08 147.54 198.08 Z M 147.52 199.19 L 147.50 200.26 C 147.48 201.25 148.27 202.07 149.26 202.08 C 150.25 202.10 151.07 201.31 151.09 200.32 L 151.11 199.25 C 151.13 198.26 150.34 197.44 149.35 197.42 C 148.35 197.41 147.54 198.20 147.52 199.19 Z M 147.51 200.27 L 147.50 201.33 C 147.49 202.32 148.27 203.12 149.26 203.13 C 150.24 203.15 151.05 202.36 151.06 201.37 L 151.07 200.31 C 151.09 199.33 150.30 198.52 149.31 198.51 C 148.33 198.50 147.52 199.28 147.51 200.27 Z M 147.51 201.34 L 147.50 202.38 C 147.50 203.36 148.28 204.16 149.26 204.16 C 150.24 204.17 151.03 203.38 151.04 202.41 L 151.05 201.37 C 151.05 200.39 150.27 199.59 149.29 199.58 C 148.32 199.58 147.52 200.36 147.51 201.34 Z M 147.52 202.39 L 147.51 203.39 C 147.51 204.36 148.29 205.14 149.26 205.15 C 150.23 205.15 151.02 204.37 151.02 203.40 L 151.03 202.40 C 151.03 201.43 150.25 200.64 149.28 200.64 C 148.31 200.64 147.52 201.42 147.52 202.39 Z M 147.53 203.39 L 147.53 204.33 C 147.53 205.29 148.30 206.07 149.26 206.07 C 150.23 206.07 151.00 205.30 151.01 204.34 L 151.01 203.40 C 151.01 202.44 150.23 201.66 149.27 201.66 C 148.31 201.65 147.53 202.43 147.53 203.39 Z M 147.54 204.33 L 147.54 205.28 C 147.54 206.23 148.31 207.00 149.27 207.00 C 150.22 207.00 150.99 206.23 150.99 205.28 L 150.99 204.33 C 150.99 203.38 150.22 202.61 149.27 202.61 C 148.32 202.61 147.54 203.38 147.54 204.33 Z M 147.57 205.28 L 147.57 206.42 C 147.57 207.36 148.33 208.12 149.27 208.12 C 150.20 208.12 150.96 207.36 150.96 206.42 L 150.96 205.28 C 150.96 204.34 150.20 203.58 149.27 203.58 C 148.33 203.58 147.57 204.34 147.57 205.28 Z M 147.61 206.42 L 147.61 207.41 C 147.61 208.32 148.35 209.06 149.27 209.06 C 150.18 209.06 150.92 208.32 150.92 207.41 L 150.92 206.42 C 150.92 205.51 150.18 204.76 149.27 204.76 C 148.35 204.76 147.61 205.51 147.61 206.42 Z M 147.65 207.41 L 147.65 208.30 C 147.65 209.19 148.37 209.92 149.27 209.92 C 150.16 209.92 150.89 209.19 150.89 208.30 L 150.89 207.41 C 150.89 206.51 150.16 205.79 149.27 205.79 C 148.37 205.79 147.65 206.51 147.65 207.41 Z M 147.67 208.30 L 147.67 208.73 C 147.67 209.61 148.39 210.33 149.27 210.33 C 150.15 210.33 150.86 209.61 150.86 208.73 L 150.86 208.30 C 150.86 207.42 150.15 206.71 149.27 206.71 C 148.39 206.71 147.67 207.42 147.67 208.30 Z"
      fill="black"
      fill-rule="nonzero" /><path d="M 158.16 149.88 L 159.07 150.06 C 160.10 150.26 161.10 149.59 161.31 148.56 C 161.51 147.53 160.84 146.53 159.81 146.33 L 158.89 146.15 C 157.86 145.95 156.87 146.62 156.66 147.65 C 156.46 148.68 157.13 149.67 158.16 149.88 Z M 159.02 150.08 L 159.96 150.29 C 161.00 150.52 162.04 149.87 162.27 148.82 C 162.50 147.78 161.84 146.75 160.80 146.51 L 159.86 146.30 C 158.82 146.07 157.78 146.73 157.55 147.77 C 157.32 148.81 157.98 149.85 159.02 150.08 Z M 159.86 150.30 L 160.85 150.57 C 161.90 150.86 162.98 150.24 163.27 149.19 C 163.55 148.14 162.93 147.05 161.88 146.77 L 160.90 146.50 C 159.85 146.21 158.76 146.83 158.48 147.89 C 158.19 148.94 158.81 150.02 159.86 150.30 Z M 160.73 150.57 L 161.75 150.91 C 162.80 151.26 163.93 150.69 164.28 149.64 C 164.63 148.59 164.07 147.46 163.02 147.11 L 162.00 146.77 C 160.95 146.42 159.82 146.99 159.47 148.03 C 159.12 149.08 159.68 150.22 160.73 150.57 Z M 161.65 150.89 L 162.56 151.25 C 163.60 151.65 164.77 151.14 165.18 150.10 C 165.58 149.06 165.07 147.89 164.03 147.48 L 163.12 147.13 C 162.08 146.72 160.90 147.23 160.50 148.27 C 160.09 149.31 160.61 150.48 161.65 150.89 Z M 162.50 151.23 L 163.44 151.63 C 164.47 152.06 165.66 151.58 166.10 150.55 C 166.54 149.52 166.05 148.34 165.02 147.90 L 164.08 147.50 C 163.06 147.06 161.87 147.54 161.43 148.57 C 160.99 149.60 161.47 150.79 162.50 151.23 Z M 163.41 151.62 L 164.35 152.04 C 165.38 152.49 166.58 152.03 167.03 151.00 C 167.48 149.98 167.02 148.78 166.00 148.32 L 165.06 147.91 C 164.03 147.45 162.83 147.92 162.38 148.94 C 161.92 149.97 162.39 151.17 163.41 151.62 Z M 164.34 152.04 L 165.25 152.45 C 166.28 152.91 167.48 152.45 167.94 151.42 C 168.40 150.40 167.95 149.19 166.92 148.73 L 166.01 148.32 C 164.98 147.86 163.78 148.32 163.32 149.35 C 162.86 150.37 163.31 151.58 164.34 152.04 Z M 165.26 152.46 L 166.21 152.87 C 167.24 153.33 168.44 152.86 168.90 151.83 C 169.35 150.80 168.88 149.60 167.85 149.14 L 166.91 148.72 C 165.88 148.27 164.68 148.74 164.22 149.77 C 163.77 150.80 164.23 152.00 165.26 152.46 Z M 166.24 152.89 L 167.19 153.29 C 168.22 153.72 169.42 153.24 169.86 152.20 C 170.29 151.16 169.81 149.96 168.77 149.53 L 167.82 149.13 C 166.78 148.69 165.59 149.18 165.15 150.22 C 164.71 151.25 165.20 152.45 166.24 152.89 Z M 167.23 153.30 L 168.13 153.66 C 169.18 154.07 170.36 153.56 170.78 152.52 C 171.19 151.47 170.68 150.28 169.64 149.87 L 168.73 149.51 C 167.68 149.10 166.50 149.61 166.08 150.65 C 165.67 151.70 166.18 152.89 167.23 153.30 Z M 168.18 153.68 L 169.08 154.01 C 170.13 154.40 171.31 153.86 171.70 152.80 C 172.09 151.75 171.55 150.57 170.49 150.19 L 169.59 149.85 C 168.53 149.46 167.36 150.00 166.97 151.06 C 166.58 152.11 167.12 153.29 168.18 153.68 Z M 169.12 154.02 L 170.03 154.33 C 171.09 154.70 172.25 154.13 172.62 153.07 C 172.98 152.00 172.41 150.85 171.35 150.48 L 170.45 150.17 C 169.38 149.81 168.22 150.37 167.86 151.44 C 167.49 152.50 168.06 153.66 169.12 154.02 Z M 170.07 154.34 L 170.99 154.64 C 172.06 154.99 173.21 154.40 173.55 153.33 C 173.90 152.26 173.31 151.11 172.24 150.77 L 171.31 150.47 C 170.24 150.13 169.10 150.71 168.75 151.78 C 168.41 152.85 169.00 154.00 170.07 154.34 Z M 171.02 154.65 L 171.98 154.94 C 173.05 155.27 174.19 154.67 174.52 153.59 C 174.85 152.52 174.24 151.38 173.17 151.06 L 172.21 150.76 C 171.14 150.43 170.00 151.04 169.67 152.11 C 169.34 153.18 169.95 154.32 171.02 154.65 Z M 172.00 154.95 L 172.99 155.24 C 174.07 155.56 175.20 154.94 175.51 153.86 C 175.83 152.79 175.21 151.66 174.14 151.34 L 173.15 151.05 C 172.07 150.73 170.94 151.35 170.63 152.43 C 170.31 153.50 170.93 154.63 172.00 154.95 Z M 173.01 155.24 L 173.97 155.52 C 175.05 155.83 176.17 155.20 176.48 154.12 C 176.79 153.05 176.17 151.92 175.09 151.61 L 174.12 151.34 C 173.04 151.03 171.92 151.65 171.61 152.73 C 171.30 153.81 171.93 154.93 173.01 155.24 Z M 173.98 155.52 L 174.92 155.78 C 176.00 156.08 177.12 155.45 177.42 154.37 C 177.72 153.29 177.09 152.18 176.01 151.88 L 175.07 151.61 C 174.00 151.31 172.88 151.94 172.58 153.02 C 172.28 154.10 172.91 155.22 173.98 155.52 Z M 174.94 155.78 L 175.90 156.04 C 176.98 156.33 178.09 155.70 178.38 154.62 C 178.67 153.54 178.03 152.42 176.95 152.13 L 176.00 151.87 C 174.92 151.58 173.80 152.22 173.51 153.30 C 173.22 154.38 173.86 155.49 174.94 155.78 Z M 175.92 156.04 L 176.90 156.30 C 177.98 156.58 179.08 155.93 179.36 154.85 C 179.65 153.77 179.00 152.67 177.92 152.39 L 176.94 152.13 C 175.86 151.85 174.75 152.50 174.47 153.58 C 174.19 154.66 174.84 155.76 175.92 156.04 Z M 176.92 156.30 L 177.93 156.55 C 179.01 156.82 180.10 156.16 180.37 155.08 C 180.64 154.00 179.98 152.90 178.90 152.64 L 177.90 152.38 C 176.81 152.11 175.72 152.77 175.45 153.85 C 175.18 154.94 175.84 156.03 176.92 156.30 Z M 177.95 156.56 L 178.92 156.79 C 180.01 157.04 181.09 156.37 181.35 155.29 C 181.61 154.21 180.94 153.12 179.85 152.86 L 178.88 152.63 C 177.80 152.38 176.71 153.04 176.45 154.13 C 176.20 155.21 176.86 156.30 177.95 156.56 Z M 178.94 156.79 L 179.93 157.01 C 181.01 157.26 182.09 156.58 182.34 155.49 C 182.58 154.41 181.90 153.33 180.82 153.09 L 179.83 152.86 C 178.75 152.62 177.67 153.30 177.43 154.38 C 177.18 155.47 177.86 156.54 178.94 156.79 Z M 179.95 157.01 L 180.94 157.23 C 182.02 157.46 183.09 156.77 183.32 155.68 C 183.56 154.60 182.87 153.53 181.78 153.30 L 180.80 153.08 C 179.71 152.85 178.64 153.54 178.41 154.63 C 178.18 155.71 178.87 156.78 179.95 157.01 Z M 180.96 157.23 L 181.94 157.43 C 183.02 157.65 184.08 156.95 184.30 155.86 C 184.53 154.78 183.83 153.72 182.74 153.50 L 181.76 153.30 C 180.68 153.07 179.62 153.77 179.40 154.86 C 179.17 155.95 179.87 157.00 180.96 157.23 Z M 181.96 157.43 L 182.93 157.61 C 184.02 157.82 185.07 157.11 185.28 156.03 C 185.49 154.94 184.78 153.89 183.69 153.68 L 182.72 153.50 C 181.63 153.29 180.58 154.00 180.37 155.08 C 180.16 156.17 180.87 157.22 181.96 157.43 Z M 182.96 157.61 L 183.98 157.80 C 185.07 158.00 186.11 157.27 186.30 156.19 C 186.50 155.10 185.78 154.06 184.69 153.87 L 183.67 153.68 C 182.58 153.49 181.54 154.21 181.35 155.29 C 181.15 156.38 181.87 157.42 182.96 157.61 Z M 184.00 157.80 L 185.00 157.97 C 186.08 158.15 187.11 157.42 187.30 156.34 C 187.48 155.25 186.75 154.22 185.67 154.04 L 184.67 153.87 C 183.59 153.68 182.56 154.41 182.37 155.50 C 182.19 156.58 182.92 157.61 184.00 157.80 Z M 185.01 157.96 L 185.98 158.12 C 187.07 158.30 188.09 157.57 188.27 156.48 C 188.44 155.40 187.71 154.38 186.63 154.20 L 185.65 154.04 C 184.57 153.86 183.55 154.60 183.37 155.68 C 183.20 156.77 183.93 157.79 185.01 157.96 Z M 185.99 158.12 L 186.94 158.27 C 188.02 158.45 189.04 157.71 189.21 156.63 C 189.39 155.55 188.65 154.53 187.57 154.36 L 186.62 154.21 C 185.54 154.03 184.52 154.77 184.35 155.85 C 184.17 156.93 184.91 157.94 185.99 158.12 Z M 186.94 158.27 L 187.94 158.43 C 189.02 158.60 190.03 157.87 190.21 156.79 C 190.38 155.72 189.65 154.70 188.57 154.53 L 187.57 154.36 C 186.50 154.19 185.48 154.92 185.31 156.00 C 185.13 157.08 185.86 158.09 186.94 158.27 Z M 187.94 158.42 L 188.94 158.58 C 190.01 158.76 191.02 158.03 191.20 156.96 C 191.37 155.88 190.64 154.87 189.57 154.70 L 188.57 154.53 C 187.50 154.36 186.49 155.09 186.31 156.16 C 186.14 157.23 186.87 158.25 187.94 158.42 Z M 188.94 158.58 L 189.92 158.74 C 190.99 158.91 192.00 158.18 192.17 157.11 C 192.35 156.04 191.62 155.04 190.55 154.86 L 189.57 154.70 C 188.50 154.53 187.49 155.26 187.32 156.33 C 187.14 157.40 187.87 158.40 188.94 158.58 Z M 189.93 158.73 L 190.90 158.88 C 191.96 159.05 192.96 158.32 193.13 157.26 C 193.30 156.19 192.58 155.19 191.51 155.02 L 190.54 154.87 C 189.48 154.70 188.48 155.43 188.31 156.49 C 188.14 157.56 188.86 158.56 189.93 158.73 Z M 190.91 158.88 L 191.91 159.03 C 192.97 159.19 193.97 158.46 194.13 157.40 C 194.29 156.34 193.56 155.35 192.50 155.18 L 191.50 155.03 C 190.44 154.87 189.44 155.59 189.28 156.66 C 189.12 157.72 189.85 158.71 190.91 158.88 Z M 191.93 159.02 L 192.93 159.17 C 193.98 159.32 194.97 158.59 195.12 157.53 C 195.28 156.48 194.55 155.49 193.49 155.34 L 192.49 155.19 C 191.43 155.03 190.45 155.77 190.29 156.82 C 190.14 157.88 190.87 158.87 191.93 159.02 Z M 192.94 159.16 L 193.92 159.30 C 194.98 159.45 195.95 158.71 196.10 157.66 C 196.25 156.60 195.51 155.63 194.46 155.48 L 193.48 155.35 C 192.42 155.20 191.45 155.93 191.30 156.99 C 191.15 158.04 191.89 159.01 192.94 159.16 Z M 193.94 159.29 L 194.90 159.42 C 195.95 159.56 196.92 158.82 197.06 157.77 C 197.19 156.72 196.46 155.76 195.41 155.62 L 194.44 155.49 C 193.39 155.35 192.43 156.09 192.29 157.14 C 192.15 158.19 192.89 159.15 193.94 159.29 Z M 194.92 159.41 L 195.93 159.54 C 196.98 159.67 197.93 158.93 198.06 157.88 C 198.19 156.84 197.45 155.89 196.41 155.76 L 195.39 155.63 C 194.35 155.50 193.40 156.24 193.27 157.28 C 193.14 158.33 193.88 159.28 194.92 159.41 Z M 195.95 159.53 L 196.95 159.64 C 197.99 159.76 198.93 159.02 199.05 157.98 C 199.17 156.94 198.42 156.00 197.39 155.88 L 196.39 155.77 C 195.35 155.64 194.41 156.39 194.29 157.43 C 194.17 158.47 194.91 159.41 195.95 159.53 Z M 196.96 159.63 L 197.94 159.74 C 198.98 159.85 199.91 159.10 200.02 158.07 C 200.13 157.04 199.38 156.11 198.35 156.00 L 197.37 155.89 C 196.33 155.78 195.41 156.53 195.29 157.56 C 195.18 158.59 195.93 159.52 196.96 159.63 Z M 197.96 159.73 L 198.89 159.82 C 199.92 159.92 200.83 159.17 200.93 158.14 C 201.04 157.11 200.28 156.20 199.26 156.10 L 198.33 156.01 C 197.30 155.91 196.39 156.66 196.28 157.69 C 196.18 158.71 196.94 159.63 197.96 159.73 Z M 198.90 159.81 L 199.81 159.90 C 200.83 159.99 201.74 159.24 201.83 158.22 C 201.93 157.20 201.18 156.29 200.16 156.19 L 199.25 156.11 C 198.23 156.01 197.32 156.76 197.22 157.78 C 197.12 158.81 197.87 159.71 198.90 159.81 Z M 199.80 159.88 L 200.78 159.98 C 201.79 160.09 202.70 159.35 202.80 158.33 C 202.90 157.32 202.16 156.41 201.15 156.30 L 200.17 156.21 C 199.15 156.10 198.25 156.84 198.14 157.86 C 198.04 158.87 198.78 159.78 199.80 159.88 Z M 200.75 159.97 L 201.85 160.10 C 202.86 160.21 203.77 159.49 203.89 158.48 C 204.00 157.47 203.28 156.56 202.27 156.45 L 201.17 156.32 C 200.16 156.20 199.25 156.92 199.14 157.93 C 199.02 158.94 199.74 159.85 200.75 159.97 Z M 201.82 160.08 L 202.80 160.21 C 203.81 160.34 204.72 159.64 204.85 158.64 C 204.99 157.64 204.28 156.72 203.28 156.59 L 202.30 156.46 C 201.30 156.33 200.38 157.03 200.25 158.03 C 200.12 159.03 200.82 159.95 201.82 160.08 Z M 202.78 160.20 L 203.75 160.34 C 204.75 160.48 205.67 159.79 205.81 158.80 C 205.95 157.80 205.26 156.88 204.27 156.74 L 203.30 156.60 C 202.31 156.46 201.38 157.15 201.24 158.14 C 201.10 159.14 201.79 160.06 202.78 160.20 Z M 203.73 160.33 L 204.75 160.49 C 205.73 160.64 206.66 159.96 206.81 158.97 C 206.96 157.98 206.29 157.06 205.30 156.91 L 204.29 156.75 C 203.30 156.60 202.37 157.27 202.22 158.26 C 202.07 159.25 202.75 160.18 203.73 160.33 Z M 204.73 160.47 L 205.75 160.64 C 206.73 160.81 207.66 160.14 207.82 159.16 C 207.99 158.18 207.32 157.25 206.34 157.09 L 205.32 156.92 C 204.34 156.75 203.41 157.42 203.24 158.40 C 203.08 159.38 203.75 160.31 204.73 160.47 Z M 205.73 160.63 L 206.74 160.81 C 207.72 160.99 208.65 160.34 208.82 159.36 C 209.00 158.39 208.35 157.46 207.37 157.28 L 206.36 157.10 C 205.39 156.93 204.46 157.58 204.28 158.55 C 204.11 159.53 204.76 160.46 205.73 160.63 Z M 206.72 160.80 L 207.76 161.00 C 208.73 161.19 209.66 160.56 209.85 159.59 C 210.04 158.63 209.41 157.69 208.44 157.50 L 207.40 157.30 C 206.43 157.11 205.50 157.74 205.31 158.71 C 205.12 159.67 205.75 160.61 206.72 160.80 Z M 207.73 160.97 L 208.79 161.20 C 209.74 161.41 210.68 160.81 210.89 159.86 C 211.10 158.90 210.49 157.97 209.54 157.76 L 208.48 157.53 C 207.52 157.32 206.59 157.92 206.38 158.88 C 206.17 159.83 206.78 160.77 207.73 160.97 Z M 208.75 161.17 L 209.74 161.41 C 210.67 161.64 211.61 161.07 211.84 160.14 C 212.07 159.21 211.50 158.26 210.57 158.03 L 209.58 157.79 C 208.65 157.56 207.71 158.13 207.48 159.07 C 207.25 160.00 207.82 160.94 208.75 161.17 Z M 209.68 161.38 L 210.59 161.63 C 211.51 161.89 212.46 161.36 212.71 160.45 C 212.97 159.53 212.44 158.58 211.53 158.33 L 210.62 158.07 C 209.71 157.81 208.76 158.34 208.50 159.26 C 208.24 160.17 208.77 161.12 209.68 161.38 Z M 210.53 161.59 L 211.37 161.87 C 212.27 162.16 213.22 161.67 213.51 160.78 C 213.81 159.89 213.32 158.93 212.43 158.64 L 211.59 158.37 C 210.70 158.08 209.74 158.56 209.45 159.45 C 209.16 160.34 209.64 161.30 210.53 161.59 Z M 211.28 161.81 L 212.29 162.21 C 213.15 162.55 214.12 162.13 214.46 161.27 C 214.80 160.41 214.38 159.44 213.52 159.10 L 212.52 158.70 C 211.66 158.36 210.69 158.78 210.35 159.64 C 210.01 160.50 210.43 161.47 211.28 161.81 Z M 212.14 162.11 L 213.02 162.58 C 213.82 163.00 214.82 162.69 215.24 161.89 C 215.67 161.08 215.36 160.08 214.55 159.66 L 213.67 159.20 C 212.87 158.77 211.87 159.08 211.45 159.88 C 211.02 160.69 211.33 161.69 212.14 162.11 Z M 212.82 162.42 L 213.57 162.98 C 214.29 163.52 215.31 163.37 215.84 162.65 C 216.38 161.93 216.23 160.91 215.51 160.38 L 214.75 159.82 C 214.03 159.28 213.02 159.43 212.48 160.15 C 211.95 160.87 212.10 161.89 212.82 162.42 Z M 213.36 162.76 L 214.00 163.46 C 214.60 164.12 215.61 164.16 216.26 163.57 C 216.92 162.97 216.96 161.96 216.37 161.30 L 215.73 160.60 C 215.13 159.95 214.12 159.90 213.46 160.50 C 212.81 161.09 212.76 162.11 213.36 162.76 Z M 213.85 163.25 L 214.39 164.08 C 214.87 164.81 215.86 165.02 216.59 164.54 C 217.33 164.06 217.53 163.08 217.05 162.34 L 216.51 161.51 C 216.03 160.78 215.05 160.57 214.31 161.05 C 213.58 161.53 213.37 162.52 213.85 163.25 Z M 214.33 163.94 L 214.80 164.84 C 215.20 165.61 216.16 165.91 216.93 165.51 C 217.70 165.10 218.00 164.15 217.59 163.38 L 217.12 162.48 C 216.71 161.70 215.76 161.41 214.99 161.81 C 214.22 162.22 213.92 163.17 214.33 163.94 Z M 214.78 164.79 L 215.06 165.36 C 215.43 166.14 216.37 166.47 217.15 166.09 C 217.93 165.72 218.26 164.78 217.88 164.00 L 217.61 163.43 C 217.23 162.65 216.29 162.32 215.51 162.70 C 214.73 163.07 214.41 164.01 214.78 164.79 Z"
      fill="black"
      fill-rule="nonzero" /></svg>