<svg xmlns="http://www.w3.org/2000/svg" width="300" height="300" viewBox="0 0 300 300">
<path d="M 109.31 125.21 L 107.89 125.21 C 106.94 125.22 106.17 125.99 106.17 126.94 C 106.17 127.89 106.94 128.66 107.89 128.66 L 109.31 128.66 C 110.27 128.66 111.04 127.88 111.03 126.93 C 111.03 125.98 110.26 125.21 109.31 125.21 Z M 107.87 125.15 L 106.61 125.17 C 105.63 125.18 104.84 125.99 104.85 126.97 C 104.86 127.96 105.67 128.75 106.65 128.74 L 107.91 128.72 C 108.90 128.71 109.69 127.90 109.68 126.92 C 109.67 125.93 108.86 125.14 107.87 125.15 Z M 106.55 125.11 L 105.62 125.15 C 104.60 125.19 103.81 126.05 103.85 127.07 C 103.90 128.09 104.76 128.88 105.78 128.84 L 106.71 128.80 C 107.73 128.76 108.52 127.89 108.48 126.87 C 108.44 125.85 107.57 125.06 106.55 125.11 Z M 105.37 125.11 L 104.92 125.19 C 103.88 125.37 103.18 126.36 103.36 127.39 C 103.54 128.43 104.53 129.13 105.57 128.95 L 106.02 128.88 C 107.06 128.70 107.76 127.71 107.58 126.67 C 107.40 125.63 106.41 124.93 105.37 125.11 Z M 104.05 128.61 L 104.21 128.73 C 105.06 129.40 106.28 129.24 106.94 128.39 C 107.61 127.54 107.45 126.32 106.60 125.66 L 106.44 125.53 C 105.59 124.87 104.37 125.02 103.71 125.87 C 103.05 126.72 103.20 127.95 104.05 128.61 Z M 104.99 129.11 L 105.71 129.27 C 106.77 129.50 107.81 128.83 108.04 127.77 C 108.27 126.71 107.60 125.66 106.54 125.43 L 105.82 125.28 C 104.76 125.05 103.72 125.72 103.49 126.78 C 103.26 127.84 103.93 128.88 104.99 129.11 Z M 105.84 129.31 L 107.01 129.47 C 108.09 129.63 109.09 128.88 109.24 127.80 C 109.40 126.72 108.65 125.72 107.57 125.56 L 106.41 125.40 C 105.33 125.24 104.33 125.99 104.17 127.07 C 104.02 128.15 104.76 129.15 105.84 129.31 Z M 107.08 129.49 L 108.57 129.65 C 109.66 129.76 110.64 128.97 110.75 127.88 C 110.87 126.79 110.07 125.81 108.98 125.70 L 107.49 125.54 C 106.40 125.43 105.43 126.22 105.31 127.31 C 105.20 128.40 105.99 129.38 107.08 129.49 Z M 108.62 129.66 L 109.66 129.74 C 110.76 129.83 111.72 129.01 111.80 127.91 C 111.89 126.81 111.07 125.86 109.97 125.77 L 108.93 125.69 C 107.83 125.60 106.88 126.42 106.79 127.52 C 106.70 128.62 107.52 129.58 108.62 129.66 Z M 109.69 129.75 L 110.59 129.80 C 111.68 129.87 112.63 129.03 112.70 127.94 C 112.77 126.84 111.93 125.89 110.83 125.82 L 109.94 125.77 C 108.84 125.70 107.89 126.53 107.83 127.63 C 107.76 128.73 108.59 129.68 109.69 129.75 Z M 110.61 129.80 L 111.54 129.85 C 112.64 129.91 113.58 129.06 113.64 127.96 C 113.69 126.86 112.85 125.92 111.75 125.87 L 110.81 125.82 C 109.71 125.76 108.77 126.61 108.72 127.71 C 108.66 128.81 109.51 129.75 110.61 129.80 Z M 111.56 129.85 L 112.54 129.89 C 113.64 129.94 114.57 129.08 114.61 127.98 C 114.66 126.88 113.80 125.95 112.70 125.91 L 111.73 125.87 C 110.63 125.82 109.70 126.68 109.65 127.78 C 109.61 128.88 110.46 129.81 111.56 129.85 Z M 112.56 129.89 L 113.57 129.92 C 114.67 129.96 115.59 129.10 115.63 128.00 C 115.66 126.89 114.80 125.97 113.70 125.94 L 112.68 125.90 C 111.58 125.87 110.66 126.73 110.63 127.83 C 110.59 128.94 111.46 129.86 112.56 129.89 Z M 113.58 129.93 L 114.63 129.95 C 115.73 129.98 116.65 129.11 116.67 128.01 C 116.70 126.91 115.83 125.99 114.73 125.96 L 113.68 125.94 C 112.58 125.91 111.67 126.78 111.64 127.88 C 111.61 128.98 112.48 129.90 113.58 129.93 Z M 114.64 129.95 L 115.72 129.97 C 116.82 130.00 117.73 129.12 117.75 128.02 C 117.78 126.92 116.90 126.01 115.80 125.98 L 114.72 125.96 C 113.62 125.94 112.71 126.82 112.69 127.92 C 112.66 129.02 113.54 129.93 114.64 129.95 Z M 115.73 129.97 L 116.84 129.99 C 117.94 130.01 118.85 129.13 118.86 128.03 C 118.88 126.92 118.00 126.02 116.90 126.00 L 115.79 125.98 C 114.69 125.97 113.78 126.85 113.76 127.95 C 113.75 129.05 114.63 129.96 115.73 129.97 Z M 116.84 129.99 L 117.91 130.00 C 119.02 130.02 119.92 129.13 119.93 128.03 C 119.95 126.93 119.06 126.03 117.96 126.01 L 116.89 126.00 C 115.79 125.99 114.89 126.87 114.87 127.97 C 114.86 129.07 115.74 129.98 116.84 129.99 Z M 117.92 130.00 L 118.96 130.01 C 120.06 130.02 120.97 129.14 120.98 128.03 C 120.98 126.93 120.10 126.03 119.00 126.02 L 117.96 126.01 C 116.85 126.00 115.95 126.89 115.94 127.99 C 115.93 129.09 116.82 129.99 117.92 130.00 Z M 118.97 130.01 L 120.02 130.02 C 121.12 130.02 122.02 129.14 122.02 128.03 C 122.03 126.93 121.14 126.03 120.04 126.03 L 118.99 126.02 C 117.89 126.02 116.99 126.90 116.99 128.01 C 116.98 129.11 117.87 130.01 118.97 130.01 Z M 120.03 130.02 L 121.07 130.02 C 122.17 130.02 123.07 129.13 123.07 128.03 C 123.08 126.93 122.18 126.03 121.08 126.03 L 120.03 126.03 C 118.93 126.03 118.04 126.92 118.03 128.02 C 118.03 129.12 118.92 130.02 120.03 130.02 Z M 121.08 130.02 L 122.12 130.02 C 123.22 130.02 124.11 129.12 124.11 128.02 C 124.11 126.92 123.21 126.03 122.11 126.03 L 121.08 126.03 C 119.97 126.03 119.08 126.93 119.08 128.03 C 119.08 129.13 119.98 130.02 121.08 130.02 Z M 122.13 130.02 L 123.14 130.01 C 124.24 130.01 125.13 129.11 125.13 128.01 C 125.12 126.91 124.22 126.02 123.12 126.02 L 122.10 126.03 C 121.00 126.04 120.11 126.93 120.12 128.03 C 120.13 129.14 121.02 130.02 122.13 130.02 Z M 123.15 130.01 L 124.14 130.00 C 125.24 129.99 126.13 129.09 126.12 127.99 C 126.11 126.89 125.20 126.00 124.10 126.01 L 123.11 126.02 C 122.01 126.04 121.13 126.94 121.14 128.04 C 121.15 129.14 122.05 130.02 123.15 130.01 Z M 124.15 130.00 L 125.10 129.99 C 126.20 129.97 127.08 129.07 127.07 127.96 C 127.05 126.86 126.14 125.98 125.04 126.00 L 124.09 126.01 C 122.99 126.03 122.11 126.94 122.13 128.04 C 122.14 129.14 123.05 130.02 124.15 130.00 Z M 125.12 129.99 L 126.02 129.97 C 127.12 129.95 128.00 129.03 127.97 127.93 C 127.95 126.83 127.04 125.96 125.94 125.98 L 125.03 126.00 C 123.93 126.02 123.06 126.94 123.08 128.04 C 123.10 129.14 124.01 130.01 125.12 129.99 Z M 126.04 129.97 L 127.11 129.94 C 128.21 129.90 129.07 128.98 129.04 127.88 C 129.00 126.78 128.09 125.92 126.99 125.95 L 125.92 125.98 C 124.82 126.02 123.95 126.93 123.99 128.04 C 124.02 129.14 124.94 130.00 126.04 129.97 Z M 127.13 129.93 L 128.27 129.88 C 129.37 129.84 130.22 128.91 130.17 127.81 C 130.13 126.71 129.20 125.86 128.10 125.90 L 126.96 125.95 C 125.86 126.00 125.01 126.93 125.06 128.03 C 125.10 129.13 126.03 129.98 127.13 129.93 Z M 128.30 129.88 L 129.34 129.82 C 130.43 129.76 131.27 128.82 131.21 127.72 C 131.15 126.62 130.20 125.78 129.11 125.85 L 128.07 125.91 C 126.97 125.97 126.13 126.91 126.20 128.01 C 126.26 129.11 127.20 129.94 128.30 129.88 Z M 129.37 129.82 L 130.34 129.74 C 131.43 129.66 132.25 128.71 132.17 127.61 C 132.09 126.52 131.13 125.70 130.04 125.78 L 129.07 125.85 C 127.98 125.93 127.16 126.89 127.24 127.98 C 127.32 129.08 128.28 129.90 129.37 129.82 Z M 130.37 129.74 L 131.28 129.66 C 132.37 129.55 133.18 128.59 133.08 127.50 C 132.97 126.40 132.01 125.60 130.92 125.70 L 130.01 125.79 C 128.91 125.89 128.11 126.85 128.21 127.94 C 128.31 129.04 129.28 129.84 130.37 129.74 Z M 131.31 129.65 L 132.19 129.55 C 133.28 129.44 134.07 128.46 133.95 127.37 C 133.83 126.28 132.85 125.49 131.76 125.61 L 130.88 125.71 C 129.79 125.83 129.01 126.80 129.13 127.89 C 129.25 128.98 130.22 129.77 131.31 129.65 Z M 132.22 129.55 L 133.14 129.43 C 134.23 129.30 135.00 128.31 134.86 127.22 C 134.73 126.14 133.74 125.37 132.65 125.50 L 131.73 125.62 C 130.65 125.75 129.88 126.74 130.01 127.83 C 130.15 128.91 131.14 129.68 132.22 129.55 Z M 133.17 129.43 L 134.16 129.29 C 135.25 129.14 136.00 128.14 135.85 127.06 C 135.70 125.97 134.70 125.22 133.62 125.37 L 132.63 125.51 C 131.54 125.66 130.79 126.66 130.94 127.74 C 131.09 128.82 132.09 129.58 133.17 129.43 Z M 134.19 129.28 L 135.18 129.13 C 136.26 128.97 137.00 127.96 136.84 126.88 C 136.67 125.80 135.66 125.06 134.58 125.22 L 133.59 125.38 C 132.51 125.54 131.77 126.55 131.94 127.63 C 132.10 128.71 133.11 129.45 134.19 129.28 Z M 135.21 129.13 L 136.19 128.96 C 137.27 128.78 138.00 127.77 137.82 126.69 C 137.64 125.62 136.62 124.89 135.55 125.07 L 134.56 125.23 C 133.48 125.41 132.76 126.43 132.94 127.50 C 133.11 128.58 134.13 129.30 135.21 129.13 Z M 136.21 128.96 L 137.20 128.78 C 138.27 128.59 138.98 127.57 138.79 126.50 C 138.60 125.42 137.58 124.71 136.51 124.90 L 135.53 125.07 C 134.45 125.26 133.74 126.29 133.93 127.36 C 134.12 128.43 135.14 129.15 136.21 128.96 Z M 137.22 128.78 L 138.19 128.59 C 139.26 128.39 139.97 127.36 139.77 126.29 C 139.56 125.22 138.54 124.52 137.47 124.72 L 136.49 124.90 C 135.42 125.11 134.72 126.13 134.92 127.20 C 135.12 128.27 136.15 128.98 137.22 128.78 Z M 138.21 128.59 L 139.19 128.39 C 140.25 128.18 140.94 127.15 140.73 126.09 C 140.53 125.02 139.49 124.33 138.43 124.54 L 137.45 124.73 C 136.38 124.94 135.69 125.97 135.90 127.04 C 136.11 128.10 137.14 128.80 138.21 128.59 Z M 139.20 128.39 L 140.17 128.19 C 141.23 127.97 141.92 126.94 141.70 125.87 C 141.48 124.81 140.45 124.13 139.39 124.34 L 138.41 124.54 C 137.35 124.76 136.67 125.79 136.88 126.86 C 137.10 127.92 138.14 128.60 139.20 128.39 Z M 140.18 128.18 L 141.15 127.98 C 142.21 127.76 142.89 126.72 142.67 125.66 C 142.45 124.60 141.41 123.93 140.35 124.15 L 139.38 124.35 C 138.32 124.57 137.64 125.61 137.86 126.67 C 138.08 127.73 139.12 128.40 140.18 128.18 Z M 141.16 127.98 L 142.14 127.77 C 143.19 127.55 143.87 126.51 143.65 125.45 C 143.42 124.40 142.39 123.72 141.33 123.94 L 140.35 124.15 C 139.29 124.37 138.62 125.41 138.84 126.47 C 139.06 127.52 140.10 128.20 141.16 127.98 Z M 142.13 127.77 L 143.12 127.56 C 144.18 127.34 144.86 126.30 144.63 125.25 C 144.41 124.19 143.38 123.52 142.32 123.74 L 141.33 123.95 C 140.28 124.17 139.60 125.20 139.82 126.26 C 140.04 127.31 141.08 127.99 142.13 127.77 Z M 143.12 127.56 L 144.00 127.37 C 145.06 127.15 145.73 126.12 145.51 125.07 C 145.30 124.02 144.26 123.34 143.21 123.56 L 142.33 123.74 C 141.27 123.96 140.60 124.99 140.82 126.05 C 141.04 127.10 142.07 127.78 143.12 127.56 Z M 144.00 127.37 L 144.88 127.19 C 145.93 126.97 146.61 125.94 146.39 124.89 C 146.17 123.84 145.14 123.16 144.09 123.38 L 143.21 123.56 C 142.16 123.78 141.49 124.81 141.70 125.86 C 141.92 126.91 142.95 127.59 144.00 127.37 Z M 144.89 127.18 L 145.80 126.99 C 146.85 126.77 147.53 125.74 147.30 124.69 C 147.08 123.64 146.05 122.97 145.01 123.19 L 144.09 123.38 C 143.04 123.60 142.37 124.63 142.59 125.68 C 142.81 126.73 143.84 127.40 144.89 127.18 Z M 145.81 126.98 L 146.78 126.78 C 147.83 126.55 148.49 125.52 148.27 124.47 C 148.04 123.43 147.01 122.76 145.96 122.99 L 145.00 123.20 C 143.95 123.42 143.29 124.45 143.51 125.50 C 143.74 126.54 144.77 127.21 145.81 126.98 Z M 146.79 126.77 L 147.82 126.54 C 148.87 126.31 149.52 125.27 149.29 124.23 C 149.06 123.19 148.03 122.53 146.98 122.76 L 145.95 122.99 C 144.91 123.23 144.25 124.26 144.48 125.30 C 144.72 126.34 145.75 127.00 146.79 126.77 Z M 147.84 126.53 L 148.95 126.28 C 149.99 126.04 150.64 125.00 150.40 123.96 C 150.16 122.92 149.12 122.27 148.08 122.51 L 146.97 122.77 C 145.93 123.01 145.28 124.05 145.52 125.09 C 145.76 126.13 146.80 126.77 147.84 126.53 Z M 148.96 126.27 L 149.94 126.04 C 150.97 125.79 151.61 124.75 151.36 123.71 C 151.12 122.68 150.08 122.04 149.04 122.29 L 148.07 122.52 C 147.03 122.77 146.39 123.81 146.64 124.84 C 146.89 125.88 147.93 126.52 148.96 126.27 Z M 149.95 126.03 L 150.83 125.81 C 151.87 125.56 152.50 124.52 152.24 123.49 C 151.99 122.46 150.95 121.82 149.92 122.08 L 149.03 122.29 C 148.00 122.55 147.37 123.59 147.62 124.62 C 147.87 125.65 148.91 126.28 149.95 126.03 Z M 150.84 125.81 L 151.76 125.58 C 152.79 125.32 153.42 124.28 153.17 123.25 C 152.91 122.22 151.87 121.60 150.84 121.85 L 149.91 122.08 C 148.88 122.34 148.26 123.38 148.51 124.41 C 148.77 125.44 149.81 126.07 150.84 125.81 Z M 151.77 125.58 L 152.73 125.34 C 153.75 125.08 154.38 124.04 154.12 123.01 C 153.86 121.98 152.82 121.36 151.79 121.62 L 150.83 121.86 C 149.81 122.11 149.18 123.16 149.44 124.18 C 149.70 125.21 150.74 125.83 151.77 125.58 Z M 152.73 125.33 L 153.71 125.08 C 154.74 124.83 155.36 123.78 155.10 122.76 C 154.84 121.73 153.80 121.11 152.77 121.37 L 151.79 121.62 C 150.76 121.88 150.14 122.92 150.40 123.94 C 150.66 124.97 151.70 125.59 152.73 125.33 Z M 153.71 125.08 L 154.71 124.83 C 155.74 124.57 156.36 123.53 156.10 122.51 C 155.84 121.48 154.80 120.86 153.78 121.12 L 152.77 121.37 C 151.75 121.63 151.13 122.67 151.39 123.70 C 151.65 124.72 152.69 125.34 153.71 125.08 Z M 154.71 124.83 L 155.73 124.57 C 156.75 124.31 157.37 123.28 157.11 122.25 C 156.86 121.23 155.82 120.61 154.80 120.87 L 153.78 121.12 C 152.76 121.38 152.14 122.42 152.39 123.44 C 152.65 124.46 153.69 125.08 154.71 124.83 Z M 155.72 124.57 L 156.75 124.31 C 157.77 124.06 158.39 123.02 158.14 122.00 C 157.88 120.98 156.85 120.36 155.83 120.61 L 154.80 120.87 C 153.78 121.12 153.16 122.16 153.41 123.18 C 153.67 124.20 154.70 124.82 155.72 124.57 Z M 156.74 124.31 L 157.77 124.06 C 158.79 123.81 159.41 122.77 159.16 121.75 C 158.91 120.73 157.88 120.11 156.86 120.36 L 155.83 120.62 C 154.81 120.87 154.19 121.90 154.44 122.92 C 154.69 123.94 155.72 124.56 156.74 124.31 Z M 157.76 124.06 L 158.77 123.81 C 159.79 123.56 160.41 122.54 160.16 121.52 C 159.92 120.50 158.89 119.87 157.87 120.12 L 156.87 120.36 C 155.85 120.61 155.22 121.64 155.47 122.66 C 155.72 123.68 156.74 124.30 157.76 124.06 Z M 158.76 123.81 L 159.75 123.57 C 160.77 123.33 161.40 122.31 161.15 121.29 C 160.91 120.27 159.89 119.65 158.87 119.89 L 157.88 120.12 C 156.86 120.37 156.23 121.39 156.48 122.41 C 156.72 123.42 157.74 124.05 158.76 123.81 Z M 159.74 123.57 L 160.73 123.34 C 161.74 123.10 162.38 122.08 162.14 121.07 C 161.90 120.05 160.89 119.42 159.87 119.66 L 158.88 119.89 C 157.87 120.13 157.24 121.14 157.47 122.16 C 157.71 123.17 158.73 123.80 159.74 123.57 Z M 160.72 123.33 L 161.70 123.11 C 162.72 122.88 163.35 121.87 163.12 120.85 C 162.89 119.84 161.88 119.21 160.86 119.44 L 159.88 119.66 C 158.87 119.90 158.24 120.90 158.47 121.92 C 158.70 122.93 159.71 123.56 160.72 123.33 Z M 161.69 123.10 L 162.67 122.89 C 163.68 122.66 164.32 121.66 164.09 120.65 C 163.87 119.64 162.86 119.00 161.85 119.23 L 160.87 119.44 C 159.86 119.67 159.23 120.67 159.45 121.68 C 159.68 122.69 160.68 123.33 161.69 123.10 Z M 162.66 122.88 L 163.63 122.67 C 164.64 122.45 165.28 121.46 165.06 120.45 C 164.84 119.44 163.84 118.80 162.84 119.02 L 161.86 119.23 C 160.86 119.45 160.22 120.44 160.43 121.45 C 160.65 122.46 161.65 123.10 162.66 122.88 Z M 163.62 122.67 L 164.58 122.46 C 165.59 122.25 166.24 121.26 166.02 120.26 C 165.81 119.25 164.82 118.60 163.81 118.82 L 162.85 119.02 C 161.84 119.23 161.20 120.22 161.41 121.23 C 161.62 122.24 162.61 122.88 163.62 122.67 Z M 164.57 122.46 L 165.53 122.26 C 166.54 122.06 167.19 121.08 166.98 120.07 C 166.78 119.07 165.79 118.42 164.79 118.62 L 163.83 118.82 C 162.82 119.03 162.17 120.01 162.38 121.01 C 162.59 122.02 163.57 122.67 164.57 122.46 Z M 165.52 122.26 L 166.48 122.07 C 167.48 121.87 168.13 120.90 167.93 119.90 C 167.73 118.89 166.76 118.24 165.76 118.44 L 164.80 118.63 C 163.80 118.83 163.15 119.80 163.35 120.80 C 163.54 121.81 164.52 122.46 165.52 122.26 Z M 166.46 122.07 L 167.43 121.88 C 168.43 121.69 169.09 120.73 168.90 119.73 C 168.71 118.72 167.74 118.07 166.74 118.26 L 165.77 118.44 C 164.77 118.63 164.11 119.60 164.30 120.60 C 164.49 121.60 165.46 122.26 166.46 122.07 Z M 167.41 121.88 L 168.38 121.70 C 169.38 121.52 170.04 120.57 169.86 119.57 C 169.68 118.57 168.72 117.90 167.72 118.09 L 166.75 118.26 C 165.75 118.44 165.09 119.40 165.27 120.40 C 165.46 121.40 166.41 122.06 167.41 121.88 Z M 168.36 121.70 L 169.33 121.53 C 170.33 121.36 171.00 120.41 170.83 119.42 C 170.65 118.42 169.71 117.75 168.71 117.92 L 167.74 118.09 C 166.74 118.26 166.07 119.21 166.24 120.21 C 166.42 121.20 167.37 121.87 168.36 121.70 Z M 169.31 121.53 L 170.28 121.37 C 171.28 121.21 171.96 120.27 171.79 119.28 C 171.63 118.28 170.69 117.60 169.70 117.77 L 168.73 117.92 C 167.73 118.09 167.05 119.02 167.22 120.02 C 167.38 121.02 168.32 121.69 169.31 121.53 Z M 170.26 121.37 L 171.24 121.22 C 172.23 121.07 172.92 120.14 172.77 119.15 C 172.62 118.15 171.69 117.47 170.69 117.62 L 169.72 117.77 C 168.72 117.92 168.04 118.85 168.19 119.84 C 168.34 120.84 169.27 121.52 170.26 121.37 Z M 171.22 121.22 L 172.21 121.08 C 173.20 120.94 173.89 120.03 173.75 119.03 C 173.61 118.04 172.70 117.35 171.70 117.49 L 170.72 117.62 C 169.72 117.76 169.03 118.68 169.17 119.67 C 169.31 120.67 170.23 121.36 171.22 121.22 Z M 172.18 121.08 L 173.18 120.95 C 174.17 120.82 174.88 119.92 174.75 118.93 C 174.62 117.94 173.72 117.23 172.72 117.36 L 171.73 117.49 C 170.73 117.62 170.03 118.52 170.16 119.51 C 170.29 120.50 171.19 121.21 172.18 121.08 Z M 173.16 120.95 L 174.18 120.83 C 175.17 120.72 175.88 119.82 175.76 118.83 C 175.65 117.84 174.75 117.13 173.76 117.25 L 172.75 117.36 C 171.76 117.48 171.05 118.37 171.16 119.36 C 171.28 120.35 172.17 121.06 173.16 120.95 Z M 174.15 120.83 L 175.19 120.72 C 176.18 120.62 176.89 119.74 176.79 118.75 C 176.69 117.76 175.81 117.04 174.82 117.14 L 173.79 117.25 C 172.80 117.35 172.08 118.24 172.18 119.22 C 172.28 120.21 173.17 120.93 174.15 120.83 Z M 175.17 120.72 L 176.20 120.62 C 177.18 120.54 177.91 119.66 177.82 118.68 C 177.73 117.69 176.86 116.97 175.88 117.06 L 174.84 117.15 C 173.86 117.24 173.13 118.11 173.22 119.09 C 173.31 120.08 174.18 120.81 175.17 120.72 Z M 176.18 120.62 L 177.22 120.54 C 178.20 120.46 178.94 119.60 178.86 118.62 C 178.79 117.64 177.93 116.90 176.94 116.98 L 175.90 117.06 C 174.92 117.14 174.18 117.99 174.26 118.98 C 174.33 119.96 175.19 120.70 176.18 120.62 Z M 177.20 120.54 L 178.24 120.47 C 179.23 120.40 179.97 119.56 179.91 118.58 C 179.84 117.60 179.00 116.85 178.01 116.91 L 176.97 116.98 C 175.99 117.05 175.24 117.89 175.31 118.87 C 175.37 119.86 176.22 120.60 177.20 120.54 Z M 178.22 120.46 L 179.26 120.41 C 180.24 120.36 181.00 119.53 180.95 118.55 C 180.90 117.57 180.06 116.82 179.08 116.87 L 178.04 116.92 C 177.06 116.97 176.31 117.80 176.36 118.78 C 176.41 119.76 177.24 120.51 178.22 120.46 Z M 179.24 120.40 L 180.27 120.37 C 181.25 120.33 182.01 119.51 181.97 118.53 C 181.94 117.56 181.11 116.80 180.14 116.83 L 179.11 116.87 C 178.13 116.91 177.37 117.73 177.41 118.70 C 177.44 119.68 178.26 120.44 179.24 120.40 Z M 180.24 120.36 L 181.25 120.34 C 182.22 120.32 183.00 119.51 182.97 118.54 C 182.95 117.57 182.15 116.79 181.18 116.82 L 180.17 116.84 C 179.19 116.86 178.42 117.66 178.44 118.64 C 178.46 119.61 179.27 120.38 180.24 120.36 Z M 181.22 120.33 L 182.20 120.33 C 183.17 120.33 183.95 119.54 183.95 118.57 C 183.94 117.60 183.15 116.81 182.18 116.82 L 181.21 116.82 C 180.24 116.83 179.45 117.61 179.46 118.58 C 179.46 119.55 180.25 120.34 181.22 120.33 Z M 182.16 120.32 L 183.10 120.34 C 184.07 120.36 184.86 119.58 184.88 118.62 C 184.89 117.65 184.12 116.85 183.16 116.84 L 182.22 116.82 C 181.25 116.81 180.45 117.58 180.44 118.55 C 180.42 119.51 181.19 120.31 182.16 120.32 Z M 183.06 120.33 L 183.95 120.37 C 184.91 120.41 185.72 119.66 185.76 118.69 C 185.80 117.73 185.05 116.92 184.08 116.88 L 183.20 116.85 C 182.23 116.81 181.42 117.56 181.38 118.52 C 181.34 119.48 182.09 120.29 183.06 120.33 Z M 183.89 120.35 L 185.03 120.44 C 185.99 120.51 186.82 119.79 186.89 118.84 C 186.96 117.88 186.24 117.05 185.29 116.98 L 184.14 116.89 C 183.19 116.82 182.35 117.54 182.28 118.50 C 182.21 119.45 182.93 120.28 183.89 120.35 Z M 184.96 120.42 L 186.06 120.54 C 187.00 120.65 187.85 119.98 187.96 119.03 C 188.07 118.09 187.39 117.24 186.45 117.13 L 185.36 117.00 C 184.42 116.89 183.56 117.57 183.45 118.51 C 183.35 119.45 184.02 120.31 184.96 120.42 Z M 185.99 120.52 L 186.99 120.68 C 187.92 120.82 188.79 120.19 188.94 119.26 C 189.09 118.33 188.45 117.46 187.52 117.31 L 186.52 117.15 C 185.59 117.01 184.72 117.64 184.57 118.57 C 184.43 119.50 185.06 120.37 185.99 120.52 Z M 186.93 120.65 L 187.87 120.83 C 188.78 121.01 189.67 120.41 189.85 119.50 C 190.03 118.59 189.43 117.70 188.52 117.52 L 187.58 117.34 C 186.67 117.16 185.78 117.76 185.60 118.67 C 185.43 119.58 186.02 120.47 186.93 120.65 Z M 187.83 120.81 L 188.72 121.01 C 189.61 121.21 190.51 120.64 190.71 119.75 C 190.91 118.85 190.35 117.95 189.45 117.75 L 188.56 117.55 C 187.66 117.35 186.77 117.91 186.57 118.81 C 186.36 119.71 186.93 120.60 187.83 120.81 Z M 188.69 120.98 L 189.55 121.19 C 190.44 121.41 191.33 120.87 191.55 119.98 C 191.77 119.09 191.22 118.20 190.34 117.98 L 189.48 117.77 C 188.59 117.56 187.69 118.10 187.48 118.99 C 187.26 119.87 187.80 120.77 188.69 120.98 Z M 189.55 121.18 L 189.83 121.25 C 190.71 121.47 191.60 120.94 191.82 120.06 C 192.04 119.18 191.51 118.29 190.63 118.07 L 190.34 118.00 C 189.46 117.78 188.57 118.31 188.35 119.19 C 188.13 120.07 188.67 120.96 189.55 121.18 Z"
      fill="black"
      fill-rule="nonzero" /><path d="M 137.31 167.30 L 135.93 167.30 C 134.96 167.30 134.18 168.08 134.18 169.05 C 134.18 170.01 134.96 170.80 135.93 170.80 L 137.31 170.80 C 138.28 170.80 139.06 170.01 139.06 169.05 C 139.06 168.08 138.28 167.30 137.31 167.30 Z M 135.93 167.29 L 134.62 167.29 C 133.64 167.29 132.85 168.07 132.85 169.05 C 132.85 170.02 133.64 170.81 134.62 170.81 L 135.93 170.81 C 136.90 170.81 137.69 170.02 137.69 169.05 C 137.69 168.07 136.90 167.29 135.93 167.29 Z M 134.62 167.27 L 133.47 167.27 C 132.49 167.27 131.69 168.07 131.69 169.05 C 131.69 170.03 132.49 170.83 133.47 170.83 L 134.62 170.83 C 135.60 170.83 136.40 170.03 136.40 169.05 C 136.40 168.07 135.60 167.27 134.62 167.27 Z M 133.47 167.25 L 132.56 167.25 C 131.56 167.25 130.76 168.06 130.76 169.05 C 130.76 170.04 131.56 170.84 132.56 170.84 L 133.47 170.84 C 134.46 170.84 135.26 170.04 135.26 169.05 C 135.26 168.06 134.46 167.25 133.47 167.25 Z M 132.56 167.24 L 131.96 167.24 C 130.96 167.24 130.15 168.05 130.15 169.05 C 130.15 170.05 130.96 170.86 131.96 170.86 L 132.56 170.86 C 133.56 170.86 134.37 170.05 134.37 169.05 C 134.37 168.05 133.56 167.24 132.56 167.24 Z M 131.96 167.22 L 131.77 167.22 C 130.76 167.22 129.94 168.04 129.94 169.05 C 129.94 170.06 130.76 170.87 131.77 170.87 L 131.96 170.87 C 132.97 170.87 133.78 170.06 133.78 169.05 C 133.78 168.04 132.97 167.22 131.96 167.22 Z M 131.77 170.88 L 132.29 170.88 C 133.30 170.88 134.12 170.06 134.12 169.05 C 134.12 168.04 133.30 167.22 132.29 167.22 L 131.77 167.22 C 130.76 167.22 129.94 168.04 129.94 169.05 C 129.94 170.06 130.76 170.88 131.77 170.88 Z M 132.29 170.87 L 133.40 170.87 C 134.41 170.87 135.23 170.06 135.23 169.05 C 135.23 168.04 134.41 167.22 133.40 167.22 L 132.29 167.22 C 131.28 167.22 130.47 168.04 130.47 169.05 C 130.47 170.06 131.28 170.87 132.29 170.87 Z M 133.40 170.87 L 134.83 170.87 C 135.83 170.87 136.65 170.06 136.65 169.05 C 136.65 168.04 135.83 167.23 134.83 167.23 L 133.40 167.23 C 132.39 167.23 131.58 168.04 131.58 169.05 C 131.58 170.06 132.39 170.87 133.40 170.87 Z M 134.83 170.87 L 135.91 170.87 C 136.91 170.87 137.73 170.05 137.73 169.05 C 137.73 168.04 136.91 167.23 135.91 167.23 L 134.83 167.23 C 133.82 167.23 133.01 168.05 133.01 169.05 C 133.01 170.05 133.82 170.87 134.83 170.87 Z M 135.91 170.86 L 136.90 170.85 C 137.90 170.85 138.71 170.04 138.71 169.05 C 138.71 168.05 137.90 167.24 136.90 167.24 L 135.91 167.24 C 134.91 167.24 134.10 168.05 134.10 169.05 C 134.10 170.05 134.91 170.86 135.91 170.86 Z M 136.91 170.84 L 137.90 170.84 C 138.89 170.84 139.69 170.03 139.69 169.04 C 139.69 168.05 138.88 167.24 137.89 167.25 L 136.89 167.25 C 135.90 167.25 135.10 168.06 135.10 169.05 C 135.11 170.05 135.91 170.85 136.91 170.84 Z M 137.91 170.83 L 138.91 170.82 C 139.89 170.81 140.69 170.01 140.68 169.02 C 140.67 168.04 139.87 167.25 138.88 167.25 L 137.88 167.26 C 136.89 167.27 136.10 168.07 136.11 169.06 C 136.12 170.04 136.92 170.84 137.91 170.83 Z M 138.91 170.81 L 139.92 170.80 C 140.90 170.79 141.69 169.98 141.68 169.00 C 141.67 168.02 140.86 167.24 139.88 167.25 L 138.87 167.26 C 137.89 167.27 137.11 168.08 137.12 169.06 C 137.13 170.04 137.94 170.82 138.91 170.81 Z M 139.94 170.79 L 140.94 170.77 C 141.92 170.75 142.69 169.95 142.68 168.98 C 142.66 168.00 141.86 167.23 140.88 167.25 L 139.87 167.26 C 138.90 167.28 138.12 168.08 138.14 169.06 C 138.16 170.03 138.96 170.80 139.94 170.79 Z M 140.96 170.76 L 141.93 170.73 C 142.90 170.71 143.66 169.91 143.64 168.94 C 143.62 167.97 142.81 167.21 141.85 167.23 L 140.87 167.26 C 139.90 167.28 139.14 168.08 139.16 169.05 C 139.19 170.02 139.99 170.78 140.96 170.76 Z M 141.95 170.72 L 142.94 170.69 C 143.90 170.66 144.65 169.85 144.62 168.89 C 144.58 167.93 143.78 167.17 142.82 167.21 L 141.83 167.24 C 140.87 167.28 140.12 168.08 140.15 169.04 C 140.18 170.01 140.99 170.76 141.95 170.72 Z M 142.96 170.68 L 143.96 170.63 C 144.91 170.59 145.65 169.77 145.60 168.82 C 145.56 167.86 144.75 167.13 143.79 167.17 L 142.79 167.22 C 141.84 167.27 141.10 168.08 141.15 169.03 C 141.19 169.99 142.00 170.72 142.96 170.68 Z M 143.98 170.62 L 144.99 170.55 C 145.94 170.49 146.66 169.68 146.60 168.73 C 146.54 167.78 145.72 167.06 144.77 167.12 L 143.76 167.18 C 142.82 167.24 142.10 168.06 142.16 169.01 C 142.22 169.96 143.03 170.68 143.98 170.62 Z M 145.02 170.54 L 146.04 170.46 C 146.98 170.38 147.68 169.55 147.60 168.61 C 147.52 167.67 146.70 166.97 145.75 167.05 L 144.74 167.13 C 143.80 167.21 143.10 168.04 143.18 168.98 C 143.25 169.92 144.08 170.62 145.02 170.54 Z M 146.07 170.44 L 147.08 170.34 C 148.01 170.24 148.69 169.41 148.60 168.47 C 148.50 167.54 147.66 166.86 146.73 166.96 L 145.72 167.06 C 144.78 167.16 144.11 168.00 144.20 168.93 C 144.30 169.86 145.14 170.54 146.07 170.44 Z M 147.11 170.32 L 148.10 170.20 C 149.03 170.08 149.68 169.24 149.57 168.31 C 149.45 167.39 148.61 166.73 147.68 166.85 L 146.69 166.97 C 145.77 167.09 145.11 167.93 145.23 168.86 C 145.34 169.78 146.19 170.44 147.11 170.32 Z M 148.13 170.19 L 149.12 170.04 C 150.04 169.91 150.67 169.06 150.54 168.15 C 150.41 167.23 149.56 166.59 148.64 166.72 L 147.65 166.86 C 146.74 166.99 146.10 167.84 146.23 168.76 C 146.36 169.68 147.21 170.32 148.13 170.19 Z M 149.14 170.03 L 150.13 169.88 C 151.04 169.74 151.66 168.88 151.52 167.97 C 151.38 167.06 150.53 166.44 149.62 166.58 L 148.63 166.74 C 147.72 166.88 147.09 167.73 147.23 168.64 C 147.37 169.55 148.23 170.17 149.14 170.03 Z M 150.14 169.86 L 151.13 169.70 C 152.03 169.56 152.64 168.71 152.50 167.80 C 152.35 166.90 151.50 166.29 150.60 166.43 L 149.61 166.59 C 148.70 166.74 148.09 167.59 148.24 168.50 C 148.38 169.40 149.24 170.01 150.14 169.86 Z M 151.13 169.69 L 152.12 169.53 C 153.02 169.38 153.62 168.53 153.48 167.63 C 153.33 166.74 152.48 166.13 151.58 166.28 L 150.59 166.45 C 149.70 166.59 149.09 167.44 149.24 168.34 C 149.39 169.23 150.24 169.84 151.13 169.69 Z M 152.12 169.52 L 153.11 169.35 C 154.00 169.21 154.60 168.37 154.45 167.48 C 154.31 166.58 153.46 165.98 152.57 166.13 L 151.59 166.29 C 150.70 166.44 150.09 167.28 150.24 168.17 C 150.39 169.06 151.23 169.66 152.12 169.52 Z M 153.10 169.35 L 154.10 169.19 C 154.99 169.04 155.59 168.21 155.45 167.32 C 155.31 166.44 154.47 165.83 153.59 165.98 L 152.58 166.14 C 151.70 166.28 151.09 167.11 151.24 168.00 C 151.38 168.89 152.21 169.49 153.10 169.35 Z M 154.09 169.18 L 155.09 169.02 C 155.97 168.89 156.58 168.06 156.44 167.18 C 156.30 166.29 155.48 165.69 154.59 165.83 L 153.60 165.98 C 152.71 166.12 152.11 166.95 152.25 167.83 C 152.38 168.71 153.21 169.32 154.09 169.18 Z M 155.08 169.02 L 156.07 168.87 C 156.95 168.74 157.56 167.92 157.42 167.04 C 157.29 166.16 156.47 165.55 155.59 165.68 L 154.60 165.83 C 153.72 165.97 153.12 166.79 153.25 167.66 C 153.38 168.54 154.20 169.15 155.08 169.02 Z M 156.06 168.86 L 157.05 168.72 C 157.92 168.59 158.53 167.78 158.40 166.90 C 158.28 166.03 157.46 165.42 156.59 165.55 L 155.60 165.69 C 154.73 165.82 154.12 166.63 154.25 167.51 C 154.37 168.38 155.19 168.99 156.06 168.86 Z M 157.04 168.71 L 158.02 168.58 C 158.89 168.45 159.50 167.65 159.38 166.78 C 159.25 165.90 158.45 165.30 157.58 165.42 L 156.60 165.56 C 155.73 165.68 155.12 166.48 155.24 167.35 C 155.36 168.23 156.17 168.83 157.04 168.71 Z M 158.01 168.57 L 158.98 168.44 C 159.85 168.32 160.46 167.52 160.35 166.66 C 160.23 165.79 159.43 165.18 158.56 165.29 L 157.59 165.43 C 156.72 165.54 156.11 166.34 156.23 167.21 C 156.34 168.08 157.14 168.69 158.01 168.57 Z M 158.97 168.43 L 159.97 168.31 C 160.84 168.19 161.45 167.40 161.34 166.54 C 161.23 165.67 160.44 165.06 159.57 165.17 L 158.57 165.30 C 157.71 165.41 157.09 166.20 157.21 167.07 C 157.32 167.93 158.11 168.54 158.97 168.43 Z M 159.96 168.30 L 160.95 168.18 C 161.82 168.08 162.43 167.29 162.33 166.43 C 162.22 165.56 161.44 164.95 160.57 165.05 L 159.58 165.17 C 158.72 165.28 158.10 166.06 158.20 166.93 C 158.31 167.79 159.10 168.41 159.96 168.30 Z M 160.94 168.18 L 161.93 168.07 C 162.79 167.97 163.42 167.19 163.32 166.33 C 163.22 165.47 162.44 164.85 161.58 164.94 L 160.59 165.05 C 159.72 165.15 159.10 165.93 159.20 166.79 C 159.30 167.66 160.08 168.28 160.94 168.18 Z M 161.91 168.07 L 162.91 167.97 C 163.77 167.88 164.40 167.11 164.31 166.24 C 164.22 165.38 163.45 164.75 162.59 164.84 L 161.59 164.94 C 160.73 165.03 160.10 165.80 160.19 166.67 C 160.28 167.53 161.05 168.16 161.91 168.07 Z M 162.89 167.97 L 163.88 167.87 C 164.74 167.80 165.38 167.03 165.30 166.17 C 165.22 165.31 164.46 164.68 163.60 164.75 L 162.60 164.84 C 161.74 164.92 161.11 165.69 161.19 166.55 C 161.26 167.41 162.03 168.04 162.89 167.97 Z M 163.86 167.87 L 164.86 167.80 C 165.72 167.73 166.36 166.97 166.30 166.11 C 166.23 165.25 165.47 164.61 164.61 164.68 L 163.62 164.76 C 162.76 164.82 162.11 165.58 162.18 166.44 C 162.25 167.30 163.00 167.94 163.86 167.87 Z M 164.84 167.80 L 165.83 167.73 C 166.69 167.67 167.34 166.93 167.29 166.07 C 167.23 165.21 166.48 164.55 165.62 164.61 L 164.63 164.68 C 163.77 164.73 163.12 165.48 163.18 166.34 C 163.23 167.20 163.98 167.85 164.84 167.80 Z M 165.81 167.73 L 166.81 167.67 C 167.67 167.63 168.33 166.89 168.28 166.03 C 168.23 165.17 167.50 164.51 166.64 164.56 L 165.64 164.61 C 164.78 164.66 164.12 165.40 164.17 166.26 C 164.22 167.12 164.95 167.78 165.81 167.73 Z M 166.80 167.68 L 167.80 167.63 C 168.66 167.59 169.32 166.85 169.28 165.99 C 169.24 165.13 168.51 164.47 167.65 164.51 L 166.65 164.55 C 165.79 164.60 165.12 165.33 165.16 166.19 C 165.20 167.05 165.94 167.72 166.80 167.68 Z M 167.79 167.63 L 168.79 167.59 C 169.65 167.55 170.32 166.82 170.28 165.96 C 170.25 165.10 169.52 164.43 168.66 164.46 L 167.66 164.51 C 166.79 164.54 166.13 165.27 166.16 166.13 C 166.20 166.99 166.93 167.66 167.79 167.63 Z M 168.78 167.59 L 169.79 167.55 C 170.65 167.51 171.32 166.79 171.29 165.93 C 171.26 165.06 170.53 164.39 169.67 164.43 L 168.66 164.46 C 167.80 164.50 167.13 165.22 167.16 166.09 C 167.20 166.95 167.92 167.62 168.78 167.59 Z M 169.79 167.55 L 170.44 167.52 C 171.30 167.49 171.98 166.77 171.95 165.90 C 171.91 165.04 171.19 164.37 170.33 164.40 L 169.67 164.43 C 168.81 164.46 168.14 165.18 168.17 166.04 C 168.20 166.91 168.93 167.58 169.79 167.55 Z"
      fill="black"
      fill-rule="nonzero" /><path d="M 85.83 223.60 L 84.36 223.51 C 83.43 223.45 82.64 224.15 82.58 225.07 C 82.52 225.99 83.22 226.79 84.14 226.85 L 85.61 226.94 C 86.54 227.00 87.33 226.30 87.39 225.38 C 87.45 224.46 86.75 223.66 85.83 223.60 Z M 84.36 223.44 L 83.04 223.36 C 82.08 223.31 81.26 224.03 81.20 224.99 C 81.14 225.95 81.87 226.77 82.83 226.83 L 84.14 226.91 C 85.10 226.97 85.92 226.24 85.98 225.28 C 86.04 224.33 85.31 223.50 84.36 223.44 Z M 83.03 223.30 L 82.02 223.25 C 81.03 223.20 80.18 223.96 80.13 224.95 C 80.08 225.94 80.84 226.79 81.84 226.84 L 82.84 226.89 C 83.83 226.95 84.68 226.18 84.73 225.19 C 84.78 224.20 84.02 223.35 83.03 223.30 Z M 81.97 223.19 L 81.43 223.17 C 80.40 223.15 79.55 223.97 79.53 225.00 C 79.51 226.02 80.32 226.87 81.35 226.89 L 81.89 226.91 C 82.92 226.93 83.77 226.11 83.79 225.08 C 83.81 224.06 82.99 223.21 81.97 223.19 Z M 80.00 226.35 L 80.04 226.39 C 80.77 227.15 81.98 227.18 82.74 226.45 C 83.50 225.73 83.53 224.52 82.81 223.75 L 82.77 223.72 C 82.04 222.95 80.83 222.92 80.07 223.65 C 79.31 224.38 79.28 225.59 80.00 226.35 Z M 81.14 226.98 L 81.58 227.05 C 82.64 227.21 83.63 226.48 83.78 225.43 C 83.94 224.37 83.21 223.38 82.16 223.23 L 81.71 223.16 C 80.65 223.00 79.67 223.73 79.51 224.78 C 79.35 225.84 80.08 226.83 81.14 226.98 Z M 81.64 227.07 L 82.42 227.16 C 83.49 227.29 84.46 226.52 84.58 225.46 C 84.71 224.39 83.95 223.43 82.88 223.30 L 82.10 223.21 C 81.03 223.08 80.07 223.84 79.94 224.91 C 79.82 225.98 80.58 226.94 81.64 227.07 Z M 82.45 227.17 L 83.51 227.28 C 84.58 227.39 85.54 226.61 85.65 225.54 C 85.76 224.47 84.98 223.51 83.91 223.40 L 82.85 223.29 C 81.78 223.18 80.82 223.96 80.71 225.03 C 80.60 226.10 81.38 227.06 82.45 227.17 Z M 83.53 227.29 L 84.81 227.41 C 85.89 227.51 86.84 226.72 86.94 225.64 C 87.04 224.56 86.25 223.61 85.17 223.51 L 83.89 223.39 C 82.81 223.29 81.86 224.08 81.76 225.16 C 81.66 226.24 82.45 227.19 83.53 227.29 Z M 84.83 227.42 L 86.28 227.54 C 87.36 227.63 88.31 226.82 88.40 225.74 C 88.49 224.65 87.68 223.70 86.60 223.62 L 85.15 223.50 C 84.07 223.41 83.12 224.21 83.03 225.30 C 82.94 226.38 83.75 227.33 84.83 227.42 Z M 86.30 227.55 L 87.59 227.64 C 88.67 227.72 89.62 226.90 89.70 225.81 C 89.78 224.72 88.96 223.78 87.87 223.70 L 86.58 223.61 C 85.49 223.53 84.55 224.35 84.47 225.43 C 84.39 226.52 85.21 227.47 86.30 227.55 Z M 87.60 227.64 L 88.59 227.71 C 89.68 227.78 90.62 226.95 90.69 225.86 C 90.76 224.77 89.94 223.83 88.85 223.76 L 87.86 223.69 C 86.76 223.62 85.82 224.45 85.75 225.54 C 85.68 226.63 86.51 227.57 87.60 227.64 Z M 88.60 227.71 L 89.61 227.77 C 90.70 227.84 91.64 227.00 91.71 225.91 C 91.77 224.82 90.94 223.88 89.84 223.82 L 88.83 223.76 C 87.74 223.69 86.80 224.52 86.74 225.62 C 86.68 226.71 87.51 227.65 88.60 227.71 Z M 89.62 227.77 L 90.64 227.83 C 91.74 227.89 92.67 227.05 92.73 225.96 C 92.79 224.86 91.95 223.93 90.86 223.87 L 89.84 223.81 C 88.74 223.75 87.81 224.59 87.75 225.69 C 87.69 226.78 88.53 227.71 89.62 227.77 Z M 90.65 227.83 L 91.68 227.88 C 92.77 227.94 93.71 227.09 93.76 226.00 C 93.82 224.90 92.97 223.97 91.88 223.92 L 90.85 223.87 C 89.75 223.81 88.82 224.65 88.77 225.75 C 88.71 226.84 89.56 227.78 90.65 227.83 Z M 91.69 227.89 L 92.71 227.93 C 93.81 227.98 94.74 227.14 94.79 226.04 C 94.84 224.94 93.99 224.01 92.90 223.96 L 91.87 223.91 C 90.77 223.86 89.84 224.71 89.79 225.81 C 89.74 226.90 90.59 227.83 91.69 227.89 Z M 92.72 227.94 L 93.74 227.98 C 94.83 228.03 95.76 227.18 95.81 226.08 C 95.86 224.98 95.01 224.05 93.91 224.00 L 92.89 223.96 C 91.79 223.91 90.86 224.76 90.82 225.86 C 90.77 226.96 91.62 227.89 92.72 227.94 Z M 93.74 227.98 L 94.74 228.02 C 95.84 228.07 96.77 227.22 96.81 226.12 C 96.86 225.02 96.01 224.09 94.91 224.04 L 93.90 224.00 C 92.81 223.96 91.88 224.81 91.83 225.91 C 91.79 227.01 92.64 227.94 93.74 227.98 Z M 94.75 228.03 L 95.72 228.07 C 96.82 228.11 97.75 227.25 97.79 226.15 C 97.84 225.05 96.98 224.12 95.88 224.08 L 94.90 224.04 C 93.80 224.00 92.87 224.85 92.83 225.96 C 92.79 227.06 93.64 227.98 94.75 228.03 Z M 95.73 228.07 L 96.67 228.10 C 97.78 228.15 98.70 227.29 98.74 226.18 C 98.79 225.08 97.93 224.15 96.82 224.11 L 95.88 224.08 C 94.78 224.04 93.85 224.89 93.81 226.00 C 93.76 227.10 94.62 228.03 95.73 228.07 Z M 96.68 228.11 L 97.73 228.14 C 98.84 228.18 99.76 227.32 99.81 226.22 C 99.85 225.12 98.98 224.19 97.88 224.15 L 96.82 224.11 C 95.72 224.07 94.79 224.93 94.75 226.04 C 94.71 227.14 95.57 228.07 96.68 228.11 Z M 97.74 228.15 L 98.80 228.18 C 99.91 228.22 100.83 227.36 100.87 226.26 C 100.91 225.15 100.05 224.23 98.94 224.19 L 97.88 224.15 C 96.77 224.11 95.85 224.97 95.81 226.08 C 95.77 227.18 96.63 228.11 97.74 228.15 Z M 98.81 228.18 L 99.83 228.22 C 100.93 228.25 101.86 227.39 101.89 226.29 C 101.93 225.18 101.06 224.26 99.96 224.22 L 98.94 224.19 C 97.83 224.15 96.91 225.01 96.87 226.12 C 96.84 227.22 97.70 228.15 98.81 228.18 Z M 99.83 228.22 L 100.82 228.25 C 101.93 228.28 102.85 227.42 102.88 226.31 C 102.92 225.21 102.05 224.28 100.95 224.25 L 99.96 224.22 C 98.85 224.18 97.93 225.05 97.89 226.16 C 97.86 227.26 98.73 228.19 99.83 228.22 Z M 100.83 228.25 L 101.80 228.28 C 102.90 228.31 103.82 227.44 103.85 226.33 C 103.88 225.23 103.01 224.31 101.91 224.27 L 100.94 224.25 C 99.83 224.22 98.91 225.09 98.88 226.19 C 98.85 227.30 99.72 228.22 100.83 228.25 Z M 101.80 228.28 L 102.76 228.30 C 103.87 228.33 104.79 227.45 104.81 226.35 C 104.84 225.24 103.96 224.32 102.86 224.30 L 101.90 224.27 C 100.80 224.25 99.88 225.12 99.85 226.23 C 99.82 227.33 100.70 228.25 101.80 228.28 Z M 102.77 228.30 L 103.72 228.32 C 104.83 228.35 105.75 227.47 105.77 226.36 C 105.79 225.25 104.91 224.34 103.81 224.32 L 102.85 224.30 C 101.74 224.27 100.83 225.15 100.81 226.26 C 100.78 227.36 101.66 228.28 102.77 228.30 Z M 103.73 228.32 L 104.70 228.34 C 105.80 228.36 106.72 227.48 106.73 226.37 C 106.75 225.26 105.87 224.35 104.76 224.33 L 103.80 224.31 C 102.69 224.30 101.78 225.18 101.76 226.29 C 101.74 227.39 102.62 228.31 103.73 228.32 Z M 104.70 228.34 L 105.65 228.35 C 106.75 228.37 107.66 227.48 107.68 226.37 C 107.69 225.27 106.81 224.36 105.70 224.34 L 104.76 224.33 C 103.65 224.32 102.74 225.20 102.72 226.31 C 102.71 227.42 103.60 228.33 104.70 228.34 Z M 105.65 228.35 L 106.61 228.36 C 107.72 228.37 108.62 227.48 108.63 226.38 C 108.64 225.27 107.75 224.36 106.65 224.35 L 105.69 224.34 C 104.59 224.33 103.68 225.22 103.67 226.33 C 103.66 227.44 104.55 228.34 105.65 228.35 Z M 106.61 228.36 L 107.58 228.37 C 108.69 228.38 109.60 227.49 109.60 226.38 C 109.61 225.27 108.72 224.37 107.61 224.36 L 106.64 224.35 C 105.53 224.34 104.63 225.24 104.62 226.34 C 104.61 227.45 105.51 228.35 106.61 228.36 Z M 107.59 228.37 L 108.58 228.37 C 109.69 228.38 110.59 227.49 110.59 226.38 C 110.60 225.27 109.70 224.37 108.60 224.36 L 107.61 224.36 C 106.50 224.35 105.60 225.25 105.59 226.35 C 105.59 227.46 106.48 228.36 107.59 228.37 Z M 108.58 228.37 L 109.59 228.38 C 110.69 228.38 111.59 227.49 111.60 226.38 C 111.60 225.27 110.71 224.37 109.60 224.37 L 108.59 224.36 C 107.49 224.36 106.59 225.26 106.58 226.36 C 106.58 227.47 107.47 228.37 108.58 228.37 Z M 109.59 228.38 L 110.61 228.38 C 111.72 228.38 112.62 227.48 112.62 226.38 C 112.62 225.27 111.72 224.37 110.62 224.37 L 109.60 224.37 C 108.49 224.37 107.59 225.26 107.59 226.37 C 107.59 227.48 108.48 228.38 109.59 228.38 Z M 110.61 228.38 L 111.65 228.38 C 112.75 228.38 113.65 227.48 113.65 226.38 C 113.65 225.27 112.76 224.37 111.65 224.37 L 110.61 224.37 C 109.51 224.37 108.61 225.27 108.61 226.37 C 108.61 227.48 109.50 228.38 110.61 228.38 Z M 111.65 228.38 L 112.70 228.38 C 113.80 228.38 114.70 227.48 114.70 226.38 C 114.70 225.27 113.80 224.37 112.70 224.37 L 111.65 224.37 C 110.54 224.37 109.64 225.27 109.64 226.37 C 109.64 227.48 110.54 228.38 111.65 228.38 Z M 112.70 228.38 L 113.72 228.38 C 114.82 228.38 115.72 227.48 115.72 226.38 C 115.72 225.27 114.82 224.37 113.72 224.37 L 112.70 224.37 C 111.59 224.37 110.69 225.27 110.69 226.38 C 110.69 227.48 111.59 228.38 112.70 228.38 Z M 113.72 228.38 L 114.71 228.38 C 115.82 228.38 116.72 227.48 116.72 226.38 C 116.72 225.27 115.82 224.37 114.71 224.37 L 113.72 224.37 C 112.61 224.37 111.71 225.27 111.71 226.38 C 111.71 227.48 112.61 228.38 113.72 228.38 Z M 114.71 228.38 L 115.71 228.38 C 116.82 228.38 117.72 227.48 117.72 226.38 C 117.72 225.27 116.82 224.37 115.71 224.37 L 114.71 224.37 C 113.61 224.37 112.71 225.27 112.71 226.38 C 112.71 227.48 113.61 228.38 114.71 228.38 Z M 115.71 228.38 L 116.72 228.38 C 117.82 228.38 118.72 227.48 118.72 226.38 C 118.72 225.27 117.82 224.37 116.72 224.37 L 115.71 224.37 C 114.61 224.37 113.71 225.27 113.71 226.38 C 113.71 227.48 114.61 228.38 115.71 228.38 Z M 116.72 228.38 L 117.73 228.38 C 118.83 228.38 119.73 227.48 119.73 226.38 C 119.73 225.27 118.83 224.37 117.73 224.37 L 116.72 224.37 C 115.61 224.37 114.71 225.27 114.71 226.38 C 114.71 227.48 115.61 228.38 116.72 228.38 Z M 117.73 228.38 L 118.73 228.38 C 119.84 228.38 120.74 227.48 120.74 226.38 C 120.74 225.27 119.84 224.37 118.73 224.37 L 117.73 224.37 C 116.62 224.37 115.72 225.27 115.72 226.38 C 115.72 227.48 116.62 228.38 117.73 228.38 Z M 118.73 228.38 L 119.74 228.38 C 120.84 228.38 121.74 227.48 121.74 226.38 C 121.74 225.27 120.84 224.37 119.74 224.37 L 118.73 224.37 C 117.63 224.37 116.73 225.27 116.73 226.38 C 116.73 227.48 117.63 228.38 118.73 228.38 Z M 119.74 228.38 L 120.74 228.38 C 121.84 228.38 122.74 227.48 122.74 226.38 C 122.74 225.27 121.84 224.37 120.74 224.37 L 119.74 224.37 C 118.63 224.37 117.74 225.27 117.74 226.38 C 117.74 227.48 118.63 228.38 119.74 228.38 Z M 120.74 228.38 L 121.73 228.38 C 122.84 228.38 123.73 227.48 123.73 226.38 C 123.73 225.27 122.84 224.37 121.73 224.37 L 120.74 224.37 C 119.63 224.37 118.74 225.27 118.74 226.38 C 118.74 227.48 119.63 228.38 120.74 228.38 Z M 121.73 228.38 L 122.74 228.38 C 123.85 228.38 124.74 227.48 124.74 226.37 C 124.74 225.27 123.85 224.37 122.74 224.37 L 121.73 224.37 C 120.63 224.37 119.73 225.27 119.73 226.38 C 119.73 227.48 120.63 228.38 121.73 228.38 Z M 122.74 228.37 L 123.76 228.37 C 124.86 228.37 125.76 227.48 125.76 226.37 C 125.76 225.27 124.86 224.37 123.76 224.37 L 122.74 224.38 C 121.63 224.38 120.74 225.27 120.74 226.38 C 120.74 227.48 121.64 228.38 122.74 228.37 Z M 123.76 228.37 L 124.77 228.37 C 125.88 228.37 126.77 227.47 126.77 226.37 C 126.76 225.26 125.86 224.37 124.76 224.37 L 123.75 224.38 C 122.65 224.38 121.76 225.28 121.76 226.38 C 121.76 227.48 122.66 228.38 123.76 228.37 Z M 124.78 228.37 L 125.78 228.36 C 126.88 228.35 127.77 227.45 127.76 226.35 C 127.76 225.25 126.86 224.36 125.76 224.37 L 124.75 224.37 C 123.65 224.38 122.76 225.28 122.77 226.38 C 122.78 227.49 123.68 228.37 124.78 228.37 Z M 125.79 228.36 L 126.79 228.35 C 127.89 228.33 128.77 227.43 128.76 226.33 C 128.75 225.23 127.84 224.35 126.74 224.36 L 125.74 224.37 C 124.64 224.38 123.76 225.29 123.77 226.39 C 123.79 227.49 124.69 228.37 125.79 228.36 Z M 126.80 228.35 L 127.79 228.33 C 128.89 228.31 129.77 227.40 129.75 226.30 C 129.73 225.20 128.82 224.32 127.72 224.34 L 126.73 224.36 C 125.63 224.38 124.75 225.29 124.77 226.39 C 124.79 227.49 125.70 228.37 126.80 228.35 Z M 127.81 228.33 L 128.80 228.30 C 129.90 228.27 130.76 227.36 130.74 226.26 C 130.71 225.16 129.79 224.29 128.69 224.32 L 127.70 224.34 C 126.60 224.37 125.74 225.29 125.76 226.39 C 125.79 227.49 126.71 228.35 127.81 228.33 Z M 128.81 228.30 L 129.80 228.26 C 130.90 228.22 131.76 227.30 131.72 226.20 C 131.68 225.11 130.76 224.25 129.66 224.29 L 128.67 224.32 C 127.58 224.36 126.72 225.28 126.76 226.38 C 126.79 227.48 127.72 228.34 128.81 228.30 Z M 129.82 228.26 L 130.81 228.21 C 131.91 228.16 132.76 227.23 132.71 226.14 C 132.66 225.04 131.73 224.19 130.63 224.24 L 129.64 224.29 C 128.54 224.34 127.70 225.27 127.75 226.37 C 127.80 227.46 128.73 228.31 129.82 228.26 Z M 130.84 228.21 L 131.83 228.15 C 132.92 228.09 133.76 227.15 133.69 226.06 C 133.63 224.96 132.69 224.13 131.60 224.19 L 130.61 224.25 C 129.51 224.31 128.68 225.25 128.74 226.34 C 128.80 227.44 129.74 228.28 130.84 228.21 Z M 131.85 228.15 L 132.84 228.08 C 133.93 228.01 134.76 227.06 134.68 225.97 C 134.61 224.87 133.66 224.05 132.57 224.12 L 131.57 224.19 C 130.48 224.27 129.66 225.21 129.73 226.31 C 129.81 227.40 130.75 228.23 131.85 228.15 Z M 132.86 228.08 L 133.85 228.00 C 134.94 227.91 135.76 226.96 135.67 225.87 C 135.59 224.78 134.63 223.96 133.54 224.05 L 132.55 224.13 C 131.45 224.21 130.64 225.17 130.73 226.26 C 130.81 227.35 131.77 228.17 132.86 228.08 Z M 133.87 228.00 L 134.87 227.91 C 135.96 227.81 136.76 226.85 136.66 225.76 C 136.57 224.67 135.60 223.87 134.51 223.96 L 133.52 224.05 C 132.43 224.15 131.62 225.11 131.72 226.20 C 131.82 227.29 132.78 228.10 133.87 228.00 Z M 134.88 227.91 L 135.88 227.81 C 136.97 227.70 137.76 226.73 137.66 225.65 C 137.55 224.56 136.58 223.76 135.49 223.87 L 134.50 223.97 C 133.41 224.07 132.61 225.04 132.72 226.13 C 132.83 227.22 133.80 228.01 134.88 227.91 Z M 135.90 227.80 L 136.89 227.70 C 137.98 227.58 138.77 226.61 138.65 225.52 C 138.54 224.44 137.56 223.65 136.48 223.77 L 135.48 223.87 C 134.39 223.99 133.60 224.96 133.72 226.05 C 133.84 227.13 134.81 227.92 135.90 227.80 Z M 136.91 227.70 L 137.91 227.58 C 138.99 227.46 139.77 226.48 139.65 225.39 C 139.52 224.31 138.54 223.53 137.46 223.66 L 136.46 223.77 C 135.38 223.89 134.60 224.87 134.72 225.96 C 134.85 227.04 135.82 227.82 136.91 227.70 Z M 137.92 227.58 L 138.92 227.46 C 140.00 227.33 140.77 226.34 140.64 225.26 C 140.51 224.18 139.53 223.41 138.45 223.54 L 137.45 223.66 C 136.36 223.79 135.59 224.77 135.72 225.86 C 135.86 226.94 136.84 227.71 137.92 227.58 Z M 138.93 227.45 L 139.93 227.33 C 141.01 227.19 141.77 226.20 141.63 225.12 C 141.50 224.04 140.51 223.28 139.43 223.41 L 138.43 223.54 C 137.35 223.68 136.59 224.67 136.73 225.75 C 136.86 226.83 137.85 227.59 138.93 227.45 Z M 139.94 227.32 L 140.93 227.19 C 142.01 227.05 142.76 226.06 142.62 224.98 C 142.48 223.90 141.49 223.14 140.41 223.29 L 139.42 223.42 C 138.34 223.56 137.58 224.55 137.73 225.63 C 137.87 226.71 138.86 227.47 139.94 227.32 Z M 140.94 227.19 L 141.93 227.05 C 143.00 226.90 143.76 225.91 143.61 224.83 C 143.46 223.76 142.46 223.00 141.39 223.15 L 140.40 223.29 C 139.32 223.44 138.57 224.43 138.72 225.51 C 138.87 226.58 139.86 227.34 140.94 227.19 Z M 141.93 227.05 L 142.92 226.91 C 144.00 226.75 144.75 225.76 144.59 224.68 C 144.44 223.61 143.44 222.86 142.37 223.02 L 141.38 223.16 C 140.31 223.31 139.56 224.30 139.71 225.38 C 139.86 226.45 140.86 227.20 141.93 227.05 Z M 142.93 226.90 L 143.92 226.76 C 144.99 226.60 145.74 225.61 145.58 224.53 C 145.42 223.46 144.43 222.72 143.35 222.87 L 142.36 223.02 C 141.29 223.17 140.55 224.17 140.70 225.24 C 140.86 226.32 141.86 227.06 142.93 226.90 Z M 143.93 226.76 L 144.92 226.61 C 145.99 226.45 146.73 225.45 146.57 224.38 C 146.41 223.31 145.41 222.57 144.34 222.73 L 143.35 222.88 C 142.28 223.04 141.54 224.03 141.70 225.11 C 141.86 226.18 142.85 226.92 143.93 226.76 Z M 144.92 226.61 L 145.91 226.46 C 146.98 226.29 147.71 225.30 147.55 224.23 C 147.39 223.16 146.39 222.42 145.32 222.58 L 144.33 222.73 C 143.26 222.89 142.53 223.89 142.69 224.96 C 142.85 226.03 143.85 226.77 144.92 226.61 Z M 145.91 226.45 L 146.90 226.30 C 147.97 226.14 148.70 225.14 148.54 224.07 C 148.38 223.00 147.38 222.27 146.31 222.43 L 145.32 222.59 C 144.25 222.75 143.52 223.75 143.68 224.81 C 143.85 225.88 144.84 226.62 145.91 226.45 Z M 146.90 226.30 L 147.89 226.15 C 148.96 225.98 149.69 224.99 149.53 223.92 C 149.36 222.85 148.37 222.12 147.30 222.28 L 146.31 222.44 C 145.24 222.60 144.51 223.60 144.67 224.67 C 144.84 225.73 145.84 226.46 146.90 226.30 Z M 147.89 226.15 L 148.88 225.99 C 149.95 225.83 150.68 224.83 150.51 223.77 C 150.35 222.70 149.35 221.97 148.29 222.14 L 147.30 222.29 C 146.23 222.45 145.50 223.45 145.67 224.51 C 145.83 225.58 146.83 226.31 147.89 226.15 Z M 148.88 225.99 L 149.87 225.84 C 150.93 225.68 151.66 224.68 151.50 223.62 C 151.34 222.55 150.34 221.82 149.28 221.99 L 148.29 222.14 C 147.22 222.30 146.49 223.30 146.66 224.36 C 146.82 225.42 147.82 226.15 148.88 225.99 Z M 149.87 225.84 L 150.86 225.68 C 151.92 225.52 152.65 224.53 152.49 223.46 C 152.32 222.40 151.33 221.67 150.26 221.84 L 149.28 221.99 C 148.21 222.15 147.48 223.15 147.65 224.21 C 147.81 225.27 148.81 226.00 149.87 225.84 Z M 150.86 225.68 L 151.84 225.53 C 152.91 225.37 153.63 224.37 153.47 223.31 C 153.31 222.25 152.31 221.52 151.25 221.69 L 150.26 221.84 C 149.20 222.00 148.48 222.99 148.64 224.06 C 148.80 225.12 149.79 225.85 150.86 225.68 Z M 151.84 225.53 L 152.83 225.38 C 153.89 225.21 154.62 224.22 154.46 223.16 C 154.29 222.10 153.30 221.37 152.24 221.54 L 151.25 221.69 C 150.19 221.85 149.47 222.84 149.63 223.90 C 149.79 224.96 150.78 225.69 151.84 225.53 Z M 152.83 225.37 L 153.82 225.22 C 154.88 225.06 155.61 224.07 155.44 223.01 C 155.28 221.95 154.29 221.22 153.23 221.39 L 152.24 221.54 C 151.18 221.70 150.46 222.69 150.62 223.75 C 150.78 224.81 151.77 225.54 152.83 225.37 Z M 153.82 225.22 L 154.81 225.07 C 155.87 224.90 156.59 223.92 156.43 222.86 C 156.27 221.80 155.28 221.07 154.22 221.24 L 153.23 221.39 C 152.17 221.55 151.45 222.54 151.61 223.60 C 151.77 224.66 152.76 225.38 153.82 225.22 Z M 154.81 225.06 L 155.80 224.91 C 156.85 224.75 157.58 223.76 157.42 222.71 C 157.25 221.65 156.26 220.92 155.21 221.09 L 154.22 221.24 C 153.16 221.40 152.44 222.39 152.60 223.45 C 152.76 224.50 153.75 225.23 154.81 225.06 Z M 155.80 224.91 L 156.78 224.76 C 157.84 224.60 158.56 223.61 158.40 222.55 C 158.24 221.50 157.25 220.78 156.20 220.94 L 155.21 221.09 C 154.15 221.25 153.43 222.24 153.59 223.29 C 153.75 224.35 154.74 225.07 155.80 224.91 Z M 156.78 224.76 L 157.76 224.61 C 158.81 224.44 159.53 223.46 159.37 222.40 C 159.21 221.35 158.22 220.63 157.17 220.79 L 156.20 220.94 C 155.14 221.10 154.42 222.09 154.58 223.14 C 154.74 224.20 155.73 224.92 156.78 224.76 Z M 157.76 224.60 L 158.73 224.45 C 159.78 224.29 160.50 223.31 160.34 222.26 C 160.18 221.20 159.19 220.48 158.14 220.64 L 157.17 220.79 C 156.12 220.95 155.39 221.94 155.56 222.99 C 155.72 224.04 156.70 224.77 157.76 224.60 Z M 158.73 224.45 L 159.70 224.30 C 160.76 224.14 161.48 223.16 161.31 222.10 C 161.15 221.05 160.17 220.33 159.12 220.49 L 158.14 220.65 C 157.09 220.81 156.37 221.79 156.53 222.84 C 156.69 223.89 157.68 224.61 158.73 224.45 Z M 159.71 224.30 L 160.68 224.15 C 161.73 223.99 162.45 223.00 162.29 221.95 C 162.13 220.90 161.15 220.18 160.10 220.35 L 159.12 220.50 C 158.07 220.66 157.35 221.64 157.51 222.69 C 157.67 223.74 158.66 224.46 159.71 224.30 Z M 160.69 224.15 L 161.67 223.99 C 162.72 223.83 163.44 222.85 163.27 221.80 C 163.11 220.75 162.13 220.03 161.08 220.20 L 160.10 220.35 C 159.05 220.51 158.33 221.49 158.49 222.54 C 158.65 223.59 159.64 224.31 160.69 224.15 Z M 161.67 223.99 L 162.66 223.84 C 163.71 223.67 164.43 222.69 164.26 221.64 C 164.10 220.60 163.12 219.88 162.07 220.04 L 161.08 220.20 C 160.03 220.36 159.32 221.34 159.48 222.39 C 159.64 223.44 160.62 224.15 161.67 223.99 Z M 162.66 223.83 L 163.66 223.68 C 164.71 223.51 165.42 222.53 165.26 221.49 C 165.09 220.44 164.11 219.73 163.07 219.89 L 162.07 220.05 C 161.02 220.21 160.31 221.19 160.47 222.24 C 160.64 223.28 161.62 224.00 162.66 223.83 Z M 163.66 223.67 L 164.67 223.52 C 165.71 223.35 166.43 222.37 166.26 221.33 C 166.10 220.28 165.12 219.57 164.07 219.73 L 163.07 219.89 C 162.02 220.06 161.31 221.04 161.47 222.08 C 161.64 223.13 162.62 223.84 163.66 223.67 Z M 164.67 223.51 L 165.68 223.35 C 166.73 223.19 167.44 222.21 167.27 221.17 C 167.11 220.12 166.13 219.41 165.09 219.58 L 164.07 219.74 C 163.03 219.90 162.32 220.88 162.48 221.92 C 162.65 222.97 163.63 223.68 164.67 223.51 Z M 165.68 223.35 L 166.68 223.19 C 167.72 223.03 168.43 222.05 168.27 221.01 C 168.10 219.97 167.12 219.25 166.08 219.42 L 165.08 219.58 C 164.04 219.74 163.33 220.72 163.50 221.76 C 163.66 222.81 164.64 223.52 165.68 223.35 Z M 166.68 223.19 L 167.68 223.03 C 168.72 222.87 169.43 221.89 169.26 220.85 C 169.10 219.81 168.12 219.10 167.08 219.26 L 166.08 219.42 C 165.04 219.59 164.33 220.57 164.49 221.61 C 164.66 222.65 165.64 223.36 166.68 223.19 Z M 167.68 223.03 L 168.68 222.87 C 169.72 222.71 170.43 221.73 170.27 220.69 C 170.10 219.65 169.13 218.94 168.09 219.11 L 167.08 219.27 C 166.04 219.43 165.33 220.41 165.50 221.44 C 165.66 222.48 166.64 223.19 167.68 223.03 Z M 168.68 222.87 L 169.68 222.71 C 170.72 222.55 171.43 221.58 171.27 220.54 C 171.11 219.50 170.13 218.79 169.10 218.95 L 168.09 219.11 C 167.05 219.27 166.34 220.24 166.50 221.28 C 166.67 222.32 167.64 223.03 168.68 222.87 Z M 169.68 222.71 L 170.68 222.56 C 171.72 222.40 172.43 221.43 172.27 220.39 C 172.11 219.35 171.14 218.64 170.10 218.80 L 169.10 218.95 C 168.06 219.11 167.35 220.08 167.51 221.12 C 167.67 222.16 168.64 222.87 169.68 222.71 Z M 170.67 222.56 L 171.66 222.41 C 172.70 222.25 173.42 221.29 173.26 220.25 C 173.11 219.21 172.14 218.50 171.10 218.65 L 170.11 218.80 C 169.07 218.96 168.36 219.92 168.51 220.96 C 168.67 222.00 169.63 222.71 170.67 222.56 Z M 171.65 222.41 L 172.64 222.27 C 173.67 222.11 174.39 221.15 174.24 220.12 C 174.09 219.08 173.13 218.36 172.09 218.51 L 171.11 218.65 C 170.07 218.80 169.35 219.77 169.51 220.80 C 169.66 221.84 170.62 222.56 171.65 222.41 Z M 172.63 222.26 L 173.59 222.13 C 174.63 221.99 175.35 221.03 175.21 219.99 C 175.07 218.96 174.11 218.23 173.07 218.38 L 172.10 218.51 C 171.07 218.66 170.34 219.61 170.49 220.65 C 170.63 221.69 171.59 222.41 172.63 222.26 Z M 173.58 222.13 L 174.53 222.00 C 175.57 221.87 176.30 220.92 176.16 219.88 C 176.02 218.84 175.07 218.11 174.04 218.25 L 173.08 218.38 C 172.05 218.51 171.32 219.46 171.46 220.50 C 171.59 221.54 172.54 222.27 173.58 222.13 Z M 174.52 222.00 L 175.58 221.87 C 176.61 221.74 177.35 220.80 177.22 219.76 C 177.09 218.73 176.15 217.99 175.11 218.12 L 174.05 218.25 C 173.02 218.38 172.28 219.32 172.41 220.36 C 172.54 221.40 173.48 222.13 174.52 222.00 Z M 175.56 221.87 L 176.59 221.75 C 177.63 221.64 178.37 220.70 178.25 219.66 C 178.14 218.63 177.20 217.88 176.16 218.00 L 175.13 218.12 C 174.09 218.24 173.35 219.18 173.47 220.21 C 173.59 221.25 174.52 221.99 175.56 221.87 Z M 176.58 221.75 L 177.59 221.65 C 178.63 221.53 179.38 220.60 179.27 219.57 C 179.16 218.53 178.23 217.78 177.19 217.89 L 176.18 218.00 C 175.14 218.11 174.39 219.04 174.50 220.08 C 174.61 221.12 175.54 221.87 176.58 221.75 Z M 177.58 221.65 L 178.58 221.55 C 179.61 221.44 180.37 220.52 180.26 219.48 C 180.16 218.44 179.23 217.69 178.20 217.79 L 177.20 217.89 C 176.17 218.00 175.41 218.92 175.52 219.96 C 175.62 220.99 176.54 221.75 177.58 221.65 Z M 178.57 221.54 L 179.54 221.45 C 180.58 221.35 181.34 220.43 181.24 219.40 C 181.14 218.36 180.22 217.60 179.19 217.70 L 178.21 217.79 C 177.17 217.89 176.41 218.81 176.51 219.85 C 176.61 220.88 177.53 221.64 178.57 221.54 Z M 179.54 221.45 L 180.50 221.36 C 181.54 221.27 182.30 220.35 182.21 219.32 C 182.11 218.28 181.20 217.52 180.16 217.61 L 179.20 217.70 C 178.16 217.80 177.40 218.71 177.49 219.75 C 177.59 220.78 178.50 221.55 179.54 221.45 Z M 180.50 221.36 L 181.46 221.28 C 182.49 221.19 183.26 220.27 183.17 219.24 C 183.07 218.20 182.16 217.44 181.13 217.53 L 180.17 217.61 C 179.13 217.71 178.37 218.62 178.46 219.65 C 178.55 220.69 179.46 221.45 180.50 221.36 Z M 181.45 221.28 L 182.41 221.19 C 183.44 221.10 184.21 220.19 184.12 219.16 C 184.03 218.12 183.11 217.36 182.08 217.45 L 181.13 217.53 C 180.09 217.62 179.33 218.53 179.42 219.57 C 179.51 220.60 180.42 221.37 181.45 221.28 Z M 182.41 221.19 L 183.42 221.10 C 184.45 221.01 185.22 220.10 185.13 219.07 C 185.04 218.04 184.13 217.27 183.09 217.36 L 182.08 217.45 C 181.05 217.54 180.28 218.45 180.37 219.48 C 180.46 220.52 181.37 221.28 182.41 221.19 Z M 183.42 221.10 L 184.43 221.01 C 185.46 220.93 186.23 220.02 186.14 218.98 C 186.05 217.95 185.14 217.19 184.10 217.28 L 183.09 217.36 C 182.06 217.45 181.30 218.36 181.39 219.39 C 181.48 220.43 182.38 221.19 183.42 221.10 Z M 184.42 221.01 L 185.43 220.93 C 186.46 220.84 187.23 219.93 187.14 218.90 C 187.05 217.87 186.14 217.10 185.11 217.19 L 184.11 217.28 C 183.08 217.36 182.31 218.27 182.40 219.30 C 182.49 220.34 183.39 221.10 184.42 221.01 Z M 185.42 220.93 L 186.42 220.85 C 187.46 220.76 188.22 219.86 188.14 218.83 C 188.05 217.79 187.15 217.03 186.12 217.11 L 185.12 217.19 C 184.09 217.28 183.32 218.18 183.40 219.21 C 183.49 220.24 184.39 221.01 185.42 220.93 Z M 186.42 220.84 L 187.41 220.77 C 188.44 220.69 189.21 219.79 189.13 218.75 C 189.05 217.72 188.15 216.95 187.12 217.03 L 186.12 217.11 C 185.09 217.19 184.32 218.09 184.40 219.12 C 184.49 220.15 185.39 220.93 186.42 220.84 Z M 187.40 220.77 L 188.39 220.69 C 189.42 220.62 190.19 219.72 190.12 218.69 C 190.04 217.66 189.14 216.89 188.11 216.96 L 187.13 217.04 C 186.10 217.11 185.32 218.01 185.40 219.04 C 185.47 220.07 186.37 220.84 187.40 220.77 Z M 188.38 220.69 L 189.36 220.63 C 190.39 220.56 191.17 219.67 191.10 218.64 C 191.03 217.61 190.14 216.83 189.11 216.90 L 188.13 216.96 C 187.10 217.03 186.32 217.92 186.39 218.95 C 186.46 219.98 187.35 220.76 188.38 220.69 Z M 189.34 220.63 L 190.35 220.57 C 191.37 220.50 192.16 219.62 192.10 218.59 C 192.03 217.56 191.15 216.77 190.12 216.84 L 189.12 216.90 C 188.09 216.96 187.30 217.84 187.37 218.87 C 187.43 219.90 188.31 220.69 189.34 220.63 Z M 190.33 220.56 L 191.35 220.51 C 192.38 220.46 193.17 219.58 193.12 218.55 C 193.06 217.52 192.19 216.73 191.16 216.78 L 190.13 216.84 C 189.10 216.89 188.31 217.77 188.37 218.80 C 188.42 219.83 189.30 220.62 190.33 220.56 Z M 191.34 220.51 L 192.35 220.46 C 193.38 220.42 194.18 219.55 194.13 218.52 C 194.08 217.49 193.21 216.69 192.18 216.74 L 191.17 216.78 C 190.14 216.83 189.34 217.70 189.39 218.73 C 189.44 219.76 190.31 220.56 191.34 220.51 Z M 192.34 220.46 L 193.34 220.43 C 194.37 220.39 195.17 219.52 195.13 218.49 C 195.09 217.46 194.23 216.66 193.20 216.70 L 192.20 216.74 C 191.17 216.78 190.36 217.64 190.40 218.67 C 190.44 219.70 191.31 220.50 192.34 220.46 Z M 193.33 220.42 L 194.33 220.39 C 195.35 220.36 196.16 219.50 196.13 218.47 C 196.10 217.44 195.23 216.63 194.21 216.67 L 193.21 216.70 C 192.18 216.73 191.38 217.59 191.41 218.62 C 191.44 219.65 192.30 220.46 193.33 220.42 Z M 194.32 220.39 L 195.30 220.37 C 196.33 220.34 197.14 219.48 197.11 218.46 C 197.09 217.43 196.23 216.62 195.20 216.64 L 194.22 216.67 C 193.19 216.70 192.38 217.55 192.40 218.58 C 192.43 219.61 193.29 220.42 194.32 220.39 Z M 195.29 220.37 L 196.27 220.34 C 197.30 220.32 198.11 219.47 198.09 218.44 C 198.07 217.42 197.22 216.60 196.19 216.62 L 195.21 216.64 C 194.19 216.67 193.37 217.52 193.39 218.54 C 193.41 219.57 194.26 220.39 195.29 220.37 Z M 196.26 220.34 L 197.26 220.33 C 198.29 220.31 199.11 219.46 199.09 218.44 C 199.08 217.41 198.23 216.59 197.20 216.61 L 196.20 216.62 C 195.17 216.64 194.35 217.49 194.37 218.51 C 194.39 219.54 195.23 220.36 196.26 220.34 Z M 197.25 220.33 L 198.29 220.31 C 199.32 220.30 200.14 219.46 200.13 218.43 C 200.11 217.41 199.27 216.58 198.24 216.60 L 197.21 216.61 C 196.18 216.62 195.36 217.46 195.37 218.49 C 195.39 219.52 196.23 220.34 197.25 220.33 Z M 198.28 220.31 L 199.30 220.30 C 200.33 220.30 201.15 219.46 201.15 218.43 C 201.14 217.41 200.30 216.58 199.27 216.59 L 198.25 216.60 C 197.23 216.61 196.40 217.44 196.41 218.47 C 196.42 219.50 197.26 220.32 198.28 220.31 Z M 199.30 220.30 L 200.31 220.30 C 201.33 220.29 202.16 219.46 202.15 218.43 C 202.15 217.41 201.31 216.58 200.29 216.58 L 199.28 216.59 C 198.25 216.60 197.43 217.43 197.43 218.46 C 197.44 219.48 198.27 220.31 199.30 220.30 Z M 200.30 220.30 L 201.29 220.29 C 202.32 220.29 203.15 219.46 203.14 218.43 C 203.14 217.41 202.31 216.58 201.28 216.58 L 200.29 216.59 C 199.27 216.59 198.44 217.42 198.44 218.45 C 198.44 219.47 199.28 220.30 200.30 220.30 Z M 201.29 220.29 L 202.26 220.29 C 203.29 220.29 204.12 219.46 204.12 218.44 C 204.12 217.41 203.28 216.58 202.26 216.58 L 201.29 216.58 C 200.26 216.59 199.43 217.42 199.43 218.44 C 199.43 219.46 200.27 220.29 201.29 220.29 Z M 202.26 220.29 L 203.22 220.29 C 204.24 220.29 205.07 219.46 205.07 218.44 C 205.07 217.41 204.24 216.58 203.22 216.58 L 202.26 216.58 C 201.24 216.58 200.41 217.41 200.41 218.44 C 200.41 219.46 201.24 220.29 202.26 220.29 Z M 203.22 220.29 L 204.24 220.29 C 205.26 220.29 206.09 219.46 206.09 218.44 C 206.09 217.42 205.26 216.59 204.24 216.59 L 203.22 216.59 C 202.20 216.59 201.37 217.41 201.37 218.44 C 201.37 219.46 202.19 220.29 203.22 220.29 Z M 204.23 220.29 L 205.24 220.29 C 206.26 220.30 207.09 219.47 207.09 218.45 C 207.10 217.43 206.27 216.60 205.25 216.59 L 204.24 216.59 C 203.22 216.58 202.39 217.41 202.39 218.43 C 202.38 219.45 203.21 220.28 204.23 220.29 Z M 205.22 220.29 L 206.22 220.30 C 207.24 220.32 208.08 219.50 208.09 218.48 C 208.10 217.46 207.28 216.62 206.26 216.61 L 205.27 216.59 C 204.25 216.58 203.41 217.40 203.40 218.42 C 203.38 219.44 204.20 220.28 205.22 220.29 Z M 206.19 220.30 L 207.18 220.33 C 208.20 220.35 209.05 219.54 209.07 218.52 C 209.10 217.50 208.29 216.66 207.27 216.63 L 206.28 216.61 C 205.27 216.58 204.42 217.39 204.39 218.41 C 204.37 219.43 205.17 220.28 206.19 220.30 Z M 207.15 220.32 L 208.14 220.36 C 209.16 220.40 210.02 219.61 210.06 218.60 C 210.10 217.58 209.31 216.72 208.29 216.68 L 207.30 216.64 C 206.29 216.59 205.43 217.38 205.38 218.40 C 205.34 219.42 206.13 220.28 207.15 220.32 Z M 208.10 220.36 L 209.10 220.42 C 210.11 220.48 210.99 219.71 211.05 218.69 C 211.11 217.68 210.34 216.80 209.32 216.74 L 208.33 216.68 C 207.31 216.62 206.44 217.39 206.38 218.41 C 206.31 219.42 207.09 220.30 208.10 220.36 Z M 209.05 220.42 L 210.01 220.50 C 211.02 220.58 211.91 219.83 212.00 218.82 C 212.08 217.80 211.33 216.91 210.32 216.83 L 209.36 216.75 C 208.35 216.66 207.46 217.41 207.37 218.43 C 207.29 219.44 208.04 220.33 209.05 220.42 Z M 209.96 220.49 L 210.92 220.60 C 211.93 220.71 212.84 219.98 212.95 218.97 C 213.06 217.96 212.33 217.05 211.32 216.94 L 210.36 216.83 C 209.35 216.72 208.44 217.45 208.33 218.46 C 208.22 219.47 208.95 220.38 209.96 220.49 Z M 210.86 220.59 L 211.84 220.73 C 212.84 220.87 213.77 220.17 213.91 219.16 C 214.06 218.16 213.36 217.23 212.35 217.08 L 211.38 216.95 C 210.37 216.80 209.44 217.51 209.30 218.51 C 209.16 219.52 209.86 220.45 210.86 220.59 Z M 211.78 220.71 L 212.76 220.89 C 213.76 221.06 214.71 220.39 214.89 219.39 C 215.06 218.39 214.40 217.44 213.40 217.27 L 212.41 217.10 C 211.41 216.92 210.46 217.59 210.28 218.59 C 210.11 219.59 210.78 220.54 211.78 220.71 Z M 212.70 220.87 L 213.70 221.08 C 214.69 221.29 215.67 220.66 215.88 219.67 C 216.09 218.68 215.45 217.70 214.46 217.49 L 213.46 217.28 C 212.47 217.07 211.49 217.71 211.28 218.70 C 211.07 219.69 211.71 220.66 212.70 220.87 Z M 213.63 221.07 L 214.65 221.32 C 215.63 221.57 216.63 220.97 216.88 219.99 C 217.12 219.01 216.53 218.01 215.54 217.77 L 214.53 217.51 C 213.55 217.26 212.55 217.86 212.30 218.84 C 212.05 219.82 212.65 220.82 213.63 221.07 Z M 214.58 221.30 L 215.56 221.59 C 216.53 221.87 217.55 221.32 217.84 220.35 C 218.12 219.38 217.56 218.36 216.59 218.07 L 215.61 217.79 C 214.64 217.50 213.62 218.06 213.34 219.03 C 213.05 220.00 213.61 221.02 214.58 221.30 Z M 215.50 221.57 L 216.46 221.89 C 217.42 222.21 218.46 221.69 218.78 220.73 C 219.10 219.77 218.58 218.73 217.62 218.41 L 216.66 218.09 C 215.70 217.78 214.66 218.29 214.34 219.25 C 214.02 220.21 214.54 221.25 215.50 221.57 Z M 216.40 221.87 L 217.36 222.22 C 218.31 222.57 219.36 222.09 219.71 221.14 C 220.06 220.20 219.58 219.14 218.63 218.79 L 217.68 218.44 C 216.73 218.08 215.68 218.57 215.32 219.52 C 214.97 220.46 215.46 221.52 216.40 221.87 Z M 217.30 222.20 L 218.25 222.58 C 219.18 222.97 220.25 222.52 220.63 221.59 C 221.02 220.65 220.57 219.58 219.63 219.20 L 218.69 218.81 C 217.76 218.43 216.69 218.88 216.31 219.81 C 215.92 220.75 216.37 221.82 217.30 222.20 Z M 218.19 222.56 L 219.11 222.97 C 220.03 223.39 221.12 222.98 221.53 222.06 C 221.94 221.14 221.53 220.06 220.61 219.64 L 219.69 219.23 C 218.77 218.81 217.69 219.22 217.28 220.14 C 216.86 221.06 217.27 222.15 218.19 222.56 Z M 219.06 222.94 L 219.94 223.38 C 220.85 223.83 221.94 223.46 222.39 222.55 C 222.83 221.65 222.46 220.55 221.56 220.11 L 220.67 219.67 C 219.77 219.23 218.67 219.60 218.23 220.50 C 217.78 221.40 218.15 222.50 219.06 222.94 Z M 219.88 223.35 L 220.73 223.80 C 221.61 224.28 222.72 223.95 223.20 223.07 C 223.68 222.18 223.35 221.08 222.46 220.60 L 221.62 220.14 C 220.73 219.66 219.63 219.99 219.15 220.88 C 218.67 221.76 219.00 222.87 219.88 223.35 Z M 220.66 223.76 L 221.49 224.26 C 222.36 224.78 223.47 224.50 223.99 223.64 C 224.51 222.78 224.23 221.66 223.37 221.14 L 222.53 220.64 C 221.67 220.12 220.55 220.40 220.03 221.27 C 219.51 222.13 219.79 223.25 220.66 223.76 Z M 221.42 224.22 L 222.22 224.75 C 223.05 225.30 224.18 225.08 224.74 224.24 C 225.30 223.41 225.07 222.28 224.23 221.72 L 223.44 221.19 C 222.60 220.63 221.47 220.86 220.91 221.69 C 220.36 222.53 220.58 223.66 221.42 224.22 Z M 222.15 224.70 L 222.91 225.26 C 223.72 225.86 224.86 225.68 225.45 224.87 C 226.05 224.07 225.88 222.93 225.07 222.33 L 224.30 221.77 C 223.50 221.17 222.36 221.35 221.76 222.15 C 221.17 222.96 221.34 224.10 222.15 224.70 Z M 222.85 225.21 L 223.60 225.82 C 224.38 226.45 225.53 226.32 226.16 225.54 C 226.79 224.76 226.66 223.62 225.88 222.99 L 225.13 222.38 C 224.35 221.75 223.21 221.88 222.58 222.66 C 221.95 223.44 222.07 224.58 222.85 225.21 Z M 223.55 225.77 L 224.31 226.43 C 225.07 227.09 226.21 227.01 226.87 226.25 C 227.53 225.49 227.45 224.35 226.69 223.69 L 225.93 223.03 C 225.18 222.38 224.03 222.46 223.37 223.21 C 222.72 223.97 222.80 225.12 223.55 225.77 Z M 224.28 226.40 L 225.06 227.11 C 225.80 227.79 226.94 227.74 227.62 227.01 C 228.30 226.27 228.25 225.12 227.51 224.45 L 226.73 223.73 C 225.99 223.05 224.84 223.10 224.17 223.84 C 223.49 224.57 223.54 225.72 224.28 226.40 Z M 225.04 227.09 L 225.77 227.79 C 226.49 228.48 227.64 228.45 228.33 227.73 C 229.02 227.01 228.99 225.86 228.27 225.17 L 227.53 224.47 C 226.81 223.78 225.67 223.81 224.97 224.53 C 224.28 225.25 224.31 226.40 225.04 227.09 Z M 225.76 227.77 L 226.40 228.40 C 227.11 229.10 228.26 229.09 228.96 228.37 C 229.65 227.66 229.64 226.51 228.93 225.81 L 228.28 225.19 C 227.57 224.49 226.42 224.50 225.73 225.22 C 225.03 225.93 225.04 227.08 225.76 227.77 Z M 226.39 228.39 L 227.06 229.05 C 227.77 229.76 228.91 229.75 229.61 229.04 C 230.32 228.34 230.31 227.19 229.60 226.49 L 228.93 225.83 C 228.23 225.12 227.08 225.13 226.38 225.84 C 225.68 226.54 225.68 227.69 226.39 228.39 Z M 227.05 229.04 L 227.74 229.74 C 228.44 230.44 229.59 230.45 230.29 229.74 C 231.00 229.04 231.00 227.90 230.30 227.19 L 229.61 226.50 C 228.91 225.79 227.76 225.79 227.06 226.49 C 226.35 227.20 226.35 228.34 227.05 229.04 Z M 227.74 229.73 L 228.44 230.45 C 229.14 231.16 230.28 231.17 230.99 230.47 C 231.70 229.77 231.71 228.63 231.01 227.92 L 230.30 227.20 C 229.61 226.49 228.46 226.48 227.75 227.18 C 227.04 227.88 227.04 229.02 227.74 229.73 Z M 228.44 230.44 L 229.16 231.18 C 229.86 231.89 231.00 231.90 231.71 231.21 C 232.42 230.51 232.43 229.37 231.74 228.66 L 231.02 227.92 C 230.32 227.21 229.18 227.20 228.47 227.89 C 227.76 228.59 227.74 229.73 228.44 230.44 Z M 229.16 231.18 L 229.89 231.93 C 230.59 232.64 231.72 232.66 232.44 231.96 C 233.15 231.27 233.17 230.13 232.47 229.42 L 231.74 228.67 C 231.05 227.95 229.91 227.94 229.19 228.63 C 228.48 229.32 228.47 230.46 229.16 231.18 Z M 229.89 231.93 L 230.63 232.69 C 231.32 233.40 232.46 233.42 233.17 232.73 C 233.89 232.04 233.91 230.90 233.21 230.19 L 232.47 229.42 C 231.78 228.71 230.64 228.69 229.93 229.38 C 229.22 230.07 229.20 231.21 229.89 231.93 Z M 230.63 232.69 L 231.38 233.46 C 232.07 234.17 233.20 234.19 233.92 233.50 C 234.63 232.81 234.65 231.67 233.96 230.96 L 233.21 230.19 C 232.52 229.48 231.39 229.46 230.67 230.15 C 229.96 230.84 229.94 231.97 230.63 232.69 Z M 231.38 233.46 L 231.49 233.58 C 232.18 234.29 233.32 234.31 234.03 233.62 C 234.74 232.93 234.76 231.79 234.07 231.08 L 233.96 230.96 C 233.27 230.25 232.13 230.23 231.42 230.92 C 230.71 231.61 230.69 232.74 231.38 233.46 Z"
      fill="black"
      fill-rule="nonzero" /></svg>