<svg xmlns="http://www.w3.org/2000/svg" width="300" height="300" viewBox="0 0 300 300">
<path d="M 119.08 113.70 L 117.96 113.08 C 117.05 112.59 115.92 112.92 115.42 113.82 C 114.92 114.73 115.25 115.87 116.16 116.36 L 117.28 116.98 C 118.18 117.47 119.32 117.14 119.82 116.24 C 120.32 115.33 119.98 114.19 119.08 113.70 Z M 118.11 113.10 L 117.21 112.52 C 116.32 111.94 115.12 112.19 114.54 113.09 C 113.96 113.98 114.21 115.18 115.11 115.76 L 116.01 116.34 C 116.90 116.92 118.10 116.67 118.68 115.78 C 119.26 114.88 119.01 113.68 118.11 113.10 Z M 117.65 112.81 L 117.18 112.28 C 116.45 111.46 115.19 111.39 114.36 112.12 C 113.54 112.85 113.47 114.11 114.20 114.93 L 114.67 115.46 C 115.40 116.28 116.66 116.36 117.48 115.63 C 118.31 114.90 118.38 113.64 117.65 112.81 Z M 117.61 114.31 L 117.78 113.84 C 118.17 112.78 117.62 111.60 116.56 111.22 C 115.50 110.83 114.33 111.38 113.94 112.44 L 113.77 112.91 C 113.38 113.97 113.93 115.14 114.99 115.53 C 116.05 115.92 117.22 115.37 117.61 114.31 Z M 116.79 115.00 L 117.59 114.60 C 118.62 114.09 119.04 112.84 118.53 111.81 C 118.02 110.78 116.77 110.36 115.74 110.87 L 114.93 111.27 C 113.90 111.78 113.48 113.03 113.99 114.06 C 114.51 115.09 115.76 115.52 116.79 115.00 Z M 117.24 114.78 L 118.48 114.43 C 119.61 114.11 120.26 112.94 119.95 111.82 C 119.63 110.69 118.46 110.03 117.33 110.35 L 116.09 110.70 C 114.96 111.01 114.31 112.18 114.62 113.31 C 114.94 114.44 116.11 115.10 117.24 114.78 Z M 118.37 114.48 L 119.42 114.25 C 120.58 113.99 121.31 112.85 121.05 111.69 C 120.80 110.53 119.65 109.81 118.49 110.06 L 117.44 110.30 C 116.29 110.55 115.56 111.70 115.81 112.85 C 116.07 114.01 117.22 114.74 118.37 114.48 Z M 119.38 114.27 L 120.37 114.07 C 121.54 113.83 122.30 112.70 122.06 111.53 C 121.83 110.37 120.69 109.61 119.53 109.85 L 118.54 110.05 C 117.37 110.28 116.62 111.41 116.85 112.58 C 117.08 113.74 118.22 114.50 119.38 114.27 Z M 120.35 114.08 L 121.36 113.89 C 122.53 113.67 123.30 112.54 123.09 111.37 C 122.87 110.20 121.74 109.43 120.57 109.65 L 119.56 109.84 C 118.39 110.05 117.61 111.18 117.83 112.35 C 118.05 113.52 119.18 114.30 120.35 114.08 Z M 121.34 113.90 L 122.34 113.72 C 123.52 113.51 124.30 112.39 124.09 111.22 C 123.89 110.04 122.77 109.26 121.59 109.46 L 120.59 109.64 C 119.41 109.85 118.63 110.97 118.84 112.14 C 119.04 113.32 120.16 114.10 121.34 113.90 Z M 122.33 113.73 L 123.28 113.57 C 124.46 113.37 125.26 112.25 125.06 111.07 C 124.86 109.89 123.74 109.09 122.56 109.29 L 121.60 109.46 C 120.42 109.66 119.63 110.77 119.83 111.95 C 120.03 113.13 121.15 113.93 122.33 113.73 Z M 123.27 113.57 L 124.34 113.39 C 125.53 113.20 126.33 112.08 126.13 110.90 C 125.94 109.72 124.82 108.92 123.64 109.11 L 122.57 109.29 C 121.39 109.48 120.59 110.60 120.78 111.78 C 120.97 112.96 122.09 113.76 123.27 113.57 Z M 124.34 113.40 L 125.33 113.24 C 126.51 113.05 127.31 111.93 127.12 110.75 C 126.93 109.57 125.82 108.76 124.64 108.95 L 123.65 109.11 C 122.46 109.30 121.66 110.41 121.85 111.60 C 122.04 112.78 123.15 113.59 124.34 113.40 Z M 125.32 113.24 L 126.27 113.09 C 127.45 112.90 128.26 111.79 128.07 110.60 C 127.88 109.42 126.76 108.61 125.58 108.80 L 124.64 108.95 C 123.45 109.14 122.65 110.25 122.84 111.44 C 123.03 112.62 124.14 113.43 125.32 113.24 Z M 126.27 113.09 L 127.21 112.94 C 128.39 112.74 129.19 111.63 129.00 110.44 C 128.81 109.26 127.69 108.46 126.51 108.65 L 125.58 108.80 C 124.39 108.99 123.59 110.11 123.78 111.29 C 123.97 112.48 125.09 113.28 126.27 113.09 Z M 127.22 112.94 L 128.17 112.78 C 129.35 112.58 130.15 111.46 129.95 110.28 C 129.76 109.09 128.64 108.29 127.45 108.49 L 126.50 108.65 C 125.32 108.85 124.52 109.97 124.72 111.15 C 124.91 112.33 126.03 113.13 127.22 112.94 Z M 128.18 112.78 L 129.15 112.61 C 130.34 112.41 131.13 111.28 130.93 110.10 C 130.73 108.92 129.60 108.12 128.42 108.32 L 127.44 108.49 C 126.26 108.69 125.47 109.82 125.67 111.00 C 125.87 112.18 126.99 112.98 128.18 112.78 Z M 129.16 112.61 L 130.17 112.43 C 131.35 112.22 132.14 111.10 131.93 109.91 C 131.72 108.73 130.60 107.94 129.42 108.15 L 128.41 108.33 C 127.23 108.53 126.44 109.66 126.65 110.84 C 126.85 112.02 127.98 112.81 129.16 112.61 Z M 130.18 112.43 L 131.18 112.25 C 132.36 112.04 133.15 110.91 132.94 109.73 C 132.73 108.54 131.60 107.76 130.41 107.97 L 129.41 108.15 C 128.23 108.36 127.44 109.49 127.65 110.67 C 127.86 111.86 128.99 112.64 130.18 112.43 Z M 131.19 112.25 L 132.15 112.07 C 133.33 111.86 134.11 110.72 133.90 109.54 C 133.68 108.36 132.55 107.58 131.37 107.80 L 130.41 107.97 C 129.23 108.19 128.45 109.32 128.66 110.50 C 128.88 111.68 130.01 112.46 131.19 112.25 Z M 132.16 112.07 L 133.14 111.89 C 134.32 111.67 135.10 110.54 134.88 109.36 C 134.66 108.18 133.53 107.40 132.35 107.62 L 131.37 107.80 C 130.19 108.01 129.41 109.15 129.62 110.33 C 129.84 111.51 130.98 112.29 132.16 112.07 Z M 133.14 111.89 L 134.13 111.71 C 135.31 111.49 136.09 110.35 135.87 109.17 C 135.65 107.99 134.52 107.21 133.34 107.43 L 132.35 107.62 C 131.17 107.84 130.39 108.97 130.60 110.15 C 130.82 111.33 131.96 112.11 133.14 111.89 Z M 134.13 111.71 L 135.14 111.52 C 136.32 111.30 137.10 110.17 136.88 108.99 C 136.66 107.81 135.53 107.03 134.35 107.25 L 133.34 107.43 C 132.16 107.65 131.38 108.78 131.60 109.96 C 131.82 111.14 132.95 111.92 134.13 111.71 Z M 135.13 111.52 L 136.09 111.34 C 137.27 111.12 138.05 109.99 137.83 108.81 C 137.62 107.63 136.49 106.85 135.31 107.07 L 134.35 107.25 C 133.17 107.47 132.39 108.60 132.61 109.78 C 132.82 110.95 133.96 111.73 135.13 111.52 Z M 136.09 111.34 L 137.06 111.16 C 138.24 110.94 139.01 109.81 138.80 108.64 C 138.58 107.46 137.45 106.68 136.28 106.90 L 135.31 107.08 C 134.13 107.29 133.35 108.42 133.57 109.60 C 133.79 110.77 134.91 111.55 136.09 111.34 Z M 137.06 111.15 L 138.04 110.97 C 139.22 110.76 139.99 109.63 139.78 108.46 C 139.56 107.28 138.44 106.51 137.26 106.72 L 136.28 106.90 C 135.10 107.12 134.33 108.25 134.54 109.42 C 134.76 110.59 135.88 111.37 137.06 111.15 Z M 138.04 110.97 L 139.05 110.78 C 140.22 110.57 140.99 109.44 140.78 108.27 C 140.56 107.10 139.44 106.33 138.27 106.54 L 137.26 106.73 C 136.09 106.94 135.32 108.07 135.53 109.24 C 135.75 110.41 136.87 111.18 138.04 110.97 Z M 139.05 110.78 L 140.05 110.59 C 141.22 110.37 141.99 109.25 141.77 108.08 C 141.55 106.92 140.43 106.15 139.26 106.36 L 138.26 106.55 C 137.10 106.77 136.33 107.89 136.54 109.06 C 136.76 110.22 137.88 110.99 139.05 110.78 Z M 140.05 110.58 L 141.04 110.40 C 142.20 110.18 142.97 109.06 142.75 107.90 C 142.53 106.73 141.41 105.96 140.25 106.18 L 139.26 106.37 C 138.10 106.59 137.33 107.71 137.55 108.87 C 137.77 110.04 138.89 110.80 140.05 110.58 Z M 141.05 110.39 L 142.04 110.20 C 143.20 109.98 143.96 108.86 143.74 107.70 C 143.52 106.54 142.40 105.78 141.24 106.00 L 140.24 106.19 C 139.08 106.41 138.32 107.53 138.54 108.69 C 138.77 109.85 139.89 110.61 141.05 110.39 Z M 142.05 110.20 L 143.03 110.00 C 144.19 109.78 144.95 108.66 144.72 107.50 C 144.49 106.34 143.37 105.59 142.22 105.81 L 141.23 106.01 C 140.07 106.23 139.32 107.35 139.55 108.51 C 139.77 109.67 140.89 110.42 142.05 110.20 Z M 143.04 109.99 L 144.01 109.80 C 145.16 109.57 145.91 108.45 145.68 107.30 C 145.45 106.14 144.33 105.40 143.17 105.63 L 142.21 105.82 C 141.06 106.05 140.31 107.18 140.54 108.33 C 140.77 109.48 141.89 110.23 143.04 109.99 Z M 144.02 109.79 L 145.03 109.58 C 146.17 109.34 146.91 108.22 146.67 107.08 C 146.43 105.93 145.31 105.19 144.16 105.43 L 143.16 105.64 C 142.02 105.88 141.28 107.00 141.52 108.15 C 141.76 109.29 142.88 110.03 144.02 109.79 Z M 145.03 109.57 L 146.03 109.36 C 147.17 109.12 147.89 107.99 147.65 106.85 C 147.41 105.71 146.28 104.99 145.14 105.23 L 144.15 105.44 C 143.01 105.69 142.29 106.81 142.53 107.95 C 142.77 109.09 143.89 109.81 145.03 109.57 Z M 146.03 109.35 L 147.00 109.14 C 148.13 108.90 148.85 107.78 148.61 106.64 C 148.36 105.51 147.25 104.79 146.11 105.03 L 145.14 105.24 C 144.01 105.49 143.29 106.60 143.53 107.74 C 143.78 108.87 144.89 109.59 146.03 109.35 Z M 146.99 109.13 L 147.95 108.93 C 149.08 108.69 149.80 107.57 149.56 106.45 C 149.31 105.32 148.20 104.60 147.08 104.84 L 146.12 105.04 C 144.99 105.28 144.27 106.39 144.51 107.52 C 144.75 108.65 145.86 109.37 146.99 109.13 Z M 147.93 108.92 L 148.89 108.72 C 150.02 108.49 150.74 107.39 150.51 106.26 C 150.28 105.14 149.17 104.41 148.05 104.65 L 147.09 104.85 C 145.97 105.08 145.24 106.18 145.48 107.30 C 145.71 108.43 146.81 109.15 147.93 108.92 Z M 148.88 108.71 L 149.85 108.52 C 150.97 108.29 151.70 107.20 151.47 106.08 C 151.25 104.96 150.16 104.24 149.04 104.46 L 148.07 104.65 C 146.95 104.88 146.22 105.97 146.44 107.09 C 146.67 108.21 147.76 108.94 148.88 108.71 Z M 149.84 108.51 L 150.82 108.32 C 151.93 108.10 152.66 107.02 152.44 105.90 C 152.22 104.79 151.14 104.06 150.03 104.28 L 149.05 104.47 C 147.93 104.69 147.21 105.77 147.43 106.88 C 147.64 108.00 148.72 108.73 149.84 108.51 Z M 150.82 108.30 L 151.80 108.11 C 152.91 107.89 153.63 106.82 153.42 105.71 C 153.20 104.60 152.13 103.88 151.02 104.10 L 150.03 104.29 C 148.92 104.51 148.20 105.58 148.42 106.69 C 148.63 107.80 149.71 108.52 150.82 108.30 Z M 151.80 108.10 L 152.80 107.90 C 153.90 107.68 154.61 106.61 154.40 105.51 C 154.18 104.41 153.11 103.69 152.01 103.91 L 151.01 104.11 C 149.91 104.33 149.20 105.40 149.41 106.50 C 149.63 107.60 150.70 108.32 151.80 108.10 Z M 152.80 107.89 L 153.77 107.69 C 154.86 107.47 155.57 106.40 155.35 105.31 C 155.13 104.22 154.06 103.51 152.97 103.73 L 152.00 103.93 C 150.91 104.15 150.20 105.22 150.42 106.31 C 150.64 107.40 151.71 108.11 152.80 107.89 Z M 153.77 107.68 L 154.75 107.48 C 155.83 107.25 156.53 106.19 156.31 105.11 C 156.09 104.03 155.03 103.33 153.94 103.55 L 152.97 103.75 C 151.88 103.97 151.18 105.03 151.41 106.11 C 151.63 107.20 152.69 107.90 153.77 107.68 Z M 154.74 107.46 L 155.73 107.26 C 156.80 107.04 157.50 105.99 157.28 104.91 C 157.06 103.84 156.01 103.14 154.93 103.36 L 153.95 103.56 C 152.87 103.78 152.18 104.83 152.40 105.91 C 152.62 106.99 153.67 107.68 154.74 107.46 Z M 155.71 107.25 L 156.70 107.05 C 157.77 106.84 158.47 105.80 158.25 104.73 C 158.04 103.66 157.00 102.96 155.93 103.18 L 154.94 103.38 C 153.87 103.59 153.18 104.63 153.39 105.70 C 153.61 106.77 154.65 107.46 155.71 107.25 Z M 156.69 107.04 L 157.67 106.85 C 158.74 106.64 159.43 105.61 159.23 104.55 C 159.02 103.49 157.99 102.79 156.93 103.00 L 155.95 103.19 C 154.88 103.40 154.19 104.42 154.39 105.49 C 154.60 106.55 155.63 107.24 156.69 107.04 Z M 157.66 106.83 L 158.64 106.65 C 159.70 106.46 160.40 105.44 160.20 104.39 C 160.00 103.33 158.99 102.63 157.93 102.83 L 156.95 103.01 C 155.89 103.21 155.20 104.22 155.39 105.28 C 155.59 106.33 156.60 107.03 157.66 106.83 Z M 158.63 106.64 L 159.61 106.46 C 160.66 106.28 161.36 105.27 161.17 104.23 C 160.99 103.18 159.98 102.48 158.94 102.67 L 157.95 102.84 C 156.90 103.03 156.20 104.03 156.39 105.08 C 156.58 106.13 157.58 106.83 158.63 106.64 Z M 159.60 106.45 L 160.59 106.28 C 161.63 106.10 162.32 105.11 162.15 104.07 C 161.97 103.03 160.98 102.33 159.94 102.51 L 158.95 102.68 C 157.91 102.86 157.21 103.85 157.39 104.89 C 157.57 105.93 158.56 106.63 159.60 106.45 Z M 160.57 106.27 L 161.55 106.10 C 162.59 105.93 163.29 104.95 163.11 103.92 C 162.94 102.89 161.96 102.19 160.93 102.36 L 159.95 102.52 C 158.92 102.70 158.22 103.67 158.39 104.71 C 158.56 105.74 159.54 106.44 160.57 106.27 Z M 161.54 106.09 L 162.51 105.93 C 163.54 105.77 164.24 104.80 164.07 103.78 C 163.91 102.75 162.94 102.05 161.91 102.22 L 160.94 102.37 C 159.92 102.54 159.22 103.50 159.38 104.53 C 159.55 105.56 160.51 106.25 161.54 106.09 Z M 162.50 105.92 L 163.48 105.77 C 164.49 105.61 165.19 104.65 165.03 103.64 C 164.87 102.62 163.92 101.92 162.90 102.08 L 161.93 102.23 C 160.91 102.39 160.21 103.34 160.37 104.36 C 160.53 105.38 161.48 106.08 162.50 105.92 Z M 163.46 105.75 L 164.45 105.60 C 165.46 105.45 166.16 104.51 166.00 103.50 C 165.85 102.49 164.91 101.79 163.90 101.95 L 162.91 102.09 C 161.90 102.25 161.21 103.19 161.36 104.20 C 161.51 105.21 162.45 105.90 163.46 105.75 Z M 164.44 105.59 L 165.44 105.44 C 166.45 105.30 167.14 104.37 167.00 103.37 C 166.85 102.36 165.92 101.67 164.92 101.81 L 163.91 101.96 C 162.91 102.10 162.21 103.04 162.36 104.04 C 162.51 105.04 163.44 105.74 164.44 105.59 Z M 165.43 105.43 L 166.44 105.29 C 167.44 105.15 168.13 104.23 167.99 103.23 C 167.85 102.24 166.93 101.55 165.93 101.69 L 164.93 101.83 C 163.93 101.97 163.24 102.89 163.38 103.88 C 163.52 104.88 164.44 105.57 165.43 105.43 Z M 166.43 105.28 L 167.43 105.14 C 168.42 105.01 169.11 104.10 168.98 103.11 C 168.85 102.12 167.94 101.43 166.95 101.56 L 165.94 101.70 C 164.96 101.83 164.26 102.74 164.40 103.73 C 164.53 104.72 165.44 105.41 166.43 105.28 Z M 167.42 105.13 L 168.43 105.00 C 169.41 104.87 170.10 103.97 169.98 102.99 C 169.85 102.01 168.95 101.32 167.97 101.44 L 166.96 101.57 C 165.98 101.70 165.29 102.60 165.41 103.58 C 165.54 104.56 166.44 105.25 167.42 105.13 Z M 168.41 104.98 L 169.41 104.86 C 170.39 104.74 171.08 103.86 170.96 102.88 C 170.84 101.91 169.96 101.22 168.98 101.34 L 167.98 101.46 C 167.01 101.58 166.32 102.46 166.44 103.44 C 166.55 104.41 167.44 105.10 168.41 104.98 Z M 169.39 104.85 L 170.36 104.74 C 171.33 104.63 172.03 103.76 171.92 102.79 C 171.81 101.83 170.94 101.13 169.97 101.24 L 169.00 101.35 C 168.03 101.46 167.34 102.33 167.44 103.29 C 167.55 104.26 168.43 104.96 169.39 104.85 Z M 170.34 104.73 L 171.38 104.63 C 172.34 104.53 173.04 103.68 172.95 102.72 C 172.85 101.75 172.00 101.05 171.04 101.15 L 170.00 101.25 C 169.03 101.34 168.33 102.20 168.43 103.16 C 168.52 104.12 169.38 104.83 170.34 104.73 Z M 171.35 104.62 L 172.38 104.53 C 173.33 104.45 174.04 103.61 173.96 102.66 C 173.88 101.70 173.04 100.99 172.09 101.07 L 171.06 101.16 C 170.11 101.24 169.40 102.08 169.48 103.03 C 169.56 103.99 170.40 104.70 171.35 104.62 Z M 172.35 104.52 L 173.34 104.45 C 174.28 104.38 175.00 103.56 174.93 102.61 C 174.87 101.66 174.04 100.95 173.09 101.01 L 172.11 101.08 C 171.16 101.15 170.45 101.97 170.52 102.92 C 170.58 103.87 171.41 104.59 172.35 104.52 Z M 173.32 104.44 L 174.27 104.38 C 175.21 104.33 175.93 103.52 175.87 102.57 C 175.81 101.63 175.01 100.91 174.06 100.97 L 173.11 101.03 C 172.17 101.08 171.45 101.89 171.51 102.83 C 171.56 103.78 172.37 104.49 173.32 104.44 Z M 174.25 104.37 L 175.26 104.32 C 176.19 104.27 176.91 103.47 176.87 102.54 C 176.82 101.60 176.02 100.89 175.09 100.93 L 174.08 100.98 C 173.15 101.03 172.43 101.83 172.47 102.76 C 172.52 103.70 173.32 104.42 174.25 104.37 Z M 175.24 104.31 L 176.27 104.26 C 177.20 104.22 177.92 103.44 177.88 102.51 C 177.84 101.58 177.06 100.86 176.13 100.90 L 175.10 100.94 C 174.17 100.98 173.45 101.77 173.49 102.70 C 173.53 103.62 174.32 104.34 175.24 104.31 Z M 176.25 104.25 L 177.25 104.22 C 178.17 104.19 178.89 103.41 178.86 102.49 C 178.83 101.57 178.06 100.85 177.13 100.88 L 176.14 100.91 C 175.22 100.95 174.50 101.72 174.53 102.64 C 174.56 103.56 175.33 104.28 176.25 104.25 Z M 177.23 104.20 L 178.18 104.18 C 179.09 104.16 179.82 103.40 179.79 102.49 C 179.77 101.57 179.01 100.85 178.10 100.87 L 177.15 100.89 C 176.24 100.92 175.51 101.68 175.53 102.59 C 175.56 103.50 176.32 104.23 177.23 104.20 Z M 178.16 104.17 L 179.13 104.16 C 180.03 104.14 180.76 103.40 180.75 102.49 C 180.73 101.58 179.99 100.86 179.08 100.87 L 178.12 100.88 C 177.21 100.90 176.48 101.64 176.50 102.55 C 176.51 103.46 177.26 104.18 178.16 104.17 Z M 179.11 104.15 L 180.08 104.14 C 180.98 104.13 181.71 103.40 181.70 102.50 C 181.70 101.59 180.96 100.87 180.06 100.87 L 179.09 100.88 C 178.19 100.88 177.46 101.62 177.47 102.52 C 177.47 103.42 178.21 104.15 179.11 104.15 Z M 180.07 104.13 L 181.10 104.13 C 181.99 104.13 182.72 103.40 182.72 102.50 C 182.72 101.61 181.99 100.88 181.09 100.88 L 180.07 100.88 C 179.17 100.88 178.44 101.61 178.44 102.51 C 178.45 103.40 179.17 104.13 180.07 104.13 Z M 181.09 104.12 L 182.09 104.12 C 182.99 104.12 183.71 103.40 183.71 102.51 C 183.71 101.62 182.99 100.89 182.10 100.89 L 181.10 100.89 C 180.21 100.89 179.48 101.61 179.48 102.50 C 179.48 103.39 180.20 104.12 181.09 104.12 Z M 182.07 104.11 L 183.04 104.13 C 183.93 104.15 184.66 103.44 184.68 102.56 C 184.70 101.67 183.99 100.93 183.10 100.92 L 182.13 100.90 C 181.24 100.88 180.51 101.59 180.49 102.47 C 180.47 103.36 181.18 104.09 182.07 104.11 Z M 182.97 104.12 L 183.98 104.19 C 184.86 104.25 185.63 103.58 185.68 102.70 C 185.74 101.82 185.07 101.05 184.19 100.99 L 183.18 100.93 C 182.30 100.87 181.53 101.54 181.48 102.42 C 181.42 103.30 182.08 104.06 182.97 104.12 Z M 183.86 104.17 L 184.88 104.32 C 185.75 104.44 186.56 103.84 186.68 102.96 C 186.81 102.09 186.20 101.28 185.33 101.16 L 184.31 101.01 C 183.44 100.89 182.63 101.49 182.51 102.36 C 182.38 103.24 182.99 104.04 183.86 104.17 Z M 184.71 104.28 L 185.69 104.53 C 186.54 104.75 187.41 104.24 187.63 103.39 C 187.85 102.54 187.34 101.67 186.49 101.45 L 185.50 101.20 C 184.65 100.98 183.79 101.49 183.57 102.34 C 183.35 103.19 183.86 104.06 184.71 104.28 Z M 185.50 104.46 L 186.42 104.83 C 187.23 105.15 188.15 104.76 188.48 103.95 C 188.80 103.14 188.41 102.22 187.60 101.89 L 186.68 101.52 C 185.86 101.20 184.94 101.59 184.62 102.40 C 184.29 103.22 184.69 104.14 185.50 104.46 Z M 186.28 104.76 L 187.16 105.22 C 187.93 105.62 188.88 105.32 189.29 104.55 C 189.69 103.78 189.39 102.83 188.62 102.42 L 187.74 101.96 C 186.97 101.56 186.01 101.86 185.61 102.63 C 185.21 103.40 185.50 104.35 186.28 104.76 Z M 187.06 105.16 L 187.92 105.69 C 188.66 106.14 189.63 105.91 190.08 105.17 C 190.54 104.43 190.30 103.46 189.56 103.01 L 188.71 102.48 C 187.97 102.03 187.00 102.26 186.55 103.00 C 186.09 103.74 186.32 104.71 187.06 105.16 Z M 187.87 105.65 L 188.71 106.21 C 189.43 106.69 190.40 106.49 190.88 105.77 C 191.36 105.05 191.17 104.08 190.45 103.60 L 189.61 103.04 C 188.89 102.56 187.92 102.76 187.44 103.48 C 186.96 104.20 187.15 105.17 187.87 105.65 Z M 188.70 106.20 L 188.87 106.31 C 189.58 106.80 190.56 106.61 191.04 105.90 C 191.53 105.18 191.34 104.21 190.63 103.72 L 190.46 103.61 C 189.74 103.13 188.77 103.31 188.29 104.03 C 187.80 104.74 187.99 105.71 188.70 106.20 Z"
      fill="black"
      fill-rule="nonzero" /><path d="M 129.06 161.32 L 128.03 160.67 C 127.20 160.15 126.10 160.39 125.57 161.22 C 125.04 162.06 125.29 163.16 126.12 163.68 L 127.14 164.34 C 127.98 164.86 129.08 164.62 129.61 163.78 C 130.13 162.95 129.89 161.85 129.06 161.32 Z M 128.16 160.70 L 127.28 160.05 C 126.46 159.45 125.31 159.63 124.71 160.45 C 124.11 161.27 124.29 162.42 125.11 163.02 L 125.99 163.66 C 126.81 164.26 127.96 164.08 128.56 163.26 C 129.16 162.44 128.98 161.29 128.16 160.70 Z M 127.57 160.24 L 126.98 159.60 C 126.26 158.84 125.06 158.80 124.30 159.52 C 123.54 160.24 123.50 161.43 124.22 162.20 L 124.81 162.83 C 125.53 163.59 126.73 163.63 127.49 162.91 C 128.25 162.20 128.29 161.00 127.57 160.24 Z M 127.48 160.42 L 127.32 159.78 C 127.06 158.74 126.00 158.11 124.96 158.37 C 123.91 158.64 123.28 159.70 123.55 160.74 L 123.71 161.38 C 123.98 162.42 125.04 163.05 126.08 162.79 C 127.12 162.52 127.75 161.46 127.48 160.42 Z M 127.15 161.27 L 127.54 160.61 C 128.10 159.66 127.78 158.44 126.84 157.88 C 125.89 157.32 124.67 157.64 124.11 158.59 L 123.72 159.25 C 123.16 160.19 123.47 161.41 124.42 161.97 C 125.37 162.53 126.59 162.22 127.15 161.27 Z M 127.02 161.24 L 127.86 160.62 C 128.77 159.96 128.97 158.69 128.31 157.78 C 127.64 156.88 126.37 156.68 125.47 157.34 L 124.62 157.96 C 123.72 158.62 123.52 159.89 124.18 160.80 C 124.85 161.70 126.12 161.90 127.02 161.24 Z M 127.57 160.85 L 128.69 160.30 C 129.72 159.80 130.15 158.56 129.65 157.53 C 129.15 156.50 127.91 156.07 126.88 156.58 L 125.76 157.12 C 124.73 157.62 124.30 158.86 124.80 159.89 C 125.30 160.92 126.54 161.35 127.57 160.85 Z M 128.54 160.39 L 129.47 160.03 C 130.55 159.62 131.09 158.41 130.67 157.33 C 130.25 156.25 129.04 155.71 127.96 156.13 L 127.03 156.49 C 125.95 156.90 125.42 158.11 125.83 159.19 C 126.25 160.27 127.46 160.81 128.54 160.39 Z M 129.38 160.07 L 130.35 159.74 C 131.45 159.38 132.05 158.19 131.68 157.09 C 131.31 155.99 130.13 155.40 129.03 155.76 L 128.05 156.09 C 126.95 156.46 126.36 157.64 126.73 158.74 C 127.09 159.84 128.28 160.44 129.38 160.07 Z M 130.30 159.77 L 131.28 159.47 C 132.39 159.14 133.02 157.96 132.68 156.85 C 132.35 155.74 131.18 155.11 130.06 155.45 L 129.08 155.74 C 127.97 156.08 127.34 157.25 127.68 158.36 C 128.01 159.47 129.19 160.10 130.30 159.77 Z M 131.25 159.49 L 132.19 159.22 C 133.31 158.90 133.96 157.73 133.64 156.61 C 133.32 155.49 132.16 154.84 131.04 155.16 L 130.09 155.43 C 128.97 155.75 128.32 156.92 128.64 158.04 C 128.96 159.16 130.13 159.80 131.25 159.49 Z M 132.19 159.22 L 133.18 158.94 C 134.31 158.62 134.96 157.45 134.64 156.33 C 134.32 155.21 133.15 154.56 132.03 154.88 L 131.04 155.16 C 129.92 155.48 129.27 156.65 129.58 157.77 C 129.90 158.89 131.07 159.54 132.19 159.22 Z M 133.20 158.94 L 134.18 158.65 C 135.30 158.32 135.95 157.15 135.62 156.03 C 135.30 154.91 134.13 154.27 133.01 154.59 L 132.02 154.88 C 130.90 155.20 130.25 156.38 130.58 157.50 C 130.90 158.62 132.08 159.26 133.20 158.94 Z M 134.19 158.65 L 135.11 158.38 C 136.23 158.05 136.87 156.88 136.55 155.76 C 136.22 154.64 135.05 154.00 133.93 154.32 L 133.00 154.59 C 131.88 154.92 131.24 156.09 131.57 157.21 C 131.89 158.33 133.07 158.98 134.19 158.65 Z M 135.10 158.39 L 136.01 158.13 C 137.13 157.80 137.78 156.63 137.46 155.51 C 137.14 154.39 135.97 153.74 134.85 154.06 L 133.94 154.32 C 132.82 154.64 132.17 155.81 132.49 156.93 C 132.81 158.06 133.98 158.71 135.10 158.39 Z M 135.99 158.13 L 136.94 157.87 C 138.07 157.56 138.73 156.40 138.42 155.27 C 138.11 154.14 136.95 153.48 135.82 153.79 L 134.87 154.05 C 133.74 154.36 133.08 155.53 133.39 156.65 C 133.70 157.78 134.87 158.44 135.99 158.13 Z M 136.93 157.87 L 137.90 157.61 C 139.03 157.31 139.70 156.15 139.40 155.02 C 139.09 153.89 137.93 153.22 136.80 153.53 L 135.83 153.79 C 134.70 154.09 134.03 155.25 134.34 156.38 C 134.64 157.51 135.80 158.18 136.93 157.87 Z M 137.90 157.61 L 138.88 157.35 C 140.00 157.05 140.67 155.89 140.37 154.76 C 140.07 153.63 138.91 152.96 137.78 153.26 L 136.80 153.53 C 135.68 153.83 135.01 154.99 135.31 156.12 C 135.61 157.25 136.77 157.91 137.90 157.61 Z M 138.89 157.35 L 139.86 157.08 C 140.98 156.77 141.65 155.61 141.34 154.48 C 141.03 153.36 139.87 152.69 138.74 153.00 L 137.77 153.27 C 136.64 153.58 135.98 154.74 136.29 155.87 C 136.60 156.99 137.76 157.66 138.89 157.35 Z M 139.88 157.08 L 140.84 156.80 C 141.97 156.48 142.62 155.31 142.30 154.19 C 141.98 153.07 140.81 152.41 139.69 152.73 L 138.72 153.01 C 137.60 153.32 136.94 154.49 137.26 155.62 C 137.58 156.74 138.75 157.39 139.88 157.08 Z M 140.86 156.80 L 141.81 156.52 C 142.93 156.19 143.58 155.01 143.25 153.89 C 142.92 152.77 141.74 152.13 140.62 152.46 L 139.67 152.74 C 138.55 153.07 137.91 154.24 138.24 155.36 C 138.56 156.48 139.74 157.13 140.86 156.80 Z M 141.83 156.51 L 142.78 156.23 C 143.90 155.89 144.53 154.71 144.19 153.59 C 143.86 152.47 142.67 151.84 141.56 152.18 L 140.61 152.46 C 139.49 152.80 138.86 153.98 139.19 155.10 C 139.53 156.22 140.71 156.85 141.83 156.51 Z M 142.79 156.22 L 143.74 155.93 C 144.86 155.58 145.48 154.40 145.13 153.28 C 144.79 152.17 143.61 151.54 142.49 151.89 L 141.54 152.18 C 140.43 152.53 139.80 153.71 140.15 154.83 C 140.49 155.94 141.68 156.56 142.79 156.22 Z M 143.74 155.92 L 144.70 155.62 C 145.81 155.28 146.43 154.09 146.08 152.98 C 145.74 151.87 144.56 151.25 143.44 151.60 L 142.49 151.89 C 141.38 152.24 140.76 153.42 141.10 154.54 C 141.45 155.65 142.63 156.27 143.74 155.92 Z M 144.69 155.62 L 145.65 155.32 C 146.76 154.98 147.38 153.81 147.04 152.69 C 146.70 151.58 145.52 150.96 144.41 151.30 L 143.45 151.60 C 142.34 151.94 141.72 153.12 142.06 154.23 C 142.40 155.34 143.58 155.96 144.69 155.62 Z M 145.63 155.33 L 146.59 155.04 C 147.70 154.71 148.33 153.54 148.00 152.43 C 147.67 151.32 146.50 150.68 145.39 151.02 L 144.43 151.30 C 143.32 151.64 142.69 152.81 143.02 153.92 C 143.35 155.03 144.52 155.66 145.63 155.33 Z M 146.57 155.04 L 147.53 154.76 C 148.64 154.44 149.28 153.28 148.96 152.16 C 148.63 151.05 147.47 150.42 146.36 150.74 L 145.40 151.02 C 144.29 151.34 143.66 152.50 143.98 153.61 C 144.30 154.72 145.46 155.36 146.57 155.04 Z M 147.52 154.76 L 148.48 154.48 C 149.59 154.16 150.23 153.00 149.91 151.89 C 149.59 150.78 148.44 150.15 147.33 150.47 L 146.37 150.74 C 145.26 151.06 144.62 152.22 144.94 153.33 C 145.26 154.44 146.42 155.08 147.52 154.76 Z M 148.49 154.47 L 149.45 154.19 C 150.56 153.87 151.19 152.71 150.87 151.61 C 150.55 150.50 149.39 149.87 148.29 150.19 L 147.32 150.47 C 146.22 150.79 145.58 151.95 145.90 153.06 C 146.23 154.16 147.38 154.80 148.49 154.47 Z M 149.46 154.18 L 150.40 153.90 C 151.50 153.58 152.13 152.42 151.80 151.32 C 151.48 150.22 150.32 149.59 149.22 149.92 L 148.28 150.20 C 147.18 150.53 146.55 151.68 146.88 152.78 C 147.21 153.88 148.36 154.51 149.46 154.18 Z M 150.40 153.89 L 151.36 153.61 C 152.45 153.28 153.08 152.13 152.75 151.04 C 152.42 149.94 151.27 149.32 150.18 149.65 L 149.22 149.93 C 148.13 150.25 147.50 151.41 147.83 152.50 C 148.16 153.59 149.31 154.22 150.40 153.89 Z M 151.34 153.60 L 152.31 153.32 C 153.41 153.01 154.03 151.86 153.72 150.77 C 153.40 149.68 152.26 149.05 151.17 149.37 L 150.19 149.65 C 149.10 149.97 148.47 151.11 148.79 152.20 C 149.11 153.29 150.25 153.92 151.34 153.60 Z M 152.29 153.32 L 153.24 153.06 C 154.33 152.75 154.96 151.62 154.66 150.53 C 154.36 149.44 153.23 148.80 152.14 149.11 L 151.19 149.37 C 150.10 149.67 149.46 150.80 149.76 151.89 C 150.07 152.98 151.20 153.62 152.29 153.32 Z M 153.21 153.05 L 154.14 152.81 C 155.23 152.52 155.88 151.40 155.59 150.31 C 155.30 149.22 154.18 148.57 153.09 148.86 L 152.16 149.11 C 151.07 149.40 150.43 150.52 150.71 151.61 C 151.00 152.69 152.12 153.34 153.21 153.05 Z M 154.12 152.80 L 155.09 152.55 C 156.17 152.27 156.83 151.17 156.55 150.08 C 156.27 148.99 155.16 148.34 154.07 148.62 L 153.11 148.87 C 152.02 149.15 151.37 150.26 151.65 151.34 C 151.93 152.43 153.04 153.08 154.12 152.80 Z M 155.08 152.55 L 156.08 152.29 C 157.17 152.02 157.82 150.92 157.55 149.83 C 157.27 148.75 156.17 148.10 155.09 148.37 L 154.08 148.63 C 153.00 148.90 152.34 150.00 152.62 151.08 C 152.89 152.17 153.99 152.82 155.08 152.55 Z M 156.08 152.28 L 157.06 152.03 C 158.14 151.76 158.79 150.66 158.52 149.59 C 158.24 148.51 157.15 147.86 156.07 148.13 L 155.09 148.38 C 154.01 148.66 153.36 149.75 153.64 150.83 C 153.91 151.90 155.00 152.55 156.08 152.28 Z M 157.06 152.02 L 158.02 151.78 C 159.09 151.51 159.74 150.42 159.47 149.35 C 159.20 148.28 158.11 147.63 157.04 147.90 L 156.08 148.14 C 155.01 148.41 154.36 149.50 154.63 150.57 C 154.90 151.64 155.99 152.29 157.06 152.02 Z M 158.01 151.77 L 158.99 151.52 C 160.06 151.26 160.71 150.18 160.44 149.11 C 160.17 148.05 159.09 147.40 158.03 147.66 L 157.05 147.91 C 155.98 148.18 155.33 149.26 155.60 150.32 C 155.87 151.39 156.95 152.03 158.01 151.77 Z M 158.98 151.51 L 159.96 151.27 C 161.02 151.02 161.67 149.95 161.42 148.89 C 161.16 147.83 160.09 147.18 159.03 147.43 L 158.04 147.67 C 156.98 147.93 156.33 149.00 156.59 150.06 C 156.85 151.12 157.92 151.77 158.98 151.51 Z M 159.94 151.27 L 160.92 151.04 C 161.98 150.79 162.63 149.74 162.39 148.68 C 162.14 147.62 161.09 146.97 160.03 147.21 L 159.05 147.44 C 157.99 147.69 157.34 148.74 157.58 149.80 C 157.83 150.86 158.89 151.51 159.94 151.27 Z M 160.89 151.03 L 161.90 150.81 C 162.95 150.58 163.61 149.54 163.38 148.49 C 163.15 147.43 162.11 146.77 161.06 147.00 L 160.06 147.22 C 159.00 147.45 158.34 148.49 158.57 149.54 C 158.80 150.60 159.84 151.26 160.89 151.03 Z M 161.87 150.80 L 162.85 150.60 C 163.90 150.39 164.57 149.36 164.36 148.31 C 164.14 147.27 163.12 146.59 162.07 146.81 L 161.09 147.01 C 160.04 147.22 159.36 148.25 159.58 149.30 C 159.79 150.34 160.82 151.02 161.87 150.80 Z M 162.82 150.59 L 163.79 150.41 C 164.84 150.21 165.52 149.20 165.32 148.15 C 165.12 147.11 164.11 146.43 163.07 146.63 L 162.10 146.81 C 161.05 147.02 160.37 148.02 160.57 149.07 C 160.77 150.11 161.78 150.79 162.82 150.59 Z M 163.77 150.40 L 164.74 150.22 C 165.78 150.03 166.47 149.04 166.28 148.00 C 166.09 146.96 165.10 146.27 164.06 146.46 L 163.09 146.64 C 162.05 146.82 161.36 147.82 161.55 148.86 C 161.74 149.90 162.73 150.59 163.77 150.40 Z M 164.72 150.21 L 165.69 150.04 C 166.73 149.86 167.42 148.88 167.24 147.85 C 167.06 146.82 166.08 146.13 165.05 146.30 L 164.08 146.47 C 163.04 146.65 162.35 147.63 162.53 148.66 C 162.71 149.70 163.69 150.39 164.72 150.21 Z M 165.68 150.03 L 166.66 149.87 C 167.68 149.70 168.38 148.73 168.21 147.71 C 168.04 146.68 167.08 145.99 166.05 146.15 L 165.07 146.32 C 164.04 146.48 163.35 147.45 163.51 148.48 C 163.68 149.50 164.65 150.20 165.68 150.03 Z M 166.64 149.86 L 167.63 149.70 C 168.65 149.54 169.34 148.59 169.19 147.57 C 169.03 146.55 168.07 145.86 167.06 146.01 L 166.07 146.17 C 165.05 146.33 164.35 147.28 164.51 148.30 C 164.67 149.32 165.62 150.01 166.64 149.86 Z M 167.61 149.69 L 168.61 149.54 C 169.62 149.39 170.32 148.45 170.17 147.44 C 170.02 146.43 169.08 145.73 168.07 145.88 L 167.07 146.03 C 166.06 146.18 165.36 147.12 165.51 148.13 C 165.66 149.14 166.60 149.84 167.61 149.69 Z M 168.59 149.53 L 169.59 149.39 C 170.59 149.25 171.29 148.33 171.16 147.32 C 171.02 146.32 170.09 145.62 169.08 145.76 L 168.09 145.89 C 167.08 146.03 166.38 146.96 166.52 147.96 C 166.66 148.97 167.59 149.67 168.59 149.53 Z M 169.57 149.38 L 170.57 149.25 C 171.57 149.12 172.27 148.21 172.14 147.21 C 172.01 146.21 171.10 145.51 170.10 145.64 L 169.10 145.77 C 168.10 145.90 167.40 146.81 167.53 147.81 C 167.66 148.81 168.57 149.51 169.57 149.38 Z M 170.55 149.24 L 171.55 149.12 C 172.54 149.00 173.24 148.10 173.12 147.11 C 173.00 146.12 172.11 145.41 171.11 145.53 L 170.12 145.65 C 169.13 145.77 168.42 146.67 168.54 147.66 C 168.66 148.65 169.56 149.36 170.55 149.24 Z M 171.53 149.10 L 172.52 148.99 C 173.50 148.89 174.21 148.00 174.10 147.02 C 174.00 146.04 173.11 145.33 172.13 145.43 L 171.14 145.54 C 170.15 145.65 169.44 146.54 169.55 147.52 C 169.66 148.50 170.54 149.21 171.53 149.10 Z M 172.50 148.98 L 173.49 148.88 C 174.46 148.79 175.18 147.92 175.08 146.94 C 174.99 145.97 174.12 145.25 173.14 145.35 L 172.15 145.45 C 171.17 145.54 170.46 146.41 170.56 147.39 C 170.65 148.36 171.52 149.08 172.50 148.98 Z M 173.46 148.87 L 174.49 148.78 C 175.46 148.70 176.18 147.85 176.09 146.88 C 176.01 145.91 175.16 145.19 174.19 145.27 L 173.16 145.36 C 172.19 145.44 171.48 146.30 171.56 147.27 C 171.64 148.24 172.49 148.96 173.46 148.87 Z M 174.47 148.77 L 175.47 148.70 C 176.44 148.63 177.16 147.79 177.09 146.83 C 177.02 145.87 176.18 145.14 175.22 145.21 L 174.21 145.29 C 173.25 145.36 172.53 146.19 172.60 147.16 C 172.67 148.12 173.50 148.84 174.47 148.77 Z M 175.45 148.69 L 176.44 148.62 C 177.40 148.56 178.12 147.74 178.06 146.78 C 178.00 145.83 177.18 145.10 176.22 145.16 L 175.24 145.23 C 174.28 145.29 173.56 146.11 173.62 147.06 C 173.68 148.02 174.50 148.75 175.45 148.69 Z M 176.42 148.61 L 177.39 148.56 C 178.34 148.51 179.07 147.70 179.02 146.75 C 178.97 145.80 178.16 145.07 177.21 145.12 L 176.24 145.18 C 175.29 145.23 174.56 146.04 174.62 146.99 C 174.67 147.93 175.48 148.66 176.42 148.61 Z M 177.38 148.54 L 178.40 148.50 C 179.34 148.45 180.07 147.65 180.02 146.71 C 179.98 145.77 179.18 145.05 178.24 145.09 L 177.22 145.14 C 176.28 145.18 175.55 145.98 175.60 146.92 C 175.64 147.86 176.44 148.59 177.38 148.54 Z M 178.39 148.48 L 179.39 148.44 C 180.32 148.40 181.05 147.62 181.01 146.68 C 180.97 145.75 180.18 145.02 179.25 145.06 L 178.25 145.10 C 177.32 145.14 176.59 145.93 176.63 146.86 C 176.67 147.80 177.46 148.52 178.39 148.48 Z M 179.38 148.43 L 180.37 148.39 C 181.30 148.36 182.02 147.58 181.98 146.65 C 181.95 145.73 181.17 145.00 180.25 145.04 L 179.26 145.08 C 178.33 145.11 177.61 145.89 177.64 146.81 C 177.68 147.74 178.46 148.46 179.38 148.43 Z M 180.37 148.38 L 181.35 148.34 C 182.27 148.31 182.98 147.54 182.95 146.62 C 182.92 145.70 182.15 144.98 181.23 145.02 L 180.25 145.05 C 179.33 145.09 178.61 145.86 178.65 146.77 C 178.68 147.69 179.45 148.41 180.37 148.38 Z M 181.35 148.33 L 182.33 148.30 C 183.24 148.26 183.95 147.50 183.92 146.59 C 183.89 145.68 183.12 144.96 182.21 145.00 L 181.23 145.03 C 180.32 145.06 179.61 145.83 179.64 146.74 C 179.67 147.65 180.43 148.36 181.35 148.33 Z M 182.32 148.29 L 183.31 148.25 C 184.22 148.23 184.93 147.47 184.90 146.56 C 184.87 145.66 184.11 144.95 183.21 144.98 L 182.22 145.01 C 181.31 145.03 180.60 145.79 180.63 146.70 C 180.66 147.60 181.41 148.31 182.32 148.29 Z M 183.30 148.24 L 184.32 148.22 C 185.21 148.20 185.93 147.45 185.90 146.55 C 185.88 145.65 185.13 144.94 184.23 144.96 L 183.22 144.99 C 182.32 145.01 181.61 145.76 181.63 146.66 C 181.65 147.56 182.40 148.27 183.30 148.24 Z M 184.30 148.21 L 185.33 148.19 C 186.22 148.18 186.94 147.44 186.92 146.55 C 186.91 145.65 186.17 144.94 185.28 144.95 L 184.25 144.97 C 183.35 144.99 182.64 145.72 182.66 146.62 C 182.67 147.51 183.41 148.22 184.30 148.21 Z M 185.29 148.18 L 186.32 148.19 C 187.21 148.20 187.94 147.48 187.94 146.59 C 187.95 145.70 187.24 144.98 186.35 144.97 L 185.32 144.96 C 184.43 144.96 183.70 145.67 183.70 146.56 C 183.69 147.45 184.40 148.18 185.29 148.18 Z M 186.24 148.18 L 187.25 148.24 C 188.13 148.30 188.89 147.62 188.95 146.74 C 189.00 145.86 188.33 145.10 187.45 145.05 L 186.43 144.98 C 185.55 144.93 184.79 145.60 184.74 146.48 C 184.68 147.36 185.35 148.12 186.24 148.18 Z M 187.10 148.22 L 188.06 148.37 C 188.93 148.50 189.75 147.90 189.88 147.03 C 190.02 146.17 189.42 145.35 188.55 145.22 L 187.59 145.07 C 186.72 144.93 185.91 145.53 185.77 146.40 C 185.64 147.27 186.23 148.08 187.10 148.22 Z M 187.84 148.31 L 188.79 148.60 C 189.62 148.86 190.51 148.39 190.77 147.55 C 191.03 146.72 190.56 145.83 189.72 145.57 L 188.77 145.28 C 187.94 145.02 187.05 145.49 186.79 146.32 C 186.53 147.16 187.00 148.05 187.84 148.31 Z M 188.55 148.49 L 189.44 148.94 C 190.22 149.33 191.17 149.02 191.56 148.24 C 191.95 147.46 191.64 146.51 190.86 146.12 L 189.96 145.67 C 189.18 145.28 188.23 145.60 187.84 146.38 C 187.45 147.15 187.77 148.10 188.55 148.49 Z M 189.28 148.84 L 190.10 149.39 C 190.83 149.86 191.80 149.67 192.28 148.94 C 192.76 148.22 192.56 147.24 191.84 146.77 L 191.02 146.22 C 190.29 145.75 189.32 145.94 188.84 146.67 C 188.36 147.39 188.56 148.37 189.28 148.84 Z M 190.04 149.33 L 190.67 149.80 C 191.37 150.31 192.34 150.17 192.86 149.47 C 193.37 148.78 193.22 147.80 192.53 147.28 L 191.90 146.82 C 191.21 146.31 190.23 146.45 189.71 147.15 C 189.20 147.84 189.35 148.82 190.04 149.33 Z"
      fill="black"
      fill-rule="nonzero" /><path d="M 82.19 228.95 L 83.17 228.57 C 84.11 228.20 84.57 227.15 84.21 226.22 C 83.85 225.28 82.80 224.82 81.86 225.18 L 80.88 225.56 C 79.94 225.93 79.48 226.98 79.84 227.91 C 80.20 228.85 81.25 229.31 82.19 228.95 Z M 83.18 228.62 L 84.16 228.25 C 85.12 227.89 85.61 226.81 85.24 225.84 C 84.88 224.88 83.80 224.39 82.83 224.76 L 81.86 225.12 C 80.89 225.49 80.40 226.57 80.77 227.54 C 81.14 228.50 82.22 228.99 83.18 228.62 Z M 84.15 228.31 L 85.10 227.97 C 86.10 227.61 86.61 226.51 86.25 225.51 C 85.89 224.51 84.79 223.99 83.79 224.35 L 82.84 224.69 C 81.84 225.05 81.32 226.16 81.68 227.16 C 82.04 228.16 83.15 228.68 84.15 228.31 Z M 85.07 228.04 L 85.98 227.74 C 87.02 227.39 87.58 226.27 87.24 225.23 C 86.89 224.20 85.77 223.63 84.73 223.98 L 83.82 224.28 C 82.78 224.63 82.22 225.75 82.57 226.79 C 82.91 227.82 84.03 228.38 85.07 228.04 Z M 85.92 227.81 L 86.83 227.54 C 87.91 227.23 88.53 226.11 88.21 225.03 C 87.90 223.95 86.78 223.33 85.70 223.65 L 84.79 223.91 C 83.72 224.22 83.10 225.34 83.41 226.42 C 83.72 227.50 84.85 228.12 85.92 227.81 Z M 86.73 227.60 L 87.74 227.37 C 88.85 227.11 89.54 226.01 89.29 224.90 C 89.03 223.79 87.93 223.10 86.82 223.36 L 85.80 223.59 C 84.70 223.85 84.01 224.95 84.26 226.06 C 84.52 227.16 85.62 227.85 86.73 227.60 Z M 87.64 227.39 L 88.61 227.22 C 89.73 227.02 90.48 225.95 90.29 224.83 C 90.09 223.71 89.02 222.96 87.89 223.16 L 86.92 223.33 C 85.80 223.53 85.05 224.60 85.25 225.72 C 85.45 226.84 86.52 227.59 87.64 227.39 Z M 88.55 227.24 L 89.51 227.10 C 90.64 226.94 91.42 225.89 91.26 224.75 C 91.09 223.62 90.04 222.83 88.91 223.00 L 87.95 223.14 C 86.82 223.30 86.04 224.35 86.20 225.49 C 86.36 226.62 87.42 227.41 88.55 227.24 Z M 89.50 227.11 L 90.45 226.98 C 91.59 226.82 92.38 225.77 92.22 224.63 C 92.06 223.49 91.01 222.70 89.87 222.86 L 88.92 222.99 C 87.78 223.15 86.99 224.20 87.15 225.34 C 87.31 226.48 88.36 227.27 89.50 227.11 Z M 90.47 226.98 L 91.42 226.84 C 92.56 226.67 93.35 225.61 93.18 224.47 C 93.01 223.33 91.95 222.54 90.80 222.71 L 89.85 222.85 C 88.71 223.02 87.93 224.08 88.10 225.22 C 88.27 226.37 89.33 227.15 90.47 226.98 Z M 91.44 226.85 L 92.42 226.69 C 93.56 226.51 94.34 225.44 94.17 224.30 C 93.99 223.15 92.91 222.37 91.77 222.55 L 90.79 222.71 C 89.64 222.89 88.86 223.96 89.04 225.10 C 89.22 226.24 90.29 227.03 91.44 226.85 Z M 92.43 226.70 L 93.45 226.53 C 94.59 226.34 95.37 225.26 95.18 224.12 C 95.00 222.97 93.92 222.19 92.77 222.38 L 91.76 222.55 C 90.61 222.73 89.83 223.81 90.02 224.96 C 90.21 226.11 91.29 226.88 92.43 226.70 Z M 93.46 226.54 L 94.47 226.37 C 95.62 226.17 96.39 225.08 96.20 223.94 C 96.01 222.79 94.92 222.01 93.77 222.21 L 92.76 222.38 C 91.61 222.57 90.84 223.66 91.03 224.81 C 91.22 225.95 92.31 226.73 93.46 226.54 Z M 94.48 226.37 L 95.41 226.21 C 96.56 226.01 97.33 224.92 97.13 223.77 C 96.94 222.62 95.84 221.84 94.69 222.04 L 93.76 222.20 C 92.61 222.40 91.84 223.49 92.04 224.64 C 92.23 225.79 93.33 226.57 94.48 226.37 Z M 95.42 226.21 L 96.38 226.04 C 97.53 225.84 98.30 224.74 98.10 223.59 C 97.89 222.44 96.79 221.67 95.64 221.87 L 94.68 222.04 C 93.53 222.24 92.76 223.34 92.97 224.49 C 93.17 225.65 94.27 226.41 95.42 226.21 Z M 96.39 226.04 L 97.39 225.86 C 98.54 225.65 99.30 224.54 99.09 223.39 C 98.88 222.24 97.77 221.48 96.62 221.69 L 95.63 221.87 C 94.48 222.08 93.72 223.19 93.93 224.34 C 94.14 225.49 95.24 226.25 96.39 226.04 Z M 97.40 225.86 L 98.43 225.66 C 99.58 225.45 100.34 224.33 100.12 223.18 C 99.90 222.03 98.79 221.27 97.64 221.49 L 96.61 221.69 C 95.45 221.91 94.70 223.02 94.92 224.17 C 95.14 225.32 96.25 226.08 97.40 225.86 Z M 98.45 225.66 L 99.42 225.47 C 100.58 225.24 101.33 224.13 101.10 222.97 C 100.87 221.82 99.75 221.07 98.60 221.30 L 97.62 221.49 C 96.47 221.72 95.72 222.84 95.95 223.99 C 96.18 225.14 97.29 225.89 98.45 225.66 Z M 99.44 225.47 L 100.37 225.28 C 101.52 225.05 102.27 223.92 102.03 222.77 C 101.80 221.62 100.67 220.87 99.52 221.11 L 98.59 221.30 C 97.43 221.53 96.69 222.66 96.93 223.81 C 97.16 224.96 98.28 225.71 99.44 225.47 Z M 100.38 225.28 L 101.34 225.08 C 102.50 224.84 103.24 223.71 103.00 222.56 C 102.76 221.41 101.63 220.67 100.47 220.91 L 99.51 221.11 C 98.36 221.35 97.62 222.48 97.86 223.63 C 98.10 224.78 99.23 225.52 100.38 225.28 Z M 101.35 225.08 L 102.34 224.87 C 103.49 224.63 104.23 223.50 103.98 222.34 C 103.74 221.19 102.61 220.45 101.46 220.70 L 100.47 220.91 C 99.31 221.15 98.58 222.28 98.82 223.44 C 99.06 224.59 100.20 225.33 101.35 225.08 Z M 102.34 224.87 L 103.36 224.66 C 104.51 224.41 105.25 223.28 105.00 222.12 C 104.75 220.97 103.62 220.23 102.46 220.48 L 101.45 220.70 C 100.30 220.94 99.56 222.08 99.81 223.23 C 100.06 224.39 101.19 225.12 102.34 224.87 Z M 103.36 224.66 L 104.39 224.44 C 105.55 224.19 106.28 223.05 106.03 221.90 C 105.78 220.74 104.65 220.01 103.49 220.26 L 102.46 220.48 C 101.30 220.73 100.57 221.86 100.82 223.02 C 101.07 224.17 102.21 224.91 103.36 224.66 Z M 104.39 224.44 L 105.32 224.24 C 106.47 223.99 107.21 222.85 106.96 221.69 C 106.71 220.54 105.57 219.81 104.41 220.06 L 103.49 220.25 C 102.33 220.50 101.60 221.64 101.85 222.80 C 102.10 223.95 103.24 224.69 104.39 224.44 Z M 105.32 224.24 L 106.25 224.04 C 107.41 223.79 108.14 222.65 107.89 221.49 C 107.64 220.34 106.50 219.60 105.35 219.85 L 104.41 220.06 C 103.26 220.31 102.52 221.44 102.77 222.60 C 103.02 223.75 104.16 224.49 105.32 224.24 Z M 106.25 224.04 L 107.21 223.83 C 108.36 223.58 109.10 222.44 108.85 221.29 C 108.60 220.13 107.46 219.40 106.30 219.65 L 105.35 219.85 C 104.19 220.10 103.46 221.24 103.71 222.40 C 103.96 223.55 105.10 224.29 106.25 224.04 Z M 107.21 223.83 L 108.18 223.62 C 109.34 223.37 110.07 222.23 109.83 221.08 C 109.58 219.92 108.44 219.19 107.28 219.43 L 106.30 219.65 C 105.15 219.90 104.41 221.03 104.66 222.19 C 104.91 223.35 106.05 224.08 107.21 223.83 Z M 108.18 223.62 L 109.19 223.40 C 110.34 223.15 111.08 222.02 110.83 220.86 C 110.58 219.70 109.44 218.97 108.29 219.22 L 107.28 219.43 C 106.13 219.68 105.39 220.82 105.64 221.98 C 105.89 223.13 107.03 223.87 108.18 223.62 Z M 109.19 223.40 L 110.22 223.18 C 111.38 222.93 112.12 221.80 111.87 220.64 C 111.62 219.48 110.48 218.75 109.33 218.99 L 108.29 219.22 C 107.13 219.47 106.40 220.60 106.65 221.76 C 106.89 222.92 108.03 223.65 109.19 223.40 Z M 110.22 223.18 L 111.18 222.98 C 112.34 222.73 113.08 221.59 112.83 220.44 C 112.58 219.28 111.45 218.54 110.29 218.79 L 109.33 218.99 C 108.17 219.24 107.43 220.38 107.68 221.54 C 107.93 222.69 109.07 223.43 110.22 223.18 Z M 111.18 222.98 L 112.09 222.79 C 113.25 222.54 113.99 221.40 113.74 220.24 C 113.50 219.09 112.36 218.35 111.20 218.59 L 110.29 218.79 C 109.13 219.03 108.39 220.17 108.64 221.33 C 108.89 222.49 110.02 223.22 111.18 222.98 Z M 112.09 222.79 L 113.03 222.59 C 114.19 222.35 114.93 221.21 114.68 220.05 C 114.44 218.89 113.30 218.15 112.14 218.39 L 111.20 218.59 C 110.05 218.84 109.31 219.97 109.55 221.13 C 109.79 222.29 110.93 223.03 112.09 222.79 Z M 113.02 222.59 L 113.98 222.39 C 115.14 222.15 115.89 221.01 115.64 219.85 C 115.40 218.69 114.26 217.95 113.10 218.19 L 112.14 218.39 C 110.98 218.63 110.24 219.77 110.48 220.93 C 110.73 222.09 111.86 222.84 113.02 222.59 Z M 113.98 222.39 L 114.97 222.19 C 116.13 221.95 116.87 220.81 116.63 219.65 C 116.39 218.49 115.25 217.74 114.09 217.98 L 113.11 218.19 C 111.95 218.43 111.20 219.57 111.44 220.73 C 111.68 221.89 112.82 222.63 113.98 222.39 Z M 114.96 222.19 L 115.97 221.98 C 117.13 221.74 117.88 220.61 117.64 219.44 C 117.40 218.28 116.27 217.53 115.10 217.77 L 114.10 217.98 C 112.93 218.22 112.18 219.36 112.42 220.52 C 112.66 221.68 113.80 222.43 114.96 222.19 Z M 115.97 221.99 L 117.00 221.77 C 118.17 221.54 118.92 220.40 118.68 219.24 C 118.44 218.07 117.31 217.32 116.14 217.56 L 115.11 217.77 C 113.94 218.01 113.19 219.14 113.43 220.31 C 113.67 221.47 114.80 222.22 115.97 221.99 Z M 117.00 221.78 L 118.06 221.56 C 119.22 221.33 119.98 220.19 119.74 219.03 C 119.51 217.86 118.37 217.11 117.21 217.34 L 116.15 217.56 C 114.98 217.79 114.23 218.93 114.46 220.09 C 114.70 221.26 115.83 222.01 117.00 221.78 Z M 118.05 221.57 L 118.99 221.38 C 120.16 221.15 120.92 220.01 120.68 218.85 C 120.45 217.68 119.32 216.92 118.15 217.15 L 117.21 217.34 C 116.04 217.57 115.28 218.71 115.52 219.87 C 115.75 221.04 116.88 221.80 118.05 221.57 Z M 118.99 221.38 L 119.93 221.20 C 121.09 220.97 121.86 219.83 121.63 218.66 C 121.39 217.49 120.26 216.73 119.09 216.96 L 118.15 217.15 C 116.98 217.38 116.22 218.51 116.45 219.68 C 116.68 220.85 117.82 221.61 118.99 221.38 Z M 119.92 221.20 L 120.88 221.02 C 122.05 220.79 122.81 219.65 122.58 218.48 C 122.35 217.31 121.22 216.54 120.05 216.77 L 119.09 216.96 C 117.92 217.19 117.16 218.32 117.39 219.50 C 117.61 220.67 118.75 221.43 119.92 221.20 Z M 120.87 221.02 L 121.84 220.83 C 123.02 220.61 123.78 219.47 123.56 218.30 C 123.33 217.12 122.19 216.36 121.02 216.58 L 120.05 216.77 C 118.88 217.00 118.11 218.13 118.34 219.31 C 118.56 220.48 119.70 221.25 120.87 221.02 Z M 121.84 220.84 L 122.82 220.65 C 124.00 220.43 124.77 219.29 124.54 218.11 C 124.32 216.94 123.18 216.16 122.01 216.39 L 121.02 216.58 C 119.85 216.80 119.07 217.94 119.30 219.12 C 119.53 220.29 120.66 221.06 121.84 220.84 Z M 122.82 220.65 L 123.81 220.47 C 124.99 220.24 125.77 219.11 125.54 217.93 C 125.32 216.75 124.18 215.97 123.01 216.20 L 122.01 216.39 C 120.83 216.61 120.06 217.75 120.28 218.92 C 120.50 220.10 121.64 220.88 122.82 220.65 Z M 123.81 220.47 L 124.82 220.28 C 126.00 220.06 126.78 218.92 126.56 217.74 C 126.34 216.56 125.20 215.78 124.02 216.00 L 123.01 216.19 C 121.83 216.41 121.05 217.55 121.27 218.73 C 121.49 219.91 122.63 220.69 123.81 220.47 Z M 124.82 220.28 L 125.84 220.09 C 127.02 219.87 127.80 218.74 127.58 217.55 C 127.36 216.37 126.23 215.59 125.04 215.81 L 124.02 216.00 C 122.84 216.22 122.06 217.36 122.28 218.54 C 122.50 219.72 123.63 220.50 124.82 220.28 Z M 125.84 220.10 L 126.87 219.91 C 128.05 219.69 128.84 218.55 128.62 217.37 C 128.40 216.18 127.26 215.40 126.08 215.61 L 125.04 215.80 C 123.86 216.02 123.07 217.16 123.29 218.35 C 123.51 219.53 124.65 220.32 125.84 220.10 Z M 126.86 219.91 L 127.85 219.73 C 129.03 219.52 129.82 218.38 129.60 217.19 C 129.39 216.00 128.25 215.21 127.06 215.43 L 126.08 215.61 C 124.89 215.83 124.10 216.97 124.32 218.15 C 124.54 219.34 125.68 220.13 126.86 219.91 Z M 127.84 219.74 L 128.82 219.56 C 130.01 219.35 130.80 218.21 130.58 217.02 C 130.37 215.82 129.23 215.03 128.04 215.25 L 127.06 215.43 C 125.87 215.64 125.08 216.78 125.30 217.97 C 125.51 219.16 126.65 219.95 127.84 219.74 Z M 128.82 219.57 L 129.80 219.39 C 130.99 219.17 131.79 218.03 131.57 216.84 C 131.36 215.65 130.21 214.85 129.02 215.07 L 128.04 215.25 C 126.85 215.46 126.05 216.60 126.27 217.80 C 126.48 218.99 127.62 219.78 128.82 219.57 Z M 129.80 219.39 L 130.78 219.22 C 131.98 219.00 132.78 217.86 132.56 216.66 C 132.35 215.47 131.20 214.67 130.01 214.89 L 129.02 215.06 C 127.83 215.28 127.03 216.42 127.24 217.62 C 127.46 218.81 128.60 219.61 129.80 219.39 Z M 130.78 219.22 L 131.77 219.05 C 132.97 218.83 133.77 217.69 133.55 216.49 C 133.34 215.29 132.20 214.49 131.00 214.71 L 130.01 214.88 C 128.81 215.10 128.01 216.24 128.23 217.44 C 128.44 218.64 129.59 219.44 130.78 219.22 Z M 131.77 219.05 L 132.76 218.87 C 133.96 218.66 134.76 217.51 134.55 216.31 C 134.34 215.11 133.19 214.31 131.99 214.52 L 131.00 214.70 C 129.80 214.92 129.00 216.06 129.21 217.26 C 129.43 218.46 130.57 219.26 131.77 219.05 Z M 132.76 218.88 L 133.75 218.70 C 134.96 218.48 135.76 217.34 135.54 216.13 C 135.33 214.93 134.18 214.13 132.98 214.34 L 131.99 214.52 C 130.78 214.73 129.98 215.88 130.20 217.09 C 130.41 218.29 131.56 219.09 132.76 218.88 Z M 133.76 218.70 L 134.75 218.53 C 135.95 218.31 136.75 217.16 136.54 215.95 C 136.32 214.75 135.17 213.95 133.96 214.16 L 132.98 214.34 C 131.77 214.55 130.97 215.71 131.18 216.91 C 131.40 218.12 132.55 218.92 133.76 218.70 Z M 134.75 218.53 L 135.73 218.35 C 136.94 218.14 137.74 216.98 137.53 215.78 C 137.31 214.57 136.16 213.76 134.95 213.98 L 133.96 214.16 C 132.75 214.37 131.95 215.53 132.17 216.74 C 132.38 217.94 133.54 218.75 134.75 218.53 Z M 135.74 218.36 L 136.72 218.18 C 137.93 217.96 138.73 216.81 138.52 215.60 C 138.30 214.39 137.14 213.58 135.93 213.80 L 134.95 213.98 C 133.74 214.20 132.93 215.35 133.15 216.56 C 133.37 217.77 134.53 218.58 135.74 218.36 Z M 136.72 218.18 L 137.73 218.00 C 138.94 217.78 139.74 216.62 139.52 215.41 C 139.30 214.20 138.14 213.40 136.93 213.61 L 135.93 213.80 C 134.72 214.02 133.91 215.18 134.13 216.39 C 134.35 217.60 135.51 218.40 136.72 218.18 Z M 137.73 218.01 L 138.73 217.82 C 139.94 217.60 140.74 216.44 140.52 215.23 C 140.30 214.01 139.14 213.21 137.93 213.43 L 136.93 213.61 C 135.72 213.83 134.91 215.00 135.13 216.21 C 135.35 217.42 136.52 218.23 137.73 218.01 Z M 138.73 217.83 L 139.72 217.64 C 140.94 217.42 141.74 216.26 141.52 215.04 C 141.30 213.83 140.13 213.02 138.92 213.25 L 137.92 213.43 C 136.71 213.65 135.90 214.81 136.13 216.03 C 136.35 217.24 137.51 218.05 138.73 217.83 Z M 139.72 217.65 L 140.71 217.47 C 141.93 217.24 142.73 216.07 142.51 214.86 C 142.28 213.64 141.12 212.84 139.90 213.06 L 138.91 213.24 C 137.70 213.47 136.89 214.63 137.12 215.85 C 137.34 217.07 138.51 217.87 139.72 217.65 Z M 140.71 217.47 L 141.70 217.29 C 142.91 217.06 143.72 215.89 143.49 214.67 C 143.27 213.46 142.10 212.65 140.88 212.88 L 139.90 213.06 C 138.68 213.28 137.87 214.45 138.10 215.67 C 138.33 216.89 139.50 217.69 140.71 217.47 Z M 141.70 217.29 L 142.68 217.11 C 143.90 216.88 144.70 215.71 144.48 214.49 C 144.25 213.27 143.08 212.46 141.86 212.69 L 140.88 212.87 C 139.66 213.10 138.85 214.27 139.08 215.49 C 139.31 216.71 140.48 217.52 141.70 217.29 Z M 142.68 217.11 L 143.65 216.93 C 144.88 216.70 145.68 215.53 145.45 214.31 C 145.23 213.08 144.05 212.28 142.83 212.51 L 141.85 212.69 C 140.63 212.92 139.83 214.09 140.05 215.31 C 140.28 216.53 141.46 217.34 142.68 217.11 Z M 143.66 216.93 L 144.63 216.75 C 145.85 216.52 146.66 215.34 146.43 214.12 C 146.20 212.90 145.02 212.09 143.80 212.32 L 142.83 212.50 C 141.60 212.73 140.80 213.91 141.03 215.13 C 141.26 216.36 142.43 217.16 143.66 216.93 Z M 144.63 216.75 L 145.60 216.57 C 146.82 216.34 147.63 215.16 147.40 213.94 C 147.17 212.71 145.99 211.91 144.76 212.14 L 143.80 212.32 C 142.57 212.55 141.76 213.73 141.99 214.95 C 142.22 216.18 143.40 216.98 144.63 216.75 Z M 145.60 216.58 L 146.61 216.39 C 147.83 216.15 148.64 214.97 148.41 213.75 C 148.18 212.52 147.00 211.71 145.77 211.94 L 144.76 212.13 C 143.53 212.36 142.73 213.55 142.96 214.77 C 143.19 216.00 144.37 216.81 145.60 216.58 Z M 146.61 216.39 L 147.63 216.20 C 148.86 215.96 149.67 214.78 149.44 213.55 C 149.21 212.32 148.02 211.51 146.79 211.75 L 145.77 211.94 C 144.54 212.17 143.73 213.36 143.96 214.58 C 144.19 215.81 145.38 216.62 146.61 216.39 Z M 147.64 216.20 L 148.66 216.01 C 149.89 215.77 150.69 214.59 150.46 213.36 C 150.23 212.13 149.04 211.32 147.81 211.55 L 146.79 211.74 C 145.56 211.97 144.75 213.16 144.99 214.39 C 145.22 215.62 146.41 216.43 147.64 216.20 Z M 148.66 216.01 L 149.66 215.82 C 150.90 215.59 151.71 214.40 151.47 213.16 C 151.24 211.93 150.05 211.12 148.82 211.36 L 147.81 211.55 C 146.58 211.78 145.77 212.97 146.00 214.20 C 146.23 215.43 147.42 216.24 148.66 216.01 Z M 149.66 215.82 L 150.66 215.63 C 151.89 215.40 152.71 214.21 152.47 212.98 C 152.24 211.74 151.05 210.93 149.82 211.16 L 148.82 211.35 C 147.59 211.58 146.77 212.77 147.01 214.01 C 147.24 215.24 148.43 216.06 149.66 215.82 Z M 150.66 215.64 L 151.64 215.45 C 152.88 215.22 153.69 214.03 153.46 212.79 C 153.22 211.56 152.03 210.74 150.80 210.98 L 149.82 211.16 C 148.58 211.39 147.77 212.58 148.00 213.82 C 148.23 215.06 149.42 215.87 150.66 215.64 Z M 151.64 215.46 L 152.60 215.28 C 153.84 215.05 154.65 213.85 154.42 212.61 C 154.19 211.38 153.00 210.56 151.76 210.79 L 150.80 210.97 C 149.56 211.20 148.74 212.40 148.97 213.63 C 149.21 214.87 150.40 215.69 151.64 215.46 Z M 152.60 215.28 L 153.54 215.11 C 154.78 214.88 155.60 213.68 155.37 212.44 C 155.13 211.20 153.94 210.38 152.70 210.61 L 151.76 210.79 C 150.52 211.02 149.70 212.21 149.93 213.45 C 150.16 214.69 151.36 215.51 152.60 215.28 Z M 153.53 215.11 L 154.45 214.94 C 155.69 214.71 156.52 213.52 156.29 212.27 C 156.06 211.03 154.86 210.21 153.62 210.44 L 152.70 210.61 C 151.46 210.84 150.64 212.03 150.87 213.28 C 151.10 214.52 152.29 215.34 153.53 215.11 Z M 154.45 214.95 L 155.47 214.76 C 156.72 214.53 157.54 213.34 157.32 212.09 C 157.09 210.85 155.89 210.02 154.65 210.25 L 153.62 210.43 C 152.38 210.66 151.55 211.86 151.78 213.10 C 152.01 214.35 153.20 215.17 154.45 214.95 Z M 155.47 214.77 L 156.49 214.58 C 157.74 214.36 158.57 213.16 158.35 211.91 C 158.12 210.66 156.93 209.83 155.68 210.06 L 154.65 210.24 C 153.40 210.47 152.57 211.66 152.80 212.91 C 153.02 214.16 154.22 214.99 155.47 214.77 Z M 156.48 214.59 L 157.48 214.41 C 158.73 214.19 159.57 213.00 159.35 211.74 C 159.13 210.49 157.94 209.66 156.68 209.88 L 155.68 210.05 C 154.43 210.27 153.60 211.47 153.82 212.72 C 154.04 213.97 155.23 214.81 156.48 214.59 Z M 157.47 214.42 L 158.45 214.25 C 159.71 214.03 160.55 212.84 160.33 211.59 C 160.12 210.33 158.93 209.49 157.67 209.70 L 156.69 209.87 C 155.44 210.09 154.59 211.28 154.81 212.53 C 155.02 213.79 156.22 214.63 157.47 214.42 Z M 158.44 214.26 L 159.40 214.09 C 160.66 213.88 161.51 212.69 161.30 211.44 C 161.09 210.18 159.90 209.33 158.64 209.54 L 157.68 209.70 C 156.42 209.91 155.57 211.10 155.78 212.36 C 155.99 213.61 157.18 214.47 158.44 214.26 Z M 159.39 214.10 L 160.35 213.95 C 161.61 213.74 162.47 212.56 162.27 211.29 C 162.06 210.03 160.87 209.17 159.61 209.38 L 158.66 209.53 C 157.39 209.73 156.53 210.92 156.74 212.18 C 156.94 213.45 158.13 214.30 159.39 214.10 Z M 160.34 213.95 L 161.29 213.80 C 162.56 213.61 163.42 212.42 163.23 211.16 C 163.03 209.89 161.85 209.02 160.58 209.22 L 159.62 209.37 C 158.36 209.57 157.49 210.75 157.69 212.02 C 157.88 213.28 159.07 214.15 160.34 213.95 Z M 161.28 213.81 L 162.24 213.67 C 163.51 213.48 164.38 212.30 164.19 211.03 C 164.00 209.76 162.82 208.88 161.55 209.07 L 160.59 209.22 C 159.33 209.40 158.45 210.59 158.64 211.85 C 158.83 213.12 160.01 214.00 161.28 213.81 Z M 162.22 213.67 L 163.19 213.53 C 164.46 213.35 165.34 212.17 165.16 210.90 C 164.98 209.63 163.80 208.75 162.53 208.93 L 161.57 209.07 C 160.30 209.25 159.41 210.43 159.59 211.70 C 159.78 212.97 160.95 213.85 162.22 213.67 Z M 163.18 213.53 L 164.15 213.40 C 165.42 213.23 166.31 212.06 166.14 210.78 C 165.96 209.51 164.79 208.62 163.52 208.80 L 162.55 208.93 C 161.27 209.10 160.38 210.28 160.56 211.55 C 160.73 212.82 161.90 213.71 163.18 213.53 Z M 164.14 213.40 L 165.12 213.27 C 166.39 213.11 167.29 211.94 167.12 210.67 C 166.95 209.39 165.79 208.50 164.52 208.67 L 163.53 208.80 C 162.26 208.96 161.36 210.13 161.53 211.40 C 161.70 212.67 162.87 213.57 164.14 213.40 Z M 165.11 213.27 L 166.10 213.15 C 167.38 212.99 168.28 211.83 168.12 210.55 C 167.95 209.28 166.79 208.38 165.52 208.54 L 164.53 208.67 C 163.25 208.83 162.35 209.99 162.51 211.26 C 162.68 212.53 163.84 213.44 165.11 213.27 Z M 166.09 213.15 L 167.10 213.03 C 168.37 212.87 169.27 211.71 169.12 210.44 C 168.96 209.17 167.81 208.26 166.53 208.42 L 165.53 208.54 C 164.26 208.69 163.35 209.85 163.51 211.13 C 163.66 212.40 164.82 213.30 166.09 213.15 Z M 167.09 213.03 L 168.10 212.91 C 169.37 212.76 170.28 211.60 170.13 210.33 C 169.98 209.06 168.83 208.15 167.55 208.30 L 166.54 208.42 C 165.27 208.57 164.36 209.72 164.51 210.99 C 164.66 212.27 165.81 213.18 167.09 213.03 Z M 168.09 212.91 L 169.11 212.79 C 170.39 212.65 171.30 211.50 171.15 210.22 C 171.01 208.95 169.86 208.03 168.59 208.18 L 167.56 208.30 C 166.29 208.44 165.37 209.59 165.52 210.87 C 165.67 212.14 166.82 213.05 168.09 212.91 Z M 169.10 212.79 L 170.09 212.68 C 171.36 212.54 172.28 211.40 172.14 210.12 C 172.00 208.85 170.85 207.93 169.58 208.07 L 168.59 208.18 C 167.32 208.32 166.40 209.47 166.54 210.74 C 166.68 212.02 167.83 212.93 169.10 212.79 Z M 170.08 212.69 L 171.07 212.58 C 172.34 212.44 173.27 211.30 173.13 210.02 C 172.99 208.75 171.84 207.82 170.57 207.96 L 169.58 208.07 C 168.31 208.20 167.38 209.35 167.52 210.63 C 167.66 211.90 168.80 212.82 170.08 212.69 Z M 171.06 212.58 L 172.05 212.48 C 173.33 212.35 174.26 211.20 174.12 209.92 C 173.99 208.65 172.84 207.72 171.57 207.85 L 170.57 207.96 C 169.30 208.09 168.37 209.24 168.50 210.51 C 168.64 211.79 169.78 212.72 171.06 212.58 Z M 172.05 212.48 L 173.04 212.38 C 174.32 212.25 175.25 211.11 175.12 209.83 C 174.99 208.55 173.85 207.62 172.57 207.75 L 171.57 207.85 C 170.29 207.98 169.36 209.12 169.49 210.40 C 169.63 211.68 170.77 212.61 172.05 212.48 Z M 173.04 212.38 L 174.04 212.28 C 175.32 212.15 176.25 211.01 176.12 209.73 C 175.99 208.45 174.85 207.52 173.57 207.65 L 172.57 207.75 C 171.29 207.88 170.36 209.02 170.49 210.30 C 170.62 211.58 171.76 212.51 173.04 212.38 Z M 174.03 212.28 L 175.03 212.19 C 176.31 212.06 177.25 210.92 177.13 209.64 C 177.00 208.36 175.86 207.42 174.58 207.55 L 173.58 207.65 C 172.30 207.77 171.36 208.91 171.49 210.19 C 171.61 211.47 172.75 212.41 174.03 212.28 Z M 175.03 212.19 L 176.03 212.09 C 177.31 211.97 178.25 210.83 178.13 209.55 C 178.01 208.27 176.87 207.33 175.59 207.45 L 174.59 207.55 C 173.30 207.67 172.36 208.81 172.49 210.09 C 172.61 211.37 173.75 212.31 175.03 212.19 Z M 176.03 212.09 L 177.03 212.00 C 178.31 211.88 179.25 210.74 179.13 209.46 C 179.02 208.18 177.88 207.23 176.59 207.35 L 175.59 207.45 C 174.31 207.57 173.37 208.71 173.49 209.99 C 173.61 211.27 174.74 212.21 176.03 212.09 Z M 177.02 212.00 L 178.05 211.91 C 179.33 211.79 180.27 210.65 180.16 209.37 C 180.04 208.09 178.91 207.14 177.62 207.26 L 176.60 207.36 C 175.32 207.47 174.37 208.61 174.49 209.89 C 174.61 211.17 175.74 212.12 177.02 212.00 Z M 178.04 211.90 L 179.06 211.81 C 180.34 211.70 181.29 210.57 181.17 209.29 C 181.06 208.00 179.93 207.06 178.65 207.17 L 177.63 207.26 C 176.35 207.38 175.40 208.51 175.52 209.79 C 175.63 211.07 176.76 212.02 178.04 211.90 Z M 179.06 211.81 L 180.07 211.72 C 181.35 211.61 182.29 210.48 182.18 209.20 C 182.07 207.92 180.94 206.98 179.66 207.09 L 178.65 207.18 C 177.37 207.29 176.43 208.42 176.54 209.70 C 176.65 210.98 177.78 211.92 179.06 211.81 Z M 180.07 211.72 L 181.07 211.63 C 182.35 211.52 183.29 210.39 183.18 209.12 C 183.07 207.84 181.95 206.89 180.67 207.00 L 179.67 207.09 C 178.39 207.20 177.44 208.33 177.55 209.60 C 177.66 210.88 178.79 211.83 180.07 211.72 Z M 181.07 211.63 L 182.06 211.54 C 183.34 211.43 184.28 210.31 184.17 209.04 C 184.06 207.76 182.94 206.81 181.67 206.92 L 180.67 207.01 C 179.40 207.12 178.45 208.24 178.56 209.51 C 178.67 210.79 179.79 211.73 181.07 211.63 Z M 182.06 211.54 L 183.04 211.46 C 184.31 211.35 185.26 210.23 185.15 208.96 C 185.04 207.68 183.93 206.74 182.65 206.84 L 181.67 206.93 C 180.40 207.03 179.45 208.15 179.56 209.43 C 179.67 210.70 180.78 211.65 182.06 211.54 Z M 183.04 211.45 L 184.00 211.37 C 185.27 211.27 186.22 210.15 186.11 208.88 C 186.01 207.61 184.89 206.66 183.62 206.77 L 182.65 206.85 C 181.38 206.95 180.44 208.07 180.54 209.34 C 180.65 210.61 181.76 211.56 183.04 211.45 Z M 184.00 211.37 L 184.99 211.29 C 186.26 211.18 187.20 210.07 187.10 208.80 C 187.00 207.53 185.88 206.59 184.61 206.69 L 183.62 206.77 C 182.35 206.88 181.41 207.99 181.51 209.26 C 181.62 210.53 182.73 211.47 184.00 211.37 Z M 184.99 211.28 L 186.03 211.20 C 187.29 211.10 188.24 209.99 188.13 208.72 C 188.03 207.45 186.92 206.51 185.66 206.61 L 184.62 206.70 C 183.35 206.80 182.41 207.91 182.51 209.17 C 182.61 210.44 183.72 211.39 184.99 211.28 Z M 186.02 211.19 L 187.04 211.11 C 188.31 211.01 189.25 209.91 189.15 208.64 C 189.05 207.38 187.94 206.43 186.68 206.54 L 185.66 206.62 C 184.39 206.72 183.45 207.82 183.55 209.09 C 183.65 210.35 184.76 211.29 186.02 211.19 Z M 187.04 211.11 L 188.04 211.03 C 189.30 210.93 190.24 209.83 190.15 208.57 C 190.05 207.31 188.94 206.36 187.68 206.46 L 186.68 206.54 C 185.42 206.64 184.48 207.74 184.58 209.00 C 184.68 210.26 185.78 211.21 187.04 211.11 Z M 188.04 211.02 L 189.02 210.95 C 190.28 210.85 191.22 209.75 191.13 208.49 C 191.03 207.24 189.93 206.30 188.67 206.39 L 187.69 206.47 C 186.43 206.56 185.49 207.66 185.59 208.92 C 185.68 210.18 186.78 211.12 188.04 211.02 Z M 189.02 210.94 L 189.99 210.87 C 191.25 210.78 192.19 209.68 192.10 208.43 C 192.00 207.17 190.91 206.23 189.65 206.32 L 188.68 206.40 C 187.42 206.49 186.48 207.58 186.58 208.84 C 186.67 210.09 187.76 211.04 189.02 210.94 Z M 189.99 210.86 L 190.95 210.79 C 192.20 210.70 193.14 209.61 193.05 208.36 C 192.96 207.11 191.87 206.17 190.62 206.26 L 189.66 206.33 C 188.41 206.42 187.46 207.51 187.56 208.76 C 187.65 210.01 188.74 210.96 189.99 210.86 Z M 190.94 210.79 L 191.95 210.72 C 193.20 210.63 194.14 209.54 194.06 208.30 C 193.97 207.05 192.88 206.10 191.63 206.19 L 190.62 206.26 C 189.38 206.35 188.43 207.44 188.52 208.69 C 188.61 209.94 189.70 210.88 190.94 210.79 Z M 191.95 210.71 L 193.00 210.64 C 194.25 210.55 195.19 209.48 195.11 208.23 C 195.02 206.98 193.94 206.04 192.70 206.13 L 191.64 206.20 C 190.40 206.28 189.45 207.36 189.54 208.61 C 189.62 209.85 190.70 210.80 191.95 210.71 Z M 193.00 210.63 L 194.03 210.56 C 195.28 210.48 196.22 209.41 196.14 208.17 C 196.05 206.93 194.98 205.99 193.74 206.07 L 192.70 206.13 C 191.46 206.22 190.52 207.29 190.60 208.53 C 190.68 209.77 191.76 210.71 193.00 210.63 Z M 194.03 210.56 L 195.04 210.50 C 196.27 210.42 197.22 209.35 197.14 208.11 C 197.06 206.88 196.00 205.93 194.76 206.01 L 193.75 206.07 C 192.51 206.15 191.57 207.22 191.64 208.45 C 191.72 209.69 192.79 210.63 194.03 210.56 Z M 195.03 210.49 L 196.00 210.43 C 197.24 210.36 198.18 209.30 198.11 208.07 C 198.04 206.83 196.98 205.89 195.74 205.96 L 194.77 206.02 C 193.53 206.09 192.59 207.15 192.66 208.38 C 192.73 209.62 193.79 210.56 195.03 210.49 Z M 195.99 210.43 L 196.93 210.37 C 198.16 210.31 199.11 209.26 199.04 208.02 C 198.97 206.79 197.92 205.85 196.69 205.92 L 195.75 205.97 C 194.52 206.03 193.58 207.09 193.64 208.32 C 193.71 209.55 194.76 210.49 195.99 210.43 Z M 196.92 210.37 L 197.90 210.32 C 199.13 210.26 200.07 209.22 200.01 207.99 C 199.95 206.76 198.91 205.82 197.68 205.88 L 196.70 205.92 C 195.48 205.98 194.53 207.03 194.59 208.25 C 194.65 209.48 195.69 210.43 196.92 210.37 Z M 197.88 210.31 L 198.95 210.27 C 200.17 210.21 201.12 209.18 201.06 207.96 C 201.01 206.74 199.98 205.79 198.76 205.84 L 197.70 205.88 C 196.47 205.94 195.52 206.97 195.58 208.19 C 195.63 209.41 196.66 210.36 197.88 210.31 Z M 198.93 210.26 L 199.93 210.22 C 201.15 210.18 202.10 209.16 202.06 207.94 C 202.02 206.72 201.00 205.77 199.78 205.81 L 198.77 205.85 C 197.56 205.89 196.60 206.91 196.65 208.13 C 196.69 209.35 197.71 210.30 198.93 210.26 Z M 199.92 210.21 L 200.89 210.18 C 202.10 210.15 203.05 209.14 203.02 207.93 C 202.99 206.72 201.98 205.76 200.76 205.79 L 199.80 205.82 C 198.58 205.86 197.63 206.87 197.66 208.08 C 197.70 209.29 198.71 210.24 199.92 210.21 Z M 200.87 210.17 L 201.82 210.15 C 203.02 210.13 203.98 209.13 203.96 207.92 C 203.93 206.72 202.93 205.76 201.73 205.78 L 200.78 205.80 C 199.57 205.83 198.61 206.83 198.64 208.03 C 198.66 209.24 199.66 210.20 200.87 210.17 Z M 201.80 210.15 L 202.76 210.13 C 203.96 210.11 204.92 209.13 204.91 207.92 C 204.89 206.72 203.90 205.76 202.70 205.78 L 201.74 205.79 C 200.54 205.81 199.58 206.80 199.60 208.00 C 199.61 209.20 200.60 210.16 201.80 210.15 Z M 202.75 210.12 L 203.73 210.12 C 204.92 210.11 205.89 209.13 205.88 207.93 C 205.86 206.73 204.89 205.77 203.69 205.78 L 202.71 205.79 C 201.51 205.80 200.55 206.78 200.56 207.97 C 200.57 209.17 201.55 210.14 202.75 210.12 Z M 203.72 210.11 L 204.71 210.10 C 205.90 210.10 206.86 209.13 206.86 207.93 C 206.85 206.74 205.88 205.78 204.69 205.78 L 203.70 205.79 C 202.50 205.79 201.54 206.76 201.54 207.96 C 201.55 209.15 202.52 210.11 203.72 210.11 Z M 204.70 210.10 L 205.71 210.10 C 206.90 210.09 207.86 209.13 207.86 207.94 C 207.86 206.75 206.89 205.78 205.70 205.79 L 204.69 205.79 C 203.50 205.79 202.54 206.76 202.54 207.95 C 202.54 209.14 203.51 210.10 204.70 210.10 Z M 205.71 210.09 L 206.74 210.09 C 207.93 210.09 208.89 209.13 208.89 207.94 C 208.89 206.75 207.92 205.79 206.74 205.79 L 205.70 205.79 C 204.52 205.79 203.56 206.75 203.56 207.94 C 203.56 209.13 204.52 210.09 205.71 210.09 Z M 206.74 210.08 L 207.71 210.08 C 208.90 210.08 209.85 209.12 209.85 207.94 C 209.85 206.76 208.90 205.80 207.71 205.80 L 206.74 205.80 C 205.56 205.80 204.60 206.76 204.60 207.94 C 204.60 209.12 205.56 210.08 206.74 210.08 Z M 207.71 210.07 L 208.69 210.07 C 209.87 210.07 210.82 209.12 210.82 207.94 C 210.82 206.76 209.87 205.81 208.69 205.81 L 207.71 205.81 C 206.54 205.81 205.58 206.76 205.58 207.94 C 205.58 209.12 206.54 210.07 207.71 210.07 Z M 208.69 210.06 L 209.69 210.06 C 210.86 210.06 211.81 209.11 211.81 207.94 C 211.81 206.77 210.86 205.82 209.69 205.82 L 208.69 205.82 C 207.52 205.82 206.57 206.77 206.57 207.94 C 206.57 209.11 207.52 210.06 208.69 210.06 Z M 209.69 210.06 L 210.70 210.06 C 211.87 210.06 212.82 209.11 212.82 207.94 C 212.82 206.77 211.87 205.83 210.70 205.83 L 209.69 205.83 C 208.52 205.83 207.58 206.77 207.58 207.94 C 207.58 209.11 208.52 210.06 209.69 210.06 Z M 210.70 210.05 L 211.73 210.05 C 212.90 210.05 213.84 209.10 213.84 207.94 C 213.84 206.78 212.90 205.83 211.73 205.83 L 210.70 205.83 C 209.54 205.83 208.60 206.78 208.60 207.94 C 208.60 209.10 209.54 210.05 210.70 210.05 Z M 211.73 210.04 L 212.74 210.04 C 213.90 210.04 214.84 209.10 214.84 207.94 C 214.84 206.78 213.90 205.84 212.74 205.84 L 211.73 205.84 C 210.57 205.84 209.64 206.78 209.64 207.94 C 209.64 209.10 210.57 210.04 211.73 210.04 Z M 212.74 210.03 L 213.74 210.03 C 214.89 210.03 215.82 209.10 215.82 207.94 C 215.83 206.79 214.89 205.85 213.74 205.85 L 212.74 205.85 C 211.59 205.85 210.65 206.79 210.65 207.94 C 210.65 209.09 211.59 210.03 212.74 210.03 Z M 213.73 210.02 L 214.73 210.02 C 215.88 210.02 216.81 209.09 216.82 207.95 C 216.82 206.80 215.89 205.87 214.74 205.87 L 213.74 205.86 C 212.59 205.86 211.66 206.79 211.66 207.94 C 211.66 209.08 212.59 210.02 213.73 210.02 Z M 214.73 210.01 L 215.73 210.01 C 216.88 210.02 217.80 209.10 217.81 207.95 C 217.81 206.81 216.89 205.88 215.75 205.88 L 214.75 205.88 C 213.60 205.87 212.68 206.79 212.67 207.94 C 212.67 209.08 213.59 210.01 214.73 210.01 Z M 215.73 210.00 L 216.73 210.01 C 217.87 210.02 218.79 209.10 218.80 207.97 C 218.81 206.83 217.90 205.90 216.76 205.90 L 215.76 205.89 C 214.62 205.88 213.69 206.80 213.68 207.93 C 213.68 209.07 214.59 210.00 215.73 210.00 Z M 216.72 210.00 L 217.73 210.01 C 218.86 210.02 219.78 209.12 219.79 207.99 C 219.81 206.85 218.90 205.93 217.77 205.92 L 216.77 205.91 C 215.64 205.90 214.71 206.80 214.70 207.93 C 214.69 209.06 215.59 209.99 216.72 210.00 Z M 217.72 210.00 L 218.72 210.02 C 219.84 210.03 220.77 209.13 220.78 208.01 C 220.80 206.89 219.90 205.96 218.78 205.94 L 217.78 205.93 C 216.65 205.91 215.73 206.81 215.71 207.93 C 215.69 209.06 216.59 209.98 217.72 210.00 Z M 218.70 210.00 L 219.70 210.03 C 220.82 210.05 221.75 209.16 221.77 208.04 C 221.80 206.93 220.91 206.00 219.79 205.98 L 218.79 205.95 C 217.67 205.93 216.75 206.82 216.72 207.94 C 216.70 209.05 217.59 209.98 218.70 210.00 Z M 219.69 210.01 L 220.69 210.04 C 221.80 210.08 222.73 209.20 222.76 208.09 C 222.79 206.98 221.92 206.05 220.80 206.02 L 219.81 205.99 C 218.69 205.95 217.77 206.83 217.73 207.94 C 217.70 209.05 218.58 209.98 219.69 210.01 Z M 220.67 210.03 L 221.66 210.07 C 222.77 210.11 223.70 209.25 223.74 208.15 C 223.79 207.04 222.93 206.11 221.82 206.07 L 220.82 206.03 C 219.72 205.98 218.78 206.85 218.74 207.95 C 218.70 209.06 219.56 209.99 220.67 210.03 Z M 221.64 210.06 L 222.64 210.11 C 223.74 210.16 224.68 209.32 224.73 208.22 C 224.79 207.12 223.94 206.18 222.84 206.13 L 221.84 206.08 C 220.74 206.02 219.81 206.87 219.75 207.97 C 219.70 209.07 220.54 210.00 221.64 210.06 Z M 222.62 210.10 L 223.65 210.16 C 224.75 210.23 225.69 209.40 225.76 208.31 C 225.82 207.21 224.99 206.27 223.90 206.20 L 222.87 206.14 C 221.77 206.07 220.83 206.90 220.76 207.99 C 220.70 209.09 221.53 210.03 222.62 210.10 Z M 223.63 210.15 L 224.67 210.23 C 225.76 210.31 226.71 209.50 226.79 208.41 C 226.87 207.32 226.06 206.37 224.97 206.29 L 223.92 206.21 C 222.84 206.13 221.89 206.95 221.81 208.03 C 221.72 209.12 222.54 210.07 223.63 210.15 Z M 224.65 210.22 L 225.68 210.31 C 226.76 210.41 227.71 209.61 227.81 208.52 C 227.90 207.44 227.10 206.49 226.02 206.39 L 224.99 206.30 C 223.91 206.21 222.96 207.01 222.86 208.09 C 222.77 209.17 223.57 210.13 224.65 210.22 Z M 225.65 210.30 L 226.64 210.40 C 227.72 210.51 228.68 209.72 228.79 208.65 C 228.90 207.57 228.11 206.61 227.04 206.50 L 226.04 206.40 C 224.97 206.29 224.01 207.08 223.90 208.15 C 223.79 209.23 224.57 210.19 225.65 210.30 Z M 226.62 210.39 L 227.56 210.50 C 228.63 210.62 229.60 209.85 229.72 208.78 C 229.85 207.71 229.08 206.74 228.00 206.62 L 227.06 206.51 C 225.99 206.39 225.02 207.16 224.90 208.23 C 224.78 209.30 225.55 210.27 226.62 210.39 Z M 227.53 210.49 L 228.53 210.62 C 229.60 210.76 230.58 210.00 230.71 208.94 C 230.85 207.87 230.10 206.90 229.04 206.76 L 228.03 206.63 C 226.97 206.49 225.99 207.24 225.85 208.31 C 225.71 209.37 226.47 210.35 227.53 210.49 Z M 228.49 210.60 L 229.56 210.77 C 230.62 210.93 231.61 210.20 231.77 209.14 C 231.93 208.09 231.21 207.10 230.15 206.94 L 229.08 206.77 C 228.02 206.61 227.03 207.34 226.87 208.40 C 226.71 209.45 227.43 210.44 228.49 210.60 Z M 229.51 210.75 L 230.49 210.93 C 231.53 211.12 232.54 210.42 232.73 209.37 C 232.92 208.32 232.22 207.32 231.17 207.13 L 230.20 206.95 C 229.15 206.76 228.15 207.46 227.96 208.51 C 227.77 209.56 228.46 210.56 229.51 210.75 Z M 230.43 210.91 L 231.32 211.10 C 232.36 211.32 233.38 210.66 233.60 209.62 C 233.82 208.58 233.16 207.56 232.12 207.34 L 231.23 207.15 C 230.19 206.93 229.17 207.59 228.95 208.63 C 228.73 209.67 229.39 210.69 230.43 210.91 Z M 231.26 211.08 L 232.17 211.30 C 233.20 211.56 234.24 210.93 234.49 209.91 C 234.75 208.88 234.12 207.84 233.10 207.59 L 232.18 207.36 C 231.16 207.10 230.12 207.73 229.87 208.76 C 229.61 209.78 230.24 210.82 231.26 211.08 Z M 232.09 211.27 L 233.03 211.55 C 234.04 211.85 235.10 211.27 235.39 210.26 C 235.69 209.25 235.12 208.19 234.11 207.89 L 233.17 207.62 C 232.17 207.32 231.11 207.89 230.81 208.90 C 230.51 209.91 231.08 210.97 232.09 211.27 Z M 232.93 211.51 L 233.87 211.84 C 234.85 212.19 235.94 211.68 236.29 210.69 C 236.64 209.70 236.13 208.62 235.14 208.27 L 234.20 207.93 C 233.22 207.58 232.13 208.10 231.78 209.08 C 231.43 210.07 231.95 211.15 232.93 211.51 Z M 233.77 211.79 L 234.72 212.19 C 235.68 212.59 236.78 212.14 237.19 211.18 C 237.59 210.22 237.14 209.12 236.18 208.71 L 235.24 208.32 C 234.28 207.91 233.17 208.36 232.77 209.32 C 232.36 210.28 232.81 211.39 233.77 211.79 Z M 234.64 212.14 L 235.53 212.57 C 236.46 213.02 237.58 212.62 238.03 211.69 C 238.48 210.76 238.08 209.64 237.15 209.19 L 236.26 208.76 C 235.33 208.31 234.21 208.71 233.76 209.64 C 233.31 210.57 233.71 211.69 234.64 212.14 Z M 235.46 212.52 L 236.36 213.00 C 237.26 213.49 238.39 213.15 238.88 212.24 C 239.37 211.34 239.03 210.21 238.12 209.72 L 237.22 209.24 C 236.31 208.75 235.19 209.09 234.70 210.00 C 234.21 210.91 234.55 212.03 235.46 212.52 Z M 236.28 212.95 L 237.15 213.47 C 238.03 214.00 239.17 213.71 239.69 212.84 C 240.22 211.96 239.94 210.83 239.06 210.30 L 238.19 209.78 C 237.32 209.25 236.18 209.53 235.65 210.41 C 235.13 211.28 235.41 212.42 236.28 212.95 Z M 237.07 213.40 L 237.90 213.97 C 238.73 214.54 239.88 214.33 240.45 213.49 C 241.02 212.66 240.81 211.52 239.98 210.94 L 239.15 210.37 C 238.31 209.80 237.17 210.01 236.59 210.85 C 236.02 211.68 236.23 212.82 237.07 213.40 Z M 237.80 213.86 L 238.58 214.49 C 239.36 215.12 240.50 215.00 241.13 214.22 C 241.76 213.44 241.63 212.30 240.86 211.68 L 240.07 211.04 C 239.29 210.42 238.15 210.54 237.53 211.32 C 236.90 212.10 237.02 213.24 237.80 213.86 Z M 238.49 214.37 L 239.20 215.05 C 239.91 215.73 241.04 215.70 241.71 214.99 C 242.39 214.28 242.37 213.16 241.66 212.48 L 240.95 211.80 C 240.24 211.12 239.11 211.15 238.43 211.86 C 237.75 212.57 237.78 213.69 238.49 214.37 Z M 239.12 214.92 L 239.78 215.67 C 240.42 216.39 241.53 216.45 242.25 215.81 C 242.97 215.17 243.04 214.07 242.40 213.35 L 241.74 212.60 C 241.09 211.88 239.99 211.82 239.27 212.46 C 238.55 213.10 238.48 214.20 239.12 214.92 Z M 239.73 215.56 L 240.32 216.32 C 240.90 217.07 241.98 217.21 242.73 216.63 C 243.48 216.05 243.62 214.97 243.04 214.22 L 242.45 213.46 C 241.87 212.71 240.79 212.57 240.04 213.15 C 239.29 213.73 239.15 214.81 239.73 215.56 Z M 240.30 216.24 L 240.87 217.05 C 241.41 217.81 242.46 218.00 243.22 217.46 C 243.98 216.93 244.17 215.87 243.63 215.11 L 243.06 214.30 C 242.52 213.54 241.47 213.35 240.71 213.89 C 239.95 214.42 239.76 215.48 240.30 216.24 Z M 240.87 216.99 L 241.43 217.84 C 241.93 218.61 242.96 218.82 243.73 218.31 C 244.49 217.81 244.70 216.78 244.19 216.01 L 243.63 215.17 C 243.13 214.40 242.10 214.19 241.34 214.70 C 240.57 215.20 240.36 216.23 240.87 216.99 Z M 241.44 217.81 L 241.96 218.61 C 242.44 219.37 243.45 219.59 244.21 219.10 C 244.96 218.61 245.18 217.61 244.70 216.85 L 244.18 216.05 C 243.69 215.29 242.69 215.07 241.93 215.56 C 241.17 216.05 240.95 217.05 241.44 217.81 Z"
      fill="black"
      fill-rule="nonzero" /></svg>