<svg xmlns="http://www.w3.org/2000/svg" width="300" height="300" viewBox="0 0 300 300">
<path d="M 131.65 116.99 L 130.57 116.53 C 129.63 116.12 128.55 116.56 128.14 117.49 C 127.74 118.43 128.17 119.52 129.11 119.92 L 130.19 120.38 C 131.13 120.79 132.21 120.35 132.62 119.42 C 133.02 118.48 132.59 117.39 131.65 116.99 Z M 130.64 116.53 L 129.62 116.05 C 128.69 115.61 127.58 116.01 127.14 116.95 C 126.70 117.88 127.10 119.00 128.03 119.44 L 129.05 119.91 C 129.98 120.35 131.09 119.95 131.53 119.02 C 131.97 118.09 131.57 116.97 130.64 116.53 Z M 129.76 116.10 L 128.87 115.59 C 127.96 115.07 126.81 115.39 126.29 116.30 C 125.77 117.20 126.09 118.36 126.99 118.87 L 127.89 119.39 C 128.80 119.90 129.95 119.59 130.47 118.68 C 130.98 117.78 130.67 116.62 129.76 116.10 Z M 129.11 115.73 L 128.39 115.17 C 127.56 114.52 126.36 114.66 125.71 115.49 C 125.06 116.32 125.21 117.52 126.04 118.18 L 126.75 118.74 C 127.58 119.39 128.78 119.24 129.43 118.41 C 130.08 117.58 129.94 116.38 129.11 115.73 Z M 128.75 115.50 L 128.28 114.88 C 127.63 114.03 126.42 113.86 125.57 114.51 C 124.72 115.15 124.55 116.36 125.20 117.21 L 125.68 117.84 C 126.32 118.69 127.53 118.85 128.38 118.21 C 129.23 117.56 129.40 116.35 128.75 115.50 Z M 128.63 115.58 L 128.45 114.82 C 128.20 113.78 127.14 113.13 126.09 113.39 C 125.05 113.64 124.40 114.70 124.66 115.74 L 124.84 116.50 C 125.10 117.55 126.15 118.19 127.20 117.94 C 128.24 117.69 128.89 116.63 128.63 115.58 Z M 128.49 115.62 L 128.64 114.77 C 128.83 113.70 128.11 112.68 127.04 112.49 C 125.97 112.30 124.95 113.02 124.76 114.09 L 124.61 114.95 C 124.42 116.02 125.14 117.04 126.21 117.23 C 127.29 117.41 128.31 116.70 128.49 115.62 Z M 128.48 115.32 L 128.92 114.44 C 129.41 113.46 129.01 112.26 128.02 111.77 C 127.04 111.28 125.84 111.69 125.35 112.67 L 124.92 113.55 C 124.43 114.53 124.83 115.73 125.82 116.22 C 126.80 116.70 128.00 116.30 128.48 115.32 Z M 128.72 114.79 L 129.39 113.93 C 130.07 113.05 129.91 111.79 129.04 111.11 C 128.16 110.43 126.90 110.59 126.22 111.46 L 125.55 112.32 C 124.87 113.20 125.03 114.46 125.90 115.14 C 126.78 115.82 128.04 115.67 128.72 114.79 Z M 129.19 114.18 L 130.04 113.38 C 130.85 112.62 130.89 111.33 130.12 110.51 C 129.36 109.70 128.07 109.66 127.25 110.43 L 126.41 111.22 C 125.60 111.99 125.56 113.27 126.33 114.09 C 127.09 114.91 128.38 114.94 129.19 114.18 Z M 129.85 113.55 L 130.61 112.99 C 131.52 112.33 131.72 111.05 131.05 110.14 C 130.39 109.23 129.11 109.04 128.20 109.70 L 127.44 110.26 C 126.53 110.93 126.33 112.20 127.00 113.11 C 127.67 114.02 128.94 114.22 129.85 113.55 Z M 130.46 113.10 L 131.27 112.61 C 132.23 112.03 132.55 110.78 131.97 109.81 C 131.39 108.85 130.14 108.53 129.17 109.11 L 128.36 109.60 C 127.39 110.18 127.08 111.43 127.66 112.40 C 128.24 113.36 129.49 113.68 130.46 113.10 Z M 131.14 112.69 L 132.01 112.25 C 133.01 111.74 133.42 110.51 132.91 109.51 C 132.40 108.50 131.18 108.09 130.17 108.60 L 129.30 109.04 C 128.29 109.55 127.89 110.77 128.39 111.78 C 128.90 112.79 130.13 113.19 131.14 112.69 Z M 131.90 112.30 L 132.82 111.90 C 133.86 111.45 134.33 110.24 133.88 109.21 C 133.43 108.17 132.23 107.70 131.20 108.15 L 130.27 108.55 C 129.24 109.00 128.77 110.20 129.21 111.24 C 129.66 112.27 130.87 112.75 131.90 112.30 Z M 132.75 111.93 L 133.72 111.55 C 134.77 111.14 135.29 109.96 134.89 108.91 C 134.48 107.86 133.30 107.34 132.24 107.74 L 131.27 108.12 C 130.22 108.53 129.70 109.71 130.11 110.76 C 130.51 111.81 131.70 112.33 132.75 111.93 Z M 133.67 111.57 L 134.68 111.21 C 135.74 110.83 136.30 109.66 135.92 108.60 C 135.54 107.54 134.37 106.98 133.31 107.36 L 132.29 107.72 C 131.23 108.10 130.68 109.27 131.06 110.33 C 131.44 111.40 132.61 111.95 133.67 111.57 Z M 134.66 111.22 L 135.62 110.89 C 136.69 110.52 137.26 109.36 136.89 108.29 C 136.53 107.23 135.37 106.66 134.30 107.02 L 133.33 107.35 C 132.27 107.72 131.70 108.88 132.06 109.95 C 132.43 111.01 133.59 111.58 134.66 111.22 Z M 135.60 110.89 L 136.57 110.57 C 137.64 110.21 138.22 109.06 137.86 107.99 C 137.51 106.92 136.35 106.34 135.29 106.70 L 134.32 107.02 C 133.25 107.37 132.67 108.53 133.03 109.60 C 133.38 110.67 134.54 111.24 135.60 110.89 Z M 136.55 110.57 L 137.53 110.26 C 138.60 109.91 139.19 108.77 138.84 107.69 C 138.50 106.62 137.35 106.03 136.28 106.38 L 135.30 106.69 C 134.23 107.04 133.64 108.19 133.99 109.26 C 134.33 110.33 135.48 110.92 136.55 110.57 Z M 137.51 110.26 L 138.49 109.96 C 139.56 109.62 140.16 108.48 139.82 107.41 C 139.49 106.33 138.35 105.74 137.27 106.07 L 136.30 106.38 C 135.22 106.71 134.63 107.85 134.96 108.93 C 135.30 110.00 136.44 110.60 137.51 110.26 Z M 138.47 109.96 L 139.43 109.67 C 140.51 109.34 141.12 108.21 140.79 107.13 C 140.47 106.06 139.33 105.45 138.26 105.78 L 137.29 106.07 C 136.22 106.39 135.61 107.53 135.93 108.60 C 136.26 109.68 137.39 110.29 138.47 109.96 Z M 139.41 109.67 L 140.36 109.40 C 141.43 109.08 142.05 107.96 141.74 106.88 C 141.42 105.80 140.30 105.18 139.22 105.50 L 138.28 105.77 C 137.20 106.09 136.58 107.21 136.89 108.29 C 137.21 109.37 138.34 109.99 139.41 109.67 Z M 140.33 109.40 L 141.24 109.15 C 142.32 108.85 142.95 107.73 142.65 106.65 C 142.35 105.57 141.23 104.94 140.15 105.24 L 139.24 105.49 C 138.16 105.79 137.53 106.91 137.83 107.99 C 138.13 109.07 139.25 109.70 140.33 109.40 Z M 141.22 109.15 L 142.20 108.89 C 143.28 108.60 143.93 107.49 143.64 106.41 C 143.35 105.33 142.24 104.69 141.16 104.97 L 140.18 105.24 C 139.10 105.52 138.46 106.63 138.74 107.71 C 139.03 108.79 140.14 109.43 141.22 109.15 Z M 142.18 108.88 L 143.13 108.64 C 144.21 108.37 144.86 107.27 144.59 106.20 C 144.32 105.12 143.22 104.47 142.15 104.74 L 141.19 104.98 C 140.11 105.25 139.46 106.35 139.73 107.42 C 140.01 108.50 141.10 109.15 142.18 108.88 Z M 143.11 108.63 L 144.05 108.40 C 145.13 108.14 145.79 107.06 145.52 105.99 C 145.26 104.91 144.18 104.25 143.11 104.52 L 142.17 104.74 C 141.09 105.01 140.44 106.09 140.70 107.16 C 140.96 108.24 142.04 108.89 143.11 108.63 Z M 144.04 108.39 L 144.99 108.17 C 146.06 107.91 146.72 106.84 146.46 105.77 C 146.21 104.70 145.13 104.04 144.07 104.30 L 143.12 104.52 C 142.05 104.78 141.39 105.85 141.65 106.92 C 141.90 107.99 142.97 108.65 144.04 108.39 Z M 144.99 108.16 L 145.96 107.93 C 147.02 107.67 147.68 106.61 147.42 105.54 C 147.17 104.48 146.10 103.83 145.04 104.08 L 144.07 104.31 C 143.01 104.56 142.35 105.63 142.60 106.69 C 142.86 107.75 143.92 108.41 144.99 108.16 Z M 145.96 107.91 L 146.98 107.67 C 148.04 107.41 148.68 106.35 148.43 105.29 C 148.17 104.24 147.11 103.59 146.06 103.84 L 145.04 104.09 C 143.98 104.35 143.33 105.41 143.59 106.46 C 143.84 107.52 144.91 108.17 145.96 107.91 Z M 146.99 107.65 L 147.87 107.43 C 148.92 107.17 149.56 106.11 149.30 105.06 C 149.04 104.02 147.98 103.38 146.93 103.64 L 146.05 103.86 C 145.00 104.12 144.36 105.18 144.62 106.23 C 144.88 107.27 145.94 107.91 146.99 107.65 Z M 147.88 107.42 L 148.80 107.18 C 149.84 106.92 150.47 105.86 150.21 104.82 C 149.94 103.78 148.89 103.15 147.84 103.42 L 146.92 103.65 C 145.88 103.92 145.25 104.97 145.52 106.01 C 145.78 107.05 146.84 107.68 147.88 107.42 Z M 148.81 107.17 L 149.76 106.92 C 150.80 106.66 151.42 105.60 151.15 104.57 C 150.88 103.53 149.82 102.91 148.79 103.18 L 147.84 103.43 C 146.80 103.70 146.18 104.75 146.45 105.79 C 146.72 106.82 147.78 107.44 148.81 107.17 Z M 149.77 106.91 L 150.75 106.65 C 151.77 106.38 152.38 105.33 152.11 104.30 C 151.84 103.28 150.79 102.67 149.76 102.94 L 148.78 103.20 C 147.76 103.47 147.15 104.52 147.42 105.55 C 147.69 106.57 148.74 107.18 149.77 106.91 Z M 150.75 106.64 L 151.75 106.37 C 152.77 106.10 153.37 105.05 153.10 104.03 C 152.82 103.01 151.77 102.41 150.75 102.68 L 149.76 102.95 C 148.74 103.22 148.13 104.27 148.41 105.29 C 148.68 106.31 149.73 106.92 150.75 106.64 Z M 151.75 106.36 L 152.76 106.08 C 153.77 105.80 154.37 104.76 154.09 103.75 C 153.81 102.74 152.77 102.14 151.75 102.42 L 150.75 102.69 C 149.74 102.97 149.14 104.02 149.42 105.03 C 149.70 106.04 150.74 106.64 151.75 106.36 Z M 152.77 106.07 L 153.78 105.79 C 154.78 105.51 155.37 104.46 155.09 103.46 C 154.81 102.45 153.77 101.87 152.76 102.15 L 151.75 102.43 C 150.74 102.71 150.16 103.75 150.44 104.76 C 150.72 105.76 151.76 106.35 152.77 106.07 Z M 153.78 105.77 L 154.80 105.48 C 155.80 105.20 156.38 104.16 156.09 103.16 C 155.81 102.17 154.77 101.59 153.78 101.87 L 152.76 102.16 C 151.76 102.45 151.18 103.48 151.47 104.48 C 151.75 105.48 152.79 106.05 153.78 105.77 Z M 154.81 105.46 L 155.82 105.17 C 156.81 104.88 157.37 103.85 157.09 102.87 C 156.80 101.88 155.77 101.31 154.79 101.60 L 153.77 101.89 C 152.79 102.18 152.22 103.21 152.50 104.19 C 152.79 105.18 153.82 105.75 154.81 105.46 Z M 155.82 105.15 L 156.82 104.85 C 157.80 104.56 158.35 103.54 158.07 102.57 C 157.78 101.59 156.76 101.04 155.78 101.32 L 154.78 101.62 C 153.81 101.91 153.25 102.93 153.54 103.90 C 153.83 104.88 154.85 105.44 155.82 105.15 Z M 156.83 104.83 L 157.81 104.54 C 158.77 104.25 159.31 103.23 159.02 102.27 C 158.74 101.31 157.72 100.76 156.76 101.05 L 155.78 101.35 C 154.82 101.64 154.27 102.65 154.56 103.61 C 154.85 104.58 155.86 105.12 156.83 104.83 Z M 157.81 104.52 L 158.76 104.22 C 159.71 103.93 160.25 102.92 159.96 101.97 C 159.67 101.02 158.66 100.49 157.71 100.78 L 156.75 101.07 C 155.80 101.36 155.27 102.37 155.56 103.32 C 155.85 104.27 156.86 104.81 157.81 104.52 Z M 158.77 104.20 L 159.69 103.91 C 160.63 103.62 161.15 102.62 160.86 101.68 C 160.57 100.74 159.57 100.22 158.63 100.51 L 157.70 100.80 C 156.76 101.09 156.24 102.09 156.53 103.03 C 156.83 103.97 157.83 104.50 158.77 104.20 Z M 159.69 103.89 L 160.58 103.61 C 161.51 103.31 162.02 102.32 161.72 101.39 C 161.43 100.47 160.43 99.95 159.51 100.25 L 158.62 100.53 C 157.69 100.83 157.18 101.82 157.48 102.75 C 157.77 103.68 158.77 104.19 159.69 103.89 Z M 160.59 103.59 L 161.54 103.28 C 162.46 102.98 162.95 101.99 162.65 101.08 C 162.36 100.16 161.37 99.66 160.45 99.96 L 159.50 100.27 C 158.58 100.57 158.09 101.56 158.39 102.47 C 158.68 103.39 159.67 103.89 160.59 103.59 Z M 161.55 103.25 L 162.57 102.91 C 163.47 102.60 163.96 101.63 163.65 100.72 C 163.35 99.82 162.37 99.34 161.47 99.64 L 160.45 99.98 C 159.54 100.29 159.06 101.27 159.36 102.17 C 159.67 103.07 160.64 103.56 161.55 103.25 Z M 162.57 102.89 L 163.54 102.55 C 164.43 102.25 164.90 101.28 164.60 100.39 C 164.29 99.50 163.32 99.02 162.43 99.33 L 161.47 99.66 C 160.58 99.97 160.10 100.94 160.41 101.83 C 160.71 102.72 161.68 103.19 162.57 102.89 Z M 163.54 102.53 L 164.46 102.21 C 165.34 101.91 165.80 100.95 165.50 100.07 C 165.19 99.19 164.23 98.72 163.35 99.03 L 162.43 99.35 C 161.55 99.66 161.09 100.62 161.39 101.50 C 161.70 102.37 162.66 102.84 163.54 102.53 Z M 164.45 102.19 L 165.35 101.88 C 166.21 101.58 166.67 100.63 166.37 99.76 C 166.07 98.89 165.12 98.44 164.25 98.74 L 163.36 99.05 C 162.49 99.35 162.03 100.30 162.33 101.17 C 162.64 102.04 163.59 102.50 164.45 102.19 Z M 165.33 101.87 L 166.21 101.56 C 167.07 101.27 167.53 100.33 167.23 99.47 C 166.93 98.61 166.00 98.16 165.14 98.45 L 164.26 98.76 C 163.40 99.05 162.95 99.99 163.24 100.85 C 163.54 101.71 164.48 102.16 165.33 101.87 Z M 166.20 101.55 L 167.11 101.25 C 167.96 100.96 168.42 100.03 168.13 99.18 C 167.85 98.33 166.92 97.87 166.07 98.16 L 165.15 98.46 C 164.30 98.75 163.84 99.68 164.13 100.53 C 164.42 101.38 165.34 101.84 166.20 101.55 Z M 167.09 101.24 L 168.01 100.94 C 168.87 100.67 169.33 99.75 169.06 98.90 C 168.78 98.05 167.87 97.58 167.01 97.86 L 166.09 98.16 C 165.24 98.43 164.77 99.35 165.05 100.20 C 165.32 101.05 166.24 101.52 167.09 101.24 Z M 167.99 100.94 L 168.93 100.65 C 169.78 100.39 170.26 99.49 170.00 98.64 C 169.74 97.79 168.84 97.31 167.98 97.57 L 167.04 97.86 C 166.19 98.12 165.71 99.02 165.97 99.87 C 166.23 100.73 167.14 101.20 167.99 100.94 Z M 168.90 100.65 L 169.87 100.38 C 170.72 100.13 171.21 99.25 170.97 98.39 C 170.72 97.54 169.84 97.05 168.98 97.29 L 168.02 97.57 C 167.16 97.81 166.67 98.70 166.92 99.55 C 167.16 100.40 168.05 100.90 168.90 100.65 Z M 169.83 100.38 L 170.83 100.11 C 171.69 99.89 172.20 99.02 171.97 98.17 C 171.75 97.32 170.88 96.81 170.02 97.03 L 169.02 97.29 C 168.17 97.52 167.66 98.39 167.88 99.24 C 168.11 100.09 168.98 100.60 169.83 100.38 Z M 170.80 100.12 L 171.76 99.89 C 172.61 99.68 173.14 98.83 172.94 97.97 C 172.73 97.12 171.88 96.60 171.02 96.80 L 170.06 97.03 C 169.21 97.23 168.68 98.09 168.88 98.94 C 169.09 99.79 169.94 100.32 170.80 100.12 Z M 171.73 99.89 L 172.67 99.68 C 173.53 99.50 174.07 98.65 173.88 97.80 C 173.70 96.95 172.85 96.40 172.00 96.59 L 171.05 96.80 C 170.20 96.98 169.66 97.83 169.85 98.68 C 170.03 99.53 170.87 100.08 171.73 99.89 Z M 172.65 99.68 L 173.62 99.49 C 174.48 99.31 175.03 98.48 174.85 97.63 C 174.68 96.77 173.85 96.22 172.99 96.39 L 172.02 96.59 C 171.17 96.76 170.61 97.60 170.79 98.45 C 170.96 99.31 171.80 99.86 172.65 99.68 Z M 173.60 99.49 L 174.60 99.30 C 175.45 99.13 176.01 98.31 175.85 97.45 C 175.68 96.60 174.86 96.04 174.00 96.20 L 173.01 96.39 C 172.16 96.56 171.60 97.38 171.76 98.24 C 171.92 99.09 172.75 99.65 173.60 99.49 Z M 174.58 99.30 L 175.59 99.11 C 176.44 98.95 177.01 98.13 176.85 97.28 C 176.69 96.42 175.87 95.86 175.02 96.02 L 174.01 96.20 C 173.16 96.36 172.59 97.18 172.75 98.03 C 172.91 98.89 173.73 99.45 174.58 99.30 Z M 175.58 99.11 L 176.60 98.92 C 177.45 98.77 178.01 97.96 177.86 97.10 C 177.71 96.25 176.89 95.68 176.04 95.84 L 175.03 96.02 C 174.17 96.17 173.61 96.99 173.76 97.84 C 173.91 98.69 174.73 99.26 175.58 99.11 Z M 176.59 98.92 L 177.05 98.84 C 177.91 98.69 178.47 97.87 178.32 97.02 C 178.17 96.17 177.36 95.61 176.50 95.76 L 176.04 95.84 C 175.19 95.99 174.62 96.81 174.78 97.66 C 174.93 98.51 175.74 99.07 176.59 98.92 Z"
      fill="black"
      fill-rule="nonzero" /><path d="M 88.79 165.82 L 87.97 166.35 C 87.21 166.85 87.00 167.86 87.49 168.62 C 87.98 169.38 89.00 169.60 89.76 169.10 L 90.58 168.57 C 91.34 168.07 91.56 167.06 91.06 166.30 C 90.57 165.54 89.55 165.32 88.79 165.82 Z M 87.96 166.35 L 87.14 166.89 C 86.37 167.39 86.16 168.41 86.66 169.17 C 87.16 169.94 88.19 170.15 88.95 169.65 L 89.77 169.11 C 90.54 168.61 90.75 167.58 90.25 166.82 C 89.75 166.06 88.72 165.85 87.96 166.35 Z M 87.12 166.89 L 86.30 167.44 C 85.53 167.95 85.33 168.98 85.84 169.74 C 86.35 170.50 87.38 170.71 88.14 170.20 L 88.97 169.65 C 89.73 169.14 89.93 168.11 89.42 167.34 C 88.92 166.58 87.88 166.38 87.12 166.89 Z M 86.27 167.44 L 85.45 168.01 C 84.68 168.53 84.49 169.57 85.01 170.33 C 85.53 171.09 86.57 171.29 87.33 170.76 L 88.16 170.20 C 88.92 169.67 89.12 168.64 88.60 167.88 C 88.07 167.11 87.04 166.92 86.27 167.44 Z M 85.42 168.02 L 84.58 168.61 C 83.83 169.14 83.65 170.19 84.18 170.95 C 84.72 171.71 85.77 171.88 86.52 171.35 L 87.36 170.76 C 88.12 170.22 88.29 169.17 87.76 168.42 C 87.22 167.66 86.18 167.48 85.42 168.02 Z M 84.54 168.61 L 83.53 169.36 C 82.77 169.92 82.61 170.99 83.17 171.74 C 83.73 172.50 84.80 172.66 85.55 172.10 L 86.57 171.35 C 87.33 170.79 87.49 169.72 86.93 168.96 C 86.37 168.21 85.30 168.05 84.54 168.61 Z M 83.44 169.35 L 82.42 170.16 C 81.66 170.77 81.53 171.88 82.14 172.64 C 82.75 173.40 83.86 173.53 84.62 172.92 L 85.64 172.11 C 86.40 171.50 86.53 170.39 85.92 169.63 C 85.31 168.87 84.20 168.74 83.44 169.35 Z M 82.27 170.20 L 81.52 170.90 C 80.78 171.59 80.74 172.75 81.43 173.49 C 82.12 174.23 83.28 174.27 84.02 173.58 L 84.77 172.88 C 85.51 172.19 85.55 171.03 84.86 170.29 C 84.17 169.55 83.01 169.51 82.27 170.20 Z M 81.16 171.23 L 80.87 171.71 C 80.31 172.60 80.58 173.77 81.47 174.32 C 82.36 174.88 83.53 174.61 84.09 173.72 L 84.38 173.24 C 84.94 172.36 84.67 171.18 83.78 170.63 C 82.89 170.07 81.72 170.34 81.16 171.23 Z M 81.42 174.35 L 81.65 174.50 C 82.56 175.09 83.76 174.83 84.35 173.93 C 84.93 173.02 84.68 171.82 83.77 171.23 L 83.54 171.08 C 82.63 170.49 81.43 170.75 80.84 171.65 C 80.26 172.56 80.51 173.76 81.42 174.35 Z M 82.95 174.82 L 83.56 174.75 C 84.64 174.62 85.41 173.64 85.28 172.56 C 85.15 171.48 84.17 170.71 83.09 170.84 L 82.48 170.91 C 81.40 171.04 80.63 172.02 80.76 173.10 C 80.89 174.18 81.87 174.95 82.95 174.82 Z M 83.82 174.70 L 84.73 174.47 C 85.79 174.19 86.42 173.11 86.15 172.06 C 85.87 171.00 84.79 170.37 83.73 170.64 L 82.82 170.88 C 81.77 171.16 81.14 172.24 81.41 173.29 C 81.69 174.35 82.77 174.98 83.82 174.70 Z M 84.84 174.44 L 85.98 174.08 C 87.02 173.74 87.59 172.63 87.26 171.58 C 86.92 170.54 85.81 169.97 84.76 170.30 L 83.63 170.67 C 82.58 171.00 82.01 172.12 82.35 173.16 C 82.68 174.20 83.80 174.78 84.84 174.44 Z M 86.03 174.07 L 87.32 173.61 C 88.36 173.24 88.90 172.11 88.53 171.07 C 88.17 170.03 87.03 169.49 85.99 169.86 L 84.71 170.31 C 83.67 170.68 83.13 171.82 83.49 172.85 C 83.86 173.89 85.00 174.43 86.03 174.07 Z M 87.35 173.61 L 88.53 173.17 C 89.56 172.78 90.09 171.63 89.70 170.60 C 89.32 169.57 88.17 169.04 87.13 169.43 L 85.96 169.86 C 84.93 170.25 84.40 171.40 84.79 172.43 C 85.17 173.47 86.32 173.99 87.35 173.61 Z M 88.55 173.16 L 89.50 172.80 C 90.53 172.40 91.05 171.24 90.65 170.21 C 90.26 169.18 89.10 168.67 88.07 169.06 L 87.11 169.43 C 86.08 169.83 85.57 170.98 85.96 172.01 C 86.36 173.04 87.52 173.56 88.55 173.16 Z M 89.51 172.79 L 90.48 172.42 C 91.50 172.01 92.01 170.86 91.61 169.83 C 91.21 168.80 90.05 168.29 89.02 168.69 L 88.06 169.07 C 87.03 169.47 86.52 170.63 86.93 171.66 C 87.33 172.68 88.49 173.19 89.51 172.79 Z M 90.48 172.41 L 91.44 172.04 C 92.47 171.63 92.97 170.47 92.57 169.44 C 92.16 168.42 91.00 167.91 89.97 168.32 L 89.01 168.70 C 87.99 169.10 87.48 170.26 87.89 171.29 C 88.29 172.31 89.46 172.82 90.48 172.41 Z M 91.44 172.03 L 92.39 171.66 C 93.42 171.25 93.92 170.09 93.51 169.06 C 93.10 168.04 91.94 167.54 90.91 167.94 L 89.97 168.32 C 88.94 168.73 88.44 169.89 88.85 170.91 C 89.26 171.94 90.42 172.44 91.44 172.03 Z M 92.39 171.66 L 93.32 171.29 C 94.34 170.88 94.84 169.72 94.44 168.69 C 94.03 167.67 92.87 167.17 91.84 167.57 L 90.91 167.94 C 89.89 168.35 89.39 169.51 89.79 170.54 C 90.20 171.56 91.36 172.07 92.39 171.66 Z M 93.31 171.29 L 94.21 170.94 C 95.24 170.53 95.74 169.37 95.34 168.34 C 94.93 167.32 93.77 166.81 92.74 167.22 L 91.85 167.57 C 90.82 167.98 90.31 169.14 90.72 170.17 C 91.13 171.19 92.29 171.70 93.31 171.29 Z M 94.20 170.94 L 95.07 170.60 C 96.10 170.20 96.60 169.04 96.20 168.02 C 95.80 166.99 94.64 166.48 93.62 166.88 L 92.75 167.22 C 91.72 167.62 91.21 168.77 91.62 169.80 C 92.02 170.83 93.18 171.34 94.20 170.94 Z M 95.05 170.61 L 96.06 170.23 C 97.09 169.83 97.60 168.68 97.21 167.65 C 96.82 166.62 95.66 166.10 94.63 166.49 L 93.63 166.87 C 92.60 167.27 92.08 168.42 92.47 169.45 C 92.87 170.48 94.02 171.00 95.05 170.61 Z M 96.04 170.23 L 97.00 169.87 C 98.03 169.49 98.56 168.34 98.17 167.31 C 97.79 166.27 96.64 165.75 95.60 166.13 L 94.65 166.49 C 93.61 166.87 93.09 168.02 93.47 169.06 C 93.86 170.09 95.01 170.61 96.04 170.23 Z M 96.99 169.88 L 97.91 169.54 C 98.95 169.16 99.48 168.01 99.10 166.98 C 98.72 165.94 97.57 165.41 96.54 165.79 L 95.62 166.13 C 94.58 166.51 94.05 167.65 94.43 168.69 C 94.81 169.72 95.95 170.25 96.99 169.88 Z M 97.90 169.54 L 98.81 169.21 C 99.85 168.84 100.38 167.69 100.01 166.66 C 99.63 165.62 98.49 165.09 97.46 165.46 L 96.55 165.79 C 95.51 166.16 94.98 167.31 95.35 168.34 C 95.73 169.38 96.87 169.91 97.90 169.54 Z M 98.81 169.21 L 99.72 168.88 C 100.76 168.51 101.29 167.37 100.92 166.33 C 100.54 165.30 99.40 164.76 98.37 165.13 L 97.46 165.46 C 96.42 165.83 95.89 166.98 96.26 168.01 C 96.63 169.05 97.78 169.58 98.81 169.21 Z M 99.72 168.88 L 100.65 168.54 C 101.68 168.17 102.22 167.02 101.84 165.99 C 101.47 164.96 100.33 164.42 99.29 164.80 L 98.36 165.14 C 97.33 165.51 96.80 166.65 97.17 167.69 C 97.55 168.72 98.69 169.25 99.72 168.88 Z M 100.66 168.54 L 101.54 168.21 C 102.57 167.84 103.10 166.69 102.72 165.66 C 102.34 164.63 101.20 164.10 100.17 164.48 L 99.28 164.80 C 98.25 165.18 97.72 166.32 98.10 167.36 C 98.48 168.39 99.62 168.92 100.66 168.54 Z M 101.55 168.21 L 102.45 167.88 C 103.48 167.49 104.00 166.35 103.62 165.32 C 103.24 164.29 102.10 163.76 101.07 164.15 L 100.16 164.48 C 99.13 164.86 98.61 166.01 98.99 167.04 C 99.37 168.07 100.52 168.59 101.55 168.21 Z M 102.45 167.87 L 103.38 167.53 C 104.41 167.14 104.93 166.00 104.55 164.97 C 104.16 163.94 103.02 163.42 101.99 163.80 L 101.06 164.15 C 100.03 164.53 99.51 165.68 99.90 166.71 C 100.28 167.73 101.42 168.26 102.45 167.87 Z M 103.38 167.53 L 104.33 167.17 C 105.35 166.79 105.87 165.64 105.49 164.61 C 105.11 163.59 103.96 163.07 102.93 163.45 L 101.99 163.81 C 100.96 164.19 100.44 165.33 100.82 166.36 C 101.21 167.39 102.35 167.91 103.38 167.53 Z M 104.33 167.17 L 105.29 166.81 C 106.31 166.42 106.83 165.28 106.45 164.25 C 106.06 163.23 104.92 162.71 103.89 163.09 L 102.93 163.45 C 101.91 163.84 101.39 164.98 101.77 166.01 C 102.16 167.03 103.30 167.55 104.33 167.17 Z M 105.29 166.81 L 106.26 166.44 C 107.28 166.06 107.81 164.92 107.42 163.89 C 107.04 162.87 105.89 162.35 104.87 162.73 L 103.90 163.09 C 102.87 163.48 102.35 164.62 102.73 165.65 C 103.12 166.67 104.26 167.19 105.29 166.81 Z M 106.26 166.44 L 107.22 166.09 C 108.24 165.70 108.76 164.56 108.38 163.54 C 108.00 162.51 106.86 161.99 105.83 162.37 L 104.87 162.73 C 103.84 163.11 103.32 164.25 103.71 165.28 C 104.09 166.31 105.23 166.83 106.26 166.44 Z M 107.21 166.09 L 108.13 165.74 C 109.16 165.36 109.68 164.22 109.30 163.20 C 108.92 162.17 107.78 161.65 106.75 162.03 L 105.83 162.37 C 104.81 162.75 104.29 163.89 104.67 164.92 C 105.05 165.94 106.19 166.47 107.21 166.09 Z M 108.13 165.74 L 109.05 165.40 C 110.07 165.02 110.60 163.88 110.22 162.86 C 109.84 161.84 108.70 161.31 107.68 161.69 L 106.75 162.03 C 105.73 162.41 105.21 163.55 105.58 164.57 C 105.96 165.60 107.10 166.12 108.13 165.74 Z M 109.05 165.40 L 109.98 165.06 C 111.00 164.68 111.52 163.54 111.15 162.52 C 110.77 161.50 109.63 160.97 108.61 161.35 L 107.68 161.69 C 106.65 162.07 106.13 163.21 106.51 164.23 C 106.89 165.25 108.02 165.78 109.05 165.40 Z M 109.97 165.06 L 110.91 164.71 C 111.93 164.34 112.46 163.20 112.08 162.18 C 111.71 161.15 110.57 160.63 109.55 161.01 L 108.61 161.35 C 107.59 161.73 107.06 162.86 107.44 163.89 C 107.81 164.91 108.95 165.43 109.97 165.06 Z M 110.91 164.71 L 111.86 164.36 C 112.88 163.99 113.40 162.86 113.03 161.83 C 112.65 160.81 111.52 160.29 110.50 160.66 L 109.55 161.01 C 108.53 161.38 108.00 162.52 108.38 163.54 C 108.75 164.56 109.89 165.09 110.91 164.71 Z M 111.85 164.36 L 112.81 164.01 C 113.83 163.64 114.36 162.51 113.99 161.48 C 113.61 160.46 112.48 159.94 111.46 160.31 L 110.50 160.66 C 109.48 161.04 108.95 162.17 109.33 163.19 C 109.70 164.21 110.83 164.74 111.85 164.36 Z M 112.81 164.01 L 113.77 163.66 C 114.79 163.29 115.32 162.16 114.94 161.14 C 114.57 160.11 113.44 159.59 112.42 159.96 L 111.46 160.31 C 110.44 160.69 109.91 161.82 110.29 162.84 C 110.66 163.86 111.79 164.38 112.81 164.01 Z M 113.77 163.66 L 114.68 163.33 C 115.70 162.95 116.23 161.82 115.85 160.80 C 115.48 159.78 114.35 159.26 113.33 159.63 L 112.42 159.96 C 111.40 160.34 110.88 161.47 111.25 162.49 C 111.62 163.51 112.75 164.03 113.77 163.66 Z M 114.68 163.32 L 115.60 162.99 C 116.62 162.61 117.15 161.49 116.77 160.47 C 116.40 159.45 115.27 158.93 114.26 159.30 L 113.33 159.63 C 112.31 160.01 111.79 161.13 112.16 162.15 C 112.53 163.17 113.66 163.69 114.68 163.32 Z M 115.60 162.98 L 116.53 162.64 C 117.55 162.27 118.07 161.15 117.70 160.13 C 117.33 159.11 116.20 158.59 115.19 158.96 L 114.26 159.30 C 113.24 159.67 112.72 160.80 113.09 161.81 C 113.46 162.83 114.58 163.36 115.60 162.98 Z M 116.53 162.64 L 117.47 162.30 C 118.49 161.92 119.01 160.80 118.64 159.78 C 118.27 158.77 117.14 158.25 116.13 158.62 L 115.19 158.96 C 114.17 159.33 113.65 160.46 114.02 161.47 C 114.39 162.49 115.52 163.01 116.53 162.64 Z M 117.48 162.29 L 118.42 161.95 C 119.44 161.57 119.96 160.45 119.58 159.43 C 119.21 158.42 118.09 157.90 117.07 158.27 L 116.13 158.62 C 115.11 158.99 114.59 160.12 114.96 161.13 C 115.34 162.15 116.46 162.67 117.48 162.29 Z M 118.42 161.94 L 119.38 161.59 C 120.39 161.22 120.91 160.09 120.53 159.08 C 120.16 158.07 119.04 157.55 118.02 157.92 L 117.07 158.28 C 116.06 158.65 115.54 159.77 115.91 160.79 C 116.29 161.80 117.41 162.32 118.42 161.94 Z M 119.38 161.59 L 120.34 161.23 C 121.35 160.86 121.86 159.73 121.49 158.72 C 121.11 157.71 119.99 157.20 118.98 157.57 L 118.02 157.93 C 117.01 158.30 116.50 159.43 116.87 160.44 C 117.25 161.45 118.37 161.96 119.38 161.59 Z M 120.34 161.23 L 121.28 160.88 C 122.29 160.50 122.80 159.38 122.43 158.37 C 122.05 157.36 120.93 156.85 119.92 157.22 L 118.98 157.58 C 117.97 157.95 117.46 159.07 117.83 160.08 C 118.21 161.09 119.33 161.60 120.34 161.23 Z M 121.29 160.87 L 122.21 160.52 C 123.22 160.15 123.73 159.02 123.35 158.02 C 122.97 157.01 121.85 156.50 120.85 156.88 L 119.92 157.23 C 118.91 157.61 118.40 158.73 118.78 159.73 C 119.16 160.74 120.28 161.25 121.29 160.87 Z M 122.22 160.52 L 123.15 160.17 C 124.15 159.79 124.66 158.67 124.28 157.66 C 123.90 156.66 122.78 156.15 121.77 156.53 L 120.84 156.89 C 119.84 157.26 119.33 158.39 119.71 159.39 C 120.09 160.39 121.21 160.90 122.22 160.52 Z M 123.15 160.16 L 124.08 159.81 C 125.08 159.42 125.58 158.31 125.20 157.31 C 124.82 156.30 123.70 155.80 122.70 156.18 L 121.77 156.54 C 120.77 156.92 120.27 158.04 120.65 159.04 C 121.03 160.04 122.15 160.54 123.15 160.16 Z M 124.09 159.80 L 125.02 159.44 C 126.02 159.06 126.52 157.94 126.13 156.94 C 125.75 155.95 124.63 155.45 123.63 155.83 L 122.70 156.19 C 121.70 156.57 121.20 157.69 121.59 158.69 C 121.97 159.69 123.09 160.18 124.09 159.80 Z M 125.02 159.44 L 125.96 159.07 C 126.95 158.69 127.45 157.57 127.06 156.58 C 126.68 155.58 125.56 155.09 124.57 155.47 L 123.63 155.84 C 122.64 156.22 122.14 157.34 122.53 158.33 C 122.91 159.33 124.03 159.82 125.02 159.44 Z M 125.96 159.07 L 126.90 158.70 C 127.89 158.32 128.38 157.20 128.00 156.21 C 127.61 155.22 126.49 154.73 125.50 155.11 L 124.56 155.48 C 123.57 155.87 123.08 156.98 123.47 157.97 C 123.85 158.97 124.97 159.46 125.96 159.07 Z M 126.90 158.70 L 127.84 158.33 C 128.83 157.94 129.32 156.82 128.93 155.84 C 128.54 154.85 127.42 154.36 126.43 154.75 L 125.50 155.12 C 124.51 155.51 124.02 156.62 124.41 157.61 C 124.80 158.60 125.92 159.09 126.90 158.70 Z M 127.85 158.32 L 128.78 157.95 C 129.77 157.56 130.25 156.45 129.86 155.46 C 129.46 154.48 128.35 153.99 127.36 154.38 L 126.43 154.76 C 125.44 155.15 124.96 156.26 125.35 157.25 C 125.75 158.23 126.86 158.71 127.85 158.32 Z M 128.78 157.95 L 129.71 157.57 C 130.70 157.18 131.17 156.07 130.78 155.08 C 130.39 154.10 129.27 153.63 128.29 154.02 L 127.36 154.39 C 126.38 154.78 125.90 155.90 126.29 156.88 C 126.69 157.86 127.80 158.34 128.78 157.95 Z M 129.72 157.57 L 130.65 157.19 C 131.63 156.80 132.10 155.68 131.70 154.71 C 131.31 153.73 130.19 153.25 129.22 153.65 L 128.29 154.02 C 127.31 154.42 126.84 155.53 127.23 156.51 C 127.63 157.49 128.74 157.96 129.72 157.57 Z M 130.65 157.19 L 131.58 156.81 C 132.55 156.41 133.02 155.30 132.63 154.32 C 132.23 153.35 131.12 152.88 130.14 153.28 L 129.21 153.65 C 128.24 154.05 127.77 155.16 128.17 156.14 C 128.56 157.11 129.67 157.58 130.65 157.19 Z M 131.58 156.80 L 132.51 156.42 C 133.48 156.03 133.95 154.92 133.55 153.94 C 133.15 152.97 132.04 152.51 131.07 152.90 L 130.14 153.28 C 129.17 153.68 128.70 154.79 129.10 155.76 C 129.50 156.74 130.61 157.20 131.58 156.80 Z M 132.51 156.42 L 133.43 156.04 C 134.40 155.64 134.87 154.53 134.47 153.56 C 134.07 152.59 132.96 152.13 131.99 152.53 L 131.06 152.91 C 130.09 153.31 129.63 154.42 130.03 155.39 C 130.43 156.36 131.54 156.82 132.51 156.42 Z M 133.44 156.03 L 134.36 155.65 C 135.33 155.25 135.78 154.14 135.38 153.18 C 134.98 152.21 133.88 151.75 132.91 152.15 L 131.99 152.53 C 131.02 152.93 130.56 154.04 130.96 155.01 C 131.36 155.97 132.47 156.43 133.44 156.03 Z M 134.36 155.65 L 135.28 155.26 C 136.24 154.86 136.70 153.76 136.30 152.79 C 135.90 151.83 134.79 151.37 133.83 151.77 L 132.91 152.16 C 131.94 152.56 131.49 153.66 131.89 154.63 C 132.29 155.59 133.40 156.05 134.36 155.65 Z M 135.28 155.26 L 136.20 154.87 C 137.16 154.47 137.61 153.37 137.21 152.41 C 136.81 151.45 135.70 150.99 134.74 151.40 L 133.83 151.78 C 132.87 152.18 132.41 153.28 132.81 154.24 C 133.22 155.21 134.32 155.66 135.28 155.26 Z M 136.20 154.87 L 137.11 154.49 C 138.07 154.08 138.52 152.98 138.12 152.03 C 137.72 151.07 136.61 150.62 135.66 151.02 L 134.74 151.40 C 133.79 151.80 133.34 152.90 133.74 153.86 C 134.14 154.82 135.24 155.27 136.20 154.87 Z M 137.11 154.48 L 138.02 154.10 C 138.98 153.69 139.42 152.59 139.02 151.64 C 138.62 150.69 137.52 150.24 136.57 150.64 L 135.66 151.02 C 134.70 151.43 134.25 152.53 134.66 153.48 C 135.06 154.43 136.16 154.88 137.11 154.48 Z M 138.02 154.09 L 138.94 153.70 C 139.89 153.30 140.33 152.20 139.93 151.25 C 139.53 150.30 138.43 149.86 137.48 150.26 L 136.57 150.65 C 135.62 151.05 135.17 152.15 135.57 153.10 C 135.98 154.05 137.07 154.49 138.02 154.09 Z M 138.94 153.70 L 139.85 153.31 C 140.80 152.90 141.24 151.81 140.84 150.86 C 140.44 149.92 139.34 149.48 138.39 149.88 L 137.48 150.27 C 136.53 150.67 136.09 151.76 136.49 152.71 C 136.90 153.66 137.99 154.10 138.94 153.70 Z M 139.85 153.30 L 140.77 152.91 C 141.72 152.50 142.15 151.41 141.75 150.47 C 141.35 149.53 140.26 149.09 139.31 149.49 L 138.39 149.88 C 137.45 150.29 137.01 151.38 137.42 152.32 C 137.82 153.27 138.91 153.70 139.85 153.30 Z M 140.77 152.90 L 141.70 152.50 C 142.64 152.10 143.07 151.01 142.67 150.07 C 142.27 149.13 141.18 148.70 140.24 149.10 L 139.31 149.50 C 138.37 149.90 137.94 150.99 138.34 151.93 C 138.75 152.87 139.83 153.30 140.77 152.90 Z M 141.70 152.50 L 142.63 152.09 C 143.57 151.69 144.00 150.60 143.60 149.67 C 143.19 148.73 142.10 148.30 141.17 148.70 L 140.24 149.11 C 139.30 149.51 138.87 150.60 139.27 151.53 C 139.68 152.47 140.76 152.90 141.70 152.50 Z M 142.63 152.09 L 143.57 151.68 C 144.50 151.28 144.93 150.19 144.52 149.26 C 144.12 148.33 143.03 147.90 142.10 148.31 L 141.17 148.71 C 140.23 149.12 139.81 150.20 140.21 151.13 C 140.62 152.07 141.70 152.49 142.63 152.09 Z M 143.57 151.68 L 144.49 151.27 C 145.42 150.87 145.85 149.78 145.44 148.85 C 145.04 147.93 143.95 147.50 143.02 147.91 L 142.10 148.31 C 141.17 148.72 140.75 149.80 141.15 150.73 C 141.56 151.66 142.64 152.08 143.57 151.68 Z M 144.49 151.27 L 145.42 150.86 C 146.35 150.45 146.77 149.37 146.37 148.45 C 145.96 147.52 144.88 147.10 143.95 147.51 L 143.02 147.91 C 142.10 148.32 141.68 149.40 142.08 150.32 C 142.49 151.25 143.57 151.67 144.49 151.27 Z M 145.43 150.85 L 146.36 150.44 C 147.28 150.03 147.70 148.96 147.29 148.04 C 146.88 147.11 145.81 146.70 144.88 147.10 L 143.95 147.51 C 143.03 147.92 142.61 148.99 143.02 149.92 C 143.43 150.84 144.50 151.26 145.43 150.85 Z M 146.36 150.43 L 147.28 150.03 C 148.20 149.62 148.62 148.54 148.21 147.63 C 147.81 146.71 146.73 146.29 145.81 146.70 L 144.88 147.11 C 143.97 147.51 143.55 148.59 143.96 149.51 C 144.36 150.43 145.44 150.84 146.36 150.43 Z M 147.28 150.02 L 148.20 149.61 C 149.12 149.21 149.53 148.13 149.13 147.22 C 148.72 146.30 147.65 145.89 146.73 146.30 L 145.81 146.70 C 144.90 147.11 144.48 148.18 144.89 149.10 C 145.30 150.01 146.37 150.43 147.28 150.02 Z M 148.20 149.61 L 149.11 149.20 C 150.02 148.80 150.43 147.73 150.03 146.82 C 149.62 145.90 148.55 145.49 147.64 145.90 L 146.73 146.30 C 145.82 146.71 145.41 147.78 145.82 148.69 C 146.22 149.60 147.29 150.01 148.20 149.61 Z M 149.11 149.20 L 150.00 148.80 C 150.91 148.39 151.32 147.33 150.92 146.42 C 150.51 145.51 149.45 145.10 148.54 145.51 L 147.64 145.90 C 146.73 146.31 146.32 147.37 146.73 148.28 C 147.13 149.19 148.20 149.60 149.11 149.20 Z M 150.00 148.79 L 150.89 148.40 C 151.79 147.99 152.20 146.93 151.80 146.02 C 151.39 145.12 150.33 144.71 149.42 145.12 L 148.54 145.51 C 147.63 145.92 147.22 146.98 147.63 147.88 C 148.03 148.79 149.10 149.20 150.00 148.79 Z M 150.89 148.39 L 151.87 147.95 C 152.77 147.55 153.17 146.49 152.77 145.59 C 152.37 144.69 151.31 144.28 150.41 144.68 L 149.43 145.12 C 148.52 145.52 148.12 146.58 148.52 147.49 C 148.92 148.39 149.98 148.79 150.89 148.39 Z M 151.86 147.95 L 152.82 147.52 C 153.72 147.12 154.12 146.07 153.72 145.17 C 153.32 144.27 152.26 143.86 151.36 144.26 L 150.41 144.69 C 149.51 145.09 149.11 146.15 149.51 147.05 C 149.91 147.95 150.96 148.35 151.86 147.95 Z M 152.81 147.52 L 153.74 147.11 C 154.64 146.71 155.04 145.66 154.64 144.76 C 154.24 143.86 153.19 143.46 152.30 143.86 L 151.37 144.27 C 150.47 144.67 150.07 145.72 150.46 146.62 C 150.86 147.51 151.91 147.92 152.81 147.52 Z M 153.74 147.10 L 154.64 146.70 C 155.54 146.30 155.94 145.26 155.55 144.36 C 155.15 143.47 154.10 143.06 153.21 143.46 L 152.30 143.86 C 151.41 144.26 151.00 145.30 151.40 146.20 C 151.79 147.09 152.84 147.50 153.74 147.10 Z M 154.64 146.69 L 155.53 146.30 C 156.42 145.91 156.83 144.87 156.43 143.98 C 156.04 143.08 155.00 142.68 154.11 143.07 L 153.22 143.46 C 152.32 143.86 151.92 144.90 152.31 145.79 C 152.70 146.68 153.75 147.09 154.64 146.69 Z M 155.52 146.30 L 156.40 145.92 C 157.29 145.53 157.69 144.49 157.31 143.60 C 156.92 142.71 155.88 142.30 154.99 142.69 L 154.11 143.07 C 153.22 143.46 152.82 144.50 153.21 145.39 C 153.59 146.28 154.63 146.69 155.52 146.30 Z M 156.39 145.91 L 157.25 145.54 C 158.14 145.16 158.55 144.12 158.17 143.24 C 157.78 142.35 156.75 141.94 155.86 142.32 L 155.00 142.69 C 154.11 143.08 153.70 144.11 154.09 145.00 C 154.47 145.89 155.50 146.30 156.39 145.91 Z M 157.24 145.54 L 158.19 145.13 C 159.07 144.76 159.49 143.73 159.11 142.84 C 158.73 141.96 157.71 141.54 156.82 141.92 L 155.87 142.32 C 154.99 142.70 154.57 143.73 154.95 144.61 C 155.33 145.50 156.36 145.91 157.24 145.54 Z M 158.18 145.13 L 159.12 144.73 C 160.01 144.36 160.42 143.34 160.05 142.46 C 159.68 141.57 158.66 141.16 157.77 141.53 L 156.83 141.93 C 155.94 142.30 155.53 143.32 155.90 144.20 C 156.27 145.09 157.29 145.50 158.18 145.13 Z M 159.11 144.73 L 160.04 144.34 C 160.93 143.98 161.34 142.96 160.98 142.08 C 160.61 141.20 159.60 140.78 158.71 141.14 L 157.78 141.53 C 156.90 141.90 156.48 142.91 156.85 143.80 C 157.21 144.68 158.23 145.10 159.11 144.73 Z M 160.03 144.34 L 160.96 143.96 C 161.84 143.60 162.26 142.59 161.90 141.71 C 161.53 140.83 160.53 140.41 159.64 140.77 L 158.72 141.15 C 157.84 141.51 157.42 142.52 157.78 143.40 C 158.15 144.28 159.15 144.70 160.03 144.34 Z M 160.95 143.95 L 161.86 143.58 C 162.74 143.22 163.16 142.22 162.80 141.34 C 162.44 140.47 161.44 140.04 160.56 140.40 L 159.65 140.77 C 158.77 141.13 158.35 142.14 158.71 143.01 C 159.07 143.89 160.07 144.31 160.95 143.95 Z M 161.86 143.58 L 162.76 143.21 C 163.63 142.86 164.05 141.86 163.70 140.98 C 163.34 140.11 162.35 139.69 161.47 140.04 L 160.57 140.41 C 159.69 140.76 159.27 141.76 159.63 142.64 C 159.98 143.51 160.98 143.93 161.86 143.58 Z M 162.75 143.21 L 163.63 142.85 C 164.50 142.50 164.92 141.51 164.57 140.63 C 164.22 139.76 163.23 139.34 162.35 139.69 L 161.48 140.05 C 160.60 140.40 160.18 141.39 160.53 142.27 C 160.89 143.14 161.88 143.56 162.75 143.21 Z M 163.63 142.85 L 164.49 142.50 C 165.36 142.15 165.78 141.16 165.43 140.29 C 165.08 139.42 164.09 139.00 163.22 139.35 L 162.36 139.70 C 161.49 140.05 161.07 141.04 161.42 141.91 C 161.77 142.77 162.76 143.20 163.63 142.85 Z M 164.48 142.49 L 165.35 142.15 C 166.22 141.80 166.64 140.82 166.29 139.95 C 165.95 139.08 164.96 138.66 164.10 139.01 L 163.23 139.36 C 162.36 139.70 161.94 140.69 162.28 141.55 C 162.63 142.42 163.61 142.84 164.48 142.49 Z M 165.34 142.14 L 166.24 141.79 C 167.10 141.45 167.53 140.47 167.18 139.60 C 166.84 138.74 165.86 138.32 165.00 138.66 L 164.11 139.01 C 163.24 139.36 162.82 140.33 163.16 141.20 C 163.50 142.06 164.48 142.48 165.34 142.14 Z M 166.23 141.78 L 167.16 141.42 C 168.02 141.08 168.45 140.11 168.11 139.25 C 167.77 138.39 166.80 137.96 165.94 138.30 L 165.01 138.66 C 164.15 139.00 163.72 139.97 164.06 140.83 C 164.40 141.70 165.37 142.12 166.23 141.78 Z M 167.15 141.42 L 168.14 141.03 C 169.00 140.70 169.42 139.74 169.09 138.88 C 168.76 138.02 167.79 137.59 166.93 137.92 L 165.95 138.30 C 165.09 138.63 164.66 139.60 164.99 140.46 C 165.33 141.32 166.29 141.75 167.15 141.42 Z M 168.13 141.03 L 169.17 140.63 C 170.03 140.30 170.46 139.34 170.13 138.49 C 169.81 137.63 168.84 137.20 167.99 137.53 L 166.94 137.93 C 166.08 138.25 165.65 139.21 165.98 140.07 C 166.31 140.93 167.27 141.36 168.13 141.03 Z M 169.17 140.63 L 170.05 140.29 C 170.91 139.97 171.34 139.01 171.02 138.16 C 170.70 137.30 169.74 136.87 168.88 137.19 L 168.00 137.53 C 167.14 137.85 166.71 138.81 167.03 139.66 C 167.35 140.52 168.31 140.95 169.17 140.63 Z M 170.05 140.29 L 170.93 139.96 C 171.78 139.64 172.22 138.69 171.90 137.84 C 171.58 136.98 170.63 136.55 169.77 136.87 L 168.89 137.20 C 168.04 137.51 167.60 138.47 167.92 139.32 C 168.24 140.17 169.19 140.61 170.05 140.29 Z M 170.92 139.96 L 171.83 139.62 C 172.69 139.31 173.13 138.37 172.81 137.51 C 172.50 136.66 171.55 136.22 170.70 136.53 L 169.78 136.87 C 168.93 137.18 168.49 138.13 168.80 138.98 C 169.12 139.84 170.06 140.27 170.92 139.96 Z M 171.82 139.62 L 172.77 139.29 C 173.62 138.98 174.06 138.04 173.76 137.18 C 173.45 136.33 172.51 135.89 171.66 136.19 L 170.71 136.53 C 169.86 136.84 169.41 137.78 169.72 138.63 C 170.03 139.49 170.97 139.93 171.82 139.62 Z M 172.75 139.29 L 173.72 138.95 C 174.57 138.65 175.02 137.71 174.72 136.86 C 174.42 136.00 173.49 135.55 172.63 135.85 L 171.67 136.19 C 170.81 136.49 170.36 137.43 170.66 138.28 C 170.96 139.14 171.90 139.59 172.75 139.29 Z M 173.70 138.95 L 174.68 138.61 C 175.54 138.32 175.99 137.39 175.70 136.54 C 175.41 135.68 174.48 135.23 173.63 135.52 L 172.65 135.85 C 171.79 136.14 171.34 137.07 171.63 137.93 C 171.92 138.78 172.85 139.24 173.70 138.95 Z M 174.67 138.61 L 175.65 138.29 C 176.51 138.01 176.97 137.08 176.69 136.23 C 176.41 135.37 175.49 134.91 174.63 135.19 L 173.64 135.52 C 172.79 135.80 172.32 136.72 172.61 137.58 C 172.89 138.43 173.81 138.90 174.67 138.61 Z M 175.63 138.29 L 176.62 137.98 C 177.48 137.71 177.95 136.79 177.68 135.93 C 177.41 135.08 176.49 134.60 175.64 134.88 L 174.65 135.19 C 173.79 135.46 173.32 136.38 173.59 137.23 C 173.86 138.09 174.78 138.56 175.63 138.29 Z M 176.60 137.98 L 177.58 137.68 C 178.44 137.42 178.93 136.52 178.67 135.66 C 178.41 134.80 177.50 134.32 176.64 134.58 L 175.66 134.87 C 174.80 135.13 174.32 136.04 174.58 136.90 C 174.84 137.75 175.74 138.24 176.60 137.98 Z M 177.56 137.68 L 178.56 137.40 C 179.42 137.15 179.91 136.26 179.67 135.40 C 179.42 134.54 178.53 134.04 177.67 134.29 L 176.67 134.57 C 175.81 134.82 175.31 135.71 175.56 136.57 C 175.80 137.43 176.70 137.93 177.56 137.68 Z M 178.53 137.40 L 179.52 137.13 C 180.38 136.90 180.89 136.02 180.66 135.16 C 180.43 134.30 179.54 133.79 178.68 134.02 L 177.69 134.29 C 176.83 134.52 176.32 135.40 176.56 136.26 C 176.79 137.12 177.67 137.63 178.53 137.40 Z M 179.50 137.13 L 180.48 136.88 C 181.34 136.66 181.86 135.79 181.64 134.93 C 181.42 134.07 180.54 133.55 179.68 133.77 L 178.70 134.02 C 177.84 134.24 177.32 135.12 177.54 135.98 C 177.77 136.83 178.64 137.35 179.50 137.13 Z M 180.46 136.88 L 181.43 136.64 C 182.29 136.43 182.82 135.57 182.61 134.71 C 182.40 133.85 181.53 133.32 180.67 133.53 L 179.70 133.77 C 178.84 133.98 178.32 134.85 178.53 135.71 C 178.74 136.56 179.60 137.09 180.46 136.88 Z M 181.42 136.64 L 182.38 136.42 C 183.24 136.21 183.77 135.36 183.57 134.50 C 183.37 133.64 182.51 133.11 181.65 133.31 L 180.69 133.53 C 179.83 133.74 179.30 134.59 179.50 135.45 C 179.70 136.31 180.56 136.84 181.42 136.64 Z M 182.37 136.41 L 183.33 136.20 C 184.19 136.00 184.73 135.15 184.53 134.29 C 184.34 133.44 183.48 132.90 182.63 133.09 L 181.67 133.31 C 180.81 133.50 180.27 134.36 180.47 135.21 C 180.66 136.07 181.51 136.61 182.37 136.41 Z M 183.32 136.19 L 184.28 135.98 C 185.13 135.79 185.67 134.95 185.48 134.09 C 185.30 133.24 184.45 132.70 183.59 132.88 L 182.64 133.10 C 181.78 133.28 181.24 134.13 181.43 134.99 C 181.62 135.84 182.47 136.38 183.32 136.19 Z M 184.27 135.98 L 185.23 135.77 C 186.08 135.58 186.62 134.74 186.44 133.89 C 186.25 133.04 185.41 132.50 184.56 132.68 L 183.60 132.89 C 182.75 133.07 182.21 133.92 182.39 134.77 C 182.58 135.62 183.42 136.16 184.27 135.98 Z M 185.22 135.77 L 185.71 135.66 C 186.56 135.48 187.10 134.64 186.92 133.79 C 186.74 132.94 185.90 132.39 185.05 132.58 L 184.56 132.68 C 183.71 132.87 183.17 133.71 183.35 134.56 C 183.53 135.41 184.37 135.95 185.22 135.77 Z"
      fill="black"
      fill-rule="nonzero" /><path d="M 150.40 115.03 L 150.00 115.76 C 149.56 116.57 149.86 117.58 150.67 118.02 C 151.48 118.46 152.49 118.16 152.93 117.35 L 153.33 116.61 C 153.77 115.80 153.47 114.79 152.66 114.35 C 151.85 113.91 150.84 114.22 150.40 115.03 Z M 149.96 115.77 L 149.57 116.53 C 149.14 117.36 149.46 118.38 150.29 118.82 C 151.12 119.25 152.14 118.93 152.57 118.10 L 152.97 117.34 C 153.40 116.51 153.08 115.49 152.25 115.05 C 151.42 114.62 150.40 114.94 149.96 115.77 Z M 149.52 116.56 L 149.13 117.38 C 148.71 118.23 149.07 119.26 149.93 119.67 C 150.78 120.09 151.81 119.73 152.22 118.88 L 152.62 118.07 C 153.03 117.21 152.68 116.18 151.82 115.77 C 150.97 115.35 149.94 115.71 149.52 116.56 Z M 149.08 117.43 L 148.69 118.31 C 148.30 119.20 148.70 120.23 149.59 120.61 C 150.47 121.00 151.50 120.60 151.89 119.71 L 152.28 118.83 C 152.66 117.94 152.26 116.91 151.38 116.53 C 150.49 116.14 149.46 116.54 149.08 117.43 Z M 148.63 118.37 L 148.25 119.37 C 147.90 120.28 148.35 121.30 149.26 121.66 C 150.18 122.01 151.20 121.56 151.56 120.64 L 151.94 119.65 C 152.29 118.74 151.84 117.71 150.93 117.36 C 150.01 117.01 148.99 117.46 148.63 118.37 Z M 148.20 119.43 L 147.82 120.55 C 147.51 121.49 148.01 122.51 148.96 122.83 C 149.90 123.14 150.92 122.64 151.23 121.70 L 151.61 120.58 C 151.93 119.64 151.42 118.62 150.48 118.30 C 149.53 117.98 148.51 118.49 148.20 119.43 Z M 147.78 120.61 L 147.46 121.72 C 147.18 122.68 147.73 123.70 148.70 123.98 C 149.66 124.26 150.67 123.70 150.96 122.74 L 151.28 121.63 C 151.56 120.67 151.00 119.66 150.04 119.37 C 149.07 119.09 148.06 119.65 147.78 120.61 Z M 147.43 121.77 L 147.20 122.67 C 146.94 123.65 147.53 124.65 148.51 124.90 C 149.49 125.16 150.49 124.57 150.75 123.59 L 150.98 122.69 C 151.24 121.71 150.65 120.71 149.67 120.45 C 148.69 120.20 147.69 120.79 147.43 121.77 Z M 147.18 122.70 L 146.95 123.65 C 146.72 124.64 147.33 125.64 148.31 125.87 C 149.30 126.11 150.30 125.50 150.53 124.51 L 150.76 123.56 C 151.00 122.57 150.39 121.58 149.40 121.34 C 148.41 121.10 147.42 121.71 147.18 122.70 Z M 146.94 123.68 L 146.72 124.67 C 146.50 125.67 147.12 126.66 148.12 126.88 C 149.11 127.10 150.10 126.48 150.32 125.48 L 150.54 124.49 C 150.77 123.49 150.14 122.51 149.15 122.28 C 148.15 122.06 147.17 122.68 146.94 123.68 Z M 146.71 124.69 L 146.49 125.72 C 146.28 126.72 146.92 127.70 147.92 127.91 C 148.92 128.12 149.90 127.49 150.11 126.49 L 150.33 125.46 C 150.54 124.46 149.90 123.48 148.90 123.27 C 147.90 123.06 146.92 123.69 146.71 124.69 Z M 146.48 125.73 L 146.27 126.77 C 146.07 127.77 146.72 128.75 147.72 128.96 C 148.73 129.16 149.71 128.51 149.91 127.51 L 150.12 126.47 C 150.33 125.47 149.68 124.49 148.67 124.28 C 147.67 124.08 146.69 124.73 146.48 125.73 Z M 146.27 126.78 L 146.06 127.81 C 145.87 128.82 146.52 129.80 147.53 130.00 C 148.54 130.20 149.52 129.54 149.72 128.53 L 149.92 127.49 C 150.12 126.48 149.46 125.51 148.45 125.31 C 147.44 125.11 146.46 125.77 146.27 126.78 Z M 146.06 127.82 L 145.86 128.84 C 145.67 129.86 146.33 130.83 147.35 131.03 C 148.36 131.22 149.34 130.55 149.53 129.54 L 149.73 128.52 C 149.92 127.51 149.25 126.53 148.24 126.34 C 147.23 126.14 146.25 126.81 146.06 127.82 Z M 145.85 128.85 L 145.67 129.84 C 145.48 130.86 146.15 131.84 147.17 132.03 C 148.18 132.22 149.16 131.55 149.35 130.53 L 149.54 129.53 C 149.73 128.52 149.06 127.54 148.04 127.35 C 147.02 127.16 146.04 127.83 145.85 128.85 Z M 145.66 129.84 L 145.49 130.79 C 145.30 131.82 145.97 132.80 146.99 132.98 C 148.01 133.17 148.99 132.50 149.18 131.48 L 149.36 130.53 C 149.55 129.51 148.87 128.52 147.85 128.34 C 146.83 128.15 145.85 128.82 145.66 129.84 Z M 145.48 130.79 L 145.30 131.76 C 145.11 132.78 145.79 133.77 146.81 133.96 C 147.84 134.15 148.82 133.47 149.01 132.45 L 149.19 131.48 C 149.38 130.46 148.70 129.47 147.68 129.28 C 146.65 129.09 145.67 129.77 145.48 130.79 Z M 145.30 131.76 L 145.08 132.95 C 144.89 133.97 145.56 134.96 146.59 135.15 C 147.61 135.34 148.60 134.67 148.79 133.64 L 149.01 132.45 C 149.20 131.43 148.53 130.44 147.50 130.25 C 146.48 130.06 145.49 130.73 145.30 131.76 Z M 145.08 132.94 L 144.87 134.02 C 144.68 135.04 145.35 136.03 146.37 136.23 C 147.39 136.42 148.38 135.75 148.58 134.73 L 148.79 133.65 C 148.98 132.63 148.31 131.64 147.29 131.44 C 146.26 131.24 145.28 131.92 145.08 132.94 Z M 144.87 134.01 L 144.68 135.00 C 144.48 136.02 145.14 137.01 146.17 137.21 C 147.19 137.42 148.18 136.75 148.38 135.73 L 148.58 134.74 C 148.78 133.72 148.11 132.72 147.09 132.52 C 146.07 132.32 145.08 132.98 144.87 134.01 Z M 144.68 134.98 L 144.49 135.90 C 144.28 136.93 144.94 137.92 145.96 138.13 C 146.98 138.34 147.98 137.68 148.19 136.66 L 148.38 135.74 C 148.59 134.72 147.93 133.72 146.91 133.51 C 145.89 133.30 144.89 133.96 144.68 134.98 Z M 144.50 135.89 L 144.31 136.77 C 144.09 137.79 144.74 138.79 145.76 139.01 C 146.78 139.23 147.78 138.58 148.00 137.56 L 148.19 136.68 C 148.41 135.66 147.76 134.66 146.74 134.44 C 145.72 134.22 144.71 134.87 144.50 135.89 Z M 144.31 136.75 L 144.12 137.61 C 143.89 138.63 144.53 139.64 145.55 139.87 C 146.57 140.09 147.58 139.45 147.80 138.44 L 148.00 137.58 C 148.22 136.56 147.58 135.55 146.57 135.32 C 145.55 135.09 144.54 135.73 144.31 136.75 Z M 144.12 137.59 L 143.92 138.46 C 143.68 139.48 144.31 140.49 145.33 140.73 C 146.35 140.97 147.36 140.34 147.60 139.32 L 147.80 138.45 C 148.04 137.44 147.41 136.42 146.39 136.18 C 145.37 135.95 144.36 136.58 144.12 137.59 Z M 143.92 138.44 L 143.71 139.34 C 143.46 140.35 144.08 141.37 145.10 141.62 C 146.11 141.87 147.13 141.24 147.38 140.23 L 147.60 139.34 C 147.84 138.32 147.22 137.30 146.21 137.05 C 145.19 136.81 144.17 137.43 143.92 138.44 Z M 143.71 139.32 L 143.48 140.24 C 143.22 141.25 143.84 142.28 144.85 142.53 C 145.86 142.79 146.89 142.17 147.14 141.16 L 147.38 140.24 C 147.63 139.23 147.02 138.20 146.00 137.95 C 144.99 137.70 143.96 138.31 143.71 139.32 Z M 143.48 140.23 L 143.24 141.17 C 142.98 142.18 143.58 143.21 144.59 143.47 C 145.60 143.74 146.63 143.13 146.90 142.12 L 147.14 141.17 C 147.40 140.16 146.80 139.13 145.79 138.87 C 144.78 138.61 143.74 139.22 143.48 140.23 Z M 143.24 141.16 L 142.98 142.13 C 142.71 143.14 143.31 144.17 144.32 144.44 C 145.33 144.71 146.37 144.11 146.64 143.10 L 146.89 142.13 C 147.16 141.12 146.56 140.09 145.55 139.82 C 144.54 139.55 143.51 140.15 143.24 141.16 Z M 142.99 142.12 L 142.71 143.12 C 142.44 144.13 143.03 145.16 144.04 145.44 C 145.05 145.71 146.09 145.12 146.36 144.11 L 146.63 143.11 C 146.91 142.10 146.31 141.07 145.31 140.79 C 144.30 140.52 143.26 141.11 142.99 142.12 Z M 142.72 143.11 L 142.43 144.14 C 142.15 145.14 142.74 146.19 143.74 146.47 C 144.75 146.74 145.79 146.16 146.07 145.15 L 146.36 144.12 C 146.64 143.11 146.05 142.07 145.04 141.79 C 144.04 141.51 142.99 142.10 142.72 143.11 Z M 142.43 144.13 L 142.15 145.14 C 141.86 146.14 142.45 147.19 143.45 147.47 C 144.46 147.76 145.50 147.17 145.79 146.17 L 146.07 145.16 C 146.35 144.15 145.77 143.11 144.76 142.83 C 143.76 142.54 142.72 143.13 142.43 144.13 Z M 142.15 145.13 L 141.89 146.03 C 141.60 147.03 142.18 148.08 143.19 148.37 C 144.19 148.66 145.24 148.08 145.53 147.07 L 145.78 146.17 C 146.07 145.17 145.49 144.12 144.49 143.84 C 143.48 143.55 142.44 144.13 142.15 145.13 Z M 141.89 146.02 L 141.63 146.94 C 141.33 147.95 141.91 148.99 142.91 149.29 C 143.92 149.58 144.97 149.00 145.26 148.00 L 145.52 147.08 C 145.82 146.08 145.24 145.03 144.24 144.74 C 143.23 144.44 142.18 145.02 141.89 146.02 Z M 141.63 146.94 L 141.35 147.87 C 141.06 148.88 141.63 149.93 142.63 150.22 C 143.63 150.52 144.68 149.94 144.98 148.94 L 145.25 148.01 C 145.55 147.00 144.98 145.95 143.98 145.66 C 142.97 145.36 141.92 145.93 141.63 146.94 Z M 141.35 147.87 L 141.07 148.82 C 140.77 149.82 141.34 150.87 142.34 151.17 C 143.34 151.47 144.39 150.91 144.69 149.91 L 144.98 148.95 C 145.28 147.95 144.71 146.90 143.71 146.60 C 142.71 146.30 141.65 146.87 141.35 147.87 Z M 141.07 148.81 L 140.78 149.78 C 140.47 150.78 141.03 151.84 142.03 152.14 C 143.03 152.45 144.09 151.88 144.39 150.88 L 144.69 149.91 C 144.99 148.92 144.43 147.86 143.43 147.55 C 142.43 147.25 141.37 147.81 141.07 148.81 Z M 140.78 149.77 L 140.47 150.76 C 140.16 151.76 140.72 152.82 141.72 153.12 C 142.72 153.43 143.78 152.87 144.08 151.88 L 144.39 150.89 C 144.70 149.90 144.14 148.84 143.14 148.53 C 142.15 148.22 141.09 148.78 140.78 149.77 Z M 140.48 150.75 L 140.16 151.75 C 139.85 152.74 140.40 153.80 141.40 154.12 C 142.39 154.43 143.45 153.88 143.77 152.88 L 144.08 151.89 C 144.40 150.89 143.84 149.83 142.85 149.52 C 141.85 149.20 140.79 149.75 140.48 150.75 Z M 140.16 151.74 L 139.84 152.75 C 139.52 153.74 140.07 154.80 141.06 155.12 C 142.06 155.44 143.12 154.90 143.44 153.90 L 143.76 152.89 C 144.08 151.90 143.54 150.83 142.54 150.52 C 141.55 150.20 140.48 150.74 140.16 151.74 Z M 139.84 152.74 L 139.54 153.65 C 139.22 154.65 139.76 155.71 140.75 156.04 C 141.75 156.36 142.81 155.82 143.14 154.83 L 143.44 153.91 C 143.76 152.92 143.22 151.85 142.23 151.53 C 141.24 151.20 140.17 151.74 139.84 152.74 Z M 139.55 153.64 L 139.24 154.56 C 138.91 155.55 139.45 156.62 140.44 156.95 C 141.43 157.28 142.50 156.74 142.83 155.75 L 143.13 154.84 C 143.46 153.85 142.93 152.78 141.94 152.45 C 140.95 152.12 139.88 152.65 139.55 153.64 Z M 139.25 154.55 L 138.93 155.47 C 138.60 156.46 139.13 157.53 140.12 157.87 C 141.11 158.20 142.18 157.67 142.52 156.68 L 142.83 155.76 C 143.16 154.77 142.63 153.70 141.64 153.36 C 140.65 153.03 139.58 153.56 139.25 154.55 Z M 138.94 155.46 L 138.62 156.39 C 138.28 157.38 138.80 158.46 139.79 158.80 C 140.78 159.14 141.85 158.61 142.19 157.62 L 142.51 156.69 C 142.85 155.71 142.33 154.63 141.34 154.29 C 140.35 153.95 139.28 154.48 138.94 155.46 Z M 138.62 156.38 L 138.29 157.32 C 137.95 158.31 138.46 159.39 139.45 159.73 C 140.43 160.08 141.51 159.56 141.86 158.57 L 142.19 157.63 C 142.53 156.65 142.01 155.57 141.03 155.22 C 140.04 154.88 138.96 155.40 138.62 156.38 Z M 138.29 157.31 L 137.96 158.26 C 137.61 159.25 138.12 160.33 139.10 160.68 C 140.09 161.03 141.17 160.51 141.52 159.53 L 141.86 158.58 C 142.21 157.60 141.69 156.52 140.71 156.17 C 139.73 155.82 138.64 156.33 138.29 157.31 Z M 137.96 158.25 L 137.61 159.21 C 137.26 160.19 137.76 161.28 138.75 161.63 C 139.73 161.99 140.81 161.48 141.17 160.50 L 141.51 159.54 C 141.87 158.56 141.36 157.48 140.38 157.12 C 139.40 156.76 138.32 157.27 137.96 158.25 Z M 137.62 159.20 L 137.26 160.17 C 136.90 161.15 137.40 162.23 138.38 162.59 C 139.36 162.96 140.45 162.45 140.81 161.47 L 141.16 160.51 C 141.52 159.53 141.02 158.44 140.04 158.08 C 139.06 157.72 137.98 158.22 137.62 159.20 Z M 137.26 160.16 L 136.90 161.13 C 136.53 162.11 137.03 163.20 138.00 163.57 C 138.98 163.93 140.07 163.44 140.44 162.46 L 140.80 161.48 C 141.17 160.51 140.67 159.42 139.70 159.05 C 138.72 158.68 137.63 159.18 137.26 160.16 Z M 136.90 161.12 L 136.54 162.06 C 136.17 163.04 136.66 164.13 137.64 164.50 C 138.61 164.87 139.71 164.38 140.08 163.41 L 140.43 162.47 C 140.81 161.49 140.32 160.40 139.34 160.03 C 138.36 159.66 137.27 160.15 136.90 161.12 Z M 136.55 162.05 L 136.20 162.95 C 135.82 163.93 136.31 165.02 137.28 165.40 C 138.25 165.77 139.35 165.29 139.73 164.32 L 140.07 163.42 C 140.45 162.44 139.97 161.35 138.99 160.97 C 138.02 160.59 136.92 161.08 136.55 162.05 Z M 136.20 162.94 L 135.85 163.85 C 135.47 164.82 135.95 165.92 136.92 166.30 C 137.89 166.68 138.99 166.20 139.37 165.23 L 139.72 164.32 C 140.10 163.35 139.62 162.25 138.65 161.87 C 137.68 161.49 136.58 161.97 136.20 162.94 Z M 135.85 163.84 L 135.49 164.76 C 135.10 165.73 135.58 166.83 136.55 167.21 C 137.52 167.60 138.62 167.12 139.00 166.15 L 139.36 165.24 C 139.75 164.27 139.27 163.17 138.30 162.78 C 137.33 162.40 136.24 162.88 135.85 163.84 Z M 135.49 164.75 L 135.12 165.67 C 134.73 166.64 135.20 167.74 136.17 168.13 C 137.14 168.52 138.24 168.05 138.63 167.08 L 139.00 166.16 C 139.39 165.19 138.92 164.09 137.95 163.70 C 136.98 163.31 135.88 163.78 135.49 164.75 Z M 135.13 165.67 L 134.75 166.60 C 134.36 167.56 134.82 168.66 135.79 169.05 C 136.76 169.45 137.86 168.98 138.25 168.01 L 138.63 167.09 C 139.02 166.12 138.55 165.02 137.58 164.63 C 136.62 164.24 135.52 164.70 135.13 165.67 Z M 134.75 166.59 L 134.37 167.52 C 133.98 168.49 134.44 169.59 135.40 169.99 C 136.37 170.38 137.47 169.92 137.87 168.95 L 138.25 168.02 C 138.64 167.05 138.18 165.95 137.21 165.56 C 136.25 165.16 135.15 165.63 134.75 166.59 Z M 134.37 167.52 L 133.99 168.46 C 133.59 169.42 134.05 170.52 135.01 170.92 C 135.97 171.32 137.08 170.86 137.48 169.90 L 137.86 168.96 C 138.26 167.99 137.80 166.89 136.84 166.49 C 135.87 166.10 134.77 166.56 134.37 167.52 Z M 133.99 168.45 L 133.60 169.40 C 133.20 170.36 133.65 171.46 134.61 171.86 C 135.58 172.26 136.68 171.81 137.08 170.85 L 137.47 169.90 C 137.87 168.94 137.42 167.84 136.45 167.44 C 135.49 167.04 134.39 167.49 133.99 168.45 Z M 133.60 169.39 L 133.20 170.34 C 132.80 171.30 133.25 172.41 134.21 172.81 C 135.17 173.21 136.28 172.76 136.68 171.80 L 137.08 170.85 C 137.48 169.89 137.03 168.78 136.07 168.38 C 135.11 167.98 134.00 168.43 133.60 169.39 Z M 133.20 170.34 L 132.80 171.29 C 132.40 172.25 132.85 173.35 133.81 173.76 C 134.77 174.16 135.87 173.71 136.28 172.75 L 136.68 171.80 C 137.08 170.84 136.63 169.74 135.67 169.33 C 134.71 168.93 133.61 169.38 133.20 170.34 Z M 132.81 171.28 L 132.42 172.19 C 132.01 173.15 132.46 174.26 133.42 174.67 C 134.38 175.07 135.48 174.62 135.89 173.67 L 136.28 172.75 C 136.68 171.80 136.24 170.69 135.28 170.28 C 134.32 169.88 133.21 170.32 132.81 171.28 Z M 132.42 172.19 L 132.03 173.11 C 131.62 174.06 132.07 175.17 133.03 175.58 C 133.98 175.99 135.09 175.54 135.50 174.58 L 135.89 173.67 C 136.30 172.71 135.85 171.61 134.89 171.20 C 133.94 170.79 132.83 171.23 132.42 172.19 Z M 132.03 173.10 L 131.64 174.02 C 131.23 174.97 131.67 176.08 132.63 176.49 C 133.58 176.90 134.69 176.46 135.10 175.51 L 135.49 174.59 C 135.91 173.63 135.46 172.53 134.51 172.11 C 133.55 171.70 132.45 172.14 132.03 173.10 Z M 131.64 174.01 L 131.24 174.93 C 130.83 175.88 131.27 176.99 132.22 177.41 C 133.18 177.82 134.28 177.38 134.70 176.43 L 135.10 175.51 C 135.51 174.56 135.07 173.45 134.12 173.03 C 133.17 172.62 132.06 173.06 131.64 174.01 Z M 131.25 174.92 L 130.85 175.84 C 130.43 176.79 130.86 177.90 131.81 178.32 C 132.76 178.74 133.87 178.31 134.29 177.35 L 134.69 176.44 C 135.11 175.48 134.68 174.37 133.73 173.96 C 132.78 173.54 131.67 173.97 131.25 174.92 Z M 130.85 175.83 L 130.44 176.75 C 130.02 177.70 130.45 178.81 131.40 179.23 C 132.35 179.65 133.46 179.23 133.88 178.28 L 134.29 177.36 C 134.71 176.41 134.28 175.30 133.33 174.88 C 132.38 174.45 131.27 174.88 130.85 175.83 Z M 130.45 176.74 L 130.03 177.66 C 129.61 178.60 130.03 179.72 130.98 180.14 C 131.92 180.57 133.04 180.15 133.46 179.20 L 133.88 178.29 C 134.30 177.34 133.88 176.23 132.93 175.80 C 131.99 175.37 130.87 175.79 130.45 176.74 Z M 130.04 177.65 L 129.62 178.56 C 129.19 179.51 129.61 180.62 130.55 181.05 C 131.49 181.48 132.61 181.07 133.04 180.12 L 133.46 179.21 C 133.89 178.27 133.47 177.15 132.53 176.72 C 131.59 176.29 130.47 176.70 130.04 177.65 Z M 129.63 178.55 L 129.20 179.46 C 128.77 180.40 129.18 181.52 130.12 181.96 C 131.06 182.39 132.18 181.99 132.61 181.04 L 133.04 180.13 C 133.47 179.19 133.06 178.07 132.12 177.64 C 131.18 177.20 130.06 177.61 129.63 178.55 Z M 129.21 179.45 L 128.78 180.36 C 128.34 181.29 128.74 182.41 129.68 182.86 C 130.62 183.30 131.74 182.90 132.18 181.96 L 132.61 181.05 C 133.05 180.12 132.65 179.00 131.71 178.55 C 130.77 178.11 129.65 178.51 129.21 179.45 Z M 128.79 180.34 L 128.35 181.25 C 127.90 182.18 128.30 183.31 129.23 183.76 C 130.17 184.21 131.29 183.81 131.74 182.88 L 132.17 181.97 C 132.62 181.04 132.23 179.91 131.29 179.46 C 130.36 179.02 129.24 179.41 128.79 180.34 Z M 128.36 181.24 L 127.91 182.15 C 127.45 183.09 127.84 184.21 128.77 184.67 C 129.70 185.12 130.83 184.74 131.28 183.81 L 131.73 182.89 C 132.19 181.96 131.80 180.83 130.87 180.38 C 129.94 179.92 128.82 180.31 128.36 181.24 Z M 127.92 182.14 L 127.46 183.05 C 127.00 183.98 127.38 185.11 128.31 185.57 C 129.23 186.03 130.36 185.66 130.82 184.73 L 131.28 183.82 C 131.74 182.89 131.36 181.76 130.43 181.30 C 129.51 180.84 128.38 181.22 127.92 182.14 Z M 127.47 183.04 L 127.01 183.95 C 126.54 184.87 126.91 186.00 127.84 186.47 C 128.76 186.94 129.89 186.57 130.36 185.64 L 130.82 184.74 C 131.28 183.81 130.91 182.69 129.99 182.22 C 129.07 181.75 127.94 182.12 127.47 183.04 Z M 127.02 183.94 L 126.56 184.84 C 126.08 185.76 126.45 186.89 127.37 187.36 C 128.29 187.83 129.42 187.47 129.89 186.55 L 130.35 185.65 C 130.82 184.73 130.46 183.60 129.54 183.13 C 128.62 182.66 127.49 183.02 127.02 183.94 Z M 126.56 184.83 L 126.10 185.72 C 125.62 186.64 125.98 187.77 126.89 188.25 C 127.81 188.72 128.94 188.37 129.42 187.45 L 129.88 186.56 C 130.36 185.64 130.01 184.51 129.09 184.03 C 128.17 183.56 127.04 183.91 126.56 184.83 Z M 126.10 185.71 L 125.64 186.60 C 125.15 187.51 125.50 188.64 126.42 189.13 C 127.33 189.61 128.47 189.26 128.95 188.34 L 129.41 187.46 C 129.90 186.54 129.55 185.41 128.63 184.93 C 127.72 184.45 126.58 184.80 126.10 185.71 Z M 125.64 186.59 L 125.17 187.47 C 124.69 188.38 125.03 189.51 125.94 190.00 C 126.86 190.48 127.99 190.14 128.47 189.23 L 128.94 188.35 C 129.43 187.44 129.08 186.31 128.17 185.82 C 127.26 185.33 126.13 185.68 125.64 186.59 Z M 125.18 187.46 L 124.71 188.33 C 124.22 189.24 124.56 190.38 125.47 190.86 C 126.38 191.35 127.51 191.01 128.00 190.10 L 128.47 189.23 C 128.96 188.32 128.62 187.19 127.71 186.70 C 126.80 186.21 125.67 186.55 125.18 187.46 Z M 124.71 188.33 L 124.25 189.19 C 123.75 190.10 124.09 191.23 125.00 191.72 C 125.90 192.22 127.04 191.88 127.53 190.97 L 128.00 190.11 C 128.49 189.20 128.15 188.07 127.25 187.58 C 126.34 187.08 125.21 187.42 124.71 188.33 Z M 124.25 189.19 L 123.78 190.04 C 123.29 190.95 123.62 192.08 124.53 192.58 C 125.43 193.07 126.57 192.74 127.06 191.83 L 127.53 190.98 C 128.02 190.07 127.69 188.94 126.78 188.44 C 125.88 187.95 124.74 188.28 124.25 189.19 Z M 123.79 190.04 L 123.30 190.92 C 122.81 191.82 123.14 192.95 124.04 193.45 C 124.94 193.95 126.08 193.62 126.57 192.71 L 127.06 191.84 C 127.55 190.93 127.22 189.80 126.32 189.30 C 125.42 188.81 124.28 189.14 123.79 190.04 Z M 123.31 190.91 L 122.82 191.80 C 122.32 192.70 122.65 193.84 123.55 194.34 C 124.45 194.83 125.58 194.51 126.08 193.61 L 126.57 192.72 C 127.07 191.81 126.74 190.68 125.84 190.18 C 124.94 189.68 123.80 190.01 123.31 190.91 Z M 122.82 191.80 L 122.33 192.68 C 121.83 193.58 122.15 194.72 123.05 195.22 C 123.95 195.72 125.09 195.39 125.59 194.49 L 126.08 193.61 C 126.58 192.71 126.25 191.58 125.35 191.08 C 124.45 190.58 123.32 190.90 122.82 191.80 Z M 122.33 192.68 L 121.84 193.56 C 121.34 194.45 121.66 195.59 122.56 196.09 C 123.46 196.59 124.59 196.27 125.09 195.37 L 125.58 194.50 C 126.08 193.60 125.76 192.46 124.87 191.96 C 123.97 191.46 122.83 191.78 122.33 192.68 Z M 121.85 193.55 L 121.36 194.42 C 120.85 195.32 121.17 196.45 122.07 196.96 C 122.96 197.46 124.10 197.14 124.60 196.25 L 125.09 195.38 C 125.59 194.48 125.28 193.35 124.38 192.84 C 123.48 192.34 122.35 192.66 121.85 193.55 Z M 121.36 194.42 L 120.87 195.28 C 120.36 196.18 120.68 197.31 121.57 197.82 C 122.46 198.32 123.60 198.01 124.10 197.12 L 124.60 196.25 C 125.10 195.36 124.79 194.22 123.89 193.72 C 123.00 193.21 121.87 193.53 121.36 194.42 Z M 120.87 195.28 L 120.38 196.14 C 119.87 197.03 120.18 198.17 121.07 198.68 C 121.97 199.18 123.10 198.87 123.61 197.98 L 124.10 197.12 C 124.61 196.23 124.30 195.10 123.41 194.59 C 122.52 194.08 121.38 194.39 120.87 195.28 Z M 120.39 196.14 L 119.89 197.00 C 119.38 197.88 119.69 199.02 120.58 199.53 C 121.46 200.04 122.60 199.74 123.11 198.85 L 123.60 197.99 C 124.11 197.10 123.81 195.97 122.92 195.45 C 122.03 194.94 120.90 195.25 120.39 196.14 Z M 119.90 196.99 L 119.40 197.85 C 118.89 198.73 119.19 199.87 120.07 200.38 C 120.96 200.90 122.09 200.59 122.61 199.71 L 123.10 198.85 C 123.62 197.97 123.32 196.83 122.43 196.32 C 121.55 195.80 120.41 196.11 119.90 196.99 Z M 119.40 197.84 L 118.90 198.70 C 118.39 199.58 118.68 200.72 119.57 201.23 C 120.45 201.75 121.59 201.45 122.10 200.57 L 122.60 199.71 C 123.12 198.83 122.82 197.70 121.94 197.18 C 121.06 196.66 119.92 196.96 119.40 197.84 Z M 118.91 198.69 L 118.39 199.58 C 117.87 200.46 118.16 201.59 119.04 202.11 C 119.92 202.63 121.06 202.34 121.58 201.46 L 122.10 200.57 C 122.62 199.69 122.32 198.56 121.44 198.04 C 120.56 197.52 119.43 197.81 118.91 198.69 Z M 118.39 199.57 L 117.85 200.48 C 117.33 201.36 117.62 202.49 118.50 203.01 C 119.37 203.54 120.51 203.25 121.03 202.37 L 121.57 201.46 C 122.09 200.59 121.81 199.45 120.93 198.93 C 120.05 198.41 118.92 198.69 118.39 199.57 Z M 117.86 200.47 L 117.32 201.37 C 116.79 202.25 117.08 203.38 117.95 203.91 C 118.82 204.44 119.96 204.15 120.48 203.28 L 121.03 202.38 C 121.55 201.50 121.27 200.37 120.39 199.84 C 119.52 199.32 118.38 199.60 117.86 200.47 Z M 117.32 201.37 L 116.78 202.26 C 116.25 203.13 116.53 204.27 117.40 204.80 C 118.28 205.32 119.41 205.05 119.94 204.17 L 120.48 203.28 C 121.01 202.41 120.73 201.28 119.86 200.75 C 118.99 200.22 117.85 200.50 117.32 201.37 Z M 116.79 202.26 L 116.25 203.13 C 115.72 204.00 115.99 205.14 116.86 205.67 C 117.73 206.20 118.86 205.93 119.40 205.06 L 119.93 204.18 C 120.46 203.31 120.19 202.18 119.32 201.65 C 118.45 201.11 117.32 201.39 116.79 202.26 Z M 116.26 203.13 L 115.73 203.99 C 115.19 204.85 115.46 205.99 116.32 206.52 C 117.19 207.06 118.32 206.79 118.86 205.92 L 119.39 205.06 C 119.92 204.20 119.66 203.06 118.79 202.53 C 117.93 201.99 116.79 202.26 116.26 203.13 Z M 115.73 203.98 L 115.21 204.82 C 114.67 205.68 114.93 206.82 115.79 207.35 C 116.66 207.89 117.79 207.63 118.33 206.77 L 118.85 205.93 C 119.39 205.07 119.13 203.93 118.27 203.39 C 117.40 202.86 116.27 203.12 115.73 203.98 Z M 115.21 204.81 L 114.70 205.63 C 114.16 206.48 114.42 207.62 115.27 208.16 C 116.13 208.70 117.27 208.45 117.81 207.59 L 118.32 206.77 C 118.86 205.92 118.61 204.78 117.75 204.24 C 116.89 203.70 115.76 203.95 115.21 204.81 Z M 114.71 205.62 L 114.21 206.40 C 113.66 207.26 113.91 208.39 114.77 208.94 C 115.62 209.48 116.76 209.23 117.30 208.38 L 117.80 207.59 C 118.35 206.74 118.10 205.61 117.24 205.06 C 116.39 204.51 115.25 204.76 114.71 205.62 Z M 114.22 206.39 L 113.72 207.16 C 113.17 208.01 113.41 209.15 114.26 209.70 C 115.11 210.25 116.25 210.00 116.80 209.15 L 117.29 208.39 C 117.84 207.54 117.60 206.40 116.75 205.85 C 115.90 205.30 114.77 205.54 114.22 206.39 Z M 113.73 207.15 L 113.09 208.12 C 112.53 208.97 112.77 210.10 113.61 210.66 C 114.46 211.21 115.59 210.98 116.15 210.14 L 116.79 209.16 C 117.34 208.32 117.11 207.18 116.27 206.63 C 115.42 206.07 114.28 206.31 113.73 207.15 Z M 113.10 208.11 L 112.49 209.02 C 111.93 209.85 112.15 210.99 112.99 211.55 C 113.83 212.12 114.96 211.89 115.53 211.06 L 116.14 210.15 C 116.70 209.31 116.48 208.18 115.64 207.61 C 114.80 207.05 113.67 207.27 113.10 208.11 Z M 112.51 209.00 L 111.92 209.85 C 111.35 210.68 111.56 211.82 112.39 212.39 C 113.22 212.96 114.35 212.75 114.92 211.92 L 115.51 211.07 C 116.08 210.24 115.87 209.11 115.05 208.53 C 114.22 207.96 113.08 208.17 112.51 209.00 Z M 111.94 209.83 L 111.37 210.63 C 110.79 211.45 110.98 212.59 111.80 213.17 C 112.62 213.75 113.76 213.56 114.34 212.74 L 114.91 211.94 C 115.49 211.12 115.30 209.98 114.48 209.40 C 113.65 208.82 112.52 209.01 111.94 209.83 Z M 111.39 210.61 L 110.84 211.37 C 110.24 212.18 110.42 213.32 111.23 213.91 C 112.04 214.50 113.18 214.32 113.77 213.51 L 114.33 212.76 C 114.92 211.95 114.74 210.81 113.93 210.22 C 113.12 209.62 111.98 209.80 111.39 210.61 Z M 110.85 211.35 L 110.32 212.06 C 109.71 212.86 109.87 214.00 110.67 214.61 C 111.48 215.21 112.61 215.05 113.22 214.25 L 113.76 213.53 C 114.36 212.73 114.20 211.59 113.40 210.99 C 112.60 210.38 111.46 210.55 110.85 211.35 Z M 110.34 212.04 L 109.79 212.75 C 109.17 213.54 109.31 214.68 110.10 215.29 C 110.90 215.91 112.03 215.76 112.65 214.97 L 113.20 214.27 C 113.81 213.48 113.67 212.34 112.88 211.72 C 112.09 211.11 110.95 211.25 110.34 212.04 Z M 109.81 212.72 L 109.18 213.50 C 108.55 214.28 108.67 215.42 109.45 216.05 C 110.23 216.68 111.37 216.55 112.00 215.78 L 112.63 215.00 C 113.25 214.22 113.13 213.08 112.35 212.45 C 111.58 211.82 110.44 211.95 109.81 212.72 Z M 109.21 213.48 L 108.57 214.23 C 107.93 215.00 108.03 216.14 108.80 216.78 C 109.56 217.42 110.70 217.32 111.34 216.55 L 111.97 215.80 C 112.61 215.04 112.51 213.90 111.75 213.26 C 110.99 212.62 109.85 212.72 109.21 213.48 Z M 108.60 214.21 L 107.95 214.95 C 107.30 215.70 107.38 216.84 108.13 217.49 C 108.88 218.14 110.02 218.07 110.67 217.32 L 111.31 216.58 C 111.97 215.83 111.89 214.69 111.14 214.04 C 110.39 213.38 109.25 213.46 108.60 214.21 Z M 107.98 214.93 L 107.31 215.67 C 106.65 216.40 106.71 217.54 107.45 218.20 C 108.19 218.87 109.32 218.81 109.99 218.07 L 110.65 217.33 C 111.31 216.60 111.25 215.46 110.51 214.80 C 109.78 214.13 108.64 214.19 107.98 214.93 Z M 107.34 215.65 L 106.65 216.39 C 105.97 217.12 106.02 218.26 106.74 218.93 C 107.47 219.60 108.60 219.56 109.28 218.83 L 109.97 218.09 C 110.64 217.36 110.60 216.23 109.87 215.55 C 109.14 214.88 108.01 214.92 107.34 215.65 Z M 106.66 216.38 L 105.96 217.12 C 105.28 217.84 105.31 218.97 106.03 219.65 C 106.75 220.33 107.88 220.30 108.56 219.58 L 109.26 218.84 C 109.94 218.13 109.91 216.99 109.19 216.32 C 108.47 215.64 107.34 215.67 106.66 216.38 Z M 105.98 217.11 L 105.28 217.83 C 104.60 218.53 104.61 219.66 105.32 220.35 C 106.03 221.04 107.16 221.02 107.84 220.31 L 108.54 219.59 C 109.23 218.89 109.21 217.76 108.50 217.07 C 107.80 216.38 106.67 216.40 105.98 217.11 Z M 105.31 217.81 L 104.58 218.53 C 103.89 219.22 103.88 220.35 104.58 221.05 C 105.27 221.74 106.40 221.75 107.10 221.05 L 107.82 220.33 C 108.52 219.64 108.52 218.51 107.82 217.81 C 107.13 217.12 106.00 217.11 105.31 217.81 Z M 104.62 218.50 L 103.87 219.21 C 103.16 219.88 103.13 221.01 103.81 221.72 C 104.49 222.43 105.61 222.46 106.32 221.78 L 107.06 221.08 C 107.77 220.40 107.80 219.28 107.13 218.57 C 106.45 217.86 105.33 217.83 104.62 218.50 Z M 103.92 219.17 L 103.16 219.85 C 102.43 220.50 102.37 221.62 103.02 222.35 C 103.68 223.08 104.80 223.14 105.53 222.49 L 106.28 221.82 C 107.01 221.16 107.07 220.04 106.42 219.31 C 105.76 218.58 104.64 218.52 103.92 219.17 Z M 103.22 219.81 L 102.46 220.44 C 101.70 221.06 101.60 222.18 102.22 222.93 C 102.85 223.68 103.96 223.78 104.71 223.16 L 105.47 222.53 C 106.22 221.91 106.33 220.79 105.70 220.04 C 105.08 219.29 103.97 219.19 103.22 219.81 Z M 102.53 220.39 L 101.73 220.99 C 100.95 221.57 100.79 222.68 101.37 223.46 C 101.95 224.24 103.06 224.40 103.84 223.81 L 104.64 223.21 C 105.42 222.63 105.58 221.53 105.00 220.74 C 104.41 219.96 103.31 219.80 102.53 220.39 Z M 101.86 220.91 L 100.86 221.52 C 100.04 222.03 99.78 223.11 100.29 223.94 C 100.80 224.76 101.88 225.02 102.71 224.51 L 103.70 223.89 C 104.53 223.38 104.78 222.30 104.27 221.48 C 103.76 220.65 102.68 220.40 101.86 220.91 Z M 101.15 221.39 L 100.21 221.76 C 99.31 222.11 98.87 223.12 99.22 224.02 C 99.57 224.91 100.58 225.36 101.48 225.01 L 102.42 224.64 C 103.32 224.29 103.76 223.28 103.41 222.38 C 103.06 221.48 102.05 221.04 101.15 221.39 Z M 100.81 221.65 L 99.97 221.66 C 99.01 221.68 98.25 222.47 98.27 223.43 C 98.28 224.39 99.08 225.15 100.03 225.13 L 100.88 225.12 C 101.84 225.10 102.60 224.31 102.58 223.35 C 102.56 222.39 101.77 221.63 100.81 221.65 Z M 100.90 221.93 L 100.18 221.49 C 99.37 221.00 98.31 221.26 97.81 222.07 C 97.32 222.88 97.58 223.94 98.39 224.44 L 99.10 224.87 C 99.92 225.36 100.98 225.11 101.47 224.29 C 101.97 223.48 101.71 222.42 100.90 221.93 Z M 100.74 222.06 L 100.31 221.37 C 99.81 220.56 98.76 220.32 97.95 220.82 C 97.15 221.31 96.90 222.37 97.40 223.17 L 97.83 223.87 C 98.33 224.67 99.38 224.92 100.19 224.42 C 100.99 223.92 101.24 222.87 100.74 222.06 Z M 100.46 221.70 L 100.23 221.05 C 99.92 220.17 98.94 219.70 98.06 220.02 C 97.17 220.33 96.71 221.30 97.02 222.19 L 97.25 222.84 C 97.57 223.72 98.54 224.19 99.42 223.87 C 100.31 223.56 100.77 222.59 100.46 221.70 Z M 100.27 221.22 L 100.08 220.44 C 99.86 219.54 98.95 218.98 98.04 219.20 C 97.14 219.42 96.58 220.33 96.80 221.23 L 96.99 222.02 C 97.20 222.92 98.12 223.48 99.02 223.26 C 99.93 223.04 100.49 222.13 100.27 221.22 Z M 100.09 220.56 L 99.94 219.66 C 99.78 218.75 98.92 218.14 98.01 218.29 C 97.09 218.45 96.48 219.31 96.63 220.22 L 96.79 221.12 C 96.94 222.03 97.81 222.65 98.72 222.49 C 99.63 222.34 100.24 221.47 100.09 220.56 Z M 99.94 219.74 L 99.82 218.75 C 99.70 217.84 98.87 217.19 97.96 217.30 C 97.05 217.41 96.40 218.24 96.51 219.15 L 96.63 220.15 C 96.75 221.06 97.58 221.71 98.49 221.59 C 99.40 221.48 100.05 220.65 99.94 219.74 Z M 99.81 218.80 L 99.71 217.73 C 99.63 216.82 98.83 216.15 97.92 216.23 C 97.01 216.31 96.34 217.12 96.42 218.02 L 96.52 219.10 C 96.60 220.01 97.40 220.68 98.31 220.60 C 99.22 220.51 99.89 219.71 99.81 218.80 Z M 99.70 217.77 L 99.63 216.63 C 99.57 215.73 98.79 215.05 97.88 215.11 C 96.98 215.17 96.30 215.95 96.36 216.85 L 96.43 217.99 C 96.49 218.89 97.27 219.57 98.18 219.51 C 99.08 219.45 99.76 218.67 99.70 217.77 Z M 99.62 216.66 L 99.56 215.48 C 99.51 214.58 98.74 213.89 97.85 213.93 C 96.95 213.98 96.26 214.75 96.31 215.64 L 96.37 216.83 C 96.41 217.72 97.18 218.41 98.08 218.37 C 98.97 218.32 99.66 217.55 99.62 216.66 Z M 99.55 215.49 L 99.49 214.28 C 99.45 213.39 98.70 212.70 97.81 212.73 C 96.92 212.77 96.23 213.53 96.27 214.42 L 96.32 215.63 C 96.36 216.52 97.11 217.21 98.00 217.17 C 98.89 217.13 99.58 216.38 99.55 215.49 Z M 99.48 214.28 L 99.45 213.43 C 99.41 212.55 98.67 211.86 97.78 211.89 C 96.90 211.93 96.21 212.67 96.24 213.56 L 96.28 214.41 C 96.31 215.30 97.06 215.99 97.94 215.95 C 98.83 215.92 99.52 215.17 99.48 214.28 Z"
      fill="black"
      fill-rule="nonzero" /><path d="M 138.78 165.99 L 139.80 166.04 C 140.72 166.08 141.50 165.37 141.54 164.45 C 141.58 163.53 140.87 162.75 139.95 162.71 L 138.93 162.66 C 138.01 162.62 137.23 163.33 137.19 164.25 C 137.15 165.17 137.86 165.95 138.78 165.99 Z M 139.77 166.05 L 140.78 166.11 C 141.70 166.17 142.50 165.46 142.56 164.54 C 142.62 163.61 141.91 162.82 140.99 162.76 L 139.98 162.70 C 139.05 162.64 138.25 163.34 138.20 164.27 C 138.14 165.19 138.84 165.99 139.77 166.05 Z M 140.72 166.12 L 141.72 166.21 C 142.65 166.30 143.47 165.62 143.56 164.69 C 143.65 163.77 142.97 162.94 142.04 162.85 L 141.05 162.75 C 140.12 162.66 139.29 163.34 139.20 164.27 C 139.11 165.20 139.79 166.03 140.72 166.12 Z M 141.63 166.21 L 142.60 166.36 C 143.53 166.50 144.40 165.87 144.54 164.94 C 144.68 164.01 144.05 163.14 143.12 163.00 L 142.14 162.85 C 141.21 162.71 140.34 163.35 140.20 164.28 C 140.06 165.20 140.70 166.07 141.63 166.21 Z M 142.48 166.35 L 143.43 166.57 C 144.36 166.78 145.27 166.20 145.49 165.28 C 145.70 164.36 145.12 163.44 144.20 163.23 L 143.24 163.01 C 142.32 162.80 141.40 163.38 141.19 164.30 C 140.98 165.22 141.56 166.14 142.48 166.35 Z M 143.28 166.54 L 144.19 166.84 C 145.09 167.14 146.07 166.64 146.37 165.73 C 146.66 164.83 146.17 163.85 145.26 163.55 L 144.35 163.26 C 143.44 162.96 142.47 163.45 142.17 164.36 C 141.87 165.27 142.37 166.24 143.28 166.54 Z M 144.02 166.79 L 144.90 167.18 C 145.78 167.57 146.81 167.17 147.20 166.29 C 147.59 165.41 147.19 164.38 146.31 163.99 L 145.43 163.60 C 144.55 163.21 143.52 163.61 143.13 164.49 C 142.74 165.37 143.14 166.40 144.02 166.79 Z M 144.73 167.12 L 145.58 167.60 C 146.43 168.08 147.50 167.78 147.98 166.94 C 148.46 166.09 148.17 165.01 147.32 164.53 L 146.47 164.05 C 145.63 163.57 144.55 163.87 144.07 164.71 C 143.59 165.56 143.88 166.64 144.73 167.12 Z M 145.42 167.52 L 146.24 168.10 C 147.04 168.67 148.16 168.48 148.72 167.68 C 149.29 166.87 149.10 165.76 148.30 165.19 L 147.48 164.61 C 146.68 164.04 145.57 164.23 145.00 165.04 C 144.43 165.84 144.62 166.95 145.42 167.52 Z M 146.10 168.01 L 146.89 168.70 C 147.65 169.34 148.78 169.26 149.43 168.51 C 150.08 167.75 149.99 166.62 149.24 165.97 L 148.45 165.28 C 147.69 164.64 146.56 164.72 145.91 165.47 C 145.26 166.23 145.34 167.36 146.10 168.01 Z M 146.78 168.61 L 147.41 169.25 C 148.12 169.97 149.26 169.97 149.98 169.27 C 150.69 168.57 150.70 167.42 149.99 166.70 L 149.36 166.06 C 148.65 165.35 147.51 165.34 146.79 166.04 C 146.08 166.74 146.07 167.89 146.78 168.61 Z M 147.33 169.18 L 147.83 169.75 C 148.49 170.51 149.64 170.59 150.40 169.92 C 151.16 169.26 151.24 168.11 150.58 167.35 L 150.08 166.78 C 149.42 166.02 148.26 165.94 147.51 166.60 C 146.75 167.27 146.67 168.42 147.33 169.18 Z M 147.77 169.68 L 148.27 170.32 C 148.89 171.11 150.04 171.25 150.84 170.62 C 151.63 170.00 151.77 168.85 151.14 168.05 L 150.64 167.42 C 150.01 166.62 148.86 166.49 148.07 167.11 C 147.28 167.74 147.14 168.89 147.77 169.68 Z M 148.22 170.26 L 148.73 170.97 C 149.32 171.80 150.47 171.98 151.29 171.39 C 152.11 170.79 152.30 169.65 151.71 168.82 L 151.19 168.11 C 150.60 167.29 149.45 167.10 148.63 167.70 C 147.81 168.29 147.62 169.44 148.22 170.26 Z M 148.69 170.92 L 149.22 171.72 C 149.78 172.57 150.93 172.79 151.77 172.23 C 152.62 171.66 152.85 170.52 152.28 169.67 L 151.75 168.87 C 151.19 168.03 150.04 167.80 149.19 168.37 C 148.35 168.93 148.12 170.08 148.69 170.92 Z M 149.18 171.68 L 149.74 172.57 C 150.29 173.44 151.43 173.70 152.29 173.16 C 153.16 172.61 153.42 171.47 152.88 170.61 L 152.32 169.71 C 151.77 168.85 150.63 168.59 149.77 169.13 C 148.90 169.67 148.64 170.81 149.18 171.68 Z M 149.72 172.54 L 150.31 173.54 C 150.84 174.42 151.97 174.71 152.86 174.18 C 153.74 173.66 154.03 172.52 153.50 171.64 L 152.90 170.64 C 152.38 169.76 151.24 169.47 150.36 169.99 C 149.48 170.52 149.19 171.66 149.72 172.54 Z M 150.29 173.51 L 150.93 174.63 C 151.44 175.53 152.58 175.84 153.47 175.32 C 154.36 174.81 154.67 173.68 154.16 172.78 L 153.52 171.66 C 153.01 170.77 151.87 170.46 150.98 170.97 C 150.09 171.48 149.78 172.62 150.29 173.51 Z M 150.91 174.62 L 151.48 175.64 C 151.99 176.54 153.12 176.87 154.03 176.37 C 154.93 175.86 155.25 174.73 154.75 173.82 L 154.18 172.80 C 153.68 171.90 152.54 171.57 151.64 172.08 C 150.74 172.58 150.41 173.71 150.91 174.62 Z M 151.48 175.63 L 151.92 176.44 C 152.41 177.35 153.55 177.68 154.46 177.18 C 155.36 176.69 155.70 175.55 155.20 174.64 L 154.76 173.83 C 154.26 172.93 153.13 172.60 152.22 173.09 C 151.31 173.59 150.98 174.73 151.48 175.63 Z M 151.91 176.43 L 152.37 177.28 C 152.86 178.19 154.00 178.53 154.91 178.04 C 155.82 177.55 156.16 176.41 155.67 175.50 L 155.21 174.65 C 154.71 173.74 153.58 173.40 152.67 173.89 C 151.76 174.39 151.42 175.52 151.91 176.43 Z M 152.37 177.28 L 152.84 178.16 C 153.33 179.07 154.47 179.41 155.38 178.92 C 156.29 178.43 156.63 177.30 156.14 176.38 L 155.67 175.50 C 155.18 174.59 154.04 174.25 153.13 174.74 C 152.22 175.23 151.88 176.37 152.37 177.28 Z M 152.84 178.15 L 153.32 179.06 C 153.81 179.97 154.94 180.32 155.86 179.83 C 156.77 179.34 157.12 178.21 156.63 177.29 L 156.15 176.39 C 155.66 175.47 154.52 175.13 153.61 175.62 C 152.69 176.10 152.35 177.24 152.84 178.15 Z M 153.32 179.06 L 153.81 179.98 C 154.29 180.90 155.43 181.25 156.35 180.76 C 157.26 180.27 157.61 179.13 157.12 178.22 L 156.63 177.30 C 156.15 176.38 155.01 176.03 154.09 176.52 C 153.18 177.00 152.83 178.14 153.32 179.06 Z M 153.80 179.98 L 154.30 180.91 C 154.78 181.83 155.92 182.18 156.84 181.69 C 157.76 181.21 158.11 180.07 157.62 179.15 L 157.13 178.22 C 156.64 177.30 155.50 176.95 154.59 177.44 C 153.67 177.92 153.32 179.06 153.80 179.98 Z M 154.30 180.91 L 154.79 181.85 C 155.28 182.77 156.42 183.12 157.33 182.63 C 158.25 182.15 158.60 181.01 158.12 180.09 L 157.62 179.15 C 157.14 178.23 156.00 177.88 155.08 178.37 C 154.16 178.85 153.81 179.99 154.30 180.91 Z M 154.79 181.85 L 155.28 182.78 C 155.77 183.70 156.91 184.05 157.83 183.56 C 158.75 183.08 159.10 181.94 158.61 181.02 L 158.12 180.09 C 157.63 179.17 156.49 178.82 155.57 179.30 C 154.65 179.79 154.30 180.93 154.79 181.85 Z M 155.28 182.78 L 155.77 183.70 C 156.25 184.62 157.39 184.97 158.32 184.48 C 159.24 184.00 159.59 182.86 159.10 181.94 L 158.61 181.02 C 158.13 180.10 156.98 179.75 156.06 180.23 C 155.14 180.72 154.79 181.86 155.28 182.78 Z M 155.77 183.70 L 156.24 184.60 C 156.73 185.52 157.87 185.87 158.79 185.38 C 159.72 184.90 160.07 183.75 159.58 182.83 L 159.10 181.93 C 158.61 181.01 157.47 180.66 156.55 181.15 C 155.63 181.64 155.28 182.78 155.77 183.70 Z M 156.24 184.61 L 156.71 185.48 C 157.20 186.40 158.34 186.75 159.26 186.26 C 160.18 185.77 160.53 184.62 160.04 183.70 L 159.58 182.83 C 159.09 181.91 157.94 181.56 157.02 182.05 C 156.10 182.54 155.75 183.69 156.24 184.61 Z M 156.71 185.48 L 157.16 186.32 C 157.65 187.24 158.80 187.59 159.72 187.09 C 160.64 186.60 160.98 185.45 160.49 184.53 L 160.04 183.70 C 159.55 182.78 158.40 182.43 157.48 182.92 C 156.56 183.42 156.21 184.56 156.71 185.48 Z M 157.16 186.33 L 157.63 187.20 C 158.13 188.12 159.28 188.46 160.20 187.97 C 161.12 187.47 161.46 186.32 160.96 185.40 L 160.49 184.53 C 159.99 183.61 158.84 183.27 157.92 183.76 C 157.00 184.26 156.66 185.41 157.16 186.33 Z M 157.64 187.21 L 158.25 188.34 C 158.76 189.26 159.91 189.59 160.83 189.09 C 161.74 188.58 162.08 187.43 161.58 186.52 L 160.96 185.39 C 160.45 184.47 159.30 184.14 158.39 184.64 C 157.47 185.14 157.13 186.29 157.64 187.21 Z M 158.26 188.35 L 158.84 189.38 C 159.35 190.29 160.50 190.62 161.41 190.11 C 162.33 189.60 162.65 188.45 162.14 187.53 L 161.57 186.50 C 161.06 185.59 159.90 185.26 158.99 185.77 C 158.08 186.28 157.75 187.44 158.26 188.35 Z M 158.84 189.39 L 159.38 190.34 C 159.90 191.24 161.05 191.56 161.96 191.04 C 162.87 190.53 163.19 189.37 162.67 188.46 L 162.14 187.52 C 161.62 186.61 160.46 186.29 159.55 186.81 C 158.64 187.33 158.33 188.48 158.84 189.39 Z M 159.39 190.35 L 159.89 191.22 C 160.42 192.12 161.57 192.43 162.48 191.91 C 163.38 191.38 163.69 190.22 163.17 189.32 L 162.66 188.45 C 162.14 187.54 160.98 187.24 160.08 187.76 C 159.17 188.29 158.86 189.44 159.39 190.35 Z M 159.90 191.23 L 160.38 192.04 C 160.91 192.94 162.07 193.24 162.97 192.70 C 163.87 192.17 164.17 191.01 163.64 190.11 L 163.16 189.30 C 162.63 188.40 161.47 188.10 160.57 188.64 C 159.67 189.17 159.37 190.33 159.90 191.23 Z M 160.38 192.05 L 160.84 192.80 C 161.38 193.70 162.54 193.99 163.44 193.45 C 164.33 192.91 164.62 191.75 164.08 190.85 L 163.63 190.10 C 163.09 189.20 161.93 188.91 161.03 189.45 C 160.13 189.99 159.84 191.15 160.38 192.05 Z M 160.84 192.82 L 161.28 193.53 C 161.83 194.43 162.99 194.71 163.88 194.16 C 164.78 193.62 165.06 192.45 164.51 191.56 L 164.08 190.84 C 163.53 189.95 162.37 189.67 161.47 190.21 C 160.58 190.76 160.30 191.92 160.84 192.82 Z M 161.29 193.54 L 161.71 194.23 C 162.26 195.12 163.43 195.40 164.32 194.85 C 165.21 194.30 165.49 193.13 164.94 192.24 L 164.51 191.55 C 163.96 190.66 162.79 190.39 161.90 190.94 C 161.01 191.48 160.74 192.65 161.29 193.54 Z M 161.72 194.24 L 162.20 195.02 C 162.76 195.91 163.93 196.18 164.81 195.63 C 165.70 195.07 165.97 193.90 165.42 193.02 L 164.93 192.24 C 164.38 191.35 163.21 191.08 162.32 191.63 C 161.44 192.18 161.16 193.35 161.72 194.24 Z M 162.21 195.03 L 162.74 195.88 C 163.30 196.76 164.47 197.03 165.36 196.47 C 166.24 195.92 166.51 194.75 165.95 193.86 L 165.42 193.01 C 164.86 192.12 163.69 191.86 162.80 192.41 C 161.92 192.97 161.65 194.14 162.21 195.03 Z M 162.75 195.89 L 163.28 196.73 C 163.85 197.61 165.02 197.87 165.90 197.31 C 166.78 196.75 167.04 195.58 166.48 194.70 L 165.95 193.85 C 165.38 192.97 164.21 192.71 163.33 193.27 C 162.45 193.83 162.19 195.00 162.75 195.89 Z M 163.29 196.74 L 163.83 197.57 C 164.39 198.45 165.57 198.71 166.45 198.14 C 167.33 197.57 167.58 196.40 167.01 195.52 L 166.48 194.69 C 165.91 193.81 164.74 193.55 163.86 194.12 C 162.98 194.69 162.72 195.86 163.29 196.74 Z M 163.83 197.58 L 164.38 198.42 C 164.95 199.29 166.12 199.54 167.00 198.96 C 167.88 198.39 168.12 197.22 167.55 196.34 L 167.01 195.51 C 166.43 194.64 165.26 194.39 164.38 194.96 C 163.51 195.53 163.26 196.71 163.83 197.58 Z M 164.39 198.43 L 164.94 199.26 C 165.52 200.13 166.69 200.36 167.56 199.79 C 168.44 199.21 168.67 198.03 168.09 197.16 L 167.54 196.33 C 166.96 195.46 165.79 195.22 164.91 195.80 C 164.04 196.38 163.81 197.56 164.39 198.43 Z M 164.95 199.27 L 165.51 200.10 C 166.10 200.97 167.27 201.19 168.14 200.61 C 169.01 200.02 169.23 198.84 168.65 197.98 L 168.08 197.15 C 167.50 196.28 166.32 196.05 165.45 196.64 C 164.59 197.23 164.36 198.40 164.95 199.27 Z M 165.52 200.11 L 166.08 200.93 C 166.67 201.79 167.85 202.00 168.71 201.41 C 169.58 200.82 169.79 199.64 169.20 198.77 L 168.64 197.96 C 168.04 197.10 166.86 196.88 166.00 197.48 C 165.14 198.07 164.92 199.25 165.52 200.11 Z M 166.09 200.94 L 166.66 201.75 C 167.26 202.61 168.44 202.81 169.30 202.21 C 170.15 201.61 170.36 200.43 169.76 199.57 L 169.19 198.76 C 168.59 197.91 167.41 197.70 166.55 198.30 C 165.69 198.90 165.49 200.08 166.09 200.94 Z M 166.66 201.76 L 167.24 202.57 C 167.85 203.43 169.03 203.62 169.89 203.02 C 170.74 202.41 170.94 201.23 170.33 200.37 L 169.75 199.56 C 169.14 198.71 167.96 198.51 167.11 199.12 C 166.26 199.73 166.06 200.91 166.66 201.76 Z M 167.25 202.58 L 167.84 203.40 C 168.45 204.25 169.63 204.44 170.48 203.82 C 171.33 203.21 171.52 202.03 170.91 201.18 L 170.32 200.37 C 169.71 199.52 168.53 199.33 167.68 199.94 C 166.83 200.55 166.64 201.73 167.25 202.58 Z M 167.84 203.41 L 168.44 204.22 C 169.05 205.06 170.24 205.25 171.08 204.63 C 171.93 204.02 172.11 202.83 171.50 201.98 L 170.90 201.17 C 170.29 200.33 169.10 200.14 168.26 200.76 C 167.41 201.37 167.23 202.56 167.84 203.41 Z M 168.44 204.23 L 169.04 205.04 C 169.66 205.88 170.85 206.06 171.69 205.44 C 172.53 204.82 172.71 203.63 172.09 202.79 L 171.49 201.98 C 170.87 201.14 169.69 200.95 168.84 201.58 C 168.00 202.20 167.82 203.38 168.44 204.23 Z M 169.04 205.04 L 169.64 205.85 C 170.27 206.69 171.45 206.87 172.29 206.24 C 173.13 205.62 173.31 204.43 172.69 203.59 L 172.09 202.78 C 171.46 201.94 170.28 201.77 169.44 202.39 C 168.60 203.01 168.42 204.20 169.04 205.04 Z M 169.65 205.86 L 170.25 206.66 C 170.88 207.50 172.06 207.67 172.90 207.05 C 173.74 206.42 173.91 205.23 173.29 204.40 L 172.68 203.59 C 172.06 202.75 170.87 202.58 170.03 203.20 C 169.19 203.83 169.02 205.02 169.65 205.86 Z M 170.25 206.67 L 170.86 207.47 C 171.49 208.31 172.67 208.48 173.51 207.85 C 174.35 207.22 174.51 206.03 173.89 205.19 L 173.28 204.39 C 172.65 203.55 171.47 203.39 170.63 204.01 C 169.79 204.64 169.62 205.83 170.25 206.67 Z M 170.86 207.48 L 171.47 208.28 C 172.10 209.11 173.29 209.27 174.12 208.64 C 174.95 208.01 175.12 206.82 174.49 205.99 L 173.88 205.19 C 173.25 204.35 172.06 204.19 171.23 204.82 C 170.39 205.45 170.23 206.64 170.86 207.48 Z M 171.47 208.28 L 172.08 209.08 C 172.71 209.91 173.90 210.07 174.73 209.43 C 175.56 208.80 175.72 207.61 175.09 206.78 L 174.48 205.98 C 173.85 205.15 172.66 204.99 171.83 205.63 C 170.99 206.26 170.84 207.45 171.47 208.28 Z M 172.08 209.08 L 172.69 209.87 C 173.33 210.70 174.52 210.85 175.35 210.21 C 176.18 209.58 176.33 208.39 175.69 207.56 L 175.08 206.77 C 174.44 205.94 173.25 205.79 172.43 206.43 C 171.60 207.06 171.44 208.25 172.08 209.08 Z M 172.70 209.88 L 173.31 210.67 C 173.95 211.49 175.15 211.64 175.97 210.99 C 176.80 210.35 176.94 209.16 176.30 208.33 L 175.69 207.55 C 175.04 206.72 173.85 206.58 173.03 207.22 C 172.20 207.86 172.05 209.06 172.70 209.88 Z M 173.32 210.67 L 173.93 211.45 C 174.58 212.28 175.77 212.42 176.60 211.77 C 177.42 211.12 177.56 209.93 176.91 209.11 L 176.29 208.33 C 175.64 207.50 174.45 207.36 173.63 208.01 C 172.81 208.66 172.67 209.85 173.32 210.67 Z M 173.94 211.46 L 174.57 212.25 C 175.22 213.06 176.41 213.19 177.23 212.54 C 178.05 211.89 178.18 210.70 177.53 209.88 L 176.90 209.10 C 176.25 208.28 175.05 208.15 174.24 208.80 C 173.42 209.45 173.29 210.65 173.94 211.46 Z M 174.57 212.25 L 175.20 213.03 C 175.86 213.84 177.05 213.97 177.87 213.31 C 178.68 212.65 178.81 211.46 178.15 210.65 L 177.52 209.87 C 176.86 209.06 175.67 208.93 174.85 209.59 C 174.04 210.25 173.92 211.44 174.57 212.25 Z M 175.21 213.04 L 175.84 213.81 C 176.50 214.62 177.70 214.74 178.51 214.08 C 179.32 213.42 179.44 212.23 178.77 211.42 L 178.14 210.64 C 177.48 209.83 176.29 209.71 175.48 210.37 C 174.67 211.04 174.55 212.23 175.21 213.04 Z M 175.85 213.82 L 176.48 214.59 C 177.15 215.40 178.34 215.51 179.15 214.85 C 179.95 214.18 180.07 212.99 179.41 212.18 L 178.77 211.41 C 178.11 210.60 176.91 210.49 176.10 211.15 C 175.30 211.82 175.18 213.01 175.85 213.82 Z M 176.49 214.59 L 177.12 215.36 C 177.79 216.17 178.98 216.28 179.79 215.61 C 180.59 214.95 180.71 213.75 180.04 212.95 L 179.40 212.18 C 178.74 211.37 177.54 211.26 176.74 211.93 C 175.93 212.60 175.82 213.79 176.49 214.59 Z M 177.13 215.37 L 177.77 216.13 C 178.43 216.94 179.63 217.05 180.43 216.38 C 181.23 215.71 181.34 214.52 180.68 213.71 L 180.04 212.95 C 179.37 212.14 178.18 212.03 177.37 212.70 C 176.57 213.37 176.46 214.56 177.13 215.37 Z M 177.77 216.14 L 178.41 216.90 C 179.08 217.71 180.27 217.81 181.07 217.15 C 181.87 216.48 181.98 215.28 181.31 214.48 L 180.67 213.71 C 180.01 212.91 178.81 212.80 178.01 213.47 C 177.21 214.14 177.10 215.33 177.77 216.14 Z M 178.41 216.90 L 179.04 217.66 C 179.71 218.46 180.90 218.57 181.70 217.90 C 182.50 217.23 182.61 216.04 181.94 215.24 L 181.31 214.48 C 180.64 213.68 179.45 213.57 178.65 214.24 C 177.85 214.91 177.74 216.10 178.41 216.90 Z M 179.04 217.66 L 179.67 218.42 C 180.34 219.22 181.53 219.33 182.33 218.66 C 183.14 217.99 183.24 216.80 182.58 216.00 L 181.94 215.24 C 181.27 214.44 180.08 214.33 179.28 215.00 C 178.48 215.67 178.37 216.86 179.04 217.66 Z M 179.67 218.42 L 180.31 219.18 C 180.98 219.98 182.17 220.09 182.97 219.42 C 183.77 218.75 183.88 217.56 183.21 216.76 L 182.58 216.00 C 181.91 215.19 180.71 215.09 179.91 215.76 C 179.11 216.42 179.00 217.62 179.67 218.42 Z M 180.31 219.18 L 180.95 219.94 C 181.61 220.75 182.81 220.85 183.61 220.18 C 184.41 219.51 184.52 218.32 183.85 217.52 L 183.21 216.76 C 182.54 215.96 181.35 215.85 180.55 216.52 C 179.75 217.19 179.64 218.38 180.31 219.18 Z M 180.95 219.95 L 181.59 220.72 C 182.26 221.52 183.45 221.62 184.25 220.95 C 185.05 220.28 185.16 219.09 184.49 218.29 L 183.85 217.52 C 183.18 216.72 181.99 216.61 181.18 217.28 C 180.38 217.95 180.28 219.14 180.95 219.95 Z M 181.59 220.72 L 182.24 221.49 C 182.91 222.29 184.10 222.40 184.90 221.73 C 185.70 221.06 185.81 219.87 185.14 219.07 L 184.49 218.29 C 183.82 217.49 182.63 217.38 181.83 218.05 C 181.03 218.72 180.92 219.92 181.59 220.72 Z M 182.24 221.49 L 182.90 222.28 C 183.57 223.08 184.76 223.18 185.56 222.51 C 186.36 221.84 186.47 220.65 185.80 219.85 L 185.14 219.07 C 184.47 218.27 183.28 218.16 182.48 218.83 C 181.68 219.50 181.57 220.69 182.24 221.49 Z M 182.90 222.28 L 183.56 223.06 C 184.23 223.86 185.42 223.96 186.22 223.29 C 187.02 222.62 187.12 221.43 186.45 220.63 L 185.79 219.85 C 185.12 219.05 183.93 218.95 183.13 219.62 C 182.34 220.29 182.23 221.48 182.90 222.28 Z M 183.56 223.06 L 184.22 223.84 C 184.90 224.64 186.09 224.74 186.88 224.07 C 187.68 223.40 187.78 222.21 187.11 221.41 L 186.45 220.63 C 185.78 219.83 184.59 219.73 183.79 220.40 C 182.99 221.07 182.89 222.26 183.56 223.06 Z M 184.23 223.85 L 184.89 224.63 C 185.56 225.42 186.75 225.52 187.54 224.85 C 188.34 224.18 188.44 222.99 187.77 222.19 L 187.11 221.41 C 186.43 220.62 185.24 220.52 184.45 221.19 C 183.65 221.86 183.55 223.05 184.23 223.85 Z M 184.89 224.63 L 185.55 225.40 C 186.22 226.20 187.41 226.29 188.20 225.62 C 189.00 224.95 189.09 223.76 188.42 222.96 L 187.76 222.19 C 187.09 221.40 185.90 221.30 185.11 221.97 C 184.32 222.65 184.22 223.84 184.89 224.63 Z M 185.55 225.41 L 186.20 226.17 C 186.88 226.96 188.06 227.05 188.85 226.38 C 189.65 225.70 189.74 224.51 189.07 223.72 L 188.42 222.96 C 187.74 222.17 186.55 222.08 185.76 222.75 C 184.97 223.43 184.88 224.61 185.55 225.41 Z M 186.20 226.17 L 186.84 226.91 C 187.52 227.70 188.70 227.79 189.49 227.11 C 190.28 226.44 190.37 225.25 189.70 224.46 L 189.06 223.72 C 188.38 222.93 187.20 222.84 186.41 223.52 C 185.62 224.19 185.53 225.38 186.20 226.17 Z M 186.85 226.91 L 187.46 227.63 C 188.14 228.42 189.33 228.50 190.12 227.83 C 190.90 227.15 190.99 225.96 190.31 225.17 L 189.69 224.46 C 189.01 223.67 187.83 223.58 187.04 224.26 C 186.25 224.94 186.17 226.13 186.85 226.91 Z M 187.47 227.63 L 188.18 228.45 C 188.86 229.23 190.04 229.31 190.83 228.63 C 191.61 227.95 191.69 226.76 191.01 225.98 L 190.30 225.17 C 189.62 224.39 188.44 224.30 187.65 224.98 C 186.87 225.67 186.79 226.85 187.47 227.63 Z M 188.18 228.45 L 188.87 229.24 C 189.56 230.02 190.74 230.10 191.52 229.41 C 192.30 228.73 192.38 227.54 191.69 226.76 L 191.00 225.98 C 190.32 225.20 189.14 225.12 188.36 225.80 C 187.58 226.49 187.50 227.67 188.18 228.45 Z M 188.88 229.24 L 189.55 230.00 C 190.23 230.77 191.42 230.85 192.19 230.16 C 192.97 229.48 193.04 228.29 192.36 227.52 L 191.69 226.76 C 191.00 225.98 189.82 225.91 189.04 226.60 C 188.27 227.28 188.19 228.47 188.88 229.24 Z M 189.55 230.00 L 190.20 230.73 C 190.88 231.50 192.07 231.57 192.84 230.89 C 193.62 230.20 193.69 229.02 193.00 228.24 L 192.35 227.51 C 191.66 226.74 190.48 226.67 189.71 227.36 C 188.93 228.04 188.86 229.23 189.55 230.00 Z M 190.20 230.73 L 190.83 231.44 C 191.52 232.21 192.70 232.28 193.48 231.59 C 194.25 230.91 194.32 229.72 193.63 228.95 L 193.00 228.24 C 192.31 227.47 191.13 227.40 190.35 228.09 C 189.58 228.78 189.51 229.96 190.20 230.73 Z M 190.84 231.44 L 191.46 232.14 C 192.15 232.91 193.33 232.98 194.10 232.29 C 194.87 231.60 194.94 230.42 194.25 229.65 L 193.63 228.95 C 192.94 228.18 191.76 228.11 190.99 228.80 C 190.22 229.49 190.15 230.67 190.84 231.44 Z M 191.46 232.14 L 192.14 232.90 C 192.83 233.67 194.01 233.74 194.78 233.05 C 195.55 232.37 195.61 231.19 194.93 230.42 L 194.25 229.65 C 193.56 228.88 192.38 228.81 191.61 229.50 C 190.84 230.19 190.77 231.37 191.46 232.14 Z M 192.14 232.89 L 192.81 233.65 C 193.49 234.42 194.67 234.49 195.44 233.81 C 196.21 233.13 196.28 231.95 195.60 231.18 L 194.93 230.42 C 194.25 229.65 193.07 229.58 192.30 230.26 C 191.53 230.95 191.46 232.12 192.14 232.89 Z M 192.81 233.64 L 193.47 234.40 C 194.14 235.17 195.32 235.25 196.09 234.57 C 196.87 233.89 196.94 232.71 196.27 231.94 L 195.61 231.19 C 194.93 230.42 193.75 230.34 192.98 231.02 C 192.20 231.69 192.13 232.87 192.81 233.64 Z M 193.46 234.38 L 194.11 235.13 C 194.78 235.91 195.95 236.00 196.73 235.32 C 197.51 234.65 197.59 233.48 196.92 232.70 L 196.27 231.95 C 195.60 231.18 194.43 231.09 193.65 231.76 C 192.87 232.43 192.79 233.61 193.46 234.38 Z M 194.10 235.12 L 194.73 235.87 C 195.40 236.65 196.57 236.74 197.35 236.08 C 198.13 235.42 198.23 234.25 197.56 233.46 L 196.93 232.72 C 196.27 231.93 195.09 231.84 194.31 232.50 C 193.53 233.17 193.43 234.34 194.10 235.12 Z M 194.72 235.85 L 195.30 236.55 C 195.95 237.34 197.12 237.45 197.91 236.79 C 198.70 236.14 198.81 234.97 198.15 234.18 L 197.57 233.48 C 196.92 232.69 195.75 232.58 194.96 233.24 C 194.18 233.89 194.07 235.06 194.72 235.85 Z M 195.29 236.53 L 195.85 237.22 C 196.49 238.02 197.65 238.14 198.45 237.50 C 199.25 236.86 199.37 235.69 198.73 234.90 L 198.17 234.20 C 197.53 233.41 196.36 233.28 195.57 233.92 C 194.77 234.57 194.65 235.73 195.29 236.53 Z M 195.83 237.20 L 196.40 237.93 C 197.03 238.73 198.19 238.87 198.99 238.25 C 199.80 237.62 199.94 236.46 199.31 235.65 L 198.74 234.92 C 198.12 234.12 196.96 233.97 196.15 234.60 C 195.35 235.23 195.20 236.39 195.83 237.20 Z M 196.38 237.90 L 196.98 238.69 C 197.59 239.50 198.75 239.66 199.56 239.05 C 200.37 238.44 200.54 237.28 199.92 236.47 L 199.33 235.68 C 198.72 234.87 197.56 234.70 196.75 235.32 C 195.93 235.93 195.77 237.08 196.38 237.90 Z M 196.96 238.66 L 197.59 239.52 C 198.19 240.35 199.34 240.53 200.16 239.93 C 200.98 239.33 201.17 238.18 200.57 237.36 L 199.94 236.49 C 199.34 235.67 198.19 235.49 197.37 236.09 C 196.54 236.68 196.36 237.84 196.96 238.66 Z M 197.57 239.50 L 198.25 240.46 C 198.84 241.29 199.98 241.49 200.81 240.91 C 201.64 240.32 201.84 239.17 201.26 238.34 L 200.58 237.38 C 200.00 236.55 198.85 236.35 198.02 236.94 C 197.19 237.52 196.99 238.67 197.57 239.50 Z M 198.24 240.44 L 198.79 241.25 C 199.37 242.08 200.51 242.29 201.35 241.72 C 202.18 241.15 202.40 240.00 201.82 239.17 L 201.27 238.36 C 200.70 237.53 199.55 237.32 198.72 237.89 C 197.88 238.46 197.67 239.61 198.24 240.44 Z M 198.79 241.23 L 199.34 242.05 C 199.90 242.89 201.04 243.11 201.88 242.54 C 202.72 241.98 202.94 240.84 202.38 240.00 L 201.83 239.18 C 201.26 238.34 200.12 238.12 199.28 238.69 C 198.44 239.25 198.22 240.39 198.79 241.23 Z M 199.33 242.03 L 199.89 242.88 C 200.45 243.73 201.59 243.96 202.43 243.40 C 203.27 242.84 203.50 241.70 202.95 240.86 L 202.38 240.01 C 201.82 239.17 200.69 238.94 199.85 239.50 C 199.00 240.05 198.77 241.19 199.33 242.03 Z M 199.89 242.87 L 200.46 243.74 C 201.01 244.59 202.14 244.83 202.99 244.28 C 203.83 243.72 204.07 242.59 203.52 241.75 L 202.95 240.87 C 202.40 240.03 201.27 239.79 200.42 240.34 C 199.58 240.89 199.34 242.02 199.89 242.87 Z M 200.45 243.73 L 201.02 244.61 C 201.56 245.46 202.69 245.71 203.54 245.16 C 204.39 244.62 204.63 243.49 204.09 242.64 L 203.53 241.76 C 202.98 240.91 201.85 240.66 201.00 241.21 C 200.16 241.75 199.91 242.88 200.45 243.73 Z M 201.01 244.60 L 201.56 245.47 C 202.10 246.32 203.22 246.58 204.07 246.04 C 204.93 245.51 205.18 244.38 204.65 243.53 L 204.10 242.66 C 203.56 241.80 202.44 241.55 201.58 242.08 C 200.73 242.62 200.48 243.74 201.01 244.60 Z M 201.55 245.45 L 202.08 246.31 C 202.61 247.17 203.73 247.43 204.58 246.90 C 205.44 246.38 205.71 245.26 205.18 244.40 L 204.65 243.55 C 204.13 242.69 203.01 242.43 202.15 242.95 C 201.29 243.48 201.03 244.60 201.55 245.45 Z M 202.07 246.29 L 202.57 247.11 C 203.08 247.97 204.20 248.25 205.06 247.73 C 205.92 247.22 206.20 246.10 205.68 245.24 L 205.19 244.42 C 204.67 243.56 203.55 243.28 202.69 243.80 C 201.83 244.32 201.56 245.43 202.07 246.29 Z M 202.56 247.09 L 203.11 248.03 C 203.61 248.90 204.72 249.19 205.58 248.69 C 206.45 248.19 206.74 247.08 206.24 246.22 L 205.69 245.27 C 205.19 244.40 204.08 244.11 203.21 244.61 C 202.35 245.11 202.05 246.22 202.56 247.09 Z M 203.10 248.00 L 203.62 248.95 C 204.10 249.82 205.20 250.14 206.07 249.66 C 206.94 249.17 207.26 248.08 206.78 247.21 L 206.25 246.25 C 205.77 245.38 204.67 245.07 203.80 245.55 C 202.93 246.03 202.61 247.13 203.10 248.00 Z M 203.61 248.91 L 204.08 249.80 C 204.54 250.68 205.62 251.02 206.50 250.56 C 207.37 250.10 207.71 249.02 207.26 248.14 L 206.79 247.25 C 206.33 246.37 205.25 246.03 204.37 246.49 C 203.49 246.95 203.15 248.03 203.61 248.91 Z M 204.07 249.76 L 204.49 250.61 C 204.92 251.50 205.99 251.86 206.87 251.43 C 207.76 251.00 208.12 249.93 207.69 249.05 L 207.27 248.19 C 206.83 247.30 205.77 246.94 204.88 247.37 C 204.00 247.81 203.63 248.87 204.07 249.76 Z M 204.48 250.57 L 204.86 251.41 C 205.27 252.30 206.33 252.69 207.22 252.28 C 208.11 251.87 208.49 250.82 208.09 249.93 L 207.70 249.09 C 207.29 248.20 206.23 247.81 205.35 248.22 C 204.46 248.63 204.07 249.68 204.48 250.57 Z M 204.86 251.37 L 205.23 252.22 C 205.61 253.11 206.65 253.52 207.55 253.14 C 208.44 252.75 208.85 251.71 208.46 250.82 L 208.09 249.97 C 207.70 249.08 206.66 248.67 205.77 249.05 C 204.88 249.44 204.47 250.48 204.86 251.37 Z M 205.22 252.19 L 205.58 253.06 C 205.95 253.95 206.98 254.38 207.87 254.00 C 208.77 253.63 209.19 252.61 208.82 251.71 L 208.46 250.85 C 208.09 249.95 207.07 249.53 206.17 249.90 C 205.28 250.27 204.85 251.30 205.22 252.19 Z M 205.58 253.03 L 205.93 253.92 C 206.28 254.82 207.30 255.26 208.20 254.90 C 209.10 254.55 209.54 253.53 209.18 252.63 L 208.83 251.74 C 208.47 250.84 207.46 250.40 206.56 250.76 C 205.66 251.11 205.22 252.13 205.58 253.03 Z M 205.92 253.89 L 206.27 254.81 C 206.60 255.71 207.61 256.17 208.51 255.83 C 209.41 255.50 209.87 254.49 209.53 253.59 L 209.19 252.67 C 208.85 251.77 207.85 251.31 206.95 251.64 C 206.05 251.98 205.59 252.98 205.92 253.89 Z M 206.26 254.77 L 206.59 255.72 C 206.90 256.63 207.89 257.11 208.80 256.79 C 209.70 256.48 210.18 255.49 209.87 254.58 L 209.54 253.63 C 209.23 252.73 208.24 252.25 207.33 252.56 C 206.42 252.87 205.95 253.86 206.26 254.77 Z M 206.58 255.67 L 206.89 256.65 C 207.18 257.56 208.15 258.06 209.06 257.78 C 209.97 257.49 210.48 256.51 210.19 255.60 L 209.88 254.63 C 209.59 253.72 208.62 253.21 207.71 253.50 C 206.80 253.79 206.29 254.76 206.58 255.67 Z M 206.88 256.60 L 207.16 257.59 C 207.42 258.51 208.38 259.04 209.29 258.78 C 210.21 258.52 210.74 257.57 210.48 256.65 L 210.20 255.65 C 209.94 254.74 208.98 254.21 208.07 254.47 C 207.15 254.73 206.62 255.68 206.88 256.60 Z M 207.16 257.54 L 207.40 258.53 C 207.63 259.45 208.56 260.01 209.48 259.78 C 210.40 259.55 210.96 258.62 210.73 257.70 L 210.49 256.71 C 210.26 255.79 209.33 255.23 208.41 255.46 C 207.49 255.69 206.93 256.62 207.16 257.54 Z M 207.40 258.47 L 207.61 259.43 C 207.81 260.36 208.71 260.94 209.63 260.74 C 210.56 260.54 211.14 259.64 210.94 258.72 L 210.74 257.75 C 210.54 256.83 209.63 256.25 208.71 256.44 C 207.79 256.64 207.20 257.55 207.40 258.47 Z M 207.61 259.39 L 207.80 260.37 C 207.97 261.28 208.85 261.89 209.77 261.72 C 210.69 261.54 211.30 260.66 211.12 259.74 L 210.94 258.76 C 210.77 257.84 209.88 257.24 208.96 257.41 C 208.04 257.59 207.44 258.47 207.61 259.39 Z M 207.80 260.33 L 207.97 261.32 C 208.12 262.23 208.99 262.85 209.90 262.70 C 210.82 262.54 211.43 261.68 211.28 260.76 L 211.12 259.78 C 210.96 258.86 210.10 258.24 209.18 258.40 C 208.27 258.55 207.65 259.41 207.80 260.33 Z M 207.98 261.29 L 208.13 262.28 C 208.26 263.19 209.11 263.82 210.02 263.68 C 210.93 263.54 211.56 262.69 211.42 261.78 L 211.27 260.79 C 211.13 259.88 210.29 259.25 209.38 259.39 C 208.47 259.53 207.84 260.38 207.98 261.29 Z M 208.14 262.26 L 208.28 263.26 C 208.40 264.17 209.24 264.80 210.14 264.67 C 211.05 264.54 211.68 263.71 211.55 262.80 L 211.41 261.80 C 211.29 260.90 210.45 260.27 209.54 260.39 C 208.64 260.52 208.01 261.36 208.14 262.26 Z M 208.29 263.25 L 208.42 264.25 C 208.54 265.15 209.37 265.78 210.27 265.66 C 211.17 265.54 211.80 264.71 211.68 263.81 L 211.54 262.81 C 211.42 261.91 210.59 261.28 209.70 261.40 C 208.80 261.53 208.17 262.35 208.29 263.25 Z M 208.43 264.25 L 208.45 264.42 C 208.57 265.32 209.39 265.95 210.29 265.83 C 211.18 265.71 211.81 264.88 211.69 263.99 L 211.67 263.82 C 211.55 262.92 210.73 262.29 209.83 262.41 C 208.94 262.53 208.31 263.35 208.43 264.25 Z"
      fill="black"
      fill-rule="nonzero" /></svg>