<svg xmlns="http://www.w3.org/2000/svg" width="300" height="300" viewBox="0 0 300 300">
<path d="M 138.02 134.40 L 137.75 133.22 C 137.49 132.09 136.36 131.40 135.24 131.66 C 134.12 131.92 133.42 133.04 133.68 134.16 L 133.96 135.35 C 134.22 136.47 135.34 137.17 136.46 136.91 C 137.58 136.64 138.28 135.52 138.02 134.40 Z M 137.77 133.25 L 137.53 132.10 C 137.28 130.96 136.16 130.24 135.03 130.48 C 133.89 130.72 133.17 131.84 133.41 132.98 L 133.66 134.13 C 133.90 135.26 135.02 135.99 136.15 135.75 C 137.29 135.50 138.01 134.38 137.77 133.25 Z M 137.56 132.17 L 137.37 131.09 C 137.17 129.93 136.07 129.16 134.92 129.36 C 133.77 129.56 132.99 130.66 133.19 131.81 L 133.38 132.90 C 133.58 134.05 134.68 134.82 135.83 134.63 C 136.98 134.43 137.76 133.33 137.56 132.17 Z M 137.41 131.23 L 137.31 130.24 C 137.19 129.07 136.14 128.21 134.96 128.33 C 133.79 128.45 132.93 129.50 133.05 130.68 L 133.15 131.67 C 133.27 132.84 134.32 133.69 135.50 133.58 C 136.67 133.46 137.53 132.41 137.41 131.23 Z M 137.33 130.50 L 137.35 129.64 C 137.37 128.45 136.43 127.47 135.24 127.45 C 134.05 127.43 133.06 128.37 133.04 129.56 L 133.03 130.42 C 133.00 131.61 133.95 132.59 135.14 132.61 C 136.33 132.64 137.31 131.69 137.33 130.50 Z M 137.31 130.09 L 137.47 129.40 C 137.74 128.23 137.02 127.06 135.85 126.79 C 134.68 126.52 133.51 127.25 133.24 128.41 L 133.08 129.11 C 132.81 130.28 133.54 131.45 134.70 131.72 C 135.87 131.99 137.04 131.26 137.31 130.09 Z M 137.14 130.17 L 137.53 129.61 C 138.23 128.63 138.00 127.27 137.02 126.57 C 136.03 125.87 134.67 126.10 133.97 127.09 L 133.58 127.64 C 132.88 128.63 133.11 129.99 134.10 130.69 C 135.08 131.38 136.44 131.15 137.14 130.17 Z M 136.73 130.30 L 137.38 129.97 C 138.46 129.44 138.90 128.13 138.36 127.05 C 137.83 125.97 136.52 125.53 135.44 126.07 L 134.78 126.40 C 133.70 126.93 133.26 128.24 133.80 129.32 C 134.34 130.40 135.65 130.84 136.73 130.30 Z M 136.66 130.19 L 137.53 130.09 C 138.73 129.95 139.58 128.87 139.45 127.68 C 139.31 126.48 138.23 125.62 137.04 125.76 L 136.16 125.86 C 134.97 125.99 134.11 127.07 134.25 128.27 C 134.38 129.46 135.46 130.32 136.66 130.19 Z M 137.11 130.09 L 138.17 130.18 C 139.37 130.27 140.42 129.38 140.52 128.18 C 140.61 126.99 139.72 125.94 138.52 125.84 L 137.46 125.76 C 136.26 125.66 135.21 126.55 135.12 127.75 C 135.02 128.94 135.91 129.99 137.11 130.09 Z M 137.95 130.14 L 139.18 130.37 C 140.36 130.59 141.49 129.82 141.71 128.64 C 141.93 127.46 141.15 126.33 139.98 126.10 L 138.75 125.87 C 137.57 125.65 136.44 126.43 136.21 127.61 C 135.99 128.79 136.77 129.92 137.95 130.14 Z M 139.07 130.34 L 140.17 130.61 C 141.34 130.89 142.51 130.17 142.78 129.01 C 143.06 127.85 142.35 126.68 141.19 126.40 L 140.08 126.13 C 138.92 125.85 137.75 126.57 137.47 127.73 C 137.19 128.89 137.91 130.06 139.07 130.34 Z M 140.13 130.58 L 141.00 130.81 C 142.15 131.12 143.32 130.43 143.63 129.29 C 143.93 128.14 143.25 126.96 142.10 126.66 L 141.23 126.43 C 140.09 126.12 138.91 126.80 138.60 127.95 C 138.30 129.10 138.98 130.28 140.13 130.58 Z M 140.97 130.79 L 141.88 131.04 C 143.01 131.36 144.19 130.70 144.51 129.57 C 144.83 128.44 144.17 127.26 143.04 126.94 L 142.13 126.68 C 141.00 126.36 139.82 127.02 139.50 128.16 C 139.18 129.29 139.84 130.47 140.97 130.79 Z M 141.86 131.02 L 142.80 131.29 C 143.92 131.62 145.09 130.98 145.42 129.86 C 145.75 128.75 145.11 127.57 143.99 127.24 L 143.05 126.96 C 141.93 126.63 140.76 127.27 140.43 128.39 C 140.10 129.51 140.74 130.69 141.86 131.02 Z M 142.78 131.27 L 143.75 131.57 C 144.85 131.90 146.03 131.28 146.36 130.17 C 146.70 129.07 146.08 127.89 144.97 127.56 L 144.01 127.26 C 142.90 126.92 141.73 127.55 141.39 128.66 C 141.05 129.76 141.68 130.93 142.78 131.27 Z M 143.74 131.54 L 144.72 131.85 C 145.82 132.20 146.99 131.59 147.33 130.49 C 147.67 129.40 147.06 128.23 145.97 127.89 L 144.98 127.58 C 143.88 127.24 142.72 127.85 142.38 128.94 C 142.03 130.04 142.64 131.20 143.74 131.54 Z M 144.72 131.83 L 145.72 132.15 C 146.81 132.50 147.96 131.90 148.31 130.81 C 148.66 129.73 148.06 128.57 146.97 128.23 L 145.97 127.91 C 144.89 127.56 143.73 128.16 143.38 129.24 C 143.04 130.33 143.64 131.49 144.72 131.83 Z M 145.72 132.13 L 146.73 132.46 C 147.81 132.81 148.96 132.22 149.30 131.14 C 149.65 130.07 149.06 128.92 147.99 128.57 L 146.97 128.25 C 145.90 127.90 144.75 128.49 144.40 129.56 C 144.06 130.64 144.65 131.79 145.72 132.13 Z M 146.74 132.44 L 147.76 132.77 C 148.82 133.12 149.96 132.54 150.31 131.47 C 150.65 130.41 150.07 129.27 149.01 128.92 L 147.99 128.59 C 146.92 128.25 145.78 128.83 145.44 129.89 C 145.09 130.95 145.67 132.10 146.74 132.44 Z M 147.76 132.76 L 147.94 132.82 C 148.99 133.16 150.13 132.58 150.47 131.53 C 150.82 130.47 150.24 129.33 149.18 128.99 L 149.00 128.93 C 147.94 128.59 146.81 129.17 146.47 130.22 C 146.12 131.28 146.70 132.42 147.76 132.76 Z"
      fill="black"
      fill-rule="nonzero" /><path d="M 143.33 184.67 L 142.09 185.03 C 140.98 185.36 140.34 186.53 140.67 187.65 C 141.00 188.76 142.17 189.40 143.28 189.07 L 144.52 188.71 C 145.64 188.38 146.28 187.21 145.95 186.09 C 145.62 184.98 144.45 184.34 143.33 184.67 Z M 142.07 185.01 L 140.87 185.37 C 139.74 185.72 139.10 186.91 139.44 188.04 C 139.79 189.17 140.98 189.80 142.11 189.46 L 143.31 189.10 C 144.44 188.75 145.07 187.56 144.73 186.43 C 144.39 185.30 143.20 184.67 142.07 185.01 Z M 140.82 185.36 L 139.69 185.72 C 138.56 186.09 137.93 187.31 138.30 188.45 C 138.67 189.59 139.89 190.21 141.03 189.84 L 142.15 189.48 C 143.29 189.11 143.91 187.89 143.55 186.75 C 143.18 185.61 141.96 184.99 140.82 185.36 Z M 139.62 185.72 L 138.60 186.08 C 137.46 186.49 136.87 187.75 137.28 188.89 C 137.69 190.03 138.95 190.62 140.09 190.21 L 141.10 189.85 C 142.24 189.44 142.84 188.18 142.43 187.04 C 142.02 185.90 140.76 185.31 139.62 185.72 Z M 138.48 186.10 L 137.62 186.46 C 136.48 186.94 135.95 188.24 136.43 189.37 C 136.91 190.51 138.21 191.04 139.35 190.56 L 140.21 190.20 C 141.34 189.72 141.87 188.41 141.40 187.28 C 140.92 186.15 139.61 185.62 138.48 186.10 Z M 137.41 186.53 L 136.74 186.89 C 135.64 187.48 135.23 188.85 135.82 189.94 C 136.41 191.04 137.78 191.45 138.87 190.86 L 139.55 190.49 C 140.65 189.90 141.06 188.54 140.47 187.44 C 139.88 186.35 138.51 185.94 137.41 186.53 Z M 136.37 187.10 L 135.92 187.46 C 134.94 188.25 134.78 189.69 135.57 190.67 C 136.37 191.65 137.80 191.81 138.78 191.02 L 139.24 190.65 C 140.22 189.86 140.37 188.42 139.58 187.44 C 138.79 186.46 137.35 186.31 136.37 187.10 Z M 135.19 188.44 L 134.99 188.97 C 134.55 190.16 135.16 191.49 136.35 191.93 C 137.54 192.38 138.87 191.77 139.31 190.58 L 139.51 190.04 C 139.95 188.85 139.35 187.52 138.15 187.08 C 136.96 186.64 135.64 187.24 135.19 188.44 Z M 135.20 191.00 L 135.56 191.58 C 136.24 192.66 137.67 192.98 138.74 192.30 C 139.82 191.62 140.15 190.20 139.47 189.12 L 139.10 188.54 C 138.42 187.47 137.00 187.14 135.92 187.82 C 134.84 188.50 134.52 189.93 135.20 191.00 Z M 136.29 192.30 L 137.11 192.82 C 138.19 193.50 139.62 193.18 140.30 192.10 C 140.98 191.02 140.65 189.59 139.57 188.91 L 138.74 188.39 C 137.66 187.72 136.24 188.04 135.56 189.12 C 134.88 190.20 135.21 191.62 136.29 192.30 Z M 137.52 193.03 L 138.66 193.46 C 139.85 193.92 141.19 193.32 141.64 192.13 C 142.10 190.94 141.50 189.60 140.31 189.15 L 139.17 188.71 C 137.98 188.26 136.64 188.85 136.18 190.04 C 135.73 191.24 136.33 192.57 137.52 193.03 Z M 138.92 193.54 L 140.11 193.84 C 141.34 194.15 142.59 193.40 142.91 192.17 C 143.22 190.93 142.47 189.68 141.23 189.37 L 140.05 189.07 C 138.81 188.76 137.56 189.51 137.25 190.74 C 136.94 191.98 137.69 193.23 138.92 193.54 Z M 140.30 193.86 L 141.28 194.02 C 142.53 194.23 143.70 193.38 143.91 192.13 C 144.11 190.89 143.27 189.71 142.02 189.51 L 141.04 189.35 C 139.79 189.14 138.62 189.99 138.41 191.23 C 138.21 192.48 139.05 193.66 140.30 193.86 Z M 141.43 194.01 L 142.43 194.11 C 143.67 194.23 144.78 193.32 144.90 192.08 C 145.01 190.83 144.10 189.73 142.86 189.61 L 141.87 189.52 C 140.62 189.40 139.52 190.31 139.40 191.55 C 139.28 192.79 140.19 193.89 141.43 194.01 Z M 142.57 194.09 L 143.57 194.13 C 144.81 194.17 145.84 193.21 145.88 191.98 C 145.93 190.74 144.96 189.71 143.73 189.67 L 142.73 189.63 C 141.49 189.59 140.46 190.55 140.42 191.78 C 140.37 193.01 141.34 194.05 142.57 194.09 Z M 143.69 194.10 L 144.70 194.08 C 145.92 194.06 146.89 193.05 146.86 191.83 C 146.84 190.62 145.83 189.65 144.62 189.67 L 143.61 189.69 C 142.39 189.72 141.43 190.72 141.45 191.94 C 141.47 193.15 142.48 194.12 143.69 194.10 Z M 144.81 194.05 L 145.81 193.98 C 147.01 193.89 147.91 192.86 147.83 191.66 C 147.75 190.46 146.71 189.55 145.51 189.64 L 144.51 189.71 C 143.31 189.79 142.41 190.83 142.49 192.03 C 142.57 193.23 143.61 194.13 144.81 194.05 Z M 145.91 193.94 L 146.90 193.82 C 148.08 193.68 148.92 192.62 148.78 191.44 C 148.64 190.27 147.58 189.43 146.40 189.56 L 145.41 189.68 C 144.24 189.82 143.39 190.88 143.53 192.06 C 143.67 193.23 144.73 194.07 145.91 193.94 Z M 146.99 193.76 L 147.99 193.60 C 149.14 193.41 149.91 192.33 149.73 191.19 C 149.54 190.05 148.47 189.27 147.32 189.46 L 146.32 189.62 C 145.17 189.81 144.40 190.88 144.58 192.03 C 144.77 193.17 145.85 193.94 146.99 193.76 Z M 148.06 193.52 L 149.05 193.32 C 150.15 193.10 150.86 192.03 150.64 190.93 C 150.42 189.82 149.34 189.11 148.24 189.34 L 147.26 189.53 C 146.16 189.76 145.44 190.83 145.67 191.93 C 145.89 193.03 146.96 193.74 148.06 193.52 Z M 149.10 193.25 L 150.07 193.02 C 151.13 192.77 151.79 191.71 151.54 190.65 C 151.29 189.59 150.23 188.93 149.17 189.18 L 148.20 189.41 C 147.13 189.66 146.48 190.72 146.73 191.78 C 146.97 192.84 148.04 193.50 149.10 193.25 Z M 150.10 192.95 L 151.05 192.70 C 152.08 192.44 152.69 191.40 152.43 190.37 C 152.16 189.35 151.12 188.74 150.10 189.00 L 149.14 189.25 C 148.11 189.51 147.50 190.56 147.77 191.58 C 148.03 192.60 149.07 193.22 150.10 192.95 Z M 151.06 192.64 L 152.02 192.38 C 153.00 192.11 153.58 191.09 153.31 190.10 C 153.04 189.12 152.02 188.54 151.04 188.81 L 150.09 189.07 C 149.10 189.34 148.52 190.36 148.79 191.34 C 149.06 192.33 150.08 192.91 151.06 192.64 Z M 152.01 192.33 L 152.57 192.17 C 153.53 191.90 154.09 190.91 153.82 189.95 C 153.55 188.99 152.56 188.43 151.60 188.70 L 151.04 188.86 C 150.08 189.12 149.52 190.12 149.79 191.08 C 150.06 192.04 151.05 192.60 152.01 192.33 Z"
      fill="black"
      fill-rule="nonzero" /></svg>