<svg xmlns="http://www.w3.org/2000/svg" width="300" height="300" viewBox="0 0 300 300">
<path d="M 96.39 137.85 L 95.99 138.66 C 95.56 139.51 95.91 140.55 96.77 140.97 C 97.62 141.40 98.66 141.05 99.08 140.20 L 99.48 139.39 C 99.91 138.53 99.56 137.50 98.71 137.07 C 97.85 136.65 96.82 137.00 96.39 137.85 Z M 95.97 138.67 L 95.56 139.51 C 95.15 140.37 95.51 141.41 96.38 141.83 C 97.24 142.25 98.28 141.89 98.70 141.02 L 99.10 140.18 C 99.52 139.32 99.16 138.28 98.29 137.86 C 97.43 137.44 96.39 137.80 95.97 138.67 Z M 95.54 139.54 L 95.13 140.44 C 94.73 141.32 95.12 142.36 96.00 142.76 C 96.88 143.16 97.92 142.77 98.32 141.89 L 98.73 140.99 C 99.13 140.11 98.74 139.07 97.86 138.67 C 96.98 138.27 95.94 138.66 95.54 139.54 Z M 95.10 140.48 L 94.68 141.47 C 94.30 142.37 94.72 143.40 95.62 143.78 C 96.52 144.16 97.55 143.74 97.93 142.84 L 98.35 141.85 C 98.73 140.95 98.31 139.91 97.41 139.54 C 96.51 139.16 95.47 139.58 95.10 140.48 Z M 94.65 141.52 L 94.26 142.53 C 93.90 143.45 94.36 144.47 95.28 144.83 C 96.19 145.18 97.22 144.72 97.57 143.81 L 97.96 142.79 C 98.32 141.88 97.86 140.85 96.94 140.50 C 96.03 140.14 95.00 140.60 94.65 141.52 Z M 94.23 142.57 L 93.90 143.51 C 93.56 144.43 94.05 145.46 94.97 145.79 C 95.90 146.12 96.93 145.64 97.26 144.71 L 97.60 143.77 C 97.93 142.84 97.45 141.82 96.52 141.49 C 95.59 141.15 94.57 141.64 94.23 142.57 Z M 93.88 143.53 L 93.54 144.51 C 93.22 145.45 93.72 146.47 94.66 146.79 C 95.60 147.11 96.62 146.61 96.94 145.67 L 97.28 144.69 C 97.60 143.75 97.10 142.73 96.16 142.41 C 95.22 142.09 94.20 142.59 93.88 143.53 Z M 93.53 144.52 L 93.20 145.52 C 92.89 146.46 93.40 147.48 94.35 147.80 C 95.29 148.11 96.31 147.60 96.63 146.65 L 96.95 145.66 C 97.27 144.71 96.75 143.69 95.81 143.38 C 94.86 143.07 93.84 143.58 93.53 144.52 Z M 93.19 145.53 L 92.87 146.50 C 92.57 147.45 93.09 148.47 94.04 148.78 C 94.99 149.09 96.02 148.57 96.32 147.62 L 96.64 146.64 C 96.95 145.69 96.42 144.67 95.47 144.36 C 94.52 144.05 93.50 144.57 93.19 145.53 Z M 92.86 146.50 L 92.57 147.42 C 92.26 148.38 92.79 149.41 93.75 149.71 C 94.71 150.02 95.73 149.49 96.04 148.53 L 96.33 147.61 C 96.64 146.65 96.11 145.63 95.15 145.32 C 94.19 145.02 93.17 145.54 92.86 146.50 Z M 92.56 147.42 L 92.24 148.42 C 91.93 149.38 92.46 150.41 93.43 150.72 C 94.39 151.03 95.42 150.50 95.73 149.53 L 96.05 148.54 C 96.35 147.57 95.82 146.55 94.86 146.24 C 93.90 145.93 92.87 146.46 92.56 147.42 Z M 92.24 148.41 L 91.90 149.46 C 91.59 150.43 92.11 151.46 93.08 151.77 C 94.04 152.09 95.07 151.56 95.39 150.60 L 95.73 149.54 C 96.04 148.58 95.51 147.54 94.55 147.23 C 93.59 146.92 92.55 147.45 92.24 148.41 Z M 91.90 149.45 L 91.59 150.37 C 91.27 151.33 91.80 152.37 92.76 152.69 C 93.72 153.01 94.76 152.49 95.08 151.53 L 95.38 150.61 C 95.70 149.65 95.18 148.61 94.22 148.29 C 93.26 147.97 92.22 148.49 91.90 149.45 Z M 91.60 150.35 L 91.31 151.20 C 90.98 152.16 91.49 153.21 92.45 153.54 C 93.41 153.86 94.46 153.35 94.79 152.39 L 95.08 151.54 C 95.40 150.58 94.89 149.54 93.93 149.21 C 92.97 148.88 91.93 149.39 91.60 150.35 Z M 91.31 151.19 L 91.01 152.04 C 90.68 152.99 91.18 154.04 92.14 154.38 C 93.10 154.72 94.15 154.22 94.48 153.26 L 94.78 152.41 C 95.12 151.45 94.62 150.40 93.66 150.06 C 92.70 149.72 91.65 150.23 91.31 151.19 Z M 91.02 152.02 L 90.69 152.92 C 90.35 153.88 90.84 154.94 91.80 155.28 C 92.76 155.63 93.81 155.13 94.16 154.17 L 94.48 153.27 C 94.83 152.31 94.33 151.26 93.37 150.91 C 92.42 150.57 91.36 151.06 91.02 152.02 Z M 90.69 152.91 L 90.35 153.85 C 90.00 154.80 90.49 155.86 91.45 156.21 C 92.40 156.56 93.46 156.07 93.81 155.12 L 94.15 154.18 C 94.50 153.23 94.01 152.17 93.06 151.82 C 92.10 151.47 91.04 151.96 90.69 152.91 Z M 90.35 153.84 L 89.99 154.81 C 89.63 155.77 90.12 156.83 91.08 157.19 C 92.03 157.54 93.10 157.05 93.45 156.10 L 93.81 155.12 C 94.17 154.17 93.68 153.11 92.72 152.75 C 91.77 152.40 90.70 152.88 90.35 153.84 Z M 89.99 154.81 L 89.64 155.75 C 89.28 156.70 89.77 157.77 90.72 158.12 C 91.68 158.48 92.75 157.99 93.10 157.04 L 93.45 156.10 C 93.81 155.14 93.32 154.08 92.37 153.72 C 91.41 153.37 90.34 153.85 89.99 154.81 Z M 89.64 155.74 L 89.30 156.64 C 88.94 157.60 89.42 158.67 90.38 159.03 C 91.34 159.38 92.40 158.90 92.76 157.94 L 93.10 157.04 C 93.46 156.09 92.98 155.02 92.02 154.66 C 91.06 154.30 90.00 154.79 89.64 155.74 Z M 89.30 156.64 L 88.95 157.57 C 88.58 158.52 89.06 159.59 90.02 159.95 C 90.97 160.32 92.04 159.84 92.41 158.88 L 92.76 157.95 C 93.13 157.00 92.65 155.93 91.69 155.56 C 90.73 155.20 89.66 155.68 89.30 156.64 Z M 88.95 157.55 L 88.58 158.51 C 88.21 159.46 88.68 160.54 89.64 160.91 C 90.59 161.28 91.66 160.80 92.03 159.85 L 92.41 158.89 C 92.78 157.94 92.30 156.87 91.35 156.50 C 90.39 156.13 89.32 156.60 88.95 157.55 Z M 88.58 158.49 L 88.20 159.47 C 87.82 160.42 88.28 161.50 89.23 161.88 C 90.19 162.25 91.26 161.79 91.64 160.84 L 92.03 159.87 C 92.41 158.91 91.94 157.83 90.99 157.46 C 90.04 157.08 88.96 157.54 88.58 158.49 Z M 88.20 159.45 L 87.84 160.33 C 87.46 161.28 87.91 162.36 88.86 162.75 C 89.81 163.13 90.89 162.68 91.28 161.73 L 91.64 160.85 C 92.03 159.91 91.57 158.82 90.62 158.43 C 89.67 158.05 88.59 158.50 88.20 159.45 Z M 87.85 160.31 L 87.47 161.21 C 87.08 162.15 87.53 163.24 88.47 163.64 C 89.42 164.03 90.50 163.59 90.90 162.64 L 91.27 161.75 C 91.67 160.80 91.22 159.71 90.28 159.32 C 89.33 158.92 88.24 159.37 87.85 160.31 Z M 87.48 161.19 L 87.09 162.11 C 86.69 163.05 87.12 164.14 88.07 164.55 C 89.01 164.95 90.10 164.51 90.50 163.57 L 90.89 162.65 C 91.30 161.71 90.86 160.62 89.92 160.22 C 88.97 159.81 87.88 160.25 87.48 161.19 Z M 87.09 162.10 L 86.68 163.04 C 86.27 163.98 86.70 165.07 87.64 165.48 C 88.58 165.89 89.68 165.46 90.09 164.52 L 90.50 163.58 C 90.91 162.64 90.48 161.55 89.54 161.14 C 88.60 160.73 87.50 161.16 87.09 162.10 Z M 86.69 163.03 L 86.26 164.00 C 85.84 164.93 86.27 166.03 87.20 166.45 C 88.14 166.86 89.24 166.44 89.65 165.50 L 90.08 164.53 C 90.50 163.60 90.08 162.50 89.14 162.08 C 88.20 161.67 87.10 162.09 86.69 163.03 Z M 86.26 163.99 L 85.86 164.88 C 85.44 165.82 85.86 166.92 86.79 167.34 C 87.73 167.76 88.82 167.34 89.25 166.41 L 89.65 165.51 C 90.07 164.58 89.65 163.48 88.72 163.05 C 87.78 162.63 86.68 163.05 86.26 163.99 Z M 85.86 164.87 L 85.45 165.78 C 85.02 166.71 85.43 167.82 86.37 168.24 C 87.30 168.67 88.40 168.26 88.83 167.33 L 89.24 166.42 C 89.67 165.49 89.26 164.38 88.32 163.96 C 87.39 163.53 86.29 163.94 85.86 164.87 Z M 85.45 165.77 L 85.03 166.69 C 84.60 167.62 85.00 168.72 85.93 169.15 C 86.86 169.59 87.96 169.18 88.40 168.25 L 88.82 167.34 C 89.25 166.41 88.85 165.30 87.92 164.87 C 86.99 164.44 85.89 164.84 85.45 165.77 Z M 85.03 166.67 L 84.60 167.59 C 84.16 168.52 84.56 169.62 85.48 170.06 C 86.41 170.50 87.52 170.11 87.96 169.18 L 88.39 168.26 C 88.83 167.34 88.43 166.23 87.51 165.79 C 86.58 165.35 85.47 165.75 85.03 166.67 Z M 84.61 167.57 L 84.17 168.48 C 83.72 169.40 84.11 170.51 85.03 170.96 C 85.95 171.41 87.06 171.02 87.51 170.10 L 87.95 169.19 C 88.40 168.27 88.01 167.16 87.09 166.71 C 86.17 166.27 85.05 166.65 84.61 167.57 Z M 84.18 168.46 L 83.73 169.36 C 83.27 170.28 83.65 171.40 84.57 171.85 C 85.49 172.31 86.60 171.93 87.06 171.01 L 87.50 170.11 C 87.96 169.20 87.58 168.08 86.67 167.63 C 85.75 167.17 84.63 167.54 84.18 168.46 Z M 83.74 169.34 L 83.27 170.26 C 82.81 171.17 83.17 172.29 84.08 172.76 C 85.00 173.22 86.12 172.86 86.58 171.95 L 87.05 171.03 C 87.51 170.12 87.15 169.00 86.24 168.53 C 85.32 168.07 84.21 168.43 83.74 169.34 Z M 83.28 170.24 L 82.82 171.13 C 82.34 172.04 82.69 173.16 83.60 173.64 C 84.51 174.11 85.63 173.76 86.11 172.85 L 86.57 171.96 C 87.05 171.05 86.70 169.93 85.79 169.46 C 84.88 168.98 83.76 169.33 83.28 170.24 Z M 82.83 171.12 L 82.36 171.99 C 81.87 172.90 82.21 174.02 83.12 174.51 C 84.02 174.99 85.14 174.65 85.63 173.75 L 86.10 172.87 C 86.58 171.97 86.24 170.84 85.34 170.36 C 84.43 169.87 83.31 170.21 82.83 171.12 Z M 82.36 171.98 L 81.89 172.85 C 81.40 173.75 81.73 174.87 82.63 175.36 C 83.53 175.85 84.66 175.52 85.15 174.62 L 85.62 173.76 C 86.11 172.86 85.78 171.73 84.88 171.24 C 83.98 170.75 82.85 171.08 82.36 171.98 Z M 81.90 172.84 L 81.42 173.70 C 80.93 174.59 81.25 175.72 82.15 176.22 C 83.04 176.71 84.17 176.39 84.67 175.49 L 85.14 174.63 C 85.64 173.74 85.31 172.61 84.42 172.11 C 83.52 171.62 82.39 171.94 81.90 172.84 Z M 81.43 173.69 L 80.94 174.56 C 80.44 175.45 80.76 176.58 81.65 177.08 C 82.55 177.58 83.68 177.26 84.18 176.37 L 84.66 175.50 C 85.16 174.61 84.84 173.48 83.95 172.98 C 83.06 172.48 81.93 172.80 81.43 173.69 Z M 80.95 174.55 L 80.45 175.42 C 79.95 176.31 80.26 177.44 81.15 177.95 C 82.04 178.45 83.17 178.14 83.68 177.25 L 84.17 176.38 C 84.67 175.49 84.36 174.36 83.47 173.85 C 82.58 173.35 81.45 173.66 80.95 174.55 Z M 80.46 175.41 L 79.96 176.28 C 79.45 177.17 79.75 178.30 80.64 178.81 C 81.53 179.32 82.66 179.01 83.17 178.13 L 83.67 177.26 C 84.18 176.37 83.88 175.24 82.99 174.73 C 82.10 174.22 80.97 174.53 80.46 175.41 Z M 79.97 176.27 L 79.46 177.13 C 78.94 178.01 79.24 179.14 80.12 179.66 C 81.00 180.18 82.14 179.89 82.65 179.00 L 83.16 178.14 C 83.68 177.26 83.38 176.13 82.50 175.61 C 81.62 175.09 80.49 175.38 79.97 176.27 Z M 79.47 177.11 L 78.96 177.97 C 78.43 178.84 78.71 179.98 79.59 180.51 C 80.47 181.03 81.60 180.75 82.13 179.88 L 82.64 179.02 C 83.17 178.14 82.89 177.01 82.01 176.48 C 81.14 175.95 80.00 176.24 79.47 177.11 Z M 78.97 177.95 L 78.44 178.80 C 77.91 179.67 78.17 180.81 79.04 181.35 C 79.91 181.89 81.05 181.62 81.59 180.75 L 82.12 179.89 C 82.65 179.03 82.39 177.89 81.52 177.35 C 80.65 176.81 79.51 177.08 78.97 177.95 Z M 78.45 178.79 L 77.92 179.64 C 77.37 180.50 77.62 181.64 78.49 182.19 C 79.35 182.73 80.49 182.48 81.04 181.62 L 81.58 180.77 C 82.12 179.90 81.87 178.76 81.01 178.21 C 80.14 177.67 79.00 177.92 78.45 178.79 Z M 77.93 179.62 L 77.38 180.47 C 76.83 181.32 77.07 182.47 77.93 183.02 C 78.78 183.57 79.93 183.33 80.48 182.47 L 81.03 181.63 C 81.58 180.77 81.34 179.63 80.48 179.08 C 79.62 178.52 78.48 178.77 77.93 179.62 Z M 77.39 180.46 L 76.84 181.29 C 76.28 182.14 76.52 183.29 77.37 183.85 C 78.22 184.41 79.37 184.17 79.93 183.32 L 80.47 182.48 C 81.03 181.63 80.80 180.48 79.94 179.93 C 79.09 179.37 77.95 179.60 77.39 180.46 Z M 76.84 181.29 L 76.30 182.12 C 75.74 182.97 75.97 184.11 76.82 184.67 C 77.67 185.23 78.81 185.00 79.37 184.15 L 79.92 183.32 C 80.48 182.47 80.25 181.33 79.40 180.77 C 78.55 180.20 77.41 180.44 76.84 181.29 Z M 76.30 182.12 L 75.75 182.95 C 75.19 183.80 75.42 184.94 76.27 185.50 C 77.12 186.06 78.26 185.83 78.82 184.98 L 79.37 184.15 C 79.93 183.30 79.70 182.16 78.85 181.60 C 78.00 181.03 76.86 181.27 76.30 182.12 Z M 75.75 182.95 L 75.19 183.80 C 74.63 184.64 74.86 185.79 75.71 186.35 C 76.56 186.91 77.70 186.67 78.26 185.83 L 78.82 184.98 C 79.38 184.13 79.15 182.99 78.30 182.43 C 77.45 181.87 76.31 182.10 75.75 182.95 Z M 75.19 183.79 L 74.64 184.63 C 74.07 185.48 74.30 186.62 75.15 187.18 C 76.00 187.74 77.14 187.51 77.70 186.67 L 78.26 185.83 C 78.82 184.98 78.59 183.84 77.74 183.28 C 76.90 182.72 75.76 182.95 75.19 183.79 Z M 74.64 184.62 L 74.09 185.45 C 73.52 186.30 73.74 187.44 74.59 188.00 C 75.43 188.57 76.57 188.35 77.14 187.50 L 77.69 186.67 C 78.26 185.83 78.04 184.69 77.19 184.12 C 76.35 183.56 75.21 183.78 74.64 184.62 Z M 74.10 185.44 L 73.54 186.26 C 72.97 187.10 73.18 188.24 74.02 188.81 C 74.85 189.38 76.00 189.17 76.57 188.33 L 77.13 187.51 C 77.70 186.68 77.49 185.53 76.65 184.96 C 75.81 184.39 74.67 184.60 74.10 185.44 Z M 73.55 186.24 L 72.98 187.05 C 72.40 187.88 72.60 189.03 73.43 189.61 C 74.26 190.19 75.41 189.99 75.99 189.16 L 76.56 188.35 C 77.14 187.52 76.94 186.37 76.11 185.79 C 75.28 185.21 74.13 185.41 73.55 186.24 Z M 73.00 187.03 L 72.41 187.85 C 71.82 188.67 72.01 189.82 72.83 190.41 C 73.65 191.00 74.80 190.81 75.39 189.99 L 75.98 189.17 C 76.57 188.35 76.38 187.21 75.56 186.61 C 74.73 186.02 73.59 186.21 73.00 187.03 Z M 72.42 187.84 L 71.83 188.64 C 71.24 189.46 71.41 190.60 72.23 191.20 C 73.05 191.80 74.19 191.62 74.79 190.81 L 75.38 190.00 C 75.98 189.18 75.80 188.04 74.98 187.44 C 74.17 186.84 73.02 187.02 72.42 187.84 Z M 71.84 188.63 L 71.25 189.44 C 70.65 190.25 70.82 191.39 71.63 192.00 C 72.44 192.60 73.59 192.42 74.19 191.61 L 74.78 190.81 C 75.39 190.00 75.21 188.85 74.40 188.25 C 73.59 187.65 72.44 187.82 71.84 188.63 Z M 71.25 189.44 L 70.66 190.24 C 70.05 191.05 70.23 192.20 71.04 192.80 C 71.85 193.40 72.99 193.23 73.60 192.41 L 74.19 191.61 C 74.79 190.80 74.62 189.65 73.81 189.05 C 73.00 188.45 71.85 188.62 71.25 189.44 Z M 70.65 190.24 L 70.05 191.06 C 69.45 191.88 69.63 193.02 70.44 193.62 C 71.26 194.22 72.40 194.04 73.00 193.23 L 73.60 192.41 C 74.20 191.59 74.02 190.45 73.21 189.85 C 72.39 189.26 71.25 189.43 70.65 190.24 Z M 70.05 191.07 L 69.44 191.91 C 68.84 192.73 69.02 193.87 69.84 194.46 C 70.66 195.05 71.80 194.87 72.39 194.06 L 73.00 193.22 C 73.59 192.40 73.41 191.26 72.60 190.67 C 71.78 190.07 70.64 190.26 70.05 191.07 Z M 69.44 191.91 L 68.83 192.75 C 68.24 193.56 68.43 194.70 69.24 195.29 C 70.06 195.88 71.20 195.70 71.79 194.89 L 72.39 194.05 C 72.98 193.24 72.80 192.10 71.98 191.51 C 71.17 190.92 70.03 191.10 69.44 191.91 Z M 68.84 192.74 L 68.25 193.55 C 67.66 194.37 67.84 195.51 68.65 196.10 C 69.47 196.69 70.61 196.51 71.20 195.70 L 71.79 194.89 C 72.38 194.07 72.20 192.93 71.38 192.34 C 70.57 191.75 69.43 191.93 68.84 192.74 Z M 68.26 193.54 L 67.69 194.31 C 67.09 195.12 67.27 196.26 68.08 196.86 C 68.89 197.46 70.03 197.28 70.63 196.47 L 71.19 195.70 C 71.79 194.89 71.62 193.75 70.80 193.16 C 69.99 192.56 68.85 192.73 68.26 193.54 Z M 67.71 194.30 L 67.08 195.13 C 66.47 195.93 66.63 197.08 67.44 197.68 C 68.24 198.28 69.38 198.12 69.98 197.32 L 70.61 196.49 C 71.22 195.69 71.06 194.55 70.25 193.94 C 69.45 193.34 68.31 193.50 67.71 194.30 Z M 67.10 195.11 L 66.45 195.94 C 65.84 196.74 65.98 197.88 66.77 198.49 C 67.57 199.11 68.71 198.96 69.32 198.17 L 69.97 197.34 C 70.58 196.55 70.44 195.41 69.64 194.79 C 68.85 194.18 67.71 194.32 67.10 195.11 Z M 66.47 195.93 L 65.86 196.70 C 65.24 197.48 65.37 198.62 66.16 199.24 C 66.94 199.86 68.08 199.73 68.70 198.94 L 69.31 198.18 C 69.93 197.40 69.80 196.26 69.01 195.64 C 68.23 195.01 67.09 195.15 66.47 195.93 Z M 65.87 196.69 L 65.30 197.41 C 64.68 198.19 64.81 199.33 65.59 199.95 C 66.37 200.57 67.51 200.44 68.13 199.66 L 68.70 198.95 C 69.32 198.17 69.19 197.03 68.41 196.41 C 67.63 195.78 66.49 195.91 65.87 196.69 Z M 65.30 197.41 L 64.71 198.15 C 64.10 198.93 64.23 200.07 65.01 200.69 C 65.79 201.31 66.92 201.17 67.54 200.39 L 68.13 199.65 C 68.75 198.87 68.61 197.74 67.83 197.12 C 67.05 196.50 65.92 196.63 65.30 197.41 Z M 64.72 198.16 L 64.12 198.91 C 63.51 199.68 63.64 200.82 64.41 201.43 C 65.19 202.05 66.32 201.92 66.94 201.14 L 67.54 200.39 C 68.15 199.61 68.02 198.48 67.25 197.86 C 66.47 197.25 65.34 197.38 64.72 198.16 Z M 64.13 198.90 L 63.49 199.70 C 62.87 200.47 62.99 201.60 63.76 202.22 C 64.53 202.84 65.66 202.72 66.29 201.95 L 66.93 201.15 C 67.55 200.38 67.43 199.25 66.66 198.63 C 65.89 198.01 64.76 198.13 64.13 198.90 Z M 63.51 199.68 L 62.85 200.48 C 62.23 201.24 62.33 202.37 63.10 203.00 C 63.86 203.62 64.99 203.52 65.62 202.75 L 66.27 201.96 C 66.90 201.20 66.79 200.07 66.03 199.44 C 65.27 198.81 64.14 198.92 63.51 199.68 Z M 62.87 200.46 L 62.24 201.21 C 61.60 201.96 61.70 203.09 62.45 203.72 C 63.20 204.36 64.33 204.27 64.96 203.52 L 65.60 202.77 C 66.23 202.02 66.14 200.89 65.39 200.25 C 64.64 199.62 63.51 199.71 62.87 200.46 Z M 62.26 201.19 L 61.59 201.96 C 60.94 202.69 61.01 203.82 61.75 204.47 C 62.49 205.12 63.61 205.04 64.26 204.31 L 64.94 203.54 C 65.59 202.80 65.51 201.67 64.78 201.03 C 64.04 200.38 62.91 200.45 62.26 201.19 Z M 61.62 201.93 L 60.92 202.68 C 60.26 203.40 60.30 204.53 61.02 205.19 C 61.74 205.86 62.87 205.81 63.53 205.09 L 64.23 204.34 C 64.89 203.62 64.85 202.49 64.13 201.83 C 63.41 201.16 62.29 201.21 61.62 201.93 Z M 60.97 202.64 L 60.26 203.36 C 59.57 204.06 59.58 205.18 60.27 205.86 C 60.97 206.55 62.09 206.54 62.77 205.85 L 63.48 205.13 C 64.17 204.44 64.17 203.32 63.47 202.63 C 62.78 201.94 61.66 201.95 60.97 202.64 Z M 60.34 203.30 L 59.55 204.01 C 58.83 204.66 58.78 205.78 59.43 206.50 C 60.08 207.22 61.19 207.27 61.91 206.62 L 62.70 205.91 C 63.42 205.26 63.47 204.14 62.82 203.42 C 62.17 202.70 61.06 202.65 60.34 203.30 Z M 59.68 203.92 L 58.88 204.53 C 58.11 205.11 57.96 206.21 58.55 206.97 C 59.13 207.74 60.22 207.89 60.99 207.31 L 61.79 206.71 C 62.56 206.13 62.71 205.03 62.12 204.26 C 61.54 203.49 60.45 203.34 59.68 203.92 Z M 59.06 204.42 L 58.23 204.91 C 57.41 205.39 57.13 206.45 57.61 207.28 C 58.09 208.10 59.15 208.38 59.98 207.90 L 60.81 207.42 C 61.64 206.93 61.92 205.87 61.43 205.04 C 60.95 204.22 59.89 203.94 59.06 204.42 Z M 58.47 204.81 L 57.55 205.17 C 56.67 205.53 56.24 206.53 56.59 207.41 C 56.94 208.29 57.94 208.72 58.83 208.37 L 59.74 208.00 C 60.63 207.65 61.06 206.65 60.70 205.77 C 60.35 204.88 59.35 204.45 58.47 204.81 Z M 57.84 205.10 L 56.78 205.32 C 55.86 205.52 55.27 206.42 55.46 207.34 C 55.66 208.27 56.56 208.86 57.48 208.66 L 58.54 208.44 C 59.46 208.25 60.05 207.34 59.86 206.42 C 59.66 205.50 58.76 204.91 57.84 205.10 Z M 57.15 205.30 L 56.14 205.29 C 55.21 205.28 54.44 206.03 54.43 206.97 C 54.43 207.90 55.17 208.66 56.11 208.67 L 57.12 208.68 C 58.05 208.69 58.81 207.94 58.82 207.01 C 58.83 206.08 58.08 205.31 57.15 205.30 Z M 56.67 205.40 L 55.82 205.11 C 54.95 204.81 54.00 205.27 53.70 206.14 C 53.39 207.02 53.86 207.97 54.73 208.27 L 55.58 208.56 C 56.45 208.87 57.40 208.40 57.70 207.53 C 58.01 206.66 57.54 205.70 56.67 205.40 Z M 56.47 205.55 L 55.88 204.93 C 55.25 204.28 54.21 204.25 53.55 204.88 C 52.89 205.51 52.87 206.56 53.50 207.22 L 54.08 207.83 C 54.71 208.49 55.76 208.51 56.42 207.88 C 57.08 207.25 57.10 206.21 56.47 205.55 Z M 56.19 205.46 L 55.84 204.59 C 55.50 203.76 54.55 203.36 53.72 203.69 C 52.89 204.03 52.49 204.98 52.83 205.81 L 53.19 206.69 C 53.52 207.52 54.47 207.92 55.30 207.58 C 56.13 207.24 56.53 206.29 56.19 205.46 Z M 55.90 204.88 L 55.68 203.84 C 55.50 202.97 54.66 202.42 53.80 202.59 C 52.94 202.77 52.38 203.61 52.56 204.48 L 52.77 205.52 C 52.95 206.38 53.79 206.94 54.65 206.76 C 55.52 206.58 56.07 205.74 55.90 204.88 Z M 55.67 203.93 L 55.57 203.22 C 55.45 202.36 54.65 201.76 53.79 201.89 C 52.93 202.01 52.34 202.81 52.46 203.67 L 52.56 204.38 C 52.69 205.24 53.49 205.83 54.34 205.71 C 55.20 205.59 55.80 204.79 55.67 203.93 Z"
      fill="black"
      fill-rule="nonzero" /><path d="M 107.76 155.28 L 108.68 154.44 C 109.33 153.83 109.37 152.81 108.77 152.16 C 108.16 151.50 107.14 151.46 106.49 152.07 L 105.57 152.91 C 104.92 153.52 104.88 154.54 105.48 155.19 C 106.09 155.85 107.11 155.89 107.76 155.28 Z M 108.55 154.56 L 109.37 153.96 C 110.10 153.42 110.25 152.40 109.72 151.68 C 109.19 150.96 108.17 150.80 107.44 151.33 L 106.62 151.94 C 105.89 152.47 105.74 153.49 106.27 154.22 C 106.81 154.94 107.82 155.10 108.55 154.56 Z M 108.74 154.25 L 109.38 154.12 C 110.27 153.94 110.85 153.07 110.66 152.18 C 110.48 151.29 109.61 150.72 108.73 150.90 L 108.08 151.04 C 107.19 151.22 106.62 152.09 106.80 152.97 C 106.98 153.86 107.85 154.43 108.74 154.25 Z M 107.82 153.62 L 108.18 154.03 C 108.79 154.71 109.84 154.77 110.53 154.15 C 111.21 153.54 111.27 152.49 110.66 151.80 L 110.29 151.40 C 109.68 150.72 108.63 150.66 107.94 151.27 C 107.26 151.89 107.20 152.94 107.82 153.62 Z M 107.77 153.33 L 107.98 154.18 C 108.21 155.09 109.13 155.64 110.04 155.42 C 110.95 155.19 111.50 154.27 111.28 153.36 L 111.06 152.50 C 110.83 151.59 109.91 151.04 109.00 151.27 C 108.10 151.50 107.54 152.42 107.77 153.33 Z M 107.91 153.93 L 108.02 155.18 C 108.11 156.13 108.95 156.83 109.90 156.75 C 110.85 156.66 111.55 155.82 111.46 154.87 L 111.35 153.62 C 111.26 152.66 110.42 151.96 109.47 152.05 C 108.52 152.14 107.82 152.98 107.91 153.93 Z M 107.99 155.09 L 108.04 156.32 C 108.08 157.29 108.89 158.04 109.86 158.01 C 110.83 157.97 111.58 157.15 111.55 156.18 L 111.50 154.96 C 111.46 153.99 110.64 153.23 109.67 153.27 C 108.71 153.31 107.95 154.13 107.99 155.09 Z M 108.02 156.29 L 108.04 157.28 C 108.06 158.26 108.87 159.04 109.85 159.01 C 110.83 158.99 111.61 158.18 111.59 157.20 L 111.56 156.21 C 111.54 155.23 110.73 154.46 109.75 154.48 C 108.77 154.50 108.00 155.31 108.02 156.29 Z M 108.03 157.26 L 108.04 158.30 C 108.05 159.29 108.86 160.08 109.85 160.07 C 110.83 160.05 111.62 159.24 111.61 158.26 L 111.60 157.22 C 111.59 156.23 110.78 155.44 109.79 155.46 C 108.81 155.47 108.02 156.28 108.03 157.26 Z M 108.03 158.29 L 108.03 159.34 C 108.03 160.33 108.84 161.14 109.84 161.13 C 110.83 161.13 111.63 160.32 111.63 159.33 L 111.63 158.27 C 111.62 157.28 110.81 156.48 109.82 156.48 C 108.83 156.48 108.02 157.29 108.03 158.29 Z M 108.02 159.32 L 108.01 160.36 C 108.01 161.36 108.82 162.17 109.82 162.18 C 110.82 162.18 111.63 161.38 111.64 160.37 L 111.64 159.34 C 111.65 158.34 110.84 157.52 109.84 157.52 C 108.84 157.51 108.02 158.32 108.02 159.32 Z M 108.00 160.34 L 107.99 161.33 C 107.97 162.33 108.78 163.16 109.79 163.17 C 110.80 163.19 111.63 162.38 111.64 161.37 L 111.65 160.39 C 111.66 159.38 110.86 158.55 109.85 158.54 C 108.84 158.53 108.01 159.33 108.00 160.34 Z M 107.97 161.31 L 107.95 162.33 C 107.93 163.35 108.73 164.19 109.75 164.21 C 110.76 164.24 111.60 163.43 111.63 162.42 L 111.65 161.39 C 111.67 160.38 110.87 159.53 109.86 159.51 C 108.84 159.49 108.00 160.29 107.97 161.31 Z M 107.94 162.30 L 107.90 163.46 C 107.86 164.48 108.65 165.34 109.67 165.38 C 110.69 165.42 111.55 164.63 111.59 163.61 L 111.63 162.45 C 111.67 161.43 110.88 160.57 109.86 160.53 C 108.84 160.49 107.98 161.29 107.94 162.30 Z M 107.90 163.43 L 107.84 164.41 C 107.78 165.43 108.56 166.31 109.58 166.37 C 110.60 166.43 111.47 165.65 111.54 164.63 L 111.59 163.64 C 111.65 162.62 110.88 161.75 109.85 161.69 C 108.83 161.63 107.96 162.40 107.90 163.43 Z M 107.83 164.37 L 107.76 165.25 C 107.68 166.27 108.45 167.17 109.47 167.25 C 110.49 167.33 111.39 166.57 111.47 165.55 L 111.54 164.67 C 111.62 163.65 110.86 162.75 109.83 162.67 C 108.81 162.59 107.92 163.35 107.83 164.37 Z M 107.76 165.22 L 107.68 166.09 C 107.58 167.12 108.33 168.02 109.36 168.12 C 110.38 168.22 111.29 167.47 111.39 166.44 L 111.47 165.58 C 111.57 164.55 110.82 163.64 109.79 163.54 C 108.77 163.45 107.86 164.20 107.76 165.22 Z M 107.67 166.07 L 107.57 167.04 C 107.47 168.07 108.21 168.99 109.24 169.09 C 110.27 169.20 111.18 168.46 111.29 167.43 L 111.39 166.46 C 111.50 165.43 110.75 164.52 109.73 164.41 C 108.70 164.30 107.78 165.05 107.67 166.07 Z M 107.57 167.03 L 107.46 168.02 C 107.35 169.05 108.09 169.98 109.12 170.09 C 110.15 170.20 111.08 169.46 111.19 168.43 L 111.30 167.44 C 111.41 166.41 110.66 165.48 109.64 165.37 C 108.61 165.26 107.68 166.00 107.57 167.03 Z M 107.45 168.02 L 107.34 169.04 C 107.23 170.07 107.98 171.00 109.01 171.12 C 110.04 171.23 110.97 170.48 111.08 169.45 L 111.19 168.43 C 111.31 167.40 110.56 166.47 109.53 166.36 C 108.50 166.24 107.57 166.99 107.45 168.02 Z M 107.34 169.05 L 107.23 170.04 C 107.12 171.07 107.87 172.00 108.91 172.11 C 109.94 172.22 110.87 171.47 110.98 170.44 L 111.09 169.44 C 111.20 168.41 110.45 167.48 109.41 167.37 C 108.38 167.26 107.45 168.01 107.34 169.05 Z M 107.23 170.05 L 107.13 171.04 C 107.02 172.08 107.78 173.01 108.82 173.11 C 109.85 173.22 110.78 172.46 110.89 171.42 L 110.99 170.43 C 111.09 169.39 110.34 168.46 109.30 168.36 C 108.26 168.25 107.33 169.01 107.23 170.05 Z M 107.12 171.05 L 107.02 172.05 C 106.92 173.10 107.68 174.02 108.73 174.12 C 109.77 174.22 110.70 173.46 110.80 172.42 L 110.89 171.41 C 110.99 170.37 110.23 169.45 109.19 169.34 C 108.15 169.24 107.22 170.01 107.12 171.05 Z M 107.02 172.07 L 106.93 173.07 C 106.83 174.11 107.60 175.04 108.65 175.13 C 109.69 175.23 110.62 174.46 110.71 173.41 L 110.80 172.41 C 110.90 171.36 110.13 170.44 109.08 170.34 C 108.04 170.25 107.11 171.02 107.02 172.07 Z M 106.92 173.08 L 106.84 174.08 C 106.75 175.13 107.53 176.05 108.58 176.14 C 109.62 176.23 110.55 175.45 110.63 174.40 L 110.72 173.40 C 110.81 172.35 110.03 171.43 108.98 171.34 C 107.93 171.25 107.01 172.03 106.92 173.08 Z M 106.83 174.09 L 106.75 175.08 C 106.67 176.13 107.45 177.05 108.50 177.14 C 109.56 177.22 110.48 176.44 110.56 175.39 L 110.64 174.39 C 110.72 173.34 109.94 172.42 108.89 172.34 C 107.83 172.25 106.91 173.04 106.83 174.09 Z M 106.75 175.08 L 106.67 176.07 C 106.58 177.13 107.37 178.05 108.42 178.13 C 109.48 178.22 110.40 177.43 110.48 176.38 L 110.56 175.39 C 110.65 174.33 109.86 173.41 108.81 173.33 C 107.75 173.24 106.83 174.03 106.75 175.08 Z M 106.66 176.07 L 106.58 177.06 C 106.49 178.12 107.28 179.05 108.33 179.14 C 109.39 179.22 110.32 178.44 110.41 177.38 L 110.49 176.39 C 110.58 175.33 109.79 174.40 108.74 174.31 C 107.68 174.23 106.75 175.01 106.66 176.07 Z M 106.58 177.05 L 106.49 178.03 C 106.40 179.08 107.18 180.02 108.24 180.11 C 109.29 180.21 110.23 179.43 110.32 178.37 L 110.41 177.40 C 110.50 176.34 109.72 175.40 108.66 175.31 C 107.61 175.22 106.67 176.00 106.58 177.05 Z M 106.49 178.02 L 106.40 179.01 C 106.30 180.07 107.08 181.01 108.14 181.10 C 109.20 181.20 110.14 180.42 110.23 179.36 L 110.32 178.37 C 110.42 177.31 109.64 176.38 108.58 176.28 C 107.52 176.18 106.59 176.96 106.49 178.02 Z M 106.39 179.01 L 106.30 180.02 C 106.21 181.08 106.99 182.02 108.05 182.11 C 109.11 182.21 110.05 181.43 110.15 180.36 L 110.24 179.36 C 110.33 178.30 109.55 177.36 108.49 177.26 C 107.43 177.17 106.49 177.95 106.39 179.01 Z M 106.30 180.03 L 106.21 181.05 C 106.12 182.11 106.91 183.05 107.98 183.13 C 109.04 183.22 109.98 182.43 110.07 181.37 L 110.15 180.35 C 110.24 179.29 109.45 178.36 108.39 178.27 C 107.32 178.18 106.39 178.97 106.30 180.03 Z M 106.21 181.06 L 106.14 182.05 C 106.05 183.11 106.85 184.04 107.92 184.12 C 108.98 184.20 109.91 183.41 109.99 182.34 L 110.07 181.36 C 110.15 180.29 109.35 179.36 108.29 179.28 C 107.22 179.20 106.29 180.00 106.21 181.06 Z M 106.13 182.06 L 106.06 183.06 C 105.99 184.12 106.79 185.05 107.86 185.12 C 108.93 185.20 109.85 184.39 109.93 183.32 L 110.00 182.33 C 110.07 181.26 109.27 180.33 108.20 180.26 C 107.13 180.19 106.21 180.99 106.13 182.06 Z M 106.06 183.06 L 105.99 184.07 C 105.92 185.14 106.73 186.06 107.80 186.13 C 108.87 186.20 109.80 185.39 109.87 184.32 L 109.93 183.32 C 110.00 182.25 109.19 181.32 108.12 181.25 C 107.05 181.18 106.13 181.99 106.06 183.06 Z M 105.99 184.07 L 105.93 185.08 C 105.86 186.15 106.67 187.07 107.74 187.14 C 108.82 187.21 109.74 186.39 109.81 185.32 L 109.87 184.32 C 109.94 183.24 109.12 182.32 108.05 182.25 C 106.98 182.19 106.06 183.00 105.99 184.07 Z M 105.92 185.08 L 105.86 186.08 C 105.79 187.16 106.61 188.08 107.68 188.15 C 108.76 188.21 109.68 187.40 109.75 186.33 L 109.81 185.32 C 109.88 184.25 109.06 183.32 107.99 183.26 C 106.92 183.19 105.99 184.01 105.92 185.08 Z M 105.86 186.09 L 105.80 187.09 C 105.73 188.16 106.55 189.09 107.62 189.15 C 108.70 189.22 109.62 188.40 109.69 187.32 L 109.75 186.32 C 109.81 185.25 109.00 184.32 107.92 184.26 C 106.85 184.19 105.92 185.01 105.86 186.09 Z M 105.80 187.09 L 105.74 188.09 C 105.68 189.17 106.50 190.09 107.57 190.15 C 108.65 190.21 109.57 189.39 109.63 188.32 L 109.69 187.32 C 109.75 186.24 108.93 185.32 107.86 185.26 C 106.78 185.20 105.86 186.02 105.80 187.09 Z M 105.73 188.10 L 105.68 189.09 C 105.63 190.17 106.45 191.09 107.53 191.15 C 108.61 191.21 109.53 190.38 109.58 189.30 L 109.64 188.31 C 109.69 187.23 108.87 186.31 107.79 186.25 C 106.71 186.20 105.79 187.02 105.73 188.10 Z M 105.68 189.11 L 105.63 190.09 C 105.58 191.17 106.42 192.09 107.50 192.14 C 108.58 192.19 109.49 191.35 109.54 190.27 L 109.59 189.29 C 109.64 188.21 108.80 187.29 107.72 187.24 C 106.64 187.19 105.73 188.03 105.68 189.11 Z M 105.63 190.10 L 105.59 191.09 C 105.55 192.17 106.39 193.08 107.47 193.12 C 108.55 193.17 109.46 192.32 109.50 191.24 L 109.54 190.26 C 109.59 189.18 108.75 188.27 107.67 188.23 C 106.59 188.18 105.67 189.02 105.63 190.10 Z M 105.59 191.10 L 105.55 192.09 C 105.51 193.17 106.36 194.08 107.44 194.12 C 108.53 194.16 109.43 193.31 109.47 192.23 L 109.51 191.23 C 109.55 190.15 108.70 189.24 107.62 189.21 C 106.53 189.17 105.63 190.01 105.59 191.10 Z M 105.55 192.10 L 105.52 193.11 C 105.48 194.19 106.33 195.10 107.42 195.13 C 108.50 195.17 109.41 194.32 109.44 193.23 L 109.47 192.22 C 109.51 191.14 108.66 190.23 107.58 190.20 C 106.49 190.16 105.59 191.01 105.55 192.10 Z M 105.52 193.11 L 105.49 194.13 C 105.45 195.21 106.31 196.12 107.39 196.15 C 108.48 196.18 109.38 195.33 109.41 194.25 L 109.44 193.23 C 109.48 192.14 108.62 191.24 107.54 191.21 C 106.45 191.17 105.55 192.03 105.52 193.11 Z M 105.48 194.13 L 105.45 195.14 C 105.42 196.22 106.28 197.13 107.37 197.16 C 108.45 197.19 109.36 196.34 109.39 195.25 L 109.42 194.24 C 109.45 193.16 108.59 192.25 107.51 192.22 C 106.42 192.19 105.51 193.05 105.48 194.13 Z M 105.45 195.14 L 105.43 196.16 C 105.40 197.25 106.26 198.15 107.34 198.18 C 108.43 198.21 109.33 197.35 109.36 196.26 L 109.39 195.25 C 109.42 194.16 108.56 193.25 107.47 193.23 C 106.39 193.20 105.48 194.06 105.45 195.14 Z M 105.42 196.16 L 105.40 197.17 C 105.38 198.26 106.24 199.16 107.33 199.19 C 108.41 199.21 109.32 198.35 109.34 197.26 L 109.37 196.26 C 109.39 195.17 108.53 194.26 107.44 194.24 C 106.35 194.21 105.45 195.08 105.42 196.16 Z M 105.40 197.18 L 105.38 198.16 C 105.36 199.25 106.23 200.15 107.32 200.17 C 108.41 200.19 109.31 199.32 109.33 198.23 L 109.34 197.25 C 109.36 196.16 108.50 195.26 107.41 195.24 C 106.32 195.22 105.42 196.09 105.40 197.18 Z M 105.38 198.17 L 105.37 199.21 C 105.35 200.30 106.22 201.20 107.32 201.21 C 108.41 201.23 109.30 200.35 109.32 199.26 L 109.33 198.22 C 109.34 197.13 108.47 196.23 107.38 196.22 C 106.29 196.20 105.39 197.08 105.38 198.17 Z M 105.36 199.23 L 105.36 200.23 C 105.35 201.33 106.23 202.22 107.32 202.23 C 108.41 202.23 109.30 201.35 109.31 200.26 L 109.32 199.25 C 109.32 198.16 108.45 197.27 107.35 197.26 C 106.26 197.25 105.37 198.13 105.36 199.23 Z M 105.35 200.24 L 105.35 201.22 C 105.35 202.32 106.23 203.20 107.33 203.21 C 108.42 203.21 109.31 202.33 109.31 201.23 L 109.31 200.25 C 109.32 199.16 108.43 198.27 107.34 198.27 C 106.25 198.27 105.36 199.15 105.35 200.24 Z M 105.35 201.23 L 105.35 202.19 C 105.35 203.29 106.24 204.17 107.33 204.17 C 108.42 204.17 109.31 203.29 109.31 202.19 L 109.31 201.23 C 109.31 200.13 108.43 199.25 107.33 199.25 C 106.24 199.25 105.35 200.13 105.35 201.23 Z M 105.35 202.19 L 105.35 203.19 C 105.35 204.29 106.24 205.17 107.33 205.17 C 108.43 205.17 109.32 204.28 109.31 203.19 L 109.31 202.19 C 109.31 201.10 108.42 200.21 107.33 200.21 C 106.23 200.21 105.35 201.10 105.35 202.19 Z M 105.35 203.20 L 105.35 204.20 C 105.36 205.30 106.26 206.18 107.35 206.17 C 108.45 206.17 109.33 205.27 109.32 204.17 L 109.32 203.17 C 109.31 202.08 108.41 201.20 107.32 201.21 C 106.22 201.21 105.34 202.11 105.35 203.20 Z M 105.35 204.23 L 105.37 205.23 C 105.40 206.33 106.31 207.20 107.40 207.17 C 108.50 207.15 109.37 206.24 109.34 205.15 L 109.32 204.15 C 109.30 203.05 108.39 202.18 107.30 202.20 C 106.20 202.23 105.33 203.14 105.35 204.23 Z M 105.37 205.27 L 105.42 206.27 C 105.46 207.37 106.39 208.22 107.48 208.17 C 108.58 208.13 109.43 207.20 109.39 206.11 L 109.35 205.11 C 109.30 204.01 108.37 203.16 107.28 203.20 C 106.18 203.25 105.33 204.18 105.37 205.27 Z M 105.42 206.32 L 105.49 207.32 C 105.56 208.42 106.51 209.25 107.61 209.17 C 108.70 209.10 109.53 208.15 109.45 207.05 L 109.39 206.05 C 109.31 204.96 108.36 204.13 107.27 204.21 C 106.17 204.28 105.34 205.23 105.42 206.32 Z M 105.49 207.38 L 105.59 208.38 C 105.70 209.47 106.67 210.27 107.76 210.16 C 108.86 210.06 109.65 209.08 109.55 207.99 L 109.45 206.99 C 109.34 205.90 108.37 205.10 107.28 205.21 C 106.18 205.32 105.38 206.29 105.49 207.38 Z M 105.59 208.44 L 105.72 209.43 C 105.87 210.52 106.87 211.29 107.96 211.15 C 109.05 211.01 109.81 210.01 109.67 208.92 L 109.54 207.93 C 109.40 206.84 108.40 206.07 107.31 206.21 C 106.22 206.35 105.45 207.35 105.59 208.44 Z M 105.73 209.50 L 105.90 210.49 C 106.08 211.57 107.10 212.31 108.19 212.13 C 109.27 211.95 110.01 210.92 109.83 209.84 L 109.66 208.85 C 109.48 207.76 108.46 207.03 107.37 207.21 C 106.29 207.39 105.55 208.42 105.73 209.50 Z M 105.91 210.56 L 106.11 211.55 C 106.33 212.63 107.39 213.33 108.46 213.11 C 109.54 212.88 110.24 211.83 110.02 210.75 L 109.81 209.76 C 109.59 208.69 108.54 207.99 107.46 208.21 C 106.38 208.43 105.69 209.48 105.91 210.56 Z M 106.13 211.62 L 106.37 212.60 C 106.63 213.67 107.70 214.32 108.77 214.07 C 109.84 213.81 110.50 212.73 110.24 211.66 L 110.00 210.68 C 109.74 209.61 108.66 208.96 107.59 209.22 C 106.53 209.48 105.87 210.55 106.13 211.62 Z M 106.38 212.67 L 106.65 213.62 C 106.95 214.68 108.05 215.30 109.11 215.00 C 110.17 214.70 110.79 213.60 110.49 212.54 L 110.22 211.59 C 109.92 210.53 108.82 209.91 107.76 210.21 C 106.70 210.51 106.08 211.61 106.38 212.67 Z M 106.67 213.69 L 106.97 214.63 C 107.31 215.68 108.43 216.26 109.48 215.92 C 110.53 215.59 111.11 214.47 110.77 213.42 L 110.47 212.48 C 110.13 211.43 109.01 210.85 107.96 211.18 C 106.91 211.52 106.34 212.64 106.67 213.69 Z M 106.99 214.69 L 107.33 215.63 C 107.70 216.67 108.84 217.21 109.87 216.84 C 110.91 216.47 111.45 215.33 111.08 214.29 L 110.75 213.36 C 110.38 212.32 109.24 211.78 108.20 212.15 C 107.17 212.52 106.62 213.66 106.99 214.69 Z M 107.34 215.67 L 107.69 216.60 C 108.09 217.63 109.24 218.15 110.27 217.75 C 111.30 217.36 111.82 216.21 111.42 215.18 L 111.07 214.25 C 110.68 213.22 109.52 212.70 108.49 213.10 C 107.46 213.49 106.95 214.64 107.34 215.67 Z M 107.70 216.62 L 108.07 217.56 C 108.48 218.59 109.64 219.09 110.66 218.68 C 111.69 218.28 112.19 217.12 111.79 216.10 L 111.42 215.16 C 111.01 214.13 109.85 213.63 108.83 214.03 C 107.80 214.44 107.30 215.60 107.70 216.62 Z M 108.07 217.57 L 108.45 218.51 C 108.86 219.54 110.02 220.04 111.04 219.63 C 112.07 219.22 112.57 218.06 112.16 217.04 L 111.78 216.09 C 111.38 215.07 110.22 214.57 109.19 214.97 C 108.17 215.38 107.67 216.54 108.07 217.57 Z M 108.46 218.54 L 108.85 219.48 C 109.27 220.50 110.43 220.99 111.45 220.57 C 112.47 220.15 112.96 218.98 112.54 217.96 L 112.15 217.02 C 111.73 216.00 110.57 215.51 109.55 215.93 C 108.53 216.35 108.04 217.52 108.46 218.54 Z M 108.87 219.53 L 109.28 220.45 C 109.73 221.46 110.91 221.91 111.92 221.46 C 112.92 221.01 113.37 219.83 112.93 218.82 L 112.52 217.91 C 112.07 216.90 110.89 216.45 109.88 216.90 C 108.87 217.35 108.42 218.53 108.87 219.53 Z M 109.32 220.54 L 109.76 221.40 C 110.26 222.39 111.46 222.78 112.45 222.28 C 113.43 221.78 113.82 220.58 113.32 219.59 L 112.88 218.73 C 112.38 217.75 111.18 217.36 110.20 217.86 C 109.21 218.36 108.82 219.56 109.32 220.54 Z M 109.84 221.54 L 110.38 222.43 C 110.96 223.37 112.19 223.67 113.13 223.09 C 114.07 222.52 114.36 221.29 113.79 220.35 L 113.24 219.46 C 112.67 218.52 111.44 218.22 110.50 218.79 C 109.56 219.37 109.26 220.60 109.84 221.54 Z M 110.48 222.57 L 111.06 223.37 C 111.72 224.26 112.97 224.45 113.85 223.79 C 114.74 223.14 114.93 221.89 114.28 221.00 L 113.69 220.21 C 113.04 219.32 111.79 219.13 110.90 219.78 C 110.01 220.43 109.82 221.68 110.48 222.57 Z M 111.15 223.48 L 111.77 224.21 C 112.49 225.05 113.75 225.15 114.59 224.44 C 115.43 223.72 115.53 222.46 114.82 221.62 L 114.19 220.89 C 113.48 220.05 112.21 219.95 111.37 220.66 C 110.54 221.38 110.43 222.64 111.15 223.48 Z M 111.85 224.29 L 112.53 225.01 C 113.29 225.81 114.55 225.84 115.35 225.08 C 116.15 224.32 116.18 223.06 115.42 222.26 L 114.74 221.54 C 113.98 220.74 112.72 220.71 111.92 221.47 C 111.12 222.23 111.09 223.49 111.85 224.29 Z M 112.60 225.08 L 113.32 225.77 C 114.12 226.53 115.38 226.50 116.14 225.70 C 116.90 224.90 116.87 223.64 116.08 222.87 L 115.35 222.19 C 114.55 221.42 113.29 221.46 112.53 222.25 C 111.77 223.05 111.80 224.32 112.60 225.08 Z M 113.39 225.83 L 114.15 226.49 C 114.99 227.21 116.25 227.12 116.97 226.29 C 117.69 225.45 117.60 224.19 116.77 223.47 L 116.00 222.81 C 115.17 222.09 113.91 222.18 113.19 223.01 C 112.46 223.85 112.55 225.11 113.39 225.83 Z M 114.22 226.55 L 115.00 227.16 C 115.87 227.84 117.12 227.70 117.81 226.83 C 118.49 225.96 118.34 224.70 117.47 224.02 L 116.70 223.41 C 115.83 222.73 114.57 222.88 113.89 223.75 C 113.21 224.61 113.36 225.87 114.22 226.55 Z M 115.07 227.21 L 115.88 227.80 C 116.77 228.44 118.02 228.23 118.67 227.34 C 119.31 226.44 119.11 225.19 118.21 224.55 L 117.40 223.97 C 116.51 223.33 115.26 223.53 114.61 224.43 C 113.97 225.32 114.17 226.57 115.07 227.21 Z M 115.95 227.84 L 116.79 228.40 C 117.71 229.00 118.95 228.75 119.56 227.82 C 120.16 226.90 119.91 225.66 118.99 225.06 L 118.14 224.50 C 117.22 223.90 115.98 224.15 115.37 225.08 C 114.77 226.00 115.02 227.24 115.95 227.84 Z M 116.86 228.44 L 117.71 228.95 C 118.65 229.52 119.88 229.21 120.45 228.27 C 121.02 227.32 120.71 226.09 119.77 225.52 L 118.92 225.01 C 117.97 224.45 116.74 224.75 116.18 225.70 C 115.61 226.64 115.91 227.87 116.86 228.44 Z M 117.77 228.99 L 118.63 229.46 C 119.60 229.99 120.81 229.64 121.35 228.68 C 121.88 227.71 121.53 226.50 120.56 225.96 L 119.70 225.49 C 118.74 224.95 117.52 225.30 116.99 226.27 C 116.45 227.24 116.80 228.45 117.77 228.99 Z M 118.69 229.49 L 119.59 229.95 C 120.57 230.45 121.77 230.06 122.27 229.08 C 122.78 228.09 122.39 226.89 121.40 226.39 L 120.50 225.93 C 119.52 225.43 118.32 225.82 117.81 226.80 C 117.31 227.79 117.70 228.99 118.69 229.49 Z M 119.64 229.98 L 120.56 230.41 C 121.56 230.89 122.75 230.46 123.23 229.46 C 123.70 228.46 123.27 227.27 122.27 226.80 L 121.35 226.36 C 120.35 225.89 119.16 226.32 118.69 227.31 C 118.21 228.31 118.64 229.50 119.64 229.98 Z M 120.61 230.44 L 121.48 230.82 C 122.49 231.27 123.67 230.81 124.12 229.80 C 124.57 228.79 124.11 227.61 123.10 227.16 L 122.23 226.78 C 121.22 226.33 120.04 226.79 119.59 227.80 C 119.14 228.81 119.60 229.99 120.61 230.44 Z M 121.52 230.84 L 122.43 231.22 C 123.45 231.65 124.62 231.16 125.05 230.14 C 125.48 229.12 124.99 227.95 123.97 227.53 L 123.06 227.15 C 122.04 226.72 120.87 227.20 120.45 228.22 C 120.02 229.24 120.50 230.41 121.52 230.84 Z M 122.47 231.23 L 123.42 231.61 C 124.45 232.02 125.61 231.51 126.02 230.49 C 126.42 229.46 125.92 228.29 124.89 227.89 L 123.94 227.51 C 122.91 227.11 121.75 227.61 121.34 228.64 C 120.94 229.66 121.44 230.83 122.47 231.23 Z M 123.45 231.62 L 124.42 231.99 C 125.45 232.38 126.61 231.86 127.00 230.82 C 127.39 229.79 126.86 228.63 125.83 228.24 L 124.86 227.88 C 123.83 227.49 122.67 228.01 122.28 229.04 C 121.89 230.08 122.41 231.23 123.45 231.62 Z M 124.44 232.00 L 125.37 232.33 C 126.41 232.71 127.56 232.17 127.94 231.13 C 128.31 230.09 127.77 228.94 126.73 228.57 L 125.80 228.23 C 124.76 227.86 123.61 228.40 123.24 229.44 C 122.86 230.48 123.40 231.62 124.44 232.00 Z M 125.41 232.35 L 126.36 232.67 C 127.41 233.02 128.55 232.46 128.90 231.41 C 129.26 230.37 128.69 229.23 127.65 228.87 L 126.69 228.55 C 125.65 228.20 124.51 228.76 124.15 229.81 C 123.80 230.86 124.36 231.99 125.41 232.35 Z M 126.41 232.68 L 127.37 232.98 C 128.43 233.31 129.55 232.72 129.88 231.67 C 130.21 230.61 129.62 229.49 128.56 229.16 L 127.60 228.86 C 126.54 228.53 125.42 229.12 125.09 230.18 C 124.76 231.23 125.35 232.36 126.41 232.68 Z M 127.43 233.00 L 128.40 233.27 C 129.47 233.57 130.57 232.94 130.87 231.87 C 131.16 230.81 130.54 229.70 129.47 229.41 L 128.50 229.14 C 127.44 228.84 126.33 229.47 126.04 230.54 C 125.74 231.60 126.37 232.71 127.43 233.00 Z M 128.48 233.29 L 129.46 233.52 C 130.54 233.78 131.62 233.11 131.87 232.03 C 132.13 230.96 131.46 229.88 130.38 229.62 L 129.40 229.39 C 128.32 229.13 127.24 229.80 126.99 230.88 C 126.73 231.96 127.40 233.04 128.48 233.29 Z M 129.53 233.54 L 130.51 233.73 C 131.59 233.95 132.65 233.25 132.87 232.16 C 133.08 231.08 132.38 230.02 131.30 229.80 L 130.31 229.61 C 129.23 229.39 128.17 230.09 127.96 231.18 C 127.74 232.26 128.44 233.32 129.53 233.54 Z M 130.56 233.74 L 131.54 233.91 C 132.63 234.10 133.67 233.37 133.86 232.28 C 134.05 231.19 133.31 230.15 132.22 229.96 L 131.24 229.79 C 130.15 229.60 129.11 230.34 128.93 231.43 C 128.74 232.52 129.47 233.56 130.56 233.74 Z M 131.58 233.92 L 132.56 234.07 C 133.66 234.24 134.68 233.48 134.85 232.39 C 135.01 231.29 134.26 230.27 133.17 230.10 L 132.18 229.95 C 131.09 229.79 130.07 230.54 129.90 231.63 C 129.73 232.73 130.48 233.75 131.58 233.92 Z M 132.58 234.07 L 133.57 234.21 C 134.67 234.37 135.68 233.60 135.84 232.51 C 135.99 231.41 135.23 230.39 134.13 230.24 L 133.15 230.10 C 132.05 229.95 131.03 230.71 130.88 231.81 C 130.72 232.90 131.49 233.92 132.58 234.07 Z M 133.59 234.21 L 134.58 234.35 C 135.67 234.49 136.68 233.72 136.83 232.62 C 136.97 231.52 136.20 230.51 135.10 230.37 L 134.11 230.24 C 133.02 230.09 132.01 230.86 131.86 231.96 C 131.72 233.06 132.49 234.07 133.59 234.21 Z M 134.59 234.35 L 135.58 234.47 C 136.68 234.61 137.69 233.83 137.82 232.73 C 137.96 231.63 137.18 230.63 136.08 230.49 L 135.09 230.37 C 133.99 230.23 132.99 231.01 132.85 232.11 C 132.71 233.21 133.49 234.21 134.59 234.35 Z M 135.60 234.47 L 136.60 234.59 C 137.70 234.72 138.69 233.93 138.82 232.83 C 138.95 231.73 138.16 230.73 137.06 230.60 L 136.07 230.49 C 134.97 230.36 133.97 231.15 133.84 232.25 C 133.71 233.35 134.50 234.35 135.60 234.47 Z M 136.61 234.59 L 137.61 234.70 C 138.71 234.82 139.71 234.03 139.83 232.93 C 139.95 231.82 139.15 230.83 138.05 230.71 L 137.05 230.60 C 135.95 230.48 134.96 231.28 134.83 232.38 C 134.71 233.48 135.51 234.47 136.61 234.59 Z M 137.63 234.70 L 138.63 234.81 C 139.74 234.92 140.72 234.12 140.83 233.01 C 140.94 231.91 140.14 230.92 139.04 230.81 L 138.03 230.71 C 136.93 230.60 135.95 231.40 135.83 232.51 C 135.72 233.61 136.53 234.59 137.63 234.70 Z M 138.65 234.81 L 139.65 234.90 C 140.76 235.00 141.73 234.19 141.83 233.09 C 141.94 231.98 141.12 231.00 140.02 230.90 L 139.02 230.81 C 137.92 230.71 136.94 231.52 136.84 232.63 C 136.74 233.73 137.55 234.71 138.65 234.81 Z M 139.67 234.90 L 140.66 234.98 C 141.77 235.07 142.74 234.25 142.83 233.14 C 142.92 232.04 142.09 231.07 140.99 230.98 L 140.00 230.90 C 138.89 230.81 137.92 231.63 137.83 232.74 C 137.74 233.85 138.57 234.81 139.67 234.90 Z M 140.69 234.98 L 141.68 235.05 C 142.79 235.13 143.75 234.29 143.82 233.18 C 143.90 232.08 143.06 231.12 141.96 231.05 L 140.96 230.98 C 139.85 230.90 138.90 231.74 138.82 232.85 C 138.75 233.95 139.58 234.91 140.69 234.98 Z M 141.71 235.05 L 142.74 235.11 C 143.84 235.17 144.79 234.32 144.85 233.21 C 144.91 232.11 144.06 231.16 142.95 231.10 L 141.93 231.04 C 140.82 230.98 139.88 231.83 139.82 232.94 C 139.76 234.05 140.60 234.99 141.71 235.05 Z M 142.76 235.11 L 143.76 235.15 C 144.87 235.20 145.81 234.34 145.86 233.24 C 145.90 232.13 145.05 231.19 143.94 231.14 L 142.93 231.10 C 141.82 231.05 140.89 231.91 140.84 233.02 C 140.79 234.12 141.65 235.06 142.76 235.11 Z M 143.77 235.16 L 144.76 235.19 C 145.87 235.23 146.80 234.37 146.84 233.26 C 146.88 232.15 146.02 231.22 144.91 231.18 L 143.92 231.14 C 142.82 231.10 141.88 231.97 141.84 233.07 C 141.80 234.18 142.67 235.11 143.77 235.16 Z M 144.76 235.19 L 145.74 235.23 C 146.85 235.27 147.78 234.40 147.82 233.29 C 147.86 232.18 146.99 231.25 145.89 231.21 L 144.90 231.18 C 143.79 231.14 142.86 232.01 142.83 233.11 C 142.79 234.22 143.65 235.15 144.76 235.19 Z M 145.74 235.23 L 146.75 235.26 C 147.86 235.30 148.79 234.43 148.83 233.32 C 148.87 232.22 148.00 231.29 146.89 231.25 L 145.88 231.21 C 144.78 231.17 143.85 232.04 143.81 233.15 C 143.77 234.26 144.64 235.19 145.74 235.23 Z M 146.76 235.26 L 147.75 235.29 C 148.86 235.33 149.79 234.46 149.83 233.35 C 149.86 232.24 148.99 231.31 147.88 231.28 L 146.89 231.25 C 145.78 231.21 144.85 232.08 144.82 233.19 C 144.78 234.30 145.65 235.23 146.76 235.26 Z M 147.77 235.29 L 148.76 235.32 C 149.87 235.35 150.79 234.47 150.82 233.36 C 150.84 232.25 149.97 231.33 148.86 231.30 L 147.87 231.28 C 146.76 231.25 145.84 232.13 145.81 233.23 C 145.78 234.34 146.66 235.27 147.77 235.29 Z M 148.77 235.32 L 149.72 235.34 C 150.83 235.36 151.74 234.47 151.76 233.36 C 151.78 232.25 150.89 231.34 149.78 231.32 L 148.84 231.30 C 147.73 231.28 146.82 232.17 146.80 233.28 C 146.78 234.39 147.66 235.30 148.77 235.32 Z M 149.73 235.34 L 150.67 235.35 C 151.78 235.36 152.69 234.46 152.70 233.35 C 152.71 232.24 151.82 231.34 150.71 231.33 L 149.77 231.32 C 148.66 231.31 147.75 232.20 147.74 233.31 C 147.73 234.42 148.62 235.33 149.73 235.34 Z M 150.68 235.35 L 151.68 235.35 C 152.79 235.35 153.69 234.46 153.69 233.35 C 153.70 232.24 152.80 231.33 151.69 231.33 L 150.70 231.33 C 149.59 231.32 148.69 232.22 148.68 233.33 C 148.68 234.44 149.57 235.34 150.68 235.35 Z M 151.68 235.35 L 152.76 235.35 C 153.87 235.35 154.77 234.45 154.77 233.34 C 154.77 232.23 153.87 231.33 152.76 231.33 L 151.69 231.33 C 150.58 231.33 149.67 232.23 149.67 233.34 C 149.67 234.45 150.57 235.35 151.68 235.35 Z M 152.76 235.35 L 153.79 235.35 C 154.90 235.35 155.80 234.45 155.80 233.34 C 155.80 232.23 154.90 231.33 153.79 231.33 L 152.76 231.33 C 151.65 231.33 150.75 232.23 150.75 233.34 C 150.75 234.45 151.65 235.35 152.76 235.35 Z M 153.79 235.35 L 154.82 235.35 C 155.93 235.35 156.83 234.45 156.83 233.34 C 156.83 232.23 155.93 231.33 154.82 231.33 L 153.79 231.33 C 152.68 231.33 151.78 232.23 151.78 233.34 C 151.78 234.45 152.68 235.35 153.79 235.35 Z M 154.82 235.35 L 155.85 235.35 C 156.97 235.35 157.87 234.45 157.87 233.34 C 157.87 232.23 156.97 231.33 155.85 231.33 L 154.82 231.33 C 153.71 231.33 152.81 232.23 152.81 233.34 C 152.81 234.45 153.71 235.35 154.82 235.35 Z M 155.85 235.35 L 156.87 235.35 C 157.98 235.35 158.88 234.45 158.88 233.34 C 158.88 232.23 157.98 231.33 156.87 231.33 L 155.85 231.33 C 154.74 231.33 153.84 232.23 153.84 233.34 C 153.84 234.45 154.74 235.35 155.85 235.35 Z M 156.87 235.35 L 157.82 235.35 C 158.93 235.35 159.83 234.45 159.83 233.34 C 159.83 232.23 158.93 231.33 157.82 231.33 L 156.87 231.33 C 155.76 231.33 154.86 232.23 154.86 233.34 C 154.86 234.45 155.76 235.35 156.87 235.35 Z M 157.82 235.35 L 158.94 235.35 C 160.05 235.35 160.94 234.45 160.94 233.34 C 160.94 232.23 160.04 231.33 158.93 231.33 L 157.82 231.33 C 156.71 231.33 155.81 232.23 155.81 233.34 C 155.81 234.45 156.71 235.35 157.82 235.35 Z M 158.95 235.35 L 159.97 235.34 C 161.08 235.33 161.97 234.42 161.96 233.31 C 161.95 232.20 161.04 231.31 159.93 231.32 L 158.92 231.33 C 157.81 231.34 156.91 232.25 156.92 233.36 C 156.93 234.47 157.84 235.36 158.95 235.35 Z M 160.01 235.34 L 160.93 235.31 C 162.04 235.28 162.91 234.36 162.88 233.25 C 162.85 232.14 161.93 231.26 160.82 231.30 L 159.89 231.32 C 158.78 231.35 157.91 232.28 157.94 233.39 C 157.97 234.50 158.90 235.37 160.01 235.34 Z M 160.99 235.31 L 161.82 235.26 C 162.93 235.20 163.78 234.25 163.72 233.14 C 163.65 232.03 162.70 231.19 161.59 231.25 L 160.76 231.30 C 159.65 231.36 158.80 232.31 158.87 233.42 C 158.93 234.53 159.88 235.38 160.99 235.31 Z M 161.88 235.26 L 162.64 235.19 C 163.75 235.10 164.56 234.12 164.47 233.02 C 164.37 231.91 163.40 231.09 162.29 231.19 L 161.53 231.25 C 160.43 231.35 159.61 232.32 159.70 233.43 C 159.80 234.54 160.78 235.36 161.88 235.26 Z M 162.68 235.19 L 163.56 235.10 C 164.66 234.98 165.46 233.99 165.34 232.88 C 165.22 231.78 164.23 230.98 163.13 231.10 L 162.25 231.19 C 161.15 231.31 160.35 232.30 160.47 233.40 C 160.58 234.51 161.57 235.31 162.68 235.19 Z M 163.58 235.10 L 164.66 234.97 C 165.76 234.84 166.55 233.84 166.42 232.74 C 166.29 231.64 165.29 230.85 164.19 230.97 L 163.11 231.10 C 162.01 231.23 161.22 232.23 161.35 233.33 C 161.47 234.43 162.47 235.22 163.58 235.10 Z M 164.66 234.97 L 166.01 234.81 C 167.12 234.67 167.90 233.67 167.77 232.57 C 167.64 231.47 166.64 230.68 165.53 230.81 L 164.18 230.98 C 163.08 231.11 162.29 232.11 162.43 233.21 C 162.56 234.31 163.56 235.10 164.66 234.97 Z M 166.01 234.81 L 166.87 234.70 C 167.97 234.57 168.76 233.57 168.63 232.47 C 168.50 231.36 167.49 230.58 166.39 230.71 L 165.54 230.81 C 164.43 230.94 163.65 231.95 163.78 233.05 C 163.91 234.15 164.91 234.94 166.01 234.81 Z M 166.87 234.70 L 167.81 234.59 C 168.91 234.46 169.70 233.46 169.57 232.35 C 169.43 231.25 168.43 230.46 167.33 230.60 L 166.39 230.71 C 165.29 230.84 164.50 231.84 164.63 232.95 C 164.77 234.05 165.77 234.84 166.87 234.70 Z M 167.81 234.59 L 168.81 234.47 C 169.91 234.34 170.70 233.34 170.56 232.23 C 170.43 231.13 169.43 230.34 168.32 230.48 L 167.33 230.60 C 166.22 230.73 165.44 231.73 165.57 232.84 C 165.70 233.94 166.71 234.73 167.81 234.59 Z M 168.81 234.47 L 169.85 234.35 C 170.95 234.21 171.73 233.21 171.60 232.10 C 171.47 231.00 170.46 230.22 169.36 230.35 L 168.32 230.48 C 167.22 230.61 166.43 231.61 166.57 232.72 C 166.70 233.82 167.71 234.61 168.81 234.47 Z M 169.85 234.35 L 170.90 234.22 C 172.01 234.08 172.79 233.07 172.65 231.97 C 172.52 230.87 171.51 230.08 170.41 230.22 L 169.35 230.35 C 168.25 230.49 167.47 231.49 167.60 232.59 C 167.74 233.70 168.75 234.48 169.85 234.35 Z M 170.91 234.22 L 171.96 234.08 C 173.06 233.94 173.85 232.94 173.71 231.83 C 173.57 230.73 172.56 229.95 171.46 230.09 L 170.41 230.22 C 169.30 230.36 168.52 231.37 168.66 232.47 C 168.80 233.57 169.81 234.35 170.91 234.22 Z M 171.97 234.08 L 173.00 233.95 C 174.10 233.81 174.88 232.80 174.74 231.69 C 174.59 230.59 173.58 229.81 172.48 229.95 L 171.45 230.09 C 170.35 230.23 169.57 231.24 169.71 232.34 C 169.85 233.45 170.86 234.22 171.97 234.08 Z M 173.00 233.95 L 173.99 233.82 C 175.09 233.67 175.87 232.66 175.72 231.55 C 175.57 230.45 174.56 229.68 173.46 229.82 L 172.47 229.96 C 171.37 230.10 170.60 231.12 170.74 232.22 C 170.89 233.32 171.90 234.10 173.00 233.95 Z M 174.00 233.82 L 175.18 233.65 C 176.28 233.50 177.05 232.48 176.90 231.38 C 176.75 230.28 175.73 229.51 174.63 229.66 L 173.45 229.83 C 172.34 229.98 171.57 231.00 171.73 232.10 C 171.88 233.20 172.90 233.97 174.00 233.82 Z M 175.20 233.65 L 176.33 233.48 C 177.43 233.32 178.19 232.29 178.02 231.19 C 177.86 230.09 176.83 229.33 175.73 229.50 L 174.61 229.66 C 173.51 229.83 172.75 230.85 172.91 231.95 C 173.08 233.05 174.10 233.81 175.20 233.65 Z M 176.35 233.48 L 177.38 233.31 C 178.48 233.14 179.22 232.10 179.05 231.00 C 178.87 229.90 177.84 229.16 176.74 229.33 L 175.71 229.50 C 174.61 229.68 173.87 230.71 174.04 231.81 C 174.22 232.91 175.25 233.65 176.35 233.48 Z M 177.40 233.31 L 178.34 233.14 C 179.44 232.95 180.17 231.91 179.98 230.81 C 179.79 229.72 178.75 228.98 177.65 229.17 L 176.71 229.34 C 175.61 229.53 174.88 230.57 175.07 231.67 C 175.26 232.77 176.31 233.50 177.40 233.31 Z M 178.38 233.14 L 179.24 232.97 C 180.34 232.76 181.05 231.71 180.84 230.61 C 180.63 229.52 179.58 228.80 178.49 229.01 L 177.62 229.18 C 176.52 229.39 175.81 230.44 176.02 231.54 C 176.23 232.63 177.28 233.35 178.38 233.14 Z M 179.28 232.96 L 180.09 232.79 C 181.18 232.56 181.88 231.50 181.65 230.41 C 181.42 229.32 180.35 228.62 179.26 228.85 L 178.45 229.02 C 177.36 229.25 176.66 230.32 176.89 231.41 C 177.12 232.50 178.19 233.19 179.28 232.96 Z M 180.14 232.78 L 181.15 232.55 C 182.23 232.29 182.90 231.21 182.65 230.12 C 182.39 229.04 181.31 228.37 180.22 228.62 L 179.21 228.86 C 178.13 229.11 177.46 230.20 177.71 231.28 C 177.97 232.37 179.05 233.04 180.14 232.78 Z M 181.22 232.53 L 182.22 232.25 C 183.30 231.96 183.93 230.85 183.63 229.77 C 183.34 228.70 182.23 228.07 181.15 228.36 L 180.15 228.64 C 179.08 228.94 178.45 230.04 178.74 231.12 C 179.04 232.19 180.14 232.82 181.22 232.53 Z M 182.32 232.22 L 183.26 231.91 C 184.31 231.56 184.89 230.42 184.54 229.37 C 184.19 228.31 183.05 227.73 181.99 228.08 L 181.06 228.39 C 180.00 228.74 179.42 229.88 179.77 230.94 C 180.12 232.00 181.27 232.57 182.32 232.22 Z M 183.38 231.87 L 184.25 231.52 C 185.28 231.10 185.78 229.92 185.36 228.89 C 184.94 227.86 183.76 227.36 182.73 227.78 L 181.86 228.13 C 180.83 228.55 180.34 229.73 180.75 230.76 C 181.17 231.79 182.35 232.29 183.38 231.87 Z M 184.40 231.44 L 185.26 231.01 C 186.25 230.50 186.65 229.29 186.15 228.30 C 185.64 227.30 184.43 226.91 183.44 227.41 L 182.58 227.85 C 181.58 228.35 181.19 229.57 181.69 230.56 C 182.20 231.55 183.41 231.95 184.40 231.44 Z M 185.48 230.88 L 186.30 230.33 C 187.22 229.71 187.46 228.45 186.84 227.53 C 186.21 226.61 184.96 226.36 184.04 226.99 L 183.22 227.54 C 182.30 228.16 182.05 229.42 182.68 230.34 C 183.30 231.26 184.56 231.51 185.48 230.88 Z M 186.58 230.10 L 187.28 229.41 C 188.07 228.63 188.08 227.35 187.30 226.56 C 186.52 225.77 185.24 225.76 184.45 226.54 L 183.75 227.22 C 182.96 228.00 182.95 229.28 183.73 230.07 C 184.51 230.87 185.79 230.88 186.58 230.10 Z M 187.57 229.05 L 188.10 228.20 C 188.70 227.26 188.42 226.01 187.48 225.42 C 186.54 224.82 185.29 225.10 184.70 226.04 L 184.16 226.89 C 183.56 227.84 183.84 229.08 184.78 229.68 C 185.72 230.27 186.97 229.99 187.57 229.05 Z M 188.30 227.80 L 188.62 226.91 C 188.99 225.86 188.44 224.71 187.39 224.33 C 186.34 223.96 185.19 224.51 184.82 225.56 L 184.50 226.45 C 184.13 227.50 184.67 228.65 185.72 229.02 C 186.77 229.40 187.93 228.85 188.30 227.80 Z M 188.70 226.59 L 188.88 225.64 C 189.08 224.54 188.35 223.49 187.25 223.29 C 186.16 223.09 185.11 223.82 184.91 224.91 L 184.73 225.87 C 184.53 226.97 185.26 228.02 186.36 228.22 C 187.45 228.42 188.50 227.69 188.70 226.59 Z M 188.91 225.40 L 188.97 224.38 C 189.03 223.26 188.18 222.31 187.07 222.24 C 185.96 222.18 185.01 223.02 184.94 224.14 L 184.88 225.16 C 184.81 226.27 185.66 227.22 186.77 227.29 C 187.88 227.36 188.84 226.51 188.91 225.40 Z M 188.97 224.17 L 188.93 223.13 C 188.88 222.02 187.94 221.15 186.83 221.20 C 185.71 221.24 184.85 222.18 184.89 223.30 L 184.94 224.34 C 184.98 225.45 185.92 226.32 187.04 226.27 C 188.15 226.22 189.01 225.29 188.97 224.17 Z M 188.91 222.94 L 188.77 221.93 C 188.62 220.83 187.61 220.05 186.50 220.20 C 185.40 220.35 184.63 221.37 184.77 222.47 L 184.91 223.48 C 185.06 224.59 186.08 225.36 187.18 225.21 C 188.28 225.06 189.06 224.05 188.91 222.94 Z M 188.73 221.76 L 188.52 220.83 C 188.27 219.75 187.20 219.07 186.12 219.32 C 185.04 219.56 184.36 220.64 184.60 221.72 L 184.82 222.65 C 185.06 223.73 186.14 224.40 187.22 224.16 C 188.30 223.91 188.98 222.84 188.73 221.76 Z M 188.46 220.68 L 188.18 219.77 C 187.85 218.72 186.74 218.14 185.69 218.46 C 184.64 218.79 184.05 219.91 184.38 220.96 L 184.66 221.87 C 184.99 222.92 186.10 223.50 187.15 223.18 C 188.20 222.85 188.79 221.73 188.46 220.68 Z M 188.13 219.67 L 187.78 218.75 C 187.40 217.73 186.26 217.22 185.24 217.60 C 184.21 217.99 183.70 219.13 184.08 220.15 L 184.43 221.07 C 184.82 222.09 185.96 222.60 186.98 222.22 C 188.00 221.83 188.51 220.69 188.13 219.67 Z M 187.74 218.69 L 187.34 217.73 C 186.92 216.73 185.77 216.26 184.77 216.68 C 183.77 217.10 183.30 218.25 183.72 219.25 L 184.13 220.21 C 184.55 221.21 185.70 221.68 186.69 221.26 C 187.69 220.84 188.16 219.69 187.74 218.69 Z M 187.31 217.71 L 186.88 216.74 C 186.45 215.75 185.30 215.31 184.32 215.74 C 183.34 216.17 182.89 217.32 183.32 218.30 L 183.75 219.27 C 184.18 220.26 185.33 220.70 186.31 220.27 C 187.30 219.84 187.74 218.69 187.31 217.71 Z M 186.86 216.74 L 186.47 215.85 C 186.04 214.88 184.90 214.44 183.93 214.87 C 182.96 215.30 182.52 216.43 182.95 217.40 L 183.34 218.29 C 183.77 219.26 184.91 219.70 185.88 219.27 C 186.85 218.85 187.29 217.71 186.86 216.74 Z M 186.44 215.86 L 186.03 214.93 C 185.61 213.98 184.50 213.54 183.54 213.96 C 182.58 214.38 182.14 215.50 182.57 216.46 L 182.97 217.39 C 183.39 218.34 184.51 218.78 185.47 218.36 C 186.43 217.94 186.86 216.82 186.44 215.86 Z M 186.01 214.95 L 185.60 214.01 C 185.20 213.06 184.10 212.62 183.15 213.03 C 182.20 213.44 181.77 214.54 182.18 215.49 L 182.59 216.44 C 182.99 217.38 184.09 217.82 185.04 217.41 C 185.99 217.00 186.42 215.90 186.01 214.95 Z M 185.59 214.03 L 185.19 213.09 C 184.79 212.15 183.71 211.71 182.78 212.11 C 181.84 212.50 181.40 213.58 181.80 214.52 L 182.19 215.46 C 182.59 216.40 183.67 216.84 184.61 216.44 C 185.54 216.05 185.98 214.97 185.59 214.03 Z M 185.17 213.12 L 184.80 212.19 C 184.42 211.27 183.36 210.82 182.43 211.20 C 181.51 211.57 181.06 212.63 181.44 213.56 L 181.81 214.48 C 182.19 215.41 183.25 215.86 184.17 215.48 C 185.10 215.10 185.55 214.05 185.17 213.12 Z M 184.78 212.24 L 184.42 211.29 C 184.07 210.37 183.03 209.91 182.11 210.27 C 181.19 210.62 180.73 211.65 181.09 212.57 L 181.45 213.52 C 181.80 214.44 182.84 214.90 183.76 214.54 C 184.68 214.19 185.13 213.16 184.78 212.24 Z M 184.40 211.35 L 184.03 210.32 C 183.71 209.41 182.71 208.94 181.81 209.26 C 180.90 209.58 180.42 210.58 180.74 211.49 L 181.11 212.52 C 181.43 213.42 182.43 213.90 183.34 213.58 C 184.25 213.26 184.72 212.26 184.40 211.35 Z M 184.01 210.38 L 183.69 209.41 C 183.40 208.52 182.44 208.03 181.55 208.32 C 180.66 208.61 180.17 209.57 180.46 210.46 L 180.77 211.43 C 181.06 212.32 182.02 212.81 182.91 212.52 C 183.81 212.23 184.30 211.27 184.01 210.38 Z M 183.66 209.46 L 183.38 208.54 C 183.12 207.66 182.19 207.17 181.32 207.43 C 180.44 207.70 179.95 208.62 180.21 209.50 L 180.49 210.42 C 180.75 211.29 181.68 211.79 182.55 211.52 C 183.43 211.26 183.92 210.33 183.66 209.46 Z M 183.34 208.57 L 183.09 207.68 C 182.84 206.83 181.95 206.33 181.10 206.58 C 180.24 206.82 179.75 207.71 179.99 208.57 L 180.25 209.46 C 180.49 210.32 181.39 210.81 182.24 210.56 C 183.09 210.32 183.59 209.43 183.34 208.57 Z M 183.06 207.70 L 182.93 207.25 C 182.69 206.41 181.82 205.92 180.99 206.16 C 180.15 206.40 179.66 207.27 179.90 208.10 L 180.02 208.55 C 180.26 209.39 181.13 209.88 181.97 209.64 C 182.80 209.40 183.29 208.53 183.06 207.70 Z"
      fill="black"
      fill-rule="nonzero" /><path d="M 139.38 103.59 L 138.22 103.49 C 137.22 103.39 136.33 104.13 136.23 105.14 C 136.14 106.15 136.88 107.04 137.89 107.13 L 139.05 107.24 C 140.05 107.33 140.94 106.59 141.04 105.58 C 141.13 104.58 140.39 103.68 139.38 103.59 Z M 138.16 103.45 L 137.05 103.39 C 136.03 103.34 135.15 104.12 135.10 105.14 C 135.04 106.17 135.82 107.04 136.85 107.10 L 137.95 107.16 C 138.98 107.22 139.85 106.44 139.91 105.41 C 139.97 104.39 139.18 103.51 138.16 103.45 Z M 136.90 103.36 L 135.90 103.39 C 134.86 103.42 134.04 104.29 134.06 105.33 C 134.09 106.37 134.96 107.19 136.00 107.16 L 137.00 107.13 C 138.04 107.10 138.86 106.23 138.83 105.20 C 138.80 104.16 137.94 103.34 136.90 103.36 Z M 135.59 103.40 L 134.74 103.56 C 133.71 103.76 133.02 104.76 133.22 105.79 C 133.42 106.83 134.42 107.51 135.45 107.31 L 136.30 107.15 C 137.34 106.95 138.02 105.95 137.82 104.92 C 137.63 103.88 136.63 103.20 135.59 103.40 Z M 134.16 103.74 L 133.46 104.13 C 132.53 104.64 132.19 105.82 132.70 106.76 C 133.22 107.69 134.40 108.03 135.33 107.52 L 136.03 107.13 C 136.97 106.61 137.31 105.44 136.79 104.50 C 136.28 103.57 135.10 103.22 134.16 103.74 Z M 132.75 104.76 L 132.27 105.50 C 131.69 106.41 131.95 107.62 132.85 108.21 C 133.76 108.79 134.97 108.53 135.56 107.63 L 136.04 106.88 C 136.63 105.98 136.37 104.77 135.46 104.18 C 134.55 103.59 133.34 103.85 132.75 104.76 Z M 131.97 106.24 L 131.81 107.20 C 131.63 108.28 132.35 109.30 133.43 109.48 C 134.51 109.66 135.53 108.93 135.71 107.86 L 135.87 106.89 C 136.05 105.81 135.32 104.79 134.24 104.61 C 133.17 104.43 132.15 105.16 131.97 106.24 Z M 131.77 107.70 L 131.86 108.79 C 131.95 109.89 132.92 110.71 134.02 110.61 C 135.12 110.52 135.93 109.55 135.84 108.45 L 135.74 107.36 C 135.65 106.26 134.68 105.45 133.59 105.54 C 132.49 105.64 131.67 106.60 131.77 107.70 Z M 131.90 109.10 L 132.12 110.04 C 132.39 111.12 133.47 111.78 134.55 111.52 C 135.63 111.26 136.29 110.17 136.03 109.10 L 135.80 108.15 C 135.54 107.07 134.46 106.41 133.38 106.67 C 132.30 106.93 131.64 108.02 131.90 109.10 Z M 132.18 110.25 L 132.50 111.14 C 132.88 112.19 134.03 112.74 135.08 112.36 C 136.12 111.99 136.67 110.83 136.30 109.79 L 135.97 108.89 C 135.60 107.84 134.45 107.30 133.40 107.67 C 132.35 108.05 131.81 109.20 132.18 110.25 Z M 132.57 111.30 L 132.98 112.21 C 133.44 113.22 134.64 113.67 135.65 113.21 C 136.67 112.74 137.11 111.54 136.65 110.53 L 136.23 109.63 C 135.77 108.61 134.57 108.17 133.56 108.63 C 132.55 109.10 132.10 110.29 132.57 111.30 Z M 133.04 112.34 L 133.54 113.26 C 134.08 114.23 135.30 114.59 136.28 114.06 C 137.26 113.53 137.62 112.30 137.09 111.32 L 136.59 110.40 C 136.05 109.42 134.83 109.06 133.85 109.60 C 132.87 110.13 132.51 111.36 133.04 112.34 Z M 133.60 113.35 L 134.16 114.26 C 134.75 115.21 136.00 115.50 136.95 114.91 C 137.89 114.32 138.19 113.08 137.60 112.13 L 137.03 111.22 C 136.44 110.27 135.20 109.98 134.25 110.57 C 133.30 111.16 133.01 112.41 133.60 113.35 Z M 134.21 114.33 L 134.78 115.18 C 135.41 116.11 136.67 116.35 137.59 115.72 C 138.52 115.09 138.76 113.83 138.13 112.91 L 137.55 112.06 C 136.92 111.13 135.66 110.90 134.74 111.52 C 133.82 112.15 133.58 113.41 134.21 114.33 Z M 134.82 115.23 L 135.43 116.07 C 136.08 116.98 137.35 117.18 138.25 116.52 C 139.16 115.87 139.36 114.60 138.70 113.70 L 138.09 112.86 C 137.44 111.95 136.17 111.75 135.27 112.41 C 134.36 113.06 134.16 114.33 134.82 115.23 Z M 135.46 116.11 L 136.07 116.92 C 136.75 117.81 138.02 117.98 138.91 117.31 C 139.80 116.63 139.97 115.36 139.29 114.47 L 138.68 113.66 C 138.00 112.77 136.73 112.60 135.84 113.27 C 134.95 113.95 134.78 115.22 135.46 116.11 Z M 136.09 116.95 L 136.70 117.71 C 137.39 118.59 138.66 118.74 139.54 118.05 C 140.42 117.36 140.57 116.09 139.88 115.21 L 139.27 114.45 C 138.58 113.57 137.31 113.42 136.43 114.11 C 135.56 114.80 135.40 116.07 136.09 116.95 Z M 136.71 117.73 L 137.33 118.49 C 138.02 119.36 139.30 119.50 140.17 118.80 C 141.04 118.10 141.17 116.83 140.47 115.96 L 139.86 115.20 C 139.16 114.33 137.89 114.19 137.02 114.89 C 136.15 115.59 136.01 116.86 136.71 117.73 Z M 137.34 118.50 L 138.03 119.34 C 138.73 120.21 140.00 120.34 140.86 119.63 C 141.73 118.93 141.86 117.66 141.15 116.79 L 140.46 115.95 C 139.76 115.09 138.49 114.96 137.62 115.66 C 136.76 116.37 136.63 117.64 137.34 118.50 Z M 138.03 119.34 L 138.66 120.10 C 139.36 120.96 140.63 121.09 141.49 120.38 C 142.35 119.68 142.47 118.41 141.77 117.55 L 141.14 116.79 C 140.44 115.93 139.17 115.81 138.31 116.51 C 137.45 117.22 137.33 118.49 138.03 119.34 Z M 138.66 120.10 L 139.24 120.81 C 139.94 121.67 141.21 121.80 142.06 121.10 C 142.92 120.40 143.05 119.14 142.35 118.28 L 141.77 117.56 C 141.07 116.70 139.80 116.58 138.94 117.28 C 138.09 117.98 137.96 119.24 138.66 120.10 Z M 139.24 120.79 L 139.83 121.54 C 140.52 122.40 141.78 122.54 142.64 121.85 C 143.50 121.16 143.64 119.91 142.95 119.04 L 142.36 118.30 C 141.67 117.44 140.41 117.30 139.55 117.99 C 138.69 118.67 138.55 119.93 139.24 120.79 Z M 139.82 121.52 L 140.43 122.30 C 141.11 123.17 142.36 123.33 143.23 122.65 C 144.10 121.98 144.25 120.72 143.58 119.86 L 142.97 119.07 C 142.29 118.20 141.04 118.04 140.17 118.72 C 139.30 119.40 139.15 120.65 139.82 121.52 Z M 140.42 122.28 L 141.03 123.08 C 141.70 123.95 142.94 124.12 143.81 123.46 C 144.69 122.80 144.86 121.55 144.19 120.68 L 143.59 119.88 C 142.92 119.01 141.68 118.84 140.80 119.50 C 139.93 120.16 139.76 121.41 140.42 122.28 Z M 141.03 123.06 L 141.62 123.86 C 142.28 124.74 143.52 124.92 144.39 124.27 C 145.27 123.62 145.45 122.38 144.80 121.50 L 144.20 120.70 C 143.55 119.82 142.31 119.64 141.43 120.29 C 140.56 120.94 140.37 122.18 141.03 123.06 Z M 141.62 123.85 L 142.20 124.64 C 142.84 125.52 144.07 125.71 144.95 125.07 C 145.83 124.42 146.02 123.19 145.38 122.31 L 144.80 121.52 C 144.16 120.64 142.93 120.45 142.05 121.09 C 141.17 121.73 140.98 122.97 141.62 123.85 Z M 142.19 124.62 L 142.77 125.42 C 143.40 126.30 144.63 126.50 145.51 125.87 C 146.39 125.24 146.59 124.02 145.96 123.13 L 145.38 122.33 C 144.75 121.45 143.53 121.25 142.65 121.88 C 141.77 122.51 141.56 123.74 142.19 124.62 Z M 142.77 125.40 L 143.36 126.23 C 143.98 127.11 145.20 127.32 146.08 126.70 C 146.96 126.08 147.17 124.86 146.55 123.98 L 145.96 123.15 C 145.34 122.27 144.12 122.06 143.24 122.68 C 142.36 123.30 142.15 124.52 142.77 125.40 Z M 143.35 126.22 L 143.93 127.05 C 144.55 127.93 145.76 128.15 146.64 127.54 C 147.52 126.92 147.74 125.71 147.13 124.83 L 146.55 124.00 C 145.93 123.12 144.72 122.90 143.84 123.51 C 142.96 124.12 142.74 125.34 143.35 126.22 Z M 143.93 127.03 L 144.50 127.87 C 145.11 128.75 146.31 128.98 147.19 128.37 C 148.07 127.77 148.30 126.57 147.70 125.68 L 147.13 124.85 C 146.52 123.97 145.32 123.74 144.44 124.34 C 143.56 124.95 143.33 126.15 143.93 127.03 Z M 144.50 127.85 L 145.06 128.69 C 145.65 129.57 146.85 129.81 147.73 129.22 C 148.62 128.63 148.85 127.43 148.26 126.55 L 147.70 125.71 C 147.11 124.82 145.92 124.59 145.03 125.18 C 144.15 125.77 143.91 126.96 144.50 127.85 Z M 145.06 128.66 L 145.59 129.49 C 146.17 130.38 147.36 130.63 148.24 130.05 C 149.13 129.48 149.38 128.29 148.81 127.40 L 148.27 126.58 C 147.70 125.69 146.51 125.44 145.62 126.01 C 144.73 126.59 144.48 127.77 145.06 128.66 Z M 145.58 129.45 L 146.13 130.33 C 146.68 131.22 147.86 131.49 148.75 130.94 C 149.64 130.38 149.92 129.21 149.36 128.32 L 148.82 127.44 C 148.26 126.55 147.09 126.27 146.20 126.83 C 145.30 127.38 145.03 128.56 145.58 129.45 Z M 146.12 130.29 L 146.63 131.15 C 147.16 132.05 148.32 132.34 149.22 131.81 C 150.12 131.28 150.41 130.12 149.88 129.22 L 149.37 128.36 C 148.84 127.46 147.68 127.16 146.78 127.70 C 145.88 128.23 145.59 129.39 146.12 130.29 Z M 146.63 131.11 L 147.11 131.96 C 147.63 132.86 148.77 133.17 149.67 132.66 C 150.57 132.14 150.88 131.00 150.37 130.10 L 149.88 129.25 C 149.37 128.35 148.22 128.04 147.32 128.56 C 146.43 129.07 146.11 130.22 146.63 131.11 Z M 147.12 131.94 L 147.59 132.80 C 148.10 133.69 149.23 134.02 150.13 133.51 C 151.02 133.01 151.35 131.88 150.84 130.98 L 150.36 130.12 C 149.86 129.23 148.73 128.90 147.83 129.41 C 146.93 129.91 146.61 131.04 147.12 131.94 Z M 147.60 132.78 L 148.09 133.66 C 148.58 134.55 149.70 134.88 150.59 134.38 C 151.49 133.89 151.81 132.77 151.32 131.88 L 150.84 131.00 C 150.34 130.11 149.22 129.78 148.33 130.27 C 147.44 130.76 147.11 131.89 147.60 132.78 Z M 148.10 133.64 L 148.57 134.52 C 149.06 135.41 150.17 135.74 151.06 135.26 C 151.94 134.77 152.27 133.66 151.79 132.77 L 151.31 131.89 C 150.83 131.01 149.72 130.68 148.83 131.16 C 147.94 131.64 147.61 132.75 148.10 133.64 Z M 148.58 134.51 L 149.05 135.36 C 149.52 136.25 150.62 136.58 151.50 136.10 C 152.38 135.63 152.72 134.53 152.24 133.65 L 151.78 132.79 C 151.31 131.91 150.21 131.58 149.32 132.05 C 148.44 132.52 148.11 133.62 148.58 134.51 Z M 149.05 135.34 L 149.47 136.13 C 149.93 137.01 151.02 137.35 151.90 136.89 C 152.78 136.43 153.11 135.34 152.65 134.46 L 152.23 133.67 C 151.77 132.79 150.68 132.45 149.81 132.92 C 148.93 133.38 148.59 134.46 149.05 135.34 Z M 149.47 136.10 L 149.90 136.95 C 150.34 137.83 151.41 138.18 152.29 137.74 C 153.17 137.30 153.52 136.23 153.08 135.35 L 152.65 134.50 C 152.21 133.62 151.14 133.26 150.26 133.71 C 149.38 134.15 149.03 135.22 149.47 136.10 Z M 149.89 136.90 L 150.36 137.88 C 150.77 138.76 151.82 139.14 152.70 138.72 C 153.59 138.30 153.96 137.25 153.54 136.37 L 153.08 135.40 C 152.67 134.51 151.61 134.14 150.73 134.56 C 149.85 134.97 149.48 136.02 149.89 136.90 Z M 150.35 137.84 L 150.77 138.76 C 151.16 139.65 152.19 140.04 153.08 139.65 C 153.96 139.26 154.35 138.22 153.96 137.34 L 153.55 136.41 C 153.15 135.53 152.12 135.13 151.24 135.53 C 150.36 135.92 149.96 136.95 150.35 137.84 Z M 150.76 138.73 L 151.12 139.57 C 151.50 140.46 152.52 140.87 153.40 140.49 C 154.29 140.12 154.70 139.10 154.32 138.21 L 153.96 137.37 C 153.59 136.49 152.57 136.08 151.68 136.45 C 150.80 136.83 150.39 137.85 150.76 138.73 Z M 151.12 139.55 L 151.50 140.46 C 151.86 141.34 152.87 141.76 153.75 141.40 C 154.63 141.04 155.05 140.03 154.69 139.15 L 154.32 138.24 C 153.96 137.36 152.95 136.94 152.07 137.30 C 151.19 137.66 150.76 138.67 151.12 139.55 Z M 151.50 140.43 L 151.88 141.40 C 152.23 142.28 153.22 142.71 154.10 142.36 C 154.99 142.02 155.42 141.02 155.07 140.14 L 154.69 139.18 C 154.34 138.29 153.35 137.86 152.47 138.21 C 151.58 138.56 151.15 139.55 151.50 140.43 Z M 151.88 141.37 L 152.26 142.37 C 152.59 143.25 153.57 143.69 154.45 143.36 C 155.34 143.03 155.78 142.04 155.45 141.16 L 155.07 140.16 C 154.74 139.28 153.75 138.84 152.87 139.17 C 151.99 139.51 151.55 140.49 151.88 141.37 Z M 152.26 142.34 L 152.63 143.36 C 152.94 144.24 153.91 144.69 154.79 144.37 C 155.67 144.06 156.13 143.08 155.81 142.20 L 155.45 141.19 C 155.13 140.31 154.16 139.85 153.28 140.17 C 152.40 140.49 151.94 141.46 152.26 142.34 Z M 152.63 143.33 L 152.97 144.31 C 153.27 145.18 154.22 145.65 155.10 145.35 C 155.98 145.05 156.45 144.09 156.14 143.22 L 155.81 142.23 C 155.51 141.36 154.55 140.89 153.67 141.19 C 152.80 141.49 152.33 142.45 152.63 143.33 Z M 152.97 144.28 L 153.29 145.25 C 153.58 146.13 154.52 146.61 155.39 146.32 C 156.26 146.04 156.74 145.10 156.46 144.22 L 156.14 143.25 C 155.85 142.37 154.91 141.89 154.04 142.18 C 153.17 142.46 152.69 143.40 152.97 144.28 Z M 153.30 145.22 L 153.60 146.19 C 153.87 147.06 154.79 147.55 155.66 147.28 C 156.53 147.02 157.01 146.09 156.75 145.23 L 156.45 144.26 C 156.18 143.39 155.26 142.90 154.39 143.17 C 153.52 143.43 153.03 144.35 153.30 145.22 Z M 153.61 146.16 L 153.88 147.12 C 154.13 147.98 155.04 148.48 155.90 148.23 C 156.77 147.98 157.26 147.08 157.01 146.21 L 156.74 145.26 C 156.49 144.39 155.58 143.89 154.72 144.14 C 153.86 144.39 153.36 145.30 153.61 146.16 Z M 153.89 147.08 L 154.14 148.02 C 154.37 148.88 155.26 149.39 156.12 149.15 C 156.98 148.92 157.49 148.04 157.26 147.18 L 157.01 146.24 C 156.77 145.38 155.89 144.88 155.03 145.11 C 154.17 145.34 153.66 146.22 153.89 147.08 Z M 154.15 147.98 L 154.38 148.93 C 154.60 149.79 155.46 150.31 156.32 150.10 C 157.17 149.89 157.70 149.02 157.49 148.16 L 157.25 147.21 C 157.04 146.36 156.17 145.83 155.32 146.05 C 154.46 146.26 153.94 147.12 154.15 147.98 Z M 154.39 148.90 L 154.61 149.92 C 154.81 150.77 155.65 151.31 156.51 151.12 C 157.37 150.93 157.90 150.08 157.71 149.22 L 157.48 148.20 C 157.29 147.35 156.44 146.81 155.59 147.00 C 154.73 147.19 154.19 148.04 154.39 148.90 Z M 154.61 149.88 L 154.81 150.87 C 154.99 151.73 155.82 152.28 156.68 152.11 C 157.53 151.93 158.09 151.10 157.91 150.24 L 157.71 149.26 C 157.54 148.40 156.71 147.85 155.85 148.02 C 154.99 148.19 154.44 149.03 154.61 149.88 Z M 154.82 150.85 L 155.00 151.81 C 155.15 152.67 155.98 153.23 156.83 153.07 C 157.69 152.91 158.25 152.09 158.09 151.23 L 157.91 150.27 C 157.75 149.41 156.93 148.85 156.08 149.01 C 155.22 149.17 154.66 149.99 154.82 150.85 Z M 155.00 151.79 L 155.17 152.74 C 155.32 153.60 156.13 154.17 156.98 154.02 C 157.83 153.87 158.40 153.05 158.25 152.20 L 158.09 151.25 C 157.94 150.40 157.12 149.83 156.27 149.98 C 155.42 150.13 154.85 150.94 155.00 151.79 Z M 155.17 152.74 L 155.27 153.30 C 155.41 154.15 156.22 154.73 157.07 154.58 C 157.92 154.43 158.49 153.63 158.35 152.78 L 158.25 152.21 C 158.10 151.36 157.30 150.79 156.45 150.93 C 155.59 151.08 155.02 151.89 155.17 152.74 Z"
      fill="black"
      fill-rule="nonzero" /><path d="M 195.46 126.48 L 195.81 127.35 C 196.20 128.28 197.27 128.73 198.20 128.35 C 199.14 127.97 199.59 126.90 199.21 125.96 L 198.85 125.09 C 198.47 124.16 197.40 123.71 196.46 124.09 C 195.53 124.47 195.08 125.54 195.46 126.48 Z M 195.78 127.37 L 196.14 128.26 C 196.54 129.21 197.64 129.67 198.60 129.27 C 199.56 128.87 200.01 127.77 199.61 126.82 L 199.24 125.93 C 198.84 124.97 197.75 124.52 196.79 124.92 C 195.83 125.32 195.38 126.42 195.78 127.37 Z M 196.11 128.29 L 196.51 129.22 C 196.93 130.19 198.06 130.64 199.03 130.23 C 200.01 129.81 200.46 128.68 200.04 127.70 L 199.64 126.78 C 199.22 125.80 198.09 125.35 197.12 125.77 C 196.14 126.19 195.69 127.32 196.11 128.29 Z M 196.48 129.27 L 196.92 130.25 C 197.37 131.24 198.53 131.68 199.52 131.24 C 200.51 130.80 200.95 129.63 200.51 128.64 L 200.07 127.66 C 199.62 126.67 198.46 126.23 197.47 126.67 C 196.48 127.11 196.04 128.28 196.48 129.27 Z M 196.91 130.29 L 197.33 131.19 C 197.80 132.19 198.98 132.62 199.98 132.16 C 200.98 131.69 201.41 130.50 200.94 129.50 L 200.52 128.60 C 200.06 127.61 198.87 127.17 197.87 127.64 C 196.87 128.11 196.44 129.29 196.91 130.29 Z M 197.33 131.22 L 197.76 132.13 C 198.24 133.13 199.44 133.55 200.45 133.07 C 201.45 132.59 201.87 131.39 201.39 130.39 L 200.95 129.48 C 200.47 128.48 199.27 128.05 198.27 128.54 C 197.27 129.02 196.84 130.22 197.33 131.22 Z M 197.76 132.15 L 198.21 133.07 C 198.70 134.07 199.91 134.49 200.92 134.00 C 201.92 133.51 202.33 132.29 201.84 131.29 L 201.39 130.37 C 200.90 129.36 199.69 128.95 198.68 129.44 C 197.68 129.93 197.27 131.14 197.76 132.15 Z M 198.20 133.08 L 198.66 134.00 C 199.15 135.00 200.38 135.42 201.38 134.92 C 202.39 134.42 202.80 133.20 202.30 132.19 L 201.85 131.28 C 201.35 130.27 200.13 129.86 199.12 130.36 C 198.11 130.86 197.70 132.08 198.20 133.08 Z M 198.65 134.01 L 199.08 134.89 C 199.59 135.90 200.82 136.31 201.83 135.80 C 202.84 135.30 203.26 134.07 202.75 133.06 L 202.31 132.18 C 201.81 131.17 200.58 130.75 199.56 131.26 C 198.55 131.77 198.14 133.00 198.65 134.01 Z M 199.08 134.89 L 199.54 135.83 C 200.05 136.84 201.29 137.26 202.31 136.75 C 203.32 136.24 203.73 135.00 203.23 133.99 L 202.76 133.05 C 202.25 132.03 201.01 131.62 200.00 132.13 C 198.98 132.64 198.57 133.87 199.08 134.89 Z M 199.54 135.83 L 199.99 136.73 C 200.50 137.75 201.74 138.17 202.76 137.66 C 203.78 137.15 204.19 135.91 203.68 134.89 L 203.23 133.99 C 202.72 132.97 201.49 132.55 200.47 133.06 C 199.45 133.57 199.03 134.81 199.54 135.83 Z M 199.98 136.73 L 200.41 137.60 C 200.92 138.62 202.16 139.04 203.18 138.54 C 204.21 138.03 204.63 136.79 204.12 135.76 L 203.69 134.89 C 203.18 133.87 201.94 133.45 200.92 133.96 C 199.89 134.46 199.48 135.70 199.98 136.73 Z M 200.40 137.59 L 200.83 138.46 C 201.33 139.49 202.57 139.92 203.60 139.41 C 204.63 138.91 205.06 137.67 204.55 136.64 L 204.13 135.77 C 203.62 134.74 202.38 134.32 201.36 134.82 C 200.33 135.32 199.90 136.56 200.40 137.59 Z M 200.82 138.45 L 201.24 139.31 C 201.73 140.34 202.98 140.78 204.01 140.28 C 205.04 139.78 205.47 138.54 204.98 137.51 L 204.56 136.65 C 204.06 135.62 202.82 135.18 201.79 135.68 C 200.76 136.18 200.32 137.42 200.82 138.45 Z M 201.23 139.31 L 201.64 140.16 C 202.14 141.20 203.38 141.64 204.41 141.14 C 205.45 140.65 205.89 139.41 205.39 138.37 L 204.98 137.51 C 204.49 136.47 203.24 136.04 202.21 136.53 C 201.17 137.03 200.73 138.27 201.23 139.31 Z M 201.64 140.16 L 202.06 141.06 C 202.56 142.09 203.80 142.53 204.84 142.04 C 205.88 141.54 206.32 140.30 205.82 139.26 L 205.40 138.37 C 204.90 137.33 203.66 136.89 202.62 137.39 C 201.58 137.88 201.14 139.13 201.64 140.16 Z M 202.06 141.06 L 202.51 141.99 C 203.01 143.03 204.25 143.46 205.29 142.96 C 206.33 142.46 206.77 141.22 206.27 140.18 L 205.82 139.25 C 205.32 138.22 204.08 137.78 203.04 138.28 C 202.00 138.78 201.56 140.02 202.06 141.06 Z M 202.51 142.00 L 202.98 142.96 C 203.48 143.99 204.73 144.42 205.77 143.92 C 206.81 143.41 207.24 142.16 206.73 141.13 L 206.27 140.17 C 205.76 139.13 204.51 138.70 203.47 139.21 C 202.44 139.71 202.00 140.96 202.51 142.00 Z M 202.98 142.97 L 203.41 143.83 C 203.92 144.87 205.17 145.29 206.21 144.78 C 207.24 144.26 207.67 143.01 207.15 141.97 L 206.73 141.11 C 206.21 140.08 204.96 139.65 203.93 140.17 C 202.89 140.68 202.47 141.93 202.98 142.97 Z M 203.41 143.84 L 203.84 144.71 C 204.36 145.74 205.62 146.16 206.65 145.64 C 207.69 145.12 208.11 143.86 207.59 142.83 L 207.15 141.96 C 206.63 140.93 205.37 140.51 204.34 141.03 C 203.31 141.55 202.89 142.81 203.41 143.84 Z M 203.85 144.72 L 204.30 145.60 C 204.82 146.63 206.08 147.05 207.11 146.52 C 208.14 146.00 208.56 144.74 208.03 143.71 L 207.58 142.82 C 207.06 141.79 205.80 141.38 204.77 141.90 C 203.74 142.42 203.32 143.68 203.85 144.72 Z M 204.30 145.61 L 204.76 146.51 C 205.28 147.54 206.55 147.95 207.58 147.43 C 208.61 146.90 209.02 145.64 208.49 144.61 L 208.03 143.70 C 207.51 142.67 206.24 142.26 205.21 142.78 C 204.18 143.31 203.77 144.57 204.30 145.61 Z M 204.76 146.52 L 205.23 147.44 C 205.76 148.47 207.03 148.88 208.06 148.35 C 209.09 147.82 209.50 146.56 208.97 145.53 L 208.50 144.60 C 207.97 143.57 206.70 143.16 205.67 143.69 C 204.64 144.22 204.23 145.48 204.76 146.52 Z M 205.23 147.44 L 205.69 148.34 C 206.22 149.38 207.49 149.78 208.52 149.25 C 209.55 148.73 209.96 147.46 209.43 146.43 L 208.97 145.52 C 208.44 144.49 207.17 144.08 206.14 144.61 C 205.11 145.14 204.70 146.41 205.23 147.44 Z M 205.69 148.34 L 206.13 149.20 C 206.66 150.23 207.93 150.64 208.96 150.11 C 209.99 149.58 210.40 148.32 209.87 147.28 L 209.43 146.43 C 208.90 145.39 207.64 144.99 206.60 145.51 C 205.57 146.04 205.16 147.31 205.69 148.34 Z M 206.13 149.20 L 206.58 150.07 C 207.11 151.10 208.37 151.51 209.41 150.98 C 210.44 150.46 210.85 149.19 210.32 148.16 L 209.87 147.28 C 209.34 146.25 208.08 145.84 207.04 146.37 C 206.01 146.90 205.60 148.17 206.13 149.20 Z M 206.58 150.07 L 207.03 150.96 C 207.56 151.99 208.82 152.40 209.86 151.87 C 210.89 151.35 211.30 150.08 210.77 149.05 L 210.32 148.16 C 209.79 147.12 208.53 146.71 207.49 147.24 C 206.46 147.77 206.05 149.04 206.58 150.07 Z M 207.03 150.96 L 207.49 151.86 C 208.02 152.89 209.28 153.30 210.32 152.78 C 211.35 152.25 211.76 150.99 211.23 149.95 L 210.77 149.05 C 210.25 148.01 208.98 147.60 207.95 148.13 C 206.91 148.66 206.50 149.92 207.03 150.96 Z M 207.49 151.86 L 207.96 152.78 C 208.48 153.81 209.75 154.22 210.78 153.70 C 211.82 153.17 212.23 151.91 211.70 150.87 L 211.24 149.95 C 210.71 148.92 209.44 148.51 208.41 149.03 C 207.38 149.56 206.96 150.82 207.49 151.86 Z M 207.95 152.77 L 208.41 153.68 C 208.94 154.72 210.20 155.13 211.24 154.61 C 212.27 154.08 212.69 152.82 212.16 151.78 L 211.70 150.88 C 211.18 149.84 209.92 149.43 208.88 149.95 C 207.85 150.47 207.43 151.74 207.95 152.77 Z M 208.41 153.68 L 208.84 154.53 C 209.37 155.57 210.63 155.98 211.66 155.46 C 212.70 154.94 213.12 153.68 212.59 152.64 L 212.16 151.79 C 211.64 150.75 210.38 150.34 209.34 150.86 C 208.31 151.38 207.89 152.64 208.41 153.68 Z M 208.84 154.53 L 209.28 155.40 C 209.80 156.43 211.06 156.85 212.10 156.33 C 213.13 155.81 213.55 154.55 213.03 153.51 L 212.60 152.64 C 212.08 151.61 210.81 151.19 209.78 151.71 C 208.74 152.23 208.32 153.49 208.84 154.53 Z M 209.28 155.39 L 209.72 156.28 C 210.23 157.31 211.50 157.73 212.53 157.22 C 213.57 156.70 213.99 155.44 213.47 154.40 L 213.03 153.52 C 212.52 152.48 211.25 152.06 210.22 152.57 C 209.18 153.09 208.76 154.35 209.28 155.39 Z M 209.71 156.27 L 210.16 157.17 C 210.68 158.21 211.94 158.63 212.97 158.12 C 214.01 157.60 214.44 156.34 213.92 155.30 L 213.48 154.40 C 212.96 153.37 211.70 152.94 210.66 153.46 C 209.62 153.97 209.20 155.23 209.71 156.27 Z M 210.16 157.17 L 210.61 158.08 C 211.12 159.12 212.38 159.55 213.42 159.04 C 214.46 158.53 214.89 157.27 214.38 156.23 L 213.93 155.31 C 213.41 154.27 212.15 153.84 211.11 154.35 C 210.07 154.87 209.65 156.13 210.16 157.17 Z M 210.61 158.08 L 211.07 159.01 C 211.58 160.06 212.83 160.49 213.87 159.98 C 214.92 159.47 215.35 158.21 214.84 157.17 L 214.38 156.23 C 213.87 155.19 212.61 154.76 211.57 155.27 C 210.53 155.78 210.10 157.04 210.61 158.08 Z M 211.06 159.01 L 211.51 159.93 C 212.02 160.97 213.27 161.41 214.32 160.90 C 215.36 160.40 215.79 159.14 215.29 158.10 L 214.84 157.18 C 214.33 156.13 213.08 155.70 212.04 156.20 C 210.99 156.71 210.56 157.97 211.06 159.01 Z M 211.51 159.92 L 211.94 160.82 C 212.44 161.86 213.70 162.30 214.74 161.80 C 215.78 161.30 216.22 160.05 215.72 159.00 L 215.29 158.11 C 214.79 157.06 213.53 156.62 212.49 157.13 C 211.45 157.63 211.01 158.88 211.51 159.92 Z M 211.94 160.82 L 212.37 161.72 C 212.87 162.77 214.13 163.21 215.17 162.71 C 216.21 162.21 216.65 160.96 216.16 159.91 L 215.72 159.01 C 215.22 157.96 213.97 157.52 212.93 158.02 C 211.88 158.52 211.44 159.77 211.94 160.82 Z M 212.37 161.72 L 212.81 162.63 C 213.30 163.67 214.55 164.12 215.60 163.62 C 216.64 163.13 217.09 161.88 216.59 160.83 L 216.16 159.92 C 215.66 158.88 214.41 158.43 213.37 158.93 C 212.32 159.42 211.88 160.67 212.37 161.72 Z M 212.81 162.62 L 213.24 163.54 C 213.73 164.58 214.98 165.03 216.02 164.54 C 217.07 164.04 217.52 162.80 217.02 161.75 L 216.59 160.84 C 216.10 159.79 214.85 159.35 213.80 159.84 C 212.76 160.33 212.31 161.58 212.81 162.62 Z M 213.24 163.53 L 213.67 164.44 C 214.16 165.49 215.40 165.94 216.45 165.45 C 217.49 164.96 217.94 163.71 217.45 162.67 L 217.02 161.76 C 216.53 160.71 215.29 160.26 214.24 160.75 C 213.20 161.24 212.75 162.49 213.24 163.53 Z M 213.67 164.44 L 214.09 165.34 C 214.58 166.39 215.82 166.84 216.87 166.35 C 217.91 165.86 218.36 164.62 217.87 163.57 L 217.45 162.67 C 216.96 161.63 215.72 161.17 214.67 161.66 C 213.63 162.15 213.18 163.40 213.67 164.44 Z M 214.09 165.34 L 214.50 166.23 C 214.99 167.28 216.23 167.73 217.28 167.24 C 218.32 166.76 218.78 165.51 218.29 164.47 L 217.87 163.58 C 217.39 162.53 216.14 162.08 215.10 162.57 C 214.05 163.05 213.60 164.29 214.09 165.34 Z M 214.50 166.23 L 214.95 167.18 C 215.43 168.23 216.67 168.68 217.72 168.20 C 218.76 167.71 219.22 166.47 218.73 165.43 L 218.29 164.47 C 217.80 163.43 216.56 162.97 215.52 163.46 C 214.47 163.94 214.02 165.18 214.50 166.23 Z M 214.95 167.18 L 215.38 168.11 C 215.86 169.16 217.10 169.61 218.14 169.13 C 219.19 168.65 219.64 167.41 219.16 166.37 L 218.73 165.43 C 218.25 164.39 217.01 163.93 215.97 164.41 C 214.92 164.89 214.47 166.13 214.95 167.18 Z M 215.38 168.11 L 215.80 169.03 C 216.28 170.07 217.52 170.53 218.56 170.05 C 219.61 169.57 220.06 168.34 219.58 167.29 L 219.16 166.37 C 218.68 165.33 217.45 164.87 216.40 165.35 C 215.36 165.83 214.90 167.06 215.38 168.11 Z M 215.80 169.02 L 216.21 169.93 C 216.69 170.97 217.92 171.43 218.97 170.96 C 220.01 170.48 220.47 169.25 220.00 168.20 L 219.58 167.30 C 219.11 166.25 217.87 165.79 216.83 166.27 C 215.78 166.75 215.32 167.98 215.80 169.02 Z M 216.21 169.92 L 216.62 170.81 C 217.09 171.86 218.33 172.32 219.37 171.85 C 220.41 171.37 220.88 170.14 220.40 169.10 L 220.00 168.21 C 219.52 167.16 218.29 166.70 217.25 167.17 C 216.20 167.65 215.74 168.88 216.21 169.92 Z M 216.62 170.81 L 217.02 171.69 C 217.49 172.73 218.72 173.20 219.76 172.73 C 220.81 172.25 221.27 171.02 220.80 169.98 L 220.40 169.10 C 219.93 168.06 218.70 167.59 217.66 168.06 C 216.61 168.54 216.15 169.77 216.62 170.81 Z M 217.02 171.69 L 217.42 172.57 C 217.89 173.62 219.11 174.08 220.16 173.61 C 221.20 173.14 221.67 171.92 221.20 170.87 L 220.80 169.98 C 220.33 168.94 219.10 168.47 218.06 168.94 C 217.01 169.41 216.55 170.64 217.02 171.69 Z M 217.42 172.57 L 217.84 173.51 C 218.31 174.55 219.53 175.02 220.57 174.55 C 221.62 174.08 222.08 172.86 221.62 171.82 L 221.20 170.88 C 220.73 169.83 219.50 169.37 218.46 169.83 C 217.42 170.30 216.95 171.53 217.42 172.57 Z M 217.84 173.50 L 218.26 174.43 C 218.72 175.47 219.94 175.94 220.98 175.47 C 222.02 175.01 222.49 173.79 222.03 172.75 L 221.61 171.82 C 221.15 170.78 219.93 170.31 218.89 170.77 C 217.84 171.24 217.38 172.46 217.84 173.50 Z M 218.26 174.43 L 218.67 175.34 C 219.13 176.38 220.35 176.85 221.39 176.39 C 222.43 175.93 222.90 174.71 222.43 173.67 L 222.02 172.75 C 221.56 171.71 220.34 171.24 219.30 171.71 C 218.26 172.17 217.80 173.39 218.26 174.43 Z M 218.67 175.34 L 219.07 176.25 C 219.53 177.29 220.75 177.75 221.79 177.29 C 222.83 176.83 223.29 175.62 222.83 174.58 L 222.43 173.67 C 221.97 172.63 220.75 172.16 219.71 172.63 C 218.68 173.09 218.21 174.30 218.67 175.34 Z M 219.08 176.25 L 219.47 177.14 C 219.94 178.18 221.15 178.65 222.19 178.19 C 223.22 177.73 223.69 176.51 223.23 175.48 L 222.83 174.58 C 222.37 173.54 221.15 173.08 220.12 173.54 C 219.08 174.00 218.62 175.21 219.08 176.25 Z M 219.48 177.14 L 219.87 178.03 C 220.33 179.06 221.55 179.53 222.58 179.07 C 223.61 178.61 224.08 177.40 223.62 176.36 L 223.22 175.48 C 222.76 174.44 221.55 173.98 220.52 174.44 C 219.48 174.90 219.02 176.11 219.48 177.14 Z M 219.88 178.03 L 220.30 178.98 C 220.76 180.01 221.97 180.47 223.00 180.01 C 224.03 179.55 224.50 178.34 224.04 177.31 L 223.61 176.36 C 223.15 175.33 221.94 174.87 220.91 175.33 C 219.88 175.79 219.42 177.00 219.88 178.03 Z M 220.31 178.98 L 220.73 179.91 C 221.19 180.94 222.39 181.40 223.42 180.94 C 224.45 180.48 224.91 179.27 224.45 178.25 L 224.03 177.31 C 223.57 176.28 222.36 175.82 221.34 176.28 C 220.31 176.74 219.85 177.95 220.31 178.98 Z M 220.73 179.91 L 221.15 180.83 C 221.61 181.86 222.81 182.31 223.84 181.85 C 224.86 181.39 225.32 180.19 224.86 179.17 L 224.44 178.25 C 223.98 177.22 222.78 176.76 221.75 177.22 C 220.73 177.68 220.27 178.89 220.73 179.91 Z M 221.15 180.83 L 221.56 181.74 C 222.02 182.76 223.22 183.21 224.24 182.75 C 225.26 182.29 225.72 181.09 225.26 180.07 L 224.85 179.17 C 224.39 178.14 223.19 177.69 222.17 178.15 C 221.15 178.61 220.69 179.81 221.15 180.83 Z M 221.56 181.74 L 221.96 182.62 C 222.42 183.64 223.62 184.09 224.64 183.63 C 225.66 183.17 226.11 181.97 225.65 180.95 L 225.25 180.07 C 224.79 179.05 223.59 178.60 222.58 179.06 C 221.56 179.52 221.10 180.72 221.56 181.74 Z M 221.97 182.62 L 222.38 183.52 C 222.84 184.53 224.03 184.98 225.05 184.52 C 226.06 184.06 226.51 182.87 226.05 181.85 L 225.65 180.96 C 225.19 179.94 223.99 179.49 222.98 179.95 C 221.96 180.41 221.51 181.61 221.97 182.62 Z M 222.39 183.51 L 222.82 184.47 C 223.28 185.47 224.47 185.92 225.48 185.46 C 226.49 185.00 226.93 183.81 226.47 182.80 L 226.04 181.85 C 225.58 180.84 224.39 180.40 223.38 180.85 C 222.37 181.31 221.93 182.50 222.39 183.51 Z M 222.83 184.46 L 223.25 185.39 C 223.71 186.39 224.89 186.84 225.90 186.38 C 226.90 185.92 227.34 184.74 226.89 183.74 L 226.46 182.81 C 226.01 181.80 224.82 181.36 223.82 181.82 C 222.82 182.27 222.37 183.46 222.83 184.46 Z M 223.26 185.38 L 223.67 186.29 C 224.13 187.29 225.31 187.73 226.30 187.27 C 227.30 186.82 227.74 185.64 227.29 184.64 L 226.87 183.74 C 226.42 182.74 225.24 182.30 224.25 182.76 C 223.25 183.21 222.81 184.39 223.26 185.38 Z M 223.69 186.28 L 224.09 187.17 C 224.54 188.16 225.71 188.60 226.70 188.14 C 227.69 187.69 228.13 186.52 227.68 185.53 L 227.28 184.65 C 226.82 183.66 225.65 183.22 224.66 183.67 C 223.67 184.12 223.23 185.29 223.69 186.28 Z M 224.10 187.16 L 224.50 188.03 C 224.94 189.02 226.11 189.46 227.09 189.01 C 228.08 188.56 228.51 187.40 228.06 186.41 L 227.67 185.54 C 227.22 184.55 226.06 184.12 225.07 184.56 C 224.08 185.01 223.65 186.18 224.10 187.16 Z M 224.51 188.03 L 224.92 188.95 C 225.37 189.93 226.52 190.36 227.50 189.92 C 228.48 189.47 228.92 188.32 228.47 187.34 L 228.05 186.42 C 227.61 185.44 226.45 185.00 225.47 185.45 C 224.49 185.89 224.06 187.05 224.51 188.03 Z M 224.93 188.94 L 225.34 189.85 C 225.79 190.82 226.93 191.26 227.91 190.82 C 228.88 190.38 229.31 189.23 228.87 188.25 L 228.46 187.35 C 228.02 186.37 226.87 185.94 225.90 186.38 C 224.93 186.82 224.49 187.97 224.93 188.94 Z M 225.36 189.84 L 225.76 190.75 C 226.20 191.71 227.34 192.15 228.31 191.71 C 229.27 191.27 229.71 190.13 229.27 189.17 L 228.86 188.26 C 228.43 187.29 227.29 186.86 226.32 187.30 C 225.35 187.73 224.92 188.87 225.36 189.84 Z M 225.77 190.74 L 226.18 191.65 C 226.61 192.61 227.74 193.04 228.70 192.61 C 229.67 192.18 230.10 191.04 229.67 190.08 L 229.26 189.17 C 228.83 188.21 227.70 187.78 226.73 188.21 C 225.77 188.64 225.34 189.77 225.77 190.74 Z M 226.19 191.64 L 226.60 192.57 C 227.03 193.52 228.15 193.95 229.11 193.53 C 230.07 193.10 230.50 191.98 230.07 191.02 L 229.66 190.09 C 229.23 189.13 228.11 188.70 227.15 189.13 C 226.19 189.56 225.76 190.68 226.19 191.64 Z M 226.61 192.56 L 227.03 193.50 C 227.45 194.46 228.57 194.89 229.52 194.47 C 230.48 194.04 230.91 192.93 230.49 191.97 L 230.07 191.03 C 229.64 190.07 228.53 189.64 227.57 190.06 C 226.62 190.49 226.18 191.60 226.61 192.56 Z M 227.03 193.49 L 227.44 194.43 C 227.86 195.39 228.97 195.82 229.92 195.40 C 230.88 194.98 231.31 193.87 230.89 192.92 L 230.48 191.98 C 230.06 191.03 228.95 190.59 228.00 191.01 C 227.05 191.43 226.61 192.54 227.03 193.49 Z M 227.44 194.42 L 227.83 195.33 C 228.25 196.28 229.35 196.72 230.30 196.31 C 231.26 195.90 231.70 194.80 231.29 193.84 L 230.89 192.93 C 230.48 191.98 229.38 191.54 228.42 191.95 C 227.47 192.36 227.03 193.47 227.44 194.42 Z M 227.83 195.31 L 228.20 196.18 C 228.60 197.14 229.70 197.58 230.65 197.18 C 231.61 196.78 232.05 195.68 231.65 194.73 L 231.29 193.86 C 230.88 192.91 229.79 192.46 228.83 192.86 C 227.88 193.26 227.43 194.36 227.83 195.31 Z M 228.20 196.16 L 228.61 197.16 C 228.99 198.11 230.08 198.57 231.04 198.19 C 231.99 197.80 232.45 196.71 232.06 195.76 L 231.65 194.76 C 231.27 193.80 230.18 193.34 229.22 193.73 C 228.27 194.12 227.81 195.21 228.20 196.16 Z M 228.60 197.13 L 228.97 198.08 C 229.34 199.03 230.41 199.50 231.37 199.14 C 232.32 198.77 232.80 197.69 232.43 196.74 L 232.06 195.79 C 231.69 194.84 230.62 194.36 229.66 194.73 C 228.71 195.10 228.24 196.17 228.60 197.13 Z M 228.97 198.04 L 229.30 198.93 C 229.65 199.89 230.70 200.38 231.66 200.03 C 232.62 199.68 233.11 198.62 232.76 197.67 L 232.43 196.77 C 232.08 195.82 231.02 195.33 230.07 195.68 C 229.11 196.02 228.62 197.08 228.97 198.04 Z M 229.30 198.90 L 229.60 199.79 C 229.93 200.75 230.98 201.26 231.93 200.93 C 232.89 200.60 233.40 199.56 233.07 198.60 L 232.76 197.70 C 232.43 196.75 231.39 196.24 230.43 196.57 C 229.47 196.90 228.97 197.94 229.30 198.90 Z M 229.61 199.75 L 229.92 200.72 C 230.23 201.67 231.25 202.19 232.20 201.88 C 233.16 201.58 233.68 200.55 233.37 199.60 L 233.06 198.64 C 232.75 197.69 231.73 197.16 230.78 197.47 C 229.83 197.78 229.30 198.80 229.61 199.75 Z M 229.93 200.67 L 230.21 201.62 C 230.49 202.57 231.49 203.11 232.44 202.83 C 233.39 202.55 233.93 201.55 233.65 200.60 L 233.36 199.65 C 233.08 198.70 232.08 198.16 231.13 198.44 C 230.18 198.72 229.64 199.72 229.93 200.67 Z M 230.22 201.58 L 230.48 202.53 C 230.74 203.48 231.71 204.03 232.66 203.78 C 233.60 203.52 234.16 202.54 233.90 201.60 L 233.64 200.65 C 233.38 199.70 232.41 199.15 231.46 199.40 C 230.52 199.66 229.96 200.63 230.22 201.58 Z M 230.49 202.48 L 230.73 203.46 C 230.95 204.40 231.90 204.98 232.84 204.75 C 233.78 204.52 234.36 203.57 234.13 202.63 L 233.89 201.65 C 233.66 200.71 232.71 200.13 231.77 200.36 C 230.83 200.59 230.26 201.54 230.49 202.48 Z M 230.73 203.40 L 230.94 204.38 C 231.14 205.32 232.06 205.91 232.99 205.72 C 233.93 205.52 234.53 204.60 234.33 203.66 L 234.12 202.69 C 233.93 201.75 233.01 201.15 232.07 201.35 C 231.13 201.55 230.54 202.47 230.73 203.40 Z M 230.95 204.31 L 231.12 205.29 C 231.28 206.22 232.17 206.85 233.10 206.69 C 234.03 206.53 234.65 205.64 234.49 204.71 L 234.32 203.73 C 234.16 202.80 233.27 202.17 232.34 202.34 C 231.41 202.50 230.79 203.38 230.95 204.31 Z M 231.13 205.22 L 231.26 206.22 C 231.38 207.15 232.23 207.80 233.16 207.67 C 234.09 207.55 234.74 206.70 234.62 205.77 L 234.48 204.78 C 234.36 203.85 233.51 203.20 232.58 203.32 C 231.65 203.45 231.00 204.30 231.13 205.22 Z M 231.27 206.16 L 231.37 207.16 C 231.46 208.08 232.28 208.75 233.20 208.66 C 234.12 208.56 234.80 207.74 234.70 206.82 L 234.60 205.83 C 234.51 204.91 233.69 204.24 232.77 204.33 C 231.85 204.42 231.18 205.24 231.27 206.16 Z M 231.38 207.11 L 231.46 208.11 C 231.53 209.02 232.32 209.70 233.24 209.64 C 234.15 209.57 234.83 208.77 234.76 207.86 L 234.69 206.86 C 234.62 205.95 233.82 205.27 232.91 205.34 C 232.00 205.41 231.31 206.20 231.38 207.11 Z M 231.47 208.08 L 231.53 209.07 C 231.59 209.98 232.36 210.67 233.27 210.61 C 234.17 210.56 234.86 209.78 234.81 208.88 L 234.75 207.89 C 234.70 206.98 233.92 206.29 233.01 206.35 C 232.11 206.40 231.42 207.18 231.47 208.08 Z M 231.55 209.05 L 231.59 210.05 C 231.63 210.94 232.39 211.64 233.29 211.60 C 234.19 211.56 234.88 210.80 234.84 209.90 L 234.79 208.90 C 234.75 208.01 233.99 207.31 233.10 207.35 C 232.20 207.39 231.51 208.15 231.55 209.05 Z M 231.60 210.02 L 231.64 211.03 C 231.66 211.92 232.41 212.62 233.30 212.59 C 234.19 212.56 234.88 211.82 234.86 210.93 L 234.83 209.92 C 234.80 209.03 234.06 208.33 233.17 208.36 C 232.28 208.39 231.58 209.13 231.60 210.02 Z M 231.65 211.01 L 231.66 211.98 C 231.68 212.86 232.41 213.56 233.29 213.55 C 234.17 213.53 234.88 212.81 234.86 211.92 L 234.84 210.95 C 234.83 210.07 234.10 209.36 233.22 209.38 C 232.34 209.39 231.63 210.12 231.65 211.01 Z M 231.67 211.96 L 231.68 212.95 C 231.69 213.83 232.40 214.53 233.28 214.53 C 234.16 214.52 234.86 213.80 234.86 212.93 L 234.85 211.94 C 234.84 211.06 234.13 210.36 233.25 210.36 C 232.37 210.37 231.67 211.09 231.67 211.96 Z M 231.69 212.94 L 231.69 213.96 C 231.69 214.83 232.40 215.54 233.27 215.54 C 234.15 215.54 234.85 214.83 234.85 213.96 L 234.85 212.94 C 234.85 212.06 234.14 211.36 233.27 211.36 C 232.40 211.36 231.69 212.07 231.69 212.94 Z M 231.70 213.96 L 231.70 214.96 C 231.70 215.82 232.40 216.53 233.27 216.53 C 234.14 216.53 234.84 215.82 234.84 214.96 L 234.84 213.96 C 234.84 213.09 234.14 212.39 233.27 212.39 C 232.40 212.39 231.70 213.09 231.70 213.96 Z M 231.70 214.96 L 231.70 215.95 C 231.70 216.81 232.41 217.51 233.27 217.51 C 234.14 217.51 234.84 216.81 234.84 215.95 L 234.84 214.96 C 234.84 214.09 234.14 213.39 233.27 213.39 C 232.41 213.39 231.70 214.09 231.70 214.96 Z M 231.71 215.95 L 231.71 216.96 C 231.71 217.82 232.41 218.52 233.27 218.52 C 234.14 218.52 234.84 217.82 234.84 216.96 L 234.84 215.95 C 234.84 215.08 234.14 214.38 233.27 214.38 C 232.41 214.38 231.71 215.08 231.71 215.95 Z M 231.71 216.96 L 231.71 217.98 C 231.71 218.84 232.41 219.54 233.27 219.54 C 234.13 219.54 234.83 218.84 234.83 217.98 L 234.83 216.96 C 234.83 216.09 234.13 215.39 233.27 215.39 C 232.41 215.39 231.71 216.09 231.71 216.96 Z"
      fill="black"
      fill-rule="nonzero" /></svg>